<?xml version="1.0" encoding="UTF-8" standalone="no"?>
<!--?xml version="1.0" encoding="iso-8859-1"?-->

<!-- Generator: Adobe Illustrator 24.0.2, SVG Export Plug-In . SVG Version: 6.00 Build 0)  -->

<svg
   version="1.1"
   id="_x34_"
   x="0px"
   y="0px"
   viewBox="0 0 42 24.000001"
   style="opacity:1"
   xml:space="preserve"
   sodipodi:docname="snes.svg"
   width="42"
   height="24"
   inkscape:version="1.2.1 (9c6d41e410, 2022-07-14)"
   xmlns:inkscape="http://www.inkscape.org/namespaces/inkscape"
   xmlns:sodipodi="http://sodipodi.sourceforge.net/DTD/sodipodi-0.dtd"
   xmlns="http://www.w3.org/2000/svg"
   xmlns:svg="http://www.w3.org/2000/svg"><defs
   id="defs51" /><sodipodi:namedview
   id="namedview49"
   pagecolor="#ffffff"
   bordercolor="#000000"
   borderopacity="0.25"
   inkscape:showpageshadow="2"
   inkscape:pageopacity="0.0"
   inkscape:pagecheckerboard="0"
   inkscape:deskcolor="#d1d1d1"
   showgrid="false"
   inkscape:zoom="28.262174"
   inkscape:cx="24.113502"
   inkscape:cy="18.328385"
   inkscape:window-width="1858"
   inkscape:window-height="1057"
   inkscape:window-x="54"
   inkscape:window-y="-8"
   inkscape:window-maximized="1"
   inkscape:current-layer="_x34_" />
<style
   type="text/css"
   id="style2">
	.st0{fill:#DCDAD9;}
	.st1{opacity:0.5;fill:#B9B8B2;}
	.st2{opacity:3.000000e-02;fill:#040000;}
	.st3{fill:#22221F;}
	.st4{fill:#35479A;}
	.st5{fill:#1A6F38;}
	.st6{fill:#E62230;}
	.st7{fill:#EAC01C;}
	.st8{opacity:0.2;fill:#FFFFFF;}
	.st9{opacity:0.2;fill:#040000;}
</style>
<g
   id="g46"
   transform="matrix(0.08110852,0,0,0.08110852,0.3095737,3.2757849)">
	<path
   class="st0"
   d="M 401.4,0 H 110.6 C 49.5,0 0,49.5 0,110.6 c 0,61.1 49.5,110.6 110.6,110.6 28,0 53.6,-10.4 73.1,-27.6 h 144.6 c 19.5,17.2 45.1,27.6 73.1,27.6 C 462.5,221.2 512,171.7 512,110.6 512,49.5 462.5,0 401.4,0 Z"
   style="fill:#ffffff"
   id="path4" />
	<g
   id="g14">
		<path
   class="st1"
   d="m 402.6,23.1 c -44.9,0 -81.3,36.3 -81.3,81.2 0,44.9 36.4,81.3 81.3,81.3 44.9,0 81.2,-36.4 81.2,-81.3 0,-44.8 -36.3,-81.2 -81.2,-81.2 z m -50.1,101.2 c -4.2,-4.2 -6.2,-9.6 -6.2,-15 0,-5.4 2.1,-10.9 6.2,-15 l 41.9,-41.9 c 8.3,-8.3 21.8,-8.3 30.1,0 4.2,4.2 6.2,9.5 6.2,15 0,5.4 -2,10.9 -6.2,15 l -42,42 c -8.4,8.1 -21.8,8.1 -30,-0.1 z m 107.3,-6.7 -41.9,41.9 c -8.3,8.3 -21.8,8.3 -30.1,0 -4.2,-4.2 -6.2,-9.6 -6.2,-15 0,-5.4 2.1,-10.8 6.2,-15 l 42,-42 c 8.2,-8.3 21.7,-8.3 30,0 4.2,4.2 6.2,9.6 6.2,15 0,5.5 -2.1,11 -6.2,15.1 z"
   id="path6"
   style="fill:#999999" />
		
			<circle
   transform="matrix(0.9997,-0.02505481,0.02505481,0.9997,-2.5454,2.7027)"
   class="st1"
   cx="106.6"
   cy="102.9"
   id="ellipse8"
   style="fill:#999999"
   r="74.400002" />
		<rect
   x="204.3"
   y="38.599998"
   class="st1"
   width="57.099998"
   height="14.7"
   id="rect10" />
		<rect
   x="204.3"
   y="64.5"
   class="st1"
   width="98.5"
   height="10.5"
   id="rect12" />
	</g>
	<path
   class="st2"
   d="m 512,109.2 v 1.4 c 0,61.1 -49.5,110.6 -110.6,110.6 -28,0 -53.6,-10.4 -73.1,-27.6 H 183.7 c -19.5,17.2 -45,27.6 -73.1,27.6 C 49.5,221.2 0,171.7 0,110.6 v -1.4 c 0.7,47.7 50,86.2 110.6,86.2 28,0 53.6,-8.3 73.1,-21.8 h 144.6 c 19.5,13.6 45.1,21.8 73.1,21.8 60.6,0.1 109.8,-38.5 110.6,-86.2 z"
   style="fill:#ffffff"
   id="path16" />
	<g
   id="g24">
		<path
   class="st3"
   d="M 232.3,119.5 211.9,140 c -2.7,2.7 -2.7,7 0,9.7 2.7,2.7 7,2.7 9.7,0 l 20.5,-20.5 c 2.7,-2.7 2.7,-7 0,-9.7 -2.7,-2.6 -7.1,-2.6 -9.8,0 z"
   id="path18" />
		<path
   class="st3"
   d="m 286,119.5 c -2.7,-2.7 -7,-2.7 -9.7,0 L 255.8,140 c -2.7,2.7 -2.7,7 0,9.7 2.7,2.7 7,2.7 9.7,0 L 286,129.2 c 2.6,-2.7 2.6,-7 0,-9.7 z"
   id="path20" />
		<path
   class="st3"
   d="M 152.2,89.9 H 122.7 V 60.4 c 0,-2 -1.6,-3.6 -3.6,-3.6 h -25 c -2,0 -3.6,1.6 -3.6,3.6 V 89.9 H 61 c -2,0 -3.6,1.6 -3.6,3.6 v 25 c 0,2 1.6,3.6 3.6,3.6 h 29.5 v 29.5 c 0,2 1.6,3.6 3.6,3.6 h 25 c 2,0 3.6,-1.6 3.6,-3.6 v -29.5 h 29.5 c 2,0 3.6,-1.6 3.6,-3.6 v -25 c 0,-1.9 -1.6,-3.6 -3.6,-3.6 z"
   id="path22" />
	</g>
	
		<circle
   transform="matrix(0.6751,-0.7378,0.7378,0.6751,81.8135,323.284)"
   class="st4"
   cx="407.89999"
   cy="68.800003"
   id="ellipse26"
   style="fill:#000000"
   r="18.6" />
	
		<circle
   transform="matrix(0.7071,-0.7071,0.7071,0.7071,31.4064,292.2374)"
   class="st5"
   cx="368.5"
   cy="108.2"
   id="ellipse28"
   style="fill:#000000"
   r="18.6" />
	
		<circle
   transform="matrix(0.2279,-0.9737,0.9737,0.2279,240.3614,511.8693)"
   class="st6"
   cx="442.89999"
   cy="104.4"
   id="ellipse30"
   style="fill:#000000"
   r="18.6" />
	
		<circle
   transform="matrix(0.2279,-0.9737,0.9737,0.2279,172.8388,504.0713)"
   class="st7"
   cx="404.29999"
   cy="143"
   id="ellipse32"
   style="fill:#000000"
   r="18.6" />
	<path
   class="st8"
   d="m 106.6,94.9 c -6.2,0 -11.3,5 -11.3,11.3 0,5.4 3.8,9.9 8.9,11 l 13.4,-13.4 c -1.1,-5.1 -5.6,-8.9 -11,-8.9 z"
   id="path34" />
	<g
   id="g44">
		<path
   class="st9"
   d="M 106,61.2 96,78.6 c -0.3,0.5 0.1,1.1 0.6,1.1 h 20.1 c 0.5,0 0.9,-0.6 0.6,-1.1 l -10,-17.4 c -0.4,-0.4 -1.1,-0.4 -1.3,0 z"
   id="path36" />
		<path
   class="st9"
   d="m 96.5,132.4 c -0.5,0 -0.9,0.6 -0.6,1.1 l 10,17.4 c 0.3,0.5 0.9,0.5 1.2,0 l 10,-17.4 c 0.3,-0.5 -0.1,-1.1 -0.6,-1.1 z"
   id="path38" />
		<path
   class="st9"
   d="M 151.4,105.4 134,95.4 c -0.5,-0.3 -1.1,0.1 -1.1,0.6 v 20.1 c 0,0.5 0.6,0.9 1.1,0.6 l 17.4,-10 c 0.5,-0.3 0.5,-1 0,-1.3 z"
   id="path40" />
		<path
   class="st9"
   d="m 79.1,95.4 -17.4,10 c -0.5,0.3 -0.5,0.9 0,1.2 l 17.4,10 c 0.5,0.3 1.1,-0.1 1.1,-0.6 V 96 c 0,-0.5 -0.6,-0.9 -1.1,-0.6 z"
   id="path42" />
	</g>
</g>
</svg>
