<?xml version="1.0" encoding="UTF-8" standalone="no"?>
<svg
   version="1.0"
   width="28"
   height="24"
   viewBox="0 0 28 24"
   preserveAspectRatio="xMidYMid"
   id="svg36"
   sodipodi:docname="xbox.svg"
   inkscape:version="1.2.1 (9c6d41e410, 2022-07-14)"
   xmlns:inkscape="http://www.inkscape.org/namespaces/inkscape"
   xmlns:sodipodi="http://sodipodi.sourceforge.net/DTD/sodipodi-0.dtd"
   xmlns="http://www.w3.org/2000/svg"
   xmlns:svg="http://www.w3.org/2000/svg">
  <defs
     id="defs40" />
  <sodipodi:namedview
     id="namedview38"
     pagecolor="#ffffff"
     bordercolor="#000000"
     borderopacity="0.25"
     inkscape:showpageshadow="2"
     inkscape:pageopacity="0.0"
     inkscape:pagecheckerboard="0"
     inkscape:deskcolor="#d1d1d1"
     showgrid="false"
     inkscape:zoom="19.379145"
     inkscape:cx="12.719859"
     inkscape:cy="21.466375"
     inkscape:window-width="1858"
     inkscape:window-height="1057"
     inkscape:window-x="54"
     inkscape:window-y="-8"
     inkscape:window-maximized="1"
     inkscape:current-layer="svg36" />
  <rect
     style="fill:#1a1a1a;stroke-width:0.037477"
     id="rect252"
     width="22.107496"
     height="11.890489"
     x="3.2180583"
     y="3.5567636"
     ry="5.5022087" />
  <g
     fill="#000000"
     id="g34"
     style="fill:#ffffff"
     transform="matrix(0.0533397,0,0,0.0533397,0.39956467,-1.7279033)">
    <path
       d="M 42.9,424.7 C 23.1,418 10.4,403.3 4.3,380.2 2.1,372 1.7,367.7 1.3,352 c -0.9,-35.2 4,-57.7 30.1,-136 10.2,-30.9 17.8,-50.9 25,-66.4 3.7,-8 5.9,-11.1 11,-16.2 5.1,-5 6.8,-7.4 8,-11.6 2.4,-8.5 9.6,-14.7 24.2,-21.1 19.1,-8.4 42,-14.6 56.9,-15.4 9.7,-0.5 10.1,-0.4 14,2.2 2.2,1.6 6.9,4.2 10.5,5.9 l 6.5,3.1 h 68.5 68.5 l 6.5,-3.1 c 3.6,-1.7 8.3,-4.3 10.5,-5.9 3.9,-2.6 4.3,-2.7 14,-2.2 19.2,1.1 52.9,11.6 68.4,21.4 7.4,4.7 10.9,8.9 12.7,15.1 1.2,4.2 2.9,6.6 8,11.6 5.1,5.1 7.3,8.2 11,16.2 7.2,15.5 14.8,35.5 25,66.4 26.1,78.3 31,100.8 30.1,136 -0.4,15.7 -0.8,20 -3,28.2 -5.8,22 -18.2,37 -36.1,43.7 -11,4.1 -11.1,4.1 -21.7,-4 -5.1,-4 -14.8,-12.9 -21.4,-19.8 C 392.4,362.4 376.2,349 357.8,341.7 L 351.2,339 H 256 160.8 l -6.6,2.7 C 135.8,349 119.6,362.4 83.5,400.1 71.4,412.7 54.2,427 51.2,427 c -1,0 -4.7,-1.1 -8.3,-2.3 z M 333.3,307.5 c 7.9,-2.1 13.1,-4.9 18.9,-10.3 22.5,-21 16.7,-57.7 -11.1,-71 -6.4,-3.1 -8.8,-3.7 -16.1,-4 -13.8,-0.7 -24.2,3.3 -33.4,12.6 -8.6,8.8 -12.6,18.5 -12.6,30.6 0.1,28.6 26.7,49.3 54.3,42.1 z m -129.5,-12.7 0.3,-10.6 10.5,-0.4 c 7.9,-0.2 10.7,-0.7 11.4,-1.8 1.1,-1.6 1.4,-21.9 0.4,-24.4 -0.5,-1.3 -2.5,-1.6 -11.5,-1.6 H 204 v -10.9 c 0,-9 -0.3,-11 -1.6,-11.5 -2,-0.8 -21.8,-0.8 -23.8,0 -1.3,0.5 -1.6,2.5 -1.6,11.5 V 256 h -10.9 c -9,0 -11,0.3 -11.5,1.6 -0.3,0.9 -0.6,6.7 -0.6,12.9 0,13.8 -0.3,13.5 13.4,13.5 h 9.6 v 10.3 c 0,5.7 0.3,10.7 0.7,11.1 0.4,0.3 6.3,0.5 13.2,0.4 l 12.6,-0.3 z m 191.7,-51.7 c 15.2,-7 18.2,-26.5 5.5,-37.3 -11,-9.5 -27.5,-6.3 -34.3,6.7 -2.8,5.5 -2.8,14.6 0.1,20.2 5.3,10.3 18.5,15.1 28.7,10.4 z M 141.3,227 c 15.4,-5.8 26.3,-20.7 27.5,-37.6 1.4,-20.3 -10.7,-38.1 -30.3,-44.8 -6.4,-2.1 -19.6,-2.1 -25.9,0 -19,6.5 -30.6,22.4 -30.6,41.9 0,19.7 12.9,36.6 32.3,42 7.1,2 19.5,1.3 27,-1.5 z m 221.4,-19.7 c 7.6,-3.5 12.3,-11.2 12.3,-20 -0.1,-13.1 -9.1,-22.3 -22,-22.3 -12.7,0 -22,9.3 -22,22 0,7.1 2.6,12.6 8,17.3 6.6,5.6 15.6,6.8 23.7,3 z m 65.2,1.6 c 6.4,-1.3 13.3,-7.2 15.6,-13.4 3.8,-9.9 0.2,-21.3 -8.4,-27.1 -4.8,-3.1 -13.9,-4.3 -19.5,-2.4 -8.6,2.8 -14.7,11.7 -14.7,21.3 0,10.5 6.1,18.6 16,21.3 5.8,1.6 5.2,1.6 11,0.3 z m -200.1,-9.5 c 3.7,-2.4 6.2,-7.4 6.2,-12.4 0,-7.9 -6,-14 -13.8,-14 -11.4,0 -18.1,10.4 -13.2,20.4 3.7,7.8 13.7,10.7 20.8,6 z m 71.8,0.5 c 5.6,-2.6 8.9,-8.9 7.9,-14.9 -2.9,-17 -28.5,-15.4 -28.5,1.8 0,6.9 3.7,12.4 9.6,14.2 4.6,1.3 6.5,1.1 11,-1.1 z m 95.9,-25.8 c 15.2,-7 18.2,-26.5 5.5,-37.3 -11,-9.5 -27.5,-6.3 -34.3,6.7 -2.8,5.5 -2.8,14.6 0.1,20.2 5.3,10.3 18.5,15.1 28.7,10.4 z m -133,-17.6 c 8.6,-1.4 17.5,-10.5 19.5,-20 4.9,-23.7 -20.9,-41.1 -41,-27.6 -15.6,10.5 -15.3,33.4 0.5,44.3 3.8,2.5 12.2,4.9 15.5,4.2 0.8,-0.1 3.3,-0.5 5.5,-0.9 z"
       id="path2"
       style="fill:#ffffff" />
    <path
       d="m 315.1,302 c -19.4,-4.1 -32.7,-23.6 -29.2,-42.7 1.5,-8.1 4,-13.1 9.4,-19 21.7,-23.5 59.9,-10.9 64.1,21.2 2.2,16.3 -9,33.7 -25.2,39.3 -4.7,1.6 -14.1,2.2 -19.1,1.2 z m 18.2,-9 c 10.9,-4.1 18.7,-15.6 18.7,-27.5 0,-22.1 -23.1,-36.3 -42.8,-26.4 -7,3.5 -10.5,7.1 -14,14.8 -2.1,4.6 -2.4,6.4 -2,13 0.6,9 2.9,14.2 9,20.1 8,7.6 20.3,10 31.1,6 z"
       id="path4"
       style="fill:#ffffff" />
    <path
       d="m 315.5,287.8 c -8.2,-2.3 -16.5,-13.6 -16.5,-22.5 0,-7.8 5.8,-17 13.3,-21 4.3,-2.4 16,-2.4 20.3,-0.1 14.2,7.7 17.3,25.6 6.5,37.1 -5.6,6.1 -15.3,8.8 -23.6,6.5 z"
       id="path6"
       style="fill:#ffffff" />
    <path
       d="M 183,289.7 C 183,283 182.6,279 181.8,278.2 181,277.4 177,277 170.3,277 H 160 v -7.5 -7.5 h 10.3 c 6.7,0 10.7,-0.4 11.5,-1.2 0.8,-0.8 1.2,-4.7 1.2,-11 V 240 h 7.5 7.4 l 0.3,10.8 0.3,10.7 10.8,0.3 10.7,0.3 v 7.4 7.5 h -9.8 c -6.3,0 -10.2,0.4 -11,1.2 -0.8,0.8 -1.2,4.8 -1.2,11.5 V 300 h -7.5 -7.5 z"
       id="path8"
       style="fill:#ffffff" />
    <path
       d="m 381.7,237.6 c -9.5,-3.4 -13.4,-13.1 -9.1,-22.3 3.5,-7.3 14,-10.6 21.4,-6.8 3.7,1.9 7.6,7.1 8.5,11.2 1.5,7.2 -4.1,16.2 -11.6,18.3 -4.2,1.2 -4.5,1.2 -9.2,-0.4 z"
       id="path10"
       style="fill:#ffffff" />
    <path
       d="m 118.8,223 c -9.6,-1.7 -19.1,-8.2 -24.7,-16.8 -9.4,-14.7 -7.1,-34.1 5.6,-46.4 2.6,-2.6 7.5,-6 10.8,-7.5 5.2,-2.4 7.2,-2.8 15,-2.8 7.8,0 9.9,0.4 15.3,2.9 15.1,6.9 24.2,24.1 21.3,40 -3.8,20.7 -22.9,34.2 -43.3,30.6 z m 19.3,-9.8 c 11.2,-5.5 17.4,-16.2 16.7,-28.7 -0.7,-11.2 -6.1,-19.5 -16,-24.4 -19.6,-9.9 -42.8,4 -42.8,25.6 0,12.5 7.4,24 18.4,28.3 6.9,2.7 17.3,2.3 23.7,-0.8 z"
       id="path12"
       style="fill:#ffffff" />
    <path
       d="m 120,209.1 c -8.2,-2.7 -14.9,-9.2 -17,-16.7 -4.3,-15.3 8.6,-30.7 24.4,-29.1 3,0.3 6.8,1.2 8.4,2.1 7.5,3.9 13.2,13.2 13.2,21.5 0,4.4 -3.2,11.7 -6.8,15.4 -5.4,5.7 -15.8,8.9 -22.2,6.8 z"
       id="path14"
       style="fill:#ffffff" />
    <path
       d="m 345,200.8 c -7.6,-5.2 -9.9,-13.1 -6.1,-20.7 5.4,-10.5 19.7,-11.8 26.9,-2.3 3.5,4.7 3.9,13.5 0.6,17.9 -3.5,4.8 -8.2,7.3 -13.4,7.3 -3.2,0 -5.7,-0.7 -8,-2.2 z"
       id="path16"
       style="fill:#ffffff" />
    <path
       d="m 415,200.8 c -5.7,-3.9 -7.5,-7.2 -7.5,-13.8 0,-4.3 0.5,-6.6 2.1,-8.7 2.4,-3.3 9.7,-7.3 13.4,-7.3 1.4,0 4.6,1 7,2.3 14.7,7.4 9.4,29.7 -7,29.7 -3.2,0 -5.7,-0.7 -8,-2.2 z"
       id="path18"
       style="fill:#ffffff" />
    <path
       d="m 214.2,192.7 c -3.9,-4.2 -2.6,-10.5 2.8,-12.7 6,-2.5 12.1,2.9 10.4,9.4 -1.4,5.6 -9.2,7.6 -13.2,3.3 z"
       id="path20"
       style="fill:#ffffff" />
    <path
       d="m 288.3,193.5 c -7.3,-5.1 -0.5,-16.9 7.7,-13.5 3.6,1.5 5,3.7 5,7.8 0,5.8 -7.6,9.3 -12.7,5.7 z"
       id="path22"
       style="fill:#ffffff" />
    <path
       d="M 381.7,168.5 C 374.6,166 371,161 371,153.8 c 0,-9.2 6.4,-15.8 15.2,-15.8 6,0 9.8,1.9 13.5,6.6 2.2,2.9 2.7,4.7 2.7,8.9 0,5.9 -1.6,9.1 -6.6,12.8 -4.2,3.2 -9.3,4 -14.1,2.2 z"
       id="path24"
       style="fill:#ffffff" />
    <path
       d="m 248,149.4 c -4.8,-2.1 -7,-4.3 -6.3,-6.2 1.2,-3.2 7.3,-11 10.9,-13.7 l 3.6,-2.7 5.2,5.1 c 5.8,5.7 9.1,11.2 8.2,13.6 -0.9,2.4 -8.5,5.5 -13.6,5.4 -2.5,0 -6.1,-0.7 -8,-1.5 z"
       id="path26"
       style="fill:#ffffff" />
    <path
       d="m 273,139.2 c 0,-3.1 -4.3,-11.3 -8,-15.6 l -3,-3.4 2.6,-2.1 c 3.7,-2.9 4.9,-2.7 8.1,1.5 3.4,4.6 4.5,14.4 1.9,19 -1.4,2.7 -1.5,2.7 -1.6,0.6 z"
       id="path28"
       style="fill:#ffffff" />
    <path
       d="m 236.6,137.4 c -2.1,-5.5 0.3,-16.2 4.4,-19.9 1.7,-1.5 2.1,-1.5 4.9,0 1.7,0.8 3.1,1.8 3.1,2 0,0.3 -2,3.5 -4.6,7.1 -2.5,3.7 -4.8,8 -5.1,9.5 -0.6,3.2 -1.8,3.7 -2.7,1.3 z"
       id="path30"
       style="fill:#ffffff" />
    <path
       d="m 252.1,112.6 -2.4,-1.3 3.2,-0.5 c 1.7,-0.2 4.5,-0.2 6.2,0 l 3.2,0.5 -3.3,1.3 c -3.9,1.7 -3.9,1.7 -6.9,0 z"
       id="path32"
       style="fill:#ffffff" />
  </g>
</svg>
