<svg xmlns="http://www.w3.org/2000/svg" viewBox="0 0 400 104.894">
    <path d="m14.61 59.898 46.749 44.996H400V76.26l-18.992-16.362M76.844 0v11.98c0 2.337-1.46 4.09-4.675 4.967-2.921.876-7.012 1.46-11.98 1.46-5.258 0-9.349-.584-12.563-1.46-2.922-.877-4.383-2.338-4.383-4.383V0H56.1v11.687c0 .877.293 1.461 1.17 2.046.876.292 2.044.584 4.09.584 1.46 0 2.63 0 3.798-.292.877-.585 1.461-.877 1.461-1.169.292-.292.292-1.169.292-2.045V0h9.934zm16.947 11.687v6.72H82.396V0h15.486c3.798 0 6.72.292 8.765.584 2.045.585 3.506 1.17 4.675 2.046 1.169.876 2.045 2.045 2.045 3.214 0 1.753-1.168 3.214-3.506 4.09-2.63 1.169-5.843 1.753-9.934 1.753h-6.136zm-.292-4.09h3.798c3.214 0 4.967-.585 4.967-1.753 0-1.17-1.46-1.753-4.675-1.753H93.5v3.506zm50.256 6.428v4.383h-27.466V0h27.466v4.09h-16.363v2.63h13.44v4.09h-13.44v2.923h16.363zm33.893 4.383h-12.272l-5.26-7.013h-3.505v7.013h-11.103V0h18.7c4.09 0 7.304.584 9.642 1.46 2.63.877 3.798 2.338 3.798 3.8 0 1.168-.292 2.045-1.169 2.921-.876.877-2.63 1.461-4.967 2.045l6.136 8.182zM156.903 7.305h4.675c1.46 0 2.63-.293 3.214-.585.876 0 1.169-.584 1.169-1.169 0-1.168-1.461-1.753-4.091-1.753h-4.967v3.507zM23.083 18.7c-2.922 0-5.26-.292-7.597-.585-2.338-.292-3.799-.876-5.26-1.46-1.46-.585-2.63-1.461-3.214-2.046-.876-.876-1.168-1.753-1.168-2.63h7.304c0 .585.585 1.17 1.169 1.754.584.584 1.169.876 2.045 1.168.877.293 1.753.585 2.922.585 1.169 0 2.338.292 3.506.292s2.338 0 3.214-.292c.877 0 1.753-.292 2.63-.585l1.753-.876c.292-.292.585-.585.585-.877s-.293-.584-.585-.876-.876-.585-1.753-.877c-.877-.292-2.045-.292-3.214-.584-1.46-.292-3.214-.292-4.967-.585-2.338-.292-4.383-.584-5.844-.876-1.753-.292-2.922-.584-4.09-1.169-1.17-.292-1.753-.876-2.338-1.46-.584-.585-.876-1.17-.876-1.754 0-.876.292-1.46 1.168-2.045.585-.585 1.753-1.169 2.922-1.753C12.564.584 14.317.292 16.07 0h5.844c2.337 0 4.383 0 6.136.292 1.753.292 3.506.585 4.967 1.169 1.46.584 2.337 1.169 3.214 2.045.876.877 1.169 1.753 1.169 2.63h-7.305c-.584-2.045-3.214-3.214-8.181-3.214-2.338 0-4.383.292-5.552.584-1.168.292-2.045.877-2.045 1.461 0 .292 0 .584.292.584s.877.293 1.461.585 1.461.292 2.338.584c.876 0 2.045.292 3.506.292 1.169 0 2.337.293 3.798.293 1.169 0 2.63.292 3.799.584 1.168.292 2.337.292 3.506.584 1.169.293 2.045.585 2.922.877.876.292 1.46.876 2.045 1.46.584.585.584 1.17.584 1.754 0 .876-.292 1.46-1.168 2.337-.877.585-1.754 1.17-3.214 1.753s-2.922.877-4.968 1.17c-1.753.584-3.798.876-6.135.876zm345.945 29.803h-3.214v8.18h-2.045v-8.18h-3.214v-1.754h8.473v1.754zm11.98 8.18h-2.045v-6.427l-2.338 6.428h-1.753l-2.337-6.428v6.428h-2.046v-9.935h2.63l2.338 7.013 2.337-7.013h2.63v9.935z"/>
    <path d="M108.692 97.297V83.272l2.046-.584c21.037-7.889 54.638-26.589 56.391-32.432.292-.877 0-1.753-.584-2.922-1.461-1.753-4.09-3.214-6.72-3.214-3.507 0-6.72 2.337-7.305 5.26l-.292 2.044h-44.412l.876-3.798c4.091-16.07 24.544-26.589 51.717-26.589 30.387 0 51.717 10.811 51.717 26.589 0 11.103-11.396 20.16-34.478 27.465h32.432v21.622H108.692z"/>
    <path fill="#fff" d="M169.175 50.84c1.46-4.967-4.675-9.642-10.52-9.642-4.966 0-9.057 3.214-10.225 7.597h-37.108c3.506-13.733 21.914-24.252 48.795-24.252 26.88 0 48.795 9.35 48.795 23.667 0 12.564-17.824 21.038-40.03 26.881v3.507h38.277v15.777h-95.837v-9.057c16.947-6.428 55.807-26.005 57.853-34.478z"/>
    <path d="M53.47 100.511c-13.149 0-37.108-1.753-47.919-12.564C2.045 84.15 0 80.058 0 75.091V72.17h42.659l.584 2.338c.292 2.337 4.09 4.675 9.642 4.675 6.136 0 10.811-2.63 10.811-5.26s-4.675-5.259-10.81-5.259h-1.754l-3.214.585V49.67l4.383.585h1.169c4.967 0 8.473-2.338 8.473-4.675 0-2.338-3.798-4.675-8.473-4.675s-8.181 2.045-8.474 4.09l-.584 2.338H4.091v-2.922c0-6.136 5.843-12.856 14.609-16.947 8.473-4.09 20.453-6.136 35.646-6.136 24.544 0 49.38 7.013 49.38 20.161 0 5.552-4.968 11.103-12.565 14.902 11.103 4.09 15.486 11.687 15.486 17.823.292 15.193-23.375 26.296-53.177 26.296z"/>
    <path fill="#fff" d="M2.922 75.091h37.4c.876 4.09 6.135 7.305 12.563 7.305 7.597 0 13.733-3.798 13.733-8.181 0-4.383-6.136-8.181-13.733-8.181h-2.337V53.178c.876 0 1.46.292 2.337.292 6.428 0 11.395-3.214 11.395-7.597 0-4.09-5.259-7.597-11.395-7.597-5.843 0-10.81 2.922-11.395 6.72H7.012c0-4.675 4.968-10.518 12.857-14.317 8.765-4.09 20.745-5.843 34.477-5.843 26.297 0 46.458 7.596 46.458 17.239 0 5.843-7.597 11.103-19.869 14.024v3.214c15.194 1.753 22.498 7.89 22.498 15.778 0 12.272-22.498 22.498-50.548 22.498S2.922 90.87 2.922 75.091"/>
    <path fill="#1d46a5" d="M393.572 100.804H281.373L177.356 0h112.198v.292l104.018 100.804"/>
    <path d="m309.13 97.297-16.654-15.193-16.362 15.193h-62.82l47.334-44.412L213.002 9.35h63.404l15.486 14.025L306.793 9.35h62.82L323.74 52.593l48.795 44.704"/>
    <path fill="#fff" d="m264.719 52.885-44.12-40.613h54.638l16.655 15.193 16.07-15.193h54.346l-42.95 40.321 45.58 41.782h-54.639l-17.823-16.362-17.239 16.362H220.6l44.12-41.49z"/>
</svg>
