<?xml version="1.0" encoding="UTF-8" standalone="no"?>
<svg
   id="Layer_1"
   data-name="Layer 1"
   viewBox="0 0 64 64"
   version="1.1"
   sodipodi:docname="button_circle.svg"
   width="64"
   height="64"
   inkscape:version="1.3.2 (091e20e, 2023-11-25, custom)"
   xmlns:inkscape="http://www.inkscape.org/namespaces/inkscape"
   xmlns:sodipodi="http://sodipodi.sourceforge.net/DTD/sodipodi-0.dtd"
   xmlns="http://www.w3.org/2000/svg"
   xmlns:svg="http://www.w3.org/2000/svg">
  <sodipodi:namedview
     id="namedview2"
     pagecolor="#505050"
     bordercolor="#eeeeee"
     borderopacity="1"
     inkscape:showpageshadow="0"
     inkscape:pageopacity="0"
     inkscape:pagecheckerboard="0"
     inkscape:deskcolor="#505050"
     inkscape:zoom="12.562194"
     inkscape:cx="40.797014"
     inkscape:cy="28.617613"
     inkscape:window-width="2560"
     inkscape:window-height="1351"
     inkscape:window-x="-9"
     inkscape:window-y="-9"
     inkscape:window-maximized="1"
     inkscape:current-layer="Layer_1" />
  <defs
     id="defs1">
    <style
       id="style1">.cls-1{fill:#fff;}</style>
  </defs>
  <path
     class="cls-1"
     d="M 32,21.055676 A 10.944324,10.944324 0 1 0 42.944324,32 10.956128,10.956128 0 0 0 32,21.055676 Z"
     id="path1"
     style="fill:#ffffff;stroke-width:0.196734" />
  <path
     class="cls-1"
     d="M 32,2 C 15.458588,2 2,15.458588 2,32 2,48.541412 15.458588,62 32,62 48.541412,62 62,48.541412 62,32 62,15.458588 48.541412,2 32,2 Z m 0,47.084399 A 17.084399,17.084399 0 1 1 49.084399,32 17.104072,17.104072 0 0 1 32,49.084399 Z"
     id="path2"
     style="fill:#ffffff;stroke-width:0.196734" />
</svg>
