<?xml version="1.0" encoding="UTF-8" standalone="no"?>
<svg
   id="Layer_1"
   data-name="Layer 1"
   viewBox="0 0 64 64.000001"
   version="1.1"
   sodipodi:docname="leftright.svg"
   width="64"
   height="64"
   inkscape:version="1.3.2 (091e20e, 2023-11-25, custom)"
   xmlns:inkscape="http://www.inkscape.org/namespaces/inkscape"
   xmlns:sodipodi="http://sodipodi.sourceforge.net/DTD/sodipodi-0.dtd"
   xmlns="http://www.w3.org/2000/svg"
   xmlns:svg="http://www.w3.org/2000/svg">
  <sodipodi:namedview
     id="namedview4"
     pagecolor="#505050"
     bordercolor="#eeeeee"
     borderopacity="1"
     inkscape:showpageshadow="0"
     inkscape:pageopacity="0"
     inkscape:pagecheckerboard="0"
     inkscape:deskcolor="#505050"
     inkscape:zoom="12.562194"
     inkscape:cx="40.876618"
     inkscape:cy="32.916225"
     inkscape:window-width="2560"
     inkscape:window-height="1351"
     inkscape:window-x="-9"
     inkscape:window-y="-9"
     inkscape:window-maximized="1"
     inkscape:current-layer="Layer_1" />
  <defs
     id="defs1">
    <style
       id="style1">.cls-1{fill:#fff;}</style>
  </defs>
  <path
     style="color:#000000;fill:#ffffff;stroke:#ffffff;stroke-width:3.24956px;stroke-miterlimit:10;-inkscape-stroke:none"
     d="m 36.242309,3.8441273 c 0,0 -2.029351,-0.2193459 -4.24231,-0.2193459 -2.21295,0 -4.242309,0.2193459 -4.242309,0.2193459 0,0 -4.68425,0.2079722 -5.036828,4.1805677 l 0.281087,8.588605 a 4.3869153,4.3869153 0 0 0 0.960247,2.599654 l 6.174175,6.82409 a 1.1893415,1.1893415 0 0 0 0.742528,0.438692 7.0271884,7.0271884 0 0 0 1.1211,0.09262 7.2384103,7.2384103 0 0 0 1.249463,-0.116984 0.87900785,0.87900785 0 0 0 0.532921,-0.315208 l 6.099441,-6.72173 a 5.0953209,5.0953209 0 0 0 1.119478,-3.035096 L 41.275887,8.0328222 C 40.832318,4.053727 36.242309,3.8441302 36.242309,3.8441302 Z"
     id="path20" />
  <path
     style="color:#000000;fill:#ffffff;stroke:#ffffff;stroke-width:3.24956px;stroke-miterlimit:10;-inkscape-stroke:none"
     d="m 27.75769,60.15425 c 0,0 2.029359,0.220969 4.242309,0.220969 2.212959,0 4.24231,-0.220969 4.24231,-0.220969 0,0 4.684247,-0.206353 5.036831,-4.178944 L 40.998049,47.3867 a 4.3869153,4.3869153 0 0 0 -0.960243,-2.599651 l -6.174179,-6.82409 a 1.1893415,1.1893415 0 0 0 -0.736031,-0.432197 7.0044415,7.0044415 0 0 0 -1.1211,-0.09424 7.2156633,7.2156633 0 0 0 -1.249453,0.118613 0.87900785,0.87900785 0 0 0 -0.532932,0.315206 l -6.099437,6.721725 a 5.0920713,5.0920713 0 0 0 -1.119475,3.0351 l -0.274589,8.346516 c 0.437067,3.972591 5.02708,4.180566 5.02708,4.180566 z"
     id="path22" />
  <path
     style="color:#000000;fill:none;stroke:#ffffff;stroke-width:3.24956px;stroke-miterlimit:10;-inkscape-stroke:none"
     d="m 3.8441273,27.75769 c 0,0 -0.2193459,2.029359 -0.2193459,4.242309 0,2.21296 0.2193459,4.240688 0.2193459,4.240688 0,0 0.2079722,4.685869 4.1805676,5.036831 L 16.6133,40.996427 a 4.3869153,4.3869153 0 0 0 2.599654,-0.960253 l 6.82409,-6.174169 a 1.1942158,1.1942158 0 0 0 0.438692,-0.740906 7.0271884,7.0271884 0 0 0 0.09262,-1.1211 7.2384103,7.2384103 0 0 0 -0.116984,-1.249453 0.87900785,0.87900785 0 0 0 -0.315209,-0.532931 L 19.414427,24.118176 A 5.0920713,5.0920713 0 0 0 16.379331,22.998699 L 8.0328193,22.724111 c -3.9790951,0.443566 -4.188692,5.033579 -4.188692,5.033579 z"
     id="path24" />
  <path
     style="color:#000000;display:inline;fill:none;stroke:#ffffff;stroke-width:3.24956px;stroke-miterlimit:10;-inkscape-stroke:none"
     d="m 60.155872,36.240687 c 0,0 0.219347,-2.027728 0.219347,-4.240688 0,-2.21295 -0.219347,-4.242309 -0.219347,-4.242309 0,0 -0.207975,-4.68425 -4.180566,-5.036828 l -8.588607,0.281087 a 4.3869153,4.3869153 0 0 0 -2.59965,0.960247 l -6.82409,6.174175 a 1.1893415,1.1893415 0 0 0 -0.432197,0.736031 7.0271884,7.0271884 0 0 0 -0.09263,1.1211 7.2384103,7.2384103 0 0 0 0.11699,1.249453 0.87900785,0.87900785 0 0 0 0.315207,0.532932 l 6.721725,6.09944 a 5.1034448,5.1034448 0 0 0 3.0351,1.119479 l 8.346516,0.274584 c 3.972591,-0.437072 4.182187,-5.028703 4.182187,-5.028703 z"
     id="path26" />
</svg>
