<?xml version="1.0" encoding="UTF-8" standalone="no"?>
<svg
   viewBox="0 0 16 12"
   version="1.1"
   id="svg1"
   sodipodi:docname="incharge.svg"
   inkscape:version="1.3.2 (091e20e, 2023-11-25, custom)"
   width="16"
   height="12"
   xmlns:inkscape="http://www.inkscape.org/namespaces/inkscape"
   xmlns:sodipodi="http://sodipodi.sourceforge.net/DTD/sodipodi-0.dtd"
   xmlns="http://www.w3.org/2000/svg"
   xmlns:svg="http://www.w3.org/2000/svg">
  <defs
     id="defs1" />
  <sodipodi:namedview
     id="namedview1"
     pagecolor="#505050"
     bordercolor="#eeeeee"
     borderopacity="1"
     inkscape:showpageshadow="0"
     inkscape:pageopacity="0"
     inkscape:pagecheckerboard="0"
     inkscape:deskcolor="#505050"
     inkscape:zoom="50.248776"
     inkscape:cx="6.8558884"
     inkscape:cy="7.4330169"
     inkscape:window-width="2560"
     inkscape:window-height="1351"
     inkscape:window-x="-9"
     inkscape:window-y="-9"
     inkscape:window-maximized="1"
     inkscape:current-layer="svg1" />
  <path
     style="line-height:normal;text-indent:0;text-align:start;text-decoration-line:none;text-decoration-style:solid;text-decoration-color:#000000;text-transform:none;isolation:auto;mix-blend-mode:normal;fill:#00ff00;fill-opacity:1;stroke-width:1"
     d="M 1.588,2 C 0.718,2 0,2.717 0,3.588 V 8.412 C 0,9.282 0.717,10 1.588,10 H 12.412 C 13.282001,10 14,9.283 14,8.412 V 8 h 1 c 0.547,0 1,-0.453 1,-1 V 5 C 16,4.453 15.547,4 15,4 H 14 V 3.588 C 14,2.718 13.283,2 12.412,2 Z m 0,1 H 12.412 C 12.742001,3 13,3.258 13,3.588 V 8.412 C 13,8.742 12.742001,9 12.412,9 H 1.588 A 0.582,0.582 0 0 1 1,8.412 V 3.588 C 1,3.258 1.258,3 1.588,3 Z M 7,4 3,6 H 6 L 7,8 11,6 H 8 Z m 7,1 h 1 v 2 h -1 z"
     color="#000000"
     font-weight="400"
     font-family="sans-serif"
     overflow="visible"
     id="path1" />
</svg>
