<?xml version="1.0" encoding="UTF-8" standalone="no"?>
<svg
   version="1.1"
   viewBox="0 0 1000 459"
   id="svg150"
   sodipodi:docname="Ace Attorney.svg"
   inkscape:version="1.1.2 (0a00cf5339, 2022-02-04)"
   xmlns:inkscape="http://www.inkscape.org/namespaces/inkscape"
   xmlns:sodipodi="http://sodipodi.sourceforge.net/DTD/sodipodi-0.dtd"
   xmlns:xlink="http://www.w3.org/1999/xlink"
   xmlns="http://www.w3.org/2000/svg"
   xmlns:svg="http://www.w3.org/2000/svg">
  <defs
     id="defs154">
    <linearGradient
       inkscape:collect="always"
       id="linearGradient16084">
      <stop
         style="stop-color:#0a7db9;stop-opacity:1;"
         offset="0"
         id="stop16080" />
      <stop
         style="stop-color:#0a2558;stop-opacity:1"
         offset="1"
         id="stop16082" />
    </linearGradient>
    <linearGradient
       inkscape:collect="always"
       id="linearGradient1147">
      <stop
         style="stop-color:#feff27;stop-opacity:1"
         offset="0"
         id="stop1143" />
      <stop
         style="stop-color:#ff7f2a;stop-opacity:1"
         offset="1"
         id="stop1145" />
    </linearGradient>
    <radialGradient
       inkscape:collect="always"
       xlink:href="#linearGradient1147"
       id="radialGradient1149"
       cx="163.27812"
       cy="151.6387"
       fx="163.27812"
       fy="151.6387"
       r="97.986169"
       gradientTransform="matrix(1,0,0,0.94927325,0,8.6076889)"
       gradientUnits="userSpaceOnUse" />
    <linearGradient
       inkscape:collect="always"
       xlink:href="#linearGradient16084"
       id="linearGradient16086"
       x1="548.58435"
       y1="266.98764"
       x2="548.58435"
       y2="436.09622"
       gradientUnits="userSpaceOnUse" />
  </defs>
  <sodipodi:namedview
     id="namedview152"
     pagecolor="#ffffff"
     bordercolor="#666666"
     borderopacity="1.0"
     inkscape:pageshadow="2"
     inkscape:pageopacity="0.0"
     inkscape:pagecheckerboard="0"
     showgrid="false"
     inkscape:zoom="1.1529918"
     inkscape:cx="428.45058"
     inkscape:cy="114.48477"
     inkscape:window-width="1920"
     inkscape:window-height="1011"
     inkscape:window-x="1920"
     inkscape:window-y="32"
     inkscape:window-maximized="1"
     inkscape:current-layer="svg150" />
  <g
     fill="#000000"
     id="g108">
    <path
       d="   M 1.39 317.97   Q 1.12 318.37 0.71 318.52   A 0.26 0.26 0.0 0 1 0.42 318.12   L 87.43 209.93   A 1.07 1.07 0.0 0 0 87.64 209.03   Q 76.70 159.87 106.45 120.29   A 0.35 0.35 0.0 0 0 106.45 119.87   L 32.19 22.28   A 0.28 0.28 0.0 0 1 32.58 21.89   L 131.97 96.86   A 0.46 0.45 -42.3 0 0 132.49 96.88   Q 169.02 74.60 211.26 83.98   A 1.83 1.80 30.3 0 0 212.83 83.58   L 307.80 1.07   A 0.16 0.16 0.0 0 1 308.03 1.28   L 239.80 94.49   A 0.94 0.93 33.8 0 0 240.07 95.84   C 272.96 116.05 290.52 150.11 289.59 188.45   A 0.53 0.53 0.0 0 0 290.08 188.99   Q 292.89 189.22 295.74 189.23   C 310.73 189.28 326.52 192.81 337.91 202.31   A 0.59 0.58 43.7 0 0 338.67 202.30   C 358.87 183.72 388.89 179.12 414.17 187.09   C 440.13 195.29 459.13 217.37 458.35 245.22   C 458.15 252.55 458.22 257.11 454.47 262.35   A 0.89 0.88 51.9 0 0 454.37 263.21   Q 457.90 271.48 454.33 278.81   Q 446.54 294.80 430.94 306.44   A 1.14 1.12 72.1 0 0 430.50 307.32   L 430.50 310.13   A 0.55 0.55 0.0 0 0 431.05 310.68   C 438.23 310.78 444.28 310.28 450.38 315.45   A 0.61 0.60 -43.8 0 0 451.16 315.46   C 476.91 294.86 518.70 294.21 546.32 311.32   A 0.72 0.72 0.0 0 0 547.14 311.27   Q 551.70 307.60 556.75 306.80   Q 575.23 303.86 593.71 300.98   C 600.15 299.97 604.91 299.77 609.99 303.01   Q 611.20 303.79 611.98 304.10   A 1.09 1.08 -48.0 0 0 612.88 304.05   C 626.12 297.05 642.03 298.62 654.62 306.22   A 1.38 1.36 55.0 0 0 655.56 306.39   Q 672.25 303.30 688.93 300.40   Q 696.00 299.17 701.18 302.07   C 703.16 303.18 703.41 303.62 705.82 302.82   C 725.55 296.29 749.35 298.98 763.42 315.63   A 0.44 0.44 0.0 0 0 764.08 315.65   C 783.45 294.59 817.51 292.28 842.85 301.69   A 0.81 0.80 -56.1 0 0 843.69 301.52   C 847.52 297.85 851.22 296.45 856.86 296.39   Q 882.43 296.10 908.00 296.31   Q 916.48 296.38 921.75 297.74   A 1.57 1.55 41.7 0 0 922.71 297.69   Q 925.75 296.54 927.75 296.49   Q 950.21 295.87 981.88 296.42   C 987.34 296.51 994.52 297.68 997.36 302.93   C 1007.95 322.49 982.71 330.99 970.30 336.80   C 968.94 337.43 967.82 338.36 967.08 339.84   Q 943.72 386.96 920.88 434.34   Q 916.00 444.47 907.56 451.09   C 894.87 461.03 876.67 461.39 863.31 452.57   Q 845.98 441.11 850.02 417.97   A 0.20 0.20 0.0 0 0 849.79 417.74   Q 849.48 417.80 849.30 418.10   A 1.27 1.26 5.8 0 1 848.66 418.62   C 827.85 426.35 801.77 425.64 781.69 416.32   A 0.73 0.72 34.8 0 0 780.89 416.46   C 775.67 421.47 770.91 422.76 763.24 422.75   Q 740.17 422.73 717.12 422.77   C 714.54 422.77 710.85 421.66 707.60 422.23   Q 704.61 422.76 703.36 422.76   Q 679.11 422.74 654.89 422.75   C 646.20 422.76 640.32 421.83 635.17 415.34   A 0.47 0.47 0.0 0 0 634.46 415.31   C 628.20 422.03 623.32 423.27 613.75 423.27   Q 584.25 423.26 554.75 423.28   Q 547.23 423.28 541.40 418.75   A 0.85 0.85 0.0 0 0 540.54 418.64   C 512.60 430.46 473.45 428.59 449.52 409.23   A 0.40 0.40 0.0 0 0 449.00 409.26   C 439.52 418.52 428.31 423.36 414.87 424.67   C 396.92 426.43 376.36 422.64 363.96 408.29   A 0.30 0.30 0.0 0 0 363.52 408.28   Q 348.77 422.89 327.89 424.43   A 0.32 0.32 0.0 0 0 327.62 424.88   C 332.51 436.13 329.97 451.02 317.70 455.94   Q 314.41 457.26 308.60 457.26   Q 278.88 457.30 249.15 457.25   C 240.68 457.24 235.41 456.29 230.28 450.03   A 0.42 0.42 0.0 0 0 229.64 450.02   C 225.09 455.20 220.36 457.22 213.14 457.23   Q 194.49 457.27 175.85 457.25   Q 169.28 457.25 165.83 455.89   C 156.86 452.38 152.90 442.84 153.75 433.57   C 154.61 424.14 159.73 417.54 169.03 414.98   A 2.29 2.26 5.4 0 0 170.45 413.82   Q 171.75 411.26 173.03 408.37   Q 193.03 363.11 212.93 317.75   A 0.33 0.33 0.0 0 0 212.63 317.29   Q 199.26 317.24 185.85 317.24   C 178.30 317.25 173.50 315.51 168.85 310.03   A 0.42 0.42 0.0 0 0 168.21 310.03   C 163.67 315.29 159.04 317.17 151.75 317.22   Q 132.39 317.34 113.04 317.28   C 103.45 317.25 96.10 312.75 93.23 303.28   C 92.22 299.95 92.00 293.38 92.89 289.84   Q 95.89 277.91 108.23 274.83   A 1.15 1.13 5.3 0 0 109.01 274.19   L 116.21 258.61   A 0.86 0.86 0.0 0 0 116.03 257.64   Q 107.15 248.90 100.42 238.42   A 0.55 0.54 54.1 0 0 99.62 238.29   L 1.84 317.48   Q 1.58 317.69 1.39 317.97   Z   M 251.04 238.75   L 253.54 243.29   Q 253.80 243.76 253.38 243.42   L 241.29 233.50   L 235.09 228.09   A 0.49 0.49 0.0 0 0 234.32 228.26   Q 229.68 238.39 229.22 249.50   Q 229.12 251.90 228.83 253.03   Q 228.70 253.55 228.47 253.06   Q 217.13 228.59 205.81 204.11   C 203.71 199.58 194.31 192.94 190.18 189.54   Q 184.36 183.36 177.39 178.29   A 1.37 1.36 -28.2 0 0 176.49 178.02   Q 173.36 178.17 171.36 179.86   L 163.23 179.61   A 0.73 0.73 0.0 0 0 162.55 180.04   Q 132.91 247.93 122.00 272.50   C 119.74 277.57 117.45 284.15 110.90 285.63   Q 107.90 286.31 106.86 287.05   C 101.86 290.61 102.25 301.62 107.17 304.92   Q 109.12 306.22 113.25 306.23   Q 132.68 306.28 152.09 306.23   C 160.07 306.21 161.27 301.50 161.26 294.64   C 161.25 284.30 151.79 285.59 144.56 284.03   A 0.51 0.51 0.0 0 1 144.20 283.33   L 150.00 269.55   A 0.90 0.90 0.0 0 1 150.83 269.00   L 185.57 269.00   A 0.84 0.84 0.0 0 1 186.35 269.53   L 192.23 283.89   A 0.45 0.45 0.0 0 1 191.88 284.51   C 182.11 285.94 175.34 284.51 175.73 297.22   C 175.87 301.93 178.34 306.23 183.50 306.24   Q 206.53 306.29 229.44 306.43   A 0.26 0.26 0.0 0 1 229.68 306.80   Q 206.54 359.98 183.00 412.85   C 180.71 418.00 178.81 424.52 172.30 425.67   C 168.58 426.33 165.55 428.58 165.04 432.25   C 163.93 440.32 165.60 446.23 174.93 446.24   Q 194.15 446.26 213.34 446.24   Q 216.66 446.24 218.44 445.27   C 224.24 442.10 224.36 431.15 219.36 427.20   C 216.37 424.84 209.95 424.78 205.98 424.05   A 0.50 0.50 0.0 0 1 205.61 423.37   L 211.41 409.52   A 0.86 0.85 11.4 0 1 212.20 409.00   L 247.11 409.00   A 0.64 0.64 0.0 0 1 247.71 409.41   L 253.59 423.84   A 0.40 0.40 0.0 0 1 253.29 424.39   C 249.50 425.11 243.99 425.07 241.25 426.59   C 235.32 429.88 235.48 442.06 241.14 445.20   Q 242.93 446.20 246.42 446.22   Q 277.29 446.40 308.16 446.23   Q 312.57 446.21 314.26 445.57   C 320.97 443.01 320.52 429.16 314.28 426.14   Q 313.68 425.85 310.10 425.30   C 304.45 424.44 300.38 415.31 298.09 410.66   A 0.27 0.27 0.0 0 1 298.42 410.28   C 326.26 419.85 353.40 412.41 366.91 384.98   Q 367.13 384.53 367.19 385.02   C 368.58 396.36 372.65 405.22 384.07 409.61   C 407.36 418.56 433.89 415.00 448.72 393.17   A 0.38 0.37 -47.1 0 1 449.32 393.14   Q 461.22 407.86 479.58 412.16   C 500.37 417.03 526.49 416.21 544.77 403.80   A 0.31 0.30 69.9 0 1 545.24 404.02   C 546.10 411.02 550.64 412.23 557.21 412.24   Q 588.20 412.28 619.19 412.23   C 628.30 412.21 629.76 397.53 623.58 393.25   C 619.32 390.30 612.06 393.00 608.81 388.62   A 1.50 1.50 0.0 0 1 608.51 387.72   Q 608.49 375.52 608.50 363.31   C 608.50 355.48 609.91 350.02 618.46 349.31   A 1.00 0.99 67.2 0 1 619.29 349.65   C 628.91 360.60 644.80 362.25 654.10 350.32   Q 654.63 349.64 654.63 350.50   L 654.78 389.27   A 0.96 0.95 -6.7 0 1 654.03 390.21   C 645.29 392.15 642.19 392.93 642.24 402.61   C 642.28 409.22 645.85 411.74 652.12 411.74   Q 679.03 411.77 705.94 411.73   Q 707.43 411.73 709.62 410.01   A 0.64 0.64 0.0 0 1 710.40 410.01   Q 712.61 411.76 714.26 411.76   Q 739.31 411.72 764.43 411.78   C 771.87 411.80 776.29 408.02 774.83 399.96   Q 774.75 399.48 775.17 399.73   Q 777.95 401.33 780.67 403.02   Q 794.99 411.90 811.50 412.69   C 821.54 413.18 834.42 412.62 844.00 408.71   C 853.75 404.73 863.21 393.27 867.73 384.73   C 872.97 374.83 856.80 366.40 850.48 371.80   C 840.31 380.48 831.73 384.35 817.52 382.47   Q 806.16 380.96 804.35 370.50   A 0.42 0.42 0.0 0 1 804.76 370.01   Q 830.38 370.09 855.99 369.85   C 862.24 369.79 869.93 371.16 870.76 362.38   Q 871.32 356.44 870.86 350.69   A 0.32 0.31 -61.8 0 1 871.45 350.51   L 898.33 398.22   A 1.10 1.09 42.4 0 1 898.38 399.20   L 894.56 407.99   A 0.62 0.60 22.2 0 1 893.78 408.31   C 860.24 395.03 846.64 439.49 877.25 446.73   C 892.45 450.33 904.20 443.46 910.72 429.95   Q 934.45 380.82 958.70 331.93   C 960.38 328.55 971.42 324.55 975.12 323.03   C 980.30 320.90 986.89 317.98 985.53 311.00   C 985.10 308.80 982.27 307.51 979.95 307.51   Q 954.82 307.48 929.68 307.51   C 926.19 307.51 924.06 308.53 922.07 311.16   A 0.35 0.35 0.0 0 1 921.50 311.15   C 919.60 308.43 917.47 307.52 913.96 307.51   Q 886.90 307.47 859.86 307.52   C 853.49 307.54 849.05 309.20 848.42 315.96   A 0.31 0.31 0.0 0 1 847.95 316.19   C 833.02 307.06 813.96 305.73 797.21 309.48   Q 773.91 314.70 762.45 335.64   A 0.25 0.24 52.1 0 1 762.00 335.58   C 754.84 308.39 722.10 305.98 701.19 316.53   A 0.47 0.47 0.0 0 1 700.54 316.30   C 698.37 311.44 694.72 310.67 689.52 311.54   Q 670.94 314.65 652.43 318.23   A 0.96 0.95 -28.9 0 1 651.58 317.99   C 641.10 308.15 624.52 308.89 613.25 316.24   Q 611.13 317.62 609.06 318.95   A 0.35 0.35 0.0 0 1 608.53 318.73   Q 606.72 310.06 597.75 311.47   Q 579.82 314.28 561.90 317.15   C 554.48 318.33 550.67 320.35 551.31 328.43   Q 551.45 330.13 550.33 328.85   C 534.69 310.91 506.22 307.64 483.90 312.07   C 468.65 315.11 454.56 323.79 446.84 337.62   A 0.31 0.30 59.5 0 1 446.27 337.47   C 446.21 328.72 447.09 321.79 435.91 321.78   Q 428.07 321.78 420.11 321.66   A 0.51 0.51 0.0 0 1 419.60 321.16   C 419.45 314.86 420.42 307.20 418.41 301.25   A 0.54 0.54 0.0 0 1 418.71 300.58   C 429.60 295.87 438.00 285.79 443.67 275.36   C 446.64 269.91 444.44 265.75 439.32 263.01   C 426.93 256.37 425.77 264.64 416.42 269.57   C 405.07 275.56 380.54 278.11 378.85 259.76   A 0.45 0.45 0.0 0 1 379.30 259.26   Q 408.90 259.24 438.50 259.21   C 444.24 259.20 446.58 256.04 447.09 250.49   C 450.92 208.91 411.31 188.79 374.98 195.77   Q 349.92 200.58 337.06 222.23   Q 336.81 222.65 336.70 222.18   C 333.45 208.11 320.65 202.98 307.74 201.30   C 282.74 198.04 255.32 200.18 238.20 221.47   L 185.26 160.63   A 0.86 0.83 -57.8 0 1 185.09 159.82   Q 187.68 151.72 184.95 143.66   A 1.13 1.11 -35.4 0 1 185.14 142.61   L 210.37 111.11   A 0.96 0.96 0.0 0 1 211.59 110.87   C 245.82 130.00 257.33 171.57 237.47 205.55   Q 237.22 205.99 237.64 205.72   Q 240.50 203.90 243.20 201.83   C 246.50 199.30 247.57 195.47 248.67 191.68   C 257.33 161.86 247.40 130.48 222.04 112.26   Q 218.32 109.59 214.36 106.82   A 0.47 0.46 37.6 0 1 214.27 106.15   L 234.19 80.99   Q 234.52 80.58 234.10 80.91   Q 221.21 91.32 208.72 102.22   C 207.74 103.07 207.07 103.40 205.74 102.95   Q 166.98 89.79 134.57 113.94   A 0.62 0.61 -43.3 0 1 133.81 113.92   L 88.28 76.72   A 0.17 0.17 0.0 0 0 88.04 76.97   L 125.69 121.11   A 0.93 0.91 34.9 0 1 125.86 122.02   C 125.42 123.30 123.90 124.45 123.38 125.14   Q 98.76 157.82 112.54 197.24   A 0.86 0.85 -34.6 0 1 112.38 198.09   L 55.79 262.45   A 0.12 0.12 0.0 0 0 55.77 262.56   L 55.80 262.62   A 0.11 0.08 61.0 0 0 55.94 262.69   L 117.14 207.48   A 0.44 0.43 53.1 0 1 117.81 207.58   Q 123.09 216.41 130.76 223.28   A 0.56 0.56 0.0 0 0 131.65 223.09   L 132.97 220.14   A 0.82 0.81 34.8 0 0 132.80 219.23   Q 126.20 212.54 121.25 204.54   A 0.65 0.63 53.5 0 1 121.36 203.73   C 132.85 193.31 144.25 182.27 156.23 172.46   A 0.90 0.89 -54.3 0 1 157.11 172.31   Q 165.26 175.24 173.27 171.97   A 0.94 0.94 0.0 0 1 174.23 172.13   Q 211.61 204.16 248.80 236.24   C 249.62 236.94 250.25 237.95 251.04 238.75   Z"
       id="path78" />
    <path
       d="   M 201.89 106.51   A 0.59 0.59 0.0 0 1 202.10 107.52   L 173.73 131.58   A 1.03 1.02 -53.3 0 1 172.68 131.74   Q 164.52 128.28 156.42 131.86   A 0.78 0.77 52.4 0 1 155.62 131.75   L 138.50 117.77   A 0.63 0.62 46.2 0 1 138.52 116.78   Q 167.32 95.89 201.89 106.51   Z"
       id="path80" />
    <path
       d="   M 128.71 125.99   A 0.68 0.67 -45.8 0 1 129.74 125.97   L 144.39 142.91   A 0.90 0.90 0.0 0 1 144.55 143.83   Q 141.27 152.24 144.73 160.53   A 0.95 0.94 54.6 0 1 144.57 161.52   L 116.51 193.24   Q 116.07 193.74 115.88 193.10   Q 104.36 155.73 128.71 125.99   Z"
       id="path82" />
    <path
       d="   M 378.87 234.76   C 381.13 216.24 399.48 214.26 401.80 234.65   A 0.54 0.54 0.0 0 1 401.26 235.25   L 379.30 235.25   A 0.44 0.43 -86.5 0 1 378.87 234.76   Z"
       id="path84" />
    <path
       d="   M 309.92 274.74   C 296.92 278.16 281.06 274.49 277.63 259.31   C 275.58 250.26 273.91 220.48 290.26 221.81   Q 291.87 221.94 292.89 223.11   A 1.37 1.34 -65.9 0 1 293.22 224.00   C 293.21 233.62 296.19 241.97 306.73 244.31   Q 319.75 247.19 331.01 240.55   Q 331.49 240.27 331.40 240.82   Q 329.14 254.07 332.74 266.99   Q 332.90 267.56 332.40 267.25   C 323.57 261.85 317.98 272.63 309.92 274.74   Z"
       id="path86" />
    <path
       d="   M 160.53 245.26   L 168.19 227.53   A 0.35 0.35 0.0 0 1 168.83 227.53   L 176.49 245.26   A 0.35 0.35 0.0 0 1 176.17 245.75   L 160.85 245.75   A 0.35 0.35 0.0 0 1 160.53 245.26   Z"
       id="path88" />
    <path
       d="   M 331.06 300.47   C 329.24 298.19 325.81 296.55 322.78 297.41   Q 296.32 304.87 287.82 307.08   C 279.71 309.19 280.77 314.32 280.41 321.13   A 0.56 0.55 -89.4 0 1 279.88 321.66   C 274.26 321.94 267.69 320.45 265.01 326.78   C 263.86 329.48 264.33 333.42 264.11 336.69   Q 264.07 337.29 263.82 336.74   L 250.16 307.05   A 0.56 0.55 71.3 0 1 250.54 306.27   Q 256.95 304.83 257.53 298.26   A 0.46 0.46 0.0 0 1 258.16 297.88   C 286.15 309.43 319.50 304.66 338.75 279.84   A 0.36 0.35 46.7 0 1 339.33 279.86   C 348.92 294.05 366.63 302.38 383.23 304.19   Q 383.72 304.25 383.25 304.41   Q 379.22 305.80 375.19 306.97   C 366.91 309.39 367.06 313.08 367.27 320.77   A 1.04 1.04 0.0 0 1 366.15 321.83   Q 361.35 321.43 356.76 322.27   C 354.34 322.72 353.11 321.76 350.90 321.76   Q 342.08 321.74 333.34 321.75   A 0.45 0.45 0.0 0 1 332.89 321.28   C 333.08 316.58 333.96 304.11 331.06 300.47   Z"
       id="path90" />
    <path
       d="   M 922.24 324.89   C 925.05 329.13 928.14 328.22 932.41 328.94   A 0.43 0.42 -72.7 0 1 932.72 329.54   L 923.58 348.99   Q 923.25 349.67 922.88 349.01   L 911.86 329.31   A 0.43 0.43 0.0 0 1 912.29 328.67   Q 918.12 329.37 921.60 324.87   A 0.40 0.39 -42.8 0 1 922.24 324.89   Z"
       id="path92" />
    <path
       d="   M 496.19 391.56   C 486.52 384.25 487.88 360.08 489.62 349.56   C 490.55 343.94 493.53 332.81 500.72 332.24   C 509.25 331.57 512.13 340.93 513.15 347.57   C 514.53 356.54 517.20 389.45 503.84 393.11   Q 499.72 394.24 496.19 391.56   Z"
       id="path94" />
    <path
       d="   M 804.37 345.77   C 807.19 329.37 825.07 327.46 826.15 345.78   A 0.45 0.44 88.8 0 1 825.71 346.25   L 804.78 346.25   A 0.42 0.41 4.7 0 1 804.37 345.77   Z"
       id="path96" />
    <path
       d="   M 702.52 390.74   A 1.11 1.10 2.2 0 1 701.50 389.64   L 701.50 344.78   A 1.11 1.09 -21.7 0 1 701.86 343.97   C 704.90 341.21 717.57 334.85 717.99 342.95   C 718.79 358.27 718.62 373.76 718.37 389.08   A 1.76 1.76 0.0 0 1 716.82 390.79   Q 713.37 391.17 710.41 392.88   A 0.88 0.86 -44.4 0 1 709.54 392.88   Q 706.29 391.03 702.52 390.74   Z"
       id="path98" />
    <path
       d="   M 440.53 371.25   C 438.20 371.55 435.50 370.81 433.79 372.53   Q 429.06 377.26 422.93 381.76   A 2.20 2.19 -37.3 0 1 419.91 381.36   C 418.66 379.78 419.51 350.73 419.54 346.53   A 0.50 0.50 0.0 0 1 420.04 346.03   C 426.59 346.06 437.54 347.15 443.26 344.09   Q 443.82 343.79 443.61 344.39   Q 439.16 357.19 440.95 370.71   A 0.48 0.48 0.0 0 1 440.53 371.25   Z"
       id="path100" />
    <path
       d="   M 268.00 344.69   C 271.63 346.11 276.15 346.06 279.91 345.94   A 0.57 0.57 0.0 0 1 280.50 346.51   L 280.50 371.69   Q 280.50 372.74 280.06 371.79   L 267.70 345.01   Q 267.45 344.48 268.00 344.69   Z"
       id="path102" />
    <path
       d="   M 364.21 375.80   C 357.37 372.07 351.17 368.45 345.08 374.51   Q 340.53 379.05 335.25 382.07   A 1.48 1.48 0.0 0 1 333.03 380.78   L 332.99 346.57   A 0.46 0.46 0.0 0 1 333.43 346.11   Q 349.63 345.39 365.83 345.87   A 1.46 1.46 0.0 0 1 367.25 347.33   L 367.25 379.24   Q 367.25 379.92 366.91 379.34   Q 365.13 376.30 364.21 375.80   Z"
       id="path104" />
    <path
       d="   M 221.91 385.32   L 229.59 367.52   A 0.32 0.32 0.0 0 1 230.17 367.52   L 237.91 385.29   A 0.32 0.32 0.0 0 1 237.61 385.74   L 222.21 385.77   A 0.32 0.32 0.0 0 1 221.91 385.32   Z"
       id="path106" />
  </g>
  <g
     fill="#ffffff"
     id="g122">
    <path
       d="   M 171.36 179.86   Q 150.10 228.88 128.46 277.73   C 125.62 284.16 122.16 290.80 114.88 292.84   C 112.03 293.64 110.44 294.80 112.10 297.88   A 0.76 0.75 -13.6 0 0 112.77 298.28   L 152.37 298.02   A 0.64 0.64 0.0 0 0 153.00 297.37   L 153.00 294.38   A 0.75 0.74 4.6 0 0 152.37 293.65   C 146.21 292.70 131.94 292.52 136.15 281.72   Q 140.15 271.47 144.83 261.49   A 0.83 0.82 -77.7 0 1 145.58 261.00   L 191.05 261.00   A 0.74 0.74 0.0 0 1 191.73 261.45   Q 196.72 273.27 201.40 285.32   Q 201.85 286.49 201.95 287.73   A 1.39 1.38 -29.7 0 1 201.70 288.64   C 198.47 293.19 189.74 292.97 184.59 293.72   A 0.69 0.69 0.0 0 0 184.00 294.40   L 183.99 296.42   A 1.83 1.83 0.0 0 0 185.84 298.25   Q 199.66 298.14 213.14 298.04   C 221.68 297.98 236.76 298.52 248.61 297.87   A 0.67 0.66 -1.4 0 0 249.25 297.21   L 249.25 294.16   A 0.59 0.58 3.3 0 0 248.73 293.58   Q 240.10 292.53 235.58 285.17   Q 229.99 276.09 225.53 266.38   Q 207.85 227.98 190.18 189.54   C 194.31 192.94 203.71 199.58 205.81 204.11   Q 217.13 228.59 228.47 253.06   Q 228.70 253.55 228.83 253.03   Q 229.12 251.90 229.22 249.50   Q 229.68 238.39 234.32 228.26   A 0.49 0.49 0.0 0 1 235.09 228.09   L 241.29 233.50   Q 240.63 234.21 240.52 234.51   C 229.55 264.89 245.44 290.66 277.01 294.80   C 297.40 297.47 316.38 293.01 330.49 277.23   A 0.59 0.59 0.0 0 0 330.43 276.39   L 327.75 274.19   A 0.69 0.69 0.0 0 0 326.92 274.15   C 323.27 276.62 319.56 279.86 315.67 281.40   C 300.60 287.34 279.78 283.83 272.23 268.27   C 265.29 253.95 264.71 215.53 287.73 213.76   C 293.61 213.31 299.37 215.51 300.99 221.49   C 301.76 224.36 301.23 229.60 303.03 232.62   C 306.88 239.08 322.33 238.07 326.79 232.72   C 331.37 227.24 327.75 218.02 322.16 214.58   C 314.69 210.00 306.18 209.01 296.73 208.27   C 288.79 207.65 280.31 208.46 272.86 209.83   Q 255.11 213.11 243.71 227.75   L 238.20 221.47   C 255.32 200.18 282.74 198.04 307.74 201.30   C 320.65 202.98 333.45 208.11 336.70 222.18   Q 336.81 222.65 337.06 222.23   Q 349.92 200.58 374.98 195.77   C 411.31 188.79 450.92 208.91 447.09 250.49   C 446.58 256.04 444.24 259.20 438.50 259.21   Q 408.90 259.24 379.30 259.26   A 0.45 0.45 0.0 0 0 378.85 259.76   C 380.54 278.11 405.07 275.56 416.42 269.57   C 425.77 264.64 426.93 256.37 439.32 263.01   C 444.44 265.75 446.64 269.91 443.67 275.36   C 438.00 285.79 429.60 295.87 418.71 300.58   A 0.54 0.54 0.0 0 0 418.41 301.25   C 420.42 307.20 419.45 314.86 419.60 321.16   A 0.51 0.51 0.0 0 0 420.11 321.66   Q 428.07 321.78 435.91 321.78   C 447.09 321.79 446.21 328.72 446.27 337.47   A 0.31 0.30 59.5 0 0 446.84 337.62   C 454.56 323.79 468.65 315.11 483.90 312.07   C 506.22 307.64 534.69 310.91 550.33 328.85   Q 551.45 330.13 551.31 328.43   C 550.67 320.35 554.48 318.33 561.90 317.15   Q 579.82 314.28 597.75 311.47   Q 606.72 310.06 608.53 318.73   A 0.35 0.35 0.0 0 0 609.06 318.95   Q 611.13 317.62 613.25 316.24   C 624.52 308.89 641.10 308.15 651.58 317.99   A 0.96 0.95 -28.9 0 0 652.43 318.23   Q 670.94 314.65 689.52 311.54   C 694.72 310.67 698.37 311.44 700.54 316.30   A 0.47 0.47 0.0 0 0 701.19 316.53   C 722.10 305.98 754.84 308.39 762.00 335.58   A 0.25 0.24 52.1 0 0 762.45 335.64   Q 773.91 314.70 797.21 309.48   C 813.96 305.73 833.02 307.06 847.95 316.19   A 0.31 0.31 0.0 0 0 848.42 315.96   C 849.05 309.20 853.49 307.54 859.86 307.52   Q 886.90 307.47 913.96 307.51   C 917.47 307.52 919.60 308.43 921.50 311.15   A 0.35 0.35 0.0 0 0 922.07 311.16   C 924.06 308.53 926.19 307.51 929.68 307.51   Q 954.82 307.48 979.95 307.51   C 982.27 307.51 985.10 308.80 985.53 311.00   C 986.89 317.98 980.30 320.90 975.12 323.03   C 971.42 324.55 960.38 328.55 958.70 331.93   Q 934.45 380.82 910.72 429.95   C 904.20 443.46 892.45 450.33 877.25 446.73   C 846.64 439.49 860.24 395.03 893.78 408.31   A 0.62 0.60 22.2 0 0 894.56 407.99   L 898.38 399.20   A 1.10 1.09 42.4 0 0 898.33 398.22   L 871.45 350.51   A 0.32 0.31 -61.8 0 0 870.86 350.69   Q 871.32 356.44 870.76 362.38   C 869.93 371.16 862.24 369.79 855.99 369.85   Q 830.38 370.09 804.76 370.01   A 0.42 0.42 0.0 0 0 804.35 370.50   Q 806.16 380.96 817.52 382.47   C 831.73 384.35 840.31 380.48 850.48 371.80   C 856.80 366.40 872.97 374.83 867.73 384.73   C 863.21 393.27 853.75 404.73 844.00 408.71   C 834.42 412.62 821.54 413.18 811.50 412.69   Q 794.99 411.90 780.67 403.02   Q 777.95 401.33 775.17 399.73   Q 774.75 399.48 774.83 399.96   C 776.29 408.02 771.87 411.80 764.43 411.78   Q 739.31 411.72 714.26 411.76   Q 712.61 411.76 710.40 410.01   A 0.64 0.64 0.0 0 0 709.62 410.01   Q 707.43 411.73 705.94 411.73   Q 679.03 411.77 652.12 411.74   C 645.85 411.74 642.28 409.22 642.24 402.61   C 642.19 392.93 645.29 392.15 654.03 390.21   A 0.96 0.95 -6.7 0 0 654.78 389.27   L 654.63 350.50   Q 654.63 349.64 654.10 350.32   C 644.80 362.25 628.91 360.60 619.29 349.65   A 1.00 0.99 67.2 0 0 618.46 349.31   C 609.91 350.02 608.50 355.48 608.50 363.31   Q 608.49 375.52 608.51 387.72   A 1.50 1.50 0.0 0 0 608.81 388.62   C 612.06 393.00 619.32 390.30 623.58 393.25   C 629.76 397.53 628.30 412.21 619.19 412.23   Q 588.20 412.28 557.21 412.24   C 550.64 412.23 546.10 411.02 545.24 404.02   A 0.31 0.30 69.9 0 0 544.77 403.80   C 526.49 416.21 500.37 417.03 479.58 412.16   Q 461.22 407.86 449.32 393.14   A 0.38 0.37 -47.1 0 0 448.72 393.17   C 433.89 415.00 407.36 418.56 384.07 409.61   C 372.65 405.22 368.58 396.36 367.19 385.02   Q 367.13 384.53 366.91 384.98   C 353.40 412.41 326.26 419.85 298.42 410.28   A 0.27 0.27 0.0 0 0 298.09 410.66   C 300.38 415.31 304.45 424.44 310.10 425.30   Q 313.68 425.85 314.28 426.14   C 320.52 429.16 320.97 443.01 314.26 445.57   Q 312.57 446.21 308.16 446.23   Q 277.29 446.40 246.42 446.22   Q 242.93 446.20 241.14 445.20   C 235.48 442.06 235.32 429.88 241.25 426.59   C 243.99 425.07 249.50 425.11 253.29 424.39   A 0.40 0.40 0.0 0 0 253.59 423.84   L 247.71 409.41   A 0.64 0.64 0.0 0 0 247.11 409.00   L 212.20 409.00   A 0.86 0.85 11.4 0 0 211.41 409.52   L 205.61 423.37   A 0.50 0.50 0.0 0 0 205.98 424.05   C 209.95 424.78 216.37 424.84 219.36 427.20   C 224.36 431.15 224.24 442.10 218.44 445.27   Q 216.66 446.24 213.34 446.24   Q 194.15 446.26 174.93 446.24   C 165.60 446.23 163.93 440.32 165.04 432.25   C 165.55 428.58 168.58 426.33 172.30 425.67   C 178.81 424.52 180.71 418.00 183.00 412.85   Q 206.54 359.98 229.68 306.80   A 0.26 0.26 0.0 0 0 229.44 306.43   Q 206.53 306.29 183.50 306.24   C 178.34 306.23 175.87 301.93 175.73 297.22   C 175.34 284.51 182.11 285.94 191.88 284.51   A 0.45 0.45 0.0 0 0 192.23 283.89   L 186.35 269.53   A 0.84 0.84 0.0 0 0 185.57 269.00   L 150.83 269.00   A 0.90 0.90 0.0 0 0 150.00 269.55   L 144.20 283.33   A 0.51 0.51 0.0 0 0 144.56 284.03   C 151.79 285.59 161.25 284.30 161.26 294.64   C 161.27 301.50 160.07 306.21 152.09 306.23   Q 132.68 306.28 113.25 306.23   Q 109.12 306.22 107.17 304.92   C 102.25 301.62 101.86 290.61 106.86 287.05   Q 107.90 286.31 110.90 285.63   C 117.45 284.15 119.74 277.57 122.00 272.50   Q 132.91 247.93 162.55 180.04   A 0.73 0.73 0.0 0 1 163.23 179.61   L 171.36 179.86   Z   M 343.23 270.80   C 356.08 294.45 384.73 299.15 409.03 294.93   C 421.72 292.72 430.58 282.29 436.53 271.44   A 0.69 0.69 0.0 0 0 436.20 270.48   L 431.92 268.65   A 0.94 0.92 -55.0 0 0 430.91 268.84   Q 413.38 285.77 388.97 280.94   C 374.46 278.07 368.77 265.53 370.21 251.67   A 0.47 0.47 0.0 0 1 370.67 251.25   L 438.39 251.14   A 0.56 0.56 0.0 0 0 438.95 250.59   C 439.07 245.11 439.40 239.25 438.05 234.19   C 428.22 197.29 368.77 192.55 347.78 220.89   C 338.16 233.87 335.30 256.21 343.23 270.80   Z   M 277.63 259.31   C 281.06 274.49 296.92 278.16 309.92 274.74   C 317.98 272.63 323.57 261.85 332.40 267.25   Q 332.90 267.56 332.74 266.99   Q 329.14 254.07 331.40 240.82   Q 331.49 240.27 331.01 240.55   Q 319.75 247.19 306.73 244.31   C 296.19 241.97 293.21 233.62 293.22 224.00   A 1.37 1.34 -65.9 0 0 292.89 223.11   Q 291.87 221.94 290.26 221.81   C 273.91 220.48 275.58 250.26 277.63 259.31   Z   M 322.78 297.41   C 325.81 296.55 329.24 298.19 331.06 300.47   C 333.96 304.11 333.08 316.58 332.89 321.28   A 0.45 0.45 0.0 0 0 333.34 321.75   Q 342.08 321.74 350.90 321.76   C 353.11 321.76 354.34 322.72 356.76 322.27   Q 361.35 321.43 366.15 321.83   A 1.04 1.04 0.0 0 0 367.27 320.77   C 367.06 313.08 366.91 309.39 375.19 306.97   Q 379.22 305.80 383.25 304.41   Q 383.72 304.25 383.23 304.19   C 366.63 302.38 348.92 294.05 339.33 279.86   A 0.36 0.35 46.7 0 0 338.75 279.84   C 319.50 304.66 286.15 309.43 258.16 297.88   A 0.46 0.46 0.0 0 0 257.53 298.26   Q 256.95 304.83 250.54 306.27   A 0.56 0.55 71.3 0 0 250.16 307.05   L 263.82 336.74   Q 264.07 337.29 264.11 336.69   C 264.33 333.42 263.86 329.48 265.01 326.78   C 267.69 320.45 274.26 321.94 279.88 321.66   A 0.56 0.55 -89.4 0 0 280.41 321.13   C 280.77 314.32 279.71 309.19 287.82 307.08   Q 296.32 304.87 322.78 297.41   Z   M 375.43 338.54   Q 375.07 356.92 375.42 382.83   Q 375.58 395.05 383.81 400.48   C 391.82 405.77 408.20 407.23 418.25 404.96   C 430.80 402.13 439.32 393.91 445.53 382.91   A 0.57 0.57 0.0 0 0 445.26 382.11   L 439.19 379.48   A 0.90 0.88 -54.5 0 0 438.23 379.65   C 433.96 383.64 427.95 389.61 422.26 390.27   C 411.46 391.54 411.33 380.62 411.28 373.23   Q 411.16 355.93 411.34 338.46   A 0.57 0.57 0.0 0 1 411.91 337.90   L 437.41 337.69   A 0.60 0.60 0.0 0 0 438.00 337.09   L 438.00 330.50   A 0.50 0.50 0.0 0 0 437.50 330.00   L 411.75 330.00   A 0.50 0.50 0.0 0 1 411.25 329.50   L 411.25 306.22   A 0.64 0.64 0.0 0 0 410.44 305.60   L 375.91 315.20   A 0.66 0.64 -7.3 0 0 375.43 315.81   L 375.18 329.54   A 0.47 0.47 0.0 0 1 374.71 330.00   L 359.72 330.00   A 0.71 0.71 0.0 0 0 359.01 330.72   L 359.10 337.03   A 0.70 0.70 0.0 0 0 359.78 337.72   L 374.97 338.07   A 0.47 0.46 1.2 0 1 375.43 338.54   Z   M 288.69 338.53   Q 288.73 358.02 288.81 377.52   Q 288.85 388.25 290.22 391.97   C 295.27 405.58 316.51 407.05 328.76 405.50   C 342.16 403.80 352.33 394.61 358.83 382.91   A 0.59 0.59 0.0 0 0 358.55 382.08   L 352.46 379.45   A 0.84 0.84 0.0 0 0 351.51 379.64   Q 347.47 383.85 342.73 387.24   C 337.39 391.06 329.39 391.89 326.23 385.66   Q 325.02 383.26 325.01 376.64   Q 324.99 357.59 325.01 338.93   A 0.88 0.88 0.0 0 1 325.89 338.05   L 350.56 337.89   A 0.69 0.69 0.0 0 0 351.25 337.20   L 351.25 330.62   A 0.63 0.62 0.0 0 0 350.62 330.00   L 325.54 330.00   A 0.47 0.46 -0.0 0 1 325.07 329.54   L 324.82 306.48   A 0.88 0.88 0.0 0 0 323.70 305.64   L 289.19 315.16   A 0.60 0.60 0.0 0 0 288.75 315.74   L 288.75 329.50   A 0.50 0.50 0.0 0 1 288.25 330.00   L 273.11 330.00   A 0.63 0.63 0.0 0 0 272.48 330.64   L 272.55 337.24   A 0.63 0.63 0.0 0 0 273.17 337.86   L 288.22 338.06   A 0.47 0.47 0.0 0 1 288.69 338.53   Z   M 309.98 433.43   C 298.09 432.30 292.51 418.11 287.87 408.09   Q 265.69 360.11 243.48 312.15   C 242.42 309.86 241.89 308.27 239.42 308.21   A 2.08 2.06 12.2 0 0 237.47 309.45   Q 214.33 362.23 191.13 414.91   C 187.43 423.32 184.14 431.80 173.80 433.45   A 0.81 0.80 -3.1 0 0 173.11 434.21   L 172.96 437.60   A 0.64 0.63 1.3 0 0 173.60 438.26   L 213.70 438.18   A 0.77 0.75 -84.4 0 0 214.44 437.56   Q 214.78 435.67 214.24 433.95   A 0.79 0.78 83.7 0 0 213.57 433.41   C 206.87 432.77 193.71 432.75 197.96 421.00   Q 201.57 411.00 206.34 401.43   A 0.77 0.77 0.0 0 1 207.03 401.00   L 252.40 401.00   A 0.71 0.71 0.0 0 1 253.05 401.42   Q 256.17 408.39 262.56 424.69   C 265.95 433.30 251.80 432.96 245.63 433.68   A 0.72 0.72 0.0 0 0 245.00 434.38   L 244.98 436.52   A 1.68 1.68 0.0 0 0 246.66 438.23   L 310.10 438.26   A 0.73 0.72 -81.2 0 0 310.79 437.75   Q 311.38 435.86 310.75 434.04   A 0.91 0.91 0.0 0 0 309.98 433.43   Z   M 923.54 366.90   Q 914.63 350.78 905.56 334.69   Q 903.47 330.99 901.79 326.92   A 1.55 1.51 -49.9 0 1 901.72 325.97   C 902.99 321.04 910.41 321.02 914.49 320.26   A 0.63 0.63 0.0 0 0 915.00 319.64   L 915.00 316.24   A 0.51 0.51 0.0 0 0 914.49 315.73   L 857.38 315.69   A 0.67 0.66 -1.2 0 0 856.71 316.38   L 856.86 319.80   A 0.85 0.84 -85.6 0 0 857.53 320.59   C 863.48 321.84 866.41 324.80 869.52 330.31   Q 888.45 363.90 907.32 397.55   A 1.05 1.04 -49.9 0 1 907.39 398.45   Q 905.19 404.37 901.75 411.52   Q 898.24 418.83 891.32 416.09   C 883.97 413.17 875.04 412.37 870.29 419.81   C 865.20 427.77 870.30 436.38 878.74 438.69   C 889.99 441.77 898.67 436.27 903.51 426.22   Q 925.27 381.01 947.49 336.03   C 949.65 331.66 951.28 325.93 955.60 323.36   C 957.54 322.20 968.96 318.39 969.43 316.99   A 0.95 0.94 9.1 0 0 968.53 315.75   L 929.43 315.75   A 0.56 0.56 0.0 0 0 928.87 316.32   L 928.94 319.73   A 0.57 0.56 -87.1 0 0 929.43 320.28   C 935.76 321.07 945.29 320.45 940.96 330.56   Q 933.06 349.03 923.88 366.89   A 0.20 0.19 -45.8 0 1 923.54 366.90   Z   M 765.21 366.31   C 767.11 386.97 785.14 400.25 804.26 403.71   C 816.65 405.95 837.57 405.40 847.42 397.17   Q 854.61 391.16 860.35 381.10   A 0.58 0.58 0.0 0 0 860.09 380.28   L 855.90 378.35   A 0.80 0.79 -54.0 0 0 855.03 378.49   Q 839.11 393.32 818.25 390.80   C 800.89 388.70 795.70 379.16 795.23 362.64   A 0.63 0.62 -0.9 0 1 795.86 362.00   Q 828.37 362.01 860.75 362.02   Q 862.75 362.02 862.90 359.75   C 866.86 300.62 759.01 298.65 765.21 366.31   Z   M 448.86 368.31   C 451.55 406.50 499.48 412.01 527.73 403.23   C 548.20 396.86 555.78 379.02 554.11 358.44   C 551.56 326.99 523.43 317.42 496.04 318.68   C 467.23 320.01 446.72 337.94 448.86 368.31   Z   M 600.25 338.44   L 600.24 319.83   A 0.37 0.36 -4.1 0 0 599.82 319.47   Q 580.62 322.43 561.48 325.52   C 559.80 325.80 558.59 326.72 559.53 328.51   A 1.23 1.18 -4.4 0 0 560.25 329.10   C 564.18 330.29 567.16 331.23 567.20 335.75   Q 567.39 362.18 567.12 388.60   C 567.03 397.39 561.14 398.41 554.10 399.90   A 0.76 0.75 -6.9 0 0 553.50 400.66   L 553.58 403.43   A 0.59 0.59 0.0 0 0 554.17 404.00   L 618.50 404.00   A 0.50 0.50 0.0 0 0 619.00 403.50   L 619.00 400.56   A 0.53 0.53 0.0 0 0 618.50 400.03   C 611.22 399.53 602.23 397.81 600.58 389.71   Q 600.50 389.28 600.49 378.26   C 600.47 360.96 597.01 341.56 621.27 340.47   A 1.17 1.16 65.9 0 1 622.13 340.80   Q 624.74 343.35 627.35 345.89   C 633.66 352.04 645.21 352.44 648.66 342.91   C 656.13 322.22 634.25 313.36 619.36 322.13   Q 608.54 328.51 601.00 338.68   A 0.42 0.41 -26.9 0 1 600.25 338.44   Z   M 693.00 334.73   L 692.99 319.58   A 0.35 0.34 84.5 0 0 692.58 319.24   Q 675.64 322.25 658.75 325.24   Q 657.20 325.51 655.73 326.16   A 0.85 0.85 0.0 0 0 655.23 327.02   L 655.39 328.50   A 0.95 0.94 -83.2 0 0 656.01 329.30   C 663.73 332.08 663.08 334.57 662.97 342.32   Q 662.63 366.26 662.74 390.18   C 662.78 396.60 656.79 398.21 650.77 399.31   A 0.76 0.75 -5.7 0 0 650.14 400.07   L 650.22 402.76   A 1.02 1.02 0.0 0 0 651.24 403.75   L 703.85 403.75   A 0.85 0.83 -75.7 0 0 704.59 403.30   Q 705.57 401.47 704.60 399.51   A 0.77 0.77 0.0 0 0 703.94 399.08   Q 693.19 398.67 693.21 388.27   Q 693.25 365.20 693.21 342.01   A 1.44 1.41 -27.1 0 1 693.51 341.11   C 701.56 330.90 725.70 323.11 726.45 344.57   Q 727.06 362.23 726.74 387.45   Q 726.60 398.32 715.93 399.21   A 0.80 0.80 0.0 0 0 715.25 399.72   Q 714.50 401.64 715.54 403.35   A 0.85 0.85 0.0 0 0 716.26 403.75   L 765.75 403.75   A 0.88 0.86 -73.2 0 0 766.48 403.35   Q 767.64 401.55 766.51 399.65   A 0.99 0.97 -13.9 0 0 765.70 399.17   Q 754.90 398.87 754.96 388.50   Q 755.06 369.66 754.98 350.80   Q 754.93 339.50 753.31 335.01   C 746.85 317.05 722.01 315.79 707.32 322.53   Q 698.91 326.40 693.60 334.90   A 0.32 0.32 0.0 0 1 693.00 334.73   Z   M 932.41 328.94   C 928.14 328.22 925.05 329.13 922.24 324.89   A 0.40 0.39 -42.8 0 0 921.60 324.87   Q 918.12 329.37 912.29 328.67   A 0.43 0.43 0.0 0 0 911.86 329.31   L 922.88 349.01   Q 923.25 349.67 923.58 348.99   L 932.72 329.54   A 0.43 0.42 -72.7 0 0 932.41 328.94   Z   M 702.52 390.74   Q 706.29 391.03 709.54 392.88   A 0.88 0.86 -44.4 0 0 710.41 392.88   Q 713.37 391.17 716.82 390.79   A 1.76 1.76 0.0 0 0 718.37 389.08   C 718.62 373.76 718.79 358.27 717.99 342.95   C 717.57 334.85 704.90 341.21 701.86 343.97   A 1.11 1.09 -21.7 0 0 701.50 344.78   L 701.50 389.64   A 1.11 1.10 2.2 0 0 702.52 390.74   Z   M 433.79 372.53   C 435.50 370.81 438.20 371.55 440.53 371.25   A 0.48 0.48 0.0 0 0 440.95 370.71   Q 439.16 357.19 443.61 344.39   Q 443.82 343.79 443.26 344.09   C 437.54 347.15 426.59 346.06 420.04 346.03   A 0.50 0.50 0.0 0 0 419.54 346.53   C 419.51 350.73 418.66 379.78 419.91 381.36   A 2.20 2.19 -37.3 0 0 422.93 381.76   Q 429.06 377.26 433.79 372.53   Z   M 279.91 345.94   C 276.15 346.06 271.63 346.11 268.00 344.69   Q 267.45 344.48 267.70 345.01   L 280.06 371.79   Q 280.50 372.74 280.50 371.69   L 280.50 346.51   A 0.57 0.57 0.0 0 0 279.91 345.94   Z   M 345.08 374.51   C 351.17 368.45 357.37 372.07 364.21 375.80   Q 365.13 376.30 366.91 379.34   Q 367.25 379.92 367.25 379.24   L 367.25 347.33   A 1.46 1.46 0.0 0 0 365.83 345.87   Q 349.63 345.39 333.43 346.11   A 0.46 0.46 0.0 0 0 332.99 346.57   L 333.03 380.78   A 1.48 1.48 0.0 0 0 335.25 382.07   Q 340.53 379.05 345.08 374.51   Z"
       id="path110" />
    <path
       d="   M 148.13 253.44   L 168.10 207.15   A 0.40 0.40 0.0 0 1 168.84 207.15   L 188.81 253.44   A 0.40 0.40 0.0 0 1 188.44 254.00   L 148.50 254.00   A 0.40 0.40 0.0 0 1 148.13 253.44   Z   M 160.53 245.26   A 0.35 0.35 0.0 0 0 160.85 245.75   L 176.17 245.75   A 0.35 0.35 0.0 0 0 176.49 245.26   L 168.83 227.53   A 0.35 0.35 0.0 0 0 168.19 227.53   L 160.53 245.26   Z"
       id="path112" />
    <path
       d="   M 370.14 242.86   C 369.21 230.59 374.64 213.73 389.04 212.07   C 406.39 210.07 410.37 229.78 411.01 242.35   A 0.80 0.80 0.0 0 1 410.21 243.19   L 370.60 243.27   A 0.46 0.45 -2.7 0 1 370.14 242.86   Z   M 401.80 234.65   C 399.48 214.26 381.13 216.24 378.87 234.76   A 0.44 0.43 -86.5 0 0 379.30 235.25   L 401.26 235.25   A 0.54 0.54 0.0 0 0 401.80 234.65   Z"
       id="path114" />
    <path
       d="   M 496.52 400.72   C 486.40 398.55 482.20 385.83 481.02 377.09   C 479.10 362.82 479.72 342.94 488.43 330.69   C 493.46 323.61 503.49 321.91 510.63 326.31   C 523.88 334.49 523.20 362.49 521.72 375.99   C 520.17 390.16 514.15 404.51 496.52 400.72   Z   M 496.19 391.56   Q 499.72 394.24 503.84 393.11   C 517.20 389.45 514.53 356.54 513.15 347.57   C 512.13 340.93 509.25 331.57 500.72 332.24   C 493.53 332.81 490.55 343.94 489.62 349.56   C 487.88 360.08 486.52 384.25 496.19 391.56   Z"
       id="path116" />
    <path
       d="   M 819.76 354.28   Q 807.77 354.20 795.89 354.27   A 0.66 0.66 0.0 0 1 795.23 353.58   C 795.78 342.45 798.35 330.54 809.55 325.89   C 817.61 322.55 826.33 325.49 830.45 333.14   Q 835.61 342.72 835.10 353.87   A 0.56 0.56 0.0 0 1 834.57 354.40   C 829.61 354.69 823.14 354.31 819.76 354.28   Z   M 826.15 345.78   C 825.07 327.46 807.19 329.37 804.37 345.77   A 0.42 0.41 4.7 0 0 804.78 346.25   L 825.71 346.25   A 0.45 0.44 88.8 0 0 826.15 345.78   Z"
       id="path118" />
    <path
       d="   M 209.57 393.48   L 229.49 347.03   A 0.40 0.40 0.0 0 1 230.22 347.03   L 250.31 393.41   A 0.40 0.40 0.0 0 1 249.94 393.97   L 209.94 394.04   A 0.40 0.40 0.0 0 1 209.57 393.48   Z   M 221.91 385.32   A 0.32 0.32 0.0 0 0 222.21 385.77   L 237.61 385.74   A 0.32 0.32 0.0 0 0 237.91 385.29   L 230.17 367.52   A 0.32 0.32 0.0 0 0 229.59 367.52   L 221.91 385.32   Z"
       id="path120" />
  </g>
  <g
     fill="#025ca6"
     id="g146"
     style="fill-opacity:1;fill:url(#linearGradient16086)">
    <path
       d="   M 190.18 189.54   Q 207.85 227.98 225.53 266.38   Q 229.99 276.09 235.58 285.17   Q 240.10 292.53 248.73 293.58   A 0.59 0.58 3.3 0 1 249.25 294.16   L 249.25 297.21   A 0.67 0.66 -1.4 0 1 248.61 297.87   C 236.76 298.52 221.68 297.98 213.14 298.04   Q 199.66 298.14 185.84 298.25   A 1.83 1.83 0.0 0 1 183.99 296.42   L 184.00 294.40   A 0.69 0.69 0.0 0 1 184.59 293.72   C 189.74 292.97 198.47 293.19 201.70 288.64   A 1.39 1.38 -29.7 0 0 201.95 287.73   Q 201.85 286.49 201.40 285.32   Q 196.72 273.27 191.73 261.45   A 0.74 0.74 0.0 0 0 191.05 261.00   L 145.58 261.00   A 0.83 0.82 -77.7 0 0 144.83 261.49   Q 140.15 271.47 136.15 281.72   C 131.94 292.52 146.21 292.70 152.37 293.65   A 0.75 0.74 4.6 0 1 153.00 294.38   L 153.00 297.37   A 0.64 0.64 0.0 0 1 152.37 298.02   L 112.77 298.28   A 0.76 0.75 -13.6 0 1 112.10 297.88   C 110.44 294.80 112.03 293.64 114.88 292.84   C 122.16 290.80 125.62 284.16 128.46 277.73   Q 150.10 228.88 171.36 179.86   Q 173.36 178.17 176.49 178.02   A 1.37 1.36 -28.2 0 1 177.39 178.29   Q 184.36 183.36 190.18 189.54   Z   M 148.13 253.44   A 0.40 0.40 0.0 0 0 148.50 254.00   L 188.44 254.00   A 0.40 0.40 0.0 0 0 188.81 253.44   L 168.84 207.15   A 0.40 0.40 0.0 0 0 168.10 207.15   L 148.13 253.44   Z"
       id="path124"
       style="fill-opacity:1;fill:url(#linearGradient16086)" />
    <path
       d="   M 409.03 294.93   C 384.73 299.15 356.08 294.45 343.23 270.80   C 335.30 256.21 338.16 233.87 347.78 220.89   C 368.77 192.55 428.22 197.29 438.05 234.19   C 439.40 239.25 439.07 245.11 438.95 250.59   A 0.56 0.56 0.0 0 1 438.39 251.14   L 370.67 251.25   A 0.47 0.47 0.0 0 0 370.21 251.67   C 368.77 265.53 374.46 278.07 388.97 280.94   Q 413.38 285.77 430.91 268.84   A 0.94 0.92 -55.0 0 1 431.92 268.65   L 436.20 270.48   A 0.69 0.69 0.0 0 1 436.53 271.44   C 430.58 282.29 421.72 292.72 409.03 294.93   Z   M 389.04 212.07   C 374.64 213.73 369.21 230.59 370.14 242.86   A 0.46 0.45 -2.7 0 0 370.60 243.27   L 410.21 243.19   A 0.80 0.80 0.0 0 0 411.01 242.35   C 410.37 229.78 406.39 210.07 389.04 212.07   Z"
       id="path126"
       style="fill-opacity:1;fill:url(#linearGradient16086)" />
    <path
       d="   M 241.29 233.50   L 253.38 243.42   Q 253.80 243.76 253.54 243.29   L 251.04 238.75   C 252.48 238.16 244.64 228.95 243.71 227.75   Q 255.11 213.11 272.86 209.83   C 280.31 208.46 288.79 207.65 296.73 208.27   C 306.18 209.01 314.69 210.00 322.16 214.58   C 327.75 218.02 331.37 227.24 326.79 232.72   C 322.33 238.07 306.88 239.08 303.03 232.62   C 301.23 229.60 301.76 224.36 300.99 221.49   C 299.37 215.51 293.61 213.31 287.73 213.76   C 264.71 215.53 265.29 253.95 272.23 268.27   C 279.78 283.83 300.60 287.34 315.67 281.40   C 319.56 279.86 323.27 276.62 326.92 274.15   A 0.69 0.69 0.0 0 1 327.75 274.19   L 330.43 276.39   A 0.59 0.59 0.0 0 1 330.49 277.23   C 316.38 293.01 297.40 297.47 277.01 294.80   C 245.44 290.66 229.55 264.89 240.52 234.51   Q 240.63 234.21 241.29 233.50   Z"
       id="path128"
       style="fill-opacity:1;fill:url(#linearGradient16086)" />
    <path
       d="   M 374.97 338.07   L 359.78 337.72   A 0.70 0.70 0.0 0 1 359.10 337.03   L 359.01 330.72   A 0.71 0.71 0.0 0 1 359.72 330.00   L 374.71 330.00   A 0.47 0.47 0.0 0 0 375.18 329.54   L 375.43 315.81   A 0.66 0.64 -7.3 0 1 375.91 315.20   L 410.44 305.60   A 0.64 0.64 0.0 0 1 411.25 306.22   L 411.25 329.50   A 0.50 0.50 0.0 0 0 411.75 330.00   L 437.50 330.00   A 0.50 0.50 0.0 0 1 438.00 330.50   L 438.00 337.09   A 0.60 0.60 0.0 0 1 437.41 337.69   L 411.91 337.90   A 0.57 0.57 0.0 0 0 411.34 338.46   Q 411.16 355.93 411.28 373.23   C 411.33 380.62 411.46 391.54 422.26 390.27   C 427.95 389.61 433.96 383.64 438.23 379.65   A 0.90 0.88 -54.5 0 1 439.19 379.48   L 445.26 382.11   A 0.57 0.57 0.0 0 1 445.53 382.91   C 439.32 393.91 430.80 402.13 418.25 404.96   C 408.20 407.23 391.82 405.77 383.81 400.48   Q 375.58 395.05 375.42 382.83   Q 375.07 356.92 375.43 338.54   A 0.47 0.46 1.2 0 0 374.97 338.07   Z"
       id="path130"
       style="fill-opacity:1;fill:url(#linearGradient16086)" />
    <path
       d="   M 288.22 338.06   L 273.17 337.86   A 0.63 0.63 0.0 0 1 272.55 337.24   L 272.48 330.64   A 0.63 0.63 0.0 0 1 273.11 330.00   L 288.25 330.00   A 0.50 0.50 0.0 0 0 288.75 329.50   L 288.75 315.74   A 0.60 0.60 0.0 0 1 289.19 315.16   L 323.70 305.64   A 0.88 0.88 0.0 0 1 324.82 306.48   L 325.07 329.54   A 0.47 0.46 0.0 0 0 325.54 330.00   L 350.62 330.00   A 0.63 0.62 -0.0 0 1 351.25 330.62   L 351.25 337.20   A 0.69 0.69 0.0 0 1 350.56 337.89   L 325.89 338.05   A 0.88 0.88 0.0 0 0 325.01 338.93   Q 324.99 357.59 325.01 376.64   Q 325.02 383.26 326.23 385.66   C 329.39 391.89 337.39 391.06 342.73 387.24   Q 347.47 383.85 351.51 379.64   A 0.84 0.84 0.0 0 1 352.46 379.45   L 358.55 382.08   A 0.59 0.59 0.0 0 1 358.83 382.91   C 352.33 394.61 342.16 403.80 328.76 405.50   C 316.51 407.05 295.27 405.58 290.22 391.97   Q 288.85 388.25 288.81 377.52   Q 288.73 358.02 288.69 338.53   A 0.47 0.47 0.0 0 0 288.22 338.06   Z"
       id="path132"
       style="fill-opacity:1;fill:url(#linearGradient16086)" />
    <path
       d="   M 310.75 434.04   Q 311.38 435.86 310.79 437.75   A 0.73 0.72 -81.2 0 1 310.10 438.26   L 246.66 438.23   A 1.68 1.68 0.0 0 1 244.98 436.52   L 245.00 434.38   A 0.72 0.72 0.0 0 1 245.63 433.68   C 251.80 432.96 265.95 433.30 262.56 424.69   Q 256.17 408.39 253.05 401.42   A 0.71 0.71 0.0 0 0 252.40 401.00   L 207.03 401.00   A 0.77 0.77 0.0 0 0 206.34 401.43   Q 201.57 411.00 197.96 421.00   C 193.71 432.75 206.87 432.77 213.57 433.41   A 0.79 0.78 83.7 0 1 214.24 433.95   Q 214.78 435.67 214.44 437.56   A 0.77 0.75 -84.4 0 1 213.70 438.18   L 173.60 438.26   A 0.64 0.63 1.3 0 1 172.96 437.60   L 173.11 434.21   A 0.81 0.80 -3.1 0 1 173.80 433.45   C 184.14 431.80 187.43 423.32 191.13 414.91   Q 214.33 362.23 237.47 309.45   A 2.08 2.06 12.2 0 1 239.42 308.21   C 241.89 308.27 242.42 309.86 243.48 312.15   Q 265.69 360.11 287.87 408.09   C 292.51 418.11 298.09 432.30 309.98 433.43   A 0.91 0.91 0.0 0 1 310.75 434.04   Z   M 209.57 393.48   A 0.40 0.40 0.0 0 0 209.94 394.04   L 249.94 393.97   A 0.40 0.40 0.0 0 0 250.31 393.41   L 230.22 347.03   A 0.40 0.40 0.0 0 0 229.49 347.03   L 209.57 393.48   Z"
       id="path134"
       style="fill-opacity:1;fill:url(#linearGradient16086)" />
    <path
       d="   M 923.54 366.90   A 0.20 0.19 -45.8 0 0 923.88 366.89   Q 933.06 349.03 940.96 330.56   C 945.29 320.45 935.76 321.07 929.43 320.28   A 0.57 0.56 -87.1 0 1 928.94 319.73   L 928.87 316.32   A 0.56 0.56 0.0 0 1 929.43 315.75   L 968.53 315.75   A 0.95 0.94 9.1 0 1 969.43 316.99   C 968.96 318.39 957.54 322.20 955.60 323.36   C 951.28 325.93 949.65 331.66 947.49 336.03   Q 925.27 381.01 903.51 426.22   C 898.67 436.27 889.99 441.77 878.74 438.69   C 870.30 436.38 865.20 427.77 870.29 419.81   C 875.04 412.37 883.97 413.17 891.32 416.09   Q 898.24 418.83 901.75 411.52   Q 905.19 404.37 907.39 398.45   A 1.05 1.04 -49.9 0 0 907.32 397.55   Q 888.45 363.90 869.52 330.31   C 866.41 324.80 863.48 321.84 857.53 320.59   A 0.85 0.84 -85.6 0 1 856.86 319.80   L 856.71 316.38   A 0.67 0.66 -1.2 0 1 857.38 315.69   L 914.49 315.73   A 0.51 0.51 0.0 0 1 915.00 316.24   L 915.00 319.64   A 0.63 0.63 0.0 0 1 914.49 320.26   C 910.41 321.02 902.99 321.04 901.72 325.97   A 1.55 1.51 -49.9 0 0 901.79 326.92   Q 903.47 330.99 905.56 334.69   Q 914.63 350.78 923.54 366.90   Z"
       id="path136"
       style="fill-opacity:1;fill:url(#linearGradient16086)" />
    <path
       d="   M 804.26 403.71   C 785.14 400.25 767.11 386.97 765.21 366.31   C 759.01 298.65 866.86 300.62 862.90 359.75   Q 862.75 362.02 860.75 362.02   Q 828.37 362.01 795.86 362.00   A 0.63 0.62 -0.9 0 0 795.23 362.64   C 795.70 379.16 800.89 388.70 818.25 390.80   Q 839.11 393.32 855.03 378.49   A 0.80 0.79 -54.0 0 1 855.90 378.35   L 860.09 380.28   A 0.58 0.58 0.0 0 1 860.35 381.10   Q 854.61 391.16 847.42 397.17   C 837.57 405.40 816.65 405.95 804.26 403.71   Z   M 819.76 354.28   C 823.14 354.31 829.61 354.69 834.57 354.40   A 0.56 0.56 0.0 0 0 835.10 353.87   Q 835.61 342.72 830.45 333.14   C 826.33 325.49 817.61 322.55 809.55 325.89   C 798.35 330.54 795.78 342.45 795.23 353.58   A 0.66 0.66 0.0 0 0 795.89 354.27   Q 807.77 354.20 819.76 354.28   Z"
       id="path138"
       style="fill-opacity:1;fill:url(#linearGradient16086)" />
    <path
       d="   M 527.73 403.23   C 499.48 412.01 451.55 406.50 448.86 368.31   C 446.72 337.94 467.23 320.01 496.04 318.68   C 523.43 317.42 551.56 326.99 554.11 358.44   C 555.78 379.02 548.20 396.86 527.73 403.23   Z   M 481.02 377.09   C 482.20 385.83 486.40 398.55 496.52 400.72   C 514.15 404.51 520.17 390.16 521.72 375.99   C 523.20 362.49 523.88 334.49 510.63 326.31   C 503.49 321.91 493.46 323.61 488.43 330.69   C 479.72 342.94 479.10 362.82 481.02 377.09   Z"
       id="path140"
       style="fill-opacity:1;fill:url(#linearGradient16086)" />
    <path
       d="   M 600.25 338.44   A 0.42 0.41 -26.9 0 0 601.00 338.68   Q 608.54 328.51 619.36 322.13   C 634.25 313.36 656.13 322.22 648.66 342.91   C 645.21 352.44 633.66 352.04 627.35 345.89   Q 624.74 343.35 622.13 340.80   A 1.17 1.16 65.9 0 0 621.27 340.47   C 597.01 341.56 600.47 360.96 600.49 378.26   Q 600.50 389.28 600.58 389.71   C 602.23 397.81 611.22 399.53 618.50 400.03   A 0.53 0.53 0.0 0 1 619.00 400.56   L 619.00 403.50   A 0.50 0.50 0.0 0 1 618.50 404.00   L 554.17 404.00   A 0.59 0.59 0.0 0 1 553.58 403.43   L 553.50 400.66   A 0.76 0.75 -6.9 0 1 554.10 399.90   C 561.14 398.41 567.03 397.39 567.12 388.60   Q 567.39 362.18 567.20 335.75   C 567.16 331.23 564.18 330.29 560.25 329.10   A 1.23 1.18 -4.4 0 1 559.53 328.51   C 558.59 326.72 559.80 325.80 561.48 325.52   Q 580.62 322.43 599.82 319.47   A 0.37 0.36 -4.1 0 1 600.24 319.83   L 600.25 338.44   Z"
       id="path142"
       style="fill-opacity:1;fill:url(#linearGradient16086)" />
    <path
       d="   M 693.00 334.73   A 0.32 0.32 0.0 0 0 693.60 334.90   Q 698.91 326.40 707.32 322.53   C 722.01 315.79 746.85 317.05 753.31 335.01   Q 754.93 339.50 754.98 350.80   Q 755.06 369.66 754.96 388.50   Q 754.90 398.87 765.70 399.17   A 0.99 0.97 -13.9 0 1 766.51 399.65   Q 767.64 401.55 766.48 403.35   A 0.88 0.86 -73.2 0 1 765.75 403.75   L 716.26 403.75   A 0.85 0.85 0.0 0 1 715.54 403.35   Q 714.50 401.64 715.25 399.72   A 0.80 0.80 0.0 0 1 715.93 399.21   Q 726.60 398.32 726.74 387.45   Q 727.06 362.23 726.45 344.57   C 725.70 323.11 701.56 330.90 693.51 341.11   A 1.44 1.41 -27.1 0 0 693.21 342.01   Q 693.25 365.20 693.21 388.27   Q 693.19 398.67 703.94 399.08   A 0.77 0.77 0.0 0 1 704.60 399.51   Q 705.57 401.47 704.59 403.30   A 0.85 0.83 -75.7 0 1 703.85 403.75   L 651.24 403.75   A 1.02 1.02 0.0 0 1 650.22 402.76   L 650.14 400.07   A 0.76 0.75 -5.7 0 1 650.77 399.31   C 656.79 398.21 662.78 396.60 662.74 390.18   Q 662.63 366.26 662.97 342.32   C 663.08 334.57 663.73 332.08 656.01 329.30   A 0.95 0.94 -83.2 0 1 655.39 328.50   L 655.23 327.02   A 0.85 0.85 0.0 0 1 655.73 326.16   Q 657.20 325.51 658.75 325.24   Q 675.64 322.25 692.58 319.24   A 0.35 0.34 84.5 0 1 692.99 319.58   L 693.00 334.73   Z"
       id="path144"
       style="fill-opacity:1;fill:url(#linearGradient16086)" />
  </g>
  <path
     fill="#fef100"
     d="   M 238.20 221.47   L 243.71 227.75   C 244.64 228.95 252.48 238.16 251.04 238.75   C 250.25 237.95 249.62 236.94 248.80 236.24   Q 211.61 204.16 174.23 172.13   A 0.94 0.94 0.0 0 0 173.27 171.97   Q 165.26 175.24 157.11 172.31   A 0.90 0.89 -54.3 0 0 156.23 172.46   C 144.25 182.27 132.85 193.31 121.36 203.73   A 0.65 0.63 53.5 0 0 121.25 204.54   Q 126.20 212.54 132.80 219.23   A 0.82 0.81 34.8 0 1 132.97 220.14   L 131.65 223.09   A 0.56 0.56 0.0 0 1 130.76 223.28   Q 123.09 216.41 117.81 207.58   A 0.44 0.43 53.1 0 0 117.14 207.48   L 55.94 262.69   A 0.11 0.08 61.0 0 1 55.80 262.62   L 55.77 262.56   A 0.12 0.12 0.0 0 1 55.79 262.45   L 112.38 198.09   A 0.86 0.85 -34.6 0 0 112.54 197.24   Q 98.76 157.82 123.38 125.14   C 123.90 124.45 125.42 123.30 125.86 122.02   A 0.93 0.91 34.9 0 0 125.69 121.11   L 88.04 76.97   A 0.17 0.17 0.0 0 1 88.28 76.72   L 133.81 113.92   A 0.62 0.61 -43.3 0 0 134.57 113.94   Q 166.98 89.79 205.74 102.95   C 207.07 103.40 207.74 103.07 208.72 102.22   Q 221.21 91.32 234.10 80.91   Q 234.52 80.58 234.19 80.99   L 214.27 106.15   A 0.47 0.46 37.6 0 0 214.36 106.82   Q 218.32 109.59 222.04 112.26   C 247.40 130.48 257.33 161.86 248.67 191.68   C 247.57 195.47 246.50 199.30 243.20 201.83   Q 240.50 203.90 237.64 205.72   Q 237.22 205.99 237.47 205.55   C 257.33 171.57 245.82 130.00 211.59 110.87   A 0.96 0.96 0.0 0 0 210.37 111.11   L 185.14 142.61   A 1.13 1.11 -35.4 0 0 184.95 143.66   Q 187.68 151.72 185.09 159.82   A 0.86 0.83 -57.8 0 0 185.26 160.63   L 238.20 221.47   Z   M 201.89 106.51   Q 167.32 95.89 138.52 116.78   A 0.63 0.62 46.2 0 0 138.50 117.77   L 155.62 131.75   A 0.78 0.77 52.4 0 0 156.42 131.86   Q 164.52 128.28 172.68 131.74   A 1.03 1.02 -53.3 0 0 173.73 131.58   L 202.10 107.52   A 0.59 0.59 0.0 0 0 201.89 106.51   Z   M 128.71 125.99   Q 104.36 155.73 115.88 193.10   Q 116.07 193.74 116.51 193.24   L 144.57 161.52   A 0.95 0.94 54.6 0 0 144.73 160.53   Q 141.27 152.24 144.55 143.83   A 0.90 0.90 0.0 0 0 144.39 142.91   L 129.74 125.97   A 0.68 0.67 -45.8 0 0 128.71 125.99   Z"
     id="path148"
     style="fill-opacity:1;fill:url(#radialGradient1149)" />
</svg>
