<?xml version="1.0" encoding="UTF-8" standalone="no"?>
<svg
   height="1558"
   width="2500"
   viewBox="-68.037625771016 -54.49778553293288 363.4516257710159 272.5169270781031"
   version="1.1"
   id="svg6"
   sodipodi:docname="Aladdin-w.svg"
   inkscape:version="1.1.2 (0a00cf5339, 2022-02-04)"
   xmlns:inkscape="http://www.inkscape.org/namespaces/inkscape"
   xmlns:sodipodi="http://sodipodi.sourceforge.net/DTD/sodipodi-0.dtd"
   xmlns="http://www.w3.org/2000/svg"
   xmlns:svg="http://www.w3.org/2000/svg">
  <defs
     id="defs10" />
  <sodipodi:namedview
     id="namedview8"
     pagecolor="#ffffff"
     bordercolor="#666666"
     borderopacity="1.0"
     inkscape:pageshadow="2"
     inkscape:pageopacity="0.0"
     inkscape:pagecheckerboard="0"
     showgrid="false"
     inkscape:zoom="0.5128"
     inkscape:cx="1250"
     inkscape:cy="741.02964"
     inkscape:window-width="1920"
     inkscape:window-height="1011"
     inkscape:window-x="1920"
     inkscape:window-y="32"
     inkscape:window-maximized="1"
     inkscape:current-layer="svg6" />
  <g
     fill="#231f20"
     fill-rule="evenodd"
     id="g4"
     style="mix-blend-mode:normal;stroke:#000000;fill:#ffffff">
    <path
       d="m 134.6,175.488 c -12.943,-4.91 -24.223,-14.7 -31.394,-27.243 -11.473,-20.069 -13.063,-46.99 -15.075,-70.425 -3.058,-35.622 0.113,-56.489 3.91,-65.65 1.33,-3.21 5.317,-6.815 8.421,-5.687 -8.627,-4.157 -20.258,0.835 -25.131,9.52 -7.461,13.296 -9.91,29.943 -10.008,45.78 -0.062,3.267 -1.842,5.696 -1.842,5.696 l 0.008,0.002 c -7.424,10.923 -14.847,21.848 -22.27,32.773 -3.699,-0.118 -7.412,0.014 -11.124,0.29 -5.755,0.429 -11.577,1.712 -17.257,0.838 -0.39,-0.058 -0.787,-0.142 -1.127,-0.438 -0.34,-0.296 -0.617,-0.846 -0.636,-1.508 -0.332,3.084 -1.817,6.598 -0.837,9.082 1.09,2.765 4.46,2.593 6.414,2.661 a 153.539,153.539 0 0 0 17.401,-0.384 c -7.615,11.21 -15.233,22.419 -22.85,33.628 -4.02,5.915 -7.537,12.257 -11.206,18.44 1.356,-2.137 4.277,-2.29 6.73,-2.547 9.598,-1.004 18.343,-8.114 22.087,-17.59 4.345,-10.995 9.063,-21.928 14.364,-32.483 1.012,-0.02 2.024,-0.029 3.035,-0.03 1.024,-0.003 2.045,-0.288 3.056,-0.222 3.003,0.2 6.357,-1.088 9.381,-1.606 3.088,-0.528 6.364,-0.61 9.41,-1.657 -6.18,-3.055 -12.664,-4.906 -19.16,-5.827 -0.259,-0.036 -0.518,-0.07 -0.778,-0.104 A 320.396,320.396 0 0 1 65.586,72.363 c 1.21,22.166 6.116,40.631 6.584,42.614 6.533,27.727 19.7,49.89 42.156,61.714 18.55,9.765 41.566,10.235 59.63,-0.521 l 1.049,-0.683 c -12.943,4.912 -27.46,4.912 -40.405,0.001 m 126.432,-97.91 c -3.064,0.426 -7.667,1.546 -7.745,5.474 -0.058,2.813 2.718,4.004 5.174,3.92 3.39,-0.116 6.624,-2.532 8.492,-5.236 2.13,-3.082 1.83,-5.796 2.263,-9.248 -0.216,1.724 -1.582,3.124 -3.146,3.878 -1.564,0.754 -3.32,0.973 -5.038,1.213 m 28.906,73.68 c -1.544,-1.183 -3.362,-3.174 -4.254,-4.903 -4.855,-9.401 -5.353,-20.322 -2.725,-30.573 0.812,-3.164 1.987,-6.286 2.057,-9.551 0.072,-3.266 -1.028,-7.468 -4.191,-8.27 -6.215,-1.577 -12.596,13.041 -13.656,15.299 0.217,-1.788 2.123,-9.505 -1.577,-11.765 -1.824,-1.115 -4.228,-0.476 -6.096,0.564 -3.056,1.698 -5.43,4.414 -7.38,7.317 -1.952,2.902 -3.541,6.034 -5.436,8.973 a 52.616,52.616 0 0 1 -3.281,4.517 c -0.61,0.756 -1.57,1.49 -1.804,0.123 -0.292,-1.696 0.6,-3.823 1.05,-5.44 0.6,-2.15 1.422,-4.235 2.343,-6.265 1.943,-4.287 4.319,-8.377 6.035,-12.76 0.74,-1.893 1.292,-4.242 -0.016,-5.8 -1.327,-1.581 -3.966,-1.366 -5.598,-0.104 -1.524,1.179 -2.674,3.21 -3.597,4.999 -0.14,0.27 -0.274,0.534 -0.405,0.79 a 80.152,80.152 0 0 0 -3.297,7.395 c -1.136,2.936 -2.376,6.018 -3.111,9.082 -0.91,3.79 -1.123,7.683 -0.332,11.513 0.423,2.04 1.487,4.388 3.75,4.352 a 3.19,3.19 0 0 0 1.446,-0.394 c 1.285,-0.688 2.052,-1.894 2.8,-3.075 3.381,-5.35 6.764,-10.697 10.145,-16.045 0.8,-1.265 1.61,-2.541 2.675,-3.593 0.533,-0.527 1.525,-1.505 2.257,-1.71 1.524,-0.427 1.221,1.465 0.997,2.243 -0.447,1.548 -1.839,8.248 -2.225,9.843 l -2.62,10.795 c -0.372,1.53 -0.703,3.315 0.672,4.436 0.74,0.604 1.744,0.744 2.668,0.5 1.934,-0.512 3.073,-2.156 4.082,-3.753 5.004,-7.921 7.206,-17.244 12.99,-24.565 0.567,-0.718 1.714,-0.158 1.497,0.732 -1.62,6.63 -2.854,13.384 -2.43,20.249 a 37.532,37.532 0 0 0 6.272,18.512 c 1.759,2.618 3.91,5.06 6.672,6.582 2.76,1.523 6.21,2.021 9.099,0.752 -1.795,0.75 -3.934,0.181 -5.476,-1.001 m -72.101,-41.809 c -0.42,0.87 -1.247,2.271 -1.688,3.127 -1.265,2.341 -4.999,8.16 -5.381,8.621 -1.367,1.644 -3.148,4.279 -4.567,4.135 -2.49,-0.252 -1.723,-5.604 -1.433,-7.105 0.22,-1.14 0.428,-2.284 0.777,-3.392 1.145,-3.634 3.079,-6.999 5.484,-9.948 2.367,-2.9 6.042,-5.799 7.3,-6.25 0.905,-0.323 1.922,-0.407 2.84,-0.157 -1.516,3.934 -2.467,6.86 -3.332,10.97 m 14.31,34.424 c -3.646,-3.213 -5.724,-7.943 -6.438,-12.752 -0.715,-4.808 -0.167,-9.72 0.762,-14.491 4.161,-21.357 16.243,-41.074 33.375,-54.472 1.092,-0.855 2.252,-1.707 3.608,-1.99 1.356,-0.284 2.964,0.16 3.623,1.38 -0.097,-2.448 -2.3,-4.432 -4.69,-4.968 -2.39,-0.534 -4.889,0.092 -7.171,0.98 -7.14,2.782 -12.028,7.859 -17.032,13.41 -6.622,7.349 -12.155,15.898 -16.04,25.103 -2.73,-1.21 -6.95,-1.95 -9.803,-1.468 -2.832,0.478 -5.828,2.37 -7.917,4.285 a 29.76,29.76 0 0 0 -6.5,8.647 c -1.648,3.313 -2.875,7.018 -3.316,10.674 -0.384,3.181 -0.444,6.546 0.952,9.429 1.395,2.884 4.624,5.09 7.746,4.376 1.96,-0.45 3.52,-1.915 4.826,-3.445 a 31.305,31.305 0 0 0 1.53,-1.948 c 0.004,-0.006 0.01,-0.008 0.014,-0.014 l 0.022,-0.037 a 31.366,31.366 0 0 0 2.048,-3.243 c 2.064,-3.474 3.635,-5.993 5.164,-9.145 a 70.411,70.411 0 0 0 -0.7,5.986 c -0.516,7.103 0.116,14.68 4.19,20.519 2.714,3.89 6.874,6.748 11.478,7.885 4.605,1.137 9.616,0.543 13.827,-1.637 -4.58,1.618 -9.913,0.15 -13.558,-3.064 m -50.46,-39.36 a 76.617,76.617 0 0 1 -1.544,5.966 c -1.447,4.793 -3.954,9.407 -6.798,13.525 -0.48,0.692 -1.008,1.404 -1.774,1.753 -2.216,1.014 -2.665,-1.577 -2.585,-3.129 0.361,-7.025 2.983,-13.885 7.265,-19.449 a 34.543,34.543 0 0 1 3.559,-3.957 c 0.88,-0.836 2.556,-2.748 2.941,-0.79 0.325,1.655 -0.71,4.442 -1.064,6.082 m 9.737,29.22 c -1.776,-3.01 -2.294,-6.585 -2.552,-10.07 -1.622,-21.937 6.147,-44.41 20.966,-60.658 1.178,-1.291 2.452,-2.582 4.083,-3.208 1.63,-0.628 3.713,-0.41 4.804,0.956 -0.715,-3.03 -3.6,-5.259 -6.675,-5.727 -3.076,-0.468 -6.24,0.61 -8.786,2.396 -2.548,1.787 -4.555,4.235 -6.37,6.763 a 76.33,76.33 0 0 0 -11.432,23.74 c -0.402,1.416 -0.648,2.898 -1.082,4.302 -0.434,1.404 -0.677,1.317 -2.068,1.253 -8.006,-0.37 -15.923,7.202 -19.535,13.696 -3.63,6.52 -4.89,14.93 -2.455,22.064 0.663,1.944 2.136,3.708 4.112,4.256 3.277,0.91 6.461,-1.652 8.621,-4.278 a 41.642,41.642 0 0 0 7.32,-13.255 c 0.77,6.903 2.421,13.499 7.09,18.638 3.975,4.375 10.636,5.343 12.515,4.187 -3.48,0.29 -6.779,-2.047 -8.556,-5.056 m -36.339,-27.44 c -0.967,-1.342 -2.897,-1.744 -4.468,-1.227 -1.57,0.517 -2.793,1.793 -3.621,3.224 -0.828,1.431 -1.316,3.028 -1.86,4.589 -2.196,6.316 -5.375,12.236 -8.541,18.125 -0.424,0.792 -1.221,1.717 -2.028,1.324 -0.527,-0.257 -0.659,-0.936 -0.707,-1.52 -0.32,-3.87 0.603,-7.327 1.279,-11.078 a 35.561,35.561 0 0 1 6.937,-15.519 c 1.165,-1.489 2.496,-2.92 4.205,-3.73 1.708,-0.811 3.87,-0.888 5.399,0.225 -2.176,-2.436 -5.453,-3.848 -8.719,-3.753 -3.218,0.096 -6.288,1.59 -8.725,3.696 -2.437,2.106 -4.301,4.797 -5.921,7.58 -2.317,3.986 -4.207,8.289 -4.892,12.848 -0.682,4.559 -0.084,9.41 2.285,13.363 0.947,1.581 2.243,3.057 3.975,3.684 2.884,1.044 6.173,-0.61 8.038,-3.046 1.865,-2.436 5.804,-11.647 7.726,-16.504 -0.731,7.118 3.082,14.502 9.31,18.024 0.02,-0.252 -2.501,-4.63 0.69,-24.988 0.283,-1.808 0.707,-3.832 -0.362,-5.317 m -43.264,3.478 a 148.409,148.409 0 0 1 18.15,-52.652 c 0.379,-0.661 0.845,-1.408 1.29,-2.027 0.838,-1.169 2.182,-2.283 2.735,-1.627 0.68,0.804 0.247,3.62 0.03,4.653 a 202.845,202.845 0 0 1 -3.556,14.39 203.995,203.995 0 0 1 -14.379,36.487 c -0.518,1.02 -4.645,8.377 -4.645,8.377 0,0 0.247,-6.709 0.375,-7.6 m -8.396,20.175 c 1.373,3.165 4.076,5.938 7.47,6.549 2.995,0.54 6.151,-0.707 8.296,-2.864 1.595,-1.604 2.668,-3.655 3.288,-5.84 a 1.2,1.2 0 0 1 -0.186,-0.07 c -0.99,1.44 -2.91,2.34 -4.688,2.065 -2.587,-0.402 -4.579,-2.716 -5.242,-5.25 -0.36,-1.372 -0.486,-2.892 0.103,-4.183 1.103,-2.418 2.541,-4.57 3.839,-6.863 a 191.352,191.352 0 0 0 16.774,-39.454 190.088,190.088 0 0 0 3.93,-15.546 c 0.646,-3.099 0.964,-6.92 -1.549,-8.84 -1.69,-1.289 -4.145,-1.146 -6.038,-0.182 -1.892,0.965 -4.188,3.282 -5.648,4.825 -14.473,15.269 -22.689,40.436 -22.354,64.234 0.048,3.45 0.633,8.252 2.005,11.419 M 146.733,24.212 c -4.13,3.034 -9.78,3.5 -14.918,2.278 -0.03,-0.007 -0.025,-0.007 -0.073,-0.015 -0.05,0.563 -0.015,1.38 -0.602,1.618 -0.44,0.114 -1.094,0.207 -1.686,0.043 -0.675,-0.762 -0.675,-1.898 -0.887,-2.953 -2.956,-1.373 -6.117,-3.616 -7.862,-6.596 a 1.387,1.387 0 0 1 -0.115,-0.31 c -0.084,-0.454 0.07,-0.935 0.303,-1.302 0.068,-0.104 0.156,-0.201 0.222,-0.272 0.988,-0.956 2.135,-1.524 3.281,-1.977 a 16.338,16.338 0 0 1 1.88,-0.572 25.1,25.1 0 0 1 2.147,-0.484 c 0.117,-0.027 0.243,-0.053 0.363,-0.079 0.097,-0.322 0.12,-4.429 1.132,-6.282 0.972,0.338 1.473,1.433 1.602,2.36 l 0.09,3.645 0.142,-0.012 0.146,-0.01 h 0.173 a 22.434,22.434 0 0 1 2.903,0.08 c 2.213,0.175 4.349,0.69 6.106,2.026 0.157,0.125 0.461,0.397 0.663,0.73 0.32,0.562 0.558,1.17 0.354,1.886 -0.188,0.79 -1.018,1.42 -1.734,1.81 -0.263,0.132 -0.518,0.14 -0.584,0.14 a 3.776,3.776 0 0 1 -1.42,-0.281 c -0.039,-0.024 -0.048,-0.035 -0.054,-0.072 0,-0.483 0.555,-0.635 0.934,-0.952 0.032,-0.023 0.138,-0.108 0.304,-0.356 0.026,-0.037 0.052,-0.08 0.078,-0.123 a 1.135,1.135 0 0 0 0.15,-0.403 l 0.001,-0.005 c -0.001,-0.074 -0.053,-0.118 -0.088,-0.14 -2.128,-1.056 -4.998,-1.429 -7.03,-1.52 -0.198,-0.009 -0.37,-0.024 -0.963,-0.009 -0.005,0.119 -0.008,0.063 -0.001,0.184 0.01,0.34 0.008,1.081 0.006,1.405 l 0.119,6.394 c 4.51,0.842 9.606,0.593 13.188,-2.275 1.652,-1.36 2.12,-3.547 1.744,-5.535 L 146.731,16.2 a 5.759,5.759 0 0 0 -0.078,-0.34 c -0.01,-0.037 -0.017,-0.074 -0.03,-0.11 -0.003,-0.018 -0.01,-0.036 -0.015,-0.054 a 5.986,5.986 0 0 0 -0.185,-0.525 C 143.989,9.498 137.939,6.309 132.74,4.187 128.211,2.525 123.148,1.561 117.915,2.383 c 0,0 -0.033,0.003 -0.085,0.012 -0.045,0.006 -0.092,0.015 -0.136,0.02 -0.007,0.006 -0.088,0.022 -0.093,0.024 -0.235,0.05 -0.507,0.128 -0.663,0.276 h 0.004 a 0.33,0.33 0 0 0 -0.072,0.092 0.043,0.043 0 0 0 0.012,0.048 c 0.45,0.258 1.12,0.052 1.533,0.575 0.023,0.03 0.035,0.063 0.04,0.113 0.004,0.22 -0.18,0.304 -0.384,0.351 -0.325,0.05 -0.813,0.052 -1.04,0.05 -0.545,-0.02 -1.105,-0.058 -1.449,-0.431 -0.087,-0.144 -0.041,-0.374 -0.01,-0.498 0.302,-0.842 0.638,-1.738 1.573,-2.074 6.469,-1.98 13.71,-0.444 18.654,1.725 1.674,0.732 3.77,1.737 5.805,3.085 0.508,0.335 0.987,0.667 1.435,1.003 l 0.07,0.048 c 0.04,0.033 0.083,0.067 0.124,0.097 6.408,4.846 6.83,9.397 6.83,9.397 0.518,3.126 -0.748,5.98 -3.33,7.916 m -24.404,-6.87 c -0.356,0.118 -0.896,0.46 -0.823,0.916 0,0.004 0.001,0.008 0.003,0.01 v 0.01 c 0.01,0.03 0.024,0.073 0.053,0.121 1.728,2.415 4.365,3.756 6.88,4.673 0.084,-2.314 0.252,-4.538 0.252,-6.814 -0.424,0.033 -1.444,0.085 -3.287,0.365 -1.053,0.167 -2.11,0.381 -3.078,0.719 m 45.649,-3.757 a 0.277,0.277 0 0 0 -0.07,-0.163 0.523,0.523 0 0 0 -0.115,-0.072 c -3.199,-1.313 -7.625,-0.93 -10.597,0.705 -0.903,0.468 -1.307,1.34 -1.38,2.325 -0.006,0.164 0,0.591 0.184,0.936 0.15,0.255 0.362,0.486 0.605,0.615 0.036,0.017 0.1,0.041 0.176,0.061 0.979,0.207 2.019,0.282 3.057,0.347 0.526,0.039 0.906,0.063 0.906,0.063 1.966,0.166 2.894,0.42 2.894,0.42 h 0.01 c 0.787,0.218 1.875,0.396 2.093,1.365 a 0.186,0.186 0 0 1 -0.014,0.108 c -0.662,1.063 -2.642,1.427 -3.975,1.643 -0.872,0.101 -3.082,0.466 -4.158,-0.418 a 0.518,0.518 0 0 1 -0.184,-0.357 c 0,-0.02 0,-0.043 0.003,-0.064 v -0.003 a 0.86,0.86 0 0 1 0.157,-0.446 c 0.018,-0.022 0.066,-0.082 0.143,-0.134 1.393,-0.808 3.167,0.92 4.587,0.747 1.435,-0.143 1.894,-0.483 2.04,-0.792 0.118,-0.232 0.065,-0.39 0.065,-0.39 -0.504,-0.42 -1.641,-0.757 -2.57,-0.923 -1.313,-0.19 -3.183,-0.467 -4.5,0.324 -0.022,0.014 -0.27,0.172 -0.438,0.418 -0.253,0.375 -0.437,0.828 -0.459,1.311 0.002,0.084 0.012,0.21 0.059,0.356 0.675,1.681 2.43,2.573 4.033,2.941 2.175,0.35 4.528,0.054 6.139,-1.377 h -0.003 c 0.31,-0.276 0.475,-0.521 0.552,-0.655 0.405,-0.802 0.528,-2.089 0.268,-3.088 a 2.085,2.085 0 0 0 -0.295,-0.637 c -1.672,-2.207 -4.753,-1.581 -7.36,-2.003 a 7.171,7.171 0 0 1 -1.185,-0.252 c -0.252,-0.07 -0.4,-0.137 -0.478,-0.178 -0.023,-0.01 -0.046,-0.026 -0.067,-0.038 -0.005,-0.004 -0.005,-0.006 -0.005,-0.006 a 0.32,0.32 0 0 1 -0.127,-0.178 0.076,0.076 0 0 1 0.036,-0.08 c 2.264,-0.908 4.985,-0.785 7.5,-1.078 0.798,-0.122 1.638,-0.09 2.19,-0.701 a 0.89,0.89 0 0 0 0.079,-0.092 c 0.001,-0.003 0.004,-0.004 0.004,-0.008 0.004,0 0.004,-0.003 0.004,-0.003 0.052,-0.072 0.113,-0.176 0.155,-0.305 a 0.727,0.727 0 0 0 0.038,-0.178 v -0.026 c 0.003,-0.018 0.003,-0.027 0.003,-0.034 V 13.59 Z m 9.11,-1.386 c -0.34,-0.485 -0.931,-1.392 -1.689,-1.434 -0.294,0.129 -0.308,0.546 -0.253,0.8 0.548,2.771 1.634,5.291 1.642,8.269 0,0.116 -0.005,0.316 -0.033,0.434 -0.039,0.122 -0.105,0.223 -0.219,0.236 -1.663,-2.246 -2.791,-4.774 -4.843,-6.826 a 1.096,1.096 0 0 0 -0.187,-0.14 c -0.33,-0.15 -0.635,0.033 -0.865,0.29 -0.06,0.085 -0.191,0.265 -0.332,0.578 -0.65,1.512 -0.955,3.193 -1.188,4.876 -0.13,0.853 -0.506,3.204 0.081,4.508 0.255,0.468 0.716,0.93 1.265,0.889 0.378,-0.044 0.674,-0.505 0.8,-0.89 l 0.412,-6.823 0.179,0.292 c 1.392,2.236 2.107,4.764 4.299,6.532 0.311,0.205 0.711,0.16 1.054,0.02 0.216,-0.076 0.517,-0.21 0.768,-0.434 0.753,-0.606 1.15,-1.658 1.261,-2.498 0.374,-3.199 -0.425,-6.195 -2.153,-8.679 M 159,5.115 c -0.184,-0.617 -0.775,-0.576 -1.294,-0.528 -0.204,0.031 -0.396,0.091 -0.493,0.123 -1.793,0.696 -3.452,2.3 -4.495,3.948 1.22,0.21 2.444,0 3.624,-0.424 0.378,-0.167 0.76,-0.336 1.136,-0.587 0.804,-0.592 1.73,-1.437 1.522,-2.532 m -4.843,-0.8 a 1.563,1.563 0 0 0 -0.25,-0.046 h -0.005 a 1.901,1.901 0 0 0 -0.822,0.082 3.418,3.418 0 0 0 -0.39,0.175 6.06,6.06 0 0 0 -1.322,0.97 c -0.25,0.25 -0.5,0.56 -0.675,0.855 -0.027,0.048 -0.123,0.211 -0.187,0.439 -0.084,0.301 -0.125,0.617 0.102,0.813 0.042,-0.057 0.09,-0.11 0.134,-0.165 0.411,-0.497 1.736,-2.015 3.415,-3.124 m 6.421,1.265 a 3.7,3.7 0 0 1 -0.401,1.087 c -0.75,1.264 -1.819,2.225 -2.992,3.003 -0.713,0.462 -1.39,0.8 -2.19,1.052 -1.14,0.34 -2.403,0.126 -3.458,-0.208 -0.17,0.208 -0.424,1.096 -0.97,1.052 -0.298,0 -0.466,-0.132 -0.649,-0.522 a 3.091,3.091 0 0 1 -0.13,-0.372 3.145,3.145 0 0 1 -0.075,-0.544 c -0.003,-0.282 0.01,-0.573 0.01,-0.669 -0.775,-0.776 -1.02,-1.884 -0.804,-2.915 0.009,-0.056 0.032,-0.158 0.076,-0.3 0.028,-0.096 0.062,-0.192 0.096,-0.284 0.01,-0.018 0.024,-0.038 0.034,-0.058 0.35,-0.806 1.267,-2.179 3.65,-3.368 0.25,-0.119 0.678,-0.304 1.169,-0.435 a 6.659,6.659 0 0 1 2.412,-0.181 l 0.054,0.008 c 0.418,0.05 0.88,0.16 1.294,0.388 0,0 0.602,0.321 0.75,0.821 a 1.75,1.75 0 0 1 0.14,-0.007 2.44,2.44 0 0 1 0.678,0.103 c 0.47,0.145 0.816,0.495 0.816,0.495 h -0.004 c 0.057,0.054 0.117,0.113 0.168,0.177 0.388,0.464 0.449,1.036 0.326,1.677 m 40.273,11.499 c 0,-0.35 -0.06,-0.65 -0.106,-0.816 -0.072,-0.222 -0.152,-0.486 -0.372,-0.524 l 0.003,0.001 c -0.075,-0.021 -0.157,0.025 -0.21,0.065 -0.214,0.208 -0.425,0.418 -0.62,0.63 -0.022,0.022 -0.043,0.046 -0.065,0.07 -0.025,0.028 -0.048,0.055 -0.076,0.082 a 25.174,25.174 0 0 0 -2.544,3.444 c -0.304,0.521 -0.602,1.04 -0.898,1.554 -0.064,0.119 -0.126,0.238 -0.187,0.354 1.297,-0.004 2.475,-0.634 3.481,-1.434 1.03,-0.916 1.575,-2.086 1.59,-3.426 l 0.004,0.001 z m 1.569,1.526 c -0.579,2.742 -3.1,5.267 -5.752,6.195 0,0 -1.032,0.375 -2.299,0.155 a 41.996,41.996 0 0 0 -1.316,3.657 c -0.61,2.102 -1.13,4.248 -1.426,6.478 -0.966,0.13 -1.939,-0.841 -2.357,-1.729 a 1.816,1.816 0 0 1 -0.14,-0.585 c -0.087,-0.67 0.037,-1.435 0.118,-1.83 0.268,-1.75 0.723,-3.411 1.213,-5.058 a 24.126,24.126 0 0 1 1.175,-2.881 2.184,2.184 0 0 1 -0.221,-0.375 4.496,4.496 0 0 1 -0.419,-1.243 c -0.407,-3.114 1.053,-5.689 2.885,-7.978 0.128,-0.148 0.256,-0.285 0.371,-0.405 0.328,-0.31 0.645,-0.76 1.13,-0.726 0.289,2.676 -2.31,4.399 -2.603,6.97 -0.03,0.373 -0.03,0.98 0.222,1.274 a 30.652,30.652 0 0 1 2.492,-3.493 l 0.059,-0.07 c 1.113,-1.304 2.325,-2.433 3.715,-3.229 0.193,-0.105 0.568,-0.284 0.846,-0.285 0.366,0.005 0.702,0.145 0.99,0.368 0.057,0.052 0.146,0.133 0.229,0.228 1.03,1.288 1.5,2.885 1.088,4.562 m -14.66,-3.117 c 0.582,-0.037 2.193,0.04 2.953,-0.59 0.084,-0.93 -0.76,-1.772 -1.598,-2.151 -2.577,-0.168 -5.024,0.379 -7.464,0.675 -0.23,0.034 -0.677,0.084 -0.677,0.422 0.212,1.095 1.305,1.307 2.15,1.516 l -0.044,0.127 -0.669,2.042 -0.17,0.004 -0.322,0.028 c -0.07,0.011 -0.147,0.026 -0.221,0.046 -0.278,0.09 -0.616,0.23 -0.512,0.578 0.8,1.604 -0.804,2.694 -0.632,4.302 0.113,1.04 0.66,2.125 1.59,2.652 0.135,0.065 0.338,0.138 0.61,0.169 2.453,0.217 4.458,-1.077 6.312,-2.527 0.212,-0.464 -0.123,-1.054 -0.423,-1.434 -1.77,-0.382 -3.455,0.42 -5.224,0.548 l -0.004,-0.004 -0.141,0.016 c 0.184,-0.451 0.516,-1.434 0.885,-2.558 a 5.87,5.87 0 0 1 1.037,-0.025 c 0.362,0.013 0.746,0.047 0.964,0.045 0.855,0 1.715,0.071 2.339,-0.389 a 0.368,0.368 0 0 0 0.133,-0.264 c 0.024,-0.295 0.11,-0.868 -0.113,-1.205 -1.056,-0.379 -2.359,-0.21 -3.5,-0.21 l -0.164,0.002 0.545,-1.73 z m -33.584,-0.513 c 0.206,3.15 0.472,6.166 0.31,9.45 -0.464,0.382 -1.05,0.55 -1.642,0.382 -1.222,-0.254 -1.047,-1.703 -1.095,-2.702 -0.041,-2.908 0.04,-5.773 0.505,-8.513 0.078,-0.285 0.295,-0.674 0.675,-0.761 0.653,0.099 0.9,0.681 1.079,1.273 0.044,0.16 0.122,0.479 0.168,0.87"
       id="path2"
       style="stroke:#000000;fill:#ffffff" />
  </g>
</svg>
