<?xml version="1.0" encoding="UTF-8" standalone="no"?>
<!-- Created with Inkscape (http://www.inkscape.org/) -->
<svg id="svg2" xmlns:rdf="http://www.w3.org/1999/02/22-rdf-syntax-ns#" xmlns="http://www.w3.org/2000/svg" xml:space="preserve" height="262.135" viewBox="0 0 839.79248 262.135" width="839.7925" version="1.1" xmlns:cc="http://creativecommons.org/ns#" xmlns:dc="http://purl.org/dc/elements/1.1/"><metadata id="metadata8"><rdf:RDF><cc:Work rdf:about=""><dc:format>image/svg+xml</dc:format><dc:type rdf:resource="http://purl.org/dc/dcmitype/StillImage"/><dc:title/></cc:Work></rdf:RDF></metadata><defs id="defs6"><linearGradient id="linearGradient18" y2="1063.924" gradientUnits="userSpaceOnUse" x2="1076.405" y1="1238.765" x1="1076.406"><stop id="stop20" stop-color="#1e2061" offset="0"/><stop id="stop22" stop-color="#176fc1" offset=".51685"/><stop id="stop28" stop-color="#176fc1" offset=".62358"/><stop id="stop30" stop-color="#fff" offset=".6258401"/><stop id="stop32" stop-color="#fff" offset=".63483"/><stop id="stop34" stop-color="#fff" offset="1"/></linearGradient></defs><g id="g10" transform="matrix(1.25 0 0 -1.25 -926.7017 1570.637)"><path id="path12" d="m1260.474 1110.817h-76.4804v75.665h76.4804v-75.665z" fill="#231f20"/><path id="path14" d="m1258.639 1184.647-73.0137-0.2041 0.2041-71.3819 72.6055 0.2037 0.2041 71.3823m-55.6787-63.5464h-10.3291v10.3291h10.3291v-10.3291m0 17.4678h-10.3291v8.8418h10.3291v-8.8418m0 15.9804h-10.3291v9.1768h10.3291v-9.1768m-10.3291 16.3155v9.1767h10.3291v-9.1767h-10.3291m26.3095-49.7637h-8.8418v10.3291h8.8418v-10.3291m0 17.4678h-8.8418v8.8418h8.8418v-8.8418m0 15.9804h-8.8418v9.1768h8.8418v-9.1768m-8.8418 16.3155v9.1767h8.8418v-9.1767h-8.8418m25.1573-49.7637h-9.1768v10.3291h9.1768v-10.3291m0 17.4678h-9.1768v8.8418h9.1768v-8.8418m0 15.9804h-9.1768v9.1768h9.1768v-9.1768m-9.1768 16.3155v9.1767h9.1768v-9.1767h-9.1768m25.4922-49.7637h-9.1768v10.3291h9.1768v-10.3291m0 17.4678h-9.1768v8.8418h9.1768v-8.8418m0 15.9804h-9.1768v9.1768h9.1768v-9.1768m-9.1768 16.3155v9.1767h9.1768v-9.1767h-9.1768z" fill="#fff"/><path id="path16" d="m749.3613 1112.183 89.72949 127.4692v-16.9443h28.49756v-16.9448l14.24902 18.4849 25.80176-36.1998v32.7339h34.27441v-47.7524l27.34278 37.355 20.79541-29.2681-29.65283-41.9761 15.78906-22.7212 84.33841 118.6123 61.2324-85.4936v70.0889h37.7402v-37.7403s14.8955 38.1255 63.168 38.1255 60.8359-38.5102 60.8359-38.5102v36.5849h59.6905l21.1806 30.4229 40.8213-59.3062-90.8847-125.5434v39.2802l-30.4229-40.4355v55.4546s-20.4072-38.5103-61.5547-38.5103c-41.1474 0-62.0644 37.7398-62.0644 37.7398l-31.5782-43.1314-37.7402 53.5293v-45.8271h-59.3062l-18.4853-26.958-27.72755 39.2807-18.87011-26.9575-27.72803 43.5171-31.19336-44.6724v28.4981l-19.25537-27.3428-26.95703 37.7402-29.26807-39.2802v17.3296h-26.57227l-18.09961-26.5728-38.12597 55.8413m472.9268 69.9844c-17.9287 0-32.4639-14.5337-32.4639-32.4624s14.5352-32.4629 32.4639-32.4629 32.4629 14.5342 32.4629 32.4629-14.5342 32.4624-32.4629 32.4624m126.0859 23.0786v-35.8945l14.0723 17.9472-14.0723 17.9473m-546.25-107.1543v31.125l-11.46728-14.4702 11.46728-16.6548m81.49903 37.6772 23.34375-34.9472v68.2568l-23.34375-33.3096m142.2652-41.9448v31.0952l-10.5542-14.0722 10.5542-17.023z" fill="#ed1c24"/><path id="path36" d="m755.6856 1113.371 77.85791 109.5479v-134.6807h-27.31836v60.1011l-22.67481-33.0557 19.12305-27.8652-14.47852-20.7617-32.50927 46.7143m105.1768 0.8193 26.22608-37.6997 15.29834 21.0357-26.77246 39.3389 30.32373 44.2563-23.49414 34.9678-15.57129-20.7622 12.29346-17.2105-16.11817-17.2109v55.457h-24.04053v-132.769l21.85498 30.5966m77.85889 3.8257 28.13819-42.3437 15.29833 22.9472-28.13818 40.9781 28.68457 42.6172-13.93262 19.6694-32.78222-42.8901v56.8227h-23.49414v-131.6763l26.22607 33.8755m86.87351-32.7822-16.3911 25.9531 22.4009 35.5142v-59.8281h25.9531v136.0468l-78.40477-110.9135 33.05567-48.0811 13.3862 21.3086m60.92 2.1856v56.5498l42.6171-61.1939 24.3135 34.9678v97.2544h-26.498v-83.8682l-65.0191 92.8833v-136.5932h24.5865m203.25-6.2837 24.3134 32.5092v98.6206h-24.3134v-131.1298m30.0507 131.4028v-131.6758l77.3116 108.728-32.7823 49.1744-15.8447-23.2212 21.0352-26.772-27.3184-34.6948 0.033 58.4233-22.4346 0.038m-97.5273 0.8193c-35.1543 0-63.6533-28.4975-63.6533-63.6523 0-35.1543 28.499-63.6524 63.6533-63.6524s63.6533 28.4981 63.6533 63.6524c0 35.1548-28.499 63.6523-63.6533 63.6523m38.1914-63.6523c0-21.0928-17.0986-38.1914-38.1914-38.1914s-38.1924 17.0986-38.1924 38.1914 17.0996 38.1914 38.1924 38.1914 38.1914-17.0986 38.1914-38.1914z" fill="url(#linearGradient18)"/><g fill="#fff"><path id="path38" d="m754.957 1113.231h-4.7666l86.32568 122.6035-3.44238-13.2403-78.1167-109.3632z"/><path id="path40" d="m838.8994 1216.504h23.30274l4.23681 4.2368h-27.2749l-0.26465-4.2368z"/><path id="path42" d="m867.7627 1204.588 14.29931 19.0654v-8.209l-14.03418-18.5361-0.26513 7.6797z"/><path id="path44" d="m868.0278 1171.752-3.97217-9.5328 14.56397 15.0938h-6.35498l-4.23682-5.561z"/><path id="path46" d="m908.8076 1221.535h31.24658l-3.97217-5.2964h-23.0376l-4.23681 5.2964z"/><path id="path48" d="m938.2002 1161.16 3.97216 11.6513 26.21534 34.9541v-6.0903l-30.1875-40.5151z"/><path id="path50" d="m978.9473 1112.546 78.26223 110.7808 1.1924 7.371-81.731-114.7915 2.27637-3.3603z"/><path id="path52" d="m1128.064 1215.444h25.4219l4.7656 4.5019h-34.9531l4.7656-4.5019z"/><path id="path54" d="m1158.84 1177.783s12.9756 43.957 70.4375 41.5737c-0.5292-2.1181-1.3232-4.7666-1.3232-4.7666s-45.5459 6.0908-66.7305-41.5737c-1.3242 2.1182-2.3838 4.7666-2.3838 4.7666z"/><path id="path56" d="m1285.091 1217.828h57.9912l20.92 27.8042v-7.1494l-17.4776-25.686h-56.1377l-5.2959 5.0312z"/><path id="path58" d="m1347.584 1168.31 15.0937 19.0659h6.0899l-24.626-31.5117 3.4424 12.4458z"/></g></g></svg>
