<?xml version="1.0" encoding="utf-8"?>
<!-- Generator: Adobe Illustrator 13.0.2, SVG Export Plug-In . SVG Version: 6.00 Build 14948)  -->
<!DOCTYPE svg PUBLIC "-//W3C//DTD SVG 1.0//EN" "http://www.w3.org/TR/2001/REC-SVG-20010904/DTD/svg10.dtd">
<svg version="1.0" id="Ebene_1" xmlns="http://www.w3.org/2000/svg" xmlns:xlink="http://www.w3.org/1999/xlink" x="0px" y="0px"
	 width="561.465px" height="209.08px" viewBox="0 0 561.465 209.08" enable-background="new 0 0 561.465 209.08"
	 xml:space="preserve">
<path fill-rule="evenodd" clip-rule="evenodd" fill="#E2001A" d="M142.066,39.353c9.478-1.169,18.226,3.366,23.846,10.737
	c1.916,17.796,2.372,36.549,9.507,53.326c0.444,1.046,0.091,2.409,0.056,3.646c-4.68-7.236-9.482-14.096-16.323-19.793
	c-0.601-0.498-2.26-0.712-2.542,0.696c-0.431,2.158-0.845,4.564-0.003,6.334c12.416,26.105,26.701,50.269,41.304,74.744
	c2.314,9.202,5.259,18.955,0.75,27.75c-7.313,14.262-26.171,14.804-38.785,5.473c-1.825-1.351-3.479-2.856-4.389-4.767
	c-5.722-11.991-12.117-24.082-12.171-37.418c5.626,7.137,12.842,12.501,21.045,16.104c2.07,0.908,4.956,1.025,6.431-1.395
	c-18.984-27.469-41.445-52.896-52.25-85.2c-3.873-11.578-3.639-24.114,1.922-35.086c0.773-1.523,1.847-3.015,2.902-4.535
	c2.457-3.539,5.607-6.3,9.415-8.02C135.695,40.635,138.815,39.754,142.066,39.353L142.066,39.353z"/>
<path fill-rule="evenodd" clip-rule="evenodd" fill="#E2001A" d="M172.523,4.645L171.933,0h38.109c0,0-0.483,24.791,1.8,36.501
	c12.705,0.892,25.403-0.754,38.109,0.135c-7.953,11.546-17.013,23.928-16.882,38.572c-5.298,0.067-11.319-1.167-15.841,1.417
	c0.057,27.419,5.594,53.251,10.475,81.221c1.176,6.738,2.808,12.636,5.459,18.627c0.507,1.146,1.796,2.689,2.495,2.546
	c2.446-0.504,4.828-2.109,6.709-4.084c2.065,5.678,3.902,11.253,5.536,17.042c1.402,4.972-4.106,9.363-8.36,12.442
	c-3.198,2.314-6.357,2.824-10.216,3.41c-4.591,0.697-8.155-1.585-11.695-4.181c-7.214-5.294-8.703-13.614-11.246-21.51
	C182.153,106.901,172.523,4.645,172.523,4.645L172.523,4.645z"/>
<path fill-rule="evenodd" clip-rule="evenodd" fill="#E2001A" d="M275.315,27.12c4.835-6.59,9.44-12.896,16.311-17.656
	c11.452,0.62,22.913-0.527,34.368,0c-4.98,5.615-9.12,12.4-14.429,17.739C303.515,26.978,276.329,27.082,275.315,27.12
	L275.315,27.12z"/>
<path fill-rule="evenodd" clip-rule="evenodd" fill="#E2001A" d="M328.028,36.668c12.668-0.653,37.424,0,37.424,0
	s-3.141,9.198-0.606,13.406c5.625-4.992,11.874-8.952,18.914-11.556c-2.947,15.306-8.818,29.851-11.49,45.229
	c-7.45,0.415-16.649,1.919-18.372,9.806c-8.432,38.603-19.447,112.973-19.447,112.973h-21.39
	C313.06,206.525,313.59,147.814,328.028,36.668L328.028,36.668z"/>
<path fill-rule="evenodd" clip-rule="evenodd" fill="#E2001A" d="M419.126,70.184c-11.156-0.835-22.304,0.013-33.463-0.006
	c3.126-11.065,4.559-22.894,9.293-33.51c12.088,0.731,24.167-1.015,36.252,0C427.634,45.917,421.453,65.675,419.126,70.184
	L419.126,70.184z"/>
<path fill-rule="evenodd" clip-rule="evenodd" fill="#E2001A" d="M351.193,206.525c4.444-25.617,11.382-50.297,17.918-76.389
	c4.26-17.007,8.511-33.472,13.705-49.582c10.512-1.589,31.383-0.284,31.383-0.284s-1.245,4.217-1.957,6.476
	c-12.908,40.774-25.289,80.023-38.754,119.779H351.193L351.193,206.525z"/>
<path fill-rule="evenodd" clip-rule="evenodd" fill="#E2001A" d="M436.576,36.668h37.652c0,0-2.804,16.617-2.584,25.455
	l22.562-25.455h44.61l-68.698,80.024c0,0-1.125,57.34,5.634,89.833h-22.33c0,0-9.671-36.188-10.828-52.954
	c0,0-26.698,32.804-37.485,52.954h-24.879c0,0,22.468-47.329,57.044-95.399C437.273,111.126,434.613,57.064,436.576,36.668
	L436.576,36.668z"/>
<path fill-rule="evenodd" clip-rule="evenodd" fill="#E2001A" d="M276.417,37.61c15.327,0.428,38.035,27.788,36.274,90.719
	c0,0-0.75,10.204-2.537,15.964l-35.37,9.935c0,0,1.991,20.613,7.796,20.435c3.955-0.12,4.228-9.876,4.228-9.876l21.738-4.503
	c0,0-8.35,49.269-29.249,48.683c-20.899-0.583-39.229-59.892-37.963-105.174C242.601,58.51,262.252,37.213,276.417,37.61
	L276.417,37.61z M270.606,112.512c-0.306,10.913,1.796,18.873,1.796,18.873c8.593,0.24,13.397-5.435,13.397-5.435
	c0.352-12.539-3.863-36.362-8.972-36.505C272.881,89.335,270.911,101.597,270.606,112.512L270.606,112.512z"/>
<path fill-rule="evenodd" clip-rule="evenodd" fill="#E2001A" d="M100.926,16.666c0.762,42.069,18.53,125.254,43.853,189.86
	c-9.612-0.454-28.821,0-28.821,0l-17.461-39.331l-14.188,3.967l9.382,35.364H67.658c0,0-6.47-16.743-10.472-24.683
	c-20.149,5.988-39.437,15.7-56.981,27.237c-0.709-14.569,0.709-29.142,0-43.708c8.077-7.438,45.697-16.828,45.589-17.238
	c-9.655-36.27-18.886-71.139-21.943-108.507c-0.057-0.702-0.804-1.271-1.696-0.965c-7.069,2.423-21.949,4.951-21.949,4.951V3.716
	c0,0,78.461-0.338,101.083,0C101.14,8.982,100.831,11.392,100.926,16.666L100.926,16.666z M78.004,101.558
	c-6.267-18.381-8.826-37.301-12.357-56.128c-0.706,8.569-0.787,21.552-0.343,28.302c1.689,25.742,6.103,42.721,11.602,67.761
	c4.499-0.308,13.025-1.482,13.025-1.482S82.372,114.372,78.004,101.558L78.004,101.558z"/>
<path fill-rule="evenodd" clip-rule="evenodd" fill="#E2001A" d="M544.379,45.993c0-4.84,3.926-8.41,8.566-8.41
	c4.594,0,8.52,3.57,8.52,8.41c0,4.884-3.926,8.452-8.52,8.452C548.305,54.445,544.379,50.877,544.379,45.993L544.379,45.993z
	 M552.946,53.041c3.812,0,6.823-2.99,6.823-7.047c0-3.993-3.012-7.005-6.823-7.005c-3.861,0-6.87,3.012-6.87,7.005
	C546.076,50.051,549.084,53.041,552.946,53.041L552.946,53.041z M551.159,50.877h-1.471v-9.724h3.703
	c2.297,0,3.434,0.847,3.434,2.766c0,1.739-1.093,2.498-2.52,2.676l2.766,4.282h-1.649l-2.566-4.216h-1.696V50.877L551.159,50.877z
	 M552.922,45.413c1.248,0,2.364-0.089,2.364-1.583c0-1.206-1.093-1.428-2.118-1.428h-2.01v3.012H552.922L552.922,45.413z"/>
</svg>
