<?xml version="1.0" encoding="UTF-8" standalone="no"?>
<!-- Created with Inkscape (http://www.inkscape.org/) -->

<svg
   version="1.1"
   viewBox="0 0 219.7 109.3"
   id="svg16"
   sodipodi:docname="Ayrton Senna-w.svg"
   inkscape:version="1.1.2 (0a00cf5339, 2022-02-04)"
   xmlns:inkscape="http://www.inkscape.org/namespaces/inkscape"
   xmlns:sodipodi="http://sodipodi.sourceforge.net/DTD/sodipodi-0.dtd"
   xmlns="http://www.w3.org/2000/svg"
   xmlns:svg="http://www.w3.org/2000/svg"
   xmlns:rdf="http://www.w3.org/1999/02/22-rdf-syntax-ns#"
   xmlns:cc="http://creativecommons.org/ns#"
   xmlns:dc="http://purl.org/dc/elements/1.1/">
  <sodipodi:namedview
     id="namedview18"
     pagecolor="#ffffff"
     bordercolor="#666666"
     borderopacity="1.0"
     inkscape:pageshadow="2"
     inkscape:pageopacity="0.0"
     inkscape:pagecheckerboard="0"
     showgrid="false"
     inkscape:zoom="5.8352299"
     inkscape:cx="109.76431"
     inkscape:cy="54.66794"
     inkscape:window-width="1920"
     inkscape:window-height="1011"
     inkscape:window-x="1920"
     inkscape:window-y="32"
     inkscape:window-maximized="1"
     inkscape:current-layer="svg16" />
  <defs
     id="defs2" />
  <metadata
     id="metadata4">
    <rdf:RDF>
      <cc:Work
         rdf:about="">
        <dc:format>image/svg+xml</dc:format>
        <dc:type
           rdf:resource="http://purl.org/dc/dcmitype/StillImage" />
      </cc:Work>
    </rdf:RDF>
  </metadata>
  <g
     fill-rule="evenodd"
     transform="translate(1677.9812,-367.55835)"
     fill="#231f20"
     id="g14"
     style="fill:#ffffff">
    <path
       d="m-1660,436.7c-0.8477-6.485,3.973,0.5023,3.007-8.137,0.6047-3.346,1.182-13.86,6.07-13.97,4.489,1.133,2.436,10.37,2.656,10.42-0.6282,1.96,0.9209,2.669,2.532,2.207,0.7314-0.5933,4.631-2.435,4.561-2.095,1.507,0.3258,1.934,1.593,2.847,1.791l1.91-1.734c1.887-6.729,5.963-3.642,5.894-1.546l-0.2064,4.327c0.1636-0.3397,2.832-3.91,3.748-7.487,0.5103-1.995,2.254-2.669,2.26-2.696,0.8631-0.4591,1.863-0.4802,2.999-0.063,1.287,1.299-0.4115,5.866,1.262,5.645l1.053,0.0524c0.049-0.2386,1.732-1.186,2.089-1.427,0.079-0.3852,0.1579-0.9138,0.6267-0.8127,1.915-9.295,2.889-21.48,3.824-33.07l1.026-5.926c1.21-2.597,4.313-2.584,3.619,0.141l-2.692,24.43c-0.2584,2.347,0.9098,4.093-0.1352,7.108,0.109,0.8333,0.5427,0.9182,1.3,0.2558,1.86-1.928,8.229-7.893,10.04-2.465l0.9799,0.3716c0.1398-1.854,0.9535-7.395,3.821-4.01,1.016,1.2,1.77,3.93,3.636,5.194,3.775,2.556,9.372-3.189,10.14-2.171,2.015,0.2574,2.55,1.666,0.9255,4.755-2.246,2.292-10.15,4.929-12.54,2.406-0.3135-0.3314-1.501-1.175-1.407-1.629-1.227-0.543-1.967-0.7397-2.18-0.6567-0.1827,3.293-6.488,4.274-6.971,0.4688l-1.397,0.004c-0.4233,0.2843-1.096,0.9475-1.225,1.571,0.3241,0.5784,0.436,0.6072,0.314,1.823,0.6314,0.1363-0.1837,4.566-0.5789,5.079-1.269,2.682-4.695,1.567-4.469,0.4661-0.057-0.833-1.526-1.736-1.784,0.3537-2.468,15.2-1.663,23.32-2.859,40.72-0.1486,2.161-3.11,1.166-3.226-1.043-0.5588-10.63,1.574-27.73,2.082-35.35-0.5159-1.802-1.035-1.06-1.781-0.5989-2.134,1.319-4.736,0.5395-5.972-1.218-13.23,10.16-0.2527,19.31-5.55,38.52l-0.22-0.0477c-3.192,6.487-10.57,5.945-12.11-1.433-1.466-10.82,3.879-21.23,4.201-22.79,0.1583-0.3957,4.904-8.421,3.442-8.737l-0.2085-1.905c-2.649,0.0787-4.072,0.8028-7.771-0.1479-3.201,2.153-5.455,1.471-6.446,6.282-0.4009,16.64-2.491,16.32-4.635,13.72-1.654-2.01,0.1482-8.09,0.9622-12.61-0.201-2.173-1.59,1.522-2.643,3.221-0.6659,1.42-2.648,7.123-10.7,3.371-1.03-0.178-1.241-1.328-0.633-3.45,5.991,0.5045,9.27-2.226,6.503-5.468zm7.717-15.91c-1.104,2.204-0.968,4.851-1.174,7.505,0.7996,2.515-0.9186,2.108,1.887,1.653,0.6074-3.174,0.6909-6.286,0.537-9.368-0.4167,0.0699-0.8334,0.1395-1.25,0.209zm18.5,22.63c-0.3271,1.588-3.183,5.148-4.338,16.97,0.2957,8.405,4.59,4.994,5.419-0.3043,0.7546-4.824,0.06-13.9-1.081-16.66"
       id="path6"
       style="fill:#ffffff" />
    <path
       d="m-1605,392c11.53-9.041,23.45-15.87,36.08-18.75,2.587,0.2854,3.122,1.886,1.575,4.95-11.39,2.629-24.06,9.635-37.43,18.98-1.751,0.1567-1.828-1.57-0.2305-5.181"
       id="path8"
       style="fill:#ffffff" />
    <path
       d="m-1556,402.9c-2.959-4.129-6.369-6.559-10.09-7.825-1.544-0.1959-1.874-0.8395-0.9904-1.934,4.064-3.829,6.342-5.125,12.03-7.177,2.099-0.8966-0.3995-5.557-3.26-4.392-8.207,3.797-14.78,6.44-15.44,14.14-0.012,1.939,1.474,3.31,4.457,4.115,19.45,4.472,11.27,40.91,7.878,44.39-8.034,8.748-3.529-16.62-1.357-17.97,1.676-1.614-1.017-6.469-2.821-3.699-11.83,22.24-1.024,38.16,9.262,22.2,5.263-11.41,5.197-31.21,1.729-38.73-0.035-1.216,0.048-2.071,1.728-1.7,3.376,4.186,5.807,4.5,7.638,0.1981,0.3079-0.8406,1.643-0.9234,2.445-0.3369,2.944,2.194,5.125,1.13,6.785-2.161,0.2687-0.6716,0.5776-0.5529,1.251-0.197,3.867,0.9078,5.592-1.5,5.837-6.579-0.077-1.37-1.462-2.37-2.712-0.9895-1.418,1.747-2.451,1.079-3.667-1.175-1.076-2.038-3.893-0.6548-3.926,3.661-0.01,0.9536-1.452,1.194-1.358-0.15,1.381-4.228-3.924-5.042-4.491,0.6749,0.077,1.894-4.064,7.144-1.61-0.4242,0.497-4.672-4.873-3.76-6.686,2.182-0.017,0.2933-1.839,5.244-2.639,3.887"
       id="path10"
       style="fill:#ffffff" />
    <path
       d="m-1534,387.4c1.202-2.361,5.094-3.665,7.374-2.32,2.094,0.7634,0,6.633,3.933,1.555,0.4713-0.6078,0.5798-2.816,4.717,2.511,1.472,1.169,3.943-1.081,3.679-2.315-0.095-4.184,0.9425-7.206,2.006-8.391,2.8-2.231,4.842-1.655,7.385,0.497,0.8686,0.807,1.329,0.9839,2.657,5.302,2.794,4.794,21.4-3.409,28.36-7.711,5.439-2.882,4.098,3.647,2.057,4.169-12.04,6.187-19.8,10.79-33.7,9.632-1.846-0.9279-5.593,0.0358-7.301,1.579-2.144,2.917-3.47,3.93-7.782,1.717-0.8931-0.741-1.358-0.2362-1.686,0.3235-1.865,3.164-5.084,4.25-5.499,0.422-0.1881-1.735-0.8966-5.704-3.137-4.303-1.761,0.6156-4.271-1.261-3.06-2.667zm26.37-5.713c0.4511,0.2317,0.4018,1.274-0.1086,2.32-0.5104,1.045-1.293,1.708-1.743,1.475-0.4499-0.2306-0.4018-1.274,0.1075-2.319,0.5115-1.045,1.295-1.708,1.744-1.476"
       id="path12"
       style="fill:#ffffff" />
  </g>
</svg>
