<?xml version="1.0" encoding="UTF-8" standalone="no"?>
<!-- Created with Inkscape (http://www.inkscape.org/) -->

<svg
   version="1.1"
   viewBox="0 0 219.7 109.3"
   id="svg16"
   sodipodi:docname="Batman-w.svg"
   inkscape:version="1.1.2 (0a00cf5339, 2022-02-04)"
   xmlns:inkscape="http://www.inkscape.org/namespaces/inkscape"
   xmlns:sodipodi="http://sodipodi.sourceforge.net/DTD/sodipodi-0.dtd"
   xmlns="http://www.w3.org/2000/svg"
   xmlns:svg="http://www.w3.org/2000/svg"
   xmlns:rdf="http://www.w3.org/1999/02/22-rdf-syntax-ns#"
   xmlns:cc="http://creativecommons.org/ns#"
   xmlns:dc="http://purl.org/dc/elements/1.1/">
  <sodipodi:namedview
     id="namedview18"
     pagecolor="#ffffff"
     bordercolor="#666666"
     borderopacity="1.0"
     inkscape:pageshadow="2"
     inkscape:pageopacity="0.0"
     inkscape:pagecheckerboard="0"
     showgrid="false"
     inkscape:zoom="1.8602297"
     inkscape:cx="123.10308"
     inkscape:cy="74.721954"
     inkscape:window-width="1920"
     inkscape:window-height="1011"
     inkscape:window-x="1920"
     inkscape:window-y="32"
     inkscape:window-maximized="1"
     inkscape:current-layer="svg16" />
  <defs
     id="defs2" />
  <metadata
     id="metadata4">
    <rdf:RDF>
      <cc:Work
         rdf:about="">
        <dc:format>image/svg+xml</dc:format>
        <dc:type
           rdf:resource="http://purl.org/dc/dcmitype/StillImage" />
      </cc:Work>
    </rdf:RDF>
  </metadata>
  <path
     d="M 216.83449,87.491618 C 216.61106,86.865507 211.2265,72.035273 197.22005,61.156905 183.6052,50.581767 164.97164,43.606154 147.05628,37.369603 130.69391,31.671994 120.51286,25.153074 111.48459,18.963169 l -2.66528,-1.82677 1.11964,3.032342 c 0.0133,0.03684 0.82867,2.301877 0.82867,5.265468 0,1.812038 -0.30446,3.885572 -1.28413,5.871938 -1.60089,3.245957 -4.68602,5.61781 -9.15227,7.065232 l -1.243634,-0.43214 c 0.142468,-0.279907 0.28851,-0.60033 0.435835,-0.99441 0.464055,-1.238722 1.572629,-3.416602 2.168049,-4.586569 l 0.29586,-0.583143 0.5144,-0.840956 c 0.30816,-0.454235 0.62611,-0.923204 0.78448,-1.554225 a 4.8542006,4.8542006 0 0 0 0.0933,-1.467066 c 0.18661,-0.195196 0.41986,-0.418633 0.63594,-0.562272 0.66171,-0.440732 0.91584,-1.098762 0.95757,-1.64139 0.21729,-0.534038 0.72923,-2.08581 0.90233,-5.130428 0.25905,-0.874099 1.99497,-6.852844 2.12387,-10.53094 0.0895,-1.8292244 -0.27498,-2.4762055 -0.71818,-2.5167191 -0.43828,-0.039288 -0.88882,0.7857084 -1.23504,1.5259919 0,0 -1.0914,2.4418322 -2.35588,4.5963902 -0.96864,-1.292734 -2.70457,-3.077764 -5.293723,-3.8241863 C 95.46591,8.9846803 93.598627,9.0767549 92.335371,9.2977359 a 72.66569,72.66569 0 0 1 -0.05405,-2.6775447 c 0,-1.3762157 0.163323,-3.8069997 0.163323,-3.8069997 0.135129,-1.7690706 0.155982,-2.48111711 -0.125286,-2.5510956 -0.327796,-0.0822619 -0.540183,0.17924114 -0.933025,0.7525619 -0.135128,0.1976537 -0.729246,1.04229 -0.729246,1.04229 -0.07608,0.106802 -1.890605,2.6529913 -3.587241,6.8307465 A 500.45534,500.45534 0 0 1 82.773008,19.14732 c -1.519851,3.518496 -3.272975,6.277068 -4.900862,7.749043 -1.546861,-1.366396 -5.617798,-5.509777 -6.749711,-12.11095 L 70.698881,12.31289 69.264978,14.374145 C 69.224439,14.433067 65.01724,20.340612 50.033543,29.885733 35.134561,39.37684 7.4027593,57.044215 3.0617247,81.685976 L 2.4208812,85.32233 4.8492096,82.539206 C 5.3034483,82.018675 16.165855,69.862301 33.496851,75.137591 c 8.501605,2.586697 15.560696,12.533268 16.820285,20.200054 l 0.35357,2.154561 1.435143,-1.646302 c 0.09699,-0.110489 9.836071,-11.076023 24.328707,-10.839083 13.655354,0.223433 23.813094,6.606083 30.194494,18.967469 l 0.88884,1.72243 0.92811,-1.70278 c 0.0774,-0.14364 7.93688,-14.261826 24.00215,-16.761358 17.87976,-2.781895 29.29586,9.345012 30.53826,10.73596 l 1.12699,1.26204 0.60156,-1.582463 c 0.0527,-0.136263 5.38087,-13.717965 21.16009,-17.394834 10.37257,-2.418505 20.47997,0.444418 29.2271,8.279397 l 3.07901,2.756115 z"
     fill="#fff22d"
     id="path4"
     style="stroke-width:1.22767" />
  <path
     d="m 70.113388,14.959742 c 0,0 -4.102867,5.970154 -19.52361,15.793954 -15.421971,9.825029 -42.2845805,27.110602 -46.5126706,51.112746 0,0 11.5106186,-13.253907 29.7230776,-7.710983 8.580174,2.612478 16.165937,12.685494 17.534786,21.017681 0,0 9.949028,-11.440643 25.120555,-11.192653 15.171518,0.249218 25.121764,7.958974 31.090704,19.524843 0,0 7.95774,-14.674326 24.74734,-17.285575 16.78958,-2.612476 28.35422,7.585764 31.4639,11.06743 0,0 5.34896,-14.177114 21.88933,-18.03199 16.54039,-3.856107 27.85457,6.466125 30.21906,8.58017 0,0 -5.3465,-15.04753 -19.27561,-25.86697 -13.92914,-10.819445 -33.082,-17.782778 -49.86912,-23.628938 -16.7896,-5.844927 -27.11184,-12.560272 -35.81601,-18.529198 0,0 5.47296,14.674321 -10.57145,19.648832 l -2.860461,-0.995639 c 0,0 0.511939,-0.338835 1.090158,-1.880786 0.578233,-1.54318 2.056343,-4.369273 2.506913,-5.269154 0.45055,-0.899882 1.02755,-1.413044 1.22153,-2.184022 0.19273,-0.770974 0,-1.541952 0,-1.541952 0,0 0.57824,-0.707133 1.15645,-1.092624 0.57824,-0.385489 0.51317,-1.027558 0.51317,-1.027558 0,0 0.70715,-1.413046 0.89988,-5.076408 0,0 2.18402,-7.260431 2.1202,-10.9225658 0,0 -1.60581,3.6621348 -3.27665,6.1039658 0,0 -1.79855,-3.662134 -5.589587,-4.754759 -3.791036,-1.0926252 -5.654632,-0.513165 -6.746041,-0.256582 0,0 -0.32164,-5.3968309 0.127622,-7.9037294 0,0 -1.798534,2.5068985 -3.469396,6.6183605 A 503.23475,503.23475 0 0 1 83.722031,19.556133 c -1.220316,2.82732 -3.34049,6.876169 -5.847383,8.674703 -0.0012,-0.0012 -6.268485,-4.565697 -7.761327,-13.271094 z"
     id="path6"
     style="stroke-width:1.22767" />
  <path
     d="m 94.130268,26.816564 c 0,0 -0.770986,-1.124547 -4.079545,-4.530096 0,0 0,1.317287 0.61015,2.312929 -0.0012,0 2.440613,2.023195 3.469395,2.217167 z m 4.240366,1.444966 c 0,0 3.147736,-1.476884 3.566376,-1.444966 0,0 -0.54631,1.124543 -0.89988,1.349208 0,0 -1.638933,0.352341 -2.666496,0.09576 z"
     fill="#ffffff"
     id="path8"
     style="stroke-width:1.22767" />
  <path
     d="m 95.478238,32.471204 c 0,0 0.611384,-2.474977 1.253464,-3.951863 0,0 -0.836049,-0.16082 -1.188384,-0.513166 0,0 -0.899893,1.284141 -2.955006,2.120182 0,-0.0012 1.798535,1.187155 2.889926,2.344847 z m 3.27788,-5.269152 c 0,0 1.541962,-0.353569 2.537592,-1.188383 0.99687,-0.834814 1.51004,-1.156465 1.73471,-0.963718 0.22464,0.192744 0.25657,0.546309 0.12895,0.642066 0,0 0.44933,-0.353565 0.35357,-0.673987 -0.0958,-0.320424 -0.48246,-0.546313 -0.64206,-0.770974 -0.15965,-0.225893 -0.28973,-0.482476 -0.77099,0.03191 -0.48246,0.513167 -2.185236,2.729107 -3.341703,2.92308 z m -13.107815,5.331766 c 0,0 -0.931806,-2.088266 -0.931806,-2.730336 0,-0.64207 0.159653,-1.927438 -0.09692,-2.152104 0,0 -0.127621,0.802896 -0.288509,1.510034 -0.16082,0.707134 -0.32164,1.188382 -0.35357,1.607015 -0.03186,0.418637 -0.0639,1.413049 0.19275,1.92744 0,0 -2.731558,-1.381127 -4.818601,-3.083904 0,0 2.505677,-2.217168 3.951856,-5.461895 1.44498,-3.244728 2.217185,-4.595162 3.11706,-7.325497 0.898658,-2.730335 3.115825,-7.9675676 3.725974,-9.2848569 0,0 -0.256578,6.5864409 1.060697,11.7266889 0,0 0.513172,0.06385 1.220314,0.03191 0.707125,-0.03191 0.96372,-0.16082 1.027548,0.707137 0.06506,0.867963 0.225899,3.918717 1.027565,5.653414 0,0 -0.642064,-0.481249 -1.156471,-2.056346 -0.514391,-1.573869 -1.285361,-3.566375 -1.285361,-3.566375 0,0 -1.092626,0.06506 -1.831682,0.385487 -0.739056,0.321648 -1.702776,0.642071 -2.376769,0.449327 0,0 0.449329,4.433109 0.09576,5.525735 0,0 -1.253447,-1.027558 -1.541956,-1.188383 0,0 0.09576,2.473751 0,3.276644 -0.09576,0.804123 -0.801665,3.792274 -0.737821,4.048852 z"
     fill="#2566af"
     id="path10"
     style="stroke-width:1.22767" />
  <path
     d="m 92.36243,12.776947 0.843405,2.967275 a 0.33515345,0.33515345 0 0 0 0.02703,-0.0087 l 0.09325,-3.119506 0.770969,2.730334 0.192751,-2.666494 0.705907,2.537589 0.128957,-2.441831 0.707125,2.344845 0.09692,-2.27978 0.673994,2.27978 0.09692,-2.120184 0.64208,2.184023 0.128956,-1.959358 0.61015,2.056345 0.09576,-1.798536 0.578237,1.92744 0.128954,-1.607018 0.578234,1.992507 v -1.637711 l 0.610151,1.863601 0.0319,-1.413045 0.45056,1.702775 0.0319,-1.25345 0.5144,1.637711 -0.0319,-1.22153 0.48248,1.766614 -0.0319,-1.124545 0.41742,1.510034 0.0639,-0.899882 0.22467,1.124545 0.12895,-0.513167 0.11295,1.02756 c 0.93917,1.297645 1.2952,2.503216 1.2952,2.503216 -0.0614,-2.379223 -0.60034,-5.421385 -4.283347,-7.655741 -3.682995,-2.234357 -8.069466,-0.972314 -8.069466,-0.972314 0.06873,0.775886 0.622428,3.383454 0.715733,3.810684 z m 20.97962,10.570226 c 0,0 6.16658,9.766102 29.2983,20.046598 0,0 9.89623,7.838664 23.38831,11.308055 13.49454,3.469388 38.42479,12.978909 47.03321,28.914046 0,0 -3.4694,-8.353058 -20.43209,-17.475859 -16.96146,-9.125263 -27.11429,-9.381846 -35.72514,-12.722332 -8.61087,-3.340484 -8.61087,-5.782317 -15.16416,-9.124033 -6.55329,-3.34171 -24.41587,-13.107811 -28.39843,-20.946475 z"
     fill="#2566af"
     id="path12"
     style="stroke-width:1.22767" />
  <path
     d="m 102.54716,40.30864 c 0,0 10.27925,2.956225 22.87515,6.167807 12.59342,3.212807 30.06804,6.682197 40.34978,8.867448 0,0 -14.77745,-4.369273 -27.37334,-7.324272 -12.59341,-2.956225 -27.75635,-6.040128 -33.92415,-8.609638 0,0 -1.28537,0.642072 -1.92744,0.898655 z m 61.03967,52.81675 c 0,0 -1.02878,-7.582079 -8.48073,-14.649769 C 147.6517,71.407937 131.07573,63.31146 112.56984,54.8295 94.065189,46.348767 77.231417,38.767916 71.191284,23.860338 c 0,0 0.385484,6.425616 9.380606,14.520862 8.996356,8.096475 17.99026,11.951353 41.37979,23.259405 23.38831,11.309284 34.95296,14.008925 41.63515,31.484785 z"
     fill="#2566af"
     id="path14"
     style="stroke-width:1.22767" />
  <path
     d="m 69.520422,19.10558 c 0,0 -2.056347,10.281721 -7.324277,22.617332 C 56.927,54.058527 49.602732,68.322805 51.530171,91.069043 c 0,0 -0.511939,-9.192779 2.570738,-23.130497 2.954999,-13.365629 7.709752,-20.047827 10.665974,-29.557346 2.95624,-9.509518 4.369272,-16.620175 4.369272,-16.620175 0,0 -0.942833,7.196593 2.056347,14.735704 2.997979,7.539113 13.8788,21.802163 22.35953,30.797292 8.480728,8.995123 13.878798,21.331965 14.264288,31.613691 0,0 0.25781,-7.967572 -2.56952,-15.293067 C 102.41948,76.289144 97.151553,68.322805 92.524469,63.053649 87.896166,57.786953 66.822013,40.052057 69.520422,19.10558 Z"
     fill="#2566af"
     id="path16"
     style="stroke-width:1.22767" />
  <path
     d="m 199.42493,39.146037 0.005,-0.01601 -0.015,0.0012 0.002,-0.01601 h -0.015 l 0.002,-0.01468 h -0.015 l 0.005,-0.01601 h -0.0172 l 0.005,-0.01468 h -0.0172 l 0.005,-0.01601 -0.0172,0.0012 0.005,-0.01601 h -0.0172 l 0.005,-0.01602 -0.0172,0.0012 0.005,-0.01601 -0.015,0.0012 0.002,-0.01602 h -0.015 l 0.005,-0.01468 h -0.0172 l 0.005,-0.01601 h -0.0172 l 0.005,-0.01468 h -0.0172 l 0.005,-0.01601 -0.0172,0.0012 0.005,-0.01601 -0.0172,0.0012 0.005,-0.01601 -0.015,0.0012 0.002,-0.01601 h -0.015 l 0.005,-0.01601 h -0.0172 l 0.005,-0.01468 h -0.0172 l 0.005,-0.01601 -0.0172,0.0012 0.005,-0.01601 -0.0172,0.0012 0.005,-0.01601 h -0.0172 l 0.007,-0.01601 -0.0172,0.0012 0.005,-0.01601 h -0.0172 l 0.005,-0.01602 h -0.0172 l 0.005,-0.01601 -0.0172,0.0012 0.005,-0.01601 h -0.0172 l 0.005,-0.01602 h -0.0172 l 0.005,-0.01601 -0.015,0.0012 0.002,-0.01601 h -0.0172 l 0.007,-0.01601 h -0.0172 l 0.005,-0.01601 -0.0172,0.0012 0.005,-0.01601 h -0.0172 l 0.005,-0.01601 -0.0172,0.0012 0.005,-0.01601 -0.0172,0.0012 0.005,-0.01601 h -0.015 l 0.002,-0.01601 -0.015,0.0012 0.005,-0.01601 h -0.0172 l 0.005,-0.01601 -0.0172,0.0012 0.005,-0.01601 -0.0172,0.0012 0.005,-0.01601 h -0.0172 l 0.005,-0.01601 h -0.0172 l 0.005,-0.01601 -0.015,0.0012 0.002,-0.01601 h -0.015 l 0.005,-0.01601 h -0.0172 l 0.005,-0.01601 -0.0172,0.0012 0.005,-0.01601 h -0.0172 l 0.005,-0.01601 -0.0172,0.0012 0.005,-0.01601 h -0.0172 l 0.005,-0.01601 h -0.015 l 0.002,-0.01468 h -0.015 l 0.002,-0.01602 h -0.015 l 0.005,-0.01468 h -0.0172 l 0.005,-0.01601 -0.0172,0.0012 0.005,-0.01601 h -0.0172 l 0.005,-0.01601 h -0.0172 l 0.005,-0.01468 h -0.0172 l 0.007,-0.01601 h -0.0172 l 0.002,-0.01601 h -0.015 l 0.005,-0.01601 -0.0172,0.0012 0.005,-0.01602 h -0.0172 l 0.005,-0.01601 h -0.0172 l 0.005,-0.01601 -0.015,0.0012 0.002,-0.01601 h -0.015 l 0.005,-0.01601 h -0.0172 l 0.005,-0.01601 -0.0172,0.0012 0.005,-0.01601 h -0.0172 l 0.005,-0.01468 h -0.0172 l 0.005,-0.01601 h -0.0172 l 0.005,-0.01601 -0.015,0.0012 0.002,-0.01602 h -0.015 l 0.005,-0.01601 -0.0172,0.0012 0.005,-0.01601 h -0.0172 l 0.005,-0.01601 -0.0172,0.0012 0.005,-0.01602 h -0.0172 l 0.005,-0.01601 h -0.0172 l 0.005,-0.01602 -0.015,0.0012 0.002,-0.01601 h -0.015 l 0.002,-0.01601 h -0.015 l 0.005,-0.01601 -0.0172,0.0012 0.005,-0.01601 -10.42044,0.482475 -3.98502,13.908253 -3.985,-12.297552 h -0.007 l -0.005,-0.01468 h -0.005 l -0.005,-0.01468 h -0.007 l -0.005,-0.01601 h -0.007 l -0.005,-0.01468 h -0.005 l -0.005,-0.01601 h -0.007 l -0.005,-0.01468 h -0.007 l -0.005,-0.01601 h -0.007 l -0.005,-0.01468 h -0.005 l -0.005,-0.01468 h -0.007 l -0.005,-0.01468 h -0.007 l -0.005,-0.01601 h -0.005 l -0.007,-0.01468 h -0.005 l -0.005,-0.01468 h -0.007 l -0.005,-0.01468 h -0.007 l -0.005,-0.01468 h -0.005 l -0.005,-0.01468 h -0.007 l -0.005,-0.01601 h -0.007 l -0.005,-0.01468 h -0.007 l -0.005,-0.01468 h -0.005 l -0.005,-0.01468 h -0.007 l -0.005,-0.01468 h -0.007 l -0.005,-0.01468 h -0.005 l -0.005,-0.01601 h -0.007 l -0.005,-0.01468 h -0.007 l -0.005,-0.01468 h 0.0208 l -0.005,-0.01468 h -0.005 l -0.005,-0.01602 h -0.007 l -0.005,-0.01468 h -0.007 l -0.005,-0.01601 h -0.005 l -0.007,-0.01468 h -0.005 l -0.005,-0.01601 h -0.007 l -0.005,-0.01468 h -0.007 l -0.005,-0.01468 h -0.005 l -0.005,-0.01601 h -0.007 l -0.005,-0.01468 h -0.007 l -0.005,-0.01468 h -0.005 l -0.007,-0.01601 h -0.005 l -0.005,-0.01468 h -0.007 l -0.005,-0.01468 h -0.007 l -0.005,-0.01601 h -0.005 l -0.005,-0.01468 h -0.007 l -0.005,-0.01468 h -0.007 l -0.005,-0.01601 h -0.007 l -0.005,-0.01468 h -0.005 l -0.005,-0.01601 h -0.007 l -0.005,-0.01468 h -0.007 l -0.005,-0.01468 h -0.005 l -0.005,-0.01468 h -0.007 l -0.005,-0.01468 h -0.007 l -0.005,-0.01468 h -0.007 l -0.005,-0.01601 h -0.005 l -0.005,-0.01468 h -0.007 l -0.005,-0.01468 h -0.005 l -0.007,-0.01468 h -0.007 l -0.005,-0.01468 h -0.005 l -0.005,-0.01468 h -0.007 l -0.005,-0.01601 h -0.005 l -0.005,-0.01468 h -0.007 l -0.005,-0.01601 h -0.007 l -0.005,-0.01468 h -0.007 l -0.005,-0.01601 h -0.007 l -0.005,-0.01468 h -0.005 l -0.005,-0.01601 h -0.007 l -0.005,-0.01468 h -0.005 l -0.005,-0.01601 h -0.01 l -0.005,-0.01468 h -0.005 l -0.005,-0.01602 h -0.007 l -0.005,-0.01601 h -0.005 l -0.005,-0.01468 h -0.007 l -0.005,-0.01468 h -0.007 l -0.005,-0.01601 h -0.007 l -0.005,-0.01468 h -0.007 l -0.005,-0.01468 h -0.005 l -0.005,-0.01601 h -0.007 l -0.005,-0.01468 h -0.005 l -0.005,-0.01468 h -0.007 l -0.005,-0.01601 h -0.007 l -0.005,-0.01468 h -0.007 l -0.005,-0.01468 h -0.005 l -0.005,-0.01468 h -0.007 l -0.005,-0.01601 -12.23617,0.565955 -4.9205,19.914006 -1.69295,-18.367144 h -0.01 l -0.002,-0.01602 h -0.01 l -0.002,-0.01468 h -0.007 l -0.002,-0.01601 h -0.01 l -0.002,-0.01601 h -0.01 v -0.01601 h -0.01 l -0.002,-0.01468 h -0.01 V 40.77 h -0.01 l -0.002,-0.01468 h -0.01 v -0.01601 h -0.0116 v -0.01468 h -0.01 l -0.002,-0.01601 h -0.007 l -0.002,-0.01468 h -0.01 l -0.002,-0.01601 h -0.01 v -0.01468 h -0.01 l -0.002,-0.01601 h -0.01 l -0.002,-0.01468 h -0.007 l -0.002,-0.01601 h -0.01 l -0.002,-0.01601 -0.0101,0.0012 v 0.06506 h -0.01 l -0.002,-0.01468 h -0.01 v -0.01601 h -0.01 l -0.002,-0.01468 h -0.01 v -0.01601 h -0.0116 v -0.01235 l -0.01,0.0012 -0.002,-0.01601 h -0.01 v -0.01468 h -0.01 l -0.002,-0.01602 h -0.01 l -0.002,-0.01468 h -0.007 l -0.002,-0.01468 h -0.01 l -0.002,-0.01601 h -0.007 l -0.002,-0.01601 h -0.008 l -0.002,-0.01468 h -0.01 v -0.01601 h -0.01 l -0.002,-0.01468 h -0.01 l -0.002,-0.01601 -0.01,0.0012 v -0.01602 h -0.01 l -0.002,-0.01601 h -0.01 v -0.01602 l -0.01,0.0012 -0.002,-0.01601 h -0.01 v -0.01468 h -0.0117 v -0.01601 h -0.01 l -0.002,-0.01468 h -0.01 v -0.0073 l -0.01,0.0012 -0.002,-0.01601 h -0.0101 v -0.01601 h -0.01 l -0.002,-0.01468 h -0.01 l -0.002,-0.01601 h -0.007 l -0.002,-0.01468 h -0.01 l -0.002,-0.01601 -0.01,0.0012 v -0.01601 h -0.01 l -0.002,-0.01601 h -0.01 l -0.002,-0.01468 h -0.007 l -0.002,-0.01601 h -0.01 v -0.01468 h -0.0117 v -0.01601 h -0.01 l -0.002,-0.01468 h -0.01 v -0.01601 h -0.01 l -0.002,-0.01601 -0.01,0.0012 v -0.01601 h -0.01 l -0.002,-0.01468 h -0.01 l -0.002,-0.01601 h -0.007 l -0.002,-0.01468 h -0.01 l -0.002,-0.01601 h -0.01 v -0.01601 h -0.01 l -0.002,-0.01468 h -0.01 l -0.002,-0.01468 h -0.007 l -0.002,-0.01601 h -0.01 l -0.002,-0.01468 h -0.01 v -0.01601 l -0.01,0.0012 -0.002,-0.01601 h -0.0101 v -0.01601 h -0.01 l -0.002,-0.01468 h -0.01 V 39.8496 h -0.0116 v -0.01468 h -0.01 l -0.002,-0.01601 h -0.01 v -0.01468 h -0.01 l -0.002,-0.01601 h -0.01 l -0.002,-0.01602 -0.007,0.0012 -0.002,-0.01601 h -0.01 l -0.002,-0.01468 h -0.007 l -0.002,-0.01601 -12.8807,0.595416 -9.46653,15.514048 4.50553,-14.044529 -0.015,0.0012 0.005,-0.01601 h -0.0172 l 0.007,-0.01468 h -0.0172 l 0.005,-0.01601 h -0.015 l 0.005,-0.01468 h -0.0172 l 0.005,-0.01601 h -0.015 l 0.005,-0.01601 h -0.0172 l 0.005,-0.01601 h -0.015 l 0.005,-0.01601 -0.0172,0.0012 0.007,-0.01601 h -0.0172 l 0.005,-0.01602 h -0.0172 l 0.005,-0.01601 -0.015,0.0012 0.005,-0.01601 h -0.015 l 0.005,-0.01601 -0.0172,0.0012 0.005,-0.01602 -0.015,0.0012 0.005,-0.01601 -0.0172,0.0012 0.005,-0.01601 h -0.015 l 0.005,-0.01601 -0.0172,0.0012 0.005,-0.01601 h -0.015 l 0.005,-0.01601 -0.015,0.0012 0.005,-0.01601 h -0.0172 l 0.005,-0.01602 h -0.0172 l 0.005,-0.01601 -0.015,0.0012 0.005,-0.01601 h -0.015 l 0.005,-0.01601 h -0.0172 l 0.005,-0.01601 -0.015,0.0012 0.005,-0.01601 h -0.0172 l 0.005,-0.01601 h -0.015 l 0.005,-0.01601 h -0.0172 l 0.005,-0.01468 h -0.015 l 0.005,-0.01601 h -0.015 l 0.005,-0.01601 -0.0172,0.0012 0.005,-0.01601 h -0.0172 l 0.005,-0.01602 -0.015,0.0012 0.005,-0.01601 h -0.0172 l 0.007,-0.01601 h -0.0172 l 0.005,-0.01468 h -0.015 l 0.005,-0.01601 h -0.0172 l 0.005,-0.01468 h -0.015 l 0.005,-0.01601 -0.0172,0.0012 0.005,-0.01601 h -0.015 l 0.005,-0.01602 h -0.015 l 0.005,-0.01468 h -0.0172 l 0.005,-0.01601 h -0.015 l 0.005,-0.01468 h -0.0172 l 0.005,-0.01601 -0.015,0.0012 0.005,-0.01601 h -0.0172 l 0.005,-0.01601 h -0.015 l 0.005,-0.01601 -0.0172,0.0012 0.005,-0.01601 -0.015,0.0012 0.005,-0.01601 h -0.0172 l 0.007,-0.01602 -0.0172,0.0012 0.005,-0.01601 h -0.0172 l 0.007,-0.01601 -0.0172,0.0012 0.005,-0.01601 h -0.015 l 0.005,-0.01601 -0.0172,0.0012 0.005,-0.01601 h -0.0172 l 0.007,-0.01601 h -0.0172 l 0.005,-0.01468 h -0.015 l 0.005,-0.01601 -0.015,0.0012 0.005,-0.01601 h -0.0172 l 0.005,-0.01601 h -0.0172 l 0.005,-0.01601 h -0.015 l 0.005,-0.01468 h -0.015 l 0.005,-0.01601 h -0.0172 l 0.005,-0.01601 -0.015,0.0012 0.005,-0.01601 h -0.0172 l 0.005,-0.01468 h -0.015 l 0.005,-0.01601 h -0.0172 l 0.005,-0.01468 h -0.015 l 0.005,-0.01601 h -0.015 l 0.005,-0.01602 -0.0172,0.0012 0.005,-0.01601 h -0.0172 l 0.005,-0.01601 -0.015,0.0012 0.005,-0.01601 h -0.015 l 0.005,-0.01602 h -0.0172 l 0.005,-0.01468 h -0.015 l 0.005,-0.01601 h -0.0172 l 0.005,-0.01468 h -0.015 l 0.005,-0.01601 -0.0172,0.0012 0.005,-0.01601 h -0.015 l 0.005,-0.01601 -13.69586,0.633477 -6.80741,9.15104 -1.81326,-7.514559 h -0.007 l -0.005,-0.01468 h -0.007 l -0.002,-0.01601 h -0.007 l -0.002,-0.01468 h -0.007 l -0.005,-0.01468 h -0.005 l -0.005,-0.01468 h -0.007 l -0.002,-0.01468 h -0.007 l -0.005,-0.01468 h -0.005 l -0.005,-0.01468 h -0.007 l -0.002,-0.01468 h -0.007 l -0.002,-0.01468 h -0.007 l -0.005,-0.01601 h -0.005 l -0.005,-0.01468 h -0.005 l -0.005,-0.01468 h -0.007 l -0.002,-0.01601 h -0.007 l -0.005,-0.01468 h -0.005 l -0.005,-0.01468 h -0.007 l -0.002,-0.01468 h -0.007 l -0.005,-0.01601 h -0.005 l -0.005,-0.01468 h -0.007 l -0.002,-0.01601 h -0.007 l -0.002,-0.01468 h -0.007 l -0.005,-0.01601 h -0.007 l -0.002,-0.01468 h -0.007 l -0.002,-0.01601 h -0.007 l -0.005,-0.01468 h -0.007 l -0.002,-0.01601 h -0.007 l -0.002,-0.01468 h -0.007 l -0.005,-0.01602 h -0.005 l -0.005,-0.01468 h -0.007 l -0.002,-0.01468 h -0.007 l -0.002,-0.01601 h -0.007 l -0.005,-0.01468 h -0.005 l -0.005,-0.01468 h -0.007 l -0.002,-0.01601 h -0.007 l -0.005,-0.01468 h -0.005 l -0.005,-0.01601 h -0.005 l -0.005,-0.01468 h -0.007 l -0.002,-0.01468 h -0.007 l -0.002,-0.01468 h -0.007 l -0.005,-0.01601 h -0.007 l -0.002,-0.01468 h -0.007 l -0.002,-0.01601 h -0.007 l -0.005,-0.01468 h -0.007 l -0.002,-0.01468 h -0.007 l -0.002,-0.01601 h -0.007 l -0.005,-0.01468 h -0.007 l -0.002,-0.01468 h -0.007 l -0.002,-0.01601 h -0.007 l -0.005,-0.01468 h -0.005 l -0.005,-0.01468 h -0.007 l -0.002,-0.01601 h -0.007 l -0.002,-0.01468 h -0.007 l -0.005,-0.01468 h -0.005 l -0.005,-0.01602 h -0.007 l -0.002,-0.01468 h -0.007 l -0.002,-0.01468 h -0.007 l -0.005,-0.01468 h -0.005 l -0.005,-0.01468 h -0.007 l -0.002,-0.01468 h -0.007 l -0.005,-0.01468 h -0.005 l -0.005,-0.01468 h -0.007 l -0.002,-0.01601 h -0.007 l -0.005,-0.01468 h -0.005 l -0.005,-0.01601 h -0.007 l -0.002,-0.01468 h -0.007 l -0.002,-0.01601 h -0.007 l -0.005,-0.01468 h -0.007 l -0.002,-0.01601 h -0.007 l -0.002,-0.01468 h -0.007 l -0.005,-0.01468 h -0.005 l -0.005,-0.01468 h -0.007 l -0.002,-0.01468 h -0.007 l -0.002,-0.01468 h -0.007 l -0.005,-0.01601 h -0.005 l -0.005,-0.01468 h -0.007 l -0.002,-0.01468 h -0.007 l -0.002,-0.01468 h -0.007 l -0.005,-0.01468 h -0.005 l -0.005,-0.01468 h -0.007 l -0.002,-0.01468 h -0.007 l -0.005,-0.01468 -39.120885,1.809581 -3.473066,9.106845 -1.055792,-7.661879 h -0.0067 l -0.0012,-0.01468 h -0.0067 l -0.0012,-0.01601 h -0.0084 l -0.0012,-0.01468 h -0.0067 l -0.0012,-0.01468 h -0.0067 l -0.0012,-0.01468 h -0.0067 l -0.0012,-0.01468 h -0.0067 l -0.0017,-0.01468 h -0.0067 l -0.0012,-0.01468 h -0.0067 l -0.0012,-0.01468 h -0.0067 l -0.0017,-0.01468 h 0.06506 l -0.0017,-0.01468 h -0.0067 l -0.0017,-0.01468 h -0.0067 l -0.0017,-0.01601 h -0.0067 l -0.0017,-0.01468 h -0.0067 l -0.0017,-0.01468 h -0.0067 l -0.0017,-0.01601 h -0.0067 l -0.0012,-0.01468 h -0.0067 l -0.0017,-0.01468 h -0.0067 l -0.0012,0.07734 h 0.04018 l -0.0012,-0.01468 h -0.0067 l -0.0012,-0.01468 h -0.0067 l -0.0017,-0.01601 h -0.0067 l -0.0012,-0.01468 h -0.0084 l -0.0017,-0.01468 h -0.0067 l -0.0012,-0.01468 h -0.0067 l -0.0012,-0.01468 h -0.0067 l -0.0012,-0.01601 h -0.0067 l -0.0012,-0.01468 h -0.01168 l -0.0012,-0.01468 h -0.0067 l -0.0017,-0.01601 h -0.0067 l -0.0017,-0.01468 h -0.0067 l -0.0012,-0.01468 h -0.0067 l -0.0017,-0.01601 h -0.0067 l -0.0017,-0.0099 h -0.0067 l -0.0017,-0.01468 h -0.0067 l -0.0017,-0.01601 h -0.0067 l -0.0017,-0.01468 h -0.0067 l -0.0012,-0.01468 h -0.0067 l -0.0012,-0.01468 h -0.0067 l -0.0012,-0.01468 h -0.0067 l -0.0012,-0.01468 h -0.0067 l -0.0012,-0.01468 h -0.0067 l -0.0012,-0.01468 h -0.0067 l -0.0017,-0.01468 h -0.0067 l -0.0012,-0.01468 h -0.0067 l -0.0012,-0.01468 h -0.0067 l -0.0012,-0.01468 h -0.0067 l -0.0017,-0.01468 h -0.0067 l -0.0012,-0.01468 h -0.0067 l -0.0017,-0.01601 h -0.0067 l -0.0012,-0.01468 h -0.0067 l -0.0012,-0.01468 h -0.0067 l -0.0017,-0.01468 h -0.0067 l -0.0012,-0.01468 h -0.0067 l -0.0017,-0.01468 h -0.0067 l -0.0012,-0.01601 h -0.0067 l -0.0017,-0.01468 h -0.0067 l -0.0012,-0.01468 h -0.0067 l -0.0017,-0.01468 h -0.0067 l -0.0012,-0.01601 h -0.0067 l -0.0012,-0.01468 h -0.0067 l -0.0012,-0.01601 h -0.0067 l -0.0017,-0.01468 h -0.0067 l -0.0012,-0.01602 h -0.0067 l -0.0012,-0.01468 h -0.0067 l -0.0012,-0.01468 h -0.0067 l -0.0012,-0.01468 h -0.0067 l -0.0012,-0.01468 h -0.0067 l -0.0012,-0.01468 h -0.0067 l -0.0017,-0.01601 h -0.0067 l -0.0012,-0.01468 h -0.0067 l -0.0017,-0.01468 h -0.0067 l -0.0012,-0.01468 h -0.0067 l -0.0017,-0.01468 h -0.0067 l -0.0017,-0.01468 h -0.0067 l -0.0017,-0.01601 h -0.0067 l -0.0017,-0.01468 h -0.02703 l -0.0012,-0.01601 h -0.0067 l -0.0017,-0.01468 h -0.0067 l -0.0012,-0.01468 h -0.0067 l -0.0012,-0.01468 -13.450334,0.621198 -9.960075,18.276301 -0.03805,-0.06752 -0.01235,-0.01962 -0.0062,-0.0099 -0.01235,-0.02087 -0.0062,-0.0099 -0.01101,-0.01842 -0.0099,-0.01468 a 0.11171781,0.11171781 0 0 0 -0.0099,-0.01601 l -0.0062,-0.01101 -0.01102,-0.01842 -0.0085,-0.01351 a 0.20870362,0.20870362 0 0 1 -0.01101,-0.01718 l -0.0073,-0.01235 -0.01101,-0.01842 -0.0085,-0.01351 -0.0099,-0.01601 a 0.08225378,0.08225378 0 0 1 -0.0085,-0.01351 l -0.01101,-0.01842 a 0.04910673,0.04910673 0 0 1 -0.0062,-0.01101 l -0.01101,-0.01842 -0.0085,-0.01468 -0.0085,-0.01351 -0.0099,-0.01601 -0.0099,-0.01601 -0.0085,-0.01351 -0.0099,-0.01601 -0.0099,-0.01602 -0.0073,-0.01351 -0.01101,-0.01842 -0.0048,-0.0099 a 0.1166285,0.1166285 0 0 1 -0.01235,-0.02087 l -0.0073,-0.01102 -0.01101,-0.01842 -0.0073,-0.01235 -0.01101,-0.01842 -0.0062,-0.0099 -0.01235,-0.02087 -0.0073,-0.01101 -0.0099,-0.01719 -0.0085,-0.01351 -0.0099,-0.01719 -0.0085,-0.01351 a 0.06629409,0.06629409 0 0 1 -0.0085,-0.01601 l -0.0099,-0.01601 -0.0073,-0.01351 -0.01101,-0.01842 a 0.10803482,0.10803482 0 0 1 -0.0073,-0.01235 l -0.0099,-0.01601 -0.0085,-0.01351 -0.0099,-0.01718 -0.0085,-0.01468 a 0.11171781,0.11171781 0 0 0 -0.0099,-0.01601 l -0.0073,-0.01351 c -0.0024,-0.0062 -0.0073,-0.01102 -0.01101,-0.01718 l -0.0085,-0.01351 -0.0099,-0.01601 -0.0085,-0.01468 -0.0085,-0.01351 -0.01102,-0.01842 -0.0073,-0.01235 -0.01102,-0.01718 -0.0085,-0.01468 -0.0085,-0.01351 -0.01101,-0.01718 -0.0085,-0.01468 -0.0099,-0.01601 -0.0073,-0.01235 -0.0099,-0.01842 -0.0085,-0.01235 -0.0099,-0.01718 -0.0085,-0.01468 a 0.20870362,0.20870362 0 0 1 -0.01101,-0.01719 l -0.0085,-0.01351 -0.0073,-0.01351 -0.0099,-0.01719 -0.0073,-0.01351 -0.01101,-0.01719 -0.0085,-0.01351 -0.0099,-0.01601 -0.0085,-0.01468 -0.0099,-0.01601 a 9.8250298,9.8250298 0 0 0 -2.094141,-2.248138 c 1.491619,-0.617518 5.323173,-2.722969 6.089237,-8.284305 0.329013,-2.389044 -0.103115,-4.418381 -1.1491,-6.089236 l -0.0099,-0.01601 -0.0073,-0.01101 a 0.20870362,0.20870362 0 0 1 -0.01102,-0.01719 l -0.0085,-0.01351 -0.0099,-0.01601 -0.0099,-0.01601 -0.0099,-0.01601 a 0.10803482,0.10803482 0 0 1 -0.0073,-0.01235 0.11171781,0.11171781 0 0 1 -0.0099,-0.01601 l -0.0099,-0.01601 -0.0085,-0.01468 a 0.11171781,0.11171781 0 0 0 -0.0099,-0.01601 0.02946405,0.02946405 0 0 0 -0.0073,-0.01101 l -0.01101,-0.01842 -0.0062,-0.01235 -0.01235,-0.01842 a 0.04910673,0.04910673 0 0 1 -0.0062,-0.01101 0.06997709,0.06997709 0 0 1 -0.0099,-0.01601 l -0.0085,-0.01351 a 0.11171781,0.11171781 0 0 0 -0.0099,-0.01601 l -0.0085,-0.01601 -0.0085,-0.01468 a 0.09207512,0.09207512 0 0 1 -0.0085,-0.01468 l -0.0085,-0.01351 -0.01102,-0.01842 -0.0073,-0.01101 -0.01101,-0.01842 a 0.10803482,0.10803482 0 0 1 -0.0073,-0.01235 l -0.01101,-0.01842 -0.0073,-0.01235 -0.0099,-0.01601 -0.0085,-0.01351 -0.0099,-0.01468 a 0.11171781,0.11171781 0 0 0 -0.0099,-0.01601 l -0.0099,-0.01468 -0.0099,-0.01602 a 0.10803482,0.10803482 0 0 1 -0.0073,-0.01235 l -0.01101,-0.01718 -0.0073,-0.01235 a 0.20870362,0.20870362 0 0 1 -0.01102,-0.01718 0.08225378,0.08225378 0 0 0 -0.0085,-0.01351 l -0.01101,-0.01601 -0.0073,-0.01351 -0.0099,-0.01601 a 0.06997709,0.06997709 0 0 1 -0.0099,-0.01601 l -0.0073,-0.01351 -0.0099,-0.01601 -0.0099,-0.01468 -0.0085,-0.01468 -0.0085,-0.01351 -0.0085,-0.01468 -0.0099,-0.01602 -0.0099,-0.01601 -0.0085,-0.01351 -0.0085,-0.01601 -0.0085,-0.01351 a 0.11171781,0.11171781 0 0 0 -0.0099,-0.01601 l -0.0085,-0.01351 a 0.11171781,0.11171781 0 0 0 -0.0099,-0.01601 l -0.0099,-0.01468 -0.0085,-0.01235 -0.0099,-0.01719 -0.0085,-0.01351 -0.0073,-0.01351 a 0.20870362,0.20870362 0 0 1 -0.01101,-0.01719 l -0.0085,-0.01351 c -0.0037,-0.0037 -0.0048,-0.0099 -0.0085,-0.01468 l -0.0099,-0.01601 -0.0085,-0.01468 -0.0085,-0.01351 a 0.11171781,0.11171781 0 0 0 -0.0099,-0.01601 l -0.0085,-0.01468 -0.0085,-0.01351 -0.0085,-0.01468 -0.01101,-0.01602 -0.0073,-0.01235 a 0.11171781,0.11171781 0 0 0 -0.0099,-0.01602 l -0.0085,-0.01468 -0.0085,-0.01351 a 0.11171781,0.11171781 0 0 0 -0.0099,-0.01602 c -1.98514,-3.191939 -6.198499,-5.073953 -11.611288,-5.633768 -2.51549,-0.260268 -14.310931,0.520527 -14.310931,0.520527 L 9.5117378,81.359464 h 0.013512 l -0.00484,0.01601 0.013512,-0.0012 -0.00484,0.01468 h 0.013512 l -0.00484,0.01602 h 0.013512 l -0.00484,0.01601 0.013512,-0.0012 -0.00484,0.01602 0.013513,-0.0012 -0.00484,0.01602 h 0.014681 l -0.00484,0.01601 h 0.013512 l -0.00484,0.01468 h 0.01468 l -0.00617,0.01468 h 0.013512 l -0.00484,0.01468 h 0.013512 l -0.00484,0.01602 h 0.013512 l -0.00484,0.01468 h 0.014681 l -0.00617,0.01601 0.014681,-0.0012 -0.00617,0.01601 h 0.01468 l -0.00484,0.01468 h 0.013512 l -0.00484,0.01601 0.013512,-0.0012 -0.00484,0.01602 h 0.013512 l -0.00617,0.01468 h 0.014681 l -0.00484,0.01602 h 0.013512 l -0.00484,0.01468 h 0.013512 l -0.00484,0.01468 h 0.014654 l -0.00484,0.01601 h 0.013512 l -0.00484,0.01468 h 0.013512 l -0.00484,0.01602 0.013512,-0.0012 -0.00484,0.01601 h 0.013512 l -0.00484,0.01468 h 0.014681 l -0.00617,0.01468 h 0.013512 l -0.00484,0.01601 h 0.014681 l -0.00617,0.01468 h 0.01468 l -0.00617,0.01468 h 0.01468 l -0.00617,0.01601 h 0.014681 l -0.00617,0.01601 0.01468,-0.0012 -0.00617,0.01601 0.01468,-0.0012 -0.00484,0.01602 h 0.013512 l -0.00484,0.01601 h 0.013512 l -0.00484,0.01468 0.014681,-0.0012 -0.00484,0.01601 h 0.013512 l -0.00484,0.01468 h 0.013512 l -0.00484,0.01601 h 0.014681 l -0.00484,0.01468 h 0.013512 l -0.00484,0.01601 0.013512,-0.0012 -0.00484,0.01601 h 0.013512 l -0.00484,0.01468 h 0.01468 l -0.00617,0.01601 0.013512,-0.0012 -0.00484,0.01601 h 0.013513 l -0.00484,0.01468 h 0.014678 l -0.00622,0.01601 h 0.014678 l -0.00622,0.01468 h 0.014678 l -0.00484,0.01468 h 0.013513 l -0.00484,0.01468 h 0.013513 l -0.00484,0.01602 h 0.013513 l -0.00484,0.01601 0.013513,-0.0012 -0.00484,0.01602 0.013513,-0.0012 -0.00484,0.01601 h 0.013513 l -0.00484,0.01468 h 0.013513 l -0.0048,0.01601 0.01468,-0.0012 -0.0048,0.01601 h 0.01351 l -0.0048,0.01468 h 0.01351 l -0.0048,0.01601 h 0.01351 l -0.0048,0.01468 h 0.01351 l -0.0048,0.01468 h 0.01468 l -0.0062,0.01601 h 0.01468 l -0.0062,0.01468 h 0.01468 l -0.0048,0.01601 h 0.01351 l -0.0048,0.01468 h 0.01351 l -0.0048,0.01468 h 0.01351 l -0.0048,0.01468 h 0.01351 l -0.0048,0.01602 h 0.01468 l -0.0048,0.01468 h 0.01351 l -0.0048,0.01601 h 0.01351 l -0.0048,0.01468 h 0.01468 l -0.0048,0.01468 h 0.01351 l -0.0048,0.01468 h 0.01351 l -0.0048,0.01601 h 0.01351 l -0.0048,0.01601 h 0.01351 l -0.0048,0.01468 h 0.01468 l -0.0062,0.01468 h 0.01468 l -0.0062,0.01468 h 0.01468 l -0.0048,0.01602 h 0.01351 l -0.0062,0.01468 0.01468,-0.0012 -0.0062,0.01719 c 0,0 23.884289,-0.261492 29.008577,-1.82186 0.445647,-0.135045 0.880239,-0.283587 1.308698,-0.440732 h 0.0024 l -0.0085,0.01718 0.01842,-0.0012 -0.0085,0.01602 h 0.01719 l -0.0085,0.01468 h 0.01842 l -0.0085,0.01601 0.01719,-0.0012 -0.0085,0.01602 0.01718,-0.0012 -0.0085,0.01718 0.01719,-0.0012 -0.0085,0.01602 0.01842,-0.0012 -0.0085,0.01601 0.01718,-0.0012 -0.0085,0.01718 0.01718,-0.0012 -0.0085,0.01601 0.01719,-0.0012 -0.0085,0.01601 0.01718,-0.0012 -0.0085,0.01719 0.01719,-0.0012 -0.0085,0.01602 0.01842,-0.0012 -0.0085,0.01601 h 0.01719 l -0.0085,0.01468 h 0.01719 l -0.0085,0.01601 0.01719,-0.0012 -0.0085,0.01718 0.01718,-0.0012 -0.0085,0.01601 0.01719,-0.0012 -0.0085,0.01602 0.01719,-0.0012 -0.0085,0.01601 h 0.01718 l -0.0085,0.01602 0.01842,-0.0012 -0.0085,0.01601 0.01719,-0.0012 -0.0085,0.01601 h 0.01719 l -0.0085,0.01602 0.01719,-0.0012 -0.0085,0.01601 0.01719,-0.0012 -0.0085,0.01601 h 0.01718 l -0.0085,0.01601 0.01719,-0.0012 -0.0085,0.01602 0.01842,-0.0012 -0.0085,0.01719 0.01718,-0.0012 -0.0085,0.01601 h 0.01719 l -0.0085,0.01468 h 0.01842 l -0.0085,0.01468 h 0.01718 l -0.0085,0.01602 0.01842,-0.0012 -0.0085,0.01602 h 0.01719 l -0.0085,0.01468 h 0.01719 l -0.0085,0.01601 0.01842,-0.0012 -0.0085,0.01718 0.01719,-0.0012 -0.0085,0.01601 0.01842,-0.0012 -0.0085,0.01602 0.01842,-0.0012 -0.0085,0.01718 0.01842,-0.0012 -0.0085,0.01602 0.01719,-0.0012 -0.0085,0.01601 h 0.01842 l -0.0085,0.01468 h 0.01718 l -0.0085,0.01601 0.01719,-0.0012 -0.0085,0.01602 0.01718,-0.0012 -0.0085,0.01719 0.01718,-0.0012 -0.0085,0.01601 0.01719,-0.0012 -0.0085,0.01601 0.01842,-0.0012 -0.0085,0.01718 0.01718,-0.0012 -0.0085,0.01601 0.01719,-0.0012 -0.0085,0.01602 0.01718,-0.0012 -0.0085,0.01718 0.01842,-0.0012 -0.0085,0.01601 0.01719,-0.0012 -0.0085,0.01719 0.01842,-0.0012 -0.0085,0.01468 h 0.01718 l -0.0085,0.01601 0.01719,-0.0012 -0.0085,0.01719 0.01719,-0.0012 -0.0085,0.01601 0.01842,-0.0012 -0.0085,0.01601 16.282569,-0.750105 2.47866,-5.668144 8.340791,-0.32656 0.855684,4.220725 h 0.0067 l 0.0034,0.01468 h 0.0067 l 0.0017,0.01601 0.0067,-0.0012 0.0017,0.01601 h 0.0067 l 0.0017,0.01468 h 0.0067 l 0.0017,0.01468 h 0.0067 l 0.0017,0.01601 h 0.0067 l 0.0017,0.01468 h 0.0067 l 0.0017,0.01468 h 0.0067 l 0.0034,0.01602 h 0.0067 l 0.0017,0.01601 0.0067,-0.0012 0.0034,0.01602 0.0067,-0.0012 0.0017,0.01601 h 0.0067 l 0.0017,0.01601 h 0.0067 l 0.0017,0.01468 h 0.0067 l 0.0017,0.01468 h 0.0067 l 0.0017,0.01468 h 0.0067 l 0.0017,0.01602 h 0.0067 l 0.0017,0.01468 h 0.0067 l 0.0034,0.01602 0.0067,-0.0012 0.0017,0.01601 h 0.0067 l 0.0034,0.01468 h 0.0067 l 0.0017,0.01601 0.0067,-0.0012 0.0017,0.01601 h -0.01001 l 0.0017,0.01468 h 0.0067 l 0.0017,0.01602 h 0.0067 l 0.0034,0.01468 h 0.0067 l 0.0017,0.01468 h 0.0067 l 0.0034,0.01468 h 0.0067 l 0.0017,0.01601 h 0.0067 l 0.0017,0.01601 0.0067,-0.0012 0.0017,0.01602 0.0067,-0.0012 0.0017,0.01601 h 0.0067 l 0.0017,0.01468 h 0.0067 l 0.0017,0.01601 h 0.0067 l 0.0017,0.01468 h 0.0067 l 0.0017,0.01468 h 0.0067 l 0.0017,0.01601 h 0.0067 l 0.0034,0.01468 h 0.0067 l 0.0017,0.01468 h 0.0067 l 0.0017,0.01602 h 0.0067 l 0.0017,0.01468 h 0.0067 l 0.0017,0.01601 0.0067,-0.0012 0.0017,0.01601 h 0.0067 l 0.0017,0.01468 h 0.0067 l 0.0017,0.01468 h 0.0067 l 0.0034,0.01601 h 0.0067 l 0.0017,0.01601 0.0067,-0.0012 0.0034,0.01468 h 0.0067 l 0.0017,0.01601 h 0.0067 l 0.0017,0.01601 0.0067,-0.0012 0.0017,0.01601 0.0067,-0.0012 0.0017,0.01601 h 0.0067 l 0.0017,0.01602 h 0.0067 l 0.0017,0.01468 h 0.0067 l 0.0017,0.01468 h 0.0067 l 0.0034,0.01468 h 0.0067 l 0.0017,0.01601 h 0.0067 l 0.0017,0.01468 h 0.0067 l 0.0017,0.01602 0.0067,-0.0012 0.0017,0.01601 h 0.0067 l 0.0017,0.01468 h 0.0067 l 0.0017,0.01602 0.0067,-0.0012 0.0017,0.01602 h 0.0067 l 0.0017,0.01468 h 0.0067 l 0.0034,0.01601 h 0.0067 l 0.0034,0.01468 h 0.0067 l 0.0034,0.01468 h 0.0067 l 0.0017,0.01468 h 0.0067 l 0.0017,0.01602 h 0.0067 l 0.0017,0.01601 0.0067,-0.0012 0.0017,0.01601 0.0067,-0.0012 0.0017,0.01601 h 0.0067 l 0.0017,0.01468 h 0.0067 l 0.0034,0.01601 h 0.0067 l 0.0017,0.01468 h 0.0067 l 0.0017,0.01468 h 0.0067 l 0.0017,0.01602 h 0.0067 l 0.0017,0.01468 h 0.0067 l 0.0017,0.01468 h 0.0067 l 0.0017,0.01601 h 0.0067 l 0.0017,0.01468 18.439571,-0.849548 7.988445,-24.018106 3.701423,-0.128906 -8.065791,22.745012 h 0.01501 l -0.005,0.01468 h 0.01668 l -0.0067,0.01468 h 0.01668 l -0.005,0.01602 0.01501,-0.0012 -0.005,0.01601 h 0.01668 l -0.005,0.01468 h 0.01501 l -0.005,0.01601 0.01668,-0.0012 -0.0067,0.01601 h 0.01668 l -0.005,0.01601 0.01501,-0.0012 -0.005,0.01602 0.01668,-0.0012 -0.005,0.01601 0.01668,-0.0012 -0.005,0.01718 0.01501,-0.0012 -0.005,0.01602 h 0.01501 l -0.005,0.01468 h 0.01668 l -0.005,0.01602 0.01668,-0.0012 -0.0067,0.01601 0.01668,-0.0012 -0.0067,0.01601 h 0.01668 l -0.005,0.01601 0.01501,-0.0012 -0.005,0.01602 0.01668,-0.0012 -0.005,0.01718 0.01668,-0.0012 0.01719,-0.03315 0.01668,-0.0012 -0.0067,0.01601 h 0.01668 l -0.005,0.01601 0.01501,-0.0024 -0.005,0.01718 0.01501,-0.0012 -0.005,0.01601 h 0.01501 l -0.005,0.01468 h 0.01501 l -0.005,0.01601 0.01501,-0.0012 -0.005,0.01719 0.01668,-0.0012 -0.005,0.01601 0.01501,-0.0012 -0.005,0.01601 0.01668,-0.0012 -0.0067,0.01602 h 0.01668 l -0.005,0.01601 0.01668,-0.0012 -0.005,0.01602 0.01501,-0.0012 -0.005,0.01601 h 0.01668 l -0.0067,0.01601 0.01668,-0.0012 -0.0067,0.01602 0.01668,-0.0012 -0.005,0.01601 h 0.01668 l -0.005,0.01601 0.01501,-0.0012 -0.005,0.01601 0.01668,-0.0012 -0.0067,0.01718 0.01668,-0.0012 -0.005,0.01601 h 0.01501 l -0.005,0.01468 h 0.01668 l -0.005,0.01601 0.01668,-0.0012 -0.0067,0.01601 0.01668,-0.0012 -0.005,0.01602 h 0.01501 l -0.005,0.01468 h 0.01668 l -0.005,0.01602 0.01501,-0.0012 -0.005,0.01719 0.01501,-0.0012 -0.005,0.01601 0.01668,-0.0012 -0.0067,0.01601 0.01668,-0.0012 -0.005,0.01719 0.01501,-0.0012 -0.005,0.01602 0.01668,-0.0012 -0.005,0.01602 h 0.01501 l -0.005,0.01468 h 0.01668 l -0.005,0.01602 0.01501,-0.0012 -0.005,0.01601 0.01668,-0.0012 -0.005,0.01718 0.01501,-0.0012 -0.005,0.01601 0.01668,-0.0012 -0.005,0.01601 0.01501,-0.0012 -0.005,0.01719 0.01668,-0.0012 -0.005,0.01602 0.01668,-0.0012 -0.0067,0.01601 h 0.01501 l -0.005,0.01602 0.01668,-0.0012 -0.005,0.01601 0.01501,-0.0012 -0.005,0.01601 h 0.01668 l -0.005,0.01468 h 0.01501 l -0.005,0.01601 0.01668,-0.0012 -0.0067,0.01718 0.01668,-0.0012 -0.0067,0.01602 0.01668,-0.0012 -0.005,0.01602 0.01501,-0.0012 -0.005,0.01601 h 0.01668 l -0.005,0.01602 0.01668,-0.0012 -0.0067,0.01601 0.01668,-0.0012 -0.0067,0.01601 0.01668,-0.0012 -0.005,0.01719 0.01668,-0.0012 -0.0067,0.01601 h 0.01668 l -0.0067,0.01601 0.01668,-0.0012 -0.0067,0.01601 0.01668,-0.0012 -0.005,0.01601 0.01668,-0.0012 -0.005,0.01719 0.01501,-0.0012 -0.005,0.01601 h 0.01668 l -0.0067,0.01468 15.161707,-0.69854 3.85242,-11.616197 1.27064,8.636646 0.007,-0.0085 0.005,0.02333 0.007,-0.0073 0.002,0.02332 0.007,-0.0099 0.002,0.02577 0.007,-0.0099 0.005,0.02456 0.005,-0.0099 0.005,0.02456 0.007,-0.0085 0.002,0.02333 0.007,-0.0085 0.002,0.02456 0.007,-0.0099 0.002,0.02456 0.007,-0.0085 0.005,0.02332 0.005,-0.0085 0.005,0.02456 0.007,-0.0099 0.002,0.02456 0.007,-0.0085 0.005,0.02332 0.005,-0.0085 0.005,0.02456 0.007,-0.0085 0.002,0.02332 0.007,-0.0085 0.002,0.02456 0.007,-0.0099 0.005,0.02456 0.005,-0.0085 0.005,0.02332 0.005,-0.0085 0.005,0.02332 0.007,-0.0085 0.002,0.02456 0.007,-0.0085 0.002,0.02332 0.007,-0.0085 0.005,0.02333 0.005,-0.0085 0.005,0.02456 0.007,-0.0085 0.002,0.02456 0.007,-0.0099 0.005,0.02332 0.005,-0.0073 0.005,0.02332 0.005,-0.0085 0.005,0.02456 0.007,-0.0099 0.002,0.02456 0.007,-0.0099 0.002,0.02456 0.007,-0.0085 0.005,0.02333 0.005,-0.0085 0.005,0.02456 0.007,-0.0099 0.002,0.02456 0.007,-0.0085 0.002,0.02456 0.01,-0.0099 0.002,0.02456 0.007,-0.0085 0.002,0.02332 0.007,-0.0085 0.002,0.02456 0.007,-0.0099 0.005,0.02456 0.005,-0.0085 0.005,0.02332 0.007,-0.0085 0.002,0.02456 0.007,-0.0099 0.002,0.02456 0.007,-0.0099 0.002,0.02456 0.007,-0.0085 0.005,0.02332 0.007,-0.0073 0.002,0.02332 0.007,-0.0085 0.002,0.02456 0.007,-0.0099 0.005,0.02457 0.005,-0.0085 0.005,0.02332 0.007,-0.0085 0.002,0.02332 0.007,-0.0085 0.002,0.02456 0.007,-0.0085 0.005,0.02332 0.005,-0.0085 0.005,0.02332 0.007,-0.0085 0.002,0.02456 0.007,-0.0099 0.002,0.02456 0.007,-0.0085 0.005,0.02332 0.005,-0.0085 0.005,0.02456 0.007,-0.0085 0.002,0.02332 0.007,-0.0085 0.005,0.02456 0.005,-0.0099 0.005,0.02456 0.005,-0.0085 0.005,0.02333 0.007,-0.0085 0.002,0.02332 0.007,-0.0085 0.002,0.02456 0.007,-0.0085 0.005,0.02332 0.005,-0.0085 0.005,0.02332 -0.0343,-0.05033 0.002,0.02332 0.007,-0.0099 0.002,0.02577 0.007,-0.0099 0.005,0.02332 0.005,-0.0073 0.005,0.02332 0.007,-0.0085 0.002,0.02456 0.007,-0.0099 0.002,0.02456 0.007,-0.0099 0.005,0.02456 0.005,-0.0085 0.005,0.02332 0.007,-0.0085 0.002,0.02456 0.007,-0.0085 0.002,0.02332 0.007,-0.0085 0.005,0.02456 0.005,-0.0099 0.005,0.02456 0.007,-0.0085 0.002,0.02332 0.007,-0.0085 0.002,0.02456 0.007,-0.0085 0.005,0.02333 0.005,-0.0085 0.005,0.02333 0.007,-0.0085 0.002,0.02456 0.007,-0.0085 0.002,0.02332 0.007,-0.0085 0.005,0.02332 0.005,-0.0085 0.005,0.02456 7.2457,-9.335191 -2.95869,9.403938 0.015,-0.0012 -0.005,0.01601 h 0.015 l -0.005,0.01602 0.0172,-0.0012 -0.007,0.01601 0.0172,-0.0012 -0.005,0.01601 h 0.015 l -0.005,0.01601 0.0172,-0.0012 -0.007,0.01601 0.0172,-0.0012 -0.005,0.01719 0.015,-0.0012 -0.005,0.01601 0.015,-0.0012 -0.005,0.01601 h 0.0172 l -0.005,0.01468 h 0.015 l -0.005,0.01602 0.015,-0.0012 -0.005,0.01602 0.015,-0.0012 -0.005,0.01718 0.0172,-0.0012 -0.005,0.01601 0.015,-0.0012 -0.005,0.01601 0.015,-0.0012 -0.005,0.01718 0.015,-0.0012 -0.002,0.01602 0.015,-0.0012 -0.005,0.01601 0.015,-0.0012 -0.005,0.01719 0.015,-0.0012 -0.005,0.01602 0.0172,-0.0012 -0.007,0.01601 h 0.0172 l -0.005,0.01468 h 0.015 l -0.005,0.01602 0.0172,-0.0012 -0.005,0.01719 0.015,-0.0012 -0.005,0.01601 0.015,-0.0012 -0.005,0.01602 h 0.015 l -0.005,0.01468 h 0.0172 l -0.005,0.01602 0.015,-0.0012 -0.005,0.01601 h 0.015 l -0.005,0.01468 h 0.0172 l -0.005,0.01601 0.015,-0.0012 -0.005,0.01601 h 0.015 l -0.005,0.01602 0.015,-0.0012 -0.005,0.01601 0.0172,-0.0012 -0.005,0.01601 0.015,-0.0012 -0.005,0.01718 0.015,-0.0012 -0.005,0.01602 h 0.0172 l -0.005,0.01468 h 0.015 l -0.005,0.01602 0.015,-0.0012 -0.005,0.01601 0.015,-0.0012 -0.005,0.01601 h 0.0172 l -0.005,0.01601 0.015,-0.0012 -0.005,0.01601 0.015,-0.0012 -0.005,0.01719 0.0172,-0.0012 -0.005,0.01601 0.015,-0.0012 -0.005,0.01602 0.015,-0.0012 -0.005,0.01718 0.015,-0.0012 -0.005,0.01601 0.0172,-0.0012 -0.005,0.01601 h 0.015 l -0.005,0.01468 h 0.0172 l -0.007,0.01602 0.0172,-0.0012 -0.005,0.01601 0.015,-0.0012 -0.005,0.01719 0.015,-0.0012 -0.005,0.01601 0.0172,-0.0012 -0.005,0.01601 0.015,-0.0012 -0.005,0.01719 0.015,-0.0012 -0.005,0.01602 0.015,-0.0012 -0.005,0.01601 h 0.0172 l -0.005,0.01602 0.015,-0.0012 -0.005,0.01601 h 0.015 l -0.005,0.01468 h 0.015 l -0.002,0.01468 h 0.015 l -0.005,0.01602 0.015,-0.0012 -0.005,0.01718 0.015,-0.0012 -0.005,0.01601 0.0172,-0.0012 -0.005,0.01602 h 0.015 l -0.005,0.01468 h 0.015 l -0.005,0.01601 0.0172,-0.0012 -0.007,0.01601 h 0.0172 l -0.005,0.01468 h 0.015 l -0.005,0.01601 0.0172,-0.0012 -0.007,0.01602 h 0.0172 l -0.005,0.01601 0.015,-0.0012 -0.005,0.01602 0.0172,-0.0012 -0.007,0.01602 0.0172,-0.0012 -0.005,0.01719 0.015,-0.0012 -0.005,0.01601 h 0.015 l -0.005,0.01468 h 0.0172 l -0.005,0.01601 0.015,-0.0012 -0.005,0.01601 0.015,-0.0012 -0.005,0.01602 22.58049,-1.041064 3.04461,-5.691472 8.66856,-0.322875 0.57578,4.207218 0.01,-0.0012 0.002,0.01601 h 0.01 l 0.002,0.01468 h 0.007 l 0.002,0.01601 h 0.01 l 0.002,0.01601 0.007,-0.0012 0.002,0.01601 0.01,-0.0012 0.002,0.01602 h 0.007 l 0.002,0.01468 h 0.01 l 0.002,0.01602 0.007,-0.0012 0.002,0.01601 h 0.01 l 0.002,0.01468 h 0.01 l 0.002,0.01602 h 0.007 l 0.002,0.01468 h 0.01 v 0.01468 h 0.01 l 0.002,0.01468 h 0.01 l 0.002,0.01602 h 0.007 l 0.002,0.01601 0.01,-0.0012 0.002,0.01601 0.007,-0.0012 0.002,0.01602 h 0.01 l 0.002,0.01602 0.007,-0.0012 0.002,0.01601 0.01,-0.0012 0.002,0.01601 h 0.007 l 0.002,0.01601 h 0.01 l 0.002,0.01468 h 0.007 l 0.002,0.01468 h 0.01 l 0.002,0.01602 0.007,-0.0012 0.002,0.01601 h 0.01 l 0.002,0.01468 h 0.01 v 0.01601 l 0.01,-0.0012 0.002,0.01601 h 0.01 l 0.002,0.01468 h 0.007 l 0.002,0.01602 0.01,-0.0012 0.002,0.01601 0.007,-0.0012 0.002,0.01719 0.01,-0.0012 0.002,0.01601 h 0.01 v 0.01468 h 0.01 l 0.002,0.01602 0.01,-0.0012 0.002,0.01602 0.007,-0.0012 0.002,0.01602 h 0.01 v 0.01601 l 0.01,-0.0012 0.002,0.01601 0.01,-0.0012 0.002,0.01602 h 0.007 l 0.002,0.01468 h 0.01 l 0.002,0.01602 h 0.007 l 0.002,0.01601 0.01,-0.0012 0.002,0.01602 0.007,-0.0012 0.002,0.01601 h 0.01 l 0.002,0.01468 h 0.01 v 0.01601 l 0.01,-0.0012 0.002,0.01601 h 0.007 l 0.002,0.01468 h 0.01 l 0.002,0.01602 0.01,-0.0012 v 0.01602 h 0.01 l 0.002,0.01601 0.0101,-0.0012 0.002,0.01602 h 0.007 l 0.002,0.01468 h 0.01 l 0.002,0.01602 0.007,-0.0012 0.002,0.01601 h 0.01 l 0.002,0.01468 h 0.007 l 0.002,0.01601 0.01,-0.0012 0.002,0.01602 0.01,-0.0012 v 0.01601 h 0.01 l 0.002,0.01601 h 0.007 l 0.002,0.01468 h 0.01 l 0.002,0.01468 h 0.01 v 0.01601 l 0.01,-0.0012 0.002,0.01601 h 0.01 l 0.002,0.01468 h 0.007 l 0.002,0.01602 0.01,-0.0012 0.002,0.01601 h 0.007 l 0.002,0.01468 h 0.01 l 0.002,0.01601 0.007,-0.0012 0.002,0.01719 0.01,-0.0012 0.002,0.01601 0.01,-0.0012 v 0.01601 h 0.01 l 0.002,0.01468 h 0.01 l 0.002,0.01602 h 0.007 l 0.002,0.01468 h 0.01 v 0.01468 h 0.01 l 0.002,0.01601 h 0.0101 l 0.002,0.01468 h 0.01 v 0.01468 l 17.76312,-0.818855 2.9685,-13.028017 3.45957,11.490978 0.007,-0.0012 0.005,0.01468 h 0.007 l 0.005,0.01601 h 0.007 l 0.005,0.01602 h 0.007 l 0.002,0.01468 h 0.007 l 0.005,0.01468 h 0.007 l 0.005,0.01468 h 0.007 l 0.002,0.01601 h 0.007 l 0.005,0.01468 h 0.007 l 0.005,0.01601 0.007,-0.0012 0.005,0.01601 h 0.005 l 0.005,0.01468 h 0.007 l 0.005,0.01602 0.007,-0.0012 0.005,0.01602 0.005,-0.0012 0.005,0.01602 h 0.007 l 0.005,0.01601 h 0.007 l 0.005,0.01468 h 0.007 l 0.005,0.01468 h 0.007 l 0.002,0.01602 h 0.007 l 0.005,0.01468 h 0.007 l 0.005,0.01601 0.005,-0.0012 0.007,0.01601 0.005,-0.0012 0.005,0.01602 h 0.007 l 0.005,0.01468 h 0.007 l 0.005,0.01602 h 0.005 l 0.005,0.01468 h 0.007 l 0.005,0.01468 h 0.007 l 0.005,0.01601 h 0.005 l 0.007,0.01468 h 0.005 l 0.005,0.01468 h 0.007 l 0.005,0.01601 h 0.007 l 0.005,0.01468 h 0.005 l 0.005,0.01601 0.007,-0.0012 0.005,0.01602 h 0.007 l 0.005,0.01468 h 0.007 l 0.005,0.01468 h 0.005 l 0.005,0.01601 h 0.007 l 0.005,0.01468 h 0.007 l 0.002,0.01468 h 0.007 l 0.007,0.01602 h 0.005 l 0.005,0.01601 0.007,-0.0012 0.005,0.01601 0.007,-0.0012 0.002,0.01601 h 0.007 l 0.005,0.01602 h 0.007 l 0.005,0.01468 h 0.007 l 0.005,0.01468 h 0.005 l 0.005,0.01468 h 0.007 l 0.005,0.01602 h 0.007 l 0.005,0.01468 h 0.007 l 0.002,0.01602 0.007,-0.0012 0.005,0.01601 h 0.007 l 0.005,0.01468 h 0.007 l 0.005,0.01601 0.007,-0.0012 0.002,0.01601 h 0.007 l 0.005,0.01468 h 0.007 l 0.005,0.01601 h 0.007 l 0.005,0.01468 h 0.005 l 0.005,0.01468 h 0.007 l 0.005,0.01601 h 0.007 l 0.005,0.01468 h 0.007 l 0.002,0.01601 0.007,-0.0012 0.005,0.01602 0.007,-0.0012 0.005,0.01601 h 0.005 l 0.005,0.01468 h 0.01 l 0.002,0.01601 h 0.007 l 0.005,0.01468 h 0.007 l 0.005,0.01468 h 0.005 l 0.005,0.01602 h 0.007 l 0.005,0.01601 0.007,-0.0012 0.005,0.01601 0.007,-0.0012 0.005,0.01601 h 0.005 l 0.005,0.01601 h 0.007 l 0.005,0.01468 0.007,-0.0012 0.005,0.01601 h 0.005 l 0.005,0.01468 h 0.007 l 0.005,0.01601 h 0.007 l 0.005,0.01468 h 0.007 l 0.005,0.01601 0.005,-0.0012 0.005,0.01601 h 0.007 l 0.005,0.01468 h 0.007 l 0.002,0.01601 0.01,-0.0012 0.005,0.01601 9.92693,-0.45792 9.81399,-35.214444 z m -47.50095,20.82985 -1.54686,0.04298 1.33324,-2.35835 z M 75.489354,56.125918 81.307276,55.854604 77.081641,67.67337 Z m -40.395207,6.274616 c 0.286047,0.249213 0.546312,0.498431 0.773433,0.763607 0.387944,1.055795 0.332697,2.463933 -0.428458,4.705653 -0.996867,2.940269 -2.59529,4.190035 -3.705103,4.72407 z m 4.73757,-14.373542 a 5.4373431,5.4373431 0 0 1 -0.755014,2.290826 z M 65.710968,63.96581 h -1.269412 l 0.930572,-1.943402 z"
     fill="#2566af"
     id="path18"
     style="stroke-width:1.22767" />
  <path
     d="M 52.396906,49.618048 C 53.350803,42.679269 47.88768,38.761778 39.646344,37.908545 37.132076,37.648282 25.335411,38.429077 25.335411,38.429077 L 9.4628862,81.361869 c 0,0 23.8511428,-0.260264 28.9692898,-1.821859 5.116922,-1.560363 9.194007,-4.336122 11.276135,-11.187738 2.080899,-6.851621 -3.989922,-10.233846 -3.989922,-10.233846 0,0 5.724617,-1.561596 6.678517,-8.500378 z M 35.397381,67.831739 c -1.648758,4.856654 -4.94382,5.116923 -4.94382,5.116923 l 3.879431,-11.786849 c 1.582464,1.384812 2.389046,2.767165 1.064389,6.669926 z m 1.985143,-15.932683 2.177881,-6.617133 c 0.820083,3.205443 -0.347429,5.573613 -2.177881,6.617133 z"
     id="path20"
     style="stroke-width:1.22767" />
  <path
     d="m 188.03462,38.391022 -4.23422,14.783582 -4.64918,-14.371085 -12.23863,0.564727 -5.49136,22.21957 -2.0097,-21.870914 -12.8807,0.595418 -12.0827,19.801065 6.25619,-19.532203 -13.69586,0.633476 -7.21993,9.705948 -2.23189,-9.2689 L 78.434516,43.461292 74.514573,53.741784 73.133455,43.706825 59.684344,44.328028 40.255263,79.974606 56.51696,79.2245 l 2.47498,-5.666916 8.846577,-0.347431 1.102452,5.441026 18.413797,-0.849544 7.978617,-24.018108 4.943817,-0.174328 -8.506518,23.988641 15.140838,-0.698543 4.29562,-12.966637 1.64752,11.187745 9.27994,-11.96977 -4.16792,13.239178 22.55105,-1.042291 3.04091,-5.692696 9.36589,-0.346203 0.7452,5.432431 17.73857,-0.818853 3.20054,-14.067856 4.13357,13.72902 9.91464,-0.457919 9.80171,-35.213216 z m -124.968044,25.539186 1.907789,-3.989923 0.693629,3.989923 z M 76.596711,68.872803 74.672942,54.88843 81.71363,54.560642 Z m 72.162349,-8.846583 2.68737,-4.770718 0.43459,4.683555 z"
     id="path22"
     style="stroke-width:1.22767" />
  <path
     d="m 51.036648,49.728537 c 1.192068,-6.045036 -3.491487,-9.109297 -9.36588,-10.047237 -5.874394,-0.936713 -6.385105,0 -15.409694,0 L 11.531511,79.781862 c 0,0 13.111496,-0.510709 21.199375,-0.936713 8.087876,-0.425998 11.664076,-2.979547 14.303566,-7.661877 2.639485,-4.682327 1.616837,-6.214456 0.510709,-8.684529 -1.106131,-2.468838 -4.68233,-4.512905 -4.68233,-4.512905 0,0 6.981749,-2.212259 8.173817,-8.257301 z M 36.988439,67.521138 c -1.787483,7.406523 -8.513879,7.152397 -8.513879,7.152397 l 5.072726,-15.421972 c 2.025652,0.685037 4.787904,2.688594 3.441153,8.269575 z m 3.916264,-18.133892 c -1.158922,3.324527 -3.093725,4.538692 -5.670602,4.735116 L 39.031278,42.57614 c 1.702777,0.936713 3.150201,3.151429 1.873425,6.811106 z"
     fill="#ffffff"
     id="path24"
     style="stroke-width:1.22767" />
  <path
     d="m 94.286183,52.70809 6.555747,-0.426003 3.06304,-8.543344 -24.533743,1.119634 -3.21894,8.532295 7.577168,-0.255356 L 75.98164,73.739278 72.055559,45.193531 60.316596,45.730022 42.52277,78.50754 l 13.002237,-0.602784 2.578101,-5.782315 10.898018,-0.340067 1.03,5.450848 16.222422,-0.752558 z m -33.544816,12.856144 5.108334,-10.55795 1.278004,10.302595 z m 128.180863,-25.704921 -5.06905,17.700521 -5.63009,-17.213136 -10.36519,0.473879 -6.99158,27.127792 -2.68613,-26.685829 -11.01834,0.50334 -17.45867,28.567848 8.97303,-28.181129 -11.02692,0.50334 -8.5863,11.585508 -2.53392,-11.078479 -11.20615,0.511939 -11.537631,32.455867 12.152681,-0.563499 5.71726,-17.154211 2.04283,13.282145 11.41119,-14.21763 -5.35142,17.447626 19.8109,-0.918294 3.07899,-5.717251 11.49221,-0.510711 0.76482,5.51714 15.45882,-0.715727 4.04271,-17.402202 5.23969,16.970062 7.95529,-0.368305 8.93866,-32.268035 z m -42.70199,21.702722 6.30161,-10.896785 0.85078,10.556719 z"
     fill="#ffffff"
     id="path26"
     style="stroke-width:1.22767" />
</svg>
