<?xml version="1.0" encoding="UTF-8" standalone="no"?>
<svg
   version="1.1"
   viewBox="0 0 734 370"
   id="svg100"
   sodipodi:docname="California Games.svg"
   inkscape:version="1.1.2 (0a00cf5339, 2022-02-04)"
   xmlns:inkscape="http://www.inkscape.org/namespaces/inkscape"
   xmlns:sodipodi="http://sodipodi.sourceforge.net/DTD/sodipodi-0.dtd"
   xmlns:xlink="http://www.w3.org/1999/xlink"
   xmlns="http://www.w3.org/2000/svg"
   xmlns:svg="http://www.w3.org/2000/svg">
  <defs
     id="defs104">
    <linearGradient
       inkscape:collect="always"
       id="linearGradient4634">
      <stop
         style="stop-color:#fced0d;stop-opacity:1;"
         offset="0"
         id="stop4630" />
      <stop
         style="stop-color:#dfb229;stop-opacity:1"
         offset="1"
         id="stop4632" />
    </linearGradient>
    <linearGradient
       inkscape:collect="always"
       xlink:href="#linearGradient4634"
       id="linearGradient4636"
       x1="439.18631"
       y1="272.05118"
       x2="442.22986"
       y2="213.70132"
       gradientUnits="userSpaceOnUse" />
  </defs>
  <sodipodi:namedview
     id="namedview102"
     pagecolor="#ffffff"
     bordercolor="#666666"
     borderopacity="1.0"
     inkscape:pageshadow="2"
     inkscape:pageopacity="0.0"
     inkscape:pagecheckerboard="0"
     showgrid="false"
     inkscape:zoom="0.62289826"
     inkscape:cx="473.59259"
     inkscape:cy="374.05788"
     inkscape:window-width="1920"
     inkscape:window-height="1011"
     inkscape:window-x="1920"
     inkscape:window-y="32"
     inkscape:window-maximized="1"
     inkscape:current-layer="svg100" />
  <g
     stroke-width="2.00"
     fill="none"
     stroke-linecap="butt"
     id="g26">
    <path
       stroke="#a1352d"
       vector-effect="non-scaling-stroke"
       d="   M 352.79 215.75   Q 351.16 219.48 351.54 223.50"
       id="path2" />
    <path
       stroke="#f58209"
       vector-effect="non-scaling-stroke"
       d="   M 470.43 319.88   Q 475.52 320.81 480.01 320.53   C 491.27 319.84 502.68 319.93 514.00 320.01   A 1.02 1.01 19.3 0 0 514.82 319.62   Q 515.99 318.16 516.69 315.43   Q 529.38 266.33 540.96 218.13   Q 541.46 216.08 539.34 216.05   Q 518.36 215.83 498.64 216.17   C 496.87 216.20 495.62 217.10 495.21 218.74   C 487.18 250.93 478.55 282.95 470.29 315.09   C 469.95 316.39 470.06 317.75 469.85 319.06   A 0.72 0.72 0.0 0 0 470.43 319.88"
       id="path4" />
    <path
       stroke="#f58209"
       vector-effect="non-scaling-stroke"
       d="   M 526.67 319.82   Q 546.63 320.21 566.60 319.91   C 570.41 319.85 572.34 320.31 573.36 316.43   Q 586.98 264.44 593.04 238.62   Q 595.23 229.26 597.77 220.01   Q 598.29 218.09 596.89 216.53   A 1.18 1.17 69.2 0 0 596.05 216.15   Q 577.24 215.83 558.44 216.09   Q 555.50 216.13 552.78 217.11   A 0.96 0.95 88.9 0 0 552.17 217.75   C 550.41 224.05 549.07 230.88 547.43 236.69   Q 536.51 275.58 526.45 314.69   Q 525.74 317.45 526.07 319.32   A 0.62 0.61 -4.5 0 0 526.67 319.82"
       id="path6" />
    <path
       stroke="#f58209"
       vector-effect="non-scaling-stroke"
       d="   M 275.13 321.66   Q 277.32 322.07 278.75 322.01   Q 301.15 321.08 322.95 320.92   A 1.29 1.28 -83.5 0 0 324.20 319.92   C 330.56 292.42 337.62 265.40 343.57 237.90   Q 345.66 228.25 348.59 218.78   A 0.50 0.50 0.0 0 0 348.26 218.15   Q 344.72 217.07 341.00 217.04   Q 323.60 216.92 306.18 217.02   Q 302.63 217.05 299.08 218.00   A 0.81 0.81 0.0 0 0 298.50 218.62   Q 296.36 228.96 291.46 247.49   Q 287.63 261.99 275.23 315.70   Q 274.65 318.19 274.27 320.41   A 1.08 1.08 0.0 0 0 275.13 321.66"
       id="path8" />
    <path
       stroke="#f58209"
       vector-effect="non-scaling-stroke"
       d="   M 336.07 320.82   Q 358.33 321.19 381.26 320.81   Q 384.80 320.76 385.69 316.69   Q 387.55 308.25 394.91 280.23   Q 402.86 249.99 409.86 219.11   A 1.41 1.40 10.0 0 0 408.66 217.40   C 396.23 215.96 382.15 216.97 369.57 217.08   Q 365.19 217.12 361.13 218.19   A 0.87 0.87 0.0 0 0 360.51 218.81   Q 350.49 257.23 341.20 295.83   C 339.54 302.71 336.60 311.34 334.93 319.40   A 1.18 1.18 0.0 0 0 336.07 320.82"
       id="path10" />
    <path
       stroke="#f58209"
       vector-effect="non-scaling-stroke"
       d="   M 480.71 218.44   L 481.50 217.87   Q 482.69 217.02 481.23 217.02   Q 453.36 216.97 425.50 217.02   C 423.63 217.02 422.07 217.45 421.57 219.31   C 413.37 249.86 404.27 282.97 396.33 318.04   A 1.28 1.27 -54.1 0 0 396.47 318.96   Q 397.62 320.96 399.75 320.98   Q 411.10 321.11 452.45 321.12   Q 456.88 321.12 457.96 317.20   Q 466.60 285.75 476.21 246.70   C 478.23 238.47 479.78 229.25 481.71 220.53   A 0.95 0.94 25.5 0 0 481.37 219.58   L 480.69 219.04   A 0.37 0.37 0.0 0 1 480.71 218.44"
       id="path12" />
    <path
       stroke="#f58209"
       vector-effect="non-scaling-stroke"
       d="   M 493.81 299.63   A 1.23 1.22 12.6 0 1 492.91 298.22   Q 495.55 283.94 500.02 270.13   A 1.94 1.93 3.3 0 1 501.49 268.83   Q 509.77 267.20 518.09 268.72   A 1.19 1.18 -57.6 0 0 519.02 268.51   C 521.02 267.05 521.63 262.99 522.02 260.59   Q 522.37 258.41 520.16 258.34   L 505.13 257.89   A 1.31 1.31 0.0 0 1 503.89 256.34   C 504.51 252.98 507.79 234.46 511.23 233.73   Q 516.41 232.62 525.99 233.09   Q 527.74 233.18 529.30 232.30   A 1.41 1.41 0.0 0 0 529.94 231.49   L 531.82 224.96   Q 532.47 222.72 530.14 222.75   L 501.97 223.06   A 0.74 0.73 6.7 0 0 501.27 223.61   C 494.05 251.95 487.44 280.41 480.06 308.64   A 1.01 1.01 0.0 0 0 481.03 309.91   L 507.97 310.14   A 0.92 0.90 -77.0 0 0 508.81 309.60   Q 510.72 305.44 510.79 300.87   A 0.57 0.57 0.0 0 0 510.26 300.29   C 505.15 299.85 498.49 300.84 493.81 299.63"
       id="path14" />
    <path
       stroke="#f58209"
       vector-effect="non-scaling-stroke"
       d="   M 541.44 307.81   C 550.55 313.74 565.31 312.77 569.53 301.25   C 571.74 295.22 575.60 283.94 572.70 277.80   Q 570.76 273.71 564.89 263.30   Q 561.96 258.11 561.37 255.31   C 560.11 249.25 562.27 238.56 569.50 237.01   Q 571.84 236.51 573.76 238.62   A 1.11 1.11 0.0 0 1 574.03 239.53   L 572.93 246.67   Q 572.62 248.69 574.63 248.99   Q 578.65 249.61 582.53 248.90   A 0.98 0.95 -81.3 0 0 583.24 248.36   C 589.60 235.03 589.79 221.17 570.16 222.89   C 553.22 224.38 549.28 239.70 548.79 254.26   C 548.65 258.73 551.20 262.13 553.13 265.92   C 556.31 272.17 563.09 279.75 562.63 287.08   C 562.40 290.70 557.00 305.06 551.08 299.90   C 547.02 296.38 550.06 289.58 551.05 285.15   A 0.93 0.93 0.0 0 0 550.14 284.02   L 542.10 283.99   A 0.77 0.77 0.0 0 0 541.35 284.57   C 539.78 290.53 534.46 303.27 541.44 307.81"
       id="path16" />
    <path
       stroke="#f58209"
       vector-effect="non-scaling-stroke"
       d="   M 293.93 308.32   Q 296.95 310.56 299.52 311.00   Q 319.13 314.35 323.35 295.46   Q 326.84 279.84 331.33 263.52   Q 332.02 260.99 329.40 261.00   L 312.67 261.03   A 1.41 1.40 -82.4 0 0 311.32 262.07   L 309.34 269.50   A 0.60 0.60 0.0 0 0 309.69 270.21   C 313.72 271.85 317.93 269.10 316.86 275.96   C 315.72 283.24 312.81 304.78 303.19 300.93   C 299.01 299.26 299.31 292.50 300.25 288.99   C 303.97 275.14 307.48 262.55 309.84 250.57   Q 311.08 244.26 315.29 239.55   C 317.72 236.83 322.16 236.00 324.21 239.27   C 325.72 241.67 324.37 245.34 323.23 247.80   A 1.37 1.37 0.0 0 0 324.31 249.74   C 327.27 250.10 333.06 251.24 334.47 247.48   C 337.25 240.09 341.69 227.31 330.02 224.71   C 316.88 221.79 304.63 227.96 301.27 241.16   Q 294.87 266.32 289.88 291.72   C 288.47 298.88 288.07 303.98 293.93 308.32"
       id="path18" />
    <path
       stroke="#f58209"
       vector-effect="non-scaling-stroke"
       d="   M 368.69 295.01   Q 372.08 295.08 374.58 297.07   A 1.07 1.07 0.0 0 1 374.99 297.91   L 375.03 309.30   A 1.58 1.58 0.0 0 0 376.60 310.88   L 384.00 310.92   A 0.67 0.66 -88.6 0 0 384.66 310.28   Q 385.90 277.13 386.24 243.99   C 386.30 238.08 387.05 231.35 385.71 224.58   A 0.94 0.93 -83.1 0 0 385.19 223.91   Q 381.07 222.02 376.95 223.96   A 1.66 1.61 -87.1 0 0 376.22 224.64   Q 374.79 227.18 373.65 229.85   Q 359.01 264.02 343.61 297.85   C 341.65 302.16 340.67 305.80 340.02 310.22   A 0.69 0.68 -86.4 0 0 340.70 311.00   L 348.36 310.96   A 1.02 1.01 13.2 0 0 349.27 310.40   Q 352.31 304.34 355.39 298.31   C 357.75 293.68 363.25 294.90 368.69 295.01"
       id="path20" />
    <path
       stroke="#f58209"
       vector-effect="non-scaling-stroke"
       d="   M 443.07 248.33   Q 442.76 247.65 442.37 245.72   Q 440.27 235.33 438.52 225.58   A 1.75 1.74 -3.1 0 0 436.91 224.15   L 428.21 223.55   A 1.00 0.99 23.3 0 0 427.42 223.86   Q 426.19 225.20 425.75 227.05   Q 416.47 266.39 406.37 305.53   Q 405.94 307.20 405.67 309.22   A 0.69 0.68 -74.0 0 0 406.06 309.94   C 409.72 311.67 414.48 312.47 415.91 307.43   Q 423.44 280.88 430.47 253.82   A 0.74 0.74 0.0 0 1 431.92 253.86   C 433.24 260.39 433.95 269.30 436.55 275.55   A 0.74 0.74 0.0 0 0 437.83 275.71   L 453.17 255.35   A 0.45 0.44 -27.9 0 1 453.97 255.59   Q 454.00 256.31 453.81 257.21   Q 448.46 281.87 441.94 306.23   Q 441.73 307.04 441.96 309.42   A 0.70 0.69 86.4 0 0 442.66 310.04   L 450.90 309.91   A 0.78 0.78 0.0 0 0 451.64 309.33   C 460.88 274.52 465.38 253.55 473.82 226.21   A 1.54 1.54 0.0 0 0 472.48 224.22   C 469.99 224.01 462.23 223.07 460.75 225.52   Q 453.61 237.41 445.07 248.57   A 1.17 1.17 0.0 0 1 443.07 248.33"
       id="path22" />
    <path
       stroke="#f58209"
       vector-effect="non-scaling-stroke"
       d="   M 363.23 285.57   C 365.88 286.24 374.99 286.87 374.99 282.25   Q 375.01 268.77 374.99 255.48   A 0.37 0.37 0.0 0 0 374.29 255.33   L 361.84 282.68   A 2.09 2.09 0.0 0 0 363.23 285.57"
       id="path24" />
  </g>
  <g
     fill="#1022e0"
     id="g58">
    <path
       d="   M 99.55 100.56   C 79.61 119.28 60.34 144.30 52.89 171.03   C 49.30 183.93 45.91 200.82 50.78 213.77   C 53.95 222.21 57.11 227.53 65.70 230.94   C 88.37 239.96 119.76 207.96 128.95 189.69   C 131.04 185.52 129.14 182.64 129.46 178.43   C 131.21 155.38 142.25 136.18 159.17 121.00   C 177.90 104.19 209.20 94.09 233.64 103.00   A 0.53 0.53 0.0 0 1 233.95 103.71   L 225.65 122.95   A 1.71 1.71 0.0 0 1 224.09 123.99   C 220.92 124.04 217.39 123.24 214.52 123.25   C 187.49 123.38 166.21 140.73 158.14 165.72   Q 157.72 167.02 157.73 171.72   C 157.75 181.26 169.51 180.72 174.93 177.42   C 186.81 170.19 197.43 151.75 203.29 139.42   A 1.23 1.22 3.7 0 1 204.06 138.75   L 225.99 132.10   A 0.76 0.76 0.0 0 1 226.97 132.79   Q 227.07 135.08 226.53 137.26   Q 219.25 166.45 212.03 195.66   C 211.49 197.83 212.05 200.94 208.54 200.97   Q 197.77 201.05 186.79 200.96   A 1.59 1.59 0.0 0 1 185.25 199.01   L 185.98 195.94   A 0.60 0.59 76.5 0 0 185.02 195.35   C 170.88 207.33 153.61 211.45 138.40 198.20   A 0.40 0.40 0.0 0 0 137.78 198.69   L 146.88 216.19   A 1.21 1.21 0.0 0 1 146.82 217.43   Q 142.36 224.10 137.29 230.41   C 128.60 241.20 117.50 250.61 106.32 258.79   C 101.60 262.25 96.49 264.46 91.12 267.12   C 80.97 272.14 66.04 271.42 55.28 268.89   Q 38.35 264.91 26.25 250.75   C 11.84 233.90 10.21 213.50 12.51 192.01   C 13.39 183.86 15.84 176.29 18.25 167.76   C 28.20 132.64 49.54 100.07 76.51 75.79   C 102.56 52.33 149.29 25.51 185.90 36.80   C 191.85 38.63 202.63 42.72 205.97 48.38   A 1.19 1.18 37.8 0 1 206.09 49.31   Q 205.76 50.51 204.96 51.47   Q 196.89 61.14 188.79 70.79   Q 187.50 72.33 185.90 73.51   A 0.79 0.79 0.0 0 1 185.06 73.58   C 167.55 64.24 150.26 66.47 133.40 75.89   Q 114.73 86.32 99.55 100.56   Z"
       id="path28" />
    <path
       d="   M 415.62 124.69   C 424.64 134.04 424.40 153.59 420.98 165.49   Q 416.02 182.70 403.83 193.59   C 387.29 208.36 362.15 210.99 342.98 199.76   C 313.07 182.24 323.89 145.05 344.16 125.07   A 0.56 0.56 0.0 0 0 343.83 124.11   Q 337.21 123.28 330.60 124.09   A 0.74 0.73 3.3 0 0 329.97 124.64   L 310.48 200.38   A 0.69 0.68 5.6 0 1 309.84 200.90   Q 297.84 201.36 285.88 200.52   A 1.01 1.01 0.0 0 1 284.97 199.27   C 287.84 187.69 291.39 175.82 293.97 164.73   Q 298.44 145.52 303.20 126.04   Q 303.87 123.29 301.04 123.35   L 296.87 123.43   A 0.66 0.65 -83.6 0 0 296.25 123.93   Q 290.59 146.29 285.14 168.64   Q 284.91 169.58 283.61 173.37   C 282.91 175.44 282.58 178.08 282.11 179.87   Q 279.38 190.18 276.77 200.50   A 0.70 0.69 -82.0 0 1 276.09 201.02   L 253.53 200.91   A 1.37 1.36 -83.8 0 1 252.21 199.26   Q 254.25 189.69 256.76 180.81   C 263.22 157.91 268.39 134.63 273.99 111.50   Q 275.31 106.06 276.69 102.53   A 0.84 0.84 0.0 0 1 277.47 102.00   L 308.01 102.00   A 0.80 0.79 -80.8 0 0 308.76 101.45   C 312.56 89.58 314.24 76.34 323.93 65.54   C 336.59 51.43 366.46 42.06 379.68 60.83   C 389.43 74.68 378.52 90.66 367.69 99.40   A 0.90 0.90 0.0 0 0 368.26 101.00   L 398.53 101.00   A 0.66 0.66 0.0 0 1 399.05 102.07   C 394.57 107.89 388.90 117.56 382.17 120.53   C 366.65 127.38 350.69 144.96 352.12 163.04   C 353.79 184.08 377.20 186.61 389.60 173.83   C 400.19 162.92 403.80 141.81 388.99 132.12   A 0.70 0.69 -66.3 0 1 388.70 131.36   C 389.99 126.76 397.66 118.88 401.07 114.94   A 1.84 1.84 0.0 0 1 403.37 114.55   C 407.77 117.07 412.64 121.60 415.62 124.69   Z   M 344.94 79.94   C 341.23 84.83 336.37 93.50 337.06 99.35   A 0.71 0.70 -87.8 0 0 337.62 99.96   Q 339.15 100.26 340.54 99.53   C 346.11 96.62 363.99 84.64 357.51 76.79   C 353.90 72.43 347.53 76.51 344.94 79.94   Z"
       id="path30" />
    <path
       d="   M 611.80 51.64   A 0.98 0.97 9.7 0 1 612.72 51.00   L 635.50 51.00   A 0.81 0.81 0.0 0 1 636.28 52.01   Q 631.68 69.48 627.46 86.24   Q 627.05 87.86 626.54 88.60   A 0.94 0.94 0.0 0 1 625.77 89.00   L 603.70 89.00   A 0.94 0.93 7.0 0 1 602.79 87.84   Q 606.67 72.04 610.38 56.28   Q 610.90 54.08 611.80 51.64   Z"
       id="path32" />
    <path
       d="   M 218.57 200.30   Q 217.83 198.44 218.70 195.18   C 221.36 185.22 224.76 175.00 227.13 165.52   Q 240.70 111.01 255.11 56.72   Q 255.71 54.43 257.42 53.12   A 1.45 1.39 -61.5 0 1 258.33 52.83   L 279.14 53.37   A 0.96 0.95 7.9 0 1 280.05 54.56   C 267.79 103.24 254.96 151.72 243.28 200.62   A 0.52 0.52 0.0 0 1 242.76 201.02   L 219.50 200.94   A 1.02 1.01 -10.4 0 1 218.57 200.30   Z"
       id="path34" />
    <path
       d="   M 290.17 91.93   C 287.22 91.74 283.65 92.31 280.55 91.91   A 1.29 1.29 0.0 0 1 279.47 90.32   L 288.60 53.75   A 0.99 0.99 0.0 0 1 289.56 53.00   L 312.24 53.00   A 1.11 1.11 0.0 0 1 313.32 54.37   Q 309.07 71.98 304.35 89.33   Q 303.64 91.94 300.83 92.05   Q 295.49 92.26 290.17 91.93   Z"
       id="path36" />
    <path
       d="   M 628.76 127.75   C 650.44 102.87 683.08 91.46 715.27 100.46   A 0.81 0.81 0.0 0 1 715.74 101.66   L 704.18 120.36   A 1.55 1.55 0.0 0 1 702.73 121.09   Q 662.37 117.61 642.04 151.51   C 638.21 157.91 633.89 170.02 641.25 175.83   C 647.69 180.92 655.41 176.06 660.70 171.20   Q 677.96 155.33 686.83 133.65   A 1.11 1.10 -86.1 0 1 687.57 133.00   L 708.42 127.68   A 0.48 0.48 0.0 0 1 709.01 128.14   Q 709.01 131.55 707.83 136.07   Q 699.64 167.41 690.69 198.59   A 0.57 0.57 0.0 0 1 690.14 199.00   L 669.25 198.98   A 1.63 1.63 0.0 0 1 667.63 197.20   L 668.08 192.24   A 0.61 0.61 0.0 0 0 667.03 191.76   C 654.29 204.74 632.23 208.38 618.52 194.71   C 600.60 176.84 615.46 143.02 628.76 127.75   Z"
       id="path38" />
    <path
       d="   M 541.36 108.97   A 1.59 1.59 0.0 0 0 543.27 108.93   C 552.67 101.55 566.16 94.22 578.40 99.09   C 591.91 104.46 589.97 116.98 586.90 128.59   Q 577.72 163.31 568.81 198.15   A 1.13 1.12 -82.7 0 1 567.72 199.00   L 544.24 199.00   A 1.46 1.46 0.0 0 1 542.83 197.17   Q 550.86 166.23 558.27 135.25   C 559.27 131.05 560.74 122.73 553.33 122.78   C 546.05 122.83 534.77 140.22 532.55 145.80   Q 527.03 159.68 523.98 174.34   C 523.28 177.70 521.58 180.76 521.12 184.22   Q 520.69 187.47 519.77 190.62   A 1.33 1.32 82.0 0 1 519.20 191.38   Q 517.58 192.40 516.26 192.78   C 508.95 194.92 501.26 197.89 493.80 199.14   A 0.82 0.82 0.0 0 1 492.88 198.09   C 495.34 189.93 497.74 181.97 499.84 173.59   Q 513.45 119.48 517.21 103.69   C 517.75 101.44 518.40 100.89 520.79 100.76   Q 531.41 100.14 542.03 100.43   A 0.52 0.52 0.0 0 1 542.53 100.95   C 542.53 102.58 540.48 108.33 541.36 108.97   Z"
       id="path40" />
    <path
       d="   M 464.04 116.63   A 0.34 0.34 0.0 0 0 464.63 116.83   C 473.95 106.04 487.96 93.72 503.22 100.11   C 512.47 103.99 510.82 112.73 508.69 120.49   Q 505.99 130.35 503.20 140.20   C 502.22 143.68 500.74 142.50 498.39 143.37   Q 489.89 146.48 481.09 149.03   A 1.27 1.26 89.4 0 1 479.52 147.49   L 483.88 130.72   A 1.48 1.44 -50.9 0 0 483.79 129.74   C 477.71 116.60 461.76 140.13 458.48 145.64   C 450.14 159.69 447.11 177.36 442.68 192.63   A 0.81 0.81 0.0 0 1 442.14 193.18   L 417.98 200.21   A 1.40 1.39 -3.3 0 1 416.21 198.64   C 417.44 191.38 420.26 182.68 421.73 177.22   Q 431.97 139.28 442.01 101.74   A 1.10 1.08 7.4 0 1 443.08 100.93   L 466.31 101.03   A 0.97 0.96 6.1 0 1 467.25 102.19   C 466.38 106.34 463.75 112.56 464.04 116.63   Z"
       id="path42" />
    <path
       d="   M 599.56 100.97   A 1.31 1.30 -82.5 0 1 600.82 100.00   L 623.15 100.00   A 0.44 0.44 0.0 0 1 623.58 100.53   C 619.32 121.87 612.74 142.63 608.34 163.92   Q 604.78 181.19 599.93 198.54   A 1.17 1.16 8.3 0 1 598.78 199.39   L 575.94 198.94   A 1.35 1.34 -81.8 0 1 574.67 197.23   C 583.45 165.31 591.14 133.12 599.56 100.97   Z"
       id="path44" />
    <path
       d="m 665.12052,238.1043 -11.12,5.98 a 0.47,0.47 0 0 1 -0.62,-0.67 l 5.83,-9.02 a 2.08,2.07 39.1 0 0 -0.27,-2.57 l -4.06,-4.08 a 0.34,0.34 0 0 1 0.24,-0.58 h 8.6 a 1.12,1.11 17 0 0 0.92,-0.48 l 7.07,-10.23 a 0.74,0.74 0 0 1 1.31,0.2 c 1,3.2 0.54,6.48 1.38,9.84 a 0.85,0.85 0 0 0 0.83,0.65 l 7.69,0.02 a 0.4,0.4 0 0 1 0.21,0.74 l -7.11,4.59 a 1.1,1.1 0 0 0 -0.5,0.99 l 0.65,12.38 a 0.41,0.41 0 0 1 -0.71,0.3 q -4.22,-4.51 -9.29,-8 a 1.02,1.01 48 0 0 -1.05,-0.06 z"
       id="path54" />
    <path
       d="m 154.73072,238.38714 -11.12,5.98 a 0.47,0.47 0 0 1 -0.62,-0.67 l 5.83,-9.02 a 2.08,2.07 39.1 0 0 -0.27,-2.57 l -4.06,-4.08 a 0.34,0.34 0 0 1 0.24,-0.58 h 8.6 a 1.12,1.11 17 0 0 0.92,-0.48 l 7.07,-10.23 a 0.74,0.74 0 0 1 1.31,0.2 c 1,3.2 0.54,6.48 1.38,9.84 a 0.85,0.85 0 0 0 0.83,0.65 l 7.69,0.02 a 0.4,0.4 0 0 1 0.21,0.74 l -7.11,4.59 a 1.1,1.1 0 0 0 -0.5,0.99 l 0.65,12.38 a 0.41,0.41 0 0 1 -0.71,0.3 q -4.22,-4.51 -9.29,-8 a 1.02,1.01 48 0 0 -1.05,-0.06 z"
       id="path54-7" />
    <path
       d="m 192.29818,238.3956 -11.12,5.98 a 0.47,0.47 0 0 1 -0.62,-0.67 l 5.83,-9.02 a 2.08,2.07 39.1 0 0 -0.27,-2.57 l -4.06,-4.08 a 0.34,0.34 0 0 1 0.24,-0.58 h 8.6 a 1.12,1.11 17 0 0 0.92,-0.48 l 7.07,-10.23 a 0.74,0.74 0 0 1 1.31,0.2 c 1,3.2 0.54,6.48 1.38,9.84 a 0.85,0.85 0 0 0 0.83,0.65 l 7.69,0.02 a 0.4,0.4 0 0 1 0.21,0.74 l -7.11,4.59 a 1.1,1.1 0 0 0 -0.5,0.99 l 0.65,12.38 a 0.41,0.41 0 0 1 -0.71,0.3 q -4.22,-4.51 -9.29,-8 a 1.02,1.01 48 0 0 -1.05,-0.06 z"
       id="path54-5" />
    <path
       d="m 229.29027,238.48476 -11.12,5.98 a 0.47,0.47 0 0 1 -0.62,-0.67 l 5.83,-9.02 a 2.08,2.07 39.1 0 0 -0.27,-2.57 l -4.06,-4.08 a 0.34,0.34 0 0 1 0.24,-0.58 h 8.6 a 1.12,1.11 17 0 0 0.92,-0.48 l 7.07,-10.23 a 0.74,0.74 0 0 1 1.31,0.2 c 1,3.2 0.54,6.48 1.38,9.84 a 0.85,0.85 0 0 0 0.83,0.65 l 7.69,0.02 a 0.4,0.4 0 0 1 0.21,0.74 l -7.11,4.59 a 1.1,1.1 0 0 0 -0.5,0.99 l 0.65,12.38 a 0.41,0.41 0 0 1 -0.71,0.3 q -4.22,-4.51 -9.29,-8 a 1.02,1.01 48 0 0 -1.05,-0.06 z"
       id="path54-3" />
    <path
       d="m 265.35959,238.38972 -11.12,5.98 a 0.47,0.47 0 0 1 -0.62,-0.67 l 5.83,-9.02 a 2.08,2.07 39.1 0 0 -0.27,-2.57 l -4.06,-4.08 a 0.34,0.34 0 0 1 0.24,-0.58 h 8.6 a 1.12,1.11 17 0 0 0.92,-0.48 l 7.07,-10.23 a 0.74,0.74 0 0 1 1.31,0.2 c 1,3.2 0.54,6.48 1.38,9.84 a 0.85,0.85 0 0 0 0.83,0.65 l 7.69,0.02 a 0.4,0.4 0 0 1 0.21,0.74 l -7.11,4.59 a 1.1,1.1 0 0 0 -0.5,0.99 l 0.65,12.38 a 0.41,0.41 0 0 1 -0.71,0.3 q -4.22,-4.51 -9.29,-8 a 1.02,1.01 48 0 0 -1.05,-0.06 z"
       id="path54-56" />
    <path
       d="m 623.03969,237.96348 -11.12,5.98 a 0.47,0.47 0 0 1 -0.62,-0.67 l 5.83,-9.02 a 2.08,2.07 39.1 0 0 -0.27,-2.57 l -4.06,-4.08 a 0.34,0.34 0 0 1 0.24,-0.58 h 8.6 a 1.12,1.11 17 0 0 0.92,-0.48 l 7.07,-10.23 a 0.74,0.74 0 0 1 1.31,0.2 c 1,3.2 0.54,6.48 1.38,9.84 a 0.85,0.85 0 0 0 0.83,0.65 l 7.69,0.02 a 0.4,0.4 0 0 1 0.21,0.74 l -7.11,4.59 a 1.1,1.1 0 0 0 -0.5,0.99 l 0.65,12.38 a 0.41,0.41 0 0 1 -0.71,0.3 q -4.22,-4.51 -9.29,-8 a 1.02,1.01 48 0 0 -1.05,-0.06 z"
       id="path54-2" />
  </g>
  <g
     fill="#ed1605"
     id="g76">
    <path
       d="m 352.79,215.75 c 0.42023,2.64981 -0.91332,5.11139 -1.25,7.75 l -1.09,4.7 c -0.0737,0.31386 0.15289,0.62071 0.48,0.65 l 2.14,0.14 c 0.28248,0.0175 0.53844,-0.17131 0.61,-0.45 l 3.52,-14 c 0.0746,-0.31743 0.36485,-0.54134 0.7,-0.54 l 55.29,0.01 c 1.09354,-0.002 1.91492,0.99779 1.7,2.07 l -2.36,12.09 c -0.0663,0.36115 0.19399,0.70051 0.56,0.73 l 1.64,0.12 c 0.51726,0.0386 0.98229,-0.30271 1.09,-0.8 l 2.9,-13.1 c 0.14543,-0.65508 0.72356,-1.12091 1.39,-1.12 h 67.88 c 0.28537,-0.002 0.53459,0.19754 0.6,0.48 0.64,2.97 -1.58,10.21 -2.21,13.46 -0.0746,0.35958 0.14961,0.71562 0.51,0.81 l 0.96,0.24 c 0.33452,0.0883 0.6766,-0.11422 0.76,-0.45 l 3.39,-13.5 c 0.15442,-0.61801 0.69939,-1.06131 1.34,-1.09 16.2,-0.74 32.5,-1.03667 48.9,-0.89 1.57333,0.0133 2.82667,0.41 3.76,1.19 0.24492,0.20891 0.34983,0.53528 0.27,0.84 l -2.97,11.89 c -0.0642,0.26061 0.0494,0.53259 0.28,0.67 l 1.57,0.91 c 0.27036,0.15788 0.61532,-0.002 0.67,-0.31 0.57,-3.16 1.83,-10.79 4.35,-14.57 0.17479,-0.26293 0.47148,-0.42066 0.79,-0.42 14.77333,-0.1 29.53333,-0.15333 44.28,-0.16 2.18667,0 4.36333,0.12667 6.53,0.38 0.42193,0.0477 0.72614,0.42345 0.68,0.84 -0.4,4.06667 -1.19667,8.06 -2.39,11.98 -0.36754,1.20403 0.47888,2.4396 1.74,2.54 l 2.59,0.21 c 1.51333,0.11333 2.08667,0.90667 1.72,2.38 -6.92667,27.66 -13.92,55.18 -20.98,82.56 -1.26,4.87 -4.28,12.71 -4.66,18.02 -0.23,3.26 -2.05,2.92 -4.91,2.94 -13.72,0.0733 -27.41333,0.08 -41.08,0.02 -0.4614,-0.001 -0.80254,-0.43013 -0.7,-0.88 l 2.15,-9.34 c 0.0695,-0.30479 -0.11963,-0.60642 -0.42,-0.67 -1.63333,-0.34667 -3.15667,-0.16333 -4.57,0.55 -0.28024,0.14065 -0.48757,0.39527 -0.57,0.7 l -2.19,8.34 c -0.20458,0.77803 -0.91113,1.32027 -1.72,1.32 L 478.63,335 c -0.48549,-0.003 -0.85994,-0.42421 -0.8,-0.9 l 1.07,-9.24 c 0.0396,-0.32778 -0.15859,-0.63566 -0.47,-0.73 -2.38,-0.74 -3.57,-0.32 -4.15,2.21 -0.62,2.72 -1.38333,5.37667 -2.29,7.97 -0.10203,0.30667 -0.38684,0.51526 -0.71,0.52 -22.27333,0.51333 -44.54667,0.66 -66.82,0.44 -0.47604,4.9e-4 -0.71132,-0.57815 -0.37,-0.91 l 0.58,-0.57 c 0.21138,-0.2178 0.32973,-0.50829 0.33,-0.81 v -7.96 c -2.5e-4,-0.35106 -0.2093,-0.66661 -0.53,-0.8 -5.07,-2.13 -5.98,7.15 -6.86,10.38 -0.22517,0.82549 -0.97435,1.39864 -1.83,1.4 h -49.87 c -0.99333,0.003 -1.77972,-0.8433 -1.71,-1.84 l 0.57,-8.33 c 0.0177,-0.29411 -0.13429,-0.57084 -0.39,-0.71 -1.35333,-0.76 -2.75667,-0.82 -4.21,-0.18 -0.27745,0.12251 -0.501,0.33896 -0.63,0.61 -1.46,2.95 -1.31,6.36 -2.71,9.19 -0.36819,0.75314 -1.13492,1.23332 -1.98,1.24 l -54.25,0.31 c -0.94356,0.005 -1.68154,-0.8119 -1.58,-1.75 l 0.9,-8.39 c 0.0769,-0.74754 -0.50851,-1.39803 -1.26,-1.4 h -7.21 c -0.68062,0.002 -1.18994,-0.62392 -1.05,-1.29 1.50667,-7.12 3.11667,-14.12333 4.83,-21.01 7.09333,-28.54667 14.09667,-57.11667 21.01,-85.71 0.57,-2.35 2.68,-1.68 4.42,-1.71 4.86667,-0.0733 9.72333,-0.25333 14.57,-0.54 11.74,-0.69 22.48,-0.5 33.75,-0.45 1.75333,0.007 3.02333,0.57667 3.81,1.71 z m 117.64,104.13 c 3.39333,0.62 6.58667,0.83667 9.58,0.65 11.26,-0.69 22.67,-0.6 33.99,-0.52 0.32075,0.006 0.62456,-0.13878 0.82,-0.39 0.78,-0.97333 1.40333,-2.37 1.87,-4.19 8.46,-32.73333 16.55,-65.16667 24.27,-97.3 0.33333,-1.36667 -0.20667,-2.06 -1.62,-2.08 -13.98667,-0.14667 -27.55333,-0.10667 -40.7,0.12 -1.77,0.03 -3.02,0.93 -3.43,2.57 -8.03,32.19 -16.66,64.21 -24.92,96.35 -0.34,1.3 -0.23,2.66 -0.44,3.97 -0.0607,0.38532 0.19646,0.74891 0.58,0.82 z m 56.24,-0.06 c 13.30667,0.26 26.61667,0.29 39.93,0.09 3.81,-0.06 5.74,0.4 6.76,-3.48 9.08,-34.66 15.64,-60.59667 19.68,-77.81 1.46,-6.24 3.03667,-12.44333 4.73,-18.61 0.34667,-1.28 0.0533,-2.44 -0.88,-3.48 -0.21751,-0.23625 -0.5209,-0.3735 -0.84,-0.38 -12.54,-0.21333 -25.07667,-0.23333 -37.61,-0.06 -1.96,0.0267 -3.84667,0.36667 -5.66,1.02 -0.29474,0.0996 -0.52256,0.33863 -0.61,0.64 -1.76,6.3 -3.1,13.13 -4.74,18.94 -7.28,25.92667 -14.27333,51.92667 -20.98,78 -0.47333,1.84 -0.6,3.38333 -0.38,4.63 0.0526,0.28658 0.30397,0.49601 0.6,0.5 z m -251.54,1.84 c 1.46,0.27333 2.66667,0.39 3.62,0.35 14.93333,-0.62 29.66667,-0.98333 44.2,-1.09 0.59649,4.1e-4 1.11493,-0.41434 1.25,-1 6.36,-27.5 13.42,-54.52 19.37,-82.02 1.39333,-6.43333 3.06667,-12.80667 5.02,-19.12 0.0846,-0.26525 -0.0638,-0.5485 -0.33,-0.63 -2.36,-0.72 -4.78,-1.09 -7.26,-1.11 -11.6,-0.08 -23.20667,-0.0867 -34.82,-0.02 -2.36667,0.02 -4.73333,0.34667 -7.1,0.98 -0.29483,0.0807 -0.51914,0.32045 -0.58,0.62 -1.42667,6.89333 -3.77333,16.51667 -7.04,28.87 -2.55333,9.66667 -7.96333,32.40333 -16.23,68.21 -0.38667,1.66 -0.70667,3.23 -0.96,4.71 -0.10358,0.58178 0.27964,1.13877 0.86,1.25 z m 60.94,-0.84 c 14.84,0.24667 29.90333,0.24333 45.19,-0.01 2.36,-0.0333 3.83667,-1.40667 4.43,-4.12 1.24,-5.62667 4.31333,-17.78 9.22,-36.46 5.3,-20.16 10.28333,-40.53333 14.95,-61.12 0.18979,-0.80966 -0.36898,-1.60591 -1.2,-1.71 -12.43,-1.44 -26.51,-0.43 -39.09,-0.32 -2.92,0.0267 -5.73333,0.39667 -8.44,1.11 -0.30331,0.0798 -0.5402,0.31669 -0.62,0.62 -6.68,25.61333 -13.11667,51.28667 -19.31,77.02 -1.66,6.88 -4.6,15.51 -6.27,23.57 -0.15098,0.72648 0.39806,1.41037 1.14,1.42 z m 144.64,-102.38 0.79,-0.57 c 0.79333,-0.56667 0.70333,-0.85 -0.27,-0.85 -18.58,-0.0333 -37.15667,-0.0333 -55.73,0 -1.87,0 -3.43,0.43 -3.93,2.29 -8.2,30.55 -17.3,63.66 -25.24,98.73 -0.0708,0.31426 -0.0208,0.64283 0.14,0.92 0.76667,1.33333 1.86,2.00667 3.28,2.02 7.56667,0.0867 25.13333,0.13333 52.7,0.14 2.95333,0 4.79,-1.30667 5.51,-3.92 5.76,-20.96667 11.84333,-44.46667 18.25,-70.5 2.02,-8.23 3.57,-17.45 5.5,-26.17 0.0801,-0.3538 -0.0522,-0.72346 -0.34,-0.95 l -0.68,-0.54 c -0.19986,-0.15441 -0.18969,-0.45924 0.02,-0.6 z"
       id="path60"
       sodipodi:nodetypes="cccccccccccccccccccccccccccccccccccccccccccccccccccccccccccccccccccccccccccccccccccccccccccccccccccccccccccccscccccccccccccccccccccccccccccccccccccccccccc" />
    <path
       d="   M 493.81 299.63   C 498.49 300.84 505.15 299.85 510.26 300.29   A 0.57 0.57 0.0 0 1 510.79 300.87   Q 510.72 305.44 508.81 309.60   A 0.92 0.90 -77.0 0 1 507.97 310.14   L 481.03 309.91   A 1.01 1.01 0.0 0 1 480.06 308.64   C 487.44 280.41 494.05 251.95 501.27 223.61   A 0.74 0.73 6.7 0 1 501.97 223.06   L 530.14 222.75   Q 532.47 222.72 531.82 224.96   L 529.94 231.49   A 1.41 1.41 0.0 0 1 529.30 232.30   Q 527.74 233.18 525.99 233.09   Q 516.41 232.62 511.23 233.73   C 507.79 234.46 504.51 252.98 503.89 256.34   A 1.31 1.31 0.0 0 0 505.13 257.89   L 520.16 258.34   Q 522.37 258.41 522.02 260.59   C 521.63 262.99 521.02 267.05 519.02 268.51   A 1.19 1.18 -57.6 0 1 518.09 268.72   Q 509.77 267.20 501.49 268.83   A 1.94 1.93 3.3 0 0 500.02 270.13   Q 495.55 283.94 492.91 298.22   A 1.23 1.22 12.6 0 0 493.81 299.63   Z"
       id="path62" />
    <path
       d="   M 541.44 307.81   C 534.46 303.27 539.78 290.53 541.35 284.57   A 0.77 0.77 0.0 0 1 542.10 283.99   L 550.14 284.02   A 0.93 0.93 0.0 0 1 551.05 285.15   C 550.06 289.58 547.02 296.38 551.08 299.90   C 557.00 305.06 562.40 290.70 562.63 287.08   C 563.09 279.75 556.31 272.17 553.13 265.92   C 551.20 262.13 548.65 258.73 548.79 254.26   C 549.28 239.70 553.22 224.38 570.16 222.89   C 589.79 221.17 589.60 235.03 583.24 248.36   A 0.98 0.95 -81.3 0 1 582.53 248.90   Q 578.65 249.61 574.63 248.99   Q 572.62 248.69 572.93 246.67   L 574.03 239.53   A 1.11 1.11 0.0 0 0 573.76 238.62   Q 571.84 236.51 569.50 237.01   C 562.27 238.56 560.11 249.25 561.37 255.31   Q 561.96 258.11 564.89 263.30   Q 570.76 273.71 572.70 277.80   C 575.60 283.94 571.74 295.22 569.53 301.25   C 565.31 312.77 550.55 313.74 541.44 307.81   Z"
       id="path64" />
    <path
       d="   M 368.69 295.01   C 363.25 294.90 357.75 293.68 355.39 298.31   Q 352.31 304.34 349.27 310.40   A 1.02 1.01 13.2 0 1 348.36 310.96   L 340.70 311.00   A 0.69 0.68 -86.4 0 1 340.02 310.22   C 340.67 305.80 341.65 302.16 343.61 297.85   Q 359.01 264.02 373.65 229.85   Q 374.79 227.18 376.22 224.64   A 1.66 1.61 -87.1 0 1 376.95 223.96   Q 381.07 222.02 385.19 223.91   A 0.94 0.93 -83.1 0 1 385.71 224.58   C 387.05 231.35 386.30 238.08 386.24 243.99   Q 385.90 277.13 384.66 310.28   A 0.67 0.66 -88.6 0 1 384.00 310.92   L 376.60 310.88   A 1.58 1.58 0.0 0 1 375.03 309.30   L 374.99 297.91   A 1.07 1.07 0.0 0 0 374.58 297.07   Q 372.08 295.08 368.69 295.01   Z   M 363.23 285.57   C 365.88 286.24 374.99 286.87 374.99 282.25   Q 375.01 268.77 374.99 255.48   A 0.37 0.37 0.0 0 0 374.29 255.33   L 361.84 282.68   A 2.09 2.09 0.0 0 0 363.23 285.57   Z"
       id="path66" />
    <path
       d="   M 443.07 248.33   A 1.17 1.17 0.0 0 0 445.07 248.57   Q 453.61 237.41 460.75 225.52   C 462.23 223.07 469.99 224.01 472.48 224.22   A 1.54 1.54 0.0 0 1 473.82 226.21   C 465.38 253.55 460.88 274.52 451.64 309.33   A 0.78 0.78 0.0 0 1 450.90 309.91   L 442.66 310.04   A 0.70 0.69 86.4 0 1 441.96 309.42   Q 441.73 307.04 441.94 306.23   Q 448.46 281.87 453.81 257.21   Q 454.00 256.31 453.97 255.59   A 0.45 0.44 -27.9 0 0 453.17 255.35   L 437.83 275.71   A 0.74 0.74 0.0 0 1 436.55 275.55   C 433.95 269.30 433.24 260.39 431.92 253.86   A 0.74 0.74 0.0 0 0 430.47 253.82   Q 423.44 280.88 415.91 307.43   C 414.48 312.47 409.72 311.67 406.06 309.94   A 0.69 0.68 -74.0 0 1 405.67 309.22   Q 405.94 307.20 406.37 305.53   Q 416.47 266.39 425.75 227.05   Q 426.19 225.20 427.42 223.86   A 1.00 0.99 23.3 0 1 428.21 223.55   L 436.91 224.15   A 1.75 1.74 -3.1 0 1 438.52 225.58   Q 440.27 235.33 442.37 245.72   Q 442.76 247.65 443.07 248.33   Z"
       id="path68" />
    <path
       d="   M 293.93 308.32   C 288.07 303.98 288.47 298.88 289.88 291.72   Q 294.87 266.32 301.27 241.16   C 304.63 227.96 316.88 221.79 330.02 224.71   C 341.69 227.31 337.25 240.09 334.47 247.48   C 333.06 251.24 327.27 250.10 324.31 249.74   A 1.37 1.37 0.0 0 1 323.23 247.80   C 324.37 245.34 325.72 241.67 324.21 239.27   C 322.16 236.00 317.72 236.83 315.29 239.55   Q 311.08 244.26 309.84 250.57   C 307.48 262.55 303.97 275.14 300.25 288.99   C 299.31 292.50 299.01 299.26 303.19 300.93   C 312.81 304.78 315.72 283.24 316.86 275.96   C 317.93 269.10 313.72 271.85 309.69 270.21   A 0.60 0.60 0.0 0 1 309.34 269.50   L 311.32 262.07   A 1.41 1.40 -82.4 0 1 312.67 261.03   L 329.40 261.00   Q 332.02 260.99 331.33 263.52   Q 326.84 279.84 323.35 295.46   Q 319.13 314.35 299.52 311.00   Q 296.95 310.56 293.93 308.32   Z"
       id="path70" />
    <path
       d="   M 233.81 254.60   Q 254.41 254.94 275.00 254.03   Q 277.62 253.91 279.37 254.43   A 2.22 2.22 0.0 0 1 280.85 257.25   L 278.62 264.10   A 1.31 1.31 0.0 0 1 277.37 265.01   C 241.06 265.03 205.16 265.71 169.41 265.57   C 149.09 265.48 128.80 266.14 108.45 265.97   A 0.48 0.48 0.0 0 1 108.12 265.14   L 118.42 255.33   A 1.11 1.10 -65.8 0 1 119.20 255.03   Q 133.60 255.10 148.01 254.80   Q 190.91 253.89 233.81 254.60   Z"
       id="path72" />
    <path
       d="   M 606.03 265.43   A 1.47 1.47 0.0 0 1 605.03 263.74   C 605.64 260.65 607.30 253.94 611.47 253.97   Q 644.00 254.21 676.52 255.13   A 0.70 0.69 7.2 0 1 677.18 255.97   L 675.33 264.33   A 1.34 1.32 83.3 0 1 674.64 265.22   Q 672.70 266.20 670.49 266.15   Q 645.13 265.58 619.75 265.53   C 615.66 265.52 609.81 266.64 606.03 265.43   Z"
       id="path74" />
  </g>
  <g
     fill="#fced0d"
     id="g90"
     style="fill-opacity:1;fill:url(#linearGradient4636)">
    <path
       d="   M 470.43 319.88   A 0.72 0.72 0.0 0 1 469.85 319.06   C 470.06 317.75 469.95 316.39 470.29 315.09   C 478.55 282.95 487.18 250.93 495.21 218.74   C 495.62 217.10 496.87 216.20 498.64 216.17   Q 518.36 215.83 539.34 216.05   Q 541.46 216.08 540.96 218.13   Q 529.38 266.33 516.69 315.43   Q 515.99 318.16 514.82 319.62   A 1.02 1.01 19.3 0 1 514.00 320.01   C 502.68 319.93 491.27 319.84 480.01 320.53   Q 475.52 320.81 470.43 319.88   Z   M 493.81 299.63   A 1.23 1.22 12.6 0 1 492.91 298.22   Q 495.55 283.94 500.02 270.13   A 1.94 1.93 3.3 0 1 501.49 268.83   Q 509.77 267.20 518.09 268.72   A 1.19 1.18 -57.6 0 0 519.02 268.51   C 521.02 267.05 521.63 262.99 522.02 260.59   Q 522.37 258.41 520.16 258.34   L 505.13 257.89   A 1.31 1.31 0.0 0 1 503.89 256.34   C 504.51 252.98 507.79 234.46 511.23 233.73   Q 516.41 232.62 525.99 233.09   Q 527.74 233.18 529.30 232.30   A 1.41 1.41 0.0 0 0 529.94 231.49   L 531.82 224.96   Q 532.47 222.72 530.14 222.75   L 501.97 223.06   A 0.74 0.73 6.7 0 0 501.27 223.61   C 494.05 251.95 487.44 280.41 480.06 308.64   A 1.01 1.01 0.0 0 0 481.03 309.91   L 507.97 310.14   A 0.92 0.90 -77.0 0 0 508.81 309.60   Q 510.72 305.44 510.79 300.87   A 0.57 0.57 0.0 0 0 510.26 300.29   C 505.15 299.85 498.49 300.84 493.81 299.63   Z"
       id="path78"
       style="fill-opacity:1;fill:url(#linearGradient4636)" />
    <path
       d="   M 526.07 319.32   Q 525.74 317.45 526.45 314.69   Q 536.51 275.58 547.43 236.69   C 549.07 230.88 550.41 224.05 552.17 217.75   A 0.96 0.95 88.9 0 1 552.78 217.11   Q 555.50 216.13 558.44 216.09   Q 577.24 215.83 596.05 216.15   A 1.18 1.17 69.2 0 1 596.89 216.53   Q 598.29 218.09 597.77 220.01   Q 595.23 229.26 593.04 238.62   Q 586.98 264.44 573.36 316.43   C 572.34 320.31 570.41 319.85 566.60 319.91   Q 546.63 320.21 526.67 319.82   A 0.62 0.61 -4.5 0 1 526.07 319.32   Z   M 541.44 307.81   C 550.55 313.74 565.31 312.77 569.53 301.25   C 571.74 295.22 575.60 283.94 572.70 277.80   Q 570.76 273.71 564.89 263.30   Q 561.96 258.11 561.37 255.31   C 560.11 249.25 562.27 238.56 569.50 237.01   Q 571.84 236.51 573.76 238.62   A 1.11 1.11 0.0 0 1 574.03 239.53   L 572.93 246.67   Q 572.62 248.69 574.63 248.99   Q 578.65 249.61 582.53 248.90   A 0.98 0.95 -81.3 0 0 583.24 248.36   C 589.60 235.03 589.79 221.17 570.16 222.89   C 553.22 224.38 549.28 239.70 548.79 254.26   C 548.65 258.73 551.20 262.13 553.13 265.92   C 556.31 272.17 563.09 279.75 562.63 287.08   C 562.40 290.70 557.00 305.06 551.08 299.90   C 547.02 296.38 550.06 289.58 551.05 285.15   A 0.93 0.93 0.0 0 0 550.14 284.02   L 542.10 283.99   A 0.77 0.77 0.0 0 0 541.35 284.57   C 539.78 290.53 534.46 303.27 541.44 307.81   Z"
       id="path80"
       style="fill-opacity:1;fill:url(#linearGradient4636)" />
    <path
       d="m 275.13,321.66 c -0.58036,-0.11123 -0.96358,-0.66822 -0.86,-1.25 0.25333,-1.48 0.57333,-3.05 0.96,-4.71 8.26667,-35.80667 13.67667,-58.54333 16.23,-68.21 3.26667,-12.35333 5.61333,-21.97667 7.04,-28.87 0.0609,-0.29955 0.28517,-0.53933 0.58,-0.62 2.36667,-0.63333 4.73333,-0.96 7.1,-0.98 11.61333,-0.0667 23.22,-0.06 34.82,0.02 2.48,0.02 4.9,0.39 7.26,1.11 0.26621,0.0815 0.41458,0.36475 0.33,0.63 -1.95333,6.31333 -3.62667,12.68667 -5.02,19.12 -5.95,27.5 -13.01,54.52 -19.37,82.02 -0.13507,0.58566 -0.65351,1.00041 -1.25,1 -14.53333,0.10667 -29.26667,0.47 -44.2,1.09 -0.95333,0.04 -2.16,-0.0767 -3.62,-0.35 z m 18.8,-13.34 c 2.01333,1.49333 3.87667,2.38667 5.59,2.68 13.07333,2.23333 21.01667,-2.94667 23.83,-15.54 2.32667,-10.41333 4.98667,-21.06 7.98,-31.94 0.46,-1.68667 -0.18333,-2.52667 -1.93,-2.52 l -16.73,0.03 c -0.6307,0.001 -1.18342,0.42719 -1.35,1.04 l -1.98,7.43 c -0.0781,0.29097 0.0716,0.59477 0.35,0.71 4.03,1.64 8.24,-1.11 7.17,5.75 -1.14,7.28 -4.05,28.82 -13.67,24.97 -4.18,-1.67 -3.88,-8.43 -2.94,-11.94 3.72,-13.85 7.23,-26.44 9.59,-38.42 0.82667,-4.20667 2.64333,-7.88 5.45,-11.02 2.43,-2.72 6.87,-3.55 8.92,-0.28 1.51,2.4 0.16,6.07 -0.98,8.53 -0.39483,0.84573 0.15315,1.83005 1.08,1.94 2.96,0.36 8.75,1.5 10.16,-2.26 2.78,-7.39 7.22,-20.17 -4.45,-22.77 -13.14,-2.92 -25.39,3.25 -28.75,16.45 -4.26667,16.77333 -8.06333,33.62667 -11.39,50.56 -1.41,7.16 -1.81,12.26 4.05,16.6 z"
       id="path82"
       sodipodi:nodetypes="ccccccccccccccccccccccccccccccccccccc"
       style="fill-opacity:1;fill:url(#linearGradient4636)" />
    <path
       d="   M 336.07 320.82   A 1.18 1.18 0.0 0 1 334.93 319.40   C 336.60 311.34 339.54 302.71 341.20 295.83   Q 350.49 257.23 360.51 218.81   A 0.87 0.87 0.0 0 1 361.13 218.19   Q 365.19 217.12 369.57 217.08   C 382.15 216.97 396.23 215.96 408.66 217.40   A 1.41 1.40 10.0 0 1 409.86 219.11   Q 402.86 249.99 394.91 280.23   Q 387.55 308.25 385.69 316.69   Q 384.80 320.76 381.26 320.81   Q 358.33 321.19 336.07 320.82   Z   M 368.69 295.01   Q 372.08 295.08 374.58 297.07   A 1.07 1.07 0.0 0 1 374.99 297.91   L 375.03 309.30   A 1.58 1.58 0.0 0 0 376.60 310.88   L 384.00 310.92   A 0.67 0.66 -88.6 0 0 384.66 310.28   Q 385.90 277.13 386.24 243.99   C 386.30 238.08 387.05 231.35 385.71 224.58   A 0.94 0.93 -83.1 0 0 385.19 223.91   Q 381.07 222.02 376.95 223.96   A 1.66 1.61 -87.1 0 0 376.22 224.64   Q 374.79 227.18 373.65 229.85   Q 359.01 264.02 343.61 297.85   C 341.65 302.16 340.67 305.80 340.02 310.22   A 0.69 0.68 -86.4 0 0 340.70 311.00   L 348.36 310.96   A 1.02 1.01 13.2 0 0 349.27 310.40   Q 352.31 304.34 355.39 298.31   C 357.75 293.68 363.25 294.90 368.69 295.01   Z"
       id="path84"
       style="fill-opacity:1;fill:url(#linearGradient4636)" />
    <path
       d="   M 480.69 219.04   L 481.37 219.58   A 0.95 0.94 25.5 0 1 481.71 220.53   C 479.78 229.25 478.23 238.47 476.21 246.70   Q 466.60 285.75 457.96 317.20   Q 456.88 321.12 452.45 321.12   Q 411.10 321.11 399.75 320.98   Q 397.62 320.96 396.47 318.96   A 1.28 1.27 -54.1 0 1 396.33 318.04   C 404.27 282.97 413.37 249.86 421.57 219.31   C 422.07 217.45 423.63 217.02 425.50 217.02   Q 453.36 216.97 481.23 217.02   Q 482.69 217.02 481.50 217.87   L 480.71 218.44   A 0.37 0.37 0.0 0 0 480.69 219.04   Z   M 443.07 248.33   Q 442.76 247.65 442.37 245.72   Q 440.27 235.33 438.52 225.58   A 1.75 1.74 -3.1 0 0 436.91 224.15   L 428.21 223.55   A 1.00 0.99 23.3 0 0 427.42 223.86   Q 426.19 225.20 425.75 227.05   Q 416.47 266.39 406.37 305.53   Q 405.94 307.20 405.67 309.22   A 0.69 0.68 -74.0 0 0 406.06 309.94   C 409.72 311.67 414.48 312.47 415.91 307.43   Q 423.44 280.88 430.47 253.82   A 0.74 0.74 0.0 0 1 431.92 253.86   C 433.24 260.39 433.95 269.30 436.55 275.55   A 0.74 0.74 0.0 0 0 437.83 275.71   L 453.17 255.35   A 0.45 0.44 -27.9 0 1 453.97 255.59   Q 454.00 256.31 453.81 257.21   Q 448.46 281.87 441.94 306.23   Q 441.73 307.04 441.96 309.42   A 0.70 0.69 86.4 0 0 442.66 310.04   L 450.90 309.91   A 0.78 0.78 0.0 0 0 451.64 309.33   C 460.88 274.52 465.38 253.55 473.82 226.21   A 1.54 1.54 0.0 0 0 472.48 224.22   C 469.99 224.01 462.23 223.07 460.75 225.52   Q 453.61 237.41 445.07 248.57   A 1.17 1.17 0.0 0 1 443.07 248.33   Z"
       id="path86"
       style="fill-opacity:1;fill:url(#linearGradient4636)" />
    <path
       d="   M 363.23 285.57   A 2.09 2.09 0.0 0 1 361.84 282.68   L 374.29 255.33   A 0.37 0.37 0.0 0 1 374.99 255.48   Q 375.01 268.77 374.99 282.25   C 374.99 286.87 365.88 286.24 363.23 285.57   Z"
       id="path88"
       style="fill-opacity:1;fill:url(#linearGradient4636)" />
  </g>
  <g
     fill="#545454"
     id="g98"
     transform="translate(-0.14333186,-1.2424428)">
    <path
       d="m 606.55,273.12 c -0.4,-0.02 -0.74667,-0.17333 -1.04,-0.46 -0.34133,-0.33809 -0.21748,-0.9143 0.23,-1.07 2.20219,0.0438 4.57799,-0.23401 7.1,-0.21 0.63706,0.17993 0.70299,1.05683 0.1,1.33 l -2.17,0.97 c -0.26183,0.11307 -0.4469,0.35102 -0.49,0.63 -0.22,1.24 0.2,6.42 -1.3,6.85 -0.37675,0.10286 -0.75178,-0.16988 -0.77,-0.56 l -0.27,-6.06 c -0.0342,-0.7617 -0.63399,-1.37448 -1.39,-1.42 z"
       id="path94"
       sodipodi:nodetypes="ccccccccccc" />
    <path
       d="m 616.95,277.84 -0.88,2.8 c -0.29179,0.90574 -1.63314,0.67101 -1.6,-0.28 l 0.25,-7.97 c 0.0108,-0.38511 0.27636,-0.71607 0.65,-0.81 1.58656,-0.40565 2.9469,-0.19531 3.52989,0.55893 0.71046,0.91916 0.85762,2.67674 1.36295,3.85219 0.12512,0.28893 0.78557,0.38769 0.89615,0.0814 0.64362,-0.98153 0.89221,-1.90609 0.76554,-3.27942 -0.0406,-0.37234 0.49806,-1.23409 0.8717,-1.26025 l 2.50368,-0.0168 c 0.35623,-0.0293 0.68129,0.70652 0.68009,1.06395 l -0.02,7.66 c 0,0.54676 -0.44324,0.99 -0.99,0.99 -1.48,0.02 -0.20299,-3.16439 -1.41299,-3.51439 -0.34063,-0.0939 -1.50844,0.47433 -1.46987,1.01208 -1.09833,2.20161 -0.82714,2.36564 -2.44714,2.29231 -0.32551,-0.0131 -0.63376,-0.16545 -0.85,-0.42 -0.57,-0.69 -0.20626,-3.1845 -1.27,-3.1 -0.24867,-0.0473 -0.49346,0.0987 -0.57,0.34 z"
       id="path96"
       sodipodi:nodetypes="cccccsccccccccccccccc" />
  </g>
</svg>
