<?xml version="1.0" encoding="UTF-8" standalone="no"?>
<svg
   version="1.1"
   viewBox="0.00 0.00 637.00 360.00"
   id="svg464"
   sodipodi:docname="Castlevania.svg"
   inkscape:version="1.1.2 (0a00cf5339, 2022-02-04)"
   xmlns:inkscape="http://www.inkscape.org/namespaces/inkscape"
   xmlns:sodipodi="http://sodipodi.sourceforge.net/DTD/sodipodi-0.dtd"
   xmlns="http://www.w3.org/2000/svg"
   xmlns:svg="http://www.w3.org/2000/svg">
  <defs
     id="defs468" />
  <sodipodi:namedview
     id="namedview466"
     pagecolor="#ffffff"
     bordercolor="#666666"
     borderopacity="1.0"
     inkscape:pageshadow="2"
     inkscape:pageopacity="0.0"
     inkscape:pagecheckerboard="0"
     showgrid="false"
     inkscape:zoom="2.1504085"
     inkscape:cx="308.31352"
     inkscape:cy="196.70681"
     inkscape:window-width="1920"
     inkscape:window-height="1011"
     inkscape:window-x="1920"
     inkscape:window-y="32"
     inkscape:window-maximized="1"
     inkscape:current-layer="svg464" />
  <g
     fill="#f13034"
     id="g306"
     style="stroke:#f13034;stroke-opacity:1">
    <path
       d="   M 67.09 197.83   C 61.79 182.67 45.63 177.86 31.24 185.11   Q 30.70 185.38 30.27 184.95   L 13.10 167.96   Q 12.57 167.43 13.10 166.90   L 30.37 149.79   Q 30.79 149.38 31.30 149.65   C 54.66 162.02 77.11 139.31 64.93 115.92   Q 64.69 115.44 65.07 115.06   L 77.44 102.69   Q 77.88 102.25 78.50 102.25   L 85.62 102.25   Q 86.25 102.25 86.25 102.87   L 86.25 232.10   Q 86.25 232.69 85.66 232.70   L 78.55 232.78   Q 78.02 232.78 77.65 232.41   L 65.07 219.71   Q 64.70 219.34 64.89 218.86   C 68.03 210.99 69.91 205.88 67.09 197.83   Z"
       id="path292"
       style="stroke:#f13034;stroke-opacity:1" />
    <path
       d="   M 385.25 154.46   Q 386.59 156.24 386.09 158.65   Q 385.96 159.27 386.54 159.55   Q 393.28 162.82 399.29 167.25   Q 393.78 170.57 392.96 177.00   C 388.48 181.09 386.10 182.23 386.05 189.01   Q 385.95 200.64 386.14 208.71   C 386.31 216.21 390.95 221.24 398.67 221.50   C 401.15 221.58 403.72 220.36 406.64 220.63   C 412.26 221.16 417.84 221.07 423.51 220.94   Q 424.11 220.93 424.06 220.34   Q 423.69 215.80 425.00 211.79   L 431.04 211.44   A 1.02 1.01 -87.5 0 0 431.98 210.57   Q 432.49 207.14 432.51 203.75   Q 432.68 172.11 432.29 140.48   C 432.19 132.31 426.06 128.09 418.29 127.64   C 408.69 127.08 396.19 125.97 393.21 138.25   Q 390.43 142.10 386.71 145.00   Q 389.76 127.27 392.36 109.48   C 392.66 107.46 391.66 105.19 389.27 106.55   Q 381.56 110.96 374.08 115.40   A 2.18 2.18 0.0 0 0 373.05 116.97   L 372.21 123.25   Q 369.06 124.44 366.38 126.81   Q 366.01 127.14 365.94 127.64   L 361.41 160.78   L 356.68 126.65   A 1.02 1.02 0.0 0 0 355.44 125.80   Q 347.14 127.73 339.78 132.03   C 337.36 133.45 339.07 136.82 339.29 139.00   Q 337.29 141.16 334.29 141.00   C 332.59 126.27 315.57 127.99 305.21 129.48   C 299.67 130.28 296.23 135.13 294.96 140.25   L 289.04 145.75   L 288.44 115.74   A 1.71 1.71 0.0 0 0 285.94 114.26   L 269.53 122.83   Q 269.00 123.11 269.00 123.71   L 268.96 129.75   Q 267.12 131.33 264.79 132.00   Q 264.83 130.85 264.20 129.96   Q 263.90 129.55 263.40 129.49   L 258.92 128.94   Q 258.50 128.89 258.48 128.47   L 257.81 115.04   Q 257.77 114.27 257.00 114.25   C 252.56 114.15 243.30 120.29 239.18 122.62   Q 238.65 122.92 238.60 123.52   L 238.19 127.98   Q 238.13 128.64 237.48 128.79   L 235.73 129.19   Q 235.22 129.31 234.94 129.76   Q 234.24 130.89 234.21 132.25   Q 232.52 132.95 231.70 134.47   Q 231.46 134.92 231.58 135.42   Q 231.97 137.00 230.54 137.75   Q 227.80 129.91 219.49 128.97   C 209.21 127.81 195.02 126.92 192.00 140.04   L 185.04 147.75   C 184.50 138.04 183.92 130.58 172.57 129.17   C 162.58 127.92 148.83 127.12 145.46 139.50   C 143.39 142.79 139.42 145.63 138.91 149.58   Q 138.34 154.05 138.52 158.74   A 0.96 0.95 -78.2 0 0 139.06 159.57   Q 146.46 163.17 152.88 167.80   Q 146.75 171.26 145.21 177.50   C 143.42 181.73 139.13 182.01 138.82 187.44   C 138.43 194.37 136.88 211.62 140.40 217.38   C 145.09 225.08 152.95 221.57 160.04 222.31   Q 164.43 222.77 168.83 223.37   Q 159.88 227.97 150.75 231.76   C 145.48 233.95 134.43 232.78 128.49 232.71   Q 128.02 232.70 128.02 232.23   L 127.67 102.83   Q 127.67 102.30 128.21 102.29   C 134.62 102.21 142.64 101.54 145.36 102.96   Q 164.04 112.69 182.39 121.73   A 1.08 1.08 0.0 0 0 183.95 120.78   L 184.33 102.83   Q 184.34 102.25 184.92 102.25   L 558.36 102.25   Q 558.75 102.25 559.03 102.53   L 571.52 115.14   A 0.80 0.80 0.0 0 1 571.65 116.08   C 559.25 138.52 582.84 162.95 605.28 149.47   Q 605.76 149.17 606.17 149.58   L 623.67 167.03   Q 624.09 167.45 623.68 167.88   L 606.58 185.35   A 0.66 0.65 37.5 0 1 605.77 185.45   C 583.52 172.26 558.59 195.72 571.70 218.74   A 0.89 0.89 0.0 0 1 571.56 219.81   L 558.93 232.45   Q 558.54 232.84 557.98 232.84   L 372.60 232.43   Q 371.98 232.43 372.09 231.83   L 385.25 154.46   Z   M 485.95 116.36   Q 483.35 121.61 478.82 125.04   A 0.68 0.68 0.0 0 0 478.73 126.05   L 485.32 133.17   Q 485.68 133.57 485.85 134.08   Q 486.16 135.02 487.21 135.00   L 487.30 136.82   Q 484.83 140.06 480.54 138.25   Q 477.51 126.26 465.33 127.59   C 463.96 127.74 462.53 128.52 461.04 128.81   Q 460.51 128.91 460.25 128.44   Q 459.41 126.99 457.94 127.70   Q 451.10 131.01 441.51 136.93   Q 441.08 137.19 441.07 137.70   L 440.94 144.02   L 434.88 147.13   Q 434.29 147.43 434.29 148.09   L 434.23 219.96   A 0.99 0.99 0.0 0 0 435.21 220.95   L 451.06 221.11   A 0.98 0.97 -87.1 0 0 452.04 220.22   L 452.75 211.79   L 454.05 211.80   L 454.59 220.38   Q 454.63 220.94 455.18 220.94   L 471.60 221.13   A 0.82 0.82 0.0 0 0 472.41 220.14   Q 471.46 215.55 473.56 211.70   L 479.43 211.42   L 479.76 219.80   A 1.25 1.25 0.0 0 0 481.01 221.00   L 497.46 221.00   A 0.69 0.69 0.0 0 0 498.14 220.18   Q 497.37 215.75 499.25 211.79   L 503.75 211.54   Q 508.38 223.22 520.13 221.14   C 526.78 219.96 534.62 221.26 541.57 220.88   Q 542.14 220.85 542.17 220.27   C 542.26 218.11 541.66 212.95 543.75 211.79   L 550.04 211.24   Q 550.63 211.19 550.63 210.60   Q 550.94 176.90 550.63 143.20   C 550.57 136.56 548.95 131.66 543.00 128.94   Q 540.20 127.65 534.33 127.72   C 524.87 127.84 515.28 125.66 511.71 137.50   Q 510.30 140.90 507.04 142.50   L 506.36 128.96   A 1.33 1.32 -89.5 0 0 505.13 127.70   L 498.50 127.21   L 498.46 126.25   C 501.01 123.68 506.28 119.24 507.68 116.09   Q 507.90 115.58 507.55 115.14   Q 502.93 109.48 497.30 104.84   A 0.63 0.62 48.6 0 0 496.57 104.79   Q 489.56 109.16 485.95 116.36   Z"
       id="path294"
       style="stroke:#f13034;stroke-opacity:1" />
    <path
       d="   M 261.85 145.04   Q 262.68 171.00 262.00 196.96   L 258.84 196.92   Q 258.25 196.91 258.25 196.32   L 258.25 145.71   A 0.77 0.77 0.0 0 1 259.29 144.99   Q 260.67 145.51 261.85 145.04   Z"
       id="path296"
       style="stroke:#f13034;stroke-opacity:1" />
    <path
       d="   M 226.50 151.96   Q 227.78 154.66 230.81 154.83   Q 231.27 154.86 231.31 155.32   Q 232.10 164.61 230.88 173.78   C 227.95 168.49 224.41 166.61 217.25 162.54   L 222.46 158.84   Q 222.89 158.54 222.93 158.02   L 223.21 154.00   L 226.50 151.96   Z"
       id="path298"
       style="stroke:#f13034;stroke-opacity:1" />
    <path
       d="   M 517.65 167.41   Q 511.29 170.90 511.05 177.46   L 507.62 180.12   Q 507.28 180.39 506.98 180.06   Q 506.86 179.93 506.79 179.75   L 506.86 160.87   Q 512.69 163.23 517.65 167.41   Z"
       id="path300"
       style="stroke:#f13034;stroke-opacity:1" />
    <path
       d="   M 335.03 165.64   Q 341.09 196.63 346.31 227.74   Q 346.68 229.96 346.75 232.21   C 295.11 233.21 243.40 232.45 191.75 232.34   Q 188.40 232.33 185.04 232.22   Q 184.37 232.20 184.36 231.53   L 184.15 218.88   A 1.42 1.41 77.4 0 0 182.16 217.61   L 177.14 219.85   Q 175.75 216.62 176.75 213.29   L 184.32 212.77   C 184.64 212.96 185.19 213.49 185.38 213.94   Q 187.20 218.25 190.91 220.74   C 195.35 223.72 206.59 222.65 211.87 222.32   C 217.68 221.97 221.78 216.97 223.50 211.79   Q 228.58 209.60 230.93 204.17   Q 231.44 207.36 231.84 210.56   C 233.54 224.17 244.69 223.24 255.10 222.49   A 1.34 1.34 0.0 0 0 256.35 221.22   L 256.75 213.29   L 261.75 213.04   L 262.51 222.03   Q 262.55 222.50 263.02 222.50   L 279.48 222.50   Q 279.97 222.50 280.00 222.01   L 280.50 213.54   L 288.44 212.97   Q 290.12 218.68 294.89 221.20   C 299.20 223.47 307.05 222.48 312.17 222.53   C 319.34 222.60 324.24 218.84 326.50 212.04   C 331.39 209.73 333.90 206.23 334.25 200.60   Q 334.87 190.50 334.08 180.37   Q 334.01 179.43 333.07 179.37   L 327.00 178.96   Q 326.79 178.63 326.43 178.39   Q 325.70 177.94 326.28 177.31   L 327.00 176.54   L 333.33 176.14   A 1.19 1.19 0.0 0 0 334.42 174.74   Q 333.62 170.29 335.03 165.64   Z"
       id="path302"
       style="stroke:#f13034;stroke-opacity:1" />
    <path
       d="   M 191.50 182.04   L 191.40 189.42   Q 188.37 190.79 185.04 190.25   L 185.22 176.14   Q 187.75 179.72 191.50 182.04   Z"
       id="path304"
       style="stroke:#f13034;stroke-opacity:1" />
  </g>
  <g
     fill="#b6e23d"
     id="g332"
     style="stroke:none;stroke-opacity:1">
    <path
       d="   M 146.46 282.59   C 152.19 279.05 152.11 274.65 152.25 268.51   Q 152.56 255.33 152.50 242.15   Q 152.50 241.58 153.02 241.35   L 173.79 231.98   A 0.65 0.64 -12.3 0 1 174.70 232.56   Q 174.85 246.17 174.81 260.04   C 174.80 264.10 176.11 270.18 173.25 274.16   Q 168.98 280.11 164.60 286.05   A 2.34 2.33 -65.0 0 1 162.18 286.93   C 153.36 284.84 145.19 289.27 141.84 297.50   C 139.23 303.90 140.89 310.89 144.79 316.43   A 1.24 1.22 39.7 0 1 144.91 317.65   L 135.79 337.86   A 0.47 0.47 0.0 0 1 134.94 337.86   L 125.64 317.50   Q 125.41 316.98 125.73 316.51   C 136.13 301.52 126.03 283.57 107.29 286.93   Q 106.70 287.03 106.35 286.55   L 96.26 272.72   Q 95.95 272.28 95.95 271.74   L 95.93 70.72   Q 95.93 70.17 96.26 69.73   L 106.67 55.63   Q 107.00 55.18 107.55 55.26   C 114.37 56.29 119.77 56.25 124.40 50.91   Q 133.19 40.76 125.74 29.61   Q 125.42 29.14 125.76 28.68   L 134.90 16.20   Q 135.33 15.61 135.76 16.20   L 144.71 28.58   Q 145.06 29.08 144.73 29.59   C 135.82 43.32 146.13 58.76 162.60 55.23   Q 163.11 55.12 163.48 55.48   C 167.85 59.54 171.86 66.29 174.54 70.26   Q 174.80 70.65 174.81 71.13   L 174.88 106.34   A 0.62 0.61 -76.5 0 1 173.99 106.89   L 152.76 96.10   Q 152.29 95.86 152.30 95.32   Q 152.66 77.72 152.18 69.48   C 151.45 57.16 139.40 57.76 130.54 58.27   C 118.63 58.97 118.29 66.92 118.29 76.51   Q 118.20 172.22 118.50 267.94   C 118.52 271.72 117.81 275.44 119.98 278.73   Q 122.93 283.20 127.55 283.94   C 129.71 284.29 142.55 285.00 146.46 282.59   Z"
       id="path308"
       style="stroke:none;stroke-opacity:1" />
    <rect
       x="-6.15"
       y="-6.32"
       transform="translate(496.88,115.70) rotate(-44.9)"
       width="12.30"
       height="12.64"
       rx="0.61"
       id="rect310"
       style="stroke:none;stroke-opacity:1" />
    <path
       d="   M 364.17 199.29   Q 364.54 201.30 364.80 199.28   L 375.16 117.90   A 1.13 1.12 -11.6 0 1 375.71 117.07   L 389.43 108.92   A 0.54 0.54 0.0 0 1 390.24 109.48   L 364.33 263.74   Q 364.12 264.96 363.83 263.76   C 360.78 251.29 359.30 238.88 357.14 226.58   Q 349.33 182.04 341.53 137.49   Q 341.30 136.18 341.25 134.11   Q 341.24 133.53 341.77 133.30   L 353.72 128.21   A 0.64 0.64 0.0 0 1 354.61 128.72   Q 358.94 160.87 363.23 193.30   Q 363.69 196.74 364.17 199.29   Z"
       id="path312"
       style="stroke:none;stroke-opacity:1" />
    <path
       d="   M 256.20 143.91   L 256.25 198.25   Q 256.25 199.00 256.99 199.07   L 262.06 199.58   Q 262.50 199.62 262.50 200.07   L 262.50 210.21   Q 262.50 210.63 262.08 210.66   C 253.35 211.20 241.18 212.26 241.03 199.50   Q 240.62 165.55 240.77 143.56   Q 240.78 142.95 240.17 142.90   L 237.10 142.68   Q 236.56 142.64 236.56 142.10   L 236.48 131.56   Q 236.46 129.65 238.02 130.77   Q 239.08 131.53 240.16 131.13   Q 240.74 130.92 240.77 130.30   L 241.09 124.77   Q 241.12 124.24 241.59 123.99   L 254.76 116.99   A 0.84 0.84 0.0 0 1 255.99 117.74   L 256.02 130.51   Q 256.02 131.19 256.70 131.19   L 261.77 131.19   A 0.81 0.81 0.0 0 1 262.58 132.01   L 262.46 142.22   Q 262.46 142.65 262.03 142.68   L 257.03 143.02   Q 256.20 143.08 256.20 143.91   Z"
       id="path314"
       style="stroke:none;stroke-opacity:1" />
    <path
       d="   M 271.64 210.17   C 271.13 202.99 271.19 195.60 271.27 188.49   Q 271.63 156.76 271.47 125.05   Q 271.47 124.50 271.95 124.24   L 285.44 116.86   A 0.72 0.72 0.0 0 1 286.50 117.49   L 286.50 210.34   A 0.41 0.40 -90.0 0 1 286.10 210.75   L 272.26 210.75   Q 271.68 210.75 271.64 210.17   Z"
       id="path316"
       style="stroke:none;stroke-opacity:1" />
    <path
       d="   M 414.48 207.27   C 411.87 208.62 409.03 210.29 406.07 209.96   C 400.62 209.34 395.47 205.71 395.39 199.69   Q 395.23 189.08 395.21 178.47   C 395.20 172.28 398.25 171.12 402.53 168.04   Q 408.58 163.70 414.88 159.68   Q 415.33 159.40 415.32 158.87   L 415.07 143.45   A 1.86 1.84 -78.5 0 0 413.98 141.79   Q 411.77 140.79 410.79 142.77   Q 410.58 143.20 410.57 143.68   L 410.37 155.35   Q 410.35 156.18 409.62 155.79   L 395.47 148.13   Q 394.97 147.86 394.97 147.29   C 395.07 140.73 394.86 135.58 399.51 132.11   C 403.98 128.78 413.77 129.52 419.06 129.93   C 425.54 130.43 430.19 134.39 430.34 141.00   Q 430.78 160.01 430.40 209.16   Q 430.39 209.75 429.81 209.75   L 415.88 209.75   Q 415.25 209.75 415.25 209.12   L 415.25 207.74   Q 415.25 206.87 414.48 207.27   Z   M 414.30 173.36   L 410.89 175.86   Q 410.46 176.17 410.46 176.71   L 410.59 196.67   A 1.53 1.53 0.0 0 0 412.15 198.19   C 415.14 198.14 414.88 196.26 414.93 193.71   Q 415.10 183.73 414.96 173.69   Q 414.95 172.88 414.30 173.36   Z"
       id="path318"
       style="stroke:none;stroke-opacity:1" />
    <path
       d="   M 459.34 133.65   C 460.87 132.40 462.28 130.88 464.18 130.33   Q 472.81 127.82 477.20 135.21   C 478.55 137.49 478.22 139.40 478.24 141.94   Q 478.48 175.70 478.69 209.48   A 0.27 0.26 -90.0 0 1 478.43 209.75   L 463.80 209.75   Q 463.27 209.75 463.27 209.23   C 463.21 187.03 464.11 164.38 462.82 142.29   Q 462.79 141.73 462.27 141.52   Q 460.72 140.88 459.33 141.83   Q 458.77 142.21 458.76 142.89   L 458.40 209.18   A 0.58 0.57 -0.0 0 1 457.82 209.75   L 443.69 209.75   A 0.56 0.55 90.0 0 1 443.14 209.19   L 442.95 139.05   A 1.29 1.27 76.1 0 1 443.62 137.92   L 457.84 130.32   Q 458.50 129.97 458.50 130.72   L 458.50 133.25   Q 458.50 134.33 459.34 133.65   Z"
       id="path320"
       style="stroke:none;stroke-opacity:1" />
    <rect
       x="489.25"
       y="129.89"
       width="15.50"
       height="79.86"
       rx="0.26"
       id="rect322"
       style="stroke:none;stroke-opacity:1" />
    <path
       d="   M 532.71 207.21   C 529.72 208.80 526.38 210.72 522.92 209.82   C 517.65 208.45 513.61 205.11 513.54 199.19   Q 513.43 188.07 513.51 176.95   C 513.54 173.06 515.79 171.26 518.76 169.26   Q 529.40 162.09 532.80 159.86   Q 533.20 159.60 533.21 159.12   C 533.31 154.91 534.12 145.44 532.33 141.85   Q 532.09 141.36 531.54 141.35   Q 529.08 141.30 529.03 143.00   Q 528.83 149.28 528.68 155.55   Q 528.66 156.24 528.06 155.91   L 514.01 148.32   Q 513.53 148.06 513.45 147.52   C 512.32 139.74 514.14 131.00 523.39 130.14   C 529.52 129.56 538.95 128.84 543.68 131.98   C 548.68 135.31 548.06 140.09 548.17 146.88   Q 548.68 177.93 548.46 209.05   A 0.71 0.70 -89.6 0 1 547.76 209.75   L 533.95 209.75   Q 533.14 209.75 533.22 208.94   L 533.35 207.64   Q 533.43 206.82 532.71 207.21   Z   M 532.58 197.40   C 533.81 189.43 533.35 179.61 533.25 173.76   Q 533.24 173.08 532.66 173.43   L 529.49 175.29   Q 528.92 175.63 528.92 176.30   L 529.18 197.38   Q 529.19 198.12 529.93 198.11   L 531.79 198.09   Q 532.48 198.08 532.58 197.40   Z"
       id="path324"
       style="stroke:none;stroke-opacity:1" />
    <path
       d="   M 166.69 208.18   C 161.48 212.79 152.64 211.65 149.10 205.79   Q 147.77 203.59 147.72 199.45   Q 147.52 182.04 147.72 177.01   C 147.91 172.57 162.67 163.83 166.54 161.43   A 1.52 1.48 74.8 0 0 167.24 160.17   C 167.24 159.57 168.53 138.66 164.29 142.78   A 3.43 1.41 -36.4 0 0 163.06 144.81   L 162.79 155.27   A 0.56 0.56 0.0 0 1 161.97 155.75   L 148.02 148.30   Q 147.54 148.05 147.52 147.51   C 147.19 139.48 148.74 131.96 158.30 131.21   C 168.45 130.41 182.48 129.19 182.49 143.01   Q 182.52 176.59 182.49 210.19   Q 182.49 210.69 181.99 210.70   L 168.07 211.07   Q 167.56 211.08 167.53 210.57   L 167.43 208.50   Q 167.38 207.57 166.69 208.18   Z   M 162.78 180.93   C 163.12 186.42 162.90 191.99 163.07 197.37   Q 163.12 199.03 164.77 199.26   Q 166.78 199.55 166.88 197.49   Q 167.46 186.29 167.21 175.06   Q 167.20 174.53 166.70 174.73   Q 162.51 176.46 162.78 180.93   Z"
       id="path326"
       style="stroke:none;stroke-opacity:1" />
    <path
       d="   M 213.50 143.76   A 1.35 1.35 0.0 0 0 212.21 142.47   Q 209.58 142.35 209.47 144.83   Q 209.19 151.40 209.25 158.00   C 209.26 160.20 210.30 161.27 212.24 162.39   Q 221.25 167.64 224.56 169.67   C 228.98 172.39 228.82 175.63 228.96 181.03   Q 229.24 191.23 228.73 201.41   C 228.17 212.69 212.92 211.13 205.80 210.74   C 199.82 210.42 194.27 207.04 194.25 200.61   Q 194.23 191.50 193.92 182.37   A 0.76 0.76 0.0 0 1 194.68 181.58   L 208.36 181.59   Q 208.92 181.59 208.93 182.15   Q 209.08 189.17 209.25 195.98   C 209.31 198.34 210.60 200.04 213.01 198.84   Q 213.49 198.61 213.51 198.08   Q 213.92 189.49 213.71 180.95   C 213.63 177.66 214.03 178.62 211.40 177.13   Q 205.68 173.87 200.05 170.45   C 196.26 168.15 194.56 165.88 194.30 161.18   Q 193.81 151.94 194.21 142.71   Q 194.38 138.75 195.85 136.49   C 199.31 131.19 203.68 131.01 210.32 131.19   C 214.15 131.30 218.84 130.66 222.16 132.22   Q 231.13 136.43 228.63 147.74   Q 228.53 148.21 228.11 148.43   L 214.82 155.53   A 0.58 0.58 0.0 0 1 213.96 155.04   L 213.50 143.76   Z"
       id="path328"
       style="stroke:none;stroke-opacity:1" />
    <path
       d="   M 312.33 174.88   C 312.24 178.29 311.63 197.40 313.76 198.91   C 315.36 200.05 316.48 199.12 316.49 197.34   Q 316.52 189.69 316.86 182.09   Q 316.89 181.50 317.48 181.50   L 331.89 181.50   A 0.33 0.33 0.0 0 1 332.22 181.83   Q 332.34 189.70 332.13 197.53   C 331.90 206.43 328.84 210.47 319.99 210.89   Q 311.41 211.30 306.45 210.63   C 298.55 209.58 297.53 202.87 297.52 196.13   C 297.49 177.75 296.86 159.03 297.81 140.69   C 298.13 134.54 302.68 131.53 308.39 131.11   C 317.98 130.41 331.81 129.46 332.08 142.41   Q 332.41 158.11 332.20 173.79   Q 332.19 174.25 331.74 174.25   L 312.98 174.25   Q 312.35 174.25 312.33 174.88   Z   M 313.29 162.69   L 315.81 162.69   A 0.91 0.91 0.0 0 0 316.72 161.78   L 316.69 147.64   A 5.13 1.17 89.9 0 0 315.51 142.51   L 313.51 142.51   A 5.13 1.17 89.9 0 0 312.35 147.64   L 312.38 161.78   A 0.91 0.91 0.0 0 0 313.29 162.69   Z"
       id="path330"
       style="stroke:none;stroke-opacity:1" />
  </g>
  <g
     fill="#0a060d"
     id="g364">
    <path
       d="   M 86.25 92.55   A 0.50 0.49 -88.8 0 0 86.75 92.06   L 86.76 67.79   Q 86.76 67.18 87.11 66.70   L 103.54 44.15   A 0.89 0.88 -58.3 0 1 104.67 43.88   C 107.55 45.37 111.54 47.27 114.61 46.51   C 118.08 45.64 121.26 41.25 119.39 37.57   Q 117.66 34.18 114.82 31.49   A 2.29 2.29 0.0 0 1 114.54 28.51   L 134.74 0.47   A 0.65 0.65 0.0 0 1 135.80 0.47   L 156.73 29.53   Q 157.06 29.99 156.67 30.40   C 153.79 33.46 149.85 36.29 151.01 41.20   C 153.07 49.93 160.93 46.44 166.14 43.61   Q 166.66 43.33 167.01 43.81   L 183.69 66.98   Q 184.00 67.40 184.00 67.93   L 184.00 91.75   A 0.75 0.75 0.0 0 0 184.75 92.50   L 561.63 92.50   Q 562.17 92.50 562.56 92.88   L 583.47 113.99   A 1.18 1.17 -49.0 0 1 583.57 115.53   C 581.55 118.21 579.10 121.14 578.11 124.21   C 575.15 133.39 581.39 142.62 590.66 144.03   C 596.24 144.89 602.37 140.83 606.38 137.30   A 0.42 0.41 46.5 0 1 606.95 137.32   L 636.63 167.01   Q 637.13 167.51 636.63 168.01   L 607.71 196.72   A 1.31 1.30 36.8 0 1 606.16 196.94   C 600.17 193.66 596.68 189.35 589.13 191.11   Q 583.66 192.38 580.12 197.17   C 574.46 204.84 578.34 212.39 583.48 219.13   A 1.06 1.06 0.0 0 1 583.42 220.50   Q 575.01 229.61 566.05 238.27   C 563.71 240.54 562.98 242.19 559.19 242.19   Q 465.46 242.27 370.92 242.24   Q 369.98 242.24 369.79 243.17   C 368.24 250.66 367.59 258.28 365.38 265.74   Q 365.25 266.18 364.82 266.33   Q 362.33 267.18 362.00 265.00   Q 360.70 256.54 359.01 248.16   C 358.78 247.00 358.70 244.42 358.13 242.75   Q 357.96 242.26 357.45 242.26   L 184.72 242.24   A 0.72 0.72 0.0 0 0 184.00 242.96   L 184.00 274.40   Q 184.00 274.91 183.70 275.32   L 167.65 297.71   Q 166.90 298.77 165.68 298.30   C 162.79 297.18 158.24 294.04 154.88 296.05   Q 148.07 300.13 150.59 307.70   C 151.51 310.46 154.18 312.43 155.75 315.17   Q 156.02 315.65 155.79 316.15   L 136.06 359.23   A 0.81 0.80 -45.2 0 1 134.60 359.24   Q 124.94 338.50 115.67 317.82   C 114.07 314.23 116.67 312.84 118.61 310.34   C 122.31 305.58 121.50 300.24 116.56 296.68   C 112.69 293.90 109.04 296.55 105.43 298.17   A 2.07 2.07 0.0 0 1 102.91 297.51   Q 95.84 287.91 88.97 278.29   C 87.56 276.32 86.71 275.29 86.73 272.72   Q 86.81 257.77 86.92 243.15   A 1.09 1.09 0.0 0 0 85.80 242.05   L 75.33 242.32   Q 74.68 242.34 74.23 241.88   L 52.98 220.55   Q 52.55 220.12 52.91 219.63   C 55.08 216.60 57.72 213.57 58.65 210.13   C 62.45 195.99 47.15 185.17 35.19 193.96   Q 32.40 196.02 30.27 196.99   Q 29.67 197.27 29.20 196.80   L 0.39 168.24   A 1.05 1.05 0.0 0 1 0.39 166.76   L 29.39 137.60   Q 29.78 137.21 30.24 137.52   C 35.83 141.27 40.95 145.70 48.04 143.60   C 56.42 141.12 61.21 132.94 58.47 124.20   C 57.45 120.96 55.07 117.99 52.91 115.24   A 0.78 0.78 0.0 0 1 52.98 114.20   L 74.18 92.92   Q 74.63 92.47 75.26 92.48   L 86.25 92.55   Z   M 117.90 28.09   C 119.67 28.74 120.99 28.03 122.58 28.45   Q 123.14 28.60 123.47 28.14   L 133.62 14.06   Q 133.93 13.63 133.94 13.10   L 134.12 5.57   A 0.28 0.28 0.0 0 0 133.61 5.39   L 117.70 27.43   Q 117.37 27.89 117.90 28.09   Z   M 138.58 16.63   Q 142.12 21.23 145.63 25.88   C 147.49 28.35 149.73 28.84 152.58 28.43   A 0.57 0.57 0.0 0 0 152.96 27.54   L 137.20 5.54   A 0.35 0.35 0.0 0 0 136.57 5.71   C 136.15 10.35 135.56 12.69 138.58 16.63   Z   M 152.25 268.51   C 152.11 274.65 152.19 279.05 146.46 282.59   C 142.55 285.00 129.71 284.29 127.55 283.94   Q 122.93 283.20 119.98 278.73   C 117.81 275.44 118.52 271.72 118.50 267.94   Q 118.20 172.22 118.29 76.51   C 118.29 66.92 118.63 58.97 130.54 58.27   C 139.40 57.76 151.45 57.16 152.18 69.48   Q 152.66 77.72 152.30 95.32   Q 152.29 95.86 152.76 96.10   L 173.99 106.89   A 0.62 0.61 -76.5 0 0 174.88 106.34   L 174.81 71.13   Q 174.80 70.65 174.54 70.26   C 171.86 66.29 167.85 59.54 163.48 55.48   Q 163.11 55.12 162.60 55.23   C 146.13 58.76 135.82 43.32 144.73 29.59   Q 145.06 29.08 144.71 28.58   L 135.76 16.20   Q 135.33 15.61 134.90 16.20   L 125.76 28.68   Q 125.42 29.14 125.74 29.61   Q 133.19 40.76 124.40 50.91   C 119.77 56.25 114.37 56.29 107.55 55.26   Q 107.00 55.18 106.67 55.63   L 96.26 69.73   Q 95.93 70.17 95.93 70.72   L 95.95 271.74   Q 95.95 272.28 96.26 272.72   L 106.35 286.55   Q 106.70 287.03 107.29 286.93   C 126.03 283.57 136.13 301.52 125.73 316.51   Q 125.41 316.98 125.64 317.50   L 134.94 337.86   A 0.47 0.47 0.0 0 0 135.79 337.86   L 144.91 317.65   A 1.24 1.22 39.7 0 0 144.79 316.43   C 140.89 310.89 139.23 303.90 141.84 297.50   C 145.19 289.27 153.36 284.84 162.18 286.93   A 2.34 2.33 -65.0 0 0 164.60 286.05   Q 168.98 280.11 173.25 274.16   C 176.11 270.18 174.80 264.10 174.81 260.04   Q 174.85 246.17 174.70 232.56   A 0.65 0.64 -12.3 0 0 173.79 231.98   L 153.02 241.35   Q 152.50 241.58 152.50 242.15   Q 152.56 255.33 152.25 268.51   Z   M 149.75 43.57   C 147.08 38.62 149.47 35.45 153.06 31.43   Q 153.66 30.75 152.75 30.75   L 147.50 30.75   Q 146.96 30.75 146.65 31.19   C 133.15 50.03 165.73 62.14 164.24 47.20   A 0.32 0.31 73.7 0 0 163.79 46.95   Q 154.22 51.88 149.75 43.57   Z   M 122.01 40.62   C 120.58 47.39 113.58 51.44 107.45 47.09   Q 106.07 46.11 106.23 47.80   Q 106.94 54.95 113.73 53.96   Q 124.16 52.44 126.80 42.31   Q 126.95 41.75 126.40 41.55   L 122.77 40.20   Q 122.14 39.97 122.01 40.62   Z   M 93.55 68.02   C 96.75 67.02 102.56 56.91 105.09 54.03   Q 105.44 53.62 105.29 53.11   L 103.88 48.47   Q 103.68 47.84 103.17 48.25   Q 102.17 49.03 101.16 50.42   Q 96.13 57.31 90.46 65.59   Q 89.98 66.29 90.50 66.96   Q 91.76 68.59 93.55 68.02   Z   M 181.30 66.87   L 167.69 48.00   A 0.11 0.11 0.0 0 0 167.54 47.98   L 167.53 47.99   A 5.81 5.12 54.2 0 0 166.78 55.69   L 173.71 65.31   A 5.81 5.12 54.2 0 0 181.27 67.03   L 181.27 67.02   A 0.11 0.11 0.0 0 0 181.30 66.87   Z   M 128.18 92.54   L 142.58 92.48   A 0.73 0.73 0.0 0 0 143.31 91.75   L 143.24 70.81   A 3.35 2.23 89.8 0 0 141.00 67.47   L 129.60 67.51   A 3.35 2.23 89.8 0 0 127.38 70.87   L 127.45 91.81   A 0.73 0.73 0.0 0 0 128.18 92.54   Z   M 181.76 115.46   L 182.08 70.03   Q 182.08 69.17 181.26 69.42   L 177.60 70.52   Q 177.04 70.69 177.04 71.28   Q 176.96 87.21 176.99 103.16   C 177.00 108.60 177.88 111.87 181.45 115.58   Q 181.76 115.91 181.76 115.46   Z   M 93.76 270.88   L 93.77 71.43   Q 93.77 70.84 93.20 70.68   L 89.41 69.64   Q 88.73 69.45 88.73 70.15   C 88.98 137.68 88.73 205.20 88.75 272.74   Q 88.76 273.33 89.31 273.12   L 93.30 271.56   Q 93.76 271.38 93.76 270.88   Z   M 144.61 274.44   C 141.78 278.28 134.64 277.36 129.74 276.94   C 126.76 276.68 125.25 273.96 125.25 271.01   Q 125.25 175.04 125.25 79.06   Q 125.25 78.50 124.69 78.50   L 121.03 78.50   Q 120.44 78.50 120.44 79.10   Q 120.77 208.68 120.71 271.25   Q 120.70 279.84 127.99 281.80   C 131.77 282.82 140.73 282.69 143.98 281.22   C 149.08 278.93 150.27 274.87 150.26 269.24   Q 150.24 255.80 150.25 242.36   Q 150.26 241.77 149.77 241.43   L 145.93 238.71   Q 145.23 238.21 145.22 239.07   L 144.90 273.57   Q 144.90 274.05 144.61 274.44   Z   M 145.57 79.07   C 144.85 85.11 144.70 92.08 145.13 98.13   Q 145.18 98.84 145.81 98.50   L 150.18 96.13   Q 150.68 95.86 150.66 95.28   L 150.01 79.23   Q 149.98 78.50 149.24 78.50   L 146.21 78.50   Q 145.63 78.50 145.57 79.07   Z   M 142.92 95.05   A 0.55 0.55 0.0 0 0 142.37 94.50   L 128.31 94.50   A 0.55 0.55 0.0 0 0 127.76 95.05   L 127.76 98.95   A 0.55 0.55 0.0 0 0 128.31 99.50   L 142.37 99.50   A 0.55 0.55 0.0 0 0 142.92 98.95   L 142.92 95.05   Z   M 184.50 99.16   A 0.34 0.34 0.0 0 0 184.84 99.50   L 558.26 99.50   A 0.34 0.34 0.0 0 0 558.58 99.27   L 560.08 94.95   A 0.34 0.34 0.0 0 0 559.76 94.50   L 184.84 94.50   A 0.34 0.34 0.0 0 0 184.50 94.84   L 184.50 99.16   Z   M 62.80 113.58   C 67.46 109.97 72.15 105.19 75.97 100.85   Q 76.34 100.43 76.13 99.92   L 74.51 96.07   A 0.50 0.49 -33.6 0 0 73.70 95.91   L 57.87 111.79   Q 56.43 113.24 58.41 113.74   Q 60.18 114.19 61.93 113.95   Q 62.42 113.88 62.80 113.58   Z   M 567.95 100.93   C 566.60 99.71 564.92 97.48 562.82 96.26   Q 562.30 95.96 562.07 96.51   L 560.69 99.76   Q 560.47 100.27 560.83 100.70   Q 568.36 109.62 573.72 113.53   Q 575.93 115.15 579.20 113.44   Q 579.72 113.17 579.34 112.72   Q 574.01 106.40 567.95 100.93   Z   M 67.09 197.83   C 69.91 205.88 68.03 210.99 64.89 218.86   Q 64.70 219.34 65.07 219.71   L 77.65 232.41   Q 78.02 232.78 78.55 232.78   L 85.66 232.70   Q 86.25 232.69 86.25 232.10   L 86.25 102.87   Q 86.25 102.25 85.62 102.25   L 78.50 102.25   Q 77.88 102.25 77.44 102.69   L 65.07 115.06   Q 64.69 115.44 64.93 115.92   C 77.11 139.31 54.66 162.02 31.30 149.65   Q 30.79 149.38 30.37 149.79   L 13.10 166.90   Q 12.57 167.43 13.10 167.96   L 30.27 184.95   Q 30.70 185.38 31.24 185.11   C 45.63 177.86 61.79 182.67 67.09 197.83   Z   M 168.83 223.37   Q 173.24 222.10 177.14 219.85   L 182.16 217.61   A 1.42 1.41 77.4 0 1 184.15 218.88   L 184.36 231.53   Q 184.37 232.20 185.04 232.22   Q 188.40 232.33 191.75 232.34   C 243.40 232.45 295.11 233.21 346.75 232.21   L 355.22 232.23   A 0.53 0.52 -5.4 0 0 355.74 231.61   L 339.29 139.00   C 339.07 136.82 337.36 133.45 339.78 132.03   Q 347.14 127.73 355.44 125.80   A 1.02 1.02 0.0 0 1 356.68 126.65   L 361.41 160.78   Q 362.01 171.68 364.17 182.55   Q 364.38 183.61 364.52 182.54   L 372.21 123.25   L 373.05 116.97   A 2.18 2.18 0.0 0 1 374.08 115.40   Q 381.56 110.96 389.27 106.55   C 391.66 105.19 392.66 107.46 392.36 109.48   Q 389.76 127.27 386.71 145.00   L 385.25 154.46   L 372.09 231.83   Q 371.98 232.43 372.60 232.43   L 557.98 232.84   Q 558.54 232.84 558.93 232.45   L 571.56 219.81   A 0.89 0.89 0.0 0 0 571.70 218.74   C 558.59 195.72 583.52 172.26 605.77 185.45   A 0.66 0.65 37.5 0 0 606.58 185.35   L 623.68 167.88   Q 624.09 167.45 623.67 167.03   L 606.17 149.58   Q 605.76 149.17 605.28 149.47   C 582.84 162.95 559.25 138.52 571.65 116.08   A 0.80 0.80 0.0 0 0 571.52 115.14   L 559.03 102.53   Q 558.75 102.25 558.36 102.25   L 184.92 102.25   Q 184.34 102.25 184.33 102.83   L 183.95 120.78   A 1.08 1.08 0.0 0 1 182.39 121.73   Q 164.04 112.69 145.36 102.96   C 142.64 101.54 134.62 102.21 128.21 102.29   Q 127.67 102.30 127.67 102.83   L 128.02 232.23   Q 128.02 232.70 128.49 232.71   C 134.43 232.78 145.48 233.95 150.75 231.76   Q 159.88 227.97 168.83 223.37   Z   M 364.17 199.29   Q 363.69 196.74 363.23 193.30   Q 358.94 160.87 354.61 128.72   A 0.64 0.64 0.0 0 0 353.72 128.21   L 341.77 133.30   Q 341.24 133.53 341.25 134.11   Q 341.30 136.18 341.53 137.49   Q 349.33 182.04 357.14 226.58   C 359.30 238.88 360.78 251.29 363.83 263.76   Q 364.12 264.96 364.33 263.74   L 390.24 109.48   A 0.54 0.54 0.0 0 0 389.43 108.92   L 375.71 117.07   A 1.13 1.12 -11.6 0 0 375.16 117.90   L 364.80 199.28   Q 364.54 201.30 364.17 199.29   Z   M 577.60 136.78   Q 572.08 127.08 580.29 116.80   Q 580.72 116.27 580.05 116.14   Q 573.60 114.91 571.79 121.46   C 569.31 130.42 570.71 138.88 577.59 145.29   C 584.17 151.41 596.09 153.18 604.15 147.41   Q 604.54 147.13 604.63 146.67   L 605.55 141.82   A 0.64 0.64 0.0 0 0 604.58 141.16   C 594.44 147.53 584.11 148.22 577.60 136.78   Z   M 58.60 137.65   Q 48.62 152.05 31.86 141.22   A 0.53 0.53 0.0 0 0 31.05 141.76   L 31.94 146.60   Q 32.06 147.20 32.57 147.52   C 46.97 156.68 67.02 146.07 66.24 128.87   Q 66.14 126.76 64.69 125.08   Q 62.37 122.39 59.66 120.12   Q 58.80 119.40 59.21 120.44   C 61.39 125.93 62.14 132.54 58.60 137.65   Z   M 626.00 165.87   A 0.34 0.34 0.0 0 0 626.24 165.97   L 632.36 166.05   A 0.34 0.34 0.0 0 0 632.61 165.47   L 608.08 140.96   A 0.34 0.34 0.0 0 0 607.50 141.20   L 607.50 147.23   A 0.34 0.34 0.0 0 0 607.60 147.47   L 626.00 165.87   Z   M 28.23 141.45   L 4.13 165.32   Q 3.49 165.95 4.38 166.12   C 7.79 166.76 10.11 166.51 12.73 163.89   Q 20.65 155.96 28.65 148.09   Q 29.00 147.75 29.00 147.26   L 29.00 141.77   A 0.45 0.45 0.0 0 0 28.23 141.45   Z   M 607.60 193.20   A 0.49 0.49 0.0 0 0 608.44 193.53   L 632.57 169.41   A 0.49 0.49 0.0 0 0 632.20 168.58   L 626.21 168.84   A 0.49 0.49 0.0 0 0 625.89 168.98   L 607.60 187.27   A 0.49 0.49 0.0 0 0 607.46 187.63   L 607.60 193.20   Z   M 580.29 218.13   C 572.84 207.91 573.91 195.93 585.94 189.90   Q 586.58 189.58 585.97 189.21   Q 584.70 188.45 584.05 187.00   A 1.37 1.37 0.0 0 0 582.10 186.38   Q 568.96 194.24 570.91 208.73   C 571.73 214.85 572.52 219.73 580.05 218.69   A 0.36 0.35 -21.9 0 0 580.29 218.13   Z   M 60.50 200.81   Q 62.63 210.34 56.44 217.83   Q 55.89 218.50 56.76 218.50   L 61.80 218.50   Q 62.46 218.50 62.80 217.92   Q 68.83 207.48 64.16 196.23   Q 63.99 195.82 63.56 195.84   L 58.96 196.06   Q 58.41 196.09 58.64 196.58   C 59.33 198.09 60.16 199.29 60.50 200.81   Z   M 571.06 223.38   C 567.66 226.93 564.01 230.22 560.63 233.82   Q 560.21 234.27 560.47 234.83   L 562.20 238.62   Q 562.55 239.38 563.13 238.79   L 579.21 222.56   A 1.03 1.03 0.0 0 0 578.65 220.82   Q 574.25 220.06 571.06 223.38   Z   M 179.36 222.16   Q 179.85 221.33 178.97 221.72   L 147.03 235.99   Q 146.33 236.31 147.00 236.69   L 151.21 239.09   Q 151.65 239.33 152.12 239.14   Q 161.99 234.93 171.73 230.41   C 175.72 228.56 177.23 225.79 179.36 222.16   Z   M 181.82 272.79   L 182.07 224.03   Q 182.08 223.23 181.50 223.79   C 178.17 227.03 176.98 229.99 176.99 234.94   Q 177.01 252.98 177.00 271.04   Q 177.00 271.61 177.53 271.82   L 181.17 273.23   Q 181.82 273.47 181.82 272.79   Z   M 142.15 242.01   L 128.27 242.09   A 1.06 1.06 0.0 0 0 127.22 243.15   L 127.36 270.74   A 4.61 4.29 89.7 0 0 131.68 275.33   L 139.10 275.29   A 4.61 4.29 89.7 0 0 143.36 270.66   L 143.22 243.07   A 1.06 1.06 0.0 0 0 142.15 242.01   Z   M 175.79 274.29   C 172.26 278.73 167.71 284.83 166.56 287.33   Q 164.81 291.13 166.99 294.70   A 0.32 0.32 0.0 0 0 167.52 294.72   L 181.03 275.81   A 0.46 0.46 0.0 0 0 180.77 275.09   L 176.69 273.99   Q 176.14 273.85 175.79 274.29   Z   M 152.53 314.00   C 147.00 307.66 145.67 300.64 152.90 294.82   Q 153.42 294.40 152.90 293.97   L 150.22 291.80   Q 149.74 291.41 149.24 291.77   C 142.32 296.64 141.43 305.29 144.90 312.47   C 146.54 315.86 149.31 316.02 152.40 314.61   Q 152.87 314.39 152.53 314.00   Z   M 122.94 302.77   C 122.69 308.02 121.29 309.77 118.19 313.85   Q 117.69 314.50 118.46 314.77   C 126.47 317.63 127.20 308.57 127.76 303.66   Q 127.83 303.02 127.21 302.84   L 124.12 301.93   A 0.92 0.92 0.0 0 0 122.94 302.77   Z   M 144.31 324.16   Q 140.96 331.43 137.68 338.74   C 135.74 343.06 136.33 347.85 136.58 352.41   A 0.28 0.28 0.0 0 0 137.11 352.51   L 153.05 317.51   Q 153.35 316.86 152.63 316.87   C 146.79 316.99 146.38 319.66 144.31 324.16   Z"
       id="path334" />
    <path
       d="   M 498.46 126.25   L 497.23 126.51   Q 496.70 126.62 496.27 126.30   Q 490.59 122.19 485.95 116.36   Q 489.56 109.16 496.57 104.79   A 0.63 0.62 48.6 0 1 497.30 104.84   Q 502.93 109.48 507.55 115.14   Q 507.90 115.58 507.68 116.09   C 506.28 119.24 501.01 123.68 498.46 126.25   Z   M 497.2058 107.3143   A 0.61 0.61 0.0 0 0 496.3431 107.3128   L 488.4947 115.1338   A 0.61 0.61 0.0 0 0 488.4932 115.9965   L 496.5542 124.0857   A 0.61 0.61 0.0 0 0 497.4169 124.0872   L 505.2653 116.2662   A 0.61 0.61 0.0 0 0 505.2668 115.4035   L 497.2058 107.3143   Z"
       id="path336" />
    <path
       d="   M 264.79 132.00   Q 264.85 137.51 264.50 143.01   C 264.39 144.72 263.38 145.09 261.85 145.04   Q 260.67 145.51 259.29 144.99   A 0.77 0.77 0.0 0 0 258.25 145.71   L 258.25 196.32   Q 258.25 196.91 258.84 196.92   L 262.00 196.96   Q 264.73 197.44 264.76 200.25   Q 264.82 205.59 264.68 210.94   Q 264.62 213.48 261.75 213.04   L 256.75 213.29   C 250.35 213.87 243.30 212.14 240.15 206.43   C 238.24 202.95 238.76 198.91 238.72 194.93   Q 238.47 170.32 238.48 145.67   Q 238.48 145.04 237.87 145.18   C 232.89 146.30 233.75 135.71 234.21 132.25   Q 234.24 130.89 234.94 129.76   Q 235.22 129.31 235.73 129.19   L 237.48 128.79   Q 238.13 128.64 238.19 127.98   L 238.60 123.52   Q 238.65 122.92 239.18 122.62   C 243.30 120.29 252.56 114.15 257.00 114.25   Q 257.77 114.27 257.81 115.04   L 258.48 128.47   Q 258.50 128.89 258.92 128.94   L 263.40 129.49   Q 263.90 129.55 264.20 129.96   Q 264.83 130.85 264.79 132.00   Z   M 257.03 143.02   L 262.03 142.68   Q 262.46 142.65 262.46 142.22   L 262.58 132.01   A 0.81 0.81 0.0 0 0 261.77 131.19   L 256.70 131.19   Q 256.02 131.19 256.02 130.51   L 255.99 117.74   A 0.84 0.84 0.0 0 0 254.76 116.99   L 241.59 123.99   Q 241.12 124.24 241.09 124.77   L 240.77 130.30   Q 240.74 130.92 240.16 131.13   Q 239.08 131.53 238.02 130.77   Q 236.46 129.65 236.48 131.56   L 236.56 142.10   Q 236.56 142.64 237.10 142.68   L 240.17 142.90   Q 240.78 142.95 240.77 143.56   Q 240.62 165.55 241.03 199.50   C 241.18 212.26 253.35 211.20 262.08 210.66   Q 262.50 210.63 262.50 210.21   L 262.50 200.07   Q 262.50 199.62 262.06 199.58   L 256.99 199.07   Q 256.25 199.00 256.25 198.25   L 256.20 143.91   Q 256.20 143.08 257.03 143.02   Z"
       id="path338" />
    <path
       d="   M 289.04 145.75   L 288.44 212.97   L 280.50 213.54   L 271.28 213.16   A 1.93 1.93 0.0 0 1 269.44 211.29   C 268.69 184.27 270.01 156.83 268.96 129.75   L 269.00 123.71   Q 269.00 123.11 269.53 122.83   L 285.94 114.26   A 1.71 1.71 0.0 0 1 288.44 115.74   L 289.04 145.75   Z   M 271.27 188.49   C 271.19 195.60 271.13 202.99 271.64 210.17   Q 271.68 210.75 272.26 210.75   L 286.10 210.75   A 0.41 0.40 -90.0 0 0 286.50 210.34   L 286.50 117.49   A 0.72 0.72 0.0 0 0 285.44 116.86   L 271.95 124.24   Q 271.47 124.50 271.47 125.05   Q 271.63 156.76 271.27 188.49   Z"
       id="path340" />
    <path
       d="   M 498.50 127.21   L 505.13 127.70   A 1.33 1.32 -89.5 0 1 506.36 128.96   L 507.04 142.50   Q 506.45 151.84 506.86 160.87   L 506.79 179.75   L 506.46 210.39   Q 506.46 210.90 506.02 211.17   Q 505.03 211.77 503.75 211.54   L 499.25 211.79   L 488.67 211.76   A 1.63 1.63 0.0 0 1 487.05 210.13   L 487.30 136.82   L 487.21 135.00   L 487.43 129.10   A 1.48 1.48 0.0 0 1 488.83 127.68   L 498.50 127.21   Z   M 504.75 130.15   A 0.26 0.26 0.0 0 0 504.49 129.89   L 489.51 129.89   A 0.26 0.26 0.0 0 0 489.25 130.15   L 489.25 209.49   A 0.26 0.26 0.0 0 0 489.51 209.75   L 504.49 209.75   A 0.26 0.26 0.0 0 0 504.75 209.49   L 504.75 130.15   Z"
       id="path342" />
    <path
       d="   M 425.00 211.79   C 419.62 211.71 414.44 210.98 409.05 211.83   C 402.10 212.94 393.85 208.97 393.41 201.06   Q 392.75 188.99 392.96 177.00   Q 393.78 170.57 399.29 167.25   C 401.36 165.87 411.94 159.49 412.54 157.94   Q 412.79 157.30 412.16 157.58   C 408.86 159.05 398.39 152.42 393.67 149.52   Q 393.24 149.26 393.24 148.76   L 393.21 138.25   C 396.19 125.97 408.69 127.08 418.29 127.64   C 426.06 128.09 432.19 132.31 432.29 140.48   Q 432.68 172.11 432.51 203.75   Q 432.49 207.14 431.98 210.57   A 1.02 1.01 -87.5 0 1 431.04 211.44   L 425.00 211.79   Z   M 415.25 207.74   L 415.25 209.12   Q 415.25 209.75 415.88 209.75   L 429.81 209.75   Q 430.39 209.75 430.40 209.16   Q 430.78 160.01 430.34 141.00   C 430.19 134.39 425.54 130.43 419.06 129.93   C 413.77 129.52 403.98 128.78 399.51 132.11   C 394.86 135.58 395.07 140.73 394.97 147.29   Q 394.97 147.86 395.47 148.13   L 409.62 155.79   Q 410.35 156.18 410.37 155.35   L 410.57 143.68   Q 410.58 143.20 410.79 142.77   Q 411.77 140.79 413.98 141.79   A 1.86 1.84 -78.5 0 1 415.07 143.45   L 415.32 158.87   Q 415.33 159.40 414.88 159.68   Q 408.58 163.70 402.53 168.04   C 398.25 171.12 395.20 172.28 395.21 178.47   Q 395.23 189.08 395.39 199.69   C 395.47 205.71 400.62 209.34 406.07 209.96   C 409.03 210.29 411.87 208.62 414.48 207.27   Q 415.25 206.87 415.25 207.74   Z"
       id="path344" />
    <path
       d="   M 480.54 138.25   Q 481.07 174.14 480.51 210.02   C 480.50 210.80 480.24 211.36 479.43 211.42   L 473.56 211.70   L 463.20 211.42   Q 462.64 211.41 462.20 211.07   Q 460.95 210.11 459.73 211.11   Q 459.33 211.44 458.80 211.48   L 454.05 211.80   L 452.75 211.79   L 442.18 211.34   Q 441.61 211.31 441.55 210.74   Q 441.08 206.26 441.08 201.75   Q 441.04 172.86 440.94 144.02   L 441.07 137.70   Q 441.08 137.19 441.51 136.93   Q 451.10 131.01 457.94 127.70   Q 459.41 126.99 460.25 128.44   Q 460.51 128.91 461.04 128.81   C 462.53 128.52 463.96 127.74 465.33 127.59   Q 477.51 126.26 480.54 138.25   Z   M 458.50 133.25   L 458.50 130.72   Q 458.50 129.97 457.84 130.32   L 443.62 137.92   A 1.29 1.27 76.1 0 0 442.95 139.05   L 443.14 209.19   A 0.56 0.55 90.0 0 0 443.69 209.75   L 457.82 209.75   A 0.58 0.57 -0.0 0 0 458.40 209.18   L 458.76 142.89   Q 458.77 142.21 459.33 141.83   Q 460.72 140.88 462.27 141.52   Q 462.79 141.73 462.82 142.29   C 464.11 164.38 463.21 187.03 463.27 209.23   Q 463.27 209.75 463.80 209.75   L 478.43 209.75   A 0.27 0.26 90.0 0 0 478.69 209.48   Q 478.48 175.70 478.24 141.94   C 478.22 139.40 478.55 137.49 477.20 135.21   Q 472.81 127.82 464.18 130.33   C 462.28 130.88 460.87 132.40 459.34 133.65   Q 458.50 134.33 458.50 133.25   Z"
       id="path346" />
    <path
       d="   M 543.75 211.79   Q 538.31 211.82 532.90 211.37   Q 530.77 211.20 527.78 211.72   C 520.34 213.04 512.19 209.02 511.45 200.83   Q 510.41 189.21 511.05 177.46   Q 511.29 170.90 517.65 167.41   C 521.22 164.90 527.75 161.31 530.57 158.05   Q 531.87 156.55 530.20 157.70   L 529.18 158.40   Q 528.70 158.73 528.18 158.48   Q 520.31 154.71 512.89 150.14   C 509.58 148.11 511.26 139.89 511.71 137.50   C 515.28 125.66 524.87 127.84 534.33 127.72   Q 540.20 127.65 543.00 128.94   C 548.95 131.66 550.57 136.56 550.63 143.20   Q 550.94 176.90 550.63 210.60   Q 550.63 211.19 550.04 211.24   L 543.75 211.79   Z   M 533.35 207.64   L 533.22 208.94   Q 533.14 209.75 533.95 209.75   L 547.76 209.75   A 0.71 0.70 -89.6 0 0 548.46 209.05   Q 548.68 177.93 548.17 146.88   C 548.06 140.09 548.68 135.31 543.68 131.98   C 538.95 128.84 529.52 129.56 523.39 130.14   C 514.14 131.00 512.32 139.74 513.45 147.52   Q 513.53 148.06 514.01 148.32   L 528.06 155.91   Q 528.66 156.24 528.68 155.55   Q 528.83 149.28 529.03 143.00   Q 529.08 141.30 531.54 141.35   Q 532.09 141.36 532.33 141.85   C 534.12 145.44 533.31 154.91 533.21 159.12   Q 533.20 159.60 532.80 159.86   Q 529.40 162.09 518.76 169.26   C 515.79 171.26 513.54 173.06 513.51 176.95   Q 513.43 188.07 513.54 199.19   C 513.61 205.11 517.65 208.45 522.92 209.82   C 526.38 210.72 529.72 208.80 532.71 207.21   Q 533.43 206.82 533.35 207.64   Z"
       id="path348" />
    <path
       d="   M 230.54 137.75   Q 231.74 142.39 231.79 147.16   Q 231.80 147.70 231.45 148.11   Q 229.38 150.50 226.50 151.96   L 223.21 154.00   L 214.40 158.43   Q 213.89 158.68 213.39 158.39   L 212.04 157.58   Q 211.64 157.34 211.49 157.79   C 210.99 159.36 216.07 162.07 217.25 162.54   C 224.41 166.61 227.95 168.49 230.88 173.78   Q 231.66 188.98 230.93 204.17   Q 228.58 209.60 223.50 211.79   C 217.75 214.06 204.54 214.13 199.00 211.50   C 190.35 207.39 191.80 197.32 191.40 189.42   L 191.50 182.04   C 193.35 177.35 203.04 178.86 208.79 179.38   Q 209.33 179.43 209.81 179.66   L 210.72 180.09   Q 211.27 180.36 211.23 179.74   C 211.22 179.59 198.76 172.27 197.40 171.36   C 194.58 169.46 192.74 167.29 192.39 163.65   Q 191.26 151.86 192.00 140.04   C 195.02 126.92 209.21 127.81 219.49 128.97   Q 227.80 129.91 230.54 137.75   Z   M 213.50 143.76   L 213.96 155.04   A 0.58 0.58 0.0 0 0 214.82 155.53   L 228.11 148.43   Q 228.53 148.21 228.63 147.74   Q 231.13 136.43 222.16 132.22   C 218.84 130.66 214.15 131.30 210.32 131.19   C 203.68 131.01 199.31 131.19 195.85 136.49   Q 194.38 138.75 194.21 142.71   Q 193.81 151.94 194.30 161.18   C 194.56 165.88 196.26 168.15 200.05 170.45   Q 205.68 173.87 211.40 177.13   C 214.03 178.62 213.63 177.66 213.71 180.95   Q 213.92 189.49 213.51 198.08   Q 213.49 198.61 213.01 198.84   C 210.60 200.04 209.31 198.34 209.25 195.98   Q 209.08 189.17 208.93 182.15   Q 208.92 181.59 208.36 181.59   L 194.68 181.58   A 0.76 0.76 0.0 0 0 193.92 182.37   Q 194.23 191.50 194.25 200.61   C 194.27 207.04 199.82 210.42 205.80 210.74   C 212.92 211.13 228.17 212.69 228.73 201.41   Q 229.24 191.23 228.96 181.03   C 228.82 175.63 228.98 172.39 224.56 169.67   Q 221.25 167.64 212.24 162.39   C 210.30 161.27 209.26 160.20 209.25 158.00   Q 209.19 151.40 209.47 144.83   Q 209.58 142.35 212.21 142.47   A 1.35 1.35 0.0 0 1 213.50 143.76   Z"
       id="path350" />
    <path
       d="   M 185.04 147.75   Q 184.55 162.08 185.22 176.14   L 185.04 190.25   Q 185.44 201.50 184.32 212.77   L 176.75 213.29   Q 171.67 213.61 166.83 212.76   Q 164.86 212.41 162.77 212.84   C 140.78 217.36 144.72 189.48 145.21 177.50   Q 146.75 171.26 152.88 167.80   C 157.26 164.91 166.02 159.71 165.05 157.80   Q 164.73 157.17 164.14 157.56   L 163.27 158.14   Q 162.81 158.45 162.31 158.22   Q 154.12 154.41 146.56 149.45   C 144.29 147.97 145.39 141.99 145.46 139.50   C 148.83 127.12 162.58 127.92 172.57 129.17   C 183.92 130.58 184.50 138.04 185.04 147.75   Z   M 167.43 208.50   L 167.53 210.57   Q 167.56 211.08 168.07 211.07   L 181.99 210.70   Q 182.49 210.69 182.49 210.19   Q 182.52 176.59 182.49 143.01   C 182.48 129.19 168.45 130.41 158.30 131.21   C 148.74 131.96 147.19 139.48 147.52 147.51   Q 147.54 148.05 148.02 148.30   L 161.97 155.75   A 0.56 0.56 0.0 0 0 162.79 155.27   L 163.06 144.81   A 3.43 1.41 -36.4 0 1 164.29 142.78   C 168.53 138.66 167.24 159.57 167.24 160.17   A 1.52 1.48 74.8 0 1 166.54 161.43   C 162.67 163.83 147.91 172.57 147.72 177.01   Q 147.52 182.04 147.72 199.45   Q 147.77 203.59 149.10 205.79   C 152.64 211.65 161.48 212.79 166.69 208.18   Q 167.38 207.57 167.43 208.50   Z"
       id="path352" />
    <path
       d="   M 334.29 141.00   Q 334.11 153.45 335.03 165.64   Q 333.62 170.29 334.42 174.74   A 1.19 1.19 0.0 0 1 333.33 176.14   L 327.00 176.54   L 315.38 176.30   Q 314.82 176.29 314.59 176.81   Q 313.90 178.37 314.41 180.08   Q 314.61 180.74 315.12 180.28   C 317.02 178.56 324.58 179.20 327.00 178.96   L 333.07 179.37   Q 334.01 179.43 334.08 180.37   Q 334.87 190.50 334.25 200.60   C 333.90 206.23 331.39 209.73 326.50 212.04   C 317.86 213.97 302.62 215.43 297.16 206.97   C 294.93 203.53 295.05 199.12 295.05 195.00   Q 295.04 167.63 294.96 140.25   C 296.23 135.13 299.67 130.28 305.21 129.48   C 315.57 127.99 332.59 126.27 334.29 141.00   Z   M 312.98 174.25   L 331.74 174.25   Q 332.19 174.25 332.20 173.79   Q 332.41 158.11 332.08 142.41   C 331.81 129.46 317.98 130.41 308.39 131.11   C 302.68 131.53 298.13 134.54 297.81 140.69   C 296.86 159.03 297.49 177.75 297.52 196.13   C 297.53 202.87 298.55 209.58 306.45 210.63   Q 311.41 211.30 319.99 210.89   C 328.84 210.47 331.90 206.43 332.13 197.53   Q 332.34 189.70 332.22 181.83   A 0.33 0.33 0.0 0 0 331.89 181.50   L 317.48 181.50   Q 316.89 181.50 316.86 182.09   Q 316.52 189.69 316.49 197.34   C 316.48 199.12 315.36 200.05 313.76 198.91   C 311.63 197.40 312.24 178.29 312.33 174.88   Q 312.35 174.25 312.98 174.25   Z"
       id="path354" />
    <path
       d="   M 313.29 162.69   A 0.91 0.91 0.0 0 1 312.38 161.78   L 312.35 147.64   A 5.13 1.17 89.9 0 1 313.51 142.51   L 315.51 142.51   A 5.13 1.17 89.9 0 1 316.69 147.64   L 316.72 161.78   A 0.91 0.91 0.0 0 1 315.81 162.69   L 313.29 162.69   Z"
       id="path356" />
    <path
       d="   M 410.89 175.86   L 414.30 173.36   Q 414.95 172.88 414.96 173.69   Q 415.10 183.73 414.93 193.71   C 414.88 196.26 415.14 198.14 412.15 198.19   A 1.53 1.53 0.0 0 1 410.59 196.67   L 410.46 176.71   Q 410.46 176.17 410.89 175.86   Z"
       id="path358" />
    <path
       d="   M 533.25 173.76   C 533.35 179.61 533.81 189.43 532.58 197.40   Q 532.48 198.08 531.79 198.09   L 529.93 198.11   Q 529.19 198.12 529.18 197.38   L 528.92 176.30   Q 528.92 175.63 529.49 175.29   L 532.66 173.43   Q 533.24 173.08 533.25 173.76   Z"
       id="path360" />
    <path
       d="   M 162.78 180.93   Q 162.51 176.46 166.70 174.73   Q 167.20 174.53 167.21 175.06   Q 167.46 186.29 166.88 197.49   Q 166.78 199.55 164.77 199.26   Q 163.12 199.03 163.07 197.37   C 162.90 191.99 163.12 186.42 162.78 180.93   Z"
       id="path362" />
  </g>
  <g
     fill="#9e1489"
     id="g404">
    <path
       d="   M 485.95 116.36   Q 490.59 122.19 496.27 126.30   Q 496.70 126.62 497.23 126.51   L 498.46 126.25   L 498.50 127.21   L 488.83 127.68   A 1.48 1.48 0.0 0 0 487.43 129.10   L 487.21 135.00   Q 486.16 135.02 485.85 134.08   Q 485.68 133.57 485.32 133.17   L 478.73 126.05   A 0.68 0.68 0.0 0 1 478.82 125.04   Q 483.35 121.61 485.95 116.36   Z"
       id="path366" />
    <path
       d="   M 372.21 123.25   L 364.52 182.54   Q 364.38 183.61 364.17 182.55   Q 362.01 171.68 361.41 160.78   L 365.94 127.64   Q 366.01 127.14 366.38 126.81   Q 369.06 124.44 372.21 123.25   Z"
       id="path368" />
    <path
       d="   M 268.96 129.75   C 270.01 156.83 268.69 184.27 269.44 211.29   A 1.93 1.93 0.0 0 0 271.28 213.16   L 280.50 213.54   L 280.00 222.01   Q 279.97 222.50 279.48 222.50   L 263.02 222.50   Q 262.55 222.50 262.51 222.03   L 261.75 213.04   Q 264.62 213.48 264.68 210.94   Q 264.82 205.59 264.76 200.25   Q 264.73 197.44 262.00 196.96   Q 262.68 171.00 261.85 145.04   C 263.38 145.09 264.39 144.72 264.50 143.01   Q 264.85 137.51 264.79 132.00   Q 267.12 131.33 268.96 129.75   Z"
       id="path370" />
    <path
       d="   M 234.21 132.25   C 233.75 135.71 232.89 146.30 237.87 145.18   Q 238.48 145.04 238.48 145.67   Q 238.47 170.32 238.72 194.93   C 238.76 198.91 238.24 202.95 240.15 206.43   C 243.30 212.14 250.35 213.87 256.75 213.29   L 256.35 221.22   A 1.34 1.34 0.0 0 1 255.10 222.49   C 244.69 223.24 233.54 224.17 231.84 210.56   Q 231.44 207.36 230.93 204.17   Q 231.66 188.98 230.88 173.78   Q 232.10 164.61 231.31 155.32   Q 231.27 154.86 230.81 154.83   Q 227.78 154.66 226.50 151.96   Q 229.38 150.50 231.45 148.11   Q 231.80 147.70 231.79 147.16   Q 231.74 142.39 230.54 137.75   Q 231.97 137.00 231.58 135.42   Q 231.46 134.92 231.70 134.47   Q 232.52 132.95 234.21 132.25   Z"
       id="path372" />
    <path
       d="   M 487.30 136.82   L 487.05 210.13   A 1.63 1.63 0.0 0 0 488.67 211.76   L 499.25 211.79   Q 497.37 215.75 498.14 220.18   A 0.69 0.69 0.0 0 1 497.46 221.00   L 481.01 221.00   A 1.25 1.25 0.0 0 1 479.76 219.80   L 479.43 211.42   C 480.24 211.36 480.50 210.80 480.51 210.02   Q 481.07 174.14 480.54 138.25   Q 484.83 140.06 487.30 136.82   Z"
       id="path374" />
    <path
       d="   M 511.71 137.50   C 511.26 139.89 509.58 148.11 512.89 150.14   Q 520.31 154.71 528.18 158.48   Q 528.70 158.73 529.18 158.40   L 530.20 157.70   Q 531.87 156.55 530.57 158.05   C 527.75 161.31 521.22 164.90 517.65 167.41   Q 512.69 163.23 506.86 160.87   Q 506.45 151.84 507.04 142.50   Q 510.30 140.90 511.71 137.50   Z"
       id="path376" />
    <path
       d="   M 393.21 138.25   L 393.24 148.76   Q 393.24 149.26 393.67 149.52   C 398.39 152.42 408.86 159.05 412.16 157.58   Q 412.79 157.30 412.54 157.94   C 411.94 159.49 401.36 165.87 399.29 167.25   Q 393.28 162.82 386.54 159.55   Q 385.96 159.27 386.09 158.65   Q 386.59 156.24 385.25 154.46   L 386.71 145.00   Q 390.43 142.10 393.21 138.25   Z"
       id="path378" />
    <path
       d="   M 339.29 139.00   L 355.74 231.61   A 0.53 0.52 -5.4 0 1 355.22 232.23   L 346.75 232.21   Q 346.68 229.96 346.31 227.74   Q 341.09 196.63 335.03 165.64   Q 334.11 153.45 334.29 141.00   Q 337.29 141.16 339.29 139.00   Z"
       id="path380" />
    <path
       d="   M 145.46 139.50   C 145.39 141.99 144.29 147.97 146.56 149.45   Q 154.12 154.41 162.31 158.22   Q 162.81 158.45 163.27 158.14   L 164.14 157.56   Q 164.73 157.17 165.05 157.80   C 166.02 159.71 157.26 164.91 152.88 167.80   Q 146.46 163.17 139.06 159.57   A 0.96 0.95 -78.2 0 1 138.52 158.74   Q 138.34 154.05 138.91 149.58   C 139.42 145.63 143.39 142.79 145.46 139.50   Z"
       id="path382" />
    <path
       d="   M 192.00 140.04   Q 191.26 151.86 192.39 163.65   C 192.74 167.29 194.58 169.46 197.40 171.36   C 198.76 172.27 211.22 179.59 211.23 179.74   Q 211.27 180.36 210.72 180.09   L 209.81 179.66   Q 209.33 179.43 208.79 179.38   C 203.04 178.86 193.35 177.35 191.50 182.04   Q 187.75 179.72 185.22 176.14   Q 184.55 162.08 185.04 147.75   L 192.00 140.04   Z"
       id="path384" />
    <path
       d="   M 294.96 140.25   Q 295.04 167.63 295.05 195.00   C 295.05 199.12 294.93 203.53 297.16 206.97   C 302.62 215.43 317.86 213.97 326.50 212.04   C 324.24 218.84 319.34 222.60 312.17 222.53   C 307.05 222.48 299.20 223.47 294.89 221.20   Q 290.12 218.68 288.44 212.97   L 289.04 145.75   L 294.96 140.25   Z"
       id="path386" />
    <path
       d="   M 440.94 144.02   Q 441.04 172.86 441.08 201.75   Q 441.08 206.26 441.55 210.74   Q 441.61 211.31 442.18 211.34   L 452.75 211.79   L 452.04 220.22   A 0.98 0.97 -87.1 0 1 451.06 221.11   L 435.21 220.95   A 0.99 0.99 0.0 0 1 434.23 219.96   L 434.29 148.09   Q 434.29 147.43 434.88 147.13   L 440.94 144.02   Z"
       id="path388" />
    <path
       d="   M 223.21 154.00   L 222.93 158.02   Q 222.89 158.54 222.46 158.84   L 217.25 162.54   C 216.07 162.07 210.99 159.36 211.49 157.79   Q 211.64 157.34 212.04 157.58   L 213.39 158.39   Q 213.89 158.68 214.40 158.43   L 223.21 154.00   Z"
       id="path390" />
    <path
       d="   M 327.00 176.54   L 326.28 177.31   Q 325.70 177.94 326.43 178.39   Q 326.79 178.63 327.00 178.96   C 324.58 179.20 317.02 178.56 315.12 180.28   Q 314.61 180.74 314.41 180.08   Q 313.90 178.37 314.59 176.81   Q 314.82 176.29 315.38 176.30   L 327.00 176.54   Z"
       id="path392" />
    <path
       d="   M 392.96 177.00   Q 392.75 188.99 393.41 201.06   C 393.85 208.97 402.10 212.94 409.05 211.83   C 414.44 210.98 419.62 211.71 425.00 211.79   Q 423.69 215.80 424.06 220.34   Q 424.11 220.93 423.51 220.94   C 417.84 221.07 412.26 221.16 406.64 220.63   C 403.72 220.36 401.15 221.58 398.67 221.50   C 390.95 221.24 386.31 216.21 386.14 208.71   Q 385.95 200.64 386.05 189.01   C 386.10 182.23 388.48 181.09 392.96 177.00   Z"
       id="path394" />
    <path
       d="   M 145.21 177.50   C 144.72 189.48 140.78 217.36 162.77 212.84   Q 164.86 212.41 166.83 212.76   Q 171.67 213.61 176.75 213.29   Q 175.75 216.62 177.14 219.85   Q 173.24 222.10 168.83 223.37   Q 164.43 222.77 160.04 222.31   C 152.95 221.57 145.09 225.08 140.40 217.38   C 136.88 211.62 138.43 194.37 138.82 187.44   C 139.13 182.01 143.42 181.73 145.21 177.50   Z"
       id="path396" />
    <path
       d="   M 511.05 177.46   Q 510.41 189.21 511.45 200.83   C 512.19 209.02 520.34 213.04 527.78 211.72   Q 530.77 211.20 532.90 211.37   Q 538.31 211.82 543.75 211.79   C 541.66 212.95 542.26 218.11 542.17 220.27   Q 542.14 220.85 541.57 220.88   C 534.62 221.26 526.78 219.96 520.13 221.14   Q 508.38 223.22 503.75 211.54   Q 505.03 211.77 506.02 211.17   Q 506.46 210.90 506.46 210.39   L 506.79 179.75   Q 506.86 179.93 506.98 180.06   Q 507.28 180.39 507.62 180.12   L 511.05 177.46   Z"
       id="path398" />
    <path
       d="   M 191.40 189.42   C 191.80 197.32 190.35 207.39 199.00 211.50   C 204.54 214.13 217.75 214.06 223.50 211.79   C 221.78 216.97 217.68 221.97 211.87 222.32   C 206.59 222.65 195.35 223.72 190.91 220.74   Q 187.20 218.25 185.38 213.94   C 185.19 213.49 184.64 212.96 184.32 212.77   Q 185.44 201.50 185.04 190.25   Q 188.37 190.79 191.40 189.42   Z"
       id="path400" />
    <path
       d="   M 473.56 211.70   Q 471.46 215.55 472.41 220.14   A 0.82 0.82 0.0 0 1 471.60 221.13   L 455.18 220.94   Q 454.63 220.94 454.59 220.38   L 454.05 211.80   L 458.80 211.48   Q 459.33 211.44 459.73 211.11   Q 460.95 210.11 462.20 211.07   Q 462.64 211.41 463.20 211.42   L 473.56 211.70   Z"
       id="path402" />
  </g>
  <g
     fill="#77737e"
     id="g462"
     style="stroke:#77737e;stroke-opacity:1">
    <path
       d="   M 122.58 28.45   C 120.99 28.03 119.67 28.74 117.90 28.09   Q 117.37 27.89 117.70 27.43   L 133.61 5.39   A 0.28 0.28 0.0 0 1 134.12 5.57   L 133.94 13.10   Q 133.93 13.63 133.62 14.06   L 123.47 28.14   Q 123.14 28.60 122.58 28.45   Z"
       id="path406"
       style="stroke:#77737e;stroke-opacity:1" />
    <path
       d="   M 138.58 16.63   C 135.56 12.69 136.15 10.35 136.57 5.71   A 0.35 0.35 0.0 0 1 137.20 5.54   L 152.96 27.54   A 0.57 0.57 0.0 0 1 152.58 28.43   C 149.73 28.84 147.49 28.35 145.63 25.88   Q 142.12 21.23 138.58 16.63   Z"
       id="path408"
       style="stroke:#77737e;stroke-opacity:1" />
    <path
       d="   M 149.75 43.57   Q 154.22 51.88 163.79 46.95   A 0.32 0.31 73.7 0 1 164.24 47.20   C 165.73 62.14 133.15 50.03 146.65 31.19   Q 146.96 30.75 147.50 30.75   L 152.75 30.75   Q 153.66 30.75 153.06 31.43   C 149.47 35.45 147.08 38.62 149.75 43.57   Z"
       id="path410"
       style="stroke:#77737e;stroke-opacity:1" />
    <path
       d="   M 107.45 47.09   C 113.58 51.44 120.58 47.39 122.01 40.62   Q 122.14 39.97 122.77 40.20   L 126.40 41.55   Q 126.95 41.75 126.80 42.31   Q 124.16 52.44 113.73 53.96   Q 106.94 54.95 106.23 47.80   Q 106.07 46.11 107.45 47.09   Z"
       id="path412"
       style="stroke:#77737e;stroke-opacity:1" />
    <path
       d="   M 105.09 54.03   C 102.56 56.91 96.75 67.02 93.55 68.02   Q 91.76 68.59 90.50 66.96   Q 89.98 66.29 90.46 65.59   Q 96.13 57.31 101.16 50.42   Q 102.17 49.03 103.17 48.25   Q 103.68 47.84 103.88 48.47   L 105.29 53.11   Q 105.44 53.62 105.09 54.03   Z"
       id="path414"
       style="stroke:#77737e;stroke-opacity:1" />
    <path
       d="   M 181.30 66.87   A 0.11 0.11 0.0 0 1 181.27 67.02   L 181.27 67.03   A 5.81 5.12 54.2 0 1 173.71 65.31   L 166.78 55.69   A 5.81 5.12 54.2 0 1 167.53 47.99   L 167.54 47.98   A 0.11 0.11 0.0 0 1 167.69 48.00   L 181.30 66.87   Z"
       id="path416"
       style="stroke:#77737e;stroke-opacity:1" />
    <path
       d="   M 182.08 70.03   L 181.76 115.46   Q 181.76 115.91 181.45 115.58   C 177.88 111.87 177.00 108.60 176.99 103.16   Q 176.96 87.21 177.04 71.28   Q 177.04 70.69 177.60 70.52   L 181.26 69.42   Q 182.08 69.17 182.08 70.03   Z"
       id="path418"
       style="stroke:#77737e;stroke-opacity:1" />
    <path
       d="   M 93.77 71.43   L 93.76 270.88   Q 93.76 271.38 93.30 271.56   L 89.31 273.12   Q 88.76 273.33 88.75 272.74   C 88.73 205.20 88.98 137.68 88.73 70.15   Q 88.73 69.45 89.41 69.64   L 93.20 70.68   Q 93.77 70.84 93.77 71.43   Z"
       id="path420"
       style="stroke:#77737e;stroke-opacity:1" />
    <path
       d="   M 144.90 273.57   L 145.22 239.07   Q 145.23 238.21 145.93 238.71   L 149.77 241.43   Q 150.26 241.77 150.25 242.36   Q 150.24 255.80 150.26 269.24   C 150.27 274.87 149.08 278.93 143.98 281.22   C 140.73 282.69 131.77 282.82 127.99 281.80   Q 120.70 279.84 120.71 271.25   Q 120.77 208.68 120.44 79.10   Q 120.44 78.50 121.03 78.50   L 124.69 78.50   Q 125.25 78.50 125.25 79.06   Q 125.25 175.04 125.25 271.01   C 125.25 273.96 126.76 276.68 129.74 276.94   C 134.64 277.36 141.78 278.28 144.61 274.44   Q 144.90 274.05 144.90 273.57   Z"
       id="path422"
       style="stroke:#77737e;stroke-opacity:1" />
    <path
       d="   M 145.13 98.13   C 144.70 92.08 144.85 85.11 145.57 79.07   Q 145.63 78.50 146.21 78.50   L 149.24 78.50   Q 149.98 78.50 150.01 79.23   L 150.66 95.28   Q 150.68 95.86 150.18 96.13   L 145.81 98.50   Q 145.18 98.84 145.13 98.13   Z"
       id="path424"
       style="stroke:#77737e;stroke-opacity:1" />
    <rect
       x="127.76"
       y="94.50"
       width="15.16"
       height="5.00"
       rx="0.55"
       id="rect426"
       style="stroke:#77737e;stroke-opacity:1" />
    <path
       d="   M 184.50 99.16   L 184.50 94.84   A 0.34 0.34 0.0 0 1 184.84 94.50   L 559.76 94.50   A 0.34 0.34 0.0 0 1 560.08 94.95   L 558.58 99.27   A 0.34 0.34 0.0 0 1 558.26 99.50   L 184.84 99.50   A 0.34 0.34 0.0 0 1 184.50 99.16   Z"
       id="path428"
       style="stroke:#77737e;stroke-opacity:1" />
    <path
       d="   M 75.97 100.85   C 72.15 105.19 67.46 109.97 62.80 113.58   Q 62.42 113.88 61.93 113.95   Q 60.18 114.19 58.41 113.74   Q 56.43 113.24 57.87 111.79   L 73.70 95.91   A 0.50 0.49 -33.6 0 1 74.51 96.07   L 76.13 99.92   Q 76.34 100.43 75.97 100.85   Z"
       id="path430"
       style="stroke:#77737e;stroke-opacity:1" />
    <path
       d="   M 567.95 100.93   Q 574.01 106.40 579.34 112.72   Q 579.72 113.17 579.20 113.44   Q 575.93 115.15 573.72 113.53   Q 568.36 109.62 560.83 100.70   Q 560.47 100.27 560.69 99.76   L 562.07 96.51   Q 562.30 95.96 562.82 96.26   C 564.92 97.48 566.60 99.71 567.95 100.93   Z"
       id="path432"
       style="stroke:#77737e;stroke-opacity:1" />
    <path
       d="   M 577.60 136.78   C 584.11 148.22 594.44 147.53 604.58 141.16   A 0.64 0.64 0.0 0 1 605.55 141.82   L 604.63 146.67   Q 604.54 147.13 604.15 147.41   C 596.09 153.18 584.17 151.41 577.59 145.29   C 570.71 138.88 569.31 130.42 571.79 121.46   Q 573.60 114.91 580.05 116.14   Q 580.72 116.27 580.29 116.80   Q 572.08 127.08 577.60 136.78   Z"
       id="path434"
       style="stroke:#77737e;stroke-opacity:1" />
    <path
       d="   M 58.60 137.65   C 62.14 132.54 61.39 125.93 59.21 120.44   Q 58.80 119.40 59.66 120.12   Q 62.37 122.39 64.69 125.08   Q 66.14 126.76 66.24 128.87   C 67.02 146.07 46.97 156.68 32.57 147.52   Q 32.06 147.20 31.94 146.60   L 31.05 141.76   A 0.53 0.53 0.0 0 1 31.86 141.22   Q 48.62 152.05 58.60 137.65   Z"
       id="path436"
       style="stroke:#77737e;stroke-opacity:1" />
    <path
       d="   M 626.00 165.87   L 607.60 147.47   A 0.34 0.34 0.0 0 1 607.50 147.23   L 607.50 141.20   A 0.34 0.34 0.0 0 1 608.08 140.96   L 632.61 165.47   A 0.34 0.34 0.0 0 1 632.36 166.05   L 626.24 165.97   A 0.34 0.34 0.0 0 1 626.00 165.87   Z"
       id="path438"
       style="stroke:#77737e;stroke-opacity:1" />
    <path
       d="   M 4.13 165.32   L 28.23 141.45   A 0.45 0.45 0.0 0 1 29.00 141.77   L 29.00 147.26   Q 29.00 147.75 28.65 148.09   Q 20.65 155.96 12.73 163.89   C 10.11 166.51 7.79 166.76 4.38 166.12   Q 3.49 165.95 4.13 165.32   Z"
       id="path440"
       style="stroke:#77737e;stroke-opacity:1" />
    <path
       d="   M 607.60 193.20   L 607.46 187.63   A 0.49 0.49 0.0 0 1 607.60 187.27   L 625.89 168.98   A 0.49 0.49 0.0 0 1 626.21 168.84   L 632.20 168.58   A 0.49 0.49 0.0 0 1 632.57 169.41   L 608.44 193.53   A 0.49 0.49 0.0 0 1 607.60 193.20   Z"
       id="path442"
       style="stroke:#77737e;stroke-opacity:1" />
    <path
       d="   M 585.94 189.90   C 573.91 195.93 572.84 207.91 580.29 218.13   A 0.36 0.35 -21.9 0 1 580.05 218.69   C 572.52 219.73 571.73 214.85 570.91 208.73   Q 568.96 194.24 582.10 186.38   A 1.37 1.37 0.0 0 1 584.05 187.00   Q 584.70 188.45 585.97 189.21   Q 586.58 189.58 585.94 189.90   Z"
       id="path444"
       style="stroke:#77737e;stroke-opacity:1" />
    <path
       d="   M 60.50 200.81   C 60.16 199.29 59.33 198.09 58.64 196.58   Q 58.41 196.09 58.96 196.06   L 63.56 195.84   Q 63.99 195.82 64.16 196.23   Q 68.83 207.48 62.80 217.92   Q 62.46 218.50 61.80 218.50   L 56.76 218.50   Q 55.89 218.50 56.44 217.83   Q 62.63 210.34 60.50 200.81   Z"
       id="path446"
       style="stroke:#77737e;stroke-opacity:1" />
    <path
       d="   M 571.06 223.38   Q 574.25 220.06 578.65 220.82   A 1.03 1.03 0.0 0 1 579.21 222.56   L 563.13 238.79   Q 562.55 239.38 562.20 238.62   L 560.47 234.83   Q 560.21 234.27 560.63 233.82   C 564.01 230.22 567.66 226.93 571.06 223.38   Z"
       id="path448"
       style="stroke:#77737e;stroke-opacity:1" />
    <path
       d="   M 179.36 222.16   C 177.23 225.79 175.72 228.56 171.73 230.41   Q 161.99 234.93 152.12 239.14   Q 151.65 239.33 151.21 239.09   L 147.00 236.69   Q 146.33 236.31 147.03 235.99   L 178.97 221.72   Q 179.85 221.33 179.36 222.16   Z"
       id="path450"
       style="stroke:#77737e;stroke-opacity:1" />
    <path
       d="   M 182.07 224.03   L 181.82 272.79   Q 181.82 273.47 181.17 273.23   L 177.53 271.82   Q 177.00 271.61 177.00 271.04   Q 177.01 252.98 176.99 234.94   C 176.98 229.99 178.17 227.03 181.50 223.79   Q 182.08 223.23 182.07 224.03   Z"
       id="path452"
       style="stroke:#77737e;stroke-opacity:1" />
    <path
       d="   M 166.56 287.33   C 167.71 284.83 172.26 278.73 175.79 274.29   Q 176.14 273.85 176.69 273.99   L 180.77 275.09   A 0.46 0.46 0.0 0 1 181.03 275.81   L 167.52 294.72   A 0.32 0.32 0.0 0 1 166.99 294.70   Q 164.81 291.13 166.56 287.33   Z"
       id="path454"
       style="stroke:#77737e;stroke-opacity:1" />
    <path
       d="   M 152.90 294.82   C 145.67 300.64 147.00 307.66 152.53 314.00   Q 152.87 314.39 152.40 314.61   C 149.31 316.02 146.54 315.86 144.90 312.47   C 141.43 305.29 142.32 296.64 149.24 291.77   Q 149.74 291.41 150.22 291.80   L 152.90 293.97   Q 153.42 294.40 152.90 294.82   Z"
       id="path456"
       style="stroke:#77737e;stroke-opacity:1" />
    <path
       d="   M 118.19 313.85   C 121.29 309.77 122.69 308.02 122.94 302.77   A 0.92 0.92 0.0 0 1 124.12 301.93   L 127.21 302.84   Q 127.83 303.02 127.76 303.66   C 127.20 308.57 126.47 317.63 118.46 314.77   Q 117.69 314.50 118.19 313.85   Z"
       id="path458"
       style="stroke:#77737e;stroke-opacity:1" />
    <path
       d="   M 144.31 324.16   C 146.38 319.66 146.79 316.99 152.63 316.87   Q 153.35 316.86 153.05 317.51   L 137.11 352.51   A 0.28 0.28 0.0 0 1 136.58 352.41   C 136.33 347.85 135.74 343.06 137.68 338.74   Q 140.96 331.43 144.31 324.16   Z"
       id="path460"
       style="stroke:#77737e;stroke-opacity:1" />
  </g>
</svg>
