<?xml version="1.0" encoding="UTF-8" standalone="no"?>
<!-- Generator: Adobe Illustrator 15.0.2, SVG Export Plug-In . SVG Version: 6.00 Build 0)  -->

<svg
   version="1.1"
   id="Layer_1"
   x="0px"
   y="0px"
   width="1000px"
   height="429.062px"
   viewBox="0 0 1000 429.062"
   enable-background="new 0 0 1000 429.062"
   xml:space="preserve"
   sodipodi:docname="Darkwing Duck.svg"
   inkscape:version="1.1.2 (0a00cf5339, 2022-02-04)"
   xmlns:inkscape="http://www.inkscape.org/namespaces/inkscape"
   xmlns:sodipodi="http://sodipodi.sourceforge.net/DTD/sodipodi-0.dtd"
   xmlns="http://www.w3.org/2000/svg"
   xmlns:svg="http://www.w3.org/2000/svg"><defs
   id="defs79">
	
	

	
	

	
	

	
	
</defs><sodipodi:namedview
   id="namedview77"
   pagecolor="#ffffff"
   bordercolor="#666666"
   borderopacity="1.0"
   inkscape:pageshadow="2"
   inkscape:pageopacity="0.0"
   inkscape:pagecheckerboard="0"
   showgrid="false"
   inkscape:zoom="0.98490489"
   inkscape:cx="528.98509"
   inkscape:cy="193.92736"
   inkscape:window-width="1920"
   inkscape:window-height="1011"
   inkscape:window-x="1920"
   inkscape:window-y="32"
   inkscape:window-maximized="1"
   inkscape:current-layer="Layer_1" />
<g
   id="g20">
	<path
   fill="none"
   d="M78.623,317.969l-1.146-0.104c0.073-0.811,0.065-1.354-0.021-1.624c-0.086-0.27-0.338-0.617-0.755-1.041   c-0.417-0.424-1.515-1.399-3.29-2.926l-6.131-5.311l-5.505,2.588c-0.464,0.229-1.301,0.688-2.513,1.378   c-1.211,0.691-2.14,1.311-2.783,1.86c-0.254,0.234-0.426,0.455-0.515,0.663s-0.182,0.856-0.28,1.946l-1.007-0.091l-0.379-5.149   c0.341-0.413,0.772-0.789,1.291-1.126c0.744-0.483,2.01-1.14,3.802-1.972l5.326-2.464c-4.733-4.009-7.333-6.094-7.798-6.253   l-1.39-0.124c0.159-1.247,0.259-2.102,0.3-2.564c0.042-0.464,0.082-1.166,0.12-2.109l1.06,0.096   c-0.031,0.73-0.028,1.191,0.007,1.383c0.035,0.189,0.093,0.361,0.171,0.521c0.121,0.222,0.4,0.556,0.837,1.001   c0.438,0.449,1.344,1.283,2.715,2.507c1.372,1.221,2.641,2.346,3.81,3.375l1.631,1.453l10.03-5.029   c1.306-0.652,2.179-1.146,2.617-1.481c0.213-0.156,0.358-0.335,0.434-0.539c0.077-0.203,0.156-0.688,0.235-1.449l1.146,0.102   c-0.159,1.259-0.259,2.108-0.299,2.549c-0.044,0.486-0.098,1.352-0.163,2.595c-1.105,0.602-2.188,1.15-3.249,1.65l-8.211,3.865   l2.93,2.484c3.048,2.466,5.096,3.972,6.144,4.521l1.248,0.147c-0.155,1.203-0.251,2.015-0.289,2.434   C78.729,316.01,78.686,316.756,78.623,317.969z"
   id="path2" />
	<path
   fill="none"
   d="M79.389,279.173l1.202,0.668c0.429,0.845,0.707,1.46,0.838,1.845c0.195,0.566,0.341,1.207,0.449,1.924   c0.104,0.715,0.123,1.461,0.053,2.236c-0.138,1.529-0.581,2.886-1.329,4.067c-0.748,1.183-1.788,2.061-3.118,2.636   s-2.847,0.786-4.549,0.634c-1.332-0.12-2.518-0.41-3.556-0.872c-1.039-0.46-1.792-0.945-2.26-1.455   c-0.341-0.369-0.719-0.928-1.136-1.678c-0.417-0.75-0.734-1.485-0.949-2.205c-0.3-0.95-0.402-1.957-0.307-3.022   c0.117-1.298,0.517-2.443,1.202-3.439c0.685-0.994,1.559-1.689,2.623-2.084c1.062-0.395,2.237-0.534,3.522-0.419   c0.325,0.028,0.716,0.093,1.174,0.192c0.087,0.847,0.124,1.604,0.111,2.266c-0.02,1.258-0.085,2.512-0.198,3.761l-0.5,5.568   c1.664,0.127,3.033-0.04,4.108-0.498c1.08-0.458,1.904-1.147,2.48-2.071c0.573-0.923,0.907-1.906,1-2.949   c0.063-0.706,0.011-1.419-0.151-2.141c-0.169-0.722-0.508-1.626-1.029-2.712L79.389,279.173z M71.289,289.672   c0.063-0.321,0.153-0.932,0.269-1.833c0.213-1.72,0.349-2.905,0.407-3.554c0.139-1.541,0.2-2.556,0.186-3.048   c-0.277-0.036-0.49-0.062-0.641-0.075c-1.831-0.165-3.208,0.085-4.131,0.75c-0.924,0.664-1.441,1.616-1.553,2.855   c-0.118,1.309,0.257,2.404,1.123,3.289C67.816,288.939,69.263,289.479,71.289,289.672z"
   id="path4" />
	<path
   fill="none"
   d="M83.101,270.295l-2.483,0.512l-5.52,1.132c-1.595,0.324-3.139,0.661-4.633,1.012   c-1.493,0.35-2.355,0.595-2.589,0.731c-0.235,0.135-0.41,0.312-0.522,0.53c-0.113,0.218-0.25,0.764-0.41,1.637l-0.991-0.09   c0.196-1.267,0.36-2.631,0.491-4.091c0.139-1.551,0.229-3.002,0.269-4.353l0.99,0.089c-0.085,1.078-0.108,1.782-0.067,2.114   c0.026,0.224,0.096,0.39,0.209,0.499c0.114,0.11,0.251,0.172,0.414,0.187c0.266,0.024,0.996-0.08,2.186-0.312l5.741-1.111   c0.961-0.183,2.007-0.414,3.13-0.698l-2.901-1.592l-5.483-3.069c-1.299-0.726-2.615-1.416-3.944-2.072l0.077-0.852   c2.187-0.574,3.633-0.968,4.342-1.184l5.215-1.545c1.752-0.53,3.072-0.93,3.958-1.201l-3.309-1.609   c-2.125-1.042-3.942-1.871-5.453-2.485c-0.823-0.344-1.409-0.529-1.756-0.561c-0.325-0.028-0.571,0.062-0.736,0.274   c-0.165,0.214-0.317,0.958-0.454,2.229l-0.99-0.089c0.239-1.754,0.389-2.966,0.45-3.64c0.072-0.813,0.131-1.918,0.175-3.317   l0.991,0.089c-0.049,0.674-0.028,1.131,0.061,1.372c0.089,0.24,0.253,0.461,0.494,0.657c0.367,0.336,1.252,0.889,2.656,1.657   l4.184,2.214l1.878,0.957c0.368,0.186,1.504,0.736,3.409,1.655c0.808,0.4,1.516,0.709,2.126,0.928l-0.147,1.633l-2.246,0.638   l-10.313,3.069l3.448,1.99l4.185,2.354c0.967,0.542,1.791,0.983,2.473,1.325l1.547,0.718L83.101,270.295z"
   id="path6" />
	<path
   fill="none"
   d="M77.012,246.155c-2.597-0.233-4.641-1.249-6.133-3.046c-1.492-1.798-2.123-3.989-1.891-6.571   c0.218-2.433,1.163-4.345,2.83-5.735c1.667-1.392,3.712-1.979,6.136-1.761c1.694,0.152,3.205,0.685,4.536,1.599   c1.333,0.914,2.331,2.125,2.995,3.631c0.667,1.509,0.922,3.126,0.767,4.851c-0.121,1.344-0.449,2.463-0.984,3.354   c-0.536,0.892-1.171,1.597-1.909,2.114c-0.735,0.519-1.479,0.896-2.224,1.132C79.825,246.141,78.451,246.286,77.012,246.155z    M76.02,242.756c1.426,0.128,2.898,0.021,4.412-0.321c1.516-0.344,2.653-0.934,3.411-1.77c0.761-0.836,1.188-1.781,1.283-2.835   c0.121-1.344-0.312-2.516-1.295-3.515c-0.987-1-2.588-1.598-4.801-1.798c-1.847-0.166-3.462-0.038-4.849,0.379   c-1.388,0.419-2.395,1.021-3.02,1.805c-0.627,0.783-0.984,1.68-1.075,2.688c-0.128,1.424,0.283,2.626,1.235,3.604   C72.274,241.972,73.84,242.561,76.02,242.756z"
   id="path8" />
	<path
   fill="none"
   d="M86.726,227.817l-0.99-0.09c0.095-1.316,0.135-2.032,0.122-2.137c-0.016-0.201-0.058-0.356-0.125-0.461   c-0.066-0.105-0.167-0.196-0.3-0.266c-0.256-0.14-0.667-0.247-1.232-0.322c-3.087-0.335-4.7-0.509-4.84-0.521l-2.067-0.186   c-0.927-0.083-1.924-0.156-2.993-0.217c-0.686-0.038-1.096-0.024-1.23,0.039c-0.133,0.064-0.242,0.189-0.322,0.373   c-0.081,0.186-0.175,0.939-0.282,2.261l-0.99-0.089c-0.114-2.369-0.384-4.115-0.808-5.24c-0.095-0.242-0.139-0.403-0.131-0.485   c0.007-0.08,0.042-0.142,0.104-0.183c0.062-0.041,0.151-0.056,0.267-0.045c0.081,0.007,0.173,0.021,0.276,0.042   c0.702,0.122,1.793,0.254,3.274,0.399c-0.555-0.575-1.109-1.109-1.66-1.603s-0.905-0.846-1.062-1.059   c-0.27-0.375-0.474-0.796-0.612-1.264c-0.14-0.468-0.187-0.945-0.143-1.432c0.043-0.486,0.191-0.958,0.442-1.414l0.252-0.083   c1.525,0.312,2.872,0.533,4.039,0.661l-0.07,0.782c-0.581,0.217-1.013,0.49-1.3,0.82s-0.454,0.762-0.501,1.295   c-0.08,0.892,0.219,1.684,0.898,2.375c0.679,0.69,1.755,1.103,3.226,1.235l1.79,0.161c0.764,0.069,2.163,0.166,4.195,0.291   c0.719,0.053,1.18,0.065,1.38,0.036c0.201-0.029,0.348-0.076,0.442-0.144c0.094-0.067,0.177-0.185,0.25-0.354   c0.136-0.338,0.324-1.267,0.566-2.786l0.99,0.089c-0.264,2.031-0.461,3.765-0.59,5.202   C86.858,224.979,86.77,226.418,86.726,227.817z"
   id="path10" />
	<path
   fill="none"
   d="M87.996,213.69l-0.991-0.088l0.13-1.635c0.011-0.255-0.016-0.453-0.078-0.593   c-0.063-0.14-0.15-0.25-0.259-0.331c-0.221-0.148-0.625-0.26-1.214-0.337c-0.149-0.024-1.805-0.214-4.969-0.569l-7.206-0.647   c-1.933-0.174-3.931-0.324-5.997-0.451c-1.393-0.078-2.173-0.084-2.343-0.018c-0.121,0.047-0.21,0.133-0.269,0.259   c-0.097,0.17-0.209,0.968-0.338,2.401l-1.025-0.092c-0.089-2.646-0.332-4.502-0.726-5.564c-0.056-0.158-0.08-0.276-0.073-0.357   c0.007-0.081,0.039-0.143,0.095-0.184c0.057-0.042,0.132-0.058,0.224-0.05c0.081,0.007,0.195,0.029,0.345,0.066l0.57,0.069   c2.066,0.243,3.83,0.437,5.287,0.58l2.706,0.278l9.011,0.81c3.013,0.224,4.64,0.341,4.884,0.352c0.58,0.04,1.009,0.008,1.287-0.094   c0.108-0.038,0.205-0.099,0.289-0.188c0.083-0.086,0.157-0.222,0.219-0.403c0.019-0.08,0.095-0.727,0.227-1.936l0.99,0.089   c-0.222,1.568-0.387,2.949-0.494,4.142C88.174,210.332,88.082,211.831,87.996,213.69z"
   id="path12" />
	<path
   fill="none"
   d="M87.528,188.621l1.2,0.668c0.43,0.844,0.707,1.458,0.839,1.844c0.194,0.566,0.341,1.207,0.449,1.923   c0.105,0.715,0.123,1.461,0.053,2.237c-0.137,1.529-0.581,2.885-1.329,4.067c-0.749,1.183-1.788,2.061-3.118,2.636   c-1.331,0.575-2.847,0.787-4.55,0.633c-1.332-0.12-2.518-0.41-3.556-0.872c-1.039-0.461-1.792-0.946-2.261-1.455   c-0.34-0.369-0.718-0.93-1.135-1.679c-0.417-0.75-0.734-1.484-0.949-2.205c-0.3-0.949-0.402-1.958-0.307-3.022   c0.116-1.297,0.517-2.443,1.203-3.438c0.685-0.996,1.559-1.69,2.622-2.085c1.062-0.395,2.237-0.534,3.523-0.419   c0.324,0.03,0.715,0.094,1.174,0.193c0.087,0.848,0.124,1.602,0.111,2.266c-0.02,1.257-0.085,2.511-0.198,3.759l-0.5,5.569   c1.664,0.126,3.033-0.04,4.107-0.498c1.081-0.457,1.904-1.148,2.481-2.071c0.573-0.923,0.907-1.907,1-2.95   c0.063-0.706,0.011-1.419-0.151-2.141c-0.17-0.722-0.508-1.625-1.029-2.711L87.528,188.621z M79.427,199.12   c0.065-0.321,0.154-0.932,0.27-1.833c0.214-1.72,0.35-2.904,0.408-3.553c0.138-1.541,0.2-2.557,0.186-3.049   c-0.276-0.036-0.491-0.061-0.641-0.074c-1.83-0.165-3.207,0.085-4.13,0.75c-0.924,0.665-1.442,1.616-1.553,2.855   c-0.118,1.31,0.256,2.405,1.123,3.289C75.956,198.387,77.401,198.926,79.427,199.12z"
   id="path14" />
	<path
   fill="none"
   d="M90.65,184.926c-1.447-0.271-2.36-0.428-2.741-0.474c-2.502-0.294-3.975-0.462-4.416-0.502l-7.725-0.694   c-1.935-0.174-3.933-0.324-5.999-0.452c-1.394-0.078-2.174-0.084-2.343-0.018c-0.121,0.047-0.21,0.133-0.269,0.258   c-0.097,0.169-0.209,0.968-0.338,2.402l-1.025-0.092c-0.089-2.647-0.331-4.502-0.726-5.564c-0.056-0.157-0.081-0.276-0.073-0.357   s0.04-0.143,0.096-0.184s0.131-0.058,0.224-0.05c0.081,0.008,0.196,0.03,0.343,0.066l0.571,0.069   c2.066,0.244,3.826,0.437,5.282,0.58l2.703,0.277l3.436,0.309l-2.13-2.608c-0.238-0.337-0.453-0.875-0.643-1.616   c-0.19-0.741-0.249-1.518-0.176-2.328c0.114-1.274,0.515-2.376,1.199-3.307c0.685-0.931,1.596-1.611,2.732-2.041   c1.136-0.429,2.365-0.584,3.685-0.466c1.019,0.092,1.973,0.329,2.861,0.713c0.887,0.383,1.669,0.845,2.345,1.384   c0.513,0.396,0.857,0.726,1.032,0.986l1.597,2.701c0.672,1.099,1.089,1.949,1.25,2.546c0.163,0.599,0.203,1.35,0.122,2.253   c-0.069,0.775-0.238,1.484-0.506,2.126c-0.268,0.641-0.696,1.31-1.283,2.003l1.193,1.526L90.65,184.926z M79.735,180.687   l6.515,0.586c0.58,0.052,0.953,0.054,1.121,0.004c0.167-0.049,0.4-0.224,0.695-0.525c0.449-0.449,0.825-0.985,1.125-1.606   c0.301-0.62,0.484-1.291,0.548-2.008c0.151-1.679-0.382-3.029-1.598-4.049c-1.216-1.02-2.779-1.616-4.69-1.788   c-1.355-0.122-2.509-0.01-3.463,0.336c-0.954,0.347-1.693,0.876-2.218,1.587c-0.525,0.712-0.83,1.537-0.914,2.475   c-0.099,1.101,0.128,2.113,0.682,3.038C78.09,179.664,78.823,180.313,79.735,180.687z"
   id="path16" />
	<path
   fill="none"
   d="M77.918,165.427l-0.99-0.089c-0.052-2.27-0.369-4.202-0.95-5.795l0.313-0.357   c2.458,0.314,4.343,0.53,5.651,0.647l3.162,0.284c3.017,0.213,4.647,0.324,4.892,0.335c0.58,0.04,1.009,0.015,1.285-0.077   c0.109-0.049,0.207-0.117,0.29-0.202c0.083-0.086,0.156-0.219,0.219-0.401c0.019-0.068,0.094-0.709,0.226-1.923l0.991,0.089   c-0.24,1.753-0.407,3.157-0.501,4.211c-0.083,0.927-0.179,2.447-0.288,4.562l-0.99-0.089l0.132-1.664   c0.011-0.245-0.016-0.439-0.079-0.58c-0.064-0.139-0.15-0.25-0.259-0.333c-0.221-0.147-0.625-0.266-1.212-0.354   c-0.151-0.014-1.811-0.191-4.979-0.535l-3.058-0.275c-1.726-0.154-2.755-0.188-3.09-0.103c-0.181,0.055-0.322,0.167-0.425,0.339   C78.155,163.291,78.042,164.06,77.918,165.427z M68.137,160.274c0.049-0.545,0.281-0.987,0.697-1.33   c0.416-0.342,0.896-0.489,1.441-0.44c0.533,0.048,0.973,0.281,1.321,0.697c0.348,0.417,0.498,0.891,0.45,1.424   c-0.049,0.545-0.281,0.991-0.698,1.338c-0.417,0.347-0.891,0.498-1.423,0.45c-0.544-0.048-0.991-0.282-1.339-0.698   C68.237,161.299,68.088,160.818,68.137,160.274z"
   id="path18" />
</g>
<path
   fill="#1A1149"
   d="M538.262,324.37h44.326c0,0,40.731,0,40.731,48.055c0,44.968-40.731,44.968-40.731,44.968h-44.326V324.37z   M564.986,395.037h26.982v-45.482h-26.982V395.037z"
   id="path22"
   style="fill:#473172;fill-opacity:1" />
<path
   fill="#1A1149"
   d="M635.653,324.37h27.238v58.332c0,0,0,13.748,12.848,13.748c12.592,0,12.592-13.748,12.592-13.748V324.37  h28.524v74.137c0,0,0,20.814-41.116,20.814c-40.086,0-40.086-20.814-40.086-20.814V324.37z"
   id="path24"
   style="fill:#473172;fill-opacity:1" />
<path
   fill="#1A1149"
   d="M820.413,362.273c0,0,0.426-13.356-7.322-23.77c-6.172-8.294-17.68-14.134-37.593-14.134  c-29.092,0-48.108,14.904-48.108,45.229c0,28.908,15.419,47.794,48.108,47.794c17.826,0,29.309-3.462,35.793-10.663  c9.853-10.943,9.122-27.238,9.122-27.238h-31.99v14.905h-27.626v-43.43h27.626v11.307H820.413z"
   id="path26"
   style="fill:#473172;fill-opacity:1" />
<polygon
   fill="#1A1149"
   points="826.711,324.37 859.858,324.37 859.858,360.087 889.28,324.37 926.157,324.37 889.668,362.273   918.19,419.064 881.7,419.064 866.283,383.473 851.764,397.865 851.764,419.064 826.711,419.064 "
   id="polygon28"
   style="fill:#473172;fill-opacity:1" />
<path
   fill="#F5EB19"
   stroke="#1A1149"
   stroke-width="3.0836"
   stroke-miterlimit="10"
   d="M937.495,153.95l45.441-24.19H852.835  l-3.791,3.944c-0.946,0.984-12.75,13.407-24.085,31.593l5.924-43.198l-53.058,14.122l-0.36-2.521l-50.775,14.672l2.064-8.247  l-44.715-0.706l8.987-29.117l-86.51,28.298l-1.079,10.39h-15.775l-3.06,4.502l3.604-27.348l-43.012,12.793l5.094-5.75H464.6  l-5.735,7.726l0.896-4.129h-76.559l-0.052,0.8c-6.793-10.455-13.348-16.494-13.915-17.007l-6.118-5.541l-62.589,26.918l0.902-6.054  l-75.726,3.106l-2.14,10.704l-33.671-1.372c-9.67-27.471-27.328-54.689-52.422-80.457c-29.542-30.335-58.799-48.023-60.031-48.76  l-11.436-6.857l-53.719,97.64l11.929,5.985c8.763,4.397,33.163,16.868,40.731,21.702c0.476,0.303,1.01,0.659,1.593,1.062  l-28.006-0.129l-5.03,192.572l19.627,0.712l-5.787,6.89l42.285,15.223l5.196-3.057c2.801-1.648,47.263-28.279,77.057-72.624  l-2.396,19.279h44.282l9.379-24.156h6.163l2.131,24.156h95.718l2.186-16.168l9.021,16.168h34.591h32.15h19.796l5.605-25.97  l20.759,25.97h47.453h30.285h33.131l17.127-29.733l2.391,29.733h53.589l15.231-49.349l-2.867,49.349h41.762l3.342-13.359  l-0.493,13.359h46.947l3.288-10.105l2.677,10.105h61.694l4.362-31.793c9.56,21.152,24.898,30.201,25.834,30.735l2.966,1.698H902.4  l42.67-100.217h-59.783C905.707,171.235,937.036,154.195,937.495,153.95z M108.018,268.513l9.862-85.968  c5.236,6.704,9.746,15.908,9.746,27.73C127.625,233.219,118.227,253.383,108.018,268.513z M375.886,251.555l-6.125-9.638  c2.245-1.832,4.678-3.98,7.15-6.427L375.886,251.555z M499.754,259.452l-27.548-35.854l29.428-33.224L499.754,259.452z"
   id="path30"
   style="stroke:#473172;stroke-opacity:1" />
<path
   fill="#1A1149"
   d="M184.029,283.641l15.291-123.088l34.691,1.414l2.312-11.564l50.109-2.055L266.388,282.87h-23.255  l-2.056-23.383h-26.726l-9.379,24.154H184.029z M220.905,237.258h16.832l-3.982-39.446L220.905,237.258z"
   id="path32"
   style="fill:#473172;fill-opacity:1" />
<polygon
   fill="#1A1149"
   points="395.258,148.604 443.825,148.604 433.675,195.373 471.065,145.006 523.742,145.006 455.555,221.987   502.929,283.641 457.445,283.641 423.654,241.369 414.532,283.641 386.65,283.641 "
   id="polygon34"
   style="fill:#473172;fill-opacity:1" />
<polygon
   fill="#1A1149"
   points="368.148,242.269 378.041,233.66 376.628,255.76 "
   id="polygon36"
   style="fill:#473172;fill-opacity:1" />
<polygon
   fill="#1A1149"
   points="470.936,224.667 502.801,189.076 500.745,263.725 "
   id="polygon38"
   style="fill:#473172;fill-opacity:1" />
<polygon
   fill="#1A1149"
   points="515.263,160.81 574.88,143.079 566.785,204.495 596.465,160.81 608.544,160.81 610.598,191.775   613.81,191.775 618.436,147.191 673.427,129.203 625.76,283.641 593.51,283.641 588.756,224.538 554.708,283.641 511.922,283.641   "
   id="polygon40"
   style="fill:#473172;fill-opacity:1" />
<polygon
   fill="#1A1149"
   points="668.931,151.002 712.358,151.688 679.338,283.641 661.222,283.641 "
   id="polygon42"
   style="fill:#473172;fill-opacity:1" />
<polygon
   fill="#1A1149"
   points="709.916,165.563 766.835,149.118 771.718,183.295 781.739,147.448 815.53,138.454 795.616,283.641   755.016,283.641 743.708,240.984 729.832,283.641 705.549,283.641 "
   id="polygon44"
   style="fill:#473172;fill-opacity:1" />
<path
   fill="#1A1149"
   d="M874.239,209.762h51.395l-31.727,74.522h-50.505c0,0-26.93-15.42-26.93-56.708  c0-42.485,41.835-85.997,41.835-85.997h73.151c0,0-76.269,40.601-76.269,100.217c0,23.812,11.478,30.664,11.478,30.664  L874.239,209.762z"
   id="path46"
   style="fill:#473172;fill-opacity:1" />
<path
   fill="#1A1149"
   d="M288.66,162.306l38.303,1.936c0,0-4.863-5.481-6.782-7.244c-1.918-1.762-8.564-6.855-8.564-6.855  l48.995-21.07c0,0,25.354,22.958,25.354,58.249c0,31.007-33.577,50.192-33.577,50.192l29.325,46.129h-35.804l-19.046-34.138  l-6.339,0.173l-4.594,33.965h-36.148L288.66,162.306z M323.436,227.236c0,0,18.501-3.426,18.501-25.011  c0-21.072-10.963-31.18-10.963-31.18L323.436,227.236z"
   id="path48"
   style="fill:#473172;fill-opacity:1" />
<path
   fill="#1A1149"
   d="M51.048,150.402l52.936,0.244c0,0-23.411-19.348-32.121-24.912c-9.791-6.253-41.885-22.356-41.885-22.356  l40.857-74.264c0,0,114.865,68.867,114.865,167.029c0,85.315-97.391,142.619-97.391,142.619l-19.272-6.939l10.862-12.927  l-33.218-1.206L51.048,150.402z M90.622,306.382c0,0,49.852-40.086,49.852-97.134c0-36.232-32.635-52.936-32.635-52.936  L90.622,306.382z"
   id="path50"
   style="fill:#473172;fill-opacity:1" />
<g
   id="g32004"><path
     fill="#f5eb19"
     d="M 526.44,408.657 V 312.55 h 45.869 c 0.423,0 42.272,0.567 42.272,49.595 0,45.979 -41.85,46.512 -42.272,46.512 z m 53.707,-25.44 v -42.4 H 556.25 v 42.4 z"
     id="path52" /><path
     fill="#1a1149"
     d="m 572.31,314.092 c 0,0 40.73,0 40.73,48.053 0,44.97 -40.73,44.97 -40.73,44.97 h -44.327 v -93.022 h 44.327 m -17.602,70.666 h 26.981 v -45.484 h -26.981 v 45.484 m 17.602,-73.751 h -44.327 -3.084 v 3.084 93.022 3.084 h 3.084 44.327 c 0.448,0 11.101,-0.068 21.855,-6.006 10.018,-5.53 21.959,-17.313 21.959,-42.048 0,-26.278 -11.9,-38.813 -21.883,-44.702 -10.783,-6.36 -21.481,-6.434 -21.931,-6.434 z m -14.518,31.351 h 20.813 v 39.316 h -20.813 z"
     id="path54"
     style="fill:#473172;fill-opacity:1" /></g>
<g
   id="g32008"><path
     fill="#f5eb19"
     d="m 665.461,410.583 c -41.155,0 -41.629,-21.441 -41.629,-22.354 V 312.55 h 30.322 v 59.874 c 0.002,0.452 0.188,11.177 11.307,11.177 10.925,0 11.05,-10.721 11.05,-11.177 V 312.55 h 31.607 v 75.679 c 0,0.913 -0.485,22.354 -42.657,22.354 z"
     id="path58" /><path
     fill="#1a1149"
     d="m 706.576,314.092 v 74.137 c 0,0 0,20.812 -41.115,20.812 -40.087,0 -40.087,-20.812 -40.087,-20.812 v -74.137 h 27.238 v 58.332 c 0,0 0,12.719 12.849,12.719 12.592,0 12.592,-12.719 12.592,-12.719 v -58.332 h 28.523 m 3.084,-3.084 h -3.084 -28.523 -3.084 v 3.084 58.332 c 0,0.01 -0.043,2.651 -1.333,5.147 -1.56,3.02 -4.233,4.487 -8.175,4.487 -4.058,0 -6.808,-1.474 -8.408,-4.507 -1.312,-2.487 -1.356,-5.118 -1.356,-5.145 v -58.315 -3.084 h -3.084 -27.238 -3.084 v 3.084 74.137 c 0,0.264 0.067,6.516 5.874,12.545 7.253,7.532 19.802,11.352 37.297,11.352 43.696,0 44.199,-22.921 44.199,-23.896 v -74.137 -3.084 z"
     id="path60"
     style="fill:#473172;fill-opacity:1" /></g>
<g
   id="g32012"><path
     fill="#f5eb19"
     d="m 765.222,408.657 c -16.28,0 -28.874,-4.554 -37.431,-13.535 -8.108,-8.512 -12.221,-20.559 -12.221,-35.804 0,-29.722 18.098,-46.768 49.651,-46.768 18.481,0 31.545,4.964 38.826,14.755 7.979,10.72 7.646,24.171 7.628,24.738 l -0.048,1.493 H 776.6 v -11.308 h -24.54 v 40.345 h 24.541 v -14.904 h 35.009 l 0.065,1.473 c 0.031,0.691 0.643,17.057 -9.517,28.339 -6.864,7.625 -18.6,11.176 -36.936,11.176 z"
     id="path64" /><path
     fill="#1a1149"
     d="m 765.222,314.092 c 19.911,0 31.419,5.837 37.589,14.133 7.749,10.412 7.324,23.77 7.324,23.77 h -31.992 v -11.308 h -27.625 v 43.429 h 27.625 v -14.904 h 31.992 c 0,0 0.73,16.296 -9.122,27.238 -6.484,7.202 -17.968,10.665 -35.791,10.665 -32.691,0 -48.109,-18.886 -48.109,-47.797 -0.001,-30.323 19.015,-45.226 48.109,-45.226 m 0,-3.084 c -15.436,0 -28.237,4.16 -37.022,12.028 -9.402,8.423 -14.171,20.63 -14.171,36.281 0,15.655 4.255,28.059 12.646,36.867 8.858,9.299 21.828,14.014 38.547,14.014 18.804,0 30.905,-3.714 38.083,-11.686 10.576,-11.746 9.942,-28.723 9.91,-29.439 l -0.132,-2.946 h -2.948 -31.992 -3.084 v 3.084 11.82 H 753.602 V 343.77 h 21.457 v 8.224 3.084 h 3.084 31.992 2.987 l 0.095,-2.986 c 0.019,-0.589 0.363,-14.561 -7.933,-25.708 -7.588,-10.202 -21.066,-15.376 -40.062,-15.376 z"
     id="path66"
     style="fill:#473172;fill-opacity:1" /></g>
<g
   id="g32016"><polygon
     fill="#f5eb19"
     points="843.027,388.227 843.027,410.327 814.89,410.327 814.89,312.55 851.121,312.55 851.121,345.512 878.274,312.55 919.503,312.55 881.255,352.278 910.41,410.327 870.409,410.327 855.486,375.876 "
     id="polygon70" /><path
     fill="#1a1149"
     d="m 915.878,314.092 -36.49,37.902 28.522,56.79 h -36.488 l -15.418,-35.592 -14.519,14.392 v 21.2 h -25.054 v -94.692 h 33.147 v 35.717 l 29.423,-35.717 h 36.877 m 7.249,-3.084 h -7.249 -36.876 -1.455 l -0.925,1.123 -23.959,29.085 v -27.124 -3.084 h -3.084 -33.147 -3.084 v 3.084 94.692 3.084 h 3.084 25.054 3.084 v -3.084 -19.914 l 10.399,-10.309 13.624,31.449 0.805,1.858 h 2.024 36.488 4.999 L 910.666,407.4 883.123,352.56 918.1,316.23 Z"
     id="path72"
     style="fill:#473172;fill-opacity:1" /></g>
</svg>
