<?xml version="1.0" encoding="UTF-8" standalone="no"?>
<!DOCTYPE svg PUBLIC "-//W3C//DTD SVG 1.1//EN" "http://www.w3.org/Graphics/SVG/1.1/DTD/svg11.dtd">
<svg xmlns="http://www.w3.org/2000/svg" version="1.1" viewBox="0 0 1242 385">
<g stroke-width="2.00" fill="none" stroke-linecap="butt">
<path stroke="#6f0a00" vector-effect="non-scaling-stroke" d="
  M 266.38 180.17
  A 0.34 0.34 0.0 0 1 266.95 180.42
  L 267.72 306.21
  A 0.34 0.34 0.0 0 0 268.09 306.55
  L 365.32 298.26
  A 0.34 0.34 0.0 0 0 365.63 297.88
  L 333.98 61.94
  A 0.34 0.34 0.0 0 0 333.69 61.64
  L 271.07 52.96
  A 0.34 0.34 0.0 0 0 270.73 53.11
  L 229.03 117.92
  A 0.34 0.34 0.0 0 1 228.42 117.83
  L 207.09 44.09
  A 0.34 0.34 0.0 0 0 206.81 43.85
  L 141.37 34.49
  A 0.34 0.34 0.0 0 0 141.01 34.69
  L 51.62 250.13
  A 0.34 0.34 0.0 0 0 51.79 250.57
  L 140.76 291.42
  A 0.34 0.34 0.0 0 0 141.22 291.21
  L 178.54 168.43
  A 0.34 0.34 0.0 0 1 179.15 168.36
  L 214.81 228.77
  A 0.34 0.34 0.0 0 0 215.34 228.84
  L 266.38 180.17"
/>
<path stroke="#7c6c00" vector-effect="non-scaling-stroke" d="
  M 677.95 228.47
  A 0.32 0.32 0.0 0 1 678.53 228.28
  L 740.03 315.46
  A 0.77 0.77 0.0 0 0 740.98 315.71
  L 830.38 275.10
  A 0.22 0.21 52.1 0 0 830.42 274.74
  L 757.64 215.49
  A 0.42 0.42 0.0 0 1 757.67 214.81
  L 797.69 187.78
  A 1.23 1.23 0.0 0 0 798.20 187.04
  L 816.74 110.03
  A 1.35 1.35 0.0 0 0 816.20 108.60
  L 726.39 46.58
  A 1.27 1.24 58.1 0 0 725.49 46.36
  L 580.21 66.37
  A 0.50 0.50 0.0 0 0 579.78 66.91
  Q 585.78 140.63 591.92 214.54
  Q 592.31 219.21 594.44 225.82
  Q 607.34 265.82 620.25 305.87
  A 0.73 0.72 -7.0 0 0 620.90 306.37
  Q 626.89 306.65 632.84 306.06
  C 647.96 304.57 663.13 303.69 678.31 302.68
  A 0.70 0.70 0.0 0 0 678.97 301.97
  L 677.95 228.47"
/>
<path stroke="#005476" vector-effect="non-scaling-stroke" d="
  M 838.94 256.81
  Q 853.39 268.89 857.22 271.78
  Q 863.39 276.46 859.41 282.66
  A 1.38 1.33 -83.7 0 1 858.76 283.20
  Q 845.63 288.33 832.91 294.42
  A 1.31 1.29 79.0 0 0 832.17 295.53
  L 831.33 309.46
  A 0.59 0.59 0.0 0 0 831.96 310.08
  L 911.96 303.50
  A 0.87 0.87 0.0 0 0 912.75 302.79
  L 956.55 76.47
  A 0.54 0.53 -78.5 0 0 956.14 75.84
  L 845.93 52.45
  A 0.43 0.42 7.0 0 0 845.42 52.84
  L 834.47 252.26
  A 1.14 1.13 24.7 0 0 834.79 253.12
  Q 835.94 254.31 838.94 256.81"
/>
<path stroke="#22581b" vector-effect="non-scaling-stroke" d="
  M 1185.93 138.57
  Q 1154.89 106.64 1123.87 74.80
  A 2.33 2.33 0.0 0 0 1122.51 74.11
  L 1016.96 59.65
  A 0.90 0.88 24.1 0 0 1016.18 59.94
  Q 995.08 83.66 974.21 107.59
  C 972.91 109.08 972.87 109.87 972.51 111.75
  Q 961.47 168.62 950.69 225.53
  Q 950.38 227.17 950.69 228.81
  Q 954.71 249.93 958.99 271.00
  Q 959.28 272.42 959.60 273.21
  A 0.98 0.96 -0.5 0 0 960.19 273.78
  L 1071.56 313.52
  A 1.43 1.40 42.8 0 0 1072.60 313.49
  L 1177.03 268.00
  A 0.57 0.56 -8.4 0 0 1177.37 267.55
  L 1192.96 146.53
  A 1.02 0.99 28.0 0 0 1192.70 145.72
  Q 1189.32 142.06 1185.93 138.57"
/>
<path stroke="#005c23" vector-effect="non-scaling-stroke" d="
  M 495.23 252.92
  L 506.40 307.37
  A 0.56 0.56 0.0 0 0 507.01 307.81
  L 596.35 296.85
  A 0.49 0.48 77.6 0 0 596.75 296.22
  L 524.10 70.92
  A 0.48 0.47 82.7 0 0 523.68 70.59
  L 403.08 60.08
  A 0.39 0.38 -78.9 0 0 402.68 60.36
  Q 386.47 117.20 370.24 174.00
  Q 369.51 176.54 370.01 180.25
  Q 378.04 240.22 386.11 300.20
  A 0.71 0.71 0.0 0 0 386.69 300.80
  L 422.77 307.78
  A 0.48 0.48 0.0 0 0 423.33 307.39
  L 431.19 264.17
  A 0.65 0.63 -89.9 0 1 431.70 263.65
  L 494.67 252.54
  A 0.48 0.48 0.0 0 1 495.23 252.92"
/>
<path stroke="#7c6c00" vector-effect="non-scaling-stroke" d="
  M 675.95 115.22
  Q 676.54 148.87 677.30 184.18
  A 0.43 0.43 0.0 0 0 677.82 184.59
  L 720.78 175.53
  A 0.63 0.63 0.0 0 0 721.28 175.03
  L 729.99 129.96
  A 0.67 0.66 -76.2 0 0 729.53 129.19
  L 676.40 112.79
  A 0.53 0.53 0.0 0 0 675.72 113.19
  C 675.61 113.79 675.94 114.66 675.95 115.22"
/>
<path stroke="#22581b" vector-effect="non-scaling-stroke" d="
  M 1027.02 218.75
  A 0.57 0.57 0.0 0 0 1027.38 219.27
  L 1075.67 238.57
  A 0.57 0.57 0.0 0 0 1076.28 238.45
  L 1119.08 197.05
  A 0.57 0.57 0.0 0 0 1119.18 196.37
  L 1087.98 140.35
  A 0.57 0.57 0.0 0 0 1087.30 140.09
  L 1026.38 160.07
  A 0.57 0.57 0.0 0 0 1025.99 160.62
  L 1027.02 218.75"
/>
<path stroke="#005c23" vector-effect="non-scaling-stroke" d="
  M 454.85 136.92
  A 0.33 0.33 0.0 0 0 454.50 137.19
  L 443.77 195.36
  A 0.33 0.33 0.0 0 0 444.10 195.75
  L 482.99 195.75
  A 0.33 0.33 0.0 0 0 483.32 195.35
  L 471.57 138.56
  A 0.33 0.33 0.0 0 0 471.27 138.30
  L 454.85 136.92"
/>
</g>
<g fill="#000000">
<path d="
  M 235.08 265.41
  Q 221.32 278.79 207.30 291.90
  C 203.81 295.16 200.85 295.75 198.21 291.30
  Q 188.09 274.25 178.04 257.18
  Q 177.78 256.75 177.64 257.23
  Q 163.79 303.01 149.83 348.73
  C 148.12 354.34 144.92 353.38 140.65 351.42
  Q 78.35 322.83 16.07 294.18
  C 13.59 293.03 13.74 289.73 14.72 287.35
  Q 21.52 271.01 28.26 254.65
  Q 78.04 133.78 128.34 13.04
  A 0.81 0.81 0.0 0 1 129.20 12.55
  L 222.19 25.85
  A 0.66 0.65 85.7 0 1 222.72 26.31
  L 235.34 69.97
  A 0.41 0.40 -37.0 0 0 236.07 70.07
  L 260.61 31.88
  A 0.89 0.88 -69.4 0 1 261.48 31.48
  L 350.93 43.83
  A 1.06 1.06 0.0 0 1 351.84 44.74
  L 362.86 127.22
  A 0.31 0.31 0.0 0 0 363.46 127.27
  L 388.23 40.28
  A 1.19 1.18 10.0 0 1 389.47 39.42
  L 537.69 52.32
  A 1.24 1.24 0.0 0 1 538.77 53.18
  L 561.47 123.70
  A 0.29 0.29 0.0 0 0 562.04 123.58
  Q 561.04 114.24 560.41 104.93
  C 559.96 98.23 561.33 90.91 561.28 85.35
  Q 561.17 73.79 559.66 57.48
  C 558.91 49.28 564.74 49.20 571.66 48.23
  Q 648.70 37.54 725.75 27.00
  C 729.77 26.45 731.48 26.77 734.95 29.16
  Q 777.80 58.81 820.53 88.34
  A 0.33 0.32 18.8 0 0 821.04 88.09
  Q 822.67 58.76 824.27 29.51
  C 824.42 26.69 826.36 25.46 829.14 26.05
  Q 904.45 42.04 979.75 58.01
  C 984.34 58.99 980.24 71.59 979.52 74.63
  A 0.37 0.37 0.0 0 0 980.16 74.96
  L 1008.32 42.82
  A 1.47 1.45 16.0 0 1 1009.20 42.34
  C 1015.03 41.38 1018.73 42.47 1023.64 42.94
  C 1026.44 43.20 1029.07 44.29 1032.01 43.99
  Q 1032.50 43.94 1032.97 44.12
  C 1035.65 45.17 1038.79 45.01 1041.01 45.37
  Q 1044.15 45.89 1050.00 46.72
  Q 1107.08 54.76 1128.18 57.58
  Q 1130.98 57.96 1132.62 59.63
  Q 1171.03 98.82 1209.21 138.23
  C 1211.77 140.88 1209.98 146.77 1209.98 150.17
  C 1209.97 153.50 1208.60 156.39 1209.04 160.00
  Q 1209.09 160.49 1208.91 160.94
  Q 1208.27 162.51 1208.01 165.25
  Q 1207.38 171.96 1204.52 194.00
  Q 1197.50 248.30 1190.17 302.56
  C 1189.35 308.62 1189.69 311.45 1184.18 313.64
  C 1164.73 321.36 1140.20 333.05 1118.12 342.46
  Q 1086.14 356.10 1076.55 360.80
  C 1067.74 365.12 1063.93 363.32 1054.21 359.71
  C 1015.61 345.36 973.25 330.90 940.79 318.76
  C 937.08 317.37 936.01 306.46 935.91 303.21
  A 0.32 0.32 0.0 0 0 935.28 303.17
  Q 933.90 311.93 932.05 320.51
  C 931.68 322.24 930.67 323.85 930.32 325.66
  Q 928.15 336.84 925.99 348.10
  A 0.64 0.64 0.0 0 1 925.41 348.62
  L 808.50 358.24
  A 0.70 0.69 -0.4 0 1 807.75 357.51
  Q 808.36 346.27 808.98 335.49
  C 809.10 333.31 807.67 332.09 807.78 329.91
  Q 808.01 325.58 808.29 321.18
  A 0.30 0.30 0.0 0 0 807.73 321.03
  C 806.88 322.67 802.77 332.41 802.00 332.76
  Q 768.64 347.91 735.25 363.00
  Q 731.55 364.67 728.97 361.03
  Q 713.63 339.34 698.25 317.59
  A 0.55 0.55 0.0 0 0 697.42 317.51
  L 693.58 321.17
  A 1.14 1.11 68.8 0 0 693.23 321.99
  Q 693.28 331.78 693.23 341.49
  Q 693.21 345.82 688.25 346.17
  Q 637.13 349.81 586.00 353.30
  Q 583.20 353.49 580.87 351.68
  A 1.23 1.19 59.7 0 0 579.98 351.43
  Q 536.10 356.77 492.24 362.19
  Q 489.61 362.52 489.03 359.74
  Q 483.71 334.21 478.51 308.59
  A 0.49 0.49 0.0 0 0 477.95 308.21
  L 450.13 313.11
  A 0.77 0.76 -89.4 0 0 449.51 313.72
  Q 445.31 337.15 441.00 360.49
  Q 440.40 363.73 437.61 363.20
  Q 407.20 357.53 376.83 351.66
  Q 373.25 350.96 369.62 351.27
  Q 305.30 356.76 241.00 362.26
  Q 235.67 362.71 235.65 357.00
  Q 235.52 311.28 235.44 265.56
  Q 235.44 265.06 235.08 265.41
  Z
  M 266.38 180.17
  A 0.34 0.34 0.0 0 1 266.95 180.42
  L 267.72 306.21
  A 0.34 0.34 0.0 0 0 268.09 306.55
  L 365.32 298.26
  A 0.34 0.34 0.0 0 0 365.63 297.88
  L 333.98 61.94
  A 0.34 0.34 0.0 0 0 333.69 61.64
  L 271.07 52.96
  A 0.34 0.34 0.0 0 0 270.73 53.11
  L 229.03 117.92
  A 0.34 0.34 0.0 0 1 228.42 117.83
  L 207.09 44.09
  A 0.34 0.34 0.0 0 0 206.81 43.85
  L 141.37 34.49
  A 0.34 0.34 0.0 0 0 141.01 34.69
  L 51.62 250.13
  A 0.34 0.34 0.0 0 0 51.79 250.57
  L 140.76 291.42
  A 0.34 0.34 0.0 0 0 141.22 291.21
  L 178.54 168.43
  A 0.34 0.34 0.0 0 1 179.15 168.36
  L 214.81 228.77
  A 0.34 0.34 0.0 0 0 215.34 228.84
  L 266.38 180.17
  Z
  M 677.95 228.47
  A 0.32 0.32 0.0 0 1 678.53 228.28
  L 740.03 315.46
  A 0.77 0.77 0.0 0 0 740.98 315.71
  L 830.38 275.10
  A 0.22 0.21 52.1 0 0 830.42 274.74
  L 757.64 215.49
  A 0.42 0.42 0.0 0 1 757.67 214.81
  L 797.69 187.78
  A 1.23 1.23 0.0 0 0 798.20 187.04
  L 816.74 110.03
  A 1.35 1.35 0.0 0 0 816.20 108.60
  L 726.39 46.58
  A 1.27 1.24 58.1 0 0 725.49 46.36
  L 580.21 66.37
  A 0.50 0.50 0.0 0 0 579.78 66.91
  Q 585.78 140.63 591.92 214.54
  Q 592.31 219.21 594.44 225.82
  Q 607.34 265.82 620.25 305.87
  A 0.73 0.72 -7.0 0 0 620.90 306.37
  Q 626.89 306.65 632.84 306.06
  C 647.96 304.57 663.13 303.69 678.31 302.68
  A 0.70 0.70 0.0 0 0 678.97 301.97
  L 677.95 228.47
  Z
  M 838.94 256.81
  Q 853.39 268.89 857.22 271.78
  Q 863.39 276.46 859.41 282.66
  A 1.38 1.33 -83.7 0 1 858.76 283.20
  Q 845.63 288.33 832.91 294.42
  A 1.31 1.29 79.0 0 0 832.17 295.53
  L 831.33 309.46
  A 0.59 0.59 0.0 0 0 831.96 310.08
  L 911.96 303.50
  A 0.87 0.87 0.0 0 0 912.75 302.79
  L 956.55 76.47
  A 0.54 0.53 -78.5 0 0 956.14 75.84
  L 845.93 52.45
  A 0.43 0.42 7.0 0 0 845.42 52.84
  L 834.47 252.26
  A 1.14 1.13 24.7 0 0 834.79 253.12
  Q 835.94 254.31 838.94 256.81
  Z
  M 1185.93 138.57
  Q 1154.89 106.64 1123.87 74.80
  A 2.33 2.33 0.0 0 0 1122.51 74.11
  L 1016.96 59.65
  A 0.90 0.88 24.1 0 0 1016.18 59.94
  Q 995.08 83.66 974.21 107.59
  C 972.91 109.08 972.87 109.87 972.51 111.75
  Q 961.47 168.62 950.69 225.53
  Q 950.38 227.17 950.69 228.81
  Q 954.71 249.93 958.99 271.00
  Q 959.28 272.42 959.60 273.21
  A 0.98 0.96 -0.5 0 0 960.19 273.78
  L 1071.56 313.52
  A 1.43 1.40 42.8 0 0 1072.60 313.49
  L 1177.03 268.00
  A 0.57 0.56 -8.4 0 0 1177.37 267.55
  L 1192.96 146.53
  A 1.02 0.99 28.0 0 0 1192.70 145.72
  Q 1189.32 142.06 1185.93 138.57
  Z
  M 495.23 252.92
  L 506.40 307.37
  A 0.56 0.56 0.0 0 0 507.01 307.81
  L 596.35 296.85
  A 0.49 0.48 77.6 0 0 596.75 296.22
  L 524.10 70.92
  A 0.48 0.47 82.7 0 0 523.68 70.59
  L 403.08 60.08
  A 0.39 0.38 -78.9 0 0 402.68 60.36
  Q 386.47 117.20 370.24 174.00
  Q 369.51 176.54 370.01 180.25
  Q 378.04 240.22 386.11 300.20
  A 0.71 0.71 0.0 0 0 386.69 300.80
  L 422.77 307.78
  A 0.48 0.48 0.0 0 0 423.33 307.39
  L 431.19 264.17
  A 0.65 0.63 -89.9 0 1 431.70 263.65
  L 494.67 252.54
  A 0.48 0.48 0.0 0 1 495.23 252.92
  Z"
/>
<path d="
  M 675.95 115.22
  C 675.94 114.66 675.61 113.79 675.72 113.19
  A 0.53 0.53 0.0 0 1 676.40 112.79
  L 729.53 129.19
  A 0.67 0.66 -76.2 0 1 729.99 129.96
  L 721.28 175.03
  A 0.63 0.63 0.0 0 1 720.78 175.53
  L 677.82 184.59
  A 0.43 0.43 0.0 0 1 677.30 184.18
  Q 676.54 148.87 675.95 115.22
  Z"
/>
<path d="
  M 454.85 136.92
  L 471.27 138.30
  A 0.33 0.33 0.0 0 1 471.57 138.56
  L 483.32 195.35
  A 0.33 0.33 0.0 0 1 482.99 195.75
  L 444.10 195.75
  A 0.33 0.33 0.0 0 1 443.77 195.36
  L 454.50 137.19
  A 0.33 0.33 0.0 0 1 454.85 136.92
  Z"
/>
<path d="
  M 1027.02 218.75
  L 1025.99 160.62
  A 0.57 0.57 0.0 0 1 1026.38 160.07
  L 1087.30 140.09
  A 0.57 0.57 0.0 0 1 1087.98 140.35
  L 1119.18 196.37
  A 0.57 0.57 0.0 0 1 1119.08 197.05
  L 1076.28 238.45
  A 0.57 0.57 0.0 0 1 1075.67 238.57
  L 1027.38 219.27
  A 0.57 0.57 0.0 0 1 1027.02 218.75
  Z"
/>
</g>
<path fill="#44af35" d="
  M 1185.93 138.57
  Q 1189.32 142.06 1192.70 145.72
  A 1.02 0.99 28.0 0 1 1192.96 146.53
  L 1177.37 267.55
  A 0.57 0.56 -8.4 0 1 1177.03 268.00
  L 1072.60 313.49
  A 1.43 1.40 42.8 0 1 1071.56 313.52
  L 960.19 273.78
  A 0.98 0.96 -0.5 0 1 959.60 273.21
  Q 959.28 272.42 958.99 271.00
  Q 954.71 249.93 950.69 228.81
  Q 950.38 227.17 950.69 225.53
  Q 961.47 168.62 972.51 111.75
  C 972.87 109.87 972.91 109.08 974.21 107.59
  Q 995.08 83.66 1016.18 59.94
  A 0.90 0.88 24.1 0 1 1016.96 59.65
  L 1122.51 74.11
  A 2.33 2.33 0.0 0 1 1123.87 74.80
  Q 1154.89 106.64 1185.93 138.57
  Z
  M 1027.02 218.75
  A 0.57 0.57 0.0 0 0 1027.38 219.27
  L 1075.67 238.57
  A 0.57 0.57 0.0 0 0 1076.28 238.45
  L 1119.08 197.05
  A 0.57 0.57 0.0 0 0 1119.18 196.37
  L 1087.98 140.35
  A 0.57 0.57 0.0 0 0 1087.30 140.09
  L 1026.38 160.07
  A 0.57 0.57 0.0 0 0 1025.99 160.62
  L 1027.02 218.75
  Z"
/>
<path fill="#de1400" d="
  M 266.38 180.17
  L 215.34 228.84
  A 0.34 0.34 0.0 0 1 214.81 228.77
  L 179.15 168.36
  A 0.34 0.34 0.0 0 0 178.54 168.43
  L 141.22 291.21
  A 0.34 0.34 0.0 0 1 140.76 291.42
  L 51.79 250.57
  A 0.34 0.34 0.0 0 1 51.62 250.13
  L 141.01 34.69
  A 0.34 0.34 0.0 0 1 141.37 34.49
  L 206.81 43.85
  A 0.34 0.34 0.0 0 1 207.09 44.09
  L 228.42 117.83
  A 0.34 0.34 0.0 0 0 229.03 117.92
  L 270.73 53.11
  A 0.34 0.34 0.0 0 1 271.07 52.96
  L 333.69 61.64
  A 0.34 0.34 0.0 0 1 333.98 61.94
  L 365.63 297.88
  A 0.34 0.34 0.0 0 1 365.32 298.26
  L 268.09 306.55
  A 0.34 0.34 0.0 0 1 267.72 306.21
  L 266.95 180.42
  A 0.34 0.34 0.0 0 0 266.38 180.17
  Z"
/>
<path fill="#00a8ec" d="
  M 838.94 256.81
  Q 835.94 254.31 834.79 253.12
  A 1.14 1.13 24.7 0 1 834.47 252.26
  L 845.42 52.84
  A 0.43 0.42 7.0 0 1 845.93 52.45
  L 956.14 75.84
  A 0.54 0.53 -78.5 0 1 956.55 76.47
  L 912.75 302.79
  A 0.87 0.87 0.0 0 1 911.96 303.50
  L 831.96 310.08
  A 0.59 0.59 0.0 0 1 831.33 309.46
  L 832.17 295.53
  A 1.31 1.29 79.0 0 1 832.91 294.42
  Q 845.63 288.33 858.76 283.20
  A 1.38 1.33 -83.7 0 0 859.41 282.66
  Q 863.39 276.46 857.22 271.78
  Q 853.39 268.89 838.94 256.81
  Z"
/>
<path fill="#f8d800" d="
  M 677.95 228.47
  L 678.97 301.97
  A 0.70 0.70 0.0 0 1 678.31 302.68
  C 663.13 303.69 647.96 304.57 632.84 306.06
  Q 626.89 306.65 620.90 306.37
  A 0.73 0.72 -7.0 0 1 620.25 305.87
  Q 607.34 265.82 594.44 225.82
  Q 592.31 219.21 591.92 214.54
  Q 585.78 140.63 579.78 66.91
  A 0.50 0.50 0.0 0 1 580.21 66.37
  L 725.49 46.36
  A 1.27 1.24 58.1 0 1 726.39 46.58
  L 816.20 108.60
  A 1.35 1.35 0.0 0 1 816.74 110.03
  L 798.20 187.04
  A 1.23 1.23 0.0 0 1 797.69 187.78
  L 757.67 214.81
  A 0.42 0.42 0.0 0 0 757.64 215.49
  L 830.42 274.74
  A 0.22 0.21 52.1 0 1 830.38 275.10
  L 740.98 315.71
  A 0.77 0.77 0.0 0 1 740.03 315.46
  L 678.53 228.28
  A 0.32 0.32 0.0 0 0 677.95 228.47
  Z
  M 675.95 115.22
  Q 676.54 148.87 677.30 184.18
  A 0.43 0.43 0.0 0 0 677.82 184.59
  L 720.78 175.53
  A 0.63 0.63 0.0 0 0 721.28 175.03
  L 729.99 129.96
  A 0.67 0.66 -76.2 0 0 729.53 129.19
  L 676.40 112.79
  A 0.53 0.53 0.0 0 0 675.72 113.19
  C 675.61 113.79 675.94 114.66 675.95 115.22
  Z"
/>
<path fill="#00b846" d="
  M 494.67 252.54
  L 431.70 263.65
  A 0.65 0.63 -89.9 0 0 431.19 264.17
  L 423.33 307.39
  A 0.48 0.48 0.0 0 1 422.77 307.78
  L 386.69 300.80
  A 0.71 0.71 0.0 0 1 386.11 300.20
  Q 378.04 240.22 370.01 180.25
  Q 369.51 176.54 370.24 174.00
  Q 386.47 117.20 402.68 60.36
  A 0.39 0.38 -78.9 0 1 403.08 60.08
  L 523.68 70.59
  A 0.48 0.47 82.7 0 1 524.10 70.92
  L 596.75 296.22
  A 0.49 0.48 77.6 0 1 596.35 296.85
  L 507.01 307.81
  A 0.56 0.56 0.0 0 1 506.40 307.37
  L 495.23 252.92
  A 0.48 0.48 0.0 0 0 494.67 252.54
  Z
  M 454.85 136.92
  A 0.33 0.33 0.0 0 0 454.50 137.19
  L 443.77 195.36
  A 0.33 0.33 0.0 0 0 444.10 195.75
  L 482.99 195.75
  A 0.33 0.33 0.0 0 0 483.32 195.35
  L 471.57 138.56
  A 0.33 0.33 0.0 0 0 471.27 138.30
  L 454.85 136.92
  Z"
/>
</svg>
