<?xml version="1.0" encoding="UTF-8" standalone="no"?>
<!-- Created with Inkscape (http://www.inkscape.org/) -->

<svg
   version="1.1"
   id="svg916"
   width="750"
   height="147"
   viewBox="0 0 749.99993 147"
   xmlns:xlink="http://www.w3.org/1999/xlink"
   xmlns="http://www.w3.org/2000/svg"
   xmlns:svg="http://www.w3.org/2000/svg">
  <defs
     id="defs920">
    <linearGradient
       id="linearGradient55481">
      <stop
         style="stop-color:#0877c3;stop-opacity:1"
         offset="0"
         id="stop55473" />
      <stop
         style="stop-color:#66c5f4;stop-opacity:1"
         offset="0.33517072"
         id="stop55475" />
      <stop
         style="stop-color:#e7f4fc;stop-opacity:1"
         offset="0.71094382"
         id="stop55477" />
      <stop
         style="stop-color:#ffffff;stop-opacity:1"
         offset="1"
         id="stop55479" />
    </linearGradient>
    <linearGradient
       id="linearGradient55433">
      <stop
         style="stop-color:#0877c3;stop-opacity:1"
         offset="0"
         id="stop55425" />
      <stop
         style="stop-color:#66c5f4;stop-opacity:1"
         offset="0.33517072"
         id="stop55427" />
      <stop
         style="stop-color:#e7f4fc;stop-opacity:1"
         offset="0.71094382"
         id="stop55429" />
      <stop
         style="stop-color:#ffffff;stop-opacity:1"
         offset="1"
         id="stop55431" />
    </linearGradient>
    <linearGradient
       id="linearGradient55423">
      <stop
         style="stop-color:#0877c3;stop-opacity:1"
         offset="0"
         id="stop55415" />
      <stop
         style="stop-color:#66c5f4;stop-opacity:1"
         offset="0.33517072"
         id="stop55417" />
      <stop
         style="stop-color:#e7f4fc;stop-opacity:1"
         offset="0.71094382"
         id="stop55419" />
      <stop
         style="stop-color:#ffffff;stop-opacity:1"
         offset="1"
         id="stop55421" />
    </linearGradient>
    <linearGradient
       id="linearGradient55413">
      <stop
         style="stop-color:#0877c3;stop-opacity:1"
         offset="0"
         id="stop55405" />
      <stop
         style="stop-color:#66c5f4;stop-opacity:1"
         offset="0.33517072"
         id="stop55407" />
      <stop
         style="stop-color:#e7f4fc;stop-opacity:1"
         offset="0.71094382"
         id="stop55409" />
      <stop
         style="stop-color:#ffffff;stop-opacity:1"
         offset="1"
         id="stop55411" />
    </linearGradient>
    <linearGradient
       id="linearGradient55403">
      <stop
         style="stop-color:#0877c3;stop-opacity:1"
         offset="0"
         id="stop55395" />
      <stop
         style="stop-color:#66c5f4;stop-opacity:1"
         offset="0.33517072"
         id="stop55397" />
      <stop
         style="stop-color:#e7f4fc;stop-opacity:1"
         offset="0.71094382"
         id="stop55399" />
      <stop
         style="stop-color:#ffffff;stop-opacity:1"
         offset="1"
         id="stop55401" />
    </linearGradient>
    <linearGradient
       id="linearGradient55393">
      <stop
         style="stop-color:#0877c3;stop-opacity:1"
         offset="0"
         id="stop55385" />
      <stop
         style="stop-color:#66c5f4;stop-opacity:1"
         offset="0.33517072"
         id="stop55387" />
      <stop
         style="stop-color:#e7f4fc;stop-opacity:1"
         offset="0.71094382"
         id="stop55389" />
      <stop
         style="stop-color:#ffffff;stop-opacity:1"
         offset="1"
         id="stop55391" />
    </linearGradient>
    <linearGradient
       id="blue-to-white">
      <stop
         style="stop-color:#0877c3;stop-opacity:1"
         offset="0"
         id="stop28582" />
      <stop
         style="stop-color:#66c5f4;stop-opacity:1"
         offset="0.33517072"
         id="stop28584" />
      <stop
         style="stop-color:#e7f4fc;stop-opacity:1"
         offset="0.71094382"
         id="stop28586" />
      <stop
         style="stop-color:#ffffff;stop-opacity:1"
         offset="1"
         id="stop28588" />
    </linearGradient>
    <linearGradient
       xlink:href="#linearGradient55393"
       id="linearGradient30728"
       x1="72.759712"
       y1="64.640244"
       x2="74.364044"
       y2="156.55251"
       gradientUnits="userSpaceOnUse"
       gradientTransform="matrix(0.75279177,0,0,0.75279052,-6.730638,-38.663747)" />
    <linearGradient
       xlink:href="#linearGradient55403"
       id="linearGradient2"
       x1="72.759712"
       y1="64.640244"
       x2="74.364044"
       y2="156.55251"
       gradientUnits="userSpaceOnUse"
       gradientTransform="matrix(0.75279177,0,0,0.75279052,-6.730638,-38.663747)" />
    <linearGradient
       xlink:href="#linearGradient55413"
       id="linearGradient3"
       x1="72.759712"
       y1="64.640244"
       x2="74.364044"
       y2="156.55251"
       gradientUnits="userSpaceOnUse"
       gradientTransform="matrix(0.75279177,0,0,0.75279052,-6.730638,-38.663747)" />
    <linearGradient
       xlink:href="#linearGradient55423"
       id="linearGradient4"
       x1="72.759712"
       y1="64.640244"
       x2="74.364044"
       y2="156.55251"
       gradientUnits="userSpaceOnUse"
       gradientTransform="matrix(0.75279177,0,0,0.75279052,-6.730638,-38.663747)" />
    <linearGradient
       xlink:href="#linearGradient55433"
       id="linearGradient5"
       x1="72.759712"
       y1="64.640244"
       x2="74.364044"
       y2="156.55251"
       gradientUnits="userSpaceOnUse"
       gradientTransform="matrix(0.75279177,0,0,0.75279052,-6.730638,-38.663747)" />
    <linearGradient
       xlink:href="#linearGradient55481"
       id="linearGradient6"
       x1="72.759712"
       y1="64.640244"
       x2="74.364044"
       y2="156.55251"
       gradientUnits="userSpaceOnUse"
       gradientTransform="matrix(0.75279177,0,0,0.75279052,-6.730638,-38.663747)" />
    <linearGradient
       xlink:href="#blue-to-white"
       id="linearGradient7"
       x1="72.759712"
       y1="64.640244"
       x2="74.364044"
       y2="156.55251"
       gradientUnits="userSpaceOnUse"
       gradientTransform="matrix(0.75279177,0,0,0.75279052,-6.730638,-38.663747)" />
  </defs>
  <g
     id="layer1"
     style="display:inline;opacity:1">
    <path
       style="fill:#e70012;fill-opacity:1;stroke:none;stroke-width:0.752792px;stroke-linecap:butt;stroke-linejoin:miter;stroke-opacity:1"
       d="m 0.5,28.1875 h 749 l -615.25,118.75 z"
       id="path22821" />
    <path
       style="fill:#7fcef5;fill-opacity:1;stroke:#000000;stroke-width:1.25;stroke-linecap:butt;stroke-linejoin:miter;stroke-miterlimit:4;stroke-dasharray:none;stroke-opacity:1"
       d="m 151.75,3.1875 -32,19 c -0.56296,0.334258 -2.71506,0.922705 -3.5,-0.5 l -8,-14.5 c -1.06807,-1.9358729 -1.74776,-3.25 -5,-3.25 h -16 c -4.562689,0 -6.352682,3.4984235 -6.75,4.25 l -50.75,96 c -1.729973,3.27246 0.871072,5.91431 3.5,5.75 l 32,-2 c 2.263376,-0.14146 4.137784,-1.59137 5.75,-4.75 l 12.25,-24 c 0.112895,-0.221181 0.965799,-1.896035 2,0 l 3,5.5 c 1.833927,3.362199 4.060729,2.056267 5,1.5 L 119,70.9375 c 1.25543,-0.743508 2.42368,-0.664671 1.75,1.25 l -9.5,27 c -0.98848,2.80936 -1.01784,5.5285 3.5,5.25 l 36.5,-2.25 c 2.11047,-0.1301 2.78142,-1.68727 3.25,-3 l 32.75,-91.75 c 1.28707,-3.6057631 -0.88026,-5 -3.5,-5 h -27 c -2.23774,0 -3.7574,0.012203 -5,0.75 z"
       id="path1016" />
    <path
       style="fill:url(#linearGradient30728);fill-opacity:1;stroke:#000000;stroke-width:1.25;stroke-linecap:butt;stroke-linejoin:miter;stroke-miterlimit:4;stroke-dasharray:none;stroke-opacity:1"
       d="m 177.75,6.9375 c 2.16265,0 3.58654,1.9446933 2.5,5 L 151,94.1875 c -0.64233,1.80621 -1.33729,2.87126 -3.25,3 l -26,1.75 c -2.58293,0.17385 -4.11415,-1.935458 -3.5,-3.75 l 11,-32.5 c 0.63594,-1.878912 -0.75715,-2.696749 -2,-2 l -33,18.5 c -0.98697,0.553301 -2.448032,0.487732 -3,-0.5 l -4.75,-8.5 c -0.312875,-0.559882 -1.729505,-3.466212 -3.25,-0.5 L 68,99.4375 c -0.830082,1.61934 -2.789984,3.89532 -5.25,4 l -23.5,1 c -1.469782,0.0625 -2.680975,-1.946 -2,-3.25 l 47,-90 c 0.691482,-1.324114 1.506201,-2.5 3,-2.5 h 13 c 2.33711,0 2.8262,0.680964 4.5,3.5 l 9.5,16 c 0.85404,1.438377 2.57679,1.879044 4,1 l 34,-21 c 1.32452,-0.8180848 2.94321,-1.25 4.5,-1.25 z"
       id="path29430" />
    <path
       style="fill:#7fcef5;fill-opacity:1;stroke:#000000;stroke-width:1.25;stroke-linecap:butt;stroke-linejoin:miter;stroke-miterlimit:4;stroke-dasharray:none;stroke-opacity:1"
       d="m 626.75,1.9375 c -0.55172,0 -3.38489,-0.1347326 -4.5,2.75 l -23,59.5 c -0.71914,1.860394 -1.53602,5.449264 2.25,5.25 l 23.75,-1.25 c 1.42657,-0.07508 2.19042,-0.958852 2.5,-1.75 l 4.5,-11.5 c 0.82522,-2.108907 2.25812,-1.566066 3,-0.75 l 10,11 c 0.60374,0.664116 1.60334,1.039559 2.5,1 l 17,-0.75 c 3.89698,-0.171926 4.82444,-2.788654 5,-3.25 l 21.5,-56.5 c 0.82609,-2.1708891 -0.58268,-3.75 -2.5,-3.75 h -23.5 c -0.667,0 -1.67408,-0.019592 -2.25,1.25 l -6.31973,13.931536 c -0.51776,1.141377 -0.90734,1.48496 -2.15538,0.06216 L 642.25,3.1875 c -0.51842,-0.5910127 -1.21184,-1.25 -2,-1.25 z"
       id="path1018" />
    <path
       style="fill:url(#linearGradient7);fill-opacity:1;stroke:#000000;stroke-width:1.25;stroke-linecap:butt;stroke-linejoin:miter;stroke-miterlimit:4;stroke-dasharray:none;stroke-opacity:1"
       d="m 683.75,5.9375 c 1.5964,0 2.06707,0.7577125 1.5,2.25 l -19,50 c -0.72522,1.908464 -1.83624,2.688379 -3.5,2.75 l -13.5,0.5 c -0.84015,0.03112 -1.66684,-0.64441 -2.25,-1.25 l -13,-13.5 c -0.70085,-0.727806 -2.37398,-1.145189 -3.75,2 l -5.25,12 c -0.80612,1.842566 -1.74312,2.868401 -3.75,3 l -15.25,1 c -1.13666,0.07453 -1.94929,-0.821987 -1.5,-2 L 625,8.9375 c 0.73513,-1.9274722 2.16041,-3 3.75,-3 h 9 c 0.58988,0 0.73838,0.2037636 1.5,1 l 16.5,17.25 c 0.66259,0.692712 2.31799,0.573864 3,-1 l 6.5,-15 c 0.69608,-1.6063366 1.61275,-2.25 3,-2.25 z"
       id="path30107" />
    <path
       style="fill:#7fcef5;fill-opacity:1;stroke:#000000;stroke-width:1.25;stroke-linecap:butt;stroke-linejoin:miter;stroke-miterlimit:4;stroke-dasharray:none;stroke-opacity:1"
       d="m 199.75,2.4375 c -3.54923,0 -6.34221,1.4787903 -7.5,4.75 l -31.5,89 c -0.93837,2.651259 0.9283,5.24588 4.5,5 l 69,-4.75 c 4.48022,-0.308421 6.88502,-2.803702 8,-6.25 l 5.5,-17 c 0.85433,-2.640669 1.04874,-6.226546 -4,-6 l -39,1.75 c -0.30799,0.01382 -1.62867,-0.05332 -0.75,-2.25 l 1,-2.5 c 0.30614,-0.765338 0.67528,-1.464176 1.75,-1.5 l 30,-1 c 0.56526,-0.01884 3.48584,-0.249307 4.75,-3.5 l 7,-18 c 0.1137,-0.292378 1.70096,-5.03837 -2.75,-5 l -29,0.25 c -0.88129,0.0076 -1.84887,-0.602628 -1.25,-2 l 0.75,-1.75 c 0.39544,-0.922705 1.00494,-0.996944 1.5,-1 l 40.5,-0.25 c 2.84155,-0.01754 4.54788,-2.602307 5,-3.75 l 6.5,-16.5 c 2.99261,-7.5966315 -2.3818,-7.75 -4,-7.75 z"
       id="path1136" />
    <path
       style="fill:url(#linearGradient2);fill-opacity:1;stroke:#000000;stroke-width:1.25;stroke-linecap:butt;stroke-linejoin:miter;stroke-miterlimit:4;stroke-dasharray:none;stroke-opacity:1"
       d="m 201.25,7.4375 h 61 c 2.23447,0 3.35645,1.656452 2.5,3.75 l -4.5,11 c -0.54743,1.338152 -1.93885,3.487118 -4,3.5 l -40,0.25 c -1.46208,0.0091 -3.19243,1.150327 -4,3.25 l -2.5,6.5 c -0.565,1.468995 -0.96651,4.542137 3.5,4.5 l 26.5,-0.25 c 2.86115,-0.02699 2.41069,2.600062 2,3.75 l -3.75,10.5 c -0.5973,1.672432 -1.97567,2.675448 -3.75,2.75 l -29.75,1.25 c -1.3772,0.05787 -3.23045,1.205199 -3.75,3 l -2.75,9.5 c -0.53085,1.833847 1.0522,3.326183 2.75,3.25 l 39,-1.75 c 3.00253,-0.134729 2.61521,2.359431 2,4 l -4.5,12 c -0.74381,1.983488 -1.34103,3.356069 -3.5,3.5 l -63.75,4.25 c -1.91612,0.127741 -3.46838,-1.231109 -2.75,-3.25 l 29,-81.5 c 0.89266,-2.5086829 1.20229,-3.75 5,-3.75 z"
       id="path29255" />
    <path
       style="fill:#7fcef5;fill-opacity:1;stroke:#000000;stroke-width:1.25;stroke-linecap:butt;stroke-linejoin:miter;stroke-miterlimit:4;stroke-dasharray:none;stroke-opacity:1"
       d="m 308.25,0.6875 c -31.98589,0 -52.23867,36.88658 -52.23867,60.040626 0,20.904998 12.42413,36.459374 31.23867,36.459374 27.00386,0 44.26312,-25.476803 51.5,-51.5 0.76143,-2.738045 -1.46502,-4.75 -4,-4.75 h -33.5 c -1.98369,0 -2.66022,1.250642 -3,2.25 l -4.25,12.5 c -0.94769,2.787335 1.21489,3.5 2.25,3.5 h 4 c 0.98916,0 1.02734,0.220556 0,1.25 -1.19364,1.196079 -3.05958,1.75 -5.5,1.75 -0.63609,0 -6.25,0.242676 -6.25,-8 0,-13.497596 9.47752,-22.75 14.75,-22.75 2.53459,0 3.46649,1.888995 6,5.5 0.49794,0.709711 0.98489,1.25 2.5,1.25 h 23.5 c 3.78651,0 4,-1.917557 4,-5 0,-23.363504 -15.86972,-32.5 -31,-32.5 z"
       id="path1138" />
    <path
       style="fill:url(#linearGradient3);fill-opacity:1;stroke:#000000;stroke-width:1.25;stroke-linecap:butt;stroke-linejoin:miter;stroke-miterlimit:4;stroke-dasharray:none;stroke-opacity:1"
       d="m 308.75,4.9375 c 12.18524,0 25.5,8.78316 25.5,26.75 0,0.810612 -0.81999,1.75 -2,1.75 h -18.5 c -0.55608,0 -0.70444,-0.136778 -1.5,-1.25 -1.10911,-1.551968 -3.91825,-5.75 -8,-5.75 -10.07139,0 -21.5,14.801997 -21.5,28.25 0,9.055574 6.56271,13.25 11,13.25 7.29051,0 11.51552,-6.167473 14.5,-10 0.50426,-0.647546 1.65662,-2.249968 1,-2.249968 h -8 c -1.77988,0 -1.47773,-2.305677 -1,-3.5 l 2,-5 c 0.32899,-0.822487 1.11415,-1.75 2,-1.75 h 26.5 c 1.40705,0 2.73203,0.451022 2.25,2.25 -5.41164,20.196524 -20.26284,44.499968 -45.75,44.499968 -14.75306,0 -26,-12.750925 -26,-31 0,-21.375953 18.91346,-56.25 47.5,-56.25 z"
       id="path30061" />
    <path
       id="path1140"
       style="fill:#7fcef5;fill-opacity:1;stroke:#000000;stroke-width:1.25;stroke-linecap:butt;stroke-linejoin:miter;stroke-miterlimit:4;stroke-dasharray:none;stroke-opacity:1"
       d="m 380.75,2.4375 c -2.60997,0 -4.59227,1.5522176 -6,3.75 l -49,76.5 c -2.0652,3.224237 0.48015,5.869466 2.75,5.75 l 23.75,-1.25 c 1.33487,-0.07026 3.25941,-1.698423 5.0468,-4.988738 0.92486,-1.702539 2.02236,-4.100359 3.9532,-4.261262 l 21,-1.75 c 0.79777,-0.06648 1.33372,0.327953 1.25,1.5 l -0.25,3.5 c -0.13371,1.871922 2.16719,3.345201 3.5,3.25 l 24.5,-1.75 c 1.06211,-0.07586 3.3265,-1.29677 3.25,-3.5 l -2.5,-72 c -0.10732,-3.0909309 -1.87743,-4.75 -5.75,-4.75 z m 1.5,37.25 c 0.37538,-0.646489 0.7339,-0.951003 0.75001,-0.5 l 0.24999,7 c 0.0421,1.178553 -0.37842,1.724101 -1,1.75 l -3,0.125 c -1.88342,0.07848 -1.84943,-0.02321 -1.5,-0.625 z" />
    <path
       id="path28351"
       style="fill:url(#linearGradient4);fill-opacity:1;stroke:#000000;stroke-width:1.25;stroke-linecap:butt;stroke-linejoin:miter;stroke-miterlimit:4;stroke-dasharray:none;stroke-opacity:1"
       d="m 403.75,7.1875 h -21.5 c -3.32763,0 -4.90784,3.071383 -5.5,4 l -44,69 c -1.44189,2.261152 -0.14463,3.042602 0.75,3 l 15.75,-0.75 c 1.17365,-0.05589 2.50309,-0.171812 3.75,-2.25 l 3,-5 c 0.58817,-0.98029 1.44193,-2.151378 3.25,-2.25 l 27.5,-1.5 c 0.58839,-0.03209 1.32766,0.318065 1.25,1.25 l -0.25,3 c -0.12111,1.453378 0.87261,3.641826 3,3.5 l 15,-1 c 3.82096,-0.25473 3.77164,-3.389202 3.75,-4 l -2.25,-63.5 c -0.13015,-3.6731531 -3.21756,-3.5 -3.5,-3.5 z m -16.75,20 0.5,23.75 c 0.0108,0.514659 0.0623,1.71399 -1,1.75 l -14.75,0.5 c -0.84436,0.02862 -2.45419,-0.576347 -1,-3 l 13.5,-22.5 c 1.30925,-2.182082 2.72991,-1.454325 2.75,-0.5 z" />
    <path
       style="fill:#7fcef5;fill-opacity:1;stroke:#000000;stroke-width:1.25;stroke-linecap:butt;stroke-linejoin:miter;stroke-miterlimit:4;stroke-dasharray:none;stroke-opacity:1"
       d="m 523.75,2.9375 h -24 c -0.79117,0 -2.93972,0.1027378 -4.5,1.25 l -17,12.5 c -0.74233,0.54583 -2.81388,1.152091 -4,-0.5 l -7,-9.75 c -1.32507,-1.8456282 -1.8988,-2.5 -4.5,-2.5 h -11 c -3.68598,0 -5.04147,2.56372 -5.5,3.75 l -27.25,70.5 c -0.26529,0.686351 -1.13294,4.237731 2.75,4 l 24.5,-1.5 c 2.08578,-0.127701 3.09829,-1.413409 4.25,-4.5 l 6.25,-16.75 c 0.35058,-0.939551 0.45058,-1.099257 1.5,0.25 l 3.5,4.5 c 1.26617,1.627928 2.37157,0.699307 3.5,0 l 17.75,-11 c 0.26035,-0.161344 1.64855,-0.328642 1.25,1.5 l -4.25,19.5 c -0.6004,2.754756 0.85624,4.178973 3.25,4 l 26.75,-2 c 1.30945,-0.0979 2.67507,-0.297961 3.25,-3.25 l 13,-66.75 c 0.3323,-1.7062374 -0.7617,-3.25 -2.5,-3.25 z"
       id="path1142" />
    <path
       style="fill:url(#linearGradient5);fill-opacity:1;stroke:#000000;stroke-width:1.25;stroke-linecap:butt;stroke-linejoin:miter;stroke-miterlimit:4;stroke-dasharray:none;stroke-opacity:1"
       d="m 500.25,7.1875 18.5,-0.25 c 2.48684,-0.033606 2.03408,1.4964956 1.5,4.25 l -11.25,58 c -0.18876,0.97316 -0.52506,2.320728 -3.25,2.5 l -19,1.25 c -1.12806,0.07421 -1.77839,-0.694303 -1.5,-2.25 l 4.25,-23.75 c 0.32032,-1.790027 -0.68898,-2.672418 -2.25,-1.75 l -22,13 c -1.39811,0.826156 -2.12871,0.198024 -3,-1 l -4,-5.5 c -1.32439,-1.821036 -3.06768,-1.548342 -4,1 l -7.5,20.5 c -0.55235,1.509769 -0.89507,2.90696 -2.5,3 l -17.25,1 c -2.14867,0.12456 -1.36705,-2.191858 -1.25,-2.5 l 24.5,-64.5 c 0.76481,-2.0134825 2.12684,-1.9995272 3.5,-2 l 7.5,-0.00258 c 0.74574,-2.594e-4 1.54582,0.4110948 2,1.00258 l 10.75,14 c 0.58082,0.756416 1.93816,0.983882 3.25,0 l 20,-15 c 0.84327,-0.6324555 1.946,-0.9857568 3,-1 z"
       id="path30084" />
    <path
       id="path1144"
       style="fill:#7fcef5;fill-opacity:1;stroke:#000000;stroke-width:1.25;stroke-linecap:butt;stroke-linejoin:miter;stroke-miterlimit:4;stroke-dasharray:none;stroke-opacity:1"
       d="m 566.25,2.4375 c -1.47736,0 -3.48888,0.7562953 -4.5,2.25 l -44,65 c -2.4765,3.658472 0.45257,5.602372 2.5,5.5 l 20,-1 c 1.07354,-0.05368 2.96277,-0.81901 3.5,-1.75 l 2.75,-4.765625 c 0.64801,-1.122967 1.8673,-1.408611 3.25,-1.484375 l 18.25,-1 c 0.41604,-0.0228 0.79146,0.585402 0.75,1 l -0.25,2.5 c -0.29789,2.97888 2.57287,3.047242 3.25,3 l 21.5,-1.5 c 2.00279,-0.139729 3.0333,-1.992696 3,-3 l -2,-60.5 c -0.0867,-2.62253 -1.96963,-4.25 -4.5,-4.25 z m 2.25,31.25 v 6.25 c 0,0.390889 -0.16398,1 -1.25,1 h -3 c -1.01921,0 -0.89233,-0.149965 -0.5,-0.75 l 4.25,-6.5 c 0.29445,-0.450331 0.5,-0.538049 0.5,0 z" />
    <path
       id="path28329"
       style="fill:url(#linearGradient6);fill-opacity:1;stroke:#000000;stroke-width:1.25;stroke-linecap:butt;stroke-linejoin:miter;stroke-miterlimit:4;stroke-dasharray:none;stroke-opacity:1"
       d="m 587.75,6.6875 h -20 c -1.50021,0 -2.66067,0.2565483 -3.5,1.5 l -40.5,60 c -1.22419,1.813612 0.16845,2.575899 1.25,2.5 l 14.25,-1 c 1.15475,-0.08103 1.28092,-0.338412 2,-1.5 l 3.25,-5.25 c 0.52815,-0.853166 1.66433,-0.970421 2.25,-1 l 24.75012,-1.25 c 1.38386,-0.06989 1.5305,0.632335 1.49988,1 l -0.24988,3 c -0.11846,1.422169 0.6754,2.363153 2.74988,2.25 l 13.75,-0.75 c 1.14664,-0.06254 2.28619,-1.352232 2.25,-2.5 l -1.75,-55.5 c -0.0382,-1.2128194 -0.78657,-1.5 -2,-1.5 z m -15.5,16.5 0.5,20.75 c 0.0246,1.023012 -0.59176,1.466973 -1.5,1.5 l -13.75,0.5 c -1.10346,0.04013 -1.87252,-1.06056 -1.25,-2 L 570,23.1875 c 1.35002,-2.037296 2.23577,-0.590363 2.25,0 z" />
  </g>
</svg>
