<svg xmlns="http://www.w3.org/2000/svg" width="501" height="148" viewBox="0 0 501 148">
  <defs>
    <linearGradient id="a" x1="376.156" x2="376.156" y1="24.301" y2="81.661" class="paint0_linear_1185" gradientUnits="userSpaceOnUse">
      <stop stop-color="#FCE000"/>
      <stop offset="1" stop-color="#fff"/>
    </linearGradient>
    <linearGradient id="b" x1="81.476" x2="81.476" y1="29.36" y2="91.03" class="paint1_linear_1185" gradientUnits="userSpaceOnUse">
      <stop stop-color="#FCE000"/>
      <stop offset="1" stop-color="#fff"/>
    </linearGradient>
    <linearGradient id="c" x1="478.786" x2="478.786" y1="35.48" y2="113.5" class="paint2_linear_1185" gradientUnits="userSpaceOnUse">
      <stop stop-color="#FCE000"/>
      <stop offset="1" stop-color="#fff"/>
    </linearGradient>
    <linearGradient id="d" x1="203.716" x2="203.716" y1="22.48" y2="70.21" class="paint3_linear_1185" gradientUnits="userSpaceOnUse">
      <stop stop-color="#FCE000"/>
      <stop offset="1" stop-color="#fff"/>
    </linearGradient>
    <linearGradient id="e" x1="24.686" x2="24.686" y1="31.559" y2="107.319" class="paint4_linear_1185" gradientUnits="userSpaceOnUse">
      <stop stop-color="#FCE000"/>
      <stop offset="1" stop-color="#fff"/>
    </linearGradient>
    <linearGradient id="f" x1="137.087" x2="137.087" y1="24.27" y2="77.31" class="paint5_linear_1185" gradientUnits="userSpaceOnUse">
      <stop stop-color="#FCE000"/>
      <stop offset="1" stop-color="#fff"/>
    </linearGradient>
    <linearGradient id="g" x1="297.887" x2="297.887" y1="20.78" y2="71.56" class="paint6_linear_1185" gradientUnits="userSpaceOnUse">
      <stop stop-color="#FCE000"/>
      <stop offset="1" stop-color="#fff"/>
    </linearGradient>
    <linearGradient id="h" x1="444.716" x2="444.716" y1="30.711" y2="93.751" class="paint7_linear_1185" gradientUnits="userSpaceOnUse">
      <stop stop-color="#FCE000"/>
      <stop offset="1" stop-color="#fff"/>
    </linearGradient>
    <linearGradient id="i" x1="249.456" x2="249.456" y1="36.379" y2="81.069" class="paint8_linear_1185" gradientUnits="userSpaceOnUse">
      <stop stop-color="#FCE000"/>
      <stop offset="1" stop-color="#fff"/>
    </linearGradient>
    <linearGradient id="j" x1="248.385" x2="248.385" y1="47.111" y2="57.301" class="paint9_linear_1185" gradientUnits="userSpaceOnUse">
      <stop stop-color="#FCE000"/>
      <stop offset="1" stop-color="#fff"/>
    </linearGradient>
  </defs>
  <g class="mainlogo">
    <g class="Group 557">
      <path fill="#fff" d="M487.699 5.85h3.269v.653h-1.283v3.684h-.708V6.503h-1.278V5.85ZM491.592 5.85h.996l1.115 3.395h.012l1.086-3.395h.984v4.337h-.672V6.845h-.012l-1.122 3.348h-.582l-1.121-3.348h-.012v3.348h-.672V5.85Z" class="Vector"/>
    </g>
    <path fill="#C18523" d="M383.336 3.08c2.37 2.1 4.42 4.39 5.89 7.06 1.79 3.26 3.34 6.66 4.73 10.11.77 1.93 1.1 4.07 1.43 6.14.3 1.83.45 3.71.45 5.56.01 2.49-.23 4.92-1.03 7.37-.96 2.94-2.16 5.72-3.92 8.21-1.97 2.8-4.05 5.53-6.84 7.61-1.69 1.26-3.32 2.61-5 3.89-.33.26-.78.38-1.17.56.15.24.3.47.46.71l.02-.02c.68 0 1.37.04 2.05.04.43 0 .86-.01 1.28-.06.12-.01.23-.02.34-.02 1.08 0 1.57.67 1.85 1.65 1.1 3.83 2.08 7.7 3.32 11.49 1.05 3.22 2.24 6.42 3.63 9.52 1.78 3.99 3.78 7.88 5.76 11.77.77 1.51 1.81 2.87 2.64 4.35.57 1.011 1.36 1.381 2.34 1.381.18 0 .37-.01.56-.04.58-.07 1.17-.15 2.02-.27-.21-1.21-.4-2.38-.61-3.54-.18-.99-.42-1.97-.59-2.97-.6-3.47-.77-6.97-.63-10.48.07-1.68.35-3.35.48-5.02.21-2.68.45-5.36-1.73-7.54-.28-.28-.18-1.24.07-1.71 1.4-2.56 2.93-5.05 4.35-7.6.53-.95.87-2 1.3-3 .13-.03.27-.05.4-.08.71 1.11 1.65 2.14 2.07 3.36 1.34 3.85 2.25 7.77 2.21 11.94-.06 5.61-1.22 11-2.33 16.46-.79 3.89-.2 7.78 2.45 11.09.38.47.8.63 1.22.63.42 0 .85-.17 1.2-.34 3.22-1.52 6.14-3.58 8.09-6.6 2.17-3.37 3.31-7.1 2.83-11.23-.35-3.03-.22-6.14-.9-9.08-.98-4.3-2.24-8.53-4.13-12.6-1.51-3.25-3.45-6.18-5.3-9.2-1.92-3.13-3.93-6.21-5.86-9.33-1.88-3.03-2.96-6.37-3.73-9.82-.61-2.72-1.31-5.45-1.54-8.21-.2-2.41.12-4.89.39-7.32.07-.59.71-1.29 1.27-1.64 4.43-2.74 8.35-6.12 12.13-9.66.74-.69 1.13-1.04 1.52-1.04.39 0 .77.32 1.48.98 2.69 2.47 5.38 4.93 8.63 6.71 1.13.62 2.04 1.63 3.04 2.47.56.47.7.99.25 1.67-.96 1.45-1.85 2.94-2.8 4.4-.32.49-.69 1-1.17 1.33-.17.12-.45.18-.72.18-.2 0-.39-.04-.5-.12-2.81-1.96-5.61-3.94-8.34-6.02-1.31-1-2.41-2.26-3.67-3.34-.44-.37-1.04-.78-1.55-.78h-.05c-.3.02-.77.91-.78 1.41-.08 2.82-.54 5.65.29 8.46.69 2.34 1.08 4.78 1.79 7.11 1.32 4.3 3.11 8.39 5.53 12.2 1.45 2.28 2.7 4.68 4.15 6.96 2.41 3.76 4.44 7.69 5.92 11.92 1.8 5.14 2.53 10.41 2.68 15.85.12 4.58-.06 9.09-1.21 13.51-.84 3.23-2.36 5.79-5.76 7.41-3.44 1.64-6.44 4.23-9.52 6.53-.99.74-1.86 1.21-2.98 1.21-.39 0-.81-.06-1.28-.18-5.7-1.52-11.47-2.77-17.23-4.07-3.19-.72-6.41-1.34-9.61-2.01-.46-.1-.99-.14-1.33-.41-.3-.24-.63-.9-.51-1.14 1.18-2.28.65-4.56.11-6.84-.74-3.13-1.51-6.25-2.27-9.37-1.09-4.44-2.13-8.89-3.31-13.3-.2-.76-.92-1.4-1.45-2.05-1.76-2.16-3.54-4.31-5.34-6.43-.36-.43-.85-.75-1.29-1.12-.13.03-.26.07-.39.1-.12.85-.34 1.7-.35 2.55-.07 6.75-.08 13.51-.14 20.26-.01 1.65-.18 3.31-.14 4.96.08 3.11.91 6.01 2.65 8.64.23.34.21.85.3 1.29-.36.04-.73.15-1.09.15-.07 0-.14 0-.21-.01-4.2-.63-8.39-1.28-12.58-1.95-.58-.09-1.14-.39-1.86-.65.33-.45.46-.72.67-.89 2.67-2.19 3.82-4.98 3.77-8.45-.04-3.25.25-6.5.38-9.76.01-.32-.05-.65-.11-1.35-.67.39-1.25.56-1.58.94a60.665 60.665 0 0 0-3.26 4.08c-.85 1.18-1.94 1.83-3.33 2.14-4.89 1.09-9.65 2.52-13.91 5.29-1.74 1.13-3.53 2.2-5.23 3.39-.36.25-.67.37-.95.37-.42 0-.77-.27-1.09-.73-1.14-1.68-2.31-3.35-3.34-5.11-1.18-2.01-2.29-4.06-3.27-6.16-.75-1.6-1.19-3.34-1.87-4.98-1.72-4.11-2.31-8.47-3.03-12.81-.67-4.02-.86-8.08-.62-12.14.23-4.05.47-8.11.82-12.15.14-1.64.51-3.28.92-4.88.82-3.17 1.77-6.3 2.62-9.46.27-.99.86-1.56 1.75-2.03 3.89-2.05 7.36-4.7 10.46-7.82 1.8-1.81 3.64-3.57 5.41-5.4.44-.45.85-.66 1.28-.66.39 0 .8.17 1.28.47 1.96 1.24 4.07 2.25 6.02 3.51 1.44.93 2.78 2.06 4.05 3.23.31.28.42 1.21.2 1.57-1.22 1.99-2.55 3.91-3.89 5.81-.24.34-.51.51-.8.51-.28 0-.58-.15-.92-.44-.94-.83-1.97-1.58-3.04-2.23-2.16-1.33-4.4-2.53-6.56-3.86-.34-.21-.65-.32-.93-.32-.35 0-.67.17-.98.52-.36.41-.7.85-1 1.32-.77 1.22-1.61 2.4-2.24 3.7-.98 2.01-1.94 4.05-2.66 6.16-1.02 3.01-1.88 6.08-2.68 9.15-.39 1.51-.51 3.08-.71 4.63-.13 1.01-.19 2.03-.29 3.04-.11 1.07.36 1.52 1.36 1.52h.12c1.94-.07 3.89-.11 5.83-.14h.2c.95 0 1.9.07 2.84.07.54 0 1.08-.02 1.62-.1 1.52-.21 2.98-.82 4.47-1.25.07-.02.15-.04.25-.04.15 0 .35.04.67.16-.57 1.02-1.1 2.08-1.72 3.07-.74 1.18-1.55 2.33-2.37 3.46-.44.61-.93 1.21-1.48 1.71-.15.14-.46.23-.72.23-.12 0-.23-.02-.31-.06-1.65-.76-3.37-.84-5.1-.84h-1.24c-.36 0-.71 0-1.07-.01-.68-.02-1.35-.01-2.03-.03h-.15c-1.53 0-1.91.47-1.69 2.06.6 4.28 1.3 8.54 2.89 12.6 1.07 2.75 2.04 5.56 3.27 8.25 1.25 2.73 3.43 4.72 5.99 6.24.76.45 1.74.65 2.78.65 2.39 0 5.12-1.07 6.24-2.71.5-.73 1.04-1.47 1.36-2.28.31-.81.36-1.73.57-2.88h2.9c.6 0 1.2 0 1.79.01 1.44.03 2.87.12 4.31.15h.09c1.24 0 1.82-.72 1.8-2.14-.02-1.55-.03-3.1-.02-4.65.05-4.41.11-8.83.18-13.24.05-3.27.16-6.54.16-9.8 0-3.06-.13-6.11-.17-9.17-.03-1.94.03-3.89 0-5.83-.08-5.28-.15-10.56-.32-15.84-.04-1.12.35-1.81 1.28-2.25a143.2 143.2 0 0 1 5.2-2.38c.4-.17.72-.26.97-.26.59 0 .82.47.82 1.47.01 1.56.05 3.12.13 4.68.02.44.25.87.46 1.57 3.98-4.74 8.71-7.98 13.63-11.1m-8.36 52.52c.23 0 .48-.07.72-.25 3.87-2.79 7.05-6.25 9.27-10.48.83-1.59 1.37-3.36 1.87-5.09.78-2.71 1.41-5.47 2.08-8.13-.6-3.33-.9-6.55-1.8-9.59-1.05-3.58-3.23-6.68-5.18-9.85-.5-.82-1.25-1.51-1.96-2.17-.27-.25-.76-.53-1.08-.53-.05 0-.1 0-.15.03-1.18.53-2.43 1.05-3.37 1.9-1.05.95-1.85 2.21-2.63 3.42-1.69 2.63-3.52 5.23-3.53 8.57 0 1.9-.09 3.81-.08 5.71.03 3.05.09 6.09.17 9.14.04 1.86.25 3.73.15 5.59-.15 2.71-.14 5.34 1.54 7.67.74 1.02 1.38 2.14 2.25 3.03.44.46 1.04 1.05 1.71 1.05m8.36-54.02c-.28 0-.56.08-.8.23-3.98 2.52-8.13 5.29-11.86 9.08-.03-.9-.05-1.88-.06-2.98-.02-2.67-1.63-2.95-2.32-2.95-.46 0-.96.12-1.56.38-1.86.8-3.69 1.66-5.26 2.41-1.47.7-2.18 1.93-2.13 3.65.15 4.72.22 9.53.29 14.17l.03 1.64c.02.99 0 2.01 0 3 0 .94-.01 1.89 0 2.83.02 1.25.05 2.5.08 3.74.04 1.77.09 3.61.09 5.4 0 2.1-.05 4.24-.09 6.31-.03 1.16-.05 2.32-.07 3.47-.07 4.42-.13 8.83-.18 13.25-.02 1.41-.01 2.9.02 4.69 0 .36-.04.53-.07.6-.04 0-.11.02-.23.02-.68-.02-1.31-.04-1.94-.07-.81-.03-1.62-.07-2.43-.08-.61 0-1.21-.01-1.82-.01h-2.91c-.72 0-1.34.51-1.47 1.22-.07.39-.13.75-.18 1.1-.09.63-.17 1.12-.32 1.52-.21.54-.59 1.09-.99 1.68l-.2.3c-.79 1.15-2.98 2.06-5 2.06-.82 0-1.54-.16-2.02-.44-2.62-1.56-4.38-3.38-5.39-5.57-.84-1.84-1.58-3.8-2.29-5.7-.31-.83-.62-1.65-.94-2.47-1.57-4-2.24-8.25-2.8-12.26-.02-.14-.03-.26-.04-.35h1.21c.39 0 .77 0 1.16.02.37.01.74.02 1.12.02h1.24c1.56 0 3.07.05 4.46.7.28.13.6.2.94.2.66 0 1.3-.23 1.73-.62.56-.51 1.09-1.13 1.69-1.94.75-1.03 1.62-2.26 2.43-3.54.46-.73.86-1.48 1.25-2.2l.51-.93c.21-.38.25-.84.09-1.25-.15-.41-.48-.74-.89-.89-.47-.17-.83-.25-1.19-.25-.29 0-.52.05-.66.09-.49.14-.97.3-1.45.45-.98.32-1.91.63-2.83.75-.41.06-.86.08-1.41.08-.45 0-.91-.02-1.36-.03-.49-.02-.99-.04-1.48-.04h-.22c-1.89.02-3.83.07-5.79.13.04-.36.07-.72.09-1.07.05-.62.1-1.21.18-1.79.05-.37.09-.74.14-1.11.14-1.18.27-2.29.54-3.34.96-3.7 1.78-6.49 2.65-9.05.7-2.04 1.66-4.08 2.59-5.99.44-.9.99-1.75 1.58-2.66.19-.3.39-.59.58-.89.23-.36.5-.72.8-1.07.02 0 .03.02.05.03 1.11.68 2.25 1.34 3.36 1.98 1.06.61 2.16 1.24 3.21 1.89 1.05.64 2 1.34 2.83 2.07.62.55 1.26.82 1.91.82.45 0 1.32-.15 2.03-1.14 1.29-1.82 2.66-3.8 3.95-5.89.6-.99.37-2.7-.47-3.46-1.63-1.49-2.94-2.53-4.25-3.38-1.05-.68-2.14-1.28-3.19-1.86-.99-.55-1.93-1.07-2.84-1.65-.48-.3-1.21-.7-2.08-.7-.87 0-1.64.37-2.36 1.11-1.05 1.08-2.14 2.16-3.2 3.2-.74.73-1.47 1.45-2.2 2.18-3.09 3.11-6.49 5.65-10.1 7.55-.85.45-2.03 1.24-2.5 2.97-.37 1.36-.75 2.71-1.13 4.06-.5 1.76-1.02 3.59-1.49 5.4-.36 1.4-.8 3.25-.96 5.12-.34 3.91-.57 7.88-.79 11.72l-.03.47c-.25 4.21-.03 8.41.64 12.47l.21 1.25c.64 3.94 1.3 8.02 2.92 11.89.28.67.52 1.36.77 2.09.33.97.67 1.97 1.13 2.94.91 1.95 2.01 4.01 3.34 6.28.92 1.57 1.95 3.08 2.94 4.53l.45.66c.78 1.14 1.69 1.38 2.33 1.38.6 0 1.21-.21 1.81-.64a76.73 76.73 0 0 1 3.28-2.14c.64-.4 1.28-.8 1.91-1.22 4.31-2.82 9.2-4.15 13.41-5.09 1.82-.41 3.2-1.3 4.22-2.73.62-.86 1.31-1.76 2.14-2.75-.02.42-.05.84-.07 1.26-.12 2.2-.25 4.47-.22 6.73.04 3.12-.98 5.43-3.22 7.27-.31.25-.49.53-.67.8-.07.1-.15.23-.25.37-.28.38-.36.87-.23 1.33.14.45.48.81.93.97.22.08.42.16.6.24.47.19.96.39 1.52.48 4.05.66 8.17 1.3 12.6 1.96.14.02.29.03.43.03.36 0 .68-.06.95-.11.11-.02.21-.04.32-.05.42-.05.8-.27 1.05-.62.25-.34.33-.78.24-1.19-.02-.1-.03-.2-.04-.3-.05-.41-.12-.97-.47-1.5-1.51-2.29-2.32-4.93-2.4-7.85-.02-.9.02-1.8.06-2.75.03-.7.07-1.43.07-2.16.02-2.81.04-5.63.05-8.44.02-3.88.04-7.77.08-11.65 1.44 1.71 2.99 3.58 4.71 5.69.14.17.29.34.44.51.29.33.66.74.72.98.89 3.36 1.73 6.79 2.53 10.12.26 1.05.51 2.1.77 3.16l.43 1.74c.61 2.5 1.24 5.08 1.84 7.62.51 2.15.94 4.01.01 5.8-.58 1.13.3 2.51.9 3 .57.46 1.23.57 1.71.66.08.02.17.03.25.05 1.1.23 2.2.45 3.3.68 2.07.42 4.21.86 6.29 1.33l2.79.63c4.74 1.06 9.63 2.17 14.38 3.43.59.16 1.14.23 1.67.23 1.63 0 2.82-.73 3.88-1.51.68-.5 1.35-1.02 2.02-1.54 2.31-1.78 4.7-3.63 7.25-4.84 3.46-1.65 5.48-4.23 6.56-8.38 1.31-5.03 1.36-10.08 1.25-13.93-.17-6.14-1.07-11.48-2.76-16.31-1.43-4.08-3.42-8.08-6.08-12.23-.73-1.14-1.42-2.34-2.1-3.51-.66-1.13-1.33-2.31-2.05-3.44-2.23-3.5-4.03-7.49-5.36-11.84-.36-1.16-.63-2.35-.91-3.6-.26-1.15-.53-2.33-.88-3.5-.57-1.93-.45-3.93-.33-6.04.03-.48.06-.96.08-1.44.46.4.9.83 1.37 1.28.72.69 1.46 1.41 2.3 2.05 2.82 2.15 5.69 4.17 8.39 6.06.36.25.83.39 1.36.39.28 0 .98-.04 1.56-.44.69-.47 1.18-1.15 1.58-1.74.46-.7.9-1.4 1.34-2.11.47-.76.96-1.54 1.46-2.28.85-1.28.66-2.64-.53-3.65-.28-.23-.55-.48-.81-.73-.75-.68-1.52-1.39-2.48-1.92-3.13-1.71-5.78-4.15-8.33-6.5-.77-.71-1.49-1.37-2.5-1.37s-1.69.64-2.55 1.44c-3.29 3.08-7.27 6.62-11.9 9.48-.89.55-1.84 1.61-1.97 2.74l-.08.69c-.25 2.26-.51 4.59-.32 6.92.2 2.46.76 4.87 1.29 7.21.09.4.18.81.28 1.21.95 4.22 2.19 7.49 3.92 10.28.9 1.45 1.82 2.9 2.74 4.35 1.03 1.63 2.1 3.31 3.12 4.98.32.51.64 1.03.95 1.54 1.57 2.52 3.05 4.89 4.27 7.51 1.63 3.49 2.91 7.4 4.03 12.3.39 1.72.49 3.51.6 5.42.06 1.15.13 2.33.27 3.51.41 3.53-.44 6.88-2.6 10.24-1.57 2.44-4.01 4.42-7.47 6.06-.32.15-.47.19-.54.19 0 0-.03-.03-.06-.07-2.2-2.75-2.92-6.06-2.15-9.85l.15-.75c1.06-5.16 2.15-10.5 2.21-15.99.04-3.87-.68-7.82-2.29-12.45-.36-1.04-.97-1.89-1.56-2.71-.24-.33-.46-.65-.66-.96-.28-.44-.76-.7-1.27-.7-.09 0-.19 0-.28.03l-.21.04-.19.04c-.49.09-.9.43-1.1.89-.14.33-.27.66-.4.99-.26.67-.51 1.3-.82 1.86-.64 1.16-1.33 2.33-1.99 3.46-.79 1.35-1.6 2.75-2.37 4.15-.37.67-.82 2.48.18 3.49 1.66 1.66 1.5 3.79 1.31 6.26V78c-.06.68-.14 1.35-.22 2.06-.11.98-.23 1.99-.27 3.02-.16 3.78.06 7.41.65 10.8.1.56.21 1.11.33 1.67.09.44.19.88.27 1.32.12.66.23 1.32.35 1.99l-.46.06c-.14.02-.27.03-.39.03-.52 0-.77-.15-1.03-.61-.39-.7-.82-1.37-1.24-2.01-.51-.78-.98-1.52-1.37-2.29l-.26-.51c-1.86-3.64-3.78-7.41-5.47-11.19-1.29-2.88-2.45-5.94-3.57-9.37-.82-2.52-1.55-5.14-2.25-7.67-.35-1.26-.7-2.52-1.06-3.77-.65-2.26-2.15-2.73-3.29-2.73h-.16c.11-.09.23-.18.34-.27.9-.71 1.82-1.44 2.74-2.13 3.06-2.29 5.3-5.3 7.16-7.95 1.67-2.38 2.98-5.11 4.12-8.61.77-2.36 1.12-4.85 1.1-7.84 0-1.94-.17-3.89-.47-5.79l-.05-.32c-.33-2.04-.67-4.16-1.47-6.14-1.52-3.79-3.09-7.15-4.81-10.28-1.4-2.56-3.43-5-6.2-7.46-.28-.25-.64-.38-1-.38v.02Zm-8.39 52.47c-.13-.09-.33-.27-.59-.54-.52-.53-.96-1.2-1.44-1.9-.22-.33-.44-.65-.67-.97-1.4-1.93-1.4-4.18-1.26-6.71.07-1.29 0-2.57-.06-3.8-.03-.63-.07-1.27-.08-1.9-.07-3.1-.14-6.13-.17-9.12 0-1.03.01-2.09.04-3.12.02-.86.04-1.72.04-2.58 0-2.67 1.43-4.88 2.95-7.22l.35-.54c.74-1.15 1.48-2.3 2.37-3.12.64-.58 1.59-1.02 2.52-1.44.02.01.03.02.04.03.66.61 1.31 1.22 1.7 1.85.31.51.63 1.02.95 1.53 1.66 2.65 3.23 5.15 4.06 7.96.59 2.01.91 4.11 1.26 6.34.14.9.28 1.84.45 2.78l-.51 2.07c-.46 1.87-.94 3.81-1.48 5.7-.49 1.71-1 3.37-1.75 4.81-2 3.81-4.92 7.14-8.7 9.88l-.02.01ZM74.057 6.54c.53 0 .99.39 1.66 1.18 1.7 2.01 3.44 3.98 5.05 6.06 1.96 2.54 3.97 5.07 5.66 7.79 2.74 4.41 3.87 9.35 3.19 14.48-.51 3.89-1.44 7.77-2.6 11.52-.78 2.51-2.23 4.83-3.52 7.17a75.033 75.033 0 0 1-3.85 6.29c-1.17 1.71-2.51 3.31-3.88 4.87-1.51 1.7-3.15 3.29-4.72 4.95-.19.2-.27.5-.51.96.48.07.82.16 1.15.16 1.55.02 1.97.41 2.38 1.9 1.78 6.47 4.33 12.6 7.97 18.27 2.31 3.59 5.12 6.74 8.14 9.731.27.27.59.49.87.75.35.31.67.45 1 .45.37 0 .74-.2 1.1-.58 2.84-2.97 4.21-6.46 4.03-10.62-.14-3.18.01-6.37-.04-9.55-.04-2.93-.2-5.86-.27-8.79-.05-2.07 0-4.14-.04-6.21-.05-3.16-.17-6.32-.18-9.48-.01-2.96.09-5.92.1-8.88.01-2.36-.08-4.72-.05-7.09.03-2.57.17-5.14.21-7.71.05-3.25.04-6.5.1-9.75.04-2.15.26-4.3.23-6.44-.03-1.92-.29-3.84-.46-5.75-.04-.42-.13-.83-.2-1.33.78-.44 1.51-.87 2.26-1.24 1.77-.88 3.56-1.73 5.34-2.61.32-.16.6-.24.84-.24.53 0 .85.39.91 1.19.2 2.75.49 5.51.51 8.26.03 4.91-.12 9.82-.18 14.73-.04 3.77-.07 7.53-.07 11.3 0 5.28.04 10.57.04 15.86 0 3.68-.08 7.37-.05 11.05.05 4.71.2 9.41.26 14.12.04 2.63.05 5.26-.03 7.89-.1 3.58 1.59 6.05 4.59 7.78.38.22.76.45 1.41.84-.59.25-.87.41-1.17.48-4.56 1.02-9.13 1.97-13.67 3.05-5.41 1.27-10.79 2.65-16.18 3.98-.41.1-.82.22-1.24.3-.43.09-.75.14-1.01.14-.7 0-.85-.4-1.12-1.57-.22-.94-.7-1.81-1.05-2.73-1.42-3.76-2.95-7.48-4.23-11.3-1.14-3.42-1.88-6.98-3.05-10.4-.49-1.44-1.58-2.7-2.49-3.97-1.24-1.72-2.57-3.37-3.88-5.04-.09-.12-.29-.14-.66-.31-.1.56-.26 1.01-.26 1.46 0 3.86.02 7.73.04 11.59.03 5.39.04 10.77.11 16.16.02 1.52 0 3.1.4 4.54.37 1.34 1.27 2.54 1.95 3.79.28.51.62.98 1.11 1.74-5.24 1.73-10.27 3.4-15.3 5.06-.08-.09-.16-.17-.24-.25.43-1.02.75-2.1 1.31-3.04 1.62-2.72 2.14-5.69 2.12-8.79-.05-6.02-.14-12.03-.19-18.04-.05-6.2-.07-12.41-.08-18.61 0-3 .09-6 .07-9-.03-4.8-.16-9.6-.16-14.39 0-3.09.15-6.19.2-9.28.07-4.41.12-8.81.16-13.22.02-1.91.08-3.83 0-5.73-.05-1.13-.39-2.24-.51-3.37-.04-.39.04-1.02.29-1.18 2.41-1.5 4.88-2.93 7.33-4.36.25-.14.55-.19 1.02-.36.09.6.23 1.11.24 1.63.02 1.36-.06 2.72 0 4.08.02.46.3.91.46 1.37.41-.17.87-.25 1.21-.51 2.85-2.14 5.67-4.33 8.53-6.45.65-.48 1.12-.73 1.54-.73m-11.83 51.13c.09 2.82 1.47 4.94 3.41 6.78.38.36.81.67 1.27.67.28 0 .57-.11.87-.38.65-.6 1.27-1.24 1.89-1.88 2.15-2.23 4.29-4.45 5.67-7.29 1.05-2.16 2.6-4.14 3.27-6.39 1.14-3.86 2.52-7.67 2.37-11.88-.1-2.76-.02-5.52-.61-8.24-.62-2.87-1.63-5.63-3.16-8.11-1.49-2.41-3.3-4.61-5-6.89-.71-.95-1.37-1.43-2.05-1.43-.67 0-1.36.47-2.11 1.41-1.18 1.48-2.2 3.1-3.42 4.55-1.57 1.86-2.15 4.04-2.2 6.37-.06 3.43.06 6.86.03 10.28-.04 3.85-.18 7.69-.22 11.53-.04 3.63 0 7.27 0 10.9m11.83-52.63c-.92 0-1.72.49-2.44 1.03-1.61 1.2-3.23 2.43-4.8 3.63-1.01.77-2.01 1.53-3.02 2.29 0-.45 0-.92.01-1.4 0-.61.02-1.22.01-1.83 0-.48-.09-.91-.17-1.33-.03-.16-.06-.33-.09-.5-.07-.44-.33-.82-.7-1.05-.24-.14-.51-.22-.78-.22-.16 0-.32.03-.48.08-.15.05-.27.09-.39.12-.29.09-.6.18-.92.36l-.7.41c-2.19 1.28-4.46 2.6-6.66 3.97-1.17.72-1.01 2.43-.99 2.62.06.54.16 1.06.26 1.56.12.6.23 1.17.25 1.7.06 1.44.04 2.93.02 4.37 0 .43-.01.86-.02 1.28-.05 4.33-.09 8.8-.16 13.21-.02 1.23-.06 2.45-.09 3.68-.05 1.84-.11 3.75-.11 5.64 0 2.69.04 5.42.08 8.07.03 2.11.06 4.22.08 6.33 0 1.6-.01 3.24-.03 4.82-.02 1.39-.04 2.78-.04 4.17 0 6.68.03 12.77.08 18.62.02 3.1.06 6.19.1 9.28.03 2.92.07 5.84.09 8.76.03 3.23-.58 5.78-1.91 8.01-.45.76-.75 1.55-1.04 2.31-.12.31-.23.62-.36.92-.23.54-.12 1.17.28 1.61l.12.13.11.12c.29.31.69.48 1.1.48.16 0 .32-.02.47-.08l6.01-1.99 9.3-3.07c.44-.15.79-.49.94-.92.16-.44.1-.92-.15-1.31-.18-.28-.33-.52-.48-.73-.24-.36-.43-.65-.58-.92-.2-.37-.42-.73-.64-1.09-.5-.83-.97-1.61-1.19-2.38-.31-1.12-.33-2.4-.34-3.74v-.41c-.06-4.12-.08-8.32-.1-12.38l-.02-3.77v-1.01c-.02-2.85-.04-5.7-.04-8.55.71.91 1.41 1.83 2.08 2.75.18.25.37.51.57.77.72.97 1.4 1.88 1.72 2.81.58 1.71 1.07 3.51 1.54 5.25.46 1.69.93 3.44 1.5 5.14.91 2.73 1.96 5.44 2.98 8.07.42 1.09.85 2.19 1.26 3.28.13.34.27.67.42 1 .24.54.46 1.05.57 1.54.25 1.09.63 2.73 2.58 2.73.39 0 .81-.07 1.31-.17.31-.06.61-.14.91-.22l.38-.1c1.66-.41 3.32-.82 4.98-1.24 3.67-.91 7.46-1.86 11.19-2.74 2.97-.7 6-1.36 8.94-2 1.57-.34 3.15-.69 4.72-1.04.34-.08.63-.2.93-.34.14-.06.29-.13.49-.22a1.506 1.506 0 0 0 .19-2.68l-.65-.39c-.3-.18-.53-.32-.77-.46-2.7-1.55-3.92-3.59-3.84-6.43.08-2.92.06-5.79.03-7.96-.03-2.11-.08-4.22-.12-6.33-.06-2.55-.11-5.19-.14-7.79-.02-2.16 0-4.36.02-6.49.01-1.51.03-3.03.03-4.54 0-2.54-.01-5.08-.02-7.63-.01-2.74-.02-5.49-.02-8.23 0-4.14.04-8.2.07-11.28.02-1.68.05-3.36.08-5.04.06-3.18.12-6.47.1-9.72-.01-2.15-.19-4.3-.36-6.38-.05-.66-.11-1.32-.16-1.98-.14-1.91-1.39-2.58-2.41-2.58-.47 0-.98.13-1.5.39-.84.42-1.69.83-2.53 1.24-.94.45-1.88.91-2.81 1.37-.55.27-1.08.57-1.6.86-.23.13-.47.26-.71.4-.48.26-.78.77-.78 1.32 0 .08 0 .16.02.24.03.18.06.35.08.51.04.26.09.49.11.73.05.53.1 1.07.16 1.61.14 1.39.28 2.71.3 4.03.02 1.2-.05 2.4-.11 3.66-.05.89-.1 1.81-.12 2.73-.03 1.74-.05 3.51-.06 5.22 0 1.51-.02 3.02-.04 4.53-.02 1.18-.06 2.36-.1 3.54-.05 1.37-.09 2.78-.11 4.18-.01 1.29 0 2.59.02 3.84.02 1.09.03 2.17.03 3.25 0 1.31-.03 2.62-.05 3.93-.03 1.62-.06 3.3-.05 4.96 0 1.92.05 3.86.1 5.75.03 1.25.06 2.5.08 3.75.02.95.01 1.89.01 2.84 0 1.1 0 2.25.02 3.38.03 1.29.08 2.59.13 3.88.06 1.61.12 3.27.15 4.9.02 1.28 0 2.59 0 3.86-.02 1.87-.04 3.81.04 5.73.16 3.69-1.02 6.8-3.62 9.52l-.03.03-.4-.34c-.15-.12-.29-.24-.4-.34-3.46-3.43-5.99-6.44-7.94-9.48-3.38-5.26-5.93-11.1-7.79-17.85-.43-1.56-1.09-2.41-2.24-2.78.19-.19.38-.39.57-.58 1.01-1.03 2.06-2.1 3.04-3.21 1.68-1.89 2.95-3.48 4-5.01 1.35-1.96 2.63-4.06 3.93-6.42.23-.43.47-.85.71-1.28 1.1-1.95 2.23-3.96 2.92-6.17 1.28-4.11 2.17-8.07 2.66-11.77.71-5.39-.46-10.74-3.41-15.47-1.56-2.51-3.39-4.87-5.16-7.15l-.59-.76c-1.22-1.57-2.52-3.09-3.78-4.57-.44-.51-.88-1.03-1.31-1.54-.7-.83-1.55-1.71-2.8-1.71l-.01-.01Zm-10.33 52.6v-3.35c0-2.46-.01-5.01.01-7.5.02-1.87.07-3.77.11-5.61.05-1.94.09-3.95.11-5.93.01-1.56 0-3.13-.02-4.66-.02-1.84-.04-3.75 0-5.61.04-2.26.63-3.99 1.84-5.43.72-.85 1.36-1.75 1.99-2.62.49-.69.96-1.34 1.46-1.97.62-.78.93-.84.94-.84 0 0 .29.07.85.82.45.6.9 1.19 1.36 1.79 1.23 1.61 2.51 3.28 3.57 4.99 1.34 2.16 2.33 4.73 2.97 7.64.43 1.98.48 3.99.52 6.12.01.62.03 1.24.05 1.85.13 3.38-.82 6.5-1.83 9.8-.16.53-.32 1.06-.48 1.6-.37 1.25-1.08 2.45-1.83 3.73-.46.78-.94 1.59-1.35 2.44-1.28 2.64-3.38 4.8-5.4 6.9l-.05.06c-.57.59-1.1 1.14-1.66 1.66-.05-.04-.12-.09-.2-.17-1.97-1.86-2.87-3.63-2.94-5.72l-.02.01ZM478.068 6.54c.31 0 .639.22 1.049.65 2.49 2.6 5.02 5.15 7.53 7.73 2.45 2.52 4.751 5.25 5.641 8.66.64 2.45.529 5.11.619 7.68.07 2.2-.05 4.4-.08 6.6-.04 3.43-.08 6.87-.08 10.31 0 2.88.061 5.77.071 8.65.02 4.16.009 8.31.039 12.47.03 4.84.13 9.68.13 14.51 0 4.68-.12 9.35-.14 14.03-.03 5.739-.09 11.479.02 17.209.07 3.56.16 7.16.75 10.66.75 4.47 1.971 8.86 3.081 13.27.51 2.01 1.24 3.97 1.84 5.96.09.29.039.62.059 1.07-.41-.11-.679-.11-.869-.24-1.84-1.3-3.64-2.66-5.5-3.93-2.25-1.53-4.541-2.99-6.821-4.47-1.99-1.3-3.99-2.58-5.97-3.89-.26-.18-.46-.47-.73-.76.68-.8 1.47-1.45 1.89-2.29.83-1.69 1.57-3.45 2.12-5.25.23-.74-.17-1.23-.76-1.23-.22 0-.46.07-.71.21-3.77 2.18-8 2.45-12.16 3.01-.16.02-.3.03-.43.03-.75 0-1.12-.36-1.29-1.29-.41-2.25-.86-4.5-1.53-6.68-.65-2.09-1.51-4.13-2.43-6.11-3.08-6.64-4.709-13.61-4.339-20.92.19-3.8.649-7.6 1.989-11.24.83-2.25 1.281-4.65 2.171-6.87.75-1.86 1.859-3.58 2.859-5.33.82-1.44 1.621-2.89 2.581-4.23 1.4-1.95 2.829-3.9 4.439-5.69 2.01-2.24 4.38-4.17 6.3-6.48 2.55-3.07 4.72-6.34 4.33-10.75-.33-3.7-.16-7.43-.33-11.14-.16-3.37-1.419-6.28-3.739-8.81-1.68-1.83-3.111-3.9-4.651-5.86-.18-.23-.34-.5-.55-.69-.44-.4-.8-.61-1.12-.61-.37 0-.679.29-.959.92-.99 2.22-1.431 4.57-1.151 7.04.37 3.24.691 6.49 1.021 9.74.15 1.52-.911 3.02-2.331 3.96-1.71 1.12-3.269 2.47-4.889 3.72-.28.22-.531.48-.791.72-.1-.06-.199-.11-.299-.17 0-1-.071-2.01.009-3 .31-3.87.331-7.71-.889-11.46-.09-.28-.28-.52-.4-.79-.74-1.61-.621-2.39.639-3.66 3.72-3.72 7.471-7.41 11.171-11.15.92-.93 1.72-1.99 2.53-3.03.41-.52.729-.78 1.069-.78m.32 112.87s.07 0 .1-.01c.16-.06.321-.12.451-.22 2.13-1.58 3.659-3.64 4.039-6.24.44-3.01.62-6.07.67-9.11.12-7.86.091-15.71.161-23.57.06-6.66.199-13.32.259-19.98.02-1.67-.14-3.35-.21-5.03-.13-.05-.259-.1-.389-.16-.26.19-.531.35-.761.56-.84.78-1.65 1.59-2.48 2.38-2.23 2.12-4.509 4.2-6.699 6.37-2.7 2.67-4.18 6.01-5.34 9.58-1.16 3.57-1.651 7.19-1.451 10.9.19 3.52.881 6.94 1.731 10.38 1.29 5.25 4.05 9.76 6.44 14.48.72 1.43 1.629 2.77 2.299 4.22.62 1.35 1.04 2.78.68 4.33-.08.34.1.75.16 1.11h.34m-.32-114.37c-1.06 0-1.76.72-2.25 1.35l-.27.35c-.71.92-1.39 1.78-2.15 2.55-2.28 2.31-4.63 4.63-6.89 6.89-1.43 1.42-2.85 2.83-4.27 4.26-1.7 1.7-1.96 3.15-.95 5.35.07.15.15.29.23.43.04.07.081.13.111.2 1.2 3.67 1.089 7.55.819 10.87-.06.76-.05 1.5-.03 2.21 0 .3.01.61.01.91 0 .57.32 1.08.81 1.33l.13.08.101.06c.24.14.499.21.759.21.37 0 .741-.14 1.021-.4.09-.08.179-.17.259-.25.15-.15.29-.29.42-.38.46-.36.91-.72 1.36-1.08 1.17-.93 2.27-1.81 3.44-2.58 2.04-1.35 3.191-3.4 2.991-5.36l-.131-1.28c-.28-2.78-.57-5.65-.89-8.48-.22-1.97.07-3.95.87-5.88.01.01.02.03.03.04.07.1.14.2.22.29.46.59.921 1.19 1.371 1.79 1.05 1.39 2.129 2.83 3.349 4.15 2.11 2.31 3.21 4.88 3.35 7.87.07 1.49.08 3.02.1 4.5.02 2.19.04 4.46.24 6.7.32 3.64-1.29 6.39-3.99 9.66-1.02 1.22-2.16 2.33-3.38 3.51-.96.93-1.96 1.89-2.88 2.92-1.7 1.88-3.18 3.91-4.55 5.82-.91 1.28-1.69 2.64-2.44 3.95l-.23.41c-.22.39-.45.79-.69 1.18-.81 1.38-1.639 2.8-2.259 4.34-.51 1.27-.881 2.58-1.231 3.84-.3 1.07-.589 2.08-.949 3.07-1.55 4.18-1.931 8.44-2.081 11.68-.35 7.17 1.151 14.45 4.481 21.63 1.1 2.37 1.829 4.2 2.359 5.93.66 2.14 1.101 4.39 1.491 6.51.4 2.2 1.909 2.52 2.769 2.52.2 0 .401-.01.631-.05l1.649-.21c3.3-.41 6.7-.84 9.9-2.37-.43 1.2-.97 2.44-1.59 3.71-.18.37-.56.77-.97 1.2-.24.25-.49.51-.72.79a1.5 1.5 0 0 0 .06 2c.07.08.141.15.201.22.19.23.439.52.789.75 1.37.9 2.74 1.79 4.11 2.68l1.87 1.22 1.71 1.11c1.68 1.08 3.41 2.21 5.08 3.34 1.11.76 2.23 1.57 3.31 2.35.72.52 1.44 1.05 2.17 1.56.38.27.77.35 1.05.4.09.02.181.04.291.07.13.03.259.05.389.05.34 0 .67-.11.94-.33.37-.3.58-.76.56-1.23v-.34c0-.32 0-.69-.12-1.1-.22-.74-.46-1.46-.7-2.19-.42-1.27-.81-2.47-1.12-3.7-.21-.84-.429-1.68-.639-2.52-.89-3.48-1.821-7.07-2.411-10.63-.58-3.46-.66-7.17-.73-10.44-.09-4.68-.07-9.45-.04-14.06l.02-3.12c.01-2.08.041-4.17.071-6.25.04-2.55.069-5.19.069-7.79 0-2.98-.029-6.01-.069-8.95l-.061-5.58c-.02-2.37-.02-4.74-.03-7.11 0-1.79 0-3.57-.02-5.36 0-1.21-.02-2.42-.03-3.63-.02-1.67-.04-3.34-.04-5.01 0-2.85.04-5.75.07-8.55l.02-1.74c0-.74.03-1.49.05-2.23.04-1.45.08-2.95.03-4.44-.02-.53-.03-1.07-.04-1.61-.04-2.11-.07-4.3-.63-6.41-.99-3.78-3.469-6.71-6.009-9.32-.82-.84-1.65-1.68-2.47-2.53-1.66-1.7-3.381-3.45-5.051-5.2-.5-.52-1.19-1.11-2.13-1.11v-.01Zm1.45 111.65c-.08-1.34-.54-2.51-.94-3.36-.4-.87-.88-1.7-1.34-2.49-.35-.61-.689-1.19-.989-1.78-.49-.98-1.001-1.95-1.511-2.91-1.97-3.73-3.82-7.26-4.81-11.25-.68-2.75-1.48-6.39-1.69-10.1-.19-3.48.27-6.96 1.38-10.36.96-2.96 2.31-6.35 4.97-8.97 1.47-1.45 3.01-2.89 4.49-4.29a212.125 212.125 0 0 0 3.43-3.27c.04.8.07 1.57.07 2.35-.03 3.32-.08 6.65-.13 9.97-.05 3.34-.1 6.67-.13 10.01-.03 3.18-.04 6.36-.05 9.54-.02 4.6-.029 9.35-.109 14.02-.05 3.33-.261 6.25-.651 8.92-.21 1.46-.88 2.78-1.99 3.97ZM223.947 4.87c.24 0 .5.14.76.35.93.75 1.81 1.58 2.83 2.17 2.19 1.27 4.48 2.37 6.67 3.63 1.23.71 2.38 1.58 3.49 2.49.22.18.24.95.05 1.26-1.29 2.15-2.62 4.27-4.04 6.33-.09.12-.41.19-.73.19-.27 0-.54-.05-.64-.16-3.37-3.56-8.06-4.97-12.09-7.44-.29-.18-.56-.27-.8-.27-.5 0-.87.36-1.09 1.01-1.57 4.53-3.18 9.04-4.67 13.59-1.44 4.38-1.99 8.94-2.39 13.52-.1 1.1.57 1.33 1.41 1.35 1.92.05 3.83.09 5.75.09h1.18c2.23-.03 4.47-.07 6.69-.26 1.25-.1 2.48-.51 3.71-.79.56-.13 1.11-.28 2-.51h.02c-.86 1.06-1.52 1.82-2.12 2.62-1.33 1.77-2.64 3.54-3.92 5.33-.27.38-.54.49-.86.49-.2 0-.42-.04-.67-.09-1.64-.3-3.32-.54-4.98-.56h-.34c-2.12 0-4.24.22-6.37.28-1.29.04-1.52.39-1.46 1.69.19 4.53 1.13 8.93 2.49 13.22 1.46 4.62 3.34 9.04 6.4 12.92 1.81 2.3 4.12 3.48 6.68 3.48.49 0 .99-.04 1.5-.13 4.23-.74 7.94-3.97 6.28-9.37-.02-.07.02-.16.05-.37.21-.07.48-.23.74-.23 2.29 0 4.58.02 6.87.04.78 0 .95.49.78 1.12a14.77 14.77 0 0 1-3.14 5.91c-1.81 2.1-4.47 2.28-6.81 3.19-4.66 1.8-9.06 4.01-12.72 7.51-.52.5-1.02 1.14-1.65 1.37-.2.07-.44.11-.69.11-.45 0-.92-.11-1.23-.33-.75-.51-1.36-1.29-1.9-2.04-1.28-1.79-2.53-3.6-3.7-5.45-.9-1.43-1.67-2.95-2.47-4.45-.41-.77-1.22-1.08-2.08-1.08-.9 0-1.85.34-2.44.84-1.03.89-1.86 2.07-2.59 3.24-2.84 4.57-6.29 8.34-11.91 9.35-.6.11-1.2.16-1.79.16-1.69 0-3.33-.4-4.96-.96-4.4-1.52-7.57-4.47-10.21-8.23-2.27-3.24-3.92-6.76-5.24-10.41-1.15-3.17-1.96-6.48-2.68-9.78-.46-2.13-.64-4.36-.65-6.55-.02-3.11.39-6.22.34-9.33-.09-5.13 1.88-9.79 3.1-14.62.3-1.18 1.16-2.22 1.77-3.31.89-1.59 1.7-3.23 2.73-4.72.7-1.01 1.62-1.96 2.62-2.67 2.59-1.85 4.77-4.06 6.64-6.62.85-1.17 1.79-2.27 2.63-3.44.58-.83 1.09-1.71 1.57-2.6.29-.54.6-.84 1.04-.84.23 0 .49.08.8.26 2.15 1.2 4.47 2.15 6.5 3.52 2.13 1.43 4.07 3.18 5.98 4.92.43.39.7 1.41.52 1.95-.8 2.39-2.31 4.38-3.97 6.36-.81-.85-1.56-1.59-2.26-2.38-1.89-2.12-4.42-3.24-6.85-4.53-.71-.37-1.33-.92-2.03-1.32-.53-.31-.95-.48-1.31-.48-.49 0-.87.31-1.26 1-1.39 2.42-2.76 4.87-3.87 7.43-1.23 2.84-2.33 5.76-3.17 8.73-.89 3.13-1.6 6.34-2.02 9.56-.39 2.96-.54 6-.36 8.97.24 3.79.82 7.58 1.45 11.34.71 4.22 2.21 8.22 4.42 11.86 2.61 4.29 5.73 8.17 10.85 9.69.87.26 1.7.39 2.51.39 2 0 3.79-.82 5.31-2.59 1.45-1.69 1.61-3.6 1.1-5.63-.38-1.52-.06-2.03 1.54-2.05.76 0 1.51-.01 2.29-.01h3.81c-.46-1.72-.83-3.05-1.15-4.39-.66-2.73-1.42-5.45-1.91-8.22-.74-4.13-.98-8.33-.65-12.52.36-4.64.91-9.27 1.35-13.91.44-4.63 2.13-8.89 3.85-13.14.15-.36.45-.74.79-.94 3.74-2.2 6.66-5.29 9.55-8.46 1.78-1.95 3.64-3.81 4.87-6.19.17-.33.38-.47.62-.47m0-1.5c-.83 0-1.54.47-1.96 1.28-.97 1.89-2.41 3.45-3.93 5.1-.24.25-.47.51-.7.76-2.99 3.27-5.74 6.14-9.2 8.17-.61.36-1.15.98-1.42 1.67-1.63 4.04-3.48 8.62-3.95 13.56-.16 1.68-.33 3.36-.51 5.03-.3 2.91-.61 5.92-.85 8.9-.33 4.21-.1 8.55.67 12.9.37 2.08.89 4.15 1.39 6.14.18.72.36 1.44.54 2.17.2.83.41 1.63.66 2.53h-4.16c-.89.01-1.99.14-2.68 1.03-.69.89-.52 2.01-.3 2.88.46 1.8.22 3.13-.78 4.29-1.19 1.39-2.56 2.07-4.17 2.07-.65 0-1.35-.11-2.08-.33-4.84-1.44-7.77-5.37-9.99-9.03-2.12-3.5-3.54-7.31-4.22-11.33-.6-3.58-1.19-7.42-1.43-11.18-.17-2.72-.05-5.64.35-8.68.38-2.94 1.05-6.08 1.97-9.35.76-2.68 1.78-5.48 3.11-8.54 1.07-2.48 2.41-4.86 3.8-7.28.04-.08.08-.14.11-.18.09.04.22.11.41.21.26.15.53.34.81.54.39.28.8.56 1.27.81.33.17.66.35 1 .52 2.05 1.06 3.99 2.06 5.44 3.68.49.55.99 1.06 1.52 1.61l.78.81c.28.3.68.47 1.09.47h.05c.43-.01.83-.21 1.1-.53 1.94-2.3 3.4-4.35 4.24-6.84.38-1.12-.05-2.74-.93-3.54-1.83-1.66-3.89-3.54-6.15-5.06-1.35-.91-2.8-1.63-4.21-2.34-.8-.4-1.62-.81-2.4-1.25-.54-.3-1.04-.45-1.53-.45-.98 0-1.77.54-2.35 1.62-.52.95-.97 1.73-1.48 2.45-.43.6-.88 1.18-1.37 1.8-.41.53-.84 1.07-1.25 1.63-1.84 2.52-3.9 4.57-6.3 6.28a12.52 12.52 0 0 0-2.99 3.04c-.8 1.16-1.46 2.38-2.11 3.57-.23.42-.46.85-.7 1.27-.17.3-.36.6-.55.9-.51.8-1.09 1.72-1.36 2.77-.32 1.26-.7 2.55-1.07 3.8-1.05 3.55-2.14 7.23-2.07 11.22.03 1.57-.06 3.12-.16 4.77-.09 1.48-.18 3.01-.17 4.54.01 2.51.24 4.82.68 6.86.65 3.01 1.48 6.54 2.73 9.98 1.53 4.22 3.31 7.74 5.43 10.76 3.15 4.51 6.63 7.3 10.95 8.79 2.06.71 3.79 1.05 5.45 1.05.7 0 1.39-.06 2.06-.18 6.67-1.2 10.41-5.99 12.92-10.03.58-.92 1.36-2.09 2.3-2.89.28-.24.87-.48 1.46-.48.23 0 .63.04.76.29l.36.67c.67 1.28 1.37 2.6 2.17 3.87 1.02 1.63 2.18 3.34 3.75 5.53.62.87 1.33 1.76 2.27 2.41.54.37 1.3.59 2.08.59.43 0 .83-.06 1.19-.19.82-.29 1.4-.89 1.87-1.37.11-.11.21-.22.32-.32 3-2.87 6.77-5.09 12.22-7.19.58-.22 1.19-.4 1.84-.59 1.85-.54 3.95-1.16 5.56-3.01a16.33 16.33 0 0 0 3.46-6.5c.28-1.05-.03-1.74-.33-2.14-.24-.32-.81-.85-1.89-.86h-.7c-2.06-.02-4.12-.04-6.18-.04-.49 0-.88.17-1.12.27-.03.01-.06.03-.09.04-.51.19-.92.65-1.01 1.19a.2.2 0 0 1-.02.09c-.04.17-.12.54.02.97.54 1.76.43 3.31-.35 4.57-.89 1.45-2.62 2.49-4.76 2.87-.42.07-.84.11-1.24.11-2.1 0-4-1.01-5.5-2.91-2.56-3.25-4.46-7.08-6.15-12.44-1.46-4.62-2.25-8.81-2.42-12.84v-.13h.01c.89-.03 1.79-.08 2.65-.13 1.21-.07 2.46-.15 3.66-.15h.33c1.65.02 3.32.29 4.73.54.31.06.61.11.94.11.86 0 1.56-.37 2.09-1.11 1.11-1.55 2.35-3.24 3.9-5.3.38-.51.79-1.01 1.28-1.59.25-.3.52-.63.81-.99.39-.48.44-1.16.13-1.7-.27-.47-.77-.75-1.3-.75-.08 0-.16 0-.25.02-.04 0-.1.02-.14.03l-.75.2c-.47.12-.84.22-1.21.3-.37.09-.75.18-1.12.28-.83.21-1.62.42-2.38.48-2.06.17-4.12.23-6.58.26h-1.17c-1.87 0-3.79-.05-5.64-.09.43-4.87 1-8.94 2.3-12.9 1.14-3.45 2.36-6.94 3.54-10.32.36-1.02.71-2.04 1.06-3.05 1.32.8 2.7 1.48 4.04 2.15 2.8 1.39 5.44 2.71 7.5 4.9.39.42.98.63 1.73.63.63 0 1.48-.15 1.96-.84 1.32-1.92 2.66-4.02 4.1-6.42.47-.78.56-2.42-.38-3.2-1.41-1.16-2.55-1.97-3.69-2.63-1.11-.64-2.25-1.24-3.35-1.82-1.1-.58-2.24-1.18-3.32-1.81-.64-.37-1.25-.88-1.89-1.43-.25-.21-.5-.42-.75-.62-.56-.45-1.13-.68-1.7-.68l-.06-.05ZM32.767 3.46c.32 0 .75.14.88.33 1.44 2.04 2.79 4.14 4.18 6.21 1.28 1.9 2.56 3.79 3.88 5.66 2.53 3.58 4.24 7.49 5.17 11.78.83 3.79.98 7.62.99 11.49.02 5.94-1.22 11.64-2.95 17.24-1.1 3.57-2.59 7.02-4.82 10.08-2 2.73-3.91 5.54-6.04 8.16-.97 1.19-2.3 2.16-3.63 2.96-2.05 1.24-4.24 2.24-6.36 3.37-.26.14-.49.2-.7.2-.45 0-.81-.26-1.22-.63-1.38-1.25-2.8-2.44-4.24-3.62-.21-.17-.62-.35-.85-.35-.06 0-.11.01-.14.04-.27.21-.48.7-.47 1.07.09 3.77.25 7.54.33 11.3.06 2.89.06 5.77.06 8.66 0 5.701 0 11.391-.01 17.091v6.77c.01 2.51.44 4.87 2.66 6.46.77.56 1.68.93 2.88 1.59-5.46 3.29-10.67 6.44-15.89 9.59l-.2-.26c.41-1.36.7-2.77 1.26-4.07.91-2.12.67-4.34.73-6.52.12-4.45.13-8.89.11-13.34-.01-3.85-.14-7.7-.19-11.55-.05-4.37-.05-8.74-.09-13.11-.04-3.25-.14-6.5-.17-9.75-.03-3.2.04-6.39 0-9.59-.06-5.59-.22-11.19-.22-16.78 0-4.07.22-8.14.26-12.22.03-3.21-.08-6.43-.11-9.64-.03-3.48.01-6.96-.04-10.44-.04-2.66-.66-5.12-2.89-6.87-.46-.36-.98-.65-1.49-.95-.52-.31-1.07-.59-1.94-1.06 5.02-2.93 9.05-6.84 14.74-8.36.38 4.21-.38 8.33.4 12.33.16.06.33.13.49.19 1.21-1.09 2.44-2.16 3.63-3.28 2.9-2.74 5.74-5.54 8.69-8.23.86-.79 1.97-1.34 3.02-1.88.07-.04.17-.05.29-.05m-9.95 73.31c.31 0 .66-.13 1.05-.45 3.74-3.09 6.9-6.7 9.29-10.89 2.47-4.33 3.96-9.07 4.85-13.97.48-2.62.73-5.29.96-7.95.16-1.84.23-3.72.09-5.56-.19-2.52-.46-5.06-.97-7.54-.73-3.56-1.31-7.19-3.18-10.42-.83-1.43-1.44-2.99-2.37-4.33-1.25-1.81-2.7-3.49-4.11-5.19-.25-.3-.57-.56-.92-.56-.2 0-.41.09-.62.31-2.12 2.25-4.49 4.35-6.22 6.87-1.58 2.31-2.52 5.09-3.63 7.7-.48 1.12-.88 2.36-.95 3.56-.13 2.18.05 4.38.05 6.57.01 4.82 0 9.63-.01 14.45v16.14s-.06.02-.1.02c.19 1.08.27 2.19.59 3.23.87 2.83 2.61 5.12 4.7 7.15.43.42.9.86 1.48.86M1.497 12.74h.01Zm31.27-10.78c-.36 0-.69.07-.98.22l-.09.05c-1.06.54-2.26 1.16-3.25 2.06-1.89 1.73-3.77 3.53-5.58 5.26-1.04 1-2.08 1.99-3.12 2.98-.62.58-1.26 1.16-1.9 1.73-.1-1.46-.07-2.97-.03-4.53.04-1.77.09-3.61-.08-5.48-.04-.44-.27-.84-.63-1.1-.25-.18-.55-.27-.86-.27-.13 0-.26.02-.39.05-4.12 1.11-7.42 3.38-10.6 5.58-1.42.98-2.88 1.99-4.4 2.88-.09.04-.18.1-.27.16-.47.36-.69.97-.54 1.55.11.47.44.85.87 1.03l.61.33c.45.24.81.43 1.15.63l.26.15c.39.23.76.44 1.06.68 1.56 1.22 2.27 2.98 2.31 5.71.03 2.05.03 4.15.03 6.17 0 1.42 0 2.84.01 4.25 0 1.22.03 2.44.05 3.66.04 1.96.07 3.98.05 5.96-.02 1.82-.07 3.68-.13 5.48-.07 2.21-.14 4.49-.14 6.75 0 3.39.06 6.83.12 10.16.04 2.21.08 4.42.1 6.64.02 1.63 0 3.29 0 4.9 0 1.54-.02 3.12 0 4.69.01 1.74.05 3.51.09 5.22.03 1.51.06 3.02.08 4.53.02 2.07.03 4.15.04 6.22.01 2.3.02 4.6.05 6.9.02 1.64.05 3.28.09 4.92.05 2.17.09 4.42.1 6.62.01 3.97.01 8.65-.11 13.3-.01.47-.01.93 0 1.4 0 1.63 0 3.17-.59 4.57-.43 1-.71 2.02-.97 3.01-.11.41-.22.82-.34 1.22-.14.47-.04.97.26 1.36l.2.26c.29.37.73.58 1.18.58.27 0 .53-.07.77-.22l11.69-7.06 4.2-2.53c.46-.28.74-.78.72-1.32a1.48 1.48 0 0 0-.78-1.28c-.42-.23-.81-.43-1.17-.61-.64-.32-1.14-.58-1.56-.88-1.43-1.02-2.02-2.54-2.03-5.24v-24.44c0-2.65 0-5.39-.06-8.09-.04-1.89-.11-3.78-.17-5.67-.05-1.45-.1-2.91-.13-4.36 1.22 1.02 2.23 1.88 3.16 2.73.56.5 1.26 1.01 2.22 1.01.47 0 .94-.13 1.4-.37.73-.39 1.47-.76 2.21-1.14 1.4-.71 2.84-1.43 4.22-2.27 1.76-1.07 3.08-2.15 4.02-3.3 1.58-1.94 3.05-3.99 4.47-5.97l1.62-2.25c2.1-2.88 3.75-6.32 5.04-10.52 2.07-6.73 3.03-12.35 3.02-17.69-.01-3.75-.15-7.77-1.03-11.81-.98-4.48-2.8-8.62-5.42-12.32-1.31-1.86-2.57-3.73-3.86-5.63-.48-.71-.95-1.42-1.42-2.13-.9-1.35-1.82-2.75-2.78-4.11-.5-.71-1.44-.96-2.1-.96l.04-.01Zm-15.16 63.87c.02-.1.03-.21.03-.31V44.3c0-3.12.01-6.25 0-9.37 0-.81-.03-1.63-.05-2.41-.04-1.41-.08-2.73 0-4.06.05-.85.32-1.85.83-3.06.25-.59.49-1.19.73-1.78.83-2.05 1.61-3.99 2.75-5.66 1.17-1.71 2.67-3.22 4.25-4.81.45-.46.91-.92 1.37-1.4l.45.54c1.14 1.37 2.33 2.79 3.34 4.25.5.72.91 1.54 1.34 2.41.3.6.61 1.22.96 1.82 1.56 2.69 2.15 5.7 2.79 8.88l.22 1.09c.43 2.09.72 4.43.94 7.35.11 1.54.08 3.23-.09 5.32-.21 2.51-.46 5.19-.94 7.81-.95 5.25-2.48 9.66-4.67 13.5-2.21 3.88-5.22 7.4-8.95 10.47-.03.03-.06.05-.09.07-.14-.1-.34-.29-.45-.4-2.24-2.17-3.61-4.24-4.31-6.51-.19-.6-.28-1.28-.38-1.99-.02-.17-.05-.34-.07-.51v-.02Z" class="Vector"/>
    <path fill="#C18523" d="M143.567 4.67c.32 0 .62.16.94.47 3.39 3.26 6.85 6.45 10.13 9.82 2.37 2.44 3.75 5.54 4.08 8.88.34 3.51.52 7.06-.59 10.55-.41 1.3-.3 2.77-.33 4.17-.12 4.53-.26 9.05-.3 13.58-.02 2.07.23 4.14.24 6.21.02 3.08-.11 6.17-.11 9.25s.1 6.18.13 9.27c.02 1.95.02 3.91-.03 5.86-.06 3.13.31 6.11 2.57 8.54.17.18.28.41.4.63.03.06 0 .16-.02.46-.77.19-1.6.47-2.45.59-3.2.43-6.4.81-9.6 1.2-.19.02-.36.04-.52.04-.86 0-1.08-.39-.7-1.41 1.58-4.29 1.04-8.73 1.05-13.12 0-4.22-.31-8.44-.36-12.66-.06-4.63.02-9.26.07-13.89.03-2.15.16-4.3.2-6.46.03-1.69.04-3.38-.03-5.06-.14-3.22.58-6.26 1.52-9.32.84-2.74.95-5.57-.22-8.32-.53-1.24-.94-2.55-1.55-3.75-1.67-3.26-3.78-6.22-6.54-8.68-.73-.66-1.33-1-1.93-1-.54 0-1.09.28-1.75.85-1.34 1.17-2.65 2.43-3.74 3.82-2.4 3.06-4.3 6.42-5.38 10.18-.16.56-.28 1.16-.29 1.74-.12 4.4-.25 8.81-.3 13.21-.03 3.05.09 6.09.09 9.14 0 3.17-.08 6.35-.06 9.52.03 3.6.17 7.2.19 10.8.02 3.3-.1 6.61-.06 9.92.03 3.01.06 6.03.34 9.02.21 2.15 1.26 4.01 2.99 5.44.57.47.98 1.14 1.44 1.69-.65.71-16.35 3.64-19.27 3.64-.13 0-.24 0-.32-.02.8-.8 1.53-1.46 2.18-2.19 2.27-2.54 3.78-5.37 3.72-8.91-.07-3.65.05-7.3.03-10.95-.03-4.29-.15-8.57-.2-12.86-.05-3.46-.08-6.91-.08-10.37 0-3 .05-6.01.06-9.01 0-2.29-.04-4.57-.02-6.86.02-2.97.08-5.93.1-8.9.01-1.48-.03-2.96-.04-4.44-.03-3.51-.05-7.03-.08-10.54 0-.42 0-.86-.1-1.26-.48-1.86-.4-2.04 1.26-2.89 2.07-1.06 4.11-2.2 6.19-3.23.32-.16.58-.24.79-.24.46 0 .66.41.7 1.24.11 2.28.22 4.56.38 6.84.03.4.28.77.44 1.2h.01c.31-.14.48-.16.53-.25 2.01-3.21 5.44-4.63 8.34-6.73 1.72-1.24 3.34-2.61 4.95-4 .34-.3.65-.44.94-.44m0-1.5c-.66 0-1.31.27-1.92.8-1.77 1.53-3.27 2.78-4.85 3.92-.75.55-1.55 1.04-2.38 1.57-1.62 1.02-3.28 2.06-4.69 3.49-.1-1.72-.19-3.44-.26-4.97-.11-2.41-1.57-2.67-2.2-2.67-.45 0-.91.13-1.46.4-1.24.61-2.48 1.27-3.67 1.91-.84.45-1.69.9-2.54 1.33-2.28 1.17-2.68 2.08-2.02 4.61.05.18.05.48.05.76v.13c.02 2.27.04 4.54.05 6.81l.03 3.74c0 .57.01 1.14.02 1.71.01.9.03 1.81.02 2.71 0 1.44-.03 2.89-.05 4.33-.02 1.52-.04 3.05-.05 4.57 0 1.2 0 2.4.01 3.61 0 1.09.02 2.17.01 3.26 0 1.34-.02 2.67-.03 4.01-.02 1.67-.03 3.34-.03 5 0 3.12.03 6.42.09 10.38.02 1.79.06 3.59.09 5.38.05 2.45.09 4.98.11 7.47.01 1.58 0 3.2-.02 4.76-.02 2.03-.04 4.13 0 6.21.05 2.78-1.01 5.28-3.34 7.89-.4.45-.85.89-1.33 1.35-.26.25-.52.5-.79.78-.4.4-.54.99-.37 1.52.17.54.63.93 1.19 1.02.16.03.34.04.56.04 1.74 0 6.89-.85 10.77-1.58 8.8-1.65 9.27-2.17 9.61-2.55.5-.55.52-1.39.04-1.97-.13-.15-.25-.32-.38-.48-.34-.46-.73-.97-1.26-1.41-1.46-1.2-2.28-2.69-2.45-4.43-.27-2.82-.3-5.74-.33-8.57v-.33c-.02-1.72 0-3.47.02-5.17.02-1.55.04-3.16.03-4.74-.01-1.85-.06-3.73-.1-5.54-.04-1.73-.08-3.51-.1-5.26-.01-1.68 0-3.4.03-5.07.02-1.48.03-2.96.03-4.44 0-1.32-.03-2.64-.05-3.96-.03-1.7-.06-3.45-.04-5.17.04-3.93.15-7.92.26-11.79l.04-1.4c.01-.4.09-.86.24-1.37.97-3.35 2.64-6.51 5.12-9.67.9-1.14 2.02-2.29 3.55-3.62.55-.48.76-.49.77-.49.02 0 .26.02.93.62 2.45 2.18 4.48 4.88 6.2 8.24.35.69.64 1.43.94 2.21.18.48.37.96.57 1.43.94 2.21 1 4.59.17 7.29-.87 2.84-1.74 6.22-1.58 9.82.08 1.74.06 3.49.03 4.97-.02.99-.06 1.97-.1 2.96-.05 1.14-.09 2.33-.11 3.5l-.02 1.64c-.05 4.02-.1 8.18-.05 12.28.02 1.92.1 3.87.18 5.75.09 2.26.19 4.61.18 6.89 0 .93.02 1.86.04 2.76.08 3.45.16 6.71-.99 9.84-.14.39-.57 1.56.1 2.52.29.41.87.91 2.01.91.21 0 .44-.02.7-.05l.93-.11c2.85-.34 5.79-.7 8.69-1.09.69-.09 1.35-.27 1.92-.43.23-.06.46-.13.69-.18.64-.16 1.1-.7 1.14-1.36 0-.08.01-.14.02-.18.03-.2.08-.63-.17-1.08l-.04-.07c-.13-.24-.3-.58-.59-.88-1.99-2.14-2.22-4.86-2.17-7.48.04-1.79.05-3.73.03-5.9-.01-1.3-.04-2.59-.06-3.89-.03-1.76-.07-3.58-.07-5.36 0-1.44.03-2.91.06-4.33.03-1.61.06-3.28.05-4.92 0-1.02-.06-2.04-.12-3.03-.06-1.09-.13-2.12-.12-3.16.04-4.27.16-8.62.28-12.83l.02-.72c0-.33.01-.66.01-1 0-1.02 0-1.98.25-2.76 1.23-3.87.98-7.78.66-11.15-.36-3.75-1.92-7.13-4.49-9.78-2.34-2.4-4.8-4.75-7.18-7.01-.99-.94-1.99-1.89-2.98-2.84-.61-.59-1.28-.89-1.98-.89l-.01.03ZM301.796 2.02c.35 0 .7.22 1.18.68 2.48 2.42 4.86 4.91 6.97 7.71 3.01 4 5.15 8.35 6.52 13.12.88 3.07 1.15 6.17.44 9.32-.63 2.81-1.22 5.62-1.89 8.42-.21.85-.54 1.71-.99 2.46-1.36 2.25-2.69 4.53-4.26 6.63-1.54 2.05-3.22 4.03-5.08 5.8-2.16 2.04-4.73 3.58-7.52 4.66-.08.03-.17.04-.26.04-.34 0-.76-.16-1.04-.34-1.2-.72-2.35-1.53-3.52-2.3-.25-.16-.48-.36-.75-.48-.42-.19-.78-.28-1.07-.28-.7 0-1.03.54-1.04 1.63-.05 5.34-.16 10.68-.15 16.02 0 2.65-.31 5.4 1.38 7.76.39.55.85 1.05 1.3 1.55.99 1.13.9 1.77-.46 2.46-1.1.55-2.24 1.02-3.35 1.56-2.52 1.21-5.02 2.44-7.54 3.64-.55.26-1.16.41-2.11.74.23-.9.27-1.49.52-1.97 1.92-3.7 2.14-7.69 2.07-11.74-.03-1.77-.04-3.54-.06-5.31-.03-2.61-.11-5.23-.08-7.85.03-3.12.18-6.24.21-9.36.02-1.99-.1-3.99-.1-5.98 0-2.79.06-5.58.08-8.37.02-2.2.04-4.41.04-6.61 0-3.52-.04-7.03-.04-10.55 0-2.33 0-4.67.1-7 .1-2.54-.44-4.81-2.38-6.6-.12-.11-.18-.28-.43-.7 1.89-1.55 3.71-3.06 5.56-4.54.83-.66 1.69-1.31 2.6-1.85.41-.25.75-.37 1.03-.37.5 0 .81.4.93 1.24.2 1.42.14 2.87.24 4.31.07.93.23 1.84.36 2.77.15.03.3.05.45.08.44-.42.85-.87 1.32-1.26 2.28-1.9 4.59-3.76 6.85-5.68.97-.82 1.85-1.74 2.73-2.65.51-.53.89-.81 1.27-.81m-11.99 45.04c-.47 2.65.25 4.82 2 6.67 1.17 1.24 2.06 2.09 3.12 2.09.26 0 .54-.05.83-.17.82-.32 1.64-.72 2.34-1.24 2-1.5 3.84-3.12 5.49-5.08 2.35-2.79 3.56-6.01 4.33-9.37.97-4.23.9-8.56.18-12.88-.61-3.67-1.64-7.17-3.53-10.36-1.46-2.48-3.06-4.88-4.63-7.3-.39-.59-.76-.89-1.13-.89-.39 0-.78.32-1.16.96-.29.47-.54.99-.92 1.37-2.53 2.54-4.46 5.48-5.54 8.88-.72 2.29-1.32 4.69-1.48 7.07-.22 3.12.07 6.27.1 9.41.03 3.65 0 7.3 0 10.83M301.796.52c-1 0-1.72.61-2.35 1.26-.91.95-1.73 1.79-2.62 2.55-1.38 1.17-2.8 2.34-4.18 3.47-.77.63-1.54 1.27-2.31 1.91 0-.08-.02-.17-.02-.25-.04-.52-.05-1.05-.07-1.61-.02-.91-.05-1.85-.18-2.8-.34-2.35-1.93-2.53-2.41-2.53-.56 0-1.15.19-1.81.58-1.03.62-1.97 1.34-2.76 1.97-1.33 1.06-2.61 2.11-3.97 3.23l-1.6 1.31c-.51.42-.69 1.12-.44 1.72.03.08.07.16.11.23.09.14.15.25.2.34.12.21.25.45.49.68 1.42 1.31 2 2.99 1.91 5.45-.1 2.41-.1 4.88-.1 7.06 0 1.99 0 3.98.02 5.96 0 1.53.02 3.06.02 4.59 0 2.12-.02 4.24-.04 6.59 0 1.03-.02 2.06-.03 3.09-.02 1.73-.04 3.53-.04 5.29 0 .93.03 1.86.05 2.77.03 1.05.06 2.14.05 3.19-.02 1.51-.06 3.06-.1 4.55-.05 1.57-.09 3.2-.11 4.81-.02 1.8.02 3.61.05 5.37.01.83.03 1.67.04 2.5l.02 1.7c.01 1.21.02 2.41.05 3.62.07 4.27-.22 7.78-1.9 11.02-.26.5-.36 1-.47 1.53-.05.23-.1.48-.17.77-.14.53.03 1.1.44 1.47a1.483 1.483 0 0 0 1.5.32c.31-.11.59-.2.83-.28.52-.17.98-.31 1.43-.53 1.5-.71 3-1.44 4.5-2.17 1.01-.49 2.03-.98 3.04-1.47.45-.22.91-.43 1.38-.63.65-.3 1.33-.6 2-.94.72-.36 1.69-.98 1.91-2.11.22-1.13-.46-2.07-1-2.68l-.24-.27c-.36-.4-.69-.78-.97-1.17-1.17-1.63-1.14-3.64-1.11-5.76 0-.38.01-.75 0-1.13-.01-3.61.04-7.29.09-10.85.02-1.71.05-3.43.06-5.14.06.03.18.12.28.18.09.06.17.12.26.18.3.2.6.4.89.6.86.58 1.76 1.18 2.68 1.73.28.17 1.01.55 1.82.55.29 0 .56-.05.8-.14 3.11-1.21 5.8-2.88 8.01-4.97 1.79-1.7 3.51-3.66 5.25-5.99 1.41-1.89 2.63-3.91 3.81-5.87l.53-.88c.51-.83.91-1.83 1.17-2.88.44-1.83.85-3.69 1.24-5.48.22-.99.43-1.97.66-2.96.72-3.19.57-6.48-.46-10.07-1.45-5.04-3.66-9.49-6.76-13.61-2.33-3.09-4.91-5.72-7.12-7.88-.53-.52-1.26-1.11-2.23-1.11l-.02.02Zm-10.49 46.41v-2.99c0-2.52 0-5.13-.01-7.72 0-1.11-.05-2.22-.09-3.3-.08-2.07-.15-4.03-.01-5.99.14-1.96.59-4.09 1.42-6.72.95-3 2.69-5.78 5.17-8.28.43-.43.7-.91.95-1.33.03-.05.06-.1.08-.14l.54.82c1.32 2.02 2.68 4.11 3.92 6.21 1.61 2.73 2.67 5.86 3.34 9.85.75 4.51.7 8.53-.16 12.3-.85 3.73-2.13 6.51-4.01 8.74-1.42 1.68-3.08 3.22-5.24 4.84-.5.38-1.15.72-1.98 1.04-.11.04-.21.06-.29.06-.5 0-1.42-.98-2.03-1.62-1.47-1.56-1.99-3.27-1.61-5.38.02-.13.03-.26.02-.39h-.01ZM450.036 7.38c.14.51.24.74.25.98.08 2.63.14 5.26.21 7.89.08 2.92.2 5.84.26 8.77.05 2.92.06 5.85.06 8.77 0 3.43 0 6.86-.03 10.29-.03 3.1-.12 6.19-.15 9.29-.03 3.39 0 6.78-.01 10.17-.01 4.66-.04 9.33-.06 13.99 0 3.22.03 6.44-.01 9.66-.03 2.21-.19 4.41-.26 6.62-.14 4.84-.36 9.68-.35 14.52 0 3.84 1.27 7.33 3.57 10.44.23.31.34.71.51 1.07l-.27.21c-5.83-2.27-11.67-4.53-17.49-6.82-.31-.12-.53-.48-.87-.81.38-.3.63-.52.9-.71 2.21-1.58 3.81-3.65 4.43-6.29.44-1.88.57-3.84.74-5.78.19-2.15.34-4.31.36-6.47.04-4.63-.02-9.26-.03-13.89 0-2.55.03-5.09.01-7.64-.02-3.2-.13-6.4-.07-9.6.09-4.27.34-8.54.46-12.81.06-2.16 0-4.32-.02-6.48-.02-2.84-.06-5.68-.07-8.53-.01-3.35-.01-6.7.01-10.05 0-1.19.15-2.38.15-3.56.01-2.81-.03-5.62-2.07-8.31 3.3-1.66 6.51-3.28 9.83-4.95m0-1.5c-.23 0-.46.05-.67.16l-6.89 3.47-2.94 1.48a1.49 1.49 0 0 0-.52 2.24c1.78 2.35 1.77 4.92 1.76 7.4 0 .56-.04 1.13-.07 1.73-.04.59-.07 1.21-.08 1.83-.02 3.03-.02 6.23-.01 10.07 0 1.79.02 3.59.04 5.38l.03 3.15c0 .62.01 1.24.02 1.86.02 1.5.04 3.05 0 4.56-.05 1.86-.13 3.75-.21 5.58-.1 2.37-.2 4.82-.25 7.23-.04 2.07 0 4.16.03 6.19.02 1.15.04 2.3.04 3.45v4.19c0 1.15-.01 2.3 0 3.45 0 1.58.01 3.15.02 4.72.02 3 .04 6.1.01 9.15-.02 2.2-.19 4.44-.36 6.35l-.05.63c-.15 1.73-.29 3.36-.66 4.94-.5 2.12-1.79 3.94-3.84 5.41-.2.15-.39.3-.63.49l-.33.26a1.5 1.5 0 0 0-.11 2.26c.08.08.16.16.22.24.25.28.59.66 1.13.88 4.83 1.9 9.67 3.78 14.5 5.66l3 1.16c.18.07.36.1.54.1.37 0 .72-.13 1-.38l.05-.04.13-.1a1.5 1.5 0 0 0 .44-1.83c-.04-.09-.08-.19-.12-.28-.12-.3-.28-.68-.54-1.04-2.17-2.94-3.27-6.15-3.27-9.55 0-3.59.12-7.26.24-10.8l.12-3.67c.03-.93.07-1.86.12-2.79.06-1.26.12-2.56.14-3.85.03-2.03.02-4.08.02-6.07v-3.61c0-2.2.02-4.39.03-6.59l.03-7.4v-4.3c0-1.95 0-3.91.01-5.86.01-1.58.04-3.16.07-4.73.03-1.52.06-3.04.07-4.56.03-3.51.03-7.03.03-10.31 0-2.86 0-5.81-.06-8.79-.04-1.9-.1-3.83-.16-5.69-.03-1.03-.07-2.06-.1-3.09l-.09-3.46-.12-4.43c-.01-.35-.1-.63-.18-.91-.03-.11-.08-.24-.12-.41a1.485 1.485 0 0 0-1.45-1.11l-.01-.02ZM270.926 19.91c.29 0 .64.33.95.49-.29.28-.55.78-.86.8-1.28.09-2.33.53-3.38 1.29-1.38 1.01-2 2.34-2.06 3.91-.12 3.17-.1 6.35-.12 9.52-.01 1.37 0 2.75 0 4.1 2.29.2 4.26.37 6.23.57.33.03.72.13.95.33.2.18.31.57.29.86 0 .11-.44.28-.69.28h-.02c-1.81-.07-3.62-.18-5.43-.3h-.14c-.66 0-.98.32-.99 1.02-.02 1.52-.05 3.04-.05 4.56 0 3.22 0 6.44.04 9.65.07 4.74-.45 9.44-1.65 14-.82 3.1-1.99 6.18-3.49 9.01-1.98 3.73-4.15 7.45-6.79 10.74-3.61 4.5-8.14 8.03-14.11 8.84-.85.12-1.71.18-2.55.18-2.44 0-4.81-.56-6.92-2.19-1.2-.93-2.47-1.76-3.7-2.66-.65-.48-.53-1.05.01-1.5 1.37-1.14 2.75-2.27 4.17-3.34.31-.23.58-.34.82-.34.43 0 .77.35 1.02.98 1.23 3.06 3.72 4.64 6.86 4.64.33 0 .66-.02 1.01-.05 4.92-.5 8.59-3.13 11.83-6.59.9-.96 1.92-1.86 2.61-2.96 1.91-3.04 3.92-6.06 4.83-9.58.87-3.36 1.59-6.77 2.11-10.2.29-1.94 0-3.96.02-5.94.02-2.31.1-4.62.12-6.93.02-2.27.02-4.53-.02-6.8-.02-1.08-.03-2.18-.26-3.23-.1-.45-.68-1.02-1.14-1.12-.73-.16-1.46-.25-2.19-.25-.95 0-1.89.15-2.82.51-.7.27-1.19.43-1.58.43-.72 0-1.06-.58-1.72-2.1.76-.06 1.45-.14 2.14-.16 2.12-.06 4.24-.12 6.36-.15.73-.01 1.09-.29 1.09-1.07 0-1.9-.08-3.81.08-5.69.26-2.94-.2-5.96 1.42-8.75 1.75-3.02 4.4-4.36 7.64-4.86h.06m0-1.5c-.1 0-.2 0-.29.02-4.04.63-6.88 2.46-8.7 5.59-1.39 2.4-1.45 4.94-1.51 7.17-.02.76-.04 1.49-.1 2.2-.14 1.55-.12 3.1-.1 4.6v.8c-1.93.03-3.95.08-5.99.14-.51.02-.99.06-1.5.1l-.71.06c-.48.04-.92.31-1.17.72-.25.42-.28.93-.09 1.37.64 1.48 1.3 3 3.09 3 .62 0 1.22-.19 2.12-.53.71-.28 1.46-.41 2.28-.41.56 0 1.16.07 1.78.19.03.03.07.06.1.1.17.85.19 1.78.2 2.76v.08c.03 2.06.04 4.28.02 6.76-.01 1.12-.04 2.24-.06 3.36-.03 1.19-.05 2.38-.06 3.57 0 .72.02 1.44.06 2.14.06 1.27.11 2.46-.06 3.59-.48 3.19-1.18 6.58-2.08 10.05-.78 3.02-2.45 5.67-4.21 8.46l-.44.69c-.43.68-1.05 1.31-1.7 1.98-.25.25-.49.5-.73.75-3.59 3.83-6.94 5.72-10.88 6.12-.29.03-.58.04-.86.04-2.6 0-4.49-1.28-5.46-3.71-.67-1.67-1.8-1.92-2.42-1.92-.58 0-1.16.22-1.72.64-1.57 1.18-3.08 2.43-4.23 3.38-.66.55-1.02 1.26-.99 2 .01.41.17 1.21 1.05 1.86.52.38 1.05.76 1.58 1.13.73.51 1.42.99 2.09 1.51 2.19 1.68 4.75 2.5 7.84 2.5.87 0 1.77-.06 2.75-.2 5.69-.77 10.63-3.84 15.08-9.39 2.93-3.65 5.25-7.78 6.95-10.97 1.52-2.85 2.74-5.99 3.62-9.33 1.2-4.56 1.77-9.41 1.7-14.4-.04-2.93-.04-5.91-.04-8.8v-.83c0-1.04.01-2.07.03-3.1 0-.32 0-.63.01-.95 1.8.12 3.44.2 5.01.27h.08c.67 0 2.1-.41 2.18-1.68.04-.59-.14-1.49-.77-2.07-.44-.4-1.05-.64-1.81-.72-1.5-.15-3.01-.29-4.66-.43l-.23-.02v-2.71c0-.81.01-1.61.01-2.42.01-2.32.02-4.72.11-7.07.04-1.19.5-2.07 1.44-2.76.87-.64 1.65-.94 2.6-1.01.86-.07 1.36-.68 1.65-1.05.05-.06.1-.13.15-.18.34-.34.5-.82.43-1.3a1.52 1.52 0 0 0-.79-1.11 1.74 1.74 0 0 1-.18-.11c-.32-.22-.81-.55-1.47-.55v.03Z" class="Vector"/>
    <path fill="#C18523" d="M248.017 43.54c3.39 0 6.47 2.35 7.79 5.46 1.44 3.37.27 6.17-1.64 8.75-1.06 1.44-2.59 2.57-4.01 3.69-.28.22-.75.32-1.2.32-.24 0-.48-.03-.68-.09-2.83-.8-5.17-2.29-6.67-4.94-1.45-2.56-2.1-7.45.59-9.95.36-.33.67-.84.75-1.31.24-1.37 1.11-1.82 2.34-1.86H247.067c.32-.05.64-.07.96-.07m-4.59 6.74.18.04c.04.51-.02 1.05.12 1.52.93 3.03 2.74 5.39 5.54 6.94.55.31 1 .47 1.38.47.64 0 1.09-.46 1.51-1.43 1.78-4.08 1.72-7.83-1.72-11.17-1.27-1.22-2.68-1.69-4.31-1.85-.07 0-.15-.01-.22-.01-.82 0-1.39.48-1.6 1.29-.35 1.39-.6 2.8-.89 4.21m4.59-8.24c-.36 0-.73.02-1.09.07h-1c-.23 0-.47 0-.7.01-2.82.09-3.57 1.99-3.77 3.11-.02.09-.14.32-.29.46-3.37 3.13-2.52 8.89-.87 11.79 1.59 2.81 4.06 4.65 7.57 5.65.33.09.71.14 1.09.14.49 0 1.41-.08 2.13-.64l.37-.29c1.39-1.09 2.83-2.21 3.92-3.69 1.69-2.27 3.71-5.81 1.82-10.24-1.62-3.81-5.31-6.37-9.17-6.37h-.01Zm-2.18 4.25H245.987c1.5.14 2.52.57 3.41 1.43 2.69 2.61 3.12 5.54 1.39 9.49-.11.26-.2.41-.26.5-.1-.03-.27-.1-.53-.25-2.41-1.34-3.99-3.33-4.83-6.07-.04-.12-.04-.38-.04-.61 0-.19 0-.39-.02-.58 0-.12-.03-.23-.07-.34.04-.18.07-.37.11-.55.2-.99.38-1.93.62-2.87.02-.09.05-.13.06-.15h.01Z" class="Vector"/>
    <path fill="url(#a)" d="M378.366 60.06c1.11 0 2.23.1 3.33-.03 1.32-.15 1.88.55 2.19 1.63 1.1 3.83 2.08 7.7 3.32 11.49 1.05 3.22 2.24 6.42 3.63 9.52 1.78 3.99 3.78 7.88 5.76 11.77.77 1.51 1.81 2.87 2.64 4.35.67 1.2 1.66 1.491 2.9 1.341.58-.07 1.17-.15 2.02-.27-.21-1.21-.4-2.38-.61-3.54-.18-.99-.42-1.97-.6-2.97-.6-3.47-.77-6.97-.63-10.48.07-1.68.35-3.35.48-5.02.21-2.68.45-5.36-1.73-7.54-.28-.28-.18-1.24.07-1.71 1.4-2.56 2.93-5.05 4.35-7.6.53-.95.87-2 1.3-3 .13-.03.27-.05.4-.08.71 1.11 1.65 2.14 2.07 3.36 1.34 3.85 2.25 7.77 2.21 11.94-.06 5.61-1.22 11-2.33 16.46-.79 3.89-.2 7.78 2.45 11.09.77.97 1.72.63 2.42.3 3.22-1.52 6.14-3.58 8.09-6.6 2.17-3.37 3.31-7.1 2.83-11.23-.35-3.03-.22-6.14-.89-9.08-.98-4.3-2.24-8.53-4.13-12.6-1.51-3.25-3.45-6.18-5.3-9.2-1.92-3.13-3.93-6.21-5.86-9.33-1.88-3.03-2.96-6.37-3.73-9.82-.61-2.72-1.31-5.45-1.54-8.21-.2-2.41.12-4.89.39-7.32.07-.59.71-1.29 1.27-1.64 4.43-2.74 8.35-6.12 12.13-9.66 1.45-1.36 1.56-1.39 3.01-.06 2.69 2.47 5.38 4.93 8.63 6.71 1.13.62 2.04 1.63 3.04 2.47.56.47.7.99.25 1.67-.96 1.45-1.85 2.94-2.8 4.4-.32.49-.69 1-1.17 1.33-.3.2-.95.25-1.22.06-2.81-1.96-5.62-3.94-8.34-6.02-1.31-1-2.42-2.26-3.67-3.34-.45-.39-1.08-.81-1.61-.78-.3.02-.77.91-.78 1.41-.08 2.82-.54 5.65.29 8.46.69 2.34 1.08 4.78 1.79 7.11 1.32 4.3 3.11 8.39 5.53 12.2 1.45 2.28 2.7 4.68 4.15 6.96 2.41 3.76 4.44 7.69 5.92 11.92 1.8 5.14 2.53 10.41 2.68 15.85.12 4.58-.06 9.09-1.21 13.51-.84 3.23-2.36 5.79-5.76 7.41-3.44 1.64-6.43 4.23-9.52 6.53-1.34 1-2.45 1.51-4.26 1.03-5.7-1.52-11.47-2.77-17.23-4.07-3.19-.72-6.41-1.34-9.61-2.01-.46-.1-.99-.14-1.33-.41-.3-.24-.63-.9-.51-1.14 1.18-2.28.65-4.56.11-6.84-.74-3.13-1.51-6.25-2.27-9.37-1.09-4.44-2.13-8.89-3.31-13.3-.2-.76-.92-1.4-1.45-2.05-1.76-2.16-3.54-4.31-5.34-6.43-.36-.43-.85-.75-1.29-1.12-.13.03-.26.07-.39.1-.12.85-.34 1.7-.35 2.55-.07 6.75-.09 13.51-.14 20.26-.01 1.65-.18 3.31-.14 4.96.08 3.11.91 6.01 2.65 8.64.23.35.21.85.3 1.29-.43.05-.89.2-1.3.14-4.2-.63-8.39-1.28-12.58-1.95-.58-.09-1.14-.39-1.86-.65.33-.45.46-.72.67-.89 2.67-2.19 3.82-4.98 3.77-8.45-.04-3.25.25-6.5.38-9.76.01-.32-.05-.65-.11-1.35-.67.39-1.25.56-1.58.94a60.665 60.665 0 0 0-3.26 4.08c-.85 1.18-1.94 1.83-3.33 2.14-4.89 1.09-9.65 2.52-13.91 5.29-1.74 1.13-3.53 2.2-5.23 3.39-.9.63-1.51.4-2.03-.36-1.14-1.68-2.31-3.35-3.34-5.11-1.18-2.01-2.29-4.06-3.27-6.16-.75-1.6-1.19-3.34-1.87-4.98-1.72-4.11-2.32-8.47-3.03-12.81-.67-4.02-.86-8.08-.62-12.14.23-4.05.46-8.11.82-12.15.14-1.64.51-3.28.92-4.88.82-3.17 1.77-6.3 2.62-9.46.27-.99.86-1.56 1.75-2.03 3.89-2.05 7.36-4.7 10.46-7.82 1.8-1.81 3.64-3.57 5.41-5.4.84-.87 1.56-.82 2.56-.19 1.96 1.24 4.07 2.25 6.02 3.51 1.44.93 2.78 2.06 4.05 3.23.31.28.42 1.21.2 1.57-1.22 1.99-2.55 3.91-3.89 5.81-.47.66-1.03.67-1.72.06-.94-.83-1.97-1.58-3.04-2.23-2.16-1.33-4.4-2.53-6.56-3.86-.76-.47-1.35-.44-1.91.19-.37.41-.7.85-1 1.32-.77 1.22-1.61 2.4-2.24 3.7-.98 2.01-1.94 4.05-2.66 6.16-1.02 3.01-1.88 6.08-2.68 9.15-.39 1.51-.51 3.08-.71 4.63-.13 1.01-.19 2.03-.29 3.04-.12 1.11.4 1.56 1.48 1.52 1.94-.07 3.89-.11 5.83-.14 1.56-.02 3.14.18 4.66-.03s2.98-.82 4.47-1.25c.19-.05.39-.08.93.12-.57 1.02-1.1 2.08-1.72 3.07-.74 1.18-1.55 2.33-2.37 3.46-.44.61-.93 1.21-1.48 1.71-.22.2-.76.29-1.03.17-2.38-1.1-4.91-.77-7.4-.85-.68-.02-1.35-.01-2.03-.03-1.66-.03-2.07.42-1.84 2.06.6 4.28 1.3 8.54 2.89 12.6 1.07 2.75 2.04 5.56 3.27 8.25 1.25 2.73 3.43 4.72 5.99 6.24 2.49 1.47 7.41.3 9.02-2.06.5-.73 1.04-1.47 1.36-2.28.31-.81.36-1.73.57-2.88 1.59 0 3.14-.02 4.7 0 1.44.03 2.87.11 4.31.15 1.3.03 1.9-.68 1.88-2.14-.02-1.55-.03-3.1-.02-4.65.05-4.41.11-8.83.18-13.24.05-3.27.16-6.54.16-9.8 0-3.06-.13-6.11-.17-9.17-.03-1.94.03-3.89 0-5.83-.08-5.28-.15-10.56-.32-15.84-.04-1.12.35-1.81 1.28-2.25a143.2 143.2 0 0 1 5.2-2.38c1.33-.57 1.79-.21 1.8 1.21.01 1.56.05 3.12.13 4.68.02.44.25.87.46 1.57 3.98-4.74 8.71-7.98 13.63-11.1 2.37 2.1 4.42 4.39 5.89 7.06 1.79 3.26 3.35 6.66 4.73 10.11.77 1.93 1.1 4.07 1.43 6.14.3 1.83.45 3.71.45 5.56.01 2.49-.23 4.92-1.03 7.37-.96 2.94-2.16 5.72-3.92 8.21-1.97 2.8-4.05 5.53-6.84 7.61-1.69 1.26-3.32 2.61-5 3.89-.33.26-.78.38-1.17.56.15.24.3.47.46.71l.02-.02v-.02Zm10.55-28.64c-.6-3.33-.9-6.55-1.8-9.6-1.05-3.58-3.23-6.68-5.17-9.85-.5-.82-1.25-1.51-1.96-2.17-.31-.29-.94-.63-1.22-.5-1.18.53-2.43 1.05-3.37 1.9-1.05.95-1.85 2.21-2.63 3.42-1.69 2.63-3.52 5.23-3.53 8.57 0 1.9-.09 3.81-.08 5.71.03 3.05.1 6.09.17 9.14.04 1.86.25 3.73.15 5.59-.15 2.71-.14 5.34 1.54 7.67.74 1.02 1.38 2.14 2.25 3.03.6.62 1.48 1.48 2.43.8 3.87-2.79 7.05-6.25 9.27-10.48.83-1.59 1.37-3.36 1.87-5.09.78-2.71 1.41-5.47 2.09-8.13l-.01-.01Z" class="Vector"/>
    <path fill="url(#b)" d="M96.586 10.63c.78-.43 1.51-.86 2.26-1.23 1.77-.88 3.56-1.73 5.34-2.61 1.03-.51 1.66-.2 1.75.96.2 2.75.5 5.51.51 8.26.03 4.91-.12 9.82-.18 14.73-.04 3.77-.07 7.53-.07 11.3 0 5.28.04 10.57.04 15.86 0 3.68-.08 7.37-.05 11.05.05 4.71.2 9.41.26 14.12.04 2.63.05 5.26-.03 7.89-.1 3.58 1.59 6.05 4.59 7.78.38.22.76.45 1.41.84-.59.25-.87.41-1.17.48-4.56 1.02-9.13 1.97-13.67 3.05-5.41 1.28-10.79 2.65-16.18 3.98-.41.1-.82.22-1.24.3-1.61.33-1.76.17-2.13-1.43-.22-.94-.7-1.82-1.05-2.73-1.42-3.76-2.95-7.48-4.23-11.3-1.14-3.42-1.88-6.98-3.05-10.4-.49-1.44-1.58-2.7-2.49-3.97-1.24-1.72-2.57-3.37-3.88-5.04-.09-.12-.29-.14-.66-.31-.1.56-.26 1.01-.26 1.46 0 3.86.02 7.73.04 11.59.03 5.39.04 10.77.12 16.16.02 1.52 0 3.1.4 4.54.37 1.34 1.26 2.54 1.95 3.79.28.51.62.98 1.11 1.74-5.24 1.73-10.27 3.4-15.3 5.06-.08-.08-.16-.17-.24-.25.43-1.02.75-2.1 1.31-3.04 1.62-2.72 2.14-5.69 2.12-8.79-.05-6.02-.14-12.03-.19-18.04-.05-6.2-.07-12.41-.08-18.61 0-3 .09-6 .07-9-.03-4.8-.16-9.6-.16-14.39 0-3.09.15-6.19.2-9.28.07-4.41.12-8.81.16-13.22.02-1.91.08-3.83 0-5.73-.05-1.13-.39-2.24-.51-3.37-.04-.39.04-1.02.29-1.18 2.41-1.5 4.88-2.93 7.33-4.36.25-.14.55-.19 1.02-.36.09.6.23 1.11.24 1.63.02 1.36-.06 2.72 0 4.08.02.46.3.91.46 1.37.41-.17.87-.25 1.21-.51 2.85-2.14 5.67-4.33 8.53-6.45 1.47-1.09 2-.98 3.2.45 1.7 2.01 3.44 3.98 5.05 6.06 1.96 2.54 3.97 5.07 5.66 7.79 2.74 4.41 3.87 9.35 3.19 14.48-.51 3.89-1.44 7.77-2.6 11.52-.78 2.51-2.23 4.83-3.52 7.17a75.033 75.033 0 0 1-3.85 6.29c-1.17 1.71-2.51 3.31-3.88 4.87-1.51 1.7-3.15 3.29-4.72 4.95-.19.2-.27.5-.51.96.48.07.82.16 1.15.16 1.55.02 1.97.41 2.38 1.9 1.78 6.47 4.33 12.6 7.97 18.27 2.31 3.59 5.12 6.74 8.14 9.73.27.27.59.49.87.75.75.66 1.42.59 2.1-.13 2.84-2.97 4.21-6.46 4.03-10.62-.14-3.18.01-6.37-.04-9.55-.04-2.93-.2-5.86-.27-8.79-.05-2.07 0-4.14-.04-6.21-.05-3.16-.17-6.32-.18-9.48-.01-2.96.09-5.92.1-8.88.01-2.36-.08-4.73-.05-7.09.03-2.57.17-5.14.21-7.71.05-3.25.04-6.5.1-9.75.04-2.15.26-4.3.23-6.44-.03-1.92-.29-3.84-.46-5.75-.04-.42-.13-.83-.2-1.33l.04-.04Zm-34.36 46.8c.09 2.82 1.47 4.94 3.41 6.78.61.58 1.34 1.01 2.14.28.65-.6 1.27-1.24 1.89-1.88 2.15-2.23 4.29-4.45 5.67-7.29 1.05-2.16 2.6-4.14 3.27-6.39 1.14-3.86 2.52-7.67 2.37-11.88-.1-2.76-.02-5.52-.61-8.24-.62-2.87-1.63-5.63-3.16-8.11-1.49-2.41-3.3-4.61-5-6.89-1.41-1.89-2.65-1.91-4.16-.02-1.18 1.48-2.2 3.1-3.42 4.55-1.57 1.86-2.15 4.04-2.2 6.37-.06 3.43.06 6.86.03 10.28-.04 3.85-.18 7.69-.22 11.53-.04 3.63 0 7.27 0 10.9l-.01.01Z" class="Vector"/>
    <path fill="url(#c)" d="M463.926 40.16c0-1-.07-2.01.01-3 .31-3.87.34-7.71-.89-11.46-.09-.28-.28-.52-.4-.79-.74-1.61-.62-2.39.64-3.66 3.72-3.72 7.47-7.41 11.17-11.15.92-.93 1.72-1.99 2.53-3.03.79-1.01 1.26-1.01 2.11-.13 2.49 2.6 5.02 5.15 7.53 7.73 2.45 2.52 4.75 5.25 5.64 8.66.64 2.45.53 5.11.62 7.68.07 2.2-.05 4.4-.08 6.6-.04 3.43-.08 6.87-.08 10.31 0 2.88.06 5.77.07 8.65.02 4.16.01 8.31.04 12.47.03 4.84.13 9.68.13 14.51 0 4.68-.12 9.35-.14 14.03-.03 5.74-.09 11.48.02 17.21.07 3.56.16 7.17.75 10.66.75 4.47 1.97 8.86 3.08 13.27.51 2.01 1.24 3.97 1.84 5.96.09.29.04.62.06 1.07-.41-.11-.68-.11-.87-.24-1.84-1.3-3.64-2.66-5.5-3.93-2.25-1.53-4.54-2.99-6.82-4.47-1.99-1.29-3.99-2.58-5.97-3.89-.26-.18-.46-.47-.73-.76.68-.8 1.47-1.45 1.89-2.29.83-1.69 1.57-3.45 2.12-5.25.31-1-.54-1.57-1.47-1.02-3.77 2.18-8 2.45-12.16 3.01-1.04.14-1.52-.16-1.72-1.26-.41-2.25-.86-4.5-1.53-6.68-.65-2.09-1.51-4.13-2.43-6.11-3.08-6.64-4.71-13.61-4.34-20.92.19-3.8.65-7.6 1.99-11.24.83-2.25 1.27-4.65 2.17-6.87.75-1.86 1.86-3.58 2.86-5.33.82-1.44 1.62-2.89 2.58-4.23 1.4-1.95 2.83-3.9 4.44-5.69 2.01-2.24 4.38-4.17 6.3-6.48 2.55-3.07 4.72-6.34 4.33-10.75-.33-3.7-.16-7.43-.33-11.14-.16-3.37-1.42-6.28-3.74-8.81-1.68-1.83-3.11-3.9-4.65-5.86-.18-.23-.34-.5-.56-.7-.95-.87-1.56-.85-2.08.31-.99 2.22-1.43 4.57-1.14 7.04.37 3.24.69 6.49 1.02 9.74.15 1.52-.91 3.02-2.33 3.96-1.71 1.12-3.27 2.47-4.89 3.72-.28.22-.53.48-.79.72-.1-.06-.2-.12-.3-.17Zm19.94 14.85c-.13-.05-.26-.11-.39-.16-.26.19-.53.35-.76.56-.84.78-1.65 1.59-2.48 2.38-2.23 2.12-4.51 4.2-6.7 6.37-2.7 2.67-4.18 6.01-5.34 9.58-1.16 3.57-1.65 7.19-1.45 10.9.19 3.52.88 6.94 1.73 10.38 1.29 5.25 4.05 9.76 6.44 14.48.72 1.43 1.63 2.77 2.3 4.22.62 1.35 1.04 2.78.68 4.33-.08.34.1.75.16 1.11.27 0 .36.02.44 0 .16-.06.32-.12.46-.22 2.13-1.58 3.66-3.64 4.04-6.25.44-3.01.62-6.07.67-9.11.12-7.86.09-15.71.16-23.57.06-6.66.2-13.32.26-19.98.01-1.67-.14-3.35-.21-5.03l-.01.01Z" class="Vector"/>
    <path fill="url(#d)" d="M232.046 41.19c-.86 1.07-1.52 1.82-2.12 2.62-1.33 1.77-2.64 3.54-3.92 5.33-.43.61-.88.52-1.54.4-1.64-.3-3.32-.54-4.98-.56-2.24-.03-4.47.21-6.71.28-1.29.04-1.52.39-1.46 1.69.19 4.53 1.13 8.93 2.49 13.22 1.46 4.62 3.35 9.04 6.4 12.92 2.16 2.74 5.03 3.9 8.18 3.35 4.23-.74 7.94-3.97 6.28-9.37-.02-.07.02-.16.05-.37.21-.07.47-.23.74-.23 2.29 0 4.58.02 6.87.04.78 0 .95.49.78 1.12a14.77 14.77 0 0 1-3.14 5.91c-1.81 2.1-4.47 2.28-6.81 3.19-4.66 1.8-9.06 4.01-12.72 7.51-.52.5-1.02 1.14-1.65 1.37-.56.2-1.43.11-1.91-.22-.75-.51-1.36-1.29-1.9-2.04-1.28-1.79-2.53-3.6-3.7-5.45-.9-1.43-1.67-2.95-2.47-4.45-.84-1.59-3.38-1.22-4.52-.24-1.03.89-1.86 2.07-2.59 3.24-2.84 4.57-6.29 8.34-11.91 9.35-2.33.42-4.56-.05-6.75-.81-4.4-1.52-7.57-4.47-10.21-8.23-2.27-3.24-3.92-6.76-5.24-10.41-1.15-3.17-1.96-6.48-2.68-9.78-.46-2.13-.64-4.36-.65-6.55-.01-3.11.39-6.22.34-9.33-.09-5.13 1.88-9.79 3.1-14.62.3-1.18 1.15-2.22 1.77-3.31.89-1.59 1.7-3.23 2.73-4.72.7-1.01 1.62-1.96 2.62-2.67 2.59-1.85 4.77-4.06 6.64-6.62.85-1.17 1.79-2.27 2.63-3.44.58-.83 1.09-1.71 1.57-2.6.45-.82.93-1.09 1.84-.58 2.15 1.2 4.47 2.15 6.5 3.52 2.13 1.43 4.07 3.18 5.98 4.92.43.39.7 1.41.52 1.95-.8 2.39-2.31 4.38-3.97 6.36-.81-.85-1.56-1.59-2.26-2.38-1.89-2.12-4.42-3.24-6.85-4.53-.71-.37-1.33-.92-2.03-1.32-1.25-.72-1.88-.68-2.57.52-1.39 2.42-2.76 4.87-3.87 7.43-1.23 2.84-2.33 5.76-3.17 8.73-.89 3.13-1.6 6.34-2.02 9.56-.39 2.96-.54 6-.36 8.97.24 3.79.82 7.58 1.45 11.34.71 4.22 2.21 8.22 4.42 11.86 2.61 4.29 5.73 8.17 10.85 9.69 3.02.89 5.68.28 7.81-2.2 1.45-1.69 1.61-3.6 1.1-5.63-.38-1.52-.06-2.03 1.54-2.05 1.94-.02 3.87 0 6.1 0-.45-1.72-.83-3.05-1.15-4.39-.66-2.73-1.42-5.45-1.91-8.22-.74-4.13-.98-8.33-.65-12.52.36-4.64.91-9.27 1.35-13.91.44-4.63 2.13-8.89 3.85-13.14.15-.36.46-.74.79-.94 3.74-2.2 6.66-5.29 9.55-8.46 1.78-1.95 3.64-3.81 4.87-6.19.34-.66.86-.54 1.38-.12.93.75 1.81 1.58 2.83 2.17 2.19 1.27 4.49 2.37 6.68 3.63 1.23.71 2.38 1.58 3.49 2.49.23.18.24.95.05 1.26-1.29 2.15-2.62 4.27-4.04 6.34-.16.23-1.15.27-1.37.03-3.37-3.56-8.06-4.97-12.09-7.44-.9-.55-1.56-.21-1.89.74-1.57 4.53-3.18 9.04-4.67 13.59-1.44 4.38-1.99 8.94-2.39 13.52-.1 1.1.57 1.33 1.41 1.35 2.31.06 4.62.11 6.93.09 2.23-.03 4.47-.07 6.69-.26 1.25-.1 2.48-.51 3.71-.79.56-.13 1.11-.28 2-.51h.01-.05Z" class="Vector"/>
    <path fill="url(#e)" d="M1.496 12.51c5.02-2.93 9.05-6.84 14.75-8.37.38 4.21-.38 8.33.4 12.33.16.06.33.13.49.19 1.21-1.09 2.44-2.16 3.63-3.28 2.9-2.74 5.74-5.54 8.69-8.23.86-.79 1.97-1.34 3.02-1.88.28-.15.99.02 1.17.27 1.44 2.04 2.79 4.14 4.18 6.21 1.28 1.9 2.56 3.79 3.88 5.66 2.53 3.58 4.24 7.49 5.17 11.78.83 3.79.98 7.62.99 11.49.02 5.94-1.22 11.64-2.95 17.24-1.1 3.57-2.59 7.02-4.82 10.08-2 2.73-3.91 5.54-6.04 8.16-.97 1.19-2.3 2.16-3.63 2.96-2.05 1.24-4.24 2.24-6.36 3.37-.8.43-1.32.1-1.91-.43-1.38-1.25-2.8-2.44-4.24-3.62-.26-.21-.83-.44-.99-.31-.27.21-.48.7-.47 1.07.09 3.77.25 7.54.33 11.3.06 2.89.06 5.77.06 8.66 0 5.699 0 11.389-.01 17.089v6.77c.01 2.51.44 4.87 2.66 6.46.77.56 1.68.93 2.88 1.58-5.46 3.29-10.67 6.44-15.89 9.59l-.2-.26c.41-1.36.7-2.77 1.26-4.07.91-2.12.67-4.34.73-6.52.12-4.45.13-8.9.11-13.34-.01-3.85-.14-7.7-.19-11.55-.05-4.37-.05-8.74-.09-13.11-.04-3.25-.14-6.5-.17-9.75-.03-3.2.04-6.39 0-9.59-.06-5.59-.22-11.19-.22-16.78 0-4.07.22-8.14.26-12.22.03-3.21-.08-6.43-.11-9.64-.03-3.48.01-6.96-.04-10.44-.04-2.66-.66-5.12-2.89-6.87-.46-.36-.98-.65-1.49-.95-.53-.31-1.07-.59-1.95-1.07v.02Zm14.64 52.77s-.06.01-.1.02c.19 1.08.27 2.19.59 3.23.87 2.83 2.61 5.12 4.7 7.15.66.64 1.41 1.33 2.53.41 3.74-3.09 6.9-6.7 9.29-10.89 2.47-4.33 3.96-9.07 4.85-13.97.48-2.62.73-5.29.96-7.95.16-1.84.23-3.72.09-5.56-.19-2.52-.46-5.06-.97-7.54-.73-3.56-1.31-7.19-3.18-10.42-.83-1.43-1.44-2.99-2.37-4.33-1.25-1.81-2.7-3.49-4.11-5.19-.39-.47-.97-.85-1.54-.25-2.12 2.25-4.49 4.35-6.22 6.87-1.58 2.31-2.52 5.09-3.63 7.7-.48 1.12-.88 2.36-.95 3.56-.13 2.18.05 4.38.05 6.56.01 4.82 0 9.63-.01 14.45v16.14l.02.01Z" class="Vector"/>
    <path fill="url(#f)" d="M128.797 15.84c.31-.14.48-.16.53-.25 2.01-3.21 5.44-4.63 8.34-6.73 1.72-1.24 3.35-2.61 4.95-4 .71-.62 1.27-.55 1.88.03 3.39 3.26 6.85 6.45 10.13 9.82 2.37 2.44 3.75 5.54 4.08 8.88.34 3.51.52 7.06-.59 10.55-.41 1.3-.3 2.77-.34 4.17-.12 4.53-.25 9.05-.3 13.58-.02 2.07.23 4.14.24 6.21.01 3.08-.11 6.17-.11 9.25s.1 6.18.13 9.27c.02 1.95.01 3.91-.03 5.86-.06 3.13.31 6.11 2.57 8.54.17.18.28.41.4.63.03.06 0 .16-.02.46-.77.19-1.6.47-2.45.59-3.2.43-6.4.81-9.6 1.2-1.28.16-1.66-.18-1.22-1.37 1.58-4.29 1.04-8.73 1.04-13.12 0-4.22-.31-8.44-.36-12.66-.06-4.63.01-9.26.07-13.89.03-2.15.16-4.3.2-6.46.03-1.69.04-3.38-.03-5.06-.14-3.22.58-6.26 1.52-9.32.84-2.74.95-5.57-.22-8.32-.53-1.24-.94-2.55-1.55-3.75-1.67-3.26-3.78-6.22-6.54-8.68-1.39-1.24-2.28-1.37-3.68-.15-1.34 1.17-2.65 2.43-3.74 3.82-2.4 3.06-4.3 6.42-5.38 10.18-.16.56-.28 1.16-.29 1.74-.12 4.4-.25 8.81-.3 13.21-.03 3.05.09 6.09.09 9.14 0 3.17-.08 6.35-.06 9.52.03 3.6.17 7.2.19 10.8.02 3.3-.1 6.61-.06 9.92.03 3.01.06 6.03.35 9.02.21 2.15 1.26 4.01 2.99 5.44.57.47.98 1.14 1.44 1.69-.68.74-17.8 3.91-19.59 3.62.8-.8 1.53-1.46 2.18-2.19 2.26-2.54 3.78-5.37 3.72-8.91-.07-3.65.05-7.3.03-10.95-.03-4.29-.15-8.57-.2-12.86-.05-3.46-.08-6.91-.08-10.37 0-3 .05-6.01.06-9.01 0-2.29-.04-4.57-.03-6.86.02-2.97.08-5.93.1-8.9.01-1.48-.03-2.96-.04-4.44-.03-3.51-.05-7.03-.08-10.54 0-.42 0-.86-.1-1.26-.49-1.86-.4-2.04 1.26-2.89 2.07-1.06 4.11-2.2 6.19-3.23 1.05-.52 1.43-.2 1.49 1 .11 2.28.22 4.56.38 6.84.03.4.28.77.44 1.2h.01l-.01-.01Z" class="Vector"/>
    <path fill="url(#g)" d="M278.457 10.53c1.89-1.54 3.71-3.06 5.56-4.53.83-.66 1.69-1.31 2.6-1.85 1.14-.68 1.77-.44 1.96.87.2 1.42.14 2.87.24 4.31.07.93.24 1.84.36 2.77.15.03.3.05.45.08.44-.42.85-.87 1.32-1.26 2.28-1.9 4.59-3.76 6.85-5.68.97-.82 1.86-1.74 2.73-2.65.97-1 1.45-1.1 2.45-.12 2.48 2.42 4.87 4.91 6.97 7.71 3.01 4 5.15 8.35 6.52 13.12.88 3.07 1.15 6.17.44 9.32-.63 2.81-1.22 5.62-1.89 8.42-.21.85-.54 1.71-.99 2.46-1.36 2.25-2.69 4.53-4.26 6.63-1.54 2.05-3.22 4.03-5.08 5.8-2.16 2.04-4.73 3.58-7.52 4.66-.35.14-.93-.07-1.31-.29-1.2-.72-2.35-1.53-3.52-2.3-.25-.16-.48-.36-.75-.48-1.44-.64-2.1-.2-2.11 1.35-.05 5.34-.16 10.68-.15 16.02 0 2.65-.31 5.4 1.38 7.76.39.55.85 1.05 1.3 1.55.99 1.13.9 1.77-.46 2.46-1.1.55-2.24 1.02-3.35 1.56-2.52 1.21-5.02 2.44-7.54 3.64-.55.26-1.16.41-2.11.74.23-.9.27-1.49.52-1.97 1.92-3.7 2.14-7.69 2.07-11.74-.03-1.77-.04-3.54-.06-5.31-.03-2.61-.11-5.23-.08-7.85.03-3.12.18-6.24.21-9.36.02-1.99-.1-3.99-.1-5.98 0-2.79.06-5.58.08-8.37.02-2.2.04-4.41.04-6.61 0-3.52-.04-7.03-.04-10.55 0-2.33 0-4.67.1-7 .1-2.54-.44-4.81-2.38-6.6-.12-.11-.18-.28-.43-.7l-.02-.03Zm11.35 36.29c-.47 2.65.25 4.83 2 6.68 1.47 1.55 2.49 2.49 3.95 1.92.82-.32 1.64-.72 2.34-1.24 2-1.5 3.84-3.12 5.49-5.08 2.35-2.79 3.56-6.01 4.33-9.37.97-4.23.9-8.56.18-12.88-.61-3.67-1.64-7.17-3.53-10.36-1.46-2.48-3.06-4.88-4.63-7.3-.79-1.22-1.54-1.17-2.3.07-.29.47-.54.99-.92 1.37-2.53 2.54-4.46 5.48-5.54 8.88-.72 2.29-1.32 4.69-1.49 7.07-.22 3.12.07 6.27.1 9.41.03 3.65 0 7.3 0 10.83h.02Z" class="Vector"/>
    <path fill="url(#h)" d="M453.766 119.821c-5.83-2.27-11.67-4.53-17.49-6.82-.31-.12-.53-.48-.87-.8.38-.3.63-.52.9-.71 2.21-1.58 3.81-3.65 4.43-6.29.44-1.88.57-3.84.74-5.78.19-2.15.34-4.31.36-6.47.04-4.63-.02-9.26-.03-13.89 0-2.55.03-5.09.01-7.64-.02-3.2-.13-6.4-.07-9.6.09-4.27.34-8.54.46-12.81.06-2.16 0-4.32-.02-6.48-.02-2.84-.06-5.68-.07-8.53-.01-3.35-.01-6.7.01-10.05 0-1.19.15-2.38.15-3.56.01-2.81-.03-5.62-2.07-8.31 3.3-1.66 6.51-3.28 9.83-4.95.14.51.25.74.25.98.08 2.63.14 5.26.21 7.89.08 2.92.2 5.84.26 8.77.05 2.92.06 5.85.06 8.77 0 3.43 0 6.86-.03 10.29-.03 3.1-.12 6.19-.15 9.29-.03 3.39 0 6.78-.01 10.17-.01 4.66-.04 9.33-.06 13.99 0 3.22.03 6.44-.01 9.66-.03 2.21-.19 4.41-.25 6.62-.14 4.84-.36 9.68-.36 14.52 0 3.83 1.27 7.33 3.57 10.44.23.31.35.71.51 1.07l-.27.21.01.02Z" class="Vector"/>
    <path fill="url(#i)" d="M265.456 39.8c2.29.2 4.27.37 6.24.57.33.03.72.13.95.33.2.18.31.57.29.86 0 .12-.46.29-.71.28-1.81-.07-3.62-.18-5.43-.3-.76-.05-1.12.27-1.13 1.02-.02 1.52-.05 3.04-.05 4.56 0 3.22 0 6.44.04 9.65.07 4.74-.45 9.44-1.65 14-.82 3.1-1.99 6.18-3.49 9.01-1.98 3.73-4.15 7.45-6.79 10.74-3.61 4.5-8.14 8.03-14.11 8.84-3.3.45-6.63.18-9.47-2.01-1.2-.93-2.47-1.76-3.69-2.66-.65-.48-.53-1.05.01-1.5 1.37-1.14 2.75-2.27 4.17-3.34.86-.65 1.45-.34 1.85.64 1.36 3.38 4.26 4.96 7.86 4.59 4.92-.5 8.59-3.13 11.83-6.59.9-.96 1.92-1.86 2.61-2.96 1.91-3.04 3.92-6.06 4.83-9.58.87-3.36 1.59-6.77 2.11-10.2.29-1.94 0-3.96.02-5.94.02-2.31.1-4.62.12-6.93.02-2.27.02-4.53-.02-6.8-.02-1.08-.03-2.18-.26-3.23-.1-.45-.68-1.02-1.14-1.12-1.67-.36-3.36-.37-5 .26-2.03.78-2.29.66-3.29-1.66.76-.06 1.45-.14 2.14-.16 2.12-.06 4.24-.12 6.36-.15.73-.01 1.09-.29 1.09-1.07 0-1.9-.08-3.81.08-5.69.26-2.94-.2-5.96 1.42-8.75 1.75-3.02 4.4-4.36 7.64-4.86.3-.05.67.31 1.01.49-.29.28-.55.78-.86.8-1.28.09-2.33.53-3.38 1.29-1.38 1.01-2 2.34-2.06 3.91-.12 3.17-.1 6.35-.12 9.52-.01 1.37 0 2.75 0 4.1l-.02.04Z" class="Vector"/>
    <path fill="url(#j)" d="M247.055 43.36c3.76-.5 7.3 1.99 8.75 5.39 1.44 3.37.27 6.17-1.64 8.75-1.07 1.44-2.59 2.57-4.01 3.69-.44.34-1.31.4-1.88.24-2.83-.8-5.17-2.29-6.67-4.94-1.45-2.56-2.1-7.45.59-9.95.36-.33.67-.84.75-1.31.24-1.37 1.11-1.82 2.34-1.86.59-.02 1.19 0 1.78 0l-.01-.01Zm-3.62 6.67.18.04c.04.51-.02 1.05.12 1.52.93 3.03 2.74 5.39 5.54 6.94 1.48.83 2.21.59 2.89-.96 1.78-4.08 1.72-7.83-1.73-11.17-1.26-1.22-2.68-1.69-4.31-1.85-.94-.09-1.59.4-1.81 1.28-.35 1.39-.6 2.8-.89 4.21l.01-.01Z" class="Vector"/>
  </g>
</svg>
