<?xml version="1.0" encoding="UTF-8" standalone="no"?>
<!DOCTYPE svg PUBLIC "-//W3C//DTD SVG 1.1//EN" "http://www.w3.org/Graphics/SVG/1.1/DTD/svg11.dtd">
<svg xmlns="http://www.w3.org/2000/svg" version="1.1" viewBox="0.00 0.00 737.00 300.00">
<g stroke-width="2.00" fill="none" stroke-linecap="butt">
<path stroke="#0a2c4f" vector-effect="non-scaling-stroke" d="
  M 641.00 203.54
  Q 601.35 204.19 561.69 203.69
  Q 561.15 203.68 561.09 203.13
  L 560.96 202.00"
/>
<path stroke="#0a2c4f" vector-effect="non-scaling-stroke" d="
  M 509.29 202.00
  L 508.73 203.26
  Q 508.52 203.74 508.00 203.74
  Q 457.03 203.77 406.06 203.73
  Q 402.88 203.73 395.25 201.79"
/>
<path stroke="#0a2c4f" vector-effect="non-scaling-stroke" d="
  M 544.15 201.58
  C 544.25 203.01 543.70 203.75 542.20 203.75
  Q 528.93 203.75 515.66 203.75
  Q 515.10 203.75 515.04 203.19
  Q 514.99 202.60 515.25 202.04"
/>
<path stroke="#0a2c4f" vector-effect="non-scaling-stroke" d="
  M 349.79 201.75
  Q 350.14 202.59 349.75 203.29
  Q 349.50 203.73 348.99 203.74
  Q 307.90 203.79 266.82 203.71
  Q 262.70 203.70 254.00 201.90"
/>
<path stroke="#0a2c4f" vector-effect="non-scaling-stroke" d="
  M 165.49 201.72
  C 161.17 202.39 157.14 203.49 152.78 203.52
  Q 123.83 203.70 95.10 203.69"
/>
<path stroke="#89abcf" vector-effect="non-scaling-stroke" d="
  M 562.96 146.50
  C 560.93 145.45 560.95 148.80 560.82 150.31
  Q 560.80 150.50 560.99 150.50
  Q 561.13 150.50 561.27 150.50
  Q 561.53 150.50 561.64 150.25
  L 563.04 146.75"
/>
<path stroke="#808080" vector-effect="non-scaling-stroke" d="
  M 130.61 250.24
  A 2.13 2.12 -75.8 0 1 129.52 248.40
  Q 129.45 235.06 129.53 221.81
  C 129.56 216.84 140.64 218.30 143.34 219.31
  A 2.01 2.00 9.3 0 1 144.65 221.13
  L 144.80 226.27
  Q 144.82 226.93 145.47 226.94
  L 158.58 227.23
  Q 159.18 227.24 159.26 226.64
  C 160.58 216.54 153.99 212.41 144.98 211.52
  C 136.67 210.70 120.58 209.71 115.56 217.96
  Q 114.27 220.08 114.26 224.44
  Q 114.22 235.66 114.27 246.89
  C 114.33 262.48 146.94 261.02 155.15 254.90
  C 159.81 251.43 159.35 247.08 159.23 241.87
  Q 159.20 240.54 157.87 240.56
  L 145.22 240.78
  A 0.40 0.39 86.7 0 0 144.83 241.22
  Q 145.24 244.73 144.64 248.21
  C 143.72 253.47 133.51 251.87 130.61 250.24"
/>
<path stroke="#808080" vector-effect="non-scaling-stroke" d="
  M 203.99 251.00
  A 0.35 0.35 0.0 0 1 203.64 250.65
  L 203.57 211.35
  A 0.35 0.35 0.0 0 0 203.22 211.00
  L 188.67 211.00
  A 0.35 0.35 0.0 0 0 188.32 211.35
  L 188.31 257.68
  A 0.35 0.35 0.0 0 0 188.66 258.03
  L 228.15 257.99
  A 0.35 0.35 0.0 0 0 228.50 257.64
  L 228.50 251.35
  A 0.35 0.35 0.0 0 0 228.15 251.00
  L 203.99 251.00"
/>
<path stroke="#808080" vector-effect="non-scaling-stroke" d="
  M 284.09 249.12
  A 0.33 0.33 0.0 0 1 284.41 249.36
  L 286.81 257.69
  A 0.33 0.33 0.0 0 0 287.12 257.92
  L 302.01 258.18
  A 0.33 0.33 0.0 0 0 302.33 257.75
  L 287.08 211.23
  A 0.33 0.33 0.0 0 0 286.77 211.00
  L 265.00 211.00
  A 0.33 0.33 0.0 0 0 264.69 211.23
  L 249.40 257.82
  A 0.33 0.33 0.0 0 0 249.72 258.25
  L 263.17 258.25
  A 0.33 0.33 0.0 0 0 263.49 258.01
  L 266.05 249.19
  A 0.33 0.33 0.0 0 1 266.37 248.95
  L 284.09 249.12"
/>
<path stroke="#808080" vector-effect="non-scaling-stroke" d="
  M 338.83 249.31
  L 338.37 244.77
  Q 338.29 244.00 337.51 244.00
  L 324.79 244.00
  Q 324.37 244.00 324.30 244.41
  C 322.53 254.20 331.21 257.83 339.07 258.61
  C 347.14 259.41 370.99 260.32 368.97 245.97
  C 367.94 238.66 355.99 233.96 349.54 231.17
  C 323.70 219.96 356.46 211.79 354.44 224.34
  Q 354.33 224.98 354.98 224.98
  L 368.32 225.03
  Q 368.89 225.04 368.94 224.46
  C 370.32 208.12 343.15 210.39 334.27 212.27
  C 330.14 213.15 326.04 216.08 324.78 220.26
  C 321.40 231.48 343.07 237.85 350.02 242.16
  C 354.45 244.91 355.99 250.30 349.31 251.63
  Q 344.12 252.66 339.44 250.22
  Q 338.89 249.93 338.83 249.31"
/>
<path stroke="#808080" vector-effect="non-scaling-stroke" d="
  M 407.77 249.17
  L 407.40 244.44
  Q 407.37 244.00 406.93 244.00
  L 393.79 244.00
  Q 393.29 244.00 393.24 244.50
  C 391.47 261.40 416.71 260.07 426.98 257.91
  C 437.58 255.69 442.79 246.42 432.91 238.69
  C 427.02 234.08 408.59 228.96 408.77 222.57
  C 408.93 216.58 424.91 215.71 423.45 224.39
  Q 423.35 224.98 423.95 224.98
  L 437.33 225.03
  Q 437.90 225.04 437.96 224.46
  C 439.45 207.59 407.46 209.32 399.02 214.00
  C 393.09 217.29 391.48 224.12 396.26 229.19
  C 400.09 233.25 406.72 236.02 413.22 238.95
  C 416.40 240.38 425.09 244.41 422.36 249.21
  C 420.10 253.18 411.72 251.93 408.47 250.22
  Q 407.83 249.89 407.77 249.17"
/>
<path stroke="#808080" vector-effect="non-scaling-stroke" d="
  M 479.73 211.48
  A 0.47 0.47 0.0 0 0 479.26 211.01
  L 464.72 211.01
  A 0.47 0.47 0.0 0 0 464.25 211.48
  L 464.25 257.64
  A 0.47 0.47 0.0 0 0 464.72 258.11
  L 479.26 258.11
  A 0.47 0.47 0.0 0 0 479.73 257.64
  L 479.73 211.48"
/>
<path stroke="#808080" vector-effect="non-scaling-stroke" d="
  M 523.42 250.17
  A 1.76 1.76 0.0 0 1 522.52 248.65
  Q 522.45 235.21 522.53 221.81
  C 522.56 217.49 539.55 215.09 537.66 224.70
  A 1.91 1.91 0.0 0 0 539.50 226.98
  L 551.94 227.18
  A 0.51 0.49 87.9 0 0 552.44 226.63
  C 552.20 224.30 552.46 221.55 551.76 219.57
  C 549.96 214.52 544.04 212.33 539.18 211.65
  C 530.52 210.43 507.34 209.12 507.27 222.99
  Q 507.21 234.94 507.27 246.90
  C 507.34 260.54 529.29 259.58 538.00 258.48
  C 548.41 257.17 554.03 252.03 552.21 241.01
  Q 552.11 240.41 551.50 240.42
  L 538.72 240.76
  Q 538.08 240.78 538.04 241.42
  C 537.86 244.51 538.83 249.68 535.08 251.01
  Q 528.87 253.22 523.42 250.17"
/>
<path stroke="#808080" vector-effect="non-scaling-stroke" d="
  M 593.77 249.16
  L 593.40 244.44
  Q 593.37 244.00 592.93 244.00
  L 579.77 244.00
  Q 579.15 244.00 579.11 244.62
  Q 578.40 254.95 588.55 257.43
  C 596.30 259.32 606.12 259.83 613.86 257.85
  C 622.86 255.55 628.56 246.99 619.96 239.58
  C 613.95 234.40 604.93 231.80 598.35 227.69
  C 595.42 225.85 593.77 223.38 595.45 220.10
  Q 595.68 219.66 596.13 219.46
  Q 602.09 216.86 608.06 219.41
  Q 608.53 219.61 608.76 220.06
  Q 609.82 222.11 609.46 224.43
  Q 609.38 225.02 609.96 225.02
  L 623.34 225.02
  Q 623.90 225.02 623.95 224.46
  C 625.38 207.40 593.76 209.50 585.05 214.08
  C 576.63 218.50 578.51 228.04 585.81 232.21
  C 589.71 234.43 606.97 241.20 608.59 246.01
  C 611.18 253.68 597.74 251.95 594.45 250.20
  Q 593.83 249.87 593.77 249.16"
/>
<path stroke="#808080" vector-effect="non-scaling-stroke" d="
  M 268.18 242.55
  A 0.35 0.35 0.0 0 0 268.52 243.00
  L 281.72 243.00
  A 0.35 0.35 0.0 0 0 282.06 242.55
  L 275.45 220.99
  A 0.35 0.35 0.0 0 0 274.79 220.99
  L 268.18 242.55"
/>
</g>
<g fill="#13579e">
<path d="
  M 641.00 203.54
  Q 601.35 204.19 561.69 203.69
  Q 561.15 203.68 561.09 203.13
  L 560.96 202.00
  L 560.98 180.02
  Q 560.99 179.25 561.76 179.25
  L 625.69 179.25
  A 0.24 0.23 80.9 0 0 625.91 178.94
  Q 605.65 119.48 585.50 59.97
  Q 583.45 53.91 581.42 51.66
  C 576.55 46.25 566.74 46.13 561.87 51.34
  Q 559.68 53.69 557.27 60.74
  Q 533.20 131.34 509.29 202.00
  L 508.73 203.26
  Q 508.52 203.74 508.00 203.74
  Q 457.03 203.77 406.06 203.73
  Q 402.88 203.73 395.25 201.79
  C 373.16 194.70 359.44 177.30 359.47 154.04
  Q 359.53 117.42 359.50 80.79
  Q 359.49 70.71 360.84 65.33
  C 366.52 42.81 386.79 28.61 409.82 28.51
  C 435.37 28.41 460.98 28.91 486.53 28.48
  C 489.78 28.42 488.47 30.12 488.48 32.04
  Q 488.55 42.24 488.59 52.45
  Q 488.59 53.00 488.04 53.00
  Q 447.50 52.99 407.07 53.02
  C 397.27 53.03 388.01 60.78 385.05 69.95
  Q 383.77 73.91 383.77 85.31
  Q 383.77 115.62 383.71 145.93
  Q 383.69 157.63 385.20 162.39
  C 389.19 174.88 399.69 179.30 412.08 179.27
  Q 437.94 179.22 463.90 179.26
  A 0.35 0.35 0.0 0 0 464.25 178.91
  L 464.25 113.50
  A 0.50 0.50 0.0 0 0 463.75 113.00
  L 420.00 113.00
  A 0.50 0.50 0.0 0 1 419.50 112.50
  L 419.50 89.37
  Q 419.50 88.75 420.13 88.75
  L 488.00 88.75
  A 0.50 0.50 0.0 0 1 488.50 89.25
  L 488.49 185.74
  A 0.29 0.29 0.0 0 0 489.05 185.84
  Q 509.84 124.66 530.65 63.64
  Q 536.13 47.57 537.61 44.92
  C 551.17 20.59 587.93 19.45 603.55 41.98
  Q 606.74 46.57 611.01 59.24
  Q 635.26 131.12 659.56 202.98
  Q 659.73 203.48 659.20 203.48
  L 641.00 203.54
  Z"
/>
<path d="
  M 152.00 144.79
  A 1.72 1.72 0.0 0 0 150.42 143.60
  C 139.86 143.18 127.30 143.99 118.25 142.27
  C 87.54 136.44 65.94 105.25 73.20 73.96
  C 78.48 51.19 95.09 35.09 117.49 29.98
  Q 123.28 28.65 132.61 28.60
  Q 169.55 28.39 206.46 28.54
  A 0.54 0.54 0.0 0 1 207.00 29.08
  L 207.00 52.70
  Q 207.00 53.23 206.48 53.23
  Q 168.64 53.30 130.88 53.24
  C 96.38 53.19 83.45 95.42 112.17 114.11
  C 121.74 120.34 135.31 119.02 146.53 119.15
  Q 154.17 119.24 158.31 120.64
  C 182.82 128.95 182.74 163.79 158.28 172.02
  Q 153.99 173.47 144.91 173.48
  Q 108.41 173.53 71.84 173.49
  A 0.34 0.34 0.0 0 1 71.50 173.15
  L 71.50 149.80
  Q 71.50 149.27 72.03 149.27
  Q 110.20 149.22 148.28 149.25
  C 151.13 149.25 152.95 147.78 152.00 144.79
  Z"
/>
<path d="
  M 349.79 201.75
  Q 350.14 202.59 349.75 203.29
  Q 349.50 203.73 348.99 203.74
  Q 307.90 203.79 266.82 203.71
  Q 262.70 203.70 254.00 201.90
  Q 251.30 200.79 248.71 199.77
  C 233.88 193.89 223.43 180.95 219.91 165.98
  Q 218.47 159.87 218.49 146.90
  Q 218.52 111.57 218.50 76.25
  C 218.48 49.71 241.89 28.60 267.82 28.54
  Q 308.78 28.46 349.76 28.51
  A 0.49 0.49 0.0 0 1 350.25 29.00
  L 350.25 52.48
  Q 350.25 52.99 349.74 52.99
  Q 311.62 53.04 273.53 52.97
  Q 264.10 52.95 259.63 54.38
  Q 247.88 58.12 244.06 70.03
  Q 242.72 74.23 242.73 82.14
  Q 242.79 114.99 242.73 147.83
  Q 242.72 157.94 244.17 162.49
  C 248.27 175.36 258.82 179.29 271.40 179.27
  Q 310.39 179.22 349.03 179.26
  A 0.79 0.79 0.0 0 1 349.82 180.05
  L 349.79 201.75
  Z"
/>
<path d="
  M 544.15 201.58
  C 544.25 203.01 543.70 203.75 542.20 203.75
  Q 528.93 203.75 515.66 203.75
  Q 515.10 203.75 515.04 203.19
  Q 514.99 202.60 515.25 202.04
  Q 538.79 133.33 561.99 64.50
  C 563.04 61.37 564.22 57.04 566.46 54.96
  C 570.66 51.05 577.37 53.45 579.21 58.89
  Q 598.54 116.14 617.84 173.30
  A 0.35 0.34 80.3 0 1 617.52 173.76
  L 561.52 173.74
  A 0.59 0.59 0.0 0 1 560.93 173.14
  L 561.18 153.41
  A 0.29 0.29 0.0 0 0 560.62 153.31
  L 544.15 201.58
  Z
  M 562.96 146.50
  C 560.93 145.45 560.95 148.80 560.82 150.31
  Q 560.80 150.50 560.99 150.50
  Q 561.13 150.50 561.27 150.50
  Q 561.53 150.50 561.64 150.25
  L 563.04 146.75
  L 578.88 146.61
  A 0.96 0.95 -9.7 0 0 579.78 145.35
  L 571.92 121.80
  A 0.36 0.36 0.0 0 0 571.24 121.80
  L 562.96 146.50
  Z"
/>
<path d="
  M 165.49 201.72
  C 161.17 202.39 157.14 203.49 152.78 203.52
  Q 123.83 203.70 95.10 203.69
  L 72.13 203.67
  Q 71.50 203.67 71.50 203.04
  L 71.50 179.98
  A 0.74 0.74 0.0 0 1 72.24 179.24
  Q 105.57 179.21 138.23 179.28
  Q 152.46 179.31 158.09 177.83
  C 190.07 169.41 190.71 123.98 159.01 114.69
  C 147.14 111.21 132.69 115.79 120.66 111.62
  C 92.08 101.71 98.58 59.45 129.25 59.08
  Q 167.98 58.63 206.72 58.76
  A 0.33 0.33 0.0 0 1 207.05 59.10
  L 206.84 82.50
  Q 206.83 83.00 206.34 83.00
  Q 167.81 83.01 129.32 83.00
  C 125.26 83.00 124.87 89.08 131.25 89.02
  C 139.73 88.94 149.28 88.26 156.89 89.34
  C 193.87 94.54 217.53 132.71 202.58 168.21
  Q 192.31 192.62 165.49 201.72
  Z"
/>
<path d="
  M 273.74 88.75
  L 331.74 88.75
  A 0.75 0.74 89.6 0 1 332.48 89.49
  L 332.55 112.47
  Q 332.55 113.00 332.03 113.00
  L 249.21 113.01
  Q 248.76 113.01 248.76 112.56
  Q 248.73 96.99 248.74 81.49
  Q 248.74 74.34 250.14 70.73
  C 253.63 61.71 260.99 58.76 270.42 58.75
  Q 310.07 58.74 349.74 58.76
  Q 350.25 58.76 350.25 59.26
  L 350.25 82.48
  Q 350.25 82.99 349.74 82.99
  Q 314.24 83.01 278.77 83.00
  Q 273.67 83.00 273.12 88.06
  Q 273.04 88.75 273.74 88.75
  Z"
/>
<path d="
  M 434.03 148.56
  L 434.10 143.79
  Q 434.11 143.22 433.54 143.23
  L 420.41 143.31
  Q 419.50 143.32 419.50 142.41
  L 419.50 119.49
  A 0.52 0.51 90.0 0 1 420.01 118.97
  L 458.02 118.98
  Q 458.50 118.98 458.50 119.46
  L 458.50 172.99
  Q 458.50 173.49 458.00 173.49
  Q 435.74 173.51 413.54 173.51
  C 396.13 173.51 389.52 166.60 389.51 149.31
  Q 389.49 116.38 389.50 83.45
  Q 389.50 74.59 390.98 70.73
  C 394.27 62.12 401.63 58.80 410.65 58.78
  Q 449.36 58.68 488.08 58.78
  Q 488.53 58.78 488.53 59.23
  L 488.49 82.51
  Q 488.48 83.01 487.98 83.01
  Q 454.09 83.01 420.25 82.99
  C 415.71 82.99 414.01 85.69 414.01 90.07
  Q 413.99 116.10 414.00 142.14
  C 414.00 146.15 415.44 148.57 419.50 148.96
  Q 426.50 149.63 433.50 149.12
  Q 434.03 149.09 434.03 148.56
  Z"
/>
<path d="
  M 272.99 143.97
  C 273.40 148.18 276.58 149.22 280.52 149.23
  Q 314.97 149.27 349.23 149.24
  A 0.55 0.55 0.0 0 1 349.78 149.79
  L 349.77 172.78
  Q 349.77 173.20 349.35 173.20
  Q 309.60 173.38 269.86 173.24
  C 260.73 173.21 253.57 170.28 250.16 161.59
  Q 248.75 158.00 248.74 150.70
  Q 248.73 135.23 248.76 119.74
  Q 248.76 119.25 249.26 119.25
  L 331.77 119.25
  A 0.77 0.77 0.0 0 1 332.54 120.02
  L 332.48 143.05
  A 0.46 0.46 0.0 0 1 332.02 143.51
  L 273.52 143.39
  A 0.53 0.52 88.0 0 0 272.99 143.97
  Z"
/>
</g>
<g fill="#000000">
<path d="
  M 664.42 29.81
  A 19.04 19.04 0.0 0 1 645.38 48.85
  A 19.04 19.04 0.0 0 1 626.34 29.81
  A 19.04 19.04 0.0 0 1 645.38 10.77
  A 19.04 19.04 0.0 0 1 664.42 29.81
  Z
  M 661.81 29.77
  A 16.40 16.40 0.0 0 0 645.41 13.37
  A 16.40 16.40 0.0 0 0 629.01 29.77
  A 16.40 16.40 0.0 0 0 645.41 46.17
  A 16.40 16.40 0.0 0 0 661.81 29.77
  Z"
/>
<path d="
  M 649.26 31.71
  L 654.60 39.74
  Q 655.12 40.52 654.18 40.51
  L 652.23 40.48
  Q 651.72 40.48 651.45 40.05
  L 646.11 31.70
  Q 645.83 31.26 645.31 31.26
  L 640.86 31.25
  Q 640.40 31.24 640.41 31.70
  L 640.54 39.80
  Q 640.55 40.46 639.89 40.48
  L 638.39 40.51
  Q 637.75 40.52 637.75 39.88
  L 637.75 20.00
  Q 637.75 19.42 638.33 19.38
  C 643.57 19.01 652.12 17.83 653.82 23.54
  Q 655.53 29.30 649.39 31.32
  A 0.26 0.25 64.4 0 0 649.26 31.71
  Z
  M 640.46 22.14
  L 640.44 28.50
  A 0.66 0.66 0.0 0 0 641.10 29.16
  L 646.63 29.18
  A 4.63 3.41 0.2 0 0 651.27 25.79
  L 651.27 24.93
  A 4.63 3.41 0.2 0 0 646.65 21.50
  L 641.12 21.48
  A 0.66 0.66 0.0 0 0 640.46 22.14
  Z"
/>
<path d="
  M 165.49 201.72
  L 254.00 201.90
  Q 262.70 203.70 266.82 203.71
  Q 307.90 203.79 348.99 203.74
  Q 349.50 203.73 349.75 203.29
  Q 350.14 202.59 349.79 201.75
  Q 372.52 202.34 395.25 201.79
  Q 402.88 203.73 406.06 203.73
  Q 457.03 203.77 508.00 203.74
  Q 508.52 203.74 508.73 203.26
  L 509.29 202.00
  L 515.25 202.04
  Q 514.99 202.60 515.04 203.19
  Q 515.10 203.75 515.66 203.75
  Q 528.93 203.75 542.20 203.75
  C 543.70 203.75 544.25 203.01 544.15 201.58
  Q 552.60 202.32 560.96 202.00
  L 561.09 203.13
  Q 561.15 203.68 561.69 203.69
  Q 601.35 204.19 641.00 203.54
  C 642.98 204.85 645.48 205.57 647.23 206.66
  C 665.92 218.34 668.47 243.96 652.05 258.82
  C 644.51 265.64 636.30 266.99 625.36 267.00
  Q 366.56 267.00 107.75 266.97
  C 83.94 266.96 67.00 244.28 76.82 221.66
  Q 82.10 209.50 95.10 203.69
  Q 123.83 203.70 152.78 203.52
  C 157.14 203.49 161.17 202.39 165.49 201.72
  Z
  M 130.61 250.24
  A 2.13 2.12 -75.8 0 1 129.52 248.40
  Q 129.45 235.06 129.53 221.81
  C 129.56 216.84 140.64 218.30 143.34 219.31
  A 2.01 2.00 9.3 0 1 144.65 221.13
  L 144.80 226.27
  Q 144.82 226.93 145.47 226.94
  L 158.58 227.23
  Q 159.18 227.24 159.26 226.64
  C 160.58 216.54 153.99 212.41 144.98 211.52
  C 136.67 210.70 120.58 209.71 115.56 217.96
  Q 114.27 220.08 114.26 224.44
  Q 114.22 235.66 114.27 246.89
  C 114.33 262.48 146.94 261.02 155.15 254.90
  C 159.81 251.43 159.35 247.08 159.23 241.87
  Q 159.20 240.54 157.87 240.56
  L 145.22 240.78
  A 0.40 0.39 86.7 0 0 144.83 241.22
  Q 145.24 244.73 144.64 248.21
  C 143.72 253.47 133.51 251.87 130.61 250.24
  Z
  M 203.99 251.00
  A 0.35 0.35 0.0 0 1 203.64 250.65
  L 203.57 211.35
  A 0.35 0.35 0.0 0 0 203.22 211.00
  L 188.67 211.00
  A 0.35 0.35 0.0 0 0 188.32 211.35
  L 188.31 257.68
  A 0.35 0.35 0.0 0 0 188.66 258.03
  L 228.15 257.99
  A 0.35 0.35 0.0 0 0 228.50 257.64
  L 228.50 251.35
  A 0.35 0.35 0.0 0 0 228.15 251.00
  L 203.99 251.00
  Z
  M 284.09 249.12
  A 0.33 0.33 0.0 0 1 284.41 249.36
  L 286.81 257.69
  A 0.33 0.33 0.0 0 0 287.12 257.92
  L 302.01 258.18
  A 0.33 0.33 0.0 0 0 302.33 257.75
  L 287.08 211.23
  A 0.33 0.33 0.0 0 0 286.77 211.00
  L 265.00 211.00
  A 0.33 0.33 0.0 0 0 264.69 211.23
  L 249.40 257.82
  A 0.33 0.33 0.0 0 0 249.72 258.25
  L 263.17 258.25
  A 0.33 0.33 0.0 0 0 263.49 258.01
  L 266.05 249.19
  A 0.33 0.33 0.0 0 1 266.37 248.95
  L 284.09 249.12
  Z
  M 338.83 249.31
  L 338.37 244.77
  Q 338.29 244.00 337.51 244.00
  L 324.79 244.00
  Q 324.37 244.00 324.30 244.41
  C 322.53 254.20 331.21 257.83 339.07 258.61
  C 347.14 259.41 370.99 260.32 368.97 245.97
  C 367.94 238.66 355.99 233.96 349.54 231.17
  C 323.70 219.96 356.46 211.79 354.44 224.34
  Q 354.33 224.98 354.98 224.98
  L 368.32 225.03
  Q 368.89 225.04 368.94 224.46
  C 370.32 208.12 343.15 210.39 334.27 212.27
  C 330.14 213.15 326.04 216.08 324.78 220.26
  C 321.40 231.48 343.07 237.85 350.02 242.16
  C 354.45 244.91 355.99 250.30 349.31 251.63
  Q 344.12 252.66 339.44 250.22
  Q 338.89 249.93 338.83 249.31
  Z
  M 407.77 249.17
  L 407.40 244.44
  Q 407.37 244.00 406.93 244.00
  L 393.79 244.00
  Q 393.29 244.00 393.24 244.50
  C 391.47 261.40 416.71 260.07 426.98 257.91
  C 437.58 255.69 442.79 246.42 432.91 238.69
  C 427.02 234.08 408.59 228.96 408.77 222.57
  C 408.93 216.58 424.91 215.71 423.45 224.39
  Q 423.35 224.98 423.95 224.98
  L 437.33 225.03
  Q 437.90 225.04 437.96 224.46
  C 439.45 207.59 407.46 209.32 399.02 214.00
  C 393.09 217.29 391.48 224.12 396.26 229.19
  C 400.09 233.25 406.72 236.02 413.22 238.95
  C 416.40 240.38 425.09 244.41 422.36 249.21
  C 420.10 253.18 411.72 251.93 408.47 250.22
  Q 407.83 249.89 407.77 249.17
  Z
  M 479.73 211.48
  A 0.47 0.47 0.0 0 0 479.26 211.01
  L 464.72 211.01
  A 0.47 0.47 0.0 0 0 464.25 211.48
  L 464.25 257.64
  A 0.47 0.47 0.0 0 0 464.72 258.11
  L 479.26 258.11
  A 0.47 0.47 0.0 0 0 479.73 257.64
  L 479.73 211.48
  Z
  M 523.42 250.17
  A 1.76 1.76 0.0 0 1 522.52 248.65
  Q 522.45 235.21 522.53 221.81
  C 522.56 217.49 539.55 215.09 537.66 224.70
  A 1.91 1.91 0.0 0 0 539.50 226.98
  L 551.94 227.18
  A 0.51 0.49 87.9 0 0 552.44 226.63
  C 552.20 224.30 552.46 221.55 551.76 219.57
  C 549.96 214.52 544.04 212.33 539.18 211.65
  C 530.52 210.43 507.34 209.12 507.27 222.99
  Q 507.21 234.94 507.27 246.90
  C 507.34 260.54 529.29 259.58 538.00 258.48
  C 548.41 257.17 554.03 252.03 552.21 241.01
  Q 552.11 240.41 551.50 240.42
  L 538.72 240.76
  Q 538.08 240.78 538.04 241.42
  C 537.86 244.51 538.83 249.68 535.08 251.01
  Q 528.87 253.22 523.42 250.17
  Z
  M 593.77 249.16
  L 593.40 244.44
  Q 593.37 244.00 592.93 244.00
  L 579.77 244.00
  Q 579.15 244.00 579.11 244.62
  Q 578.40 254.95 588.55 257.43
  C 596.30 259.32 606.12 259.83 613.86 257.85
  C 622.86 255.55 628.56 246.99 619.96 239.58
  C 613.95 234.40 604.93 231.80 598.35 227.69
  C 595.42 225.85 593.77 223.38 595.45 220.10
  Q 595.68 219.66 596.13 219.46
  Q 602.09 216.86 608.06 219.41
  Q 608.53 219.61 608.76 220.06
  Q 609.82 222.11 609.46 224.43
  Q 609.38 225.02 609.96 225.02
  L 623.34 225.02
  Q 623.90 225.02 623.95 224.46
  C 625.38 207.40 593.76 209.50 585.05 214.08
  C 576.63 218.50 578.51 228.04 585.81 232.21
  C 589.71 234.43 606.97 241.20 608.59 246.01
  C 611.18 253.68 597.74 251.95 594.45 250.20
  Q 593.83 249.87 593.77 249.16
  Z"
/>
<path d="
  M 268.18 242.55
  L 274.79 220.99
  A 0.35 0.35 0.0 0 1 275.45 220.99
  L 282.06 242.55
  A 0.35 0.35 0.0 0 1 281.72 243.00
  L 268.52 243.00
  A 0.35 0.35 0.0 0 1 268.18 242.55
  Z"
/>
</g>
<g fill="#ffffff">
<path d="
  M 562.96 146.50
  Q 563.00 146.63 563.04 146.75
  L 561.64 150.25
  Q 561.53 150.50 561.27 150.50
  Q 561.13 150.50 560.99 150.50
  Q 560.80 150.50 560.82 150.31
  C 560.95 148.80 560.93 145.45 562.96 146.50
  Z"
/>
<path d="
  M 130.61 250.24
  C 133.51 251.87 143.72 253.47 144.64 248.21
  Q 145.24 244.73 144.83 241.22
  A 0.40 0.39 86.7 0 1 145.22 240.78
  L 157.87 240.56
  Q 159.20 240.54 159.23 241.87
  C 159.35 247.08 159.81 251.43 155.15 254.90
  C 146.94 261.02 114.33 262.48 114.27 246.89
  Q 114.22 235.66 114.26 224.44
  Q 114.27 220.08 115.56 217.96
  C 120.58 209.71 136.67 210.70 144.98 211.52
  C 153.99 212.41 160.58 216.54 159.26 226.64
  Q 159.18 227.24 158.58 227.23
  L 145.47 226.94
  Q 144.82 226.93 144.80 226.27
  L 144.65 221.13
  A 2.01 2.00 9.3 0 0 143.34 219.31
  C 140.64 218.30 129.56 216.84 129.53 221.81
  Q 129.45 235.06 129.52 248.40
  A 2.13 2.12 -75.8 0 0 130.61 250.24
  Z"
/>
<path d="
  M 203.99 251.00
  L 228.15 251.00
  A 0.35 0.35 0.0 0 1 228.50 251.35
  L 228.50 257.64
  A 0.35 0.35 0.0 0 1 228.15 257.99
  L 188.66 258.03
  A 0.35 0.35 0.0 0 1 188.31 257.68
  L 188.32 211.35
  A 0.35 0.35 0.0 0 1 188.67 211.00
  L 203.22 211.00
  A 0.35 0.35 0.0 0 1 203.57 211.35
  L 203.64 250.65
  A 0.35 0.35 0.0 0 0 203.99 251.00
  Z"
/>
<path d="
  M 284.09 249.12
  L 266.37 248.95
  A 0.33 0.33 0.0 0 0 266.05 249.19
  L 263.49 258.01
  A 0.33 0.33 0.0 0 1 263.17 258.25
  L 249.72 258.25
  A 0.33 0.33 0.0 0 1 249.40 257.82
  L 264.69 211.23
  A 0.33 0.33 0.0 0 1 265.00 211.00
  L 286.77 211.00
  A 0.33 0.33 0.0 0 1 287.08 211.23
  L 302.33 257.75
  A 0.33 0.33 0.0 0 1 302.01 258.18
  L 287.12 257.92
  A 0.33 0.33 0.0 0 1 286.81 257.69
  L 284.41 249.36
  A 0.33 0.33 0.0 0 0 284.09 249.12
  Z
  M 268.18 242.55
  A 0.35 0.35 0.0 0 0 268.52 243.00
  L 281.72 243.00
  A 0.35 0.35 0.0 0 0 282.06 242.55
  L 275.45 220.99
  A 0.35 0.35 0.0 0 0 274.79 220.99
  L 268.18 242.55
  Z"
/>
<path d="
  M 339.44 250.22
  Q 344.12 252.66 349.31 251.63
  C 355.99 250.30 354.45 244.91 350.02 242.16
  C 343.07 237.85 321.40 231.48 324.78 220.26
  C 326.04 216.08 330.14 213.15 334.27 212.27
  C 343.15 210.39 370.32 208.12 368.94 224.46
  Q 368.89 225.04 368.32 225.03
  L 354.98 224.98
  Q 354.33 224.98 354.44 224.34
  C 356.46 211.79 323.70 219.96 349.54 231.17
  C 355.99 233.96 367.94 238.66 368.97 245.97
  C 370.99 260.32 347.14 259.41 339.07 258.61
  C 331.21 257.83 322.53 254.20 324.30 244.41
  Q 324.37 244.00 324.79 244.00
  L 337.51 244.00
  Q 338.29 244.00 338.37 244.77
  L 338.83 249.31
  Q 338.89 249.93 339.44 250.22
  Z"
/>
<path d="
  M 408.47 250.22
  C 411.72 251.93 420.10 253.18 422.36 249.21
  C 425.09 244.41 416.40 240.38 413.22 238.95
  C 406.72 236.02 400.09 233.25 396.26 229.19
  C 391.48 224.12 393.09 217.29 399.02 214.00
  C 407.46 209.32 439.45 207.59 437.96 224.46
  Q 437.90 225.04 437.33 225.03
  L 423.95 224.98
  Q 423.35 224.98 423.45 224.39
  C 424.91 215.71 408.93 216.58 408.77 222.57
  C 408.59 228.96 427.02 234.08 432.91 238.69
  C 442.79 246.42 437.58 255.69 426.98 257.91
  C 416.71 260.07 391.47 261.40 393.24 244.50
  Q 393.29 244.00 393.79 244.00
  L 406.93 244.00
  Q 407.37 244.00 407.40 244.44
  L 407.77 249.17
  Q 407.83 249.89 408.47 250.22
  Z"
/>
<rect x="464.25" y="211.01" width="15.48" height="47.10" rx="0.47"/>
<path d="
  M 523.42 250.17
  Q 528.87 253.22 535.08 251.01
  C 538.83 249.68 537.86 244.51 538.04 241.42
  Q 538.08 240.78 538.72 240.76
  L 551.50 240.42
  Q 552.11 240.41 552.21 241.01
  C 554.03 252.03 548.41 257.17 538.00 258.48
  C 529.29 259.58 507.34 260.54 507.27 246.90
  Q 507.21 234.94 507.27 222.99
  C 507.34 209.12 530.52 210.43 539.18 211.65
  C 544.04 212.33 549.96 214.52 551.76 219.57
  C 552.46 221.55 552.20 224.30 552.44 226.63
  A 0.51 0.49 87.9 0 1 551.94 227.18
  L 539.50 226.98
  A 1.91 1.91 0.0 0 1 537.66 224.70
  C 539.55 215.09 522.56 217.49 522.53 221.81
  Q 522.45 235.21 522.52 248.65
  A 1.76 1.76 0.0 0 0 523.42 250.17
  Z"
/>
<path d="
  M 594.45 250.20
  C 597.74 251.95 611.18 253.68 608.59 246.01
  C 606.97 241.20 589.71 234.43 585.81 232.21
  C 578.51 228.04 576.63 218.50 585.05 214.08
  C 593.76 209.50 625.38 207.40 623.95 224.46
  Q 623.90 225.02 623.34 225.02
  L 609.96 225.02
  Q 609.38 225.02 609.46 224.43
  Q 609.82 222.11 608.76 220.06
  Q 608.53 219.61 608.06 219.41
  Q 602.09 216.86 596.13 219.46
  Q 595.68 219.66 595.45 220.10
  C 593.77 223.38 595.42 225.85 598.35 227.69
  C 604.93 231.80 613.95 234.40 619.96 239.58
  C 628.56 246.99 622.86 255.55 613.86 257.85
  C 606.12 259.83 596.30 259.32 588.55 257.43
  Q 578.40 254.95 579.11 244.62
  Q 579.15 244.00 579.77 244.00
  L 592.93 244.00
  Q 593.37 244.00 593.40 244.44
  L 593.77 249.16
  Q 593.83 249.87 594.45 250.20
  Z"
/>
</g>
</svg>
