<?xml version="1.0" encoding="UTF-8" standalone="no"?>
<!DOCTYPE svg PUBLIC "-//W3C//DTD SVG 1.1//EN" "http://www.w3.org/Graphics/SVG/1.1/DTD/svg11.dtd">
<svg xmlns="http://www.w3.org/2000/svg" version="1.1" viewBox="0 0 784 285">
<g stroke-width="2.00" fill="none" stroke-linecap="butt">
<path stroke="#808080" vector-effect="non-scaling-stroke" d="
  M 753.95 14.52
  Q 751.25 11.61 748.32 9.67
  A 0.99 0.97 61.8 0 0 747.77 9.50
  Q 422.63 9.50 97.50 9.56
  Q 93.21 9.56 91.65 11.15
  Q 57.55 45.83 22.82 79.91
  C 17.35 85.28 17.30 90.23 22.69 95.93
  Q 43.41 117.80 65.09 138.79
  A 1.00 1.00 0.0 0 1 65.12 140.20
  Q 38.77 168.06 12.40 195.90
  Q 10.00 198.44 10.36 202.97
  A 0.92 0.90 55.7 0 1 10.27 203.48
  C 6.98 210.35 10.30 213.11 12.36 219.09
  C 16.77 231.89 22.07 244.35 26.20 257.24
  C 27.93 262.63 29.69 265.25 35.50 265.25
  Q 165.85 265.25 296.22 265.25
  A 1.00 0.98 70.2 0 1 296.99 265.62
  Q 299.94 269.23 303.08 272.68
  C 305.75 275.62 309.47 275.49 313.25 275.49
  Q 380.97 275.51 448.69 275.49
  C 456.37 275.49 459.01 265.25 463.13 265.25
  Q 547.94 265.25 632.51 265.25
  A 1.02 0.98 -60.3 0 0 633.05 265.09
  Q 662.70 246.05 692.05 226.57
  Q 699.76 221.46 707.68 216.67
  C 711.37 214.43 714.67 209.07 711.70 205.08
  A 1.00 1.00 0.0 0 1 711.80 203.77
  Q 742.05 173.72 772.26 143.64
  C 775.06 140.86 775.81 137.13 773.03 134.25
  Q 754.80 115.29 725.50 87.24
  A 1.00 1.00 0.0 0 1 725.49 85.81
  Q 747.33 64.12 769.05 42.30
  C 773.46 37.87 771.64 32.56 767.55 28.44
  C 762.97 23.83 758.37 19.29 753.95 14.52"
/>
<path stroke="#808080" vector-effect="non-scaling-stroke" d="
  M 722.39 86.12
  Q 755.93 52.95 767.54 41.03
  C 770.84 37.64 769.83 33.58 766.63 30.33
  Q 757.17 20.74 748.32 11.81
  A 1.02 0.98 -21.8 0 0 747.61 11.52
  C 530.07 11.40 312.72 11.30 94.97 11.54
  A 1.01 1.00 -64.5 0 0 94.33 11.77
  C 89.61 15.67 84.40 21.44 81.02 24.84
  Q 52.18 53.80 23.15 82.57
  C 19.04 86.64 20.56 90.70 24.19 94.56
  Q 45.49 117.18 67.85 138.76
  A 1.00 0.99 -46.4 0 1 67.88 140.16
  Q 41.72 167.72 15.68 195.39
  C 12.80 198.44 12.28 200.03 12.25 204.07
  Q 12.24 204.32 12.12 204.54
  Q 10.14 208.15 11.27 211.03
  Q 20.51 234.73 28.93 258.72
  C 29.82 261.24 31.63 263.25 34.25 263.25
  Q 165.55 263.25 296.85 263.25
  A 1.00 0.99 66.8 0 1 297.54 263.53
  C 301.96 267.74 304.00 273.53 310.25 273.53
  Q 379.22 273.52 448.19 273.53
  C 453.09 273.53 457.67 267.67 460.13 263.72
  A 1.02 1.00 -73.5 0 1 460.98 263.25
  L 632.06 263.25
  A 1.03 1.01 28.2 0 0 632.61 263.09
  Q 669.53 238.85 706.59 214.71
  Q 709.63 212.73 710.45 210.87
  Q 711.82 207.75 709.10 205.22
  A 1.00 1.00 0.0 0 1 709.08 203.78
  Q 740.18 172.67 771.46 141.74
  C 773.48 139.74 773.09 137.11 771.15 135.13
  Q 748.90 112.36 722.70 87.30
  Q 722.56 87.17 722.43 87.07
  A 0.65 0.64 43.0 0 1 722.39 86.12"
/>
<path stroke="#99b8b8" vector-effect="non-scaling-stroke" d="
  M 32.00 96.54
  L 40.00 105.29"
/>
<path stroke="#80c2e3" vector-effect="non-scaling-stroke" d="
  M 40.00 105.29
  C 49.16 114.73 58.21 124.40 68.15 133.03
  Q 71.50 135.94 74.27 139.40"
/>
<path stroke="#84c5e7" vector-effect="non-scaling-stroke" d="
  M 74.27 139.40
  Q 46.16 169.08 18.19 198.68
  Q 17.07 199.86 16.40 201.33
  A 1.00 1.00 0.0 0 0 17.31 202.75
  L 282.40 202.75
  A 1.01 1.01 0.0 0 1 283.24 203.20
  L 296.17 222.56
  A 1.01 1.00 72.8 0 0 297.00 223.00
  L 464.02 223.00
  A 1.01 1.00 -72.8 0 0 464.85 222.56
  L 478.11 202.70
  A 1.01 0.99 -72.8 0 1 478.94 202.25
  L 704.05 202.25
  A 1.01 0.99 -66.0 0 0 704.73 201.98
  C 714.60 192.79 725.55 181.41 733.51 173.63
  Q 751.02 156.51 768.22 139.19
  A 1.00 1.00 0.0 0 0 768.22 137.77
  L 735.04 104.75"
/>
<path stroke="#808080" vector-effect="non-scaling-stroke" d="
  M 735.04 104.75
  L 733.50 103.21"
/>
<path stroke="#ace6eb" vector-effect="non-scaling-stroke" d="
  M 733.50 103.21
  Q 729.80 99.39 725.46 96.30
  Q 722.91 94.48 716.81 87.01
  A 1.00 0.99 47.7 0 1 716.87 85.67
  L 765.71 36.94
  A 1.00 1.00 0.0 0 0 765.71 35.53
  L 746.15 15.80
  A 0.99 0.98 -21.8 0 0 745.44 15.50
  C 529.31 15.48 336.01 15.31 96.84 15.52
  A 1.02 0.98 21.8 0 0 96.13 15.81
  L 25.93 85.68
  Q 24.15 87.45 25.56 89.52
  Q 27.85 92.88 32.00 96.54"
/>
<path stroke="#2c676b" vector-effect="non-scaling-stroke" d="
  M 733.50 103.21
  C 731.69 102.81 727.42 99.40 726.69 99.61
  A 1.00 0.99 -39.3 0 1 725.96 99.54
  C 724.51 98.80 723.41 99.26 722.20 99.26
  Q 707.98 99.19 693.74 99.37"
/>
<path stroke="#ace6eb" vector-effect="non-scaling-stroke" d="
  M 693.74 99.37
  L 681.08 86.58
  A 1.00 1.00 0.0 0 1 681.10 85.16
  Q 709.48 57.33 737.32 29.08
  Q 738.26 28.13 738.03 26.92
  A 1.00 1.00 0.0 0 0 737.05 26.10
  C 532.14 26.23 325.93 26.39 122.39 26.24
  A 1.04 1.03 22.8 0 0 121.67 26.53
  L 62.95 85.68
  A 1.01 1.01 0.0 0 0 62.92 87.06
  L 70.25 95.21"
/>
<path stroke="#469fa3" vector-effect="non-scaling-stroke" d="
  M 70.25 95.21
  C 64.83 96.57 60.27 94.41 54.94 95.14
  C 48.86 95.98 42.78 96.50 36.70 97.38
  C 34.92 97.64 33.65 96.99 32.00 96.54"
/>
<path stroke="#1a3838" vector-effect="non-scaling-stroke" d="
  M 75.29 100.00
  L 75.15 100.39
  A 1.00 1.00 0.0 0 1 73.79 100.96
  Q 72.62 100.42 71.38 100.62
  C 67.52 101.24 63.71 100.88 59.82 100.83
  Q 59.03 100.83 55.25 101.14
  Q 47.75 101.76 40.25 101.33
  A 1.01 0.99 -81.8 0 0 39.22 102.11
  Q 38.83 103.87 40.75 104.71"
/>
<path stroke="#1a7a9c" vector-effect="non-scaling-stroke" d="
  M 40.75 104.71
  L 40.00 105.29"
/>
<path stroke="#808080" vector-effect="non-scaling-stroke" d="
  M 693.74 99.37
  L 699.92 105.26"
/>
<path stroke="#84c5e7" vector-effect="non-scaling-stroke" d="
  M 699.92 105.26
  Q 715.29 121.28 731.40 136.32
  A 1.01 1.00 -47.5 0 1 731.46 137.72
  C 717.90 152.80 702.67 166.71 688.40 181.40
  Q 683.33 186.61 677.27 190.67
  A 1.00 0.92 -60.4 0 1 676.73 190.84
  C 634.11 191.48 591.44 191.92 548.81 191.44
  Q 513.25 191.04 477.67 191.33
  Q 474.99 191.36 472.94 193.44
  L 455.01 211.69
  A 1.03 1.01 -67.2 0 1 454.29 211.99
  L 305.78 211.86
  A 1.04 1.01 66.5 0 1 305.07 211.57
  L 285.60 191.91
  A 1.03 0.98 66.5 0 0 284.89 191.61
  Q 243.68 191.55 202.50 191.47
  C 201.62 191.47 200.56 191.90 199.50 191.79"
/>
<path stroke="#ace6eb" vector-effect="non-scaling-stroke" d="
  M 199.50 191.79
  L 175.00 191.54"
/>
<path stroke="#84c5e7" vector-effect="non-scaling-stroke" d="
  M 175.00 191.54
  Q 134.72 191.39 94.43 191.52
  Q 79.48 191.57 64.51 191.51
  Q 62.24 191.50 63.78 189.83
  Q 87.60 164.00 113.02 139.72"
/>
<path stroke="#80c2e3" vector-effect="non-scaling-stroke" d="
  M 113.02 139.72
  Q 113.45 137.96 112.25 136.75
  Q 93.87 118.15 80.25 104.96"
/>
<path stroke="#808080" vector-effect="non-scaling-stroke" d="
  M 80.25 104.96
  L 75.29 100.00"
/>
<path stroke="#99b8b8" vector-effect="non-scaling-stroke" d="
  M 75.29 100.00
  L 70.25 95.21"
/>
<path stroke="#054667" vector-effect="non-scaling-stroke" d="
  M 735.04 104.75
  L 699.92 105.26"
/>
<path stroke="#0588cb" vector-effect="non-scaling-stroke" d="
  M 113.02 139.72
  Q 111.95 137.83 111.77 138.74
  Q 111.76 138.78 111.28 139.56
  Q 110.41 140.97 108.85 140.82
  A 0.99 0.99 0.0 0 1 107.96 139.99
  L 107.91 139.65
  A 0.65 0.64 75.1 0 0 107.05 139.15
  C 105.13 139.87 103.69 140.70 101.54 140.71
  C 96.59 140.74 92.29 142.16 87.46 142.78
  Q 85.60 143.02 82.80 143.76
  A 1.03 1.01 -37.6 0 1 82.06 143.67
  L 74.27 139.40"
/>
<path stroke="#004264" vector-effect="non-scaling-stroke" d="
  M 80.25 104.96
  L 40.75 104.71"
/>
<path stroke="#31acd2" vector-effect="non-scaling-stroke" d="
  M 175.00 191.54
  Q 187.25 192.32 199.50 191.79"
/>
<path stroke="#a9a9a9" vector-effect="non-scaling-stroke" d="
  M 465.67 227.49
  A 1.00 0.99 17.5 0 1 464.89 227.89
  Q 380.48 229.75 296.06 227.87
  A 1.05 1.01 -16.9 0 1 295.28 227.47
  L 280.81 208.26
  A 1.00 0.98 71.1 0 0 280.02 207.86
  L 16.17 207.88
  A 1.00 0.99 -10.9 0 0 15.24 209.24
  Q 24.91 233.57 33.40 258.32
  A 1.02 1.00 80.1 0 0 34.35 259.00
  L 299.19 259.00
  A 1.02 1.00 -20.3 0 1 299.95 259.34
  L 308.25 268.91
  A 1.02 1.00 -20.3 0 0 309.01 269.25
  L 449.25 269.25
  A 1.01 1.00 -69.1 0 0 450.00 268.91
  L 456.51 261.51
  Q 458.43 259.33 460.75 259.32
  L 630.74 258.97
  A 1.06 0.96 25.5 0 0 631.31 258.80
  C 644.60 249.61 658.17 241.23 671.48 232.36
  Q 684.39 223.76 705.70 210.21
  Q 706.84 209.49 706.11 208.36
  A 0.99 0.98 -16.2 0 0 705.28 207.91
  C 633.21 207.57 561.12 207.01 489.06 208.17
  C 486.98 208.21 483.43 207.87 480.47 208.34
  A 1.02 1.01 -75.1 0 0 479.82 208.72
  L 465.67 227.49"
/>
<path stroke="#ff8080" vector-effect="non-scaling-stroke" d="
  M 77.66 95.46
  Q 78.84 96.89 84.82 102.69
  Q 90.02 107.73 115.93 134.00"
/>
<path stroke="#808080" vector-effect="non-scaling-stroke" d="
  M 115.93 134.00
  L 116.30 140.71
  A 1.05 1.03 66.1 0 1 116.01 141.48
  L 72.68 185.01
  Q 70.94 186.75 73.40 186.71
  L 92.12 186.41"
/>
<path stroke="#ff8080" vector-effect="non-scaling-stroke" d="
  M 92.12 186.41
  Q 111.23 187.25 130.18 186.43"
/>
<path stroke="#c39395" vector-effect="non-scaling-stroke" d="
  M 130.18 186.43
  L 129.96 169.75"
/>
<path stroke="#ff8080" vector-effect="non-scaling-stroke" d="
  M 129.96 169.75
  Q 130.60 147.50 130.06 125.25"
/>
<path stroke="#c39395" vector-effect="non-scaling-stroke" d="
  M 130.06 125.25
  L 130.21 79.75"
/>
<path stroke="#ff8080" vector-effect="non-scaling-stroke" d="
  M 130.21 79.75
  Q 130.74 62.42 129.64 44.03"
/>
<path stroke="#808080" vector-effect="non-scaling-stroke" d="
  M 129.64 44.03
  Q 129.86 40.35 131.54 36.82
  A 1.02 1.01 -76.8 0 1 132.45 36.25
  L 165.39 36.25
  A 1.01 1.00 89.4 0 1 166.39 37.24
  L 166.52 46.86"
/>
<path stroke="#ff8080" vector-effect="non-scaling-stroke" d="
  M 166.52 46.86
  Q 166.43 54.23 166.25 61.30
  C 166.22 62.69 166.86 64.20 166.72 65.77
  Q 166.50 68.15 166.50 68.24
  Q 166.48 77.73 166.53 87.19
  A 1.01 1.00 0.0 0 0 167.54 88.19
  L 186.91 88.06"
/>
<path stroke="#808080" vector-effect="non-scaling-stroke" d="
  M 186.91 88.06
  L 201.75 88.06
  A 1.00 1.00 0.0 0 0 202.75 87.06
  L 202.75 37.25
  A 1.00 1.00 0.0 0 1 203.75 36.25
  L 238.10 36.25
  A 1.00 0.99 0.3 0 1 239.10 37.25
  L 239.09 46.73"
/>
<path stroke="#ff8080" vector-effect="non-scaling-stroke" d="
  M 239.09 46.73
  C 238.91 86.92 239.42 127.11 239.04 167.27
  Q 238.96 176.50 239.22 185.74
  A 1.00 1.00 0.0 0 0 240.22 186.71
  L 254.96 186.71"
/>
<path stroke="#808080" vector-effect="non-scaling-stroke" d="
  M 254.96 186.71
  L 269.25 186.74
  A 1.00 1.00 0.0 0 0 270.25 185.74
  L 270.25 32.03
  A 1.00 1.00 0.0 0 0 269.25 31.03
  Q 226.78 31.05 184.31 30.87
  C 163.50 30.77 142.71 31.17 121.90 30.84
  A 1.03 1.01 -67.2 0 0 121.18 31.14
  L 74.29 78.22
  A 0.99 0.99 0.0 0 0 74.00 78.92
  L 74.00 94.31
  A 0.99 0.99 0.0 0 0 74.94 95.30
  L 77.66 95.46"
/>
<path stroke="#800000" vector-effect="non-scaling-stroke" d="
  M 254.96 186.71
  L 254.72 47.71
  A 1.01 1.00 2.5 0 0 253.80 46.71
  Q 246.64 46.14 239.09 46.73"
/>
<path stroke="#800000" vector-effect="non-scaling-stroke" d="
  M 186.91 88.06
  L 187.31 47.47
  A 1.00 1.00 0.0 0 0 186.29 46.46
  L 166.52 46.86"
/>
<path stroke="#800000" vector-effect="non-scaling-stroke" d="
  M 129.64 44.03
  L 77.66 95.46"
/>
<path stroke="#c31415" vector-effect="non-scaling-stroke" d="
  M 130.21 79.75
  Q 128.65 102.50 130.06 125.25"
/>
<path stroke="#c31415" vector-effect="non-scaling-stroke" d="
  M 129.96 169.75
  Q 128.68 177.92 130.18 186.43"
/>
<path stroke="#800000" vector-effect="non-scaling-stroke" d="
  M 92.12 186.41
  L 124.42 153.57
  A 0.99 0.99 0.0 0 0 124.69 153.07
  C 126.54 143.77 123.52 138.84 115.93 134.00"
/>
<path stroke="#ff8080" vector-effect="non-scaling-stroke" d="
  M 419.23 63.83
  C 420.48 88.97 421.26 108.92 420.34 139.51
  C 419.85 155.61 420.05 170.97 420.25 186.71"
/>
<path stroke="#808080" vector-effect="non-scaling-stroke" d="
  M 420.25 186.71
  L 385.25 186.70
  A 1.00 1.00 0.0 0 1 384.25 185.70
  L 384.25 68.48
  A 1.00 1.00 0.0 0 0 383.27 67.48
  L 374.75 67.29"
/>
<path stroke="#c39395" vector-effect="non-scaling-stroke" d="
  M 374.75 67.29
  L 373.50 67.29"
/>
<path stroke="#ff8080" vector-effect="non-scaling-stroke" d="
  M 373.50 67.29
  L 364.25 67.26
  A 1.00 1.00 0.0 0 0 363.25 68.26
  L 363.16 186.75"
/>
<path stroke="#808080" vector-effect="non-scaling-stroke" d="
  M 363.16 186.75
  L 328.00 186.74
  A 1.00 1.00 0.0 0 1 327.00 185.74
  L 327.00 68.48
  A 1.00 1.00 0.0 0 0 326.02 67.48
  L 317.02 67.30"
/>
<path stroke="#ff8080" vector-effect="non-scaling-stroke" d="
  M 317.02 67.30
  L 307.53 67.45
  A 1.01 1.00 -0.9 0 0 306.54 68.46
  Q 306.75 86.11 306.62 103.75
  Q 306.62 104.26 306.62 104.75
  Q 306.51 145.10 306.49 185.47
  A 1.00 1.00 0.0 0 1 305.53 186.47
  L 295.03 186.88
  A 0.99 0.99 0.0 0 0 294.10 187.65
  C 293.38 190.83 293.34 193.78 295.79 196.34
  Q 301.11 201.90 307.39 207.27
  A 1.05 1.02 64.2 0 0 308.05 207.51
  C 355.67 207.38 403.49 208.22 451.14 207.19
  A 0.98 0.98 0.0 0 0 451.83 206.88
  L 472.50 185.46"
/>
<path stroke="#808080" vector-effect="non-scaling-stroke" d="
  M 472.50 185.46
  L 493.57 187.19
  Q 496.26 187.41 494.37 185.49
  L 452.55 143.10
  A 1.00 0.99 -68.5 0 1 452.26 142.42
  C 452.09 133.91 451.73 125.21 451.74 116.91
  Q 451.76 77.53 452.10 37.24
  A 1.00 0.99 0.0 0 1 453.10 36.25
  L 486.89 36.25
  A 1.00 1.00 0.0 0 1 487.89 37.24
  L 487.95 46.92"
/>
<path stroke="#ff8080" vector-effect="non-scaling-stroke" d="
  M 487.95 46.92
  Q 487.01 89.82 487.81 132.54
  A 1.03 1.02 -68.9 0 0 488.12 133.25
  L 506.75 150.83
  Q 508.10 152.10 508.42 150.28
  L 509.28 145.56"
/>
<path stroke="#808080" vector-effect="non-scaling-stroke" d="
  M 509.28 145.56
  C 511.88 146.17 521.86 135.33 524.09 133.05
  A 0.99 0.96 -23.2 0 0 524.38 132.36
  Q 524.66 107.09 524.62 81.81
  Q 524.59 59.56 524.51 37.25
  A 1.00 0.99 -0.3 0 1 525.51 36.25
  L 559.75 36.25
  A 1.00 1.00 0.0 0 1 560.75 37.28
  L 560.48 46.85"
/>
<path stroke="#ff8080" vector-effect="non-scaling-stroke" d="
  M 560.48 46.85
  L 560.23 56.31
  Q 560.22 56.53 560.32 56.74
  C 561.16 58.65 560.45 60.73 560.48 62.14
  Q 561.44 101.61 560.60 141.14
  A 1.04 1.02 67.1 0 1 560.34 141.80
  C 556.02 146.46 551.80 151.36 547.38 155.74
  Q 532.52 170.50 517.95 185.38
  Q 516.61 186.74 518.52 186.74
  L 571.08 186.72"
/>
<path stroke="#808080" vector-effect="non-scaling-stroke" d="
  M 571.08 186.72
  L 585.57 186.61
  A 1.00 0.99 -0.6 0 0 586.56 185.61
  Q 586.32 139.80 586.48 94.00
  Q 586.58 65.65 586.73 37.31
  A 1.00 0.99 -0.6 0 1 587.71 36.32
  Q 606.56 35.95 625.38 36.74
  A 1.02 0.99 -20.3 0 1 626.04 37.03
  C 641.39 52.18 656.59 67.31 672.40 82.36
  C 676.58 86.35 680.92 81.69 683.80 78.80
  Q 707.00 55.61 729.95 32.50
  Q 731.64 30.80 729.24 30.80
  L 388.48 30.92
  Q 386.56 30.92 387.91 32.28
  L 419.23 63.83"
/>
<path stroke="#800000" vector-effect="non-scaling-stroke" d="
  M 571.08 186.72
  L 570.98 47.56
  A 1.00 0.99 -87.1 0 0 570.09 46.57
  Q 565.30 46.05 560.48 46.85"
/>
<path stroke="#800000" vector-effect="non-scaling-stroke" d="
  M 509.28 145.56
  C 507.92 114.32 509.09 80.07 508.97 47.49
  A 1.00 1.00 0.0 0 0 508.00 46.49
  Q 498.06 46.19 487.95 46.92"
/>
<path stroke="#800000" vector-effect="non-scaling-stroke" d="
  M 472.50 185.46
  C 462.19 172.30 448.55 159.33 436.57 147.95
  A 0.97 0.97 0.0 0 1 436.25 147.23
  L 436.25 47.52
  A 1.00 1.00 0.0 0 0 435.27 46.52
  L 410.26 45.98
  Q 408.23 45.94 409.43 47.58
  C 411.61 50.53 420.27 60.55 419.23 63.83"
/>
<path stroke="#800000" vector-effect="non-scaling-stroke" d="
  M 317.02 67.30
  L 317.00 196.87
  A 1.00 0.99 11.0 0 0 317.63 197.79
  Q 318.51 198.15 319.50 197.79"
/>
<path stroke="#c31415" vector-effect="non-scaling-stroke" d="
  M 319.50 197.79
  Q 322.22 198.90 325.00 197.79"
/>
<path stroke="#800000" vector-effect="non-scaling-stroke" d="
  M 325.00 197.79
  C 337.24 198.67 349.65 197.92 361.97 197.95
  A 1.00 0.99 3.5 0 0 362.97 197.07
  Q 363.55 191.77 363.16 186.75"
/>
<path stroke="#c31415" vector-effect="non-scaling-stroke" d="
  M 373.50 67.29
  L 374.04 70.25"
/>
<path stroke="#800000" vector-effect="non-scaling-stroke" d="
  M 374.04 70.25
  L 373.96 73.25"
/>
<path stroke="#c31415" vector-effect="non-scaling-stroke" d="
  M 373.96 73.25
  Q 373.23 75.79 373.22 77.75
  Q 373.12 117.59 373.32 195.35
  C 373.33 200.17 376.54 198.47 379.51 198.48
  Q 399.42 198.58 419.40 198.41
  A 1.00 1.00 0.0 0 0 420.39 197.44
  L 420.46 195.25"
/>
<path stroke="#800000" vector-effect="non-scaling-stroke" d="
  M 420.46 195.25
  L 420.25 186.71"
/>
<path stroke="#431415" vector-effect="non-scaling-stroke" d="
  M 420.46 195.25
  Q 420.46 196.50 419.76 197.36
  A 1.03 1.00 19.3 0 1 418.98 197.72
  L 375.50 197.59
  A 1.00 1.00 0.0 0 1 374.50 196.59
  L 374.50 76.25
  Q 374.50 76.01 374.39 75.79
  Q 373.78 74.61 373.96 73.25"
/>
<path stroke="#431415" vector-effect="non-scaling-stroke" d="
  M 374.75 67.29
  L 374.04 70.25"
/>
<path stroke="#431415" vector-effect="non-scaling-stroke" d="
  M 325.00 197.79
  L 319.50 197.79"
/>
<path stroke="#808080" vector-effect="non-scaling-stroke" d="
  M 275.04 99.25
  L 275.04 105.25"
/>
<path stroke="#80c2e3" vector-effect="non-scaling-stroke" d="
  M 275.04 105.25
  Q 274.55 143.66 275.16 182.03
  A 1.00 1.00 0.0 0 0 276.16 183.02
  L 300.98 182.95
  A 1.00 1.00 0.0 0 0 301.98 181.95
  L 301.96 105.25"
/>
<path stroke="#808080" vector-effect="non-scaling-stroke" d="
  M 301.96 105.25
  L 301.96 99.00"
/>
<path stroke="#ace6eb" vector-effect="non-scaling-stroke" d="
  M 301.96 99.00
  L 301.93 63.50
  A 1.01 1.00 -90.0 0 1 302.93 62.49
  L 330.72 62.47
  A 1.00 1.00 0.0 0 1 331.72 63.46
  L 332.01 96.88"
/>
<path stroke="#99b8b8" vector-effect="non-scaling-stroke" d="
  M 332.01 96.88
  L 332.02 98.77"
/>
<path stroke="#808080" vector-effect="non-scaling-stroke" d="
  M 332.02 98.77
  L 332.01 105.40"
/>
<path stroke="#80c2e3" vector-effect="non-scaling-stroke" d="
  M 332.01 105.40
  L 332.01 181.00
  A 1.00 1.00 0.0 0 0 333.01 182.00
  L 357.97 182.00
  A 1.00 1.00 0.0 0 0 358.97 181.00
  L 358.96 105.00"
/>
<path stroke="#808080" vector-effect="non-scaling-stroke" d="
  M 358.96 105.00
  L 358.96 99.25"
/>
<path stroke="#99b8b8" vector-effect="non-scaling-stroke" d="
  M 358.96 99.25
  L 358.96 97.25"
/>
<path stroke="#ace6eb" vector-effect="non-scaling-stroke" d="
  M 358.96 97.25
  L 359.03 63.48
  A 1.00 1.00 0.0 0 1 360.03 62.48
  L 387.95 62.51
  A 1.00 0.99 90.0 0 1 388.94 63.51
  L 389.04 99.25"
/>
<path stroke="#808080" vector-effect="non-scaling-stroke" d="
  M 389.04 99.25
  L 389.01 105.42"
/>
<path stroke="#80c2e3" vector-effect="non-scaling-stroke" d="
  M 389.01 105.42
  L 389.01 181.02
  A 1.00 1.00 0.0 0 0 390.01 182.02
  L 414.87 181.99
  A 1.00 1.00 0.0 0 0 415.87 180.99
  L 415.89 133.25"
/>
<path stroke="#99b8b8" vector-effect="non-scaling-stroke" d="
  M 415.89 133.25
  L 415.96 105.25"
/>
<path stroke="#808080" vector-effect="non-scaling-stroke" d="
  M 415.96 105.25
  L 415.98 99.60"
/>
<path stroke="#ace6eb" vector-effect="non-scaling-stroke" d="
  M 415.98 99.60
  L 415.99 64.83
  A 1.03 1.01 22.8 0 0 415.69 64.11
  L 382.45 31.29
  A 0.99 0.99 0.0 0 0 381.75 31.00
  L 276.06 31.00
  A 1.00 1.00 0.0 0 0 275.06 32.00
  L 275.04 99.25"
/>
<path stroke="#2c676b" vector-effect="non-scaling-stroke" d="
  M 415.98 99.60
  L 389.04 99.25"
/>
<path stroke="#469fa3" vector-effect="non-scaling-stroke" d="
  M 358.96 97.25
  L 332.01 96.88"
/>
<path stroke="#2c676b" vector-effect="non-scaling-stroke" d="
  M 301.96 99.00
  L 275.04 99.25"
/>
<path stroke="#1a3838" vector-effect="non-scaling-stroke" d="
  M 415.96 105.25
  L 415.50 105.29"
/>
<path stroke="#004264" vector-effect="non-scaling-stroke" d="
  M 415.50 105.29
  Q 402.28 104.47 389.01 105.42"
/>
<path stroke="#004264" vector-effect="non-scaling-stroke" d="
  M 301.96 105.25
  Q 288.50 104.63 275.04 105.25"
/>
<path stroke="#1a3838" vector-effect="non-scaling-stroke" d="
  M 358.96 99.25
  Q 345.48 99.58 332.02 98.77"
/>
<path stroke="#1a7a9c" vector-effect="non-scaling-stroke" d="
  M 415.50 105.29
  L 415.89 133.25"
/>
<path stroke="#004264" vector-effect="non-scaling-stroke" d="
  M 358.96 105.00
  L 332.01 105.40"
/>
<path stroke="#99b8b8" vector-effect="non-scaling-stroke" d="
  M 591.04 97.25
  L 591.04 99.11"
/>
<path stroke="#808080" vector-effect="non-scaling-stroke" d="
  M 591.04 99.11
  L 590.94 105.12"
/>
<path stroke="#80c2e3" vector-effect="non-scaling-stroke" d="
  M 590.94 105.12
  L 591.07 180.99
  A 1.00 1.00 0.0 0 0 592.07 181.99
  L 618.00 182.02
  A 1.00 1.00 0.0 0 0 619.00 181.02
  L 619.00 120.00
  A 1.00 1.00 0.0 0 1 620.00 119.00
  Q 658.58 119.02 697.69 118.78
  Q 699.86 118.76 700.71 118.62
  Q 703.51 118.15 701.56 116.21
  L 690.30 104.97"
/>
<path stroke="#808080" vector-effect="non-scaling-stroke" d="
  M 690.30 104.97
  L 684.00 98.46"
/>
<path stroke="#99b8b8" vector-effect="non-scaling-stroke" d="
  M 684.00 98.46
  L 680.74 95.37"
/>
<path stroke="#ace6eb" vector-effect="non-scaling-stroke" d="
  M 680.74 95.37
  C 663.33 78.34 646.45 60.77 628.41 44.55
  C 625.02 41.51 623.07 41.22 618.71 41.08
  Q 602.03 40.56 592.12 40.96
  A 1.00 0.99 89.4 0 0 591.16 41.95
  L 591.04 97.25"
/>
<path stroke="#469fa3" vector-effect="non-scaling-stroke" d="
  M 680.74 95.37
  L 654.50 96.71"
/>
<path stroke="#ace6eb" vector-effect="non-scaling-stroke" d="
  M 654.50 96.71
  L 654.31 92.18
  A 0.95 0.95 0.0 0 0 654.02 91.52
  L 620.63 57.73
  A 1.05 1.00 68.9 0 0 619.99 57.43
  Q 612.38 56.86 604.84 57.73
  A 1.00 0.99 -5.9 0 0 603.96 58.81
  Q 604.28 62.28 604.20 65.68
  Q 603.84 81.29 604.19 97.01"
/>
<path stroke="#469fa3" vector-effect="non-scaling-stroke" d="
  M 604.19 97.01
  L 591.04 97.25"
/>
<path stroke="#1a3838" vector-effect="non-scaling-stroke" d="
  M 684.00 98.46
  Q 682.87 100.22 681.23 99.33
  Q 681.01 99.21 680.75 99.21
  Q 665.28 99.32 649.81 99.28
  Q 620.43 99.21 591.04 99.11"
/>
<path stroke="#99b8b8" vector-effect="non-scaling-stroke" d="
  M 654.50 96.71
  C 639.83 97.88 624.41 97.22 604.19 97.01"
/>
<path stroke="#004264" vector-effect="non-scaling-stroke" d="
  M 690.30 104.97
  L 590.94 105.12"
/>
<path stroke="#99b8b8" vector-effect="non-scaling-stroke" d="
  M 135.02 97.07
  L 135.03 99.08"
/>
<path stroke="#808080" vector-effect="non-scaling-stroke" d="
  M 135.03 99.08
  L 135.04 105.25"
/>
<path stroke="#80c2e3" vector-effect="non-scaling-stroke" d="
  M 135.04 105.25
  L 135.03 186.00
  A 1.00 1.00 0.0 0 0 136.03 187.00
  L 160.00 187.00
  A 1.00 1.00 0.0 0 0 161.00 186.00
  L 161.00 121.10
  A 1.00 1.00 0.0 0 1 162.00 120.10
  L 207.00 120.07
  A 1.01 1.00 -88.6 0 1 208.00 121.13
  Q 207.74 125.60 207.83 130.13
  Q 207.98 138.28 207.98 138.39
  Q 208.01 162.18 208.02 186.00
  A 1.00 1.00 0.0 0 0 209.02 187.00
  L 232.99 187.00
  A 1.00 1.00 0.0 0 0 233.99 186.00
  L 234.01 105.17"
/>
<path stroke="#808080" vector-effect="non-scaling-stroke" d="
  M 234.01 105.17
  L 233.96 99.34"
/>
<path stroke="#99b8b8" vector-effect="non-scaling-stroke" d="
  M 233.96 99.34
  L 233.96 96.75"
/>
<path stroke="#ace6eb" vector-effect="non-scaling-stroke" d="
  M 233.96 96.75
  L 234.08 42.00
  A 1.00 0.99 0.3 0 0 233.08 41.00
  L 208.00 41.00
  A 1.00 1.00 0.0 0 0 207.00 42.00
  L 207.00 92.97
  A 1.00 1.00 0.0 0 1 206.00 93.97
  L 164.00 94.07
  A 1.01 1.00 -90.0 0 1 163.00 93.06
  L 163.00 42.00
  A 1.00 1.00 0.0 0 0 162.00 41.00
  L 136.01 41.00
  A 1.00 1.00 0.0 0 0 135.01 42.00
  L 135.02 97.07"
/>
<path stroke="#469fa3" vector-effect="non-scaling-stroke" d="
  M 233.96 96.75
  Q 229.97 97.49 225.95 97.33
  C 202.38 96.43 179.57 97.43 159.50 97.21
  Q 141.58 97.01 135.02 97.07"
/>
<path stroke="#1a3838" vector-effect="non-scaling-stroke" d="
  M 233.96 99.34
  L 135.03 99.08"
/>
<path stroke="#004264" vector-effect="non-scaling-stroke" d="
  M 234.01 105.17
  Q 184.46 104.68 135.04 105.25"
/>
<path stroke="#808080" vector-effect="non-scaling-stroke" d="
  M 456.02 96.86
  L 456.04 105.35"
/>
<path stroke="#80c2e3" vector-effect="non-scaling-stroke" d="
  M 456.04 105.35
  L 455.81 140.63
  A 0.96 0.95 23.9 0 0 456.08 141.32
  Q 470.24 156.48 483.38 170.16
  C 489.33 176.35 496.65 182.05 503.73 188.51
  C 506.92 191.42 509.75 189.89 512.40 187.08
  Q 531.65 166.75 551.55 147.06
  C 553.97 144.66 555.99 142.40 555.99 138.72
  Q 556.03 121.97 555.96 105.25"
/>
<path stroke="#808080" vector-effect="non-scaling-stroke" d="
  M 555.96 105.25
  L 555.75 96.39"
/>
<path stroke="#ace6eb" vector-effect="non-scaling-stroke" d="
  M 555.75 96.39
  C 556.15 81.26 556.45 66.19 556.01 51.18
  Q 555.88 46.64 556.33 42.09
  A 1.01 1.00 -87.4 0 0 555.33 40.99
  L 530.20 41.01
  A 1.01 1.00 3.2 0 0 529.20 41.90
  Q 528.82 45.31 528.79 49.00
  Q 528.60 73.24 529.04 97.10"
/>
<path stroke="#808080" vector-effect="non-scaling-stroke" d="
  M 529.04 97.10
  L 529.04 105.25"
/>
<path stroke="#80c2e3" vector-effect="non-scaling-stroke" d="
  M 529.04 105.25
  L 529.07 132.15
  A 1.03 0.98 -23.5 0 1 528.77 132.86
  L 506.84 154.72
  A 1.00 1.00 0.0 0 1 505.43 154.72
  L 483.28 132.84
  A 1.04 1.03 -67.2 0 1 482.99 132.12
  L 482.96 105.00"
/>
<path stroke="#808080" vector-effect="non-scaling-stroke" d="
  M 482.96 105.00
  L 482.96 97.25"
/>
<path stroke="#ace6eb" vector-effect="non-scaling-stroke" d="
  M 482.96 97.25
  L 482.99 42.00
  A 1.00 1.00 0.0 0 0 481.99 41.00
  L 457.04 41.00
  A 1.00 1.00 0.0 0 0 456.04 42.00
  L 456.02 96.86"
/>
<path stroke="#2c676b" vector-effect="non-scaling-stroke" d="
  M 482.96 97.25
  L 456.02 96.86"
/>
<path stroke="#004264" vector-effect="non-scaling-stroke" d="
  M 482.96 105.00
  L 456.04 105.35"
/>
<path stroke="#004264" vector-effect="non-scaling-stroke" d="
  M 555.96 105.25
  Q 542.50 104.63 529.04 105.25"
/>
<path stroke="#2c676b" vector-effect="non-scaling-stroke" d="
  M 555.75 96.39
  Q 542.41 97.28 529.04 97.10"
/>
<path stroke="#ff8080" vector-effect="non-scaling-stroke" d="
  M 633.54 186.72
  L 674.34 186.57"
/>
<path stroke="#808080" vector-effect="non-scaling-stroke" d="
  M 674.34 186.57
  C 676.83 187.15 678.47 187.01 680.30 185.02
  C 686.96 177.77 695.20 170.49 701.23 164.32
  Q 714.36 150.87 727.55 138.04
  A 1.01 0.99 -46.1 0 0 727.53 136.58
  L 712.78 123.29
  A 1.02 0.99 65.2 0 0 712.11 123.03
  L 693.00 123.04"
/>
<path stroke="#ff8080" vector-effect="non-scaling-stroke" d="
  M 693.00 123.04
  L 683.75 123.04"
/>
<path stroke="#808080" vector-effect="non-scaling-stroke" d="
  M 683.75 123.04
  L 624.02 123.01
  A 1.00 1.00 0.0 0 0 623.02 124.01
  L 623.10 185.53
  A 1.01 1.01 0.0 0 0 624.09 186.53
  L 633.54 186.72"
/>
<path stroke="#800000" vector-effect="non-scaling-stroke" d="
  M 683.75 123.04
  L 673.64 134.41
  A 1.01 1.00 -69.1 0 1 672.89 134.75
  L 634.25 134.75
  A 1.01 1.00 90.0 0 0 633.25 135.76
  L 633.54 186.72"
/>
<path stroke="#800000" vector-effect="non-scaling-stroke" d="
  M 693.00 123.04
  Q 703.84 132.88 712.57 144.69
  A 1.00 1.00 0.0 0 1 712.55 145.91
  C 700.98 160.46 687.01 172.96 674.34 186.57"
/>
<path stroke="#808080" vector-effect="non-scaling-stroke" d="
  M 186.94 186.71
  L 201.75 186.74
  A 1.00 1.00 0.0 0 0 202.75 185.74
  L 202.75 125.63
  A 1.00 1.00 0.0 0 0 201.76 124.63
  L 187.25 124.54"
/>
<path stroke="#ff8080" vector-effect="non-scaling-stroke" d="
  M 187.25 124.54
  L 167.55 124.45
  A 1.00 1.00 0.0 0 0 166.54 125.45
  L 166.51 185.62
  A 1.00 1.00 0.0 0 0 167.50 186.62
  L 186.94 186.71"
/>
<path stroke="#800000" vector-effect="non-scaling-stroke" d="
  M 187.25 124.54
  L 186.94 186.71"
/>
<path stroke="#800000" vector-effect="non-scaling-stroke" d="
  M 647.30 52.69
  C 656.18 62.13 666.40 70.79 675.87 79.48
  A 1.00 1.00 0.0 0 0 677.27 79.43
  L 707.38 48.20
  Q 709.01 46.51 706.66 46.51
  L 643.86 46.50
  Q 641.59 46.50 643.12 48.17
  Q 645.20 50.45 647.30 52.69"
/>
<path stroke="#ff8080" vector-effect="non-scaling-stroke" d="
  M 607.10 66.71
  L 607.16 91.90
  A 1.00 1.00 0.0 0 0 608.13 92.89
  L 629.46 93.50"
/>
<path stroke="#c39395" vector-effect="non-scaling-stroke" d="
  M 629.46 93.50
  L 631.75 93.46"
/>
<path stroke="#808080" vector-effect="non-scaling-stroke" d="
  M 631.75 93.46
  L 648.85 93.09
  Q 651.18 93.04 649.54 91.39
  Q 637.85 79.61 626.47 67.53
  Q 623.65 64.54 620.39 62.01
  A 1.00 0.97 -27.3 0 0 619.70 61.80
  L 606.19 62.75
  A 1.00 1.00 0.0 0 0 605.32 64.07
  Q 605.81 65.51 607.10 66.71"
/>
<path stroke="#431415" vector-effect="non-scaling-stroke" d="
  M 631.75 93.46
  L 629.54 92.25"
/>
<path stroke="#800000" vector-effect="non-scaling-stroke" d="
  M 629.54 92.25
  L 627.96 90.50"
/>
<path stroke="#431415" vector-effect="non-scaling-stroke" d="
  M 627.96 90.50
  C 626.50 87.68 623.75 85.41 622.11 83.40
  Q 618.97 79.56 615.13 76.40"
/>
<path stroke="#800000" vector-effect="non-scaling-stroke" d="
  M 615.13 76.40
  L 607.10 66.71"
/>
<path stroke="#c31415" vector-effect="non-scaling-stroke" d="
  M 615.13 76.40
  Q 620.61 84.34 627.96 90.50"
/>
<path stroke="#c31415" vector-effect="non-scaling-stroke" d="
  M 629.54 92.25
  L 629.46 93.50"
/>
</g>
<path fill="#525252" d="
  M 465.67 227.49
  L 479.82 208.72
  A 1.02 1.01 -75.1 0 1 480.47 208.34
  C 483.43 207.87 486.98 208.21 489.06 208.17
  C 561.12 207.01 633.21 207.57 705.28 207.91
  A 0.99 0.98 -16.2 0 1 706.11 208.36
  Q 706.84 209.49 705.70 210.21
  Q 684.39 223.76 671.48 232.36
  C 658.17 241.23 644.60 249.61 631.31 258.80
  A 1.06 0.96 25.5 0 1 630.74 258.97
  L 460.75 259.32
  Q 458.43 259.33 456.51 261.51
  L 450.00 268.91
  A 1.01 1.00 -69.1 0 1 449.25 269.25
  L 309.01 269.25
  A 1.02 1.00 -20.3 0 1 308.25 268.91
  L 299.95 259.34
  A 1.02 1.00 -20.3 0 0 299.19 259.00
  L 34.35 259.00
  A 1.02 1.00 80.1 0 1 33.40 258.32
  Q 24.91 233.57 15.24 209.24
  A 1.00 0.99 -10.9 0 1 16.17 207.88
  L 280.02 207.86
  A 1.00 0.98 71.1 0 1 280.81 208.26
  L 295.28 227.47
  A 1.05 1.01 -16.9 0 0 296.06 227.87
  Q 380.48 229.75 464.89 227.89
  A 1.00 0.99 17.5 0 0 465.67 227.49
  Z"
/>
<g fill="#ffffff">
<path d="
  M 719.73 214.54
  C 716.47 223.24 705.15 227.66 697.75 232.66
  C 679.19 245.20 660.30 257.29 641.55 269.55
  C 636.09 273.13 630.92 273.98 623.83 273.99
  Q 544.79 274.01 465.75 274.00
  A 1.02 1.01 21.5 0 0 465.01 274.32
  C 460.09 279.71 457.66 282.14 451.31 283.40
  Q 448.36 283.98 443.52 283.98
  Q 376.29 284.03 309.07 283.98
  Q 307.13 283.97 301.83 281.83
  C 297.98 280.28 295.61 277.13 292.74 274.29
  A 1.04 1.01 66.5 0 0 292.03 274.00
  Q 166.76 274.00 41.50 273.98
  C 29.32 273.98 22.95 272.33 18.68 260.13
  Q 6.89 226.47 4.04 220.20
  C 1.97 215.64 -0.19 211.47 0.77 206.80
  C 2.39 198.99 2.79 193.92 8.64 187.68
  Q 29.45 165.46 50.51 143.49
  Q 51.70 142.26 52.54 140.77
  C 54.16 137.88 50.19 136.61 48.75 134.88
  C 46.50 132.17 43.65 130.73 41.50 127.90
  C 39.08 124.72 36.21 123.00 33.57 120.19
  Q 26.05 112.22 18.63 104.16
  C 5.11 89.48 10.24 78.86 23.62 66.92
  C 29.40 61.76 34.01 56.77 39.66 51.41
  Q 59.03 33.02 77.08 13.33
  C 83.68 6.12 88.96 1.22 98.75 1.07
  C 133.62 0.53 168.44 1.05 203.30 1.03
  Q 472.95 0.86 742.60 0.69
  C 744.96 0.69 747.24 1.56 749.02 1.93
  C 757.86 3.76 767.76 16.01 773.18 21.82
  C 779.45 28.56 781.66 35.88 777.57 44.36
  C 776.10 47.42 773.61 49.71 771.17 52.17
  Q 754.73 68.73 738.97 84.47
  Q 736.89 86.54 738.99 88.59
  C 740.24 89.83 742.99 93.02 744.29 93.05
  A 1.04 1.02 -20.7 0 1 744.97 93.35
  L 772.71 121.08
  A 1.07 1.02 18.5 0 1 772.98 121.59
  C 773.80 125.75 778.26 124.16 779.29 128.70
  A 1.04 1.01 15.9 0 0 779.58 129.20
  Q 782.14 131.62 782.05 135.10
  A 1.03 0.97 -61.9 0 0 782.21 135.68
  C 784.38 138.94 781.84 140.70 781.96 143.70
  Q 781.97 143.97 781.86 144.20
  L 780.30 147.27
  A 1.01 0.99 2.2 0 1 779.78 147.74
  Q 778.87 148.11 778.98 149.09
  A 1.01 1.01 0.0 0 1 778.70 149.90
  L 773.91 154.77
  A 0.94 0.92 -73.7 0 1 773.43 155.04
  Q 770.55 155.72 770.05 158.45
  A 1.01 0.96 75.0 0 1 769.75 159.00
  L 766.59 161.97
  A 1.00 0.96 22.2 0 1 765.91 162.24
  L 765.63 162.25
  A 0.99 0.99 0.0 0 0 764.93 162.54
  L 721.24 206.14
  A 1.00 0.99 -24.5 0 0 720.95 206.91
  L 721.16 210.65
  A 0.97 0.96 65.7 0 1 720.88 211.40
  C 719.91 212.40 720.08 213.62 719.73 214.54
  Z
  M 753.95 14.52
  Q 751.25 11.61 748.32 9.67
  A 0.99 0.97 61.8 0 0 747.77 9.50
  Q 422.63 9.50 97.50 9.56
  Q 93.21 9.56 91.65 11.15
  Q 57.55 45.83 22.82 79.91
  C 17.35 85.28 17.30 90.23 22.69 95.93
  Q 43.41 117.80 65.09 138.79
  A 1.00 1.00 0.0 0 1 65.12 140.20
  Q 38.77 168.06 12.40 195.90
  Q 10.00 198.44 10.36 202.97
  A 0.92 0.90 55.7 0 1 10.27 203.48
  C 6.98 210.35 10.30 213.11 12.36 219.09
  C 16.77 231.89 22.07 244.35 26.20 257.24
  C 27.93 262.63 29.69 265.25 35.50 265.25
  Q 165.85 265.25 296.22 265.25
  A 1.00 0.98 70.2 0 1 296.99 265.62
  Q 299.94 269.23 303.08 272.68
  C 305.75 275.62 309.47 275.49 313.25 275.49
  Q 380.97 275.51 448.69 275.49
  C 456.37 275.49 459.01 265.25 463.13 265.25
  Q 547.94 265.25 632.51 265.25
  A 1.02 0.98 -60.3 0 0 633.05 265.09
  Q 662.70 246.05 692.05 226.57
  Q 699.76 221.46 707.68 216.67
  C 711.37 214.43 714.67 209.07 711.70 205.08
  A 1.00 1.00 0.0 0 1 711.80 203.77
  Q 742.05 173.72 772.26 143.64
  C 775.06 140.86 775.81 137.13 773.03 134.25
  Q 754.80 115.29 725.50 87.24
  A 1.00 1.00 0.0 0 1 725.49 85.81
  Q 747.33 64.12 769.05 42.30
  C 773.46 37.87 771.64 32.56 767.55 28.44
  C 762.97 23.83 758.37 19.29 753.95 14.52
  Z"
/>
<path d="
  M 722.43 87.07
  Q 722.56 87.17 722.70 87.30
  Q 748.90 112.36 771.15 135.13
  C 773.09 137.11 773.48 139.74 771.46 141.74
  Q 740.18 172.67 709.08 203.78
  A 1.00 1.00 0.0 0 0 709.10 205.22
  Q 711.82 207.75 710.45 210.87
  Q 709.63 212.73 706.59 214.71
  Q 669.53 238.85 632.61 263.09
  A 1.03 1.01 28.2 0 1 632.06 263.25
  L 460.98 263.25
  A 1.02 1.00 -73.5 0 0 460.13 263.72
  C 457.67 267.67 453.09 273.53 448.19 273.53
  Q 379.22 273.52 310.25 273.53
  C 304.00 273.53 301.96 267.74 297.54 263.53
  A 1.00 0.99 66.8 0 0 296.85 263.25
  Q 165.55 263.25 34.25 263.25
  C 31.63 263.25 29.82 261.24 28.93 258.72
  Q 20.51 234.73 11.27 211.03
  Q 10.14 208.15 12.12 204.54
  Q 12.24 204.32 12.25 204.07
  C 12.28 200.03 12.80 198.44 15.68 195.39
  Q 41.72 167.72 67.88 140.16
  A 1.00 0.99 -46.4 0 0 67.85 138.76
  Q 45.49 117.18 24.19 94.56
  C 20.56 90.70 19.04 86.64 23.15 82.57
  Q 52.18 53.80 81.02 24.84
  C 84.40 21.44 89.61 15.67 94.33 11.77
  A 1.01 1.00 -64.5 0 1 94.97 11.54
  C 312.72 11.30 530.07 11.40 747.61 11.52
  A 1.02 0.98 -21.8 0 1 748.32 11.81
  Q 757.17 20.74 766.63 30.33
  C 769.83 33.58 770.84 37.64 767.54 41.03
  Q 755.93 52.95 722.39 86.12
  A 0.65 0.64 43.0 0 0 722.43 87.07
  Z
  M 32.00 96.54
  L 40.00 105.29
  C 49.16 114.73 58.21 124.40 68.15 133.03
  Q 71.50 135.94 74.27 139.40
  Q 46.16 169.08 18.19 198.68
  Q 17.07 199.86 16.40 201.33
  A 1.00 1.00 0.0 0 0 17.31 202.75
  L 282.40 202.75
  A 1.01 1.01 0.0 0 1 283.24 203.20
  L 296.17 222.56
  A 1.01 1.00 72.8 0 0 297.00 223.00
  L 464.02 223.00
  A 1.01 1.00 -72.8 0 0 464.85 222.56
  L 478.11 202.70
  A 1.01 0.99 -72.8 0 1 478.94 202.25
  L 704.05 202.25
  A 1.01 0.99 -66.0 0 0 704.73 201.98
  C 714.60 192.79 725.55 181.41 733.51 173.63
  Q 751.02 156.51 768.22 139.19
  A 1.00 1.00 0.0 0 0 768.22 137.77
  L 735.04 104.75
  L 733.50 103.21
  Q 729.80 99.39 725.46 96.30
  Q 722.91 94.48 716.81 87.01
  A 1.00 0.99 47.7 0 1 716.87 85.67
  L 765.71 36.94
  A 1.00 1.00 0.0 0 0 765.71 35.53
  L 746.15 15.80
  A 0.99 0.98 -21.8 0 0 745.44 15.50
  C 529.31 15.48 336.01 15.31 96.84 15.52
  A 1.02 0.98 21.8 0 0 96.13 15.81
  L 25.93 85.68
  Q 24.15 87.45 25.56 89.52
  Q 27.85 92.88 32.00 96.54
  Z
  M 465.67 227.49
  A 1.00 0.99 17.5 0 1 464.89 227.89
  Q 380.48 229.75 296.06 227.87
  A 1.05 1.01 -16.9 0 1 295.28 227.47
  L 280.81 208.26
  A 1.00 0.98 71.1 0 0 280.02 207.86
  L 16.17 207.88
  A 1.00 0.99 -10.9 0 0 15.24 209.24
  Q 24.91 233.57 33.40 258.32
  A 1.02 1.00 80.1 0 0 34.35 259.00
  L 299.19 259.00
  A 1.02 1.00 -20.3 0 1 299.95 259.34
  L 308.25 268.91
  A 1.02 1.00 -20.3 0 0 309.01 269.25
  L 449.25 269.25
  A 1.01 1.00 -69.1 0 0 450.00 268.91
  L 456.51 261.51
  Q 458.43 259.33 460.75 259.32
  L 630.74 258.97
  A 1.06 0.96 25.5 0 0 631.31 258.80
  C 644.60 249.61 658.17 241.23 671.48 232.36
  Q 684.39 223.76 705.70 210.21
  Q 706.84 209.49 706.11 208.36
  A 0.99 0.98 -16.2 0 0 705.28 207.91
  C 633.21 207.57 561.12 207.01 489.06 208.17
  C 486.98 208.21 483.43 207.87 480.47 208.34
  A 1.02 1.01 -75.1 0 0 479.82 208.72
  L 465.67 227.49
  Z"
/>
<path d="
  M 693.74 99.37
  L 699.92 105.26
  Q 715.29 121.28 731.40 136.32
  A 1.01 1.00 -47.5 0 1 731.46 137.72
  C 717.90 152.80 702.67 166.71 688.40 181.40
  Q 683.33 186.61 677.27 190.67
  A 1.00 0.92 -60.4 0 1 676.73 190.84
  C 634.11 191.48 591.44 191.92 548.81 191.44
  Q 513.25 191.04 477.67 191.33
  Q 474.99 191.36 472.94 193.44
  L 455.01 211.69
  A 1.03 1.01 -67.2 0 1 454.29 211.99
  L 305.78 211.86
  A 1.04 1.01 66.5 0 1 305.07 211.57
  L 285.60 191.91
  A 1.03 0.98 66.5 0 0 284.89 191.61
  Q 243.68 191.55 202.50 191.47
  C 201.62 191.47 200.56 191.90 199.50 191.79
  L 175.00 191.54
  Q 134.72 191.39 94.43 191.52
  Q 79.48 191.57 64.51 191.51
  Q 62.24 191.50 63.78 189.83
  Q 87.60 164.00 113.02 139.72
  Q 113.45 137.96 112.25 136.75
  Q 93.87 118.15 80.25 104.96
  L 75.29 100.00
  L 70.25 95.21
  L 62.92 87.06
  A 1.01 1.01 0.0 0 1 62.95 85.68
  L 121.67 26.53
  A 1.04 1.03 22.8 0 1 122.39 26.24
  C 325.93 26.39 532.14 26.23 737.05 26.10
  A 1.00 1.00 0.0 0 1 738.03 26.92
  Q 738.26 28.13 737.32 29.08
  Q 709.48 57.33 681.10 85.16
  A 1.00 1.00 0.0 0 0 681.08 86.58
  L 693.74 99.37
  Z
  M 77.66 95.46
  Q 78.84 96.89 84.82 102.69
  Q 90.02 107.73 115.93 134.00
  L 116.30 140.71
  A 1.05 1.03 66.1 0 1 116.01 141.48
  L 72.68 185.01
  Q 70.94 186.75 73.40 186.71
  L 92.12 186.41
  Q 111.23 187.25 130.18 186.43
  L 129.96 169.75
  Q 130.60 147.50 130.06 125.25
  L 130.21 79.75
  Q 130.74 62.42 129.64 44.03
  Q 129.86 40.35 131.54 36.82
  A 1.02 1.01 -76.8 0 1 132.45 36.25
  L 165.39 36.25
  A 1.01 1.00 89.4 0 1 166.39 37.24
  L 166.52 46.86
  Q 166.43 54.23 166.25 61.30
  C 166.22 62.69 166.86 64.20 166.72 65.77
  Q 166.50 68.15 166.50 68.24
  Q 166.48 77.73 166.53 87.19
  A 1.01 1.00 0.0 0 0 167.54 88.19
  L 186.91 88.06
  L 201.75 88.06
  A 1.00 1.00 0.0 0 0 202.75 87.06
  L 202.75 37.25
  A 1.00 1.00 0.0 0 1 203.75 36.25
  L 238.10 36.25
  A 1.00 0.99 0.3 0 1 239.10 37.25
  L 239.09 46.73
  C 238.91 86.92 239.42 127.11 239.04 167.27
  Q 238.96 176.50 239.22 185.74
  A 1.00 1.00 0.0 0 0 240.22 186.71
  L 254.96 186.71
  L 269.25 186.74
  A 1.00 1.00 0.0 0 0 270.25 185.74
  L 270.25 32.03
  A 1.00 1.00 0.0 0 0 269.25 31.03
  Q 226.78 31.05 184.31 30.87
  C 163.50 30.77 142.71 31.17 121.90 30.84
  A 1.03 1.01 -67.2 0 0 121.18 31.14
  L 74.29 78.22
  A 0.99 0.99 0.0 0 0 74.00 78.92
  L 74.00 94.31
  A 0.99 0.99 0.0 0 0 74.94 95.30
  L 77.66 95.46
  Z
  M 419.23 63.83
  C 420.48 88.97 421.26 108.92 420.34 139.51
  C 419.85 155.61 420.05 170.97 420.25 186.71
  L 385.25 186.70
  A 1.00 1.00 0.0 0 1 384.25 185.70
  L 384.25 68.48
  A 1.00 1.00 0.0 0 0 383.27 67.48
  L 374.75 67.29
  L 373.50 67.29
  L 364.25 67.26
  A 1.00 1.00 0.0 0 0 363.25 68.26
  L 363.16 186.75
  L 328.00 186.74
  A 1.00 1.00 0.0 0 1 327.00 185.74
  L 327.00 68.48
  A 1.00 1.00 0.0 0 0 326.02 67.48
  L 317.02 67.30
  L 307.53 67.45
  A 1.01 1.00 -0.9 0 0 306.54 68.46
  Q 306.75 86.11 306.62 103.75
  Q 306.62 104.26 306.62 104.75
  Q 306.51 145.10 306.49 185.47
  A 1.00 1.00 0.0 0 1 305.53 186.47
  L 295.03 186.88
  A 0.99 0.99 0.0 0 0 294.10 187.65
  C 293.38 190.83 293.34 193.78 295.79 196.34
  Q 301.11 201.90 307.39 207.27
  A 1.05 1.02 64.2 0 0 308.05 207.51
  C 355.67 207.38 403.49 208.22 451.14 207.19
  A 0.98 0.98 0.0 0 0 451.83 206.88
  L 472.50 185.46
  L 493.57 187.19
  Q 496.26 187.41 494.37 185.49
  L 452.55 143.10
  A 1.00 0.99 -68.5 0 1 452.26 142.42
  C 452.09 133.91 451.73 125.21 451.74 116.91
  Q 451.76 77.53 452.10 37.24
  A 1.00 0.99 0.0 0 1 453.10 36.25
  L 486.89 36.25
  A 1.00 1.00 0.0 0 1 487.89 37.24
  L 487.95 46.92
  Q 487.01 89.82 487.81 132.54
  A 1.03 1.02 -68.9 0 0 488.12 133.25
  L 506.75 150.83
  Q 508.10 152.10 508.42 150.28
  L 509.28 145.56
  C 511.88 146.17 521.86 135.33 524.09 133.05
  A 0.99 0.96 -23.2 0 0 524.38 132.36
  Q 524.66 107.09 524.62 81.81
  Q 524.59 59.56 524.51 37.25
  A 1.00 0.99 -0.3 0 1 525.51 36.25
  L 559.75 36.25
  A 1.00 1.00 0.0 0 1 560.75 37.28
  L 560.48 46.85
  L 560.23 56.31
  Q 560.22 56.53 560.32 56.74
  C 561.16 58.65 560.45 60.73 560.48 62.14
  Q 561.44 101.61 560.60 141.14
  A 1.04 1.02 67.1 0 1 560.34 141.80
  C 556.02 146.46 551.80 151.36 547.38 155.74
  Q 532.52 170.50 517.95 185.38
  Q 516.61 186.74 518.52 186.74
  L 571.08 186.72
  L 585.57 186.61
  A 1.00 0.99 -0.6 0 0 586.56 185.61
  Q 586.32 139.80 586.48 94.00
  Q 586.58 65.65 586.73 37.31
  A 1.00 0.99 -0.6 0 1 587.71 36.32
  Q 606.56 35.95 625.38 36.74
  A 1.02 0.99 -20.3 0 1 626.04 37.03
  C 641.39 52.18 656.59 67.31 672.40 82.36
  C 676.58 86.35 680.92 81.69 683.80 78.80
  Q 707.00 55.61 729.95 32.50
  Q 731.64 30.80 729.24 30.80
  L 388.48 30.92
  Q 386.56 30.92 387.91 32.28
  L 419.23 63.83
  Z
  M 275.04 99.25
  L 275.04 105.25
  Q 274.55 143.66 275.16 182.03
  A 1.00 1.00 0.0 0 0 276.16 183.02
  L 300.98 182.95
  A 1.00 1.00 0.0 0 0 301.98 181.95
  L 301.96 105.25
  L 301.96 99.00
  L 301.93 63.50
  A 1.01 1.00 -90.0 0 1 302.93 62.49
  L 330.72 62.47
  A 1.00 1.00 0.0 0 1 331.72 63.46
  L 332.01 96.88
  L 332.02 98.77
  L 332.01 105.40
  L 332.01 181.00
  A 1.00 1.00 0.0 0 0 333.01 182.00
  L 357.97 182.00
  A 1.00 1.00 0.0 0 0 358.97 181.00
  L 358.96 105.00
  L 358.96 99.25
  L 358.96 97.25
  L 359.03 63.48
  A 1.00 1.00 0.0 0 1 360.03 62.48
  L 387.95 62.51
  A 1.00 0.99 90.0 0 1 388.94 63.51
  L 389.04 99.25
  L 389.01 105.42
  L 389.01 181.02
  A 1.00 1.00 0.0 0 0 390.01 182.02
  L 414.87 181.99
  A 1.00 1.00 0.0 0 0 415.87 180.99
  L 415.89 133.25
  L 415.96 105.25
  L 415.98 99.60
  L 415.99 64.83
  A 1.03 1.01 22.8 0 0 415.69 64.11
  L 382.45 31.29
  A 0.99 0.99 0.0 0 0 381.75 31.00
  L 276.06 31.00
  A 1.00 1.00 0.0 0 0 275.06 32.00
  L 275.04 99.25
  Z
  M 591.04 97.25
  L 591.04 99.11
  L 590.94 105.12
  L 591.07 180.99
  A 1.00 1.00 0.0 0 0 592.07 181.99
  L 618.00 182.02
  A 1.00 1.00 0.0 0 0 619.00 181.02
  L 619.00 120.00
  A 1.00 1.00 0.0 0 1 620.00 119.00
  Q 658.58 119.02 697.69 118.78
  Q 699.86 118.76 700.71 118.62
  Q 703.51 118.15 701.56 116.21
  L 690.30 104.97
  L 684.00 98.46
  L 680.74 95.37
  C 663.33 78.34 646.45 60.77 628.41 44.55
  C 625.02 41.51 623.07 41.22 618.71 41.08
  Q 602.03 40.56 592.12 40.96
  A 1.00 0.99 89.4 0 0 591.16 41.95
  L 591.04 97.25
  Z
  M 135.02 97.07
  L 135.03 99.08
  L 135.04 105.25
  L 135.03 186.00
  A 1.00 1.00 0.0 0 0 136.03 187.00
  L 160.00 187.00
  A 1.00 1.00 0.0 0 0 161.00 186.00
  L 161.00 121.10
  A 1.00 1.00 0.0 0 1 162.00 120.10
  L 207.00 120.07
  A 1.01 1.00 -88.6 0 1 208.00 121.13
  Q 207.74 125.60 207.83 130.13
  Q 207.98 138.28 207.98 138.39
  Q 208.01 162.18 208.02 186.00
  A 1.00 1.00 0.0 0 0 209.02 187.00
  L 232.99 187.00
  A 1.00 1.00 0.0 0 0 233.99 186.00
  L 234.01 105.17
  L 233.96 99.34
  L 233.96 96.75
  L 234.08 42.00
  A 1.00 0.99 0.3 0 0 233.08 41.00
  L 208.00 41.00
  A 1.00 1.00 0.0 0 0 207.00 42.00
  L 207.00 92.97
  A 1.00 1.00 0.0 0 1 206.00 93.97
  L 164.00 94.07
  A 1.01 1.00 -90.0 0 1 163.00 93.06
  L 163.00 42.00
  A 1.00 1.00 0.0 0 0 162.00 41.00
  L 136.01 41.00
  A 1.00 1.00 0.0 0 0 135.01 42.00
  L 135.02 97.07
  Z
  M 456.02 96.86
  L 456.04 105.35
  L 455.81 140.63
  A 0.96 0.95 23.9 0 0 456.08 141.32
  Q 470.24 156.48 483.38 170.16
  C 489.33 176.35 496.65 182.05 503.73 188.51
  C 506.92 191.42 509.75 189.89 512.40 187.08
  Q 531.65 166.75 551.55 147.06
  C 553.97 144.66 555.99 142.40 555.99 138.72
  Q 556.03 121.97 555.96 105.25
  L 555.75 96.39
  C 556.15 81.26 556.45 66.19 556.01 51.18
  Q 555.88 46.64 556.33 42.09
  A 1.01 1.00 -87.4 0 0 555.33 40.99
  L 530.20 41.01
  A 1.01 1.00 3.2 0 0 529.20 41.90
  Q 528.82 45.31 528.79 49.00
  Q 528.60 73.24 529.04 97.10
  L 529.04 105.25
  L 529.07 132.15
  A 1.03 0.98 -23.5 0 1 528.77 132.86
  L 506.84 154.72
  A 1.00 1.00 0.0 0 1 505.43 154.72
  L 483.28 132.84
  A 1.04 1.03 -67.2 0 1 482.99 132.12
  L 482.96 105.00
  L 482.96 97.25
  L 482.99 42.00
  A 1.00 1.00 0.0 0 0 481.99 41.00
  L 457.04 41.00
  A 1.00 1.00 0.0 0 0 456.04 42.00
  L 456.02 96.86
  Z
  M 633.54 186.72
  L 674.34 186.57
  C 676.83 187.15 678.47 187.01 680.30 185.02
  C 686.96 177.77 695.20 170.49 701.23 164.32
  Q 714.36 150.87 727.55 138.04
  A 1.01 0.99 -46.1 0 0 727.53 136.58
  L 712.78 123.29
  A 1.02 0.99 65.2 0 0 712.11 123.03
  L 693.00 123.04
  L 683.75 123.04
  L 624.02 123.01
  A 1.00 1.00 0.0 0 0 623.02 124.01
  L 623.10 185.53
  A 1.01 1.01 0.0 0 0 624.09 186.53
  L 633.54 186.72
  Z
  M 186.94 186.71
  L 201.75 186.74
  A 1.00 1.00 0.0 0 0 202.75 185.74
  L 202.75 125.63
  A 1.00 1.00 0.0 0 0 201.76 124.63
  L 187.25 124.54
  L 167.55 124.45
  A 1.00 1.00 0.0 0 0 166.54 125.45
  L 166.51 185.62
  A 1.00 1.00 0.0 0 0 167.50 186.62
  L 186.94 186.71
  Z"
/>
<path d="
  M 654.50 96.71
  C 639.83 97.88 624.41 97.22 604.19 97.01
  Q 603.84 81.29 604.20 65.68
  Q 604.28 62.28 603.96 58.81
  A 1.00 0.99 -5.9 0 1 604.84 57.73
  Q 612.38 56.86 619.99 57.43
  A 1.05 1.00 68.9 0 1 620.63 57.73
  L 654.02 91.52
  A 0.95 0.95 0.0 0 1 654.31 92.18
  L 654.50 96.71
  Z
  M 607.10 66.71
  L 607.16 91.90
  A 1.00 1.00 0.0 0 0 608.13 92.89
  L 629.46 93.50
  L 631.75 93.46
  L 648.85 93.09
  Q 651.18 93.04 649.54 91.39
  Q 637.85 79.61 626.47 67.53
  Q 623.65 64.54 620.39 62.01
  A 1.00 0.97 -27.3 0 0 619.70 61.80
  L 606.19 62.75
  A 1.00 1.00 0.0 0 0 605.32 64.07
  Q 605.81 65.51 607.10 66.71
  Z"
/>
</g>
<g fill="#ff0000">
<path d="
  M 129.64 44.03
  Q 130.74 62.42 130.21 79.75
  Q 128.65 102.50 130.06 125.25
  Q 130.60 147.50 129.96 169.75
  Q 128.68 177.92 130.18 186.43
  Q 111.23 187.25 92.12 186.41
  L 124.42 153.57
  A 0.99 0.99 0.0 0 0 124.69 153.07
  C 126.54 143.77 123.52 138.84 115.93 134.00
  Q 90.02 107.73 84.82 102.69
  Q 78.84 96.89 77.66 95.46
  L 129.64 44.03
  Z"
/>
<path d="
  M 472.50 185.46
  L 451.83 206.88
  A 0.98 0.98 0.0 0 1 451.14 207.19
  C 403.49 208.22 355.67 207.38 308.05 207.51
  A 1.05 1.02 64.2 0 1 307.39 207.27
  Q 301.11 201.90 295.79 196.34
  C 293.34 193.78 293.38 190.83 294.10 187.65
  A 0.99 0.99 0.0 0 1 295.03 186.88
  L 305.53 186.47
  A 1.00 1.00 0.0 0 0 306.49 185.47
  Q 306.51 145.10 306.62 104.75
  Q 306.62 104.26 306.62 103.75
  Q 306.75 86.11 306.54 68.46
  A 1.01 1.00 -0.9 0 1 307.53 67.45
  L 317.02 67.30
  L 317.00 196.87
  A 1.00 0.99 11.0 0 0 317.63 197.79
  Q 318.51 198.15 319.50 197.79
  Q 322.22 198.90 325.00 197.79
  C 337.24 198.67 349.65 197.92 361.97 197.95
  A 1.00 0.99 3.5 0 0 362.97 197.07
  Q 363.55 191.77 363.16 186.75
  L 363.25 68.26
  A 1.00 1.00 0.0 0 1 364.25 67.26
  L 373.50 67.29
  L 374.04 70.25
  L 373.96 73.25
  Q 373.23 75.79 373.22 77.75
  Q 373.12 117.59 373.32 195.35
  C 373.33 200.17 376.54 198.47 379.51 198.48
  Q 399.42 198.58 419.40 198.41
  A 1.00 1.00 0.0 0 0 420.39 197.44
  L 420.46 195.25
  L 420.25 186.71
  C 420.05 170.97 419.85 155.61 420.34 139.51
  C 421.26 108.92 420.48 88.97 419.23 63.83
  C 420.27 60.55 411.61 50.53 409.43 47.58
  Q 408.23 45.94 410.26 45.98
  L 435.27 46.52
  A 1.00 1.00 0.0 0 1 436.25 47.52
  L 436.25 147.23
  A 0.97 0.97 0.0 0 0 436.57 147.95
  C 448.55 159.33 462.19 172.30 472.50 185.46
  Z"
/>
<path d="
  M 571.08 186.72
  L 518.52 186.74
  Q 516.61 186.74 517.95 185.38
  Q 532.52 170.50 547.38 155.74
  C 551.80 151.36 556.02 146.46 560.34 141.80
  A 1.04 1.02 67.1 0 0 560.60 141.14
  Q 561.44 101.61 560.48 62.14
  C 560.45 60.73 561.16 58.65 560.32 56.74
  Q 560.22 56.53 560.23 56.31
  L 560.48 46.85
  Q 565.30 46.05 570.09 46.57
  A 1.00 0.99 -87.1 0 1 570.98 47.56
  L 571.08 186.72
  Z"
/>
<path d="
  M 186.91 88.06
  L 167.54 88.19
  A 1.01 1.00 -0.0 0 1 166.53 87.19
  Q 166.48 77.73 166.50 68.24
  Q 166.50 68.15 166.72 65.77
  C 166.86 64.20 166.22 62.69 166.25 61.30
  Q 166.43 54.23 166.52 46.86
  L 186.29 46.46
  A 1.00 1.00 0.0 0 1 187.31 47.47
  L 186.91 88.06
  Z"
/>
<path d="
  M 254.96 186.71
  L 240.22 186.71
  A 1.00 1.00 0.0 0 1 239.22 185.74
  Q 238.96 176.50 239.04 167.27
  C 239.42 127.11 238.91 86.92 239.09 46.73
  Q 246.64 46.14 253.80 46.71
  A 1.01 1.00 2.5 0 1 254.72 47.71
  L 254.96 186.71
  Z"
/>
<path d="
  M 509.28 145.56
  L 508.42 150.28
  Q 508.10 152.10 506.75 150.83
  L 488.12 133.25
  A 1.03 1.02 -68.9 0 1 487.81 132.54
  Q 487.01 89.82 487.95 46.92
  Q 498.06 46.19 508.00 46.49
  A 1.00 1.00 0.0 0 1 508.97 47.49
  C 509.09 80.07 507.92 114.32 509.28 145.56
  Z"
/>
<path d="
  M 647.30 52.69
  Q 645.20 50.45 643.12 48.17
  Q 641.59 46.50 643.86 46.50
  L 706.66 46.51
  Q 709.01 46.51 707.38 48.20
  L 677.27 79.43
  A 1.00 1.00 0.0 0 1 675.87 79.48
  C 666.40 70.79 656.18 62.13 647.30 52.69
  Z"
/>
<path d="
  M 607.10 66.71
  L 615.13 76.40
  Q 620.61 84.34 627.96 90.50
  L 629.54 92.25
  L 629.46 93.50
  L 608.13 92.89
  A 1.00 1.00 0.0 0 1 607.16 91.90
  L 607.10 66.71
  Z"
/>
<path d="
  M 683.75 123.04
  L 693.00 123.04
  Q 703.84 132.88 712.57 144.69
  A 1.00 1.00 0.0 0 1 712.55 145.91
  C 700.98 160.46 687.01 172.96 674.34 186.57
  L 633.54 186.72
  L 633.25 135.76
  A 1.01 1.00 -90.0 0 1 634.25 134.75
  L 672.89 134.75
  A 1.01 1.00 -69.1 0 0 673.64 134.41
  L 683.75 123.04
  Z"
/>
<path d="
  M 187.25 124.54
  L 186.94 186.71
  L 167.50 186.62
  A 1.00 1.00 0.0 0 1 166.51 185.62
  L 166.54 125.45
  A 1.00 1.00 0.0 0 1 167.55 124.45
  L 187.25 124.54
  Z"
/>
</g>
<g fill="#0084c7">
<path d="
  M 40.75 104.71
  L 80.25 104.96
  Q 93.87 118.15 112.25 136.75
  Q 113.45 137.96 113.02 139.72
  Q 111.95 137.83 111.77 138.74
  Q 111.76 138.78 111.28 139.56
  Q 110.41 140.97 108.85 140.82
  A 0.99 0.99 0.0 0 1 107.96 139.99
  L 107.91 139.65
  A 0.65 0.64 75.1 0 0 107.05 139.15
  C 105.13 139.87 103.69 140.70 101.54 140.71
  C 96.59 140.74 92.29 142.16 87.46 142.78
  Q 85.60 143.02 82.80 143.76
  A 1.03 1.01 -37.6 0 1 82.06 143.67
  L 74.27 139.40
  Q 71.50 135.94 68.15 133.03
  C 58.21 124.40 49.16 114.73 40.00 105.29
  L 40.75 104.71
  Z"
/>
<path d="
  M 690.30 104.97
  L 701.56 116.21
  Q 703.51 118.15 700.71 118.62
  Q 699.86 118.76 697.69 118.78
  Q 658.58 119.02 620.00 119.00
  A 1.00 1.00 0.0 0 0 619.00 120.00
  L 619.00 181.02
  A 1.00 1.00 0.0 0 1 618.00 182.02
  L 592.07 181.99
  A 1.00 1.00 0.0 0 1 591.07 180.99
  L 590.94 105.12
  L 690.30 104.97
  Z"
/>
<path d="
  M 234.01 105.17
  L 233.99 186.00
  A 1.00 1.00 0.0 0 1 232.99 187.00
  L 209.02 187.00
  A 1.00 1.00 0.0 0 1 208.02 186.00
  Q 208.01 162.18 207.98 138.39
  Q 207.98 138.28 207.83 130.13
  Q 207.74 125.60 208.00 121.13
  A 1.01 1.00 -88.6 0 0 207.00 120.07
  L 162.00 120.10
  A 1.00 1.00 0.0 0 0 161.00 121.10
  L 161.00 186.00
  A 1.00 1.00 0.0 0 1 160.00 187.00
  L 136.03 187.00
  A 1.00 1.00 0.0 0 1 135.03 186.00
  L 135.04 105.25
  Q 184.46 104.68 234.01 105.17
  Z"
/>
<path d="
  M 301.96 105.25
  L 301.98 181.95
  A 1.00 1.00 0.0 0 1 300.98 182.95
  L 276.16 183.02
  A 1.00 1.00 0.0 0 1 275.16 182.03
  Q 274.55 143.66 275.04 105.25
  Q 288.50 104.63 301.96 105.25
  Z"
/>
<path d="
  M 358.96 105.00
  L 358.97 181.00
  A 1.00 1.00 0.0 0 1 357.97 182.00
  L 333.01 182.00
  A 1.00 1.00 0.0 0 1 332.01 181.00
  L 332.01 105.40
  L 358.96 105.00
  Z"
/>
<path d="
  M 415.50 105.29
  L 415.89 133.25
  L 415.87 180.99
  A 1.00 1.00 0.0 0 1 414.87 181.99
  L 390.01 182.02
  A 1.00 1.00 0.0 0 1 389.01 181.02
  L 389.01 105.42
  Q 402.28 104.47 415.50 105.29
  Z"
/>
<path d="
  M 482.96 105.00
  L 482.99 132.12
  A 1.04 1.03 -67.2 0 0 483.28 132.84
  L 505.43 154.72
  A 1.00 1.00 0.0 0 0 506.84 154.72
  L 528.77 132.86
  A 1.03 0.98 -23.5 0 0 529.07 132.15
  L 529.04 105.25
  Q 542.50 104.63 555.96 105.25
  Q 556.03 121.97 555.99 138.72
  C 555.99 142.40 553.97 144.66 551.55 147.06
  Q 531.65 166.75 512.40 187.08
  C 509.75 189.89 506.92 191.42 503.73 188.51
  C 496.65 182.05 489.33 176.35 483.38 170.16
  Q 470.24 156.48 456.08 141.32
  A 0.96 0.95 23.9 0 1 455.81 140.63
  L 456.04 105.35
  L 482.96 105.00
  Z"
/>
</g>
<g fill="#58cdd6">
<path d="
  M 733.50 103.21
  C 731.69 102.81 727.42 99.40 726.69 99.61
  A 1.00 0.99 -39.3 0 1 725.96 99.54
  C 724.51 98.80 723.41 99.26 722.20 99.26
  Q 707.98 99.19 693.74 99.37
  L 681.08 86.58
  A 1.00 1.00 0.0 0 1 681.10 85.16
  Q 709.48 57.33 737.32 29.08
  Q 738.26 28.13 738.03 26.92
  A 1.00 1.00 0.0 0 0 737.05 26.10
  C 532.14 26.23 325.93 26.39 122.39 26.24
  A 1.04 1.03 22.8 0 0 121.67 26.53
  L 62.95 85.68
  A 1.01 1.01 0.0 0 0 62.92 87.06
  L 70.25 95.21
  C 64.83 96.57 60.27 94.41 54.94 95.14
  C 48.86 95.98 42.78 96.50 36.70 97.38
  C 34.92 97.64 33.65 96.99 32.00 96.54
  Q 27.85 92.88 25.56 89.52
  Q 24.15 87.45 25.93 85.68
  L 96.13 15.81
  A 1.02 0.98 21.8 0 1 96.84 15.52
  C 336.01 15.31 529.31 15.48 745.44 15.50
  A 0.99 0.98 -21.8 0 1 746.15 15.80
  L 765.71 35.53
  A 1.00 1.00 0.0 0 1 765.71 36.94
  L 716.87 85.67
  A 1.00 0.99 47.7 0 0 716.81 87.01
  Q 722.91 94.48 725.46 96.30
  Q 729.80 99.39 733.50 103.21
  Z"
/>
<path d="
  M 415.98 99.60
  L 389.04 99.25
  L 388.94 63.51
  A 1.00 0.99 -90.0 0 0 387.95 62.51
  L 360.03 62.48
  A 1.00 1.00 0.0 0 0 359.03 63.48
  L 358.96 97.25
  L 332.01 96.88
  L 331.72 63.46
  A 1.00 1.00 0.0 0 0 330.72 62.47
  L 302.93 62.49
  A 1.01 1.00 90.0 0 0 301.93 63.50
  L 301.96 99.00
  L 275.04 99.25
  L 275.06 32.00
  A 1.00 1.00 0.0 0 1 276.06 31.00
  L 381.75 31.00
  A 0.99 0.99 0.0 0 1 382.45 31.29
  L 415.69 64.11
  A 1.03 1.01 22.8 0 1 415.99 64.83
  L 415.98 99.60
  Z"
/>
<path d="
  M 680.74 95.37
  L 654.50 96.71
  L 654.31 92.18
  A 0.95 0.95 0.0 0 0 654.02 91.52
  L 620.63 57.73
  A 1.05 1.00 68.9 0 0 619.99 57.43
  Q 612.38 56.86 604.84 57.73
  A 1.00 0.99 -5.9 0 0 603.96 58.81
  Q 604.28 62.28 604.20 65.68
  Q 603.84 81.29 604.19 97.01
  L 591.04 97.25
  L 591.16 41.95
  A 1.00 0.99 89.4 0 1 592.12 40.96
  Q 602.03 40.56 618.71 41.08
  C 623.07 41.22 625.02 41.51 628.41 44.55
  C 646.45 60.77 663.33 78.34 680.74 95.37
  Z"
/>
<path d="
  M 233.96 96.75
  Q 229.97 97.49 225.95 97.33
  C 202.38 96.43 179.57 97.43 159.50 97.21
  Q 141.58 97.01 135.02 97.07
  L 135.01 42.00
  A 1.00 1.00 0.0 0 1 136.01 41.00
  L 162.00 41.00
  A 1.00 1.00 0.0 0 1 163.00 42.00
  L 163.00 93.06
  A 1.01 1.00 90.0 0 0 164.00 94.07
  L 206.00 93.97
  A 1.00 1.00 0.0 0 0 207.00 92.97
  L 207.00 42.00
  A 1.00 1.00 0.0 0 1 208.00 41.00
  L 233.08 41.00
  A 1.00 0.99 0.3 0 1 234.08 42.00
  L 233.96 96.75
  Z"
/>
<path d="
  M 482.96 97.25
  L 456.02 96.86
  L 456.04 42.00
  A 1.00 1.00 0.0 0 1 457.04 41.00
  L 481.99 41.00
  A 1.00 1.00 0.0 0 1 482.99 42.00
  L 482.96 97.25
  Z"
/>
<path d="
  M 555.75 96.39
  Q 542.41 97.28 529.04 97.10
  Q 528.60 73.24 528.79 49.00
  Q 528.82 45.31 529.20 41.90
  A 1.01 1.00 3.2 0 1 530.20 41.01
  L 555.33 40.99
  A 1.01 1.00 -87.4 0 1 556.33 42.09
  Q 555.88 46.64 556.01 51.18
  C 556.45 66.19 556.15 81.26 555.75 96.39
  Z"
/>
<path d="
  M 175.00 191.54
  L 199.50 191.79
  Q 187.25 192.32 175.00 191.54
  Z"
/>
</g>
<g fill="#000000">
<path d="
  M 753.95 14.52
  C 758.37 19.29 762.97 23.83 767.55 28.44
  C 771.64 32.56 773.46 37.87 769.05 42.30
  Q 747.33 64.12 725.49 85.81
  A 1.00 1.00 0.0 0 0 725.50 87.24
  Q 754.80 115.29 773.03 134.25
  C 775.81 137.13 775.06 140.86 772.26 143.64
  Q 742.05 173.72 711.80 203.77
  A 1.00 1.00 0.0 0 0 711.70 205.08
  C 714.67 209.07 711.37 214.43 707.68 216.67
  Q 699.76 221.46 692.05 226.57
  Q 662.70 246.05 633.05 265.09
  A 1.02 0.98 -60.3 0 1 632.51 265.25
  Q 547.94 265.25 463.13 265.25
  C 459.01 265.25 456.37 275.49 448.69 275.49
  Q 380.97 275.51 313.25 275.49
  C 309.47 275.49 305.75 275.62 303.08 272.68
  Q 299.94 269.23 296.99 265.62
  A 1.00 0.98 70.2 0 0 296.22 265.25
  Q 165.85 265.25 35.50 265.25
  C 29.69 265.25 27.93 262.63 26.20 257.24
  C 22.07 244.35 16.77 231.89 12.36 219.09
  C 10.30 213.11 6.98 210.35 10.27 203.48
  A 0.92 0.90 55.7 0 0 10.36 202.97
  Q 10.00 198.44 12.40 195.90
  Q 38.77 168.06 65.12 140.20
  A 1.00 1.00 0.0 0 0 65.09 138.79
  Q 43.41 117.80 22.69 95.93
  C 17.30 90.23 17.35 85.28 22.82 79.91
  Q 57.55 45.83 91.65 11.15
  Q 93.21 9.56 97.50 9.56
  Q 422.63 9.50 747.77 9.50
  A 0.99 0.97 61.8 0 1 748.32 9.67
  Q 751.25 11.61 753.95 14.52
  Z
  M 722.39 86.12
  Q 755.93 52.95 767.54 41.03
  C 770.84 37.64 769.83 33.58 766.63 30.33
  Q 757.17 20.74 748.32 11.81
  A 1.02 0.98 -21.8 0 0 747.61 11.52
  C 530.07 11.40 312.72 11.30 94.97 11.54
  A 1.01 1.00 -64.5 0 0 94.33 11.77
  C 89.61 15.67 84.40 21.44 81.02 24.84
  Q 52.18 53.80 23.15 82.57
  C 19.04 86.64 20.56 90.70 24.19 94.56
  Q 45.49 117.18 67.85 138.76
  A 1.00 0.99 -46.4 0 1 67.88 140.16
  Q 41.72 167.72 15.68 195.39
  C 12.80 198.44 12.28 200.03 12.25 204.07
  Q 12.24 204.32 12.12 204.54
  Q 10.14 208.15 11.27 211.03
  Q 20.51 234.73 28.93 258.72
  C 29.82 261.24 31.63 263.25 34.25 263.25
  Q 165.55 263.25 296.85 263.25
  A 1.00 0.99 66.8 0 1 297.54 263.53
  C 301.96 267.74 304.00 273.53 310.25 273.53
  Q 379.22 273.52 448.19 273.53
  C 453.09 273.53 457.67 267.67 460.13 263.72
  A 1.02 1.00 -73.5 0 1 460.98 263.25
  L 632.06 263.25
  A 1.03 1.01 28.2 0 0 632.61 263.09
  Q 669.53 238.85 706.59 214.71
  Q 709.63 212.73 710.45 210.87
  Q 711.82 207.75 709.10 205.22
  A 1.00 1.00 0.0 0 1 709.08 203.78
  Q 740.18 172.67 771.46 141.74
  C 773.48 139.74 773.09 137.11 771.15 135.13
  Q 748.90 112.36 722.70 87.30
  Q 722.56 87.17 722.43 87.07
  A 0.65 0.64 43.0 0 1 722.39 86.12
  Z"
/>
<path d="
  M 254.96 186.71
  L 254.72 47.71
  A 1.01 1.00 2.5 0 0 253.80 46.71
  Q 246.64 46.14 239.09 46.73
  L 239.10 37.25
  A 1.00 0.99 0.3 0 0 238.10 36.25
  L 203.75 36.25
  A 1.00 1.00 0.0 0 0 202.75 37.25
  L 202.75 87.06
  A 1.00 1.00 0.0 0 1 201.75 88.06
  L 186.91 88.06
  L 187.31 47.47
  A 1.00 1.00 0.0 0 0 186.29 46.46
  L 166.52 46.86
  L 166.39 37.24
  A 1.01 1.00 89.4 0 0 165.39 36.25
  L 132.45 36.25
  A 1.02 1.01 -76.8 0 0 131.54 36.82
  Q 129.86 40.35 129.64 44.03
  L 77.66 95.46
  L 74.94 95.30
  A 0.99 0.99 0.0 0 1 74.00 94.31
  L 74.00 78.92
  A 0.99 0.99 0.0 0 1 74.29 78.22
  L 121.18 31.14
  A 1.03 1.01 -67.2 0 1 121.90 30.84
  C 142.71 31.17 163.50 30.77 184.31 30.87
  Q 226.78 31.05 269.25 31.03
  A 1.00 1.00 0.0 0 1 270.25 32.03
  L 270.25 185.74
  A 1.00 1.00 0.0 0 1 269.25 186.74
  L 254.96 186.71
  Z"
/>
<path d="
  M 571.08 186.72
  L 570.98 47.56
  A 1.00 0.99 -87.1 0 0 570.09 46.57
  Q 565.30 46.05 560.48 46.85
  L 560.75 37.28
  A 1.00 1.00 0.0 0 0 559.75 36.25
  L 525.51 36.25
  A 1.00 0.99 -0.3 0 0 524.51 37.25
  Q 524.59 59.56 524.62 81.81
  Q 524.66 107.09 524.38 132.36
  A 0.99 0.96 -23.2 0 1 524.09 133.05
  C 521.86 135.33 511.88 146.17 509.28 145.56
  C 507.92 114.32 509.09 80.07 508.97 47.49
  A 1.00 1.00 0.0 0 0 508.00 46.49
  Q 498.06 46.19 487.95 46.92
  L 487.89 37.24
  A 1.00 1.00 0.0 0 0 486.89 36.25
  L 453.10 36.25
  A 1.00 0.99 0.0 0 0 452.10 37.24
  Q 451.76 77.53 451.74 116.91
  C 451.73 125.21 452.09 133.91 452.26 142.42
  A 1.00 0.99 -68.5 0 0 452.55 143.10
  L 494.37 185.49
  Q 496.26 187.41 493.57 187.19
  L 472.50 185.46
  C 462.19 172.30 448.55 159.33 436.57 147.95
  A 0.97 0.97 0.0 0 1 436.25 147.23
  L 436.25 47.52
  A 1.00 1.00 0.0 0 0 435.27 46.52
  L 410.26 45.98
  Q 408.23 45.94 409.43 47.58
  C 411.61 50.53 420.27 60.55 419.23 63.83
  L 387.91 32.28
  Q 386.56 30.92 388.48 30.92
  L 729.24 30.80
  Q 731.64 30.80 729.95 32.50
  Q 707.00 55.61 683.80 78.80
  C 680.92 81.69 676.58 86.35 672.40 82.36
  C 656.59 67.31 641.39 52.18 626.04 37.03
  A 1.02 0.99 -20.3 0 0 625.38 36.74
  Q 606.56 35.95 587.71 36.32
  A 1.00 0.99 -0.6 0 0 586.73 37.31
  Q 586.58 65.65 586.48 94.00
  Q 586.32 139.80 586.56 185.61
  A 1.00 0.99 -0.6 0 1 585.57 186.61
  L 571.08 186.72
  Z
  M 647.30 52.69
  C 656.18 62.13 666.40 70.79 675.87 79.48
  A 1.00 1.00 0.0 0 0 677.27 79.43
  L 707.38 48.20
  Q 709.01 46.51 706.66 46.51
  L 643.86 46.50
  Q 641.59 46.50 643.12 48.17
  Q 645.20 50.45 647.30 52.69
  Z"
/>
<path d="
  M 631.75 93.46
  L 629.54 92.25
  L 627.96 90.50
  C 626.50 87.68 623.75 85.41 622.11 83.40
  Q 618.97 79.56 615.13 76.40
  L 607.10 66.71
  Q 605.81 65.51 605.32 64.07
  A 1.00 1.00 0.0 0 1 606.19 62.75
  L 619.70 61.80
  A 1.00 0.97 -27.3 0 1 620.39 62.01
  Q 623.65 64.54 626.47 67.53
  Q 637.85 79.61 649.54 91.39
  Q 651.18 93.04 648.85 93.09
  L 631.75 93.46
  Z"
/>
<path d="
  M 317.02 67.30
  L 326.02 67.48
  A 1.00 1.00 0.0 0 1 327.00 68.48
  L 327.00 185.74
  A 1.00 1.00 0.0 0 0 328.00 186.74
  L 363.16 186.75
  Q 363.55 191.77 362.97 197.07
  A 1.00 0.99 3.5 0 1 361.97 197.95
  C 349.65 197.92 337.24 198.67 325.00 197.79
  L 319.50 197.79
  Q 318.51 198.15 317.63 197.79
  A 1.00 0.99 11.0 0 1 317.00 196.87
  L 317.02 67.30
  Z"
/>
<path d="
  M 374.75 67.29
  L 383.27 67.48
  A 1.00 1.00 0.0 0 1 384.25 68.48
  L 384.25 185.70
  A 1.00 1.00 0.0 0 0 385.25 186.70
  L 420.25 186.71
  L 420.46 195.25
  Q 420.46 196.50 419.76 197.36
  A 1.03 1.00 19.3 0 1 418.98 197.72
  L 375.50 197.59
  A 1.00 1.00 0.0 0 1 374.50 196.59
  L 374.50 76.25
  Q 374.50 76.01 374.39 75.79
  Q 373.78 74.61 373.96 73.25
  L 374.04 70.25
  L 374.75 67.29
  Z"
/>
<path d="
  M 555.75 96.39
  L 555.96 105.25
  Q 542.50 104.63 529.04 105.25
  L 529.04 97.10
  Q 542.41 97.28 555.75 96.39
  Z"
/>
<path d="
  M 456.02 96.86
  L 482.96 97.25
  L 482.96 105.00
  L 456.04 105.35
  L 456.02 96.86
  Z"
/>
<path d="
  M 135.03 99.08
  L 233.96 99.34
  L 234.01 105.17
  Q 184.46 104.68 135.04 105.25
  L 135.03 99.08
  Z"
/>
<path d="
  M 332.02 98.77
  Q 345.48 99.58 358.96 99.25
  L 358.96 105.00
  L 332.01 105.40
  L 332.02 98.77
  Z"
/>
<path d="
  M 684.00 98.46
  L 690.30 104.97
  L 590.94 105.12
  L 591.04 99.11
  Q 620.43 99.21 649.81 99.28
  Q 665.28 99.32 680.75 99.21
  Q 681.01 99.21 681.23 99.33
  Q 682.87 100.22 684.00 98.46
  Z"
/>
<path d="
  M 301.96 99.00
  L 301.96 105.25
  Q 288.50 104.63 275.04 105.25
  L 275.04 99.25
  L 301.96 99.00
  Z"
/>
<path d="
  M 415.98 99.60
  L 415.96 105.25
  L 415.50 105.29
  Q 402.28 104.47 389.01 105.42
  L 389.04 99.25
  L 415.98 99.60
  Z"
/>
<path d="
  M 733.50 103.21
  L 735.04 104.75
  L 699.92 105.26
  L 693.74 99.37
  Q 707.98 99.19 722.20 99.26
  C 723.41 99.26 724.51 98.80 725.96 99.54
  A 1.00 0.99 -39.3 0 0 726.69 99.61
  C 727.42 99.40 731.69 102.81 733.50 103.21
  Z"
/>
<path d="
  M 75.29 100.00
  L 80.25 104.96
  L 40.75 104.71
  Q 38.83 103.87 39.22 102.11
  A 1.01 0.99 -81.8 0 1 40.25 101.33
  Q 47.75 101.76 55.25 101.14
  Q 59.03 100.83 59.82 100.83
  C 63.71 100.88 67.52 101.24 71.38 100.62
  Q 72.62 100.42 73.79 100.96
  A 1.00 1.00 0.0 0 0 75.15 100.39
  L 75.29 100.00
  Z"
/>
<path d="
  M 683.75 123.04
  L 673.64 134.41
  A 1.01 1.00 -69.1 0 1 672.89 134.75
  L 634.25 134.75
  A 1.01 1.00 90.0 0 0 633.25 135.76
  L 633.54 186.72
  L 624.09 186.53
  A 1.01 1.01 0.0 0 1 623.10 185.53
  L 623.02 124.01
  A 1.00 1.00 0.0 0 1 624.02 123.01
  L 683.75 123.04
  Z"
/>
<path d="
  M 693.00 123.04
  L 712.11 123.03
  A 1.02 0.99 65.2 0 1 712.78 123.29
  L 727.53 136.58
  A 1.01 0.99 -46.1 0 1 727.55 138.04
  Q 714.36 150.87 701.23 164.32
  C 695.20 170.49 686.96 177.77 680.30 185.02
  C 678.47 187.01 676.83 187.15 674.34 186.57
  C 687.01 172.96 700.98 160.46 712.55 145.91
  A 1.00 1.00 0.0 0 0 712.57 144.69
  Q 703.84 132.88 693.00 123.04
  Z"
/>
<path d="
  M 187.25 124.54
  L 201.76 124.63
  A 1.00 1.00 0.0 0 1 202.75 125.63
  L 202.75 185.74
  A 1.00 1.00 0.0 0 1 201.75 186.74
  L 186.94 186.71
  L 187.25 124.54
  Z"
/>
<path d="
  M 92.12 186.41
  L 73.40 186.71
  Q 70.94 186.75 72.68 185.01
  L 116.01 141.48
  A 1.05 1.03 66.1 0 0 116.30 140.71
  L 115.93 134.00
  C 123.52 138.84 126.54 143.77 124.69 153.07
  A 0.99 0.99 0.0 0 1 124.42 153.57
  L 92.12 186.41
  Z"
/>
</g>
<g fill="#337070">
<path d="
  M 70.25 95.21
  L 75.29 100.00
  L 75.15 100.39
  A 1.00 1.00 0.0 0 1 73.79 100.96
  Q 72.62 100.42 71.38 100.62
  C 67.52 101.24 63.71 100.88 59.82 100.83
  Q 59.03 100.83 55.25 101.14
  Q 47.75 101.76 40.25 101.33
  A 1.01 0.99 -81.8 0 0 39.22 102.11
  Q 38.83 103.87 40.75 104.71
  L 40.00 105.29
  L 32.00 96.54
  C 33.65 96.99 34.92 97.64 36.70 97.38
  C 42.78 96.50 48.86 95.98 54.94 95.14
  C 60.27 94.41 64.83 96.57 70.25 95.21
  Z"
/>
<path d="
  M 680.74 95.37
  L 684.00 98.46
  Q 682.87 100.22 681.23 99.33
  Q 681.01 99.21 680.75 99.21
  Q 665.28 99.32 649.81 99.28
  Q 620.43 99.21 591.04 99.11
  L 591.04 97.25
  L 604.19 97.01
  C 624.41 97.22 639.83 97.88 654.50 96.71
  L 680.74 95.37
  Z"
/>
<path d="
  M 233.96 96.75
  L 233.96 99.34
  L 135.03 99.08
  L 135.02 97.07
  Q 141.58 97.01 159.50 97.21
  C 179.57 97.43 202.38 96.43 225.95 97.33
  Q 229.97 97.49 233.96 96.75
  Z"
/>
<path d="
  M 332.01 96.88
  L 358.96 97.25
  L 358.96 99.25
  Q 345.48 99.58 332.02 98.77
  L 332.01 96.88
  Z"
/>
<path d="
  M 415.50 105.29
  L 415.96 105.25
  L 415.89 133.25
  L 415.50 105.29
  Z"
/>
</g>
<g fill="#86272a">
<path d="
  M 373.50 67.29
  L 374.75 67.29
  L 374.04 70.25
  L 373.50 67.29
  Z"
/>
<path d="
  M 373.96 73.25
  Q 373.78 74.61 374.39 75.79
  Q 374.50 76.01 374.50 76.25
  L 374.50 196.59
  A 1.00 1.00 0.0 0 0 375.50 197.59
  L 418.98 197.72
  A 1.03 1.00 19.3 0 0 419.76 197.36
  Q 420.46 196.50 420.46 195.25
  L 420.39 197.44
  A 1.00 1.00 0.0 0 1 419.40 198.41
  Q 399.42 198.58 379.51 198.48
  C 376.54 198.47 373.33 200.17 373.32 195.35
  Q 373.12 117.59 373.22 77.75
  Q 373.23 75.79 373.96 73.25
  Z"
/>
<path d="
  M 615.13 76.40
  Q 618.97 79.56 622.11 83.40
  C 623.75 85.41 626.50 87.68 627.96 90.50
  Q 620.61 84.34 615.13 76.40
  Z"
/>
<path d="
  M 130.21 79.75
  L 130.06 125.25
  Q 128.65 102.50 130.21 79.75
  Z"
/>
<path d="
  M 629.54 92.25
  L 631.75 93.46
  L 629.46 93.50
  L 629.54 92.25
  Z"
/>
<path d="
  M 129.96 169.75
  L 130.18 186.43
  Q 128.68 177.92 129.96 169.75
  Z"
/>
<path d="
  M 319.50 197.79
  L 325.00 197.79
  Q 322.22 198.90 319.50 197.79
  Z"
/>
</g>
<path fill="#098bce" d="
  M 735.04 104.75
  L 768.22 137.77
  A 1.00 1.00 0.0 0 1 768.22 139.19
  Q 751.02 156.51 733.51 173.63
  C 725.55 181.41 714.60 192.79 704.73 201.98
  A 1.01 0.99 -66.0 0 1 704.05 202.25
  L 478.94 202.25
  A 1.01 0.99 -72.8 0 0 478.11 202.70
  L 464.85 222.56
  A 1.01 1.00 -72.8 0 1 464.02 223.00
  L 297.00 223.00
  A 1.01 1.00 72.8 0 1 296.17 222.56
  L 283.24 203.20
  A 1.01 1.01 0.0 0 0 282.40 202.75
  L 17.31 202.75
  A 1.00 1.00 0.0 0 1 16.40 201.33
  Q 17.07 199.86 18.19 198.68
  Q 46.16 169.08 74.27 139.40
  L 82.06 143.67
  A 1.03 1.01 -37.6 0 0 82.80 143.76
  Q 85.60 143.02 87.46 142.78
  C 92.29 142.16 96.59 140.74 101.54 140.71
  C 103.69 140.70 105.13 139.87 107.05 139.15
  A 0.65 0.64 75.1 0 1 107.91 139.65
  L 107.96 139.99
  A 0.99 0.99 0.0 0 0 108.85 140.82
  Q 110.41 140.97 111.28 139.56
  Q 111.76 138.78 111.77 138.74
  Q 111.95 137.83 113.02 139.72
  Q 87.60 164.00 63.78 189.83
  Q 62.24 191.50 64.51 191.51
  Q 79.48 191.57 94.43 191.52
  Q 134.72 191.39 175.00 191.54
  Q 187.25 192.32 199.50 191.79
  C 200.56 191.90 201.62 191.47 202.50 191.47
  Q 243.68 191.55 284.89 191.61
  A 1.03 0.98 66.5 0 1 285.60 191.91
  L 305.07 211.57
  A 1.04 1.01 66.5 0 0 305.78 211.86
  L 454.29 211.99
  A 1.03 1.01 -67.2 0 0 455.01 211.69
  L 472.94 193.44
  Q 474.99 191.36 477.67 191.33
  Q 513.25 191.04 548.81 191.44
  C 591.44 191.92 634.11 191.48 676.73 190.84
  A 1.00 0.92 -60.4 0 0 677.27 190.67
  Q 683.33 186.61 688.40 181.40
  C 702.67 166.71 717.90 152.80 731.46 137.72
  A 1.01 1.00 -47.5 0 0 731.40 136.32
  Q 715.29 121.28 699.92 105.26
  L 735.04 104.75
  Z"
/>
</svg>
