<?xml version="1.0" encoding="UTF-8" standalone="no"?>
<svg
   width="2288"
   height="1100"
   viewBox="0 0 176.4108 84.812675"
   version="1.1"
   id="svg62"
   sodipodi:docname="Spider-Man-w.svg"
   inkscape:version="1.1.2 (0a00cf5339, 2022-02-04)"
   xmlns:inkscape="http://www.inkscape.org/namespaces/inkscape"
   xmlns:sodipodi="http://sodipodi.sourceforge.net/DTD/sodipodi-0.dtd"
   xmlns="http://www.w3.org/2000/svg"
   xmlns:svg="http://www.w3.org/2000/svg">
  <defs
     id="defs66" />
  <sodipodi:namedview
     id="namedview64"
     pagecolor="#ffffff"
     bordercolor="#666666"
     borderopacity="1.0"
     inkscape:pageshadow="2"
     inkscape:pageopacity="0.0"
     inkscape:pagecheckerboard="0"
     showgrid="false"
     inkscape:zoom="0.30597213"
     inkscape:cx="1189.6508"
     inkscape:cy="477.16764"
     inkscape:window-width="1920"
     inkscape:window-height="1011"
     inkscape:window-x="1920"
     inkscape:window-y="32"
     inkscape:window-maximized="1"
     inkscape:current-layer="g60" />
  <g
     fill-rule="evenodd"
     clip-rule="evenodd"
     id="g60">
    <path
       d="m 152.55544,43.962834 v -10.559 l 8.072,17.652 c -2.609,0 -3.67,-3.017 -6.197,-2.895 z m 0,-18.712 c 2.078,5.748 4.199,11.537 6.768,16.674 3.994,0.979 4.32,5.504 7.256,7.175 l -1.102,-3.425 -9.457,-25.602 c 3.955,4.199 8.072,10.232 11.334,13.82 0.652,0.611 1.344,0.938 2.119,1.468 1.305,2.16 3.303,3.465 5.137,5.462 l 1.182,1.182 0.205,0.041 0.203,-0.122 c -4.443,-12.108 -12.23,-24.501 -16.266,-35.9570006 -0.205,-0.815 0.041,-1.834 -0.082,-2.609 l -1.182,-1.427 -3.914,2.038 7.094,16.7150006 c -0.285,-0.203 -0.408,-0.407 -0.652,-0.774 l -8.643,-11.0480007 z m 0,-16.3890007 V 25.250834 c -1.795,-4.974 -3.547,-9.947 -5.545,-14.473 -0.57,-0.9790005 -1.1,-0.693 -1.793,-0.9790005 -0.082,-0.082 -0.205,-0.1630002 -0.287,-0.2850002 v -1.183 l 5.504,-2.1599999 z m 0,24.5420007 -7.625,-16.755 v 9.906 l 0.449,1.142 -0.449,0.122 v 5.341 l 2.529,-0.734 c 0.041,0.245 0.203,0.408 0.406,0.938 l 4.689,10.6 v -10.56 z m -7.625,14.636 v -11.538 l 3.793,16.266 -1.428,-1.142 -1.916,-3.261 c -0.161,-0.081 -0.285,-0.203 -0.449,-0.325 z m -32.002,-9.132 2.65,-0.856 v 3.098 c -0.447,1.223 -1.998,1.427 -2.65,2.609 z m 32.002,-30.5760007 v 1.183 c -0.203,-0.245 -0.447,-0.611 -0.447,-0.979 z m 0,8.3170007 -3.139,-6.9310005 -6.4,2.7720005 -0.082,0.163 v 0.245 l 3.711,16.674 -3.832,1.345 -0.164,-0.082 -5.789,-15.655 -4.158,1.345 0.285,15.369 -7.459,-12.638 -4.975,1.631 v 6.808 c 1.143,3.587 1.875,5.708 2.732,8.724 1.59,4.852 3.18,12.516 6.318,18.02 3.791,1.305 3.262,6.808 6.197,8.724 l -6.768,-25.235 -0.896,-3.424 5.625,9.539 c 0.652,0.286 1.428,-0.04 1.834,0.652 0.979,0.204 1.795,1.509 2.732,1.142 l -0.041,-11.741 5.299,14.35 c 0.49,0.081 1.02,0.367 1.387,0.652 l 0.611,1.223 c 3.059,0.53 2.324,4.647 4.525,5.952 l 1.795,0.979 -2.488,-7.297 -5.748,-16.267 c 2.08,-1.264 2.65,2.365 4.77,2.039 1.59,4.036 0.816,9.376 4.117,12.312 v -11.537 l -0.732,-3.139 0.732,-0.204 v -5.341 l -1.955,0.612 -2.324,-9.417 c 0.367,-0.164 0.773,-0.326 1.223,-0.204 l 3.057,7.746 z m -32.002,47.575 v -8.725 l 9.703,17.856 -1.02,-0.693 c -1.672,-1.142 -2.977,-2.772 -4.361,-4.321 -0.367,-0.408 -0.734,-0.693 -1.223,-1.02 -0.449,-0.244 -0.896,-0.448 -1.387,-0.448 -0.407,-1.059 -1.018,-1.915 -1.712,-2.649 z m -3.626,-19.242 -0.367,-0.082 c 0,-1.59 -2.201,-2.527 -1.387,-4.28 l 5.381,-1.712 v 4.851 l -0.041,0.041 z m 3.626,-24.094 v 6.808 c -0.285,-0.897 -0.611,-1.917 -0.979,-3.058 -0.367,-0.734 -1.141,-1.305 -1.549,-1.998 0,-0.245 -0.285,-0.611 -0.082,-0.896 z m 0,34.612 -4.199,-7.745 c -5.217,-6.197 -0.285,-13.454 -0.773,-20.018 -0.652,-0.53 -0.775,-1.468 -0.938,-2.12 -1.387,-0.123 -2.121,-1.019 -2.732,-1.916 l -2.895,0.774 v 5.626 c 0.367,-0.041 0.775,0 1.102,0.123 1.346,2.201 -0.326,4.729 -0.979,7.134 l -0.123,-0.448 v 21.158 l 1.916,7.053 c 2.365,0.122 2.609,3.343 4.893,3.71 l -4.361,-18.182 6.48,11.333 c 0.939,0.733 1.836,1.427 2.609,2.242 z m -11.537,-31.024 v 5.626 c -0.57,0.041 -1.141,0.286 -1.589997,0.53 l 1.589997,6.278 v 21.158 l -1.507997,-5.585 -4.158002,-14.839 v -11.578 z m -5.665999,43.662 v -3.302 c 1.061,-0.245 2.078,-0.489 3.18,-0.733 -0.693,1.711 -1.916,2.893 -3.18,4.035 z m 0,-42.072 v 11.578 l -1.387004,-4.974 c -0.488,-1.142 0.57,-2.895 -0.855,-3.669 h -0.775 c -0.121,-0.489 -0.326,-1.59 0.164,-2.12 z m 0,38.77 c -1.305004,0.326 -2.609004,0.611 -3.914004,1.019 l -2.486,-13.371 3.955,-3.099 c -0.041,-0.938 1.223,-1.956 0.611,-2.771 -0.57,-0.204 -1.102,0.203 -1.631,0.203 l -4.159,0.938 -2.446,-13.617 4.363,-1.304 c 0.979,-1.305 1.631,-2.609 1.875,-4.24 0.123,-0.367 -0.244,-0.775 -0.408,-0.856 -4.28,-0.204 -8.683,1.59 -13.086,2.283 0.448,1.631 0.652,2.405 2.079,4.811 1.304,4.321 2.446,9.54 2.731,14.023 l -2.283,0.449 -0.122,-0.082 c -0.489,-3.343 -0.815,-6.971 -2.487,-9.947 -0.245,-3.057 -0.408,-6.033 -3.384,-7.419 0.082,-0.326 -0.122,-0.652 -0.367,-1.06 -0.326,0.041 -0.693,0.123 -1.019,0.163 v 8.398 a 0.573,0.573 0 0 1 0.122,0.163 c 2.324,5.544 3.343,11.007 3.017,16.715 0,0.122 0,0.366 -0.122,0.611 l -1.386,4.933 c -0.693,-1.794 -1.223,-3.669 -1.63,-5.585 v 26.702 c 0.204,-0.041 0.366,-0.122 0.611,-0.244 0.53,-2.65 2.324,-4.77 3.832,-6.809 -0.571,-3.058 3.221,-5.463 1.998,-8.684 0.123,-0.489 0.489,-0.896 0.815,-1.101 -0.123,-0.204 0,-0.489 -0.123,-0.692 2.12,-4.362 0.897,-8.725 0.408,-13.046 1.427,0 1.998,1.223 3.017,1.835 l 2.854,14.268 0.774,3.099 2.692,0.856 c 0.855,0.204 1.629,-0.449 2.16,-0.856 0.896,-1.345 2.037,-2.364 3.139004,-3.384 z m -22.177004,-33.878 v 8.398 c -0.816,-0.815 -2.242,0.489 -3.262,-0.082 1.468,5.504 1.998,11.456 3.262,16.919 v 26.702 a 2.679,2.679 0 0 1 -0.571,0.041 c -0.326,-0.122 -0.57,-0.326 -0.693,-0.693 0,-3.71 -1.712,-7.46 -1.998,-11.129 -4.321,-11.008 -2.854,-23.278 -5.911,-34.693 l -0.448,-0.326 v -3.669 c 3.139,-0.775 6.4,-0.938 9.621,-1.468 z m -9.621,49.94 c 0.448,0.611 0.896,1.182 1.467,1.63 l -1.345,-14.88 c -0.041,-0.774 -0.082,-1.508 -0.122,-2.282 z m 0,-48.472 v 3.669 l -1.183,-0.856 -0.285,-2.405 c 0.489,-0.164 0.979,-0.286 1.468,-0.408 z m 0,32.94 c -0.489,-9.051 -1.631,-18.02 -2.365,-26.948 0.082,-0.367 0.408,-0.367 0.408,-0.571 -0.734,-1.59 -0.408,-3.302 -0.734,-4.851 l -4.77,1.101 c 0,1.101 0.041,4.933 0.326,7.338 0.652,9.906 2.161,19.69 1.631,29.434 2.487,0.693 2.487,3.221 2.487,5.178 1.304,1.386 2.039,3.302 3.017,4.852 z m -17.897,-9.418 v -6.768 c 1.793,-1.997 2.69,-5.014 2.038,-7.623 -0.245,-0.448 -0.734,-0.693 -1.142,-0.815 l -0.896,0.204 v -7.624 c 2.079,0.163 4.688,0.489 6.156,1.549 1.427,1.264 2.16,3.057 2.405,5.096 0.163,1.02 0.122,2.895 0.082,4.036 0,4.199 -2.65,6.808 -5.178,8.969 a 43.555,43.555 0 0 0 -3.465,2.976 z m 0,-22.625 v 7.624 l -1.468,0.367 -0.815,9.417 1.875,-1.142 0.408,-0.408 v 6.768 a 43.694,43.694 0 0 0 -2.446,2.568 c -0.611,3.18 -1.182,5.871 -0.979,9.214 0.326,0.53 0,1.304 0,2.038 l -2.079,1.549 c 0.082,2.365 -0.611,4.443 -1.712,6.564 -1.427,1.997 -1.467,4.443 -2.323,6.645 l -0.082,0.082 c -0.204,-0.041 -0.286,-0.123 -0.408,-0.204 v -3.873 l 2.772,-38.688 c -0.408,-0.285 -0.897,0 -1.427,-0.285 -0.856,-1.834 0.326,-3.669 0.652,-5.544 l 1.387,-1.957 c 0,-0.204 0.244,-0.163 0.326,-0.489 l 4.566,-0.408 c 0.53,0.08 1.101,0.121 1.753,0.162 z m -10.029,1.182 0.245,-1.019 c -0.041,-0.326 0.082,-0.571 -0.123,-0.652 h -0.122 z m 0,-1.672 v 1.671 l -1.753,6.931 c -0.041,0.081 -0.326,0 -0.53,0.081 l -1.019,-1.671 c -2.569,0.938 -4.403,3.465 -6.482,5.259 -0.693,0.896 -0.774,1.916 -0.693,2.936 1.998,2.486 6.971,2.771 6.563,7.338 0.204,0.244 0.775,0.692 0.734,1.264 0,0.041 -0.123,0.204 -0.204,0.367 l 0.082,0.407 c 0.163,0.122 0.448,0.082 0.734,0.204 1.182,2.16 -0.489,4.525 -1.305,6.645 -3.506,4.688 -8.153,8.317 -13.82,11.375 -0.611,-0.082 -1.223,-0.367 -1.875,0 l -0.652,1.549 -2.201,1.345 -10.1099995,4.566 c 1.589,-2.527 4.5249995,-4.811 6.8079995,-7.42 l 1.713,-1.631 c 3.546,-4.484 9.621,-6.971 12.107,-12.475 0.53,-0.774 0.53,-1.468 0.082,-2.242 -2.039,-1.997 -5.34,-2.854 -7.665,-4.321 -1.426,-0.979 -0.733,-3.058 -1.426,-4.484 0.122,-1.142 -0.571,-2.527 0.693,-3.506 l 9.254,-9.703 c 2.324,-1.59 4.199,-3.75 7.094,-4.688 z m 0,47.698 -0.285,3.669 c 0.122,0.082 0.204,0.163 0.285,0.204 z"
       id="path4" />
    <path
       d="m 165.76444,47.998834 c -1.877,-2.812 -3.344,-5.667 -6.035,-6.646 -1.711,-2.854 -3.586,-7.175 -4.729,-11.17 l -4.525,-11.985 c -1.385,-2.854 -1.672,-6.809 -4.158,-8.8060007 -0.244,0 -0.488,-0.041 -0.814,-0.041 v -0.856 l 4.646,-1.8339999 1.916,2.2829999 1.061,1.5080007 2.568,3.221 4.484,5.503 2.283,2.487 c -0.529,-2.568 -2.08,-5.381 -3.098,-7.787 l -0.898,-2.283 c 0.164,-0.408 -0.406,-0.489 -0.365,-0.979 l -1.469,-3.5060006 -0.693,-1.631 c -0.041,-0.245 -0.162,-0.245 -0.244,-0.489 v -0.204 c -0.123,-0.204 -0.164,-0.204 -0.285,-0.529 l 0.121,-0.204 2.895,-1.549 c 0.367,0.244 0.857,0.652 0.939,1.141 0.203,1.019 -0.287,2.283 0.57,3.098 v 0.204 c 1.549,3.9140006 3.221,7.8270006 4.932,11.2520006 l 9.133,19.283 0.938,2.528 0.285,0.774 c -1.631,-1.834 -4.076,-3.547 -5.381,-5.626 -1.061,-0.815 -2.486,-1.182 -2.977,-2.568 l -5.178,-6.319 -6.318,-7.705 c -0.162,0.082 -0.408,0.163 -0.408,0.285 z m -20.261,-0.122 c 0.732,0.896 1.508,1.997 2.568,3.872 -0.123,-0.407 -0.123,-0.692 -0.164,-1.06 -0.734,-3.221 -1.631,-6.481 -2.404,-9.743 z m 0,-15.614 1.834,-0.774 c 0.285,0.082 0.488,0.204 0.57,0.407 -0.162,0.326 0.164,0.326 0.205,0.734 l 6.521,15.002 c 2.365,-0.122 3.018,2.527 5.219,2.65 l -2.812,-6.36 -8.195,-18.101 -2.201,-5.055 -1.141,-2.487 v 8.439 l 0.488,1.345 -0.488,0.163 z m 0,-22.9120007 c -0.041,0 -0.082,-0.041 -0.123,-0.041 0,-0.163 -0.162,-0.285 -0.326,-0.53 l 0.123,-0.163 0.326,-0.122 z m 0,8.9280007 v 8.439 l -0.896,-2.65 -1.59,-3.628 v -0.245 c -0.205,-0.285 -0.205,-0.285 -0.287,-0.489 -0.08,-0.53 -0.406,-1.141 -0.652,-1.508 l -1.752,0.408 2.324,10.314 0.162,0.041 2.691,-0.734 v 4.036 l -1.59,0.611 c 0.367,2.65 0.938,5.382 1.59,8.072 v 6.931 c -0.572,-0.693 -1.102,-1.224 -1.672,-1.916 -1.143,-2.65 -1.672,-6.36 -2.486,-10.559 -1.469,0 -2.324,-1.305 -3.547,-2.283 -0.57,-0.327 -1.184,-0.245 -1.795,-0.123 -0.162,0.082 -0.162,0.123 -0.406,0.285 l 3.221,9.622 2.078,5.829 2.527,7.624 c -2.895,-1.02 -1.793,-5.83 -5.096,-6.4 -0.326,-1.102 -1.1,-1.509 -2.039,-1.916 l -5.584,-15.125 -0.529,-0.123 v 12.475 l -1.957,-0.938 c -0.246,-0.489 -1.02,-0.693 -1.631,-0.693 l -3.467,-5.83 -3.18,-5.544 -0.326,0.122 a 1.033,1.033 0 0 0 0,0.489 l 8.195,29.108 c -2.242,-2.202 -2.121,-6.972 -5.504,-7.95 -3.629,-6.4 -4.811,-14.023 -7.256,-20.913 l -1.795,-6.523 -0.285,-0.693 v -4.565 l 2.527,-0.856 1.998,-0.775 1.182,1.672 0.938,1.753 c 0.367,0.367 0.408,0.938 0.939,1.427 l 0.896,1.631 1.059,1.671 1.469,2.65 1.711,2.568 -0.121,-16.144 3.424,-1.182 1.02,2.69 1.549,4.159 3.303,8.765 4.158,-1.183 c 0,-0.082 0.285,-0.285 0.57,-0.285 l -3.668,-17.122 c 0.365,-0.327 1.1,-0.327 1.426,-0.571 l 0.041,-0.163 2.936,-1.264 c 0.162,-0.122 0.367,-0.204 0.57,-0.122 0.326,-0.204 0.652,-0.327 0.938,-0.408 0,0.081 0.449,0.081 0.285,0.408 l 0.611,1.223 0.693,1.957 1.223,2.446 z m -32.534,45.374 c 0.775,0.815 1.469,1.713 1.998,2.772 0.449,0 0.693,0.366 1.061,0.366 l 1.426,1.224 c 1.631,1.509 2.609,3.18 4.402,4.199 l -8.887,-15.899 z m 0,-20.71 a 19.644,19.644 0 0 0 1.631,-1.263 c 0.896,-0.734 0.285,-1.917 0.326,-2.813 -0.162,-0.286 -0.367,0.082 -0.529,0.041 l -1.428,0.489 z m 0,-21.606 v 4.565 l -0.652,-1.793 c -0.447,-0.571 -1.426,-1.183 -1.426,-2.12 0.447,-0.326 1.305,-0.448 1.955,-0.611 z m 0,18.06 v 3.546 c -1.02,0.734 -2.078,1.305 -3.547,1.55 h -0.121 l -1.469,-2.813 v -0.612 z m 0,16.918 -4.973,-8.887 c -2.162,-3.099 -2.977,-6.279 -1.834,-9.662 l 1.264,-9.948 -0.857,-1.793 -1.426,-0.489 c -0.49,-0.407 -0.693,-0.897 -0.898,-1.346 l -0.244,-0.163 -2.568,0.775 v 4.688 a 3.808,3.808 0 0 1 1.834,0.327 c 0.939,2.609 -0.732,5.34 -1.223,7.868 -0.041,0.204 -0.244,0.367 -0.408,0.693 l -0.08,0.122 -0.123,-0.407 v 18.508 l 2.242,8.154 c 1.264,0.203 2.201,1.06 2.568,2.078 0.326,0.449 0.855,1.061 1.387,1.061 l -4.689,-18.753 c 0.123,-0.163 0.205,-0.286 0.326,-0.367 l 0.287,0.204 7.338,12.923 c 0.732,0.53 1.467,1.101 2.078,1.753 v -7.339 z m -11.537,-31.513 v 4.688 c -0.734,0.082 -1.428,0.327 -2.077999,0.571 l 2.077999,8.032 v 18.508 l -1.02,-3.75 c -1.630999,-6.197 -3.341999,-12.557 -4.890999,-18.509 v -7.787 l 1.59,-0.53 z m -5.909999,42.968 v -2.527 l 2.404,-0.488 c -0.408,1.263 -1.386,2.119 -2.404,3.015 z m 0,-41.215 v 7.787 c -0.490004,-1.916 -0.979004,-3.792 -1.428004,-5.626 -0.203,0 -0.488,0 -0.773,-0.122 -0.287,-0.286 0,-0.856 -0.041,-1.264 z m 0,38.688 -3.996004,0.856 -2.691,-13.82 4.119,-3.017 0.611,-2.201 -5.749,1.101 -2.527,-11.619 -0.367,-2.69 c 0.204,-0.204 0.53,0 0.774,-0.204 l 2.527,-0.693 c 0.693,-0.326 1.386,-0.204 1.712,-0.938 1.1,-1.06 1.387,-2.528 1.467,-3.792 -0.203,-0.122 -0.326,-0.489 -0.529,-0.489 -0.244,-0.041 -0.611,0.449 -0.814,0.163 l -11.008,2.324 c -0.326,0.122 0.164,0.529 0.082,0.693 0.082,0.815 0.326,1.427 0.693,1.916 0.489,0.897 1.264,1.508 1.508,2.609 1.02,4.566 2.12,9.417 2.324,13.779 l -3.139,0.489 c -0.896,-3.343 -0.652,-7.216 -2.405,-10.069 -0.612,-2.772 -0.408,-6.115 -3.384,-7.827 -0.123,-0.286 -0.327,-0.326 -0.327,-0.53 l -0.774,0.163 v 7.298 c 2.609,4.647 3.669,9.987 3.669,15.124 0,2.813 -0.693,5.789 -1.875,8.521 -0.449,-0.122 -0.815,-0.326 -1.223,-0.407 l -0.571,-3.221 v 23.645 c 0.163,0 0.285,0 0.367,-0.081 0,-3.221 3.506,-5.341 3.506,-8.235 1.427,-2.568 2.324,-5.341 2.446,-7.99 0.245,-0.204 0.286,-0.285 0.367,-0.408 1.63,-4.402 0.897,-9.132 0.367,-13.616 0.123,-0.203 0.204,-0.203 0.326,-0.326 1.59,-0.162 2.446,1.265 3.588,1.998 l 2.895,14.514 0.652,2.935 2.854,0.856 c 1.67,-0.204 1.508,-2.446 3.139,-2.936 0.408,-0.489 0.938,-0.938 1.387004,-1.346 v -2.529 z m -21.893004,-33.796 v 7.298 c -0.041,-0.082 -0.081,-0.123 -0.122,-0.204 l -0.408,-0.163 c -1.06,0.326 -2.12,0.571 -3.18,0.326 l 3.71,20.058 v 23.645 c -0.122,0 -0.285,-0.04 -0.448,0 h -0.163 c -0.938,-1.386 -0.448,-3.343 -0.979,-5.096 -0.367,-2.568 -1.549,-5.096 -1.671,-7.705 -3.75,-10.313 -2.487,-21.565 -5.096,-32.288 -0.204,-1.264 -1.142,-1.794 -1.916,-2.65 -0.041,-0.611 -0.245,-1.06 -0.204,-1.631 z m -27.436,23.727 v -5.381 c 1.101,-0.938 1.957,-2.242 2.283,-3.547 a 20.49,20.49 0 0 0 0.367,-3.873 c -0.163,-0.856 -0.612,-1.957 -1.427,-2.161 -0.245,0 -0.449,-0.204 -0.652,-0.204 l -0.571,0.204 v -3.71 c 0.123,0.082 0.204,0.163 0.285,0.204 h 0.367 l 1.264,-0.734 c -0.164,-0.367 0.449,-0.652 0.326,-1.019 0.245,0.367 0.408,1.019 0,1.426 -0.122,0.204 -0.204,0.204 -0.367,0.408 -0.53,0 -0.897,0.448 -1.305,0.856 -0.082,0.204 -0.122,0.367 -0.082,0.612 0.285,0.244 0.489,0.53 0.734,0.652 0.53,0.082 1.427,0.367 2.079,0.082 0.082,-0.204 0.367,-0.408 0.571,-0.856 0.122,0.204 -0.122,0.489 -0.204,0.734 -0.612,0.367 -0.693,1.142 -0.693,1.834 0.204,0.326 0.367,0.693 0.896,0.897 0.693,0 1.264,0 1.794,-0.367 l 1.508,-2.731 c 1.223,2.039 0.815,4.525 0.489,6.808 -0.204,1.998 -1.264,3.547 -2.487,5.015 l -4.403,4.199 z m 15.084,-16.063 c -0.122,-0.122 -0.122,-0.407 -0.326,-0.489 l 0.163,-0.204 c 0.245,0.082 0.041,0.367 0.163,0.652 z m -15.084,-2.609 v 3.71 l -2.079,0.611 -0.571,10.722 2.487,-1.59 0.163,-0.163 v 5.381 l -2.609,2.242 c -0.204,0.285 -0.53,0.326 -0.734,0.815 l -0.979,11.455 -1.712,1.509 c -0.122,1.753 -0.204,3.832 -1.509,5.423 -0.815,2.364 -1.793,4.77 -2.364,7.256 l -0.163,0.041 3.262,-42.479 c -0.53,-0.326 -1.264,-0.204 -1.957,-0.489 -0.286,-0.611 0.285,-1.631 0.285,-2.365 0.408,-1.467 0.938,-2.976 2.161,-4.199 0.082,-0.041 0.082,-0.286 0.204,-0.367 l 3.832,-0.204 -0.326,1.671 c 0.163,0.326 0.448,0.693 0.856,0.53 0.367,-0.041 0.734,-0.041 1.142,-0.285 0.162,0.245 0.366,0.531 0.611,0.775 z m -41.2969995,45.497 3.2609995,-3.506 c 4.811,-6.278 12.189,-9.744 16.225,-16.552 a 2.528,2.528 0 0 0 0.286,-2.772 c 0,-0.367 -0.408,-0.407 -0.734,-0.855 -1.957,-1.428 -4.403,-2.039 -6.686,-3.466 -0.774,-0.244 -1.142,-1.101 -1.346,-1.834 l -0.041,-1.631 c -0.612,-0.897 -0.082,-2.242 -0.285,-3.343 l 5.096,-5.708 3.424,-3.424 c 1.631,-1.671 3.75,-3.261 5.626,-4.525 l 2.039,-1.305 3.792,0.245 -0.326,2.283 -1.183,4.974 c -0.367,-0.163 -0.489,-0.367 -0.774,-0.733 -0.123,-0.082 -0.082,-0.408 -0.286,-0.652 -0.163,-0.082 -0.53,-0.123 -0.734,-0.123 l -3.139,2.365 -2.079,2.12 -2.161,2.609 0.449,2.486 c 0.938,1.875 3.302,1.834 4.81,2.936 0.164,0.162 0,0.529 0.327,0.57 0,1.875 1.671,3.547 1.468,5.381 0.122,0.285 0.326,0.408 0.693,0.652 h 0.367 c 0.489,1.835 -0.57,3.914 -1.467,5.83 -1.223,1.875 -2.936,3.506 -4.566,4.974 -2.079,1.753 -3.914,3.18 -6.278,4.647 -0.897,0.407 -1.712,1.631 -2.976,1.101 h -1.264 c -0.53,0.204 -0.53,0.856 -0.856,1.223 a 1.493,1.493 0 0 1 -0.938,1.468 c -3.098,1.672 -6.482,3.18 -9.6209995,4.525 z"
       fill="#cc2229"
       id="path6" />
    <path
       d="m 57.404437,41.475834 c -0.082,-2.161 -0.041,-4.403 -0.164,-5.137 -0.244,-0.163 0,-1.794 -0.163,-2.039 0.326,0.164 0.734,-0.244 1.06,-0.244 l 2.691,-0.489 0.571,7.175 1.386,14.595 1.998,26.051 -2.609,-4.444 c -1.55,-1.916 -0.123,-5.381 -3.099,-6.318 0.204,-9.784 -1.142,-19.405 -1.712,-29.148 h 0.041 z"
       fill="#cc2229"
       id="path8" />
    <path
       d="m 149.53844,42.413834 v -10.559 l 8.072,17.652 c -2.609,0 -3.67,-3.017 -6.197,-2.894 z m 0,-18.713 c 2.08,5.748 4.199,11.537 6.768,16.673 3.996,1.02 4.322,5.504 7.256,7.176 l -1.1,-3.425 -9.459,-25.602 c 3.955,4.199 8.072,10.232 11.334,13.82 0.652,0.611 1.346,0.938 2.119,1.468 1.305,2.161 3.303,3.465 5.137,5.462 l 1.184,1.183 0.203,0.041 0.203,-0.123 c -4.443,-12.107 -12.229,-24.501 -16.266,-35.9570006 -0.203,-0.815 0.041,-1.834 -0.082,-2.609 l -1.182,-1.42699999 -3.914,2.03799999 7.094,16.7150006 c -0.285,-0.204 -0.408,-0.408 -0.652,-0.774 l -8.643,-11.0480006 z m 0,-16.3880006 V 23.701834 c -1.793,-4.974 -3.547,-9.947 -5.545,-14.4720007 -0.57,-0.979 -1.1,-0.693 -1.793,-0.979 -0.082,-0.082 -0.203,-0.163 -0.285,-0.285 V 6.7838334 l 5.504,-2.161 z m 0,24.5420006 -7.623,-16.755 v 9.906 l 0.449,1.142 -0.449,0.122 v 5.341 l 2.527,-0.733 c 0.041,0.244 0.203,0.407 0.408,0.938 l 4.688,10.6 z m -7.623,14.635 v -11.537 l 3.791,16.266 -1.426,-1.142 -1.916,-3.262 c -0.164,-0.08 -0.287,-0.202 -0.449,-0.325 z m -32.002,-9.132 2.648,-0.856 v 3.098 c -0.447,1.223 -1.996,1.468 -2.648,2.65 z m 32.002,-30.5750006 v 1.1819999 c -0.203,-0.245 -0.449,-0.612 -0.449,-0.9789999 z m 0,8.3160006 -3.139,-6.9310007 -6.4,2.7720007 -0.082,0.163 v 0.245 l 3.709,16.673 -3.832,1.346 -0.162,-0.082 -5.789,-15.655 -4.158,1.346 0.285,15.369 -7.461,-12.638 -4.973,1.631 v 6.808 c 1.141,3.588 1.875,5.708 2.73,8.725 1.59,4.851 3.18,12.516 6.32,18.019 3.791,1.305 3.26,6.809 6.195,8.725 l -6.768,-25.235 -0.896,-3.424 5.625,9.54 c 0.654,0.285 1.428,-0.04 1.836,0.652 0.979,0.204 1.793,1.509 2.73,1.142 l -0.041,-11.741 5.301,14.351 c 0.488,0.081 1.02,0.366 1.387,0.652 l 0.611,1.223 c 3.057,0.53 2.322,4.647 4.525,5.952 l 1.793,0.979 -2.486,-7.297 -5.748,-16.267 c 2.078,-1.264 2.648,2.364 4.77,2.038 1.59,4.036 0.814,9.377 4.117,12.312 v -11.539 l -0.734,-3.139 0.734,-0.204 v -5.341 l -1.957,0.612 -2.324,-9.417 c 0.367,-0.164 0.775,-0.327 1.223,-0.204 l 3.059,7.746 z m -32.002,47.576 v -8.725 l 9.701,17.856 -1.018,-0.692 c -1.672,-1.142 -2.977,-2.772 -4.363,-4.322 -0.367,-0.407 -0.734,-0.692 -1.223,-1.019 -0.449,-0.245 -0.896,-0.448 -1.387,-0.448 -0.405,-1.061 -1.019,-1.916 -1.71,-2.65 z m -3.629,-19.243 -0.367,-0.081 c 0,-1.549 -2.201,-2.487 -1.385,-4.281 l 5.381,-1.712 v 4.893 l -0.041,0.04 z m 3.629,-24.093 v 6.808 c -0.285,-0.896 -0.611,-1.916 -0.979,-3.058 -0.367,-0.733 -1.143,-1.305 -1.549,-1.998 0,-0.244 -0.287,-0.611 -0.082,-0.897 z m 0,34.611 -4.199,-7.745 c -5.219,-6.196 -0.285,-13.453 -0.775,-20.017 -0.652,-0.53 -0.773,-1.468 -0.938,-2.12 -1.387,-0.122 -2.119,-1.019 -2.73,-1.916 l -2.894999,0.774 v 5.626 c 0.365,-0.041 0.773,0 1.1,0.122 1.345999,2.202 -0.326,4.729 -0.979,7.134 l -0.121,-0.448 v 21.158 l 1.915999,7.053 c 2.363,0.122 2.609,3.343 4.891,3.71 l -4.361,-18.183 6.482,11.333 c 0.938,0.734 1.834,1.427 2.609,2.242 z m -11.536999,-31.023 v 5.626 c -0.572,0.041 -1.143,0.285 -1.59,0.53 l 1.59,6.278 v 21.158 l -1.51,-5.585 -4.158004,-14.84 v -11.578 z m -5.668004,43.662 v -3.303 c 1.061,-0.244 2.08,-0.488 3.180004,-0.733 -0.692004,1.711 -1.917004,2.894 -3.180004,4.036 z m 0,-42.073 v 11.578 l -1.385,-4.974 c -0.49,-1.142 0.57,-2.895 -0.857,-3.669 h -0.773 c -0.123,-0.489 -0.326,-1.59 0.162,-2.12 z m 0,38.77 c -1.305,0.326 -2.607,0.612 -3.913,1.02 l -2.446,-13.371 3.914,-3.099 c -0.041,-0.938 1.223,-1.957 0.611,-2.772 -0.57,-0.204 -1.102,0.204 -1.631,0.204 l -4.117,0.938 -2.487,-13.616 4.403,-1.305 c 0.938,-1.305 1.59,-2.609 1.834,-4.24 0.123,-0.367 -0.244,-0.775 -0.408,-0.856 -4.281,-0.204 -8.683,1.59 -13.086,2.283 0.449,1.631 0.652,2.406 2.079,4.811 1.305,4.322 2.446,9.54 2.731,14.024 l -2.283,0.449 -0.123,-0.082 c -0.489,-3.343 -0.815,-6.971 -2.486,-9.947 -0.245,-3.058 -0.408,-6.034 -3.384,-7.42 0.082,-0.326 -0.122,-0.652 -0.367,-1.06 -0.326,0.041 -0.693,0.122 -1.019,0.163 v 8.398 a 0.574,0.574 0 0 1 0.123,0.163 c 2.323,5.544 3.343,11.007 3.017,16.714 0,0.122 0,0.367 -0.122,0.611 l -1.387,4.934 c -0.693,-1.795 -1.223,-3.67 -1.63,-5.586 v 26.703 c 0.204,-0.041 0.367,-0.122 0.612,-0.244 0.529,-2.65 2.323,-4.771 3.832,-6.809 -0.571,-3.058 3.221,-5.463 1.998,-8.684 0.122,-0.489 0.489,-0.896 0.815,-1.101 -0.122,-0.204 0,-0.489 -0.122,-0.693 2.12,-4.361 0.897,-8.724 0.408,-13.046 1.427,0 1.998,1.224 3.017,1.835 l 2.854,14.269 0.774,3.099 2.731,0.855 c 0.815,0.204 1.59,-0.448 2.12,-0.855 0.896,-1.346 2.039,-2.364 3.139,-3.384 v -3.303 z m -22.177,-33.877 v 8.398 c -0.815,-0.815 -2.242,0.489 -3.261,-0.082 1.467,5.504 1.998,11.455 3.261,16.918 v 26.703 a 2.679,2.679 0 0 1 -0.571,0.041 c -0.326,-0.123 -0.571,-0.326 -0.693,-0.693 0,-3.71 -1.712,-7.461 -1.998,-11.13 -4.321,-11.007 -2.853,-23.278 -5.911,-34.692 l -0.448,-0.327 v -3.668 c 3.139,-0.775 6.4,-0.938 9.621,-1.468 z m -9.621,49.939 c 0.448,0.612 0.897,1.183 1.468,1.631 l -1.345,-14.88 -0.123,-2.283 z m 0,-48.471 v 3.668 l -1.182,-0.856 -0.285,-2.405 c 0.489,-0.163 0.978,-0.285 1.467,-0.407 z m 0,32.939 c -0.489,-9.05 -1.631,-18.019 -2.365,-26.947 0.082,-0.367 0.408,-0.367 0.408,-0.57 -0.734,-1.59 -0.408,-3.302 -0.734,-4.852 l -4.77,1.101 c 0,1.101 0.041,4.933 0.326,7.338 0.652,9.907 2.161,19.691 1.631,29.434 2.487,0.692 2.487,3.221 2.487,5.177 1.304,1.387 2.039,3.303 3.017,4.852 z m -17.897,-9.417 v -6.768 c 1.794,-1.997 2.69,-5.015 2.039,-7.623 -0.245,-0.449 -0.734,-0.693 -1.142,-0.815 l -0.897,0.204 v -7.624 c 2.079,0.163 4.688,0.489 6.156,1.549 1.427,1.264 2.16,3.057 2.405,5.096 0.163,1.02 0.122,2.935 0.081,4.037 0,4.198 -2.649,6.808 -5.178,8.968 a 43.711,43.711 0 0 0 -3.464,2.976 z m 0,-22.626 v 7.624 l -1.467,0.367 -0.815,9.417 1.875,-1.141 0.408,-0.408 v 6.768 a 43.694,43.694 0 0 0 -2.446,2.568 c -0.612,3.18 -1.182,5.87 -0.979,9.213 0.326,0.53 0,1.305 0,2.039 l -2.079,1.549 c 0.082,2.365 -0.611,4.443 -1.712,6.563 -1.427,1.998 -1.468,4.443 -2.324,6.646 l -0.082,0.081 c -0.204,-0.04 -0.285,-0.122 -0.408,-0.204 v -3.872 l 2.772,-38.688 c -0.408,-0.285 -0.897,0 -1.427,-0.285 -0.856,-1.835 0.327,-3.669 0.652,-5.544 l 1.386,-1.957 c 0,-0.204 0.245,-0.163 0.327,-0.489 l 4.565,-0.408 c 0.531,0.08 1.102,0.12 1.754,0.161 z m -10.029,1.182 0.245,-1.019 c -0.041,-0.326 0.082,-0.57 -0.122,-0.652 h -0.123 z m 0,-1.671 v 1.671 l -1.753,6.931 c -0.041,0.082 -0.326,0 -0.53,0.082 l -1.019,-1.671 c -2.569,0.938 -4.403,3.506 -6.482,5.259 -0.693,0.896 -0.775,1.916 -0.693,2.935 1.998,2.487 6.971,2.772 6.563,7.339 0.204,0.244 0.774,0.692 0.734,1.264 0,0.041 -0.122,0.203 -0.204,0.366 l 0.082,0.408 c 0.163,0.122 0.448,0.081 0.734,0.203 1.182,2.161 -0.49,4.525 -1.305,6.646 -3.506,4.688 -8.153,8.316 -13.82,11.374 -0.611,-0.081 -1.223,-0.367 -1.875,0 l -0.652,1.55 -2.202,1.345 -10.10999957,4.566 c 1.59000007,-2.528 4.52500007,-4.812 6.80799957,-7.42 l 1.712,-1.631 c 3.546,-4.484 9.621,-6.972 12.108,-12.475 0.53,-0.774 0.53,-1.468 0.082,-2.242 -2.039,-1.998 -5.34,-2.854 -7.665,-4.321 -1.427,-0.979 -0.733,-3.058 -1.427,-4.484 0.123,-1.142 -0.57,-2.527 0.693,-3.506 l 9.254,-9.703 c 2.324,-1.59 4.199,-3.75 7.094,-4.688 z m 0,47.698 -0.285,3.669 c 0.123,0.081 0.204,0.163 0.285,0.203 z"
       id="path10" />
    <path
       d="m 70.164437,22.681834 v 0.041 c 0,0.652 -0.163,1.345 -0.367,1.957 -0.408,1.1 -1.019,1.834 -2.242,2.201 -3.18,0 -6.034,2.854 -9.417,1.101 V 9.7588335 c 1.834,1.1820005 3.302,2.7720005 3.914,5.0140005 -0.082,1.549 -0.286,2.895 -0.693,3.914 l 0.123,0.203 c 0.408,0.327 0.979,0 1.549,0.082 2.242,-0.285 5.055,0.489 6.686,2.201 0.325,0.449 0.447,0.979 0.447,1.509 z m -12.027,15.777 v -1.182 c 0.082,0.081 0.123,0.244 0.164,0.285 v -0.041 c -0.082,-0.244 0.081,-0.489 -0.164,-0.611 v -1.998 l 0.408,0.041 c 0.285,0.367 0.652,0.733 0.449,1.345 0,0.204 -0.326,0.204 -0.408,0.53 0,0.367 0.041,0.734 0.082,1.019 -0.163,0.205 -0.367,0.409 -0.531,0.612 z m 0,-6.482 v -0.611 h 0.123 c 0.041,0.163 0.041,0.326 0.082,0.529 z m -7.827,-1.794 c -0.163,-0.082 -0.326,-0.163 -0.53,-0.285 v 8.194 l 0.611,-1.142 c 0.163,0.407 1.183,1.305 1.223,1.712 0.041,0 0.041,0 0.041,0.041 v -0.408 c 0.489,0.734 1.387,1.304 2.202,1.59 -0.041,0.285 0.408,0.123 0.53,0.041 a 1.44,1.44 0 0 0 0.734,-0.652 l 0.122,-0.407 c -0.122,-0.245 -0.122,-0.53 -0.367,-0.611 0.897,0.366 2.12,1.141 3.098,0.366 0.041,-0.041 0.123,-0.081 0.163,-0.163 v -1.182 c 0,-0.082 -0.082,-0.123 -0.163,-0.163 l 0.123,-0.245 0.041,0.041 v -1.998 l -0.489,-0.082 c -0.408,-0.408 -1.468,-0.774 -2.242,-1.06 a 6.356,6.356 0 0 1 -0.612,-0.774 c 0.326,0.204 0,-0.489 0.326,-0.449 l 3.017,-0.57 v -0.611 c -0.326,-0.082 -0.244,-0.653 -0.571,-0.816 -0.692,-0.367 -1.508,-0.245 -1.834,-0.815 0.082,-0.367 0.449,-0.449 0.612,-0.734 l 1.63,-1.141 a 0.546,0.546 0 0 1 0.163,0.123 V 9.7588335 c -1.223,-0.8150002 -2.65,-1.4270002 -4.077,-1.9570002 a 34.565,34.565 0 0 0 -4.28,-1.0189999 V 27.206834 l 0.774,2.935 z m -0.529,-0.285 a 4.21,4.21 0 0 1 -0.774,-0.897 l 0.652,-2.283 0.122,0.489 V 6.7828334 c -2.12,-0.367 -4.321,-0.489 -6.401,-0.163 V 18.972834 l 0.938,0.244 c 0.163,0.122 0.285,0.204 0.408,0.489 v 0.489 l -0.326,0.204 -1.02,-0.367 v 15.083 c 0.042,0.041 0.082,0.082 0.123,0.082 h 0.367 l 1.264,-0.733 c -0.163,-0.367 0.408,-0.652 0.285,-1.02 0.245,0.367 0.408,1.02 0,1.427 -0.082,0.163 -0.204,0.163 -0.326,0.407 -0.53,0 -0.938,0.449 -1.305,0.856 -0.122,0.163 -0.163,0.367 -0.122,0.571 0.326,0.245 0.489,0.53 0.734,0.652 0.571,0.082 1.427,0.367 2.079,0.082 0.123,-0.204 0.408,-0.408 0.571,-0.815 0.122,0.204 -0.082,0.448 -0.204,0.693 -0.611,0.408 -0.652,1.142 -0.652,1.875 0.163,0.326 0.367,0.693 0.856,0.856 0.734,0 1.264,0 1.834,-0.326 l 0.897,-1.63 z m -6.401,-23.2780006 V 18.972834 l -1.386,-0.408 v 0.204 l 0.856,1.06 0.53,0.204 v 15.083 c -0.367,-0.285 -0.652,-0.611 -0.815,-0.896 -0.408,0.245 -0.734,0.245 -1.101,0.285 -0.408,0.122 -0.693,-0.245 -0.897,-0.571 l 0.734,-2.283 0.122,-0.041 c 0.897,-0.856 0.938,-2.12 0.611,-3.221 l -0.081,-0.204 -2.324,0.611 c -2.772,0.775 -5.422,-1.345 -8.031,-0.815 -1.712,-0.489 -2.854,-1.875 -3.587,-3.506 -0.204,-0.53 -0.408,-1.386 0.082,-1.916 1.386,-1.468 4.24,-2.568 6.319,-3.302 l 1.02,-3.424 c -0.53,-1.957 -0.612,-4.321 1.101,-5.789 1.996,-1.9970007 4.319,-3.0160006 6.847,-3.4240006 z"
       id="path12" />
    <path
       d="m 149.41544,41.067834 v -8.806 l 4.607,10.11 2.812,6.359 c -2.201,-0.122 -2.854,-2.771 -5.217,-2.649 z m 0,-19.16 2.57,6.727 c 1.141,3.995 3.016,8.316 4.729,11.17 2.689,0.979 4.158,3.832 6.033,6.646 l -10.803,-29.149 c 0,-0.122 0.244,-0.203 0.406,-0.285 l 6.32,7.705 5.178,6.319 c 0.488,1.386 1.916,1.753 2.975,2.569 1.305,2.079 3.752,3.791 5.383,5.626 l -0.287,-0.775 -0.938,-2.528 -9.131,-19.283 c -1.713,-3.424 -3.385,-7.3380007 -4.934,-11.2510006 v -0.204 c -0.855,-0.815 -0.367,-2.08 -0.57,-3.099 -0.082,-0.489 -0.57,-0.896 -0.938,-1.14199995 l -2.895,1.54999995 -0.123,0.203 c 0.123,0.326 0.164,0.326 0.285,0.53 v 0.204 c 0.082,0.244 0.205,0.244 0.246,0.489 l 0.691,1.63 1.469,3.5059999 c -0.041,0.489 0.529,0.571 0.367,0.9790007 l 0.896,2.283 c 1.02,2.405 2.568,5.218 3.098,7.787 l -2.283,-2.487 -4.484,-5.504 -2.568,-3.2200007 -0.693,-0.938 V 21.907834 Z m 0,-13.9430007 V 21.906834 l -1.955,-5.259 c -1.387,-2.854 -1.672,-6.8080005 -4.158,-8.8060007 -0.246,0 -0.49,-0.041 -0.816,-0.041 V 6.9448334 l 4.648,-1.834 1.916,2.2829999 z m 0,24.2980007 -3.586,-7.99 -2.201,-5.056 -1.143,-2.487 v 8.439 l 0.49,1.345 -0.49,0.163 v 4.036 l 1.834,-0.774 c 0.287,0.082 0.49,0.204 0.572,0.408 -0.164,0.326 0.162,0.326 0.203,0.734 l 4.32,9.988 v -8.806 z m -6.93,14.064 v -6.93 c 0.775,3.261 1.672,6.523 2.406,9.744 0.039,0.366 0.039,0.652 0.162,1.06 -1.06,-1.876 -1.834,-2.977 -2.568,-3.874 z m 0,-39.3810006 v 0.8559999 c -0.041,0 -0.082,-0.041 -0.121,-0.041 0,-0.163 -0.164,-0.286 -0.326,-0.5299999 l 0.121,-0.163 z m 0,9.7840006 v 8.439 l -0.896,-2.65 -1.467,-3.302 v -7.665 l 0.285,0.734 1.223,2.446 z m 0,9.948 v 4.036 l -1.59,0.612 c 0.367,2.65 0.938,5.381 1.59,8.072 v 6.93 c -0.57,-0.692 -1.1,-1.223 -1.672,-1.916 -0.285,-0.611 -0.488,-1.223 -0.691,-1.916 v -15.166 z m -2.363,28.006 v -0.693 l 0.285,0.815 a 1.783,1.783 0 0 1 -0.285,-0.122 z m 0,-43.131 v 7.664 l -0.123,-0.327 v -0.244 c -0.205,-0.285 -0.205,-0.285 -0.285,-0.489 -0.082,-0.53 -0.408,-1.142 -0.652,-1.508 l -1.754,0.408 2.324,10.314 0.162,0.041 0.328,-0.081 v 15.165 c -0.734,-2.364 -1.184,-5.34 -1.795,-8.643 -1.467,0 -2.324,-1.305 -3.547,-2.283 -0.57,-0.327 -1.182,-0.245 -1.793,-0.123 -0.164,0.082 -0.164,0.123 -0.408,0.285 l 3.221,9.621 2.08,5.83 2.242,6.808 v 0.693 c -2.57,-1.223 -1.631,-5.748 -4.812,-6.277 -0.324,-1.102 -1.1,-1.509 -2.037,-1.917 l -5.586,-15.124 -0.529,-0.123 v 12.476 l -1.957,-0.938 c -0.244,-0.489 -1.02,-0.692 -1.631,-0.692 l -3.465,-5.83 -3.18,-5.544 -0.326,0.123 a 0.984,0.984 0 0 0 0,0.489 l 8.193,29.107 c -2.242,-2.201 -2.119,-6.971 -5.502,-7.949 -3.629,-6.4 -4.812,-14.024 -7.258,-20.914 l -1.793,-6.523 -0.938,-2.487 c -0.246,-0.245 -0.572,-0.53 -0.898,-0.856 v -1.509 c 0.449,-0.163 0.979,-0.245 1.428,-0.367 l 2.65,-0.897 1.996,-0.774 1.184,1.671 0.938,1.753 c 0.367,0.367 0.408,0.938 0.938,1.427 l 0.896,1.63 1.061,1.671 1.467,2.65 1.713,2.568 -0.123,-16.144 3.426,-1.182 1.018,2.691 1.551,4.158 3.301,8.765 4.158,-1.182 c 0,-0.082 0.285,-0.286 0.572,-0.286 l -3.67,-17.123 c 0.367,-0.326 1.102,-0.326 1.428,-0.57 l 0.039,-0.163 2.936,-1.2640007 c 0.164,-0.123 0.367,-0.204 0.572,-0.123 a 3.61,3.61 0 0 1 0.938,-0.408 c 0,0.082 0.447,0.082 0.285,0.408 l 0.611,1.2230007 z m -31.719,49.206 c 1.51,1.142 2.691,2.446 3.547,4.118 0.449,0 0.693,0.366 1.061,0.366 l 1.428,1.224 c 1.631,1.508 2.609,3.18 4.402,4.198 l -10.438,-18.63 z m 0,-18.427 c 1.184,-0.53 2.08,-1.304 3.18,-2.201 0.898,-0.734 0.287,-1.916 0.326,-2.813 -0.162,-0.286 -0.365,0.082 -0.529,0.041 l -2.977,0.979 z m 0,-22.137 v 1.509 c -0.285,-0.367 -0.529,-0.775 -0.529,-1.264 0.123,-0.081 0.326,-0.163 0.529,-0.245 z m 0,18.142 v 3.995 c -0.57,0.245 -1.223,0.448 -1.996,0.611 h -0.123 l -1.467,-2.812 v -0.611 z m 0,13.698 -3.424,-6.156 c -2.16,-3.099 -2.977,-6.278 -1.834,-9.662 l 1.264,-9.948 -0.855,-1.793 -1.428,-0.489 c -0.49,-0.408 -0.693,-0.897 -0.896,-1.345 l -0.244,-0.163 -2.567999,0.774 v 4.688 a 3.818,3.818 0 0 1 1.833999,0.326 c 0.938,2.609 -0.733999,5.341 -1.222999,7.868 -0.041,0.204 -0.246,0.367 -0.408,0.693 l -0.082,0.123 -0.121,-0.408 v 18.509 l 2.241999,8.153 c 1.264,0.204 2.201,1.06 2.568,2.079 0.326,0.448 0.855,1.06 1.385,1.06 l -4.687997,-18.753 c 0.120997,-0.162 0.202997,-0.285 0.325997,-0.366 l 0.285,0.204 7.338,12.923 c 0.164,0.122 0.367,0.244 0.529,0.407 z m -9.985999,-28.782 v 4.688 c -0.734,0.081 -1.428,0.326 -2.08,0.571 l 2.08,8.031 v 18.509 l -1.02,-3.751 c -1.631,-6.196 -3.344004,-12.556 -4.893004,-18.508 v -7.787 l 1.59,-0.53 z m -5.912004,42.968 v -2.527 l 2.404,-0.489 c -0.406,1.264 -1.385,2.12 -2.404,3.016 z m 0,-41.215 v 7.787 c -0.488,-1.916 -0.979,-3.792 -1.428,-5.625 -0.203,0 -0.488,0 -0.773,-0.123 -0.285,-0.286 0,-0.856 -0.041,-1.264 z m 0,38.688 -3.996,0.856 -2.69,-13.82 4.118,-3.017 0.611,-2.201 -5.748,1.101 -2.528,-11.619 -0.367,-2.691 c 0.204,-0.204 0.53,0 0.774,-0.204 l 2.528,-0.693 c 0.693,-0.326 1.386,-0.204 1.712,-0.938 1.101,-1.06 1.386,-2.527 1.468,-3.791 -0.204,-0.123 -0.326,-0.489 -0.53,-0.489 -0.245,-0.041 -0.612,0.448 -0.815,0.163 l -11.007,2.324 c -0.326,0.122 0.163,0.53 0.082,0.693 0.082,0.815 0.326,1.427 0.693,1.916 0.489,0.897 1.264,1.508 1.509,2.609 1.019,4.566 2.12,9.417 2.324,13.779 l -3.139,0.489 c -0.897,-3.343 -0.652,-7.216 -2.405,-10.069 -0.611,-2.772 -0.408,-6.115 -3.384,-7.828 -0.122,-0.286 -0.326,-0.326 -0.326,-0.53 l -0.774,0.163 v 7.297 c 2.609,4.688 3.669,9.988 3.669,15.125 0,2.813 -0.693,5.789 -1.875,8.521 -0.449,-0.122 -0.815,-0.326 -1.224,-0.408 l -0.57,-3.221 v 23.646 c 0.163,0 0.285,0 0.367,-0.082 0,-3.221 3.506,-5.34 3.506,-8.234 1.427,-2.568 2.323,-5.341 2.446,-7.99 0.245,-0.204 0.285,-0.286 0.367,-0.408 1.631,-4.402 0.897,-9.132 0.367,-13.616 0.122,-0.204 0.204,-0.204 0.326,-0.326 1.59,-0.163 2.446,1.264 3.587,1.998 l 2.895,14.513 0.652,2.936 2.854,0.856 c 1.671,-0.204 1.507,-2.446 3.138,-2.936 0.408,-0.489 0.938,-0.938 1.387,-1.346 v -2.528 z m -21.892,-33.796 v 7.297 c -0.041,-0.082 -0.082,-0.123 -0.123,-0.204 l -0.408,-0.163 c -1.06,0.326 -2.12,0.571 -3.18,0.326 l 3.71,20.057 v 23.646 c -0.123,0 -0.286,-0.041 -0.448,0 h -0.163 c -0.938,-1.386 -0.449,-3.343 -0.979,-5.097 -0.367,-2.567 -1.549,-5.096 -1.672,-7.704 -3.75,-10.314 -2.486,-21.566 -5.096,-32.288 -0.122,-0.938 -0.693,-1.468 -1.305,-2.038 v -2.364 z m -9.663,48.513 0.815,1.427 -0.815,-10.681 z m 0,-47.045 v 2.364 a 4.345,4.345 0 0 1 -0.611,-0.611 c -0.041,-0.612 -0.245,-1.061 -0.204,-1.631 z m 0,37.791 v 9.254 l -1.793,-3.017 c -1.549,-1.916 -0.123,-5.382 -3.098,-6.319 0.204,-9.783 -1.142,-19.404 -1.713,-29.148 0.367,-0.163 0.571,-0.367 0.775,-0.692 l 0.082,-0.408 c -0.082,-0.204 -0.082,-0.489 -0.367,-0.53 0.897,0.326 2.161,1.06 3.099,0.326 0.163,-0.163 0,-0.529 0.367,-0.693 l 1.467,15.859 z m -17.774,-15.532 v -5.382 c 1.101,-0.938 1.957,-2.242 2.283,-3.547 0.244,-1.264 0.367,-2.567 0.367,-3.873 -0.163,-0.856 -0.612,-1.957 -1.427,-2.161 -0.245,0 -0.449,-0.204 -0.652,-0.204 l -0.571,0.204 v -3.709 c 0.123,0.081 0.204,0.163 0.285,0.204 h 0.367 l 1.264,-0.734 c -0.163,-0.367 0.449,-0.652 0.326,-1.019 0.245,0.367 0.408,1.019 0,1.427 -0.122,0.204 -0.204,0.204 -0.367,0.408 -0.53,0 -0.897,0.448 -1.305,0.856 -0.082,0.204 -0.122,0.367 -0.082,0.612 0.285,0.245 0.489,0.53 0.734,0.652 0.53,0.082 1.427,0.367 2.079,0.082 0.082,-0.204 0.367,-0.408 0.571,-0.856 0.122,0.204 -0.123,0.489 -0.204,0.734 -0.611,0.367 -0.693,1.142 -0.693,1.834 0.204,0.326 0.367,0.693 0.897,0.897 0.693,0 1.264,0 1.794,-0.367 l 1.508,-2.731 c 1.224,2.038 0.815,4.525 0.489,6.808 -0.204,1.998 -1.264,3.547 -2.486,5.015 l -4.403,4.199 z m 14.432,-18.794 c -0.408,-0.408 -1.468,-0.774 -2.201,-1.06 a 5.987,5.987 0 0 1 -0.652,-0.774 c 0.367,0.163 0,-0.489 0.367,-0.449 l 2.691,-0.53 0.122,2.772 z m 0.652,2.731 c -0.123,-0.122 -0.123,-0.408 -0.326,-0.489 l 0.163,-0.204 c 0.245,0.082 0.041,0.367 0.163,0.652 z m -56.3809995,42.888 3.261,-3.507 c 4.8109997,-6.278 12.1899995,-9.743 16.2259995,-16.552 a 2.53,2.53 0 0 0 0.286,-2.771 c 0,-0.367 -0.408,-0.408 -0.734,-0.856 -1.957,-1.427 -4.403,-2.038 -6.686,-3.465 -0.775,-0.245 -1.142,-1.101 -1.346,-1.835 l -0.041,-1.631 c -0.611,-0.896 -0.081,-2.242 -0.285,-3.343 l 5.096,-5.707 3.425,-3.425 c 1.63,-1.671 3.75,-3.261 5.626,-4.525 l 2.038,-1.305 3.792,0.245 -0.326,2.283 -1.182,4.974 c -0.367,-0.163 -0.489,-0.367 -0.775,-0.734 -0.123,-0.082 -0.081,-0.408 -0.285,-0.652 -0.163,-0.082 -0.53,-0.123 -0.734,-0.123 l -3.139,2.365 -2.079,2.12 -2.161,2.609 0.448,2.487 c 0.938,1.875 3.303,1.834 4.811,2.935 0.164,0.163 0,0.53 0.326,0.57 0,1.876 1.672,3.548 1.468,5.382 0.123,0.285 0.326,0.408 0.693,0.652 h 0.367 c 0.489,1.834 -0.571,3.914 -1.468,5.83 -1.223,1.875 -2.935,3.506 -4.566,4.973 -2.079,1.754 -3.914,3.181 -6.278,4.648 -0.896,0.407 -1.712,1.63 -2.976,1.101 h -1.264 c -0.53,0.204 -0.53,0.855 -0.856,1.223 a 1.493,1.493 0 0 1 -0.938,1.468 c -3.099,1.671 -6.4819995,3.18 -9.6209995,4.525 z m 41.2969995,-45.497 v 3.709 l -2.079,0.611 -0.571,10.723 2.487,-1.59 0.163,-0.164 v 5.382 l -2.609,2.242 c -0.204,0.285 -0.53,0.326 -0.734,0.815 l -0.979,11.455 -1.712,1.509 c -0.122,1.753 -0.204,3.832 -1.508,5.422 -0.815,2.364 -1.794,4.77 -2.364,7.257 l -0.163,0.041 3.261,-42.48 c -0.53,-0.326 -1.264,-0.204 -1.957,-0.489 -0.285,-0.611 0.286,-1.63 0.286,-2.365 0.408,-1.467 0.938,-2.976 2.161,-4.199 0.082,-0.041 0.082,-0.286 0.204,-0.367 l 3.833,-0.204 -0.326,1.671 c 0.163,0.326 0.448,0.693 0.856,0.53 0.367,-0.041 0.734,-0.041 1.142,-0.286 0.161,0.247 0.364,0.533 0.609,0.777 z"
       fill="#fff22d"
       id="path14" />
    <path
       d="m 58.178437,36.257834 v -0.611 c 0.123,0 0.204,0.041 0.367,0.122 v 0.408 c -0.122,0.081 -0.244,0.081 -0.367,0.081 z m 0,-9.254 v -1.02 c 0.163,-0.244 0.326,-0.448 0.449,-0.652 0.285,0.367 0.041,1.305 -0.449,1.672 z m 0,-1.753 v -0.652 c 0.041,0 0.082,-0.041 0.123,-0.082 l 0.204,0.204 z m 0,-0.653 v 0.652 l -0.571,0.978 c -0.123,-0.041 -0.204,-0.163 -0.285,-0.326 v -0.611 c 0.245,-0.244 0.53,-0.407 0.856,-0.693 z m 0,1.386 c -0.245,0.408 -0.448,0.815 -0.163,1.142 l 0.082,-0.041 c 0.041,-0.041 0.082,-0.041 0.082,-0.082 v -1.019 z m 0,9.662 v 0.611 c -0.123,0 -0.245,0 -0.367,0.082 -0.123,-0.082 -0.286,-0.122 -0.489,-0.204 v -0.693 c 0.327,0.123 0.571,0.082 0.856,0.204 z m -0.855,2.691 v -0.896 c 0.082,0 0.122,0.041 0.163,0.041 0.204,0.245 0.082,0.448 -0.081,0.815 -10e-4,0.04 -0.042,0.04 -0.082,0.04 z m 0,-6.849 v -0.326 c 0.04,0.122 0.04,0.204 0,0.326 z m 0,-3.873 v -0.163 c 0.041,-0.082 0.082,-0.204 0.285,-0.245 l 0.163,0.082 c 0.041,0.163 -0.326,0.204 -0.448,0.326 z m 0,-0.815 v -0.245 c 0.04,0.082 0.04,0.163 0,0.245 z m 0.651,7.909 c -0.408,0 0,0.245 0.041,0.041 z m -0.651,-9.418 v 0.611 a 0.305,0.305 0 0 0 -0.082,-0.163 v -0.327 c 0.04,-0.039 0.082,-0.08 0.082,-0.121 z m 0,1.264 v 0.327 c -0.041,0.123 -0.041,0.245 -0.082,0.367 v -1.019 c 0.04,0.08 0.082,0.203 0.082,0.325 z m 0,0.897 z m 0,3.71 v 0.326 c 0,0.041 0,0.122 -0.041,0.163 -0.041,0 -0.041,0 -0.041,0.041 v -0.734 l 0.082,0.082 z m 0,4.28 v 0.693 c 0,0 -0.041,-0.041 -0.082,-0.041 v -0.611 c 0.04,-0.041 0.04,-0.041 0.082,-0.041 z m 0,1.998 v 0.896 h -0.082 v -0.938 c 0.04,10e-4 0.082,10e-4 0.082,0.042 z m -0.083,-12.027 v 0.327 l -0.122,-0.123 c 0.041,-0.081 0.082,-0.122 0.122,-0.204 z m 0,0.816 a 1.113,1.113 0 0 0 -0.326,-0.408 l -0.204,-0.122 a 4.222,4.222 0 0 0 -0.448,0.245 v 0.652 l 0.652,0.815 h 0.082 a 0.62,0.62 0 0 0 0.244,-0.163 z m 0,4.729 v 0.734 c -0.326,0.163 -0.652,0.123 -0.978,0.123 v -0.652 c 0.163,0.122 0.326,0.204 0.489,0.122 0,-0.204 -0.041,-0.367 -0.367,-0.407 0.286,-0.124 0.612,-0.124 0.856,0.08 z m 0,4.525 v 0.611 c -0.081,-0.041 -0.122,-0.082 -0.163,-0.122 10e-4,-0.163 0.041,-0.407 0.163,-0.489 z m 0,1.916 v 0.938 c -0.244,0.041 -0.53,0 -0.733,0 -0.082,0 -0.163,0 -0.245,-0.041 v -0.897 c 0.326,-0.122 0.653,-0.122 0.978,0 z m -0.978,-1.468 v -1.06 c 0.041,0 0.082,0 0.122,-0.041 0.286,0.082 0.367,0.123 0.53,0.367 0,0.204 -0.204,0.408 -0.204,0.612 l -0.408,0.163 c 0.001,0 -0.04,0 -0.04,-0.041 z m 0,-7.378 v -1.509 c 0.163,0.163 0.286,0.367 0.408,0.571 0,0.367 -0.163,0.693 -0.408,0.938 z m 0,-2.895 v -0.611 c 0.163,0.123 0.245,0.326 0.122,0.571 -0.04,-10e-4 -0.081,-10e-4 -0.122,0.04 z m 0,-0.611 v 0.611 c -0.082,0.041 -0.123,0.082 -0.204,0.122 v -0.896 l 0.041,0.041 c 0.041,0.04 0.123,0.081 0.163,0.122 z m 0,0.897 v 0.652 l -0.163,-0.245 v -0.204 c 0,-0.04 0.082,-0.122 0.163,-0.203 z m 0,1.1 v 1.509 a 0.908,0.908 0 0 1 -0.204,0.163 v -1.875 c 0.082,0.04 0.164,0.122 0.204,0.203 z m 0,4.118 v 0.652 h -0.204 v -0.734 c 0.082,0 0.164,0.041 0.204,0.082 z m 0,3.71 v 1.06 c -0.041,-0.041 -0.123,-0.041 -0.204,-0.081 v -0.816 c 0.082,-0.041 0.123,-0.123 0.204,-0.163 z m 0,2.527 v 0.897 c -0.082,0 -0.123,0 -0.204,-0.082 v -0.652 c 0.041,-0.041 0.041,-0.041 0.041,-0.082 0.041,-0.04 0.123,-0.04 0.163,-0.081 z m -0.203,-0.203 v -0.367 c 0.041,0 0.081,0.041 0.081,0.041 0,0.081 0,0.203 -0.081,0.326 z m 0,-12.312 v 0.896 l -0.245,0.245 v -1.345 c 0.081,0.082 0.163,0.163 0.245,0.204 z m 0,1.957 v 1.875 c -0.041,0.041 -0.123,0.082 -0.204,0.123 -0.041,0 -0.041,0 -0.041,-0.041 v -2.12 c 0.081,0.04 0.163,0.081 0.245,0.163 z m 0,4.239 v 0.734 c -0.082,0 -0.164,0.041 -0.245,0.081 v -0.896 c 0.081,0 0.163,0 0.245,0.081 z m 0,3.954 v 0.816 a 0.574,0.574 0 0 1 -0.245,-0.082 v -0.53 c 0.041,-0.081 0.163,-0.122 0.245,-0.204 z m 0,1.794 v 0.367 c -0.041,0.122 -0.164,0.245 -0.245,0.367 v -0.774 a 0.53,0.53 0 0 1 0.245,0.04 z m 0,0.734 c -0.082,0.204 -0.082,0.367 -0.082,0.57 l 0.082,0.082 z m -0.245,-2.65 v -0.326 a 0.574,0.574 0 0 1 0.123,0.163 0.563,0.563 0 0 1 -0.123,0.163 z m -0.571,-6.196 c 0.082,0.123 0.164,0.245 0.245,0.326 l -0.041,0.286 -0.204,0.122 z m 0.571,-4.036 v 1.345 l -0.244,0.122 h -0.082 l -0.245,-0.082 v -1.671 c 0.204,0.082 0.367,0.163 0.571,0.286 z m 0,1.998 c -0.122,-0.041 -0.204,-0.041 -0.326,-0.041 -0.041,0.163 -0.163,0.163 -0.245,0.204 v 1.345 c 0.204,0.204 0.327,0.449 0.571,0.611 z m 0,4.321 v 0.896 c -0.082,0 -0.122,0.041 -0.163,0.041 l -0.204,-0.082 c -0.163,-0.204 0,-0.449 0.123,-0.734 0.081,-0.081 0.162,-0.121 0.244,-0.121 z m 0,3.587 v 0.326 c -0.122,0.082 -0.244,0.122 -0.326,0.285 a 0.661,0.661 0 0 1 -0.245,0.123 v -0.856 c 0.123,-0.041 0.245,-0.041 0.327,0.041 0.04,0 0.122,0.04 0.244,0.081 z m 0,0.653 c -0.082,0.082 -0.122,0.163 -0.163,0.204 v 0.204 c 0.041,0.082 0.081,0.122 0.163,0.122 z m 0,1.549 v 0.774 a 2.184,2.184 0 0 1 -0.367,0.285 c -0.082,-0.041 -0.123,-0.081 -0.204,-0.122 v -0.652 c 0.163,-0.163 0.367,-0.285 0.571,-0.285 z m -0.571,-0.041 v -0.611 c 0.082,0.082 0.164,0.122 0.204,0.285 0,0.122 -0.082,0.244 -0.204,0.326 z m 0,-5.585 a 0.447,0.447 0 0 0 0,-0.326 z m 0,-0.652 v -0.285 c 0.123,0 0.327,0.041 0.408,0.204 l -0.164,0.245 c -0.04,-0.083 -0.122,-0.124 -0.244,-0.164 z m -0.448,-2.284 c 0.204,0.123 0.326,0.327 0.448,0.489 v 0.734 l -0.448,0.286 z m 0.448,-3.832 v 1.671 l -0.448,-0.204 v -1.427 c 0.122,-0.08 0.285,-0.08 0.448,-0.04 z m 0,2.447 v 1.345 a 1.426,1.426 0 0 0 -0.367,-0.286 c -0.041,-0.082 -0.082,-0.163 -0.082,-0.204 v -0.163 c 0.041,-0.245 0.204,-0.408 0.448,-0.612 z m 0,3.383 v 0.285 l -0.122,-0.122 z m 0,0.612 v 0.326 c -0.041,0.081 -0.081,0.204 -0.163,0.285 l -0.041,0.041 c -0.041,-0.082 -0.163,-0.122 -0.245,-0.204 v -0.571 c 0.041,0 0.041,0 0.082,-0.041 l 0.367,0.122 z m 0,3.628 v 0.856 h -0.204 l -0.245,-0.204 v -0.407 a 0.553,0.553 0 0 1 0.449,-0.245 z m 0,1.672 v 0.611 c -0.122,0.163 -0.326,0.285 -0.448,0.489 v -1.223 c 0.041,0 0.041,-0.041 0.082,-0.041 l 0.245,0.041 z m 0,0.937 c -0.081,0.082 -0.163,0.163 -0.163,0.204 v 0.285 l 0.163,0.163 z m -0.448,-2.731 v -0.367 l 0.082,0.163 c -10e-4,0.082 -0.042,0.122 -0.082,0.204 z m 0,-7.257 c 0.163,-0.204 0.326,-0.408 0.448,-0.652 l -0.122,-0.204 c -0.082,-0.082 -0.204,-0.163 -0.326,-0.163 z m -0.163,1.06 c 0.041,0.041 0.123,0.041 0.163,0.081 v 1.509 l -0.163,0.122 z m 0.163,-3.71 v 1.427 l -0.163,-0.082 v -0.978 c 0.081,-0.122 0.122,-0.245 0.163,-0.367 z m 0,1.631 v 1.02 l -0.163,0.163 v -1.264 c 0.041,0.04 0.122,0.04 0.163,0.081 z m 0,1.468 z m 0,3.179 v 0.571 c -0.041,-0.041 -0.122,-0.082 -0.163,-0.163 v -0.367 c 0.041,-0.041 0.122,-0.041 0.163,-0.041 z m 0,3.262 v 0.367 c -0.041,0.041 -0.082,0.123 -0.163,0.163 v -0.693 a 0.127,0.127 0 0 0 0.082,0.041 z m 0,0.734 v 0.407 l -0.082,-0.082 0.082,-0.285 z m 0,1.304 v 1.264 h -0.082 c 0,0 -0.041,0 -0.082,-0.041 v -1.101 c 0.042,-0.04 0.082,-0.081 0.164,-0.122 z m -0.163,-4.321 v -0.163 c 0.041,0.041 0.041,0.082 0.082,0.163 z m -0.245,-3.547 h 0.245 v 1.712 l -0.245,0.163 z m 0.245,-3.343 v 0.978 l -0.245,-0.081 v -0.53 z m 0,1.182 v 1.264 c -0.082,0.082 -0.163,0.123 -0.245,0.204 v -1.508 c 0.082,0.04 0.163,0.04 0.245,0.04 z m 0,4.77 v 0.367 a 0.854,0.854 0 0 1 -0.122,-0.204 c 0.04,-0.081 0.081,-0.122 0.122,-0.163 z m 0,0.775 v 0.163 l -0.245,0.082 v -0.448 c 0.123,-0.001 0.163,0.08 0.245,0.203 z m 0,2.283 v 0.693 a 1.077,1.077 0 0 0 -0.245,0.204 v -0.897 z m 0,2.324 v 1.101 a 1.077,1.077 0 0 1 -0.245,-0.204 v -0.693 c 0.082,-0.041 0.163,-0.123 0.245,-0.204 z m -0.245,3.179 v -0.652 a 0.893,0.893 0 0 1 0.082,0.571 c -0.041,0 -0.041,0.04 -0.082,0.081 z m 0,-3.302 v -0.571 c 0.041,0.041 0.082,0.041 0.123,0.082 l 0.082,0.123 a 1.733,1.733 0 0 1 -0.205,0.366 z m 0,-11.456 v -0.285 c 0.041,0 0.082,0.041 0.123,0.041 z m -0.204,5.585 c 0,-0.204 -0.123,-0.326 -0.245,-0.53 v -0.449 l 0.448,-1.019 v 1.875 z m 0.204,-5.87 v 0.285 l -0.448,0.774 v -1.101 c 0.163,0.001 0.285,0.001 0.448,0.042 z m 0,0.897 c -0.122,0.163 -0.204,0.285 -0.204,0.448 l 0.204,0.082 z m 0,0.775 v 1.508 c -0.041,0 -0.041,0 -0.081,0.041 -0.082,-0.082 -0.245,-0.123 -0.367,-0.163 v -1.101 l 0.245,-0.367 c 0.04,0.041 0.122,0.082 0.203,0.082 z m 0,5.381 v 0.448 l -0.204,0.041 -0.082,-0.123 v -0.244 l 0.204,-0.163 c 0.041,0 0.041,0 0.082,0.041 z m 0,2.487 v 0.897 c -0.041,0 -0.041,0 -0.081,0.041 h -0.123 c -0.041,-0.082 -0.163,-0.123 -0.245,-0.163 v -0.774 z m 0,1.63 v 0.571 a 1.772,1.772 0 0 1 -0.448,0.326 v -1.019 h 0.082 c 0.121,0 0.244,0.082 0.366,0.122 z m 0,0.897 c -0.041,0.041 -0.122,0.041 -0.204,0.082 a 0.708,0.708 0 0 0 0.204,0.611 z m 0,2.324 v 0.652 c -0.122,0.123 -0.285,0.082 -0.448,0.082 v -1.182 c 0.163,0.081 0.326,0.244 0.448,0.448 z m -0.448,-5.137 v -0.489 c 0.041,0 0.122,0.041 0.163,0.082 v 0.326 a 0.31,0.31 0 0 0 -0.163,0.081 z m 0,-2.69 c 0,-0.041 0.041,-0.082 0.082,-0.123 -0.041,-0.163 0.082,-0.489 -0.082,-0.652 z m 0,-2.324 c 0.122,-0.286 0.245,-0.571 0.245,-0.815 -0.082,0 -0.163,-0.041 -0.245,-0.041 z m 0,1.101 c -0.041,-0.082 -0.082,-0.123 -0.122,-0.204 l 0.122,-0.245 z m 0,-5.382 v 1.101 l -0.082,0.123 h -0.408 v -1.182 c 0.164,-0.001 0.327,-0.042 0.49,-0.042 z m 0,1.998 v 1.101 c -0.204,-0.082 -0.408,-0.163 -0.489,-0.367 z m 0,1.427 a 2.23,2.23 0 0 0 -0.489,-0.163 v 1.712 c 0.163,-0.163 0.326,-0.448 0.489,-0.693 z m 0,2.405 v 0.775 c -0.122,0.122 -0.204,0.245 -0.367,0.407 -0.082,-0.081 -0.122,-0.122 -0.122,-0.204 v -0.367 c 0.041,-0.285 0.204,-0.571 0.326,-0.734 l 0.082,0.082 c 0.04,0 0.04,0.041 0.081,0.041 z m 0,2.976 v 0.489 a 1.747,1.747 0 0 0 -0.489,0.163 v -0.734 c 0.122,-0.04 0.285,0 0.489,0.082 z m 0,0.775 v 0.774 c -0.204,-0.082 -0.408,-0.122 -0.489,-0.326 v -0.285 a 2.23,2.23 0 0 1 0.489,-0.163 z m 0,1.508 v 1.019 c -0.041,0.041 -0.082,0.041 -0.122,0.082 h -0.041 a 0.64,0.64 0 0 1 -0.326,-0.204 v -0.734 a 0.876,0.876 0 0 1 0.489,-0.163 z m 0,2.895 v 1.182 c -0.163,0 -0.286,-0.041 -0.367,0.041 -0.041,-0.041 -0.082,-0.041 -0.122,-0.041 v -1.182 a 0.308,0.308 0 0 0 0.163,-0.082 c 0.122,0 0.204,0.041 0.326,0.082 z m -0.49,-3.058 v -0.53 a 0.887,0.887 0 0 1 0.204,0.327 c 0,0.08 -0.081,0.162 -0.204,0.203 z m 0,-2.609 v -0.448 c 0.082,0.122 0.163,0.285 0.163,0.448 z m 0,-6.401 v -0.407 a 0.689,0.689 0 0 1 0,0.407 z m 0,-1.875 v 1.182 c -0.122,0 -0.245,0 -0.367,0.041 v -1.101 c 0.082,-0.041 0.123,-0.082 0.204,-0.082 0.041,10e-4 0.123,10e-4 0.163,-0.04 z m 0,1.468 v 0.407 c -0.082,0.245 -0.245,0.53 -0.367,0.815 v -1.223 c 0.123,0 0.204,0 0.327,-0.041 z m 0,1.223 z m 0,0.53 v 1.712 c 0,0.041 -0.041,0.041 -0.041,0.041 h -0.123 c -0.041,-0.041 -0.122,-0.041 -0.204,-0.122 v -1.183 c 0.041,-0.123 0.082,-0.285 0.164,-0.408 0.082,-0.04 0.123,-0.04 0.204,-0.04 z m 0,3.18 v 0.367 a 0.576,0.576 0 0 1 0,-0.367 z m 0,1.426 v 0.448 h -0.368 v -0.326 c 0.041,-0.081 0.082,-0.204 0.164,-0.285 a 0.716,0.716 0 0 1 0.204,0.163 z m 0,0.856 v 0.734 c -0.082,0.041 -0.122,0.082 -0.204,0.163 h -0.041 c -0.041,0 -0.082,-0.041 -0.123,-0.082 v -0.693 a 0.67,0.67 0 0 1 0.368,-0.122 z m 0,1.02 v 0.285 c 0,0 -0.041,0 -0.041,-0.041 z m 0,0.652 v 0.53 a 0.87,0.87 0 0 0 -0.245,0.163 c -0.041,0 -0.082,-0.041 -0.123,-0.041 v -0.774 c 0.165,0 0.287,0.04 0.368,0.122 z m 0,0.856 v 0.734 c -0.082,-0.123 -0.122,-0.245 -0.204,-0.408 10e-4,-0.122 0.082,-0.244 0.204,-0.326 z m 0,2.732 v 1.182 c -0.122,-0.082 -0.245,-0.123 -0.367,-0.204 v -0.815 a 1.46,1.46 0 0 0 0.367,-0.163 z m -0.367,-0.122 v -0.489 c 0.123,0 0.245,0 0.367,0.041 v 0.204 z m 0,-0.816 v -0.449 c 0.041,0.082 0.123,0.163 0.164,0.245 -0.041,0.082 -0.082,0.163 -0.164,0.204 z m 0,-6.686 v -1.182 c 0.123,0.041 0.245,0.081 0.327,0.204 -0.082,0.285 -0.123,0.733 -0.327,0.978 z m 0,-6.197 v 1.101 h -0.122 l -0.082,-0.041 v -0.897 c 0.042,-0.041 0.123,-0.122 0.204,-0.163 z m 0,1.346 v 1.223 c 0,0.041 -0.04,0.082 -0.04,0.123 l -0.082,0.041 c -0.041,-0.041 -0.041,-0.041 -0.082,-0.041 v -1.345 z m 0,2.201 v 1.183 c -0.082,-0.041 -0.163,-0.082 -0.204,-0.204 v -0.123 c 0.042,-0.244 0.123,-0.53 0.204,-0.856 z m 0,1.468 v 1.182 a 0.834,0.834 0 0 1 -0.204,0.122 v -1.345 c 0.042,0 0.123,0 0.204,0.041 z m 0,2.812 z m 0,0.857 v 0.693 c -0.082,-0.163 0.082,-0.489 -0.04,-0.652 z m 0,1.427 v 0.774 a 0.49,0.49 0 0 1 -0.204,-0.204 v -0.693 a 0.865,0.865 0 0 1 0.204,0.123 z m 0,2.323 v 0.449 a 0.308,0.308 0 0 1 -0.204,0.081 v -0.693 c 0.042,0.041 0.123,0.082 0.204,0.163 z m 0,0.775 v 0.489 l -0.204,0.122 v -0.571 c 0.082,-0.04 0.123,-0.04 0.204,-0.04 z m 0,0.775 v 0.815 c -0.082,-0.082 -0.163,-0.123 -0.204,-0.204 v -0.489 a 0.896,0.896 0 0 1 0.204,-0.122 z m -0.203,-2.161 z m 0,-4.647 v -0.449 c 0.041,0.041 0.041,0.122 0.082,0.163 z m 0,-3.914 v -0.204 z m 0,-3.099 v 0.897 l -0.326,-0.123 c 0.041,-0.244 0.122,-0.529 0.326,-0.774 z m 0,1.183 v 1.345 c -0.204,-0.123 -0.571,0 -0.775,-0.164 v -0.367 c 0.082,-0.204 0.204,-0.448 0.245,-0.693 0.163,-0.121 0.326,-0.121 0.53,-0.121 z m 0,1.712 v 0.204 c -0.041,0.326 -0.204,0.652 -0.326,1.101 -0.163,0.041 -0.285,0.041 -0.449,0.041 v -1.386 c 0.245,-0.082 0.612,-0.082 0.775,0.04 z m 0,1.345 v 0.123 z m 0,0.571 v 1.345 c -0.285,-0.041 -0.408,-0.041 -0.53,-0.326 0.122,-0.367 0.122,-0.775 0.53,-0.979 z m 0,1.753 v 0.449 l -0.285,0.978 c -0.163,-0.041 -0.326,-0.041 -0.49,-0.122 v -1.142 l 0.082,-0.367 0.204,-0.041 c 0.204,10e-4 0.407,0.082 0.489,0.245 z m 0,3.262 v 0.693 a 0.908,0.908 0 0 0 -0.204,-0.163 l -0.285,0.204 0.081,0.489 -0.367,0.041 v -1.386 c 0.245,-0.001 0.53,0.04 0.775,0.122 z m 0,1.834 c -0.204,0.082 -0.489,0.122 -0.775,0.163 v -0.489 c 0.245,0.04 0.53,0.122 0.775,0.326 z m 0,0.448 v 0.693 c -0.245,0.082 -0.53,0.123 -0.775,0.245 v -0.897 c 0.245,-0.041 0.49,-0.041 0.775,-0.041 z m 0,0.979 v 0.571 l -0.489,0.326 c -0.082,0 -0.204,-0.082 -0.286,-0.163 v -0.367 c 0.204,-0.082 0.448,-0.286 0.775,-0.367 z m 0,0.856 c -0.082,0.082 -0.123,0.163 -0.123,0.245 l 0.123,0.244 z m -0.775,-4.648 v -1.223 c 0.164,0.081 0.327,0.204 0.49,0.285 0.163,0.204 0.163,0.652 0.163,0.938 z m 0,-3.628 c 0.041,-0.041 0.082,-0.082 0.082,-0.164 -0.163,-0.244 0.285,-0.611 0.082,-0.815 a 0.31,0.31 0 0 0 -0.164,-0.082 z m 0,-3.669 v 0.367 c -0.04,-0.041 -0.04,-0.041 -0.081,-0.041 0,-0.122 0.041,-0.203 0.081,-0.326 z m 0,0.856 v 1.386 c -0.081,0 -0.163,-0.041 -0.204,-0.041 v -1.142 c 0,-0.041 0,-0.082 0.041,-0.122 0.041,-0.04 0.082,-0.081 0.163,-0.081 z m 0,1.753 v 1.061 c -0.04,0.081 -0.122,0.122 -0.204,0.163 v -1.264 a 0.45,0.45 0 0 1 0.204,0.04 z m 0,2.12 v 1.142 c -0.081,-0.041 -0.122,-0.041 -0.204,-0.123 v -0.163 z m 0,1.346 v 1.223 c -0.081,0 -0.163,0.041 -0.204,0.041 v -1.305 c 0.041,0 0.123,0.041 0.204,0.041 z m 0,1.63 v 1.386 h -0.204 v -1.386 z m 0,1.63 v 0.489 c -0.081,0.041 -0.163,0.041 -0.204,0.082 v -0.571 z m 0,0.816 v 0.897 c -0.081,0.041 -0.163,0.081 -0.204,0.163 v -1.02 c 0.041,10e-4 0.123,-0.04 0.204,-0.04 z m 0,1.305 v 0.367 c -0.04,0 -0.04,-0.041 -0.081,-0.041 v -0.285 c 0.041,0 0.041,0 0.081,-0.041 z m -0.204,-6.972 v -0.162 c 0,0 0,0.041 0.041,0.041 z m 0,-3.424 v 1.142 h -0.204 c -0.204,-0.163 0.042,-0.653 0.204,-1.142 z m 0,1.509 v 1.264 c -0.041,0.041 -0.041,0.041 -0.082,0.041 -0.204,-0.041 -0.326,0 -0.611,-0.204 0,-0.286 0.204,-0.612 0.285,-0.979 l 0.123,-0.122 c 0.082,0 0.163,-0.041 0.285,0 z m 0,1.753 v 0.163 l -0.693,1.468 c -0.163,-0.082 -0.285,-0.163 -0.449,-0.204 v -1.427 c 0.245,-0.286 0.857,-0.327 1.142,0 z m 0,1.263 -0.082,0.163 h 0.082 z m 0,0.449 v 1.305 c -0.245,0 -0.489,0.041 -0.693,0.122 0,-0.367 0.285,-0.774 0.408,-1.264 l 0.204,-0.122 c 0.041,0 0.041,0 0.081,-0.041 z m 0,1.671 v 1.386 l -1.142,0.122 v -0.652 a 0.923,0.923 0 0 1 0.327,-0.571 c 0.204,-0.162 0.489,-0.244 0.815,-0.285 z m 0,1.63 v 0.571 a 1.481,1.481 0 0 0 -0.693,0.285 h -0.082 c -0.164,0 -0.164,-0.326 -0.245,-0.326 l 0.041,-0.245 c 0.286,-0.203 0.653,-0.285 0.979,-0.285 z m 0,0.857 c -0.204,0.082 -0.408,0.163 -0.571,0.285 -0.041,0.245 0.286,0.53 0.367,0.734 h 0.204 z m -1.141,-2.65 c 0.367,-0.326 0.652,-1.142 0.327,-1.467 -0.123,-0.041 -0.204,-0.082 -0.327,-0.123 z m 0,-5.381 v -1.06 c 0.123,-0.082 0.245,-0.163 0.367,-0.123 0.163,0.449 0,0.856 -0.204,1.305 v 0.082 c -0.082,-0.041 -0.122,-0.123 -0.163,-0.204 z m 0,-1.509 v -0.449 l 0.123,-0.041 0.041,0.408 c -0.083,-0.04 -0.123,0.001 -0.164,0.082 z m 0,-0.448 v 0.449 c -0.041,0.082 -0.082,0.245 -0.245,0.286 h -0.122 c -0.082,-0.204 0,-0.408 -0.041,-0.612 z m 0,0.897 v 1.06 c -0.082,-0.204 -0.122,-0.611 -0.204,-0.897 0.041,0 0.122,-0.082 0.204,-0.163 z m 0,3.221 v 1.426 c -0.122,-0.082 -0.285,-0.122 -0.448,-0.163 0,-0.326 0.245,-0.734 0.408,-1.223 0.04,0 0.04,-0.04 0.04,-0.04 z m 0,1.63 v 1.59 c 0,0 0,0.041 -0.041,0.041 l -1.182,-0.529 v -0.245 c 0.163,-0.244 0.326,-0.489 0.53,-0.815 0.204,-0.082 0.448,-0.082 0.693,-0.042 z m 0,2.609 v 0.652 c 0,-0.163 -0.041,-0.407 0,-0.652 z m -1.223,2.12 v -0.571 c 0.041,0.041 0.082,0.082 0.123,0.082 a 1.106,1.106 0 0 1 -0.123,0.489 z m 0,-0.856 v -0.978 c 0.286,0.122 0.53,0.326 0.652,0.611 0,0.204 -0.122,0.408 -0.407,0.53 h -0.041 a 0.699,0.699 0 0 1 -0.204,-0.163 z m 0,-1.182 0.611,0.245 h 0.041 c 0.204,-0.245 0.53,-0.733 0.367,-1.06 -0.326,-0.163 -0.693,-0.367 -1.019,-0.286 z m 0,-2.487 0.123,-0.204 -0.123,-0.163 z m 0.122,-0.653 -0.082,-0.041 c 0.082,-0.204 0.204,-0.326 0.489,-0.53 0.122,0.163 -0.082,0.448 -0.285,0.57 h -0.122 z m -0.122,0.286 v 0.367 l -0.489,1.06 v -1.468 c 0.123,0 0.286,-0.041 0.448,0 z m 0,1.019 c -0.041,0.082 -0.082,0.123 -0.082,0.204 l 0.082,0.041 z m 0,0.734 v 1.101 l -0.489,-0.244 v -0.245 c 0,-0.164 0.245,-0.326 0.408,-0.571 0.04,0 0.04,-0.041 0.081,-0.041 z m 0,1.305 v 0.978 c -0.123,-0.081 -0.286,-0.204 -0.489,-0.326 v -0.775 c 0.163,0 0.326,0.041 0.489,0.123 z m 0,1.263 a 3.298,3.298 0 0 0 -0.489,-0.326 v 1.345 l 0.123,0.041 c 0.163,-0.122 0.285,-0.285 0.367,-0.489 v -0.571 z m -0.489,1.794 v -0.449 c 0,0 0.041,0 0.041,0.041 -10e-4,0.123 -10e-4,0.286 -0.041,0.408 z m 0,-6.156 v 1.468 l -0.367,0.082 c -0.245,-0.163 -0.449,-0.367 -0.774,-0.53 v -0.286 a 1.717,1.717 0 0 1 1.141,-0.734 z m 0,2.976 v 0.775 c -0.204,-0.082 -0.408,-0.204 -0.612,-0.286 l 0.123,-0.367 c 0.162,-0.081 0.326,-0.122 0.489,-0.122 z m 0,1.06 v 1.345 l -1.141,-0.57 v -0.612 c 0.081,-0.123 0.163,-0.204 0.204,-0.285 0.245,-0.082 0.326,0 0.652,-0.041 0.081,0.041 0.162,0.082 0.285,0.163 z m 0,1.672 c -0.285,-0.244 -0.693,-0.611 -1.141,-0.652 v 0.815 l 0.856,0.571 c 0.122,-0.041 0.204,-0.164 0.285,-0.286 z m -1.141,1.467 v -1.06 c 0.326,0.163 0.529,0.408 0.529,0.856 -0.163,0.164 -0.326,0.204 -0.529,0.204 z m 0,-4.729 0.285,0.204 h 0.041 c 0.204,-0.204 0.449,-0.449 0.449,-0.734 l -0.245,-0.367 c -0.204,0 -0.367,-0.041 -0.529,-0.082 v 0.979 z m 0,-1.712 v 0.286 c -0.041,-0.041 -0.082,-0.041 -0.123,-0.082 0.04,-0.082 0.082,-0.122 0.123,-0.204 z m 0,0.734 v 0.979 l -0.367,-0.285 v -0.734 c 0.121,-0.001 0.244,-0.001 0.367,0.04 z m 0,2.731 v 0.612 l -0.082,-0.041 c -0.123,-0.163 -0.041,-0.367 0.082,-0.571 z m 0,0.856 v 0.815 l -0.367,-0.245 v -0.489 c 0.121,-0.081 0.244,-0.081 0.367,-0.081 z m 0,1.06 v 1.06 c -0.123,0 -0.245,0.041 -0.367,0.041 v -1.305 c 0.121,0.082 0.244,0.123 0.367,0.204 z m -0.368,-2.731 0.326,-0.163 v -0.285 a 0.81,0.81 0 0 0 -0.326,-0.489 z m 0,-1.957 v 0.734 l -0.326,-0.245 v -0.367 a 0.652,0.652 0 0 1 0.326,-0.122 z m 0,1.019 v 0.938 c -0.041,0.041 -0.082,0.041 -0.123,0.082 h -0.122 c -0.163,-0.285 -0.204,-0.571 -0.53,-0.774 v -0.489 h 0.327 a 0.953,0.953 0 0 1 0.448,0.243 z m 0,2.691 v 0.489 l -0.123,-0.082 0.041,-0.367 c 0.041,0.001 0.041,-0.04 0.082,-0.04 z m 0,0.775 v 1.305 c -0.041,0.041 -0.041,0.041 -0.082,0.041 h -0.041 l -0.367,-0.122 c -0.082,-0.082 -0.204,-0.204 -0.286,-0.367 v -0.693 c 0.082,-0.122 0.245,-0.204 0.327,-0.326 0.164,0.08 0.327,0.121 0.449,0.162 z m -0.775,-2.202 0.286,-0.163 v -0.245 c -0.082,-0.204 -0.204,-0.244 -0.286,-0.326 z m 0,-1.508 v 0.489 a 0.656,0.656 0 0 0 -0.286,-0.163 v -0.245 c 10e-4,-0.041 0.124,-0.081 0.286,-0.081 z m 0,0.774 v 0.734 l -0.286,0.163 c -0.04,-0.122 -0.163,-0.245 -0.366,-0.326 v -0.653 c 0.163,-0.082 0.366,-0.082 0.489,-0.082 0.082,0.042 0.123,0.124 0.163,0.164 z m 0,3.099 v 0.693 a 0.9,0.9 0 0 1 -0.082,-0.571 c 0.042,-0.041 0.042,-0.082 0.082,-0.122 z m -0.651,-1.427 a 0.628,0.628 0 0 0 0.285,-0.408 c -0.123,-0.122 -0.163,-0.285 -0.285,-0.407 z m 0,-1.753 v 0.653 c -0.041,-0.041 -0.123,-0.041 -0.163,-0.082 l -0.082,-0.122 0.081,-0.245 c 0.041,-0.123 0.082,-0.163 0.164,-0.204 z m 0,0.938 c -0.041,-0.041 -0.082,-0.082 -0.163,-0.123 a 1.472,1.472 0 0 0 -1.59,0.326 l 0.082,0.408 c 0.286,0 0.693,0.285 0.897,0.326 0.286,0 0.571,0 0.775,-0.122 v -0.815 z"
       fill="#cc2229"
       id="path16" />
    <path
       d="m 36.735437,28.429834 c -2.568,-1.631 -6.074,0.123 -7.664,-2.895 -0.408,-0.652 -1.101,-1.59 -0.774,-2.487 1.549,-1.427 4.158,-2.731 6.482,-3.261 0.245,0.204 0.285,0.652 0.571,1.019 0,0.571 -0.082,1.264 0.408,1.753 1.101,0.449 1.345,1.264 2.202,2.079 l -3.751,-1.019 c -0.122,0 -0.122,0.204 -0.245,0.326 0.245,0.367 0.815,0.326 1.101,0.693 l 3.669,0.734 c -0.163,1.182 -0.774,2.364 -1.834,3.058 z"
       fill="#33348e"
       id="path18" />
    <path
       d="m 47.946437,32.262834 v -0.204 c 0,0 0.041,0.041 0.041,0.082 0,0.04 -0.041,0.08 -0.041,0.122 z m 0,-0.897 v -0.123 c 0.245,-0.244 0.653,-0.57 1.101,-0.489 l 0.123,0.367 c -0.123,0.163 -0.571,0.163 -0.938,0.449 -10e-4,-0.123 -0.164,-0.082 -0.286,-0.204 z m 0,-0.612 c 0.164,-0.122 0.367,-0.163 0.449,-0.244 v -0.285 a 0.82,0.82 0 0 0 -0.449,-0.123 z m 0,-1.427 v -0.449 c 0.082,0.122 0.204,0.204 0.245,0.367 l -0.204,0.163 c 0,-0.04 -0.041,-0.04 -0.041,-0.081 z m 0,-1.141 v -0.856 c 0.286,0.081 0.612,0.163 0.774,0.489 0,0.204 0,0.53 -0.162,0.775 l -0.123,0.082 a 2.72,2.72 0 0 0 -0.489,-0.49 z m 1.916,2.691 c -0.123,0 -0.123,-0.204 -0.204,-0.327 0.082,-0.04 0.408,0.123 0.204,0.327 z m -0.693,-0.735 c -0.123,-0.082 -0.204,-0.285 -0.408,-0.407 0.285,0 0.285,0.204 0.489,0.326 z m -0.449,-2.812 c -0.162,-0.082 -0.326,-0.082 -0.529,-0.204 -0.163,-0.082 -0.326,-0.285 -0.204,-0.489 0.245,-0.204 0.448,0 0.815,0.082 0.163,0.123 0,0.245 0.122,0.489 z m -0.774,0 v 0.856 c -0.04,0 -0.081,-0.041 -0.122,-0.082 v -0.774 z m 0,1.549 v 0.449 c -0.04,0 -0.081,-0.041 -0.122,-0.041 v -0.49 c 0.041,0.041 0.082,0.082 0.122,0.082 z m 0,1.223 v 0.652 c -0.04,0 -0.081,0.041 -0.122,0.041 v -0.693 z m 0,1.141 v 0.123 l -0.081,-0.082 c 0.041,0 0.041,-0.041 0.081,-0.041 z m 0,0.815 v 0.204 c -0.04,0.041 -0.081,0.082 -0.122,0.163 v -0.53 c 0.041,0.041 0.082,0.082 0.122,0.163 z m -0.123,-4.728 v 0.774 c -0.122,-0.082 -0.244,-0.163 -0.367,-0.286 0,-0.284 0.204,-0.366 0.367,-0.488 z m 0,1.467 v 0.489 c -0.163,-0.082 -0.367,-0.123 -0.53,-0.204 v -0.53 h 0.041 c 0.163,0.083 0.367,0.164 0.489,0.245 z m 0,1.305 v 0.693 c -0.041,0.082 -0.122,0.123 -0.163,0.245 l -0.041,0.041 a 1.243,1.243 0 0 1 -0.326,-0.163 v -0.612 c 0.163,-0.082 0.326,-0.164 0.53,-0.204 z m 0,1.793 v 0.53 a 0.935,0.935 0 0 1 -0.285,0.285 h -0.123 c -0.041,-0.122 -0.082,-0.204 -0.122,-0.285 v -0.897 c 0.204,0.042 0.408,0.204 0.53,0.367 z m -0.529,-1.916 v -0.407 c 0.041,0.081 0.122,0.122 0.163,0.163 a 0.853,0.853 0 0 1 -0.163,0.244 z m 0,-3.138 v -0.652 c 0.082,0.041 0.122,0.041 0.163,0.041 0.163,0 0.327,0.326 0.204,0.53 l -0.204,0.082 z m 0,-0.653 v 0.652 c -0.245,-0.082 -0.489,-0.245 -0.775,-0.408 v -0.285 c 0.204,-0.081 0.489,0.041 0.775,0.041 z m 0,2.365 v 0.53 c -0.082,-0.041 -0.123,-0.122 -0.163,-0.204 v -0.204 z m 0,1.019 c -0.123,-0.204 -0.245,-0.448 -0.367,-0.489 a 0.83,0.83 0 0 0 -0.449,0.122 v 1.223 c 0,0.041 0.041,0.082 0.082,0.122 l 0.082,-0.041 c 0.245,-0.204 0.489,-0.367 0.652,-0.53 z m 0,0.733 v 0.612 c -0.082,-0.041 -0.204,-0.123 -0.327,-0.204 l 0.082,-0.204 c 0.082,-0.081 0.163,-0.163 0.245,-0.204 z m 0,1.224 v 0.897 c -0.123,-0.285 -0.163,-0.611 -0.163,-0.938 0.04,0 0.122,0 0.163,0.041 z m -0.816,1.957 v -0.612 c 0.123,-0.041 0.245,-0.082 0.367,-0.041 l 0.204,0.367 c -0.041,0.204 -0.367,0.123 -0.571,0.286 z m 0,-0.897 v -0.286 l 0.164,0.204 a 0.31,0.31 0 0 0 -0.164,0.082 z m 0,-0.816 v -0.245 l 0.041,0.041 c 0,0.082 -0.041,0.163 -0.041,0.204 z m 0,-3.016 v -0.122 l 0.041,0.122 z m 0,-1.713 c 0.164,0.286 0.53,0.367 0.653,0.571 v -0.082 c 0.123,-0.123 0.204,-0.286 0.123,-0.408 -0.286,-0.122 -0.652,-0.326 -0.775,-0.204 v 0.123 z m 0,-0.122 v 0.123 c -0.04,0 -0.04,-0.041 -0.04,-0.082 0,0 0,-0.041 0.04,-0.041 z m 0,1.713 v 0.122 c -0.081,0 -0.122,0.041 -0.122,0.082 v -0.53 z m 0,0.57 v 1.223 c -0.081,-0.123 -0.081,-0.245 -0.122,-0.408 v -0.734 c 0,-0.04 0.082,-0.081 0.122,-0.081 z m 0,2.324 v 0.245 c -0.04,0.041 -0.081,0.041 -0.122,0.082 v -0.449 z m 0,0.774 v 0.286 c -0.04,0 -0.081,0.041 -0.122,0.041 v -0.408 -0.041 z m 0,0.571 v 0.612 l -0.122,0.123 v -0.653 c 0,-0.041 0.082,-0.041 0.122,-0.082 z m -0.122,-4.566 v 0.53 c -0.122,0.082 -0.204,0.286 -0.407,0.326 l -0.041,0.041 v -1.712 l 0.123,0.041 z m 0,0.978 v 0.734 a 1.645,1.645 0 0 0 -0.204,-0.367 l 0.082,-0.244 c 0,-0.041 0.04,-0.082 0.122,-0.123 z m 0,2.12 v 0.449 c -0.122,0.041 -0.285,0.041 -0.448,0.123 v -0.693 h 0.326 z m 0,0.815 v 0.408 a 1.435,1.435 0 0 1 -0.407,0.081 h -0.041 v -0.243 c 0.081,-0.082 0.244,-0.123 0.448,-0.246 z m 0,0.734 v 0.653 c -0.204,0 -0.204,-0.367 -0.204,-0.408 0.041,-0.081 0.122,-0.163 0.204,-0.245 z m -0.449,-2.038 v -0.897 c 0.163,0.163 0.245,0.408 0.245,0.733 a 0.803,0.803 0 0 1 -0.245,0.164 z m 0,-4.729 v -0.326 a 0.316,0.316 0 0 1 0.163,0.163 c 0.001,0.122 -0.081,0.163 -0.163,0.163 z m 0,-0.326 v 0.326 c -0.082,0.041 -0.204,0.041 -0.285,0.041 -0.082,0 -0.123,-0.041 -0.163,-0.041 v -0.489 c 0.163,0 0.326,0.041 0.448,0.163 z m 0,1.631 v 1.712 l -0.041,0.041 c -0.204,-0.204 -0.244,-0.489 -0.407,-0.815 v -0.694 c 0.082,-0.081 0.204,-0.204 0.367,-0.285 z m 0,2.527 v 0.897 c -0.163,0.041 -0.285,0.082 -0.448,0.082 v -0.897 l 0.407,-0.082 z m 0,1.264 v 0.693 h -0.204 c -0.041,-0.123 -0.081,-0.489 0.123,-0.693 z m 0,1.183 v 0.244 h -0.041 v -0.204 c 0,-0.04 0.041,-0.04 0.041,-0.04 z m -0.448,-2.895 c 0.082,-0.041 0.163,-0.123 0.204,-0.163 l -0.204,-0.326 z m 0,-2.324 v -0.204 c 0.041,0.041 0.082,0.123 0.163,0.163 -0.081,0 -0.122,0 -0.163,0.041 z m 0,-1.549 v 0.489 c -0.123,-0.041 -0.163,-0.204 -0.204,-0.326 v -0.163 z m 0,1.345 c -0.285,-0.367 -0.612,-0.856 -1.02,-1.06 l -0.041,0.041 v 0.571 l 0.53,1.019 h 0.082 c 0.204,-0.082 0.286,-0.285 0.449,-0.367 z m 0,0.693 v 0.693 a 1.24,1.24 0 0 0 -0.204,-0.285 c 0,-0.163 0.082,-0.285 0.204,-0.408 z m 0,1.346 -0.53,-0.856 a 1.157,1.157 0 0 0 -0.53,0 v 1.631 c 0.408,-0.082 0.775,-0.122 1.06,-0.285 z m 0,1.019 v 0.897 a 0.975,0.975 0 0 0 -0.53,0.285 h -0.041 c -0.122,0 -0.285,-0.041 -0.489,0 v -1.019 z m -1.06,3.832 v -0.571 a 0.756,0.756 0 0 1 0.326,0.285 l -0.204,0.327 c -0.04,0 -0.081,-0.041 -0.122,-0.041 z m 0,-0.815 v -0.693 c 0.082,0 0.123,0 0.204,-0.041 l 0.204,0.449 c -0.082,0.082 -0.082,0.286 -0.204,0.367 -0.081,-10e-4 -0.122,-0.042 -0.204,-0.082 z m 0,-0.979 v -0.571 h 0.245 l 0.244,0.285 -0.244,0.326 c -0.082,10e-4 -0.163,-0.04 -0.245,-0.04 z m 0,-4.118 v -0.692 l 0.245,0.448 a 0.365,0.365 0 0 1 -0.245,0.244 z m 0,-1.997 v 0.571 l -0.245,-0.449 z m 0,1.305 -0.571,-1.101 -0.407,0.123 c -0.042,0.163 -0.164,0.245 -0.245,0.367 v 0.245 c 0.326,0.408 0.449,0.856 0.489,1.183 0.245,0 0.53,0 0.734,-0.123 z m 0,0.896 v 1.631 c -0.204,0 -0.449,0.082 -0.652,0.163 0,-0.408 0.082,-0.734 -0.082,-1.182 0.163,-0.285 0.408,-0.489 0.734,-0.612 z m 0,2.039 v 1.019 h -0.652 c -0.204,-0.163 -0.122,-0.571 0,-0.856 z m 0,1.305 v 0.571 a 2.75,2.75 0 0 0 -0.571,-0.082 l -0.163,-0.407 c 0.245,-0.123 0.49,-0.082 0.734,-0.082 z m 0,0.856 v 0.693 c -0.204,-0.041 -0.489,-0.041 -0.734,-0.164 v -0.408 c 0.163,-0.203 0.449,-0.121 0.734,-0.121 z m 0,0.937 v 0.571 c -0.285,-0.082 -0.571,0.041 -0.938,-0.122 v -0.367 c 0.286,-0.122 0.653,-0.163 0.938,-0.082 z m -1.223,-2.405 v -0.57 c 0.041,0 0.082,0 0.163,0.041 v 0.449 z m 0,-0.897 v -1.264 l 0.082,-0.041 c 0.285,0.285 0.285,0.856 0.082,1.264 z m 0,-1.672 v -0.733 c 0.041,0.041 0.082,0.122 0.163,0.163 -0.204,0.204 0.122,0.327 0,0.571 z m 0,-2.201 v -0.938 c 0.123,0.244 0.204,0.489 0.245,0.733 a 0.414,0.414 0 0 1 -0.245,0.205 z m 0,-1.549 0.652,1.06 0.407,-0.122 -0.774,-1.509 a 0.196,0.196 0 0 0 -0.285,0 z m 0,-1.019 v -0.367 c 0.041,0.082 0.041,0.204 0.082,0.285 z m 0.571,10.925 c -0.082,-0.081 -0.286,-0.081 -0.326,-0.204 0.122,-0.204 0.529,-0.326 0.733,-0.122 l 0.081,0.163 c -0.081,0 -0.204,0.082 -0.366,0.163 z m -0.571,-11.292 v 0.367 c -0.163,0.082 -0.407,0.122 -0.571,0.245 h -0.041 l -0.408,-0.693 v -0.652 c 0.122,-0.041 0.245,-0.082 0.286,-0.163 h 0.285 c 0.163,0.121 0.286,0.529 0.449,0.896 z m 0,0.815 v 0.571 l -0.245,-0.408 c 0,0 0.123,-0.122 0.245,-0.163 z m 0,1.183 a 2.2,2.2 0 0 0 -0.774,-0.734 c -0.123,0.082 -0.204,0.123 -0.245,0.164 v 1.019 l 0.571,0.734 c 0.163,-0.123 0.326,-0.204 0.448,-0.245 z m 0,1.467 v 0.245 c -0.041,0 -0.041,-0.041 -0.041,-0.041 -0.041,-0.081 0,-0.163 0.041,-0.204 z m 0,0.938 v 0.733 c -0.163,0.082 -0.326,0.164 -0.448,0.164 -0.123,-0.408 -0.367,-0.693 -0.326,-1.101 l 0.326,-0.245 0.204,0.041 c 0.081,0.122 0.162,0.286 0.244,0.408 z m 0,1.141 v 1.264 h -0.041 l -0.407,-0.041 c 0,-0.367 0,-0.734 0.082,-1.142 z m 0,1.591 v 0.57 l -0.245,0.082 c -0.122,-0.122 -0.204,-0.122 -0.326,-0.326 l 0.123,-0.204 c 0,-0.122 0.203,-0.164 0.448,-0.122 z m -1.019,3.301 v -0.489 l 0.041,0.041 0.041,0.163 a 0.584,0.584 0 0 1 -0.082,0.285 z m 0,-0.774 v -0.938 a 1.2,1.2 0 0 1 0.571,0.611 c 0,0.163 0,0.448 -0.285,0.53 h -0.041 c -0.082,-0.081 -0.163,-0.163 -0.245,-0.203 z m 0,-1.264 c 0.204,0.244 0.571,0.326 0.652,0.53 l 0.122,-0.041 c 0.123,-0.204 0.204,-0.489 0.204,-0.693 l -0.204,-0.163 c -0.204,0 -0.53,-0.041 -0.774,0.082 z m 0,-4.484 v -0.979 l 0.286,0.448 a 0.766,0.766 0 0 1 -0.286,0.531 z m 0,-4.648 v 0.652 l -0.245,-0.448 c 0,-0.082 0.122,-0.163 0.245,-0.204 z m 0,2.161 v 1.019 l -0.163,-0.204 c -0.082,-0.204 -0.204,-0.408 -0.082,-0.611 0.082,-0.082 0.122,-0.122 0.245,-0.204 z m 0,1.508 -0.53,-0.693 c -0.122,-0.082 -0.245,-0.041 -0.367,0 v 0.693 l 0.856,1.019 c 0,0 0,-0.041 0.041,-0.041 z m 0,5.178 v 0.285 c -0.041,-0.041 -0.082,-0.123 -0.123,-0.163 l 0.082,-0.122 z m 0,0.611 v 0.938 c -0.123,-0.082 -0.204,-0.163 -0.326,-0.204 l -0.123,-0.163 c -0.082,-0.163 0,-0.367 0.123,-0.57 l 0.204,-0.041 c 0.04,-0.001 0.081,0.04 0.122,0.04 z m 0,1.223 -0.123,-0.081 c -0.244,-0.082 -0.489,-0.204 -0.611,-0.082 -0.041,0.082 -0.122,0.163 -0.163,0.245 v 0.53 l 0.245,0.041 h 0.041 c 0.245,0 0.489,-0.041 0.611,-0.163 z m -0.897,-5.748 v -0.489 c 0.122,0.123 0.204,0.285 0.286,0.448 z m -1.019,0.693 c 0,-0.286 0.163,-0.286 0.367,-0.367 0.163,0.041 0.326,0 0.571,0.041 -0.082,0.163 -0.571,0.326 -0.938,0.326 z m 1.019,-2.65 v 0.693 l -0.285,-0.326 0.122,-0.285 z m 0,1.468 v 0.489 h -0.163 l -0.489,-0.041 c 0,-0.204 0.163,-0.489 0.204,-0.693 0.203,0 0.326,0.123 0.448,0.245 z m 0,6.319 v 0.53 l -0.122,-0.041 v -0.326 c 0.04,0 0.081,-0.082 0.122,-0.163 z m -3.017,-4.688 -0.367,-0.123 c 0.204,-0.326 0.448,-0.938 1.019,-0.856 0.327,0.041 0.816,0 1.142,0.204 0,0.327 -0.408,0.408 -0.734,0.734 -0.285,-0.082 -0.57,0.041 -0.896,0.041 z m 1.468,-1.142 c -0.204,-0.122 -0.571,-0.122 -0.816,-0.245 0,-0.245 0.204,-0.449 0.204,-0.693 0.408,-0.286 0.815,-0.163 1.264,-0.286 l 0.163,0.286 c 0.041,0.244 -0.123,0.53 -0.285,0.896 z m 0,-1.427 -0.408,-0.163 0.041,-0.204 c 0.163,0 0.367,-0.081 0.693,0.122 z m 20.75,2.038 -1.427,-0.489 c -0.204,-0.163 0.163,-0.367 0,-0.57 0.367,-0.163 0.815,0 1.223,0 0.204,0.204 0.408,0.611 0.367,1.06 h -0.163 z m 0.612,0 c -0.04,-0.245 -0.407,-0.693 -0.326,-1.142 0.326,0 0.979,-0.367 1.386,-0.081 0.081,0.326 0.448,0.611 0.285,0.978 -0.407,0.245 -0.733,0.245 -1.345,0.245 z"
       fill="#cc2229"
       id="path20" />
    <path
       d="m 63.030437,27.573834 -0.652,-2.038 0.204,-0.285 2.202,-1.224 c 0,-0.122 0.122,-0.285 0.041,-0.407 l -0.163,-0.082 c -1.508,1.101 -3.302,1.835 -5.259,1.631 l -0.163,-0.204 c 0.285,-1.631 1.508,-2.976 1.834,-4.647 0,-0.367 0.245,-0.489 0.286,-0.775 2.487,-0.448 5.585,-0.244 7.787,1.59 0.897,1.019 0.612,2.487 0.163,3.71 -0.367,0.734 -1.223,1.59 -2.201,1.712 -1.511,-0.367 -2.693,0.286 -4.079,1.019 z"
       fill="#33348e"
       id="path22" />
    <path
       d="m 59.605437,26.717834 -0.489,-0.163 c 0,-0.204 0,-0.448 0.082,-0.775 0.286,-0.04 0.53,-0.203 0.856,0 0.082,0.164 0.204,0.408 0.204,0.734 -0.204,0 -0.408,0.286 -0.653,0.204 z m 1.019,0 c -0.122,-0.285 -0.122,-0.571 -0.163,-0.938 0.286,-0.244 0.775,-0.04 1.264,-0.244 0.163,0.122 0.163,0.571 0.204,0.815 -0.244,0.367 -0.856,0.163 -1.305,0.367 z"
       fill="#cc2229"
       id="path24" />
    <path
       d="m 49.169437,26.146834 -4.607,-1.101 c -0.815,-1.223 -1.305,-2.976 -1.508,-4.525 3.384,0.856 5.585,5.993 9.58,3.099 l -0.896,2.12 z"
       fill="#33348e"
       id="path26" />
    <path
       d="m 40.486437,25.535834 -0.938,-0.815 c 0.204,-0.245 0.286,-0.448 0.734,-0.693 0.285,0.082 0.408,0.449 0.733,0.653 0,0.163 0.204,0.204 0.041,0.407 -0.326,0.081 -0.326,0.366 -0.57,0.448 z"
       fill="#cc2229"
       id="path28" />
    <path
       d="m 56.711437,25.086834 c -0.693,-0.815 -2.201,-1.427 -3.465,-1.263 l 0.856,-1.264 c 0.163,-1.508 0,-2.976 0.53,-4.606 -0.163,-0.123 0,-0.489 -0.122,-0.693 0.856,-0.856 2.12,-0.897 3.261,-0.693 0.897,0.082 1.468,0.856 1.957,1.794 0,2.079 -1.386,3.995 -1.998,6.155 -0.367,0.163 -0.49,0.57 -1.019,0.57 z"
       fill="#33348e"
       id="path30" />
    <path
       d="m 41.342437,24.720834 -0.693,-1.06 c 0.041,-0.245 0.367,-0.611 0.693,-0.652 l 0.285,0.041 0.53,0.978 c -0.204,0.245 -0.326,0.449 -0.734,0.693 z m -2.161,-0.041 c -0.367,-0.164 -0.611,-0.53 -0.938,-0.775 -0.082,-0.489 0.326,-0.896 0.693,-1.264 h 0.285 l 0.774,0.979 z m 19.405,-0.367 c -0.123,0 -0.123,-0.163 -0.245,-0.286 l 0.449,-1.549 0.204,-0.122 c 0.122,0.081 0.204,0.122 0.245,0.326 0.081,0.53 -0.245,1.345 -0.653,1.631 z"
       fill="#cc2229"
       id="path32" />
    <path
       d="m 48.516437,23.537834 c -0.163,-0.081 -0.204,-0.122 -0.245,-0.326 z"
       fill="#ffffff"
       id="path34" />
    <path
       d="m 37.917437,23.456834 c -0.326,-0.245 -0.815,-0.775 -0.815,-1.305 0.163,-0.204 0.204,-0.407 0.489,-0.571 h 0.326 c 0.204,0.204 0.448,0.408 0.652,0.856 -0.123,0.245 -0.408,0.571 -0.611,0.979 z m 2.283,-0.123 c -0.204,-0.326 -0.815,-0.774 -0.775,-1.345 0.163,-0.367 0.652,-0.611 1.019,-0.733 l 0.652,1.182 z"
       fill="#cc2229"
       id="path36" />
    <path
       d="m 52.226437,23.048834 c 0.041,-0.041 0.123,-0.163 0.326,-0.286 z"
       fill="#ffffff"
       id="path38" />
    <path
       d="m 59.605437,22.436834 c -0.286,-0.081 -0.367,-0.244 -0.571,-0.367 -0.204,-0.326 0.163,-0.693 0.285,-1.06 l 0.164,-0.082 0.245,0.082 c 0.163,0.041 0.204,0.245 0.326,0.571 0,0.245 -0.204,0.489 -0.367,0.775 z m -18.141,-0.081 c -0.245,-0.367 -0.449,-0.775 -0.774,-1.305 0.407,-0.204 1.06,-0.326 1.63,-0.326 0.204,0.326 0.204,0.734 0.204,1.223 -0.367,0.123 -0.57,0.123 -0.897,0.408 z m -5.178,-0.082 c -0.163,-0.081 -0.163,-0.204 -0.367,-0.326 v -0.57 c 0.122,0.204 0.571,0.407 0.408,0.815 z"
       fill="#cc2229"
       id="path40" />
    <path
       d="m 38.814437,22.151834 c -1.223,-1.142 -1.957,-3.302 -1.508,-5.055 1.264,-0.612 2.527,-0.693 3.913,-0.449 l 0.041,1.875 -1.712,0.327 v 0.326 c 0.815,0.204 2.161,-0.286 2.609,0.774 l -0.041,0.245 -2.283,0.938 c -0.408,0.245 -0.611,0.612 -0.979,1.019 z"
       fill="#33348e"
       id="path42" />
    <path
       d="m 36.735437,21.825834 c -0.244,-0.408 -0.978,-1.182 -0.407,-1.631 0.204,-0.041 0.326,-0.203 0.571,-0.367 l 0.204,0.122 c 0.082,0.367 0.285,0.612 0.448,1.06 -0.081,0.367 -0.367,0.571 -0.693,0.774 z m 23.523,-0.774 c -0.326,-0.123 -0.408,-0.489 -0.408,-0.856 0.245,-0.245 0.245,-0.652 0.448,-1.1 l 0.204,0.081 c 0.326,0.571 0,1.264 -0.204,1.875 z m -24.42,-0.897 c -0.367,-0.489 -0.408,-1.305 -0.163,-1.998 0.448,-0.245 0.815,0.326 1.182,0.367 0.041,0.326 0.041,0.652 0.041,1.019 z m 24.623,-1.427 c -0.529,-0.204 0,-0.815 -0.163,-1.305 0.204,-0.163 0.53,-0.53 0.938,-0.408 l -0.408,1.672 z"
       fill="#cc2229"
       id="path44" />
    <path
       d="m 43.665437,18.564834 c -0.815,-0.123 -1.753,-0.897 -1.834,-1.834 l 1.753,1.223 c 0.245,0.204 0.612,0.408 0.938,0.611 -0.204,0.122 -0.531,-0.041 -0.857,0 z"
       fill="#00acec"
       id="path46" />
    <path
       d="m 51.492437,21.214834 v -1.02 c 0.123,0 0.245,-0.041 0.326,-0.041 0,0.204 0.326,0.367 0.326,0.612 a 1.254,1.254 0 0 1 -0.652,0.449 z m 0,-2.406 v -0.408 c 0.246,-0.244 0.694,-0.284 1.224,-0.244 l 0.123,0.285 -1.101,1.06 c -0.041,-0.163 -0.164,-0.448 -0.246,-0.693 z m 0,-0.856 v -0.163 c 0.041,0 0.041,0.041 0.041,0.041 0,0.081 0,0.122 -0.041,0.122 z m 0,-0.163 v 0.163 c 0,0 0,0.041 -0.041,0.041 v -0.286 c 0.041,0.042 0.041,0.042 0.041,0.082 z m 0,0.611 v 0.408 c 0,-0.041 0,-0.122 -0.041,-0.204 v -0.123 -0.041 c 0.041,0.001 0.041,0.001 0.041,-0.04 z m 0,1.794 v 1.02 l -0.041,0.041 v -1.061 z m -0.041,-0.367 v -0.163 c 0.041,0.041 0.041,0.123 0,0.163 z m -1.753,-1.304 -0.244,-0.285 c 0.082,-0.286 0.489,-0.693 0.489,-1.102 10e-4,0.368 0.082,1.183 -0.245,1.387 z m 1.753,-0.816 v 0.286 c -0.081,0.041 -0.204,0.041 -0.244,0.163 l -0.163,-0.082 -0.326,-1.142 c 0.163,0.327 0.489,0.409 0.733,0.775 z m 0,0.775 z m 0,1.182 v 0.163 c -0.407,0.041 -0.815,0.245 -1.304,0.326 0,-0.326 0,-0.938 0.367,-1.386 h 0.367 c 0.041,0.286 0.53,0.49 0.57,0.897 z m 0,0.53 v 1.061 c -0.285,0.122 -0.611,0.163 -0.978,0.163 l -0.163,0.041 c -0.041,-0.041 -0.367,-0.041 -0.408,-0.326 0.123,-0.163 0.041,-0.408 0.245,-0.571 0.449,-0.245 0.856,-0.327 1.304,-0.368 z m -1.1,-1.671 0.326,-0.082 c 0.163,-0.285 -0.163,-0.938 -0.367,-1.142 0.041,0.246 -0.04,1.02 0.041,1.224 z m -1.223,2.609 c -0.408,-0.163 -0.612,-0.53 -0.815,-0.938 0.326,-0.163 0.734,0.164 1.223,0.326 0.163,0.041 0.082,0.327 0.082,0.612 z m 0.408,-0.978 h 0.082 c 0.285,-0.122 0.285,-0.734 0.285,-1.019 -0.163,-0.367 -0.57,-0.448 -0.856,-0.571 -0.327,0.326 -0.693,0.652 -0.693,1.141 0.489,0.122 0.774,0.327 1.182,0.449 z m -1.713,-0.653 -1.264,-1.427 0.448,-0.041 c 0.367,0.204 0.815,0.53 1.346,0.53 0,0.367 -0.163,0.571 -0.408,0.938 z m -1.63,-1.63 -0.081,-0.041 c -0.204,-0.326 -0.163,-0.571 -0.286,-1.02 0.286,0.123 0.815,0.694 0.367,1.061 z m 0.163,1.753 0.204,-0.286 -0.938,-0.978 -0.204,0.367 c 0.408,0.408 0.489,0.611 0.938,0.897 z"
       fill="#cc2229"
       id="path48" />
    <path
       d="m 46.438437,20.520834 -1.346,-1.304 0.122,-0.082 c 0.408,0.285 0.612,0.693 1.224,0.897 0,0.122 0.204,0.204 0.081,0.489 z"
       fill="#00acec"
       id="path50" />
    <path
       d="m 53.817437,18.523834 c -0.164,-0.123 0,-0.326 0.163,-0.489 0.081,0.163 0.162,0.489 -0.163,0.489 z m -0.694,-0.53 -0.081,-0.122 c 0.081,-0.367 0.367,-0.571 0.529,-0.774 0,0.203 0,0.733 -0.367,0.896 z m 0.204,2.527 c 0.082,-0.122 -0.123,-0.326 0.244,-0.489 l 0.041,0.041 c 0.164,0.326 -0.203,0.326 -0.285,0.448 z m -0.081,-0.856 c 0.082,-0.204 0.082,-0.693 0.367,-0.775 l 0.204,0.082 a 0.871,0.871 0 0 1 -0.204,0.53 z m -0.938,0.53 -0.122,-0.367 c 0.204,0 0.163,-0.367 0.408,-0.449 0.122,0.246 -0.082,0.531 -0.286,0.816 z m 0.734,2.732 c 0,-0.367 0.285,-0.693 0.529,-0.896 l 0.082,0.122 -0.082,0.367 c -0.122,0.081 -0.325,0.203 -0.529,0.407 z m 0.285,-1.223 c 0,-0.163 -0.082,-0.489 0.122,-0.571 0.163,0 0.326,0.285 0.163,0.408 z m -1.019,0.856 c -0.122,-0.367 0.204,-0.652 0.571,-0.856 l 0.041,0.081 c 0.04,0.367 -0.326,0.612 -0.612,0.775 z m 0.204,-1.223 c 0.041,-0.041 0.204,-0.245 0.367,-0.53 l 0.041,0.082 c 0.123,0.245 -0.041,0.326 -0.326,0.449 h -0.082 z m -1.223,1.59 c 0.041,-0.326 0.367,-0.367 0.489,-0.57 l 0.163,0.041 -0.081,0.367 z m -1.264,0.367 c -0.286,0 -0.408,-0.204 -0.775,-0.204 l 1.672,-0.122 v 0.163 c -0.245,0.163 -0.571,0 -0.897,0.163 z m 0.122,-0.734 c -0.285,-0.163 -0.53,-0.163 -0.897,-0.367 v -0.367 l 1.631,0.204 0.041,0.367 c -0.164,0.204 -0.489,0.123 -0.693,0.163 z m -1.753,0.367 c 0,-0.122 -0.204,-0.122 -0.245,-0.326 0.041,-0.204 0.408,-0.041 0.53,0.163 z m 1.264,1.304 c -0.204,-0.122 -0.408,-0.326 -0.612,-0.53 l 0.245,-0.204 c 0.448,0.122 0.938,0.204 1.467,0.122 v 0.082 c -0.203,0.326 -0.611,0.53 -1.1,0.53 z m -2.039,-1.671 a 4.607,4.607 0 0 0 -0.774,-0.367 c -0.082,-0.163 0.122,-0.408 0.122,-0.571 0.164,-0.123 0.286,0.082 0.489,0.163 0.204,0.041 0.327,0.449 0.204,0.734 z m -2.364,-1.672 c 0,-0.163 -0.285,-0.286 -0.122,-0.489 h 0.122 c 0.204,0 0.041,0.204 0.082,0.408 z m 1.264,0.938 a 1.446,1.446 0 0 1 -0.815,-0.734 c 0.245,-0.489 0.815,0.041 0.938,0.326 z m 1.509,-0.489 c -0.204,-0.204 -0.408,-0.204 -0.774,-0.327 -0.123,-0.122 -0.204,-0.489 -0.204,-0.815 h 0.407 c 0.327,0.326 0.408,0.612 0.734,1.02 z m -3.181,-3.017 -0.041,-0.041 v -0.611 l 0.285,0.53 z m -0.04,-1.794 v -0.611 c 0,-0.041 0.041,-0.041 0.041,-0.041 l 0.245,0.041 c 0,0.571 0.122,1.019 0.204,1.59 v 0.041 c -0.245,-0.245 -0.327,-0.653 -0.49,-1.02 z m 0,-1.141 v -1.304 c 0.081,0.367 0.081,0.815 0.163,1.142 -0.041,0.081 -0.123,0.121 -0.163,0.162 z m 0,-4.729 v -0.652 c 0,-0.041 0.041,-0.082 0.041,-0.1220005 0.204,0.1220005 0.122,0.4880005 -0.041,0.7740005 z m 0,-3.2620007 V 6.8638334 c 0.163,0.082 0.285,0.204 0.407,0.367 z m 0,10.8850007 -1.06,-0.693 v -0.856 c 0.123,-0.163 0.245,-0.245 0.408,-0.326 l 0.652,1.264 z m 0,-11.4140006 v 0.5299999 l -1.06,0.367 V 6.9058334 c 0.123,0 0.285,-0.041 0.408,-0.082 h 0.612 c -10e-4,0 -10e-4,0.041 0.04,0.041 z m 0,3.1390006 v 0.652 a 1.76,1.76 0 0 1 -0.245,0.285 l -0.163,-0.123 c -0.163,-0.325 0.204,-0.489 0.408,-0.814 z m 0,4.076 v 1.304 a 0.779,0.779 0 0 1 -0.489,0.163 h -0.163 c 0.123,-0.367 -0.285,-0.856 -0.408,-1.304 v -0.367 c 0.245,-0.041 0.611,-0.204 0.856,-0.163 0.082,0.123 0.163,0.245 0.204,0.367 z m 0,1.835 c -0.204,0.082 -0.285,0.163 -0.285,0.163 0.122,0.123 0.204,0.285 0.285,0.448 z m -1.06,0.204 c 0,-0.041 0.041,-0.041 0.041,-0.041 0,-0.204 0,-0.408 -0.041,-0.612 z m 0,-2.65 v -1.142 c 0.285,-0.041 0.775,0.082 0.856,0.367 -0.041,0.123 0,0.285 -0.041,0.489 -0.163,0.286 -0.489,0.163 -0.815,0.286 z m 0,-3.058 h 0.082 c 0.326,-0.122 0.571,-0.6930005 0.53,-1.0190007 -0.123,-0.204 -0.367,-0.286 -0.611,-0.449 v 1.4680007 z m 0.611,1.59 -0.326,-0.123 c -0.082,-0.163 -0.082,-0.326 0,-0.571 l 0.53,-0.123 c 0.163,0.204 0,0.449 0.041,0.653 z m -0.611,5.585 -0.163,-0.122 v -0.53 c 0.041,-0.082 0.082,-0.163 0.163,-0.204 z m 0,-10.6810006 v 0.8559999 l -0.163,0.081 V 6.9038334 Z m 0,2.0389999 v 1.4670007 l -0.163,-0.082 V 8.8618333 a 0.308,0.308 0 0 0 0.163,0.082 z m 0,3.3830007 v 1.141 c -0.041,0 -0.082,0.041 -0.122,0.041 -0.041,-0.326 0.163,-0.733 0.082,-1.142 z m 0,1.549 v 0.367 c -0.041,-0.123 -0.041,-0.245 -0.041,-0.367 z m 0,1.59 v 0.653 a 1.287,1.287 0 0 0 -0.163,0.244 v -1.549 c 0.081,0.204 0.122,0.408 0.163,0.652 z m -0.163,-4.281 v -0.244 c 0.122,0 0.041,0.122 0,0.244 z m 0,6.279 -0.204,-0.123 c 0.042,-0.123 0.123,-0.285 0.204,-0.408 z m 0,-10.5590006 v 0.9379999 l -0.285,0.082 -0.693,-0.367 V 7.0688334 c 0.284,-0.082 0.652,-0.123 0.978,-0.164 z m 0,1.9569999 v 1.4670007 l -0.979,-0.3670005 V 9.5138333 c 0.285,-0.245 0.53,-0.489 0.816,-0.734 a 0.32,0.32 0 0 1 0.163,0.082 z m 0,2.0790007 v 0.244 c -0.041,0.123 -0.123,0.245 -0.082,0.327 l -0.489,0.041 a 0.792,0.792 0 0 0 -0.408,-0.122 v -0.897 z m 0,3.873 a 1.547,1.547 0 0 0 -0.367,-0.612 c -0.163,-0.163 -0.408,-0.122 -0.612,-0.082 v 2.65 c 0.082,0.123 0.204,0.204 0.326,0.327 h 0.163 c 0.204,-0.204 0.327,-0.489 0.489,-0.734 v -1.549 z m -0.979,-1.141 v -1.794 l 0.612,0.123 c 0.204,0.408 0.082,0.978 0,1.508 -0.163,0.122 -0.367,0.122 -0.612,0.163 z m 0,-4.6480007 c 0.082,-0.041 0.123,-0.122 0.204,-0.163 0.122,-0.204 0.204,-0.408 0.122,-0.489 -0.122,-0.082 -0.204,-0.204 -0.326,-0.285 z m 0,-1.9569999 v 0.4889999 l -0.408,-0.2449999 v -0.122 a 0.697,0.697 0 0 1 0.408,-0.122 z m 0,1.0199999 c -0.448,-0.367 -0.938,-0.652 -1.345,-0.489 l -0.652,0.733 v 1.101 c 0.367,0.082 0.652,0.122 0.897,0.2850002 0.449,-0.1630002 0.815,-0.4480002 1.101,-0.6930002 v -0.937 z m 0,1.426 v 0.4480002 l -0.408,-0.163 c 0.164,-0.081 0.286,-0.1620002 0.408,-0.2850002 z m 0,1.0200007 v 0.897 c -0.408,-0.041 -0.856,-0.041 -1.182,-0.285 0.082,-0.204 0.367,-0.652 0.774,-0.775 z m 0,1.345 v 1.794 c -0.204,0.041 -0.408,0.082 -0.611,0.245 h -0.123 a 25.801,25.801 0 0 0 -0.407,-2.202 z m 0,2.242 v 2.65 c -0.53,-0.652 -0.245,-1.63 -0.611,-2.487 0.163,-0.041 0.367,-0.122 0.611,-0.163 z m -1.997,2.079 v -0.408 c 0.041,0.081 0.123,0.163 0.123,0.285 -10e-4,0.042 -0.041,0.082 -0.123,0.123 z m 0,-1.019 c 0.326,0.449 0.408,1.06 0.856,1.305 h 0.041 c 0.326,-0.082 0.367,-0.285 0.489,-0.408 0,-0.53 -0.123,-1.142 -0.489,-1.468 -0.245,0 -0.693,-0.041 -0.897,0.163 z m 0,-0.815 v -2.487 c 0.082,0 0.123,0 0.204,-0.041 0.611,0.53 0.489,1.427 0.489,2.079 -0.163,0.285 -0.408,0.367 -0.693,0.449 z m 0,-3.017 c 0.571,-0.204 0.815,-0.897 0.815,-1.264 l -0.815,-0.1230005 z m 0,-3.0170007 v 1.101 a 3.456,3.456 0 0 1 -0.611,-0.163 v -0.245 z m 0,1.6310002 v 1.3860005 c 0,0.041 -0.041,0.041 -0.082,0.041 a 1.97,1.97 0 0 1 -0.53,0.163 V 9.8818335 Z m 0,1.9160005 v 2.487 a 1.384,1.384 0 0 0 -0.489,0.244 l -0.122,-0.285 v -2.242 c 0.203,-0.082 0.407,-0.163 0.611,-0.204 z m 0,2.894 v 0.408 c -0.041,-0.082 -0.082,-0.123 -0.122,-0.163 0,-0.123 0.081,-0.204 0.122,-0.245 z m 0,1.02 v 0.408 a 1.74,1.74 0 0 1 -0.489,0.082 h -0.081 c 0,0 -0.041,0 -0.041,-0.041 v -0.938 c 0.082,0 0.122,0.041 0.204,0.041 0.122,0.121 0.285,0.244 0.407,0.448 z m -0.612,-7.3790007 a 0.875,0.875 0 0 0 0.122,-0.204 c -0.041,0.041 -0.081,0.082 -0.122,0.082 z m 0,-0.123 v 0.123 c -0.163,0.204 -0.408,0.285 -0.652,0.407 v -0.163 c 0.204,-0.081 0.449,-0.204 0.652,-0.367 z m 0,0.734 v 0.245 c -0.041,-0.041 -0.123,-0.041 -0.163,-0.082 z m 0,0.8570002 v 1.6710005 h -0.123 c -0.204,0.082 -0.204,0.082 -0.367,0.204 h -0.082 l -0.082,-0.367 V 9.7998335 Z m 0,2.2010005 v 2.242 l -0.652,-1.223 v -0.775 c 0.041,-0.041 0.082,-0.082 0.163,-0.123 h 0.286 a 0.88,0.88 0 0 1 0.203,-0.121 z m 0,3.221 v 0.938 c -0.408,-0.082 -0.408,-0.408 -0.652,-0.734 v -0.123 c 0.082,-0.081 0.407,-0.122 0.652,-0.081 z m -0.652,-0.368 c 0.041,-0.041 0.082,-0.041 0.163,-0.081 0.163,-0.326 0,-0.653 0,-0.979 -0.041,-0.122 -0.122,-0.245 -0.163,-0.326 z m 0,-6.2780007 v 0.163 a 1.984,1.984 0 0 0 -0.449,0.164 v -0.082 c 0.123,-0.082 0.286,-0.163 0.449,-0.245 z m 0,1.1420002 v 1.5900005 l -0.449,-1.386 V 9.7178335 Z m 0,2.5270005 v 0.774 l -0.245,-0.408 c 0,-0.202 0.082,-0.284 0.245,-0.366 z m 0,1.224 a 2.357,2.357 0 0 0 -0.449,-0.449 v 1.957 c 0.163,-0.122 0.286,-0.122 0.449,-0.122 z m 0,1.834 v 0.123 l -0.041,-0.041 c 0,-0.041 0,-0.041 0.041,-0.082 z m -0.449,0.856 v -0.448 a 0.546,0.546 0 0 1 0.327,0.285 0.373,0.373 0 0 1 -0.327,0.163 z m 0,-4.566 v -0.041 a 1.918,1.918 0 0 0 0,-0.693 z m 0,-2.7720007 v 0.082 a 1.21,1.21 0 0 0 -0.285,0.204 h -0.041 c 0.082,-0.123 0.204,-0.204 0.326,-0.286 z m 0,0.8560002 v 0.2450005 z m 0,1.1820005 v 0.733 c -0.082,0.408 -0.367,0.693 -0.733,0.938 v -2.568 l 0.245,0.041 c 0.285,0.163 0.448,0.49 0.488,0.856 z m 0,2.161 v 1.998 h -0.122 l -0.611,-0.938 v -1.101 a 0.83,0.83 0 0 1 0.245,-0.163 c 0.203,0.041 0.366,0.081 0.488,0.204 z m 0,2.691 v 0.448 c -0.204,0 -0.448,-0.041 -0.693,0.245 h -0.041 v -0.367 c 0.204,-0.164 0.448,-0.204 0.611,-0.408 0.042,0.041 0.083,0.041 0.123,0.082 z m -0.733,-0.163 c 0.041,-0.082 0.082,-0.123 0.163,-0.123 0,-0.245 -0.041,-0.489 -0.163,-0.734 z m 0,-5.586 v 2.568 c -0.164,0.123 -0.327,0.204 -0.489,0.286 l -0.367,-0.693 v -1.671 c 0.244,-0.163 0.489,-0.367 0.774,-0.53 z m 0,3.017 v 1.101 l -0.367,-0.571 c 0.122,-0.163 0.203,-0.367 0.367,-0.53 z m 0,1.712 v 0.856 a 0.438,0.438 0 0 1 -0.286,0.244 c -0.245,-0.244 -0.367,-0.489 -0.57,-0.733 v -0.611 c 0.041,-0.123 0.081,-0.245 0.163,-0.327 h 0.122 c 0.244,0.123 0.448,0.327 0.571,0.571 z m 0,1.346 v 0.367 h -0.082 l -0.082,-0.082 c 0,-0.163 0.082,-0.245 0.164,-0.285 z m -0.856,0.367 c 0.081,-0.123 0.081,-0.326 0.163,-0.408 a 0.83,0.83 0 0 1 -0.163,-0.245 z m 0,-3.221 v -0.408 z m 0,-2.731 v 1.671 l -0.571,-1.06 c 0.122,-0.245 0.326,-0.408 0.571,-0.611 z m 0,2.323 c 0,-0.081 -0.041,-0.204 -0.041,-0.285 -0.163,-0.367 -0.489,-0.693 -0.693,-0.938 h -0.244 a 0.666,0.666 0 0 1 -0.163,0.286 v 1.712 l 0.041,0.041 c 0.326,0.367 0.204,0.938 0.57,1.06 0.245,-0.449 0.489,-0.979 0.53,-1.467 z m 0,1.672 v 0.611 a 0.704,0.704 0 0 0 -0.164,-0.204 c 0.123,-0.081 0.123,-0.244 0.164,-0.407 z m 0,1.304 v 0.652 a 0.225,0.225 0 0 1 -0.204,0.123 h -0.041 l -0.285,-0.123 c -0.081,-0.285 0.163,-0.693 0.326,-0.938 0.081,0.083 0.122,0.164 0.204,0.286 z m -1.142,2.079 v -0.775 a 0.784,0.784 0 0 0 0.204,-0.367 c 0.163,-0.041 0.367,0 0.571,0.163 0,0.367 0,0.774 -0.244,1.101 -0.205,-0.04 -0.327,-0.04 -0.531,-0.122 z m 0,-1.753 v -1.793 c 0.204,0.285 0.326,0.652 0.53,0.938 -0.123,0.204 -0.164,0.774 -0.489,0.856 h -0.041 z m 0,-4.239 v 1.712 c -0.204,-0.081 -0.367,-0.244 -0.571,-0.366 -0.122,-0.531 0.286,-0.939 0.571,-1.346 z m 0,2.446 v 1.793 h -0.163 l -0.326,-2.242 c 0.204,0.082 0.367,0.245 0.489,0.449 z m 0,2.772 v 0.775 c -0.041,0 -0.082,-0.041 -0.163,-0.082 l -0.123,-0.204 c 0.082,-0.204 0.204,-0.326 0.286,-0.489 z m -0.489,0.204 v -0.041 c 0.041,-0.326 0.204,-0.489 0.122,-0.57 h -0.122 c 0,0.203 -0.163,0.448 0,0.611 z m 23.93,0.122 c -0.408,-0.204 -0.489,-0.815 -0.286,-1.264 l 0.286,-0.123 c 0.123,0.327 0.327,1.02 0,1.387 z"
       fill="#cc2229"
       id="path52" />
    <path
       d="m 48.109437,17.545834 c -0.897,-0.123 -2.243,-2.283 -1.549,-3.221 l 2.405,2.161 c 0.082,0.163 0.204,0.285 0.122,0.53 -0.122,0.244 -0.611,0.53 -0.978,0.53 z m 3.302,-0.979 1.386,-2.446 c 0.245,0.53 0.489,1.468 0.245,2.161 -0.326,0.611 -1.142,1.264 -1.631,0.285 z"
       fill="#ffffff"
       id="path54" />
    <path
       d="m 60.298437,17.014834 c -0.244,-0.53 -0.366,-1.06 -0.448,-1.631 0.408,-0.367 0.611,-1.264 1.386,-1.182 l 0.204,0.245 c 0.286,0.571 0.082,1.183 0.082,1.916 -0.285,0.286 -0.856,0.286 -1.101,0.53 z m -5.788,-0.366 c -0.041,-0.163 0,-0.448 0.204,-0.571 0.122,-0.082 0.367,0 0.611,-0.082 l 0.041,0.204 c -0.042,0.286 -0.531,0.286 -0.856,0.449 z m 4.076,-0.082 c -0.163,-0.163 -0.53,-0.285 -0.652,-0.571 0,-0.408 0.204,-0.979 0.734,-1.141 0.366,0.163 0.529,0.285 0.651,0.611 z m -2.283,-0.489 0.326,-1.957 c 0.367,0 0.775,0.204 1.223,0.082 0,0.245 0.285,0.164 0.367,0.449 -0.367,0.204 -0.367,1.142 -0.856,1.427 a 2.14,2.14 0 0 0 -1.019,0 h -0.041 z m -0.733,-0.245 a 1.738,1.738 0 0 1 -0.489,-0.245 c -0.123,-0.163 0,-0.326 0.163,-0.448 v -0.285 c -0.163,-0.286 -0.53,0 -0.733,-0.123 0.122,-0.164 0.163,-0.164 0.204,-0.408 0.326,-0.204 0.815,-0.204 1.305,-0.204 z m -9.907,-8.8870006 c 0.123,-0.041 0.326,-0.041 0.652,0 z m 3.017,0.9789999 c -0.286,-0.041 -0.326,-0.367 -0.53,-0.6119999 l 2.161,0.1229999 0.041,0.122 c -0.244,0.611 -0.978,0 -1.589,0.367 z m -1.631,0.448 c -0.408,-0.204 -0.53,-0.489 -0.734,-0.938 0.326,0 0.734,-0.1229999 1.06,-0.3259999 l 0.285,0.041 c 0.082,0.2029999 0.123,0.5299999 0.326,0.7739999 -0.244,0.245 -0.611,0.164 -0.937,0.449 z m 7.093,0.122 c 0,-0.082 -0.408,-0.082 -0.204,-0.204 z m -1.997,0.122 c -0.407,-0.245 -0.693,-0.53 -1.264,-0.693 -0.041,-0.123 0,-0.204 0.081,-0.408 l 1.713,0.285 c 0,0.287 -0.163,0.694 -0.53,0.816 z m -2.323,0.49 c -0.204,-0.122 -0.449,0 -0.775,-0.326 l 0.163,-0.285 c 0.367,-0.123 0.612,0.122 1.06,-0.082 0.204,0.082 0.285,0.326 0.611,0.367 -0.204,0.326 -0.734,0.204 -1.059,0.326 z m -4.893,0.244 c -0.244,-0.245 -0.652,-0.571 -0.979,-0.938 0.327,-0.326 0.897,-0.326 1.509,-0.734 0.326,0 0.489,0.245 0.856,0.53 0,0.163 0.163,0.204 0.163,0.408 z m 2.242,0.082 v -0.326 c 0.285,-0.286 0.774,-0.53 1.183,-0.367 v 0.204 c -0.367,0.244 -0.612,0.489 -1.183,0.489 z m 6.115,0.081 c -0.367,0 -0.734,-0.53 -0.408,-0.938 0.122,0 0.041,-0.204 0.204,-0.367 0.204,0.204 0.652,0.53 0.856,0.897 -0.122,0.082 -0.326,0.326 -0.571,0.408 z m 2.487,0.7340007 c -0.367,-0.245 -0.938,-0.7340007 -0.775,-1.4270007 l 2.08,0.8970002 -0.041,0.123 c -0.367,0.1630005 -0.856,0.2850005 -1.264,0.4070005 z m -9.866,0 c -0.122,-0.123 -0.122,-0.245 0,-0.4490005 0.245,-0.082 0.285,-0.2850002 0.57,-0.4480002 l 0.164,0.082 c 0,0.2850002 -0.286,0.6110007 -0.693,0.8150007 z m 6.605,0.163 c -0.245,-0.082 -0.367,0 -0.612,-0.082 -0.122,-0.285 -0.163,-0.6110005 -0.122,-0.9780007 0.489,0 0.897,0.5700002 0.938,0.9780007 z m -2.895,0.041 -0.163,-0.041 c -0.082,-0.204 -0.082,-0.6110005 -0.245,-0.8960007 l 1.957,-0.163 c 0.204,0.163 0.204,0.6520007 0.285,0.9780007 -0.57,0.204 -1.181,0.081 -1.834,0.122 z m 4.566,0.489 c -0.123,0 -0.041,-0.245 -0.245,-0.326 -0.122,-0.163 -0.163,-0.367 -0.204,-0.571 0.041,-0.2450005 0.408,-0.6110007 0.734,-0.7340007 l 0.204,0.123 c 0.082,0.2850002 0.204,0.6930007 0.53,0.8960007 0,0.368 -0.57,0.571 -1.019,0.612 z m -6.727,0 c -0.285,-0.326 -0.203,-0.612 -0.203,-1.1010005 l 1.386,-0.4890002 c 0.204,0.285 0.367,0.6930007 0.245,1.0600007 l -0.245,0.286 c -0.285,0.244 -0.816,0.244 -1.183,0.244 z m 5.83,0.897 c -0.122,-0.204 -0.408,-0.693 -0.367,-0.938 l 0.245,0.041 c 0.041,0.204 0.367,0.53 0.204,0.774 z m 4.851,0.041 c -0.571,-0.245 -1.101,-0.041 -1.753,-0.204 -0.285,-0.203 -0.204,-0.733 -0.204,-1.141 0.489,-0.123 1.101,-0.285 1.712,-0.326 0.081,0.041 0.204,0.122 0.448,0.245 0.163,0.367 0.245,1.06 0.122,1.427 h -0.325 z m -11.659,0 c -0.122,-0.245 -0.122,-0.571 -0.489,-0.733 l -0.326,0.367 -0.285,-0.041 v -0.449 c 0.53,-0.286 0.938,-0.408 1.467,-0.815 0,0.408 0.326,0.897 0,1.427 -0.204,-10e-4 -0.122,0.203 -0.367,0.244 z m 8.276,0.122 -0.204,-0.163 c -0.204,-0.164 0,-0.326 0.082,-0.53 0.204,-0.163 0.734,-0.367 0.938,-0.489 0.407,0 0,0.489 0.326,0.815 -0.204,0.367 -0.694,0.082 -1.142,0.367 z m -2.772,0.082 c 0.163,-0.367 -0.244,-0.938 0.163,-1.183 0.123,0.367 0,0.734 -0.163,1.142 z m 7.583,0.326 c -0.367,-0.163 -0.896,-0.938 -0.571,-1.386 0.285,0.123 0.611,0.449 0.774,0.815 0.123,0.163 0.123,0.489 -0.163,0.571 z m -9.662,0.041 c -0.204,-0.367 -0.204,-0.978 -0.204,-1.508 l 1.549,-0.205 0.286,0.204 c 0.122,0.326 0,0.774 0.041,1.142 -0.286,0.285 -1.142,0.367 -1.672,0.367 z m 10.721,0.57 -0.326,-0.367 0.163,-0.041 c 0,0.041 0,0.204 0.163,0.326 z m -6.441,0 c -0.041,-0.122 -0.041,-0.367 0.082,-0.489 z m -6.074,0.041 c -0.653,-0.123 -0.326,-0.815 -0.653,-1.387 l 0.123,-0.041 1.508,-0.611 c 0.326,0.489 0.286,1.019 0.326,1.468 -0.489,0.367 -0.815,0.367 -1.304,0.571 z m -0.653,-0.041 c -0.407,-0.122 -0.407,-0.367 -0.611,-0.693 l 0.204,-0.245 c 0.407,0.164 0.204,0.571 0.407,0.938 z m 7.583,0.816 -0.285,-0.123 c -0.204,-0.286 0,-0.815 0,-1.304 0.448,0 0.693,-0.326 1.223,-0.204 0.326,0.245 0,0.897 0.286,1.346 -0.204,0.285 -0.815,0.081 -1.182,0.285 z m 3.303,0.366 c -0.571,-0.285 -1.101,-0.163 -1.712,-0.571 -0.122,-0.407 -0.163,-1.019 0.041,-1.427 0.611,-0.163 1.304,-0.122 2.038,0.204 0,0.53 -0.367,1.142 -0.204,1.793 h -0.163 z m -7.991,0.205 c -0.244,-0.245 -0.326,-0.897 -0.326,-1.508 h 1.426 c 0.082,0.407 -0.163,0.978 -0.285,1.468 -0.122,0.202 -0.57,0.04 -0.815,0.04 z m -1.264,0.366 -1.06,-1.182 c 0.489,-0.123 1.06,-0.408 1.427,-0.571 0.326,0.326 0.163,1.02 0.244,1.386 -0.081,0.204 -0.244,0.367 -0.611,0.367 z m 10.274,0.285 c -0.652,-0.529 -0.652,-1.549 -0.204,-2.323 0.448,-0.286 0.734,0.367 1.264,0.489 0.041,0.285 0.245,0.285 0.367,0.611 -0.326,0.367 -0.896,0.897 -1.386,1.223 z m -9.58,0.531 -0.163,-0.448 c 0.081,0 0.245,0.285 0.285,0.367 0,0.04 -0.041,0.081 -0.122,0.081 z m 0.529,0.081 c -0.041,-0.245 0,-0.408 -0.041,-0.734 h 0.367 c 0,0.245 0.041,0.53 -0.326,0.734 z"
       fill="#cc2229"
       id="path56" />
    <path
       d="m 164.74544,3.3588334 c 0.367,0 0.732,0.082 1.059,0.285 0.326,0.163 0.613,0.448 0.816,0.774 0.162,0.367 0.285,0.734 0.285,1.101 0,0.367 -0.123,0.733 -0.285,1.06 -0.203,0.367 -0.49,0.612 -0.816,0.8149999 a 1.968,1.968 0 0 1 -1.059,0.286 V 7.2718334 c 0.285,0 0.57,-0.082 0.855,-0.245 0.285,-0.163 0.49,-0.367 0.652,-0.652 0.164,-0.245 0.203,-0.571 0.203,-0.856 0,-0.286 -0.039,-0.612 -0.203,-0.856 -0.162,-0.285 -0.408,-0.489 -0.652,-0.652 -0.285,-0.163 -0.57,-0.204 -0.855,-0.204 z m 0,2.528 c 0.082,0.122 0.162,0.244 0.244,0.407 l 0.203,0.367 h 0.572 l -0.287,-0.449 c -0.08,-0.163 -0.162,-0.244 -0.162,-0.285 l -0.164,-0.163 c -0.039,-0.041 -0.08,-0.081 -0.162,-0.081 0.203,-0.041 0.367,-0.123 0.449,-0.245 0.121,-0.082 0.162,-0.245 0.162,-0.408 0,-0.123 0,-0.245 -0.082,-0.326 a 0.487,0.487 0 0 0 -0.203,-0.204 c -0.082,-0.082 -0.203,-0.082 -0.367,-0.122 h -0.203 v 0.367 c 0.082,0 0.121,0.04 0.162,0.04 0.082,0 0.123,0.041 0.164,0.123 0.041,0.041 0.041,0.082 0.041,0.163 0,0.041 0,0.123 -0.041,0.163 -0.041,0.04 -0.082,0.082 -0.164,0.122 h -0.162 z m 0,-2.528 v 0.448 c -0.285,0 -0.57,0.041 -0.857,0.204 a 1.682,1.682 0 0 0 -0.652,0.652 1.615,1.615 0 0 0 -0.244,0.856 c 0,0.285 0.082,0.611 0.244,0.856 0.164,0.286 0.367,0.489 0.652,0.652 0.246,0.163 0.531,0.245 0.857,0.245 v 0.4079999 c -0.367,0 -0.734,-0.082 -1.102,-0.286 a 2.125,2.125 0 0 1 -0.773,-0.8149999 c -0.205,-0.326 -0.285,-0.692 -0.285,-1.06 0,-0.368 0.08,-0.734 0.285,-1.101 0.203,-0.326 0.447,-0.611 0.814,-0.774 a 1.976,1.976 0 0 1 1.061,-0.285 z m 0,1.019 v 0.367 h -0.531 v 0.611 h 0.531 v 0.531 c -0.041,0 -0.041,-0.041 -0.082,-0.041 a 0.46,0.46 0 0 0 -0.326,-0.123 h -0.123 v 0.938 h -0.447 v -2.283 z"
       id="path58" />
  </g>
</svg>
