<?xml version="1.0" encoding="UTF-8" standalone="no"?>
<!DOCTYPE svg PUBLIC "-//W3C//DTD SVG 1.1//EN" "http://www.w3.org/Graphics/SVG/1.1/DTD/svg11.dtd">
<svg xmlns="http://www.w3.org/2000/svg" version="1.1" viewBox="0 0 634 271">
<path stroke="#ffe81f" stroke-width="2.00" fill="none" stroke-linecap="butt" vector-effect="non-scaling-stroke" d="
  M 393.54 22.00
  L 393.90 21.88
  A 0.49 0.49 0.0 0 0 394.22 21.37
  Q 394.01 19.12 392.71 17.25"
/>
<g fill="#ffe81f">
<path d="
  M 250.31 0.00
  L 303.81 0.00
  L 303.94 43.36
  A 0.64 0.64 0.0 0 1 303.30 44.00
  L 247.50 44.00
  Q 246.85 44.00 247.20 44.55
  L 247.72 45.36
  A 1.76 1.72 -62.1 0 1 248.00 46.31
  L 248.00 131.50
  A 0.50 0.50 0.0 0 1 247.50 132.00
  L 198.53 132.00
  A 0.53 0.53 0.0 0 1 198.00 131.47
  L 198.00 44.50
  A 0.50 0.50 0.0 0 0 197.50 44.00
  L 138.22 44.01
  A 1.32 1.31 84.4 0 0 136.93 45.58
  C 137.11 46.50 137.66 47.82 138.30 48.66
  Q 146.87 59.84 155.40 71.06
  C 162.31 80.16 166.66 86.97 164.93 97.94
  C 161.97 116.67 148.05 130.48 128.25 130.86
  Q 48.02 132.39 0.00 131.63
  L 0.00 84.19
  L 104.33 84.06
  A 0.92 0.92 0.0 0 0 105.00 82.52
  Q 94.37 70.96 84.44 58.81
  C 65.97 36.21 87.40 0.69 115.22 0.92
  Q 182.77 1.49 250.31 0.00
  Z
  M 205.00 37.56
  L 205.00 123.50
  A 0.50 0.50 0.0 0 0 205.50 124.00
  L 239.50 124.00
  A 0.50 0.50 0.0 0 0 240.00 123.50
  L 240.00 37.63
  A 0.63 0.63 0.0 0 1 240.63 37.00
  L 296.38 37.00
  A 0.63 0.63 0.0 0 0 297.01 36.37
  L 296.98 7.94
  A 0.68 0.68 0.0 0 0 296.30 7.26
  Q 206.15 8.39 116.50 7.94
  C 108.07 7.89 101.57 9.63 95.71 14.95
  C 85.30 24.39 80.25 42.55 89.57 54.65
  C 96.01 63.00 103.47 70.64 110.21 78.79
  Q 113.58 82.86 110.53 87.08
  C 106.61 92.49 102.66 90.97 97.02 90.97
  Q 52.31 91.03 7.72 90.99
  A 0.73 0.72 -90.0 0 0 7.00 91.72
  L 7.00 123.46
  A 0.51 0.51 0.0 0 0 7.51 123.97
  Q 60.62 124.07 113.73 123.94
  C 128.60 123.90 141.35 126.03 151.30 113.05
  Q 157.84 104.51 158.26 93.98
  C 158.50 87.88 156.76 84.05 153.22 79.28
  Q 143.27 65.89 133.04 52.71
  C 127.75 45.88 128.75 37.10 139.00 37.06
  Q 171.75 36.93 204.50 37.06
  A 0.50 0.50 0.0 0 1 205.00 37.56
  Z"
/>
<path d="
  M 323.88 16.42
  Q 326.49 8.88 329.30 1.38
  A 0.61 0.61 0.0 0 1 329.87 0.99
  L 394.23 1.01
  A 0.61 0.60 80.5 0 1 394.80 1.42
  L 440.02 132.28
  A 0.60 0.60 0.0 0 1 439.46 133.08
  Q 416.76 132.88 394.07 132.09
  Q 392.39 132.04 391.52 131.62
  A 1.23 1.22 5.0 0 1 390.86 130.84
  L 386.62 116.00
  A 0.79 0.78 -4.3 0 0 385.95 115.43
  Q 382.82 115.07 381.82 115.06
  Q 360.35 114.90 338.88 115.07
  A 0.60 0.58 -81.2 0 0 338.32 115.49
  L 333.72 130.86
  A 1.56 1.55 8.3 0 1 332.23 131.97
  L 284.56 132.06
  A 0.37 0.36 -80.3 0 1 284.22 131.57
  Q 303.99 73.93 323.88 16.42
  Z
  M 393.54 22.00
  L 393.90 21.88
  A 0.49 0.49 0.0 0 0 394.22 21.37
  Q 394.01 19.12 392.71 17.25
  L 389.84 8.55
  A 0.82 0.81 80.4 0 0 389.07 8.00
  L 335.06 8.01
  A 1.52 1.52 0.0 0 0 333.62 9.04
  L 294.16 123.54
  A 0.34 0.34 0.0 0 0 294.48 123.99
  L 328.11 124.02
  A 0.77 0.76 -81.2 0 0 328.84 123.48
  L 333.29 108.44
  A 0.62 0.61 8.2 0 1 333.88 108.00
  L 389.81 108.00
  A 1.41 1.38 65.5 0 1 390.74 108.36
  Q 391.30 108.87 391.94 108.63
  Q 392.96 108.25 392.68 109.29
  L 392.21 111.10
  A 0.67 0.67 0.0 0 0 392.55 111.87
  C 394.85 113.04 392.37 114.75 393.50 115.82
  A 0.15 0.14 36.7 0 0 393.73 115.79
  L 393.97 115.35
  Q 394.84 113.75 394.64 115.56
  L 394.28 118.73
  A 0.22 0.21 -16.3 0 0 394.63 118.92
  L 395.17 118.49
  Q 396.08 117.76 395.75 118.88
  L 394.99 121.51
  A 0.36 0.35 -2.9 0 0 395.47 121.94
  L 396.23 121.62
  Q 397.10 121.26 396.75 122.14
  L 395.97 124.06
  Q 395.59 125.01 396.53 124.61
  Q 398.35 123.82 399.26 123.88
  Q 414.25 124.79 429.15 126.04
  A 1.02 1.02 0.0 0 0 430.20 124.69
  L 397.71 30.74
  A 0.30 0.30 0.0 0 0 397.29 30.58
  L 397.01 30.74
  A 0.41 0.41 0.0 0 1 396.42 30.51
  L 393.54 22.00
  Z"
/>
<path d="
  M 505.00 98.11
  L 505.00 131.25
  A 0.75 0.75 0.0 0 1 504.25 132.00
  L 453.50 132.00
  A 0.50 0.50 0.0 0 1 453.00 131.50
  L 453.00 1.56
  A 0.48 0.48 0.0 0 1 453.47 1.08
  Q 498.27 0.52 542.97 1.98
  C 554.54 2.36 561.57 4.66 570.12 11.63
  C 593.83 30.95 590.07 65.91 563.44 80.33
  A 0.66 0.65 68.8 0 0 563.12 81.07
  Q 563.82 83.88 566.32 83.90
  Q 599.35 84.19 632.38 85.16
  A 0.52 0.52 0.0 0 1 632.88 85.68
  C 633.08 100.52 631.95 116.35 633.58 131.03
  A 0.94 0.94 0.0 0 1 632.64 132.07
  Q 591.25 131.81 551.25 130.99
  C 543.47 130.83 537.38 126.87 531.82 121.93
  Q 518.51 110.10 505.45 97.92
  A 0.27 0.26 21.8 0 0 505.00 98.11
  Z
  M 498.19 82.15
  C 511.13 93.63 525.81 108.84 541.14 120.59
  C 543.61 122.49 546.95 124.02 549.75 124.03
  Q 587.61 124.05 625.49 123.97
  A 0.51 0.51 0.0 0 0 626.00 123.46
  L 626.00 93.28
  A 0.54 0.54 0.0 0 0 625.43 92.74
  C 614.26 93.47 602.74 91.60 592.77 91.33
  Q 578.54 90.95 564.28 90.91
  A 1.77 1.72 -28.3 0 1 563.43 90.67
  Q 556.79 86.66 552.50 80.21
  A 1.22 1.21 61.4 0 1 553.02 78.43
  C 571.30 70.30 581.92 56.32 578.07 35.49
  C 575.50 21.63 560.28 9.01 546.21 9.04
  Q 542.86 9.05 542.76 9.04
  Q 501.68 7.80 460.50 8.04
  A 0.50 0.50 0.0 0 0 460.00 8.54
  L 460.00 123.50
  A 0.50 0.50 0.0 0 0 460.50 124.00
  L 497.51 124.00
  A 0.51 0.51 0.0 0 0 498.02 123.49
  L 497.97 82.25
  Q 497.97 81.95 498.19 82.15
  Z"
/>
<path d="
  M 392.71 17.25
  Q 394.01 19.12 394.22 21.37
  A 0.49 0.49 0.0 0 1 393.90 21.88
  L 393.54 22.00
  Q 392.56 19.70 392.71 17.25
  Z"
/>
<path d="
  M 343.48 81.20
  L 362.49 28.38
  A 0.50 0.50 0.0 0 1 363.44 28.39
  L 381.72 81.46
  A 0.50 0.50 0.0 0 1 381.24 82.13
  L 343.94 81.87
  A 0.50 0.50 0.0 0 1 343.48 81.20
  Z
  M 353.31 74.03
  A 0.66 0.66 0.0 0 0 353.93 74.92
  L 371.24 75.10
  A 0.66 0.66 0.0 0 0 371.87 74.23
  L 363.48 49.14
  A 0.66 0.66 0.0 0 0 362.23 49.12
  L 353.31 74.03
  Z"
/>
<path d="
  M 530.23 33.03
  C 549.76 33.69 549.44 60.27 530.70 60.08
  Q 514.17 59.92 497.61 60.03
  A 0.61 0.61 0.0 0 1 497.00 59.42
  L 497.00 33.61
  A 0.52 0.51 90.0 0 1 497.51 33.09
  Q 523.54 32.80 530.23 33.03
  Z
  M 533.10 52.97
  C 539.18 52.92 540.66 40.15 531.24 40.04
  Q 517.93 39.90 504.53 40.08
  A 0.54 0.54 0.0 0 0 504.00 40.62
  L 504.00 52.39
  A 0.55 0.54 0.5 0 0 504.54 52.93
  Q 518.88 53.08 533.10 52.97
  Z"
/>
<path d="
  M 285.50 269.99
  A 0.58 0.58 0.0 0 1 284.95 269.59
  L 279.48 252.51
  A 0.73 0.72 81.2 0 0 278.79 252.00
  L 232.82 252.00
  A 1.52 1.52 0.0 0 0 231.36 253.09
  L 226.81 268.46
  A 0.75 0.75 0.0 0 1 226.09 269.00
  L 178.49 269.00
  A 0.29 0.29 0.0 0 1 178.22 268.62
  Q 199.47 207.40 220.50 146.25
  Q 222.04 141.77 223.29 139.44
  A 0.84 0.84 0.0 0 1 224.03 139.00
  Q 251.61 139.01 279.12 139.00
  C 281.93 138.99 284.87 138.62 287.90 139.48
  A 1.05 1.05 0.0 0 1 288.59 140.13
  L 333.56 269.57
  A 0.33 0.32 -9.5 0 1 333.25 270.00
  L 285.50 269.99
  Z
  M 290.68 262.97
  L 323.65 263.01
  A 0.34 0.34 0.0 0 0 323.97 262.55
  L 283.59 146.47
  A 0.71 0.70 79.9 0 0 282.93 146.00
  L 228.82 146.00
  A 1.38 1.37 -80.5 0 0 227.52 146.93
  L 187.97 261.29
  A 0.55 0.55 0.0 0 0 188.49 262.02
  L 220.83 262.01
  A 1.07 1.06 7.9 0 0 221.86 261.24
  L 226.34 246.05
  A 1.03 1.03 0.0 0 1 227.01 245.35
  Q 228.17 244.95 229.75 244.97
  Q 250.51 245.18 281.43 244.61
  Q 284.11 244.57 284.68 246.30
  Q 287.35 254.38 289.62 262.18
  A 1.11 1.11 0.0 0 0 290.68 262.97
  Z"
/>
<path d="
  M 531.44 271.00
  L 476.19 271.00
  Q 461.32 270.43 446.44 270.04
  C 437.98 269.83 430.32 263.79 424.09 258.16
  Q 409.82 245.24 400.56 236.44
  Q 400.04 235.95 399.63 235.85
  A 0.51 0.51 0.0 0 0 399.00 236.35
  L 398.75 271.00
  L 348.19 271.00
  L 348.06 141.41
  A 0.41 0.41 0.0 0 1 348.47 141.00
  Q 391.66 141.00 434.75 141.05
  C 439.31 141.06 443.60 141.31 447.93 142.79
  C 467.78 149.57 485.37 171.03 479.38 192.70
  C 475.94 205.10 468.68 212.15 458.58 219.36
  A 1.28 1.28 0.0 0 0 459.19 221.67
  Q 464.73 222.24 470.00 222.38
  Q 498.00 223.16 526.00 222.87
  Q 531.97 222.80 536.13 222.16
  Q 538.89 221.73 537.01 219.67
  Q 528.32 210.16 520.44 201.06
  C 498.31 175.46 517.39 139.17 550.06 139.06
  Q 591.28 138.93 632.49 139.03
  A 0.52 0.51 0.6 0 1 633.00 139.54
  L 633.00 184.22
  A 0.58 0.58 0.0 0 1 632.51 184.79
  C 629.77 185.19 626.24 184.87 624.26 184.88
  Q 598.46 185.09 571.76 184.15
  A 0.91 0.91 0.0 0 0 570.87 185.36
  C 571.20 186.26 571.61 187.27 572.25 188.06
  Q 578.81 196.16 585.26 204.34
  C 592.57 213.60 596.76 218.04 598.58 227.21
  C 602.65 247.74 583.73 269.14 563.43 270.03
  Q 547.45 270.73 531.44 271.00
  Z
  M 447.42 217.75
  C 460.50 210.52 470.13 203.98 473.47 188.44
  C 477.10 171.53 460.07 153.16 444.65 149.06
  Q 440.64 147.99 432.27 147.99
  Q 393.82 148.00 355.45 148.00
  A 0.45 0.45 0.0 0 0 355.00 148.45
  L 355.00 263.50
  A 0.50 0.50 0.0 0 0 355.50 264.00
  L 391.51 264.00
  A 0.51 0.50 -90.0 0 0 392.01 263.49
  L 391.97 220.26
  Q 391.97 219.80 392.36 220.04
  Q 394.26 221.18 395.31 222.19
  Q 411.71 237.93 428.51 253.24
  C 432.51 256.88 439.60 262.74 445.18 262.93
  C 478.84 264.10 509.37 264.15 543.69 263.60
  Q 550.42 263.49 557.14 263.17
  C 568.27 262.64 574.14 262.53 581.41 255.42
  Q 590.87 246.18 592.00 233.51
  C 592.62 226.44 590.12 221.34 585.46 215.43
  Q 576.29 203.79 567.05 192.20
  C 565.26 189.96 562.76 186.58 563.12 183.38
  Q 563.85 176.84 571.74 176.92
  Q 598.23 177.21 625.24 177.76
  A 0.74 0.74 0.0 0 0 626.00 177.02
  L 626.00 146.46
  A 0.44 0.44 0.0 0 0 625.56 146.02
  Q 589.64 145.95 553.81 146.22
  C 535.29 146.36 519.76 153.68 518.15 173.87
  C 517.51 181.96 519.81 190.39 525.17 196.32
  Q 537.48 209.95 541.18 214.32
  C 547.01 221.19 547.20 228.60 536.27 229.29
  Q 532.07 229.55 525.75 229.65
  Q 494.49 230.14 473.50 229.70
  Q 466.61 229.56 459.77 228.81
  C 455.25 228.31 450.21 221.95 447.28 218.61
  A 0.56 0.56 0.0 0 1 447.42 217.75
  Z"
/>
<path d="
  M 152.56 271.04
  L 119.44 271.00
  L 100.71 216.43
  Q 100.54 215.94 100.22 216.35
  Q 99.17 217.68 98.23 220.24
  Q 89.15 244.79 80.30 269.42
  A 0.76 0.76 0.0 0 1 79.58 269.93
  L 47.66 270.03
  A 0.66 0.65 -9.3 0 1 47.04 269.59
  L 3.23 141.18
  A 0.89 0.89 0.0 0 1 4.07 140.00
  L 49.83 140.00
  A 1.92 1.92 0.0 0 1 51.64 141.28
  L 63.62 174.99
  A 0.44 0.44 0.0 0 0 64.45 174.99
  L 76.46 140.44
  A 0.66 0.65 9.3 0 1 77.08 140.00
  L 122.98 140.00
  A 1.74 1.73 81.0 0 1 124.63 141.20
  Q 129.34 155.92 134.36 170.42
  Q 135.25 172.97 136.04 174.33
  Q 136.82 175.65 137.32 174.21
  L 149.06 140.57
  A 0.88 0.88 0.0 0 1 149.89 139.99
  L 197.21 140.01
  A 0.38 0.38 0.0 0 1 197.57 140.51
  L 152.56 271.04
  Z
  M 136.27 195.98
  L 119.67 148.47
  A 2.16 2.16 0.0 0 0 117.63 147.01
  L 82.23 146.99
  A 1.12 1.12 0.0 0 0 81.17 147.74
  L 64.45 195.25
  A 0.46 0.46 0.0 0 1 63.58 195.26
  L 46.57 147.44
  A 0.72 0.72 0.0 0 0 45.89 146.96
  L 13.86 147.09
  A 1.01 1.00 80.4 0 0 12.92 148.42
  L 51.63 262.19
  A 1.21 1.20 -9.5 0 0 52.77 263.00
  L 74.55 262.99
  A 1.23 1.21 9.9 0 0 75.70 262.19
  L 100.38 194.52
  Q 100.46 194.29 100.54 194.52
  L 123.94 263.08
  A 1.47 1.47 0.0 0 0 125.35 264.08
  L 147.64 263.88
  A 0.61 0.60 -80.5 0 0 148.21 263.47
  L 187.90 147.70
  A 0.55 0.55 0.0 0 0 187.38 146.97
  L 154.87 147.08
  A 1.27 1.27 0.0 0 0 153.67 147.93
  L 136.92 195.98
  A 0.34 0.34 0.0 0 1 136.27 195.98
  Z"
/>
<path d="
  M 237.50 218.99
  A 0.49 0.49 0.0 0 1 237.04 218.33
  L 256.41 165.42
  Q 256.48 165.22 256.55 165.42
  L 274.56 218.77
  A 0.18 0.18 0.0 0 1 274.39 219.00
  L 237.50 218.99
  Z
  M 246.87 211.30
  A 0.49 0.49 0.0 0 0 247.33 211.96
  L 264.66 212.05
  A 0.49 0.49 0.0 0 0 265.12 211.40
  L 256.59 187.27
  A 0.49 0.49 0.0 0 0 255.66 187.26
  L 246.87 211.30
  Z"
/>
<path d="
  M 439.09 181.12
  C 442.61 190.24 435.06 198.72 425.94 198.89
  Q 415.58 199.08 397.93 198.91
  Q 394.94 198.88 392.55 198.03
  A 0.84 0.83 10.1 0 1 392.00 197.25
  L 392.00 172.61
  A 0.53 0.53 0.0 0 1 392.52 172.08
  Q 407.62 171.95 422.60 171.99
  C 430.89 172.01 436.06 173.31 439.09 181.12
  Z
  M 425.93 191.96
  C 435.52 191.88 435.48 178.87 426.19 178.93
  Q 413.01 179.01 399.63 179.06
  A 0.60 0.59 -0.0 0 0 399.03 179.65
  L 398.99 191.37
  A 0.54 0.54 0.0 0 0 399.53 191.92
  Q 412.77 192.09 425.93 191.96
  Z"
/>
</g>
</svg>
