<?xml version="1.0" encoding="UTF-8" standalone="no"?>
<!DOCTYPE svg PUBLIC "-//W3C//DTD SVG 1.1//EN" "http://www.w3.org/Graphics/SVG/1.1/DTD/svg11.dtd">
<svg xmlns="http://www.w3.org/2000/svg" version="1.1" viewBox="0 0 527 192">
<g stroke-width="2.00" fill="none" stroke-linecap="butt">
<path stroke="#f5b189" vector-effect="non-scaling-stroke" d="
  M 265.04 41.00
  L 265.43 103.06
  A 0.49 0.49 0.0 0 0 265.93 103.55
  L 281.29 103.25"
/>
<path stroke="#e5ab86" vector-effect="non-scaling-stroke" d="
  M 281.29 103.25
  L 285.08 169.35"
/>
<path stroke="#f5b189" vector-effect="non-scaling-stroke" d="
  M 285.08 169.35
  Q 295.97 170.81 306.68 170.47
  A 1.10 1.08 -70.2 0 0 307.49 170.08
  L 327.29 147.00"
/>
<path stroke="#fddb9e" vector-effect="non-scaling-stroke" d="
  M 327.29 147.00
  L 327.71 147.00"
/>
<path stroke="#f5b189" vector-effect="non-scaling-stroke" d="
  M 327.71 147.00
  C 330.84 155.72 338.66 170.22 348.43 172.20
  Q 351.22 172.76 355.49 171.60
  Q 377.76 165.53 400.08 159.29
  A 0.53 0.53 0.0 0 1 400.75 159.80
  L 400.75 174.82
  A 0.56 0.55 2.9 0 0 401.25 175.37
  L 404.50 175.71"
/>
<path stroke="#e5ab86" vector-effect="non-scaling-stroke" d="
  M 404.50 175.71
  C 409.35 176.11 413.57 176.83 418.44 175.82
  Q 456.48 167.95 494.50 160.01
  Q 497.27 159.43 498.50 158.96"
/>
<path stroke="#fddb9e" vector-effect="non-scaling-stroke" d="
  M 498.50 158.96
  C 501.10 158.32 499.72 156.01 499.73 154.51
  Q 499.86 135.10 499.56 115.70
  Q 499.50 111.49 500.43 107.39
  Q 506.03 82.74 511.77 57.06
  A 0.85 0.85 0.0 0 0 511.24 56.08
  Q 503.18 53.09 494.50 51.04"
/>
<path stroke="#e5ab86" vector-effect="non-scaling-stroke" d="
  M 494.50 51.04
  L 480.50 62.04"
/>
<path stroke="#fddb9e" vector-effect="non-scaling-stroke" d="
  M 480.50 62.04
  L 472.67 43.92
  A 1.10 1.10 0.0 0 0 472.00 43.32
  L 449.48 36.22"
/>
<path stroke="#e5ab86" vector-effect="non-scaling-stroke" d="
  M 449.48 36.22
  L 437.25 49.04"
/>
<path stroke="#fddb9e" vector-effect="non-scaling-stroke" d="
  M 437.25 49.04
  Q 430.60 40.34 422.27 34.49
  C 403.04 21.00 381.24 28.69 370.21 48.00"
/>
<path stroke="#f5b189" vector-effect="non-scaling-stroke" d="
  M 370.21 48.00
  L 327.12 107.47"
/>
<path stroke="#fddb9e" vector-effect="non-scaling-stroke" d="
  M 327.12 107.47
  Q 326.09 101.73 326.50 95.79"
/>
<path stroke="#f5b189" vector-effect="non-scaling-stroke" d="
  M 326.50 95.79
  L 356.29 46.25"
/>
<path stroke="#fddb9e" vector-effect="non-scaling-stroke" d="
  M 356.29 46.25
  Q 356.75 33.21 356.10 20.57
  A 0.69 0.67 0.5 0 0 355.46 19.93
  L 266.99 15.09
  A 1.59 1.59 0.0 0 0 265.31 16.66
  L 265.04 41.00"
/>
<path stroke="#f38c28" vector-effect="non-scaling-stroke" d="
  M 356.29 46.25
  L 324.93 44.50
  A 0.24 0.24 0.0 0 0 324.68 44.75
  L 326.50 95.79"
/>
<path stroke="#f38c28" vector-effect="non-scaling-stroke" d="
  M 327.12 107.47
  C 326.86 108.10 326.65 108.39 326.69 109.12
  Q 327.48 127.22 328.00 145.32
  C 328.02 145.97 327.81 146.37 327.71 147.00"
/>
<path stroke="#f38c28" vector-effect="non-scaling-stroke" d="
  M 327.29 147.00
  C 327.37 145.86 300.97 146.25 298.26 146.30"
/>
<path stroke="#e38625" vector-effect="non-scaling-stroke" d="
  M 298.26 146.30
  Q 298.64 145.14 298.57 143.50
  Q 296.28 95.04 293.47 46.45"
/>
<path stroke="#f38c28" vector-effect="non-scaling-stroke" d="
  M 293.47 46.45
  L 293.53 43.37
  A 0.58 0.57 -87.4 0 0 293.00 42.78
  L 265.04 41.00"
/>
<path stroke="#db5c10" vector-effect="non-scaling-stroke" d="
  M 293.47 46.45
  L 281.29 103.25"
/>
<path stroke="#db5c10" vector-effect="non-scaling-stroke" d="
  M 481.25 156.71
  Q 450.81 163.59 420.45 170.88
  Q 412.97 172.68 405.42 174.16
  A 1.01 0.98 -82.1 0 0 404.70 174.72
  Q 404.49 175.18 404.50 175.71"
/>
<path stroke="#db5c10" vector-effect="non-scaling-stroke" d="
  M 298.26 146.30
  L 285.08 169.35"
/>
<path stroke="#e38625" vector-effect="non-scaling-stroke" d="
  M 437.25 49.04
  Q 458.72 81.86 449.79 120.50"
/>
<path stroke="#f38c28" vector-effect="non-scaling-stroke" d="
  M 449.79 120.50
  C 442.09 147.99 417.24 165.62 390.53 146.18
  C 367.14 129.16 359.12 94.86 363.53 67.49
  Q 364.82 59.52 370.21 48.00"
/>
<path stroke="#db5c10" vector-effect="non-scaling-stroke" d="
  M 479.46 108.00
  L 449.79 120.50"
/>
<path stroke="#e38625" vector-effect="non-scaling-stroke" d="
  M 480.50 62.04
  L 487.43 78.52
  Q 487.64 79.01 487.78 78.49
  Q 491.29 65.34 494.36 52.23
  Q 494.50 51.63 494.50 51.04"
/>
<path stroke="#e38625" vector-effect="non-scaling-stroke" d="
  M 498.50 158.96
  C 497.96 158.66 497.90 158.47 497.21 158.40
  Q 489.23 157.55 481.25 156.71"
/>
<path stroke="#f38c28" vector-effect="non-scaling-stroke" d="
  M 481.25 156.71
  Q 480.23 132.71 479.75 108.69
  C 479.75 108.31 479.63 108.29 479.46 108.00"
/>
<path stroke="#e38625" vector-effect="non-scaling-stroke" d="
  M 479.46 108.00
  Q 466.20 74.97 452.38 42.16
  Q 451.20 39.36 449.48 36.22"
/>
<path stroke="#f5b189" vector-effect="non-scaling-stroke" d="
  M 151.97 39.61
  L 139.48 23.18"
/>
<path stroke="#fddb9e" vector-effect="non-scaling-stroke" d="
  M 139.48 23.18
  Q 106.09 25.68 73.99 35.20
  A 1.20 1.14 3.7 0 0 73.28 35.79
  Q 72.93 36.49 72.93 37.28"
/>
<path stroke="#f5b189" vector-effect="non-scaling-stroke" d="
  M 72.93 37.28
  L 68.82 35.20
  A 0.99 0.98 49.0 0 0 68.06 35.14
  L 67.71 35.25"
/>
<path stroke="#fddb9e" vector-effect="non-scaling-stroke" d="
  M 67.71 35.25
  L 19.48 50.62
  A 0.45 0.44 84.0 0 0 19.18 51.00
  L 17.29 71.00"
/>
<path stroke="#e5ab86" vector-effect="non-scaling-stroke" d="
  M 17.29 71.00
  L 17.43 71.34
  A 1.32 1.29 9.1 0 0 17.86 71.92
  L 28.21 80.00"
/>
<path stroke="#fddb9e" vector-effect="non-scaling-stroke" d="
  M 28.21 80.00
  L 22.15 157.25
  A 1.10 1.10 0.0 0 0 22.90 158.37
  Q 23.43 158.55 24.46 158.42"
/>
<path stroke="#e5ab86" vector-effect="non-scaling-stroke" d="
  M 24.46 158.42
  Q 67.46 167.51 110.42 176.32
  C 115.55 177.37 120.59 176.34 125.75 175.96"
/>
<path stroke="#f5b189" vector-effect="non-scaling-stroke" d="
  M 125.75 175.96
  L 129.94 175.49
  A 0.54 0.53 86.0 0 0 130.42 174.93
  L 130.25 170.79"
/>
<path stroke="#e5ab86" vector-effect="non-scaling-stroke" d="
  M 130.25 170.79
  C 137.08 172.08 144.66 174.64 151.58 174.35
  Q 168.01 173.64 184.59 172.11"
/>
<path stroke="#f5b189" vector-effect="non-scaling-stroke" d="
  M 184.59 172.11
  C 185.47 172.59 185.95 172.14 185.89 171.24
  Q 185.22 161.75 184.53 152.46
  Q 184.48 151.79 185.08 152.08
  Q 202.61 160.62 219.79 169.75
  C 225.61 172.84 232.67 169.53 237.26 165.49
  Q 247.86 156.17 250.74 143.09
  C 252.50 135.13 250.58 129.82 247.63 121.32
  A 0.42 0.42 0.0 0 1 247.99 120.76
  L 251.14 120.46
  A 0.57 0.56 -6.8 0 0 251.65 119.82
  L 244.46 64.75"
/>
<path stroke="#fddb9e" vector-effect="non-scaling-stroke" d="
  M 244.46 64.75
  C 235.48 16.76 183.73 -3.96 151.97 39.61"
/>
<path stroke="#f38c28" vector-effect="non-scaling-stroke" d="
  M 244.46 64.75
  L 209.84 65.03"
/>
<path stroke="#e38625" vector-effect="non-scaling-stroke" d="
  M 209.84 65.03
  Q 209.70 65.01 209.50 64.86
  A 1.17 1.14 13.2 0 1 209.07 64.19
  C 206.38 52.59 195.80 39.20 183.12 49.43
  C 170.74 59.41 169.51 83.28 172.72 97.81
  C 174.39 105.33 178.91 115.42 186.60 117.88
  C 197.72 121.44 205.98 108.51 208.47 99.38
  A 1.40 1.40 0.0 0 1 209.80 98.34
  L 218.00 98.21"
/>
<path stroke="#f38c28" vector-effect="non-scaling-stroke" d="
  M 218.00 98.21
  L 243.27 98.37
  A 0.41 0.40 -84.1 0 1 243.66 98.86
  C 234.05 143.57 184.68 171.81 150.53 128.81"
/>
<path stroke="#e38625" vector-effect="non-scaling-stroke" d="
  M 150.53 128.81
  Q 143.06 116.64 139.46 103.25"
/>
<path stroke="#f38c28" vector-effect="non-scaling-stroke" d="
  M 139.46 103.25
  Q 137.49 91.57 137.96 79.75"
/>
<path stroke="#e38625" vector-effect="non-scaling-stroke" d="
  M 137.96 79.75
  Q 139.18 67.15 143.46 55.25"
/>
<path stroke="#f38c28" vector-effect="non-scaling-stroke" d="
  M 143.46 55.25
  Q 147.02 47.05 151.97 39.61"
/>
<path stroke="#db5c10" vector-effect="non-scaling-stroke" d="
  M 143.46 55.25
  Q 140.29 52.23 138.46 48.25"
/>
<path stroke="#db5c10" vector-effect="non-scaling-stroke" d="
  M 209.84 65.03
  L 218.00 98.21"
/>
<path stroke="#db5c10" vector-effect="non-scaling-stroke" d="
  M 139.46 103.25
  Q 133.65 99.97 128.46 95.75"
/>
<path stroke="#db5c10" vector-effect="non-scaling-stroke" d="
  M 184.59 172.11
  Q 158.46 160.55 131.75 150.46"
/>
<path stroke="#db5c10" vector-effect="non-scaling-stroke" d="
  M 97.44 99.06
  Q 97.96 100.46 99.34 101.00
  Q 101.48 101.85 101.55 101.89
  Q 125.87 115.69 150.53 128.81"
/>
<path stroke="#db5c10" vector-effect="non-scaling-stroke" d="
  M 137.96 79.75
  L 129.97 73.31
  A 0.90 0.89 -33.4 0 0 129.16 73.15
  L 128.79 73.25"
/>
<path stroke="#db5c10" vector-effect="non-scaling-stroke" d="
  M 118.94 73.28
  Q 107.93 64.12 95.88 56.54"
/>
<path stroke="#f38c28" vector-effect="non-scaling-stroke" d="
  M 139.48 23.18
  C 137.60 30.41 138.84 40.55 138.46 48.25"
/>
<path stroke="#e38625" vector-effect="non-scaling-stroke" d="
  M 138.46 48.25
  Q 110.96 52.06 96.50 55.00
  Q 95.17 55.27 95.88 56.54"
/>
<path stroke="#f38c28" vector-effect="non-scaling-stroke" d="
  M 95.88 56.54
  L 94.84 74.96
  A 0.77 0.77 0.0 0 0 95.65 75.77
  Q 107.13 75.04 118.94 73.28"
/>
<path stroke="#e38625" vector-effect="non-scaling-stroke" d="
  M 118.94 73.28
  L 128.07 72.61
  A 0.57 0.56 -15.5 0 1 128.62 72.92
  L 128.79 73.25"
/>
<path stroke="#f38c28" vector-effect="non-scaling-stroke" d="
  M 128.79 73.25
  L 128.46 95.75"
/>
<path stroke="#e38625" vector-effect="non-scaling-stroke" d="
  M 128.46 95.75
  L 97.44 99.06"
/>
<path stroke="#f38c28" vector-effect="non-scaling-stroke" d="
  M 97.44 99.06
  L 94.21 99.53
  A 0.69 0.67 -3.7 0 0 93.63 100.17
  L 92.67 124.51
  A 0.85 0.84 88.5 0 0 93.58 125.38
  L 131.25 122.35
  A 0.45 0.45 0.0 0 1 131.74 122.80
  L 131.75 150.46"
/>
<path stroke="#e38625" vector-effect="non-scaling-stroke" d="
  M 131.75 150.46
  Q 98.62 151.32 65.69 156.51"
/>
<path stroke="#f38c28" vector-effect="non-scaling-stroke" d="
  M 65.69 156.51
  Q 64.55 156.58 63.92 156.17
  A 0.90 0.89 -70.9 0 1 63.53 155.36
  L 70.04 73.59"
/>
<path stroke="#e38625" vector-effect="non-scaling-stroke" d="
  M 70.04 73.59
  L 71.21 60.00"
/>
<path stroke="#f38c28" vector-effect="non-scaling-stroke" d="
  M 71.21 60.00
  L 72.93 37.28"
/>
<path stroke="#db5c10" vector-effect="non-scaling-stroke" d="
  M 70.04 73.59
  L 52.62 61.35"
/>
<path stroke="#db5c10" vector-effect="non-scaling-stroke" d="
  M 71.21 60.00
  L 66.21 57.50"
/>
<path stroke="#f38c28" vector-effect="non-scaling-stroke" d="
  M 66.21 57.50
  Q 67.62 46.42 67.71 35.25"
/>
<path stroke="#db5c10" vector-effect="non-scaling-stroke" d="
  M 65.69 156.51
  L 130.25 170.79"
/>
<path stroke="#db5c10" vector-effect="non-scaling-stroke" d="
  M 125.75 175.96
  Q 125.81 175.40 125.60 174.90
  A 1.02 1.01 85.1 0 0 124.91 174.31
  Q 84.27 164.26 43.52 154.66
  Q 43.04 154.55 42.71 154.25"
/>
<path stroke="#e38625" vector-effect="non-scaling-stroke" d="
  M 66.21 57.50
  L 52.62 61.35"
/>
<path stroke="#f38c28" vector-effect="non-scaling-stroke" d="
  M 52.62 61.35
  Q 47.50 107.47 43.06 153.51
  Q 43.02 153.93 42.71 154.25"
/>
<path stroke="#e38625" vector-effect="non-scaling-stroke" d="
  M 42.71 154.25
  Q 33.42 155.54 24.46 158.42"
/>
<path stroke="#e38625" vector-effect="non-scaling-stroke" d="
  M 28.21 80.00
  L 29.05 68.87
  A 0.38 0.37 86.1 0 0 28.60 68.47
  C 26.28 69.01 19.07 71.54 17.29 71.00"
/>
<path stroke="#e38625" vector-effect="non-scaling-stroke" d="
  M 414.4583 124.2069
  A 35.09 16.92 81.2 0 0 425.8108 86.9415
  A 35.09 16.92 81.2 0 0 403.7217 54.8531
  A 35.09 16.92 81.2 0 0 392.3692 92.1185
  A 35.09 16.92 81.2 0 0 414.4583 124.2069"
/>
</g>
<g fill="#fab63d">
<path d="
  M 356.29 46.25
  L 324.93 44.50
  A 0.24 0.24 0.0 0 0 324.68 44.75
  L 326.50 95.79
  Q 326.09 101.73 327.12 107.47
  C 326.86 108.10 326.65 108.39 326.69 109.12
  Q 327.48 127.22 328.00 145.32
  C 328.02 145.97 327.81 146.37 327.71 147.00
  L 327.29 147.00
  C 327.37 145.86 300.97 146.25 298.26 146.30
  Q 298.64 145.14 298.57 143.50
  Q 296.28 95.04 293.47 46.45
  L 293.53 43.37
  A 0.58 0.57 -87.4 0 0 293.00 42.78
  L 265.04 41.00
  L 265.31 16.66
  A 1.59 1.59 0.0 0 1 266.99 15.09
  L 355.46 19.93
  A 0.69 0.67 0.5 0 1 356.10 20.57
  Q 356.75 33.21 356.29 46.25
  Z"
/>
<path d="
  M 244.46 64.75
  L 209.84 65.03
  Q 209.70 65.01 209.50 64.86
  A 1.17 1.14 13.2 0 1 209.07 64.19
  C 206.38 52.59 195.80 39.20 183.12 49.43
  C 170.74 59.41 169.51 83.28 172.72 97.81
  C 174.39 105.33 178.91 115.42 186.60 117.88
  C 197.72 121.44 205.98 108.51 208.47 99.38
  A 1.40 1.40 0.0 0 1 209.80 98.34
  L 218.00 98.21
  L 243.27 98.37
  A 0.41 0.40 -84.1 0 1 243.66 98.86
  C 234.05 143.57 184.68 171.81 150.53 128.81
  Q 143.06 116.64 139.46 103.25
  Q 137.49 91.57 137.96 79.75
  Q 139.18 67.15 143.46 55.25
  Q 147.02 47.05 151.97 39.61
  C 183.73 -3.96 235.48 16.76 244.46 64.75
  Z"
/>
<path d="
  M 139.48 23.18
  C 137.60 30.41 138.84 40.55 138.46 48.25
  Q 110.96 52.06 96.50 55.00
  Q 95.17 55.27 95.88 56.54
  L 94.84 74.96
  A 0.77 0.77 0.0 0 0 95.65 75.77
  Q 107.13 75.04 118.94 73.28
  L 128.07 72.61
  A 0.57 0.56 -15.5 0 1 128.62 72.92
  L 128.79 73.25
  L 128.46 95.75
  L 97.44 99.06
  L 94.21 99.53
  A 0.69 0.67 -3.7 0 0 93.63 100.17
  L 92.67 124.51
  A 0.85 0.84 88.5 0 0 93.58 125.38
  L 131.25 122.35
  A 0.45 0.45 0.0 0 1 131.74 122.80
  L 131.75 150.46
  Q 98.62 151.32 65.69 156.51
  Q 64.55 156.58 63.92 156.17
  A 0.90 0.89 -70.9 0 1 63.53 155.36
  L 70.04 73.59
  L 71.21 60.00
  L 72.93 37.28
  Q 72.93 36.49 73.28 35.79
  A 1.20 1.14 3.7 0 1 73.99 35.20
  Q 106.09 25.68 139.48 23.18
  Z"
/>
<path d="
  M 437.25 49.04
  Q 458.72 81.86 449.79 120.50
  C 442.09 147.99 417.24 165.62 390.53 146.18
  C 367.14 129.16 359.12 94.86 363.53 67.49
  Q 364.82 59.52 370.21 48.00
  C 381.24 28.69 403.04 21.00 422.27 34.49
  Q 430.60 40.34 437.25 49.04
  Z
  M 414.4583 124.2069
  A 35.09 16.92 81.2 0 0 425.8108 86.9415
  A 35.09 16.92 81.2 0 0 403.7217 54.8531
  A 35.09 16.92 81.2 0 0 392.3692 92.1185
  A 35.09 16.92 81.2 0 0 414.4583 124.2069
  Z"
/>
<path d="
  M 67.71 35.25
  Q 67.62 46.42 66.21 57.50
  L 52.62 61.35
  Q 47.50 107.47 43.06 153.51
  Q 43.02 153.93 42.71 154.25
  Q 33.42 155.54 24.46 158.42
  Q 23.43 158.55 22.90 158.37
  A 1.10 1.10 0.0 0 1 22.15 157.25
  L 28.21 80.00
  L 29.05 68.87
  A 0.38 0.37 86.1 0 0 28.60 68.47
  C 26.28 69.01 19.07 71.54 17.29 71.00
  L 19.18 51.00
  A 0.45 0.44 84.0 0 1 19.48 50.62
  L 67.71 35.25
  Z"
/>
<path d="
  M 480.50 62.04
  L 487.43 78.52
  Q 487.64 79.01 487.78 78.49
  Q 491.29 65.34 494.36 52.23
  Q 494.50 51.63 494.50 51.04
  Q 503.18 53.09 511.24 56.08
  A 0.85 0.85 0.0 0 1 511.77 57.06
  Q 506.03 82.74 500.43 107.39
  Q 499.50 111.49 499.56 115.70
  Q 499.86 135.10 499.73 154.51
  C 499.72 156.01 501.10 158.32 498.50 158.96
  C 497.96 158.66 497.90 158.47 497.21 158.40
  Q 489.23 157.55 481.25 156.71
  Q 480.23 132.71 479.75 108.69
  C 479.75 108.31 479.63 108.29 479.46 108.00
  Q 466.20 74.97 452.38 42.16
  Q 451.20 39.36 449.48 36.22
  L 472.00 43.32
  A 1.10 1.10 0.0 0 1 472.67 43.92
  L 480.50 62.04
  Z"
/>
</g>
<g fill="#eb6212">
<path d="
  M 139.48 23.18
  L 151.97 39.61
  Q 147.02 47.05 143.46 55.25
  Q 140.29 52.23 138.46 48.25
  C 138.84 40.55 137.60 30.41 139.48 23.18
  Z"
/>
<path d="
  M 72.93 37.28
  L 71.21 60.00
  L 66.21 57.50
  Q 67.62 46.42 67.71 35.25
  L 68.06 35.14
  A 0.99 0.98 49.0 0 1 68.82 35.20
  L 72.93 37.28
  Z"
/>
<path d="
  M 265.04 41.00
  L 293.00 42.78
  A 0.58 0.57 -87.4 0 1 293.53 43.37
  L 293.47 46.45
  L 281.29 103.25
  L 265.93 103.55
  A 0.49 0.49 0.0 0 1 265.43 103.06
  L 265.04 41.00
  Z"
/>
<path d="
  M 356.29 46.25
  L 326.50 95.79
  L 324.68 44.75
  A 0.24 0.24 0.0 0 1 324.93 44.50
  L 356.29 46.25
  Z"
/>
<path d="
  M 370.21 48.00
  Q 364.82 59.52 363.53 67.49
  C 359.12 94.86 367.14 129.16 390.53 146.18
  C 417.24 165.62 442.09 147.99 449.79 120.50
  L 479.46 108.00
  C 479.63 108.29 479.75 108.31 479.75 108.69
  Q 480.23 132.71 481.25 156.71
  Q 450.81 163.59 420.45 170.88
  Q 412.97 172.68 405.42 174.16
  A 1.01 0.98 -82.1 0 0 404.70 174.72
  Q 404.49 175.18 404.50 175.71
  L 401.25 175.37
  A 0.56 0.55 2.9 0 1 400.75 174.82
  L 400.75 159.80
  A 0.53 0.53 0.0 0 0 400.08 159.29
  Q 377.76 165.53 355.49 171.60
  Q 351.22 172.76 348.43 172.20
  C 338.66 170.22 330.84 155.72 327.71 147.00
  C 327.81 146.37 328.02 145.97 328.00 145.32
  Q 327.48 127.22 326.69 109.12
  C 326.65 108.39 326.86 108.10 327.12 107.47
  L 370.21 48.00
  Z"
/>
<path d="
  M 95.88 56.54
  Q 107.93 64.12 118.94 73.28
  Q 107.13 75.04 95.65 75.77
  A 0.77 0.77 0.0 0 1 94.84 74.96
  L 95.88 56.54
  Z"
/>
<path d="
  M 52.62 61.35
  L 70.04 73.59
  L 63.53 155.36
  A 0.90 0.89 -70.9 0 0 63.92 156.17
  Q 64.55 156.58 65.69 156.51
  L 130.25 170.79
  L 130.42 174.93
  A 0.54 0.53 86.0 0 1 129.94 175.49
  L 125.75 175.96
  Q 125.81 175.40 125.60 174.90
  A 1.02 1.01 85.1 0 0 124.91 174.31
  Q 84.27 164.26 43.52 154.66
  Q 43.04 154.55 42.71 154.25
  Q 43.02 153.93 43.06 153.51
  Q 47.50 107.47 52.62 61.35
  Z"
/>
<path d="
  M 244.46 64.75
  L 251.65 119.82
  A 0.57 0.56 -6.8 0 1 251.14 120.46
  L 247.99 120.76
  A 0.42 0.42 0.0 0 0 247.63 121.32
  C 250.58 129.82 252.50 135.13 250.74 143.09
  Q 247.86 156.17 237.26 165.49
  C 232.67 169.53 225.61 172.84 219.79 169.75
  Q 202.61 160.62 185.08 152.08
  Q 184.48 151.79 184.53 152.46
  Q 185.22 161.75 185.89 171.24
  C 185.95 172.14 185.47 172.59 184.59 172.11
  Q 158.46 160.55 131.75 150.46
  L 131.74 122.80
  A 0.45 0.45 0.0 0 0 131.25 122.35
  L 93.58 125.38
  A 0.85 0.84 88.5 0 1 92.67 124.51
  L 93.63 100.17
  A 0.69 0.67 -3.7 0 1 94.21 99.53
  L 97.44 99.06
  Q 97.96 100.46 99.34 101.00
  Q 101.48 101.85 101.55 101.89
  Q 125.87 115.69 150.53 128.81
  C 184.68 171.81 234.05 143.57 243.66 98.86
  A 0.41 0.40 -84.1 0 0 243.27 98.37
  L 218.00 98.21
  L 209.84 65.03
  L 244.46 64.75
  Z"
/>
<path d="
  M 137.96 79.75
  Q 137.49 91.57 139.46 103.25
  Q 133.65 99.97 128.46 95.75
  L 128.79 73.25
  L 129.16 73.15
  A 0.90 0.89 -33.4 0 1 129.97 73.31
  L 137.96 79.75
  Z"
/>
<path d="
  M 327.29 147.00
  L 307.49 170.08
  A 1.10 1.08 -70.2 0 1 306.68 170.47
  Q 295.97 170.81 285.08 169.35
  L 298.26 146.30
  C 300.97 146.25 327.37 145.86 327.29 147.00
  Z"
/>
</g>
<path fill="#ffffff" d="
  M 368.65 30.57
  C 388.14 9.65 417.58 12.24 437.18 31.15
  A 0.44 0.43 40.1 0 0 437.83 31.10
  Q 444.50 22.25 455.39 25.61
  Q 464.13 28.31 472.80 31.07
  C 479.48 33.20 483.13 35.96 484.91 42.52
  A 0.49 0.49 0.0 0 0 485.71 42.76
  Q 488.54 40.25 492.08 39.32
  C 497.22 37.97 508.00 42.42 513.13 44.17
  C 521.26 46.95 524.96 51.79 523.07 60.34
  Q 518.03 83.10 512.83 105.84
  Q 511.80 110.33 511.78 114.91
  Q 511.71 135.45 511.77 156.00
  C 511.79 163.68 508.70 169.05 501.16 170.62
  Q 461.81 178.82 422.50 187.04
  Q 415.83 188.43 410.87 188.26
  C 404.51 188.05 394.79 187.64 390.91 181.88
  C 389.61 179.96 389.51 177.58 388.70 175.24
  A 0.54 0.54 0.0 0 0 388.05 174.90
  Q 372.94 179.02 357.88 183.18
  C 343.45 187.18 333.45 179.64 325.46 168.41
  A 0.41 0.41 0.0 0 0 324.83 168.37
  C 318.99 174.69 315.19 182.41 305.26 182.44
  Q 295.77 182.48 286.35 181.68
  C 273.06 180.57 273.20 172.21 272.52 160.44
  Q 271.25 138.24 270.03 116.25
  A 0.66 0.65 -89.5 0 0 269.44 115.64
  L 263.52 115.16
  A 0.32 0.31 87.9 0 0 263.18 115.53
  Q 264.07 120.95 261.95 126.05
  A 1.61 1.59 -41.3 0 0 261.88 127.05
  C 266.98 146.34 256.86 166.34 241.73 177.23
  C 233.48 183.17 222.67 184.91 212.66 179.57
  Q 205.65 175.82 198.60 172.00
  A 0.65 0.65 0.0 0 0 197.65 172.49
  Q 196.25 183.14 185.26 184.28
  Q 178.13 185.02 150.99 186.41
  C 146.68 186.63 142.95 185.36 138.74 184.57
  A 1.39 1.36 35.2 0 0 137.82 184.72
  C 131.65 188.20 123.99 188.03 117.13 188.70
  Q 113.74 189.04 110.42 188.35
  Q 65.23 178.94 20.01 169.63
  C 13.76 168.35 9.77 162.41 10.26 156.25
  Q 13.02 121.13 15.78 86.00
  A 0.91 0.91 0.0 0 0 15.42 85.20
  C 12.55 83.05 9.02 80.77 7.24 77.87
  C 3.62 71.97 6.10 59.98 6.82 53.23
  C 7.63 45.54 10.08 41.22 17.51 38.81
  Q 42.22 30.77 66.97 22.91
  Q 68.28 22.50 70.80 23.55
  A 1.43 1.42 -41.7 0 0 71.74 23.60
  Q 104.05 14.41 137.49 10.98
  C 143.74 10.34 149.25 16.06 152.21 20.82
  A 0.41 0.41 0.0 0 0 152.84 20.90
  C 186.77 -11.83 237.57 5.82 251.96 47.67
  Q 252.96 50.56 252.97 47.51
  Q 253.04 33.80 253.36 20.61
  C 253.67 7.75 257.60 2.64 270.62 3.31
  Q 313.17 5.50 355.75 8.01
  C 368.88 8.79 368.81 20.72 368.34 30.44
  Q 368.32 30.93 368.65 30.57
  Z
  M 265.04 41.00
  L 265.43 103.06
  A 0.49 0.49 0.0 0 0 265.93 103.55
  L 281.29 103.25
  L 285.08 169.35
  Q 295.97 170.81 306.68 170.47
  A 1.10 1.08 -70.2 0 0 307.49 170.08
  L 327.29 147.00
  L 327.71 147.00
  C 330.84 155.72 338.66 170.22 348.43 172.20
  Q 351.22 172.76 355.49 171.60
  Q 377.76 165.53 400.08 159.29
  A 0.53 0.53 0.0 0 1 400.75 159.80
  L 400.75 174.82
  A 0.56 0.55 2.9 0 0 401.25 175.37
  L 404.50 175.71
  C 409.35 176.11 413.57 176.83 418.44 175.82
  Q 456.48 167.95 494.50 160.01
  Q 497.27 159.43 498.50 158.96
  C 501.10 158.32 499.72 156.01 499.73 154.51
  Q 499.86 135.10 499.56 115.70
  Q 499.50 111.49 500.43 107.39
  Q 506.03 82.74 511.77 57.06
  A 0.85 0.85 0.0 0 0 511.24 56.08
  Q 503.18 53.09 494.50 51.04
  L 480.50 62.04
  L 472.67 43.92
  A 1.10 1.10 0.0 0 0 472.00 43.32
  L 449.48 36.22
  L 437.25 49.04
  Q 430.60 40.34 422.27 34.49
  C 403.04 21.00 381.24 28.69 370.21 48.00
  L 327.12 107.47
  Q 326.09 101.73 326.50 95.79
  L 356.29 46.25
  Q 356.75 33.21 356.10 20.57
  A 0.69 0.67 0.5 0 0 355.46 19.93
  L 266.99 15.09
  A 1.59 1.59 0.0 0 0 265.31 16.66
  L 265.04 41.00
  Z
  M 151.97 39.61
  L 139.48 23.18
  Q 106.09 25.68 73.99 35.20
  A 1.20 1.14 3.7 0 0 73.28 35.79
  Q 72.93 36.49 72.93 37.28
  L 68.82 35.20
  A 0.99 0.98 49.0 0 0 68.06 35.14
  L 67.71 35.25
  L 19.48 50.62
  A 0.45 0.44 84.0 0 0 19.18 51.00
  L 17.29 71.00
  L 17.43 71.34
  A 1.32 1.29 9.1 0 0 17.86 71.92
  L 28.21 80.00
  L 22.15 157.25
  A 1.10 1.10 0.0 0 0 22.90 158.37
  Q 23.43 158.55 24.46 158.42
  Q 67.46 167.51 110.42 176.32
  C 115.55 177.37 120.59 176.34 125.75 175.96
  L 129.94 175.49
  A 0.54 0.53 86.0 0 0 130.42 174.93
  L 130.25 170.79
  C 137.08 172.08 144.66 174.64 151.58 174.35
  Q 168.01 173.64 184.59 172.11
  C 185.47 172.59 185.95 172.14 185.89 171.24
  Q 185.22 161.75 184.53 152.46
  Q 184.48 151.79 185.08 152.08
  Q 202.61 160.62 219.79 169.75
  C 225.61 172.84 232.67 169.53 237.26 165.49
  Q 247.86 156.17 250.74 143.09
  C 252.50 135.13 250.58 129.82 247.63 121.32
  A 0.42 0.42 0.0 0 1 247.99 120.76
  L 251.14 120.46
  A 0.57 0.56 -6.8 0 0 251.65 119.82
  L 244.46 64.75
  C 235.48 16.76 183.73 -3.96 151.97 39.61
  Z"
/>
<g fill="#cb560d">
<path d="
  M 449.48 36.22
  Q 451.20 39.36 452.38 42.16
  Q 466.20 74.97 479.46 108.00
  L 449.79 120.50
  Q 458.72 81.86 437.25 49.04
  L 449.48 36.22
  Z"
/>
<path d="
  M 209.84 65.03
  L 218.00 98.21
  L 209.80 98.34
  A 1.40 1.40 0.0 0 0 208.47 99.38
  C 205.98 108.51 197.72 121.44 186.60 117.88
  C 178.91 115.42 174.39 105.33 172.72 97.81
  C 169.51 83.28 170.74 59.41 183.12 49.43
  C 195.80 39.20 206.38 52.59 209.07 64.19
  A 1.17 1.14 13.2 0 0 209.50 64.86
  Q 209.70 65.01 209.84 65.03
  Z"
/>
<path d="
  M 293.47 46.45
  Q 296.28 95.04 298.57 143.50
  Q 298.64 145.14 298.26 146.30
  L 285.08 169.35
  L 281.29 103.25
  L 293.47 46.45
  Z"
/>
<path d="
  M 138.46 48.25
  Q 140.29 52.23 143.46 55.25
  Q 139.18 67.15 137.96 79.75
  L 129.97 73.31
  A 0.90 0.89 -33.4 0 0 129.16 73.15
  L 128.79 73.25
  L 128.62 72.92
  A 0.57 0.56 -15.5 0 0 128.07 72.61
  L 118.94 73.28
  Q 107.93 64.12 95.88 56.54
  Q 95.17 55.27 96.50 55.00
  Q 110.96 52.06 138.46 48.25
  Z"
/>
<path d="
  M 494.50 51.04
  Q 494.50 51.63 494.36 52.23
  Q 491.29 65.34 487.78 78.49
  Q 487.64 79.01 487.43 78.52
  L 480.50 62.04
  L 494.50 51.04
  Z"
/>
<ellipse cx="0.00" cy="0.00" transform="translate(409.09,89.53) rotate(81.2)" rx="35.09" ry="16.92"/>
<path d="
  M 66.21 57.50
  L 71.21 60.00
  L 70.04 73.59
  L 52.62 61.35
  L 66.21 57.50
  Z"
/>
<path d="
  M 28.21 80.00
  L 17.86 71.92
  A 1.32 1.29 9.1 0 1 17.43 71.34
  L 17.29 71.00
  C 19.07 71.54 26.28 69.01 28.60 68.47
  A 0.38 0.37 86.1 0 1 29.05 68.87
  L 28.21 80.00
  Z"
/>
<path d="
  M 128.46 95.75
  Q 133.65 99.97 139.46 103.25
  Q 143.06 116.64 150.53 128.81
  Q 125.87 115.69 101.55 101.89
  Q 101.48 101.85 99.34 101.00
  Q 97.96 100.46 97.44 99.06
  L 128.46 95.75
  Z"
/>
<path d="
  M 131.75 150.46
  Q 158.46 160.55 184.59 172.11
  Q 168.01 173.64 151.58 174.35
  C 144.66 174.64 137.08 172.08 130.25 170.79
  L 65.69 156.51
  Q 98.62 151.32 131.75 150.46
  Z"
/>
<path d="
  M 42.71 154.25
  Q 43.04 154.55 43.52 154.66
  Q 84.27 164.26 124.91 174.31
  A 1.02 1.01 85.1 0 1 125.60 174.90
  Q 125.81 175.40 125.75 175.96
  C 120.59 176.34 115.55 177.37 110.42 176.32
  Q 67.46 167.51 24.46 158.42
  Q 33.42 155.54 42.71 154.25
  Z"
/>
<path d="
  M 481.25 156.71
  Q 489.23 157.55 497.21 158.40
  C 497.90 158.47 497.96 158.66 498.50 158.96
  Q 497.27 159.43 494.50 160.01
  Q 456.48 167.95 418.44 175.82
  C 413.57 176.83 409.35 176.11 404.50 175.71
  Q 404.49 175.18 404.70 174.72
  A 1.01 0.98 -82.1 0 1 405.42 174.16
  Q 412.97 172.68 420.45 170.88
  Q 450.81 163.59 481.25 156.71
  Z"
/>
</g>
</svg>
