<?xml version="1.0" encoding="UTF-8" standalone="no"?>
<!DOCTYPE svg PUBLIC "-//W3C//DTD SVG 1.1//EN" "http://www.w3.org/Graphics/SVG/1.1/DTD/svg11.dtd">
<svg xmlns="http://www.w3.org/2000/svg" version="1.1" viewBox="0 0 800 277">
<g fill="#ea0a2a">
<path d="
  M 287.57 1.59
  Q 287.34 16.70 287.66 31.25
  C 287.81 38.10 297.28 38.31 297.25 29.74
  Q 297.21 15.64 297.31 1.53
  A 0.54 0.54 0.0 0 1 297.84 0.99
  L 304.94 0.86
  A 0.49 0.49 0.0 0 1 305.44 1.35
  Q 305.54 15.24 305.51 29.08
  Q 305.49 34.25 304.16 37.06
  C 299.14 47.59 283.71 46.79 280.08 35.50
  Q 279.29 33.06 279.27 27.31
  Q 279.22 14.43 279.27 1.63
  A 0.75 0.75 0.0 0 1 280.03 0.88
  L 286.89 0.91
  A 0.68 0.67 0.4 0 1 287.57 1.59
  Z"
/>
<path d="
  M 317.95 0.78
  Q 318.60 0.59 319.29 0.84
  A 0.69 0.68 -80.5 0 1 319.74 1.49
  L 319.76 33.98
  A 1.53 1.53 0.0 0 0 321.29 35.51
  L 336.95 35.50
  A 0.47 0.47 0.0 0 1 337.39 36.12
  L 335.08 43.22
  A 0.77 0.76 8.8 0 1 334.35 43.75
  L 312.37 43.75
  A 0.63 0.62 90.0 0 1 311.75 43.12
  L 311.75 1.48
  A 0.59 0.58 -0.5 0 1 312.33 0.90
  L 317.19 0.89
  Q 317.58 0.89 317.95 0.78
  Z"
/>
<path d="
  M 339.73 8.82
  L 331.36 8.72
  A 0.53 0.53 0.0 0 1 330.86 8.33
  L 328.91 1.48
  A 0.53 0.53 0.0 0 1 329.42 0.80
  L 359.00 0.93
  A 0.53 0.53 0.0 0 1 359.51 1.61
  L 357.52 8.37
  A 0.53 0.53 0.0 0 1 357.01 8.75
  L 348.78 8.75
  A 0.53 0.53 0.0 0 0 348.25 9.28
  L 348.25 43.22
  A 0.53 0.53 0.0 0 1 347.72 43.75
  L 340.78 43.75
  A 0.53 0.53 0.0 0 1 340.25 43.22
  L 340.25 9.35
  A 0.53 0.53 0.0 0 0 339.73 8.82
  Z"
/>
<path d="
  M 372.76 30.10
  A 1.04 1.04 0.0 0 0 370.75 30.45
  L 370.75 43.07
  A 0.57 0.57 0.0 0 1 370.18 43.64
  L 363.49 43.66
  A 0.68 0.68 0.0 0 1 362.81 42.98
  L 362.48 1.65
  A 0.70 0.70 0.0 0 1 363.19 0.94
  C 369.71 1.05 379.39 -0.69 384.38 4.54
  Q 390.82 11.29 386.98 19.87
  C 385.66 22.81 382.90 25.19 380.61 27.67
  A 0.89 0.89 0.0 0 0 380.44 28.59
  L 386.07 43.08
  A 0.49 0.49 0.0 0 1 385.61 43.75
  L 378.37 43.75
  A 0.95 0.95 0.0 0 1 377.48 43.13
  L 372.76 30.10
  Z
  M 372.59 23.37
  C 378.26 19.91 386.61 9.58 372.46 8.75
  A 1.50 1.50 0.0 0 0 370.87 10.16
  Q 370.46 16.41 371.07 22.61
  A 1.01 1.00 71.4 0 0 372.59 23.37
  Z"
/>
<path d="
  M 410.46 40.79
  L 399.01 40.73
  A 0.63 0.63 0.0 0 0 398.41 41.16
  L 397.68 43.33
  A 0.63 0.63 0.0 0 1 397.09 43.76
  L 389.88 43.75
  A 0.63 0.63 0.0 0 1 389.29 42.93
  L 402.69 1.36
  A 0.63 0.63 0.0 0 1 403.32 0.93
  L 406.22 1.02
  A 0.63 0.63 0.0 0 1 406.80 1.46
  L 420.15 42.93
  A 0.63 0.63 0.0 0 1 419.56 43.75
  L 412.24 43.75
  A 0.63 0.63 0.0 0 1 411.63 43.29
  L 411.07 41.25
  A 0.63 0.63 0.0 0 0 410.46 40.79
  Z
  M 401.04 32.00
  A 0.37 0.37 0.0 0 0 401.39 32.48
  L 407.99 32.52
  A 0.37 0.37 0.0 0 0 408.34 32.04
  L 405.10 21.08
  A 0.37 0.37 0.0 0 0 404.39 21.07
  L 401.04 32.00
  Z"
/>
<path d="
  M 432.41 29.10
  L 431.70 42.32
  A 1.52 1.52 0.0 0 1 430.18 43.76
  L 423.92 43.75
  A 0.53 0.52 -88.0 0 1 423.40 43.18
  L 426.43 1.56
  A 0.61 0.59 86.9 0 1 426.90 1.02
  Q 428.25 0.73 429.69 1.12
  A 0.95 0.95 0.0 0 1 430.34 1.69
  L 440.11 26.45
  A 0.21 0.21 0.0 0 0 440.50 26.45
  L 450.26 1.59
  A 0.93 0.92 -79.3 0 1 451.12 1.00
  L 453.36 1.00
  A 0.69 0.68 -2.2 0 1 454.05 1.63
  L 457.24 42.84
  A 0.84 0.83 87.8 0 1 456.41 43.74
  L 449.64 43.75
  A 0.65 0.64 -1.4 0 1 448.99 43.14
  L 448.20 28.89
  A 0.30 0.30 0.0 0 0 447.62 28.79
  L 441.98 42.99
  A 1.01 1.00 -79.2 0 1 441.05 43.63
  L 439.55 43.64
  A 0.99 0.99 0.0 0 1 438.63 43.02
  L 433.03 29.00
  Q 432.49 27.64 432.41 29.10
  Z"
/>
<path d="
  M 460.32 43.15
  C 464.57 29.28 468.94 15.31 473.69 1.63
  A 0.93 0.91 -86.4 0 1 474.36 1.03
  Q 475.83 0.72 477.22 1.07
  A 0.94 0.94 0.0 0 1 477.88 1.69
  L 491.25 43.12
  A 0.48 0.48 0.0 0 1 490.79 43.75
  L 483.27 43.71
  A 0.63 0.62 2.2 0 1 482.65 43.05
  C 482.73 41.57 482.16 40.81 480.63 40.78
  Q 475.35 40.68 470.09 40.81
  A 0.67 0.66 -83.0 0 0 469.46 41.31
  L 468.99 43.08
  A 0.91 0.91 0.0 0 1 468.11 43.76
  L 460.75 43.73
  A 0.45 0.45 0.0 0 1 460.32 43.15
  Z
  M 472.34 31.84
  A 0.55 0.55 0.0 0 0 472.87 32.54
  L 478.76 32.48
  A 0.55 0.55 0.0 0 0 479.28 31.77
  L 476.23 21.37
  A 0.55 0.55 0.0 0 0 475.17 21.38
  L 472.34 31.84
  Z"
/>
<path d="
  M 511.54 19.87
  L 511.48 1.19
  A 0.32 0.32 0.0 0 1 511.80 0.87
  L 519.43 0.78
  A 0.32 0.32 0.0 0 1 519.75 1.10
  L 519.75 43.44
  A 0.32 0.32 0.0 0 1 519.42 43.76
  L 516.41 43.71
  A 0.32 0.32 0.0 0 1 516.15 43.56
  L 503.06 22.34
  A 0.32 0.32 0.0 0 0 502.46 22.51
  L 502.52 43.46
  A 0.32 0.32 0.0 0 1 502.20 43.78
  L 494.57 43.70
  A 0.32 0.32 0.0 0 1 494.25 43.38
  L 494.25 1.15
  A 0.32 0.32 0.0 0 1 494.58 0.83
  L 497.92 0.97
  A 0.32 0.32 0.0 0 1 498.17 1.11
  L 510.95 20.05
  A 0.32 0.32 0.0 0 0 511.54 19.87
  Z"
/>
<path d="
  M 0.00 80.19
  L 0.00 79.19
  L 66.71 79.03
  A 0.54 0.54 0.0 0 0 67.25 78.49
  L 67.25 60.54
  A 2.43 2.41 27.1 0 0 66.78 59.11
  L 59.57 49.44
  A 0.28 0.27 71.8 0 1 59.79 49.00
  C 65.36 49.00 121.73 48.70 122.09 49.17
  A 0.74 0.56 -45.8 0 1 121.99 49.99
  L 114.60 58.99
  A 1.58 1.55 64.9 0 0 114.25 59.98
  L 114.25 78.38
  A 0.63 0.63 0.0 0 0 114.88 79.01
  L 186.35 78.99
  A 0.36 0.36 0.0 0 1 186.59 79.62
  C 180.83 84.78 176.24 87.67 174.40 95.73
  C 173.22 100.94 172.14 105.97 171.65 111.48
  C 167.09 162.48 155.89 215.65 125.56 258.08
  C 122.29 262.65 113.22 275.25 107.30 275.25
  Q 55.56 275.26 3.98 275.25
  A 0.30 0.30 0.0 0 1 3.83 274.69
  C 59.94 243.65 104.81 192.49 113.55 127.15
  A 0.57 0.57 0.0 0 0 112.98 126.50
  L 64.00 126.50
  A 0.50 0.50 0.0 0 0 63.50 127.00
  L 63.50 152.21
  A 1.30 1.29 26.3 0 0 63.77 153.00
  L 66.97 157.09
  Q 67.49 157.75 66.65 157.75
  L 4.72 157.75
  A 0.40 0.40 0.0 0 1 4.40 157.12
  L 8.36 151.59
  A 3.37 3.36 -27.3 0 0 8.99 149.63
  L 9.00 92.83
  A 1.50 1.45 28.0 0 0 8.72 91.97
  L 0.00 80.19
  Z"
/>
<path d="
  M 391.66 68.18
  Q 449.31 67.82 507.02 68.06
  A 0.30 0.29 21.2 0 1 507.24 68.55
  L 500.34 76.38
  A 1.39 1.36 -24.9 0 0 500.00 77.28
  L 500.00 113.00
  A 0.50 0.50 0.0 0 1 499.50 113.50
  L 388.85 113.50
  Q 388.44 113.50 388.08 113.69
  L 384.75 115.45
  A 0.51 0.51 0.0 0 1 384.00 115.00
  L 384.00 66.23
  A 0.50 0.50 0.0 0 1 384.82 65.84
  C 386.87 67.56 388.82 68.19 391.66 68.18
  Z"
/>
<path d="
  M 341.75 131.75
  L 368.62 131.75
  A 0.63 0.63 0.0 0 1 369.25 132.38
  L 369.25 200.23
  Q 369.25 200.90 368.78 200.43
  C 359.77 191.37 347.04 177.27 333.05 177.62
  A 0.52 0.52 0.0 0 0 332.55 178.14
  Q 332.46 204.88 332.50 231.52
  C 332.51 235.50 334.76 238.48 337.09 241.38
  A 0.47 0.47 0.0 0 1 336.72 242.14
  L 278.30 241.96
  A 0.36 0.35 -68.9 0 1 278.04 241.37
  C 280.24 238.85 283.00 235.91 283.00 232.35
  Q 283.01 161.58 282.99 90.81
  A 1.25 1.23 22.1 0 0 282.60 89.91
  L 273.36 81.20
  A 0.26 0.26 0.0 0 1 273.53 80.75
  L 340.75 80.75
  A 0.50 0.50 0.0 0 1 341.25 81.25
  L 341.25 131.25
  A 0.50 0.50 0.0 0 0 341.75 131.75
  Z"
/>
<path d="
  M 660.51 123.74
  C 671.51 112.47 682.08 100.70 693.46 90.32
  A 0.74 0.73 41.1 0 1 694.37 90.26
  C 713.15 103.08 731.03 120.30 739.68 141.80
  Q 740.10 142.83 740.17 143.90
  A 1.18 1.17 -25.6 0 1 739.85 144.80
  L 713.57 172.11
  A 0.29 0.29 0.0 0 1 713.10 172.05
  C 702.58 152.04 679.71 135.97 660.70 125.10
  A 0.87 0.87 0.0 0 1 660.51 123.74
  Z"
/>
<path d="
  M 582.63 159.51
  A 0.90 0.89 -86.3 0 0 581.75 158.50
  Q 550.98 158.50 520.26 158.50
  C 517.29 158.50 515.31 159.72 512.91 161.17
  A 0.44 0.43 74.6 0 1 512.25 160.79
  L 512.25 96.30
  A 0.36 0.36 0.0 0 1 512.76 95.97
  C 515.95 97.41 519.10 99.49 522.69 99.49
  Q 591.06 99.51 659.38 99.50
  A 0.27 0.27 0.0 0 1 659.58 99.95
  C 650.43 110.41 646.85 122.81 641.57 135.80
  Q 624.58 177.62 588.24 204.18
  A 0.22 0.22 0.0 0 0 588.21 204.50
  Q 594.20 211.40 600.18 218.30
  C 602.29 220.73 604.33 222.17 607.22 223.03
  A 0.91 0.91 0.0 0 1 607.60 224.55
  L 573.55 257.60
  A 0.44 0.44 0.0 0 1 572.88 257.53
  Q 569.52 252.54 566.16 248.83
  Q 547.41 228.09 528.76 207.24
  Q 527.34 205.65 525.81 204.16
  C 523.61 201.99 520.99 201.74 518.20 200.66
  A 0.32 0.32 0.0 0 1 518.09 200.12
  L 553.29 165.99
  A 1.18 1.18 0.0 0 1 555.00 166.06
  L 569.17 182.28
  A 0.38 0.37 -42.5 0 0 569.72 182.30
  C 575.70 176.16 581.53 168.15 582.63 159.51
  Z"
/>
<path d="
  M 800.00 139.81
  L 800.00 141.06
  C 798.81 148.11 797.99 155.73 796.17 162.25
  C 781.17 215.98 737.74 255.18 687.04 275.85
  A 1.31 1.30 -18.4 0 1 685.29 274.98
  L 662.72 191.55
  A 0.51 0.51 0.0 0 1 663.33 190.93
  C 722.70 204.94 762.89 154.10 779.30 104.56
  A 0.41 0.41 0.0 0 1 780.04 104.49
  L 800.00 139.81
  Z"
/>
<path d="
  M 389.36 235.99
  C 410.28 221.82 426.34 201.33 438.92 179.66
  A 0.27 0.27 0.0 0 0 438.68 179.26
  Q 414.63 179.25 390.58 179.25
  C 388.22 179.25 386.64 180.22 384.68 181.31
  A 0.46 0.45 75.2 0 1 384.00 180.91
  L 384.00 123.54
  A 0.43 0.42 15.9 0 1 384.65 123.18
  Q 386.91 124.55 390.06 124.55
  Q 447.75 124.61 505.48 124.40
  A 0.37 0.37 0.0 0 1 505.79 124.96
  C 502.94 129.42 502.03 133.10 501.30 138.91
  C 495.45 185.65 473.10 234.62 419.26 238.54
  Q 404.17 239.64 389.44 236.38
  Q 388.94 236.28 389.36 235.99
  Z"
/>
<path d="
  M 249.80 170.58
  Q 257.09 166.92 262.81 161.16
  A 0.36 0.35 -33.8 0 1 263.39 161.27
  L 278.30 197.02
  A 0.82 0.81 55.8 0 1 278.14 197.89
  C 262.81 214.25 236.04 238.85 212.17 239.76
  A 0.91 0.90 88.5 0 1 211.23 238.86
  L 210.94 140.66
  A 1.92 1.91 -62.2 0 0 210.63 139.65
  L 206.88 134.03
  Q 206.53 133.50 207.16 133.50
  L 253.51 133.50
  Q 254.19 133.50 253.79 134.06
  L 249.55 139.94
  A 1.62 1.58 -27.7 0 0 249.25 140.87
  L 249.25 170.24
  A 0.38 0.38 0.0 0 0 249.80 170.58
  Z"
/>
<path d="
  M 174.97 204.07
  Q 175.05 189.50 174.98 174.89
  A 0.39 0.38 -90.0 0 1 175.36 174.50
  L 203.89 174.50
  A 0.51 0.51 0.0 0 1 204.40 175.01
  Q 204.59 189.05 204.48 202.96
  C 204.26 229.27 179.15 242.42 155.65 241.75
  A 0.20 0.20 0.0 0 1 155.54 241.39
  C 168.01 232.27 174.90 219.48 174.97 204.07
  Z"
/>
</g>
</svg>
