<?xml version="1.0" encoding="UTF-8" standalone="no"?>
<svg
   version="1.1"
   viewBox="0 0 546 147"
   id="svg16"
   sodipodi:docname="warcraft.svg"
   inkscape:version="1.1.2 (0a00cf5339, 2022-02-04)"
   width="546"
   height="147"
   xmlns:inkscape="http://www.inkscape.org/namespaces/inkscape"
   xmlns:sodipodi="http://sodipodi.sourceforge.net/DTD/sodipodi-0.dtd"
   xmlns="http://www.w3.org/2000/svg"
   xmlns:svg="http://www.w3.org/2000/svg">
  <defs
     id="defs20" />
  <sodipodi:namedview
     id="namedview18"
     pagecolor="#ffffff"
     bordercolor="#666666"
     borderopacity="1.0"
     inkscape:pageshadow="2"
     inkscape:pageopacity="0.0"
     inkscape:pagecheckerboard="0"
     showgrid="false"
     inkscape:zoom="2.7628667"
     inkscape:cx="83.970755"
     inkscape:cy="109.30676"
     inkscape:window-width="1920"
     inkscape:window-height="1011"
     inkscape:window-x="1920"
     inkscape:window-y="32"
     inkscape:window-maximized="1"
     inkscape:current-layer="svg16" />
  <path
     fill="none"
     stroke-width="0.264583"
     stroke="#ffffff"
     vector-effect="non-scaling-stroke"
     d="m 84.51842,73.885227 q 0.91,3.62 1.57,-0.05 5.46,-30.46 10.09,-60.63 0.67,-4.4000003 -0.99,-6.5700003 -0.99,-1.28 -1.95,-2.56 -1.21,-1.6 0.79,-1.6 h 35.72 q 2.22,0 0.75,1.66 -9.13,10.3500003 -11.54,24.1300003 -6.51,37.29 -12.48,74.670003 c -1.17,7.29 -1.23,12.25 2.18,18.19 a 1,0.99000001 56.3 0 0 1.47,0.29998 c 6.85,-5.26 7.48,-10.66 9.64,-20.46 q 8.18,-37.080003 10.07,-48.250003 1.17,-6.92 -4.44,-10.65 a 1,1 0 0 1 0.06,-1.7 l 34.08,-19.49 q 1.93,-1.1 1.47,1.08 -2.19,10.4 0.48,21.02 3.76,14.97 8.54,29.62 a 1,0.99000001 78 0 0 1.04,0.68 l 10.61,-1.03 a 1,1 0 0 1 1.1,0.99 v 6.28 a 1.01,0.99000001 82.5 0 1 -0.73,0.97 l -8.25001,2.27 a 0.99000001,0.99000001 0 0 0 -0.69999,1.21 q 2.28,8.94 4.91,17.760003 2.5,8.4 4.89,13.7 0.75,1.67 1.75,0.13999 2.9,-4.47 3.06,-9.53 0.25001,-8.210003 0.02,-53.820003 a 1.01,0.99000001 13.7 0 0 -0.55005,-0.88997 l -12.13,-6.14 a 1,1 0 0 1 -0.10998,-1.72 q 18.1,-12.3 36.92,-23.46 a 1,1.01 52.6 0 1 1.22999,0.15999 l 36.41997,37.5 a 1,1.01 46.4 0 1 -0.0401,1.43 l -20.59998,19.35 a 1,1.01 36.5 0 0 0.24,1.63 l 14.06,6.99 a 1,1 0 0 1 0.54999,0.94 q -0.26003,6.34 -0.21996,12.650003 c 0.0601,8.16 -0.42999,12.27 4.26999,17.6 q 0.65001,0.74 2.84001,3.62 1.22,1.6 -0.80001,1.6 h -19.29998 a 0.94999999,1.01 66.6 0 1 -0.64,-0.22998 q -5.92,-4.92 -8.25,-11.96001 c -1.23,-3.73 -0.83,-8.16 -0.87,-12.279993 a 1.01,1.02 15.4 0 0 -0.47,-0.84 l -9.6,-6.03001 q -1.48,-0.92999 -1.53,0.82001 -0.44,14.789993 -0.09,18.259993 0.27999,2.89 2.74,6.05001 1.75,2.25 3.23,4.68999 0.92,1.52001 -0.86001,1.52001 h -58.47998 a 1,1 0 0 1 -0.95,-1.32 q 1.5,-4.40001 3.01,-8.74 0.99,-2.84 0.45,-9.38 -0.35002,-4.150013 -3.09,-12.390003 a 1.01,1.01 0 0 0 -1.41,-0.58001 q -10.75,5.49001 -16.94,11.890013 c -5.54,5.73 -2.77,11.24 1.74,16.00999 q 1.33,1.40001 2.6,2.85001 1.47,1.66 -0.75,1.66 h -66.3699 a 1,1 0 0 1 -0.98,-1.17 q 1.42,-8.3 0,-16.56 -2.03,-11.850003 -3.93,-23.260013 -0.61,-3.67999 -1.56,-0.08 -3.1,11.78 -5.27,23.760003 -0.92,5.12 -0.58,8.68 0.36,3.73 1.47,7.34 a 1,0.99000001 81.4 0 1 -0.95,1.29 H 26.418417 q -2.319999,0 -0.490001,-1.43 3.250001,-2.54 4.810001,-6.17 c 2.320003,-5.37 -0.12,-12.52 -1.489999,-18.640003 q -7.349999,-32.87 -15.370001,-65.58 c -1.44,-5.84 -3.9,-19.12 -7.839999,-23.3100003 q -1.9499983,-2.07 -3.7300013,-4.24 -1.339997,-1.63 0.78,-1.63 H 37.768418 a 1,1 0 0 1 0.980001,1.2 q -0.42,2.09 -0.910001,4.15 c -1.69,7.0300003 0.329991,16.0200003 1.899999,24.1600003 q 4.32,22.38 9.570002,43.84 0.78,3.21 1.55,0 L 66.80842,9.2652267 q 0.76,-3.18 1.56,-0.01 z m 125.19,-27.69 a 0.30999999,0.30999999 0 0 0 -0.52,0.22001 l -0.32999,21.41 a 0.30999999,0.30999999 0 0 0 0.51,0.22998 l 12.04,-10.51 a 0.30999999,0.30999999 0 0 0 0.01,-0.46 z m -65.7,10.57 -5.11,25.91 q -0.41,2.08 1.46,1.08 l 10.43,-5.61 a 0.99000001,1 67.9 0 0 0.49,-1.15 l -5.71,-20.29 q -0.91,-3.22 -1.56,0.06 z"
     id="path4-6"
     style="fill:#fdb92c;fill-opacity:1;stroke:none;stroke-width:0.0700743;stroke-miterlimit:4;stroke-dasharray:none;stroke-opacity:1" />
  <path
     id="path6-2"
     style="fill:#fdb92c;fill-opacity:1;stroke:none;stroke-width:1.00258;stroke-miterlimit:4;stroke-dasharray:none;stroke-opacity:1"
     d="m 279.71726,2.2769267 c -2.27691,0.003 -4.55704,0.85758 -6.07812,2.54883 -6.91334,7.6599903 -13.868,15.3092103 -20.86133,22.9492103 a 1.02,1.02 0 0 0 -0.25977,0.67969 l 0.0117,86.121103 a 1.01,0.98999999 24 0 0 0.26953,0.67968 l 26.94141,29.12891 a 0.98999999,1.01 47.9 0 0 1.39844,0.0606 l 23.25,-20.70899 a 0.98999999,1.02 24.8 0 1 0.66992,-0.25976 h 33.43164 c 1.12,0 1.32581,-0.43722 0.61914,-1.31055 -1.79334,-2.22 -3.37047,-4.61612 -4.73047,-7.18945 -0.81998,-1.55334 -1.2727,-3.30334 -1.35938,-5.25 -0.28089,-6.58 -0.28505,-13.154043 -0.0117,-19.720713 h 0.002 c 0.0533,-1.17333 0.56882,-1.44078 1.54883,-0.80078 l 9.51172,6.18945 a 1.01,0.98999999 17.2 0 1 0.44921,0.83008 c 0.06,10.640003 -0.48045,18.960703 7.76954,26.970713 a 0.99999998,0.98999999 66.8 0 0 0.68945,0.27929 h 43.45117 c 1.39999,0 1.57595,-0.4651 0.5293,-1.39843 -2.44002,-2.17334 -4.63342,-4.57141 -6.58008,-7.19141 -4.76999,-6.46 0.38001,-14.08859 5.75,-18.308593 4.23335,-3.32667 8.7066,-6.36157 13.41992,-9.10157 a 0.99999998,0.99999998 0 0 1 1.45117,0.56055 c 1.23999,3.83333 2.32022,7.72016 3.24024,11.66016 0.89333,3.826663 1.14643,7.219683 0.75976,10.179683 -0.56,4.28667 -1.84293,8.33086 -3.84961,12.13086 a 0.99999998,0.99999998 0 0 0 0.87891,1.46875 h 60.93945 c 1.35333,0 1.53435,-0.462 0.54102,-1.38867 -4.34593,-4.04 -6.5126,-9.07799 -6.5,-15.11133 0.005,-7.840003 0.012,-15.715573 0.0195,-23.628903 a 0.98999999,0.98999999 0 0 1 0.92969,-0.99024 c 3.98002,-0.29334 7.96257,-0.25729 11.94922,0.10938 1.06668,0.1 2.08721,0.44148 3.06054,1.02148 0.59334,0.36 1.18908,0.71503 1.78907,1.06836 1.00666,0.6 1.50976,0.31706 1.50976,-0.84961 l 0.0312,-18.48047 a 0.99999998,0.98999999 0.3 0 0 -1,-1 h -17.30078 a 0.99999998,1.01 0 0 1 -1,-1.00976 l 0.10156,-18.53906 a 0.99999998,1.01 72.4 0 1 0.42969,-0.82032 l 6.47852,-4.52929 a 0.99999998,0.99999998 0 0 1 1.25,0.0898 l 10.36132,9.50977 a 1.01,0.99999998 41 0 0 1.44922,-0.0996 c 4.02002,-4.87 9.87062,-5.41055 16.14063,-4.56055 a 0.99999998,1.01 3.9 0 1 0.85937,1 c -0.0665,15.5 -0.046,30.9969 0.0606,46.49023 0.0667,9.086673 -0.0671,14.506443 -0.40039,16.259773 -0.95335,5.11333 -3.20334,9.71721 -6.75,13.81055 -0.95332,1.09999 -0.70022,1.64843 0.75976,1.64843 h 35.04102 c 1.54668,0 1.78543,-0.56278 0.71875,-1.68945 -3.40666,-3.6 -5.84502,-7.68643 -7.31836,-12.25977 -0.93999,-2.92 -1.41016,-7.34286 -1.41016,-13.269533 0,-17.04666 0.0124,-34.10635 0.0391,-51.17968 a 0.99999998,0.99999998 0 0 1 0.93945,-1 c 4.40668,-0.27336 7.48071,-0.28149 9.2207,-0.0215 1.82,0.26667 3.46921,0.95388 4.94922,2.06055 1.06666,0.8 2.1849,1.5469 3.35156,2.24023 1.00667,0.60667 1.50977,0.32063 1.50977,-0.85937 v -23.0215 a 0.99999998,0.99999998 0 0 0 -1,-1 h -56.93945 a 0.99999998,0.99999998 0 0 0 -1,0.97071 l -0.041,1.51953 c -0.04,1.28 -0.50086,1.45791 -1.38086,0.53125 l -11.03906,-11.6211 a 0.99999998,0.99999998 0 0 0 -1.2793,-0.13867 c -13.81334,9.3 -27.43777,18.87208 -40.87109,28.71875 -0.9732,0.71333 -0.89618,1.29357 0.23047,1.74024 l 12.94922,5.07031 a 0.99999998,0.99999998 0 0 1 0.63086,0.92969 c 0,14.17 -0.13091,27.92976 -0.0508,42.50976 0.03,5.68 0.87038,17.809843 -2.0996,22.589853 -0.7,1.12667 -1.29262,1.07317 -1.7793,-0.16016 -4.75999,-12.03333 -8.69411,-24.331773 -11.80078,-36.898443 a 0.99999998,0.99999998 0 0 1 0.71093,-1.20117 l 9.53907,-2.67969 a 1.01,0.99999998 82.5 0 0 0.74023,-0.9707 l -0.0606,-6.83984 a 0.99999998,0.99999998 0 0 0 -1.11914,-0.97852 l -12.41015,1.5 a 0.99999998,0.99999998 0 0 1 -1.07031,-0.69141 c -3.41335,-10.69999 -6.16644,-21.56317 -8.25977,-32.58984 -0.63998,-3.36666 -0.89306,-6.31008 -0.75977,-8.83008 0.14667,-2.70667 0.51293,-5.34349 1.09961,-7.91015 0.33333,-1.46667 -0.1523,-1.82985 -1.45898,-1.08985 l -36.68164,20.57031 c -1.05406,0.59334 -1.04713,1.17667 0.0195,1.75 4.30667,2.34 5.96404,6.07256 4.9707,11.19922 -3.73334,19.31334 -7.83722,38.54474 -12.31054,57.691413 -0.3,1.27333 -0.60038,2.34853 -0.9004,3.22851 -3.64999,10.73001 -4.53748,-1.8996 -4.54882,-3.5996 -0.0343,-7.35334 -0.0486,-14.713423 -0.041,-22.080083 a 1.01,0.99999998 12.5 0 0 -0.58984,-0.91016 l -13.51953,-6.1289 a 0.99999998,1.01 35.4 0 1 -0.26953,-1.64063 l 21.08007,-20.16016 a 0.98999999,0.99999998 46.8 0 0 0.0488,-1.40039 l -34.25,-36.86914 a 0.99999998,1.01 53.9 0 0 -1.24023,-0.18945 l -38.43946,22.30859 c -1.02652,0.6 -1.01738,1.18024 0.0293,1.74024 l 12.19141,6.56054 a 1.02,1.01 14.5 0 1 0.52929,0.89063 c -0.0592,17.36667 -0.0829,34.73604 -0.0703,52.109373 0.01,6.17 -1.07909,10.48993 -4.03906,15.41993 -0.69334,1.15332 -1.28792,1.10294 -1.78125,-0.15039 l -5.58985,-14.07032 a 0.99999998,0.99999998 0 0 0 -1.54882,-0.4082 l -15.08008,11.98828 a 0.99999998,0.98999999 48.4 0 1 -1.33008,-0.0801 l -5.83008,-5.85937 a 0.98999999,0.98999999 0 0 1 -0.29101,-0.69922 V 35.015187 a 0.98999999,0.98999999 0 0 1 0.29101,-0.69922 l 5.91992,-5.92188 a 0.99999998,0.99999998 0 0 1 1.41016,-0.01 l 8.67969,8.63086 a 0.99999998,0.99999998 0 0 0 1.2207,0.15039 l 13.58008,-8.12109 a 0.99999998,0.99999998 0 0 0 0.19922,-1.54883 c -7.5,-7.68667 -15.02983,-15.34094 -22.58985,-22.9609403 -1.49671,-1.51125 -3.63257,-2.26022 -5.77148,-2.25781 z m 53.67383,42.4960903 a 0.30999999,0.30999999 0 0 1 0.21679,0.0918 l 10.3711,10.45117 a 0.30999999,0.30999999 0 0 1 0.0664,0.0996 0.30999999,0.30999999 0 0 1 0.0254,0.11914 0.30999999,0.30999999 0 0 1 -0.0254,0.11914 0.30999999,0.30999999 0 0 1 -0.0664,0.10156 l -10.48047,10.33985 a 0.30999999,0.30999999 0 0 1 -0.33984,0.0684 0.30999999,0.30999999 0 0 1 -0.18946,-0.28907 l 0.10938,-20.79882 a 0.30999999,0.30999999 0 0 1 0.19531,-0.28125 0.30999999,0.30999999 0 0 1 0.11719,-0.0215 z m 67.20898,7.72266 c 0.12847,-0.005 0.26152,0.11598 0.40039,0.36328 7.5e-4,0.001 0.001,0.003 0.002,0.004 0.002,0.004 0.006,0.01 0.008,0.0137 0.13742,0.25001 0.28035,0.62295 0.42773,1.11914 l 5.45118,18.3789 a 1.01,0.99999998 67.1 0 1 -0.46094,1.15039 l -10.18946,5.9004 c -0.32333,0.18666 -0.59693,0.30479 -0.82031,0.35351 -0.22338,0.0487 -0.39614,0.0287 -0.51953,-0.0606 -0.12339,-0.0892 -0.19733,-0.24749 -0.2207,-0.47461 -0.0234,-0.22711 0.003,-0.52367 0.0801,-0.88867 l 5.13086,-24.30078 c 0.10832,-0.51499 0.22148,-0.90246 0.33984,-1.16211 0.11836,-0.25965 0.24193,-0.39149 0.37109,-0.39648 z" />
  <path
     fill="none"
     stroke-width="0.999999"
     stroke="#201b17"
     vector-effect="non-scaling-stroke"
     d="m 209.70842,46.195227 11.71,10.89 a 0.30999999,0.30999999 0 0 1 -0.01,0.46 l -12.04017,10.51 a 0.30999999,0.30999999 0 0 1 -0.51,-0.22998 l 0.32999,-21.41 a 0.30999999,0.30999999 0 0 1 0.52,-0.22001 z"
     id="path10-9"
     style="stroke:none;stroke-opacity:1" />
  <path
     fill="none"
     stroke-width="0.999999"
     stroke="#201b17"
     vector-effect="non-scaling-stroke"
     d="m 144.00842,56.765227 q 0.65,-3.28 1.56,-0.06 l 5.71,20.29 a 0.99000001,1 67.9 0 1 -0.49,1.15 l -10.43,5.61 q -1.87,1 -1.46,-1.08 z"
     id="path14-1"
     style="stroke:none;stroke-opacity:1" />
</svg>
