<?xml version="1.0" encoding="UTF-8" standalone="no"?>
<svg
   version="1.1"
   viewBox="0 0 282 136"
   id="svg30756"
   sodipodi:docname="Wario-1.svg"
   inkscape:version="1.1.2 (0a00cf5339, 2022-02-04)"
   xmlns:inkscape="http://www.inkscape.org/namespaces/inkscape"
   xmlns:sodipodi="http://sodipodi.sourceforge.net/DTD/sodipodi-0.dtd"
   xmlns:xlink="http://www.w3.org/1999/xlink"
   xmlns="http://www.w3.org/2000/svg"
   xmlns:svg="http://www.w3.org/2000/svg">
  <defs
     id="defs30760">
    <linearGradient
       inkscape:collect="always"
       id="linearGradient845">
      <stop
         style="stop-color:#fae914;stop-opacity:1;"
         offset="0"
         id="stop841" />
      <stop
         style="stop-color:#fae975;stop-opacity:1"
         offset="1"
         id="stop843" />
    </linearGradient>
    <linearGradient
       inkscape:collect="always"
       id="linearGradient39103">
      <stop
         style="stop-color:#471c3f;stop-opacity:1;"
         offset="0"
         id="stop39099" />
      <stop
         style="stop-color:#2f1227;stop-opacity:1"
         offset="1"
         id="stop39101" />
    </linearGradient>
    <linearGradient
       inkscape:collect="always"
       xlink:href="#linearGradient39103"
       id="linearGradient31414"
       x1="6.659379"
       y1="69.455109"
       x2="278.26767"
       y2="69.455109"
       gradientUnits="userSpaceOnUse" />
    <linearGradient
       inkscape:collect="always"
       xlink:href="#linearGradient39103"
       id="linearGradient39105"
       x1="-83.03782"
       y1="-16.855586"
       x2="51.765939"
       y2="-16.855586"
       gradientUnits="userSpaceOnUse" />
    <linearGradient
       inkscape:collect="always"
       xlink:href="#linearGradient845"
       id="linearGradient847"
       x1="151.62613"
       y1="47.67527"
       x2="151.62613"
       y2="122.06437"
       gradientUnits="userSpaceOnUse" />
  </defs>
  <sodipodi:namedview
     id="namedview30758"
     pagecolor="#ffffff"
     bordercolor="#666666"
     borderopacity="1.0"
     inkscape:pageshadow="2"
     inkscape:pageopacity="0.0"
     inkscape:pagecheckerboard="0"
     showgrid="false"
     inkscape:zoom="1.5319374"
     inkscape:cx="183.42787"
     inkscape:cy="137.08132"
     inkscape:window-width="1920"
     inkscape:window-height="1011"
     inkscape:window-x="1920"
     inkscape:window-y="32"
     inkscape:window-maximized="1"
     inkscape:current-layer="svg30756" />
  <g
     stroke-width="2.00"
     fill="none"
     stroke-linecap="butt"
     id="g30734">
    <path
       stroke="#9e7e28"
       vector-effect="non-scaling-stroke"
       d="   M 44.83 57.48   Q 44.44 58.55 44.07 57.48   L 35.06 30.81   A 0.70 0.69 -11.0 0 0 34.36 30.34   L 11.63 31.92   A 0.59 0.58 -13.1 0 0 11.13 32.72   L 44.75 114.86   Q 45.38 116.39 45.87 114.81   L 60.64 66.93   Q 61.24 64.98 62.09 66.83   Q 73.22 90.83 84.94 115.78   Q 85.33 116.61 85.54 116.83   Q 86.51 117.84 86.78 116.45   L 107.84 10.47   A 1.21 1.21 0.0 0 0 106.45 9.04   L 87.21 12.29   A 1.42 1.41 -1.7 0 0 86.04 13.52   L 80.70 61.02   Q 80.39 63.77 79.21 61.27   L 60.24 21.22   Q 59.00 18.60 58.01 21.32   L 44.83 57.48"
       id="path30720" />
    <path
       stroke="#9e7e28"
       vector-effect="non-scaling-stroke"
       d="   M 219.0637 36.1560   A 10.61 9.22 -15.1 0 0 206.4181 30.0183   A 10.61 9.22 -15.1 0 0 198.5763 41.6840   A 10.61 9.22 -15.1 0 0 211.2219 47.8217   A 10.61 9.22 -15.1 0 0 219.0637 36.1560"
       id="path30722" />
    <path
       stroke="#9e7e28"
       vector-effect="non-scaling-stroke"
       d="   M 162.75 110.49   L 163.04 113.06   A 0.96 0.96 0.0 0 0 164.24 113.88   L 177.50 110.31   A 1.43 1.42 79.2 0 0 178.54 108.77   L 174.39 74.82   A 1.77 1.76 -21.8 0 1 175.09 73.20   Q 184.61 66.24 195.82 62.57   A 0.56 0.55 -15.3 0 0 196.19 61.93   L 193.87 50.52   A 0.82 0.80 1.3 0 0 193.25 49.89   C 184.50 47.87 178.90 53.89 173.91 59.48   Q 172.04 61.57 172.02 58.77   L 171.98 53.23   A 0.62 0.62 0.0 0 0 171.12 52.66   L 154.88 59.38   A 1.07 1.06 -16.4 0 0 154.24 60.55   Q 157.35 78.39 160.37 96.18   Q 161.02 100.05 160.79 102.60   A 0.57 0.57 0.0 0 1 160.20 103.12   Q 150.40 102.64 147.31 93.45   A 1.39 1.37 -44.7 0 1 147.32 92.55   C 151.27 81.53 154.27 65.20 145.47 56.08   C 137.86 48.20 123.40 47.08 112.81 49.04   A 0.78 0.77 3.6 0 0 112.20 49.57   L 108.98 59.71   A 0.85 0.85 0.0 0 0 109.92 60.81   C 116.94 59.76 137.12 56.74 133.85 70.77   A 0.50 0.49 14.3 0 1 133.24 71.13   C 129.32 70.10 125.20 68.68 121.33 69.11   C 102.92 71.18 98.43 93.47 110.43 105.68   C 118.50 113.90 129.49 114.37 139.59 107.90   A 0.65 0.65 0.0 0 1 140.38 107.97   C 146.27 113.32 151.70 116.13 160.02 115.01   A 1.35 1.34 4.0 0 0 161.13 114.05   L 162.18 110.44   Q 162.58 109.06 162.75 110.49"
       id="path30724" />
    <path
       stroke="#9e7e28"
       vector-effect="non-scaling-stroke"
       d="   M 218.10 57.45   L 202.27 52.44   A 1.01 1.01 0.0 0 0 200.96 53.50   L 206.06 111.56   A 1.38 1.37 -89.8 0 0 207.29 112.81   L 220.15 114.05   A 0.57 0.57 0.0 0 0 220.77 113.46   Q 219.94 95.67 219.80 77.81   C 219.75 71.73 219.11 65.03 218.99 58.64   A 1.28 1.28 0.0 0 0 218.10 57.45"
       id="path30726" />
    <path
       stroke="#9e7e28"
       vector-effect="non-scaling-stroke"
       d="   M 258.2671 114.8226   A 31.29 23.13 74.3 0 0 272.0671 78.4410   A 31.29 23.13 74.3 0 0 241.3329 54.5774   A 31.29 23.13 74.3 0 0 227.5329 90.9590   A 31.29 23.13 74.3 0 0 258.2671 114.8226"
       id="path30728" />
    <path
       stroke="#9e7e28"
       vector-effect="non-scaling-stroke"
       d="   M 127.0375 95.4192   A 8.45 7.38 87.1 0 0 133.9805 86.6066   A 8.45 7.38 87.1 0 0 126.1825 78.5408   A 8.45 7.38 87.1 0 0 119.2395 87.3534   A 8.45 7.38 87.1 0 0 127.0375 95.4192"
       id="path30730" />
    <path
       stroke="#9e7e28"
       vector-effect="non-scaling-stroke"
       d="   M 254.4637 101.3310   A 13.41 8.00 73.7 0 0 258.3784 86.2147   A 13.41 8.00 73.7 0 0 246.9363 75.5890   A 13.41 8.00 73.7 0 0 243.0216 90.7053   A 13.41 8.00 73.7 0 0 254.4637 101.3310"
       id="path30732" />
  </g>
  <g
     fill="#fae914"
     id="g30746"
     style="fill-opacity:1;fill:url(#linearGradient847)">
    <path
       id="path30744"
       d="m 258.2671,114.8226 a 31.29,23.13 74.3 0 1 -30.7342,-23.8636 31.29,23.13 74.3 0 1 13.8,-36.3816 31.29,23.13 74.3 0 1 30.7342,23.8636 31.29,23.13 74.3 0 1 -13.8,36.3816 z m -3.8034,-13.4916 a 13.41,8 73.7 0 0 3.9147,-15.1163 13.41,8 73.7 0 0 -11.4421,-10.6257 13.41,8 73.7 0 0 -3.9147,15.1163 13.41,8 73.7 0 0 11.4421,10.6257 z M 218.1,57.45 a 1.28,1.28 0 0 1 0.89,1.19 c 0.12,6.39 0.76,13.09 0.81,19.17 q 0.14,17.86 0.97,35.65 a 0.57,0.57 0 0 1 -0.62,0.59 l -12.86,-1.24 a 1.37,1.38 0.2 0 1 -1.23,-1.25 l -5.1,-58.06 a 1.01,1.01 0 0 1 1.31,-1.06 z m -55.92,52.99 -1.05,3.61 a 1.35,1.34 4 0 1 -1.11,0.96 c -8.32,1.12 -13.75,-1.69 -19.64,-7.04 a 0.65,0.65 0 0 0 -0.79,-0.07 c -10.1,6.47 -21.09,6 -29.16,-2.22 -12,-12.21 -7.51,-34.5 10.9,-36.57 3.87,-0.43 7.99,0.99 11.91,2.02 a 0.5,0.49 14.3 0 0 0.61,-0.36 c 3.27,-14.03 -16.91,-11.01 -23.93,-9.96 a 0.85,0.85 0 0 1 -0.94,-1.1 l 3.22,-10.14 a 0.78,0.77 3.6 0 1 0.61,-0.53 c 10.59,-1.96 25.05,-0.84 32.66,7.04 8.8,9.12 5.8,25.45 1.85,36.47 a 1.37,1.39 45.3 0 0 -0.01,0.9 q 3.09,9.19 12.89,9.67 a 0.57,0.57 0 0 0 0.59,-0.52 q 0.23,-2.55 -0.42,-6.42 -3.02,-17.79 -6.13,-35.63 a 1.06,1.07 73.6 0 1 0.64,-1.17 l 16.24,-6.72 a 0.62,0.62 0 0 1 0.86,0.57 l 0.04,5.54 q 0.02,2.8 1.89,0.71 c 4.99,-5.59 10.59,-11.61 19.34,-9.59 a 0.82,0.8 1.3 0 1 0.62,0.63 l 2.32,11.41 a 0.55,0.56 74.7 0 1 -0.37,0.64 q -11.21,3.67 -20.73,10.63 a 1.76,1.77 68.2 0 0 -0.7,1.62 l 4.15,33.95 a 1.43,1.42 79.2 0 1 -1.04,1.54 l -13.26,3.57 a 0.96,0.96 0 0 1 -1.2,-0.82 l -0.29,-2.57 q -0.17,-1.43 -0.57,-0.05 z M 127.0375,95.4192 a 8.45,7.38 87.1 0 0 6.943,-8.8126 8.45,7.38 87.1 0 0 -7.798,-8.0658 8.45,7.38 87.1 0 0 -6.943,8.8126 8.45,7.38 87.1 0 0 7.798,8.0658 z m 92.02616,-59.263153 a 9.2200003,10.61 74.9 0 1 -7.84181,11.665611 9.2200003,10.61 74.9 0 1 -12.64551,-6.137705 9.2200003,10.61 74.9 0 1 7.84181,-11.665611 9.2200003,10.61 74.9 0 1 12.64551,6.137705 z M 44.83,57.48 58.01,21.32 Q 59,18.6 60.24,21.22 l 18.97,40.05 q 1.18,2.5 1.49,-0.25 l 5.34,-47.5 a 1.41,1.42 88.3 0 1 1.17,-1.23 l 19.24,-3.25 a 1.21,1.21 0 0 1 1.39,1.43 L 86.78,116.45 q -0.27,1.39 -1.24,0.38 -0.21,-0.22 -0.6,-1.05 -11.72,-24.95 -22.85,-48.95 -0.85,-1.85 -1.45,0.1 l -14.77,47.88 q -0.49,1.58 -1.12,0.05 L 11.13,32.72 a 0.58,0.59 76.9 0 1 0.5,-0.8 l 22.73,-1.58 a 0.69,0.7 79 0 1 0.7,0.47 l 9.01,26.67 q 0.37,1.07 0.76,0 z"
       style="fill-opacity:1.0;fill:url(#linearGradient847)" />
  </g>
  <g
     fill="#41133b"
     id="g30754"
     style="fill:url(#linearGradient31414);fill-opacity:1"
     transform="translate(-1.2260687e-5,1.9670153e-5)">
    <path
       id="ellipse30752"
       d="M 8.4499998,0 A 8.4499998,7.3800001 0 0 1 0,7.3800001 8.4499998,7.3800001 0 0 1 -8.4499998,0 8.4499998,7.3800001 0 0 1 0,-7.3800001 8.4499998,7.3800001 0 0 1 8.4499998,0 Z m -50.8624068,47.004427 -0.02578,-0.281665 a 0.49,0.49 0 0 0 -0.548527,-0.438313 q -2.397695,0.289064 -4.583222,-0.842958 -0.468761,-0.234015 -0.989106,-0.240349 c -3.944567,-0.0096 -7.366988,-1.234299 -11.377793,-1.51758 -3.531925,-0.249009 -6.106446,-1.41075 -10.372495,-1.59682 -2.537253,-0.118519 -4.48586,-1.578975 -7.361423,-1.344157 a 1.4,1.4 0 0 1 -0.96559,-0.309248 q -2.904323,-2.359961 -2.155316,-6.076826 0.09571,-0.505806 -0.05977,-0.994298 c -0.938343,-3.021342 -0.745472,-6.235701 -1.251968,-9.084975 -0.943343,-5.294507 -3.06536,-13.412262 5.562958,-13.555914 12.947976,-0.225212 24.428485,3.810789 36.892706,6.414726 q 0.45587,0.09318 0.05702,-0.137292 -1.26292,-0.764874 -2.139112,-1.850593 c -2.307732,-2.870431 -0.685537,-16.9063348 -0.10352,-21.0822367 q 1.768685,-12.7768793 11.826997,-20.1975033 a 0.65,0.65 0 0 0 0.228207,-0.749414 c -1.833984,-4.909073 -9.474563,-20.705863 -3.814275,-23.533113 a 0.63,0.63 0 0 0 0.189907,-0.981649 q -2.811888,-3.196355 -4.421751,-7.192921 -0.916365,-2.269268 -0.762451,-4.714612 l 0.321358,-4.960094 a 1.73,1.73 0 0 0 -1.749106,-1.84085 q -15.513804,0.275464 -17.055151,-13.770505 c -0.985855,-9.001405 5.521044,-15.891025 14.879287,-15.026457 8.979236,0.835356 17.965181,1.340628 23.799351,1.40588 q 1.12059,0.01672 1.374974,-1.051783 a 0.65,0.66 19 0 0 -0.353074,-0.738809 q -15.298068,-7.343378 -13.699573,-24.073928 c 1.220401,-12.82468 15.456212,-22.8573 26.8840575,-26.08326 1.0154151,-0.27899 2.5064111,-0.0633 3.73738519,-0.842 a 1.6,1.57 28.9 0 1 0.91402531,-0.25408 q 2.6491359,0.0841 9.696198,-0.47004 5.277174,-0.40353 13.970566,0.73775 c 11.189553,1.47801 21.624312,5.60122 25.935357,16.36311 6.312282,15.7295 -6.035298,30.19332 -19.735993,35.987581 q -0.286724,0.125655 -0.349814,0.382792 a 0.44,0.45 7.7 0 0 0.412622,0.551583 c 5.653257,0.276368 19.391404,-1.711124 18.15478,7.678336 q -1.299845,9.846848 -2.942265,13.60857 c -1.122804,2.59652 -3.751328,2.303159 -6.259257,2.396395 q -17.715803,0.654544 -35.4365337,1.20871 -3.76088139,0.119879 -7.5015453,0.631283 a 0.5,0.5 0 0 0 -0.4123987,0.629942 q 2.5494224,8.970471 7.0923871,17.130763 a 0.75,0.77 72.9 0 0 0.7318379,0.377509 c 4.1655599,-0.399764 8.2455257,-0.493466 12.4127347,-1.123442 1.795934,-0.269483 3.7318,0.05888 5.400805,-0.07686 q 8.484843,-0.671587 17.004912,0.531008 2.495655,0.346707 3.336544,2.722292 1.664333,4.700223 2.665201,9.847451 c 2.232172,11.477631 3.858351,20.291192 -4.937961,29.878438 a 0.76,0.75 54.6 0 0 -0.131877,0.824384 C 46.745072,4.6409087 38.841209,22.503905 22.584581,26.96715 16.766299,28.564832 8.7506492,27.287662 2.315355,27.03175 a 0.4,0.4 0 0 0 -0.3873651,0.531083 c 0.2183122,0.631854 31.7583501,8.347438 35.0701621,9.186066 1.977202,0.500674 4.485505,0.597701 6.677852,1.990401 a 1.71,1.7 5.6 0 1 0.613246,0.741977 q 2.377695,5.83777 -4.088013,8.55413 -19.571463,8.230362 -39.35138142,16.029626 -1.21630215,0.48909 0.0123658,0.941832 17.93268362,6.72588 36.06348062,12.901079 c 6.319193,2.152463 4.723858,8.740187 -0.852465,10.700575 Q -1.7867008,101.88008 -39.594804,115.31446 c -7.422962,2.63783 -14.602874,2.45434 -22.130162,1.22193 q -2.353811,-0.37957 -2.684341,-2.74933 c -1.125321,-8.02721 -0.584824,-15.138971 -0.896852,-24.396613 -0.179015,-4.965416 3.216631,-4.7934 6.685505,-5.869277 q 5.757985,-1.790981 11.655153,-3.364641 0.953975,-0.252058 0.05438,-0.678117 c -8.145798,-3.847047 -16.5552,-7.036588 -24.918318,-10.744451 q -1.870621,-0.825698 -2.483079,-2.769173 c -1.241856,-3.947884 1.245389,-6.004681 4.695058,-7.492057 6.622599,-2.848592 13.34835,-5.361534 19.925061,-8.292553 q 3.390757,-1.510386 6.932577,-2.642645 a 0.51,0.5 78.8 0 0 0.347417,-0.533106 z m 8.812695,33.17835 q 1.048899,0.443635 -0.03845,0.759027 l -27.091688,7.649148 a 0.7,0.69 81.9 0 0 -0.504813,0.675325 l 0.427999,22.780823 a 0.59,0.58 79.8 0 0 0.773679,0.53984 L 23.702758,83.165698 q 1.559914,-0.551786 0.0067,-1.121096 L -23.361939,64.871128 q -1.917147,-0.697888 -0.02651,-1.453203 24.5323645,-9.901516 50.043362,-20.344213 0.848668,-0.347508 1.079011,-0.546109 1.057781,-0.917659 -0.316778,-1.257637 L -77.361648,14.875096 a 1.21,1.21 0 0 0 -1.498492,1.315872 l 2.272429,19.379788 a 1.41,1.42 1.2 0 0 1.169231,1.230731 l 47.169004,7.736326 q 2.730794,0.448734 0.174296,1.50074 l -40.958458,16.919459 q -2.67938,1.105858 -0.01295,2.232203 z M -46.081408,-94.906635 a 10.61,9.22 77.8 0 0 -6.769618,12.318881 10.61,9.22 77.8 0 0 11.254021,8.421959 10.61,9.22 77.8 0 0 6.769618,-12.318881 10.61,9.22 77.8 0 0 -11.254021,-8.421959 z m 71.389729,60.002357 2.581381,-0.159604 a 0.96,0.96 0 0 0 0.879661,-1.156977 l -2.894566,-13.423636 a 1.42,1.43 82.1 0 0 -1.485411,-1.116581 l -34.1164827,2.427055 a 1.77,1.76 71.1 0 1 -1.5825103,-0.781064 q -6.469442,-9.859935 -9.567595,-21.241255 a 0.56,0.55 77.6 0 0 -0.620461,-0.401906 l -11.512764,1.739763 a 0.8,0.82 4.2 0 0 -0.66056,0.587333 c -2.460102,8.636597 3.268868,14.533994 8.599251,19.800419 q 1.992714,1.973344 -0.804712,1.851658 l -5.534929,-0.240336 a 0.62,0.62 0 0 0 -0.61278,0.830061 l 5.889765,16.559187 a 1.07,1.06 76.5 0 0 1.136122,0.698374 q 17.9744977,-2.203439 35.894506,-4.319523 3.897929,-0.453373 6.433027,-0.09466 a 0.57,0.57 0 0 1 0.489484,0.615553 q -0.975196,9.763165 -10.3097589,12.384259 a 1.39,1.37 48.2 0 1 -0.8983415,-0.05552 c -10.8060452,-4.502476 -26.9633536,-8.324817 -36.5168916,0.0025 -8.254921,7.201582 -10.105061,21.5863998 -8.68335,32.262 a 0.77,0.78 6.5 0 0 0.49846,0.636033 l 9.964105,3.728889 a 0.85,0.85 0 0 0 1.146148,-0.883144 c -0.693493,-7.0641326 -2.68866,-27.37108 11.157934,-23.3954487 a 0.49,0.5 17.2 0 1 0.328677,0.6274323 c -1.227005,3.8628691 -2.853629,7.90575089 -2.619975,11.7925498 1.135933,18.4911506 23.1702256,24.1031176 35.971704,12.7362246 8.617758,-7.6437911 9.643173,-18.5959381 3.692447,-29.01034 a 0.65,0.65 0 0 1 0.109879,-0.785447 c 5.641141,-5.611785 8.722262,-10.892664 8.02463,-19.258674 a 1.34,1.35 6.9 0 0 -0.902613,-1.157147 l -3.552254,-1.231296 q -1.357996,-0.469306 0.07877,-0.566741 z m -50.171756,-57.962566 -5.80447,15.556257 a 1.01,1.01 0 0 0 0.992366,1.361951 l 58.24367,-2.156042 a 1.38,1.37 3.1 0 0 1.310628,-1.165184 l 1.889038,-12.780796 a 0.57,0.57 0 0 0 -0.557877,-0.649056 q -17.80921,-0.07111 -35.6534204,-0.83488 c -6.0747436,-0.257669 -12.7985426,0.04254 -19.1864306,-0.160904 a 1.28,1.28 0 0 0 -1.233504,0.828654 z m 59.331298,-37.213016 a 23.13,31.29 77.2 0 0 -35.6368252,-15.62297 23.13,31.29 77.2 0 0 -25.3879728,29.48751 23.13,31.29 77.2 0 0 35.6368256,15.62298 23.13,31.29 77.2 0 0 25.3879724,-29.48752 z M -23.863123,21.199844 c 1.368469,1.250837 10.817084,2.900983 13.002124,3.25198 a 0.34,0.34 0 0 0 0.382306,-0.43121 q -0.05929,-0.213273 -0.291389,-0.375223 -5.741152,-4.075681 -12.938417,-2.928343 -0.585328,0.0905 -0.154624,0.482796 z M 20.801116,-126.96391 a 8,13.41 76.6 0 1 -11.1909817,10.88987 8,13.41 76.6 0 1 -14.8988852,-4.67447 8,13.41 76.6 0 1 11.1909817,-10.88986 8,13.41 76.6 0 1 14.8988852,4.67446 z m -4.281567,1.68965 a 0.74,2.67 51.1 0 0 -2.542543,1.10068 0.74,2.67 51.1 0 0 -1.61323,2.25256 0.74,2.67 51.1 0 0 2.542543,-1.10067 0.74,2.67 51.1 0 0 1.61323,-2.25257 z"
       style="fill:url(#linearGradient39105);fill-opacity:1"
       transform="rotate(87.1,17.556125,110.08307)" />
  </g>
</svg>
