<?xml version="1.0" encoding="UTF-8" standalone="no"?>
<svg
   version="1.1"
   viewBox="0.00 0.00 1141.00 207.00"
   id="svg282"
   sodipodi:docname="Wonder Boy.svg"
   inkscape:version="1.1.2 (0a00cf5339, 2022-02-04)"
   xmlns:inkscape="http://www.inkscape.org/namespaces/inkscape"
   xmlns:sodipodi="http://sodipodi.sourceforge.net/DTD/sodipodi-0.dtd"
   xmlns:xlink="http://www.w3.org/1999/xlink"
   xmlns="http://www.w3.org/2000/svg"
   xmlns:svg="http://www.w3.org/2000/svg">
  <defs
     id="defs286">
    <linearGradient
       inkscape:collect="always"
       id="linearGradient9137">
      <stop
         style="stop-color:#ffcd00;stop-opacity:1"
         offset="0"
         id="stop9133" />
      <stop
         style="stop-color:#ea2e32;stop-opacity:1"
         offset="1"
         id="stop9135" />
    </linearGradient>
    <linearGradient
       inkscape:collect="always"
       xlink:href="#linearGradient9137"
       id="linearGradient9139"
       x1="628.80927"
       y1="182.33261"
       x2="628.80927"
       y2="11.582964"
       gradientUnits="userSpaceOnUse" />
  </defs>
  <sodipodi:namedview
     id="namedview284"
     pagecolor="#ffffff"
     bordercolor="#666666"
     borderopacity="1.0"
     inkscape:pageshadow="2"
     inkscape:pageopacity="0.0"
     inkscape:pagecheckerboard="0"
     showgrid="false"
     inkscape:zoom="1.7387507"
     inkscape:cx="537.16729"
     inkscape:cy="66.139441"
     inkscape:window-width="1920"
     inkscape:window-height="1043"
     inkscape:window-x="0"
     inkscape:window-y="0"
     inkscape:window-maximized="1"
     inkscape:current-layer="svg282" />
  <g
     fill="#20203d"
     id="g180"
     style="fill:url(#linearGradient9139);fill-opacity:1">
    <path
       d="   M 356.32 96.90   A 87.86 87.86 0.0 0 1 268.46 184.76   A 87.86 87.86 0.0 0 1 180.60 96.90   A 87.86 87.86 0.0 0 1 268.46 9.04   A 87.86 87.86 0.0 0 1 356.32 96.90   Z   M 329.67 96.98   A 61.22 61.22 0.0 0 0 268.45 35.76   A 61.22 61.22 0.0 0 0 207.23 96.98   A 61.22 61.22 0.0 0 0 268.45 158.20   A 61.22 61.22 0.0 0 0 329.67 96.98   Z"
       id="path164"
       style="fill:url(#linearGradient9139);fill-opacity:1" />
    <path
       d="   M 1046.12 96.92   A 64.29 64.29 0.0 0 1 981.83 161.21   A 64.29 64.29 0.0 0 1 917.54 96.92   A 64.29 64.29 0.0 0 1 981.83 32.63   A 64.29 64.29 0.0 0 1 1046.12 96.92   Z   M 1019.41 96.93   A 37.59 37.59 0.0 0 0 981.82 59.34   A 37.59 37.59 0.0 0 0 944.23 96.93   A 37.59 37.59 0.0 0 0 981.82 134.52   A 37.59 37.59 0.0 0 0 1019.41 96.93   Z"
       id="path166"
       style="fill:url(#linearGradient9139);fill-opacity:1" />
    <path
       d="   M 60.30 121.48   A 0.28 0.27 44.8 0 0 60.83 121.48   Q 72.71 79.35 84.49 37.50   Q 84.93 35.95 85.63 34.51   Q 85.85 34.06 86.35 34.06   L 105.98 33.97   Q 106.49 33.97 106.63 34.47   L 131.11 121.31   Q 131.41 122.36 131.70 121.31   L 153.24 44.77   A 0.69 0.69 0.0 0 0 152.42 43.91   C 148.56 44.85 148.00 37.98 147.85 34.55   Q 147.82 33.99 148.38 34.00   L 181.94 34.09   Q 182.84 34.10 182.61 34.97   L 180.43 43.16   Q 180.26 43.82 179.58 43.86   L 176.16 44.08   A 2.26 2.26 0.0 0 0 174.12 45.73   L 145.08 149.05   Q 144.93 149.58 145.33 149.96   C 147.50 152.00 148.17 156.55 148.95 159.36   A 0.51 0.51 0.0 0 1 148.46 160.00   L 115.06 160.00   A 0.92 0.92 0.0 0 1 114.14 159.01   Q 114.51 153.78 117.56 149.66   Q 117.83 149.29 117.71 148.85   L 96.21 73.29   A 0.34 0.34 0.0 0 0 95.56 73.29   L 74.35 148.77   Q 74.22 149.25 74.46 149.68   Q 77.02 154.17 78.03 159.27   A 0.61 0.61 0.0 0 1 77.43 160.00   L 43.89 160.00   A 0.71 0.70 -82.7 0 1 43.21 159.11   L 45.14 151.69   Q 45.26 151.22 45.73 151.11   Q 47.38 150.75 46.87 148.93   Q 32.34 97.25 17.66 45.10   Q 17.41 44.24 16.52 44.17   L 12.42 43.84   Q 11.77 43.79 11.60 43.16   L 9.61 35.72   Q 9.15 33.98 10.95 33.99   L 43.76 34.10   A 0.97 0.96 9.4 0 1 44.67 35.37   L 42.00 43.46   Q 41.82 44.00 41.25 44.00   L 39.92 44.00   A 1.09 1.08 -7.9 0 0 38.87 45.38   L 60.30 121.48   Z"
       id="path168"
       style="fill:url(#linearGradient9139);fill-opacity:1" />
    <path
       d="   M 390.57 63.30   C 390.23 64.81 390.72 66.82 390.72 68.01   Q 390.82 109.08 390.69 150.17   Q 390.69 150.82 391.33 150.85   L 395.96 151.07   A 1.91 1.90 -5.8 0 1 397.71 152.49   L 399.49 159.28   Q 399.68 160.00 398.93 160.00   L 361.80 160.00   A 0.57 0.57 0.0 0 1 361.25 159.30   L 363.13 151.53   Q 363.26 151.00 363.80 151.00   L 369.25 151.00   Q 370.00 151.00 370.00 150.25   L 370.00 44.75   A 0.75 0.75 0.0 0 0 369.25 44.00   L 364.96 44.00   A 1.68 1.68 0.0 0 1 363.35 42.80   L 360.96 34.78   A 0.61 0.61 0.0 0 1 361.55 34.00   L 400.47 34.01   Q 401.14 34.01 401.39 34.63   L 441.38 133.84   A 0.32 0.32 0.0 0 0 442.00 133.72   L 442.00 44.66   Q 442.00 44.01 441.35 44.01   L 435.94 44.00   Q 435.37 43.99 435.13 43.48   Q 433.21 39.45 432.96 34.98   A 0.92 0.92 0.0 0 1 433.88 34.00   Q 477.42 33.99 521.25 34.00   C 541.22 34.01 559.99 43.51 565.43 63.55   Q 566.94 69.12 566.99 81.22   Q 567.10 109.22 566.96 120.00   C 566.70 139.39 554.59 154.30 536.08 158.71   Q 530.85 159.96 520.68 159.97   Q 475.73 160.03 430.76 159.99   Q 430.17 159.99 429.94 159.43   L 391.24 63.25   A 0.35 0.35 0.0 0 0 390.57 63.30   Z   M 468.19 44.00   L 462.63 44.00   A 0.63 0.62 0.0 0 0 462.00 44.62   L 462.00 150.50   Q 462.00 151.00 462.50 151.00   L 467.97 151.00   Q 468.45 151.00 468.71 151.40   Q 470.26 153.67 470.00 156.36   A 0.53 0.53 0.0 0 0 470.92 156.76   Q 472.40 155.11 471.96 152.82   A 1.45 1.44 -6.3 0 1 473.33 151.11   L 478.17 150.95   A 1.12 1.12 0.0 0 0 479.25 149.83   L 479.25 44.73   Q 479.25 44.21 478.74 44.10   C 476.65 43.66 473.72 44.82 472.43 42.92   C 471.51 41.56 472.57 39.73 470.99 38.20   Q 470.42 37.66 470.21 38.42   L 468.81 43.52   Q 468.68 44.00 468.19 44.00   Z   M 499.91 54.19   L 500.07 140.43   A 0.64 0.64 0.0 0 0 500.71 141.07   L 525.09 141.03   A 21.78 20.89 -0.1 0 0 546.83 120.10   L 546.75 74.36   A 21.78 20.89 -0.1 0 0 524.93 53.51   L 500.55 53.55   A 0.64 0.64 0.0 0 0 499.91 54.19   Z"
       id="path170"
       style="fill:url(#linearGradient9139);fill-opacity:1" />
    <path
       d="   M 650.24 52.94   L 600.76 53.13   A 0.76 0.76 0.0 0 0 600.00 53.89   L 600.00 88.35   A 0.76 0.76 0.0 0 0 600.76 89.11   L 650.24 89.26   A 0.76 0.76 0.0 0 1 651.00 90.02   L 651.00 104.22   A 0.76 0.76 0.0 0 1 650.24 104.98   L 600.76 105.01   A 0.76 0.76 0.0 0 0 600.00 105.77   L 600.00 140.24   A 0.76 0.76 0.0 0 0 600.76 141.00   L 650.22 141.00   A 0.76 0.76 0.0 0 0 650.98 140.25   L 651.05 133.04   A 0.76 0.76 0.0 0 1 651.98 132.30   L 660.41 134.25   A 0.76 0.76 0.0 0 1 661.00 134.99   L 661.00 159.24   A 0.76 0.76 0.0 0 1 660.24 160.00   L 571.79 160.00   A 0.76 0.76 0.0 0 1 571.05 159.06   L 572.86 151.63   A 0.76 0.76 0.0 0 1 573.58 151.05   L 579.26 150.93   A 0.76 0.76 0.0 0 0 580.00 150.17   L 580.00 44.76   A 0.76 0.76 0.0 0 0 579.24 44.00   L 573.89 44.00   A 0.76 0.76 0.0 0 1 573.16 43.44   L 570.82 34.96   A 0.76 0.76 0.0 0 1 571.56 34.00   L 660.24 34.00   A 0.76 0.76 0.0 0 1 661.00 34.76   L 661.00 61.38   A 0.76 0.76 0.0 0 1 660.06 62.12   L 651.58 60.08   A 0.76 0.76 0.0 0 1 651.00 59.34   L 651.00 53.70   A 0.76 0.76 0.0 0 0 650.24 52.94   Z"
       id="path172"
       style="fill:url(#linearGradient9139);fill-opacity:1" />
    <path
       d="   M 735.34 101.94   C 744.97 116.19 748.48 133.40 753.03 149.73   A 1.75 1.75 0.0 0 0 754.71 151.00   L 759.14 151.00   Q 759.76 151.00 759.92 151.60   L 761.98 159.13   Q 762.22 160.00 761.31 160.00   L 726.52 160.00   A 0.69 0.68 6.1 0 1 725.85 159.17   L 727.42 152.02   Q 727.56 151.37 728.22 151.29   L 731.09 150.93   A 1.16 1.16 0.0 0 0 732.07 149.48   Q 727.42 131.81 720.85 115.18   Q 718.29 108.68 714.09 104.36   Q 713.73 104.00 713.22 104.00   L 694.62 104.00   Q 694.00 104.00 694.00 104.62   L 694.00 149.05   Q 694.00 150.66 695.61 150.80   L 700.82 151.26   Q 701.39 151.31 701.54 151.86   L 703.61 159.27   Q 703.81 160.00 703.06 160.00   L 665.72 160.00   A 0.51 0.50 -82.8 0 1 665.24 159.37   L 667.29 151.45   Q 667.41 151.00 667.87 151.00   L 673.37 151.00   Q 674.00 151.00 674.00 150.37   L 674.00 44.66   A 0.61 0.61 0.0 0 0 673.41 44.05   L 668.40 43.90   Q 667.68 43.87 667.48 43.18   L 665.04 34.70   Q 664.85 34.02 665.55 34.01   Q 688.69 33.95 711.74 34.08   C 724.80 34.16 736.73 37.72 745.77 47.26   C 762.86 65.29 756.63 89.95 735.52 101.21   Q 735.02 101.47 735.34 101.94   Z   M 693.97 54.59   L 694.03 89.95   A 1.10 1.10 0.0 0 0 695.13 91.04   L 712.69 91.01   A 22.58 18.61 -0.1 0 0 735.24 72.36   L 735.24 72.02   A 22.58 18.61 -0.1 0 0 712.63 53.45   L 695.07 53.48   A 1.10 1.10 0.0 0 0 693.97 54.59   Z"
       id="path174"
       style="fill:url(#linearGradient9139);fill-opacity:1" />
    <path
       d="   M 827.00 149.87   L 827.00 44.75   Q 827.00 44.00 826.25 44.00   L 821.07 44.00   Q 820.55 44.00 820.40 43.49   L 817.93 34.75   A 0.56 0.56 0.0 0 1 818.47 34.03   Q 842.79 33.91 867.24 34.11   Q 888.24 34.29 900.83 49.39   C 912.53 63.43 910.29 83.16 897.73 95.89   A 0.32 0.31 -50.3 0 0 897.77 96.37   C 915.94 109.12 917.64 134.58 900.84 149.34   Q 889.06 159.68 872.69 160.22   Q 863.45 160.53 828.64 159.96   C 826.32 159.92 821.93 160.48 818.44 159.85   Q 817.97 159.77 818.10 159.31   L 820.41 151.04   Q 820.56 150.51 821.11 150.51   L 826.38 150.49   Q 827.00 150.49 827.00 149.87   Z   M 847.22 54.77   L 847.28 89.85   A 1.17 1.17 0.0 0 0 848.45 91.01   L 865.72 90.98   A 22.36 18.62 -0.1 0 0 888.05 72.32   L 888.05 72.14   A 22.36 18.62 -0.1 0 0 865.66 53.56   L 848.39 53.59   A 1.17 1.17 0.0 0 0 847.22 54.77   Z   M 847.25 104.86   L 847.25 140.10   A 0.92 0.92 0.0 0 0 848.17 141.02   L 871.34 141.02   A 20.71 18.39 0.0 0 0 892.05 122.63   L 892.05 122.33   A 20.71 18.39 0.0 0 0 871.34 103.94   L 848.17 103.94   A 0.92 0.92 0.0 0 0 847.25 104.86   Z"
       id="path176"
       style="fill:url(#linearGradient9139);fill-opacity:1" />
    <path
       d="   M 1082.56 75.89   L 1100.43 44.74   Q 1100.86 44.00 1100.00 44.00   L 1098.65 44.00   Q 1098.02 44.00 1097.86 43.39   L 1095.60 34.73   A 0.58 0.58 0.0 0 1 1096.16 34.00   L 1130.95 34.00   A 0.93 0.92 -82.3 0 1 1131.84 35.17   L 1129.65 43.23   Q 1129.46 43.90 1128.76 43.92   L 1124.65 44.04   Q 1124.17 44.05 1123.90 44.46   Q 1122.67 46.30 1121.19 48.93   Q 1110.69 67.63 1092.74 98.71   C 1092.32 99.44 1092.01 100.55 1092.01 101.47   Q 1091.99 125.37 1092.00 149.37   A 1.03 1.03 0.0 0 0 1092.89 150.39   Q 1094.76 150.65 1096.99 150.43   C 1099.69 150.18 1100.89 157.50 1101.12 159.45   Q 1101.20 160.14 1100.51 160.13   L 1063.33 160.00   Q 1062.56 159.99 1062.78 159.26   L 1065.14 151.09   Q 1065.31 150.50 1065.93 150.50   L 1071.00 150.50   Q 1072.00 150.50 1072.00 149.50   L 1072.00 100.38   A 2.98 2.93 -60.3 0 0 1071.61 98.91   L 1040.48 44.58   Q 1040.15 44.01 1039.49 44.01   L 1035.34 43.99   Q 1034.71 43.99 1034.56 43.37   L 1032.40 34.81   A 0.65 0.65 0.0 0 1 1033.03 34.00   L 1067.94 34.00   A 0.93 0.93 0.0 0 1 1068.82 35.22   C 1067.98 37.75 1067.55 43.79 1064.23 44.13   Q 1063.46 44.21 1063.85 44.88   L 1081.76 75.89   Q 1082.16 76.58 1082.56 75.89   Z"
       id="path178"
       style="fill:url(#linearGradient9139);fill-opacity:1" />
  </g>
  <g
     fill="#ffffff"
     id="g210">
    <path
       d="   M 343.21 151.25   C 305.51 201.66 233.93 202.20 195.04 153.00   C 178.37 130.57 172.09 102.83 178.55 75.91   C 185.59 46.58 205.23 23.40 232.83 11.66   C 286.64 -11.22 348.43 22.17 359.06 79.46   Q 366.23 118.17 343.21 151.25   Z   M 356.32 96.90   A 87.86 87.86 0.0 0 0 268.46 9.04   A 87.86 87.86 0.0 0 0 180.60 96.90   A 87.86 87.86 0.0 0 0 268.46 184.76   A 87.86 87.86 0.0 0 0 356.32 96.90   Z"
       id="path182" />
    <path
       d="   M 1037.00 137.71   C 1008.28 174.95 954.66 174.99 926.29 137.25   C 906.34 108.55 909.63 69.90 935.51 46.33   C 975.84 9.60 1041.02 32.19 1049.41 86.24   Q 1053.71 113.95 1037.00 137.71   Z   M 1046.12 96.92   A 64.29 64.29 0.0 0 0 981.83 32.63   A 64.29 64.29 0.0 0 0 917.54 96.92   A 64.29 64.29 0.0 0 0 981.83 161.21   A 64.29 64.29 0.0 0 0 1046.12 96.92   Z"
       id="path184" />
    <path
       d="   M 147.51 164.93   L 114.56 165.00   Q 110.00 164.42 109.42 160.91   C 108.56 155.76 113.67 150.87 112.04 145.18   Q 103.95 116.99 96.08 88.88   A 0.19 0.19 0.0 0 0 95.72 88.88   Q 87.99 116.95 80.02 144.89   C 78.95 148.60 80.53 152.06 81.60 155.55   C 83.08 160.40 83.09 164.54 77.00 165.04   L 44.00 165.04   C 32.48 164.15 43.07 151.03 41.49 145.43   Q 28.63 100.08 15.71 54.75   L 14.23 49.51   Q 14.10 49.06 13.67 48.86   Q 12.31 48.22 10.12 48.53   Q 5.87 42.75 5.01 35.50   C 4.46 30.86 7.33 29.78 11.40 29.77   Q 27.13 29.73 42.85 29.75   C 53.03 29.77 47.91 40.64 45.58 46.56   Q 45.40 47.00 45.03 47.32   Q 44.23 48.00 44.57 49.19   Q 52.47 77.19 60.35 105.20   Q 60.49 105.71 60.69 105.22   Q 61.35 103.57 61.84 101.82   Q 70.72 69.87 79.70 37.94   Q 80.88 33.73 81.86 31.38   Q 82.05 30.91 82.52 30.70   C 86.49 28.98 94.25 29.70 102.44 29.76   C 107.45 29.79 109.78 29.14 111.23 34.26   Q 121.29 69.84 131.21 105.47   Q 131.40 106.16 131.60 105.47   L 147.47 48.96   Q 147.61 48.47 147.37 48.01   C 144.29 42.25 138.38 29.82 149.46 29.78   Q 165.21 29.72 180.98 29.76   C 184.08 29.76 187.23 30.71 187.05 34.25   C 186.98 35.65 185.04 45.37 182.83 47.40   Q 181.39 48.73 179.33 48.53   A 1.63 1.62 10.8 0 0 177.60 49.70   Q 164.13 97.66 150.74 145.27   C 149.17 150.85 154.41 155.97 153.27 161.20   Q 152.46 164.91 147.51 164.93   Z   M 60.30 121.48   L 38.87 45.38   A 1.09 1.08 -7.9 0 1 39.92 44.00   L 41.25 44.00   Q 41.82 44.00 42.00 43.46   L 44.67 35.37   A 0.97 0.96 9.4 0 0 43.76 34.10   L 10.95 33.99   Q 9.15 33.98 9.61 35.72   L 11.60 43.16   Q 11.77 43.79 12.42 43.84   L 16.52 44.17   Q 17.41 44.24 17.66 45.10   Q 32.34 97.25 46.87 148.93   Q 47.38 150.75 45.73 151.11   Q 45.26 151.22 45.14 151.69   L 43.21 159.11   A 0.71 0.70 -82.7 0 0 43.89 160.00   L 77.43 160.00   A 0.61 0.61 0.0 0 0 78.03 159.27   Q 77.02 154.17 74.46 149.68   Q 74.22 149.25 74.35 148.77   L 95.56 73.29   A 0.34 0.34 0.0 0 1 96.21 73.29   L 117.71 148.85   Q 117.83 149.29 117.56 149.66   Q 114.51 153.78 114.14 159.01   A 0.92 0.92 0.0 0 0 115.06 160.00   L 148.46 160.00   A 0.51 0.51 0.0 0 0 148.95 159.36   C 148.17 156.55 147.50 152.00 145.33 149.96   Q 144.93 149.58 145.08 149.05   L 174.12 45.73   A 2.26 2.26 0.0 0 1 176.16 44.08   L 179.58 43.86   Q 180.26 43.82 180.43 43.16   L 182.61 34.97   Q 182.84 34.10 181.94 34.09   L 148.38 34.00   Q 147.82 33.99 147.85 34.55   C 148.00 37.98 148.56 44.85 152.42 43.91   A 0.69 0.69 0.0 0 1 153.24 44.77   L 131.70 121.31   Q 131.41 122.36 131.11 121.31   L 106.63 34.47   Q 106.49 33.97 105.98 33.97   L 86.35 34.06   Q 85.85 34.06 85.63 34.51   Q 84.93 35.95 84.49 37.50   Q 72.71 79.35 60.83 121.48   A 0.28 0.27 44.8 0 1 60.30 121.48   Z"
       id="path186" />
    <path
       d="   M 557.21 153.00   Q 542.58 164.62 524.56 164.86   Q 491.46 165.28 428.48 164.85   Q 426.39 163.15 425.52 160.96   Q 410.69 123.77 395.58 86.38   A 0.29 0.28 34.4 0 0 395.03 86.48   L 395.00 145.27   A 0.70 0.70 0.0 0 0 395.73 145.97   C 402.24 145.68 402.91 153.67 403.76 158.32   Q 405.00 165.08 398.00 165.04   L 361.50 165.04   C 356.62 164.39 355.98 161.11 357.14 156.82   C 358.30 152.55 358.77 145.56 364.83 146.09   A 1.08 1.08 0.0 0 0 366.00 145.01   L 366.00 49.81   Q 366.00 49.37 365.58 49.20   C 363.20 48.23 360.49 48.35 359.44 45.32   C 357.91 40.90 352.72 30.04 361.75 29.96   Q 381.09 29.78 400.43 29.73   C 403.96 29.73 404.75 30.79 405.98 33.80   Q 421.22 71.32 436.36 109.13   A 0.33 0.33 0.0 0 0 437.00 109.01   L 437.00 49.54   Q 437.00 49.02 436.50 48.89   Q 435.28 48.58 432.98 48.03   C 429.96 47.29 428.09 35.97 428.03 34.23   Q 427.88 30.00 432.56 29.98   Q 504.91 29.69 523.24 29.76   C 544.38 29.85 564.24 41.04 569.81 62.52   Q 571.25 68.08 571.41 81.12   Q 571.59 95.67 571.46 113.25   C 571.33 129.10 569.40 141.74 557.21 153.00   Z   M 390.57 63.30   A 0.35 0.35 0.0 0 1 391.24 63.25   L 429.94 159.43   Q 430.17 159.99 430.76 159.99   Q 475.73 160.03 520.68 159.97   Q 530.85 159.96 536.08 158.71   C 554.59 154.30 566.70 139.39 566.96 120.00   Q 567.10 109.22 566.99 81.22   Q 566.94 69.12 565.43 63.55   C 559.99 43.51 541.22 34.01 521.25 34.00   Q 477.42 33.99 433.88 34.00   A 0.92 0.92 0.0 0 0 432.96 34.98   Q 433.21 39.45 435.13 43.48   Q 435.37 43.99 435.94 44.00   L 441.35 44.01   Q 442.00 44.01 442.00 44.66   L 442.00 133.72   A 0.32 0.32 0.0 0 1 441.38 133.84   L 401.39 34.63   Q 401.14 34.01 400.47 34.01   L 361.55 34.00   A 0.61 0.61 0.0 0 0 360.96 34.78   L 363.35 42.80   A 1.68 1.68 0.0 0 0 364.96 44.00   L 369.25 44.00   A 0.75 0.75 0.0 0 1 370.00 44.75   L 370.00 150.25   Q 370.00 151.00 369.25 151.00   L 363.80 151.00   Q 363.26 151.00 363.13 151.53   L 361.25 159.30   A 0.57 0.57 0.0 0 0 361.80 160.00   L 398.93 160.00   Q 399.68 160.00 399.49 159.28   L 397.71 152.49   A 1.91 1.90 -5.8 0 0 395.96 151.07   L 391.33 150.85   Q 390.69 150.82 390.69 150.17   Q 390.82 109.08 390.72 68.01   C 390.72 66.82 390.23 64.81 390.57 63.30   Z"
       id="path188" />
    <path
       d="   M 751.25 94.71   Q 747.17 99.19 742.16 102.58   Q 741.71 102.88 741.98 103.36   L 743.31 105.74   Q 743.89 106.97 744.89 108.80   Q 745.77 110.41 746.33 111.90   Q 752.48 128.28 756.31 145.37   Q 756.43 145.94 757.01 145.97   C 763.10 146.35 763.09 146.73 765.05 152.52   C 766.93 158.05 769.17 164.94 760.22 164.97   Q 735.36 165.07 726.25 164.98   C 716.49 164.88 723.28 150.08 725.72 146.10   Q 725.98 145.68 725.87 145.20   Q 722.13 129.29 715.25 114.46   L 712.04 108.69   Q 711.80 108.25 711.29 108.25   L 699.71 108.25   Q 699.04 108.25 699.04 108.91   L 699.04 115.25   L 699.01 145.09   Q 699.01 145.66 699.56 145.81   C 702.99 146.75 705.04 146.79 706.10 150.72   C 707.55 156.02 711.38 164.69 702.14 164.84   Q 684.53 165.14 666.93 164.97   C 665.16 164.96 662.75 164.59 660.50 165.04   L 571.50 165.04   C 567.57 164.86 565.64 162.37 566.36 158.42   C 567.29 153.25 568.49 145.81 574.36 145.93   Q 575.00 145.95 575.00 145.30   L 575.00 49.56   Q 575.00 49.09 574.56 48.92   C 571.15 47.61 569.99 48.11 568.57 44.23   C 566.38 38.25 562.85 29.76 572.39 29.76   Q 643.95 29.75 715.51 29.75   C 733.66 29.75 751.70 40.83 757.95 58.17   C 762.44 70.62 760.02 84.60 751.25 94.71   Z   M 650.24 52.94   A 0.76 0.76 0.0 0 1 651.00 53.70   L 651.00 59.34   A 0.76 0.76 0.0 0 0 651.58 60.08   L 660.06 62.12   A 0.76 0.76 0.0 0 0 661.00 61.38   L 661.00 34.76   A 0.76 0.76 0.0 0 0 660.24 34.00   L 571.56 34.00   A 0.76 0.76 0.0 0 0 570.82 34.96   L 573.16 43.44   A 0.76 0.76 0.0 0 0 573.89 44.00   L 579.24 44.00   A 0.76 0.76 0.0 0 1 580.00 44.76   L 580.00 150.17   A 0.76 0.76 0.0 0 1 579.26 150.93   L 573.58 151.05   A 0.76 0.76 0.0 0 0 572.86 151.63   L 571.05 159.06   A 0.76 0.76 0.0 0 0 571.79 160.00   L 660.24 160.00   A 0.76 0.76 0.0 0 0 661.00 159.24   L 661.00 134.99   A 0.76 0.76 0.0 0 0 660.41 134.25   L 651.98 132.30   A 0.76 0.76 0.0 0 0 651.05 133.04   L 650.98 140.25   A 0.76 0.76 0.0 0 1 650.22 141.00   L 600.76 141.00   A 0.76 0.76 0.0 0 1 600.00 140.24   L 600.00 105.77   A 0.76 0.76 0.0 0 1 600.76 105.01   L 650.24 104.98   A 0.76 0.76 0.0 0 0 651.00 104.22   L 651.00 90.02   A 0.76 0.76 0.0 0 0 650.24 89.26   L 600.76 89.11   A 0.76 0.76 0.0 0 1 600.00 88.35   L 600.00 53.89   A 0.76 0.76 0.0 0 1 600.76 53.13   L 650.24 52.94   Z   M 735.52 101.21   C 756.63 89.95 762.86 65.29 745.77 47.26   C 736.73 37.72 724.80 34.16 711.74 34.08   Q 688.69 33.95 665.55 34.01   Q 664.85 34.02 665.04 34.70   L 667.48 43.18   Q 667.68 43.87 668.40 43.90   L 673.41 44.05   A 0.61 0.61 0.0 0 1 674.00 44.66   L 674.00 150.37   Q 674.00 151.00 673.37 151.00   L 667.87 151.00   Q 667.41 151.00 667.29 151.45   L 665.24 159.37   A 0.51 0.50 -82.8 0 0 665.72 160.00   L 703.06 160.00   Q 703.81 160.00 703.61 159.27   L 701.54 151.86   Q 701.39 151.31 700.82 151.26   L 695.61 150.80   Q 694.00 150.66 694.00 149.05   L 694.00 104.62   Q 694.00 104.00 694.62 104.00   L 713.22 104.00   Q 713.73 104.00 714.09 104.36   Q 718.29 108.68 720.85 115.18   Q 727.42 131.81 732.07 149.48   A 1.16 1.16 0.0 0 1 731.09 150.93   L 728.22 151.29   Q 727.56 151.37 727.42 152.02   L 725.85 159.17   A 0.69 0.68 6.1 0 0 726.52 160.00   L 761.31 160.00   Q 762.22 160.00 761.98 159.13   L 759.92 151.60   Q 759.76 151.00 759.14 151.00   L 754.71 151.00   A 1.75 1.75 0.0 0 1 753.03 149.73   C 748.48 133.40 744.97 116.19 735.34 101.94   Q 735.02 101.47 735.52 101.21   Z   M 648.75 63.96   C 646.69 62.75 647.11 60.48 646.64 58.50   Q 646.53 58.00 646.01 58.00   L 605.70 58.00   Q 605.05 58.00 605.05 58.65   L 605.04 65.00   L 605.01 84.50   A 0.49 0.49 0.0 0 0 605.50 84.99   Q 628.47 84.96 651.43 85.16   Q 655.28 85.19 655.68 88.49   Q 656.04 91.50 656.01 103.50   C 655.99 108.74 653.35 109.58 648.58 109.75   Q 641.94 109.99 635.21 110.17   L 605.69 110.06   Q 605.10 110.05 605.09 110.64   L 605.04 117.00   L 605.05 135.42   Q 605.06 136.01 605.64 136.01   L 646.25 136.00   Q 646.73 136.00 646.73 135.52   C 646.70 125.98 651.53 127.03 658.82 129.16   C 663.09 130.41 665.92 130.74 665.95 135.49   Q 665.98 140.37 666.02 145.32   Q 666.02 146.00 666.70 146.00   L 669.12 146.00   Q 669.75 146.00 669.75 145.37   L 669.75 49.75   Q 669.75 49.21 669.23 49.07   L 666.58 48.36   Q 666.01 48.21 666.01 48.79   C 665.99 52.44 666.94 62.42 664.88 65.16   C 662.09 68.87 652.54 65.13 648.75 63.96   Z"
       id="path190" />
    <path
       d="   M 908.71 147.25   Q 898.83 158.87 884.75 162.73   Q 879.06 164.29 867.71 164.44   Q 843.23 164.74 818.75 164.54   C 813.77 164.37 813.29 161.03 814.36 156.91   C 816.00 150.66 815.70 146.86 822.14 146.22   Q 822.75 146.16 822.75 145.55   L 822.75 48.96   Q 822.75 48.36 822.15 48.38   C 815.95 48.58 815.75 42.41 814.49 38.11   C 813.04 33.10 813.94 29.88 819.76 29.82   Q 839.09 29.62 867.75 30.05   C 901.83 30.55 927.22 64.86 904.15 95.09   Q 903.83 95.51 904.21 95.88   C 918.85 109.87 921.09 131.00 908.71 147.25   Z   M 826.38 150.49   L 821.11 150.51   Q 820.56 150.51 820.41 151.04   L 818.10 159.31   Q 817.97 159.77 818.44 159.85   C 821.93 160.48 826.32 159.92 828.64 159.96   Q 863.45 160.53 872.69 160.22   Q 889.06 159.68 900.84 149.34   C 917.64 134.58 915.94 109.12 897.77 96.37   A 0.32 0.31 -50.3 0 1 897.73 95.89   C 910.29 83.16 912.53 63.43 900.83 49.39   Q 888.24 34.29 867.24 34.11   Q 842.79 33.91 818.47 34.03   A 0.56 0.56 0.0 0 0 817.93 34.75   L 820.40 43.49   Q 820.55 44.00 821.07 44.00   L 826.25 44.00   Q 827.00 44.00 827.00 44.75   L 827.00 149.87   Q 827.00 150.49 826.38 150.49   Z"
       id="path192" />
    <path
       d="   M 1130.25 48.04   Q 1126.43 47.45 1125.25 50.71   Q 1111.36 74.74 1097.71 98.94   Q 1096.70 100.73 1096.68 102.78   Q 1096.54 124.28 1096.84 145.74   Q 1096.85 146.24 1097.35 146.23   Q 1102.30 146.17 1103.32 150.41   C 1104.57 155.62 1108.95 164.36 1100.00 164.79   L 1063.75 164.54   C 1055.08 164.58 1059.86 154.82 1060.84 150.72   Q 1061.95 146.10 1066.96 146.27   Q 1067.51 146.29 1067.51 145.75   Q 1067.47 124.28 1067.54 102.87   Q 1067.54 100.77 1066.51 98.94   Q 1052.23 73.70 1037.75 48.59   Q 1037.49 48.13 1036.97 48.20   Q 1031.61 48.92 1030.26 43.88   C 1029.14 39.67 1025.11 30.31 1033.06 30.02   Q 1055.19 29.24 1068.50 29.93   C 1076.55 30.35 1071.05 42.14 1069.97 46.23   Q 1069.83 46.74 1070.10 47.19   L 1081.79 67.38   Q 1082.17 68.03 1082.54 67.38   L 1094.29 46.80   Q 1094.55 46.34 1094.38 45.83   C 1091.87 38.17 1087.06 29.84 1099.42 29.78   Q 1114.81 29.69 1130.23 29.78   C 1139.39 29.84 1135.08 39.30 1133.65 43.92   Q 1132.63 47.23 1130.25 48.04   Z   M 1081.76 75.89   L 1063.85 44.88   Q 1063.46 44.21 1064.23 44.13   C 1067.55 43.79 1067.98 37.75 1068.82 35.22   A 0.93 0.93 0.0 0 0 1067.94 34.00   L 1033.03 34.00   A 0.65 0.65 0.0 0 0 1032.40 34.81   L 1034.56 43.37   Q 1034.71 43.99 1035.34 43.99   L 1039.49 44.01   Q 1040.15 44.01 1040.48 44.58   L 1071.61 98.91   A 2.98 2.93 -60.3 0 1 1072.00 100.38   L 1072.00 149.50   Q 1072.00 150.50 1071.00 150.50   L 1065.93 150.50   Q 1065.31 150.50 1065.14 151.09   L 1062.78 159.26   Q 1062.56 159.99 1063.33 160.00   L 1100.51 160.13   Q 1101.20 160.14 1101.12 159.45   C 1100.89 157.50 1099.69 150.18 1096.99 150.43   Q 1094.76 150.65 1092.89 150.39   A 1.03 1.03 0.0 0 1 1092.00 149.37   Q 1091.99 125.37 1092.01 101.47   C 1092.01 100.55 1092.32 99.44 1092.74 98.71   Q 1110.69 67.63 1121.19 48.93   Q 1122.67 46.30 1123.90 44.46   Q 1124.17 44.05 1124.65 44.04   L 1128.76 43.92   Q 1129.46 43.90 1129.65 43.23   L 1131.84 35.17   A 0.93 0.92 -82.3 0 0 1130.95 34.00   L 1096.16 34.00   A 0.58 0.58 0.0 0 0 1095.60 34.73   L 1097.86 43.39   Q 1098.02 44.00 1098.65 44.00   L 1100.00 44.00   Q 1100.86 44.00 1100.43 44.74   L 1082.56 75.89   Q 1082.16 76.58 1081.76 75.89   Z"
       id="path194" />
    <path
       d="   M 329.67 96.98   A 61.22 61.22 0.0 0 1 268.45 158.20   A 61.22 61.22 0.0 0 1 207.23 96.98   A 61.22 61.22 0.0 0 1 268.45 35.76   A 61.22 61.22 0.0 0 1 329.67 96.98   Z   M 217.29 72.75   Q 206.09 97.17 217.58 121.51   C 238.71 166.23 302.58 163.13 320.96 118.22   Q 330.68 94.47 318.75 71.21   C 298.00 29.06 237.08 30.60 217.29 72.75   Z"
       id="path196" />
    <path
       d="   M 468.81 43.52   L 470.21 38.42   Q 470.42 37.66 470.99 38.20   C 472.57 39.73 471.51 41.56 472.43 42.92   C 473.72 44.82 476.65 43.66 478.74 44.10   Q 479.25 44.21 479.25 44.73   L 479.25 149.83   A 1.12 1.12 0.0 0 1 478.17 150.95   L 473.33 151.11   A 1.45 1.44 -6.3 0 0 471.96 152.82   Q 472.40 155.11 470.92 156.76   A 0.53 0.53 0.0 0 1 470.00 156.36   Q 470.26 153.67 468.71 151.40   Q 468.45 151.00 467.97 151.00   L 462.50 151.00   Q 462.00 151.00 462.00 150.50   L 462.00 44.62   A 0.63 0.62 -0.0 0 1 462.63 44.00   L 468.19 44.00   Q 468.68 44.00 468.81 43.52   Z   M 475.00 49.57   A 1.13 1.13 0.0 0 0 473.87 48.44   L 467.63 48.44   A 1.13 1.13 0.0 0 0 466.50 49.57   L 466.50 144.99   A 1.13 1.13 0.0 0 0 467.63 146.12   L 473.87 146.12   A 1.13 1.13 0.0 0 0 475.00 144.99   L 475.00 49.57   Z"
       id="path198" />
    <path
       d="   M 499.91 54.19   A 0.64 0.64 0.0 0 1 500.55 53.55   L 524.93 53.51   A 21.78 20.89 -0.1 0 1 546.75 74.36   L 546.83 120.10   A 21.78 20.89 -0.1 0 1 525.09 141.03   L 500.71 141.07   A 0.64 0.64 0.0 0 1 500.07 140.43   L 499.91 54.19   Z   M 504.79 64.25   C 504.90 67.60 504.42 71.26 504.46 74.25   Q 504.80 104.97 504.76 135.70   Q 504.76 136.20 505.26 136.21   Q 515.54 136.39 525.81 136.08   C 539.05 135.68 541.97 127.52 541.99 115.90   Q 542.07 83.07 541.97 73.82   Q 541.95 72.08 541.23 69.42   Q 537.35 58.71 525.18 58.36   Q 510.28 57.94 505.26 57.95   Q 504.66 57.95 504.67 58.55   L 504.79 64.25   Z"
       id="path200" />
    <path
       d="   M 693.97 54.59   A 1.10 1.10 0.0 0 1 695.07 53.48   L 712.63 53.45   A 22.58 18.61 -0.1 0 1 735.24 72.02   L 735.24 72.36   A 22.58 18.61 -0.1 0 1 712.69 91.01   L 695.13 91.04   A 1.10 1.10 0.0 0 1 694.03 89.95   L 693.97 54.59   Z   M 699.04 64.00   L 699.02 85.50   Q 699.02 86.03 699.55 86.02   Q 706.79 85.93 714.00 86.09   C 722.35 86.27 730.93 80.38 730.74 71.44   C 727.37 56.46 712.55 57.39 699.71 58.18   Q 699.20 58.21 699.19 58.72   L 699.04 64.00   Z"
       id="path202" />
    <path
       d="   M 847.22 54.77   A 1.17 1.17 0.0 0 1 848.39 53.59   L 865.66 53.56   A 22.36 18.62 -0.1 0 1 888.05 72.14   L 888.05 72.32   A 22.36 18.62 -0.1 0 1 865.72 90.98   L 848.45 91.01   A 1.17 1.17 0.0 0 1 847.28 89.85   L 847.22 54.77   Z   M 851.77 64.90   L 851.77 85.97   Q 851.77 86.48 852.28 86.48   C 858.74 86.54 868.22 87.47 873.72 85.24   C 879.32 82.97 884.14 77.69 883.90 71.22   C 879.77 54.99 864.84 58.27 852.28 57.82   Q 851.77 57.80 851.77 58.31   L 851.77 64.90   Z"
       id="path204" />
    <path
       d="   M 1019.41 96.93   A 37.59 37.59 0.0 0 1 981.82 134.52   A 37.59 37.59 0.0 0 1 944.23 96.93   A 37.59 37.59 0.0 0 1 981.82 59.34   A 37.59 37.59 0.0 0 1 1019.41 96.93   Z   M 951.34 83.62   C 950.56 85.87 949.49 88.28 949.13 90.54   C 943.80 123.78 983.76 144.66 1006.66 119.16   C 1014.59 110.34 1017.31 97.65 1013.25 86.21   C 1002.42 57.15 964.83 55.89 951.34 83.62   Z"
       id="path206" />
    <path
       d="   M 847.25 104.86   A 0.92 0.92 0.0 0 1 848.17 103.94   L 871.34 103.94   A 20.71 18.39 -0.0 0 1 892.05 122.33   L 892.05 122.63   A 20.71 18.39 -0.0 0 1 871.34 141.02   L 848.17 141.02   A 0.92 0.92 0.0 0 1 847.25 140.10   L 847.25 104.86   Z   M 851.79 114.25   L 851.79 135.95   Q 851.79 136.43 852.28 136.45   Q 861.82 136.76 871.09 136.49   C 881.01 136.21 887.95 131.16 887.89 120.36   C 885.16 111.31 879.11 108.60 869.78 108.19   Q 861.05 107.80 852.27 108.06   Q 851.77 108.08 851.77 108.58   L 851.79 114.25   Z"
       id="path208" />
  </g>
  <g
     fill="#000000"
     id="g232">
    <path
       d="m 255.56,0 h 24.5 c 23.24667,2.8933333 42.81333,12.58 58.7,29.06 4.06,4.2 7.95,9.74 11.73,14.69 0.18203,0.249655 0.5773,0.108485 0.56,-0.2 -0.0733,-2.12 -0.13667,-4.23 -0.19,-6.33 -0.32,-12.52 8.17,-13.11 18.14,-13.18 12.52667,-0.09333 23.00667,0 31.44,0.28 6,0.19 9.5,4.06 11.34,9.18 2.99,8.34 6.06,15.05 8.96,22.99 1.97,5.4 4.89,10.05 6.47,15.67 0.80667,2.846667 1.94333,5.576667 3.41,8.19 0.16667,0.293333 0.21667,0.603333 0.15,0.93 -0.13333,0.666667 0.0733,1.14 0.62,1.42 0.40667,0.206667 0.61,0.08 0.61,-0.38 V 65.79 c -3.6e-4,-0.52227 -0.38811,-0.965417 -0.91,-1.04 -2.51,-0.37 -3.75,-1.58 -4.54,-4.08 -2.77,-8.69 -5.83,-16.77 -4.27,-26.05 1.8,-10.72 9,-10.59 18.72,-10.6 24.01333,-0.03333 48.02667,-0.03 72.04,0.01 17.29,0.03 33.74,1.7 47.38,13.64 0.2949,0.254876 0.74776,0.0055 0.69,-0.38 -1.97,-11.51 7.18,-13.18 15.89,-13.22 26.22,-0.14 52.44,-0.116667 78.66,0.07 20.43791,0.518566 42.20207,-1.069253 61.08,0.32 20.41,1.58 40.09,12.25 46.37,32.8 2.72,8.9 2.29,17.22 1.86,27.74 -0.46,11.16 -4.52,20.41 -12.18,27.75 -0.25333,0.24 -0.32,0.52333 -0.2,0.85 3.13333,8.64667 5.61,17.48667 7.43,26.52 0.0733,0.35333 0.28667,0.57 0.64,0.65 8.63,1.95 8.72,7.81 10.37,15.17 1.51,6.73 3.31,20.57 -3.69,24.8 -1.44667,0.87333 -3.57333,1.30333 -6.38,1.29 -11.16667,-0.0467 -22.33667,-0.0533 -33.51,-0.02 -13.38,0.04 -12.53,-9.8 -12.48,-19.97 0.03,-5.93 4.24,-9.9 2.1,-16.16 -2.13,-6.24 -3.49,-12.04 -7.6,-18.6 -0.98667,-1.58 -2.67,-1.93667 -5.05,-1.07 -0.28,0.1 -0.42,0.3 -0.42,0.6 v 14.22 c 0,0.38 0.19,0.6 0.57,0.66 2.3,0.36 3.94,1.88667 4.92,4.58 1.96,5.36 4.18,10.62 4.52,16.29 0.52,8.49 0.28,19.45 -10.96,19.45 -44.84,-0.0133 -89.68,-0.0167 -134.52,-0.01 -1.05931,-0.0903 -2.01144,-0.12951 -2.77,-0.63 -3.46667,-3.11333 -5.06,-7 -4.78,-11.66 0.0356,-0.45059 -0.50588,-0.70504 -0.83,-0.39 -9.31,8.65 -22.7,12.66 -35.2,12.67 -31.47333,0.0133 -62.95,0.0167 -94.43,0.01 -5.37,0 -9.19,-3.47 -10.53,-8.44 -1.66,-6.12 -5.17,-12.29 -6.51,-16.3 -1.55333,-4.67333 -3.39,-9.22 -5.51,-13.64 -2.63078,-6.14283 -5.06473,-12.9936 -7.25,-18.73 -0.48,-0.67333 -0.72,-0.6 -0.72,0.22 v 16.18 c 0,0.44667 0.21667,0.71333 0.65,0.8 2.84667,0.56 4.62333,2.10667 5.33,4.64 2.94,10.54 8.38,25.38 -1.11,34.46 -0.25333,0.24667 -0.55667,0.38333 -0.91,0.41 -13.32,1.03 -27.12,0.39 -40.5,0.38 -14.21,-0.01 -12.79,-8.33 -12.41,-19.51 0.0207,-0.39984 -0.50744,-0.559 -0.73,-0.22 -15.44,23.73 -40.08,39.81 -68.26,43.55 -3.44667,0.46 -6.90333,0.86 -10.37,1.2 h -5.75 c -5.93333,-0.78 -11.85333,-1.68 -17.76,-2.7 -34.41,-5.96 -61.96,-32.88 -72.65,-65.17 -3.47,-10.48 -4.61,-21.38 -4.54,-32.45 0.009,-0.41829 -0.59107,-0.49651 -0.69,-0.09 -1.22,4.91 -3.03,9.78 -4.13,14.63 -1.5,6.58 -3.34667,13.06 -5.54,19.44 -1.06667,3.10667 -1.78,6.27333 -2.14,9.5 -1.04,9.34 6.56,31.79 -9.51,31.83 -11.32,0.0267 -22.63333,0.0233 -33.94,-0.01 -18.48,-0.05 -8.42,-22.59 -10.83,-32.81 -1.63364,-10.19539 -4.831993,-18.41835 -7.24,-27.4 -0.02,-0.28667 -0.17,-0.46 -0.45,-0.52 -0.113333,-0.02 -0.23,-0.0133 -0.35,0.02 -0.286667,0.08 -0.48,0.26 -0.58,0.54 -3.92,11.09 -7.863549,21.4322 -8.87,30.95 -0.1,0.30667 -0.11,0.62 -0.03,0.94 1.7,6.64 4.1,22.42 -3.4,27.01 -1.46,0.89333 -3.72,1.33333 -6.78,1.32 -10.4,-0.0333 -20.796667,-0.0467 -31.19,-0.04 -5.92,0 -9.9,-0.92 -11.38,-6.94 -1.586667,-6.42 -1.503333,-12.75333 0.25,-19 0.83,-2.97 0.27,-5.76 -0.7,-8.25 -2.193333,-5.64667 -3.963333,-11.41333 -5.31,-17.3 -1.42,-6.22 -2.99,-11.14 -4.71,-16.77 C 22.04,109.08 10.75,65.81 9.4,65.32 1.61,62.47 1.02,55.18 0,47.19 V 31.94 c 2.38,-6.59 6.29,-7.63 13.19,-7.8 8.886667,-0.213333 17.776667,-0.23 26.67,-0.05 4.08,0.08 7.083333,0.636667 9.01,1.67 9.79,5.23 6.53,21.49 3.19,29.94 -0.126667,0.313333 -0.14,0.633333 -0.04,0.96 2.86,9.25 4.76,18.6 7.93,27.77 0.113333,0.326667 0.136667,0.663333 0.07,1.01 -0.08667,0.446667 -0.05667,0.88 0.09,1.3 0.26,0.706667 0.473333,0.693333 0.64,-0.04 4.3735,-19.142002 10.968494,-36.798553 15.31,-55.1 2.24,-10.05 22.5,-8 29.46,-7.41 6.13,0.52 10.49,4.52 11.44,10.54 2.71312,10.647547 5.12774,19.381263 7.8,29.27 1.28667,4.613333 3.47,11.506667 6.55,20.68 0.16,0.466667 0.35,0.483333 0.57,0.05 0.14,-0.266667 0.18333,-0.56 0.13,-0.88 -0.06,-0.346667 -0.0267,-0.68 0.1,-1 3.26,-8.306667 5.63667,-16.856667 7.13,-25.65 0.45,-2.65 -0.82,-4.33 -0.97,-6.7 -0.17333,-2.853333 -0.35667,-9.02 -0.55,-18.5 -0.11,-5.44 8.59,-7.97 12.72,-7.99 6.03333,-0.03333 15.80333,-0.01333 29.31,0.06 7.6,0.03 10.25,3.08 13.5,9.47 0.19333,0.38 0.42667,0.41 0.7,0.09 C 210.25667,14.883333 230.79333,3.6733333 255.56,0 Z m -60.52,153 c -0.08,0.45333 -0.29333,0.82667 -0.64,1.12 -0.24667,0.21333 -0.28667,0.46 -0.12,0.74 16.9,27.99 45.45,42.42 77.72,42.2 3.2,-0.02 6.31,-1.54 10.09,-0.95 0.34,0.0533 0.65,-0.02 0.93,-0.22 1.52,-1.06 3.1,-0.83 4.35,-1.13 24.84667,-6.04667 43.71,-20.07 56.59,-42.07 0.16667,-0.28 0.13667,-0.53667 -0.09,-0.77 l -0.66,-0.67 c 15.34667,-22.05333 20.63,-45.98333 15.85,-71.79 -10.63,-57.29 -72.42,-90.68 -126.23,-67.8 -27.6,11.74 -47.24,34.92 -54.28,64.25 -6.46,26.92 -0.18,54.66 16.49,77.09 z M 10.12,48.53 l 1.91,5.89 c 0.218813,0.672733 0.821467,1.149341 1.53,1.21 0.726667,0.06 1.443333,-0.233333 2.15,-0.88 8.613333,30.22 17.206667,60.44667 25.78,90.68 1.58,5.6 -9.01,18.72 2.51,19.61 -0.846667,1.62667 -1.15,3.52333 -0.91,5.69 0.09333,0.84667 0.566667,1.27 1.42,1.27 h 32.25 c 0.537034,4.3e-4 0.978519,-0.4234 1,-0.96 0.08667,-2.06 -0.166667,-4.06 -0.76,-6 6.09,-0.5 6.08,-4.64 4.6,-9.49 -1.07,-3.49 -2.65,-6.95 -1.58,-10.66 5.313333,-18.62667 10.546667,-37.29667 15.7,-56.01 0.0582,-0.17223 0.301798,-0.17223 0.36,0 5.24667,18.74 10.56667,37.50667 15.96,56.3 1.63,5.69 -3.48,10.58 -2.62,15.73 0.38667,2.34 2.1,3.70333 5.14,4.09 -1.38667,2.94 -0.99,5.17333 1.19,6.7 0.29333,0.2 0.61667,0.3 0.97,0.3 h 30.82 c 0.40667,0 0.67667,-0.19 0.81,-0.57 0.80667,-2.24667 0.52667,-4.41333 -0.84,-6.5 3.3,-0.0133 5.22,-1.25667 5.76,-3.73 1.14,-5.23 -4.1,-10.35 -2.53,-15.93 8.92667,-31.74 17.88,-63.596667 26.86,-95.57 0.21395,-0.756252 0.9433,-1.249509 1.73,-1.17 1.37333,0.133333 2.54,-0.243333 3.5,-1.13 2.21,-2.03 4.15,-11.75 4.22,-13.15 0.18,-3.54 -2.97,-4.49 -6.07,-4.49 -10.51333,-0.02667 -21.02,-0.02 -31.52,0.02 -11.08,0.04 -5.17,12.47 -2.09,18.23 0.16,0.306667 0.19333,0.623333 0.1,0.95 l -15.87,56.51 c -0.13333,0.46 -0.26333,0.46 -0.39,0 -6.61333,-23.753333 -13.27333,-47.49 -19.98,-71.21 -1.45,-5.12 -3.78,-4.47 -8.79,-4.5 -8.19,-0.06 -15.95,-0.78 -19.92,0.94 -0.313333,0.14 -0.533333,0.366667 -0.66,0.68 -0.653333,1.566667 -1.373333,3.753333 -2.16,6.56 -5.986667,21.286667 -11.94,42.58 -17.86,63.88 -0.326667,1.16667 -0.71,2.3 -1.15,3.4 -0.133333,0.32667 -0.246667,0.32 -0.34,-0.02 C 55.096667,86.526667 49.836667,67.856667 44.57,49.19 c -0.226667,-0.793333 -0.07333,-1.416667 0.46,-1.87 0.246667,-0.213333 0.43,-0.466667 0.55,-0.76 2.33,-5.92 7.45,-16.79 -2.73,-16.81 -10.48,-0.01333 -20.963333,-0.0067 -31.45,0.02 -4.07,0.01 -6.94,1.09 -6.39,5.73 0.5733333,4.833333 2.2766667,9.176667 5.11,13.03 z m 351.38,116.51 -0.15,5.92 c -0.0169,0.57501 0.44474,1.05025 1.02,1.05 l 36.34,-0.03 c 0.35333,0 0.58,-0.17333 0.68,-0.52 0.72,-2.48667 0.25667,-4.62667 -1.39,-6.42 4.66667,0.0267 6.58667,-2.21333 5.76,-6.72 -0.85,-4.65 -1.52,-12.64 -8.03,-12.35 -0.39826,0.0171 -0.73037,-0.30138 -0.73,-0.7 l 0.03,-58.79 c -0.006,-0.31025 0.42507,-0.388589 0.55,-0.1 10.07333,24.92667 20.05333,49.78667 29.94,74.58 0.58,1.46 1.56667,2.75667 2.96,3.89 -0.45333,2.30667 0.26667,4.53667 2.16,6.69 0.22667,0.26 0.51,0.39 0.85,0.39 30.26667,0.11333 60.53,0.12 90.79,0.02 15.73,-0.05 29.8,-5.13 38.49,-18.92 0.10667,-0.16667 0.10333,-0.33 -0.01,-0.49 -0.15333,-0.20667 -0.33,-0.23333 -0.53,-0.08 -0.89333,0.69333 -1.9,0.87333 -3.02,0.54 12.19,-11.26 14.12,-23.9 14.25,-39.75 0.0867,-11.72 0.07,-22.43 -0.05,-32.13 -0.10667,-8.693333 -0.64,-14.893333 -1.6,-18.6 -5.57,-21.48 -25.43,-32.67 -46.57,-32.76 -12.22,-0.04667 -42.44667,0.02667 -90.68,0.22 -3.12,0.01333 -4.63,1.43 -4.53,4.25 0.06,1.74 1.93,13.06 4.95,13.8 1.53333,0.366667 2.70667,0.653333 3.52,0.86 0.33333,0.08667 0.5,0.303333 0.5,0.65 v 59.47 c 0.008,0.37311 -0.51229,0.47067 -0.64,0.12 -10.09333,-25.206667 -20.22,-50.316667 -30.38,-75.33 -1.23,-3.01 -2.02,-4.07 -5.55,-4.07 -12.89333,0.03333 -25.78667,0.11 -38.68,0.23 -9.03,0.08 -3.84,10.94 -2.31,15.36 1.05,3.03 3.76,2.91 6.14,3.88 0.28,0.113333 0.42,0.316667 0.42,0.61 v 95.2 c 0.002,0.63346 -0.53874,1.13279 -1.17,1.08 -6.06,-0.53 -6.53,6.46 -7.69,10.73 -1.16,4.29 -0.52,7.57 4.36,8.22 z m 210,0 -0.46,5.62 c -0.0588,0.69071 0.48265,1.28304 1.17,1.28 l 87.75,0.09 c 0.41663,1.5e-4 0.75126,-0.34352 0.74,-0.76 l -0.2,-6.23 c 2.25,-0.45 4.66,-0.08 6.43,-0.07 11.73333,0.11333 23.47,0.07 35.21,-0.13 9.24,-0.15 5.41,-8.82 3.96,-14.12 -1.06,-3.93 -3.11,-3.97 -6.54,-4.91 -0.36667,-0.1 -0.55,-0.34 -0.55,-0.72 l 0.03,-29.84 c 4.82,0.71 10.23,0.7 15.07,0.59 0.31333,-0.007 0.5,-0.16333 0.56,-0.47 0.0733,-0.38667 0.26667,-0.69 0.58,-0.91 4.58667,9.88667 8.12667,20.13333 10.62,30.74 0.0733,0.32 0.0233,0.62 -0.15,0.9 -2.44,3.98 -9.23,18.78 0.53,18.88 6.07333,0.06 17.39667,0.0567 33.97,-0.01 8.95,-0.03 6.71,-6.92 4.83,-12.45 -1.96,-5.79 -1.95,-6.17 -8.04,-6.55 -0.38667,-0.02 -0.62,-0.22 -0.7,-0.6 -2.55333,-11.39333 -5.88,-22.55 -9.98,-33.47 -0.84677,-2.22547 -2.02507,-4.05945 -3.02,-6.16 4.58667,-1.81333 7.52,-5.17667 8.8,-10.09 0.0533,-0.193333 -0.003,-0.346667 -0.17,-0.46 l -0.69,-0.48 c 8.77,-10.11 11.19,-24.09 6.7,-36.54 -6.25,-17.34 -24.29,-28.42 -42.44,-28.42 -47.70667,0 -95.41333,0.0033 -143.12,0.01 -9.54,0 -6.01,8.49 -3.82,14.47 1.42,3.88 2.58,3.38 5.99,4.69 0.29333,0.113333 0.44,0.326667 0.44,0.64 v 95.74 c 0,0.43333 -0.21333,0.64333 -0.64,0.63 -5.87,-0.12 -7.07,7.32 -8,12.49 -0.72,3.95 1.21,6.44 5.14,6.62 z"
       id="path212"
       sodipodi:nodetypes="ccccccccccccccsccccccccccccccccccccsccccssccccccccccccccsscccccccccccccccccccccccccccccccccccccccccccccccccccccccccccccccccccccccccccccccccccscccccccccccsscccccccccccccccccccccccccccccccccccccccccccccccccccccccccscccccccsccccccccccccccccccccccccccccccccscccssccc" />
    <path
       d="m 1141,30.31 v 19.5 c -1.05,6.88 -2.91,13.91 -10.49,15.85 -0.3267,0.08667 -0.5767,0.273333 -0.75,0.56 -8.9333,15.033333 -17.7,30.143333 -26.3,45.33 -0.3267,0.57333 -0.71,1.10667 -1.15,1.6 -0.2067,0.24 -0.31,0.51667 -0.31,0.83 v 27.29 c 0,0.4 0.1933,0.64667 0.58,0.74 2.9067,0.72667 4.6667,2.38333 5.28,4.97 2.27,9.66 5.74,15.9 3.42,26.5 -1.22,5.54 -4.26,8.58 -10.09,8.55 -11.86,-0.0467 -23.71,-0.0533 -35.55,-0.02 -3.7533,0.0133 -6.44,-0.41 -8.06,-1.27 -8.91,-4.72 -5.71,-22.22 -2.47,-29.56 1.71,-3.89 1.82,-7.27 6.54,-9.43 0.2333,-0.11333 0.35,-0.29667 0.35,-0.55 v -27.24 c -0.5312,-3.32135 -4.9351,-6.46962 -5.04,-9.51 -0.01,-0.34667 -0.1833,-0.49667 -0.53,-0.45 l -0.28,0.04 c -0.26,0.0333 -0.3767,0.18 -0.35,0.44 -0.032,9.62501 -1.3285,23.57987 -5.01,32.06 -23.33,54.26 -94.14,63.75 -129.39,15.58 -0.21333,-0.29333 -0.32333,-0.62333 -0.33,-0.99 -0.007,-0.33333 -0.14333,-0.6 -0.41,-0.8 -0.33333,-0.24667 -0.57333,-0.17667 -0.72,0.21 -7.17,18.92 -26.34,31.45 -46.44,31.45 -17.84667,-0.007 -35.69333,0.003 -53.54,0.03 -3.3,0.007 -5.69333,-0.44667 -7.18,-1.36 -6.73,-4.12 -5.36,-18 -3.78,-24.42 1.14245,-3.82965 1.81188,-6.94669 3.29,-10.91 l 2.91,-2.91 c 0.25333,-0.24667 0.55333,-0.39667 0.9,-0.45 0.74667,-0.1 1.26667,-0.46667 1.56,-1.1 0.14,-0.3 0.0933,-0.57 -0.14,-0.81 l -0.3,-0.3 C 817.07333,139.61333 817,139.43667 817,139.23 V 67.21 c 0,-0.326667 0.10667,-0.613333 0.32,-0.86 l 0.66,-0.76 c 0.32,-0.366667 0.24,-0.583333 -0.24,-0.65 -3.71,-0.53 -5.26,-2.46 -6.26,-6.1 -1.43,-5.26 -3.43,-10.44 -3.47,-15.95 -0.05,-6.96 -0.67,-13.14 5.63,-17.72 1.65724,-0.969783 4.1856,-1.137589 5.88,-1.16 15.32667,-0.02 30.64667,-0.02 45.96,0 14.46328,1.001846 22.75535,2.942192 32.88,9.87 7.7058,7.993547 17.64,14.572079 17.64,25.57 0,0.426667 0.21333,0.626667 0.64,0.6 1.29333,-0.06667 2.11667,-0.76 2.47,-2.08 3.83786,-7.279665 9.48671,-12.410569 15.05,-17.5 10.99643,-9.590177 25.30959,-15.922347 37.83,-17.47 h 18.51 c 13.153,1.418061 19.9611,5.219878 31.83,11.74 0.3267,0.18 0.5067,0.08667 0.54,-0.28 0.2533,-3.013333 1.3667,-5.7 3.34,-8.06 2.3819,-1.305301 4.1674,-2.083581 7.06,-2.4 h 34.47 c 3.3649,0.226987 8.0317,2.282594 9.05,4.54 3.7228,5.947168 2.21,12.620713 2.21,19.43 0,0.266667 -0.097,0.496667 -0.29,0.69 l -0.26,0.27 c -0.2267,0.226667 -0.27,0.483333 -0.13,0.77 0.8309,2.32549 1.4246,4.416541 2.77,5.98 0.7081,0.544756 1.7311,0.36423 2.21,-0.39 l 3.38,-5.34 c 0.2333,-0.366667 0.1967,-0.7 -0.11,-1 l -0.19,-0.2 C 1086.1267,48.503333 1086,48.2 1086,47.84 V 33.05 c 0.8056,-4.827603 3.1271,-7.471441 10.02,-9.05 h 34.74 c 4.2147,-0.03747 8.7313,2.624305 10.24,6.31 z m -214.71,106.94 -0.68,1.39 c -0.16,0.31333 -0.15,0.62 0.03,0.92 11.90667,20.62667 29.28333,31.74667 52.13,33.36 24.48,1.73 49.16,-11.44 60.07,-34.06 0.1533,-0.32 0.08,-0.57333 -0.22,-0.76 l -0.62,-0.39 c 11.14,-15.84 15.2767,-32.99667 12.41,-51.47 -8.39,-54.05 -73.57,-76.64 -113.9,-39.91 -25.88,23.57 -29.17,62.22 -9.22,90.92 z m -107.54,27.29 c -0.64,2.32 -0.76,4.50333 -0.36,6.55 0.10484,0.5185 0.56101,0.89096 1.09,0.89 16.38667,0.04 32.75,0.0367 49.09,-0.01 6.32667,-0.02 11.18,-0.49 14.56,-1.41 11.2,-3.06 20.97,-10.29 26.06,-21.15 0.14,-0.3 0.15,-0.60333 0.03,-0.91 l -0.51,-1.25 c 12.38,-16.25 10.14,-37.38 -4.5,-51.37 -0.25333,-0.246667 -0.27333,-0.51 -0.06,-0.79 23.07,-30.23 -2.32,-64.54 -36.4,-65.04 -19.10667,-0.286667 -35.10333,-0.363333 -47.99,-0.23 -5.82,0.06 -6.72,3.28 -5.27,8.29 1.26,4.3 1.46,10.47 7.66,10.27 0.4,-0.01333 0.6,0.18 0.6,0.58 v 96.59 c 0,0.40667 -0.20333,0.63 -0.61,0.67 -6.44,0.64 -6.14,4.44 -7.78,10.69 -1.07,4.12 -0.59,7.46 4.39,7.63 z m 245,0 c -0.19,1.79 -1.89,7.45 0.74,7.46 11.84,0.007 23.5233,0.007 35.05,0 0.6033,-0.007 1.1037,-0.46437 1.16,-1.06 0.2267,-2.36667 -0.01,-4.41667 -0.7,-6.15 8.95,-0.43 4.57,-9.17 3.32,-14.38 -0.68,-2.82667 -2.67,-4.22 -5.97,-4.18 -0.3333,0.007 -0.5033,-0.15667 -0.51,-0.49 -0.2,-14.30667 -0.2533,-28.62667 -0.16,-42.96 0.013,-1.36667 0.3567,-2.64667 1.03,-3.84 9.1,-16.133333 18.28,-32.21 27.54,-48.23 0.28,1.42 0.11,2.813333 -0.51,4.18 -0.1667,0.366667 -0.057,0.606667 0.33,0.72 5.18,1.53 5.8,-4.17 5.18,-7.57 1.5867,-0.54 2.72,-1.913333 3.4,-4.12 1.43,-4.62 5.74,-14.08 -3.42,-14.14 -10.28,-0.06 -20.55,-0.06 -30.81,0 -12.36,0.06 -7.55,8.39 -5.04,16.05 0.1133,0.34 0.083,0.663333 -0.09,0.97 l -11.75,20.58 c -0.2467,0.433333 -0.4967,0.433333 -0.75,0 L 1070.1,47.19 c -0.18,-0.3 -0.2233,-0.62 -0.13,-0.96 1.08,-4.09 6.58,-15.88 -1.47,-16.3 -8.8733,-0.46 -20.6867,-0.43 -35.44,0.09 -7.95,0.29 -3.92,9.65 -2.8,13.86 0.9,3.36 3.1367,4.8 6.71,4.32 0.3467,-0.04667 0.6067,0.08333 0.78,0.39 9.6533,16.74 19.24,33.523333 28.76,50.35 0.6867,1.22 1.03,2.53 1.03,3.93 -0.047,14.27333 -0.057,28.56667 -0.03,42.88 0,0.36 -0.1833,0.53333 -0.55,0.52 -3.34,-0.11333 -5.38,1.37 -6.12,4.45 -0.98,4.1 -5.76,13.86 2.91,13.82 z"
       id="path214"
       sodipodi:nodetypes="ccccccssccccccccscccccccccccccccccccsssccccccccccccccccccccccccccccccsccccccccccccscccccccccccccccsscccccccccccccccccccccccccccccsccccccc" />
    <path
       d="   M 318.75 71.21   Q 330.68 94.47 320.96 118.22   C 302.58 163.13 238.71 166.23 217.58 121.51   Q 206.09 97.17 217.29 72.75   Q 218.76 72.41 219.72 71.23   C 244.03 41.29 287.47 39.29 314.04 67.57   C 315.56 69.18 315.91 71.01 318.75 71.21   Z   M 220.74 115.84   C 237.46 156.82 294.78 159.88 314.73 119.49   C 329.72 89.15 299.61 58.10 269.51 57.61   C 248.75 57.28 230.76 68.80 221.71 87.70   C 217.21 97.11 216.69 105.91 220.74 115.84   Z"
       id="path216" />
    <rect
       x="466.50"
       y="48.44"
       width="8.50"
       height="97.68"
       rx="1.13"
       id="rect218" />
    <path
       d="   M 605.04 117.00   L 649.65 116.99   A 1.36 1.36 0.0 0 0 651.01 115.57   L 650.85 111.95   A 0.79 0.79 0.0 0 0 649.95 111.19   Q 641.40 112.36 635.21 110.17   Q 641.94 109.99 648.58 109.75   C 653.35 109.58 655.99 108.74 656.01 103.50   Q 656.04 91.50 655.68 88.49   Q 655.28 85.19 651.43 85.16   Q 628.47 84.96 605.50 84.99   A 0.49 0.49 0.0 0 1 605.01 84.50   L 605.04 65.00   Q 625.14 65.45 645.25 65.31   Q 647.35 65.30 648.75 63.96   C 652.54 65.13 662.09 68.87 664.88 65.16   C 666.94 62.42 665.99 52.44 666.01 48.79   Q 666.01 48.21 666.58 48.36   L 669.23 49.07   Q 669.75 49.21 669.75 49.75   L 669.75 145.37   Q 669.75 146.00 669.12 146.00   L 666.70 146.00   Q 666.02 146.00 666.02 145.32   Q 665.98 140.37 665.95 135.49   C 665.92 130.74 663.09 130.41 658.82 129.16   C 651.53 127.03 646.70 125.98 646.73 135.52   Q 646.73 136.00 646.25 136.00   L 605.64 136.01   Q 605.06 136.01 605.05 135.42   L 605.04 117.00   Z   M 661.46 68.80   L 652.30 66.52   A 0.30 0.30 0.0 0 0 651.94 66.74   L 651.15 69.88   A 2.14 2.00 14.0 0 0 652.75 72.34   L 658.33 73.73   A 2.14 2.00 14.0 0 0 660.89 72.31   L 661.68 69.17   A 0.30 0.30 0.0 0 0 661.46 68.80   Z   M 610.75 80.00   L 644.42 80.00   Q 645.16 80.00 644.76 79.37   C 643.44 77.25 641.90 76.01 639.17 76.01   Q 624.95 75.99 610.70 76.01   Q 610.00 76.01 610.00 76.70   L 610.00 79.25   Q 610.00 80.00 610.75 80.00   Z   M 660.86 88.10   C 660.95 93.69 662.29 119.90 659.22 123.17   Q 658.66 123.76 659.46 123.93   Q 660.74 124.19 661.69 125.03   Q 664.00 127.09 664.00 123.99   L 664.00 84.75   Q 664.00 84.00 663.25 84.00   L 660.72 84.00   Q 660.12 84.00 660.03 84.60   Q 659.81 86.01 660.56 87.15   Q 660.85 87.58 660.86 88.10   Z   M 642.37 130.66   L 642.35 127.18   A 0.26 0.26 0.0 0 0 642.09 126.92   L 611.32 127.03   A 1.35 0.58 -0.2 0 0 609.98 127.62   L 609.99 130.46   A 1.35 0.58 -0.2 0 0 611.34 131.03   L 642.11 130.92   A 0.26 0.26 0.0 0 0 642.37 130.66   Z"
       id="path220" />
    <path
       d="   M 699.04 64.00   Q 703.94 65.51 711.74 65.26   Q 721.64 64.94 730.74 71.44   C 730.93 80.38 722.35 86.27 714.00 86.09   Q 706.79 85.93 699.55 86.02   Q 699.02 86.03 699.02 85.50   L 699.04 64.00   Z   M 704.02 75.96   L 704.00 80.88   A 0.25 0.25 0.0 0 0 704.25 81.13   L 707.63 81.14   A 14.09 2.45 0.2 0 0 721.73 78.74   L 721.73 78.22   A 14.09 2.45 0.2 0 0 707.65 75.72   L 704.27 75.71   A 0.25 0.25 0.0 0 0 704.02 75.96   Z"
       id="path222" />
    <path
       d="   M 504.79 64.25   Q 507.58 65.41 509.75 65.32   C 517.64 64.98 525.93 64.91 533.55 67.22   Q 537.34 68.37 541.23 69.42   Q 541.95 72.08 541.97 73.82   Q 542.07 83.07 541.99 115.90   C 541.97 127.52 539.05 135.68 525.81 136.08   Q 515.54 136.39 505.26 136.21   Q 504.76 136.20 504.76 135.70   Q 504.80 104.97 504.46 74.25   C 504.42 71.26 504.90 67.60 504.79 64.25   Z   M 529.75 130.23   C 531.46 129.48 533.19 128.14 534.15 127.97   Q 534.59 127.89 534.79 127.49   L 536.70 123.72   Q 536.90 123.32 536.91 122.86   Q 537.27 104.17 536.74 85.46   C 536.60 80.45 534.10 76.96 529.15 76.33   Q 522.69 75.52 510.56 76.17   Q 510.00 76.20 510.00 76.75   L 510.00 130.28   Q 510.00 130.94 510.66 130.96   C 515.52 131.04 525.63 132.03 529.75 130.23   Z"
       id="path224" />
    <path
       d="   M 851.77 64.90   Q 860.76 65.18 869.71 65.78   C 874.83 66.11 879.35 69.00 883.90 71.22   C 884.14 77.69 879.32 82.97 873.72 85.24   C 868.22 87.47 858.74 86.54 852.28 86.48   Q 851.77 86.48 851.77 85.97   L 851.77 64.90   Z   M 872.03 80.00   Q 873.87 79.70 874.05 77.73   Q 874.10 77.19 873.56 77.14   Q 872.48 77.04 871.69 76.35   Q 871.29 76.00 870.76 76.00   L 857.75 76.00   Q 857.00 76.00 857.00 76.75   L 857.00 80.25   Q 857.00 81.00 857.75 81.00   L 870.43 81.00   Q 870.63 81.00 870.76 80.86   L 871.19 80.44   Q 871.54 80.08 872.03 80.00   Z"
       id="path226" />
    <path
       d="   M 1013.25 86.21   C 1017.31 97.65 1014.59 110.34 1006.66 119.16   C 983.76 144.66 943.80 123.78 949.13 90.54   C 949.49 88.28 950.56 85.87 951.34 83.62   Q 954.13 83.16 955.97 81.37   C 969.58 68.18 990.34 67.85 1005.15 79.06   C 1007.65 80.95 1010.42 83.92 1013.25 86.21   Z   M 955.95 106.13   C 955.90 110.59 960.97 115.63 964.12 118.56   C 965.94 120.25 968.34 120.86 970.31 122.71   Q 970.68 123.05 971.17 122.99   Q 972.45 122.83 973.35 123.76   Q 973.74 124.17 974.30 124.07   C 977.95 123.42 980.86 125.99 984.56 124.81   Q 987.30 123.94 989.06 123.93   Q 989.54 123.93 989.91 123.63   C 990.96 122.79 992.40 122.92 993.50 122.35   C 998.14 119.97 1002.30 116.92 1005.01 112.30   C 1009.53 104.61 1010.64 102.75 1005.66 94.65   C 992.78 73.71 960.97 78.20 954.94 102.20   Q 954.50 103.94 955.64 105.27   Q 955.96 105.64 955.95 106.13   Z"
       id="path228" />
    <path
       d="   M 851.79 114.25   L 853.65 115.50   Q 854.05 115.77 854.54 115.76   C 861.94 115.49 871.38 114.68 878.43 117.04   Q 883.17 118.62 887.89 120.36   C 887.95 131.16 881.01 136.21 871.09 136.49   Q 861.82 136.76 852.28 136.45   Q 851.79 136.43 851.79 135.95   L 851.79 114.25   Z   M 856.99 126.66   L 856.99 130.34   A 0.68 0.68 0.0 0 0 857.67 131.02   L 869.74 131.02   A 9.93 2.40 0.0 0 0 879.67 128.62   L 879.67 128.38   A 9.93 2.40 0.0 0 0 869.74 125.98   L 857.67 125.98   A 0.68 0.68 0.0 0 0 856.99 126.66   Z"
       id="path230" />
  </g>
  <g
     id="g15016">
    <g
       fill="#270209"
       fill-opacity="0.976"
       id="g252"
       style="stroke:none;stroke-opacity:1;fill:#500009;fill-opacity:1">
      <path
         d="   M 751.25 94.71   L 751.94 95.19   Q 752.19 95.36 752.11 95.65   Q 750.19 103.02 743.31 105.74   L 741.98 103.36   Q 741.71 102.88 742.16 102.58   Q 747.17 99.19 751.25 94.71   Z"
         id="path234"
         style="stroke:none;stroke-opacity:1;fill:#500009;fill-opacity:1" />
      <path
         d="   M 926.29 137.25   C 954.66 174.99 1008.28 174.95 1037.00 137.71   L 1037.62 138.10   Q 1038.07 138.38 1037.84 138.86   C 1026.93 161.48 1002.25 174.65 977.77 172.92   Q 943.50 170.50 925.64 139.56   Q 925.37 139.11 925.61 138.64   L 926.29 137.25   Z"
         id="path236"
         style="stroke:none;stroke-opacity:1;fill:#500009;fill-opacity:1" />
      <path
         d="   M 908.71 147.25   L 909.22 148.50   Q 909.40 148.96 909.19 149.41   C 904.10 160.27 894.33 167.50 883.13 170.56   Q 878.06 171.94 868.57 171.97   Q 844.06 172.04 819.48 171.98   A 1.11 1.11 0.0 0 1 818.39 171.09   Q 817.79 168.02 818.75 164.54   Q 843.23 164.74 867.71 164.44   Q 879.06 164.29 884.75 162.73   Q 898.83 158.87 908.71 147.25   Z"
         id="path238"
         style="stroke:none;stroke-opacity:1;fill:#500009;fill-opacity:1" />
      <path
         d="   M 428.48 164.85   Q 491.46 165.28 524.56 164.86   Q 542.58 164.62 557.21 153.00   Q 558.89 153.50 560.23 152.46   Q 560.53 152.23 560.76 152.54   Q 560.93 152.78 560.77 153.03   C 552.08 166.82 538.01 171.90 522.28 171.95   Q 476.89 172.10 431.49 171.93   Q 430.98 171.93 430.64 171.54   Q 427.80 168.31 428.48 164.85   Z"
         id="path240"
         style="stroke:none;stroke-opacity:1;fill:#500009;fill-opacity:1" />
      <path
         d="   M 1063.75 164.54   L 1100.00 164.79   Q 1101.04 167.39 1100.70 170.94   A 1.18 1.17 2.4 0 1 1099.54 172.00   Q 1082.25 172.01 1064.49 172.00   C 1061.86 171.99 1063.56 166.33 1063.75 164.54   Z"
         id="path242"
         style="stroke:none;stroke-opacity:1;fill:#500009;fill-opacity:1" />
      <path
         d="   M 44.00 165.04   L 77.00 165.04   Q 77.89 167.95 77.76 171.04   A 1.00 1.00 0.0 0 1 76.76 172.00   L 44.51 172.00   Q 43.23 172.00 43.09 170.73   Q 42.73 167.48 44.00 165.04   Z"
         id="path244"
         style="stroke:none;stroke-opacity:1;fill:#500009;fill-opacity:1" />
      <path
         d="   M 114.56 165.00   L 147.51 164.93   Q 149.56 168.06 148.35 171.43   Q 148.15 172.00 147.54 172.00   L 116.72 172.00   Q 116.19 172.00 115.75 171.70   Q 112.48 169.41 114.56 165.00   Z"
         id="path246"
         style="stroke:none;stroke-opacity:1;fill:#500009;fill-opacity:1" />
      <path
         d="m 666.59155,165.04 h 36.05322 q 0.97234,2.91 0.83032,6 a 1.0925218,1 0 0 1 -1.09253,0.96 h -35.23382 q -1.39843,0 -1.55138,-1.27 -0.39331,-3.25 0.99419,-5.69 z"
         id="path244-3"
         style="fill:#500009;fill-opacity:1;stroke:none;stroke-width:1.04524;stroke-opacity:1" />
      <path
         d="m 727.1017,165 34.64913,-0.07 q 2.15571,3.13 0.88331,6.5 -0.21031,0.57 -0.85177,0.57 h -32.40929 q -0.55733,0 -1.02001,-0.3 -3.43863,-2.29 -1.25137,-6.7 z"
         id="path246-6"
         style="fill:#500009;fill-opacity:1;stroke:none;stroke-width:1.02546;stroke-opacity:1" />
      <path
         d="   M 361.50 165.04   L 398.00 165.04   Q 400.47 167.73 399.39 171.46   Q 399.24 171.98 398.71 171.98   L 362.37 172.01   A 1.02 1.02 0.0 0 1 361.35 170.96   L 361.50 165.04   Z"
         id="path248"
         style="stroke:none;stroke-opacity:1;fill:#500009;fill-opacity:1" />
      <path
         d="   M 571.50 165.04   L 660.50 165.04   L 660.70 171.27   A 0.74 0.74 0.0 0 1 659.96 172.03   L 572.21 171.94   A 1.18 1.17 -87.5 0 1 571.04 170.66   L 571.50 165.04   Z"
         id="path250"
         style="stroke:none;stroke-opacity:1;fill:#500009;fill-opacity:1" />
    </g>
    <g
       fill="#2f000e"
       id="g278"
       style="fill:#500009;fill-opacity:1">
      <path
         d="   M 318.75 71.21   C 315.91 71.01 315.56 69.18 314.04 67.57   C 287.47 39.29 244.03 41.29 219.72 71.23   Q 218.76 72.41 217.29 72.75   C 237.08 30.60 298.00 29.06 318.75 71.21   Z"
         id="path254"
         style="fill:#500009;fill-opacity:1" />
      <path
         d="   M 1130.25 48.04   C 1130.87 51.44 1130.25 57.14 1125.07 55.61   Q 1124.49 55.44 1124.74 54.89   Q 1125.67 52.84 1125.25 50.71   Q 1126.43 47.45 1130.25 48.04   Z"
         id="path256"
         style="fill:#500009;fill-opacity:1" />
      <path
         d="   M 10.12 48.53   Q 12.31 48.22 13.67 48.86   Q 14.10 49.06 14.23 49.51   L 15.71 54.75   Q 14.65 55.72 13.56 55.63   A 1.77 1.76 -6.5 0 1 12.03 54.42   L 10.12 48.53   Z"
         id="path258"
         style="fill:#500009;fill-opacity:1" />
      <path
         d="   M 883.90 71.22   C 879.35 69.00 874.83 66.11 869.71 65.78   Q 860.76 65.18 851.77 64.90   L 851.77 58.31   Q 851.77 57.80 852.28 57.82   C 864.84 58.27 879.77 54.99 883.90 71.22   Z"
         id="path260"
         style="fill:#500009;fill-opacity:1" />
      <path
         d="   M 541.23 69.42   Q 537.34 68.37 533.55 67.22   C 525.93 64.91 517.64 64.98 509.75 65.32   Q 507.58 65.41 504.79 64.25   L 504.67 58.55   Q 504.66 57.95 505.26 57.95   Q 510.28 57.94 525.18 58.36   Q 537.35 58.71 541.23 69.42   Z"
         id="path262"
         style="fill:#500009;fill-opacity:1" />
      <path
         d="   M 648.75 63.96   Q 647.35 65.30 645.25 65.31   Q 625.14 65.45 605.04 65.00   L 605.05 58.65   Q 605.05 58.00 605.70 58.00   L 646.01 58.00   Q 646.53 58.00 646.64 58.50   C 647.11 60.48 646.69 62.75 648.75 63.96   Z"
         id="path264"
         style="fill:#500009;fill-opacity:1" />
      <path
         d="   M 730.74 71.44   Q 721.64 64.94 711.74 65.26   Q 703.94 65.51 699.04 64.00   L 699.19 58.72   Q 699.20 58.21 699.71 58.18   C 712.55 57.39 727.37 56.46 730.74 71.44   Z"
         id="path266"
         style="fill:#500009;fill-opacity:1" />
      <path
         d="   M 1013.25 86.21   C 1010.42 83.92 1007.65 80.95 1005.15 79.06   C 990.34 67.85 969.58 68.18 955.97 81.37   Q 954.13 83.16 951.34 83.62   C 964.83 55.89 1002.42 57.15 1013.25 86.21   Z"
         id="path268"
         style="fill:#500009;fill-opacity:1" />
      <path
         d="   M 661.46 68.80   A 0.30 0.30 0.0 0 1 661.68 69.17   L 660.89 72.31   A 2.14 2.00 14.0 0 1 658.33 73.73   L 652.75 72.34   A 2.14 2.00 14.0 0 1 651.15 69.88   L 651.94 66.74   A 0.30 0.30 0.0 0 1 652.30 66.52   L 661.46 68.80   Z"
         id="path270"
         style="fill:#500009;fill-opacity:1" />
      <path
         d="   M 887.89 120.36   Q 883.17 118.62 878.43 117.04   C 871.38 114.68 861.94 115.49 854.54 115.76   Q 854.05 115.77 853.65 115.50   L 851.79 114.25   L 851.77 108.58   Q 851.77 108.08 852.27 108.06   Q 861.05 107.80 869.78 108.19   C 879.11 108.60 885.16 111.31 887.89 120.36   Z"
         id="path272"
         style="fill:#500009;fill-opacity:1" />
      <path
         d="   M 715.25 114.46   Q 714.78 114.79 714.67 115.37   Q 714.58 115.83 714.11 115.84   C 709.27 115.95 703.86 115.96 699.04 115.25   L 699.04 108.91   Q 699.04 108.25 699.71 108.25   L 711.29 108.25   Q 711.80 108.25 712.04 108.69   L 715.25 114.46   Z"
         id="path274"
         style="fill:#500009;fill-opacity:1" />
      <path
         d="   M 635.21 110.17   Q 641.40 112.36 649.95 111.19   A 0.79 0.79 0.0 0 1 650.85 111.95   L 651.01 115.57   A 1.36 1.36 0.0 0 1 649.65 116.99   L 605.04 117.00   L 605.09 110.64   Q 605.10 110.05 605.69 110.06   L 635.21 110.17   Z"
         id="path276"
         style="fill:#500009;fill-opacity:1" />
    </g>
    <path
       fill="#1f0106"
       fill-opacity="0.925"
       d="   M 343.21 151.25   L 343.87 151.92   Q 344.21 152.27 343.96 152.69   Q 324.64 185.69 287.37 194.76   C 286.12 195.06 284.54 194.83 283.02 195.89   Q 282.60 196.19 282.09 196.11   C 278.31 195.52 275.20 197.04 272.00 197.06   C 239.73 197.28 211.18 182.85 194.28 154.86   Q 194.03 154.44 194.40 154.12   Q 194.92 153.68 195.04 153.00   C 233.93 202.20 305.51 201.66 343.21 151.25   Z"
       id="path280"
       style="fill:#500009;fill-opacity:1" />
  </g>
</svg>
