<?xml version="1.0" encoding="UTF-8" standalone="no"?>
<svg
   viewBox="0 0 136.95 49.44"
   version="1.1"
   id="svg160"
   sodipodi:docname="Yu-Gi-Oh.svg"
   inkscape:version="1.1.2 (0a00cf5339, 2022-02-04)"
   xmlns:inkscape="http://www.inkscape.org/namespaces/inkscape"
   xmlns:sodipodi="http://sodipodi.sourceforge.net/DTD/sodipodi-0.dtd"
   xmlns="http://www.w3.org/2000/svg"
   xmlns:svg="http://www.w3.org/2000/svg">
  <sodipodi:namedview
     id="namedview162"
     pagecolor="#ffffff"
     bordercolor="#666666"
     borderopacity="1.0"
     inkscape:pageshadow="2"
     inkscape:pageopacity="0.0"
     inkscape:pagecheckerboard="0"
     showgrid="false"
     inkscape:zoom="10.44419"
     inkscape:cx="49.166089"
     inkscape:cy="16.468486"
     inkscape:window-width="1920"
     inkscape:window-height="1011"
     inkscape:window-x="0"
     inkscape:window-y="32"
     inkscape:window-maximized="1"
     inkscape:current-layer="d" />
  <defs
     id="defs4">
    <style
       id="style2">.e{fill:#fff;}.f{fill:#ed1c24;}.g{fill:#231f20;}</style>
  </defs>
  <g
     id="a" />
  <g
     id="b">
    <g
       id="c">
      <g
         id="g11" />
    </g>
    <g
       id="d">
      <g
         id="g20">
        <path
           class="g"
           d="M23.13,3.55c-.59,.21-.55,.41-.39,.51,.16,.1,1.07,.83,1.52,1.2,.12,.1,.24,.21,.32,.3,.29,.32,.93,1.14,1.4,1.91,.34,.56,.51,.92,.68,1.3l.17,.37c.32,.67,.78,1.29,1.44,1.94,.02,.02,.04,.04,.07,.06-.76,.16-1.67,.34-2.78,.54-1.65,.3-3.63,.41-4.82,.47l-.37,.02c-.13,0-.24,.01-.35,.02,1.02-1.19,.75-2.97-.12-4.17-.87-1.21-4.03-2.4-5.08-2.7-1.28-.36-2.47-.4-2.99-.42l-.34,.02h.02c-1.02,.11-1.85,.43-1.86,.51-.01,.06,.89,.64,1.44,1.31,.13,.16,.4,.45,.7,.8h0c.68,.78,1.03,1.23,1.49,1.93l.52,.77c.48,.72,1.08,1.61,1.33,2.06,.27,.51,.79,.86,1.47,1.01,.33,.07,.67,.09,1.01,.06,0,.02,.01,.05,.02,.07-.71-.04-1.54,.54-2.18,1.12-.82,.75-1.31,1.06-1.46,1.11-.16,.07-.52,.03-.93,0h-.07c-.47-.05-1.04-.2-1.89-.5-.66-.23-1.59-.44-2.34-.61l-.77-.18c-.39-.1-1.95-.42-2-.38-.05,.04,.09,1.3,.35,2.2l.04,.12c.2,.65,.57,1.84,1.11,2.63,.48,.7,1.31,1.13,2.05,1.47l.19,.09,.1,.06c.41,.24,.66,.24,1.08,.16,.02,0,.45-.11,.45-.11,0,0,1.28-.29,1.38-.31-.23,.32-.45,.64-.62,.9-.5,.77-.94,1.61-1.23,2.17l-.21,.4-.1,.17c-.22,.38-.34,.67-.34,.98,0,.26,.09,.53,.27,.89,.24,.47,.57,1.27,.74,1.88l.13,.42c.16,.47,.29,.9,.29,1.32,0,.28-.06,.55-.21,.83-.36,.11-.82,.24-.82,.24-.62,.2-1.16,.37-1.53,.35h-.34c-.76-.04-1.54-.07-2.3-.29l-5.55-1.63,1.15,2.53c.49,1.08,.57,1.24,1.2,2.17,.78,1.14,3.06,2.4,3.32,2.54,1.02,.56,1.79,.35,2.16-.03l-.03,.03c.08-.07,.54-.38,1.59-.95l.69-.42c.41-.27,.52-.34,1.81-.23,1.84,.16,6.08,2.13,9.26,4.3l2.96,2.04c2.33,1.61,4.35,3.01,5.27,3.56,1.42,.84,4.58,1.59,5.27,1.63,.71,.05,1.58-.13,2.11-.3,.17-.05,.99-.39,1.14-.78,.04-.11-.12-.24-.21-.33-.03-.02-.01-.07-.02-.11,.11-.08,.24-.16,.35-.24,.35-.24,.79-.53,1.21-.87,.45-.36,2.48-.98,3.68-1.34,1.33-.4,2.1-.64,2.51-.88,.32-.18,.93-.54,.93-1.16,0-.1-.02-.21-.05-.33-.26-.83,.36-.88-1.62-.65l-.55,.02c-1.02,.1-4.8,0-6.63-.18-.9-.09-1.99-.25-3.46-.66,.06-.03,.12-.07,.17-.1,.66-.4,2.67-1.95,3.39-2.91,.7-.94,2.22-4.6,2.22-6.2,0-.05,0-.13,0-.22,1.13,.1,1.98,.18,2.52,.25,1.54,.21,2.83,.12,2.88,.12,0,0-.68-3.17-.92-3.53-.12-.19-.19-.66-.19-.92,0-.04,0-.07,0-.1,.04-.11,.06-.22,.06-.34,0-.19-.05-.38-.15-.56-.35-.62-1.35-.93-1.81-.93-.29,0-.56,.08-.96,.21-.2,.06-.44,.13-.74,.22,.05-.31,.08-.65,.08-.97,0-.21-.01-.41-.03-.59,.82-.48,2.16-1.2,2.47-1.32,.42-.17,3.64-1.11,4.14-1.19,.59-.1,1.09-.45,1.36-.96,.13-.25,.2-.52,.2-.78,0-.19-.04-.38-.11-.55-.22-.55-1.08-1.56-1.46-1.95-.01-.01-.84-.85-1.49-1.47,.14,0,.25,0,.32,.02l.14,.02c.65,.11,1.63,.27,2.29,.27,.83,0,2.49-.59,3.07-1.4,.6-.85,.39-2.08-.52-3.01-.39-.4-.65-.56-.86-.69l-.25-.17c-.7-.59-1.41-.66-2.28-.21-.23,.12-.42,.16-.86,.27l-1.29,.33c-1,.29-1.13,.3-2.01,.36l-.72,.05c-.11,0-.22,0-.33,.01,.74-.75,1.36-1.3,1.7-1.51,.47-.29,.94-.77,.94-1.49,0-.26-.06-.56-.22-.9l-.04-.08c-.21-.54-.96-1.42-1.34-1.73l-.37-.34c-.37-.34-.87-.81-1.5-1.3-1.07-.83-2.86-1.13-3.06-1.17l-1.44-.23,.33,1.45c.07,.32,.26,1.3,.21,1.9-.06,.87-.37,3.15-1.91,5.46-.4,.6-.83,1.18-1.26,1.74-.11-.14-.24-.26-.4-.36-.37-.23-.81-.45-1.26-.62-.3-.12-.84-.25-1.55-.12,.12-.19,.2-.38,.2-.57v-.06c.02-.22,.05-.63-.03-1.08v-.28c-.02-.75-.05-2.02-.8-2.88-.83-.96-2.19-1.37-3.19-1.68l-.09-.03c-.78-.24-2.15-.28-2.91-.28,0,0-1.14-.02-2.21,.36Zm-1.64,14.65c0-.74-.78-1.83-1.26-2.4,.48,.25,.88,.39,1,.44,.53,.19,.96,.1,1.3,.03l.29-.06c.26-.04,.3-.04,.6-.01l.35,.02c.21,.01,.48,.02,.77,.03-.04,.44-.45,1.54-.6,1.91l-.16,.44h0c-.18,.46-2.05,3.74-3.25,5.07-1.05,1.17-3.15,3.41-4.27,4.48-.04-.71-.21-1.3-.42-1.75-.38-.82-.69-1.3-.89-1.57,.6-.86,1.98-2.74,2.71-3.42,.64-.6,1.45-1.12,2.41-1.55,.5-.23,1.43-.64,1.43-1.64Zm13.19,2.2s.25,.25,.54,.76l.15,.25c.25,.42,.27,.46,.27,.97,0,.41-.02,1-.1,1.72-.78-.01-1.78-.03-1.78-.03l-1.2-.03c-.63-.01-1.15,0-1.56,.03l.53-1.19c.39-.92,.65-1.53,.96-1.77,.33-.25,1.08-.84,1.08-1.73,0-.03,0-.05,0-.08-.05-.95-.91-1.49-1.19-1.67-.08-.05-.17-.1-.26-.15,.13-.04,.25-.08,.35-.12l.07-.03s.13-.05,.25-.09c.15,.23,.35,.44,.52,.62l.14,.14c.35,.37,.79,.67,1.24,.94-.02,.02-.06,.04-.08,.06l-.63,.72,.69,.68Zm-9.68,5.54c-.76,1.75-1.07,2.1-1.11,2.15-.17,.14-.26,.19-.41,.27,0,0-.08,.04-.16,.09-.24-.2-.53-.41-.85-.58-.09-.05-.19-.09-.29-.14,.9-.66,1.77-1.37,2.41-2.08,.43-.48,.83-.92,1.19-1.33-.14,.29-.77,1.61-.77,1.61Zm-4.57,6.1s0,.09-.02,.13c0,.02-.02,.05-.02,.07-1.68-.61-2.83-1.12-3.57-1.45,.49-.18,1.07-.42,1.69-.75,.32-.17,.71-.39,1.13-.65,.1,.24,.21,.53,.32,.91l.25,.82c.16,.52,.23,.75,.23,.91Zm7.78-1.07c.07-.17,.14-.33,.2-.5,.27,.74,1.02,2.79,1.34,3.45,.3,.61,.64,1.64,.92,2.46l.08,.24c.02,.07,.05,.14,.07,.2-1.26-.53-2.75-1.22-4.2-1.89-.41-.19-.82-.38-1.24-.57,.76-.41,1.92-1.25,2.82-3.4Zm4.95,.21c-.66-.45-1.57-1.05-1.57-1.05-.9-.63-1.87-1.12-1.92-1.14l-.58-.29c.07-.19,.14-.38,.21-.55,.18-.49,.35-.94,.54-1.41,.06,.06,.12,.12,.18,.18l.34,.35c.63,.65,1.11,1.13,1.58,1.37,.66,.34,1.35,.39,1.95,.15h0c.08-.03,.34-.05,.54-.07h.06c-.15,.41-.32,.82-.51,1.23-.23,.49-.54,.92-.81,1.25Zm4.95-16.58c-.07,0-.13,0-.2,0,.48-.39,.96-.81,1.4-1.21,.37,.12,.73,.23,1.1,.29,.62,.12,1.26,.16,1.98,.14-1.01,.37-2.49,.69-3.3,.76-.4,.04-.68,.03-.98,.02Z"
           id="path14" />
        <path
           class="g"
           d="M94.37,32.36v-.47l-.2-2.4c-.19-2.2-.6-3.66-.79-3.68-.09,0-.7,1.75-1.02,2.74-.19,.59-.43,1.12-.58,1.49-.49-.01-1.31,1.32-1.53,2.26-.36,1.54-1.04,3.69-1.51,4.78,0,0-.25,.62-.26,.63-.83-.8-2.56-3.24-3.95-6.26,.99-.9,1.81-1.84,2.55-2.69l.48-.55c1.23-1.4,2.23-2.27,2.72-2.59l.38-.21c.56-.26,.84-.64,.84-1.14,0-.11-.01-.23-.04-.35-.09-.38-.43-1.67-1.19-2.2-.25-.17-.63-.38-1.12-.63-.48-.25-1.02-.53-1.46-.81-.19-.12-.41-.22-.64-.3,.95-.36,1.77-.66,2.23-.82,.33-.12,1-.35,1.21-1.01,.04-.13,.06-.26,.06-.38,0-.42-.22-.74-.35-.94l-.11-.17c-.31-.53-.73-.78-1.09-.91,.32-.15,.73-.36,.98-.54l.03-.02c.23-.17,.26-.19,.35-.21,1.13-.31,.97-1.25,.92-1.6v-.07c-.08-.43-.42-1.64-1.02-2.68-.85-1.45-2.37-1.76-2.87-1.86-.99-.2-2.22-.31-3.38-.31-1.07,0-2.38,.26-2.93,.37,.01-.15,.03-.26,.08-.52l.1-.52c.15-.78,.23-1.2,.23-1.5,0-.36-.12-.94-.15-1.11,0,0,.01,.12,.02,.18-.03-.99-1.24-1.26-1.64-1.35l-1.43-.28c-.48-.09-.97-.18-1.2-.24-.6-.17-1.29-.27-2.69-.25-1.43,.02-2.37,.29-2.41,.3l-1.6,.47,1.17,1.2c.78,.8,1.74,1.86,1.92,2.15l.18,.29c.35,.55,.75,1.17,.91,2.63,.15,1.34,.65,5.45,1.11,9.05-.25,.07-.5,.12-.71,.17-1.18,.23-2.85,.22-3.28,.21-.16-.41-.35-.71-.67-1l-.06-.05s-.06-.05-.08-.07c.45,.09,.79,.15,1.07,.17,.44,.02,.82-.14,1.08-.47,.44-.54,.33-1.25,.22-1.74-.12-.53-.1-.74-.09-.89,.08-.75-.53-1.71-1.06-2.4-.58-.75-1.02-1.1-1.31-1.33l-.19-.16-.02-.02c-.08-.08-.17-.14-.25-.21,.31-.27,.65-.64,.86-1,.16-.29,.28-.63,.37-.9l.07-.2,.02-.05c.13-.29,.18-.54,.18-.76,0-.72-.57-1.06-.72-1.13-.35-.18-1.86-.74-2.56-.74-.61,0-1.59,.29-2.49,.71v-.02c0-.47-.28-1.33-1.41-1.85-.82-.38-2.05-.82-2.73-1l-.19-.05c-.56-.16-1.2-.33-2.02-.44-.91-.12-1.71-.1-1.74-.1l-2.04,.07,1.33,1.58s.82,.98,1.17,1.9c.33,.88,.54,2.63,.54,3.76,0,.7,.04,2.02,.07,2.87-.25,.06-.53,.11-.8,.15-.49,.07-1.26,.13-1.76,.16-.33-.35-.86-.84-1.4-1.14-.78-.42-1.29-.6-2.06-.81-.73-.2-1.42-.38-1.94,.16-.14,.15-.44,.56-.25,1.22,.11,.38,.74,3.61,.82,4.44,0,.06,.37,6.79-2.26,14.29-2.48,7.09-4.62,9.31-6.04,10.78-1.68,1.74-2.42,2.35-3.2,3-1.69,1.4-3.76,2.56-3.76,2.56l1.14-.1c1.29-.08,4.09-.57,4.32-.66l.71-.25,.79-.29c.14-.06,.55-.2,.7-.22,.6-.07,1.17-.52,2.15-1.44,2.14-2.02,3.93-4.09,5.31-6.17,.13-.19,.26-.41,.4-.65,.24,.74,.63,1.4,1.2,2.06,.4,.47,.69,.7,.94,.91l.54,.49c.16,.16,.29,.37,.41,.57,.27,.44,.68,1.1,1.5,1.1,.38,0,1.56,0,2.47-.77,.35-.29,1.46-.95,3.43-1.53,1.87-.55,4-1.14,5.43-1.21,1.51-.08,2.38-.08,3.86,.07,1.47,.16,2.27,.24,2.75-.49,.11-.17,.16-.37,.16-.6,0-1.09-1.14-2.6-1.15-2.62-.08-.11-.17-.2-.26-.3,.99-.15,2.38-.47,3.27-.85l.48-.2c.56-.23,1.27-.53,2.03-.88,.35,1.02,.69,1.9,1.04,2.64,1.89,4.02,3.4,5.91,5.99,7.5,2.26,1.39,3.46,1.66,4.61,1.92l.53,.12c.92,.23,1.64,.14,2.17-.28,.77-.59,.82-1.6,.83-1.93l.03-1.9c.01-1.33,.03-3.14,.11-3.72,.15-1.09,.14-5.03,.09-6.93Zm-37.29-6.2c.01-.06,.03-.11,.04-.17,.12-.58,.24-1.27,.34-2,.24-.02,.29-.03,.59-.06-.03,.24-.05,.5-.05,.78,0,.52,.07,1.06,.27,1.5-.23-.04-.43-.06-.6-.07-.14,0-.35-.02-.58,.02Zm-.51,1.83s.05,.06,.08,.09l.11,.12v-.02l.32,.5c.23,.3,.54,.72,.84,1.46l.27,.63c.15,.35,.3,.7,.44,1.08-.29-.31-.66-.56-1.12-.76-.39-.17-.72-.26-.99-.33-.12-.03-.27-.07-.33-.1-.14-.14-.29-.23-.42-.3,.31-.85,.58-1.66,.81-2.38Zm16.2,2.7c-.55-.97-2.29-1.5-2.31-1.51-.58-.16-1.18-.03-1.62,.06l-.16,.03c-.21,.04-.38,.11-.54,.19,.02-.1,.04-.19,.04-.19,.05-.22,.14-.57,.14-.93s-.09-.76-.41-1.04c.6,.06,1.14,.15,1.33,.23h-.02c.55,.32,1.2,.24,1.62-.21,.24-.25,.41-.64,.41-1.14s-.17-1.14-.62-1.86l-.21-.34c-.16-.26-.3-.49-.43-.69,.34,.03,.61,.06,.8,.06h.07c.21,0,.68,.01,1.05-.37,.26,.17,.58,.35,.99,.56,.75,.39,1.58,.41,3.37,.12,.31,1.98,.77,4.29,1.29,6.43-1.05,.91-2.09,1.7-3.04,2.29-.87,.54-1.62,1-2.24,1.37,.14-.24,.25-.46,.32-.6,.18-.36,.4-.93,.4-1.52,0-.33-.07-.66-.24-.97Zm9.19-8.65c.62-.23,1.18-.45,1.67-.66,.02,.07,.03,.16,.03,.28,0,.16-.03,.4-.15,.74v.03c-.14,.38-.32,.92-1.1,2.14-.16-.81-.32-1.66-.46-2.54Zm-.73-10.84l1.51,1.43c.75,.7,1.85,1.57,2.61,2.13-.46,.04-.93,.16-1.36,.4l-.49,.27c-.49,.26-.87,.46-2.24,1.38-.19-1.9-.3-3.61-.3-4.89,0-.35,0-.67,.02-.95l.24,.23Zm-27.18,23.55c.02,.09,.05,.19,.08,.28v.04c.27,.94,.74,1.7,1.38,2.21-.36-.02-.72-.05-1.05-.07l-1.19-.08c-.09,0-.19,0-.29,0,.36-.74,.72-1.54,1.07-2.37Z"
           id="path16" />
        <path
           class="g"
           d="M135.98,37.89c-.55-1.13-1.71-3.03-2.54-4.05-.79-.97-4.17-3.51-4.88-3.75-.72-.24-1.55-.06-2.54,.56-.33,.21-.95,.39-1.72,.61l-1.38,.42c-.99,.32-4.02,.86-8.35,1.51-.29-.76-.61-1.69-.83-2.6-.23-.93-.6-2.61-.99-4.54,1.31-.25,2.69-.55,3.35-.78,1.05-.37,3.11-.78,3.79-.77,.32,0,1.16,.03,1.52-.69,.36-.73-.14-1.4-.43-1.81-.53-.72-1.2-1.57-2.19-2.45-1.1-.98-2.31-1.54-3.22-1.5-.68,.03-2.39,.17-4.13,.75-.01-.08-.04-.26-.04-.26-.29-1.94-.4-2.91-.4-3.5,0-.52,.08-.75,.2-1.09,.07-.2,.18-.36,.29-.52,.16-.23,.4-.57,.4-1.01,0-.09,0-.18-.03-.28-.07-.31-.23-.53-.43-.71,.56-.08,1.03-.13,1.35-.14,1.46-.04,3.42-.73,3.51-.76l.26-.09,.18-.22c.05-.06,.32-.42,.78-1.28,.24-.46,.42-.92,.57-1.32,.14-.37,.27-.71,.43-.99,.19-.34,.25-.64,.25-.9,0-.17-.03-.32-.06-.44-.22-.75-.92-1.1-1.43-1.35,0,0-.52-.27-.52-.27-.61-.32-1.46-.76-2.24-1.07-1.11-.43-2.43-.5-2.49-.5h-.17l-.16,.04s-1.03,.32-2.26,.92c-1.08,.53-5.49,2.26-8.7,3.31-2.13,.7-5.42,1.38-6.31,1.38-1.23,0-2.07,.37-2.16,.41l-.76,.35,.22,.82c.03,.11,.3,1.11,.68,1.75l.21,.39c.14,.28,.3,.59,.61,.9,.42,.4,1.05,.69,1.97,1.09,.98,.43,2.25,.81,4.26,.42,0,0,2.03-.38,2.58-.49,.26,.83,.62,2.08,.99,3.84,.24,1.13,.54,2.47,.89,3.97-2.33,.58-5.13,1.08-6.34,1.22-.87,.1-2.24,0-3.07-.07l-.85-.05c-.61,0-1.62,0-1.82,.93-.19,.9,.69,1.29,1.16,1.5l.19,.09q.07,.04,.16,.21l.06,.11,.05,.13c.09,.27,.24,.66,.68,1.1,.53,.51,1.3,.75,2.46,1.11l.31,.1c1.74,.54,9.7,5.6,9.85,6.76,0,0,0,.05,0,.11-2.02,.4-4.1,.84-6.29,1.31l-2.06,.45c-4.29,.92-5.67,.57-5.69,.56h.03l-.62-.19-.44,.49c-.51,.61-1.2,1.96-.54,3.17,.59,1.08,1.62,2.05,2.84,2.67,1.15,.59,2.12,.66,3.06,.22,.17-.08,.94-.28,1.62-.46,1.29-.34,3.05-.82,4.74-1.4,2.6-.9,5.87-1.27,8.43-1.49,2.51-.22,8.42-.55,9.58-.41,.88,.1,2.46,.2,3.86,.29l1.82,.12c.7,.05,1.31-.02,1.86-.08,.58-.07,1.08-.12,1.61-.04l.58,.09c.95,.15,1.77,.28,2.88,.65,.5,.16,1.54,.51,2.15-.22,.61-.72,.14-1.68-.17-2.31Z"
           id="path18" />
      </g>
      <path
         class="f"
         d="M65.49,21.52s-2.19-4.49-4.08-4.45c-1.89,.04-3.56,2.67-3.78,5.31-.22,2.63,1.11,7.53,2.97,7.46,1.85-.07,2.04-.67,2.04-.67l-.15-3.12-.11-1.22-3.08-2.89,6.2-.41Z"
         id="path22" />
      <g
         id="g50"
         style="fill:#ff0000">
        <g
           id="g34"
           style="fill:#ff0000">
          <path
             class="f"
             d="M51.2,10.06c-.5-.52-.67-.49-1.03-.79-.36-.3-.63-.39-1.22-.09-.59,.3-.99,.28-2.32,.66-1.33,.39-1.34,.32-2.93,.45-1.01,.08-2.07,.05-2.72,.02,.09-.1,.18-.19,.26-.28,1.06-1.17,2.48-2.62,3.24-3.09,.76-.48,.42-.91,.29-1.24-.13-.33-.74-1.07-1.04-1.31-.3-.24-.95-.93-1.86-1.63-.9-.7-2.62-.97-2.62-.97,0,0,.3,1.31,.24,2.2-.05,.72-.32,3.31-2.08,5.95-1.76,2.64-4.03,4.98-5.05,5.87-1.02,.89-.93,.84-.17,.56,.76-.28,2.34-.78,3.86-1.69,.83-.49,1.97-1.47,3.02-2.45,.36,.14,.88,.33,1.51,.45,1.03,.19,2.06,.15,3.2,0,1.14-.15,2.71-.27,3.28-.17,.57,.09,1.64,.28,2.27,.28s1.94-.52,2.27-.99c.34-.47,.08-1.2-.42-1.72Z"
             id="path24"
             style="fill:#ff0000" />
          <path
             class="f"
             d="M12.52,6.81c.7,.8,1.07,1.29,1.57,2.04,.49,.75,1.52,2.22,1.89,2.91,.37,.69,1.95,.82,3.03-.02,1.08-.84,.68-2.38,.09-3.18-.58-.81-3.16-1.94-4.56-2.33-1.43-.41-2.77-.4-2.98-.39-.32,.01,.25,.18,.95,.98Z"
             id="path26"
             style="fill:#ff0000" />
          <path
             class="f"
             d="M45.13,40.1c-1.11,.11-4.95,0-6.81-.18-1.86-.18-3.91-.62-7.03-1.87-2.56-1.02-6.46-2.95-9.31-4.16,.47,.04,.97,.07,1.24,.08,.59,.02,.58,.15,1.05-.18,.47-.32,1.94-.59,3.05-3.27,1.12-2.68,1.41-3.93,2.49-6.21,1.08-2.28,1.34-3.46,2.09-4.05,.76-.59,1.09-1.12-.04-1.83-1.12-.71-1.77-1.14-1.77-1.14,0,0,.06-.62-.59-1.43-.22-.28-.5-.62-.78-.94,1.31-.22,2.82-.52,3.62-.69,1.28-.26,1.52-.41,1.62-.58,.09-.17,.37-.82,.44-1.01,.07-.19,.05-.24,.22-.34,.17-.09,.17-.51-.17-.71-.33-.21-.72-.39-1.1-.54-.39-.15-1.03-.2-1.9,.21-.87,.42-3.82,1-5.72,1.34-1.89,.34-4.17,.44-5.3,.51-1.13,.07-1.58,.03-1.8,0-.25-.04,.15,.41,.88,1.01,.73,.6,1.67,.99,2.04,1.12,.37,.13,.64,0,1.12-.07,.48-.07,.55-.04,1.16,0,.35,.02,.88,.03,1.49,.03,.09,.27,.17,.56,.2,.81,.06,.71-.64,2.34-.82,2.86-.18,.52-2.17,3.99-3.45,5.41-1.21,1.35-4.03,4.36-4.91,5.07-.88,.71-1.02,.81-1.02,.81,0,0,1.29-.27,2.74-1.05,1.45-.78,4.33-2.56,5.81-4.19,1.48-1.62,2.84-3.14,2.99-4.13,.15-.99,.31-1.59,.31-1.59,0,0,.34,.25,.66,.6,.32,.35,.7,.52,.43,1.42-.27,.92-1.92,4.06-2.36,5.06-.43,1-.99,2.18-1.37,2.5-.38,.32-.56,.36-.87,.55-.31,.19-.45,.31-.45,.31,0,0-.52-.6-1.19-.95-.68-.35-1.89-.6-1.89-.6,0,0,.41,.6,.77,1.87,.36,1.26,.62,1.75,.46,2.39-.1,.39-.26,.82-.38,1.11-.25-.1-.49-.19-.71-.27-2.76-.99-4.16-1.72-4.73-1.94-.23-.09-.59-.19-1.03-.27,.04-.07,.07-.14,.11-.21,.85-1.65,.79-3,.32-4.02-.48-1.03-.83-1.45-.95-1.62-.24-.32-.32-.24-.08-.62,.34-.53,2.12-3.02,3.07-3.92,.95-.89,2.01-1.43,2.67-1.73,.66-.3,.85-.49,.85-.73,0-.38-.77-1.54-1.24-2-.48-.46-1.46-1.62-1.63-1.77-.17-.14-.87,.23-1.55,.85-.68,.62-1.35,1.13-1.75,1.3-.4,.16-.85,.11-1.46,.05-.61-.06-1.27-.24-2.12-.54-.85-.3-2.25-.57-3.02-.76-.77-.19-.67-.04-.45,.68,.19,.59,.53,1.7,.98,2.36,.45,.67,1.62,1.1,1.91,1.26,.29,.16,.22,.17,.53,.11,.31-.06,.92-.25,1.88-.43,.96-.18,1.77-.33,2.17-.52,.4-.19,.37-.14,.21,.09-.16,.23-1.43,1.9-2.06,2.88-.64,.97-1.18,2.11-1.4,2.51-.36,.64-.4,.6-.15,1.09,.25,.49,.61,1.36,.81,2.07,.21,.76,.98,2.23-.1,3.69h0c-1.21,.32-2.2,.78-3.01,.74-.86-.04-1.86-.04-2.87-.33-1-.29-3.48-1.02-3.48-1.02,.72,1.58,.69,1.57,1.36,2.56,.57,.84,2.44,1.94,2.98,2.23,.54,.29,.9,.26,1,.15,.11-.11,.65-.48,1.79-1.1,1.15-.62,.93-.95,3.05-.77,2.12,.18,6.56,2.31,9.72,4.46,3.16,2.16,6.89,4.79,8.18,5.56,1.29,.77,4.3,1.46,4.84,1.5,.54,.04,1.29-.11,1.76-.26,.47-.15,.11-.22,.07-.51-.04-.29,1.08-.84,2.08-1.65,1-.81,5.49-1.83,6.31-2.31,.82-.48,.39-.36-.72-.26Z"
             id="path28"
             style="fill:#ff0000" />
          <path
             class="f"
             d="M25.3,4.83c.34,.38,1.03,1.27,1.51,2.06,.49,.79,.66,1.24,.9,1.76,.25,.51,.61,1.04,1.24,1.65,.63,.62,1.21,.2,1.38,.09,.17-.12,1.04-.86,1.04-1,0-.14,.05-.53-.01-.92-.07-.39,.1-1.9-.57-2.67-.67-.77-1.92-1.13-2.82-1.41-.94-.29-3.13-.24-3.13-.24-.52,.11,.04,.22,.46,.69Z"
             id="path30"
             style="fill:#ff0000" />
          <path
             class="f"
             d="M47.4,15.63c-.43-.43-1.81-1.8-2.06-1.99-.25-.18-.68,0-1.67,.63-.98,.62-3.4,1.17-4.49,1.26-1.09,.1-1.46-.09-2.5,.12-1.04,.22-1.86,.68-2.71,.65-.85-.03-.27,.47,.19,.95,.46,.48-.87,2.04-.24,2.39,.62,.35,2.74-1.11,3.22-1.33,.48-.22,1.37-.52,1.94-.75,.85-.35,1.88-.47,2.5-.66,.62-.19,.58-.05,.29,.22-.29,.27-1.01,1.17-2.31,2.46-.31,.31-.57,.58-.79,.82-.43-.17-.94-.39-1.48-.57-.78-.25-1.94-.2-1.94-.2,0,0,.33,.31,.72,.99,.38,.66,.55,.82,.55,1.72,0,.68-.05,1.62-.22,2.73-1.65,0-3.07-2.7-3.91-2.72-1.52-.03-2.3,2.76-2.3,2.76-.89,.14-.53,.23-.29,.32,.24,.09,.57,.47,1.04,.95,.46,.48,0,2.8,.39,3,.39,.2,2.5,2.37,2.86,2.23,.36-.14,.38-3.93,1.19-4.1,.17-.03,.34-.05,.52-.06-.29,1.07-.61,1.97-1.03,2.86-.57,1.2-1.53,2.12-1.53,2.12,0,0-1.41-.93-2.27-1.53-.86-.6-1.8-1.08-1.8-1.08,0,0,1.03,2.86,1.39,3.59,.36,.74,.75,1.92,1.05,2.83,.31,.9,1.08,1.89,1.08,1.89,0,0,1.25-.48,1.86-.85,.61-.37,2.49-1.84,3.1-2.66,.61-.82,2.02-4.27,2.02-5.6,0-.32,.03-.78,.08-1.3,1.22,.1,2.69,.22,3.55,.34,1.47,.2,2.69,.11,2.69,.11,0,0-1.3-1.41-1.67-1.98-.37-.57-.41-1.67-.3-1.87,.11-.2-.67-.54-.97-.54s-.8,.25-2.33,.62c-.21,.05-.4,.1-.57,.14,.09-.62,.17-1.11,.21-1.33,.14-.71,.08-1.61,0-1.87-.02-.05-.05-.1-.1-.16l.03-.02c.5-.34,2.75-1.58,3.23-1.77,.48-.19,3.77-1.15,4.33-1.25,.56-.1,.85-.6,.72-.92-.13-.33-.82-1.19-1.25-1.63Z"
             id="path32"
             style="fill:#ff0000" />
        </g>
        <g
           id="g46"
           style="fill:#ff0000">
          <path
             class="f"
             d="M56.57,23.03c.52-.05,1.52-.15,2.66-.26-.04,.28-.09,.55-.15,.78-.21,.79-.17,2.06,.17,2.41,.34,.35,1.29,.88,2.28,.61,.99-.26,4.3-.39,4.99-.39s2.67,.13,3.18,.44c.52,.31,.9-.48,.09-1.8-.82-1.32-1.03-1.71-1.38-1.8-.34-.09-.34-.17-2.36,.35-2.02,.53-4.6,1.27-4.9,1.14-.3-.13-.43-.17-.09-1.32,.06-.21,.12-.42,.17-.62,1.53-.14,2.95-.27,3.52-.31,1.46-.09,3.61-.18,4.13-.13,.52,.04,1.5,.18,1.89,.18s.67,.12,.34-1.1c-.32-1.21-.43-1.53-.77-1.84-.34-.31-.69-.7-1.68-.4-.99,.31-3.52,.66-5.85,1.05-.42,.07-.77,.13-1.07,.19,.21-.9,.28-1.2-.48-1.5-.54-.22-.85-.36-1.17-.47,1.19-.11,2.41-.25,3.09-.39,1.55-.33,3.94-.62,4.74-.53,.8,.1,1.64-.1,2.39,.05,.75,.14,1.31,.27,1.64,.29,.33,.02,.47-.26,.3-.98-.17-.71-.13-1.05-.11-1.25,.02-.19-.17-.77-.85-1.66-.69-.89-1.1-1.1-1.4-1.38-.29-.28-.5-.51-1.46,.02-.96,.53-2.12,.89-3.19,1.23-1.06,.34-1.79,.63-1.79,.63,0,0-.04-.6,.25-2.01,.52-.21,1.31-.49,1.8-.54,.79-.08,1.46-.25,2.29-.3,.83-.04,1.37-.38,1.67-.59,.29-.21,.67-.59,.83-.89,.17-.3,.29-.76,.38-.98,.08-.21,.29-.51-.04-.68-.33-.17-1.67-.64-2.12-.64s-1.54,.3-2.54,.85c-.49,.27-1.13,.49-1.65,.65,.05-.23,.11-.43,.18-.58,.27-.58,.53-1.17,.53-1.23,0-.06-.05-.57-.84-.94-.8-.37-1.98-.79-2.58-.95-.59-.16-1.24-.36-2.08-.47-.84-.12-1.58-.09-1.58-.09,0,0,.92,1.09,1.34,2.19,.42,1.1,.61,3.05,.61,4.12s.09,3.64,.09,3.64c0,0-.89,.27-1.68,.37-.79,.11-2.29,.2-2.29,.2,0,0-.75-.9-1.46-1.28-.71-.38-1.15-.53-1.85-.72-.71-.19-1.12-.3-1,.13,.13,.43,.77,3.74,.85,4.63,.08,.89,.18,7.6-2.31,14.72-2.49,7.13-4.69,9.51-6.27,11.14-1.68,1.74-2.34,2.27-3.27,2.94-.84,.6-1.15,.73-1.15,.73,0,0,1.65-.41,1.87-.49,.21-.08,1.36-.47,1.47-.52,.12-.05,.66-.25,.97-.29,.31-.04,.8-.43,1.6-1.18,.8-.75,3.19-3.03,5.16-5.99,1.87-2.81,4.85-10.52,5.49-13.49,.18-.84,.32-1.78,.43-2.71Zm1.98-4.64c.27,.35,.69,1.02,.74,1.92,0,.14,.01,.28,.02,.42-.23,.05-.49,.1-.79,.15-.7,.13-1.29,.22-1.77,.29,.12-1.52,.16-2.68,.16-2.68,.13,0,.79-.04,1.63-.1Z"
             id="path36"
             style="fill:#ff0000" />
          <path
             class="f"
             d="M54.78,32.18c-.21,.86,0,1.61,.26,2.57,.26,.96,.83,1.77,1.76,2.1,.93,.34,1.08,.2,1.13-.17,.05-.38,.32-1.13,.32-1.61,0-.43,.21-1.39,.05-1.87-.16-.48-.47-.91-1.21-1.23-.74-.32-1.28-.29-1.58-.59-.42-.43-.52-.05-.74,.8Z"
             id="path38"
             style="fill:#ff0000" />
          <path
             class="f"
             d="M70.86,36.57c-.85-.38,.16-.84-.69-.65-.09,.02-.91-.14-1.01-.12,.79-.55,.91-.72,1.56-1.51,.35-.43,.81-1.23,.99-1.61,.18-.37,.44-1.09,.18-1.53-.26-.45-1.32-.94-1.72-1.05-.4-.11-.92,.03-1.32,.11-.92,.19-.07,.56,.07,.75,.15,.19-.04,1.72-.59,3.14-.31,.81-.87,1.8-1.28,2.51-.3,.06-.64,.13-1,.2,.17-.9,.42-2.32,.6-3.61,.29-2.1,.33-2.99,.44-3.67,.11-.67,.44-1.42,.07-1.57-.37-.15-1.54-.6-2.31-.67-.77-.08-1.91-.41-1.43,.45,.19,.34,.66,1.98,.66,2.69s.9,1.02,.79,1.93c-.07,.6-1.85,0-2.4,.13,.06-1.02-.13-2.78-.13-3.05s-.84-1.34-1.52-1.61c-.68-.27-2.47-.7-3.25-.75-.79-.05-.19,.16,.03,.58,.18,.34,.71,.81,1.2,2.04,.5,1.23,1.23,2.52,1.36,4.95,.06,1.21,.03,2.48-.02,3.44-.52,.08-1.04,.15-1.58,.18-1.79,.11-4.02-.14-5.38-.21-.72-.04-.6,.05-.44,.6,.16,.54,.43,1.15,1.05,1.85,.62,.71,.87,.77,1.45,1.36,.58,.59,.75,1.38,1.22,1.38,.47,0,1.26-.04,1.84-.54,.58-.49,1.94-1.18,3.79-1.72,1.84-.54,4.09-1.17,5.65-1.25,1.56-.08,2.48-.08,4,.08,1.52,.16,1.73,.11,1.84-.05,.1-.16-.53-1.5-.95-2.04-.42-.54-.92-.81-1.77-1.19Z"
             id="path40"
             style="fill:#ff0000" />
          <path
             class="f"
             d="M93.36,32.34c-.05-1.99-.09-5.03-.39-3.47-.3,1.55-.82,2.92-1.03,3.77-.22,.85-.38,1.36-.34,0,.05-1.36-.03-1.84-.43-.15-.38,1.64,2.22-2.38,1.73-1.25-.61,1.4-8.33,2.88-9.81-.55,1.44-1.2,2.76-2.12,3.71-3.19,1.23-1.39,2.31-2.36,2.91-2.76,.6-.4,.84-.29,.76-.64-.08-.35-.37-1.31-.79-1.6-.42-.29-1.65-.86-2.54-1.41-.89-.56-2.56-.49-2.56-.49,0,0-.09,.16-.06,.37,.03,.21,.25,.64-.11,1.72-.18,.56-.43,1.39-2.12,3.74-.12,.17-.25,.34-.39,.51-.41-1.69-.78-3.63-1.08-5.61,1-.35,1.95-.71,2.69-1.04,2-.89,4.46-1.78,5.41-2.12,.96-.34,.58-.55,.29-1.06-.29-.51-.75-.51-1.08-.59-.33-.08-.79-.42-1.17-.59-.37-.17-1.62-.43-2.54,.08-.92,.51-.92,.42-3,1.83-.32,.22-.66,.42-1.01,.61-.37-3.09-.55-5.95-.45-7.61,.14-2.27,.05-1.93,.2-2.76,.16-.83,.31-1.56,.31-1.84s-.13-.9-.13-.9c0,0,0-.21-.87-.41-.88-.2-2.17-.39-2.67-.53-.5-.14-1.1-.24-2.42-.22-1.32,.02-2.16,.26-2.16,.26,0,0,1.71,1.75,2.06,2.33,.38,.63,1.02,1.37,1.23,3.33,.16,1.46,.65,5.52,1.14,9.27-.52,.46-1.09,.95-1.54,1.03-1.49,.29-3.61,.23-3.61,.23,0,0,.13,.67,.24,.91,.11,.24,.67,.63,1.56,1.08,.46,.24,1.02,.32,2.86,.01,.26-.05,.57-.11,.89-.18,0,.05,.01,.1,.02,.14,.28,2.02,.83,4.96,1.55,7.83-1.19,1.08-2.45,2.06-3.63,2.79-2.59,1.6-4.14,2.51-4.14,2.51,0,0,.47,0,.71,.02,.24,.02,.43,.17,.61,.19,.18,.03,2.48-.29,3.84-.87,.86-.36,2.12-.87,3.47-1.54,.42,1.34,.87,2.58,1.34,3.58,1.76,3.74,3.14,5.55,5.61,7.07,2.48,1.52,3.55,1.6,4.87,1.92,1.32,.32,1.75-.21,1.8-1.28,.05-1.07,.02-4.72,.15-5.71,.13-.99,.13-4.78,.08-6.77Z"
             id="path42"
             style="fill:#ff0000" />
          <path
             class="f"
             d="M83.37,11.84c.93,.86,2.44,2.03,3.05,2.43,.61,.4,1.5,.79,1.75,.68,.25-.11,.96-.43,1.22-.62,.26-.19,.42-.31,.7-.39,.28-.08,.26-.09,.19-.55-.05-.31-.34-1.4-.88-2.32-.54-.93-1.44-1.24-2.22-1.39-.77-.15-1.92-.29-3.18-.29-1.26,0-2.97,.41-2.97,.41,0,0,.32,.14,.55,.35,.22,.2,.87,.84,1.8,1.7Z"
             id="path44"
             style="fill:#ff0000" />
        </g>
        <path
           class="f"
           d="M135.14,38.27c-.55-1.13-1.66-2.93-2.42-3.85-.75-.92-3.98-3.29-4.43-3.44-.45-.15-1.06,.05-1.71,.46-.65,.41-1.71,.62-3.32,1.13-1.35,.43-5.57,1.11-9.27,1.66-.36-.88-.84-2.18-1.16-3.45-.28-1.12-.74-3.27-1.2-5.59,1.62-.27,3.48-.67,4.19-.92,1.13-.39,3.3-.84,4.13-.82,.83,.02,.78-.21,.28-.89-.5-.68-1.14-1.48-2.06-2.3-.92-.82-1.92-1.28-2.53-1.25-.62,.03-2.36,.16-4.07,.77-.28,.1-.57,.21-.88,.31-.09-.51-.16-1-.23-1.44-.55-3.65-.5-4.11-.15-5.09,.35-.98,1.11-1.13,.2-1.64-.52-.29-1.56-.67-2.36-.94,1.77-.39,3.67-.7,4.64-.72,1.32-.04,3.21-.71,3.21-.71,0,0,.24-.3,.68-1.13,.44-.83,.62-1.65,1.01-2.33,.39-.69-.24-1-.83-1.29-.58-.29-1.7-.92-2.68-1.3-.98-.38-2.18-.44-2.18-.44,0,0-.94,.29-2.12,.87-1.18,.58-5.65,2.32-8.83,3.37-2.14,.7-5.56,1.43-6.62,1.43-1.06,0-1.75,.32-1.75,.32,0,0,.25,.95,.57,1.48,.29,.48,.36,.8,.66,1.08,.3,.29,.87,.55,1.68,.9,.81,.35,1.88,.71,3.69,.36,.9-.18,2.14-.4,3.41-.64,.27,.73,.77,2.27,1.3,4.77,.33,1.56,.72,3.29,1.1,4.91-.02,0-.04,.01-.06,.02-2.55,.7-6.02,1.32-7.35,1.47-1.33,.15-3.5-.12-4.03-.12-1.69,0-.42,.42-.02,.62,.4,.21,.49,.46,.64,.74,.15,.28,.15,.59,.55,.98,.4,.38,1.18,.6,2.38,.97,1.2,.37,2.4,1.03,4.78,2.15,1.06,.49,1.83,.91,1.91,1.21,.43,1.78,3.69,3.05,3.84,4.23,.04,.35,.08,.71,.1,1.05-2.9,.55-5.99,1.24-9.21,1.93-4.78,1.03-6.17,.54-6.17,.54,0,0-.93,1.1-.43,2.03,.5,.93,1.41,1.75,2.42,2.26,1.01,.51,1.66,.46,2.22,.21,.55-.26,3.63-.92,6.45-1.9,2.82-.98,6.3-1.34,8.66-1.54,2.37-.21,8.46-.57,9.77-.41,1.31,.15,4.33,.31,5.64,.41,1.31,.1,2.32-.31,3.55-.11,1.23,.2,2.19,.31,3.6,.77,1.41,.46,1.36,0,.81-1.13Z"
           id="path48"
           style="fill:#ff0000" />
      </g>
      <polygon
         class="f"
         points="67.5 25.21 69.51 23.42 69.44 29.17 67.32 31.08 67.5 25.21"
         id="polygon52" />
      <polygon
         class="g"
         points="39.29 32.65 40.53 32.08 40.45 34.97 39.23 33.15 39.29 32.65"
         id="polygon84" />
      <polygon
         class="g"
         points="92.94 31.87 92.98 32.36 93.83 32.43 93.87 31.75 92.94 31.87"
         id="polygon86" />
      <polygon
         class="g"
         points="103.31 17.11 103.91 18.87 102.77 19.35 102.71 17.26 103.31 17.11"
         id="polygon88" />
      <polygon
         class="g"
         points="64.22 13.8 65.94 13.29 65.22 14.23 64.45 14.03 64.22 13.8"
         id="polygon90" />
      <path
         class="g"
         d="M116.5,17.79c.41-.4,4.17-4.1,4.17-4.1h-14.66s3.76,3.7,4.17,4.1c.04,.62,.6,8.72,.64,9.29-.25,.25-.47,.52-.63,.83v-5.8c0-1.97-1.85-4.17-4.51-4.17-.45,0-1.41,.1-2.53,.76v-2.43c.22-.38,3.12-5.26,3.12-5.26l-2.26,.71-1.24,.39-8.66,2.73s2.43,2.43,2.83,2.83v1.02c-1.36-3.09-4.12-5.47-7.92-5.47-4.78,0-7.91,3.78-8.69,7.98h-4.59l2.61-4.73s-2.47,.85-2.71,.93c.03-.18,.06-.35,.06-.54,0-1.97-1.6-3.58-3.58-3.58s-3.58,1.6-3.58,3.58c0,1.01,.43,1.93,1.11,2.58-.83,.28-1.38,.47-1.67,.57,0-2.48,0-8.44,0-8.44l-1.55,.82-.85,.87s-.3,.3-.58,.59c-1.23-.41-2.33-.52-3.69-.52-4.5,0-8.65,3.55-9.69,7.87h-4.68c.89-1.6,2.34-4.23,2.34-4.23l-.39-.28c-1.69,.58-6.15,2.1-8.04,2.75,.19-.34,1.65-2.98,1.65-2.98,0,0-6.28,2.16-8.41,2.89,.11-.19,.27-.49,.29-.53,.17-.17,5.14-5.14,5.14-5.14H16.61l1.58,1.55,.87,.85h0s2.63,2.59,2.79,2.75c.11,.19,2.99,5.22,3.21,5.6v4.18c-.45,.44-4.29,4.22-4.29,4.22h10.84s.5,0,.5,0h4.48s-1.34-.27-1.54-.46c.69,.5,1.56,.83,2.6,.83,.91,0,1.76-.27,2.59-.76v.4h10.36l-4.14-4.09v-2.84h5.34c1.26,4.05,5.23,7.28,9.52,7.28,1.35,0,2.44-.08,3.54-.37h3.86c.23,0,.53,0,.94,.01h9.69s-3.69-3.63-4.13-4.07v-2.85h5.22c.95,3.96,4.01,7.4,8.57,7.4,1.89,0,3.52-.59,4.86-1.57-.63,.62-1.11,1.09-1.11,1.09h3.92l-.03-.02c.23,.02,.53,.02,.94,.02h7.28s5.81,0,6.85,0c.45,.21,.94,.35,1.46,.35,2.01,0,3.71-1.64,3.71-3.58,0-.97-.39-1.86-1.06-2.52,.04-.56,.62-8.69,.66-9.3Zm-27.49-.07c1.72,0,2.09,3.02,2.09,5.55s-.36,5.55-2.09,5.55-2.09-3.02-2.09-5.55,.36-5.55,2.09-5.55Zm14.13,6.41c.28-.28,.73-.72,.73-.72,.04-.04,.06-.06,.1-.09v6.27c-.25-.24-.72-.71-.82-.81v-4.64Zm-34.14,.18v4.44c-.17,.17-.51,.5-1.02,1v-4.44c.2-.2,.51-.5,1.02-1Zm-5.26-4.37s.75,1.19,.79,1.26c-1.8,0-5.49,0-6.14,0,.38-1.78,1.27-3.48,2.92-3.48,.46,0,.69,.08,.99,.36,.61,.52,.86,.93,1.43,1.87Zm-5.46,1.88c.44,.44,3.05,3.05,3.48,3.48v3.47c-.11,.1-.23,.15-.45,.15-2.59,0-3.14-3.08-3.14-5.66,0-.45,.04-.94,.11-1.44Zm-29.21-5.4c.42,.41,.64,.63,.98,.97-.36,.66-.91,1.68-.97,1.8-.13-.25-.69-1.27-.98-1.8,.38-.38,.67-.67,.96-.96Zm10.34,11.41v-5.25c.41,.4,.63,.62,.82,.81v3.64c-.29,.28-.71,.69-.71,.69-.04,.04-.07,.07-.11,.11Zm-8.15,.82v-4.21c.13-.23,.59-1.06,1.06-1.91,.28,.27,.72,.71,.87,.86v5.65c0,.76,.33,1.66,.93,2.44-.04-.04-2.42-2.38-2.87-2.82Z"
         id="path92" />
      <g
         id="g156"
         style="fill:#ffffff">
        <rect
           class="e"
           x="46.86"
           y="22.61"
           width="4.36"
           height="1.91"
           id="rect134"
           style="fill:#ffffff" />
        <rect
           class="e"
           x="75.57"
           y="22.61"
           width="4.36"
           height="1.91"
           id="rect136"
           style="fill:#ffffff" />
        <path
           class="e"
           d="M89.01,14.62c-4.49,0-7.48,4.18-7.48,8.64s2.99,8.64,7.48,8.64,7.48-4.18,7.48-8.64-2.99-8.64-7.48-8.64Zm0,15.6c-2.97,0-3.49-3.88-3.49-6.95s.53-6.95,3.49-6.95,3.49,3.88,3.49,6.95-.53,6.95-3.49,6.95Z"
           id="path138"
           style="fill:#ffffff" />
        <polygon
           class="e"
           points="29.86 29.24 29.86 24.07 33.26 17.97 36.15 15.1 29.73 15.1 31.8 17.13 29.09 22.13 26.38 17.13 28.41 15.1 20.04 15.1 22.97 17.98 26.46 24.07 26.46 29.21 24.19 31.44 24.69 31.44 24.68 31.44 31.61 31.44 31.61 31.44 32.1 31.44 29.86 29.24"
           id="polygon140"
           style="fill:#ffffff" />
        <polyline
           class="e"
           points="70.05 22.44 70.41 22.8 70.41 29.34 68.28 31.44 68.75 31.44 68.74 31.44 75.92 31.44 73.82 29.36 73.82 21.76 75.35 18.98 68.8 21.22 70.05 22.44"
           id="polyline142"
           style="fill:#ffffff" />
        <polygon
           class="e"
           points="111.54 17.17 112.2 26.84 113.33 26.84 114.45 26.84 115.13 17.16 117.24 15.09 109.43 15.09 111.54 17.17"
           id="polygon144"
           style="fill:#ffffff" />
        <path
           class="e"
           d="M108.78,29.35v-7.24c0-1.3-1.3-2.77-3.1-2.77-.58,0-1.72,.22-2.94,1.44l-1,1v-5.89l1.44-2.44-6.46,2.04,1.61,1.61v12.23l-2.15,2.12h7.67l-2.12-2.08v-5.81l1.14-1.14c.61-.64,1.16-.89,1.55-.89,.69,0,.94,.69,.94,1.05v8.87h5.53l-2.12-2.1Z"
           id="path146"
           style="fill:#ffffff" />
        <path
           class="e"
           d="M45.05,29.35v-7.61l1.53-2.76-6.54,2.24,1.61,1.58v4.82l-1.14,1.11c-.61,.64-1.14,.89-1.52,.89-.75,0-.97-.67-.97-1.03v-6.89l1.5-2.72-6.52,2.24,1.61,1.58v6.23c0,1.16,1.11,2.77,3.05,2.77,.78,0,1.77-.22,2.99-1.41l1-1v2.05h5.53l-2.12-2.09Z"
           id="path148"
           style="fill:#ffffff" />
        <path
           class="e"
           d="M68.74,22.6h-7.68l2.12,2.12v4.64c-.25,.19-.67,.97-1.86,.97-3.6,0-4.54-3.74-4.54-7.07s1.38-6.95,4.54-6.95c.81,0,1.38,.21,1.94,.72,.74,.64,1.1,1.2,1.69,2.17l1.64,2.6v-7.57l-1.2,1.22c-1.4-.62-2.45-.73-4.07-.73-4.43,0-8.53,3.99-8.53,8.53s4.1,8.53,8.53,8.53c2.08,0,3.41-.17,5.26-1.19v-5.89l2.15-2.11Z"
           id="path150"
           style="fill:#ffffff" />
        <path
           class="e"
           d="M72.12,19.04c1.2,0,2.17-.97,2.17-2.17s-.97-2.17-2.17-2.17-2.17,.97-2.17,2.17,.97,2.17,2.17,2.17Z"
           id="path152"
           style="fill:#ffffff" />
        <path
           class="e"
           d="M113.32,27.45c-1.2,0-2.17,.97-2.17,2.17s.83,2.17,2.03,2.17,2.31-.97,2.31-2.17-.97-2.17-2.17-2.17Z"
           id="path154"
           style="fill:#ffffff" />
      </g>
    </g>
  </g>
</svg>
