<?xml version="1.0" encoding="UTF-8" standalone="no"?>
<svg
   width="64"
   height="64"
   version="1.1"
   viewBox="0 0 64 64"
   id="svg5"
   sodipodi:docname="start.svg"
   inkscape:version="1.3.2 (091e20e, 2023-11-25, custom)"
   xmlns:inkscape="http://www.inkscape.org/namespaces/inkscape"
   xmlns:sodipodi="http://sodipodi.sourceforge.net/DTD/sodipodi-0.dtd"
   xmlns="http://www.w3.org/2000/svg"
   xmlns:svg="http://www.w3.org/2000/svg">
  <defs
     id="defs5" />
  <sodipodi:namedview
     id="namedview5"
     pagecolor="#505050"
     bordercolor="#eeeeee"
     borderopacity="1"
     inkscape:showpageshadow="0"
     inkscape:pageopacity="0"
     inkscape:pagecheckerboard="0"
     inkscape:deskcolor="#505050"
     inkscape:zoom="12.562194"
     inkscape:cx="23.483159"
     inkscape:cy="32.995829"
     inkscape:window-width="2560"
     inkscape:window-height="1351"
     inkscape:window-x="-9"
     inkscape:window-y="-9"
     inkscape:window-maximized="1"
     inkscape:current-layer="svg5" />
  <path
     id="outline"
     d="m 2,52 a 7,7 0 0 1 7,-7 h 46 a 7,7 0 0 1 7,7 7,7 0 0 1 -7,7 H 9 A 7,7 0 0 1 2,52 Z"
     fill="#ffffff"
     stroke="#ffffff"
     stroke-linejoin="round"
     stroke-width="2"
     style="display:inline;stroke:none" />
  <path
     id="outline-9"
     d="m 2,32 a 7,7 0 0 1 7,-7 h 46 a 7,7 0 0 1 7,7 7,7 0 0 1 -7,7 H 9 A 7,7 0 0 1 2,32 Z"
     fill="#ffffff"
     stroke="#ffffff"
     stroke-linejoin="round"
     stroke-width="2"
     style="display:inline;stroke:none" />
  <path
     id="outline-7"
     d="M 2,12 A 7,7 0 0 1 9,5 h 46 a 7,7 0 0 1 7,7 7,7 0 0 1 -7,7 H 9 A 7,7 0 0 1 2,12 Z"
     fill="#ffffff"
     stroke="#ffffff"
     stroke-linejoin="round"
     stroke-width="2"
     style="display:inline;stroke:none" />
</svg>
