<?xml version="1.0" encoding="UTF-8" standalone="no"?>
<!-- Generator: Adobe Illustrator 13.0.0, SVG Export Plug-In . SVG Version: 6.00 Build 14948)  -->

<svg
   xmlns:dc="http://purl.org/dc/elements/1.1/"
   xmlns:cc="http://creativecommons.org/ns#"
   xmlns:rdf="http://www.w3.org/1999/02/22-rdf-syntax-ns#"
   xmlns:svg="http://www.w3.org/2000/svg"
   xmlns="http://www.w3.org/2000/svg"
   xmlns:sodipodi="http://sodipodi.sourceforge.net/DTD/sodipodi-0.dtd"
   xmlns:inkscape="http://www.inkscape.org/namespaces/inkscape"
   version="1.1"
   id="Layer_1"
   x="0px"
   y="0px"
   width="270px"
   height="82.35px"
   viewBox="3 136.909 270 82.35"
   enable-background="new 3 136.909 270 82.35"
   xml:space="preserve"
   sodipodi:docname="3do.svg"
   inkscape:version="0.92.4 (5da689c313, 2019-01-14)"><metadata
   id="metadata34"><rdf:RDF><cc:Work
       rdf:about=""><dc:format>image/svg+xml</dc:format><dc:type
         rdf:resource="http://purl.org/dc/dcmitype/StillImage" /></cc:Work></rdf:RDF></metadata><defs
   id="defs32" /><sodipodi:namedview
   pagecolor="#ffffff"
   bordercolor="#666666"
   borderopacity="1"
   objecttolerance="10"
   gridtolerance="10"
   guidetolerance="10"
   inkscape:pageopacity="0"
   inkscape:pageshadow="2"
   inkscape:window-width="640"
   inkscape:window-height="480"
   id="namedview30"
   showgrid="false"
   inkscape:zoom="1.3222222"
   inkscape:cx="0"
   inkscape:cy="41.174999"
   inkscape:current-layer="Layer_1" />
<title
   id="title2">3DO Logo</title>
<rect
   x="23.420168"
   y="145.22833"
   width="228.40337"
   height="65.711342"
   id="rect4"
   style="stroke-width:0.82159489" />
<rect
   x="26.380953"
   y="148.3595"
   width="62.317741"
   height="58.782726"
   id="rect6"
   style="fill:#ffffff;stroke-width:0.82159489" />
<path
   d="m 48.195165,202.93622 c 0,-0.80274 3.93023,-1.45387 8.780841,-1.45387 4.85061,0 8.78084,0.65113 8.78084,1.45387 0,0.80274 -3.93023,1.45227 -8.78084,1.45227 -4.850611,0 -8.780841,-0.65033 -8.780841,-1.45227 z"
   id="path8"
   inkscape:connector-curvature="0"
   style="fill:#888888;stroke-width:0.82159489" />
<path
   d="m 110.89527,174.94645 v 0.10693 c 5.08747,0.0894 8.84428,1.04372 11.2679,2.86305 2.42531,1.81774 3.63838,4.01769 3.63838,6.59667 0,2.87821 -1.37803,5.25531 -4.14086,7.12571 -2.75692,1.87599 -6.43083,2.81278 -11.0099,2.81278 -3.95814,0 -7.01536,-0.74848 -9.18096,-2.23905 -2.165606,-1.49058 -3.248407,-3.18622 -3.248407,-5.09572 0,-1.26555 0.484723,-2.29252 1.45586,-3.06893 0.969447,-0.7764 2.134297,-1.16102 3.489497,-1.16102 1.27229,0 2.36609,0.34153 3.27124,1.015 0.91108,0.68145 1.36027,1.57915 1.36027,2.6899 0,1.48419 -1.05319,2.72819 -3.16466,3.73281 -0.41281,0.1955 -0.62599,0.41813 -0.62599,0.6647 0,0.45723 0.59046,0.85859 1.77985,1.2065 1.18347,0.34552 2.38978,0.51309 3.63162,0.51309 4.06473,0 6.09921,-2.81757 6.09921,-8.45351 0,-5.58008 -2.44391,-8.36972 -7.32329,-8.36972 l -4.05289,0.15481 c -0.81633,0 -1.22999,-0.28328 -1.22999,-0.85222 0,-0.65272 0.43143,-0.98148 1.28921,-0.98148 l 2.95148,0.10613 c 3.01154,0 5.02741,-0.63118 6.05184,-1.89833 1.02782,-1.26076 1.53707,-3.05775 1.53707,-5.38936 0,-2.40024 -0.3849,-4.1693 -1.15978,-5.29681 -0.77488,-1.13309 -2.10554,-1.69565 -3.98691,-1.69565 -1.02274,0 -1.98711,0.16119 -2.88719,0.48994 -0.89923,0.32397 -1.35519,0.64236 -1.35519,0.96074 0,0.29365 0.29693,0.60245 0.88824,0.92004 1.54891,0.93201 2.33056,1.94221 2.33056,3.02982 0,1.07165 -0.43143,1.91828 -1.3019,2.55584 -0.86878,0.62959 -1.84584,0.94797 -2.93456,0.94797 -1.25368,0 -2.37286,-0.36307 -3.35415,-1.08123 -0.982977,-0.72613 -1.480388,-1.61824 -1.480388,-2.69628 0,-1.8297 1.095488,-3.41443 3.283088,-4.74861 2.18928,-1.33896 4.99272,-2.00844 8.4247,-2.00844 3.79149,0 6.9866,0.75805 9.58787,2.27177 2.60887,1.51211 3.91077,3.44715 3.91077,5.81946 0.007,4.66403 -4.60191,7.48399 -13.81164,8.4527 z"
   id="path10"
   inkscape:connector-curvature="0"
   style="fill:#ffffff;stroke-width:0.82159489" />
<path
   d="m 156.81704,159.97767 v 32.08485 h 3.3313 c 5.0934,0 8.16923,-1.26076 9.22835,-3.7775 1.05911,-2.52153 1.58613,-6.82967 1.58613,-12.92842 0,-4.77095 -0.32653,-8.20294 -0.97621,-10.2856 -0.64461,-2.08505 -1.63266,-3.45832 -2.95148,-4.11025 -1.32051,-0.65352 -2.99885,-0.98228 -5.02826,-0.98228 h -5.18983 z m -10.28661,32.08485 v -32.08485 h -5.33534 v -1.73634 h 21.37771 c 6.18297,0 11.0801,1.65176 14.68296,4.96087 3.602,3.30432 5.40639,7.47761 5.40639,12.51667 0,2.6101 -0.54817,5.07258 -1.64958,7.3651 -1.10057,2.2989 -2.79244,4.39193 -5.07563,6.2711 -2.28404,1.88078 -4.62644,3.09127 -7.02806,3.63308 -2.40246,0.54101 -5.34802,0.81072 -8.85105,0.81072 h -18.86358 v -1.73635 z"
   id="path12"
   inkscape:connector-curvature="0"
   style="fill:#ffffff;stroke-width:0.82159489" />
<path
   d="m 223.83058,176.03646 c 0,-5.44523 -0.12012,-9.03442 -0.35614,-10.76278 -0.24109,-1.73634 -0.85778,-3.13116 -1.85091,-4.19244 -0.99398,-1.05888 -2.63171,-1.58952 -4.91067,-1.58952 -1.92113,0 -3.45397,0.4301 -4.59683,1.28391 -1.14286,0.85859 -1.85091,2.23187 -2.13515,4.12381 -0.27747,1.89035 -0.41958,5.58566 -0.41958,11.08196 0,5.43964 0.11843,9.04478 0.36037,10.80267 0.23686,1.75789 0.87639,3.15909 1.91266,4.20281 1.03543,1.04373 2.66132,1.56239 4.88022,1.56239 1.83992,0 3.34146,-0.41732 4.50124,-1.25597 1.15978,-0.84264 1.88644,-2.20395 2.17744,-4.09589 0.29524,-1.89354 0.43735,-5.61439 0.43735,-11.16095 z m -25.96946,-0.15082 c 0,-5.31835 1.85599,-9.67038 5.58573,-13.05768 3.71875,-3.38013 8.187,-5.07099 13.39121,-5.07099 4.83454,0 9.15813,1.58952 12.97331,4.77096 3.81772,3.18063 5.72193,7.70582 5.72193,13.57156 0,5.4971 -1.79847,9.90418 -5.40809,13.21888 -3.60877,3.31309 -8.01611,4.97124 -13.22117,4.97124 -5.62549,0 -10.21048,-1.76427 -13.74142,-5.27845 -3.53264,-3.51738 -5.3015,-7.89095 -5.3015,-13.12552 z"
   id="path14"
   inkscape:connector-curvature="0"
   style="fill:#ffffff;stroke-width:0.82159489" />
<radialGradient
   id="SVGID_1_"
   cx="49.8867"
   cy="-77.3159"
   r="10.654"
   gradientTransform="matrix(0.84593838,0,0,-0.79795196,15.806723,126.1501)"
   gradientUnits="userSpaceOnUse">
	<stop
   offset="0.5225"
   style="stop-color:#FFE41B"
   id="stop16" />
	<stop
   offset="0.8933"
   style="stop-color:#716A13"
   id="stop18" />
	<stop
   offset="1"
   style="stop-color:#49482E"
   id="stop20" />
</radialGradient>
<path
   d="m 49.512291,189.23538 c 0,-3.89959 3.340611,-7.05868 7.463715,-7.05868 4.123103,0 7.463714,3.15909 7.463714,7.05868 0,3.898 -3.341457,7.05868 -7.463714,7.05868 -4.12395,-7.9e-4 -7.463715,-3.16148 -7.463715,-7.05868 z"
   id="path23"
   style="fill:url(#SVGID_1_);stroke-width:0.82159489"
   inkscape:connector-curvature="0" />
<path
   d="m 50.024084,170.82822 c -1.098028,0.69103 -1.390723,4.70473 -1.390723,4.70473 0,0 0.292695,4.0137 1.390723,4.70472 1.097182,0.69183 6.951922,1.10836 6.951922,1.10836 0,0 5.854739,-0.41573 6.951075,-1.10836 1.098874,-0.69102 1.391569,-4.70472 1.391569,-4.70472 0,0 -0.291849,-4.0137 -1.391569,-4.70473 -1.096336,-0.69262 -6.951075,-1.10835 -6.951075,-1.10835 0,0 -5.85474,0.41573 -6.951922,1.10835 z"
   id="path25"
   inkscape:connector-curvature="0"
   style="fill:#0000a0;stroke-width:0.82159489" />
<polygon
   points="32.332,156.676 42.667,146.313 53.002,156.676 42.667,167.036 "
   id="polygon27"
   transform="matrix(0.84593838,0,0,0.79795196,20.882353,35.981521)"
   style="fill:#ff0000" />
</svg>