<?xml version="1.0" encoding="UTF-8" standalone="no"?>
<!-- Created with Inkscape (http://www.inkscape.org/) -->

<svg
   version="1.1"
   id="svg1"
   width="248.87813"
   height="282.85532"
   viewBox="0 0 248.87813 282.85532"
   sodipodi:docname="3dsen.svg"
   inkscape:version="1.4 (86a8ad7, 2024-10-11)"
   xml:space="preserve"
   xmlns:inkscape="http://www.inkscape.org/namespaces/inkscape"
   xmlns:sodipodi="http://sodipodi.sourceforge.net/DTD/sodipodi-0.dtd"
   xmlns="http://www.w3.org/2000/svg"
   xmlns:svg="http://www.w3.org/2000/svg"><defs
     id="defs1" /><sodipodi:namedview
     id="namedview1"
     pagecolor="#ffffff"
     bordercolor="#000000"
     borderopacity="0.25"
     inkscape:showpageshadow="2"
     inkscape:pageopacity="0.0"
     inkscape:pagecheckerboard="0"
     inkscape:deskcolor="#d1d1d1"
     inkscape:zoom="2.7352071"
     inkscape:cx="204.55489"
     inkscape:cy="10.419686"
     inkscape:window-width="3840"
     inkscape:window-height="2066"
     inkscape:window-x="-11"
     inkscape:window-y="-11"
     inkscape:window-maximized="1"
     inkscape:current-layer="svg1" /><path
     style="display:inline;fill:#3a3230;fill-opacity:1"
     d="m 60.41249,282.83463 -21.92,-0.0288 -2.88099,-0.59795 -2.88099,-0.59794 -1.91901,-0.61915 -1.91901,-0.61915 17.37274,-0.0319 17.37275,-0.032 1.20908,-0.61683 1.20908,-0.61683 1.16011,-1.2841 1.16012,-1.28411 0.49806,-1.67715 0.49805,-1.67714 v -5.70192 -5.70192 l 5.52,-0.004 5.52,-0.004 0.64,-0.171 0.64,-0.17101 10e-4,6.01538 0.001,6.01537 0.84713,1.80919 0.84713,1.80919 0.99181,0.8837 0.9918,0.88371 -0.002,0.5071 -0.002,0.50711 -0.60311,0.91478 -0.60311,0.91479 -0.91478,0.6031 -0.91479,0.60311 z m 84.06215,9.3e-4 -39.10216,-0.0321 -2.08,-0.45409 -2.08,-0.4541 -2.56,-0.71377 -2.56,-0.71377 25.6236,-0.16 25.6236,-0.16 1.30281,-0.86232 1.30282,-0.86231 0.56568,0.62508 0.56569,0.62507 1.1479,0.34077 1.1479,0.34077 5.9447,-0.10353 5.94469,-0.10353 1.18077,-0.8 1.18077,-0.8 0.79453,-1.58283 0.79454,-1.58283 V 232.5649 189.74773 h 5.28 5.28 l 0.002,15.28 0.002,15.28 0.33051,1.19006 0.33052,1.19006 0.82582,0.98143 0.82582,0.98144 0.90599,0.4685 0.90599,0.46851 h 0.82108 0.82107 l -0.0852,27.86777 -0.0852,27.86778 -0.89784,0.77222 -0.89785,0.77223 z m 96.89784,0.005 -4.16,-0.0246 -6.30229,-1.06168 -6.3023,-1.06169 -0.4177,-0.1673 -0.41771,-0.16731 2.4,-0.027 2.4,-0.0271 1.24961,-0.34696 1.24961,-0.34695 1.68394,-1.68394 1.68394,-1.68395 0.50645,-1.70539 0.50645,-1.7054 V 213.2128 153.59431 l -0.61924,-1.6297 -0.61923,-1.6297 0.53923,0.22012 0.53924,0.22012 1.3401,0.46945 1.3401,0.46945 4.7399,2.51007 4.7399,2.51007 0.55915,0.74663 0.55915,0.74663 0.19992,60.16 0.19992,60.16 -0.66642,1.517 -0.66641,1.51701 -1.05265,0.6418 -1.05266,0.64179 z m -198.87999,-3.5372 -20.64,-0.0301 -0.64,-0.16025 -0.64,-0.16024 -0.96,-0.6721 -0.96,-0.67211 -0.36292,-0.35059 -0.36292,-0.35059 -0.7466,-1.41994 -0.7466,-1.41994 -0.12282,-6.64 -0.12281,-6.64 H 10.28987 4.3919295 l -1.04466,-0.43649 -1.04467,-0.43649 -0.85276,-1.01345 -0.85275997,-1.01345 -0.33051,-1.19006 -0.33051,-1.19006 -0.002,-6.25717 -0.002,-6.25717 0.79453,-1.58283 0.79453997,-1.58283 1.18202,-0.8 1.18201,-0.8 h 5.8069 5.8068905 l 1.1595,0.7945 1.1595,0.79451 0.73705,1.28549 0.73706,1.2855 0.10163,7.28 0.10163,7.28 h 23.01837 23.01836 v -15.67377 -15.67377 l -22.79999,-0.0862 -22.8,-0.0862 -1.04092,-0.78086 -1.04091,-0.78085 -0.71909,-1.45915 -0.71908,-1.45914 -0.0764,-7.52 -0.0764,-7.52 -6.21494,-0.16 -6.2149305,-0.16 -1.22864,-0.99393 -1.22864,-0.99393 -0.63999997,-1.08607 -0.64,-1.08607 -0.0923000041,-14.48002 -0.0922999959,-14.48002 0.34579,-1.28418 0.3458,-1.28418 0.99402997,-1.13215 0.99404,-1.13214 0.89661,-0.46366 0.8966,-0.46365 h 5.9359005 5.93589 v -6.34192 -6.34192 l 0.48789,-1.64291 0.48789,-1.6429 0.85887,-1.02071 0.85887,-1.02071 1.29324,-0.58744 1.29324,-0.58743 21.13735,-0.007 21.13735,-0.007 1.45566,0.92316 1.45567,0.92315 0.84698,1.69968 0.84698,1.69967 v 6.97717 6.97717 h 6.53383 6.53383 l 0.50617,0.19424 0.50617,0.19423 0.0179,-6.67423 0.0179,-6.67424 0.56221,-1.3852 0.5622,-1.38521 0.84503,-1.05904 0.84504,-1.05905 1.39591,-0.67575 1.39592,-0.67575 h 29.13989 29.13988 l 1.10456,0.46151 1.10455,0.46151 0.41371,0.49849 0.41371,0.49849 h 0.40658 0.40658 l 0.16485,-0.42959 0.16485,-0.4296 1.11775,-0.5304 1.11775,-0.53041 h 12.68191 12.68192 l 1.18972,0.49698 1.18972,0.49697 0.90931,0.86303 0.90931,0.86302 0.69069,1.28 0.69069,1.28 0.16,16 0.16,16 6.93981,0.16 6.93981,0.16 0.94999,0.91094 0.94999,0.91093 0.3502,1.39077 0.3502,1.39076 v 15.5383 15.5383 h 6.88 6.88 l 0.002,-33.36 0.002,-33.36 0.33103,-1.19192 0.33102,-1.19192 1.03179,-1.36808 1.03179,-1.36808 1.4354,-0.73746 1.4354,-0.73747 4.98532,0.0975 4.98531,0.0975 1.49386,1.12 1.49386,1.12 0.88083,1.76 0.88082,1.76 v 60 60 l -0.79732,1.56125 -0.79732,1.56125 -1.21608,1.04091 -1.21607,1.04091 -1.39569,0.39077 -1.39568,0.39077 -4.11092,-0.12235 -4.11092,-0.12236 -0.97945,-0.52748 -0.97945,-0.52749 -1.00572,-1.02866 -1.00571,-1.02867 -0.57483,-1.15443 -0.57484,-1.15442 -0.10298,-6.62316 -0.10299,-6.62315 -7.14414,-0.0968 -7.14414,-0.0968 -0.71807,-0.64 -0.71807,-0.64 -0.58777,-1.28 -0.58778,-1.28 -0.007,-15.90268 -0.007,-15.90268 -7.01493,-0.0973 -7.01493,-0.0973 -0.85547,-0.8 -0.85548,-0.8 -0.44959,-0.86411 -0.4496,-0.86411 v -16.17589 -16.17589 h -6.08 -6.08 l -0.002,42.64 -0.002,42.64 -0.33051,1.19006 -0.33051,1.19006 -0.82582,0.98143 -0.82582,0.98143 -0.90599,0.46851 -0.90599,0.46851 h -5.59506 -5.59506 l -0.90084,-0.34036 -0.90083,-0.34036 -0.84489,-0.80588 -0.8449,-0.80588 -0.23432,0.37913 -0.23431,0.37912 -1.64079,0.76399 -1.64079,0.76399 -28.48,0.001 -28.48,10e-4 -1.22264,-0.33951 -1.22265,-0.33951 -1.28053,-1.15688 -1.28052,-1.15688 -0.69683,-1.30182 -0.69683,-1.30183 -0.10237,-6.96 -0.10237,-6.96 h -0.10105 -0.10105 l -0.91658,0.47803 -0.91658,0.47802 -6,0.002 -6,0.002 -0.002,6.32 -0.002,6.32 -0.33568,1.20874 -0.33567,1.20875 -1.0198,1.16149 -1.0198,1.16148 -1.28274,0.58274 -1.28274,0.58274 z m -0.0641,-3.81614 20.25589,0.0203 0.93869,-0.48542 0.93869,-0.48542 0.48542,-0.93869 0.48541,-0.93869 v -5.93589 -5.93589 H 42.4925 19.4525 v 6.19684 6.19685 l 0.68419,0.86981 0.6842,0.86982 0.6758,0.27306 0.67581,0.27305 z m 21.6641,-2.21971 h -0.16 v -0.16 -0.16 h 0.16 0.16 v 0.16 0.16 z m 0.37334,-0.74667 -0.21334,0.21333 v -0.42666 -0.42667 l 0.21334,0.21333 0.21333,0.21334 z m 52.6983,2.98547 28.43164,0.001 1.06363,-0.50473 1.06364,-0.50473 0.50473,-1.06363 0.50472,-1.06364 v -3.58327 -3.58328 l -0.50472,-1.06363 -0.50473,-1.06364 -1.06364,-0.50473 -1.06363,-0.50472 h -22.07366 -22.07366 l -0.83798,-1.09865 -0.83798,-1.09865 0.009,-18.82135 0.009,-18.82135 0.87445,-1.05385 0.87446,-1.05386 13.11694,-7.7e-4 13.11693,-7.7e-4 1.09003,-0.38537 1.09003,-0.38538 0.66997,-0.90347 0.66997,-0.90346 v -4.08809 -4.08809 l -0.44632,-0.83397 -0.44633,-0.83396 -1.04203,-0.49448 -1.04204,-0.49448 -13.39164,-1e-5 -13.39164,-1e-5 -0.88,-1.10289 -0.88,-1.1029 v -18.77104 -18.77105 l 0.98689,-1.24605 0.98689,-1.24605 h 22.30191 22.30191 l 0.71303,-0.49943 0.71303,-0.49942 0.47817,-0.92468 0.47817,-0.92469 v -3.54617 -3.54617 l -0.45479,-1.08846 -0.45479,-1.08847 -0.96932,-0.50126 -0.96931,-0.50125 H 117.0803 88.27554 l -1.12667,0.98923 -1.12667,0.98923 -0.32869,1.22066 -0.32869,1.22066 0.0842,58.36424 0.0842,58.36423 0.57739,0.88115 0.57739,0.88115 1.02261,0.62353 1.02261,0.62352 z m -15.31164,-56.6388 h -0.16 v -0.16 -0.16 h 0.16 0.16 v 0.16 0.16 z m -2.22111,-12.8 h -0.14111 l -0.22833,-0.36944 -0.22833,-0.36945 0.36944,0.22833 0.36944,0.22833 v 0.14111 0.14112 z m -0.0189,-40.64 h -0.16 v -0.16 -0.16 h 0.16 0.16 v 0.16 0.16 z m 47.36,-11.84 h -0.16 v -0.16 -0.16 h 0.16 0.16 v 0.16 0.16 z m 11.68,121.92 h 5.2976 l 0.7112,-0.49815 0.7112,-0.49814 v -44.78186 -44.78185 l 0.4,-0.033 0.4,-0.033 7.36,-0.047 7.36,-0.047 V 169.37095 153.9542 l -0.67085,-0.90325 -0.67084,-0.90326 -0.76916,-0.39528 -0.76915,-0.39529 -12.4548,-0.005 -12.4548,-0.005 -0.5852,0.5296 -0.5852,0.52959 v 61.05226 61.05226 l 0.7112,0.49814 0.71121,0.49815 z m 65.87164,-5e-4 3.63164,5e-4 1.12614,-0.53439 1.12614,-0.53439 0.60102,-0.98561 0.60103,-0.98561 v -59.04 -59.04 l -0.62465,-1.02446 -0.62466,-1.02447 -0.95826,-0.49553 -0.95826,-0.49554 h -4.1016 -4.10161 l -1.13503,0.77127 -1.13502,0.77127 -0.37926,1.26585 -0.37926,1.26586 v 34.60288 34.60287 h -8.32299 -8.32298 l 0.083,15.92 0.083,15.92 8.22439,0.0854 8.22439,0.0854 0.0956,7.97196 0.0956,7.97197 0.66275,0.90266 0.66275,0.90267 1.09725,0.5595 1.09725,0.5595 z m -75.86944,-16.16539 0.0822,-0.0518 -0.001,-45.81114 -0.001,-45.81113 -0.001,-0.16822 -0.001,-0.16822 -0.94411,0.48822 -0.9441,0.48822 h -21.9359 -21.93589 v 17.26992 17.26991 l 13.38382,0.0901 13.38382,0.0901 1.31849,0.87283 1.3185,0.87284 0.89769,1.52716 0.89768,1.52717 0.10856,4.87145 0.10856,4.87144 -0.52611,1.58398 -0.52612,1.58398 -1.38894,1.28028 -1.38894,1.28028 -1.2335,0.34251 -1.23351,0.34251 -12.56,0.002 -12.56,0.002 v 17.11352 17.11352 l 21.84,0.0865 21.84,0.0865 0.96,0.50297 0.96,0.50298 z m -36.79108,-2.074 -8.22889,-1.1e-4 -0.0164,-16.14649 -0.0163,-16.14649 13.04524,-0.0935 13.04524,-0.0935 0.97946,-0.53691 0.97945,-0.53691 1.06082,-1.06309 1.06081,-1.06309 0.67973,-1.44 0.67973,-1.44 v -5.28 -5.28 l -0.702,-1.52 -0.70201,-1.52 h 0.21385 0.21386 l 5.60815,1.78335 5.60815,1.78336 1.36,0.64519 1.36,0.64519 v 8.76809 8.76809 l -14,0.0834 -14,0.0834 v 14.80011 14.8001 z m 0,-55.36004 -8.22889,-7e-5 -0.0164,-16.15133 -0.0164,-16.15133 21.52524,-0.0995 21.52525,-0.0996 0.72,-0.26644 0.72,-0.26644 v 1.63395 1.63396 l -14,0.0834 -14,0.0834 v 14.80007 14.80007 z M 10.36794,256.94751 h 5.88455 v -6.77481 -6.7748 l -0.5296,-0.5852 -0.5296,-0.58519 h -5.5008005 -5.50081 l -0.55351,0.61162 -0.55351,0.61162 0.0264,6.18838 0.0264,6.18838 0.67293,0.56 0.67293,0.56 z m 63.9595,0 h 5.91495 l 1.04505,-0.93351 1.04504,-0.93351 0.09,-13.64847 0.09,-13.64846 -1.09803,-1.09802 -1.09803,-1.09803 h -5.952 -5.952 v 15.68 15.68 z m 7.92504,-34.27138 0.24,0.0314 8e-5,-17.2 8e-5,-17.2 h -6.64008 -6.64008 l -1.12,-0.64732 -1.12,-0.64732 -0.72,-1.42049 -0.72,-1.42048 v -6.8122 -6.81219 h -23.03999 -23.04 v 15.68 15.68 h 22.41589 22.41589 l 0.86411,0.44959 0.8641,0.4496 0.70473,0.75477 0.70473,0.75477 0.49527,1.18536 0.49527,1.18535 v 7.53028 7.53028 l 6,0.005 6,0.005 0.8,0.44391 0.8,0.44391 z m -0.88,-1.64094 -0.32,-0.0723 -5.84,-0.0949 -5.84,-0.0949 v -5.59278 -5.59278 h 6.16 6.16 v 5.76 5.76 z M 28.46582,200.94751 h -7.94667 l -0.21333,-0.21333 -0.21333,-0.21334 v -14.50666 -14.50667 h 22.24 22.23999 v 1.44 1.44 h -14.07999 -14.08 v 13.28 13.28 z m 52.61124,-9.62526 -0.66458,-0.0253 -0.45713,-0.18044 -0.45713,-0.18045 -3.06287,-0.72814 -3.06287,-0.72815 4.04368,-0.0261 4.04368,-0.0262 0.1409,0.96 0.1409,0.96 z m -37.74142,30.42526 h 22.19684 v -7.21455 -7.21454 l -0.78545,-0.78546 -0.78545,-0.78545 H 41.70703 19.45249 v 7.33677 7.33678 l 0.84315,0.66322 0.84316,0.66323 z m -22.12315,-1.28 h -0.16 v -0.16 -0.16 h 0.16 0.16 v 0.16 0.16 z m 169.66698,0.32 h 6.49899 l -0.083,-15.92 -0.083,-15.92 -6.8,-0.0864 -6.8,-0.0864 v 15.62236 15.62237 l 0.384,0.384 0.384,0.384 z m -6.14699,-1.28 h -0.16 v -0.16 -0.16 h 0.16 0.16 v 0.16 0.16 z m 11.52,0 h -0.16 v -0.16 -0.16 h 0.16 0.16 v 0.16 0.16 z m -11.52,-0.96 h -0.16 v -0.16 -0.16 h 0.16 0.16 v 0.16 0.16 z m 0,-26.88 h -0.16 v -0.16 -0.16 h 0.16 0.16 v 0.16 0.16 z m 0,-0.64 h -0.16 v -0.16 -0.16 h 0.16 0.16 v 0.16 0.16 z m 0,-0.96 h -0.16 v -0.16 -0.16 h 0.16 0.16 v 0.16 0.16 z m 11.52,0 h -0.16 v -0.16 -0.16 h 0.16 0.16 v 0.16 0.16 z m -185.43999,11.74347 5.6,-0.0635 -0.08,-0.24 -0.08,-0.24 v -15.36 -15.36 H 10.51033 4.7681795 l -0.83211,0.72 -0.83211,0.72 0.0196,14.03099 0.0196,14.031 0.33559,0.62705 0.33559,0.62706 0.69909,0.28542 0.69908,0.28542 z m 64.66673,-17.50347 h 6.00755 l 0.50286,-0.50286 0.50285,-0.50286 v -5.79194 -5.79195 l -0.52959,-0.58519 -0.5296,-0.5852 h -6.5104 -6.51041 v 6.2948 6.29481 l 0.5296,0.58519 0.5296,0.5852 z m -32.98673,-17.6 h 23.03999 v -6.592 -6.592 l -1.088,-1.088 -1.088,-1.088 H 42.69954 22.0426 l -0.83906,0.3823 -0.83905,0.3823 -0.456,0.88181 -0.456,0.88181 v 6.41589 6.41589 z m -27.12,97.24341 -0.24,-0.0366 -4,-1.00342 -4.0000005,-1.00341 3.8213705,-0.0907 3.82137,-0.0907 0.41863,0.16064 0.41863,0.16064 v 0.97004 0.97005 z m 197.91999,0.008 -0.08,-0.0291 -4,-1.03542 -4,-1.03542 -0.48,-0.16259 -0.48,-0.1626 4.55854,0.0271 4.55853,0.0271 0.001,1.2 0.001,1.2 z M 28.25249,255.98769 h -8.16 l -0.0113,-6.96 -0.0113,-6.96 -0.45732,-0.8 -0.45733,-0.8 -0.0113,-0.22207 -0.0113,-0.22206 2.96,1.28181 2.96,1.28182 2.4,1.06139 2.4,1.06139 2.21118,0.90862 2.21118,0.90861 1.06882,1.00803 1.06882,1.00803 v 3.72221 3.72222 z m 22.48,-26.59669 -13.84,-0.0367 -2.72,-0.42321 -2.72,-0.4232 -2.88,-0.66774 -2.88,-0.66774 -0.48,-0.30747 -0.48,-0.30747 19.92,-0.005 19.91999,-0.005 v 1.44 1.44 z m 145.30027,-1.59352 -0.74028,-0.0302 -4,-1.06435 -4,-1.06435 4.64,0.0546 4.64,0.0546 0.10028,1.04 0.10027,1.04 z m 11.25972,-7.96979 h -6.08 v -15.81917 -15.81917 l -0.34036,-0.90083 -0.34035,-0.90083 -0.85965,-0.91941 -0.85964,-0.91941 -1.02972,-0.44059 -1.02972,-0.44059 h -5.92132 -5.92133 l -0.0889,-15.28128 -0.089,-15.28127 -0.86492,-1.74713 -0.86493,-1.74714 0.0649,-0.0585 0.0649,-0.0585 6.72,3.00327 6.72,3.00326 1.35318,0.68448 1.35317,0.68447 0.88683,1.15916 0.88682,1.15915 0.16,13.69743 0.16,13.69742 4.64,1.99003 4.64,1.99002 1.35175,0.63255 1.35174,0.63255 0.008,14 0.008,14 z m -191.73414,-12.26047 -0.10585,0.59449 -2.72,-0.64701 -2.72,-0.64701 2.67975,-0.0936 2.67975,-0.0936 0.1461,0.14611 0.14611,0.14611 z m 60.00164,-41.81912 -6.1325,-4.1e-4 -0.1075,-6.8 -0.1075,-6.8 -0.85747,-1.52 -0.85747,-1.52 h 0.11564 0.11564 l 2.63201,0.97045 2.63201,0.97045 2.26982,0.99205 2.26982,0.99204 1.98555,0.93383 1.98555,0.93383 0.0944,5.42409 0.0944,5.42408 z m 46.2925,-29.16721 -23.84,-0.0187 -0.96,-0.2468 -0.96,-0.24681 -0.8,-0.32649 -0.8,-0.32649 -0.77578,-0.83395 -0.77578,-0.83395 17.41578,-0.014 17.41578,-0.014 1.21665,-0.43397 1.21664,-0.43397 1.21758,-0.84378 1.21759,-0.84379 0.9772,-1.36073 0.97721,-1.36074 0.57916,-1.74746 0.57916,-1.74747 0.009,-4.36882 0.009,-4.36882 5.6,-0.12238 5.6,-0.12237 1.62941,-0.72644 1.6294,-0.72645 1.4699,-1.50236 1.46989,-1.50236 0.86011,-1.72493 0.86011,-1.72493 0.28835,-3.87044 0.28835,-3.87045 -0.16602,-1.044623 -0.16601,-1.044628 h 3.14017 3.14018 l 1.73808,-0.513563 1.73808,-0.513563 1.79584,-1.806437 1.79583,-1.806437 0.76417,-1.92 0.76416,-1.92 0.0947,-21.533994 0.0947,-21.533994 -0.3094,-2.232725 -0.30941,-2.232725 -0.72853,-1.504935 -0.72852,-1.504934 -1.39035,-1.390349 -1.39035,-1.39035 -1.18642,-0.526052 -1.18642,-0.526051 -3.84,-0.171945 -3.84,-0.171944 0.0885,-1.280001 0.0886,-1.28 -0.2966,-3.401634 -0.29661,-3.401634 -0.66851,-1.511285 -0.66851,-1.511285 0.39656,0.145814 0.39657,0.145815 6.41178,2.130966 6.41177,2.130965 1.18854,0.979698 1.18855,0.979697 0.87968,1.496442 0.87968,1.496441 0.16,3.337625 0.16,3.337624 3.2,1.399044 3.2,1.399044 1.76,0.838111 1.76,0.838112 1.3582,1.102292 1.3582,1.102292 1.0418,2.116111 1.0418,2.116112 v 22.406815 22.406816 l -0.44524,1.28 -0.44524,1.28 -0.94928,1.209632 -0.94927,1.209633 -1.00549,0.550367 -1.00548,0.55037 -4.96,0.16 -4.96,0.16 -0.16,5.92 -0.16,5.92 -0.61975,1.24909 -0.61976,1.24909 -1.06531,1.06531 -1.06532,1.06532 -1.03493,0.5656 -1.03493,0.56559 -6.82179,0.16 -6.8218,0.16 -0.0582,5.76 -0.0582,5.76 -0.84134,1.79423 -0.84134,1.79423 -1.15801,0.88325 -1.15801,0.88326 -1.20065,0.42847 -1.20065,0.42847 z m -61.16939,-0.32115 -23.4706,-0.048 -0.96,-0.12229 -0.96,-0.1223 -3.32017,-0.47428 -3.32017,-0.47429 -2.91983,-0.71547 -2.91983,-0.71547 21.78357,-0.16 21.78358,-0.16 1.29765,-0.85889 1.29766,-0.85888 0.75877,-1.54112 0.75876,-1.54111 0.10238,-6.96 0.10237,-6.96 h 5.14951 5.14952 l 1.31155,-0.76862 1.31155,-0.76863 0.71656,-1.27495 0.71656,-1.27494 0.0633,-0.75644 0.0633,-0.75643 0.17675,8.48001 0.17674,8.48 0.72,1.56067 0.72,1.56068 v 1.91096 1.91096 l -0.51945,1.09467 -0.51945,1.09466 -0.88995,0.6337 -0.88994,0.6337 z m 49.96939,-3.48922 -17.12,-0.0109 -1.20176,-0.42885 -1.20177,-0.42886 -1.36748,-1.12055 -1.36748,-1.12055 -0.95075,-1.71655 -0.95076,-1.71655 V 66.867689 7.5076906 l 0.72197,-1.351103 0.72196,-1.351103 1.00774,-1.147749 1.00774,-1.14775 1.3103,-0.7011485 1.31029,-0.701147 17.40553,-0.0906 17.40552,-0.0906 1.55564,0.516699 1.55563,0.516699 1.21728,1.1738975 1.21728,1.173898 0.51278,0.824805 0.51277,0.824805 0.50879,1.713275 0.50878,1.713276 v 4.5819194 4.58192 h 5.10425 5.10425 l 1.5492,0.332243 1.5492,0.332244 1.32782,0.879054 1.32782,0.879055 1.14253,1.428702 1.14253,1.4287 0.6362,2.033708 0.6362,2.033707 v 4.126293 4.126293 h 3.623 3.62299 l 1.49944,0.510911 1.49945,0.51091 1.36576,1.32909 1.36577,1.329089 0.7918,1.6 0.79179,1.6 v 23.360006 23.359999 l -0.60985,1.581232 -0.60985,1.581232 -1.31015,1.428319 -1.31015,1.428318 -1.44,0.650481 -1.44,0.650481 -3.88667,0.137489 -3.88667,0.13749 -0.14653,4.84248 -0.14652,4.84248 -0.55625,1.51814 -0.55625,1.51815 -1.45453,1.61779 -1.45454,1.61779 -1.31602,0.70406 -1.31602,0.70407 -6.24,0.16 -6.24,0.16 -0.18521,5.28 -0.18522,5.28 -0.41898,1.12 -0.41897,1.12 -0.77923,1.04935 -0.77922,1.04935 -0.69658,0.66925 -0.69659,0.66925 -1.6,0.75827 -1.6,0.75828 z m -0.22972,-3.82308 16.57028,2.5e-4 1.18972,-0.49697 1.18972,-0.49698 0.87261,-0.83581 0.8726,-0.8358 0.34321,-1.03993 0.3432,-1.03992 0.0471,-4.2761 0.0471,-4.2761 -0.24178,-0.39119 -0.24177,-0.3912 h -12.07828 -12.07829 l -1.64213,-0.81831 -1.64214,-0.81831 -1.17744,-1.30329 -1.17744,-1.30328 -0.84325,-1.79841 -0.84326,-1.7984 v -40.160001 -40.16 l 0.85133,-1.816046 0.85133,-1.816047 1.31602,-1.427706 1.31601,-1.427706 1.67266,-0.756247 1.67265,-0.756246 12.26346,-0.09757 12.26345,-0.09757 -0.16514,-1.982429 -0.16514,-1.982429 -0.0183,-2.895946 -0.0183,-2.8959474 -0.87723,-1.352896 -0.87723,-1.352896 -1.3038,-0.631158 -1.3038,-0.631157 -16.77897,0.007 -16.77897,0.007 -1.30515,0.59277 -1.30515,0.59277 -0.69498,0.88353 -0.69499,0.883529 -0.33443,1.156672 -0.33444,1.1566734 0.0946,57.46341 0.0946,57.463413 0.85385,1.29021 0.85385,1.29021 1.38615,0.68612 1.38615,0.68613 z m 9.30589,-17.92106 12.20383,-0.001 0.0384,-6.09641 0.0384,-6.096404 0.9265,-1.811628 0.9265,-1.811628 1.56921,-0.970658 1.56921,-0.970659 7.14965,-0.08042 7.14965,-0.08042 4.1e-4,-26.479582 4e-4,-26.47958 -7.28417,-0.16 -7.28417,-0.16 -0.96,-0.531432 -0.96,-0.531431 -0.86302,-0.908569 -0.86303,-0.908568 -0.57139,-1.28 -0.57139,-1.28 -0.0399,-5.920001 -0.0399,-5.92 -11.00566,-0.08517 -11.00566,-0.08517 -1.61933,0.335261 -1.61934,0.335262 -1.15193,0.949519 -1.15193,0.94952 -0.66873,1.381419 -0.66874,1.381419 v 39.18392 39.18392 l 0.7538,1.43505 0.75379,1.43505 1.52237,1.04 1.52237,1.04 z m -5.80241,-0.96396 -5.99376,-0.005 -1.27909,-0.7244 -1.27909,-0.72441 -0.80091,-1.43033 -0.80091,-1.43033 -0.085,-38.68854 -0.0851,-38.688544 0.68751,-1.420211 0.68752,-1.420211 1.28554,-0.931245 1.28555,-0.931245 h 11.79199 11.79198 v 1.239872 1.239871 l -2.64,0.143855 -2.64,0.143855 -0.96,0.504358 -0.96,0.504357 -1.16019,1.128666 -1.1602,1.128665 -0.7598,1.543251 -0.75981,1.54325 -0.0862,38.639999 -0.0863,38.639997 z m 36.48624,-66.578551 -0.24,-0.02382 -4.8,-1.222199 -4.8,-1.222198 5.04,-0.03398 5.04,-0.03398 v 1.28 1.28 z m -9.75012,67.543821 h 5.72946 l 1.41033,-0.74457 1.41033,-0.74457 0.96,-1.36162 0.96,-1.36163 0.10306,-4.77381 0.10305,-4.773802 h -7.058 -7.05801 l -1.04505,0.93305 -1.04505,0.93305 -0.0998,5.946952 -0.0998,5.94695 z m 17.87651,-17.869896 3.78101,-0.109894 0.86976,-0.449769 0.86976,-0.44977 0.89654,-1.175277 0.89654,-1.175277 0.0861,-22.911554 0.0861,-22.911553 -0.88336,-1.362348 -0.88337,-1.362347 -1.30379,-0.631158 -1.3038,-0.631157 h -3.57897 -3.57897 v 26.506665 26.506666 l 0.13269,0.133334 0.13268,0.133333 z m -14.04639,-57.022916 6.8,0.01281 v -4.170279 -4.170278 l -0.49622,-1.189722 -0.49621,-1.189722 -1.01506,-1.048768 -1.01505,-1.048769 -1.58681,-0.471231 -1.58681,-0.471231 h -5.06192 -5.06192 v 5.455891 5.455891 l 0.48403,0.935997 0.48402,0.935996 0.87598,0.4753 0.87597,0.475301 z m -101.86384,96.258762 -23.70384,0.0859 -1.09616,-0.73833 -1.09615,-0.73834 -0.69575,-1.26762 -0.69574,-1.26761 -0.10426,-7.36 -0.10425,-7.36 -5.9355505,-0.16 -5.93554,-0.16 -0.82826,-0.54366 -0.82826,-0.54366 -0.75619997,-1.21634 -0.75619,-1.21634 v -7.06337 -7.063373 l 0.85144,-1.286618 0.85143997,-1.286619 1.161,-0.55093 1.161,-0.55093 5.40527,0.100918 5.4052705,0.100918 0.90229,0.658734 0.90229,0.658733 0.72,1.409071 0.72,1.409071 v 6.652195 6.6522 h 24.16 24.15999 v -16.000004 -16 l -23.11999,-0.0018 -23.12,-0.0018 -1.1342,-0.315087 -1.13419,-0.315087 -1.00618,-1.043128 -1.00618,-1.043129 -0.33963,-0.900831 -0.33962,-0.900832 v -7.111507 -7.111506 l 0.62589,-1.227652 0.62589,-1.227652 0.72269,-0.52001 0.72268,-0.520009 0.97142,-0.375655 0.97143,-0.375655 5.296,-0.02435 5.296,-0.02435 0.384,-0.384 0.384,-0.384 v -6.30947 -6.30947 l 0.62545,-1.38653 0.62545,-1.386529 0.42021,-0.519494 0.4202,-0.519494 1.11434,-0.67931 1.11435,-0.67931 7.44,-0.0012 7.44,-0.0012 -0.005,-6.000001 -0.005,-6 -0.30324,-0.48 -0.30323,-0.48 -21.53187,-0.16 -21.5318605,-0.16 -1.28,-0.576974 -1.28,-0.576975 -0.90855,-0.863025 -0.90855,-0.863024 -0.75111,-1.28 -0.75111997,-1.28 -0.38466,-2.225896 -0.38466,-2.225896 0.19437,-3.1905214 0.19438,-3.190521 0.82790997,-1.692204 0.82792,-1.692203 1.44177,-1.2690965 1.44177,-1.26909602 1.59601,-0.342283 1.59602,-0.342284 H 42.60996 76.93612 l 1.57808,0.470808 1.57808,0.470809 1.13076,0.93541402 1.13076,0.9354155 0.94924,1.713777 0.94924,1.713777 v 5.2800004 5.28 l -0.7047,1.31727 -0.7047,1.31727 -0.8133,0.966551 -0.8133,0.96655 -1.522,0.727917 -1.522,0.727915 -3.63368,0.110196 -3.63369,0.110196 -0.28631,0.176952 -0.28632,0.176952 v 6.15331 6.153311 l -0.72,1.409071 -0.72,1.409071 -0.90233,0.658733 -0.90234,0.658734 -6.77766,0.16 -6.77766,0.16 v 7.2 7.199999 l 6.26535,0.16 6.26536,0.16 1.17498,0.896542 1.17498,0.896541 0.55966,1.023459 0.55966,1.023458 0.16,7.52 0.16,7.519999 5.59658,0.09527 5.59657,0.09526 0.96325,0.562567 0.96325,0.562567 0.71962,1.262168 0.71962,1.262167 -0.0795,16.343753 -0.0794,16.343751 -0.8,1.17479 -0.8,1.17479 -1.00836,0.48146 -1.00836,0.48146 h -5.47164 -5.47164 l -0.007,7.28 -0.007,7.28 -0.59568,1.31166 -0.59569,1.31165 -1.07729,0.76835 -1.07729,0.76834 z m -0.099,-3.76595 h 22.95643 l 0.66323,-0.84315 0.66322,-0.84316 v -6.67684 -6.67685 h -24.31999 -24.32 v 6.86754 6.86753 l 0.70034,0.65247 0.70034,0.65246 z m -32.7620905,-18.88973 5.5150305,0.01 -0.075,-6.42604 -0.075,-6.426046 -0.62117,-0.453958 -0.62116,-0.453959 h -4.7598705 -4.75988 l -0.61896,0.331259 -0.61896,0.331259 v 6.212845 6.21284 l 0.56,0.32617 0.56,0.32617 z m 65.4001605,0.01 h 5.36852 l 0.49815,-0.7112 0.49814,-0.71121 V 93.655449 78.985614 l -0.33125,-0.618963 -0.33126,-0.618963 h -5.74874 -5.74875 v 15.786667 15.786665 l 0.21334,0.21333 0.21333,0.21334 z M 43.45253,73.803483 66.65252,73.747653 V 66.761481 59.775309 L 66.03136,59.321481 65.4102,58.867654 H 58.94451 52.47882 L 51.48567,57.736519 50.49253,56.605384 V 48.296555 39.98769 h -7.15685 -7.15684 l -0.81568,0.64161 -0.81568,0.641611 -0.10994,6.798389 -0.10995,6.798389 -0.52713,0.96 -0.52713,0.96 -0.77916,0.727642 -0.77916,0.727642 -1.08913,0.312358 -1.08913,0.312358 h -5.09691 -5.09692 l -0.5852,0.529596 -0.58519,0.529596 v 6.300808 6.300807 l 0.56,0.48784 0.56,0.48784 0.48,0.177582 0.48,0.177582 z M 59.95141,36.147659 h 6.22111 l 0.64,-0.64 0.64,-0.64 v -6.512678 -6.512676 l 0.73109,-1.087323 0.73108,-1.087322 1.10892,-0.381939 1.10891,-0.381938 3.47063,-0.01806 3.47063,-0.01806 0.95147,-0.56 0.95148,-0.56 0.6979,-1.12 0.69789,-1.12 v -4 -4.0000004 L 80.72838,6.4112696 80.08423,5.3148756 78.67804,4.5712696 77.27186,3.8276626 H 42.64995 8.0279895 l -1.08775,0.364327 -1.08775,0.364328 -0.76124,0.675672 -0.76125,0.675673 -0.43875,1.029722 -0.43876,1.029722 v 3.6152704 3.615271 l 0.59246,1.104709 0.59246,1.104709 0.87069,0.650298 0.87069,0.650299 21.6568505,0.16 21.65685,0.16 1.12,0.656358 1.12,0.656359 0.75183,1.357884 0.75183,1.357883 -0.0424,6.239225 -0.0424,6.239226 0.18945,0.306532 0.18945,0.306532 z m -46.01888,80.293851 -0.4,-0.0262 -3.06287,-0.72814 -3.0628705,-0.72814 -0.45713,-0.18045 -0.45713,-0.18045 3.9200005,-0.0253 3.92,-0.0253 v 0.96 0.96 z m 13.29906,-7.7284 -8.06093,0.0855 -0.0991,-6.32545 -0.0991,-6.325458 0.0584,-0.111782 0.0584,-0.111782 6.50155,1.989584 6.50156,1.989583 0.85477,0.437375 0.85477,0.43737 0.68818,0.96646 0.68819,0.96647 0.057,2.95836 0.0571,2.95836 z m 20.78094,-27.472874 -17.52,-0.02742 -2.24,-0.582953 -2.24,-0.582953 -1.6,-0.652176 -1.6,-0.652175 21.36,-0.01745 21.35999,-0.01745 v 1.28 1.28 z m 37.28595,-10.476462 -0.086,7.463883 -0.21682,-0.96 -0.21683,-0.96 -0.74426,-1.102698 -0.74426,-1.102699 -1.11891,-0.657301 -1.11892,-0.657302 -5.17328,-0.107079 -5.17329,-0.107079 -0.10962,-6.932921 -0.10963,-6.93292 -0.68595,-1.28 -0.68594,-1.28 -0.75551,-0.704727 -0.75551,-0.704727 -1.18535,-0.495273 -1.18536,-0.495273 H 59.78276 54.33249 V 47.347689 40.94769 h 6.25589 6.25589 l 0.86411,-0.449596 0.8641,-0.449595 0.68257,-0.750405 0.68257,-0.750404 0.58554,-1.12 0.58553,-1.12 0.12523,-6.126522 0.12523,-6.126522 3.56667,-0.115974 3.56666,-0.115974 1.44,-0.746177 1.44,-0.746177 0.90984,-0.851327 0.90984,-0.851326 0.77489,-1.518696 0.77489,-1.518695 0.28313,-1.201305 0.28313,-1.201304 0.0321,14.125762 0.0321,14.125764 -0.50617,0.194236 -0.50617,0.194237 H 77.50623 70.6524 v 5.846091 5.846091 l 6.65856,3.317205 6.65855,3.317205 0.7074,0.57282 0.70741,0.57282 z m -51.18664,-44.233735 -15.45931,-0.01762 -2.29372,-0.601253 -2.29372,-0.601252 -1.22628,-0.648431 -1.22628,-0.648431 18.88,0.0673 18.88,0.0673 0.0993,1.2 0.0993,1.2 z m 118.21268,-5.44731 -0.232,-0.02493 -0.89982,-0.909148 -0.89983,-0.909149 -1.50017,-0.741107 -1.50018,-0.741108 -5.76,-0.10839 -5.76,-0.10839 0.10119,-2.983603 0.10119,-2.983604 -0.31777,-2.2930814 -0.31777,-2.293081 -0.65421,-1.322277 -0.65422,-1.322278 0.0947,-0.09473 0.0947,-0.09473 4.93607,1.870292 4.93606,1.870291 2.08971,0.955033 2.08971,0.955033 1.15682,1.0157004 1.15682,1.015701 0.67028,1.425969 0.67029,1.425969 0.17847,2.330271 0.17847,2.330272 0.13672,0.88 0.13671,0.88 z M 85.58445,8.7076596 l -0.1614,0.4 v -0.8 -0.8 l 0.1614,0.4 0.16141,0.4 z"
     id="path22"
     inkscape:label="3DSen" /><g
     id="g46"
     inkscape:label="Blue"
     style="display:inline"><path
       style="fill:#019cde;fill-opacity:1;stroke:#ffffff;stroke-width:1.09681;stroke-linecap:square;stroke-miterlimit:3.2;paint-order:stroke markers fill"
       d="m 92.58807,128.11851 c -0.75455,-0.39833 -1.784318,-1.34744 -2.288374,-2.10912 L 89.38323,124.62452 89.47799,66.672663 89.57275,8.7208055 90.482631,7.3929676 c 1.666052,-2.4313591 1.879604,-2.4573267 20.208519,-2.4573267 18.13575,0 18.39639,0.030528 19.88823,2.3293881 0.66746,1.0285145 0.83141,1.9934966 1.05475,6.207871 l 0.26444,4.990053 h -12.10381 c -11.89109,0 -12.13773,0.01502 -14.03365,0.854358 -2.19028,0.969655 -4.12755,3.093777 -5.3485,5.864372 l -0.785777,1.783089 v 39.99921 39.999208 l 0.958007,1.89055 c 1.43125,2.82441 2.6886,4.25544 4.60529,5.24136 1.72419,0.88691 1.72635,0.88705 13.9452,0.88705 10.80645,0 12.24642,0.0669 12.44265,0.57831 0.38666,1.00761 0.23944,8.03489 -0.19545,9.32982 -0.56494,1.68215 -1.19349,2.33978 -3.08707,3.22986 -1.5498,0.72849 -2.17904,0.75436 -17.97075,0.73877 -15.589748,-0.0154 -16.429692,-0.0505 -17.736632,-0.7404 z"
       id="path23" /><path
       style="fill:#019cde;fill-opacity:1;stroke:#ffffff;stroke-width:1.09681;stroke-linecap:square;stroke-miterlimit:3.2;paint-order:stroke markers fill"
       d="M 154.83288,66.539751 V 40.033532 h 3.27803 c 3.90655,0 5.42819,0.588035 6.77054,2.616468 l 0.91952,1.389488 v 22.732117 22.732119 l -0.9329,1.223102 c -1.46278,1.917804 -2.59522,2.319145 -6.5438,2.319145 h -3.49139 z"
       id="path24" /><path
       style="fill:#019cde;fill-opacity:1;stroke:#ffffff;stroke-width:1.09681;stroke-linecap:square;stroke-miterlimit:3.2;paint-order:stroke markers fill"
       d="m 53.80458,35.768163 c -0.134055,-0.134054 -0.243736,-3.114169 -0.243736,-6.622477 0,-5.783886 -0.07095,-6.504968 -0.76074,-7.732297 C 51.343977,18.82256 52.175479,18.914451 27.986721,18.671223 L 6.2514292,18.452666 5.3759961,17.635203 C 3.827226,16.188989 3.4732288,15.050645 3.4732288,11.516495 c 0,-4.5148431 0.8025678,-6.0237494 3.8257816,-7.1928451 C 8.1183052,4.0068235 17.37247,3.8871786 42.646837,3.8666461 L 76.8848,3.8388318 78.416658,4.7089434 c 2.433421,1.3822081 2.930016,2.5383543 2.930016,6.8215156 0,3.164594 -0.1091,3.818755 -0.816988,4.898651 -1.340136,2.044395 -2.299602,2.399446 -6.484116,2.399446 -6.386554,0 -6.572942,0.254366 -6.58368,8.984945 -0.01071,8.702783 0.454218,8.198397 -7.557022,8.198397 -3.221105,0 -5.966236,-0.109681 -6.100288,-0.243735 z"
       id="path25" /><path
       style="fill:#019cde;fill-opacity:1;stroke:#ffffff;stroke-width:1.09681;stroke-linecap:square;stroke-miterlimit:3.2;paint-order:stroke markers fill"
       d="m 69.647377,93.777177 v -15.72093 h 5.627731 c 4.79449,0 5.660589,0.08562 5.849649,0.578306 0.398415,1.038252 0.25121,29.394477 -0.15655,30.156387 -0.348295,0.65079 -0.814629,0.70717 -5.849648,0.70717 h -5.471182 z"
       id="path26" /><path
       style="fill:#019cde;fill-opacity:1;stroke:#ffffff;stroke-width:1.09681;stroke-linecap:square;stroke-miterlimit:3.2;paint-order:stroke markers fill"
       d="M 3.6351286,109.02707 C 3.5357136,108.768 3.4997468,105.84774 3.5552026,102.53761 L 3.6560307,96.5192 8.7744731,96.4279 c 2.8151429,-0.05022 5.3417739,0.05268 5.6147359,0.228661 0.372675,0.240265 0.545379,1.879427 0.693359,6.580749 l 0.197066,6.2608 H 9.5477586 c -4.3393197,0 -5.7757897,-0.11444 -5.91263,-0.47104 z"
       id="path27" /></g><g
     id="g45"
     style="display:inline"
     inkscape:label="LightBlue"><path
       style="fill:#94d6f8;fill-opacity:1;stroke:#ffffff;stroke-width:1.09681;stroke-linecap:square;stroke-miterlimit:3.2;paint-order:stroke markers fill"
       d="m 19.275508,73.099875 c -0.786491,-0.55088 -0.812555,-0.772262 -0.812555,-6.901692 0,-4.62092 0.123524,-6.434618 0.457004,-6.71016 0.25695,-0.212307 3.017688,-0.431957 6.306652,-0.501769 6.516723,-0.138326 7.163267,-0.344528 8.573243,-2.734259 0.682464,-1.15669 0.749634,-1.872337 0.749634,-7.986758 v -6.716222 l 0.963313,-0.757742 c 0.897237,-0.705767 1.436395,-0.757741 7.860465,-0.757741 h 6.897152 v 8.250462 8.250461 l 0.957401,1.255217 0.957401,1.255217 h 6.647142 c 4.682531,0 6.776811,0.129668 7.085866,0.438724 0.310116,0.310114 0.438724,2.453602 0.438724,7.31206 V 73.66901 H 43.222506 c -20.346761,0 -23.232355,-0.06858 -23.946998,-0.569135 z"
       id="path28" /><path
       style="fill:#94d6f8;fill-opacity:1;stroke:#ffffff;stroke-width:1.09681;stroke-linecap:square;stroke-miterlimit:3.2;paint-order:stroke markers fill"
       d="m 19.068021,127.84087 c -0.516294,-0.5705 -0.605068,-1.6433 -0.605068,-7.31206 v -6.64347 h 24.1298 24.1298 v 6.51713 c 0,6.33956 -0.02305,6.53878 -0.84617,7.31206 l -0.84617,0.79493 H 42.351651 c -21.506308,0 -22.709837,-0.0345 -23.28363,-0.66859 z"
       id="path29" /><path
       style="fill:#94d6f8;fill-opacity:1;stroke:#ffffff;stroke-width:1.09681;stroke-linecap:square;stroke-miterlimit:3.2;paint-order:stroke markers fill"
       d="m 136.95858,35.501697 c -1.60583,-0.890043 -1.84145,-1.858342 -1.85531,-7.624466 l -0.013,-5.392645 h 4.80182 c 5.50982,0 7.31991,0.396986 9.02827,1.980069 1.85866,1.722358 2.25644,3.0569 2.25644,7.570259 v 3.976984 l -6.67225,-0.01296 c -4.83407,-0.0094 -6.91298,-0.146376 -7.54602,-0.497246 z"
       id="path30" /><path
       style="fill:#94d6f8;fill-opacity:1;stroke:#ffffff;stroke-width:1.09681;stroke-linecap:square;stroke-miterlimit:3.2;paint-order:stroke markers fill"
       d="m 135.1642,105.05175 0.17029,-5.908772 1.06612,-0.853069 c 1.03206,-0.825805 1.2869,-0.853128 7.97372,-0.854886 l 6.9076,-0.0018 -0.19143,4.719657 c -0.18081,4.45812 -0.24792,4.79374 -1.2111,6.05653 -1.82799,2.39661 -3.03138,2.75113 -9.33868,2.75113 h -5.54682 z"
       id="path31" /></g><g
     id="g44"
     style="display:inline"
     inkscape:label="Red"><path
       style="fill:#ef3239;fill-opacity:1;stroke:#ffffff;stroke-width:1.09681;stroke-linecap:square;stroke-miterlimit:3.2;paint-order:stroke markers fill"
       d="m 87.348636,274.24418 -1.431924,-1.23771 -0.182802,-58.44699 c -0.104271,-33.3386 -0.04383,-59.04412 0.140693,-59.83699 0.209046,-0.89824 0.738635,-1.70664 1.496921,-2.28502 l 1.173428,-0.89501 h 28.592088 c 31.47739,0 30.26508,-0.0873 31.07535,2.23706 0.52633,1.50984 0.52413,7.44982 -0.003,8.48086 -0.22462,0.43921 -0.75931,1.08282 -1.18821,1.43025 -0.7196,0.5829 -2.50556,0.6323 -23.12961,0.6398 l -22.34979,0.008 -0.9574,1.25522 -0.957405,1.25522 v 18.86775 c 0,18.83489 0.0014,18.86964 0.799965,19.94976 l 0.79996,1.082 h 13.2311 c 14.07892,0 15.34201,0.14033 16.23205,1.80338 0.20833,0.38928 0.37879,2.53411 0.37879,4.7663 0,4.55251 -0.35908,5.53212 -2.2723,6.19907 -0.72283,0.25198 -5.83595,0.39296 -14.25193,0.39296 h -13.12469 l -0.88492,1.00541 -0.884918,1.00541 -0.01155,18.98873 -0.01155,18.98874 0.822608,1.20833 0.82261,1.20834 22.22854,0.002 c 24.48495,0.003 23.91402,-0.049 24.71181,2.23956 0.61387,1.76094 0.5166,7.45519 -0.14935,8.74299 -1.17298,2.26829 0.0578,2.18165 -30.991,2.18165 H 88.780561 Z m 14.837414,-55.43077 c 0,-0.20108 -0.16452,-0.3656 -0.36561,-0.3656 -0.20108,0 -0.3656,0.16452 -0.3656,0.3656 0,0.20108 0.16452,0.36561 0.3656,0.36561 0.20109,0 0.36561,-0.16453 0.36561,-0.36561 z m -2.277406,-12.86465 c -0.07959,-0.23879 -0.340199,-0.49932 -0.57912,-0.57896 -0.267164,-0.089 -0.348872,0.0781 -0.212236,0.43416 0.255016,0.66456 1.010702,0.80283 0.791356,0.1448 z"
       id="path32" /><path
       style="fill:#ef3239;fill-opacity:1;stroke:#ffffff;stroke-width:1.09681;stroke-linecap:square;stroke-miterlimit:3.2;paint-order:stroke markers fill"
       d="m 184.15425,220.2027 c -0.32743,-0.32742 -0.43873,-4.36874 -0.43873,-15.93021 V 188.781 l 6.48946,0.25672 c 3.5692,0.14119 6.56754,0.32717 6.66298,0.41328 0.0954,0.0861 0.23826,7.13918 0.31739,15.67349 l 0.14386,15.51694 h -6.36812 c -4.46551,0 -6.4992,-0.13108 -6.80684,-0.43873 z m 1.02368,-1.75489 c 0,-0.20108 -0.16452,-0.3656 -0.3656,-0.3656 -0.20108,0 -0.3656,0.16452 -0.3656,0.3656 0,0.20108 0.16452,0.3656 0.3656,0.3656 0.20108,0 0.3656,-0.16452 0.3656,-0.3656 z m 0,-27.23743 c 0,-0.30162 -0.16452,-0.5484 -0.3656,-0.5484 -0.20108,0 -0.3656,0.24678 -0.3656,0.5484 0,0.30163 0.16452,0.54841 0.3656,0.54841 0.20108,0 0.3656,-0.24678 0.3656,-0.54841 z m 0,-1.27961 c 0,-0.20108 -0.16452,-0.3656 -0.3656,-0.3656 -0.20108,0 -0.3656,0.16452 -0.3656,0.3656 0,0.20109 0.16452,0.36561 0.3656,0.36561 0.20108,0 0.3656,-0.16452 0.3656,-0.36561 z m 11.3337,0 c 0,-0.20108 -0.16452,-0.3656 -0.36561,-0.3656 -0.20108,0 -0.3656,0.16452 -0.3656,0.3656 0,0.20109 0.16452,0.36561 0.3656,0.36561 0.20109,0 0.36561,-0.16452 0.36561,-0.36561 z"
       id="path33" /><path
       style="fill:#ef3239;fill-opacity:1;stroke:#ffffff;stroke-width:1.09681;stroke-linecap:square;stroke-miterlimit:3.2;paint-order:stroke markers fill"
       d="m 19.559762,160.33413 c 0,-6.61557 0.222492,-7.71131 1.702732,-8.38576 0.619196,-0.28212 7.164492,-0.40591 21.461862,-0.40591 h 20.570968 l 0.982408,1.02541 0.982409,1.02541 v 6.46945 6.46945 H 42.409951 19.559762 Z"
       id="path34" /><path
       style="fill:#ef3239;fill-opacity:1;stroke:#ffffff;stroke-width:1.09681;stroke-linecap:square;stroke-miterlimit:3.2;paint-order:stroke markers fill"
       d="m 20.523074,220.9805 -0.963312,-0.75775 v -7.10272 -7.10272 h 22.245121 c 21.086399,0 22.276638,0.0348 22.850188,0.66859 0.519859,0.57444 0.60507,1.68141 0.60507,7.86047 v 7.19187 H 43.373264 c -21.58877,0 -21.899998,-0.0103 -22.85019,-0.75774 z"
       id="path35" /><path
       style="fill:#ef3239;fill-opacity:1;stroke:#ffffff;stroke-width:1.09681;stroke-linecap:square;stroke-miterlimit:3.2;paint-order:stroke markers fill"
       d="m 22.78912,275.14539 c -1.173824,-0.16428 -1.940131,-0.51982 -2.455657,-1.13936 -0.688535,-0.82745 -0.750362,-1.39774 -0.761538,-7.02442 l -0.01216,-6.12385 h 22.850189 22.85019 v 5.86781 c 0,6.41121 -0.269194,7.53065 -2.000602,8.31953 -0.708356,0.32275 -5.893645,0.42403 -19.861382,0.38793 -10.396515,-0.0269 -19.670581,-0.1563 -20.609037,-0.28764 z m 41.867534,-2.39382 c 0.113271,-0.29518 0.06732,-0.62238 -0.10212,-0.7271 -0.169439,-0.10471 -0.393634,0.1368 -0.498211,0.5367 -0.218565,0.83579 0.290691,0.9973 0.600331,0.1904 z"
       id="path36" /></g><g
     id="g43"
     style="display:inline"
     inkscape:label="Pink"><path
       style="display:inline;fill:#f68c8e;fill-opacity:1;stroke:#ffffff;stroke-width:1.09681;stroke-linecap:square;stroke-miterlimit:3.2;paint-order:stroke markers fill"
       d="M 4.0939145,201.10172 C 3.6575411,200.66534 3.5356121,198.10358 3.3935201,186.3862 L 3.221478,172.19903 4.1699602,171.38957 c 0.8840252,-0.75445 1.3144306,-0.81035 6.3334018,-0.82261 l 5.384919,-0.0131 0.09913,15.53825 0.09913,15.53824 -5.732133,-1.1e-4 c -4.5109552,-10e-5 -5.8446937,-0.11268 -6.2604855,-0.52847 z"
       id="path37" /><path
       style="fill:#f68c8e;fill-opacity:1;stroke:#ffffff;stroke-width:1.09681;stroke-linecap:square;stroke-miterlimit:3.2;paint-order:stroke markers fill"
       d="m 4.1637979,256.36431 c -0.8296945,-0.63182 -1.3767613,-11.82087 -0.6359563,-13.00708 0.4632698,-0.74182 0.7643782,-0.77962 6.2094679,-0.77962 4.8809865,0 5.7552245,0.085 5.9445055,0.57831 0.122054,0.31806 0.221917,3.52623 0.221917,7.12925 v 6.55096 l -5.575446,-0.0116 c -3.8243895,-0.008 -5.7604444,-0.15251 -6.1644881,-0.46019 z"
       id="path38" /><path
       style="fill:#f68c8e;fill-opacity:1;stroke:#ffffff;stroke-width:1.09681;stroke-linecap:square;stroke-miterlimit:3.2;paint-order:stroke markers fill"
       d="m 68.550568,241.298 v -15.53813 h 5.777929 5.777929 l 1.18673,1.22439 1.18673,1.2244 -0.246484,13.30833 -0.246484,13.30832 -0.936928,1.00541 -0.936927,1.00541 h -5.781248 -5.781247 z"
       id="path39" /><path
       style="fill:#f68c8e;fill-opacity:1;stroke:#ffffff;stroke-width:1.09681;stroke-linecap:square;stroke-miterlimit:3.2;paint-order:stroke markers fill"
       d="m 68.929034,183.37395 c -0.217196,-0.40583 -0.378466,-3.28792 -0.378466,-6.76365 v -6.05649 h 6.341389 c 5.679122,0 6.40458,0.0698 6.946457,0.6686 0.50814,0.56148 0.605069,1.5747 0.605069,6.32493 0,3.9119 -0.135304,5.79164 -0.438724,6.09506 -0.306337,0.30634 -2.288253,0.43872 -6.567991,0.43872 -5.685649,0 -6.15666,-0.0512 -6.507734,-0.70717 z"
       id="path40" /><path
       style="fill:#f68c8e;fill-opacity:1;stroke:#ffffff;stroke-width:1.09681;stroke-linecap:square;stroke-miterlimit:3.2;paint-order:stroke markers fill"
       d="m 152.91347,274.97294 c -0.60485,-0.45913 -0.63981,-3.8208 -0.63981,-61.51936 0,-46.98317 0.101,-61.13468 0.43873,-61.4724 0.32422,-0.32423 3.72102,-0.43872 13.01546,-0.43872 h 12.57675 l 1.24305,1.24305 1.24305,1.24305 v 15.16125 15.16125 l -1.37101,0.22661 c -0.75406,0.12464 -4.29127,0.22842 -7.86047,0.23064 l -6.48945,0.004 v 44.83747 c 0,42.27359 -0.0366,44.86524 -0.63981,45.32314 -0.90491,0.68693 -10.61159,0.68693 -11.51649,0 z"
       id="path41" /><path
       style="fill:#f68c8e;fill-opacity:1;stroke:#ffffff;stroke-width:1.09681;stroke-linecap:square;stroke-miterlimit:3.2;paint-order:stroke markers fill"
       d="m 220.00235,274.81774 c -2.37118,-1.26497 -2.45563,-1.60383 -2.59085,-10.39535 l -0.12231,-7.95187 h -8.19516 -8.19517 v -15.90373 -15.90373 h 8.22607 8.22607 l 0.002,-34.45808 c 0.001,-21.571 0.13716,-34.9445 0.36334,-35.75867 0.20292,-0.73046 0.83661,-1.65199 1.44557,-2.10222 0.96133,-0.71074 1.53997,-0.80163 5.1035,-0.80163 4.56037,0 5.56544,0.31766 6.61083,2.08947 0.72571,1.22999 0.73322,1.84415 0.73187,59.80974 -0.001,57.58074 -0.0135,58.58683 -0.72,59.7456 -1.02564,1.68215 -2.79239,2.29752 -6.54394,2.27929 -2.26804,-0.011 -3.48805,-0.19333 -4.34186,-0.64882 z"
       id="path42" /></g></svg>
