<svg height="157.597" viewBox="0 0 148.029 70.886" width="329.105" xmlns="http://www.w3.org/2000/svg">
    <filter id="a" color-interpolation-filters="sRGB" height="1.402" width="1.248" x="-.124" y="-.201">
        <feGaussianBlur result="result6" stdDeviation="5"/>
        <feComposite in="SourceGraphic" in2="result6" operator="atop" result="result8"/>
        <feComposite in="result8" in2="SourceAlpha" result="result9"/>
        <feColorMatrix result="result10" values="1 0 0 0 0 0 1 0 0 0 0 0 1 0 0 0 0 0 1 0"/>
        <feBlend in="result10" in2="result6"/>
    </filter>
    <filter id="b" color-interpolation-filters="sRGB" height="1.446" width="1.108" x="-.054" y="-.223">
        <feGaussianBlur result="result6" stdDeviation=".821"/>
        <feComposite in="SourceGraphic" in2="result6" operator="atop" result="result8"/>
        <feComposite in="result8" in2="SourceAlpha" result="result9"/>
        <feColorMatrix result="result10" values="1 0 0 0 0 0 1 0 0 0 0 0 1 0 0 0 0 0 1 0"/>
        <feBlend in="result10" in2="result6"/>
    </filter>
    <filter id="c" color-interpolation-filters="sRGB" height="1.397" width="1.11" x="-.055" y="-.198">
        <feGaussianBlur result="result6" stdDeviation=".73"/>
        <feComposite in="SourceGraphic" in2="result6" operator="atop" result="result8"/>
        <feComposite in="result8" in2="SourceAlpha" result="result9"/>
        <feColorMatrix result="result10" values="1 0 0 0 0 0 1 0 0 0 0 0 1 0 0 0 0 0 1 0"/>
        <feBlend in="result10" in2="result6"/>
    </filter>
    <filter id="d" color-interpolation-filters="sRGB" height="1.492" width="1.105" x="-.052" y="-.246">
        <feGaussianBlur result="result6" stdDeviation=".905"/>
        <feComposite in="SourceGraphic" in2="result6" operator="atop" result="result8"/>
        <feComposite in="result8" in2="SourceAlpha" result="result9"/>
        <feColorMatrix result="result10" values="1 0 0 0 0 0 1 0 0 0 0 0 1 0 0 0 0 0 1 0"/>
        <feBlend in="result10" in2="result6"/>
    </filter>
    <path d="M74.973 44.69q0 .042-.045.113-.028.045-.094.13-.066.083-.082.11l.068.02q.065.02.065.073l-.053.008-.01-.001v-.007q-.014-.004-.023-.004-.017 0-.054.006-.037.005-.056.005-.024 0-.04-.009-.015-.009-.015-.032 0-.02.07-.107.13-.165.13-.167.07-.095.07-.128 0-.012-.009-.018-.008-.007-.033-.007-.017 0-.071.034-.026.016-.043.016l-.015-.003q-.005-.004-.011-.013-.007-.011-.007-.018 0-.037.073-.069.062-.027.108-.027.039 0 .06.029.017.025.017.066zm-.413 0q0 .042-.045.113-.03.045-.095.13-.066.083-.082.11l.068.02q.065.02.065.073l-.053.008-.01-.001v-.007q-.014-.004-.023-.004-.017 0-.054.006-.037.005-.056.005-.024 0-.04-.009-.015-.009-.015-.032 0-.02.07-.107.13-.165.13-.167.07-.095.07-.128 0-.012-.009-.018-.008-.007-.033-.007-.017 0-.071.034-.026.016-.042.016l-.016-.003q-.005-.004-.011-.013-.007-.011-.007-.018 0-.037.073-.069.062-.027.108-.027.039 0 .06.029.018.025.018.066zm-.412.162q0 .108-.118.192-.108.077-.222.077-.057 0-.09-.03-.034-.028-.034-.083 0-.122.107-.212.102-.086.228-.086.064 0 .096.038.033.038.033.104zm-.055.02q0-.041-.047-.062-.035-.015-.084-.015-.07 0-.148.07-.078.068-.078.139 0 .028.015.041.015.012.046.012.088 0 .183-.049.113-.057.113-.136zm-.486-.182q0 .042-.045.113-.029.045-.095.13-.065.083-.081.11l.067.02q.066.02.066.073l-.053.008-.01-.001v-.007q-.015-.004-.024-.004-.017 0-.054.006-.036.005-.055.005-.025 0-.04-.009t-.015-.032q0-.02.07-.107l.13-.167q.07-.095.07-.128 0-.012-.01-.018-.007-.007-.033-.007-.017 0-.07.034-.027.016-.043.016l-.015-.003q-.006-.004-.012-.013-.006-.011-.006-.018 0-.037.073-.069.062-.027.108-.027.038 0 .059.029.018.025.018.066zm-.739.293q0 .044-.033.099-.038.062-.078.062-.012 0-.02-.013-.007-.013-.007-.026 0-.016.034-.05.035-.035.035-.048 0-.008-.003-.016l-.003-.01q-.068.014-.138.077-.07.062-.105.07-.007-.02-.007-.04 0-.026.011-.054.009-.02.027-.047.032-.048.067-.108l.062-.11q.045-.077.066-.109.01-.016.019-.024.011-.011.027-.015.011.004.016.014.005.01.005.023 0 .03-.04.083l-.073.097q-.04.061-.04.11l.001.01q.05-.025.059-.028.037-.015.063-.015.028 0 .042.02.013.018.013.048zm-.332-.321q0 .02-.047.083-.048.062-.048.096 0 .017.02.034.045.04.045.049 0 .011-.008.022-.007.01-.02.01-.01 0-.027-.01-.013-.007-.049-.035l-.02.04q-.026.047-.034.069l-.027.083q-.024.055-.059.055v-.02q0-.064.04-.151l.046-.084q-.072-.039-.157-.039 0-.033.013-.048.015-.017.048-.017.03 0 .077.011l.045.011q.017-.005.046-.058.073-.128.1-.147.007.012.011.023.005.012.005.023zm-.358.16q0 .039-.1.1-.098.06-.142.06-.02 0-.027-.014-.007-.015-.007-.04v-.025q.06 0 .11-.018t.086-.06q-.027-.01-.055-.01-.065 0-.139.051-.08.055-.08.117 0 .06.08.083l.152.025q.082.012.082.044 0 .013-.03.022t-.075.009q-.115 0-.182-.036-.088-.046-.088-.15 0-.108.108-.172.091-.054.208-.054.036 0 .064.017.035.02.035.052zm-.441.105q0 .029-.016.061-.014.033-.036.054l-.001-.012.002-.034.003-.033q0-.015-.004-.022-.005-.008-.02-.008-.042 0-.105.065l-.135.143h-.011l-.018-.005q.002-.033.022-.072.053-.107.055-.114l.01-.043.01-.028q.008-.015.017-.027.01-.012.025-.018l.01.108.059-.05q.04-.03.068-.03.029 0 .047.018.018.02.018.047zm-.379.019q0 .092-.053.144-.053.052-.147.052-.051 0-.079-.024-.028-.024-.028-.075 0-.07.093-.143.088-.068.163-.068.034 0 .045.042.006.024.006.072zm-.055.025q0-.01-.003-.02-.001-.011-.007-.025-.014.01-.047.049-.018.02-.03.029 0-.017.003-.028l.012-.026q-.04 0-.083.033-.042.033-.042.072 0 .026.029.026.055 0 .106-.027.062-.032.062-.083zm-.28.133q0 .017-.014.026-.014.008-.03.008t-.04-.004q-.052-.008-.068-.008-.027 0-.106.006-.045.004-.065.004-.054 0-.054-.055 0-.052.034-.15.019-.054.07-.18.048-.112.06-.158l.007-.018q.008-.011.018-.011.017 0 .03.025.01.024.01.044 0 .031-.036.106l-.072.145q-.039.085-.039.129 0 .022.02.031.013.006.039.006.02 0 .068-.004.049-.006.065-.006.04 0 .066.012.037.016.037.052zm-.781-.174q0 .061-.03.13-.032.077-.08.106-.01-.012-.017-.027-.007-.014-.007-.028 0-.016.045-.091.02-.033.018-.059v-.011q-.034.01-.116.06l-.163.1q-.013 0-.024-.008-.01-.01-.01-.022 0-.019.06-.127l.065-.112q.015.019.02.042.004.023.004.054v.02q.083-.049.13-.074.05-.028.07-.028.012 0 .023.029.012.029.012.046zm-.418.053q0 .044-.033.099-.038.062-.078.062-.012 0-.02-.013-.007-.013-.007-.026 0-.016.034-.05.035-.035.035-.048 0-.008-.003-.016l-.003-.01q-.068.014-.138.077-.07.062-.105.07-.007-.02-.007-.04 0-.026.011-.054.008-.02.027-.047.032-.048.067-.108l.062-.11q.045-.077.066-.109.01-.016.018-.024.012-.011.028-.015.011.004.016.014.005.01.005.023 0 .03-.04.083-.072.093-.073.097-.04.061-.04.11l.001.01.058-.028q.037-.015.063-.015.03 0 .043.02.013.018.013.048zm-.37-.037q0 .092-.054.144-.053.052-.146.052-.051 0-.08-.024-.027-.024-.027-.075 0-.07.092-.143.089-.068.163-.068.034 0 .045.042.007.024.007.072zm-.055.025q0-.01-.003-.02-.002-.011-.007-.025-.015.01-.048.049-.017.02-.03.029 0-.017.004-.028l.012-.026q-.04 0-.083.033-.042.033-.042.072 0 .026.028.026.055 0 .107-.027.062-.032.062-.083zm-.292-.117q0 .108-.026.182-.039.11-.124.11-.057 0-.119-.026-.074-.032-.082-.078.026 0 .06.01.079.02.099.02.076 0 .115-.076.03-.062.03-.147 0-.06-.04-.172-.038-.112-.038-.156 0-.014.007-.022.008-.009.022-.009.035 0 .068.162.028.137.028.202z" fill="#fff" fill-opacity=".5"/>
    <g stroke-width=".661">
        <path d="M100.724 117.821V59.855h22.074v5.392h-16.176v20.558h14.154v5.392h-14.154v21.232h16.176v5.392zm-12.249 0-3.845-17.547H69.247l-3.757 17.547h-5.008l13.326-59.763h6.44l13.325 59.763zM77.206 65.268h-.536L70.052 95.93h13.773zM53.904 117.82l-3.846-17.547H34.675l-3.756 17.547H25.91l13.326-59.763h6.44l13.326 59.763zm-11.27-52.553h-.536L35.48 95.93h13.773z" fill="#09f" filter="url(#a)" transform="matrix(1.22451 0 0 .81665 -17.033 -37.613)"/>
        <g fill="#fff" fill-opacity=".948">
            <path d="m48.972 58.606-4.709-14.33H25.427l-4.6 14.33h-6.133L31.012 9.8h7.885l16.318 48.806zM35.173 15.688h-.657l-8.104 25.041h16.866zM91.306 58.606l-4.71-14.33H67.76l-4.6 14.33h-6.133L73.345 9.8h7.885l16.318 48.806zm-13.8-42.918h-.656l-8.105 25.041h16.866zM106.304 58.606V11.267h27.03v4.404h-19.808v16.788h17.333v4.404h-17.333v17.339h19.809v4.404z"/>
        </g>
        <g fill="#fff" fill-opacity=".948">
            <path d="M65.716 106.264v-6.593h.457v.617q.506-.654 1.197-.667v.52q-.728.048-1.197.555v5.568zm-3.132-3.099h-2.42v1.803q0 .913.914.913h.135q.914 0 .914-.913v-.766h.457v.753q0 1.371-1.37 1.371h-.149q-1.37 0-1.37-1.37v-3.976q0-1.37 1.37-1.37h.148q1.37 0 1.37 1.37zm-2.42-2.198v1.754h1.95v-1.754q0-.913-.913-.913h-.123q-.914 0-.914.913zm-6.466 5.297v-8.766h.457v2.667q.716-.556 1.272-.556h.062q1.086 0 1.086 1.062v5.593h-.457v-5.519q0-.704-.74-.704h-.037q-.482 0-1.186.507v5.716zm-3.613-6.161v6.161h-.47v-6.161h-.518v-.432h.519V98.56h.469v1.11h.864v.433zm-5.107 6.223h-.26q-1.358 0-1.358-1.358v-4q0-1.359 1.358-1.359h.26q1.346 0 1.346 1.358v4q0 1.359-1.346 1.359zm-.013-6.272h-.234q-.902 0-.902.901v4.025q0 .901.902.901h.234q.902 0 .902-.9v-4.026q0-.901-.902-.901zm-7.601 6.21v-6.593h.457v.494q.716-.556 1.271-.556h.062q1.087 0 1.087 1.062v5.593h-.457v-5.519q0-.704-.74-.704h-.05q-.47 0-1.173.507v5.716zm-4.552-8.68 1.568 8.68h-.457l-.32-1.84H31.54l-.308 1.84h-.47l1.556-8.68zm-.247.902-.938 5.482h1.889z" fill="#09f" fill-opacity="1" filter="url(#b)" transform="translate(-17.033 -37.613)"/>
            <path d="m15.779 59.971 1.568 8.68h-.457l-.321-1.84h-2.062l-.309 1.84h-.469l1.556-8.68zm-.247.901-.939 5.483h1.89zM20.33 68.651v-6.593h.457v.494q.716-.556 1.272-.556h.062q1.086 0 1.086 1.062v5.593h-.457v-5.52q0-.703-.74-.703h-.05q-.469 0-1.173.506v5.717zM27.944 68.713h-.26q-1.357 0-1.357-1.358v-4q0-1.359 1.358-1.359h.26q1.345 0 1.345 1.358v4q0 1.359-1.346 1.359zm-.012-6.273h-.235q-.901 0-.901.902v4.025q0 .901.901.901h.235q.901 0 .901-.901v-4.025q0-.902-.901-.902zM33.052 62.49v6.161h-.47V62.49h-.518v-.432h.518v-1.112h.47v1.112h.864v.432zM36.665 68.651v-8.766h.457v2.667q.716-.556 1.271-.556h.062q1.087 0 1.087 1.062v5.593h-.457v-5.52q0-.703-.74-.703h-.038q-.482 0-1.185.506v5.717zM45.55 65.552h-2.42v1.803q0 .913.914.913h.136q.914 0 .914-.913v-.766h.456v.753q0 1.37-1.37 1.37h-.148q-1.37 0-1.37-1.37v-3.975q0-1.371 1.37-1.371h.148q1.37 0 1.37 1.37zm-2.42-2.198v1.753h1.951v-1.753q0-.914-.913-.914h-.124q-.914 0-.914.914zM48.682 68.651v-6.593h.457v.617q.506-.654 1.198-.667v.519q-.729.05-1.198.556v5.568z"/>
        </g>
        <g fill="#fff" fill-opacity=".948">
            <path d="M105.024 103.165h-2.42v1.803q0 .913.914.913h.135q.914 0 .914-.913v-.766h.457v.753q0 1.371-1.37 1.371h-.149q-1.37 0-1.37-1.37v-3.976q0-1.37 1.37-1.37h.148q1.371 0 1.371 1.37zm-2.42-2.198v1.754h1.95v-1.754q0-.913-.913-.913h-.123q-.914 0-.914.913zm-3.613-3.47v8.767h-.457v-.494q-.692.556-1.272.556H97.2q-1.111 0-1.111-1.099v-4.519q0-1.099 1.111-1.099h.062q.568 0 1.272.543v-2.654zm-.457 7.841v-4.716q-.704-.568-1.149-.568h-.061q-.778 0-.778.703v4.42q0 .704.778.704h.061q.47 0 1.149-.543zm-8.38-.061v-1.223q0-.53.21-.815.223-.284.766-.494l1.358-.518v-1.358q0-.815-.852-.815h-.086q-.877 0-.877.815v.876h-.457v-.864q0-1.272 1.334-1.272h.098q1.31 0 1.31 1.272v5.383h-.47v-.469q-.691.531-1.247.531h-.037q-1.05 0-1.05-1.05zm1.173.605h.037q.445 0 1.124-.47v-2.753l-1.173.47q-.395.16-.543.357-.148.198-.148.58v1.136q0 .68.703.68zm-4.687-3.927v-1q0-.901-.901-.901h-.173q-.902 0-.902.901v4.025q0 .902.902.902h.185q.901 0 .901-.902v-1.197h.457v1.185q0 1.358-1.346 1.358h-.21q-1.358 0-1.358-1.358v-4q0-1.359 1.358-1.359h.198q1.346 0 1.346 1.346v1zm-6.75 4.31V99.67h.457v.617q.506-.654 1.198-.666v.518q-.729.05-1.198.556v5.568zm-4.551-8.68 1.568 8.68h-.457l-.321-1.84h-2.062l-.309 1.84h-.469l1.556-8.68zm-.247.9-.939 5.483h1.89z" fill="#09f" fill-opacity="1" filter="url(#c)" transform="translate(-17.033 -37.613)"/>
            <path d="m58.305 59.971 1.568 8.68h-.457l-.32-1.84h-2.063l-.308 1.84h-.47l1.556-8.68zm-.247.901-.938 5.483h1.889zM62.857 68.651v-6.593h.457v.617q.506-.654 1.197-.667v.519q-.728.05-1.197.556v5.568zM69.606 64.342v-1q0-.902-.901-.902h-.173q-.901 0-.901.902v4.025q0 .901.901.901h.185q.902 0 .902-.901v-1.198h.457v1.186q0 1.358-1.346 1.358h-.21q-1.358 0-1.358-1.358v-4q0-1.359 1.358-1.359h.197q1.346 0 1.346 1.346v1zM73.12 67.663v-1.222q0-.531.21-.815.223-.284.766-.494l1.359-.518v-1.359q0-.815-.852-.815h-.087q-.876 0-.876.815v.877h-.457v-.864q0-1.272 1.333-1.272h.099q1.309 0 1.309 1.272v5.383h-.47v-.47q-.69.532-1.247.532h-.037q-1.05 0-1.05-1.05zm1.174.605h.037q.444 0 1.124-.469v-2.753l-1.173.469q-.396.16-.544.358-.148.198-.148.58v1.136q0 .68.704.68zM81.957 59.885v8.766H81.5v-.494q-.691.556-1.271.556h-.062q-1.111 0-1.111-1.1v-4.518q0-1.099 1.11-1.099h.063q.567 0 1.271.543v-2.654zm-.457 7.84v-4.717q-.704-.568-1.148-.568h-.062q-.778 0-.778.704v4.42q0 .704.778.704h.062q.47 0 1.148-.543zM87.99 65.552h-2.42v1.803q0 .913.914.913h.136q.914 0 .914-.913v-.766h.456v.753q0 1.37-1.37 1.37h-.148q-1.37 0-1.37-1.37v-3.975q0-1.371 1.37-1.371h.148q1.37 0 1.37 1.37zm-2.42-2.198v1.753h1.951v-1.753q0-.914-.913-.914h-.124q-.914 0-.914.914z"/>
        </g>
        <g fill="#fff" fill-opacity=".948">
            <path d="M151.643 106.264v-6.593h.457v.617q.506-.654 1.198-.667v.52q-.729.048-1.198.555v5.568zm-4.49.062h-.259q-1.358 0-1.358-1.358v-4q0-1.359 1.358-1.359h.26q1.345 0 1.345 1.358v4q0 1.359-1.346 1.359zm-.012-6.272h-.235q-.9 0-.9.9v4.026q0 .901.9.901h.235q.901 0 .901-.9v-4.026q0-.901-.901-.901zm-5.046.049v6.161h-.469v-6.161h-.518v-.432h.518V98.56h.47v1.11h.864v.433zm-6.613 5.173v-1.222q0-.53.21-.815.222-.284.765-.494l1.358-.518v-1.358q0-.815-.852-.815h-.086q-.877 0-.877.815v.876h-.457v-.864q0-1.272 1.334-1.272h.099q1.309 0 1.309 1.272v5.383h-.47v-.469q-.691.531-1.247.531h-.037q-1.05 0-1.05-1.05zm1.173.605h.037q.444 0 1.123-.469v-2.753l-1.173.47q-.395.16-.543.357-.148.198-.148.58v1.136q0 .68.704.68zm-4.787.383v-8.766h.47v8.766zm-3.23-6.593v6.593h-.47v-.494q-.716.556-1.271.556h-.062q-1.086 0-1.086-1.05v-5.605h.469v5.52q0 .703.74.703h.05q.482 0 1.16-.506V99.67zm-11.182 6.593v-6.593h.456v.494q.717-.556 1.26-.556h.037q.753 0 .95.568.717-.568 1.31-.568h.036q.519 0 .79.272.285.271.285.753v5.63h-.47v-5.544q0-.679-.716-.679h-.037q-.469 0-1.111.482V106.264h-.47v-5.544q0-.679-.678-.679h-.037q-.445 0-1.149.507v5.716zm-5.626-8.643h2.481v.457h-2v3.556h1.939v.457h-1.939v3.716h2.025v.457h-2.506z" fill="#09f" fill-opacity="1" filter="url(#d)" transform="translate(-17.033 -37.613)"/>
            <path d="M94.796 60.008h2.482v.457h-2v3.556h1.938v.457h-1.938v3.716h2.025v.457h-2.507zM100.422 68.651v-6.593h.457v.494q.716-.556 1.26-.556h.036q.754 0 .951.568.716-.568 1.309-.568h.037q.518 0 .79.272.284.271.284.753v5.63h-.47v-5.544q0-.679-.715-.679h-.037q-.47 0-1.111.482V68.65h-.47v-5.544q0-.679-.679-.679h-.037q-.444 0-1.148.506v5.717zM111.604 62.058v6.593h-.469v-.494q-.716.556-1.272.556h-.061q-1.087 0-1.087-1.05v-5.605h.47v5.519q0 .704.74.704h.05q.481 0 1.16-.507v-5.716zM114.835 68.651v-8.766h.469v8.766zM118.448 67.663v-1.222q0-.531.21-.815.222-.284.766-.494l1.358-.518v-1.359q0-.815-.852-.815h-.087q-.876 0-.876.815v.877h-.457v-.864q0-1.272 1.333-1.272h.1q1.308 0 1.308 1.272v5.383h-.47v-.47q-.69.532-1.246.532h-.037q-1.05 0-1.05-1.05zm1.173.605h.037q.445 0 1.124-.469v-2.753l-1.173.469q-.395.16-.544.358-.148.198-.148.58v1.136q0 .68.704.68zM125.062 62.49v6.161h-.47V62.49h-.518v-.432h.519v-1.112h.469v1.112h.864v.432zM130.12 68.713h-.26q-1.358 0-1.358-1.358v-4q0-1.359 1.359-1.359h.259q1.346 0 1.346 1.358v4q0 1.359-1.346 1.359zm-.012-6.273h-.235q-.901 0-.901.902v4.025q0 .901.9.901h.236q.9 0 .9-.901v-4.025q0-.902-.9-.902zM134.61 68.651v-6.593h.457v.617q.506-.654 1.197-.667v.519q-.728.05-1.197.556v5.568z"/>
        </g>
    </g>
</svg>
