<svg height="169.334" viewBox="0 0 401.014 84.667" width="802.028" xmlns="http://www.w3.org/2000/svg">
    <text fill="#fff" fill-opacity=".5" font-family="TrasksHand" font-size="1" x="244.599" y="51.863"><tspan x="0" y="0">John Loreth 2022</tspan></text>
    <path d="M397.68 51.865h-31.917c-.013.09-.03.174-.041.264a15.025 15.025 0 0 0 15.057 15.058h1.853a15.025 15.025 0 0 0 15.057-15.058c-.001-.089-.007-.176-.01-.264z" fill="#db0404" opacity=".98"/>
    <path d="M365.701 50.915c1.663-39.164 31.174-37.398 32.003.085" fill="#fca404" opacity=".98"/>
    <path d="M400.93 76.31c.137.197.147.487-.292.704-.85.417-2.44 1.102-3.527 1.37-.398.098-.8.047-1.015-.044-9.909-6.963-19.383-9.816-30.438-11.75v-1.665c3.808.356 8.66 1.455 13.961 2.874.658.145.689-.633.495-.627l3.294-.089v1.628c7.582 1.691 14.448 4.855 17.522 7.6z" fill="#db0404" opacity=".98"/>
    <g fill="#fff">
        <path d="M92.933 39.42H86.85l-4.635 35.92h6.156l2.607-20.24c.87-2.16 1.81-3.52 2.173-4.08 2.969-4.56 4.924-5.12 6.662-5.12s2.897.72 3.693 1.2v-7.68c-.651-.24-1.448-.56-2.679-.56-4.128 0-6.88 4.08-8.835 8.24zM130.157 38.94c-1.376-.32-2.68-.64-5.215-.64-15.642 0-21.435 12.48-21.435 21.68 0 7.04 3.403 16.48 14.338 16.48 4.563 0 7.46-1.6 9.053-2.56l.941-7.2c-1.738 1.44-4.562 3.68-9.052 3.68-7.966 0-8.908-7.92-8.908-10.48 0-6.64 4.418-15.52 14.774-15.52 1.665 0 2.969.24 4.707.56zM145.22 20.78h-6.156l-7.097 54.56h6.156l3.114-23.36c1.738-2.48 3.62-4.48 3.91-4.8 1.087-1.2 3.404-3.6 5.939-3.6 1.014 0 2.245.64 2.969 1.76s.796 2.16.796 3.36c0 1.52-.072 2-.29 3.28l-2.968 23.36h6.228l2.896-22.8c.29-1.84.362-2.32.362-4.56 0-7.04-4.055-9.68-7.386-9.68-4.78 0-8.618 3.36-11.66 7.04zM176.867 39.42h-6.156l-4.635 35.92h6.156zM190.409 39.42h-6.083l-4.635 35.92h6.083l2.97-22.8c.94-1.36 5.793-8.32 9.776-8.32 1.231 0 3.766.72 3.766 5.04 0 1.04-.145 3.44-.507 6.48l-2.535 19.6h6.156l3.041-22.8c2.245-3.36 6.518-8.4 10.139-8.4 1.159 0 3.476.72 3.476 5.36 0 .88-.145 2.16-.217 3.04l-2.97 22.8h6.156l2.752-21.28c.217-1.76.435-3.52.435-5.36 0-8.16-4.78-9.84-7.677-9.84-5.576 0-10.066 5.12-12.094 8-.796-6.16-4.417-8-7.459-8-3.766 0-7.459 2.16-11.37 6.96zM259.134 65.34c-2.969 2.48-7.17 5.52-11.225 5.52-3.983 0-7.966-3.92-7.966-10.64 0-1.2.073-2.24.145-3.52h20.35c.145-.8.29-1.84.29-3.52 0-8.96-4.997-14.88-11.805-14.88-8.98 0-15.208 9.68-15.208 21.12 0 9.76 5.214 17.04 13.687 17.04 3.042 0 6.953-.96 10.79-4zm-18.032-13.36c.724-2.32 2.535-8.16 7.821-8.16 3.332 0 5.866 2.88 5.794 8.16zM297.444 20.78h-6.228l-2.245 17.6c-3.549-.08-6.59-.16-10.718 1.44-8.328 3.28-13.325 12.24-13.325 20.48 0 4.88 1.81 9.04 4.345 11.68 2.39 2.48 5.793 4.48 12.746 4.48 4.562 0 7.169-.8 8.328-1.12zM284.77 70.7c-.725.16-1.376.24-2.752.24-7.822 0-10.646-5.36-10.646-10.96 0-5.68 2.752-12.32 9.342-14.88 2.897-1.2 5.866-1.12 7.532-1.12zM324.963 65.34c-2.97 2.48-7.17 5.52-11.225 5.52-3.983 0-7.966-3.92-7.966-10.64 0-1.2.072-2.24.145-3.52h20.35c.144-.8.29-1.84.29-3.52 0-8.96-4.998-14.88-11.805-14.88-8.98 0-15.208 9.68-15.208 21.12 0 9.76 5.214 17.04 13.687 17.04 3.042 0 6.952-.96 10.79-4zM306.93 51.98c.724-2.32 2.534-8.16 7.82-8.16 3.332 0 5.867 2.88 5.794 8.16zM351.903 42.3c-1.81-1.28-5.36-3.76-9.994-3.76-6.735 0-10.066 4.8-10.066 10 0 4.4 2.534 7.44 5.431 9.68 5.504 4.4 7.314 5.76 7.314 8.4 0 2.32-1.81 3.92-4.055 3.92-3.114 0-6.3-2.08-10.211-5.36l-1.014 6.56c4.418 3.44 7.242 4.72 11.153 4.72 6.734 0 10.21-5.28 10.21-10.48 0-5.6-3.113-8.08-7.966-11.84-2.39-1.84-4.996-3.84-4.996-5.92 0-2 1.738-3.52 4.272-3.52 3.694 0 6.953 2.24 9.922 4.72z"/>
    </g>
    <path d="M67.49 84.667c-21.379-9.402-40.984-7.986-59.51 0l30.953-39.6c12.095-7.77 27.28-.474 28.548 2.437l.01 37.163" fill="#fca404" opacity=".98"/>
    <path d="M67.074 39.704v-29.29c.043-.305-.243-.426-.571-.007-11.958 15.277-15.609 18.92-20.266 25.904-.26.482-.012.734.708.707 1.767-.143 3.502-.07 5.176-.078 7.36-.039 11.528 1.954 13.89 3.115.895.38 1.073-.009 1.063-.351z" fill="#db0404" opacity=".98"/>
    <path d="M65.694 0 0 84.647l7.994.002 30.939-39.583c3.78-2.427 7.862-3.383 11.726-3.462 8.501-.175 15.95 3.899 16.822 5.9l.01 37.161 6.333.002V0zm1.797 84.665-59.497-.016-.015.019h59.512zm-.563-74.526c.107.016.168.122.146.274v29.29c.01.343-.168.731-1.063.352-2.362-1.162-6.529-3.154-13.89-3.116-1.674.01-3.409-.065-5.176.079-.72.027-.968-.226-.708-.707 4.657-6.984 8.308-10.627 20.266-25.904.164-.21.318-.284.425-.268z" fill="#fffbff" opacity=".98"/>
</svg>
