<?xml version="1.0" encoding="UTF-8" standalone="no"?>
<!-- Created by ERK -->

<svg
   width="900"
   height="450"
   viewBox="0 0 900 450"
   fill="none"
   version="1.1"
   id="svg23"
   sodipodi:docname="abc80-w.svg"
   inkscape:version="1.4 (86a8ad7, 2024-10-11)"
   xmlns:inkscape="http://www.inkscape.org/namespaces/inkscape"
   xmlns:sodipodi="http://sodipodi.sourceforge.net/DTD/sodipodi-0.dtd"
   xmlns="http://www.w3.org/2000/svg"
   xmlns:svg="http://www.w3.org/2000/svg">
  <sodipodi:namedview
     id="namedview23"
     pagecolor="#ffffff"
     bordercolor="#000000"
     borderopacity="0.25"
     inkscape:showpageshadow="2"
     inkscape:pageopacity="0.0"
     inkscape:pagecheckerboard="true"
     inkscape:deskcolor="#d1d1d1"
     inkscape:zoom="1.6935757"
     inkscape:cx="444.6214"
     inkscape:cy="191.01597"
     inkscape:window-width="3840"
     inkscape:window-height="2066"
     inkscape:window-x="-11"
     inkscape:window-y="-11"
     inkscape:window-maximized="1"
     inkscape:current-layer="svg23" />
  <g
     clip-path="url(#clip0)"
     id="g23"
     transform="translate(155.50238,32.325)"
     style="fill:#ffffff">
    <path
       d="m 218.71,208.58 h -4.03 v 157.7 l 4.03,10.27 z"
       fill="#000000"
       id="path1"
       style="fill:#ffffff" />
    <path
       d="m 210.65,208.58 h -4.03 v 137.18 l 4.03,10.26 z"
       fill="#000000"
       id="path2"
       style="fill:#ffffff" />
    <path
       d="m 202.6,208.58 h -4.03 v 116.66 l 4.03,10.26 z"
       fill="#000000"
       id="path3"
       style="fill:#ffffff" />
    <path
       d="m 291.65,290.7 c 4.92,-8.73 7.38,-17.68 7.38,-27.3 0,-14.99 -5.37,-27.97 -16.11,-38.71 -10.74,-10.74 -23.72,-16.11 -38.93,-16.11 h -13.2 v 174.98 h 13.2 c 16.33,0 30.21,-5.59 41.62,-17.01 11.41,-11.41 17.23,-25.28 17.23,-41.62 0,-12.53 -3.81,-23.94 -11.19,-34.23 z m -56.83,-46.09 h 9.17 c 10.07,0 18.8,8.73 18.8,18.8 0,10.07 -8.28,18.8 -18.8,18.8 h -9.17 z m 0,41.39 h 9.17 c 12.53,0 22.82,-10.07 22.82,-22.6 0,-12.53 -10.29,-22.6 -22.82,-22.6 h -9.17 v -4.03 h 9.17 c 7.38,0 13.87,2.68 19.02,7.83 5.15,5.15 7.83,11.41 7.83,18.8 0,7.39 -2.69,13.65 -7.83,18.8 -5.15,5.15 -11.64,7.83 -19.02,7.83 h -9.17 z m 0,16.11 h 9.17 c 12.53,0 22.82,10.29 22.82,22.82 0,12.53 -10.29,22.38 -22.82,22.38 h -9.17 z m 0,49.23 h 9.17 c 7.38,0 13.87,-2.46 19.02,-7.61 5.15,-5.15 7.83,-11.41 7.83,-18.8 0,-7.39 -2.69,-13.87 -7.83,-19.02 -5.15,-5.15 -11.64,-7.83 -19.02,-7.83 h -9.17 v -4.03 h 9.17 c 8.28,0 15.44,3.13 21.48,9.17 6.04,6.04 9.17,13.43 9.17,21.7 0,8.27 -3.13,15.44 -9.17,21.48 -6.04,6.04 -13.2,8.95 -21.48,8.95 h -9.17 z m 0,8.05 h 9.17 c 9.62,0 17.9,-3.36 24.61,-10.07 6.94,-6.71 10.29,-14.77 10.29,-24.39 0,-14.99 -9.62,-28.19 -23.72,-32.89 4.7,-1.57 8.73,-4.7 12.31,-8.95 4.92,-5.59 7.38,-12.31 7.38,-19.69 0,-8.28 -3.13,-15.44 -9.17,-21.48 -6.04,-6.04 -13.2,-9.17 -21.7,-9.17 h -9.17 v -4.03 h 9.17 c 9.62,0 17.9,3.36 24.61,10.29 6.94,6.71 10.29,14.77 10.29,24.39 0,12.31 -4.92,21.7 -14.77,28.42 12.31,7.38 18.57,18.57 18.57,33.12 0,10.52 -3.8,19.69 -11.41,27.3 -7.38,7.38 -16.56,11.19 -27.3,11.19 h -9.17 v -4.04 z m 0,8.06 h 9.17 c 11.86,0 22.15,-4.03 30.43,-12.31 8.28,-8.28 12.53,-18.35 12.53,-30.21 0,-13.65 -5.37,-24.61 -16.33,-33.34 2.69,-2.01 5.15,-5.15 7.38,-9.4 3.36,-6.04 4.92,-12.31 4.92,-18.8 0,-10.74 -3.8,-19.91 -11.41,-27.3 -7.38,-7.61 -16.56,-11.41 -27.52,-11.41 h -9.17 v -4.03 h 9.17 c 11.86,0 21.93,4.25 30.21,12.53 8.5,8.28 12.75,18.35 12.75,30.21 0,10.07 -3.58,19.47 -10.52,27.97 9.62,9.4 14.54,20.59 14.54,33.56 0,12.75 -4.7,23.72 -13.87,32.89 -9.17,9.17 -20.14,13.65 -33.12,13.65 h -9.17 v -4.01 z m 48.1,-3.81 c -10.74,10.52 -23.72,15.89 -38.93,15.89 h -9.17 v -4.03 h 9.17 c 14.1,0 25.96,-4.92 35.8,-14.77 10.07,-9.85 14.99,-21.7 14.99,-35.8 0,-12.53 -4.25,-23.72 -12.75,-33.79 6.04,-9.62 8.95,-18.8 8.95,-27.75 0,-12.75 -4.7,-23.72 -13.87,-32.89 -9.17,-9.17 -20.14,-13.87 -33.12,-13.87 h -9.17 v -4.03 h 9.17 c 14.1,0 26.18,4.92 36.02,14.99 10.07,9.85 14.99,21.7 14.99,35.8 0,10.07 -2.69,19.24 -8.05,27.52 8.05,9.62 12.08,21.03 12.08,34.01 0,15.01 -5.37,27.98 -16.11,38.72 z"
       fill="#000000"
       id="path4"
       style="fill:#ffffff" />
    <path
       d="m 226.76,208.58 h -4.03 v 174.98 h 4.03 z"
       fill="#000000"
       id="path5"
       style="fill:#ffffff" />
    <path
       d="m 198.57,325.24 4.03,10.33 v -0.07 z"
       fill="#000000"
       id="path6"
       style="fill:#ffffff" />
    <path
       d="m 214.68,366.28 v 0.27 l 3.67,9.42 0.36,0.86 v -0.28 z"
       fill="#000000"
       id="path7"
       style="fill:#ffffff" />
    <path
       d="m 206.62,345.76 v 0.13 l 4.03,10.33 v -0.2 z"
       fill="#000000"
       id="path8"
       style="fill:#ffffff" />
    <path
       d="m 149.16,208.58 68.25,174.98 h -4.48 L 144.91,208.58 Z m -8.73,0 68.25,174.98 H 204.2 L 135.73,208.58 Z m -8.95,0 68.69,174.98 h -4.48 L 127.22,208.58 Z m -8.5,0 68.69,174.98 h -4.48 L 118.72,208.58 Z M 92.55,352.23 80.47,383.56 H 76.22 L 127.01,252.89 125,246.85 71.74,383.56 h -4.48 l 55.49,-142.08 -2.01,-5.59 -57.5,147.68 h -4.48 l 59.74,-153.05 -2.01,-5.37 -61.75,158.41 h -4.25 l 63.77,-164.24 -2.01,-5.37 -66.24,169.61 h -4.48 l 68.25,-174.98 h 4.48 l 68.47,174.98 h -4.25 l -12.31,-31.33 z m 72.05,-4.02 -1.57,-3.8 H 95.68 l -1.57,3.8 z m -65.56,-11.86 -1.57,4.03 h 64.22 l -1.79,-4.03 z m 2.91,-8.06 -1.34,4.03 h 57.95 l -1.57,-4.03 z m 3.13,-8.05 -1.34,4.03 h 51.46 l -1.57,-4.03 z m 46.99,-4.03 -22.6,-57.95 -22.82,57.95 z"
       fill="#000000"
       id="path9"
       style="fill:#ffffff" />
    <path
       d="m 317.01,359.39 c 17.45,17.23 38.49,25.96 63.32,25.96 3.58,0 7.16,-0.22 10.74,-0.67 v -4.03 c -3.58,0.45 -7.16,0.67 -10.74,0.67 -23.49,0 -43.63,-8.28 -60.41,-25.06 -9.27,-9.27 -15.93,-19.5 -20.05,-30.75 l -0.63,8.78 c 4.28,9.07 10.2,17.43 17.77,25.1 z"
       fill="#000000"
       id="path10"
       style="fill:#ffffff" />
    <path
       d="m 339.84,255.57 c -11.19,10.96 -16.78,24.61 -16.78,40.5 0,15.89 5.59,29.31 16.78,40.5 11.19,11.19 24.61,16.78 40.5,16.78 4.25,0 7.83,-0.45 10.74,-1.12 v -4.25 c -3.58,0.9 -7.16,1.34 -10.74,1.34 -14.54,0 -27.07,-5.15 -37.59,-15.66 -10.52,-10.52 -15.66,-23.05 -15.66,-37.59 0,-14.54 5.15,-27.07 15.66,-37.59 10.52,-10.52 23.05,-15.66 37.59,-15.66 2.69,0 6.26,0.22 10.74,0.89 v -4.03 c -3.13,-0.67 -6.71,-0.9 -10.74,-0.9 -15.89,0.01 -29.31,5.6 -40.5,16.79 z"
       fill="#000000"
       id="path11"
       style="fill:#ffffff" />
    <path
       d="m 328.43,244.16 c -14.32,14.32 -21.48,31.55 -21.48,51.91 0,20.36 7.16,37.59 21.48,51.91 14.32,14.32 31.55,21.48 51.91,21.48 4.03,0 7.61,-0.22 10.74,-0.89 v -4.03 c -3.13,0.67 -6.71,0.89 -10.74,0.89 -19.02,0 -35.35,-6.71 -49,-20.36 -13.65,-13.65 -20.36,-29.98 -20.36,-49 0,-19.02 6.71,-35.35 20.36,-49 13.65,-13.65 29.98,-20.36 49,-20.36 4.25,0 7.83,0.22 10.74,0.9 v -4.25 c -3.58,-0.45 -7.16,-0.67 -10.74,-0.67 -20.36,-0.01 -37.59,7.15 -51.91,21.47 z"
       fill="#000000"
       id="path12"
       style="fill:#ffffff" />
    <path
       d="M 334.02,249.98 C 321.27,262.73 315,277.95 315,296.07 c 0,18.12 6.26,33.56 19.02,46.32 12.76,12.76 28.19,19.02 46.32,19.02 4.25,0 7.83,-0.45 10.74,-1.12 v -4.03 c -2.91,0.67 -6.49,1.12 -10.74,1.12 -16.78,0 -31.33,-6.04 -43.41,-17.9 -11.86,-12.08 -17.9,-26.63 -17.9,-43.41 0,-16.78 6.04,-31.33 17.9,-43.18 12.08,-12.08 26.63,-18.12 43.41,-18.12 4.03,0 7.61,0.22 10.74,0.9 v -4.03 c -3.13,-0.67 -6.71,-0.9 -10.74,-0.9 -18.13,-0.01 -33.57,6.48 -46.32,19.24 z"
       fill="#000000"
       id="path13"
       style="fill:#ffffff" />
    <path
       d="m 322.61,238.57 c -15.89,15.89 -23.72,34.91 -23.72,57.5 0,22.59 7.83,41.84 23.72,57.73 15.89,15.89 35.13,23.72 57.73,23.72 2.46,0 6.04,-0.22 10.74,-0.9 v -4.03 c -4.7,0.67 -8.28,0.9 -10.74,0.9 -21.26,0 -39.6,-7.61 -54.82,-22.6 -14.99,-15.21 -22.6,-33.56 -22.6,-54.82 0,-21.26 7.61,-39.6 22.6,-54.6 15.22,-15.22 33.56,-22.82 54.82,-22.82 3.58,0 7.16,0.22 10.74,0.67 v -4.03 c -3.58,-0.45 -7.16,-0.67 -10.74,-0.67 -22.6,0 -41.84,8.06 -57.73,23.95 z"
       fill="#000000"
       id="path14"
       style="fill:#ffffff" />
    <path
       d="m 380.34,206.57 c -24.84,0 -45.87,8.73 -63.32,26.18 -10.4,10.54 -17.68,22.38 -21.83,35.58 l 2.31,5.99 c 3.64,-14.42 11.09,-27.31 22.44,-38.66 16.78,-16.78 36.92,-25.06 60.41,-25.06 3.58,0 7.16,0.22 10.74,0.67 v -4.03 c -3.59,-0.45 -7.17,-0.67 -10.75,-0.67 z"
       fill="#000000"
       id="path15"
       style="fill:#ffffff" />
    <path
       d="m 299.08,336.69 0.17,-2.4 c -0.15,-0.33 -0.29,-0.66 -0.44,-0.99 z"
       fill="#000000"
       id="path16"
       style="fill:#ffffff" />
    <path
       d="m 431.95,293.77 c -0.67,-0.3 -0.71,-1.24 -0.06,-1.59 7.57,-4.12 12.18,-10.12 12.18,-18.13 0,-14 -14,-24.25 -45.75,-24.25 -38.25,0 -46.25,12.25 -46.25,24.25 0,6.64 4.46,12.6 11.88,17.03 0.92,0.55 0.87,1.92 -0.12,2.34 -11.6,4.98 -14.76,12.84 -14.76,20.6 0,14.91 21.11,26.63 48.47,26.63 27.36,0 49.53,-8.52 49.53,-26.63 0.01,-8.45 -4.79,-15.62 -15.12,-20.25 z m -33.87,-30.72 c 11.05,0 20,4.92 20,11 0,6.08 -8.95,11 -20,11 -11.05,0 -20,-4.92 -20,-11 0,-6.08 8.95,-11 20,-11 z m 0,64 c -12.7,0 -23,-6.04 -23,-13.5 0,-7.46 10.3,-13.5 23,-13.5 12.7,0 23,6.04 23,13.5 0,7.46 -10.3,13.5 -23,13.5 z"
       fill="#000000"
       id="path17"
       style="fill:#ffffff" />
    <path
       d="m 498.08,251.05 c -32,0 -49,20.15 -49,45 0,24.85 19,45 49,45 31,0 49,-20.15 49,-45 0,-24.85 -17,-45 -49,-45 z m 0,75 c -15,0 -23,-13.43 -23,-30 0,-16.57 8,-30 23,-30 15,0 23,13.43 23,30 0,16.57 -8,30 -23,30 z"
       fill="#000000"
       id="path18"
       style="fill:#ffffff" />
    <path
       d="m 81.61,147.03 c 10.54,0 21.08,0 31.61,0 0.92,0 1.84,0 2.76,0.08 1.4,0.12 1.96,0.81 1.6,2.25 -0.84,3.32 -1.56,6.67 -2.4,10 -0.83,3.32 -1.87,6.6 -2.56,9.94 -0.49,2.36 -1.76,3.09 -4.06,3.09 -12.18,-0.03 -24.35,0 -36.53,0.09 -22.59,0.16 -45.18,0.39 -67.76001,0.56 -4.480002,0.03 -4.800002,-0.36 -3.820002,-4.67 1.140002,-5.01 2.350002,-10.01 3.630002,-14.98 0.27,-1.03 0.82,-2.1 1.54,-2.89 C 15.67,139.5 23.64,127.09 30.92,114.21 38.4,101 44.97,87.36 50.61,73.28 c 3.71,-9.27 7.48,-18.52 11.44,-27.69 5.23,-12.12 12.44,-22.84 22.9,-31.3 7.17,-5.8 15.34,-9.77 24.09,-12.3 7.26,-2.100003 14.86,-2.780003 22.43,-0.86 3.36,0.85 6.77,1.54 10.11,2.45 2.92,0.8 3.21,1.51 1.8,4.03 -4,7.15 -7.99,14.3 -12.15,21.36 -0.48,0.81 -1.94,1.48 -2.95,1.48 -2.12,-0.01 -4.23,-0.61 -6.36,-0.77 -6.72,-0.5 -12.56,1.8 -17.91,5.64 -8.67,6.22 -13.95,14.92 -17.92,24.42 -4.35,10.43 -8.11,21.1 -12.39,31.56 -6.77,16.57 -14.57,32.64 -24.82,47.45 -1.27,1.83 -2.42,3.73 -3.66,5.58 -0.97,1.44 -0.52,2.27 1.11,2.52 1,0.16 2.03,0.21 3.05,0.21 10.74,0.01 21.49,0.01 32.23,0.01 0,-0.01 0,-0.03 0,-0.04 z"
       fill="#000000"
       id="path19"
       style="fill:#ffffff" />
    <path
       d="m 588.99,94.64 c -0.65,3.07 -1.44,7.75 -2.65,12.32 -2.21,8.38 -4.62,16.7 -7.05,25.02 -1.46,4.99 -4.52,8.3 -10.13,8.61 -2.96,0.16 -5.92,0.26 -8.87,0.52 -0.8,0.07 -1.82,0.46 -2.24,1.04 -0.26,0.36 0.26,1.5 0.71,2.08 6.98,9.08 15.71,16.08 26.1,21.04 1.82,0.87 2.84,1.93 2.37,3.96 -1.48,6.48 -2.89,12.97 -4.52,19.41 -0.52,2.06 -2.48,1.64 -3.82,0.98 -4.56,-2.27 -9.26,-4.39 -13.45,-7.22 -5.53,-3.74 -10.89,-7.82 -15.83,-12.29 -4.5,-4.07 -8.37,-8.82 -12.45,-13.32 -4.75,-5.24 -9.97,-9.83 -16.64,-12.58 -3.89,-1.6 -4.73,-1.19 -5.84,2.8 -1.84,6.6 -3.68,13.2 -5.57,19.79 -0.9,3.13 -1.66,3.71 -5.02,3.74 -7.16,0.06 -14.32,0.06 -21.49,0.03 -2.72,-0.01 -3.02,-0.35 -2.37,-3.07 1.57,-6.57 3.24,-13.11 4.9,-19.66 1.68,-6.65 3.38,-13.29 5.11,-19.92 2.81,-10.83 5.65,-21.65 8.48,-32.48 0.77,-2.93 1.6,-5.84 2.33,-8.78 0.54,-2.18 1.77,-3.14 4.13,-3.14 7.88,0.02 15.75,-0.1 23.63,-0.19 14.62,-0.16 29.24,-0.37 43.86,-0.49 2.54,-0.02 5.1,0.26 7.63,0.52 5.76,0.57 8.84,4.01 8.69,11.28 z m -51.81,27.57 c 0,0.01 0,0.02 0,0.03 2.55,0 5.11,0.06 7.66,-0.02 2.55,-0.08 5.11,-0.13 7.62,-0.52 1.18,-0.19 2.64,-0.88 3.28,-1.8 2.16,-3.13 3.28,-6.71 3.33,-10.53 0.04,-3.25 -1.33,-4.62 -4.61,-4.66 -5.41,-0.05 -10.83,-0.04 -16.24,0.02 -3.16,0.04 -6.32,0.21 -9.48,0.37 -2.05,0.1 -3.36,1.02 -3.86,3.15 -0.8,3.43 -1.78,6.81 -2.75,10.2 -0.8,2.82 -0.28,3.66 2.81,3.73 4.07,0.09 8.16,0.03 12.24,0.03 z"
       fill="#000000"
       id="path20"
       style="fill:#ffffff" />
    <path
       d="m 436.59,83.46 c 6.65,0 13.31,-0.16 19.95,0.05 4.89,0.16 9.86,0.48 14.11,3.36 3.71,2.51 6.04,5.7 6.17,10.47 0.17,6.28 -1.45,12.19 -2.98,18.14 -2.6,10.15 -5.2,20.3 -8.13,30.36 -1.54,5.3 -3.58,10.49 -5.74,15.58 -1.63,3.86 -5.18,5.99 -9,7.27 -2.96,0.99 -6.16,1.72 -9.27,1.79 -16.87,0.39 -33.75,0.69 -50.63,0.67 -5.24,-0.01 -10.5,-0.91 -15.69,-1.78 -3.38,-0.56 -5.7,-3.02 -6.47,-6.21 -0.69,-2.87 -1.12,-6.03 -0.66,-8.91 1.27,-7.95 2.7,-15.91 4.72,-23.69 2.74,-10.52 5.69,-21.01 9.3,-31.26 2.75,-7.8 8.63,-12.97 17.27,-14.12 5.66,-0.76 11.37,-1.32 17.08,-1.55 6.64,-0.26 13.3,-0.06 19.95,-0.06 0.02,-0.03 0.02,-0.07 0.02,-0.11 z m -19.76,64.15 c 0,-0.02 0,-0.03 0,-0.05 4.6,0 9.21,0.11 13.8,-0.03 3.98,-0.12 6.18,-1.66 7.06,-5.09 2.6,-10.05 5.1,-20.13 7.51,-30.22 0.89,-3.72 -0.74,-5.77 -4.61,-6.26 -0.91,-0.12 -1.84,-0.14 -2.76,-0.12 -8.48,0.22 -16.95,0.48 -25.43,0.67 -2.23,0.05 -3.7,1.27 -4.68,2.94 -0.96,1.64 -1.67,3.48 -2.15,5.32 -2.25,8.67 -4.35,17.38 -6.57,26.06 -1.25,4.88 0.07,6.7 5.24,6.77 4.21,0.06 8.4,0.01 12.59,0.01 z"
       fill="#000000"
       id="path21"
       style="fill:#ffffff" />
    <path
       d="m 177.34,171.89 c -8.89,0 -17.79,0.17 -26.68,-0.08 -3.92,-0.11 -7.91,-0.2 -11.72,-1.83 -4.56,-1.95 -8.6,-7.7 -7.66,-13.57 0.85,-5.25 1.99,-10.47 3.3,-15.63 2.17,-8.5 4.61,-16.93 6.89,-25.39 2.44,-9.04 4.86,-18.09 7.25,-27.15 0.49,-1.84 1.7,-2.77 3.52,-2.79 7.98,-0.08 15.96,-0.09 23.94,-0.12 2.38,-0.01 2.33,1.59 1.96,3.15 -0.83,3.53 -1.76,7.03 -2.69,10.54 -0.96,3.6 -1.99,7.17 -2.93,10.77 -2.68,10.22 -5.35,20.45 -7.99,30.69 -0.22,0.87 -0.37,1.79 -0.35,2.68 0.07,2.76 1.21,4.03 3.96,4.54 0.8,0.15 1.62,0.28 2.44,0.28 8.08,-0.04 16.16,0.14 24.22,-0.26 6.26,-0.31 7.23,-2.49 8.35,-6.68 3.49,-13.05 7.28,-26.01 10.93,-39.02 1.34,-4.75 2.66,-9.51 3.87,-14.3 0.41,-1.63 1.23,-2.44 2.94,-2.45 7.88,-0.04 15.75,-0.15 23.63,-0.14 2.3,0 2.68,0.62 2.1,2.85 -4.01,15.31 -7.98,30.62 -12.09,45.9 -2.04,7.58 -4.2,15.13 -6.57,22.62 -0.9,2.85 -2.23,5.66 -3.89,8.15 -2.79,4.2 -7.02,6.45 -12.11,6.61 -10.11,0.33 -20.23,0.48 -30.35,0.69 -1.43,0.03 -2.86,0 -4.29,0 0.02,0 0.02,-0.03 0.02,-0.06 z"
       fill="#000000"
       id="path22"
       style="fill:#ffffff" />
    <path
       d="m 338.04,171.41 c -7.06,-0.57 -13.61,-3 -19.79,-6.5 -4.92,-2.78 -9.23,-6.31 -13.02,-10.47 -2.2,-2.42 -3.54,-2.6 -5.93,-0.37 -4.94,4.61 -10.49,8.35 -16.37,11.66 -5.57,3.13 -11.53,5.14 -17.95,5.63 -5.08,0.39 -10.17,0.71 -15.26,1.01 -1.01,0.06 -2.04,-0.09 -3.06,-0.17 -1.9,-0.15 -2.32,-1.07 -1.85,-2.88 1.62,-6.25 3.13,-12.52 4.59,-18.81 0.48,-2.04 1.65,-2.78 3.69,-2.81 5.87,-0.1 11.56,-1.12 17.05,-3.24 6.03,-2.34 10.99,-6.16 15.4,-10.72 1.68,-1.74 2.14,-3.58 0.86,-6.01 -3.16,-5.99 -7.97,-10.21 -13.91,-13.18 -2.98,-1.49 -6.24,-2.48 -9.44,-3.52 -2.59,-0.84 -2.92,-1.07 -2.35,-3.51 0.94,-4.03 1.98,-8.03 3.01,-12.04 0.67,-2.64 1.39,-5.26 2.08,-7.9 0.43,-1.64 1.41,-2.26 3.16,-2.05 8.27,0.97 16.1,3.17 22.53,8.64 4.78,4.06 9.35,8.37 13.88,12.72 3.18,3.06 3.5,3.15 6.64,0.23 6.55,-6.1 13.4,-11.84 21.13,-16.47 6.14,-3.68 12.95,-5.45 19.97,-6.45 3.03,-0.43 6.1,-0.61 9.16,-0.71 2.57,-0.08 2.96,0.49 2.37,2.83 -1.71,6.74 -3.47,13.48 -5.13,20.23 -0.36,1.47 -1.05,2.26 -2.56,2.58 -3.39,0.72 -6.82,1.36 -10.11,2.42 -6.57,2.11 -11.86,6.24 -16.56,11.09 -2.11,2.18 -3.95,4.61 -5.87,6.97 -1.49,1.82 -1.3,3.65 -0.02,5.56 2.67,3.97 6.23,7.02 10.51,9.04 3.47,1.63 7.21,2.75 10.92,3.79 1.81,0.51 2.72,0.99 2.18,3.03 -1.58,6.03 -3.07,12.09 -4.55,18.15 -0.78,3.09 -3.33,1.87 -5.4,2.23 z"
       fill="#000000"
       id="path23"
       style="fill:#ffffff" />
  </g>
  <defs
     id="defs23">
    <clipPath
       id="clip0">
      <rect
         width="589"
         height="385.35001"
         fill="#ffffff"
         id="rect23"
         x="0"
         y="0" />
    </clipPath>
  </defs>
</svg>
