<?xml version="1.0" encoding="UTF-8" standalone="no"?>
<!-- Created by ERK -->

<svg
   height="205.472"
   viewBox="0 0 1181.1 138.694"
   width="1749.778"
   version="1.1"
   id="svg3"
   sodipodi:docname="advision-w.svg"
   inkscape:version="1.4 (86a8ad7, 2024-10-11)"
   xmlns:inkscape="http://www.inkscape.org/namespaces/inkscape"
   xmlns:sodipodi="http://sodipodi.sourceforge.net/DTD/sodipodi-0.dtd"
   xmlns="http://www.w3.org/2000/svg"
   xmlns:svg="http://www.w3.org/2000/svg">
  <defs
     id="defs3" />
  <sodipodi:namedview
     id="namedview3"
     pagecolor="#ffffff"
     bordercolor="#000000"
     borderopacity="0.25"
     inkscape:showpageshadow="2"
     inkscape:pageopacity="0.0"
     inkscape:pagecheckerboard="true"
     inkscape:deskcolor="#d1d1d1"
     inkscape:zoom="1.0555625"
     inkscape:cx="883.88892"
     inkscape:cy="114.15714"
     inkscape:window-width="3840"
     inkscape:window-height="2066"
     inkscape:window-x="-11"
     inkscape:window-y="-11"
     inkscape:window-maximized="1"
     inkscape:current-layer="svg3" />
  <path
     d="M853 .374c-.4.4-16.6.7-36.1.6l-35.3-.2-3.3 9.8c-5.5 16.2-6.3 18.3-7.6 18.3-.6 0-3.6-6.2-6.6-13.8l-5.4-13.7-65.9-.3c-48.2-.1-66.2.1-66.7.9-.5.9-2.3.9-7.1 0-4.5-.8-38.2-1.1-111.1-1.1H403.2v9.5c0 5.2-.3 9.5-.7 9.5-.5-.1-3.7-4.3-7.2-9.5l-6.4-9.5H290.2l-7.2 10.7-7.3 10.8-.3-10.8-.3-10.7h-56.9v6.8l-5.2-2c-10.8-4.1-18.3-4.7-57.8-4.7h-37.5l-11.3 15.9-11.3 16H53.4l-26.7 37.3-26.7 37.2 20.6.3c11.3.1 20.6.5 20.6.7 0 .3-4 6.2-9 13.1-4.9 6.9-9 12.7-9 13 0 .2 15.5.4 34.4.4H92l7.3-10.2c4.1-5.6 8-10.3 8.7-10.6.9-.3 1.2 2.2 1.2 10.2v10.6h37.5c41 0 53.2-.9 64.3-4.6 4-1.3 7.5-2.4 7.7-2.4.3 0 .5 1.6.5 3.5v3.5H244l24.7-.1 7.4-11.7c8-12.6 9.9-15.2 11.3-15.2.4 0 .8 6.1.8 13.5v13.5h109v-11.3c.1-13-.5-13.1 9.3 2.2l5.8 9.1h86.8l.3-5.9.3-6 5.7 3.9c9.2 6.1 15.8 8.2 27.9 8.8 8.1.3 11.9 0 16.4-1.2 4.1-1.2 6.1-1.4 6.8-.7.8.8 25.6 1.1 80.4 1.1h79.3v-25h5.4c2.9 0 8.1-.3 11.4-.6l6.1-.7 1.5 3.4c.8 1.9 3.3 8.3 5.4 14.4l4 11 49.8.4c63.1.5 70.8.5 104.9 0l28-.4.3-2.8c.4-3 1.6-3 7.2-.2 6.1 3.1 18.1 4.8 29.4 4.2 10.6-.5 15.7-1.6 23.8-5.1 4.8-2 4.6-2.1 5 1.2l.3 2.7 27.3.3 27.2.2v-12.2c0-14.3-.5-14.4 9.5 1.4l6.7 10.8h45.8v-31h9.5l8.1-10.8c4.5-5.9 17.2-22.6 28.2-37.2l20.1-26.5-32.9-.3-33-.2v-31l-27.2.2-27.3.3-.5 10.5-.5 10.5-7.5-10.5-7.5-10.5h-46l-.3 2.8c-.3 2.3-.7 2.7-2 2.1-11.4-5-15.6-5.8-30.7-5.8-15.3 0-17.9.5-30.7 5.9-1.3.5-1.7 0-2-2.2l-.3-2.8-28-.3c-15.4-.2-33.2-.6-39.5-.9s-11.8-.2-12.2.2z"
     fill="#fff"
     id="path1"
     style="fill:#293789;fill-opacity:1" />
  <path
     d="M853 .374c-.4.4-16.6.7-36.1.6l-35.3-.2-3.3 9.8c-5.5 16.2-6.3 18.3-7.6 18.3-.6 0-3.6-6.2-6.6-13.8l-5.4-13.7-65.9-.3c-48.2-.1-66.2.1-66.7.9-.5.9-2.3.9-7.1 0-4.5-.8-38.2-1.1-111.1-1.1H403.2v9.5c0 5.2-.3 9.5-.7 9.5-.5-.1-3.7-4.3-7.2-9.5l-6.4-9.5H290.2l-7.2 10.7-7.3 10.8-.3-10.8-.3-10.7h-56.9v6.8l-5.2-2c-10.8-4.1-18.3-4.7-57.8-4.7h-37.5l-11.3 15.9-11.3 16H53.4l-26.7 37.3-26.7 37.2 20.6.3c11.3.1 20.6.5 20.6.7 0 .3-4 6.2-9 13.1-4.9 6.9-9 12.7-9 13 0 .2 15.5.4 34.4.4H92l7.3-10.2c4.1-5.6 8-10.3 8.7-10.6.9-.3 1.2 2.2 1.2 10.2v10.6h37.5c41 0 53.2-.9 64.3-4.6 4-1.3 7.5-2.4 7.7-2.4.3 0 .5 1.6.5 3.5v3.5H244l24.7-.1 7.4-11.7c8-12.6 9.9-15.2 11.3-15.2.4 0 .8 6.1.8 13.5v13.5h109v-11.3c.1-13-.5-13.1 9.3 2.2l5.8 9.1h86.8l.3-5.9.3-6 5.7 3.9c9.2 6.1 15.8 8.2 27.9 8.8 8.1.3 11.9 0 16.4-1.2 4.1-1.2 6.1-1.4 6.8-.7.8.8 25.6 1.1 80.4 1.1h79.3v-25h5.4c2.9 0 8.1-.3 11.4-.6l6.1-.7 1.5 3.4c.8 1.9 3.3 8.3 5.4 14.4l4 11 49.8.4c63.1.5 70.8.5 104.9 0l28-.4.3-2.8c.4-3 1.6-3 7.2-.2 6.1 3.1 18.1 4.8 29.4 4.2 10.6-.5 15.7-1.6 23.8-5.1 4.8-2 4.6-2.1 5 1.2l.3 2.7 27.3.3 27.2.2v-12.2c0-14.3-.5-14.4 9.5 1.4l6.7 10.8h45.8v-31h9.5l8.1-10.8c4.5-5.9 17.2-22.6 28.2-37.2l20.1-26.5-32.9-.3-33-.2v-31l-27.2.2-27.3.3-.5 10.5-.5 10.5-7.5-10.5-7.5-10.5h-46l-.3 2.8c-.3 2.3-.7 2.7-2 2.1-11.4-5-15.6-5.8-30.7-5.8-15.3 0-17.9.5-30.7 5.9-1.3.5-1.7 0-2-2.2l-.3-2.8-28-.3c-15.4-.2-33.2-.6-39.5-.9s-11.8-.2-12.2.2zm25.2 7c2.9 1 4.6 1.2 4.8.5.2-.6 8-1 22.3-1h21.9v5c0 2.7.3 5 .6 5s1.9-.9 3.4-2c4.9-3.5 13.5-6.8 22.1-8.6 14.2-2.9 29.6-.6 43.1 6.2 2.5 1.3 4.9 2.8 5.3 3.4 1.4 2.3 2.5.7 2.5-4v-5h37.8l10.4 14.7c5.7 8.2 11 14.8 11.8 14.8 1.3 0 1.5-2.5 1.8-14.8l.3-14.7h43.9v30h30c16.5 0 30 .2 30 .5s-9.5 13-21.1 28.3c-11.6 15.2-22.5 29.6-24.3 31.9-3 4.1-3.3 4.2-8.8 4.3h-5.8v30l-19.2-.2-19.2-.3-9.3-14.5c-7.4-11.6-9.8-14.6-11.8-14.8l-2.5-.3v30.1h-44v-5c0-2.8-.2-5-.5-5s-2.6 1.3-5.2 2.9c-2.7 1.6-8.4 4.2-12.8 5.7-7 2.5-9.5 2.8-20 2.8s-13-.3-20-2.8c-4.4-1.5-10.1-4.1-12.8-5.7-2.6-1.6-4.9-2.9-5.2-2.9s-.5 2.2-.5 5v5h-21.9c-14.3 0-22.1-.4-22.3-1-.2-.7-2-.5-4.8.6-7 2.7-23.9 2.4-31-.4-6.5-2.6-6-2.5-6-.7 0 1.3-3.1 1.5-22 1.5h-22l-.1-9.3-.1-9.2-2.9 9.3-3 9.2h-37.4l-5-14-5-14h-32.5v25h-97.8l-3.8-5.6-3.9-5.7-.3 5.7-.3 5.6h-42.9v-2.6c0-1.7-.4-2.4-1.2-2.1-9.8 4.3-14.7 5.8-21 6.3-17.3 1.5-33.9-6-42.7-19.3l-3.1-4.6V128.874h-39.7l-39.8-.1-8.1-12.7c-7.3-11.5-8.3-12.7-11.2-13l-3.2-.3v26.1h-99v-26h-10.6l-8.3 13-8.3 13h-41.8v-10.7l-7.8 3.8c-12.9 6.5-16.5 6.9-61.9 6.9h-40.3v-26h-2.9c-2.6 0-4 1.4-12.3 13l-9.3 13H62c-15.3 0-27.8-.2-27.8-.5s4-6.1 9-13l9-12.5-21-.2-20.9-.3 21.5-30c11.9-16.5 22.1-30.7 22.8-31.7 1.4-2 8.1-2.6 29.1-2.8l15-.1 11-15.7 11.1-15.7 32.4-.3c42.5-.4 52.8 1 65.9 8.8l5.1 2.9v-11.9l22.8.2 22.7.3.3 15.2c.2 11.3.6 15.3 1.5 15.3.6 0 5.8-7 11.4-15.5l10.3-15.5h92.6l10.4 15c5.7 8.3 10.8 14.9 11.4 14.7.7-.2 1.2-5.5 1.3-14.8l.1-14.4 62.1-.3 62.1-.2v14.3c0 14.2 0 14.4 2.3 14.3 2.1-.1 2.2-.4 2.7-14.1l.5-14h38.5c38.9 0 42.7.3 52.2 4 1.2.5 1.7 0 2-1.7l.3-2.3 30.5-.2c16.8-.2 44.6.1 61.9.5l31.4.7 5 13.2 5 13.3H776l4.4-13.3 4.5-13.2 28.1-.3c27.8-.2 28.2-.2 28.2 1.8s.1 2 3 .5c8.9-4.6 24.3-5.5 34-2z"
     fill="#293789"
     id="path2"
     style="fill:#e4150e;fill-opacity:1" />
  <path
     d="m 711.2,24.674 v 8.2 h 7 l -2.7,-7.3 c -1.4,-3.9 -3,-7.6 -3.5,-8.2 -0.4,-0.5 -0.8,2.7 -0.8,7.3 z m -120,26.8 v 17.7 l 9.8,-0.5 c 15.6,-0.8 22.8,-5.4 23.9,-15.3 0.7,-5.8 -1.1,-10.8 -5.2,-14.4 -4.5,-3.9 -9.1,-5.1 -19.7,-5.1 h -8.8 z m -422,16.3 v 34.1 h 7.8 c 22.2,-0.1 32.7,-5.1 38.8,-18.5 7.9,-17.5 0.4,-39.3 -16.1,-46.6 -4.1,-1.9 -7.3,-2.4 -17.7,-2.7 l -12.8,-0.4 z m -50.1,-8.9 -9.5,14.5 9.4,0.3 c 5.2,0.1 9.6,0.1 9.9,-0.1 0.2,-0.2 0.2,-6.9 0.1,-14.8 l -0.3,-14.4 z m 835.4,-24.1 c -10.2,3.5 -16.1,9.1 -21.1,19.9 -2.2,4.8 -2.6,7.2 -2.6,14.7 -0.1,8.1 0.2,9.7 3.1,15.7 3.8,8.1 9.7,14.2 17.2,17.7 4.8,2.2 7,2.6 14.6,2.6 8.2,0 9.7,-0.3 15.7,-3.3 7.8,-3.8 12,-8.2 16.1,-17 9.5,-20.3 -0.8,-44.5 -21.7,-50.7 -6.6,-2 -14.9,-1.8 -21.3,0.4 z m -99,-22.9 c -5.8,1.2 -12.2,4.6 -16.5,8.8 l -3.8,3.6 v -11.4 h -45.6 l -4.5,13.7 -4.5,13.8 -9.5,0.3 -9.5,0.3 -5.4,-14.1 -5.3,-14 h -16.3 c -9.3,0 -16.4,0.4 -16.4,0.9 0,0.5 1.8,6 4,12.1 2.2,6.1 4,11.6 4,12.1 0,0.5 -4.7,0.9 -10.5,0.9 h -10.5 v -26 h -67 v 5 c 0,2.7 -0.3,5 -0.6,5 -0.3,0 -2.1,-1.2 -3.9,-2.6 -1.9,-1.4 -5.8,-3.5 -8.7,-4.7 -5.1,-2.1 -7,-2.2 -43,-2.5 l -37.8,-0.3 v 28.1 h -17 v -28 H 415.3 l -0.3,14.2 -0.3,14.3 h -11.8 l -10,-14.3 -10,-14.2 h -86.7 l -10,15 -10,15 h -13.1 l 0.3,-15 0.3,-15 h -33.5 v 19.2 l -6,-5.5 c -3.2,-3 -8.4,-6.7 -11.4,-8.1 -10.8,-5.1 -15.2,-5.6 -53.6,-5.6 h -35.5 l -11,15.5 c -6,8.5 -11.6,15.6 -12.4,15.6 -0.9,0.1 -10.6,0.4 -21.5,0.8 l -20,0.6 -18.3,25.5 -18.2,25.5 20.4,0.3 c 11.3,0.1 20.5,0.5 20.5,0.8 0,0.3 -3.8,5.9 -8.5,12.5 -4.7,6.6 -8.5,12.2 -8.5,12.5 0,0.2 9.1,0.3 20.2,0.2 l 20.2,-0.3 9,-12.7 9.1,-12.7 7.8,-0.1 h 7.7 v 26.1 l 39.3,-0.3 c 34.4,-0.4 39.9,-0.6 44.7,-2.2 8.8,-2.9 14.9,-6.4 20.7,-11.8 l 5.3,-5.1 v 19.3 h 32 l 8.5,-13 8.5,-13 h 20 v 26 h 86 v -26 h 16.5 l 8.4,13 8.3,13 h 27.8 v -26 h 11 v 26 h 30 v -26 h 9.7 l 3.2,6.4 c 11.3,23 44.1,28.5 63.5,10.6 l 4.6,-4.3 v 13.3 h 30.9 l 0.3,-12.1 0.3,-12 8.5,12 8.5,12 44.3,0.1 h 44.2 v -25 H 748 l 1.6,4.2 c 0.9,2.4 3.2,8.6 5,13.8 l 3.4,9.5 h 28.6 l 4.5,-13.8 4.5,-13.7 h 8.6 v 28 h 31 v -9 l 5,3.4 c 7.3,5 14.1,7 23.5,7 8.8,-0.1 16.5,-2.5 22.6,-6.9 l 3.4,-2.6 0.3,4.1 0.3,4 h 30.9 v -18.2 l 4,3.6 c 11.5,10.4 25,15.8 39.5,16 5,0 11.5,-0.5 14.5,-1.3 8.3,-2 19,-7.6 25.4,-13.2 l 5.6,-5.1 v 18.2 h 31 v -30 h 7.8 l 7.7,0.1 9.4,14.9 9.5,15 h 27.5 l 0.3,-15.3 0.3,-15.2 7.7,-0.3 7.8,-0.3 19.1,-25.2 19.1,-25.2 -10.3,-0.6 c -5.7,-0.4 -17.9,-0.7 -27.1,-0.8 l -16.8,-0.1 v -30 h -31 v 30 h -12.5 l -10.5,-15 -10.5,-15 h -28.5 v 18.4 l -4.2,-4.1 c -10.6,-10.3 -24.4,-15.7 -40.3,-15.7 -15.9,0.1 -27.9,4.6 -39.3,14.9 l -5.2,4.7 v -18.2 h -31 v 4 c 0,2.2 -0.3,4 -0.6,4 -0.3,0 -2.1,-1.2 -3.9,-2.6 -7.2,-5.5 -20.8,-8.4 -30.2,-6.4 z m 16.9,9 c 8.8,2.5 17.2,12.8 18,22 l 0.3,3.5 -7.1,0.3 -7.1,0.3 -0.6,-3.9 c -2,-12.1 -19.5,-13.8 -24.1,-2.2 -2,5 -2,5.4 0,9.6 1.7,3.5 7.6,6.9 18.5,10.8 8.4,3 15.1,7.8 18.4,13 2.7,4.4 3,6 3.3,14 0.4,8.7 0.2,9.4 -3,15.6 -5.6,10.8 -14.9,15.6 -28.3,14.8 -7.9,-0.5 -13.5,-2.9 -18.6,-8 -3.7,-3.8 -7.4,-11.4 -8.4,-17.6 l -0.7,-4.2 h 14.9 l 0.6,4.2 c 1.1,8.2 7.6,13.2 16,12.5 8.9,-0.8 14.1,-7.1 13.4,-16.5 -0.5,-7.4 -3.3,-10 -16.5,-15.1 -19.5,-7.7 -24.7,-13.5 -24.7,-27.6 0,-9 1.9,-13.6 7.7,-19.2 6.8,-6.6 18,-9 28,-6.3 z m 106.9,0.6 c 14.1,4.2 25.4,13.8 31.7,27.1 3.7,7.7 3.7,7.9 3.7,20.8 v 13 l -3.9,8 c -8.7,17.9 -25.6,28.5 -45.1,28.5 -16.9,0 -32.1,-8.1 -41.4,-22.1 -18.6,-27.8 -4.1,-66.7 28,-75.3 7.3,-2 20.3,-2 27,0 z m -834.1,46.4 v 47 h -15.9 l -0.3,-13.3 -0.3,-13.2 -13.7,-0.3 -13.8,-0.3 -7.5,10.3 c -13.6,18.6 -11.3,16.8 -21.4,16.8 -4.8,0 -9,-0.3 -9.3,-0.6 -0.3,-0.3 6.7,-10.7 15.6,-23.2 8.9,-12.5 23.7,-33.4 33,-46.5 l 16.9,-23.7 h 16.7 z m 54.3,-45 c 13.9,3.5 22.1,10.3 28.3,23.3 11,23.3 2.9,52.2 -17.4,62.6 -8,4.1 -14.9,5.2 -35.4,5.8 l -19.8,0.6 v -94.3 h 18.3 c 15,0 19.8,0.4 26,2 z m 55.9,32.2 0.3,34.2 22.5,-34 22.5,-33.9 h 55 l 0.3,6.2 0.3,6.3 h -35.1 v 27 h 35.1 l -0.3,6.2 -0.3,6.3 -17.3,0.3 -17.3,0.2 0.3,13.8 0.3,13.7 17.3,0.3 17.3,0.2 -0.3,6.3 -0.3,6.2 h -47 l -0.5,-38.9 -0.5,-38.8 -25,38.8 -25,38.9 -9.1,0.3 -9.1,0.3 -0.8,-46 c -0.4,-25.3 -0.4,-46.4 0,-47 0.3,-0.6 3.9,-1.1 8.5,-1.1 h 8 z m 145.2,-2.1 22.1,31.6 0.3,-31.8 0.2,-31.9 h 14 v 94 h -13.7 l -22.9,-35.6 -22.9,-35.7 -0.5,35.4 -0.5,35.4 h -13 l -0.3,-46.8 -0.2,-46.8 7.6,0.3 7.7,0.3 z m 96.6,-25.6 v 6.5 h -18 l -0.2,40.2 -0.3,40.3 h -13 l -0.3,-40.3 -0.2,-40.2 h -18 v -13 h 50 z m 21.2,28.2 c 0.3,31.6 0.5,35.1 2.2,38.6 2.8,5.6 6.9,8.1 14.2,8.5 7.5,0.5 11.3,-1.2 15.2,-7 l 2.7,-4.1 0.3,-35.4 0.3,-35.3 h 14 l -0.3,36.2 c -0.3,35.5 -0.4,36.4 -2.6,41.3 -5,10.8 -13.9,16.6 -26.7,17.3 -6.6,0.3 -9.1,0 -13.9,-1.8 -7.5,-2.8 -13.7,-8.5 -16.7,-15.3 -2.4,-5.1 -2.4,-5.8 -2.7,-41.5 l -0.3,-36.2 h 14 z m 102,-32.8 c 6.2,2 12,7.1 15.3,13.6 2.7,5.2 3,6.8 3,14.9 0,8.2 -0.3,9.6 -3,14.5 -3.6,6.6 -7.9,9.9 -16.1,12.6 l -6.3,2 12.4,16.5 c 6.9,9.1 12.5,16.8 12.5,17.2 0,1.4 -15.8,0.9 -17.2,-0.5 -0.7,-0.8 -7.6,-10.2 -15.3,-21.1 l -14,-19.7 -0.5,20.8 -0.5,20.8 h -14 l -0.3,-45.5 c -0.1,-25 0,-46.1 0.3,-46.8 0.4,-1.1 4.4,-1.3 20.3,-0.9 11.2,0.2 21.3,0.9 23.4,1.6 z m 76.8,4.6 v 6.5 h -37 v 27 h 37 v 13 h -37.1 l 0.3,13.7 0.3,13.8 18.3,0.3 18.3,0.2 -0.3,6.3 -0.3,6.2 h -50 l -0.3,-46.8 -0.2,-46.7 h 51 z m 359.8,26.6 23.2,33.1 0.2,-32.9 0.3,-32.8 h 14 v 95.7 h -7.3 c -4.1,0 -7.5,-0.2 -7.6,-0.4 -0.2,-0.1 -10.6,-16.4 -23.2,-36.2 l -22.9,-35.9 -0.5,36.3 -0.5,36.2 h -14 l -0.3,-46.8 c -0.1,-25.8 0,-47.5 0.3,-48.2 0.3,-0.8 2.8,-1.2 7.8,-1.2 h 7.4 z m -298.4,3.1 c 7.2,19.1 13.4,34.4 13.7,34 0.4,-0.4 5.8,-16.1 12,-35 l 11.4,-34.2 h 7.7 c 4.3,0 7.8,0.3 7.8,0.7 0,0.5 -6.9,21.7 -15.3,47.3 l -15.3,46.5 h -16.9 l -2.7,-7.5 c -1.4,-4.1 -8.8,-24.6 -16.3,-45.5 -7.5,-20.9 -13.9,-38.8 -14.2,-39.8 -0.5,-1.6 0.1,-1.8 7.2,-1.5 l 7.7,0.3 z m 67.6,12.3 v 47.5 h -14 v -95 h 14 z m 87,0 v 47.5 h -15 v -95 h 15 z"
     fill="#e4150e"
     id="path3"
     style="display:inline;fill:#ffffff" />
</svg>
