<?xml version="1.0" encoding="UTF-8" standalone="no"?>
<!-- Created by ERK -->

<svg
   width="742.57446mm"
   height="182.00002mm"
   viewBox="0 0 742.57446 182.00002"
   version="1.1"
   id="svg1"
   inkscape:version="1.3.2 (091e20e, 2023-11-25, custom)"
   xml:space="preserve"
   sodipodi:docname="alawar.svg"
   xmlns:inkscape="http://www.inkscape.org/namespaces/inkscape"
   xmlns:sodipodi="http://sodipodi.sourceforge.net/DTD/sodipodi-0.dtd"
   xmlns="http://www.w3.org/2000/svg"
   xmlns:svg="http://www.w3.org/2000/svg"><sodipodi:namedview
     id="namedview1"
     pagecolor="#ffffff"
     bordercolor="#000000"
     borderopacity="0.25"
     inkscape:showpageshadow="2"
     inkscape:pageopacity="0.0"
     inkscape:pagecheckerboard="true"
     inkscape:deskcolor="#d1d1d1"
     inkscape:document-units="mm"
     inkscape:zoom="0.41179678"
     inkscape:cx="1814.0016"
     inkscape:cy="-372.75668"
     inkscape:window-width="2560"
     inkscape:window-height="1351"
     inkscape:window-x="-9"
     inkscape:window-y="-9"
     inkscape:window-maximized="1"
     inkscape:current-layer="svg1"
     showgrid="false" /><defs
     id="defs1"><marker
       id="DistanceX"
       orient="auto"
       refX="0"
       refY="0"
       style="overflow:visible"><path
         d="M 3,-3 -3,3 M 0,-5 V 5"
         style="stroke:#000000;stroke-width:0.5"
         id="path1" /></marker><pattern
       id="Hatch"
       patternUnits="userSpaceOnUse"
       width="8"
       height="8"
       x="0"
       y="0"><path
         d="M8 4 l-4,4"
         stroke="#000000"
         stroke-width="0.25"
         linecap="square"
         id="path2" /><path
         d="M6 2 l-4,4"
         stroke="#000000"
         stroke-width="0.25"
         linecap="square"
         id="path3" /><path
         d="M4 0 l-4,4"
         stroke="#000000"
         stroke-width="0.25"
         linecap="square"
         id="path4" /></pattern><symbol
       id="*Model_Space" /><symbol
       id="*Paper_Space" /><symbol
       id="*Paper_Space0" /></defs><g
     id="g1"
     inkscape:label="A"
     transform="translate(228.10097,-157.24477)"><path
       id="path22"
       style="display:inline;fill:#004d9c;fill-opacity:1;stroke:none;stroke-width:0.944827;stroke-linecap:round"
       d="m -45.100954,217.24481 c 0,-40 -19.99998,-60 -60.000406,-60.00004 h -62.99997 c -39.99961,4e-5 -59.99961,20.00004 -59.99964,60.00004 v 62.00003 c 3e-5,39.99996 20.00003,59.99996 59.99964,59.99995 h 62.99997 c 40.000426,10e-6 60.000406,-19.99999 59.999766,-59.99995 l -6.3e-4,-62.00003"
       sodipodi:nodetypes="ccccccccc"
       inkscape:label="Squace" /><path
       id="path5"
       style="display:inline;fill:#ffffff;fill-opacity:1;stroke:none;stroke-width:0.944827;stroke-linecap:round"
       d="m -189.70092,193.39488 v 24.65018 h 15.84658 l -18.74666,81.19969 h 31.25132 l 6.02444,-26.0997 h 44.34716 l 6.02703,26.0997 h 31.249766 l -23.30969,-105.84987 z m 47.09687,24.65018 h 18.90479 l 7.03006,30.44982 h -32.9644 z"
       inkscape:label="A" /></g><g
     id="g2"
     inkscape:label="Alawar"
     transform="translate(228.10097,-165.97242)"><path
       id="path99"
       style="fill:#004d9c;fill-opacity:1;stroke:none;stroke-width:0.944827;stroke-linecap:round;stroke-opacity:1"
       d="m 2.4722005,220.47233 v 17 H 13.401249 L 0.47232259,293.47253 H 22.025012 l 4.155302,-17.99994 h 30.58418 l 4.155302,17.99994 h 21.552689 l -16.075504,-73.0002 z m 32.4812215,17 h 13.037964 l 4.848283,21.00027 h -22.73453 z"
       inkscape:label="A" /><path
       id="path32"
       style="fill:#004d9c;fill-opacity:1;stroke:none;stroke-width:0.944827;stroke-linecap:round;stroke-opacity:1"
       d="M 139.47233,293.47252 H 91.472415 v -73.00013 h 20.999975 v 54.99999 h 26.99994 z"
       sodipodi:nodetypes="ccccccc"
       inkscape:label="L" /><path
       id="path44"
       style="display:inline;fill:#004d9c;fill-opacity:1;stroke:none;stroke-width:0.944827;stroke-linecap:round;stroke-opacity:1"
       d="m 193.49125,237.4724 4.84822,20.99998 h -22.73432 l 4.84823,-20.99998 h 13.03787 m 8.77305,37.99998 4.15555,18.00014 h 21.55216 l -16.07476,-73.00013 h -49.07147 l -16.85343,73.00013 h 21.55243 l 4.15554,-18.00014 z"
       sodipodi:nodetypes="cccccccccccccc"
       inkscape:label="A" /><path
       id="path60"
       style="display:inline;fill:#004d9c;fill-opacity:1;stroke:none;stroke-width:0.944827;stroke-linecap:round;stroke-opacity:1"
       d="m 317.69751,275.47238 13.20271,-54.99999 h 21.59794 l -17.526,73.00013 h -36.49927 l -8.94292,-45.99993 h -0.11642 l -8.94027,45.99993 h -36.50191 l -17.526,-73.00013 h 21.59793 l 13.20536,54.99999 h 1.10067 l 12.19464,-54.99999 h 29.85823 l 12.192,54.99999 z"
       sodipodi:nodetypes="ccccccccccccccccc"
       inkscape:label="W" /><path
       id="path72"
       style="fill:#004d9c;fill-opacity:1;stroke:none;stroke-width:0.944827;stroke-linecap:round;stroke-opacity:1"
       d="m 385.45466,237.4724 -4.84982,20.99998 h 22.73565 l -4.84981,-20.99998 z m 25.96621,56.00012 -4.15661,-18.00014 h -30.58319 l -4.1566,18.00014 h -21.55296 l 16.85396,-73.00013 h 49.07227 l 16.07344,73.00013 z"
       sodipodi:nodetypes="cccccccccccccc"
       inkscape:label="A" /><path
       d="m 440.47234,220.47233 v 73.0002 h 20.99975 V 276.148 c 6.60228,-0.1015 13.12116,-1.4909 19.19056,-4.09019 l 10.44536,21.41472 h 23.3655 l -16.44138,-33.70699 c 5.79809,-6.30392 9.90575,-13.97341 11.94036,-22.29321 l 5.2e-4,-17 z m 20.99975,17 h 28.00036 c -5.20131,11.01726 -15.86307,18.44253 -28.00036,19.5001 z"
       style="fill:#004d9c;fill-opacity:1;stroke:none;stroke-width:0.944827;stroke-linecap:round;stroke-opacity:1"
       id="path6"
       inkscape:label="R" /></g></svg>
