<svg height="256.202" viewBox="0 0 500 240.189" width="533.333" xmlns="http://www.w3.org/2000/svg">
    <linearGradient id="a" gradientUnits="userSpaceOnUse" x1="119.772" x2="421.392" y1="172.48" y2="172.48">
        <stop offset="0" stop-color="red"/>
        <stop offset=".262" stop-color="red"/>
        <stop offset=".354" stop-color="#ff7c00"/>
        <stop offset=".621" stop-color="#ff7c00"/>
        <stop offset=".759" stop-color="#ff0"/>
        <stop offset="1" stop-color="#ff0"/>
    </linearGradient>
    <path d="M74.984 190.602 50.19 170.886h34.953l19.12-34.356v34.356h54.371V0L0 240.19h46.305z"/>
    <path d="m105.667 196.876 10.545 31.365h42.421v-31.365z"/>
    <g fill="url(#a)" transform="matrix(1.30612 0 0 1.30612 -52.205 -41.582)">
        <path d="M421.392 165.396v-1.116l-265.332-.679-5.819 2.49zM421.392 169.195v-1.116l-274.157-.703-5.928 2.536zM421.392 172.99v-1.115l-282.984-.723-6.032 2.58zM421.392 176.79v-1.117l-291.812-.747-6.137 2.626zM120.519 181.359l300.873-.771v-1.116l-300.638-.77-.982.42z"/>
    </g>
    <path d="M186.158 121.161v45.826H170.66V87.44h20.931l6.633 36.63 6.949-36.63h19.386v79.548h-15.635v-45.826l-7.772 45.826h-6.95zM231.945 166.987V87.44h27.43v11.658H249.09v18.926h9.554v11.796h-9.554v25.737h10.285v11.431zM266.336 166.987V87.44h19.653c8.539 0 13.979.947 16.325 2.84 2.347 1.892 3.521 6.416 3.521 13.57v8.267c0 5.777-.58 9.64-1.738 11.585-1.16 1.945-6.283 3.445-9.317 4.498 2.936.827 8.035 2.188 9.244 4.082 1.207 1.895 1.811 4.833 1.811 8.81v25.896H289.23v-27.333c0-1.657-.275-2.776-.824-3.35-.548-.575-2.257-.863-3.774-.863h-1.015v31.546zm22.894-51.884v-11.736c0-2.128-.256-3.431-.763-3.913-.51-.481-1.546-.723-3.105-.723h-1.688v21.932c.216 0 .526.021.927.054.399.035.684.05.869.05 1.45 0 2.443-.23 2.97-.696.523-.463.79-1.346.79-2.649zM314.529 166.987h17.145V87.44h-17.145zM339.032 103.511c0-7.41 1.093-12.01 3.282-13.8s8.743-3.78 17.466-3.78c8.918 0 13.359 2.056 15.515 3.972s3.235 6.454 3.235 13.608v11.085h-17.28v-10.604c0-1.534-.195-2.574-.58-3.117-.389-.546-1.939-.817-3.003-.817-.806 0-1.372.238-1.692.72-.324.48-.486 1.55-.486 3.214v46.362c0 1.466.184 2.505.557 3.109.37.604 1.008.905 1.912.905.773 0 2.201-.228 2.639-.691.435-.461.653-1.106.653-1.935V133.11h17.28v17.723c0 7.328-1.112 11.945-3.331 13.849-2.222 1.901-6.57 3.979-15.292 3.979-8.82 0-15.444-2.1-17.615-4.053-2.174-1.95-3.26-6.543-3.26-13.775zM381.13 166.987l13.128-79.548h20.847l9.317 79.548h-14.804l-1.75-14.024h-8.854l-1.308 14.024zm20.503-28.527h5.425l-2.687-30.71zM428.15 166.987V87.44h15.986l8.563 32.608V87.439h14.95v79.548h-13.776l-10.912-38.986v38.986zM174.465 228.596v-23.38h-2.76l-.002 26.14h18.833v-2.76zM270.899 207.977v-2.76h-20.296v26.14H270.9v-2.761h-17.534v-9.063h16.909v-2.76h-16.909v-8.796zM437.209 207.977v-2.76h-20.294v26.14h20.294v-2.761h-17.534v-9.063h16.908v-2.76h-16.908v-8.796zM294.615 219.998c2.307-.665 3.962-2.418 3.962-4.49V210c0-2.64-2.686-4.784-5.998-4.784H275.28v26.14h2.76v-10.15h14.699c1.79 0 3.237 2.298 3.237 3.726v6.425h2.76v-6.838c0-2.115-1.734-3.89-4.121-4.521zm-2.036-1.555c-.119 0-9.707-.01-14.538 0v-10.487c4.674-.044 13.812-.122 14.538-.122 1.788 0 3.237 1.155 3.237 2.581v4.681c0 1.425-1.449 3.347-3.237 3.347zM206.841 205.216h-3.31l-12.274 26.14h3.049l2.55-5.43h16.66l2.55 5.43h3.05zm-8.69 17.95 7.036-14.984 7.034 14.984zM361.434 205.216h-3.312l-12.276 26.14h3.051l2.551-5.43h16.66l2.55 5.43h3.049zm-8.692 17.95 7.036-14.984 7.036 14.984zM245.666 212.736V210c0-2.64-2.685-4.784-5.997-4.784h-11.61c-3.312 0-5.997 2.145-5.997 4.784v5.068c0 2.642 2.685 4.782 5.998 4.782h11.609c1.788 0 3.237 1.157 3.237 2.583v3.579c0 1.428-1.449 2.584-3.237 2.584h-11.61c-1.788 0-3.237-1.156-3.237-2.584v-2.846h-2.76v3.408c0 2.64 2.685 4.783 5.998 4.783h11.609c3.312 0 5.997-2.143 5.997-4.783v-4.7c0-2.642-2.685-4.782-5.997-4.782h-11.61c-1.788 0-3.237-1.157-3.237-2.583v-3.948c0-1.426 1.45-2.584 3.238-2.584h11.609c1.788 0 3.237 1.158 3.237 2.584v2.175zM463.031 212.736V210c0-2.64-2.685-4.784-5.997-4.784h-11.61c-3.311 0-5.995 2.145-5.995 4.784v5.068c0 2.642 2.684 4.782 5.996 4.782h11.609c1.79 0 3.237 1.157 3.237 2.583v3.579c0 1.428-1.447 2.584-3.237 2.584h-11.61c-1.786 0-3.235-1.156-3.235-2.584v-2.846h-2.76v3.408c0 2.64 2.684 4.783 5.996 4.783h11.609c3.312 0 5.997-2.143 5.997-4.783v-4.7c0-2.642-2.685-4.782-5.997-4.782h-11.61c-1.786 0-3.235-1.157-3.235-2.583v-3.948c0-1.426 1.45-2.584 3.236-2.584h11.609c1.79 0 3.237 1.158 3.237 2.584v2.175zM342.711 212.736V210c0-2.64-2.685-4.784-5.997-4.784h-13.487c-3.314 0-5.997 2.145-5.997 4.784v16.574c0 2.64 2.683 4.783 5.997 4.783h13.487c3.312 0 5.997-2.143 5.997-4.783v-8.131h-13.404v2.76h10.644v4.809c0 1.428-1.449 2.584-3.237 2.584h-13.487c-1.79 0-3.239-1.156-3.239-2.584v-15.45c0-1.427 1.45-2.585 3.24-2.585h13.486c1.788 0 3.237 1.158 3.237 2.584v2.175zM405.607 205.216l-12.425 22.497-12.424-22.497h-4.22v26.067h2.76v-23.001l12.741 23.075h2.285l12.743-23.075v23.001h2.76v-26.067zM498.793 228.686v1.608c0 .625-.632 1.129-1.414 1.129h-3.655c-.782 0-1.414-.504-1.414-1.13v-6.749c0-.623.632-1.13 1.414-1.13h3.655c.782 0 1.414.507 1.414 1.13v.95H500V223.3c0-1.155-1.174-2.092-2.621-2.092h-3.655c-1.45 0-2.621.937-2.621 2.092v7.24c0 1.154 1.172 2.09 2.62 2.09h3.656c1.447 0 2.621-.936 2.621-2.09v-1.853zM475.717 232.63h1.206v-11.423h-1.206zM487.874 221.207v10.38l-6.477-10.38h-2.166v11.422h1.207v-10.68l6.666 10.68h1.975v-11.422zM468.124 228.457h-2.938v3.518h1.746l.098.384v1.564c0 .565-.571 1.02-1.28 1.02h-.747l-.754 1.095h1.5c1.312 0 2.375-.847 2.375-1.895z"/>
</svg>
