<?xml version="1.0" encoding="UTF-8" standalone="no"?>
<!-- Created by ERK -->

<svg
   version="1.1"
   id="Layer_1"
   x="0px"
   y="0px"
   viewBox="0 0 3839 569.8"
   style="enable-background:new 0 0 3839 569.8;"
   xml:space="preserve"
   sodipodi:docname="amigacd32-w.svg"
   inkscape:version="1.3.2 (091e20e, 2023-11-25, custom)"
   xmlns:inkscape="http://www.inkscape.org/namespaces/inkscape"
   xmlns:sodipodi="http://sodipodi.sourceforge.net/DTD/sodipodi-0.dtd"
   xmlns="http://www.w3.org/2000/svg"
   xmlns:svg="http://www.w3.org/2000/svg"><defs
   id="defs38">
	
	

			
			
		
			
			
		
			
			
		
			
			
		
			
			
		
			
			
		
			
			
		
			
			
			
		
				
			
				
			
				
				
			
					
					
				
					
				
					
					
				
					
					
				
						
						
					
						
						
					
						
						
						
						
						
					
							
							
						
							
							
						
							
							
						
							
							
						
							
							
						</defs><sodipodi:namedview
   id="namedview38"
   pagecolor="#ffffff"
   bordercolor="#000000"
   borderopacity="0.25"
   inkscape:showpageshadow="2"
   inkscape:pageopacity="0.0"
   inkscape:pagecheckerboard="true"
   inkscape:deskcolor="#d1d1d1"
   inkscape:zoom="0.47824954"
   inkscape:cx="1998.9564"
   inkscape:cy="398.32762"
   inkscape:window-width="2560"
   inkscape:window-height="1351"
   inkscape:window-x="-9"
   inkscape:window-y="-9"
   inkscape:window-maximized="1"
   inkscape:current-layer="Layer_1" />
<style
   type="text/css"
   id="style1">
	.st0{fill:#FFFFFF;}
	.st1{fill:#FF001F;}
</style>

<g
   id="g58"
   inkscape:label="AmigaCD32"
   style="display:inline">
		<path
   d="m 380.30078,103.59961 c -10.9,0.3 -18.80156,3.4 -23.60156,9 -5.1,6.1 -9.99922,13.20117 -15.19922,21.70117 L 149.80078,404 117.5,449.59961 c -6.4,9.8 -13.30039,18.70117 -20.900391,27.20117 -7.5,8.3 -17.20039,13.49844 -28.90039,15.39844 -6.7,0.6 -12.898828,1.80039 -18.798828,3.90039 -6,2.1 -9.1,6.90117 -9.5,14.70117 0.2,4.7 1.70039,7.69961 4.90039,9.09961 2.7,1.2 5.799219,1.79883 9.199219,1.79883 H 55 c 11.1,-0.2 22.399609,-0.79883 33.599609,-1.79883 11.4,-1.1 22.799611,-1.70078 34.099611,-1.80078 10.1,0.1 20.4,0.6 30.5,1.5 10.1,0.9 20.4,1.4 30.5,1.5 h 0.60156 c 4.4,0 8.59883,-1.09961 12.29883,-3.09961 3.9,-2 6.00117,-5.59961 6.20117,-10.59961 -0.7,-7.4 -5.1,-11.60039 -13.5,-12.90039 -8.4,-1.3 -16.70156,-2.80039 -25.10156,-4.90039 -8.3,-2 -12.8,-8.19961 -13.5,-18.09961 1.5,-10.7 8.60117,-26.00078 21.20117,-45.80078 12.6,-19.8 21.8,-33.69883 27.5,-41.79883 h 120 c 0.7,12.6 1.3,25.3 2,38 0.7,12.7 0.99961,25.5 1.09961,38 -0.7,17.5 -5.20078,27.90039 -13.80078,30.90039 -8.6,3 -17.09922,4.69961 -25.69922,5.09961 -8.5,0.4 -13.10078,5.40039 -13.80078,14.90039 0.1,4.2 1.30039,6.99961 3.90039,8.59961 2.3,1.5 5.30117,2.29883 8.70117,2.29883 h 0.59961 c 16.4,-0.2 33.09922,-0.79883 49.69922,-1.79883 16.6,-1.1 33.20117,-1.70078 49.70117,-1.80078 11,0.1 22.19922,0.50117 33.19922,1.20117 11,0.7 22.19922,1.09922 33.19922,1.19922 h 1.5 c 4.3,0 8.20039,-0.80039 11.40039,-2.40039 3.5,-1.6 5.39961,-5.30039 5.59961,-10.90039 -0.1,-4.8 -1.39961,-8.09844 -4.09961,-9.89844 -2.5,-1.6 -6.19883,-2.70117 -10.79883,-3.20117 -15.5,-2.5 -24.60156,-8.29961 -27.60156,-17.59961 -2.9,-9.2 -4.39922,-21.09961 -4.19922,-35.59961 l -15.59961,-299 c 0.1,-10.9 -0.99961,-19.79961 -3.09961,-27.09961 -2.1,-7.2 -9.1,-11.00117 -21,-11.20117 z m -66.5,112.09961 4.79883,139 h -100 z"
   style="display:inline;fill:#ff001f"
   id="path63"
   inkscape:label="A" /><path
   d="m 617.30078,117.40039 c -4.5,0 -8.90156,0.69883 -13.10156,1.79883 -4.7,1.5 -7.2,5.2 -7.5,11 1.9,9.4 9.40039,14.10156 22.40039,14.10156 h 0.40039 0.40039 c 13.1,0 20.50039,4.59961 22.40039,14.09961 -0.2,6.7 -1.50156,13.5 -4.10156,20.5 -2.6,7 -4.99883,13.49961 -7.29883,19.59961 -14.7,40.5 -29.20117,80.99961 -43.70117,121.59961 -14.6,40.6 -29.5,80.89961 -45,121.09961 -5.9,17.1 -11.49961,29.1 -17.09961,36 -5.6,6.8 -17.4,11.80039 -35.5,14.90039 -4.9,0.8 -9.39922,2.2 -13.19922,4.5 -3.8,2.1 -5.8,6.09961 -6,11.59961 0.2,4.9 1.99883,8.1 5.29883,9.5 2.9,1.2 6.2,1.90039 10,1.90039 h 1.5 c 10.4,-0.1 21.10117,-0.40039 31.70117,-0.90039 10.6,-0.5 21.29922,-0.79844 31.69922,-0.89844 9.8,0.1 19.60117,0.6 29.20117,1.5 9.6,0.9 19.29883,1.4 28.79883,1.5 4.4,0 8.70117,-1.00078 12.70117,-3.30078 4,-2.1 6.2,-5.90039 6.5,-10.90039 -0.7,-8.4 -5.2,-12.9 -14,-13.5 -8.7,-0.6 -17.3,-1.89922 -26,-4.19922 -8.6,-2.1 -13.3,-9.89961 -14,-23.09961 0.9,-18.9 7.6,-47.00117 20,-84.20117 12.4,-37.2 25.7,-73.19922 39.5,-108.19922 13.9,-35 23.19961,-58.49961 28.09961,-70.59961 L 668,488 c -0.2,8.9 0.80078,15.80039 2.80078,20.90039 2,5.1 7.89961,7.80039 17.59961,7.90039 9.9,-0.4 17.59883,-3.70117 23.29883,-10.20117 5.7,-6.5 10.90117,-13.6 15.70117,-21.5 L 918.80078,202.90039 855.19922,441.30078 c -2,10.2 -4.89922,20.6 -8.69922,31 -3.8,10.3 -11.4,16.79883 -22.5,19.29883 -6.5,0.5 -13.59922,1.50117 -21.69922,3.20117 -8,1.7 -12.30156,6.49883 -13.10156,14.79883 0.1,4.5 1.60156,7.6 4.60156,9.5 2.8,1.8 6.29883,2.70117 10.29883,2.70117 13.8,-0.2 27.80117,-1.00039 41.70117,-2.40039 13.9,-1.4 27.89922,-2.20039 41.69922,-2.40039 14.4,0.2 28.79961,1.00039 43.09961,2.40039 14.4,1.4 28.79961,2.20039 43.09961,2.40039 H 975 c 4.8,0 9.2,-1.00078 13,-2.80078 4.2,-2 6.49922,-5.79961 6.69922,-11.59961 -0.5,-7.2 -3.99883,-11.3 -10.79883,-12.5 -6.8,-1.1 -13.40117,-2.70078 -20.20117,-4.80078 -6.7,-2 -10.29883,-8.19961 -10.79883,-18.09961 0.1,-7.3 0.99961,-14.59922 2.59961,-22.19922 1.6,-7.5 3.30078,-14.70117 5.30078,-21.70117 L 1021.9004,183 c 2.2,-10.8 5.0004,-19.20078 8.4004,-25.30078 3.5,-6 10.8988,-9.69922 22.2988,-11.19922 6.1,-0.4 12.0012,-1.49922 17.7012,-3.69922 5.9,-1.7 8.8984,-6.10156 9.3984,-13.10156 -0.1,-3.9 -1.1996,-6.69844 -3.5996,-8.39844 -2.3,-1.6 -5.1,-2.5 -8.5,-2.5 H 1067 c -12.6,0.1 -25.3,0.39844 -38,0.89844 -12.7,0.5 -25.5,0.80039 -38,0.90039 -6.6,-0.3 -16.6,-0.69961 -30,-1.09961 -1.2,-0.1 -2.50078,-0.0996 -3.80078,-0.0996 -11.2,0 -18.89844,1.49922 -22.89844,4.69922 -0.9,1.2 -1.70039,2.70117 -2.40039,4.20117 -0.7,1.5 -1.60039,2.89922 -2.40039,4.19922 L 764.59961,381.69922 758,136.59961 c 0.3,-4.6 0.1,-8.7 -0.5,-12 -0.7,-3.4 -3.79922,-5.19883 -9.19922,-5.29883 -13.8,0.1 -27.80117,0.39883 -41.70117,0.79883 -6.2,0.2 -12.49922,0.30078 -18.69922,0.30078 -7.5,0 -15.20078,-0.2 -22.80078,-0.5 -7.8,-0.4 -15.49883,-0.9 -23.29883,-1.5 -7.7,-0.6 -15.30078,-0.9 -22.80078,-1 z"
   style="display:inline;fill:#ff001f"
   id="path67"
   inkscape:label="M" /><path
   d="m 1321.5996,116.09961 c -5.4,0 -10.6992,0.3 -15.6992,0.5 -5.3,0.5 -10.5004,1.00117 -15.9004,1.70117 -13.2,1.5 -26.7008,2.39922 -40.3008,2.69922 -13.6,0.3 -27.1992,0.40039 -40.6992,0.40039 -9.8,-0.1 -19.7996,-0.50117 -29.5996,-1.20117 -9.8,-0.7 -19.7996,-1.09922 -29.5996,-1.19922 -4.6,0 -8.9016,1.3 -12.6016,4 -3.7,2.5 -5.6984,6.39961 -5.8984,11.59961 1.6,8.5 7.7988,12.80078 18.2988,12.80078 0.7,0 1.3996,-0.0996 2.0996,-0.0996 h 1.8008 c 10.7,0 16.9996,5.3 18.5996,15.5 -0.1,3.1 -0.3996,6.19844 -1.0996,9.39844 -0.7,3.2 -1.6,6.30039 -2.5,9.40039 L 1093,443.40039 c -2.8,12.2 -6.0992,22.69883 -9.6992,31.79883 -3.5,8.9 -11.8,14.90039 -24.5,17.90039 -5.9,0.9 -12.7016,2.20078 -20.6016,4.30078 -7.8,2 -12.0984,6.49922 -12.8984,13.69922 0.2,4.2 1.6988,7.10039 4.7988,8.90039 2.9,1.7 6.0996,2.59961 9.5996,2.59961 h 0.6016 c 12.9,-0.2 25.9,-1.00039 39,-2.40039 13.1,-1.4 26.3,-2.19844 39.5,-2.39844 14.1,0.1 28.3,0.6 42.5,1.5 14.2,0.9 28.4,1.4 42.5,1.5 1.8,0.1 3.6992,0.19922 5.6992,0.19922 4.3,0 9.0992,-0.3 14.1992,-1 7.5,-0.9 11.6008,-5.00039 12.3008,-12.40039 -0.6,-7.6 -4.2996,-11.69922 -11.5996,-12.19922 -7.3,-0.4 -14.4012,-1.60039 -21.7012,-3.40039 -7.2,-1.9 -10.9996,-8.60078 -11.5996,-20.30078 0.1,-4.9 0.7004,-9.69922 1.9004,-14.69922 1.1,-5.1 2.4996,-9.89922 4.0996,-14.69922 l 75.5,-263 c 2.6,-10.8 6.0008,-18.70156 9.8008,-23.60156 3.9,-4.8 11.4,-8.3 22.5,-10.5 5.7,-0.7 11.6992,-2.19922 18.1992,-4.69922 6.4,-2.6 9.9,-6.90039 10.5,-13.40039 -0.1,-3.7 -1.2,-6.29922 -3.5,-8.19922 -2.3,-1.8 -5.2,-2.80078 -8.5,-2.80078 z"
   style="fill:#ff001f"
   id="path64"
   inkscape:label="I" /><path
   d="m 1644.6992,110.90039 c -1,0 -1.7992,0.0988 -2.1992,0.29883 -50.2,0.1 -102.6008,10.20039 -157.3008,30.40039 -54.8,20.2 -101.4,49.69961 -140,88.59961 -38.6,38.8 -58.7996,86.50117 -60.5996,142.70117 0.7,35.7 11.0004,65.2 30.9004,88.5 19.9,23.3 45.1004,40.7 75.4004,52 30.3,11.3 61.5996,17 93.5996,17 19.6,0 39.2004,-1.1 58.9004,-3.5 19.7,-2.2 39,-5.70117 58,-10.20117 7.3,-1.5 13.3996,-3.29961 18.5996,-5.59961 5.1,-2.3 9.1004,-6.89961 11.9004,-14.09961 5.2,-15.1 9.9996,-30.19922 14.0996,-45.69922 4,-15.5 8.4008,-30.80156 12.8008,-46.10156 7.3,-21.9 15.8992,-34.59844 25.6992,-38.39844 9.4,-3.6 17.7992,-5.40039 25.1992,-5.40039 h 1.2012 0.5 c 7.4,0 11.1996,-4.80039 11.5996,-14.40039 -0.2,-4.2 -1.7008,-7.10039 -4.8008,-8.90039 -2.8,-1.7 -6.0996,-2.59961 -9.5996,-2.59961 H 1708 c -15.1,0.2 -30,0.89961 -45,2.09961 -15.2,1.2 -30.2,1.99961 -45.5,2.09961 -14.4,-0.2 -28.7996,-0.79883 -43.0996,-1.79883 -14.4,-1.1 -28.7996,-1.70078 -43.0996,-1.80078 h -0.7012 c -4.5,0 -8.8996,0.90117 -13.0996,2.70117 -4.4,1.7 -6.7992,5.49961 -7.1992,11.09961 0.6,6.7 4.4984,10.49922 11.8984,11.19922 7.5,0.8 14.8008,2.20039 22.3008,4.40039 7.4,2.2 11.3004,8.79922 11.9004,19.69922 -0.6,11.3 -4.0008,26.70078 -10.3008,46.30078 -6.2,19.6 -11.4004,35.50078 -15.4004,47.30078 -2.4,9.3 -5.6,15.69961 -9.5,19.59961 -3.8,3.7 -10.3984,5.59961 -19.8984,5.59961 h -0.7012 c -35.1,-0.8 -61.6992,-12.09961 -79.6992,-34.09961 -17.9,-22 -26.9996,-50 -27.0996,-84 0.3,-31.3 6.8,-61.80117 19.5,-91.20117 12.7,-29.6 29.8988,-55.39883 51.7988,-77.79883 21.6,-21.6 48.3,-40.1 80,-55.5 31.7,-15.3 63.0008,-23.39961 93.8008,-24.09961 h 1.4004 c 13.9,0 22.4992,2.99961 25.6992,8.59961 3.3,5.8 4.6996,15.49961 4.0996,29.09961 -0.1,3.5 -0.2996,7.09922 -0.5996,10.69922 -0.4,3.5 -0.5996,7.10117 -0.5996,10.70117 -0.2,6 0.8,11.29922 3,16.19922 2.2,4.9 6.4992,7.50078 13.1992,7.80078 7.2,-0.6 12.7012,-4.10039 16.2012,-10.90039 3.6,-6.8 6.0988,-13.29961 7.7988,-19.59961 1.4,-4.5 4.8004,-14.60078 9.9004,-30.30078 5.1,-15.8 7.9996,-25.59961 8.5996,-29.59961 -0.9,-6.4 -7.4992,-10.99922 -19.6992,-13.69922 -12.2,-2.7 -25.2012,-4.30078 -38.7012,-4.80078 -11.2,-0.4 -19.4,-0.59961 -24.5,-0.59961 z"
   style="fill:#ff001f"
   id="path65"
   inkscape:label="G" /><path
   d="m 1984.9004,103.59961 c -10.9,0.3 -18.8012,3.40117 -23.7012,9.20117 C 1956.0992,118.90078 1951.2,126 1946,134.5 L 1754.4004,403.90039 1722.0996,449.5 c -6.4,9.8 -13.3004,18.69922 -20.9004,27.19922 -7.5,8.3 -17.1984,13.50039 -28.8984,15.40039 -6.7,0.6 -12.9008,1.80039 -18.8008,3.90039 -6,2.1 -9.1,6.89922 -9.5,14.69922 0.2,4.7 1.7004,7.70156 4.9004,9.10156 2.7,1.2 5.7992,1.79883 9.1992,1.79883 h 1.5 c 11.1,-0.2 22.3996,-0.79883 33.5996,-1.79883 11.4,-1.1 22.8016,-1.70078 34.1016,-1.80078 10.1,0.1 20.4,0.6 30.5,1.5 10.1,0.9 20.4,1.4 30.5,1.5 h 0.5996 c 4.4,0 8.5988,-1.09961 12.2988,-3.09961 3.9,-2 6.0012,-5.59961 6.2012,-10.59961 -0.7,-7.4 -5.1,-11.60039 -13.5,-12.90039 -8.4,-1.3 -16.7996,-2.80039 -25.0996,-4.90039 -8.3,-2 -12.8,-8.19961 -13.5,-18.09961 1.5,-10.7 8.5992,-26.00078 21.1992,-45.80078 12.6,-19.8 21.8,-33.69883 27.5,-41.79883 h 120 c 0.7,12.6 1.3,25.3 2,38 0.7,12.7 0.9996,25.5 1.0996,38 -0.7,17.5 -5.1988,27.79844 -13.7988,30.89844 -8.6,3 -17.1012,4.70156 -25.7012,5.10156 -8.5,0.4 -13.0988,5.39844 -13.7988,14.89844 0.1,4.2 1.2984,7.00156 3.8984,8.60156 2.3,1.5 5.3012,2.29883 8.7012,2.29883 H 1887 c 16.4,-0.2 33.0992,-0.79883 49.6992,-1.79883 16.6,-1.1 33.2012,-1.70078 49.7012,-1.80078 11,0.1 22.1992,0.49922 33.1992,1.19922 11,0.7 22.2012,1.10117 33.2012,1.20117 h 1.5 c 4.3,0 8.1984,-0.80039 11.3984,-2.40039 3.5,-1.5 5.4016,-5.20078 5.6016,-10.80078 -0.1,-4.8 -1.4016,-8.09844 -4.1016,-9.89844 -2.5,-1.6 -6.1988,-2.70117 -10.7988,-3.20117 -15.5,-2.5 -24.5996,-8.29961 -27.5996,-17.59961 -2.9,-9.2 -4.4012,-21.09961 -4.2012,-35.59961 l -15.5996,-299 c 0.1,-10.9 -0.9996,-19.79961 -3.0996,-27.09961 -2.1,-7.2 -9.1,-11.00117 -21,-11.20117 z m -66.5,112.09961 4.6992,139 h -100 z"
   style="fill:#ff001f"
   id="path66"
   inkscape:label="A" /><path
   d="m 2352,104.30078 c -62.1,0 -112.1992,50.29922 -112.1992,112.19922 v 199.59961 c 0,62.1 50.2992,112.20117 112.1992,112.20117 h 193.6992 c 62.1,0 112.2012,-50.30117 112.2012,-112.20117 v -48.5 H 2555.3008 V 393 c 0,18.2 -14.7004,32.90039 -32.9004,32.90039 h -147 C 2357.2004,425.90039 2342.5,411.2 2342.5,393 V 239.80078 c 0,-18.2 14.7004,-32.90039 32.9004,-32.90039 h 147 c 18.2,0 32.9004,14.70039 32.9004,32.90039 v 25.39844 h 102.5996 L 2657.5,215.80078 c -0.5,-61.7 -50.5992,-111.40039 -112.1992,-111.40039 z"
   style="display:inline;fill:#ffffff"
   id="path60"
   inkscape:label="C" /><path
   d="m 2686.4004,105.40039 v 424 h 45.0996 57.5 203.3008 c 62.2,0 112.4988,-50.4 112.2988,-112.5 l -0.5996,-199.5 c -0.2,-62 -50.4008,-112 -112.3008,-112 H 2789 2731.5 Z M 2789,208 h 180.1992 c 18.2,0 33,14.8 33,33 v 153 c 0,18.2 -14.8,33 -33,33 H 2789 Z"
   style="display:inline;fill:#ffffff"
   id="path59"
   inkscape:label="D" /><path
   d="m 3306.5996,39.300781 c -36.5,0 -78.3004,-7.81e-4 -114.4004,6.199219 -21.9,3.9 -43.2,14.600781 -49.5,37.800781 -3.1,11.8 -3.5,24.799999 -3.5,36.999999 V 134 h 76.4004 c 0,-8.3 -1.6004,-21.69961 5.0996,-27.59961 6.7,-6 19.4008,-6.30078 28.8008,-6.30078 h 3.1992 c 12.2,0 24.4016,-0.400391 36.6016,-0.400391 3.6,0 10.8988,-0.09961 19.7988,-0.09961 20.9,0 50.4012,0.800001 56.2012,6.000001 4.3,4.1 5.0996,9.09961 5.0996,14.59961 0,10.8 -2.4004,17.7 -13.4004,20.5 -11,2.8 -24.4004,2.80078 -35.4004,2.80078 h -60.6992 v 56.30078 c 6.9,-0.2 13.7996,-0.20117 20.5996,-0.20117 18.6,0 37.1008,0.4 55.8008,1 8.6,0.4 29.8984,-0.39922 35.3984,8.30078 2.8,3.7 2.8008,9.10039 2.8008,13.40039 0,24 -18.0992,22.79922 -38.1992,23.19922 -14.1,0.4 -28.3,0.80078 -42.5,0.80078 -12.2,0 -24.8,-0.40039 -37,-0.40039 h -7.2012 c -10,0 -24.2004,-0.50117 -29.4004,-4.70117 -7.5,-6.3 -6.2988,-17.3 -6.2988,-26 V 210.5 H 3138.5 c 0,23.6 -1.9992,60.29961 17.3008,77.59961 21.4,18.9 67.0992,20.09961 98.6992,20.09961 h 12.6992 c 25.3,0 50.0012,-0.39922 75.2012,-1.19922 20.1,-0.4 40.5988,-1.6 60.2988,-5.5 21.6,-4.3 41.7012,-15.39922 47.2012,-38.19922 2.3,-9.8 3.0992,-20.10078 3.1992,-29.80078 0,-24 -1.1988,-47.8 -26.7988,-57.5 -6.7,-2.7 -14.2008,-3.90039 -21.3008,-5.90039 33.8,-7.2 42.9004,-21.6 42.9004,-55.5 0,-18.200001 -1.6004,-40.600001 -15.4004,-54.000001 -19.7,-19.3 -51.2008,-19.7 -76.8008,-20.5 -16.4,-0.8 -32.5996,-0.798828 -49.0996,-0.798828 z"
   style="fill:#ff001f"
   id="path61"
   inkscape:label="3" /><path
   d="m 3632.4004,34.300781 c -16.7,0 -34,-0.0012 -51,0.798828 -1.2,0.1 -2.5996,0.101172 -4.0996,0.201172 C 3552.2008,36.500781 3514.4,38.2 3496,57.5 c -17.9,18.8 -17.9004,50.70039 -17.9004,71.90039 V 145 h 87.3008 v -13.5 -4.19922 c -0.1,-14.6 0.2996,-20.60039 12.0996,-22.40039 15.4,-2.6 31.6996,-2.90039 45.5996,-2.90039 4.6,0 9.4,0.0996 14,0.0996 4.5,0.1 9.1996,0.0996 13.5996,0.0996 1.7,0 3.8,-0.0996 6.5,-0.0996 4,-0.1 8.7004,-0.19922 13.9004,-0.19922 29.9,0 38.1,2.89922 40.5,4.69922 l 0.1,0.0996 c 4.3,2.9 4.6016,8.40039 4.6016,16.40039 0,11.5 -0.3012,14.3 -8.2012,17 -9,3.1 -19.2004,3.8 -28.9004,4.5 -2.9,0.2 -5.7996,0.40117 -8.5996,0.70117 l -99.2988,7.89844 c -18.9,1.6 -38.5016,3.70039 -54.6016,11.40039 -18.4,8.9 -29.1,23.6 -32.5,45 C 3480.8992,228.99961 3481,248.8 3481,268 v 5.80078 c 0,5.3 0.2004,10.59883 0.4004,15.79883 0.2,5.2 0.4004,10.40039 0.4004,15.40039 v 4.80078 h 323.0996 v -70 h -239.7012 c 0.3,-8.4 1.8,-12.40078 9.5,-15.30078 3.9,-1.4 14.5016,-2.79961 28.6016,-3.59961 l 0.7988,-0.0996 c 14.5,-1.1 29.3,-2.30156 44,-3.10156 9.5,-0.6 18.8012,-1.19883 28.2012,-1.79883 9.4,-0.6 18.6992,-1.20078 28.1992,-1.80078 23.7,-1.4 67.8996,-4.29961 84.0996,-30.09961 12.2,-19.2 12.2012,-42.19961 12.2012,-60.59961 0,-20.3 0,-51.099999 -16,-67.499999 -20.7,-21.2 -56.3008,-21.201172 -79.8008,-21.201172 l -65.0996,-0.398438 z"
   style="fill:#ff001f"
   id="path62"
   inkscape:label="2" />
		
	</g></svg>
