<?xml version="1.0" encoding="UTF-8" standalone="no"?>
<!-- Created by ERK -->

<svg
   viewBox="-64 344.8 601.131 131.201"
   xml:space="preserve"
   width="601.131"
   height="131.201"
   version="1.1"
   id="svg18"
   sodipodi:docname="amiga1200-w.svg"
   inkscape:version="1.3.2 (091e20e, 2023-11-25, custom)"
   xmlns:inkscape="http://www.inkscape.org/namespaces/inkscape"
   xmlns:sodipodi="http://sodipodi.sourceforge.net/DTD/sodipodi-0.dtd"
   xmlns="http://www.w3.org/2000/svg"
   xmlns:svg="http://www.w3.org/2000/svg"><defs
   id="defs18" /><sodipodi:namedview
   id="namedview18"
   pagecolor="#ffffff"
   bordercolor="#000000"
   borderopacity="0.25"
   inkscape:showpageshadow="2"
   inkscape:pageopacity="0.0"
   inkscape:pagecheckerboard="true"
   inkscape:deskcolor="#d1d1d1"
   inkscape:zoom="2.6678348"
   inkscape:cx="319.3601"
   inkscape:cy="73.2804"
   inkscape:window-width="2560"
   inkscape:window-height="1351"
   inkscape:window-x="-9"
   inkscape:window-y="-9"
   inkscape:window-maximized="1"
   inkscape:current-layer="svg18" />
    <path
   d="m -11.4,344.8 c -29.1,0 -52.6,23.6 -52.6,52.6 0,29.1 23.6,52.6 52.6,52.6 5.6,0 11,-0.9 16,-2.5 v -26.3 c -4.4,2.5 -9.5,4 -14.9,4 -16,0 -28.9,-12.5 -28.9,-27.8 0,-15.3 13,-27.8 28.9,-27.8 5.5,0 10.6,1.5 14.9,4 v -26.3 c -5,-1.6 -10.4,-2.5 -16,-2.5 z m 38.1,50.9 H 5.1 v -18.3 h 39.2 z"
   style="display:inline;fill:#3771c8;fill-opacity:1"
   transform="matrix(1.24716,0,0,1.24716,15.818,-85.22)"
   id="path1"
   inkscape:label="C" />
    <path
   style="fill:red"
   d="M26.7 399.4H5.1v18.3h39.2z"
   transform="matrix(1.24716 0 0 1.24716 15.818 -85.22)"
   id="path2"
   inkscape:label="dash" />
    <path
   d="m 110.6,391.1 c 5,0 9,-1.4 12.2,-4 3.2,-2.7 4.8,-6.4 4.9,-11.3 -0.1,-4.9 -1.7,-8.7 -4.9,-11.4 -3.2,-2.7 -7.2,-4 -12.2,-4 -5,0 -9,1.4 -12.2,4 -3.2,2.6 -4.8,6.5 -4.9,11.4 0.1,4.9 1.7,8.7 4.9,11.3 3.2,2.6 7.2,4 12.2,4 z m 0,-7.1 c -2.3,-0.1 -4,-0.9 -5.1,-2.5 -1.1,-1.6 -1.6,-3.5 -1.5,-5.8 0,-2.3 0.5,-4.2 1.5,-5.8 1,-1.6 2.7,-2.4 5.1,-2.5 2.3,0.1 4,0.9 5.1,2.5 1.1,1.6 1.6,3.5 1.5,5.8 0,2.2 -0.5,4.2 -1.5,5.8 -1.1,1.6 -2.8,2.4 -5.1,2.5 z m 21.2,6.4 H 142 V 378 c 0,-3.1 0.5,-5.5 1.5,-7 1,-1.5 2.4,-2.2 4.2,-2.2 1.4,0 2.5,0.6 3.1,1.7 0.6,1.1 1,2.5 1,4.2 v 15.8 H 162 v -12.4 c 0,-3.1 0.5,-5.5 1.5,-7 1,-1.5 2.4,-2.2 4.2,-2.2 1.4,0 2.5,0.6 3.1,1.7 0.6,1.1 1,2.5 1,4.2 v 15.8 H 182 v -17.3 c 0.1,-4 -0.6,-7.1 -2,-9.4 -1.4,-2.2 -4.2,-3.4 -8.4,-3.4 -2.1,0 -4.1,0.4 -5.9,1.3 -1.8,0.9 -3.3,2.3 -4.5,4.3 -0.8,-1.9 -2,-3.3 -3.6,-4.3 -1.6,-0.9 -3.5,-1.4 -5.6,-1.4 -2.3,0 -4.5,0.5 -6.3,1.5 -1.9,1 -3.3,2.5 -4.4,4.6 h -0.1 v -5.4 h -9.3 z m 55.7,0 h 10.2 V 378 c 0,-3.1 0.5,-5.5 1.5,-7 1,-1.5 2.4,-2.2 4.2,-2.2 1.4,0 2.5,0.6 3.1,1.7 0.6,1.1 1,2.5 1,4.2 v 15.8 h 10.2 v -12.4 c 0,-3.1 0.5,-5.5 1.5,-7 1,-1.5 2.4,-2.2 4.2,-2.2 1.4,0 2.5,0.6 3.1,1.7 0.6,1.1 1,2.5 1,4.2 v 15.8 h 10.2 v -17.3 c 0.1,-4 -0.6,-7.1 -2,-9.4 -1.4,-2.2 -4.2,-3.4 -8.4,-3.4 -2.1,0 -4.1,0.4 -5.9,1.3 -1.8,0.9 -3.3,2.3 -4.5,4.3 -0.8,-1.9 -2,-3.3 -3.6,-4.3 -1.6,-0.9 -3.5,-1.4 -5.6,-1.4 -2.3,0 -4.5,0.5 -6.3,1.5 -1.9,1 -3.3,2.5 -4.4,4.6 h -0.1 v -5.4 h -9.3 z m 71.3,0.7 c 5,0 9,-1.4 12.2,-4 3.2,-2.7 4.8,-6.4 4.9,-11.3 -0.1,-4.9 -1.7,-8.7 -4.9,-11.4 -3.2,-2.7 -7.2,-4 -12.2,-4 -5,0 -9,1.4 -12.2,4 -3.2,2.6 -4.8,6.5 -4.9,11.4 0.1,4.9 1.7,8.7 4.9,11.3 3.2,2.6 7.3,4 12.2,4 z m 0,-7.1 c -2.3,-0.1 -4,-0.9 -5.1,-2.5 -1.1,-1.6 -1.6,-3.5 -1.5,-5.8 0,-2.3 0.5,-4.2 1.5,-5.8 1,-1.6 2.7,-2.4 5.1,-2.5 2.3,0.1 4,0.9 5.1,2.5 1.1,1.6 1.6,3.5 1.5,5.8 0,2.2 -0.5,4.2 -1.5,5.8 -1.1,1.6 -2.7,2.4 -5.1,2.5 z m 52.9,-35.9 h -10.2 v 16.7 h -0.1 c -1.3,-1.7 -2.8,-2.8 -4.5,-3.5 -1.7,-0.7 -3.6,-1 -5.6,-1 -4.1,0.2 -7.2,1.7 -9.3,4.7 -2.1,3 -3.2,6.4 -3.2,10.1 0,4.5 1.2,8.2 3.4,11.2 2.3,3 5.6,4.6 10,4.7 2.4,0 4.5,-0.6 6.3,-1.7 1.8,-1.1 3.1,-2.5 3.8,-4.2 h 0.1 v 5.3 h 9.4 z m -22.6,27.3 c 0,-2 0.5,-3.7 1.6,-5.1 1.1,-1.4 2.6,-2.1 4.6,-2.2 1.9,0 3.4,0.8 4.5,2.2 1.1,1.4 1.7,3.2 1.7,5.5 0,2.2 -0.7,4 -1.8,5.4 -1.1,1.4 -2.6,2.1 -4.4,2.1 -1.9,0 -3.4,-0.8 -4.5,-2.2 -1.1,-1.4 -1.7,-3.3 -1.7,-5.7 z m 43.5,15.7 c 5,0 9,-1.4 12.2,-4 3.2,-2.7 4.8,-6.4 4.9,-11.3 -0.1,-4.9 -1.7,-8.7 -4.9,-11.4 -3.2,-2.7 -7.2,-4 -12.2,-4 -5,0 -9,1.4 -12.2,4 -3.2,2.7 -4.8,6.5 -4.9,11.4 0.1,4.9 1.7,8.7 4.9,11.3 3.2,2.6 7.3,4 12.2,4 z m 0,-7.1 c -2.3,-0.1 -4,-0.9 -5.1,-2.5 -1,-1.6 -1.6,-3.5 -1.5,-5.8 0,-2.3 0.5,-4.2 1.5,-5.8 1,-1.6 2.7,-2.4 5.1,-2.5 2.3,0.1 4,0.9 5.1,2.5 1,1.6 1.6,3.5 1.5,5.8 0,2.2 -0.5,4.2 -1.5,5.8 -1,1.6 -2.7,2.4 -5.1,2.5 z m 42.8,-23.3 c -0.5,-0.1 -1.1,-0.2 -1.7,-0.2 -0.6,-0.1 -1.2,-0.1 -1.8,-0.1 -2.2,0 -4,0.6 -5.3,1.7 -1.4,1.1 -2.5,2.6 -3.4,4.4 h -0.1 v -5.4 h -9.3 v 29.4 H 364 v -12.4 c 0,-2.9 0.6,-5.2 1.9,-6.8 1.3,-1.6 3.1,-2.4 5.5,-2.4 h 1.7 c 0.6,0 1.1,0.1 1.7,0.3 z m 31.9,18 v -1.9 c 0.1,-4.5 -1.1,-8.4 -3.3,-11.5 -2.3,-3.2 -6.1,-4.8 -11.5,-5 -4.7,0 -8.4,1.4 -11.3,4 -2.9,2.7 -4.4,6.4 -4.4,11.3 0.1,4.9 1.7,8.7 4.9,11.3 3.2,2.7 7.2,4 12.2,4.1 1.9,0 3.8,-0.1 5.6,-0.4 1.8,-0.3 3.6,-0.8 5.2,-1.4 V 382 c -1.5,0.8 -3.1,1.4 -4.6,1.7 -1.5,0.4 -3,0.5 -4.4,0.5 -2.5,0 -4.5,-0.4 -6,-1.3 -1.5,-0.9 -2.4,-2.3 -2.7,-4.3 z m -20.5,-5.8 c 0.1,-1.7 0.6,-3.2 1.5,-4.3 0.9,-1.2 2.3,-1.8 4.1,-1.8 2,0 3.5,0.6 4.3,1.8 0.9,1.2 1.3,2.6 1.3,4.3 z m -315,17.8 c -4.4,-1.2 -7.8,-3.2 -10.6,-6.3 -2.8,-3.1 -4.1,-5.9 -4.9,-10.9 -1.5,-9.8 2.7,-18.8 10.8,-22.7 4.1,-2 9.6,-3 15.1,-3 3.4,0 6.4,0.6 9.2,1.1 l -0.9,8.8 c 0,0 -0.7,-0.2 -2.7,-0.7 -1.9,-0.5 -3.8,-0.7 -5.7,-0.7 -3.8,0 -7.5,1 -9.9,2.9 -5.7,4.4 -5.7,15.9 0.2,20.7 3.6,3 10.1,4 15.9,2.5 l 2.7,-0.7 0.8,8.9 c -1.7,0.4 -5.3,1.1 -9.7,1.1 -5.8,0 -7.6,-0.2 -10.3,-1 z M 49,395.8 h 369 v 3 H 49 Z"
   style="display:inline;fill:#3771c8;fill-opacity:1"
   transform="matrix(1.24716,0,0,1.24716,15.818,-85.22)"
   id="path3"
   inkscape:label="Commodore" />
    <path
   d="m 104.7,443.9 c 0,-0.5 -0.1,-0.9 -0.4,-1 -0.3,-0.2 -0.6,-0.3 -1.1,-0.3 -1.6,-0.3 -2.5,-0.9 -2.8,-1.8 -0.3,-1 -0.4,-2.2 -0.4,-3.7 l -1.6,-30.8 c 0,-1.1 -0.1,-2 -0.3,-2.8 -0.2,-0.7 -0.9,-1.1 -2.2,-1.2 -1.1,0 -1.9,0.4 -2.4,1 -0.5,0.6 -1,1.4 -1.6,2.2 l -19.8,27.8 -3.3,4.7 c -0.7,1 -1.4,1.9 -2.1,2.8 -0.8,0.9 -1.8,1.4 -3,1.6 -0.7,0.1 -1.3,0.2 -1.9,0.4 -0.6,0.2 -0.9,0.7 -1,1.5 0,0.5 0.2,0.8 0.5,0.9 0.3,0.1 0.7,0.2 1.1,0.2 1.1,0 2.3,-0.1 3.5,-0.2 1.2,-0.1 2.3,-0.2 3.5,-0.2 1.1,0 2.1,0.1 3.1,0.2 1,0.1 2.1,0.1 3.1,0.2 0.5,0 0.9,-0.1 1.3,-0.3 0.4,-0.2 0.6,-0.6 0.6,-1.1 -0.1,-0.8 -0.5,-1.2 -1.4,-1.3 -0.9,-0.1 -1.7,-0.3 -2.6,-0.5 -0.9,-0.2 -1.3,-0.8 -1.4,-1.9 0.2,-1.1 0.9,-2.7 2.2,-4.7 1.3,-2 2.2,-3.5 2.8,-4.3 h 12.3 c 0.1,1.3 0.1,2.6 0.2,3.9 0.1,1.3 0.1,2.6 0.1,3.9 -0.1,1.8 -0.5,2.9 -1.4,3.2 -0.9,0.3 -1.8,0.5 -2.6,0.5 -0.9,0 -1.4,0.6 -1.4,1.5 0,0.4 0.1,0.7 0.4,0.9 0.3,0.2 0.6,0.2 1,0.2 1.7,0 3.4,-0.1 5.1,-0.2 1.7,-0.1 3.4,-0.2 5.1,-0.2 1.1,0 2.3,0.1 3.4,0.1 1.1,0.1 2.3,0.1 3.4,0.1 0.5,0 1,-0.1 1.3,-0.2 0.5,-0.2 0.7,-0.5 0.7,-1.1 z M 89.5,428.2 H 79.2 L 89,413.9 Z m 104.6,-23.5 c 0,-0.4 -0.1,-0.6 -0.4,-0.8 -0.2,-0.2 -0.5,-0.3 -0.9,-0.3 -0.6,0 -1.1,0 -1.6,0.1 -0.5,0 -1.1,0.1 -1.6,0.2 -1.4,0.1 -2.7,0.2 -4.1,0.3 h -4.2 c -1,0 -2,-0.1 -3.1,-0.1 -1,-0.1 -2,-0.1 -3.1,-0.1 -0.5,0 -0.9,0.1 -1.3,0.4 -0.4,0.3 -0.6,0.7 -0.6,1.2 0.2,0.9 0.9,1.4 2.1,1.3 1.2,-0.1 1.9,0.5 2.1,1.6 0,0.3 0,0.6 -0.1,1 -0.1,0.3 -0.2,0.6 -0.3,1 l -7.8,27 c -0.3,1.3 -0.6,2.4 -1,3.3 -0.4,0.9 -1.2,1.5 -2.5,1.8 -0.6,0.1 -1.3,0.2 -2.1,0.4 -0.8,0.2 -1.3,0.7 -1.3,1.4 0,0.4 0.2,0.7 0.5,0.9 0.3,0.2 0.7,0.3 1.1,0.3 1.3,0 2.7,-0.1 4,-0.2 1.4,-0.1 2.7,-0.2 4.1,-0.2 1.5,0 2.9,0.1 4.4,0.2 1.5,0.1 2.9,0.1 4.4,0.2 0.6,0 1.3,0 2.1,-0.1 0.8,-0.1 1.2,-0.5 1.3,-1.3 -0.1,-0.8 -0.5,-1.2 -1.2,-1.3 -0.7,-0.1 -1.5,-0.2 -2.2,-0.4 -0.7,-0.2 -1.1,-0.9 -1.2,-2.1 0,-0.5 0.1,-1 0.2,-1.5 0.1,-0.5 0.3,-1 0.4,-1.5 l 7.8,-27.1 c 0.3,-1.1 0.6,-1.9 1,-2.4 0.4,-0.5 1.2,-0.9 2.3,-1.1 0.6,-0.1 1.2,-0.2 1.9,-0.5 0.5,-0.5 0.8,-0.9 0.9,-1.6 z m 40.6,0.3 c -0.1,-0.7 -0.8,-1.1 -2,-1.4 -1.3,-0.3 -2.6,-0.4 -4,-0.5 -1.4,-0.1 -2.3,-0.1 -2.8,-0.1 -5.2,0 -10.6,1.1 -16.2,3.1 -5.6,2.1 -10.4,5.1 -14.4,9.1 -4,4 -6.1,8.9 -6.2,14.7 0.1,3.7 1.1,6.7 3.2,9.1 2.1,2.4 4.6,4.2 7.8,5.4 3.1,1.2 6.3,1.8 9.7,1.8 2,0 4,-0.1 6.1,-0.4 2,-0.2 4,-0.6 6,-1.1 0.7,-0.1 1.4,-0.3 1.9,-0.6 0.5,-0.2 0.9,-0.7 1.2,-1.5 0.5,-1.5 1,-3.1 1.5,-4.7 0.5,-1.6 0.9,-3.2 1.3,-4.7 0.7,-2.2 1.6,-3.6 2.6,-4 1,-0.4 1.9,-0.6 2.7,-0.6 0.8,0 1.2,-0.5 1.2,-1.5 0,-0.4 -0.2,-0.7 -0.5,-0.9 -0.3,-0.2 -0.7,-0.3 -1,-0.3 -1.5,0 -3.1,0.1 -4.6,0.2 -1.6,0.1 -3.1,0.2 -4.7,0.2 -1.5,0 -3,-0.1 -4.4,-0.2 -1.5,-0.1 -3,-0.2 -4.4,-0.2 -0.5,0 -1,0.1 -1.4,0.3 -0.5,0.2 -0.7,0.6 -0.7,1.1 0.1,0.7 0.5,1.1 1.2,1.2 0.8,0.1 1.5,0.2 2.3,0.5 0.8,0.2 1.2,0.9 1.2,2 -0.1,1.2 -0.4,2.7 -1.1,4.8 -0.6,2 -1.2,3.6 -1.6,4.9 -0.2,0.9 -0.6,1.6 -1,2 -0.4,0.4 -1.1,0.6 -2.1,0.6 -3.6,-0.1 -6.4,-1.2 -8.2,-3.5 -1.9,-2.3 -2.8,-5.1 -2.8,-8.6 0,-3.2 0.7,-6.4 2,-9.4 1.3,-3 3.1,-5.7 5.3,-8 2.2,-2.2 5,-4.1 8.2,-5.7 3.3,-1.6 6.5,-2.4 9.7,-2.5 1.5,0 2.4,0.3 2.8,0.9 0.3,0.6 0.5,1.6 0.4,3 0,0.4 0,0.7 -0.1,1.1 0,0.4 -0.1,0.7 -0.1,1.1 0,0.6 0.1,1.2 0.3,1.7 0.2,0.5 0.7,0.8 1.4,0.8 0.8,-0.1 1.3,-0.4 1.7,-1.1 0.4,-0.7 0.6,-1.4 0.8,-2 0.2,-0.5 0.5,-1.5 1,-3.1 0.4,-1.6 0.7,-2.6 0.8,-3 z m 35.4,38.9 c 0,-0.5 -0.1,-0.9 -0.4,-1 -0.3,-0.2 -0.6,-0.3 -1.1,-0.3 -1.6,-0.3 -2.5,-0.9 -2.8,-1.8 -0.3,-1 -0.4,-2.2 -0.4,-3.7 l -1.6,-30.8 c 0,-1.1 -0.1,-2 -0.3,-2.8 -0.2,-0.7 -0.9,-1.1 -2.2,-1.2 -1.1,0 -1.9,0.4 -2.4,1 -0.5,0.6 -1,1.4 -1.6,2.2 l -19.8,27.8 -3.3,4.7 c -0.7,1 -1.4,1.9 -2.1,2.8 -0.8,0.9 -1.8,1.4 -3,1.6 -0.7,0.1 -1.3,0.2 -1.9,0.4 -0.6,0.2 -0.9,0.7 -1,1.5 0,0.5 0.2,0.8 0.5,0.9 0.3,0.1 0.7,0.2 1.1,0.2 1.1,0 2.3,-0.1 3.5,-0.2 1.2,-0.1 2.3,-0.2 3.5,-0.2 1.1,0 2.1,0.1 3.1,0.2 1.1,0.1 2.1,0.1 3.1,0.2 0.5,0 0.9,-0.1 1.3,-0.3 0.4,-0.2 0.6,-0.6 0.6,-1.1 -0.1,-0.8 -0.5,-1.2 -1.4,-1.3 -0.9,-0.1 -1.7,-0.3 -2.6,-0.5 -0.9,-0.2 -1.3,-0.8 -1.4,-1.9 0.2,-1.1 0.9,-2.7 2.2,-4.7 1.3,-2 2.2,-3.5 2.8,-4.3 h 12.4 c 0.1,1.3 0.1,2.6 0.2,3.9 0.1,1.3 0.1,2.6 0.1,3.9 -0.1,1.8 -0.5,2.9 -1.4,3.2 -0.9,0.3 -1.8,0.5 -2.6,0.5 -0.9,0 -1.4,0.6 -1.4,1.5 0,0.4 0.1,0.7 0.4,0.9 0.3,0.2 0.6,0.2 1,0.2 1.7,0 3.4,-0.1 5.1,-0.2 1.7,-0.1 3.4,-0.2 5.1,-0.2 1.1,0 2.3,0.1 3.4,0.1 1.1,0.1 2.3,0.1 3.4,0.1 0.5,0 1,-0.1 1.3,-0.2 0.4,-0.2 0.6,-0.5 0.6,-1.1 z m -15.3,-15.7 h -10.3 l 9.8,-14.3 z m -86.9,-23.3 c 0,-0.4 -0.1,-0.7 -0.4,-0.9 -0.2,-0.2 -0.5,-0.3 -0.9,-0.3 -1.3,0 -2.6,0 -3.9,0.1 -1.3,0.1 -2.6,0.1 -3.9,0.1 -0.7,0 -1.7,-0.1 -3.1,-0.1 -1.4,0 -2.3,0.1 -2.8,0.5 -0.1,0.1 -0.2,0.3 -0.2,0.4 -0.1,0.2 -0.2,0.3 -0.2,0.4 l -17,25.7 -0.7,-25.3 c 0,-0.5 0,-0.9 -0.1,-1.2 -0.1,-0.4 -0.4,-0.5 -0.9,-0.6 -1.4,0 -2.9,0 -4.3,0.1 h -4.3 c -0.8,0 -1.6,-0.1 -2.4,-0.1 -0.8,-0.1 -1.6,-0.1 -2.4,-0.1 -0.5,0 -1,0.1 -1.5,0.2 -0.5,0.2 -0.7,0.5 -0.8,1.1 0.2,1 1,1.5 2.3,1.4 1.4,0 2.1,0.5 2.3,1.4 0,0.7 -0.2,1.4 -0.4,2.1 -0.3,0.7 -0.5,1.4 -0.7,2 -1.5,4.2 -3,8.3 -4.5,12.5 -1.5,4.2 -3,8.3 -4.6,12.5 -0.6,1.8 -1.2,3 -1.8,3.7 -0.6,0.7 -1.8,1.2 -3.7,1.5 -0.5,0.1 -1,0.2 -1.4,0.5 -0.4,0.2 -0.6,0.6 -0.6,1.2 0,0.5 0.2,0.8 0.5,1 0.3,0.1 0.7,0.2 1.2,0.2 1.1,0 2.2,0 3.3,-0.1 1.1,-0.1 2.2,-0.1 3.3,-0.1 1,0 2,0.1 3,0.2 1,0.1 2,0.1 3,0.2 0.5,0 0.9,-0.1 1.3,-0.3 0.4,-0.2 0.6,-0.6 0.7,-1.1 -0.1,-0.9 -0.5,-1.3 -1.4,-1.4 -0.9,-0.1 -1.8,-0.2 -2.7,-0.4 -0.9,-0.2 -1.4,-1 -1.4,-2.4 0.1,-1.9 0.8,-4.8 2.1,-8.7 1.3,-3.8 2.6,-7.6 4.1,-11.2 1.4,-3.6 2.4,-6 2.9,-7.3 l 0.7,29.4 c 0,0.9 0.1,1.6 0.3,2.2 0.2,0.5 0.8,0.8 1.8,0.8 1,0 1.8,-0.4 2.4,-1.1 0.6,-0.7 1.1,-1.4 1.6,-2.2 l 19.8,-29.1 -6.5,24.6 c -0.2,1.1 -0.5,2.1 -0.9,3.2 -0.4,1.1 -1.2,1.7 -2.3,2 -0.7,0 -1.4,0.2 -2.2,0.3 -0.8,0.2 -1.3,0.7 -1.4,1.5 0,0.5 0.2,0.8 0.5,1 0.3,0.2 0.7,0.3 1.1,0.3 1.4,0 2.9,-0.1 4.3,-0.2 1.4,-0.1 2.9,-0.2 4.3,-0.2 1.5,0 3,0.1 4.4,0.2 1.5,0.1 3,0.2 4.4,0.2 0.6,0 1,-0.1 1.5,-0.3 0.4,-0.2 0.7,-0.6 0.7,-1.2 -0.1,-0.7 -0.4,-1.2 -1.1,-1.3 -0.7,-0.1 -1.4,-0.3 -2.1,-0.5 -0.7,-0.2 -1.1,-0.8 -1.1,-1.9 0,-0.7 0.1,-1.5 0.3,-2.3 0.2,-0.8 0.3,-1.5 0.5,-2.2 l 6.3,-25.3 c 0.2,-1.1 0.5,-2 0.9,-2.6 0.4,-0.6 1.1,-1 2.3,-1.2 0.6,0 1.2,-0.2 1.8,-0.4 0.3,0.1 0.7,-0.3 0.7,-1.1 z"
   style="display:inline;fill:#ff0000"
   transform="matrix(1.24716,0,0,1.24716,15.818,-85.22)"
   id="path4"
   inkscape:label="Amiga" />
    
    
    
    
    
    
    
    
    
    
    
    
    
    
<g
   id="g45"
   inkscape:label="1200"
   style="fill:#3771c8;fill-opacity:1"><path
     id="path36"
     style="display:inline;fill:#3771c8;fill-opacity:1"
     inkscape:label="1"
     d="m 287.40014,402.40057 -4.79997,3.09923 -0.20046,11.4009 3.90105,-2.501 -0.10022,31.70015 10.59908,-0.10023 v -43.59905 z"
     transform="matrix(1.24716,0,0,1.24716,15.818,-85.22)"
     sodipodi:nodetypes="cccccccc" /><path
     id="path38"
     style="display:inline;fill:#3771c8;fill-opacity:1"
     inkscape:label="2"
     d="m 317.42304,402.4084 c -2.16602,0.0107 -4.32375,0.41699 -6.32375,1.29199 -2.9,1.2 -5.19982,3.29957 -6.79982,5.99957 -1.6,2.7 -2.29986,6.00059 -1.99986,9.20059 0.3,3.6 1.80017,6.79949 4.20017,9.39949 l 1.89963,2.10008 6.20002,-8.40034 -1.49872,-1.40005 c -0.8,-0.7 -0.90002,-2.50014 -0.70002,-3.50014 0.2,-1.6 1.09965,-3.09949 2.59965,-3.89949 2,-1.1 5.29937,-1.10062 6.59937,1.09938 2,3.2 -0.29897,6.50036 -2.29897,9.10036 -1.1,1.4 -2.30014,2.79994 -3.50014,4.09994 l -16.3011,18.7003 h 32.29995 v -10.00085 h -9.99928 c 1.5,-1.7 3.00039,-3.39886 4.30039,-4.99886 2.2,-2.5 4.3,-5.30056 5.5,-8.50056 1.4,-3.8 1.49912,-6.79908 0.29912,-10.59908 -1.5,-4.6 -5.89909,-8.30082 -10.59909,-9.30082 -1.275,-0.2625 -2.57795,-0.39796 -3.87755,-0.39151 z"
     transform="matrix(1.24716,0,0,1.24716,15.818,-85.22)"
     sodipodi:nodetypes="scsccccccccccccccccccs" /><path
     id="path40"
     style="display:inline;fill:#3771c8;fill-opacity:1"
     inkscape:label="0"
     d="m 352.10026,401.89943 c -5.1,0 -9.20093,2.10002 -12.10093,6.20002 -3.2,4.5 -4.09994,10.39996 -4.09994,15.79996 0,5.5 0.89994,11.30019 4.09994,15.90019 2.9,4.1 7.00093,6.30025 12.10093,6.30025 5,0 9.09914,-2.10002 11.99914,-6.20002 3.2,-4.5 4.09994,-10.19951 4.09994,-15.59951 0.1,-5.4 -0.79972,-11.40064 -3.99972,-16.10064 -2.9,-4.2 -6.99936,-6.30025 -12.09936,-6.30025 z m 0,10.50042 c 1.3,0 2.79903,0.89943 3.69903,2.49943 1.2,2.1 1.70074,5.50059 1.70074,9.20059 0.1,3.2 -0.1996,6.80013 -1.1996,9.00013 -1,2.1 -2.59994,2.69989 -4.09994,2.69989 -1.6,0 -2.99972,-0.29966 -3.99972,-2.59966 -0.9,-2.1 -1.50028,-6.00036 -1.50028,-9.10036 0,-3.8 0.39917,-7.49994 1.69917,-9.59994 0.9,-1.5 2.5006,-2.10008 3.7006,-2.10008 z"
     transform="matrix(1.24716,0,0,1.24716,15.818,-85.22)"
     sodipodi:nodetypes="scscscccsscccscscs" /><path
     id="path45"
     style="display:inline;fill:#3771c8;fill-opacity:1;stroke-width:1.24716"
     inkscape:label="0"
     d="m 498.34608,416.01289 c -6.36052,0 -11.47503,2.61906 -15.0918,7.73242 -3.99091,5.61222 -5.11328,12.97041 -5.11328,19.70508 0,6.85938 1.12237,14.09314 5.11328,19.83008 3.61677,5.11336 8.73128,7.85742 15.0918,7.85742 6.2358,0 11.34808,-2.61906 14.96484,-7.73242 3.99092,-5.61222 5.11329,-12.72042 5.11329,-19.45508 0.12471,-6.73467 -0.99738,-14.21843 -4.9883,-20.08008 -3.61676,-5.23807 -8.72932,-7.85742 -15.08983,-7.85742 z m 0,13.09571 c 1.62131,0 3.49084,1.12173 4.61328,3.11719 1.49659,2.61903 2.12109,6.86011 2.12109,11.4746 0.12472,3.99092 -0.24893,8.48085 -1.49609,11.22461 -1.24716,2.61903 -3.24254,3.36719 -5.11328,3.36719 -1.99546,0 -3.74113,-0.37372 -4.98829,-3.24219 -1.12244,-2.61904 -1.87109,-7.48341 -1.87109,-11.34961 0,-4.7392 0.49783,-9.35362 2.11914,-11.97266 1.12244,-1.87074 3.11865,-2.61913 4.61524,-2.61913 z"
     sodipodi:nodetypes="scscscccsscccscscs" /></g></svg>
