<svg viewBox="0 0 185.272 93.245" width="308.786" height="155.408" xmlns="http://www.w3.org/2000/svg">
    <path d="M19.35 2.346C23.927.581 28.898.173 33.769.013c1.004-.064 1.993.133 2.994.155 2.85.273 5.69.702 8.477 1.358 4.707 1.07 9.18 2.955 13.43 5.176a76.82 75.096 0 0 1 6.939 4.113c.776.544 1.52 1.134 2.31 1.658 3.087 2.25 5.925 4.811 8.602 7.51.225.21.424.537.785.473 2.747-.071 5.51.297 8.128 1.114 2.416.785 4.77 2.151 6.13 4.317 1.49 2.303 1.708 5.116 1.773 7.77.002 4.66.002 9.32 0 13.98.006.527-.048 1.063.09 1.58 1.564 6.251 2.032 12.846.692 19.179-1.08 5.43-3.581 10.624-7.378 14.745-4.02 4.424-9.485 7.504-15.335 8.949-5.144 1.303-10.548 1.437-15.794.733-6.739-.89-13.23-3.156-19.222-6.262-9.705-5.085-18.107-12.452-24.542-21.171C6.4 57.966 2.38 49.444.756 40.414c-.354-2.025-.618-4.07-.672-6.127a20.303 19.848 0 0 1-.003-3.575c.234-6.582 2.245-13.2 6.265-18.534 1.104-1.21 2.076-2.536 3.294-3.643a30.76 30.07 0 0 1 9.71-6.189ZM29.073.735c-5.935.67-11.76 3.013-16.133 7.046-.76.529-1.287 1.287-1.92 1.94-1.827 2.02-3.27 4.348-4.402 6.802-1.28 2.966-2.13 6.116-2.449 9.32-.188.81-.07 1.65-.209 2.468-.225 5.715.76 11.447 2.589 16.875 2.08 6.175 5.209 11.993 9.046 17.295 5.908 8.08 13.442 15.043 22.165 20.158 5.526 3.23 11.551 5.693 17.862 6.995 4.481.913 9.115 1.2 13.662.637 5.398-.66 10.675-2.701 14.845-6.152 3.483-2.835 6.141-6.589 7.765-10.718 1.727-4.317 2.322-9 2.234-13.613-.148-2.268-.299-4.55-.79-6.776-.012.933-.084 1.86-.169 2.787-.283 2.688-1.028 5.5-3.01 7.488-1.477 1.57-3.456 2.656-5.578 3.134-3.257.764-6.628.529-9.948.569-4.973-.003-9.945.001-14.919-.002-.014-15.512-.01-31.022-.003-46.534 5.305.002 10.61-.001 15.915.002a74.308 72.641 0 0 0-12.658-10.417C54.898 4.834 45.607 1.152 35.895.526c-2.276-.117-4.56-.068-6.822.209Zm44.124 28.722c-.004 9.596 0 19.193-.002 28.79 1.215.015 2.43.014 3.646.003.854-.066 1.83-.171 2.402-.873.709-.884.618-2.07.635-3.127.003-7.066.01-14.134-.004-21.2.02-1-.076-2.059-.712-2.886-.615-.472-1.39-.68-2.161-.698-1.268-.025-2.536 0-3.804-.01z" style="fill:#fff;stroke-width:.843321"/>
    <path d="M33.916 19.739c1.718-.102 3.45-.3 5.168-.08a22.99 22.99 0 0 1 6.09 1.017c2.59.782 5.085 2.16 6.733 4.308 1.391 1.827 1.888 4.138 1.977 6.372.008 2.088.006 4.177 0 6.265-4.356.013-8.714-.013-13.073.013-.12-1.524-.02-3.061-.05-4.589-.036-.96.09-1.997-.416-2.865-.418-.857-1.426-1.262-2.347-1.316-1.03-.064-2.16-.02-3.019.61-.787.571-1.11 1.577-1.069 2.507.002 7.987-.004 15.975.002 23.963-.02.71.246 1.398.692 1.954 1.02.831 2.424.923 3.689.767.755-.13 1.575-.441 1.967-1.13.6-.926.461-2.074.5-3.119-.01-1.543.015-3.086-.014-4.627 4.434.01 8.868.004 13.3.002-.064 3.182.23 6.412-.485 9.545a9.536 9.536 0 0 1-4.299 5.924c-3.142 1.96-6.974 2.459-10.627 2.552-1.097.135-2.196-.043-3.295-.046-3.456-.2-7.07-.704-10.004-2.64a9.93 9.93 0 0 1-3.805-4.445c-.816-1.823-.986-3.843-.97-5.81.002-6.452 0-12.904.002-19.357.017-2.027-.103-4.075.284-6.076.323-2.785 1.916-5.406 4.31-6.958 2.568-1.742 5.695-2.428 8.76-2.741zm60.996.71c11.206.019 22.412-.001 33.618.01.002 2.964.002 5.928 0 8.893-3.19.006-6.383.006-9.574-.002-.171.042-.569-.096-.563.177-.005 12.491.01 24.982-.004 37.471-4.468-.009-8.936.004-13.403-.005-.026-12.538.019-25.076-.024-37.614-3.359-.055-6.72-.007-10.078-.025-.056-2.042-.006-4.087-.022-6.13.03-.924-.058-1.852.05-2.775zm35.038.01c4.37-.008 8.74.001 13.11-.004 1.487 10.647 2.98 21.294 4.465 31.94.17 1.184.3 2.376.518 3.552 1.736-11.82 3.34-23.665 5.062-35.49 4.434.001 8.868-.008 13.304.004-.709 3.18-1.274 6.39-1.927 9.58-2.468 12.315-4.866 24.645-7.358 36.957-6.089-.01-12.178.012-18.268-.011-2.844-14.982-5.764-29.95-8.637-44.926-.096-.534-.236-1.06-.27-1.603zm24.922 54.743c1.394-.774 3.31-.698 4.511.397.455.463.735 1.051.942 1.655-.515.128-1.026.274-1.546.378-.15-.476-.341-1.02-.84-1.238-.554-.32-1.215-.28-1.818-.159-.949.434-1.475 1.454-1.484 2.45-.042.937.11 2.009.879 2.658.55.504 1.38.605 2.09.425.703-.243 1.14-.888 1.374-1.55.504.196 1 .41 1.506.601-.08.134-.155.27-.228.407-.517 1.208-1.786 2.05-3.12 2.095-1.095.09-2.236-.269-3.016-1.036-.89-.91-1.266-2.206-1.212-3.445-.031-1.423.69-2.9 1.962-3.638zm-42.82-.318a95.313 95.313 0 0 1 1.55.004c.01 2.749.005 5.498.003 8.245-.518.01-1.035.008-1.553.004-.007-2.75-.005-5.502 0-8.253zm3.473.002c.451-.002.902-.002 1.355-.015 1.308 1.881 2.46 3.865 3.763 5.748a6.547 6.547 0 0 0-.044-1.149c-.079-1.235-.013-2.477-.127-3.71-.017-.297.028-.592.065-.886.47.015.943.015 1.416-.005.104.397.065.808.069 1.214 0 2.353-.005 4.706.002 7.058-.46-.025-.944.056-1.385-.042-1.261-1.856-2.378-3.806-3.663-5.646.054 1.893.088 3.787.099 5.681-.519.008-1.035.008-1.553 0-.004-2.749-.01-5.499.004-8.248zm7.709.017c2.077-.002 4.156-.017 6.236.005 0 .475-.002.95-.008 1.425-.777.004-1.552.003-2.326.007-.004 2.264.004 4.527-.004 6.792-.52.01-1.04.01-1.558.004-.015-2.265 0-4.529-.008-6.793-.774-.017-1.548.005-2.322-.015-.01-.476-.012-.951-.01-1.425zm7.368-.015c1.987-.004 3.976-.013 5.964.003.004.474.004.953-.008 1.43-1.47-.007-2.937.002-4.406-.004-.002.633 0 1.267-.004 1.9 1.356.026 2.715-.007 4.07.02 0 .436-.001.872-.01 1.308-1.353.01-2.705-.003-4.056.008-.002.72 0 1.442-.004 2.164 1.574.034 3.148-.01 4.722.038 0 .458-.002.919-.004 1.378a710.06 710.06 0 0 1-6.262.002c-.014-2.75-.01-5.498-.003-8.247zm7.438.004c1.08-.014 2.161-.004 3.245-.013.825-.012 1.699.217 2.299.797.82.881.972 2.354.222 3.32-.293.38-.731.609-1.146.833.579 1.115 1.274 2.171 1.81 3.308-.579.004-1.155-.005-1.733.01-.629-.976-1.094-2.04-1.688-3.034a11.363 11.363 0 0 0-1.378-.042c-.011 1.02-.002 2.04-.004 3.059-.544.012-1.086.012-1.629.002.001-2.747.004-5.494.001-8.24zm1.624 1.37c-.002.855.01 1.71-.01 2.564.737.052 1.475-.057 2.204-.155.867-.25 1.149-1.49.443-2.055-.734-.596-1.767-.32-2.638-.353zm8.098-1.387c.553.01 1.108.016 1.663-.006.223.325.332.706.457 1.074.81 2.408 1.693 4.79 2.495 7.2a59.415 59.415 0 0 0-1.635.005c-.239-.513-.33-1.074-.53-1.599-1.045-.003-2.089 0-3.133-.003-.193.522-.336 1.06-.501 1.591-.57.004-1.138.006-1.704-.009 1.002-2.736 1.876-5.518 2.888-8.253zm-.258 5.28a189.72 189.72 0 0 1 2.276.001c-.354-1.212-.722-2.42-1.106-3.623-.495 1.165-.791 2.413-1.17 3.622zm13.429-5.257c2.048 0 4.096.009 6.144-.008.077.481.05.968-.006 1.451-.76-.013-1.52-.006-2.279-.003.02 2.264-.004 4.526.013 6.792-.54.013-1.08.012-1.619.006-.006-2.267.002-4.533-.004-6.8-.75-.003-1.5-.003-2.247 0-.004-.48-.004-.959-.003-1.438zm7.395-.014c.515-.001 1.033-.001 1.551.002-.002 2.749.004 5.498-.004 8.247-.517.009-1.035.01-1.553.003-.003-2.751-.012-5.501.005-8.252zm2.636 0c.528-.001 1.058.002 1.588-.007.7 2.12 1.195 4.311 1.925 6.421.485-1.72.973-3.439 1.46-5.157.138-.427.19-.886.427-1.274.519.02 1.037.015 1.56.024-.818 2.747-1.607 5.502-2.42 8.251-.702-.009-1.403-.003-2.103-.004-.8-2.753-1.71-5.482-2.437-8.254zm8.038-.005c1.975.015 3.953-.005 5.928.008.005.452.005.902.02 1.354-.398.126-.821.068-1.23.075-1.075-.002-2.15-.002-3.224.003 0 .626.006 1.253-.006 1.88 1.35.063 2.702.009 4.054.029.006.444.031.89-.022 1.334-1.34-.03-2.678-.004-4.018-.015-.002.738-.046 1.478.034 2.215 1.553-.053 3.107.01 4.662-.03.026.468.025.938.01 1.409-2.078-.006-4.157.003-6.234-.004.035-2.754-.025-5.505.026-8.258zm-66.948 9.506c.769-.011 1.535-.01 2.305.003.531 1.998 1.028 4.01 1.633 5.988.55-1.994 1.076-3.996 1.604-5.997.764.003 1.527-.005 2.293.01.002 2.748 0 5.499 0 8.247-.518 0-1.034.002-1.55.003-.01-2.182.077-4.36.13-6.54-.65 2.161-1.215 4.347-1.776 6.533-.48.009-.96.009-1.44 0-.578-2.167-1.147-4.335-1.758-6.492-.115 1.054.095 2.105.033 3.16.077 1.111.055 2.224.084 3.338-.519 0-1.038 0-1.556-.003-.011-2.75-.011-5.501-.002-8.25zm10.1.001c.536-.007 1.068-.009 1.603-.009-.002 1.692-.01 3.384-.002 5.076.03.476-.004 1.032.391 1.384.52.516 1.331.536 2.016.41.65-.11 1.209-.691 1.166-1.355-.004-1.834-.01-3.671-.004-5.506.55-.009 1.098-.009 1.647-.001a798.957 798.957 0 0 0-.002 5.363c.006.76-.205 1.567-.772 2.116-.715.724-1.785.99-2.787.965-.976-.004-2.042-.3-2.646-1.102-.518-.523-.61-1.289-.619-1.983.009-1.786-.005-3.572.009-5.358zm9.228-.005c.514-.006 1.03-.003 1.544.009.004 2.27.008 4.54 0 6.813 1.103.003 2.206.003 3.31.001.008.477.008.954 0 1.433-1.624.006-3.247-.01-4.87.01.033-2.755.001-5.511.016-8.266zm4.815.004c2.062-.002 4.125-.002 6.187 0 .002.472.002.944.002 1.418-.764.017-1.526-.01-2.288.013 0 2.077-.007 4.154.01 6.233-.005.2-.026.4-.065.598-.519-.014-1.036-.01-1.554-.01-.018-2.277.013-4.553-.015-6.83-.755-.042-1.51.016-2.264-.019-.03-.468-.007-.936-.013-1.404zm7.805.001c.531-.007 1.063-.009 1.594-.004-.004 2.753.049 5.512-.028 8.264-.522-.01-1.044-.01-1.564-.01-.01-2.75-.004-5.5-.002-8.25zm3.888-.005c.762 0 1.523-.004 2.285.005.48 1.985 1.102 3.936 1.546 5.93.228-.1.198-.381.278-.572.459-1.794.948-3.582 1.429-5.37.76.013 1.521 0 2.284.012-.002 2.749 0 5.498 0 8.247-.513.006-1.025.006-1.534.01-.029-2.186.055-4.371.097-6.556-.614 2.175-1.223 4.35-1.764 6.543-.478.011-.955.013-1.432.004-.573-2.163-1.2-4.316-1.725-6.493-.154 2.165.091 4.326.086 6.493-.52.004-1.04.004-1.559.004.01-2.752 0-5.504.01-8.258zm10.08.001c1.982-.005 3.963-.001 5.945-.001.002.46.006.923.028 1.384-1.466-.004-2.935-.028-4.4.018-.039.633-.025 1.267-.018 1.904 1.356.04 2.719-.059 4.073.05-.01.414-.011.828-.006 1.245-1.356.01-2.71-.009-4.064.011-.017.73-.008 1.46-.01 2.191 1.57.004 3.14-.004 4.71.002.006.485.006.968.004 1.452-2.086-.002-4.172.002-6.259 0-.01-2.752-.006-5.504-.003-8.256zm7.743.01c1.08-.015 2.16 0 3.24-.011.99-.011 2.013.293 2.731.982.964.997 1.285 2.448 1.164 3.783-.125.986-.476 2.016-1.287 2.665-.801.68-1.911.827-2.933.83-.973-.02-1.947.026-2.919-.03.002-2.739.007-5.48.004-8.22zm1.64 1.41c-.003 1.791.003 3.584-.001 5.377.93-.007 1.927.134 2.797-.262.749-.34.983-1.21 1.015-1.949.06-.92-.041-1.973-.763-2.645-.861-.692-2.02-.513-3.047-.522zm7.33-1.417a42.95 42.95 0 0 1 1.605.003c-.006 2.747-.002 5.493-.002 8.24-.507.011-1.015.007-1.52.022a1.513 1.513 0 0 1-.087-.44c.003-2.608.008-5.215.004-7.825zm5.951-.006c.588.003 1.175 0 1.766.002.947 2.756 1.917 5.505 2.872 8.258a69.05 69.05 0 0 0-1.66.004c-.206-.54-.334-1.101-.536-1.639-1.035.004-2.068-.02-3.1.018-.19.537-.347 1.084-.537 1.621-.565-.01-1.128-.004-1.691-.015.987-2.74 1.902-5.508 2.886-8.25zm-.24 5.258c.754-.002 1.508.005 2.264-.003-.36-1.22-.714-2.442-1.122-3.645-.447 1.19-.78 2.428-1.142 3.648z" style="fill:#fff;stroke-width:.843321"/>
</svg>
