<?xml version="1.0" encoding="UTF-8" standalone="no"?>
<svg
   xmlns:dc="http://purl.org/dc/elements/1.1/"
   xmlns:cc="http://creativecommons.org/ns#"
   xmlns:rdf="http://www.w3.org/1999/02/22-rdf-syntax-ns#"
   xmlns:svg="http://www.w3.org/2000/svg"
   xmlns="http://www.w3.org/2000/svg"
   xmlns:sodipodi="http://sodipodi.sourceforge.net/DTD/sodipodi-0.dtd"
   xmlns:inkscape="http://www.inkscape.org/namespaces/inkscape"
   viewBox="0 0 217.214 111.831"
   version="1.1"
   id="svg6"
   sodipodi:docname="amigacdtv.svg"
   inkscape:version="0.92.4 (5da689c313, 2019-01-14)">
  <metadata
     id="metadata12">
    <rdf:RDF>
      <cc:Work
         rdf:about="">
        <dc:format>image/svg+xml</dc:format>
        <dc:type
           rdf:resource="http://purl.org/dc/dcmitype/StillImage" />
        <dc:title></dc:title>
      </cc:Work>
    </rdf:RDF>
  </metadata>
  <defs
     id="defs10" />
  <sodipodi:namedview
     pagecolor="#ffffff"
     bordercolor="#666666"
     borderopacity="1"
     objecttolerance="10"
     gridtolerance="10"
     guidetolerance="10"
     inkscape:pageopacity="0"
     inkscape:pageshadow="2"
     inkscape:window-width="640"
     inkscape:window-height="480"
     id="namedview8"
     showgrid="false"
     inkscape:zoom="1.7218043"
     inkscape:cx="4.9366819"
     inkscape:cy="55.915501"
     inkscape:current-layer="svg6" />
  <path
     d="m 36.772453,9.8965545 c 4.576885,-1.7651725 9.548683,-2.1737385 14.41898,-2.3338298 1.004765,-0.06337 1.993324,0.1334093 2.994678,0.1550884 2.849678,0.2734891 5.689974,0.7020667 8.476535,1.3582739 4.707384,1.07061 9.179358,2.955017 13.429566,5.176282 a 76.81934,75.096121 0 0 1 6.939534,4.113177 c 0.776177,0.543643 1.519942,1.133979 2.31062,1.657611 3.086795,2.249616 5.924532,4.811075 8.601063,7.510946 0.225177,0.209286 0.424765,0.536139 0.785559,0.471936 2.746472,-0.07087 5.509142,0.297669 8.127672,1.113968 2.41639,0.785448 4.77051,2.151225 6.1301,4.31746 1.49008,2.302979 1.70845,5.115415 1.77326,7.77026 0.002,4.660155 0.002,9.319477 0,13.979632 0.006,0.526967 -0.0486,1.063106 0.0896,1.580067 1.56429,6.251062 2.03255,12.845653 0.69174,19.178427 -1.07983,5.430594 -3.58066,10.624387 -7.37796,14.745068 -4.01905,4.424188 -9.484704,7.504276 -15.335031,8.949269 -5.143278,1.30324 -10.547516,1.43665 -15.793961,0.73292 C 66.296177,99.483432 59.804438,97.21714 53.812522,94.111203 44.107752,89.02664 35.706276,81.659109 29.270831,72.939974 23.823092,65.516578 19.802325,56.994222 18.178325,47.964077 17.824354,45.938756 17.560794,43.893424 17.507059,41.837253 a 20.303424,19.847975 0 0 1 -0.0035,-3.575371 c 0.234559,-6.58125 2.244943,-13.199186 6.26571,-18.533893 1.103706,-1.209022 2.075208,-2.535612 3.293208,-3.642909 a 30.759636,30.069632 0 0 1 9.709976,-6.1885255 z m 9.723536,-1.6117517 c -5.935621,0.6712158 -11.760361,3.0133832 -16.133392,7.0465152 -0.759118,0.528634 -1.287089,1.286566 -1.919119,1.939437 -1.827855,2.020318 -3.271032,4.348311 -4.402886,6.80221 -1.279412,2.965856 -2.129795,6.115984 -2.448795,9.319476 -0.1885,0.811296 -0.0708,1.650107 -0.208971,2.468906 -0.225176,5.714924 0.760824,11.447356 2.588678,16.874615 2.079472,6.175186 5.208915,11.993501 9.0463,17.295688 5.907474,8.079603 13.442361,15.042737 22.164543,20.157318 5.526209,3.230174 11.551389,5.693244 17.862305,6.994819 4.481355,0.913854 9.115387,1.19985 13.66242,0.637863 5.397415,-0.66121 10.674565,-2.701538 14.844598,-6.152671 3.48341,-2.834949 6.14118,-6.588754 7.76518,-10.717774 1.72721,-4.31746 2.3217,-9.000128 2.23385,-13.612756 -0.14755,-2.267959 -0.29852,-4.550092 -0.79068,-6.776361 -0.011,0.933032 -0.0836,1.859393 -0.16803,2.787422 -0.28317,2.687364 -1.02779,5.4998 -3.01002,7.487599 -1.4773,1.570062 -3.45613,2.65568 -5.57825,3.134286 -3.257376,0.763769 -6.628201,0.528634 -9.94785,0.568657 -4.973504,-0.0033 -9.945301,0.0016 -14.918804,-0.0016 -0.0145,-15.512171 -0.0094,-31.021841 -0.0035,-46.534013 5.305298,0.0016 10.609742,-0.0016 15.915039,0.0016 A 74.308281,72.641389 0 0 0 80.391039,17.589271 C 72.320505,12.384639 63.02941,8.7025408 53.317817,8.0763507 51.042168,7.9587837 48.75799,8.0079784 46.495989,8.2848028 Z M 90.619515,37.007001 c -0.0035,9.596301 0,19.193436 -0.0017,28.789737 1.214588,0.01501 2.430031,0.01418 3.646325,0.0033 0.853795,-0.06587 1.82956,-0.170931 2.401884,-0.872997 0.708795,-0.883838 0.61753,-2.069513 0.634589,-3.126782 0.0034,-7.066526 0.0094,-14.133886 -0.0035,-21.200412 0.02047,-0.998903 -0.07676,-2.058674 -0.712207,-2.885812 -0.614971,-0.471935 -1.389441,-0.680388 -2.161354,-0.697897 -1.267471,-0.02501 -2.535796,0 -3.80412,-0.0092 z"
     id="path2"
     inkscape:connector-curvature="0"
     style="stroke-width:0.84332079;fill:#1a1a1a" />
  <path
     d="m 51.338991,27.288964 c 1.717825,-0.101725 3.45015,-0.299337 5.167974,-0.08005 2.06412,0.05503 4.119709,0.415236 6.089151,1.017245 2.590384,0.782113 5.086091,2.160398 6.733975,4.308289 1.391147,1.826874 1.887559,4.13819 1.977119,6.371963 0.0077,2.087857 0.006,4.176546 0,6.264403 -4.356826,0.01334 -8.714506,-0.01251 -13.073038,0.01334 -0.121118,-1.524201 -0.02047,-3.06091 -0.05032,-4.588447 -0.03582,-0.960547 0.08956,-1.997805 -0.416235,-2.8658 -0.417941,-0.857154 -1.426119,-1.261552 -2.346443,-1.315749 -1.031206,-0.0642 -2.159648,-0.02001 -3.019413,0.610348 -0.787265,0.571158 -1.109677,1.576731 -1.068736,2.506428 0.0017,7.987051 -0.0042,15.975769 0.0017,23.96282 -0.02048,0.711238 0.2465,1.398296 0.691735,1.954447 1.020119,0.831306 2.42406,0.923025 3.688973,0.767103 0.755707,-0.130907 1.575384,-0.441084 1.967737,-1.12981 0.598765,-0.926362 0.460588,-2.074515 0.499824,-3.119277 -0.01109,-1.542546 0.0145,-3.085926 -0.0145,-4.626804 4.434443,0.0092 8.868034,0.0042 13.300772,0.0016 -0.06482,3.181813 0.229442,6.411986 -0.485324,9.545439 -0.568911,2.423046 -2.1315,4.612628 -4.298825,5.923374 -3.142238,1.961118 -6.974505,2.458901 -10.627654,2.552288 -1.096883,0.135077 -2.195472,-0.04336 -3.294914,-0.04586 -3.455296,-0.200928 -7.070064,-0.703714 -10.00333,-2.639818 a 10.09883,9.8722916 0 0 1 -3.805826,-4.445032 c -0.815412,-1.822706 -0.986,-3.843023 -0.969795,-5.809977 0.0017,-6.452009 0,-12.904019 0.0017,-19.357696 0.01705,-2.026988 -0.102353,-4.074821 0.284882,-6.075962 0.322412,-2.784086 1.915707,-5.40558 4.309915,-6.957297 2.567354,-1.742659 5.695091,-2.42805 8.758857,-2.741562 z m 135.535839,0.621187 c 1.70418,-0.0092 3.40751,-0.0075 5.11169,0 0.0154,0.384386 0.0154,0.769605 0.0128,1.155658 -0.63203,0.01668 -1.26406,0.01084 -1.89268,0.0075 -0.006,1.874402 0.0111,3.74797 -0.01,5.622371 a 49.769148,48.65272 0 0 1 -1.33485,0.0033 c -0.0239,-1.872734 0,-3.744633 -0.011,-5.617367 -0.63033,-0.0058 -1.25895,0 -1.88586,-0.01418 -0.004,-0.386054 -0.002,-0.772108 0.01,-1.157327 z m 7.21163,-0.0016 c 0.61582,-0.0033 1.2342,-0.0033 1.85344,-0.01251 0.50153,1.645937 0.90668,3.31939 1.37068,4.975334 0.5075,-1.642602 0.8845,-3.321893 1.36726,-4.972833 0.60986,0.0058 1.22142,0.0075 1.83297,0.0033 0.0154,2.266292 0.006,4.53425 0.004,6.801376 l -1.24615,-0.0042 c -0.0341,-1.776013 0.10235,-3.554525 0.0878,-5.324701 -0.47594,1.593408 -0.89729,3.201825 -1.31694,4.811075 a 3.2155902,3.1434577 0 0 1 -0.20556,0.531969 c -0.36336,-0.01667 -0.725,-0.01834 -1.08494,-0.0092 -0.54588,-1.788519 -0.93994,-3.622064 -1.51568,-5.399743 0.0801,1.796023 0.10491,3.597049 0.0946,5.39474 a 75.627781,73.93129 0 0 0 -1.24359,-0.0033 c -0.01,-2.264624 -0.0111,-4.52758 0.002,-6.79137 z m -81.7519,0.09089 c 11.20594,0.01834 22.41189,-0.0016 33.61869,0.0092 0.002,2.964188 0.002,5.928377 0,8.8934 -3.19085,0.0058 -6.38342,0.0058 -9.57427,-0.0016 -0.17144,0.04169 -0.56891,-0.09672 -0.56294,0.176768 -0.005,12.491284 0.01,24.981734 -0.004,37.47135 -4.46855,-0.0092 -8.93626,0.0033 -13.40312,-0.0058 -0.0264,-12.537144 0.0187,-25.075954 -0.0239,-37.613098 -3.35888,-0.05503 -6.71948,-0.0075 -10.07836,-0.02501 -0.0563,-2.041997 -0.006,-4.087329 -0.0222,-6.130994 0.0307,-0.923859 -0.0572,-1.851888 0.0495,-2.77408 z m 35.03798,0.0092 c 4.36962,-0.0075 8.74095,0.0016 13.11057,-0.0033 1.48668,10.6469 2.98018,21.2938 4.4643,31.9407 0.16973,1.183174 0.30024,2.37552 0.51859,3.55119 1.73573,-11.820902 3.34012,-23.665151 5.06136,-35.490222 4.43444,0.0016 8.86802,-0.0075 13.30418,0.0042 -0.70879,3.179311 -1.27344,6.389473 -1.9268,9.579625 -2.46756,12.31535 -4.86603,24.645708 -7.35747,36.956889 -6.08915,-0.0092 -12.1783,0.01251 -18.26831,-0.01084 -2.8437,-14.981869 -5.76418,-29.949564 -8.63689,-44.925597 -0.0964,-0.533638 -0.23626,-1.060604 -0.26953,-1.602579 z m 24.9221,54.743691 c 1.39457,-0.774609 3.31027,-0.697899 4.51121,0.396892 0.45463,0.462764 0.73524,1.051432 0.94166,1.65511 -0.51518,0.127573 -1.0261,0.273489 -1.54554,0.377715 -0.14926,-0.476105 -0.34117,-1.018914 -0.841,-1.238206 -0.55356,-0.319348 -1.21373,-0.279326 -1.81676,-0.158423 -0.94932,0.43358 -1.47559,1.453328 -1.48412,2.449729 -0.0427,0.9372 0.11003,2.008644 0.87853,2.658182 0.55015,0.503619 1.38006,0.605344 2.09056,0.424408 0.70282,-0.242638 1.13953,-0.888007 1.37409,-1.55005 0.50323,0.196778 0.99965,0.410234 1.50544,0.602009 -0.0801,0.13341 -0.15523,0.270155 -0.22773,0.406899 -0.51689,1.207355 -1.78606,2.048667 -3.12006,2.094527 -1.09518,0.08922 -2.23642,-0.268487 -3.016,-1.035591 -0.88963,-0.909684 -1.26662,-2.206256 -1.21204,-3.445295 -0.0315,-1.423312 0.69003,-2.899986 1.96176,-3.637906 z m -42.82022,-0.317718 a 93.90888,91.802305 0 0 1 1.54979,0.0033 c 0.011,2.749066 0.006,5.498132 0.004,8.245531 -0.51859,0.0092 -1.03547,0.0075 -1.55321,0.0042 -0.007,-2.750734 -0.005,-5.502301 0,-8.253036 z m 3.47317,0.0016 c 0.45121,-0.0016 0.90242,-0.0016 1.35533,-0.01501 1.30756,1.881072 2.45988,3.864702 3.76318,5.748275 a 6.8414453,6.6879772 0 0 0 -0.0444,-1.148988 c -0.0785,-1.235704 -0.0128,-2.477245 -0.12709,-3.709614 -0.0171,-0.297669 0.0282,-0.592837 0.0649,-0.886337 0.46997,0.01418 0.94335,0.01418 1.41589,-0.005 0.10406,0.396892 0.0649,0.80796 0.0691,1.214025 0,2.352173 -0.005,4.705181 0.002,7.057354 -0.45889,-0.02501 -0.94335,0.05669 -1.38518,-0.04169 -1.26064,-1.856057 -2.378,-3.806336 -3.66253,-5.645717 0.0537,1.892746 0.0878,3.786325 0.099,5.680737 -0.5186,0.0075 -1.03548,0.0075 -1.55322,0 -0.004,-2.749067 -0.0103,-5.498966 0.004,-8.248033 z m 7.70889,0.01668 c 2.07777,-0.0016 4.15639,-0.01668 6.23586,0.0058 0,0.474437 -0.002,0.949707 -0.008,1.424145 -0.77618,0.0042 -1.55151,0.0033 -2.32597,0.0075 -0.004,2.26379 0.004,4.526746 -0.004,6.792204 -0.52029,0.0092 -1.03888,0.0092 -1.55747,0.0033 -0.0154,-2.264624 0,-4.528414 -0.008,-6.793037 -0.77363,-0.01668 -1.5481,0.0058 -2.32172,-0.01501 -0.011,-0.47527 -0.0128,-0.950541 -0.011,-1.424979 z m 7.36856,-0.01501 c 1.98651,-0.0033 3.97557,-0.01251 5.96378,0.0033 0.004,0.474438 0.004,0.953044 -0.008,1.429148 -1.46962,-0.0058 -2.93753,0.0033 -4.40629,-0.0033 -0.002,0.632861 0,1.267388 -0.004,1.901083 1.35618,0.02501 2.71491,-0.0075 4.07109,0.02001 0,0.435248 -0.002,0.87133 -0.01,1.307412 -1.35362,0.0092 -2.70553,-0.0033 -4.0566,0.0075 -0.002,0.720411 0,1.442489 -0.004,2.163733 1.57368,0.03419 3.14821,-0.0092 4.72188,0.03836 0,0.457761 -0.002,0.918857 -0.004,1.378285 -2.08715,0.01251 -4.17515,0.0075 -6.2623,0.0016 -0.0136,-2.7499 -0.0103,-5.498133 -0.003,-8.247199 z m 7.43765,0.0042 c 1.07983,-0.01418 2.16136,-0.0042 3.2446,-0.01251 0.82564,-0.01251 1.69906,0.21679 2.29953,0.797121 0.82053,0.880501 0.9715,2.353841 0.22176,3.319392 -0.29256,0.379382 -0.73097,0.608679 -1.1455,0.832974 0.5783,1.115636 1.27345,2.171237 1.80909,3.308551 -0.5783,0.0033 -1.15488,-0.0058 -1.73233,0.0092 -0.62861,-0.975556 -1.09432,-2.040329 -1.68797,-3.033395 a 11.108713,10.859521 0 0 0 -1.37835,-0.04253 c -0.0111,1.020581 -0.002,2.039496 -0.004,3.059243 -0.54418,0.01251 -1.0858,0.01251 -1.62826,0.0016 8.4e-4,-2.746565 0.004,-5.493963 8.4e-4,-8.239694 z m 1.62401,1.370782 c -0.002,0.854653 0.01,1.708472 -0.01,2.563126 0.73695,0.05253 1.47474,-0.05669 2.20401,-0.155088 0.86743,-0.249309 1.1489,-1.489182 0.44353,-2.054505 -0.73438,-0.596172 -1.7673,-0.320181 -2.63815,-0.353533 z m 8.09783,-1.387458 c 0.55356,0.0092 1.10797,0.01584 1.66324,-0.0058 0.22346,0.324351 0.33179,0.705401 0.45717,1.073945 0.80944,2.408039 1.69309,4.789396 2.49486,7.199102 a 58.037565,56.73566 0 0 0 -1.63509,0.0058 c -0.23883,-0.512792 -0.33009,-1.073945 -0.52969,-1.599245 -1.0457,-0.0033 -2.08884,0 -3.13285,-0.0033 -0.19361,0.522798 -0.33606,1.060604 -0.50153,1.59174 -0.56891,0.0033 -1.13782,0.0058 -1.70418,-0.0092 1.00221,-2.73656 1.87648,-5.518145 2.88807,-8.253035 z m -0.2576,5.279675 c 0.75742,-0.0042 1.51654,-0.0033 2.27566,0.0016 a 155.37186,151.88654 0 0 0 -1.10627,-3.623731 c -0.4947,1.16483 -0.79068,2.413041 -1.16939,3.622063 z m 13.42873,-5.257163 c 2.04791,0 4.09582,0.0092 6.14459,-0.0075 0.0768,0.481108 0.0486,0.968052 -0.006,1.450827 -0.76082,-0.01335 -1.51993,-0.0058 -2.27906,-0.0033 0.0205,2.263791 -0.004,4.526746 0.0128,6.792204 -0.54076,0.01334 -1.07982,0.01251 -1.61889,0.0058 -0.006,-2.266291 0.002,-4.532583 -0.004,-6.799707 -0.74974,-0.0033 -1.49947,-0.0033 -2.2475,0 -0.004,-0.47944 -0.004,-0.95888 -0.003,-1.43832 z m 7.39499,-0.01334 c 0.51519,-0.0016 1.03292,-0.0016 1.55151,0.0016 -0.002,2.749066 0.004,5.498132 -0.004,8.247198 a 52.387679,51.212512 0 0 1 -1.5532,0.0033 c -0.003,-2.751568 -0.0119,-5.501468 0.005,-8.252202 z m 2.63645,0 c 0.52797,-0.0016 1.05765,0.0016 1.58732,-0.0075 0.70112,2.120374 1.19583,4.311623 1.92509,6.421158 0.48533,-1.719313 0.97321,-3.438626 1.46024,-5.157105 0.13817,-0.42691 0.1902,-0.885505 0.42732,-1.274059 0.51859,0.02001 1.03718,0.01501 1.55918,0.02418 -0.81712,2.747399 -1.60694,5.502302 -2.41894,8.251368 -0.70283,-0.0092 -1.40395,-0.0033 -2.10336,-0.0042 -0.80091,-2.753235 -1.711,-5.48229 -2.43685,-8.253869 z m 8.03727,-0.005 c 1.97541,0.01501 3.95339,-0.0058 5.92879,0.0075 0.005,0.451925 0.005,0.902182 0.0205,1.354105 -0.39918,0.125905 -0.82224,0.06754 -1.23079,0.07504 -1.07472,-0.0016 -2.15027,-0.0016 -3.22412,0.0033 0,0.625356 0.006,1.25238 -0.006,1.879404 1.35021,0.06337 2.70213,0.0092 4.05403,0.02918 0.006,0.444421 0.0315,0.889674 -0.0222,1.334094 -1.33912,-0.03085 -2.67824,-0.0042 -4.01736,-0.01501 -0.002,0.73792 -0.0469,1.478342 0.0332,2.215428 1.55321,-0.05337 3.10727,0.0092 4.66218,-0.03085 0.0264,0.4686 0.0256,0.938869 0.01,1.409136 -2.07776,-0.0058 -4.15639,0.0033 -6.23414,-0.0033 0.035,-2.754069 -0.0247,-5.505637 0.0264,-8.258039 z m -66.94739,9.505416 c 0.7685,-0.01084 1.53529,-0.0092 2.30465,0.0033 0.53137,1.997805 1.02779,4.010618 1.63337,5.988411 0.55015,-1.994469 1.07556,-3.996443 1.60354,-5.997583 0.76423,0.0033 1.52761,-0.005 2.29356,0.0092 0.002,2.749067 0,5.499801 0,8.248036 -0.51859,0 -1.03462,0.002 -1.54979,0.003 -0.01,-2.18208 0.0768,-4.360822 0.12879,-6.539563 -0.64909,2.160398 -1.21459,4.346643 -1.77498,6.532053 -0.48105,0.009 -0.96041,0.009 -1.43976,0 -0.5783,-2.166232 -1.1472,-4.334968 -1.75876,-6.49203 -0.11515,1.053934 0.0955,2.105366 0.0332,3.160967 0.0768,1.110634 0.0546,2.223768 0.0836,3.337743 -0.51859,0 -1.03718,0 -1.55577,-0.003 -0.0111,-2.750741 -0.0111,-5.501475 -0.002,-8.250541 z m 10.10053,0.0016 c 0.5348,-0.0075 1.06704,-0.0092 1.60182,-0.0092 -0.002,1.691797 -0.01,3.383594 -0.002,5.075392 0.0299,0.476105 -0.004,1.032254 0.3915,1.384121 0.52029,0.516128 1.33145,0.536139 2.01635,0.410234 0.64909,-0.109228 1.20862,-0.691227 1.16598,-1.354939 -0.004,-1.834377 -0.01,-3.671258 -0.004,-5.505636 a 52.947209,51.75949 0 0 1 1.64618,-0.0016 840.14415,821.29795 0 0 0 -0.002,5.363055 c 0.006,0.760434 -0.20471,1.56756 -0.77191,2.116206 -0.71477,0.723741 -1.78436,0.989731 -2.78657,0.964721 -0.97576,-0.004 -2.04193,-0.29934 -2.64581,-1.101466 -0.5186,-0.522797 -0.60986,-1.289067 -0.61924,-1.98363 0.009,-1.786018 -0.005,-3.571202 0.009,-5.357218 z m 9.22712,-0.0058 a 46.60644,45.560959 0 0 1 1.54383,0.0092 c 0.004,2.269627 0.008,4.540921 0,6.813048 1.1037,0.0033 2.20656,0.0033 3.31027,0.0016 0.008,0.476105 0.008,0.953874 0,1.432476 -1.62401,0.006 -3.24715,-0.01 -4.86945,0.0109 0.0324,-2.755731 8.5e-4,-5.512301 0.0154,-8.267204 z m 4.81486,0.0042 c 2.06241,-0.0016 4.12482,-0.0016 6.18724,0 0.002,0.471936 0.002,0.944705 0.002,1.418309 -0.76424,0.01668 -1.52592,-0.01084 -2.28845,0.01251 0,2.077851 -0.006,4.154867 0.01,6.233548 -0.004,0.200117 -0.0256,0.399401 -0.0649,0.597837 -0.51859,-0.0142 -1.03548,-0.0109 -1.55321,-0.01 -0.0187,-2.277123 0.0128,-4.552586 -0.0154,-6.83055 -0.75486,-0.04169 -1.51056,0.01668 -2.26371,-0.01834 -0.0307,-0.467767 -0.007,-0.936367 -0.0128,-1.404134 z m 7.80527,0.0016 a 66.166099,64.681853 0 0 1 1.59415,-0.0042 c -0.004,2.753235 0.0486,5.511473 -0.0282,8.263874 -0.522,-0.0109 -1.044,-0.01 -1.56429,-0.01 -0.01,-2.750735 -0.004,-5.499801 -0.002,-8.250535 z m 3.8877,-0.0058 c 0.76254,0 1.52336,-0.0033 2.28504,0.005 0.48106,1.985298 1.102,3.93641 1.54638,5.930046 0.22773,-0.100058 0.19788,-0.381051 0.27806,-0.571994 0.45888,-1.793521 0.94762,-3.582041 1.42868,-5.368891 0.76083,0.01251 1.52165,0 2.28418,0.01084 -0.002,2.749066 0,5.498133 0,8.247203 -0.51262,0.006 -1.02524,0.006 -1.53444,0.0109 -0.0281,-2.186251 0.0554,-4.371662 0.0972,-6.55624 -0.61412,2.174573 -1.22312,4.349979 -1.76388,6.54289 -0.47765,0.0109 -0.9553,0.0125 -1.43209,0.004 -0.57233,-2.163728 -1.19924,-4.316621 -1.72465,-6.493695 -0.15439,2.1654 0.0913,4.326632 0.0862,6.493695 -0.5203,0.004 -1.04059,0.004 -1.55918,0.004 0.009,-2.752398 0,-5.504799 0.009,-8.258035 z m 10.08007,0.0016 c 1.98224,-0.005 3.96277,-0.0016 5.94501,-0.0016 0.002,0.461096 0.006,0.92386 0.0282,1.384122 -1.4662,-0.0033 -2.93496,-0.02751 -4.39947,0.01835 -0.0392,0.63286 -0.0256,1.267388 -0.0187,1.903584 1.35618,0.04002 2.71918,-0.05836 4.07281,0.05087 -0.01,0.413568 -0.011,0.827971 -0.006,1.244876 -1.35533,0.0092 -2.70979,-0.0092 -4.06342,0.01084 -0.0171,0.729582 -0.008,1.459999 -0.011,2.191248 1.57027,0.0033 3.14054,-0.0042 4.71081,0.0016 0.006,0.484442 0.006,0.968049 0.004,1.451654 -2.0863,-0.002 -4.17174,0.002 -6.25888,0 -0.0102,-2.751562 -0.006,-5.503963 -0.003,-8.255531 z m 7.743,0.0092 c 1.07983,-0.01418 2.15965,0 3.24119,-0.01084 0.98855,-0.01084 2.01208,0.2935 2.73026,0.982226 0.96383,0.997235 1.28454,2.448061 1.16341,3.782989 -0.12452,0.986395 -0.47594,2.016148 -1.28623,2.665685 -0.80177,0.679554 -1.91144,0.826304 -2.93326,0.829644 -0.97321,-0.02 -1.94728,0.0259 -2.91878,-0.0292 0.002,-2.739899 0.007,-5.480627 0.004,-8.220522 z m 1.64107,1.40997 c -0.004,1.791854 0.002,3.584543 -0.002,5.378064 0.93056,-0.0075 1.92765,0.133409 2.79765,-0.262649 0.74803,-0.339361 0.98259,-1.210691 1.01415,-1.94861 0.0597,-0.920525 -0.0409,-1.972791 -0.76253,-2.644841 -0.86147,-0.692061 -2.01977,-0.513626 -3.04756,-0.521964 z m 7.32932,-1.41664 a 41.970701,41.02921 0 0 1 1.60524,0.0033 c -0.006,2.747399 -0.002,5.493129 -0.002,8.240534 -0.5075,0.0109 -1.01585,0.006 -1.51994,0.0217 a 1.5787951,1.5433794 0 0 1 -0.0878,-0.439418 c 0.003,-2.608991 0.008,-5.21631 0.004,-7.82613 z m 5.95098,-0.0058 c 0.58768,0.0033 1.17536,0 1.76558,0.0016 0.94763,2.756571 1.91743,5.505637 2.87186,8.258874 a 67.251894,65.743292 0 0 0 -1.65982,0.004 c -0.20556,-0.539473 -0.3335,-1.101462 -0.53565,-1.639269 -1.03462,0.0042 -2.06838,-0.02001 -3.09958,0.01834 -0.19021,0.536139 -0.34716,1.083115 -0.53737,1.620929 -0.56549,-0.0109 -1.12843,-0.004 -1.69138,-0.015 0.98771,-2.740733 1.90207,-5.508143 2.88636,-8.249705 z m -0.24053,5.257995 c 0.75486,-0.0016 1.50885,0.005 2.26456,-0.0033 -0.35994,-1.219028 -0.71391,-2.441391 -1.12247,-3.644577 -0.44694,1.190679 -0.77874,2.42805 -1.14209,3.647912 z"
     id="path4"
     inkscape:connector-curvature="0"
     style="stroke-width:0.84332079;fill:#1a1a1a" />
</svg>
