<?xml version="1.0" encoding="UTF-8" standalone="no"?>
<!-- Created by ERK -->

<svg
   width="953mm"
   height="207.99918mm"
   viewBox="0 0 953 207.99918"
   version="1.1"
   id="svg1"
   inkscape:version="1.4 (86a8ad7, 2024-10-11)"
   sodipodi:docname="amiga600.svg"
   xmlns:inkscape="http://www.inkscape.org/namespaces/inkscape"
   xmlns:sodipodi="http://sodipodi.sourceforge.net/DTD/sodipodi-0.dtd"
   xmlns="http://www.w3.org/2000/svg"
   xmlns:svg="http://www.w3.org/2000/svg">
  <sodipodi:namedview
     id="namedview1"
     pagecolor="#ffffff"
     bordercolor="#000000"
     borderopacity="0.25"
     inkscape:showpageshadow="2"
     inkscape:pageopacity="0.0"
     inkscape:pagecheckerboard="true"
     inkscape:deskcolor="#d1d1d1"
     inkscape:document-units="mm"
     inkscape:zoom="0.58236858"
     inkscape:cx="1796.1134"
     inkscape:cy="395.79745"
     inkscape:window-width="3840"
     inkscape:window-height="2066"
     inkscape:window-x="-11"
     inkscape:window-y="-11"
     inkscape:window-maximized="1"
     inkscape:current-layer="g1" />
  <defs
     id="defs1" />
  <g
     id="g1"
     inkscape:label="Logo">
    <path
       d="M 103.99958,4.830517e-6 C 46.46369,4.830517e-6 -3.079956e-6,46.661407 -3.079956e-6,103.99958 c 0,57.5359 46.661411079956,103.99959 103.999583079956,103.99959 11.0722,0 21.74897,-1.77945 31.63486,-4.94294 v -51.9998 c -8.69959,4.94295 -18.7832,7.90872 -29.45996,7.90872 -31.634856,0 -57.140458,-24.71473 -57.140458,-54.96557 0,-30.250816 25.70332,-54.965546 57.140458,-54.965546 10.87448,0 20.95809,2.965767 29.45996,7.908713 V 4.942951 C 125.74855,1.7794591 115.07178,4.830517e-6 103.99958,4.830517e-6 Z M 179.33008,100.63838 H 136.62303 V 64.456013 h 77.50539 z"
       style="font-style:normal;font-variant:normal;font-weight:400;font-stretch:normal;font-size:54.2743px;line-height:1.25;font-family:BoobToob;-inkscape-font-specification:'BoobToob, Normal';font-variant-ligatures:discretionary-ligatures historical-ligatures;font-variant-caps:normal;font-variant-numeric:normal;font-feature-settings:normal;text-align:start;letter-spacing:0;word-spacing:0;writing-mode:lr-tb;text-anchor:start;fill:#002255;fill-opacity:1;stroke:none;stroke-width:1.60965"
       id="path2"
       inkscape:label="C" />
    <path
       style="font-style:normal;font-variant:normal;font-weight:400;font-stretch:normal;font-size:54.2743px;line-height:1.25;font-family:BoobToob;-inkscape-font-specification:'BoobToob, Normal';font-variant-ligatures:discretionary-ligatures historical-ligatures;font-variant-caps:normal;font-variant-numeric:normal;font-feature-settings:normal;text-align:start;letter-spacing:0;word-spacing:0;writing-mode:lr-tb;text-anchor:start;fill:#ff0000;fill-opacity:1;stroke:none;stroke-width:1.60965"
       d="m 179.33008,107.95394 h -42.70705 v 36.18237 h 77.50539 z"
       id="path4"
       inkscape:label="dash" />
    <path
       d="m 345.21536,91.54337 c 9.88589,0 17.79461,-2.768059 24.12157,-7.908714 6.32697,-5.338394 9.49046,-12.653951 9.68817,-22.342119 -0.19771,-9.688184 -3.3612,-17.20145 -9.68817,-22.539844 -6.32696,-5.338379 -14.23568,-7.908714 -24.12157,-7.908714 -9.88589,0 -17.79461,2.768059 -24.12159,7.908714 -6.32697,5.14067 -9.49044,12.85166 -9.68817,22.539844 0.19773,9.688168 3.3612,17.201449 9.68817,22.342119 6.32698,5.140655 14.2357,7.908714 24.12159,7.908714 z m 0,-14.037973 c -4.54751,-0.197724 -7.90871,-1.779454 -10.08362,-4.942946 -2.1749,-3.163492 -3.16349,-6.920125 -2.96576,-11.467638 0,-4.547514 0.98859,-8.304147 2.96576,-11.467639 1.97718,-3.163476 5.33838,-4.745222 10.08362,-4.942946 4.5475,0.197724 7.90871,1.77947 10.0836,4.942946 2.1749,3.163492 3.16349,6.920125 2.96577,11.467639 0,4.349789 -0.98859,8.304146 -2.96577,11.467638 -2.17489,3.163492 -5.5361,4.745222 -10.0836,4.942946 z m 41.91618,12.653936 h 20.16722 V 65.642326 c 0,-6.129259 0.98859,-10.874481 2.96577,-13.840249 1.97717,-2.965768 4.74522,-4.349789 8.30414,-4.349789 2.76806,0 4.94295,1.186297 6.12926,3.3612 1.1863,2.174902 1.97718,4.942946 1.97718,8.304146 v 31.239423 h 20.16722 V 65.84005 c 0,-6.129259 0.98859,-10.874481 2.96576,-13.840249 1.97718,-2.965767 4.74523,-4.349805 8.30415,-4.349805 2.76806,0 4.94295,1.186313 6.12926,3.361216 1.1863,2.174887 1.97718,4.942946 1.97718,8.304146 v 31.239423 h 20.16722 v -34.20519 c 0.19772,-7.908714 -1.18632,-14.037974 -3.95436,-18.585487 -2.76804,-4.34979 -8.30415,-6.722401 -16.60829,-6.722401 -4.15209,0 -8.10644,0.790865 -11.66537,2.570335 -3.55892,1.779455 -6.52469,4.547514 -8.8973,8.501871 -1.58175,-3.756649 -3.95436,-6.524692 -7.11783,-8.501871 -3.16349,-1.77947 -6.92013,-2.768059 -11.07221,-2.768059 -4.54751,0 -8.8973,0.988589 -12.45623,2.965768 -3.75663,1.977178 -6.52469,4.942946 -8.69957,9.095027 h -0.19773 V 32.228017 h -18.38776 z m 110.12884,0 h 20.16721 V 65.642326 c 0,-6.129259 0.98859,-10.874481 2.96577,-13.840249 1.97718,-2.965768 4.74524,-4.349789 8.30415,-4.349789 2.76806,0 4.94294,1.186297 6.12926,3.3612 1.18631,2.174902 1.97718,4.942946 1.97718,8.304146 v 31.239423 h 20.16721 V 65.84005 c 0,-6.129259 0.98859,-10.874481 2.96577,-13.840249 1.97718,-2.965767 4.74524,-4.349805 8.30415,-4.349805 2.76806,0 4.94294,1.186313 6.12926,3.361216 1.18631,2.174887 1.97717,4.942946 1.97717,8.304146 v 31.239423 h 20.16722 v -34.20519 c 0.19773,-7.908714 -1.1863,-14.037974 -3.95435,-18.585487 -2.76805,-4.34979 -8.30415,-6.722401 -16.6083,-6.722401 -4.15208,0 -8.10644,0.790865 -11.66536,2.570335 -3.55891,1.779455 -6.52468,4.547514 -8.8973,8.501871 -1.58173,-3.756649 -3.95436,-6.524692 -7.11784,-8.501871 -3.16349,-1.77947 -6.92012,-2.768059 -11.0722,-2.768059 -4.54752,0 -8.8973,0.988589 -12.45623,2.965768 -3.75663,1.977178 -6.52468,4.942946 -8.69958,9.095027 h -0.19772 V 32.228017 H 497.4581 Z M 638.2332,91.54337 c 9.8859,0 17.79461,-2.768059 24.12158,-7.908714 6.32697,-5.338394 9.49046,-12.653951 9.68817,-22.342119 -0.19771,-9.688184 -3.3612,-17.20145 -9.68817,-22.539844 -6.32697,-5.338379 -14.23568,-7.908714 -24.12158,-7.908714 -9.88589,0 -17.7946,2.768059 -24.12157,7.908714 -6.32698,5.14067 -9.49046,12.85166 -9.68818,22.539844 0.19772,9.688168 3.3612,17.201449 9.68818,22.342119 6.32697,5.140655 14.43339,7.908714 24.12157,7.908714 z m 0,-14.037973 c -4.54751,-0.197724 -7.90871,-1.779454 -10.08361,-4.942946 -2.17489,-3.163492 -3.16348,-6.920125 -2.96577,-11.467638 0,-4.547514 0.98859,-8.304147 2.96577,-11.467639 1.97718,-3.163476 5.33838,-4.745222 10.08361,-4.942946 4.54752,0.197724 7.90872,1.77947 10.0836,4.942946 2.17491,3.163492 3.1635,6.920125 2.96577,11.467639 0,4.349789 -0.98859,8.304146 -2.96577,11.467638 -2.17488,3.163492 -5.33837,4.745222 -10.0836,4.942946 z M 742.82594,6.5246969 H 722.65872 V 39.543574 H 722.461 c -2.57032,-3.3612 -5.53609,-5.536103 -8.89731,-6.920125 -3.3612,-1.384021 -7.11783,-1.977178 -11.07219,-1.977178 -8.10643,0.395432 -14.23568,3.3612 -18.38776,9.292735 -4.15208,5.931536 -6.32697,12.653936 -6.32697,19.969509 0,8.897303 2.37261,16.21286 6.7224,22.144395 4.54752,5.931536 11.07221,9.095012 19.77179,9.292736 4.74524,0 8.8973,-1.186313 12.45622,-3.3612 3.55893,-2.174903 6.12926,-4.942946 7.51329,-8.304146 h 0.1977 v 10.479033 h 18.58549 z M 698.14171,60.501656 c 0,-3.954357 0.98859,-7.315557 3.16348,-10.083601 2.1749,-2.768059 5.14067,-4.152081 9.09503,-4.349789 3.75663,0 6.7224,1.58173 8.8973,4.349789 2.17489,2.768044 3.3612,6.326968 3.3612,10.874482 0,4.349789 -1.38402,7.908714 -3.55892,10.676757 -2.17489,2.768059 -5.14066,4.152081 -8.69958,4.152081 -3.75665,0 -6.72242,-1.581746 -8.89731,-4.349789 -2.1749,-2.76806 -3.3612,-6.524692 -3.3612,-11.26993 z m 86.00727,31.041714 c 9.88589,0 17.7946,-2.768059 24.12157,-7.908714 6.32697,-5.338394 9.49046,-12.653951 9.68817,-22.342119 -0.19771,-9.688184 -3.3612,-17.20145 -9.68817,-22.539844 -6.32697,-5.338379 -14.23568,-7.908714 -24.12157,-7.908714 -9.8859,0 -17.79461,2.768059 -24.12159,7.908714 -6.32697,5.338394 -9.49045,12.85166 -9.68817,22.539844 0.19772,9.688168 3.3612,17.201449 9.68817,22.342119 6.32698,5.140655 14.4334,7.908714 24.12159,7.908714 z m 0,-14.037973 c -4.54752,-0.197724 -7.90872,-1.779454 -10.08362,-4.942946 -1.97718,-3.163492 -3.16349,-6.920125 -2.96577,-11.467638 0,-4.547514 0.98859,-8.304147 2.96577,-11.467639 1.97718,-3.163476 5.33838,-4.745222 10.08362,-4.942946 4.54749,0.197724 7.90871,1.77947 10.0836,4.942946 1.97718,3.163492 3.16349,6.920125 2.96576,11.467639 0,4.349789 -0.98858,8.304146 -2.96576,11.467638 -1.97718,3.163492 -5.33838,4.745222 -10.0836,4.942946 z M 868.7722,31.437136 c -0.98859,-0.197708 -2.17489,-0.395433 -3.3612,-0.395433 -1.1863,-0.197724 -2.37261,-0.197724 -3.55892,-0.197724 -4.34979,0 -7.90872,1.186314 -10.47904,3.361216 -2.76806,2.174887 -4.94294,5.140655 -6.72241,8.699579 h -0.19771 V 32.228017 h -18.38776 v 58.12904 h 20.16721 V 65.84005 c 0,-5.733827 1.18632,-10.28134 3.75664,-13.444816 2.57033,-3.163492 6.12926,-4.745238 10.87448,-4.745238 h 3.36121 c 1.1863,0 2.17489,0.197724 3.3612,0.593157 z m 63.072,35.589212 v -3.756633 c 0.19771,-8.897303 -2.1749,-16.608308 -6.52469,-22.737552 -4.54751,-6.326968 -12.06079,-9.49046 -22.73755,-9.885892 -9.29274,0 -16.60829,2.768043 -22.34212,7.908714 -5.73381,5.338378 -8.69958,12.653935 -8.69958,22.342119 0.19771,9.688168 3.3612,17.20145 9.68817,22.342104 6.32697,5.338395 14.23568,7.908714 24.12157,8.106438 3.75665,0 7.51328,-0.197724 11.07221,-0.790865 3.55892,-0.593157 7.11785,-1.581746 10.28132,-2.768059 V 73.55104 c -2.96576,1.581746 -6.12924,2.768043 -9.09501,3.3612 -2.96577,0.790881 -5.93153,0.988589 -8.69959,0.988589 -4.94295,0 -8.89731,-0.790865 -11.86307,-2.570335 -2.96577,-1.779454 -4.74523,-4.547498 -5.33838,-8.501854 z M 891.31205,55.55871 c 0.1977,-3.3612 1.18629,-6.326968 2.96576,-8.501855 1.77946,-2.372627 4.54752,-3.558924 8.10642,-3.558924 3.95436,0 6.92013,1.186297 8.50188,3.558924 1.77947,2.372611 2.57033,5.140655 2.57033,8.501855 z M 268.50083,90.752489 c -8.69958,-2.372611 -15.42199,-6.326968 -20.95809,-12.456227 -5.5361,-6.129244 -8.10643,-11.665347 -9.68818,-21.551239 -2.96576,-19.376352 5.33839,-37.170958 21.35353,-44.881947 8.10643,-3.9543574 18.98091,-5.9315358 29.85539,-5.9315358 6.72242,0 12.65395,1.1862975 18.19004,2.1748868 L 305.47407,25.5056 c 0,0 -1.38402,-0.395432 -5.33838,-1.384021 -3.75665,-0.988589 -7.51328,-1.384022 -11.26992,-1.384022 -7.51328,0 -14.82883,1.977178 -19.57407,5.733811 -11.26992,8.699595 -11.26992,31.437147 0.39543,40.927591 7.11785,5.931535 19.96951,7.908714 31.43715,4.942946 l 5.33838,-1.384022 1.58174,17.596898 c -3.3612,0.790865 -10.47905,2.174887 -19.17863,2.174887 -11.46763,0 -15.02656,-0.395433 -20.36494,-1.977179 z m -45.07967,10.083621 h 729.57885 v 5.93153 H 223.42116 Z"
       style="font-style:normal;font-variant:normal;font-weight:400;font-stretch:normal;font-size:54.2743px;line-height:1.25;font-family:BoobToob;-inkscape-font-specification:'BoobToob, Normal';font-variant-ligatures:discretionary-ligatures historical-ligatures;font-variant-caps:normal;font-variant-numeric:normal;font-feature-settings:normal;text-align:start;letter-spacing:0;word-spacing:0;writing-mode:lr-tb;text-anchor:start;fill:#002255;fill-opacity:1;stroke:none;stroke-width:1.60965"
       id="path6"
       inkscape:label="commodore" />
    <path
       d="m 333.55,195.93838 c 0,-0.98859 -0.19771,-1.77945 -0.79087,-1.97718 -0.59315,-0.39543 -1.18631,-0.59314 -2.1749,-0.59314 -3.16348,-0.59316 -4.94295,-1.77947 -5.5361,-3.55892 -0.59314,-1.97718 -0.79087,-4.34979 -0.79087,-7.31556 l -3.16349,-60.8971 c 0,-2.1749 -0.19771,-3.95436 -0.59314,-5.5361 -0.39545,-1.38403 -1.77947,-2.17491 -4.34981,-2.37261 -2.17488,0 -3.75663,0.79086 -4.74522,1.97717 -0.98859,1.1863 -1.97718,2.76805 -3.16349,4.34979 l -39.14812,54.96557 -6.52469,9.29273 c -1.38402,1.97718 -2.76805,3.75664 -4.15208,5.53611 -1.58174,1.77945 -3.55892,2.76804 -5.93154,3.16347 -1.38402,0.19773 -2.57033,0.39545 -3.75663,0.79088 -1.18631,0.39544 -1.77946,1.38402 -1.97718,2.96577 0,0.98859 0.39543,1.58175 0.98859,1.77945 0.59315,0.19773 1.38402,0.39544 2.17489,0.39544 2.1749,0 4.54751,-0.19771 6.92013,-0.39544 2.37261,-0.1977 4.5475,-0.39543 6.92012,-0.39543 2.1749,0 4.15208,0.19773 6.12926,0.39543 1.97717,0.19773 4.15208,0.19773 6.12925,0.39544 0.98859,0 1.77946,-0.19771 2.57032,-0.59314 0.79089,-0.39545 1.18632,-1.18632 1.18632,-2.17491 -0.19773,-1.58174 -0.98859,-2.37261 -2.76805,-2.57033 -1.77947,-0.19771 -3.36121,-0.59316 -5.14067,-0.98859 -1.77945,-0.39543 -2.57033,-1.58175 -2.76804,-3.75663 0.39543,-2.17491 1.77945,-5.33838 4.34979,-9.29274 2.57033,-3.95436 4.34979,-6.92012 5.5361,-8.50187 h 24.31928 c 0.19773,2.57034 0.19773,5.14066 0.39545,7.71099 0.19771,2.57034 0.19771,5.14067 0.19771,7.71101 -0.19771,3.5589 -0.98859,5.73381 -2.76804,6.32696 -1.77947,0.59316 -3.55893,0.98859 -5.14067,0.98859 -1.77946,0 -2.76805,1.1863 -2.76805,2.96577 0,0.79087 0.19771,1.38402 0.79087,1.77945 0.59316,0.39544 1.18631,0.39544 1.97718,0.39544 3.3612,0 6.72241,-0.19771 10.08361,-0.39544 3.3612,-0.1977 6.7224,-0.39543 10.0836,-0.39543 2.17491,0 4.54752,0.19773 6.72242,0.19773 2.17489,0.1977 4.54751,0.1977 6.7224,0.1977 0.98859,0 1.97718,-0.1977 2.57034,-0.39543 0.98859,-0.39543 1.38402,-0.98859 1.38402,-2.1749 z m -30.05311,-31.0417 h -20.36494 l 19.37635,-28.27365 z m 206.81287,-46.46369 c 0,-0.79087 -0.19772,-1.1863 -0.79088,-1.58175 -0.39543,-0.39543 -0.98859,-0.59314 -1.77945,-0.59314 -1.18632,0 -2.17491,0 -3.1635,0.19771 -0.98859,0 -2.17488,0.19772 -3.16347,0.39543 -2.76806,0.19773 -5.3384,0.39545 -8.10644,0.59316 h -8.30415 c -1.97717,0 -3.95435,-0.19771 -6.12926,-0.19771 -1.97717,-0.19772 -3.95435,-0.19772 -6.12924,-0.19772 -0.98859,0 -1.77947,0.19772 -2.57033,0.79086 -0.79089,0.59316 -1.18632,1.38404 -1.18632,2.37263 0.39543,1.77945 1.77947,2.76804 4.15208,2.57032 2.37261,-0.19771 3.75664,0.98859 4.15207,3.16349 0,0.59316 0,1.18631 -0.19771,1.97718 -0.19772,0.59315 -0.39543,1.18631 -0.59316,1.97718 l -15.42199,53.38381 c -0.59316,2.57034 -1.1863,4.74523 -1.97718,6.5247 -0.79087,1.77945 -2.37261,2.96576 -4.94295,3.55892 -1.18629,0.19771 -2.57033,0.39543 -4.15206,0.79087 -1.58175,0.39543 -2.57034,1.38402 -2.57034,2.76804 0,0.79088 0.39544,1.38404 0.98859,1.77947 0.59316,0.39543 1.38402,0.59316 2.17489,0.59316 2.57033,0 5.33839,-0.19773 7.90871,-0.39545 2.76806,-0.19771 5.3384,-0.39544 8.10644,-0.39544 2.96577,0 5.73381,0.19773 8.69958,0.39544 2.96577,0.19772 5.73383,0.19772 8.69959,0.39545 1.1863,0 2.57034,0 4.15207,-0.19773 1.58175,-0.19772 2.37263,-0.98859 2.57033,-2.57033 -0.1977,-1.58175 -0.98858,-2.37261 -2.37261,-2.57034 -1.38402,-0.19771 -2.96576,-0.39543 -4.34979,-0.79086 -1.38402,-0.39544 -2.1749,-1.77946 -2.37261,-4.15208 0,-0.98859 0.19771,-1.97718 0.39544,-2.96577 0.1977,-0.98859 0.59315,-1.97718 0.79086,-2.96577 l 15.422,-53.58153 c 0.59315,-2.1749 1.18631,-3.75665 1.97717,-4.74523 0.79087,-0.98859 2.37262,-1.77946 4.54752,-2.17489 1.1863,-0.19773 2.37261,-0.39543 3.75663,-0.98859 0.98859,-0.98859 1.58175,-1.77947 1.77947,-3.16349 z m 80.27344,0.59315 c -0.19771,-1.38402 -1.58175,-2.1749 -3.95436,-2.76804 -2.57034,-0.59316 -5.14065,-0.79088 -7.90871,-0.98859 -2.76805,-0.19772 -4.54752,-0.19772 -5.53611,-0.19772 -10.28132,0 -20.95808,2.1749 -32.03028,6.12926 -11.07219,4.15206 -20.56265,10.0836 -28.47137,17.99231 -7.90871,7.90872 -12.06079,17.5969 -12.2585,29.06452 0.19771,7.31557 2.17489,13.24711 6.32697,17.99233 4.15206,4.74522 9.09501,8.30415 15.42199,10.67676 6.12925,2.37263 12.45621,3.55892 19.17863,3.55892 3.95436,0 7.90871,-0.19771 12.06078,-0.79086 3.95436,-0.39543 7.90871,-1.18632 11.86307,-2.1749 1.38404,-0.19771 2.76806,-0.59316 3.75665,-1.1863 0.98859,-0.39545 1.77945,-1.38404 2.37261,-2.96577 0.98859,-2.96577 1.97718,-6.12926 2.96577,-9.29275 0.98859,-3.16348 1.77945,-6.32697 2.57033,-9.29274 1.38402,-4.34979 3.16348,-7.11783 5.14066,-7.90871 1.97717,-0.79087 3.75664,-1.1863 5.33839,-1.1863 1.58173,0 2.37261,-0.98859 2.37261,-2.96577 0,-0.79088 -0.39543,-1.38403 -0.98859,-1.77947 -0.59315,-0.39543 -1.38402,-0.59315 -1.97718,-0.59315 -2.96576,0 -6.12926,0.19772 -9.09502,0.39545 -3.16348,0.1977 -6.12925,0.39543 -9.29274,0.39543 -2.96577,0 -5.93153,-0.19773 -8.69958,-0.39543 -2.96577,-0.19773 -5.93153,-0.39545 -8.69959,-0.39545 -0.98859,0 -1.97718,0.19772 -2.76805,0.59315 -0.98859,0.39544 -1.38402,1.18632 -1.38402,2.17491 0.19771,1.38402 0.98859,2.17488 2.37261,2.37261 1.58175,0.19772 2.96577,0.39543 4.54752,0.98859 1.58173,0.39543 2.37261,1.77945 2.37261,3.95435 -0.19773,2.37261 -0.79088,5.33838 -2.1749,9.49046 -1.1863,3.95436 -2.37262,7.11784 -3.16348,9.68817 -0.39545,1.77947 -1.18631,3.16349 -1.97718,3.95436 -0.79088,0.79088 -2.1749,1.18631 -4.15208,1.18631 -7.11785,-0.19772 -12.65394,-2.37261 -16.21286,-6.92012 -3.75665,-4.54752 -5.5361,-10.08362 -5.5361,-17.00374 0,-6.32697 1.38402,-12.65394 3.95435,-18.58547 2.57034,-5.93154 6.12926,-11.26992 10.47905,-15.81743 4.34979,-4.34979 9.88589,-8.10644 16.21286,-11.26992 6.52469,-3.16349 12.85166,-4.74523 19.17863,-4.94294 2.96577,0 4.74524,0.59314 5.5361,1.77945 0.59316,1.18632 0.98859,3.16349 0.79087,5.93154 0,0.79086 0,1.38402 -0.19771,2.1749 0,0.79087 -0.19772,1.38402 -0.19772,2.17489 0,1.18631 0.19772,2.37261 0.59315,3.3612 0.39544,0.98859 1.38402,1.58174 2.76805,1.58174 1.58174,-0.19771 2.57033,-0.79086 3.36121,-2.17488 0.79087,-1.38404 1.1863,-2.76806 1.58173,-3.95436 0.39545,-0.98859 0.98859,-2.96577 1.97718,-6.12926 0.79088,-3.16349 1.38404,-5.14067 1.58175,-5.93154 z m 69.99212,76.91224 c 0,-0.98859 -0.19772,-1.77945 -0.79088,-1.97718 -0.59315,-0.39543 -1.1863,-0.59314 -2.17488,-0.59314 -3.1635,-0.59316 -4.94295,-1.77947 -5.53611,-3.55892 -0.59315,-1.97718 -0.79088,-4.34979 -0.79088,-7.31556 l -3.16347,-60.8971 c 0,-2.1749 -0.19773,-3.95436 -0.59316,-5.5361 -0.39543,-1.38403 -1.77946,-2.17491 -4.34979,-2.37261 -2.1749,0 -3.75665,0.79086 -4.74524,1.97717 -0.98859,1.1863 -1.97718,2.76805 -3.16347,4.34979 l -39.14814,54.96557 -6.52469,9.29273 c -1.38402,1.97718 -2.76805,3.75664 -4.15207,5.53611 -1.58174,1.77945 -3.55892,2.76804 -5.93153,3.16347 -1.38404,0.19773 -2.57034,0.39545 -3.75665,0.79088 -1.1863,0.39544 -1.77946,1.38402 -1.97718,2.96577 0,0.98859 0.39543,1.58175 0.98859,1.77945 0.59316,0.19773 1.38402,0.39544 2.1749,0.39544 2.17489,0 4.54752,-0.19771 6.92013,-0.39544 2.37261,-0.1977 4.54751,-0.39543 6.92012,-0.39543 2.17489,0 4.15207,0.19773 6.12924,0.39543 2.17491,0.19773 4.15209,0.19773 6.12926,0.39544 0.98859,0 1.77946,-0.19771 2.57034,-0.59314 0.79086,-0.39545 1.1863,-1.18632 1.1863,-2.17491 -0.19771,-1.58174 -0.98859,-2.37261 -2.76805,-2.57033 -1.77945,-0.19771 -3.3612,-0.59316 -5.14067,-0.98859 -1.77945,-0.39543 -2.57032,-1.58175 -2.76804,-3.75663 0.39543,-2.17491 1.77945,-5.33838 4.34979,-9.29274 2.57033,-3.95436 4.34979,-6.92012 5.5361,-8.50187 h 24.51701 c 0.19772,2.57034 0.19772,5.14066 0.39545,7.71099 0.1977,2.57034 0.1977,5.14067 0.1977,7.71101 -0.1977,3.5589 -0.98858,5.73381 -2.76804,6.32696 -1.77947,0.59316 -3.55892,0.98859 -5.14067,0.98859 -1.77945,0 -2.76804,1.1863 -2.76804,2.96577 0,0.79087 0.19771,1.38402 0.79086,1.77945 0.59316,0.39544 1.18632,0.39544 1.97718,0.39544 3.3612,0 6.72242,-0.19771 10.08362,-0.39544 3.3612,-0.1977 6.7224,-0.39543 10.0836,-0.39543 2.1749,0 4.54751,0.19773 6.72241,0.19773 2.17489,0.1977 4.54752,0.1977 6.7224,0.1977 0.98859,0 1.97718,-0.1977 2.57034,-0.39543 0.79086,-0.39543 1.18631,-0.98859 1.18631,-2.1749 z m -30.25083,-31.0417 H 609.95955 L 629.3359,136.62303 Z M 458.50767,118.82842 c 0,-0.79086 -0.19771,-1.38402 -0.79086,-1.77945 -0.39543,-0.39544 -0.98859,-0.59316 -1.77946,-0.59316 -2.57033,0 -5.14067,0 -7.711,0.19772 -2.57034,0.19771 -5.14066,0.19771 -7.71099,0.19771 -1.38402,0 -3.3612,-0.19771 -6.12926,-0.19771 -2.76804,0 -4.54751,0.19771 -5.5361,0.98859 -0.19771,0.19771 -0.39544,0.59316 -0.39544,0.79087 -0.1977,0.39543 -0.39543,0.59315 -0.39543,0.79088 l -33.61203,50.81348 -1.38402,-50.02262 c 0,-0.98859 0,-1.77945 -0.19773,-2.37261 -0.19771,-0.79088 -0.79086,-0.98859 -1.77945,-1.18631 -2.76806,0 -5.73383,0 -8.50187,0.19772 h -8.50187 c -1.58175,0 -3.16348,-0.19772 -4.74523,-0.19772 -1.58174,-0.19771 -3.16349,-0.19771 -4.74523,-0.19771 -0.98859,0 -1.97718,0.19771 -2.96577,0.39543 -0.98859,0.39544 -1.38402,0.98859 -1.58173,2.17489 0.39543,1.97718 1.97718,2.96577 4.5475,2.76806 2.76806,0 4.15208,0.98859 4.54751,2.76804 0,1.38402 -0.39543,2.76806 -0.79086,4.15208 -0.59316,1.38403 -0.98859,2.76805 -1.38403,3.95436 -2.96576,8.30415 -5.93153,16.41059 -8.8973,24.71473 -2.96577,8.30415 -5.93153,16.41059 -9.09503,24.71473 -1.18631,3.55893 -2.37261,5.93154 -3.55892,7.31556 -1.1863,1.38402 -3.55893,2.37261 -7.31556,2.96577 -0.98859,0.19772 -1.97718,0.39543 -2.76804,0.98859 -0.79088,0.39543 -1.18632,1.18631 -1.18632,2.37261 0,0.98859 0.39544,1.58174 0.98859,1.97718 0.59316,0.19772 1.38403,0.39543 2.37262,0.39543 2.1749,0 4.34978,0 6.52469,-0.19771 2.1749,-0.19772 4.34979,-0.19772 6.52469,-0.19772 1.97718,0 3.95436,0.19772 5.93153,0.39543 1.97718,0.19772 3.95436,0.19772 5.93154,0.39545 0.98859,0 1.77945,-0.19773 2.57034,-0.59316 0.79086,-0.39543 1.18629,-1.18631 1.38402,-2.1749 -0.19773,-1.77946 -0.98859,-2.57034 -2.76806,-2.76805 -1.77946,-0.19772 -3.55891,-0.39543 -5.33838,-0.79088 -1.77946,-0.39543 -2.76804,-1.97718 -2.76804,-4.74522 0.1977,-3.75663 1.58174,-9.49046 4.15206,-17.20145 2.57034,-7.51328 5.14067,-15.02656 8.10644,-22.14439 2.76804,-7.11785 4.74522,-11.86307 5.73381,-14.43341 l 1.38404,58.12904 c 0,1.77947 0.19771,3.16349 0.59314,4.34979 0.39545,0.98859 1.58174,1.58175 3.55892,1.58175 1.97718,0 3.55893,-0.79087 4.74524,-2.17489 1.1863,-1.38404 2.17489,-2.76806 3.16348,-4.34981 l 39.14813,-57.53588 -12.85166,48.63858 c -0.39543,2.1749 -0.98859,4.15208 -1.77945,6.32698 -0.79088,2.17489 -2.37263,3.3612 -4.54751,3.95436 -1.38403,0 -2.76806,0.39543 -4.34979,0.59314 -1.58175,0.39545 -2.57034,1.38404 -2.76806,2.96577 0,0.98859 0.39543,1.58175 0.98859,1.97718 0.59315,0.39545 1.38402,0.59315 2.1749,0.59315 2.76804,0 5.73381,-0.1977 8.50187,-0.39543 2.76804,-0.19772 5.73381,-0.39543 8.50185,-0.39543 2.96577,0 5.93154,0.19771 8.6996,0.39543 2.96577,0.19773 5.93153,0.39543 8.69958,0.39543 1.18631,0 1.97718,-0.1977 2.96576,-0.59315 0.79089,-0.39543 1.38403,-1.1863 1.38403,-2.37261 -0.19771,-1.38402 -0.79087,-2.37261 -2.17489,-2.57034 -1.38402,-0.19771 -2.76806,-0.59314 -4.15208,-0.98859 -1.38402,-0.39543 -2.17489,-1.58173 -2.17489,-3.75663 0,-1.38402 0.19771,-2.96577 0.59314,-4.54751 0.39545,-1.58175 0.59316,-2.96577 0.98859,-4.34979 l 12.45623,-50.02262 c 0.39543,-2.17489 0.98859,-3.95436 1.77947,-5.14066 0.79086,-1.18631 2.17489,-1.97717 4.5475,-2.37262 1.18631,0 2.37262,-0.39543 3.55892,-0.79087 0.59316,0.19773 1.38402,-0.59315 1.38402,-2.1749 z"
       style="font-style:normal;font-variant:normal;font-weight:400;font-stretch:normal;font-size:54.2743px;line-height:1.25;font-family:BoobToob;-inkscape-font-specification:'BoobToob, Normal';font-variant-ligatures:discretionary-ligatures historical-ligatures;font-variant-caps:normal;font-variant-numeric:normal;font-feature-settings:normal;text-align:start;letter-spacing:0;word-spacing:0;writing-mode:lr-tb;text-anchor:start;fill:#ff0000;fill-opacity:1;stroke:none;stroke-width:1.60965"
       id="path8"
       inkscape:label="Amiga" />
    <path
       id="path2433"
       style="color:#000000;font-size:78.8314px;font-family:Bahnschrift;-inkscape-font-specification:'Bahnschrift, Normal';display:inline;fill:#002255;stroke:none;stroke-width:1.9044;-inkscape-stroke:none"
       d="M 760.44712 114.37958 L 739.26547 150.1898 L 739.26547 150.1929 C 738.95642 150.72041 738.64785 151.26701 738.33943 151.83053 C 738.0199 152.37593 737.72379 152.93791 737.45059 153.51983 C 735.83963 156.80414 734.60743 160.14807 733.75625 163.55074 C 732.90534 166.95231 732.47777 170.21337 732.47777 173.32947 L 732.47777 173.38373 C 732.47777 178.71225 733.53325 183.32514 735.68533 187.19374 L 735.68843 187.19684 L 735.69153 187.20304 C 737.88901 191.03196 741.10807 194.00406 745.29404 196.0454 L 745.30024 196.0454 L 745.30334 196.0485 C 749.37131 197.99416 754.24592 198.9382 759.8115 198.99457 L 759.86163 199.03798 L 760.28796 199.03798 C 766.06849 199.03798 771.0841 198.03438 775.27568 195.99114 L 775.27878 195.98804 C 779.5133 193.9445 782.73957 190.92729 784.89163 187.01959 C 787.08587 183.1147 788.16274 178.46756 788.16274 173.10365 L 788.16274 173.04628 C 788.16274 167.80228 787.22271 163.27837 785.3009 159.49052 C 783.38041 155.66806 780.52514 152.70535 776.77171 150.68848 C 773.01808 148.67154 768.53073 147.67626 763.39423 147.67626 C 760.88231 147.67626 758.65142 148.1324 756.61997 148.89014 L 777.31224 114.3801 L 760.44712 114.37958 z M 759.62857 160.49511 C 763.89937 160.49511 766.98824 161.63983 769.21455 163.95433 L 769.21455 163.95743 L 769.21765 163.96002 C 771.44229 166.23826 772.61641 169.54727 772.61641 174.00488 L 772.61641 174.06224 C 772.61641 178.09824 771.49616 181.07537 769.36854 183.13094 L 769.36544 183.13404 L 769.36286 183.13714 C 767.27826 185.18984 764.35359 186.21809 760.29003 186.21809 C 756.2744 186.21809 753.34309 185.20374 751.2141 183.18572 C 749.13083 181.13148 748.02979 178.15572 748.02979 174.12012 L 748.02979 174.06276 C 748.02979 169.59312 749.10558 166.23887 751.13038 163.92333 C 753.15528 161.60771 755.87046 160.49563 759.62909 160.49563 L 759.62857 160.49511 z "
       inkscape:label="6" />
    <path
       id="path2439"
       style="color:#000000;font-size:78.8314px;font-family:Bahnschrift;-inkscape-font-specification:'Bahnschrift, Normal';display:inline;fill:#002255;stroke:none;stroke-width:1.9044;-inkscape-stroke:none"
       d="M 832.43033 113.36311 C 823.29948 113.36327 816.16446 115.48046 811.26263 119.78029 C 806.37147 124.03327 803.95816 130.01841 803.95816 137.55078 L 803.95816 174.85238 C 803.95816 182.34643 806.34691 188.32769 811.18873 192.61718 L 811.19183 192.62028 C 816.09509 196.92321 823.25426 199.03695 832.43084 199.03695 C 841.56253 199.03695 848.69584 196.94368 853.59906 192.68023 L 853.60216 192.67713 C 858.49029 188.38748 860.90301 182.38474 860.90301 174.85238 L 860.90301 137.55026 C 860.90301 129.98277 858.49224 123.97927 853.60216 119.72551 C 848.74105 115.45842 841.60574 113.36327 832.43136 113.36311 L 832.43084 113.36311 L 832.43033 113.36311 z M 832.42981 126.07086 L 832.43136 126.07086 C 837.05678 126.07086 840.23721 127.08237 842.24213 128.99471 L 842.24471 128.99781 L 842.24781 129.00039 C 844.27807 130.9029 845.3515 133.70398 845.3515 137.55078 L 845.3515 174.85289 C 845.3515 178.6969 844.26217 181.51369 842.18425 183.45754 C 840.17987 185.3358 837.01315 186.3323 832.43033 186.3323 C 827.85338 186.3323 824.66694 185.3371 822.61646 183.45754 C 820.58301 181.5152 819.50915 178.69666 819.50915 174.85289 L 819.50915 137.55078 C 819.50915 133.70398 820.58259 130.9029 822.61284 129.00039 L 822.61594 128.99781 L 822.61904 128.99471 C 824.62396 127.08237 827.80439 126.07086 832.42981 126.07086 z "
       inkscape:label="0" />
    <path
       id="path2445"
       style="color:#000000;font-size:78.8314px;font-family:Bahnschrift;-inkscape-font-specification:'Bahnschrift, Normal';display:inline;fill:#002255;stroke:none;stroke-width:1.9044;-inkscape-stroke:none"
       d="M 904.5081 113.36311 C 895.37701 113.36319 888.24232 115.48038 883.3404 119.78029 C 878.44924 124.03327 876.03593 130.01841 876.03593 137.55078 L 876.03593 174.85238 C 876.03593 182.34643 878.42469 188.32769 883.2665 192.61718 L 883.2696 192.62028 C 888.17283 196.92321 895.33204 199.03695 904.50861 199.03695 C 913.64029 199.03695 920.77359 196.94368 925.67683 192.68023 L 925.67683 192.67713 L 925.67993 192.67713 C 930.56803 188.38748 932.98078 182.38474 932.98078 174.85238 L 932.98078 137.55026 C 932.98078 129.98277 930.56998 123.97927 925.67993 119.72551 C 920.81872 115.45834 913.68323 113.36319 904.50861 113.36311 L 904.5081 113.36311 z M 904.50758 126.07086 L 904.50861 126.07086 C 909.134 126.07086 912.31444 127.08236 914.31938 128.99471 L 914.32249 128.99781 L 914.32559 129.00039 C 916.35586 130.9029 917.42927 133.70398 917.42927 137.55078 L 917.42927 174.85289 C 917.42927 178.6969 916.33635 181.51369 914.25841 183.45754 C 912.25405 185.3358 909.09092 186.3323 904.5081 186.3323 C 899.92749 186.3323 896.73783 185.33692 894.68751 183.45444 C 892.65594 181.51221 891.58692 178.69485 891.58692 174.85289 L 891.58692 137.55078 C 891.58692 133.70398 892.66034 130.9029 894.69061 129.00039 L 894.69371 128.99781 L 894.69371 128.99471 C 896.69863 127.08237 899.88217 126.07086 904.50758 126.07086 z "
       inkscape:label="0" />
  </g>
</svg>
