<?xml version="1.0" encoding="UTF-8" standalone="no"?>
<!-- Created by ERK -->

<svg
   width="953mm"
   height="207.99918mm"
   viewBox="0 0 953 207.99918"
   version="1.1"
   id="svg1"
   inkscape:version="1.4 (86a8ad7, 2024-10-11)"
   sodipodi:docname="amiga600-w.svg"
   xmlns:inkscape="http://www.inkscape.org/namespaces/inkscape"
   xmlns:sodipodi="http://sodipodi.sourceforge.net/DTD/sodipodi-0.dtd"
   xmlns="http://www.w3.org/2000/svg"
   xmlns:svg="http://www.w3.org/2000/svg">
  <sodipodi:namedview
     id="namedview1"
     pagecolor="#ffffff"
     bordercolor="#000000"
     borderopacity="0.25"
     inkscape:showpageshadow="2"
     inkscape:pageopacity="0.0"
     inkscape:pagecheckerboard="true"
     inkscape:deskcolor="#d1d1d1"
     inkscape:document-units="mm"
     inkscape:zoom="0.58236858"
     inkscape:cx="1796.1134"
     inkscape:cy="395.79745"
     inkscape:window-width="3840"
     inkscape:window-height="2066"
     inkscape:window-x="-11"
     inkscape:window-y="-11"
     inkscape:window-maximized="1"
     inkscape:current-layer="g1" />
  <defs
     id="defs1" />
  <g
     id="g1"
     inkscape:label="Logo"
     style="display:inline">
    <path
       d="M 103.99958,4.830517e-6 C 46.46369,4.830517e-6 -3.079956e-6,46.661407 -3.079956e-6,103.99958 c 0,57.5359 46.661411079956,103.99959 103.999583079956,103.99959 11.0722,0 21.74897,-1.77945 31.63486,-4.94294 v -51.9998 c -8.69959,4.94295 -18.7832,7.90872 -29.45996,7.90872 -31.634856,0 -57.140458,-24.71473 -57.140458,-54.96557 0,-30.250816 25.70332,-54.965546 57.140458,-54.965546 10.87448,0 20.95809,2.965767 29.45996,7.908713 V 4.942951 C 125.74855,1.7794591 115.07178,4.830517e-6 103.99958,4.830517e-6 Z M 179.33008,100.63838 H 136.62303 V 64.456013 h 77.50539 z"
       style="font-style:normal;font-variant:normal;font-weight:400;font-stretch:normal;font-size:54.2743px;line-height:1.25;font-family:BoobToob;-inkscape-font-specification:'BoobToob, Normal';font-variant-ligatures:discretionary-ligatures historical-ligatures;font-variant-caps:normal;font-variant-numeric:normal;font-feature-settings:normal;text-align:start;letter-spacing:0;word-spacing:0;writing-mode:lr-tb;text-anchor:start;fill:#3771c8;fill-opacity:1;stroke:none;stroke-width:1.60965"
       id="path2"
       inkscape:label="C" />
    <path
       style="font-style:normal;font-variant:normal;font-weight:400;font-stretch:normal;font-size:54.2743px;line-height:1.25;font-family:BoobToob;-inkscape-font-specification:'BoobToob, Normal';font-variant-ligatures:discretionary-ligatures historical-ligatures;font-variant-caps:normal;font-variant-numeric:normal;font-feature-settings:normal;text-align:start;letter-spacing:0;word-spacing:0;writing-mode:lr-tb;text-anchor:start;fill:#ff0000;fill-opacity:1;stroke:none;stroke-width:1.60965"
       d="m 179.33008,107.95394 h -42.70705 v 36.18237 h 77.50539 z"
       id="path4"
       inkscape:label="dash" />
    <path
       d="m 345.21536,91.54337 c 9.88589,0 17.79461,-2.768059 24.12157,-7.908714 6.32697,-5.338394 9.49046,-12.653951 9.68817,-22.342119 -0.19771,-9.688184 -3.3612,-17.20145 -9.68817,-22.539844 -6.32696,-5.338379 -14.23568,-7.908714 -24.12157,-7.908714 -9.88589,0 -17.79461,2.768059 -24.12159,7.908714 -6.32697,5.14067 -9.49044,12.85166 -9.68817,22.539844 0.19773,9.688168 3.3612,17.201449 9.68817,22.342119 6.32698,5.140655 14.2357,7.908714 24.12159,7.908714 z m 0,-14.037973 c -4.54751,-0.197724 -7.90871,-1.779454 -10.08362,-4.942946 -2.1749,-3.163492 -3.16349,-6.920125 -2.96576,-11.467638 0,-4.547514 0.98859,-8.304147 2.96576,-11.467639 1.97718,-3.163476 5.33838,-4.745222 10.08362,-4.942946 4.5475,0.197724 7.90871,1.77947 10.0836,4.942946 2.1749,3.163492 3.16349,6.920125 2.96577,11.467639 0,4.349789 -0.98859,8.304146 -2.96577,11.467638 -2.17489,3.163492 -5.5361,4.745222 -10.0836,4.942946 z m 41.91618,12.653936 h 20.16722 V 65.642326 c 0,-6.129259 0.98859,-10.874481 2.96577,-13.840249 1.97717,-2.965768 4.74522,-4.349789 8.30414,-4.349789 2.76806,0 4.94295,1.186297 6.12926,3.3612 1.1863,2.174902 1.97718,4.942946 1.97718,8.304146 v 31.239423 h 20.16722 V 65.84005 c 0,-6.129259 0.98859,-10.874481 2.96576,-13.840249 1.97718,-2.965767 4.74523,-4.349805 8.30415,-4.349805 2.76806,0 4.94295,1.186313 6.12926,3.361216 1.1863,2.174887 1.97718,4.942946 1.97718,8.304146 v 31.239423 h 20.16722 v -34.20519 c 0.19772,-7.908714 -1.18632,-14.037974 -3.95436,-18.585487 -2.76804,-4.34979 -8.30415,-6.722401 -16.60829,-6.722401 -4.15209,0 -8.10644,0.790865 -11.66537,2.570335 -3.55892,1.779455 -6.52469,4.547514 -8.8973,8.501871 -1.58175,-3.756649 -3.95436,-6.524692 -7.11783,-8.501871 -3.16349,-1.77947 -6.92013,-2.768059 -11.07221,-2.768059 -4.54751,0 -8.8973,0.988589 -12.45623,2.965768 -3.75663,1.977178 -6.52469,4.942946 -8.69957,9.095027 h -0.19773 V 32.228017 h -18.38776 z m 110.12884,0 h 20.16721 V 65.642326 c 0,-6.129259 0.98859,-10.874481 2.96577,-13.840249 1.97718,-2.965768 4.74524,-4.349789 8.30415,-4.349789 2.76806,0 4.94294,1.186297 6.12926,3.3612 1.18631,2.174902 1.97718,4.942946 1.97718,8.304146 v 31.239423 h 20.16721 V 65.84005 c 0,-6.129259 0.98859,-10.874481 2.96577,-13.840249 1.97718,-2.965767 4.74524,-4.349805 8.30415,-4.349805 2.76806,0 4.94294,1.186313 6.12926,3.361216 1.18631,2.174887 1.97717,4.942946 1.97717,8.304146 v 31.239423 h 20.16722 v -34.20519 c 0.19773,-7.908714 -1.1863,-14.037974 -3.95435,-18.585487 -2.76805,-4.34979 -8.30415,-6.722401 -16.6083,-6.722401 -4.15208,0 -8.10644,0.790865 -11.66536,2.570335 -3.55891,1.779455 -6.52468,4.547514 -8.8973,8.501871 -1.58173,-3.756649 -3.95436,-6.524692 -7.11784,-8.501871 -3.16349,-1.77947 -6.92012,-2.768059 -11.0722,-2.768059 -4.54752,0 -8.8973,0.988589 -12.45623,2.965768 -3.75663,1.977178 -6.52468,4.942946 -8.69958,9.095027 h -0.19772 V 32.228017 H 497.4581 Z M 638.2332,91.54337 c 9.8859,0 17.79461,-2.768059 24.12158,-7.908714 6.32697,-5.338394 9.49046,-12.653951 9.68817,-22.342119 -0.19771,-9.688184 -3.3612,-17.20145 -9.68817,-22.539844 -6.32697,-5.338379 -14.23568,-7.908714 -24.12158,-7.908714 -9.88589,0 -17.7946,2.768059 -24.12157,7.908714 -6.32698,5.14067 -9.49046,12.85166 -9.68818,22.539844 0.19772,9.688168 3.3612,17.201449 9.68818,22.342119 6.32697,5.140655 14.43339,7.908714 24.12157,7.908714 z m 0,-14.037973 c -4.54751,-0.197724 -7.90871,-1.779454 -10.08361,-4.942946 -2.17489,-3.163492 -3.16348,-6.920125 -2.96577,-11.467638 0,-4.547514 0.98859,-8.304147 2.96577,-11.467639 1.97718,-3.163476 5.33838,-4.745222 10.08361,-4.942946 4.54752,0.197724 7.90872,1.77947 10.0836,4.942946 2.17491,3.163492 3.1635,6.920125 2.96577,11.467639 0,4.349789 -0.98859,8.304146 -2.96577,11.467638 -2.17488,3.163492 -5.33837,4.745222 -10.0836,4.942946 z M 742.82594,6.5246969 H 722.65872 V 39.543574 H 722.461 c -2.57032,-3.3612 -5.53609,-5.536103 -8.89731,-6.920125 -3.3612,-1.384021 -7.11783,-1.977178 -11.07219,-1.977178 -8.10643,0.395432 -14.23568,3.3612 -18.38776,9.292735 -4.15208,5.931536 -6.32697,12.653936 -6.32697,19.969509 0,8.897303 2.37261,16.21286 6.7224,22.144395 4.54752,5.931536 11.07221,9.095012 19.77179,9.292736 4.74524,0 8.8973,-1.186313 12.45622,-3.3612 3.55893,-2.174903 6.12926,-4.942946 7.51329,-8.304146 h 0.1977 v 10.479033 h 18.58549 z M 698.14171,60.501656 c 0,-3.954357 0.98859,-7.315557 3.16348,-10.083601 2.1749,-2.768059 5.14067,-4.152081 9.09503,-4.349789 3.75663,0 6.7224,1.58173 8.8973,4.349789 2.17489,2.768044 3.3612,6.326968 3.3612,10.874482 0,4.349789 -1.38402,7.908714 -3.55892,10.676757 -2.17489,2.768059 -5.14066,4.152081 -8.69958,4.152081 -3.75665,0 -6.72242,-1.581746 -8.89731,-4.349789 -2.1749,-2.76806 -3.3612,-6.524692 -3.3612,-11.26993 z m 86.00727,31.041714 c 9.88589,0 17.7946,-2.768059 24.12157,-7.908714 6.32697,-5.338394 9.49046,-12.653951 9.68817,-22.342119 -0.19771,-9.688184 -3.3612,-17.20145 -9.68817,-22.539844 -6.32697,-5.338379 -14.23568,-7.908714 -24.12157,-7.908714 -9.8859,0 -17.79461,2.768059 -24.12159,7.908714 -6.32697,5.338394 -9.49045,12.85166 -9.68817,22.539844 0.19772,9.688168 3.3612,17.201449 9.68817,22.342119 6.32698,5.140655 14.4334,7.908714 24.12159,7.908714 z m 0,-14.037973 c -4.54752,-0.197724 -7.90872,-1.779454 -10.08362,-4.942946 -1.97718,-3.163492 -3.16349,-6.920125 -2.96577,-11.467638 0,-4.547514 0.98859,-8.304147 2.96577,-11.467639 1.97718,-3.163476 5.33838,-4.745222 10.08362,-4.942946 4.54749,0.197724 7.90871,1.77947 10.0836,4.942946 1.97718,3.163492 3.16349,6.920125 2.96576,11.467639 0,4.349789 -0.98858,8.304146 -2.96576,11.467638 -1.97718,3.163492 -5.33838,4.745222 -10.0836,4.942946 z M 868.7722,31.437136 c -0.98859,-0.197708 -2.17489,-0.395433 -3.3612,-0.395433 -1.1863,-0.197724 -2.37261,-0.197724 -3.55892,-0.197724 -4.34979,0 -7.90872,1.186314 -10.47904,3.361216 -2.76806,2.174887 -4.94294,5.140655 -6.72241,8.699579 h -0.19771 V 32.228017 h -18.38776 v 58.12904 h 20.16721 V 65.84005 c 0,-5.733827 1.18632,-10.28134 3.75664,-13.444816 2.57033,-3.163492 6.12926,-4.745238 10.87448,-4.745238 h 3.36121 c 1.1863,0 2.17489,0.197724 3.3612,0.593157 z m 63.072,35.589212 v -3.756633 c 0.19771,-8.897303 -2.1749,-16.608308 -6.52469,-22.737552 -4.54751,-6.326968 -12.06079,-9.49046 -22.73755,-9.885892 -9.29274,0 -16.60829,2.768043 -22.34212,7.908714 -5.73381,5.338378 -8.69958,12.653935 -8.69958,22.342119 0.19771,9.688168 3.3612,17.20145 9.68817,22.342104 6.32697,5.338395 14.23568,7.908714 24.12157,8.106438 3.75665,0 7.51328,-0.197724 11.07221,-0.790865 3.55892,-0.593157 7.11785,-1.581746 10.28132,-2.768059 V 73.55104 c -2.96576,1.581746 -6.12924,2.768043 -9.09501,3.3612 -2.96577,0.790881 -5.93153,0.988589 -8.69959,0.988589 -4.94295,0 -8.89731,-0.790865 -11.86307,-2.570335 -2.96577,-1.779454 -4.74523,-4.547498 -5.33838,-8.501854 z M 891.31205,55.55871 c 0.1977,-3.3612 1.18629,-6.326968 2.96576,-8.501855 1.77946,-2.372627 4.54752,-3.558924 8.10642,-3.558924 3.95436,0 6.92013,1.186297 8.50188,3.558924 1.77947,2.372611 2.57033,5.140655 2.57033,8.501855 z M 268.50083,90.752489 c -8.69958,-2.372611 -15.42199,-6.326968 -20.95809,-12.456227 -5.5361,-6.129244 -8.10643,-11.665347 -9.68818,-21.551239 -2.96576,-19.376352 5.33839,-37.170958 21.35353,-44.881947 8.10643,-3.9543574 18.98091,-5.9315358 29.85539,-5.9315358 6.72242,0 12.65395,1.1862975 18.19004,2.1748868 L 305.47407,25.5056 c 0,0 -1.38402,-0.395432 -5.33838,-1.384021 -3.75665,-0.988589 -7.51328,-1.384022 -11.26992,-1.384022 -7.51328,0 -14.82883,1.977178 -19.57407,5.733811 -11.26992,8.699595 -11.26992,31.437147 0.39543,40.927591 7.11785,5.931535 19.96951,7.908714 31.43715,4.942946 l 5.33838,-1.384022 1.58174,17.596898 c -3.3612,0.790865 -10.47905,2.174887 -19.17863,2.174887 -11.46763,0 -15.02656,-0.395433 -20.36494,-1.977179 z m -45.07967,10.083621 h 729.57885 v 5.93153 H 223.42116 Z"
       style="font-style:normal;font-variant:normal;font-weight:400;font-stretch:normal;font-size:54.2743px;line-height:1.25;font-family:BoobToob;-inkscape-font-specification:'BoobToob, Normal';font-variant-ligatures:discretionary-ligatures historical-ligatures;font-variant-caps:normal;font-variant-numeric:normal;font-feature-settings:normal;text-align:start;letter-spacing:0;word-spacing:0;writing-mode:lr-tb;text-anchor:start;fill:#3771c8;fill-opacity:1;stroke:none;stroke-width:1.60965"
       id="path6"
       inkscape:label="commodore" />
    <path
       d="m 333.55,195.93838 c 0,-0.98859 -0.19771,-1.77945 -0.79087,-1.97718 -0.59315,-0.39543 -1.18631,-0.59314 -2.1749,-0.59314 -3.16348,-0.59316 -4.94295,-1.77947 -5.5361,-3.55892 -0.59314,-1.97718 -0.79087,-4.34979 -0.79087,-7.31556 l -3.16349,-60.8971 c 0,-2.1749 -0.19771,-3.95436 -0.59314,-5.5361 -0.39545,-1.38403 -1.77947,-2.17491 -4.34981,-2.37261 -2.17488,0 -3.75663,0.79086 -4.74522,1.97717 -0.98859,1.1863 -1.97718,2.76805 -3.16349,4.34979 l -39.14812,54.96557 -6.52469,9.29273 c -1.38402,1.97718 -2.76805,3.75664 -4.15208,5.53611 -1.58174,1.77945 -3.55892,2.76804 -5.93154,3.16347 -1.38402,0.19773 -2.57033,0.39545 -3.75663,0.79088 -1.18631,0.39544 -1.77946,1.38402 -1.97718,2.96577 0,0.98859 0.39543,1.58175 0.98859,1.77945 0.59315,0.19773 1.38402,0.39544 2.17489,0.39544 2.1749,0 4.54751,-0.19771 6.92013,-0.39544 2.37261,-0.1977 4.5475,-0.39543 6.92012,-0.39543 2.1749,0 4.15208,0.19773 6.12926,0.39543 1.97717,0.19773 4.15208,0.19773 6.12925,0.39544 0.98859,0 1.77946,-0.19771 2.57032,-0.59314 0.79089,-0.39545 1.18632,-1.18632 1.18632,-2.17491 -0.19773,-1.58174 -0.98859,-2.37261 -2.76805,-2.57033 -1.77947,-0.19771 -3.36121,-0.59316 -5.14067,-0.98859 -1.77945,-0.39543 -2.57033,-1.58175 -2.76804,-3.75663 0.39543,-2.17491 1.77945,-5.33838 4.34979,-9.29274 2.57033,-3.95436 4.34979,-6.92012 5.5361,-8.50187 h 24.31928 c 0.19773,2.57034 0.19773,5.14066 0.39545,7.71099 0.19771,2.57034 0.19771,5.14067 0.19771,7.71101 -0.19771,3.5589 -0.98859,5.73381 -2.76804,6.32696 -1.77947,0.59316 -3.55893,0.98859 -5.14067,0.98859 -1.77946,0 -2.76805,1.1863 -2.76805,2.96577 0,0.79087 0.19771,1.38402 0.79087,1.77945 0.59316,0.39544 1.18631,0.39544 1.97718,0.39544 3.3612,0 6.72241,-0.19771 10.08361,-0.39544 3.3612,-0.1977 6.7224,-0.39543 10.0836,-0.39543 2.17491,0 4.54752,0.19773 6.72242,0.19773 2.17489,0.1977 4.54751,0.1977 6.7224,0.1977 0.98859,0 1.97718,-0.1977 2.57034,-0.39543 0.98859,-0.39543 1.38402,-0.98859 1.38402,-2.1749 z m -30.05311,-31.0417 h -20.36494 l 19.37635,-28.27365 z m 206.81287,-46.46369 c 0,-0.79087 -0.19772,-1.1863 -0.79088,-1.58175 -0.39543,-0.39543 -0.98859,-0.59314 -1.77945,-0.59314 -1.18632,0 -2.17491,0 -3.1635,0.19771 -0.98859,0 -2.17488,0.19772 -3.16347,0.39543 -2.76806,0.19773 -5.3384,0.39545 -8.10644,0.59316 h -8.30415 c -1.97717,0 -3.95435,-0.19771 -6.12926,-0.19771 -1.97717,-0.19772 -3.95435,-0.19772 -6.12924,-0.19772 -0.98859,0 -1.77947,0.19772 -2.57033,0.79086 -0.79089,0.59316 -1.18632,1.38404 -1.18632,2.37263 0.39543,1.77945 1.77947,2.76804 4.15208,2.57032 2.37261,-0.19771 3.75664,0.98859 4.15207,3.16349 0,0.59316 0,1.18631 -0.19771,1.97718 -0.19772,0.59315 -0.39543,1.18631 -0.59316,1.97718 l -15.42199,53.38381 c -0.59316,2.57034 -1.1863,4.74523 -1.97718,6.5247 -0.79087,1.77945 -2.37261,2.96576 -4.94295,3.55892 -1.18629,0.19771 -2.57033,0.39543 -4.15206,0.79087 -1.58175,0.39543 -2.57034,1.38402 -2.57034,2.76804 0,0.79088 0.39544,1.38404 0.98859,1.77947 0.59316,0.39543 1.38402,0.59316 2.17489,0.59316 2.57033,0 5.33839,-0.19773 7.90871,-0.39545 2.76806,-0.19771 5.3384,-0.39544 8.10644,-0.39544 2.96577,0 5.73381,0.19773 8.69958,0.39544 2.96577,0.19772 5.73383,0.19772 8.69959,0.39545 1.1863,0 2.57034,0 4.15207,-0.19773 1.58175,-0.19772 2.37263,-0.98859 2.57033,-2.57033 -0.1977,-1.58175 -0.98858,-2.37261 -2.37261,-2.57034 -1.38402,-0.19771 -2.96576,-0.39543 -4.34979,-0.79086 -1.38402,-0.39544 -2.1749,-1.77946 -2.37261,-4.15208 0,-0.98859 0.19771,-1.97718 0.39544,-2.96577 0.1977,-0.98859 0.59315,-1.97718 0.79086,-2.96577 l 15.422,-53.58153 c 0.59315,-2.1749 1.18631,-3.75665 1.97717,-4.74523 0.79087,-0.98859 2.37262,-1.77946 4.54752,-2.17489 1.1863,-0.19773 2.37261,-0.39543 3.75663,-0.98859 0.98859,-0.98859 1.58175,-1.77947 1.77947,-3.16349 z m 80.27344,0.59315 c -0.19771,-1.38402 -1.58175,-2.1749 -3.95436,-2.76804 -2.57034,-0.59316 -5.14065,-0.79088 -7.90871,-0.98859 -2.76805,-0.19772 -4.54752,-0.19772 -5.53611,-0.19772 -10.28132,0 -20.95808,2.1749 -32.03028,6.12926 -11.07219,4.15206 -20.56265,10.0836 -28.47137,17.99231 -7.90871,7.90872 -12.06079,17.5969 -12.2585,29.06452 0.19771,7.31557 2.17489,13.24711 6.32697,17.99233 4.15206,4.74522 9.09501,8.30415 15.42199,10.67676 6.12925,2.37263 12.45621,3.55892 19.17863,3.55892 3.95436,0 7.90871,-0.19771 12.06078,-0.79086 3.95436,-0.39543 7.90871,-1.18632 11.86307,-2.1749 1.38404,-0.19771 2.76806,-0.59316 3.75665,-1.1863 0.98859,-0.39545 1.77945,-1.38404 2.37261,-2.96577 0.98859,-2.96577 1.97718,-6.12926 2.96577,-9.29275 0.98859,-3.16348 1.77945,-6.32697 2.57033,-9.29274 1.38402,-4.34979 3.16348,-7.11783 5.14066,-7.90871 1.97717,-0.79087 3.75664,-1.1863 5.33839,-1.1863 1.58173,0 2.37261,-0.98859 2.37261,-2.96577 0,-0.79088 -0.39543,-1.38403 -0.98859,-1.77947 -0.59315,-0.39543 -1.38402,-0.59315 -1.97718,-0.59315 -2.96576,0 -6.12926,0.19772 -9.09502,0.39545 -3.16348,0.1977 -6.12925,0.39543 -9.29274,0.39543 -2.96577,0 -5.93153,-0.19773 -8.69958,-0.39543 -2.96577,-0.19773 -5.93153,-0.39545 -8.69959,-0.39545 -0.98859,0 -1.97718,0.19772 -2.76805,0.59315 -0.98859,0.39544 -1.38402,1.18632 -1.38402,2.17491 0.19771,1.38402 0.98859,2.17488 2.37261,2.37261 1.58175,0.19772 2.96577,0.39543 4.54752,0.98859 1.58173,0.39543 2.37261,1.77945 2.37261,3.95435 -0.19773,2.37261 -0.79088,5.33838 -2.1749,9.49046 -1.1863,3.95436 -2.37262,7.11784 -3.16348,9.68817 -0.39545,1.77947 -1.18631,3.16349 -1.97718,3.95436 -0.79088,0.79088 -2.1749,1.18631 -4.15208,1.18631 -7.11785,-0.19772 -12.65394,-2.37261 -16.21286,-6.92012 -3.75665,-4.54752 -5.5361,-10.08362 -5.5361,-17.00374 0,-6.32697 1.38402,-12.65394 3.95435,-18.58547 2.57034,-5.93154 6.12926,-11.26992 10.47905,-15.81743 4.34979,-4.34979 9.88589,-8.10644 16.21286,-11.26992 6.52469,-3.16349 12.85166,-4.74523 19.17863,-4.94294 2.96577,0 4.74524,0.59314 5.5361,1.77945 0.59316,1.18632 0.98859,3.16349 0.79087,5.93154 0,0.79086 0,1.38402 -0.19771,2.1749 0,0.79087 -0.19772,1.38402 -0.19772,2.17489 0,1.18631 0.19772,2.37261 0.59315,3.3612 0.39544,0.98859 1.38402,1.58174 2.76805,1.58174 1.58174,-0.19771 2.57033,-0.79086 3.36121,-2.17488 0.79087,-1.38404 1.1863,-2.76806 1.58173,-3.95436 0.39545,-0.98859 0.98859,-2.96577 1.97718,-6.12926 0.79088,-3.16349 1.38404,-5.14067 1.58175,-5.93154 z m 69.99212,76.91224 c 0,-0.98859 -0.19772,-1.77945 -0.79088,-1.97718 -0.59315,-0.39543 -1.1863,-0.59314 -2.17488,-0.59314 -3.1635,-0.59316 -4.94295,-1.77947 -5.53611,-3.55892 -0.59315,-1.97718 -0.79088,-4.34979 -0.79088,-7.31556 l -3.16347,-60.8971 c 0,-2.1749 -0.19773,-3.95436 -0.59316,-5.5361 -0.39543,-1.38403 -1.77946,-2.17491 -4.34979,-2.37261 -2.1749,0 -3.75665,0.79086 -4.74524,1.97717 -0.98859,1.1863 -1.97718,2.76805 -3.16347,4.34979 l -39.14814,54.96557 -6.52469,9.29273 c -1.38402,1.97718 -2.76805,3.75664 -4.15207,5.53611 -1.58174,1.77945 -3.55892,2.76804 -5.93153,3.16347 -1.38404,0.19773 -2.57034,0.39545 -3.75665,0.79088 -1.1863,0.39544 -1.77946,1.38402 -1.97718,2.96577 0,0.98859 0.39543,1.58175 0.98859,1.77945 0.59316,0.19773 1.38402,0.39544 2.1749,0.39544 2.17489,0 4.54752,-0.19771 6.92013,-0.39544 2.37261,-0.1977 4.54751,-0.39543 6.92012,-0.39543 2.17489,0 4.15207,0.19773 6.12924,0.39543 2.17491,0.19773 4.15209,0.19773 6.12926,0.39544 0.98859,0 1.77946,-0.19771 2.57034,-0.59314 0.79086,-0.39545 1.1863,-1.18632 1.1863,-2.17491 -0.19771,-1.58174 -0.98859,-2.37261 -2.76805,-2.57033 -1.77945,-0.19771 -3.3612,-0.59316 -5.14067,-0.98859 -1.77945,-0.39543 -2.57032,-1.58175 -2.76804,-3.75663 0.39543,-2.17491 1.77945,-5.33838 4.34979,-9.29274 2.57033,-3.95436 4.34979,-6.92012 5.5361,-8.50187 h 24.51701 c 0.19772,2.57034 0.19772,5.14066 0.39545,7.71099 0.1977,2.57034 0.1977,5.14067 0.1977,7.71101 -0.1977,3.5589 -0.98858,5.73381 -2.76804,6.32696 -1.77947,0.59316 -3.55892,0.98859 -5.14067,0.98859 -1.77945,0 -2.76804,1.1863 -2.76804,2.96577 0,0.79087 0.19771,1.38402 0.79086,1.77945 0.59316,0.39544 1.18632,0.39544 1.97718,0.39544 3.3612,0 6.72242,-0.19771 10.08362,-0.39544 3.3612,-0.1977 6.7224,-0.39543 10.0836,-0.39543 2.1749,0 4.54751,0.19773 6.72241,0.19773 2.17489,0.1977 4.54752,0.1977 6.7224,0.1977 0.98859,0 1.97718,-0.1977 2.57034,-0.39543 0.79086,-0.39543 1.18631,-0.98859 1.18631,-2.1749 z m -30.25083,-31.0417 H 609.95955 L 629.3359,136.62303 Z M 458.50767,118.82842 c 0,-0.79086 -0.19771,-1.38402 -0.79086,-1.77945 -0.39543,-0.39544 -0.98859,-0.59316 -1.77946,-0.59316 -2.57033,0 -5.14067,0 -7.711,0.19772 -2.57034,0.19771 -5.14066,0.19771 -7.71099,0.19771 -1.38402,0 -3.3612,-0.19771 -6.12926,-0.19771 -2.76804,0 -4.54751,0.19771 -5.5361,0.98859 -0.19771,0.19771 -0.39544,0.59316 -0.39544,0.79087 -0.1977,0.39543 -0.39543,0.59315 -0.39543,0.79088 l -33.61203,50.81348 -1.38402,-50.02262 c 0,-0.98859 0,-1.77945 -0.19773,-2.37261 -0.19771,-0.79088 -0.79086,-0.98859 -1.77945,-1.18631 -2.76806,0 -5.73383,0 -8.50187,0.19772 h -8.50187 c -1.58175,0 -3.16348,-0.19772 -4.74523,-0.19772 -1.58174,-0.19771 -3.16349,-0.19771 -4.74523,-0.19771 -0.98859,0 -1.97718,0.19771 -2.96577,0.39543 -0.98859,0.39544 -1.38402,0.98859 -1.58173,2.17489 0.39543,1.97718 1.97718,2.96577 4.5475,2.76806 2.76806,0 4.15208,0.98859 4.54751,2.76804 0,1.38402 -0.39543,2.76806 -0.79086,4.15208 -0.59316,1.38403 -0.98859,2.76805 -1.38403,3.95436 -2.96576,8.30415 -5.93153,16.41059 -8.8973,24.71473 -2.96577,8.30415 -5.93153,16.41059 -9.09503,24.71473 -1.18631,3.55893 -2.37261,5.93154 -3.55892,7.31556 -1.1863,1.38402 -3.55893,2.37261 -7.31556,2.96577 -0.98859,0.19772 -1.97718,0.39543 -2.76804,0.98859 -0.79088,0.39543 -1.18632,1.18631 -1.18632,2.37261 0,0.98859 0.39544,1.58174 0.98859,1.97718 0.59316,0.19772 1.38403,0.39543 2.37262,0.39543 2.1749,0 4.34978,0 6.52469,-0.19771 2.1749,-0.19772 4.34979,-0.19772 6.52469,-0.19772 1.97718,0 3.95436,0.19772 5.93153,0.39543 1.97718,0.19772 3.95436,0.19772 5.93154,0.39545 0.98859,0 1.77945,-0.19773 2.57034,-0.59316 0.79086,-0.39543 1.18629,-1.18631 1.38402,-2.1749 -0.19773,-1.77946 -0.98859,-2.57034 -2.76806,-2.76805 -1.77946,-0.19772 -3.55891,-0.39543 -5.33838,-0.79088 -1.77946,-0.39543 -2.76804,-1.97718 -2.76804,-4.74522 0.1977,-3.75663 1.58174,-9.49046 4.15206,-17.20145 2.57034,-7.51328 5.14067,-15.02656 8.10644,-22.14439 2.76804,-7.11785 4.74522,-11.86307 5.73381,-14.43341 l 1.38404,58.12904 c 0,1.77947 0.19771,3.16349 0.59314,4.34979 0.39545,0.98859 1.58174,1.58175 3.55892,1.58175 1.97718,0 3.55893,-0.79087 4.74524,-2.17489 1.1863,-1.38404 2.17489,-2.76806 3.16348,-4.34981 l 39.14813,-57.53588 -12.85166,48.63858 c -0.39543,2.1749 -0.98859,4.15208 -1.77945,6.32698 -0.79088,2.17489 -2.37263,3.3612 -4.54751,3.95436 -1.38403,0 -2.76806,0.39543 -4.34979,0.59314 -1.58175,0.39545 -2.57034,1.38404 -2.76806,2.96577 0,0.98859 0.39543,1.58175 0.98859,1.97718 0.59315,0.39545 1.38402,0.59315 2.1749,0.59315 2.76804,0 5.73381,-0.1977 8.50187,-0.39543 2.76804,-0.19772 5.73381,-0.39543 8.50185,-0.39543 2.96577,0 5.93154,0.19771 8.6996,0.39543 2.96577,0.19773 5.93153,0.39543 8.69958,0.39543 1.18631,0 1.97718,-0.1977 2.96576,-0.59315 0.79089,-0.39543 1.38403,-1.1863 1.38403,-2.37261 -0.19771,-1.38402 -0.79087,-2.37261 -2.17489,-2.57034 -1.38402,-0.19771 -2.76806,-0.59314 -4.15208,-0.98859 -1.38402,-0.39543 -2.17489,-1.58173 -2.17489,-3.75663 0,-1.38402 0.19771,-2.96577 0.59314,-4.54751 0.39545,-1.58175 0.59316,-2.96577 0.98859,-4.34979 l 12.45623,-50.02262 c 0.39543,-2.17489 0.98859,-3.95436 1.77947,-5.14066 0.79086,-1.18631 2.17489,-1.97717 4.5475,-2.37262 1.18631,0 2.37262,-0.39543 3.55892,-0.79087 0.59316,0.19773 1.38402,-0.59315 1.38402,-2.1749 z"
       style="font-style:normal;font-variant:normal;font-weight:400;font-stretch:normal;font-size:54.2743px;line-height:1.25;font-family:BoobToob;-inkscape-font-specification:'BoobToob, Normal';font-variant-ligatures:discretionary-ligatures historical-ligatures;font-variant-caps:normal;font-variant-numeric:normal;font-feature-settings:normal;text-align:start;letter-spacing:0;word-spacing:0;writing-mode:lr-tb;text-anchor:start;fill:#ff0000;fill-opacity:1;stroke:none;stroke-width:1.60965"
       id="path8"
       inkscape:label="Amiga" />
    <path
       id="path2433"
       style="color:#000000;font-size:78.8314px;font-family:Bahnschrift;-inkscape-font-specification:'Bahnschrift, Normal';display:inline;fill:#3771c8;fill-opacity:1;stroke:none;stroke-width:1.9044;-inkscape-stroke:none"
       d="m 760.44712,114.37958 -21.18165,35.81022 v 0.003 c -0.30905,0.52751 -0.61762,1.07411 -0.92604,1.63763 -0.31953,0.5454 -0.61564,1.10738 -0.88884,1.6893 -1.61096,3.28431 -2.84316,6.62824 -3.69434,10.03091 -0.85091,3.40157 -1.27848,6.66263 -1.27848,9.77873 v 0.0543 c 0,5.32852 1.05548,9.94141 3.20756,13.81001 l 0.003,0.003 0.003,0.006 c 2.19748,3.82892 5.41654,6.80102 9.60251,8.84236 h 0.006 l 0.003,0.003 c 4.06797,1.94566 8.94258,2.8897 14.50816,2.94607 l 0.0501,0.0434 h 0.42633 c 5.78053,0 10.79614,-1.0036 14.98772,-3.04684 l 0.003,-0.003 c 4.23452,-2.04354 7.46079,-5.06075 9.61285,-8.96845 2.19424,-3.90489 3.27111,-8.55203 3.27111,-13.91594 v -0.0574 c 0,-5.244 -0.94003,-9.76791 -2.86184,-13.55576 -1.92049,-3.82246 -4.77576,-6.78517 -8.52919,-8.80204 -3.75363,-2.01694 -8.24098,-3.01222 -13.37748,-3.01222 -2.51192,0 -4.74281,0.45614 -6.77426,1.21388 l 20.69227,-34.51004 z m -0.81855,46.11553 c 4.2708,0 7.35967,1.14472 9.58598,3.45922 v 0.003 l 0.003,0.003 c 2.22464,2.27824 3.39876,5.58725 3.39876,10.04486 v 0.0574 c 0,4.036 -1.12025,7.01313 -3.24787,9.0687 l -0.003,0.003 -0.003,0.003 c -2.0846,2.0527 -5.00927,3.08095 -9.07283,3.08095 -4.01563,0 -6.94694,-1.01435 -9.07593,-3.03237 -2.08327,-2.05424 -3.18431,-5.03 -3.18431,-9.0656 v -0.0574 c 0,-4.46964 1.07579,-7.82389 3.10059,-10.13943 2.0249,-2.31562 4.74008,-3.4277 8.49871,-3.4277 z"
       inkscape:label="6" />
    <path
       id="path2439"
       style="color:#000000;font-size:78.8314px;font-family:Bahnschrift;-inkscape-font-specification:'Bahnschrift, Normal';display:inline;fill:#3771c8;fill-opacity:1;stroke:none;stroke-width:1.9044;-inkscape-stroke:none"
       d="m 832.43033,113.36311 c -9.13085,1.6e-4 -16.26587,2.11735 -21.1677,6.41718 -4.89116,4.25298 -7.30447,10.23812 -7.30447,17.77049 v 37.3016 c 0,7.49405 2.38875,13.47531 7.23057,17.7648 l 0.003,0.003 c 4.90326,4.30293 12.06243,6.41667 21.23901,6.41667 9.13169,0 16.265,-2.09327 21.16822,-6.35672 l 0.003,-0.003 c 4.88813,-4.28965 7.30085,-10.29239 7.30085,-17.82475 v -37.30212 c 0,-7.56749 -2.41077,-13.57099 -7.30085,-17.82475 -4.86111,-4.26709 -11.99642,-6.36224 -21.1708,-6.3624 h -5.2e-4 z m -5.2e-4,12.70775 h 0.002 c 4.62542,0 7.80585,1.01151 9.81077,2.92385 l 0.003,0.003 0.003,0.003 c 2.03026,1.90251 3.10369,4.70359 3.10369,8.55039 v 37.30211 c 0,3.84401 -1.08933,6.6608 -3.16725,8.60465 -2.00438,1.87826 -5.1711,2.87476 -9.75392,2.87476 -4.57695,0 -7.76339,-0.9952 -9.81387,-2.87476 -2.03345,-1.94234 -3.10731,-4.76088 -3.10731,-8.60465 V 137.5511 c 0,-3.8468 1.07344,-6.64788 3.10369,-8.55039 l 0.003,-0.003 0.003,-0.003 c 2.00492,-1.91234 5.18535,-2.92385 9.81077,-2.92385 z"
       inkscape:label="0" />
    <path
       id="path2445"
       style="color:#000000;font-size:78.8314px;font-family:Bahnschrift;-inkscape-font-specification:'Bahnschrift, Normal';display:inline;fill:#3771c8;fill-opacity:1;stroke:none;stroke-width:1.9044;-inkscape-stroke:none"
       d="m 904.5081,113.36311 c -9.13109,8e-5 -16.26578,2.11727 -21.1677,6.41718 -4.89116,4.25298 -7.30447,10.23812 -7.30447,17.77049 v 37.3016 c 0,7.49405 2.38876,13.47531 7.23057,17.7648 l 0.003,0.003 c 4.90323,4.30293 12.06244,6.41667 21.23901,6.41667 9.13168,0 16.26498,-2.09327 21.16822,-6.35672 v -0.003 h 0.003 c 4.8881,-4.28965 7.30085,-10.29239 7.30085,-17.82475 v -37.30212 c 0,-7.56749 -2.4108,-13.57099 -7.30085,-17.82475 -4.86121,-4.26717 -11.9967,-6.36232 -21.17132,-6.3624 z m -5.2e-4,12.70775 h 0.001 c 4.62539,0 7.80583,1.0115 9.81077,2.92385 l 0.003,0.003 0.003,0.003 c 2.03027,1.90251 3.10368,4.70359 3.10368,8.55039 v 37.30211 c 0,3.84401 -1.09292,6.6608 -3.17086,8.60465 -2.00436,1.87826 -5.16749,2.87476 -9.75031,2.87476 -4.58061,0 -7.77027,-0.99538 -9.82059,-2.87786 -2.03157,-1.94223 -3.10059,-4.75959 -3.10059,-8.60155 V 137.5511 c 0,-3.8468 1.07342,-6.64788 3.10369,-8.55039 l 0.003,-0.003 v -0.003 c 2.00492,-1.91234 5.18846,-2.92385 9.81387,-2.92385 z"
       inkscape:label="0" />
  </g>
</svg>
