<svg xmlns="http://www.w3.org/2000/svg" xml:space="preserve" viewBox="-64 344.8 600.505 131.065" width="600.505" height="131.065">
    <g aria-label="500" style="font-style:normal;font-variant:normal;font-weight:400;font-stretch:normal;font-size:54.27433777px;line-height:1.25;font-family:BoobToob;-inkscape-font-specification:'BoobToob, Normal';font-variant-ligatures:discretionary-ligatures historical-ligatures;font-variant-caps:normal;font-variant-numeric:normal;font-feature-settings:normal;text-align:start;letter-spacing:0;word-spacing:0;writing-mode:lr-tb;text-anchor:start;fill:red;fill-opacity:1;stroke:none;stroke-width:.81411511" id="a">
        <path d="M-11.4 344.8c-29.1 0-52.6 23.6-52.6 52.6 0 29.1 23.6 52.6 52.6 52.6 5.6 0 11-.9 16-2.5v-26.3c-4.4 2.5-9.5 4-14.9 4-16 0-28.9-12.5-28.9-27.8s13-27.8 28.9-27.8c5.5 0 10.6 1.5 14.9 4v-26.3c-5-1.6-10.4-2.5-16-2.5zM26.7 395.7H5.1v-18.3h39.2z" style="fill:#3771c8" transform="translate(15.735 -84.773) scale(1.24586)"/>
        <path style="fill:red" d="M26.7 399.4H5.1v18.3h39.2z" transform="translate(15.735 -84.773) scale(1.24586)"/>
        <path d="M110.6 391.1c5 0 9-1.4 12.2-4 3.2-2.7 4.8-6.4 4.9-11.3-.1-4.9-1.7-8.7-4.9-11.4-3.2-2.7-7.2-4-12.2-4-5 0-9 1.4-12.2 4-3.2 2.6-4.8 6.5-4.9 11.4.1 4.9 1.7 8.7 4.9 11.3 3.2 2.6 7.2 4 12.2 4zm0-7.1c-2.3-.1-4-.9-5.1-2.5-1.1-1.6-1.6-3.5-1.5-5.8 0-2.3.5-4.2 1.5-5.8 1-1.6 2.7-2.4 5.1-2.5 2.3.1 4 .9 5.1 2.5 1.1 1.6 1.6 3.5 1.5 5.8 0 2.2-.5 4.2-1.5 5.8-1.1 1.6-2.8 2.4-5.1 2.5zM131.8 390.4H142V378c0-3.1.5-5.5 1.5-7s2.4-2.2 4.2-2.2c1.4 0 2.5.6 3.1 1.7.6 1.1 1 2.5 1 4.2v15.8H162v-12.4c0-3.1.5-5.5 1.5-7s2.4-2.2 4.2-2.2c1.4 0 2.5.6 3.1 1.7.6 1.1 1 2.5 1 4.2v15.8H182v-17.3c.1-4-.6-7.1-2-9.4-1.4-2.2-4.2-3.4-8.4-3.4-2.1 0-4.1.4-5.9 1.3-1.8.9-3.3 2.3-4.5 4.3-.8-1.9-2-3.3-3.6-4.3-1.6-.9-3.5-1.4-5.6-1.4-2.3 0-4.5.5-6.3 1.5-1.9 1-3.3 2.5-4.4 4.6h-.1v-5.4h-9.3zM187.5 390.4h10.2V378c0-3.1.5-5.5 1.5-7s2.4-2.2 4.2-2.2c1.4 0 2.5.6 3.1 1.7.6 1.1 1 2.5 1 4.2v15.8h10.2v-12.4c0-3.1.5-5.5 1.5-7s2.4-2.2 4.2-2.2c1.4 0 2.5.6 3.1 1.7.6 1.1 1 2.5 1 4.2v15.8h10.2v-17.3c.1-4-.6-7.1-2-9.4-1.4-2.2-4.2-3.4-8.4-3.4-2.1 0-4.1.4-5.9 1.3-1.8.9-3.3 2.3-4.5 4.3-.8-1.9-2-3.3-3.6-4.3-1.6-.9-3.5-1.4-5.6-1.4-2.3 0-4.5.5-6.3 1.5-1.9 1-3.3 2.5-4.4 4.6h-.1v-5.4h-9.3zM258.8 391.1c5 0 9-1.4 12.2-4 3.2-2.7 4.8-6.4 4.9-11.3-.1-4.9-1.7-8.7-4.9-11.4-3.2-2.7-7.2-4-12.2-4-5 0-9 1.4-12.2 4-3.2 2.6-4.8 6.5-4.9 11.4.1 4.9 1.7 8.7 4.9 11.3 3.2 2.6 7.3 4 12.2 4zm0-7.1c-2.3-.1-4-.9-5.1-2.5-1.1-1.6-1.6-3.5-1.5-5.8 0-2.3.5-4.2 1.5-5.8 1-1.6 2.7-2.4 5.1-2.5 2.3.1 4 .9 5.1 2.5 1.1 1.6 1.6 3.5 1.5 5.8 0 2.2-.5 4.2-1.5 5.8-1.1 1.6-2.7 2.4-5.1 2.5zM311.7 348.1h-10.2v16.7h-.1c-1.3-1.7-2.8-2.8-4.5-3.5-1.7-.7-3.6-1-5.6-1-4.1.2-7.2 1.7-9.3 4.7-2.1 3-3.2 6.4-3.2 10.1 0 4.5 1.2 8.2 3.4 11.2 2.3 3 5.6 4.6 10 4.7 2.4 0 4.5-.6 6.3-1.7 1.8-1.1 3.1-2.5 3.8-4.2h.1v5.3h9.4zm-22.6 27.3c0-2 .5-3.7 1.6-5.1 1.1-1.4 2.6-2.1 4.6-2.2 1.9 0 3.4.8 4.5 2.2 1.1 1.4 1.7 3.2 1.7 5.5 0 2.2-.7 4-1.8 5.4-1.1 1.4-2.6 2.1-4.4 2.1-1.9 0-3.4-.8-4.5-2.2-1.1-1.4-1.7-3.3-1.7-5.7zM332.6 391.1c5 0 9-1.4 12.2-4 3.2-2.7 4.8-6.4 4.9-11.3-.1-4.9-1.7-8.7-4.9-11.4-3.2-2.7-7.2-4-12.2-4-5 0-9 1.4-12.2 4-3.2 2.7-4.8 6.5-4.9 11.4.1 4.9 1.7 8.7 4.9 11.3 3.2 2.6 7.3 4 12.2 4zm0-7.1c-2.3-.1-4-.9-5.1-2.5-1-1.6-1.6-3.5-1.5-5.8 0-2.3.5-4.2 1.5-5.8 1-1.6 2.7-2.4 5.1-2.5 2.3.1 4 .9 5.1 2.5 1 1.6 1.6 3.5 1.5 5.8 0 2.2-.5 4.2-1.5 5.8-1 1.6-2.7 2.4-5.1 2.5zM375.4 360.7c-.5-.1-1.1-.2-1.7-.2-.6-.1-1.2-.1-1.8-.1-2.2 0-4 .6-5.3 1.7-1.4 1.1-2.5 2.6-3.4 4.4h-.1v-5.4h-9.3v29.4H364v-12.4c0-2.9.6-5.2 1.9-6.8 1.3-1.6 3.1-2.4 5.5-2.4h1.7c.6 0 1.1.1 1.7.3zM407.3 378.7v-1.9c.1-4.5-1.1-8.4-3.3-11.5-2.3-3.2-6.1-4.8-11.5-5-4.7 0-8.4 1.4-11.3 4-2.9 2.7-4.4 6.4-4.4 11.3.1 4.9 1.7 8.7 4.9 11.3 3.2 2.7 7.2 4 12.2 4.1 1.9 0 3.8-.1 5.6-.4 1.8-.3 3.6-.8 5.2-1.4V382c-1.5.8-3.1 1.4-4.6 1.7-1.5.4-3 .5-4.4.5-2.5 0-4.5-.4-6-1.3s-2.4-2.3-2.7-4.3zm-20.5-5.8c.1-1.7.6-3.2 1.5-4.3.9-1.2 2.3-1.8 4.1-1.8 2 0 3.5.6 4.3 1.8.9 1.2 1.3 2.6 1.3 4.3zM71.8 390.7c-4.4-1.2-7.8-3.2-10.6-6.3-2.8-3.1-4.1-5.9-4.9-10.9-1.5-9.8 2.7-18.8 10.8-22.7 4.1-2 9.6-3 15.1-3 3.4 0 6.4.6 9.2 1.1l-.9 8.8s-.7-.2-2.7-.7c-1.9-.5-3.8-.7-5.7-.7-3.8 0-7.5 1-9.9 2.9-5.7 4.4-5.7 15.9.2 20.7 3.6 3 10.1 4 15.9 2.5l2.7-.7.8 8.9c-1.7.4-5.3 1.1-9.7 1.1-5.8 0-7.6-.2-10.3-1zM49 395.8h369v3H49z" style="fill:#3771c8" transform="translate(15.735 -84.773) scale(1.24586)"/>
        <path d="M104.7 443.9c0-.5-.1-.9-.4-1-.3-.2-.6-.3-1.1-.3-1.6-.3-2.5-.9-2.8-1.8-.3-1-.4-2.2-.4-3.7l-1.6-30.8c0-1.1-.1-2-.3-2.8-.2-.7-.9-1.1-2.2-1.2-1.1 0-1.9.4-2.4 1s-1 1.4-1.6 2.2l-19.8 27.8-3.3 4.7c-.7 1-1.4 1.9-2.1 2.8-.8.9-1.8 1.4-3 1.6-.7.1-1.3.2-1.9.4-.6.2-.9.7-1 1.5 0 .5.2.8.5.9.3.1.7.2 1.1.2 1.1 0 2.3-.1 3.5-.2 1.2-.1 2.3-.2 3.5-.2 1.1 0 2.1.1 3.1.2s2.1.1 3.1.2c.5 0 .9-.1 1.3-.3.4-.2.6-.6.6-1.1-.1-.8-.5-1.2-1.4-1.3-.9-.1-1.7-.3-2.6-.5-.9-.2-1.3-.8-1.4-1.9.2-1.1.9-2.7 2.2-4.7 1.3-2 2.2-3.5 2.8-4.3h12.3c.1 1.3.1 2.6.2 3.9.1 1.3.1 2.6.1 3.9-.1 1.8-.5 2.9-1.4 3.2-.9.3-1.8.5-2.6.5-.9 0-1.4.6-1.4 1.5 0 .4.1.7.4.9.3.2.6.2 1 .2 1.7 0 3.4-.1 5.1-.2 1.7-.1 3.4-.2 5.1-.2 1.1 0 2.3.1 3.4.1 1.1.1 2.3.1 3.4.1.5 0 1-.1 1.3-.2.5-.2.7-.5.7-1.1zm-15.2-15.7H79.2l9.8-14.3ZM194.1 404.7c0-.4-.1-.6-.4-.8-.2-.2-.5-.3-.9-.3-.6 0-1.1 0-1.6.1-.5 0-1.1.1-1.6.2-1.4.1-2.7.2-4.1.3h-4.2c-1 0-2-.1-3.1-.1-1-.1-2-.1-3.1-.1-.5 0-.9.1-1.3.4-.4.3-.6.7-.6 1.2.2.9.9 1.4 2.1 1.3 1.2-.1 1.9.5 2.1 1.6 0 .3 0 .6-.1 1-.1.3-.2.6-.3 1l-7.8 27c-.3 1.3-.6 2.4-1 3.3-.4.9-1.2 1.5-2.5 1.8-.6.1-1.3.2-2.1.4s-1.3.7-1.3 1.4c0 .4.2.7.5.9.3.2.7.3 1.1.3 1.3 0 2.7-.1 4-.2 1.4-.1 2.7-.2 4.1-.2 1.5 0 2.9.1 4.4.2 1.5.1 2.9.1 4.4.2.6 0 1.3 0 2.1-.1s1.2-.5 1.3-1.3c-.1-.8-.5-1.2-1.2-1.3-.7-.1-1.5-.2-2.2-.4-.7-.2-1.1-.9-1.2-2.1 0-.5.1-1 .2-1.5s.3-1 .4-1.5l7.8-27.1c.3-1.1.6-1.9 1-2.4s1.2-.9 2.3-1.1c.6-.1 1.2-.2 1.9-.5.5-.5.8-.9.9-1.6zM234.7 405c-.1-.7-.8-1.1-2-1.4-1.3-.3-2.6-.4-4-.5-1.4-.1-2.3-.1-2.8-.1-5.2 0-10.6 1.1-16.2 3.1-5.6 2.1-10.4 5.1-14.4 9.1s-6.1 8.9-6.2 14.7c.1 3.7 1.1 6.7 3.2 9.1 2.1 2.4 4.6 4.2 7.8 5.4 3.1 1.2 6.3 1.8 9.7 1.8 2 0 4-.1 6.1-.4 2-.2 4-.6 6-1.1.7-.1 1.4-.3 1.9-.6.5-.2.9-.7 1.2-1.5.5-1.5 1-3.1 1.5-4.7s.9-3.2 1.3-4.7c.7-2.2 1.6-3.6 2.6-4 1-.4 1.9-.6 2.7-.6.8 0 1.2-.5 1.2-1.5 0-.4-.2-.7-.5-.9-.3-.2-.7-.3-1-.3-1.5 0-3.1.1-4.6.2-1.6.1-3.1.2-4.7.2-1.5 0-3-.1-4.4-.2-1.5-.1-3-.2-4.4-.2-.5 0-1 .1-1.4.3-.5.2-.7.6-.7 1.1.1.7.5 1.1 1.2 1.2.8.1 1.5.2 2.3.5.8.2 1.2.9 1.2 2-.1 1.2-.4 2.7-1.1 4.8-.6 2-1.2 3.6-1.6 4.9-.2.9-.6 1.6-1 2-.4.4-1.1.6-2.1.6-3.6-.1-6.4-1.2-8.2-3.5-1.9-2.3-2.8-5.1-2.8-8.6 0-3.2.7-6.4 2-9.4s3.1-5.7 5.3-8c2.2-2.2 5-4.1 8.2-5.7 3.3-1.6 6.5-2.4 9.7-2.5 1.5 0 2.4.3 2.8.9.3.6.5 1.6.4 3 0 .4 0 .7-.1 1.1 0 .4-.1.7-.1 1.1 0 .6.1 1.2.3 1.7.2.5.7.8 1.4.8.8-.1 1.3-.4 1.7-1.1.4-.7.6-1.4.8-2 .2-.5.5-1.5 1-3.1.4-1.6.7-2.6.8-3zM270.1 443.9c0-.5-.1-.9-.4-1-.3-.2-.6-.3-1.1-.3-1.6-.3-2.5-.9-2.8-1.8-.3-1-.4-2.2-.4-3.7l-1.6-30.8c0-1.1-.1-2-.3-2.8-.2-.7-.9-1.1-2.2-1.2-1.1 0-1.9.4-2.4 1s-1 1.4-1.6 2.2l-19.8 27.8-3.3 4.7c-.7 1-1.4 1.9-2.1 2.8-.8.9-1.8 1.4-3 1.6-.7.1-1.3.2-1.9.4-.6.2-.9.7-1 1.5 0 .5.2.8.5.9.3.1.7.2 1.1.2 1.1 0 2.3-.1 3.5-.2 1.2-.1 2.3-.2 3.5-.2 1.1 0 2.1.1 3.1.2 1.1.1 2.1.1 3.1.2.5 0 .9-.1 1.3-.3.4-.2.6-.6.6-1.1-.1-.8-.5-1.2-1.4-1.3-.9-.1-1.7-.3-2.6-.5-.9-.2-1.3-.8-1.4-1.9.2-1.1.9-2.7 2.2-4.7 1.3-2 2.2-3.5 2.8-4.3h12.4c.1 1.3.1 2.6.2 3.9.1 1.3.1 2.6.1 3.9-.1 1.8-.5 2.9-1.4 3.2-.9.3-1.8.5-2.6.5-.9 0-1.4.6-1.4 1.5 0 .4.1.7.4.9.3.2.6.2 1 .2 1.7 0 3.4-.1 5.1-.2 1.7-.1 3.4-.2 5.1-.2 1.1 0 2.3.1 3.4.1 1.1.1 2.3.1 3.4.1.5 0 1-.1 1.3-.2.4-.2.6-.5.6-1.1zm-15.3-15.7h-10.3l9.8-14.3zM167.9 404.9c0-.4-.1-.7-.4-.9-.2-.2-.5-.3-.9-.3-1.3 0-2.6 0-3.9.1-1.3.1-2.6.1-3.9.1-.7 0-1.7-.1-3.1-.1-1.4 0-2.3.1-2.8.5-.1.1-.2.3-.2.4-.1.2-.2.3-.2.4l-17 25.7-.7-25.3c0-.5 0-.9-.1-1.2-.1-.4-.4-.5-.9-.6-1.4 0-2.9 0-4.3.1h-4.3c-.8 0-1.6-.1-2.4-.1-.8-.1-1.6-.1-2.4-.1-.5 0-1 .1-1.5.2-.5.2-.7.5-.8 1.1.2 1 1 1.5 2.3 1.4 1.4 0 2.1.5 2.3 1.4 0 .7-.2 1.4-.4 2.1-.3.7-.5 1.4-.7 2-1.5 4.2-3 8.3-4.5 12.5-1.5 4.2-3 8.3-4.6 12.5-.6 1.8-1.2 3-1.8 3.7-.6.7-1.8 1.2-3.7 1.5-.5.1-1 .2-1.4.5-.4.2-.6.6-.6 1.2 0 .5.2.8.5 1 .3.1.7.2 1.2.2 1.1 0 2.2 0 3.3-.1 1.1-.1 2.2-.1 3.3-.1 1 0 2 .1 3 .2s2 .1 3 .2c.5 0 .9-.1 1.3-.3.4-.2.6-.6.7-1.1-.1-.9-.5-1.3-1.4-1.4-.9-.1-1.8-.2-2.7-.4-.9-.2-1.4-1-1.4-2.4.1-1.9.8-4.8 2.1-8.7 1.3-3.8 2.6-7.6 4.1-11.2 1.4-3.6 2.4-6 2.9-7.3l.7 29.4c0 .9.1 1.6.3 2.2.2.5.8.8 1.8.8s1.8-.4 2.4-1.1c.6-.7 1.1-1.4 1.6-2.2l19.8-29.1-6.5 24.6c-.2 1.1-.5 2.1-.9 3.2s-1.2 1.7-2.3 2c-.7 0-1.4.2-2.2.3-.8.2-1.3.7-1.4 1.5 0 .5.2.8.5 1 .3.2.7.3 1.1.3 1.4 0 2.9-.1 4.3-.2s2.9-.2 4.3-.2c1.5 0 3 .1 4.4.2 1.5.1 3 .2 4.4.2.6 0 1-.1 1.5-.3.4-.2.7-.6.7-1.2-.1-.7-.4-1.2-1.1-1.3-.7-.1-1.4-.3-2.1-.5-.7-.2-1.1-.8-1.1-1.9 0-.7.1-1.5.3-2.3.2-.8.3-1.5.5-2.2l6.3-25.3c.2-1.1.5-2 .9-2.6.4-.6 1.1-1 2.3-1.2.6 0 1.2-.2 1.8-.4.3.1.7-.3.7-1.1z" style="fill:red" transform="translate(15.735 -84.773) scale(1.24586)"/>
        <g style="font-style:normal;font-variant:normal;font-weight:400;font-stretch:normal;font-size:53.22717667px;line-height:1.25;font-family:BoobToob;-inkscape-font-specification:'BoobToob, Normal';font-variant-ligatures:discretionary-ligatures historical-ligatures;font-variant-caps:normal;font-variant-numeric:normal;font-feature-settings:normal;text-align:start;letter-spacing:0;word-spacing:0;writing-mode:lr-tb;text-anchor:start;fill:red;fill-opacity:1;stroke:none;stroke-width:1.08332622" aria-label="500">
            <path style="stroke-width:1.08332622" d="M310.713 405.049q3.354-.16 13.627-.053 8.516 0 13.626-.426v-.745q-9.528-.692-26.295-.692-1.543.639-3.3.532-.16.266-.16.426 0 .479 1.118.532 1.171.053 1.384.426zm28.051 2.555.32-.266q0-.373-.16-.48-5.696-.638-14.531-.638H310.18l-2.768.426-.106.639 2.182.479q7.292.16 14.584.266 8.517.053 14.691-.426zm-29.435 3.087 24.112.16 4.631-.532.32-.267q-.054-.532-.799-.585-.905-.053-1.064-.32-15.17-.319-22.622-.053-3.78-.532-6.76.586 0 .585.426.745h.958q.586-.053.798.266zm8.197 2.502q.054-.053.692-.16.48-.053.48-.32 0-.212-.107-.425-1.544-.532-4.152-.532-3.406 0-4.205-.107-.319.213-1.65.373-1.064.16-1.384.745 1.757.852 4.684.852 1.225 0 5.642-.426zm1.065 2.342q-1.33-.745-3.78-.852-2.075-.053-4.15-.16-.373.213-1.917.373-1.224.16-1.49.852 2.714.851 6.014.851 2.076 0 4.525-.319.106-.107.479-.16.425-.106.425-.32 0-.106-.106-.265zm-8.623 1.916q-.266.213-1.703.373-1.118.106-1.011.798 2.022.798 4.79.798 1.437 0 5.642-.425.958-.107.958-.692 0-.107-.106-.267-1.65-.532-4.152-.585h-4.418zm21.664 4.418q.213-.16.585-.16.16 0 .48.053.319.054.478.054.426 0 .692-.426-.32-.639-1.543-.639-2.236.053-2.076.053-4.046-.532-10.113-.532-5.057 0-10.114-.053-.266.16-1.65.372-1.064.16-1.224.852.426.053 1.81.426 1.064.266 1.81.266 1.969 0 6.92.053 4.364.107 6.919.053 3.832-.053 7.026-.372zm1.543 3.14 3.992-.692q.053-.16.16-.372.106-.16-.213-.32-10.486-.692-26.347-.692l-3.407.692q-.106.639.745.852 1.33.32 1.437.373zm-13.52.905q-7.025-.373-11.39.213-.373.266-.373.745 5.855.905 13.467.905 2.235 0 17.086-.585.32-.054.692-.16.372-.107.213-.532-3.407-.692-8.09-.692-1.491 0-4.366.106-2.874.053-4.311.053-1.597 0-2.927-.053zm8.144 3.3-.16.48q4.685.957 9.688.798.32-.213 1.863-.32.905-.053 1.17-.798-3.725-.799-6.972-.799-3.034 0-5.589.64zm13.041 3.034q-2.821-.958-6.015-.958-2.714 0-5.163.745l-.266.532q2.076.746 4.95.746 1.118 0 6.068-.426l.266-.16q.266-.213.16-.479zm-10.007 2.289q-.266.16-1.756.16-1.118 0-1.171.745 3.885.958 9.474.426.16-.054 1.81-.107 1.118 0 1.064-.905-2.66-.638-5.322-.638-1.863 0-4.099.319zm-18.736 2.395q-1.33.373-4.151.745.106.639 1.064.905l1.597.426h25.07q.373-.266 2.076-.426 1.277-.106 1.543-.798-.958-.16-2.714-.692zm25.496 3.673q-8.197-.639-27.89-.745-.32.319-1.491.479-.958.16-1.118.692 1.17.532 4.524.692 9.9.372 22.941-.267.48-.266 1.65-.106 1.012.16 1.49-.213.107-.266-.106-.532zm-25.975 2.022q-1.224.16-3.62.586l.054.639q4.63.745 11.071.745 2.715 0 14.904-.532l.266-.533q-4.365-.958-11.284-.905-9.634.107-11.39 0zM365.236 405.155q.373-.212 1.012-.16h.958q.532-.106.638-.585-1.756-.053-5.429-.372-3.672-.32-5.695-.32-1.597 0-3.034.107-.692.32-2.023.32h-.958q-1.65 0-2.342.478l.426.426q9.049.532 10.486.532 3.406 0 5.961-.426zm3.673 2.822q.266-.213 1.011-.16.799 0 1.012-.053.479-.107.479-.692-3.513-.64-8.73-.64-1.703 0-5.11.107-3.353.054-5.003.054-1.916 0-3.46-.107-.532.266-2.022.373-1.437.106-2.023.532l.32.426q4.045.532 9.687.532-.426 0 13.839-.372zm-25.55 2.554q4.951.746 13.467.533 9.794-.213 13.467.053.32-.213 1.81-.373 1.117-.106 1.33-.851l-3.353-.64q-7.718.107-23.207 0-2.236.48-3.62.959 0 .32.107.32zm11.072 2.715v-.639q-4.79-1.064-9.847-.426-.32.267-1.224.32-.905 0-1.118.585 2.395.745 5.483.745 2.767 0 6.706-.585zm9.794-.852q-.266.107-.692.107h-.532q-.373-.053-.533-.053-.585 0-.851.479 2.555.798 6.28.798 1.385 0 6.015-.266.586-.213.48-.745-4.206-.745-6.548-.745-1.969 0-3.619.425zm-11.23 3.567q-.107-.799-1.438-.533-1.118-.638-3.247-.638-3.513.053-3.247.106-.372.16-1.703.373-1.065.16-1.384.745 2.395.692 5.43.692 3.14 0 5.588-.745zm13.466-1.012q-.32.32-1.704.266-1.17 0-1.17.799 2.022.692 5.056.692 2.714 0 6.121-.586l.16-.426q-2.076-.798-8.463-.745zm-24.432 3.726q2.236.692 5.004.692 1.863 0 3.672-.32.533 0 1.597-.106.586-.106.532-.851-2.874-.639-8.197-.426-.319.213-1.543.372-.905.107-1.065.64zm21.557-.426q1.757 1.065 4.844 1.065 1.224 0 3.194-.213 2.714-.213 3.087-.266l.266-.532-.266-.267q-4.684-.532-6.334-.532-2.821 0-4.79.745zm-13.147 3.673q.266-.16 1.597-.16 1.011 0 1.011-.745-1.597-.585-4.258-.585-4.152 0-4.418-.054-.266.32-1.543.533-1.012.16-.852.851 5.376.48 5.642.48 1.544 0 2.821-.32zm13.733-1.118q-.16.053-.373.213-.16.107-.053.32 2.555 1.064 8.57.585.266-.16.745-.16.16 0 .479.054h.479q.958 0 1.011-.799-2.768-.798-5.802-.798-2.555 0-5.056.585zm-11.71 3.726q.372-.266.372-.745-5.003-.692-6.387-.692-2.927 0-4.63 1.118 2.714.639 6.067.639 2.342 0 4.578-.32zm22.568-.905q-4.577-.532-6.44-.532-2.768 0-4.844.692v.426q2.448.745 5.642.745 3.14 0 5.855-.692.053-.16-.106-.32-.107-.212-.107-.319zm-33 3.034v.426q5.535.692 5.854.692 1.437 0 2.662-.32.213-.212 1.543-.159 1.012 0 1.065-.798-2.502-.746-5.323-.746-3.14 0-5.802.905zm30.18.799q.212-.107 1.702-.213 1.065-.053 1.171-.745-1.49-.692-4.045-.799.852.053-4.471.107-.266.16-1.65.266-1.011.106-1.118.851 4.63.692 6.121.692 1.225 0 2.29-.16zm-19.216 2.235v-.479q-2.129-.692-4.95-.692-2.395 0-5.908.586-.266.532-.266.585 2.182.692 5.163.692 3.246 0 5.961-.692zm13.254-1.17q-.267.212-1.384.319-.905.16-1.118.692 2.023.745 4.897.745 1.17 0 6.015-.426.585-.213.479-.745-1.65-.586-4.418-.533-3.513.054-4.471-.053zm-15.49 4.683q.267-.213.959-.16.745 0 .904-.053.426-.106.426-.692-1.65-.745-4.258-.798h-4.524q-.32.426-1.278.585-.958.107-1.064.586 2.714.639 8.836.532zm22.782-1.33q-1.97-.533-4.205-.533-2.821 0-5.589.799l.053.479q1.97.692 4.737.692 1.331 0 5.642-.373.054-.106.533-.16.32-.106.32-.266 0-.16-.054-.32-1.065-.425-1.437-.318zm-19.588 3.566q.373-.48-.16-.799-5.642-.585-8.942-.266-.213.107-1.384.213-.851.053-.958.745 2.183.692 5.217.692 2.714 0 6.227-.585zm18.79-.958q-2.343-.373-4.738-.373-2.768 0-5.27.48-.425.265-.106.744 2.928.692 5.908.692 2.609 0 4.738-.532 1.703-.053 1.65-.745-.32-.32-1.012-.266-1.064.053-1.17 0zm-2.13 2.395-7.877.106q-1.97 0-5.642-.16-3.886-.159-5.536-.159-4.897 0-8.144.958.266.692 1.065.692h.852q.638 0 1.01.266.746 0 13.52.053 8.144.054 13.467-.532l.426-.266q-.16-.745-.799-.745-.213 0-.692.106-.479.107-.745.107-.585 0-.905-.426zm-2.874 2.661q-2.182.107-10.965 0-6.76-.106-10.965.533-.319.053-.692.106-.319.053-.212.426.798.372 2.395.479 1.81.16 2.501.372 2.502-.106 6.388 0 5.056.107 6.227.107 5.536 0 9.421-.852v-.426q-1.383-.372-4.098-.745zm-2.555 2.981-13.04.053q-1.331.213-4.046.799.426.585 1.81.532 2.023-.053 2.076-.053 2.608.425 5.855.425 1.756 0 5.003-.16 3.513-.159 5.057-.159l.905-.479q-.267-.532-1.278-.585h-1.597q-.479-.054-.745-.373zM399.543 405.155q.372-.212 1.011-.16h.958q.533-.106.639-.585-1.756-.053-5.43-.372-3.672-.32-5.694-.32-1.597 0-3.034.107-.692.32-2.023.32h-.958q-1.65 0-2.342.478l.426.426q9.048.532 10.485.532 3.407 0 5.962-.426zm3.673 2.822q.266-.213 1.01-.16.8 0 1.012-.053.48-.107.48-.692-3.514-.64-8.73-.64-1.703 0-5.11.107-3.353.054-5.003.054-1.916 0-3.46-.107-.532.266-2.023.373-1.437.106-2.022.532l.32.426q4.044.532 9.686.532-.425 0 13.84-.372zm-25.55 2.554q4.95.746 13.467.533 9.794-.213 13.466.053.32-.213 1.81-.373 1.118-.106 1.33-.851l-3.352-.64q-7.718.107-23.207 0-2.236.48-3.62.959 0 .32.107.32zm11.072 2.715v-.639q-4.79-1.064-9.847-.426-.32.267-1.224.32-.905 0-1.118.585 2.395.745 5.482.745 2.768 0 6.707-.585zm9.794-.852q-.267.107-.692.107h-.533q-.372-.053-.532-.053-.585 0-.852.479 2.555.798 6.281.798 1.384 0 6.015-.266.585-.213.479-.745-4.205-.745-6.547-.745-1.97 0-3.62.425zm-11.231 3.567q-.107-.799-1.437-.533-1.118-.638-3.247-.638-3.513.053-3.247.106-.373.16-1.703.373-1.065.16-1.384.745 2.395.692 5.429.692 3.14 0 5.589-.745zm13.466-1.012q-.32.32-1.703.266-1.171 0-1.171.799 2.022.692 5.056.692 2.715 0 6.122-.586l.16-.426q-2.077-.798-8.464-.745zm-24.431 3.726q2.235.692 5.003.692 1.863 0 3.673-.32.532 0 1.597-.106.585-.106.532-.851-2.874-.639-8.197-.426-.32.213-1.544.372-.904.107-1.064.64zm21.557-.426q1.756 1.065 4.844 1.065 1.224 0 3.193-.213 2.715-.213 3.087-.266l.266-.532-.266-.267q-4.684-.532-6.334-.532-2.82 0-4.79.745zm-13.147 3.673q.266-.16 1.597-.16 1.01 0 1.01-.745-1.596-.585-4.257-.585-4.152 0-4.418-.054-.266.32-1.544.533-1.011.16-.851.851 5.376.48 5.642.48 1.543 0 2.82-.32zm13.732-1.118q-.16.053-.372.213-.16.107-.053.32 2.554 1.064 8.57.585.265-.16.744-.16.16 0 .48.054h.478q.958 0 1.012-.799-2.768-.798-5.802-.798-2.555 0-5.057.585zm-11.71 3.726q.373-.266.373-.745-5.003-.692-6.387-.692-2.928 0-4.631 1.118 2.715.639 6.068.639 2.342 0 4.577-.32zm22.569-.905q-4.578-.532-6.44-.532-2.769 0-4.844.692v.426q2.448.745 5.642.745 3.14 0 5.855-.692.053-.16-.107-.32-.106-.212-.106-.319zm-33.001 3.034v.426q5.535.692 5.855.692 1.437 0 2.661-.32.213-.212 1.544-.159 1.011 0 1.064-.798-2.501-.746-5.322-.746-3.14 0-5.802.905zm30.18.799q.213-.107 1.703-.213 1.064-.053 1.17-.745-1.49-.692-4.044-.799.851.053-4.471.107-.267.16-1.65.266-1.012.106-1.118.851 4.63.692 6.12.692 1.225 0 2.29-.16zm-19.215 2.235v-.479q-2.13-.692-4.95-.692-2.396 0-5.909.586-.266.532-.266.585 2.182.692 5.163.692 3.247 0 5.962-.692zm13.253-1.17q-.266.212-1.384.319-.905.16-1.117.692 2.022.745 4.896.745 1.171 0 6.015-.426.586-.213.48-.745-1.65-.586-4.419-.533-3.513.054-4.47-.053zm-15.489 4.683q.266-.213.958-.16.745 0 .905-.053.426-.106.426-.692-1.65-.745-4.258-.798h-4.525q-.319.426-1.277.585-.958.107-1.065.586 2.715.639 8.836.532zm22.781-1.33q-1.97-.533-4.205-.533-2.82 0-5.588.799l.053.479q1.97.692 4.737.692 1.33 0 5.642-.373.053-.106.532-.16.32-.106.32-.266 0-.16-.054-.32-1.064-.425-1.437-.318zm-19.587 3.566q.372-.48-.16-.799-5.642-.585-8.942-.266-.213.107-1.384.213-.852.053-.958.745 2.182.692 5.216.692 2.715 0 6.228-.585zm18.789-.958q-2.342-.373-4.737-.373-2.768 0-5.27.48-.426.265-.106.744 2.927.692 5.908.692 2.608 0 4.737-.532 1.703-.053 1.65-.745-.32-.32-1.011-.266-1.065.053-1.171 0zm-2.13 2.395-7.877.106q-1.97 0-5.642-.16-3.885-.159-5.535-.159-4.897 0-8.144.958.266.692 1.064.692h.852q.639 0 1.011.266.745 0 13.52.053 8.144.054 13.466-.532l.426-.266q-.16-.745-.798-.745-.213 0-.692.106-.48.107-.745.107-.586 0-.905-.426zm-2.873 2.661q-2.183.107-10.965 0-6.76-.106-10.965.533-.32.053-.692.106-.32.053-.213.426.799.372 2.395.479 1.81.16 2.502.372 2.502-.106 6.387 0 5.057.107 6.228.107 5.535 0 9.421-.852v-.426q-1.384-.372-4.098-.745zm-2.555 2.981-13.041.053q-1.33.213-4.045.799.426.585 1.81.532 2.022-.053 2.075-.053 2.608.425 5.855.425 1.757 0 5.004-.16 3.513-.159 5.056-.159l.905-.479q-.266-.532-1.277-.585h-1.597q-.48-.054-.745-.373z" transform="translate(15.735 -84.773) scale(1.24586)"/>
        </g>
    </g>
</svg>
