<svg height="150.596" viewBox="0 0 38.98 15.061" width="389.764" xmlns="http://www.w3.org/2000/svg">
    <path d="M28.476 12.556H38.98v2.465H28.476z" fill="#f9f9f9"/>
    <path d="M24.991 0h7.738l-7.21 15.061h-7.737z" fill="#9c2249"/>
    <path d="M1.114 4.293 0 11.044h1.731l.177-1.392.822.006.14 1.386h1.883l-1.29-6.747zm1.193 1.165.267 3.08H2.03zm2.801-1.15.016 6.742h1.811L6.93 7.11l.746 3.94h1.153l.728-3.94-.003 3.94h1.834V4.31H8.83l-.587 3.003-.48-3.003zm11.44.053.003 1.048h.964v5.619h1.996V5.409h1.032V4.361zm-2.633.006c-1.142-.002-1.569-.111-1.914.211-.438.41-.26 1.252-.26 2.23.002.79 2.532 1.2 2.546 1.677V9.8c-.001.206-.637.141-.635-.049V8.303h-1.926l.027 1.132c-.043 1.426-.028 1.638 2.328 1.632 1.124-.002 1.383-.013 1.598-.103.14-.059.336-.226.434-.37.164-.243.175-.36.15-1.477L16.27 8c.003-.287-.924-.776-1.42-.96-.57-.21-1.186-.23-1.198-.947-.012-.583-.021-.688.334-.69.386-.003.279.115.301 1.206h2.02c0-2.331-.124-2.236-2.392-2.242zm7.038.011.062 6.662h1.913l.012-2.69c.686.008.634-.161.59 2.717l2.022.006c-.07-2.646.08-2.8-.838-3.34.818-.368.745-.593.763-1.695.017-1.055-.034-1.202-.461-1.486-.387-.256-.742-.213-4.063-.174zm1.971 1.039c.75.015.607.148.607.836 0 .718.126.869-.611.873zm8.232-1.083s-.13 6.63-.068 6.737v.002l3.469.02c1.276.007 1.073-.61 1.098-3.222.03-3-.016-3.537-.953-3.537zm2.522 3.394c.024 2.19.059 2.244-.52 2.26l-.042-4.528c.62 0 .541.353.562 2.268zm-6.582-3.403-1.114 6.753h1.732l.177-1.394.822.006.14 1.388h1.883l-1.29-6.749zm1.193 1.167.268 3.08h-.546zM28.476 13.789v1.232H38.98v-2.465H28.476zm1.55-.676c0 .23-.004.237-.091.237-.084 0-.092-.014-.092-.145v-.142h-.675v1.452l.085.017c.043.01.197.017.335.01l.255-.01-.01-.146c-.011-.138-.011-.141.098-.141h.113v.472h-.474c-.668 0-.62.068-.62-.918 0-1-.037-.946.62-.932l.456.01zm1.338-.195c.055.047.066.108.066.432 0 .246-.015.395-.044.432-.04.044-.124.057-.43.064l-.383.01-.011.328c-.011.317-.007.327.073.338.062.006.087.037.095.104l.01.091h-.255c-.255 0-.259 0-.259-.087 0-.058.022-.095.073-.105.07-.017.073-.047.073-.74 0-.699-.003-.722-.073-.722-.058 0-.073-.024-.073-.102v-.1h.537c.445 0 .543.01.601.057zm1.343.195c0 .247-.004.254-.092.254-.083 0-.09-.014-.09-.152v-.152h-.694v1.452l.084.017c.044.01.197.017.336.01l.255-.01.011-.142c.011-.128.022-.145.102-.145.084 0 .088.006.088.236v.236h-.464c-.379 0-.474-.01-.528-.057-.059-.05-.066-.122-.066-.875 0-1-.051-.925.609-.925h.449zm5.682-.111c.062.057.062 1.516 0 1.574s-5.03.057-5.091 0-.062-1.517 0-1.574 5.03-.057 5.091 0z"/>
    <path d="M30.555 13.367v.304h.693v-.608h-.693z"/>
    <path d="M33.597 13.31a.928.928 0 0 0-.008.246l.011.199.62.01c.343.004.657 0 .704-.01.077-.017.084-.034.073-.247l-.01-.226-.686-.01c-.555-.007-.686 0-.704.037z" fill="maroon"/>
    <path d="M36.697 13.31a.928.928 0 0 0-.007.246l.01.199h1.387v-.473l-.686-.01c-.554-.007-.686 0-.704.037z" fill="navy"/>
    <path d="M35.15 13.519v.22h1.386v-.44H35.15z" fill="green"/>
    <path d="M33.608 13.86c-.015.013-.026.121-.026.24v.212l.704-.007.7-.01v-.439l-.678-.01c-.372-.003-.686.004-.7.014z" fill="maroon"/>
    <path d="M36.708 13.86c-.015.013-.026.121-.026.24v.212h1.427l-.011-.23-.011-.226-.679-.01c-.372-.003-.685.004-.7.014z" fill="navy"/>
    <path d="M35.15 14.093v.22h1.386v-.44H35.15z" fill="green"/>
</svg>
