<svg height="248.004" viewBox="0 0 308.795 49.601" width="1543.975" xmlns="http://www.w3.org/2000/svg">
    <filter id="a" color-interpolation-filters="sRGB" height="1.128" width="1.013" x="-.007" y="-.064">
        <feGaussianBlur stdDeviation=".805"/>
    </filter>
    <text fill="#ef00eb" font-family="TrasksHand" font-size=".6" stroke="#0105ff" stroke-width=".75" x="82.183" y="4.382" transform="translate(-5.28 2.784)"><tspan fill="#fafafa" fill-opacity=".4" stroke="none" x="82.183" y="4.382">John Loreth 2022</tspan></text>
    <path d="m22.764 6.838-4.182 11.528 19.337.018 2.671-7.385 12.073.01-3.571 9.666-31.33.088-5.802 16.15 50.494.002L73.359 6.853zm25.322 16.966-3.394 9.353-12.214-.053 3.38-9.252zM80.37 6.797l-10.73 30.13 19.494.067 4.708-13.102 30.203-.056 6.011-16.976zm18.072 3.877 10.778.104-3.42 9.585-10.706-.157zm25.819 26.292 10.8-30.15 51.542.043-1.533 3.933-31.817.011-3.376 9.057 32.14.082-1.584 3.978-31.932.021-4.736 13.076zm83.97-.569-6.177-15.014h-.103v15.014h-5.823V15.38h8.183l5.9 14.442 5.893-14.442h8.183v21.018h-5.823V21.383h-.104l-6.176 15.014zm23.72-14.429v-2.321h.638q1.246 0 2.47-.437 1.231-.444 2.092-1.236.86-.799 1.053-1.823h3.768v19.576h-5.007V21.968zm64.64 13.95q-2.292 0-4.056-.716-1.757-.716-2.914-2.042-1.158-1.332-1.74-3.2-.575-1.868-.575-4.19 0-2.317.574-4.185.583-1.868 1.74-3.2 1.158-1.339 2.907-2.049 1.748-.71 4.063-.71 2.866 0 4.75 1.018 1.892 1.018 2.85 2.578.966 1.553 1.325 3.253.36 1.694.36 3.294t-.36 3.3q-.359 1.694-1.333 3.26-.966 1.56-2.85 2.578-1.876 1.011-4.742 1.011zm0-3.347q2.626 0 3.368-1.968.75-1.975.75-4.834 0-2.858-.75-4.827-.742-1.968-3.369-1.968-2.554 0-3.337 2.029-.782 2.028-.782 4.766t.782 4.773q.783 2.029 3.337 2.029zm-19.568 3.332q-2.291 0-4.055-.716-1.757-.717-2.914-2.042-1.158-1.332-1.74-3.2-.575-1.868-.575-4.191 0-2.316.574-4.184.583-1.868 1.74-3.2 1.158-1.339 2.907-2.049 1.748-.71 4.063-.71 2.866 0 4.75 1.018 1.892 1.018 2.85 2.578.966 1.553 1.325 3.253.36 1.694.36 3.294t-.36 3.3q-.359 1.694-1.333 3.26-.966 1.56-2.85 2.578-1.876 1.011-4.742 1.011zm0-3.347q2.627 0 3.369-1.968.75-1.975.75-4.834 0-2.859-.75-4.827-.742-1.968-3.369-1.968-2.555 0-3.337 2.028-.782 2.029-.782 4.767 0 2.738.782 4.773.782 2.029 3.337 2.029zm-19.627 3.365q-2.29 0-4.055-.716-1.756-.716-2.914-2.042-1.158-1.332-1.74-3.2-.575-1.868-.575-4.19 0-2.317.575-4.185.582-1.868 1.74-3.2 1.158-1.339 2.906-2.048 1.748-.71 4.063-.71 2.866 0 4.75 1.018 1.892 1.017 2.85 2.577.966 1.553 1.326 3.254.359 1.693.359 3.293t-.36 3.3q-.359 1.694-1.333 3.261-.966 1.56-2.85 2.577-1.876 1.011-4.742 1.011zm0-3.347q2.627 0 3.37-1.968.75-1.975.75-4.834 0-2.858-.75-4.827-.743-1.968-3.37-1.968-2.554 0-3.337 2.029-.782 2.028-.782 4.766t.782 4.774q.783 2.028 3.337 2.028z" filter="url(#a)" opacity=".583" transform="translate(-5.28 2.784)"/>
    <g fill="#fff">
        <path d="M250.117 36.305q-2.291 0-4.056-.716-1.756-.716-2.914-2.042-1.157-1.332-1.74-3.2-.575-1.868-.575-4.19 0-2.317.575-4.185.583-1.868 1.74-3.2 1.158-1.339 2.906-2.049 1.749-.71 4.064-.71 2.866 0 4.75 1.018 1.892 1.018 2.85 2.578.966 1.553 1.325 3.253.36 1.694.36 3.294t-.36 3.3q-.36 1.694-1.333 3.26-.966 1.56-2.85 2.578-1.876 1.011-4.742 1.011zm0-3.347q2.626 0 3.369-1.968.75-1.975.75-4.834 0-2.858-.75-4.827-.743-1.968-3.37-1.968-2.554 0-3.336 2.029-.783 2.028-.783 4.766t.783 4.773q.782 2.029 3.337 2.029zM269.744 36.287q-2.292 0-4.056-.716-1.756-.717-2.914-2.042-1.157-1.332-1.74-3.2-.575-1.868-.575-4.191 0-2.316.575-4.184.583-1.868 1.74-3.2 1.158-1.34 2.906-2.049 1.748-.71 4.064-.71 2.865 0 4.75 1.018 1.892 1.018 2.85 2.578.965 1.553 1.325 3.253.359 1.694.359 3.294t-.36 3.3q-.359 1.694-1.332 3.26-.966 1.56-2.85 2.578-1.877 1.01-4.742 1.01zm0-3.347q2.626 0 3.368-1.969.75-1.974.75-4.833t-.75-4.827q-.742-1.968-3.368-1.968-2.555 0-3.337 2.028-.783 2.029-.783 4.767 0 2.738.783 4.773.782 2.029 3.337 2.029zM289.31 36.302q-2.29 0-4.055-.716-1.756-.717-2.914-2.042-1.157-1.332-1.74-3.2-.575-1.868-.575-4.19 0-2.317.575-4.185.583-1.868 1.74-3.2 1.158-1.339 2.906-2.049 1.748-.71 4.064-.71 2.866 0 4.75 1.018 1.892 1.018 2.85 2.578.966 1.553 1.325 3.253.36 1.694.36 3.294t-.36 3.3q-.36 1.694-1.333 3.26-.966 1.56-2.85 2.578-1.876 1.011-4.742 1.011zm0-3.347q2.627 0 3.37-1.968.75-1.975.75-4.834 0-2.859-.75-4.827-.743-1.968-3.37-1.968-2.554 0-3.336 2.029-.783 2.028-.783 4.766t.783 4.773q.782 2.029 3.337 2.029zM224.671 22.352v-2.321h.638q1.247 0 2.47-.437 1.232-.444 2.092-1.236.86-.799 1.053-1.823h3.768V36.11h-5.006V22.352zM200.95 36.781l-6.175-15.014h-.104v15.014h-5.823V15.763h8.184l5.9 14.442 5.892-14.442h8.183V36.78h-5.823V21.767h-.103l-6.176 15.014z"/>
        <path d="m116.981 37.35 10.8-30.15 51.542.042-1.532 3.934-31.818.011-3.376 9.057 32.14.082-1.584 3.978-31.932.021-4.735 13.076zM73.09 7.18 62.36 37.31l19.494.068 4.708-13.102 30.203-.056 6.012-16.976zm18.072 3.878 10.779.104-3.421 9.584-10.706-.157zM15.484 7.222 11.302 18.75l19.337.018 2.672-7.385 12.072.01-3.571 9.666-31.33.088-5.802 16.15 50.494.002L66.08 7.237zm25.322 16.966-3.394 9.353-12.214-.053 3.38-9.252z" opacity=".98"/>
    </g>
</svg>
