<?xml version="1.0" encoding="UTF-8" standalone="no"?>
<!-- Created by ERK -->

<svg
   width="1499.8455mm"
   height="253.13174mm"
   viewBox="0 0 1499.8455 253.13174"
   version="1.1"
   id="svg1"
   inkscape:version="1.3.2 (091e20e, 2023-11-25, custom)"
   xml:space="preserve"
   sodipodi:docname="apogeebk01.svg"
   xmlns:inkscape="http://www.inkscape.org/namespaces/inkscape"
   xmlns:sodipodi="http://sodipodi.sourceforge.net/DTD/sodipodi-0.dtd"
   xmlns="http://www.w3.org/2000/svg"
   xmlns:svg="http://www.w3.org/2000/svg"><sodipodi:namedview
     id="namedview1"
     pagecolor="#ffffff"
     bordercolor="#000000"
     borderopacity="0.25"
     inkscape:showpageshadow="2"
     inkscape:pageopacity="0.0"
     inkscape:pagecheckerboard="true"
     inkscape:deskcolor="#d1d1d1"
     inkscape:document-units="mm"
     inkscape:zoom="0.2911843"
     inkscape:cx="2925.9819"
     inkscape:cy="719.4756"
     inkscape:window-width="2560"
     inkscape:window-height="1351"
     inkscape:window-x="-9"
     inkscape:window-y="-9"
     inkscape:window-maximized="1"
     inkscape:current-layer="svg1"
     showgrid="false" /><defs
     id="defs1"><marker
       id="DistanceX"
       orient="auto"
       refX="0"
       refY="0"
       style="overflow:visible"><path
         d="M 3,-3 -3,3 M 0,-5 V 5"
         style="stroke:#000000;stroke-width:0.5"
         id="path1" /></marker><pattern
       id="Hatch"
       patternUnits="userSpaceOnUse"
       width="8"
       height="8"
       x="0"
       y="0"><path
         d="M8 4 l-4,4"
         stroke="#000000"
         stroke-width="0.25"
         linecap="square"
         id="path2" /><path
         d="M6 2 l-4,4"
         stroke="#000000"
         stroke-width="0.25"
         linecap="square"
         id="path3" /><path
         d="M4 0 l-4,4"
         stroke="#000000"
         stroke-width="0.25"
         linecap="square"
         id="path4" /></pattern><symbol
       id="*Model_Space" /><symbol
       id="*Paper_Space" /><symbol
       id="*Paper_Space0" /><marker
       id="DistanceX-4"
       orient="auto"
       refX="0"
       refY="0"
       style="overflow:visible"><path
         d="M 3,-3 -3,3 M 0,-5 V 5"
         style="stroke:#000000;stroke-width:0.5"
         id="path1-5" /></marker><pattern
       id="Hatch-6"
       patternUnits="userSpaceOnUse"
       width="8"
       height="8"
       x="0"
       y="0"><path
         d="M8 4 l-4,4"
         stroke="#000000"
         stroke-width="0.25"
         linecap="square"
         id="path2-2" /><path
         d="M6 2 l-4,4"
         stroke="#000000"
         stroke-width="0.25"
         linecap="square"
         id="path3-0" /><path
         d="M4 0 l-4,4"
         stroke="#000000"
         stroke-width="0.25"
         linecap="square"
         id="path4-3" /></pattern><symbol
       id="*Model_Space-5" /><symbol
       id="*Paper_Space-6" /><symbol
       id="*Paper_Space0-6" /><marker
       id="DistanceX-2"
       orient="auto"
       refX="0"
       refY="0"
       style="overflow:visible"><path
         d="M 3,-3 -3,3 M 0,-5 V 5"
         style="stroke:#000000;stroke-width:0.5"
         id="path1-4" /></marker><pattern
       id="Hatch-5"
       patternUnits="userSpaceOnUse"
       width="8"
       height="8"
       x="0"
       y="0"><path
         d="M8 4 l-4,4"
         stroke="#000000"
         stroke-width="0.25"
         linecap="square"
         id="path2-5" /><path
         d="M6 2 l-4,4"
         stroke="#000000"
         stroke-width="0.25"
         linecap="square"
         id="path3-1" /><path
         d="M4 0 l-4,4"
         stroke="#000000"
         stroke-width="0.25"
         linecap="square"
         id="path4-7" /></pattern><symbol
       id="*Model_Space-1" /><symbol
       id="*Paper_Space-1" /><symbol
       id="*Paper_Space0-5" /></defs><g
     id="g11"
     inkscape:label="АПОГЕЙ · БК 01"
     style="display:inline;fill:#000000"
     transform="matrix(0.26458333,0,0,0.26458333,-39.860918,-16.007419)"><path
       id="path28"
       style="fill:#000000;fill-opacity:1;stroke:none;stroke-width:3.571;stroke-linecap:round"
       d="m 294.835,593.386 9.423,-37.795 h 132.271 l 9.424,37.795 z m 15.077,-60.473 9.424,-37.795 h 102.116 l 9.423,37.795 z m -86.573,128.504 h 42.848 l 77.37821,-310.34819 c 3.79199,-15.2082 10.35004,-37.88253 18.2676,-54.85277 1.20208,-2.57648 2.43549,-5.02149 3.79466,-6.6894 2.91576,-3.5781 6.41024,-3.57989 9.47191,-8.2e-4 1.39906,1.6355 2.70774,4.01872 3.96647,6.55344 8.22969,16.57224 14.32426,39.62056 18.15614,54.98955 L 474.601,661.417 h 42.847 L 437.56191,341.01089 c -3.03016,-12.15311 -6.85663,-24.34476 -11.54707,-35.75702 -4.69044,-11.41226 -10.24486,-22.04514 -16.41852,-30.88219 -3.08683,-4.41852 -6.32847,-8.38809 -9.64151,-11.79815 -3.31303,-3.41005 -6.69746,-6.2606 -10.05413,-8.50112 -3.35667,-2.24053 -6.68558,-3.87104 -9.93212,-4.93925 -3.24653,-1.0682 -6.4107,-1.57411 -9.57486,-1.57411 -3.16416,0 -6.32833,0.50591 -9.57486,1.57411 -3.24654,1.06821 -6.57545,2.69872 -9.93212,4.93925 -3.35667,2.24052 -6.7411,5.09107 -10.05413,8.50112 -3.31304,3.41006 -6.55468,7.37963 -9.64151,11.79815 -6.17366,8.83705 -11.72808,19.46993 -16.41852,30.88219 -4.69044,11.41226 -8.51691,23.60391 -11.54678,35.75702 z m 20.48921,-347.02453 c 1.04793,-3.69889 2.16974,-7.42755 3.36652,-11.1597 2.39354,-7.46428 5.08694,-14.94246 8.13729,-22.37434 3.05035,-7.43189 6.45767,-14.81748 10.29399,-22.06684 3.83632,-7.24936 8.10164,-14.3625 12.90745,-21.23689 4.8058,-6.87439 10.15208,-13.51003 16.20784,-19.74621 6.05577,-6.23617 12.82103,-12.07288 20.48203,-17.18173 7.66099,-5.10886 16.21774,-9.48987 25.56209,-12.54258 9.34435,-3.0527 19.47632,-4.77709 29.60828,-4.77709 10.13196,0 20.26393,1.72439 29.60828,4.77709 9.34435,3.05271 17.9011,7.43372 25.5621,12.54258 7.661,5.10885 14.42625,10.94556 20.48202,17.18173 6.05576,6.23618 11.40204,12.87182 16.20784,19.74621 4.80581,6.87439 9.07113,13.98753 12.90745,21.23689 3.83632,7.24936 7.24364,14.63495 10.29399,22.06684 3.05036,7.43188 5.74375,14.91006 8.1373,22.37434 1.19677,3.73215 2.31858,7.46081 3.36651,11.1597 1.04792,3.69888 2.02195,7.36797 2.94593,11.07444 L 583.667,661.417 H 540.82 L 459.56539,335.52467 c -1.64246,-6.58756 -3.47712,-13.10117 -5.56089,-19.59385 -2.08377,-6.49268 -4.41665,-12.96443 -7.01064,-19.28711 -5.188,-12.64535 -11.42047,-24.69444 -18.81249,-35.26626 -7.39202,-10.57182 -15.94359,-19.66637 -25.69361,-26.16821 -4.87501,-3.25093 -10.04963,-5.85367 -15.44858,-7.62278 -5.39894,-1.7691 -11.02221,-2.70457 -16.64548,-2.70457 -5.62327,0 -11.24653,0.93547 -16.64548,2.70457 -5.39895,1.76911 -10.57357,4.37185 -15.44858,7.62278 -9.75002,6.50184 -18.30158,15.59639 -25.6936,26.16821 -7.39202,10.57182 -13.6245,22.62091 -18.8125,35.26626 -2.59399,6.32268 -4.92687,12.79443 -7.01064,19.28711 -2.08377,6.49268 -3.91843,13.00629 -5.5609,19.59401 L 199.968,661.417 H 157.12 l 83.76208,-335.95009 c 0.92418,-3.70647 1.89821,-7.37556 2.94613,-11.07444 z"
       inkscape:label="А"
       sodipodi:nodetypes="cccccccccccccssssccccsssssssssssccsssssssssssssssssccccsssssssssssccccs" /><path
       id="path412"
       style="display:inline;fill:#000000;fill-opacity:1;stroke:none;stroke-width:3.571;stroke-linecap:round"
       d="m 975.11806,247.55902 c 14.61168,3e-5 26.45674,11.8451 26.45434,26.45686 V 661.417 h -37.79 V 285.354 H 752.126 v 376.063 h -37.795 l -1.4e-4,-387.40112 c -1.5e-4,-14.61176 11.84491,-26.45683 26.45634,-26.45686 z M 740.7872,224.88194 c -27.13568,-5e-5 -49.13366,21.99793 -49.13343,49.13394 L 691.654,661.417 h -37.796 l 1.4e-4,-387.40112 c 1.3e-4,-48.00977 38.91962,-86.92927 86.92906,-86.92908 h 234.33086 c 48.00964,-1.7e-4 86.92914,38.91933 86.93054,86.92907 V 661.417 h -37.8 V 274.01588 c 0,-27.13524 -21.9968,-49.1329 -49.13194,-49.13394 z"
       inkscape:label="П"
       sodipodi:nodetypes="cccccccccccccccccccccccc" /><path
       d="m 1345.3371,235.85563 a 185.19685,185.19685 0 0 0 -169.9043,184.56446 185.19727,185.19727 0 0 0 370.3945,0 185.19685,185.19685 0 0 0 -200.4902,-184.56446 z m 1.6914,37.79102 a 147.4016,147.4016 0 0 1 161.0039,146.77344 147.40235,147.40235 0 0 1 -294.8047,0 147.4016,147.4016 0 0 1 133.8008,-146.77344 z"
       style="display:inline;fill:#000000;stroke:none;stroke-width:3.571;stroke-linecap:round"
       id="path422" /><path
       d="m 1342.2707,175.43766 a 245.6693,245.6693 0 0 0 -227.3106,244.98243 245.66995,245.66995 0 0 0 491.3399,0 245.6693,245.6693 0 0 0 -264.0293,-244.98243 z m 18.3594,37.19922 a 207.87402,207.87402 0 0 1 207.873,207.78321 207.87403,207.87403 0 0 1 -415.748,0 207.87402,207.87402 0 0 1 207.875,-207.78321 z"
       style="display:inline;fill:#000000;stroke:none;stroke-width:3.571;stroke-linecap:round"
       id="path421" /><path
       id="path60"
       style="fill:#000000;fill-opacity:1;stroke:none;stroke-width:3.571;stroke-linecap:round"
       d="m 1746.14,285.354 h 219.21 v -37.795 l -230.5468,5e-5 c -14.6116,0 -26.4567,11.84507 -26.4549,26.45683 V 661.417 h 37.79 z m -60.4703,-11.33812 c -4e-4,-27.13603 21.9976,-49.13401 49.1335,-49.13399 l 230.5468,1.1e-4 v -37.795 l -230.5484,-2e-4 c -48.0081,-2.3e-4 -86.9276,38.91929 -86.9296,86.92908 V 661.417 h 37.8 z"
       inkscape:label="Г"
       sodipodi:nodetypes="ccccccccccccccccc" /><path
       id="path90"
       style="fill:#000000;fill-opacity:1;stroke:none;stroke-width:3.571;stroke-linecap:round"
       d="m 2135.43,468.661 h 223 v -37.795 h -223 z m 223,-98.267 v 37.795 h -223 v -37.795 z m -298.5887,-96.37812 c 0,-14.61176 11.8463,-26.45683 26.4587,-26.45688 h 272.13 v 37.795 H 2097.64 V 559.37 h 260.79 v 37.795 l -272.1304,1.7e-4 c -14.612,1.8e-4 -26.4571,-11.84488 -26.4583,-26.45634 z m 26.4583,345.82688 272.1304,2.4e-4 v 37.795 l -272.1304,-1e-4 c -48.01,-1.3e-4 -86.9295,-38.91962 -86.9295,-86.92907 V 274.01588 c 0,-48.00975 38.9195,-86.92925 86.9295,-86.92907 l 272.1304,1.9e-4 v 37.795 l -272.1304,-6e-5 c -27.1363,-2e-5 -49.1342,21.99795 -49.1342,49.13394 v 296.69295 c 0,27.13569 21.9979,49.13366 49.1342,49.13393 z"
       inkscape:label="Е"
       sodipodi:nodetypes="cccccccccccccccccccccccccccccccccc" /><path
       id="path118"
       style="fill:#000000;fill-opacity:1;stroke:none;stroke-width:3.571;stroke-linecap:round"
       d="m 2502.05,187.087 h 37.79 v 318.595 l 166.6723,-256.54482 c 5.2666,-8.10276 10.5564,-16.18917 15.8714,-24.25894 18.3652,-27.88365 52.8486,-40.41568 84.8311,-30.82949 31.9826,9.58619 53.8876,39.01966 53.8864,72.4081 V 661.417 h -37.79 V 266.45685 c 0,-16.69433 -10.9525,-31.41111 -26.9438,-36.20421 -15.9913,-4.7931 -33.233,1.47295 -42.4156,15.41482 -5.2716,8.00379 -10.518,16.0241 -15.7399,24.06067 l -192.7595,296.69295 c -5.1942,7.99702 -10.4147,15.97765 -15.6602,23.94185 -8.2516,12.5285 -27.7439,6.68604 -27.741,-8.31593 z m 4.2639,431.16414 c 15.9912,4.79309 33.2329,-1.47289 42.4155,-15.41467 5.2716,-8.00379 10.5181,-16.02409 15.7394,-24.06062 l 192.7523,-296.69296 c 5.1979,-7.99705 10.4184,-15.97768 15.6639,-23.94189 8.2516,-12.52826 27.7436,-6.68587 27.7437,8.31585 l 10e-5,394.96015 h -37.8 V 342.822 l -166.6687,256.54479 c -5.263,8.10273 -10.5528,16.18914 -15.8678,24.25891 -18.3652,27.88365 -52.8486,40.41568 -84.8311,30.82949 -31.9826,-9.58619 -53.8876,-39.01967 -53.8894,-72.40807 V 187.087 h 37.8 v 394.96012 c 1e-4,16.69423 10.9526,31.41092 26.9439,36.20402 z"
       inkscape:label="Й"
       sodipodi:nodetypes="cccccsccccsccccccsccccccccccsccccs" /><path
       d="m 2725.0394,109.6063 a 49.133858,49.133858 0 0 0 -98.2677,0 49.133858,49.133858 0 0 0 98.2677,0 z"
       style="fill:#000000;fill-opacity:1;stroke:none;stroke-width:3.571;stroke-linecap:round"
       id="path119"
       inkscape:label="dot" /><path
       d="m 3178.5827,419.52756 a 49.133858,49.133858 0 0 0 -98.2677,0 49.133858,49.133858 0 0 0 98.2677,0 z"
       style="fill:#000000;fill-opacity:1;stroke:none;stroke-width:3.571;stroke-linecap:round"
       id="path120"
       inkscape:label="dot" /><path
       id="path157"
       style="fill:#000000;fill-opacity:1;stroke:none;stroke-width:3.571;stroke-linecap:round"
       d="M 3751.18,597.165 H 3560.31 V 559.37 h 187.09 v -90.709 h -187.09 v -37.795 l 190.8705,7e-5 c 18.787,1e-4 34.0163,15.22946 34.0179,34.01588 v 98.26786 c 0,18.78616 -15.2309,34.01551 -34.0173,34.01554 M 3560.31,408.189 v -37.795 l 190.8705,-1.5e-4 c 52.185,-1.6e-4 94.4888,42.30365 94.4891,94.4881 v 98.26786 c -3e-4,52.18419 -42.3041,94.48799 -94.4891,94.48809 l -190.8705,1e-4 v -37.795 l 190.8705,-2.4e-4 c 31.3112,-2.5e-4 56.6935,-25.38252 56.6935,-56.69295 v -98.26786 c 0,-31.31069 -25.3823,-56.69296 -56.694,-56.69295 z m -45.35,-122.835 h 298.58 v -37.795 l -309.919,2e-5 c -14.6106,8e-5 -26.4556,11.84514 -26.4533,26.45686 V 661.417 h 37.79 z m -60.4718,-11.33812 c 0,-27.13599 21.9979,-49.13396 49.1321,-49.13393 l 309.9183,5e-5 v -37.795 l -309.9199,-2e-4 c -48.0095,-1.7e-4 -86.9305,38.91933 -86.9305,86.92908 V 661.417 h 37.8 z"
       inkscape:label="B"
       sodipodi:nodetypes="ccccccccccccccccccccccccccccccccccccccccc" /><path
       id="path191"
       style="fill:#000000;fill-opacity:1;stroke:none;stroke-width:3.571;stroke-linecap:round"
       d="m 4240.8624,415.74803 c 0.6673,0.99809 1.3166,1.9938 1.9491,2.98629 2.3092,3.6235 4.3945,7.20411 6.2988,10.72637 1.0432,1.92952 2.032,3.84152 2.9598,5.70898 0.9278,1.86746 1.7945,3.69038 2.6476,5.55727 L 4362.18,676.535 h -41.54 L 4220.3215,456.40016 c -0.6753,-1.48531 -1.365,-2.93575 -2.1033,-4.42179 -0.7383,-1.48605 -1.5252,-3.00771 -2.3517,-4.53642 -1.6531,-3.05741 -3.4644,-6.14301 -5.4444,-9.19884 -1.98,-3.05584 -4.1285,-6.08191 -6.4544,-8.99731 -2.3258,-2.91539 -4.8289,-5.7201 -7.5432,-8.33887 -1.8913,-1.82468 -3.885,-3.55909 -5.9895,-5.1589 2.1045,-1.59981 4.0982,-3.33422 5.9895,-5.1589 2.7143,-2.61876 5.2174,-5.42347 7.5432,-8.33887 2.3259,-2.91539 4.4744,-5.94147 6.4544,-8.99731 1.98,-3.05583 3.7913,-6.14142 5.4444,-9.19884 0.8265,-1.5287 1.6134,-3.05037 2.3517,-4.53641 0.7383,-1.48605 1.428,-2.93649 2.1033,-4.42184 L 4306,187.087 m 0,0 h 41.54 l -92.8223,203.68209 c -0.8531,1.86693 -1.7198,3.68984 -2.6476,5.5573 -0.9278,1.86746 -1.9166,3.77947 -2.9598,5.70899 -1.9043,3.52226 -3.9896,7.10287 -6.2988,10.72636 -0.6325,0.99249 -1.2818,1.9882 -1.9491,2.98629 m -42.9553,46.31555 c -0.6246,-1.2572 -1.2904,-2.54465 -1.987,-3.83285 -1.3931,-2.5764 -2.9092,-5.15578 -4.5306,-7.65818 -1.6214,-2.5024 -3.3481,-4.92782 -5.1474,-7.18266 -1.7994,-2.25484 -3.6714,-4.33911 -5.5619,-6.16204 -1.8905,-1.82294 -3.7995,-3.38454 -5.6841,-4.65241 -1.8847,-1.26788 -3.745,-2.24203 -5.7732,-3.03158 -1.014,-0.39478 -2.0701,-0.7434 -3.1906,-1.04594 -1.1205,-0.30254 -2.3055,-0.55899 -3.5778,-0.76774 -1.2723,-0.20875 -2.632,-0.3698 -4.0819,-0.47851 -0.7249,-0.0544 -1.4724,-0.0956 -2.2579,-0.12331 -0.7856,-0.0277 -1.6092,-0.0417 -2.4143,-0.0415 l -94.4904,1.7e-4 v 37.795 l 74.7311,-5e-5 c 8.8411,-6e-5 15.7285,0.19871 21.2028,3.66404 4.183,2.64789 7.5409,7.20298 10.1538,12.93193 L 4254.19,676.535 h 41.53 l -96.0311,-210.7308 c -0.5738,-1.25647 -1.1572,-2.48342 -1.7818,-3.74062 z M 4153.7,404.409 h -94.49 v -37.795 l 74.73,8e-5 c 8.8399,9e-5 15.7273,-0.19868 21.2016,-3.66401 4.183,-2.64788 7.5409,-7.20298 10.155,-12.93196 L 4239.55,187.087 h 41.53 l -81.3911,178.60483 c -0.5738,1.2565 -1.1572,2.48345 -1.7818,3.74065 -0.6246,1.2572 -1.2904,2.54466 -1.987,3.83285 -1.3931,2.5764 -2.9092,5.15578 -4.5306,7.65818 -1.6214,2.5024 -3.3481,4.92782 -5.1474,7.18266 -1.7994,2.25485 -3.6714,4.33911 -5.5619,6.16204 -1.8905,1.82294 -3.7995,3.38454 -5.6841,4.65242 -1.8847,1.26787 -3.745,2.24203 -5.7732,3.03158 -1.014,0.39477 -2.0701,0.74339 -3.1906,1.04593 -1.1205,0.30254 -2.3055,0.55899 -3.5778,0.76775 -1.2723,0.20874 -2.632,0.36979 -4.0819,0.47851 -0.7249,0.0543 -1.4724,0.0956 -2.2579,0.1233 -0.7856,0.0277 -1.6092,0.0417 -2.4139,0.0417 M 4028.98,187.087 h -37.8 v 474.33 h 37.8 z m -98.27,474.33 v -474.33 h 37.79 v 474.33 z"
       inkscape:label="K"
       sodipodi:nodetypes="csssccccssssscssssscccccssscsssssssssssccccsccccsccccsccccsssssssssssccccccccccc" /><path
       d="m 4814.9426,235.85563 a 185.19685,185.19685 0 0 0 -169.9023,184.56446 185.19685,185.19685 0 0 0 370.3925,0 185.19685,185.19685 0 0 0 -200.4902,-184.56446 z m 1.6934,37.79102 a 147.4016,147.4016 0 0 1 161.0019,146.77344 147.4016,147.4016 0 0 1 -294.8027,0 147.4016,147.4016 0 0 1 133.8008,-146.77344 z"
       style="display:inline;fill:#000000;stroke:none;stroke-width:3.571;stroke-linecap:round"
       id="path424" /><path
       d="m 4811.8782,175.43766 a 245.6693,245.6693 0 0 0 -227.3106,244.98243 245.6693,245.6693 0 0 0 491.3379,0 245.6693,245.6693 0 0 0 -264.0273,-244.98243 z m 18.3574,37.19922 a 207.87402,207.87402 0 0 1 207.875,207.78321 207.87405,207.87405 0 0 1 -415.7481,0 207.87402,207.87402 0 0 1 207.8731,-207.78321 z"
       style="display:inline;fill:#000000;stroke:none;stroke-width:3.571;stroke-linecap:round"
       id="path423" /><path
       id="path204"
       style="fill:#000000;fill-opacity:1;stroke:none;stroke-width:3.57165;stroke-linecap:round;stroke-dasharray:none"
       d="m 5211.97,661.417 v -474.33 h 37.79 v 474.33 z m -22.68,0 h -37.79 v -474.33 h 37.79 v 474.33"
       inkscape:label="1"
       sodipodi:nodetypes="cccccccccc" /><path
       id="path37"
       style="display:inline;fill:#000000;fill-opacity:1;stroke:none;stroke-width:3.571;stroke-linecap:round"
       d="M 5820.47,706.772 V 538.583 h -37.79 v 168.189 z m -60.47,0 V 187.087 h -37.8 V 706.772 Z M 5438.74,187.087 h 37.8 V 559.37 h 185.19 V 187.087 h 37.8 v 410.078 l -234.3316,1.7e-4 c -14.6132,1.3e-4 -26.4582,-11.84492 -26.4583,-26.45634 z m -60.47,0 h 37.79 v 383.62183 c 0,27.13569 21.9979,49.13366 49.1338,49.13393 l 234.33,2.4e-4 v 37.795 l -234.3316,-1e-4 c -48.0112,-1.3e-4 -86.9307,-38.91962 -86.9265,-86.92907 z"
       transform="translate(-1.1074019,1.7854792)"
       sodipodi:nodetypes="ccccccccccccccccccccccccccccc"
       inkscape:label="Ц" /></g><path
     id="path425"
     style="display:inline;fill:#000000;fill-opacity:1;stroke:none;stroke-width:0.944827;stroke-linecap:round"
     inkscape:label="БЫТОВОЙ     КОМПЬЮТЕР"
     d="m 286.5183,195.99258 c 0,-2.76143 -2.23859,-5 -4.99999,-5 -2.76143,0 -5.00002,2.23857 -5.00002,5 0,2.76142 2.23859,5 5.00002,5 2.7614,0 4.99999,-2.23858 4.99999,-5 z M 31.964179,237.88572 c 0,2.1095 -0.341133,4.03922 -1.0234,5.78914 -0.682266,1.74994 -1.717037,3.27214 -3.104311,4.56661 -1.364533,1.27049 -3.104312,2.26531 -5.219338,2.98446 -2.115026,0.71915 -4.855462,1.07872 -8.22131,1.07872 H 2.7631788 c -0.8187197,0 -1.4896149,-0.22773 -2.01268581,-0.68319 C 0.25016433,251.14204 0,250.33898 0,249.21231 V 208.7602 c 0,-1.05475 0.25016433,-1.80986 0.75049299,-2.26532 0.52307091,-0.47943 1.15985281,-0.71915 1.91034581,-0.71915 H 27.631787 c 0.227423,0 0.420732,0.06 0.579926,0.17978 0.181939,0.11987 0.329763,0.33561 0.443473,0.64724 0.136454,0.28766 0.227423,0.67121 0.272907,1.15064 0.06823,0.45547 0.10234,1.04276 0.10234,1.76191 0,0.67121 -0.03411,1.24653 -0.10234,1.72596 -0.04549,0.45546 -0.136455,0.83901 -0.272907,1.15063 -0.11371,0.28767 -0.261534,0.50341 -0.443473,0.64724 -0.159194,0.11986 -0.341132,0.17979 -0.545813,0.17979 H 8.9718026 v 11.57829 h 7.3343634 c 2.842776,0 5.185225,0.28766 7.027344,0.86298 1.842119,0.57532 3.39996,1.42632 4.673524,2.55298 1.273563,1.12666 2.251479,2.50503 2.933745,4.1351 0.682267,1.63007 1.0234,3.47589 1.0234,5.53745 z m -9.108256,0.61128 c 0,-1.03078 -0.159196,-1.95369 -0.477586,-2.76872 -0.318392,-0.83901 -0.784607,-1.54617 -1.398647,-2.12149 -0.61404,-0.59929 -1.410017,-1.05475 -2.387932,-1.36639 -0.955173,-0.31163 -2.240107,-0.46745 -3.854804,-0.46745 H 8.9718026 v 13.41213 h 5.8674904 c 1.455501,0 2.649468,-0.14383 3.581899,-0.43149 0.955173,-0.28766 1.75115,-0.71915 2.387932,-1.29447 0.636782,-0.57532 1.13711,-1.28248 1.500985,-2.12149 0.363876,-0.83901 0.545814,-1.78588 0.545814,-2.84063 z m 62.086238,12.5851 c 0,0.23972 -0.0796,0.45546 -0.238794,0.64723 -0.136453,0.1678 -0.375246,0.31163 -0.716379,0.43149 -0.341134,0.11987 -0.807349,0.20377 -1.398646,0.2517 -0.568556,0.072 -1.284935,0.10788 -2.149139,0.10788 -0.864205,0 -1.580584,-0.0359 -2.14914,-0.10788 -0.568555,-0.0479 -1.034771,-0.13181 -1.398646,-0.2517 -0.341133,-0.11986 -0.591297,-0.26369 -0.750492,-0.43149 -0.136454,-0.19177 -0.20468,-0.40751 -0.20468,-0.64723 v -44.08382 c 0,-0.23971 0.06823,-0.44348 0.20468,-0.61128 0.159195,-0.19177 0.409359,-0.34758 0.750492,-0.46744 0.363875,-0.11987 0.830091,-0.20377 1.398646,-0.2517 0.591298,-0.0719 1.307678,-0.10787 2.14914,-0.10787 0.864204,0 1.580583,0.0359 2.149139,0.10787 0.591297,0.0479 1.057512,0.13181 1.398646,0.2517 0.341133,0.11986 0.579926,0.27567 0.716379,0.46744 0.159196,0.1678 0.238794,0.37157 0.238794,0.61128 z M 70.580454,236.95083 c 0,2.20539 -0.329762,4.23099 -0.989286,6.07681 -0.636782,1.82184 -1.64881,3.41595 -3.036086,4.78234 -1.387275,1.36638 -3.206652,2.45708 -5.458131,3.27212 -2.228736,0.81503 -5.276193,1.22255 -9.142369,1.22255 H 41.55002 c -0.386618,0 -0.750493,-0.048 -1.091625,-0.14383 -0.318392,-0.11986 -0.602669,-0.29964 -0.852833,-0.53936 -0.250165,-0.26368 -0.454845,-0.57532 -0.614041,-0.93489 -0.136453,-0.38355 -0.204679,-0.83902 -0.204679,-1.36639 v -42.3219 c 0,-0.23971 0.06823,-0.44348 0.204679,-0.61128 0.159196,-0.19177 0.40936,-0.34758 0.750494,-0.46744 0.363875,-0.11987 0.83009,-0.20377 1.398646,-0.2517 0.591297,-0.0719 1.307677,-0.10787 2.149139,-0.10787 0.886946,0 1.614696,0.0359 2.183252,0.10787 0.568555,0.0479 1.023399,0.13181 1.364533,0.2517 0.341133,0.11986 0.579926,0.27567 0.716379,0.46744 0.136454,0.1678 0.204681,0.37157 0.204681,0.61128 v 16.07298 h 5.56047 c 3.297621,0 5.924346,0.29964 7.880176,0.89893 1.978573,0.59929 3.650126,1.48625 5.014659,2.66085 1.387274,1.17461 2.456158,2.63688 3.206651,4.38681 0.773236,1.74993 1.159853,3.72759 1.159853,5.93298 z m -9.210596,0.79106 c 0,-1.15064 -0.159196,-2.18142 -0.477586,-3.09234 -0.318392,-0.91092 -0.807349,-1.69 -1.466873,-2.33723 -0.659525,-0.64724 -1.500987,-1.15065 -2.524386,-1.51022 -1.023399,-0.35957 -2.535756,-0.53935 -4.537071,-0.53935 h -4.605297 v 14.7785 h 4.74175 c 2.092284,0 3.661496,-0.21574 4.707639,-0.64723 1.068884,-0.45547 1.898974,-1.03078 2.490271,-1.72596 0.591298,-0.71915 1.012029,-1.51021 1.262193,-2.37319 0.272907,-0.86298 0.40936,-1.71397 0.40936,-2.55298 z m 62.563812,-28.08276 c 0,0.69518 -0.0341,1.29447 -0.10234,1.79787 -0.0455,0.47943 -0.12505,0.87497 -0.23879,1.1866 -0.1137,0.28767 -0.26153,0.5034 -0.44347,0.64723 -0.15919,0.14382 -0.34113,0.21574 -0.54581,0.21574 h -11.05271 v 37.50362 c 0,0.23972 -0.0796,0.45545 -0.2388,0.64723 -0.13645,0.19177 -0.37524,0.34759 -0.71638,0.46745 -0.34113,0.11985 -0.80735,0.21573 -1.39865,0.28765 -0.56855,0.072 -1.28493,0.10788 -2.14913,0.10788 -0.8642,0 -1.59196,-0.0359 -2.18326,-0.10788 -0.56855,-0.072 -1.0234,-0.1678 -1.36453,-0.28765 -0.34113,-0.11986 -0.5913,-0.27568 -0.75049,-0.46745 -0.13645,-0.19178 -0.20468,-0.40751 -0.20468,-0.64723 V 213.50657 H 91.491914 c -0.227423,0 -0.420732,-0.072 -0.579927,-0.21574 -0.159195,-0.14383 -0.295649,-0.35956 -0.40936,-0.64723 -0.113711,-0.31163 -0.20468,-0.70717 -0.272906,-1.1866 -0.04549,-0.5034 -0.06823,-1.10269 -0.06823,-1.79787 0,-0.71915 0.02274,-1.33042 0.06823,-1.83383 0.06823,-0.50341 0.159195,-0.89893 0.272906,-1.1866 0.113711,-0.31162 0.250165,-0.52737 0.40936,-0.64722 0.159195,-0.14383 0.352504,-0.21575 0.579927,-0.21575 h 31.111346 c 0.20468,0 0.38662,0.072 0.54581,0.21575 0.18194,0.11985 0.32977,0.3356 0.44347,0.64722 0.11372,0.28767 0.19332,0.68319 0.23879,1.1866 0.0682,0.50341 0.10234,1.11468 0.10234,1.83383 z m 43.35803,18.8417 c 0,3.85943 -0.45485,7.31135 -1.36453,10.35574 -0.90969,3.0444 -2.26285,5.63333 -4.05948,7.76681 -1.79664,2.1095 -4.02538,3.72759 -6.68622,4.85425 -2.63809,1.1027 -5.69692,1.65405 -9.17648,1.65405 -3.43407,0 -6.43604,-0.46745 -9.00592,-1.40235 -2.54713,-0.95886 -4.67352,-2.40915 -6.37918,-4.35084 -1.70567,-1.9417 -2.99061,-4.41078 -3.85481,-7.40724 -0.84146,-2.99645 -1.26219,-6.54425 -1.26219,-10.6434 0,-3.76355 0.45485,-7.14354 1.36453,-10.13999 0.90969,-3.02043 2.26285,-5.5854 4.05949,-7.6949 1.79663,-2.1095 4.01399,-3.72759 6.65209,-4.85426 2.66084,-1.12666 5.74241,-1.69 9.24472,-1.69 3.34309,0 6.28822,0.46745 8.83534,1.40235 2.56987,0.9349 4.70764,2.3732 6.41331,4.31489 1.72841,1.9417 3.02471,4.3988 3.88892,7.37127 0.88694,2.94852 1.33041,6.43638 1.33041,10.46362 z m -9.41527,0.5034 c 0,-2.4451 -0.18194,-4.66248 -0.54581,-6.65212 -0.36389,-2.01362 -0.98929,-3.72759 -1.87624,-5.14191 -0.8642,-1.4383 -2.02406,-2.541 -3.47955,-3.30809 -1.45551,-0.79106 -3.27488,-1.1866 -5.45814,-1.1866 -2.20599,0 -4.04812,0.44347 -5.52636,1.33043 -1.47824,0.86298 -2.67221,2.0256 -3.5819,3.48787 -0.90968,1.46227 -1.55783,3.17624 -1.94445,5.14191 -0.36387,1.9417 -0.54581,4.00326 -0.54581,6.18468 0,2.54099 0.18194,4.83029 0.54581,6.86788 0.36387,2.01361 0.97792,3.73956 1.84211,5.17786 0.86421,1.4383 2.02407,2.541 3.47956,3.30809 1.45551,0.74311 3.28626,1.11468 5.49225,1.11468 2.20599,0 4.04812,-0.43149 5.52636,-1.29446 1.47824,-0.86299 2.67221,-2.03759 3.58189,-3.52384 0.90969,-1.48624 1.54647,-3.21219 1.91035,-5.17787 0.38662,-1.98964 0.57993,-4.09915 0.57993,-6.32851 z m 48.91851,9.34893 c 0,1.65405 -0.21605,3.15228 -0.64815,4.49469 -0.43211,1.3424 -1.03477,2.529 -1.80801,3.55978 -0.75049,1.03078 -1.66018,1.91774 -2.72906,2.66085 -1.04615,0.74312 -2.206,1.3544 -3.47956,1.83384 -1.27357,0.47942 -2.6381,0.83899 -4.0936,1.07871 -1.43276,0.21575 -3.03609,0.32362 -4.80998,0.32362 h -11.73499 c -0.75049,0 -1.38726,-0.22773 -1.91034,-0.68319 -0.50033,-0.47942 -0.75049,-1.24652 -0.75049,-2.30128 V 208.7602 c 0,-1.05475 0.25016,-1.80986 0.75049,-2.26532 0.52308,-0.47943 1.15985,-0.71915 1.91034,-0.71915 h 11.08684 c 2.70632,0 4.99191,0.23972 6.85677,0.71915 1.8876,0.47943 3.46819,1.21057 4.74175,2.1934 1.29631,0.95886 2.28559,2.18142 2.96786,3.66766 0.68227,1.48624 1.0234,3.23617 1.0234,5.24978 0,1.12667 -0.13645,2.19341 -0.40936,3.20022 -0.27291,0.98284 -0.67089,1.88177 -1.19396,2.69681 -0.52308,0.81503 -1.17123,1.53418 -1.94447,2.15744 -0.75049,0.62326 -1.61469,1.12666 -2.5926,1.51022 1.25081,0.23972 2.39929,0.65921 3.44544,1.2585 1.06888,0.59929 1.98995,1.37838 2.76318,2.33724 0.79598,0.9349 1.42139,2.03759 1.87623,3.30808 0.45484,1.2705 0.68227,2.69681 0.68227,4.27893 z m -11.59853,-19.59679 c 0,-0.9349 -0.13645,-1.77391 -0.40936,-2.51703 -0.27291,-0.74311 -0.68227,-1.3544 -1.22808,-1.83382 -0.54581,-0.50341 -1.23945,-0.88696 -2.08092,-1.15065 -0.81871,-0.26368 -1.92171,-0.39552 -3.30898,-0.39552 H 183.632 v 12.0817 h 5.01465 c 1.29631,0 2.33108,-0.15582 3.10431,-0.46746 0.77324,-0.3356 1.41002,-0.77907 1.91035,-1.33042 0.52308,-0.57532 0.90969,-1.23454 1.15985,-1.97766 0.25017,-0.76709 0.37525,-1.57014 0.37525,-2.40914 z m 2.28559,19.92041 c 0,-1.07872 -0.17056,-2.03759 -0.51169,-2.8766 -0.34114,-0.86297 -0.84147,-1.58212 -1.501,-2.15744 -0.65952,-0.57531 -1.50098,-1.0188 -2.52438,-1.33042 -1.0234,-0.31163 -2.35382,-0.46745 -3.99126,-0.46745 H 183.632 v 13.23234 h 6.48152 c 1.25083,0 2.29696,-0.13185 3.13843,-0.39553 0.8642,-0.28766 1.60332,-0.69518 2.21736,-1.22256 0.63679,-0.55135 1.12574,-1.22255 1.46688,-2.01362 0.36387,-0.81503 0.54581,-1.73794 0.54581,-2.76872 z m 56.21875,-10.17595 c 0,3.85943 -0.45485,7.31135 -1.36453,10.35574 -0.90969,3.0444 -2.26285,5.63333 -4.05949,7.76681 -1.79664,2.1095 -4.02538,3.72759 -6.68622,4.85425 -2.63809,1.1027 -5.69692,1.65405 -9.17648,1.65405 -3.43407,0 -6.43604,-0.46745 -9.00591,-1.40235 -2.54712,-0.95886 -4.67353,-2.40915 -6.37919,-4.35084 -1.70566,-1.9417 -2.9906,-4.41078 -3.85481,-7.40724 -0.84146,-2.99645 -1.26219,-6.54425 -1.26219,-10.6434 0,-3.76355 0.45485,-7.14354 1.36453,-10.13999 0.90969,-3.02043 2.26285,-5.5854 4.05949,-7.6949 1.79664,-2.1095 4.014,-3.72759 6.6521,-4.85426 2.66083,-1.12666 5.74241,-1.69 9.24471,-1.69 3.3431,0 6.28822,0.46745 8.83535,1.40235 2.56987,0.9349 4.70764,2.3732 6.4133,4.31489 1.72841,1.9417 3.02472,4.3988 3.88892,7.37127 0.88695,2.94852 1.33042,6.43638 1.33042,10.46362 z m -9.41528,0.5034 c 0,-2.4451 -0.18194,-4.66248 -0.54581,-6.65212 -0.36387,-2.01362 -0.98928,-3.72759 -1.87623,-5.14191 -0.8642,-1.4383 -2.02406,-2.541 -3.47956,-3.30809 -1.45551,-0.79106 -3.27488,-1.1866 -5.45813,-1.1866 -2.20599,0 -4.04812,0.44347 -5.52636,1.33043 -1.47825,0.86298 -2.67221,2.0256 -3.58189,3.48787 -0.90969,1.46227 -1.55785,3.17624 -1.94447,5.14191 -0.36387,1.9417 -0.54581,4.00326 -0.54581,6.18468 0,2.54099 0.18194,4.83029 0.54581,6.86788 0.36388,2.01361 0.97792,3.73956 1.84212,5.17786 0.8642,1.4383 2.02406,2.541 3.47956,3.30809 1.4555,0.74311 3.28625,1.11468 5.49224,1.11468 2.20599,0 4.04812,-0.43149 5.52636,-1.29446 1.47824,-0.86299 2.67221,-2.03759 3.5819,-3.52384 0.90968,-1.48624 1.54647,-3.21219 1.91035,-5.17787 0.38662,-1.98964 0.57992,-4.09915 0.57992,-6.32851 z m 52.87564,22.07787 c 0,0.23972 -0.0796,0.45546 -0.23879,0.64723 -0.13645,0.1678 -0.37525,0.31163 -0.71638,0.43149 -0.34114,0.11987 -0.80735,0.20377 -1.39865,0.2517 -0.56855,0.072 -1.28493,0.10788 -2.14914,0.10788 -0.8642,0 -1.59195,-0.0359 -2.18325,-0.10788 -0.56855,-0.0479 -1.0234,-0.13181 -1.36453,-0.2517 -0.3184,-0.11986 -0.54582,-0.26369 -0.68227,-0.43149 -0.13645,-0.19177 -0.20468,-0.40751 -0.20468,-0.64723 v -24.52297 c 0,-0.9349 0.0114,-1.84582 0.0341,-2.73277 0.0227,-0.91092 0.0569,-1.71397 0.10234,-2.40914 h -0.0682 c -0.18194,0.3356 -0.398,0.73112 -0.64815,1.18658 -0.25017,0.4315 -0.52308,0.89894 -0.81873,1.40235 -0.27291,0.47943 -0.56855,0.98284 -0.88694,1.51021 -0.31839,0.50341 -0.63678,0.99483 -0.95518,1.47426 l -15.35098,24.12744 c -0.18194,0.26368 -0.37525,0.49142 -0.57993,0.68319 -0.18194,0.19177 -0.43211,0.34758 -0.7505,0.46745 -0.29564,0.0959 -0.67089,0.15581 -1.12574,0.17979 -0.4321,0.0479 -1.00066,0.0719 -1.70566,0.0719 -0.88695,0 -1.60333,-0.0359 -2.14914,-0.10787 -0.54581,-0.0479 -0.97791,-0.13181 -1.29631,-0.2517 -0.29564,-0.11986 -0.50033,-0.27567 -0.61404,-0.46744 -0.11371,-0.19177 -0.17056,-0.41951 -0.17056,-0.68319 v -44.01191 c 0,-0.23972 0.0682,-0.44348 0.20468,-0.61128 0.15919,-0.19177 0.40936,-0.34758 0.75049,-0.46744 0.36387,-0.11987 0.83009,-0.20377 1.39864,-0.2517 0.56856,-0.072 1.28494,-0.10788 2.14915,-0.10788 0.88694,0 1.61469,0.0359 2.18324,0.10788 0.56856,0.0479 1.0234,0.13181 1.36454,0.2517 0.34113,0.11986 0.57993,0.27567 0.71638,0.46744 0.13645,0.1678 0.20468,0.37156 0.20468,0.61128 v 24.6668 c 0,0.7671 -0.0114,1.58214 -0.0341,2.44511 -0.0227,0.86298 -0.0569,1.70199 -0.10234,2.51702 h 0.0682 c 0.38662,-0.71915 0.87557,-1.58212 1.46687,-2.58893 0.5913,-1.00681 1.20534,-1.98965 1.84213,-2.94852 l 15.35099,-24.12744 c 0.15919,-0.23972 0.32976,-0.44347 0.5117,-0.61127 0.18194,-0.19178 0.42073,-0.34759 0.71637,-0.46745 0.3184,-0.11986 0.70502,-0.20376 1.15985,-0.25171 0.45485,-0.0479 1.03478,-0.0719 1.73979,-0.0719 0.8642,0 1.55784,0.0359 2.08091,0.10787 0.54581,0.0479 0.97792,0.13181 1.29631,0.2517 0.31839,0.11986 0.53444,0.27567 0.64815,0.46744 0.13645,0.1678 0.20468,0.38355 0.20468,0.64724 z m 121.27285,-0.0359 c 0,0.26369 -0.0683,0.49142 -0.20468,0.68319 -0.13645,0.1678 -0.38662,0.31163 -0.7505,0.43149 -0.34113,0.11987 -0.80734,0.20377 -1.39864,0.2517 -0.5913,0.072 -1.35316,0.10788 -2.28559,0.10788 -0.97792,0 -1.7739,-0.0359 -2.38793,-0.10788 -0.5913,-0.0479 -1.06889,-0.13181 -1.43276,-0.2517 -0.36388,-0.14382 -0.63679,-0.32361 -0.81872,-0.53936 -0.18194,-0.23972 -0.31839,-0.52737 -0.40937,-0.86298 L 405.198,240.40276 c -0.50034,-1.5102 -1.02341,-2.76872 -1.56922,-3.77553 -0.54581,-1.03078 -1.14848,-1.85779 -1.80801,-2.48106 -0.65952,-0.64723 -1.41001,-1.1027 -2.25148,-1.36639 -0.84146,-0.26368 -1.78526,-0.39552 -2.8314,-0.39552 h -2.01269 v 18.62595 c 0,0.26368 -0.0682,0.49142 -0.20468,0.68319 -0.13645,0.1678 -0.37525,0.32362 -0.71638,0.46744 -0.34113,0.11987 -0.79598,0.20377 -1.36453,0.2517 -0.56856,0.072 -1.2963,0.10788 -2.18325,0.10788 -0.8642,0 -1.59195,-0.0359 -2.18325,-0.10788 -0.56856,-0.0479 -1.0234,-0.13181 -1.36453,-0.2517 -0.34114,-0.14382 -0.5913,-0.29964 -0.7505,-0.46744 -0.13645,-0.19177 -0.20468,-0.41951 -0.20468,-0.68319 v -43.97597 c 0,-0.26369 0.0683,-0.47944 0.20468,-0.64724 0.1592,-0.19177 0.40936,-0.34758 0.7505,-0.46744 0.34113,-0.11987 0.79597,-0.20377 1.36453,-0.2517 0.5913,-0.0719 1.31905,-0.10787 2.18325,-0.10787 0.88695,0 1.61469,0.0359 2.18325,0.10787 0.56855,0.0479 1.0234,0.13181 1.36453,0.2517 0.34113,0.11986 0.57993,0.27567 0.71638,0.46744 0.13645,0.1678 0.20468,0.38355 0.20468,0.64724 v 17.47532 h 2.01269 c 1.0234,0 1.92172,-0.14383 2.69495,-0.43149 0.77324,-0.28767 1.46688,-0.74313 2.08091,-1.36639 0.63678,-0.62327 1.20535,-1.42631 1.70567,-2.40914 0.52307,-1.00681 1.02339,-2.24136 1.50099,-3.70363 l 2.96785,-9.27701 c 0.11372,-0.33561 0.25017,-0.61128 0.40936,-0.82702 0.1592,-0.23972 0.40936,-0.4195 0.75049,-0.53937 0.36388,-0.14382 0.83009,-0.23972 1.39865,-0.28765 0.5913,-0.0719 1.37591,-0.10787 2.35382,-0.10787 0.88695,0 1.6147,0.0359 2.18326,0.10787 0.5913,0.0479 1.04613,0.13181 1.36453,0.2517 0.34113,0.0959 0.56855,0.23972 0.68226,0.43149 0.11372,0.1678 0.17057,0.38354 0.17057,0.64723 0,0.31163 -0.0569,0.69517 -0.17057,1.15064 -0.091,0.45546 -0.26153,1.05475 -0.5117,1.79787 l -2.96786,8.27021 c -0.54581,1.53419 -1.09163,2.84064 -1.63744,3.91936 -0.54581,1.07873 -1.12573,2.00163 -1.73977,2.76872 -0.5913,0.74312 -1.22809,1.3544 -1.91035,1.83384 -0.65953,0.47942 -1.39865,0.87496 -2.21736,1.18659 v 0.0359 c 0.90968,0.40752 1.72841,0.87496 2.45615,1.40233 0.7505,0.50341 1.44413,1.15065 2.08092,1.94171 0.65952,0.79106 1.28493,1.76192 1.87623,2.91255 0.5913,1.15064 1.19396,2.56497 1.80801,4.24297 l 3.616,9.6366 c 0.36388,0.98284 0.57993,1.66603 0.64816,2.04958 0.0682,0.35957 0.10234,0.65922 0.10234,0.89893 z m 44.58609,-22.54531 c 0,3.85943 -0.45484,7.31135 -1.36453,10.35574 -0.90968,3.0444 -2.26285,5.63333 -4.05949,7.76681 -1.79662,2.1095 -4.02537,3.72759 -6.6862,4.85425 -2.6381,1.1027 -5.69692,1.65405 -9.17648,1.65405 -3.43407,0 -6.43605,-0.46745 -9.00592,-1.40235 -2.54713,-0.95886 -4.67352,-2.40915 -6.3792,-4.35084 -1.70566,-1.9417 -2.9906,-4.41078 -3.85479,-7.40724 -0.84147,-2.99645 -1.2622,-6.54425 -1.2622,-10.6434 0,-3.76355 0.45485,-7.14354 1.36454,-10.13999 0.90968,-3.02043 2.26285,-5.58539 4.05947,-7.6949 1.79664,-2.1095 4.01401,-3.72759 6.6521,-4.85426 2.66084,-1.12666 5.74241,-1.68999 9.24471,-1.68999 3.34311,0 6.28822,0.46744 8.83535,1.40234 2.56987,0.9349 4.70764,2.3732 6.4133,4.31489 1.72841,1.9417 3.02472,4.3988 3.88892,7.37127 0.88695,2.94852 1.33042,6.43638 1.33042,10.46362 z m -9.41528,0.5034 c 0,-2.4451 -0.18193,-4.66248 -0.54581,-6.65212 -0.36387,-2.01362 -0.98928,-3.72759 -1.87623,-5.14191 -0.8642,-1.4383 -2.02405,-2.541 -3.47956,-3.30809 -1.4555,-0.79106 -3.27488,-1.1866 -5.45813,-1.1866 -2.20599,0 -4.04811,0.44347 -5.52635,1.33043 -1.47824,0.86298 -2.67222,2.0256 -3.5819,3.48787 -0.90969,1.46227 -1.55785,3.17624 -1.94447,5.14191 -0.36387,1.9417 -0.54581,4.00326 -0.54581,6.18469 0,2.54098 0.18194,4.83028 0.54581,6.86787 0.36389,2.01361 0.97793,3.73956 1.84213,5.17786 0.8642,1.4383 2.02405,2.541 3.47956,3.30809 1.4555,0.74311 3.28625,1.11468 5.49224,1.11468 2.206,0 4.04812,-0.43149 5.52636,-1.29446 1.47824,-0.86298 2.67221,-2.03759 3.5819,-3.52383 0.90968,-1.48625 1.54647,-3.2122 1.91034,-5.17788 0.38662,-1.98964 0.57992,-4.09915 0.57992,-6.32851 z m 68.39723,22.00596 c 0,0.23972 -0.0683,0.45545 -0.20469,0.64723 -0.11371,0.19177 -0.34114,0.34759 -0.68227,0.46745 -0.31838,0.11985 -0.75049,0.21574 -1.2963,0.28765 -0.54581,0.072 -1.23945,0.10788 -2.08091,0.10788 -0.81873,0 -1.50099,-0.0359 -2.0468,-0.10788 -0.54581,-0.072 -0.97791,-0.1678 -1.29631,-0.28765 -0.31839,-0.11986 -0.54581,-0.27568 -0.68226,-0.46745 -0.13645,-0.19178 -0.20468,-0.40751 -0.20468,-0.64723 v -37.86319 h -0.0683 l -12.79249,37.82723 c -0.091,0.31162 -0.2388,0.57531 -0.44348,0.79106 -0.20468,0.19177 -0.48896,0.34759 -0.85283,0.46745 -0.34113,0.11986 -0.78461,0.19178 -1.33042,0.21575 -0.54581,0.0479 -1.20534,0.0719 -1.97857,0.0719 -0.77324,0 -1.43276,-0.0359 -1.97858,-0.10788 -0.54581,-0.0479 -1.00065,-0.13181 -1.36453,-0.2517 -0.34113,-0.14382 -0.61404,-0.31163 -0.81872,-0.50341 -0.20468,-0.19177 -0.34113,-0.41949 -0.40936,-0.68319 l -12.349,-37.82729 h -0.0682 v 37.86319 c 0,0.23972 -0.0682,0.45545 -0.20468,0.64722 -0.11371,0.19178 -0.34113,0.3476 -0.68226,0.46746 -0.34113,0.11985 -0.78461,0.21573 -1.33042,0.28765 -0.52307,0.072 -1.20533,0.10788 -2.0468,0.10788 -0.81872,0 -1.50099,-0.0359 -2.0468,-0.10788 -0.54581,-0.0719 -0.98929,-0.1678 -1.33042,-0.28765 -0.31839,-0.11986 -0.54582,-0.27568 -0.68227,-0.46746 -0.11371,-0.19177 -0.17056,-0.4075 -0.17056,-0.64722 v -41.45893 c 0,-1.22255 0.30702,-2.15745 0.92105,-2.80469 0.61404,-0.64722 1.43277,-0.97084 2.45617,-0.97084 h 5.86749 c 1.04614,0 1.94446,0.0959 2.69495,0.28765 0.75049,0.16781 1.39865,0.46746 1.94446,0.89894 0.54581,0.40752 1.00065,0.95887 1.36454,1.65404 0.36387,0.67121 0.68226,1.51022 0.95517,2.51703 l 9.55172,27.72318 h 0.13646 l 9.89286,-27.65127 c 0.29564,-1.0068 0.61404,-1.8578 0.95517,-2.55297 0.36388,-0.69518 0.77324,-1.25852 1.22809,-1.69001 0.47758,-0.43148 1.03475,-0.73113 1.67154,-0.89894 0.63678,-0.19177 1.3759,-0.28765 2.21736,-0.28765 h 6.03807 c 0.61404,0 1.13711,0.0839 1.56921,0.2517 0.45484,0.1678 0.81871,0.4195 1.09162,0.75511 0.29565,0.31162 0.5117,0.70716 0.64815,1.18659 0.15921,0.45546 0.23881,0.98284 0.23881,1.58213 z m 44.00615,0.0719 c 0,0.23972 -0.0683,0.45546 -0.20468,0.64723 -0.13645,0.1678 -0.37524,0.31163 -0.71637,0.43149 -0.34113,0.11987 -0.80735,0.20377 -1.39865,0.2517 -0.56856,0.072 -1.28494,0.10788 -2.14914,0.10788 -0.8642,0 -1.59195,-0.0359 -2.18325,-0.10788 -0.56856,-0.0479 -1.0234,-0.13181 -1.36453,-0.2517 -0.34114,-0.11986 -0.5913,-0.26369 -0.7505,-0.43149 -0.13645,-0.19177 -0.20468,-0.40751 -0.20468,-0.64723 v -37.43176 h -16.44261 v 37.43169 c 0,0.23972 -0.0796,0.45546 -0.23879,0.64723 -0.13645,0.1678 -0.37525,0.31163 -0.71639,0.43149 -0.34113,0.11987 -0.79597,0.20377 -1.36453,0.2517 -0.56855,0.072 -1.2963,0.10788 -2.18325,0.10788 -0.8642,0 -1.59196,-0.0359 -2.18326,-0.10788 -0.56855,-0.0479 -1.0234,-0.13181 -1.36453,-0.2517 -0.34113,-0.11986 -0.57992,-0.26369 -0.71637,-0.43149 -0.13645,-0.19177 -0.20468,-0.40751 -0.20468,-0.64723 v -42.3219 c 0,-1.00681 0.23879,-1.74994 0.71637,-2.22936 0.47759,-0.50341 1.11437,-0.75511 1.91035,-0.75511 h 29.16689 c 0.81871,0 1.45549,0.2517 1.91034,0.75511 0.45484,0.47942 0.68226,1.22255 0.68226,2.22936 z m 42.09586,-14.20319 c 0,2.20539 -0.3184,4.23099 -0.95519,6.07681 -0.61403,1.84581 -1.62605,3.4639 -3.03607,4.85426 -1.38728,1.36638 -3.20666,2.45708 -5.45814,3.27212 -2.25147,0.81503 -5.33304,1.22255 -9.24471,1.22255 h -11.0186 c -0.38662,0 -0.75049,-0.0479 -1.09162,-0.14383 -0.3184,-0.11986 -0.60268,-0.29964 -0.85283,-0.53936 -0.25017,-0.26368 -0.45485,-0.57532 -0.61405,-0.93489 -0.13645,-0.38355 -0.20468,-0.83902 -0.20468,-1.36639 v -42.3219 c 0,-0.23971 0.0683,-0.44348 0.20468,-0.61128 0.1592,-0.19177 0.40937,-0.34758 0.7505,-0.46744 0.36387,-0.11987 0.83008,-0.20377 1.39864,-0.2517 0.5913,-0.072 1.30768,-0.10787 2.14914,-0.10787 0.88695,0 1.61469,0.0359 2.18325,0.10787 0.56856,0.0479 1.0234,0.13181 1.36453,0.2517 0.34113,0.11986 0.57993,0.27567 0.71638,0.46744 0.13645,0.1678 0.20468,0.37157 0.20468,0.61128 v 15.85723 h 6.17452 c 3.3431,0 6.00394,0.31163 7.98252,0.93489 1.97857,0.59929 3.65011,1.49823 5.01465,2.69681 1.38727,1.19859 2.45616,2.67284 3.20665,4.42276 0.7505,1.74994 1.12575,3.73958 1.12575,5.96894 z m -9.2106,0.79106 c 0,-1.1746 -0.1592,-2.21738 -0.4776,-3.12829 -0.31838,-0.91092 -0.80734,-1.69 -1.46686,-2.33724 -0.65953,-0.64723 -1.51236,-1.13865 -2.5585,-1.47425 -1.0234,-0.35957 -2.5585,-0.53936 -4.6053,-0.53936 h -5.18523 v 14.7785 h 5.3558 c 2.13776,0 3.72972,-0.21574 4.77586,-0.64723 1.06889,-0.45546 1.89897,-1.03078 2.49027,-1.72595 0.5913,-0.71916 1.01204,-1.51022 1.26219,-2.3732 0.27292,-0.86297 0.40937,-1.71397 0.40937,-2.55298 z m 71.67207,-9.02531 c 0,3.8834 -0.4321,7.3473 -1.2963,10.3917 -0.8642,3.0444 -2.17188,5.60936 -3.92303,7.69489 -1.7284,2.08553 -3.88892,3.67964 -6.48153,4.78234 -2.56986,1.07872 -5.57184,1.61809 -9.00591,1.61809 -3.13843,0 -5.9016,-0.44347 -8.28954,-1.33043 -2.38794,-0.88695 -4.41199,-2.20539 -6.07217,-3.95532 -1.63744,-1.7739 -2.91101,-3.9673 -3.82069,-6.58021 -0.88695,-2.63688 -1.42139,-5.68128 -1.60333,-9.13319 h -6.78855 v 18.94957 c 0,0.23972 -0.0796,0.45546 -0.23879,0.64723 -0.13645,0.1678 -0.37525,0.31163 -0.71638,0.43149 -0.34113,0.11987 -0.79598,0.20377 -1.36454,0.2517 -0.56855,0.072 -1.2963,0.10788 -2.18325,0.10788 -0.8642,0 -1.59196,-0.0359 -2.18326,-0.10788 -0.56855,-0.0479 -1.0234,-0.13181 -1.36453,-0.2517 -0.34113,-0.11986 -0.59129,-0.26369 -0.75049,-0.43149 -0.13645,-0.19177 -0.20468,-0.40751 -0.20468,-0.64723 v -44.08382 c 0,-0.23971 0.0683,-0.44348 0.20468,-0.61128 0.1592,-0.19177 0.40936,-0.34758 0.75049,-0.46744 0.36389,-0.11987 0.8301,-0.20377 1.39865,-0.2517 0.56856,-0.072 1.28494,-0.10787 2.14914,-0.10787 0.88695,0 1.6147,0.0359 2.18325,0.10787 0.56856,0.0479 1.02341,0.13181 1.36454,0.2517 0.34113,0.11986 0.57993,0.27567 0.71638,0.46744 0.15919,0.1678 0.23879,0.37157 0.23879,0.61128 v 17.43936 h 6.95911 c 0.3184,-2.99646 0.96655,-5.69327 1.94447,-8.09043 1.00066,-2.42113 2.33107,-4.47071 3.99126,-6.14871 1.68292,-1.67802 3.70698,-2.97249 6.07216,-3.88341 2.36519,-0.91092 5.08289,-1.36639 8.15309,-1.36639 3.20665,0 6.0608,0.47944 8.56244,1.4383 2.50164,0.95886 4.6053,2.42113 6.31096,4.38681 1.72841,1.9417 3.03609,4.3988 3.92303,7.37127 0.90969,2.97248 1.36453,6.47234 1.36453,10.49958 z m -9.41527,0.5034 c 0,-2.42113 -0.19331,-4.6385 -0.57993,-6.65213 -0.36387,-2.01361 -0.97791,-3.73956 -1.84211,-5.17786 -0.84147,-1.46227 -1.9672,-2.58894 -3.37722,-3.38001 -1.41002,-0.81503 -3.16117,-1.22255 -5.25345,-1.22255 -2.18326,0 -3.97988,0.44347 -5.3899,1.33043 -1.41002,0.86298 -2.53576,2.0256 -3.37722,3.48787 -0.81872,1.46227 -1.39865,3.16426 -1.73978,5.10596 -0.3184,1.91773 -0.4776,3.95532 -0.4776,6.11276 0,1.58213 0.0683,3.09234 0.20469,4.53064 0.13645,1.41433 0.37525,2.73276 0.71638,3.95531 0.34113,1.22255 0.78461,2.33724 1.33042,3.34405 0.54581,1.00681 1.22808,1.8578 2.04679,2.55298 0.81873,0.69517 1.78527,1.23453 2.89964,1.61808 1.11437,0.38354 2.3993,0.57532 3.8548,0.57532 2.11503,0 3.86618,-0.4195 5.25345,-1.25851 1.41002,-0.83901 2.53576,-1.98964 3.37723,-3.45191 0.84146,-1.46227 1.44413,-3.17624 1.808,-5.14191 0.36388,-1.96568 0.54581,-4.07519 0.54581,-6.32852 z M 706.0092,209.6592 c 0,0.69518 -0.0341,1.29447 -0.10234,1.79787 -0.0455,0.47943 -0.12512,0.87497 -0.2388,1.1866 -0.1137,0.28767 -0.26153,0.5034 -0.44347,0.64723 -0.15919,0.14382 -0.34113,0.21574 -0.54581,0.21574 h -11.05271 v 37.50362 c 0,0.23972 -0.0796,0.45545 -0.23879,0.64723 -0.13646,0.19177 -0.37526,0.34759 -0.71639,0.46745 -0.34113,0.11985 -0.80734,0.21573 -1.39864,0.28765 -0.56856,0.072 -1.28495,0.10788 -2.14914,0.10788 -0.8642,0 -1.59196,-0.0359 -2.18326,-0.10788 -0.56855,-0.072 -1.0234,-0.1678 -1.36453,-0.28765 -0.34113,-0.11986 -0.59129,-0.27568 -0.75049,-0.46745 -0.13645,-0.19178 -0.20468,-0.40751 -0.20468,-0.64723 v -37.50362 h -11.05272 c -0.22742,0 -0.42073,-0.072 -0.57992,-0.21574 -0.15919,-0.14383 -0.29564,-0.35956 -0.40936,-0.64723 -0.11372,-0.31163 -0.20468,-0.70717 -0.27291,-1.1866 -0.0455,-0.5034 -0.0682,-1.10269 -0.0682,-1.79787 0,-0.71915 0.0227,-1.33042 0.0682,-1.83383 0.0683,-0.50341 0.15919,-0.89893 0.27291,-1.1866 0.11372,-0.31162 0.25017,-0.52737 0.40936,-0.64722 0.15919,-0.14383 0.3525,-0.21575 0.57992,-0.21575 h 31.11135 c 0.20468,0 0.38662,0.072 0.54581,0.21575 0.18194,0.11985 0.32977,0.3356 0.44347,0.64722 0.11372,0.28767 0.19332,0.68319 0.2388,1.1866 0.0682,0.50341 0.10234,1.11468 0.10234,1.83383 z m 31.38429,38.94191 c 0,0.69517 -0.0341,1.28248 -0.10234,1.76191 -0.0455,0.45547 -0.12505,0.82702 -0.23879,1.11468 -0.11372,0.28767 -0.26153,0.50341 -0.44347,0.64724 -0.15919,0.11985 -0.34113,0.17978 -0.54581,0.17978 h -22.17366 c -0.75049,0 -1.38728,-0.22773 -1.91034,-0.68319 -0.50033,-0.47942 -0.7505,-1.24652 -0.7505,-2.30128 v -40.55998 c 0,-1.05475 0.25017,-1.80986 0.7505,-2.26532 0.52306,-0.47943 1.15985,-0.71915 1.91034,-0.71915 h 22.0372 c 0.20468,0 0.38662,0.06 0.54582,0.17978 0.15919,0.11987 0.29564,0.33561 0.40935,0.64724 0.11372,0.28766 0.19331,0.67121 0.2388,1.15064 0.0683,0.45547 0.10234,1.04276 0.10234,1.76191 0,0.67121 -0.0341,1.24653 -0.10234,1.72596 -0.0455,0.45546 -0.12512,0.82702 -0.2388,1.11468 -0.11371,0.28766 -0.25016,0.50341 -0.40935,0.64723 -0.1592,0.11987 -0.34114,0.1798 -0.54582,0.1798 h -15.76035 v 11.36254 h 13.3383 c 0.20468,0 0.38662,0.072 0.54581,0.21575 0.18194,0.11986 0.32977,0.32361 0.44349,0.61127 0.1137,0.26369 0.1933,0.63525 0.23879,1.11468 0.0683,0.45546 0.10234,1.0188 0.10234,1.69001 0,0.69517 -0.0341,1.27048 -0.10234,1.72595 -0.0455,0.45546 -0.12506,0.82701 -0.23879,1.11468 -0.11372,0.26369 -0.26155,0.45546 -0.44349,0.57532 -0.15919,0.11986 -0.34113,0.17978 -0.54581,0.17978 h -13.3383 v 13.12447 h 15.89681 c 0.20468,0 0.38662,0.072 0.54581,0.21574 0.18194,0.11987 0.32975,0.32362 0.44347,0.61128 0.11372,0.28767 0.19331,0.67121 0.23879,1.15064 0.0682,0.45546 0.10234,1.03078 0.10234,1.72596 z m 38.1387,-28.69404 c 0,2.6129 -0.38662,4.92616 -1.15986,6.93979 -0.77323,2.01361 -1.89897,3.7156 -3.37721,5.10596 -1.47824,1.36638 -3.29762,2.40914 -5.45814,3.12829 -2.13776,0.71915 -4.66215,1.07873 -7.57315,1.07873 h -3.68424 v 14.85042 c 0,0.23972 -0.0796,0.45545 -0.23879,0.64723 -0.13645,0.19177 -0.37525,0.34759 -0.71638,0.46745 -0.34113,0.11985 -0.79598,0.21573 -1.36454,0.28765 -0.56855,0.072 -1.2963,0.10788 -2.18325,0.10788 -0.8642,0 -1.59196,-0.0359 -2.18326,-0.10788 -0.56855,-0.072 -1.0234,-0.1678 -1.36453,-0.28765 -0.34113,-0.11986 -0.57992,-0.27568 -0.71637,-0.46745 -0.13645,-0.19178 -0.20468,-0.40751 -0.20468,-0.64723 V 209.1558 c 0,-1.12667 0.2729,-1.96567 0.81871,-2.51703 0.56856,-0.57532 1.30768,-0.86297 2.21737,-0.86297 h 10.40456 c 1.04614,0 2.03543,0.0479 2.96787,0.14383 0.95517,0.072 2.09228,0.2517 3.41132,0.53936 1.31905,0.26368 2.64947,0.76709 3.99126,1.51021 1.36453,0.74312 2.52439,1.69 3.47956,2.84064 0.95517,1.12666 1.68293,2.45709 2.18325,3.99127 0.50033,1.51022 0.7505,3.21221 0.7505,5.10596 z m -9.38116,0.68319 c 0,-1.63007 -0.27292,-2.97248 -0.81873,-4.02723 -0.54581,-1.05475 -1.2167,-1.83382 -2.01268,-2.33723 -0.79598,-0.50341 -1.63744,-0.81504 -2.52439,-0.9349 -0.86421,-0.14383 -1.76252,-0.21574 -2.69495,-0.21574 h -3.82069 v 15.78531 h 4.02537 c 1.43276,0 2.62672,-0.20376 3.5819,-0.61128 0.97791,-0.40751 1.77389,-0.97084 2.38793,-1.68999 0.61404,-0.74312 1.08026,-1.61809 1.39864,-2.6249 0.3184,-1.03077 0.4776,-2.14545 0.4776,-3.34404 z" /></svg>
