<?xml version="1.0" encoding="UTF-8" standalone="no"?>
<!-- Created by ERK -->

<svg
   version="1.2"
   width="564.703"
   height="165.918"
   xml:space="preserve"
   id="svg9"
   sodipodi:docname="apple2.svg"
   inkscape:version="1.4 (86a8ad7, 2024-10-11)"
   xmlns:inkscape="http://www.inkscape.org/namespaces/inkscape"
   xmlns:sodipodi="http://sodipodi.sourceforge.net/DTD/sodipodi-0.dtd"
   xmlns="http://www.w3.org/2000/svg"
   xmlns:svg="http://www.w3.org/2000/svg"><defs
   id="defs9" /><sodipodi:namedview
   id="namedview9"
   pagecolor="#ffffff"
   bordercolor="#000000"
   borderopacity="0.25"
   inkscape:showpageshadow="2"
   inkscape:pageopacity="0.0"
   inkscape:pagecheckerboard="true"
   inkscape:deskcolor="#d1d1d1"
   inkscape:zoom="3.2512666"
   inkscape:cx="274.96976"
   inkscape:cy="75.201461"
   inkscape:window-width="3840"
   inkscape:window-height="2066"
   inkscape:window-x="-11"
   inkscape:window-y="-11"
   inkscape:window-maximized="1"
   inkscape:current-layer="g9" />
    
    
    
    
    
    
    
    
    <g
   id="g9"
   inkscape:label="Logo"><path
     d="M111.086 37.069c5.679-5.748 8.638-13.819 9.046-24.675l.015-.394-.418.079c-19.945 3.763-30.245 15.294-30.615 34.27l-.008.37.396-.057c9.501-1.372 16.561-4.511 21.584-9.593z"
     style="fill:green;stroke-width:.88239473"
     id="path1"
     inkscape:label="AppleGreen1" /><path
     d="M145.203 62.003a63.502 63.502 0 0 1 4.247-3.566l.255-.196-.21-.238c-7.4-8.42-17.534-12.961-29.306-13.132l-.54-.003c-5.965 0-11.24 1.031-15.254 2.982-5.206 2.529-9.078 3.09-9.115 3.095-.068.009-.495.024-1.663.024-1.419 0-2.644-.021-2.79-.04l-.094-.012c-1.67-.199-5.925-.845-9.374-2.54a34.417 34.417 0 0 0-15.101-3.525l-.342.002c-13.728.141-25.205 6.311-32.335 17.149z"
     style="fill:green;stroke-width:0.88239473"
     id="path3"
     inkscape:label="AppleGreen2" /><path
     d="M133.692 80.005c1.351-6.026 4.998-11.876 10.944-17.474l.56-.528H33.58l-.098.15c-3.421 5.235-5.687 11.291-6.763 17.85z"
     style="fill:#ff0;stroke-width:0.88239473"
     id="path4"
     inkscape:label="AppleYellow" /><path
     d="M136.307 97.788c-2.7-5.115-4.025-11.024-2.682-17.409l.078-.37H26.729l-.042.263c-.905 5.687-.905 11.574-.068 17.515h109.688Z"
     style="fill:#f60;stroke-width:0.88239473"
     id="path5"
     inkscape:label="AppleOrange" /><path
     d="M31.874 116.444h122.249l.716-1.428-.294-.134c-5.851-2.672-13.694-8.521-18.16-16.921l-.092-.174H26.615l.05.35c.746 5.147 2.271 11.4 5.208 18.307z"
     style="fill:red;stroke-width:0.88239473"
     id="path6"
     inkscape:label="AppleRed" /><path
     d="M42.45 134.675h101.575c3.878-5.797 7.075-12.18 9.884-17.79l.22-.44H31.893l.185.425c2.671 6.156 6.142 12.104 10.372 17.805z"
     style="fill:#800080;stroke-width:0.88239473;fill-opacity:1"
     id="path7"
     inkscape:label="ApplePurple" /><path
     d="m42.448 134.675.366.487c3.297 4.386 7.078 8.653 11.236 12.687 3.167 3.07 8.212 4.76 14.204 4.76 4.392 0 8.945-.952 11.884-2.486 6.08-3.17 9.303-3.177 11.655-3.18.472 0 .913-.002 1.338-.025l.384-.022c.509-.03 1.034-.063 1.627-.063 2.085 0 5.2.377 10.862 3.329 3.952 1.53 7.784 2.303 11.39 2.303h.002c9.818 0 18.427-5.668 26.318-17.314l.322-.476H42.448Z"
     style="fill:#00f;stroke-width:.88239473"
     id="path2"
     inkscape:label="AppleBlue" /><path
     d="m 369.338,44.56 v 66.581 h 17.45 V 44.56 Z m 112.72,0 v 9.275 h 10.22 c 0.543,0 1.065,0.202 1.45,0.566 0.383,0.364 0.598,0.86 0.596,1.375 V 99.94 a 1.893,1.893 0 0 1 -0.597,1.374 2.098,2.098 0 0 1 -1.45,0.566 h -10.22 v 9.293 h 27.387 V 44.559 Z m 35.389,0 v 66.613 h 27.384 v -9.29 h -10.218 a 2.096,2.096 0 0 1 -1.45,-0.566 1.872,1.872 0 0 1 -0.592,-1.374 V 55.777 a 1.867,1.867 0 0 1 0.592,-1.375 2.098,2.098 0 0 1 1.45,-0.566 h 10.218 V 44.559 Z M 170.389,60.47 c -8.169,0 -14.827,2.477 -20.387,7.573 -5.595,5.127 -8.255,10.826 -8.255,17.45 0,6.536 2.789,12.31 8.71,17.694 5.903,5.366 12.495,7.955 20.134,7.955 h 11.192 V 99.118 h -4.731 c -4.307,0 -8.152,-1.29 -11.159,-3.818 -3.005,-2.525 -4.631,-5.89 -4.631,-9.623 0,-3.777 1.594,-7.14 4.564,-9.564 2.953,-2.412 6.741,-3.613 11.024,-3.613 h 11.896 c 0.544,0 1.066,0.203 1.449,0.567 0.384,0.365 0.6,0.86 0.598,1.373 v 36.706 h 17.45 V 60.47 Z m 48.642,0 v 66.58 H 236.5 V 74.436 a 1.886,1.886 0 0 1 0.597,-1.373 2.102,2.102 0 0 1 1.449,-0.567 h 11.074 c 4.608,0 8.729,1.475 11.963,4.327 2.99,2.643 4.65,5.951 4.65,9.546 0,3.719 -1.793,7.036 -5.017,9.34 -3.189,2.278 -7.14,3.408 -11.595,3.408 h -4.112 v 12.024 h 11.695 c 8.045,0 14.692,-2.393 20.287,-7.273 5.59,-4.868 8.254,-10.575 8.254,-17.575 0,-7.254 -2.673,-13.206 -8.239,-18.28 -5.572,-5.08 -12.074,-7.54 -19.883,-7.54 l -38.59,-0.003 z m 75.154,0 v 66.58 h 17.449 V 74.436 c -0.001,-0.513 0.212,-1.009 0.596,-1.373 a 2.102,2.102 0 0 1 1.452,-0.567 h 11.085 c 4.613,0 8.729,1.475 11.963,4.327 2.99,2.643 4.649,5.951 4.65,9.546 -10e-4,3.725 -1.813,7.037 -5.034,9.34 -3.187,2.278 -7.124,3.408 -11.58,3.408 h -4.115 v 12.024 h 11.695 c 8.046,0 14.677,-2.391 20.27,-7.273 5.592,-4.868 8.254,-10.575 8.254,-17.575 0,-7.254 -2.67,-13.206 -8.239,-18.28 -5.57,-5.081 -12.058,-7.54 -19.866,-7.54 z m 134.936,0 c -9.163,0 -16.976,2.565 -23.743,7.78 -6.781,5.225 -9.916,10.866 -9.916,17.323 0,7.778 3.221,13.822 10.05,18.71 6.398,4.566 14.15,6.858 23.509,6.858 h 34.36 V 99.113 h -32.618 c -4.257,0 -8.08,-1.323 -11.108,-3.865 -3.044,-2.56 -4.698,-6.002 -4.698,-9.85 0,-3.67 1.594,-6.94 4.513,-9.322 2.945,-2.402 6.825,-3.58 11.293,-3.58 h 11.077 c 0.784,-0.002 1.507,0.425 1.846,1.098 0.341,0.672 0.243,1.47 -0.25,2.052 l -12.554,14.987 h 19.18 L 463.386,73.801 V 60.47 Z"
     style="display:inline;fill:#000000;fill-opacity:1;stroke-width:0.882395"
     id="path9"
     inkscape:label="appleII_Outline" /><path
     d="M369.54 44.65v66.197h17.048V44.65Zm112.72 0v8.893h10.017c1.243 0 2.248.955 2.248 2.132v44.163c0 1.179-1.014 2.132-2.248 2.132h-10.016v8.91h26.98V44.65Zm35.388 0v66.23h26.982v-8.91h-10.017c-1.244 0-2.248-.953-2.248-2.132V55.675c0-1.177 1.005-2.132 2.248-2.132h10.017V44.65Zm-347.26 15.908c-8.122 0-14.728 2.463-20.252 7.525-5.562 5.099-8.188 10.737-8.188 17.31 0 6.48 2.77 12.2 8.658 17.546 5.873 5.339 12.396 7.907 19.984 7.907h10.99V99.202h-4.53c-4.35 0-8.249-1.31-11.293-3.867-3.043-2.554-4.697-5.982-4.697-9.767 0-3.824 1.62-7.266 4.631-9.721 2.994-2.443 6.837-3.642 11.159-3.642h11.896c1.242 0 2.248.953 2.248 2.13v36.511h17.048V60.558Zm48.845 0v66.199h17.065V74.335c0-1.177 1.007-2.13 2.248-2.13h11.074c4.652 0 8.827 1.488 12.097 4.374 3.023 2.671 4.714 6.04 4.714 9.69 0 3.771-1.816 7.16-5.084 9.495-3.226 2.308-7.238 3.439-11.728 3.439h-3.91v11.644h11.494c8 0 14.578-2.378 20.136-7.221 5.553-4.843 8.205-10.486 8.205-17.437 0-7.204-2.66-13.095-8.19-18.136-5.537-5.049-11.97-7.494-19.732-7.494zm75.155 0v66.199h17.047V74.335c0-1.177 1.012-2.13 2.249-2.13h11.09c4.652 0 8.825 1.488 12.096 4.374 3.025 2.671 4.716 6.04 4.716 9.69 0 3.776-1.836 7.163-5.103 9.495-3.222 2.305-7.218 3.439-11.709 3.439h-3.911v11.644h11.494c8 0 14.56-2.376 20.118-7.221 5.554-4.843 8.212-10.486 8.212-17.437 0-7.204-2.661-13.095-8.19-18.136-5.533-5.05-11.953-7.494-19.714-7.494zm134.733 0c-9.123 0-16.876 2.562-23.607 7.75-6.749 5.2-9.85 10.768-9.85 17.164 0 7.723 3.197 13.692 9.982 18.55 6.36 4.54 14.056 6.825 23.374 6.825h34.162V99.203h-32.417c-4.298 0-8.174-1.34-11.24-3.914-3.084-2.591-4.766-6.092-4.766-9.987 0-3.719 1.622-7.067 4.581-9.482 2.986-2.435 6.92-3.61 11.426-3.61h11.076c.862 0 1.646.468 2.018 1.202a2.046 2.046 0 0 1-.255 2.25l-12.3 14.68h18.66l13.221-16.703V60.558Z"
     style="fill:#000000;stroke-width:0.88239473"
     id="path8"
     inkscape:label="appleII" /></g>
</svg>
