<?xml version="1.0" encoding="UTF-8" standalone="no"?>
<svg
   xmlns:dc="http://purl.org/dc/elements/1.1/"
   xmlns:cc="http://creativecommons.org/ns#"
   xmlns:rdf="http://www.w3.org/1999/02/22-rdf-syntax-ns#"
   xmlns:svg="http://www.w3.org/2000/svg"
   xmlns="http://www.w3.org/2000/svg"
   xmlns:sodipodi="http://sodipodi.sourceforge.net/DTD/sodipodi-0.dtd"
   xmlns:inkscape="http://www.inkscape.org/namespaces/inkscape"
   viewBox="0 0 719.99998 200"
   version="1.1"
   id="svg32"
   sodipodi:docname="apple2gs-w.svg"
   width="720"
   height="200"
   inkscape:version="0.92.4 (5da689c313, 2019-01-14)">
  <metadata
     id="metadata38">
    <rdf:RDF>
      <cc:Work
         rdf:about="">
        <dc:format>image/svg+xml</dc:format>
        <dc:type
           rdf:resource="http://purl.org/dc/dcmitype/StillImage" />
        <dc:title></dc:title>
      </cc:Work>
    </rdf:RDF>
  </metadata>
  <defs
     id="defs36" />
  <sodipodi:namedview
     pagecolor="#ffffff"
     bordercolor="#666666"
     borderopacity="1"
     objecttolerance="10"
     gridtolerance="10"
     guidetolerance="10"
     inkscape:pageopacity="0"
     inkscape:pageshadow="2"
     inkscape:window-width="640"
     inkscape:window-height="480"
     id="namedview34"
     showgrid="false"
     inkscape:zoom="0.84445872"
     inkscape:cx="215.10298"
     inkscape:cy="201.59918"
     inkscape:current-layer="svg32" />
  <text
     transform="scale(1.0510851,0.95139775)"
     font-size="2"
     id="text2"
     x="433.42825"
     y="130.9911"
     style="font-size:1.60876203px;font-family:ArialMT;fill:#f9f9f9;stroke-width:0.80438101;">I don’t like bugs!</text>
  <g
     id="g8"
     transform="matrix(0.8454729,0,0,0.76528625,-24.948602,-6.9892849)"
     style="fill:#f9f9f9">
    <path
       d="m 342.455,152.604 c 1.287,4.1 2.459,7.377 3.513,9.836 1.054,2.459 2.75,4.451 5.094,5.972 1.639,1.172 3.132,1.844 4.479,2.02 1.346,0.176 2.021,0.791 2.021,1.845 0,1.641 -1.229,2.459 -3.688,2.459 -1.523,0 -3.485,-0.176 -5.884,-0.527 -2.401,-0.351 -5.357,-0.526 -8.87,-0.526 -4.918,0 -8.87,0.147 -11.856,0.438 -2.985,0.294 -5.065,0.439 -6.235,0.439 -1.992,0 -2.985,-0.702 -2.985,-2.107 0,-1.872 1.169,-2.811 3.513,-2.811 2.926,0 4.857,-0.291 5.796,-0.878 0.937,-0.585 1.405,-1.696 1.405,-3.338 0,-1.52 -0.526,-4.154 -1.581,-7.903 l -6.85,-22.482 c -0.236,-0.936 -1.114,-1.405 -2.635,-1.405 h -21.779 c -0.352,0 -0.733,0.148 -1.142,0.439 -0.396,0.27 -0.678,0.677 -0.791,1.142 l -4.215,15.632 c -1.757,6.91 -2.635,11.417 -2.635,13.524 0,1.757 0.352,2.929 1.054,3.513 0.702,0.588 1.872,0.997 3.513,1.229 2.341,0.352 4.098,0.764 5.27,1.229 1.169,0.47 1.757,1.348 1.757,2.635 0,1.405 -0.997,2.108 -2.986,2.108 -1.29,0 -3.222,-0.176 -5.796,-0.527 -2.577,-0.352 -5.739,-0.527 -9.485,-0.527 -2.577,0 -4.83,0.148 -6.762,0.439 -1.933,0.291 -3.54,0.439 -4.83,0.439 -2.108,0 -3.162,-0.761 -3.162,-2.283 0,-0.937 0.294,-1.551 0.879,-1.845 0.587,-0.291 1.316,-0.497 2.195,-0.614 0.936,-0.122 1.873,-0.24 2.81,-0.352 0.994,-0.115 1.96,-0.527 2.898,-1.229 1.639,-1.169 2.868,-2.838 3.688,-5.006 0.818,-2.165 1.696,-4.83 2.635,-7.992 l 27.927,-90.631 c 0.467,-1.287 0.849,-2.311 1.142,-3.074 0.291,-0.76 0.906,-1.142 1.845,-1.142 1.287,0 2.107,0.763 2.459,2.283 0.352,1.523 0.936,3.514 1.757,5.973 z M 306.272,91.656 c -0.469,0 -0.82,0.47 -1.054,1.405 l -8.255,31.089 a 5.158,5.158 0 0 0 -0.176,1.229 v 0.526 c 0,0.703 0.409,1.055 1.229,1.055 h 17.564 c 0.352,0 0.702,-0.146 1.054,-0.439 0.352,-0.291 0.527,-0.615 0.527,-0.966 0,-0.233 -0.118,-0.818 -0.352,-1.757 l -9.484,-30.562 c -0.35,-1.052 -0.701,-1.58 -1.053,-1.58 z"
       id="path4"
       inkscape:connector-curvature="0"
       style="fill:#f9f9f9" />
    <path
       d="m 375.827,105.884 c 0,0.82 0.176,1.229 0.527,1.229 0.351,0 0.817,-0.291 1.405,-0.879 l 1.756,-2.107 c 3.044,-3.513 6.147,-6.06 9.31,-7.641 3.161,-1.58 6.613,-2.371 10.362,-2.371 3.864,0 7.553,0.938 11.065,2.811 3.513,1.874 6.557,4.509 9.134,7.903 2.574,3.398 4.624,7.553 6.147,12.471 1.521,4.918 2.283,10.363 2.283,16.335 0,6.56 -0.884,12.531 -2.646,17.916 -1.762,5.387 -4.229,10.041 -7.401,13.963 -3.173,3.925 -6.93,6.969 -11.277,9.134 -4.347,2.165 -9.166,3.249 -14.452,3.249 -5.521,0 -10.635,-1.348 -15.333,-4.039 l -0.705,0.526 -0.173,24.941 c 0,2.107 0.173,3.688 0.524,4.742 0.351,1.054 1.229,1.872 2.635,2.459 1.169,0.585 2.311,0.936 3.425,1.054 1.111,0.115 2.047,0.233 2.81,0.352 0.761,0.115 1.375,0.352 1.845,0.702 0.467,0.352 0.702,1.055 0.702,2.108 0,1.638 -1.229,2.459 -3.688,2.459 -11.4255,-0.18029 -20.99086,-0.11411 -29.858,0 -2.108,0 -3.162,-0.938 -3.162,-2.811 0,-1.642 0.643,-2.459 1.933,-2.459 1.287,0 2.81,-0.352 4.566,-1.054 1.521,-0.588 2.547,-1.405 3.073,-2.459 0.527,-1.054 0.791,-2.753 0.791,-5.094 v -79.391 c 0,-3.161 -0.412,-5.269 -1.229,-6.323 -0.821,-1.054 -1.729,-1.726 -2.723,-2.02 -0.996,-0.291 -1.904,-0.467 -2.723,-0.527 -0.82,-0.058 -4.03025,2.61619 -4.03025,1.44419 0,-1.405 3.70725,-5.71719 5.52425,-6.36219 6.60241,-4.47626 8.69089,-5.9143 14.139,-9.923 1.521,-1.756 2.75,-2.634 3.689,-2.634 1.169,0 1.756,1.229 1.756,3.688 v 8.608 z m 3.881,63.033 c 2.47,2.709 5.941,4.062 10.412,4.062 3.411,0 6.529,-0.823 9.353,-2.47 2.824,-1.646 5.267,-3.974 7.325,-6.977 2.059,-3.002 3.645,-6.592 4.765,-10.771 1.116,-4.177 1.677,-8.738 1.677,-13.684 0,-10.476 -2.207,-18.597 -6.62,-24.365 -4.413,-5.768 -9.97,-8.653 -16.675,-8.653 -4.942,0 -8.502,1.444 -10.679,4.328 -2.176,2.885 -3.263,7.268 -3.263,13.151 v 32.843 c 0.001,5.65 1.236,9.83 3.705,12.536 z m 76.036,-63.033 c 0,0.82 0.176,1.229 0.527,1.229 0.351,0 0.817,-0.291 1.405,-0.879 l 1.756,-2.107 c 3.044,-3.513 6.147,-6.06 9.31,-7.641 3.161,-1.58 6.613,-2.371 10.362,-2.371 3.864,0 7.553,0.938 11.065,2.811 3.513,1.874 6.557,4.509 9.134,7.903 2.574,3.398 4.624,7.553 6.147,12.471 1.521,4.918 2.283,10.363 2.283,16.335 0,6.56 -0.884,12.531 -2.646,17.916 -1.762,5.387 -4.229,10.041 -7.401,13.963 -3.173,3.925 -6.93,6.969 -11.277,9.134 -4.347,2.165 -9.166,3.249 -14.452,3.249 -5.521,0 -10.635,-1.348 -15.333,-4.039 l -0.705,0.526 -0.173,24.941 c 0,2.107 0.173,3.688 0.524,4.742 0.351,1.054 1.229,1.872 2.635,2.459 1.169,0.585 2.311,0.936 3.425,1.054 1.111,0.115 2.047,0.233 2.81,0.352 0.761,0.115 1.375,0.352 1.845,0.702 0.467,0.352 0.702,1.055 0.702,2.108 0,1.638 -1.229,2.459 -3.688,2.459 -10.71252,-0.24516 -19.99455,-0.0399 -29.858,0 -2.108,0 -3.162,-0.938 -3.162,-2.811 0,-1.642 0.643,-2.459 1.933,-2.459 1.287,0 2.81,-0.352 4.566,-1.054 1.521,-0.588 2.547,-1.405 3.073,-2.459 0.527,-1.054 0.791,-2.753 0.791,-5.094 v -79.391 c 0,-3.161 -0.412,-5.269 -1.229,-6.323 -0.821,-1.054 -1.729,-1.726 -2.723,-2.02 -0.996,-0.291 -1.904,-0.467 -2.723,-0.527 -0.82,-0.058 -4.03025,1.45565 -4.03025,0.28365 0,-1.405 3.70725,-4.55665 5.52425,-5.20165 5.55194,-3.70256 8.16566,-6.10772 14.139,-9.923 1.521,-1.756 2.75,-2.634 3.689,-2.634 1.169,0 1.756,1.229 1.756,3.688 v 8.608 z m 3.881,63.033 c 2.47,2.709 5.941,4.062 10.412,4.062 3.411,0 6.529,-0.823 9.353,-2.47 2.824,-1.646 5.267,-3.974 7.325,-6.977 2.059,-3.002 3.645,-6.592 4.765,-10.771 1.116,-4.177 1.677,-8.738 1.677,-13.684 0,-10.476 -2.207,-18.597 -6.62,-24.365 -4.413,-5.768 -9.97,-8.653 -16.675,-8.653 -4.942,0 -8.502,1.444 -10.679,4.328 -2.176,2.885 -3.263,7.268 -3.263,13.151 v 32.843 c 10e-4,5.65 1.236,9.83 3.705,12.536 z m 75.859,-7.706 c 0,3.864 1.111,6.323 3.338,7.377 0.936,0.469 1.871,0.732 2.81,0.79 0.937,0.061 1.784,0.148 2.547,0.264 0.761,0.118 1.375,0.382 1.845,0.79 0.466,0.412 0.702,1.142 0.702,2.196 0,1.641 -1.172,2.459 -3.513,2.459 -1.992,0 -4.271,-0.176 -6.834,-0.527 -2.563,-0.352 -5.291,-0.527 -8.184,-0.527 -3.008,0 -5.708,0.176 -8.096,0.527 -2.391,0.352 -4.405,0.527 -6.043,0.527 -2.108,0 -3.162,-0.937 -3.162,-2.811 0,-1.639 0.585,-2.459 1.757,-2.459 1.287,0 2.867,-0.352 4.742,-1.054 1.639,-0.585 2.635,-1.375 2.985,-2.371 0.352,-0.994 0.527,-2.371 0.527,-4.128 V 70.93 c 0,-1.521 -0.382,-2.635 -1.142,-3.337 -0.76137,-0.701127 -1.65807,-1.239149 -2.635,-1.581 -0.89388,-0.311151 -1.77312,-0.662849 -2.635,-1.054 -0.763,-0.352 -1.142,-0.878 -1.142,-1.581 0,-1.287 0.791,-2.135 2.371,-2.547 1.581,-0.409 3.423,-1.023 5.527,-1.844 4.051,-1.521 7.028,-2.956 8.938,-4.304 1.91,-1.345 3.153,-2.02 3.732,-2.02 0.925,0 1.504,0.293 1.737,0.878 0.233,0.587 0.352,1.405 0.352,2.459 0,1.523 -0.088,3.279 -0.264,5.27 -0.176,1.992 -0.264,4.215 -0.264,6.674 v 93.268 z m 30.563,-36.183 c -0.938,0 -1.522,0.176 -1.756,0.527 -0.236,0.351 -0.352,1.114 -0.352,2.283 v 4.215 c 0,10.891 2.311,19.497 6.938,25.82 4.625,6.322 10.627,9.484 18.004,9.484 3.276,0 6.117,-0.527 8.519,-1.581 2.398,-1.054 4.391,-2.223 5.972,-3.513 1.581,-1.287 2.5634,-4.64733 3.4404,-5.70133 0.877,-1.054 1.9882,-2.12808 2.3402,-2.12808 0.936,0 1.1564,3.38141 1.1564,4.66841 0,1.289 -0.702,2.985 -2.107,5.093 -1.405,2.108 -3.425,4.188 -6.06,6.235 -2.635,2.051 -5.769,3.837 -9.396,5.357 -3.631,1.521 -7.729,2.283 -12.295,2.283 -4.803,0 -9.164,-0.966 -13.086,-2.897 -3.924,-1.933 -7.289,-4.713 -10.1,-8.344 -2.81,-3.628 -4.978,-8.019 -6.498,-13.173 -1.523,-5.151 -2.283,-10.947 -2.283,-17.389 0,-6.438 0.848,-12.265 2.547,-17.477 1.695,-5.209 4.066,-9.63 7.113,-13.261 3.043,-3.628 6.644,-6.438 10.802,-8.431 4.155,-1.99 8.694,-2.986 13.612,-2.986 4.216,0 8.079,0.733 11.593,2.195 3.513,1.466 6.498,3.426 8.957,5.885 2.459,2.459 4.361,5.329 5.709,8.606 1.345,3.279 2.02,6.792 2.02,10.538 0,1.523 -0.469,2.52 -1.405,2.986 -0.938,0.469 -2.459,0.702 -4.566,0.702 h -38.819 z m 28.00618,-5.82961 c 3.86054,-0.12647 4.6523,2.51895 1.32582,-9.27639 -0.78756,-2.79259 -2.42755,-5.81342 -4.82655,-8.27242 -2.401,-2.459003 -4.25045,-3.49458 -7.99645,-3.49458 -4.101,0 -7.671,1.581 -10.714,4.742 -3.047,3.161 -5.036,7.144 -5.973,11.943 l -0.526,2.811 v 0.352 c 0,1.054 0.702,1.581 2.107,1.581 h 11.417 c 5.736,0 8.87453,-0.0627 15.18618,-0.38561 z"
       id="path6"
       inkscape:connector-curvature="0"
       sodipodi:nodetypes="csccsscccsccsscccsccccsccssccsscccsccsscccscccssscscccsccsscccsccsscccsccccsccssccsscccsccsscccscccssscscccccccsscscsssccsscccscccscscsccccsscsccssssccscccscccscscscscccscscccsssc"
       style="fill:#f9f9f9" />
  </g>
  <path
     d="m 621.51097,104.42261 c 0,-1.69052 -0.16064,-2.79559 -0.48276,-3.31675 -0.32213,-0.51963 -1.19973,-0.94284 -2.63111,-1.268076 -0.69208,-0.11714 -1.39103,-0.19814 -2.09339,-0.2426 -0.53917,-0.0247 -1.07669,-0.0733 -1.61063,-0.1454 -0.4667,-0.0635 -0.82434,-0.17755 -1.0746,-0.33979 -0.2511,-0.16071 -0.37539,-0.46912 -0.37539,-0.92293 0,-0.90763 0.6079,-1.36068 1.82538,-1.36068 0.71527,0 1.98686,0.13086 3.81224,0.38876 1.82537,0.2602 4.2764,0.38877 7.35477,0.38877 3.436,0 6.04766,-0.12857 7.83838,-0.38877 1.78902,-0.2579 2.93463,-0.38876 3.436,-0.38876 1.07459,0 1.61062,0.42243 1.61062,1.26348 0,0.45382 -0.12597,0.77754 -0.37539,0.97192 -0.25195,0.19438 -0.57407,0.32524 -0.96722,0.38876 -0.46163,0.0727 -0.92748,0.12168 -1.39503,0.14541 -0.53772,0.0337 -1.12786,0.11403 -1.77211,0.24259 -1.2885,0.260196 -2.09423,0.665036 -2.41551,1.215276 -0.32213,0.55177 -0.48362,1.66909 -0.48362,3.35348 v 14.7731 c 0,1.49078 -0.55463,2.86676 -1.66389,4.13025 -1.1101,1.26349 -2.63026,2.33259 -4.56301,3.20731 -1.93275,0.87472 -4.17157,1.5543 -6.71052,2.04102 -2.54234,0.48596 -5.24447,0.72855 -8.10724,0.72855 -4.43958,0 -8.53674,-0.77753 -12.29402,-2.33259 -3.75813,-1.55506 -6.98023,-3.70858 -9.6646,-6.46284 -2.68438,-2.7535 -4.77777,-6.04194 -6.28187,-9.86531 -1.5024,-3.8226 -2.25487,-8.00184 -2.25487,-12.537686 0,-4.86033 0.8404,-9.34644 2.52373,-13.461385 1.6808,-4.114175 3.98979,-7.662042 6.92527,-10.642832 2.93464,-2.979259 6.44166,-5.311852 10.52191,-6.997777 4.08025,-1.684395 8.51814,-2.526975 13.31451,-2.526975 1.93275,0 3.75813,0.117854 5.47697,0.353562 1.71716,0.235708 3.27452,0.537231 4.6704,0.906864 1.39503,0.370398 2.577,0.771408 3.54253,1.20303 0.28956,0.128988 0.33765,-1.44096 0.60315,-1.424167 0.49695,0.03143 1.28895,-0.156839 1.54071,0.115003 0.23348,0.21134 0.4236,2.719733 0.47428,3.302787 0.29892,3.438765 0.65722,4.651926 0.65722,8.662988 0,1.814494 -0.4667,2.721358 -1.39588,2.721358 -0.78882,0 -1.34176,-0.436979 -1.66473,-1.311701 -0.32213,-0.875487 -0.76938,-1.959133 -1.34177,-3.256293 -2.50683,-5.700617 -6.9092,-8.552839 -13.20713,-8.552839 -3.07921,0 -5.92423,0.728553 -8.53674,2.186423 -2.6142,1.45787 -4.88514,3.532561 -6.81789,6.220247 -1.93276,2.689981 -3.43516,5.928672 -4.50976,9.719132 -1.07375,3.790465 -1.61062,8.018665 -1.61062,12.683085 0,4.342236 0.55378,8.262036 1.66473,11.760166 1.10926,3.49888 2.61251,6.49651 4.50976,8.99058 1.89555,2.49483 4.11576,4.42182 6.65725,5.78327 2.54065,1.35991 5.24278,2.04101 8.10724,2.04101 2.07479,0 3.72093,-0.26019 4.93925,-0.78135 1.21579,-0.51963 2.1475,-1.25125 2.79175,-2.19408 0.64425,-0.94283 1.05515,-2.06551 1.23524,-3.36496 0.17755,-1.29946 0.26801,-2.73054 0.26801,-4.29096 z m 22.09116,-29.93493 c 0.89451,-2.077752 2.16441,-3.861634 3.81224,-5.354708 1.64529,-1.490777 3.63215,-2.644064 5.95889,-3.455267 2.3259,-0.811203 4.95617,-1.21757 7.89249,-1.21757 3.0065,0 5.67228,0.384173 7.99902,1.15099 1.00747,0.332812 1.88094,0.668477 2.54627,0.970112 0.16003,0.07255 0.2276,-0.995192 0.51659,-1.137133 0.50551,-0.248299 1.26093,-0.253701 1.49289,0.0253 0.57238,0.648963 0.54584,6.377269 0.54584,12.791899 0,1.360679 -0.46671,2.041018 -1.39588,2.041018 -0.78883,0 -1.3071,-0.436978 -1.55736,-1.311701 -0.25111,-0.875487 -0.76938,-2.153515 -1.55652,-3.839441 -1.14561,-2.591259 -2.39945,-4.567993 -3.75812,-5.928672 -1.36037,-1.360679 -3.29397,-2.041019 -5.79826,-2.041019 -3.22125,0 -5.74414,0.888498 -7.56952,2.664727 -1.82537,1.776995 -2.73764,4.214431 -2.73764,7.313841 0,2.585137 0.80489,4.683549 2.41552,6.297539 1.61062,1.61552 4.13436,3.23027 7.56952,4.844259 2.86277,1.35762 5.40426,2.71371 7.62447,4.0698 2.21768,1.35761 4.09716,2.8591 5.63677,4.506 1.5361,1.64442 2.71973,3.533846 3.49011,5.571276 0.78714,2.06704 1.18028,4.45704 1.18028,7.16922 0,2.84303 -0.51996,5.45802 -1.55651,7.84877 -1.03909,2.38999 -2.47048,4.45703 -4.29501,6.20112 -1.82537,1.74255 -4.01007,3.11548 -6.54987,4.11647 -2.54234,1.001 -5.31549,1.50226 -8.32199,1.50226 -4.72451,0 -8.5545,-0.68034 -11.48914,-2.04102 -2.93632,-1.36068 -4.40237,-3.43307 -4.40237,-6.22025 0,-1.10048 0.0355,-2.17035 0.10737,-3.20731 0.0702,-1.0362 0.10738,-2.00735 0.10738,-2.91574 0,-0.71248 -0.0178,-1.2788 -0.0533,-1.70123 -0.0372,-0.42091 -0.0533,-0.69565 -0.0533,-0.82575 0,-2.00811 0.53687,-3.01369 1.61062,-3.01369 0.49968,0 0.859,0.17907 1.07375,0.53417 0.21475,0.35738 0.37539,0.84334 0.48277,1.45787 0.10737,0.61682 0.23166,1.34537 0.37623,2.18642 0.14204,0.84334 0.35679,1.7173 0.64425,2.62416 1.07376,3.30451 2.80782,5.86516 5.20727,7.67812 2.39776,1.8145 4.95616,2.72212 7.67774,2.72212 1.57343,0 3.07668,-0.29233 4.50975,-0.87701 1.40837,-0.56862 2.66999,-1.39727 3.70402,-2.43285 1.0374,-1.03849 1.86089,-2.27213 2.46963,-3.69939 0.60789,-1.42726 0.91311,-2.98385 0.91311,-4.67284 0,-2.98462 -1.02049,-5.66082 -3.06061,-8.03015 -2.04013,-2.36933 -5.0999,-4.59096 -9.18015,-6.66795 -2.03872,-1.044686 -4.06101,-2.115426 -6.06627,-3.211896 -1.89808,-1.0385 -3.54337,-2.23847 -4.94009,-3.60221 -1.39503,-1.36221 -2.50599,-2.98385 -3.32863,-4.86722 -0.82434,-1.881069 -1.23524,-4.250399 -1.23524,-7.106439 -0.002,-2.530041 0.44472,-4.831257 1.34092,-6.909009 z"
     id="path10"
     inkscape:connector-curvature="0"
     style="fill:#f9f9f9;stroke-width:0.80438101"
     sodipodi:nodetypes="scccccsscscsscccccsscscscccscccscccscsssccscccscccscscsscccscsscsscccscscccccscccscscscsscccccscccscccccccc" />
  <g
     id="g16"
     style="fill:#040404"
     transform="translate(-4.736762,4.5618537)">
    <path
       d="m 542.726,112.08927 c 0,1.43491 0.0228,2.59967 0.0744,3.49506 0.049,0.89691 0.197,1.63618 0.44557,2.21703 0.23161,0.56732 0.64528,1.05901 1.18789,1.41196 0.54279,0.35892 1.31048,0.67192 2.30138,0.94053 0.89197,0.26938 1.73152,0.40254 2.52458,0.40254 0.79136,0 1.48549,0.0467 2.07902,0.13469 0.59352,0.0903 1.06275,0.29234 1.41109,0.60535 0.34495,0.31453 0.51912,0.82957 0.51912,1.54587 0,1.2566 0.33258,1.90187 -1.74644,1.90187 -10.83246,0.047 -20.21248,-0.0722 -29.58763,-0.02 -2.07902,0 -3.11811,-0.71631 -3.11811,-2.15122 0,-0.62524 0.17164,-1.07523 0.51997,-1.34384 0.34495,-0.26938 0.79136,-0.44769 1.33585,-0.538 0.61331,-0.0942 1.2346,-0.13926 1.85666,-0.13469 0.69075,0 1.38488,-0.088 2.07901,-0.26861 1.18705,-0.26939 2.10185,-0.58239 2.74695,-0.94054 0.64256,-0.35739 1.11348,-0.82804 1.41109,-1.41195 0.29676,-0.58162 0.46839,-1.34385 0.51912,-2.28438 0.049,-0.94054 0.0744,-2.1275 0.0744,-3.56241 V 50.52735 c 0,-2.151219 -0.17417,-3.606028 -0.51912,-4.369019 -0.34833,-0.759929 -1.26229,-1.364505 -2.74779,-1.814493 -0.99089,-0.268616 -1.93021,-0.402541 -2.82134,-0.402541 -0.79305,0 -1.51086,-0.04439 -2.15342,-0.13469 -0.64509,-0.08801 -1.1397,-0.245657 -1.48549,-0.470651 -0.34749,-0.221933 -0.51912,-0.692584 -0.51912,-1.411188 0,-1.254304 0.74232,-1.881839 2.22782,-1.881839 0.79136,0 2.37578,0.180607 4.75155,0.537231 2.37663,0.359684 5.69173,0.537996 9.95038,0.537996 4.25526,0 7.5729,-0.178312 9.94952,-0.537996 2.37662,-0.356624 3.9585,-0.537231 4.7524,-0.537231 1.48465,0 2.22698,0.627535 2.22698,1.881839 0,0.627534 -0.14796,1.054564 -0.44472,1.277262 -0.29761,0.224229 -0.74232,0.381878 -1.33669,0.469886 -0.59352,0.0903 -1.28766,0.157649 -2.07902,0.202036 -0.79305,0.04668 -1.63345,0.157649 -2.52374,0.335195 -1.88286,0.359685 -2.99635,0.964261 -3.34131,1.815259 -0.34833,0.852529 -0.51996,2.351725 -0.51996,4.502944 z"
       id="path12"
       inkscape:connector-curvature="0"
       sodipodi:nodetypes="cccccsccsccscccccccssccsccsscscssccccccc"
       style="stroke-width:0.80438101;fill:#f9f9f9" />
    <path
       d="m 574.20634,112.08927 c 0,1.43491 0.0228,2.59967 0.0744,3.49506 0.049,0.89691 0.197,1.63618 0.44557,2.21703 0.23161,0.56732 0.64528,1.05901 1.18789,1.41196 0.54279,0.35892 1.31048,0.67192 2.30137,0.94053 0.89198,0.26938 1.73153,0.40254 2.52459,0.40254 0.79136,0 1.48549,0.0467 2.07901,0.13469 0.59353,0.0903 1.06276,0.29234 1.4111,0.60535 0.34495,0.31453 0.51912,0.82957 0.51912,1.54587 0,1.2566 -1.03909,1.88184 -3.11811,1.88184 -10.04199,-0.24724 -20.06325,-0.0979 -28.21596,0 -2.07902,0 -2.03405,0.24491 -2.03405,-1.19 0,-0.62524 -1.20003,-2.41693 -0.8517,-2.68554 0.34496,-0.26939 1.07897,-0.0672 1.62346,-0.15752 0.61331,-0.0942 1.2346,-0.13925 1.85665,-0.13469 0.69076,0 1.38489,-0.088 2.07902,-0.26861 1.18705,-0.26938 2.10185,-0.58238 2.74694,-0.94054 0.64256,-0.35739 1.11349,-0.82804 1.4111,-1.41195 0.29676,-0.58162 0.46839,-1.34384 0.51912,-2.28438 0.049,-0.94054 0.0744,-2.1275 0.0744,-3.56241 V 50.52735 c 0,-2.151219 -0.17417,-3.606028 -0.51912,-4.369019 -0.34834,-0.759929 -1.26229,-1.364505 -2.74779,-1.814493 -0.99089,-0.268616 -1.93021,-0.402541 -2.82134,-0.402541 -0.79305,0 -1.51086,-0.04439 -2.15342,-0.13469 -0.6451,-0.08801 -1.1397,-0.245657 -1.4855,-0.470651 -0.34749,-0.221933 -0.51912,-0.692584 -0.51912,-1.411188 0,-1.254304 0.74233,-1.881839 2.22782,-1.881839 0.79137,0 2.37578,0.180607 4.75156,0.537231 2.37663,0.359684 5.69173,0.537996 9.95037,0.537996 4.25527,0 7.5729,-0.178312 9.94953,-0.537996 2.37662,-0.356624 3.9585,-0.537231 4.7524,-0.537231 1.48465,0 2.22698,0.627535 2.22698,1.881839 0,0.627534 -0.14796,1.054564 -0.44472,1.277262 -0.29761,0.224229 -0.74233,0.381878 -1.33669,0.469886 -0.59353,0.0903 -1.28766,0.157649 -2.07902,0.202036 -0.79306,0.04668 -1.63346,0.157649 -2.52374,0.335195 -1.88287,0.359685 -2.99635,0.964261 -3.34131,1.815259 -0.34833,0.852529 -0.51996,2.351725 -0.51996,4.502944 z"
       id="path14"
       inkscape:connector-curvature="0"
       sodipodi:nodetypes="cccccsccsccscccccccssccsccsscscssccccccc"
       style="stroke-width:0.80438101;fill:#f9f9f9" />
    <path
       d="m 139.77445,41.789976 c 6.04428,-6.183131 9.19403,-14.866134 9.62821,-26.544961 l 0.0156,-0.42394 -0.44494,0.08477 C 127.7455,18.954692 116.7825,31.359242 116.38841,51.773948 l -0.007,0.397506 0.42147,-0.0611 c 10.11225,-1.476036 17.62628,-4.852962 22.97235,-10.320408 z"
       id="path4-1"
       inkscape:connector-curvature="0"
       style="fill:#008000;stroke-width:0.94420856" />
    <path
       d="m 66.719995,146.79463 0.390166,0.52332 c 3.508635,4.71894 7.532612,9.30934 11.958494,13.64901 3.37075,3.30308 8.740296,5.121 15.118026,5.121 4.674267,0 9.520639,-1.02475 12.648879,-2.67491 6.4716,-3.40975 9.90103,-3.41705 12.4044,-3.42069 0.50263,0 0.97201,-0.002 1.42379,-0.0265 l 0.40875,-0.0246 c 0.54175,-0.032 1.1011,-0.0675 1.73183,-0.0675 2.21978,0 5.53479,0.40571 11.56147,3.58115 4.20587,1.64561 8.2846,2.47799 12.12278,2.47799 9.8e-4,0 9.8e-4,0 0.002,0 10.44962,0 19.61235,-6.09742 28.01038,-18.62687 l 0.34324,-0.51147 H 66.719995 Z"
       id="path6-7"
       inkscape:connector-curvature="0"
       style="fill:#0000ff;stroke-width:0.94420856" />
    <path
       d="m 176.08607,68.613913 c 1.39739,-1.29825 2.90332,-2.578276 4.52074,-3.83642 l 0.27087,-0.210598 -0.22296,-0.25619 C 172.7779,55.252087 161.99189,50.367217 149.46329,50.183052 l -0.57402,-0.0022 c -6.34937,0 -11.96436,1.109534 -16.23671,3.208262 -5.54067,2.720508 -9.66145,3.324051 -9.70154,3.329516 -0.0724,0.0086 -0.52611,0.0255 -1.76997,0.0255 -1.50985,0 -2.81336,-0.02281 -2.96982,-0.04378 l -0.0997,-0.01183 c -1.77684,-0.214209 -6.30539,-0.908926 -9.97636,-2.73323 -4.98914,-2.479852 -10.547416,-3.791786 -16.073409,-3.791786 l -0.36377,0.0022 C 77.086505,50.317903 64.871814,56.955967 57.282483,68.614741 Z"
       id="path8"
       inkscape:connector-curvature="0"
       style="fill:#008000;stroke-width:0.94420856" />
    <path
       d="m 163.83519,87.980184 c 1.43749,-6.482174 5.31868,-12.775618 11.64753,-18.798283 l 0.59651,-0.567988 H 57.280514 l -0.104624,0.16137 c -3.640645,5.632462 -6.052096,12.147444 -7.197197,19.203991 z"
       id="path10-4"
       inkscape:connector-curvature="0"
       style="fill:#ffff00;stroke-width:0.94420856" />
    <path
       d="m 166.61824,107.11122 c -2.87302,-5.50209 -4.2841,-11.859346 -2.85443,-18.728066 l 0.0822,-0.39842 H 49.990422 l -0.04502,0.28263 c -0.963216,6.11839 -0.963216,12.451946 -0.07238,18.842946 H 166.61818 Z"
       id="path12-6"
       inkscape:connector-curvature="0"
       style="fill:#ff6600;stroke-width:0.94420856" />
    <path
       d="M 55.465572,127.18132 H 185.5803 l 0.76177,-1.53622 -0.31292,-0.14405 c -6.22714,-2.87457 -14.57529,-9.16711 -19.3278,-18.20384 l -0.0988,-0.1869 H 49.869162 l 0.05375,0.37744 c 0.794039,5.53674 2.417326,12.26232 5.542629,19.69357 z"
       id="path14-0"
       inkscape:connector-curvature="0"
       style="fill:#ff0000;stroke-width:0.94420856" />
    <path
       d="M 66.721943,146.79463 H 174.83243 c 4.12762,-6.23691 7.53065,-13.1038 10.52003,-19.13832 l 0.23469,-0.47409 H 55.486103 l 0.196562,0.45768 c 2.843668,6.62256 6.537126,13.02176 11.039278,19.15473 z"
       id="path16"
       inkscape:connector-curvature="0"
       style="fill:#800080;stroke-width:0.94420856" />
  </g>
</svg>
