<?xml version="1.0" encoding="UTF-8" standalone="no"?>
<!-- Created with Inkscape (http://www.inkscape.org/) -->

<svg
   version="1.1"
   id="svg2"
   xml:space="preserve"
   width="3838.9976"
   height="932.19995"
   viewBox="0 0 3838.9976 932.19995"
   sodipodi:docname="ba51d2d4df254942fba75c2237947c51.eps"
   xmlns:inkscape="http://www.inkscape.org/namespaces/inkscape"
   xmlns:sodipodi="http://sodipodi.sourceforge.net/DTD/sodipodi-0.dtd"
   xmlns="http://www.w3.org/2000/svg"
   xmlns:svg="http://www.w3.org/2000/svg"><defs
     id="defs6" /><sodipodi:namedview
     id="namedview4"
     pagecolor="#ffffff"
     bordercolor="#666666"
     borderopacity="1.0"
     inkscape:pageshadow="2"
     inkscape:pageopacity="0.0"
     inkscape:pagecheckerboard="0" /><g
     id="g8"
     inkscape:groupmode="layer"
     inkscape:label="ink_ext_XXXXXX"
     transform="matrix(1.3333333,0,0,-1.3333333,0,933.33591)"><g
       id="g10"
       transform="scale(0.1)"><path
         d="m 4501.48,5191.02 c 260.28,222.73 444.77,438.75 444.77,857.96 0,416.25 -216.02,791.25 -1070.23,791.25 h -683.29 c -210,0 -379.49,-169.49 -379.49,-379.49 V 4287.27 h 825 v 1818.75 h 237.78 c 244.49,0 343.47,-306.02 92.22,-393.75 -260.23,-90 -323.24,-534.03 -158.24,-801.02 l 385.51,-623.98 h 863.24 z"
         style="fill:#000000;fill-opacity:1;fill-rule:nonzero;stroke:none"
         id="path12" /><path
         d="m 12102,4287.26 h 825 v 2552.97 h -825 z"
         style="fill:#000000;fill-opacity:1;fill-rule:nonzero;stroke:none"
         id="path14" /><g
         id="g16"
         transform="scale(1.22963)"><path
           d="m 15998.7,4386.29 c 198.2,154.89 301.3,403.76 264.7,652.63 -3.6,18.3 -7.3,32.9 -10.4,43.3 -245.8,764.87 -1413.2,764.87 -1659,-1.25 -24.4,-77.44 -40.3,-162.83 -43.9,-256.77 0,-3.65 3,-6.7 6.1,-6.7 h 664.2 c -3.6,22.55 -4.3,43.9 -2.4,65.24 3.6,76.89 50.6,134.19 111,165.33 178.7,90.85 331.8,-165.93 173.8,-289.72 l -887.5,-695.33 c -240.9,-189.08 -107.3,-576.39 198.9,-576.39 h 32.9 c 1.2,0 2.5,0.6 3.7,1.2 l -0.6,-1.2 h 1418.1 v 597.09 H 15612 Z"
           style="fill:#000000;fill-opacity:1;fill-rule:nonzero;stroke:none"
           id="path18" /></g><g
         id="g20"
         transform="scale(1.05722)"><path
           d="M 15191.2,5498.86 H 16300 v -694.52 h -1108.8"
           style="fill:#000000;fill-opacity:1;fill-rule:nonzero;stroke:none"
           id="path22" /></g><g
         id="g24"
         transform="scale(1.61968)"><path
           d="m 15552.6,4308.87 v -453.79 h 174.2 c 35.6,0 63.8,-28.7 63.8,-63.89 V 2647.9 h 509.4 v 1386.4 c 0,150.95 -122.7,273.66 -273.7,273.66 z"
           style="fill:#000000;fill-opacity:1;fill-rule:nonzero;stroke:none"
           id="path26" /></g><path
         d="m 10602,6835.74 -131.3,4.49 h -506.95 c -210,0 -379.49,-169.49 -379.49,-379.49 V 4666.76 c 0,-210 169.49,-378.75 379.49,-378.75 h 638.95 c 1734.8,112.5 1734.8,2435.23 -0.7,2547.73 z m -132.7,-1813.47 h -60.8 v 1083.75 h 60.8 c 811.4,-0.79 811.4,-1083.75 0,-1083.75 z"
         style="fill:#000000;fill-opacity:1;fill-rule:nonzero;stroke:none"
         id="path28" /><path
         d="m 6493.52,6106.02 h 312.73 v 734.21 h -312.73 c -1911.76,0 -1911.76,-2552.96 0,-2552.22 v -0.74 h 312.73 v 734.21 h -312.73 v 0.79 c -811.53,0.74 -811.53,1083.75 0,1083.75 z"
         style="fill:#000000;fill-opacity:1;fill-rule:nonzero;stroke:none"
         id="path30" /><path
         d="m 1851.76,4287.27 h 825 l -756.02,2207.96 c -176.25,512.27 -900.74,512.27 -1076.252,0 L 87.7305,4287.27 H 911.988 l 84.774,345.74 h 770.228 z m -711.02,932.96 191.99,784.54 c 9.77,55.46 89.26,55.46 99.03,0 l 191.99,-784.54 z"
         style="fill:#000000;fill-opacity:1;fill-rule:nonzero;stroke:none"
         id="path32" /><path
         d="m 8664.77,4287.27 h 825 l -756.76,2207.96 c -175.51,512.27 -900.74,512.27 -1076.25,0 L 6900.74,4287.27 H 7725 l 84.77,345.74 H 8580 Z m -711.76,932.96 191.99,784.54 c 9.77,55.46 89.26,55.46 98.98,0 l 192.04,-784.54 z"
         style="fill:#000000;fill-opacity:1;fill-rule:nonzero;stroke:none"
         id="path34" /><path
         d="m 14823,4287.27 h 825 l -756.7,2207.96 c -176.3,512.27 -900.8,512.27 -1076.3,0 l -756.8,-2207.96 h 824.3 l 84.8,345.74 h 770.2 z m -711.7,932.96 191.9,784.54 c 9.8,55.46 89.3,55.46 99.1,0 l 192,-784.54 z"
         style="fill:#000000;fill-opacity:1;fill-rule:nonzero;stroke:none"
         id="path36" /><g
         id="g38"
         transform="scale(1.38446)"><path
           d="m 15453.8,5056.11 c -618.1,0 -846.2,-450.7 -846.2,-1007.08 0,-556.33 228.1,-1007.07 846.2,-1007.07 618.1,0 846.2,450.74 846.2,1007.07 0,556.38 -228.1,1007.08 -846.2,1007.08 z m 0,-1482.69 c -138.1,0 -250.3,115.37 -250.3,475.61 0,360.25 111.6,475.65 250.3,475.65 138.1,0 250.3,-115.4 250.3,-475.65 0,-360.24 -112.2,-475.61 -250.3,-475.61 z"
           style="fill:#000000;fill-opacity:1;fill-rule:nonzero;stroke:none"
           id="path40" /></g><g
         id="g42"
         transform="scale(1.53985)"><path
           d="m 15539.2,4545.91 c -555.7,0 -760.8,-405.22 -760.8,-905.45 0,-500.2 205.1,-905.46 760.8,-905.46 555.8,0 760.8,405.26 760.8,905.46 0,500.23 -205.5,905.45 -760.8,905.45 z m 0,-1333.08 c -124.2,0 -225,103.73 -225,427.63 0,323.89 100.3,427.65 225,427.65 124.2,0 225,-103.76 225,-427.65 0,-323.9 -100.8,-427.63 -225,-427.63 z"
           style="fill:#000000;fill-opacity:1;fill-rule:nonzero;stroke:none"
           id="path44" /></g><g
         id="g46"
         transform="scale(1.13728)"><path
           d="m 14642.1,2069.62 -35.6,-100.22 c 120,-5.94 357.4,23.74 344.9,-117.4 -5.9,-70.55 -70.6,-232.81 -96.9,-303.35 L 14474.6,504.041 c -62.6,-179.354 -282.2,-282.223 -488,-282.223 l -34.9,-100.267 c 6.5,0 1642.7,0 1643.4,0 l 195.2,538.118 h -99 C 15504,333.233 15539.7,250.8 15192.8,250.8 c -132.6,0 -298.8,14.535 -284.3,182.699 4,46.812 49.5,161.569 65.3,209.03 l 166.2,455.681 h 137.2 c 134.5,0 228.8,-131.89 185.3,-259.139 l -32.3,-93.672 h 82.4 l 228.2,668.701 h -82.4 l -4,-11.84 c -35.6,-104.21 -133.2,-174.1 -243.3,-174.1 h -224.3 l 197.9,544.05 c 65.3,176.71 64.6,167.52 244,167.52 412.8,0 487.3,-103.56 429.9,-262.49 h 99.6 l 141.8,392.38 c -0.6,0 -1657.9,0 -1657.9,0 z"
           style="fill:#000000;fill-opacity:1;fill-rule:nonzero;stroke:none"
           id="path48" /></g><g
         id="g50"
         transform="scale(1.23727)"><path
           d="m 14700.3,711.84 c 43.7,115.773 151.5,409.77 161.2,520.71 1.9,24.25 -7.2,57.59 -38.1,57.59 -60.1,0 -149.1,-158.8 -177.1,-207.3 l -48.5,24.25 c 80.1,144.24 206.1,344.28 389.2,344.28 101.3,0 152.8,-72.14 144.3,-170.92 -4.8,-52.76 -16.4,-106.08 -32.7,-151.54 l 4.2,-4.87 c 87.3,144.29 245.5,327.93 428.6,327.93 103.6,0 170.3,-59.98 161.2,-168.49 -4.8,-52.76 -21.2,-106.08 -35.1,-153.98 l 4.2,-4.86 c 95.2,149.15 231,327.97 426.1,327.97 123.1,0 189.1,-67.32 178.9,-187.91 -6.7,-79.44 -51,-195.22 -81.9,-272.183 l -58.2,-139.42 c -21.2,-50.331 -98.2,-212.16 -102.4,-260.057 -1.8,-21.813 12.1,-52.722 36.4,-52.722 33.3,0 73.3,38.164 108.5,82.433 36.3,45.463 68.4,96.388 84.8,119.998 l 46.1,-26.641 c -24.8,-43.069 -54.6,-90.326 -89.1,-135.192 -79.4,-104.246 -184.3,-197.006 -308.5,-197.006 -101.3,0 -167.3,69.71 -158.2,170.925 6,67.317 55.7,200.037 83.6,267.354 l 60.6,144.844 c 24.8,60.017 99.4,226.717 104.3,281.867 3,31.55 -16.4,60.02 -47.9,60.02 -166.1,0 -388,-494.031 -440.1,-621.924 l -110.3,-272.181 h -260.1 l 221.9,578.299 c 24.3,57.586 75.8,180.656 81.2,238.846 3,36.37 -3,76.96 -43.6,76.96 -183.1,0 -365.6,-457.66 -423.2,-595.243 l -124.8,-298.862 h -262.5 z"
           style="fill:#000000;fill-opacity:1;fill-rule:nonzero;stroke:none"
           id="path52" /></g><g
         id="g54"
         transform="scale(1.31738)"><path
           d="m 16135.5,652.637 c -117.9,-153.714 -275,-294.358 -469.1,-294.358 -206.1,0 -314.9,129.258 -296.7,337.057 29.7,337.014 307.5,667.784 658.2,667.784 117.8,0 272.1,-47.23 259.6,-190.16 -22.2,-255.592 -430.4,-341.588 -631.4,-391.664 -10.8,-43.262 -21,-85.96 -25,-129.257 -8,-88.244 32.4,-169.632 129.8,-169.632 126.9,0 239.1,122.402 321.6,212.929 z m -60.4,549.953 c 4.6,51.8 -21,92.77 -75.7,92.77 -162.8,0 -274.4,-316.53 -317.1,-441.215 156,44.981 377.5,169.665 392.8,348.445 z"
           style="fill:#000000;fill-opacity:1;fill-rule:nonzero;stroke:none"
           id="path56" /></g><g
         id="g58"
         transform="scale(1.39261)"><path
           d="m 15599.3,366.952 h -239.6 l 106.6,267.649 c 46.9,117.953 121.2,333.906 132,456.149 2.1,23.7 0.5,53.32 -27.5,53.32 -59.8,0 -132,-138.93 -157.8,-186.334 l -45.2,21.543 c 71.6,130.321 187.9,310.201 352.7,310.201 87.8,0 124.4,-70.54 117.4,-149.7 -5.3,-61.93 146,149.7 315.1,149.7 85.6,0 147,-55.45 139.5,-143.25 -7,-77.03 -64.7,-126.56 -139.5,-126.56 -92.1,0 -80.3,87.8 -131.4,87.8 -115.8,0 -284.4,-415.257 -325.3,-511.631 z"
           style="fill:#000000;fill-opacity:1;fill-rule:nonzero;stroke:none"
           id="path60" /></g><g
         id="g62"
         transform="scale(1.44893)"><path
           d="m 15703.7,973.838 c 15.5,179.092 194.1,265.522 352.5,265.522 100.9,0 243.8,-35.18 232.4,-162.54 -4.1,-49.18 -44.5,-86.431 -94.2,-86.431 -61.6,0 -81.8,55.371 -79.2,107.131 2.1,49.18 -10.3,71.96 -65.7,71.96 -65.8,0 -113.9,-33.13 -119.6,-96.78 -6.7,-76.113 52.3,-131.486 95.2,-179.094 73,-82.308 133.6,-164.618 123.2,-285.75 -15.5,-177.012 -205.5,-281.593 -364.4,-281.593 -115.4,0 -272.8,55.407 -260.3,197.754 4.6,55.369 41.4,96.779 98.8,96.779 51.3,0 91.7,-35.176 87,-90.584 l -5.2,-35.177 -4.6,-33.133 c -4.2,-45.055 41.4,-65.76 78.6,-65.76 69.9,0 128.9,59.527 134.6,127.363 6.2,69.879 -29.5,109.213 -68.3,158.387 -62.1,82.308 -150.6,179.09 -140.8,291.946 z"
           style="fill:#000000;fill-opacity:1;fill-rule:nonzero;stroke:none"
           id="path64" /></g><g
         id="g66"
         transform="scale(1.52646)"><path
           d="m 15455.9,645.285 c 24.1,273.66 251.6,531.125 532.6,531.125 199,0 311.5,-146.4 294.8,-338.018 -23.1,-263.867 -258.9,-529.187 -532.6,-529.187 -199.5,0 -312,140.516 -294.8,336.08 z m 312,216.671 c -43.7,-97.781 -97.8,-246.151 -107.1,-351.304 -5.4,-60.414 11.8,-134.631 86,-134.631 179.8,0 320.8,472.684 332.6,611.225 5.4,62.424 -18.7,122.834 -88.9,122.834 -115,0 -185.8,-158.195 -222.6,-248.124 z"
           style="fill:#000000;fill-opacity:1;fill-rule:nonzero;stroke:none"
           id="path68" /></g><g
         id="g70"
         transform="scale(1.6189)"><path
           d="m 15499.4,608.439 c 31.1,82.934 97.3,246.94 104.3,329.842 1.8,20.39 -5.1,49.591 -30.6,49.591 -49.5,0 -113,-113.962 -136.7,-154.743 l -35.6,14.813 c 60.2,117.678 155.6,261.298 299.3,261.298 81,0 113.5,-47.7 106.5,-126.947 l -18.5,-105.152 -8.8,-34.746 3.2,-3.718 c 72.3,130.663 196.9,270.563 355.4,270.563 94,0 144.5,-51.42 136.6,-143.62 -5.1,-60.683 -38.9,-149.161 -62.5,-208.017 l -44.5,-106.554 c -16.2,-38.433 -75.1,-162.148 -78.3,-198.723 -1.4,-16.702 9.3,-40.324 27.8,-40.324 51.4,0 122.8,119.54 147.8,154.742 l 35.2,-20.391 c -63,-108.871 -167.7,-253.858 -303.9,-253.858 -77.4,0 -127.9,53.277 -121.4,130.633 4.6,51.416 43.1,152.882 63.9,204.298 l 46.4,110.731 c 19,45.872 76,173.274 79.6,215.425 2.4,24.078 -12.5,45.872 -36.6,45.872 -160.3,-3.721 -289,-334.965 -339.5,-449.381 L 15587,316.118 h -192.3 z"
           style="fill:#000000;fill-opacity:1;fill-rule:nonzero;stroke:none"
           id="path72" /></g><g
         id="g74"
         transform="scale(1.01333)"><path
           d="m 16300,1921.66 c 0,-89.14 -75.6,-161.37 -168.8,-161.37 -93.2,0 -168.7,72.23 -168.7,161.37 0,89.08 75.5,161.32 168.7,161.32 93.2,0 168.8,-72.24 168.8,-161.32 z"
           style="fill:#000000;fill-opacity:1;fill-rule:nonzero;stroke:none"
           id="path76" /></g><g
         id="g78"
         transform="scale(1.02156)"><path
           d="m 16261.1,2192.49 c -78.6,0 -311.3,-2.94 -138,-178.42 35.2,-35.98 -8.8,-87.37 -8.8,-87.37 l -126.3,-20.53 -144.6,-54.34 c 0,0 -194.6,452.24 456.6,452.24"
           style="fill:#000000;fill-opacity:1;fill-rule:nonzero;stroke:none"
           id="path80" /></g><path
         d="m 14430.7,1015 c 98.3,0 177,79.49 177,176.99 0,98.24 -79.5,176.99 -177,176.99 -97.5,0 -176.9,-79.49 -176.9,-176.99 0,-97.5 78.7,-176.99 176.9,-176.99"
         style="fill:#000000;fill-opacity:1;fill-rule:nonzero;stroke:none"
         id="path82" /><path
         d="m 14143.5,1570 31.5,19.49 c 25.5,15.74 52.5,32.27 78.8,50.28 13.5,-37.5 27.7,-70.51 39.7,-96.76 -140.3,-54.77 -240,-191.25 -240,-351.02 0,-136.48 72.8,-255.74 181.5,-321.76 -32.3,-18.75 -84.8,-23.242 -134.3,-10.46 -162.7,43.468 -211.4,199.49 -211.4,326.25 0.7,151.48 122.2,301.48 254.2,383.98 m 201.7,501.76 c 3.8,0 14.3,0 24.8,-16.53 8.2,-12.73 17.3,-36.71 17.3,-82.5 0,-101.25 -41.3,-150 -99.1,-203.98 -13.4,52.5 -23.2,90.74 -23.2,146.99 0,103.52 51,156.02 80.2,156.02 m 85.5,-621.76 c 142.5,0 258.1,-115.51 258.1,-258.01 0,-142.5 -115.6,-258.01 -258.1,-258.01 -142.5,0 -258,115.51 -258,258.01 0,142.5 114.8,258.01 258,258.01 m -288,-663.012 c 69.1,-8.238 117.8,-3.75 158.3,6.024 49.5,-20.282 93.8,-52.5 93.8,-103.524 0,-113.976 -36.8,-183.008 -93.8,-138.75 -57,45 -224.2,48.75 -224.2,-73.468 0,-122.27 191.2,-179.258 301.4,-45 110.3,134.21 117.8,297.73 73.6,383.242 0,0.738 -0.8,0.738 -0.8,1.476 198,11.25 355.5,174.774 355.5,375.742 0,207.78 -168.8,376.53 -376.5,376.53 -24.8,0 -49.5,-2.27 -72.7,-7.5 -14.3,30 -32.3,71.25 -48.8,119.26 78.8,65.23 143.3,153.75 143.3,291.71 0,49.54 -9.1,89.26 -27.8,117.78 -18.8,30 -47.2,46.48 -79.5,46.48 -71.3,0 -145.5,-82.5 -145.5,-221.25 0,-73.47 14.2,-146.25 33,-211.48 -29.3,-21.02 -60.7,-40.51 -91.5,-59.26 l -32.3,-19.49 c -153,-96.02 -362.2,-261.02 -362.2,-439.49 0.8,-228.008 188.3,-375 396.7,-399.032"
         style="fill:#000000;fill-opacity:1;fill-rule:nonzero;stroke:none"
         id="path84" /><path
         d="m 13169.3,138.238 h 2214.72 v 2215.51 H 13169.3 Z M 14277,226.02 c -563.2,0 -1020,456.71 -1020,1020 0,563.24 456.8,1020 1020,1020 563.2,0 1020,-456.76 1020,-1020 -0.7,-563.29 -456.8,-1020 -1020,-1020 z"
         style="fill:#000000;fill-opacity:1;fill-rule:nonzero;stroke:none"
         id="path86" /><path
         d="M 1185,3466.76 0,8.51953 h 1743.75 l 1185,3458.24047 z"
         style="fill:#c70a11;fill-opacity:1;fill-rule:nonzero;stroke:none"
         id="path88" /><path
         d="M 3569.26,3466.76 2383.52,8.51953 h 1743.75 l 1185,3458.24047 z"
         style="fill:#2fbb37;fill-opacity:1;fill-rule:nonzero;stroke:none"
         id="path90" /><path
         d="M 5952.73,3466.76 4767.73,8.51953 h 1743.75 l 1185,3458.24047 z"
         style="fill:#1e35a0;fill-opacity:1;fill-rule:nonzero;stroke:none"
         id="path92" /><g
         id="g94"
         transform="scale(1.70443)"><path
           d="m 15883.3,3033.27 h 416.7 v -77.88 h -163.7 v -436.96 h -90.2 v 436.96 h -162.8 z"
           style="fill:#000000;fill-opacity:1;fill-rule:nonzero;stroke:none"
           id="path96" /></g><g
         id="g98"
         transform="scale(1.76641)"><path
           d="m 15784.5,2926.84 h 122.3 l 137.2,-388.92 h 1.2 l 133.8,388.92 h 121 v -496.77 h -82.8 v 383.41 h -1.3 l -137.5,-383.41 h -71.8 l -137.6,383.41 h -1.2 v -383.41 h -82.8 v 496.77 z"
           style="fill:#000000;fill-opacity:1;fill-rule:nonzero;stroke:none"
           id="path100" /></g><path
         d="m 11169.8,782.5 h 360.7 c 132.7,0 220.5,-60 220.5,-183.75 0,-75 -38.3,-128.98 -105.8,-158.238 v -2.274 C 11736,418.75 11784.8,347.5 11784.8,246.988 11784.8,130.738 11703.8,40 11511,40 h -341.2 z m 129.7,-310.512 h 212.3 c 62.2,0 109.5,36.762 109.5,102.782 0,75 -38.3,101.992 -109.5,101.992 h -212.3 z m 0,-325.508 h 229.5 c 78.7,0 124.5,42.782 124.5,117.782 0,72.726 -45.8,113.976 -124.5,113.976 h -229.5 z"
         style="fill:#000000;fill-opacity:1;fill-rule:nonzero;stroke:none"
         id="path102" /><path
         d="m 12001.5,331.762 -279,450.738 h 150.7 l 196.6,-333.012 193.4,333.012 h 145.6 L 12131.3,331.02 V 40 h -129.8 z"
         style="fill:#000000;fill-opacity:1;fill-rule:nonzero;stroke:none"
         id="path104" /></g></g></svg>
