<?xml version="1.0" encoding="UTF-8" standalone="no"?>
<!-- Created by ERK -->

<svg
   height="169.334"
   viewBox="0 0 401.014 84.667"
   width="802.028"
   version="1.1"
   id="svg7"
   sodipodi:docname="archimedes-w.svg"
   inkscape:version="1.4 (86a8ad7, 2024-10-11)"
   xmlns:inkscape="http://www.inkscape.org/namespaces/inkscape"
   xmlns:sodipodi="http://sodipodi.sourceforge.net/DTD/sodipodi-0.dtd"
   xmlns="http://www.w3.org/2000/svg"
   xmlns:svg="http://www.w3.org/2000/svg">
  <defs
     id="defs7" />
  <sodipodi:namedview
     id="namedview7"
     pagecolor="#ffffff"
     bordercolor="#000000"
     borderopacity="0.25"
     inkscape:showpageshadow="2"
     inkscape:pageopacity="0.0"
     inkscape:pagecheckerboard="true"
     inkscape:deskcolor="#d1d1d1"
     inkscape:zoom="2.2891968"
     inkscape:cx="372.61977"
     inkscape:cy="95.448323"
     inkscape:window-width="3840"
     inkscape:window-height="2066"
     inkscape:window-x="-11"
     inkscape:window-y="-11"
     inkscape:window-maximized="1"
     inkscape:current-layer="svg7" />
  <path
     d="M397.68 51.865h-31.917c-.013.09-.03.174-.041.264a15.025 15.025 0 0 0 15.057 15.058h1.853a15.025 15.025 0 0 0 15.057-15.058c-.001-.089-.007-.176-.01-.264z"
     fill="#db0404"
     opacity=".98"
     id="path1"
     inkscape:label="Acorn" />
  <path
     d="M365.701 50.915c1.663-39.164 31.174-37.398 32.003.085"
     fill="#fca404"
     opacity=".98"
     id="path2"
     inkscape:label="Acorn" />
  <path
     d="M400.93 76.31c.137.197.147.487-.292.704-.85.417-2.44 1.102-3.527 1.37-.398.098-.8.047-1.015-.044-9.909-6.963-19.383-9.816-30.438-11.75v-1.665c3.808.356 8.66 1.455 13.961 2.874.658.145.689-.633.495-.627l3.294-.089v1.628c7.582 1.691 14.448 4.855 17.522 7.6z"
     fill="#db0404"
     opacity=".98"
     id="path3"
     inkscape:label="Acorn" />
  <path
     d="M67.49 84.667c-21.379-9.402-40.984-7.986-59.51 0l30.953-39.6c12.095-7.77 27.28-.474 28.548 2.437l.01 37.163"
     fill="#fca404"
     opacity=".98"
     id="path5"
     inkscape:label="AFill" />
  <path
     d="M67.074 39.704v-29.29c.043-.305-.243-.426-.571-.007-11.958 15.277-15.609 18.92-20.266 25.904-.26.482-.012.734.708.707 1.767-.143 3.502-.07 5.176-.078 7.36-.039 11.528 1.954 13.89 3.115.895.38 1.073-.009 1.063-.351z"
     fill="#db0404"
     opacity=".98"
     id="path6"
     inkscape:label="AFill" />
  <path
     d="M65.694 0 0 84.647l7.994.002 30.939-39.583c3.78-2.427 7.862-3.383 11.726-3.462 8.501-.175 15.95 3.899 16.822 5.9l.01 37.161 6.333.002V0zm1.797 84.665-59.497-.016-.015.019h59.512zm-.563-74.526c.107.016.168.122.146.274v29.29c.01.343-.168.731-1.063.352-2.362-1.162-6.529-3.154-13.89-3.116-1.674.01-3.409-.065-5.176.079-.72.027-.968-.226-.708-.707 4.657-6.984 8.308-10.627 20.266-25.904.164-.21.318-.284.425-.268z"
     fill="#fffbff"
     opacity=".98"
     id="path7"
     inkscape:label="A"
     style="fill:#ffffff" />
  <path
     d="M 92.933,39.42 H 86.85 l -4.635,35.92 h 6.156 L 90.978,55.1 c 0.87,-2.16 1.81,-3.52 2.173,-4.08 2.969,-4.56 4.924,-5.12 6.662,-5.12 1.738,0 2.897,0.72 3.693,1.2 v -7.68 c -0.651,-0.24 -1.448,-0.56 -2.679,-0.56 -4.128,0 -6.88,4.08 -8.835,8.24 z m 37.224,-0.48 c -1.376,-0.32 -2.68,-0.64 -5.215,-0.64 -15.642,0 -21.435,12.48 -21.435,21.68 0,7.04 3.403,16.48 14.338,16.48 4.563,0 7.46,-1.6 9.053,-2.56 l 0.941,-7.2 c -1.738,1.44 -4.562,3.68 -9.052,3.68 -7.966,0 -8.908,-7.92 -8.908,-10.48 0,-6.64 4.418,-15.52 14.774,-15.52 1.665,0 2.969,0.24 4.707,0.56 z M 145.22,20.78 h -6.156 l -7.097,54.56 h 6.156 l 3.114,-23.36 c 1.738,-2.48 3.62,-4.48 3.91,-4.8 1.087,-1.2 3.404,-3.6 5.939,-3.6 1.014,0 2.245,0.64 2.969,1.76 0.724,1.12 0.796,2.16 0.796,3.36 0,1.52 -0.072,2 -0.29,3.28 l -2.968,23.36 h 6.228 l 2.896,-22.8 c 0.29,-1.84 0.362,-2.32 0.362,-4.56 0,-7.04 -4.055,-9.68 -7.386,-9.68 -4.78,0 -8.618,3.36 -11.66,7.04 z m 31.647,18.64 h -6.156 l -4.635,35.92 h 6.156 z m 13.542,0 h -6.083 l -4.635,35.92 h 6.083 l 2.97,-22.8 c 0.94,-1.36 5.793,-8.32 9.776,-8.32 1.231,0 3.766,0.72 3.766,5.04 0,1.04 -0.145,3.44 -0.507,6.48 l -2.535,19.6 h 6.156 l 3.041,-22.8 c 2.245,-3.36 6.518,-8.4 10.139,-8.4 1.159,0 3.476,0.72 3.476,5.36 0,0.88 -0.145,2.16 -0.217,3.04 l -2.97,22.8 h 6.156 l 2.752,-21.28 c 0.217,-1.76 0.435,-3.52 0.435,-5.36 0,-8.16 -4.78,-9.84 -7.677,-9.84 -5.576,0 -10.066,5.12 -12.094,8 -0.796,-6.16 -4.417,-8 -7.459,-8 -3.766,0 -7.459,2.16 -11.37,6.96 z m 68.725,25.92 c -2.969,2.48 -7.17,5.52 -11.225,5.52 -3.983,0 -7.966,-3.92 -7.966,-10.64 0,-1.2 0.073,-2.24 0.145,-3.52 h 20.35 c 0.145,-0.8 0.29,-1.84 0.29,-3.52 0,-8.96 -4.997,-14.88 -11.805,-14.88 -8.98,0 -15.208,9.68 -15.208,21.12 0,9.76 5.214,17.04 13.687,17.04 3.042,0 6.953,-0.96 10.79,-4 z M 241.102,51.98 c 0.724,-2.32 2.535,-8.16 7.821,-8.16 3.332,0 5.866,2.88 5.794,8.16 z m 56.342,-31.2 h -6.228 l -2.245,17.6 c -3.549,-0.08 -6.59,-0.16 -10.718,1.44 -8.328,3.28 -13.325,12.24 -13.325,20.48 0,4.88 1.81,9.04 4.345,11.68 2.39,2.48 5.793,4.48 12.746,4.48 4.562,0 7.169,-0.8 8.328,-1.12 z M 284.77,70.7 c -0.725,0.16 -1.376,0.24 -2.752,0.24 -7.822,0 -10.646,-5.36 -10.646,-10.96 0,-5.68 2.752,-12.32 9.342,-14.88 2.897,-1.2 5.866,-1.12 7.532,-1.12 z m 40.193,-5.36 c -2.97,2.48 -7.17,5.52 -11.225,5.52 -3.983,0 -7.966,-3.92 -7.966,-10.64 0,-1.2 0.072,-2.24 0.145,-3.52 h 20.35 c 0.144,-0.8 0.29,-1.84 0.29,-3.52 0,-8.96 -4.998,-14.88 -11.805,-14.88 -8.98,0 -15.208,9.68 -15.208,21.12 0,9.76 5.214,17.04 13.687,17.04 3.042,0 6.952,-0.96 10.79,-4 z M 306.93,51.98 c 0.724,-2.32 2.534,-8.16 7.82,-8.16 3.332,0 5.867,2.88 5.794,8.16 z m 44.973,-9.68 c -1.81,-1.28 -5.36,-3.76 -9.994,-3.76 -6.735,0 -10.066,4.8 -10.066,10 0,4.4 2.534,7.44 5.431,9.68 5.504,4.4 7.314,5.76 7.314,8.4 0,2.32 -1.81,3.92 -4.055,3.92 -3.114,0 -6.3,-2.08 -10.211,-5.36 l -1.014,6.56 c 4.418,3.44 7.242,4.72 11.153,4.72 6.734,0 10.21,-5.28 10.21,-10.48 0,-5.6 -3.113,-8.08 -7.966,-11.84 -2.39,-1.84 -4.996,-3.84 -4.996,-5.92 0,-2 1.738,-3.52 4.272,-3.52 3.694,0 6.953,2.24 9.922,4.72 z"
     id="path4"
     style="fill:#ffffff"
     inkscape:label="rchimedes" />
</svg>
