<?xml version="1.0" encoding="UTF-8" standalone="no"?>
<!DOCTYPE svg PUBLIC "-//W3C//DTD SVG 1.1//EN" "http://www.w3.org/Graphics/SVG/1.1/DTD/svg11.dtd">
<svg xmlns="http://www.w3.org/2000/svg" version="1.1" viewBox="0 0 996 215">
<g stroke-width="2.00" fill="none" stroke-linecap="butt">
<path stroke="#c596da" vector-effect="non-scaling-stroke" d="
  M 860.61 94.92
  A 0.78 0.78 0.0 0 1 859.51 94.92
  L 830.51 66.01
  A 1.33 1.33 0.0 0 1 830.11 65.11
  Q 829.81 59.03 830.23 51.48
  C 830.91 39.20 814.39 38.22 814.04 48.73
  C 813.91 52.76 812.98 71.37 815.26 73.74
  Q 823.51 82.35 850.73 109.02
  Q 852.02 110.30 852.02 111.24
  Q 851.95 137.72 852.05 164.18
  C 852.10 175.90 868.45 177.00 868.29 162.91
  Q 868.00 137.61 867.97 112.30
  C 867.97 111.13 868.43 110.18 869.18 109.43
  Q 886.03 92.65 902.95 75.95
  Q 906.03 72.91 906.01 67.76
  C 905.99 62.73 907.24 48.59 904.85 44.73
  C 901.52 39.33 893.74 40.42 891.02 45.88
  C 888.99 49.93 890.00 59.70 889.99 64.56
  A 2.07 2.06 67.7 0 1 889.40 65.98
  L 860.61 94.92"
/>
<path stroke="#c596da" vector-effect="non-scaling-stroke" d="
  M 715.28 44.28
  C 710.78 48.55 694.03 63.18 694.02 68.81
  Q 693.96 107.12 694.15 145.44
  Q 694.17 149.62 697.47 153.01
  Q 706.72 162.54 716.29 171.74
  C 717.72 173.12 719.40 173.99 721.25 173.99
  Q 739.43 174.01 757.62 173.99
  C 761.81 173.98 763.16 173.22 765.97 170.47
  C 772.86 163.73 786.98 151.82 786.99 146.00
  Q 787.04 108.65 786.87 71.32
  Q 786.85 66.21 783.03 62.24
  C 779.28 58.34 765.44 42.37 760.91 42.00
  C 754.82 41.52 746.96 41.99 742.78 41.99
  Q 731.50 42.00 720.22 42.01
  C 718.04 42.02 716.75 42.89 715.28 44.28"
/>
<path stroke="#c596da" vector-effect="non-scaling-stroke" d="
  M 584.02 42.02
  C 578.77 42.03 574.08 44.99 574.06 50.75
  Q 573.94 106.53 574.06 162.31
  C 574.07 167.97 576.07 174.01 582.45 174.01
  Q 611.97 174.00 641.50 174.00
  C 645.44 174.00 666.62 151.61 666.86 147.39
  C 667.28 140.25 669.06 125.83 663.56 120.44
  Q 657.57 114.56 652.13 108.74
  A 1.01 1.01 0.0 0 1 652.13 107.36
  C 655.01 104.22 666.70 93.08 666.88 89.68
  C 667.14 84.89 668.31 68.33 665.31 64.95
  Q 658.11 56.84 643.86 43.55
  C 642.73 42.49 640.83 42.01 639.50 42.01
  Q 611.76 41.98 584.02 42.02"
/>
<path stroke="#c596da" vector-effect="non-scaling-stroke" d="
  M 536.59 42.58
  C 534.24 43.30 531.02 46.43 531.02 48.82
  Q 530.97 95.87 531.02 142.99
  A 1.44 1.42 -22.7 0 1 530.60 144.00
  L 517.00 157.60
  A 1.38 1.36 22.3 0 1 516.03 158.00
  L 485.16 158.00
  A 1.28 1.25 -21.6 0 1 484.25 157.62
  L 471.33 144.70
  A 1.22 1.22 0.0 0 1 470.96 143.80
  Q 471.19 99.92 470.66 56.06
  C 470.63 53.42 470.73 49.36 469.31 46.85
  C 464.66 38.62 454.04 43.29 454.00 52.01
  Q 453.81 93.97 455.05 145.61
  C 455.14 149.27 454.70 150.48 457.52 153.48
  Q 461.12 157.31 473.21 169.78
  C 476.88 173.55 479.90 174.97 485.47 175.00
  C 492.79 175.03 520.44 176.83 525.04 172.55
  Q 528.86 168.98 541.80 155.77
  C 545.50 151.98 546.99 150.96 547.00 146.01
  Q 547.01 99.31 546.99 52.63
  C 546.99 46.83 543.42 40.50 536.59 42.58"
/>
<path stroke="#c596da" vector-effect="non-scaling-stroke" d="
  M 281.75 136.84
  C 285.18 135.16 287.23 132.95 289.97 130.46
  Q 298.82 122.40 306.43 113.15
  A 1.63 1.60 68.4 0 0 306.80 112.27
  C 306.90 111.38 307.30 110.10 307.29 109.31
  Q 307.05 89.20 306.95 69.10
  C 306.93 64.85 291.15 50.28 287.49 46.75
  Q 283.60 43.01 279.26 43.01
  Q 252.49 42.98 225.73 43.02
  C 220.01 43.03 215.01 45.27 215.00 51.83
  Q 214.99 109.26 215.01 166.69
  C 215.02 173.27 221.46 178.03 227.28 174.21
  C 232.06 171.07 231.04 167.09 231.00 160.53
  Q 230.92 149.09 231.11 137.49
  A 0.50 0.50 0.0 0 1 231.61 137.00
  L 257.98 137.00
  A 1.19 1.18 67.8 0 1 258.83 137.36
  Q 275.87 154.86 293.08 172.18
  C 301.45 180.61 313.21 169.76 303.99 160.36
  Q 292.77 148.92 281.62 137.62
  A 0.49 0.49 0.0 0 1 281.75 136.84"
/>
<path stroke="#c596da" vector-effect="non-scaling-stroke" d="
  M 405.84 172.60
  C 409.80 168.94 426.99 152.95 426.99 149.94
  Q 427.02 109.75 426.99 69.57
  C 426.99 67.89 426.32 66.09 425.29 64.96
  C 423.19 62.65 405.35 43.01 401.50 43.01
  Q 372.69 42.98 343.87 43.02
  C 336.12 43.03 334.37 47.68 334.47 54.82
  Q 335.22 109.22 334.98 163.63
  C 334.95 170.23 335.97 175.06 343.50 175.05
  Q 372.00 175.00 400.50 174.96
  Q 403.29 174.96 405.84 172.60"
/>
<path stroke="#c596da" vector-effect="non-scaling-stroke" d="
  M 145.81 45.44
  C 141.82 41.72 137.38 44.27 133.87 47.67
  Q 114.74 66.28 96.84 86.08
  Q 95.05 88.06 95.05 90.75
  Q 94.98 127.72 95.02 164.68
  Q 95.03 168.73 95.78 170.59
  C 99.24 179.19 111.45 176.89 111.29 167.49
  Q 110.85 142.99 111.03 118.48
  A 0.48 0.48 0.0 0 1 111.51 118.00
  L 171.16 118.00
  A 0.25 0.25 0.0 0 1 171.41 118.24
  Q 171.78 142.26 172.03 166.24
  Q 172.07 170.04 173.17 171.90
  C 176.42 177.42 184.07 176.73 186.93 171.17
  Q 187.99 169.11 187.99 164.14
  Q 188.03 129.37 187.97 94.61
  C 187.97 89.20 187.47 86.98 183.90 83.35
  Q 155.37 54.34 145.81 45.44"
/>
<path stroke="#c596da" vector-effect="non-scaling-stroke" d="
  M 724.23 58.38
  C 719.35 62.77 714.63 67.59 710.31 72.47
  A 1.24 1.23 65.9 0 0 710.00 73.29
  L 710.00 142.08
  A 1.40 1.37 23.0 0 0 710.41 143.06
  L 724.74 157.20
  A 1.34 1.33 -22.8 0 0 725.71 157.59
  L 755.98 156.99
  A 1.43 1.41 21.5 0 0 756.92 156.59
  L 770.63 142.87
  A 1.06 1.05 -23.3 0 0 770.94 142.10
  L 769.93 72.17
  A 0.99 0.97 22.2 0 0 769.64 71.50
  L 756.46 58.35
  A 1.21 1.19 -22.2 0 0 755.61 58.00
  L 725.20 58.01
  A 1.49 1.45 -65.1 0 0 724.23 58.38"
/>
<path stroke="#c596da" vector-effect="non-scaling-stroke" d="
  M 589.94 59.90
  L 590.14 99.44
  A 0.56 0.56 0.0 0 0 590.70 100.00
  L 635.72 100.00
  A 1.24 1.21 22.8 0 0 636.56 99.67
  Q 643.12 93.59 649.03 86.79
  C 651.76 83.66 651.38 78.87 650.74 75.09
  C 649.99 70.70 639.15 61.54 635.59 58.30
  A 1.25 1.24 65.6 0 0 634.72 57.97
  Q 614.78 58.18 594.95 58.34
  Q 592.32 58.36 590.53 59.05
  A 0.91 0.91 0.0 0 0 589.94 59.90"
/>
<path stroke="#c596da" vector-effect="non-scaling-stroke" d="
  M 636.56 157.70
  C 641.58 153.50 646.28 148.41 650.68 143.57
  A 1.22 1.21 -24.1 0 0 651.00 142.75
  L 651.00 131.23
  A 1.38 1.36 -67.7 0 0 650.60 130.26
  L 636.77 116.38
  A 1.30 1.30 0.0 0 0 635.85 116.00
  L 591.29 116.00
  A 0.59 0.59 0.0 0 0 590.70 116.59
  L 591.06 157.41
  A 0.60 0.60 0.0 0 0 591.66 158.00
  L 635.73 158.00
  A 1.30 1.29 25.0 0 0 636.56 157.70"
/>
<path stroke="#c596da" vector-effect="non-scaling-stroke" d="
  M 277.65 119.60
  C 282.28 115.94 286.80 110.77 290.67 106.55
  A 1.21 1.21 0.0 0 0 291.00 105.72
  L 291.00 74.32
  A 1.94 1.91 -67.8 0 0 290.44 72.96
  L 277.83 60.38
  A 1.33 1.29 -21.8 0 0 276.90 60.00
  L 231.50 60.00
  A 0.50 0.50 0.0 0 0 231.00 60.50
  L 231.00 120.00
  A 0.73 0.73 0.0 0 0 231.75 120.73
  L 276.83 119.89
  A 1.39 1.37 25.1 0 0 277.65 119.60"
/>
<path stroke="#c596da" vector-effect="non-scaling-stroke" d="
  M 396.59 158.68
  C 401.30 154.56 406.92 149.46 410.71 144.53
  A 1.42 1.41 63.8 0 0 411.00 143.67
  L 411.00 74.01
  A 1.33 1.33 0.0 0 0 410.61 73.07
  L 396.92 59.39
  A 1.38 1.35 66.7 0 0 395.97 59.00
  L 351.50 59.00
  A 0.50 0.50 0.0 0 0 351.00 59.50
  L 351.00 158.50
  A 0.50 0.50 0.0 0 0 351.50 159.00
  L 395.75 159.00
  A 1.27 1.26 -65.7 0 0 396.59 158.68"
/>
<path stroke="#c596da" vector-effect="non-scaling-stroke" d="
  M 110.97 101.24
  A 0.81 0.81 0.0 0 0 111.79 102.06
  L 170.25 101.11
  A 0.81 0.81 0.0 0 0 171.05 100.31
  L 171.12 94.08
  A 0.81 0.81 0.0 0 0 170.88 93.50
  L 141.49 64.12
  A 0.81 0.81 0.0 0 0 140.34 64.12
  L 111.29 93.75
  A 0.81 0.81 0.0 0 0 111.06 94.31
  L 110.97 101.24"
/>
</g>
<g fill="#ffffff">
<path d="
  M 887.94 215.00
  L 92.19 215.00
  C 41.62 210.59 3.84 171.93 0.00 121.44
  L 0.00 93.69
  Q 4.84 44.53 43.62 17.62
  C 59.04 6.92 78.86 0.51 97.31 0.51
  Q 483.28 0.49 869.25 0.51
  Q 884.82 0.51 889.24 0.86
  C 936.56 4.60 973.27 40.82 979.77 87.75
  C 981.20 98.09 980.90 114.24 980.08 124.08
  C 975.97 173.36 936.69 211.27 887.94 215.00
  Z
  M 860.61 94.92
  A 0.78 0.78 0.0 0 1 859.51 94.92
  L 830.51 66.01
  A 1.33 1.33 0.0 0 1 830.11 65.11
  Q 829.81 59.03 830.23 51.48
  C 830.91 39.20 814.39 38.22 814.04 48.73
  C 813.91 52.76 812.98 71.37 815.26 73.74
  Q 823.51 82.35 850.73 109.02
  Q 852.02 110.30 852.02 111.24
  Q 851.95 137.72 852.05 164.18
  C 852.10 175.90 868.45 177.00 868.29 162.91
  Q 868.00 137.61 867.97 112.30
  C 867.97 111.13 868.43 110.18 869.18 109.43
  Q 886.03 92.65 902.95 75.95
  Q 906.03 72.91 906.01 67.76
  C 905.99 62.73 907.24 48.59 904.85 44.73
  C 901.52 39.33 893.74 40.42 891.02 45.88
  C 888.99 49.93 890.00 59.70 889.99 64.56
  A 2.07 2.06 67.7 0 1 889.40 65.98
  L 860.61 94.92
  Z
  M 715.28 44.28
  C 710.78 48.55 694.03 63.18 694.02 68.81
  Q 693.96 107.12 694.15 145.44
  Q 694.17 149.62 697.47 153.01
  Q 706.72 162.54 716.29 171.74
  C 717.72 173.12 719.40 173.99 721.25 173.99
  Q 739.43 174.01 757.62 173.99
  C 761.81 173.98 763.16 173.22 765.97 170.47
  C 772.86 163.73 786.98 151.82 786.99 146.00
  Q 787.04 108.65 786.87 71.32
  Q 786.85 66.21 783.03 62.24
  C 779.28 58.34 765.44 42.37 760.91 42.00
  C 754.82 41.52 746.96 41.99 742.78 41.99
  Q 731.50 42.00 720.22 42.01
  C 718.04 42.02 716.75 42.89 715.28 44.28
  Z
  M 584.02 42.02
  C 578.77 42.03 574.08 44.99 574.06 50.75
  Q 573.94 106.53 574.06 162.31
  C 574.07 167.97 576.07 174.01 582.45 174.01
  Q 611.97 174.00 641.50 174.00
  C 645.44 174.00 666.62 151.61 666.86 147.39
  C 667.28 140.25 669.06 125.83 663.56 120.44
  Q 657.57 114.56 652.13 108.74
  A 1.01 1.01 0.0 0 1 652.13 107.36
  C 655.01 104.22 666.70 93.08 666.88 89.68
  C 667.14 84.89 668.31 68.33 665.31 64.95
  Q 658.11 56.84 643.86 43.55
  C 642.73 42.49 640.83 42.01 639.50 42.01
  Q 611.76 41.98 584.02 42.02
  Z
  M 536.59 42.58
  C 534.24 43.30 531.02 46.43 531.02 48.82
  Q 530.97 95.87 531.02 142.99
  A 1.44 1.42 -22.7 0 1 530.60 144.00
  L 517.00 157.60
  A 1.38 1.36 22.3 0 1 516.03 158.00
  L 485.16 158.00
  A 1.28 1.25 -21.6 0 1 484.25 157.62
  L 471.33 144.70
  A 1.22 1.22 0.0 0 1 470.96 143.80
  Q 471.19 99.92 470.66 56.06
  C 470.63 53.42 470.73 49.36 469.31 46.85
  C 464.66 38.62 454.04 43.29 454.00 52.01
  Q 453.81 93.97 455.05 145.61
  C 455.14 149.27 454.70 150.48 457.52 153.48
  Q 461.12 157.31 473.21 169.78
  C 476.88 173.55 479.90 174.97 485.47 175.00
  C 492.79 175.03 520.44 176.83 525.04 172.55
  Q 528.86 168.98 541.80 155.77
  C 545.50 151.98 546.99 150.96 547.00 146.01
  Q 547.01 99.31 546.99 52.63
  C 546.99 46.83 543.42 40.50 536.59 42.58
  Z
  M 281.75 136.84
  C 285.18 135.16 287.23 132.95 289.97 130.46
  Q 298.82 122.40 306.43 113.15
  A 1.63 1.60 68.4 0 0 306.80 112.27
  C 306.90 111.38 307.30 110.10 307.29 109.31
  Q 307.05 89.20 306.95 69.10
  C 306.93 64.85 291.15 50.28 287.49 46.75
  Q 283.60 43.01 279.26 43.01
  Q 252.49 42.98 225.73 43.02
  C 220.01 43.03 215.01 45.27 215.00 51.83
  Q 214.99 109.26 215.01 166.69
  C 215.02 173.27 221.46 178.03 227.28 174.21
  C 232.06 171.07 231.04 167.09 231.00 160.53
  Q 230.92 149.09 231.11 137.49
  A 0.50 0.50 0.0 0 1 231.61 137.00
  L 257.98 137.00
  A 1.19 1.18 67.8 0 1 258.83 137.36
  Q 275.87 154.86 293.08 172.18
  C 301.45 180.61 313.21 169.76 303.99 160.36
  Q 292.77 148.92 281.62 137.62
  A 0.49 0.49 0.0 0 1 281.75 136.84
  Z
  M 405.84 172.60
  C 409.80 168.94 426.99 152.95 426.99 149.94
  Q 427.02 109.75 426.99 69.57
  C 426.99 67.89 426.32 66.09 425.29 64.96
  C 423.19 62.65 405.35 43.01 401.50 43.01
  Q 372.69 42.98 343.87 43.02
  C 336.12 43.03 334.37 47.68 334.47 54.82
  Q 335.22 109.22 334.98 163.63
  C 334.95 170.23 335.97 175.06 343.50 175.05
  Q 372.00 175.00 400.50 174.96
  Q 403.29 174.96 405.84 172.60
  Z
  M 145.81 45.44
  C 141.82 41.72 137.38 44.27 133.87 47.67
  Q 114.74 66.28 96.84 86.08
  Q 95.05 88.06 95.05 90.75
  Q 94.98 127.72 95.02 164.68
  Q 95.03 168.73 95.78 170.59
  C 99.24 179.19 111.45 176.89 111.29 167.49
  Q 110.85 142.99 111.03 118.48
  A 0.48 0.48 0.0 0 1 111.51 118.00
  L 171.16 118.00
  A 0.25 0.25 0.0 0 1 171.41 118.24
  Q 171.78 142.26 172.03 166.24
  Q 172.07 170.04 173.17 171.90
  C 176.42 177.42 184.07 176.73 186.93 171.17
  Q 187.99 169.11 187.99 164.14
  Q 188.03 129.37 187.97 94.61
  C 187.97 89.20 187.47 86.98 183.90 83.35
  Q 155.37 54.34 145.81 45.44
  Z"
/>
<path d="
  M 996.00 17.31
  L 996.00 19.56
  C 991.68 44.77 957.39 38.52 960.15 16.27
  C 962.76 -4.71 993.49 -4.63 996.00 17.31
  Z
  M 978.1801 32.1190
  A 13.92 13.27 89.3 0 0 991.2790 18.0379
  A 13.92 13.27 89.3 0 0 977.8399 4.2810
  A 13.92 13.27 89.3 0 0 964.7410 18.3621
  A 13.92 13.27 89.3 0 0 978.1801 32.1190
  Z"
/>
<path d="
  M 975.47 21.07
  L 975.41 26.92
  A 0.59 0.58 -89.5 0 1 974.83 27.50
  L 971.91 27.50
  A 0.60 0.60 0.0 0 1 971.31 26.91
  L 971.11 10.41
  A 0.59 0.59 0.0 0 1 971.58 9.82
  C 974.97 9.10 981.83 8.44 984.48 10.95
  C 986.77 13.11 985.79 16.86 983.03 18.30
  A 0.36 0.35 55.4 0 0 982.93 18.85
  Q 986.00 22.30 986.15 27.06
  A 0.42 0.42 0.0 0 1 985.73 27.50
  L 982.54 27.50
  A 0.80 0.79 -7.6 0 1 981.77 26.92
  C 980.91 23.75 980.64 19.58 975.98 20.47
  A 0.63 0.62 -5.2 0 0 975.47 21.07
  Z
  M 975.50 13.29
  L 975.50 16.89
  A 0.55 0.55 0.0 0 0 976.16 17.43
  L 980.15 16.62
  A 1.81 1.80 -32.0 0 0 980.89 13.42
  Q 978.74 11.77 976.19 12.40
  A 0.92 0.91 83.2 0 0 975.50 13.29
  Z"
/>
<path d="
  M 590.53 59.05
  Q 592.32 58.36 594.95 58.34
  Q 614.78 58.18 634.72 57.97
  A 1.25 1.24 65.6 0 1 635.59 58.30
  C 639.15 61.54 649.99 70.70 650.74 75.09
  C 651.38 78.87 651.76 83.66 649.03 86.79
  Q 643.12 93.59 636.56 99.67
  A 1.24 1.21 22.8 0 1 635.72 100.00
  L 590.70 100.00
  A 0.56 0.56 0.0 0 1 590.14 99.44
  L 589.94 59.90
  A 0.91 0.91 0.0 0 1 590.53 59.05
  Z"
/>
<path d="
  M 710.31 72.47
  C 714.63 67.59 719.35 62.77 724.23 58.38
  A 1.49 1.45 -65.1 0 1 725.20 58.01
  L 755.61 58.00
  A 1.21 1.19 -22.2 0 1 756.46 58.35
  L 769.64 71.50
  A 0.99 0.97 22.2 0 1 769.93 72.17
  L 770.94 142.10
  A 1.06 1.05 -23.3 0 1 770.63 142.87
  L 756.92 156.59
  A 1.43 1.41 21.5 0 1 755.98 156.99
  L 725.71 157.59
  A 1.34 1.33 -22.8 0 1 724.74 157.20
  L 710.41 143.06
  A 1.40 1.37 23.0 0 1 710.00 142.08
  L 710.00 73.29
  A 1.24 1.23 65.9 0 1 710.31 72.47
  Z"
/>
<path d="
  M 410.71 144.53
  C 406.92 149.46 401.30 154.56 396.59 158.68
  A 1.27 1.26 -65.7 0 1 395.75 159.00
  L 351.50 159.00
  A 0.50 0.50 0.0 0 1 351.00 158.50
  L 351.00 59.50
  A 0.50 0.50 0.0 0 1 351.50 59.00
  L 395.97 59.00
  A 1.38 1.35 66.7 0 1 396.92 59.39
  L 410.61 73.07
  A 1.33 1.33 0.0 0 1 411.00 74.01
  L 411.00 143.67
  A 1.42 1.41 63.8 0 1 410.71 144.53
  Z"
/>
<path d="
  M 290.67 106.55
  C 286.80 110.77 282.28 115.94 277.65 119.60
  A 1.39 1.37 25.1 0 1 276.83 119.89
  L 231.75 120.73
  A 0.73 0.73 0.0 0 1 231.00 120.00
  L 231.00 60.50
  A 0.50 0.50 0.0 0 1 231.50 60.00
  L 276.90 60.00
  A 1.33 1.29 -21.8 0 1 277.83 60.38
  L 290.44 72.96
  A 1.94 1.91 -67.8 0 1 291.00 74.32
  L 291.00 105.72
  A 1.21 1.21 0.0 0 1 290.67 106.55
  Z"
/>
<path d="
  M 110.97 101.24
  L 111.06 94.31
  A 0.81 0.81 0.0 0 1 111.29 93.75
  L 140.34 64.12
  A 0.81 0.81 0.0 0 1 141.49 64.12
  L 170.88 93.50
  A 0.81 0.81 0.0 0 1 171.12 94.08
  L 171.05 100.31
  A 0.81 0.81 0.0 0 1 170.25 101.11
  L 111.79 102.06
  A 0.81 0.81 0.0 0 1 110.97 101.24
  Z"
/>
<path d="
  M 650.68 143.57
  C 646.28 148.41 641.58 153.50 636.56 157.70
  A 1.30 1.29 25.0 0 1 635.73 158.00
  L 591.66 158.00
  A 0.60 0.60 0.0 0 1 591.06 157.41
  L 590.70 116.59
  A 0.59 0.59 0.0 0 1 591.29 116.00
  L 635.85 116.00
  A 1.30 1.30 0.0 0 1 636.77 116.38
  L 650.60 130.26
  A 1.38 1.36 -67.7 0 1 651.00 131.23
  L 651.00 142.75
  A 1.22 1.21 -24.1 0 1 650.68 143.57
  Z"
/>
</g>
<g fill="#8b2db4">
<path d="
  M 860.61 94.92
  L 889.40 65.98
  A 2.07 2.06 67.7 0 0 889.99 64.56
  C 890.00 59.70 888.99 49.93 891.02 45.88
  C 893.74 40.42 901.52 39.33 904.85 44.73
  C 907.24 48.59 905.99 62.73 906.01 67.76
  Q 906.03 72.91 902.95 75.95
  Q 886.03 92.65 869.18 109.43
  C 868.43 110.18 867.97 111.13 867.97 112.30
  Q 868.00 137.61 868.29 162.91
  C 868.45 177.00 852.10 175.90 852.05 164.18
  Q 851.95 137.72 852.02 111.24
  Q 852.02 110.30 850.73 109.02
  Q 823.51 82.35 815.26 73.74
  C 812.98 71.37 813.91 52.76 814.04 48.73
  C 814.39 38.22 830.91 39.20 830.23 51.48
  Q 829.81 59.03 830.11 65.11
  A 1.33 1.33 0.0 0 0 830.51 66.01
  L 859.51 94.92
  A 0.78 0.78 0.0 0 0 860.61 94.92
  Z"
/>
<path d="
  M 694.02 68.81
  C 694.03 63.18 710.78 48.55 715.28 44.28
  C 716.75 42.89 718.04 42.02 720.22 42.01
  Q 731.50 42.00 742.78 41.99
  C 746.96 41.99 754.82 41.52 760.91 42.00
  C 765.44 42.37 779.28 58.34 783.03 62.24
  Q 786.85 66.21 786.87 71.32
  Q 787.04 108.65 786.99 146.00
  C 786.98 151.82 772.86 163.73 765.97 170.47
  C 763.16 173.22 761.81 173.98 757.62 173.99
  Q 739.43 174.01 721.25 173.99
  C 719.40 173.99 717.72 173.12 716.29 171.74
  Q 706.72 162.54 697.47 153.01
  Q 694.17 149.62 694.15 145.44
  Q 693.96 107.12 694.02 68.81
  Z
  M 724.23 58.38
  C 719.35 62.77 714.63 67.59 710.31 72.47
  A 1.24 1.23 65.9 0 0 710.00 73.29
  L 710.00 142.08
  A 1.40 1.37 23.0 0 0 710.41 143.06
  L 724.74 157.20
  A 1.34 1.33 -22.8 0 0 725.71 157.59
  L 755.98 156.99
  A 1.43 1.41 21.5 0 0 756.92 156.59
  L 770.63 142.87
  A 1.06 1.05 -23.3 0 0 770.94 142.10
  L 769.93 72.17
  A 0.99 0.97 22.2 0 0 769.64 71.50
  L 756.46 58.35
  A 1.21 1.19 -22.2 0 0 755.61 58.00
  L 725.20 58.01
  A 1.49 1.45 -65.1 0 0 724.23 58.38
  Z"
/>
<path d="
  M 574.06 50.75
  C 574.08 44.99 578.77 42.03 584.02 42.02
  Q 611.76 41.98 639.50 42.01
  C 640.83 42.01 642.73 42.49 643.86 43.55
  Q 658.11 56.84 665.31 64.95
  C 668.31 68.33 667.14 84.89 666.88 89.68
  C 666.70 93.08 655.01 104.22 652.13 107.36
  A 1.01 1.01 0.0 0 0 652.13 108.74
  Q 657.57 114.56 663.56 120.44
  C 669.06 125.83 667.28 140.25 666.86 147.39
  C 666.62 151.61 645.44 174.00 641.50 174.00
  Q 611.97 174.00 582.45 174.01
  C 576.07 174.01 574.07 167.97 574.06 162.31
  Q 573.94 106.53 574.06 50.75
  Z
  M 589.94 59.90
  L 590.14 99.44
  A 0.56 0.56 0.0 0 0 590.70 100.00
  L 635.72 100.00
  A 1.24 1.21 22.8 0 0 636.56 99.67
  Q 643.12 93.59 649.03 86.79
  C 651.76 83.66 651.38 78.87 650.74 75.09
  C 649.99 70.70 639.15 61.54 635.59 58.30
  A 1.25 1.24 65.6 0 0 634.72 57.97
  Q 614.78 58.18 594.95 58.34
  Q 592.32 58.36 590.53 59.05
  A 0.91 0.91 0.0 0 0 589.94 59.90
  Z
  M 636.56 157.70
  C 641.58 153.50 646.28 148.41 650.68 143.57
  A 1.22 1.21 -24.1 0 0 651.00 142.75
  L 651.00 131.23
  A 1.38 1.36 -67.7 0 0 650.60 130.26
  L 636.77 116.38
  A 1.30 1.30 0.0 0 0 635.85 116.00
  L 591.29 116.00
  A 0.59 0.59 0.0 0 0 590.70 116.59
  L 591.06 157.41
  A 0.60 0.60 0.0 0 0 591.66 158.00
  L 635.73 158.00
  A 1.30 1.29 25.0 0 0 636.56 157.70
  Z"
/>
<path d="
  M 531.02 48.82
  C 531.02 46.43 534.24 43.30 536.59 42.58
  C 543.42 40.50 546.99 46.83 546.99 52.63
  Q 547.01 99.31 547.00 146.01
  C 546.99 150.96 545.50 151.98 541.80 155.77
  Q 528.86 168.98 525.04 172.55
  C 520.44 176.83 492.79 175.03 485.47 175.00
  C 479.90 174.97 476.88 173.55 473.21 169.78
  Q 461.12 157.31 457.52 153.48
  C 454.70 150.48 455.14 149.27 455.05 145.61
  Q 453.81 93.97 454.00 52.01
  C 454.04 43.29 464.66 38.62 469.31 46.85
  C 470.73 49.36 470.63 53.42 470.66 56.06
  Q 471.19 99.92 470.96 143.80
  A 1.22 1.22 0.0 0 0 471.33 144.70
  L 484.25 157.62
  A 1.28 1.25 -21.6 0 0 485.16 158.00
  L 516.03 158.00
  A 1.38 1.36 22.3 0 0 517.00 157.60
  L 530.60 144.00
  A 1.44 1.42 -22.7 0 0 531.02 142.99
  Q 530.97 95.87 531.02 48.82
  Z"
/>
<path d="
  M 281.75 136.84
  A 0.49 0.49 0.0 0 0 281.62 137.62
  Q 292.77 148.92 303.99 160.36
  C 313.21 169.76 301.45 180.61 293.08 172.18
  Q 275.87 154.86 258.83 137.36
  A 1.19 1.18 67.8 0 0 257.98 137.00
  L 231.61 137.00
  A 0.50 0.50 0.0 0 0 231.11 137.49
  Q 230.92 149.09 231.00 160.53
  C 231.04 167.09 232.06 171.07 227.28 174.21
  C 221.46 178.03 215.02 173.27 215.01 166.69
  Q 214.99 109.26 215.00 51.83
  C 215.01 45.27 220.01 43.03 225.73 43.02
  Q 252.49 42.98 279.26 43.01
  Q 283.60 43.01 287.49 46.75
  C 291.15 50.28 306.93 64.85 306.95 69.10
  Q 307.05 89.20 307.29 109.31
  C 307.30 110.10 306.90 111.38 306.80 112.27
  A 1.63 1.60 68.4 0 1 306.43 113.15
  Q 298.82 122.40 289.97 130.46
  C 287.23 132.95 285.18 135.16 281.75 136.84
  Z
  M 277.65 119.60
  C 282.28 115.94 286.80 110.77 290.67 106.55
  A 1.21 1.21 0.0 0 0 291.00 105.72
  L 291.00 74.32
  A 1.94 1.91 -67.8 0 0 290.44 72.96
  L 277.83 60.38
  A 1.33 1.29 -21.8 0 0 276.90 60.00
  L 231.50 60.00
  A 0.50 0.50 0.0 0 0 231.00 60.50
  L 231.00 120.00
  A 0.73 0.73 0.0 0 0 231.75 120.73
  L 276.83 119.89
  A 1.39 1.37 25.1 0 0 277.65 119.60
  Z"
/>
<path d="
  M 426.99 149.94
  C 426.99 152.95 409.80 168.94 405.84 172.60
  Q 403.29 174.96 400.50 174.96
  Q 372.00 175.00 343.50 175.05
  C 335.97 175.06 334.95 170.23 334.98 163.63
  Q 335.22 109.22 334.47 54.82
  C 334.37 47.68 336.12 43.03 343.87 43.02
  Q 372.69 42.98 401.50 43.01
  C 405.35 43.01 423.19 62.65 425.29 64.96
  C 426.32 66.09 426.99 67.89 426.99 69.57
  Q 427.02 109.75 426.99 149.94
  Z
  M 396.59 158.68
  C 401.30 154.56 406.92 149.46 410.71 144.53
  A 1.42 1.41 63.8 0 0 411.00 143.67
  L 411.00 74.01
  A 1.33 1.33 0.0 0 0 410.61 73.07
  L 396.92 59.39
  A 1.38 1.35 66.7 0 0 395.97 59.00
  L 351.50 59.00
  A 0.50 0.50 0.0 0 0 351.00 59.50
  L 351.00 158.50
  A 0.50 0.50 0.0 0 0 351.50 159.00
  L 395.75 159.00
  A 1.27 1.26 -65.7 0 0 396.59 158.68
  Z"
/>
<path d="
  M 145.81 45.44
  Q 155.37 54.34 183.90 83.35
  C 187.47 86.98 187.97 89.20 187.97 94.61
  Q 188.03 129.37 187.99 164.14
  Q 187.99 169.11 186.93 171.17
  C 184.07 176.73 176.42 177.42 173.17 171.90
  Q 172.07 170.04 172.03 166.24
  Q 171.78 142.26 171.41 118.24
  A 0.25 0.25 0.0 0 0 171.16 118.00
  L 111.51 118.00
  A 0.48 0.48 0.0 0 0 111.03 118.48
  Q 110.85 142.99 111.29 167.49
  C 111.45 176.89 99.24 179.19 95.78 170.59
  Q 95.03 168.73 95.02 164.68
  Q 94.98 127.72 95.05 90.75
  Q 95.05 88.06 96.84 86.08
  Q 114.74 66.28 133.87 47.67
  C 137.38 44.27 141.82 41.72 145.81 45.44
  Z
  M 110.97 101.24
  A 0.81 0.81 0.0 0 0 111.79 102.06
  L 170.25 101.11
  A 0.81 0.81 0.0 0 0 171.05 100.31
  L 171.12 94.08
  A 0.81 0.81 0.0 0 0 170.88 93.50
  L 141.49 64.12
  A 0.81 0.81 0.0 0 0 140.34 64.12
  L 111.29 93.75
  A 0.81 0.81 0.0 0 0 111.06 94.31
  L 110.97 101.24
  Z"
/>
</g>
</svg>
