<?xml version="1.0" encoding="UTF-8" standalone="no"?>
<svg
   version="1.1"
   viewBox="0.00 0.00 575.00 128.00"
   id="svg32"
   sodipodi:docname="atari8bit-w.svg"
   inkscape:version="1.1.2 (0a00cf5339, 2022-02-04)"
   xmlns:inkscape="http://www.inkscape.org/namespaces/inkscape"
   xmlns:sodipodi="http://sodipodi.sourceforge.net/DTD/sodipodi-0.dtd"
   xmlns:xlink="http://www.w3.org/1999/xlink"
   xmlns="http://www.w3.org/2000/svg"
   xmlns:svg="http://www.w3.org/2000/svg">
  <defs
     id="defs36">
    <linearGradient
       inkscape:collect="always"
       xlink:href="#r"
       id="linearGradient5665"
       x1="57.390877"
       y1="93.734337"
       x2="57.390877"
       y2="2.3880281"
       gradientUnits="userSpaceOnUse" />
    <linearGradient
       id="r"
       gradientTransform="matrix(1.4142136,0,0,0.70710678,-36.572924,-126.76291)"
       x1="0"
       y1="0"
       x2="212.13203"
       y2="0"
       gradientUnits="userSpaceOnUse">
      <stop
         offset="0"
         stop-color="red"
         id="stop4" />
      <stop
         offset="0.333"
         stop-color="#ff0"
         id="stop6" />
      <stop
         offset="0.5"
         stop-color="#0f0"
         id="stop8" />
      <stop
         offset="0.666"
         stop-color="cyan"
         id="stop10" />
      <stop
         offset="0.833"
         stop-color="blue"
         id="stop12" />
      <stop
         offset="1"
         stop-color="#f0f"
         id="stop14" />
    </linearGradient>
  </defs>
  <sodipodi:namedview
     id="namedview34"
     pagecolor="#ffffff"
     bordercolor="#666666"
     borderopacity="1.0"
     inkscape:pageshadow="2"
     inkscape:pageopacity="0.0"
     inkscape:pagecheckerboard="0"
     showgrid="false"
     inkscape:zoom="1.5371408"
     inkscape:cx="271.93345"
     inkscape:cy="109.94439"
     inkscape:window-width="1920"
     inkscape:window-height="1011"
     inkscape:window-x="1920"
     inkscape:window-y="32"
     inkscape:window-maximized="1"
     inkscape:current-layer="svg32" />
  <g
     fill="#e00014"
     id="g16">
    <path
       d="   M 173.53 125.00   A 0.45 0.45 0.0 0 1 173.09 124.43   Q 186.83 75.76 200.53 27.01   C 203.40 16.79 207.19 7.45 218.85 5.88   C 236.10 3.54 240.06 18.52 243.63 31.16   Q 256.78 77.78 269.89 124.41   Q 270.05 125.00 269.44 125.00   L 242.31 125.00   A 1.62 1.62 0.0 0 1 240.75 123.81   L 235.32 103.87   A 1.17 1.17 0.0 0 0 234.19 103.00   L 208.42 103.00   A 0.85 0.84 7.0 0 0 207.60 103.64   L 202.12 124.44   Q 201.97 125.00 201.39 125.00   L 173.53 125.00   Z   M 214.65 76.59   A 0.32 0.32 0.0 0 0 214.96 76.99   L 227.95 77.01   A 0.32 0.32 0.0 0 0 228.26 76.61   L 221.81 52.24   A 0.32 0.32 0.0 0 0 221.19 52.24   L 214.65 76.59   Z"
       id="path10" />
    <path
       d="   M 402.32 124.13   A 0.35 0.35 0.0 0 0 403.00 124.03   Q 403.01 77.72 403.00 31.50   Q 402.99 28.94 404.24 23.05   C 408.30 3.92 424.84 6.75 440.18 6.74   Q 450.54 6.73 455.20 8.15   C 469.62 12.56 478.16 28.28 477.40 42.66   C 476.69 56.37 470.37 67.21 457.48 72.41   A 0.42 0.42 0.0 0 0 457.27 73.00   L 485.38 123.69   A 0.49 0.48 30.7 0 0 486.29 123.46   L 486.23 7.63   Q 486.23 7.00 486.87 7.00   L 513.50 7.00   Q 514.00 7.00 514.00 7.50   L 514.00 124.00   Q 514.00 125.00 513.00 125.00   L 456.97 125.00   Q 456.44 125.00 456.17 124.53   L 431.31 80.62   A 0.18 0.18 0.0 0 0 430.97 80.71   L 431.01 124.68   A 0.32 0.32 0.0 0 1 430.69 125.00   L 374.05 125.00   Q 373.55 125.00 373.42 124.51   L 367.87 103.45   Q 367.75 103.00 367.28 103.00   L 340.74 103.00   Q 340.20 103.00 340.07 103.52   L 334.91 124.26   Q 334.73 125.00 333.96 125.00   L 307.17 124.99   Q 305.48 124.99 305.94 123.36   Q 319.14 76.81 332.40 29.43   C 335.49 18.39 338.39 7.68 351.50 5.80   C 363.92 4.03 370.98 12.77 374.11 23.82   Q 388.28 73.98 402.32 124.13   Z   M 430.98 32.93   L 431.02 57.77   A 0.22 0.22 0.0 0 0 431.24 57.99   L 437.30 57.98   A 13.20 11.87 -0.1 0 0 450.48 46.08   L 450.48 44.54   A 13.20 11.87 -0.1 0 0 437.26 32.70   L 431.20 32.71   A 0.22 0.22 0.0 0 0 430.98 32.93   Z   M 347.36 76.57   A 0.34 0.34 0.0 0 0 347.69 76.99   L 360.44 77.01   A 0.34 0.34 0.0 0 0 360.77 76.59   L 354.44 52.01   A 0.34 0.34 0.0 0 0 353.78 52.01   L 347.36 76.57   Z"
       id="path12" />
    <path
       d="   M 301.96 33.25   L 301.58 33.49   Q 301.30 33.67 301.30 34.01   Q 301.14 77.88 301.20 121.75   Q 301.20 122.26 301.71 123.75   Q 301.85 124.14 301.73 124.50   Q 301.57 125.00 301.05 125.00   L 274.75 125.00   A 0.75 0.75 0.0 0 1 274.00 124.25   L 274.00 33.41   A 0.41 0.41 0.0 0 0 273.59 33.00   L 253.75 33.00   A 0.75 0.75 0.0 0 1 253.00 32.25   L 253.00 7.50   A 0.50 0.50 0.0 0 1 253.50 7.00   L 322.50 7.00   Q 323.00 7.00 323.00 7.50   L 323.00 32.48   Q 323.00 33.01 322.46 33.02   L 301.96 33.25   Z"
       id="path14" />
  </g>
  <g
     fill="#ffffff"
     id="g28"
     style="fill:#ffffff">
    <path
       d="   M 542.64 27.90   C 540.24 31.21 536.23 30.22 536.35 25.94   A 0.99 0.98 -0.8 0 0 535.31 24.93   C 532.63 25.09 527.93 25.86 525.75 24.44   C 524.20 23.44 522.99 21.61 523.90 19.71   C 525.64 16.06 531.98 16.94 535.28 17.02   A 0.75 0.74 -3.5 0 0 536.04 16.17   Q 535.37 11.61 539.62 10.87   Q 540.19 10.77 540.66 11.11   Q 543.36 13.08 542.99 16.38   Q 542.92 17.02 543.56 17.02   L 561.90 16.96   A 1.86 1.85 90.0 0 0 563.75 15.10   L 563.75 10.08   Q 563.75 9.66 564.08 9.39   C 570.54 4.12 574.42 19.73 567.59 23.77   Q 565.44 25.04 560.16 25.11   Q 551.90 25.22 543.62 24.88   Q 543.04 24.85 543.02 25.44   L 542.99 26.87   Q 542.97 27.44 542.64 27.90   Z"
       id="path18"
       style="fill:#ffffff" />
    <ellipse
       cx="0.00"
       cy="0.00"
       transform="translate(527.31,37.96) rotate(-2.2)"
       rx="4.55"
       ry="4.07"
       id="ellipse20"
       style="fill:#ffffff" />
    <rect
       x="-17.86"
       y="-3.95"
       transform="translate(553.10,37.98) rotate(-0.1)"
       width="35.72"
       height="7.90"
       rx="3.86"
       id="rect22"
       style="fill:#ffffff" />
    <path
       d="   M 566.81 70.73   C 572.14 70.93 572.22 77.96 567.69 77.97   Q 547.34 78.04 527.00 77.98   C 521.69 77.97 520.94 71.01 526.31 70.56   Q 529.73 70.28 539.26 70.65   Q 539.89 70.67 539.47 70.21   Q 535.83 66.23 535.58 61.21   C 534.86 46.84 554.39 45.60 563.52 49.96   C 572.24 54.12 573.61 63.08 566.57 70.12   A 0.36 0.36 0.0 0 0 566.81 70.73   Z   M 564.0657 63.2655   A 10.94 7.08 1.6 0 0 553.3277 55.8828   A 10.94 7.08 1.6 0 0 542.1943 62.6545   A 10.94 7.08 1.6 0 0 552.9323 70.0372   A 10.94 7.08 1.6 0 0 564.0657 63.2655   Z"
       id="path24"
       style="fill:#ffffff" />
    <path
       d="   M 544.87 100.54   Q 548.10 95.49 554.30 94.63   C 574.17 91.87 577.60 120.67 558.79 123.94   Q 551.07 125.29 545.43 118.16   Q 545.09 117.73 544.71 118.13   C 537.13 126.08 525.35 122.79 522.95 112.27   C 521.42 105.54 524.95 98.29 531.61 96.25   C 535.73 94.98 542.23 95.91 544.31 100.50   Q 544.55 101.03 544.87 100.54   Z   M 564.3797 109.1301   A 8.01 6.81 -0.5 0 0 556.3106 102.3903   A 8.01 6.81 -0.5 0 0 548.3603 109.2699   A 8.01 6.81 -0.5 0 0 556.4294 116.0097   A 8.01 6.81 -0.5 0 0 564.3797 109.1301   Z   M 541.8154 109.0824   A 6.19 5.63 -2.2 0 0 535.4139 103.6941   A 6.19 5.63 -2.2 0 0 529.4446 109.5576   A 6.19 5.63 -2.2 0 0 535.8461 114.9459   A 6.19 5.63 -2.2 0 0 541.8154 109.0824   Z"
       id="path26"
       style="fill:#ffffff" />
  </g>
  <g
     style="fill:url(#linearGradient5665);fill-opacity:1.0"
     id="g10"
     transform="matrix(1.3385974,0,0,1.3385974,2.1895683,0.86843916)">
    <path
       d="m 40.963,0.865 c 2.326,-0.009 4.651,0 6.981,-0.006 0.008,5.472 0,10.942 0.003,16.41 0.021,4.567 -0.106,9.131 -0.295,13.694 -0.312,6.586 -0.725,13.188 -1.814,19.696 -0.75,4.486 -2.305,8.819 -4.229,12.932 -3.142,6.622 -8.081,12.226 -13.632,16.938 -4.964,4.37 -10.892,7.555 -17.126,9.701 C 7.324,91.455 3.694,92.386 0,92.91 0.003,88.322 0.003,83.729 0,79.143 c 4.449,-0.67 8.726,-2.249 12.696,-4.337 4.712,-2.492 8.954,-5.841 12.526,-9.794 3.688,-4.077 6.626,-8.801 8.856,-13.813 2.627,-5.765 4.033,-11.994 4.989,-18.229 1.198,-7.927 1.697,-15.951 1.882,-23.958 0.03,-2.713 0.007,-5.429 0.014,-8.147 z m 9.787,0.01 C 55.033,0.847 59.315,0.872 63.6,0.865 V 92.907 C 59.326,92.918 55.053,92.886 50.78,92.928 50.728,83.147 50.773,73.357 50.758,63.577 50.752,42.678 50.766,21.778 50.75,0.875 Z m 15.708,-0.01 c 2.315,-0.006 4.627,-0.009 6.939,0 -0.076,9.354 0.244,18.729 1.358,28.021 0.913,7.22 2.201,14.494 5.076,21.218 2.725,6.505 6.654,12.555 11.774,17.433 4.892,4.663 10.814,8.248 17.252,10.309 a 35.327,35.327 0 0 0 5.501,1.299 c -0.001,4.586 -0.004,9.171 0,13.757 -3.669,-0.499 -7.267,-1.444 -10.769,-2.636 C 99.42,88.817 95.387,86.937 91.682,84.524 88.978,82.793 86.519,80.71 84.158,78.539 80.264,74.944 76.781,70.869 74.162,66.245 72.116,62.645 70.622,58.759 69.451,54.797 68.378,50.814 67.923,46.69 67.506,42.596 66.701,33.741 66.4,24.843 66.456,15.956 c 0.002,-5.033 0,-10.061 0.002,-15.091 z"
       style="fill:url(#linearGradient5665);fill-opacity:1.0"
       id="path6-3" />
    <path
       d="m 50.75,0.875 c 0.015,20.9 0.003,41.803 0.008,62.7 0.014,9.778 -0.032,19.565 0.022,29.352 4.272,-0.039 8.547,-0.01 12.82,-0.021 V 0.859 C 59.317,0.872 55.034,0.848 50.75,0.875 m 15.708,-0.01 c -0.002,5.026 0,10.058 0,15.085 -0.057,8.884 0.245,17.781 1.05,26.64 0.417,4.094 0.872,8.218 1.945,12.201 1.169,3.962 2.665,7.851 4.711,11.448 2.618,4.622 6.102,8.699 9.996,12.294 2.363,2.174 4.82,4.254 7.524,5.985 3.705,2.413 7.738,4.29 11.907,5.742 3.501,1.189 7.1,2.134 10.769,2.636 -0.004,-4.586 -0.001,-9.171 0,-13.757 -1.867,-0.272 -3.706,-0.728 -5.501,-1.299 C 102.421,75.779 96.498,72.194 91.607,67.531 86.487,62.659 82.558,56.605 79.833,50.098 76.958,43.374 75.67,36.1 74.757,28.88 73.642,19.589 73.323,10.214 73.399,0.859 71.084,0.858 68.771,0.861 66.458,0.865"
       style="fill:url(#linearGradient5665);fill-opacity:1.0"
       id="path8-6" />
  </g>
</svg>
