<svg xmlns="http://www.w3.org/2000/svg" width="573.99" height="138.843" viewBox="217.274 0.152 573.99 138.843" xml:space="preserve">
    <g style="fill:#f2f2f2">
        <path d="M227.98 36.615c1.446-1.85 4.439-2.166 6.213-.614.726.612 1.234 1.455 1.494 2.361 3.284 11.302 6.583 22.598 9.863 33.899-1.938.002-3.878-.003-5.815.002-.914-3.115-1.807-6.237-2.709-9.356-3.749-.01-7.495-.003-11.243-.005-.917 3.118-1.823 6.239-2.725 9.361-1.928-.007-3.856-.002-5.784-.004a26461.48 26461.48 0 0 1 9.38-32.338c.372-1.126.513-2.384 1.326-3.306m3.422 6.926c-1.375 4.682-2.721 9.372-4.087 14.057 2.724.013 5.447.004 8.17.004-1.363-4.687-2.719-9.375-4.083-14.061zM268.813 36.858c1.01-1.465 2.963-2.176 4.683-1.724 1.573.363 2.778 1.719 3.193 3.246 3.281 11.293 6.574 22.583 9.855 33.876-1.941.013-3.881 0-5.822.008-.902-3.119-1.795-6.241-2.705-9.359-3.742.002-7.483-.007-11.225.003-.894 3.121-1.816 6.235-2.711 9.355-1.926.003-3.852-.002-5.777.003 3.119-10.84 6.274-21.672 9.417-32.504.33-.98.458-2.058 1.092-2.904m-.472 20.744c2.713.004 5.424.001 8.137.001-1.349-4.695-2.721-9.387-4.066-14.084-1.355 4.695-2.723 9.386-4.071 14.083zM241.211 35.078h21.035v5.673c-2.582.002-5.163-.003-7.744.002 0 10.502.001 21.007-.001 31.509h-5.547c0-10.502-.002-21.006.001-31.509-2.582-.005-5.162 0-7.745-.002.001-1.892-.001-3.782.001-5.673zM292.708 35.309a4.74 4.74 0 0 1 1.664-.233c2.211.008 4.423.001 6.632.003 3.724.068 7.278 2.378 8.889 5.73 1.115 2.176 1.231 4.706.949 7.093-.193 2.5-1.241 4.998-3.163 6.655-1.016.904-2.279 1.452-3.364 2.257-.597.455-.626 1.337-.318 1.968 2.934 4.529 5.984 8.989 8.98 13.48-2.19.004-4.382-.005-6.573.004-2.868-4.308-5.706-8.638-8.562-12.952-.84-1.228-1.068-2.854-.566-4.255.393-1.074 1.332-1.861 2.378-2.268 1.997-.762 3.966-1.959 5.072-3.843.842-1.417.798-3.165.419-4.715-.443-2.013-2.404-3.596-4.477-3.526-1.432.01-2.865-.008-4.295.007-.648-.015-1.258.548-1.25 1.204-.006 10.115.004 20.23-.002 30.347-1.863-.004-3.725 0-5.588-.002-.004-10.89.002-21.78-.004-32.671.012-1.909 1.369-3.704 3.179-4.283zM315.906 35.078h5.88c-.001 12.396.004 24.789-.003 37.186-1.958-.005-3.917 0-5.877-.002V35.078z" style="fill:#f2f2f2" transform="matrix(1.5 0 0 1.5 -93.637 14.924)"/>
    </g>
    <path d="M569.174 66.656c7.921-4.668 12.863-12.572 12.863-21.345 0-20.72-21.886-30.156-42.22-30.156-20.337 0-42.219 9.437-42.219 30.156 0 8.777 4.94 16.677 12.86 21.345-11.267 5.218-17.57 14.104-17.57 25.176 0 20.87 23.604 31.788 46.923 31.788 23.32 0 46.925-10.918 46.925-31.788.008-11.071-6.297-19.962-17.562-25.176zm-29.355-13.134c-5.187 0-9.406-3.345-9.406-7.461s4.219-7.463 9.406-7.463c5.183 0 9.406 3.347 9.406 7.463-.003 4.116-4.22 7.461-9.406 7.461zm0 26.587c5.774 0 10.469 3.851 10.469 8.594 0 4.596-4.697 8.341-10.469 8.341-5.775 0-10.469-3.737-10.469-8.341 0-4.743 4.695-8.594 10.469-8.594z" style="fill:#ad0e0e;stroke-width:1.5"/>
    <path d="M668.712 32.806c-8.66-11.547-21.385-17.654-36.793-17.654-15.408 0-28.133 6.104-36.794 17.654-7.28 9.714-11.292 22.771-11.292 36.769 0 27.087 14.868 54.42 48.092 54.42s48.094-27.334 48.094-54.42c-.009-14-4.021-27.057-11.307-36.77zM631.92 91.769c-11.582 0-12.849-15.056-12.849-22.322 0-7.196 1.273-22.07 12.849-22.07 11.582 0 12.848 14.874 12.848 22.07.002 7.267-1.267 22.322-12.848 22.322zM764.957 32.806c-8.658-11.547-21.385-17.654-36.79-17.654-15.408 0-28.133 6.104-36.794 17.654-7.281 9.714-11.293 22.771-11.293 36.769 0 27.087 14.869 54.42 48.093 54.42 33.219 0 48.091-27.334 48.091-54.42-.007-14-4.02-27.057-11.307-36.77zm-36.79 58.963c-11.585 0-12.851-15.056-12.851-22.322 0-7.196 1.274-22.07 12.85-22.07 11.577 0 12.846 14.874 12.846 22.07.006 7.267-1.265 22.322-12.845 22.322z" style="fill:#ad0e0e;stroke-width:1.5"/>
    <path transform="matrix(1.5 0 0 1.5 -93.637 14.924)" style="fill:#ad0e0e" d="M336.516 1.165v22.016h30.147l-22.491 49.205h25.464l30.24-71.221z"/>
</svg>
