<svg xmlns="http://www.w3.org/2000/svg" width="362.658" height="72.563" viewBox="217.274 0.152 362.658 72.563" xml:space="preserve">
    <g fill="#878787">
        <path d="M227.98 36.615c1.446-1.85 4.439-2.166 6.213-.614.726.612 1.234 1.455 1.494 2.361 3.284 11.302 6.583 22.598 9.863 33.899-1.938.002-3.878-.003-5.815.002-.914-3.115-1.807-6.237-2.709-9.356-3.749-.01-7.495-.003-11.243-.005-.917 3.118-1.823 6.239-2.725 9.361-1.928-.007-3.856-.002-5.784-.004a26461.48 26461.48 0 0 1 9.38-32.338c.372-1.126.513-2.384 1.326-3.306m3.422 6.926c-1.375 4.682-2.721 9.372-4.087 14.057 2.724.013 5.447.004 8.17.004-1.363-4.687-2.719-9.375-4.083-14.061zM268.813 36.858c1.01-1.465 2.963-2.176 4.683-1.724 1.573.363 2.778 1.719 3.193 3.246 3.281 11.293 6.574 22.583 9.855 33.876-1.941.013-3.881 0-5.822.008-.902-3.119-1.795-6.241-2.705-9.359-3.742.002-7.483-.007-11.225.003-.894 3.121-1.816 6.235-2.711 9.355-1.926.003-3.852-.002-5.777.003 3.119-10.84 6.274-21.672 9.417-32.504.33-.98.458-2.058 1.092-2.904m-.472 20.744c2.713.004 5.424.001 8.137.001-1.349-4.695-2.721-9.387-4.066-14.084-1.355 4.695-2.723 9.386-4.071 14.083zM241.211 35.078h21.035v5.673c-2.582.002-5.163-.003-7.744.002 0 10.502.001 21.007-.001 31.509h-5.547c0-10.502-.002-21.006.001-31.509-2.582-.005-5.162 0-7.745-.002.001-1.892-.001-3.782.001-5.673zM292.708 35.309a4.74 4.74 0 0 1 1.664-.233c2.211.008 4.423.001 6.632.003 3.724.068 7.278 2.378 8.889 5.73 1.115 2.176 1.231 4.706.949 7.093-.193 2.5-1.241 4.998-3.163 6.655-1.016.904-2.279 1.452-3.364 2.257-.597.455-.626 1.337-.318 1.968 2.934 4.529 5.984 8.989 8.98 13.48-2.19.004-4.382-.005-6.573.004-2.868-4.308-5.706-8.638-8.562-12.952-.84-1.228-1.068-2.854-.566-4.255.393-1.074 1.332-1.861 2.378-2.268 1.997-.762 3.966-1.959 5.072-3.843.842-1.417.798-3.165.419-4.715-.443-2.013-2.404-3.596-4.477-3.526-1.432.01-2.865-.008-4.295.007-.648-.015-1.258.548-1.25 1.204-.006 10.115.004 20.23-.002 30.347-1.863-.004-3.725 0-5.588-.002-.004-10.89.002-21.78-.004-32.671.012-1.909 1.369-3.704 3.179-4.283zM315.906 35.078h5.88c-.001 12.396.004 24.789-.003 37.186-1.958-.005-3.917 0-5.877-.002V35.078z"/>
    </g>
    <path fill="#AD0E0E" d="M441.874 34.488c5.281-3.112 8.575-8.381 8.575-14.23 0-13.813-14.59-20.104-28.146-20.104-13.558 0-28.146 6.291-28.146 20.104 0 5.851 3.293 11.118 8.573 14.23-7.511 3.479-11.713 9.403-11.713 16.784 0 13.913 15.736 21.192 31.282 21.192s31.283-7.279 31.283-21.192c.005-7.381-4.198-13.308-11.708-16.784zm-19.57-8.756c-3.458 0-6.271-2.23-6.271-4.974s2.813-4.975 6.271-4.975c3.455 0 6.271 2.231 6.271 4.975-.002 2.744-2.814 4.974-6.271 4.974zm0 17.725c3.849 0 6.979 2.567 6.979 5.729 0 3.064-3.131 5.561-6.979 5.561-3.85 0-6.979-2.492-6.979-5.561 0-3.162 3.13-5.729 6.979-5.729z"/>
    <path fill="#AD0E0E" d="M508.233 11.921C502.459 4.223 493.976.152 483.704.152s-18.755 4.069-24.529 11.769c-4.854 6.476-7.528 15.181-7.528 24.513 0 18.058 9.912 36.28 32.061 36.28s32.063-18.223 32.063-36.28c-.006-9.333-2.681-18.038-7.538-24.513zM483.704 51.23c-7.721 0-8.566-10.037-8.566-14.881 0-4.798.849-14.714 8.566-14.714 7.721 0 8.565 9.916 8.565 14.714.002 4.844-.844 14.881-8.565 14.881zM572.396 11.921C566.624 4.223 558.139.152 547.869.152c-10.272 0-18.755 4.069-24.529 11.769-4.854 6.476-7.529 15.181-7.529 24.513 0 18.058 9.913 36.28 32.062 36.28 22.146 0 32.061-18.223 32.061-36.28-.005-9.333-2.68-18.038-7.538-24.513zM547.869 51.23c-7.723 0-8.567-10.037-8.567-14.881 0-4.798.849-14.714 8.567-14.714s8.564 9.916 8.564 14.714c.003 4.844-.844 14.881-8.564 14.881zM336.516 1.165v22.016h30.147l-22.491 49.205h25.464l30.24-71.221z"/>
</svg>
