<svg width="397.2" height="163.439" viewBox="0 0 158.88 65.376" xmlns:xlink="http://www.w3.org/1999/xlink" xmlns="http://www.w3.org/2000/svg">
    <defs>
        <linearGradient id="g">
            <stop style="stop-color:#d31909;stop-opacity:0" offset="0"/>
            <stop style="stop-color:#fff;stop-opacity:1" offset="1"/>
        </linearGradient>
        <linearGradient id="b">
            <stop style="stop-color:#d31909;stop-opacity:1" offset="0"/>
            <stop style="stop-color:#ff3c2a;stop-opacity:1" offset="1"/>
        </linearGradient>
        <linearGradient id="c">
            <stop style="stop-color:#d31909;stop-opacity:1" offset="0"/>
            <stop style="stop-color:#ff3c2a;stop-opacity:1" offset="1"/>
        </linearGradient>
        <linearGradient id="d">
            <stop style="stop-color:#d31909;stop-opacity:1" offset="0"/>
            <stop style="stop-color:#ff3c2a;stop-opacity:1" offset="1"/>
        </linearGradient>
        <linearGradient id="e">
            <stop style="stop-color:#d31909;stop-opacity:1" offset="0"/>
            <stop style="stop-color:#ff3c2a;stop-opacity:1" offset="1"/>
        </linearGradient>
        <linearGradient id="f">
            <stop style="stop-color:#d31909;stop-opacity:1" offset="0"/>
            <stop style="stop-color:#ff3c2a;stop-opacity:1" offset="1"/>
        </linearGradient>
        <linearGradient id="a">
            <stop style="stop-color:#d31909;stop-opacity:1" offset="0"/>
            <stop style="stop-color:#ff3c2a;stop-opacity:1" offset="1"/>
        </linearGradient>
        <linearGradient xlink:href="#b" id="o" x1="84.053" y1="53.512" x2="84.053" y2="5.101" gradientUnits="userSpaceOnUse"/>
        <linearGradient xlink:href="#c" id="n" x1="84.053" y1="53.512" x2="84.053" y2="5.101" gradientUnits="userSpaceOnUse"/>
        <linearGradient xlink:href="#d" id="m" x1="220.3" y1="142.699" x2="220.3" y2="21.674" gradientUnits="userSpaceOnUse"/>
        <linearGradient xlink:href="#e" id="l" x1="220.3" y1="142.699" x2="220.3" y2="21.674" gradientUnits="userSpaceOnUse"/>
        <linearGradient xlink:href="#f" id="k" x1="84.053" y1="53.512" x2="84.053" y2="5.101" gradientUnits="userSpaceOnUse"/>
        <linearGradient xlink:href="#g" id="x" gradientUnits="userSpaceOnUse" x1="84.053" y1="53.512" x2="79.429" y2="-17.142"/>
        <linearGradient xlink:href="#a" id="h" x1="109.618" y1="64.928" x2="110.24" y2="38.236" gradientUnits="userSpaceOnUse"/>
        <linearGradient xlink:href="#a" id="i" x1="109.618" y1="64.928" x2="110.24" y2="38.236" gradientUnits="userSpaceOnUse"/>
        <linearGradient xlink:href="#g" id="j" x1="109.618" y1="64.928" x2="103.747" y2="24.334" gradientUnits="userSpaceOnUse"/>
        <linearGradient xlink:href="#b" id="p" gradientUnits="userSpaceOnUse" x1="84.053" y1="53.512" x2="84.053" y2="5.101"/>
        <linearGradient xlink:href="#b" id="q" gradientUnits="userSpaceOnUse" x1="84.053" y1="53.512" x2="84.053" y2="5.101"/>
        <linearGradient xlink:href="#b" id="r" gradientUnits="userSpaceOnUse" x1="84.053" y1="53.512" x2="84.053" y2="5.101"/>
        <linearGradient xlink:href="#b" id="s" gradientUnits="userSpaceOnUse" x1="84.053" y1="53.512" x2="84.053" y2="5.101"/>
        <linearGradient xlink:href="#b" id="t" gradientUnits="userSpaceOnUse" x1="84.053" y1="53.512" x2="84.053" y2="5.101"/>
        <linearGradient xlink:href="#b" id="u" gradientUnits="userSpaceOnUse" x1="84.053" y1="53.512" x2="84.053" y2="5.101"/>
        <linearGradient xlink:href="#b" id="v" gradientUnits="userSpaceOnUse" x1="84.053" y1="53.512" x2="84.053" y2="5.101"/>
        <linearGradient xlink:href="#b" id="w" gradientUnits="userSpaceOnUse" x1="84.053" y1="53.512" x2="84.053" y2="5.101"/>
    </defs>
    <g style="display:inline">
        <path style="display:inline;opacity:.79187;fill:#1a1a1a;stroke-width:1" d="M109.618 64.928c-.763-.635-.772-.7-.41-2.79.395-2.282 2.049-7.611 3.444-11.099.467-1.168.78-2.193.695-2.279-.085-.085-1.053.21-2.151.657-1.098.446-2.13.728-2.295.627-.164-.102-.21-.585-.103-1.074.14-.638.055-.943-.301-1.08-.274-.104-.497-.476-.497-.826 0-.782 1.873-1.919 4.854-2.947 2.113-.73 2.136-.75 2.339-2.1.112-.749.324-1.436.47-1.527.532-.328 3.217.91 3.217 1.483 0 .498.276.536 2.651.369 4.288-.303 7.349.96 8.29 3.418.17.44.304 1.647.3 2.683-.015 3.641-2.398 6.867-7.604 10.296-3.512 2.313-7.773 4.609-8.567 4.616-.573.005-.577-.03-.072-.589.315-.348.45-.82.327-1.141-.399-1.04.628-2.097 4.387-4.512 6.932-4.455 9.38-8.51 6.28-10.402-1.167-.71-3.338-.825-5.473-.287l-1.364.343-.832 2.96c-.457 1.628-1.563 4.965-2.457 7.416-1.09 2.987-1.626 4.952-1.626 5.958 0 1.695-.421 2.2-1.027 1.231-.55-.88-.83-.82-.952.203-.13 1.097-.546 1.204-1.523.393zm-11.632-3.019c-3.199-1.174-4.741-3.41-4.96-7.192-.187-3.222.455-5.2 2.383-7.344 2.206-2.454 7.725-4.745 9.343-3.879.355.19.948.346 1.317.346.89 0 1.177.842.53 1.557-.286.315-.519.737-.519.937 0 .502-.867.9-2.51 1.15-6.357.972-9.611 8.964-4.69 11.518 2.924 1.517 6.07.89 8.794-1.754l1.311-1.272-.212 1.692c-.265 2.114-1.225 3.216-3.564 4.091-2.015.754-5.387.824-7.223.15zm52.734-8.507c-2.388-1.772-7.033-4.912-11.52-7.79-2.9-1.86-8.142-5.94-8.506-6.62-.177-.331-.943-.894-1.703-1.25-1.394-.656-8.193-7.28-8.603-8.382-.114-.308-.413-.56-.664-.56-.251 0-1.143-.648-1.981-1.44-1.313-1.24-1.426-1.44-.817-1.44.389 0 1.24.276 1.89.613.651.338 1.587.77 2.08.961.576.223 1.073.777 1.388 1.547.542 1.326 5.536 6.383 7.716 7.813.748.49 1.36 1.094 1.36 1.34s.792.994 1.76 1.66c.968.667 1.76 1.34 1.76 1.496 0 .155.522.5 1.16.767.638.267 2.27 1.376 3.626 2.464 1.357 1.088 3.3 2.555 4.32 3.259 1.018.704 2.878 2.079 4.133 3.055s2.958 2.238 3.785 2.804c1.467 1.005 2.155 1.69 1.635 1.631-.143-.016-1.411-.884-2.819-1.928zm2.56-1.562c-.109-.176-.054-.32.122-.32s.41.144.518.32c.109.176.054.32-.122.32s-.41-.144-.518-.32zm-4.009-2.967c-1.315-.928-3.097-2.188-3.96-2.8a60.465 60.465 0 0 1-3.36-2.63c-.985-.835-1.927-1.519-2.094-1.52-.166-.002-.67-.345-1.12-.764-.45-.418-2.462-1.87-4.473-3.226a79.332 79.332 0 0 1-12.216-10.172c-2.05-2.086-2.962-2.801-3.577-2.801-.993 0-1.831-.762-1.831-1.664 0-.593.131-.637 1.343-.443 1.717.275 3.82 1.873 6.549 4.979 1.164 1.324 2.349 2.552 2.633 2.728.671.417 3.43 2.945 4.488 4.113.455.503 1.475 1.244 2.267 1.648 1.624.828 4.12 2.706 5.582 4.198 1.659 1.695 4.698 4.086 7.378 5.803 2.13 1.366 5.476 4.238 4.936 4.238-.084 0-1.23-.76-2.545-1.687zm3.764-.445c-.659-.469-1.136-.913-1.061-.988.143-.144 3.066 1.487 3.066 1.71 0 .373-.945.032-2.005-.722zm3.185-1.049c-2.132-1.185-3.164-1.939-2.653-1.939.506 0 5.313 2.638 5.313 2.916 0 .441-.321.323-2.66-.977zm-8.448-2.352a343.254 343.254 0 0 1-5.406-4.02c-1.703-1.294-3.832-2.83-4.731-3.412-.9-.582-2.571-2.024-3.715-3.203-1.144-1.18-2.855-2.668-3.803-3.308l-2.721-1.839c-.55-.371-1.845-1.638-2.879-2.816-1.288-1.468-2.477-2.443-3.779-3.1-2.167-1.094-2.437-1.977-.655-2.15 1.224-.118 1.263-.257.346-1.233-.533-.567-.623-.89-.393-1.404l.298-.669.847.666c.466.367 1.264.75 1.774.852.869.174 1.032.025 2.595-2.354 1.027-1.565 1.592-2.736 1.472-3.049-.108-.28-.868-.86-1.689-1.29-1.243-.65-1.735-.74-2.933-.542-2.057.34-2.392.54-2.979 1.771-.352.738-.68 1.04-1 .917-.328-.126-.54.098-.687.727-.116.5-.652 1.61-1.19 2.465-.619.986-1.254 2.744-1.734 4.8-.417 1.784-.896 3.82-1.066 4.524-.17.704-.458 2.216-.64 3.36-.425 2.673-.88 3.82-1.269 3.193-.361-.585-.321-.643-1.878 2.705-1.022 2.196-1.417 2.77-1.707 2.48-.513-.513-.89-.476-.89.087 0 1.208-1.317 2.805-1.863 2.259-.42-.42.039-3.576.717-4.93.406-.81.841-2.036.966-2.723.125-.688.649-2.142 1.164-3.231.515-1.09.934-2.328.932-2.751-.004-.802 1.349-5.21 3.036-9.889a22.84 22.84 0 0 0 .615-2.013l.212-.893-.954.493c-1.07.553-2.905.663-2.905.173 0-.176-.206-.32-.458-.32-.747 0-2.714-1.4-2.728-1.941-.007-.276.454-.93 1.026-1.454.572-.524 1.184-1.183 1.36-1.464.49-.784 8.98-4.018 11.2-4.268 1.056-.119 2.296-.437 2.756-.708.723-.425 1.2-.438 3.514-.1 3.002.439 3.4.605 5.345 2.228 1.954 1.63 2.625 2.913 2.625 5.018 0 3.003-1.661 5.371-5.693 8.117l-1.626 1.108 1.18 1.14c.648.626 1.957 2.051 2.909 3.166.95 1.115 2.167 2.294 2.703 2.62 1.013.616 4.066 3.129 7.192 5.918.998.891 2.94 2.538 4.316 3.66 2.274 1.855 3.35 3.055 3.03 3.376-.19.19-3.783-2.227-5.371-3.613a36.112 36.112 0 0 0-2.88-2.233c-.792-.537-1.728-1.296-2.08-1.687-.352-.392-1.302-1.048-2.11-1.458-.809-.41-1.718-1.123-2.02-1.584-.302-.46-1.08-1.323-1.73-1.916a220.502 220.502 0 0 1-2.716-2.542c-.845-.804-1.752-1.463-2.016-1.463-.263 0-1.372-.58-2.464-1.29-1.899-1.236-1.935-1.246-.846-.24.626.577 2.482 2.202 4.124 3.61 1.642 1.408 3.722 3.257 4.622 4.11.9.852 2.284 1.983 3.076 2.513.792.53 2.483 1.921 3.759 3.09l4.8 4.4c1.364 1.25 3.381 2.875 4.481 3.611 1.1.737 2 1.406 2 1.488 0 .362-.632.012-2.788-1.545zm2.838-1.18c-1.675-1.082-2.46-1.927-1.792-1.927.394 0 3.982 2.606 3.982 2.892 0 .445-.03.432-2.19-.965zm-40.37-5.611c0-.09.128-.415.286-.72.157-.306.472-.988.7-1.516.403-.93.42-.936.542-.203.07.416-.03.913-.22 1.104-.192.19-.348.606-.348.923 0 .317-.216.576-.48.576s-.48-.074-.48-.164zM7.996 41.364C5.078 40.319.8 37.254.8 36.209c0-.662 1.15-.389 1.944.461 1.403 1.502 3.456 2.493 5.112 2.468 4.383-.066 9.031-4.89 12.017-12.469 1.639-4.16 4.32-14.902 3.84-15.383-.073-.073-1.695.085-3.603.35-7.097.99-6.946.99-8.716-.028-.069-.04.06-.296.287-.57.346-.416.29-.627-.341-1.3l-.755-.803.708-.185c.766-.2.935-.62.33-.823-.211-.07-.286-.364-.17-.666.169-.442.65-.541 2.63-.541 1.333 0 3.462-.212 4.73-.47 1.27-.259 4.895-.847 8.057-1.308 3.163-.461 6.115-1.021 6.56-1.245 1.361-.683 12.017-2.357 12.423-1.95.41.409-1.152 1.113-2.493 1.125-1.72.014-3.84.557-3.84.983 0 .168.288.305.64.305.352 0 .64.07.64.157 0 .364-2.054 2.083-2.49 2.083-.26 0-.923.274-1.472.61-.549.334-1.618.791-2.377 1.015-.758.224-1.513.659-1.677.965-.164.307-.722.65-1.24.765-.517.113-1.079.377-1.249.586-.17.208-.776 2.323-1.347 4.699-2.725 11.345-7.42 21.222-11.6 24.405-3.013 2.294-6.377 2.984-9.352 1.919ZM76.685 5.43c-.528-.033-1.132.225-1.687.78-.978.977-2.896 4.623-3.635 6.91-.313.968-.824 2.264-1.136 2.88-.687 1.359-2.68 6.711-3.158 8.48-.19.704-.341 2.576-.336 4.16.01 3.4.41 4.119 2.48 4.469 1.146.193 1.573.085 3.021-.765.928-.545 1.93-1.313 2.229-1.707a67.99 67.99 0 0 1 1.319-1.66l.775-.944.047 2.297c.026 1.263.184 2.655.35 3.094.365.958 1.66 1.36 2.764.856.436-.198.927-.36 1.093-.36.374 0-1.038 3.251-2.138 4.922-.684 1.04-.76 1.367-.467 2.012.295.647.454.715.993.426.353-.188.641-.497.641-.686 0-.188.205-.264.457-.168.25.097.63-.033.843-.29.212-.255.614-.427.893-.38.302.05.963-.573 1.637-1.544a99.798 99.798 0 0 1 2.465-3.36c.734-.953 2.232-3.46 3.329-5.572 2.124-4.09 2.98-5.28 3.797-5.28.28 0 1.056-.37 1.722-.824 1.41-.957 3.7-2.039 4.34-2.049.346-.005.398.329.235 1.513-.226 1.642.413 7.76.81 7.76.134 0 .328.54.432 1.2.105.66.395 1.887.646 2.727.25.84.375 1.928.277 2.418-.119.596-.01 1.03.329 1.312.28.232.508.61.508.843 0 .232.168.527.374.654.25.155.308.057.174-.294-.111-.288-.05-1.715.134-3.172.185-1.456.452-4.808.595-7.448.559-10.333 1.345-17.951 1.974-19.132.508-.955.016-1.786-1.192-2.013-.607-.114-1.46-.486-1.893-.827-1.053-.829-2.086-.333-2.086 1.001 0 .703-.33 1.198-1.36 2.043-.748.614-1.792 1.716-2.32 2.45-.528.734-1.794 2.294-2.814 3.466-1.02 1.172-2.353 3.02-2.961 4.106-.787 1.403-1.67 2.396-3.057 3.44-1.073.806-2.169 1.466-2.435 1.466-.352 0-.43.211-.286.78.107.43.05.87-.126.98-.646.398-.3.807.51.604.797-.2.769-.116-.697 2.088-1.178 1.773-1.68 2.276-2.191 2.202-.85-.121-1.006-1.17-.508-3.396.406-1.813.571-2.225 3.684-9.178 1.103-2.464 2.111-4.84 2.241-5.28.13-.44.458-1.053.73-1.363.392-.445.42-.713.136-1.28a5.484 5.484 0 0 1-.453-1.517c-.068-.584-.309-.825-.893-.893a5.564 5.564 0 0 1-1.541-.465c-1.063-.534-1.525-.118-2.926 2.638-2.075 4.081-2.621 5.386-3.048 7.285-.816 3.626-2.19 6.249-4.472 8.53-2.509 2.51-4.52 4.025-5.34 4.025-.904 0-.762-1.799.367-4.64.528-1.33.96-2.567.96-2.75 0-.183.36-.804.8-1.381.44-.577.8-1.342.8-1.7 0-.358.236-.846.524-1.085.288-.24.78-1.033 1.094-1.764.313-.731.725-1.426.915-1.543.19-.118.347-.565.347-.993 0-.429.648-1.82 1.44-3.093 1.527-2.455 1.711-3.147.994-3.742-.245-.204-.622-.797-.839-1.32-.25-.604-.702-.927-1.23-.96Zm22.713 7.95c.232-.018.312.215.147.78-.115.396-.297 1.2-.403 1.785-.135.74-.436 1.158-.985 1.367-.436.165-1.155.586-1.598.934-1.238.974-1.437.763-.687-.726 1.071-2.126 2.884-4.09 3.526-4.14zM45.302 6.803c-.845-.04-3.011.611-3.641 1.153-.42.362-.643.397-.809.128-.126-.203-.37-.27-.544-.147-.445.316-2.584 3.915-2.86 4.811-.126.412-.845 1.636-1.598 2.72-.752 1.085-2.078 3.34-2.946 5.012-1.3 2.5-1.79 3.144-2.762 3.626-1.316.653-1.508 1.149-.542 1.401.352.092.64.299.64.459 0 .391-1.965 4.272-3.92 7.743-1.444 2.562-2.484 5.352-2.466 6.611.005.336.196.254.636-.276.346-.415.63-.955.63-1.2 0-.244.16-.444.354-.444.195 0 .272.216.17.48-.404 1.054.314.381.863-.808.683-1.482 1.167-1.642 1.186-.392l.013.88.5-.96a27.98 27.98 0 0 1 1.245-2.08c.41-.616 1.485-2.992 2.39-5.28.904-2.288 1.886-4.396 2.181-4.685.296-.288 1.834-.99 3.418-1.56 1.584-.57 3.058-1.179 3.276-1.352.568-.452.68.056.862 3.917.326 6.939.65 8.706 1.305 7.12.176-.428.366-.182.804 1.04l.574 1.6.23-1.047c.268-1.212.71-1.613.985-.893.587 1.529.764-.297.765-7.9 0-4.62.153-10.397.338-12.836.293-3.876.272-4.506-.162-4.985-.273-.303-.497-.782-.497-1.065 0-.284-.155-.613-.345-.73a.596.596 0 0 0-.273-.06zM41.093 13.6l.014 2.932.013 2.933-2.268 1.308C36.764 21.976 36 22.29 36 21.948c0-.531 3.223-6.233 4.055-7.174zM55.04 34.24c-.109-.176-.472-.32-.807-.32-.335 0-1.527-.858-2.649-1.907-2.344-2.194-2.963-3.626-3.297-7.631-.388-4.658 1.366-9.094 5.213-13.184 2.173-2.31 2.455-2.499 4.739-3.177 2.276-.676 2.495-.69 3.496-.214.587.278 1.304.867 1.593 1.31.29.441.742.803 1.005.803.36 0 .427.218.269.88-.31 1.296-.382 1.36-1.545 1.36-1.816 0-5.929 2.27-7.778 4.294-3.72 4.072-4.559 8.597-2.231 12.051 1.646 2.444 5.626 3.964 7.74 2.957l.972-.464.056-3.1c.03-1.703.103-3.528.16-4.053.101-.93.073-.952-1.166-.85-.698.059-2.102.526-3.12 1.04-1.017.514-1.85.788-1.85.61 0-.179.132-.325.294-.325.162 0 .6-.497.976-1.104.812-1.314 2.165-2.201 4.675-3.065 1.018-.35 2.1-.863 2.406-1.14.432-.39.701-.424 1.21-.152.359.192.839.312 1.066.265.587-.12.387 1.791-.594 5.676-.643 2.546-.781 3.756-.677 5.92.072 1.496.244 2.972.382 3.28.437.976-.375.622-1.674-.73l-1.24-1.29-1.412 1.29c-1.375 1.256-1.472 1.29-3.713 1.29-1.266 0-2.39-.144-2.499-.32z" transform="translate(0 -.084)"/>
        <path style="display:inline;fill:url(#h);fill-opacity:1;stroke-width:1" d="M97.186 60.31c-3.199-1.175-4.741-3.411-4.96-7.193-.187-3.222.455-5.2 2.383-7.344 2.206-2.454 7.725-4.745 9.343-3.879.355.19.948.346 1.317.346.89 0 1.177.842.53 1.557-.286.315-.519.737-.519.937 0 .502-.867.9-2.51 1.15-6.357.972-9.611 8.964-4.69 11.518 2.924 1.517 6.07.89 8.794-1.754l1.311-1.272-.212 1.692c-.265 2.114-1.225 3.216-3.564 4.091-2.015.754-5.387.824-7.223.15z" transform="translate(0 -.084)"/>
        <path style="display:inline;fill:url(#i);fill-opacity:1;stroke-width:1" d="M108.818 63.328c-.763-.635-.772-.7-.41-2.79.395-2.282 2.049-7.611 3.444-11.099.467-1.168.78-2.193.695-2.279-.085-.085-1.053.21-2.151.657-1.098.446-2.13.728-2.295.627-.164-.102-.21-.585-.103-1.074.14-.638.055-.943-.301-1.08-.274-.104-.497-.476-.497-.826 0-.782 1.873-1.919 4.854-2.947 2.113-.73 2.136-.75 2.339-2.1.112-.749.324-1.436.47-1.527.532-.328 3.217.91 3.217 1.483 0 .498.276.536 2.651.369 4.288-.303 7.349.96 8.29 3.418.17.44.304 1.647.3 2.683-.015 3.641-2.398 6.867-7.604 10.296-3.512 2.313-7.773 4.609-8.567 4.616-.573.005-.577-.03-.072-.589.315-.348.45-.82.327-1.141-.399-1.04.628-2.097 4.387-4.512 6.932-4.455 9.38-8.51 6.28-10.402-1.167-.71-3.338-.825-5.473-.287l-1.364.343-.832 2.96c-.457 1.628-1.563 4.965-2.457 7.416-1.09 2.987-1.626 4.952-1.626 5.958 0 1.695-.421 2.2-1.027 1.231-.55-.88-.83-.82-.952.203-.13 1.097-.546 1.204-1.523.393z" transform="translate(0 -.084)"/>
        <path style="display:inline;fill:url(#j);fill-opacity:1;stroke-width:1" d="M108.818 63.328c-.763-.635-.772-.7-.41-2.79.395-2.282 2.049-7.611 3.444-11.099.467-1.168.78-2.193.695-2.279-.085-.085-1.053.21-2.151.657-1.098.446-2.13.728-2.295.627-.164-.102-.21-.585-.103-1.074.14-.638.055-.943-.301-1.08-.274-.104-.497-.476-.497-.826 0-.782 1.873-1.919 4.854-2.947 2.113-.73 2.136-.75 2.339-2.1.112-.749.324-1.436.47-1.527.532-.328 3.217.91 3.217 1.483 0 .498.276.536 2.651.369 4.288-.303 7.349.96 8.29 3.418.17.44.304 1.647.3 2.683-.015 3.641-2.398 6.867-7.604 10.296-3.512 2.313-7.773 4.609-8.567 4.616-.573.005-.577-.03-.072-.589.315-.348.45-.82.327-1.141-.399-1.04.628-2.097 4.387-4.512 6.932-4.455 9.38-8.51 6.28-10.402-1.167-.71-3.338-.825-5.473-.287l-1.364.343-.832 2.96c-.457 1.628-1.563 4.965-2.457 7.416-1.09 2.987-1.626 4.952-1.626 5.958 0 1.695-.421 2.2-1.027 1.231-.55-.88-.83-.82-.952.203-.13 1.097-.546 1.204-1.523.393zm-11.632-3.019c-3.199-1.174-4.741-3.41-4.96-7.192-.187-3.222.455-5.2 2.383-7.344 2.206-2.454 7.725-4.745 9.343-3.879.355.19.948.346 1.317.346.89 0 1.177.842.53 1.557-.286.315-.519.737-.519.937 0 .502-.867.9-2.51 1.15-6.357.972-9.611 8.964-4.69 11.518 2.924 1.517 6.07.89 8.794-1.754l1.311-1.272-.212 1.692c-.265 2.114-1.225 3.216-3.564 4.091-2.015.754-5.387.824-7.223.15z" transform="translate(0 -.084)"/>
        <g style="display:inline">
            <path style="display:inline;fill:url(#k);fill-opacity:1;stroke-width:1" d="M54.24 32.64c-.109-.176-.472-.32-.807-.32-.335 0-1.527-.858-2.649-1.907-2.344-2.194-2.963-3.626-3.297-7.631-.388-4.658 1.366-9.094 5.213-13.184 2.173-2.31 2.455-2.499 4.739-3.177 2.276-.676 2.495-.69 3.496-.214.587.278 1.304.867 1.593 1.31.29.441.742.803 1.005.803.36 0 .427.218.269.88-.31 1.296-.382 1.36-1.545 1.36-1.816 0-5.929 2.27-7.778 4.294-3.72 4.072-4.559 8.597-2.231 12.051 1.646 2.444 5.626 3.964 7.74 2.957l.972-.464.056-3.1c.03-1.703.103-3.528.16-4.053.101-.93.073-.952-1.166-.85-.698.059-2.102.526-3.12 1.04-1.017.514-1.85.788-1.85.61 0-.179.132-.325.294-.325.162 0 .6-.497.976-1.104.812-1.314 2.165-2.201 4.675-3.065 1.018-.35 2.1-.863 2.406-1.14.432-.39.701-.424 1.21-.152.359.192.839.312 1.066.265.587-.12.387 1.791-.594 5.676-.643 2.546-.781 3.756-.677 5.92.072 1.496.244 2.972.382 3.28.437.976-.375.622-1.674-.73l-1.24-1.29-1.412 1.29c-1.375 1.256-1.472 1.29-3.713 1.29-1.266 0-2.39-.144-2.499-.32z" transform="translate(0 -.084)"/>
            <path style="display:inline;fill:url(#l);fill-opacity:1;stroke-width:2.5" d="M121.424 21.928c-2.112-.098-7.529 1.527-9.104 2.883-1.05.904-1.606.992-2.021.32-.315-.51-.927-.676-1.36-.37-1.113.79-6.46 9.788-7.148 12.03-.316 1.03-2.115 4.09-3.996 6.8-1.882 2.712-5.196 8.348-7.367 12.528-3.247 6.252-4.474 7.86-6.905 9.067-3.288 1.63-3.768 2.87-1.355 3.501.88.23 1.602.747 1.602 1.147 0 .978-4.914 10.682-9.801 19.357-3.61 6.408-6.21 13.38-6.164 16.53.012.84.488.633 1.59-.69.865-1.039 1.574-2.389 1.574-3 0-.611.397-1.111.885-1.111.487 0 .679.54.425 1.2-1.011 2.636.786.953 2.157-2.02 1.707-3.704 2.919-4.105 2.964-.98l.034 2.2 1.252-2.4c.688-1.32 2.087-3.66 3.11-5.2 1.025-1.54 3.713-7.48 5.974-13.2 2.26-5.72 4.715-10.99 5.455-11.711.74-.722 4.585-2.478 8.545-3.903 3.96-1.425 7.644-2.946 8.189-3.379 1.42-1.129 1.7.141 2.154 9.793.816 17.348 1.626 21.766 3.262 17.8.441-1.07.916-.454 2.012 2.6l1.435 4 .576-2.616c.669-3.032 1.771-4.033 2.461-2.235 1.468 3.824 1.91-.74 1.912-19.75.002-11.55.383-25.99.844-32.09.734-9.69.682-11.263-.404-12.463-.683-.755-1.242-1.952-1.242-2.662s-.389-1.53-.864-1.824c-.145-.09-.38-.138-.681-.152zM110.902 38.92l.034 7.33.033 7.332-5.67 3.27c-5.22 3.01-7.131 3.796-7.131 2.937 0-1.327 8.058-15.58 10.139-17.934z" transform="matrix(.4 0 0 .4 -4.067 -3.652)"/>
            <path style="display:inline;fill:url(#m);fill-opacity:1;stroke-width:2.5" d="M199.88 18.494c-1.32-.081-2.83.563-4.216 1.95-2.445 2.444-7.24 11.56-9.088 17.277-.782 2.42-2.06 5.659-2.84 7.199-1.718 3.397-6.701 16.777-7.894 21.2-.475 1.76-.854 6.44-.842 10.4.026 8.498 1.024 10.296 6.203 11.171 2.862.484 3.931.215 7.55-1.912 2.32-1.362 4.826-3.282 5.573-4.267a169.97 169.97 0 0 1 3.297-4.15l1.938-2.36.117 5.742c.065 3.159.46 6.64.877 7.736.91 2.395 4.15 3.399 6.91 2.141 1.088-.496 2.317-.9 2.73-.9.937 0-2.593 8.128-5.343 12.304-1.712 2.6-1.903 3.418-1.168 5.03.737 1.618 1.134 1.787 2.482 1.066.882-.472 1.604-1.243 1.604-1.715 0-.471.512-.66 1.14-.42.628.241 1.577-.085 2.108-.724.53-.64 1.535-1.07 2.232-.953.756.125 2.409-1.432 4.094-3.86 1.554-2.239 4.327-6.02 6.162-8.4 1.835-2.381 5.58-8.65 8.322-13.93 5.31-10.226 7.449-13.2 9.494-13.2.701 0 2.638-.925 4.305-2.058 3.523-2.393 9.25-5.097 10.85-5.123.863-.013.995.82.587 3.782-.564 4.106 1.032 19.4 2.026 19.4.333 0 .82 1.35 1.08 3 .26 1.65.987 4.718 1.613 6.818.626 2.1.939 4.82.694 6.045-.298 1.49-.027 2.575.822 3.28.698.579 1.27 1.527 1.27 2.107 0 .58.42 1.317.935 1.635.626.387.77.143.433-.735-.276-.72-.125-4.288.336-7.93.462-3.64 1.132-12.02 1.489-18.62 1.396-25.832 3.361-44.878 4.933-47.83 1.271-2.387.04-4.465-2.978-5.032-1.52-.285-3.649-1.216-4.733-2.068-2.633-2.071-5.214-.832-5.214 2.504 0 1.756-.824 2.994-3.4 5.107-1.87 1.534-4.482 4.29-5.802 6.125-1.32 1.835-4.485 5.733-7.035 8.664s-5.881 7.55-7.402 10.264c-1.967 3.509-4.174 5.992-7.643 8.6-2.682 2.016-5.422 3.666-6.086 3.666-.88 0-1.073.528-.716 1.95.269 1.074.127 2.175-.315 2.448-1.614.998-.751 2.02 1.275 1.512 1.993-.5 1.923-.29-1.742 5.22-2.946 4.432-4.199 5.69-5.478 5.506-2.124-.303-2.515-2.924-1.27-8.492 1.014-4.532 1.428-5.562 9.21-22.943 2.757-6.16 5.279-12.101 5.603-13.201.324-1.1 1.146-2.632 1.826-3.407.978-1.113 1.048-1.783.338-3.2-.494-.987-1.003-2.694-1.131-3.794-.17-1.459-.773-2.062-2.232-2.232-1.1-.129-2.835-.651-3.854-1.162-2.657-1.334-3.811-.294-7.314 6.595-5.188 10.203-6.554 13.464-7.622 18.213-2.038 9.064-5.474 15.621-11.18 21.326-6.271 6.273-11.3 10.06-13.35 10.06-2.26 0-1.903-4.495.92-11.599 1.32-3.323 2.4-6.417 2.4-6.875 0-.458.9-2.01 2-3.453 1.1-1.442 2-3.355 2-4.25 0-.894.588-2.115 1.308-2.713.72-.597 1.951-2.582 2.734-4.41.784-1.828 1.813-3.563 2.29-3.857.476-.295.867-1.412.867-2.483 0-1.07 1.62-4.55 3.6-7.732 3.818-6.136 4.278-7.868 2.486-9.356-.613-.508-1.557-1.991-2.098-3.296-.626-1.512-1.756-2.32-3.076-2.4zm56.784 19.877c.58-.045.779.536.367 1.95-.288.99-.741 2.997-1.008 4.462-.336 1.85-1.088 2.894-2.462 3.416-1.089.414-2.887 1.465-3.995 2.336-3.094 2.434-3.592 1.909-1.716-1.814 2.677-5.315 7.209-10.225 8.814-10.35z" transform="matrix(.4 0 0 .4 -4.067 -3.652)"/>
            <path style="display:inline;fill:url(#n);fill-opacity:1;stroke-width:1" d="M7.196 39.764C4.278 38.719 0 35.654 0 34.609c0-.662 1.15-.389 1.944.461 1.403 1.502 3.456 2.493 5.112 2.468 4.383-.066 9.031-4.89 12.017-12.469 1.639-4.16 4.32-14.902 3.84-15.383-.073-.073-1.695.085-3.603.35-7.097.99-6.946.99-8.716-.028-.069-.04.06-.296.287-.57.346-.416.29-.627-.341-1.3l-.755-.803.708-.185c.766-.2.935-.62.33-.823-.211-.07-.286-.364-.17-.666.169-.442.65-.541 2.63-.541 1.333 0 3.462-.212 4.73-.47 1.27-.259 4.895-.847 8.057-1.308 3.163-.461 6.115-1.021 6.56-1.245C33.991 1.414 44.647-.26 45.053.147c.41.409-1.152 1.113-2.493 1.125-1.72.014-3.84.557-3.84.983 0 .168.288.305.64.305.352 0 .64.07.64.157 0 .364-2.054 2.083-2.49 2.083-.26 0-.923.274-1.472.61-.549.334-1.618.791-2.377 1.015-.758.224-1.513.659-1.677.965-.164.307-.722.65-1.24.765-.517.113-1.079.377-1.249.586-.17.208-.776 2.323-1.347 4.699-2.725 11.345-7.42 21.222-11.6 24.405-3.013 2.294-6.377 2.984-9.352 1.919z" transform="translate(0 -.084)"/>
            <g style="display:inline;fill:url(#o);fill-opacity:1" transform="translate(0 -.084)">
                <path style="display:inline;fill:url(#p);fill-opacity:1;stroke-width:1" d="M109.44 36.636c0-.09.128-.415.286-.72.157-.306.472-.988.7-1.516.403-.93.42-.936.542-.203.07.416-.03.913-.22 1.104-.192.19-.348.606-.348.923 0 .317-.216.576-.48.576s-.48-.074-.48-.164z"/>
                <path style="display:inline;fill:url(#q);fill-opacity:1;stroke-width:1" d="M149.81 42.247c-1.675-1.082-2.46-1.927-1.792-1.927.394 0 3.982 2.606 3.982 2.892 0 .445-.03.432-2.19-.965z"/>
                <path style="display:inline;fill:url(#r);fill-opacity:1;stroke-width:1" d="M146.972 43.427a343.254 343.254 0 0 1-5.406-4.02c-1.703-1.294-3.832-2.83-4.731-3.412-.9-.582-2.571-2.024-3.715-3.203-1.144-1.18-2.855-2.668-3.803-3.308l-2.721-1.839c-.55-.371-1.845-1.638-2.879-2.816-1.288-1.468-2.477-2.443-3.779-3.1-2.167-1.094-2.437-1.977-.655-2.15 1.224-.118 1.263-.257.346-1.233-.533-.567-.623-.89-.393-1.404l.298-.669.847.666c.466.367 1.264.75 1.774.852.869.174 1.032.025 2.595-2.354 1.027-1.565 1.592-2.736 1.472-3.049-.108-.28-.868-.86-1.689-1.29-1.243-.65-1.735-.74-2.933-.542-2.057.34-2.392.54-2.979 1.771-.352.738-.68 1.04-1 .917-.328-.126-.54.098-.687.727-.116.5-.652 1.61-1.19 2.465-.619.986-1.254 2.744-1.734 4.8-.417 1.784-.896 3.82-1.066 4.524-.17.704-.458 2.216-.64 3.36-.425 2.673-.88 3.82-1.269 3.193-.361-.585-.321-.643-1.878 2.705-1.022 2.196-1.417 2.77-1.707 2.48-.513-.513-.89-.476-.89.087 0 1.208-1.317 2.805-1.863 2.259-.42-.42.039-3.576.717-4.93.406-.81.841-2.036.966-2.723.125-.688.649-2.142 1.164-3.231.515-1.09.934-2.328.932-2.751-.004-.802 1.349-5.21 3.036-9.889a22.84 22.84 0 0 0 .615-2.013l.212-.893-.954.493c-1.07.553-2.905.663-2.905.173 0-.176-.206-.32-.458-.32-.747 0-2.714-1.4-2.728-1.941-.007-.276.454-.93 1.026-1.454.572-.524 1.184-1.183 1.36-1.464.49-.784 8.98-4.018 11.2-4.268 1.056-.119 2.296-.437 2.756-.708.723-.425 1.2-.438 3.514-.1 3.002.439 3.4.605 5.345 2.228 1.954 1.63 2.625 2.913 2.625 5.018 0 3.003-1.661 5.371-5.693 8.117l-1.626 1.108 1.18 1.14c.648.626 1.957 2.051 2.909 3.166.95 1.115 2.167 2.294 2.703 2.62 1.013.616 4.066 3.129 7.192 5.918.998.891 2.94 2.538 4.316 3.66 2.274 1.855 3.35 3.055 3.03 3.376-.19.19-3.783-2.227-5.371-3.613a36.112 36.112 0 0 0-2.88-2.233c-.792-.537-1.728-1.296-2.08-1.687-.352-.392-1.302-1.048-2.11-1.458-.809-.41-1.718-1.123-2.02-1.584-.302-.46-1.08-1.323-1.73-1.916a220.502 220.502 0 0 1-2.716-2.542c-.845-.804-1.752-1.463-2.016-1.463-.263 0-1.372-.58-2.464-1.29-1.899-1.236-1.935-1.246-.846-.24.626.577 2.482 2.202 4.124 3.61 1.642 1.408 3.722 3.257 4.622 4.11.9.852 2.284 1.983 3.076 2.513.792.53 2.483 1.921 3.759 3.09l4.8 4.4c1.364 1.25 3.381 2.875 4.481 3.611 1.1.737 2 1.406 2 1.488 0 .362-.632.012-2.788-1.545z"/>
                <path style="display:inline;fill:url(#s);fill-opacity:1;stroke-width:1" d="M155.42 45.78c-2.132-1.186-3.164-1.94-2.653-1.94.506 0 5.313 2.638 5.313 2.916 0 .441-.321.323-2.66-.977z"/>
                <path style="display:inline;fill:url(#t);fill-opacity:1;stroke-width:1" d="M152.235 46.828c-.659-.469-1.136-.913-1.061-.988.143-.144 3.066 1.487 3.066 1.71 0 .373-.945.032-2.005-.722z"/>
                <path style="display:inline;fill:url(#u);fill-opacity:1;stroke-width:1" d="M148.471 47.273c-1.315-.928-3.097-2.188-3.96-2.8a60.465 60.465 0 0 1-3.36-2.63c-.985-.835-1.927-1.519-2.094-1.52-.166-.002-.67-.345-1.12-.764-.45-.418-2.462-1.87-4.473-3.226a79.332 79.332 0 0 1-12.216-10.172c-2.05-2.086-2.962-2.801-3.577-2.801-.993 0-1.831-.762-1.831-1.664 0-.593.131-.637 1.343-.443 1.717.275 3.82 1.873 6.549 4.979 1.164 1.324 2.349 2.552 2.633 2.728.671.417 3.43 2.945 4.488 4.113.455.503 1.475 1.244 2.267 1.648 1.624.828 4.12 2.706 5.582 4.198 1.659 1.695 4.698 4.086 7.378 5.803 2.13 1.366 5.476 4.238 4.936 4.238-.084 0-1.23-.76-2.545-1.687z"/>
                <path style="display:inline;fill:url(#v);fill-opacity:1;stroke-width:1" d="M152.48 50.24c-.109-.176-.054-.32.122-.32s.41.144.518.32c.109.176.054.32-.122.32s-.41-.144-.518-.32z"/>
                <path style="display:inline;fill:url(#w);fill-opacity:1;stroke-width:1" d="M149.92 51.802c-2.388-1.772-7.033-4.912-11.52-7.79-2.9-1.86-8.142-5.94-8.506-6.62-.177-.331-.943-.894-1.703-1.25-1.394-.656-8.193-7.28-8.603-8.382-.114-.308-.413-.56-.664-.56-.251 0-1.143-.648-1.981-1.44-1.313-1.24-1.426-1.44-.817-1.44.389 0 1.24.276 1.89.613.651.338 1.587.77 2.08.961.576.223 1.073.777 1.388 1.547.542 1.326 5.536 6.383 7.716 7.813.748.49 1.36 1.094 1.36 1.34s.792.994 1.76 1.66c.968.667 1.76 1.34 1.76 1.496 0 .155.522.5 1.16.767.638.267 2.27 1.376 3.626 2.464 1.357 1.088 3.3 2.555 4.32 3.259 1.018.704 2.878 2.079 4.133 3.055s2.958 2.238 3.785 2.804c1.467 1.005 2.155 1.69 1.635 1.631-.143-.016-1.411-.884-2.819-1.928z"/>
            </g>
            <path style="display:inline;opacity:.470696;fill:url(#x);fill-opacity:1;stroke-width:1" d="M149.92 51.802c-2.388-1.772-7.033-4.912-11.52-7.79-2.9-1.86-8.142-5.94-8.506-6.62-.177-.331-.943-.894-1.703-1.25-1.394-.656-8.193-7.28-8.603-8.382-.114-.308-.413-.56-.664-.56-.251 0-1.143-.648-1.981-1.44-1.313-1.24-1.426-1.44-.817-1.44.389 0 1.24.276 1.89.613.651.338 1.587.77 2.08.961.576.223 1.073.777 1.388 1.547.542 1.326 5.536 6.383 7.716 7.813.748.49 1.36 1.094 1.36 1.34s.792.994 1.76 1.66c.968.667 1.76 1.34 1.76 1.496 0 .155.522.5 1.16.767.638.267 2.27 1.376 3.626 2.464 1.357 1.088 3.3 2.555 4.32 3.259 1.018.704 2.878 2.079 4.133 3.055s2.958 2.238 3.785 2.804c1.467 1.005 2.155 1.69 1.635 1.631-.143-.016-1.411-.884-2.819-1.928zm2.56-1.562c-.109-.176-.054-.32.122-.32s.41.144.518.32c.109.176.054.32-.122.32s-.41-.144-.518-.32zm-4.009-2.967c-1.315-.928-3.097-2.188-3.96-2.8a60.465 60.465 0 0 1-3.36-2.63c-.985-.835-1.927-1.519-2.094-1.52-.166-.002-.67-.345-1.12-.764-.45-.418-2.462-1.87-4.473-3.226a79.332 79.332 0 0 1-12.216-10.172c-2.05-2.086-2.962-2.801-3.577-2.801-.993 0-1.831-.762-1.831-1.664 0-.593.131-.637 1.343-.443 1.717.275 3.82 1.873 6.549 4.979 1.164 1.324 2.349 2.552 2.633 2.728.671.417 3.43 2.945 4.488 4.113.455.503 1.475 1.244 2.267 1.648 1.624.828 4.12 2.706 5.582 4.198 1.659 1.695 4.698 4.086 7.378 5.803 2.13 1.366 5.476 4.238 4.936 4.238-.084 0-1.23-.76-2.545-1.687zm3.764-.445c-.659-.469-1.136-.913-1.061-.988.143-.144 3.066 1.487 3.066 1.71 0 .373-.945.032-2.005-.722zm3.185-1.049c-2.132-1.185-3.164-1.939-2.653-1.939.506 0 5.313 2.638 5.313 2.916 0 .441-.321.323-2.66-.977zm-8.448-2.352a343.254 343.254 0 0 1-5.406-4.02c-1.703-1.294-3.832-2.83-4.731-3.412-.9-.582-2.571-2.024-3.715-3.203-1.144-1.18-2.855-2.668-3.803-3.308l-2.721-1.839c-.55-.371-1.845-1.638-2.879-2.816-1.288-1.468-2.477-2.443-3.779-3.1-2.167-1.094-2.437-1.977-.655-2.15 1.224-.118 1.263-.257.346-1.233-.533-.567-.623-.89-.393-1.404l.298-.669.847.666c.466.367 1.264.75 1.774.852.869.174 1.032.025 2.595-2.354 1.027-1.565 1.592-2.736 1.472-3.049-.108-.28-.868-.86-1.689-1.29-1.243-.65-1.735-.74-2.933-.542-2.057.34-2.392.54-2.979 1.771-.352.738-.68 1.04-1 .917-.328-.126-.54.098-.687.727-.116.5-.652 1.61-1.19 2.465-.619.986-1.254 2.744-1.734 4.8-.417 1.784-.896 3.82-1.066 4.524-.17.704-.458 2.216-.64 3.36-.425 2.673-.88 3.82-1.269 3.193-.361-.585-.321-.643-1.878 2.705-1.022 2.196-1.417 2.77-1.707 2.48-.513-.513-.89-.476-.89.087 0 1.208-1.317 2.805-1.863 2.259-.42-.42.039-3.576.717-4.93.406-.81.841-2.036.966-2.723.125-.688.649-2.142 1.164-3.231.515-1.09.934-2.328.932-2.751-.004-.802 1.349-5.21 3.036-9.889a22.84 22.84 0 0 0 .615-2.013l.212-.893-.954.493c-1.07.553-2.905.663-2.905.173 0-.176-.206-.32-.458-.32-.747 0-2.714-1.4-2.728-1.941-.007-.276.454-.93 1.026-1.454.572-.524 1.184-1.183 1.36-1.464.49-.784 8.98-4.018 11.2-4.268 1.056-.119 2.296-.437 2.756-.708.723-.425 1.2-.438 3.514-.1 3.002.439 3.4.605 5.345 2.228 1.954 1.63 2.625 2.913 2.625 5.018 0 3.003-1.661 5.371-5.693 8.117l-1.626 1.108 1.18 1.14c.648.626 1.957 2.051 2.909 3.166.95 1.115 2.167 2.294 2.703 2.62 1.013.616 4.066 3.129 7.192 5.918.998.891 2.94 2.538 4.316 3.66 2.274 1.855 3.35 3.055 3.03 3.376-.19.19-3.783-2.227-5.371-3.613a36.112 36.112 0 0 0-2.88-2.233c-.792-.537-1.728-1.296-2.08-1.687-.352-.392-1.302-1.048-2.11-1.458-.809-.41-1.718-1.123-2.02-1.584-.302-.46-1.08-1.323-1.73-1.916a220.502 220.502 0 0 1-2.716-2.542c-.845-.804-1.752-1.463-2.016-1.463-.263 0-1.372-.58-2.464-1.29-1.899-1.236-1.935-1.246-.846-.24.626.577 2.482 2.202 4.124 3.61 1.642 1.408 3.722 3.257 4.622 4.11.9.852 2.284 1.983 3.076 2.513.792.53 2.483 1.921 3.759 3.09l4.8 4.4c1.364 1.25 3.381 2.875 4.481 3.611 1.1.737 2 1.406 2 1.488 0 .362-.632.012-2.788-1.545zm2.838-1.18c-1.675-1.082-2.46-1.927-1.792-1.927.394 0 3.982 2.606 3.982 2.892 0 .445-.03.432-2.19-.965zm-40.37-5.611c0-.09.128-.415.286-.72.157-.306.472-.988.7-1.516.403-.93.42-.936.542-.203.07.416-.03.913-.22 1.104-.192.19-.348.606-.348.923 0 .317-.216.576-.48.576s-.48-.074-.48-.164zM7.196 39.764C4.278 38.719 0 35.654 0 34.609c0-.662 1.15-.389 1.944.461 1.403 1.502 3.456 2.493 5.112 2.468 4.383-.066 9.031-4.89 12.017-12.469 1.639-4.16 4.32-14.902 3.84-15.383-.073-.073-1.695.085-3.603.35-7.097.99-6.946.99-8.716-.028-.069-.04.06-.296.287-.57.346-.416.29-.627-.341-1.3l-.755-.803.708-.185c.766-.2.935-.62.33-.823-.211-.07-.286-.364-.17-.666.169-.442.65-.541 2.63-.541 1.333 0 3.462-.212 4.73-.47 1.27-.259 4.895-.847 8.057-1.308 3.163-.461 6.115-1.021 6.56-1.245C33.991 1.414 44.647-.26 45.053.147c.41.409-1.152 1.113-2.493 1.125-1.72.014-3.84.557-3.84.983 0 .168.288.305.64.305.352 0 .64.07.64.157 0 .364-2.054 2.083-2.49 2.083-.26 0-.923.274-1.472.61-.549.334-1.618.791-2.377 1.015-.758.224-1.513.659-1.677.965-.164.307-.722.65-1.24.765-.517.113-1.079.377-1.249.586-.17.208-.776 2.323-1.347 4.699-2.725 11.345-7.42 21.222-11.6 24.405-3.013 2.294-6.377 2.984-9.352 1.919ZM75.885 3.83c-.528-.033-1.132.225-1.687.78-.978.977-2.896 4.623-3.635 6.91-.313.968-.824 2.264-1.136 2.88-.687 1.359-2.68 6.711-3.158 8.48-.19.704-.341 2.576-.336 4.16.01 3.4.41 4.119 2.48 4.469 1.146.193 1.573.085 3.021-.765.928-.545 1.93-1.313 2.229-1.707a67.99 67.99 0 0 1 1.319-1.66l.775-.944.047 2.297c.026 1.263.184 2.655.35 3.094.365.958 1.66 1.36 2.764.856.436-.198.927-.36 1.093-.36.374 0-1.038 3.251-2.138 4.922-.684 1.04-.76 1.367-.467 2.012.295.647.454.715.993.426.353-.188.641-.497.641-.686 0-.188.205-.264.457-.168.25.097.63-.033.843-.29.212-.255.614-.427.893-.38.302.05.963-.573 1.637-1.544a99.798 99.798 0 0 1 2.465-3.36c.734-.953 2.232-3.46 3.329-5.572 2.124-4.09 2.98-5.28 3.797-5.28.28 0 1.056-.37 1.722-.824 1.41-.957 3.7-2.039 4.34-2.049.346-.005.398.329.235 1.513-.226 1.642.413 7.76.81 7.76.134 0 .328.54.432 1.2.105.66.395 1.887.646 2.727.25.84.375 1.928.277 2.418-.119.596-.01 1.03.329 1.312.28.232.508.61.508.843 0 .232.168.527.374.654.25.155.308.057.174-.294-.111-.288-.05-1.715.134-3.172.185-1.456.452-4.808.595-7.448.559-10.333 1.345-17.951 1.974-19.132.508-.955.016-1.786-1.192-2.013-.607-.114-1.46-.486-1.893-.827-1.053-.829-2.086-.333-2.086 1.001 0 .703-.33 1.198-1.36 2.043-.748.614-1.792 1.716-2.32 2.45-.528.734-1.794 2.294-2.814 3.466-1.02 1.172-2.353 3.02-2.961 4.106-.787 1.403-1.67 2.396-3.057 3.44-1.073.806-2.169 1.466-2.435 1.466-.352 0-.43.211-.286.78.107.43.05.87-.126.98-.646.398-.3.807.51.604.797-.2.769-.116-.697 2.088-1.178 1.773-1.68 2.276-2.191 2.202-.85-.121-1.006-1.17-.508-3.396.406-1.813.571-2.225 3.684-9.178 1.103-2.464 2.111-4.84 2.241-5.28.13-.44.458-1.053.73-1.363.392-.445.42-.713.136-1.28a5.484 5.484 0 0 1-.453-1.517c-.068-.584-.309-.825-.893-.893a5.564 5.564 0 0 1-1.541-.465c-1.063-.534-1.525-.118-2.926 2.638-2.075 4.081-2.621 5.386-3.048 7.285-.816 3.626-2.19 6.249-4.472 8.53-2.509 2.51-4.52 4.025-5.34 4.025-.904 0-.762-1.799.367-4.64.528-1.33.96-2.567.96-2.75 0-.183.36-.804.8-1.381.44-.577.8-1.342.8-1.7 0-.358.236-.846.524-1.085.288-.24.78-1.033 1.094-1.764.313-.731.725-1.426.915-1.543.19-.118.347-.565.347-.993 0-.429.648-1.82 1.44-3.093 1.527-2.455 1.711-3.147.994-3.742-.245-.204-.622-.797-.839-1.32-.25-.604-.702-.927-1.23-.96Zm22.713 7.95c.232-.018.312.215.147.78-.115.396-.297 1.2-.403 1.785-.135.74-.436 1.158-.985 1.367-.436.165-1.155.586-1.598.934-1.238.974-1.437.763-.687-.726 1.071-2.126 2.884-4.09 3.526-4.14zM44.502 5.203c-.845-.04-3.011.611-3.641 1.153-.42.362-.643.397-.809.128-.126-.203-.37-.27-.544-.147-.445.316-2.584 3.915-2.86 4.811-.126.412-.845 1.636-1.598 2.72-.752 1.085-2.078 3.34-2.946 5.012-1.3 2.5-1.79 3.144-2.762 3.626-1.316.653-1.508 1.149-.542 1.401.352.092.64.299.64.459 0 .391-1.965 4.272-3.92 7.743-1.444 2.562-2.484 5.352-2.466 6.611.005.336.196.254.636-.276.346-.415.63-.955.63-1.2 0-.244.16-.444.354-.444.195 0 .272.216.17.48-.404 1.054.314.381.863-.808.683-1.482 1.167-1.642 1.186-.392l.013.88.5-.96a27.98 27.98 0 0 1 1.245-2.08c.41-.616 1.485-2.992 2.39-5.28.904-2.288 1.886-4.396 2.181-4.685.296-.288 1.834-.99 3.418-1.56 1.584-.57 3.058-1.179 3.276-1.352.568-.452.68.056.862 3.917.326 6.939.65 8.706 1.305 7.12.176-.428.366-.182.804 1.04l.574 1.6.23-1.047c.268-1.212.71-1.613.985-.893.587 1.529.764-.297.765-7.9 0-4.62.153-10.397.338-12.836.293-3.876.272-4.506-.162-4.985-.273-.303-.497-.782-.497-1.065 0-.284-.155-.613-.345-.73a.596.596 0 0 0-.273-.06zM40.293 12l.014 2.932.013 2.933-2.268 1.308c-2.088 1.203-2.852 1.518-2.852 1.175 0-.531 3.223-6.233 4.055-7.174zM54.24 32.64c-.109-.176-.472-.32-.807-.32-.335 0-1.527-.858-2.649-1.907-2.344-2.194-2.963-3.626-3.297-7.631-.388-4.658 1.366-9.094 5.213-13.184 2.173-2.31 2.455-2.499 4.739-3.177 2.276-.676 2.495-.69 3.496-.214.587.278 1.304.867 1.593 1.31.29.441.742.803 1.005.803.36 0 .427.218.269.88-.31 1.296-.382 1.36-1.545 1.36-1.816 0-5.929 2.27-7.778 4.294-3.72 4.072-4.559 8.597-2.231 12.051 1.646 2.444 5.626 3.964 7.74 2.957l.972-.464.056-3.1c.03-1.703.103-3.528.16-4.053.101-.93.073-.952-1.166-.85-.698.059-2.102.526-3.12 1.04-1.017.514-1.85.788-1.85.61 0-.179.132-.325.294-.325.162 0 .6-.497.976-1.104.812-1.314 2.165-2.201 4.675-3.065 1.018-.35 2.1-.863 2.406-1.14.432-.39.701-.424 1.21-.152.359.192.839.312 1.066.265.587-.12.387 1.791-.594 5.676-.643 2.546-.781 3.756-.677 5.92.072 1.496.244 2.972.382 3.28.437.976-.375.622-1.674-.73l-1.24-1.29-1.412 1.29c-1.375 1.256-1.472 1.29-3.713 1.29-1.266 0-2.39-.144-2.499-.32z" transform="translate(0 -.084)"/>
        </g>
    </g>
</svg>
