<svg version="1.2" baseProfile="tiny" xmlns="http://www.w3.org/2000/svg" width="566.929" height="92.934" xml:space="preserve">
    <g fill="#686868">
        <path d="M162.729 4.833c3.574-4.573 10.968-5.354 15.352-1.521 1.792 1.512 3.048 3.597 3.689 5.837 8.115 27.926 16.267 55.834 24.372 83.762-4.791.003-9.582-.008-14.371.003-2.258-7.694-4.463-15.41-6.693-23.114-9.26-.027-18.519-.008-27.777-.011a4357.143 4357.143 0 0 0-6.733 23.13c-4.763-.021-9.525-.008-14.29-.011a60644.86 60644.86 0 0 1 23.175-79.901c.921-2.786 1.265-5.9 3.276-8.174m8.454 17.11c-3.396 11.568-6.723 23.16-10.098 34.734 6.73.03 13.458.011 20.186.011-3.368-11.581-6.72-23.163-10.088-34.745zM263.614 5.434c2.495-3.62 7.32-5.379 11.567-4.261 3.89.896 6.865 4.248 7.893 8.021 8.106 27.905 16.241 55.798 24.345 83.694-4.793.043-9.588 0-14.383.021-2.229-7.704-4.437-15.423-6.683-23.122-9.245.003-18.489-.021-27.733.006-2.21 7.713-4.487 15.405-6.698 23.113-4.759.003-9.517 0-14.274.003 7.704-26.78 15.501-53.539 23.268-80.305.817-2.417 1.13-5.081 2.698-7.17m-1.166 51.254c6.702.01 13.401.003 20.102.003-3.332-11.604-6.719-23.191-10.045-34.8-3.347 11.6-6.728 23.192-10.057 34.797zM195.418 1.034h51.97v14.018c-6.378.005-12.755-.007-19.131.005 0 25.952.004 51.902-.003 77.854h-13.706c0-25.951-.004-51.901.004-77.854-6.379-.012-12.755 0-19.133-.005-.001-4.673-.004-9.344-.001-14.018zM322.652 1.604c1.316-.455 2.721-.608 4.111-.577 5.461.021 10.922.005 16.389.009 9.197.168 17.979 5.88 21.961 14.157 2.756 5.377 3.041 11.633 2.344 17.53-.475 6.176-3.068 12.35-7.814 16.44-2.508 2.236-5.631 3.592-8.313 5.578-1.475 1.126-1.545 3.302-.785 4.859 7.25 11.194 14.789 22.207 22.189 33.309-5.412.011-10.824-.016-16.238.011-7.088-10.646-14.104-21.344-21.16-32-2.074-3.031-2.637-7.051-1.396-10.518.971-2.652 3.293-4.599 5.877-5.599 4.936-1.882 9.799-4.842 12.533-9.498 2.076-3.503 1.973-7.816 1.039-11.647-1.098-4.974-5.943-8.89-11.061-8.716-3.543.024-7.08-.021-10.615.018-1.6-.037-3.105 1.353-3.086 2.979-.018 24.99.01 49.985-.006 74.979-4.605-.008-9.203 0-13.809-.008-.01-26.902.01-53.814-.01-80.719.024-4.716 3.377-9.154 7.85-10.587zM379.968 1.034h14.529c-.006 30.63.004 61.251-.01 91.876-4.84-.013-9.68 0-14.521-.003.002-30.625.002-61.246.002-91.873zM40.963.865c2.326-.009 4.651 0 6.981-.006.008 5.472 0 10.942.003 16.41.021 4.567-.106 9.131-.295 13.694-.312 6.586-.725 13.188-1.814 19.696-.75 4.486-2.305 8.819-4.229 12.932-3.142 6.622-8.081 12.226-13.632 16.938-4.964 4.37-10.892 7.555-17.126 9.701C7.324 91.455 3.694 92.386 0 92.91c.003-4.588.003-9.181 0-13.767 4.449-.67 8.726-2.249 12.696-4.337 4.712-2.492 8.954-5.841 12.526-9.794 3.688-4.077 6.626-8.801 8.856-13.813 2.627-5.765 4.033-11.994 4.989-18.229 1.198-7.927 1.697-15.951 1.882-23.958.03-2.713.007-5.429.014-8.147zM50.75.875C55.033.847 59.315.872 63.6.865v92.042c-4.274.011-8.547-.021-12.82.021-.052-9.781-.007-19.571-.022-29.351-.006-20.899.008-41.799-.008-62.702zM66.458.865c2.315-.006 4.627-.009 6.939 0-.076 9.354.244 18.729 1.358 28.021.913 7.22 2.201 14.494 5.076 21.218 2.725 6.505 6.654 12.555 11.774 17.433 4.892 4.663 10.814 8.248 17.252 10.309a35.327 35.327 0 0 0 5.501 1.299c-.001 4.586-.004 9.171 0 13.757-3.669-.499-7.267-1.444-10.769-2.636-4.169-1.449-8.202-3.329-11.907-5.742-2.704-1.731-5.163-3.814-7.524-5.985-3.894-3.595-7.377-7.67-9.996-12.294-2.046-3.6-3.54-7.486-4.711-11.448-1.073-3.983-1.528-8.107-1.945-12.201-.805-8.855-1.106-17.753-1.05-26.64.002-5.033 0-10.061.002-15.091z"/>
        <path d="M50.75.875c.015 20.9.003 41.803.008 62.7.014 9.778-.032 19.565.022 29.352 4.272-.039 8.547-.01 12.82-.021V.859c-4.283.013-8.566-.011-12.85.016M66.458.865c-.002 5.026 0 10.058 0 15.085-.057 8.884.245 17.781 1.05 26.64.417 4.094.872 8.218 1.945 12.201 1.169 3.962 2.665 7.851 4.711 11.448 2.618 4.622 6.102 8.699 9.996 12.294 2.363 2.174 4.82 4.254 7.524 5.985 3.705 2.413 7.738 4.29 11.907 5.742 3.501 1.189 7.1 2.134 10.769 2.636-.004-4.586-.001-9.171 0-13.757-1.867-.272-3.706-.728-5.501-1.299-6.438-2.061-12.361-5.646-17.252-10.309-5.12-4.872-9.049-10.926-11.774-17.433-2.875-6.724-4.163-13.998-5.076-21.218-1.115-9.291-1.434-18.666-1.358-28.021-2.315-.001-4.628.002-6.941.006M432.912 59.248l1.672 1.313c5.854 4.538 12.9 8.242 20.426 8.242 3.229 0 8.361-1.313 8.361-5.377 0-4.061-4.301-4.418-7.285-5.016l-6.572-1.193c-12.777-2.27-23.527-9.797-23.527-23.893C425.982 11.945 445.455 0 465.044 0c10.27 0 19.707 2.508 28.547 7.884l-8.84 23.054c-5.613-3.819-11.943-6.808-18.99-6.808-2.867 0-7.049 1.073-7.049 4.776 0 3.346 4.063 3.821 6.568 4.419L472.687 35c13.855 3.104 23.891 10.511 23.891 25.801 0 21.5-19.59 32.133-39.061 32.133-11.35 0-24.486-3.105-34.641-8.243l10.036-25.443zM498.126 1.433h68.803V26.7l-18.037.051V91.5h-32.729V26.75l-18.037-.05V1.433z"/>
    </g>
</svg>
