<?xml version="1.0" encoding="UTF-8" standalone="no"?>
<!-- Created by ERK -->

<svg
   width="1014.58"
   height="273.43448"
   version="1.1"
   id="svg9"
   sodipodi:docname="atlus-w.svg"
   inkscape:version="1.3.2 (091e20e, 2023-11-25, custom)"
   xmlns:inkscape="http://www.inkscape.org/namespaces/inkscape"
   xmlns:sodipodi="http://sodipodi.sourceforge.net/DTD/sodipodi-0.dtd"
   xmlns="http://www.w3.org/2000/svg"
   xmlns:svg="http://www.w3.org/2000/svg">
  <defs
     id="defs9" />
  <sodipodi:namedview
     id="namedview9"
     pagecolor="#ffffff"
     bordercolor="#000000"
     borderopacity="0.25"
     inkscape:showpageshadow="2"
     inkscape:pageopacity="0.0"
     inkscape:pagecheckerboard="true"
     inkscape:deskcolor="#d1d1d1"
     inkscape:zoom="1.4142136"
     inkscape:cx="656.90218"
     inkscape:cy="216.02112"
     inkscape:window-width="2560"
     inkscape:window-height="1351"
     inkscape:window-x="-9"
     inkscape:window-y="-9"
     inkscape:window-maximized="1"
     inkscape:current-layer="svg9" />
  <g
     id="g27"
     inkscape:label="AtlusOutline"
     style="display:inline;fill:#ffffff;stroke:#ffffff;stroke-width:7.55906"
     transform="translate(6.9648437,2.5800788)">
    <path
       d="m 175.27344,-2.578125 h -6.60938 L -6.9648437,268.4707 H 63.228516 L 130.01562,165.46875 h 45.25782 z"
       style="stroke:none;stroke-width:141.713"
       id="path45"
       inkscape:label="A" />
    <path
       id="path30"
       style="stroke:none;stroke-width:16.876"
       d="m 176.07616,-2.578 v 271.0741 h 59.21095 V -2.5781174 h -3.7793 z"
       sodipodi:nodetypes="cccccc"
       inkscape:label="A" />
    <path
       id="path32"
       style="stroke:none;stroke-width:141.713"
       d="M 242.09766,-2.5625006 V 58.806641 l 79.41992,-0.0371 60.38086,-61.3320315 z"
       inkscape:label="T" />
    <path
       id="path34"
       style="stroke:none;stroke-width:141.713"
       d="m 383.5293,-2.5800788 -65.25,66.8984378 V 268.49023 h 64.0039 V 58.789063 h 69.13282 V -2.5800788 Z"
       inkscape:label="T" />
    <path
       id="path36"
       style="stroke:none;stroke-width:141.713"
       d="M 458.37109,-2.5605468 V 268.47267 h 132.99024 v -64.0801 H 519.55664 V -2.5605468 Z"
       inkscape:label="L" />
    <path
       id="path38"
       style="stroke:none;stroke-width:141.713"
       d="M 595.37305,-2.5605468 V 170.56055 c 0.32613,25.14251 13.35316,55.14788 36.43164,75.46484 11.53924,10.15847 25.71207,17.78156 41.96289,20.94532 16.25081,3.16377 34.58035,1.86313 54.44922,-5.85939 l 2.41601,-0.95124 v -76.41797 l -6.66406,7.87306 c -10.41235,12.26537 -28.17051,16.59349 -42.98828,11.71678 -14.81778,-4.87672 -26.95469,-18.41021 -26.47266,-43.90429 v -0.0352 -161.9531218 z"
       inkscape:label="U" />
    <path
       id="path40"
       style="stroke:none;stroke-width:16.876"
       d="M 731.23047,-2.5781174 V 268.47851 h 61.68164 V -2.5781174 Z"
       inkscape:label="U" />
    <path
       id="path42"
       style="stroke:none;stroke-width:141.713"
       d="M 837.66016,-2.5605468 812.53125,40.320313 c -5.04889,6.467062 -8.19862,16.558097 -9.2168,28.447265 -1.0367,12.105478 0.27747,26.048454 5.19922,39.435552 9.84353,26.77418 34.72773,51.12627 81.87305,52.03125 h 0.0371 29.95117 c 16.1962,3.55935 21.93836,14.80927 20.58009,25.11914 -1.36566,10.36585 -9.86643,19.84932 -26.18164,19.03905 h -0.10938 -115.04882 v 64.0801 h 115.56054 0.0742 c 56.52428,-1.84963 86.98622,-44.02392 88.20902,-85.60939 0.6114,-20.79273 -5.96383,-41.55806 -20.02933,-57.19531 -14.06555,-15.63721 -35.62485,-25.92383 -64.15234,-25.92383 l -30.9043,-0.841801 c -11.21434,-0.816829 -17.1751,-6.052855 -19.99217,-12.523436 -2.81707,-6.470579 -2.13508,-14.458966 1.46484,-20.285156 l 0.0371,-0.03712 40.09375,-68.617187 z"
       inkscape:label="S" />
    <path
       id="path44"
       style="stroke:none;stroke-width:141.713"
       d="M 912.41211,-2.5605468 875.83399,59.027343 h 95.56835 l 36.21286,-61.5878898 z"
       inkscape:label="S" />
  </g>
  <g
     id="g19"
     inkscape:label="Atlus"
     transform="translate(6.9648437,2.5800788)">
    <path
       style="fill:#3163b7;fill-opacity:1;fill-rule:nonzero;stroke:none"
       d="m 0,0 -9.148,-14.119 h 3.264 l 3.562,5.495 H 0 Z"
       transform="matrix(18.74751,0,0,-18.74751,171.502,0)"
       id="path6"
       inkscape:label="A" />
    <path
       style="fill:#3163b7;fill-opacity:1;fill-rule:nonzero;stroke:none"
       d="M 319.799,629.602 H 296.664 V 747.634 H 319.8 V 629.602 Z"
       transform="matrix(2.23256,0,0,2.23256,-482.463,-1404.42)"
       id="path7"
       inkscape:label="A" />
    <path
       style="fill:#ed1c24;fill-opacity:1;fill-rule:nonzero;stroke:none"
       d="m 0,0 2.823,2.869 h -6.774 v -2.87 z"
       transform="matrix(18.74751,0,0,-18.74751,319.943,54.998)"
       id="path9"
       inkscape:label="T" />
    <path
       style="fill:#ed1c24;fill-opacity:1;fill-rule:nonzero;stroke:none"
       d="m 0,0 v 2.87 h -3.334 l -3.364,-3.449 v -10.606 h 3.01 V 0.001 Z"
       transform="matrix(18.74751,0,0,-18.74751,447.644,55.017)"
       id="path8"
       inkscape:label="T" />
    <path
       style="fill:#3163b7;fill-opacity:1;fill-rule:nonzero;stroke:none"
       d="m 0,0 h -2.861 v -14.055 h 6.69 v 3.015 H 0 Z"
       transform="matrix(18.74751,0,0,-18.74751,515.785,1.21)"
       id="path1"
       inkscape:label="L" />
    <path
       style="fill:#3163b7;fill-opacity:1;fill-rule:nonzero;stroke:none"
       d="m 0,0 h -2.752 v -9.031 c 0.033,-2.544 2.698,-6.243 6.812,-4.644 v 3.389 C 2.835,-11.729 -0.054,-11.292 0,-8.436 Z"
       transform="matrix(18.74751,0,0,-18.74751,650.736,1.21)"
       id="path2"
       inkscape:label="U" />
    <path
       style="fill:#3163b7;fill-opacity:1;fill-rule:nonzero;stroke:none"
       d="m 545.326,747.626 h 24.243 V 629.602 h -24.243 z"
       transform="matrix(2.23256,0,0,2.23256,-482.463,-1404.42)"
       id="path3"
       inkscape:label="U" />
    <path
       style="fill:#3163b7;fill-opacity:1;fill-rule:nonzero;stroke:none"
       d="m 0,0 h -3.391 l -1.284,-2.193 c -0.939,-1.162 -0.911,-5.993 3.986,-6.087 h 1.628 c 1.915,-0.408 1.571,-2.855 -0.342,-2.76 h -5.931 v -3.015 h 5.96 c 5.837,0.191 6.116,8.598 0.221,8.598 l -1.662,0.045 c -1.318,0.096 -1.601,1.319 -1.145,2.057 z"
       transform="matrix(18.74751,0,0,-18.74751,903.386,1.21)"
       id="path4"
       inkscape:label="S" />
    <path
       style="fill:#3163b7;fill-opacity:1;fill-rule:nonzero;stroke:none"
       d="M 0,0 -1.712,-2.883 H 2.916 L 4.61,0 Z"
       transform="matrix(18.74751,0,0,-18.74751,914.573,1.21)"
       id="path5"
       inkscape:label="S" />
  </g>
</svg>
