<svg height="576.602" viewBox="0 0 495.59 91.536" width="3121.83" xmlns="http://www.w3.org/2000/svg" xmlns:xlink="http://www.w3.org/1999/xlink">
    <linearGradient id="a">
        <stop offset="0" stop-color="#f36917"/>
        <stop offset=".5" stop-color="#c24a13"/>
        <stop offset="1" stop-color="#682c19"/>
    </linearGradient>
    <linearGradient id="c" gradientTransform="rotate(-90 -64.778 -285.112) scale(177.22168)" gradientUnits="userSpaceOnUse" spreadMethod="pad" x1="0" x2="1" xlink:href="#a" y1="0" y2="0"/>
    <linearGradient id="b">
        <stop offset="0" stop-color="#f0f9e8"/>
        <stop offset=".511" stop-color="#599b77"/>
        <stop offset="1" stop-color="#458055"/>
    </linearGradient>
    <linearGradient id="d" gradientTransform="scale(-106.23472) rotate(-89.92 1.115 3.664)" gradientUnits="userSpaceOnUse" spreadMethod="pad" x1="0" x2="1" xlink:href="#b" y1="0" y2="0"/>
    <linearGradient id="e" gradientTransform="rotate(-90 -46.358 -352.191) scale(91.23962)" gradientUnits="userSpaceOnUse" spreadMethod="pad" x1="0" x2="1" xlink:href="#a" y1="0" y2="0"/>
    <linearGradient id="f" gradientTransform="rotate(90 421.633 -85.217) scale(104.76566)" gradientUnits="userSpaceOnUse" spreadMethod="pad" x1="0" x2="1" xlink:href="#b" y1="0" y2="0"/>
    <linearGradient id="g" gradientTransform="rotate(-90 -19.184 -392.85) scale(77.85007)" gradientUnits="userSpaceOnUse" spreadMethod="pad" x1="0" x2="1" xlink:href="#a" y1="0" y2="0"/>
    <g stroke-width=".683">
        <path d="M187.667-350.224 230.5-527.112l22.5 90.555-21.333 86.667-44-.334z" fill="url(#c)" transform="translate(-96.93 272.254) scale(.5165)"/>
        <path d="M230.5-527.112H274l37.334 146.89h-44L230.5-527.112z" fill="url(#d)" transform="translate(-96.93 272.254) scale(.5165)"/>
        <path d="m300.332-509.667 22.002 85.446-11 44-22.001-87 10.999-42.446z" fill="url(#e)" transform="translate(-96.93 272.254) scale(.5165)"/>
        <path d="m300.332-509.667 28.735 111.666H372.5l-29.23-111.666z" fill="url(#f)" transform="translate(-96.93 272.254) scale(.5165)"/>
        <path d="m397-492.223-24.5 94.222-22.166-84.555 3.333-9.667z" fill="url(#g)" transform="translate(-96.93 272.254) scale(.5165)"/>
    </g>
    <g fill="#fff" stroke-width=".296">
        <path d="M163.892 59.212c-1.38-1.984-1.568-3.024 5.571-27.606-12.016.099-13.108 0-13.108 0l2.383-6.467h34.956l-1.986 6.467h-10.725s.01.047-7.945 28.822c-6.96-.025-8.022.398-9.146-1.216zM207.994 31.21l-6.355 23.435h6.355l6.356-23.436zm18.066-4.572c1.186 1.791.595 2.781-8.135 33.79-27.02.173-26.425-.025-27.815-1.614-1.575-1.8-.596-2.988 7.954-33.675 27.458.004 26.813-.286 27.996 1.499zM225.473 60.428c-.687-.568.894-2.443 9.534-35.289 43.844-.145 41.46-.584 42.95 1.65.852 1.278.736 2.033-7.597 33.639-14.3-.122-12.215 0-12.215 0l7.15-30.41h-4.071l-7.945 30.41h-12.314l8.342-30.41h-3.973l-8.341 30.41zM276.467 59.114c-.446-1.639 0-1.349 8.591-33.975 12.413-.294 11.916 0 11.916 0s-.406 2.095-9.93 35.289c-8.491-.122-10.155.234-10.577-1.314zM293.797 60.428l1.887-6.64h18.918s.248-1.327 2.631-10.265c-17.08-.05-17.537.797-18.868-1.39-.605-.997.19-1.799 4.17-16.994 26.606.1 31.382 0 31.382 0l-1.589 5.672-17.875.15s-.209-.35-2.384 6.604c17.876-.05 17.125.093 18.025.992 1.34 1.34.894 2.086-4.52 21.87-33.566.177-31.777 0-31.777 0zM340.372 25.14c-9.831 33.418-9.592 33.006-8.49 34.42 1.042 1.342 2.68.775 44.539.897 8.342-32.298 9.334-35.318 9.334-35.318h-12.313L364.9 56.036h-4.37l8.54-30.897h-11.916l-8.54 30.698h-4.37l8.541-30.698h-12.414zM420.514 25.14c4.569 33.072 4.718 33.428 5.76 34.47.894.895.943.845 23.883.845 8.49-33.517.447-1.796 8.888-35.316H446.73l-7.3 30.351h-2.63l-3.576-30.35s-3.029-.146-12.711 0zM495.59 25.14s-1.34.003-30.189 0c-8.69 33.966-8.69 33.798-7.945 34.719s1.788.596 30.19.569c.645-4.144.794-6.23.794-6.23h-18.322l2.433-10.278 16.038-.15 1.44-6.205h-15.89l1.788-6.754H494.4l1.191-5.672zM401.446 30.923l-3.53 13.37h8.238l-1.073-13.37zm18.67 29.534h-12.314l-1.093-8.791h-9.634l-2.58 8.791h-12.117s.001-1.054 9.733-35.318c19.912-.147 20.657-.137 21.7 1.65.893 1.34 1.049 3.336 6.305 33.668zM138.479 30.923l-3.531 13.37h8.238l-1.073-13.37zm18.669 29.534h-12.314l-1.093-8.791h-9.633l-2.58 8.791H119.41s.002-1.054 9.733-35.318c19.912-.147 20.657-.137 21.7 1.65.893 1.34 1.05 3.336 6.305 33.668z"/>
    </g>
</svg>
