<?xml version="1.0" encoding="UTF-8" standalone="no"?>
<!-- Created by ERK -->

<svg
   width="226.21455mm"
   height="44.528801mm"
   viewBox="0 0 226.21455 44.528801"
   version="1.1"
   id="svg1"
   inkscape:version="1.4 (86a8ad7, 2024-10-11)"
   sodipodi:docname="atom.svg"
   xmlns:inkscape="http://www.inkscape.org/namespaces/inkscape"
   xmlns:sodipodi="http://sodipodi.sourceforge.net/DTD/sodipodi-0.dtd"
   xmlns="http://www.w3.org/2000/svg"
   xmlns:svg="http://www.w3.org/2000/svg">
  <sodipodi:namedview
     id="namedview1"
     pagecolor="#ffffff"
     bordercolor="#000000"
     borderopacity="0.25"
     inkscape:showpageshadow="2"
     inkscape:pageopacity="0.0"
     inkscape:pagecheckerboard="true"
     inkscape:deskcolor="#d1d1d1"
     inkscape:document-units="mm"
     inkscape:zoom="2.3294743"
     inkscape:cx="394.93889"
     inkscape:cy="84.353795"
     inkscape:window-width="3840"
     inkscape:window-height="2066"
     inkscape:window-x="-11"
     inkscape:window-y="-11"
     inkscape:window-maximized="1"
     inkscape:current-layer="g1" />
  <defs
     id="defs1" />
  <g
     id="g1"
     inkscape:label="Logo"
     transform="translate(124.08964,38.364586)">
    <path
       d="m -111.41042,-15.743697 -12.54166,-0.05292 -0.0375,-0.3175 c -0.0521,-0.433333 0.17417,-3.276665 0.35333,-4.444998 0.0804,-0.52375 0.17417,-1.166667 0.20834,-1.42875 0.15916,-1.216666 0.78333,-3.735416 1.33791,-5.397498 0.57625,-1.727083 1.14292,-3 2.0425,-4.587916 0.8325,-1.469999 1.44792,-2.301249 2.54667,-3.439165 1.19,-1.232083 2.37125,-2.03125 3.73458,-2.52625 1.53833,-0.456666 2.86583,-0.61 4.31417,-0.139166 1.635,0.539999 2.58333,1.149166 4.03249,2.590832 1.94709,1.937083 3.5325,4.724166 4.75959,8.366665 0.740413,2.197916 1.337496,5.237498 1.63208,8.307497 0.125833,1.309583 0.212916,2.547916 0.19375,2.751666 l -0.03458,0.370833 z"
       fill="#52ad67"
       id="path6"
       inkscape:label="Acorn"
       style="stroke-width:0.416667" />
    <path
       d="m -100.5175,5.5042137 c -0.49042,-0.3629165 -1.16209,-0.8274998 -1.4925,-1.032083 -0.99875,-0.6187499 -2.02084,-1.2341663 -2.46834,-1.4862496 -0.50625,-0.2849999 -3.73791,-1.9020828 -3.80124,-1.9020828 -0.0242,0 -0.27459,-0.10249998 -0.55584,-0.22791662 -0.28125,-0.12541663 -0.56833,-0.23999993 -0.63833,-0.25416659 -0.0696,-0.015 -0.33167,-0.12124997 -0.58208,-0.23708327 -0.25,-0.1158333 -0.8125,-0.3387499 -1.24875,-0.49583319 a 241.47993,241.47993 0 0 1 -1.32292,-0.47916653 c -0.78458,-0.28833326 -3.00833,-0.9604164 -5.02708,-1.5187496 -0.63667,-0.1762499 -2.91583,-0.6733331 -3.75708,-0.8191664 -1.93917,-0.3370833 -2.55125,-0.4599999 -2.63292,-0.5295832 -0.0508,-0.04375 -0.0596,-0.2533333 -0.02,-0.4666665 l 0.0729,-0.3874999 0.54916,0.070833 c 0.84792,0.1083333 2.90625,0.4641665 3.67084,0.6341665 0.37875,0.08375 1.28333,0.2762499 2.01124,0.4270832 2.09084,0.4337499 2.36125,0.4941665 2.69875,0.6008332 0.17459,0.055417 0.57917,0.1441666 0.89959,0.1970832 0.32041,0.052917 0.82,0.1625 1.11125,0.2425 l 0.52916,0.1458333 0.0333,-0.3666666 c 0.0183,-0.2016666 0.0104,-0.3899999 -0.0175,-0.4179166 -0.0279,-0.027917 -0.42417,-0.09875 -0.88,-0.1570832 -5.48917,-0.9854164 -10.67375,-5.8104151 -10.70375,-11.4216635 l 0.0321,-0.67875 h 25.294163 l -0.01667,1.11125 c -0.02917,1.880416 -0.681666,3.716666 -2.049993,5.7679149 -0.51959,0.7791665 -2.37084,2.577916 -3.24584,3.1554158 -1.55333,1.023333 -3.76958,1.8916661 -5.18416,2.0299994 -1.13542,0.1108333 -1.09208,0.0775 -1.09208,0.8520831 0,0.6549998 0.0104,0.6812498 0.29083,0.7416665 0.85292,0.1841666 4.87625,1.62208286 6.4825,2.316666 1.97166,0.8524998 2.46041,1.0799997 4.49791,2.0941661 2.349166,1.1699997 3.032499,1.5645829 2.981666,1.7216662 -0.04458,0.1374999 -3.106666,1.4291662 -3.387499,1.4291662 -0.07625,0 -0.540417,-0.2970832 -1.030827,-0.6599998 z"
       fill="#38894b"
       id="path8"
       inkscape:label="Acorn"
       style="stroke-width:0.416667" />
    <path
       d="m -95.927921,-6.7536995 4.289582,0.00583 5.448748,-6.9091645 9.121665,0.04583 -0.02792,6.9691648 h 4.366665 l 0.499583,-25.3999928 -3.991665,4.17e-4 z m 12.73208,-10.6454135 6.695831,-9.086664 -0.461667,9.259997 z"
       fill="#52ad67"
       id="path10"
       inkscape:label="A"
       style="stroke-width:0.416667" />
    <path
       d="m -46.366685,-25.077028 -0.03333,-0.06625 q -0.695834,-1.227916 -1.491667,-2.223332 -0.796249,-1.029167 -2.255416,-2.0575 -1.790833,-1.294166 -3.780832,-1.824999 -1.989583,-0.564584 -3.714166,-0.564584 -2.520416,0 -4.841665,0.9625 -2.288333,0.929167 -4.045832,2.687916 -1.758333,1.725833 -2.752916,4.048749 -0.995,2.289999 -0.995,4.944999 0,2.554999 0.961667,4.911248 0.994999,2.322916 2.719582,4.114999 1.7575,1.7920829 4.045832,2.8208326 2.321666,0.9958331 4.874999,0.9958331 1.4925,0 3.017916,-0.3654166 1.558749,-0.3649999 3.017916,-1.1279163 1.492499,-0.7966665 2.819166,-2.0579161 1.326249,-1.2608327 2.287916,-2.9866657 h -4.410416 q -1.293333,1.526666 -3.051249,2.389583 -1.724583,0.8624993 -3.647916,0.8624993 -1.757499,0 -3.415832,-0.7300003 -1.658333,-0.729999 -2.918332,-2.057499 -1.260417,-1.3275 -1.99,-3.052916 -0.729166,-1.758749 -0.729166,-3.683332 0,-1.925 0.695833,-3.617499 0.696666,-1.725833 1.957083,-3.019999 1.259999,-1.294166 2.918332,-2.024166 1.69125,-0.730417 3.548332,-0.730417 1.359583,0 2.4875,0.365 1.127499,0.365417 1.956666,0.929167 0.862083,0.531249 1.359583,1.029166 0.530416,0.4975 1.027916,1.061666 l 0.06667,0.06667 z m 26.331243,6.001665 q 0,-2.583332 -0.96875,-4.901248 -0.968333,-2.35125 -2.738333,-4.106666 -1.736249,-1.787916 -4.107082,-2.781666 -2.337499,-0.993333 -5.042499,-0.993333 -2.771249,0 -5.142081,1.026667 -2.370833,1.026249 -4.107499,2.814582 -1.73625,1.788333 -2.67125,4.106666 -0.934999,2.284999 -0.934999,4.768748 0,2.484166 0.968333,4.802082 0.968333,2.318333 2.704582,4.106666 1.77,1.7883326 4.140833,2.814999 2.370832,0.9933331 5.042081,0.9933331 2.671666,0 5.042499,-0.9933331 2.370833,-1.0266664 4.107082,-2.814999 1.77,-1.788333 2.738333,-4.073332 0.968333,-2.285416 0.968333,-4.769166 z m -3.606666,0.03333 q 0,1.490416 -0.567917,3.145832 -0.567499,1.622916 -1.736249,3.047083 -1.135416,1.390832 -2.904999,2.284999 -1.77,0.8612496 -4.040833,0.8612496 -2.270832,0 -4.040415,-0.8612496 -1.73625,-0.860833 -2.904999,-2.284999 -1.16875,-1.424167 -1.73625,-3.08 -0.567916,-1.655832 -0.567916,-3.212499 0,-1.523333 0.567916,-3.179165 0.5675,-1.655833 1.702916,-3.08 1.16875,-1.423749 2.938333,-2.284999 1.769999,-0.894166 4.040415,-0.894166 2.204167,0 3.940416,0.861249 1.77,0.827917 2.938749,2.252083 1.16875,1.390833 1.769583,3.079583 0.60125,1.655832 0.60125,3.344999 z m 21.7224938,12.3304128 -7.019998,-9.2008308 q 0.8141664,0 1.9670827,-0.3 1.1874997,-0.333333 2.374166,-1.133333 1.220833,-0.800416 2.0349995,-2.333749 0.8137497,-1.533333 0.8137497,-3.800416 0,-1.633333 -0.5762498,-3.199999 -0.5766665,-1.567083 -1.7299995,-2.634166 -1.0849997,-1 -2.6449993,-1.533333 -1.5262495,-0.533333 -4.0362491,-0.533333 h -7.766664 v 24.6691598 h 3.662915 V -18.146196 h 0.06792 l 8.2749977,11.4345798 z M -14.841277,-28.08036 h 3.866665 q 1.4920832,0 2.5433329,0.4 1.0854164,0.4 1.7299996,1.099999 0.6779164,0.666667 0.983333,1.466667 0.3054166,0.799999 0.3054166,1.633332 0,1.667083 -0.8141664,2.700416 -0.7799998,1 -1.9333328,1.466667 -1.1529164,0.433333 -2.2041659,0.566666 -1.051667,0.1 -1.967083,0.1 h -2.509999 z M 19.942046,-6.7116162 V -31.381193 h -3.558332 v 18.768328 h -0.06625 L 4.4562173,-31.380776 H 0.56830176 V -6.7116162 H 4.1266341 V -25.780361 h 0.065833 L 16.252047,-6.7116162 Z"
       fill="#52ad67"
       id="path12"
       style="stroke-width:0.286667"
       inkscape:label="corn" />
    <path
       d="m 27.558711,-14.186614 h 11.181663 l 3.207083,7.4958311 H 42.87204 L 33.712876,-28.190777 h -1.126667 l -9.159164,21.4999941 h 0.924583 z m 5.576248,-13.190413 5.229582,12.40583 H 27.934127 Z m 8.353748,-0.801667 v 0.784167 h 5.743748 v 20.7037441 h 0.857083 V -27.394527 h 5.743749 v -0.784167 z m 12.88833,10.744164 q 0,2.352083 0.843333,4.413749 0.8725,2.061249 2.413749,3.5712489 1.54125,1.4812496 3.576666,2.3233327 2.035416,0.8124998 4.332915,0.8124998 2.297083,0 4.332499,-0.8124998 2.035833,-0.8420831 3.577082,-2.3520827 1.540833,-1.5099999 2.384166,-3.5424989 0.8725,-2.061666 0.8725,-4.413749 0,-2.352083 -0.8725,-4.413749 -0.843333,-2.061666 -2.384166,-3.542499 -1.541666,-1.509999 -3.577082,-2.322916 -2.035416,-0.842083 -4.332499,-0.842083 -2.297499,0 -4.333332,0.841667 -2.034999,0.813333 -3.576249,2.323332 -1.541666,1.480833 -2.413749,3.542499 -0.843333,2.061666 -0.843333,4.413749 z m 0.872499,0 q 0,-2.177916 0.785,-4.065415 0.814167,-1.916667 2.21,-3.309999 1.424999,-1.422917 3.286249,-2.177917 1.889999,-0.784166 4.012499,-0.784166 2.122916,0 3.984165,0.784166 1.89,0.755 3.285833,2.177917 1.424999,1.393749 2.209999,3.309999 0.814166,1.887499 0.814166,4.065415 0,2.1775 -0.814166,4.094166 -0.785,1.887499 -2.209999,3.310415 -1.395833,1.39375 -3.285833,2.1774998 -1.861249,0.7549998 -3.983749,0.7549998 -2.122916,0 -4.012915,-0.7549998 -1.86125,-0.7837498 -3.286249,-2.1774998 -1.395833,-1.422916 -2.21,-3.310415 -0.785,-1.916666 -0.785,-4.094166 z m 25.647493,-10.743747 h -1.395833 v 21.4874941 h 0.8725 V -27.307444 h 0.05833 L 90.58036,-6.6907829 h 0.494166 L 101.19411,-27.307444 h 0.0583 -0.0292 0.0292 v 20.6166611 h 0.8725 V -28.178277 h -1.36667 l -9.916244,20.0937445 z"
       fill="#38894b"
       id="path14"
       style="fill:#000000;stroke-width:0.286667"
       inkscape:label="Atom" />
  </g>
</svg>
