<svg height="150.652" viewBox="0 0 671.533 120.521" width="839.416" xmlns="http://www.w3.org/2000/svg">
    <text fill="#ef00eb" font-family="TrasksHand" font-size="15.607" stroke="#0105ff" stroke-width="19.508" x="-1305.24" y="969.032" transform="translate(149.667 -5.646) scale(.10252)"><tspan fill="#fafafa" fill-opacity=".4" stroke="none" x="-1305.24" y="969.032">John Loreth 2022</tspan></text>
    <path d="M31.11 24.04h621.04c12.354 0 21.466 9.132 18.969 18.453l-8.983 32.75c-2.25 8.205-11.308 15.357-19.817 15.357H15.705C7.197 90.6-1.903 83.448.347 75.242L10.18 39.4c1.918-6.992 9.327-15.358 20.931-15.358z" fill="#2285c8"/>
    <path d="M89.157 0h275.155c15.63 0 30.89 16.576 25.817 35.072l-11.782 42.954c-8.052 30.051-28.319 41.984-44.44 42.495H59.787c-15.406 0-31.884-12.951-27.809-27.809l17.41-63.472C53.671 13.255 75.413.465 89.157 0z" fill="#050608"/>
    <g fill="#fff" stroke-width="24.385">
        <path d="M394.827 59.375q.089-.75.241-1.55.152-.801.532-2.302.317-1.251.948-2.552.681-1.301 2.435-4.053 1.803-2.752 5.596-5.404 3.804-2.702 6.688-3.753 2.896-1.1 6.496-1.4h.906q.453 0 .919-.05.705 0 1.044.05 2.467 0 4.354.7 1.9.65 3.936 2.151 2.1 1.451 3.092 3.103 1.004 1.6 1.556 3.002.602 1.4.788 3.252.186 1.851-.056 3.803-.23 1.901-.533 3.102-.848 3.352-2.98 6.405-2.08 3.052-3.933 4.803-1.79 1.701-3.932 3.002-2.09 1.301-3.728 2.002-1.637.7-3.425 1.2-1.725.45-3.625.6-1.9.151-3.663.151l-2.529-.35q-2.97-.6-4.943-1.752-1.912-1.2-3.645-3.502-1.683-2.302-2.309-4.803-.613-2.552-.23-5.855zm12.21-1.7q-.368 2.45.85 4.202 1.268 1.751 2.615 2.002 1.396.25 1.698.25h1.259q.428-.1 2.568-.4 2.152-.35 3.553-2.502 1.45-2.152 1.677-2.652.278-.5.43-1.101.747-2.952-.333-5.054-1.079-2.101-2.677-2.351-1.535-.3-2.24-.3-1.057 0-1.963.2-.856.2-2.065.8-1.146.55-2.873 2.002-1.676 1.45-2.334 4.053-.14.55-.165.85zM436.664 74.486q-2.604-.85-4.817-2.251l5.502-10.408 1.472.75q2.553 1.252 4.112 1.852 1.623.55 2.428.55.29.05.491.05h.252q.805 0 1.7-.35.906-.4 1.16-1.4.088-.351-.1-.801-.138-.45-.54-.65l-.176-.101-1.635-.7-3.962-1.652q-3.46-1.45-4.588-3.952-1.066-2.552-.054-6.555.671-2.652 2.247-4.704 1.627-2.051 3.781-3.402 2.205-1.35 4.093-1.851 1.901-.55 4.72-.55.957 0 2.001.05 1.045.05 2.064.2l.656-1.201 9.046 1.851-6.12 11.458q-1.873-1.35-4.176-2.001-2.239-.7-3.447-.7-.654 0-1.36.2-.654.2-1.058.6-.403.4-.53.9-.1.4.062.751.214.35.629.5l4.717 1.852 1.534.7q5.721 3.453 4.076 9.957-.216.85-.999 2.752-.77 1.852-2.862 3.953-2.042 2.102-3.818 3.152-1.776 1.051-4.005 1.702-2.241.7-5.916.7-1.41 0-2.806-.25-1.397-.25-3.774-1zM474.395 74.186l-1.144-.65 5.44-10.358.615.55q1.207.801 2.315.801 2.013 0 2.708-1.551.757-1.601.897-2.152l2.81-11.108h-8.004l5.276-10.707h16.663l-6.127 24.217q-.24.95-.632 1.901-.391.951-1.994 3.703-1.602 2.752-4.625 4.353-2.973 1.601-4.836 2.002-1.863.4-4.028.4-2.617 0-5.334-1.401zM499.537 59.375q.09-.75.242-1.55.152-.801.532-2.302.316-1.251.947-2.552.682-1.301 2.435-4.053 1.804-2.752 5.596-5.404 3.805-2.702 6.688-3.753 2.897-1.1 6.497-1.4h.906q.453 0 .919-.05.704 0 1.044.05 2.467 0 4.354.7 1.899.65 3.936 2.151 2.1 1.451 3.091 3.103 1.005 1.6 1.556 3.002.602 1.4.788 3.252.186 1.851-.056 3.803-.229 1.901-.533 3.102-.848 3.352-2.98 6.405-2.08 3.052-3.933 4.803-1.79 1.701-3.931 3.002-2.091 1.301-3.728 2.002-1.637.7-3.425 1.2-1.725.45-3.626.6-1.9.151-3.662.151l-2.53-.35q-2.969-.6-4.943-1.752-1.911-1.2-3.644-3.502-1.684-2.302-2.31-4.803-.612-2.552-.23-5.855zm12.21-1.7q-.368 2.45.85 4.202 1.269 1.751 2.615 2.002 1.397.25 1.699.25h1.258q.428-.1 2.568-.4 2.153-.35 3.553-2.502 1.45-2.152 1.678-2.652.277-.5.43-1.101.746-2.952-.333-5.054-1.08-2.101-2.677-2.351-1.535-.3-2.24-.3-1.057 0-1.964.2-.856.2-2.065.8-1.146.55-2.872 2.002-1.676 1.45-2.335 4.053-.139.55-.164.85zM556.226 39.661q1.99-.7 3.84-1.05 1.85-.35 3.41-.35 3.273 0 5.436 1.4l.87-.65 6.852 4.153-10.27 8.556-.515-.35-.843-.45q-1.295-.651-2.012-.801-.717-.15-1.309-.2-.591-.05-1.145-.05-4.732 0-6.498 2.401-1.702 2.352-1.967 2.802-.265.45-.467 1.251-.152.4-.33 1.101-.734 2.902.623 4.703 1.37 1.752 2.879 2.152 1.522.35 2.63.35 2.013 0 3.147-.7t1.525-1.051q.44-.35.97-.85h-5.84l4.822-9.307h16.864l-.127.7-.165.85q-.747 2.953-2.236 6.055-1.44 3.102-3.117 5.354-1.614 2.201-3.958 4.103-2.33 1.851-4.623 3.152-2.23 1.25-4.785 2.001-2.506.751-5.124.751-1.208 0-3.9-.3-2.706-.25-4.78-1.601-2.025-1.351-2.943-2.302-.917-.95-2.197-3.052-1.218-2.152-1.554-5.004-.323-2.902.652-6.755 1.342-5.303 3.913-8.105 2.585-2.852 4.361-4.303 1.84-1.502 3.843-2.652 2.015-1.201 4.068-1.952zM578.976 59.375q.09-.75.242-1.55.152-.801.532-2.302.316-1.251.947-2.552.682-1.301 2.435-4.053 1.804-2.752 5.596-5.404 3.805-2.702 6.688-3.753 2.897-1.1 6.496-1.4h.907q.453 0 .918-.05.705 0 1.045.05 2.467 0 4.353.7 1.9.65 3.937 2.151 2.1 1.451 3.091 3.103 1.004 1.6 1.556 3.002.602 1.4.788 3.252.186 1.851-.056 3.803-.229 1.901-.533 3.102-.848 3.352-2.98 6.405-2.08 3.052-3.933 4.803-1.79 1.701-3.931 3.002-2.091 1.301-3.728 2.002-1.637.7-3.425 1.2-1.725.45-3.626.6-1.9.151-3.662.151l-2.53-.35q-2.969-.6-4.943-1.752-1.911-1.2-3.645-3.502-1.683-2.302-2.308-4.803-.613-2.552-.23-5.855zm12.21-1.7q-.368 2.45.85 4.202 1.269 1.751 2.615 2.002 1.397.25 1.699.25h1.258q.428-.1 2.568-.4 2.153-.35 3.553-2.502 1.45-2.152 1.678-2.652.277-.5.43-1.101.746-2.952-.333-5.054-1.08-2.101-2.677-2.351-1.535-.3-2.24-.3-1.057 0-1.964.2-.856.2-2.065.8-1.146.55-2.872 2.002-1.676 1.45-2.335 4.053-.139.55-.164.85zM620.813 74.486q-2.604-.85-4.817-2.251l5.503-10.408 1.471.75q2.553 1.252 4.113 1.852 1.622.55 2.428.55.29.05.49.05h.252q.806 0 1.7-.35.907-.4 1.16-1.4.088-.351-.1-.801-.137-.45-.54-.65l-.176-.101-1.635-.7-3.962-1.652q-3.459-1.45-4.588-3.952-1.066-2.552-.053-6.555.67-2.652 2.247-4.704 1.626-2.051 3.78-3.402 2.205-1.35 4.094-1.851 1.9-.55 4.72-.55.956 0 2 .05 1.045.05 2.065.2l.656-1.201 9.046 1.851-6.12 11.458q-1.874-1.35-4.176-2.001-2.24-.7-3.448-.7-.654 0-1.36.2-.654.2-1.057.6-.403.4-.53.9-.101.4.062.751.213.35.628.5l4.717 1.852 1.534.7q5.722 3.453 4.076 9.957-.215.85-.998 2.752-.77 1.852-2.863 3.953-2.042 2.102-3.818 3.152-1.776 1.051-4.004 1.702-2.242.7-5.917.7-1.41 0-2.806-.25-1.396-.25-3.774-1z"/>
    </g>
    <g fill="#ed1e24" stroke-width="32.514">
        <path d="M71.615 45.515H58.943l10.28-20.448h27.551l1.322-2.784h19.488l-11.87 23.52H93.042L80.078 94.188H58.67zM103.525 64.14q.194-1.44.51-2.977.315-1.536 1.087-4.416.643-2.4 1.888-4.896 1.34-2.496 4.771-7.776 3.527-5.28 10.842-10.368 7.341-5.184 12.873-7.2 5.558-2.112 12.433-2.688h1.728q.864 0 1.753-.096 1.344 0 1.99.096 4.705 0 8.28 1.344 3.602 1.248 7.439 4.128 3.958 2.784 5.797 5.952 1.865 3.072 2.872 5.76 1.104 2.688 1.4 6.24.297 3.552-.227 7.296-.497 3.648-1.114 5.952-1.724 6.432-5.885 12.288-4.065 5.856-7.653 9.216-3.467 3.265-7.592 5.76-4.029 2.497-7.173 3.84-3.144 1.345-6.57 2.305-3.303.864-6.932 1.152-3.629.288-6.989.288l-4.812-.672q-5.643-1.152-9.372-3.36-3.606-2.304-6.84-6.72-3.136-4.417-4.25-9.217-1.088-4.896-.254-11.232zm23.339-3.265q-.78 4.704 1.487 8.064 2.364 3.36 4.923 3.84 2.655.48 3.231.48h2.4q.82-.192 4.91-.768 4.116-.672 6.854-4.8 2.834-4.128 3.284-5.088.545-.96.854-2.112 1.517-5.664-.474-9.696-1.992-4.032-5.031-4.512-2.918-.576-4.262-.576-2.016 0-3.751.384-1.639.384-3.964 1.536-2.203 1.056-5.54 3.84-3.243 2.784-4.58 7.776-.283 1.056-.341 1.632zM185.864 45.707h-4.8l10.33-20.64h24.576q12.48 0 18.187 7.008 5.802 7.008 6.288 12 .608 4.896.04 8.448-.445 3.456-1.86 8.736-.643 2.4-1.888 4.896-1.149 2.496-4.926 8.352t-11.188 10.945q-7.386 4.992-13.565 6.912-6.152 1.824-13.928 1.824h-20.256zm14.353 26.688h1.92q5.312-.48 9.406-3.936 4.216-3.552 5.682-9.024.386-1.44.577-5.376.312-4.032-3.154-6.144-3.466-2.112-7.306-2.112zM241.525 64.14q.194-1.44.51-2.977.315-1.536 1.087-4.416.643-2.4 1.887-4.896 1.341-2.496 4.772-7.776 3.527-5.28 10.842-10.368 7.341-5.184 12.873-7.2 5.558-2.112 12.433-2.688h1.728q.864 0 1.753-.096 1.344 0 1.99.096 4.705 0 8.28 1.344 3.602 1.248 7.439 4.128 3.958 2.784 5.797 5.952 1.865 3.072 2.872 5.76 1.104 2.688 1.4 6.24.297 3.552-.227 7.296-.497 3.648-1.114 5.952-1.724 6.432-5.885 12.288-4.065 5.856-7.653 9.216-3.467 3.265-7.592 5.76-4.029 2.497-7.173 3.84-3.144 1.345-6.57 2.305-3.303.864-6.932 1.152-3.63.288-6.99.288l-4.811-.672q-5.643-1.152-9.372-3.36-3.606-2.304-6.84-6.72-3.136-4.417-4.25-9.217-1.088-4.896-.254-11.232zm23.339-3.265q-.78 4.704 1.487 8.064 2.363 3.36 4.923 3.84 2.655.48 3.231.48h2.4q.82-.192 4.91-.768 4.116-.672 6.854-4.8 2.834-4.128 3.284-5.088.545-.96.853-2.112 1.518-5.664-.473-9.696-1.992-4.032-5.032-4.512-2.917-.576-4.261-.576-2.016 0-3.751.384-1.639.384-3.964 1.536-2.203 1.056-5.54 3.84-3.243 2.784-4.58 7.776-.283 1.056-.341 1.632zM319.412 93.132q-4.938-1.632-9.114-4.32l10.822-19.969 2.783 1.44q4.828 2.4 7.784 3.552 3.077 1.056 4.613 1.056.55.096.934.096h.48q1.536 0 3.252-.672 1.742-.768 2.256-2.688.18-.672-.164-1.536-.248-.864-1.01-1.248l-.332-.192-3.096-1.344-7.503-3.168q-6.55-2.784-8.624-7.584-1.952-4.896.106-12.576 1.363-5.088 4.434-9.024 3.166-3.936 7.317-6.528 4.246-2.592 7.864-3.552 3.643-1.056 9.019-1.056 1.824 0 3.814.096t3.929.384l1.29-2.304 17.192 3.552-12.035 21.984q-3.53-2.592-7.9-3.84-4.247-1.344-6.551-1.344-1.248 0-2.599.384-1.255.384-2.037 1.152-.781.768-1.039 1.728-.205.768.095 1.44.395.672 1.182.96l8.937 3.552 2.903 1.344q10.802 6.624 7.458 19.104-.438 1.632-1.991 5.28-1.528 3.552-5.584 7.585-3.96 4.032-7.38 6.048-3.421 2.016-7.692 3.264-4.296 1.344-11.304 1.344-2.688 0-5.343-.48t-7.166-1.92z"/>
    </g>
</svg>
