<svg height="158.32" viewBox="0 0 107.498 26.056" width="653.167" xmlns="http://www.w3.org/2000/svg">
    <g stroke-width=".411">
        <text fill="#ef00eb" font-family="TrasksHand" font-size=".329" stroke="#0105ff" transform="rotate(-63.185 2.791 -5.87)" x="14.999" y="55.51"><tspan fill="#fafafa" fill-opacity=".4" stroke="none" x="14.999" y="55.51">John Loreth 2022</tspan></text>
        <path d="M10.08.007C8.544.219 8.03 1.883 7.067 2.859a2.35 2.35 0 0 0-.496 1.16c-.715-.618-1.707-.414-2.482-.046-.914.272-2 1.112-1.632 2.182.008 1.2-.726 2.245-1.002 3.39C.778 11.563.02 13.636 0 15.783c.29 1.584 2.322 2.147 3.634 1.462 1.451-.51 2.62-1.609 3.65-2.69-.278 1.076-.282 2.511.841 3.107.98.649 2.43.371 3.008-.682.438-.496.913-.957 1.41-1.393.146 1.24 1.282 2.39 2.592 2.123 1.204-.108 2.254-.79 3.197-1.496.643 1.532 2.709 1.908 4.077 1.157.888-.304 1.746-.811 2.496-1.311.408 1.28 1.92 2.168 3.191 1.62.99-.184 1.925-.929 2.658-1.376.338 1.031 1.674 1.766 2.617 1.014.911-.585 1.434-1.567 2.096-2.39-.148 1.05.213 2.573 1.478 2.67 1.52.044 2.368-1.491 3.31-2.437.374-.666.285.12.411.45.284 1.374 1.67 2.443 3.08 2.14.692-.093 1.33-.417 1.903-.803.94 1.39 2.997 1.406 4.307.551 1.245-.565 2.453-1.678 2.368-3.158-.023-1.33-1.142-2.31-1.591-3.408 1.024-.909 2.775-.114 3.623-1.303.825-1.198-.235-2.906-1.619-2.966-2.516-.467-5.143 1.306-5.94 3.675-.138.55.014 1.157-.517 1.535-.578.7-1.072 1.338-1.83 1.877.095-1.338.46-2.75 1.44-3.723 1.062-1.26-.26-3.254-1.78-3.206-1.12.037-1.795 1.104-2.532 1.809-.344.465-.424.453-.378-.123-.006-1.19-1.247-2.276-2.424-1.795-1.161.432-1.896 1.515-2.768 2.339.357-1.585-1.597-3.293-3.08-2.465-1.034.809-1.484 2.174-1.735 3.405.055.472.408.97-.052 1.36-.552.71-1.293 1.24-1.938 1.856.472-1.56 1.356-2.97 1.848-4.51.077-.812-.444-1.61-1.17-1.95.792.437 2.047.258 2.26-.751.15-.778.047-1.581.22-2.36.119-.933-.485-1.864-1.428-2.037-.938-.339-2.127 0-2.474 1.007-.546 1.446-.104 3.378 1.36 4.11-.856-.418-1.701.188-2.325.731-.784.033-1.627-.008-2.432.082-.441.015.31-.729.323-1.039.599-1.105-.026-2.75-1.355-2.885-1.314-.23-2.345.905-2.725 2.05-.291.716-.462 1.478-.79 2.181-.712.14-1.464.297-2.036.773.681-1.79 1.515-3.524 2.26-5.283.372-1.435-1.206-3.191-2.66-2.459-1.197.667-1.479 2.144-2.061 3.276-1.162 2.7-2.255 5.44-3.035 8.279-.418-.056-.83.067-1.223.195.36-2.073 1.208-4.028 2.213-5.861.425-1.486-1.07-3.132-2.576-2.908.885-.574 1.536-1.817.84-2.78A2.4 2.4 0 0 0 10.08.007zM62.182 3.56c-.856.068-1.362 1.022-2.258.925-1.219.235-2.002 1.861-1.01 2.8.356.338.851.51.467 1.068-.915 3.23-1.636 6.561-3.136 9.581-.222.478-.687.43-1.024.135-1.11-.531-2.826-.262-3.191 1.075-.357 1.492 1.107 2.702 2.462 2.886 1.642.264 3.245-.588 4.495-1.572 2.11-1.944 2.652-4.899 3.456-7.522.572-2.005.92-4.113 1.803-6.004.61-.751.763-1.964-.049-2.638-.525-.523-1.282-.767-2.015-.734zm35.394-.002c-1.47.075-2.335 1.604-2.614 2.819-.238.467-.253 1.17-.646 1.486-.792.088-1.745.486-2.195.988.043-1.044-1.002-1.987-2.037-1.805-1.144-.94-2.734-.209-3.753.565-1.698 1.23-2.975 2.974-3.843 4.869.184-.648-.036-1.46.57-1.897 1.095-1.454.083-3.876-1.769-4.008-1.986-.174-3.804 1.032-5.208 2.316-1.443 1.349-2.495 3.084-4.137 4.223.24-1.526 1.089-2.86 1.542-4.313.282-1.502-1.618-2.972-2.927-1.993-.98.684-1.316 1.907-2.026 2.82.473-1.073-.237-2.298-1.293-2.66-.96-.415-2.217 0-2.586 1.022-1.128 1.991-1.864 4.188-2.443 6.392-.219 1.272.289 2.95 1.707 3.234 1.594.234 2.77-1.109 3.926-1.968.049 1.162 1.078 2.312 2.309 2.066 1.057-.08 2.023-.73 2.878-1.191.51 1.013 1.846 1.517 2.86.94.628-.208 1.21-.528 1.764-.888-.496 2.146-1.239 4.512-3.131 5.827-.6.345-1.027-.215-1.45-.54-1.016-.701-2.472-.452-3.223.52-.762.806-.722 2.286.304 2.861 1.013.683 2.31.696 3.48.813 2.94-.17 5.366-2.446 6.562-5.013.795-1.64 1.22-3.424 1.592-5.198.265 1.466 2.058 2.377 3.371 1.619.805-.366 1.556-1.106 2.178-1.566.462 1.347 2.033 2.263 3.406 1.693.631-.212 1.16-.625 1.711-.982.87 1.292 2.75 1.413 4.026.686a10.637 10.637 0 0 0 1.777-.868c.413 1.474 2.3 1.955 3.619 1.482 1.134-.405 2.295-1.07 2.945-2.113.665-1.18.262-2.632-.537-3.637-.175-.39-.906-.969-.536-1.343 1.007-.73 2.525-.037 3.359-1.093.91-1.005.099-2.623-1.086-2.964-1.467-.547-3.057.093-4.325.805-.955-.31-2.018.017-2.96-.014.67-.953 1.217-2.46.232-3.402-.35-.381-.868-.627-1.393-.59zM10.18 4.738c-.577.998-.933 2.117-1.679 3.021-1.173 1.584-2.476 3.07-3.766 4.559.547-2.121 1.569-4.077 2.366-6.103.204-.23-.072-1.037.429-.73 1.009.215 1.951-.36 2.757-.896l-.058.081zm81.57 5.269c.028.649.516 1.21 1.11 1.432-.578.7-1.12 1.449-1.848 2.005-.01-1.177.365-2.367.738-3.437zm-73.851.334c.134.469.504.853.943 1.05-.583.638-1.167 1.29-1.885 1.78.26-.99.578-1.962.916-2.928l.025.097zm81.65.467c-.102 1.115.421 2.165 1.006 3.078-.42.065-.258-.6-.6-.8-.473-.614-1.362-.51-1.894-.042-.467.26-.92.574-1.453.676.115-.898.48-1.75.787-2.586.704-.19 1.455-.228 2.168-.426l-.014.1zm-74 .078c.162.509.038.991-.166 1.459.059.586-.667.24-.983.563-.571.246-1.108.718-1.703.818.12-.935.462-1.764.82-2.621.661-.193 1.375-.132 2.022-.391l.006.1zm22.68 3.305c-.045.195-.072-.099 0 0z" fill="#333"/>
        <g fill="#f4c401">
            <path d="M11.767 4.794c-.268 0-.633.177-.852.606-.146.328-.341.732-.512 1.211-.17.38-.755 1.364-1.875 2.727-1.924 2.424-2.68 3.257-3.264 3.837-.633.58-1.072.783-1.437.783-.22 0-.463-.303-.122-1.666.366-1.465 1.437-4.14 2.338-6.034.536-1.086-.024-1.64-.487-1.64-.487 0-1.096.252-1.51.453-.56.278-.804.505-.657.859.17.505.073.934-.098 1.388-1.096 2.98-1.85 5.125-2.29 7.523-.048.278-.072.556-.024.808.05.227.195.43.366.58.243.203.609.304.852.304.658 0 1.315-.227 1.827-.53.609-.328 1.242-.808 2.435-1.995 1.097-1.11 2.387-2.777 2.51-2.928.12-.152.243-.177.17.076a40.775 40.775 0 0 0-.975 4.115c-.17.908-.073 1.312.707 1.64.316.152.462.127.657.127.146 0 .317-.101.512-.303.511-.657 1.753-1.894 2.8-2.701.415-.329.464-.707-.121-.632-.804.127-1.315.38-1.851.606-.22.101-.268.026-.244-.328.195-2.373 1.17-5.125 2.144-6.69.34-.48.365-.858.268-1.085-.244-.48-.755-1.111-1.267-1.111zm-4.238-.53c0 .303.414.353.682.277.609-.202 1.608-.681 2.825-1.691.463-.404.731-.732.341-1.288a1.403 1.403 0 0 0-1.144-.58c-.341 0-.682.227-.999.656-.39.53-.925 1.288-1.364 1.818-.243.303-.34.555-.34.808zM13.496 15.12c0 .908.536 1.64 1.243 1.64 2.24 0 5.26-3.206 5.967-4.696.195-.403.268-.782.17-.984-.097-.177-.292-.202-.511.076-1.608 2.02-3.459 3.509-4.214 3.509-.39 0-.584-.354-.195-1.666.56-1.894 1.632-5.352 3.435-8.963.511-1.035.633-1.489-.17-2.196a.576.576 0 0 0-.44-.177c-.194 0-.413.101-.633.38-.365.479-1.217 2.246-2.703 6.108-1.656 4.292-1.949 6.236-1.949 6.968z"/>
            <path d="M22.313 14.79c-.633 0-.73-.479-.609-1.236.098-.732.61-2.222.95-3.03.122-.252.22-.328.536-.378 2.168-.303 3.605-.707 4.019-.934.34-.202.633-.783.049-.783-.658 0-2.412.101-3.508.126-.146 0-.365.026-.292-.176.097-.228.487-1.288 1.023-2.298.244-.429.22-.883-.146-1.262-.195-.202-.341-.278-.585-.278-.365 0-1.047.379-1.266.859-.244.53-.999 2.751-1.12 3.004-.098.278-.244.328-.463.379-.487.1-.902.202-1.194.252-.34.076-.487.202-.706.48-.195.227-.22.606-.049.782.146.127.341.278.61.253.316-.05.657-.076.852-.101.243-.026.243.075.17.252-.122.354-.925 2.802-1.17 3.51-.194.53-.267.832-.267 1.135 0 .884.852 1.414 1.559 1.414.316 0 .633-.05 1.047-.202 1.949-.656 2.947-1.565 3.386-2.045.414-.454.316-1.136-.244-.757-.584.379-1.754 1.035-2.582 1.035z"/>
            <path d="M30.132 2.471c-.536 0-.828.278-.877 1.06-.025.581.049.985.122 1.263.121.454.511.909 1.047 1.11.463.177.804.152.804-.353 0-.606 0-1.237.146-2.095.122-.631-.536-.985-1.242-.985zm-3.045 14.365c.414 0 .877-.101 1.486-.354 1.412-.58 3.678-2.852 4.627-4.443.317-.53.39-.934.268-1.161-.097-.177-.34-.202-.633.126-1.364 1.59-3.775 3.863-4.554 3.863-.463 0-.512-.354-.268-1.136.584-1.944 1.193-3.358 1.948-4.721.244-.48 0-1.035-.316-1.288a.647.647 0 0 0-.415-.151c-.706 0-2.24 1.691-2.63 2.726-.146.379-.097.606 0 .833.122.228.122.38 0 .732-.195.455-.609 1.843-.755 2.45-.17.605-.17 1.06.049 1.514.34.783.828 1.01 1.193 1.01z"/>
            <path d="M39.363 7.57c-.244 0-.634.203-1.048.581-.414.354-.706.632-1.461 1.44-.901.959-1.583 1.792-2.606 2.978-.366.43-.512.253-.292-.454.316-1.086.73-2.272 1.023-2.929.316-.681-.074-1.16-.585-1.59-.244-.202-.463-.278-.682-.278-.658 0-1.315 1.868-1.51 2.474-.098.329.073.48.17.48.122 0 .147.126.073.379-.438 1.716-.803 2.903-.9 3.66-.196 1.717.51 2.348.876 2.348.244 0 .512-.126.95-.631.463-.53 2.874-3.736 3.24-4.166.267-.328.535-.48.633-.429.121.076.073.303-.025.556-.243.732-.463 1.49-.633 2.196-.341 1.338-.122 2.449.463 2.449.34 0 .706-.227 1.193-.707.536-.53 2.655-3.03 3.24-3.736.267-.329.39-.303.292.05-.073.278-.17.909-.22 1.338-.243 2.222.536 3.232 1.779 3.232 1.193 0 3.215-1.338 4.968-4.52.366-.656.439-1.085.317-1.262-.098-.151-.292-.126-.512.152-2.216 2.903-3.385 3.837-4.067 3.837-.585 0-.706-.681-.56-1.691.195-1.44.584-2.399.828-2.878.22-.455.463-.657.633-.808.22-.202.341-.354.341-.656 0-.556-.56-1.187-1.12-1.187-.293 0-.682.252-1.072.656-.463.48-2.971 3.333-3.726 4.115-.147.127-.268.228-.39.177-.098-.05-.049-.252.097-.631.268-.732.853-2.12 1.023-2.626.487-1.413-.39-1.918-.73-1.918z"/>
            <path d="M51.955 7.546c-.804 0-2.07.429-2.826 1.11-.706.581-1.461 1.566-1.461 2.474 0 .329.122.758.244 1.06.17.38.56 1.086.803 1.414.341.48.56.934.56 1.187 0 .151-.194.353-.511.353-.341 0-.487-.05-.73-.151-.22-.177-.39-.177-.61-.05-.219.1-.535.302-.876.706-.17.152-.195.354-.195.53.097.556 1.023.935 1.68.935.268 0 .56-.076.926-.228.536-.227 1.461-.757 1.778-1.06.292-.278.609-.909.609-1.288 0-.656-.366-1.388-.926-2.12-.414-.58-.73-1.136-.73-1.616 0-.782 1.68-1.439 3.19-1.439.414 0 .78-.202.78-.681 0-.303-.098-.556-.414-.783-.317-.227-.682-.353-1.291-.353zM62.392 4.541c-.366 0-.56.177-.755.354-.293.303-.414.378-.78.429-.414.076-.73.126-.974.252-.22.101-.438.278-.438.581 0 .43.511.833 1.071.934.17.025.195.076.17.227-1.266 4.746-1.826 6.716-2.678 9.14-.366 1.034-.707 1.766-1.17 2.322-.414.404-.779.58-1.022.58s-.463-.1-.634-.202c-.219-.126-.877-.378-1.266-.378-.414 0-.974.353-.974.757 0 .379.316.909.633 1.086.511.277 1.145.505 1.607.505.293 0 .634-.127.975-.228.267-.075.657-.252.974-.378a6.025 6.025 0 0 0 1.826-1.44c.877-1.01 1.705-3.281 2.51-6.336 1.168-4.418 1.29-4.923 1.558-5.63a3.36 3.36 0 0 1 .487-.908c.17-.177.365-.48.22-.884-.147-.43-.804-.783-1.34-.783zM71.209 14.589c-.366 0-.415-.328-.366-.884.122-1.06.61-2.7 1.12-3.786.244-.505.39-.783.488-1.01.292-.657-.341-1.44-.95-1.44-.292 0-.585.203-.974.809-.439.707-1.462 2.524-2.607 3.913-1.169 1.312-1.85 1.944-2.118 1.944-.293 0-.415-.278-.171-1.086.292-1.035.487-1.515.682-1.893.17-.329.463-.48.706-.808.22-.303.707-1.162.707-1.49 0-.454-.731-1.085-1.34-1.085-.292 0-.609.202-.852.58a25.617 25.617 0 0 0-1.632 3.838c-.682 1.868-.755 2.499-.755 2.903 0 .808.511 1.59 1.023 1.59.365 0 .755-.1 1.266-.429 1.462-.96 3.069-2.575 3.459-3.004.146-.151.316-.05.243.227-.073.278-.146.556-.219.96-.292 1.464.146 2.322.901 2.322.366 0 1.048-.177 1.73-.53.852-.43 2.289-1.363 4.14-3.888.365-.48.512-1.035.365-1.338-.097-.227-.292-.227-.487-.025-1.437 1.666-3.531 3.61-4.36 3.61z"/>
            <path d="M80.83 7.52c-.537 0-1.535.303-2.217.707-.828.505-2.168 1.414-3.288 2.929s-1.632 3.03-1.632 4.014c0 .706.487 1.54 1.072 1.54.682 0 1.729-.556 2.24-.884.828-.53 1.535-1.161 1.827-1.414.146-.126.244-.151.22.05-.05.354-.123 1.061-.39 2.172-.39 1.64-.853 3.357-1.852 4.822-1.096 1.615-2.07 2.07-2.776 2.07-.439 0-.828-.278-1.17-.556-.316-.277-.754-.555-1.12-.555-.511 0-1.461.707-1.461 1.313 0 .681 1.096 1.136 1.656 1.136.39 0 .56.05.804.126.268.076.706.101 1.047.101.634 0 2.192-.606 3.215-1.439 1.17-.934 2.558-2.777 3.288-5.781.268-1.086.926-3.736 1.364-6.412.049-.253.098-.606-.024-.733-.073-.05-.024-.151.17-.277.414-.303.731-.808.731-1.338 0-.556-.39-1.59-1.705-1.59zm-4.75 6.413c0-.657.657-1.97 1.169-2.651.877-1.161 1.973-1.793 2.971-1.793.512 0 .828.303.828.48a.483.483 0 0 1-.121.278c-.098.076-.22.1-.317.126-.268.076-.56.278-.828.682-.146.227-.463.807-1.291 1.64-.341.38-1.559 1.642-2.143 1.642-.17 0-.268-.177-.268-.404zM88.94 7.57c-.268 0-1.315.102-2.655 1.314-1.023.959-2.046 2.196-2.68 3.534-.779 1.54-.925 2.348-.925 2.853 0 .959.95 1.49 1.242 1.49.512 0 1.023-.228 1.681-.733.682-.505 1.973-1.717 2.265-2.07.146-.152.195-.152.22.076 0 .277 0 .504.048.883.097 1.035.755 1.843 1.656 1.843 1.535 0 3.897-2.373 4.969-4.57.22-.479.34-.933.22-1.16-.098-.177-.342-.203-.61.05-1.534 2.196-3.19 3.736-3.75 3.736-.366 0-.61-.353-.61-1.237 0-1.515.439-3.08 1.072-4.57.073-.226.195-.53-.487-.933-.22-.152-.39-.101-.585.075-.146.101-.267.101-.316-.05-.146-.202-.414-.53-.755-.53zm-.901 1.894c.316 0 .511.303.584.53.073.253 0 .581-.146.833-.097.177-.487.884-.828 1.288-.73.884-1.072 1.363-1.486 1.717-.365.328-.73.58-.925.58-.195 0-.244-.353-.17-.681.145-.682.827-2.096 1.655-3.106.707-.858 1.096-1.16 1.316-1.16z"/>
            <path d="M96.222 14.79c-.633 0-.73-.479-.609-1.236.098-.732.61-2.222.95-3.03.122-.252.22-.328.536-.378 2.168-.303 3.605-.707 4.019-.934.34-.202.633-.783.049-.783-.658 0-2.412.101-3.508.126-.146 0-.365.026-.292-.176.097-.228.487-1.288 1.023-2.298.243-.429.22-.883-.146-1.262-.195-.202-.341-.278-.585-.278-.365 0-1.047.379-1.266.859-.244.53-.999 2.751-1.12 3.004-.098.278-.244.328-.463.379-.488.1-.902.202-1.194.252-.34.076-.487.202-.706.48-.195.227-.22.606-.049.782.146.127.341.278.609.253.317-.05.658-.076.852-.101.244-.026.244.075.171.252-.122.354-.926 2.802-1.17 3.51-.194.53-.267.832-.267 1.135 0 .884.852 1.414 1.559 1.414.316 0 .633-.05 1.047-.202 1.949-.656 2.947-1.565 3.386-2.045.414-.454.316-1.136-.244-.757-.585.379-1.754 1.035-2.582 1.035z"/>
            <path d="M104.796 7.546c-.804 0-2.07.429-2.826 1.11-.706.581-1.461 1.566-1.461 2.474 0 .329.122.758.243 1.06.171.38.56 1.086.804 1.414.341.48.56.934.56 1.187 0 .151-.194.353-.511.353-.341 0-.487-.05-.73-.151-.22-.177-.39-.177-.61-.05-.219.1-.535.302-.876.706-.171.152-.195.354-.195.53.097.556 1.023.935 1.68.935.268 0 .56-.076.926-.228.536-.227 1.461-.757 1.778-1.06.292-.278.609-.909.609-1.288 0-.656-.366-1.388-.926-2.12-.414-.58-.73-1.136-.73-1.616 0-.782 1.68-1.439 3.19-1.439.414 0 .78-.202.78-.681 0-.303-.098-.556-.415-.783-.316-.227-.682-.353-1.29-.353z"/>
        </g>
    </g>
</svg>
