<svg height="151.221" viewBox="0 0 507.994 120.977" width="634.992" xmlns="http://www.w3.org/2000/svg">
    <path d="m71.81 101.68-.859 3.984q-2.124 3.94-3.947 3.923l-15.847-.187-.235-.023q-1.73-.168-1.686-3.913L67.911 10.38q1.967-3.956 5.863-4.055l13.71.138.471.046q3.772.367 5.56 4.05l16.906 95.44-.083.868q-.297 3.082-2.52 3.105l-15.218-.126-.157-.015q-1.886-.184-3.737-4.033l-.727-3.978zm12.61-19.748-4.044-22.247-4.519 22.21z" fill="#f3010f"/>
    <path d="M75.575 4.33c-4.227.036-8.163 3.056-9.506 7.023-.465 1.932-.764 3.904-1.181 5.85l-17.659 89.9c-.063 2.526.35 5.389 2.43 7.084 1.615 1.372 3.838 1.269 5.822 1.224 4.766.07 9.538.177 14.301.131 2.856-.42 4.878-2.786 6.22-5.166.548-.796.876-1.72 1.044-2.668l9.586.082c.291 1.978 1.446 3.688 2.635 5.242 1.415 1.782 3.635 2.995 5.95 2.801 5.12.06 10.241.139 15.358.096 2.962-.26 5.288-2.916 5.62-5.797.363-1.61.18-3.263-.192-4.851l-16.65-93.985c-1.486-3.549-4.838-6.401-8.747-6.726-2.62-.251-5.257-.079-7.884-.176-2.383-.024-4.764-.05-7.147-.065zm.2 3.994 13.708.138.473.045c2.515.245 4.367 1.595 5.559 4.05l16.906 95.44-.084.87c-.198 2.054-1.037 3.088-2.52 3.103l-15.216-.125-.159-.016c-1.257-.122-2.502-1.465-3.736-4.03l-.727-3.981-16.167-.137-.862 3.982c-1.416 2.627-2.732 3.936-3.947 3.924l-15.846-.187-.236-.024c-1.153-.112-1.715-1.416-1.686-3.912l18.676-95.086c1.312-2.637 3.266-3.988 5.863-4.054zm6.601 53.36-4.52 22.212 8.565.037z" fill="#845f23"/>
    <path d="M73.774 6.324c-2.597.066-4.551 1.417-5.863 4.054l-18.676 95.086c-.028 2.496.533 3.8 1.686 3.912l.236.024.225.002a9.915 9.915 0 0 1-.147-1.938l18.676-95.086c1.312-2.637 3.266-3.988 5.863-4.054l13.71.138.472.045c1.115.109 2.09.448 2.945.99-1.18-1.78-2.823-2.783-4.945-2.99l-.473-.045zm8.602 55.36-.863 4.249 2.908 16-6.16-.027-.405 1.99 8.565.037zm5.967 42.12.363 1.994c.994 2.068 1.996 3.328 3.006 3.809a16.045 16.045 0 0 1-1.006-1.809l-.727-3.98z" fill="#bb000f"/>
    <path d="M73.575 2.33c-4.227.036-8.163 3.056-9.506 7.023-.465 1.932-.764 3.904-1.181 5.85l-17.659 89.9c-.063 2.526.35 5.389 2.43 7.084 1.615 1.372 3.838 1.269 5.822 1.224 4.766.07 9.538.177 14.301.131 2.856-.42 4.878-2.786 6.22-5.166.548-.796.876-1.72 1.044-2.668l9.586.082c.291 1.978 1.446 3.688 2.635 5.242 1.415 1.782 3.635 2.995 5.95 2.801 5.12.06 10.241.139 15.358.096 2.962-.26 5.288-2.916 5.62-5.797.363-1.61.18-3.263-.192-4.851L97.353 9.296c-1.486-3.549-4.838-6.401-8.747-6.726-2.62-.251-5.257-.079-7.884-.176-2.383-.024-4.764-.05-7.147-.065zm.2 3.994 13.708.138.473.045c2.515.245 4.367 1.595 5.559 4.05l16.906 95.44-.084.87c-.198 2.054-1.037 3.088-2.52 3.103l-15.216-.125-.159-.016c-1.257-.122-2.502-1.465-3.736-4.03l-.727-3.981-16.167-.137-.862 3.982c-1.416 2.627-2.732 3.936-3.947 3.924l-15.846-.187-.236-.024c-1.153-.112-1.715-1.416-1.686-3.912l18.676-95.086c1.312-2.637 3.266-3.988 5.863-4.054zm6.601 53.36-4.52 22.212 8.565.037z" fill="#fad60b"/>
    <path d="m25.323 66.463 1.288 39.042q.128 3.904-3.776 4.032l-11.712.387q-3.904.128-4.033-3.776L4 12.45q-.128-3.904 3.776-4.033l54.658-1.802q3.904-.129 4.033 3.775l.386 11.713q.129 3.904-3.776 4.033l-39.04 1.287.771 23.425 31.233-1.03q3.905-.129 4.033 3.775l.258 7.809q.129 3.904-3.776 4.032z" fill="#f3010f"/>
    <path d="M64.302 4.618C45.8 5.24 27.295 5.808 8.796 6.476c-3.1.225-6.033 2.545-6.572 5.674-.483 2.385-.03 4.82-.06 7.228.99 29.912 1.954 59.825 2.983 89.735.222 3.104 2.539 6.05 5.676 6.587 2.386.481 4.824.034 7.233.06 2.84-.136 5.787-.062 8.658-.417 3.008-.542 5.533-3.151 5.793-6.226.258-2.376-.087-4.762-.078-7.143l-.977-29.647c9.422-.325 18.85-.58 28.268-.972 3.1-.29 5.961-2.698 6.427-5.838.407-2.326.01-4.692.012-7.033-.066-2.724.108-5.796-1.785-8.004-1.49-1.871-3.93-2.784-6.285-2.643-2.22-.008-4.418.164-6.576.196l-20.842.685-.506-15.434c11.993-.407 23.989-.755 35.979-1.216 3.107-.256 6.003-2.625 6.505-5.764.447-2.39.012-4.825.036-7.234-.131-2.804-.065-5.72-.413-8.555-.53-2.945-3.034-5.42-6.027-5.783a11.02 11.02 0 0 0-1.943-.114zm.133 3.997c2.602-.086 3.945 1.172 4.03 3.775l.388 11.713c.085 2.603-1.173 3.945-3.776 4.031l-39.04 1.287.77 23.426 31.235-1.03c2.603-.085 3.947 1.173 4.033 3.776l.256 7.807c.086 2.602-1.173 3.947-3.775 4.033l-31.233 1.031 1.287 39.041c.086 2.603-1.172 3.948-3.775 4.033l-11.713.385c-2.603.086-3.945-1.172-4.031-3.775L6 14.448c-.086-2.602 1.173-3.947 3.775-4.033z" fill="#845f23"/>
    <path d="m62.435 6.615-54.659 1.8c-2.602.086-3.86 1.43-3.775 4.034l3.09 93.699c.063 1.928.821 3.113 2.265 3.566a5.495 5.495 0 0 1-.265-1.566L6 14.448c-.086-2.602 1.173-3.947 3.775-4.033l54.659-1.8c.675-.023 1.262.05 1.767.209-.51-1.534-1.76-2.276-3.767-2.21zm-6.393 43.203-29.303.965.069 2.064 31.234-1.03c.675-.022 1.262.051 1.768.21-.51-1.534-1.76-2.276-3.768-2.21z" fill="#bb000f"/>
    <path d="M62.302 2.618C43.8 3.24 25.295 3.808 6.796 4.476 3.696 4.7.763 7.02.224 10.15c-.483 2.385-.03 4.82-.06 7.228.99 29.912 1.954 59.825 2.983 89.735.222 3.104 2.539 6.05 5.676 6.587 2.386.481 4.824.034 7.233.06 2.84-.136 5.787-.062 8.658-.417 3.008-.542 5.533-3.151 5.793-6.226.258-2.376-.087-4.762-.078-7.143l-.977-29.647c9.422-.325 18.85-.58 28.268-.972 3.1-.29 5.961-2.698 6.427-5.838.407-2.326.01-4.692.012-7.033-.066-2.724.108-5.796-1.785-8.004-1.49-1.871-3.93-2.784-6.285-2.643-2.22-.008-4.418.164-6.576.196l-20.842.685-.506-15.434c11.993-.407 23.989-.755 35.979-1.216 3.107-.256 6.003-2.625 6.505-5.764.447-2.39.012-4.825.036-7.234-.131-2.804-.065-5.72-.413-8.555-.53-2.945-3.034-5.42-6.027-5.783a11.02 11.02 0 0 0-1.943-.114zm.133 3.997c2.602-.086 3.945 1.172 4.03 3.775l.388 11.713c.085 2.603-1.173 3.945-3.776 4.031l-39.04 1.287.77 23.426 31.235-1.03c2.603-.085 3.947 1.173 4.033 3.776l.256 7.807c.086 2.602-1.173 3.947-3.775 4.033l-31.233 1.031 1.287 39.041c.086 2.603-1.172 3.948-3.775 4.033l-11.713.385c-2.603.086-3.945-1.172-4.031-3.775L4 12.448c-.086-2.602 1.173-3.947 3.775-4.033z" fill="#fad60b"/>
    <g stroke-width="2.5">
        <path d="M198.915 5.02c-12.001.034-22.218 5.302-30.652 15.804-8.435 10.448-12.625 23.082-12.569 37.9s4.343 27.453 12.858 37.908c8.514 10.402 18.772 15.586 30.773 15.553 12.002-.033 22.22-5.274 30.654-15.723 8.435-10.501 12.623-23.16 12.567-37.978-.057-14.818-4.341-27.429-12.856-37.83-8.514-10.455-18.774-15.666-30.775-15.633zm.106 37.02a.28.28 0 0 1 .134.032c1.565 2.446 1.854 5.546 3.34 8.064 1.21 2.11 3.805 2.707 6.068 2.57 1.407.2 3.163-.208 4.338.399-2.051 1.95-5.317 3.238-6.214 6.162-.626 3.53 1.298 6.905 2.197 10.254.011.738 1.008 1.78.379 2.375-1.046-.505-1.879-1.435-2.823-2.121-2.306-1.66-4.498-4.46-7.63-4.227-3.38.34-5.521 3.413-8.096 5.27-.525.239-1.389 1.699-1.858.826.623-3.48 2.36-6.74 2.918-10.256.3-3.139-2.41-5.27-4.712-6.86-.527-.271-1.508-1.218-.508-1.542 2.71-.627 5.925.42 8.185-1.68 2.423-2.487 2.397-6.348 4.149-9.229a.267.267 0 0 1 .133-.037z" fill="#845f23"/>
        <path d="M198.916 5.022q18.002-.05 30.774 15.632 12.772 15.603 12.856 37.83.085 22.226-12.567 37.978-12.652 15.673-30.654 15.723-18.002.05-30.774-15.553-12.772-15.682-12.857-37.909-.084-22.226 12.568-37.9 12.652-15.752 30.654-15.801zm20.05 81.31q1.344.631 1.976.63.631-.002.629-.637-.002-.635-.64-1.983l-8.386-25.3 14.172-10.438q1.967-1.99 1.963-3.022-.004-.952-1.978-.947l-19.265.054-6.471-19.828q-.955-1.982-1.982-1.979-.947.003-1.966 1.99l-6.32 19.863-19.265.053q-1.974.006-1.97 1.038.003.952 1.906 2.931l14.33 10.36-8.272 25.345q-.627 1.272-.624 1.986.002.635.713.634.631-.002 1.971-.641l19.675-16.804z" fill="#f3010f"/>
        <path d="m198.78 5.025-1.05.015c-8.854.198-17.587 3.45-24.434 9.063-6.55 5.291-11.742 12.17-15.445 19.707-5.184 10.744-6.847 22.941-5.913 34.765.773 10.076 3.766 20.053 9.221 28.6 4.68 7.407 10.946 13.983 18.686 18.203 9.954 5.398 22.167 6.25 32.851 2.59 8.603-2.93 15.841-8.996 21.303-16.152 4.857-6.352 8.44-13.672 10.4-21.428 2.321-9.031 2.68-18.517 1.479-27.746-1.245-9.25-4.468-18.275-9.74-26.002-4.41-6.526-10.044-12.364-16.9-16.32-6.189-3.552-13.326-5.383-20.458-5.295zm.135 3.996c12.001-.033 22.26 5.178 30.775 15.633 8.515 10.401 12.8 23.012 12.856 37.83.056 14.817-4.132 27.477-12.567 37.978-8.434 10.449-18.652 15.69-30.654 15.723-12.001.033-22.259-5.151-30.773-15.553-8.515-10.455-12.801-23.09-12.858-37.908-.056-14.818 4.134-27.452 12.569-37.9 8.434-10.502 18.65-15.77 30.652-15.803z" fill="#845f23"/>
    </g>
    <path d="M198.78 5.025c-.516.003-1.025.024-1.535.047-.495.017-.987.061-1.48.097-10.647.878-19.817 6.086-27.502 15.655-8.435 10.448-12.625 23.082-12.569 37.9.002.528.023 1.046.036 1.568.39-13.771 4.564-25.597 12.533-35.468 8.434-10.502 18.65-15.77 30.652-15.803 12.001-.033 22.26 5.178 30.775 15.633 8.212 10.03 12.476 22.123 12.82 36.261a75.57 75.57 0 0 0 .036-2.431c-.057-14.818-4.341-27.429-12.855-37.83-8.13-9.983-17.855-15.172-29.165-15.592-.58-.018-1.16-.044-1.742-.037h-.004z" fill="#bb000f"/>
    <path d="M200.272 1.027a41.15 41.15 0 0 0-2.535.007c-8.861.196-17.604 3.451-24.453 9.075-6.623 5.356-11.858 12.333-15.564 19.978-4.713 9.899-6.447 21.026-5.942 31.926.476 11.158 3.582 22.323 9.737 31.705 4.908 7.616 11.54 14.324 19.716 18.377 9.095 4.466 19.865 5.28 29.579 2.473 6.31-1.8 12.057-5.281 16.837-9.746 6.245-5.81 11.111-13.068 14.313-20.963 4.386-10.982 5.417-23.117 3.97-34.797-1.22-9.43-4.463-18.655-9.863-26.516-4.79-7.076-11.047-13.355-18.722-17.248-5.29-2.669-11.158-4.107-17.073-4.271zm-1.357 3.994c12.001-.033 22.26 5.178 30.775 15.633 8.515 10.401 12.8 23.012 12.856 37.83.056 14.817-4.132 27.477-12.567 37.978-8.434 10.449-18.652 15.69-30.654 15.723-12.001.033-22.259-5.151-30.773-15.553-8.515-10.455-12.801-23.09-12.858-37.908-.056-14.818 4.134-27.452 12.569-37.9 8.434-10.502 18.65-15.77 30.652-15.803zm.068 17.861c-.631.002-1.285.665-1.964 1.99l-6.32 19.864-19.266.052c-1.316.004-1.974.35-1.971 1.037.002.636.638 1.613 1.906 2.932l14.332 10.36-8.273 25.345c-.418.848-.627 1.51-.625 1.987.002.423.24.634.715.632.42 0 1.077-.214 1.97-.64l19.676-16.803 19.803 16.693c.896.421 1.555.632 1.976.631.422-.001.63-.213.63-.637-.003-.423-.215-1.085-.64-1.984l-8.388-25.299 14.174-10.437c1.31-1.327 1.963-2.334 1.96-3.022-.001-.635-.66-.95-1.976-.947l-19.265.053-6.471-19.828c-.637-1.322-1.298-1.98-1.983-1.979zm.036 8.885 5.074 15.55c.295.446.13 1.525.851 1.382l14.95-.041c-4.02 2.959-8.036 5.922-12.057 8.878l6.525 19.684-15.216-12.83-15.202 12.98 6.46-19.787c-4.06-2.938-8.124-5.872-12.184-8.81l15.402-.041c1.798-5.656 3.592-11.312 5.397-16.965z" fill="#fad60b"/>
    <path d="M149.618 104.995q-1.687 4.097-5.777 4.464l-13.705.96q-3.865.192-6.116-3.628L99.534 13.017q-.276-3.88 1.687-4.097l15.753-1.105q1.89-.133 4.22 3.683l12.248 45.295 5.474-46.538q1.687-4.097 3.656-4.235l15.122-1.061q2.605-.103 2.881 3.777z" fill="#f3010f"/>
    <path d="M159.411 2.97c-5.299.396-10.612.69-15.916 1.164-2.905.626-4.82 3.227-5.93 5.815-.915 1.726-.734 3.738-1.066 5.61l-2.607 22.173c-2.333-8.626-4.663-17.252-6.998-25.877-1.508-2.45-3.367-5.072-6.303-5.846-2.004-.443-4.066.074-6.09.113-4.122.322-8.278.5-12.406.942-2.732.565-4.472 3.349-4.553 6.02-.317 2.63.781 5.112 1.344 7.628l23.408 89.643c1.741 3.333 5.144 6.028 9.021 6.04 2.604.03 5.191-.34 7.79-.46 2.916-.242 5.86-.284 8.751-.752 3.734-.857 6.868-3.98 7.733-7.71 3.667-32.219 7.333-64.444 11.004-96.665-.079-2.758-1.167-5.8-3.754-7.133-1.046-.555-2.251-.77-3.428-.705zm.283 3.988c1.737-.068 2.697 1.191 2.881 3.778l-10.957 96.26c-1.125 2.73-3.05 4.218-5.777 4.462l-13.705.961c-2.577.128-4.615-1.081-6.115-3.629l-24.487-93.773c-.184-2.587.379-3.953 1.688-4.098l15.752-1.103c1.26-.089 2.667 1.138 4.22 3.681l12.248 45.295 5.473-46.537c1.125-2.731 2.344-4.144 3.656-4.236z" fill="#845f23"/>
    <path d="m157.694 4.958-15.123 1.06c-1.312.093-2.531 1.506-3.656 4.237l-5.031 42.776 1.558 5.761 5.473-46.537c1.125-2.731 2.344-4.144 3.656-4.236l15.123-1.06c.204-.009.396.006.578.034-.434-1.404-1.292-2.086-2.578-2.035zm-40.72 2.858-15.752 1.103c-1.31.145-1.872 1.511-1.688 4.098l24.487 93.773c.696 1.182 1.513 2.062 2.44 2.668-.149-.215-.3-.43-.44-.668l-24.487-93.773c-.184-2.587.379-3.953 1.688-4.098l15.752-1.103c.43-.03.88.105 1.345.383-1.21-1.65-2.326-2.455-3.345-2.383z" fill="#bb000f"/>
    <path d="M157.411.97c-5.299.396-10.612.69-15.916 1.164-2.905.626-4.82 3.227-5.93 5.815-.915 1.726-.734 3.738-1.066 5.61l-2.607 22.173c-2.333-8.626-4.663-17.252-6.998-25.877-1.508-2.45-3.367-5.072-6.303-5.846-2.004-.443-4.066.074-6.09.113-4.122.322-8.278.5-12.406.942-2.732.565-4.472 3.349-4.553 6.02-.317 2.63.781 5.112 1.344 7.628l23.408 89.643c1.741 3.333 5.144 6.028 9.021 6.04 2.604.03 5.191-.34 7.79-.46 2.916-.242 5.86-.284 8.751-.752 3.734-.857 6.868-3.98 7.733-7.71 3.667-32.219 7.333-64.444 11.004-96.665-.079-2.758-1.167-5.8-3.754-7.133-1.046-.555-2.251-.77-3.428-.705zm.283 3.988c1.737-.068 2.697 1.191 2.881 3.778l-10.957 96.26c-1.125 2.73-3.05 4.218-5.777 4.462l-13.705.961c-2.577.128-4.615-1.081-6.115-3.629L99.534 13.017c-.184-2.587.379-3.953 1.688-4.098l15.752-1.103c1.26-.089 2.667 1.138 4.22 3.681l12.248 45.295 5.473-46.537c1.125-2.731 2.344-4.144 3.656-4.236z" fill="#fad60b"/>
    <path d="m274.056 26.685-11.811-.382-.637 23.82 11.886.298q.635.04 1.266.001 4.098-.254 7.233-3.231 3.504-3.399 3.589-8.335.039-.639 0-1.272-.26-4.12-3.228-7.277-3.387-3.528-8.298-3.622zm10.589 53.825-.158.01q.177-.966.19-2 .044-.56.01-1.115-.265-4.198-3.316-7.43-3.387-3.528-8.298-3.621l-11.807-.303-.983 39.668q-.091 3.584-3.48 3.794l-.551.034-11.807-.303q-3.645-.092-3.86-3.499l-.035-.554 2.31-95.264q.09-3.585 3.479-3.795l.551-.034 27.653.674q13.078.383 22.104 9.289 8.02 8.013 8.693 18.709.08 1.267.086 2.619-.335 12.269-9.766 20.806-.374.341-.9.771.497.367.842.823 8.016 7.934 8.69 18.63.079 1.267.085 2.619l-.67 25.81q-.09 3.585-3.479 3.794l-.551.035-11.807-.303q-3.645-.093-3.86-3.5l-.035-.554z" fill="#f3010f"/>
    <path d="M248.35 6.109c-2.89.066-5.855 1.727-6.865 4.539-.968 2.443-.545 5.121-.734 7.68-.732 30.41-1.49 60.82-2.193 91.23.009 2.963 1.694 6.038 4.582 7.06 2.487.97 5.205.553 7.806.743 2.904.028 5.9.285 8.846.082 2.983-.344 5.699-2.64 6.232-5.645.475-2.295.225-4.656.381-6.98l.762-30.66c2.802.074 5.567.1 8.314.244 4.294.125 7.824 4.52 7.155 8.74-.285 2.054-.65 4.096-.953 6.148.831-.419.956.03.814.805-.164 7.02-.417 14.04-.492 21.06.132 2.95 2.03 5.876 4.94 6.727 2.428.797 5.022.427 7.529.61 2.827.027 5.76.271 8.642.091 3.02-.304 5.79-2.611 6.332-5.648.476-2.296.232-4.657.389-6.983.165-7.494.462-14.988.514-22.484-.159-6.798-2.487-13.545-6.713-18.889a32.026 32.026 0 0 0-1.201-1.457c5.054-5.253 8.324-12.236 8.86-19.527.64-7.453-1.257-15.145-5.571-21.287-4.977-7.176-12.599-12.568-21.147-14.508-3.711-.931-7.551-1.077-11.36-1.11-8.289-.193-16.578-.425-24.868-.581zm.54 3.99 27.654.674c8.718.255 16.086 3.352 22.103 9.289 5.347 5.342 8.245 11.577 8.694 18.707.053.845.082 1.718.086 2.619-.224 8.18-3.479 15.115-9.766 20.807-.25.227-.551.484-.902.771.332.245.613.518.843.822 5.344 5.29 8.241 11.501 8.69 18.631.053.845.08 1.718.084 2.62l-.668 25.81c-.06 2.39-1.221 3.653-3.48 3.793l-.551.035-11.807-.303c-2.43-.061-3.716-1.229-3.86-3.5l-.034-.554.67-25.81-.159.009a12 12 0 0 0 .19-2c.029-.373.033-.744.01-1.113-.177-2.8-1.282-5.276-3.317-7.43-2.257-2.352-5.023-3.56-8.297-3.623l-11.806-.303-.985 39.668c-.06 2.39-1.22 3.655-3.478 3.795l-.553.035-11.806-.302c-2.43-.062-3.717-1.23-3.86-3.5l-.035-.555 2.309-95.264c.06-2.39 1.22-3.655 3.48-3.795zm15.355 20.205-.637 23.818 11.885.3c.424.026.847.025 1.268 0 2.732-.17 5.142-1.246 7.232-3.231 2.336-2.266 3.533-5.043 3.59-8.334.026-.426.025-.851-.002-1.274-.173-2.746-1.248-5.17-3.227-7.275-2.257-2.352-5.024-3.56-8.298-3.623zm3.89 4.125 7.772.252c4.013-.104 7.679 3.443 7.692 7.46.138 2.591-.974 5.247-3.104 6.78-1.55 1.211-3.558 1.71-5.5 1.487l-7.281-.184.422-15.795z" fill="#845f23"/>
    <path d="M248.128 6.128c-1.797.092-3.592.792-4.92 1.998-.207.508-.332 1.1-.35 1.801l-2.308 95.264.035.554c.1 1.58.766 2.613 1.973 3.123l2.3-94.94c.06-2.39 1.222-3.656 3.48-3.796l.552-.033 27.654.674c8.718.255 16.086 3.352 22.103 9.289a31.594 31.594 0 0 1 4.774 6.064c-1.456-3.648-3.71-7.003-6.774-10.064-6.017-5.937-13.385-9.034-22.103-9.29zm37.076 29.19c.196.73.328 1.483.377 2.265.027.423.028.848.002 1.274-.052 3.016-1.074 5.595-3.041 7.75a7.24 7.24 0 0 1-2.047 2.314c-1.55 1.211-3.558 1.71-5.5 1.487l-.084-.002c-.05.003-.1.012-.15.015-.42.026-.844.027-1.268 0l-9.78-.246-.105 3.947 11.885.3c.424.026.847.025 1.268 0 2.732-.17 5.142-1.246 7.232-3.231 2.336-2.266 3.534-5.043 3.59-8.334.026-.426.025-.851-.002-1.274-.146-2.319-.944-4.404-2.377-6.265zm12.537 26.8c-.027.025-.052.052-.08.077-.25.227-.551.484-.902.771.332.245.613.518.844.822a31.116 31.116 0 0 1 4.787 6.045c-1.093-2.743-2.643-5.315-4.649-7.715zm-13.445 12.96c.204.75.34 1.524.39 2.328.024.37.02.74-.01 1.113-.008.69-.071 1.356-.189 2l.158-.01-.67 25.81.036.555c.099 1.581.764 2.615 1.972 3.125l.662-25.49-.158.01a12 12 0 0 0 .19-2c.029-.373.032-.744.01-1.113-.147-2.335-.951-4.443-2.391-6.329z" fill="#bb000f"/>
    <path d="M246.35 2.109c-2.89.066-5.855 1.727-6.865 4.539-.968 2.443-.545 5.121-.734 7.68-.732 30.41-1.49 60.82-2.193 91.23.009 2.963 1.694 6.038 4.582 7.06 2.487.97 5.205.553 7.806.743 2.904.028 5.9.285 8.846.082 2.983-.344 5.699-2.64 6.232-5.645.475-2.295.225-4.656.381-6.98l.762-30.66c2.802.074 5.567.1 8.314.244 4.294.125 7.824 4.52 7.155 8.74-.285 2.054-.65 4.096-.953 6.148.831-.419.956.03.814.805-.164 7.02-.417 14.04-.492 21.06.132 2.95 2.03 5.876 4.94 6.727 2.428.797 5.022.427 7.529.61 2.827.027 5.76.271 8.642.091 3.02-.304 5.79-2.611 6.332-5.648.476-2.296.232-4.657.389-6.983.165-7.494.462-14.988.514-22.484-.159-6.798-2.487-13.545-6.713-18.889a32.026 32.026 0 0 0-1.201-1.457c5.054-5.253 8.324-12.236 8.86-19.527.64-7.453-1.257-15.145-5.571-21.287-4.977-7.176-12.599-12.568-21.147-14.508-3.711-.931-7.551-1.077-11.36-1.11-8.289-.193-16.578-.425-24.868-.581zm.54 3.99 27.654.674c8.718.255 16.086 3.352 22.103 9.289 5.347 5.342 8.245 11.577 8.694 18.707.053.845.082 1.718.086 2.619-.224 8.18-3.479 15.115-9.766 20.807-.25.227-.551.484-.902.771.332.245.613.518.843.822 5.344 5.29 8.241 11.501 8.69 18.631.053.845.08 1.718.084 2.62l-.668 25.81c-.06 2.39-1.221 3.653-3.48 3.793l-.551.035-11.807-.303c-2.43-.061-3.716-1.229-3.86-3.5l-.034-.554.67-25.81-.159.009a12 12 0 0 0 .19-2c.029-.373.033-.744.01-1.113-.177-2.8-1.282-5.276-3.317-7.43-2.257-2.352-5.023-3.56-8.297-3.623l-11.806-.303-.985 39.668c-.06 2.39-1.22 3.655-3.478 3.795l-.553.035-11.806-.302c-2.43-.062-3.717-1.23-3.86-3.5l-.035-.555 2.309-95.264c.06-2.39 1.22-3.655 3.48-3.795zm15.355 20.205-.637 23.818 11.885.3c.424.026.847.025 1.268 0 2.732-.17 5.142-1.246 7.232-3.231 2.336-2.266 3.533-5.043 3.59-8.334.026-.426.025-.851-.002-1.274-.173-2.746-1.248-5.17-3.227-7.275-2.257-2.352-5.024-3.56-8.298-3.623zm3.89 4.125 7.772.252c4.013-.104 7.679 3.443 7.692 7.46.138 2.591-.974 5.247-3.104 6.78-1.55 1.211-3.558 1.71-5.5 1.487l-7.281-.184.422-15.795z" fill="#fad60b"/>
    <path d="m476.639 62.443 5.688-49.925q.45-3.944 4.371-3.493l11.766 1.353q3.922.451 3.473 4.395l-10.783 94.644q-.45 3.944-4.293 3.502l-11.923-1.371q-3.843-.442-7.316-4.837l-13.93-52.1-5.68 49.845q-.45 3.944-4.371 3.493l-11.766-1.353q-3.922-.451-3.473-4.395l10.783-94.644q.45-3.944 4.372-3.493l13.727 1.579q3.922.45 5.346 4.69z" fill="#f3010f"/>
    <path d="M444.458 4.005c-2.798.066-5.58 1.765-6.564 4.447-.94 2.326-.813 4.889-1.211 7.329-3.444 30.266-6.911 60.529-10.32 90.798-.218 3.07 1.546 6.3 4.517 7.356 2.261.887 4.739.78 7.105 1.162 2.98.3 5.948.81 8.944.898 3.076-.087 5.978-2.317 6.687-5.341.615-2.324.617-4.75.977-7.118l2.681-23.54 8.71 32.574c2.485 3.315 5.913 6.308 10.15 6.906 4.538.508 9.07 1.13 13.62 1.5 3.121.045 6.174-2.116 6.954-5.178.659-2.31.638-4.739 1.004-7.101 3.424-30.101 6.874-60.2 10.264-90.305.219-3.069-1.547-6.297-4.518-7.354-2.295-.893-4.805-.786-7.205-1.173-2.95-.295-5.887-.802-8.852-.885-3.08.09-5.982 2.329-6.683 5.36-.613 2.35-.622 4.804-.983 7.198l-2.687 23.59c-2.918-10.813-5.787-21.638-8.76-32.433-1.2-3.613-4.446-6.632-8.322-6.975-4.845-.63-9.709-1.125-14.56-1.7a9.539 9.539 0 0 0-.948-.015zm.172 4.016c.29-.008.599.005.926.043l13.728 1.578c2.615.3 4.396 1.865 5.346 4.691l14.01 52.11 5.687-49.926c.3-2.63 1.757-3.793 4.371-3.492l11.766 1.353c2.615.3 3.772 1.766 3.473 4.395l-10.784 94.644c-.3 2.63-1.73 3.797-4.293 3.502l-11.922-1.37c-2.562-.296-5-1.907-7.316-4.837L455.69 58.611l-5.677 49.845c-.3 2.63-1.757 3.793-4.371 3.493l-11.768-1.354c-2.615-.3-3.772-1.765-3.473-4.395l10.784-94.644c.262-2.3 1.41-3.478 3.445-3.535z" fill="#845f23"/>
    <path d="M443.687 4.08c-1.516.197-2.975.853-4.094 1.88a5.586 5.586 0 0 0-.408 1.596L428.4 102.2c-.235 2.062.44 3.398 1.998 4.028l.002-.027 10.784-94.645c.262-2.3 1.41-3.478 3.445-3.535.29-.008.599.005.926.043l13.728 1.578c1.48.17 2.681.76 3.627 1.738l-.281-1.047c-.95-2.826-2.731-4.39-5.346-4.691zm43.17 4.962a7.275 7.275 0 0 0-4.145 1.938 5.634 5.634 0 0 0-.385 1.537l-5.412 47.51 1.725 6.416 5.687-49.926c.3-2.63 1.757-3.793 4.371-3.492l11.766 1.353a5.596 5.596 0 0 1 1.474.367c.288-2.61-.87-4.067-3.474-4.367zM455.69 58.611l-.277 2.44 12.21 45.661c.439.557.884 1.049 1.333 1.51z" fill="#bb000f"/>
    <path d="M442.458.005c-2.798.066-5.58 1.765-6.564 4.447-.94 2.326-.813 4.889-1.211 7.329-3.444 30.266-6.911 60.529-10.32 90.798-.218 3.07 1.546 6.3 4.517 7.356 2.261.887 4.739.78 7.105 1.162 2.98.3 5.948.81 8.944.898 3.076-.087 5.978-2.317 6.687-5.341.615-2.324.617-4.75.977-7.118l2.681-23.54 8.71 32.574c2.485 3.315 5.913 6.308 10.15 6.906 4.538.508 9.07 1.13 13.62 1.5 3.121.045 6.174-2.116 6.954-5.178.659-2.31.638-4.739 1.004-7.101 3.424-30.101 6.874-60.2 10.264-90.305.219-3.069-1.547-6.297-4.518-7.354-2.295-.893-4.805-.786-7.205-1.173-2.95-.295-5.887-.802-8.852-.885-3.08.09-5.982 2.329-6.683 5.36-.613 2.35-.622 4.804-.983 7.198l-2.687 23.59c-2.918-10.813-5.787-21.638-8.76-32.433-1.2-3.613-4.446-6.632-8.322-6.975-4.845-.63-9.709-1.125-14.56-1.7a9.537 9.537 0 0 0-.948-.015zm.172 4.016c.29-.008.599.005.926.043l13.728 1.578c2.615.3 4.396 1.865 5.346 4.691l14.01 52.11 5.687-49.926c.3-2.63 1.757-3.793 4.371-3.492l11.766 1.353c2.615.3 3.772 1.766 3.473 4.395l-10.784 94.644c-.3 2.63-1.73 3.797-4.293 3.502l-11.922-1.37c-2.562-.296-5-1.907-7.316-4.837L453.69 54.611l-5.677 49.845c-.3 2.63-1.757 3.793-4.371 3.493l-11.768-1.354c-2.615-.3-3.772-1.765-3.473-4.395l10.784-94.644c.262-2.3 1.41-3.478 3.445-3.535z" fill="#fad60b"/>
    <path d="m393.185 67.5 2.559 23.677 39.254-4.2q3.925-.42 4.352 3.526l1.279 11.838q.426 3.946-3.5 4.366l-54.955 5.88q-3.926.42-4.352-3.526L367.59 14.356q-.427-3.947 3.499-4.367l54.956-5.88q3.925-.42 4.351 3.526l1.28 11.839q.426 3.946-3.5 4.366l-39.254 4.2 2.559 23.676 31.403-3.36q3.926-.42 4.352 3.526l.853 7.892q.426 3.947-3.5 4.367z" fill="#f3010f"/>
    <path d="M428.335 4.08c-18.456 1.916-36.9 3.954-55.356 5.88-2.657.221-5.413 1.514-6.615 4.014-1.4 2.684-.584 5.758-.343 8.603 3.31 30.58 6.594 61.165 9.939 91.74.454 3.012 2.841 5.751 5.932 6.165 2.227.393 4.407-.193 6.587-.332 17.307-1.864 34.62-3.671 51.92-5.584 3.092-.456 5.86-3.001 6.164-6.18.308-2.427-.32-4.837-.476-7.252-.37-2.961-.5-5.965-1.111-8.889-.793-2.96-3.607-5.26-6.7-5.275-2.34-.076-4.646.435-6.974.594l-30.012 3.21-1.7-15.722c9.486-1.033 18.981-1.987 28.458-3.088 3.058-.52 5.728-3.102 5.992-6.252.262-2.36-.317-4.7-.494-7.045-.288-2.729-.29-5.806-2.27-7.949-1.613-1.83-4.151-2.652-6.547-2.342-3.808.337-7.603.817-11.408 1.196l-16.295 1.742-1.699-15.723c12.07-1.306 24.148-2.548 36.211-3.912 3.094-.485 5.818-3.076 6.086-6.258.273-2.429-.345-4.835-.502-7.252-.362-2.928-.499-5.895-1.1-8.787-.773-2.868-3.432-5.131-6.425-5.273-.42-.04-.841-.043-1.262-.03zm.635 3.994c2.034.073 3.177 1.26 3.426 3.562l1.279 11.838c.284 2.63-.883 4.085-3.5 4.365L390.92 32.04l2.558 23.676 31.405-3.36c2.617-.28 4.067.895 4.351 3.526l.852 7.893c.284 2.63-.881 4.085-3.498 4.365L395.185 71.5l2.558 23.676 39.254-4.2c2.617-.28 4.07.896 4.354 3.526l1.277 11.838c.284 2.63-.881 4.087-3.498 4.367l-54.955 5.88c-2.617.28-4.07-.895-4.354-3.526L369.59 18.355c-.284-2.63.881-4.085 3.498-4.365l54.957-5.881c.327-.035.635-.046.926-.035z" fill="#845f23"/>
    <path d="M427.632 4.154C409.41 6.048 391.2 8.058 372.979 9.96c-1.863.155-3.765.851-5.156 2.108-.246.627-.332 1.381-.234 2.287l10.232 94.707c.179 1.652.82 2.728 1.918 3.232l-10.15-93.94c-.284-2.63.881-4.084 3.498-4.364l54.957-5.881c.327-.035.635-.046.926-.035.577.02 1.076.14 1.51.341l-.085-.779c-.22-2.036-1.146-3.19-2.763-3.482zm-3.15 44.248c-3.725.335-7.438.8-11.16 1.17l-16.296 1.742c-.007-.063-.012-.127-.02-.19l-3.976.426.45 4.166 31.404-3.36c.973-.103 1.783-.005 2.433.294l-.082-.768c-.22-2.032-1.142-3.185-2.754-3.48zm12.02 38.609c-1.736.12-3.462.434-5.2.553l-30.012 3.21-.02-.189-3.976.426.45 4.166 39.253-4.2c.973-.103 1.785-.005 2.436.294l-.082-.768c-.224-2.069-1.182-3.223-2.848-3.492z" fill="#bb000f"/>
    <path d="M426.335.08c-18.456 1.916-36.9 3.954-55.356 5.88-2.657.221-5.413 1.514-6.615 4.014-1.4 2.684-.584 5.758-.343 8.603 3.31 30.58 6.594 61.165 9.939 91.74.454 3.012 2.841 5.751 5.932 6.165 2.227.393 4.407-.193 6.587-.332 17.307-1.864 34.62-3.671 51.92-5.584 3.092-.456 5.86-3.001 6.164-6.18.308-2.427-.32-4.837-.476-7.252-.37-2.961-.5-5.965-1.111-8.889-.793-2.96-3.607-5.26-6.7-5.275-2.34-.076-4.646.435-6.974.594l-30.012 3.21-1.7-15.722c9.486-1.033 18.981-1.987 28.458-3.088 3.058-.52 5.728-3.102 5.992-6.252.262-2.36-.317-4.7-.494-7.045-.288-2.729-.29-5.806-2.27-7.949-1.613-1.83-4.151-2.652-6.547-2.342-3.808.337-7.603.817-11.408 1.196l-16.295 1.742-1.699-15.723c12.07-1.306 24.148-2.548 36.211-3.912 3.094-.485 5.818-3.076 6.086-6.258.273-2.429-.345-4.835-.502-7.252-.362-2.928-.499-5.895-1.1-8.787-.773-2.868-3.432-5.131-6.425-5.273a10.08 10.08 0 0 0-1.262-.03zm.635 3.994c2.034.073 3.177 1.26 3.426 3.562l1.279 11.838c.284 2.63-.883 4.085-3.5 4.365L388.92 28.04l2.558 23.676 31.405-3.36c2.617-.28 4.067.895 4.351 3.526l.852 7.893c.284 2.63-.881 4.085-3.498 4.365L393.185 67.5l2.558 23.676 39.254-4.2c2.617-.28 4.07.896 4.354 3.526l1.277 11.838c.284 2.63-.881 4.087-3.498 4.367l-54.955 5.88c-2.617.28-4.07-.895-4.354-3.526L367.59 14.355c-.284-2.63.881-4.085 3.498-4.365l54.957-5.881c.327-.035.635-.046.926-.035z" fill="#fad60b"/>
    <path d="M358.598 106.992q-.123 3.968-4.069 3.841l-11.837-.378q-3.946-.127-3.823-4.094l2.455-79.343-17.756-.568q-3.945-.126-3.823-4.093l.369-11.902q.122-3.967 4.068-3.84l55.242 1.767q3.945.126 3.823 4.093l-.369 11.902q-.123 3.967-4.068 3.84l-17.756-.568z" fill="#f3010f"/>
    <path d="M325.52 6.618c-3.183-.011-6.335 2.197-7.05 5.366-.605 2.367-.325 4.835-.504 7.25-.045 2.867-.31 5.836-.139 8.754.34 3.082 2.828 5.81 5.928 6.255 2.338.4 4.724.214 7.082.375 2.788.09 5.575.18 8.363.268-.776 25.396-1.6 50.79-2.33 76.188.03 3.082 2.074 6.154 5.127 6.955 2.359.696 4.849.382 7.27.572 2.913.045 5.913.317 8.87.154 3.056-.335 5.763-2.782 6.237-5.847.425-2.338.224-4.728.389-7.088l2.166-70.045c5.018.135 10.037.386 15.056.418 3.012-.199 5.873-2.362 6.541-5.364.6-2.362.322-4.823.5-7.232.046-2.868.307-5.837.141-8.756-.345-3.055-2.788-5.772-5.861-6.238-2.36-.416-4.771-.226-7.153-.39-16.878-.53-33.754-1.109-50.632-1.595zm.663 3.997 55.24 1.767c2.63.084 3.906 1.45 3.824 4.094l-.37 11.9c-.081 2.645-1.437 3.926-4.067 3.842l-17.756-.568-2.455 79.342c-.082 2.644-1.438 3.925-4.069 3.841l-11.838-.379c-2.63-.084-3.906-1.449-3.824-4.093l2.457-79.342-17.758-.569c-2.63-.084-3.904-1.448-3.822-4.093l.37-11.903c.081-2.644 1.437-3.924 4.068-3.84z" fill="#845f23"/>
    <path d="M325.18 6.646a7.522 7.522 0 0 0-4.728 2.002c-.2.509-.316 1.106-.338 1.806l-.369 11.903c-.06 1.935.615 3.178 2.008 3.742l.361-11.645c.082-2.644 1.438-3.924 4.069-3.84l55.24 1.768c.706.023 1.306.145 1.816.352l.008-.258c.082-2.645-1.193-4.01-3.824-4.094zm16.024 24.304-2.336 75.41c-.06 1.936.616 3.179 2.008 3.743l2.45-79.084z" fill="#bb000f"/>
    <path d="M323.52 2.618c-3.183-.011-6.335 2.197-7.05 5.366-.605 2.367-.325 4.835-.504 7.25-.045 2.867-.31 5.836-.139 8.754.34 3.082 2.828 5.81 5.928 6.255 2.338.4 4.724.214 7.082.375 2.788.09 5.575.18 8.363.268-.776 25.396-1.6 50.79-2.33 76.188.03 3.082 2.074 6.154 5.127 6.955 2.359.696 4.849.382 7.27.572 2.913.045 5.913.317 8.87.154 3.056-.335 5.763-2.782 6.237-5.847.425-2.338.224-4.728.389-7.088l2.166-70.045c5.018.135 10.037.386 15.056.418 3.012-.199 5.873-2.362 6.541-5.364.6-2.362.322-4.823.5-7.232.046-2.868.307-5.837.141-8.756-.345-3.055-2.788-5.772-5.861-6.238-2.36-.416-4.771-.226-7.153-.39-16.878-.53-33.754-1.109-50.632-1.595zm.663 3.997 55.24 1.767c2.63.084 3.906 1.45 3.824 4.094l-.37 11.9c-.081 2.645-1.437 3.926-4.067 3.842l-17.756-.568-2.455 79.342c-.082 2.644-1.438 3.925-4.069 3.841l-11.838-.379c-2.63-.084-3.906-1.449-3.824-4.093l2.457-79.342-17.758-.569c-2.63-.084-3.904-1.448-3.822-4.093l.37-11.903c.081-2.644 1.437-3.924 4.068-3.84z" fill="#fad60b"/>
    <g stroke-width="2.5">
        <path d="M325.808 104.728q.167 3.965-3.7 4.123l-11.912.487q-3.944.161-4.11-3.804l-3.992-95.174q-.166-3.965 3.779-4.126l11.833-.484q3.945-.161 4.111 3.804z" fill="#f3010f"/>
        <path d="M319.606 5.751c-4.438.22-8.888.274-13.318.627-3.063.458-5.742 3.008-6.068 6.135-.316 2.363.091 4.74.093 7.111 1.274 30.304 2.522 60.61 3.836 90.912.257 3.038 2.463 5.931 5.526 6.541 2.43.561 4.927.053 7.386.063 2.979-.17 5.98-.113 8.94-.5 3.015-.573 5.506-3.243 5.72-6.33.231-2.412-.133-4.83-.148-7.244-1.268-30.137-2.513-60.275-3.812-90.41-.216-3.035-2.373-5.948-5.41-6.623-.893-.243-1.823-.299-2.745-.282zm.1 3.998c2.63-.107 4 1.161 4.111 3.805l3.99 95.174c.111 2.644-1.122 4.018-3.699 4.123l-11.912.488c-2.63.108-4-1.16-4.111-3.805l-3.99-95.173c-.111-2.644 1.147-4.02 3.777-4.127z" fill="#845f23"/>
        <path d="M317.606 1.751c-4.438.22-8.888.274-13.318.627-3.063.458-5.742 3.008-6.068 6.135-.316 2.363.091 4.74.093 7.111 1.274 30.304 2.522 60.61 3.836 90.912.257 3.038 2.463 5.931 5.526 6.541 2.43.561 4.927.053 7.386.063 2.979-.17 5.98-.113 8.94-.5 3.015-.573 5.506-3.243 5.72-6.33.231-2.412-.133-4.83-.148-7.244-1.268-30.137-2.513-60.275-3.812-90.41-.216-3.035-2.373-5.948-5.41-6.623-.893-.243-1.823-.299-2.745-.282zm.1 3.998c2.63-.107 4 1.161 4.111 3.805l3.99 95.174c.111 2.644-1.122 4.018-3.699 4.123l-11.912.488c-2.63.108-4-1.16-4.111-3.805l-3.99-95.173c-.111-2.644 1.147-4.02 3.777-4.127z" fill="#fad60b"/>
    </g>
    <path d="M318.7 5.786c-4.138.187-8.284.263-12.412.592-1.46.218-2.822.922-3.894 1.926-.223.571-.333 1.248-.3 2.057l3.991 95.173c.075 1.793.743 2.938 1.977 3.465l-3.967-94.638c-.111-2.644 1.147-4.02 3.777-4.127l11.834-.485c.846-.034 1.547.09 2.133.34l-.022-.535c-.096-2.286-1.137-3.539-3.117-3.768z" fill="#bb000f"/>
</svg>
