<?xml version="1.0" encoding="UTF-8" standalone="no"?>
<svg
   version="1.1"
   viewBox="0 0 887 405"
   id="svg450"
   sodipodi:docname="auto-shooter.svg"
   inkscape:version="1.1.2 (0a00cf5339, 2022-02-04)"
   xmlns:inkscape="http://www.inkscape.org/namespaces/inkscape"
   xmlns:sodipodi="http://sodipodi.sourceforge.net/DTD/sodipodi-0.dtd"
   xmlns:xlink="http://www.w3.org/1999/xlink"
   xmlns="http://www.w3.org/2000/svg"
   xmlns:svg="http://www.w3.org/2000/svg">
  <defs
     id="defs454">
    <linearGradient
       inkscape:collect="always"
       id="linearGradient29416">
      <stop
         style="stop-color:#b3b3b3;stop-opacity:1"
         offset="0"
         id="stop29412" />
      <stop
         style="stop-color:#ffffff;stop-opacity:1"
         offset="1"
         id="stop29414" />
    </linearGradient>
    <linearGradient
       inkscape:collect="always"
       id="linearGradient14930">
      <stop
         style="stop-color:#24435c;stop-opacity:1"
         offset="0"
         id="stop14926" />
      <stop
         style="stop-color:#ae1a1d;stop-opacity:1"
         offset="1"
         id="stop14928" />
    </linearGradient>
    <linearGradient
       inkscape:collect="always"
       xlink:href="#linearGradient14930"
       id="linearGradient14932-2"
       x1="464.91992"
       y1="357.8692"
       x2="469.00485"
       y2="327.10306"
       gradientUnits="userSpaceOnUse" />
    <linearGradient
       inkscape:collect="always"
       xlink:href="#linearGradient14930"
       id="linearGradient28621-5"
       gradientUnits="userSpaceOnUse"
       x1="453.84464"
       y1="333.41876"
       x2="453.84464"
       y2="142.10686" />
    <linearGradient
       inkscape:collect="always"
       xlink:href="#linearGradient29416"
       id="linearGradient29374"
       x1="441.37119"
       y1="306.70169"
       x2="443.01349"
       y2="178.46254"
       gradientUnits="userSpaceOnUse"
       gradientTransform="matrix(1,0,0,1.0007754,0,-0.3139655)" />
  </defs>
  <sodipodi:namedview
     id="namedview452"
     pagecolor="#ffffff"
     bordercolor="#666666"
     borderopacity="1.0"
     inkscape:pageshadow="2"
     inkscape:pageopacity="0.0"
     inkscape:pagecheckerboard="0"
     showgrid="false"
     inkscape:zoom="1.6187984"
     inkscape:cx="217.44524"
     inkscape:cy="407.09208"
     inkscape:window-width="1920"
     inkscape:window-height="1011"
     inkscape:window-x="1920"
     inkscape:window-y="32"
     inkscape:window-maximized="1"
     inkscape:current-layer="svg450" />
  <g
     fill="#951a22"
     id="g312" />
  <g
     fill="#24435c"
     id="g318" />
  <g
     fill="#6a293a"
     id="g336" />
  <g
     fill="#41394f"
     id="g356" />
  <g
     fill="#ae1a1d"
     id="g372" />
  <g
     fill="#7a2131"
     id="g418" />
  <path
     fill="#d9d9d9"
     d="m 190.64151,-0.40799841 h 11.25 c 11.43,0.59045749 21.23,2.44189201 29.74,7.26562941 a 1.02,1.0207909 0 0 0 0.95,0.020015 c 25.89,-13.3603509 53.64,-4.9838615 58.48,26.050184 2,12.819943 -5.7,24.589062 -18.36,28.822342 a 1.0007554,0.99001985 81.077177 0 0 -0.68,0.960744 l 0.07,9.167103 q 0.02,3.022341 1.49,0.380295 c 5.62,-10.047785 38.5,-12.059344 48.94,-12.359577 23.36,-0.690535 38.28,18.954687 29.55,41.271973 q -2.33,5.96463 -4.41,12.2595 a 1,1.0007754 0 0 0 0.7,1.281 q 12.01,3.19246 19.92,12.74987 2.13,2.572 4.22,5.04391 a 0.99,0.99076762 0 0 0 1.52,0 q 11.86,-14.10093 29.27,-20.43583 c 25.96,-9.43731 54.44,0.63049 70.56,21.90697 a 1.0004254,0.99034633 48.891238 0 0 1.55,0.05 c 20.04,-23.36811 52.96,-33.50596 80.35,-16.2526 q 0.63,0.40032 1.57,1.96153 a 1.0207881,1.070003 86.54412 0 0 0.47,0.4003 q 4.85,2.0516 8.32,5.96463 a 0.99,0.99076762 0 0 0 1.65,-0.24019 l 3.54,-7.70597 a 1,1.0007754 0 0 0 -0.92,-1.4211 q -8.98,0.16013 -12.76,-1.11086 -14.07,-4.72366 -15.55,-19.965467 c -0.9,-9.277188 -3.2,-21.206431 -0.62,-29.312712 3.67,-11.548948 14.81,-19.485097 27.13,-17.963918 q 15.8,1.951512 31.65,3.662837 a 0.98005304,1.0007212 15.048711 0 0 1.01,-0.580449 q 5.98,-13.040114 12.31,-27.111015 c 4.99,-11.118616 10.47,-15.6221049 22.51,-17.4935552 q 14.01,-2.1716826 28.03,-4.2032567 7.2,-1.0408064 10.48,-1.0207909 c 13.27,0.1100852 24.73,8.9469318 25.73,22.4774158 0.86,11.689057 -3.59,20.125604 -7.35,30.223428 a 1,1.0007754 0 0 0 1,1.351046 c 34.43997,-2.27176 69.15997,-17.06323 98.85997,-35.027149 8.05,-4.863768 15.97,-6.545071 24.53,-2.772148 q 4.06,1.791389 10.95,8.24639 18.13,17.033207 36.28,34.046388 11.94,11.198678 12.34,11.619003 5.87,6.1948 10.28,13.59053 l -0.11,7.08549 q -4.3,8.746773 -14.56,12.129393 -6.57,2.16168 -9.84,3.11242 -1.64,0.47036 -0.23,1.43111 7.96,5.39418 14.12,12.77989 c 9.08,10.89845 10.01,21.17642 9.85,36.27811 -0.25,23.57827 -5.3,47.66694 -9.58,70.81487 q -3.02,16.35267 -5.01,22.01707 c -7.33,20.77609 -25.68,39.03023 -44.27,50.03876 q -9.32,5.51428 -17.72,6.75523 -42.74,6.28487 -76.68,-19.42505 a 1.0002492,0.99052081 35.593166 0 0 -1.47,0.29023 c -12.02997,20.91621 -35.83997,28.17183 -56.64997,14.79146 q -3.72,-2.39185 -7.07,-5.31412 a 1.01,1.0107831 0 0 0 -1.32,0 q -21.89,19.12482 -47.04,3.80295 a 1,1.0007754 0 0 0 -1.49,0.63048 q -4.44,19.20489 -24.38,21.53669 a 1.0400482,1.0307509 14.730635 0 0 -0.71,0.43034 q -1.68,2.45189 -2.9,5.15399 c -23.9,53.0411 -91.25,70.96498 -143.36,75.17825 h -29.25 q -42.93,-1.46113 -80.2,-11.19867 -57.27,-14.9716 -112.48,-36.99867 a 1.0002738,0.99049645 37.536813 0 0 -1.03,0.17013 c -33.36,28.64219 -78.39,40.64148 -121.65,36.53831 -5.180014,-0.49038 -9.040004,-1.57122 -13.760006,-3.3626 C 56.151499,377.77502 28.081499,358.78031 10.191498,328.76706 3.2914979,317.18809 0.92149795,304.15799 0.08149793,290.75761 v -8.2564 C 2.1714979,229.13987 37.071499,183.44446 88.391504,168.33276 q 12.049996,-3.55276 24.129996,0.11008 3.53,1.07083 1.02,-1.64127 -13.17,-14.22102 -23.949996,-32.14491 c -16.14,-26.83079 -13.11,-69.543883 8.599992,-92.651786 0.920005,-0.970753 1.510005,-2.471916 2.340004,-3.382632 23.81,-26.29037 55.06001,-37.0386974 90.11001,-39.03024041 z"
     id="path2"
     style="fill:url(#linearGradient29374);fill-opacity:1;stroke:none;stroke-width:1.00039" />
  <path
     fill="#d9d9d9"
     d="m 192.38555,4.2496712 h 11.16558 C 214.89537,4.8263091 224.62185,6.63441 233.068,11.345246 a 1.0123469,0.99689898 0 0 0 0.94287,0.01956 c 25.69574,-13.0476497 53.23753,-4.8672139 58.0412,25.440468 1.98501,12.519887 -5.65722,24.013547 -18.22223,28.147745 a 0.98327156,0.97665651 14.65854 0 0 -0.67491,0.938259 l 0.0695,8.952544 q 0.0198,2.951603 1.47881,0.371394 c 5.57783,-9.812614 38.21113,-11.777092 48.57279,-12.070299 23.18474,-0.674372 37.9928,18.511047 29.32829,40.305993 q -2.31251,5.82503 -4.37691,11.97256 a 0.99249686,0.97735195 0 0 0 0.69475,1.25102 q 11.91988,3.11775 19.77054,12.45146 2.11401,2.51179 4.18833,4.92583 a 0.98257189,0.96757844 0 0 0 1.5086,0 q 11.771,-13.77087 29.05037,-19.95752 c 25.76523,-9.21642 54.03154,0.61573 70.03059,21.39424 a 0.98875088,0.97124421 17.08248 0 0 1.53836,0.049 c 19.88964,-22.82118 52.56264,-32.72176 79.74713,-15.87219 q 0.62528,0.39093 1.55822,1.91561 a 0.99693987,1.0619281 87.426789 0 0 0.46648,0.39093 q 4.81362,2.00357 8.25757,5.82502 a 0.98257189,0.96757844 0 0 0 1.63762,-0.23457 l 3.51345,-7.52561 a 0.99249686,0.97735195 0 0 0 -0.91311,-1.38784 q -8.91261,0.15637 -12.66424,-1.08486 -13.96445,-4.6131 -15.43333,-19.498164 c -0.89326,-9.060053 -3.17599,-20.710087 -0.61535,-28.626639 3.64245,-11.278642 14.69887,-19.029043 26.92644,-17.543467 q 15.68144,1.905835 31.41252,3.577108 a 0.96982452,0.98019627 39.847097 0 0 1.00243,-0.566866 q 5.93513,-12.734905 12.21763,-26.476472 c 4.95255,-10.858416 10.39144,-15.2565 22.34109,-17.084146 q 13.90488,-2.1208538 27.8197,-4.1048776 7.14598,-1.0164459 10.40135,-0.9968989 c 13.17044,0.1075087 24.54446,8.7375245 25.53696,21.9513225 0.85355,11.415471 -3.56307,19.654557 -7.29485,29.516038 a 0.99249686,0.97735195 0 0 0 0.99249,1.319427 c 34.18157,-2.21859 68.64106,-16.663861 98.1182,-34.20733 7.9896,-4.74993 15.85018,-6.391882 24.34596,-2.707265 q 4.02953,1.74946 10.86783,8.05338 17.99397,16.634541 36.0078,33.249524 11.85041,10.936568 12.24741,11.347057 5.82595,6.049807 10.20287,13.272439 l -0.10918,6.919653 q -4.26774,8.542047 -14.45076,11.845497 -6.5207,2.11109 -9.76618,3.03956 -1.62768,0.45935 -0.22826,1.39762 7.90028,5.26793 14.01405,12.48079 c 9.01188,10.64335 9.9349,20.68076 9.77609,35.42901 -0.24811,23.0264 -5.26022,46.55125 -9.50811,69.15741 q -2.99734,15.96994 -4.97242,21.50175 c -7.27499,20.28983 -25.48731,38.11673 -43.93782,48.8676 q -9.25008,5.38521 -17.58705,6.59712 -42.41932,6.13778 -76.10467,-18.9704 a 0.99050353,0.96952563 12.802046 0 0 -1.45895,0.28344 c -11.93972,20.42665 -35.57107,27.51245 -56.22493,14.44526 q -3.69209,-2.33587 -7.01696,-5.18975 a 1.0024218,0.98712547 0 0 0 -1.31008,0 q -21.72577,18.6772 -46.68707,3.71395 a 0.99249686,0.97735195 0 0 0 -1.47882,0.61573 q -4.40668,18.75539 -24.19706,21.03261 a 1.0318536,1.0070073 5.2192459 0 0 -0.70467,0.42027 q -1.6674,2.39451 -2.87825,5.03336 c -23.72068,51.79964 -90.56533,69.30402 -142.28435,73.41867 h -29.03053 q -42.6079,-1.42694 -79.59825,-10.93656 -56.8403,-14.62118 -111.63605,-36.13271 a 0.99028001,0.96974447 13.465228 0 0 -1.02227,0.16616 c -33.10973,27.97176 -77.80185,39.69021 -120.73727,35.68307 -5.14114,-0.4789 -8.97216,-1.53444 -13.656754,-3.28391 C 58.904631,373.58121 31.045244,355.03107 13.289474,325.72028 6.4412455,314.41232 4.0890284,301.6872 3.2553312,288.60045 v -8.06314 C 5.3296492,228.42489 39.967791,183.79901 90.902734,169.04099 q 11.959576,-3.46959 23.948946,0.10751 3.50351,1.04576 1.01234,-1.60285 -13.07118,-13.88817 -23.770293,-31.39255 c -16.018896,-26.20281 -13.01163,-67.916188 8.535463,-90.483246 0.91311,-0.948031 1.49868,-2.414059 2.32245,-3.303459 C 126.58298,16.69136 157.59852,6.1946017 192.38555,4.2496712 Z"
     id="path2-2"
     style="stroke:none;stroke-width:0.984895"
     inkscape:transform-center-x="1.9734947"
     inkscape:transform-center-y="78.461644" />
  <g
     fill="#50364b"
     id="g424-7-9"
     transform="translate(1.6292073,-0.26886777)"
     style="fill:url(#linearGradient14932-2);fill-opacity:1">
    <path
       id="path422-0-2"
       d="m 676.55469,28.607422 c -0.37292,-0.07167 -0.83787,-0.06828 -1.39453,0.01172 -9.16,1.3 -17.82977,2.65388 -26.00977,4.060547 -2.17,0.369999 -4.58953,0.240781 -7.01953,1.550781 -0.18811,0.09635 -0.3399,0.254327 -0.43164,0.449219 l -19.09961,40.660156 c -0.0965,0.207211 -0.25859,0.373467 -0.45899,0.470703 -0.75333,0.366666 -1.14015,0.929452 -1.16015,1.689452 -0.14,5.89 -3.70141,3.919531 -7.19141,3.519531 -14.01333,-1.573333 -28.26953,-3.293489 -42.76953,-5.160156 -0.61435,-0.07469 -1.14812,0.426473 -1.11914,1.050781 L 570.64062,92 c 0.0251,0.46247 0.36458,0.847152 0.82032,0.929688 l 16.59961,3.080078 c 0.40234,0.07193 0.71964,0.386122 0.79883,0.791015 l 0.0801,0.429688 c 0.16,0.833333 0.52628,0.93526 1.09961,0.308593 0.86667,-0.953333 1.87792,-0.945182 3.03125,0.02148 0.24321,0.205225 0.58581,0.24449 0.86914,0.09961 l 0.57032,-0.279297 c 0.20098,-0.09821 0.42538,-0.130371 0.64062,-0.0918 l 12.85938,2.431641 c 1.86,0.353334 2.42278,1.392474 1.68945,3.119134 -6.63333,15.57334 -13.52016,30.79969 -20.66016,45.67969 -4.16666,8.06667 -8.75929,15.9 -13.77929,23.5 -2.06,3.13 -4.95047,3.95078 -8.48047,4.05078 -0.49143,0.01 -0.91771,-0.3326 -1.00977,-0.81054 -1.78,-9.31 -5.68047,-16.69024 -9.98047,-24.99024 C 551.1824,141.34953 543.4293,137.01 532.5293,137.25 c -0.28611,0.006 -0.56218,-0.11041 -0.75977,-0.32031 -0.68667,-0.74 -1.45526,-0.77604 -2.30859,-0.10938 -0.12667,0.1 -0.26854,0.16279 -0.42188,0.18946 -14.64666,2.80666 -27.35867,9.36015 -38.13867,19.66015 -9.08,8.68 -16.63,17.30008 -28.75,21.58008 -0.70089,0.24356 -1.41359,-0.33419 -1.32031,-1.07031 0.28,-2.26 1.23031,-5.90032 0.82031,-8.07031 -0.28667,-1.50001 -0.44094,-2.42287 -0.46094,-2.76954 -0.93,-12.71 -6.34953,-26.32898 -20.26953,-28.95898 -24.3922,-3.12569 -46.64555,15.20595 -47.05078,16.39844 -17.09,14.46 -25.56914,32.76164 -33.86914,54.18164 l -6.81055,17.1582 c -2.36,6.57 -6.71015,19.88023 -13.66015,21.99024 -2.72667,0.83333 -3.77511,-0.7624 -3.14844,-4.78907 3.08,-14.24 8.09953,-26.61101 12.51953,-39.79101 3.9,-11 13.14945,-36.89961 8.68945,-47.34961 -3.18,-7.45 -9.57976,-14.76031 -17.25976,-17.07031 -7.87,-2.37001 -15.81086,0.89109 -23.13086,3.87109 -0.34667,0.14 -0.76333,-0.041 -1.25,-0.54102 4.30667,-13.33333 8.59156,-26.65541 12.85156,-39.96875 2.6,-8.149997 5.62977,-16.240622 -7.99023,-14.640622 -8.87334,1.04 -17.62644,2.757057 -26.25977,5.150391 -2.28,0.626666 -3.90443,2.21 -4.87109,4.75 -6.18,16.153331 -11.00209,29.329301 -14.46875,39.529301 l -23.17188,65.49023 -15.93945,47 c -2.87333,7.31333 -4.87023,14.81643 -5.99023,22.50977 -1.64,11.31 7.11031,9.96039 14.82031,9.15039 8.44,-0.87 22.12047,1.79976 25.23047,-9.24024 2.11,-7.5 4.95937,-14.86023 7.60937,-22.24023 l 17.16992,-46.66992 c 1.88,-5.47 11.07149,-28.76969 17.27149,-28.92969 2.66,-0.06 1.6982,2.80906 1.4082,4.53906 -1.27333,7.77333 -2.9082,15.48419 -4.9082,23.13086 l -1.78125,5.41992 c -0.0776,0.22671 -0.23278,0.42116 -0.43946,0.55078 l -0.27929,0.16016 c -0.34761,0.21121 -0.48468,0.64746 -0.32032,1.01953 0.60001,1.33 -8.6114,27.52906 -9.6914,31.28906 -4.08667,12.5 -2.76883,24.27055 3.95117,35.31055 0.12856,0.21229 0.17444,0.46531 0.12891,0.71094 -0.28,1.46 0.13976,1.90651 1.25976,1.33984 0.35761,-0.18212 0.79127,-0.13137 1.10156,0.12891 9.62,8.24 24.04938,5.73953 34.60938,1.01953 6.29333,-2.81333 11.55573,-7.04899 15.78906,-12.70899 0.43319,-0.57817 1.31771,-0.5203 1.67188,0.10938 3.71333,6.56667 8.76177,11.20039 15.14844,13.90039 13.11,5.55 29.45117,1.55055 41.20117,-6.43945 22.11,-15.04 33.64961,-38.8411 42.84961,-62.1211 0.36666,-1.4 0.87596,-2.63875 1.52929,-3.71875 0.38667,-0.65333 0.83318,-1.01651 1.33985,-1.08984 0.69423,-0.10364 1.28114,0.5084 1.14062,1.18945 l -0.63086,3.00977 c -3.14666,10.7 -5.49859,21.27403 -7.05859,31.7207 -0.66,3.43333 -0.99333,6.81201 -1,10.13867 -0.05,13.49 10.41023,25.06016 22.49023,28.91016 6.01334,1.91333 12.58852,2.18078 19.72852,0.80078 20.75,-4.01 37.43984,-21.67039 47.08984,-40.15039 5.52,-9.85333 10.34094,-20.0138 14.46094,-30.48047 l 5.28906,-12.34961 c 0.1209,-0.27335 0.35553,-0.47865 0.64063,-0.56054 3.6,-1.08001 4.88604,-0.33001 3.85937,2.25 -1.21333,3.03999 -2.39239,6.07489 -3.53906,9.10156 -8.05,17.04 -16.91008,37.67953 -17.08008,57.01953 -0.05,5.85 1.58031,9.85976 5.82031,13.50976 16.02,13.77 48.37954,-11.69976 61.51954,-21.50976 1.28666,-0.96667 2.29596,-0.73412 3.02929,0.69922 2.64,5.2 11.43102,7.13953 16.79102,8.01953 8.57,1.4 18.42984,-1.71875 26.33984,-4.96875 6.46,-2.65 12.78086,-7.57086 19.13086,-11.38086 1.13333,-0.68 1.63643,-0.35906 1.50977,0.96094 -0.54,5.42 -4.17102,14.76922 5.45898,14.44922 4.98,-0.16667 9.98,-0.30969 15,-0.42969 9.41,-0.22 13.94125,-1.41031 17.53125,-10.07031 6.24,-15.06 10.90977,-27.69683 14.00977,-37.91016 L 733.96094,201.5 c 0.85,-2.63 16.5782,-51.79 24.4082,-44 0.19821,0.19189 0.30725,0.45671 0.30078,0.73047 -0.18,14.21 10.15922,12.6493 19.94922,11.5293 1.23333,-0.14667 1.57172,0.33278 1.01172,1.43945 -5.45333,10.76 -11.92659,21.02745 -19.41992,30.80078 -8.86,11.49 -16.39,28.44 -12,43.25 7.11,24.01 33.86844,24.59969 52.14844,14.92969 11.12666,-5.88667 19.66156,-14.13357 25.60156,-24.74024 2.56,-4.56666 4.15573,-10.36705 4.78906,-17.40039 L 833.21094,205 c 3.54,-22.68667 6.23961,-45.46961 8.09961,-68.34961 0.49,-6.07 4.29023,-24.14992 -7.00977,-21.91992 -6.90667,1.36667 -13.75435,2.9531 -20.54101,4.75976 -11.54,3.08 -13.60063,10.10985 -18.14063,19.83985 -0.36,0.76666 -0.93208,1.01666 -1.71875,0.75 -0.31337,-0.10059 -0.55663,-0.34751 -0.65039,-0.66016 -1.4,-4.71 -3.80961,-11.08078 -8.09961,-13.55078 -8.79,-5.07 -18.84023,0.12094 -26.49023,4.21094 -0.60857,0.32617 -1.35674,-0.0479 -1.46094,-0.73047 -1.07,-7.03 -9.96008,-5.44008 -15.08008,-5.58008 -2.54,-0.08 -6.24945,-0.78992 -9.43945,-0.41992 -3.46667,0.38667 -6.8,0.67466 -10,0.86133 -1.52,0.0933 -2.5262,0.85263 -3.01953,2.27929 L 693.71094,201.75 c -2.09334,5.54667 -5.17667,10.46333 -9.25,14.75 -10.05,11.5 -20.27016,17.60094 -34.91016,18.71094 -1.58,0.12 -2.65404,-0.56102 -3.2207,-2.04102 -1.74,-4.54666 -2.05279,-9.74627 -0.93946,-15.59961 0.38,-3.63333 2.65985,-6.01396 6.83985,-7.14062 5.58,-1.50667 10.84859,-3.73302 15.80859,-6.67969 19.38667,-10.73333 31.58823,-26.98023 36.60156,-48.74023 1.25334,-5.44667 1.95295,-9.45287 2.09961,-12.01954 0.69,-12.03 -10.66093,-20.36031 -21.71093,-20.82031 -16.87334,-0.7 -30.83224,5.13024 -41.87891,17.49024 -5.88667,6.58 -10.41961,12.54395 -13.59961,17.89062 -5.16,8.67 -10.84164,17.37875 -14.43164,26.46875 -2.51333,6.38 -4.70674,12.8738 -6.58008,19.48047 -1.11333,3.66667 -1.87573,7.40427 -2.28906,11.21094 -0.88,5.34 -1.17729,11.18573 -0.89062,17.53906 0.006,0.28139 -0.0977,0.55138 -0.28907,0.75 -3.62,3.73 -18.12969,17.35094 -22.92969,8.96094 -0.15681,-0.28202 -0.16843,-0.62101 -0.0312,-0.91016 L 595.96094,211 625.38086,146.78906 c 5.38667,-12.34 11.13976,-24.51286 17.25976,-36.51953 3.87,-7.59 10.60852,-4.58922 17.22852,-4.44922 9.13333,0.2 18.26086,0.58992 27.38086,1.16992 16.34,1.04 41.98078,-0.0812 62.80078,-2.45117 30.01,-3.41 60.92906,-10.189919 89.03906,-22.169919 1.96667,-0.833334 3.35349,-1.583334 4.16016,-2.25 1.54667,-1.266667 1.63,-2.64224 0.25,-4.128907 -10.42,-11.24 -21.4076,-21.906666 -32.96094,-32 -0.3113,-0.276768 -0.76254,-0.329075 -1.1289,-0.130859 -4.16,2.22 -8.60961,4.787839 -13.34961,7.701172 -20.24,12.46 -42.44094,20.529844 -65.46094,26.089844 -14.55,3.51 -32.80899,4.719921 -45.20899,5.669921 -9.7,0.75 -19.34031,0.800625 -29.07031,0.640626 -0.74297,-0.01209 -1.2137,-0.801567 -0.87109,-1.460938 8.66667,-16.48 15.9938,-33.545885 21.98047,-51.199219 0.535,-1.58 0.24375,-2.478359 -0.875,-2.693359 z m -479.9668,1.529297 c -12.55833,-0.455 -25.23711,1.759245 -38.03711,6.642578 -30.25,11.54 -56.1207,36.350391 -50.4707,71.650393 1.03333,6.46666 3.24419,12.24031 6.63086,17.32031 3.36666,6.44667 7.26898,12.55674 11.70898,18.33008 11.77334,15.31333 23.52643,30.64357 35.25977,45.99023 3.66666,4.79334 7.42791,11.24914 11.28125,19.36914 8.7,20.18 12.43953,39.84086 7.76953,61.88086 -1.34,5.95334 -3.3431,11.75373 -6.00977,17.40039 -0.66666,1.4 -1.7314,1.84341 -3.1914,1.33008 -5.43334,-1.92 -11.12675,-3.55682 -17.08008,-4.91016 -1.09,-0.23999 -2.94922,0.41868 -3.44922,-1.11132 -0.16496,-0.52607 -0.80974,-0.72152 -1.25,-0.37891 l -0.53906,0.41992 c -0.18119,0.14208 -0.40338,0.21913 -0.63086,0.21875 l -9.76953,-0.10937 c -0.59454,-0.007 -1.05136,-0.52879 -0.98047,-1.11914 l 0.16015,-1.34961 c 4.16667,-12.94667 6.86938,-26.14513 8.10938,-39.5918 0.59,-19.14 -4.66938,-37.31914 -24.60938,-42.86914 -25.089996,-6.97 -50.780621,9.28914 -68.140621,26.86914 -3.966666,4.00667 -7.012005,7.71753 -9.138671,11.13086 -3.373334,5.22 -6.206667,10.72 -8.5,16.5 -8.34,18.74667 -9.660938,38.00906 -3.960938,57.78906 3.77,15.53 16.749766,28.19086 31.009766,34.13086 5.146666,2.14667 11.610625,3.64977 19.390625,4.50977 20.179999,2.24 41.199839,1.29054 60.339839,-5.68946 12.70667,-4.62666 24.7931,-10.88596 36.25977,-18.77929 6.86,-4.80667 12.96078,-10.178 18.30078,-16.11133 0.28106,-0.31121 0.72405,-0.41494 1.10938,-0.25977 l 28.83007,11.32032 c 9.62,4.38666 21.96263,8.97619 37.0293,13.76953 31.96,10.16666 62.21,17.65117 90.75,22.45117 13.00667,2.18667 22.8338,3.45836 29.48047,3.81836 24.75,1.36 54.56992,0.76992 80.66992,-2.83008 7.37495,-0.70129 59.63737,-18.23016 75.48047,-28.46875 4.76,-3.15333 8.97201,-6.89713 12.63867,-11.23047 1.36667,-1.62 1.06513,-2.03976 -0.9082,-1.25976 -3.02667,1.19333 -6.16039,2.13674 -9.40039,2.83007 -24.58,5.3 -46.4607,1.14907 -68.4707,-10.46093 -1.69334,-0.9 -3.3631,-0.85581 -5.00977,0.13086 -14.69,8.81 -30.03922,15.13953 -46.94922,19.01953 -18.18,4.17 -37.03101,7.03054 -55.79101,6.31054 -34.17,-1.3 -63.50977,-7.13929 -97.75977,-16.27929 -20.16,-5.86 -40.20419,-12.11505 -60.13086,-18.76172 -0.60511,-0.20203 -0.87184,-0.90633 -0.54883,-1.44922 4.63334,-7.82667 8.8124,-15.87396 12.53907,-24.14062 8.58666,-21.92667 9.46729,-44.14178 2.64062,-66.64844 -0.68,-2.12 -5.69922,-13.76125 -5.44922,-14.78125 0.0733,-0.3 0.20511,-0.5655 0.39844,-0.79883 0.49333,-0.6 0.35341,-0.8818 -0.41992,-0.8418 l -0.5293,0.0312 c -0.39509,0.0186 -0.76443,-0.20175 -0.93945,-0.56054 -11.82,-23.77 -28.79961,-45.17977 -45.09961,-66.00977 -11.48,-16.35 -21.54,-30.599531 -21,-49.519531 0.006,-0.244396 0.14863,-0.464753 0.36914,-0.570313 l 0.31054,-0.140625 c 0.56693,-0.252742 0.76412,-0.958844 0.41016,-1.46875 l -0.18164,-0.271484 c -0.14398,-0.200273 -0.18109,-0.46083 -0.0996,-0.699219 4.07333,-12.46 11.82024,-20.673958 23.24024,-24.640625 12.57,-4.38 24.16015,-2.940234 29.66015,10.509766 0.16482,0.410846 0.0429,0.881139 -0.30078,1.160156 -6.98667,5.573333 -12.80875,12.19776 -17.46875,19.871094 -2.75333,4.52 -4.54133,8.871927 -5.36133,13.058593 -3.45,17.569998 5.74172,30.971798 25.01172,26.591798 22.32,-5.07 41.43867,-20.850469 44.38867,-44.480469 0.93,-7.46 -0.26961,-14.741094 -3.84961,-21.121094 -0.71333,-1.273333 -0.38929,-2.172552 0.97071,-2.699219 4.98666,-1.926667 9.96302,-3.632474 14.92968,-5.11914 C 270.18023,42.580937 263.73945,33.51 259.68945,31 c -0.25959,-0.157979 -0.57529,-0.190982 -0.85937,-0.08984 l -24.16992,8.628906 c -0.25029,0.08995 -0.52309,0.07943 -0.75977,-0.0293 -12.31667,-5.793334 -24.75417,-8.918047 -37.3125,-9.373047 z m 12.55273,40.396484 c 0.27667,0.115 0.43209,0.517031 0.46876,1.207031 0.57333,10.513334 -1.73326,20.355964 -6.91993,29.529296 -0.0533,0.0933 -0.11612,0.17357 -0.18945,0.24024 -3.45333,3.21333 -5.95953,3.50752 -7.51953,0.88085 -5.17,-8.679995 6.52875,-25.629839 12.96875,-31.339839 0.51667,-0.46 0.91474,-0.632578 1.1914,-0.517578 z m 468.79493,77.949217 c 0.3,0.0917 0.47034,0.59758 0.51367,1.51758 0.0533,1.05333 -0.14628,2.29094 -0.59961,3.71094 -4.26,13.5 -9.2693,22.39992 -19.7793,29.66992 -2.10666,1.46 -2.59737,1.03828 -1.4707,-1.26172 5.64667,-11.53333 12.33078,-22.42325 20.05078,-32.66992 0.55667,-0.73667 0.98516,-1.05846 1.28516,-0.9668 z m -245.72852,15.63867 c 3.11582,-0.089 -0.36945,5.71446 -0.87695,6.93946 -0.17075,0.42333 -0.60882,0.67504 -1.06055,0.60937 l -0.55859,-0.0703 c -0.6526,-0.0827 -1.2095,0.46459 -1.13086,1.11133 l 0.23047,1.86914 c 0.0197,0.18997 -0.0148,0.38401 -0.0996,0.56054 -2.92,5.92001 -5.59,15.37032 -3.5,21.82032 1.28,3.94 -0.28094,8.62 -1.96094,13.5 -4.64,11.78666 -10.6431,22.53976 -18.00977,32.25976 -1.20666,1.58667 -2.70356,2.98279 -4.49023,4.18946 -9.24,6.25 -4.42977,-16.91079 -3.50977,-20.30078 l 4.85938,-15.49024 c 6.2,-16.98 14.95023,-33.58961 27.99023,-46.34961 0.1,-0.1 0.21628,-0.17208 0.34961,-0.21875 0.7425,-0.28375 1.32246,-0.41697 1.76758,-0.42969 z m 99.34375,0.45899 c 1.24,0.33333 1.54659,1.22635 0.91992,2.67969 -4.36,10.2 -11.97023,18.74976 -7.74023,30.75976 1.16667,3.3 0.78914,6.63024 -1.13086,9.99024 -3.84,10.26 -8.77721,20.0069 -14.81055,29.24023 -2.13,3.08 -15.52937,21.10945 -14.85937,4.43945 1.20666,-10.94666 3.73031,-21.41372 7.57031,-31.40039 5.14,-12.26666 11.43419,-23.90969 18.88086,-34.92968 2.78667,-4.12667 6.22503,-7.66581 10.31836,-10.61915 0.24692,-0.17817 0.55929,-0.23692 0.85156,-0.16015 z m 262.48828,21.56054 c 0.22853,0.16656 0.35072,0.44074 0.32032,0.71876 l -1.63868,16.03124 -2.07031,13.99024 c -1.64,8.12 -8.90094,19.73851 -18.71094,17.72852 -1.42,-0.29334 -2.1289,-1.15342 -2.1289,-2.58008 -0.001,-0.39065 0.22554,-0.74612 0.58007,-0.91016 5.98001,-2.81 11.15961,-6.90875 13.59961,-13.21875 1.5,-3.87 1.35016,-9.35125 2.16016,-14.03125 0.4,-1.51 6.12867,-19.04851 7.88867,-17.72852 z M 118.9668,216.2207 c 1.4716,0.1645 2.87633,0.72453 4.17382,1.76953 5.57,4.49 7.61032,16.82977 7.57032,23.50977 -1.69334,13.52 -4.68094,26.7576 -8.96094,39.71094 -0.56,1.94666 -1.33055,3.18232 -2.31055,3.70898 -5.87,3.14 -13.57992,6.55969 -17.66992,10.92969 -4.179999,4.47 -7.308983,13.11945 -2.708983,18.18945 4.060003,4.47 12.309373,4.36063 17.109373,1.39063 5.65,-3.5 9.08039,-8.17047 13.15039,-13.23047 1.93,-2.4 3.79946,-2.85016 6.68946,-2.66016 9.26666,0.62667 18.37364,2.28714 27.32031,4.98047 0.60364,0.18375 0.88831,0.87377 0.58984,1.42969 -2.03333,3.77333 -4.97984,7.15396 -8.83984,10.14062 -3.74,2.89334 -6.10008,4.68443 -7.08008,5.3711 -7.21333,5.82666 -14.64745,9.73518 -22.30078,11.72851 -8.68,2.26 -14.16875,3.36698 -16.46875,3.32032 -15.850001,-0.3 -26.00047,-11.59 -30.48047,-26 -5.026667,-18.47334 -3.716979,-36.45279 3.929688,-53.93946 C 84.866354,250.77698 87.64,245.28008 91,240.08008 c 4.025,-6.79 17.66559,-25.01082 27.9668,-23.85938 z m 177.45312,64.81836 c -1.43,0.36 0.38977,4.06016 0.50977,0.41016 0.008,-0.27202 -0.24583,-0.47651 -0.50977,-0.41016 z m -178.84765,16.08008 c 0.24166,0.16667 0.32781,0.56164 0.25781,1.18164 -0.45,4.06 -5.10094,15.91867 -11.21094,11.63867 -0.31643,-0.21834 -0.47967,-0.59874 -0.41992,-0.97851 0.89,-5.56 5.49164,-9.24016 10.18164,-11.66016 0.55333,-0.28667 0.94974,-0.34831 1.19141,-0.18164 z"
       style="fill:url(#linearGradient28621-5);fill-opacity:1"
       sodipodi:nodetypes="scccccccccccccccccccccccccccccccccccccccccccccccccccccccccccccccccccccccccccccccccccccccccccccccccsccccccccccccccccccccccccccccccccccccccccccccccccccccccccccccccsccsscccccccccccccccccccccccccccccccccccccccccccccccccccccccccccccccccccccccccsscccccsscccccssccccccccccccccssccccccccscccccccccccsccccccccccccccccccscccsccccs" />
  </g>
</svg>
