<svg height="146.584" width="611.311" xmlns="http://www.w3.org/2000/svg">
    <linearGradient id="c" gradientUnits="userSpaceOnUse" x1="148.319" x2="151.977" y1="162.589" y2="52.277">
        <stop offset="0" stop-color="#373969"/>
        <stop offset=".437" stop-color="#a7bbf1"/>
        <stop offset="1" stop-color="#2170cc"/>
    </linearGradient>
    <filter id="d" color-interpolation-filters="sRGB" height="1.066" width="1.012" x="-.006" y="-.034">
        <feGaussianBlur in="SourceGraphic" result="blur" stdDeviation="1"/>
        <feDiffuseLighting result="diffuse" surfaceScale="10">
            <feDistantLight azimuth="220" elevation="30"/>
        </feDiffuseLighting>
        <feComposite in="diffuse" in2="diffuse" k1="1" operator="arithmetic" result="composite1"/>
        <feComposite in="composite1" in2="SourceGraphic" k1="1" k3="1" operator="arithmetic" result="composite2"/>
    </filter>
    <filter id="b" color-interpolation-filters="sRGB" height="1.029" width="1.048" x="-.025" y="-.013">
        <feGaussianBlur in="SourceAlpha" result="blur" stdDeviation=".5"/>
        <feSpecularLighting in="blur" result="specular" specularConstant="3.339" specularExponent="25" surfaceScale="10">
            <feDistantLight azimuth="211" elevation="26"/>
        </feSpecularLighting>
        <feComposite in="specular" in2="SourceGraphic" k2="1" k3="1" operator="arithmetic" result="composite1"/>
        <feComposite in="composite1" in2="SourceAlpha" operator="in" result="composite2"/>
    </filter>
    <linearGradient id="a" gradientUnits="userSpaceOnUse" x1="46.776" x2="46.776" y1="168.274" y2="30.929">
        <stop offset="0" stop-color="#ff7a01"/>
        <stop offset=".359" stop-color="#fffc00"/>
        <stop offset=".603" stop-color="#ff0"/>
        <stop offset="1" stop-color="#ff7501"/>
    </linearGradient>
    <text fill="#ef00eb" font-family="TrasksHand" font-size="2" stroke="#0105ff" stroke-width="2.5" transform="rotate(-8.031 -203.266 -14.639)" x="31.651" y="134.278"><tspan fill="#fafafa" fill-opacity=".4" stroke="none" x="31.651" y="134.278">John Loreth 2022</tspan></text>
    <g stroke="#010000" stroke-width="1.25">
        <path d="M82.096 43.852q0 11.386-8.773 24.453-4.667 7.28-18.107 22.587-12.693 13.813-16.8 21.653 11.2-2.986 33.6-8.586-.747 1.68-1.493 5.04 2.24 0 5.413-.56-.56 5.413-.56 9.893l-2.8.747 2.427 3.173-1.494 4.107q-27.813 3.173-66.266 19.6l1.306-7.84 3.174-3.174q-1.494-.746-4.107-2.426l.747-1.307 1.68.187 4.293-1.68 1.867.373 2.053-2.427-6.16-1.68-2.987 2.054-1.68-2.054q-.186-2.426-.186-4.853 0-13.067 10.453-27.254 9.52-11.573 19.227-23.333 10.453-13.067 10.453-22.96 0-5.227-7.467-5.227-6.906 0-21.466 8.4-1.68-1.866-2.987-6.72-1.12-5.04-2.613-6.906l4.48-6.72q-1.307 0-7.094.373l3.174-2.987h1.866l2.054-2.986-6.347-.747-3.92 3.36-1.68-3.36 1.307-3.173Q29.269 7.825 46.256 7.825q16.24 0 25.947 9.893 9.893 9.894 9.893 26.134zm-47.227-23.52-2.613-.374-3.547 2.614 2.427-.187 2.053-1.12h.747zm-3.92 7.093-4.48-.56-5.6 4.48 4.294-.187 2.986-1.68h1.307zm-3.36 103.787-3.546-.933-4.48 2.986 3.36.374 2.8-.934.746.187z"/>
        <path d="M78.494 66.394q0 11.387-8.774 24.454-4.666 7.28-18.106 22.586-12.694 13.814-16.8 21.654 11.2-2.987 33.6-8.587-.747 1.68-1.494 5.04 2.24 0 5.414-.56-.56 5.413-.56 9.893l-2.8.747 2.426 3.173-1.493 4.107q-27.813 3.174-66.267 19.6l1.307-7.84 3.173-3.173q-1.493-.747-4.107-2.427l.747-1.306 1.68.186 4.293-1.68 1.867.374 2.053-2.427-6.16-1.68-2.986 2.053-1.68-2.053q-.187-2.427-.187-4.854 0-13.066 10.453-27.253 9.52-11.573 19.227-23.333 10.454-13.067 10.454-22.96 0-5.227-7.467-5.227-6.907 0-21.467 8.4-1.68-1.867-2.987-6.72-1.12-5.04-2.613-6.907l4.48-6.72q-1.307 0-7.093.374L9.8 50.34h1.867l2.053-2.987-6.347-.746-3.92 3.36-1.68-3.36 1.307-3.174q22.587-13.066 39.574-13.066 16.24 0 25.946 9.893 9.894 9.893 9.894 26.133zm-47.227-23.52-2.614-.373-3.546 2.613 2.426-.186 2.054-1.12h.746zm-3.92 7.094-4.48-.56-5.6 4.48 4.293-.187 2.987-1.68h1.306zm-3.36 103.787-3.547-.934-4.48 2.987 3.36.373 2.8-.933.747.187z" fill="url(#a)" filter="url(#b)" transform="translate(.052 -28.543)"/>
        <path d="m165.637 104.944-.72 5.76-7.32 2.88q0 15.84.72 23.64 0 .96.72 5.04.48 3.12.48 5.16 0 .72-.36 2.16.48 2.76 1.8 8.04-1.2.6-3.24 1.44-1.08-.84-3.72-2.28-2.16 2.76-3.36 4.56l-1.92-.72-2.16 1.44q-1.2-3.36-2.64-8.64-16.08 6-25.8 6-11.28 0-18.6-10.08-6.48-9.12-6.48-20.76 0-12.96 6.36-25.44 5.76-11.64 16.08-20.88 11.76-10.44 29.04-14.16l-.12 4.68-2.52 4.92.96 2.52-.72.36-1.68 1.56-.84.12-.6 1.68 2.88-.36 1.56-1.92.72 2.16-2.4 3.6 2.16 5.16q-17.28 7.56-25.08 21.84-4.8 8.76-4.8 15 0 5.16 3.6 8.28 3.6 3.12 8.88 3.12 5.04 0 12.96-3.48-1.08-2.4-2.76-12.6-6.36 3.96-14.52 9.6.48-2.04 1.8-6.36l1.2-.36 1.56-.96.6-.12.84-1.32h-2.52l-1.32 1.56-1.92-2.28q.6-1.2 2.28-3.36l-1.8-1.44q.6-2.04 1.2-3 3.24-2.28 10.2-6.24l-.24-1.68q2.4-1.2 7.8-3.24v-.96q10.32-4.44 23.64-8.4-.36 2.04-.6 6l-1.44 1.08h-2.64l-4.08 4.68 3.36-.72 2.52-1.8.84-.12.24-.24zm-25.68-26.4-3.48 1.08-2.28 2.04-.96.12-.84 2.16 3.84-.48zm12.24 27.24h-2.52l-2.64 3.12 2.16-.6 1.56-1.2h.72zm-18.72-17.76-1.92.6-1.08 1.2-.6.12-.48.96 1.92-.24zm-32.16 53.52-1.68-4.92-.84 2.76.36 2.64-.36.96.84 1.32zM191.847 76.504q-3.72 30.96-3.72 59.04 0 4.8-.24 6.6 0 .48-.36 1.92-.24 1.44-.24 2.28 0 2.16.36 5.4.24 4.32.36 5.28-.96.48-3.24 1.56-1.2-1.32-3.24-4.08l-.36-2.28.48-1.2-1.32-2.28-2.16 4.2 1.32 4.2q-.96 1.2-2.16 3.48l-1.56-1.44q-1.32.6-2.52 1.8-5.28-48.6-5.52-82.2 3.6-1.44 10.68-4.32.36.96 1.2 3l-.84 1.68 2.04 6.36 1.08-3.72-.36-3.24.36-1.08-.48-.96 1.8-2.28q2.88-.96 5.28-2.04-.12 1.08.96 1.68 1.08.48 1.08 1.32.6-.24.6.6.12.84.36.84zm-15.72 10.8-.36-2.16.36-.72-.96-1.44-1.32 2.52 1.32 4.44zm3.24 9-.12-1.32.12-.36-.48-.84-.72 1.44.72 2.64zm4.32 48.84-.36-2.16.36-.84-.84-1.32-1.2 2.52 1.2 4.32zM274.816 101.824q0 20.64-15.48 39.12-16.2 19.2-36.36 19.2-13.44 0-21-9.48l1.08.24-1.08-3.72-3.6-1.92q-4.08-7.92-4.08-17.64 0-20.52 15.48-38.88 16.2-19.32 36.36-19.32 8.88 0 15.72 4.8l2.64 5.4-3.72-.24-.6-2.04-5.88-2.76 1.68 3.24 2.64 1.92.36.96.12 3.6-4.68 2.28-4.44-2.16 1.68 3.36.84.6-2.16 3.36 3.48-2.28.36.24.48.84 2.16.6-.72-2.52 5.76-.48-.48-2.28 3.12-.6-1.32-2.4 6.12 2.4 1.2-1.44q4.32 8.16 4.32 18zm-13.8-5.04-.84-2.52-3.84-1.92 1.08 2.28 1.68 1.32.36.48zm-5.4 14.52q0-7.32-4.2-12.24-4.08-5.04-11.28-5.04-10.92 0-19.68 10.68-8.04 9.96-8.04 21.36 0 7.08 3.96 12 4.2 5.28 11.52 5.28 11.04 0 19.56-10.68 8.16-10.2 8.16-21.36zm-45.48 35.16-.72-2.28-3.24-1.56.96 1.8 1.44 1.2.24.6zm3.48 9.48-1.2-3.96-5.76-3 1.68 3.48 2.64 1.8.48.96zM337.747 154.384q-17.76 4.92-27.6 4.92-10.2 0-19.2-7.56l-.84-4.8-6.72-5.52 1.44 3.48q-7.92-10.8-7.92-25.8 0-19.68 13.08-33.24 12.96-12.96 32.64-15l.36 4.68-2.76 3.84.84 2.04-2.4 2.28-1.32.12-.96 2.4 5.16.12 1.08-1.32 1.44 3-4.2 2.52 4.68 4.92q-16.68 5.28-22.92 18.48-3.48 7.56-3.48 12.96 0 6.36 5.28 10.68 5.16 4.08 11.64 4.08 5.64 0 13.8-3.6l2.16 4.2-.48 4.92 1.8 1.2-1.56 1.2-.72.12-.48 1.44h3l1.2-1.68 1.44 3.24zm-21.72-77.16-2.52.48-1.68 1.44-.72.12-.48 1.44h3zm-6.36 8.64-1.8.36-1.08.96-.48.12-.48.96h2.16zm17.4 59.28-2.52.48-1.68 1.32-.84.24-.48 1.44h3zm-38.4-2.4-.6-2.76-3.84-3.24.96 2.52 1.8 1.92.24.72z" transform="matrix(.9957 0 0 1.00433 .052 -28.543)"/>
        <path d="m391.917 143.584-1.44.48q-1.32 2.88-1.68 3.6-1.08 1.44-2.76 2.52-2.52-1.2-3.96-.6t-6.12 2.64q-2.76-9.96-5.52-21.24-6.36 2.28-17.16 7.44-1.32 8.52-2.28 16.8-.24.12-.48.12-.36 0-1.08-.72-.72-.84-.96-.84-.72 0-1.32 2.04-.6 1.92-1.08 2.4-3.72 2.52-3.36 1.8.48-.6.48-3.84l.6-1.08-.84-1.92-2.64 3.6.6 4.68q-1.2.6-2.04.6-1.08 0-1.32-1.32-.24-1.2-.36-1.2-.48 0-1.56 2.76h-.24q.6-9.24.6-20.88 0-26.04 6.12-62.16 2.64-.84 8.04-2.76.96-.48 4.08-2.76 2.04-1.44 4.92-1.44 2.04 0 8.28-2.64-.72 3.12-1.32 6 1.32-.36 3.72-1.08.6-.96 2.28-2.16l1.08-.36-1.2 3 3.24 5.64.72-4.2-1.08-3.24.36-1.08-.6-.72q2.4-1.2 7.68-3.12.24 19.2 3.72 42.6 2.16-.72 5.52-1.8-.12 1.2-.36 3.84-.12.84-1.32 1.92-1.08.96-1.08 2.28 0 .48.72 1.56.84 1.08.84 1.92 0 .6-.24 1.92-.24 1.32-.24 1.92l-1.56.48q1.56 9.72 3.6 18.6zm-17.64-57.36-.6-1.92.12-.72-1.08-1.08-.96 2.88 2.04 3.48zm-7.2 29.76q-2.64-12.12-4.44-24.24-4.56 19.56-6.36 29.76 6-3.48 10.8-5.52zm-24 24.96-.36-.96-1.2 1.68.24 2.88.84-1.56.12-1.56zm3.84 4.8-.48-1.56-1.92 2.64.6 4.32q1.56-2.4 1.44-4.8zM444.527 76.024l-2.88-.36-5.04 4.32 3.72-.24 2.88-1.68h1.08l-.24 2.52-2.04.6q.96 1.32 1.8 2.4-.72 2.04-.96 3.24-8.64 1.8-15 3.72-2.4 19.44-2.4 44.76 0 4.44-.24 6.12-.6 3.48-.6 3.24 0 3.96.84 11.16-1.32.48-3.36 1.2-1.44-1.44-3.6-3.96l-2.16 3.36-.36-2.4.6-1.08-1.32-2.04-2.04 3.6 1.56 4.44-.12.12-1.68-1.44-2.4 1.8q-4.32-37.32-5.16-59.88-7.44 3.72-14.28 7.44l.72-6.24q.84-1.08 2.52-2.88-.96-.6-3-1.68-.12-3 .6-8.04l-1.2-3.12q29.16-14.16 50.16-20.4-.36 1.68-1.08 3.96 2.04-.24 4.32-.72-.12.84-.12 1.68 0 1.2.24 3.36t.24 3.12zm-9.6 5.16-1.8-.24-2.16 1.92 1.68-.12 1.32-.72h.36zm-2.4-3.48-2.88-.24-3.6 2.76 2.64-.12 1.92-.96h.96zm-14.04 66-.24-2.28.24-.84-.72-1.44-1.44 2.64 1.56 4.68zm-4.32 4.08-.24-1.92.24-.6-.72-1.2-.96 2.04 1.08 3.6z" transform="matrix(.9957 0 0 1.00433 .052 -28.543)"/>
        <path d="M515.257 101.824q0 20.64-15.48 39.12-16.2 19.2-36.36 19.2-13.44 0-21-9.48l1.08.24-1.08-3.72-3.6-1.92q-4.08-7.92-4.08-17.64 0-20.52 15.48-38.88 16.2-19.32 36.36-19.32 8.88 0 15.72 4.8l2.64 5.4-3.72-.24-.6-2.04-5.88-2.76 1.68 3.24 2.64 1.92.36.96.12 3.6-4.68 2.28-4.44-2.16 1.68 3.36.84.6-2.16 3.36 3.48-2.28.36.24.48.84 2.16.6-.72-2.52 5.76-.48-.48-2.28 3.12-.6-1.32-2.4 6.12 2.4 1.2-1.44q4.32 8.16 4.32 18zm-13.8-5.04-.84-2.52-3.84-1.92 1.08 2.28 1.68 1.32.36.48zm-5.4 14.52q0-7.32-4.2-12.24-4.08-5.04-11.28-5.04-10.92 0-19.68 10.68-8.04 9.96-8.04 21.36 0 7.08 3.96 12 4.2 5.28 11.52 5.28 11.04 0 19.56-10.68 8.16-10.2 8.16-21.36zm-45.48 35.16-.72-2.28-3.24-1.56.96 1.8 1.44 1.2.24.6zm3.48 9.48-1.2-3.96-5.76-3 1.68 3.48 2.64 1.8.48.96zM587.667 143.824q-.6 3-.6 5.64l-1.92-.84v1.92l-.96-1.44-6.72-.72 2.88 2.52 3.24 1.08.84.72h.72l.24 3.12q-.48-.24-.84-.24t-1.32.48q-.72.24-1.68-.12l3.48 4.92q-9.72-3.84-18.48-8.88-10.8-5.4-19.56-11.76-.24 8.16.36 13.8-1.2.48-3.48 1.56l-.12-.12.96-2.16-2.64-5.76-.72 3.48.6 2.4-1.44-1.44q-.12.12-3.96 6.48l-1.68-1.32q-1.44 1.2-2.52 2.04-4.68-39.72-5.28-61.8l-1.2.6-4.2-.6-3.36 3.12q-.96-2.16-1.32-3.48.12 0 4.08-2.16l-2.16-1.56 1.56-.84h1.08l1.32-1.92-3.84-.36-1.56 1.2-.48-1.68q1.32-2.28 1.92-3.84l-4.2.72v-1.92q.6-.36 2.64-1.8 21-15.36 41.88-15.36 10.68 0 17.52 4.8 7.68 5.4 7.68 15.6 0 21.48-26.28 38.88 15.84 10.68 29.52 17.04zm-24-46.32q0-8.28-11.4-8.28-1.2 0-2.64.12-1.92 15.6-1.92 24.72 15.96-9.12 15.96-16.56zm-33.6-12.84-3.12-.36-3.48 3 2.76-.12 1.92-1.2h.84zm46.44 60.72-1.68-2.04-4.32-.72 1.8 1.68 2.28.6.36.72zm-37.32-.6-1.92-4.2-.48 2.76.48 2.04-.12.72.96 1.44zM613.277 76.504q-3.72 30.96-3.72 59.04 0 4.8-.24 6.6 0 .48-.36 1.92-.24 1.44-.24 2.28 0 2.16.36 5.4.24 4.32.36 5.28-.96.48-3.24 1.56-1.2-1.32-3.24-4.08l-.36-2.28.48-1.2-1.32-2.28-2.16 4.2 1.32 4.2q-.96 1.2-2.16 3.48l-1.56-1.44q-1.32.6-2.52 1.8-5.28-48.6-5.52-82.2 3.6-1.44 10.68-4.32.36.96 1.2 3l-.84 1.68 2.04 6.36 1.08-3.72-.36-3.24.36-1.08-.48-.96 1.8-2.28q2.88-.96 5.28-2.04-.12 1.08.96 1.68 1.08.48 1.08 1.32.6-.24.6.6.12.84.36.84zm-15.72 10.8-.36-2.16.36-.72-.96-1.44-1.32 2.52 1.32 4.44zm3.24 9-.12-1.32.12-.36-.48-.84-.72 1.44.72 2.64zm4.32 48.84-.36-2.16.36-.84-.84-1.32-1.2 2.52 1.2 4.32z" transform="matrix(.9957 0 0 1.00433 .052 -28.543)"/>
        <g fill="url(#c)" filter="url(#d)" transform="matrix(.9957 0 0 1.00433 .052 -28.543)">
            <path d="m161.62 98.97-.72 5.76-7.32 2.88q0 15.84.72 23.64 0 .96.72 5.04.48 3.12.48 5.16 0 .72-.36 2.16.48 2.76 1.8 8.04-1.2.6-3.24 1.44-1.08-.84-3.72-2.28-2.16 2.76-3.36 4.56l-1.92-.72-2.16 1.44q-1.2-3.36-2.64-8.64-16.08 6-25.8 6-11.28 0-18.6-10.08-6.48-9.12-6.48-20.76 0-12.96 6.36-25.44 5.76-11.64 16.08-20.88 11.76-10.44 29.04-14.16l-.12 4.68-2.52 4.92.96 2.52-.72.36-1.68 1.56-.84.12-.6 1.68 2.88-.36 1.56-1.92.72 2.16-2.4 3.6 2.16 5.16q-17.28 7.56-25.08 21.84-4.8 8.76-4.8 15 0 5.16 3.6 8.28 3.6 3.12 8.88 3.12 5.04 0 12.96-3.48-1.08-2.4-2.76-12.6-6.36 3.96-14.52 9.6.48-2.04 1.8-6.36l1.2-.36 1.56-.96.6-.12.84-1.32h-2.52l-1.32 1.56-1.92-2.28q.6-1.2 2.28-3.36l-1.8-1.44q.6-2.04 1.2-3 3.24-2.28 10.2-6.24l-.24-1.68q2.4-1.2 7.8-3.24v-.96q10.32-4.44 23.64-8.4-.36 2.04-.6 6l-1.44 1.08h-2.64l-4.08 4.68 3.36-.72 2.52-1.8.84-.12.24-.24zm-25.68-26.4-3.48 1.08-2.28 2.04-.96.12-.84 2.16 3.84-.48zm12.24 27.24h-2.52l-2.64 3.12 2.16-.6 1.56-1.2h.72zm-18.72-17.76-1.92.6-1.08 1.2-.6.12-.48.96 1.92-.24zM97.3 135.57l-1.68-4.92-.84 2.76.36 2.64-.36.96.84 1.32zM187.83 70.53q-3.72 30.96-3.72 59.04 0 4.8-.24 6.6 0 .48-.36 1.92-.24 1.44-.24 2.28 0 2.16.36 5.4.24 4.32.36 5.28-.96.48-3.24 1.56-1.2-1.32-3.24-4.08l-.36-2.28.48-1.2-1.32-2.28-2.16 4.2 1.32 4.2q-.96 1.2-2.16 3.48l-1.56-1.44q-1.32.6-2.52 1.8-5.28-48.6-5.52-82.2 3.6-1.44 10.68-4.32.36.96 1.2 3l-.84 1.68 2.04 6.36 1.08-3.72-.36-3.24.36-1.08-.48-.96 1.8-2.28q2.88-.96 5.28-2.04-.12 1.08.96 1.68 1.08.48 1.08 1.32.6-.24.6.6.12.84.36.84zm-15.72 10.8-.36-2.16.36-.72-.96-1.44-1.32 2.52 1.32 4.44zm3.24 9-.12-1.32.12-.36-.48-.84-.72 1.44.72 2.64zm4.32 48.84-.36-2.16.36-.84-.84-1.32-1.2 2.52 1.2 4.32zM270.8 95.85q0 20.64-15.48 39.12-16.2 19.2-36.36 19.2-13.44 0-21-9.48l1.08.24-1.08-3.72-3.6-1.92q-4.08-7.92-4.08-17.64 0-20.52 15.48-38.88 16.2-19.32 36.36-19.32 8.88 0 15.72 4.8l2.64 5.4-3.72-.24-.6-2.04-5.88-2.76 1.68 3.24 2.64 1.92.36.96.12 3.6-4.68 2.28-4.44-2.16 1.68 3.36.84.6-2.16 3.36 3.48-2.28.36.24.48.84 2.16.6-.72-2.52 5.76-.48-.48-2.28 3.12-.6-1.32-2.4 6.12 2.4 1.2-1.44q4.32 8.16 4.32 18zM257 90.81l-.84-2.52-3.84-1.92 1.08 2.28 1.68 1.32.36.48zm-5.4 14.52q0-7.32-4.2-12.24-4.08-5.04-11.28-5.04-10.92 0-19.68 10.68-8.04 9.96-8.04 21.36 0 7.08 3.96 12 4.2 5.28 11.52 5.28 11.04 0 19.56-10.68 8.16-10.2 8.16-21.36zm-45.48 35.16-.72-2.28-3.24-1.56.96 1.8 1.44 1.2.24.6zm3.48 9.48-1.2-3.96-5.76-3 1.68 3.48 2.64 1.8.48.96zM333.73 148.41q-17.76 4.92-27.6 4.92-10.2 0-19.2-7.56l-.84-4.8-6.72-5.52 1.44 3.48q-7.92-10.8-7.92-25.8 0-19.68 13.08-33.24 12.96-12.96 32.64-15l.36 4.68-2.76 3.84.84 2.04-2.4 2.28-1.32.12-.96 2.4 5.16.12 1.08-1.32 1.44 3-4.2 2.52 4.68 4.92q-16.68 5.28-22.92 18.48-3.48 7.56-3.48 12.96 0 6.36 5.28 10.68 5.16 4.08 11.64 4.08 5.64 0 13.8-3.6l2.16 4.2-.48 4.92 1.8 1.2-1.56 1.2-.72.12-.48 1.44h3l1.2-1.68 1.44 3.24zm-21.72-77.16-2.52.48-1.68 1.44-.72.12-.48 1.44h3zm-6.36 8.64-1.8.36-1.08.96-.48.12-.48.96h2.16zm17.4 59.28-2.52.48-1.68 1.32-.84.24-.48 1.44h3zm-38.4-2.4-.6-2.76-3.84-3.24.96 2.52 1.8 1.92.24.72z"/>
            <path d="m387.9 137.61-1.44.48q-1.32 2.88-1.68 3.6-1.08 1.44-2.76 2.52-2.52-1.2-3.96-.6t-6.12 2.64q-2.76-9.96-5.52-21.24-6.36 2.28-17.16 7.44-1.32 8.52-2.28 16.8-.24.12-.48.12-.36 0-1.08-.72-.72-.84-.96-.84-.72 0-1.32 2.04-.6 1.92-1.08 2.4-3.72 2.52-3.36 1.8.48-.6.48-3.84l.6-1.08-.84-1.92-2.64 3.6.6 4.68q-1.2.6-2.04.6-1.08 0-1.32-1.32-.24-1.2-.36-1.2-.48 0-1.56 2.76h-.24q.6-9.24.6-20.88 0-26.04 6.12-62.16 2.64-.84 8.04-2.76.96-.48 4.08-2.76 2.04-1.44 4.92-1.44 2.04 0 8.28-2.64-.72 3.12-1.32 6 1.32-.36 3.72-1.08.6-.96 2.28-2.16l1.08-.36-1.2 3 3.24 5.64.72-4.2-1.08-3.24.36-1.08-.6-.72q2.4-1.2 7.68-3.12.24 19.2 3.72 42.6 2.16-.72 5.52-1.8-.12 1.2-.36 3.84-.12.84-1.32 1.92-1.08.96-1.08 2.28 0 .48.72 1.56.84 1.08.84 1.92 0 .6-.24 1.92-.24 1.32-.24 1.92l-1.56.48q1.56 9.72 3.6 18.6zm-17.64-57.36-.6-1.92.12-.72-1.08-1.08-.96 2.88 2.04 3.48zm-7.2 29.76q-2.64-12.12-4.44-24.24-4.56 19.56-6.36 29.76 6-3.48 10.8-5.52zm-24 24.96-.36-.96-1.2 1.68.24 2.88.84-1.56.12-1.56zm3.84 4.8-.48-1.56-1.92 2.64.6 4.32q1.56-2.4 1.44-4.8zM440.51 70.05l-2.88-.36-5.04 4.32 3.72-.24 2.88-1.68h1.08l-.24 2.52-2.04.6q.96 1.32 1.8 2.4-.72 2.04-.96 3.24-8.64 1.8-15 3.72-2.4 19.44-2.4 44.76 0 4.44-.24 6.12-.6 3.48-.6 3.24 0 3.96.84 11.16-1.32.48-3.36 1.2-1.44-1.44-3.6-3.96l-2.16 3.36-.36-2.4.6-1.08-1.32-2.04-2.04 3.6 1.56 4.44-.12.12-1.68-1.44-2.4 1.8q-4.32-37.32-5.16-59.88-7.44 3.72-14.28 7.44l.72-6.24q.84-1.08 2.52-2.88-.96-.6-3-1.68-.12-3 .6-8.04l-1.2-3.12q29.16-14.16 50.16-20.4-.36 1.68-1.08 3.96 2.04-.24 4.32-.72-.12.84-.12 1.68 0 1.2.24 3.36t.24 3.12zm-9.6 5.16-1.8-.24-2.16 1.92 1.68-.12 1.32-.72h.36zm-2.4-3.48-2.88-.24-3.6 2.76 2.64-.12 1.92-.96h.96zm-14.04 66-.24-2.28.24-.84-.72-1.44-1.44 2.64 1.56 4.68zm-4.32 4.08-.24-1.92.24-.6-.72-1.2-.96 2.04 1.08 3.6z"/>
            <path d="M511.24 95.85q0 20.64-15.48 39.12-16.2 19.2-36.36 19.2-13.44 0-21-9.48l1.08.24-1.08-3.72-3.6-1.92q-4.08-7.92-4.08-17.64 0-20.52 15.48-38.88 16.2-19.32 36.36-19.32 8.88 0 15.72 4.8l2.64 5.4-3.72-.24-.6-2.04-5.88-2.76 1.68 3.24 2.64 1.92.36.96.12 3.6-4.68 2.28-4.44-2.16 1.68 3.36.84.6-2.16 3.36 3.48-2.28.36.24.48.84 2.16.6-.72-2.52 5.76-.48-.48-2.28 3.12-.6-1.32-2.4 6.12 2.4 1.2-1.44q4.32 8.16 4.32 18zm-13.8-5.04-.84-2.52-3.84-1.92 1.08 2.28 1.68 1.32.36.48zm-5.4 14.52q0-7.32-4.2-12.24-4.08-5.04-11.28-5.04-10.92 0-19.68 10.68-8.04 9.96-8.04 21.36 0 7.08 3.96 12 4.2 5.28 11.52 5.28 11.04 0 19.56-10.68 8.16-10.2 8.16-21.36zm-45.48 35.16-.72-2.28-3.24-1.56.96 1.8 1.44 1.2.24.6zm3.48 9.48-1.2-3.96-5.76-3 1.68 3.48 2.64 1.8.48.96zM583.65 137.85q-.6 3-.6 5.64l-1.92-.84v1.92l-.96-1.44-6.72-.72 2.88 2.52 3.24 1.08.84.72h.72l.24 3.12q-.48-.24-.84-.24t-1.32.48q-.72.24-1.68-.12l3.48 4.92q-9.72-3.84-18.48-8.88-10.8-5.4-19.56-11.76-.24 8.16.36 13.8-1.2.48-3.48 1.56l-.12-.12.96-2.16-2.64-5.76-.72 3.48.6 2.4-1.44-1.44q-.12.12-3.96 6.48l-1.68-1.32q-1.44 1.2-2.52 2.04-4.68-39.72-5.28-61.8l-1.2.6-4.2-.6-3.36 3.12q-.96-2.16-1.32-3.48.12 0 4.08-2.16l-2.16-1.56 1.56-.84h1.08l1.32-1.92-3.84-.36-1.56 1.2-.48-1.68q1.32-2.28 1.92-3.84l-4.2.72v-1.92q.6-.36 2.64-1.8 21-15.36 41.88-15.36 10.68 0 17.52 4.8 7.68 5.4 7.68 15.6 0 21.48-26.28 38.88 15.84 10.68 29.52 17.04zm-24-46.32q0-8.28-11.4-8.28-1.2 0-2.64.12-1.92 15.6-1.92 24.72 15.96-9.12 15.96-16.56zm-33.6-12.84-3.12-.36-3.48 3 2.76-.12 1.92-1.2h.84zm46.44 60.72-1.68-2.04-4.32-.72 1.8 1.68 2.28.6.36.72zm-37.32-.6-1.92-4.2-.48 2.76.48 2.04-.12.72.96 1.44zM609.26 70.53q-3.72 30.96-3.72 59.04 0 4.8-.24 6.6 0 .48-.36 1.92-.24 1.44-.24 2.28 0 2.16.36 5.4.24 4.32.36 5.28-.96.48-3.24 1.56-1.2-1.32-3.24-4.08l-.36-2.28.48-1.2-1.32-2.28-2.16 4.2 1.32 4.2q-.96 1.2-2.16 3.48l-1.56-1.44q-1.32.6-2.52 1.8-5.28-48.6-5.52-82.2 3.6-1.44 10.68-4.32.36.96 1.2 3l-.84 1.68 2.04 6.36 1.08-3.72-.36-3.24.36-1.08-.48-.96 1.8-2.28q2.88-.96 5.28-2.04-.12 1.08.96 1.68 1.08.48 1.08 1.32.6-.24.6.6.12.84.36.84zm-15.72 10.8-.36-2.16.36-.72-.96-1.44-1.32 2.52 1.32 4.44zm3.24 9-.12-1.32.12-.36-.48-.84-.72 1.44.72 2.64zm4.32 48.84-.36-2.16.36-.84-.84-1.32-1.2 2.52 1.2 4.32z"/>
        </g>
    </g>
</svg>
