<?xml version="1.0" encoding="UTF-8" ?>
<!DOCTYPE svg PUBLIC "-//W3C//DTD SVG 1.1//EN" "http://www.w3.org/Graphics/SVG/1.1/DTD/svg11.dtd">
<svg width="550pt" height="200pt" viewBox="0 0 550 200" version="1.1" xmlns="http://www.w3.org/2000/svg">
<g id="#ffffffff">
<path fill="#ffffff" opacity="1.00" d=" M 60.07 47.10 C 73.30 29.94 94.29 19.37 115.97 19.00 C 169.65 18.99 223.35 19.01 277.04 18.99 C 287.94 19.53 299.37 21.82 307.92 29.07 C 314.69 33.60 318.28 41.09 322.24 47.91 C 384.50 48.15 446.76 47.89 509.01 48.03 C 519.93 48.80 532.16 50.49 539.82 59.19 C 547.18 66.19 550.12 77.30 547.06 87.01 C 543.33 100.03 540.22 113.24 536.11 126.15 C 530.41 141.50 513.81 150.01 498.04 150.02 C 433.00 149.95 367.96 150.08 302.93 149.95 C 300.79 149.97 298.33 150.05 297.16 152.16 C 290.12 161.44 281.51 169.84 270.88 174.87 C 261.53 179.07 251.22 180.67 241.04 181.01 C 188.68 180.99 136.32 180.99 83.96 181.01 C 74.36 180.62 64.51 179.44 55.74 175.25 C 45.63 170.01 37.41 161.16 33.41 150.44 C 25.52 148.64 16.90 147.92 10.39 142.61 C 4.93 138.82 1.73 132.73 0.00 126.46 L 0.00 116.68 C 4.28 102.81 7.86 88.74 11.75 74.75 C 15.41 61.36 27.70 51.30 41.28 49.26 C 47.42 47.62 54.18 48.98 60.07 47.10 M 67.12 62.14 C 60.08 61.91 53.03 61.83 45.99 62.13 C 36.12 62.52 26.97 69.69 24.31 79.22 C 20.99 90.70 18.08 102.30 14.70 113.77 C 13.65 117.73 12.13 122.10 13.89 126.09 C 16.67 132.19 23.42 135.75 29.94 135.97 C 35.44 136.19 41.00 135.61 46.42 136.87 C 42.78 153.70 60.84 166.39 75.95 166.93 C 132.99 167.09 190.03 166.97 247.07 166.99 C 266.60 166.71 283.09 152.49 291.51 135.68 C 361.00 136.55 430.54 135.75 500.04 136.08 C 511.24 136.80 522.08 128.71 524.87 117.90 C 527.85 107.21 530.66 96.46 533.76 85.80 C 535.07 81.31 535.76 76.11 533.03 71.98 C 528.59 64.46 519.34 61.57 511.03 61.96 C 444.59 62.26 378.12 61.55 311.70 62.32 C 310.61 46.81 296.95 32.72 281.06 32.98 C 224.03 33.07 166.98 32.89 109.95 33.07 C 92.34 35.01 74.83 45.91 67.12 62.14 Z" />
<path fill="#ffffff" opacity="1.00" d=" M 329.64 73.59 C 333.13 73.17 336.65 73.11 340.16 73.31 C 338.04 85.70 333.76 97.65 330.93 109.90 C 329.69 113.73 329.10 119.17 324.64 120.57 C 318.54 121.55 312.31 120.91 306.15 120.91 C 307.66 117.55 309.38 114.28 311.31 111.15 C 314.06 110.86 316.81 110.60 319.57 110.36 C 323.42 98.25 326.09 85.80 329.64 73.59 Z" />
<path fill="#ffffff" opacity="1.00" d=" M 344.22 73.34 C 347.74 73.20 351.28 73.17 354.81 73.30 C 352.12 85.85 347.77 98.00 345.32 110.59 C 348.74 110.83 352.18 110.80 355.60 110.52 C 359.89 98.36 361.94 85.52 366.18 73.34 C 369.71 73.20 373.24 73.17 376.78 73.29 C 373.47 86.36 369.83 99.34 366.41 112.39 C 365.48 116.14 363.62 120.97 358.97 120.88 C 351.07 121.09 343.12 121.27 335.23 120.77 C 331.37 120.08 333.00 115.19 333.49 112.56 C 337.16 99.51 340.24 86.29 344.22 73.34 Z" />
<path fill="#ffffff" opacity="1.00" d=" M 380.34 73.38 C 391.17 73.14 402.01 73.44 412.84 73.23 C 411.40 76.63 409.66 79.90 407.76 83.07 C 401.38 83.80 394.96 83.03 388.57 83.56 C 387.56 86.55 386.74 89.60 386.17 92.71 C 392.04 92.78 397.92 92.50 403.78 92.89 C 403.14 95.57 402.43 98.22 401.67 100.87 C 395.69 101.80 389.62 100.92 383.62 101.57 C 382.71 104.59 381.89 107.63 381.22 110.71 C 388.43 110.84 395.64 110.42 402.85 110.89 C 401.35 114.29 399.60 117.57 397.69 120.74 C 387.74 121.26 377.75 121.03 367.79 120.87 C 371.49 104.93 376.08 89.19 380.34 73.38 Z" />
<path fill="#ffffff" opacity="1.00" d=" M 414.34 81.39 C 415.26 77.95 416.88 73.37 421.20 73.41 C 430.43 73.09 439.70 73.38 448.95 73.31 C 447.57 76.93 445.80 80.38 443.61 83.57 C 437.41 83.80 431.21 83.39 425.01 83.77 C 422.11 92.56 419.52 101.54 417.96 110.68 C 421.45 110.86 424.96 110.79 428.44 110.46 C 429.32 107.51 430.11 104.53 430.75 101.51 C 429.14 101.29 427.52 101.06 425.92 100.83 C 426.27 98.26 426.76 95.71 427.32 93.17 C 432.81 92.35 438.39 92.51 443.92 92.93 C 441.79 102.27 439.08 111.46 436.67 120.73 C 427.18 121.18 417.64 121.21 408.16 120.79 C 404.43 120.72 405.10 116.15 405.72 113.68 C 408.57 102.91 411.53 92.17 414.34 81.39 Z" />
<path fill="#ffffff" opacity="1.00" d=" M 450.76 80.75 C 451.58 77.20 453.82 73.04 458.07 73.34 C 466.72 73.56 475.51 72.44 484.05 74.11 C 483.72 86.11 478.43 97.32 476.10 109.02 C 474.77 113.52 473.94 120.57 467.96 120.86 C 460.05 121.09 452.07 121.29 444.18 120.76 C 440.71 120.49 441.27 116.28 441.89 113.91 C 444.82 102.85 447.88 91.82 450.76 80.75 M 461.09 84.09 C 458.20 92.77 455.88 101.71 454.09 110.69 C 457.55 110.86 461.03 110.79 464.49 110.46 C 467.35 101.70 469.38 92.70 471.83 83.82 C 468.30 83.41 464.46 82.54 461.09 84.09 Z" />
<path fill="#ffffff" opacity="1.00" d=" M 486.07 84.10 C 487.31 79.88 488.37 73.23 494.07 73.35 C 503.09 73.21 512.13 73.27 521.16 73.35 C 520.07 76.89 518.75 80.69 515.80 83.11 C 509.73 83.91 503.58 82.97 497.48 83.53 C 496.29 86.46 495.49 89.53 495.09 92.67 C 501.24 93.03 507.52 91.98 513.58 93.28 C 517.02 96.34 513.90 101.47 513.33 105.24 C 511.36 110.42 511.62 118.25 505.66 120.60 C 495.91 121.56 486.03 120.79 476.24 120.95 C 478.14 117.60 479.39 113.69 482.26 111.03 C 488.32 110.11 494.50 111.11 500.60 110.52 C 501.42 107.71 503.64 104.46 502.44 101.63 C 496.26 100.35 489.62 102.65 483.67 100.33 C 481.91 94.98 485.10 89.40 486.07 84.10 Z" />
</g>
<g id="#050607ff">
<path fill="#050607" opacity="1.00" d=" M 67.12 62.14 C 74.83 45.91 92.34 35.01 109.95 33.07 C 166.98 32.89 224.03 33.07 281.06 32.98 C 296.95 32.72 310.61 46.81 311.70 62.32 C 311.32 72.85 307.26 82.74 304.78 92.87 C 300.44 107.16 297.81 122.05 291.51 135.68 C 283.09 152.49 266.60 166.71 247.07 166.99 C 190.03 166.97 132.99 167.09 75.95 166.93 C 60.84 166.39 42.78 153.70 46.42 136.87 C 53.19 111.93 59.91 86.96 67.12 62.14 M 77.33 61.05 C 76.05 65.20 74.95 69.41 74.20 73.69 C 78.12 73.67 82.04 73.70 85.96 73.89 C 79.58 100.13 71.88 126.05 65.29 152.24 C 71.74 148.46 82.13 147.01 83.15 138.14 C 88.68 116.73 94.56 95.40 100.25 74.03 C 104.36 73.68 108.49 73.62 112.62 73.61 C 113.97 69.43 115.06 65.18 115.85 60.86 C 103.03 60.59 90.13 60.20 77.33 61.05 M 123.49 61.40 C 119.69 63.29 118.59 67.81 117.48 71.54 C 113.92 85.53 109.94 99.41 106.35 113.39 C 105.29 116.62 105.47 122.00 110.08 121.85 C 120.02 122.15 130.01 122.13 139.96 121.86 C 145.35 121.87 147.83 116.38 148.93 111.92 C 152.74 97.45 156.77 83.04 160.47 68.54 C 161.69 65.13 160.59 60.07 156.01 60.69 C 145.20 60.98 134.16 59.67 123.49 61.40 M 167.19 60.93 C 161.70 81.22 156.01 101.47 150.97 121.87 C 162.65 122.11 174.35 122.07 186.03 121.93 C 190.99 122.16 194.26 117.74 195.29 113.36 C 199.24 98.63 203.15 83.89 207.15 69.17 C 208.02 66.20 208.23 60.87 203.93 60.80 C 191.70 60.52 179.41 60.37 167.19 60.93 M 216.50 61.47 C 212.86 63.57 211.82 68.02 210.69 71.76 C 207.07 85.72 203.13 99.60 199.56 113.57 C 198.61 116.67 198.65 121.86 203.07 121.83 C 213.01 122.18 223.01 122.10 232.96 121.87 C 237.95 121.92 240.85 117.22 241.90 112.91 C 245.64 99.27 249.15 85.56 252.93 71.93 C 253.69 68.62 254.89 64.93 253.29 61.67 C 247.44 59.61 241.07 60.96 235.00 60.64 C 228.86 60.94 222.48 59.73 216.50 61.47 M 257.50 70.55 C 255.87 77.42 253.47 84.14 252.35 91.12 C 251.76 93.72 253.59 96.50 256.37 96.50 C 263.60 97.19 270.89 96.17 278.13 96.98 C 277.58 100.77 277.12 104.73 275.18 108.11 C 267.38 109.86 259.17 107.68 251.27 109.02 C 247.88 112.68 246.23 117.55 244.01 121.93 C 255.68 122.02 267.36 122.12 279.03 121.93 C 283.62 122.12 286.95 118.24 288.03 114.12 C 289.91 107.58 291.61 100.98 293.32 94.40 C 293.99 91.55 294.65 86.83 290.75 86.13 C 283.24 84.97 275.60 86.11 268.04 85.66 C 268.40 81.60 269.39 77.63 271.08 73.92 C 279.18 73.21 287.31 74.18 295.41 73.45 C 297.84 69.38 300.08 65.20 301.95 60.84 C 290.30 60.42 278.62 60.62 266.97 60.68 C 261.37 60.32 258.60 65.93 257.50 70.55 Z" />
<path fill="#050607" opacity="1.00" d=" M 131.20 74.06 C 135.72 73.46 140.29 73.48 144.82 74.03 C 141.94 85.56 139.10 97.13 135.50 108.45 C 131.02 108.85 126.52 108.89 122.03 108.61 C 124.47 96.96 127.65 85.43 131.20 74.06 Z" />
<path fill="#050607" opacity="1.00" d=" M 178.03 73.84 C 182.44 73.51 186.87 73.51 191.27 73.97 C 189.08 85.60 185.61 96.98 182.34 108.34 C 177.87 108.94 173.35 108.88 168.85 108.63 C 171.07 96.87 174.52 85.29 178.03 73.84 Z" />
<path fill="#050607" opacity="1.00" d=" M 224.29 74.12 C 228.82 73.43 233.43 73.47 237.97 74.04 C 235.20 85.61 232.45 97.27 228.57 108.53 C 224.14 108.85 219.69 108.88 215.27 108.50 C 217.71 96.92 221.03 85.50 224.29 74.12 Z" />
</g>
<g id="#ec1e23ff">
<path fill="#ec1e23" opacity="1.00" d=" M 77.33 61.05 C 90.13 60.20 103.03 60.59 115.85 60.86 C 115.06 65.18 113.97 69.43 112.62 73.61 C 108.49 73.62 104.36 73.68 100.25 74.03 C 94.56 95.40 88.68 116.73 83.15 138.14 C 82.13 147.01 71.74 148.46 65.29 152.24 C 71.88 126.05 79.58 100.13 85.96 73.89 C 82.04 73.70 78.12 73.67 74.20 73.69 C 74.95 69.41 76.05 65.20 77.33 61.05 Z" />
<path fill="#ec1e23" opacity="1.00" d=" M 123.49 61.40 C 134.16 59.67 145.20 60.98 156.01 60.69 C 160.59 60.07 161.69 65.13 160.47 68.54 C 156.77 83.04 152.74 97.45 148.93 111.92 C 147.83 116.38 145.35 121.87 139.96 121.86 C 130.01 122.13 120.02 122.15 110.08 121.85 C 105.47 122.00 105.29 116.62 106.35 113.39 C 109.94 99.41 113.92 85.53 117.48 71.54 C 118.59 67.81 119.69 63.29 123.49 61.40 M 131.20 74.06 C 127.65 85.43 124.47 96.96 122.03 108.61 C 126.52 108.89 131.02 108.85 135.50 108.45 C 139.10 97.13 141.94 85.56 144.82 74.03 C 140.29 73.48 135.72 73.46 131.20 74.06 Z" />
<path fill="#ec1e23" opacity="1.00" d=" M 167.19 60.93 C 179.41 60.37 191.70 60.52 203.93 60.80 C 208.23 60.87 208.02 66.20 207.15 69.17 C 203.15 83.89 199.24 98.63 195.29 113.36 C 194.26 117.74 190.99 122.16 186.03 121.93 C 174.35 122.07 162.65 122.11 150.97 121.87 C 156.01 101.47 161.70 81.22 167.19 60.93 M 178.03 73.84 C 174.52 85.29 171.07 96.87 168.85 108.63 C 173.35 108.88 177.87 108.94 182.34 108.34 C 185.61 96.98 189.08 85.60 191.27 73.97 C 186.87 73.51 182.44 73.51 178.03 73.84 Z" />
<path fill="#ec1e23" opacity="1.00" d=" M 216.50 61.47 C 222.48 59.73 228.86 60.94 235.00 60.64 C 241.07 60.96 247.44 59.61 253.29 61.67 C 254.89 64.93 253.69 68.62 252.93 71.93 C 249.15 85.56 245.64 99.27 241.90 112.91 C 240.85 117.22 237.95 121.92 232.96 121.87 C 223.01 122.10 213.01 122.18 203.07 121.83 C 198.65 121.86 198.61 116.67 199.56 113.57 C 203.13 99.60 207.07 85.72 210.69 71.76 C 211.82 68.02 212.86 63.57 216.50 61.47 M 224.29 74.12 C 221.03 85.50 217.71 96.92 215.27 108.50 C 219.69 108.88 224.14 108.85 228.57 108.53 C 232.45 97.27 235.20 85.61 237.97 74.04 C 233.43 73.47 228.82 73.43 224.29 74.12 Z" />
<path fill="#ec1e23" opacity="1.00" d=" M 257.50 70.55 C 258.60 65.93 261.37 60.32 266.97 60.68 C 278.62 60.62 290.30 60.42 301.95 60.84 C 300.08 65.20 297.84 69.38 295.41 73.45 C 287.31 74.18 279.18 73.21 271.08 73.92 C 269.39 77.63 268.40 81.60 268.04 85.66 C 275.60 86.11 283.24 84.97 290.75 86.13 C 294.65 86.83 293.99 91.55 293.32 94.40 C 291.61 100.98 289.91 107.58 288.03 114.12 C 286.95 118.24 283.62 122.12 279.03 121.93 C 267.36 122.12 255.68 122.02 244.01 121.93 C 246.23 117.55 247.88 112.68 251.27 109.02 C 259.17 107.68 267.38 109.86 275.18 108.11 C 277.12 104.73 277.58 100.77 278.13 96.98 C 270.89 96.17 263.60 97.19 256.37 96.50 C 253.59 96.50 251.76 93.72 252.35 91.12 C 253.47 84.14 255.87 77.42 257.50 70.55 Z" />
</g>
<g id="#2185c7ff">
<path fill="#2185c7" opacity="1.00" d=" M 24.31 79.22 C 26.97 69.69 36.12 62.52 45.99 62.13 C 53.03 61.83 60.08 61.91 67.12 62.14 C 59.91 86.96 53.19 111.93 46.42 136.87 C 41.00 135.61 35.44 136.19 29.94 135.97 C 23.42 135.75 16.67 132.19 13.89 126.09 C 12.13 122.10 13.65 117.73 14.70 113.77 C 18.08 102.30 20.99 90.70 24.31 79.22 Z" />
<path fill="#2185c7" opacity="1.00" d=" M 311.70 62.32 C 378.12 61.55 444.59 62.26 511.03 61.96 C 519.34 61.57 528.59 64.46 533.03 71.98 C 535.76 76.11 535.07 81.31 533.76 85.80 C 530.66 96.46 527.85 107.21 524.87 117.90 C 522.08 128.71 511.24 136.80 500.04 136.08 C 430.54 135.75 361.00 136.55 291.51 135.68 C 297.81 122.05 300.44 107.16 304.78 92.87 C 307.26 82.74 311.32 72.85 311.70 62.32 M 329.64 73.59 C 326.09 85.80 323.42 98.25 319.57 110.36 C 316.81 110.60 314.06 110.86 311.31 111.15 C 309.38 114.28 307.66 117.55 306.15 120.91 C 312.31 120.91 318.54 121.55 324.64 120.57 C 329.10 119.17 329.69 113.73 330.93 109.90 C 333.76 97.65 338.04 85.70 340.16 73.31 C 336.65 73.11 333.13 73.17 329.64 73.59 M 344.22 73.34 C 340.24 86.29 337.16 99.51 333.49 112.56 C 333.00 115.19 331.37 120.08 335.23 120.77 C 343.12 121.27 351.07 121.09 358.97 120.88 C 363.62 120.97 365.48 116.14 366.41 112.39 C 369.83 99.34 373.47 86.36 376.78 73.29 C 373.24 73.17 369.71 73.20 366.18 73.34 C 361.94 85.52 359.89 98.36 355.60 110.52 C 352.18 110.80 348.74 110.83 345.32 110.59 C 347.77 98.00 352.12 85.85 354.81 73.30 C 351.28 73.17 347.74 73.20 344.22 73.34 M 380.34 73.38 C 376.08 89.19 371.49 104.93 367.79 120.87 C 377.75 121.03 387.74 121.26 397.69 120.74 C 399.60 117.57 401.35 114.29 402.85 110.89 C 395.64 110.42 388.43 110.84 381.22 110.71 C 381.89 107.63 382.71 104.59 383.62 101.57 C 389.62 100.92 395.69 101.80 401.67 100.87 C 402.43 98.22 403.14 95.57 403.78 92.89 C 397.92 92.50 392.04 92.78 386.17 92.71 C 386.74 89.60 387.56 86.55 388.57 83.56 C 394.96 83.03 401.38 83.80 407.76 83.07 C 409.66 79.90 411.40 76.63 412.84 73.23 C 402.01 73.44 391.17 73.14 380.34 73.38 M 414.34 81.39 C 411.53 92.17 408.57 102.91 405.72 113.68 C 405.10 116.15 404.43 120.72 408.16 120.79 C 417.64 121.21 427.18 121.18 436.67 120.73 C 439.08 111.46 441.79 102.27 443.92 92.93 C 438.39 92.51 432.81 92.35 427.32 93.17 C 426.76 95.71 426.27 98.26 425.92 100.83 C 427.52 101.06 429.14 101.29 430.75 101.51 C 430.11 104.53 429.32 107.51 428.44 110.46 C 424.96 110.79 421.45 110.86 417.96 110.68 C 419.52 101.54 422.11 92.56 425.01 83.77 C 431.21 83.39 437.41 83.80 443.61 83.57 C 445.80 80.38 447.57 76.93 448.95 73.31 C 439.70 73.38 430.43 73.09 421.20 73.41 C 416.88 73.37 415.26 77.95 414.34 81.39 M 450.76 80.75 C 447.88 91.82 444.82 102.85 441.89 113.91 C 441.27 116.28 440.71 120.49 444.18 120.76 C 452.07 121.29 460.05 121.09 467.96 120.86 C 473.94 120.57 474.77 113.52 476.10 109.02 C 478.43 97.32 483.72 86.11 484.05 74.11 C 475.51 72.44 466.72 73.56 458.07 73.34 C 453.82 73.04 451.58 77.20 450.76 80.75 M 486.07 84.10 C 485.10 89.40 481.91 94.98 483.67 100.33 C 489.62 102.65 496.26 100.35 502.44 101.63 C 503.64 104.46 501.42 107.71 500.60 110.52 C 494.50 111.11 488.32 110.11 482.26 111.03 C 479.39 113.69 478.14 117.60 476.24 120.95 C 486.03 120.79 495.91 121.56 505.66 120.60 C 511.62 118.25 511.36 110.42 513.33 105.24 C 513.90 101.47 517.02 96.34 513.58 93.28 C 507.52 91.98 501.24 93.03 495.09 92.67 C 495.49 89.53 496.29 86.46 497.48 83.53 C 503.58 82.97 509.73 83.91 515.80 83.11 C 518.75 80.69 520.07 76.89 521.16 73.35 C 512.13 73.27 503.09 73.21 494.07 73.35 C 488.37 73.23 487.31 79.88 486.07 84.10 Z" />
<path fill="#2185c7" opacity="1.00" d=" M 461.09 84.09 C 464.46 82.54 468.30 83.41 471.83 83.82 C 469.38 92.70 467.35 101.70 464.49 110.46 C 461.03 110.79 457.55 110.86 454.09 110.69 C 455.88 101.71 458.20 92.77 461.09 84.09 Z" />
</g>
</svg>
