<svg height="149.307" viewBox="0 0 132.993 24.573" width="808.074" xmlns="http://www.w3.org/2000/svg">
    <g stroke-width=".411">
        <text fill="#ef00eb" font-family="TrasksHand" font-size=".329" stroke="#0105ff" transform="rotate(-4.098 -10.956 -249.645)" x="43.654" y="11.384"><tspan fill="#fafafa" fill-opacity=".4" stroke="none" x="43.654" y="11.384">John Loreth 2022</tspan></text>
        <path d="M30.243.008c-1.456.3-1.825 1.93-2.412 3.068-1.132 2.575-2.096 5.219-3.01 7.878-.547.5-1.051 1.052-1.654 1.488.236-1.557 1.115-2.914 1.552-4.398.248-1.529-1.786-2.935-3.032-1.875-.834.74-1.306 1.916-1.916 2.73.85-1.979-2.151-3.748-3.532-2.18-1.166 1.792-1.885 3.835-2.5 5.871-.804-.97-2.667-.837-3.091.42-.017.582-.389.84-.935.628-.9-.117-1.756-.437-2.624-.69 1.73-1.643 3.37-3.375 4.959-5.153 1.695-.592 2.288-3.141 1.04-4.418-.797-.657-2.007-.328-2.575.467-.484.352-1.136-.063-1.632-.053-1.87-.337-3.956-1.002-5.75-.053C1.633 4.628.66 6.52 1.093 8.243c.517 1.057 2.095.52 2.371-.451.819-1.053 2.274-.49 3.39-.443.643.014-.597.784-.738 1.113-1.323 1.365-2.614 2.828-4.165 3.92C.434 12.75-.571 14.69.357 16.055c.505.917 1.976 1.152 2.6.23.544-.297 1.15.197 1.722.246 2.31.63 4.904 1.444 7.197.305a5.128 5.128 0 0 0 1.72-1.29c.394 1.132 1.797 1.838 2.888 1.204.98-.418 1.794-1.127 2.584-1.826.04 1.136.987 2.294 2.207 2.104 1.171-.038 2.25-.82 3.162-1.307.525 1.13 1.976 1.691 3.111 1.143 1.032-.305 1.943-.915 2.766-1.594.745 1.537 2.683 2.157 4.256 1.631 1.397-.272 2.704-.904 3.873-1.705.343 1.426 2.006 2.186 3.357 1.734 1.37-.268 2.733-1.177 3.742-1.87-.338 1.235 1.069 2.344 2.216 1.882.636-.228 1.032-.823 1.548-1.232 1.668 1.069 3.871 1.914 5.773.92.307-.05.627-.59.884-.448 1.047 1.169 2.866 1.023 4.126.299 1.424-.616 3.031-1.487 3.52-3.063.159-1.016-1.151-1.917-1.987-1.211-.557.298-1.078.702-1.71.82.118-.897.48-1.752.792-2.587.926-.224 1.901-.312 2.83-.572.934-.258 2.29-.695 2.237-1.887.021-.824-.805-1.398-1.584-1.216-.697.011-1.396.045-2.094.07.543-.944 1.136-2.229.334-3.211-.765-1.06-2.439-.928-3.191.078-.888.977-.93 2.438-1.58 3.51-.405.014-.8.136-1.188.25-.653-1.132-2.305-1.55-3.397-.815-1.684.11-3.485-.808-5.08.05-.439.241-1.003-.057-1.495.086-.337-.108-1.444.28-1.315-.123.532-.895.998-2.132.238-3.046-.753-1.03-2.392-.926-3.147.05-.922.971-.959 2.455-1.61 3.544-.674.036-1.366.238-1.905.658-.333-.781-1.17-1.17-1.89-1.432-.906-1.103-2.623-.658-3.512.236-1.305 1.084-2.088 2.624-2.878 4.083-.585.616-1.167 1.248-1.865 1.742.914-3.404 2.363-6.633 3.788-9.84.3-1.277-.793-2.78-2.157-2.647zm92.772 0c-1.452.305-1.838 1.93-2.407 3.077-1.104 2.55-2.136 5.136-2.956 7.792-.559.521-.542.447-.18-.166.636-1.298.509-3.252-.955-3.932-.407-.197-.83-.257-1.109-.634-1.134-.82-2.64-.134-3.495.773-1.213 1.118-1.927 2.64-2.696 4.059-.54.52-1.062 1.063-1.653 1.527.462-1.48 1.27-2.91 1.826-4.377.129-.816-.361-1.652-1.076-2.035.808.423 2.03.152 2.197-.855.097-.794.07-1.598.2-2.39.103-.948-.59-1.817-1.524-1.963-.921-.303-2.046.07-2.38 1.036-.544 1.445-.101 3.374 1.358 4.106-1.147-.504-2.14.58-2.88 1.31-.648.648-1.044 1.507-1.445 2.294-.611.633-.323-.159-.35-.587.08-1.345-.786-3.025-2.307-2.96-.667.003-1.323.376-1.86.636-.305-1.429-2.23-1.867-3.325-1.04-.428.225-.776.734-1.057 1.007-1.24-1.257-3.277-.867-4.681-.117-1.193.636-2.197 1.705-2.593 3.014.242-1.202-.369-2.556-1.584-2.944-.603-.091-.874-.784-1.53-.82-1.624-.263-2.868 1.106-3.778 2.257-.224.222-.459.78-.622.811-.444-1.322-2.264-1.78-3.32-.899-.982.488-1.694 1.472-1.813 2.56a4.863 4.863 0 0 1-2.765 2.478c-.143-1.267.495-2.504 1.146-3.553.714-1.03 1.657-1.988 2.811-2.492.638.237 1.3.635 2 .318 1.168-.31 2.461-1.588 1.86-2.867-.737-1.374-2.577-1.567-3.94-1.178-3.2.795-5.83 3.238-7.336 6.114-.996 2.007-1.343 4.673.102 6.554.293.336.652.615 1.054.809-1.259.317-2.244 1.995-1.296 3.103.953 1.088 2.5 1.369 3.864 1.512 2.446-.105 4.313-2.219 5.106-4.388.49-1.324.742-2.719 1.086-4.084-.256 1.551.412 3.343 1.963 3.937 1.666.633 3.472-.06 5.009-.742.416-.296.638-.342.773.198.954 1.38 3.006 1.376 4.331.558.586-.325 1.155-.707 1.627-1.184-.703 2.297-1.491 4.61-2.177 6.928-.165 1.33 1.365 2.387 2.575 1.87 1.37-.26 2.902-.568 3.87-1.65.53-.736.061-1.937-.905-1.939-.361-.06-.73-.042-1.095-.058l1.275-3.702c1.519.088 2.809-.922 4.134-1.515.997-.444 2.146-1.043 3.01-1.494-.208 1.548 1.106 3.303 2.766 3.033 1.277-.16 2.401-.873 3.375-1.674.805 1.435 2.664 1.95 4.18 1.464 1.305-.238 2.55-.893 3.65-1.534.363 1.215 1.76 2.061 2.984 1.566 1.009-.228 1.9-.797 2.716-1.412.607 1.43 2.489 1.927 3.82 1.225 1.646-.562 3.41-1.469 4.197-3.1.317-.99-.849-2.156-1.797-1.514-.617.304-1.174.754-1.861.897.144-.905.459-1.821.842-2.63 1.565-.305 3.3-.385 4.623-1.382.815-.73.299-2.407-.89-2.26-.797.007-1.594.046-2.391.075.54-.943 1.135-2.223.337-3.206-.759-1.063-2.438-.936-3.193.069-.889.978-.931 2.433-1.576 3.512-.713.009-1.442.261-1.98.738.68-1.83 1.573-3.583 2.288-5.39.222-1.256-.846-2.679-2.177-2.55zm-.654 9.743c.146.434.51.769.925.947-.596.637-1.177 1.305-1.906 1.795.27-.993.59-1.971.93-2.942l.05.2zm-28.545.955c-.233.83-.468 1.852-.717 2.562-.139-1.174-1.172-1.949-1.531-3.025.703-.586 1.665-.49 2.513-.63l-.265 1.093zM46.765 9.81c.21.51.617.947.969 1.324-.641.298-1.07.94-1.227 1.616-.32-.9-1.505-.943-2.166-.403a5.493 5.493 0 0 1-1.434.707c.117-.904.476-1.77.793-2.61.795-.214 1.643-.253 2.443-.49.2-.04.443-.127.622-.144zm40.732.662c.263.42-.229.626-.506.854.238-.334.412-.714.537-1.104l-.03.25zm-31.886-.037c.257.208.575.331.9.383a7.114 7.114 0 0 1-1.172 1.805c-.849.832-2.2.874-3.178.253.872-.772 1.512-1.879 2.51-2.473.306.068.722-.209.94.032zm-16.881.078c.611.193-.23.52-.415.78.021-.064.332-.556.415-.78zm59.97 1.028a3.973 3.973 0 0 1-.998 1.082 7.16 7.16 0 0 1 1.143-1.332l-.145.25zm-25.343 5.101c-.17.338-.4.927-.809.918-.25-.204-1.078-.578-.368-.59a8.052 8.052 0 0 0 1.223-.449l-.036.093z" fill="#333"/>
        <g fill="#f4c401">
            <path d="M4.872 4.23c-1.583 0-2.728 1.54-2.923 3.055-.049.303-.024.58.122.58.195 0 .34-.252.536-.555.414-.58.95-1.136 2.143-1.136.633 0 1.29.076 2.265.202.78.076 1.559.202 1.827.252.17.026.097.228-.073.43-2.68 2.978-4.336 4.544-5.748 5.856-.463.404-.634.455-.853.455-.22 0-.706.303-.998.782a1.284 1.284 0 0 0 .121 1.49c.146.151.293.278.439.278.097 0 .268-.026.365-.152.268-.328.706-.783 1.656-.505 1.657.455 4.214 1.187 5.505 1.187.78 0 1.85-.253 2.508-.657.634-.404 1.584-1.186 1.584-1.767 0-.328-.268-.707-.439-.858-.243-.278-.73-.354-1.12-.05-.22.15-.292.252-.317.555-.073.732-.584 1.035-1.145 1.035-.657 0-1.85-.278-2.752-.58-.974-.279-1.778-.531-2.167-.632-.171-.05-.171-.151.048-.353 1.583-1.44 4.384-4.267 5.748-5.908.22-.278.39-.378.585-.378.146 0 .34-.152.536-.43.219-.303.438-.808.438-1.237 0-.732-.17-1.186-.755-1.186-.244 0-.609.303-.877.606-.17.202-.487.404-.828.378-.706-.025-2.436-.404-3.264-.555a11.543 11.543 0 0 0-2.167-.202zM22.432 13.899c-.365 0-.414-.328-.365-.884.122-1.06.609-2.7 1.12-3.786.244-.505.39-.783.488-1.01.292-.657-.341-1.44-.95-1.44-.293 0-.585.203-.975.809-.438.706-1.46 2.524-2.606 3.913-1.169 1.312-1.85 1.944-2.119 1.944-.292 0-.414-.278-.17-1.086.292-1.035.487-1.515.682-1.893.17-.329.463-.48.706-.808.22-.303.706-1.162.706-1.49 0-.454-.73-1.085-1.34-1.085-.291 0-.608.202-.852.58a25.617 25.617 0 0 0-1.631 3.838c-.682 1.868-.755 2.499-.755 2.903 0 .808.511 1.59 1.022 1.59.366 0 .756-.1 1.267-.429 1.461-.96 3.069-2.575 3.459-3.004.146-.152.316-.05.243.227-.073.278-.146.556-.22.96-.291 1.464.147 2.322.902 2.322.365 0 1.047-.177 1.73-.53.852-.43 2.289-1.363 4.14-3.888.365-.48.511-1.035.365-1.338-.097-.227-.292-.227-.487-.025-1.437 1.666-3.532 3.61-4.36 3.61z"/>
            <path d="M25.16 14.43c0 .908.536 1.64 1.242 1.64 2.241 0 5.261-3.206 5.968-4.696.195-.404.268-.782.17-.984-.097-.177-.292-.202-.511.076-1.608 2.02-3.459 3.509-4.214 3.509-.39 0-.584-.354-.195-1.667.56-1.893 1.632-5.352 3.434-8.962.512-1.035.634-1.49-.17-2.196a.576.576 0 0 0-.438-.177c-.195 0-.415.101-.634.379-.365.48-1.218 2.247-2.703 6.11-1.656 4.291-1.949 6.235-1.949 6.967z"/>
            <path d="M30.933 13.57c0 1.591 1.096 2.5 2.216 2.5 2.85 0 5.894-2.146 7.55-4.342.317-.43.439-.884.317-1.11-.097-.178-.34-.203-.584.075-2.485 2.6-4.726 3.433-6.187 3.433-.706 0-1.096-.379-1.096-.934 0-.353.073-.58.195-.833.073-.177.146-.202.317-.126.219.1.487.202.755.202 1.315 0 2.167-.657 2.679-1.187.487-.555.925-1.287.925-2.196 0-.96-.584-1.515-1.412-1.565a.552.552 0 0 1-.366-.228c-.146-.303-.39-.504-.852-.504-1.023 0-2.29 1.514-2.777 2.221-1.071 1.59-1.68 3.459-1.68 4.595zm3.288-2.6c-.317 0-.366-.075-.268-.378.292-.783 1.096-2.02 1.583-2.02.317 0 .56.202.56.556 0 .706-1.12 1.842-1.875 1.842z"/>
            <path d="M42.526 14.1c-.633 0-.73-.479-.609-1.236.098-.732.61-2.222.95-3.03.122-.252.22-.328.536-.378 2.168-.303 3.605-.707 4.019-.934.34-.202.633-.783.048-.783-.657 0-2.41.101-3.507.126-.146 0-.365.026-.292-.176.097-.228.487-1.288 1.023-2.298.243-.429.22-.883-.146-1.262-.195-.202-.341-.278-.585-.278-.365 0-1.047.379-1.266.859-.244.53-.999 2.751-1.12 3.004-.098.278-.244.328-.463.379-.488.1-.902.201-1.194.252-.34.076-.487.202-.706.48-.195.227-.22.606-.049.782.146.126.341.278.609.253.317-.05.658-.076.852-.101.244-.026.244.075.17.252-.12.354-.925 2.802-1.168 3.51-.195.53-.268.832-.268 1.135 0 .884.852 1.414 1.559 1.414.316 0 .633-.05 1.047-.202 1.948-.656 2.947-1.565 3.385-2.045.415-.454.317-1.136-.243-.757-.585.379-1.754 1.035-2.582 1.035z"/>
            <path d="M53.535 14.303c-1.023 0-2.362-.833-2.63-1.086-.122-.126-.073-.252.097-.454.536-.682 2.192-2.449 2.533-2.802.463-.48.804-.581.999-.581.097 0 .316.05.414.05.195 0 .365-.176.536-.403.17-.253.462-.632.097-1.136-.292-.43-.852-.632-1.315-.632-.22 0-.439.076-.61.202-.12.101-.316.202-.632.202-.341 0-.634-.025-1.12-.075-1.243-.177-1.852-.278-2.436-.278-.877 0-1.145.278-1.705.984a1.052 1.052 0 0 0-.025 1.263c.17.252.658.96.999 1.136.39.202.706.151.56-.227-.17-.505-.17-.808-.049-1.086.098-.202.268-.353.536-.353.293 0 .999.075 1.68.151.293.05.342.152.098.404-.657.707-1.461 1.616-2.29 2.449-.145.151-.243.126-.413.025-.122-.076-.317-.1-.487-.1-.341 0-.95.479-.95 1.564 0 .177 0 .227-.146.455-.195.202-.78 1.01-.78 1.439 0 .252.146.404.244.505.146.151.536.227.877-.026a20.834 20.834 0 0 0 1.266-1.136c.22-.277.317-.277.56-.126 1.486.909 2.509 1.464 3.751 1.464 2.143 0 3.727-2.272 4.019-3.56.097-.53-.244-.63-.439-.252-.438.884-1.363 2.02-3.239 2.02z"/>
            <path d="M59.527 14.1c-.634 0-.731-.479-.61-1.236.098-.732.61-2.222.95-3.03.122-.252.22-.328.537-.378 2.167-.303 3.604-.707 4.018-.934.341-.202.634-.783.049-.783-.658 0-2.411.101-3.507.126-.146 0-.366.026-.293-.176.098-.228.488-1.288 1.023-2.298.244-.429.22-.883-.146-1.262-.195-.202-.34-.278-.584-.278-.366 0-1.048.379-1.267.859-.243.53-.998 2.751-1.12 3.004-.098.278-.244.328-.463.379-.487.1-.901.201-1.193.252-.341.076-.488.202-.707.48-.195.227-.219.606-.048.782.146.126.34.278.608.253.317-.05.658-.076.853-.101.243-.026.243.075.17.252-.121.354-.925 2.802-1.169 3.51-.195.53-.268.832-.268 1.135 0 .884.853 1.414 1.56 1.414.316 0 .632-.05 1.047-.202 1.948-.656 2.947-1.565 3.385-2.045.414-.454.317-1.136-.244-.757-.584.379-1.753 1.035-2.581 1.035zM68.903 12.965c0 .555.098 1.035.341 1.666.244.606 1.048 1.439 1.9 1.439.633 0 1.194-.126 1.827-.43.584-.302 1.583-.883 1.85-1.11.196-.177.293-.151.171.202-.097.303-.243.909-.535 1.792-.56 1.641-1.316 2.121-1.876 2.121-.243 0-.56-.126-.852-.454-.244-.228-.731-.581-1.12-.581-.317 0-.707.126-1.121.606-.365.379-.317.858.049 1.161.682.556 2.192.985 3.142.985.462 0 .998-.202 1.51-.53 1.071-.682 2.07-1.92 2.435-2.98.341-.984.975-3.357 1.242-4.67.195-.909.56-1.792 1.12-2.373.244-.227.342-.454.171-.707-.292-.429-.584-.606-.925-.606-.439 0-1.34.581-1.705.935-.244.252-.39.504-.414.908-.049.833-.877 1.793-1.608 2.474-.828.783-1.997 1.288-2.484 1.288-.414 0-.804-.379-.804-1.44 0-1.337.828-3.306 2.192-4.796 1.291-1.413 2.485-1.918 2.777-1.918.268 0 .463.075.755.252.243.152.609.278 1.023.177.292-.076.901-.556 1.12-.808.317-.353.17-.808-.219-1.086a2.567 2.567 0 0 0-1.437-.429c-.901 0-2.29.404-3.605 1.237-3.117 2.02-4.92 4.999-4.92 7.675zM79.644 13.57c0 1.591 1.096 2.5 2.217 2.5 2.85 0 5.894-2.146 7.55-4.342.317-.43.439-.884.317-1.11-.098-.178-.341-.203-.585.075-2.484 2.6-4.725 3.433-6.186 3.433-.707 0-1.096-.379-1.096-.934 0-.353.073-.58.195-.833.073-.177.146-.202.316-.126.22.1.487.202.755.202 1.316 0 2.168-.657 2.68-1.187.487-.555.925-1.287.925-2.196 0-.96-.585-1.515-1.413-1.565a.552.552 0 0 1-.365-.228c-.146-.303-.39-.504-.852-.504-1.023 0-2.29 1.514-2.777 2.221-1.072 1.59-1.68 3.459-1.68 4.595zm3.288-2.6c-.316 0-.365-.075-.267-.378.292-.783 1.096-2.02 1.583-2.02.316 0 .56.202.56.556 0 .706-1.12 1.842-1.876 1.842z"/>
            <path d="M92.772 6.856c-.803 0-2.07.429-2.825 1.11-.706.58-1.461 1.566-1.461 2.474 0 .329.121.758.243 1.06.17.38.56 1.086.804 1.414.34.48.56.934.56 1.187 0 .151-.195.353-.511.353-.341 0-.487-.05-.731-.151-.22-.177-.39-.177-.609-.05-.22.1-.536.302-.877.706-.17.152-.195.354-.195.53.098.556 1.023.934 1.681.934.268 0 .56-.075.926-.227.535-.227 1.46-.757 1.778-1.06.292-.278.608-.909.608-1.288 0-.656-.365-1.388-.925-2.12-.414-.58-.73-1.136-.73-1.616 0-.782 1.68-1.439 3.19-1.439.414 0 .78-.202.78-.681 0-.303-.098-.556-.415-.783-.316-.227-.682-.353-1.29-.353zM101.297 7.057c-.195 0-.609.076-1.096.329-1.242.58-2.338 1.716-2.728 2.095-.244.202-.414.177-.292-.151.316-.91.584-1.692 1.071-2.121.17-.177.17-.379-.024-.58-.17-.203-.536-.38-.901-.38-.414 0-1.023.354-1.34.707-.243.253-.414.707-.584 1.389-.146.656-.293 1.287-.78 3.18-1.461 5.48-3.166 10.301-3.312 10.73-.122.43-.097.682.024.909.17.278.366.379.634.379.925 0 2.167-.379 3.288-.833.438-.177.682-.581.682-.682 0-.126-.122-.202-.512-.227-1.12-.026-1.559-.076-1.778-.202-.17-.101-.22-.253-.097-.58.219-.582 1.632-4.697 1.705-4.924.073-.176.17-.429.316-.303.122.152.341.354.512.354.146 0 .268-.025.487-.076.633-.126 1.85-.682 2.387-1.01.463-.303.706-.429 1.29-.656 1.316-.48 4.092-2.146 5.505-3.711.658-.808.536-1.616-.17-1.06-1.486 1.085-3.459 2.272-3.727 2.398-.17.076-.195.05-.122-.101.122-.227.755-1.49.78-3.105 0-.43-.317-1.768-1.218-1.768zm-1.17 2.172c.123 0 .293.176.293.555 0 .833-.901 2.424-1.315 2.903a4.163 4.163 0 0 1-1.267 1.01c-.584.303-1.266.53-1.583.53-.34 0-.365-.126-.268-.379.366-1.136 1.218-2.55 2.85-3.862.804-.631 1.096-.757 1.29-.757z"/>
            <path d="M108.482 1.781c-.536 0-.828.278-.877 1.06-.024.581.049.985.122 1.263.122.454.511.909 1.047 1.11.463.177.804.152.804-.353 0-.606 0-1.237.146-2.095.122-.631-.536-.985-1.242-.985zm-3.045 14.365c.415 0 .877-.101 1.486-.354 1.413-.58 3.678-2.852 4.628-4.443.316-.53.39-.934.268-1.161-.098-.177-.341-.202-.634.126-1.363 1.59-3.775 3.863-4.554 3.863-.463 0-.512-.354-.268-1.136.585-1.944 1.193-3.358 1.948-4.721.244-.48 0-1.035-.316-1.288a.647.647 0 0 0-.414-.151c-.707 0-2.241 1.691-2.63 2.726-.147.379-.098.606 0 .833.121.228.121.379 0 .732-.196.455-.61 1.843-.756 2.45-.17.605-.17 1.06.049 1.514.341.783.828 1.01 1.193 1.01z"/>
            <path d="M109.773 13.57c0 1.591 1.096 2.5 2.216 2.5 2.85 0 5.894-2.146 7.55-4.342.317-.43.44-.884.317-1.11-.097-.178-.34-.203-.584.075-2.485 2.6-4.725 3.433-6.187 3.433-.706 0-1.096-.379-1.096-.934 0-.353.073-.58.195-.833.073-.177.146-.202.317-.126.219.1.487.202.755.202 1.315 0 2.167-.657 2.679-1.187.487-.555.925-1.287.925-2.196 0-.96-.584-1.515-1.412-1.565a.552.552 0 0 1-.366-.228c-.146-.303-.39-.504-.852-.504-1.023 0-2.29 1.514-2.777 2.221-1.071 1.59-1.68 3.459-1.68 4.595zm3.288-2.6c-.317 0-.365-.075-.268-.378.292-.783 1.096-2.02 1.583-2.02.317 0 .56.202.56.556 0 .706-1.12 1.842-1.875 1.842z"/>
            <path d="M117.932 14.43c0 .908.536 1.64 1.242 1.64 2.241 0 5.261-3.206 5.968-4.696.194-.404.267-.782.17-.984-.097-.177-.292-.202-.511.076-1.608 2.02-3.459 3.509-4.214 3.509-.39 0-.585-.354-.195-1.667.56-1.893 1.632-5.352 3.434-8.962.512-1.035.634-1.49-.17-2.196a.576.576 0 0 0-.439-.177c-.194 0-.414.101-.633.379-.365.48-1.218 2.247-2.703 6.11-1.657 4.291-1.949 6.235-1.949 6.967z"/>
            <path d="M126.75 14.1c-.634 0-.732-.479-.61-1.236.098-.732.61-2.222.95-3.03.122-.252.22-.328.536-.378 2.168-.303 3.605-.707 4.019-.934.34-.202.633-.783.048-.783-.657 0-2.41.101-3.507.126-.146 0-.365.026-.292-.176.097-.228.487-1.288 1.023-2.298.243-.429.219-.883-.146-1.262-.195-.202-.341-.278-.585-.278-.365 0-1.047.379-1.266.859-.244.53-.999 2.751-1.12 3.004-.098.278-.244.328-.464.379-.487.1-.9.201-1.193.252-.341.076-.487.202-.706.48-.195.227-.22.606-.05.782.147.126.342.278.61.253.316-.05.657-.076.852-.101.244-.026.244.075.17.252-.121.354-.925 2.802-1.168 3.51-.195.53-.268.832-.268 1.135 0 .884.852 1.414 1.559 1.414.316 0 .633-.05 1.047-.202 1.948-.656 2.947-1.565 3.385-2.045.414-.454.317-1.136-.243-.757-.585.379-1.754 1.035-2.582 1.035z"/>
        </g>
    </g>
</svg>
