<svg height="154.146" viewBox="0 0 104.989 25.369" width="637.919" xmlns="http://www.w3.org/2000/svg">
    <g stroke-width=".411">
        <text fill="#ef00eb" font-family="TrasksHand" font-size=".329" stroke="#0105ff" transform="rotate(-43.498 -1.734 -.548)" x="7.97" y="30.371"><tspan fill="#fafafa" fill-opacity=".4" stroke="none" x="7.97" y="30.371">John Loreth 2022</tspan></text>
        <path d="M101.456 0c-1.23.012-1.665 1.375-2.004 2.332-.597 1.332-1.103 2.704-1.666 4.05-2.494-.121-4.575 1.72-5.862 3.688.343-1.16.042-2.642-1.166-3.17-.52-.19-.935-.48-1.377-.798-1.276-.588-2.66.243-3.477 1.217-.348.296-.801.992-.987 1.113.218-1.33-.97-2.913-2.399-2.563-.865.266-1.353 1.145-1.809 1.865-.408.646-.398 1.43-.462 2.143-.086.237-.425.954-.484.85.157-1.476.296-3.2-.686-4.428-.925-.796-2.35-.162-2.832.834-.617.778-.73 1.817-.51 2.757.145.956-.807 1.471-1.296 2.151-.213.19-.883 1.066-.702.277.08-1.453.766-2.787 1.09-4.172-.023-.996-1.038-1.854-2.026-1.68-1.132-.917-2.68-.193-3.711.525-2.129 1.424-3.089 4-5.195 5.446.888-3.261 2.338-6.435 3.734-9.54.396-1.436-1.21-3.187-2.656-2.44-1.203.686-1.486 2.176-2.084 3.32-.375.824-.757 1.856-1.111 2.563-.715-1.611-2.463-2.43-4.098-2.692-.59-.296-1.054-.913-1.787-.92-.827-.137-1.543.441-1.885 1.15-.568.485-1.388.59-1.965 1.098-.894.519-1.423 1.914-.513 2.669.319.294.745.46 1.176.486-.561 1.717-1.055 3.452-1.577 5.181-.855.374-1.703 1.322-1.233 2.298.525 1.54 2.713 2.221 3.982 1.165 1.34-.125 3.073-.257 3.709-1.664.354-1.046-.816-1.867-1.764-1.765-.456.028-.751-.043-.502-.56.281-.116.833.07 1.223-.073a9.358 9.358 0 0 0 3.681-1.942c-.403 1.41-.954 2.91-.652 4.388.278 1.18 1.523 2.062 2.731 1.725.93-.134 1.763-.619 2.525-1.144.684 1.236 2.489 1.582 3.573.665.617-.311 1.166-.944 1.68-1.26.465 1.284 1.978 2.208 3.306 1.637.931-.263 1.718-.872 2.417-1.52.387.478-.016.815-.336 1.2-1.054 1.29-1.987 2.701-2.911 4.064-1.233.717-2.327 2.101-2.137 3.589.463 1.67 3.094 1.626 3.771.143.83-.975 2.5-1.146 2.854-2.54.17-.378-.066-.824-.008-1.157 2.05-2.755 4.43-5.273 6.199-8.229-.3 1.214-.224 2.62.706 3.553.836 1.005 2.242 1.257 3.459.958 1.102-.14 2.216-.673 3.151-1.09.497 1.142 1.968 1.574 3.044.999 1.084-.355 2.037-1.02 2.888-1.768.29 1.226 1.598 2.198 2.861 1.771 2.265-.514 3.838-2.447 5.065-4.288.517-.833.958-2.185.066-2.918-.83-.555-1.9.062-2.287.869-.57.707-1.135 1.43-1.83 2.02.405-3.453 1.832-6.607 3.143-9.779.24-1.236-.756-2.628-2.047-2.659zm-88.17 3.068c-1.583.023-2.433 1.603-2.937 2.892-.48 1.095-.921 2.209-1.325 3.335-.58-1.009-1.179-2.007-1.693-3.05.652-1.268-.46-2.947-1.887-2.796-.813.018-1.65.534-1.879 1.34-.847.613-1.43 1.983-.605 2.848-.555 1.009-.854 2.146-1.38 3.18C.993 12.23.261 13.626 0 15.138c-.037 1.496 1.813 2.66 3.105 1.807 1.373-.678 1.806-2.343 1.731-3.757.09-.692.383-1.332.655-1.966 1.023 1.71 1.88 3.556 3.094 5.14.962.884 2.765.729 3.311-.552.411-.635.211-1.442-.074-2.053.252-2.176 1.13-4.148 2.02-6.135.319-.516 1.14-.424 1.352-1.074.387-1.055-.041-2.361-.869-3.088a1.685 1.685 0 0 0-1.04-.39zm4.41 2.827c-1.935.094-3.212 1.822-4.145 3.33-1.016 1.794-1.91 4.066-.966 6.074.79 1.46 2.67 1.978 4.194 1.496 1.284-.232 2.493-.875 3.595-1.483.366 1.162 1.725 1.991 2.897 1.462 2.768-.779 4.73-3.126 6.124-5.522.607-.091.571.16.364.656-.514 1.618-.223 3.762 1.41 4.625 1.736.884 3.773.174 5.411-.601.304-.076.723-.563.9-.332.601 1.243 2.59 1.781 3.47.54.92-1.592 1.62-3.311 2.749-4.78.314-.374.627-.94 1.061-1.11.836.354 1.7-.151 2.139-.868.759-.933.813-2.613-.41-3.19-1.308-.661-2.804.167-3.69 1.154-.381-1.25-2.157-1.692-3.08-.761-.668.393-1.108 1.171-1.297 1.85-.183-.954-1.06-1.653-1.99-1.82-.834-1.127-2.55-.76-3.45.09-.622.418-.962 1.39-1.842 1.217-.37-.038-1.119.131-1.128-.418-.32-1.11-1.66-1.918-2.742-1.321a2.782 2.782 0 0 0-1.601 1.596c-.259-1.106-1.515-2.008-2.61-1.404-1.011.445-1.606 1.472-1.937 2.48-.023-1.098-.923-2.051-1.993-2.22-.354-.423-.874-.724-1.433-.74zM57.458 7.27c.44.128.491.59.076.776-.286.21-1.03.892-.643.156.186-.218.204-1.058.567-.932z" fill="#333"/>
        <g fill="#f4c401">
            <path d="M5.49 4.42c-.266 0-.58.123-.748.296-.12.147-.265.344-.265.467 0 .123-.097.27-.314.418-.314.222-.53.566-.603.787-.096.345.072.542.29.763.144.148.217.32.096.59-.241.616-1.688 4.035-2.58 6.102-.121.27-.362.934-.362 1.205 0 .837.554 1.181 1.06 1.181.314 0 .773-.172 1.134-.59.53-.64.603-.96.603-2.14 0-.148 0-.345.097-.788.193-.836.916-2.46 1.35-3.346.097-.172.193-.221.338.025.338.541 1.447 2.632 2.243 3.936.771 1.255.964 1.771 1.11 1.968.192.27.698.664 1.205.664.386 0 .603-.221.82-.516s.241-.665.12-.861c-.144-.222-.289-.37-.289-.59 0-.345 0-.64.217-1.501.555-2.14 1.134-3.666 2.074-5.56.169-.37.458-.542.724-.566.361-.025.554-.197.554-.492 0-.443-.265-1.82-1.133-1.82-.29 0-.603.122-.917.442-.337.345-.723.96-1.35 2.534a49.585 49.585 0 0 0-1.592 4.305c-.096.27-.145.32-.29.05-.216-.394-2.339-4.06-2.604-4.552-.145-.27-.217-.516-.217-.64 0-.098.072-.196.169-.418.12-.172.193-.442 0-.762-.193-.345-.434-.59-.94-.59zM13.15 13.523c0 1.55 1.085 2.435 2.195 2.435 2.821 0 5.836-2.09 7.476-4.231.313-.418.434-.861.313-1.083-.096-.172-.337-.196-.578.074-2.46 2.534-4.68 3.346-6.126 3.346-.7 0-1.085-.369-1.085-.91 0-.345.072-.566.193-.812.072-.172.144-.197.313-.123.217.098.482.197.748.197 1.302 0 2.146-.64 2.653-1.156.482-.542.916-1.255.916-2.14 0-.936-.579-1.477-1.399-1.526a.548.548 0 0 1-.362-.222c-.144-.295-.385-.492-.844-.492-1.013 0-2.267 1.477-2.749 2.165-1.061 1.55-1.664 3.37-1.664 4.478zm3.256-2.534c-.314 0-.362-.074-.265-.37.289-.762 1.085-1.967 1.567-1.967.314 0 .555.197.555.541 0 .689-1.11 1.796-1.857 1.796z"/>
            <path d="M28.175 6.979c-.675 0-1.664.738-1.664 1.451 0 .419.145.763.362.935.169.123.145.295.096.443-.627 1.525-1.567 2.78-2.604 3.666-.314.246-.53.369-.7.369-.24 0-.337-.443-.144-1.28.168-.738.385-1.451.795-2.214.41-.762.531-1.131.507-1.722-.072-.812-.482-1.476-.94-1.476-.965 0-1.834 1.6-1.954 2.485-.048.32.024.467.145.566.096.098.12.147.024.418-.651 1.82-.82 2.878-.868 3.321-.145 1.55.771 1.993 1.109 1.993.41 0 .868-.074 1.567-.418 1.423-.739 3.063-1.895 4.848-5.142.072-.148.169-.222.362-.172.193.049.506.098 1.181.098 1.206 0 2.195-.541 2.726-1.082.265-.271.24-.738-.193-.517-.242.123-.94.197-1.76.221-.724 0-1.4-.147-1.713-.344-.217-.148-.217-.32-.241-.517-.073-.369-.338-1.082-.94-1.082z"/>
            <path d="M30.505 13.523c0 1.55 1.085 2.435 2.195 2.435 2.821 0 5.836-2.09 7.476-4.231.313-.418.434-.861.313-1.083-.096-.172-.337-.196-.578.074-2.46 2.534-4.679 3.346-6.126 3.346-.7 0-1.085-.369-1.085-.91 0-.345.072-.566.193-.812.072-.172.144-.197.313-.123.217.098.483.197.748.197 1.302 0 2.146-.64 2.653-1.156.482-.542.916-1.255.916-2.14 0-.936-.579-1.477-1.399-1.526a.547.547 0 0 1-.361-.221c-.145-.296-.386-.493-.844-.493-1.013 0-2.267 1.477-2.75 2.165-1.06 1.55-1.664 3.37-1.664 4.478zm3.256-2.534c-.314 0-.362-.074-.265-.37.289-.762 1.085-1.967 1.567-1.967.314 0 .555.197.555.541 0 .689-1.11 1.796-1.857 1.796z"/>
            <path d="M45.56 6.93c-.988 0-1.784.762-2.508 1.599-.844.885-1.688 2.288-1.953 2.681-.169.222-.314.246-.265 0 .12-.787.458-1.919.723-2.386.169-.295.362-.59.362-.812 0-.443-.362-.96-.82-.96-.338 0-.772.296-1.085.567-.434.369-.627.688-.772 1.795-.12 1.255-.314 3.248-.917 4.847-.168.492-.096.763.17 1.058.313.369.65.566 1.036.566s.748-.32.99-.96c.313-.763 1.543-3.149 2.748-4.625.627-.812 1.062-1.156 1.327-1.156.193 0 .41.098.579.197.193.123.458.024.747-.32.241-.246.483-.738.555-1.132.096-.516-.386-.96-.916-.96z"/>
        </g>
        <g fill="#f4c401">
            <path d="M61.004 7.446c0-.295-.097-.812-.386-1.205-.675-.935-2.412-1.624-3.28-1.624-.193 0-.265-.049-.41-.197-.53-.54-.989-.738-1.254-.738-.458 0-.772.566-.892.886-.073.148-.121.197-.338.295-.7.246-1.568.664-2.122 1.156-.41.37-.338.69-.17.861.194.222.483.271.676.271.169 0 .772-.344 1.134-.541.265-.148.265-.05.144.32-.579 1.894-1.64 5.19-2.05 6.839-.12.27-.289.393-.554.492-.651.27-.869.615-.676 1.058.266.566.82.984 1.616.984.338 0 .7-.148.844-.32.193-.221.507-.246.748-.246 1.037 0 1.905-.27 2.267-.541.434-.32.53-.714-.024-.788-.53-.073-1.447-.147-1.881-.27-.338-.099-.434-.197-.29-.59.338-1.354.82-2.756 1.327-4.183.579-1.623.796-2.239 1.085-2.903.096-.221.241-.27.434-.27.579 0 1.905.393 1.905 1.451 0 1.009-1.278 1.55-2.098 2.116-.506.344-.965.689-1.157.935-.145.172-.29.467-.29.689 0 .27.265.418.458.418s.459-.025.748-.099c.892-.246 2.002-.86 2.508-1.23.917-.59 1.978-1.919 1.978-3.026zM60.455 14.36c0 .885.531 1.598 1.23 1.598 2.22 0 5.21-3.124 5.909-4.575.193-.394.265-.763.169-.96-.097-.172-.29-.197-.507.074-1.591 1.968-3.424 3.42-4.172 3.42-.386 0-.579-.345-.193-1.624.555-1.845 1.616-5.216 3.4-8.734.507-1.008.628-1.451-.168-2.14a.575.575 0 0 0-.434-.172c-.193 0-.41.098-.627.369-.362.467-1.206 2.19-2.677 5.953-1.64 4.183-1.93 6.077-1.93 6.79z"/>
            <path d="M71.67 7.003c-.265 0-1.302.099-2.628 1.28-1.013.935-2.026 2.14-2.653 3.444-.772 1.5-.917 2.288-.917 2.78 0 .935.94 1.451 1.23 1.451.507 0 1.013-.221 1.664-.713.676-.492 1.954-1.673 2.243-2.017.145-.148.193-.148.217.073 0 .271 0 .492.048.861.097 1.01.748 1.796 1.64 1.796 1.52 0 3.86-2.312 4.92-4.452.217-.468.338-.91.217-1.132-.096-.172-.337-.197-.603.05-1.519 2.14-3.159 3.64-3.714 3.64-.361 0-.603-.344-.603-1.205 0-1.476.435-3.002 1.062-4.453.072-.222.193-.517-.483-.91-.217-.148-.386-.099-.579.073-.144.099-.265.099-.313-.049-.145-.197-.41-.517-.748-.517zm-.892 1.846c.314 0 .506.295.579.516.072.246 0 .566-.145.812-.096.172-.482.861-.82 1.255-.723.86-1.061 1.328-1.471 1.673-.362.32-.723.565-.916.565s-.242-.344-.17-.664c.145-.664.82-2.042 1.64-3.026.7-.836 1.086-1.131 1.303-1.131z"/>
            <path d="M76.617 13.154c-.073 1.648.193 2.362.627 2.362h.169c.048 0 .024.049-.073.172-1.085 1.328-1.905 2.435-2.484 3.198-.771 1.107-1.085 1.574-1.278 1.993-.12.246-.338.442-.53.516-.193.074-.555.246-1.037.886-.314.418-.531.787-.652 1.255-.144.467.314.86.82.86.459 0 .844-.147 1.134-.59.29-.443.458-.689.94-.91.507-.246 1.857-.91 1.882-1.624 0-.221-.145-.393-.362-.467-.073-.099.048-.27.265-.566.241-.418 2.002-2.534 4.582-5.781 1.11-1.378 2.58-3.961 3.015-5.044.217-.54.337-1.057.337-1.353 0-.64-.723-1.279-.964-1.279-.338 0-.53.197-.772.467-.362.443-.555.788-.772 1.181a1.47 1.47 0 0 0-.169 1.009c.073.295.049.615-.313 1.23-1.302 2.288-2.074 3.124-2.17 3.124-.17 0-.314-.295-.266-.91.048-.812.314-2.608.338-3.567.024-.984-.12-2.41-.796-2.41-.555 0-.989.688-1.278 1.205-.217.393-.241.664-.193.836.048.148.12.344.096.861zM84.058 13.523c0 1.55 1.086 2.435 2.195 2.435 2.822 0 5.836-2.09 7.476-4.231.314-.418.434-.861.314-1.083-.097-.172-.338-.196-.579.074-2.46 2.534-4.679 3.346-6.126 3.346-.7 0-1.085-.369-1.085-.91 0-.345.072-.566.193-.812.072-.172.145-.197.314-.123.217.098.482.197.747.197 1.302 0 2.147-.64 2.653-1.156.482-.542.916-1.255.916-2.14 0-.936-.578-1.477-1.398-1.526a.548.548 0 0 1-.362-.221c-.145-.296-.386-.493-.844-.493-1.013 0-2.267 1.477-2.75 2.165-1.06 1.55-1.664 3.37-1.664 4.478zm3.256-2.534c-.313 0-.362-.074-.265-.37.29-.762 1.085-1.967 1.568-1.967.313 0 .554.197.554.541 0 .689-1.11 1.796-1.857 1.796z"/>
            <path d="M97.66 7.348c-1.327 0-2.63.566-3.932 2.017-1.809 2.018-2.412 3.986-2.412 5.043 0 1.23.555 1.6 1.086 1.6.53 0 1.495-.32 2.556-1.058.603-.419 1.76-1.452 2.34-2.19.12-.172.216-.147.192.05a8.886 8.886 0 0 0-.12 1.156c-.049.86.361 1.894 1.35 1.894 1.881 0 4.293-2.706 5.04-4.28.218-.468.338-.91.218-1.132-.145-.246-.434-.197-.724.221-.458.689-2.725 3.321-3.473 3.321-.361 0-.53-.443-.458-1.23.097-1.23.627-3.715 1.327-5.683.795-2.214 1.398-3.37 1.736-4.207.241-.615.241-.934-.096-1.353-.386-.467-.627-.54-.893-.54-.169 0-.337.098-.53.516-.29.615-1.375 3.247-2.388 5.806-.048.147-.096.147-.217.123a2.384 2.384 0 0 0-.603-.074zm-.483 1.427c.193 0 .362.123.434.27.096.173.12.37-.024.69-.145.368-1.206 2.115-2.026 2.951-.772.763-1.35 1.083-1.64 1.083-.169 0-.314-.172-.314-.418 0-.37.121-.91 1.158-2.387.917-1.328 1.978-2.19 2.412-2.19z"/>
        </g>
    </g>
</svg>
