<svg height="148.353" width="678.878" xmlns="http://www.w3.org/2000/svg">
    <linearGradient id="c" gradientUnits="userSpaceOnUse" x1="148.319" x2="151.977" y1="162.589" y2="52.277">
        <stop offset="0" stop-color="#373969"/>
        <stop offset=".437" stop-color="#a7bbf1"/>
        <stop offset="1" stop-color="#2170cc"/>
    </linearGradient>
    <filter id="d" color-interpolation-filters="sRGB" height="1.066" width="1.012" x="-.006" y="-.035">
        <feGaussianBlur in="SourceGraphic" result="blur" stdDeviation="1"/>
        <feDiffuseLighting result="diffuse" surfaceScale="10">
            <feDistantLight azimuth="220" elevation="30"/>
        </feDiffuseLighting>
        <feComposite in="diffuse" in2="diffuse" k1="1" operator="arithmetic" result="composite1"/>
        <feComposite in="composite1" in2="SourceGraphic" k1="1" k3="1" operator="arithmetic" result="composite2"/>
    </filter>
    <filter id="b" color-interpolation-filters="sRGB" height="1.031" width="1.042" x="-.021" y="-.015">
        <feGaussianBlur in="SourceAlpha" result="blur" stdDeviation=".5"/>
        <feSpecularLighting in="blur" result="specular" specularConstant="3.339" specularExponent="25" surfaceScale="10">
            <feDistantLight azimuth="211" elevation="26"/>
        </feSpecularLighting>
        <feComposite in="specular" in2="SourceGraphic" k2="1" k3="1" operator="arithmetic" result="composite1"/>
        <feComposite in="composite1" in2="SourceAlpha" operator="in" result="composite2"/>
    </filter>
    <linearGradient id="a" gradientUnits="userSpaceOnUse" x1="32.776" x2="32.776" y1="168.274" y2="30.929">
        <stop offset="0" stop-color="#ff7a01"/>
        <stop offset=".359" stop-color="#fffc00"/>
        <stop offset=".603" stop-color="#ff0"/>
        <stop offset="1" stop-color="#ff7501"/>
    </linearGradient>
    <text fill="#ef00eb" font-family="TrasksHand" font-size="2" stroke="#0105ff" stroke-width="2.5" transform="rotate(-21.234 -56.534 -57.086)" x="-33.661" y="143.632"><tspan fill="#fafafa" fill-opacity=".4" stroke="none" x="-33.661" y="143.632">John Loreth 2022</tspan></text>
    <g stroke="#010000" stroke-width="1.25">
        <path d="M99.069 86.683q-.747 6.72-.747 9.893-1.867.56-2.987.56.747 1.12 2.614 3.174-.56 1.307-1.68 4.107-3.734.373-10.827 1.306v5.787q0 2.24-.56 6.347-.374 4.106-.374 6.16 0 5.04.934 17.36-2.8 1.306-5.04 2.24l-1.867-2.427 1.307-3.173-.374-5.04.747-1.494-1.493-3.36-3.36 5.227 1.12 5.6-1.494-2.053q-1.866 3.36-6.16 9.893l-2.8-2.24q-2.24 2.053-3.546 2.8-1.867-13.813-3.734-36.4-4.293.373-38.826 13.253l1.493-7.84q.747-.746 2.427-2.053-.934-1.307-1.307-2.613l-2.24-1.12q.933-1.494 2.053-3.92l-.933-1.68q-2.987.373-4.667.746-.186-.933-1.493-2.8l2.427-4.667 1.306-.933.187-3.733-5.413 3.173-.747 2.8q-1.68-2.427-2.987-4.48-.933-.56-4.48-2.613 4.107-9.334 19.974-36.96 7.093-12.32 22.213-36.027.933 1.867 2.24 5.6 1.493-1.12 3.92-4.107v-2.8q3.92-1.306 7.28-1.68l2.053 9.894 2.24-5.414-.186-4.853.746-1.493-.56-1.12 4.854-2.24q0 .186 2.426 6.16 2.24-2.987 5.414-6.534.933-.186 8.027-2.8 0 1.307-.187 3.92v4.294q1.307-.187 5.227-1.494-5.414 52.454-5.414 68.88 2.987-.373 8.774-1.493-.747 1.68-1.68 5.04 1.12 0 6.16-.56zM71.442 26.576l-1.307-2.426-2.24 3.733 1.68 7.093q.747-1.306 1.12-4.48.373-3.173.747-3.92zm-14.56 64.027q-.747-8.587-1.68-25.387-9.147 13.067-17.92 31.547 10.453-3.733 19.6-6.16zm19.6 25.76-.934-1.866-1.68 2.8 1.12 5.786 1.12-2.986-.186-2.987zm-3.92 8.587-1.12-2.427-2.427 3.92 1.493 7.094 1.68-3.734-.186-3.92zM22.908 81.643l-4.106 2.053-2.24 7.094 3.36-2.614 1.68-3.36 1.12-.56z"/>
        <path d="M78.68 105.034q-.746 6.72-.746 9.894-1.867.56-2.987.56.747 1.12 2.613 3.173-.56 1.307-1.68 4.107-3.733.373-10.826 1.306v5.787q0 2.24-.56 6.347-.374 4.106-.374 6.16 0 5.04.934 17.36-2.8 1.307-5.04 2.24l-1.867-2.427 1.307-3.173-.374-5.04.747-1.493-1.493-3.36-3.36 5.226 1.12 5.6-1.494-2.053q-1.866 3.36-6.16 9.893l-2.8-2.24q-2.24 2.054-3.546 2.8-1.867-13.813-3.734-36.4-4.293.373-38.827 13.254l1.494-7.84q.746-.747 2.426-2.054-.933-1.307-1.306-2.613l-2.24-1.12q.933-1.494 2.053-3.92l-.933-1.68q-2.987.373-4.667.746-.187-.933-1.493-2.8l2.426-4.666 1.307-.934.187-3.733-5.414 3.173-.746 2.8q-1.68-2.426-2.987-4.48-.933-.56-4.48-2.613 4.107-9.333 19.973-36.96 7.094-12.32 22.214-36.027.933 1.867 2.24 5.6 1.493-1.12 3.92-4.106v-2.8q3.92-1.307 7.28-1.68l2.053 9.893 2.24-5.413-.186-4.854.746-1.493-.56-1.12 4.854-2.24q0 .187 2.426 6.16 2.24-2.987 5.414-6.533.933-.187 8.026-2.8 0 1.306-.186 3.92v4.293q1.306-.187 5.226-1.493-5.413 52.453-5.413 68.88 2.987-.374 8.773-1.494-.746 1.68-1.68 5.04 1.12 0 6.16-.56zM51.054 44.928 49.747 42.5l-2.24 3.733 1.68 7.094q.747-1.307 1.12-4.48.373-3.174.747-3.92zm-14.56 64.026q-.747-8.586-1.68-25.386-9.147 13.066-17.92 31.546 10.453-3.733 19.6-6.16zm19.6 25.76-.934-1.866-1.68 2.8 1.12 5.786 1.12-2.986-.186-2.987zm-3.92 8.587-1.12-2.427-2.427 3.92 1.493 7.094 1.68-3.733-.186-3.92zM2.52 99.994l-4.107 2.054-2.24 7.093 3.36-2.613 1.68-3.36 1.12-.56z" fill="url(#a)" filter="url(#b)" transform="translate(16.837 -24.351)"/>
        <path d="m147.877 76.024-2.88-.36-5.04 4.32 3.84-.24 2.76-1.68h1.2l-.24 2.52-2.04.6 1.68 2.4-1.08 3.24q-2.52.72-7.92 1.8-.36 22.08-5.28 70.8l-.48 1.32q-24.36-1.08-43.32-11.64l3-2.76.72-1.8 6.24 1.92-2.16-2.88-3-1.44-.6-.96q3.72-3 3.72-3.6 0-.72-.6-2.28-.48-1.56-.48-2.28l.12-.72q10.56 5.28 21.96 8.16 0-24.48-1.92-44.4-10.08 4.8-21.72 10.92.24-2.04.84-6.24 1.08-1.08 2.52-2.88-.36-.24-3.12-1.68l.24-.72 1.68.36 5.04-4.08-3.84.12-2.76 1.44q0-3.72.48-5.16-.6-1.08-1.44-3.12 8.04-3.48 24.24-10.44 13.44-6.12 26.16-9.96-.36 1.32-.96 3.96 1.92-.24 4.2-.72-.12.84-.12 1.68 0 1.2.12 3.36.24 2.16.24 3.12zm-9.6 5.16-1.8-.24-2.16 1.92 1.68-.12 1.32-.72h.48zm-2.4-3.48-2.88-.24-3.6 2.76 2.64-.12 1.92-.96h.96zm-30.48 67.44-1.56-2.4-2.04-1.08-.36-.72-1.8-.12 1.32 2.76zm2.16 4.8-1.44-1.44-1.68-.6-.6-.48-1.2.12 1.32 1.92zM205.527 146.104q-2.28 1.8-4.8 3.36l-.36-2.88-2.4 2.28-.24-1.68.36-.84-1.08-1.56-1.32 2.88.72 2.4-2.04 1.92q-.84-3.48-1.92-9.84-1.2 5.28-2.16 10.44h-.84l-1.68-12.36q-9 5.28-19.44 13.44 0 1.8.24 3.36-1.08.36-3.36 1.44l-1.32-1.56q-1.56 1.32-4.56 3.72l-.12-2.4-1.44 2.16-1.68-1.32-2.52 1.68q-5.4-47.28-5.4-79.92l4.56-1.68-.12.12 1.56 6.12 1.44-3.48-.36-3.12.48-.96 3-1.2 1.56 3.6q1.2-1.2 3.48-3.84.6-.36 5.16-1.8 0 3.12-.12 4.92 1.68-.24 3.36-.72-3.6 33.72-3.6 52.08 5.52-3.72 16.44-10.92-2.64-18.84-3.72-46.44.72-.36 1.56-.36.48 0 1.44.36.96.24 1.56.24 2.04 0 4.32-2.76 2.4-2.88 4.32-2.88l-1.32 2.16 1.68 6.36 1.2-3.6-.24-3.12.48-.96-.24-.36q.84.36 1.68.36 1.56 0 3.72-2.52 2.64-2.88 3.6-3.48-.96 29.16-.96 44.16 0 21.36 1.44 39zm-47.16-56.4-.24-1.92.24-.6-.72-1.2-1.08 2.16 1.2 3.48zm39 45.36-.36-1.8.36-.48-.84-1.2-.96 1.92 1.08 3.72zm4.32 6.36-.36-2.4.36-.84-.84-1.32-1.56 2.52 1.56 4.56zM278.177 111.904q-3.84 1.92-7.8 3.96 0 24.36 3.48 43.44-1.56.6-4.08 2.52l-.24-1.92q-1.8 1.32-5.16 4.2l-1.8-6.6-1.44 7.68h-.72q-.84-3.6-2.4-10.92-14.04 5.16-22.2 5.16-8.88 0-15.36-5.16l-.36-4.68-6.12-4.92.96 3.72q-5.52-8.16-5.52-19.8 0-21.6 15.12-38.88 14.64-16.68 36.24-21.48l-.12 4.68-3.24 4.2.72 2.04-2.76 2.4-1.44.36-.96 2.64 5.04-.6 1.2-1.68 1.08 3.12-4.44 3 4.2 4.32q-17.28 7.56-24.96 21.84-4.92 9.12-4.92 15 0 5.16 3.72 8.28 3.72 3.12 8.76 3.12 4.68 0 11.76-3-1.2-5.64-1.92-11.64-.12.12-14.52 10.44.48-3 1.8-6.36l-3.12-1.92-.72-4.92q10.2-10.2 31.56-23.4l.24 2.16q3.36-1.8 9.72-4.92 0 3.72.36 7.44l.12.24-.96.24-1.8 1.44-.6.12-.84 1.44 2.52-.24 1.68-1.56q0 2.76.24 5.4zm-24.6-36.48-2.64.84-1.92 1.56-.6.24-.6 1.56 2.88-.36zm-7.32 9.72-1.92.48-1.32 1.08-.36.12-.48 1.2 2.04-.24zm18.72 59.28-2.64.84-1.92 1.56-.72.36-.6 1.44 3-.36zm-45.96 1.08-.12-2.88-3.6-2.76.72 2.52 1.32 1.68.12.72zM335.947 105.784q-.6 5.16-1.92 15.36l-2.4.84q1.32 8.16 4.2 21.6-.48.24-1.08.24-.36 0-2.16-.24-1.44-.12-2.28 0l.24-1.56-.72-1.92.24-.84-1.08-.96-.84 3 1.44 2.64q-.72.48-1.08 1.68l-1.92.48q0 .48.48 3.24-2.4.84-7.08 2.88-3.48-12.96-6.24-24.24-5.16 1.68-15.84 7.08-2.04 12.6-2.88 20.16-1.8.96-4.92 3 0-1.2.24-2.88-5.04 3.84-6.24 3.84-1.92 0-1.56-3.36-1.08 2.16-3 6.6h-.24q.36-4.44.48-20.4.12-12.72 1.44-20.16 0-1.08.96-1.92 1.08-.96 1.08-2.76 0-1.32-.48-3.84-.48-2.64-.48-3.96 0-7.68 3.84-30.12 2.64-1.08 8.04-2.76 2.52 0 6-1.2v9.24l1.92-3.6.24-3.36.6-.96-.6-1.68q.96-1.2 4.2-3.36 1.44-.6 4.92-1.92-.72 3.12-1.32 6 4.2-1.08 3.72-1.08.6 0 1.08.48.6.48.84.48.36 0 .6-.12.72-.84 2.4-2.64 2.4-2.04 7.56-4.44.36 18.96 3.12 39.36.12 0 6.48-1.92zm-17.76-24.72-.6-1.92.12-.72-1.08-.96-.96 2.76 2.04 3.6zm-20.76 6.24-.36-1.2-1.44 2.04.36 3.36 1.08-1.8v-1.92zm12.96 25.8q-2.52-11.76-3.72-21.36l-3.36 12.96q-1.68 7.56-2.28 13.08z" transform="matrix(.9957 0 0 1.00433 16.837 -24.351)"/>
        <path d="M402.237 96.424q0 6.84-2.28 14.4-6.24 19.44-22.8 33.36-16.56 13.92-36.84 16.56l1.32-5.16 3.24-1.32-.36-2.04h2.4l4.2-4.32-3.6.6-2.28 1.68-1.08.12-.12.12-1.2-6.48 4.32-.72q-2.64-20.76-3.6-42.24-3.84 2.04-8.64 5.52l.6-5.88h1.8l5.16-5.28-4.08.72-2.76 2.04-1.08-4.8 2.4-4.08-3.6-4.2-.96-4.68q19.08-11.04 38.04-11.04 19.32 0 26.52 10.56l.12 5.76 4.56 4.32q.6 3.12.6 6.48zm-4.68-1.68-.6-2.88-1.68-2.04-.12-.96-1.56-.84v3.12zm-47.76-12.72-1.92.24-1.2 1.08-.72.12-.6.96h2.04zm30.72 24.84q0-12.84-15.24-12.6-2.04 17.4-2.04 41.16 7.32-5.16 12-12.48 5.28-8.16 5.28-16.08zm-35.04-20.4-2.76.6-1.8 1.32h-.96l-.84 1.56h2.88zm11.04 62.16-2.16.24-1.68 1.2-.48.12-.72 1.08h2.4zM482.567 101.824q0 20.28-15.48 39-16.2 19.56-35.88 19.56-7.56 0-14.16-3.6l-1.08-3.6-5.76-2.88 1.08 2.28q-9.12-9-9.12-24.72 0-20.88 15.24-39.24 15.96-19.2 36.48-19.2 9 0 15.6 4.8l2.76 5.4-1.68-.12-1.08-3.12-5.52-3 1.56 3.36 2.64 2.04.36.6-1.68-.12v5.04l-.84.6-.72-1.92-5.76-3 1.68 3.36 2.76 2.04v.24l-3 1.56-2.88 4.56 4.56-3.12 5.88-.36.36.72 1.68 1.32.24.48 1.56.36-.84-2.52-2.04-.84-.24-1.92 3-.6-1.32-2.4 6.12 2.4 1.2-1.44q4.32 8.16 4.32 18zm-13.92-6.48-.6-1.8-2.88-1.44.96 1.68 1.2.84.12.48zm-9.6-9.12-.6-2.4-3.96-1.92 1.2 2.16 1.8 1.32.24.6zm4.2 25.08q0-7.32-4.08-12.24-4.08-5.04-11.16-5.04-11.04 0-19.68 10.68-8.16 9.96-8.16 21.36 0 7.08 3.96 12 4.2 5.28 11.4 5.28 11.16 0 19.68-10.68 8.04-10.2 8.04-21.36zm-40.92 32.76-.6-2.16-3.24-1.68.96 1.92 1.56 1.2.24.48zm1.32 8.76-.6-2.28-3.36-1.68 1.08 1.92 1.32 1.2.24.48zm-5.64-2.88-1.2-3.84-5.76-2.76 1.68 3.24 2.64 1.92.36.96z" transform="matrix(.9957 0 0 1.00433 16.837 -24.351)"/>
        <path d="m558.937 145.504-2.16-.72q.36 2.64 1.44 7.44-.84 0-7.44-.96l3.24 2.88 3.48 1.08.84.96h.12l.24 1.2q-17.4-4.68-23.04-6.36-12.96-3.6-22.92-7.32.12 3.48.6 10.32-.96.48-3.24 1.56-2.28-2.4-3.48-3.6l-1.92 3-2.4-5.04-.6 3.84.6 3-.24.84-1.08-.48q-.84.6-2.4 2.04-4.32-36.36-5.04-59.04-4.56 3-8.16 6-.48-1.68-1.2-5.04l2.52.12 4.8-4.56-3.84.48-2.52 1.8-1.08.12-.36.48-.6-2.52q.48-.12.48-.36 0-.12-.6-.48-.6-.48-.84-.96l.6-.36q-.12-.12-.12-.36t2.04-1.32q2.04-1.2 2.04-1.56 0-.24-.12-.6-.24-.6-1.68-.6-1.44-.12-1.32-1.08-1.68.48-2.64.48-.96 0-.72-.12v-.24l.6-2.88v-1.92q.36-.12 2.64-1.8 8.88-6.84 19.92-10.8 11.64-4.56 22.08-4.56 10.56 0 17.4 4.68 7.56 5.4 7.56 15.48 0 20.88-25.08 38.28 16.8 8.4 33.12 13.92.24 1.92.48 5.64zm-28.8-50.64q0-6.6-7.8-6.6-2.76 0-6.6 1.08-1.92 18-1.92 23.28 16.32-9.96 16.32-17.76zm-34.68-10.68-3.84.48-2.64 1.68h-1.2l-1.2 2.04 4.08.24zm1.08 7.92-1.8.24q-1.56.96-2.28.96l-.6 1.08 2.16.12zm49.2 57.72-1.32-1.92-4.2-.48 1.8 1.44 1.92.6.48.48zm-43.44-9.96-1.56-3.24-.36 2.04.36 1.68-.12.72.96.96zm4.8 6.24-1.92-4.2-.48 2.52.48 2.28-.24.84 1.2 1.2zM614.787 65.584q-.72 1.32-.84 4.32t-.6 4.44l-1.44-.36-3 2.52 2.28-.12 1.56-1.08q-.96 2.04-1.68 3.84 1.2-.36 3.6-.96-1.56 3.84-2.04 6-15.36 3.96-26.64 8.16-.36 2.64-1.08 10.08 4.32-1.68 12.84-5.4l.12 2.28q5.4-1.8 11.4-3.36-.84 6.36-1.32 14.4-11.28 3.36-24.36 8.28-.6 9.6-.6 22.68 11.88-6 24.12-10.32-.36 1.32-.84 3.36 1.08-.36 3.36-1.08-.24 1.56-.24 2.52l-2.16-.24-4.92 3.96 3.6-.24 2.76-1.44h.6l-.12 1.92-1.8.6q.48.72 1.56 1.92l-.96 2.88q-11.64 3.12-21.36 7.8-1.08.72-3.6 1.8l.12 1.44q-1.2.24-3.36.96l-.48-.36q-6.48 3.48-13.8 8.04 0-4.92 2.64-7.44l-.12-.48q-.96-.12-2.28-.84.6-1.8 1.08-2.64-.6-.84-1.2-2.52l1.44-.84q-1.44-11.16-2.4-22.56-2.88 1.56-4.68 2.28.84-1.92 2.88-6-1.68-1.2-3.12-2.28v-5.16q1.68-1.2 3.96-2.76-.48-5.52-.48-11.16-4.2 2.28-8.28 4.08v-3.84q.84-1.56 2.64-4.8l.72-.72 1.8-.96h.72l.96-1.08-2.52-.36-2.4 1.92q-.84-.84-2.04-2.88.36-.84.36-3.36.12-2.52.48-3.36h-1.8v-.72q2.88-1.8 8.76-5.16 11.28-5.76 30.12-11.76l1.8 1.44q8.4-2.4 20.28-5.28zm-44.76 23.28-3.96-.48-4.8 4.08 3.6-.24 2.76-1.56h.96zm28.32 54.12-2.16-.36-3 2.28 2.28-.12 1.44-.84h.72z" transform="matrix(.9957 0 0 1.00433 16.837 -24.351)"/>
        <path d="M664.277 83.704q-24.48 14.76-24.48 24.48 0 3.48 6 6.24 9.12 4.32 11.04 5.88 6 4.68 6 12.72 0 8.04-7.68 17.64-5.64 7.44-14.28 14.04-.96-.48-1.08-1.44-.12-.84-1.2-1.08-.96-.24-2.88-.24l-.84-2.64 1.08-.12 3.84-3.96-2.52.84-2.16 1.56-.72.12-.48.72-5.64-.36q15.36-10.8 15.36-16.92 0-3.12-4.32-5.64-3.48-1.68-6.84-3.12-1.92-.96-3-3-.72-1.44-1.92-1.44t-3.48.6q-6.48-3.96-8.88-6.24-4.44-4.2-4.44-9.48 0-12.84 17.52-27.96 13.32-11.52 29.28-19.08.24.36 1.2 1.92.6.96.6 1.68 0 1.08-3 7.32l5.64.96-1.08 2.52-1.32.36-2.04 1.68-.72.12-1.2 1.92 2.64.24 2.16-2.76zm-12.72-1.8-2.04.36-1.56 1.2h-.48l-1.08 1.2h2.04zm-5.76 5.4-1.44.24-1.08.84h-.48l-.6.96h1.44zm1.92 61.8q-.96.96-2.88 2.16l-.36 1.08 1.56-.48zm-3.6 6.48-1.8.6-1.32.96-.6.12-.6 1.2 1.8-.24z" transform="matrix(.9957 0 0 1.00433 16.837 -24.351)"/>
        <g fill="url(#c)" filter="url(#d)" transform="matrix(.9957 0 0 1.00433 16.837 -24.351)">
            <path d="m143.86 70.05-2.88-.36-5.04 4.32 3.84-.24 2.76-1.68h1.2l-.24 2.52-2.04.6 1.68 2.4-1.08 3.24q-2.52.72-7.92 1.8-.36 22.08-5.28 70.8l-.48 1.32q-24.36-1.08-43.32-11.64l3-2.76.72-1.8 6.24 1.92-2.16-2.88-3-1.44-.6-.96q3.72-3 3.72-3.6 0-.72-.6-2.28-.48-1.56-.48-2.28l.12-.72q10.56 5.28 21.96 8.16 0-24.48-1.92-44.4-10.08 4.8-21.72 10.92.24-2.04.84-6.24 1.08-1.08 2.52-2.88-.36-.24-3.12-1.68l.24-.72 1.68.36 5.04-4.08-3.84.12-2.76 1.44q0-3.72.48-5.16-.6-1.08-1.44-3.12 8.04-3.48 24.24-10.44 13.44-6.12 26.16-9.96-.36 1.32-.96 3.96 1.92-.24 4.2-.72-.12.84-.12 1.68 0 1.2.12 3.36.24 2.16.24 3.12zm-9.6 5.16-1.8-.24-2.16 1.92 1.68-.12 1.32-.72h.48zm-2.4-3.48-2.88-.24-3.6 2.76 2.64-.12 1.92-.96h.96zm-30.48 67.44-1.56-2.4-2.04-1.08-.36-.72-1.8-.12 1.32 2.76zm2.16 4.8-1.44-1.44-1.68-.6-.6-.48-1.2.12 1.32 1.92zM201.51 140.13q-2.28 1.8-4.8 3.36l-.36-2.88-2.4 2.28-.24-1.68.36-.84-1.08-1.56-1.32 2.88.72 2.4-2.04 1.92q-.84-3.48-1.92-9.84-1.2 5.28-2.16 10.44h-.84l-1.68-12.36q-9 5.28-19.44 13.44 0 1.8.24 3.36-1.08.36-3.36 1.44l-1.32-1.56q-1.56 1.32-4.56 3.72l-.12-2.4-1.44 2.16-1.68-1.32-2.52 1.68q-5.4-47.28-5.4-79.92l4.56-1.68-.12.12 1.56 6.12 1.44-3.48-.36-3.12.48-.96 3-1.2 1.56 3.6q1.2-1.2 3.48-3.84.6-.36 5.16-1.8 0 3.12-.12 4.92 1.68-.24 3.36-.72-3.6 33.72-3.6 52.08 5.52-3.72 16.44-10.92-2.64-18.84-3.72-46.44.72-.36 1.56-.36.48 0 1.44.36.96.24 1.56.24 2.04 0 4.32-2.76 2.4-2.88 4.32-2.88l-1.32 2.16 1.68 6.36 1.2-3.6-.24-3.12.48-.96-.24-.36q.84.36 1.68.36 1.56 0 3.72-2.52 2.64-2.88 3.6-3.48-.96 29.16-.96 44.16 0 21.36 1.44 39zm-47.16-56.4-.24-1.92.24-.6-.72-1.2-1.08 2.16 1.2 3.48zm39 45.36-.36-1.8.36-.48-.84-1.2-.96 1.92 1.08 3.72zm4.32 6.36-.36-2.4.36-.84-.84-1.32-1.56 2.52 1.56 4.56zM274.16 105.93q-3.84 1.92-7.8 3.96 0 24.36 3.48 43.44-1.56.6-4.08 2.52l-.24-1.92q-1.8 1.32-5.16 4.2l-1.8-6.6-1.44 7.68h-.72q-.84-3.6-2.4-10.92-14.04 5.16-22.2 5.16-8.88 0-15.36-5.16l-.36-4.68-6.12-4.92.96 3.72q-5.52-8.16-5.52-19.8 0-21.6 15.12-38.88 14.64-16.68 36.24-21.48l-.12 4.68-3.24 4.2.72 2.04-2.76 2.4-1.44.36-.96 2.64 5.04-.6 1.2-1.68 1.08 3.12-4.44 3 4.2 4.32q-17.28 7.56-24.96 21.84-4.92 9.12-4.92 15 0 5.16 3.72 8.28 3.72 3.12 8.76 3.12 4.68 0 11.76-3-1.2-5.64-1.92-11.64-.12.12-14.52 10.44.48-3 1.8-6.36l-3.12-1.92-.72-4.92q10.2-10.2 31.56-23.4l.24 2.16q3.36-1.8 9.72-4.92 0 3.72.36 7.44l.12.24-.96.24-1.8 1.44-.6.12-.84 1.44 2.52-.24 1.68-1.56q0 2.76.24 5.4zm-24.6-36.48-2.64.84-1.92 1.56-.6.24-.6 1.56 2.88-.36zm-7.32 9.72-1.92.48-1.32 1.08-.36.12-.48 1.2 2.04-.24zm18.72 59.28-2.64.84-1.92 1.56-.72.36-.6 1.44 3-.36zM215 139.53l-.12-2.88-3.6-2.76.72 2.52 1.32 1.68.12.72zM331.93 99.81q-.6 5.16-1.92 15.36l-2.4.84q1.32 8.16 4.2 21.6-.48.24-1.08.24-.36 0-2.16-.24-1.44-.12-2.28 0l.24-1.56-.72-1.92.24-.84-1.08-.96-.84 3 1.44 2.64q-.72.48-1.08 1.68l-1.92.48q0 .48.48 3.24-2.4.84-7.08 2.88-3.48-12.96-6.24-24.24-5.16 1.68-15.84 7.08-2.04 12.6-2.88 20.16-1.8.96-4.92 3 0-1.2.24-2.88-5.04 3.84-6.24 3.84-1.92 0-1.56-3.36-1.08 2.16-3 6.6h-.24q.36-4.44.48-20.4.12-12.72 1.44-20.16 0-1.08.96-1.92 1.08-.96 1.08-2.76 0-1.32-.48-3.84-.48-2.64-.48-3.96 0-7.68 3.84-30.12 2.64-1.08 8.04-2.76 2.52 0 6-1.2v9.24l1.92-3.6.24-3.36.6-.96-.6-1.68q.96-1.2 4.2-3.36 1.44-.6 4.92-1.92-.72 3.12-1.32 6 4.2-1.08 3.72-1.08.6 0 1.08.48.6.48.84.48.36 0 .6-.12.72-.84 2.4-2.64 2.4-2.04 7.56-4.44.36 18.96 3.12 39.36.12 0 6.48-1.92zm-17.76-24.72-.6-1.92.12-.72-1.08-.96-.96 2.76 2.04 3.6zm-20.76 6.24-.36-1.2-1.44 2.04.36 3.36 1.08-1.8v-1.92zm12.96 25.8q-2.52-11.76-3.72-21.36l-3.36 12.96q-1.68 7.56-2.28 13.08z"/>
            <path d="M398.22 90.45q0 6.84-2.28 14.4-6.24 19.44-22.8 33.36-16.56 13.92-36.84 16.56l1.32-5.16 3.24-1.32-.36-2.04h2.4l4.2-4.32-3.6.6-2.28 1.68-1.08.12-.12.12-1.2-6.48 4.32-.72q-2.64-20.76-3.6-42.24-3.84 2.04-8.64 5.52l.6-5.88h1.8l5.16-5.28-4.08.72-2.76 2.04-1.08-4.8 2.4-4.08-3.6-4.2-.96-4.68q19.08-11.04 38.04-11.04 19.32 0 26.52 10.56l.12 5.76 4.56 4.32q.6 3.12.6 6.48zm-4.68-1.68-.6-2.88-1.68-2.04-.12-.96-1.56-.84v3.12zm-47.76-12.72-1.92.24-1.2 1.08-.72.12-.6.96h2.04zm30.72 24.84q0-12.84-15.24-12.6-2.04 17.4-2.04 41.16 7.32-5.16 12-12.48 5.28-8.16 5.28-16.08zm-35.04-20.4-2.76.6-1.8 1.32h-.96l-.84 1.56h2.88zm11.04 62.16-2.16.24-1.68 1.2-.48.12-.72 1.08h2.4zM478.55 95.85q0 20.28-15.48 39-16.2 19.56-35.88 19.56-7.56 0-14.16-3.6l-1.08-3.6-5.76-2.88 1.08 2.28q-9.12-9-9.12-24.72 0-20.88 15.24-39.24 15.96-19.2 36.48-19.2 9 0 15.6 4.8l2.76 5.4-1.68-.12-1.08-3.12-5.52-3 1.56 3.36 2.64 2.04.36.6-1.68-.12v5.04l-.84.6-.72-1.92-5.76-3 1.68 3.36 2.76 2.04v.24l-3 1.56-2.88 4.56 4.56-3.12 5.88-.36.36.72 1.68 1.32.24.48 1.56.36-.84-2.52-2.04-.84-.24-1.92 3-.6-1.32-2.4 6.12 2.4 1.2-1.44q4.32 8.16 4.32 18zm-13.92-6.48-.6-1.8-2.88-1.44.96 1.68 1.2.84.12.48zm-9.6-9.12-.6-2.4-3.96-1.92 1.2 2.16 1.8 1.32.24.6zm4.2 25.08q0-7.32-4.08-12.24-4.08-5.04-11.16-5.04-11.04 0-19.68 10.68-8.16 9.96-8.16 21.36 0 7.08 3.96 12 4.2 5.28 11.4 5.28 11.16 0 19.68-10.68 8.04-10.2 8.04-21.36zm-40.92 32.76-.6-2.16-3.24-1.68.96 1.92 1.56 1.2.24.48zm1.32 8.76-.6-2.28-3.36-1.68 1.08 1.92 1.32 1.2.24.48zm-5.64-2.88-1.2-3.84-5.76-2.76 1.68 3.24 2.64 1.92.36.96z"/>
            <path d="m554.92 139.53-2.16-.72q.36 2.64 1.44 7.44-.84 0-7.44-.96l3.24 2.88 3.48 1.08.84.96h.12l.24 1.2q-17.4-4.68-23.04-6.36-12.96-3.6-22.92-7.32.12 3.48.6 10.32-.96.48-3.24 1.56-2.28-2.4-3.48-3.6l-1.92 3-2.4-5.04-.6 3.84.6 3-.24.84-1.08-.48q-.84.6-2.4 2.04-4.32-36.36-5.04-59.04-4.56 3-8.16 6-.48-1.68-1.2-5.04l2.52.12 4.8-4.56-3.84.48-2.52 1.8-1.08.12-.36.48-.6-2.52q.48-.12.48-.36 0-.12-.6-.48-.6-.48-.84-.96l.6-.36q-.12-.12-.12-.36t2.04-1.32q2.04-1.2 2.04-1.56 0-.24-.12-.6-.24-.6-1.68-.6-1.44-.12-1.32-1.08-1.68.48-2.64.48-.96 0-.72-.12v-.24l.6-2.88v-1.92q.36-.12 2.64-1.8 8.88-6.84 19.92-10.8 11.64-4.56 22.08-4.56 10.56 0 17.4 4.68 7.56 5.4 7.56 15.48 0 20.88-25.08 38.28 16.8 8.4 33.12 13.92.24 1.92.48 5.64zm-28.8-50.64q0-6.6-7.8-6.6-2.76 0-6.6 1.08-1.92 18-1.92 23.28 16.32-9.96 16.32-17.76zm-34.68-10.68-3.84.48-2.64 1.68h-1.2l-1.2 2.04 4.08.24zm1.08 7.92-1.8.24q-1.56.96-2.28.96l-.6 1.08 2.16.12zm49.2 57.72-1.32-1.92-4.2-.48 1.8 1.44 1.92.6.48.48zm-43.44-9.96-1.56-3.24-.36 2.04.36 1.68-.12.72.96.96zm4.8 6.24-1.92-4.2-.48 2.52.48 2.28-.24.84 1.2 1.2zM610.77 59.61q-.72 1.32-.84 4.32t-.6 4.44l-1.44-.36-3 2.52 2.28-.12 1.56-1.08q-.96 2.04-1.68 3.84 1.2-.36 3.6-.96-1.56 3.84-2.04 6-15.36 3.96-26.64 8.16-.36 2.64-1.08 10.08 4.32-1.68 12.84-5.4l.12 2.28q5.4-1.8 11.4-3.36-.84 6.36-1.32 14.4-11.28 3.36-24.36 8.28-.6 9.6-.6 22.68 11.88-6 24.12-10.32-.36 1.32-.84 3.36 1.08-.36 3.36-1.08-.24 1.56-.24 2.52l-2.16-.24-4.92 3.96 3.6-.24 2.76-1.44h.6l-.12 1.92-1.8.6q.48.72 1.56 1.92l-.96 2.88q-11.64 3.12-21.36 7.8-1.08.72-3.6 1.8l.12 1.44q-1.2.24-3.36.96l-.48-.36q-6.48 3.48-13.8 8.04 0-4.92 2.64-7.44l-.12-.48q-.96-.12-2.28-.84.6-1.8 1.08-2.64-.6-.84-1.2-2.52l1.44-.84q-1.44-11.16-2.4-22.56-2.88 1.56-4.68 2.28.84-1.92 2.88-6-1.68-1.2-3.12-2.28v-5.16q1.68-1.2 3.96-2.76-.48-5.52-.48-11.16-4.2 2.28-8.28 4.08v-3.84q.84-1.56 2.64-4.8l.72-.72 1.8-.96h.72l.96-1.08-2.52-.36-2.4 1.92q-.84-.84-2.04-2.88.36-.84.36-3.36.12-2.52.48-3.36h-1.8v-.72q2.88-1.8 8.76-5.16 11.28-5.76 30.12-11.76l1.8 1.44q8.4-2.4 20.28-5.28zm-44.76 23.28-3.96-.48-4.8 4.08 3.6-.24 2.76-1.56h.96zm28.32 54.12-2.16-.36-3 2.28 2.28-.12 1.44-.84h.72z"/>
            <path d="M660.26 77.73q-24.48 14.76-24.48 24.48 0 3.48 6 6.24 9.12 4.32 11.04 5.88 6 4.68 6 12.72 0 8.04-7.68 17.64-5.64 7.44-14.28 14.04-.96-.48-1.08-1.44-.12-.84-1.2-1.08-.96-.24-2.88-.24l-.84-2.64 1.08-.12 3.84-3.96-2.52.84-2.16 1.56-.72.12-.48.72-5.64-.36q15.36-10.8 15.36-16.92 0-3.12-4.32-5.64-3.48-1.68-6.84-3.12-1.92-.96-3-3-.72-1.44-1.92-1.44t-3.48.6q-6.48-3.96-8.88-6.24-4.44-4.2-4.44-9.48 0-12.84 17.52-27.96 13.32-11.52 29.28-19.08.24.36 1.2 1.92.6.96.6 1.68 0 1.08-3 7.32l5.64.96-1.08 2.52-1.32.36-2.04 1.68-.72.12-1.2 1.92 2.64.24 2.16-2.76zm-12.72-1.8-2.04.36-1.56 1.2h-.48l-1.08 1.2h2.04zm-5.76 5.4-1.44.24-1.08.84h-.48l-.6.96h1.44zm1.92 61.8q-.96.96-2.88 2.16l-.36 1.08 1.56-.48zm-3.6 6.48-1.8.6-1.32.96-.6.12-.6 1.2 1.8-.24z"/>
        </g>
    </g>
</svg>
