<svg height="146.982" width="682.422" xmlns="http://www.w3.org/2000/svg">
    <linearGradient id="c" gradientUnits="userSpaceOnUse" x1="148.319" x2="151.977" y1="162.589" y2="52.277">
        <stop offset="0" stop-color="#373969"/>
        <stop offset=".437" stop-color="#a7bbf1"/>
        <stop offset="1" stop-color="#2170cc"/>
    </linearGradient>
    <filter id="d" color-interpolation-filters="sRGB" height="1.063" width="1.011" x="-.006" y="-.032">
        <feGaussianBlur in="SourceGraphic" result="blur" stdDeviation="1"/>
        <feDiffuseLighting result="diffuse" surfaceScale="10">
            <feDistantLight azimuth="220" elevation="30"/>
        </feDiffuseLighting>
        <feComposite in="diffuse" in2="diffuse" k1="1" operator="arithmetic" result="composite1"/>
        <feComposite in="composite1" in2="SourceGraphic" k1="1" k3="1" operator="arithmetic" result="composite2"/>
    </filter>
    <filter id="b" color-interpolation-filters="sRGB" height="1.029" width="1.048" x="-.025" y="-.013">
        <feGaussianBlur in="SourceAlpha" result="blur" stdDeviation=".5"/>
        <feSpecularLighting in="blur" result="specular" specularConstant="3.339" specularExponent="25" surfaceScale="10">
            <feDistantLight azimuth="211" elevation="26"/>
        </feSpecularLighting>
        <feComposite in="specular" in2="SourceGraphic" k2="1" k3="1" operator="arithmetic" result="composite1"/>
        <feComposite in="composite1" in2="SourceAlpha" operator="in" result="composite2"/>
    </filter>
    <linearGradient id="a" gradientUnits="userSpaceOnUse" x1="46.776" x2="46.776" y1="168.274" y2="30.929">
        <stop offset="0" stop-color="#ff7a01"/>
        <stop offset=".359" stop-color="#fffc00"/>
        <stop offset=".603" stop-color="#ff0"/>
        <stop offset="1" stop-color="#ff7501"/>
    </linearGradient>
    <text fill="#ef00eb" font-family="TrasksHand" font-size="2" stroke="#0105ff" stroke-width="2.5" transform="rotate(-8.031 -203.236 -15.075)" x="31.651" y="134.278"><tspan fill="#fafafa" fill-opacity=".4" stroke="none" x="31.651" y="134.278">John Loreth 2022</tspan></text>
    <g stroke="#010000" stroke-width="1.25">
        <path d="M82.157 43.852q0 11.386-8.773 24.453-4.667 7.28-18.107 22.587-12.693 13.813-16.8 21.653 11.2-2.986 33.6-8.586-.746 1.68-1.493 5.04 2.24 0 5.413-.56-.56 5.413-.56 9.893l-2.8.747 2.427 3.173-1.493 4.107q-27.814 3.173-66.267 19.6l1.306-7.84 3.174-3.174q-1.494-.746-4.107-2.426l.747-1.307 1.68.187 4.293-1.68 1.867.373 2.053-2.427-6.16-1.68-2.987 2.054-1.68-2.054q-.186-2.426-.186-4.853 0-13.067 10.453-27.254 9.52-11.573 19.227-23.333 10.453-13.067 10.453-22.96 0-5.227-7.466-5.227-6.907 0-21.467 8.4-1.68-1.866-2.987-6.72-1.12-5.04-2.613-6.906l4.48-6.72q-1.307 0-7.094.373l3.174-2.987h1.866l2.054-2.986-6.347-.747-3.92 3.36-1.68-3.36 1.307-3.173Q29.33 7.825 46.317 7.825q16.24 0 25.947 9.893 9.893 9.894 9.893 26.134zm-47.226-23.52-2.614-.374-3.546 2.614 2.426-.187 2.054-1.12h.746zm-3.92 7.093-4.48-.56-5.6 4.48 4.293-.187 2.987-1.68h1.306zm-3.36 103.787-3.547-.933-4.48 2.986 3.36.374 2.8-.934.747.187z"/>
        <path d="M78.494 66.394q0 11.387-8.774 24.454-4.666 7.28-18.106 22.586-12.694 13.814-16.8 21.654 11.2-2.987 33.6-8.587-.747 1.68-1.494 5.04 2.24 0 5.414-.56-.56 5.413-.56 9.893l-2.8.747 2.426 3.173-1.493 4.107q-27.813 3.174-66.267 19.6l1.307-7.84 3.173-3.173q-1.493-.747-4.107-2.427l.747-1.306 1.68.186 4.293-1.68 1.867.374 2.053-2.427-6.16-1.68-2.986 2.053-1.68-2.053q-.187-2.427-.187-4.854 0-13.066 10.453-27.253 9.52-11.573 19.227-23.333 10.454-13.067 10.454-22.96 0-5.227-7.467-5.227-6.907 0-21.467 8.4-1.68-1.867-2.987-6.72-1.12-5.04-2.613-6.907l4.48-6.72q-1.307 0-7.093.374L9.8 50.34h1.867l2.053-2.987-6.347-.746-3.92 3.36-1.68-3.36 1.307-3.174q22.587-13.066 39.574-13.066 16.24 0 25.946 9.893 9.894 9.893 9.894 26.133zm-47.227-23.52-2.614-.373-3.546 2.613 2.426-.186 2.054-1.12h.746zm-3.92 7.094-4.48-.56-5.6 4.48 4.293-.187 2.987-1.68h1.306zm-3.36 103.787-3.547-.934-4.48 2.987 3.36.373 2.8-.933.747.187z" fill="url(#a)" filter="url(#b)" transform="translate(.113 -28.543)"/>
        <path d="m147.877 76.024-2.88-.36-5.04 4.32 3.84-.24 2.76-1.68h1.2l-.24 2.52-2.04.6 1.68 2.4-1.08 3.24q-2.52.72-7.92 1.8-.36 22.08-5.28 70.8l-.48 1.32q-24.36-1.08-43.32-11.64l3-2.76.72-1.8 6.24 1.92-2.16-2.88-3-1.44-.6-.96q3.72-3 3.72-3.6 0-.72-.6-2.28-.48-1.56-.48-2.28l.12-.72q10.56 5.28 21.96 8.16 0-24.48-1.92-44.4-10.08 4.8-21.72 10.92.24-2.04.84-6.24 1.08-1.08 2.52-2.88-.36-.24-3.12-1.68l.24-.72 1.68.36 5.04-4.08-3.84.12-2.76 1.44q0-3.72.48-5.16-.6-1.08-1.44-3.12 8.04-3.48 24.24-10.44 13.44-6.12 26.16-9.96-.36 1.32-.96 3.96 1.92-.24 4.2-.72-.12.84-.12 1.68 0 1.2.12 3.36.24 2.16.24 3.12zm-9.6 5.16-1.8-.24-2.16 1.92 1.68-.12 1.32-.72h.48zm-2.4-3.48-2.88-.24-3.6 2.76 2.64-.12 1.92-.96h.96zm-30.48 67.44-1.56-2.4-2.04-1.08-.36-.72-1.8-.12 1.32 2.76zm2.16 4.8-1.44-1.44-1.68-.6-.6-.48-1.2.12 1.32 1.92z" transform="matrix(.9957 0 0 1.00433 .113 -28.543)"/>
        <path d="M222.687 101.824q0 20.64-15.48 39.12-16.2 19.2-36.36 19.2-13.44 0-21-9.48l1.08.24-1.08-3.72-3.6-1.92q-4.08-7.92-4.08-17.64 0-20.52 15.48-38.88 16.2-19.32 36.36-19.32 8.88 0 15.72 4.8l2.64 5.4-3.72-.24-.6-2.04-5.88-2.76 1.68 3.24 2.64 1.92.36.96.12 3.6-4.68 2.28-4.44-2.16 1.68 3.36.84.6-2.16 3.36 3.48-2.28.36.24.48.84 2.16.6-.72-2.52 5.76-.48-.48-2.28 3.12-.6-1.32-2.4 6.12 2.4 1.2-1.44q4.32 8.16 4.32 18zm-13.8-5.04-.84-2.52-3.84-1.92 1.08 2.28 1.68 1.32.36.48zm-5.4 14.52q0-7.32-4.2-12.24-4.08-5.04-11.28-5.04-10.92 0-19.68 10.68-8.04 9.96-8.04 21.36 0 7.08 3.96 12 4.2 5.28 11.52 5.28 11.04 0 19.56-10.68 8.16-10.2 8.16-21.36zm-45.48 35.16-.72-2.28-3.24-1.56.96 1.8 1.44 1.2.24.6zm3.48 9.48-1.2-3.96-5.76-3 1.68 3.48 2.64 1.8.48.96zM298.097 104.944l-.72 5.76-7.32 2.88q0 15.84.72 23.64 0 .96.72 5.04.48 3.12.48 5.16 0 .72-.36 2.16.48 2.76 1.8 8.04-1.2.6-3.24 1.44-1.08-.84-3.72-2.28-2.16 2.76-3.36 4.56l-1.92-.72-2.16 1.44q-1.2-3.36-2.64-8.64-16.08 6-25.8 6-11.28 0-18.6-10.08-6.48-9.12-6.48-20.76 0-12.96 6.36-25.44 5.76-11.64 16.08-20.88 11.76-10.44 29.04-14.16l-.12 4.68-2.52 4.92.96 2.52-.72.36-1.68 1.56-.84.12-.6 1.68 2.88-.36 1.56-1.92.72 2.16-2.4 3.6 2.16 5.16q-17.28 7.56-25.08 21.84-4.8 8.76-4.8 15 0 5.16 3.6 8.28 3.6 3.12 8.88 3.12 5.04 0 12.96-3.48-1.08-2.4-2.76-12.6-6.36 3.96-14.52 9.6.48-2.04 1.8-6.36l1.2-.36 1.56-.96.6-.12.84-1.32h-2.52l-1.32 1.56-1.92-2.28q.6-1.2 2.28-3.36l-1.8-1.44q.6-2.04 1.2-3 3.24-2.28 10.2-6.24l-.24-1.68q2.4-1.2 7.8-3.24v-.96q10.32-4.44 23.64-8.4-.36 2.04-.6 6l-1.44 1.08h-2.64l-4.08 4.68 3.36-.72 2.52-1.8.84-.12.24-.24zm-25.68-26.4-3.48 1.08-2.28 2.04-.96.12-.84 2.16 3.84-.48zm12.24 27.24h-2.52l-2.64 3.12 2.16-.6 1.56-1.2h.72zm-18.72-17.76-1.92.6-1.08 1.2-.6.12-.48.96 1.92-.24zm-32.16 53.52-1.68-4.92-.84 2.76.36 2.64-.36.96.84 1.32zM355.147 143.584l-1.44.48q-1.32 2.88-1.68 3.6-1.08 1.44-2.76 2.52-2.52-1.2-3.96-.6t-6.12 2.64q-2.76-9.96-5.52-21.24-6.36 2.28-17.16 7.44-1.32 8.52-2.28 16.8-.24.12-.48.12-.36 0-1.08-.72-.72-.84-.96-.84-.72 0-1.32 2.04-.6 1.92-1.08 2.4-3.72 2.52-3.36 1.8.48-.6.48-3.84l.6-1.08-.84-1.92-2.64 3.6.6 4.68q-1.2.6-2.04.6-1.08 0-1.32-1.32-.24-1.2-.36-1.2-.48 0-1.56 2.76h-.24q.6-9.24.6-20.88 0-26.04 6.12-62.16 2.64-.84 8.04-2.76.96-.48 4.08-2.76 2.04-1.44 4.92-1.44 2.04 0 8.28-2.64-.72 3.12-1.32 6 1.32-.36 3.72-1.08.6-.96 2.28-2.16l1.08-.36-1.2 3 3.24 5.64.72-4.2-1.08-3.24.36-1.08-.6-.72q2.4-1.2 7.68-3.12.24 19.2 3.72 42.6 2.16-.72 5.52-1.8-.12 1.2-.36 3.84-.12.84-1.32 1.92-1.08.96-1.08 2.28 0 .48.72 1.56.84 1.08.84 1.92 0 .6-.24 1.92-.24 1.32-.24 1.92l-1.56.48q1.56 9.72 3.6 18.6zm-17.64-57.36-.6-1.92.12-.72-1.08-1.08-.96 2.88 2.04 3.48zm-7.2 29.76q-2.64-12.12-4.44-24.24-4.56 19.56-6.36 29.76 6-3.48 10.8-5.52zm-24 24.96-.36-.96-1.2 1.68.24 2.88.84-1.56.12-1.56zm3.84 4.8-.48-1.56-1.92 2.64.6 4.32q1.56-2.4 1.44-4.8zM423.237 96.664q0 10.92-6.12 23.16-8.16 16.08-23.28 27.36-15 11.16-32.64 13.56l.6-4.44.12-.12 3.84.12 5.04-5.28-4.2.84-.84.6q-.6-1.92-2.16-8.52l4.2-.72q-2.52-20.76-3.36-42.24-4.32 2.28-8.64 5.52.24-7.92 2.4-13.68l-2.76-3h1.56l4.32-4.44-3.36.48-2.88 1.92.72-5.4-2.64-2.04q18.84-11.04 38.28-11.04 14.16 0 22.68 6.36 9.12 7.32 9.12 21zm-54.6-10.92-2.64.48-2.04 1.44-.72.12-.84 1.44 3 .12zm32.88 21.12q0-12.84-15.24-12.6-2.16 20.76-2.16 41.16 7.2-5.16 11.88-12.48 5.52-8.16 5.52-16.08zm-19.68 40.08-1.68.36q-1.2.84-1.68.84l-.48.72h1.8zm-6.12-.72-2.28.36-1.56 1.2h-.48l-.84 1.08h2.4zM506.207 101.824q0 20.64-15.48 39.12-16.2 19.2-36.36 19.2-13.44 0-21-9.48l1.08.24-1.08-3.72-3.6-1.92q-4.08-7.92-4.08-17.64 0-20.52 15.48-38.88 16.2-19.32 36.36-19.32 8.88 0 15.72 4.8l2.64 5.4-3.72-.24-.6-2.04-5.88-2.76 1.68 3.24 2.64 1.92.36.96.12 3.6-4.68 2.28-4.44-2.16 1.68 3.36.84.6-2.16 3.36 3.48-2.28.36.24.48.84 2.16.6-.72-2.52 5.76-.48-.48-2.28 3.12-.6-1.32-2.4 6.12 2.4 1.2-1.44q4.32 8.16 4.32 18zm-13.8-5.04-.84-2.52-3.84-1.92 1.08 2.28 1.68 1.32.36.48zm-5.4 14.52q0-7.32-4.2-12.24-4.08-5.04-11.28-5.04-10.92 0-19.68 10.68-8.04 9.96-8.04 21.36 0 7.08 3.96 12 4.2 5.28 11.52 5.28 11.04 0 19.56-10.68 8.16-10.2 8.16-21.36zm-45.48 35.16-.72-2.28-3.24-1.56.96 1.8 1.44 1.2.24.6zm3.48 9.48-1.2-3.96-5.76-3 1.68 3.48 2.64 1.8.48.96zM578.617 143.824q-.6 3-.6 5.64l-1.92-.84v1.92l-.96-1.44-6.72-.72 2.88 2.52 3.24 1.08.84.72h.72l.24 3.12q-.48-.24-.84-.24t-1.32.48q-.72.24-1.68-.12l3.48 4.92q-9.72-3.84-18.48-8.88-10.8-5.4-19.56-11.76-.24 8.16.36 13.8-1.2.48-3.48 1.56l-.12-.12.96-2.16-2.64-5.76-.72 3.48.6 2.4-1.44-1.44q-.12.12-3.96 6.48l-1.68-1.32q-1.44 1.2-2.52 2.04-4.68-39.72-5.28-61.8l-1.2.6-4.2-.6-3.36 3.12q-.96-2.16-1.32-3.48.12 0 4.08-2.16l-2.16-1.56 1.56-.84h1.08l1.32-1.92-3.84-.36-1.56 1.2-.48-1.68q1.32-2.28 1.92-3.84l-4.2.72v-1.92q.6-.36 2.64-1.8 21-15.36 41.88-15.36 10.68 0 17.52 4.8 7.68 5.4 7.68 15.6 0 21.48-26.28 38.88 15.84 10.68 29.52 17.04zm-24-46.32q0-8.28-11.4-8.28-1.2 0-2.64.12-1.92 15.6-1.92 24.72 15.96-9.12 15.96-16.56zm-33.6-12.84-3.12-.36-3.48 3 2.76-.12 1.92-1.2h.84zm46.44 60.72-1.68-2.04-4.32-.72 1.8 1.68 2.28.6.36.72zm-37.32-.6-1.92-4.2-.48 2.76.48 2.04-.12.72.96 1.44z" transform="matrix(.9957 0 0 1.00433 .113 -28.543)"/>
        <path d="M634.107 66.184q-1.08 3.12-1.44 6.48h-1.08l-1.92.96-.48-.12-1.2 1.2 2.28.36 2.4-1.68q-.12.96-.36 2.64l-4.92 3 5.4.36q-.6 2.04-1.8 6.48-15.84 3.84-27.12 8.16-.48 3.6-.84 7.2 8.4-2.88 18.96-5.88l-.36 2.88q2.28-.72 6.84-1.68-.72 2.4-1.8 7.08-1.44.6-2.88.84.36.6 1.32 1.92-.36.84-.72 2.4-9.6 2.88-11.28 3.24-6.36 2.04-10.92 4.44-.36 5.52-.36 12.12 0 3.96.12 9.12 3.96-2.28 9-4.92l1.56.96q4.92-2.52 14.04-6.24-.12.48-2.16 8.28 1.8-.72 2.76-1.08-.72 3.48-.72 5.16-20.16 9-39.24 23.64-.48-2.64-.48-3 0-.84.48-2.28.48-1.32.48-2.04-1.32-1.92-2.4-3 .36-.6.96-2.4l-1.56.12-.12-.48q.6-.6 2.4-1.92-1.32-10.08-2.16-23.52-1.44.96-4.32 2.4-.72-3-1.32-4.56.72-1.92 1.32-3.24l-1.92-1.2q.36-2.52 1.32-6.36 2.88-1.32 4.32-2.28v-7.2q-3 1.32-9.12 4.32.48-1.2 3.6-8.4-.6-1.08-1.92-3 2.04-1.92 3.24-3.48-.6-.48-1.08-2.4-.36-2.04-.72-2.76 1.2-1.92 1.92-3.12 12.6-5.52 23.16-9.36l.48-2.16q15.24-3.96 30.36-6zm-9.96 11.76h-1.56l-1.44.84-.48-.12-.84.84 1.8.36zm-4.68 21-2.16.12-1.8.96h-.72l-1.08 1.08 2.52.36zm-22.68 46.2h-1.44l-1.32.6h-.36l-.6.72 1.56.24zm-5.04 4.68-2.28.12-1.8.84.6 1.68z" transform="matrix(.9957 0 0 1.00433 .113 -28.543)"/>
        <path d="M684.557 83.704q-24.72 14.76-24.72 24.48 0 3.48 6 6.24 9.12 4.32 11.16 5.88 6 4.68 6 12.72 0 8.04-7.8 17.64-5.64 7.44-14.16 14.04-.48-.24-.48-1.08 0-.48.36-1.68.48-1.2.48-1.68 0-.84-4.08-.84-1.56 0-2.28.24l5.04-5.28q-4.32.6-7.08 3.72l-.96.24-.84.96-2.88-1.2q15.36-10.8 15.36-16.8 0-3.84-8.64-7.92-13.68-6.36-15.96-7.92-8.52-5.64-8.52-13.68 0-13.8 16.08-29.28 12.84-12.36 28.44-19.68.48 1.32 1.92 3 1.8 2.28 2.16 2.88l-1.8.36-2.88 2.28-.84.12-1.68 2.88 3.48.36 3.96-5.04q0 .84-1.08 5.04l3.96 3h-.12l-2.16 1.8-.72.12-1.2 1.8 2.52.24 2.52-2.64.6.72zm-10.08-6.12-2.16.36-1.8 1.68h-.6l-.96 1.8 2.28.12zm-6.12 73.2-2.76.96-2.04 1.56-.6.36-1.2 1.44 2.64-.24z" transform="matrix(.9957 0 0 1.00433 .113 -28.543)"/>
        <g fill="url(#c)" filter="url(#d)" transform="matrix(.9957 0 0 1.00433 .113 -28.543)">
            <path d="m143.86 70.05-2.88-.36-5.04 4.32 3.84-.24 2.76-1.68h1.2l-.24 2.52-2.04.6 1.68 2.4-1.08 3.24q-2.52.72-7.92 1.8-.36 22.08-5.28 70.8l-.48 1.32q-24.36-1.08-43.32-11.64l3-2.76.72-1.8 6.24 1.92-2.16-2.88-3-1.44-.6-.96q3.72-3 3.72-3.6 0-.72-.6-2.28-.48-1.56-.48-2.28l.12-.72q10.56 5.28 21.96 8.16 0-24.48-1.92-44.4-10.08 4.8-21.72 10.92.24-2.04.84-6.24 1.08-1.08 2.52-2.88-.36-.24-3.12-1.68l.24-.72 1.68.36 5.04-4.08-3.84.12-2.76 1.44q0-3.72.48-5.16-.6-1.08-1.44-3.12 8.04-3.48 24.24-10.44 13.44-6.12 26.16-9.96-.36 1.32-.96 3.96 1.92-.24 4.2-.72-.12.84-.12 1.68 0 1.2.12 3.36.24 2.16.24 3.12zm-9.6 5.16-1.8-.24-2.16 1.92 1.68-.12 1.32-.72h.48zm-2.4-3.48-2.88-.24-3.6 2.76 2.64-.12 1.92-.96h.96zm-30.48 67.44-1.56-2.4-2.04-1.08-.36-.72-1.8-.12 1.32 2.76zm2.16 4.8-1.44-1.44-1.68-.6-.6-.48-1.2.12 1.32 1.92z"/>
            <path d="M218.67 95.85q0 20.64-15.48 39.12-16.2 19.2-36.36 19.2-13.44 0-21-9.48l1.08.24-1.08-3.72-3.6-1.92q-4.08-7.92-4.08-17.64 0-20.52 15.48-38.88 16.2-19.32 36.36-19.32 8.88 0 15.72 4.8l2.64 5.4-3.72-.24-.6-2.04-5.88-2.76 1.68 3.24 2.64 1.92.36.96.12 3.6-4.68 2.28-4.44-2.16 1.68 3.36.84.6-2.16 3.36 3.48-2.28.36.24.48.84 2.16.6-.72-2.52 5.76-.48-.48-2.28 3.12-.6-1.32-2.4 6.12 2.4 1.2-1.44q4.32 8.16 4.32 18zm-13.8-5.04-.84-2.52-3.84-1.92 1.08 2.28 1.68 1.32.36.48zm-5.4 14.52q0-7.32-4.2-12.24-4.08-5.04-11.28-5.04-10.92 0-19.68 10.68-8.04 9.96-8.04 21.36 0 7.08 3.96 12 4.2 5.28 11.52 5.28 11.04 0 19.56-10.68 8.16-10.2 8.16-21.36zm-45.48 35.16-.72-2.28-3.24-1.56.96 1.8 1.44 1.2.24.6zm3.48 9.48-1.2-3.96-5.76-3 1.68 3.48 2.64 1.8.48.96zM294.08 98.97l-.72 5.76-7.32 2.88q0 15.84.72 23.64 0 .96.72 5.04.48 3.12.48 5.16 0 .72-.36 2.16.48 2.76 1.8 8.04-1.2.6-3.24 1.44-1.08-.84-3.72-2.28-2.16 2.76-3.36 4.56l-1.92-.72-2.16 1.44q-1.2-3.36-2.64-8.64-16.08 6-25.8 6-11.28 0-18.6-10.08-6.48-9.12-6.48-20.76 0-12.96 6.36-25.44 5.76-11.64 16.08-20.88 11.76-10.44 29.04-14.16l-.12 4.68-2.52 4.92.96 2.52-.72.36-1.68 1.56-.84.12-.6 1.68 2.88-.36 1.56-1.92.72 2.16-2.4 3.6 2.16 5.16q-17.28 7.56-25.08 21.84-4.8 8.76-4.8 15 0 5.16 3.6 8.28 3.6 3.12 8.88 3.12 5.04 0 12.96-3.48-1.08-2.4-2.76-12.6-6.36 3.96-14.52 9.6.48-2.04 1.8-6.36l1.2-.36 1.56-.96.6-.12.84-1.32h-2.52l-1.32 1.56-1.92-2.28q.6-1.2 2.28-3.36l-1.8-1.44q.6-2.04 1.2-3 3.24-2.28 10.2-6.24l-.24-1.68q2.4-1.2 7.8-3.24v-.96q10.32-4.44 23.64-8.4-.36 2.04-.6 6l-1.44 1.08h-2.64l-4.08 4.68 3.36-.72 2.52-1.8.84-.12.24-.24zm-25.68-26.4-3.48 1.08-2.28 2.04-.96.12-.84 2.16 3.84-.48zm12.24 27.24h-2.52l-2.64 3.12 2.16-.6 1.56-1.2h.72zm-18.72-17.76-1.92.6-1.08 1.2-.6.12-.48.96 1.92-.24zm-32.16 53.52-1.68-4.92-.84 2.76.36 2.64-.36.96.84 1.32zM351.13 137.61l-1.44.48q-1.32 2.88-1.68 3.6-1.08 1.44-2.76 2.52-2.52-1.2-3.96-.6t-6.12 2.64q-2.76-9.96-5.52-21.24-6.36 2.28-17.16 7.44-1.32 8.52-2.28 16.8-.24.12-.48.12-.36 0-1.08-.72-.72-.84-.96-.84-.72 0-1.32 2.04-.6 1.92-1.08 2.4-3.72 2.52-3.36 1.8.48-.6.48-3.84l.6-1.08-.84-1.92-2.64 3.6.6 4.68q-1.2.6-2.04.6-1.08 0-1.32-1.32-.24-1.2-.36-1.2-.48 0-1.56 2.76h-.24q.6-9.24.6-20.88 0-26.04 6.12-62.16 2.64-.84 8.04-2.76.96-.48 4.08-2.76 2.04-1.44 4.92-1.44 2.04 0 8.28-2.64-.72 3.12-1.32 6 1.32-.36 3.72-1.08.6-.96 2.28-2.16l1.08-.36-1.2 3 3.24 5.64.72-4.2-1.08-3.24.36-1.08-.6-.72q2.4-1.2 7.68-3.12.24 19.2 3.72 42.6 2.16-.72 5.52-1.8-.12 1.2-.36 3.84-.12.84-1.32 1.92-1.08.96-1.08 2.28 0 .48.72 1.56.84 1.08.84 1.92 0 .6-.24 1.92-.24 1.32-.24 1.92l-1.56.48q1.56 9.72 3.6 18.6zm-17.64-57.36-.6-1.92.12-.72-1.08-1.08-.96 2.88 2.04 3.48zm-7.2 29.76q-2.64-12.12-4.44-24.24-4.56 19.56-6.36 29.76 6-3.48 10.8-5.52zm-24 24.96-.36-.96-1.2 1.68.24 2.88.84-1.56.12-1.56zm3.84 4.8-.48-1.56-1.92 2.64.6 4.32q1.56-2.4 1.44-4.8zM419.22 90.69q0 10.92-6.12 23.16-8.16 16.08-23.28 27.36-15 11.16-32.64 13.56l.6-4.44.12-.12 3.84.12 5.04-5.28-4.2.84-.84.6q-.6-1.92-2.16-8.52l4.2-.72q-2.52-20.76-3.36-42.24-4.32 2.28-8.64 5.52.24-7.92 2.4-13.68l-2.76-3h1.56l4.32-4.44-3.36.48-2.88 1.92.72-5.4-2.64-2.04q18.84-11.04 38.28-11.04 14.16 0 22.68 6.36 9.12 7.32 9.12 21zm-54.6-10.92-2.64.48-2.04 1.44-.72.12-.84 1.44 3 .12zm32.88 21.12q0-12.84-15.24-12.6-2.16 20.76-2.16 41.16 7.2-5.16 11.88-12.48 5.52-8.16 5.52-16.08zm-19.68 40.08-1.68.36q-1.2.84-1.68.84l-.48.72h1.8zm-6.12-.72-2.28.36-1.56 1.2h-.48l-.84 1.08h2.4zM502.19 95.85q0 20.64-15.48 39.12-16.2 19.2-36.36 19.2-13.44 0-21-9.48l1.08.24-1.08-3.72-3.6-1.92q-4.08-7.92-4.08-17.64 0-20.52 15.48-38.88 16.2-19.32 36.36-19.32 8.88 0 15.72 4.8l2.64 5.4-3.72-.24-.6-2.04-5.88-2.76 1.68 3.24 2.64 1.92.36.96.12 3.6-4.68 2.28-4.44-2.16 1.68 3.36.84.6-2.16 3.36 3.48-2.28.36.24.48.84 2.16.6-.72-2.52 5.76-.48-.48-2.28 3.12-.6-1.32-2.4 6.12 2.4 1.2-1.44q4.32 8.16 4.32 18zm-13.8-5.04-.84-2.52-3.84-1.92 1.08 2.28 1.68 1.32.36.48zm-5.4 14.52q0-7.32-4.2-12.24-4.08-5.04-11.28-5.04-10.92 0-19.68 10.68-8.04 9.96-8.04 21.36 0 7.08 3.96 12 4.2 5.28 11.52 5.28 11.04 0 19.56-10.68 8.16-10.2 8.16-21.36zm-45.48 35.16-.72-2.28-3.24-1.56.96 1.8 1.44 1.2.24.6zm3.48 9.48-1.2-3.96-5.76-3 1.68 3.48 2.64 1.8.48.96zM574.6 137.85q-.6 3-.6 5.64l-1.92-.84v1.92l-.96-1.44-6.72-.72 2.88 2.52 3.24 1.08.84.72h.72l.24 3.12q-.48-.24-.84-.24t-1.32.48q-.72.24-1.68-.12l3.48 4.92q-9.72-3.84-18.48-8.88-10.8-5.4-19.56-11.76-.24 8.16.36 13.8-1.2.48-3.48 1.56l-.12-.12.96-2.16-2.64-5.76-.72 3.48.6 2.4-1.44-1.44q-.12.12-3.96 6.48l-1.68-1.32q-1.44 1.2-2.52 2.04-4.68-39.72-5.28-61.8l-1.2.6-4.2-.6-3.36 3.12q-.96-2.16-1.32-3.48.12 0 4.08-2.16l-2.16-1.56 1.56-.84h1.08l1.32-1.92-3.84-.36-1.56 1.2-.48-1.68q1.32-2.28 1.92-3.84l-4.2.72v-1.92q.6-.36 2.64-1.8 21-15.36 41.88-15.36 10.68 0 17.52 4.8 7.68 5.4 7.68 15.6 0 21.48-26.28 38.88 15.84 10.68 29.52 17.04zm-24-46.32q0-8.28-11.4-8.28-1.2 0-2.64.12-1.92 15.6-1.92 24.72 15.96-9.12 15.96-16.56zM517 78.69l-3.12-.36-3.48 3 2.76-.12 1.92-1.2h.84zm46.44 60.72-1.68-2.04-4.32-.72 1.8 1.68 2.28.6.36.72zm-37.32-.6-1.92-4.2-.48 2.76.48 2.04-.12.72.96 1.44z"/>
            <path d="M630.09 60.21q-1.08 3.12-1.44 6.48h-1.08l-1.92.96-.48-.12-1.2 1.2 2.28.36 2.4-1.68q-.12.96-.36 2.64l-4.92 3 5.4.36q-.6 2.04-1.8 6.48-15.84 3.84-27.12 8.16-.48 3.6-.84 7.2 8.4-2.88 18.96-5.88l-.36 2.88q2.28-.72 6.84-1.68-.72 2.4-1.8 7.08-1.44.6-2.88.84.36.6 1.32 1.92-.36.84-.72 2.4-9.6 2.88-11.28 3.24-6.36 2.04-10.92 4.44-.36 5.52-.36 12.12 0 3.96.12 9.12 3.96-2.28 9-4.92l1.56.96q4.92-2.52 14.04-6.24-.12.48-2.16 8.28 1.8-.72 2.76-1.08-.72 3.48-.72 5.16-20.16 9-39.24 23.64-.48-2.64-.48-3 0-.84.48-2.28.48-1.32.48-2.04-1.32-1.92-2.4-3 .36-.6.96-2.4l-1.56.12-.12-.48q.6-.6 2.4-1.92-1.32-10.08-2.16-23.52-1.44.96-4.32 2.4-.72-3-1.32-4.56.72-1.92 1.32-3.24l-1.92-1.2q.36-2.52 1.32-6.36 2.88-1.32 4.32-2.28v-7.2q-3 1.32-9.12 4.32.48-1.2 3.6-8.4-.6-1.08-1.92-3 2.04-1.92 3.24-3.48-.6-.48-1.08-2.4-.36-2.04-.72-2.76 1.2-1.92 1.92-3.12 12.6-5.52 23.16-9.36l.48-2.16q15.24-3.96 30.36-6zm-9.96 11.76h-1.56l-1.44.84-.48-.12-.84.84 1.8.36zm-4.68 21-2.16.12-1.8.96h-.72l-1.08 1.08 2.52.36zm-22.68 46.2h-1.44l-1.32.6h-.36l-.6.72 1.56.24zm-5.04 4.68-2.28.12-1.8.84.6 1.68z"/>
            <path d="M680.54 77.73q-24.72 14.76-24.72 24.48 0 3.48 6 6.24 9.12 4.32 11.16 5.88 6 4.68 6 12.72 0 8.04-7.8 17.64-5.64 7.44-14.16 14.04-.48-.24-.48-1.08 0-.48.36-1.68.48-1.2.48-1.68 0-.84-4.08-.84-1.56 0-2.28.24l5.04-5.28q-4.32.6-7.08 3.72l-.96.24-.84.96-2.88-1.2q15.36-10.8 15.36-16.8 0-3.84-8.64-7.92-13.68-6.36-15.96-7.92-8.52-5.64-8.52-13.68 0-13.8 16.08-29.28 12.84-12.36 28.44-19.68.48 1.32 1.92 3 1.8 2.28 2.16 2.88l-1.8.36-2.88 2.28-.84.12-1.68 2.88 3.48.36 3.96-5.04q0 .84-1.08 5.04l3.96 3h-.12l-2.16 1.8-.72.12-1.2 1.8 2.52.24 2.52-2.64.6.72zm-10.08-6.12-2.16.36-1.8 1.68h-.6l-.96 1.8 2.28.12zm-6.12 73.2-2.76.96-2.04 1.56-.6.36-1.2 1.44 2.64-.24z"/>
        </g>
    </g>
</svg>
