<svg height="150.652" viewBox="0 0 729.133 120.521" width="911.416" xmlns="http://www.w3.org/2000/svg">
    <path d="M31.11 26.105h678.64c12.354 0 21.466 9.131 18.969 18.452l-8.983 32.75c-2.25 8.205-11.308 15.358-19.817 15.358H15.705c-8.508 0-17.608-7.153-15.358-15.358l9.832-35.844c1.918-6.992 9.327-15.358 20.931-15.358z" fill="#2285c8"/>
    <path d="M87.192 0h287.155c15.63 0 30.89 16.576 25.817 35.072l-11.782 42.954c-8.052 30.051-28.32 41.984-44.44 42.495H57.821c-15.406 0-31.884-12.951-27.809-27.809l17.41-63.472C51.706 13.255 73.448.465 87.192 0z" fill="#050608"/>
    <g stroke-width="24.385">
        <g fill="#ed1e24">
            <path d="M76.743 46.634H64.408L74.414 26.78h26.82l1.287-2.703h18.97l-11.555 22.838H97.601l-12.62 46.98H64.14zM110.948 64.718q.188-1.398.495-2.89.308-1.491 1.059-4.288.626-2.33 1.838-4.754 1.305-2.423 4.644-7.55 3.434-5.127 10.555-10.067 7.146-5.034 12.531-6.992 5.41-2.05 12.102-2.61h1.682q.841 0 1.707-.093 1.309 0 1.938.093 4.579 0 8.06 1.305 3.506 1.212 7.24 4.009 3.853 2.703 5.643 5.779 1.816 2.983 2.797 5.593 1.074 2.61 1.362 6.06.289 3.448-.22 7.084-.485 3.542-1.086 5.779-1.677 6.245-5.728 11.932-3.957 5.686-7.45 8.948-3.375 3.17-7.39 5.593-3.922 2.424-6.982 3.729-3.061 1.305-6.395 2.237-3.216.84-6.749 1.119-3.533.28-6.803.28l-4.685-.653q-5.493-1.119-9.122-3.263-3.511-2.237-6.658-6.525-3.054-4.288-4.138-8.949-1.059-4.754-.247-10.906zm22.718-3.17q-.76 4.568 1.448 7.831 2.301 3.263 4.792 3.729 2.585.466 3.146.466H145.388q.798-.187 4.78-.746 4.006-.653 6.672-4.66 2.759-4.01 3.196-4.941.53-.932.831-2.051 1.478-5.5-.461-9.415-1.939-3.915-4.898-4.381-2.84-.56-4.148-.56-1.963 0-3.651.373-1.596.373-3.859 1.492-2.144 1.025-5.393 3.729-3.156 2.703-4.458 7.55-.276 1.025-.333 1.585zM192.478 46.82h-4.672l10.056-20.04h23.923q12.149 0 17.703 6.804 5.648 6.805 6.122 11.652.592 4.754.04 8.203-.435 3.356-1.812 8.483-.626 2.33-1.838 4.754-1.118 2.423-4.795 8.11-3.677 5.686-10.891 10.626-7.19 4.847-13.204 6.712-5.99 1.77-13.559 1.77h-19.718zm13.972 25.915h1.869q5.171-.466 9.157-3.822 4.104-3.45 5.53-8.762.376-1.399.562-5.22.304-3.916-3.07-5.966-3.374-2.051-7.112-2.051zM246.17 64.718q.19-1.398.496-2.89.307-1.491 1.059-4.288.626-2.33 1.837-4.754 1.306-2.423 4.645-7.55 3.433-5.127 10.554-10.067 7.147-5.034 12.532-6.992 5.41-2.05 12.102-2.61h1.682q.841 0 1.707-.093 1.308 0 1.938.093 4.579 0 8.06 1.305 3.506 1.212 7.24 4.009 3.853 2.703 5.643 5.779 1.816 2.983 2.797 5.593 1.074 2.61 1.362 6.06.289 3.448-.22 7.084-.485 3.542-1.086 5.779-1.678 6.245-5.728 11.932-3.957 5.686-7.45 8.948-3.375 3.17-7.39 5.593-3.922 2.424-6.983 3.729-3.06 1.305-6.394 2.237-3.216.84-6.749 1.119-3.533.28-6.804.28l-4.684-.653q-5.493-1.119-9.122-3.263-3.511-2.237-6.658-6.525-3.054-4.288-4.138-8.949-1.06-4.754-.248-10.906zm22.72-3.17q-.76 4.568 1.447 7.831 2.3 3.263 4.792 3.729 2.585.466 3.146.466H280.61q.798-.187 4.78-.746 4.006-.653 6.672-4.66 2.758-4.01 3.196-4.941.53-.932.831-2.051 1.477-5.5-.461-9.415-1.94-3.915-4.898-4.381-2.84-.56-4.148-.56-1.963 0-3.652.373-1.595.373-3.858 1.492-2.144 1.025-5.394 3.729-3.155 2.703-4.458 7.55-.275 1.025-.332 1.585zM323.368 92.87q-4.808-1.585-8.872-4.195l10.535-19.39 2.708 1.399q4.7 2.33 7.577 3.449 2.996 1.025 4.49 1.025.537.094.91.094h.468q1.495 0 3.165-.653 1.696-.746 2.197-2.61.175-.653-.16-1.491-.242-.84-.983-1.212l-.324-.187-3.014-1.305-7.303-3.076q-6.377-2.703-8.395-7.364-1.9-4.754.103-12.211 1.327-4.94 4.316-8.763 3.082-3.821 7.123-6.338 4.133-2.517 7.655-3.45 3.546-1.025 8.779-1.025 1.776 0 3.713.093 1.937.094 3.825.373l1.255-2.237 16.736 3.45-11.715 21.346q-3.436-2.517-7.69-3.729-4.135-1.305-6.378-1.305-1.214 0-2.53.373-1.221.373-1.982 1.118-.761.746-1.012 1.678-.2.746.092 1.399.386.652 1.151.932l8.7 3.449 2.826 1.305q10.514 6.432 7.26 18.55-.426 1.585-1.939 5.127-1.487 3.449-5.435 7.364-3.856 3.915-7.185 5.872-3.33 1.958-7.486 3.17-4.182 1.305-11.004 1.305-2.617 0-5.202-.466t-6.975-1.865z"/>
        </g>
        <g fill="#fff">
            <path d="M414.106 51.883h-2.517l5.251-10.808h11.277l-6.28 24.818h7.602L424.036 77.1h-16.31zM430.767 61.44q.09-.75.242-1.551.152-.801.532-2.302.316-1.25.947-2.552.682-1.3 2.435-4.053 1.804-2.752 5.596-5.404 3.805-2.702 6.689-3.752 2.896-1.101 6.496-1.401h.906q.453 0 .919-.05.704 0 1.044.05 2.467 0 4.354.7 1.9.65 3.936 2.152 2.1 1.45 3.091 3.102 1.005 1.601 1.556 3.002.602 1.401.788 3.252.186 1.852-.055 3.803-.23 1.901-.534 3.102-.848 3.353-2.98 6.405-2.08 3.052-3.933 4.803-1.79 1.702-3.93 3.002-2.092 1.301-3.73 2.002-1.636.7-3.424 1.2-1.725.451-3.626.601-1.9.15-3.662.15l-2.53-.35q-2.969-.6-4.943-1.751-1.911-1.201-3.644-3.503-1.683-2.301-2.31-4.803-.612-2.552-.23-5.854zm12.21-1.702q-.368 2.452.85 4.203 1.269 1.752 2.615 2.002 1.397.25 1.699.25h1.258q.428-.1 2.568-.4 2.153-.35 3.553-2.502 1.45-2.152 1.678-2.652.277-.5.43-1.1.746-2.953-.333-5.054-1.08-2.102-2.677-2.352-1.535-.3-2.24-.3-1.057 0-1.964.2-.856.2-2.065.8-1.146.55-2.872 2.002-1.676 1.451-2.334 4.053-.14.55-.165.85zM472.604 76.55Q470 75.7 467.787 74.3l5.503-10.408 1.471.751q2.553 1.25 4.113 1.851 1.623.55 2.428.55.29.05.49.05h.253q.805 0 1.7-.35.906-.4 1.159-1.4.089-.35-.1-.801-.137-.45-.54-.65l-.176-.1-1.635-.701-3.962-1.651q-3.459-1.451-4.588-3.953-1.066-2.552-.053-6.555.67-2.652 2.247-4.703 1.627-2.052 3.78-3.403 2.205-1.35 4.094-1.85 1.9-.551 4.72-.551.956 0 2.001.05t2.064.2l.656-1.201 9.046 1.851-6.12 11.459q-1.874-1.351-4.176-2.002-2.24-.7-3.447-.7-.655 0-1.36.2-.655.2-1.058.6-.403.4-.53.9-.101.401.062.751.213.35.628.5l4.717 1.852 1.535.7q5.72 3.453 4.075 9.958-.215.85-.998 2.752-.77 1.85-2.863 3.952-2.042 2.102-3.818 3.153-1.776 1.05-4.004 1.7-2.242.701-5.916.701-1.41 0-2.807-.25-1.396-.25-3.774-1zM510.336 76.25l-1.145-.65 5.44-10.358.616.55q1.207.801 2.314.801 2.014 0 2.708-1.55.758-1.602.897-2.152l2.81-11.108h-8.004l5.277-10.708h16.663l-6.127 24.217q-.24.951-.632 1.902-.392.95-1.994 3.702-1.603 2.752-4.625 4.354-2.973 1.6-4.836 2.001-1.863.4-4.028.4-2.618 0-5.334-1.4zM539.192 51.733h-2.517l5.214-10.658h11.276l-5.684 22.466q-.316 1.251.375 2.102.69.85 2.251.85 1.662 0 2.96-.95 1.297-.951 1.715-2.602l5.532-21.866h11.226l-5.874 23.217q-.228.9-.632 1.901-.404 1-3.18 5.804-2.713 4.754-8.125 5.254-5.425.55-6.533.55-5.084 0-8.164-2.351-3.03-2.352-3.278-4.954-.248-2.602-.17-3.702.076-1.101.254-1.802zM572.757 51.983h-2.517l5.277-10.908h15.001l.82-1.45h10.069l-6.072 12.658h-11.377l-.52 2.052h13.24l-4.77 9.306h-10.824l-.557 2.202h13.039L588.049 77.1h-21.647zM613.763 41.726q1.99-.7 3.84-1.051 1.85-.35 3.411-.35 3.272 0 5.435 1.4l.87-.65 6.852 4.153-10.27 8.556-.515-.35-.843-.45q-1.295-.65-2.012-.8-.717-.151-1.309-.201-.591-.05-1.145-.05-4.732 0-6.497 2.402-1.703 2.351-1.968 2.802-.265.45-.467 1.25-.152.4-.33 1.101-.733 2.902.623 4.704 1.37 1.75 2.879 2.151 1.522.35 2.63.35 2.014 0 3.147-.7 1.134-.7 1.525-1.05.44-.351.97-.851h-5.84l4.822-9.307h16.864l-.127.7-.165.851q-.747 2.952-2.236 6.054-1.44 3.103-3.117 5.354-1.614 2.202-3.958 4.103-2.33 1.851-4.623 3.152-2.23 1.251-4.785 2.002-2.506.75-5.124.75-1.208 0-3.9-.3-2.706-.25-4.78-1.601-2.025-1.351-2.942-2.302-.918-.95-2.198-3.052-1.218-2.151-1.554-5.003-.323-2.902.652-6.755 1.342-5.304 3.913-8.106 2.585-2.852 4.361-4.303 1.84-1.501 3.843-2.652 2.015-1.2 4.068-1.951zM636.513 61.44q.09-.75.242-1.551.152-.801.532-2.302.316-1.25.947-2.552.682-1.3 2.435-4.053 1.804-2.752 5.596-5.404 3.805-2.702 6.688-3.752 2.897-1.101 6.497-1.401h.906q.453 0 .919-.05.704 0 1.044.05 2.467 0 4.354.7 1.899.65 3.936 2.152 2.1 1.45 3.091 3.102 1.005 1.601 1.556 3.002.602 1.401.788 3.252.186 1.852-.056 3.803-.229 1.901-.533 3.102-.848 3.353-2.98 6.405-2.08 3.052-3.933 4.803-1.79 1.702-3.931 3.002-2.091 1.301-3.728 2.002-1.637.7-3.425 1.2-1.725.451-3.626.601-1.9.15-3.662.15l-2.53-.35q-2.969-.6-4.943-1.751-1.911-1.201-3.644-3.503-1.684-2.301-2.31-4.803-.612-2.552-.23-5.854zm12.21-1.702q-.368 2.452.85 4.203 1.269 1.752 2.615 2.002 1.397.25 1.699.25h1.258q.428-.1 2.568-.4 2.153-.35 3.553-2.502 1.45-2.152 1.678-2.652.277-.5.43-1.1.746-2.953-.333-5.054-1.08-2.102-2.677-2.352-1.535-.3-2.24-.3-1.057 0-1.964.2-.856.2-2.065.8-1.146.55-2.872 2.002-1.676 1.451-2.334 4.053-.14.55-.165.85zM678.35 76.55q-2.604-.85-4.817-2.251l5.503-10.408 1.471.751q2.553 1.25 4.113 1.851 1.623.55 2.428.55.29.05.49.05h.252q.806 0 1.7-.35.907-.4 1.16-1.4.089-.35-.1-.801-.137-.45-.54-.65l-.176-.1-1.635-.701-3.962-1.651q-3.459-1.451-4.588-3.953-1.066-2.552-.053-6.555.67-2.652 2.247-4.703 1.627-2.052 3.78-3.403 2.205-1.35 4.094-1.85 1.9-.551 4.72-.551.956 0 2 .05 1.045.05 2.065.2l.656-1.201 9.046 1.851-6.12 11.459q-1.874-1.351-4.176-2.002-2.24-.7-3.447-.7-.655 0-1.36.2-.655.2-1.058.6-.403.4-.53.9-.101.401.062.751.213.35.628.5l4.717 1.852 1.535.7q5.72 3.453 4.075 9.958-.215.85-.998 2.752-.77 1.85-2.863 3.952-2.042 2.102-3.818 3.153-1.776 1.05-4.004 1.7-2.242.701-5.917.701-1.41 0-2.806-.25-1.396-.25-3.774-1z"/>
        </g>
    </g>
</svg>
