<svg height="158.067" viewBox="0 0 97.801 20.549" width="752.317" xmlns="http://www.w3.org/2000/svg">
    <g stroke-width=".411">
        <text fill="#ef00eb" font-family="TrasksHand" font-size=".329" stroke="#0105ff" transform="rotate(-59.965 -1.56 -1.737)" x="-13.22" y="12.383"><tspan fill="#fafafa" fill-opacity=".4" stroke="none" x="-13.22" y="12.383">John Loreth 2022</tspan></text>
        <path d="M33.138.002c-1.314.122-1.814 1.657-1.615 2.788.029.978.64 1.94 1.469 2.398-1.16-.355-2.162.667-2.887 1.43-.627.84-1.454 1.814-1.3 2.906-.088.573-.688.976-1.011 1.455-.311.353-.642.692-1.017.978-.011-1.526.671-3.116 1.117-4.607.035-1.036-1.005-1.972-2.035-1.791-1.148-.941-2.743-.208-3.764.571-2.032 1.47-3.437 3.667-4.303 5.993-.279-.183-.623-.241-.953-.23.122-2.319.664-4.545 1.18-6.797.089-1.268-.944-2.793-2.346-2.498-.512.15-.78.702-1.31.795-.827.534-.532 1.713-1.21 2.356-1.084 1.608-2.126 3.253-3.372 4.744-.165-1.699-.436-3.356-.08-5.008.573-1.243-.143-2.849-1.487-3.188-.832-.307-1.617.231-2.06.906-.454.486-1.238.529-1.59 1.157-.547.659-.471 1.608-.008 2.277-.681 1.721-1.55 3.408-2.488 5.018-.217.503-.953.248-1.326.633-1.15.729-.83 2.49.056 3.31.726.799 2.017 1.286 2.953.543 1.152-.92 1.657-2.381 2.291-3.662.203 1.294.582 2.807 1.78 3.521 1.36.544 2.588-.632 3.45-1.537.484-.496.932-1.026 1.35-1.578-.25.804-.667 1.73-.042 2.48.878 1.222 2.746 1.348 3.89.428.45-.294.838-.671 1.182-1.082.521 1.402 2.457 2.04 3.646 1.061.67-.336 1.255-.996 1.815-1.362.464 1.374 2.095 2.296 3.472 1.657.656-.203 1.27-.71 1.784-1.033.555 1.095 2.013 1.644 3.097 1.116 2.498-.766 4.227-2.906 5.737-4.915.578-.792.888-2.215-.112-2.809-.948-.47-1.854.393-2.369 1.11-.709.762-1.426 1.526-2.256 2.16.47-1.556 1.365-2.965 1.836-4.506.048-.743-.37-1.483-1.006-1.862.81.39 1.979.071 2.121-.912.085-.787.073-1.58.197-2.363.102-.95-.59-1.823-1.527-1.967a3.41 3.41 0 0 0-.949-.084zm22.412 0c-1.315.122-1.811 1.659-1.615 2.79a2.92 2.92 0 0 0 1.555 2.44c-1.15-.517-2.127.583-2.885 1.292-.351.338-.67.855-.916 1.193-.65-1.104-2.27-1.282-3.224-.477A3.298 3.298 0 0 0 46.74 9.75c-.544 1.15-1.57 2.058-2.767 2.484-.134-1.309.507-2.591 1.215-3.66.702-.987 1.618-1.886 2.723-2.395.584.179 1.156.61 1.803.373 1.183-.229 2.51-1.361 2.171-2.674-.517-1.458-2.381-1.829-3.73-1.48-3.25.66-5.926 3.087-7.512 5.923-1.084 2.033-1.513 4.76-.082 6.734.3.368.684.67 1.111.878-1.259.317-2.244 1.995-1.296 3.103.953 1.087 2.5 1.369 3.864 1.512 2.447-.105 4.313-2.219 5.106-4.388.76-1.954.86-4.125 1.76-6.02.314-.544.208.267.024.511-.489 1.467-1.209 3.257-.163 4.66.696 1.102 2.215 1.262 3.318.72.784-.248 1.525-.84 2.137-1.233.58 1.2 2.068 1.855 3.333 1.39 1.888-.374 3.502-1.643 4.574-3.208-.027 1.648 1.294 3.223 2.986 3.268 1.597.087 3.136-.591 4.451-1.444.566 1.326 2.405 1.916 3.568.988.691-.335 1.284-.992 1.854-1.386.458 1.35 2.03 2.267 3.404 1.697.632-.212 1.162-.623 1.713-.983.866 1.287 2.722 1.407 4.002.707.816-.274 1.642-.808 2.313-1.195.525 1.289 2.062 2.046 3.39 1.555 2.88-.61 5.25-3.144 5.746-6.031.193-1.411-.21-3.016-1.396-3.897-.104-1.456-2.023-2.018-3.135-1.277-.468.335-.916.688-1.488.804-.43.401-.965.072-1.483.187-.538.017-1.076.03-1.613.067.549-.955 1.144-2.286.286-3.256-.766-1.077-2.42-.822-3.159.148-.86.955-.954 2.307-1.504 3.427-.829.14-1.748.355-2.293 1.05.069-1.057-.984-2.036-2.035-1.851-1.148-.945-2.722-.197-3.764.543-1.887 1.293-2.823 3.523-4.665 4.865-.817.663-1.772 1.357-2.827 1.457-.244-.789.23-1.631.53-2.36.185-.262.418-.899.699-.804 1.056.984 2.791.099 3.193-1.129.494-1.084-.045-2.526-1.243-2.839-1.8-.627-3.645.492-4.944 1.663a8.576 8.576 0 0 0-1.434 1.801c-.146-.973-.62-1.922-1.406-2.533-.12-1.547-2.283-2.03-3.336-1.076-.543.553-1.461.447-1.888 1.156-.509.647-.512 1.52-1.071 2.144-.692 1.305-1.774 2.33-2.903 3.256.456-1.485 1.296-2.917 1.834-4.4.11-.81-.373-1.633-1.086-2.008.818.428 2.054.145 2.206-.879.081-.787.079-1.58.194-2.365.103-.948-.588-1.818-1.522-1.964a3.4 3.4 0 0 0-.952-.085zM81.6 8.526c.028.647.52 1.206 1.114 1.422-.584.697-1.124 1.452-1.853 2.01-.012-1.173.368-2.386.738-3.432zm7.974.67c-.362.656-.648 1.35-.922 2.047-.802.147-1.45.92-2.21.98.14-.873.467-1.766.829-2.596.767-.15 1.541-.262 2.303-.431zm-44.498 6.65c-.17.338-.4.927-.809.918-.25-.204-1.078-.578-.368-.59a8.052 8.052 0 0 0 1.224-.45l-.037.094z" fill="#333"/>
        <g fill="#f4c401">
            <path d="M9.296 12.294c-.17 0-.366-.43-.512-1.616-.17-1.565-.268-3.256-.243-4.291 0-.808.122-1.086.316-1.566.317-.757-.511-1.615-1.169-1.615-.39 0-.73.555-.828.707-.122.227-.195.277-.463.378-.414.177-1.217.556-1.242 1.06 0 .304.195.733.366.985.121.152.121.43-.147.985-1.047 2.423-2.557 5.1-2.703 5.301-.195.278-.536.354-.804.328-.584-.05-.901.354-.901.859-.049.53.901 1.742 1.68 1.742.342 0 .658-.253 1.097-.808.803-1.086 2.07-4.166 2.727-5.832.122-.328.22-.328.244-.076 0 .707.097 1.338.17 2.373.074 1.111.488 3.964 1.657 3.964.56 0 1.388-.757 1.753-1.11 1.023-.96 2.606-3.131 3.946-5.201.17-.253.268-.278.22-.05a160.195 160.195 0 0 0-.878 4.417c-.073.379-.146.58-.267.783-.171.328-.122.63.097.833.365.328.78.58 1.266.58.293 0 .61-.075.902-.227.876-.505 1.778-1.514 1.802-1.994 0-.354-.39-.404-1.12-.227-.268.075-.463.025-.463-.253.024-.252.024-.681.073-1.287.049-.581.414-3.939.999-5.58.462-1.262-.22-2.322-.829-2.322-.17 0-.316.126-.462.353-.122.202-.293.278-.487.278s-.415.126-.439.732c-.024.253-.17.631-.511 1.161-.39.606-3.02 4.545-3.97 5.53-.536.53-.707.706-.877.706zM24.713 6.084c-.268 0-1.315.1-2.655 1.312-1.023.96-2.046 2.197-2.679 3.535-.78 1.54-.925 2.348-.925 2.852 0 .96.95 1.49 1.242 1.49.511 0 1.023-.227 1.68-.732.682-.505 1.973-1.717 2.266-2.07.146-.152.194-.152.219.075 0 .278 0 .505.048.884.098 1.035.755 1.843 1.657 1.843 1.534 0 3.897-2.373 4.968-4.57.22-.48.341-.934.22-1.16-.098-.177-.341-.203-.61.05-1.534 2.196-3.19 3.736-3.75 3.736-.366 0-.61-.353-.61-1.237 0-1.515.44-3.08 1.073-4.57.073-.227.194-.53-.488-.933-.219-.152-.39-.101-.584.075-.146.101-.268.101-.317-.05-.146-.202-.414-.53-.755-.53zm-.901 1.893c.317 0 .512.303.585.53.073.253 0 .58-.147.833-.097.177-.487.884-.828 1.288-.73.883-1.071 1.363-1.485 1.717-.366.328-.731.58-.926.58-.195 0-.243-.353-.17-.681.146-.682.828-2.096 1.656-3.106.706-.858 1.096-1.16 1.315-1.16z"/>
            <path d="M33.384.984c-.536 0-.828.278-.877 1.06-.024.581.049.985.122 1.263.122.454.511.909 1.047 1.11.463.177.804.152.804-.353 0-.606 0-1.237.146-2.095.122-.631-.536-.985-1.242-.985zM30.339 15.35c.415 0 .877-.101 1.486-.354 1.413-.58 3.678-2.852 4.628-4.443.316-.53.39-.934.268-1.161-.098-.177-.341-.202-.634.126-1.363 1.59-3.775 3.863-4.554 3.863-.463 0-.512-.354-.268-1.136.585-1.944 1.193-3.358 1.948-4.721.244-.48 0-1.035-.316-1.288a.647.647 0 0 0-.414-.151c-.707 0-2.241 1.691-2.63 2.726-.147.379-.098.606 0 .833.121.227.121.379 0 .732-.196.455-.61 1.843-.756 2.45-.17.605-.17 1.06.049 1.514.341.782.828 1.01 1.193 1.01zM40.622 12.168c0 .555.098 1.035.341 1.666.244.606 1.048 1.439 1.9 1.439.633 0 1.194-.126 1.827-.43.584-.302 1.583-.883 1.851-1.11.195-.177.292-.151.17.202-.097.303-.243.909-.535 1.792-.56 1.641-1.316 2.121-1.876 2.121-.243 0-.56-.126-.852-.454-.244-.228-.73-.581-1.12-.581-.317 0-.707.126-1.121.606-.365.378-.317.858.049 1.161.682.555 2.192.985 3.142.985.462 0 .998-.202 1.51-.53 1.071-.682 2.07-1.92 2.435-2.98.341-.984.975-3.357 1.242-4.67.195-.909.56-1.792 1.12-2.373.244-.227.342-.454.171-.707-.292-.429-.584-.606-.925-.606-.439 0-1.34.581-1.705.934-.244.253-.39.505-.414.91-.049.832-.877 1.792-1.608 2.473-.828.783-1.997 1.288-2.484 1.288-.414 0-.804-.379-.804-1.44 0-1.337.828-3.306 2.192-4.796 1.291-1.413 2.485-1.918 2.777-1.918.268 0 .463.075.755.252.244.152.609.278 1.023.177.292-.076.901-.556 1.12-.808.317-.354.17-.808-.219-1.086a2.567 2.567 0 0 0-1.437-.429c-.901 0-2.29.404-3.605 1.237-3.117 2.02-4.92 4.999-4.92 7.675zM55.796.984c-.536 0-.828.278-.877 1.06-.024.581.05.985.122 1.263.122.454.512.909 1.048 1.11.462.177.803.152.803-.353 0-.606 0-1.237.146-2.095.122-.631-.535-.985-1.242-.985zM52.752 15.35c.414 0 .877-.101 1.486-.354 1.412-.58 3.677-2.852 4.627-4.443.317-.53.39-.934.268-1.161-.097-.177-.34-.202-.633.126-1.364 1.59-3.775 3.863-4.555 3.863-.463 0-.511-.354-.268-1.136.585-1.944 1.194-3.358 1.949-4.721.243-.48 0-1.035-.317-1.288a.647.647 0 0 0-.414-.151c-.706 0-2.24 1.691-2.63 2.726-.146.379-.098.606 0 .833.121.227.121.379 0 .732-.195.455-.61 1.843-.755 2.45-.17.605-.17 1.06.048 1.514.341.782.828 1.01 1.194 1.01z"/>
            <path d="M57.063 13.203c0 1.186.73 2.12 1.607 2.12 1.754 0 3.337-1.01 4.506-2.448.999-1.162 1.364-2.373 1.364-3.383 0-.985-.34-2.096-1.218-2.55-.17-.076-.194-.151-.194-.303 0-.353-.05-.984-.975-.984-.414 0-.78.151-1.12.504-.244.253-.414.38-.73.38-.269 0-.464.125-.634.302-.17.202-.292.379-.317.682-.024.454-.219.681-.414.959a12.196 12.196 0 0 0-1.29 2.222c-.439 1.11-.585 1.817-.585 2.499zm2.29-.43c0-1.06.974-3.104 2.07-4.442.146-.202.39-.43.56-.43.438 0 .609.707.609 1.338 0 .884-.828 2.828-1.535 3.636-.463.53-.877.732-1.193.732-.22 0-.512-.303-.512-.833zM70.897 6.084c-1.29 0-2.825.959-3.824 2.12-1.193 1.389-1.778 3.282-1.778 4.418 0 1.995 1.145 2.651 2.314 2.651 2.29 0 5.09-1.994 6.844-4.342.317-.43.439-.884.317-1.111-.098-.177-.341-.202-.61.05-1.631 1.667-3.847 3.585-5.577 3.585-.536 0-.974-.505-.974-1.262 0-.707.195-1.792 1.023-3.08.682-1.06 1.364-1.439 1.608-1.439.146 0 .267.126.243.455-.024.252.049.429.195.504.122.076.414.101.73-.05.463-.227.902-.707.902-1.389 0-.53-.487-1.11-1.413-1.11z"/>
            <path d="M78.788 6.084c-.267 0-1.315.1-2.654 1.312-1.023.96-2.046 2.197-2.68 3.535-.779 1.54-.925 2.348-.925 2.852 0 .96.95 1.49 1.242 1.49.512 0 1.023-.227 1.68-.732.683-.505 1.974-1.717 2.266-2.07.146-.152.195-.152.219.075 0 .278 0 .505.049.884.097 1.035.755 1.843 1.656 1.843 1.534 0 3.897-2.373 4.969-4.57.219-.48.34-.934.219-1.16-.098-.177-.341-.203-.61.05-1.534 2.196-3.19 3.736-3.75 3.736-.365 0-.609-.353-.609-1.237 0-1.515.439-3.08 1.072-4.57.073-.227.195-.53-.487-.933-.22-.152-.39-.101-.585.075-.146.101-.268.101-.316-.05-.147-.202-.415-.53-.756-.53zm-.9 1.893c.316 0 .51.303.584.53.073.253 0 .58-.146.833-.098.177-.487.884-.828 1.288-.731.883-1.072 1.363-1.486 1.717-.365.328-.73.58-.926.58-.194 0-.243-.353-.17-.681.146-.682.828-2.096 1.656-3.106.706-.858 1.096-1.16 1.315-1.16z"/>
            <path d="M86.071 13.304c-.633 0-.73-.48-.609-1.237.098-.732.609-2.222.95-3.03.122-.252.22-.328.536-.378 2.167-.303 3.604-.707 4.019-.934.34-.202.633-.783.048-.783-.657 0-2.411.101-3.507.126-.146 0-.365.025-.292-.176.097-.228.487-1.288 1.023-2.298.243-.429.219-.883-.146-1.262-.195-.202-.341-.278-.585-.278-.365 0-1.047.379-1.267.859-.243.53-.998 2.751-1.12 3.004-.097.277-.243.328-.463.378-.487.101-.9.202-1.193.253-.341.076-.487.202-.706.48-.195.227-.22.605-.05.782.147.126.342.278.61.253.316-.05.657-.076.852-.101.244-.026.244.075.17.252-.121.354-.925 2.802-1.168 3.51-.195.53-.268.832-.268 1.135 0 .884.852 1.414 1.558 1.414.317 0 .634-.05 1.048-.202 1.948-.656 2.947-1.565 3.385-2.045.414-.454.317-1.136-.243-.757-.585.378-1.754 1.035-2.582 1.035z"/>
            <path d="M89.335 13.203c0 1.186.73 2.12 1.607 2.12 1.754 0 3.337-1.01 4.506-2.448.999-1.162 1.364-2.373 1.364-3.383 0-.985-.341-2.096-1.218-2.55-.17-.076-.195-.151-.195-.303 0-.353-.048-.984-.974-.984-.414 0-.78.151-1.12.504-.244.253-.414.38-.731.38-.268 0-.463.125-.633.302-.17.202-.292.379-.317.682-.024.454-.219.681-.414.959a12.196 12.196 0 0 0-1.29 2.222c-.44 1.11-.585 1.817-.585 2.499zm2.29-.43c0-1.06.973-3.104 2.07-4.442.146-.202.39-.43.56-.43.438 0 .609.707.609 1.338 0 .884-.829 2.828-1.535 3.636-.463.53-.877.732-1.193.732-.22 0-.512-.303-.512-.833z"/>
        </g>
    </g>
</svg>
