<?xml version="1.0" encoding="UTF-8" ?>
<!DOCTYPE svg PUBLIC "-//W3C//DTD SVG 1.1//EN" "http://www.w3.org/Graphics/SVG/1.1/DTD/svg11.dtd">
<svg width="1676pt" height="345pt" viewBox="0 0 1676 345" version="1.1" xmlns="http://www.w3.org/2000/svg">
<g id="#333333ff">
<path fill="#333333" opacity="1.00" d=" M 80.52 20.10 C 96.15 12.58 112.36 4.90 129.98 3.98 C 140.18 4.16 151.24 6.72 158.30 14.63 C 164.19 21.72 166.12 31.90 163.76 40.76 C 160.99 53.69 155.29 65.80 148.95 77.32 C 154.14 71.09 160.34 65.79 166.04 60.04 C 178.92 48.12 192.20 36.44 207.15 27.15 C 212.84 23.45 219.35 21.03 226.09 20.17 C 231.29 19.93 236.54 22.02 240.07 25.87 C 246.60 32.91 250.75 41.93 252.77 51.26 C 253.89 55.60 254.08 60.15 253.27 64.56 C 251.98 71.27 250.55 78.07 247.37 84.18 C 238.81 101.01 226.75 115.65 215.87 130.97 C 204.84 146.33 193.91 161.81 184.38 178.17 C 179.70 186.62 175.03 195.34 173.35 204.96 C 182.44 200.74 190.18 194.26 197.64 187.68 C 200.66 184.99 204.00 182.59 206.58 179.44 C 208.45 175.81 209.08 171.64 211.11 168.05 C 219.28 152.31 231.48 139.23 242.78 125.74 C 246.38 121.32 250.49 117.03 255.81 114.72 C 263.51 111.99 271.99 111.09 280.00 112.95 C 285.46 114.12 291.47 115.25 295.39 119.63 C 298.56 122.92 299.01 127.72 299.24 132.06 C 303.63 125.95 309.27 120.94 314.43 115.53 C 319.68 110.24 325.23 104.32 332.90 102.88 C 338.04 101.32 343.60 102.36 348.38 104.59 C 353.13 107.04 355.90 112.12 356.76 117.25 C 359.00 126.95 357.72 137.71 352.07 146.05 C 343.02 160.41 332.40 173.75 323.96 188.49 C 327.45 185.81 331.38 183.65 334.48 180.52 C 336.22 177.10 337.20 173.32 339.21 170.03 C 345.79 158.66 353.35 147.85 361.69 137.69 C 367.87 130.53 375.50 123.72 385.10 121.94 C 391.25 120.11 397.75 121.50 403.66 123.56 C 408.62 125.52 412.20 129.78 414.49 134.47 C 419.62 129.82 425.43 126.03 431.02 122.00 C 436.11 118.60 441.07 114.76 447.00 112.95 C 451.22 111.70 455.75 110.38 460.12 111.75 C 467.06 113.02 471.36 119.56 473.41 125.82 C 475.54 132.68 477.22 139.77 477.22 147.00 C 484.36 139.20 492.24 132.10 500.48 125.47 C 511.80 116.80 523.77 107.89 538.03 104.97 C 551.42 101.25 567.47 109.77 570.30 123.76 C 572.96 131.62 570.48 139.97 567.26 147.25 C 562.61 156.75 556.52 165.57 549.31 173.31 C 544.98 177.28 540.20 181.36 534.22 182.38 C 528.59 183.81 522.59 181.80 518.16 178.23 C 511.60 183.35 504.16 187.71 499.38 194.72 C 499.92 196.96 499.94 199.58 501.68 201.33 C 505.26 205.17 511.25 204.17 515.79 202.91 C 529.59 197.75 541.59 188.96 553.43 180.38 C 555.51 167.49 565.18 157.88 574.06 149.09 C 598.84 126.19 628.12 106.28 661.78 99.80 C 669.46 98.01 678.19 99.40 684.16 104.82 C 690.34 110.54 694.48 118.53 695.10 126.98 C 695.04 132.27 692.70 137.23 689.05 141.00 C 690.28 145.85 692.48 150.88 691.02 155.93 C 689.57 164.17 683.89 170.61 679.26 177.26 C 675.61 182.61 671.04 187.52 669.04 193.82 C 678.55 189.76 686.57 183.04 694.24 176.25 C 700.48 170.73 712.45 172.64 715.01 181.11 C 717.25 189.60 717.45 200.10 710.79 206.75 C 697.48 220.84 684.00 235.13 667.63 245.72 C 660.97 250.37 653.12 253.16 645.06 253.99 C 638.01 253.95 630.47 251.75 625.95 246.01 C 621.91 241.69 621.07 235.66 619.84 230.12 C 612.30 237.77 603.97 245.85 593.07 248.09 C 585.86 250.29 577.96 247.44 572.61 242.42 C 566.81 236.96 562.43 230.12 558.99 222.97 C 550.45 230.83 541.74 238.60 531.94 244.90 C 524.58 250.14 516.14 253.78 507.21 255.26 C 500.12 256.96 492.81 255.42 486.08 253.05 C 473.76 247.57 465.35 236.03 460.41 223.83 C 452.12 231.82 443.65 239.75 433.98 246.06 C 428.40 249.84 421.78 251.91 415.11 252.58 C 408.36 252.51 401.23 250.58 396.46 245.55 C 390.19 239.57 388.63 230.47 388.26 222.19 C 385.25 226.80 381.76 231.06 378.30 235.33 C 374.89 239.45 370.40 242.95 365.08 244.10 C 358.24 246.13 350.37 243.71 345.62 238.44 C 342.11 234.57 339.89 229.78 337.88 225.01 C 328.52 233.09 319.46 241.77 308.50 247.66 C 301.17 250.90 292.73 253.00 284.85 250.49 C 275.73 248.73 268.72 240.77 267.17 231.75 C 260.85 237.21 254.38 243.31 245.91 245.03 C 239.89 247.00 233.51 245.26 227.84 243.02 C 220.35 239.19 215.07 232.26 211.14 225.01 C 198.34 237.38 184.82 249.15 169.85 258.85 C 162.14 263.96 153.19 267.21 143.97 267.99 C 136.09 267.71 127.96 265.39 122.11 259.86 C 114.02 252.36 111.30 240.56 112.03 229.89 C 114.59 208.44 123.46 188.41 133.36 169.42 C 141.74 153.71 150.75 138.27 161.02 123.70 C 158.44 126.56 155.94 129.50 153.34 132.35 C 125.29 161.32 102.00 194.37 77.14 226.01 C 72.55 232.02 67.95 239.04 60.28 241.28 C 52.64 244.02 44.27 240.59 38.53 235.42 C 32.47 229.96 25.93 223.57 25.23 214.96 C 25.06 206.52 30.11 199.27 34.46 192.44 C 49.73 169.38 63.71 145.51 77.71 121.66 C 86.73 106.17 95.19 90.37 103.05 74.27 C 89.30 80.44 75.14 85.75 61.82 92.83 C 51.47 98.42 41.28 104.31 31.00 110.04 C 25.65 113.00 20.09 116.08 13.88 116.58 C 8.56 116.63 3.30 114.24 0.00 110.03 L 0.00 80.59 C 4.06 70.82 10.55 62.35 16.90 53.98 C 28.89 39.09 44.37 27.40 60.79 17.79 C 64.26 15.99 68.36 14.68 72.27 15.62 C 75.47 16.13 78.01 18.22 80.52 20.10 M 103.70 23.66 C 86.59 31.21 69.86 39.58 53.12 47.89 C 56.20 43.17 59.68 38.63 64.20 35.19 C 66.40 33.21 69.35 31.79 70.73 29.07 C 70.55 26.64 68.18 28.73 67.06 29.05 C 49.78 39.03 33.85 51.87 22.22 68.22 C 16.82 75.80 11.47 83.83 9.45 93.06 C 9.05 96.34 8.23 100.59 11.02 103.07 C 13.55 104.86 16.52 102.84 18.91 101.79 C 33.04 94.51 46.52 86.03 60.72 78.88 C 72.15 73.30 83.93 68.44 95.67 63.56 C 100.67 61.63 105.66 59.54 110.91 58.39 C 114.05 57.42 117.79 58.99 118.99 62.10 C 119.89 64.78 118.92 67.60 118.20 70.20 C 115.74 77.66 112.27 84.72 108.78 91.74 C 93.88 120.89 76.74 148.80 59.79 176.79 C 53.58 187.14 46.46 196.93 40.44 207.40 C 38.94 210.24 36.76 213.90 39.01 216.95 C 42.44 221.79 46.70 226.40 52.11 229.01 C 55.63 230.79 59.05 227.89 61.25 225.37 C 87.55 192.40 111.75 157.63 140.68 126.83 C 152.10 114.59 163.69 102.42 176.53 91.65 C 181.64 87.52 186.88 83.29 193.07 80.91 C 195.16 80.20 197.97 79.36 199.73 81.17 C 201.08 83.25 199.94 85.81 199.17 87.90 C 195.70 95.77 190.65 102.81 185.81 109.88 C 172.18 129.17 159.20 148.97 147.85 169.69 C 140.63 183.03 133.92 196.72 129.16 211.14 C 126.44 219.80 124.06 228.88 125.04 238.03 C 125.69 244.51 129.56 250.85 135.63 253.53 C 141.40 256.02 148.11 255.22 153.75 252.77 C 162.26 249.14 169.79 243.61 177.03 237.92 C 191.59 226.31 205.03 213.36 218.05 200.06 C 218.83 208.78 220.94 217.73 226.20 224.90 C 229.24 228.97 233.61 232.63 238.88 232.98 C 243.25 233.49 247.28 231.22 250.69 228.74 C 256.58 224.36 261.44 218.78 266.22 213.25 C 276.39 201.39 285.70 188.83 295.28 176.51 C 290.62 187.45 285.42 198.19 281.50 209.43 C 278.99 216.47 277.57 224.50 280.44 231.66 C 282.09 235.90 286.48 238.57 290.94 238.72 C 299.20 239.45 306.31 234.37 312.54 229.64 C 324.24 220.36 334.93 209.89 345.96 199.85 C 346.42 209.24 348.32 218.80 353.13 226.98 C 354.67 229.34 356.79 232.06 359.91 232.03 C 364.18 232.15 367.06 228.49 369.61 225.59 C 380.41 212.39 389.77 197.97 401.89 185.89 C 410.22 177.53 418.78 169.09 429.16 163.28 C 422.77 174.46 416.03 185.44 409.82 196.72 C 405.50 204.50 401.15 212.82 401.17 221.95 C 401.15 227.02 401.82 232.68 405.52 236.50 C 409.67 240.50 416.26 240.43 421.29 238.22 C 429.47 234.72 436.06 228.55 442.67 222.76 C 451.26 215.05 459.52 206.98 467.74 198.87 C 468.59 208.85 471.32 218.79 476.56 227.38 C 481.29 234.95 488.53 242.20 497.89 242.93 C 509.26 243.95 519.63 238.03 528.56 231.68 C 541.75 222.05 553.40 210.53 565.13 199.23 C 566.65 210.53 571.44 221.44 578.78 230.17 C 581.46 233.03 584.69 236.73 589.07 235.93 C 595.24 234.97 600.22 230.72 604.79 226.75 C 617.61 214.79 629.07 201.47 641.21 188.85 C 639.19 194.88 636.94 200.84 635.34 207.00 C 633.07 215.82 631.01 225.33 633.83 234.26 C 634.98 238.23 638.79 241.07 642.93 241.05 C 651.72 241.40 659.29 235.97 666.16 231.14 C 679.74 220.79 691.77 208.52 703.08 195.78 C 703.64 192.42 703.25 188.98 703.31 185.59 C 693.94 193.39 684.54 201.82 672.92 206.03 C 667.59 208.07 659.81 207.20 657.61 201.14 C 655.55 194.66 656.68 187.18 660.52 181.56 C 665.22 174.34 670.71 167.67 675.36 160.42 C 677.28 157.17 679.70 153.40 678.27 149.48 C 676.56 144.42 674.18 139.62 672.13 134.70 C 675.24 133.39 678.81 132.65 681.31 130.23 C 683.25 127.53 681.81 124.11 680.61 121.41 C 678.72 117.66 676.07 113.72 671.93 112.28 C 665.80 111.35 659.66 113.06 653.81 114.75 C 635.82 120.47 618.95 129.52 603.90 140.90 C 592.43 149.62 581.34 159.04 572.11 170.15 C 567.93 175.07 565.64 181.28 565.03 187.67 C 552.01 197.41 538.79 207.32 523.71 213.64 C 515.51 216.96 505.73 218.58 497.57 214.27 C 489.35 210.05 485.07 199.85 487.38 190.99 C 489.10 185.49 493.41 181.34 497.64 177.66 C 505.04 171.63 513.01 166.34 520.71 160.71 C 522.34 159.41 524.26 158.49 526.40 158.57 C 526.55 161.57 526.10 164.60 526.53 167.59 C 527.71 170.98 532.28 170.38 534.66 168.67 C 541.13 164.22 545.95 157.78 550.23 151.29 C 553.72 145.55 557.38 139.61 558.53 132.89 C 559.56 126.01 554.82 118.80 547.99 117.29 C 541.29 116.00 534.78 118.89 528.95 121.86 C 513.13 130.31 499.69 142.46 487.14 155.12 C 478.55 164.07 469.35 173.97 467.90 186.89 C 460.37 192.77 452.83 198.69 444.77 203.85 C 441.06 205.99 436.84 208.36 432.40 207.47 C 429.92 206.98 428.79 204.28 428.71 201.99 C 428.43 196.77 431.01 191.99 433.47 187.56 C 440.67 175.43 450.20 164.93 459.54 154.44 C 461.75 151.72 464.40 148.74 464.23 145.00 C 464.06 138.82 462.72 132.60 459.97 127.05 C 459.13 125.58 458.02 123.64 456.02 123.99 C 449.77 124.32 444.65 128.40 439.63 131.71 C 426.43 140.53 414.29 150.86 403.15 162.16 C 393.66 171.64 385.39 182.24 376.08 191.89 C 374.45 193.29 372.06 196.15 369.82 194.22 C 367.16 190.60 369.69 185.97 371.58 182.58 C 379.14 170.21 389.35 159.80 398.86 148.96 C 401.10 146.25 403.67 142.73 402.28 139.05 C 400.77 135.03 395.84 134.14 392.06 134.00 C 385.43 133.54 379.67 137.70 375.20 142.14 C 367.86 149.62 361.91 158.31 356.14 167.03 C 352.06 173.54 347.49 180.11 346.24 187.88 C 340.53 192.34 334.76 196.73 328.75 200.78 C 324.56 203.54 320.03 206.20 314.93 206.62 C 312.66 206.81 309.99 206.33 308.74 204.23 C 306.66 200.69 307.25 196.29 308.45 192.56 C 310.79 185.67 314.14 179.13 318.17 173.08 C 325.43 162.36 332.92 151.80 340.03 140.98 C 342.11 137.63 344.54 134.18 344.75 130.10 C 344.93 126.09 345.09 121.90 343.78 118.04 C 343.01 115.68 340.32 114.79 338.05 114.97 C 333.82 114.91 330.48 117.91 327.59 120.63 C 322.03 126.04 316.65 131.65 311.42 137.38 C 301.75 148.10 294.30 160.82 283.14 170.15 C 273.43 178.41 264.06 187.05 254.28 195.24 C 251.33 197.57 248.44 200.18 244.90 201.60 C 242.30 202.66 239.14 200.78 238.74 198.01 C 237.89 193.63 239.05 189.20 240.09 184.96 C 240.73 182.85 241.00 180.31 243.08 179.06 C 255.65 169.43 267.27 158.48 277.17 146.10 C 281.17 140.85 285.02 135.24 286.67 128.76 C 280.32 124.50 272.20 124.64 264.89 125.35 C 260.42 125.78 256.91 128.93 254.18 132.25 C 246.92 140.94 239.32 149.36 232.50 158.41 C 226.76 166.18 221.15 174.45 218.99 184.01 C 218.69 186.57 216.52 188.14 214.79 189.78 C 205.95 197.70 197.11 205.73 187.09 212.16 C 181.93 215.33 176.13 218.49 169.87 217.79 C 166.40 217.58 162.77 215.80 161.47 212.39 C 159.93 208.23 160.65 203.64 161.47 199.39 C 164.25 187.28 170.35 176.28 176.76 165.76 C 187.86 147.80 200.17 130.63 212.62 113.59 C 220.78 102.60 228.98 91.52 235.35 79.36 C 239.19 71.88 241.64 63.32 240.56 54.87 C 239.23 48.52 236.50 42.46 232.81 37.14 C 231.22 34.93 229.00 32.22 225.90 33.08 C 217.81 34.67 211.08 39.89 204.41 44.45 C 184.75 59.16 167.16 76.42 150.19 94.11 C 125.09 120.49 101.37 148.16 78.47 176.47 C 76.31 179.14 74.21 181.87 71.87 184.38 C 88.20 156.58 104.97 129.04 121.14 101.15 C 130.95 83.84 141.22 66.65 148.42 48.03 C 150.68 41.63 153.15 34.64 151.19 27.84 C 149.42 22.01 143.53 18.61 137.85 17.57 C 126.14 15.46 114.37 19.07 103.70 23.66 M 452.55 180.96 C 453.04 181.44 453.54 181.93 454.04 182.41 C 454.56 181.19 455.40 180.22 456.57 179.49 C 456.68 178.81 456.90 177.43 457.01 176.74 C 455.62 178.21 454.80 180.69 452.55 180.96 M 451.53 183.26 C 451.75 183.50 451.75 183.50 451.53 183.26 Z" />
<path fill="#333333" opacity="1.00" d=" M 882.59 24.56 C 893.99 17.65 906.59 12.02 920.02 11.00 C 929.63 11.30 939.69 14.35 946.29 21.69 C 954.68 31.56 956.78 45.51 954.92 58.01 C 951.72 78.17 944.87 97.47 939.02 116.95 C 936.31 125.08 934.29 133.45 930.95 141.35 C 934.92 135.62 939.85 130.65 944.21 125.22 C 948.53 119.94 953.88 114.84 960.81 113.49 C 971.05 110.63 982.12 112.11 991.82 116.16 C 997.95 118.90 1000.41 125.73 1000.24 132.06 C 1004.20 126.49 1009.29 121.89 1014.00 116.98 C 1018.52 112.47 1022.90 107.56 1028.68 104.61 C 1033.75 102.43 1039.57 101.23 1044.96 102.99 C 1050.09 104.01 1054.52 107.69 1056.42 112.57 C 1059.85 122.35 1059.76 133.63 1054.92 142.93 C 1045.59 158.54 1033.97 172.69 1024.95 188.50 C 1028.44 185.81 1032.37 183.64 1035.50 180.51 C 1037.12 177.25 1037.79 173.59 1039.48 170.34 C 1043.81 161.52 1050.09 153.83 1056.63 146.57 C 1068.65 134.26 1082.83 124.32 1097.55 115.51 C 1109.29 108.40 1122.15 102.63 1135.91 101.08 C 1141.34 100.78 1146.90 101.92 1151.83 104.22 C 1159.36 108.08 1162.32 117.36 1161.26 125.34 C 1166.82 126.13 1172.20 128.89 1175.26 133.74 C 1179.73 140.83 1179.38 149.78 1176.82 157.50 C 1191.07 142.28 1207.62 129.25 1225.38 118.37 C 1240.71 109.43 1257.35 102.36 1274.93 99.43 C 1281.98 98.23 1289.72 99.94 1295.11 104.79 C 1301.32 110.51 1305.49 118.53 1306.10 127.00 C 1306.03 132.28 1303.69 137.24 1300.06 141.00 C 1301.03 144.62 1302.27 148.23 1302.55 152.00 C 1302.25 161.05 1296.68 168.50 1291.54 175.49 C 1287.54 181.48 1282.33 186.85 1280.04 193.82 C 1287.08 190.83 1293.35 186.32 1299.18 181.42 C 1300.29 176.25 1301.76 171.09 1304.45 166.49 C 1312.47 152.34 1324.92 141.32 1337.87 131.78 C 1352.52 121.46 1368.68 112.37 1386.55 109.32 C 1391.65 108.33 1396.67 110.11 1401.53 111.47 C 1411.67 90.85 1422.31 70.35 1435.31 51.36 C 1440.20 44.68 1445.02 37.21 1452.83 33.67 C 1460.60 30.25 1470.08 33.17 1475.48 39.48 C 1479.95 44.13 1481.96 50.64 1482.13 56.97 C 1481.20 65.49 1478.21 73.69 1474.14 81.20 C 1456.93 112.73 1435.06 141.76 1421.20 175.07 C 1417.91 182.64 1416.19 190.80 1416.15 199.05 C 1422.13 194.82 1427.59 189.90 1433.07 185.04 C 1435.62 182.57 1438.88 180.34 1439.51 176.57 C 1442.27 165.93 1448.21 156.46 1454.77 147.76 C 1459.89 140.69 1466.11 134.48 1472.65 128.72 C 1483.55 119.79 1495.71 111.59 1509.73 108.71 C 1520.05 105.86 1531.75 106.48 1541.14 111.85 C 1547.80 115.63 1550.87 123.19 1551.06 130.57 C 1559.41 140.30 1558.95 154.43 1555.88 166.17 C 1568.10 152.63 1580.93 139.66 1593.11 126.07 C 1596.39 122.34 1600.86 119.13 1601.99 114.00 C 1603.37 108.70 1605.94 103.70 1609.60 99.61 C 1615.02 93.75 1623.20 90.99 1631.06 91.10 C 1636.76 92.07 1643.34 93.02 1647.25 97.77 C 1651.17 102.98 1650.98 109.74 1650.76 115.91 C 1652.63 126.66 1656.90 136.96 1657.71 147.92 C 1658.62 156.78 1656.52 165.54 1653.97 173.96 C 1660.51 171.36 1669.75 173.64 1672.07 180.91 C 1673.75 186.80 1673.57 193.17 1672.47 199.15 C 1671.72 203.76 1667.93 206.80 1664.63 209.68 C 1650.53 222.89 1635.47 235.53 1618.05 244.14 C 1607.80 248.39 1596.27 251.81 1585.21 248.82 C 1568.86 245.93 1555.24 234.16 1547.08 220.09 C 1540.48 223.23 1533.22 224.72 1525.98 225.27 C 1520.17 231.37 1514.10 237.31 1506.99 241.88 C 1500.01 246.84 1491.51 249.40 1483.04 250.00 C 1474.82 249.56 1466.34 247.42 1459.79 242.22 C 1453.69 237.84 1448.99 231.82 1445.29 225.34 C 1437.42 233.84 1429.05 242.04 1419.23 248.28 C 1412.70 252.71 1404.90 255.24 1397.04 255.65 C 1389.96 255.16 1382.31 253.03 1377.77 247.19 C 1372.11 240.56 1371.03 231.55 1369.91 223.24 C 1361.41 231.70 1352.82 240.33 1342.40 246.41 C 1335.53 250.18 1326.68 249.26 1320.61 244.38 C 1313.74 238.93 1308.87 231.30 1305.39 223.34 C 1297.14 232.22 1287.60 239.90 1277.44 246.49 C 1271.07 250.75 1263.59 253.19 1256.00 254.00 C 1248.98 253.94 1241.48 251.75 1236.98 246.04 C 1232.91 241.71 1232.07 235.67 1230.84 230.12 C 1223.29 237.78 1214.95 245.87 1204.04 248.10 C 1196.84 250.28 1188.96 247.43 1183.63 242.43 C 1177.26 236.42 1172.56 228.82 1169.03 220.86 C 1158.22 229.36 1147.74 238.27 1137.04 246.90 C 1132.35 250.51 1130.20 256.20 1127.01 260.99 C 1113.44 282.42 1099.03 303.98 1079.34 320.31 C 1073.54 324.88 1067.47 329.72 1060.01 331.11 C 1052.77 333.22 1043.90 330.78 1039.83 324.15 C 1037.64 320.54 1036.84 316.20 1036.76 312.03 C 1037.76 300.39 1042.20 289.28 1048.53 279.53 C 1056.79 266.08 1067.53 254.30 1079.49 244.06 C 1074.21 245.91 1068.44 246.69 1063.04 244.92 C 1052.20 242.36 1045.62 232.30 1041.02 222.93 C 1031.31 231.70 1021.65 240.79 1010.20 247.30 C 1002.74 250.81 994.02 253.04 985.91 250.50 C 976.74 248.75 969.59 240.73 968.21 231.61 C 961.98 237.23 955.38 243.27 946.90 245.04 C 940.68 247.03 934.05 245.21 928.26 242.74 C 919.11 237.51 912.71 228.26 909.68 218.29 C 902.59 222.34 895.48 226.34 888.35 230.31 C 885.86 231.51 884.72 234.13 883.35 236.36 C 872.70 254.14 861.35 271.49 849.60 288.55 C 839.31 303.10 828.60 317.42 816.38 330.41 C 809.48 336.84 802.07 343.87 792.23 345.00 L 789.48 345.00 C 784.82 343.99 779.86 343.03 776.14 339.83 C 768.68 334.13 765.54 324.02 767.07 314.95 C 768.55 306.32 771.01 297.79 775.17 290.05 C 790.81 260.41 816.06 237.33 842.78 217.76 C 846.39 214.75 851.23 212.76 853.30 208.27 C 859.85 195.44 866.08 182.44 872.21 169.40 C 864.76 180.40 855.67 190.16 847.90 200.92 C 842.28 208.89 834.73 215.47 826.11 220.02 C 821.06 222.06 815.41 223.85 809.98 222.27 C 803.88 221.22 798.46 216.80 796.50 210.89 C 794.69 205.10 793.66 199.05 793.63 192.98 C 793.29 171.99 797.83 151.32 803.31 131.18 C 809.12 110.84 817.30 90.94 829.50 73.57 C 843.20 53.46 862.01 37.32 882.59 24.56 M 910.49 25.64 C 898.77 29.52 887.98 35.84 878.00 43.04 C 861.90 54.73 847.42 68.91 836.76 85.79 C 828.07 99.77 821.59 115.04 816.73 130.74 C 810.57 150.90 806.36 171.86 806.55 193.01 C 806.80 197.69 806.76 202.63 808.77 206.97 C 810.88 210.94 816.28 210.52 819.75 208.76 C 826.56 205.34 832.49 200.20 836.94 194.03 C 843.77 184.87 851.09 176.09 858.16 167.11 C 859.45 165.49 860.50 163.69 861.35 161.80 C 856.30 162.04 852.14 165.23 848.46 168.39 C 843.84 172.43 840.45 177.59 837.28 182.78 C 836.75 177.19 836.33 171.51 837.32 165.95 C 839.69 151.82 844.48 138.23 849.99 125.06 C 857.10 107.92 866.38 91.60 878.26 77.31 C 887.43 66.68 897.80 56.45 910.79 50.66 C 913.63 49.56 917.14 48.17 919.99 49.99 C 922.63 52.17 922.27 56.04 921.91 59.09 C 919.19 77.80 913.77 95.98 907.95 113.92 C 895.71 150.00 880.07 184.86 862.46 218.62 C 860.62 221.42 857.35 222.77 854.82 224.83 C 830.61 242.51 807.00 262.29 791.14 288.10 C 785.10 298.06 779.52 309.08 779.59 320.99 C 779.58 328.70 788.86 335.01 795.70 330.63 C 806.84 323.39 815.02 312.60 823.36 302.45 C 843.21 277.00 860.24 249.50 877.12 222.07 C 890.86 213.83 905.05 206.27 918.96 198.29 C 919.63 209.09 922.32 220.72 930.40 228.48 C 934.56 232.66 941.31 234.49 946.73 231.72 C 953.83 228.25 959.20 222.22 964.44 216.45 C 975.70 203.66 985.84 189.95 996.29 176.50 C 991.93 186.68 987.17 196.69 983.32 207.09 C 981.25 212.82 979.38 218.84 979.96 225.01 C 980.19 229.58 981.84 234.58 986.02 237.00 C 990.87 239.69 996.94 239.10 1001.90 236.97 C 1007.48 234.51 1012.29 230.65 1017.02 226.88 C 1027.45 218.22 1037.07 208.64 1047.30 199.76 C 1048.74 208.96 1052.07 217.93 1057.45 225.57 C 1059.80 228.77 1062.84 231.90 1066.86 232.80 C 1072.82 233.74 1078.73 231.55 1083.94 228.84 C 1092.11 224.40 1099.37 218.47 1106.26 212.25 C 1115.77 203.58 1124.66 194.26 1133.53 184.94 C 1127.21 200.19 1120.02 215.06 1112.86 229.92 C 1111.78 232.05 1110.97 234.46 1109.05 236.01 C 1100.00 243.64 1090.72 251.01 1082.03 259.05 C 1070.27 270.29 1059.75 283.21 1053.21 298.22 C 1050.98 303.78 1048.81 309.92 1050.05 315.96 C 1050.89 319.45 1055.16 319.44 1057.92 318.56 C 1064.31 316.41 1069.50 311.85 1074.48 307.46 C 1094.73 289.02 1109.36 265.50 1123.28 242.17 C 1124.86 239.81 1127.33 238.29 1129.47 236.47 C 1145.00 223.73 1160.54 211.00 1176.05 198.24 C 1177.29 209.69 1182.08 220.72 1189.33 229.64 C 1192.11 232.68 1195.43 236.72 1200.06 235.94 C 1206.71 234.86 1211.97 230.13 1216.83 225.80 C 1229.24 213.92 1240.66 201.07 1252.37 188.52 C 1248.52 199.40 1244.52 210.43 1243.57 222.02 C 1243.31 226.80 1243.46 231.90 1245.72 236.24 C 1247.26 239.32 1250.69 241.02 1254.05 241.06 C 1261.54 241.41 1268.20 237.21 1274.22 233.23 C 1288.05 223.48 1299.87 211.23 1311.38 198.91 C 1313.26 210.46 1317.50 221.93 1325.06 230.99 C 1327.47 233.68 1330.83 236.98 1334.81 235.74 C 1339.22 233.86 1342.86 230.58 1346.53 227.57 C 1360.95 214.98 1373.82 200.77 1386.62 186.57 C 1384.30 197.90 1382.72 209.42 1382.94 221.01 C 1383.08 226.84 1383.58 233.10 1386.98 238.06 C 1390.13 242.61 1396.35 243.50 1401.41 242.28 C 1409.08 240.39 1415.57 235.53 1421.53 230.54 C 1432.23 221.17 1441.57 210.35 1450.29 199.14 C 1451.60 209.48 1455.44 219.76 1462.55 227.53 C 1467.50 232.93 1474.42 236.95 1481.90 237.01 C 1488.19 237.38 1494.19 234.83 1499.40 231.50 C 1507.40 226.34 1514.04 219.40 1520.24 212.24 C 1526.67 212.35 1533.48 212.37 1539.36 209.38 C 1545.16 206.31 1550.15 201.96 1555.06 197.65 C 1555.55 204.26 1556.29 211.24 1560.19 216.83 C 1567.37 227.45 1578.87 236.11 1592.00 236.96 C 1602.45 237.76 1612.28 233.09 1621.02 227.87 C 1635.41 218.99 1648.14 207.70 1660.26 195.99 C 1660.25 192.31 1660.25 188.64 1660.24 184.96 C 1648.38 194.53 1636.45 204.70 1621.92 209.95 C 1615.67 212.34 1608.84 212.22 1602.37 210.95 C 1611.14 205.02 1619.84 198.85 1627.27 191.24 C 1637.36 181.14 1645.20 167.66 1644.92 153.00 C 1645.31 140.94 1640.40 129.69 1638.06 118.06 C 1637.08 114.40 1638.53 110.60 1637.70 106.97 C 1637.47 105.62 1636.03 105.29 1635.00 104.86 C 1629.43 102.85 1622.60 104.15 1618.78 108.85 C 1614.87 113.09 1613.96 118.94 1612.21 124.18 C 1593.23 145.77 1573.01 166.29 1553.56 187.46 C 1547.83 191.73 1541.99 197.43 1534.29 197.00 C 1533.33 196.00 1532.36 195.01 1531.42 194.02 C 1536.06 186.19 1539.74 177.78 1542.14 168.99 C 1544.46 160.63 1546.27 151.60 1543.90 143.05 C 1542.69 138.91 1538.23 137.43 1534.51 136.42 C 1536.85 133.52 1539.24 129.55 1537.30 125.79 C 1534.64 121.31 1528.88 120.28 1524.09 120.04 C 1515.84 119.42 1507.71 121.86 1500.42 125.53 C 1489.51 131.00 1479.84 138.73 1471.58 147.66 C 1461.58 158.77 1452.71 171.83 1450.12 186.82 C 1442.14 194.31 1434.12 201.83 1425.26 208.29 C 1420.82 211.30 1415.53 214.50 1409.95 213.21 C 1405.86 212.14 1404.04 207.72 1403.60 203.90 C 1402.46 193.19 1404.82 182.43 1408.46 172.40 C 1413.72 158.68 1420.74 145.70 1428.07 132.99 C 1438.42 115.73 1449.13 98.70 1459.33 81.35 C 1462.80 75.21 1466.19 68.95 1468.28 62.19 C 1469.43 58.35 1469.87 53.89 1467.64 50.34 C 1465.84 47.35 1462.68 44.47 1458.93 45.04 C 1455.73 46.14 1453.60 49.03 1451.39 51.43 C 1445.04 58.99 1439.95 67.49 1434.94 75.97 C 1424.44 94.11 1414.99 112.83 1405.95 131.73 C 1402.50 127.68 1398.54 123.40 1393.11 122.25 C 1386.82 121.24 1380.65 123.52 1374.89 125.77 C 1359.84 132.06 1345.74 140.74 1333.62 151.67 C 1323.18 161.08 1312.79 172.47 1311.04 187.02 C 1311.02 188.92 1309.18 189.83 1307.98 190.96 C 1300.77 196.61 1293.45 202.48 1284.79 205.74 C 1280.44 207.38 1275.09 207.76 1271.22 204.81 C 1267.54 201.74 1267.39 196.46 1267.76 192.07 C 1268.29 183.97 1274.27 177.92 1278.56 171.54 C 1282.55 165.64 1287.73 160.16 1289.64 153.16 C 1289.48 146.54 1285.28 140.82 1283.13 134.71 C 1286.23 133.40 1289.77 132.65 1292.29 130.26 C 1294.51 127.04 1292.39 123.06 1290.89 120.00 C 1288.62 116.05 1285.07 111.56 1279.99 111.99 C 1270.61 112.19 1261.69 115.59 1253.10 119.01 C 1230.40 128.17 1210.35 142.88 1192.77 159.73 C 1185.06 167.23 1176.76 175.76 1176.12 187.16 C 1163.73 196.29 1151.29 205.35 1138.82 214.36 C 1146.33 198.31 1154.02 182.33 1160.78 165.95 C 1163.32 159.22 1166.09 152.25 1165.84 144.93 C 1165.85 141.69 1163.50 138.49 1160.18 138.10 C 1155.04 137.24 1150.50 140.52 1146.96 143.82 C 1132.00 158.33 1121.10 176.60 1105.09 190.10 C 1099.28 195.28 1093.48 200.54 1087.02 204.92 C 1083.20 207.33 1078.68 209.53 1074.05 208.66 C 1069.89 207.65 1068.18 202.93 1068.42 199.06 C 1068.69 190.84 1073.37 183.64 1078.31 177.39 C 1088.09 165.28 1100.87 155.95 1114.30 148.26 C 1123.22 143.05 1133.40 140.04 1141.51 133.46 C 1145.03 130.60 1148.47 126.79 1148.69 122.02 C 1148.99 118.94 1147.16 115.77 1144.16 114.83 C 1139.85 113.43 1135.16 113.91 1130.80 114.81 C 1119.04 117.75 1108.41 123.89 1098.19 130.22 C 1085.05 138.32 1072.71 147.90 1062.44 159.48 C 1055.38 167.67 1049.03 177.06 1047.16 187.91 C 1040.52 193.12 1033.82 198.29 1026.65 202.74 C 1022.33 205.21 1017.20 207.63 1012.16 206.20 C 1008.01 204.39 1007.96 198.87 1008.78 195.08 C 1011.39 185.10 1016.86 176.15 1022.78 167.80 C 1029.61 157.66 1036.86 147.78 1043.26 137.35 C 1046.69 132.10 1046.14 125.46 1045.25 119.55 C 1044.93 117.01 1042.76 114.89 1040.13 115.00 C 1035.24 114.42 1031.35 117.95 1028.10 121.09 C 1020.26 128.91 1012.42 136.80 1005.62 145.56 C 998.61 154.47 991.98 163.88 983.08 171.06 C 971.64 180.60 961.07 191.21 949.02 199.98 C 946.41 202.31 941.33 202.82 940.01 198.87 C 938.50 192.71 940.56 186.25 942.60 180.45 C 951.31 173.27 960.17 166.15 967.87 157.85 C 975.78 149.23 984.35 140.31 987.68 128.79 C 981.63 124.62 973.86 124.70 966.84 125.23 C 962.31 125.42 958.47 128.25 955.71 131.65 C 949.44 139.11 942.97 146.40 936.90 154.02 C 929.19 163.87 921.37 174.46 919.31 187.11 C 908.61 193.00 897.85 198.77 887.18 204.71 C 896.34 186.89 905.55 169.06 913.62 150.71 C 921.06 133.88 925.78 116.07 931.34 98.58 C 935.75 83.93 940.85 69.32 942.45 54.02 C 943.28 45.43 942.20 35.61 935.61 29.36 C 928.98 23.07 918.73 22.91 910.49 25.64 M 877.27 100.38 C 867.36 115.86 860.10 132.88 854.24 150.26 C 861.46 147.10 871.55 150.76 873.16 158.96 C 874.55 162.47 873.04 166.03 872.12 169.44 C 886.76 136.30 900.23 102.33 907.80 66.80 C 895.74 76.09 885.41 87.52 877.27 100.38 M 1084.75 190.50 C 1094.56 182.77 1103.66 174.11 1111.95 164.75 C 1101.54 171.69 1091.66 179.97 1084.75 190.50 Z" />
<path fill="#333333" opacity="1.00" d=" M 602.43 172.39 C 621.12 158.73 642.30 149.05 663.17 139.25 C 652.73 153.67 642.11 167.99 630.44 181.43 C 621.07 192.19 610.20 201.79 597.76 208.84 C 595.16 210.08 591.83 211.98 589.12 209.98 C 585.54 206.85 585.25 201.57 585.52 197.14 C 586.58 186.64 594.47 178.53 602.43 172.39 M 601.62 190.99 C 606.48 187.18 611.23 183.19 615.45 178.68 C 610.55 182.42 605.37 186.02 601.62 190.99 Z" />
<path fill="#333333" opacity="1.00" d=" M 1215.69 170.73 C 1233.88 157.99 1254.12 148.62 1274.18 139.25 C 1263.72 153.67 1253.10 168.01 1241.41 181.46 C 1232.04 192.22 1221.17 201.81 1208.72 208.86 C 1205.99 210.24 1202.17 212.17 1199.57 209.52 C 1195.92 205.34 1196.00 199.14 1197.03 193.99 C 1199.57 183.97 1207.61 176.58 1215.69 170.73 M 1212.62 191.02 C 1217.40 187.24 1222.06 183.27 1226.32 178.90 C 1221.36 182.44 1216.32 186.11 1212.62 191.02 Z" />
<path fill="#333333" opacity="1.00" d=" M 1569.84 185.23 C 1584.26 171.05 1598.90 157.08 1612.62 142.21 C 1613.67 156.07 1618.15 170.27 1614.05 184.01 C 1611.18 193.99 1602.28 200.76 1593.07 204.58 C 1589.76 199.73 1586.75 194.57 1582.49 190.48 C 1578.92 187.46 1574.22 186.45 1569.84 185.23 M 1592.07 181.58 C 1593.65 183.53 1595.29 185.45 1596.96 187.35 C 1601.92 183.32 1603.06 176.80 1603.02 170.76 C 1599.40 174.40 1595.85 178.11 1592.07 181.58 Z" />
<path fill="#333333" opacity="1.00" d=" M 1479.51 175.53 C 1491.07 161.65 1507.22 152.84 1522.30 143.35 C 1516.95 152.53 1511.72 161.91 1508.37 172.03 C 1505.10 182.01 1504.83 193.04 1508.48 202.96 C 1501.87 207.51 1495.26 212.60 1487.37 214.62 C 1482.22 215.23 1476.01 214.73 1472.37 210.57 C 1469.59 207.27 1470.47 202.67 1471.36 198.84 C 1473.32 190.85 1473.82 182.00 1479.51 175.53 M 1486.42 189.50 C 1485.28 193.70 1484.51 198.00 1483.69 202.27 C 1487.38 201.32 1490.70 199.39 1493.89 197.35 C 1492.59 191.20 1492.37 184.76 1493.94 178.64 C 1491.00 181.92 1487.68 185.15 1486.42 189.50 Z" />
<path fill="#333333" opacity="1.00" d=" M 1352.97 168.86 C 1367.64 160.14 1382.69 151.80 1398.84 146.13 C 1397.10 154.90 1392.63 163.00 1386.33 169.31 C 1378.97 176.64 1370.85 183.14 1363.04 189.97 C 1356.70 195.33 1350.73 201.12 1344.16 206.20 C 1341.62 208.11 1337.92 210.10 1334.93 207.95 C 1331.15 205.22 1332.55 199.97 1333.25 196.12 C 1334.75 190.15 1336.25 183.94 1339.78 178.78 C 1343.23 174.40 1348.36 171.83 1352.97 168.86 Z" />
</g>
<g id="#f4c401ff">
<path fill="#f4c401" opacity="1.00" d=" M 103.70 23.66 C 114.37 19.07 126.14 15.46 137.85 17.57 C 143.53 18.61 149.42 22.01 151.19 27.84 C 153.15 34.64 150.68 41.63 148.42 48.03 C 141.22 66.65 130.95 83.84 121.14 101.15 C 104.97 129.04 88.20 156.58 71.87 184.38 C 74.21 181.87 76.31 179.14 78.47 176.47 C 101.37 148.16 125.09 120.49 150.19 94.11 C 167.16 76.42 184.75 59.16 204.41 44.45 C 211.08 39.89 217.81 34.67 225.90 33.08 C 229.00 32.22 231.22 34.93 232.81 37.14 C 236.50 42.46 239.23 48.52 240.56 54.87 C 241.64 63.32 239.19 71.88 235.35 79.36 C 228.98 91.52 220.78 102.60 212.62 113.59 C 200.17 130.63 187.86 147.80 176.76 165.76 C 170.35 176.28 164.25 187.28 161.47 199.39 C 160.65 203.64 159.93 208.23 161.47 212.39 C 162.77 215.80 166.40 217.58 169.87 217.79 C 176.13 218.49 181.93 215.33 187.09 212.16 C 197.11 205.73 205.95 197.70 214.79 189.78 C 216.52 188.14 218.69 186.57 218.99 184.01 C 221.15 174.45 226.76 166.18 232.50 158.41 C 239.32 149.36 246.92 140.94 254.18 132.25 C 256.91 128.93 260.42 125.78 264.89 125.35 C 272.20 124.64 280.32 124.50 286.67 128.76 C 285.02 135.24 281.17 140.85 277.17 146.10 C 267.27 158.48 255.65 169.43 243.08 179.06 C 241.00 180.31 240.73 182.85 240.09 184.96 C 239.05 189.20 237.89 193.63 238.74 198.01 C 239.14 200.78 242.30 202.66 244.90 201.60 C 248.44 200.18 251.33 197.57 254.28 195.24 C 264.06 187.05 273.43 178.41 283.14 170.15 C 294.30 160.82 301.75 148.10 311.42 137.38 C 316.65 131.65 322.03 126.04 327.59 120.63 C 330.48 117.91 333.82 114.91 338.05 114.97 C 340.32 114.79 343.01 115.68 343.78 118.04 C 345.09 121.90 344.93 126.09 344.75 130.10 C 344.54 134.18 342.11 137.63 340.03 140.98 C 332.92 151.80 325.43 162.36 318.17 173.08 C 314.14 179.13 310.79 185.67 308.45 192.56 C 307.25 196.29 306.66 200.69 308.74 204.23 C 309.99 206.33 312.66 206.81 314.93 206.62 C 320.03 206.20 324.56 203.54 328.75 200.78 C 334.76 196.73 340.53 192.34 346.24 187.88 C 347.49 180.11 352.06 173.54 356.14 167.03 C 361.91 158.31 367.86 149.62 375.20 142.14 C 379.67 137.70 385.43 133.54 392.06 134.00 C 395.84 134.14 400.77 135.03 402.28 139.05 C 403.67 142.73 401.10 146.25 398.86 148.96 C 389.35 159.80 379.14 170.21 371.58 182.58 C 369.69 185.97 367.16 190.60 369.82 194.22 C 372.06 196.15 374.45 193.29 376.08 191.89 C 385.39 182.24 393.66 171.64 403.15 162.16 C 414.29 150.86 426.43 140.53 439.63 131.71 C 444.65 128.40 449.77 124.32 456.02 123.99 C 458.02 123.64 459.13 125.58 459.97 127.05 C 462.72 132.60 464.06 138.82 464.23 145.00 C 464.40 148.74 461.75 151.72 459.54 154.44 C 450.20 164.93 440.67 175.43 433.47 187.56 C 431.01 191.99 428.43 196.77 428.71 201.99 C 428.79 204.28 429.92 206.98 432.40 207.47 C 436.84 208.36 441.06 205.99 444.77 203.85 C 452.83 198.69 460.37 192.77 467.90 186.89 C 469.35 173.97 478.55 164.07 487.14 155.12 C 499.69 142.46 513.13 130.31 528.95 121.86 C 534.78 118.89 541.29 116.00 547.99 117.29 C 554.82 118.80 559.56 126.01 558.53 132.89 C 557.38 139.61 553.72 145.55 550.23 151.29 C 545.95 157.78 541.13 164.22 534.66 168.67 C 532.28 170.38 527.71 170.98 526.53 167.59 C 526.10 164.60 526.55 161.57 526.40 158.57 C 524.26 158.49 522.34 159.41 520.71 160.71 C 513.01 166.34 505.04 171.63 497.64 177.66 C 493.41 181.34 489.10 185.49 487.38 190.99 C 485.07 199.85 489.35 210.05 497.57 214.27 C 505.73 218.58 515.51 216.96 523.71 213.64 C 538.79 207.32 552.01 197.41 565.03 187.67 C 565.64 181.28 567.93 175.07 572.11 170.15 C 581.34 159.04 592.43 149.62 603.90 140.90 C 618.95 129.52 635.82 120.47 653.81 114.75 C 659.66 113.06 665.80 111.35 671.93 112.28 C 676.07 113.72 678.72 117.66 680.61 121.41 C 681.81 124.11 683.25 127.53 681.31 130.23 C 678.81 132.65 675.24 133.39 672.13 134.70 C 674.18 139.62 676.56 144.42 678.27 149.48 C 679.70 153.40 677.28 157.17 675.36 160.42 C 670.71 167.67 665.22 174.34 660.52 181.56 C 656.68 187.18 655.55 194.66 657.61 201.14 C 659.81 207.20 667.59 208.07 672.92 206.03 C 684.54 201.82 693.94 193.39 703.31 185.59 C 703.25 188.98 703.64 192.42 703.08 195.78 C 691.77 208.52 679.74 220.79 666.16 231.14 C 659.29 235.97 651.72 241.40 642.93 241.05 C 638.79 241.07 634.98 238.23 633.83 234.26 C 631.01 225.33 633.07 215.82 635.34 207.00 C 636.94 200.84 639.19 194.88 641.21 188.85 C 629.07 201.47 617.61 214.79 604.79 226.75 C 600.22 230.72 595.24 234.97 589.07 235.93 C 584.69 236.73 581.46 233.03 578.78 230.17 C 571.44 221.44 566.65 210.53 565.13 199.23 C 553.40 210.53 541.75 222.05 528.56 231.68 C 519.63 238.03 509.26 243.95 497.89 242.93 C 488.53 242.20 481.29 234.95 476.56 227.38 C 471.32 218.79 468.59 208.85 467.74 198.87 C 459.52 206.98 451.26 215.05 442.67 222.76 C 436.06 228.55 429.47 234.72 421.29 238.22 C 416.26 240.43 409.67 240.50 405.52 236.50 C 401.82 232.68 401.15 227.02 401.17 221.95 C 401.15 212.82 405.50 204.50 409.82 196.72 C 416.03 185.44 422.77 174.46 429.16 163.28 C 418.78 169.09 410.22 177.53 401.89 185.89 C 389.77 197.97 380.41 212.39 369.61 225.59 C 367.06 228.49 364.18 232.15 359.91 232.03 C 356.79 232.06 354.67 229.34 353.13 226.98 C 348.32 218.80 346.42 209.24 345.96 199.85 C 334.93 209.89 324.24 220.36 312.54 229.64 C 306.31 234.37 299.20 239.45 290.94 238.72 C 286.48 238.57 282.09 235.90 280.44 231.66 C 277.57 224.50 278.99 216.47 281.50 209.43 C 285.42 198.19 290.62 187.45 295.28 176.51 C 285.70 188.83 276.39 201.39 266.22 213.25 C 261.44 218.78 256.58 224.36 250.69 228.74 C 247.28 231.22 243.25 233.49 238.88 232.98 C 233.61 232.63 229.24 228.97 226.20 224.90 C 220.94 217.73 218.83 208.78 218.05 200.06 C 205.03 213.36 191.59 226.31 177.03 237.92 C 169.79 243.61 162.26 249.14 153.75 252.77 C 148.11 255.22 141.40 256.02 135.63 253.53 C 129.56 250.85 125.69 244.51 125.04 238.03 C 124.06 228.88 126.44 219.80 129.16 211.14 C 133.92 196.72 140.63 183.03 147.85 169.69 C 159.20 148.97 172.18 129.17 185.81 109.88 C 190.65 102.81 195.70 95.77 199.17 87.90 C 199.94 85.81 201.08 83.25 199.73 81.17 C 197.97 79.36 195.16 80.20 193.07 80.91 C 186.88 83.29 181.64 87.52 176.53 91.65 C 163.69 102.42 152.10 114.59 140.68 126.83 C 111.75 157.63 87.55 192.40 61.25 225.37 C 59.05 227.89 55.63 230.79 52.11 229.01 C 46.70 226.40 42.44 221.79 39.01 216.95 C 36.76 213.90 38.94 210.24 40.44 207.40 C 46.46 196.93 53.58 187.14 59.79 176.79 C 76.74 148.80 93.88 120.89 108.78 91.74 C 112.27 84.72 115.74 77.66 118.20 70.20 C 118.92 67.60 119.89 64.78 118.99 62.10 C 117.79 58.99 114.05 57.42 110.91 58.39 C 105.66 59.54 100.67 61.63 95.67 63.56 C 83.93 68.44 72.15 73.30 60.72 78.88 C 46.52 86.03 33.04 94.51 18.91 101.79 C 16.52 102.84 13.55 104.86 11.02 103.07 C 8.23 100.59 9.05 96.34 9.45 93.06 C 11.47 83.83 16.82 75.80 22.22 68.22 C 33.85 51.87 49.78 39.03 67.06 29.05 C 68.18 28.73 70.55 26.64 70.73 29.07 C 69.35 31.79 66.40 33.21 64.20 35.19 C 59.68 38.63 56.20 43.17 53.12 47.89 C 69.86 39.58 86.59 31.21 103.70 23.66 M 602.43 172.39 C 594.47 178.53 586.58 186.64 585.52 197.14 C 585.25 201.57 585.54 206.85 589.12 209.98 C 591.83 211.98 595.16 210.08 597.76 208.84 C 610.20 201.79 621.07 192.19 630.44 181.43 C 642.11 167.99 652.73 153.67 663.17 139.25 C 642.30 149.05 621.12 158.73 602.43 172.39 Z" />
<path fill="#f4c401" opacity="1.00" d=" M 910.49 25.64 C 918.73 22.91 928.98 23.07 935.61 29.36 C 942.20 35.61 943.28 45.43 942.45 54.02 C 940.85 69.32 935.75 83.93 931.34 98.58 C 925.78 116.07 921.06 133.88 913.62 150.71 C 905.55 169.06 896.34 186.89 887.18 204.71 C 897.85 198.77 908.61 193.00 919.31 187.11 C 921.37 174.46 929.19 163.87 936.90 154.02 C 942.97 146.40 949.44 139.11 955.71 131.65 C 958.47 128.25 962.31 125.42 966.84 125.23 C 973.86 124.70 981.63 124.62 987.68 128.79 C 984.35 140.31 975.78 149.23 967.87 157.85 C 960.17 166.15 951.31 173.27 942.60 180.45 C 940.56 186.25 938.50 192.71 940.01 198.87 C 941.33 202.82 946.41 202.31 949.02 199.98 C 961.07 191.21 971.64 180.60 983.08 171.06 C 991.98 163.88 998.61 154.47 1005.62 145.56 C 1012.42 136.80 1020.26 128.91 1028.10 121.09 C 1031.35 117.95 1035.24 114.42 1040.13 115.00 C 1042.76 114.89 1044.93 117.01 1045.25 119.55 C 1046.14 125.46 1046.69 132.10 1043.26 137.35 C 1036.86 147.78 1029.61 157.66 1022.78 167.80 C 1016.86 176.15 1011.39 185.10 1008.78 195.08 C 1007.96 198.87 1008.01 204.39 1012.16 206.20 C 1017.20 207.63 1022.33 205.21 1026.65 202.74 C 1033.82 198.29 1040.52 193.12 1047.16 187.91 C 1049.03 177.06 1055.38 167.67 1062.44 159.48 C 1072.71 147.90 1085.05 138.32 1098.19 130.22 C 1108.41 123.89 1119.04 117.75 1130.80 114.81 C 1135.16 113.91 1139.85 113.43 1144.16 114.83 C 1147.16 115.77 1148.99 118.94 1148.69 122.02 C 1148.47 126.79 1145.03 130.60 1141.51 133.46 C 1133.40 140.04 1123.22 143.05 1114.30 148.26 C 1100.87 155.95 1088.09 165.28 1078.31 177.39 C 1073.37 183.64 1068.69 190.84 1068.42 199.06 C 1068.18 202.93 1069.89 207.65 1074.05 208.66 C 1078.68 209.53 1083.20 207.33 1087.02 204.92 C 1093.48 200.54 1099.28 195.28 1105.09 190.10 C 1121.10 176.60 1132.00 158.33 1146.96 143.82 C 1150.50 140.52 1155.04 137.24 1160.18 138.10 C 1163.50 138.49 1165.85 141.69 1165.84 144.93 C 1166.09 152.25 1163.32 159.22 1160.78 165.95 C 1154.02 182.33 1146.33 198.31 1138.82 214.36 C 1151.29 205.35 1163.73 196.29 1176.12 187.16 C 1176.76 175.76 1185.06 167.23 1192.77 159.73 C 1210.35 142.88 1230.40 128.17 1253.10 119.01 C 1261.69 115.59 1270.61 112.19 1279.99 111.99 C 1285.07 111.56 1288.62 116.05 1290.89 120.00 C 1292.39 123.06 1294.51 127.04 1292.29 130.26 C 1289.77 132.65 1286.23 133.40 1283.13 134.71 C 1285.28 140.82 1289.48 146.54 1289.64 153.16 C 1287.73 160.16 1282.55 165.64 1278.56 171.54 C 1274.27 177.92 1268.29 183.97 1267.76 192.07 C 1267.39 196.46 1267.54 201.74 1271.22 204.81 C 1275.09 207.76 1280.44 207.38 1284.79 205.74 C 1293.45 202.48 1300.77 196.61 1307.98 190.96 C 1309.18 189.83 1311.02 188.92 1311.04 187.02 C 1312.79 172.47 1323.18 161.08 1333.62 151.67 C 1345.74 140.74 1359.84 132.06 1374.89 125.77 C 1380.65 123.52 1386.82 121.24 1393.11 122.25 C 1398.54 123.40 1402.50 127.68 1405.95 131.73 C 1414.99 112.83 1424.44 94.11 1434.94 75.97 C 1439.95 67.49 1445.04 58.99 1451.39 51.43 C 1453.60 49.03 1455.73 46.14 1458.93 45.04 C 1462.68 44.47 1465.84 47.35 1467.64 50.34 C 1469.87 53.89 1469.43 58.35 1468.28 62.19 C 1466.19 68.95 1462.80 75.21 1459.33 81.35 C 1449.13 98.70 1438.42 115.73 1428.07 132.99 C 1420.74 145.70 1413.72 158.68 1408.46 172.40 C 1404.82 182.43 1402.46 193.19 1403.60 203.90 C 1404.04 207.72 1405.86 212.14 1409.95 213.21 C 1415.53 214.50 1420.82 211.30 1425.26 208.29 C 1434.12 201.83 1442.14 194.31 1450.12 186.82 C 1452.71 171.83 1461.58 158.77 1471.58 147.66 C 1479.84 138.73 1489.51 131.00 1500.42 125.53 C 1507.71 121.86 1515.84 119.42 1524.09 120.04 C 1528.88 120.28 1534.64 121.31 1537.30 125.79 C 1539.24 129.55 1536.85 133.52 1534.51 136.42 C 1538.23 137.43 1542.69 138.91 1543.90 143.05 C 1546.27 151.60 1544.46 160.63 1542.14 168.99 C 1539.74 177.78 1536.06 186.19 1531.42 194.02 C 1532.36 195.01 1533.33 196.00 1534.29 197.00 C 1541.99 197.43 1547.83 191.73 1553.56 187.46 C 1573.01 166.29 1593.23 145.77 1612.21 124.18 C 1613.96 118.94 1614.87 113.09 1618.78 108.85 C 1622.60 104.15 1629.43 102.85 1635.00 104.86 C 1636.03 105.29 1637.47 105.62 1637.70 106.97 C 1638.53 110.60 1637.08 114.40 1638.06 118.06 C 1640.40 129.69 1645.31 140.94 1644.92 153.00 C 1645.20 167.66 1637.36 181.14 1627.27 191.24 C 1619.84 198.85 1611.14 205.02 1602.37 210.95 C 1608.84 212.22 1615.67 212.34 1621.92 209.95 C 1636.45 204.70 1648.38 194.53 1660.24 184.96 C 1660.25 188.64 1660.25 192.31 1660.26 195.99 C 1648.14 207.70 1635.41 218.99 1621.02 227.87 C 1612.28 233.09 1602.45 237.76 1592.00 236.96 C 1578.87 236.11 1567.37 227.45 1560.19 216.83 C 1556.29 211.24 1555.55 204.26 1555.06 197.65 C 1550.15 201.96 1545.16 206.31 1539.36 209.38 C 1533.48 212.37 1526.67 212.35 1520.24 212.24 C 1514.04 219.40 1507.40 226.34 1499.40 231.50 C 1494.19 234.83 1488.19 237.38 1481.90 237.01 C 1474.42 236.95 1467.50 232.93 1462.55 227.53 C 1455.44 219.76 1451.60 209.48 1450.29 199.14 C 1441.57 210.35 1432.23 221.17 1421.53 230.54 C 1415.57 235.53 1409.08 240.39 1401.41 242.28 C 1396.35 243.50 1390.13 242.61 1386.98 238.06 C 1383.58 233.10 1383.08 226.84 1382.94 221.01 C 1382.72 209.42 1384.30 197.90 1386.62 186.57 C 1373.82 200.77 1360.95 214.98 1346.53 227.57 C 1342.86 230.58 1339.22 233.86 1334.81 235.74 C 1330.83 236.98 1327.47 233.68 1325.06 230.99 C 1317.50 221.93 1313.26 210.46 1311.38 198.91 C 1299.87 211.23 1288.05 223.48 1274.22 233.23 C 1268.20 237.21 1261.54 241.41 1254.05 241.06 C 1250.69 241.02 1247.26 239.32 1245.72 236.24 C 1243.46 231.90 1243.31 226.80 1243.57 222.02 C 1244.52 210.43 1248.52 199.40 1252.37 188.52 C 1240.66 201.07 1229.24 213.92 1216.83 225.80 C 1211.97 230.13 1206.71 234.86 1200.06 235.94 C 1195.43 236.72 1192.11 232.68 1189.33 229.64 C 1182.08 220.72 1177.29 209.69 1176.05 198.24 C 1160.54 211.00 1145.00 223.73 1129.47 236.47 C 1127.33 238.29 1124.86 239.81 1123.28 242.17 C 1109.36 265.50 1094.73 289.02 1074.48 307.46 C 1069.50 311.85 1064.31 316.41 1057.92 318.56 C 1055.16 319.44 1050.89 319.45 1050.05 315.96 C 1048.81 309.92 1050.98 303.78 1053.21 298.22 C 1059.75 283.21 1070.27 270.29 1082.03 259.05 C 1090.72 251.01 1100.00 243.64 1109.05 236.01 C 1110.97 234.46 1111.78 232.05 1112.86 229.92 C 1120.02 215.06 1127.21 200.19 1133.53 184.94 C 1124.66 194.26 1115.77 203.58 1106.26 212.25 C 1099.37 218.47 1092.11 224.40 1083.94 228.84 C 1078.73 231.55 1072.82 233.74 1066.86 232.80 C 1062.84 231.90 1059.80 228.77 1057.45 225.57 C 1052.07 217.93 1048.74 208.96 1047.30 199.76 C 1037.07 208.64 1027.45 218.22 1017.02 226.88 C 1012.29 230.65 1007.48 234.51 1001.90 236.97 C 996.94 239.10 990.87 239.69 986.02 237.00 C 981.84 234.58 980.19 229.58 979.96 225.01 C 979.38 218.84 981.25 212.82 983.32 207.09 C 987.17 196.69 991.93 186.68 996.29 176.50 C 985.84 189.95 975.70 203.66 964.44 216.45 C 959.20 222.22 953.83 228.25 946.73 231.72 C 941.31 234.49 934.56 232.66 930.40 228.48 C 922.32 220.72 919.63 209.09 918.96 198.29 C 905.05 206.27 890.86 213.83 877.12 222.07 C 860.24 249.50 843.21 277.00 823.36 302.45 C 815.02 312.60 806.84 323.39 795.70 330.63 C 788.86 335.01 779.58 328.70 779.59 320.99 C 779.52 309.08 785.10 298.06 791.14 288.10 C 807.00 262.29 830.61 242.51 854.82 224.83 C 857.35 222.77 860.62 221.42 862.46 218.62 C 880.07 184.86 895.71 150.00 907.95 113.92 C 913.77 95.98 919.19 77.80 921.91 59.09 C 922.27 56.04 922.63 52.17 919.99 49.99 C 917.14 48.17 913.63 49.56 910.79 50.66 C 897.80 56.45 887.43 66.68 878.26 77.31 C 866.38 91.60 857.10 107.92 849.99 125.06 C 844.48 138.23 839.69 151.82 837.32 165.95 C 836.33 171.51 836.75 177.19 837.28 182.78 C 840.45 177.59 843.84 172.43 848.46 168.39 C 852.14 165.23 856.30 162.04 861.35 161.80 C 860.50 163.69 859.45 165.49 858.16 167.11 C 851.09 176.09 843.77 184.87 836.94 194.03 C 832.49 200.20 826.56 205.34 819.75 208.76 C 816.28 210.52 810.88 210.94 808.77 206.97 C 806.76 202.63 806.80 197.69 806.55 193.01 C 806.36 171.86 810.57 150.90 816.73 130.74 C 821.59 115.04 828.07 99.77 836.76 85.79 C 847.42 68.91 861.90 54.73 878.00 43.04 C 887.98 35.84 898.77 29.52 910.49 25.64 M 1215.69 170.73 C 1207.61 176.58 1199.57 183.97 1197.03 193.99 C 1196.00 199.14 1195.92 205.34 1199.57 209.52 C 1202.17 212.17 1205.99 210.24 1208.72 208.86 C 1221.17 201.81 1232.04 192.22 1241.41 181.46 C 1253.10 168.01 1263.72 153.67 1274.18 139.25 C 1254.12 148.62 1233.88 157.99 1215.69 170.73 M 1569.84 185.23 C 1574.22 186.45 1578.92 187.46 1582.49 190.48 C 1586.75 194.57 1589.76 199.73 1593.07 204.58 C 1602.28 200.76 1611.18 193.99 1614.05 184.01 C 1618.15 170.27 1613.67 156.07 1612.62 142.21 C 1598.90 157.08 1584.26 171.05 1569.84 185.23 M 1479.51 175.53 C 1473.82 182.00 1473.32 190.85 1471.36 198.84 C 1470.47 202.67 1469.59 207.27 1472.37 210.57 C 1476.01 214.73 1482.22 215.23 1487.37 214.62 C 1495.26 212.60 1501.87 207.51 1508.48 202.96 C 1504.83 193.04 1505.10 182.01 1508.37 172.03 C 1511.72 161.91 1516.95 152.53 1522.30 143.35 C 1507.22 152.84 1491.07 161.65 1479.51 175.53 M 1352.97 168.86 C 1348.36 171.83 1343.23 174.40 1339.78 178.78 C 1336.25 183.94 1334.75 190.15 1333.25 196.12 C 1332.55 199.97 1331.15 205.22 1334.93 207.95 C 1337.92 210.10 1341.62 208.11 1344.16 206.20 C 1350.73 201.12 1356.70 195.33 1363.04 189.97 C 1370.85 183.14 1378.97 176.64 1386.33 169.31 C 1392.63 163.00 1397.10 154.90 1398.84 146.13 C 1382.69 151.80 1367.64 160.14 1352.97 168.86 Z" />
</g>
<g id="#222222ab">
<path fill="#222222" opacity="0.67" d=" M 451.53 183.26 C 451.75 183.50 451.75 183.50 451.53 183.26 Z" />
</g>
</svg>
