<?xml version="1.0" encoding="UTF-8" standalone="no"?>
<svg
   version="1.1"
   viewBox="0 0 1977 430"
   id="svg314"
   sodipodi:docname="auto-reflection.svg"
   inkscape:version="1.1.2 (0a00cf5339, 2022-02-04)"
   xmlns:inkscape="http://www.inkscape.org/namespaces/inkscape"
   xmlns:sodipodi="http://sodipodi.sourceforge.net/DTD/sodipodi-0.dtd"
   xmlns:xlink="http://www.w3.org/1999/xlink"
   xmlns="http://www.w3.org/2000/svg"
   xmlns:svg="http://www.w3.org/2000/svg">
  <defs
     id="defs318">
    <linearGradient
       inkscape:collect="always"
       id="linearGradient132319">
      <stop
         style="stop-color:#58beeb;stop-opacity:1;"
         offset="0"
         id="stop132315" />
      <stop
         style="stop-color:#0098da;stop-opacity:1"
         offset="1"
         id="stop132317" />
    </linearGradient>
    <linearGradient
       inkscape:collect="always"
       id="linearGradient65023">
      <stop
         style="stop-color:#a9abae;stop-opacity:1;"
         offset="0"
         id="stop65019" />
      <stop
         style="stop-color:#666666;stop-opacity:1"
         offset="1"
         id="stop65021" />
    </linearGradient>
    <linearGradient
       inkscape:collect="always"
       xlink:href="#linearGradient65023"
       id="linearGradient2257"
       x1="19.977001"
       y1="294.14444"
       x2="37.464783"
       y2="167.56682"
       gradientUnits="userSpaceOnUse" />
    <linearGradient
       inkscape:collect="always"
       xlink:href="#linearGradient65023"
       id="linearGradient3297"
       x1="513.08209"
       y1="203.99919"
       x2="490.70999"
       y2="203.75"
       gradientUnits="userSpaceOnUse" />
    <linearGradient
       inkscape:collect="always"
       xlink:href="#linearGradient65023"
       id="linearGradient3543"
       x1="685.02643"
       y1="347.5"
       x2="668.96002"
       y2="347.5"
       gradientUnits="userSpaceOnUse" />
    <linearGradient
       inkscape:collect="always"
       xlink:href="#linearGradient65023"
       id="linearGradient4144"
       x1="1141.4899"
       y1="255.51418"
       x2="1044.4854"
       y2="170.47739"
       gradientUnits="userSpaceOnUse" />
    <linearGradient
       inkscape:collect="always"
       xlink:href="#linearGradient65023"
       id="linearGradient4917"
       x1="1201.1667"
       y1="80.866234"
       x2="1219.8513"
       y2="65.446793"
       gradientUnits="userSpaceOnUse" />
    <linearGradient
       inkscape:collect="always"
       xlink:href="#linearGradient65023"
       id="linearGradient5460"
       x1="1343.1378"
       y1="77.472809"
       x2="1319.5847"
       y2="59.400131"
       gradientUnits="userSpaceOnUse" />
    <linearGradient
       inkscape:collect="always"
       xlink:href="#linearGradient65023"
       id="linearGradient6559"
       x1="1645.9082"
       y1="209.71826"
       x2="1546.3668"
       y2="209.16599"
       gradientUnits="userSpaceOnUse" />
    <linearGradient
       inkscape:collect="always"
       xlink:href="#linearGradient65023"
       id="linearGradient7336"
       x1="1758.1423"
       y1="179.56683"
       x2="1843.183"
       y2="13.918565"
       gradientUnits="userSpaceOnUse" />
    <linearGradient
       inkscape:collect="always"
       xlink:href="#linearGradient65023"
       id="linearGradient8241"
       x1="1974.1699"
       y1="289.82031"
       x2="1935.8513"
       y2="340.89694"
       gradientUnits="userSpaceOnUse" />
    <linearGradient
       inkscape:collect="always"
       xlink:href="#linearGradient132319"
       id="linearGradient132321"
       x1="333.47165"
       y1="209.81665"
       x2="333.47165"
       y2="432.20441"
       gradientUnits="userSpaceOnUse" />
    <linearGradient
       inkscape:collect="always"
       xlink:href="#linearGradient132319"
       id="linearGradient139220"
       x1="844.08618"
       y1="199.66771"
       x2="846.55774"
       y2="427.65564"
       gradientUnits="userSpaceOnUse" />
  </defs>
  <sodipodi:namedview
     id="namedview316"
     pagecolor="#ffffff"
     bordercolor="#666666"
     borderopacity="1.0"
     inkscape:pageshadow="2"
     inkscape:pageopacity="0.0"
     inkscape:pagecheckerboard="0"
     showgrid="false"
     inkscape:zoom="6.7793905"
     inkscape:cx="144.85078"
     inkscape:cy="159.60137"
     inkscape:window-width="1920"
     inkscape:window-height="1011"
     inkscape:window-x="1920"
     inkscape:window-y="32"
     inkscape:window-maximized="1"
     inkscape:current-layer="svg314" />
  <g
     fill="#7c919c"
     id="g188">
    <path
       d="   M 1098.00 107.54   C 1097.00 107.73 1095.82 108.01 1094.98 108.63   C 1067.69 129.01 1050.92 160.12 1040.04 192.00   L 986.79 195.25   C 989.21 121.65 1028.85 43.57 1109.33 32.48   C 1130.83 29.52 1152.01 30.47 1172.51 38.66   A 1.97 1.96 -79.3 0 1 1173.75 40.49   L 1173.75 102.28   A 0.83 0.83 0.0 0 1 1172.60 103.04   C 1148.59 93.08 1120.27 91.79 1098.00 107.54   Z"
       id="path160" />
    <path
       d="   M 1632.38 33.43   Q 1624.40 37.65 1617.52 42.95   Q 1607.74 50.83 1601.00 61.21   Q 1583.18 87.50 1573.17 117.74   C 1565.14 133.54 1561.36 150.21 1559.46 167.75   C 1536.72 167.49 1514.01 168.38 1491.29 168.25   C 1497.36 106.12 1527.92 36.52 1600.01 31.41   C 1609.89 30.71 1622.25 30.49 1632.38 33.43   Z"
       id="path162" />
    <path
       d="   M 1358.46 46.75   L 1358.21 44.00   L 1358.20 37.96   Q 1358.20 37.64 1358.09 37.94   L 1357.99 38.19   A 0.47 0.46 9.7 0 1 1357.55 38.49   L 1356.89 38.48   A 1.23 1.22 -66.8 0 0 1356.00 38.84   Q 1350.29 44.72 1345.08 51.02   C 1341.17 55.75 1305.62 96.38 1305.72 97.76   A 0.31 0.31 0.0 0 0 1306.15 98.02   Q 1306.91 97.69 1307.25 98.46   Q 1306.08 97.92 1306.06 99.06   Q 1305.71 124.82 1306.18 175.06   Q 1273.10 177.03 1239.93 178.79   Q 1238.89 178.84 1237.32 178.75   Q 1237.53 139.50 1237.25 100.25   Q 1237.24 98.50 1235.75 98.46   C 1235.50 96.33 1234.26 95.78 1233.22 94.49   Q 1201.75 55.36 1187.04 37.72   Q 1186.66 37.26 1185.54 37.25   Q 1185.38 36.60 1185.55 35.82   A 0.64 0.62 -83.6 0 1 1186.16 35.32   C 1214.70 35.12 1243.23 35.53 1271.76 35.39   Q 1314.86 35.19 1357.83 35.26   A 0.67 0.66 90.0 0 1 1358.49 35.93   L 1358.46 46.75   Z"
       id="path164" />
    <path
       d="   M 1895.46 181.50   Q 1893.73 181.79 1890.31 181.44   Q 1861.63 178.47 1822.00 176.04   Q 1820.79 174.81 1820.27 173.22   L 1806.76 141.23   L 1794.22 112.10   Q 1778.41 74.37 1762.25 36.96   C 1762.12 36.67 1762.01 36.67 1761.79 36.50   Q 1761.64 36.09 1761.77 35.72   A 0.71 0.71 0.0 0 1 1762.44 35.25   L 1830.25 35.25   A 0.60 0.59 77.6 0 1 1830.79 35.60   L 1895.46 181.50   Z"
       id="path168" />
    <path
       d="   M 176.75 172.54   Q 142.88 166.38 109.29 158.83   Q 108.48 158.64 107.75 158.21   C 122.96 143.99 124.93 124.33 114.32 107.08   C 103.59 89.63 88.56 88.17 68.79 88.28   Q 35.13 88.45 1.35 88.55   A 0.85 0.84 89.7 0 1 0.51 87.71   L 0.00 41.44   L 0.00 35.69   Q 43.56 35.24 77.94 35.59   C 123.53 36.06 168.00 49.32 178.79 99.55   C 183.77 122.73 184.14 149.53 176.75 172.54   Z"
       id="path170" />
    <path
       d="   M 490.77 169.76   L 490.71 203.75   Q 489.53 204.03 489.00 204.00   Q 456.87 202.42 424.79 200.00   L 424.76 35.97   A 0.47 0.47 0.0 0 1 425.23 35.50   L 571.97 35.50   A 0.48 0.47 0.0 0 1 572.45 35.97   L 572.39 97.56   A 1.20 1.19 0.0 0 1 571.19 98.75   L 491.28 98.74   A 0.50 0.50 0.0 0 0 490.78 99.24   L 490.77 169.76   Z"
       id="path172" />
    <path
       d="   M 668.96 206.75   L 601.54 207.00   L 601.51 35.94   A 0.45 0.44 -0.0 0 1 601.96 35.50   L 668.50 35.50   A 0.49 0.49 0.0 0 1 668.99 35.99   L 668.96 206.75   Z"
       id="path174" />
    <path
       id="path176"
       d="M 1306.1797 175.06055 C 1284.1264 176.37388 1262.043 177.61573 1239.9297 178.78906 C 1239.2364 178.8224 1238.367 178.81 1237.3203 178.75 L 1237.5391 324.5 L 1237.5293 376.13086 A 1.39 1.39 0 0 0 1238.9199 377.51953 L 1305.5 377.5 A 0.74 0.74 0 0 0 1306.2402 376.75977 L 1306.2109 271.5 L 1306.1797 175.06055 z M 1238.5508 318.76953 C 1238.5508 320.4162 1238.4973 322.06427 1238.3906 323.71094 C 1238.4973 322.06427 1238.5508 320.4162 1238.5508 318.76953 z "
       style="fill:#8b9ea9;fill-opacity:1" />
    <path
       id="path178"
       d="M 107.75 158.21094 C 99.996667 164.6576 91.333099 167.99404 81.759766 168.2207 C 69.799766 168.50737 43.213333 168.42714 2 167.98047 C 1.2 167.9738 0.93760417 168.27419 1.2109375 168.88086 L 53 258.46094 L 56.240234 264.25977 L 66.75 282.46094 L 81.419922 307.36914 C 94.499922 330.22247 107.58635 352.94573 120.67969 375.53906 C 120.99969 376.0924 121.35667 376.60365 121.75 377.07031 A 1.2 1.2 0 0 0 122.66992 377.5 L 193.44922 377.50977 A 0.15 0.15 0 0 0 193.58008 377.28906 L 149.5 303.21094 L 105.32031 228.58008 A 0.76 0.76 0 0 1 105.83984 227.43945 C 136.78984 221.98945 167.99 204.70906 176.75 172.53906 C 154.17 168.4324 131.6824 163.86341 109.28906 158.83008 C 108.74906 158.70341 108.23667 158.4976 107.75 158.21094 z M 149.15039 303.49023 C 149.45872 303.7869 149.67156 304.07477 149.78906 304.35352 C 149.67156 304.07477 149.45872 303.7869 149.15039 303.49023 z M 149.34961 305.91797 C 149.08544 306.16089 148.72453 306.39414 148.26953 306.61914 C 148.72453 306.39414 149.08544 306.16089 149.34961 305.91797 z "
       style="fill:#8b9ea9;fill-opacity:1" />
    <path
       id="path180"
       d="M 424.78906 200 L 424.78906 314.75 L 424.84961 377.08008 A 0.43 0.43 0 0 0 425.2793 377.50977 L 490.25 377.50977 A 0.44 0.45 0 0 0 490.68945 377.06055 L 490.7207 330.75 L 490.78906 233 L 490.71094 203.75 C 489.92427 203.93667 489.35333 204.02 489 204 C 467.58 202.94667 446.17573 201.61333 424.78906 200 z M 485.27344 338.04492 C 484.38969 338.11242 483.48063 338.20422 482.89062 338.19922 C 483.48062 338.20422 484.38969 338.11242 485.27344 338.04492 z M 434.48828 338.14648 C 435.37406 338.18945 436.22656 338.2282 437.03906 338.2207 C 436.22656 338.2282 435.37406 338.18945 434.48828 338.14648 z "
       style="fill:#8b9ea9;fill-opacity:1" />
    <path
       id="path182"
       d="M 1822 176.03906 L 1828.0391 191.75 L 1828.3105 191.84961 A 0.64 0.62 87.3 0 1 1828.6699 192.18945 L 1884.2109 317.75 L 1910.3203 377.01953 A 0.8 0.78 77.8 0 0 1911.0391 377.5 L 1973.0605 377.50977 A 0.5 0.5 0 0 0 1973.5605 376.9707 L 1973.2891 374 C 1972.9391 373.71 1972.3204 373.19906 1972.1504 372.78906 C 1965.3704 355.77573 1958.8076 338.68 1952.4609 321.5 L 1950.7891 317.25 L 1944.2891 299.75 L 1936.2891 279 C 1928.5491 257.43333 1920.0243 236.18333 1910.7109 215.25 L 1895.4609 181.5 C 1894.3076 181.69333 1892.5905 181.67279 1890.3105 181.43945 C 1871.1905 179.45945 1848.42 177.65906 1822 176.03906 z "
       style="fill:#8b9ea9;fill-opacity:1" />
    <path
       id="path184"
       d="M 1542.4102 167.73633 C 1525.3645 167.87086 1508.3291 168.3475 1491.2891 168.25 C 1488.6024 193.33667 1488.6826 219.58357 1491.5293 246.99023 C 1494.5993 276.57023 1502.37 306.24906 1518 330.78906 C 1542.5 371.27906 1585.75 389.04094 1632.25 379.71094 C 1630.23 376.60427 1627.5633 374.1876 1624.25 372.46094 C 1622.5033 371.43427 1620.9293 370.18737 1619.5293 368.7207 C 1611.4426 360.28737 1604.0167 351.30906 1597.25 341.78906 L 1594.25 337.71094 C 1593.64 337.80427 1592.6254 337.87635 1591.207 337.92969 C 1592.6254 337.87635 1593.64 337.80427 1594.25 337.71094 C 1585.43 324.1376 1578.2273 309.75078 1572.6406 294.55078 C 1567.7273 284.45078 1564.2428 274.03721 1562.1895 263.31055 C 1556.2695 232.43055 1556.5309 196.05 1559.4609 167.75 C 1553.7759 167.685 1548.092 167.69148 1542.4102 167.73633 z "
       style="fill:#8b9ea9;fill-opacity:1" />
    <path
       id="path186"
       d="M 668.96094 206.75 L 601.53906 207 L 601.53906 355.75 L 601.61914 376.31055 A 1.18 1.17 0 0 0 602.80078 377.48047 L 669.56055 377.49023 C 668.92721 367.49023 668.7276 357.49333 668.96094 347.5 L 669.28906 314.75 C 669.09906 314.25 669 314.39023 669 313.74023 C 668.98667 278.07357 668.97427 242.41 668.96094 206.75 z M 645.14844 348.34766 C 646.03922 348.38266 646.90547 348.40086 647.73047 348.38086 C 646.90547 348.40086 646.03922 348.38266 645.14844 348.34766 z M 621.11133 348.37695 C 623.7407 348.41695 626.36312 348.43961 628.98047 348.41211 C 626.36312 348.43961 623.7407 348.41695 621.11133 348.37695 z M 668.41016 348.84961 C 668.41682 349.09294 668.39008 349.22385 668.33008 349.24219 C 668.27008 349.26052 668.17745 349.1676 668.05078 348.96094 C 668.17745 349.1676 668.27008 349.26052 668.33008 349.24219 C 668.39008 349.22385 668.41682 349.09294 668.41016 348.84961 z "
       style="fill:#8b9ea9;fill-opacity:1" />
    <path
       d="m 1454.8398,170.42714 -70.2646,0.19674 -0.031,-134.616924 a 0.46898629,0.34626123 0 0 1 0.469,-0.346261 h 69.3475 a 0.51067396,0.3856091 0 0 1 0.5106,0.385609 z"
       id="path174-3"
       style="stroke-width:0.905625" />
    <path
       id="path186-6"
       d="m 1454.8407,169.22112 -70.2665,0.30683 v 182.56266 l 0.083,25.23421 a 1.2297863,1.435955 0 0 0 1.2316,1.43586 l 69.5765,0.0122 c -0.6601,-12.27312 -0.8681,-24.54243 -0.625,-36.80737 l 0.342,-40.19447 c -0.1981,-0.61395 -0.3013,-0.44184 -0.3013,-1.23959 -0.014,-43.77412 -0.027,-87.54445 -0.041,-131.31039 z m -24.8172,173.78451 c 0.9284,0.0429 1.8312,0.0653 2.6911,0.0407 -0.8599,0.0246 -1.7627,0.002 -2.6911,-0.0407 z m -25.0513,0.036 c 2.7404,0.0491 5.4734,0.077 8.2013,0.0432 -2.7279,0.0338 -5.4609,0.006 -8.2013,-0.0432 z m 49.2945,0.58011 c 0.01,0.29864 -0.021,0.45931 -0.083,0.48182 -0.062,0.0225 -0.1591,-0.0915 -0.2911,-0.34518 0.132,0.25364 0.2286,0.36767 0.2911,0.34518 0.062,-0.0225 0.091,-0.18318 0.083,-0.48182 z"
       style="fill:#8b9ea9;fill-opacity:1;stroke-width:1.13097" />
  </g>
  <g
     fill="#0098da"
     id="g198">
    <path
       d="   M 408.46 209.00   C 352.08 209.58 294.06 206.69 238.29 196.00   L 238.26 1.09   A 0.58 0.57 6.1 0 1 238.96 0.53   L 408.42 38.81   A 0.43 0.43 0.0 0 1 408.75 39.23   L 408.75 94.91   A 0.57 0.56 -84.9 0 1 408.09 95.47   L 312.06 79.46   A 0.49 0.48 -85.5 0 0 311.50 79.94   L 311.50 165.42   A 0.54 0.53 3.0 0 0 311.98 165.95   L 408.03 175.18   A 0.50 0.49 -87.5 0 1 408.48 175.68   L 408.46 209.00   Z"
       id="path190" />
    <path
       d="   M 932.74 195.83   Q 894.80 203.43 856.24 206.17   Q 809.58 209.49 762.79 209.00   L 762.79 175.70   A 0.53 0.53 0.0 0 1 763.28 175.17   L 859.06 165.96   A 0.78 0.77 -2.9 0 0 859.76 165.19   L 859.73 81.02   A 1.41 1.41 0.0 0 0 858.09 79.63   L 763.05 95.47   A 0.68 0.68 0.0 0 1 762.25 94.80   L 762.25 39.46   A 0.69 0.69 0.0 0 1 762.79 38.79   L 932.19 0.52   A 0.42 0.42 0.0 0 1 932.70 0.93   L 932.74 195.83   Z"
       id="path192" />
    <path
       id="path194"
       d="M 238.28906 196 L 238.28906 277.5 L 238.26953 427.28906 A 0.56 0.56 0 0 0 238.99023 427.83008 L 408.48047 377.78906 A 0.37 0.38 81.7 0 0 408.75 377.42969 L 408.75 319.30078 A 0.54 0.55 82.2 0 0 408.06055 318.7793 L 312.2207 344.42969 A 0.4 0.41 82.1 0 1 311.71094 344.05078 L 311.46094 312 C 311.39844 310.8025 311.4182 309.33195 311.46289 307.73633 C 311.50758 306.1407 311.57703 304.4207 311.61328 302.7207 C 311.64953 301.0207 311.65227 299.3407 311.56445 297.83008 C 311.54391 297.47674 311.49803 297.17096 311.4668 296.83789 L 311.4668 296.83008 L 311.49023 244.9707 A 0.68 0.69 87.2 0 1 312.10938 244.28906 L 407.80078 235.11914 A 0.75 0.76 87 0 0 408.48047 234.36914 L 408.46094 209 C 352.08094 209.58 294.05906 206.69 238.28906 196 z M 243.85938 288.18945 C 244.53271 288.20445 245.205 288.2906 245.875 288.44727 C 245.205 288.2906 244.53271 288.20445 243.85938 288.18945 z M 243.85938 288.18945 C 243.18604 288.17445 242.5126 288.23076 241.83594 288.35742 C 242.5126 288.23076 243.18604 288.17445 243.85938 288.18945 z M 303.58008 295.2207 C 305.03341 295.21404 306.47992 295.27682 307.91992 295.41016 C 306.47992 295.27682 305.03341 295.21404 303.58008 295.2207 z "
       style="fill:url(#linearGradient132321);fill-opacity:1;stroke:none" />
    <path
       id="path196"
       d="M 932.74023 195.83008 C 907.4469 200.89674 881.9469 204.34326 856.24023 206.16992 C 825.13357 208.38326 793.9824 209.32667 762.78906 209 L 762.57031 234.48047 A 0.62 0.62 0 0 0 763.14062 235.09961 L 858.75977 244.26953 A 0.8 0.81 82.3 0 1 859.42969 244.76953 C 859.56969 245.14286 859.60573 245.55333 859.53906 246 L 859.53906 301 C 859.7324 301.13333 859.87823 301.30281 859.97656 301.50781 C 860.0749 301.71281 860.12753 301.9538 860.13086 302.23047 C 860.12753 301.9538 860.0749 301.71281 859.97656 301.50781 C 859.87823 301.30281 859.7324 301.13333 859.53906 301 L 859.85938 342.43945 C 859.86604 343.93945 859.14589 344.49604 857.69922 344.10938 L 763.18945 318.82031 A 0.74 0.75 7.7 0 0 762.25 319.53906 L 762.25 377.5293 A 0.75 0.74 8.5 0 0 762.7793 378.24023 L 931.91992 428.11914 A 0.65 0.66 8.3 0 0 932.75977 427.49023 L 932.71094 303.75 L 932.71094 242.75 L 932.74023 195.83008 z M 930.69531 237.04688 C 930.54132 237.19851 930.30713 237.3422 930.00586 237.48047 C 930.30713 237.3422 930.54132 237.19851 930.69531 237.04688 z M 927.45898 238.23828 C 926.39008 238.46883 925.12746 238.68049 923.75586 238.875 C 925.12746 238.68049 926.39008 238.46883 927.45898 238.23828 z M 889 242.66992 C 888.2575 242.83992 887.51977 242.95141 886.7832 243.03125 C 887.51977 242.95141 888.2575 242.83992 889 242.66992 z M 860.25977 248.4707 C 860.2631 248.9107 860.24508 249.13143 860.20508 249.13477 C 860.16508 249.1381 860.10286 248.92357 860.01953 248.49023 C 860.10286 248.92357 860.16508 249.1381 860.20508 249.13477 C 860.24508 249.13143 860.2631 248.9107 860.25977 248.4707 z M 930.2207 294.82031 C 930.54737 294.83198 930.82469 294.88365 931.05469 294.97656 C 931.28469 295.06948 931.46628 295.20279 931.59961 295.37695 C 931.73294 295.55112 931.8188 295.76607 931.85547 296.02148 C 931.89214 296.2769 931.88031 296.57349 931.82031 296.91016 C 931.88031 296.57349 931.89214 296.2769 931.85547 296.02148 C 931.8188 295.76607 931.73294 295.55112 931.59961 295.37695 C 931.46628 295.20279 931.28469 295.06948 931.05469 294.97656 C 930.82469 294.88365 930.54737 294.83198 930.2207 294.82031 z M 927.51367 294.96484 C 926.64148 295.07875 925.78898 295.24258 924.92773 295.4082 C 925.78898 295.24258 926.64148 295.07875 927.51367 294.96484 z M 919.41016 296.05078 C 918.66766 296.04078 917.94586 296.10141 917.23242 296.19922 C 917.94586 296.10141 918.66766 296.04078 919.41016 296.05078 z M 910.66016 297.08008 C 909.95349 297.07008 909.24516 297.10612 908.53516 297.18945 C 907.82516 297.27279 907.11372 297.40341 906.40039 297.58008 C 907.11372 297.40341 907.82516 297.27279 908.53516 297.18945 C 909.24516 297.10612 909.95349 297.07008 910.66016 297.08008 z M 932.15039 297.44922 C 932.20539 297.46547 932.25258 297.56309 932.29492 297.72266 C 932.25258 297.56309 932.20539 297.46547 932.15039 297.44922 z M 899.77148 298.17578 C 899.02477 298.24656 898.2632 298.36055 897.4707 298.56055 C 898.2632 298.36055 899.02477 298.24656 899.77148 298.17578 z M 890.78516 299.17188 C 890.03297 299.24078 889.2657 299.35328 888.4707 299.55078 C 889.2657 299.35328 890.03297 299.24078 890.78516 299.17188 z M 874.33984 301.11914 C 873.62609 301.17211 872.90945 301.25492 872.18945 301.41992 C 872.90945 301.25492 873.62609 301.17211 874.33984 301.11914 z "
       style="fill:url(#linearGradient139220);fill-opacity:1" />
  </g>
  <g
     fill="#a9abae"
     id="g220">
    <path
       id="path200"
       d="M 1632.3809 33.429688 C 1627.0609 36.243021 1622.1062 39.415885 1617.5195 42.949219 C 1617.6762 47.474219 1617.7998 51.997865 1617.8906 56.519531 C 1617.9815 61.041198 1618.0395 65.561745 1618.0645 70.080078 C 1618.0894 74.59776 1618.0818 79.114557 1618.041 83.628906 C 1618.0818 79.11384 1618.0896 74.598499 1618.0645 70.080078 C 1618.0394 65.561657 1617.9815 61.041264 1617.8906 56.519531 C 1617.7997 51.997799 1617.6762 47.474219 1617.5195 42.949219 C 1610.9995 48.202552 1605.4933 54.290936 1601 61.210938 C 1589.12 78.737604 1579.8433 97.580238 1573.1699 117.74023 C 1580.0833 106.22023 1589.8538 99.205885 1602.4805 96.699219 C 1608.0138 96.052552 1613.127 96.209922 1617.8203 97.169922 C 1617.927 92.658906 1618.0002 88.145274 1618.041 83.630859 C 1618.0002 88.145859 1617.927 92.658255 1617.8203 97.169922 C 1623.0603 98.216589 1628.2425 100.32357 1633.3691 103.49023 C 1639.1491 108.5569 1643.6007 114.07745 1646.7207 120.05078 C 1653.5807 133.21078 1656.9801 147.37953 1658.8301 162.01953 C 1662.3767 190.0262 1662.6298 218.0169 1659.5898 245.99023 C 1656.7398 272.11023 1648.55 309.74906 1617.5 316.03906 C 1611.9267 317.04573 1606.1972 317.02404 1600.3105 315.9707 C 1588.2239 312.90404 1579.0006 305.76411 1572.6406 294.55078 C 1578.2273 309.75078 1585.43 324.1376 1594.25 337.71094 L 1597.25 341.78906 C 1604.0167 351.30906 1611.4426 360.28737 1619.5293 368.7207 C 1620.9293 370.18737 1622.5033 371.43427 1624.25 372.46094 C 1627.5633 374.1876 1630.23 376.60427 1632.25 379.71094 C 1700.82 365.29094 1726.0902 291.78 1729.2402 230.75 C 1731.3102 190.74 1728.1705 150.02937 1714.5605 112.35938 C 1701.1305 75.15937 1675.16 43.139064 1635 33.789062 L 1632.3809 33.429688 z M 1634.7598 34 A 0.26 0.26 0 0 0 1634.8398 34.439453 A 0.26 0.26 0 0 1 1634.7598 34 z M 1635.1699 34.779297 C 1634.8228 35.166067 1634.5321 35.568563 1634.3262 36.011719 C 1634.5321 35.569234 1634.8232 35.165616 1635.1699 34.779297 z M 1634.3184 36.025391 C 1634.1131 36.472044 1633.995 36.960928 1634 37.519531 C 1633.995 36.960218 1634.1126 36.472446 1634.3184 36.025391 z "
       style="fill-opacity:1.0;fill:url(#linearGradient6559)" />
    <path
       id="path204"
       d="M 1911.2793 35.5 A 0.52 0.52 0 0 0 1910.7598 36.019531 L 1910.7109 215.25 C 1920.0243 236.18333 1928.5491 257.43333 1936.2891 279 C 1937.2691 279.13 1938.1795 279.14312 1939.082 279.20312 C 1938.1795 279.14312 1937.2691 279.13 1936.2891 279 L 1944.2891 299.75 L 1950.7891 317.25 L 1952.4609 321.5 C 1958.8076 338.68 1965.3704 355.77573 1972.1504 372.78906 C 1972.3204 373.19906 1972.9391 373.71 1973.2891 374 L 1974.3691 328.06055 L 1974.7109 307.5 L 1974.9609 290 C 1976.7109 205.41 1975.7807 120.62977 1975.7207 36.009766 A 0.51 0.51 0 0 0 1975.2109 35.5 L 1911.2793 35.5 z M 1948.9668 282.29102 C 1950.1505 282.72789 1951.338 283.1557 1952.5371 283.56055 C 1953.7362 283.96539 1954.9472 284.34695 1956.1797 284.68945 C 1954.9472 284.34695 1953.7362 283.96539 1952.5371 283.56055 C 1951.338 283.1557 1950.1505 282.72789 1948.9668 282.29102 z M 1974.1699 289.82031 A 0.46 0.46 0 0 1 1974.1035 290.08008 A 0.46 0.46 0 0 0 1974.1699 289.82031 z M 1974.0762 290.12695 A 0.46 0.46 0 0 1 1973.8711 290.2832 A 0.46 0.46 0 0 0 1974.0762 290.12695 z M 1973.5508 290.28906 A 0.46 0.46 0 0 0 1973.8203 290.29688 A 0.46 0.46 0 0 1 1973.5508 290.28906 z M 1974.4902 290.46094 C 1974.4869 290.6576 1974.5046 290.75924 1974.543 290.76758 C 1974.5813 290.77591 1974.6407 290.68977 1974.7207 290.50977 C 1974.6407 290.68977 1974.5813 290.77591 1974.543 290.76758 C 1974.5046 290.75924 1974.4869 290.6576 1974.4902 290.46094 z "
       style="fill-opacity:1.0;fill:url(#linearGradient8241)" />
    <path
       id="path206"
       d="M 1358.1719 37.794922 C 1358.1535 37.791589 1358.1265 37.839453 1358.0898 37.939453 L 1357.9902 38.189453 A 0.47 0.46 9.7 0 1 1357.5508 38.490234 L 1356.8906 38.480469 A 1.22 1.23 23.2 0 0 1356 38.839844 C 1352.1933 42.759844 1348.5534 46.819531 1345.0801 51.019531 C 1341.1701 55.749531 1305.6207 96.379766 1305.7207 97.759766 A 0.31 0.31 0 0 0 1306.1504 98.019531 C 1306.6571 97.799531 1307.0233 97.947604 1307.25 98.460938 L 1321.5 98.460938 L 1358 98.490234 A 0.49 0.49 0 0 0 1358.4902 98 L 1358.4609 46.75 L 1358.2109 44 L 1358.1992 37.960938 C 1358.1992 37.854271 1358.1902 37.798255 1358.1719 37.794922 z "
       style="fill-opacity:1.0;fill:url(#linearGradient5460)" />
    <path
       id="path208"
       d="M 1185.5391 37.25 L 1185.5391 48.25 L 1185.5098 98 A 0.49 0.49 0 0 0 1186 98.490234 L 1222.25 98.460938 L 1235.75 98.460938 C 1235.5 96.330937 1234.2607 95.780234 1233.2207 94.490234 C 1212.2407 68.403568 1196.8457 49.480703 1187.0391 37.720703 C 1186.7857 37.414036 1186.2857 37.256667 1185.5391 37.25 z "
       style="fill-opacity:1.0;fill:url(#linearGradient4917)" />
    <path
       id="path210"
       d="M 1761.7891 36.5 L 1761.7793 76 L 1761.7891 91 L 1761.7891 105 L 1761.7695 376.99023 A 0.52 0.52 0 0 0 1762.2891 377.50977 L 1823.9805 377.5 A 0.43 0.43 0 0 0 1824.4102 377.08008 L 1827.8203 192.58984 C 1827.8203 192.43651 1827.8595 192.29349 1827.9395 192.16016 C 1828.0128 192.04016 1828.0457 191.90333 1828.0391 191.75 L 1822 176.03906 C 1821.1933 175.21906 1820.6162 174.2807 1820.2695 173.2207 L 1806.7598 141.23047 L 1794.2207 112.09961 C 1783.6807 86.946276 1773.0233 61.900937 1762.25 36.960938 C 1762.12 36.670938 1762.0091 36.67 1761.7891 36.5 z M 1764.8047 93.341797 C 1765.2218 93.753516 1765.6055 94.175273 1765.9668 94.603516 C 1765.6055 94.175273 1765.2218 93.753516 1764.8047 93.341797 z M 1764.2559 107.78906 C 1765.1234 108.66031 1765.9845 109.49437 1766.6895 110.35938 C 1765.9845 109.49438 1765.1234 108.66031 1764.2559 107.78906 z M 1784.5703 131.5 C 1785.5036 132.56667 1787.6199 135.20659 1790.9199 139.41992 C 1787.6199 135.20659 1785.5036 132.56667 1784.5703 131.5 z "
       style="fill-opacity:1.0;fill:url(#linearGradient7336)" />
    <path
       id="path212"
       d="M 490.76953 169.75977 L 490.71094 203.75 L 490.78906 233 L 499.25 232.71094 L 507.25 232.71094 L 564.64062 232.74023 A 0.62 0.63 0 0 0 565.25977 232.10938 L 565.24023 170.2793 A 0.49 0.49 0 0 0 564.75 169.78906 L 505.25 169.78906 L 497.25 169.78906 L 490.76953 169.75977 z M 505.06055 177.51758 C 505.03287 180.09453 505.03617 182.67352 505.05859 185.25195 C 505.03617 182.67352 505.03287 180.09453 505.06055 177.51758 z "
       style="fill-opacity:1.0;fill:url(#linearGradient3297)" />
    <path
       id="path214"
       d="M 1.2109375 168.88086 C 0.65760417 180.18753 0.51572917 191.39333 0.7890625 202.5 L 0.7890625 214.5 L 0.5390625 224.5 L 0 362.18945 L -0.009765625 377.23047 L 64.960938 377.53906 A 1.2 1.21 0.5 0 0 66.169922 376.33984 L 66.460938 285.25 L 66.75 282.46094 L 56.240234 264.25977 L 53 258.46094 L 1.2109375 168.88086 z M 32.166016 251.98828 C 35.369297 255.02062 38.605859 258.1018 41.880859 261.2793 C 38.605859 258.1018 35.369297 255.02062 32.166016 251.98828 z "
       style="fill-opacity:1.0;fill:url(#linearGradient2257)" />
    <path
       id="path216"
       d="M 1098 107.53906 C 1097 107.72906 1095.8205 108.01086 1094.9805 108.63086 C 1067.6905 129.01086 1050.9191 160.12 1040.0391 192 C 1036.4524 202.78 1033.5059 213.83659 1031.1992 225.16992 C 1027.5726 240.21659 1025.1857 255.57667 1024.0391 271.25 C 1022.3324 289.37667 1023.0072 307.62667 1026.0605 326 L 1026.8691 331.42969 C 1026.9158 331.74969 1026.886 332.06247 1026.7793 332.36914 L 1026.4609 333.25 C 1056.2743 367.79667 1094.3134 383.90674 1140.5801 381.58008 C 1151.6934 381.02674 1162.5174 378.46706 1173.0508 373.90039 A 0.74 0.74 0 0 0 1173.5 373.2207 L 1173.5 305.83008 A 0.43 0.43 0 0 0 1172.8906 305.43945 C 1131.0106 324.39945 1091.32 309.08094 1071.75 267.96094 C 1065.2167 253.85427 1061.3709 239.03333 1060.2109 223.5 C 1059.1643 212.34667 1059.0224 201.18 1059.7891 190 C 1062.5491 158.89 1072.31 127.46906 1098 107.53906 z M 1052.1406 197.35938 C 1052.0556 197.67562 1051.9189 198.01584 1051.7441 198.37305 C 1051.9189 198.01584 1052.0556 197.67562 1052.1406 197.35938 z M 1032.1992 260.9707 C 1031.6492 261.6907 1031.1228 262.46258 1030.5938 263.25977 C 1031.1228 262.46258 1031.6492 261.6907 1032.1992 260.9707 z M 1069.7207 266.39062 A 0.61 0.6 65.8 0 1 1070.4707 266.67969 A 0.61 0.6 65.8 0 0 1069.7207 266.39062 z "
       style="fill-opacity:1.0;fill:url(#linearGradient4144)" />
    <path
       id="path218"
       d="M 669.28906 314.75 L 668.96094 347.5 C 668.7276 357.49333 668.92721 367.49023 669.56055 377.49023 L 673 377.46094 L 684.25 377.71094 L 693.25 377.53906 L 744.73047 377.67969 A 0.6 0.6 0 0 0 745.32031 377.18945 C 745.71365 375.06279 745.85667 372.92286 745.75 370.76953 C 744.86 352.42953 745.52094 333.6993 745.46094 315.2793 A 0.5 0.5 0 0 0 744.96094 314.7793 L 685 314.78906 L 682.16992 314.78906 L 673.53906 314.78906 L 669.28906 314.75 z M 684.78906 314.98047 A 0.73 0.7 69.7 0 0 684.53906 315.55078 A 0.73 0.7 69.7 0 1 684.78906 314.98047 z "
       style="fill-opacity:1.0;fill:url(#linearGradient3543)" />
  </g>
  <g
     fill="#086f9d"
     id="g230">
    <path
       d="   M 960.25 187.21   L 938.72 195.27   L 938.79 1.15   A 0.42 0.41 8.8 0 1 939.33 0.76   L 959.72 7.13   A 0.74 0.72 8.8 0 1 960.24 7.82   L 960.25 187.21   Z"
       id="path222" />
    <path
       d="   M 232.71 195.75   L 211.91 187.41   A 0.53 0.52 -63.7 0 0 211.27 187.63   L 211.04 188.00   L 211.01 8.30   A 1.29 1.29 0.0 0 1 211.92 7.07   L 232.14 0.75   A 0.45 0.44 81.1 0 1 232.72 1.18   L 232.71 195.75   Z"
       id="path224" />
    <path
       id="path226"
       d="M 211.55273 187.40234 A 0.52 0.53 26.3 0 0 211.26953 187.63086 L 211.03906 188 L 211.0293 297.25977 L 211.01953 425.53906 A 1.29 1.29 0 0 0 212.46094 426.82031 C 216.54094 426.32031 220.76 427.42055 224.5 427.56055 C 227.07333 427.66055 229.58573 427.98263 232.03906 428.5293 A 0.58 0.57 6.1 0 0 232.74023 427.9707 L 232.71094 285.5 L 232.71094 195.75 L 211.91016 187.41016 A 0.52 0.53 26.3 0 0 211.55273 187.40234 z M 211.56836 287.76562 C 211.60669 287.75896 211.67286 287.9262 211.76953 288.26953 C 211.67286 287.9262 211.60669 287.75896 211.56836 287.76562 z M 211.56836 287.76562 C 211.53003 287.77229 211.51906 287.95388 211.53906 288.31055 C 211.51906 287.95388 211.53003 287.77229 211.56836 287.76562 z M 215.31055 288.78125 C 216.80664 289.14156 218.76203 289.68211 220.75391 290.25586 C 224.73766 291.40336 228.8693 292.6907 229.7793 292.9707 C 228.8693 292.6907 224.73766 291.40336 220.75391 290.25586 C 218.76203 289.68211 216.80664 289.14156 215.31055 288.78125 z M 230.91211 289.39062 C 230.96378 289.38729 231.02628 289.50977 231.09961 289.75977 C 231.02628 289.50977 230.96378 289.38729 230.91211 289.39062 z M 230.91211 289.39062 C 230.86044 289.39396 230.81906 289.52263 230.78906 289.7793 C 230.81906 289.52263 230.86044 289.39396 230.91211 289.39062 z "
       style="fill:#0384bc;fill-opacity:1" />
    <path
       id="path228"
       d="M 960.25 187.21094 L 938.7207 195.26953 C 938.32737 233.16286 938.34906 271.07333 938.78906 309 L 938.41992 427.99023 A 0.33 0.33 0 0 0 938.7793 428.32031 L 959.14062 426.5293 A 1.57 1.56 87.4 0 0 960.57031 424.96094 L 960.21094 320.5 L 960.25 187.21094 z M 944.21094 311.41211 C 943.46367 311.54297 942.78291 311.62979 942.19922 311.65625 C 942.78291 311.62979 943.46367 311.54297 944.21094 311.41211 z "
       style="fill:#0384bc;fill-opacity:1" />
  </g>
  <g
     fill="#58beeb"
     id="g238" />
  <g
     fill="#606062"
     id="g250" />
  <g
     fill="#8b9ea9"
     id="g266">
    <path
       d="   M 1040.04 192.00   Q 1034.66 208.17 1031.20 225.17   Q 1025.76 247.74 1024.04 271.25   Q 1021.48 298.44 1026.06 326.00   L 1026.87 331.43   Q 1026.94 331.91 1026.78 332.37   L 1026.46 333.25   C 994.23 294.80 983.66 244.47 986.79 195.25   L 1040.04 192.00   Z"
       id="path260" />
  </g>
  <g
     fill="#939497"
     id="g288" />
  <g
     fill="#7e7e81"
     id="g306" />
  <g
     fill="#0384bc"
     id="g312" />
</svg>
