<svg height="226.027" viewBox="0 0 842.249 169.52" width="1122.998" xmlns="http://www.w3.org/2000/svg">
    <text fill="#ef00eb" font-family="TrasksHand" font-size="1.5" stroke="#0105ff" stroke-width="1.875" transform="rotate(-46.248 -72.302 -7.121)" x="351.338" y="531.017"><tspan fill="#fafafa" fill-opacity=".4" stroke="none" x="351.338" y="531.017">John Loreth 2022</tspan></text>
    <path d="M69.468 0C63.82 0 59.518 3.45 56.575 7.3l-.007.011c-2.667 3.5-6.202 8.29-8.761 11.276a18.467 18.467 0 0 0-3.447 6.267c-1.813-.997-3.825-1.592-5.905-1.592-5.861 0-10.223 2.174-13.375 3.657a7.86 7.86 0 0 0-.046.023c-2.212 1.058-4.318 1.985-6.514 4.537-2.195 2.552-3.049 8.032-1.697 11.186l-.195-.502c.36 1.028.337 1.126-.553 3.416a6.263 6.263 0 0 0-.018.048C8.77 64.738 3.55 78.976.493 95.104l-.011.057c-.405 2.23-.777 4.923-.136 8.13l.035.164c.834 3.757 2.926 6.224 4.992 7.995.068.058.137.115.207.17 3.619 2.896 6.863 3.669 10.585 3.669 6.026 0 11.417-1.842 15.83-4.329 4.344-2.269 9.107-5.926 15.88-12.238-.58 3.14-1.005 6.44.533 10.217 1.642 4.034 5.334 6.615 8.787 8.068 3.224 1.46 6.96 1.512 7.588 1.512 4.469 0 6.982-2.254 8.975-4.248.197-.197.384-.405.559-.622 1.449-1.794 4.883-5.179 8.701-8.686.67 2.105 1.68 4.08 3.047 5.84 2.7 3.476 7.149 6.132 12.13 6.132 7.947 0 15.01-3.493 21.447-7.812.707-.474 1.31-1.067 2.002-1.565 1.173 2.143 2.751 3.966 4.472 5.304 3.511 2.73 7.54 4.073 11.796 4.073 2.889 0 6.115-.534 9.513-1.723 7.815-2.552 13.584-5.714 17.923-8.703l-.103-.216c.021.047.057.08.078.126.014.028.017.059.031.086l.015-.011c3.227 6.935 9.487 10.927 15.015 10.927 3.993 0 8.157-.97 12.814-2.832 3.827-1.52 7.511-3.87 11.088-6.639.133.272.223.584.367.846 2.315 4.203 5.63 7.49 11.231 7.49 4.247 0 8.636-2.716 12.187-6.66 1.363-1.508 4.306-5.266 6.791-8.38.058 1.299-.02 2.63.23 3.883.453 2.283 1.213 4.588 3.01 6.813 1.797 2.225 5.198 4.183 8.583 4.183 5.653 0 9.612-3.129 13.38-6.71l.014-.012c2.013-1.922 5.472-5.81 8.921-9.666.552 3.207 1.546 6.16 3.188 8.787 3.513 5.62 10.122 8.736 16.32 8.736 6.818 0 13.486-3.199 20.115-8.717 3.226 5.12 8.375 8.717 14.9 8.717 10.686 0 20.264-4.312 28.119-10.743l.019.208c1.055 5.802 5.156 8.394 8.512 10.024 3.355 1.63 6.79 2.455 10.44 2.455 3.217 0 6.154-.847 9.093-2.022l.057-.023c4.598-1.881 9.82-4.28 14.184-8.304 2.116-1.942 3.36-3.94 4.476-6.171 1.117-2.234 2.13-4.41 2.13-7.908 0-7.25-3.586-13.122-7.869-18.522l.163.212a26.997 26.997 0 0 1-2.543-4.221c.44-.255.55-.401 1.207-.674 2.877-1.193 7.44-2.132 11.362-2.132 2.617 0 5.563-.526 8.343-2.598 2.78-2.073 4.736-6.058 4.736-9.674 0-3.7-2.421-8.93-6.156-11.516-3.32-2.299-7.98-3.67-13.084-3.67-8.026 0-16.824 2.887-23.894 9.005-2.061 1.647-4.118 3.669-6.041 5.902-1.44-2.514-3.364-4.8-5.927-6.64a13.161 13.161 0 0 0-1.996-4.99c-2.339-3.563-7.34-5.873-12.151-5.873-4.613 0-9.573 2.089-13.038 5.554-.136.136-.111.153-.176.237-3.792.305-7.113 2.35-8.903 4.14a7.894 7.894 0 0 0-.36.384c-1.413 1.615-3.71 5.059-4.031 8.92a8.353 8.353 0 0 0-.016.218c-.038.682.122.133-1.083 1.737-1.663 2.089-3.427 4.935-5.303 8.097-7.078 8.915-12.444 14.717-16.134 17.954-.047.041-.057.033-.103.073 1.214-7.43 3.279-12.338 4.42-14.508.027-.048.052-.096.077-.145.832-1.664.97-1.594 2.29-2.725l.108-.094c1.837-1.633 4.918-5.975 4.918-10.114 0-4.533-1.964-7.935-4.524-10.607-2.56-2.672-6.102-4.905-10.826-4.905-6.328 0-9.422 3.234-12.714 6.526-.969.968-3.73 3.977-5.668 6.058-.208-2.984-1.069-5.713-2.55-7.867-2.865-4.169-6.109-6.177-11.003-6.177-5.774 0-8.581 2.53-12.08 5.619-2.439 2.01-5.064 4.56-8.716 8.26-.146-1.731-.491-3.404-1.165-4.785-1.694-3.473-4.081-5.507-6.14-7.173l-.035-.028c-2.674-2.139-6.257-3.514-9.471-3.514-4.7 0-7.393 2.611-9.153 4.606-1.76 1.995-2.962 4.066-4.038 6.145-1.706 3.297-2.854 6.345-3.67 8.661.666-2.716.479-5.457-.23-7.708a15.323 15.323 0 0 0-2.138-4.308 11.5 11.5 0 0 0 3.571-.55c2.077-.663 4.37-2.409 5.561-4.479 1.191-2.07 1.455-4.088 1.455-5.82 0-3.888-.004-7.221.853-12.082l-.032.176c.997-4.985-1.955-10.437-5.372-12.758-3.417-2.322-7.017-3.007-10.638-3.007-3.1 0-7.253 1.098-9.986 4.117-2.732 3.018-3.504 6.612-3.727 10.077a9.249 9.249 0 0 0-.008.166c-.2 4.57.432 8.152 1.079 10.524l.01.036c.87 3.13 2.572 5.823 4.847 8.026-3.95.474-6.196 2.32-8.502 4.128-.51.399-.978.878-1.474 1.307-.459-.043-.944-.125-1.366-.125-2.945 0-8.407.252-13.428.465.63-1.301 1.118-2.484 1.866-3.842l-.113.199c2.971-5.052 2.345-13.15-2.195-17.69-1.994-1.994-6.272-4.095-9.473-4.095-3.847 0-6.157 1.204-8.703 2.763-2.543 1.557-5.112 3.581-6.853 7.247l-.002.008c-1.289 2.707-2.738 6.739-4.304 10.95-.784 2.106-1.537 4.145-2.132 5.723-.26.691-.204.564-.417 1.083-2.314.485-4.7 1.004-5.797 1.187-.119.02-.237.042-.355.067-1.21.26-2.418.8-3.589 1.428 2.939-7.126 6.184-14.519 10.147-22.176l.015-.029c1.8-3.514 3.673-6.748 3.58-11.593-.089-4.69-2.992-8.885-6.317-11.815-2.302-2.207-5.758-3.324-8.343-3.324-3.931 0-7.828 2.276-10.324 5.328a8.034 8.034 0 0 0-.087.107c-2.287 2.897-4.098 6.483-7.155 13.015-3.056 6.532-6.992 15.684-11.975 28.182-4.96 12.398-7.97 21.429-10.018 28.665-.187.02-.398.006-.582.029a7.707 7.707 0 0 0-.203.027c-1.282.194-2.165.555-3.295.823C83.926 69.08 88.64 57.22 92.9 50.616l-.278.404c3.332-4.522 4.8-9.962 2.635-14.833a7.885 7.885 0 0 0-.23-.47c-1.203-2.287-2.808-4.603-5.095-6.765-2.002-1.892-4.754-3.87-8.63-4.358 1.46-1.272 2.991-2.792 4.1-5.631 1.47-3.766.276-8.898-1.946-11.97C80.167 2.41 75.019 0 69.467 0zm663.085 1.516c-2.071 0-5.015.98-6.876 2.583-1.852 1.597-2.9 3.375-3.821 5.33-2.134 4.448-8.314 19.361-14.309 34.088-.04 0-.079-.015-.12-.015-11.117 0-22.414 5.112-32.247 15.856l-.002.002c-3.963 4.333-6.9 8.576-9.34 12.571-3.778 4.729-7.437 8.627-10.509 11.505.687-6.998 2.886-14.48 6.15-21.886.1-.226.187-.456.265-.69.16-.478 1.456-3.676.323-7.378-1.098-3.589-3.806-5.965-6.868-7.766-1.797-1.144-4.544-2.002-7.163-1.673-1.79-1.499-4.323-2.81-8.045-2.81-3.698 0-12.571 1.397-22.859 10.375a8.376 8.376 0 0 0-.107.094 101.23 101.23 0 0 0-9.73 10.161c.158-.937.388-1.84.388-2.849 0-3.696-1.076-7.695-4.201-11.474-3.125-3.78-8.665-6.633-15.04-6.633-6.437 0-12.724 2.181-18.67 5.578a9.165 9.165 0 0 0-.085.05c-5.873 3.454-15.769 9.878-24.147 20.805-.753.983-.929 1.337-1.09 1.614-4.073 4.301-8.595 8.587-12.61 11.899 1.33-4.73 2.962-9.643 4.689-13.18 0-.002 0-.006.002-.008 1.527-3.05 2.47-4.754 3.32-6.657 2.37-5.156.87-10.654-1.736-14.182-2.61-3.533-6.47-6.243-11.76-6.243-2.727 0-5.705 1.151-7.813 2.773-2.108 1.622-3.66 3.565-5.238 5.93a1105.206 1105.206 0 0 0-4.354 6.85c-.44-4.896-3.117-7.399-5.727-9.487-2.842-2.274-6.251-4.122-10.91-4.122-5.457 0-9.588 3.265-12.241 7.246-.13.194-.25.394-.362.599-.571 1.047-1.773 3.528-2.746 5.45.837-2.846 1.518-5.118 2.15-6.729.03-.076.06-.154.087-.231.401-1.124 1.917-3.486 1.803-3.353l-.412.444c1.099-1.098 2.469-2.72 3.36-5.186.887-2.451 1.015-5.812-.082-8.782-1.506-4.175-4.335-6.24-7.09-7.752-2.776-1.524-5.77-2.454-9.228-2.454-4.887 0-8.926 3.087-10.222 4.222-.133.116-.26.236-.385.36-.297.297-.34.41-.408.538-.088-.007-.065-.049-.24-.025-.11.015-.22.032-.33.051-2.633.465-5.266.692-8.52 2.29-1.357.619-2.938 1.506-4.464 3.2-1.598 1.775-2.94 4.686-2.94 7.632 0 4.628 2.56 7.858 5.074 9.907.578.472 1.24.758 1.856 1.147-7.049 25.34-10.892 38.323-16.017 52.38-2.209 6.036-4.099 9.658-6.097 12.085-.644.53-1.178.856-1.535 1.028-3.379-1.875-6.344-3.39-12.184-3.39-3.547 0-6.238 1.095-8.798 2.883-2.559 1.788-5.58 4.798-5.58 9.876 0 3.496 1.12 5.868 2.469 8.08 1.348 2.212 2.908 4.232 5.896 5.84.026.015.053.029.08.042 4.21 2.205 8.79 4.144 14.362 4.144 4.136 0 6.716-1.21 8.654-1.763l-.092.027c2.918-.796 5.414-1.979 7.241-2.681.237-.091.47-.193.697-.307 1.618-.809 8.438-4.194 14.517-11.049 5.413-6.028 9.351-14.883 13.013-25.9.58 2.333 1.424 4.542 2.725 6.484 2.19 3.267 5.652 6.66 11.239 6.66 3.835 0 8.27-1.268 12.584-3.939a8.49 8.49 0 0 0 .069-.042c3.837-2.43 7.478-5.252 10.9-8.06a19.55 19.55 0 0 0 1.206 3.86c2.073 4.75 7.45 8.667 12.848 8.667 4.873 0 9.534-1.494 14.992-4.218 1.742-.848 3.836-2.167 5.978-3.584.156.25.22.538.387.784 2.224 3.267 5.988 6.692 11.55 6.692 7.419 0 12.985-3.106 17.046-5.613-2.305 8.662-5.098 16.882-9.875 23.64a.266.266 0 0 0-.011.015c-6.43 9.144-10.587 9.94-12.022 9.94.3 0-.92-.323-2.903-1.881l.222.181c-2.871-2.43-6.269-5.432-12.558-5.432-5.209 0-8.07 2.06-11.1 4.508-3.032 2.449-6.519 5.593-6.519 11.813 0 6.574 4.637 10.219 8.162 12.185 3.526 1.965 6.831 3.004 10.755 3.004 1.934 0 1.503.005 3.08.478.065.02.128.038.192.056 3.463.944 6.402.926 9.048.926 4.537 0 8.21-1.34 12.741-3.213 4.517-1.867 9.297-4.399 13.492-7.687 9.354-7.218 19.441-20.583 24.696-41.4l.002-.004c.411-1.61 1.273-5.235 1.919-7.822.66.808 1.35 1.547 2.046 2.165a19.597 19.597 0 0 0 4.581 3.062c1.542.739 2.738 1.404 5.527 1.404 5.638 0 10.801-2.503 15.822-6.211 1.961-1.405 4.235-3.4 6.45-5.303 3.038 6.49 9.05 11.514 16.795 11.514 5.67 0 10.55-2.13 15.09-5.182.123.157.202.343.332.496 2.973 3.498 7.423 5.01 11 5.01 6.673 0 13.532-2.82 21.625-8.336l.006-.004c1.526-1.038 3.424-2.703 5.22-4.166.457 1.234 1.006 2.457 1.74 3.653 2.562 4.177 7.862 7.88 13.881 7.88 7.403 0 13.708-3.215 19.324-7.472 3.24 4.971 8.313 8.445 14.719 8.445 11.214 0 21.185-4.766 29.246-11.733.005.401.041.802.107 1.198 1.055 5.801 5.155 8.392 8.51 10.024s6.792 2.457 10.443 2.457c3.222 0 6.157-.85 9.092-2.025l.057-.023c4.595-1.88 9.819-4.275 14.186-8.301 2.118-1.943 3.361-3.943 4.476-6.174 1.117-2.234 2.13-4.41 2.13-7.907 0-7.251-3.587-13.122-7.869-18.52l.163.212a26.983 26.983 0 0 1-2.543-4.222c.44-.254.55-.403 1.207-.675 2.876-1.194 7.438-2.132 11.36-2.132 2.616 0 5.56-.524 8.342-2.595 2.781-2.07 4.74-6.057 4.74-9.675 0-3.7-2.422-8.931-6.157-11.517-3.32-2.298-7.98-3.672-13.085-3.672-8.027 0-16.825 2.888-23.894 9.006a44.097 44.097 0 0 0-6.777 6.79c-1.48-2.862-3.545-5.474-6.407-7.53a13.156 13.156 0 0 0-1.995-4.988c-2.34-3.564-7.342-5.871-12.152-5.871-4.613 0-9.573 2.088-13.038 5.553-.136.136-.111.153-.176.238-3.79.304-7.11 2.347-8.903 4.139a7.894 7.894 0 0 0-.36.384c-1.41 1.613-3.71 5.057-4.031 8.918a8.356 8.356 0 0 0-.016.218c-.038.69.143.097-1.106 1.767-2.015 2.536-4.21 6.109-6.462 10.142-1.64 2.195-5.902 7.231-10.03 11.36-.113.112-.195.166-.308.277 1.392-8.041 4.215-19.832 7.588-29.143l.004-.012.006-.015c5.205-14.19 8.997-21.206 11.549-27.404l.03-.074c.986-2.465 1.878-5.078 1.686-8.34-.192-3.262-1.808-6.385-3.57-8.525a6.9 6.9 0 0 0-.056-.067c-1.687-2.003-3.42-3.646-5.632-4.823-2.21-1.177-4.793-1.554-6.403-1.554zM65.878 35.026c-.73 1.478-2.213 4.744-2.433 5.552-.424.91-4.2 7.337-11.292 15.663a8.207 8.207 0 0 0-.086.103c-8.108 9.853-12.5 14.836-15.89 18.496 3.138-8.83 8.235-20.873 12.587-29.694l-.052.103a20.386 20.386 0 0 0 2.12-7.02c.034.01.074.035.108.045 2.793.808 4.882.644 7.197.013.11-.03.22-.063.33-.098 2.083-.666 4.63-1.758 7.41-3.163zm646.32 8.94c1.71.374 2.31.348-.307.075.073-.001.241-.076.306-.074zm-509.981.783c.04.032.078.071.057.06-.022-.018-.035-.042-.057-.06zm440.742 1.418c-.334.254-.761.507-1.033.745l.819-.626c.034-.023.168-.086.214-.119zm-443.096.576.02.006.01.006zm252.585 6.696c.261.064.497.179.763.232-.26-.052-.35-.043-.763-.232zm-331.784 3.833c-.039.044-.048.095-.086.138-.03.036-.096.074-.124.11zm86.243 4.628-.026.08c-.833 2.705-.737 6.148.7 8.86-.16.58-.335 1.235-.494 1.805a173.497 173.497 0 0 1-9.078 8.535c2.552-6.565 5.21-12.506 8.35-17.973a7.91 7.91 0 0 0 .137-.255c.18-.344.265-.702.411-1.052zm1.579 5.645-.084.293c.039-.347.122-.42.084-.293zm-89.347 3.636c1.617 2.173.338.906 2.048 2.426.364.304 1.318.848 2.068 1.334-2.73 2.808-5.37 5.285-7.825 7.297 1.041-3.293 2.277-6.94 3.709-11.057zm49.968.907c.131 1.12.328 2.093.597 2.918-.742 1.739-1.49 3.932-2.22 6.159-2.523.013-4.483.984-6.001 1.974l.128-.082c-2.058 1.286-5.49 2.781-8.514 3.948.887-3.41 2.652-8.768 4.306-12.91a204.556 204.556 0 0 0 11.704-2.007zm-13.457 2.283c-.089.046.31-.015 0 0zm14.278.017c-.017.037-.032.1-.048.136v-.015z" fill="#333"/>
    <g fill="#f4c401">
        <g stroke-width="2.468">
            <path d="M79.645 32.285c-1.777 0-4.2 1.13-5.654 3.877-.97 2.1-2.261 4.684-3.392 7.753-1.13 2.423-5.007 8.723-12.438 17.445-12.76 15.507-17.768 20.837-21.644 24.552-4.2 3.716-7.108 5.008-9.53 5.008-1.454 0-3.07-1.939-.808-10.661 2.423-9.369 9.53-26.49 15.507-38.605 3.553-6.946-.162-10.5-3.231-10.5-3.23 0-7.269 1.616-10.015 2.908-3.715 1.777-5.33 3.23-4.361 5.492 1.13 3.23.485 5.977-.646 8.884-7.269 19.06-12.276 32.79-15.184 48.135-.323 1.777-.484 3.554-.161 5.17.323 1.453 1.292 2.745 2.423 3.714 1.615 1.293 4.038 1.939 5.653 1.939 4.361 0 8.723-1.454 12.115-3.392 4.038-2.1 8.238-5.17 16.152-12.761 7.27-7.107 15.83-17.768 16.638-18.737.807-.97 1.615-1.131 1.13.484-3.553 11.63-5.491 21.322-6.46 26.33-1.131 5.814-.485 8.399 4.684 10.499 2.1.969 3.069.807 4.361.807.97 0 2.1-.646 3.392-1.938 3.392-4.2 11.63-12.115 18.576-17.284 2.746-2.1 3.069-4.522-.808-4.038-5.33.808-8.722 2.423-12.276 3.877-1.454.646-1.777.161-1.615-2.1 1.292-15.184 7.753-32.79 14.214-42.805 2.262-3.069 2.423-5.492 1.777-6.946-1.615-3.069-5.007-7.107-8.4-7.107zm-28.106-3.392c0 1.938 2.746 2.262 4.522 1.777C60.1 29.378 66.722 26.309 74.8 19.848c3.069-2.585 4.846-4.685 2.261-8.238-1.615-2.262-4.523-3.715-7.592-3.715-2.261 0-4.522 1.453-6.622 4.2-2.585 3.391-6.138 8.237-9.046 11.63-1.615 1.938-2.261 3.553-2.261 5.168z"/>
            <g stroke-width="4.627">
                <path d="M89.929 98.505c0 5.835 3.566 10.536 8.267 10.536 14.914 0 35.015-20.587 39.716-30.151 1.297-2.594 1.783-5.025 1.135-6.322-.649-1.135-1.946-1.297-3.405.486-10.698 12.969-23.018 22.533-28.044 22.533-2.593 0-3.89-2.27-1.297-10.7 3.729-12.157 10.861-34.365 22.857-57.546 3.404-6.647 4.215-9.564-1.135-14.103-.81-.81-1.783-1.135-2.917-1.135-1.297 0-2.756.648-4.215 2.432-2.432 3.08-8.105 14.427-17.994 39.229-11.023 27.558-12.968 40.04-12.968 44.74z"/>
                <path d="M148.61 96.397c-4.214 0-4.862-3.08-4.052-7.943.649-4.7 4.053-14.265 6.322-19.452.81-1.621 1.46-2.108 3.567-2.432 14.427-1.945 23.991-4.539 26.747-5.998 2.27-1.297 4.215-5.025.324-5.025-4.377 0-16.048.648-23.343.81-.973 0-2.431.163-1.945-1.134.648-1.46 3.242-8.268 6.808-14.752 1.621-2.756 1.46-5.673-.972-8.105-1.297-1.297-2.27-1.783-3.89-1.783-2.432 0-6.971 2.431-8.43 5.511-1.621 3.405-6.647 17.67-7.457 19.29-.649 1.784-1.621 2.108-3.08 2.432-3.242.649-5.998 1.297-7.943 1.621-2.27.487-3.242 1.297-4.701 3.08-1.297 1.46-1.46 3.89-.324 5.026.972.81 2.269 1.783 4.052 1.62 2.107-.324 4.377-.486 5.674-.648 1.62-.162 1.62.487 1.135 1.621-.811 2.27-6.16 17.994-7.781 22.533-1.297 3.404-1.784 5.35-1.784 7.295 0 5.673 5.674 9.077 10.375 9.077 2.107 0 4.215-.324 6.97-1.296 12.969-4.215 19.615-10.05 22.533-13.13 2.756-2.919 2.107-7.296-1.621-4.864-3.89 2.432-11.672 6.646-17.183 6.646z"/>
                <path d="M200.647 17.29c-3.567 0-5.512 1.783-5.836 6.809-.162 3.728.324 6.322.81 8.105.81 2.918 3.405 5.836 6.97 7.132 3.08 1.135 5.35.973 5.35-2.269 0-3.89 0-7.943.973-13.455.81-4.052-3.566-6.322-8.267-6.322zm-20.263 92.238c2.755 0 5.835-.649 9.888-2.27 9.402-3.728 24.478-18.318 30.8-28.53 2.107-3.404 2.593-5.998 1.783-7.457-.648-1.135-2.27-1.297-4.215.81-9.078 10.213-25.126 24.803-30.313 24.803-3.08 0-3.405-2.27-1.783-7.295 3.89-12.482 7.943-21.56 12.968-30.314 1.62-3.08 0-6.646-2.107-8.267a4.402 4.402 0 0 0-2.756-.973c-4.701 0-14.914 10.861-17.508 17.508-.972 2.431-.648 3.89 0 5.35.811 1.458.811 2.43 0 4.7-1.296 2.918-4.052 11.834-5.025 15.724-1.134 3.89-1.134 6.809.324 9.727 2.27 5.025 5.512 6.484 7.944 6.484z"/>
                <path d="M262.084 50.035c-1.62 0-4.214 1.297-6.97 3.729-2.756 2.27-4.701 4.052-9.726 9.24-5.998 6.16-10.537 11.51-17.346 19.128-2.431 2.756-3.404 1.621-1.945-2.918 2.107-6.97 4.863-14.59 6.808-18.804 2.108-4.377-.486-7.457-3.89-10.213-1.621-1.296-3.08-1.783-4.539-1.783-4.377 0-8.754 11.996-10.05 15.887-.649 2.107.486 3.08 1.134 3.08.81 0 .973.81.487 2.431-2.918 11.023-5.35 18.642-5.998 23.505-1.297 11.023 3.404 15.076 5.836 15.076 1.62 0 3.404-.81 6.322-4.053 3.08-3.404 19.128-23.991 21.56-26.747 1.783-2.107 3.566-3.08 4.214-2.756.81.487.487 1.946-.162 3.567-1.62 4.7-3.08 9.564-4.215 14.103-2.27 8.591-.81 15.724 3.08 15.724 2.27 0 4.701-1.46 7.943-4.539 3.567-3.404 17.67-19.453 21.56-23.992 1.784-2.107 2.594-1.945 1.946.325-.487 1.783-1.135 5.835-1.46 8.591-1.62 14.265 3.567 20.75 11.834 20.75 7.943 0 21.398-8.592 33.07-29.017 2.431-4.215 2.918-6.97 2.107-8.105-.648-.973-1.945-.81-3.404.972-14.752 18.642-22.533 24.64-27.072 24.64-3.89 0-4.7-4.377-3.728-10.86 1.297-9.24 3.89-15.4 5.511-18.48 1.46-2.919 3.08-4.215 4.215-5.188 1.46-1.297 2.27-2.27 2.27-4.215 0-3.566-3.729-7.619-7.457-7.619-1.945 0-4.54 1.621-7.133 4.215-3.08 3.08-19.776 21.398-24.802 26.423-.972.81-1.783 1.459-2.593 1.135-.649-.324-.325-1.621.648-4.053 1.783-4.7 5.674-13.617 6.808-16.859 3.243-9.078-2.593-12.32-4.863-12.32z"/>
                <path d="M312.823 95.749c0 7.619 4.863 13.617 10.699 13.617 11.671 0 22.208-6.485 29.99-15.725 6.646-7.456 9.077-15.237 9.077-21.722 0-6.322-2.27-13.454-8.105-16.372-1.135-.486-1.297-.973-1.297-1.945 0-2.27-.324-6.322-6.484-6.322-2.756 0-5.187.972-7.457 3.242-1.621 1.62-2.756 2.431-4.863 2.431-1.783 0-3.08.81-4.215 1.946-1.135 1.296-1.945 2.431-2.107 4.376-.162 2.918-1.46 4.377-2.756 6.16-1.945 2.432-6.16 8.754-8.591 14.265-2.918 7.133-3.891 11.672-3.891 16.049zm15.238-2.756c0-6.808 6.484-19.939 13.779-28.53.972-1.297 2.593-2.756 3.728-2.756 2.918 0 4.053 4.539 4.053 8.591 0 5.674-5.512 18.156-10.213 23.343-3.08 3.405-5.836 4.702-7.943 4.702-1.459 0-3.404-1.946-3.404-5.35zM396.712 49.873c-5.35 0-13.779 2.756-18.804 7.133-4.701 3.728-9.726 10.05-9.726 15.886 0 2.107.81 4.863 1.62 6.808 1.136 2.432 3.73 6.971 5.35 9.078 2.27 3.08 3.729 5.998 3.729 7.62 0 .972-1.297 2.269-3.405 2.269-2.269 0-3.242-.324-4.863-.973-1.459-1.135-2.593-1.135-4.052-.324-1.46.648-3.567 1.945-5.836 4.539-1.135.972-1.297 2.27-1.297 3.404.649 3.566 6.808 5.998 11.185 5.998 1.783 0 3.729-.486 6.16-1.46 3.567-1.458 9.727-4.862 11.834-6.807 1.945-1.784 4.053-5.836 4.053-8.268 0-4.215-2.432-8.916-6.16-13.617-2.756-3.728-4.864-7.294-4.864-10.374 0-5.025 11.186-9.24 21.236-9.24 2.756 0 5.187-1.297 5.187-4.377 0-1.945-.648-3.566-2.755-5.025s-4.54-2.27-8.592-2.27z"/>
            </g>
        </g>
        <g stroke-width="4.627">
            <path d="M467.553 29.673c-2.432 0-3.729 1.135-5.026 2.27-1.945 1.945-2.755 2.431-5.187 2.755-2.756.486-4.863.81-6.484 1.621-1.46.649-2.918 1.783-2.918 3.729 0 2.755 3.404 5.35 7.132 5.997 1.135.163 1.297.487 1.135 1.46-8.43 30.475-12.158 43.12-17.831 58.681-2.432 6.647-4.701 11.348-7.781 14.914-2.756 2.594-5.188 3.728-6.809 3.728s-3.08-.648-4.214-1.297c-1.46-.81-5.836-2.431-8.43-2.431-2.756 0-6.484 2.27-6.484 4.863 0 2.432 2.107 5.836 4.215 6.97 3.404 1.784 7.619 3.243 10.699 3.243 1.945 0 4.214-.811 6.484-1.46 1.783-.486 4.377-1.62 6.484-2.43 1.621-.811 7.133-3.567 12.158-9.24 5.836-6.485 11.347-21.074 16.697-40.69 7.78-28.367 8.591-31.61 10.374-36.148.81-2.27 2.27-4.701 3.242-5.836 1.135-1.135 2.432-3.08 1.46-5.674-.973-2.756-5.35-5.025-8.916-5.025zM524.41 94.19c-2.431 0-2.755-2.107-2.431-5.673.81-6.809 4.053-17.345 7.457-24.316 1.62-3.242 2.593-5.025 3.242-6.484 1.945-4.215-2.27-9.24-6.322-9.24-1.946 0-3.89 1.297-6.484 5.187-2.918 4.54-9.727 16.21-17.346 25.127-7.78 8.429-12.32 12.482-14.103 12.482-1.945 0-2.756-1.784-1.134-6.97 1.945-6.647 3.242-9.727 4.538-12.159 1.135-2.107 3.08-3.08 4.701-5.187 1.46-1.945 4.702-7.457 4.702-9.564 0-2.918-4.864-6.97-8.916-6.97-1.945 0-4.053 1.296-5.674 3.728-1.945 3.566-6.97 13.13-10.86 24.64-4.54 11.995-5.026 16.048-5.026 18.642 0 5.187 3.404 10.212 6.808 10.212 2.432 0 5.026-.648 8.43-2.756 9.726-6.16 20.425-16.534 23.019-19.29.972-.973 2.107-.324 1.62 1.459s-.972 3.566-1.458 6.16c-1.946 9.402.972 14.913 5.998 14.913 2.431 0 6.97-1.134 11.509-3.404 5.674-2.755 15.238-8.753 27.558-24.964 2.431-3.08 3.404-6.646 2.431-8.591-.648-1.46-1.945-1.46-3.242-.162-9.564 10.698-23.505 23.18-29.017 23.18z"/>
            <path d="M588.442 48.801c-3.567 0-10.213 1.946-14.752 4.54-5.511 3.241-14.427 9.077-21.884 18.803s-10.86 19.453-10.86 25.775c0 4.539 3.241 9.888 7.132 9.888 4.539 0 11.51-3.566 14.913-5.673 5.512-3.405 10.213-7.457 12.158-9.078.973-.81 1.621-.973 1.46.324-.325 2.27-.811 6.808-2.595 13.941-2.593 10.537-5.673 21.56-12.32 30.962-7.294 10.375-13.778 13.292-18.48 13.292-2.917 0-5.511-1.783-7.78-3.566-2.108-1.783-5.026-3.566-7.457-3.566-3.404 0-9.727 4.539-9.727 8.43 0 4.376 7.295 7.294 11.024 7.294 2.593 0 3.728.324 5.349.81 1.783.487 4.701.649 6.97.649 4.215 0 14.59-3.89 21.398-9.24 7.781-5.998 17.021-17.831 21.884-37.122 1.784-6.97 6.16-23.991 9.078-41.174.324-1.621.649-3.89-.162-4.701-.486-.325-.162-.973 1.135-1.784 2.756-1.945 4.863-5.187 4.863-8.591 0-3.566-2.594-10.213-11.347-10.213zm-31.61 41.175c0-4.215 4.376-12.644 7.78-17.021 5.836-7.457 13.13-11.51 19.777-11.51 3.404 0 5.512 1.946 5.512 3.08 0 .649-.487 1.46-.81 1.784-.65.486-1.46.648-2.108.81-1.783.486-3.729 1.783-5.512 4.377-.972 1.459-3.08 5.187-8.591 10.537-2.27 2.431-10.375 10.536-14.266 10.536-1.134 0-1.783-1.134-1.783-2.593zM639.99 49.125c-1.782 0-8.753.649-17.668 8.43-6.809 6.16-13.617 14.103-17.832 22.695-5.187 9.888-6.16 15.075-6.16 18.317 0 6.16 6.322 9.564 8.267 9.564 3.405 0 6.809-1.458 11.186-4.7 4.539-3.243 13.13-11.024 15.075-13.293.973-.973 1.297-.973 1.46.486 0 1.783 0 3.242.323 5.674.649 6.646 5.026 11.833 11.024 11.833 10.212 0 25.936-15.237 33.069-29.34 1.459-3.08 2.27-5.998 1.459-7.457-.649-1.135-2.27-1.297-4.053.324-10.212 14.103-21.235 23.991-24.964 23.991-2.431 0-4.052-2.269-4.052-7.943 0-9.726 2.917-19.776 7.132-29.34.486-1.46 1.297-3.405-3.242-5.998-1.459-.973-2.594-.649-3.89.486-.973.648-1.784.648-2.108-.324-.972-1.297-2.756-3.405-5.025-3.405zm-5.997 12.158c2.107 0 3.404 1.946 3.89 3.404.487 1.622 0 3.729-.972 5.35-.648 1.135-3.242 5.674-5.512 8.267-4.863 5.674-7.132 8.754-9.888 11.023-2.432 2.108-4.863 3.729-6.16 3.729s-1.621-2.27-1.135-4.377c.973-4.377 5.512-13.455 11.023-19.939 4.701-5.511 7.295-7.457 8.754-7.457z"/>
            <path d="M707.427 51.395c-8.916 0-17.67 3.728-26.423 13.292-12.158 13.293-16.21 26.261-16.21 33.232 0 8.105 3.728 10.537 7.294 10.537s10.05-2.108 17.183-6.97c4.052-2.757 11.833-9.565 15.724-14.428.81-1.135 1.459-.973 1.297.324-.324 1.945-.649 4.053-.81 7.619-.325 5.674 2.43 12.482 9.077 12.482 12.644 0 28.855-17.831 33.88-28.206 1.459-3.08 2.27-5.998 1.459-7.457-.973-1.62-2.918-1.297-4.863 1.459-3.08 4.539-18.318 21.884-23.343 21.884-2.432 0-3.567-2.918-3.08-8.105.648-8.105 4.214-24.478 8.916-37.446 5.349-14.59 9.402-22.209 11.671-27.72 1.621-4.053 1.621-6.16-.648-8.916-2.594-3.08-4.215-3.566-5.998-3.566-1.135 0-2.27.648-3.567 3.404-1.945 4.053-9.24 21.398-16.048 38.257-.324.972-.648.972-1.459.81a16.331 16.331 0 0 0-4.052-.486zm-3.243 9.402c1.297 0 2.432.81 2.918 1.783.649 1.135.81 2.432-.162 4.54-.972 2.43-8.105 13.94-13.617 19.452-5.187 5.025-9.077 7.132-11.023 7.132-1.134 0-2.107-1.135-2.107-2.756 0-2.431.81-5.997 7.781-15.724 6.16-8.753 13.293-14.427 16.21-14.427z"/>
            <path d="M737.902 94.839c0 7.619 4.864 13.617 10.7 13.617 11.67 0 22.208-6.484 29.989-15.724 6.646-7.457 9.078-15.238 9.078-21.722 0-6.323-2.27-13.455-8.106-16.373-1.134-.486-1.297-.973-1.297-1.945 0-2.27-.324-6.322-6.484-6.322-2.755 0-5.187.972-7.456 3.242-1.622 1.62-2.756 2.431-4.864 2.431-1.783 0-3.08.81-4.214 1.946-1.135 1.296-1.946 2.431-2.108 4.376-.162 2.918-1.459 4.377-2.755 6.16-1.946 2.432-6.16 8.754-8.592 14.266-2.918 7.132-3.89 11.671-3.89 16.048zm15.238-2.756c0-6.808 6.484-19.939 13.78-28.53.972-1.297 2.593-2.756 3.728-2.756 2.917 0 4.052 4.539 4.052 8.592 0 5.673-5.511 18.155-10.212 23.343-3.08 3.404-5.836 4.7-7.943 4.7-1.46 0-3.405-1.945-3.405-5.349zM823.007 48.963c-5.35 0-13.779 2.756-18.804 7.133-4.7 3.728-9.726 10.05-9.726 15.886 0 2.108.81 4.863 1.621 6.809 1.135 2.431 3.728 6.97 5.35 9.077 2.269 3.08 3.728 5.998 3.728 7.62 0 .972-1.297 2.269-3.404 2.269-2.27 0-3.242-.324-4.863-.973-1.46-1.135-2.594-1.135-4.053-.324-1.459.648-3.566 1.945-5.836 4.539-1.135.973-1.297 2.27-1.297 3.404.649 3.566 6.809 5.998 11.186 5.998 1.783 0 3.728-.486 6.16-1.459 3.566-1.459 9.726-4.863 11.833-6.808 1.945-1.784 4.053-5.836 4.053-8.268 0-4.214-2.432-8.915-6.16-13.616-2.756-3.729-4.863-7.295-4.863-10.375 0-5.025 11.185-9.24 21.235-9.24 2.756 0 5.188-1.297 5.188-4.377 0-1.945-.649-3.566-2.756-5.025s-4.54-2.27-8.592-2.27z"/>
        </g>
    </g>
</svg>
