<svg height="200.497" viewBox="0 0 791.557 165.41" width="959.462" xmlns="http://www.w3.org/2000/svg">
    <text fill="#ef00eb" font-family="TrasksHand" font-size="1.5" stroke="#0105ff" stroke-width="1.875" transform="rotate(-41.395 -139.16 139.91)" x="366.267" y="505.171"><tspan fill="#fafafa" fill-opacity=".4" stroke="none" x="366.267" y="505.171">John Loreth 2022</tspan></text>
    <path d="M682.826.015c-3.924.073-7.25 2.99-8.84 6.424-4.242 9.115-7.963 18.458-11.833 27.734-1.083 2.615-2.145 5.24-3.216 7.86-7.993-.321-15.952 2.318-22.494 6.849-6.83 4.69-12.368 11.028-17.066 17.798-1.247 1.757-2.326 3.631-3.524 5.414-3.55 4.203-7.23 8.344-11.52 11.812.025-1.794.215-3.656.442-5.33.955-7.279 3.451-14.25 6.352-20.957 1.22-3.206.824-7.06-1.381-9.752-1.845-2.284-4.359-4.03-7.107-5.044a8.042 8.042 0 0 0-4.63-.19c-2.627-2.265-6.26-3.413-9.697-2.729-7.217.941-13.713 4.776-19.178 9.42-4.839 4.17-9.13 8.95-13.026 14.002a76.281 76.281 0 0 0-4.814 7.258c.118-.718.208-1.443.184-2.172 4.047-3.824 6.376-9.696 5.188-15.24-1.203-6.594-6.712-12.196-13.342-13.345-5.54-1.151-11.204.321-16.401 2.228-6.34 2.425-11.953 6.373-17.258 10.538a77.005 77.005 0 0 0-14.584 15.523c-4.456 4.506-8.933 8.937-14.03 12.75-.302.13-1.241 1.181-.939.363 1.57-6.69 3.883-13.217 7.04-19.327 1.545-2.995 3.507-6.312 3.174-9.9-.368-6.858-6.55-12.961-13.478-12.914-4.089-.017-7.706 2.556-10.114 5.69-3.388 4.555-6.067 9.58-9.29 14.247.98-2.409 1.361-5.173.396-7.65-1.448-4.17-5.072-7.214-8.973-9.037-3.743-1.696-8.34-1.828-11.924.343-3.219 1.82-5.453 4.946-6.964 8.252-3.333 6.35-6.199 12.94-8.706 19.657 1.796-6.565 3.577-13.135 5.494-19.665.843-2.584 1.607-5.23 2.908-7.63 1.013-1.766 2.654-3.121 3.361-5.072 1.611-3.685 1.148-8.209-1.329-11.405-2.841-3.85-7.55-6.002-12.23-6.482-3.188-.376-6.442.576-9.02 2.461-1.04.698-1.93 1.598-2.838 2.441-1.206.27-2.45.388-3.66.66-3.83.736-7.829 2.248-10.196 5.516-2.579 3.647-2.385 8.977.504 12.398 1.277 1.675 2.944 3.034 4.797 4.026-5.306 18.921-10.428 37.941-17.479 56.307-1.44 3.524-2.946 7.174-5.634 9.947-.558.442-1.084.957-1.752 1.23-1.735-.692-3.333-1.72-5.165-2.167-3.81-1.366-8.138-2.109-12.012-.552-3.981 1.427-7.534 4.78-8.236 9.076-.63 4.388 1.498 8.696 4.409 11.854 2.616 2.669 6.238 3.945 9.684 5.16 3.873 1.293 8.133 1.728 12.092.547 4.4-1.129 8.719-2.662 12.763-4.74 4.971-2.682 9.474-6.282 13.092-10.627 3.955-4.75 6.551-10.434 8.91-16.098 1.881-4.66 3.491-9.426 5.017-14.213-.233 5.919 2.136 12.147 6.985 15.737 2.77 2.05 6.43 2.555 9.755 1.853 5.493-.973 10.124-4.323 14.493-7.591 2.285-1.7 4.507-3.485 6.682-5.325.367 4.416 2.28 8.94 6.026 11.512 2.583 1.839 5.867 2.456 8.981 2.059 3.844-.424 7.526-1.758 11.059-3.278 2.944-1.33 5.756-2.94 8.434-4.746 2.04 3.897 5.745 7.236 10.25 7.734 3.835.382 7.59-.884 11.117-2.245 3.238-1.31 6.327-2.967 9.281-4.825-2.11 8.325-4.503 16.72-8.942 24.146-2.324 3.883-5.126 7.53-8.548 10.509-1.82 1.456-3.91 2.891-6.306 3.045-1.386-.02-2.436-1.105-3.521-1.836-3.34-2.716-7.278-5.173-11.715-5.255-4.224-.037-8.11 2.166-11.24 4.835-3.03 2.64-5.448 6.417-5.289 10.566.097 3.4 1.963 6.54 4.565 8.651 3.197 2.684 7.266 4.227 11.38 4.745 1.884.121 3.798.144 5.605.754 3.175.743 6.475.923 9.724.732 4.099-.374 7.99-1.866 11.773-3.405 7.355-3.115 14.094-7.76 19.384-13.766 6.184-6.94 10.763-15.21 14.012-23.892 2.492-6.724 4.068-13.734 5.774-20.686 2.38 3.952 6.313 7.094 10.86 8.097 3.139.612 6.386-.137 9.313-1.292 5.51-2.296 10.087-6.253 14.582-10.083.36-.287.775-.879.865-.12 1.948 5.099 6.102 9.48 11.411 11.04 3.832 1.169 7.981.75 11.707-.602 2.99-1.046 5.76-2.628 8.374-4.402 2.164 3.393 5.934 5.766 9.988 5.953 4.691.345 9.217-1.365 13.453-3.183 5.559-2.515 10.575-6.086 15.178-10.063 1.292 4.888 4.619 9.479 9.452 11.318 4.224 1.652 8.954 1.11 13.15-.342 4.356-1.467 8.319-3.905 11.952-6.687 2.651 4.747 7.493 8.518 13.03 8.935 3.936.323 7.888-.35 11.695-1.313 7.765-2.133 14.765-6.562 20.52-12.137-.771 3.232.09 6.82 2.382 9.254 3.137 3.593 7.85 5.37 12.466 6.061 4.033.536 8.142-.33 11.812-2.016a65.32 65.32 0 0 0 12.045-6.77c3.427-2.69 5.807-6.602 6.945-10.781.695-2.634.61-5.426-.115-8.043-1.248-5.24-4.405-9.723-7.593-13.959-.958-1.398-2.053-2.838-2.53-4.453 2.612-1.79 5.78-2.482 8.835-3.097 2.776-.5 5.615-.364 8.398-.745 4.335-.83 8.195-4.41 8.749-8.885.83-4.85-1.615-10.02-5.832-12.531-4.855-3.19-10.993-3.715-16.604-2.74-7.784 1.29-15.204 4.899-20.879 10.403-2.012 1.915-3.838 4.033-5.372 6.35-1.536-3.779-4.046-7.228-7.436-9.544-.53-3.934-3.103-7.645-6.866-9.093-4.28-1.79-9.324-1.452-13.46.574-1.97 1.01-3.688 2.437-5.283 3.956-1.527.06-3.036.364-4.416 1.032-4.13 1.857-7.257 5.88-7.96 10.36-.115.983-.175 2.058-.94 2.785-2.547 3.454-5.01 6.98-7.076 10.749-1.16 2.187-2.979 3.904-4.546 5.792-2.717 3.1-5.567 6.09-8.644 8.837.888-6.664 2.372-13.327 4.09-19.766 2.288-8.61 5.313-17.007 8.808-25.197 2.118-5.077 4.47-10.05 6.676-15.087 1.246-3.008 2.286-6.28 1.71-9.57-.439-3.252-2.429-6.015-4.67-8.304-2.563-2.641-6.121-4.47-9.87-4.266zM89.916 20.381c-5.105.182-9.665 3.353-12.625 7.362-4.638 6.318-7.307 13.786-10.425 20.867a330.343 330.343 0 0 0-5.245 13.32c-4.04-6.8-8.14-13.533-12.002-20.364 1.49-2.597 2.11-5.798 1.122-8.684-1.163-3.809-3.911-7.218-7.568-8.874-5.657-2.547-13.015-.939-16.787 4.08-.927 1.174-1.72 2.479-2.172 3.912-2.882 2.125-5.279 5.06-6.376 8.502-1.023 3.048-.462 6.523 1.417 9.125.17.442.928.787.532 1.285C14.022 64.405 7.976 77.777 2.143 91.24.655 94.97-.604 99.063.309 103.097c.922 4.684 4.38 8.862 8.982 10.301 5.093 1.712 10.896.216 14.941-3.2 3.513-2.88 6.253-6.826 7.371-11.254.925-3.684.593-7.515.917-11.261.72-4.716 2.91-9.017 4.711-13.383.276-.191.623.958.928 1.303 3.957 6.852 7.97 13.672 12.194 20.363 1.602 2.689 3.128 5.67 4.794 8.428 2.369 3.705 6.267 6.351 10.503 7.457 3.854 1.115 8.207.316 11.355-2.189.978-.759 1.772-1.678 2.565-2.61 2.391 2.946 6.074 5 9.937 4.794 5.386-.127 10.315-2.761 14.596-5.832 3.404-2.38 6.705-4.91 9.889-7.577.341 4.381 2.172 8.866 5.808 11.516 2.633 1.963 6.032 2.68 9.264 2.284 3.745-.39 7.347-1.638 10.81-3.068 2.579-1.106 5.06-2.434 7.444-3.911 2.503 3.002 6.416 5.004 10.382 4.529 3.622-.363 6.658-2.853 8.617-5.797 1.212-1.702 2.286-3.46 3.476-5.1 2.815-3.987 5.72-7.913 8.798-11.7-.733 6.05-.337 12.48 2.53 17.965 2.415 4.68 7.006 8.309 12.28 9.05 5.634.876 11.333-.839 16.315-3.39 4.253-2.198 8.095-5.128 11.563-8.415 2.548 4.319 6.796 7.566 11.623 8.914 6.465 1.9 13.377.924 19.72-.976 5.89-1.795 11.43-4.597 16.598-7.918 2.181 4.741 6.6 8.43 11.674 9.667 3.813.765 7.721-.393 11.164-1.995 5.23-2.52 9.624-6.398 14.05-10.086.237.27.383.955.617 1.38 2.149 5 6.527 9.128 11.874 10.432 4.344 1.162 8.952.25 13.014-1.479 5.028-2.166 9.468-5.49 13.552-9.092 6.34-5.688 11.746-12.413 16.012-19.782 1.877-3.404 3.615-7.092 3.717-11.047.052-3.139-1.423-6.42-4.257-7.956-2.948-1.73-6.805-1.389-9.595.502-2.626 1.723-4.118 4.592-6.131 6.915-4.235 5.265-8.809 10.307-14.062 14.578.046-3.57.63-7.263 1.385-10.649 1.243-5.357 3.182-10.526 5.377-15.558 1.088-2.58 1.258-5.612.018-8.172-1.449-3.087-4.33-5.219-7.33-6.664-1.826-.802-3.905-1.073-5.854-.6-2.576-2.19-6.103-3.37-9.47-2.765-.406.04-1.148.144-1.687.25-6.934 1.251-13.154 5.014-18.46 9.524-4.649 4.008-8.826 8.549-12.613 13.372-1.285 1.688-2.45 3.496-4.103 4.859-4.566 4.295-9.29 8.452-14.444 12.034-.913.626-2.03 1.39-3.061 2.015-1.555.966-3.318 1.999-4.842 2.75-2.695 1.343-5.599 2.366-8.62 2.567-.641-1.382-.238-2.97-.088-4.418.983-6.16 4.073-11.827 8.116-16.514 1.907 2.422 5.06 3.55 8.083 3.425 4.726-.152 9.16-2.793 12.05-6.455 3.128-3.98 4.464-9.631 2.497-14.422-1.95-4.8-6.727-8.093-11.783-8.82-6.145-1.03-12.387.714-17.931 3.305-7.83 3.7-14.66 9.446-19.8 16.402-2.345 3.187-4.235 6.687-5.96 10.233-5.535 6.168-11.123 12.378-17.7 17.466-.193-.056.148-1.004.178-1.38.283-1.356.727-2.86 1.046-4.086 2.356-8.107 5.282-16.094 9.358-23.507 1.924-3.686 2.896-8.196 1.292-12.178-1.895-4.976-6.9-8.508-12.201-8.769-3.616-.255-7.337 1.363-9.465 4.33-.82 1.005-1.301 2.336-2.55 2.915-1.917 1.127-3.674 2.492-5.489 3.774-1.364-5.641-5.907-10.638-11.7-11.793-5.502-1.034-11.244 1.653-14.601 6.004-3.439 4.28-5.082 9.61-6.898 14.704-2.184 6.431-4.02 12.976-5.701 19.555-2.04 1.745-4.105 3.468-6.31 5.002.525-2.364 1.262-4.91 1.98-7.172 1.659-5.35 4-10.461 6.675-15.374 1.413-2.602 2.338-5.604 1.806-8.58-.973-6.592-7.223-12.09-13.954-11.792-4.192.188-7.805 2.963-10.182 6.259-2.929 3.916-5.262 8.232-8.051 12.243-.532.811-1.078 1.613-1.622 2.416 1.158-2.569 1.866-5.546.898-8.294-1.361-4.267-5.02-7.392-8.958-9.264-1.77-.802-3.686-1.31-5.632-1.39.635-3.292-.13-6.67-1.119-9.815-1.346-4.212-4.08-8.27-8.254-10.069a12.06 12.06 0 0 0-5.26-.98zm626.697 53.691c-1.326 3.278-2.918 6.459-4.887 9.4.51-1.417 1.106-2.78 1.703-4.073a74.947 74.947 0 0 1 3.791-6.977l-.607 1.65zm26.066 8.53a73.393 73.393 0 0 0 2.377 3.912c-2.508.053-4.82 1.18-6.88 2.525a42.015 42.015 0 0 0 3.98-7.408l.523.97z" fill="#333"/>
    <g fill="#f4c401">
        <path d="M316.956 46.503c-1.82 0-8.93.651-18.026 8.464-6.946 6.184-13.892 14.16-18.191 22.785-5.293 9.928-6.285 15.136-6.285 18.391 0 6.185 6.45 9.603 8.434 9.603 3.473 0 6.946-1.465 11.411-4.72 4.631-3.255 13.396-11.067 15.38-13.346.993-.976 1.324-.976 1.489.488 0 1.79 0 3.255.33 5.697.662 6.673 5.127 11.88 11.246 11.88 10.419 0 26.46-15.298 33.737-29.458 1.489-3.092 2.315-6.022 1.489-7.486-.662-1.14-2.316-1.302-4.135.325-10.419 14.16-21.664 24.088-25.468 24.088-2.48 0-4.134-2.279-4.134-7.975 0-9.765 2.976-19.856 7.276-29.459.496-1.464 1.323-3.417-3.307-6.021-1.489-.977-2.646-.651-3.97.488-.992.65-1.818.65-2.15-.326-.992-1.302-2.81-3.418-5.126-3.418zm-6.119 12.207c2.15 0 3.473 1.953 3.97 3.418.495 1.627 0 3.743-.993 5.37-.662 1.14-3.308 5.697-5.623 8.301-4.961 5.696-7.276 8.789-10.088 11.067-2.48 2.116-4.961 3.744-6.284 3.744-1.323 0-1.654-2.279-1.158-4.395.992-4.394 5.623-13.508 11.246-20.018 4.796-5.534 7.442-7.487 8.93-7.487zM172.75 43.303c-2.958 0-6.74 1.643-9.534 7.72-2.794 5.75-7.89 21.682-12 40.9-.821 3.285-.657 6.899.494 8.213 1.315 1.807 2.794 3.12 4.931 3.12.987 0 2.63-.492 4.439-3.284 7.397-11.17 15.616-21.682 25.15-31.045 2.466-2.3 3.287-2.956 3.78-2.3.33.493 0 1.643-.657 3.45-.986 2.792-2.137 7.063-3.452 13.305-3.452 15.933 2.137 24.474 10.356 24.474 8.384 0 22.192-6.899 35.835-30.387 2.63-4.107 2.795-6.9 1.973-8.049-.658-.821-1.973-.493-2.795.493-9.863 11.662-23.835 26.445-29.753 26.445-2.63 0-5.26-3.285-2.794-13.14 1.644-6.57 4.767-15.44 7.397-21.19 1.48-3.285 3.123-6.077 3.78-7.555 1.151-3.121 1.48-5.42-1.479-8.377-1.315-1.15-3.123-1.807-5.096-1.807-1.643 0-2.794.985-3.78 2.464a8.852 8.852 0 0 1-2.63 3.12c-1.48.822-2.795 1.643-7.233 4.928-5.26 3.614-15.123 13.14-18.082 16.426-1.48 1.97-2.63 1.314-1.973-.493.987-2.792 2.466-8.706 4.603-12.32 1.48-2.627 2.959-4.27 4.438-4.27.987 0 1.973-.985 1.973-2.135 0-3.45-3.288-8.706-7.89-8.706z"/>
        <g stroke-width="1.875">
            <path d="M262.533 46.503c-8.765 0-19.184 6.185-25.965 13.672-8.103 8.951-12.072 21.158-12.072 28.482 0 12.857 7.773 17.089 15.71 17.089 15.546 0 34.564-12.858 46.472-27.994 2.15-2.767 2.976-5.696 2.15-7.161-.662-1.14-2.316-1.302-4.135.325-11.08 10.742-26.13 23.112-37.871 23.112-3.639 0-6.615-3.256-6.615-8.138 0-4.557 1.323-11.556 6.946-19.856 4.63-6.836 9.26-9.277 10.914-9.277.993 0 1.82.814 1.654 2.93-.165 1.627.33 2.766 1.323 3.255.827.488 2.812.65 4.961-.326 3.143-1.465 6.12-4.557 6.12-8.951 0-3.418-3.308-7.162-9.592-7.162zM136.66 91.749c-2.481 0-2.812-2.116-2.481-5.696.827-6.836 4.134-17.415 7.607-24.413 1.654-3.256 2.646-5.046 3.308-6.51 1.984-4.232-2.315-9.278-6.45-9.278-1.984 0-3.969 1.302-6.615 5.209-2.977 4.557-9.923 16.275-17.695 25.226-7.938 8.464-12.569 12.532-14.388 12.532-1.985 0-2.811-1.79-1.158-6.998 1.985-6.673 3.308-9.765 4.63-12.207 1.158-2.115 3.143-3.092 4.797-5.208 1.488-1.953 4.796-7.486 4.796-9.602 0-2.93-4.962-6.999-9.096-6.999-1.985 0-4.134 1.303-5.788 3.744-1.985 3.58-7.111 13.183-11.08 24.738C82.416 88.331 81.92 92.4 81.92 95.004c0 5.208 3.473 10.254 6.946 10.254 2.48 0 5.126-.652 8.6-2.767 9.922-6.185 20.837-16.601 23.483-19.368.992-.977 2.15-.325 1.654 1.465s-.993 3.58-1.489 6.184c-1.984 9.44.992 14.974 6.12 14.974 2.48 0 7.11-1.14 11.74-3.418 5.79-2.767 15.546-8.789 28.115-25.064 2.48-3.092 3.473-6.673 2.48-8.626-.66-1.465-1.984-1.465-3.307-.163-9.757 10.742-23.98 23.274-29.602 23.274zM37.346 29.414c-1.82 0-3.97.814-5.127 1.953-.827.977-1.82 2.279-1.82 3.093s-.66 1.79-2.15 2.766c-2.15 1.465-3.637 3.744-4.134 5.209-.661 2.278.497 3.58 1.985 5.045.992.976 1.488 2.116.661 3.906-1.653 4.069-11.576 26.692-17.695 40.363-.827 1.79-2.48 6.185-2.48 7.975 0 5.534 3.803 7.812 7.276 7.812 2.15 0 5.292-1.14 7.773-3.906 3.638-4.232 4.134-6.347 4.134-14.16 0-.976 0-2.278.662-5.208 1.323-5.533 6.284-16.275 9.26-22.134.662-1.14 1.324-1.465 2.316.163 2.315 3.58 9.923 17.414 15.38 26.04 5.292 8.3 6.615 11.718 7.607 13.02 1.323 1.79 4.796 4.395 8.27 4.395 2.645 0 4.134-1.465 5.622-3.418s1.654-4.394.827-5.696c-.992-1.465-1.985-2.442-1.985-3.907 0-2.278 0-4.231 1.489-9.927 3.804-14.16 7.773-24.25 14.222-36.783 1.158-2.441 3.142-3.58 4.962-3.743 2.48-.163 3.803-1.302 3.803-3.255 0-2.93-1.819-12.044-7.773-12.044-1.984 0-4.134.814-6.284 2.93-2.315 2.278-4.961 6.347-9.26 16.763-3.97 8.952-7.608 18.554-10.916 28.482-.661 1.79-.992 2.116-1.984.326-1.489-2.604-16.042-26.855-17.861-30.11-.992-1.79-1.488-3.418-1.488-4.231 0-.651.496-1.302 1.157-2.767.827-1.14 1.323-2.93 0-5.046-1.323-2.278-2.977-3.906-6.45-3.906z"/>
        </g>
        <g stroke-width="4.627">
            <path d="M418.14 26.87c-2.431 0-3.728 1.135-5.025 2.27-1.945 1.945-2.756 2.43-5.187 2.755-2.756.486-4.864.81-6.485 1.621-1.459.649-2.918 1.783-2.918 3.729 0 2.755 3.405 5.349 7.133 5.997 1.135.162 1.297.487 1.135 1.46-8.43 30.475-12.158 43.12-17.832 58.681-2.431 6.646-4.7 11.347-7.78 14.914-2.756 2.593-5.188 3.728-6.81 3.728s-3.08-.648-4.214-1.297c-1.459-.81-5.836-2.431-8.43-2.431-2.755 0-6.483 2.27-6.483 4.863 0 2.431 2.107 5.836 4.214 6.97 3.404 1.783 7.62 3.242 10.7 3.242 1.944 0 4.214-.81 6.483-1.459 1.784-.486 4.377-1.62 6.485-2.431 1.62-.81 7.132-3.566 12.157-9.24 5.836-6.484 11.348-21.074 16.697-40.688 7.781-28.369 8.592-31.61 10.375-36.15.81-2.269 2.27-4.7 3.242-5.835 1.135-1.135 2.431-3.08 1.459-5.674-.973-2.756-5.35-5.025-8.916-5.025zM474.998 91.387c-2.432 0-2.756-2.107-2.432-5.673.811-6.809 4.053-17.345 7.457-24.316 1.621-3.242 2.594-5.025 3.242-6.484 1.946-4.215-2.27-9.24-6.322-9.24-1.945 0-3.89 1.297-6.484 5.187-2.918 4.54-9.726 16.21-17.345 25.126-7.781 8.43-12.32 12.483-14.103 12.483-1.945 0-2.756-1.784-1.135-6.971 1.945-6.646 3.242-9.726 4.539-12.158 1.135-2.107 3.08-3.08 4.701-5.187 1.459-1.945 4.701-7.457 4.701-9.564 0-2.918-4.863-6.97-8.916-6.97-1.945 0-4.052 1.296-5.673 3.728-1.946 3.566-6.97 13.13-10.861 24.64-4.54 11.995-5.026 16.048-5.026 18.641 0 5.188 3.405 10.213 6.809 10.213 2.431 0 5.025-.648 8.43-2.756 9.726-6.16 20.424-16.534 23.018-19.29.973-.973 2.107-.324 1.621 1.459s-.972 3.566-1.459 6.16c-1.945 9.402.973 14.913 5.998 14.913 2.432 0 6.97-1.134 11.51-3.404 5.673-2.756 15.237-8.753 27.557-24.964 2.432-3.08 3.404-6.646 2.432-8.591-.649-1.46-1.945-1.46-3.242-.163-9.564 10.7-23.505 23.181-29.017 23.181z"/>
            <path d="M539.03 45.998c-3.567 0-10.213 1.945-14.752 4.54-5.512 3.241-14.428 9.077-21.884 18.803s-10.861 19.453-10.861 25.775c0 4.539 3.242 9.888 7.132 9.888 4.54 0 11.51-3.566 14.914-5.673 5.511-3.405 10.212-7.457 12.158-9.078.972-.81 1.62-.973 1.459.324-.325 2.27-.81 6.808-2.594 13.94-2.594 10.538-5.674 21.56-12.32 30.963-7.295 10.374-13.779 13.292-18.48 13.292-2.918 0-5.511-1.783-7.78-3.566-2.108-1.783-5.026-3.566-7.458-3.566-3.404 0-9.726 4.539-9.726 8.43 0 4.376 7.295 7.294 11.023 7.294 2.594 0 3.729.324 5.35.81 1.783.487 4.7.649 6.97.649 4.215 0 14.59-3.89 21.398-9.24 7.78-5.998 17.02-17.832 21.884-37.122 1.783-6.97 6.16-23.991 9.078-41.175.324-1.62.648-3.89-.162-4.7-.487-.325-.162-.973 1.134-1.784 2.756-1.945 4.864-5.187 4.864-8.591 0-3.567-2.594-10.213-11.348-10.213zm-31.611 41.175c0-4.215 4.377-12.644 7.78-17.021 5.837-7.457 13.131-11.51 19.778-11.51 3.404 0 5.511 1.946 5.511 3.08 0 .649-.486 1.46-.81 1.783-.649.487-1.46.649-2.108.81-1.783.487-3.728 1.784-5.511 4.378-.973 1.459-3.08 5.187-8.592 10.537-2.27 2.431-10.374 10.536-14.265 10.536-1.135 0-1.783-1.134-1.783-2.593zM590.579 46.322c-1.784 0-8.754.649-17.67 8.43-6.808 6.16-13.617 14.103-17.831 22.694-5.188 9.889-6.16 15.076-6.16 18.318 0 6.16 6.322 9.564 8.267 9.564 3.404 0 6.808-1.459 11.185-4.7 4.54-3.243 13.13-11.024 15.076-13.293.973-.973 1.297-.973 1.459.486 0 1.783 0 3.242.324 5.674.648 6.646 5.025 11.833 11.023 11.833 10.213 0 25.937-15.237 33.07-29.34 1.458-3.08 2.269-5.998 1.458-7.457-.648-1.135-2.27-1.297-4.052.324-10.213 14.103-21.236 23.991-24.964 23.991-2.432 0-4.053-2.27-4.053-7.943 0-9.726 2.918-19.777 7.133-29.34.486-1.46 1.297-3.405-3.242-5.999-1.46-.972-2.594-.648-3.89.487-.974.648-1.784.648-2.108-.324-.973-1.297-2.756-3.405-5.025-3.405zM584.58 58.48c2.107 0 3.404 1.945 3.89 3.404.486 1.621 0 3.729-.972 5.35-.649 1.135-3.243 5.673-5.512 8.267-4.863 5.674-7.133 8.754-9.888 11.023-2.432 2.108-4.864 3.729-6.16 3.729s-1.621-2.27-1.135-4.377c.973-4.377 5.511-13.455 11.023-19.939 4.701-5.512 7.295-7.457 8.754-7.457z"/>
            <path d="M658.014 48.592c-8.916 0-17.67 3.728-26.423 13.292-12.158 13.293-16.21 26.261-16.21 33.232 0 8.105 3.728 10.537 7.294 10.537s10.05-2.108 17.183-6.97c4.053-2.757 11.834-9.565 15.725-14.428.81-1.135 1.459-.973 1.296.324-.324 1.945-.648 4.053-.81 7.619-.324 5.674 2.431 12.482 9.078 12.482 12.644 0 28.854-17.832 33.88-28.206 1.459-3.08 2.269-5.998 1.459-7.457-.973-1.621-2.918-1.297-4.864 1.459-3.08 4.539-18.317 21.884-23.343 21.884-2.431 0-3.566-2.918-3.08-8.105.649-8.105 4.215-24.478 8.916-37.446 5.35-14.59 9.402-22.209 11.672-27.72 1.62-4.053 1.62-6.16-.649-8.916-2.593-3.08-4.215-3.566-5.998-3.566-1.134 0-2.27.648-3.566 3.404-1.945 4.053-9.24 21.398-16.048 38.257-.325.972-.649.972-1.46.81a16.331 16.331 0 0 0-4.052-.486zm-3.242 9.402c1.297 0 2.432.81 2.918 1.783.648 1.135.81 2.432-.162 4.539-.973 2.432-8.105 13.94-13.617 19.452-5.187 5.026-9.078 7.133-11.023 7.133-1.135 0-2.107-1.135-2.107-2.756 0-2.431.81-5.998 7.78-15.724 6.16-8.753 13.293-14.427 16.211-14.427z"/>
            <path d="M688.49 92.036c0 7.619 4.863 13.617 10.699 13.617 11.671 0 22.208-6.485 29.99-15.725 6.646-7.456 9.077-15.237 9.077-21.722 0-6.322-2.27-13.454-8.105-16.372-1.135-.486-1.297-.973-1.297-1.945 0-2.27-.324-6.322-6.484-6.322-2.756 0-5.187.972-7.457 3.242-1.62 1.62-2.756 2.431-4.863 2.431-1.783 0-3.08.81-4.215 1.945-1.134 1.297-1.945 2.432-2.107 4.377-.162 2.918-1.46 4.377-2.756 6.16-1.945 2.432-6.16 8.754-8.591 14.265-2.918 7.133-3.89 11.672-3.89 16.049zm15.238-2.756c0-6.808 6.484-19.939 13.779-28.53.972-1.297 2.593-2.756 3.728-2.756 2.918 0 4.053 4.539 4.053 8.591 0 5.674-5.512 18.156-10.213 23.343-3.08 3.405-5.836 4.701-7.943 4.701-1.459 0-3.404-1.945-3.404-5.349zM773.595 46.16c-5.35 0-13.779 2.756-18.804 7.133-4.701 3.728-9.726 10.05-9.726 15.886 0 2.107.81 4.863 1.62 6.808 1.135 2.432 3.729 6.971 5.35 9.078 2.27 3.08 3.728 5.998 3.728 7.62 0 .972-1.296 2.269-3.404 2.269-2.27 0-3.242-.325-4.863-.973-1.459-1.135-2.594-1.135-4.053-.324-1.458.648-3.566 1.945-5.835 4.539-1.135.972-1.297 2.27-1.297 3.404.648 3.566 6.808 5.998 11.185 5.998 1.783 0 3.728-.486 6.16-1.46 3.566-1.458 9.726-4.862 11.834-6.807 1.945-1.784 4.052-5.836 4.052-8.268 0-4.215-2.431-8.916-6.16-13.617-2.755-3.728-4.863-7.294-4.863-10.374 0-5.026 11.185-9.24 21.236-9.24 2.756 0 5.187-1.297 5.187-4.377 0-1.945-.648-3.566-2.756-5.025s-4.538-2.27-8.591-2.27z"/>
        </g>
    </g>
</svg>
