<svg height="150.652" viewBox="0 0 535.133 120.521" width="668.916" xmlns="http://www.w3.org/2000/svg">
    <text fill="#ef00eb" font-family="TrasksHand" font-size="15.607" stroke="#0105ff" stroke-width="19.508" x="-1308.933" y="956.917" transform="translate(149.667 -3.582) scale(.10252)"><tspan fill="#fafafa" fill-opacity=".4" stroke="none" x="-1308.933" y="956.917">John Loreth 2022</tspan></text>
    <path d="M31.11 26.105h484.64c12.354 0 21.466 9.131 18.969 18.452l-8.983 32.75c-2.25 8.205-11.308 15.358-19.817 15.358H15.705c-8.508 0-17.608-7.153-15.358-15.358l9.832-35.844c1.918-6.992 9.327-15.358 20.931-15.358z" fill="#2285c8"/>
    <path d="M87.192 0h201.155c15.63 0 30.89 16.576 25.817 35.072l-11.782 42.954c-8.052 30.051-28.32 41.984-44.44 42.495H57.821c-15.406 0-31.884-12.951-27.809-27.809l17.41-63.472C51.706 13.255 73.448.465 87.192 0z" fill="#050608"/>
    <g stroke-width="24.385">
        <g fill="#ed1e24">
            <path d="M66.996 45.215H53.424l11.01-21.846h29.508l1.416-2.974h20.872l-12.714 25.127H89.944L76.06 97.212H53.131zM104.629 65.111q.208-1.538.546-3.179.338-1.641 1.164-4.718.689-2.564 2.022-5.23 1.436-2.667 5.11-8.308 3.778-5.64 11.613-11.076 7.862-5.538 13.787-7.692 5.953-2.256 13.315-2.872h1.85q.926 0 1.88-.102 1.439 0 2.13.102 5.039 0 8.869 1.436 3.857 1.333 7.966 4.41 4.239 2.974 6.209 6.359 1.997 3.282 3.076 6.153 1.182 2.872 1.5 6.667.317 3.794-.243 7.794-.533 3.898-1.194 6.359-1.846 6.872-6.303 13.128-4.354 6.256-8.197 9.845-3.713 3.488-8.13 6.154-4.315 2.667-7.683 4.102-3.367 1.436-7.036 2.462-3.538.923-7.425 1.23-3.886.308-7.485.308l-5.154-.718q-6.044-1.23-10.037-3.59-3.863-2.46-7.325-7.178-3.36-4.718-4.553-9.846-1.165-5.23-.272-12zm24.996-3.487q-.836 5.026 1.593 8.615 2.531 3.59 5.273 4.103 2.844.513 3.46.513H142.522q.878-.206 5.258-.821 4.409-.718 7.341-5.128 3.036-4.41 3.517-5.436.584-1.025.914-2.256 1.626-6.051-.507-10.359-2.133-4.307-5.389-4.82-3.124-.615-4.564-.615-2.159 0-4.017.41-1.755.41-4.245 1.641-2.36 1.128-5.935 4.102-3.472 2.975-4.904 8.308-.303 1.128-.366 1.743zM202.098 45.215h-13.572l11.01-21.846h29.508l1.416-2.974h20.872l-12.713 25.127h-13.572l-13.885 51.69h-22.929zM242.824 96.084q-5.29-1.743-9.762-4.615l11.591-21.332 2.98 1.538q5.172 2.564 8.337 3.795 3.296 1.128 4.94 1.128.59.103 1.001.103h.514q1.645 0 3.483-.718 1.866-.82 2.417-2.872.193-.718-.176-1.641-.266-.923-1.082-1.333l-.356-.205-3.315-1.436-8.036-3.385q-7.016-2.974-9.237-8.102-2.09-5.23.114-13.435 1.46-5.436 4.748-9.64 3.392-4.206 7.837-6.975 4.548-2.77 8.422-3.795 3.902-1.128 9.66-1.128 1.953 0 4.085.103 2.132.102 4.208.41l1.381-2.461 18.413 3.794-12.889 23.486q-3.78-2.769-8.46-4.102-4.55-1.436-7.017-1.436-1.337 0-2.784.41-1.344.41-2.181 1.231-.837.82-1.113 1.846-.22.82.101 1.539.424.718 1.267 1.025l9.57 3.795 3.11 1.436q11.569 7.076 7.987 20.41-.468 1.743-2.132 5.64-1.636 3.795-5.98 8.102-4.242 4.308-7.905 6.462-3.663 2.153-8.237 3.487-4.601 1.435-12.107 1.435-2.879 0-5.723-.512-2.844-.513-7.674-2.052z"/>
        </g>
        <g fill="#fff">
            <path d="M328.078 51.983h-2.517l5.276-10.908h15.002l.82-1.45h10.069l-6.072 12.658h-11.378l-.519 2.052H352l-4.77 9.306h-10.824l-.557 2.202h13.038L343.37 77.1h-21.647zM356.143 51.883h-2.517l5.252-10.808h11.276l-6.279 24.818h7.602L366.074 77.1h-16.31zM383.355 76.25l-1.144-.65 5.44-10.358.615.55q1.207.801 2.315.801 2.013 0 2.708-1.55.757-1.602.896-2.152l2.81-11.108h-8.004l5.277-10.708h16.663l-6.127 24.217q-.24.951-.632 1.902-.392.95-1.994 3.702-1.602 2.752-4.625 4.354-2.973 1.6-4.836 2.001-1.863.4-4.028.4-2.618 0-5.334-1.4zM408.497 61.44q.09-.75.242-1.551.152-.801.532-2.302.316-1.25.947-2.552.682-1.3 2.435-4.053 1.804-2.752 5.596-5.404 3.805-2.702 6.688-3.752 2.897-1.101 6.496-1.401h.907q.453 0 .918-.05.705 0 1.045.05 2.467 0 4.353.7 1.9.65 3.937 2.152 2.1 1.45 3.091 3.102 1.004 1.601 1.556 3.002.602 1.401.788 3.252.186 1.852-.056 3.803-.229 1.901-.533 3.102-.848 3.353-2.98 6.405-2.08 3.052-3.933 4.803-1.79 1.702-3.931 3.002-2.091 1.301-3.728 2.002-1.637.7-3.425 1.2-1.725.451-3.626.601-1.9.15-3.662.15l-2.53-.35q-2.969-.6-4.943-1.751-1.911-1.201-3.645-3.503-1.683-2.301-2.308-4.803-.613-2.552-.23-5.854zm12.21-1.702q-.368 2.452.85 4.203 1.269 1.752 2.615 2.002 1.397.25 1.699.25h1.258q.428-.1 2.568-.4 2.153-.35 3.553-2.502 1.45-2.152 1.678-2.652.277-.5.43-1.1.746-2.953-.333-5.054-1.08-2.102-2.677-2.352-1.535-.3-2.24-.3-1.057 0-1.964.2-.856.2-2.065.8-1.146.55-2.872 2.002-1.676 1.451-2.335 4.053-.139.55-.164.85zM474.601 40.525l1.208.2 1.021-1.251 8.239 3.452-8.248 11.709-1.182-1.1q-2.778-2.152-5.345-2.152-1.007 0-2.581.45-1.51.4-3.842 2.251-2.318 1.802-3.027 4.604-.266 1.05-.106 3.402.16 2.352 2.349 3.252 2.188.901 3.346.901 3.121 0 7.216-2.852l.995-.75 2.376 10.307q-2.545 1.901-5.554 3.052-2.96 1.15-4.923 1.351-1.913.2-2.316.2-.416.05-.718.05-3.171 0-5.687-1-2.465-1.001-3.961-2.052-1.484-1.1-2.89-2.902-1.344-1.851-1.97-3.753-.577-1.901-.548-4.403.029-2.502.548-4.553.43-1.701 1.528-4.053 1.111-2.402 3.633-5.604 2.535-3.252 5.18-4.753 2.708-1.551 3.627-2.002.97-.45 2.355-.95 1.398-.55 3.035-.851 1.7-.35 3.511-.35 1.259 0 2.731.15zM483.76 76.55q-2.603-.85-4.816-2.251l5.502-10.408 1.472.751q2.553 1.25 4.112 1.851 1.623.55 2.429.55.289.05.49.05h.252q.806 0 1.7-.35.906-.4 1.16-1.4.088-.35-.1-.801-.138-.45-.54-.65l-.176-.1-1.635-.701-3.962-1.651q-3.46-1.451-4.588-3.953-1.066-2.552-.053-6.555.67-2.652 2.247-4.703 1.626-2.052 3.78-3.403 2.205-1.35 4.093-1.85 1.901-.551 4.72-.551.957 0 2.002.05 1.044.05 2.063.2l.656-1.201 9.047 1.851-6.121 11.459q-1.873-1.351-4.175-2.002-2.24-.7-3.448-.7-.654 0-1.36.2-.654.2-1.057.6-.404.4-.53.9-.102.401.062.751.213.35.628.5l4.717 1.852 1.534.7q5.722 3.453 4.076 9.958-.215.85-.998 2.752-.77 1.85-2.863 3.952-2.042 2.102-3.818 3.153-1.776 1.05-4.005 1.7-2.241.701-5.916.701-1.41 0-2.806-.25-1.397-.25-3.774-1z"/>
        </g>
    </g>
</svg>
