<?xml version="1.0" encoding="UTF-8" standalone="no"?>
<svg
   version="1.1"
   viewBox="0 0 1348 173"
   id="svg160"
   sodipodi:docname="auto-racedriving.svg"
   inkscape:version="1.1.2 (0a00cf5339, 2022-02-04)"
   xmlns:inkscape="http://www.inkscape.org/namespaces/inkscape"
   xmlns:sodipodi="http://sodipodi.sourceforge.net/DTD/sodipodi-0.dtd"
   xmlns="http://www.w3.org/2000/svg"
   xmlns:svg="http://www.w3.org/2000/svg">
  <defs
     id="defs164" />
  <sodipodi:namedview
     id="namedview162"
     pagecolor="#ffffff"
     bordercolor="#666666"
     borderopacity="1.0"
     inkscape:pageshadow="2"
     inkscape:pageopacity="0.0"
     inkscape:pagecheckerboard="0"
     showgrid="false"
     inkscape:zoom="1.0155219"
     inkscape:cx="1008.3485"
     inkscape:cy="86.654951"
     inkscape:window-width="1920"
     inkscape:window-height="1011"
     inkscape:window-x="1920"
     inkscape:window-y="32"
     inkscape:window-maximized="1"
     inkscape:current-layer="svg160" />
  <g
     stroke-width="2.00"
     fill="none"
     stroke-linecap="butt"
     id="g86">
    <path
       stroke="#cccccc"
       vector-effect="non-scaling-stroke"
       d="   M 1010.46 115.75   Q 1009.93 112.78 1009.00 115.71"
       id="path2" />
    <path
       stroke="#ff8080"
       vector-effect="non-scaling-stroke"
       d="   M 263.71 87.25   L 263.46 85.75"
       id="path4" />
    <path
       stroke="#ff8080"
       vector-effect="non-scaling-stroke"
       d="   M 262.96 44.75   L 263.25 44.21"
       id="path6" />
    <path
       stroke="#ff8080"
       vector-effect="non-scaling-stroke"
       d="   M 324.55 44.43   Q 330.45 30.05 336.86 15.75   C 340.16 8.38 341.27 4.94 346.80 1.05"
       id="path8" />
    <path
       stroke="#cccccc"
       vector-effect="non-scaling-stroke"
       d="   M 308.75 130.71   L 305.38 138.61   A 1.00 1.00 0.0 0 0 306.30 140.00   L 358.95 140.00   A 1.00 0.98 -78.2 0 0 359.86 139.39   L 366.02 125.07"
       id="path10" />
    <path
       stroke="#ff8080"
       vector-effect="non-scaling-stroke"
       d="   M 366.02 125.07   Q 371.90 112.38 377.56 99.06   Q 378.50 96.86 380.64 95.54   A 1.00 0.99 -41.6 0 1 381.77 95.60   L 413.65 119.97"
       id="path12" />
    <path
       stroke="#cccccc"
       vector-effect="non-scaling-stroke"
       d="   M 413.65 119.97   L 439.22 139.79   A 1.00 0.99 63.7 0 0 439.83 140.00   L 622.31 140.00   A 0.98 0.96 24.3 0 0 622.94 139.77   Q 636.37 128.87 647.32 115.51   Q 648.36 114.24 648.72 115.85   L 653.82 139.21   A 1.00 1.00 0.0 0 0 654.80 140.00   L 703.89 140.00   A 1.00 1.00 0.0 0 0 704.87 138.82   L 695.96 91.00"
       id="path14" />
    <path
       stroke="#ff8080"
       vector-effect="non-scaling-stroke"
       d="   M 695.96 91.00   Q 692.29 69.72 688.42 48.47   C 686.88 40.00 682.66 13.98 670.75 13.99   Q 647.87 14.01 624.94 13.99   C 619.93 13.98 611.79 19.83 609.10 22.60   Q 591.49 40.75 529.21 107.75"
       id="path16" />
    <path
       stroke="#cccccc"
       vector-effect="non-scaling-stroke"
       d="   M 529.21 107.75   Q 515.73 121.68 502.47 135.82   Q 502.10 136.21 501.58 137.16   Q 501.31 137.63 500.93 138.08   A 1.01 1.00 39.9 0 1 499.52 138.20   L 470.82 113.88"
       id="path18" />
    <path
       stroke="#ff8080"
       vector-effect="non-scaling-stroke"
       d="   M 470.82 113.88   L 447.47 93.94   Q 445.61 92.36 448.04 92.19   C 469.19 90.65 512.80 84.98 517.23 57.50   Q 518.84 47.52 516.38 36.34   C 512.73 19.76 500.75 14.03 484.99 14.01   Q 456.93 13.96 360.18 14.02   A 1.01 1.00 11.6 0 0 359.26 14.62   L 308.75 130.71"
       id="path20" />
    <path
       stroke="#cc4d4d"
       vector-effect="non-scaling-stroke"
       d="   M 470.82 113.88   L 413.65 119.97"
       id="path22" />
    <path
       stroke="#cc4d4d"
       vector-effect="non-scaling-stroke"
       d="   M 366.02 125.07   L 308.75 130.71"
       id="path24" />
    <path
       stroke="#cccccc"
       vector-effect="non-scaling-stroke"
       d="   M 646.11 95.93   L 647.79 106.85   A 1.00 1.00 0.0 0 1 646.80 108.00   L 591.84 108.00   A 1.00 0.99 -12.7 0 1 590.94 107.44   C 590.24 106.00 593.00 103.45 594.70 101.72"
       id="path26" />
    <path
       stroke="#cc4d4d"
       vector-effect="non-scaling-stroke"
       d="   M 695.96 91.00   L 646.11 95.93"
       id="path28" />
    <path
       stroke="#ff8080"
       vector-effect="non-scaling-stroke"
       d="   M 646.11 95.93   L 638.67 54.85   Q 638.38 53.24 637.29 54.45   L 594.70 101.72"
       id="path30" />
    <path
       stroke="#cc4d4d"
       vector-effect="non-scaling-stroke"
       d="   M 594.70 101.72   Q 591.12 101.50 588.06 101.82   Q 558.74 104.96 529.41 108.05   A 0.17 0.16 80.8 0 1 529.23 107.91   L 529.21 107.75"
       id="path32" />
    <path
       stroke="#cccccc"
       vector-effect="non-scaling-stroke"
       d="   M 713.34 88.96   Q 714.11 103.20 723.98 114.27   C 748.93 142.25 791.03 139.47 825.00 140.17   Q 830.32 140.28 831.96 139.23   C 844.59 131.13 854.61 120.26 863.60 108.61   Q 864.84 106.99 862.80 107.00   Q 830.91 107.02 799.02 106.98   C 783.98 106.96 772.88 96.81 767.28 83.31"
       id="path34" />
    <path
       stroke="#ff8080"
       vector-effect="non-scaling-stroke"
       d="   M 767.28 83.31   C 764.36 69.76 776.26 55.41 787.14 49.08   Q 791.59 46.49 796.00 46.49   Q 833.69 46.51 870.26 46.49   A 1.00 0.99 -63.7 0 0 870.87 46.28   Q 888.79 32.45 904.00 15.68   Q 905.52 14.01 903.26 14.01   Q 847.71 13.97 792.07 14.03   Q 782.02 14.04 777.10 14.84   C 743.71 20.24 709.54 52.90 713.34 88.96"
       id="path36" />
    <path
       stroke="#cc4d4d"
       vector-effect="non-scaling-stroke"
       d="   M 767.28 83.31   Q 740.35 86.73 713.34 88.96"
       id="path38" />
    <path
       stroke="#cccccc"
       vector-effect="non-scaling-stroke"
       d="   M 888.21 71.00   Q 887.46 71.52 887.32 71.82   Q 872.89 104.69 858.10 138.60   A 1.00 1.00 0.0 0 0 859.01 140.00   L 912.03 140.00   A 1.00 0.99 -78.2 0 0 912.94 139.40   L 945.19 65.31"
       id="path40" />
    <path
       stroke="#ff8080"
       vector-effect="non-scaling-stroke"
       d="   M 945.19 65.31   Q 945.61 64.32 946.12 63.19   Q 956.75 39.32 967.21 15.40   A 1.00 1.00 0.0 0 0 966.30 14.00   L 913.36 14.00   A 1.01 1.00 11.6 0 0 912.44 14.60   Q 900.29 42.18 888.46 69.88   Q 888.23 70.40 888.21 71.00"
       id="path42" />
    <path
       stroke="#cc4d4d"
       vector-effect="non-scaling-stroke"
       d="   M 945.19 65.31   L 888.21 71.00"
       id="path44" />
    <path
       stroke="#cccccc"
       vector-effect="non-scaling-stroke"
       d="   M 961.96 63.50   Q 961.39 63.86 961.30 64.06   Q 945.35 101.11 928.77 138.60   A 1.00 1.00 0.0 0 0 929.68 140.00   L 983.35 140.00   A 1.00 0.99 -78.2 0 0 984.26 139.40   Q 996.94 110.34 1009.56 81.27   Q 1011.27 77.33 1012.99 73.99   Q 1014.26 71.53 1014.86 74.23   L 1029.31 139.20   A 1.01 1.01 0.0 0 0 1030.29 139.98   L 1097.81 140.01   A 1.03 1.01 -67.2 0 0 1098.53 139.71   Q 1099.99 138.23 1101.51 134.79   Q 1121.25 90.04 1140.49 45.19"
       id="path46" />
    <path
       stroke="#ff8080"
       vector-effect="non-scaling-stroke"
       d="   M 1140.49 45.19   L 1153.39 15.40   A 1.00 1.00 0.0 0 0 1152.47 14.00   L 1100.12 14.00   A 1.01 1.00 11.6 0 0 1099.20 14.60   L 1083.38 50.63"
       id="path48" />
    <path
       stroke="#cccccc"
       vector-effect="non-scaling-stroke"
       d="   M 1083.38 50.63   Q 1076.23 65.24 1069.86 80.70   Q 1069.05 82.68 1068.36 80.65   Q 1068.13 79.95 1067.85 79.17   Q 1067.43 77.99 1067.21 76.80   Q 1065.07 65.05 1061.76 53.40"
       id="path50" />
    <path
       stroke="#ff8080"
       vector-effect="non-scaling-stroke"
       d="   M 1061.76 53.40   L 1052.97 14.78   A 1.01 1.01 0.0 0 0 1051.99 14.00   L 984.20 14.00   A 1.01 1.00 11.6 0 0 983.28 14.60   L 961.96 63.50"
       id="path52" />
    <path
       stroke="#cc4d4d"
       vector-effect="non-scaling-stroke"
       d="   M 1061.76 53.40   L 961.96 63.50"
       id="path54" />
    <path
       stroke="#cc4d4d"
       vector-effect="non-scaling-stroke"
       d="   M 1140.49 45.19   L 1083.38 50.63"
       id="path56" />
    <path
       stroke="#cccccc"
       vector-effect="non-scaling-stroke"
       d="   M 1158.75 43.13   C 1142.73 61.38 1135.60 88.65 1150.23 110.21   C 1165.94 133.36 1201.46 139.35 1227.26 139.74   Q 1252.81 140.12 1278.40 139.98   A 1.00 0.97 -74.1 0 0 1279.24 139.50   Q 1280.78 136.98 1281.48 135.45   Q 1288.67 119.73 1311.09 70.07   Q 1313.31 65.16 1314.20 62.87   A 1.00 0.99 10.8 0 0 1313.27 61.51   Q 1281.26 61.50 1249.22 61.49   C 1244.51 61.48 1241.07 64.70 1237.84 67.85   Q 1226.43 78.96 1216.78 91.12   Q 1215.50 92.74 1217.57 92.75   L 1246.70 92.75   A 1.00 1.00 0.0 0 1 1247.61 94.16   L 1241.94 106.87   A 1.02 1.02 0.0 0 1 1241.03 107.46   C 1234.79 107.51 1227.08 108.11 1221.55 106.82   C 1210.41 104.22 1196.59 91.17 1196.26 79.16   C 1195.93 67.07 1207.27 52.04 1218.32 48.12   Q 1222.19 46.74 1229.86 46.74   Q 1264.40 46.76 1298.95 46.75   A 1.03 1.01 28.2 0 0 1299.50 46.59   Q 1312.10 38.25 1322.25 26.57"
       id="path58" />
    <path
       stroke="#ff8080"
       vector-effect="non-scaling-stroke"
       d="   M 1322.25 26.57   Q 1328.08 21.57 1333.40 15.68   Q 1334.91 14.01 1332.66 14.01   Q 1276.20 13.97 1219.76 14.02   C 1195.31 14.04 1174.51 24.23 1158.75 43.13"
       id="path60" />
    <path
       stroke="#cc4d4d"
       vector-effect="non-scaling-stroke"
       d="   M 1322.25 26.57   C 1267.71 31.85 1213.27 37.82 1158.75 43.13"
       id="path62" />
    <path
       stroke="#cccccc"
       vector-effect="non-scaling-stroke"
       d="   M 881.71 51.00   Q 882.89 48.34 880.50 50.71"
       id="path64" />
    <path
       stroke="#cccccc"
       vector-effect="non-scaling-stroke"
       d="   M 1225.29 61.25   Q 1227.45 59.72 1224.75 60.04"
       id="path66" />
    <path
       stroke="#cc4d4d"
       vector-effect="non-scaling-stroke"
       d="   M 175.04 43.50   L 174.96 44.25"
       id="path68" />
    <path
       stroke="#ff8080"
       vector-effect="non-scaling-stroke"
       d="   M 393.59 62.14   Q 389.97 70.38 386.40 78.54   Q 385.02 81.68 387.64 79.47   L 408.75 61.73   A 1.00 0.97 -64.5 0 1 409.39 61.49   Q 431.91 61.51 454.48 61.49   C 461.89 61.49 463.88 52.46 461.43 47.09   A 1.00 1.00 0.0 0 0 460.52 46.51   L 401.32 46.50   A 1.01 1.00 12.5 0 0 400.41 47.07   Q 396.87 54.69 393.59 62.14"
       id="path70" />
    <path
       stroke="#cccccc"
       vector-effect="non-scaling-stroke"
       d="   M 176.50 44.79   L 176.00 45.29"
       id="path72" />
    <path
       stroke="#ff8080"
       vector-effect="non-scaling-stroke"
       d="   M 44.79 86.00   L 44.25 87.54"
       id="path74" />
    <path
       stroke="#ff8080"
       vector-effect="non-scaling-stroke"
       d="   M 131.54 86.25   L 131.50 87.46"
       id="path76" />
    <path
       stroke="#ff8080"
       vector-effect="non-scaling-stroke"
       d="   M 89.04 87.50   L 88.21 85.75"
       id="path78" />
    <path
       stroke="#ff8080"
       vector-effect="non-scaling-stroke"
       d="   M 219.17 86.11   L 219.29 87.00"
       id="path80" />
    <path
       stroke="#ff8080"
       vector-effect="non-scaling-stroke"
       d="   M 175.75 87.21   L 175.96 86.00"
       id="path82" />
    <path
       stroke="#ff8080"
       vector-effect="non-scaling-stroke"
       d="   M 88.29 129.00   L 87.96 129.50"
       id="path84" />
  </g>
  <g
     fill="#ffffff"
     id="g106">
    <path
       d="   M 1348.00 13.31   L 1348.00 14.56   Q 1347.41 19.75 1343.98 23.75   Q 1333.05 36.48 1320.12 47.36   A 1.00 1.00 0.0 0 0 1320.30 49.01   Q 1326.82 52.41 1328.03 59.34   C 1328.80 63.80 1326.69 68.13 1324.77 72.30   Q 1317.73 87.61 1294.67 138.43   C 1292.72 142.72 1290.63 148.34 1286.89 150.91   C 1282.43 153.98 1278.80 152.95 1273.79 152.97   Q 1252.55 153.06 1231.32 152.97   C 1193.85 152.81 1145.44 143.61 1131.78 102.57   Q 1130.95 100.10 1129.91 102.48   Q 1121.54 121.61 1113.48 140.11   C 1108.95 150.50 1107.15 153.09 1094.59 153.04   Q 1065.37 152.92 1036.14 153.05   C 1028.43 153.09 1023.99 153.96 1019.63 148.47   Q 1017.62 145.93 1016.14 139.44   Q 1013.44 127.59 1010.46 115.75   Q 1009.93 112.78 1009.00 115.71   Q 1002.74 129.27 996.88 143.07   C 992.44 153.50 987.56 152.94 977.41 152.97   Q 952.23 153.04 927.07 152.75   Q 923.55 152.71 921.05 151.19   A 1.02 1.01 46.4 0 0 920.08 151.16   C 915.55 153.48 912.61 152.65 907.92 152.72   Q 882.43 153.09 856.91 153.02   C 851.03 153.00 845.87 147.95 844.71 142.61   A 1.00 0.99 65.5 0 0 843.14 142.02   L 828.95 152.64   A 0.97 0.93 -62.9 0 1 828.37 152.84   C 788.71 153.84 742.34 155.88 710.66 126.92   Q 710.47 126.75 710.27 126.69   Q 710.12 126.65 709.98 126.63   A 0.51 0.51 0.0 0 0 709.43 127.25   C 711.48 136.77 713.80 146.73 704.25 151.80   Q 701.98 153.00 698.36 153.00   Q 673.24 153.01 648.12 152.98   C 642.57 152.98 639.30 152.17 636.51 147.54   Q 635.29 145.51 634.10 143.27   A 1.00 1.00 0.0 0 0 632.55 143.00   Q 627.23 147.77 624.43 149.67   Q 619.54 153.00 617.25 153.00   Q 526.14 152.99 435.02 153.01   C 427.65 153.01 427.10 152.36 420.54 147.36   Q 399.66 131.45 379.14 115.62   A 1.00 1.00 0.0 0 0 377.61 116.01   Q 371.73 129.74 365.91 142.91   C 363.25 148.93 360.10 153.04 353.49 153.02   Q 330.89 152.94 308.11 153.06   A 1.01 1.00 -0.0 0 0 307.11 154.05   L 306.94 173.00   L 263.31 173.00   L 263.00 130.00   A 1.00 0.99 -0.3 0 1 264.00 129.00   L 287.15 129.00   A 1.01 1.00 11.6 0 0 288.07 128.40   L 305.11 89.40   A 1.00 1.00 0.0 0 0 304.19 88.00   L 265.02 88.00   A 1.00 0.99 63.7 0 1 264.41 87.79   L 263.71 87.25   L 263.46 85.75   C 262.04 72.56 262.97 58.08 262.96 44.75   L 263.25 44.21   L 305.99 44.02   A 1.00 0.99 89.7 0 1 306.99 45.02   L 307.01 81.12   Q 307.01 84.99 308.54 81.44   L 324.55 44.43   Q 330.45 30.05 336.86 15.75   C 340.16 8.38 341.27 4.94 346.80 1.05   Q 410.03 1.01 473.27 0.96   Q 487.51 0.94 493.16 2.33   C 509.83 6.39 519.86 19.43 522.97 35.94   C 525.08 47.09 525.02 59.97 520.06 70.05   C 511.13 88.18 490.66 97.44 472.12 101.45   Q 470.13 101.89 471.69 103.20   L 491.28 119.72   A 1.00 0.99 -48.2 0 0 492.65 119.64   Q 540.37 68.95 587.75 18.02   C 593.42 11.93 602.06 4.98 610.52 1.91   Q 613.67 0.77 618.75 0.83   Q 639.76 1.10 660.75 1.01   Q 668.70 0.98 672.01 2.03   C 689.31 7.52 693.76 41.68 696.28 56.49   Q 696.49 57.70 697.43 57.37   A 0.82 0.78 -84.3 0 0 697.87 56.99   C 700.64 51.75 703.22 45.98 706.46 41.39   Q 724.38 16.00 753.74 5.20   C 762.32 2.04 770.04 1.03 779.99 1.02   Q 839.37 0.97 898.75 1.01   Q 902.34 1.02 905.03 2.39   A 0.99 0.98 -44.0 0 0 905.92 2.40   Q 908.18 1.31 909.25 1.29   Q 938.00 0.69 966.74 1.34   C 969.43 1.40 971.29 0.93 973.91 2.25   C 975.03 2.81 977.10 2.93 977.88 2.31   Q 979.47 1.01 981.53 1.01   Q 1015.57 0.99 1049.14 1.00   C 1059.69 1.00 1063.96 3.23 1066.33 13.35   Q 1069.29 25.95 1072.09 38.59   Q 1072.74 41.55 1073.98 38.78   Q 1080.13 25.02 1086.27 10.80   C 1089.30 3.77 1092.38 1.02 1099.95 1.02   Q 1125.78 1.01 1151.61 0.98   C 1160.86 0.97 1166.98 5.05 1167.19 15.18   A 1.00 0.99 -15.6 0 0 1168.69 16.02   Q 1172.66 13.74 1176.95 11.31   C 1189.67 4.09 1201.53 1.02 1216.55 1.01   Q 1274.50 0.99 1332.45 0.99   C 1341.12 0.99 1346.85 4.13 1348.00 13.31   Z   M 308.75 130.71   L 305.38 138.61   A 1.00 1.00 0.0 0 0 306.30 140.00   L 358.95 140.00   A 1.00 0.98 -78.2 0 0 359.86 139.39   L 366.02 125.07   Q 371.90 112.38 377.56 99.06   Q 378.50 96.86 380.64 95.54   A 1.00 0.99 -41.6 0 1 381.77 95.60   L 413.65 119.97   L 439.22 139.79   A 1.00 0.99 63.7 0 0 439.83 140.00   L 622.31 140.00   A 0.98 0.96 24.3 0 0 622.94 139.77   Q 636.37 128.87 647.32 115.51   Q 648.36 114.24 648.72 115.85   L 653.82 139.21   A 1.00 1.00 0.0 0 0 654.80 140.00   L 703.89 140.00   A 1.00 1.00 0.0 0 0 704.87 138.82   L 695.96 91.00   Q 692.29 69.72 688.42 48.47   C 686.88 40.00 682.66 13.98 670.75 13.99   Q 647.87 14.01 624.94 13.99   C 619.93 13.98 611.79 19.83 609.10 22.60   Q 591.49 40.75 529.21 107.75   Q 515.73 121.68 502.47 135.82   Q 502.10 136.21 501.58 137.16   Q 501.31 137.63 500.93 138.08   A 1.01 1.00 39.9 0 1 499.52 138.20   L 470.82 113.88   L 447.47 93.94   Q 445.61 92.36 448.04 92.19   C 469.19 90.65 512.80 84.98 517.23 57.50   Q 518.84 47.52 516.38 36.34   C 512.73 19.76 500.75 14.03 484.99 14.01   Q 456.93 13.96 360.18 14.02   A 1.01 1.00 11.6 0 0 359.26 14.62   L 308.75 130.71   Z   M 713.34 88.96   Q 714.11 103.20 723.98 114.27   C 748.93 142.25 791.03 139.47 825.00 140.17   Q 830.32 140.28 831.96 139.23   C 844.59 131.13 854.61 120.26 863.60 108.61   Q 864.84 106.99 862.80 107.00   Q 830.91 107.02 799.02 106.98   C 783.98 106.96 772.88 96.81 767.28 83.31   C 764.36 69.76 776.26 55.41 787.14 49.08   Q 791.59 46.49 796.00 46.49   Q 833.69 46.51 870.26 46.49   A 1.00 0.99 -63.7 0 0 870.87 46.28   Q 888.79 32.45 904.00 15.68   Q 905.52 14.01 903.26 14.01   Q 847.71 13.97 792.07 14.03   Q 782.02 14.04 777.10 14.84   C 743.71 20.24 709.54 52.90 713.34 88.96   Z   M 888.21 71.00   Q 887.46 71.52 887.32 71.82   Q 872.89 104.69 858.10 138.60   A 1.00 1.00 0.0 0 0 859.01 140.00   L 912.03 140.00   A 1.00 0.99 -78.2 0 0 912.94 139.40   L 945.19 65.31   Q 945.61 64.32 946.12 63.19   Q 956.75 39.32 967.21 15.40   A 1.00 1.00 0.0 0 0 966.30 14.00   L 913.36 14.00   A 1.01 1.00 11.6 0 0 912.44 14.60   Q 900.29 42.18 888.46 69.88   Q 888.23 70.40 888.21 71.00   Z   M 961.96 63.50   Q 961.39 63.86 961.30 64.06   Q 945.35 101.11 928.77 138.60   A 1.00 1.00 0.0 0 0 929.68 140.00   L 983.35 140.00   A 1.00 0.99 -78.2 0 0 984.26 139.40   Q 996.94 110.34 1009.56 81.27   Q 1011.27 77.33 1012.99 73.99   Q 1014.26 71.53 1014.86 74.23   L 1029.31 139.20   A 1.01 1.01 0.0 0 0 1030.29 139.98   L 1097.81 140.01   A 1.03 1.01 -67.2 0 0 1098.53 139.71   Q 1099.99 138.23 1101.51 134.79   Q 1121.25 90.04 1140.49 45.19   L 1153.39 15.40   A 1.00 1.00 0.0 0 0 1152.47 14.00   L 1100.12 14.00   A 1.01 1.00 11.6 0 0 1099.20 14.60   L 1083.38 50.63   Q 1076.23 65.24 1069.86 80.70   Q 1069.05 82.68 1068.36 80.65   Q 1068.13 79.95 1067.85 79.17   Q 1067.43 77.99 1067.21 76.80   Q 1065.07 65.05 1061.76 53.40   L 1052.97 14.78   A 1.01 1.01 0.0 0 0 1051.99 14.00   L 984.20 14.00   A 1.01 1.00 11.6 0 0 983.28 14.60   L 961.96 63.50   Z   M 1158.75 43.13   C 1142.73 61.38 1135.60 88.65 1150.23 110.21   C 1165.94 133.36 1201.46 139.35 1227.26 139.74   Q 1252.81 140.12 1278.40 139.98   A 1.00 0.97 -74.1 0 0 1279.24 139.50   Q 1280.78 136.98 1281.48 135.45   Q 1288.67 119.73 1311.09 70.07   Q 1313.31 65.16 1314.20 62.87   A 1.00 0.99 10.8 0 0 1313.27 61.51   Q 1281.26 61.50 1249.22 61.49   C 1244.51 61.48 1241.07 64.70 1237.84 67.85   Q 1226.43 78.96 1216.78 91.12   Q 1215.50 92.74 1217.57 92.75   L 1246.70 92.75   A 1.00 1.00 0.0 0 1 1247.61 94.16   L 1241.94 106.87   A 1.02 1.02 0.0 0 1 1241.03 107.46   C 1234.79 107.51 1227.08 108.11 1221.55 106.82   C 1210.41 104.22 1196.59 91.17 1196.26 79.16   C 1195.93 67.07 1207.27 52.04 1218.32 48.12   Q 1222.19 46.74 1229.86 46.74   Q 1264.40 46.76 1298.95 46.75   A 1.03 1.01 28.2 0 0 1299.50 46.59   Q 1312.10 38.25 1322.25 26.57   Q 1328.08 21.57 1333.40 15.68   Q 1334.91 14.01 1332.66 14.01   Q 1276.20 13.97 1219.76 14.02   C 1195.31 14.04 1174.51 24.23 1158.75 43.13   Z   M 880.50 50.71   C 873.84 54.36 870.17 59.96 862.00 59.97   Q 824.35 60.00 787.42 60.01   A 1.03 0.99 25.2 0 0 786.80 60.22   C 781.85 64.09 774.47 70.54 773.34 76.99   C 772.04 84.34 782.31 92.51 789.13 93.79   Q 790.55 94.05 803.37 94.01   Q 833.03 93.89 862.20 94.53   A 1.00 0.99 -77.3 0 0 863.14 93.93   L 881.71 51.00   Q 882.89 48.34 880.50 50.71   Z   M 1225.29 61.25   Q 1227.45 59.72 1224.75 60.04   C 1217.97 61.83 1212.88 68.53 1210.25 74.58   C 1209.53 76.25 1210.21 78.55 1212.13 76.11   Q 1217.61 69.17 1224.21 63.29   C 1224.73 62.82 1225.04 61.88 1225.29 61.25   Z"
       id="path88" />
    <path
       d="   M 44.79 86.00   L 44.25 87.54   C 42.71 87.35 41.22 87.98 39.82 87.98   Q 20.96 88.04 2.00 87.97   A 1.01 1.00 0.3 0 1 1.00 86.97   L 1.00 45.00   A 1.00 1.00 0.0 0 1 2.00 44.00   L 43.93 44.00   A 1.00 1.00 0.0 0 1 44.93 45.00   L 44.79 86.00   Z"
       id="path90" />
    <path
       d="   M 131.54 86.25   L 131.50 87.46   Q 110.27 88.63 89.04 87.50   L 88.21 85.75   L 88.06 45.00   A 1.00 1.00 0.0 0 1 89.06 44.00   L 130.84 44.00   A 1.00 1.00 0.0 0 1 131.84 44.97   Q 132.44 65.62 131.54 86.25   Z"
       id="path92" />
    <path
       d="   M 219.00 45.00   L 219.17 86.11   L 219.29 87.00   Q 219.03 87.98 218.00 87.98   Q 197.38 88.00 176.75 88.00   Q 176.24 88.00 175.75 87.21   L 175.96 86.00   L 176.00 45.29   L 176.50 44.79   L 177.85 44.11   Q 178.06 44.00 178.30 44.00   L 216.95 44.00   Q 217.21 44.00 217.44 44.13   L 219.00 45.00   Z"
       id="path94" />
    <path
       d="   M 393.59 62.14   Q 396.87 54.69 400.41 47.07   A 1.01 1.00 12.5 0 1 401.32 46.50   L 460.52 46.51   A 1.00 1.00 0.0 0 1 461.43 47.09   C 463.88 52.46 461.89 61.49 454.48 61.49   Q 431.91 61.51 409.39 61.49   A 1.00 0.97 -64.5 0 0 408.75 61.73   L 387.64 79.47   Q 385.02 81.68 386.40 78.54   Q 389.97 70.38 393.59 62.14   Z"
       id="path96" />
    <path
       d="   M 646.11 95.93   L 647.79 106.85   A 1.00 1.00 0.0 0 1 646.80 108.00   L 591.84 108.00   A 1.00 0.99 -12.7 0 1 590.94 107.44   C 590.24 106.00 593.00 103.45 594.70 101.72   L 637.29 54.45   Q 638.38 53.24 638.67 54.85   L 646.11 95.93   Z   M 623.31 83.57   A 0.79 0.79 0.0 0 0 621.93 83.19   L 613.94 92.68   A 0.79 0.79 0.0 0 0 614.55 93.98   L 624.13 93.95   A 0.79 0.79 0.0 0 0 624.91 93.02   L 623.31 83.57   Z"
       id="path98" />
    <path
       d="   M 44.94 173.00   L 1.19 173.00   L 1.06 130.00   A 1.00 1.00 0.0 0 1 2.06 129.00   L 43.96 129.00   A 1.00 1.00 0.0 0 1 44.96 130.00   L 44.94 173.00   Z"
       id="path100" />
    <path
       d="   M 88.29 129.00   L 129.43 129.03   Q 131.98 129.03 131.97 131.55   L 131.78 173.00   L 88.19 173.00   L 87.96 129.50   L 88.29 129.00   Z"
       id="path102" />
    <path
       d="   M 218.94 173.00   L 176.19 173.00   L 176.08 130.00   A 1.00 1.00 0.0 0 1 177.08 129.00   L 217.98 129.00   A 1.00 1.00 0.0 0 1 218.98 130.00   L 218.94 173.00   Z"
       id="path104" />
  </g>
  <g
     fill="#ff0000"
     id="g136">
    <g
       id="g995">
      <rect
         x="45.00"
         y="1.00"
         width="43.00"
         height="43.00"
         rx="0.50"
         id="rect108" />
      <path
         d="   M 175.04 43.50   L 174.96 44.25   L 133.00 44.08   A 1.01 1.01 0.0 0 1 132.00 43.08   L 132.00 2.00   A 1.00 1.00 0.0 0 1 133.00 1.00   L 174.01 1.00   A 1.00 1.00 0.0 0 1 175.01 2.00   L 175.04 43.50   Z"
         id="path110" />
      <path
         d="   M 263.25 44.21   L 262.96 44.75   C 262.70 44.25 262.52 44.00 261.90 44.00   Q 241.44 43.99 220.98 44.01   A 1.00 1.00 0.0 0 0 220.12 44.50   Q 219.77 45.10 219.00 45.00   L 219.86 43.52   A 0.96 0.96 0.0 0 0 220.00 43.02   L 220.00 2.00   A 1.00 1.00 0.0 0 1 221.00 1.00   L 262.08 1.00   A 1.01 1.00 89.7 0 1 263.08 2.00   L 263.25 44.21   Z"
         id="path112" />
      <path
         d="   M 346.80 1.05   C 341.27 4.94 340.16 8.38 336.86 15.75   Q 330.45 30.05 324.55 44.43   Q 316.26 43.69 308.04 43.99   A 1.01 1.00 -0.8 0 1 307.00 42.99   L 307.00 2.13   A 1.00 1.00 0.0 0 1 308.00 1.13   L 346.80 1.05   Z"
         id="path114" />
      <path
         d="   M 470.82 113.88   L 413.65 119.97   L 381.77 95.60   A 1.00 0.99 -41.6 0 0 380.64 95.54   Q 378.50 96.86 377.56 99.06   Q 371.90 112.38 366.02 125.07   L 308.75 130.71   L 359.26 14.62   A 1.01 1.00 11.6 0 1 360.18 14.02   Q 456.93 13.96 484.99 14.01   C 500.75 14.03 512.73 19.76 516.38 36.34   Q 518.84 47.52 517.23 57.50   C 512.80 84.98 469.19 90.65 448.04 92.19   Q 445.61 92.36 447.47 93.94   L 470.82 113.88   Z   M 393.59 62.14   Q 389.97 70.38 386.40 78.54   Q 385.02 81.68 387.64 79.47   L 408.75 61.73   A 1.00 0.97 -64.5 0 1 409.39 61.49   Q 431.91 61.51 454.48 61.49   C 461.89 61.49 463.88 52.46 461.43 47.09   A 1.00 1.00 0.0 0 0 460.52 46.51   L 401.32 46.50   A 1.01 1.00 12.5 0 0 400.41 47.07   Q 396.87 54.69 393.59 62.14   Z"
         id="path116" />
      <path
         d="   M 695.96 91.00   L 646.11 95.93   L 638.67 54.85   Q 638.38 53.24 637.29 54.45   L 594.70 101.72   Q 591.12 101.50 588.06 101.82   Q 558.74 104.96 529.41 108.05   A 0.17 0.16 80.8 0 1 529.23 107.91   L 529.21 107.75   Q 591.49 40.75 609.10 22.60   C 611.79 19.83 619.93 13.98 624.94 13.99   Q 647.87 14.01 670.75 13.99   C 682.66 13.98 686.88 40.00 688.42 48.47   Q 692.29 69.72 695.96 91.00   Z"
         id="path118" />
      <path
         d="   M 767.28 83.31   Q 740.35 86.73 713.34 88.96   C 709.54 52.90 743.71 20.24 777.10 14.84   Q 782.02 14.04 792.07 14.03   Q 847.71 13.97 903.26 14.01   Q 905.52 14.01 904.00 15.68   Q 888.79 32.45 870.87 46.28   A 1.00 0.99 -63.7 0 1 870.26 46.49   Q 833.69 46.51 796.00 46.49   Q 791.59 46.49 787.14 49.08   C 776.26 55.41 764.36 69.76 767.28 83.31   Z"
         id="path120" />
      <path
         d="   M 945.19 65.31   L 888.21 71.00   Q 888.23 70.40 888.46 69.88   Q 900.29 42.18 912.44 14.60   A 1.01 1.00 11.6 0 1 913.36 14.00   L 966.30 14.00   A 1.00 1.00 0.0 0 1 967.21 15.40   Q 956.75 39.32 946.12 63.19   Q 945.61 64.32 945.19 65.31   Z"
         id="path122" />
      <path
         d="   M 1061.76 53.40   L 961.96 63.50   L 983.28 14.60   A 1.01 1.00 11.6 0 1 984.20 14.00   L 1051.99 14.00   A 1.01 1.01 0.0 0 1 1052.97 14.78   L 1061.76 53.40   Z"
         id="path124" />
      <path
         d="   M 1140.49 45.19   L 1083.38 50.63   L 1099.20 14.60   A 1.01 1.00 11.6 0 1 1100.12 14.00   L 1152.47 14.00   A 1.00 1.00 0.0 0 1 1153.39 15.40   L 1140.49 45.19   Z"
         id="path126" />
      <path
         d="   M 1322.25 26.57   C 1267.71 31.85 1213.27 37.82 1158.75 43.13   C 1174.51 24.23 1195.31 14.04 1219.76 14.02   Q 1276.20 13.97 1332.66 14.01   Q 1334.91 14.01 1333.40 15.68   Q 1328.08 21.57 1322.25 26.57   Z"
         id="path128" />
      <path
         d="   M 88.21 85.75   L 89.04 87.50   Q 87.98 88.07 87.97 89.25   Q 87.78 109.13 88.29 129.00   L 87.96 129.50   L 87.47 129.17   A 1.02 0.97 -26.8 0 0 86.91 129.00   L 46.00 129.00   A 1.00 1.00 0.0 0 1 45.00 128.00   L 45.00 88.84   A 1.00 0.99 26.3 0 0 44.79 88.23   L 44.25 87.54   L 44.79 86.00   L 88.21 85.75   Z"
         id="path130" />
      <path
         d="   M 263.46 85.75   L 263.71 87.25   Q 263.46 87.22 263.24 87.36   A 0.52 0.51 74.4 0 0 263.00 87.80   L 263.00 128.00   A 1.00 1.00 0.0 0 1 262.00 129.00   L 221.00 129.00   A 1.00 1.00 0.0 0 1 220.00 128.00   Q 220.00 107.87 220.00 87.75   Q 220.00 87.12 219.29 87.00   L 219.17 86.11   L 263.46 85.75   Z"
         id="path132" />
      <path
         d="   M 175.96 86.00   L 175.75 87.21   Q 175.55 87.21 175.35 87.31   A 0.64 0.62 77.4 0 0 175.00 87.88   L 175.00 128.00   A 1.00 1.00 0.0 0 1 174.00 129.00   L 133.01 128.99   A 1.00 1.00 0.0 0 1 132.01 127.99   C 131.99 116.01 131.13 103.08 132.26 91.40   Q 132.46 89.35 131.50 87.46   L 131.54 86.25   L 175.96 86.00   Z"
         id="path134" />
    </g>
  </g>
  <g
     fill="#999999"
     id="g158"
     style="fill:#808080">
    <path
       d="   M 175.04 43.50   L 176.50 44.79   L 176.00 45.29   L 174.96 44.25   L 175.04 43.50   Z"
       id="path140"
       style="fill:#808080" />
    <path
       d="   M 881.71 51.00   L 880.50 50.71   Q 882.89 48.34 881.71 51.00   Z"
       id="path144"
       style="fill:#808080" />
    <path
       d="   M 1224.75 60.04   Q 1227.45 59.72 1225.29 61.25   L 1224.75 60.04   Z"
       id="path146"
       style="fill:#808080" />
    <path
       d="   M 1010.46 115.75   L 1009.00 115.71   Q 1009.93 112.78 1010.46 115.75   Z"
       id="path154"
       style="fill:#808080" />
    <g
       id="g1003"
       style="fill:#808080">
      <path
         d="   M 1322.25 26.57   Q 1312.10 38.25 1299.50 46.59   A 1.03 1.01 28.2 0 1 1298.95 46.75   Q 1264.40 46.76 1229.86 46.74   Q 1222.19 46.74 1218.32 48.12   C 1207.27 52.04 1195.93 67.07 1196.26 79.16   C 1196.59 91.17 1210.41 104.22 1221.55 106.82   C 1227.08 108.11 1234.79 107.51 1241.03 107.46   A 1.02 1.02 0.0 0 0 1241.94 106.87   L 1247.61 94.16   A 1.00 1.00 0.0 0 0 1246.70 92.75   L 1217.57 92.75   Q 1215.50 92.74 1216.78 91.12   Q 1226.43 78.96 1237.84 67.85   C 1241.07 64.70 1244.51 61.48 1249.22 61.49   Q 1281.26 61.50 1313.27 61.51   A 1.00 0.99 10.8 0 1 1314.20 62.87   Q 1313.31 65.16 1311.09 70.07   Q 1288.67 119.73 1281.48 135.45   Q 1280.78 136.98 1279.24 139.50   A 1.00 0.97 -74.1 0 1 1278.40 139.98   Q 1252.81 140.12 1227.26 139.74   C 1201.46 139.35 1165.94 133.36 1150.23 110.21   C 1135.60 88.65 1142.73 61.38 1158.75 43.13   C 1213.27 37.82 1267.71 31.85 1322.25 26.57   Z"
         id="path138"
         style="fill:#808080" />
      <path
         d="   M 1140.49 45.19   Q 1121.25 90.04 1101.51 134.79   Q 1099.99 138.23 1098.53 139.71   A 1.03 1.01 -67.2 0 1 1097.81 140.01   L 1030.29 139.98   A 1.01 1.01 0.0 0 1 1029.31 139.20   L 1014.86 74.23   Q 1014.26 71.53 1012.99 73.99   Q 1011.27 77.33 1009.56 81.27   Q 996.94 110.34 984.26 139.40   A 1.00 0.99 -78.2 0 1 983.35 140.00   L 929.68 140.00   A 1.00 1.00 0.0 0 1 928.77 138.60   Q 945.35 101.11 961.30 64.06   Q 961.39 63.86 961.96 63.50   L 1061.76 53.40   Q 1065.07 65.05 1067.21 76.80   Q 1067.43 77.99 1067.85 79.17   Q 1068.13 79.95 1068.36 80.65   Q 1069.05 82.68 1069.86 80.70   Q 1076.23 65.24 1083.38 50.63   L 1140.49 45.19   Z"
         id="path142"
         style="fill:#808080" />
      <path
         d="   M 945.19 65.31   L 912.94 139.40   A 1.00 0.99 -78.2 0 1 912.03 140.00   L 859.01 140.00   A 1.00 1.00 0.0 0 1 858.10 138.60   Q 872.89 104.69 887.32 71.82   Q 887.46 71.52 888.21 71.00   L 945.19 65.31   Z"
         id="path148"
         style="fill:#808080" />
      <path
         d="   M 767.28 83.31   C 772.88 96.81 783.98 106.96 799.02 106.98   Q 830.91 107.02 862.80 107.00   Q 864.84 106.99 863.60 108.61   C 854.61 120.26 844.59 131.13 831.96 139.23   Q 830.32 140.28 825.00 140.17   C 791.03 139.47 748.93 142.25 723.98 114.27   Q 714.11 103.20 713.34 88.96   Q 740.35 86.73 767.28 83.31   Z"
         id="path150"
         style="fill:#808080" />
      <path
         d="   M 695.96 91.00   L 704.87 138.82   A 1.00 1.00 0.0 0 1 703.89 140.00   L 654.80 140.00   A 1.00 1.00 0.0 0 1 653.82 139.21   L 648.72 115.85   Q 648.36 114.24 647.32 115.51   Q 636.37 128.87 622.94 139.77   A 0.98 0.96 24.3 0 1 622.31 140.00   L 439.83 140.00   A 1.00 0.99 63.7 0 1 439.22 139.79   L 413.65 119.97   L 470.82 113.88   L 499.52 138.20   A 1.01 1.00 39.9 0 0 500.93 138.08   Q 501.31 137.63 501.58 137.16   Q 502.10 136.21 502.47 135.82   Q 515.73 121.68 529.21 107.75   L 529.23 107.91   A 0.17 0.16 80.8 0 0 529.41 108.05   Q 558.74 104.96 588.06 101.82   Q 591.12 101.50 594.70 101.72   C 593.00 103.45 590.24 106.00 590.94 107.44   A 1.00 0.99 -12.7 0 0 591.84 108.00   L 646.80 108.00   A 1.00 1.00 0.0 0 0 647.79 106.85   L 646.11 95.93   L 695.96 91.00   Z"
         id="path152"
         style="fill:#808080" />
      <path
         d="   M 366.02 125.07   L 359.86 139.39   A 1.00 0.98 -78.2 0 1 358.95 140.00   L 306.30 140.00   A 1.00 1.00 0.0 0 1 305.38 138.61   L 308.75 130.71   L 366.02 125.07   Z"
         id="path156"
         style="fill:#808080" />
    </g>
  </g>
</svg>
