<svg height="150.652" viewBox="0 0 577.133 120.521" width="721.416" xmlns="http://www.w3.org/2000/svg">
    <path d="M31.11 26.105h526.64c12.354 0 21.466 9.131 18.969 18.452l-8.983 32.75c-2.25 8.205-11.308 15.358-19.817 15.358H15.705c-8.508 0-17.608-7.153-15.358-15.358l9.832-35.844c1.918-6.992 9.327-15.358 20.931-15.358z" fill="#2285c8"/>
    <path d="M87.192 0h229.155c15.63 0 30.89 16.576 25.817 35.072l-11.782 42.954c-8.052 30.051-28.32 41.984-44.44 42.495H57.821c-15.406 0-31.884-12.951-27.809-27.809l17.41-63.472C51.706 13.255 73.448.465 87.192 0z" fill="#050608"/>
    <g fill="#ed1e24" stroke-width="24.385">
        <path d="M64.565 44.27H50.06l11.766-23.348h31.538l1.513-3.179h22.307l-13.587 26.855H89.092l-14.84 55.244H49.747zM113.245 44.27h-5.494l11.766-23.348h24.615l-13.22 49.215q-.737 2.74.74 4.604 1.478 1.864 4.885 1.864 3.626 0 6.493-2.083 2.867-2.083 3.839-5.7l12.867-47.9h24.505l-13.663 50.86q-.53 1.973-1.448 4.165-.919 2.192-7.152 12.715-6.094 10.413-17.926 11.51-11.862 1.205-14.28 1.205-11.098 0-17.736-5.152-6.528-5.152-6.975-10.851-.447-5.7-.239-8.112.209-2.411.62-3.946zM194.891 44.27h-14.505l11.766-23.348h31.538l1.513-3.179h22.307l-13.587 26.855h-14.505l-14.84 55.244h-24.505zM251.813 44.27h-14.505l11.766-23.348h31.537l1.514-3.179h22.307l-13.588 26.855H276.34L261.5 99.842h-24.504zM300.493 44.27h-5.494l11.985-23.348h24.285l-21.2 78.92h-24.504z"/>
    </g>
    <g fill="#fff" stroke-width="24.385">
        <path d="M356.141 51.733h-2.517l5.314-10.658h11.126l-9.115 36.026h-11.226zM392.846 41.726q1.989-.7 3.84-1.051 1.85-.35 3.41-.35 3.273 0 5.436 1.4l.869-.65 6.853 4.153-10.27 8.556-.515-.35-.843-.45q-1.295-.65-2.012-.8-.717-.151-1.309-.201-.591-.05-1.145-.05-4.732 0-6.498 2.402-1.702 2.351-1.967 2.802-.265.45-.468 1.25-.151.4-.328 1.101-.735 2.902.622 4.704 1.37 1.75 2.879 2.151 1.522.35 2.63.35 2.013 0 3.147-.7t1.524-1.05q.441-.351.97-.851h-5.839l4.821-9.307h16.865l-.127.7-.165.851q-.747 2.952-2.236 6.054-1.44 3.103-3.117 5.354-1.614 2.202-3.958 4.103-2.33 1.851-4.623 3.152-2.23 1.251-4.786 2.002-2.505.75-5.123.75-1.208 0-3.9-.3-2.706-.25-4.781-1.601-2.024-1.351-2.942-2.302-.917-.95-2.198-3.052-1.217-2.151-1.553-5.003-.323-2.902.652-6.755 1.342-5.304 3.913-8.106 2.584-2.852 4.361-4.303 1.84-1.501 3.843-2.652 2.015-1.2 4.068-1.951zM419.31 51.733h-2.517l5.314-10.658h11.126l-9.114 36.026h-11.227zM430.8 61.44q.088-.75.24-1.551.153-.801.533-2.302.316-1.25.947-2.552.682-1.3 2.435-4.053 1.804-2.752 5.596-5.404 3.805-2.702 6.688-3.752 2.897-1.101 6.497-1.401h.906q.453 0 .918-.05.705 0 1.045.05 2.467 0 4.354.7 1.899.65 3.936 2.152 2.1 1.45 3.091 3.102 1.005 1.601 1.556 3.002.602 1.401.788 3.252.186 1.852-.056 3.803-.229 1.901-.533 3.102-.848 3.353-2.98 6.405-2.08 3.052-3.933 4.803-1.79 1.702-3.931 3.002-2.091 1.301-3.728 2.002-1.637.7-3.425 1.2-1.725.451-3.626.601-1.9.15-3.662.15l-2.53-.35q-2.969-.6-4.943-1.751-1.911-1.201-3.645-3.503-1.683-2.301-2.308-4.803-.613-2.552-.23-5.854zm12.21-1.702q-.369 2.452.85 4.203 1.268 1.752 2.614 2.002 1.397.25 1.699.25h1.258q.428-.1 2.568-.4 2.153-.35 3.553-2.502 1.45-2.152 1.678-2.652.277-.5.43-1.1.746-2.953-.333-5.054-1.08-2.102-2.677-2.352-1.535-.3-2.24-.3-1.057 0-1.964.2-.856.2-2.065.8-1.146.55-2.872 2.002-1.676 1.451-2.335 4.053-.139.55-.164.85zM496.903 40.525l1.208.2 1.021-1.251 8.239 3.452-8.248 11.709-1.182-1.1q-2.778-2.152-5.345-2.152-1.007 0-2.581.45-1.51.4-3.842 2.251-2.318 1.802-3.027 4.604-.266 1.05-.106 3.402.16 2.352 2.349 3.252 2.188.901 3.346.901 3.122 0 7.216-2.852l.995-.75 2.376 10.307q-2.545 1.901-5.554 3.052-2.96 1.15-4.923 1.351-1.913.2-2.316.2-.416.05-.718.05-3.171 0-5.687-1-2.465-1.001-3.961-2.052-1.484-1.1-2.89-2.902-1.344-1.851-1.97-3.753-.577-1.901-.548-4.403.029-2.502.548-4.553.43-1.701 1.528-4.053 1.112-2.402 3.633-5.604 2.535-3.252 5.18-4.753 2.708-1.551 3.627-2.002.97-.45 2.355-.95 1.398-.55 3.035-.851 1.7-.35 3.511-.35 1.259 0 2.731.15zM508.025 51.683h-2.517l5.2-10.608h11.277l-3.038 12.009h8.055l3.038-12.009h11.226l-9.114 36.026h-11.227l3.178-12.56h-8.055l-3.177 12.56h-11.277zM542.547 51.733h-2.517l5.314-10.658h11.125l-9.114 36.026h-11.226z"/>
    </g>
    <text fill="#ef00eb" font-family="TrasksHand" font-size="15.607" stroke="#0105ff" stroke-width="19.508" x="-1296.764" y="960.356" transform="translate(149.667 -3.582) scale(.10252)"><tspan fill="#fafafa" fill-opacity=".4" stroke="none" x="-1296.764" y="960.356">John Loreth 2022</tspan></text>
</svg>
