<svg height="169.529" viewBox="0 0 105.459 27.901" width="640.775" xmlns="http://www.w3.org/2000/svg">
    <text fill="#ef00eb" font-family="TrasksHand" font-size=".329" stroke="#0105ff" stroke-width=".411" transform="rotate(11.405 1355.147 -187.693)" x="115.74" y="268.516"><tspan fill="#fafafa" fill-opacity=".4" stroke="none" x="115.74" y="268.516">John Loreth 2022</tspan></text>
    <path d="M101.038 0c-.009-.008-.129.091-.631.481-.271.234-.438.516-.582.82-.353.735-1.406 3.258-2.434 5.782-.05-.008-.086-.018-.152-.018-1.794 0-3.597.81-5.205 2.563-.72.784-1.089 1.507-1.438 2.129-.116.1-.225.148-.336.228.281-.539.488-1.16.488-1.88 0-.749-.258-1.46-.754-1.968-.438-.448-1.028-.616-1.586-.699a.216.216 0 0 0-.042-.037.137.137 0 0 0-.028-.013c-.362-.436-.908-.832-1.601-.832-1.066 0-1.855.614-2.492 1.18a9.92 9.92 0 0 0-1.33 1.464c.006-.083.025-.167.025-.25 0-.759-.377-1.314-.72-1.697a3.033 3.033 0 0 0-.561-.496c-.157-.106-.407-.309-.899-.309a1.99 1.99 0 0 0-1.086.33c-.274.184-.451.388-.592.541l-.03.036-.003.001c-.46.552-.73 1.022-.974 1.455a2.775 2.775 0 0 0-.299 1.905.216.216 0 0 0 .002.005.3.3 0 0 0 .016.055c-.01.03-.074.175-.243.455l.028-.033a.216.216 0 0 0-.035.047.216.216 0 0 0-.003.002c-.185.318-.295.463-.435.676.06-.537.136-1.09.149-1.573.015-.602-.012-1.328-.184-2.017-.086-.341-.208-.7-.461-1.043-.272-.366-.76-.707-1.346-.707-.75 0-1.29.428-1.635.8-.334.362-.558.743-.73 1.042l.012-.01a.216.216 0 0 0-.035.047.216.216 0 0 0-.003.004c-.33.587-.475 1.186-.312 1.754a.216.216 0 0 0 0 .005c.008.027.014.038.016.042.071.214.073.071.05.539a.216.216 0 0 0 0 .01v.019l-.042 1.449c-.553.637-1.102 1.234-1.522 1.613-.018.017-.03.022-.047.038.048-1.323.452-2.757 1.072-4.162a.216.216 0 0 0 .003-.007c.014-.034.026-.065.035-.093a.216.216 0 0 0 .001-.018c.013-.035.067-.173.096-.36a1.6 1.6 0 0 0-.045-.722c-.16-.524-.573-.881-1.049-1.162l-.011-.01c-.284-.18-.676-.316-1.086-.25-.045.007-.065.026-.098.041-.27-.252-.642-.502-1.225-.502-.561 0-1.982.212-3.652 1.665l-.004.003-.002.002-.008.004-.011.014-.002.002-.006.006a.216.216 0 0 0-.002.002c-1.58 1.745-3.043 3.56-4.86 5.035-.142.113-.248.169-.375.256.627-2.03 1.757-5.496 3.647-9.141l-.037.049a.216.216 0 0 0 .062-.149l-.021.096c.291-.568.585-1.107.572-1.824-.013-.724-.446-1.337-.98-1.807l-.002-.002-.008-.008A1.834 1.834 0 0 0 61.784.4c-.59 0-1.155.322-1.551.803v.002h-.002l-.002.002c-.002.003 0 .004-.002.006l-.004.003a.216.216 0 0 0-.006.007l-.008.013-.004.006c-.338.432-.652 1.036-1.15 2.098-.426.908-1.02 2.317-1.672 3.92a2.928 2.928 0 0 0-.47-.958c-.564-.761-1.379-1.254-2.184-1.617-.728-.328-1.44-.512-2.12-.552-.685-.667-1.34-1.07-2.103-1.07-.695 0-1.19.402-1.478.74-.208.243-.31.47-.4.674-.829.295-1.778.73-2.54 1.376a.384.384 0 0 0-.062.047c-.37.33-.656.766-.7 1.278a1.6 1.6 0 0 0 .455 1.238c.001.001.003 0 .004.002v.002c.466.497 1.02.6 1.409.617-.61 1.913-1.337 4.156-1.729 5.65a.216.216 0 0 0-.006.003l-.03.01c-.468.191-.926.448-1.24.93-.334.516-.33 1.193-.105 1.7a.216.216 0 0 0 .002.006c.015.03.017.031.012.021.468.977 1.522 1.701 2.799 1.701.593 0 1.157-.13 1.637-.601.042-.008.072-.016.14-.016 1.334 0 2.41-.242 3.182-.806v.002c.356-.257.807-.63.852-1.354.026-.42-.17-.863-.497-1.131-.295-.242-.613-.323-.888-.36h-.002c-.428-.057-.901-.118-1.301-.177.059-.184.12-.374.185-.568.117.05.248.094.409.094.294 0 .66-.04 1.062-.137H51.689l.012-.002.006-.002a.216.216 0 0 0 .004 0l-.008.004.014-.004a.216.216 0 0 0 .004-.002h.002a.216.216 0 0 0 .008-.002h.003a.216.216 0 0 0 .003 0c1.202-.324 2.413-.997 3.12-1.498.344-.219.669-.497.98-.805-.624 1.946-1.003 3.423-1.003 4.14 0 .706.213 1.38.627 1.913.42.541 1.088.938 1.85.938 1.417 0 2.623-.728 3.705-1.6.156.355.347.68.607.912.235.208.48.362.715.475.216.103.454.213.826.213.878 0 1.686-.387 2.503-.989a.216.216 0 0 0 .003-.006c.004-.002.008-.007.012-.01.408-.293.902-.71 1.369-1.12.174.506.42.985.787 1.355.462.466 1.084.77 1.815.77 1.001 0 1.854-.5 2.632-1.104.213-.166.38-.362.553-.55.048.101.096.201.155.292a171.917 171.917 0 0 0-2.212 2.782l-.027.038a.216.216 0 0 0 0 .005c-.836 1.173-1.22 1.721-1.494 2.286a.216.216 0 0 0-.02.028c.024-.047.012-.019 0-.006a.771.771 0 0 1-.04.04c-.01.01-.029.023-.05.044-.35.148-.933.492-1.53 1.26a.216.216 0 0 0-.018.017.216.216 0 0 0-.002.004.216.216 0 0 0-.043.127v-.062c-.367.488-.684 1.019-.86 1.664v.002c-.2.667.048 1.357.473 1.765.407.391.94.586 1.496.586.768 0 1.66-.348 2.184-1.133.163-.243.24-.372.293-.429.053-.058.102-.087.291-.172a.216.216 0 0 0 .054-.04l-.043.034.012-.006c.285-.135.854-.402 1.404-.783.527-.365 1.28-.902 1.32-1.938l.003-.008a.216.216 0 0 0 0-.007v-.002l.002-.018a.216.216 0 0 0 0-.011v-.002c0-.26-.098-.466-.201-.649l.048-.064c.078-.105.188-.252.315-.412.26-.327.619-.767 1.06-1.305.883-1.075 2.095-2.54 3.538-4.317a.216.216 0 0 0 .003-.003c.62-.754 1.258-1.722 1.854-2.694-.055.337-.1.667-.1.975 0 2.23 1.731 3.766 3.555 3.766 1.876 0 3.532-.812 5.04-1.794.059.382.136.776.402 1.088.457.537 1.109.758 1.666.758 1.004 0 2.16-.452 3.474-1.345.359-.244.748-.638 1.143-1.024.042.331.111.67.314 1 .407.66 1.186 1.21 2.127 1.21 1.553 0 2.899-.94 4.035-1.983 1.129-1.036 2.051-2.24 2.565-3.284l.006-.01.004-.007-.018.021-.01.012-.002.004-.304-.172c.062.01.152.022.152.022l-.17-.034-.01-.004.18.038s.198.074.201.074h.002c.142-.3.264-.607.338-.942.07-.317.147-.778-.129-1.28l-.002-.005v-.002a.216.216 0 0 0-.002-.002l-.014-.025a.216.216 0 0 0-.006-.008c-.148-.247-.395-.434-.672-.554-.276-.12-.591-.176-.892-.098-.508.13-.82.459-1.06.791l-.002.004-.005.002v.002l-.009.008-.012.015-.002.002-.012.016a.216.216 0 0 0-.001.002c-.137.201-.934 1.175-1.69 1.943-.214.217-.4.37-.602.55.166-1.285.665-3.578 1.335-5.421.866-2.358 1.501-3.539 1.917-4.545.004-.007-.002.003 0-.002a.216.216 0 0 0 .02-.078l-.012.059c.157-.393.294-.805.266-1.291-.029-.481-.245-.911-.512-1.249a.216.216 0 0 0-.006-.011l-.023-.034-.01-.015h-.002l-.01-.01-.004-.004-.005-.008c-.003-.001-.003-.002-.005-.004-.262-.306-.53-.555-.853-.726a2.094 2.094 0 0 0-.965-.233c-.653.23-.36-.085-.374-.1zM6.82 3.465c-.604 0-1.275.268-1.695.793a2.018 2.018 0 0 1-.4.29 3.053 3.053 0 0 1-.811.315.216.216 0 0 0-.002.002c-.216.045-.51.126-.791.367a1.5 1.5 0 0 0-.5 1.11c0 .75.493 1.21.845 1.455.062.043.09.043.14.064-.507 1.826-1.36 4.539-2.01 6.016-.379.132-.7.359-.942.595l-.002.003-.002.002c-.364.343-.55.771-.617 1.177-.066.402-.043.84.191 1.27.082.165.16.332.219.455.03.065.057.117.072.148l.022.043c-.002-.002-.007-.008.005.016a.216.216 0 0 0 .006.01 1.76 1.76 0 0 0 1.217 1.214 1.94 1.94 0 0 0 1.483-.191c.161-.092.283-.148.359-.178l.062-.021h.005a.216.216 0 0 0 .005 0l.166.023c.15.023.374.061.686.116a.216.216 0 0 0 .013.002l.024.001c.007.001 0 .002.008.002.64.09 1.467.145 2.244.145 1.76 0 3.518-.536 4.871-1.625.156.354.347.68.607.912.235.208.48.362.715.475.216.103.454.213.826.213.878 0 1.686-.387 2.503-.989a.216.216 0 0 0 .003-.006c.004-.002.009-.007.012-.01.409-.293.904-.71 1.371-1.122.174.506.419.985.785 1.355a2.523 2.523 0 0 0 1.815.772c.927 0 1.74-.457 2.504-1.01.251.466.62.807 1.01.998a3.744 3.744 0 0 0 1.638.386c.48 0 .932-.127 1.395-.31l.007-.002c.008-.003.016-.004.024-.008h.004a.216.216 0 0 0 .01-.006l.01-.003.003-.003c.714-.294 1.64-.749 2.27-1.332a.216.216 0 0 0 .002-.003.216.216 0 0 0 .068-.155v.077c.269-.27.467-.567.623-.881.169-.34.33-.72.33-1.217 0-1.097-.555-2.043-1.232-2.907a.216.216 0 0 0-.002-.007 4.892 4.892 0 0 1-.451-.738c-.033-.068-.052-.115-.073-.167.085-.06.194-.14.39-.222.448-.187 1.12-.318 1.741-.346.032.208.088.438.3.648.022.023.044.045.07.067a.216.216 0 0 0 .001.004c.173.143.565.35 1.051.432-.309.898-.688 2.008-.863 2.5-.232.607-.367 1.09-.367 1.595 0 .844.446 1.55.996 1.977.538.418 1.18.633 1.83.633.462 0 .959-.086 1.504-.276 2.328-.757 3.613-1.846 4.197-2.46l.002-.003a.216.216 0 0 0 .002-.002.216.216 0 0 0 .059-.144v.054c.386-.441.646-.99.48-1.664-.104-.422-.471-.885-1.017-1-.493-.103-.895.077-1.178.258a.216.216 0 0 0-.01.006c.007-.005-.008.005-.004.002-.432.267-1.271.614-1.81.764.043-.237.165-.69.336-1.202.169-.507.366-1.025.529-1.42a32.463 32.463 0 0 0 2.861-.515c.789-.187 1.312-.334 1.75-.564l.006-.002a.349.349 0 0 0 .021-.012.216.216 0 0 0 .01-.004c.433-.247.78-.594.932-1.178.088-.335.073-.849-.283-1.248-.345-.386-.805-.469-1.14-.469-.543 0-1.589.05-2.546.088.122-.293.22-.553.441-.953a.216.216 0 0 0 .024-.074c.415-.804.322-1.889-.373-2.582-.345-.344-.892-.62-1.426-.62-.542 0-.953.196-1.336.43-.39.239-.803.575-1.06 1.118-.198.415-.448 1.101-.707 1.796a236.296 236.296 0 0 1-.467 1.237c-.358.073-.65.134-.87.176-.135-.363-.337-.729-.702-.983-.528-.366-1.223-.574-2.05-.574-1.235 0-2.704.487-3.806 1.437l-.002.002-.006.004c-.907.727-1.921 1.86-1.98 3.35-.69.882-1.392 1.686-1.95 2.209-.141.133-.238.2-.357.297.044-1.33.45-2.773 1.075-4.19a.216.216 0 0 0 .001-.006c.015-.034.026-.065.035-.093a.216.216 0 0 0 .002-.018c.013-.035.067-.173.096-.36a1.6 1.6 0 0 0-.045-.722c-.161-.524-.573-.881-1.049-1.162l-.011-.01c-.285-.18-.675-.315-1.084-.25a.216.216 0 0 0-.002 0c-.045.007-.065.026-.098.041-.27-.252-.642-.502-1.225-.502-.561 0-1.984.212-3.654 1.665l-.004.003-.002.002-.008.004-.005.008-.006.006-.002.002-.006.006c-1.194 1.08-2.388 2.462-3.174 4.043h-.002l-.004.005-.01.02v.002l-.002.002a11.13 11.13 0 0 0-.658 1.528 1.763 1.763 0 0 0-.896.152.179.179 0 0 0-.055.025l.032-.016c-.736.313-1.784.473-2.655.473-.397 0-1.064-.06-1.652-.149-.212-.031-.325-.064-.459-.097.145-.344.28-.667.6-1.455 0-.003 0-.002.002-.004a.216.216 0 0 0 .007-.02C7.906 9.957 8.32 8.777 8.507 8.241a.216.216 0 0 0 .002-.014c.062-.173.176-.42.285-.636.055-.11.109-.212.154-.291.043-.076.082-.133.084-.137l.004-.006a.216.216 0 0 0 .012-.01c.475-.58.58-1.369.33-1.996-.223-.557-.624-.942-1.053-1.216-.429-.275-.934-.471-1.506-.471zm81.498 3.941a.887.887 0 0 1 .05.014l.005.015a.216.216 0 0 0-.008 0c-.018-.006-.029-.026-.047-.029zm-36.041.717c.226.075.843.432.633.324-.003.015.005.01-.006.037-.032.078-.104.18-.178.27s-.15.167-.195.213l-.022.021c-.189.141-.481.316-.748.479.19-.512.38-1.019.516-1.344zM82.889 9.44c.088.056.32.208.248.16l-.199-.085-.055-.03.006-.045zm19.68 1.75.006.004a.216.216 0 0 0-.028.086zm-6.85.288c-.046.072-.085.139-.14.219-.41.613-.926 1.291-1.3 1.666-.006.006-.01.007-.016.012.113-.201.22-.396.47-.742l.001-.004.002-.002.002-.002.003-.005c.325-.46.66-.83.978-1.142zm-83.176.927a.216.216 0 0 0-.058.143l.035-.11zM73.92 22.794v.031l-.029.035a.216.216 0 0 0 .03-.066z" fill="#333"/>
    <g fill="#f4c401" stroke-width=".661">
        <path d="M8.273 15.724c-.996 0-2.746-.27-3.284-.484-.243-.08-.27-.296-.189-.457.135-.296.431-1.022.943-2.285 1.13-2.93 1.534-4.086 1.723-4.624.161-.457.457-1.102.726-1.425.243-.296.27-.618.162-.887-.215-.538-.942-.995-1.535-.995-.35 0-.619.108-.834.377-.323.403-.996.806-1.83.994-.27.054-.432.162-.432.404 0 .43.647.752 1.023.833.162.027.189.134.081.484-.511 1.908-1.534 5.188-2.315 6.882-.108.269-.215.322-.35.322-.27 0-.485.135-.754.404-.323.295-.377.833-.215 1.129.161.322.35.645.404.887.107.51.727.591 1.103.376.377-.215.674-.35.943-.35.188 0 .457.055 1.077.162.565.08 1.373.135 2.1.135 1.857 0 3.768-.565 4.845-1.802.404-.43.377-.94-.296-.645-.942.403-2.1.565-3.096.565zM19.385 7.793c-.297 0-1.454.108-2.935 1.398-1.13 1.022-2.261 2.339-2.961 3.764-.862 1.64-1.023 2.5-1.023 3.038 0 1.021 1.05 1.586 1.373 1.586.565 0 1.13-.242 1.857-.78.754-.538 2.181-1.828 2.504-2.204.162-.162.215-.162.242.08 0 .296 0 .538.054.941.108 1.102.835 1.963 1.83 1.963 1.697 0 4.308-2.527 5.493-4.866.242-.511.377-.995.242-1.237-.108-.188-.377-.215-.673.054-1.696 2.339-3.527 3.979-4.146 3.979-.404 0-.673-.377-.673-1.318 0-1.613.485-3.28 1.185-4.865.08-.242.215-.565-.539-.995-.242-.161-.43-.108-.646.08-.161.108-.296.108-.35-.053-.161-.215-.458-.565-.834-.565zm-.997 2.016c.35 0 .566.323.647.565.08.269 0 .618-.162.887-.108.188-.538.941-.915 1.371-.808.941-1.185 1.452-1.642 1.828-.404.35-.808.619-1.023.619s-.27-.377-.189-.726c.162-.726.915-2.232 1.83-3.307.781-.914 1.212-1.237 1.454-1.237z"/>
        <path d="M29.792 7.766c-.884 0-2.277.457-3.107 1.183-.777.618-1.607 1.667-1.607 2.635 0 .35.134.806.268 1.129.187.403.616 1.156.884 1.505.375.511.616.995.616 1.264 0 .161-.215.376-.563.376-.375 0-.535-.054-.803-.161-.241-.188-.429-.188-.67-.054-.241.108-.59.323-.964.753-.188.161-.215.376-.215.564.108.592 1.125.995 1.849.995.294 0 .616-.08 1.018-.242.589-.242 1.607-.807 1.955-1.13.321-.295.67-.967.67-1.37 0-.7-.402-1.479-1.018-2.258-.456-.619-.804-1.21-.804-1.72 0-.834 1.848-1.533 3.51-1.533.454 0 .856-.215.856-.726 0-.323-.107-.591-.455-.833-.348-.242-.75-.377-1.42-.377zM35.394 15.482c-.7 0-.808-.511-.674-1.318.108-.78.674-2.365 1.05-3.225.136-.27.243-.35.594-.404 2.397-.322 3.986-.752 4.444-.994.377-.215.7-.834.054-.834-.727 0-2.667.108-3.879.135-.162 0-.404.027-.323-.189.108-.241.539-1.37 1.131-2.446.27-.457.243-.94-.162-1.344-.215-.215-.377-.296-.646-.296-.404 0-1.158.403-1.4.914-.27.565-1.105 2.93-1.24 3.2-.107.295-.269.349-.511.403-.54.107-.997.215-1.32.268-.377.081-.539.215-.781.511-.216.242-.243.645-.054.834.161.134.377.295.673.268.35-.053.727-.08.943-.107.27-.027.27.08.188.269-.134.376-1.023 2.984-1.293 3.736-.215.565-.296.888-.296 1.21 0 .941.943 1.506 1.724 1.506.35 0 .7-.054 1.158-.215 2.155-.7 3.26-1.667 3.744-2.178.458-.484.35-1.21-.269-.806-.646.403-1.94 1.102-2.855 1.102zM56.458 8.277c0-.323-.107-.887-.43-1.317-.755-1.022-2.694-1.774-3.664-1.774-.215 0-.296-.054-.458-.216-.592-.591-1.104-.806-1.4-.806-.512 0-.862.618-.997.968-.08.161-.135.215-.377.322-.781.27-1.751.726-2.37 1.264-.458.403-.378.753-.19.94.216.243.54.296.755.296.189 0 .862-.376 1.266-.59.296-.162.296-.055.162.349-.647 2.07-1.832 5.672-2.29 7.473-.134.296-.323.43-.62.538-.727.295-.969.672-.754 1.156.297.618.916 1.075 1.805 1.075.377 0 .781-.161.943-.35.215-.241.566-.268.835-.268 1.158 0 2.128-.296 2.532-.592.485-.35.592-.78-.027-.86-.593-.08-1.616-.161-2.101-.296-.377-.107-.485-.215-.323-.645.377-1.478.916-3.01 1.481-4.57.647-1.774.89-2.446 1.212-3.172.108-.242.27-.296.485-.296.647 0 2.128.43 2.128 1.586 0 1.102-1.428 1.694-2.343 2.312-.566.376-1.078.753-1.293 1.022-.162.188-.323.51-.323.752 0 .296.296.457.511.457s.512-.027.835-.107c.997-.269 2.236-.941 2.802-1.344 1.023-.645 2.208-2.097 2.208-3.307zM55.938 15.831c0 .968.592 1.748 1.374 1.748 2.478 0 5.818-3.415 6.599-5 .215-.43.296-.834.188-1.05-.107-.187-.323-.214-.565.082-1.778 2.15-3.825 3.736-4.66 3.736-.431 0-.647-.376-.216-1.774.62-2.016 1.805-5.7 3.798-9.543.566-1.103.7-1.587-.188-2.34a.65.65 0 0 0-.485-.188c-.216 0-.458.108-.7.404-.404.51-1.347 2.392-2.99 6.505-1.832 4.57-2.155 6.64-2.155 7.42zM73.622 14.514c-.081 1.801.215 2.58.7 2.58h.189c.054 0 .027.054-.081.189-1.212 1.452-2.128 2.661-2.774 3.495-.862 1.21-1.213 1.72-1.428 2.177-.135.269-.377.484-.593.565-.215.08-.62.269-1.158.968-.35.457-.592.86-.727 1.37-.162.511.35.941.916.941.511 0 .942-.16 1.266-.645.323-.484.511-.752 1.05-.994.566-.27 2.074-.995 2.101-1.775 0-.242-.161-.43-.404-.51-.08-.108.054-.296.296-.619.27-.457 2.236-2.769 5.118-6.317 1.24-1.506 2.882-4.328 3.367-5.511.243-.592.377-1.156.377-1.479 0-.699-.808-1.398-1.077-1.398-.377 0-.593.215-.862.511-.404.484-.62.86-.862 1.29-.242.43-.242.807-.189 1.103.081.322.054.672-.35 1.344-1.454 2.5-2.316 3.414-2.424 3.414-.189 0-.35-.323-.296-.995.054-.887.35-2.85.377-3.898.027-1.075-.135-2.634-.89-2.634-.619 0-1.103.752-1.427 1.317-.242.43-.269.726-.215.914.054.161.135.376.108.94z"/>
        <path d="M68.71 7.793c-.296 0-1.454.108-2.935 1.398-1.13 1.022-2.261 2.339-2.96 3.764-.862 1.64-1.024 2.5-1.024 3.038 0 1.021 1.05 1.586 1.373 1.586.565 0 1.13-.242 1.858-.78.753-.538 2.18-1.828 2.503-2.204.162-.162.216-.162.243.08 0 .296 0 .538.053.941.108 1.102.835 1.963 1.831 1.963 1.696 0 4.308-2.527 5.492-4.866.242-.511.377-.995.242-1.237-.107-.188-.377-.215-.673.054-1.696 2.339-3.526 3.979-4.146 3.979-.403 0-.673-.377-.673-1.318 0-1.613.485-3.28 1.185-4.865.08-.242.215-.565-.539-.995-.242-.161-.43-.108-.646.08-.161.108-.296.108-.35-.053-.161-.215-.457-.565-.834-.565zm-.996 2.016c.35 0 .565.323.646.565.08.269 0 .618-.162.887-.107.188-.538.941-.915 1.371-.808.941-1.185 1.452-1.642 1.828-.404.35-.808.619-1.023.619s-.27-.377-.189-.726c.162-.726.916-2.232 1.831-3.307.78-.914 1.211-1.237 1.454-1.237zM81.807 14.917c0 1.694 1.212 2.662 2.45 2.662 3.152 0 6.52-2.285 8.351-4.624.35-.457.485-.941.35-1.183-.108-.188-.377-.215-.646.08-2.748 2.77-5.226 3.657-6.842 3.657-.781 0-1.212-.404-1.212-.995 0-.376.08-.618.215-.887.081-.188.162-.215.35-.135.243.108.54.215.836.215 1.454 0 2.397-.699 2.962-1.263.54-.592 1.024-1.371 1.024-2.339 0-1.021-.646-1.613-1.562-1.667a.613.613 0 0 1-.404-.242c-.162-.322-.431-.537-.943-.537-1.131 0-2.532 1.613-3.07 2.365-1.186 1.694-1.86 3.683-1.86 4.893zm3.636-2.769c-.35 0-.404-.08-.296-.403.323-.833 1.212-2.15 1.75-2.15.35 0 .62.214.62.59 0 .754-1.239 1.963-2.074 1.963z"/>
        <path d="M97.239 8.17c-1.482 0-2.936.618-4.391 2.204-2.02 2.204-2.694 4.355-2.694 5.511 0 1.344.62 1.747 1.213 1.747.592 0 1.67-.35 2.855-1.156.673-.457 1.966-1.586 2.613-2.392.134-.188.242-.161.215.054a9.523 9.523 0 0 0-.135 1.263c-.053.94.404 2.07 1.509 2.07 2.1 0 4.794-2.957 5.63-4.678.242-.51.376-.994.242-1.236-.162-.27-.485-.215-.808.242-.512.752-3.044 3.629-3.88 3.629-.403 0-.592-.484-.51-1.344.107-1.344.7-4.06 1.48-6.21.89-2.42 1.563-3.683 1.94-4.597.27-.672.27-1.022-.108-1.479-.43-.51-.7-.591-.996-.591-.189 0-.378.107-.593.564-.323.672-1.535 3.549-2.667 6.345-.054.161-.107.161-.242.134a2.722 2.722 0 0 0-.673-.08zm-.54 1.559c.216 0 .405.134.486.295.107.189.134.404-.027.753-.162.403-1.347 2.312-2.263 3.226-.862.834-1.508 1.183-1.831 1.183-.189 0-.35-.188-.35-.457 0-.403.134-.995 1.292-2.608C95.03 10.67 96.215 9.73 96.7 9.73z"/>
    </g>
</svg>
