<?xml version="1.0" encoding="UTF-8" ?>
<!DOCTYPE svg PUBLIC "-//W3C//DTD SVG 1.1//EN" "http://www.w3.org/Graphics/SVG/1.1/DTD/svg11.dtd">
<svg width="2362pt" height="539pt" viewBox="0 0 2362 539" version="1.1" xmlns="http://www.w3.org/2000/svg">
<g id="#000000ff">
<path fill="#000000" opacity="1.00" d=" M 541.00 86.65 C 588.02 85.26 635.61 83.31 682.02 92.58 C 702.62 96.73 722.87 103.85 740.39 115.63 C 764.44 131.41 781.86 155.99 791.11 183.04 C 793.59 190.82 796.77 198.68 796.27 207.01 C 796.96 226.03 792.23 245.19 782.74 261.69 C 773.72 277.67 760.80 291.11 746.57 302.55 C 735.31 311.74 721.82 317.82 708.01 322.07 C 695.43 325.58 682.83 329.03 670.18 332.27 C 714.54 377.00 758.93 421.69 803.21 466.49 C 725.16 467.74 647.12 469.04 569.07 469.85 C 557.05 470.27 545.01 469.69 532.99 470.25 C 501.73 470.17 470.48 470.47 439.23 469.98 C 439.28 355.64 439.24 241.31 439.25 126.98 C 439.31 113.45 439.12 99.93 439.35 86.41 C 448.86 87.53 458.44 87.47 468.00 87.54 C 473.98 87.90 479.97 87.75 485.95 87.51 C 504.31 87.59 522.65 87.04 541.00 86.65 M 451.00 99.93 C 451.06 218.81 450.87 337.69 451.10 456.57 C 559.14 456.40 667.18 456.56 775.22 456.49 C 734.83 415.62 694.30 374.89 653.91 334.03 C 650.99 331.00 650.33 325.94 652.15 322.20 C 653.48 319.70 656.56 320.33 658.89 320.13 C 684.77 319.49 709.93 310.47 731.61 296.58 C 746.75 287.17 760.47 274.96 769.81 259.63 C 780.28 242.78 784.58 222.62 783.93 202.92 C 783.89 198.75 782.43 194.80 781.17 190.88 C 776.30 175.75 769.11 161.25 759.18 148.78 C 747.86 134.47 732.94 123.08 716.28 115.68 C 696.10 106.87 674.18 102.96 652.38 100.81 C 585.33 94.60 517.98 107.86 451.00 99.93 Z" />
<path fill="#000000" opacity="1.00" d=" M 1708.60 86.51 C 1733.45 86.22 1758.38 86.98 1782.99 90.66 C 1802.47 93.51 1821.79 98.24 1839.85 106.23 C 1866.48 117.82 1889.77 136.85 1906.51 160.60 C 1912.52 168.26 1918.94 175.65 1923.82 184.13 C 1942.36 214.48 1948.55 250.82 1947.43 285.96 C 1946.71 309.21 1942.49 332.43 1934.21 354.21 C 1923.01 383.83 1904.95 411.31 1879.98 431.09 C 1882.24 435.45 1881.89 440.43 1881.85 445.18 C 1889.11 432.31 1901.58 422.45 1915.99 418.96 C 1933.07 414.30 1952.41 419.27 1965.02 431.74 C 1965.01 316.65 1964.95 201.56 1965.05 86.47 C 2089.65 86.54 2214.25 86.48 2338.85 86.50 C 2339.21 98.33 2338.86 110.18 2339.03 122.02 C 2339.59 137.32 2338.91 152.64 2339.49 167.94 C 2339.43 199.80 2339.98 231.66 2339.96 263.52 C 2269.91 263.47 2199.85 263.52 2129.80 263.50 C 2125.33 277.23 2125.08 292.56 2129.82 306.27 C 2154.68 306.19 2179.55 306.34 2204.42 306.19 C 2204.61 322.36 2204.44 338.52 2204.51 354.69 C 2179.68 356.01 2154.83 356.98 2130.00 358.27 C 2129.99 370.84 2130.00 383.42 2130.00 396.00 C 2158.98 395.92 2187.96 396.48 2216.94 396.49 C 2257.55 396.98 2298.16 396.95 2338.77 397.55 C 2338.79 408.60 2338.62 419.65 2338.85 430.70 C 2339.54 431.75 2340.26 432.80 2340.99 433.87 C 2344.08 439.39 2350.70 441.57 2354.20 446.76 C 2355.51 449.18 2355.18 452.42 2353.27 454.45 C 2350.10 458.00 2346.56 461.20 2343.18 464.53 C 2357.25 473.35 2363.43 492.20 2358.68 507.90 C 2355.09 521.35 2343.78 532.14 2330.28 535.38 C 2319.40 538.39 2307.46 535.86 2298.14 529.70 C 2293.48 526.45 2288.72 522.85 2286.18 517.63 C 2282.48 514.77 2278.56 512.09 2275.62 508.42 C 2273.45 506.01 2273.38 501.95 2275.64 499.58 C 2278.81 495.99 2282.40 492.80 2285.78 489.40 C 2280.54 485.74 2275.73 481.01 2273.45 474.93 C 2273.86 477.75 2273.24 480.54 2272.21 483.17 C 2274.67 489.53 2273.41 496.43 2273.69 503.07 C 2273.47 512.35 2274.13 521.67 2273.39 530.92 C 2273.21 535.21 2268.69 536.85 2265.04 536.69 C 2242.68 536.73 2220.32 536.64 2197.97 536.73 C 2195.01 536.65 2191.55 536.84 2189.23 534.70 C 2186.81 531.87 2187.35 527.85 2187.20 524.40 C 2185.23 524.36 2183.28 524.33 2181.36 524.28 C 2181.29 527.38 2181.71 530.69 2180.34 533.57 C 2178.62 536.31 2175.00 536.69 2172.07 536.72 C 2147.98 536.63 2123.87 536.79 2099.78 536.62 C 2096.84 536.81 2093.91 537.22 2090.98 537.22 C 2059.32 537.16 2027.66 537.21 1996.00 537.19 C 1993.21 537.11 1989.44 536.82 1988.47 533.66 C 1987.15 530.66 1988.89 527.65 1989.98 524.90 C 1985.51 524.98 1980.71 525.34 1976.90 522.56 C 1970.51 528.49 1962.77 533.11 1954.21 535.02 C 1934.20 540.32 1911.42 532.46 1898.91 515.99 C 1896.63 513.28 1893.54 511.45 1891.04 509.00 C 1887.37 505.59 1884.72 501.30 1881.88 497.23 C 1881.73 507.17 1881.85 517.11 1881.84 527.05 C 1881.75 529.70 1881.63 532.71 1879.75 534.79 C 1877.68 536.67 1874.67 536.64 1872.06 536.72 C 1860.02 536.68 1847.98 536.68 1835.95 536.72 C 1833.14 536.62 1829.71 536.62 1827.82 534.21 C 1825.91 531.34 1826.35 527.71 1826.16 524.45 C 1822.78 524.33 1819.08 524.76 1816.10 522.87 C 1813.92 521.33 1814.04 518.34 1813.92 515.98 C 1813.93 502.23 1813.94 488.49 1813.93 474.75 C 1809.48 474.76 1805.04 474.76 1800.61 474.72 C 1800.68 491.80 1800.57 508.89 1800.67 525.97 C 1800.59 528.73 1800.71 531.77 1799.11 534.17 C 1797.19 536.54 1793.82 536.61 1791.03 536.72 C 1779.00 536.69 1766.96 536.68 1754.93 536.72 C 1752.12 536.62 1748.67 536.62 1746.81 534.18 C 1744.91 531.32 1745.35 527.70 1745.16 524.45 C 1741.77 524.31 1738.06 524.75 1735.04 522.92 C 1732.65 521.07 1732.86 517.68 1732.72 514.99 C 1732.75 501.69 1732.76 488.39 1732.73 475.09 C 1729.58 474.23 1726.55 473.05 1723.53 471.88 C 1721.56 481.56 1715.92 490.29 1707.80 495.94 C 1714.00 505.49 1720.10 515.10 1726.40 524.59 C 1727.85 526.96 1729.77 529.79 1728.51 532.67 C 1727.24 536.01 1723.19 536.76 1720.04 536.71 C 1694.99 536.70 1669.95 536.67 1644.91 536.72 C 1642.11 536.65 1638.81 536.44 1636.93 534.10 C 1635.06 531.21 1635.59 527.58 1635.47 524.32 C 1633.54 524.34 1631.65 524.36 1629.77 524.39 C 1629.55 527.64 1630.07 531.28 1628.16 534.15 C 1626.26 536.59 1622.82 536.61 1620.02 536.72 C 1597.35 536.67 1574.68 536.71 1552.01 536.70 C 1549.27 536.59 1545.85 536.29 1544.43 533.58 C 1543.00 530.76 1543.31 527.49 1543.16 524.45 C 1539.76 524.31 1536.05 524.75 1533.03 522.91 C 1530.65 521.07 1530.87 517.69 1530.72 515.00 C 1530.77 500.24 1530.73 485.47 1530.75 470.71 C 1528.77 470.72 1526.79 470.67 1524.85 470.88 C 1522.76 473.33 1521.69 476.44 1520.21 479.27 C 1510.25 499.18 1500.33 519.10 1490.36 539.00 L 1477.74 539.00 C 1476.31 536.53 1475.10 533.96 1473.84 531.42 C 1471.61 531.12 1468.91 531.52 1467.32 529.63 C 1464.93 526.81 1463.65 523.28 1461.96 520.05 C 1453.73 503.67 1445.59 487.26 1437.27 470.94 C 1420.89 470.87 1404.52 471.35 1388.14 471.23 C 1391.59 476.01 1394.67 481.19 1395.96 487.01 C 1399.57 499.83 1395.60 514.04 1386.87 523.92 C 1376.57 534.81 1359.92 539.68 1345.58 534.68 C 1336.64 531.63 1327.89 526.00 1323.17 517.62 C 1318.57 514.21 1313.87 510.72 1310.79 505.78 C 1304.10 520.33 1290.53 531.41 1274.94 535.05 C 1255.06 540.20 1232.14 532.71 1219.89 516.05 C 1216.58 512.29 1212.20 509.66 1208.90 505.88 C 1208.84 512.93 1208.91 519.98 1208.90 527.03 C 1208.83 529.70 1208.68 532.72 1206.80 534.82 C 1204.69 536.74 1201.62 536.65 1198.97 536.73 C 1184.29 536.65 1169.62 536.73 1154.96 536.68 C 1140.28 536.55 1125.72 530.33 1115.79 519.48 C 1113.81 517.08 1111.92 514.55 1109.41 512.68 C 1103.92 508.56 1099.20 503.27 1096.37 496.98 C 1097.06 504.95 1096.52 512.97 1096.71 520.96 C 1096.62 524.94 1097.15 529.07 1095.85 532.91 C 1094.70 536.07 1090.92 536.61 1088.00 536.69 C 1065.32 536.72 1042.64 536.65 1019.96 536.72 C 1017.17 536.62 1013.75 536.63 1011.85 534.24 C 1009.91 531.38 1010.35 527.72 1010.16 524.45 C 1006.46 524.22 1001.77 525.04 999.05 521.92 C 996.98 517.91 997.90 513.16 997.79 508.82 C 992.56 523.98 977.89 534.84 962.06 536.42 C 949.59 537.60 936.16 533.76 927.33 524.59 C 924.40 521.81 922.55 518.03 919.19 515.71 C 913.72 511.71 908.92 506.52 906.45 500.13 C 905.22 511.89 898.14 522.87 888.24 529.24 C 878.07 536.14 864.84 538.46 852.96 535.22 C 844.28 533.25 836.57 527.82 831.35 520.67 C 828.46 516.55 823.73 514.32 820.57 510.46 C 812.68 501.23 809.01 489.02 808.51 477.04 C 808.32 473.58 809.96 469.11 814.04 469.04 C 822.46 468.47 830.93 468.96 839.38 468.83 C 839.34 455.21 839.41 441.59 839.33 427.98 C 839.40 425.23 839.23 422.18 840.87 419.81 C 842.52 417.69 845.43 417.37 847.93 417.26 C 853.96 417.13 859.99 417.32 866.03 417.22 C 847.31 399.95 831.98 379.00 821.26 355.88 C 811.55 334.61 806.90 311.28 805.95 287.99 C 805.08 267.23 806.79 246.23 812.34 226.16 C 816.57 210.52 823.66 195.81 832.15 182.06 C 859.46 137.10 906.19 104.36 957.90 94.49 C 992.89 88.03 1029.94 90.45 1063.09 103.81 C 1088.21 113.99 1111.06 129.70 1129.83 149.24 C 1141.96 162.01 1152.15 176.67 1159.55 192.66 C 1110.60 222.34 1061.54 251.83 1012.62 281.53 C 1064.06 304.22 1116.15 325.51 1169.23 344.07 C 1166.59 351.54 1163.54 358.86 1159.93 365.91 C 1145.72 394.29 1122.95 417.72 1096.60 435.12 C 1096.73 438.43 1096.71 441.75 1096.33 445.04 C 1104.98 427.50 1124.67 417.13 1143.89 417.09 C 1206.58 307.95 1269.32 198.84 1332.03 89.72 C 1392.17 197.56 1448.01 307.71 1505.00 417.22 C 1510.02 417.31 1515.04 417.13 1520.07 417.26 C 1523.01 417.31 1526.81 417.92 1527.95 421.12 C 1529.33 424.05 1527.43 427.02 1526.34 429.70 C 1527.77 429.61 1529.23 429.54 1530.71 429.48 C 1530.80 426.52 1530.42 423.39 1531.63 420.60 C 1533.01 418.02 1536.22 417.70 1538.73 416.87 C 1538.61 388.22 1539.17 359.59 1539.00 330.94 C 1538.82 304.63 1539.42 278.32 1539.25 252.00 C 1539.08 222.32 1539.67 192.64 1539.50 162.95 C 1539.32 137.46 1539.91 111.98 1539.75 86.48 C 1555.83 86.60 1571.90 87.35 1587.98 87.51 C 1613.53 87.44 1639.08 87.60 1664.63 87.42 C 1675.98 87.53 1687.36 87.48 1698.68 86.55 L 1699.03 86.54 C 1702.20 86.98 1705.42 86.95 1708.60 86.51 M 1550.55 417.27 C 1570.04 417.21 1589.54 417.26 1609.03 417.24 C 1611.71 417.19 1614.74 418.06 1616.28 420.42 C 1617.64 423.27 1617.18 426.53 1617.24 429.59 C 1619.13 429.52 1621.04 429.48 1622.97 429.44 C 1623.01 426.15 1622.73 422.55 1624.60 419.65 C 1626.01 417.70 1628.63 417.26 1630.90 417.24 C 1645.60 417.22 1660.30 417.27 1675.01 417.22 C 1686.80 416.97 1698.43 423.24 1705.03 432.96 C 1706.81 435.52 1709.63 437.00 1712.04 438.91 C 1712.32 433.34 1711.44 427.65 1712.57 422.16 C 1713.03 418.61 1716.75 417.14 1719.93 417.25 C 1746.98 417.24 1774.04 417.22 1801.10 417.26 C 1804.74 417.04 1808.09 419.23 1808.74 422.95 C 1812.38 422.02 1815.25 419.58 1818.44 417.79 C 1823.98 417.11 1828.74 414.13 1833.60 411.62 C 1846.84 404.44 1859.21 395.48 1869.57 384.51 C 1880.22 373.26 1888.36 359.85 1894.71 345.77 C 1903.46 326.12 1908.58 305.02 1911.37 283.74 C 1913.76 283.74 1916.17 283.75 1918.60 283.77 C 1914.23 320.30 1901.71 356.59 1878.54 385.54 C 1868.41 398.28 1855.74 408.82 1841.79 417.13 C 1848.75 417.46 1855.74 417.02 1862.72 417.34 C 1865.93 417.50 1868.53 419.79 1869.38 422.85 C 1898.56 397.43 1921.32 363.85 1931.29 326.24 C 1941.65 287.02 1938.50 244.24 1921.77 207.23 C 1913.54 189.29 1901.92 172.98 1888.11 158.92 C 1862.46 132.70 1830.09 112.21 1794.04 104.15 C 1784.91 101.63 1775.37 102.41 1766.03 101.72 C 1748.37 100.99 1730.70 100.19 1713.04 99.51 C 1687.03 99.61 1661.02 99.24 1635.02 99.76 C 1606.87 99.71 1578.72 99.80 1550.57 99.71 C 1550.44 205.56 1550.48 311.42 1550.55 417.27 M 1976.00 99.75 C 1976.00 214.12 1975.99 328.48 1976.01 442.85 C 1981.63 447.87 1986.30 453.88 1989.98 460.46 C 1994.63 460.52 1999.30 460.53 2003.97 460.45 C 2011.73 445.03 2019.35 429.53 2027.19 414.15 C 2029.14 409.55 2036.79 409.63 2038.67 414.23 C 2040.22 417.14 2041.59 420.15 2043.08 423.09 C 2045.99 422.48 2049.48 423.18 2050.80 426.17 C 2056.71 437.51 2062.24 449.05 2068.02 460.46 C 2072.84 460.53 2077.66 460.50 2082.49 460.49 C 2082.49 449.34 2082.51 438.18 2082.47 427.02 C 2082.50 424.64 2082.46 422.03 2083.84 419.97 C 2085.73 417.53 2089.12 417.20 2092.00 417.22 C 2104.65 417.27 2117.31 417.23 2129.97 417.24 C 2132.92 417.13 2136.43 418.27 2137.53 421.32 C 2138.28 423.97 2138.02 426.78 2138.11 429.51 C 2142.46 429.26 2149.51 429.16 2150.06 434.96 C 2150.70 443.45 2150.09 452.00 2150.36 460.52 C 2158.50 460.43 2166.65 460.60 2174.80 460.42 C 2174.73 448.29 2174.67 436.15 2174.81 424.03 C 2174.51 420.05 2178.25 417.27 2181.94 417.28 C 2205.30 417.17 2228.67 417.30 2252.03 417.22 C 2255.01 417.10 2258.53 417.73 2260.29 420.43 C 2261.63 423.26 2261.18 426.50 2261.24 429.54 C 2264.32 429.51 2267.59 429.16 2270.49 430.53 C 2273.15 431.99 2273.53 435.32 2273.61 438.06 C 2278.55 427.34 2289.54 420.12 2300.96 417.98 C 2310.11 415.94 2319.74 418.34 2327.77 422.90 C 2327.73 418.75 2327.77 414.60 2327.68 410.46 C 2258.95 410.56 2190.22 410.47 2121.49 410.50 C 2118.76 399.90 2118.12 388.89 2118.25 377.99 C 2118.12 366.63 2118.91 355.29 2119.99 344.00 C 2144.41 344.00 2168.83 344.00 2193.25 344.00 C 2193.26 335.51 2193.23 327.02 2193.27 318.54 C 2168.45 318.45 2143.63 318.52 2118.81 318.50 C 2112.84 298.51 2115.34 277.46 2115.28 256.94 C 2115.16 254.67 2117.59 253.55 2118.86 251.99 C 2188.49 252.00 2258.13 252.02 2327.77 251.98 C 2327.74 201.24 2327.75 150.51 2327.76 99.77 C 2210.51 99.72 2093.25 99.76 1976.00 99.75 M 891.62 135.71 C 864.19 154.40 842.73 181.52 830.26 212.23 C 821.98 232.75 818.17 254.91 817.99 277.00 C 817.83 297.11 820.34 317.36 826.63 336.51 C 831.81 352.26 839.61 367.17 849.75 380.31 C 860.10 393.50 872.07 405.42 885.27 415.76 C 887.29 417.37 890.06 417.37 892.29 418.61 C 893.73 419.92 894.21 422.01 895.74 423.26 C 897.66 424.76 899.77 426.00 901.80 427.37 C 902.15 424.56 902.07 421.34 904.06 419.08 C 905.91 417.32 908.63 417.21 911.04 417.22 C 934.05 417.27 957.06 417.23 980.06 417.24 C 982.78 417.27 985.99 417.99 987.47 420.52 C 988.79 423.35 988.41 426.57 988.37 429.60 C 991.54 429.37 994.81 429.31 997.83 430.55 C 997.81 427.18 997.24 423.58 998.71 420.43 C 1000.69 417.38 1004.71 417.07 1008.01 417.21 C 1029.99 417.26 1051.98 417.26 1073.96 417.21 C 1077.13 417.10 1080.84 417.32 1083.00 420.00 C 1084.68 422.64 1084.15 425.96 1084.25 428.94 C 1097.97 420.54 1110.80 410.61 1121.96 399.01 C 1134.64 385.83 1144.70 369.69 1148.66 351.68 C 1100.05 333.22 1051.80 313.76 1004.36 292.46 C 998.23 289.48 991.68 287.25 985.88 283.69 C 1038.98 252.91 1090.42 219.41 1142.59 187.11 C 1133.97 171.55 1122.58 157.56 1109.04 146.02 C 1086.11 126.43 1058.13 113.12 1028.83 106.31 C 1019.15 103.63 1009.01 103.84 999.06 103.74 C 961.18 103.63 922.93 114.10 891.62 135.71 M 1278.69 207.61 C 1237.98 278.12 1197.30 348.65 1156.54 419.13 C 1168.54 423.08 1180.06 430.14 1187.44 440.55 C 1191.80 444.56 1198.02 447.73 1199.42 453.95 C 1204.25 436.99 1219.06 423.67 1235.94 419.19 C 1254.96 413.76 1276.98 419.95 1289.95 435.00 C 1294.42 441.42 1301.86 445.04 1305.92 451.86 C 1306.57 446.63 1308.20 441.53 1310.91 436.99 C 1319.23 422.02 1338.38 413.76 1354.89 418.74 C 1363.35 420.96 1370.49 426.37 1376.90 432.11 C 1378.19 433.32 1378.72 435.08 1379.50 436.63 C 1382.84 438.87 1385.86 441.55 1388.95 444.14 C 1390.73 445.56 1392.02 447.64 1392.03 449.98 C 1391.98 454.33 1387.81 456.72 1385.15 459.56 C 1400.65 459.48 1416.16 459.43 1431.66 459.58 C 1428.71 453.82 1425.85 448.01 1422.83 442.30 C 1415.72 442.02 1408.63 442.63 1401.54 442.50 C 1401.49 440.79 1401.45 439.08 1401.42 437.38 C 1407.63 436.99 1413.85 436.95 1420.06 436.70 C 1418.07 432.25 1414.91 428.10 1414.49 423.11 C 1414.65 419.19 1418.52 417.19 1422.05 417.27 C 1434.73 417.18 1447.42 417.28 1460.11 417.23 C 1449.71 395.61 1436.54 375.27 1428.34 352.62 C 1430.02 351.67 1431.73 350.73 1433.47 349.85 C 1445.08 372.39 1456.81 394.89 1468.73 417.28 C 1475.95 417.21 1483.16 417.23 1490.38 417.26 C 1437.49 316.73 1385.03 215.97 1331.99 115.52 C 1314.03 146.10 1296.50 176.94 1278.69 207.61 M 1981.29 518.92 C 1987.46 518.92 1993.64 518.91 1999.82 518.93 C 1997.80 523.08 1995.61 527.15 1993.61 531.31 C 2028.00 531.34 2062.40 531.35 2096.80 531.30 C 2094.66 527.03 2092.55 522.74 2090.36 518.50 C 2093.83 518.54 2097.32 518.54 2100.83 518.49 C 2100.85 522.59 2100.84 526.69 2100.89 530.79 C 2125.77 530.77 2150.65 530.82 2175.54 530.77 C 2175.49 518.37 2175.57 505.98 2175.50 493.59 C 2171.37 493.59 2167.25 493.58 2163.14 493.62 C 2163.13 489.47 2163.14 485.31 2163.12 481.16 C 2156.93 481.18 2150.75 481.11 2144.57 481.23 C 2144.33 465.94 2144.55 450.65 2144.46 435.37 C 2140.35 435.35 2136.25 435.35 2132.16 435.39 C 2132.12 431.31 2132.13 427.24 2132.13 423.17 C 2117.54 423.17 2102.95 423.15 2088.36 423.18 C 2088.26 453.22 2088.56 483.28 2088.21 513.32 C 2083.95 506.53 2080.90 499.06 2077.16 491.99 C 2066.57 470.70 2055.91 449.46 2045.31 428.17 C 2044.28 430.14 2043.30 432.13 2042.35 434.13 C 2038.88 428.18 2036.11 421.86 2032.94 415.76 C 2015.73 450.15 1998.51 484.53 1981.29 518.92 M 845.26 423.17 C 845.31 440.30 845.16 457.43 845.33 474.56 C 835.02 474.78 824.70 474.65 814.39 474.63 C 814.22 488.35 818.99 503.19 830.49 511.50 C 834.65 513.99 836.52 518.73 840.15 521.80 C 852.06 533.20 871.93 533.55 885.18 524.26 C 895.10 517.63 901.39 506.01 901.49 494.07 C 901.58 474.51 901.50 454.94 901.53 435.37 C 897.33 435.36 893.15 435.36 888.96 435.36 C 888.96 431.29 888.96 427.22 888.95 423.16 C 874.38 423.18 859.82 423.15 845.26 423.17 M 908.01 423.15 C 907.97 441.11 908.02 459.07 907.99 477.03 C 907.99 481.74 907.79 486.55 909.12 491.13 C 911.27 499.31 916.17 506.96 923.44 511.49 C 926.64 513.30 927.98 516.93 930.47 519.49 C 941.38 531.45 960.52 534.10 974.71 526.68 C 987.04 520.46 995.36 506.85 994.92 492.99 C 994.90 473.77 994.96 454.56 994.89 435.34 C 990.78 435.36 986.68 435.36 982.58 435.37 C 982.58 431.30 982.58 427.24 982.59 423.18 C 957.73 423.14 932.87 423.19 908.01 423.15 M 1003.62 423.16 C 1003.55 454.93 1003.63 486.71 1003.58 518.48 C 1007.77 518.55 1011.97 518.53 1016.17 518.53 C 1016.16 522.61 1016.16 526.70 1016.17 530.79 C 1041.04 530.79 1065.91 530.79 1090.78 530.79 C 1090.79 516.25 1090.78 501.71 1090.79 487.17 C 1086.64 487.17 1082.50 487.20 1078.37 487.08 C 1078.39 484.43 1078.39 481.78 1078.39 479.14 C 1082.52 479.14 1086.65 479.14 1090.79 479.12 C 1090.78 464.53 1090.80 449.95 1090.78 435.36 C 1086.64 435.36 1082.52 435.35 1078.40 435.38 C 1078.40 431.32 1078.39 427.26 1078.42 423.21 C 1053.49 423.10 1028.55 423.21 1003.62 423.16 M 1106.79 439.78 C 1099.11 448.61 1094.73 460.33 1095.18 472.07 C 1095.31 485.93 1101.97 499.62 1113.03 508.04 C 1116.73 510.63 1119.00 514.66 1122.33 517.66 C 1130.98 526.03 1142.92 530.88 1154.97 530.78 C 1170.95 530.80 1186.93 530.78 1202.91 530.79 C 1203.15 514.13 1202.44 497.45 1203.31 480.81 C 1205.14 491.59 1211.43 501.39 1220.04 508.04 C 1224.29 511.09 1226.71 515.95 1230.79 519.20 C 1239.78 527.25 1252.02 531.27 1264.02 530.77 C 1280.49 530.32 1296.33 520.53 1304.09 505.99 C 1313.55 489.23 1311.48 466.68 1298.77 452.15 C 1295.32 447.61 1289.92 445.06 1286.70 440.33 C 1272.92 422.49 1245.56 417.91 1226.36 429.40 C 1209.86 438.62 1199.94 458.06 1202.43 476.85 C 1198.47 476.86 1194.52 476.86 1190.58 476.87 C 1190.59 472.69 1190.58 468.53 1190.58 464.36 C 1188.04 464.36 1185.50 464.36 1182.99 464.37 C 1186.48 460.79 1190.10 457.34 1193.63 453.80 C 1189.43 449.77 1185.07 445.85 1180.12 442.76 C 1180.35 442.36 1180.80 441.57 1181.03 441.17 C 1171.56 431.88 1159.60 424.07 1146.01 423.24 C 1131.26 422.02 1116.36 428.59 1106.79 439.78 M 1321.64 432.61 C 1313.63 440.30 1309.75 452.10 1311.93 463.02 C 1313.55 471.79 1318.94 479.70 1326.30 484.70 C 1328.23 485.93 1329.52 487.84 1330.81 489.71 C 1326.03 494.46 1321.28 499.22 1316.52 503.98 C 1320.35 508.22 1324.75 512.01 1329.93 514.53 C 1329.63 515.28 1329.34 516.05 1329.08 516.81 C 1335.65 523.77 1344.07 529.62 1353.82 530.60 C 1366.41 532.13 1379.46 525.78 1386.16 515.05 C 1394.25 502.71 1392.91 485.06 1382.73 474.30 C 1379.61 470.45 1374.33 468.87 1372.13 464.23 C 1376.82 459.46 1381.54 454.72 1386.24 449.96 C 1382.11 445.73 1377.48 441.97 1372.30 439.08 C 1372.67 438.65 1373.40 437.78 1373.76 437.34 C 1368.32 432.18 1362.31 427.34 1355.14 424.87 C 1343.68 420.70 1330.29 424.23 1321.64 432.61 M 1419.94 423.19 C 1437.09 457.51 1454.23 491.84 1471.58 526.06 C 1472.61 524.07 1473.65 522.08 1474.74 520.11 C 1477.74 525.95 1480.49 531.93 1483.61 537.72 C 1483.79 537.75 1484.16 537.82 1484.35 537.85 C 1492.94 520.94 1501.29 503.89 1509.82 486.93 C 1518.25 469.72 1527.22 452.75 1535.29 435.37 C 1529.19 435.35 1523.10 435.35 1517.02 435.38 C 1518.97 431.29 1521.05 427.26 1523.04 423.19 C 1488.67 423.15 1454.31 423.15 1419.94 423.19 M 1536.64 423.14 C 1536.53 454.93 1536.63 486.71 1536.59 518.50 C 1540.78 518.54 1544.97 518.53 1549.17 518.53 C 1549.15 522.61 1549.15 526.70 1549.17 530.79 C 1574.04 530.79 1598.91 530.79 1623.78 530.79 C 1623.79 516.25 1623.78 501.71 1623.79 487.17 C 1619.68 487.15 1615.59 487.14 1611.50 487.22 C 1611.40 484.53 1611.37 481.83 1611.36 479.14 C 1615.49 479.14 1619.64 479.14 1623.79 479.13 C 1623.78 464.54 1623.80 449.95 1623.78 435.36 C 1619.64 435.36 1615.52 435.35 1611.40 435.38 C 1611.39 431.32 1611.39 427.26 1611.42 423.21 C 1586.49 423.10 1561.57 423.22 1536.64 423.14 M 1629.01 423.16 C 1629.04 454.97 1628.90 486.78 1629.08 518.58 C 1633.17 518.51 1637.27 518.52 1641.37 518.53 C 1641.35 522.61 1641.35 526.69 1641.36 530.78 C 1668.65 530.78 1695.94 530.82 1723.24 530.76 C 1715.43 518.33 1707.33 506.08 1699.36 493.75 C 1706.74 490.52 1712.90 484.48 1715.89 476.96 C 1718.18 471.60 1718.41 465.60 1717.65 459.89 C 1716.34 451.89 1711.07 444.98 1704.41 440.58 C 1701.28 438.72 1699.77 435.28 1697.32 432.75 C 1691.83 426.96 1684.06 422.86 1675.93 423.15 C 1660.29 423.18 1644.65 423.17 1629.01 423.16 M 1718.05 423.16 C 1718.07 434.28 1717.93 445.40 1718.13 456.53 C 1722.20 456.45 1726.28 456.46 1730.38 456.47 C 1730.35 460.58 1730.35 464.69 1730.35 468.81 C 1733.10 468.81 1735.87 468.84 1738.64 468.93 C 1738.52 485.45 1738.65 501.96 1738.58 518.48 C 1742.77 518.55 1746.96 518.53 1751.17 518.53 C 1751.15 522.61 1751.15 526.70 1751.17 530.78 C 1765.69 530.79 1780.21 530.79 1794.74 530.78 C 1794.74 510.13 1794.73 489.48 1794.74 468.84 C 1801.64 468.83 1808.54 468.83 1815.45 468.84 C 1815.50 457.70 1815.43 446.55 1815.49 435.41 C 1811.29 435.34 1807.10 435.35 1802.92 435.36 C 1802.91 431.29 1802.91 427.23 1802.91 423.16 C 1774.63 423.16 1746.34 423.18 1718.05 423.16 M 1819.88 423.16 C 1819.80 454.92 1819.93 486.67 1819.82 518.43 C 1823.92 518.58 1828.04 518.54 1832.17 518.53 C 1832.15 522.61 1832.15 526.70 1832.17 530.79 C 1846.74 530.79 1861.30 530.78 1875.87 530.79 C 1875.88 498.98 1875.89 467.17 1875.86 435.35 C 1871.72 435.36 1867.59 435.35 1863.46 435.37 C 1863.46 431.31 1863.46 427.25 1863.48 423.19 C 1848.95 423.12 1834.41 423.19 1819.88 423.16 M 1891.43 441.51 C 1879.60 456.02 1877.83 477.62 1886.95 493.93 C 1890.32 500.30 1895.48 505.48 1901.18 509.81 C 1905.19 514.16 1908.85 518.96 1913.92 522.20 C 1929.24 533.11 1951.39 533.91 1966.95 523.08 C 1975.74 517.06 1982.00 508.13 1986.84 498.79 C 1981.89 496.34 1977.00 493.80 1972.01 491.46 C 1972.70 489.74 1973.42 488.03 1974.15 486.32 C 1970.01 484.30 1965.89 482.23 1961.83 480.09 C 1970.18 475.84 1978.55 471.62 1986.95 467.46 C 1983.69 460.66 1979.50 454.26 1974.08 449.00 C 1971.39 446.33 1968.04 444.38 1965.77 441.32 C 1959.33 433.07 1950.26 426.69 1939.99 424.35 C 1922.22 419.93 1902.57 427.09 1891.43 441.51 M 2180.63 423.15 C 2180.54 454.93 2180.63 486.71 2180.59 518.49 C 2184.77 518.54 2188.96 518.53 2193.17 518.53 C 2193.15 522.61 2193.15 526.70 2193.17 530.79 C 2218.04 530.78 2242.91 530.80 2267.79 530.78 C 2267.79 516.25 2267.78 501.71 2267.79 487.17 C 2263.68 487.15 2259.57 487.15 2255.48 487.21 C 2255.40 484.52 2255.37 481.83 2255.36 479.15 C 2259.49 479.14 2263.63 479.14 2267.79 479.12 C 2267.78 464.53 2267.80 449.94 2267.78 435.36 C 2263.64 435.36 2259.51 435.35 2255.40 435.38 C 2255.39 431.32 2255.39 427.26 2255.42 423.20 C 2230.49 423.11 2205.56 423.21 2180.63 423.15 M 2281.32 436.36 C 2271.86 448.23 2272.09 466.49 2282.00 478.02 C 2285.22 482.67 2291.03 484.70 2293.80 489.71 C 2289.03 494.46 2284.27 499.22 2279.52 503.99 C 2283.35 508.23 2287.76 512.01 2292.93 514.53 C 2292.62 515.28 2292.33 516.04 2292.08 516.81 C 2298.65 523.79 2307.12 529.65 2316.91 530.61 C 2329.21 532.07 2341.94 526.02 2348.74 515.70 C 2357.27 503.32 2356.10 485.24 2345.73 474.29 C 2342.59 470.45 2337.34 468.86 2335.12 464.24 C 2339.81 459.46 2344.53 454.72 2349.25 449.96 C 2345.10 445.73 2340.48 441.96 2335.30 439.08 C 2335.67 438.65 2336.40 437.79 2336.77 437.36 C 2330.61 431.44 2323.52 425.99 2315.06 423.95 C 2302.66 420.93 2288.95 426.26 2281.32 436.36 M 1812.41 429.07 C 1812.49 432.40 1815.40 427.57 1812.41 429.07 M 1198.13 455.42 C 1196.44 458.32 1201.44 455.73 1198.13 455.42 M 1196.34 459.93 C 1197.72 460.28 1198.25 459.77 1197.93 458.37 C 1196.53 458.02 1196.01 458.54 1196.34 459.93 M 1530.64 457.71 C 1529.95 459.40 1529.30 461.10 1528.66 462.81 C 1529.33 464.23 1530.04 465.67 1530.75 467.10 C 1530.75 463.97 1530.76 460.84 1530.64 457.71 M 1988.97 472.86 C 1984.32 475.31 1979.64 477.68 1974.91 479.96 C 1978.22 481.47 1980.93 484.79 1979.65 488.64 C 1982.34 490.06 1985.08 491.42 1987.82 492.81 C 1991.22 485.86 1994.74 478.97 1998.16 472.03 C 1995.10 472.19 1991.75 471.30 1988.97 472.86 M 2073.81 472.02 C 2076.79 478.12 2080.04 484.11 2082.69 490.38 C 2082.33 484.28 2082.50 478.17 2082.54 472.07 C 2079.61 471.99 2076.70 471.98 2073.81 472.02 M 2150.34 472.00 C 2150.33 472.82 2150.31 474.46 2150.30 475.29 C 2155.20 475.49 2160.30 474.55 2165.10 475.92 C 2169.95 477.73 2169.02 483.64 2169.08 487.76 C 2170.97 487.76 2172.89 487.78 2174.82 487.82 C 2174.68 482.55 2174.74 477.28 2174.76 472.02 C 2166.61 471.98 2158.47 472.01 2150.34 472.00 M 1315.95 484.05 C 1315.69 489.14 1314.85 494.19 1313.27 499.04 C 1316.29 495.68 1319.53 492.51 1322.82 489.40 C 1320.50 487.64 1318.21 485.86 1315.95 484.05 Z" />
<path fill="#000000" opacity="1.00" d=" M 11.35 472.00 C 84.58 344.59 157.79 217.16 231.07 89.78 C 287.88 191.45 340.66 295.28 394.39 398.59 C 406.83 422.66 419.38 446.66 431.76 470.76 C 418.86 470.81 405.95 470.56 393.05 471.01 C 338.01 470.81 282.98 471.43 227.94 471.25 C 196.98 471.75 166.01 471.41 135.04 471.49 C 112.37 472.01 89.69 471.64 67.01 471.75 C 48.45 471.56 29.91 472.15 11.35 472.00 M 228.16 120.24 C 162.82 233.51 97.38 346.73 32.03 460.00 C 71.02 459.89 110.03 460.26 149.01 459.75 C 192.70 459.70 236.38 459.91 280.06 459.50 C 313.04 459.49 346.01 459.51 378.99 459.49 C 389.78 459.03 400.58 459.35 411.38 459.23 C 351.40 344.81 291.41 230.40 231.42 115.99 C 229.56 116.49 229.22 118.85 228.16 120.24 Z" />
<path fill="#000000" opacity="1.00" d=" M 1994.81 116.21 C 2047.69 115.60 2100.57 116.92 2153.44 118.18 C 2153.44 119.95 2153.47 121.72 2153.52 123.49 C 2102.85 123.69 2052.18 124.40 2001.50 124.50 C 2001.43 166.58 2000.70 208.65 2000.51 250.73 C 1998.58 250.74 1996.67 250.76 1994.79 250.78 C 1994.73 205.92 1994.70 161.07 1994.81 116.21 Z" />
<path fill="#000000" opacity="1.00" d=" M 618.49 191.66 C 625.55 189.84 634.01 191.26 638.99 196.94 C 645.90 204.66 645.28 217.73 637.78 224.83 C 632.49 229.99 624.10 231.09 617.36 228.43 C 612.74 226.46 609.18 222.51 606.85 218.15 C 603.71 208.18 608.03 195.25 618.49 191.66 Z" />
<path fill="#000000" opacity="1.00" d=" M 757.50 219.29 C 759.28 219.27 761.06 219.26 762.86 219.27 C 761.60 236.89 752.91 253.29 740.91 265.97 C 734.48 272.79 726.80 278.47 718.23 282.28 C 706.49 287.52 694.75 292.74 683.01 297.98 C 682.99 295.03 682.99 292.08 683.00 289.13 C 701.57 283.01 719.98 274.94 734.76 261.86 C 747.17 251.05 755.88 235.79 757.50 219.29 Z" />
<path fill="#000000" opacity="1.00" d=" M 1746.52 309.68 C 1752.79 308.28 1759.83 309.93 1764.45 314.53 C 1767.53 317.60 1770.69 321.35 1770.53 325.99 C 1771.18 332.98 1767.88 340.17 1762.04 344.09 C 1759.12 345.97 1755.45 347.20 1752.03 346.11 C 1745.42 344.47 1737.97 341.79 1734.77 335.27 C 1731.83 325.40 1736.71 313.57 1746.52 309.68 Z" />
<path fill="#000000" opacity="1.00" d=" M 216.50 311.58 C 226.27 308.35 237.22 313.90 241.47 323.02 C 242.85 331.15 240.37 340.48 233.63 345.66 C 225.76 351.30 213.77 348.44 208.68 340.36 C 204.81 335.86 205.50 329.48 206.67 324.10 C 207.78 318.75 211.19 313.50 216.50 311.58 Z" />
<path fill="#000000" opacity="1.00" d=" M 1317.42 311.59 C 1324.82 309.29 1333.47 311.56 1338.57 317.48 C 1340.53 319.93 1343.11 322.52 1342.79 325.93 C 1343.16 333.02 1340.73 340.59 1335.12 345.20 C 1331.28 348.47 1325.85 349.09 1321.05 348.18 C 1314.71 346.92 1309.64 341.84 1307.24 336.01 C 1305.59 327.11 1308.12 315.29 1317.42 311.59 Z" />
<path fill="#000000" opacity="1.00" d=" M 1002.50 321.57 C 1039.30 335.80 1076.11 349.99 1112.89 364.26 C 1112.41 372.91 1106.68 380.00 1100.71 385.78 C 1093.66 392.55 1085.40 397.90 1076.78 402.43 C 1075.48 401.47 1074.19 400.51 1072.91 399.55 C 1083.49 390.11 1096.65 382.35 1102.80 369.01 C 1070.17 353.47 1035.69 342.36 1002.50 328.14 C 1002.49 325.95 1002.49 323.76 1002.50 321.57 Z" />
<path fill="#000000" opacity="1.00" d=" M 327.36 352.65 C 328.95 351.72 330.52 350.74 332.19 349.94 C 337.56 359.04 342.04 368.68 347.10 377.97 C 358.06 398.96 369.05 419.95 380.01 440.94 C 353.51 441.56 327.01 442.09 300.50 442.50 C 300.50 440.76 300.49 439.03 300.49 437.31 C 322.48 436.58 344.48 436.02 366.46 435.34 C 356.59 406.34 337.67 381.48 327.36 352.65 Z" />
<path fill="#000000" opacity="1.00" d=" M 647.56 363.81 C 650.39 363.74 653.24 363.74 656.08 363.73 C 671.08 378.48 685.64 393.66 700.59 408.46 C 710.77 418.72 721.12 428.82 731.19 439.19 C 703.38 439.37 675.58 438.13 647.80 436.79 C 647.77 435.53 647.74 434.28 647.72 433.03 C 669.13 430.10 690.84 433.72 712.22 430.44 C 700.19 417.29 687.34 404.92 675.08 391.99 C 665.86 382.64 656.72 373.21 647.56 363.81 Z" />
<path fill="#000000" opacity="1.00" d=" M 864.14 441.92 C 874.43 441.92 884.71 441.92 895.00 441.93 C 894.98 458.97 895.04 476.01 894.97 493.05 C 894.91 501.66 891.41 510.28 885.04 516.15 C 877.19 523.53 865.33 526.25 855.06 523.01 C 842.38 519.28 833.23 506.81 833.19 493.62 C 843.47 493.68 853.76 493.59 864.05 493.67 C 864.27 476.42 864.08 459.17 864.14 441.92 M 870.07 447.88 C 870.07 462.24 870.05 476.60 870.08 490.96 C 869.97 493.16 870.07 495.70 868.46 497.43 C 866.45 499.20 863.64 499.55 861.08 499.53 C 853.99 499.50 846.91 499.51 839.83 499.49 C 841.91 508.50 849.40 515.49 858.17 517.96 C 858.97 516.27 859.39 514.03 861.33 513.23 C 863.86 512.12 866.74 512.28 869.33 511.30 C 877.01 508.03 882.68 500.42 883.31 492.05 C 883.54 489.13 886.63 488.27 888.93 487.45 C 889.09 474.26 888.95 461.07 888.99 447.89 C 882.68 447.88 876.37 447.88 870.07 447.88 M 888.91 493.31 C 887.97 506.08 876.86 517.51 864.00 518.35 C 864.00 519.17 864.00 520.81 864.01 521.63 C 878.76 521.29 892.39 508.25 892.08 493.26 C 891.29 493.27 889.70 493.30 888.91 493.31 Z" />
<path fill="#000000" opacity="1.00" d=" M 926.75 441.92 C 947.28 441.92 967.82 441.92 988.36 441.92 C 988.33 459.61 988.42 477.31 988.32 495.00 C 987.95 508.49 977.57 520.69 964.45 523.59 C 956.62 525.36 948.11 524.00 941.30 519.71 C 932.17 514.20 926.57 503.58 926.73 492.97 C 926.75 475.96 926.73 458.94 926.75 441.92 M 947.73 448.36 C 959.15 451.19 970.72 453.54 982.48 454.32 C 982.48 452.16 982.49 450.01 982.50 447.86 C 970.91 448.18 959.27 447.29 947.73 448.36 M 932.61 457.11 C 932.71 469.74 932.51 482.38 932.70 495.01 C 932.96 505.83 941.40 515.01 951.49 518.04 C 952.27 515.68 953.68 513.16 956.29 512.53 C 959.43 511.79 962.86 511.51 965.47 509.38 C 969.76 505.98 973.87 501.63 974.88 496.05 C 975.40 493.72 975.46 491.01 977.35 489.28 C 978.68 487.84 980.78 487.83 982.56 487.34 C 982.42 480.46 982.52 473.59 982.49 466.71 C 965.52 465.83 948.69 462.60 932.61 457.11 M 981.33 493.23 C 980.27 505.57 970.20 517.25 957.49 518.10 C 957.49 518.95 957.49 520.65 957.49 521.50 C 972.22 521.25 984.39 507.84 984.65 493.38 C 983.53 493.32 982.42 493.27 981.33 493.23 Z" />
<path fill="#000000" opacity="1.00" d=" M 1022.59 441.92 C 1043.13 441.92 1063.67 441.92 1084.21 441.92 C 1084.24 452.12 1084.15 462.33 1084.26 472.53 C 1075.21 472.69 1066.16 472.54 1057.11 472.61 C 1057.11 474.00 1057.11 475.39 1057.13 476.79 C 1061.43 476.78 1065.73 476.78 1070.03 476.79 C 1070.04 480.98 1070.04 485.17 1070.04 489.36 C 1065.73 489.36 1061.43 489.36 1057.13 489.35 C 1057.12 490.78 1057.12 492.21 1057.14 493.65 C 1066.16 493.63 1075.19 493.64 1084.22 493.64 C 1084.21 503.88 1084.21 514.12 1084.22 524.36 C 1063.67 524.37 1043.13 524.35 1022.58 524.37 C 1022.60 496.89 1022.58 469.40 1022.59 441.92 M 1028.48 447.83 C 1028.43 448.88 1028.39 449.93 1028.37 450.99 C 1032.92 450.07 1037.39 448.79 1041.85 447.49 C 1037.41 448.13 1032.93 447.86 1028.48 447.83 M 1072.60 448.45 C 1058.77 455.68 1043.70 460.38 1028.45 463.55 C 1028.37 481.90 1028.57 500.25 1028.35 518.60 C 1037.28 518.36 1046.21 518.56 1055.14 518.49 C 1055.91 516.18 1056.57 513.25 1059.18 512.37 C 1063.28 511.22 1067.62 511.86 1071.84 511.83 C 1071.67 507.66 1071.46 503.43 1072.61 499.37 C 1067.57 499.50 1062.52 499.70 1057.50 499.38 C 1050.32 499.08 1049.13 488.13 1054.36 484.54 C 1057.47 483.01 1061.07 483.72 1064.42 483.25 C 1060.80 481.96 1056.31 483.61 1053.25 480.79 C 1049.96 476.75 1050.53 469.93 1055.15 467.08 C 1055.91 465.05 1056.16 462.41 1058.37 461.39 C 1062.55 459.49 1067.31 460.44 1071.75 460.28 C 1071.76 456.33 1071.35 452.27 1072.60 448.45 M 1077.58 451.23 C 1077.60 456.21 1077.59 461.19 1077.59 466.17 C 1072.11 466.16 1066.63 466.15 1061.15 466.18 C 1061.15 467.33 1061.16 468.48 1061.19 469.65 C 1067.76 469.64 1074.34 469.61 1080.92 469.67 C 1080.99 463.49 1080.96 457.31 1080.95 451.13 C 1079.81 451.15 1078.68 451.19 1077.58 451.23 M 1077.61 502.42 C 1077.59 507.48 1077.58 512.55 1077.62 517.62 C 1072.13 517.58 1066.64 517.58 1061.15 517.62 C 1061.16 518.45 1061.16 520.12 1061.16 520.95 C 1067.75 520.97 1074.35 520.95 1080.95 520.96 C 1080.97 514.78 1080.95 508.60 1080.97 502.43 C 1080.13 502.42 1078.45 502.42 1077.61 502.42 Z" />
<path fill="#000000" opacity="1.00" d=" M 1134.65 447.69 C 1149.84 438.33 1171.31 440.57 1183.80 453.44 L 1183.92 454.06 C 1174.51 463.97 1164.54 473.35 1155.06 483.20 C 1168.81 483.28 1182.57 483.27 1196.32 483.20 C 1196.41 496.92 1196.33 510.64 1196.37 524.37 C 1182.58 524.34 1168.79 524.39 1155.01 524.34 C 1143.93 524.43 1132.98 519.62 1125.39 511.57 C 1117.36 503.26 1113.16 491.41 1114.15 479.90 C 1115.23 466.68 1123.21 454.34 1134.65 447.69 M 1137.79 452.71 C 1135.55 454.63 1134.53 457.55 1132.99 460.00 C 1142.04 460.00 1151.10 459.99 1160.15 460.01 C 1163.37 456.85 1166.45 453.56 1169.82 450.56 C 1159.56 446.66 1147.22 446.61 1137.79 452.71 M 1175.72 452.91 C 1167.20 461.74 1158.39 470.29 1149.76 479.01 C 1150.48 479.77 1151.23 480.54 1151.98 481.31 C 1160.77 472.73 1169.28 463.86 1178.15 455.34 C 1177.33 454.52 1176.52 453.71 1175.72 452.91 M 1120.34 489.10 C 1122.23 501.03 1130.82 511.45 1141.96 515.99 C 1149.88 519.45 1158.71 518.29 1167.11 518.48 C 1167.87 516.18 1168.58 513.27 1171.16 512.38 C 1175.30 511.21 1179.68 511.89 1183.94 511.79 C 1184.03 507.98 1183.51 504.08 1184.48 500.37 C 1185.21 497.65 1188.32 497.23 1190.58 496.44 C 1190.50 493.99 1190.49 491.55 1190.49 489.11 C 1178.62 489.01 1166.73 489.40 1154.88 488.93 C 1150.57 487.38 1145.11 485.17 1144.09 480.15 C 1143.28 476.70 1146.05 474.12 1148.05 471.76 C 1139.27 471.72 1130.49 472.22 1121.71 471.96 C 1119.78 477.44 1119.60 483.38 1120.34 489.10 M 1189.96 502.37 C 1189.77 507.45 1189.88 512.54 1189.85 517.63 C 1184.28 517.58 1178.71 517.57 1173.14 517.63 C 1173.15 518.46 1173.16 520.12 1173.17 520.95 C 1179.77 520.97 1186.38 520.96 1193.00 520.96 C 1192.97 514.76 1193.07 508.55 1192.93 502.35 C 1192.19 502.36 1190.70 502.37 1189.96 502.37 Z" />
<path fill="#000000" opacity="1.00" d=" M 1258.10 442.17 C 1276.04 440.01 1294.34 451.40 1300.65 468.27 C 1307.00 484.01 1302.14 503.30 1289.16 514.20 C 1281.69 520.67 1271.89 524.57 1261.97 524.34 C 1250.90 524.43 1239.98 519.60 1232.40 511.58 C 1222.97 501.85 1218.87 487.23 1222.09 474.04 C 1225.93 457.31 1240.98 443.86 1258.10 442.17 M 1235.89 460.00 C 1253.53 459.45 1271.20 459.90 1288.86 459.75 C 1282.36 452.97 1273.51 447.94 1263.93 447.91 C 1253.30 447.13 1242.82 452.07 1235.89 460.00 M 1228.88 471.76 C 1226.74 476.81 1226.75 482.47 1227.19 487.85 C 1228.88 502.80 1241.36 515.71 1256.22 518.01 C 1256.95 516.31 1257.30 514.10 1259.20 513.26 C 1262.53 511.61 1266.43 512.10 1269.90 510.82 C 1281.44 506.66 1290.48 495.51 1290.92 483.07 C 1290.97 479.63 1294.18 477.66 1297.16 476.93 C 1296.70 475.11 1296.20 473.29 1295.70 471.50 C 1273.43 471.68 1251.11 471.15 1228.88 471.76 M 1296.60 483.18 C 1296.46 501.33 1280.22 517.44 1262.19 518.07 C 1262.16 518.90 1262.10 520.55 1262.08 521.37 C 1282.45 521.78 1300.54 503.22 1300.04 482.95 C 1298.88 483.02 1297.73 483.09 1296.60 483.18 Z" />
<path fill="#000000" opacity="1.00" d=" M 1341.42 447.24 C 1351.89 439.31 1367.84 440.50 1377.03 449.90 C 1370.48 456.48 1363.89 463.01 1357.36 469.60 C 1363.71 469.84 1370.05 471.92 1374.97 476.02 C 1382.16 481.78 1386.10 491.40 1384.81 500.54 C 1383.43 510.80 1375.87 520.00 1365.95 523.06 C 1356.35 525.97 1344.75 524.11 1337.75 516.52 C 1344.51 509.92 1351.14 503.19 1357.82 496.51 C 1347.73 496.54 1337.84 490.73 1333.31 481.67 C 1327.10 470.24 1330.71 454.66 1341.42 447.24 M 1350.05 449.09 C 1344.90 451.01 1340.99 455.20 1338.12 459.76 C 1342.00 459.68 1345.89 459.93 1349.77 459.65 C 1353.56 455.88 1357.10 451.80 1360.85 447.97 C 1357.23 447.91 1353.47 447.72 1350.05 449.09 M 1353.08 465.00 C 1353.94 465.78 1354.82 466.57 1355.72 467.36 C 1360.38 462.14 1365.11 456.99 1369.85 451.84 C 1368.93 451.12 1368.02 450.40 1367.14 449.69 C 1362.46 454.80 1357.80 459.93 1353.08 465.00 M 1336.08 471.27 C 1337.06 479.91 1343.46 487.76 1351.99 489.86 C 1354.97 490.63 1358.33 490.37 1361.05 492.04 C 1364.06 494.47 1363.56 499.44 1360.89 501.96 C 1356.22 506.73 1351.40 511.34 1346.78 516.15 C 1348.34 516.81 1349.91 517.47 1351.50 518.13 C 1352.24 516.46 1352.71 514.36 1354.54 513.51 C 1357.41 512.10 1360.85 512.34 1363.61 510.64 C 1366.94 508.67 1369.69 505.69 1371.23 502.13 C 1372.39 499.37 1372.50 496.31 1373.64 493.54 C 1374.48 491.68 1376.69 491.30 1378.38 490.56 C 1375.31 482.46 1367.73 476.07 1358.92 475.63 C 1355.59 475.75 1353.50 473.04 1351.00 471.39 C 1346.03 471.02 1341.04 471.34 1336.08 471.27 M 1378.52 496.41 C 1378.07 507.67 1368.63 517.57 1357.41 518.57 C 1357.38 519.34 1357.32 520.90 1357.29 521.67 C 1361.45 521.24 1365.72 520.56 1369.35 518.34 C 1377.17 514.05 1381.92 505.24 1381.90 496.40 C 1380.75 496.40 1379.63 496.40 1378.52 496.41 Z" />
<path fill="#000000" opacity="1.00" d=" M 1442.81 441.93 C 1470.27 441.92 1497.73 441.92 1525.19 441.93 C 1511.46 469.33 1497.73 496.74 1484.00 524.14 C 1470.27 496.74 1456.54 469.33 1442.81 441.93 M 1452.32 447.93 C 1454.26 451.73 1456.21 455.53 1458.05 459.39 C 1475.47 459.80 1492.88 459.03 1510.30 459.23 C 1511.85 455.09 1507.76 451.76 1506.58 448.05 C 1488.50 447.69 1470.40 447.93 1452.32 447.93 M 1463.94 471.05 C 1469.21 481.67 1474.63 492.21 1479.83 502.87 C 1483.25 496.50 1486.24 489.90 1489.70 483.55 C 1491.59 480.24 1495.77 479.40 1499.11 480.93 C 1500.81 477.54 1502.53 474.16 1504.15 470.73 C 1490.75 471.28 1477.34 470.83 1463.94 471.05 M 1483.99 507.85 C 1484.69 509.25 1485.37 510.65 1486.10 512.06 C 1489.47 505.05 1492.82 498.02 1496.18 491.00 C 1497.45 489.18 1495.75 487.30 1495.17 485.61 C 1491.34 492.97 1487.60 500.38 1483.99 507.85 Z" />
<path fill="#000000" opacity="1.00" d=" M 1555.59 441.92 C 1576.13 441.92 1596.67 441.92 1617.21 441.92 C 1617.24 452.12 1617.15 462.32 1617.26 472.52 C 1608.21 472.70 1599.15 472.53 1590.10 472.62 C 1590.09 474.00 1590.11 475.40 1590.14 476.80 C 1594.43 476.78 1598.73 476.78 1603.03 476.79 C 1603.03 480.98 1603.03 485.17 1603.03 489.36 C 1598.73 489.36 1594.44 489.37 1590.15 489.34 C 1590.12 490.77 1590.11 492.20 1590.13 493.65 C 1599.15 493.63 1608.18 493.64 1617.22 493.64 C 1617.20 503.88 1617.21 514.12 1617.22 524.36 C 1596.67 524.37 1576.12 524.35 1555.58 524.37 C 1555.60 496.89 1555.58 469.40 1555.59 441.92 M 1561.42 458.97 C 1575.82 457.91 1590.27 457.62 1604.72 457.75 C 1604.61 454.42 1604.73 451.06 1605.69 447.85 C 1590.96 447.89 1576.23 447.93 1561.51 447.83 C 1561.42 451.54 1561.43 455.25 1561.42 458.97 M 1610.58 451.22 C 1610.60 456.20 1610.59 461.19 1610.59 466.17 C 1605.11 466.16 1599.63 466.16 1594.16 466.17 C 1594.14 467.32 1594.15 468.48 1594.18 469.64 C 1600.76 469.64 1607.34 469.62 1613.93 469.66 C 1613.97 463.48 1613.97 457.29 1613.93 451.11 C 1612.79 451.14 1611.68 451.18 1610.58 451.22 M 1561.43 470.25 C 1561.40 486.37 1561.55 502.49 1561.35 518.60 C 1570.28 518.36 1579.20 518.56 1588.14 518.49 C 1588.90 516.17 1589.58 513.23 1592.21 512.36 C 1596.30 511.23 1600.63 511.86 1604.83 511.83 C 1604.66 507.66 1604.45 503.43 1605.61 499.37 C 1600.55 499.51 1595.48 499.70 1590.45 499.37 C 1583.30 499.03 1582.15 488.11 1587.37 484.54 C 1590.46 483.00 1594.05 483.72 1597.39 483.27 C 1593.78 481.91 1589.23 483.66 1586.19 480.73 C 1583.55 477.47 1583.72 472.71 1585.58 469.10 C 1577.54 469.68 1569.46 469.53 1561.43 470.25 M 1610.61 502.41 C 1610.58 507.48 1610.58 512.55 1610.62 517.62 C 1605.12 517.58 1599.63 517.58 1594.15 517.62 C 1594.15 518.45 1594.16 520.12 1594.16 520.95 C 1600.75 520.97 1607.35 520.96 1613.96 520.96 C 1613.96 514.79 1613.94 508.61 1613.98 502.45 C 1613.13 502.44 1611.45 502.42 1610.61 502.41 Z" />
<path fill="#000000" opacity="1.00" d=" M 1647.79 441.92 C 1661.53 441.94 1675.27 441.88 1689.01 441.95 C 1702.08 442.08 1712.90 455.15 1711.40 467.97 C 1710.42 479.34 1700.32 489.05 1688.88 489.44 C 1696.41 501.08 1703.90 512.74 1711.44 524.36 C 1690.22 524.36 1669.00 524.36 1647.78 524.36 C 1647.80 496.88 1647.78 469.40 1647.79 441.92 M 1653.69 447.86 C 1653.69 451.80 1653.69 455.74 1653.69 459.69 C 1661.03 459.95 1668.35 460.51 1675.70 460.71 C 1678.34 456.21 1683.77 453.26 1688.97 454.94 C 1692.63 455.59 1695.03 458.76 1696.67 461.86 C 1699.60 461.96 1702.21 460.62 1704.79 459.41 C 1701.75 453.87 1696.82 448.18 1690.04 447.95 C 1677.92 447.77 1665.80 447.96 1653.69 447.86 M 1684.43 460.50 C 1680.84 461.40 1679.43 466.27 1681.85 469.03 C 1684.30 472.30 1690.34 471.13 1691.10 466.99 C 1692.40 463.13 1688.22 459.15 1684.43 460.50 M 1704.79 465.43 C 1704.19 472.37 1698.76 477.84 1692.72 480.69 C 1687.49 483.35 1681.48 482.26 1675.86 482.47 C 1683.19 494.58 1690.98 506.41 1698.56 518.37 C 1694.88 518.35 1691.21 518.36 1687.55 518.37 C 1687.51 519.49 1687.49 520.62 1687.50 521.75 C 1693.33 521.81 1699.17 521.79 1705.01 521.78 C 1697.42 509.78 1689.63 497.92 1682.01 485.94 C 1686.39 485.95 1690.93 485.85 1694.99 483.94 C 1702.40 480.91 1708.13 473.50 1707.95 465.30 C 1706.87 465.33 1705.82 465.38 1704.79 465.43 M 1653.70 470.71 C 1653.64 486.65 1653.78 502.59 1653.63 518.53 C 1662.97 518.45 1672.31 518.51 1681.65 518.49 C 1682.10 515.10 1684.70 512.98 1688.00 512.56 C 1682.96 505.01 1678.25 497.25 1673.30 489.64 C 1672.16 487.85 1670.88 486.05 1670.56 483.92 C 1670.36 481.02 1671.83 477.49 1675.02 476.96 C 1679.64 476.19 1684.36 476.93 1689.04 476.55 C 1686.68 476.38 1684.32 476.37 1682.03 475.88 C 1679.58 475.35 1678.01 473.24 1676.34 471.59 C 1668.80 471.06 1661.24 470.98 1653.70 470.71 Z" />
<path fill="#000000" opacity="1.00" d=" M 1736.84 441.93 C 1760.89 441.92 1784.94 441.92 1809.00 441.92 C 1809.00 448.73 1808.99 455.54 1809.00 462.36 C 1802.10 462.36 1795.21 462.36 1788.32 462.36 C 1788.30 483.03 1788.31 503.70 1788.32 524.36 C 1778.07 524.36 1767.82 524.35 1757.58 524.37 C 1757.59 503.70 1757.58 483.03 1757.59 462.37 C 1750.66 462.35 1743.75 462.37 1736.83 462.36 C 1736.83 455.55 1736.82 448.74 1736.84 441.93 M 1742.76 447.86 C 1742.76 450.75 1742.74 453.63 1742.71 456.52 C 1747.83 456.66 1753.02 456.08 1758.11 456.84 C 1760.49 457.05 1762.02 458.87 1763.15 460.79 C 1769.56 460.30 1775.93 459.40 1782.29 458.43 C 1782.58 455.79 1782.47 452.51 1784.91 450.81 C 1788.14 448.55 1792.32 449.30 1796.04 449.17 L 1796.10 447.87 C 1778.32 447.88 1760.54 447.90 1742.76 447.86 M 1802.03 447.38 C 1802.02 449.96 1802.03 452.54 1802.04 455.12 C 1797.44 455.12 1792.85 455.10 1788.26 455.15 C 1788.27 456.27 1788.30 457.40 1788.35 458.54 C 1794.05 458.51 1799.76 458.57 1805.48 458.49 C 1805.46 454.78 1805.46 451.07 1805.47 447.37 C 1804.61 447.37 1802.89 447.38 1802.03 447.38 M 1763.45 470.61 C 1763.40 484.38 1763.51 498.15 1763.40 511.92 C 1767.44 511.70 1771.50 511.71 1775.57 511.78 C 1775.57 507.69 1774.87 503.33 1776.66 499.50 C 1777.73 497.27 1780.42 497.14 1782.51 496.47 C 1782.33 487.18 1782.46 477.88 1782.45 468.58 C 1776.12 469.39 1769.79 470.09 1763.45 470.61 M 1781.36 502.44 C 1781.35 507.49 1781.34 512.54 1781.38 517.60 C 1775.96 517.58 1770.55 517.65 1765.14 517.53 C 1765.05 518.66 1764.98 519.81 1764.95 520.96 C 1771.57 520.96 1778.20 520.97 1784.84 520.95 C 1784.81 514.76 1784.86 508.57 1784.80 502.38 C 1783.63 502.39 1782.48 502.41 1781.36 502.44 Z" />
<path fill="#000000" opacity="1.00" d=" M 1838.69 441.92 C 1848.93 441.92 1859.17 441.92 1869.41 441.92 C 1869.42 469.40 1869.40 496.89 1869.42 524.37 C 1859.17 524.35 1848.93 524.36 1838.68 524.36 C 1838.70 496.88 1838.68 469.40 1838.69 441.92 M 1844.51 452.57 C 1844.59 472.46 1844.63 492.35 1844.49 512.24 C 1848.61 511.49 1852.81 511.74 1856.99 511.77 C 1857.10 508.11 1856.53 504.32 1857.65 500.79 C 1858.58 498.22 1861.06 496.91 1863.63 496.50 C 1863.47 480.32 1863.56 464.14 1863.59 447.96 C 1860.37 447.92 1857.14 447.62 1853.97 448.11 C 1850.66 449.23 1847.65 451.07 1844.51 452.57 M 1863.08 502.35 C 1862.93 507.44 1863.03 512.53 1862.96 517.63 C 1857.38 517.57 1851.80 517.60 1846.24 517.59 C 1846.24 518.44 1846.23 520.13 1846.23 520.98 C 1852.86 520.94 1859.50 520.97 1866.14 520.96 C 1866.09 514.75 1866.27 508.55 1866.01 502.35 C 1865.28 502.35 1863.81 502.35 1863.08 502.35 Z" />
<path fill="#000000" opacity="1.00" d=" M 1934.09 442.63 C 1951.48 439.20 1970.70 448.37 1978.15 464.64 C 1965.75 470.75 1953.31 476.81 1941.04 483.17 C 1953.39 489.24 1965.59 495.64 1978.01 501.60 C 1969.58 519.61 1946.69 528.92 1928.01 522.19 C 1910.89 516.69 1898.99 498.83 1900.27 480.92 C 1900.93 462.37 1915.88 445.75 1934.09 442.63 M 1931.98 449.04 C 1920.54 452.39 1910.98 461.65 1907.44 473.06 C 1903.07 487.41 1908.92 504.11 1921.43 512.42 C 1930.15 518.62 1941.63 519.86 1951.80 517.01 C 1951.45 515.16 1950.63 513.19 1951.47 511.36 C 1952.47 508.88 1955.06 507.68 1957.03 506.09 C 1949.58 502.19 1942.12 498.30 1934.74 494.29 C 1932.24 492.95 1930.74 489.79 1931.53 487.04 C 1932.45 482.80 1936.12 479.93 1939.36 477.38 C 1947.84 473.10 1956.34 468.86 1964.89 464.70 C 1964.97 462.05 1964.99 459.39 1965.05 456.74 C 1956.29 448.66 1943.38 446.03 1931.98 449.04 M 1938.31 485.83 C 1937.83 486.84 1937.37 487.86 1936.94 488.89 C 1946.96 494.19 1956.99 499.47 1967.02 504.76 C 1963.90 507.99 1960.56 511.00 1956.87 513.54 C 1957.38 514.58 1957.89 515.62 1958.46 516.67 C 1963.93 513.17 1968.60 508.64 1972.75 503.67 C 1961.30 497.65 1949.88 491.59 1938.31 485.83 Z" />
<path fill="#000000" opacity="1.00" d=" M 2107.23 441.97 C 2117.51 441.86 2127.79 441.94 2138.08 441.93 C 2138.08 461.27 2138.07 480.61 2138.08 499.96 C 2148.42 499.97 2158.77 499.95 2169.12 499.96 C 2169.12 508.09 2169.11 516.22 2169.12 524.36 C 2148.49 524.36 2127.86 524.36 2107.23 524.36 C 2107.26 496.90 2107.26 469.43 2107.23 441.97 M 2113.13 447.87 C 2113.12 452.09 2113.10 456.30 2113.16 460.52 C 2119.44 460.49 2125.73 460.47 2132.03 460.54 C 2132.15 456.31 2132.11 452.09 2132.12 447.87 C 2125.79 447.89 2119.46 447.88 2113.13 447.87 M 2113.12 472.01 C 2113.11 487.50 2113.19 502.99 2113.08 518.47 C 2121.94 518.52 2130.81 518.48 2139.68 518.50 C 2140.28 516.46 2140.40 513.66 2142.71 512.72 C 2147.02 511.06 2151.77 511.94 2156.30 511.75 C 2156.23 509.81 2156.22 507.88 2156.21 505.95 C 2149.99 505.76 2143.73 506.34 2137.56 505.65 C 2134.22 505.36 2132.15 502.18 2132.19 499.05 C 2131.99 490.03 2132.18 481.02 2132.11 472.00 C 2125.78 472.00 2119.44 471.99 2113.12 472.01 M 2162.19 502.39 C 2162.14 507.45 2162.15 512.52 2162.17 517.59 C 2156.64 517.61 2151.11 517.56 2145.60 517.63 C 2145.60 518.46 2145.60 520.13 2145.61 520.96 C 2152.28 520.95 2158.97 520.99 2165.66 520.93 C 2165.61 514.76 2165.64 508.60 2165.64 502.43 C 2164.46 502.41 2163.31 502.39 2162.19 502.39 Z" />
<path fill="#000000" opacity="1.00" d=" M 2199.59 441.92 C 2220.13 441.92 2240.67 441.92 2261.21 441.92 C 2261.24 452.13 2261.15 462.33 2261.25 472.53 C 2252.20 472.68 2243.16 472.55 2234.12 472.61 C 2234.09 473.99 2234.10 475.39 2234.13 476.79 C 2238.42 476.78 2242.72 476.78 2247.04 476.79 C 2247.03 480.98 2247.03 485.17 2247.03 489.36 C 2242.73 489.36 2238.44 489.37 2234.16 489.34 C 2234.11 490.77 2234.10 492.20 2234.13 493.65 C 2243.15 493.62 2252.18 493.64 2261.22 493.64 C 2261.20 503.88 2261.21 514.12 2261.22 524.36 C 2240.67 524.37 2220.12 524.35 2199.58 524.37 C 2199.60 496.89 2199.58 469.40 2199.59 441.92 M 2205.40 447.96 C 2205.45 452.14 2205.44 456.32 2205.44 460.50 C 2219.88 460.63 2234.32 460.40 2248.75 460.14 C 2248.73 456.03 2248.36 451.82 2249.73 447.85 C 2234.95 447.97 2220.17 447.76 2205.40 447.96 M 2254.58 451.23 C 2254.60 456.21 2254.59 461.19 2254.59 466.17 C 2249.10 466.16 2243.62 466.16 2238.15 466.18 C 2238.13 467.33 2238.14 468.48 2238.19 469.65 C 2244.76 469.64 2251.34 469.62 2257.93 469.66 C 2257.97 463.48 2257.96 457.30 2257.94 451.13 C 2256.79 451.15 2255.67 451.19 2254.58 451.23 M 2205.40 472.07 C 2205.44 487.58 2205.53 503.09 2205.35 518.60 C 2214.27 518.36 2223.20 518.56 2232.14 518.49 C 2232.89 516.17 2233.57 513.23 2236.21 512.36 C 2240.30 511.23 2244.62 511.85 2248.83 511.84 C 2248.66 507.67 2248.46 503.43 2249.61 499.37 C 2244.34 499.46 2239.03 499.81 2233.79 499.26 C 2227.31 498.34 2226.48 488.63 2230.88 484.87 C 2233.80 482.94 2237.53 483.60 2240.87 483.53 C 2240.85 483.31 2240.81 482.89 2240.79 482.68 C 2237.43 482.62 2233.70 483.16 2230.76 481.23 C 2228.06 479.02 2228.18 475.15 2228.27 471.99 C 2220.64 472.04 2213.01 471.92 2205.40 472.07 M 2254.60 502.41 C 2254.58 507.48 2254.57 512.55 2254.62 517.62 C 2249.12 517.58 2243.64 517.58 2238.16 517.61 C 2238.16 518.45 2238.16 520.12 2238.16 520.95 C 2244.75 520.97 2251.35 520.96 2257.96 520.96 C 2257.96 514.78 2257.94 508.61 2257.98 502.44 C 2257.13 502.44 2255.45 502.42 2254.60 502.41 Z" />
<path fill="#000000" opacity="1.00" d=" M 2313.03 443.04 C 2322.42 440.20 2333.09 442.98 2340.03 449.90 C 2333.51 456.49 2326.86 462.95 2320.42 469.61 C 2327.21 469.84 2333.97 472.28 2339.01 476.91 C 2344.95 482.18 2348.31 490.16 2348.05 498.08 C 2347.66 506.44 2343.22 514.44 2336.44 519.31 C 2325.92 526.91 2309.99 525.93 2300.73 516.73 C 2307.31 509.88 2314.17 503.30 2320.80 496.50 C 2307.13 496.78 2294.43 485.56 2293.42 471.87 C 2291.82 459.14 2300.67 446.29 2313.03 443.04 M 2313.10 449.08 C 2307.74 451.11 2303.53 455.49 2300.85 460.46 C 2304.62 460.42 2308.43 460.75 2312.21 460.33 C 2316.16 456.30 2319.88 452.00 2323.86 447.96 C 2320.24 447.91 2316.50 447.71 2313.10 449.08 M 2316.06 465.00 C 2316.94 465.77 2317.85 466.54 2318.78 467.31 C 2323.42 462.06 2328.20 456.92 2332.92 451.74 C 2332.01 451.01 2331.05 450.43 2330.04 450.01 C 2325.15 454.78 2320.82 460.10 2316.06 465.00 M 2299.14 472.03 C 2300.46 480.39 2306.75 487.88 2315.09 489.88 C 2318.03 490.63 2321.34 490.38 2324.03 492.03 C 2326.87 494.27 2326.63 498.90 2324.34 501.46 C 2319.65 506.53 2314.35 511.03 2309.88 516.30 C 2311.39 516.90 2312.95 517.50 2314.51 518.09 C 2315.23 516.44 2315.71 514.37 2317.52 513.52 C 2320.63 512.01 2324.41 512.34 2327.28 510.23 C 2332.26 507.20 2335.11 501.71 2335.86 496.05 C 2336.01 492.99 2338.60 491.16 2341.38 490.56 C 2338.40 482.83 2331.36 476.47 2322.91 475.78 C 2319.83 475.72 2317.01 474.36 2315.07 472.01 C 2309.75 471.99 2304.44 471.99 2299.14 472.03 M 2341.52 496.41 C 2341.04 507.50 2331.72 517.83 2320.43 518.35 C 2320.42 519.18 2320.38 520.84 2320.36 521.67 C 2324.72 521.24 2329.19 520.42 2332.94 517.99 C 2340.43 513.60 2344.90 505.01 2344.90 496.40 C 2343.74 496.40 2342.62 496.40 2341.52 496.41 Z" />
<path fill="#000000" opacity="1.00" d=" M 2004.16 524.95 C 2018.01 497.64 2031.32 470.05 2045.36 442.85 C 2059.01 470.26 2072.80 497.60 2086.47 525.00 C 2059.03 524.97 2031.59 525.07 2004.16 524.95 M 2045.23 455.61 C 2044.44 457.24 2043.67 458.87 2042.92 460.50 C 2044.48 460.50 2046.08 460.51 2047.70 460.53 C 2046.85 458.89 2046.02 457.25 2045.23 455.61 M 2037.11 472.03 C 2029.28 487.66 2021.54 503.33 2013.69 518.95 C 2026.90 519.01 2040.12 519.05 2053.34 518.93 C 2053.86 516.82 2053.89 514.20 2055.91 512.86 C 2058.06 511.18 2060.91 511.25 2063.52 511.10 C 2062.04 508.07 2059.71 504.62 2061.23 501.15 C 2061.99 499.05 2064.21 498.15 2065.94 496.98 C 2061.84 488.69 2057.55 480.50 2053.62 472.14 C 2048.11 471.88 2042.61 472.02 2037.11 472.03 M 2066.19 503.60 C 2068.55 508.06 2070.78 512.60 2073.06 517.11 C 2068.48 517.12 2063.90 517.10 2059.33 517.15 C 2059.32 518.27 2059.34 519.40 2059.39 520.53 C 2065.66 520.52 2071.94 520.53 2078.22 520.53 C 2075.69 514.16 2072.23 508.21 2069.35 502.00 C 2068.27 502.53 2067.20 503.05 2066.19 503.60 Z" />
<path fill="#000000" opacity="1.00" d=" M 1260.03 473.03 C 1267.84 471.11 1275.43 479.45 1272.93 487.07 C 1271.17 495.11 1259.67 497.72 1254.26 491.71 C 1248.21 485.97 1251.41 474.01 1260.03 473.03 M 1259.39 479.40 C 1256.33 481.13 1256.10 486.09 1258.93 488.14 C 1261.59 490.23 1266.12 489.17 1267.23 485.84 C 1269.19 481.43 1263.37 476.54 1259.39 479.40 Z" />
<path fill="#000000" opacity="1.00" d=" M 2039.32 483.40 C 2043.69 481.42 2049.44 482.66 2052.39 486.53 C 2055.58 490.70 2055.56 497.02 2052.08 501.01 C 2047.92 505.91 2039.31 505.86 2035.19 501.00 C 2030.56 495.62 2032.29 485.76 2039.32 483.40 M 2042.33 488.41 C 2038.94 489.25 2037.07 493.70 2039.24 496.56 C 2041.45 500.26 2048.09 499.38 2048.82 494.96 C 2049.90 491.22 2046.10 487.24 2042.33 488.41 Z" />
</g>
<g id="#f4b20cff">
<path fill="#f4b20c" opacity="1.00" d=" M 1664.63 87.42 C 1675.97 87.05 1687.33 86.87 1698.68 86.55 C 1687.36 87.48 1675.98 87.53 1664.63 87.42 Z" />
<path fill="#f4b20c" opacity="1.00" d=" M 451.00 99.93 C 517.98 107.86 585.33 94.60 652.38 100.81 C 674.18 102.96 696.10 106.87 716.28 115.68 C 732.94 123.08 747.86 134.47 759.18 148.78 C 769.11 161.25 776.30 175.75 781.17 190.88 C 782.43 194.80 783.89 198.75 783.93 202.92 C 784.58 222.62 780.28 242.78 769.81 259.63 C 760.47 274.96 746.75 287.17 731.61 296.58 C 709.93 310.47 684.77 319.49 658.89 320.13 C 656.56 320.33 653.48 319.70 652.15 322.20 C 650.33 325.94 650.99 331.00 653.91 334.03 C 694.30 374.89 734.83 415.62 775.22 456.49 C 667.18 456.56 559.14 456.40 451.10 456.57 C 450.87 337.69 451.06 218.81 451.00 99.93 M 618.49 191.66 C 608.03 195.25 603.71 208.18 606.85 218.15 C 609.18 222.51 612.74 226.46 617.36 228.43 C 624.10 231.09 632.49 229.99 637.78 224.83 C 645.28 217.73 645.90 204.66 638.99 196.94 C 634.01 191.26 625.55 189.84 618.49 191.66 M 757.50 219.29 C 755.88 235.79 747.17 251.05 734.76 261.86 C 719.98 274.94 701.57 283.01 683.00 289.13 C 682.99 292.08 682.99 295.03 683.01 297.98 C 694.75 292.74 706.49 287.52 718.23 282.28 C 726.80 278.47 734.48 272.79 740.91 265.97 C 752.91 253.29 761.60 236.89 762.86 219.27 C 761.06 219.26 759.28 219.27 757.50 219.29 M 647.56 363.81 C 656.72 373.21 665.86 382.64 675.08 391.99 C 687.34 404.92 700.19 417.29 712.22 430.44 C 690.84 433.72 669.13 430.10 647.72 433.03 C 647.74 434.28 647.77 435.53 647.80 436.79 C 675.58 438.13 703.38 439.37 731.19 439.19 C 721.12 428.82 710.77 418.72 700.59 408.46 C 685.64 393.66 671.08 378.48 656.08 363.73 C 653.24 363.74 650.39 363.74 647.56 363.81 Z" />
<path fill="#f4b20c" opacity="1.00" d=" M 1550.55 417.27 C 1550.48 311.42 1550.44 205.56 1550.57 99.71 C 1578.72 99.80 1606.87 99.71 1635.02 99.76 C 1661.02 99.24 1687.03 99.61 1713.04 99.51 C 1730.70 100.19 1748.37 100.99 1766.03 101.72 C 1775.37 102.41 1784.91 101.63 1794.04 104.15 C 1830.09 112.21 1862.46 132.70 1888.11 158.92 C 1901.92 172.98 1913.54 189.29 1921.77 207.23 C 1938.50 244.24 1941.65 287.02 1931.29 326.24 C 1921.32 363.85 1898.56 397.43 1869.38 422.85 C 1868.53 419.79 1865.93 417.50 1862.72 417.34 C 1855.74 417.02 1848.75 417.46 1841.79 417.13 C 1855.74 408.82 1868.41 398.28 1878.54 385.54 C 1901.71 356.59 1914.23 320.30 1918.60 283.77 C 1916.17 283.75 1913.76 283.74 1911.37 283.74 C 1908.58 305.02 1903.46 326.12 1894.71 345.77 C 1888.36 359.85 1880.22 373.26 1869.57 384.51 C 1859.21 395.48 1846.84 404.44 1833.60 411.62 C 1828.74 414.13 1823.98 417.11 1818.44 417.79 C 1815.25 419.58 1812.38 422.02 1808.74 422.95 C 1808.09 419.23 1804.74 417.04 1801.10 417.26 C 1774.04 417.22 1746.98 417.24 1719.93 417.25 C 1716.75 417.14 1713.03 418.61 1712.57 422.16 C 1711.44 427.65 1712.32 433.34 1712.04 438.91 C 1709.63 437.00 1706.81 435.52 1705.03 432.96 C 1698.43 423.24 1686.80 416.97 1675.01 417.22 C 1660.30 417.27 1645.60 417.22 1630.90 417.24 C 1628.63 417.26 1626.01 417.70 1624.60 419.65 C 1622.73 422.55 1623.01 426.15 1622.97 429.44 C 1621.04 429.48 1619.13 429.52 1617.24 429.59 C 1617.18 426.53 1617.64 423.27 1616.28 420.42 C 1614.74 418.06 1611.71 417.19 1609.03 417.24 C 1589.54 417.26 1570.04 417.21 1550.55 417.27 M 1746.52 309.68 C 1736.71 313.57 1731.83 325.40 1734.77 335.27 C 1737.97 341.79 1745.42 344.47 1752.03 346.11 C 1755.45 347.20 1759.12 345.97 1762.04 344.09 C 1767.88 340.17 1771.18 332.98 1770.53 325.99 C 1770.69 321.35 1767.53 317.60 1764.45 314.53 C 1759.83 309.93 1752.79 308.28 1746.52 309.68 Z" />
<path fill="#f4b20c" opacity="1.00" d=" M 1976.00 99.75 C 2093.25 99.76 2210.51 99.72 2327.76 99.77 C 2327.75 150.51 2327.74 201.24 2327.77 251.98 C 2258.13 252.02 2188.49 252.00 2118.86 251.99 C 2117.59 253.55 2115.16 254.67 2115.28 256.94 C 2115.34 277.46 2112.84 298.51 2118.81 318.50 C 2143.63 318.52 2168.45 318.45 2193.27 318.54 C 2193.23 327.02 2193.26 335.51 2193.25 344.00 C 2168.83 344.00 2144.41 344.00 2119.99 344.00 C 2118.91 355.29 2118.12 366.63 2118.25 377.99 C 2118.12 388.89 2118.76 399.90 2121.49 410.50 C 2190.22 410.47 2258.95 410.56 2327.68 410.46 C 2327.77 414.60 2327.73 418.75 2327.77 422.90 C 2319.74 418.34 2310.11 415.94 2300.96 417.98 C 2289.54 420.12 2278.55 427.34 2273.61 438.06 C 2273.53 435.32 2273.15 431.99 2270.49 430.53 C 2267.59 429.16 2264.32 429.51 2261.24 429.54 C 2261.18 426.50 2261.63 423.26 2260.29 420.43 C 2258.53 417.73 2255.01 417.10 2252.03 417.22 C 2228.67 417.30 2205.30 417.17 2181.94 417.28 C 2178.25 417.27 2174.51 420.05 2174.81 424.03 C 2174.67 436.15 2174.73 448.29 2174.80 460.42 C 2166.65 460.60 2158.50 460.43 2150.36 460.52 C 2150.09 452.00 2150.70 443.45 2150.06 434.96 C 2149.51 429.16 2142.46 429.26 2138.11 429.51 C 2138.02 426.78 2138.28 423.97 2137.53 421.32 C 2136.43 418.27 2132.92 417.13 2129.97 417.24 C 2117.31 417.23 2104.65 417.27 2092.00 417.22 C 2089.12 417.20 2085.73 417.53 2083.84 419.97 C 2082.46 422.03 2082.50 424.64 2082.47 427.02 C 2082.51 438.18 2082.49 449.34 2082.49 460.49 C 2077.66 460.50 2072.84 460.53 2068.02 460.46 C 2062.24 449.05 2056.71 437.51 2050.80 426.17 C 2049.48 423.18 2045.99 422.48 2043.08 423.09 C 2041.59 420.15 2040.22 417.14 2038.67 414.23 C 2036.79 409.63 2029.14 409.55 2027.19 414.15 C 2019.35 429.53 2011.73 445.03 2003.97 460.45 C 1999.30 460.53 1994.63 460.52 1989.98 460.46 C 1986.30 453.88 1981.63 447.87 1976.01 442.85 C 1975.99 328.48 1976.00 214.12 1976.00 99.75 M 1994.81 116.21 C 1994.70 161.07 1994.73 205.92 1994.79 250.78 C 1996.67 250.76 1998.58 250.74 2000.51 250.73 C 2000.70 208.65 2001.43 166.58 2001.50 124.50 C 2052.18 124.40 2102.85 123.69 2153.52 123.49 C 2153.47 121.72 2153.44 119.95 2153.44 118.18 C 2100.57 116.92 2047.69 115.60 1994.81 116.21 Z" />
<path fill="#f4b20c" opacity="1.00" d=" M 891.62 135.71 C 922.93 114.10 961.18 103.63 999.06 103.74 C 1009.01 103.84 1019.15 103.63 1028.83 106.31 C 1058.13 113.12 1086.11 126.43 1109.04 146.02 C 1122.58 157.56 1133.97 171.55 1142.59 187.11 C 1090.42 219.41 1038.98 252.91 985.88 283.69 C 991.68 287.25 998.23 289.48 1004.36 292.46 C 1051.80 313.76 1100.05 333.22 1148.66 351.68 C 1144.70 369.69 1134.64 385.83 1121.96 399.01 C 1110.80 410.61 1097.97 420.54 1084.25 428.94 C 1084.15 425.96 1084.68 422.64 1083.00 420.00 C 1080.84 417.32 1077.13 417.10 1073.96 417.21 C 1051.98 417.26 1029.99 417.26 1008.01 417.21 C 1004.71 417.07 1000.69 417.38 998.71 420.43 C 997.24 423.58 997.81 427.18 997.83 430.55 C 994.81 429.31 991.54 429.37 988.37 429.60 C 988.41 426.57 988.79 423.35 987.47 420.52 C 985.99 417.99 982.78 417.27 980.06 417.24 C 957.06 417.23 934.05 417.27 911.04 417.22 C 908.63 417.21 905.91 417.32 904.06 419.08 C 902.07 421.34 902.15 424.56 901.80 427.37 C 899.77 426.00 897.66 424.76 895.74 423.26 C 894.21 422.01 893.73 419.92 892.29 418.61 C 890.06 417.37 887.29 417.37 885.27 415.76 C 872.07 405.42 860.10 393.50 849.75 380.31 C 839.61 367.17 831.81 352.26 826.63 336.51 C 820.34 317.36 817.83 297.11 817.99 277.00 C 818.17 254.91 821.98 232.75 830.26 212.23 C 842.73 181.52 864.19 154.40 891.62 135.71 M 1002.50 321.57 C 1002.49 323.76 1002.49 325.95 1002.50 328.14 C 1035.69 342.36 1070.17 353.47 1102.80 369.01 C 1096.65 382.35 1083.49 390.11 1072.91 399.55 C 1074.19 400.51 1075.48 401.47 1076.78 402.43 C 1085.40 397.90 1093.66 392.55 1100.71 385.78 C 1106.68 380.00 1112.41 372.91 1112.89 364.26 C 1076.11 349.99 1039.30 335.80 1002.50 321.57 Z" />
<path fill="#f4b20c" opacity="1.00" d=" M 228.16 120.24 C 229.22 118.85 229.56 116.49 231.42 115.99 C 291.41 230.40 351.40 344.81 411.38 459.23 C 400.58 459.35 389.78 459.03 378.99 459.49 C 346.01 459.51 313.04 459.49 280.06 459.50 C 236.38 459.91 192.70 459.70 149.01 459.75 C 110.03 460.26 71.02 459.89 32.03 460.00 C 97.38 346.73 162.82 233.51 228.16 120.24 M 216.50 311.58 C 211.19 313.50 207.78 318.75 206.67 324.10 C 205.50 329.48 204.81 335.86 208.68 340.36 C 213.77 348.44 225.76 351.30 233.63 345.66 C 240.37 340.48 242.85 331.15 241.47 323.02 C 237.22 313.90 226.27 308.35 216.50 311.58 M 327.36 352.65 C 337.67 381.48 356.59 406.34 366.46 435.34 C 344.48 436.02 322.48 436.58 300.49 437.31 C 300.49 439.03 300.50 440.76 300.50 442.50 C 327.01 442.09 353.51 441.56 380.01 440.94 C 369.05 419.95 358.06 398.96 347.10 377.97 C 342.04 368.68 337.56 359.04 332.19 349.94 C 330.52 350.74 328.95 351.72 327.36 352.65 Z" />
<path fill="#f4b20c" opacity="1.00" d=" M 1278.69 207.61 C 1296.50 176.94 1314.03 146.10 1331.99 115.52 C 1385.03 215.97 1437.49 316.73 1490.38 417.26 C 1483.16 417.23 1475.95 417.21 1468.73 417.28 C 1456.81 394.89 1445.08 372.39 1433.47 349.85 C 1431.73 350.73 1430.02 351.67 1428.34 352.62 C 1436.54 375.27 1449.71 395.61 1460.11 417.23 C 1447.42 417.28 1434.73 417.18 1422.05 417.27 C 1418.52 417.19 1414.65 419.19 1414.49 423.11 C 1414.91 428.10 1418.07 432.25 1420.06 436.70 C 1413.85 436.95 1407.63 436.99 1401.42 437.38 C 1401.45 439.08 1401.49 440.79 1401.54 442.50 C 1408.63 442.63 1415.72 442.02 1422.83 442.30 C 1425.85 448.01 1428.71 453.82 1431.66 459.58 C 1416.16 459.43 1400.65 459.48 1385.15 459.56 C 1387.81 456.72 1391.98 454.33 1392.03 449.98 C 1392.02 447.64 1390.73 445.56 1388.95 444.14 C 1385.86 441.55 1382.84 438.87 1379.50 436.63 C 1378.72 435.08 1378.19 433.32 1376.90 432.11 C 1370.49 426.37 1363.35 420.96 1354.89 418.74 C 1338.38 413.76 1319.23 422.02 1310.91 436.99 C 1308.20 441.53 1306.57 446.63 1305.92 451.86 C 1301.86 445.04 1294.42 441.42 1289.95 435.00 C 1276.98 419.95 1254.96 413.76 1235.94 419.19 C 1219.06 423.67 1204.25 436.99 1199.42 453.95 C 1198.02 447.73 1191.80 444.56 1187.44 440.55 C 1180.06 430.14 1168.54 423.08 1156.54 419.13 C 1197.30 348.65 1237.98 278.12 1278.69 207.61 M 1317.42 311.59 C 1308.12 315.29 1305.59 327.11 1307.24 336.01 C 1309.64 341.84 1314.71 346.92 1321.05 348.18 C 1325.85 349.09 1331.28 348.47 1335.12 345.20 C 1340.73 340.59 1343.16 333.02 1342.79 325.93 C 1343.11 322.52 1340.53 319.93 1338.57 317.48 C 1333.47 311.56 1324.82 309.29 1317.42 311.59 Z" />
<path fill="#f4b20c" opacity="1.00" d=" M 1028.48 447.83 C 1032.93 447.86 1037.41 448.13 1041.85 447.49 C 1037.39 448.79 1032.92 450.07 1028.37 450.99 C 1028.39 449.93 1028.43 448.88 1028.48 447.83 Z" />
<path fill="#f4b20c" opacity="1.00" d=" M 947.73 448.36 C 959.27 447.29 970.91 448.18 982.50 447.86 C 982.49 450.01 982.48 452.16 982.48 454.32 C 970.72 453.54 959.15 451.19 947.73 448.36 Z" />
<path fill="#f4b20c" opacity="1.00" d=" M 1137.79 452.71 C 1147.22 446.61 1159.56 446.66 1169.82 450.56 C 1166.45 453.56 1163.37 456.85 1160.15 460.01 C 1151.10 459.99 1142.04 460.00 1132.99 460.00 C 1134.53 457.55 1135.55 454.63 1137.79 452.71 Z" />
<path fill="#f4b20c" opacity="1.00" d=" M 1235.89 460.00 C 1242.82 452.07 1253.30 447.13 1263.93 447.91 C 1273.51 447.94 1282.36 452.97 1288.86 459.75 C 1271.20 459.90 1253.53 459.45 1235.89 460.00 Z" />
<path fill="#f4b20c" opacity="1.00" d=" M 1350.05 449.09 C 1353.47 447.72 1357.23 447.91 1360.85 447.97 C 1357.10 451.80 1353.56 455.88 1349.77 459.65 C 1345.89 459.93 1342.00 459.68 1338.12 459.76 C 1340.99 455.20 1344.90 451.01 1350.05 449.09 Z" />
<path fill="#f4b20c" opacity="1.00" d=" M 1452.32 447.93 C 1470.40 447.93 1488.50 447.69 1506.58 448.05 C 1507.76 451.76 1511.85 455.09 1510.30 459.23 C 1492.88 459.03 1475.47 459.80 1458.05 459.39 C 1456.21 455.53 1454.26 451.73 1452.32 447.93 Z" />
<path fill="#f4b20c" opacity="1.00" d=" M 1561.42 458.97 C 1561.43 455.25 1561.42 451.54 1561.51 447.83 C 1576.23 447.93 1590.96 447.89 1605.69 447.85 C 1604.73 451.06 1604.61 454.42 1604.72 457.75 C 1590.27 457.62 1575.82 457.91 1561.42 458.97 Z" />
<path fill="#f4b20c" opacity="1.00" d=" M 1653.69 447.86 C 1665.80 447.96 1677.92 447.77 1690.04 447.95 C 1696.82 448.18 1701.75 453.87 1704.79 459.41 C 1702.21 460.62 1699.60 461.96 1696.67 461.86 C 1695.03 458.76 1692.63 455.59 1688.97 454.94 C 1683.77 453.26 1678.34 456.21 1675.70 460.71 C 1668.35 460.51 1661.03 459.95 1653.69 459.69 C 1653.69 455.74 1653.69 451.80 1653.69 447.86 Z" />
<path fill="#f4b20c" opacity="1.00" d=" M 1742.76 447.86 C 1760.54 447.90 1778.32 447.88 1796.10 447.87 L 1796.04 449.17 C 1792.32 449.30 1788.14 448.55 1784.91 450.81 C 1782.47 452.51 1782.58 455.79 1782.29 458.43 C 1775.93 459.40 1769.56 460.30 1763.15 460.79 C 1762.02 458.87 1760.49 457.05 1758.11 456.84 C 1753.02 456.08 1747.83 456.66 1742.71 456.52 C 1742.74 453.63 1742.76 450.75 1742.76 447.86 Z" />
<path fill="#f4b20c" opacity="1.00" d=" M 2113.13 447.87 C 2119.46 447.88 2125.79 447.89 2132.12 447.87 C 2132.11 452.09 2132.15 456.31 2132.03 460.54 C 2125.73 460.47 2119.44 460.49 2113.16 460.52 C 2113.10 456.30 2113.12 452.09 2113.13 447.87 Z" />
<path fill="#f4b20c" opacity="1.00" d=" M 2205.40 447.96 C 2220.17 447.76 2234.95 447.97 2249.73 447.85 C 2248.36 451.82 2248.73 456.03 2248.75 460.14 C 2234.32 460.40 2219.88 460.63 2205.44 460.50 C 2205.44 456.32 2205.45 452.14 2205.40 447.96 Z" />
<path fill="#f4b20c" opacity="1.00" d=" M 2313.10 449.08 C 2316.50 447.71 2320.24 447.91 2323.86 447.96 C 2319.88 452.00 2316.16 456.30 2312.21 460.33 C 2308.43 460.75 2304.62 460.42 2300.85 460.46 C 2303.53 455.49 2307.74 451.11 2313.10 449.08 Z" />
<path fill="#f4b20c" opacity="1.00" d=" M 2045.23 455.61 C 2046.02 457.25 2046.85 458.89 2047.70 460.53 C 2046.08 460.51 2044.48 460.50 2042.92 460.50 C 2043.67 458.87 2044.44 457.24 2045.23 455.61 Z" />
</g>
<g id="#3b2b0380">
<path fill="#3b2b03" opacity="0.50" d=" M 1699.03 86.54 C 1702.19 86.00 1705.41 86.01 1708.60 86.51 C 1705.42 86.95 1702.20 86.98 1699.03 86.54 Z" />
</g>
<g id="#ff0000ff">
<path fill="#ff0000" opacity="1.00" d=" M 1981.29 518.92 C 1998.51 484.53 2015.73 450.15 2032.94 415.76 C 2036.11 421.86 2038.88 428.18 2042.35 434.13 C 2043.30 432.13 2044.28 430.14 2045.31 428.17 C 2055.91 449.46 2066.57 470.70 2077.16 491.99 C 2080.90 499.06 2083.95 506.53 2088.21 513.32 C 2088.56 483.28 2088.26 453.22 2088.36 423.18 C 2102.95 423.15 2117.54 423.17 2132.13 423.17 C 2132.13 427.24 2132.12 431.31 2132.16 435.39 C 2136.25 435.35 2140.35 435.35 2144.46 435.37 C 2144.55 450.65 2144.33 465.94 2144.57 481.23 C 2150.75 481.11 2156.93 481.18 2163.12 481.16 C 2163.14 485.31 2163.13 489.47 2163.14 493.62 C 2167.25 493.58 2171.37 493.59 2175.50 493.59 C 2175.57 505.98 2175.49 518.37 2175.54 530.77 C 2150.65 530.82 2125.77 530.77 2100.89 530.79 C 2100.84 526.69 2100.85 522.59 2100.83 518.49 C 2097.32 518.54 2093.83 518.54 2090.36 518.50 C 2092.55 522.74 2094.66 527.03 2096.80 531.30 C 2062.40 531.35 2028.00 531.34 1993.61 531.31 C 1995.61 527.15 1997.80 523.08 1999.82 518.93 C 1993.64 518.91 1987.46 518.92 1981.29 518.92 M 2107.23 441.97 C 2107.26 469.43 2107.26 496.90 2107.23 524.36 C 2127.86 524.36 2148.49 524.36 2169.12 524.36 C 2169.11 516.22 2169.12 508.09 2169.12 499.96 C 2158.77 499.95 2148.42 499.97 2138.08 499.96 C 2138.07 480.61 2138.08 461.27 2138.08 441.93 C 2127.79 441.94 2117.51 441.86 2107.23 441.97 M 2004.16 524.95 C 2031.59 525.07 2059.03 524.97 2086.47 525.00 C 2072.80 497.60 2059.01 470.26 2045.36 442.85 C 2031.32 470.05 2018.01 497.64 2004.16 524.95 Z" />
<path fill="#ff0000" opacity="1.00" d=" M 845.26 423.17 C 859.82 423.15 874.38 423.18 888.95 423.16 C 888.96 427.22 888.96 431.29 888.96 435.36 C 893.15 435.36 897.33 435.36 901.53 435.37 C 901.50 454.94 901.58 474.51 901.49 494.07 C 901.39 506.01 895.10 517.63 885.18 524.26 C 871.93 533.55 852.06 533.20 840.15 521.80 C 836.52 518.73 834.65 513.99 830.49 511.50 C 818.99 503.19 814.22 488.35 814.39 474.63 C 824.70 474.65 835.02 474.78 845.33 474.56 C 845.16 457.43 845.31 440.30 845.26 423.17 M 864.14 441.92 C 864.08 459.17 864.27 476.42 864.05 493.67 C 853.76 493.59 843.47 493.68 833.19 493.62 C 833.23 506.81 842.38 519.28 855.06 523.01 C 865.33 526.25 877.19 523.53 885.04 516.15 C 891.41 510.28 894.91 501.66 894.97 493.05 C 895.04 476.01 894.98 458.97 895.00 441.93 C 884.71 441.92 874.43 441.92 864.14 441.92 Z" />
<path fill="#ff0000" opacity="1.00" d=" M 908.01 423.15 C 932.87 423.19 957.73 423.14 982.59 423.18 C 982.58 427.24 982.58 431.30 982.58 435.37 C 986.68 435.36 990.78 435.36 994.89 435.34 C 994.96 454.56 994.90 473.77 994.92 492.99 C 995.36 506.85 987.04 520.46 974.71 526.68 C 960.52 534.10 941.38 531.45 930.47 519.49 C 927.98 516.93 926.64 513.30 923.44 511.49 C 916.17 506.96 911.27 499.31 909.12 491.13 C 907.79 486.55 907.99 481.74 907.99 477.03 C 908.02 459.07 907.97 441.11 908.01 423.15 M 926.75 441.92 C 926.73 458.94 926.75 475.96 926.73 492.97 C 926.57 503.58 932.17 514.20 941.30 519.71 C 948.11 524.00 956.62 525.36 964.45 523.59 C 977.57 520.69 987.95 508.49 988.32 495.00 C 988.42 477.31 988.33 459.61 988.36 441.92 C 967.82 441.92 947.28 441.92 926.75 441.92 Z" />
<path fill="#ff0000" opacity="1.00" d=" M 1003.62 423.16 C 1028.55 423.21 1053.49 423.10 1078.42 423.21 C 1078.39 427.26 1078.40 431.32 1078.40 435.38 C 1082.52 435.35 1086.64 435.36 1090.78 435.36 C 1090.80 449.95 1090.78 464.53 1090.79 479.12 C 1086.65 479.14 1082.52 479.14 1078.39 479.14 C 1078.39 481.78 1078.39 484.43 1078.37 487.08 C 1082.50 487.20 1086.64 487.17 1090.79 487.17 C 1090.78 501.71 1090.79 516.25 1090.78 530.79 C 1065.91 530.79 1041.04 530.79 1016.17 530.79 C 1016.16 526.70 1016.16 522.61 1016.17 518.53 C 1011.97 518.53 1007.77 518.55 1003.58 518.48 C 1003.63 486.71 1003.55 454.93 1003.62 423.16 M 1022.59 441.92 C 1022.58 469.40 1022.60 496.89 1022.58 524.37 C 1043.13 524.35 1063.67 524.37 1084.22 524.36 C 1084.21 514.12 1084.21 503.88 1084.22 493.64 C 1075.19 493.64 1066.16 493.63 1057.14 493.65 C 1057.12 492.21 1057.12 490.78 1057.13 489.35 C 1061.43 489.36 1065.73 489.36 1070.04 489.36 C 1070.04 485.17 1070.04 480.98 1070.03 476.79 C 1065.73 476.78 1061.43 476.78 1057.13 476.79 C 1057.11 475.39 1057.11 474.00 1057.11 472.61 C 1066.16 472.54 1075.21 472.69 1084.26 472.53 C 1084.15 462.33 1084.24 452.12 1084.21 441.92 C 1063.67 441.92 1043.13 441.92 1022.59 441.92 Z" />
<path fill="#ff0000" opacity="1.00" d=" M 1106.79 439.78 C 1116.36 428.59 1131.26 422.02 1146.01 423.24 C 1159.60 424.07 1171.56 431.88 1181.03 441.17 C 1180.80 441.57 1180.35 442.36 1180.12 442.76 C 1185.07 445.85 1189.43 449.77 1193.63 453.80 C 1190.10 457.34 1186.48 460.79 1182.99 464.37 C 1185.50 464.36 1188.04 464.36 1190.58 464.36 C 1190.58 468.53 1190.59 472.69 1190.58 476.87 C 1194.52 476.86 1198.47 476.86 1202.43 476.85 C 1199.94 458.06 1209.86 438.62 1226.36 429.40 C 1245.56 417.91 1272.92 422.49 1286.70 440.33 C 1289.92 445.06 1295.32 447.61 1298.77 452.15 C 1311.48 466.68 1313.55 489.23 1304.09 505.99 C 1296.33 520.53 1280.49 530.32 1264.02 530.77 C 1252.02 531.27 1239.78 527.25 1230.79 519.20 C 1226.71 515.95 1224.29 511.09 1220.04 508.04 C 1211.43 501.39 1205.14 491.59 1203.31 480.81 C 1202.44 497.45 1203.15 514.13 1202.91 530.79 C 1186.93 530.78 1170.95 530.80 1154.97 530.78 C 1142.92 530.88 1130.98 526.03 1122.33 517.66 C 1119.00 514.66 1116.73 510.63 1113.03 508.04 C 1101.97 499.62 1095.31 485.93 1095.18 472.07 C 1094.73 460.33 1099.11 448.61 1106.79 439.78 M 1134.65 447.69 C 1123.21 454.34 1115.23 466.68 1114.15 479.90 C 1113.16 491.41 1117.36 503.26 1125.39 511.57 C 1132.98 519.62 1143.93 524.43 1155.01 524.34 C 1168.79 524.39 1182.58 524.34 1196.37 524.37 C 1196.33 510.64 1196.41 496.92 1196.32 483.20 C 1182.57 483.27 1168.81 483.28 1155.06 483.20 C 1164.54 473.35 1174.51 463.97 1183.92 454.06 L 1183.80 453.44 C 1171.31 440.57 1149.84 438.33 1134.65 447.69 M 1258.10 442.17 C 1240.98 443.86 1225.93 457.31 1222.09 474.04 C 1218.87 487.23 1222.97 501.85 1232.40 511.58 C 1239.98 519.60 1250.90 524.43 1261.97 524.34 C 1271.89 524.57 1281.69 520.67 1289.16 514.20 C 1302.14 503.30 1307.00 484.01 1300.65 468.27 C 1294.34 451.40 1276.04 440.01 1258.10 442.17 Z" />
<path fill="#ff0000" opacity="1.00" d=" M 1321.64 432.61 C 1330.29 424.23 1343.68 420.70 1355.14 424.87 C 1362.31 427.34 1368.32 432.18 1373.76 437.34 C 1373.40 437.78 1372.67 438.65 1372.30 439.08 C 1377.48 441.97 1382.11 445.73 1386.24 449.96 C 1381.54 454.72 1376.82 459.46 1372.13 464.23 C 1374.33 468.87 1379.61 470.45 1382.73 474.30 C 1392.91 485.06 1394.25 502.71 1386.16 515.05 C 1379.46 525.78 1366.41 532.13 1353.82 530.60 C 1344.07 529.62 1335.65 523.77 1329.08 516.81 C 1329.34 516.05 1329.63 515.28 1329.93 514.53 C 1324.75 512.01 1320.35 508.22 1316.52 503.98 C 1321.28 499.22 1326.03 494.46 1330.81 489.71 C 1329.52 487.84 1328.23 485.93 1326.30 484.70 C 1318.94 479.70 1313.55 471.79 1311.93 463.02 C 1309.75 452.10 1313.63 440.30 1321.64 432.61 M 1341.42 447.24 C 1330.71 454.66 1327.10 470.24 1333.31 481.67 C 1337.84 490.73 1347.73 496.54 1357.82 496.51 C 1351.14 503.19 1344.51 509.92 1337.75 516.52 C 1344.75 524.11 1356.35 525.97 1365.95 523.06 C 1375.87 520.00 1383.43 510.80 1384.81 500.54 C 1386.10 491.40 1382.16 481.78 1374.97 476.02 C 1370.05 471.92 1363.71 469.84 1357.36 469.60 C 1363.89 463.01 1370.48 456.48 1377.03 449.90 C 1367.84 440.50 1351.89 439.31 1341.42 447.24 Z" />
<path fill="#ff0000" opacity="1.00" d=" M 1419.94 423.19 C 1454.31 423.15 1488.67 423.15 1523.04 423.19 C 1521.05 427.26 1518.97 431.29 1517.02 435.38 C 1523.10 435.35 1529.19 435.35 1535.29 435.37 C 1527.22 452.75 1518.25 469.72 1509.82 486.93 C 1501.29 503.89 1492.94 520.94 1484.35 537.85 C 1484.16 537.82 1483.79 537.75 1483.61 537.72 C 1480.49 531.93 1477.74 525.95 1474.74 520.11 C 1473.65 522.08 1472.61 524.07 1471.58 526.06 C 1454.23 491.84 1437.09 457.51 1419.94 423.19 M 1442.81 441.93 C 1456.54 469.33 1470.27 496.74 1484.00 524.14 C 1497.73 496.74 1511.46 469.33 1525.19 441.93 C 1497.73 441.92 1470.27 441.92 1442.81 441.93 Z" />
<path fill="#ff0000" opacity="1.00" d=" M 1536.64 423.14 C 1561.57 423.22 1586.49 423.10 1611.42 423.21 C 1611.39 427.26 1611.39 431.32 1611.40 435.38 C 1615.52 435.35 1619.64 435.36 1623.78 435.36 C 1623.80 449.95 1623.78 464.54 1623.79 479.13 C 1619.64 479.14 1615.49 479.14 1611.36 479.14 C 1611.37 481.83 1611.40 484.53 1611.50 487.22 C 1615.59 487.14 1619.68 487.15 1623.79 487.17 C 1623.78 501.71 1623.79 516.25 1623.78 530.79 C 1598.91 530.79 1574.04 530.79 1549.17 530.79 C 1549.15 526.70 1549.15 522.61 1549.17 518.53 C 1544.97 518.53 1540.78 518.54 1536.59 518.50 C 1536.63 486.71 1536.53 454.93 1536.64 423.14 M 1555.59 441.92 C 1555.58 469.40 1555.60 496.89 1555.58 524.37 C 1576.12 524.35 1596.67 524.37 1617.22 524.36 C 1617.21 514.12 1617.20 503.88 1617.22 493.64 C 1608.18 493.64 1599.15 493.63 1590.13 493.65 C 1590.11 492.20 1590.12 490.77 1590.15 489.34 C 1594.44 489.37 1598.73 489.36 1603.03 489.36 C 1603.03 485.17 1603.03 480.98 1603.03 476.79 C 1598.73 476.78 1594.43 476.78 1590.14 476.80 C 1590.11 475.40 1590.09 474.00 1590.10 472.62 C 1599.15 472.53 1608.21 472.70 1617.26 472.52 C 1617.15 462.32 1617.24 452.12 1617.21 441.92 C 1596.67 441.92 1576.13 441.92 1555.59 441.92 Z" />
<path fill="#ff0000" opacity="1.00" d=" M 1629.01 423.16 C 1644.65 423.17 1660.29 423.18 1675.93 423.15 C 1684.06 422.86 1691.83 426.96 1697.32 432.75 C 1699.77 435.28 1701.28 438.72 1704.41 440.58 C 1711.07 444.98 1716.34 451.89 1717.65 459.89 C 1718.41 465.60 1718.18 471.60 1715.89 476.96 C 1712.90 484.48 1706.74 490.52 1699.36 493.75 C 1707.33 506.08 1715.43 518.33 1723.24 530.76 C 1695.94 530.82 1668.65 530.78 1641.36 530.78 C 1641.35 526.69 1641.35 522.61 1641.37 518.53 C 1637.27 518.52 1633.17 518.51 1629.08 518.58 C 1628.90 486.78 1629.04 454.97 1629.01 423.16 M 1647.79 441.92 C 1647.78 469.40 1647.80 496.88 1647.78 524.36 C 1669.00 524.36 1690.22 524.36 1711.44 524.36 C 1703.90 512.74 1696.41 501.08 1688.88 489.44 C 1700.32 489.05 1710.42 479.34 1711.40 467.97 C 1712.90 455.15 1702.08 442.08 1689.01 441.95 C 1675.27 441.88 1661.53 441.94 1647.79 441.92 Z" />
<path fill="#ff0000" opacity="1.00" d=" M 1718.05 423.16 C 1746.34 423.18 1774.63 423.16 1802.91 423.16 C 1802.91 427.23 1802.91 431.29 1802.92 435.36 C 1807.10 435.35 1811.29 435.34 1815.49 435.41 C 1815.43 446.55 1815.50 457.70 1815.45 468.84 C 1808.54 468.83 1801.64 468.83 1794.74 468.84 C 1794.73 489.48 1794.74 510.13 1794.74 530.78 C 1780.21 530.79 1765.69 530.79 1751.17 530.78 C 1751.15 526.70 1751.15 522.61 1751.17 518.53 C 1746.96 518.53 1742.77 518.55 1738.58 518.48 C 1738.65 501.96 1738.52 485.45 1738.64 468.93 C 1735.87 468.84 1733.10 468.81 1730.35 468.81 C 1730.35 464.69 1730.35 460.58 1730.38 456.47 C 1726.28 456.46 1722.20 456.45 1718.13 456.53 C 1717.93 445.40 1718.07 434.28 1718.05 423.16 M 1736.84 441.93 C 1736.82 448.74 1736.83 455.55 1736.83 462.36 C 1743.75 462.37 1750.66 462.35 1757.59 462.37 C 1757.58 483.03 1757.59 503.70 1757.58 524.37 C 1767.82 524.35 1778.07 524.36 1788.32 524.36 C 1788.31 503.70 1788.30 483.03 1788.32 462.36 C 1795.21 462.36 1802.10 462.36 1809.00 462.36 C 1808.99 455.54 1809.00 448.73 1809.00 441.92 C 1784.94 441.92 1760.89 441.92 1736.84 441.93 Z" />
<path fill="#ff0000" opacity="1.00" d=" M 1819.88 423.16 C 1834.41 423.19 1848.95 423.12 1863.48 423.19 C 1863.46 427.25 1863.46 431.31 1863.46 435.37 C 1867.59 435.35 1871.72 435.36 1875.86 435.35 C 1875.89 467.17 1875.88 498.98 1875.87 530.79 C 1861.30 530.78 1846.74 530.79 1832.17 530.79 C 1832.15 526.70 1832.15 522.61 1832.17 518.53 C 1828.04 518.54 1823.92 518.58 1819.82 518.43 C 1819.93 486.67 1819.80 454.92 1819.88 423.16 M 1838.69 441.92 C 1838.68 469.40 1838.70 496.88 1838.68 524.36 C 1848.93 524.36 1859.17 524.35 1869.42 524.37 C 1869.40 496.89 1869.42 469.40 1869.41 441.92 C 1859.17 441.92 1848.93 441.92 1838.69 441.92 Z" />
<path fill="#ff0000" opacity="1.00" d=" M 1891.43 441.51 C 1902.57 427.09 1922.22 419.93 1939.99 424.35 C 1950.26 426.69 1959.33 433.07 1965.77 441.32 C 1968.04 444.38 1971.39 446.33 1974.08 449.00 C 1979.50 454.26 1983.69 460.66 1986.95 467.46 C 1978.55 471.62 1970.18 475.84 1961.83 480.09 C 1965.89 482.23 1970.01 484.30 1974.15 486.32 C 1973.42 488.03 1972.70 489.74 1972.01 491.46 C 1977.00 493.80 1981.89 496.34 1986.84 498.79 C 1982.00 508.13 1975.74 517.06 1966.95 523.08 C 1951.39 533.91 1929.24 533.11 1913.92 522.20 C 1908.85 518.96 1905.19 514.16 1901.18 509.81 C 1895.48 505.48 1890.32 500.30 1886.95 493.93 C 1877.83 477.62 1879.60 456.02 1891.43 441.51 M 1934.09 442.63 C 1915.88 445.75 1900.93 462.37 1900.27 480.92 C 1898.99 498.83 1910.89 516.69 1928.01 522.19 C 1946.69 528.92 1969.58 519.61 1978.01 501.60 C 1965.59 495.64 1953.39 489.24 1941.04 483.17 C 1953.31 476.81 1965.75 470.75 1978.15 464.64 C 1970.70 448.37 1951.48 439.20 1934.09 442.63 Z" />
<path fill="#ff0000" opacity="1.00" d=" M 2180.63 423.15 C 2205.56 423.21 2230.49 423.11 2255.42 423.20 C 2255.39 427.26 2255.39 431.32 2255.40 435.38 C 2259.51 435.35 2263.64 435.36 2267.78 435.36 C 2267.80 449.94 2267.78 464.53 2267.79 479.12 C 2263.63 479.14 2259.49 479.14 2255.36 479.15 C 2255.37 481.83 2255.40 484.52 2255.48 487.21 C 2259.57 487.15 2263.68 487.15 2267.79 487.17 C 2267.78 501.71 2267.79 516.25 2267.79 530.78 C 2242.91 530.80 2218.04 530.78 2193.17 530.79 C 2193.15 526.70 2193.15 522.61 2193.17 518.53 C 2188.96 518.53 2184.77 518.54 2180.59 518.49 C 2180.63 486.71 2180.54 454.93 2180.63 423.15 M 2199.59 441.92 C 2199.58 469.40 2199.60 496.89 2199.58 524.37 C 2220.12 524.35 2240.67 524.37 2261.22 524.36 C 2261.21 514.12 2261.20 503.88 2261.22 493.64 C 2252.18 493.64 2243.15 493.62 2234.13 493.65 C 2234.10 492.20 2234.11 490.77 2234.16 489.34 C 2238.44 489.37 2242.73 489.36 2247.03 489.36 C 2247.03 485.17 2247.03 480.98 2247.04 476.79 C 2242.72 476.78 2238.42 476.78 2234.13 476.79 C 2234.10 475.39 2234.09 473.99 2234.12 472.61 C 2243.16 472.55 2252.20 472.68 2261.25 472.53 C 2261.15 462.33 2261.24 452.13 2261.21 441.92 C 2240.67 441.92 2220.13 441.92 2199.59 441.92 Z" />
<path fill="#ff0000" opacity="1.00" d=" M 2281.32 436.36 C 2288.95 426.26 2302.66 420.93 2315.06 423.95 C 2323.52 425.99 2330.61 431.44 2336.77 437.36 C 2336.40 437.79 2335.67 438.65 2335.30 439.08 C 2340.48 441.96 2345.10 445.73 2349.25 449.96 C 2344.53 454.72 2339.81 459.46 2335.12 464.24 C 2337.34 468.86 2342.59 470.45 2345.73 474.29 C 2356.10 485.24 2357.27 503.32 2348.74 515.70 C 2341.94 526.02 2329.21 532.07 2316.91 530.61 C 2307.12 529.65 2298.65 523.79 2292.08 516.81 C 2292.33 516.04 2292.62 515.28 2292.93 514.53 C 2287.76 512.01 2283.35 508.23 2279.52 503.99 C 2284.27 499.22 2289.03 494.46 2293.80 489.71 C 2291.03 484.70 2285.22 482.67 2282.00 478.02 C 2272.09 466.49 2271.86 448.23 2281.32 436.36 M 2313.03 443.04 C 2300.67 446.29 2291.82 459.14 2293.42 471.87 C 2294.43 485.56 2307.13 496.78 2320.80 496.50 C 2314.17 503.30 2307.31 509.88 2300.73 516.73 C 2309.99 525.93 2325.92 526.91 2336.44 519.31 C 2343.22 514.44 2347.66 506.44 2348.05 498.08 C 2348.31 490.16 2344.95 482.18 2339.01 476.91 C 2333.97 472.28 2327.21 469.84 2320.42 469.61 C 2326.86 462.95 2333.51 456.49 2340.03 449.90 C 2333.09 442.98 2322.42 440.20 2313.03 443.04 Z" />
<path fill="#ff0000" opacity="1.00" d=" M 1802.03 447.38 C 1802.89 447.38 1804.61 447.37 1805.47 447.37 C 1805.46 451.07 1805.46 454.78 1805.48 458.49 C 1799.76 458.57 1794.05 458.51 1788.35 458.54 C 1788.30 457.40 1788.27 456.27 1788.26 455.15 C 1792.85 455.10 1797.44 455.12 1802.04 455.12 C 1802.03 452.54 1802.02 449.96 1802.03 447.38 Z" />
<path fill="#ff0000" opacity="1.00" d=" M 1353.08 465.00 C 1357.80 459.93 1362.46 454.80 1367.14 449.69 C 1368.02 450.40 1368.93 451.12 1369.85 451.84 C 1365.11 456.99 1360.38 462.14 1355.72 467.36 C 1354.82 466.57 1353.94 465.78 1353.08 465.00 Z" />
<path fill="#ff0000" opacity="1.00" d=" M 2316.06 465.00 C 2320.82 460.10 2325.15 454.78 2330.04 450.01 C 2331.05 450.43 2332.01 451.01 2332.92 451.74 C 2328.20 456.92 2323.42 462.06 2318.78 467.31 C 2317.85 466.54 2316.94 465.77 2316.06 465.00 Z" />
<path fill="#ff0000" opacity="1.00" d=" M 1077.58 451.23 C 1078.68 451.19 1079.81 451.15 1080.95 451.13 C 1080.96 457.31 1080.99 463.49 1080.92 469.67 C 1074.34 469.61 1067.76 469.64 1061.19 469.65 C 1061.16 468.48 1061.15 467.33 1061.15 466.18 C 1066.63 466.15 1072.11 466.16 1077.59 466.17 C 1077.59 461.19 1077.60 456.21 1077.58 451.23 Z" />
<path fill="#ff0000" opacity="1.00" d=" M 1610.58 451.22 C 1611.68 451.18 1612.79 451.14 1613.93 451.11 C 1613.97 457.29 1613.97 463.48 1613.93 469.66 C 1607.34 469.62 1600.76 469.64 1594.18 469.64 C 1594.15 468.48 1594.14 467.32 1594.16 466.17 C 1599.63 466.16 1605.11 466.16 1610.59 466.17 C 1610.59 461.19 1610.60 456.20 1610.58 451.22 Z" />
<path fill="#ff0000" opacity="1.00" d=" M 2254.58 451.23 C 2255.67 451.19 2256.79 451.15 2257.94 451.13 C 2257.96 457.30 2257.97 463.48 2257.93 469.66 C 2251.34 469.62 2244.76 469.64 2238.19 469.65 C 2238.14 468.48 2238.13 467.33 2238.15 466.18 C 2243.62 466.16 2249.10 466.16 2254.59 466.17 C 2254.59 461.19 2254.60 456.21 2254.58 451.23 Z" />
<path fill="#ff0000" opacity="1.00" d=" M 1175.72 452.91 C 1176.52 453.71 1177.33 454.52 1178.15 455.34 C 1169.28 463.86 1160.77 472.73 1151.98 481.31 C 1151.23 480.54 1150.48 479.77 1149.76 479.01 C 1158.39 470.29 1167.20 461.74 1175.72 452.91 Z" />
<path fill="#ff0000" opacity="1.00" d=" M 1684.43 460.50 C 1688.22 459.15 1692.40 463.13 1691.10 466.99 C 1690.34 471.13 1684.30 472.30 1681.85 469.03 C 1679.43 466.27 1680.84 461.40 1684.43 460.50 Z" />
<path fill="#ff0000" opacity="1.00" d=" M 1704.79 465.43 C 1705.82 465.38 1706.87 465.33 1707.95 465.30 C 1708.13 473.50 1702.40 480.91 1694.99 483.94 C 1690.93 485.85 1686.39 485.95 1682.01 485.94 C 1689.63 497.92 1697.42 509.78 1705.01 521.78 C 1699.17 521.79 1693.33 521.81 1687.50 521.75 C 1687.49 520.62 1687.51 519.49 1687.55 518.37 C 1691.21 518.36 1694.88 518.35 1698.56 518.37 C 1690.98 506.41 1683.19 494.58 1675.86 482.47 C 1681.48 482.26 1687.49 483.35 1692.72 480.69 C 1698.76 477.84 1704.19 472.37 1704.79 465.43 Z" />
<path fill="#ff0000" opacity="1.00" d=" M 1259.39 479.40 C 1263.37 476.54 1269.19 481.43 1267.23 485.84 C 1266.12 489.17 1261.59 490.23 1258.93 488.14 C 1256.10 486.09 1256.33 481.13 1259.39 479.40 Z" />
<path fill="#ff0000" opacity="1.00" d=" M 1296.60 483.18 C 1297.73 483.09 1298.88 483.02 1300.04 482.95 C 1300.54 503.22 1282.45 521.78 1262.08 521.37 C 1262.10 520.55 1262.16 518.90 1262.19 518.07 C 1280.22 517.44 1296.46 501.33 1296.60 483.18 Z" />
<path fill="#ff0000" opacity="1.00" d=" M 1938.31 485.83 C 1949.88 491.59 1961.30 497.65 1972.75 503.67 C 1968.60 508.64 1963.93 513.17 1958.46 516.67 C 1957.89 515.62 1957.38 514.58 1956.87 513.54 C 1960.56 511.00 1963.90 507.99 1967.02 504.76 C 1956.99 499.47 1946.96 494.19 1936.94 488.89 C 1937.37 487.86 1937.83 486.84 1938.31 485.83 Z" />
<path fill="#ff0000" opacity="1.00" d=" M 1483.99 507.85 C 1487.60 500.38 1491.34 492.97 1495.17 485.61 C 1495.75 487.30 1497.45 489.18 1496.18 491.00 C 1492.82 498.02 1489.47 505.05 1486.10 512.06 C 1485.37 510.65 1484.69 509.25 1483.99 507.85 Z" />
<path fill="#ff0000" opacity="1.00" d=" M 2042.33 488.41 C 2046.10 487.24 2049.90 491.22 2048.82 494.96 C 2048.09 499.38 2041.45 500.26 2039.24 496.56 C 2037.07 493.70 2038.94 489.25 2042.33 488.41 Z" />
<path fill="#ff0000" opacity="1.00" d=" M 888.91 493.31 C 889.70 493.30 891.29 493.27 892.08 493.26 C 892.39 508.25 878.76 521.29 864.01 521.63 C 864.00 520.81 864.00 519.17 864.00 518.35 C 876.86 517.51 887.97 506.08 888.91 493.31 Z" />
<path fill="#ff0000" opacity="1.00" d=" M 981.33 493.23 C 982.42 493.27 983.53 493.32 984.65 493.38 C 984.39 507.84 972.22 521.25 957.49 521.50 C 957.49 520.65 957.49 518.95 957.49 518.10 C 970.20 517.25 980.27 505.57 981.33 493.23 Z" />
<path fill="#ff0000" opacity="1.00" d=" M 1378.52 496.41 C 1379.63 496.40 1380.75 496.40 1381.90 496.40 C 1381.92 505.24 1377.17 514.05 1369.35 518.34 C 1365.72 520.56 1361.45 521.24 1357.29 521.67 C 1357.32 520.90 1357.38 519.34 1357.41 518.57 C 1368.63 517.57 1378.07 507.67 1378.52 496.41 Z" />
<path fill="#ff0000" opacity="1.00" d=" M 2341.52 496.41 C 2342.62 496.40 2343.74 496.40 2344.90 496.40 C 2344.90 505.01 2340.43 513.60 2332.94 517.99 C 2329.19 520.42 2324.72 521.24 2320.36 521.67 C 2320.38 520.84 2320.42 519.18 2320.43 518.35 C 2331.72 517.83 2341.04 507.50 2341.52 496.41 Z" />
<path fill="#ff0000" opacity="1.00" d=" M 1189.96 502.37 C 1190.70 502.37 1192.19 502.36 1192.93 502.35 C 1193.07 508.55 1192.97 514.76 1193.00 520.96 C 1186.38 520.96 1179.77 520.97 1173.17 520.95 C 1173.16 520.12 1173.15 518.46 1173.14 517.63 C 1178.71 517.57 1184.28 517.58 1189.85 517.63 C 1189.88 512.54 1189.77 507.45 1189.96 502.37 Z" />
<path fill="#ff0000" opacity="1.00" d=" M 1781.36 502.44 C 1782.48 502.41 1783.63 502.39 1784.80 502.38 C 1784.86 508.57 1784.81 514.76 1784.84 520.95 C 1778.20 520.97 1771.57 520.96 1764.95 520.96 C 1764.98 519.81 1765.05 518.66 1765.14 517.53 C 1770.55 517.65 1775.96 517.58 1781.38 517.60 C 1781.34 512.54 1781.35 507.49 1781.36 502.44 Z" />
<path fill="#ff0000" opacity="1.00" d=" M 1863.08 502.35 C 1863.81 502.35 1865.28 502.35 1866.01 502.35 C 1866.27 508.55 1866.09 514.75 1866.14 520.96 C 1859.50 520.97 1852.86 520.94 1846.23 520.98 C 1846.23 520.13 1846.24 518.44 1846.24 517.59 C 1851.80 517.60 1857.38 517.57 1862.96 517.63 C 1863.03 512.53 1862.93 507.44 1863.08 502.35 Z" />
<path fill="#ff0000" opacity="1.00" d=" M 2066.19 503.60 C 2067.20 503.05 2068.27 502.53 2069.35 502.00 C 2072.23 508.21 2075.69 514.16 2078.22 520.53 C 2071.94 520.53 2065.66 520.52 2059.39 520.53 C 2059.34 519.40 2059.32 518.27 2059.33 517.15 C 2063.90 517.10 2068.48 517.12 2073.06 517.11 C 2070.78 512.60 2068.55 508.06 2066.19 503.60 Z" />
<path fill="#ff0000" opacity="1.00" d=" M 2162.19 502.39 C 2163.31 502.39 2164.46 502.41 2165.64 502.43 C 2165.64 508.60 2165.61 514.76 2165.66 520.93 C 2158.97 520.99 2152.28 520.95 2145.61 520.96 C 2145.60 520.13 2145.60 518.46 2145.60 517.63 C 2151.11 517.56 2156.64 517.61 2162.17 517.59 C 2162.15 512.52 2162.14 507.45 2162.19 502.39 Z" />
<path fill="#ff0000" opacity="1.00" d=" M 1077.61 502.42 C 1078.45 502.42 1080.13 502.42 1080.97 502.43 C 1080.95 508.60 1080.97 514.78 1080.95 520.96 C 1074.35 520.95 1067.75 520.97 1061.16 520.95 C 1061.16 520.12 1061.16 518.45 1061.15 517.62 C 1066.64 517.58 1072.13 517.58 1077.62 517.62 C 1077.58 512.55 1077.59 507.48 1077.61 502.42 Z" />
<path fill="#ff0000" opacity="1.00" d=" M 1610.61 502.41 C 1611.45 502.42 1613.13 502.44 1613.98 502.45 C 1613.94 508.61 1613.96 514.79 1613.96 520.96 C 1607.35 520.96 1600.75 520.97 1594.16 520.95 C 1594.16 520.12 1594.15 518.45 1594.15 517.62 C 1599.63 517.58 1605.12 517.58 1610.62 517.62 C 1610.58 512.55 1610.58 507.48 1610.61 502.41 Z" />
<path fill="#ff0000" opacity="1.00" d=" M 2254.60 502.41 C 2255.45 502.42 2257.13 502.44 2257.98 502.44 C 2257.94 508.61 2257.96 514.78 2257.96 520.96 C 2251.35 520.96 2244.75 520.97 2238.16 520.95 C 2238.16 520.12 2238.16 518.45 2238.16 517.61 C 2243.64 517.58 2249.12 517.58 2254.62 517.62 C 2254.57 512.55 2254.58 507.48 2254.60 502.41 Z" />
</g>
<g id="#573f04ff">
<path fill="#573f04" opacity="1.00" d=" M 1812.41 429.07 C 1815.40 427.57 1812.49 432.40 1812.41 429.07 Z" />
</g>
<g id="#423003ff">
<path fill="#423003" opacity="1.00" d=" M 1198.13 455.42 C 1201.44 455.73 1196.44 458.32 1198.13 455.42 Z" />
</g>
<g id="#966e07ff">
<path fill="#966e07" opacity="1.00" d=" M 1196.34 459.93 C 1196.01 458.54 1196.53 458.02 1197.93 458.37 C 1198.25 459.77 1197.72 460.28 1196.34 459.93 Z" />
</g>
</svg>
