<svg height="156.566" viewBox="0 0 558.831 109.596" width="798.33" xmlns="http://www.w3.org/2000/svg">
    <g fill="#f4b20c">
        <path d="M0 92.6 52.668 1.084c6.676 11.93 14.773 27.044 24.295 45.341l23.829 45.896zm55.17-35.605c.186 1.484-.062 2.813-.742 3.986-.804 1.362-1.947 2.04-3.431 2.04-1.854 0-3.277-.987-4.265-2.967a7.182 7.182 0 0 1 .278-3.43c.494-1.36 1.328-2.194 2.503-2.505a6.852 6.852 0 0 1 1.113-.093c1.916.002 3.431.992 4.544 2.97zM189.913 91.284c-14.467.252-28.935.473-43.403.663-17.313.25-31.935.313-43.867.19V.248c3.461.434 14.372.371 32.731-.185 14.464-.37 25.374.866 32.73 3.71 10.508 4.018 17.214 11.868 20.121 23.551.06.804.093 1.64.093 2.505 0 8.593-4.142 16.104-12.426 22.533-2.227 1.731-5.101 3.153-8.625 4.265a501.97 501.97 0 0 1-9.273 2.504zm-38.406-62.847c.123.433.186.897.186 1.391 0 1.36-.434 2.488-1.298 3.384-.866.896-1.947 1.344-3.245 1.344-1.855 0-3.308-.987-4.358-2.966-.433-2.782.371-4.759 2.411-5.934a4.088 4.088 0 0 1 1.669-.37c2.347 0 3.893 1.05 4.635 3.151zm21.124 56.298c-4.508.061-11.148-.126-19.919-.56v-.843c1.73-.249 4.326-.344 7.789-.279 3.461.061 6.057-.064 7.788-.373l-15.577-15.949 1.945.003zm7.619-52.68c-.185 3.028-1.298 5.98-3.337 8.853-2.041 2.875-4.513 4.96-7.418 6.26l-8.344 3.708v-2.04c11.126-3.585 17.091-9.18 17.895-16.783h1.204zM277.792 62.001c-3.029 8.655-8.576 15.732-16.643 21.234-8.066 5.5-16.675 8.22-25.823 8.158-8.284 0-16.01-2.21-23.181-6.629-7.171-4.42-12.765-10.4-16.783-17.94-3.152-5.936-4.729-12.826-4.729-20.678 0-7.356 1.421-13.783 4.266-19.286 4.017-7.913 9.689-14.14 17.014-18.684 7.326-4.544 15.314-6.815 23.969-6.815 2.472 0 4.945.186 7.418.556 6.675 1.052 12.918 3.68 18.729 7.88 6.058 4.39 10.538 9.676 13.444 15.856-7.85 4.761-19.626 11.868-35.326 21.326 13.6 6 26.149 11.006 37.645 15.022zm-13.536 4.823c0 1.608-1.02 3.37-3.06 5.285-1.608 1.483-3.462 2.75-5.563 3.802l-.835-.649a185.33 185.33 0 0 0 3.895-3.245c1.607-1.359 2.688-2.72 3.245-4.08-2.906-1.42-6.894-3.09-11.961-5.007-6.119-2.348-10.168-3.955-12.146-4.82v-1.486zM264.255 92.6l52.667-91.516c6.676 11.93 14.773 27.044 24.295 45.341l23.829 45.896zm55.17-35.605c.185 1.484-.063 2.813-.742 3.986-.805 1.362-1.947 2.04-3.432 2.04-1.854 0-3.276-.987-4.266-2.967a7.158 7.158 0 0 1 .278-3.43c.494-1.36 1.329-2.194 2.504-2.505a6.849 6.849 0 0 1 1.112-.093c1.917.002 3.433.992 4.546 2.97zm33.195 28.188-19.01.371v-1.206l15.857-.463c-.682-2.226-2.195-5.472-4.545-9.736-2.473-4.512-4.079-7.882-4.821-10.106l1.112-.649zM459.62 68.54c-4.636 9.501-11.623 16.133-20.955 19.896-7.109 2.837-16.69 4.256-28.745 4.256-3.276 0-8.283-.125-15.02-.37-6.738-.248-11.746-.372-15.022-.372-5.067 0-9.518.247-13.351.742L366.805.25c3.709.371 7.941.557 12.701.557 3.276 0 8.314-.093 15.115-.278C401.42.342 406.49.25 409.826.25c10.323 0 18.762 1.111 25.313 3.331 8.406 2.838 15.083 7.834 20.028 14.992 6.306 7.094 9.457 16.317 9.457 27.667.001 8.082-1.667 15.516-5.004 22.3zm-37.646-11.916c.124.434.186.896.186 1.392 0 1.112-.356 2.117-1.066 3.013-.711.896-1.622 1.407-2.735 1.53-2.597-.493-4.204-1.452-4.821-2.874a8.385 8.385 0 0 1-.093-1.205c0-2.164.988-3.74 2.967-4.73a6.85 6.85 0 0 1 1.113-.092c1.853 0 3.337.99 4.449 2.966zm35.699-9.087c-.928 7.543-3.093 14.157-6.491 19.842-3.957 6.677-9.212 11.282-15.764 13.816-3.648 1.421-6.338 2.38-8.065 2.874-3.029.866-5.874 1.328-8.531 1.392l-.464-1.113c14.525-2.535 24.603-7.82 30.228-15.855 3.832-5.5 6.306-12.485 7.418-20.955h1.669zM558.831 42.623h-50.44c-.557 1.498-.835 3.246-.835 5.241 0 1.997.278 3.68.835 5.053h17.895v11.59l-17.895.834v9.087l50.162.371v17.802h-89.662V.25h89.662zM514.046 9.057l-36.439.278-.278 30.228h-1.297V7.39c8.529-.122 21.2.033 38.015.464v1.204z"/>
    </g>
    <path d="M0 92.6 52.668 1.084c6.676 11.93 14.773 27.044 24.295 45.341l23.829 45.896zm96.018-2.968L52.664 7.043 4.812 89.818zM55.17 56.995c.186 1.484-.062 2.813-.742 3.986-.804 1.362-1.947 2.04-3.431 2.04-1.854 0-3.277-.987-4.265-2.967a7.182 7.182 0 0 1 .278-3.43c.494-1.36 1.328-2.194 2.503-2.505a6.852 6.852 0 0 1 1.113-.093c1.916.002 3.431.992 4.544 2.97zm33.195 28.188-19.009.371v-1.206l15.855-.463c-.681-2.226-2.195-5.472-4.543-9.736-2.473-4.512-4.08-7.882-4.822-10.106l1.113-.649zM189.913 91.284c-14.467.252-28.935.473-43.403.663-17.313.25-31.935.313-43.867.19V.248c3.461.434 14.372.371 32.731-.185 14.464-.37 25.374.866 32.73 3.71 10.508 4.018 17.214 11.868 20.121 23.551.06.804.093 1.64.093 2.505 0 8.593-4.142 16.104-12.426 22.533-2.227 1.731-5.101 3.153-8.625 4.265a501.97 501.97 0 0 1-9.273 2.504zm-4.562-63.988c-2.536-9.446-7.728-16.053-15.578-19.819-6.059-2.839-14.557-4.26-25.499-4.26-3.029 0-7.603.138-13.723.417s-10.632.418-13.538.418c-4.45 0-8.314-.216-11.59-.649v85.581h77.979l-29.326-29.55c-.354-.432-.529-.957-.529-1.575-.062-.803.217-1.327.835-1.573 6.551 0 12.888-2.007 19.008-6.022 8.529-5.493 12.517-13.15 11.961-22.968zm-33.844 1.141c.123.433.186.897.186 1.391 0 1.36-.434 2.488-1.298 3.384-.866.896-1.947 1.344-3.245 1.344-1.855 0-3.308-.987-4.358-2.966-.433-2.782.371-4.759 2.411-5.934a4.088 4.088 0 0 1 1.669-.37c2.347 0 3.893 1.05 4.635 3.151zm21.124 56.298c-4.508.061-11.148-.126-19.919-.56v-.843c1.73-.249 4.326-.344 7.789-.279 3.461.061 6.057-.064 7.788-.373l-15.577-15.949 1.945.003zm7.619-52.68c-.185 3.028-1.298 5.98-3.337 8.853-2.041 2.875-4.513 4.96-7.418 6.26l-8.344 3.708v-2.04c11.126-3.585 17.091-9.18 17.895-16.783h1.204zM277.792 62.001c-3.029 8.655-8.576 15.732-16.643 21.234-8.066 5.5-16.675 8.22-25.823 8.158-8.284 0-16.01-2.21-23.181-6.629-7.171-4.42-12.765-10.4-16.783-17.94-3.152-5.936-4.729-12.826-4.729-20.678 0-7.356 1.421-13.783 4.266-19.286 4.017-7.913 9.689-14.14 17.014-18.684 7.326-4.544 15.314-6.815 23.969-6.815 2.472 0 4.945.186 7.418.556 6.675 1.052 12.918 3.68 18.729 7.88 6.058 4.39 10.538 9.676 13.444 15.856-7.85 4.761-19.626 11.868-35.326 21.326 13.6 6 26.149 11.006 37.645 15.022zm-4.855 1.756c-14.334-5.404-27.371-10.81-39.108-16.213 4.824-2.779 11.164-6.61 19.021-11.493 9.401-5.93 15.618-9.824 18.649-11.679-2.906-5.319-7.11-9.742-12.612-13.269-5.008-3.217-10.604-5.413-16.785-6.59a67.449 67.449 0 0 0-4.915-.185c-8.161 0-15.58 1.793-22.256 5.377-7.048 3.834-12.521 9.273-16.415 16.32-3.337 5.997-5.006 12.765-5.006 20.306 0 10.262 2.873 18.792 8.618 25.591 4.388 5.193 9.5 9.256 15.339 12.193 5.838 2.936 11.94 4.404 18.306 4.404 4.448 0 8.804-.74 13.067-2.219 5.623-1.908 10.628-4.773 15.015-8.593 5.004-4.309 8.029-8.96 9.082-13.95zm-8.681 3.067c0 1.608-1.02 3.37-3.06 5.285-1.608 1.483-3.462 2.75-5.563 3.802l-.835-.649a185.33 185.33 0 0 0 3.895-3.245c1.607-1.359 2.688-2.72 3.245-4.08-2.906-1.42-6.894-3.09-11.961-5.007-6.119-2.348-10.168-3.955-12.146-4.82v-1.486zM264.255 92.6l52.667-91.516c6.676 11.93 14.773 27.044 24.295 45.341l23.829 45.896zm96.018-2.968L316.918 7.043l-47.852 82.775zm-40.848-32.637c.185 1.484-.063 2.813-.742 3.986-.805 1.362-1.947 2.04-3.432 2.04-1.854 0-3.276-.987-4.266-2.967a7.158 7.158 0 0 1 .278-3.43c.494-1.36 1.329-2.194 2.504-2.505a6.849 6.849 0 0 1 1.112-.093c1.917.002 3.433.992 4.546 2.97zm33.195 28.188-19.01.371v-1.206l15.857-.463c-.682-2.226-2.195-5.472-4.545-9.736-2.473-4.512-4.079-7.882-4.821-10.106l1.112-.649zM459.62 68.54c-4.636 9.501-11.623 16.133-20.955 19.896-7.109 2.837-16.69 4.256-28.745 4.256-3.276 0-8.283-.125-15.02-.37-6.738-.248-11.746-.372-15.022-.372-5.067 0-9.518.247-13.351.742L366.805.25c5.184.078 8.987.264 13.748.264 3.275 0 7.342-.016 14.429 0 6.801.014 11.509-.264 14.845-.264 10.323 0 18.762 1.111 25.313 3.331 8.406 2.838 15.083 7.834 20.028 14.992 6.306 7.094 9.457 16.317 9.457 27.667 0 8.083-1.668 15.517-5.005 22.301zm.835-34.14c-2.165-7.464-6.538-14.049-13.12-19.754-6.584-5.705-13.709-9.238-21.373-10.595l-17.76-.747-38.894.098v86.415c3.214-.37 6.862-.556 10.94-.556 3.462 0 8.747.186 15.856.556 7.107.371 12.425.557 15.948.557 16.504 0 28.682-3.978 36.532-11.935 9.088-9.313 13.631-19.954 13.631-31.92.001-4.07-.588-8.11-1.76-12.12zm-38.481 22.224c.124.434.186.896.186 1.392 0 1.112-.356 2.117-1.066 3.013-.711.896-1.622 1.407-2.735 1.53-2.597-.493-4.204-1.452-4.821-2.874a8.385 8.385 0 0 1-.093-1.205c0-2.164.988-3.74 2.967-4.73a6.85 6.85 0 0 1 1.113-.092c1.853 0 3.337.99 4.449 2.966zm35.699-9.087c-.928 7.543-3.093 14.157-6.491 19.842-3.957 6.677-9.212 11.282-15.764 13.816-3.648 1.421-6.338 2.38-8.065 2.874-3.029.866-5.874 1.328-8.531 1.392l-.464-1.113c14.525-2.535 24.603-7.82 30.228-15.855 3.832-5.5 6.306-12.485 7.418-20.955h1.669zM558.831 42.623h-50.44c-.557 1.498-.835 3.246-.835 5.241 0 1.997.278 3.68.835 5.053h17.895v11.59l-17.895.834v9.087l50.162.371v17.802h-89.662V.25h89.662zm-2.874 47.288V77.86h-49.514c-.927-3.339-1.053-8.624-.37-15.857h17.616v-6.21h-17.891c-.435-1.36-.714-2.968-.839-4.823-.126-1.174-.154-2.875-.093-5.1.061-2.472.093-4.172.093-5.1l.835-.835h50.162V3.404h-84.471V89.91zM514.046 9.057l-36.439.278-.278 30.228h-1.297V7.39c8.529-.122 21.2.033 38.015.464v1.204z"/>
    <g fill="red" stroke="#000004" stroke-width="1.35">
        <path d="M139.473 77.168h12.642v6.21h-2.809l3.278 12.42 3.277-12.42h-2.809v-6.21h12.643v6.21h-3.278l-6.556 24.839h-6.555l-6.555-24.839h-3.278zM167.86 108.217v-6.21h3.277V83.378h-3.277v-6.21h22.943v9.315h-6.555v-3.105h-6.555v6.21h6.555v6.21h-6.555v6.21h6.555v-3.106h6.555v9.315zM192.969 108.217v-6.21h3.277V83.378h-3.277v-6.21h17.7l5.243 4.968v8.694l-1.966 1.863 1.966 1.863v7.451h3.278v6.21h-12.642v-6.21h2.81v-6.21h-6.556v6.21h2.81v6.21zm9.833-18.63h6.555v-6.209h-6.555zM224.71 108.217v-6.21h3.278V83.378h-3.278v3.105h-6.555v-9.315h26.222v9.315h-6.556v-3.105h-3.277v18.63h3.277v6.209zM246.542 108.217v-6.21h3.277V83.378h-3.277v-6.21h12.642v6.21h-2.81v18.63h2.81v6.209zM266.594 108.217l-5.245-4.968V82.136l5.245-4.968h9.177l5.245 4.968v4.347h-6.556v-3.105h-6.555v18.63h6.555v-3.106h6.556v4.347l-5.245 4.968zM283.18 108.217v-6.21h3.278l6.556-24.839h6.555l6.556 24.84h3.277v6.209H296.76v-6.21h2.81l-.82-3.105h-4.917l-.82 3.105h2.81v6.21zm13.112-18.63-.82 3.106h1.639zM311.567 108.217v-6.21h3.278V83.378h-3.278v-6.21h13.111v6.21H321.4v18.63h6.556v-3.106h6.555v9.315zM336.676 108.217v-6.21h3.278V83.378h-3.278v-6.21h22.944v9.315h-6.555v-3.105h-6.556v6.21h6.556v6.21h-6.556v6.21h6.556v-3.106h6.555v9.315zM380.271 98.902h6.555v3.105h6.556v-6.21h-7.867l-5.244-4.967v-8.694l5.244-4.968h9.178l5.244 4.968v4.347h-6.555v-3.105h-6.556v6.21h7.773l5.338 4.968v8.693l-5.244 4.968h-9.178l-5.244-4.968zM402.102 108.217v-6.21h3.278V83.378h-3.278v-6.21h17.7l5.244 4.968v8.694l-5.244 4.967h-7.867v6.21h3.278v6.21zm9.833-18.63h6.556v-6.209h-6.556zM427.211 108.217v-6.21h3.278V83.378h-3.278v-6.21h22.944v9.315H443.6v-3.105h-6.556v6.21h6.556v6.21h-6.556v6.21h6.556v-3.106h6.555v9.315zM452.32 108.217v-6.21h3.278V83.378h-3.278v-6.21h13.111v6.21h-3.278v18.63h6.556v-3.106h6.555v9.315zM477.43 108.217v-6.21h3.277V83.378h-3.278v-6.21h13.111v6.21h-3.278v18.63h6.556v-3.106h6.555v9.315zM502.538 108.217v-6.21h3.278V83.378h-3.278v-6.21h22.944v9.315h-6.555v-3.105h-6.556v6.21h6.556v6.21h-6.556v6.21h6.556v-3.106h6.555v9.315zM527.647 108.217v-6.21h3.278V83.378h-3.278v-6.21h9.833l9.833 17.742V83.378h-3.277v-6.21h13.11v6.21h-3.277v24.839h-6.556l-9.833-17.742v11.532h3.278v6.21z"/>
    </g>
</svg>
