<?xml version="1.0" encoding="UTF-8" standalone="no"?>
<svg
   viewBox="0 0 436.4399 182.67"
   width="488.0159"
   height="203.95534"
   version="1.1"
   id="svg28"
   xmlns:xlink="http://www.w3.org/1999/xlink"
   xmlns="http://www.w3.org/2000/svg"
   xmlns:svg="http://www.w3.org/2000/svg"
   xmlns:rdf="http://www.w3.org/1999/02/22-rdf-syntax-ns#"
   xmlns:cc="http://creativecommons.org/ns#"
   xmlns:dc="http://purl.org/dc/elements/1.1/">
  <defs
     id="defs7">
    <style
       id="style1">.cls-1{fill:url(#linear-gradient);}.cls-2{fill:#fff;}.cls-3{fill:url(#linear-gradient-2);}.cls-4{fill:url(#linear-gradient-3);}.cls-5{fill:url(#linear-gradient-4);}.cls-6{fill:url(#linear-gradient-5);}.cls-7{fill:#fff200;stroke:#00aeef;stroke-width:0.58px;}.cls-8{fill:url(#linear-gradient-6);}.cls-9{fill:#ed1c24;}</style>
    <linearGradient
       id="linear-gradient"
       x1="294.09"
       y1="158.88"
       x2="294.09"
       y2="18.18"
       gradientUnits="userSpaceOnUse"
       gradientTransform="translate(-0.32330882)">
      <stop
         offset="0.01"
         stop-color="#ed1c24"
         id="stop1" />
      <stop
         offset="0.5"
         stop-color="#fff200"
         id="stop2" />
      <stop
         offset="1"
         stop-color="#ed1c24"
         id="stop3" />
    </linearGradient>
    <linearGradient
       id="linear-gradient-2"
       x1="159.82001"
       y1="30.09"
       x2="169.17"
       y2="79.169998"
       gradientUnits="userSpaceOnUse">
      <stop
         offset="0"
         stop-color="#fff200"
         id="stop4" />
      <stop
         offset="0.65"
         stop-color="#ed1c24"
         id="stop5" />
    </linearGradient>
    <linearGradient
       id="linear-gradient-3"
       x1="101.2"
       y1="41.25"
       x2="110.52"
       y2="90.190002"
       xlink:href="#linear-gradient-2"
       gradientTransform="translate(-0.32330882)" />
    <linearGradient
       id="linear-gradient-4"
       x1="44"
       y1="52.150002"
       x2="53.349998"
       y2="101.24"
       xlink:href="#linear-gradient-2"
       gradientTransform="translate(-0.32330882)" />
    <linearGradient
       id="linear-gradient-5"
       x1="12.51"
       y1="58.150002"
       x2="21.860001"
       y2="107.23"
       xlink:href="#linear-gradient-2"
       gradientTransform="translate(-0.32330882)" />
    <linearGradient
       id="linear-gradient-6"
       x1="34.59"
       y1="13.25"
       x2="34.59"
       y2="46.73"
       gradientUnits="userSpaceOnUse"
       gradientTransform="translate(-0.32330882)">
      <stop
         offset="0"
         stop-color="#fff200"
         id="stop6" />
      <stop
         offset="0.9"
         stop-color="#ed1c24"
         id="stop7" />
    </linearGradient>
    <linearGradient
       xlink:href="#linear-gradient-2"
       id="linearGradient2"
       gradientUnits="userSpaceOnUse"
       x1="159.82001"
       y1="30.09"
       x2="169.17"
       y2="79.169998"
       gradientTransform="translate(-0.32330882)" />
  </defs>
  <title
     id="title7">Angry Video Game Nerd Logo</title>
  <path
     class="cls-1"
     d="m 245.67669,162.45 v 3.9 h 53 v -10.13 h 4.75 c 0,0 -0.29,-8.09 -0.29,-8.16 l 22.83,-2.74 c 0,0 -3,-44.45 -3.81,-55.74 l 8.4,-0.74 c -0.55,11.43 -2.37,49 -2.37,49 l 4.77,1.3 v 12.39 h 4.08 c 0,0.13 -0.35,7.56 -0.35,7.56 l 60.63,4.72 8.36,-161.47 h -35.12 l -2.25,46.12 -17.9,-1.24 c -0.12,-1.91 -0.28,-4.76 -0.28,-4.76 h -5.79 c -0.1,-1.16 -0.82,-9.4 -0.82,-9.4 l -59.59,3.52 c 0,0 0.68,11.8 0.93,16 h -30.18 c 0.36,-17.87 1,-52.2 1,-52.2 l -69.68,-0.38 -4.16,163.62 z"
     id="path59"
     style="fill:url(#linear-gradient)" />
  <path
     d="m 392.15669,9.35 h -14.92 c 0,0 -1.5,30.65 -2.28,46.65 l -26.21,-1.81 c 0,0 -0.31,8.49 -0.4,10.92 h -3.92 l -0.92,-15.58 h -5.6 c -0.15,-1.75 -0.8,-9.17 -0.8,-9.17 l -5.55,0.21 -19.73,0.73 v 0 l -1.11,0.09 -6,0.23 c 0,0 0,0.27 0,0.3 l -13.39,1.08 1.51,26 h -3.53 v -9.39 h -37.79 v 9.73 h -4.24 l 1.24,-61.94 h -21.94 v 57.27 h -0.77 V 46 h -3.9 V 35.45 h -4.67 v -18.7 h -4.29 V 7 h -20.11 l -3.81,149.6 h 21.88 c 0,0 0.52,-33.15 1,-60 h 0.7 v 20.25 h 3.9 v 9 h 4.28 v 29.61 h 24.82 l 0.29,-14.8 h 2.55 v 9 h 4.23 v 9.74 h 39 v -10.19 h 4.49 l -0.26,-7.27 22.62,-2.78 c 0,0 -3.23,-47.24 -3.88,-56.61 l 5.79,-0.41 -1.16,-9.34 4.82,-0.34 c 0.15,1.92 0.79,9.84 0.79,9.84 l 13.07,-1.14 -2.48,51.42 4.5,1.22 v 10.73 h 4.41 c -0.05,1 -0.37,8.12 -0.37,8.12 l 46.66,3.63 7.63,-146.93 z m -96.86,117.26 h -25.47 v -5.45 h 24.93 z m 76.18,-3.22 -9.49,-0.17 c 0.08,-2 0.38,-9.76 0.38,-9.76 l -4.58,-0.38 c 0.31,-5.37 0.63,-11.21 0.93,-16.46 l 14.38,0.89 c -0.42,6.91 -1.21,19.31 -1.62,25.88 z"
     id="path58" />
  <path
     id="path57"
     class="cls-2"
     style="fill:#ffffff"
     d="m 232.42669,110.25 h -5.07 V 90.77 h -3.89 V 70.51 h -3.51 v -18.7 h -3.89 V 41.3 h -4.68 V 22.59 h -4.28 v -9.73 h -8.58 l -3.5,137.91 h 10.13 l 1.56,-98.57 h 3.89 v 19.09 h 4.29 v 19.48 h 3.5 v 20.26 h 3.9 v 8.96 h 4.29 v 29.61 h 13.24 l 2.73,-136.35 h -10.13 z" />
  <path
     class="cls-2"
     d="m 288.52669,74.8 h -5.07 v -9.35 h -26.1 v 9.74 h -4.28 v 11.3 h -3.9 l 1.17,48.3 h 3.89 v 9 h 4.29 v 9.74 h 27.27 v -10.16 h 4.29 l -0.41,-10.91 h -25.69 v -7.8 h -4.68 v -9.34 h 29.61 v -10.91 h 5.06 V 85.32 h -5.45 z m -4.29,20.65 h -21.42 v -8.57 h 21.42 z"
     id="path56"
     style="fill:#ffffff" />
  <path
     id="path55"
     class="cls-2"
     style="fill:#ffffff"
     d="m 332.54669,55.32 -0.78,-8.96 -21.04,0.78 0.39,9.74 -3.89,0.78 -0.78,-10.13 -8.96,0.78 5.06,86.87 9.74,-1.16 -3.89,-56.88 5.45,-0.39 -1.17,-9.35 16.75,-1.17 0.78,9.74 8.96,-0.78 -1.17,-19.87 z" />
  <path
     class="cls-2"
     d="m 382.80669,15.19 -2.73,55.71 -3.51,-0.39 0.39,-8.57 -22.59,-1.56 -0.39,10.52 h -4.68 l -0.78,9 h -4.67 l -2.34,48.31 4.29,1.17 v 9.35 h 4.67 l -0.39,8.57 35.06,2.7 7,-134.8 z m -5.85,114.15 -21,-0.39 0.4,-10.13 -4.68,-0.39 1.56,-27.66 h 4.67 l 1.17,-9.35 11.3,0.39 0.39,9.74 8.57,0.39 z"
     id="path54"
     style="fill:#ffffff" />
  <path
     d="m 238.23669,138.88 a 8.19,8.19 0 0 0 -8.18,-8.18 h -21.33 a 6.68,6.68 0 0 0 -3.74,1.14 9.87,9.87 0 0 0 -4.59,-1.14 h -29.15 a 6.78,6.78 0 0 0 -2.12,0.35 6.79,6.79 0 0 0 -2.13,-0.35 h -21.32 -0.43 a 10.17,10.17 0 0 0 -0.82,-1.77 7,7 0 0 0 1,0.09 h 21.35 a 8.12,8.12 0 0 0 4,-1 8.08,8.08 0 0 0 3.94,1 h 20.16 a 8.19,8.19 0 0 0 8.19,-8.18 v -19 a 8.19,8.19 0 0 0 -8.19,-8.19 h -20.2 a 8.19,8.19 0 0 0 -3.94,1 8.23,8.23 0 0 0 -4,-1 h -13.73 a 8.09,8.09 0 0 1 2.11,-0.21 c -0.7,-3.16 -1.34,-7.78 0.59,-10.52 l 1.17,1.17 c -0.12,5.55 4.67,1.46 7.59,3.5 3.1,5.32 5.14,-2.57 8.77,-1.17 -2.05,-2.57 -0.59,-5.78 2.34,-7 -7.78,-4.56 0.46,-13.32 -4.1,-18.7 5.91,-2.57 1.47,-9.41 5.26,-12.85 l 3.51,3.5 c 0,-6.31 -3.1,-15.31 2.92,-19.87 -3.86,-0.41 -1.4,-5 -2.92,-6.42 l -2.92,0.58 -1.17,-4.09 a 132.33,132.33 0 0 1 -11.1,8.18 c -1.46,4.44 0.87,11.8 -3.51,15.78 -5.78,-2.53 -7.54,-9.79 -11.69,-14.53 l -2.33,1.17 c -2.17,-2.16 -4.27,-0.18 -6.43,0.58 -2.34,3.1 -0.3,5.85 -1.76,9.35 -3.85,-0.64 -4.67,-6.13 -8.18,-6.43 -3.27,-2.51 -1.52,-6.72 -1.17,-10.51 -2.16,2.74 -4.73,3.74 -7,6.42 -1.58,-3.21 -4.26,1.46 -5.84,-1.75 a 4.69,4.69 0 0 1 -1.17,2.34 c -0.64,0 -1.4,0.11 -1.75,-0.59 -4,3.22 -3.69,-3.09 -5.26,-4.09 -3.68,2.4 0.46,9.59 -5.85,9.35 -1.52,5.14 -6.249999,-0.17 -9.349999,2.34 -5.55,-1 -3.91,-7 -5.84,-10.52 l -3.51,7 c -0.76,-0.17 -1.92,0.47 -2.33,-0.58 -1.23,0.93 0,2.86 -1.76,3.51 -2.33,-0.06 -2.63,-3 -3.5,-4.68 -0.65,4 -5.56,6.78 -6.43,10.52 -1.29,2 -3.39,2.28 -5.26,2.92 -2.81,-1.75 -1.34,-5.32 -2.92,-7.6 l -1.76,1.76 c -2.45,-3.68 -5.25,2.34 -7.59,-1.17 0.47,-3 2,-7.95 -1.76,-9.94 3.69,-4.09 8.71,-6.77 5.85,-12.85 -2.51,5.67 -4.68,-3.62 -7.6,1.17 l -1.75,-4.09 c -1.64,0.05 -1.4,3 -3.51,2.33 -0.64,-0.7 -1.52,-1.22 -1.17,-2.33 l -5.25,0.54 c 1.7,4.21 -0.35,8.3 -2.33,11.69 -1.93,-4.09 1.34,-8.18 -0.59,-12.27 -1.58,-1.52 -4.32,-1.58 -5.26,-3.51 -0.58,1 -0.52,2.22 -1.75,2.92 -2.92,0.59 -1.11,-2.86 -3.51,-3.5 -2.51,2 -4.26,-1.17 -6.42,-1.76 -1.87,2.4 -3.1,6 -5.85,7 -3.0599998,5.68 2.61,6.26 4.71,10.53 l -3.51,2.34 c 2.86,1.52 3.74,3.33 4.09,6.43 1.4,6 1.52,11 5.84,15.78 7.78,1.11 4.33,-8.59 9.35,-11.69 3.51,3.16 -1.87,6.95 1.17,9.93 -3,5.38 -8.41,8.71 -11.68,13.44 -1.17,-2.74 0.29,-7.07 -3.51,-8.18 0.25,-5.61 -4.49,-6.72 -8.23,-9.32 -0.18,1.58 -2.1599998,3.1 -0.5899998,4.68 a 11.16,11.16 0 0 1 -9.93000002,4.64 c 0.76,3.68 6.72000002,1.17 7.60000002,5.85 l -3.51,2.33 3.51,3.5 c -1.6,4.1 3.6799998,10.41 -2.34,11.11 1.17,1.06 3.1,2.89 2.34,5.26 -1.41,1.63 -3.51,1.63 -5.26,2.34 -2.16000002,8.47 7.9999998,13.79 9.3499998,21 l 2.92,-2.92 c 2.92,-0.59 1.46,3.21 3.51,3.5 -0.76,-3.33 3.62,-3 4.09,-5.84 1.75,2.92 3.5,6.37 5.26,8.76 2.57,1.58 6.6,-0.41 9.93,-0.58 1.58,0.53 0.82,3 2.92,2.34 2.22,-3 7,-1.64 9.94,-1.17 -3.39,-5.55 -3.34,-13.27 -2.34,-19.87 a 20.35,20.35 0 0 1 4.67,5.26 c 0.12,0.82 -1.4,1.69 0,2.34 l 0.59,-0.59 c 1.06,0.08 1.4,0.86 1.73,1.68 v 54.69 a 8.19,8.19 0 0 0 8.18,8.18 h 26.91 a 8.4,8.4 0 0 0 3.5,-0.76 v 13.76 a 8.19,8.19 0 0 0 8.189999,8.18 h 36.4 a 8.19,8.19 0 0 0 8.18,-8.18 v -8.47 h 21.08 a 6.79,6.79 0 0 0 2.13,-0.35 6.78,6.78 0 0 0 2.12,0.35 h 7.84 a 6.65,6.65 0 0 0 3.73,-1.14 6.65,6.65 0 0 0 3.73,1.14 h 4.8 a 6.65,6.65 0 0 0 3.73,-1.14 6.65,6.65 0 0 0 3.73,1.14 h 4.8 a 6.8,6.8 0 0 0 2.56,-0.51 6.8,6.8 0 0 0 2.56,0.51 h 21.33 a 8.19,8.19 0 0 0 8.18,-8.18 v -3.75 a 8.13,8.13 0 0 0 -1.18,-4.17 8.07,8.07 0 0 0 1.18,-4.16 z M 41.166691,54.32 c -2.28,1.35 -2.4,-2.51 -4.67,-1.17 V 52 c 1.63,2.32 6.83,-2.53 4.67,2.32 z m 5.26,30.39 c -1,0.06 -1.58,-1.17 -2.34,-1.75 0.7,-1.35 1.76,0 2.34,0.58 z m 0,-26.88 0.58,-4.09 c 2.05,1 1.58,3.1 2.34,4.67 z M 144.59669,46.67 c -0.45,9.33 8.51,15.75 5.22,25.38 1.12,1.71 4.18,2.61 3,5.22 a 5.15,5.15 0 0 1 -4.48,2.24 c -3.06,-3.66 3.36,-12 -3.73,-10.45 -6.51,-6.42 -0.46,-15.15 -0.01,-22.39 z m -17,30.86 c 0.76,0.54 2.07,2.15 1.53,3.84 -0.46,0.92 -1.46,0.77 -2.3,0.77 z m -16.89,6 c 1.64,-0.64 1.23,1 1.75,1.76 -0.35,0.7 -1.11,0.58 -1.75,0.58 a 2.74,2.74 0 0 1 -0.03,-2.33 z m -7.55,-25.06 c -0.61,0.2 -1,-0.34 -1.37,-0.68 a 2.21,2.21 0 0 1 2,-2 c -0.11,0.85 0.6,2.21 -0.63,2.69 z m -1.37,-17.07 c 0.55,3.21 4.31,6.7 2,10.93 -3.55,-1.64 1.51,-5.53 -2.73,-7.51 z M 83.786691,59.58 c 1.27,-5.08 6.89,-0.58 8.22,2.34 -1.46,2 -2.4,4.15 -5.26,4.09 -0.99,-2.16 -4.32,-4.01 -2.92,-6.43 z m 45.589999,34.11 h -5.26 c 1,-0.49 2,-1 3,-1.38 -2.1,-5 4,-5.2 5.85,-8.18 2.17,0.93 2.68,1.63 2.34,2.26 a 7,7 0 0 0 -5,3.46 2.72,2.72 0 0 0 -0.89,1.87 c 0.05,0 0.1,0 0.14,0.07 a 7.51,7.51 0 0 0 -0.17,1.51 z"
     id="path53" />
  <path
     class="cls-3"
     d="m 177.32669,31 c -2.16,-2.22 -3.8,0.64 -6.43,-1.17 -2.57,8.3 -4.73,16.83 -8.77,24.54 -2.8,-2.68 -6.31,-6.13 -7.59,-9.93 -0.29,-2.63 -4.44,-2.1 -3.51,-5.26 0,-3.21 -4.26,-1.17 -6.43,-1.75 -3.39,6.37 5.44,10.52 8.18,15.77 0.76,4.5 0.71,9.82 2.34,13.45 1.29,-2.17 -0.11,-5.44 1.17,-7.6 3.45,1.75 3.45,6 4.09,9.35 -0.52,2.8 -4.73,4.79 -3.5,7.6 1.4,-1.06 1.69,-4.68 4.67,-4.1 1,2.93 0.94,6.32 1.75,9.35 -1.57,1.76 0.41,3.51 0.59,5.26 3.15,-0.93 3,-4.2 2.92,-7 4,-1.87 -0.12,-5.78 0,-8.76 1.46,-5.5 -3.21,-12.8 1.75,-17.54 1.52,-0.4 0.94,2.46 2.34,0.59 -3.8,-3.68 2.05,-6.25 1.75,-9.93 -0.11,-4.1 5,-5.21 2.93,-9.36 -0.06,-1.46 2.39,-1.87 1.75,-3.51 z"
     id="path52"
     style="fill:url(#linearGradient2)" />
  <path
     class="cls-4"
     d="m 147.52669,83 c -3.34,-0.18 -3.1,-3.92 -4.68,-5.85 -3,-1.69 -1.23,-6.19 -5.84,-5.26 -2.22,-2.57 -5.38,-4.73 -4.09,-8.76 1.16,-1.34 1.75,-4.38 4.09,-2.34 0.46,-5.08 4.5,-12.39 -1.17,-16.36 -3.22,-2.92 -6.55,-5.55 -11.1,-5.26 -0.41,-6 -4.27,1.93 -6.43,-2.34 -2.22,1.87 -5.5,3.68 -9.35,2.92 -5.26,5.09 2.63,9.76 0,15.2 5.08,2.34 2.22,8.94 4.67,12.85 l -1.75,1.76 c -4.38,-0.59 -5.49,-5.44 -8.18,-8.18 l -1.17,5.84 c -1.93,0.41 -4.619999,-1 -5.839999,1.17 -2.75,-1.93 -5.44,1.34 -8.19,-0.59 -1.81,3.39 -6.19,0.71 -8.76,2.34 -1.11,2.4 -0.82,6.14 2.34,7 2.8,-5 9.11,-0.17 13.44,-2.33 1.17,1.57 3.56,2.63 3.5,4.67 0.35,3.92 -2.45,5.2 -5.26,7 -2.92,0.94 -2.86,-3 -4.67,-3.5 0.06,1.05 -1.17,1.58 -1.75,2.34 -1.93,0.17 -3.92,2.16 -5.85,0.58 -4.15,-2.63 -9.7,-4.68 -9.93,-10.52 -1,-3.27 2.22,-6.19 -0.59,-8.76 4.5,-2 -1.57,-6.2 2.92,-8.19 l 2.34,2.34 c 3.22,-1.23 -3.33,-3.8 0.59,-5.84 3.86,4.07 2.45,-2.53 5.26,-2.93 3.68,0.46 7.36,1 9.93,4.09 1.93,-1.06 4.91,0.35 6.43,-1.76 -2.22,-3.15 1.999999,-6.83 -1.75,-9.35 a 24.22,24.22 0 0 0 -11.11,-3.5 4,4 0 0 1 -4.09,1.75 c -1.46,4.56 -4.67,-0.76 -7,2.34 3.51,4.44 -4.32,3.62 -3.51,7 -4,4.15 -4.5,10.52 -4.09,15.78 -5.14,2.8 2.34,6.54 0.59,9.93 2.33,4.15 4.55,8.42 7.59,12.27 0.41,-1 1.58,-0.4 2.34,-0.58 2.4,4.21 6.66,4 10.52,4.68 4.27,-4.56 11.69,-1.76 15.189999,-8.19 0.24,-1.4 -0.7,-3.33 1.17,-4.09 3.33,0.59 1.35,-4.09 4.68,-3.5 l 4.09,-7.6 c 2,1.87 2.28,4.56 2.92,7 5.14,3.16 -2.81,8.13 2.34,10.52 a 4.86,4.86 0 0 0 4.67,-1.75 c -3.21,-4.73 -3,-10.87 -2.92,-17 1.46,-1.46 2.51,-0.58 4.09,0 v -0.58 c 0.7,-0.65 1.23,-1.52 2.34,-1.17 5.43,7.42 12.39,14.32 18.11,21.62 2.28,0.53 3.86,-0.64 5.26,-2.34 a 6.79,6.79 0 0 0 0,-5.84 4.66,4.66 0 0 0 -2.34,1.27 z m -21,-23.38 c -1.64,1.76 -4,4.27 -7,4.09 -2.34,-3.33 2.33,-8.35 -1.76,-9.93 l -1.17,1.17 c -1.92,-1.76 1.35,-3.51 -0.58,-5.26 l 2.34,-2.34 c -0.06,1 1.17,1.58 1.75,2.34 l 2.34,-2.34 c 0.41,3.27 3.09,0.7 4.67,0.59 1,1.22 3.39,2.1 4.09,4.09 -1.22,2.64 0.47,8.55 -4.72,7.55 z"
     id="path51"
     style="fill:url(#linear-gradient-3)" />
  <path
     class="cls-5"
     d="m 61.616691,71.27 c 0.18,-1.58 -0.46,-3.51 0.59,-4.67 0.47,-2 -1.93,-4.56 0.58,-6.43 -1.93,-5.09 2.22,-14.17 -5.84,-15.17 -3.86,1.73 -2.27,7.8 -3.51,11.66 4.68,2.46 0.59,8.53 3.51,11.69 -5.44,3.68 3.1,7.42 -0.59,11.1 -2.68,-3.39 -3.62,-9.06 -8.76,-9.93 -0.64,-1.76 -3,-3.39 -2.92,-5.85 l -2.34,1.17 c -3.39,-1.05 -3.1,-4.67 -4.68,-7 -3.91,-1.87 -8.06,0.41 -9.93,4.09 -2,2.57 1.4,4.44 1.17,7 3.21,1.17 1.23,5 4.09,5.85 0.93,5.61 5.32,10.57 4.09,16.36 2.63,3.74 -0.88,12 5.26,12.27 0.88,-4.67 -1.75,-10.11 0,-15.19 -2.66,-3.39 -2.16,-8.89 -1.75,-12.86 l 0.58,0.59 c 4,-2.52 5.84,3.5 8.77,5.25 0.52,3.45 4.09,3.22 4.67,6.43 2.1,2.11 2.92,5.26 4.68,7 8.39,-3.84 0.39,-11.03 2.92,-17.52 l 1.75,-1.75 c 0.94,-2.04 -1.46,-2.75 -2.34,-4.09 z"
     id="path50"
     style="fill:url(#linear-gradient-4)" />
  <path
     class="cls-6"
     d="m 24.216691,79.45 c -1.34,-7.13 -7.42,-12.27 -7.54,-19.87 0.58,-2.33 -1.35,-5.14 -2.34,-7.59 -2.51,0 -2.46,3.15 -2.34,5.26 2.11,4.61 -1.63,9 0,13.44 0,5.08 2.63,10.51 0,15.19 -2.1599998,-0.35 -2.6899998,4.27 -5.2599998,1.75 -2.63,5.09 4.6799998,2.22 6.4299998,4.68 -0.12,0.82 1.4,1.69 0,2.34 l 1.17,1.16 a 6.47,6.47 0 0 1 5.26,-3.5 c 5.49,-0.53 6.43,5 9.35,8.18 -0.47,1.75 0.76,3.21 1.17,4.09 a 2.64,2.64 0 0 0 2.33,-3.51 c -3.38,-6.95 -3.67,-15.19 -8.23,-21.62 z"
     id="path49"
     style="fill:url(#linear-gradient-5)" />
  <g
     id="path16"
     class="cls-7"
     transform="translate(-0.32330882)">
    <path
       style="color:#000000;fill:#fff200;-inkscape-stroke:none"
       d="m 98.93,91.94 h -5.07 a 3.38,3.38 0 0 0 -3.33,2.89 l -7.23,50.6 a 1.69,1.69 0 0 1 -1.67,1.44 h -3.25 a 1.46,1.46 0 0 1 -1.46,-1.46 V 94.86 A 2.92,2.92 0 0 0 74,91.94 H 63.09 a 2.92,2.92 0 0 0 -2.92,2.92 v 58.49 a 2.92,2.92 0 0 0 2.92,2.92 H 90 a 3.35,3.35 0 0 0 3.32,-2.89 l 8.16,-58.55 a 2.54,2.54 0 0 0 -2.55,-2.89 z"
       id="path33" />
    <path
       style="color:#000000;fill:#00aeef;-inkscape-stroke:none"
       d="m 63.089844,91.650391 c -1.769398,0 -3.208985,1.439587 -3.208985,3.208984 v 58.490235 c 0,1.7694 1.439587,3.21094 3.208985,3.21094 H 90 c 1.815705,9.4e-4 3.358101,-1.34212 3.607422,-3.14063 l 8.160158,-58.550779 c 0.2381,-1.710283 -1.11186,-3.239634 -2.837893,-3.21875 h -5.070312 c -1.813385,0.0077 -3.354314,1.342471 -3.617188,3.136718 v 0.002 l -7.228515,50.599611 c -0.103549,0.68631 -0.690499,1.19083 -1.384766,1.19141 h -3.248047 c -0.649607,0 -1.169921,-0.52032 -1.169922,-1.16992 V 94.859375 c 0,-1.769397 -1.44154,-3.208984 -3.210937,-3.208984 z m 0,0.580078 H 74 c 1.455942,0 2.630859,1.172964 2.630859,2.628906 v 50.550785 c 0,0.96306 0.786938,1.75 1.75,1.75 h 3.25 c 0.977676,-8.2e-4 1.810452,-0.72058 1.955078,-1.6875 h 0.002 l 7.228515,-50.601566 c 0.221796,-1.513872 1.513153,-2.633206 3.042969,-2.640625 h 5.072266 0.002 c 1.383503,-0.01866 2.450543,1.18818 2.259763,2.558593 L 93.033203,153.33984 C 92.823055,154.85577 91.530425,155.98126 90,155.98047 H 63.089844 c -1.455943,0 -2.628906,-1.17492 -2.628907,-2.63086 V 94.859375 c 0,-1.455942 1.172964,-2.628906 2.628907,-2.628906 z"
       id="path34" />
  </g>
  <g
     id="rect16"
     class="cls-7"
     transform="translate(-0.32330882)">
    <path
       style="color:#000000;fill:#fff200;-inkscape-stroke:none"
       d="m 105.74,91.940002 h 7.02 c 0.9695,0 1.75,0.7805 1.75,1.75 v 2.340001 c 0,0.9695 -0.7805,1.75 -1.75,1.75 h -7.02 c -0.9695,0 -1.75,-0.7805 -1.75,-1.75 v -2.340001 c 0,-0.9695 0.7805,-1.75 1.75,-1.75 z"
       id="path29" />
    <path
       style="color:#000000;fill:#00aeef;-inkscape-stroke:none"
       d="m 105.74023,91.650391 c -1.12514,0 -2.04101,0.913919 -2.04101,2.039062 v 2.339844 c 0,1.125143 0.91587,2.041016 2.04101,2.041015 h 7.01954 c 1.12514,0 2.04101,-0.915872 2.04101,-2.041015 v -2.339844 c 0,-1.125143 -0.91587,-2.039062 -2.04101,-2.039062 z m 0,0.580078 h 7.01954 c 0.81385,0 1.46093,0.645129 1.46093,1.458984 v 2.339844 c 0,0.813855 -0.64708,1.460937 -1.46093,1.460937 h -7.01954 c -0.81385,0 -1.46093,-0.647082 -1.46093,-1.460937 v -2.339844 c 0,-0.813855 0.64708,-1.458984 1.46093,-1.458984 z"
       id="path30" />
  </g>
  <g
     id="rect17"
     class="cls-7"
     transform="translate(-0.32330882)">
    <path
       style="color:#000000;fill:#fff200;-inkscape-stroke:none"
       d="m 105.74,98.949997 h 7.02 c 0.9695,0 1.75,0.7805 1.75,1.750003 v 21.33 c 0,0.9695 -0.7805,1.75 -1.75,1.75 h -7.02 c -0.9695,0 -1.75,-0.7805 -1.75,-1.75 V 100.7 c 0,-0.969503 0.7805,-1.750003 1.75,-1.750003 z"
       id="path31" />
    <path
       style="color:#000000;fill:#00aeef;-inkscape-stroke:none"
       d="m 105.74023,98.660156 c -1.12514,0 -2.04101,0.913918 -2.04101,2.039064 v 21.33008 c 0,1.12514 0.91587,2.04101 2.04101,2.04101 h 7.01954 c 1.12514,0 2.04101,-0.91587 2.04101,-2.04101 v -21.33008 c 0,-1.125146 -0.91587,-2.039064 -2.04101,-2.039064 z m 0,0.580078 h 7.01954 c 0.81385,0 1.46093,0.645126 1.46093,1.458986 v 21.33008 c 0,0.81385 -0.64708,1.46093 -1.46093,1.46093 h -7.01954 c -0.81385,0 -1.46093,-0.64708 -1.46093,-1.46093 v -21.33008 c 0,-0.81386 0.64708,-1.458986 1.46093,-1.458986 z"
       id="path32" />
  </g>
  <g
     id="path17"
     class="cls-7"
     transform="translate(-0.32330882)">
    <path
       style="color:#000000;fill:#fff200;-inkscape-stroke:none"
       d="m 140.81,91.55 h -4.09 A 1.76,1.76 0 0 0 135,93.3 v 4.78 a 0.87,0.87 0 0 1 -0.87,0.87 H 118.6 a 1.75,1.75 0 0 0 -1.75,1.76 V 122 a 1.75,1.75 0 0 0 1.75,1.75 h 22.21 A 1.75,1.75 0 0 0 142.56,122 V 93.3 a 1.75,1.75 0 0 0 -1.75,-1.75 z m -5.7,25 a 1.75,1.75 0 0 1 -1.75,1.76 h -4 a 1.75,1.75 0 0 1 -1.75,-1.76 v -12.43 a 1.75,1.75 0 0 1 1.75,-1.76 h 4 a 1.75,1.75 0 0 1 1.75,1.76 z"
       id="path35" />
    <path
       style="color:#000000;fill:#00aeef;-inkscape-stroke:none"
       d="m 136.71289,91.259766 c -1.10629,0.02513 -1.99595,0.932501 -2.00195,2.039062 v 4.78125 c 0,0.32376 -0.25632,0.580078 -0.58008,0.580078 h -15.53125 c -1.12773,-1.8e-5 -2.04551,0.923069 -2.03906,2.050784 V 122 c 0,1.12322 0.91583,2.03906 2.03906,2.03906 h 22.21094 c 1.12322,0 2.03906,-0.91584 2.03906,-2.03906 V 93.300781 c 0,-1.123225 -0.91584,-2.041015 -2.03906,-2.041015 h -4.09375 z m 0.0137,0.580078 h 4.08399 c 0.80977,0 1.45898,0.651167 1.45898,1.460937 V 122 c 0,0.80977 -0.64921,1.46094 -1.45898,1.46094 h -22.21094 c -0.80977,0 -1.45898,-0.65117 -1.45898,-1.46094 v -21.29102 c -0.005,-0.813083 0.64588,-1.468759 1.45898,-1.468746 h 15.53125 c 0.63721,0 1.1582,-0.522941 1.1582,-1.160156 v -4.779297 c 0.004,-0.798883 0.63881,-1.442792 1.4375,-1.460937 z m -7.36719,10.230466 c -1.12773,-2e-5 -2.0455,0.92307 -2.03906,2.05078 v 12.42969 c -0.005,1.12683 0.91198,2.04885 2.03906,2.04883 h 4 c 1.12774,2e-5 2.04746,-0.92307 2.04102,-2.05078 v -12.42774 -0.002 c 0.005,-1.12683 -0.91393,-2.04885 -2.04102,-2.04883 z m 0,0.58008 h 4 c 0.81311,-1e-5 1.46559,0.65566 1.46094,1.46875 v 12.43164 c 0.005,0.81309 -0.64783,1.46876 -1.46094,1.46875 h -4 c -0.8131,1e-5 -1.46363,-0.65566 -1.45898,-1.46875 v -12.43164 c -0.005,-0.81309 0.64588,-1.46876 1.45898,-1.46875 z"
       id="path36" />
  </g>
  <g
     id="path18"
     class="cls-7"
     transform="translate(-0.32330882)">
    <path
       style="color:#000000;fill:#fff200;-inkscape-stroke:none"
       d="m 135.13,128.66 h -33.47 a 2.93,2.93 0 0 0 -2.93,2.92 v 42.95 a 2.92,2.92 0 0 0 2.93,2.92 h 36.4 a 2.92,2.92 0 0 0 2.92,-2.92 v -18.41 a 5.85,5.85 0 0 0 -5.85,-5.84 h -13.9 a 2.92,2.92 0 0 0 -2.92,2.92 v 1.1 a 2.92,2.92 0 0 0 2.92,2.92 h 6.43 a 1.46,1.46 0 0 1 1.46,1.46 v 10.37 a 1.46,1.46 0 0 1 -1.46,1.46 h -11.1 a 1.46,1.46 0 0 1 -1.46,-1.46 v -32 a 1.46,1.46 0 0 1 1.46,-1.46 h 11.1 a 1.46,1.46 0 0 1 1.46,1.46 V 143 a 2.92,2.92 0 0 0 2.88,2.9 h 6 a 2.92,2.92 0 0 0 3,-2.9 v -8.5 a 5.84,5.84 0 0 0 -5.87,-5.84 z"
       id="path37" />
    <path
       style="color:#000000;fill:#00aeef;-inkscape-stroke:none"
       d="m 101.66016,128.36914 c -1.770677,-10e-6 -3.214664,1.43832 -3.220707,3.20898 v 0.002 42.94922 c -1e-5,1.77366 1.447051,3.21701 3.220707,3.21093 h 36.40039 c 1.76939,0 3.20898,-1.44154 3.20898,-3.21093 v -18.41016 c -0.006,-3.38351 -2.75516,-6.12891 -6.13867,-6.12891 h -13.90039 c -1.7694,0 -3.21094,1.43959 -3.21094,3.20899 v 1.10156 c 0,1.7694 1.44154,3.20899 3.21094,3.20899 h 6.42969 c 0.6496,0 1.16992,0.52031 1.16992,1.16992 v 10.37109 c 0,0.64961 -0.52032,1.16992 -1.16992,1.16992 h -11.09961 c -0.64961,0 -1.16992,-0.52031 -1.16992,-1.16992 v -32 c 0,-0.64961 0.52031,-1.16992 1.16992,-1.16992 h 11.09961 c 0.6496,0 1.16992,0.52031 1.16992,1.16992 v 5.95117 c 0.0118,1.74401 1.42213,3.16365 3.16601,3.1875 h 0.002 5.99414 c 1.79481,0.0492 3.28525,-1.39205 3.29687,-3.1875 V 143 134.5 c 5e-5,-3.39368 -2.76481,-6.14721 -6.1582,-6.13086 z m 0,0.58008 h 33.4707 c 3.0798,-0.0158 5.58012,2.47094 5.58008,5.55078 v 8.49805 c -0.01,1.4777 -1.22595,2.65184 -2.70313,2.61132 h -0.004 -6 c -1.43401,-0.0196 -2.58303,-1.17552 -2.59375,-2.60937 v -0.002 -5.94727 c 0,-0.96306 -0.78694,-1.75 -1.75,-1.75 h -11.09961 c -0.96307,0 -1.75,0.78694 -1.75,1.75 v 32 c 0,0.96306 0.78693,1.75 1.75,1.75 h 11.09961 c 0.96306,0 1.75,-0.78694 1.75,-1.75 v -10.37109 c 0,-0.96306 -0.78694,-1.75 -1.75,-1.75 h -6.42969 c -1.45594,0 -2.63086,-1.17297 -2.63086,-2.62891 v -1.10156 c 0,-1.45594 1.17492,-2.62891 2.63086,-2.62891 h 13.90039 c 3.07041,0 5.55334,2.48038 5.55859,5.55078 v 18.40821 c 0,1.45594 -1.17296,2.63086 -2.6289,2.63086 h -36.40039 -0.002 c -1.45949,0.005 -2.638677,-1.17136 -2.638669,-2.63086 v -42.94922 c 0.005,-1.45791 1.182709,-2.63087 2.640629,-2.63086 z"
       id="path38" />
  </g>
  <g
     id="path19"
     class="cls-7"
     transform="translate(-0.32330882)">
    <path
       style="color:#000000;fill:#fff200;-inkscape-stroke:none"
       d="m 175,123.79 h 20.16 a 2.93,2.93 0 0 0 2.93,-2.92 v -19 A 2.93,2.93 0 0 0 195.15,99 H 175 a 2.93,2.93 0 0 0 -2.92,2.93 v 19 a 2.92,2.92 0 0 0 2.92,2.86 z m 7.66,-18.51 a 2.93,2.93 0 0 1 2.93,-2.92 h 1.73 a 2.93,2.93 0 0 1 2.93,2.92 v 11.2 a 2.93,2.93 0 0 1 -2.93,2.93 h -1.73 a 2.93,2.93 0 0 1 -2.93,-2.93 z"
       id="path39" />
    <path
       style="color:#000000;fill:#00aeef;-inkscape-stroke:none"
       d="m 174.99805,98.710937 c -1.77067,0.006 -3.209,1.448073 -3.20899,3.218753 v 19.0039 l 0.002,0.002 c 0.0358,1.7438 1.46481,3.1449 3.20898,3.14453 h 20.16016 c 1.77067,1e-5 3.21466,-1.43832 3.2207,-3.20899 v -19.0039 -0.004 c -0.0359,-1.75293 -1.47742,-3.157645 -3.23047,-3.152343 H 175 Z M 175,99.289062 h 20.15039 c 1.44394,-0.0052 2.62083,1.142298 2.65039,2.585938 v 18.99414 c -0.005,1.45791 -1.18271,2.63087 -2.64062,2.63086 H 175 c -1.43488,3e-4 -2.60138,-1.14159 -2.63086,-2.57617 v -18.99414 c -10e-6,-1.45727 1.17386,-2.634607 2.63086,-2.640628 z m 10.58984,2.781248 c -1.77067,-1e-5 -3.21466,1.43832 -3.2207,3.20899 v 11.20117 c 0,1.77492 1.44578,3.21875 3.2207,3.21875 h 1.73047 c 1.77492,0 3.21875,-1.44383 3.21875,-3.21875 V 105.2793 c -0.006,-1.77067 -1.44807,-3.209 -3.21875,-3.20899 z m 0,0.58008 h 1.73047 c 1.45792,-1e-5 2.63565,1.17295 2.64063,2.63086 v 11.19922 c 0,1.46146 -1.17916,2.63867 -2.64063,2.63867 h -1.73047 c -1.46146,0 -2.64062,-1.17721 -2.64062,-2.63867 v -11.19922 c 0.005,-1.45791 1.18271,-2.63087 2.64062,-2.63086 z"
       id="path40" />
  </g>
  <g
     id="path20"
     class="cls-7"
     transform="translate(-0.32330882)">
    <path
       style="color:#000000;fill:#fff200;-inkscape-stroke:none"
       d="m 167.1,99 h -21.33 a 1.47,1.47 0 0 0 -1.46,1.46 v 21.92 a 1.46,1.46 0 0 0 1.46,1.46 h 21.33 a 2.93,2.93 0 0 0 2.93,-2.92 v -3.75 a 2.93,2.93 0 0 0 -2.93,-2.92 h -2.92 a 1.46,1.46 0 0 0 -1.46,1.46 v 2.87 a 0.73,0.73 0 0 1 -0.73,0.73 h -6.13 a 0.74,0.74 0 0 1 -0.74,-0.73 v -6.09 a 0.74,0.74 0 0 1 0.74,-0.73 h 11.24 a 2.93,2.93 0 0 0 2.93,-2.92 v -6.91 A 2.93,2.93 0 0 0 167.1,99 Z m -4.38,6.63 a 1.46,1.46 0 0 1 -1.46,1.46 h -4.67 a 1.47,1.47 0 0 1 -1.47,-1.46 v -1.17 a 1.46,1.46 0 0 1 1.47,-1.46 h 4.67 a 1.46,1.46 0 0 1 1.46,1.46 z"
       id="path41" />
    <path
       style="color:#000000;fill:#00aeef;-inkscape-stroke:none"
       d="m 145.76758,98.710937 c -0.9594,0.0065 -1.74154,0.788648 -1.74805,1.748043 v 21.92188 c 0,0.96306 0.78694,1.75 1.75,1.75 h 21.33008 c 1.77067,1e-5 3.21466,-1.43832 3.2207,-3.20898 v -0.002 -3.75 c -0.006,-1.77066 -1.45003,-3.20899 -3.2207,-3.20898 h -2.91992 c -0.96306,0 -1.75,0.78694 -1.75,1.75 v 2.86914 c 0,0.24644 -0.19302,0.43945 -0.43946,0.43945 h -6.13086 c -0.24946,2e-5 -0.44584,-0.19392 -0.44921,-0.44336 v -6.08203 c 0.003,-0.24944 0.19975,-0.44338 0.44921,-0.44336 h 11.24024 c 1.77067,10e-6 3.21466,-1.43832 3.2207,-3.20898 v -0.002 -6.91015 c 0,-1.77492 -1.44578,-3.218752 -3.2207,-3.218753 h -21.33008 z m 0.002,0.578125 h 21.33008 c 1.46146,0 2.64062,1.179158 2.64062,2.640628 v 6.91015 c -0.005,1.45791 -1.1827,2.63087 -2.64062,2.63086 h -11.24024 c -0.56016,-5e-5 -1.02172,0.45551 -1.02929,1.01563 v 0.002 6.09375 0.002 c 0.008,0.56012 0.46913,1.01568 1.02929,1.01563 h 6.13086 c 0.5599,0 1.01954,-0.45964 1.01954,-1.01953 v -2.86914 c 0,-0.64961 0.52031,-1.17188 1.16992,-1.17188 h 2.91992 c 1.45792,-10e-6 2.63565,1.17491 2.64062,2.63282 v 3.74804 c -0.005,1.45791 -1.1827,2.63087 -2.64062,2.63086 h -21.33008 c -0.64961,0 -1.16992,-0.52031 -1.16992,-1.16992 v -21.91797 -0.002 c 0.005,-0.64717 0.52275,-1.166456 1.16992,-1.171878 z m 10.82031,3.421878 c -0.96678,-0.006 -1.75978,0.78296 -1.75976,1.75 v 1.16992 0.002 c 0.007,0.96398 0.79576,1.74807 1.75976,1.74805 h 4.66993 c 0.96306,0 1.75,-0.78694 1.75,-1.75 v -1.16992 c 0,-0.96306 -0.78694,-1.75 -1.75,-1.75 h -4.66797 z m -0.002,0.57812 h 0.002 4.66993 c 0.6496,0 1.16992,0.52227 1.16992,1.17188 v 1.16992 c 0,0.64961 -0.52032,1.16992 -1.16992,1.16992 h -4.66993 c -0.65128,2e-5 -1.17422,-0.51892 -1.17968,-1.16992 v -1.16992 c -2e-5,-0.65283 0.52492,-1.17635 1.17773,-1.17188 z"
       id="path42" />
  </g>
  <g
     id="path21"
     class="cls-7"
     transform="translate(-0.32330882)">
    <path
       style="color:#000000;fill:#fff200;-inkscape-stroke:none"
       d="m 219.13,148.72 h 11.25 a 2.92,2.92 0 0 0 2.92,-2.92 v -6.92 a 2.92,2.92 0 0 0 -2.92,-2.92 h -21.33 a 1.46,1.46 0 0 0 -1.46,1.46 v 21.92 a 1.46,1.46 0 0 0 1.46,1.46 h 21.33 a 2.92,2.92 0 0 0 2.92,-2.92 v -3.75 a 2.92,2.92 0 0 0 -2.92,-2.92 h -2.92 a 1.46,1.46 0 0 0 -1.47,1.46 v 2.87 a 0.73,0.73 0 0 1 -0.73,0.73 h -6.13 a 0.73,0.73 0 0 1 -0.73,-0.73 v -6.09 a 0.73,0.73 0 0 1 0.73,-0.73 z m -0.73,-7.3 a 1.46,1.46 0 0 1 1.46,-1.47 h 4.67 a 1.46,1.46 0 0 1 1.46,1.47 v 1.16 a 1.46,1.46 0 0 1 -1.46,1.47 h -4.67 a 1.46,1.46 0 0 1 -1.46,-1.47 z"
       id="path43" />
    <path
       style="color:#000000;fill:#00aeef;-inkscape-stroke:none"
       d="m 209.05078,135.66992 c -0.96306,0 -1.75,0.78694 -1.75,1.75 v 21.91992 c 0,0.96307 0.78694,1.75 1.75,1.75 h 21.33008 c 1.7694,0 3.20898,-1.43958 3.20898,-3.20898 v -3.75 c 0,-1.7694 -1.43958,-3.21094 -3.20898,-3.21094 h -2.91797 -0.002 c -0.96678,-0.006 -1.76174,0.78296 -1.76172,1.75 v 2.86914 c 0,0.24644 -0.19301,0.44141 -0.43945,0.44141 h -6.12891 c -0.24644,0 -0.44141,-0.19497 -0.44141,-0.44141 v -6.08984 c 0,-0.24644 0.19497,-0.43945 0.44141,-0.43945 h 11.25 c 1.7694,0 3.20898,-1.43959 3.20898,-3.20899 v -6.91992 c 0,-1.7694 -1.43958,-3.21094 -3.20898,-3.21094 z m 0,0.58008 h 21.33008 c 1.45594,0 2.62891,1.17492 2.62891,2.63086 v 6.91992 c 0,1.45594 -1.17297,2.62891 -2.62891,2.62891 h -11.25 c -0.5599,0 -1.02148,0.45963 -1.02149,1.01953 v 6.08984 c 10e-6,0.5599 0.46159,1.02149 1.02149,1.02149 h 6.12891 c 0.55989,0 1.01953,-0.46159 1.01953,-1.02149 v -2.86914 c -2e-5,-0.65282 0.52688,-1.17439 1.17968,-1.16992 h 2.92188 c 1.45594,0 2.62891,1.17492 2.62891,2.63086 v 3.75 c 0,1.45594 -1.17297,2.62891 -2.62891,2.62891 h -21.33008 c -0.64961,0 -1.16992,-0.52032 -1.16992,-1.16993 v -21.91992 c 0,-0.64961 0.52031,-1.16992 1.16992,-1.16992 z m 10.80859,3.41016 c -0.96768,-3e-5 -1.75662,0.79405 -1.75,1.76171 v 1.15821 c -0.006,0.96678 0.78297,1.75979 1.75,1.75976 h 4.66993 c 0.96769,3e-5 1.75662,-0.79405 1.75,-1.76172 v -1.15625 -0.002 c 0.006,-0.96678 -0.78297,-1.75979 -1.75,-1.75976 z m 0,0.58007 h 4.66993 c 0.65282,-1e-5 1.17439,0.52493 1.16992,1.17774 v 0.002 1.16016 0.002 c 0.004,0.65281 -0.5171,1.17775 -1.16992,1.17774 h -4.66993 c -0.65282,1e-5 -1.17439,-0.52493 -1.16992,-1.17774 v -0.002 -1.16016 -0.002 c -0.004,-0.65281 0.5171,-1.17775 1.16992,-1.17774 z"
       id="path44" />
  </g>
  <g
     id="path22"
     class="cls-7"
     transform="translate(-0.32330882)">
    <path
       style="color:#000000;fill:#fff200;-inkscape-stroke:none"
       d="M 167.32,136 H 146 a 2.92,2.92 0 0 0 -2.92,2.92 v 3.75 a 2.92,2.92 0 0 0 2.92,2.92 h 6.09 a 1.46,1.46 0 0 0 1.46,-1.46 V 140 a 0.73,0.73 0 0 1 0.73,-0.73 h 6.13 a 0.73,0.73 0 0 1 0.73,0.73 v 7.29 a 0.73,0.73 0 0 1 -0.73,0.73 H 146 a 2.92,2.92 0 0 0 -2.92,2.92 v 6.92 a 2.92,2.92 0 0 0 2.92,2.94 h 21.33 a 1.46,1.46 0 0 0 1.46,-1.46 V 137.42 A 1.46,1.46 0 0 0 167.32,136 Z m -6.19,19.39 a 1.46,1.46 0 0 1 -1.46,1.46 H 155 a 1.46,1.46 0 0 1 -1.46,-1.46 v -1.17 a 1.46,1.46 0 0 1 1.46,-1.46 h 4.67 a 1.46,1.46 0 0 1 1.46,1.46 z"
       id="path45" />
    <path
       style="color:#000000;fill:#00aeef;-inkscape-stroke:none"
       d="m 146,135.71094 c -1.7694,0 -3.21094,1.43958 -3.21094,3.20898 v 3.75 c 0,1.7694 1.44154,3.21094 3.21094,3.21094 h 6.08984 c 0.96307,0 1.75,-0.78694 1.75,-1.75 V 140 c 0,-0.24644 0.19302,-0.43945 0.43946,-0.43945 h 6.13086 c 0.24644,0 0.43945,0.19301 0.43945,0.43945 v 7.28906 c 0,0.24644 -0.19301,0.44141 -0.43945,0.44141 H 146 c -1.7694,0 -3.21094,1.43959 -3.21094,3.20898 v 6.91992 c -0.0111,1.777 1.43366,3.23052 3.21094,3.23047 h 21.33008 c 0.96306,0 1.75,-0.78693 1.75,-1.75 v -21.92382 -0.004 c -0.026,-0.94852 -0.81114,-1.70698 -1.75977,-1.70117 z m 0,0.57812 h 21.32031 0.002 c 0.64019,-0.005 1.16021,0.49871 1.17773,1.13867 v 21.91211 c 0,0.64961 -0.52031,1.16993 -1.16992,1.16993 H 146 c -1.46308,3e-5 -2.64088,-1.1854 -2.63086,-2.64844 v -6.92188 c 0,-1.45594 1.17492,-2.6289 2.63086,-2.6289 h 14.41016 c 0.55989,0 1.01953,-0.46159 1.01953,-1.02149 V 140 c 0,-0.55989 -0.45964,-1.01953 -1.01953,-1.01953 h -6.13086 c -0.5599,0 -1.01953,0.45964 -1.01953,1.01953 v 4.13086 c 0,0.64961 -0.52032,1.16992 -1.16993,1.16992 H 146 c -1.45594,0 -2.63086,-1.17492 -2.63086,-2.63086 v -3.75 c 0,-1.45594 1.17492,-2.63086 2.63086,-2.63086 z m 9,16.18164 c -0.96306,0 -1.75,0.78694 -1.75,1.75 v 1.16992 c 0,0.96307 0.78694,1.75 1.75,1.75 h 4.66992 c 0.96306,0 1.75,-0.78693 1.75,-1.75 v -1.16992 c 0,-0.96306 -0.78694,-1.75 -1.75,-1.75 z m 0,0.58008 h 4.66992 c 0.64961,0 1.16992,0.52032 1.16992,1.16992 v 1.16992 c 0,0.64961 -0.52031,1.16993 -1.16992,1.16993 H 155 c -0.64961,0 -1.16992,-0.52032 -1.16992,-1.16993 v -1.16992 c 0,-0.6496 0.52031,-1.16992 1.16992,-1.16992 z"
       id="path46" />
  </g>
  <g
     id="path23"
     class="cls-7"
     transform="translate(-0.32330882)">
    <path
       style="color:#000000;fill:#fff200;-inkscape-stroke:none"
       d="m 200.72,136 h -29.15 a 1.47,1.47 0 0 0 -1.46,1.46 v 21.92 a 1.47,1.47 0 0 0 1.46,1.46 h 7.84 a 1.47,1.47 0 0 0 1.46,-1.46 v -17.7 a 1.17,1.17 0 0 1 1.17,-1.17 h 2.2 a 1.17,1.17 0 0 1 1.17,1.17 v 17.66 a 1.47,1.47 0 0 0 1.46,1.46 h 4.8 a 1.46,1.46 0 0 0 1.46,-1.46 v -17.66 a 1.17,1.17 0 0 1 1.17,-1.17 h 2.2 a 1.17,1.17 0 0 1 1.17,1.17 v 17.66 a 1.47,1.47 0 0 0 1.46,1.46 h 4.8 a 1.46,1.46 0 0 0 1.46,-1.46 v -18.7 A 4.68,4.68 0 0 0 200.72,136 Z"
       id="path47" />
    <path
       style="color:#000000;fill:#00aeef;-inkscape-stroke:none"
       d="m 171.56836,135.71094 c -0.9594,0.007 -1.74154,0.78864 -1.74805,1.74804 v 21.92188 0.002 c 0.007,0.9594 0.78865,1.74154 1.74805,1.74805 h 7.8418 0.002 c 0.9594,-0.007 1.74154,-0.78865 1.74805,-1.74805 v -0.002 -17.70117 c 0,-0.48945 0.38946,-0.87891 0.8789,-0.87891 h 2.20117 c 0.48945,0 0.87891,0.38946 0.87891,0.87891 v 17.66211 c 0.007,0.9594 0.78865,1.74154 1.74805,1.74804 h 0.002 4.80078 c 0.96306,0 1.75,-0.78693 1.75,-1.75 v -17.66015 c 0,-0.48945 0.39142,-0.87891 0.88086,-0.87891 H 196.5 c 0.48945,0 0.88086,0.38946 0.88086,0.87891 v 17.66211 c 0.006,0.9594 0.78865,1.74154 1.74805,1.74804 h 4.80078 c 0.96306,0 1.75,-0.78693 1.75,-1.75 v -18.70117 -0.002 c -0.0232,-2.72079 -2.2381,-4.92007 -4.95899,-4.92578 z m 0.002,0.57812 h 29.15039 c 2.4087,0.006 4.35833,1.94465 4.37891,4.35352 v 18.69726 c 0,0.64961 -0.52032,1.16993 -1.16992,1.16993 h -4.79688 -0.002 c -0.64717,-0.005 -1.1645,-0.52276 -1.16992,-1.16993 v -0.002 -17.6582 c 0,-0.8029 -0.65804,-1.45899 -1.46094,-1.45899 h -2.19922 c -0.8029,0 -1.46094,0.65609 -1.46094,1.45899 v 17.66015 c 0,0.64961 -0.52031,1.16993 -1.16992,1.16993 h -4.79883 -0.002 c -0.64717,-0.005 -1.1645,-0.52276 -1.16992,-1.16993 v -0.002 -17.6582 c 0,-0.8029 -0.65609,-1.45899 -1.45899,-1.45899 h -2.20117 c -0.8029,0 -1.45898,0.65609 -1.45898,1.45899 v 17.69922 c -0.004,0.64808 -0.5221,1.16645 -1.16992,1.17187 h -7.83789 -0.002 c -0.64716,-0.005 -1.1645,-0.52275 -1.16992,-1.16992 v -21.91797 -0.002 c 0.005,-0.64717 0.52275,-1.16646 1.16992,-1.17188 z"
       id="path48" />
  </g>
  <path
     class="cls-8"
     d="m 18.376691,20.43 c 1.93,4.68 -1.34,9.35 0.58,14 3.16,3.86 -0.58,13.09 7.6,12.28 l 1.17,-5.26 c 3.68,-1.52 -0.12,-6.08 3.51,-7.6 1.16,2.16 4.15,0 5.26,2.34 -1.58,4 0.81,7.48 -1.76,11.1 1.7,2.81 2.28,-0.29 4.09,-0.58 0.59,1 1.64,0.93 2.34,1.75 3.33,-2.45 12.51,3 11.1,-4.67 -1.75,-1.06 -3,2.16 -4.09,-0.59 l -0.58,0.59 c -1.58,0.7 -4.62,1.34 -5.85,-0.59 0.47,-2 1.76,-3.56 2.93,-5.26 a 7.16,7.16 0 0 1 5.84,1.75 c 0.94,-1.52 2.69,-3.44 1.17,-5.26 a 6.86,6.86 0 0 0 -5.84,0 c -2.17,-3.15 1.63,-5.31 0.58,-8.76 2.51,-3.45 4.38,1.69 7.6,0 6.37,-6.72 -5.26,-2.86 -7,-6.43 -2.59,0.9 -3.85,16.81 -5.35,18.76 -1.46,-2.63 1.44,-18.37 0.09,-21.06 -3.62,1.41 -2.8,7.37 -2.92,10.52 0,2.28 -2.45,3.51 -4.67,2.92 -4.56,-3.21 -1.29,-8.94 -0.59,-12.85 -2.8,-1.11 -5.37,-2.63 -8.76,-2.34 -2.28,-3.51 -5.55,2.92 -7.6,-1.75 -0.23,3.62 -6.31,1.75 -4.09,6.43 1.54,0.97 3.72,2.9 5.24,0.56 z m 7.65,-0.15 a 5.61,5.61 0 0 0 2.88,0 c 1.64,-0.41 0.41,2.06 -0.42,9.88 -0.83,7.82 -2.88,10.7 -4.52,10.7 -1.64,0 -0.83,-4.53 -1.24,-7 -0.41,-2.47 -0.41,-5.76 -0.82,-10.28 -0.41,-4.52 4.12,-3.3 4.12,-3.3 z"
     id="path64"
     style="fill:url(#linear-gradient-6)" />
  <path
     class="cls-9"
     d="m 410.46669,21.45 a 3.51,3.51 0 0 0 -3.1,3.86 c 0.13,1.18 1.47,11.62 8.62,14.24 4.53,1.66 9.77,-0.31 15.59,-5.84 a 3.5048288,3.5048288 0 1 0 -4.83,-5.08 c -3.57,3.39 -6.61,5 -8.34,4.34 -2.21,-0.8 -3.74,-5.5 -4.07,-8.43 a 3.51,3.51 0 0 0 -3.87,-3.09 z"
     id="path63"
     style="fill:#ff0000" />
  <path
     class="cls-9"
     d="m 433.48669,40.18 c -1.19,0 -11.71,0.24 -15.06,7.09 -2.12,4.33 -0.71,9.75 4.19,16.11 a 3.5043152,3.5043152 0 1 0 5.55,-4.28 c -3,-3.9 -4.26,-7.08 -3.45,-8.74 1,-2.12 5.86,-3.15 8.8,-3.17 a 3.51,3.51 0 0 0 0,-7 z"
     id="path62"
     style="fill:#ff0000" />
  <path
     class="cls-9"
     d="m 392.90669,56.36 a 3.51,3.51 0 1 0 4.83,5.09 c 3.56,-3.4 6.6,-5 8.34,-4.35 2.21,0.81 3.74,5.5 4.07,8.43 a 3.5211113,3.5211113 0 0 0 7,-0.77 c -0.13,-1.18 -1.47,-11.62 -8.63,-14.24 -4.55,-1.66 -9.79,0.31 -15.61,5.84 z"
     id="path61"
     style="fill:#ff0000" />
  <path
     class="cls-9"
     d="m 396.53669,26.88 a 3.51,3.51 0 0 0 -0.64,4.92 c 3,3.89 4.26,7.08 3.45,8.74 -1,2.12 -5.86,3.14 -8.8,3.17 a 3.51,3.51 0 0 0 0,7 c 1.19,0 11.71,-0.24 15.06,-7.09 2.12,-4.33 0.71,-9.75 -4.19,-16.11 a 3.51,3.51 0 0 0 -4.88,-0.63 z"
     id="path60"
     style="fill:#ff0000" />
  <metadata
     id="metadata28">
    <rdf:RDF>
      <cc:Work
         rdf:about="">
        <dc:title>Angry Video Game Nerd Logo</dc:title>
      </cc:Work>
    </rdf:RDF>
  </metadata>
</svg>
