<?xml version="1.0" encoding="UTF-8" standalone="no"?>
<!-- Created with Inkscape (http://www.inkscape.org/) -->

<svg
   width="160.25606mm"
   height="29.732216mm"
   viewBox="0 0 160.25606 29.732217"
   version="1.1"
   id="svg5"
   xml:space="preserve"
   inkscape:version="1.2.1 (9c6d41e410, 2022-07-14)"
   sodipodi:docname="batoparrot-w.svg"
   xmlns:inkscape="http://www.inkscape.org/namespaces/inkscape"
   xmlns:sodipodi="http://sodipodi.sourceforge.net/DTD/sodipodi-0.dtd"
   xmlns="http://www.w3.org/2000/svg"
   xmlns:svg="http://www.w3.org/2000/svg"><sodipodi:namedview
     id="namedview7"
     pagecolor="#ffffff"
     bordercolor="#000000"
     borderopacity="0.25"
     inkscape:showpageshadow="2"
     inkscape:pageopacity="0.0"
     inkscape:pagecheckerboard="0"
     inkscape:deskcolor="#d1d1d1"
     inkscape:document-units="mm"
     showgrid="false"
     inkscape:zoom="1.4770342"
     inkscape:cx="292.13948"
     inkscape:cy="-50.100397"
     inkscape:window-width="1920"
     inkscape:window-height="1009"
     inkscape:window-x="-8"
     inkscape:window-y="-8"
     inkscape:window-maximized="1"
     inkscape:current-layer="layer1" /><defs
     id="defs2"><rect
       x="139.46867"
       y="100.20079"
       width="437.36292"
       height="227.48288"
       id="rect747" /></defs><g
     inkscape:label="Warstwa 1"
     inkscape:groupmode="layer"
     id="layer1"
     transform="translate(-29.003794,-23.396366)"><g
       id="g3810"><path
         style="fill:#80ff80;fill-opacity:1;stroke:#000000;stroke-width:2;stroke-dasharray:none;stroke-opacity:0"
         d="m 39.427521,26.318665 c -0.492607,-1.545009 -4.975094,-0.876355 -5.875054,-1.068474 -0.8756,-0.235762 -1.612566,-0.8321 -1.612566,-0.8321 -0.604569,-0.15674 -1.687265,0.827275 1.492319,2.484241 0,0 -2.628796,-1.216596 -3.233365,-0.880725 -0.828483,0.850875 1.067928,1.964192 1.067928,1.964192 1.455443,1.186746 2.671269,0.775469 2.671269,0.775469 l 0.0018,13.426995 0.0056,2.124388 0.31348,0.515003 0.358264,0.291088 0.582176,0.02239 c 0,0 6.969345,0.383315 8.488331,-0.415226 7.5087,-3.947373 2.134758,-10.759028 0.618619,-10.796787 0.761309,0.223914 3.310239,-6.293192 -3.256431,-7.623722"
         id="path2097"
         sodipodi:nodetypes="ccccccccccccscc" /><ellipse
         style="fill:#ff9955;stroke-width:0.79375;stroke-opacity:0"
         id="path1737"
         cx="38.41251"
         cy="31.213661"
         rx="1.2875075"
         ry="1.2763119" /><ellipse
         style="fill:#000000;stroke-width:0.79375;stroke-opacity:0"
         id="path1739"
         cx="40.13665"
         cy="28.929733"
         rx="0.81728739"
         ry="0.80609167" /><ellipse
         style="fill:#80ff80;fill-opacity:1;stroke-width:0.79375;stroke-opacity:0"
         id="path1793"
         cx="39.095448"
         cy="28.470711"
         rx="1.0971804"
         ry="0.8844617" /><path
         style="fill:none;stroke:#000000;stroke-width:0.994;stroke-dasharray:none;stroke-opacity:1"
         d="m 39.805978,26.474398 c -0.492607,-1.545009 -5.315274,-1.27715 -6.215234,-1.469269 -0.8756,-0.235762 -1.612566,-0.8321 -1.612566,-0.8321 -0.604569,-0.15674 -1.687265,0.827275 1.492319,2.484241 0,0 -2.628796,-1.216596 -3.233365,-0.880725 -0.828483,0.850875 1.067928,1.964192 1.067928,1.964192 1.455443,1.186746 2.671269,0.775469 2.671269,0.775469 l 0.0018,13.426995 0.0056,2.124388 0.31348,0.515003 0.358264,0.291088 0.582176,0.02239 c 0,0 6.969345,0.383315 8.488331,-0.415226 7.5087,-3.947373 2.134758,-10.759028 0.618619,-10.796787 0.761309,0.223914 3.291491,-7.248953 -4.887244,-7.607889"
         id="path2097-1"
         sodipodi:nodetypes="ccccccccccccscc"
         inkscape:label="path2097-1" /><path
         style="fill:none;fill-opacity:1;stroke:#000000;stroke-width:0.494003;stroke-dasharray:none;stroke-opacity:1"
         d="m 38.983487,35.93825 c 4.058342,-0.09061 3.974788,3.022622 3.354878,4.347788 l -0.891819,1.765081 c -0.764291,1.414323 -1.214857,1.851278 -2.091681,2.626358 l 1.21729,-0.02895 c 0.0059,-0.06198 -0.0021,-0.140036 0.0075,-0.202481 0.161098,-1.043993 0.841246,-2.148671 1.247536,-3.149678"
         id="path3617"
         sodipodi:nodetypes="cccccsc" /><path
         style="fill:#ff6600;fill-opacity:1;stroke:none;stroke-width:0.494001;stroke-dasharray:none;stroke-opacity:1"
         d="m 31.773447,24.33949 c 1.701749,1.052398 3.022377,1.263662 4.211839,1.198738 2.282133,-0.726641 3.446031,1.018013 3.446031,1.018013 -2.530232,0.425438 -3.62741,1.343487 -4.926114,1.768924 -1.775289,0.479198 -4.285565,-1.203114 -4.097633,-2.19436 0.962832,-0.447829 0.850873,0.291089 2.933277,0.738918 -1.903272,-1.433052 -1.747923,-2.531124 -1.5674,-2.530233 z"
         id="path3619"
         sodipodi:nodetypes="ccccccc" /><path
         style="fill:#333333;fill-opacity:1;stroke:none;stroke-width:0.494001;stroke-dasharray:none;stroke-opacity:1"
         d="m 41.983943,31.773447 c -0.03433,0.708625 -1.27278,1.65976 0.447828,3.022842 0,0 0.470225,-0.470223 0.179136,-1.433055"
         id="path3675"
         sodipodi:nodetypes="ccc" /><path
         style="fill:#333333;fill-opacity:1;stroke:none;stroke-width:0.494001;stroke-dasharray:none;stroke-opacity:1"
         d="m 42.700467,33.184107 c 0.620081,1.260491 -0.671024,2.281974 -0.135466,2.129076 1.100417,-0.314162 2.722306,-2.08602 2.55374,-4.144305 0.05059,-0.658693 -2.395885,-2.239146 -2.978062,0.358262"
         id="path3731"
         sodipodi:nodetypes="cscc" /><path
         style="fill:#000000;fill-opacity:1;stroke:none;stroke-width:1.09493;stroke-dasharray:none;stroke-opacity:1"
         d="m 41.029498,43.235892 c 4.12e-4,0.102501 -0.441997,0.354706 -0.140898,0.440765 -0.209556,0.382837 -0.322199,0.865032 -0.523529,0.868238 -0.04523,0.07629 -0.842554,0.173755 -0.841848,0.348522"
         id="path3798"
         sodipodi:nodetypes="cccc" /></g><g
       aria-label="parrot"
       transform="matrix(1.4245216,0,0,1.2357418,68.103778,-62.56767)"
       id="text3866"
       style="font-size:17.7886px;font-family:Blanka;-inkscape-font-specification:Blanka;fill:#ff0000;stroke-width:0.895031"><path
         d="m 26.69138,72.788742 h -4.607248 c -0.08894,0 -0.177886,0.08894 -0.177886,0.160097 v 2.454827 h 2.66829 2.116844 c 0.320195,0 2.099055,0.08894 2.099055,1.65434 0,1.565397 -1.743283,1.600974 -2.099055,1.600974 h -2.116844 -2.66829 v 8.200545 c 0,0.07115 0.08894,0.160098 0.177886,0.160098 h 2.312518 c 0.124521,0 0.177886,-0.08894 0.177886,-0.160098 v -5.567832 h 2.116844 c 0.337983,0 4.802922,-0.05336 4.802922,-4.233687 0,-4.180321 -4.233687,-4.269264 -4.802922,-4.269264 z"
         id="path3933"
         style="fill:#ff0000" /><path
         d="M 41.094688,86.80616 35.686954,72.895474 c -0.05337,-0.142309 -0.302406,-0.142309 -0.355772,0 L 29.941236,86.80616 c -0.05337,0.106731 0.01779,0.213463 0.177886,0.213463 h 2.437038 c 0.07115,0 0.160097,-0.03558 0.177886,-0.106732 l 2.775022,-7.933716 2.810599,7.933716 c 0.01779,0.07116 0.106731,0.106732 0.160097,0.106732 h 2.454827 c 0.12452,0 0.213463,-0.106732 0.160097,-0.213463 z"
         id="path3935"
         style="fill:#ff0000" /><path
         d="m 51.868774,86.788371 c -0.88943,-1.974535 -1.850015,-3.931281 -2.739445,-5.941393 1.423088,-0.515869 2.614925,-1.65434 2.614925,-3.824549 0,-4.19811 -4.002435,-4.233687 -4.802923,-4.233687 h -4.607247 c -0.08894,0 -0.177886,0.08894 -0.177886,0.160097 v 2.41925 h 2.703867 2.081266 c 0.426927,0 2.099055,0.08894 2.099055,1.65434 0,1.565397 -1.512031,1.636551 -2.099055,1.636551 h -2.081266 -2.703867 v 8.200545 c 0,0.07115 0.08894,0.160098 0.177886,0.160098 h 2.330307 c 0.106731,0 0.195674,-0.08894 0.195674,-0.160098 v -5.58562 h 1.52982 l 2.597136,5.638986 c 0.01779,0.05337 0.12452,0.106732 0.177886,0.106732 h 2.54377 c 0.142308,0 0.213463,-0.106732 0.160097,-0.231252 z"
         id="path3937"
         style="fill:#ff0000" /><path
         d="m 62.343369,86.592821 c -0.88943,-1.974535 -1.850014,-3.931281 -2.739444,-5.941393 1.423088,-0.515869 2.614924,-1.65434 2.614924,-3.824549 0,-4.19811 -4.002435,-4.233687 -4.802922,-4.233687 h -4.607248 c -0.08894,0 -0.177886,0.08894 -0.177886,0.160097 v 2.41925 h 2.703868 2.081266 c 0.426926,0 2.099055,0.08894 2.099055,1.65434 0,1.565397 -1.512031,1.636551 -2.099055,1.636551 h -2.081266 -2.703868 v 8.200545 c 0,0.07115 0.08894,0.160098 0.177886,0.160098 h 2.330307 c 0.106732,0 0.195675,-0.08894 0.195675,-0.160098 v -5.58562 h 1.529819 l 2.597136,5.638986 c 0.01779,0.05337 0.12452,0.106732 0.177886,0.106732 h 2.54377 c 0.142309,0 0.213463,-0.106732 0.160097,-0.231252 z"
         id="path3939"
         style="fill:#ff0000" /><path
         d="m 71.042008,79.74421 c 0,-0.747122 -0.587024,-1.351934 -1.334145,-1.351934 -0.747121,0 -1.334145,0.604812 -1.334145,1.351934 0,0.729332 0.587024,1.334145 1.334145,1.334145 0.747121,0 1.334145,-0.604813 1.334145,-1.334145 z m 5.514466,-0.05337 c 0,-3.539932 -2.294729,-7.097652 -6.830822,-7.097652 -4.607248,0 -6.8664,3.55772 -6.8664,7.097652 0,3.55772 2.259152,7.133229 6.8664,7.133229 4.536093,0 6.830822,-3.575509 6.830822,-7.133229 z m -2.66829,0.05337 c 0,2.294729 -1.405299,4.589459 -4.162532,4.589459 -2.792811,0 -4.180322,-2.29473 -4.180322,-4.589459 0,-2.330307 1.387511,-4.642825 4.180322,-4.642825 2.757233,0 4.162532,2.312518 4.162532,4.642825 z"
         id="path3941"
         style="fill:#ff0000" /><path
         d="m 79.429157,77.751886 v 8.912089 c 0,0.07115 0.07115,0.160098 0.195675,0.160098 h 2.294729 c 0.124521,0 0.213464,-0.08894 0.213464,-0.160098 V 77.751886 Z M 76.689713,75.03023 h 8.164968 c 0.12452,0 0.195674,-0.07115 0.195674,-0.160097 v -2.116844 c 0,-0.07115 -0.07115,-0.160097 -0.195674,-0.160097 h -8.164968 c -0.106732,0 -0.195675,0.08894 -0.195675,0.160097 v 2.116844 c 0,0.08894 0.08894,0.160097 0.195675,0.160097 z"
         id="path3943"
         style="fill:#ff0000" /></g><g
       aria-label="atocera"
       transform="matrix(0.37682355,0,0,0.29844827,-5.1409284,-10.04169)"
       id="text745"
       style="font-size:74.6667px;font-family:Blanka;-inkscape-font-specification:Blanka;white-space:pre;shape-inside:url(#rect747);fill:#80ff80;fill-opacity:1;stroke-width:3;stroke-opacity:0"><path
         d="m 186.35944,183.30521 -22.69868,-58.38936 c -0.224,-0.59733 -1.26933,-0.59733 -1.49333,0 l -22.62401,58.38936 c -0.224,0.448 0.0747,0.896 0.74666,0.896 h 10.22934 c 0.29867,0 0.672,-0.14933 0.74667,-0.448 l 11.648,-33.30135 11.79734,33.30135 c 0.0747,0.29867 0.448,0.448 0.672,0.448 h 10.30401 c 0.52267,0 0.896,-0.448 0.672,-0.896 z"
         id="path3918"
         style="fill:#80ff80;fill-opacity:1" /><path
         d="m 191.49409,146.12119 v 37.40802 c 0,0.29867 0.29866,0.672 0.82133,0.672 h 9.632 c 0.52267,0 0.896,-0.37333 0.896,-0.672 v -37.40802 z m -11.49868,-11.424 h 34.27202 c 0.52267,0 0.82133,-0.29867 0.82133,-0.672 v -8.88534 c 0,-0.29867 -0.29866,-0.672 -0.82133,-0.672 h -34.27202 c -0.448,0 -0.82133,0.37333 -0.82133,0.672 v 8.88534 c 0,0.37333 0.37333,0.672 0.82133,0.672 z"
         id="path3920"
         style="fill:#80ff80;fill-opacity:1" /><path
         d="m 247.87625,154.48386 c 0,-3.136 -2.464,-5.67466 -5.60001,-5.67466 -3.136,0 -5.6,2.53866 -5.6,5.67466 0,3.06134 2.464,5.60001 5.6,5.60001 3.13601,0 5.60001,-2.53867 5.60001,-5.60001 z m 23.14667,-0.224 c 0,-14.85867 -9.632,-29.79201 -28.67201,-29.79201 -19.33868,0 -28.82135,14.93334 -28.82135,29.79201 0,14.93334 9.48267,29.94135 28.82135,29.94135 19.04001,0 28.67201,-15.00801 28.67201,-29.94135 z m -11.2,0.224 c 0,9.63201 -5.89867,19.26401 -17.47201,19.26401 -11.72267,0 -17.54667,-9.632 -17.54667,-19.26401 0,-9.78133 5.824,-19.488 17.54667,-19.488 11.57334,0 17.47201,9.70667 17.47201,19.488 z"
         id="path3922"
         style="fill:#80ff80;fill-opacity:1" /></g><g
       id="g4719"
       transform="matrix(0.96628548,0,0,0.96156433,1.1259154,1.7618202)"
       style="font-size:8.69386px;font-family:Blanka;-inkscape-font-specification:Blanka;fill:#80ff80;stroke-width:0.437431"><path
         d="m 39.832802,51.742068 h 1.321466 V 46.54314 c 0,-0.03478 -0.03478,-0.07825 -0.09563,-0.07825 h -1.14759 c -0.03477,0 -0.07824,0.02608 -0.09563,0.05216 l -2.373428,5.09461 -2.495138,-5.094602 c -0.0087,-0.02608 -0.06086,-0.05216 -0.08694,-0.05216 h -1.164978 c -0.06086,0 -0.08694,0.04347 -0.08694,0.07825 v 6.798598 c 0,0.03478 0.02608,0.07825 0.08694,0.07825 h 1.14759 c 0.05216,0 0.09563,-0.04347 0.09563,-0.07825 v -3.903543 l 1.886568,3.651421 c 0.0087,0.02608 0.06086,0.05216 0.08694,0.05216 h 1.069345 c 0.02608,0 0.06955,-0.02608 0.07824,-0.05216 l 1.773548,-3.555789 z"
         id="path4626" /><path
         d="m 45.53598,49.959827 c 0,-0.365143 -0.286898,-0.660734 -0.65204,-0.660734 -0.365142,0 -0.652039,0.295591 -0.652039,0.660734 0,0.356448 0.286897,0.652039 0.652039,0.652039 0.365142,0 0.65204,-0.295591 0.65204,-0.652039 z m 2.695096,-0.02608 c 0,-1.730078 -1.121508,-3.46885 -3.338442,-3.46885 -2.25171,0 -3.35583,1.738772 -3.35583,3.46885 0,1.738772 1.10412,3.486238 3.35583,3.486238 2.216934,0 3.338442,-1.747466 3.338442,-3.486238 z m -1.304079,0.02608 c 0,1.121508 -0.686815,2.243016 -2.034363,2.243016 -1.364936,0 -2.043057,-1.121508 -2.043057,-2.243016 0,-1.138896 0.678121,-2.269098 2.043057,-2.269098 1.347548,0 2.034363,1.130202 2.034363,2.269098 z"
         id="path4628" /><path
         d="m 49.795976,46.464895 h -1.138895 c -0.05216,0 -0.09563,0.04347 -0.09563,0.07825 v 2.729872 h 1.330161 v -1.538814 c 1.512731,-0.07824 2.634239,0.556407 2.634239,2.208241 0,2.147383 -1.790935,2.234322 -2.634239,2.199546 v -1.530119 h -1.330161 v 2.729872 c 0,0.03478 0.04347,0.07825 0.09563,0.07825 h 1.138895 c 1.730078,0 4.068727,-0.504244 4.068727,-3.477544 0,-3.08632 -2.373424,-3.477544 -4.068727,-3.477544 z"
         id="path4630" /><path
         d="m 57.437885,52.124598 h -1.973506 v -1.564895 h 2.729872 c 0.05216,0 0.09563,-0.04347 0.09563,-0.07824 v -1.10412 c 0,-0.04347 -0.04347,-0.07825 -0.09563,-0.07825 h -2.729872 v -1.573588 h 1.973506 v -1.26061 h -3.208034 c -0.05216,0 -0.09563,0.04347 -0.09563,0.07825 v 6.798598 c 0,0.03478 0.04347,0.07825 0.09563,0.07825 h 3.208034 z"
         id="path4632" /><path
         d="m 63.24539,53.306963 c -0.434693,-0.965019 -0.904161,-1.921343 -1.338854,-2.90375 0.695509,-0.252121 1.277997,-0.808529 1.277997,-1.869179 0,-2.051751 -1.956118,-2.069139 -2.347342,-2.069139 h -2.25171 c -0.04347,0 -0.08694,0.04347 -0.08694,0.07825 v 1.182365 h 1.321467 1.017181 c 0.208653,0 1.025876,0.04347 1.025876,0.808529 0,0.765059 -0.738978,0.799835 -1.025876,0.799835 H 59.82001 58.498543 v 4.007869 c 0,0.03478 0.04347,0.07825 0.08694,0.07825 h 1.138896 c 0.05216,0 0.09563,-0.04347 0.09563,-0.07825 v -2.729872 h 0.747671 l 1.269304,2.755954 c 0.0087,0.02608 0.06086,0.05216 0.08694,0.05216 h 1.243222 c 0.06955,0 0.104326,-0.05216 0.07824,-0.11302 z"
         id="path4634" /><path
         d="m 69.252856,46.464895 h -1.121508 c -0.06086,0 -0.104326,0.04347 -0.104326,0.07825 v 4.529501 l -3.208035,-4.581665 c -0.0087,-0.01739 -0.06086,-0.02608 -0.07825,-0.02608 h -1.156283 c -0.04347,0 -0.08694,0.04347 -0.08694,0.07825 v 5.207622 h 1.330161 v -2.938525 l 3.199341,4.581664 c 0.0087,0.01739 0.06086,0.02608 0.07824,0.02608 h 1.14759 c 0.06086,0 0.09563,-0.04347 0.09563,-0.07825 V 46.54314 c 0,-0.03478 -0.03477,-0.07825 -0.09563,-0.07825 z"
         id="path4636" /></g><g
       id="g4711"
       style="font-size:8.69386px;font-family:Blanka;-inkscape-font-specification:Blanka;fill:#ffffff;stroke-width:0.437431"
       transform="matrix(0.96628548,0,0,0.96156433,2.6799345,1.7618202)"><path
         d="m 75.103829,53.315657 -2.642933,-6.798599 c -0.02608,-0.06955 -0.147796,-0.06955 -0.173878,0 l -2.634239,6.798599 c -0.02608,0.05216 0.0087,0.104326 0.08694,0.104326 h 1.191059 c 0.03478,0 0.07825,-0.01739 0.08694,-0.05216 l 1.356242,-3.877462 1.37363,3.877462 c 0.0087,0.03477 0.05216,0.05216 0.07825,0.05216 h 1.199752 c 0.06086,0 0.104327,-0.05216 0.07825,-0.104326 z"
         id="path4638"
         style="fill:#ffffff" /><path
         d="m 80.128878,53.306963 c -0.434693,-0.965019 -0.904161,-1.921343 -1.338854,-2.90375 0.695508,-0.252121 1.277997,-0.808529 1.277997,-1.869179 0,-2.051751 -1.956118,-2.069139 -2.347342,-2.069139 h -2.25171 c -0.04347,0 -0.08694,0.04347 -0.08694,0.07825 v 1.182365 h 1.321467 1.017182 c 0.208652,0 1.025875,0.04347 1.025875,0.808529 0,0.765059 -0.738978,0.799835 -1.025875,0.799835 H 76.703497 75.38203 v 4.007869 c 0,0.03478 0.04347,0.07825 0.08694,0.07825 h 1.138896 c 0.05216,0 0.09563,-0.04347 0.09563,-0.07825 v -2.729872 h 0.747672 l 1.269304,2.755954 c 0.0087,0.02608 0.06086,0.05216 0.08694,0.05216 h 1.243222 c 0.06955,0 0.104327,-0.05216 0.07824,-0.11302 z"
         id="path4640"
         style="fill:#ffffff" /><path
         d="m 84.354102,52.141985 c -0.843304,0.03478 -2.634239,-0.05216 -2.634239,-2.199546 0,-1.651834 1.121508,-2.286485 2.634239,-2.208241 v 1.538814 h 1.330161 V 46.54314 c 0,-0.03478 -0.03478,-0.07825 -0.09563,-0.07825 h -1.130201 c -1.703997,0 -4.077421,0.391224 -4.077421,3.477544 0,2.9733 2.347342,3.477544 4.077421,3.477544 h 1.130201 c 0.06086,0 0.09563,-0.04347 0.09563,-0.07825 v -1.199753 z"
         id="path4642"
         style="fill:#ffffff" /><path
         d="m 91.413521,53.315657 -2.642933,-6.798599 c -0.02608,-0.06955 -0.147796,-0.06955 -0.173877,0 l -2.63424,6.798599 c -0.02608,0.05216 0.0087,0.104326 0.08694,0.104326 h 1.191059 c 0.03477,0 0.07824,-0.01739 0.08694,-0.05216 l 1.356242,-3.877462 1.37363,3.877462 c 0.0087,0.03477 0.05216,0.05216 0.07825,0.05216 h 1.199753 c 0.06086,0 0.104326,-0.05216 0.07824,-0.104326 z"
         id="path4644"
         style="fill:#ffffff" /><path
         d="m 92.926251,46.464895 h -1.138896 c -0.05216,0 -0.09563,0.04347 -0.09563,0.07825 v 2.729872 h 1.33016 v -1.538814 c 1.512732,-0.07824 2.63424,0.556407 2.63424,2.208241 0,2.147383 -1.790935,2.234322 -2.63424,2.199546 v -1.530119 h -1.33016 v 2.729872 c 0,0.03478 0.04347,0.07825 0.09563,0.07825 h 1.138896 c 1.730078,0 4.068727,-0.504244 4.068727,-3.477544 0,-3.08632 -2.373424,-3.477544 -4.068727,-3.477544 z"
         id="path4646"
         style="fill:#ffffff" /><path
         d="m 100.56816,52.124598 h -1.973504 v -1.564895 h 2.729874 c 0.0522,0 0.0956,-0.04347 0.0956,-0.07824 v -1.10412 c 0,-0.04347 -0.0435,-0.07825 -0.0956,-0.07825 h -2.729874 v -1.573588 h 1.973504 v -1.26061 h -3.208032 c -0.05216,0 -0.09563,0.04347 -0.09563,0.07825 v 6.798598 c 0,0.03478 0.04347,0.07825 0.09563,0.07825 h 3.208032 z"
         id="path4648"
         style="fill:#ffffff" /></g><g
       id="g4703"
       inkscape:transform-center-x="1.036012"
       transform="matrix(0.96628548,0,0,0.96156433,3.8886159,1.7618202)"
       style="font-size:8.69386px;font-family:Blanka;-inkscape-font-specification:Blanka;fill:#80ff80;stroke-width:0.437431"><path
         d="M 106.93207,47.742892 V 46.54314 c 0,-0.03478 -0.0348,-0.07825 -0.0956,-0.07825 h -1.1302 c -1.73008,0 -4.07742,0.504244 -4.07742,3.477544 0,3.08632 2.37342,3.477544 4.07742,3.477544 h 1.1302 c 0.0609,0 0.0956,-0.04347 0.0956,-0.07825 v -2.729872 -0.199959 -1.33016 h -1.33016 -1.33885 v 1.33016 h 1.33885 v 0.199959 1.538813 c -1.51273,0.07825 -2.63424,-0.556407 -2.63424,-2.20824 0,-2.147384 1.79094,-2.234322 2.63424,-2.199547 z"
         id="path4650" /><path
         d="m 112.66133,53.315657 -2.64293,-6.798599 c -0.0261,-0.06955 -0.1478,-0.06955 -0.17388,0 l -2.63424,6.798599 c -0.0261,0.05216 0.009,0.104326 0.0869,0.104326 h 1.19106 c 0.0348,0 0.0782,-0.01739 0.0869,-0.05216 l 1.35624,-3.877462 1.37363,3.877462 c 0.009,0.03477 0.0522,0.05216 0.0782,0.05216 h 1.19976 c 0.0609,0 0.10432,-0.05216 0.0782,-0.104326 z"
         id="path4652" /><path
         d="m 119.16434,51.742068 h 1.32147 V 46.54314 c 0,-0.03478 -0.0348,-0.07825 -0.0956,-0.07825 h -1.14759 c -0.0348,0 -0.0783,0.02608 -0.0956,0.05216 l -2.37343,5.094602 -2.49513,-5.094602 c -0.009,-0.02608 -0.0609,-0.05216 -0.0869,-0.05216 h -1.16498 c -0.0609,0 -0.0869,0.04347 -0.0869,0.07825 v 6.798598 c 0,0.03478 0.0261,0.07825 0.0869,0.07825 h 1.14759 c 0.0522,0 0.0956,-0.04347 0.0956,-0.07825 v -3.903543 l 1.88657,3.651421 c 0.009,0.02608 0.0609,0.05216 0.0869,0.05216 h 1.06934 c 0.0261,0 0.0695,-0.02608 0.0782,-0.05216 l 1.77354,-3.555789 z"
         id="path4654" /><path
         d="m 124.17201,52.124598 h -1.97351 v -1.564895 h 2.72988 c 0.0522,0 0.0956,-0.04347 0.0956,-0.07824 v -1.10412 c 0,-0.04347 -0.0435,-0.07825 -0.0956,-0.07825 h -2.72988 v -1.573588 h 1.97351 v -1.26061 h -3.20803 c -0.0522,0 -0.0956,0.04347 -0.0956,0.07825 v 6.798598 c 0,0.03478 0.0435,0.07825 0.0956,0.07825 h 3.20803 z"
         id="path4656" /><path
         d="m 128.42332,49.559909 c -0.49555,-0.234734 -0.98241,-0.234734 -1.02588,-0.234734 -0.44339,0 -0.86939,-0.260816 -0.86939,-0.76506 0,-0.556407 0.39123,-0.843304 0.86939,-0.843304 0.45208,0 0.83461,0.234734 0.852,0.730284 0,0.02608 0.0435,0.06955 0.0956,0.06955 h 1.08673 c 0.0609,0 0.10433,-0.04347 0.0956,-0.06955 -0.0174,-1.182365 -0.93894,-1.9822 -2.13,-1.9822 -1.11281,0 -2.16477,0.791141 -2.16477,2.09522 0,0.808529 0.40861,1.425793 1.1302,1.75616 0.50425,0.234734 0.97371,0.234734 1.03457,0.234734 0.39122,0.01739 0.86939,0.330367 0.86939,0.843305 0,0.460774 -0.40861,0.773753 -0.86939,0.773753 0,0 0,0 -0.009,0 v 1.251916 c 0.009,0 0.009,0 0.009,0 1.11282,0 2.15608,-0.72159 2.15608,-2.025669 0,-0.817223 -0.39992,-1.495344 -1.1302,-1.834405 z"
         id="path4658" /></g><g
       id="g4696"
       style="font-size:8.69386px;font-family:Blanka;-inkscape-font-specification:Blanka;fill:#ffffff;stroke-width:0.437431"
       transform="matrix(0.96628548,0,0,0.96156433,5.2699662,1.7618202)"><path
         d="m 133.83089,49.299093 h -2.72987 v -1.573588 h 1.9735 v -1.26061 h -3.20803 c -0.0522,0 -0.0956,0.04347 -0.0956,0.07825 v 6.798598 c 0,0.03478 0.0435,0.07825 0.0956,0.07825 h 0.36514 0.86069 0.009 v -2.86028 h 2.72987 c 0.0522,0 0.0956,-0.04347 0.0956,-0.07824 v -1.10412 c 0,-0.04347 -0.0435,-0.07825 -0.0956,-0.07825 z"
         id="path4660"
         style="fill:#ffffff" /><path
         d="m 138.13436,49.959827 c 0,-0.365143 -0.2869,-0.660734 -0.65204,-0.660734 -0.36514,0 -0.65204,0.295591 -0.65204,0.660734 0,0.356448 0.2869,0.652039 0.65204,0.652039 0.36514,0 0.65204,-0.295591 0.65204,-0.652039 z m 2.69509,-0.02608 c 0,-1.730078 -1.1215,-3.46885 -3.33844,-3.46885 -2.25171,0 -3.35583,1.738772 -3.35583,3.46885 0,1.738772 1.10412,3.486238 3.35583,3.486238 2.21694,0 3.33844,-1.747466 3.33844,-3.486238 z m -1.30408,0.02608 c 0,1.121508 -0.68681,2.243016 -2.03436,2.243016 -1.36493,0 -2.04306,-1.121508 -2.04306,-2.243016 0,-1.138896 0.67813,-2.269098 2.04306,-2.269098 1.34755,0 2.03436,1.130202 2.03436,2.269098 z"
         id="path4662"
         style="fill:#ffffff" /><path
         d="m 145.90667,53.306963 c -0.43469,-0.965019 -0.90416,-1.921343 -1.33885,-2.90375 0.69551,-0.252121 1.27799,-0.808529 1.27799,-1.869179 0,-2.051751 -1.95611,-2.069139 -2.34734,-2.069139 h -2.25171 c -0.0435,0 -0.0869,0.04347 -0.0869,0.07825 v 1.182365 h 1.32147 1.01718 c 0.20866,0 1.02588,0.04347 1.02588,0.808529 0,0.765059 -0.73898,0.799835 -1.02588,0.799835 h -1.01718 -1.32147 v 4.007869 c 0,0.03478 0.0435,0.07825 0.0869,0.07825 h 1.1389 c 0.0522,0 0.0956,-0.04347 0.0956,-0.07825 v -2.729872 h 0.74767 l 1.26931,2.755954 c 0.009,0.02608 0.0609,0.05216 0.0869,0.05216 h 1.24322 c 0.0695,0 0.10432,-0.05216 0.0782,-0.11302 z"
         id="path4664"
         style="fill:#ffffff" /></g><g
       id="g4691"
       transform="matrix(0.96628548,0,0,0.96156433,6.5649822,1.7618202)"
       style="font-size:8.69386px;font-family:Blanka;-inkscape-font-specification:Blanka;fill:#80ff80;stroke-width:0.437431"><path
         d="m 149.54941,48.534034 c 0,0.765059 -1.02588,0.765059 -1.02588,0.765059 h -1.04326 v -1.590976 h 1.04326 c 0,0 1.02588,-0.0087 1.02588,0.825917 z m 1.33016,-0.07824 c 0,-2.043057 -2.35604,-1.990894 -2.35604,-1.990894 h -2.2691 c -0.0522,0 -0.0956,0.04347 -0.0956,0.07825 v 4.051338 h 1.32147 1.04326 c 0,0 1.12151,-0.05216 1.12151,0.76506 0,0.669427 -0.68682,0.791141 -1.12151,0.791141 h -1.03457 v 1.269304 h 1.03457 c 0.46947,0 2.45167,-0.08694 2.45167,-2.025669 0,0 0.0435,-1.078039 -1.06065,-1.451875 0.53033,-0.217347 0.96502,-0.678121 0.96502,-1.48665 z"
         id="path4666" /><path
         d="m 156.67838,53.315657 -2.64294,-6.798599 c -0.0261,-0.06955 -0.14779,-0.06955 -0.17387,0 l -2.63424,6.798599 c -0.0261,0.05216 0.009,0.104326 0.0869,0.104326 h 1.19106 c 0.0348,0 0.0782,-0.01739 0.0869,-0.05216 l 1.35624,-3.877462 1.37363,3.877462 c 0.009,0.03477 0.0522,0.05216 0.0783,0.05216 h 1.19975 c 0.0609,0 0.10433,-0.05216 0.0782,-0.104326 z"
         id="path4668" /><path
         d="m 158.39107,48.986114 v 4.355624 c 0,0.03478 0.0348,0.07825 0.0956,0.07825 h 1.12151 c 0.0609,0 0.10433,-0.04347 0.10433,-0.07825 v -4.355624 z m -1.33885,-1.33016 h 3.99048 c 0.0609,0 0.0956,-0.03478 0.0956,-0.07825 V 46.54314 c 0,-0.03478 -0.0348,-0.07825 -0.0956,-0.07825 h -3.99048 c -0.0522,0 -0.0956,0.04347 -0.0956,0.07825 v 1.034569 c 0,0.04347 0.0435,0.07825 0.0956,0.07825 z"
         id="path4670" /><path
         d="m 165.34615,49.959827 c 0,-0.365143 -0.2869,-0.660734 -0.65204,-0.660734 -0.36514,0 -0.65204,0.295591 -0.65204,0.660734 0,0.356448 0.2869,0.652039 0.65204,0.652039 0.36514,0 0.65204,-0.295591 0.65204,-0.652039 z m 2.6951,-0.02608 c 0,-1.730078 -1.12151,-3.46885 -3.33845,-3.46885 -2.25171,0 -3.35583,1.738772 -3.35583,3.46885 0,1.738772 1.10412,3.486238 3.35583,3.486238 2.21694,0 3.33845,-1.747466 3.33845,-3.486238 z m -1.30408,0.02608 c 0,1.121508 -0.68682,2.243016 -2.03437,2.243016 -1.36493,0 -2.04305,-1.121508 -2.04305,-2.243016 0,-1.138896 0.67812,-2.269098 2.04305,-2.269098 1.34755,0 2.03437,1.130202 2.03437,2.269098 z"
         id="path4672" /><path
         d="m 172.34472,52.141985 c -0.84331,0.03478 -2.63424,-0.05216 -2.63424,-2.199546 0,-1.651834 1.12151,-2.286485 2.63424,-2.208241 v 1.538814 h 1.33016 V 46.54314 c 0,-0.03478 -0.0348,-0.07825 -0.0956,-0.07825 h -1.13021 c -1.70399,0 -4.07742,0.391224 -4.07742,3.477544 0,2.9733 2.34735,3.477544 4.07742,3.477544 h 1.13021 c 0.0608,0 0.0956,-0.04347 0.0956,-0.07825 v -1.199753 z"
         id="path4674" /><path
         d="m 177.24806,52.124598 h -1.97351 v -1.564895 h 2.72988 c 0.0522,0 0.0956,-0.04347 0.0956,-0.07824 v -1.10412 c 0,-0.04347 -0.0435,-0.07825 -0.0956,-0.07825 h -2.72988 v -1.573588 h 1.97351 v -1.26061 h -3.20803 c -0.0522,0 -0.0956,0.04347 -0.0956,0.07825 v 6.798598 c 0,0.03478 0.0435,0.07825 0.0956,0.07825 h 3.20803 z"
         id="path4676" /><path
         d="m 183.05556,53.306963 c -0.43469,-0.965019 -0.90416,-1.921343 -1.33885,-2.90375 0.6955,-0.252121 1.27799,-0.808529 1.27799,-1.869179 0,-2.051751 -1.95612,-2.069139 -2.34734,-2.069139 h -2.25171 c -0.0435,0 -0.0869,0.04347 -0.0869,0.07825 v 1.182365 h 1.32147 1.01718 c 0.20865,0 1.02588,0.04347 1.02588,0.808529 0,0.765059 -0.73898,0.799835 -1.02588,0.799835 h -1.01718 -1.32147 v 4.007869 c 0,0.03478 0.0435,0.07825 0.0869,0.07825 h 1.1389 c 0.0522,0 0.0956,-0.04347 0.0956,-0.07825 v -2.729872 h 0.74767 l 1.2693,2.755954 c 0.009,0.02608 0.0609,0.05216 0.0869,0.05216 h 1.24322 c 0.0696,0 0.10433,-0.05216 0.0783,-0.11302 z"
         id="path4678" /><path
         d="m 188.76743,53.315657 -2.64293,-6.798599 c -0.0261,-0.06955 -0.1478,-0.06955 -0.17388,0 l -2.63424,6.798599 c -0.0261,0.05216 0.009,0.104326 0.0869,0.104326 h 1.19106 c 0.0348,0 0.0782,-0.01739 0.0869,-0.05216 l 1.35624,-3.877462 1.37363,3.877462 c 0.009,0.03477 0.0522,0.05216 0.0782,0.05216 h 1.19975 c 0.0609,0 0.10433,-0.05216 0.0782,-0.104326 z"
         id="path4680" /></g></g></svg>
