<?xml version="1.0" encoding="UTF-8" standalone="no"?>
<!-- Created with Inkscape (http://www.inkscape.org/) -->

<svg
   version="1.1"
   id="svg1"
   width="2000"
   height="2000"
   viewBox="0 0 2000 2000"
   sodipodi:docname="bennugd.svg"
   inkscape:version="1.4.2 (f4327f4, 2025-05-13)"
   xmlns:inkscape="http://www.inkscape.org/namespaces/inkscape"
   xmlns:sodipodi="http://sodipodi.sourceforge.net/DTD/sodipodi-0.dtd"
   xmlns="http://www.w3.org/2000/svg"
   xmlns:svg="http://www.w3.org/2000/svg">
  <defs
     id="defs1" />
  <sodipodi:namedview
     id="namedview1"
     pagecolor="#ffffff"
     bordercolor="#000000"
     borderopacity="0"
     inkscape:showpageshadow="2"
     inkscape:pageopacity="0.0"
     inkscape:pagecheckerboard="true"
     inkscape:deskcolor="#d1d1d1"
     showgrid="false"
     inkscape:zoom="0.4035"
     inkscape:cx="1019.8265"
     inkscape:cy="957.86865"
     inkscape:window-width="1920"
     inkscape:window-height="1009"
     inkscape:window-x="-8"
     inkscape:window-y="-8"
     inkscape:window-maximized="1"
     inkscape:current-layer="g1"
     inkscape:lockguides="false" />
  <g
     inkscape:groupmode="layer"
     inkscape:label="Image"
     id="g1"
     style="display:inline">
    <g
       id="g13"
       style="display:inline"
       inkscape:label="groupe">
      <ellipse
         style="display:inline;fill:#ffffff;fill-opacity:1;stroke:none;stroke-width:0.987644;stroke-opacity:1"
         id="path15"
         cx="1002.4782"
         cy="1003.7173"
         rx="938.04211"
         ry="939.28131" />
      <path
         style="display:inline;fill:#6b4fb6;fill-opacity:1;stroke:none;stroke-opacity:1"
         d="m 194.52008,1328.3443 385.5353,-385.53526 634.38082,630.87596 324.2001,-329.4575 208.5396,206.7872 c 0,0 242.2718,-360.0049 54.6573,-794.03428 -239.3847,-553.79529 -780.1646,-529.0528 -780.1646,-529.0528 0,0 -468.52852,-39.429917 -764.31012,423.48848 -240.458637,376.33419 -62.8384,776.9282 -62.8384,776.9282 z"
         id="path10"
         sodipodi:nodetypes="cccccscsc"
         inkscape:label="intBlue" />
      <path
         style="display:inline;fill:#e38d2c;fill-opacity:1;stroke:none;stroke-opacity:1"
         d="m 173.38458,1442.6155 409.29945,-409.5561 629.12347,631.7521 331.2099,-331.2099 215.3989,224.0108 c 0,0 -119.0219,184.6181 -373.9772,302.8107 -226.0785,104.8058 -465.75715,78.3435 -465.75715,78.3435 0,0 -211.45285,-8.5137 -437.00246,-156.6741 -210.87711,-138.5223 -308.29491,-339.477 -308.29491,-339.477 z"
         id="path11"
         sodipodi:nodetypes="cccccscsc"
         inkscape:label="intYellow" />
      <path
         id="path14"
         style="display:inline;fill:#4d0d6a;fill-opacity:1;stroke:none;stroke-width:0.968852"
         inkscape:label="extRed"
         d="M 1000 0 C 734.78351 0 480.42896 105.3562 292.89258 292.89258 C 105.3562 480.42896 3.7895613e-14 734.78351 0 1000 C 0 1265.2165 105.3562 1519.571 292.89258 1707.1074 C 480.42896 1894.6438 734.78351 2000 1000 2000 C 1265.2165 2000 1519.571 1894.6438 1707.1074 1707.1074 C 1894.6438 1519.571 2000 1265.2165 2000 1000 C 2000 734.78351 1894.6438 480.42896 1707.1074 292.89258 C 1519.571 105.3562 1265.2165 3.7895613e-14 1000 0 z M 1002.0664 62.828125 C 1250.7301 62.827814 1489.2091 161.73863 1665.041 337.80273 C 1840.8729 513.86683 1939.6544 752.66194 1939.6543 1001.6543 C 1939.6544 1250.6467 1840.8729 1489.4418 1665.041 1665.5059 C 1489.2091 1841.57 1250.7301 1940.4808 1002.0664 1940.4805 C 974.92846 1940.4804 947.91113 1939.3025 921.08398 1936.9746 C 920.58098 1934.8239 918.72994 1924.1825 917.48242 1919.5 C 909.8607 1890.8919 907.65096 1882.8053 903.02148 1866.5723 C 888.19015 1814.5672 880.0263 1760.9258 880.0293 1715.5 C 880.03124 1688.7896 884.12346 1643.8527 888.9082 1618 C 897.21615 1573.111 906.82818 1542.3947 921.10938 1515.0957 C 931.56133 1495.1165 940.28451 1482.677 957.99219 1462.5 C 963.78446 1455.9 972.80819 1445.325 978.04492 1439 C 1009.6374 1400.8421 1018.974 1389.6087 1025.4219 1382 C 1049.4389 1353.6592 1078.9055 1312.2804 1088.7266 1293.1016 C 1099.6822 1271.7076 1105.6873 1253.7483 1109.5742 1230.7559 C 1110.945 1222.6468 1112.9119 1214.0365 1113.9473 1211.6211 C 1115.6576 1207.6311 1122.5472 1196.3414 1140.1992 1168.5957 C 1143.665 1163.1482 1149.65 1153.5928 1153.5 1147.3613 C 1160.5844 1135.8949 1178.5159 1107.3661 1191.7012 1086.5859 C 1208.8291 1059.592 1225.6893 1025.6027 1238.8672 991.5 C 1258.9074 939.63881 1270.519 891.10369 1278.459 826 C 1284.4947 776.51104 1282.1112 729.99899 1269.5195 651.5 C 1267.6668 639.95 1265.1863 624.2 1264.0059 616.5 C 1253.7548 549.62533 1235.9614 508.94409 1201.0742 472.61133 C 1186.8219 457.76844 1184.9844 455.24089 1178.084 441.00586 C 1170.2312 424.80605 1168.652 418.14558 1169.2559 403.75 C 1169.8396 389.83679 1172.5877 381.08159 1181.1543 365.84961 C 1189.6139 350.80773 1199.667 341.8965 1213.9824 336.74805 C 1221.9585 333.8795 1238.805 333.33598 1256.9375 335.36133 C 1264.9472 336.25599 1284.1 337.45414 1299.5 338.02344 C 1314.9 338.59274 1338.75 339.52376 1352.5 340.09375 C 1376.1166 341.07276 1425.3013 340.72356 1449.4902 339.4043 C 1463.455 338.64267 1482.4424 341.00974 1530.5 349.50781 C 1538.75 350.96667 1549.325 352.75691 1554 353.48438 C 1561.7053 354.68338 1583.2533 358.24414 1600 361.08594 C 1603.575 361.69259 1610.325 363.01676 1615 364.0293 C 1619.675 365.04184 1628.45 366.80752 1634.5 367.95312 C 1640.55 369.09873 1649.6633 370.96605 1654.752 372.10156 C 1659.8407 373.23706 1664.5272 373.99028 1665.166 373.77734 C 1667.1325 373.12185 1624.8148 348.16704 1609.252 340.80469 C 1582.152 327.98438 1540.2176 313.08588 1508.4199 304.98047 C 1424.7672 283.65692 1391.2931 271.7611 1350 248.68359 C 1340.3779 243.30607 1319.7164 229.51702 1313.4062 224.26172 C 1295.4648 209.31959 1272.8485 199.13396 1248.3145 194.94531 C 1237.4108 193.08373 1233.1152 192.84044 1219.5 193.31055 C 1201.2047 193.94225 1192.4148 195.49933 1175.5391 201.10156 C 1153.6936 208.35368 1137.6155 217.25538 1124 229.63672 C 1114.3115 238.44699 1108.8327 244.54056 1093.3633 263.70898 C 1086.4436 272.2833 1073.5119 293.27488 1067.002 306.5 C 1052.2198 336.53074 1046.1278 364.67552 1047.3105 397.48633 C 1048.2682 424.05193 1050.9206 434.92271 1069.5137 488.5 C 1074.858 503.9 1083.7207 529.55 1089.207 545.5 C 1103.6095 587.37201 1106.4518 595.5022 1110.0098 605 C 1123.6154 641.31925 1129.9465 679.75809 1127.0742 708.60742 C 1123.1561 747.95965 1111.7174 783.20953 1094.4531 809.14258 C 1085.9995 821.8408 1080.363 827.88369 1067.8301 837.67969 C 1050.5632 851.17581 1033.1367 858.83341 1004.5957 865.46289 C 980.121 871.14784 966.45208 876.17301 942.72852 888.20898 C 930.91785 894.20104 900.62418 913.85746 881 928.26172 C 842.3878 956.60328 813.88249 975.89219 797 985.10352 C 783.41663 992.51481 754.06235 1011.9915 741.90234 1021.6621 C 718.36256 1040.3827 690.1718 1066.6279 668.4375 1090.0547 C 664.07235 1094.7597 655.90664 1103.5537 650.29297 1109.5957 C 644.6793 1115.6377 638.73932 1122.3631 637.0918 1124.541 C 635.44427 1126.719 629.79914 1133.675 624.54883 1140 C 601.6663 1167.5664 568.80564 1216.1219 548.07227 1253 C 538.50499 1270.0171 516.70479 1315.799 509.50195 1334 C 489.33096 1384.9706 480.00275 1417.1959 468.40625 1475.9707 C 465.31675 1491.6293 461.44086 1508.2793 459.79297 1512.9707 C 455.16961 1526.133 447.07808 1539.5137 436.67578 1551.1992 C 417.94332 1572.2424 402.03312 1594.4768 394.85938 1609.6387 C 389.97217 1619.968 388.10486 1630.6139 389.85352 1638.1895 C 392.10063 1647.9245 400.34354 1659.9395 409.83398 1667.3125 C 411.27953 1668.4355 411.93633 1669.7239 411.56055 1670.7031 C 411.22716 1671.5719 410.66521 1679.2763 410.3125 1687.8242 L 409.67188 1703.3652 L 413.58594 1701.002 C 419.82026 1697.2354 426.11574 1692.9066 431.43164 1688.7305 C 441.40907 1680.8923 448.3055 1679.0925 453.30273 1683.0234 C 454.71713 1684.1359 459.04947 1689.2908 462.93164 1694.4785 C 473.13206 1708.1093 481.03917 1712.1658 490.41797 1708.584 C 500.98394 1704.5488 524.32699 1676.6629 529.56445 1661.8184 C 531.79119 1655.5071 540.55533 1639.4132 545.53125 1632.5 C 553.74152 1621.0933 564.38486 1611.3024 579.42773 1601.3164 C 605.16763 1584.2293 616.98773 1580.8095 637.5 1584.5156 C 648.29117 1586.4653 666.58047 1586.4221 674.26953 1584.4297 C 677.6013 1583.5663 683.30037 1581.3629 686.93359 1579.5332 C 694.11909 1575.9146 714.20133 1562.6227 728.5 1552.0215 C 742.31913 1541.776 746.31777 1539 747.25586 1539 C 747.72996 1539 747.91025 1539.3375 747.65625 1539.75 C 747.40225 1540.1625 746.01347 1549.95 744.57031 1561.5 C 735.50976 1634.0141 732.94048 1652.1465 728.86133 1672.3223 C 725.13912 1690.7327 719.06309 1714.8718 714.3457 1730 C 708.05255 1750.1814 708.07356 1749.8872 708.03516 1822.75 C 708.01675 1857.6936 707.32227 1889.9893 707.27734 1892.8691 C 569.80033 1847.2715 443.42008 1769.9682 339.09375 1665.5039 C 163.26229 1489.4398 64.480382 1250.6463 64.480469 1001.6543 C 64.480388 752.66228 163.2623 513.86873 339.09375 337.80469 C 514.92521 161.74064 753.40303 62.828337 1002.0664 62.828125 z M 863.10352 1499.584 C 865.76638 1499.5235 865.96501 1501.0561 866 1504.5 C 866.01678 1506.15 866.92398 1512.4142 868.01562 1518.4199 C 870.19443 1530.4066 870.53818 1539.6356 869.00586 1544.9785 C 868.45915 1546.8847 866.62195 1555.2076 864.92383 1563.4727 C 861.97762 1577.8127 845.53094 1645.1372 836.94531 1678 C 831.59711 1698.471 828.00886 1720.1459 828.00586 1732 C 828.00118 1749.4217 831.92311 1766.4772 839.96484 1784 C 851.31971 1808.742 859.99774 1847.4378 882.67578 1932.8418 C 833.90427 1926.573 785.87786 1916.4929 739.01562 1902.7754 C 739.28542 1900.4334 742.88585 1869.2037 744.00195 1861 C 745.16176 1852.475 747.847 1834.7 749.96875 1821.5 C 756.83699 1778.7706 757.24561 1775.6419 757.28711 1765.4629 C 757.31425 1758.8005 756.79913 1753.9245 755.75586 1750.9629 C 751.16684 1737.9356 749.58547 1727.8167 749.66797 1712 C 749.75529 1695.2561 751.46275 1682.5372 757.51758 1653.5 C 761.60404 1633.9026 764.6312 1613.5746 765.93164 1597 C 767.36048 1578.789 771.22872 1566.982 780.07422 1553.832 C 789.34382 1540.0516 801.03157 1528.8413 817.51172 1517.9277 C 828.90036 1510.3858 836.74846 1506.798 851.33398 1502.4648 C 857.47126 1500.6415 861.0324 1499.631 863.10352 1499.584 z " />
    </g>
  </g>
</svg>
