<?xml version="1.0" encoding="UTF-8" standalone="no"?>
<!-- Created by ERK -->

<svg
   width="800mm"
   height="280mm"
   viewBox="0 0 800 280"
   version="1.1"
   id="svg1"
   inkscape:version="1.4 (86a8ad7, 2024-10-11)"
   xml:space="preserve"
   sodipodi:docname="bk001001.svg"
   xmlns:inkscape="http://www.inkscape.org/namespaces/inkscape"
   xmlns:sodipodi="http://sodipodi.sourceforge.net/DTD/sodipodi-0.dtd"
   xmlns="http://www.w3.org/2000/svg"
   xmlns:svg="http://www.w3.org/2000/svg"><sodipodi:namedview
     id="namedview1"
     pagecolor="#ffffff"
     bordercolor="#000000"
     borderopacity="0.25"
     inkscape:showpageshadow="2"
     inkscape:pageopacity="0.0"
     inkscape:pagecheckerboard="true"
     inkscape:deskcolor="#d1d1d1"
     inkscape:document-units="mm"
     inkscape:zoom="0.38502999"
     inkscape:cx="1350.5441"
     inkscape:cy="437.62825"
     inkscape:window-width="3840"
     inkscape:window-height="2066"
     inkscape:window-x="-11"
     inkscape:window-y="-11"
     inkscape:window-maximized="1"
     inkscape:current-layer="g26" /><defs
     id="defs1"><marker
       id="DistanceX"
       orient="auto"
       refX="0"
       refY="0"
       style="overflow:visible"><path
         d="M 3,-3 -3,3 M 0,-5 V 5"
         style="stroke:#000000;stroke-width:0.5"
         id="path1" /></marker><pattern
       id="Hatch"
       patternUnits="userSpaceOnUse"
       width="8"
       height="8"
       x="0"
       y="0"><path
         d="M8 4 l-4,4"
         stroke="#000000"
         stroke-width="0.25"
         linecap="square"
         id="path2" /><path
         d="M6 2 l-4,4"
         stroke="#000000"
         stroke-width="0.25"
         linecap="square"
         id="path3" /><path
         d="M4 0 l-4,4"
         stroke="#000000"
         stroke-width="0.25"
         linecap="square"
         id="path4" /></pattern><symbol
       id="*Model_Space" /><symbol
       id="*Paper_Space" /><symbol
       id="*Paper_Space0" /></defs><g
     id="g26"
     inkscape:label="LogoShadow"
     transform="translate(16.277677,14.777677)"
     style="fill:#808080"><g
       id="g15"
       inkscape:label="ЭЛEKTPOHИKА"
       style="fill:#808080"><path
         id="path5"
         style="fill:#808080;fill-opacity:1;stroke:none;stroke-width:1;stroke-linecap:round;stroke-dasharray:none;stroke-opacity:1"
         d="m 95.972315,13.972408 h 9.000065 l 2e-5,-0.999994 c 2e-5,-1.932997 1.56702,-3.5000002 3.49996,-3.4999935 h 17 c 1.93306,-6.7e-6 3.50006,1.5669965 3.50008,3.4999935 l 3e-5,5.5 h -18.53935 v 9.000093 h 18.53935 l -3e-5,5.4999 c -2e-5,1.933003 -1.56702,3.500005 -3.50008,3.499953 h -17 c -1.93294,5.2e-5 -3.49994,-1.56695 -3.49996,-3.499953 l -2e-5,-0.999866 h -9.000065 l 5.2e-5,4.49982 c 5e-5,4.970615 4.029493,9.000053 9.000033,9.000033 l 24.00004,10e-7 c 4.97054,1.8e-5 8.99998,-4.02942 9.00004,-9.000034 V 9.4724205 c -6e-5,-4.9705693 -4.0295,-9.00000652 -9.00004,-9.00000673 H 104.9724 c -4.97054,-8.9e-7 -8.999982,4.02943663 -9.000033,9.00000683 z"
         sodipodi:nodetypes="ccccccccccccccccccccccccc"
         inkscape:label="Э" /><path
         id="path6"
         style="fill:#808080;fill-opacity:1;stroke:none;stroke-width:1;stroke-linecap:round;stroke-dasharray:none;stroke-opacity:1"
         d="m 188.9723,45.472376 h -8.99981 V 9.4724272 h -18.00013 l 3e-5,26.9999338 c 3e-5,4.970614 -4.02941,9.000052 -9.00003,9.000034 l -4.9999,-1.9e-5 v -9.000067 l 1.49994,5.2e-5 c 1.93302,5.1e-5 3.50002,-1.566951 3.49996,-3.499953 V 9.4724205 c 6e-5,-3.6894367 0.95914,-9.00000646 4.50002,-9.00000673 l 31.49992,-2.6e-7 V 45.472376"
         sodipodi:nodetypes="cccccccccccccc"
         inkscape:label="Л" /><path
         d="m 207.97232,0.47232259 c -4.9705,2e-7 -9,4.02939801 -8.99997,8.99996741 v 26.999902 c -3e-5,4.970614 4.02947,8.999986 8.99997,8.999968 h 24.00008 c 4.97058,1.8e-5 8.99995,-4.029354 8.99997,-8.999968 v -4.499467 h -8.99997 v 0.999939 c 2e-5,1.933002 -1.56707,3.499579 -3.50004,3.499528 h -17 c -1.93302,5.1e-5 -3.49998,-1.566526 -3.50004,-3.499528 v -5.499922 l 24.00008,-5.17e-4 c 4.97058,-4.6e-5 8.99997,-4.029388 8.99997,-13.499951 0,-9.470563 -4.02939,-13.49995121 -8.99997,-13.49995141 z M 211.47236,9.47229 h 17 c 1.93297,-6.8e-6 3.50006,1.567047 3.50004,3.500045 v 1.999878 c 4e-5,1.932984 -1.56707,3.500044 -3.50004,3.500044 h -20.50004 v -5.499922 c 6e-5,-1.932998 1.56702,-3.5000518 3.50004,-3.500045 z"
         style="fill:#808080;fill-opacity:1;stroke:none;stroke-width:1;stroke-linecap:round;stroke-dasharray:none;stroke-opacity:1"
         id="path7"
         inkscape:label="E" /><path
         d="M 250.97228,0.47232259 V 45.47216 h 8.99945 V 29.001847 l 6.9081,-5.797062 16.0073,22.267375 h 11.08614 L 273.79362,17.403589 293.97327,0.47232259 H 279.97154 L 259.97173,17.25321 V 0.47232259 Z"
         style="fill:#808080;fill-opacity:1;stroke:none;stroke-width:1;stroke-linecap:round;stroke-dasharray:none;stroke-opacity:1"
         id="path8"
         inkscape:label="K" /><path
         d="M 303.97163,0.47232259 V 9.47229 h 16.49976 v 35.99987 h 9.00101 V 9.47229 h 16.49925 V 0.47232259 Z"
         style="fill:#808080;fill-opacity:1;stroke:none;stroke-width:1;stroke-linecap:round;stroke-dasharray:none;stroke-opacity:1"
         id="path9"
         inkscape:label="T" /><path
         id="path10"
         style="fill:#808080;fill-opacity:1;stroke:none;stroke-width:1;stroke-linecap:round;stroke-dasharray:none;stroke-opacity:1"
         d="m 372.88028,0.47241377 h 18.092 c 4.9707,-5.31e-6 9.00014,4.02943353 9.00057,9.00000673 V 36.472361 c -4.3e-4,4.970618 -4.02987,9.000058 -9.00057,9.000034 h -18.092 c -2.56073,2.3e-5 -5.0005,-1.091075 -6.70771,-2.999923 l -0.2009,5.8e-5 v 11.942762 h -8.99848 V 0.47241351 h 8.99848 V 3.4724181 l 0.2009,-2.1e-6 c 1.70721,-1.9089086 4.14698,-3.00000661 6.70771,-3.00000223 z M 387.47207,36.47236 c 1.93334,4.7e-5 3.50034,-1.566954 3.50021,-3.499952 V 12.972415 c 1.3e-4,-1.932994 -1.56687,-3.4999957 -3.50021,-3.4999944 l -17.99965,-6.7e-6 c -1.933,-5.6e-6 -3.50001,1.5669991 -3.50038,3.5000011 v 19.999993 c 3.7e-4,1.933006 1.56738,3.50001 3.50022,3.499952 z"
         sodipodi:nodetypes="cccccccccccccccccccccccc"
         inkscape:label="P" /><path
         d="m 418.97288,0.47232259 c -4.97086,-1.083e-5 -9.00022,4.02939031 -9.00049,8.99996741 v 26.999902 c 2.7e-4,4.970623 4.02963,8.999997 9.00049,8.999968 h 25.00002 c 4.97003,1.3e-5 8.99968,-4.029357 8.99945,-8.999968 V 9.47229 c 2.3e-4,-4.9705654 -4.02942,-8.99996168 -8.99945,-8.99996741 z M 422.47292,9.47229 h 17.99994 c 1.93266,4.3e-6 3.49954,1.567055 3.50004,3.500045 v 20.000329 c -5e-4,1.933011 -1.56736,3.499591 -3.50004,3.499528 h -17.99994 c -1.93349,4.1e-5 -3.50033,-1.566533 -3.50004,-3.499528 V 12.972335 c -2.9e-4,-1.93299 1.56653,-3.5000407 3.50004,-3.500045 z"
         style="fill:#808080;fill-opacity:1;stroke:none;stroke-width:1;stroke-linecap:round;stroke-dasharray:none;stroke-opacity:1"
         id="path11"
         inkscape:label="O" /><path
         d="M 462.97329,0.47232259 V 45.47216 h 8.99842 V 27.472742 h 24.00008 V 45.47216 h 9.00152 V 0.47232259 h -9.00152 V 18.472257 H 471.97171 V 0.47232259 Z"
         style="fill:#808080;fill-opacity:1;stroke:none;stroke-width:1;stroke-linecap:round;stroke-dasharray:none;stroke-opacity:1"
         id="path12"
         inkscape:label="H" /><path
         d="M 514.97167,0.47232259 V 45.47216 h 9.001 L 548.97321,14.735535 V 45.47216 h 8.99842 V 0.47232259 h -8.99842 L 523.97267,31.209465 V 0.47232259 Z"
         style="fill:#808080;fill-opacity:1;stroke:none;stroke-width:1;stroke-linecap:round;stroke-dasharray:none;stroke-opacity:1"
         id="path13"
         inkscape:label="И" /><path
         d="M 567.97308,0.47232259 V 45.47216 h 8.99842 V 29.001847 l 6.90811,-5.797062 16.00729,22.267375 h 11.08614 L 590.79598,17.403589 610.97304,0.47232259 H 596.97131 L 576.9715,17.25321 V 0.47232259 Z"
         style="fill:#808080;fill-opacity:1;stroke:none;stroke-width:1;stroke-linecap:round;stroke-dasharray:none;stroke-opacity:1"
         id="path14"
         inkscape:label="K" /><path
         d="m 628.97246,0.47232259 c -4.97075,-1.083e-5 -9.00011,4.02939031 -9.00048,8.99996741 l -5.2e-4,4.499984 h 9.00152 l -5.2e-4,-0.999939 c -1.8e-4,-1.93299 1.56716,-3.5000407 3.50056,-3.500045 h 17.99942 c 1.93279,-1.22e-5 3.50014,1.567044 3.50056,3.500045 l 5.2e-4,5.499922 h -25.00106 c -4.97076,-1.1e-5 -9.00011,4.029351 -9.00048,8.999968 v 8.999967 c 3.7e-4,4.970623 4.02972,8.999997 9.00048,8.999968 h 18.09192 c 2.56067,2.3e-5 5.00086,-1.090969 6.70812,-2.999817 h 0.20102 v 2.999817 h 8.99842 V 9.47229 c 3.3e-4,-4.9705654 -4.0288,-8.99996168 -8.99894,-8.99996741 z m 3.50056,26.99990241 21.5005,5.17e-4 -5.2e-4,5.499922 c -4.2e-4,1.933007 -1.56777,3.499586 -3.50056,3.499528 h -17.99942 c -1.9334,4.1e-5 -3.50074,-1.566533 -3.50056,-3.499528 V 30.97227 c -1.8e-4,-1.93299 1.56716,-3.50008 3.50056,-3.500045 z"
         style="fill:#808080;fill-opacity:1;stroke:none;stroke-width:1;stroke-linecap:round;stroke-dasharray:none;stroke-opacity:1"
         id="path15"
         inkscape:label="А" /></g><path
       d="m 0.47232259,104.47218 v 9.50019 H 770.97206 v -9.50019 z"
       style="fill:#808080;fill-opacity:1;stroke:none;stroke-width:1;stroke-linecap:round;stroke-dasharray:none;stroke-opacity:1"
       id="path16"
       inkscape:label="Line" /><g
       id="g25"
       inkscape:label="БК 0010-01 "
       style="fill:#808080"><path
         d="m 26.972514,177.9726 v 76.00001 h 59.999955 c 7.071066,0 15.000121,-7.92905 15.000121,-15.00012 v -14.00018 c 0,-7.07107 -7.929055,-15.00011 -15.000121,-15.00011 H 42.972054 V 193.97266 H 93.972559 V 177.9726 Z m 15.99954,47.99965 h 38.000265 c 2.357022,0 5.000211,2.6432 5.000211,5.00022 v 1.99987 c 0,2.35702 -2.643189,5.00021 -5.000211,5.00021 H 42.972054 Z"
         style="display:inline;fill:#808080;fill-opacity:1;stroke:none;stroke-width:1;stroke-linecap:round;stroke-dasharray:none;stroke-opacity:1"
         id="path17"
         inkscape:label="Б" /><path
         d="m 113.97237,177.9726 v 76.00001 h 16.00006 v -25.38295 l 13.73249,-11.52332 26.81335,36.90627 h 19.77709 L 155.991,206.75689 190.29536,177.9726 h -24.8915 l -35.43143,29.72997 V 177.9726 Z"
         style="display:inline;fill:#808080;fill-opacity:1;stroke:none;stroke-width:1;stroke-linecap:round;stroke-dasharray:none;stroke-opacity:1"
         id="path18"
         inkscape:label="К" /><path
         d="m 257.75739,177.9726 c -9.42784,-6e-5 -19.99976,10.57173 -19.99981,19.99981 v 35.99987 c 5e-5,9.4281 10.57197,20.00028 19.99981,20.00033 h 38.99969 c 9.42855,-5e-5 20.00034,-10.57223 19.99981,-20.00033 v -35.99987 c 5.3e-4,-9.42808 -10.57126,-19.99987 -19.99981,-19.99981 z m 6.00015,16.00006 h 27.00042 c 4.71357,-1e-5 9.9996,5.2859 9.99939,9.9999 v 24.00009 c 4.2e-4,4.71402 -5.28582,9.99993 -9.99939,9.9999 h -27.00042 c -4.71417,3e-5 -9.99993,-5.28587 -9.9999,-9.9999 v -24.00009 c -3e-5,-4.714 5.28573,-9.99991 9.9999,-9.9999 z"
         style="display:inline;fill:#808080;fill-opacity:1;stroke:none;stroke-width:1;stroke-linecap:round;stroke-dasharray:none;stroke-opacity:1"
         id="path19"
         inkscape:label="0" /><path
         d="m 348.75752,177.9726 c -9.42822,-6e-5 -20.00003,10.57173 -19.99981,19.99981 v 35.99987 c -2.2e-4,9.4281 10.57159,20.00028 19.99981,20.00033 h 39.00021 c 9.42815,-5e-5 19.99995,-10.57223 19.99981,-20.00033 v -35.99987 c 1.4e-4,-9.42808 -10.57166,-19.99987 -19.99981,-19.99981 z m 6.00067,16.00006 h 26.99887 c 4.71448,0 10.00076,5.28589 10.00094,9.9999 v 24.00009 c -1.8e-4,4.71403 -5.28646,9.99993 -10.00094,9.9999 h -26.99887 c -4.71457,3e-5 -10.00083,-5.28587 -10.00094,-9.9999 v -24.00009 c 1.1e-4,-4.71401 5.28637,-9.9999 10.00094,-9.9999 z"
         style="fill:#808080;fill-opacity:1;stroke:none;stroke-width:1;stroke-linecap:round;stroke-dasharray:none;stroke-opacity:1"
         id="path20"
         inkscape:label="0" /><path
         d="m 429.11438,177.9726 -8.35815,7.39645 v 20.82973 l 8.35815,-7.39696 v 55.17079 h 15.99954 V 177.9726 Z"
         style="display:inline;fill:#808080;fill-opacity:1;stroke:none;stroke-width:1;stroke-linecap:round;stroke-dasharray:none;stroke-opacity:1"
         id="path21"
         inkscape:label="1" /><path
         d="m 478.115,177.9726 c -9.42824,-6e-5 -20.00004,10.57173 -19.99981,19.99981 v 35.99987 c -2.3e-4,9.4281 10.57157,20.00028 19.99981,20.00033 h 38.99969 c 9.42813,-5e-5 20.00044,-10.57223 20.00033,-20.00033 v -35.99987 c 1.1e-4,-9.42808 -10.5722,-19.99987 -20.00033,-19.99981 z m 6.00067,16.00006 h 26.99887 c 4.71447,-1e-5 10.00023,5.2859 10.00042,9.9999 v 24.00009 c -1.9e-4,4.71403 -5.28595,9.99993 -10.00042,9.9999 h -26.99887 c -4.71458,3e-5 -10.00085,-5.28587 -10.00094,-9.9999 v -24.00009 c 9e-5,-4.714 5.28636,-9.99991 10.00094,-9.9999 z"
         style="fill:#808080;fill-opacity:1;stroke:none;stroke-width:1;stroke-linecap:round;stroke-dasharray:none;stroke-opacity:1"
         id="path22"
         inkscape:label="0" /><path
         d="m 549.11635,209.9722 v 16.00005 H 611.6159 V 209.9722 Z"
         style="display:inline;fill:#808080;fill-opacity:1;stroke:none;stroke-width:1;stroke-linecap:round;stroke-dasharray:none;stroke-opacity:1"
         id="path23"
         inkscape:label="-" /><path
         id="path24"
         style="fill:#808080;fill-opacity:1;stroke:none;stroke-width:1;stroke-linecap:round;stroke-dasharray:none;stroke-opacity:1"
         d="m 643.61491,177.97247 c -9.42801,-6e-5 -19.99991,10.57185 -19.99992,19.99993 v 36 c 10e-6,9.4281 10.57191,20.00001 19.99992,20.00006 h 38.99979 c 9.42838,-5e-5 20.00031,-10.57196 19.99994,-20.00006 v -36 c 3.7e-4,-9.42808 -10.57156,-19.99999 -19.99994,-19.99993 z m 43.00004,25.99991 v 24.00004 c 4e-5,4.71403 -5.28591,9.99999 -9.9993,9.99996 h -27.00036 c -4.71435,3e-5 -10.0003,-5.28593 -10.00063,-9.99996 v -24.00004 c 3.3e-4,-4.71401 5.28628,-9.99997 10.00063,-9.99997 h 27.00036 c 4.71339,0 9.99934,5.28596 9.9993,9.99997 z"
         sodipodi:nodetypes="cccccccccccccccccc"
         inkscape:label="0" /><path
         d="m 723.97131,177.9726 -8.35556,7.39645 v 20.82973 l 8.35556,-7.39696 v 55.17079 h 16.00213 V 177.9726 Z"
         style="display:inline;fill:#808080;fill-opacity:1;stroke:none;stroke-width:1;stroke-linecap:round;stroke-dasharray:none;stroke-opacity:1"
         id="path25"
         inkscape:label="1" /></g></g><g
     id="g324"
     inkscape:label="Logo"
     transform="translate(14.277809,12.777534)"><g
       id="g322"
       inkscape:label="ЭЛEKTPOHИKА"><path
         id="path28"
         style="fill:#000000;fill-opacity:1;stroke:none;stroke-width:1;stroke-linecap:round;stroke-dasharray:none;stroke-opacity:1"
         d="m 95.972315,13.972408 h 9.000065 l 2e-5,-0.999994 c 2e-5,-1.932997 1.56702,-3.5000002 3.49996,-3.4999935 h 17 c 1.93306,-6.7e-6 3.50006,1.5669965 3.50008,3.4999935 l 3e-5,5.5 h -18.53935 v 9.000093 h 18.53935 l -3e-5,5.4999 c -2e-5,1.933003 -1.56702,3.500005 -3.50008,3.499953 h -17 c -1.93294,5.2e-5 -3.49994,-1.56695 -3.49996,-3.499953 l -2e-5,-0.999866 h -9.000065 l 5.2e-5,4.49982 c 5e-5,4.970615 4.029493,9.000053 9.000033,9.000033 l 24.00004,10e-7 c 4.97054,1.8e-5 8.99998,-4.02942 9.00004,-9.000034 V 9.4724205 c -6e-5,-4.9705693 -4.0295,-9.00000652 -9.00004,-9.00000673 H 104.9724 c -4.97054,-8.9e-7 -8.999982,4.02943663 -9.000033,9.00000683 z"
         sodipodi:nodetypes="ccccccccccccccccccccccccc"
         inkscape:label="Э" /><path
         id="path41"
         style="fill:#000000;fill-opacity:1;stroke:none;stroke-width:1;stroke-linecap:round;stroke-dasharray:none;stroke-opacity:1"
         d="m 188.9723,45.472376 h -8.99981 V 9.4724272 h -18.00013 l 3e-5,26.9999338 c 3e-5,4.970614 -4.02941,9.000052 -9.00003,9.000034 l -4.9999,-1.9e-5 v -9.000067 l 1.49994,5.2e-5 c 1.93302,5.1e-5 3.50002,-1.566951 3.49996,-3.499953 V 9.4724205 c 6e-5,-3.6894367 0.95914,-9.00000646 4.50002,-9.00000673 l 31.49992,-2.6e-7 V 45.472376"
         sodipodi:nodetypes="cccccccccccccc"
         inkscape:label="Л" /><path
         d="m 207.97232,0.47232259 c -4.9705,2e-7 -9,4.02939801 -8.99997,8.99996741 v 26.999902 c -3e-5,4.970614 4.02947,8.999986 8.99997,8.999968 h 24.00008 c 4.97058,1.8e-5 8.99995,-4.029354 8.99997,-8.999968 v -4.499467 h -8.99997 v 0.999939 c 2e-5,1.933002 -1.56707,3.499579 -3.50004,3.499528 h -17 c -1.93302,5.1e-5 -3.49998,-1.566526 -3.50004,-3.499528 v -5.499922 l 24.00008,-5.17e-4 c 4.97058,-4.6e-5 8.99997,-4.029388 8.99997,-13.499951 0,-9.470563 -4.02939,-13.49995121 -8.99997,-13.49995141 z M 211.47236,9.47229 h 17 c 1.93297,-6.8e-6 3.50006,1.567047 3.50004,3.500045 v 1.999878 c 4e-5,1.932984 -1.56707,3.500044 -3.50004,3.500044 h -20.50004 v -5.499922 c 6e-5,-1.932998 1.56702,-3.5000518 3.50004,-3.500045 z"
         style="fill:#000000;fill-opacity:1;stroke:none;stroke-width:1;stroke-linecap:round;stroke-dasharray:none;stroke-opacity:1"
         id="path321"
         inkscape:label="E" /><path
         d="M 250.97228,0.47232259 V 45.47216 h 8.99945 V 29.001847 l 6.9081,-5.797062 16.0073,22.267375 h 11.08614 L 273.79362,17.403589 293.97327,0.47232259 H 279.97154 L 259.97173,17.25321 V 0.47232259 Z"
         style="fill:#000000;fill-opacity:1;stroke:none;stroke-width:1;stroke-linecap:round;stroke-dasharray:none;stroke-opacity:1"
         id="path315"
         inkscape:label="K" /><path
         d="M 303.97163,0.47232259 V 9.47229 h 16.49976 v 35.99987 h 9.00101 V 9.47229 h 16.49925 V 0.47232259 Z"
         style="fill:#000000;fill-opacity:1;stroke:none;stroke-width:1;stroke-linecap:round;stroke-dasharray:none;stroke-opacity:1"
         id="path316"
         inkscape:label="T" /><path
         id="path107"
         style="fill:#000000;fill-opacity:1;stroke:none;stroke-width:1;stroke-linecap:round;stroke-dasharray:none;stroke-opacity:1"
         d="m 372.88028,0.47241377 h 18.092 c 4.9707,-5.31e-6 9.00014,4.02943353 9.00057,9.00000673 V 36.472361 c -4.3e-4,4.970618 -4.02987,9.000058 -9.00057,9.000034 h -18.092 c -2.56073,2.3e-5 -5.0005,-1.091075 -6.70771,-2.999923 l -0.2009,5.8e-5 v 11.942762 h -8.99848 V 0.47241351 h 8.99848 V 3.4724181 l 0.2009,-2.1e-6 c 1.70721,-1.9089086 4.14698,-3.00000661 6.70771,-3.00000223 z M 387.47207,36.47236 c 1.93334,4.7e-5 3.50034,-1.566954 3.50021,-3.499952 V 12.972415 c 1.3e-4,-1.932994 -1.56687,-3.4999957 -3.50021,-3.4999944 l -17.99965,-6.7e-6 c -1.933,-5.6e-6 -3.50001,1.5669991 -3.50038,3.5000011 v 19.999993 c 3.7e-4,1.933006 1.56738,3.50001 3.50022,3.499952 z"
         sodipodi:nodetypes="cccccccccccccccccccccccc"
         inkscape:label="P" /><path
         d="m 418.97288,0.47232259 c -4.97086,-1.083e-5 -9.00022,4.02939031 -9.00049,8.99996741 v 26.999902 c 2.7e-4,4.970623 4.02963,8.999997 9.00049,8.999968 h 25.00002 c 4.97003,1.3e-5 8.99968,-4.029357 8.99945,-8.999968 V 9.47229 c 2.3e-4,-4.9705654 -4.02942,-8.99996168 -8.99945,-8.99996741 z M 422.47292,9.47229 h 17.99994 c 1.93266,4.3e-6 3.49954,1.567055 3.50004,3.500045 v 20.000329 c -5e-4,1.933011 -1.56736,3.499591 -3.50004,3.499528 h -17.99994 c -1.93349,4.1e-5 -3.50033,-1.566533 -3.50004,-3.499528 V 12.972335 c -2.9e-4,-1.93299 1.56653,-3.5000407 3.50004,-3.500045 z"
         style="fill:#000000;fill-opacity:1;stroke:none;stroke-width:1;stroke-linecap:round;stroke-dasharray:none;stroke-opacity:1"
         id="path320"
         inkscape:label="O" /><path
         d="M 462.97329,0.47232259 V 45.47216 h 8.99842 V 27.472742 h 24.00008 V 45.47216 h 9.00152 V 0.47232259 h -9.00152 V 18.472257 H 471.97171 V 0.47232259 Z"
         style="fill:#000000;fill-opacity:1;stroke:none;stroke-width:1;stroke-linecap:round;stroke-dasharray:none;stroke-opacity:1"
         id="path317"
         inkscape:label="H" /><path
         d="M 514.97167,0.47232259 V 45.47216 h 9.001 L 548.97321,14.735535 V 45.47216 h 8.99842 V 0.47232259 h -8.99842 L 523.97267,31.209465 V 0.47232259 Z"
         style="fill:#000000;fill-opacity:1;stroke:none;stroke-width:1;stroke-linecap:round;stroke-dasharray:none;stroke-opacity:1"
         id="path318"
         inkscape:label="И" /><path
         d="M 567.97308,0.47232259 V 45.47216 h 8.99842 V 29.001847 l 6.90811,-5.797062 16.00729,22.267375 h 11.08614 L 590.79598,17.403589 610.97304,0.47232259 H 596.97131 L 576.9715,17.25321 V 0.47232259 Z"
         style="fill:#000000;fill-opacity:1;stroke:none;stroke-width:1;stroke-linecap:round;stroke-dasharray:none;stroke-opacity:1"
         id="path319"
         inkscape:label="K" /><path
         d="m 628.97246,0.47232259 c -4.97075,-1.083e-5 -9.00011,4.02939031 -9.00048,8.99996741 l -5.2e-4,4.499984 h 9.00152 l -5.2e-4,-0.999939 c -1.8e-4,-1.93299 1.56716,-3.5000407 3.50056,-3.500045 h 17.99942 c 1.93279,-1.22e-5 3.50014,1.567044 3.50056,3.500045 l 5.2e-4,5.499922 h -25.00106 c -4.97076,-1.1e-5 -9.00011,4.029351 -9.00048,8.999968 v 8.999967 c 3.7e-4,4.970623 4.02972,8.999997 9.00048,8.999968 h 18.09192 c 2.56067,2.3e-5 5.00086,-1.090969 6.70812,-2.999817 h 0.20102 v 2.999817 h 8.99842 V 9.47229 c 3.3e-4,-4.9705654 -4.0288,-8.99996168 -8.99894,-8.99996741 z m 3.50056,26.99990241 21.5005,5.17e-4 -5.2e-4,5.499922 c -4.2e-4,1.933007 -1.56777,3.499586 -3.50056,3.499528 h -17.99942 c -1.9334,4.1e-5 -3.50074,-1.566533 -3.50056,-3.499528 V 30.97227 c -1.8e-4,-1.93299 1.56716,-3.50008 3.50056,-3.500045 z"
         style="fill:#000000;fill-opacity:1;stroke:none;stroke-width:1;stroke-linecap:round;stroke-dasharray:none;stroke-opacity:1"
         id="path322"
         inkscape:label="А" /></g><path
       d="m 0.47232259,104.47218 v 9.50019 H 770.97206 v -9.50019 z"
       style="fill:#000000;fill-opacity:1;stroke:none;stroke-width:1;stroke-linecap:round;stroke-dasharray:none;stroke-opacity:1"
       id="path185"
       inkscape:label="Line" /><g
       id="g323"
       inkscape:label="БК 0010-01 "><path
         d="m 26.972514,177.9726 v 76.00001 h 59.999955 c 7.071066,0 15.000121,-7.92905 15.000121,-15.00012 v -14.00018 c 0,-7.07107 -7.929055,-15.00011 -15.000121,-15.00011 H 42.972054 V 193.97266 H 93.972559 V 177.9726 Z m 15.99954,47.99965 h 38.000265 c 2.357022,0 5.000211,2.6432 5.000211,5.00022 v 1.99987 c 0,2.35702 -2.643189,5.00021 -5.000211,5.00021 H 42.972054 Z"
         style="display:inline;fill:#000000;fill-opacity:1;stroke:none;stroke-width:1;stroke-linecap:round;stroke-dasharray:none;stroke-opacity:1"
         id="path309"
         inkscape:label="Б" /><path
         d="m 113.97237,177.9726 v 76.00001 h 16.00006 v -25.38295 l 13.73249,-11.52332 26.81335,36.90627 h 19.77709 L 155.991,206.75689 190.29536,177.9726 h -24.8915 l -35.43143,29.72997 V 177.9726 Z"
         style="display:inline;fill:#000000;fill-opacity:1;stroke:none;stroke-width:1;stroke-linecap:round;stroke-dasharray:none;stroke-opacity:1"
         id="path304"
         inkscape:label="К" /><path
         d="m 257.75739,177.9726 c -9.42784,-6e-5 -19.99976,10.57173 -19.99981,19.99981 v 35.99987 c 5e-5,9.4281 10.57197,20.00028 19.99981,20.00033 h 38.99969 c 9.42855,-5e-5 20.00034,-10.57223 19.99981,-20.00033 v -35.99987 c 5.3e-4,-9.42808 -10.57126,-19.99987 -19.99981,-19.99981 z m 6.00015,16.00006 h 27.00042 c 4.71357,-1e-5 9.9996,5.2859 9.99939,9.9999 v 24.00009 c 4.2e-4,4.71402 -5.28582,9.99993 -9.99939,9.9999 h -27.00042 c -4.71417,3e-5 -9.99993,-5.28587 -9.9999,-9.9999 v -24.00009 c -3e-5,-4.714 5.28573,-9.99991 9.9999,-9.9999 z"
         style="display:inline;fill:#000000;fill-opacity:1;stroke:none;stroke-width:1;stroke-linecap:round;stroke-dasharray:none;stroke-opacity:1"
         id="path310"
         inkscape:label="0" /><path
         d="m 348.75752,177.9726 c -9.42822,-6e-5 -20.00003,10.57173 -19.99981,19.99981 v 35.99987 c -2.2e-4,9.4281 10.57159,20.00028 19.99981,20.00033 h 39.00021 c 9.42815,-5e-5 19.99995,-10.57223 19.99981,-20.00033 v -35.99987 c 1.4e-4,-9.42808 -10.57166,-19.99987 -19.99981,-19.99981 z m 6.00067,16.00006 h 26.99887 c 4.71448,0 10.00076,5.28589 10.00094,9.9999 v 24.00009 c -1.8e-4,4.71403 -5.28646,9.99993 -10.00094,9.9999 h -26.99887 c -4.71457,3e-5 -10.00083,-5.28587 -10.00094,-9.9999 v -24.00009 c 1.1e-4,-4.71401 5.28637,-9.9999 10.00094,-9.9999 z"
         style="fill:#000000;fill-opacity:1;stroke:none;stroke-width:1;stroke-linecap:round;stroke-dasharray:none;stroke-opacity:1"
         id="path314"
         inkscape:label="0" /><path
         d="m 429.11438,177.9726 -8.35815,7.39645 v 20.82973 l 8.35815,-7.39696 v 55.17079 h 15.99954 V 177.9726 Z"
         style="display:inline;fill:#000000;fill-opacity:1;stroke:none;stroke-width:1;stroke-linecap:round;stroke-dasharray:none;stroke-opacity:1"
         id="path305"
         inkscape:label="1" /><path
         d="m 478.115,177.9726 c -9.42824,-6e-5 -20.00004,10.57173 -19.99981,19.99981 v 35.99987 c -2.3e-4,9.4281 10.57157,20.00028 19.99981,20.00033 h 38.99969 c 9.42813,-5e-5 20.00044,-10.57223 20.00033,-20.00033 v -35.99987 c 1.1e-4,-9.42808 -10.5722,-19.99987 -20.00033,-19.99981 z m 6.00067,16.00006 h 26.99887 c 4.71447,-1e-5 10.00023,5.2859 10.00042,9.9999 v 24.00009 c -1.9e-4,4.71403 -5.28595,9.99993 -10.00042,9.9999 h -26.99887 c -4.71458,3e-5 -10.00085,-5.28587 -10.00094,-9.9999 v -24.00009 c 9e-5,-4.714 5.28636,-9.99991 10.00094,-9.9999 z"
         style="fill:#000000;fill-opacity:1;stroke:none;stroke-width:1;stroke-linecap:round;stroke-dasharray:none;stroke-opacity:1"
         id="path313"
         inkscape:label="0" /><path
         d="m 549.11635,209.9722 v 16.00005 H 611.6159 V 209.9722 Z"
         style="display:inline;fill:#000000;fill-opacity:1;stroke:none;stroke-width:1;stroke-linecap:round;stroke-dasharray:none;stroke-opacity:1"
         id="path307"
         inkscape:label="-" /><path
         id="path291"
         style="fill:#000000;fill-opacity:1;stroke:none;stroke-width:1;stroke-linecap:round;stroke-dasharray:none;stroke-opacity:1"
         d="m 643.61491,177.97247 c -9.42801,-6e-5 -19.99991,10.57185 -19.99992,19.99993 v 36 c 10e-6,9.4281 10.57191,20.00001 19.99992,20.00006 h 38.99979 c 9.42838,-5e-5 20.00031,-10.57196 19.99994,-20.00006 v -36 c 3.7e-4,-9.42808 -10.57156,-19.99999 -19.99994,-19.99993 z m 43.00004,25.99991 v 24.00004 c 4e-5,4.71403 -5.28591,9.99999 -9.9993,9.99996 h -27.00036 c -4.71435,3e-5 -10.0003,-5.28593 -10.00063,-9.99996 v -24.00004 c 3.3e-4,-4.71401 5.28628,-9.99997 10.00063,-9.99997 h 27.00036 c 4.71339,0 9.99934,5.28596 9.9993,9.99997 z"
         sodipodi:nodetypes="cccccccccccccccccc"
         inkscape:label="0" /><path
         d="m 723.97131,177.9726 -8.35556,7.39645 v 20.82973 l 8.35556,-7.39696 v 55.17079 h 16.00213 V 177.9726 Z"
         style="display:inline;fill:#000000;fill-opacity:1;stroke:none;stroke-width:1;stroke-linecap:round;stroke-dasharray:none;stroke-opacity:1"
         id="path306"
         inkscape:label="1" /></g></g></svg>
