<?xml version="1.0" encoding="UTF-8" standalone="no"?>
<svg
   width="2000"
   height="1000"
   viewBox="0 0 154.2048 77.1024"
   version="1.1"
   id="svg8"
   sodipodi:docname="boom3-w.svg"
   inkscape:version="1.1.2 (0a00cf5339, 2022-02-04)"
   xmlns:inkscape="http://www.inkscape.org/namespaces/inkscape"
   xmlns:sodipodi="http://sodipodi.sourceforge.net/DTD/sodipodi-0.dtd"
   xmlns="http://www.w3.org/2000/svg"
   xmlns:svg="http://www.w3.org/2000/svg">
  <defs
     id="defs12" />
  <sodipodi:namedview
     id="namedview10"
     pagecolor="#ffffff"
     bordercolor="#666666"
     borderopacity="1.0"
     inkscape:pageshadow="2"
     inkscape:pageopacity="0.0"
     inkscape:pagecheckerboard="0"
     showgrid="false"
     inkscape:zoom="0.27291054"
     inkscape:cx="938.03634"
     inkscape:cy="1220.1801"
     inkscape:window-width="1920"
     inkscape:window-height="1011"
     inkscape:window-x="1920"
     inkscape:window-y="32"
     inkscape:window-maximized="1"
     inkscape:current-layer="g6" />
  <g
     fill-rule="evenodd"
     clip-rule="evenodd"
     id="g6">
    <path
       fill="#fff"
       d="m 133.33404,1.5338031 h 16.223 l 0.871,6.503 -5.162,3.1509999 6.838,6.301 0.201,4.559 h -23.328 v -4.491 h 12.804 l -5.9,-6.839 8.715,-5.2289999 h -13.742 l -0.201,-1.81 z M 72.797035,10.517803 h 8.447 v 30.502 l -8.447,6.839 z m -62.011,0 h 8.648 v 30.637 l -8.648,6.838 z M 1.6020357,1.6008031 c 0.737,0.805 0.737,1.676 0.737,2.681 V 68.572803 c 0,0.401 0.067,2.413 -0.335,3.955 l 26.4799993,-20.313 c -0.603,-0.603 -1.072,-1.14 -1.14,-2.346 V 4.6178031 l -3.821,-3.017 z m 104.7810043,0 4.359,16.2239999 5.027,-16.2239999 h 10.928 c -0.939,0.872 -0.939,1.475 -0.939,2.95 V 68.706803 c 0,3.285 0,5.564 0.805,7.374 -3.15,-2.48 -6.301,-5.027 -9.52,-7.575 0.67,-0.335 0.871,-0.871 0.871,-2.078 v -36.737 l -7.574,27.62 -7.777,-37.006 v 37.207 c -2.682005,-2.146 -5.363005,-4.357 -8.045005,-6.504 0.738,-0.603 0.738,-1.608 0.738,-2.748 V 5.0198031 c 0,-2.279 -0.537,-3.418 -1.275,-3.418 H 106.38304 Z M 40.820035,10.517803 h 9.251 v 37.81 l -9.251,-7.106 z m -5.363,-8.9169999 -3.754,2.681 V 48.460803 l 13.408,10.793 13.207,-10.658 V 4.2818031 l -3.352,-2.681 z m 31.575,0 -2.48,2.547 V 48.594803 l 12.873,10.056 12.871,-10.324 V 4.5508031 l -3.15,-2.95 z"
       id="path4"
       style="fill:#ffffff" />
  </g>
</svg>
