<?xml version="1.0" encoding="UTF-8" standalone="no"?>
<!-- Created by ERK -->

<svg
   width="798.97772mm"
   height="107.45132mm"
   viewBox="0 0 798.97772 107.45132"
   version="1.1"
   id="svg1"
   inkscape:version="1.4 (86a8ad7, 2024-10-11)"
   xml:space="preserve"
   sodipodi:docname="bstone.svg"
   xmlns:inkscape="http://www.inkscape.org/namespaces/inkscape"
   xmlns:sodipodi="http://sodipodi.sourceforge.net/DTD/sodipodi-0.dtd"
   xmlns:xlink="http://www.w3.org/1999/xlink"
   xmlns="http://www.w3.org/2000/svg"
   xmlns:svg="http://www.w3.org/2000/svg"><sodipodi:namedview
     id="namedview1"
     pagecolor="#ffffff"
     bordercolor="#000000"
     borderopacity="0.25"
     inkscape:showpageshadow="2"
     inkscape:pageopacity="0.0"
     inkscape:pagecheckerboard="true"
     inkscape:deskcolor="#d1d1d1"
     inkscape:document-units="mm"
     inkscape:zoom="0.64562349"
     inkscape:cx="1483.837"
     inkscape:cy="199.03241"
     inkscape:window-width="3840"
     inkscape:window-height="2066"
     inkscape:window-x="-11"
     inkscape:window-y="-11"
     inkscape:window-maximized="1"
     inkscape:current-layer="svg1"
     showgrid="false" /><defs
     id="defs1"><linearGradient
       id="linearGradient1"
       inkscape:collect="always"><stop
         style="stop-color:#fd7f00;stop-opacity:1;"
         offset="0.03211304"
         id="stop1" /><stop
         style="stop-color:#fdfa00;stop-opacity:1;"
         offset="0.12652537"
         id="stop13" /><stop
         style="stop-color:#fdf900;stop-opacity:1;"
         offset="0.13937058"
         id="stop20" /><stop
         style="stop-color:#fd7f00;stop-opacity:1;"
         offset="0.24277458"
         id="stop15" /><stop
         style="stop-color:#fdfb00;stop-opacity:1;"
         offset="0.34232497"
         id="stop21" /><stop
         style="stop-color:#fdfc00;stop-opacity:1;"
         offset="0.37251124"
         id="stop17" /><stop
         style="stop-color:#fd8700;stop-opacity:1;"
         offset="0.50353247"
         id="stop19" /><stop
         style="stop-color:#fcf800;stop-opacity:1;"
         offset="0.65253687"
         id="stop18" /><stop
         style="stop-color:#fdf500;stop-opacity:1;"
         offset="0.68272322"
         id="stop22" /><stop
         style="stop-color:#fd7f00;stop-opacity:1;"
         offset="0.73988438"
         id="stop16" /><stop
         style="stop-color:#fdf600;stop-opacity:1;"
         offset="0.86576748"
         id="stop23" /><stop
         style="stop-color:#fdfa00;stop-opacity:1;"
         offset="0.89210021"
         id="stop14" /><stop
         style="stop-color:#fd8000;stop-opacity:1;"
         offset="1"
         id="stop2" /></linearGradient><marker
       id="DistanceX"
       orient="auto"
       refX="0"
       refY="0"
       style="overflow:visible"><path
         d="M 3,-3 -3,3 M 0,-5 V 5"
         style="stroke:#000000;stroke-width:0.5"
         id="path1" /></marker><pattern
       id="Hatch"
       patternUnits="userSpaceOnUse"
       width="8"
       height="8"
       x="0"
       y="0"><path
         d="M8 4 l-4,4"
         stroke="#000000"
         stroke-width="0.25"
         linecap="square"
         id="path2" /><path
         d="M6 2 l-4,4"
         stroke="#000000"
         stroke-width="0.25"
         linecap="square"
         id="path3" /><path
         d="M4 0 l-4,4"
         stroke="#000000"
         stroke-width="0.25"
         linecap="square"
         id="path4" /></pattern><symbol
       id="*Model_Space" /><symbol
       id="*Paper_Space" /><symbol
       id="*Paper_Space0" /><linearGradient
       inkscape:collect="always"
       xlink:href="#linearGradient1"
       id="linearGradient2"
       x1="1506.8036"
       y1="611.42999"
       x2="1550.2471"
       y2="1232.7012"
       gradientUnits="userSpaceOnUse" /><linearGradient
       inkscape:collect="always"
       xlink:href="#linearGradient1"
       id="linearGradient55"
       gradientUnits="userSpaceOnUse"
       x1="1506.8036"
       y1="611.42999"
       x2="1550.2471"
       y2="1232.7012" /><linearGradient
       inkscape:collect="always"
       xlink:href="#linearGradient1"
       id="linearGradient56"
       gradientUnits="userSpaceOnUse"
       x1="1506.8036"
       y1="611.42999"
       x2="1550.2471"
       y2="1232.7012" /><linearGradient
       inkscape:collect="always"
       xlink:href="#linearGradient1"
       id="linearGradient57"
       gradientUnits="userSpaceOnUse"
       x1="1506.8036"
       y1="611.42999"
       x2="1550.2471"
       y2="1232.7012" /><linearGradient
       inkscape:collect="always"
       xlink:href="#linearGradient1"
       id="linearGradient58"
       gradientUnits="userSpaceOnUse"
       x1="1506.8036"
       y1="611.42999"
       x2="1550.2471"
       y2="1232.7012" /><linearGradient
       inkscape:collect="always"
       xlink:href="#linearGradient1"
       id="linearGradient59"
       gradientUnits="userSpaceOnUse"
       x1="1506.8036"
       y1="611.42999"
       x2="1550.2471"
       y2="1232.7012" /><linearGradient
       inkscape:collect="always"
       xlink:href="#linearGradient1"
       id="linearGradient60"
       gradientUnits="userSpaceOnUse"
       x1="1506.8036"
       y1="611.42999"
       x2="1550.2471"
       y2="1232.7012" /><linearGradient
       inkscape:collect="always"
       xlink:href="#linearGradient1"
       id="linearGradient61"
       gradientUnits="userSpaceOnUse"
       x1="1506.8036"
       y1="611.42999"
       x2="1550.2471"
       y2="1232.7012" /><linearGradient
       inkscape:collect="always"
       xlink:href="#linearGradient1"
       id="linearGradient62"
       gradientUnits="userSpaceOnUse"
       x1="1506.8036"
       y1="611.42999"
       x2="1550.2471"
       y2="1232.7012" /><linearGradient
       inkscape:collect="always"
       xlink:href="#linearGradient1"
       id="linearGradient63"
       gradientUnits="userSpaceOnUse"
       x1="1506.8036"
       y1="611.42999"
       x2="1550.2471"
       y2="1232.7012" /></defs><path
     id="path50"
     style="fill:#000000;fill-opacity:1;stroke:none;stroke-width:7.50001;stroke-linecap:round;stroke-miterlimit:8;stroke-dasharray:none;stroke-opacity:1"
     d="m 92.662045,0.00154879 1.347722,4.76973361 c 1.179631,4.1750774 1.477163,8.5500736 0.873331,12.8462456 l -1.228865,8.743135 C 94.758228,18.504922 94.147712,12.023519 90.891094,7.1809539 87.634401,2.3382826 81.841667,0.00209647 75.086889,0.00206472 H 15.409912 l 1.347721,4.76921768 c 1.179672,4.1752388 1.47711,8.5496456 0.873332,12.8457266 L 7.9261313,86.669115 C 7.322327,90.965287 5.831148,95.089162 3.5465535,98.776925 L 0,104.50163 h 67.075493 c 5.019731,1.4e-4 9.641861,-2.06345 12.768728,-5.834269 3.125396,-3.769016 4.899295,-8.913098 5.797579,-15.297785 l -0.463537,3.299037 c -0.603723,4.295457 -2.095404,8.419147 -4.380095,12.10728 l -3.546551,5.724707 h 58.229523 -0.001 33.47188 l -1.52342,-4.869468 c -1.01637,-3.249295 -0.79161,-6.757405 0.63149,-9.851602 l 5.40793,-11.75586 h 21.9568 l 1.56115,9.64901 c 0.61787,3.818705 -0.3998,7.716176 -2.80551,10.746131 l -4.82865,6.081789 h 40.74997 l 1.42678,2.95072 1.63866,-2.95072 h 35.76319 l -1.76008,-4.996071 c -1.66347,-4.722231 -2.16803,-9.774343 -1.47125,-14.731921 l 2.11564,-15.063168 2.36006,-3.023589 8.98498,37.814749 h 28.83699 v 0 h 70.48717 l 9.05579,-33.797422 -8.82634,6.886919 c -2.41676,1.885685 -5.39295,2.909702 -8.45841,2.909887 h -20.13935 l 2.45981,-17.50021 h 20.41271 c 1.40618,1.3e-5 2.74172,0.588391 3.69022,1.62574 l 5.441,5.95054 5.02348,-38.432279 -7.66156,6.185154 c -1.1208,0.904758 -2.31593,1.170966 -3.75635,1.170987 h -19.84581 l 2.17712,-15.500347 h 19.82772 c 2.61654,-4.2e-5 5.17798,0.746411 7.38508,2.151809 l 5.4947,3.498492 L 391.97761,9.7380581e-7 338.04706,5.3014047e-4 V 9.7380581e-7 h -48.1702 L 290.34454,4.1677044 c 0.40089,3.5741662 -0.61241,7.1591226 -2.82514,9.9942226 v 5.29e-4 l -14.51126,18.594215 2.0965,-14.924669 c 0.60378,-4.296066 2.09524,-8.4189067 4.3801,-12.1072724 L 283.0313,1.4202972e-5 H 239.5921 L 240.9393,4.7692319 c 1.17964,4.1752705 1.4771,8.5496661 0.87333,12.8457271 l -9.70483,69.051616 c -0.008,0.05479 -0.0225,0.10803 -0.0305,0.162772 L 218.7944,0.00206472 h -39.98981 l 5.47977,8.85320698 c 0.11289,0.1824063 0.12607,0.3963564 0.0367,0.5906611 l -30.97382,67.3333482 1.73013,-6.455928 -8.92969,7.15718 c -2.44018,1.955853 -5.47219,3.021462 -8.59948,3.021515 h -18.17873 l 8.80721,-62.667996 c 0.60376,-4.296222 2.0954,-8.4195729 4.3801,-12.1077878 l 3.54655,-5.72471541 z m 363.655825,0 c -6.39323,3.175e-5 -12.09516,2.32529851 -16.09203,6.80888531 -3.99688,4.4835839 -6.32132,10.7748019 -7.42591,18.6360719 l -3.48194,24.774716 c -0.98525,7.008656 -0.59391,12.76764 2.09185,17.213418 2.68576,4.445775 7.78222,6.728812 13.50409,6.728785 h 21.28759 c 0.0266,0.697574 0.014,1.642878 -0.17778,3.007069 v 0.0037 l -0.0156,0.11266 c -0.24106,1.715029 -0.62944,2.780109 -0.85524,3.215296 h -28.87678 c -1.63772,-2.6e-5 -3.16262,-0.795867 -4.10001,-2.139394 l -6.87761,-9.856761 0.15553,35.995745 h 49.25332 c 6.39355,1.3e-4 12.09548,-2.32526 16.09257,-6.808897 3.99706,-4.483602 6.32203,-10.774574 7.42693,-18.636059 l 3.48197,-24.77421 v -5.29e-4 c 0.98494,-7.00864 0.59333,-12.767714 -2.09238,-17.213421 -2.6857,-4.445704 -7.78248,-6.728309 -13.50409,-6.728272 h -21.28862 c -0.0267,-0.696923 -0.014,-1.641276 0.17725,-3.003949 1.3e-4,-0.0011 -1.6e-4,-0.0016 0,-0.0026 l 0.0156,-0.100769 0.003,-0.01654 c 0.2408,-1.715122 0.62908,-2.779794 0.85474,-3.21479 h 27.90732 c 1.51091,-3.2e-5 2.93455,0.679148 3.88557,1.853633 l 4.02714,4.443656 c 0,0 1.65696,-2.052293 2.56471,-3.00705 0.69398,-0.72992 1.37732,-1.489078 2.19708,-2.074217 1.11284,-0.794345 1.90124,-1.216194 3.36693,-1.216022 h 10.09033 l -8.80565,62.668006 c -0.60386,4.296066 -2.0959,8.419624 -4.3801,12.107783 l -3.54502,5.724207 h 44.74663 l -1.76009,-4.995571 c -1.66322,-4.721966 -2.1677,-9.774396 -1.47174,-14.732423 l 8.54109,-60.771484 h 10.5301 c 1.37588,-2.9e-5 2.68719,0.564692 3.63283,1.564762 l 0.9493,1.004072 c -0.19592,1.035394 -0.37423,2.091746 -0.52707,3.179652 l -6.09836,43.391147 c -1.32789,9.44753 -0.8768,16.965348 2.23552,22.641004 3.11232,5.675661 9.20422,8.718971 16.33183,8.718841 h 34.30902 c 7.7982,1.3e-4 14.59682,-2.62689 19.44584,-7.821242 2.10302,-2.252794 3.81199,-4.947073 5.2038,-8.008805 -0.74213,3.572431 -2.09722,6.994313 -4.02455,10.104808 l -3.54706,5.725239 h 30.25085 l -1.76062,-4.996074 c -1.66386,-4.721701 -2.16855,-9.773973 -1.47278,-14.73192 l 5.65651,-40.253356 12.8044,59.98135 h 37.83851 v 0 h 70.4872 l 9.05576,-33.797419 -8.82634,6.886913 c -2.41676,1.885686 -5.39293,2.909703 -8.45839,2.909888 h -20.13934 l 2.4598,-17.500206 h 20.41271 c 1.40618,1.3e-5 2.7417,0.588391 3.6902,1.62574 l 5.44102,5.95054 5.02346,-38.432279 -7.66154,6.185154 c -1.1208,0.904759 -2.31595,1.170967 -3.75637,1.170988 h -19.84581 l 2.17712,-15.500347 h 19.82775 c 2.61654,-4.3e-5 5.17797,0.74641 7.38507,2.151808 l 5.49476,3.498493 1.21389,-29.6498694 -63.407,5.2917e-4 V 0.0010646 H 706.9099 l 1.34774,4.7697336 c 1.17964,4.1750747 1.4768,8.5496398 0.87281,12.8457298 L 703.45691,57.983054 691.08092,0.0010646 647.09134,5.3543213e-4 648.43908,4.7702691 c 1.07746,3.8135586 1.41015,7.7934769 1.00147,11.7284839 -0.44762,-2.890969 -1.25119,-5.49239 -2.50526,-7.7793713 C 643.82297,3.0437729 637.73094,5.6718213e-4 630.60346,5.3543213e-4 H 596.29444 C 588.49614,5.645363e-4 581.69762,2.6272711 576.8486,7.8217615 c -0.93131,0.9976776 -1.76737,2.1022151 -2.5554,3.2613015 L 574.67872,0.00105137 504.72485,5.2220297e-4 Z M 324.82668,5.0544686 c 1.11456,4.0901593 1.39142,8.3637124 0.801,12.5635754 l -9.70484,69.052103 c -0.33843,2.409269 -0.9656,4.760754 -1.84589,7.015083 -1.42494,-3.173889 -2.62697,-6.445514 -3.53777,-9.809744 L 296.68888,32.71428 313.138,11.63908 v -5.29e-4 c 1.54151,-1.9742073 3.59227,-3.4895449 5.93193,-4.3837122 z m 407.1793,0.7043499 c 0.95975,3.8753547 1.17885,7.8995585 0.62216,11.8592255 l -9.70483,69.052103 c -0.60344,4.295907 -2.09476,8.4192 -4.37957,12.10728 l -2.94246,4.749063 12.0432,-85.691922 c 0.60211,-4.284143 2.08759,-8.3955012 4.3615,-12.0757495 z M 602.59835,24.001633 h 12.28402 c 1.11562,-1.6e-5 0.75817,-0.155967 1.06143,0.499194 0.30327,0.655164 0.6254,2.725682 0.17571,5.924704 l -6.1836,43.999911 c -0.40249,2.863956 -1.02148,4.861375 -1.48828,5.738654 -0.15836,0.297603 -0.12761,0.290063 -0.13076,0.337952 h -12.28349 c -1.11607,-2.6e-5 -0.75907,0.155628 -1.06247,-0.499692 -0.30337,-0.655267 -0.62547,-2.725658 -0.17621,-5.924709 l 6.18464,-43.999382 c 0.40219,-2.863635 1.02158,-4.86111 1.48828,-5.738151 0.15846,-0.297764 0.12774,-0.290205 0.13073,-0.337963 z M 50.043457,24.109638 h 9.717754 c 1.186926,-8e-6 0.838782,-0.135887 1.133264,0.505913 0.294484,0.6418 0.601879,2.717289 0.101801,5.93607 l -0.449067,2.892329 c -0.442576,2.848113 -1.078201,4.842428 -1.553395,5.730402 -0.156787,0.292981 -0.123595,0.277836 -0.130741,0.327628 H 47.880282 Z m 42.715222,8.624279 -5.516975,39.253419 c 0.845539,-6.025322 0.661553,-11.168052 -0.953432,-15.491044 -0.713888,-1.910935 -1.772628,-3.61931 -3.08353,-5.088062 1.664901,-1.050497 3.153719,-2.400512 4.366656,-4.040582 2.744843,-3.711443 4.339445,-8.606311 5.187281,-14.633731 z m 96.952221,9.980269 1.95957,12.112439 h -7.53132 z M 44.577123,63.001837 h 9.141045 c 1.186987,6e-6 0.839311,-0.135855 1.133782,0.505913 0.294473,0.641765 0.60189,2.717236 0.101801,5.93607 l -0.776695,5.000222 c -0.442556,2.848134 -1.07818,4.842431 -1.553395,5.730399 -0.156785,0.292973 -0.123585,0.277813 -0.130742,0.327607 H 42.117842 Z"
     sodipodi:nodetypes="ccscsccccccccsccccccccccccccccccccccccccccccccscccccccccccccccccccccccccccccccccccccccsccscccccccccccsscssccscccccccasccccccccccscccsccsccccscccccccsccccscccccccccccccsccccscsccscccccccccccccccccccccccscssccsccsscccsccscccccscscccccccsccsccc"
     inkscape:label="BlakeStoneOutline" /><g
     inkscape:label="BlakeStone"
     id="g174"
     transform="matrix(0.26458333,0,0,0.26458333,-0.76559875,-192.24844)"
     style="display:inline;fill:url(#linearGradient2);fill-opacity:1"><path
       d="m 79.870165,740.78766 c 4.993353,17.67309 6.253139,36.19107 3.697266,54.37695 L 46.887743,1056.149 c -2.555868,18.1855 -8.869818,35.6408 -18.541016,51.2519 H 256.40923 c 31.08426,8e-4 49.79753,-22.5669 56.14063,-67.7011 l 6.03515,-42.93949 c 6.00009,-42.69283 -3.78477,-68.88424 -29.35351,-78.57421 l 0.33984,-2.41993 c 27.24924,-2.26701 43.87491,-24.74644 49.875,-67.43945 l 3.38086,-24.05859 c 7.8217,-55.65375 -10.89155,-83.48027 -56.14063,-83.48047 z m 99.843755,62.76953 h 49.04883 c 16.66437,-10e-5 22.88894,13.56642 18.67382,40.69726 l -1.69726,10.92969 c -3.61448,23.26255 -9.83905,34.8944 -18.67383,34.89453 h -59.51172 z m -20.66016,146.99414 h 46.87109 c 16.66446,9e-5 22.88903,13.5661 18.67383,40.69727 l -2.93554,18.8984 c -3.61432,23.2604 -9.83888,34.8923 -18.67383,34.8926 h -57.21485 z"
       style="display:inline;fill:url(#linearGradient55);fill-opacity:1;stroke:none;stroke-width:3.571;stroke-linecap:round"
       id="path9"
       sodipodi:nodetypes="ccscccccccccccccccccccccccc" /><path
       id="path38"
       style="display:inline;fill:url(#linearGradient56);fill-opacity:1;stroke:none;stroke-width:3.571;stroke-linecap:round"
       d="m 320.3219,1107.3972 c 9.67112,-15.6119 15.98568,-33.0666 18.54133,-51.2499 l 36.67894,-260.98214 c 2.55604,-18.18588 1.29724,-36.70487 -3.69614,-54.37796 h 120.00214 c -9.67105,15.61212 -15.98561,33.06674 -18.54133,51.25279 L 437.75,1045.04 l 85.01186,-3e-4 c 15.03984,-3e-4 29.63072,-5.1262 41.36619,-14.5325 l -20.60405,76.89 z"
       sodipodi:nodetypes="ccccccccccc" /><path
       d="m 704.13189,740.78766 7.32227,11.83007 c 2.91772,4.71423 3.27978,10.57647 0.96289,15.61329 L 576.28228,1064.1724 c -7.28782,15.8449 -17.03799,30.4345 -28.88867,43.2285 H 622.169 c -4.88782,-15.6261 -3.80552,-32.511 3.03711,-47.3886 l 24.23437,-52.6817 h 104.13087 l 7.82812,48.3789 c 2.97084,18.3611 -1.92822,37.1243 -13.49414,51.6914 h 251.39844 c -7.04113,-19.9884 -9.17813,-41.3754 -6.22852,-62.3613 l 8.52535,-60.68944 29.3985,-37.66602 38.1875,160.71676 h 118.2265 c -10.603,-18.9455 -18.8342,-39.123 -24.5078,-60.08 l -54.1992,-200.20512 66.5313,-85.24023 c 7.4142,-9.49636 17.2803,-16.78727 28.5332,-21.08789 h -89.4219 c 1.9276,17.18518 -2.9501,34.44182 -13.5899,48.07421 l -87.4199,112.01758 15.2891,-108.83984 c 2.5559,-18.18605 8.8717,-35.63984 18.543,-51.25195 H 927.17096 c 4.9932,17.67308 6.25313,36.19107 3.69726,54.37695 L 894.18853,1056.147 c -2.26084,16.0846 -7.46544,31.6188 -15.35351,45.8203 -5.7408,-11.8738 -9.67339,-24.5409 -11.66797,-37.5781 L 817.66314,740.78766 Z m 22.3418,99.08007 17.49609,108.13087 h -67.23633 z"
       style="display:inline;fill:url(#linearGradient57);fill-opacity:1;stroke:none;stroke-width:3.571;stroke-linecap:round"
       id="path10"
       sodipodi:nodetypes="ccccccccccccccccccccccccccccccccccccc" /><path
       id="path91"
       style="display:inline;fill:url(#linearGradient58);fill-opacity:1;stroke:none;stroke-width:3.571;stroke-linecap:round"
       d="m 1466.64,813.49985 c -10.6158,-6.75969 -22.9397,-10.35024 -35.5249,-10.35004 l -87.26,1.9e-4 -12.21,86.929 91.31,-1.3e-4 c 9.5129,-1.4e-4 18.5651,-4.09666 24.844,-11.24299 l -10.78,82.46992 c -6.2651,-6.85196 -15.1218,-10.75462 -24.4076,-10.75471 l -89.4715,-9e-5 -13.28,94.489 92.4204,-3e-4 c 14.7434,-3e-4 29.0639,-4.9261 40.6875,-13.9954 l -20.46,76.36 h -230.0794 c 9.6718,-15.6119 15.9863,-33.0666 18.5408,-51.2521 l 36.6795,-260.98434 c 2.5567,-18.18588 1.2979,-36.70487 -3.6955,-54.37796 l 225.6634,-0.002 z"
       sodipodi:nodetypes="ccccccccccccccccccc" /><path
       id="path113"
       style="display:inline;fill:url(#linearGradient59);fill-opacity:1;stroke:none;stroke-width:3.571;stroke-linecap:round"
       d="m 1727.5607,740.7872 c -42.0353,2e-4 -66.9869,27.98954 -74.8524,83.96801 l -13.16,93.63771 c -6.9672,49.56231 8.0038,74.34351 44.9115,74.3433 l 86.3378,-9e-4 c 7.5653,-6.9e-4 10.0605,9.16888 7.4821,27.51048 l -0.061,0.4408 c -2.2818,16.2334 -7.2721,24.351 -14.9705,24.3513 h -111.4379 c -10.8079,-3e-4 -20.9351,-5.2829 -27.1203,-14.1479 l 0.33,76.51 172.042,8e-4 c 42.038,8e-4 66.9897,-27.9886 74.8575,-83.969 l 13.1599,-93.63572 c 6.965,-49.56233 -8.006,-74.34353 -44.9114,-74.3433 h -86.3385 c -7.5683,-2.3e-4 -10.0634,-9.1698 -7.4877,-27.50886 l 0.066,-0.44179 c 2.2794,-16.23497 7.2698,-24.35252 14.9705,-24.35232 h 107.771 c 9.9771,-2.1e-4 19.4216,4.50471 25.7007,12.25915 l 1.25,-74.62196 z"
       sodipodi:nodetypes="ccccccccccccccccccccccc" /><path
       id="path125"
       style="display:inline;fill:url(#linearGradient60);fill-opacity:1;stroke:none;stroke-width:3.571;stroke-linecap:round"
       d="m 2053.7908,1107.4016 h -123.653 c 9.669,-15.6119 15.9836,-33.0666 18.5395,-51.2526 l 35.55,-253 -54.44,-2e-4 c -9.6799,-2e-4 -18.8739,4.2408 -25.1547,11.60426 L 1923.075,740.786 h 237.16 l -2.53,72.71216 c -6.2467,-6.60628 -14.9377,-10.34955 -24.0287,-10.34936 l -52.119,2e-4 -33.9967,241.8902 c -2.9462,20.9863 -0.8104,42.374 6.2302,62.3624 z"
       sodipodi:nodetypes="ccccccccccccc" /><path
       id="path141"
       style="display:inline;fill:url(#linearGradient61);fill-opacity:1;stroke:none;stroke-width:3.571;stroke-linecap:round"
       d="m 2303.4881,1045.0397 c 9.1791,-3e-4 15.417,-11.7221 18.7118,-35.1676 l 23.371,-166.29714 c 3.7884,-26.95025 -2.4495,-40.42535 -18.7119,-40.42515 h -47.8692 c -9.1813,-2e-4 -15.4192,11.72154 -18.7118,35.16511 l -23.376,166.29718 c -3.7856,26.9522 2.4523,40.4273 18.7169,40.4276 z m 22.3134,62.3611 h -129.672 c -47.0203,8e-4 -65.734,-34.1253 -56.1406,-102.3791 l 23.0493,-163.99869 c 9.3897,-66.82374 40.5792,-100.23561 93.5694,-100.23581 h 129.672 c 47.0192,2e-4 65.733,34.12631 56.1406,102.37866 l -23.0494,164.00214 c -9.3907,66.8217 -40.5802,100.2336 -93.5693,100.2328 z"
       sodipodi:nodetypes="cccccccccccccccccc" /><path
       id="path156"
       style="display:inline;fill:url(#linearGradient62);fill-opacity:1;stroke:none;stroke-width:3.571;stroke-linecap:round"
       d="m 2739.0119,792.03999 -44.32,315.36001 h -120.99 l -62.74,-293.901 -32.536,231.5407 c -2.9454,20.9858 -0.8096,42.3735 6.2341,62.3619 h -68.8577 c 9.6734,-15.6119 15.9879,-33.0666 18.5458,-51.2521 l 36.6794,-260.98434 c 2.5534,-18.18588 1.2946,-36.70487 -3.6988,-54.37796 l 136.06,-2e-4 61.12,286.343 32.6008,-231.96484 c 2.5567,-18.18588 1.2979,-36.70487 -3.6955,-54.37796 h 64.1398 c -9.6714,15.61212 -15.986,33.06674 -18.5419,51.25279 z"
       sodipodi:nodetypes="cccccccccccccccc" /><path
       id="path174"
       style="fill:url(#linearGradient63);fill-opacity:1;stroke:none;stroke-width:3.571;stroke-linecap:round"
       d="m 2785.9169,795.16786 c 2.5556,-18.18588 1.2968,-36.70487 -3.6966,-54.37796 l 225.6699,-0.002 -2.9902,72.7115 c -10.6158,-6.75969 -22.9397,-10.35024 -35.5245,-10.35004 l -87.2597,1.9e-4 -12.21,86.929 91.31,-1.3e-4 c 9.5129,-1.4e-4 18.5651,-4.09666 24.844,-11.24299 l -10.77,82.46992 c -6.2651,-6.85196 -15.1218,-10.75462 -24.408,-10.75471 l -89.4718,-9e-5 -13.28,94.48905 92.42,-3e-4 c 14.7431,-3e-4 29.0636,-4.9261 40.6872,-13.9954 l -20.46,76.36 h -230.0806 c 9.6707,-15.6119 15.9852,-33.0666 18.5409,-51.2521 z"
       sodipodi:nodetypes="ccccccccccccccccccc" /></g></svg>
