<?xml version="1.0" encoding="UTF-8" standalone="no"?>
<svg
   width="351.74701"
   height="41.853001"
   viewBox="0 0 351.74701 41.853001"
   version="1.1"
   xml:space="preserve"
   style="clip-rule:evenodd;fill-rule:evenodd;stroke-linejoin:round;stroke-miterlimit:1.41421"
   id="svg59"
   sodipodi:docname="c16.svg"
   inkscape:version="1.1 (c68e22c387, 2021-05-23)"
   xmlns:inkscape="http://www.inkscape.org/namespaces/inkscape"
   xmlns:sodipodi="http://sodipodi.sourceforge.net/DTD/sodipodi-0.dtd"
   xmlns="http://www.w3.org/2000/svg"
   xmlns:svg="http://www.w3.org/2000/svg"><defs
     id="defs63" /><sodipodi:namedview
     id="namedview61"
     pagecolor="#ffffff"
     bordercolor="#666666"
     borderopacity="1.0"
     inkscape:pageshadow="2"
     inkscape:pageopacity="0.0"
     inkscape:pagecheckerboard="0"
     showgrid="false"
     inkscape:zoom="4.539947"
     inkscape:cx="127.31426"
     inkscape:cy="33.810968"
     inkscape:window-width="1920"
     inkscape:window-height="1017"
     inkscape:window-x="-8"
     inkscape:window-y="-8"
     inkscape:window-maximized="1"
     inkscape:current-layer="g3" /><g
     id="g57"
     transform="translate(-0.464)"
     style="display:inline"><g
       id="g3"
       style="display:inline"><path
         id="path5"
         d="m 21.391,0 h 309.893 c 11.511,0 20.927,9.416 20.927,20.926 0,11.511 -9.416,20.927 -20.927,20.927 H 21.391 C 9.88,41.853 0.464,32.437 0.464,20.926 0.464,9.417 9.88,0 21.391,0 Z"
         style="display:inline;fill:#5d594f;fill-rule:nonzero;fill-opacity:1" /><path
         id="path17"
         d="m 339.555,25.38 c 0,3.879 -3.409,5.818 -10.231,5.818 h -3.49 c -3.844,0 -6.508,-0.665 -7.997,-1.988 -1.49,-1.327 -2.232,-3.622 -2.232,-6.888 V 17.93 c 0,-3.246 0.742,-5.531 2.232,-6.857 1.488,-1.327 4.153,-1.989 7.997,-1.989 h 3.49 c 3.168,0 5.55,0.425 7.146,1.277 1.597,0.851 2.395,2.097 2.395,3.74 v 1.574 h -8.201 v -0.564 c 0,-0.515 -0.148,-0.852 -0.446,-1.01 -0.298,-0.158 -0.894,-0.239 -1.786,-0.239 h -1.95 c -1.108,0 -1.819,0.09 -2.129,0.269 -0.314,0.177 -0.468,0.602 -0.468,1.275 v 3.026 c 1.188,-0.652 2.665,-0.977 4.426,-0.977 h 2.882 c 2.896,0 5.013,0.49 6.354,1.468 1.338,0.98 2.008,2.49 2.008,4.527 z m -8.199,-0.327 v -1.572 c 0,-0.556 -0.183,-0.907 -0.549,-1.055 -0.364,-0.147 -1.157,-0.224 -2.375,-0.224 h -1.582 c -1.22,0 -2.018,0.069 -2.396,0.21 -0.38,0.137 -0.568,0.493 -0.568,1.067 v 1.572 c 0,0.595 0.188,0.966 0.568,1.112 0.378,0.148 1.177,0.224 2.396,0.224 h 1.582 c 1.245,0 2.043,-0.074 2.395,-0.224 0.352,-0.144 0.529,-0.515 0.529,-1.11 z"
         style="display:inline;fill:#ffffff;fill-rule:nonzero" /><path
         id="path171"
         d="m 171.082,15.577 h -3.393 v 9.735 h 3.54 v -5.088 c 0,-1.327 0.812,-1.992 2.288,-1.992 1.475,0 1.845,0.443 1.918,1.695 h 3.32 c 0,-3.318 -0.443,-4.572 -3.984,-4.572 -2.139,0 -2.877,0.443 -3.688,2.065 z M 31.86,21.426 h -5.697 v 4.673 h 10.241 z m 4.543,-5.632 H 26.162 v 4.672 h 5.633 z m 150.98,7.602 c -3.391,0 -3.909,-0.296 -3.909,-1.993 h 9.296 c -0.147,-4.718 -0.147,-5.826 -6.418,-5.826 -5.312,0 -6.493,0.959 -6.493,5.163 0,3.91 1.551,4.869 5.83,4.943 4.795,0 7.082,-0.222 7.082,-3.393 h -3.468 c -0.148,0.737 -0.442,1.106 -1.92,1.106 z m -3.982,-4.056 c 0.148,-1.033 0.442,-1.403 2.802,-1.403 2.584,0 2.952,0.149 3.099,1.403 z m -131.9,0.368 h 3.54 c -0.294,-3.32 -1.254,-4.131 -6.195,-4.131 -5.607,0 -6.861,0.884 -6.861,5.016 0,4.131 1.181,5.089 6.418,5.089 5.532,0 6.639,-0.737 6.639,-4.205 h -3.54 c 0,0.96 -0.369,1.403 -3.099,1.403 -2.361,0 -2.876,-0.589 -2.876,-2.508 0,-1.844 0.515,-1.844 3.32,-1.844 2.064,0 2.432,0.222 2.654,1.18 z m 82.252,0.589 c 0,-3.983 -1.179,-4.793 -6.86,-4.793 -6.123,0 -6.86,1.032 -6.86,5.162 0,4.131 1.032,5.016 6.86,5.016 6.197,0.001 6.86,-1.031 6.86,-5.385 z m -10.105,0.223 c 0,-1.992 0.443,-2.212 3.024,-2.212 2.877,0 3.393,0.072 3.393,2.212 0,1.992 -0.369,2.361 -3.099,2.361 -2.95,0 -3.318,-0.296 -3.318,-2.361 z m 41.899,-0.223 c 0,-3.983 -1.107,-4.793 -6.785,-4.793 -6.049,0 -6.787,0.957 -6.787,5.089 0,4.204 1.032,5.089 6.787,5.089 6.195,0.001 6.785,-1.031 6.785,-5.385 z m -10.031,0.223 c 0,-1.992 0.442,-2.212 3.024,-2.212 2.877,0 3.393,0.072 3.393,2.212 0,1.992 -0.368,2.361 -3.098,2.361 -2.949,0 -3.319,-0.296 -3.319,-2.361 z M 70.755,20.297 c 0,-3.983 -1.107,-4.793 -6.787,-4.793 -6.122,0 -6.86,0.957 -6.86,5.089 0,4.204 1.034,5.089 6.86,5.089 6.197,0.001 6.787,-1.031 6.787,-5.385 z m -9.96,0.223 c 0,-1.992 0.442,-2.212 2.952,-2.212 2.876,0 3.393,0.072 3.393,2.212 0,1.992 -0.37,2.361 -3.099,2.361 -2.878,0 -3.246,-0.296 -3.246,-2.361 z m 85.278,-9.075 v 5.68 c -0.811,-1.106 -1.549,-1.695 -4.499,-1.695 -4.721,0 -5.607,1.254 -5.607,5.089 0,3.911 1.255,5.015 5.828,5.015 2.877,0 3.762,-0.737 4.426,-1.991 v 1.768 h 3.542 V 11.443 Z m -2.582,6.788 c 1.991,0 2.656,0.295 2.656,1.843 0,2.361 -0.149,2.585 -2.95,2.585 -2.804,0 -3.541,-0.076 -3.541,-2.067 0,-2.287 0.885,-2.361 3.835,-2.361 z M 25.842,15.474 V 9.458 C 24.627,9.137 23.793,9.009 22.579,9.009 c -6.338,0 -11.906,5.313 -11.906,11.905 0,6.786 5.632,11.843 11.969,11.843 1.152,0 1.792,-0.129 3.2,-0.514 v -6.144 c -1.409,0.702 -2.111,0.895 -3.263,0.895 -3.521,0 -6.211,-2.944 -6.211,-6.208 0,-3.392 2.625,-6.273 6.146,-6.273 1.217,0 2.241,0.321 3.328,0.961 z m 50.519,0.103 h -3.319 v 9.735 h 3.541 v -5.015 c 0,-1.475 0.737,-1.99 2.73,-1.99 1.844,0 2.361,0.663 2.361,2.507 v 4.498 h 3.614 V 20.15 c 0,-1.401 1.106,-1.843 2.802,-1.843 1.623,0 2.361,0.443 2.361,1.843 v 5.162 h 3.54 v -5.753 c 0,-2.875 -1.77,-4.204 -5.015,-4.204 -2.804,0 -3.837,1.033 -4.206,2.139 -0.738,-1.254 -1.77,-2.139 -4.574,-2.139 -2.656,0 -3.393,0.885 -3.836,2.508 z m 23.827,0 h -3.319 v 9.735 h 3.54 v -5.015 c 0,-1.475 0.885,-1.99 2.655,-1.99 1.845,0 2.361,0.59 2.361,2.507 v 4.498 h 3.616 V 20.15 c 0,-1.401 1.033,-1.843 2.73,-1.843 1.623,0 2.433,0.515 2.433,1.843 v 5.162 h 3.541 v -5.753 c 0,-2.875 -1.77,-4.204 -5.015,-4.204 -2.803,0 -3.764,0.958 -4.205,2.139 -0.738,-1.254 -1.771,-2.139 -4.574,-2.139 -2.581,0 -3.245,0.885 -3.762,2.508 z"
         style="display:inline;fill:#ffffff;fill-rule:nonzero" /><path
         d="m 314.35,9.742 c 0,-0.359 -0.292,-0.651 -0.651,-0.651 h -5.205 c -0.36,0 -0.651,0.292 -0.651,0.651 v 20.859 c 0,0.36 0.291,0.651 0.651,0.651 h 5.205 c 0.359,0 0.651,-0.291 0.651,-0.651 z"
         style="display:inline;fill:#ffffff"
         id="path6" /><g
         id="g54"
         style="display:inline"><rect
           x="299.86899"
           y="9.0010004"
           width="2.6949999"
           height="22.365"
           style="fill:#ce2722"
           id="rect8" /><rect
           x="295.26099"
           y="9.0010004"
           width="2.6949999"
           height="22.365"
           style="fill:#e93f3a"
           id="rect10" /><rect
           x="290.65399"
           y="9.0010004"
           width="2.6949999"
           height="22.365"
           style="fill:#eb584c"
           id="rect12" /><rect
           x="286.047"
           y="9.0010004"
           width="2.6949999"
           height="22.365"
           style="fill:#eb5e43"
           id="rect14" /><rect
           x="281.439"
           y="9.0010004"
           width="2.6949999"
           height="22.365"
           style="fill:#db7556"
           id="rect16" /><rect
           x="276.832"
           y="9.0010004"
           width="2.6949999"
           height="22.365"
           style="fill:#de8658"
           id="rect18" /><rect
           x="272.224"
           y="9.0010004"
           width="2.6949999"
           height="22.365"
           style="fill:#f7c774"
           id="rect20" /><rect
           x="267.617"
           y="9.0010004"
           width="2.6949999"
           height="22.365"
           style="fill:#f4c672"
           id="rect22" /><rect
           x="263.009"
           y="9.0010004"
           width="2.6949999"
           height="22.365"
           style="fill:#e2dc6a"
           id="rect24" /><rect
           x="258.40201"
           y="9.0010004"
           width="2.6949999"
           height="22.365"
           style="fill:#fdf76e"
           id="rect26" /><rect
           x="253.795"
           y="9.0010004"
           width="2.6949999"
           height="22.365"
           style="fill:#fbf598"
           id="rect28" /><rect
           x="249.187"
           y="9.0010004"
           width="2.6949999"
           height="22.365"
           style="fill:#e7fdb2"
           id="rect30" /><rect
           x="244.58"
           y="9.0010004"
           width="2.6949999"
           height="22.365"
           style="fill:#b6f6b0"
           id="rect32" /><rect
           x="239.972"
           y="9.0010004"
           width="2.6949999"
           height="22.365"
           style="fill:#94d678"
           id="rect34" /><rect
           x="235.36501"
           y="9.0010004"
           width="2.6949999"
           height="22.365"
           style="fill:#5ee895"
           id="rect36" /><rect
           x="230.757"
           y="9.0010004"
           width="2.6949999"
           height="22.365"
           style="fill:#75ebad"
           id="rect38" /><rect
           x="226.14999"
           y="9.0010004"
           width="2.6949999"
           height="22.365"
           style="fill:#75ebb1"
           id="rect40" /><rect
           x="221.54201"
           y="9.0010004"
           width="2.6949999"
           height="22.365"
           style="fill:#6fe0ad"
           id="rect42" /><rect
           x="216.935"
           y="9.0010004"
           width="2.6949999"
           height="22.365"
           style="fill:#71e2ab"
           id="rect44" /><rect
           x="212.328"
           y="9.0010004"
           width="2.6949999"
           height="22.365"
           style="fill:#69dac6"
           id="rect46" /><rect
           x="207.72"
           y="9.0010004"
           width="2.6949999"
           height="22.365"
           style="fill:#63d9f1"
           id="rect48" /><rect
           x="203.11301"
           y="9.0010004"
           width="2.6949999"
           height="22.365"
           style="fill:#63b6f1"
           id="rect50" /><rect
           x="198.505"
           y="9.0010004"
           width="2.6949999"
           height="22.365"
           style="fill:#64a4ea"
           id="rect52" /></g></g></g></svg>
