<?xml version="1.0" encoding="UTF-8" standalone="no"?>
<!-- Created by ERK -->

<svg
   height="160.901"
   viewBox="0 0 599.476 209.172"
   width="461.136"
   version="1.1"
   id="svg6"
   sodipodi:docname="capcom.svg"
   inkscape:version="1.4 (86a8ad7, 2024-10-11)"
   xmlns:inkscape="http://www.inkscape.org/namespaces/inkscape"
   xmlns:sodipodi="http://sodipodi.sourceforge.net/DTD/sodipodi-0.dtd"
   xmlns="http://www.w3.org/2000/svg"
   xmlns:svg="http://www.w3.org/2000/svg">
  <defs
     id="defs6" />
  <sodipodi:namedview
     id="namedview6"
     pagecolor="#ffffff"
     bordercolor="#000000"
     borderopacity="0.25"
     inkscape:showpageshadow="2"
     inkscape:pageopacity="0.0"
     inkscape:pagecheckerboard="true"
     inkscape:deskcolor="#d1d1d1"
     inkscape:zoom="4.0053261"
     inkscape:cx="245.17355"
     inkscape:cy="81.516459"
     inkscape:window-width="3840"
     inkscape:window-height="2066"
     inkscape:window-x="-11"
     inkscape:window-y="-11"
     inkscape:window-maximized="1"
     inkscape:current-layer="g6" />
  <g
     id="g6"
     inkscape:label="Logo">
    <path
       d="M 429.71,0 C 410.6,0 393.558,8.258 382.48,21.153 379.208,16.95 375.21,12.535 370.842,9.428 361.674,2.58 349.787,0.496 337.083,0.154 315.577,-0.426 298.376,11.199 290.455,24.268 283.763,10.912 277.76,3.937 254.479,2.778 h -56.42 l 0.013,23.526 c 0,0 2.683,0.858 3.59,1.854 0.757,0.83 1.262,3.126 1.262,3.126 l -0.133,52.365 c 0,0 -1.476,-1.07 -2.064,-1.757 -1.095,-1.276 -2.648,-4.294 -2.648,-4.294 L 169.172,2.753 132.519,2.778 100.669,86.079 V 68.25 H 77.75 c -1.804,4.979 -6.872,8.341 -12.984,8.341 -3.22,0 -6.665,-0.76 -9.455,-2.437 -3.637,-2.186 -6.354,-4.783 -8.592,-9.396 -1.76,-4.268 -3.108,-9.495 -3.264,-14.12 0.536,-9.145 3.314,-12.405 8.398,-16.177 1.128,-0.837 4.277,-1.505 5.185,-1.51 1.997,-0.009 3.662,1.203 4.565,2.99 1.312,2.599 -0.609,5.747 -2.509,7.987 L 77.625,56.7 106.246,26.74 C 96.26,10.816 78.015,0.157 57.162,0.157 25.592,0.158 0,24.59 0,54.728 c 0,30.138 24.773,52.928 57.162,55.386 l 4.096,0.165 h 43.568 v -0.021 h 101.437 v -0.007 l 38.137,-0.054 v -0.061 h 5.965 V 87.717 c 0,0 -3.196,-0.666 -4.51,-1.563 -1.382,-0.94 -1.513,-2.423 -1.513,-2.423 -0.024,-0.572 0.09,-1.01 0.39,-1.383 0.295,-0.367 0.984,-0.616 1.244,-0.67 a 89.722,89.722 0 0 0 11.974,-3.4 c 10.726,-3.859 19.752,-9.35 26.16,-15.417 4.287,25.345 26.55,43.84 53.464,46.927 1.758,0.202 3.272,0.354 4.916,0.413 0.436,0.015 1.311,-0.018 1.311,-0.018 h 38.065 l -0.115,-18.741 c 9.899,10.994 29.186,21.533 48.653,21.533 15.907,0 30.175,-6.968 40.231,-15.585 l -0.081,12.961 h 48.066 l 0.246,-19.83 12.531,0.164 v -0.218 l 16.815,0.147 v 19.665 h 51.264 V 84.222 c 0,0 -2.188,-0.14 -3.045,-0.738 -1.158,-0.809 -2.358,-3.524 -2.358,-3.524 l -7.205,-47.873 c 0,0 0.216,-3.203 1.147,-4.399 0.765,-0.984 3.274,-1.803 3.274,-1.803 V 2.778 H 540.186 V 3.434 L 536.582,15.561 531.397,3.355 V 2.778 h -0.244 l -0.14,-0.326 -0.01,0.326 H 481.69 v 24.254 l -3.368,-4.588 C 469.073,8.95 452.834,0 434.343,0 c -0.755,0 -1.505,0.014 -2.25,0.043 A 65.988,65.988 0 0 0 429.708,0 Z m -329.675,90.818 -0.004,0.237 h -0.215 z"
       fill="#0c4da2"
       id="path1"
       style="display:inline;stroke-width:8.72"
       inkscape:label="CapcomOutline" />
    <path
       d="M 57.124,10.41 C 31.1,10.575 9.844,29.54 9.844,54.35 c 0,24.81 23.464,46.122 51.866,45.48 l 27.599,0.079 V 78.17 h -5.213 c -1.637,4.099 -9.286,8.108 -14.832,8.108 -2.923,0 -10.28,-0.398 -13.002,-1.351 -4.805,-1.684 -11.661,-4.101 -17.623,-14.126 -1.598,-3.514 -6.096,-12.077 -5.09,-24.57 0.486,-7.529 5.266,-16.927 13.843,-21.183 3.74,-1.856 7.506,-2.16 14.117,-1.56 4.746,0.43 9.462,3.77 11.108,7.777 1.274,3.099 0.908,6.875 -0.591,9.027 a 0.548,0.548 0 0 0 -0.087,0.436 c 0.017,0.111 0.161,0.297 0.161,0.297 l 2.612,2.042 c 0,0 0.744,0.517 1.613,0.494 0.504,-0.014 1.406,-0.562 1.406,-0.562 L 92.651,27.335 C 83.427,14.884 67.036,10.411 57.124,10.411 Z M 429.953,9.99 c -27.59,0 -49.957,20.763 -49.957,46.376 0,25.613 22.367,46.375 49.957,46.375 27.59,0 49.957,-20.763 49.957,-46.375 0,-25.612 -22.367,-46.376 -49.957,-46.376 z m 0.326,14.418 c 14.202,0 21.814,10.168 24.9,22.289 0.883,3.47 0.525,15.005 -0.002,18.846 -1.604,11.713 -11.174,23.128 -25.06,22.777 -13.53,-0.343 -22.582,-6.646 -25.386,-23.596 -0.82,-4.959 -0.835,-10.916 -0.167,-15.897 1.938,-14.444 11.513,-24.419 25.715,-24.419 z M 139.376,12.869 c 0,0 -21.937,59.39 -25.868,70.206 -3.931,10.816 -8.352,10.489 -8.352,10.489 l 0.326,6.553 26.514,-0.007 0.021,-6.295 c 0,0 -1.701,-0.088 -2.949,-1.233 -2.42,-2.222 -0.888,-6.693 -0.888,-6.693 l 6.13,-15.69 27.227,0.057 c 0,0 5.307,13.258 6.607,17.633 1.696,5.71 -3.6,5.811 -3.6,5.811 v 6.399 l 33.528,-0.018 -0.021,-6.327 c 0,0 -1.997,-0.305 -4.12,-2.158 -2.41,-2.102 -4.05,-6.438 -4.05,-6.438 L 162.423,12.93 Z m 7.872,18.26 9.09,25.32 -17.606,0.078 z m 61.537,-18.353 -0.129,7.28 c 0,0 2.131,0.611 4.17,2.875 1.082,1.2 0.413,16.436 0.413,16.436 l -0.036,48.77 c 0,0 0.695,1.922 -1.637,3.853 -0.88,0.73 -1.66,1.502 -3.02,1.62 l -0.162,6.489 31.075,0.075 0.075,-6.6 c 0,0 -1.1,-0.433 -2.823,-1.989 -0.973,-0.878 -1.573,-2.142 -1.559,-3.402 0.026,-4.405 0.13,-8.639 0.108,-12.94 10.885,-2.623 20.282,-7.071 23.944,-8.42 13.769,-5.498 24.453,-14.225 23.827,-29.793 -0.118,-11.03 -5.71,-20.071 -17.689,-22.114 -5.46,-1.579 -7.968,-1.854 -10.122,-1.975 z m 35.54,12.365 c 3.351,-0.065 7.3,0.704 10.338,2.235 3.788,2.516 6.093,5.122 6.093,10.636 0.156,2.592 -0.588,4.82 -1.835,7.087 -1.297,2.167 -5.223,6.327 -7.701,8.707 -7.246,5.183 -9.84,6.702 -15.596,9.353 l -0.092,-36.948 c 3.068,-0.579 5.82,-1.05 8.792,-1.07 z M 340.15,10.469 c -26.024,0.164 -47.279,19.13 -47.279,43.94 0,24.81 23.464,46.121 51.866,45.48 l 27.599,0.078 V 78.228 h -5.213 c -1.638,4.099 -9.287,8.108 -14.832,8.108 -2.923,0 -10.28,-0.398 -13.002,-1.351 -4.805,-1.684 -11.662,-4.101 -17.623,-14.126 -1.598,-3.514 -6.096,-12.078 -5.091,-24.57 0.487,-7.529 5.267,-16.927 13.844,-21.183 3.74,-1.856 7.505,-2.16 14.116,-1.56 4.747,0.43 9.463,3.77 11.11,7.776 1.273,3.1 0.907,6.876 -0.592,9.028 a 0.548,0.548 0 0 0 -0.088,0.436 c 0.017,0.111 0.162,0.297 0.162,0.297 l 2.612,2.042 c 0,0 0.744,0.517 1.613,0.493 0.504,-0.013 1.406,-0.56 1.406,-0.56 L 375.677,27.393 C 366.454,14.942 350.063,10.469 340.151,10.469 Z m 152.247,2.479 0.028,6.255 c 0,0 2.734,0.737 3.82,1.595 1.24,0.982 0.928,2.725 0.928,2.725 0,0 -9.918,61.659 -10.133,62.803 -0.231,1.232 -0.56,4.108 -2.29,5.707 -1.72,1.59 -3.704,1.91 -3.704,1.91 l -0.029,6.17 h 27.768 V 94.35 c 0,0 -2.26,-0.175 -3.766,-1.681 -1.505,-1.507 -1.07,-5.646 -1.07,-5.646 l 6.832,-46.583 13.898,40.091 16.93,0.233 13.75,-43.174 7.675,49.662 c 0,0 0.926,3.734 -1.07,5.65 -1.538,1.474 -3.763,1.681 -3.763,1.681 v 5.764 h 32.168 l -0.029,-6.17 c 0,0 -0.72,0.248 -2.547,-1.218 -1.075,-0.862 -1.593,-4.705 -1.824,-5.936 -0.216,-1.145 -8.882,-63.187 -8.882,-63.187 0,0 -0.151,-2.562 1.254,-3.872 1.012,-0.944 3.085,-1.839 3.085,-1.839 l -0.05,-5.108 -33.397,-0.04 -12.222,35.22 -11.655,-35.22 z"
       id="path2"
       style="display:inline;fill:#ffcb08;stroke-width:8.72"
       inkscape:label="Capcom" />
    <path
       d="m 118.255,132.785 c -20.608,0 -36.456,16.293 -36.456,36.94 0,6.863 1.99,16.422 8.908,24.774 6.917,8.351 18.837,14.673 36.072,14.673 4.618,0 9.487,-0.352 14.375,-1.524 a 6.962,7.116 0 0 0 1.783,-1.158 6.962,7.116 0 0 0 2.954,1.25 h 46.524 a 6.962,7.116 0 0 0 1.547,-0.655 6.962,7.116 0 0 0 1.548,0.655 h 16.336 a 6.962,7.116 0 0 0 6.96,-7.114 v -3.06 a 6.962,7.116 0 0 0 -2.484,-5.05 l 2.376,-6.275 h 11.031 l 2.618,6.342 a 6.962,7.116 0 0 0 -2.292,4.982 v 3.06 a 6.962,7.116 0 0 0 6.961,7.115 h 19.502 a 6.962,7.116 0 0 0 6.961,-7.114 v -0.255 c 1.57,1.472 3.217,2.845 5.065,3.975 5.359,3.275 11.722,4.698 19.022,4.698 6.953,0 14.37,-1.542 20.704,-5.668 2.823,-1.838 5.304,-4.44 7.287,-7.481 2.636,3.31 5.473,6.302 8.989,8.451 5.358,3.275 11.721,4.698 19.021,4.698 6.954,0 14.37,-1.542 20.704,-5.668 1.396,-0.909 2.694,-2.044 3.926,-3.266 v 0.571 a 6.962,7.116 0 0 0 6.96,7.115 h 18.958 a 6.962,7.116 0 0 0 6.96,-7.115 v -3.076 a 6.962,7.116 0 0 0 -3.67,-5.776 c -0.023,-0.32 -0.052,-0.502 -0.052,-0.96 v -5.489 c 1.343,3.079 2.997,6.169 5.44,9.119 6.917,8.351 18.837,14.673 36.072,14.673 4.618,0 9.489,-0.351 14.377,-1.524 a 6.962,7.116 0 0 0 5.369,-6.927 v -1.853 c 1.994,2.103 4.154,3.97 6.62,5.478 5.359,3.275 11.722,4.698 19.022,4.698 6.954,0 14.37,-1.542 20.704,-5.668 6.334,-4.126 11.396,-11.647 11.396,-20.907 0,-7.887 -3.678,-14.52 -8.55,-18.336 -0.682,-0.533 -1.399,-0.933 -2.102,-1.386 l 6.817,-6.113 a 6.962,7.116 0 0 0 0.937,-9.676 c -7.288,-9.726 -18.451,-14.014 -29.529,-14.014 -6.2,0 -12.977,1.157 -18.94,4.803 -2.974,1.818 -5.686,4.495 -7.66,7.8 -6.659,-7.873 -16.508,-12.762 -26.982,-12.762 -14.936,0 -27.277,8.618 -32.991,21.189 v -2.855 c 0,-0.458 0.03,-0.64 0.052,-0.96 a 6.962,7.116 0 0 0 3.67,-5.776 v -3.076 a 6.962,7.116 0 0 0 -6.96,-7.115 h -18.958 a 6.962,7.116 0 0 0 -6.96,7.115 v 0.76 c -6.982,-6.245 -15.979,-9.123 -24.956,-9.123 -6.202,0 -12.978,1.157 -18.94,4.803 -3.205,1.96 -6.03,4.968 -8.03,8.633 -7.292,-9.292 -18.188,-13.436 -29.03,-13.436 -6.201,0 -12.977,1.157 -18.94,4.803 -5.963,3.645 -10.882,10.726 -10.882,19.444 0,7.59 3.892,14.021 8.788,17.396 0.034,0.023 0.07,0.036 0.104,0.059 l -8.832,6.08 a 6.962,7.116 0 0 0 -1.563,2.383 l -17.534,-44.195 a 6.962,7.116 0 0 0 -6.45,-4.441 h -12.085 a 6.962,7.116 0 0 0 -6.475,4.506 l -16.576,42.995 a 6.962,7.116 0 0 0 -4.381,-1.854 h -4.4 a 6.962,7.116 0 0 0 -6.686,5.918 c -0.214,0.038 -1.007,0.274 -2.722,0.274 h -9.926 v -35.57 c 0,-0.445 0.03,-0.61 0.053,-0.923 a 6.962,7.116 0 0 0 3.817,-5.858 v -3.096 a 6.962,7.116 0 0 0 -6.96,-7.115 h -19.7 a 6.962,7.116 0 0 0 -6.597,6.216 c -6.006,-4.517 -13.345,-7.181 -21.039,-7.181 z m 174.977,21.242 a 6.962,7.116 0 0 0 -0.209,1.307 c -0.009,-0.043 -0.05,-0.111 -0.05,-0.14 0,-0.187 0.432,-1.462 0.259,-1.167 z m 56,0 a 6.962,7.116 0 0 0 -0.21,1.307 c -0.008,-0.043 -0.05,-0.111 -0.05,-0.14 0,-0.187 0.433,-1.462 0.26,-1.167 z m 140.685,0 a 6.962,7.116 0 0 0 -0.209,1.307 c -0.009,-0.043 -0.05,-0.111 -0.05,-0.14 0,-0.187 0.432,-1.462 0.259,-1.167 z m -372.079,0.674 c 1.545,0 3.298,0.555 4.09,1.094 0.672,0.457 0.565,0.435 0.549,0.693 a 6.962,7.116 0 0 0 1.533,8.998 l 3.26,2.589 a 6.962,7.116 0 0 0 8.927,-0.328 l 6.603,-6.072 v 21.272 a 6.962,7.116 0 0 0 -3.238,-1.37 h -4.177 a 6.962,7.116 0 0 0 -6.647,5.005 c -0.202,0.666 0.15,0.13 -0.114,0.255 -0.264,0.126 -1.464,0.42 -3.267,0.42 -10.492,0 -17.605,-8.403 -17.605,-18.784 0,-3.651 1.165,-7.52 2.961,-10.005 1.797,-2.484 3.712,-3.767 7.125,-3.767 z m 312.086,0 c 1.546,0 3.3,0.556 4.092,1.096 0.672,0.457 0.565,0.434 0.549,0.69 a 6.962,7.116 0 0 0 1.534,8.999 l 3.259,2.589 a 6.962,7.116 0 0 0 8.927,-0.33 l 6.404,-5.89 c 1.206,5.506 4.355,10.08 8.203,12.732 0.034,0.023 0.07,0.038 0.104,0.061 l -8.83,6.078 a 6.962,7.116 0 0 0 -0.984,1.498 6.962,7.116 0 0 0 -1.532,-0.647 h -4.178 a 6.962,7.116 0 0 0 -6.648,5.005 c -0.202,0.667 0.15,0.13 -0.114,0.255 -0.263,0.125 -1.462,0.42 -3.265,0.42 -10.492,0 -17.605,-8.403 -17.605,-18.784 0,-3.652 1.165,-7.52 2.961,-10.005 1.797,-2.484 3.71,-3.767 7.123,-3.767 z m -142.683,0.124 c 1.436,0 4.022,0.407 5.307,0.964 0.298,0.129 0.235,0.113 0.371,0.203 a 6.962,7.116 0 0 0 -0.112,0.707 c -2.616,-0.61 -4.907,-1.19 -6.727,-1.708 0.453,-0.034 0.733,-0.166 1.161,-0.166 z m 56,0 c 1.436,0 4.022,0.407 5.307,0.964 0.297,0.129 0.235,0.113 0.37,0.203 a 6.962,7.116 0 0 0 -0.112,0.705 c -2.615,-0.61 -4.907,-1.188 -6.726,-1.706 0.453,-0.034 0.732,-0.166 1.16,-0.166 z m 140.685,0 c 1.436,0 4.022,0.407 5.307,0.964 0.298,0.129 0.235,0.113 0.371,0.203 a 6.962,7.116 0 0 0 -0.112,0.707 c -2.616,-0.61 -4.907,-1.19 -6.727,-1.708 0.454,-0.034 0.733,-0.166 1.161,-0.166 z m -112.005,1.7 v 13.202 c -1.37,-2.18 -2.951,-4.143 -4.804,-5.594 -0.681,-0.533 -1.399,-0.933 -2.102,-1.386 l 6.818,-6.113 a 6.962,7.116 0 0 0 0.088,-0.109 z m -58.321,2.109 c 0.47,6.936 4.035,12.802 8.606,15.953 0.035,0.023 0.07,0.038 0.105,0.061 l -3.285,2.26 c -1.25,-5.412 -4.236,-9.897 -7.91,-12.775 -0.682,-0.533 -1.399,-0.933 -2.103,-1.386 z m -30.878,21.928 c 4.124,0.897 7.852,1.702 9.774,2.555 1.083,0.481 1.508,0.9 1.542,0.942 0.033,0.041 -0.008,-0.312 -0.008,0.24 0,0.773 0.059,0.697 -1.264,1.476 -1.322,0.779 -3.862,1.39 -5.606,1.39 -1.362,0 -3.886,-0.544 -5.2,-1.262 -1,-0.546 -0.802,-0.466 -0.777,-0.523 a 6.962,7.116 0 0 0 1.54,-4.818 z m 56,0 c 4.124,0.897 7.852,1.702 9.773,2.555 1.084,0.481 1.509,0.9 1.542,0.942 0.033,0.041 -0.008,-0.312 -0.008,0.24 0,0.773 0.06,0.697 -1.263,1.476 -1.323,0.779 -3.862,1.39 -5.607,1.39 -1.361,0 -3.886,-0.542 -5.2,-1.26 -1.002,-0.547 -0.802,-0.47 -0.777,-0.527 a 6.962,7.116 0 0 0 1.54,-4.816 z m 140.686,0 c 4.123,0.897 7.851,1.702 9.773,2.555 1.084,0.481 1.509,0.9 1.542,0.942 0.033,0.041 -0.008,-0.312 -0.008,0.24 0,0.773 0.059,0.697 -1.264,1.476 -1.322,0.779 -3.862,1.39 -5.606,1.39 -1.362,0 -3.886,-0.544 -5.2,-1.262 -1.002,-0.547 -0.802,-0.468 -0.777,-0.525 a 6.962,7.116 0 0 0 1.54,-4.816 z"
       id="path3"
       style="display:inline;fill:#0c4da2;stroke-width:6"
       inkscape:label="ClassicsOutline" />
    <path
       d="m 205.99,184.33 h 36.041 v 23.147 h -36.04 z m 206.337,-34.482 h 51.121 v 43.078 h -51.12 z"
       id="path4"
       style="display:inline;fill:#0c4da2;stroke-width:6"
       inkscape:label="ClassicsOutline2" />
    <path
       d="m 141.986,152.85 c -5.18,-7.77 -14.372,-12.95 -23.73,-12.95 -17.297,0 -29.497,12.615 -29.497,29.826 0,10.694 6.685,32.332 38.02,32.332 4.261,0 8.606,-0.334 12.784,-1.337 v -12.03 h -4.178 c -1.42,4.678 -5.431,5.68 -10.027,5.68 -14.289,0 -24.566,-11.946 -24.566,-25.898 0,-10.11 5.849,-20.887 17.046,-20.887 5.598,0 11.698,3.091 11.698,9.023 0,1.42 -0.585,2.34 -1.253,3.258 l 3.258,2.59 z m 3.905,47.775 h 46.523 v -13.391 h -4.397 c -0.528,5.356 -4.661,6.193 -9.41,6.193 H 161.72 v -42.686 c 0,-3.6 0,-6.11 3.87,-6.78 v -3.097 h -19.7 v 3.097 c 3.87,0.67 3.87,3.18 3.87,6.78 v 40.008 c 0,3.599 0,6.11 -3.87,6.78 z m 86.04,-59.038 h -12.085 l -19.252,49.943 c -0.917,2.315 -2,5.87 -5.084,6.036 v 3.06 h 16.335 v -3.06 c -3.833,-0.992 -3.917,-2.729 -2.583,-6.119 l 4.667,-12.32 h 20.42 l 5.083,12.32 c 1.417,3.39 1.834,5.458 -2.417,6.12 v 3.058 h 19.503 v -3.059 c -2.584,-0.33 -3.25,-2.15 -4.084,-4.3 z m -15.585,30.429 7.5,-19.597 7.835,19.597 z m 45.022,14.612 c 6.672,10.561 13.262,15.301 26.198,15.301 11.716,0 25.14,-5.655 25.14,-19.459 0,-24.033 -37.263,-15.052 -37.263,-27.692 0,-6.07 7.16,-7.068 11.798,-7.068 4.474,0 12.692,1.58 12.692,7.484 0,0.998 -0.244,1.663 -0.732,2.495 l 2.766,1.912 9.275,-8.316 c -5.858,-7.816 -14.564,-11.226 -24.001,-11.226 -10.496,0 -22.863,4.407 -22.863,17.13 0,22.454 36.612,11.394 36.612,27.11 0,7.069 -8.054,9.98 -13.83,9.98 -5.045,0 -13.181,-2.578 -13.181,-9.065 0,-1.663 0.814,-3.16 1.871,-4.324 l -2.522,-2.495 z m 56,0 c 6.672,10.561 13.262,15.301 26.198,15.301 11.716,0 25.14,-5.655 25.14,-19.459 0,-24.033 -37.262,-15.052 -37.262,-27.692 0,-6.07 7.16,-7.068 11.797,-7.068 4.475,0 12.692,1.58 12.692,7.484 0,0.998 -0.244,1.663 -0.732,2.495 l 2.766,1.912 9.275,-8.316 c -5.858,-7.816 -14.563,-11.226 -24.001,-11.226 -10.495,0 -22.862,4.407 -22.862,17.13 0,22.454 36.612,11.394 36.612,27.11 0,7.069 -8.055,9.98 -13.831,9.98 -5.045,0 -13.18,-2.578 -13.18,-9.065 0,-1.663 0.813,-3.16 1.87,-4.324 l -2.522,-2.495 z m 73.023,-35.508 c 0,-3.577 0,-6.071 3.724,-6.737 v -3.077 h -18.957 v 3.077 c 3.724,0.666 3.724,3.16 3.724,6.736 v 39.75 c 0,3.576 0,6.07 -3.724,6.736 v 3.077 h 18.957 v -3.077 c -3.724,-0.665 -3.724,-3.16 -3.724,-6.736 z m 63.683,1.73 c -5.181,-7.77 -14.372,-12.95 -23.731,-12.95 -17.297,0 -29.496,12.615 -29.496,29.826 0,10.694 6.684,32.332 38.019,32.332 4.261,0 8.607,-0.334 12.784,-1.337 v -12.03 h -4.177 c -1.421,4.678 -5.432,5.68 -10.028,5.68 -14.288,0 -24.566,-11.946 -24.566,-25.898 0,-10.11 5.85,-20.887 17.046,-20.887 5.599,0 11.698,3.091 11.698,9.023 0,1.42 -0.585,2.34 -1.253,3.258 l 3.259,2.59 z m 3.98,33.778 c 6.671,10.561 13.262,15.301 26.198,15.301 11.716,0 25.14,-5.655 25.14,-19.459 0,-24.033 -37.263,-15.052 -37.263,-27.692 0,-6.07 7.16,-7.068 11.797,-7.068 4.475,0 12.693,1.58 12.693,7.484 0,0.998 -0.245,1.663 -0.733,2.495 l 2.767,1.912 9.275,-8.316 c -5.858,-7.816 -14.564,-11.226 -24.002,-11.226 -10.495,0 -22.862,4.407 -22.862,17.13 0,22.454 36.612,11.394 36.612,27.11 0,7.069 -8.054,9.98 -13.831,9.98 -5.044,0 -13.18,-2.578 -13.18,-9.065 0,-1.663 0.813,-3.16 1.871,-4.324 l -2.522,-2.495 z"
       id="path5"
       style="fill:#ffcb08;stroke-width:6"
       inkscape:label="Classics" />
  </g>
</svg>
