<?xml version="1.0" encoding="UTF-8" standalone="no"?>
<!-- Created by ERK -->

<svg
   width="1918.2257mm"
   height="468.40292mm"
   viewBox="0 0 1918.2257 468.40293"
   version="1.1"
   id="svg1"
   inkscape:version="1.4 (86a8ad7, 2024-10-11)"
   xml:space="preserve"
   sodipodi:docname="catacombgl.svg"
   xmlns:inkscape="http://www.inkscape.org/namespaces/inkscape"
   xmlns:sodipodi="http://sodipodi.sourceforge.net/DTD/sodipodi-0.dtd"
   xmlns="http://www.w3.org/2000/svg"
   xmlns:svg="http://www.w3.org/2000/svg"><sodipodi:namedview
     id="namedview1"
     pagecolor="#ffffff"
     bordercolor="#000000"
     borderopacity="0.25"
     inkscape:showpageshadow="2"
     inkscape:pageopacity="0.0"
     inkscape:pagecheckerboard="true"
     inkscape:deskcolor="#d1d1d1"
     inkscape:document-units="mm"
     inkscape:zoom="0.20589839"
     inkscape:cx="3691.1411"
     inkscape:cy="694.51734"
     inkscape:window-width="2508"
     inkscape:window-height="1003"
     inkscape:window-x="-9"
     inkscape:window-y="0"
     inkscape:window-maximized="0"
     inkscape:current-layer="g23" /><defs
     id="defs1"><marker
       id="DistanceX"
       orient="auto"
       refX="0"
       refY="0"
       style="overflow:visible"><path
         d="M 3,-3 -3,3 M 0,-5 V 5"
         style="stroke:#000000;stroke-width:0.5"
         id="path1" /></marker><pattern
       id="Hatch"
       patternUnits="userSpaceOnUse"
       width="8"
       height="8"
       x="0"
       y="0"><path
         d="M8 4 l-4,4"
         stroke="#000000"
         stroke-width="0.25"
         linecap="square"
         id="path2" /><path
         d="M6 2 l-4,4"
         stroke="#000000"
         stroke-width="0.25"
         linecap="square"
         id="path3" /><path
         d="M4 0 l-4,4"
         stroke="#000000"
         stroke-width="0.25"
         linecap="square"
         id="path4" /></pattern><symbol
       id="*Model_Space" /><symbol
       id="*Paper_Space" /><symbol
       id="*Paper_Space0" /><filter
       inkscape:collect="always"
       style="color-interpolation-filters:sRGB"
       id="filter53"
       x="-0.0035230187"
       y="-0.015573831"
       width="1.007046"
       height="1.0311477"><feGaussianBlur
         inkscape:collect="always"
         stdDeviation="2.7586399"
         id="feGaussianBlur53" /></filter></defs><g
     id="g53"
     inkscape:label="Catacomb GL Glow"
     style="mix-blend-mode:normal;fill:#3434dd;fill-opacity:0.745098;stroke:#2727cd;stroke-width:12.9;stroke-dasharray:none;stroke-opacity:0.564706;filter:url(#filter53)"
     transform="translate(22.974794,42.738044)"><path
       id="path72"
       style="fill-opacity:0.745098;stroke:none;stroke-linecap:round;stroke-opacity:1"
       d="M 30.472559,-9.4454183 C 19.918085,-9.4453717 8.3878442,-8.0760368 0.0217041,0.27905273 -8.3479084,8.6376109 -9.7265411,20.176531 -9.7265381,30.753678 V 262.75399 c -3e-6,10.55356 1.3668264,22.08422 9.72240399,30.45085 8.35902151,8.37008 19.89946411,9.7483 30.47669311,9.74824 h 57.000138 c 10.553671,6e-5 22.084773,-1.36686 30.451373,-9.7224 8.37011,-8.35907 9.74768,-19.89963 9.74772,-30.47669 v -97.89842 l -63.898422,49.92357 v 47.47462 c 3e-6,0.38352 -0.533103,1.92131 -1.703255,3.09387 -1.170151,1.17255 -2.69534,1.70687 -3.097485,1.70687 -0.383582,0 -1.921317,-0.53259 -3.093868,-1.70274 -1.17255,-1.17015 -1.706876,-2.69592 -1.706873,-3.098 V 31.253906 c -3e-6,-0.383566 0.533111,-1.921328 1.703255,-3.093868 1.170144,-1.17254 2.695319,-1.706872 3.097486,-1.706872 0.383604,0 1.921326,0.533115 3.093868,1.703255 1.172542,1.17014 1.706875,2.69534 1.706872,3.097485 V 118.8651 L 127.67179,67.118901 V 30.753678 C 127.67175,20.199217 126.3024,8.6689661 117.94732,0.30282389 109.58875,-8.0668001 98.049808,-9.4453715 87.472697,-9.4454183 Z"
       inkscape:label="C" /><path
       id="path70"
       style="fill-opacity:0.745098;stroke:none;stroke-linecap:round;stroke-opacity:1"
       d="M 122.55066,-9.4454183 164.10368,23.667806 V 129.55488 h -46.30312 l 46.30312,36.17557 v 237.78342 l 64.39813,-49.71118 V 170.95287 h 14.6017 v 232.561 l 64.4002,-49.71118 V 30.753678 C 307.5039,8.5532094 289.56976,-9.4453624 267.30461,-9.4454183 Z M 228.50181,28.613241 h 9.80096 c 0.3835,-3e-6 1.92129,0.533083 3.09386,1.703255 1.17258,1.170172 1.70689,2.695612 1.70688,3.097485 v 96.140899 h -14.6017 z"
       inkscape:label="A" /><path
       id="path68"
       style="fill-opacity:0.745098;stroke:none;stroke-linecap:round;stroke-opacity:1"
       d="m 290.80447,-9.4454183 63.23077,49.3985353 h 13.12684 l -5.30665,363.796913 64.63482,-49.89049 4.53719,-311.078172 70.72281,-5.478735 -70.44169,-46.7480513 z"
       inkscape:label="T" /><path
       id="path66"
       style="fill-opacity:0.745098;stroke:none;stroke-linecap:round;stroke-opacity:1"
       d="M 439.09775,-9.4454183 480.65232,23.667806 V 129.55488 h -46.3026 l 46.3026,36.17557 v 237.78342 l 64.39865,-49.71118 V 170.95287 h 14.59962 v 232.561 l 64.39814,-49.71118 0.002,-323.049012 C 624.05094,8.5528547 606.11685,-9.4453624 583.8517,-9.4454183 Z M 545.05097,28.613241 h 9.80043 c 0.38349,-3e-6 1.91961,0.533256 3.0918,1.703255 1.17218,1.169999 1.7074,2.694994 1.70739,3.097485 v 96.140899 h -14.59962 z"
       inkscape:label="A" /><path
       id="path64"
       style="fill-opacity:0.745098;stroke:none;stroke-linecap:round;stroke-opacity:1"
       d="m 687.97248,-9.4454183 c -10.55447,4.66e-5 -22.08471,1.369382 -30.45086,9.72447103 C 649.15201,8.6376115 647.77338,20.176534 647.77338,30.753678 V 262.75399 c 0,10.55355 1.36733,22.08422 9.72292,30.45085 8.35902,8.37009 19.89895,9.7483 30.47618,9.74824 h 57.00014 c 10.55367,6e-5 22.08477,-1.36686 30.45137,-9.7224 8.37011,-8.35907 9.74769,-19.89963 9.74772,-30.47669 v -97.89842 l -63.89842,49.92357 v 47.47462 c 0,0.38351 -0.53258,1.92131 -1.70274,3.09387 -1.17015,1.17255 -2.69586,1.70687 -3.098,1.70687 -0.38359,0 -1.92132,-0.53259 -3.09387,-1.70274 -1.17255,-1.17015 -1.70687,-2.69592 -1.70687,-3.098 V 31.253906 c 0,-0.383564 0.53311,-1.921329 1.70325,-3.093868 1.17014,-1.172538 2.69531,-1.706872 3.09749,-1.706872 0.3836,0 1.92131,0.533114 3.09386,1.703255 1.17254,1.170141 1.70688,2.695341 1.70688,3.097485 V 118.8651 L 785.17171,67.118901 V 30.753678 C 785.17168,20.199217 783.80232,8.6689661 775.44724,0.30282389 767.08867,-8.0667994 755.54973,-9.4453715 744.97262,-9.4454183 Z"
       inkscape:label="C" /><path
       id="path62"
       style="fill-opacity:0.745098;stroke:none;stroke-linecap:round;stroke-opacity:1"
       d="m 849.97241,-9.4454183 c -22.20073,5.59e-5 -40.19861,17.9337117 -40.1991,40.1990963 V 262.75399 c 4.9e-4,22.20033 17.93328,40.19915 40.1991,40.19909 h 57.00014 c 22.20085,6e-5 40.19867,-17.93374 40.19909,-40.19909 V 30.753678 C 947.17122,8.5532928 929.23834,-9.4453624 906.97255,-9.4454183 Z m 28.50007,45.3595053 c 0.38363,0 1.92135,0.533136 3.09387,1.703255 1.17252,1.17012 1.70531,2.695052 1.70532,3.097485 V 252.79491 c -10e-6,0.38383 -0.53106,1.92133 -1.70119,3.09386 -1.17012,1.17253 -2.69582,1.70688 -3.098,1.70688 -0.38295,0 -1.91916,-0.53292 -3.0918,-1.70326 -1.17183,-1.16953 -1.70806,-2.69307 -1.70894,-3.09748 v -0.002 -212.078013 c 2e-5,-0.383959 0.53315,-1.921361 1.70325,-3.093868 1.1701,-1.172508 2.69523,-1.706872 3.09749,-1.706872 z"
       inkscape:label="O" /><path
       id="path60"
       style="fill-opacity:0.745098;stroke:none;stroke-linecap:round;stroke-opacity:1"
       d="M 912.71483,-9.4454183 970.78726,35.923905 V 404.14071 l 64.39814,-52.15238 V 41.146326 h 4.8007 c 0.3832,10e-7 1.9196,0.533222 3.0918,1.703255 1.1723,1.170034 1.7074,2.694993 1.7074,3.097485 V 404.14071 l 64.3982,-52.15238 V 41.146326 h 4.8007 c 0.3834,10e-7 1.9208,0.53455 3.0939,1.705322 1.1731,1.170773 1.7089,2.695471 1.7089,3.097485 V 404.14071 l 64.3987,-52.15238 V 40.754102 c -3e-4,-12.447209 -4.8011,-24.512096 -12.6292,-33.8594324 -7.8529,-9.3770589 -19.3092,-16.3400588 -32.5722,-16.3400879 z"
       inkscape:label="M" /><path
       id="path58"
       style="fill-opacity:0.745098;stroke:none;stroke-linecap:round;stroke-opacity:1"
       d="m 1167.8263,-10.050549 45.1058,36.040694 v 96.511935 h -53.5001 l 53.5001,37.12487 v 107.70712 l -49.0275,35.61901 h 147.2266 c 13.6597,3e-5 25.837,-4.23838 33.9256,-13.48238 8.0393,-9.18755 11.275,-21.89784 11.2753,-36.71662 V 181.4158 c -3e-4,-11.61671 -2.1478,-21.91803 -7.2791,-30.37282 v -0.002 c -1.9154,-3.15593 -4.2683,-5.92475 -6.9236,-8.34368 2.6552,-2.41895 5.0082,-5.18783 6.9236,-8.34367 v -0.002 c 5.1312,-8.45438 7.2788,-18.75458 7.2791,-30.37127 V 40.754102 c -3e-4,-14.818714 -3.2358,-27.529629 -11.2753,-36.7171391 -8.0885,-9.2437242 -20.2657,-13.4823564 -33.9256,-13.4823812 h -87.9455 z m 109.0528,40.691056 h 8.4026 c 0.3828,1e-6 1.9197,0.533233 3.0918,1.703255 1.1722,1.170022 1.7068,2.694707 1.7068,3.097486 v 82.260092 c 0,0.38425 -0.5335,1.92094 -1.7032,3.09335 -1.1698,1.17242 -2.694,1.70739 -3.0954,1.70739 h -8.4026 z m 0,133.849713 h 8.4026 c 0.3827,0 1.9196,0.53322 3.0918,1.70325 1.1723,1.17002 1.7068,2.69469 1.7068,3.09749 v 88.24009 c 0,0.38426 -0.5335,1.92146 -1.7032,3.09387 -1.1698,1.17241 -2.694,1.70532 -3.0954,1.70532 h -8.4026 z"
       inkscape:label="B" /><path
       id="path56"
       style="fill-opacity:0.745098;stroke:none;stroke-linecap:round;stroke-opacity:1"
       d="m 1556.2166,-9.4454183 c -22.2004,5.59e-5 -40.1976,17.9336472 -40.197,40.1990963 V 262.75399 c -6e-4,22.20039 17.9315,40.19915 40.197,40.19909 h 33.3008 v 100.9494 l 63.8985,-50.82997 V 133.29109 H 1579.918 V 29.374951 c -10e-5,-0.383059 0.5331,-1.92129 1.7033,-3.093868 1.1702,-1.172578 2.6954,-1.706872 3.0975,-1.706872 0.3835,0 1.9198,0.533322 3.0918,1.703255 1.1721,1.169933 1.7068,2.694792 1.7068,3.097485 v 93.558629 l 63.8985,-51.746194 V 30.753678 c 3e-4,-22.2003593 -17.9319,-40.1990404 -40.1971,-40.1990963 z m 23.7014,161.9084683 9.5994,7.4998 v 104.18382 h -4.7986 c -0.3838,0 -1.9213,-0.53104 -3.0939,-1.70119 -1.1726,-1.17014 -1.707,-2.69627 -1.7069,-3.098 z"
       inkscape:label="G" /><path
       id="path54"
       style="fill-opacity:0.745098;stroke:none;stroke-linecap:round;stroke-opacity:1"
       d="m 1738.2205,-20.978564 -64.455,53.542985 V 302.95308 h 195.7871 l -56.8395,-44.404 h -74.4926 z"
       inkscape:label="L" /></g><g
     id="g23"
     inkscape:label="Catacomb GL Outline"
     style="fill:#01ffff;fill-opacity:1;stroke:none;stroke-width:7.5;stroke-dasharray:none;stroke-opacity:0.564706"
     transform="translate(22.974794,42.738044)"><path
       id="path43"
       style="stroke:none;stroke-linecap:round;stroke-opacity:0.564706"
       d="m 30.472559,-2.9961995 c -9.956025,4.4e-5 -19.429816,1.385707 -25.8924768,7.8398315 -6.4639594,6.455422 -7.8574043,15.933489 -7.8574015,25.910046 V 262.75399 c -2.8e-6,9.95596 1.3836412,19.42981 7.8377644,25.89247 6.4554209,6.46396 15.9355159,7.85746 25.9121139,7.85741 h 57.000138 c 9.956032,5e-5 19.429813,-1.38365 25.892473,-7.83777 6.46396,-6.45543 7.85737,-15.93561 7.8574,-25.91211 v -84.6739 l -50.999983,39.84563 v 44.32804 c 3.2e-5,5.39905 -5.815853,11.24996 -11.249959,11.24996 -5.399113,0 -11.250003,-5.81591 -11.24996,-11.24996 V 31.253906 c -4.3e-5,-5.399111 5.815856,-11.249959 11.24996,-11.249959 5.399111,0 11.249991,5.815851 11.249959,11.249959 V 105.34189 L 121.22257,64.043119 V 30.753678 c -3e-5,-9.955998 -1.38571,-19.429816 -7.83983,-25.892476 -6.45542,-6.4639597 -15.933483,-7.8573574 -25.910043,-7.8574015 z"
       inkscape:label="C" /><path
       id="path41"
       style="stroke:none;stroke-linecap:round;stroke-opacity:0.564706"
       d="M 140.99398,-2.9961995 170.5529,20.560502 V 136.0041 h -34.01963 l 34.01963,26.57977 v 227.80264 l 51.4997,-39.75365 V 164.50365 h 27.50013 v 225.88286 l 51.50021,-39.75365 V 30.753678 C 301.0531,11.961411 286.15838,-2.9961522 267.30461,-2.9961995 Z M 222.0526,22.164022 h 16.25017 c 5.3991,-4.3e-5 11.25014,5.816008 11.24996,11.249959 V 136.0041 H 222.0526 Z"
       inkscape:label="A" /><path
       id="path38"
       style="stroke:none;stroke-linecap:round;stroke-opacity:0.564706"
       d="m 309.53718,-2.9961995 46.71859,36.5000975 h 17.45114 l -5.20692,356.968912 51.586,-39.81876 4.57801,-313.849578 57.91223,-4.486031 -53.21277,-35.3146405 z"
       inkscape:label="T" /><path
       id="path36"
       style="stroke:none;stroke-linecap:round;stroke-opacity:0.564706"
       d="M 457.54106,-2.9961995 487.10153,20.560502 V 136.0041 h -34.01962 l 34.01962,26.57977 v 227.80264 l 51.50022,-39.75365 V 164.50365 h 27.49806 v 225.88286 l 51.4997,-39.75365 0.002,-319.879182 C 617.60174,11.961411 602.70547,-2.9961522 583.8517,-2.9961995 Z m 81.06069,25.1602215 h 16.24965 c 5.39909,-4.3e-5 11.24858,5.816008 11.24841,11.249959 V 136.0041 h -27.49806 z"
       inkscape:label="A" /><path
       id="path34"
       style="stroke:none;stroke-linecap:round;stroke-opacity:0.564706"
       d="m 687.97248,-2.9961995 c -9.95602,4.4e-5 -19.42982,1.3857091 -25.89248,7.8398315 -6.46396,6.455421 -7.8574,15.933489 -7.8574,25.910046 V 262.75399 c 0,9.95596 1.38363,19.42981 7.83776,25.89247 6.45541,6.46396 15.93552,7.85746 25.91212,7.85741 h 57.00014 c 9.95603,5e-5 19.42981,-1.38365 25.89247,-7.83777 6.46396,-6.45543 7.85737,-15.93561 7.8574,-25.91211 v -84.6739 l -50.99998,39.84563 v 44.32804 c 3e-5,5.39905 -5.81586,11.24996 -11.24996,11.24996 -5.39912,0 -11.25001,-5.81591 -11.24996,-11.24996 V 31.253906 c -5e-5,-5.399113 5.81585,-11.249959 11.24996,-11.249959 5.39911,0 11.24999,5.815853 11.24996,11.249959 V 105.34189 L 778.72249,64.043119 V 30.753678 c -3e-5,-9.955998 -1.38571,-19.429816 -7.83983,-25.892476 -6.45542,-6.4639597 -15.93348,-7.8573574 -25.91004,-7.8574015 z"
       inkscape:label="C" /><path
       id="path32"
       style="stroke:none;stroke-linecap:round;stroke-opacity:0.564706"
       d="m 849.97241,-2.9961995 c -18.7924,4.73e-5 -33.74946,14.8955975 -33.74988,33.7498775 V 262.75399 c 4.2e-4,18.79216 14.89538,33.74993 33.74988,33.74988 h 57.00014 c 18.79249,5e-5 33.74951,-14.89564 33.74987,-33.74988 V 30.753678 C 940.72206,11.961467 925.82709,-2.9961522 906.97255,-2.9961995 Z m 28.50007,32.4610675 c 5.39908,0 11.24979,5.815705 11.24996,11.249959 V 252.79491 c -1.7e-4,5.39921 -5.81588,11.24995 -11.24996,11.24995 -5.39852,0 -11.24819,-5.81613 -11.24996,-11.24995 V 40.714827 c 2.2e-4,-5.399292 5.81584,-11.249959 11.24996,-11.249959 z"
       inkscape:label="O" /><path
       id="path30"
       style="stroke:none;stroke-linecap:round;stroke-opacity:0.564706"
       d="M 931.44702,-2.9961995 977.23647,32.777327 V 390.61698 l 51.49973,-41.70494 V 34.697107 h 11.2499 c 5.3987,3e-6 11.2485,5.815907 11.2484,11.249959 V 390.61698 l 51.4997,-41.70494 V 34.697107 h 11.25 c 5.3997,3e-6 11.2517,5.817733 11.252,11.252026 V 390.61698 l 51.5002,-41.70494 V 40.754102 c -3e-4,-10.753904 -4.2354,-21.492473 -11.1249,-29.719117 -6.8895,-8.2266427 -16.6348,-14.0311604 -27.6272,-14.0311845 z"
       inkscape:label="M" /><path
       id="path28"
       style="stroke:none;stroke-linecap:round;stroke-opacity:0.564706"
       d="m 1186.4862,-3.3966919 32.8946,26.2836669 V 128.9513 h -39.3418 l 39.3418,27.30066 v 114.36925 l -35.6252,25.88266 h 127.3751 c 12.381,2e-5 22.4229,-3.6819 29.0722,-11.28097 6.6493,-7.59908 9.6792,-18.58861 9.6795,-32.46882 V 181.4158 c -3e-4,-10.81798 -2.01,-19.88737 -6.3433,-27.02729 -3.0272,-4.98772 -7.2721,-8.87002 -12.4029,-11.69128 5.1308,-2.82122 9.3757,-6.70364 12.4029,-11.69127 4.3333,-7.13979 6.343,-16.20778 6.3433,-27.02574 V 40.754102 c -3e-4,-13.880173 -3.0301,-24.869873 -9.6795,-32.4688196 -6.6493,-7.59894697 -16.6912,-11.2814594 -29.0722,-11.2814819 h -87.9806 z m 83.9432,27.5879799 h 14.8518 c 5.3983,1.9e-5 11.2478,5.815817 11.2479,11.24996 v 82.260092 c -10e-5,5.39918 -5.8146,11.24995 -11.2479,11.24996 h -14.8518 z m 0,133.849712 h 14.8518 c 5.3982,-1e-5 11.2478,5.81576 11.2479,11.24996 v 88.24009 c -10e-5,5.39919 -5.8146,11.24995 -11.2479,11.24996 h -14.8518 z"
       inkscape:label="B" /><path
       id="path26"
       style="stroke:none;stroke-linecap:round;stroke-opacity:0.564706"
       d="m 1556.2166,-2.9961995 c -18.792,4.73e-5 -33.7483,14.8955095 -33.7478,33.7498775 V 262.75399 c -5e-4,18.79225 14.8937,33.74993 33.7478,33.74988 h 39.7501 v 94.02526 l 51,-40.56806 V 139.74031 h -72.8571 l 21.8571,17.07596 v 113.78117 h -11.2479 c -5.3993,-2e-5 -11.2504,-5.81603 -11.25,-11.24996 V 29.374951 c -4e-4,-5.398903 5.8159,-11.249959 11.25,-11.249959 5.3991,0 11.2481,5.815986 11.2479,11.249959 v 80.035429 l 51,-41.299292 v -37.35741 c 2e-4,-18.79227 -14.894,-33.7498302 -33.7479,-33.7498775 z"
       inkscape:label="G" /><path
       id="path24"
       style="stroke:none;stroke-linecap:round;stroke-opacity:0.564706"
       d="M 1731.7713,-7.2362508 1680.2148,35.591626 V 296.50387 h 170.6056 l -40.3283,-31.50557 h -78.7208 z"
       inkscape:label="L" /></g><g
     id="g12"
     inkscape:label="Catacomb GL"
     transform="translate(22.974794,42.738044)"><path
       id="path22"
       style="fill:#000000;fill-opacity:1;stroke:#000000;stroke-width:0.944827;stroke-linecap:round"
       d="m 7.2148347,285.9967 c 5.3051183,5.31213 13.6574133,6.75758 23.2575873,6.75753 h 56.99999 c 9.580978,5e-5 17.930278,-1.43726 23.242418,-6.74238 5.31213,-5.30512 6.75758,-13.65741 6.75761,-23.25751 l 2e-5,-76.98602 -43.500145,33.986 4.7e-5,42.49999 c 4.6e-5,7.73537 -7.228805,14.99997 -14.999953,14.99997 -7.735401,0 -14.999999,-7.22885 -14.999937,-14.99997 V 31.254294 c -6.2e-5,-7.735415 7.228791,-15.000013 14.999937,-15.000013 7.7354,0 14.999999,7.228853 14.999953,15.000013 l -4.7e-5,66.22559 43.500145,-35.225672 -2e-5,-31.49995 C 117.47241,21.1733 116.0351,12.823997 110.72999,7.5118626 105.42487,2.1997279 97.07257,0.75428268 87.472412,0.75424034 H 30.472422 C 20.891427,0.75428268 12.542125,2.1915866 7.22999,7.4967047 1.9178553,12.801823 0.4724098,21.154118 0.47241258,30.754262 V 262.75434 c -2.78e-6,9.58092 1.43730302,17.93022 6.74242212,23.24236 z"
       sodipodi:nodetypes="sccsccccccccccccsccsccs"
       inkscape:label="C" /><path
       id="path40"
       style="fill:#000000;fill-opacity:1;stroke:#000000;stroke-width:0.944827;stroke-linecap:round"
       d="m 253.30318,33.414159 c 2.5e-4,-7.771089 -7.26436,-14.999942 -14.99976,-14.999879 l -20.0001,6.2e-5 V 139.75437 h 34.99961 z m -2.5e-4,349.340161 V 160.75435 h -34.99961 v 188.03646 l -43.99995,33.96351 V 160.75435 l -26.87875,-20.99998 h 26.87875 V 18.754331 l -22.58695,-18.00013299 115.58763,4.233e-5 c 16.90965,4.234e-5 29.99938,13.14984666 29.99924,30.00002166 l -1.5e-4,318.036548 z"
       sodipodi:nodetypes="cccccccccccccccccccc"
       inkscape:label="A" /><path
       d="M 320.42747,0.75395915 357.54613,29.754256 h 19.96519 L 372.3628,382.75441 416.36322,348.7906 420.96397,33.330782 471.42807,29.420943 428.23226,0.75395915 Z"
       style="fill:#000000;fill-opacity:1;stroke:#000000;stroke-width:0.944827;stroke-linecap:round"
       id="path9"
       inkscape:label="T" /><path
       id="path11"
       style="fill:#000000;fill-opacity:1;stroke:#000000;stroke-width:0.944827;stroke-linecap:round"
       d="M 569.85055,33.414159 C 569.8508,25.64307 562.58619,18.414217 554.85079,18.41428 l -20.0001,6.2e-5 V 139.75437 H 569.8503 Z M 569.8503,382.75432 V 160.75435 h -34.99961 v 188.03646 l -43.99995,33.96351 V 160.75435 l -26.87875,-20.99998 h 26.87875 V 18.754331 l -22.58695,-18.00013299 115.58763,4.233e-5 c 16.90965,4.234e-5 29.99938,13.14984666 29.99924,30.00002166 l -1.5e-4,318.036548 z"
       sodipodi:nodetypes="cccccccccccccccccccc"
       inkscape:label="A" /><path
       id="path10"
       style="fill:#000000;fill-opacity:1;stroke:#000000;stroke-width:0.944827;stroke-linecap:round"
       d="m 664.71484,285.9967 c 5.30511,5.31213 13.65741,6.75758 23.25758,6.75753 h 56.99999 c 9.58098,5e-5 17.93028,-1.43726 23.24242,-6.74238 5.31213,-5.30512 6.75758,-13.65741 6.75761,-23.25751 l 2e-5,-76.98602 -43.50014,33.986 4e-5,42.49999 c 5e-5,7.73537 -7.2288,14.99997 -14.99995,14.99997 -7.7354,0 -15,-7.22885 -14.99994,-14.99997 V 31.254294 c -6e-5,-7.735415 7.22879,-15.000013 14.99994,-15.000013 7.7354,0 15,7.228853 14.99995,15.000013 l -4e-5,66.22559 43.50014,-35.225672 -2e-5,-31.49995 C 774.97241,21.1733 773.5351,12.823997 768.22999,7.5118626 762.92487,2.1997279 754.57257,0.75428268 744.97241,0.75424034 h -56.99999 c -9.58099,4.234e-5 -17.93029,1.43734626 -23.24243,6.74246436 -5.31213,5.3051183 -6.75758,13.6574133 -6.75758,23.2575573 V 262.75434 c 0,9.58092 1.43731,17.93022 6.74243,23.24236 z"
       sodipodi:nodetypes="sccsccccccccccccsccsccs"
       inkscape:label="C" /><path
       id="path99"
       style="fill:#000000;fill-opacity:1;stroke:#000000;stroke-width:0.944827;stroke-linecap:round"
       d="M 936.97271,30.754262 C 936.97239,13.904087 923.88268,0.75428268 906.97216,0.75424034 h -56.9996 C 833.12221,0.75428268 819.9724,13.843995 819.97202,30.754262 V 262.75434 c 3.8e-4,16.85013 13.09008,29.99994 30.00054,29.99989 h 56.9996 c 16.85044,5e-5 30.00023,-13.08967 30.00055,-29.99989 z m -73.50062,9.96016 c 3.2e-4,-7.735461 7.22916,-15.000062 15.00032,-15.000062 7.73538,0 14.99999,7.228853 15.00023,15.000062 V 252.79418 c -2.4e-4,7.73542 -7.2291,15.00002 -15.00023,15.00002 -7.73542,0 -15,-7.22886 -15.00064,-15.00004 z"
       sodipodi:nodetypes="cccccccccccccccc"
       inkscape:label="O" /><path
       id="path115"
       style="fill:#000000;fill-opacity:1;stroke:#000000;stroke-width:0.944827;stroke-linecap:round"
       d="m 1024.9867,347.12367 -44.00024,35.63065 V 30.948183 l -38.64769,-30.19398499 195.64653,4.234e-5 c 19.3339,4.233e-5 35.0002,20.50066565 35.0008,39.99998565 l 5e-4,306.369444 -44.0002,35.63065 -4e-4,-336.806121 c -5e-4,-7.771152 -7.265,-15.000005 -15.0009,-15.00001 l -14.9998,-6e-6 V 347.12367 l -44.0002,35.63065 2e-4,-336.806121 c 2e-4,-7.771152 -7.2644,-15.000005 -14.9995,-15.00001 l -14.9991,-6e-6 z"
       sodipodi:nodetypes="ccccccccccccccccc"
       inkscape:label="M" /><path
       d="M 1197.3357,0.47232259 1223.13,21.083468 V 132.70043 h -31.1097 l 31.1097,21.58989 v 118.24085 l -27.8339,20.22305 h 115.8347 c 23.3336,5e-5 35.0004,-13.33344 35.001,-40.00014 v -71.33776 c -6e-4,-20.7023 -7.7324,-33.44182 -23.1955,-38.21834 v -1.00046 c 15.4631,-4.77654 23.1949,-17.51555 23.1955,-38.21782 V 40.754102 c -6e-4,-26.66661 -11.6674,-39.99958375 -35.001,-39.99962609 L 1223.13,0.75395915 Z m 69.3446,19.96984041 h 18.5999 c 7.7348,2.7e-5 14.9994,7.228987 14.9996,15.000118 v 82.258029 c -2e-4,7.73539 -7.229,15.00011 -14.9996,15.00012 h -18.5999 z m 0,133.848157 h 18.5999 c 7.7348,-1e-5 14.9994,7.22895 14.9996,15.00012 v 88.24061 c -2e-4,7.7354 -7.229,15.00011 -14.9996,15.00012 h -18.5999 z"
       style="stroke:#000000;stroke-width:0.944827;stroke-linecap:round"
       id="path12"
       inkscape:label="B" /><path
       id="path163"
       style="fill:#000000;fill-opacity:1;stroke:#000000;stroke-width:0.944827;stroke-linecap:round"
       d="M 1643.2174,348.1529 V 143.49029 h -58.2163 l 14.7161,11.49747 v 119.35962 l -14.9993,-2e-5 c -7.7355,-2e-5 -15.0001,-7.22888 -14.9996,-15.00001 V 29.374741 c -5e-4,-7.735369 7.2284,-14.999968 14.9995,-14.999968 7.7354,0 15,7.228853 14.9997,14.999968 l -3e-4,72.173689 43.5002,-35.22572 2e-4,-35.568448 c 2e-4,-16.850175 -13.0895,-29.99997932 -29.9993,-30.00002166 h -57.0008 c -16.8499,4.234e-5 -29.9997,13.08975466 -29.9993,30.00002166 V 262.75434 c -4e-4,16.85013 13.0893,29.99994 29.9993,29.99989 l 43.4997,-5e-5 v 90.00014 z"
       sodipodi:nodetypes="ccccccccccccccccccccc"
       inkscape:label="G" /><path
       id="path169"
       style="fill:#000000;fill-opacity:1;stroke:#000000;stroke-width:0.944827;stroke-linecap:round"
       d="m 1809.2011,268.74748 h -81.1795 V 0.75419801 L 1683.9658,37.350835 V 292.75418 h 155.964 z"
       sodipodi:nodetypes="ccccccc"
       inkscape:label="L" /></g></svg>
