<svg height="169.963" viewBox="0 0 1088.664 475.897" width="388.808" xmlns="http://www.w3.org/2000/svg">
    <clipPath id="a">
        <path clip-rule="evenodd" d="M187.087 42.52h62.362v62.362h-62.362z"/>
    </clipPath>
    <clipPath id="b">
        <path d="M-948.174 452.103h141.731v158.165h-141.731z"/>
    </clipPath>
    <clipPath id="c">
        <path d="M-948.174 452.103h141.731v158.165h-141.731z"/>
    </clipPath>
    <filter id="d" color-interpolation-filters="sRGB" height="1.146" width="1.202" x="-.083" y="-.06">
        <feOffset dx="3" dy="3"/>
        <feGaussianBlur result="blur" stdDeviation="3"/>
        <feFlood result="flood"/>
        <feComposite in="flood" in2="SourceGraphic" operator="in" result="composite"/>
        <feBlend in="blur" in2="composite"/>
    </filter>
    <g clip-path="url(#a)" transform="matrix(8.80628 0 0 -8.80628 -1719.49 947.48)">
        <g clip-path="url(#b)" transform="matrix(.4006 0 0 -.395 566.93 283.465)">
            <g clip-path="url(#c)" fill="#e60013">
                <path d="M-842.005 546.068c-3.946 4.499-7.397 4.39-7.541 4.384l-.015.006c-.012 0-.029-.006-.029-.006l-4.786-.108c1.081-.819 2.212-1.857 3.357-3.154.031-.049.075-.107.12-.155 8.556-12.618 5.716-21.113 3.262-25.061a5.344 5.344 0 0 0-.386-.536l1.814.601c3.764 1.021 6.736 3.675 7.997 7.129 1.225 3.301 1.546 8.936-3.793 16.9m-19.284 20.827c-1.536.238-3.409.492-5.244.697 3.75-4.336 5.305-10.863 5.734-14.199l9.402.238c-.494 3.641-2.433 12.115-9.892 13.264m-14.72 1.736c-3.74-.295-13.608-1.295-19.488-1.916l-4.396-.435c-2.091-.188-4.119-2.401-5.528-4.44 5.792.434 19.36 1.219 22.033 1.188 3.685-.116 7.926-1.957 8.88-5.334.632-2.186.67-2.473.775-3.737.07-.681.144-1.736.43-3.899.714-5.27 3.383-6.3 3.845-6.438.987-.059 5.077-.535 8.604-4.195.039-.059.07-.115.126-.164 3.294-4.336 1.863-11.111 1.825-11.405-.016-.049-.569-3.614-3.448-5.588-1.811-1.27-4.041-1.616-6.638-1.083-.902.189-1.735.509-2.465.876 1.951-2.496 4.629-4.046 7.787-4.512a13.53 13.53 0 0 1 5.576.41c.132.064.247.13.39.17l1.649.568c2.309 1.048 4.337 2.785 5.691 4.954 2.05 3.285 4.336 10.414-3.144 21.509-4.178 4.783-7.887 5.003-8.527 5.021l-.147-.018c-.092 0-.149.027-.237.027-.013 0-.025 0-.039.016a1.63 1.63 0 0 0-1.313 1.17s0 .017-.012.025c0 .065-.016.125-.016.182-.015.055-.015.088-.015.13-.098 1.934-1.47 10.643-6.149 14.813-1.021.933-2.118 1.531-3.343 1.851-.259.024-.387.024-.42.047a1.5 1.5 0 0 0-.479.141 10.6 10.6 0 0 1-1.807.066m-37.962-25.333c-3.448-.579-3.408-4.855-3.408-5.014 0 .032 1.951-39.979 1.951-39.979 0-.199.136-3.82 3.575-4.951.169-.055.33-.122.473-.263 2.93-2.263 3.511-4.562 4.179-9.674.252-3.451 2.573-5.042 2.665-5.091 11.38-6.266 33.289-18.291 34.071-18.694.82-.412 2.079-.778 2.928-.385.511.246.902.821 1.145 1.678.21 4.466 1.144 17.133 1.23 18.511-.029.63-.51 6.233-5.618 7.528-1.541.411-2.766.326-3.583-.263-1.272-.874-1.453-2.694-1.453-2.703-.011-.073-.011-.115-.034-.17l-.662-3.402c-.233-1.198-.901-2.171-1.908-2.78-2.232-1.366-5.478-.515-5.853-.424a1.415 1.415 0 0 0-.276.122c-.104.042-9.419 4.763-13.154 6.581-4.453 2.153-4.053 8.554-4.036 8.822l-.245 44.75c0 .421.056 3.975 2.167 6.064.957.927 2.238 1.417 3.652 1.377 4.319-.099 13.566-.756 13.949-.77.115-.018.199-.024.297-.041.278-.091 6.929-1.893 7.411-7.515.273-3.021.658-6.165.67-6.191.017-.124 1.065-5.155 5.483-6.098 1.72-.344 3.107-.172 4.134.558 1.75 1.211 2.147 3.55 2.147 3.566.024.163 1.176 5.66-1.152 8.822-2.99 3.041-6.335 3.139-6.474 3.139-.09 0-.18.023-.26.04-.227.047-5.441 1.039-6.523 9.185-.285 2.244-.385 3.344-.443 4.065-.088 1.048-.088 1.113-.675 3.121-.475 1.718-3.418 2.939-5.878 2.98-2.807.065-19.587-.926-23.608-1.301-1.57-.158-2.197-3.9-2.197-5.959.192-.932.75-4.38-.93-6.872-.846-1.269-2.151-2.08-3.757-2.369m55.22-86.934c1.329.622 3.636 2.309 4.344 6.251.293 6.187 1.267 18.154 1.281 18.254.02.451.481 11.772-12.563 16.084-1.775.596-3.378.622-4.831.113-.381-.188-.611-.295-.611-.295-.091-.048-.162-.066-.264-.098-.041-.016-.088-.041-.132-.059-3.169-1.776-4.823-5.938-5.472-7.946a7.5 7.5 0 0 0 .764.638c1.651 1.173 3.751 1.436 6.258.764 6.127-1.59 7.927-7.63 8.028-10.611v-.138c-.013-.164-1.043-14.37-1.253-18.74 0-.12-.011-.228-.04-.317-.469-1.737-1.254-2.746-2.051-3.369l1.414-.76c1.377-.707 3.399-.658 5.128.229m15.927 16.49c.266 5.49 1.096 15.947 1.096 16.044.031.384.419 10.315-11.047 14.166-1.702.574-5.694-.264-6.652-.786-.028-.017-2.431-1.132-5.03-2.369 15.202-5.178 14.533-19.128 14.533-19.253-.012-.166-.932-11.471-1.254-17.706l4.779 4.479c1.585 1.346 3.11 2.798 3.575 5.425m-45.624 61.622-.149-39.44 9.036 3.67 1.052 34.728zm10.52-38.566-8.075-3.269 6.093-2.537c.508 1.456 1.401 3.593 2.798 5.553zm-4.683 45.072c-1.274.088-9.697.645-13.63.753-.566.023-.986-.133-1.338-.476-.991-.949-1.211-3.064-1.211-3.728l.232-44.872c0-.18-.198-4.655 2.261-5.85 3.477-1.671 11.774-5.883 13.011-6.523.79-.188 2.417-.384 3.189.098.175.106.348.272.437.672l.655 3.319c.012.296.148 1.082.527 2.008-.336-.092-.709-.092-1.026.067l-11.333 4.701c-.114.072-.248.149-.367.235a.272.272 0 0 0-.07.067c-.1.091-.186.179-.277.303v.009c-.063.082-.107.179-.167.27-.011.056-.011.091-.026.098-.013.034-.013.068-.029.106-.028.125-.04.263-.04.402 0 .018-.015.018-.015.018v.017l.185 43.575c0 .46.196.879.543 1.198.331.288.769.442 1.237.404l12.121-1.272c-.434 2.9-4.146 4.179-4.869 4.401m47.39-12.947c-1.631-4.406-5.374-7.8-10.076-9.071.085.026-6.594-2.245-9.764-3.316-2.8-1.222-5.95-1.714-9.057-1.255-5.062.697-9.109 3.671-11.517 8.268l-.702-23.89 1.593-.525c.509.432 1.054.808 1.629 1.153.425.255.876.438 1.331.624l10.917 5.138c1.541.836 6.445 1.826 9.096.909 13.872-4.606 13.254-17.262 13.242-17.386 0-.148-.859-10.716-1.094-16.147-.007-.051-.007-.141-.023-.191-.628-3.531-2.584-5.594-4.613-7.308.038.075-10.73-10.068-10.73-10.068-.089-.058-.172-.097-.288-.158a10.534 10.534 0 0 0-2.039-1.333c-2.669-1.32-5.748-1.376-8.068-.18 0 0-37.364 20.399-40.795 22.285-.235.14-3.846 2.492-4.191 7.521-.662 4.736-1.097 5.957-2.811 7.317-5.285 1.991-5.456 7.529-5.456 7.8 0-.066-1.938 39.942-1.938 39.942-.069 2.513 1.089 7.454 6.068 8.312.741.125 1.269.422 1.632.968.897 1.335.611 3.745.423 4.552-.013.112-.032.231-.032.325-.015.73 0 5.97 2.637 8.306.45.969 4.191 8.346 9.647 8.854l4.387.437c5.894.606 15.772 1.623 19.562 1.903 1.245.088 2.43 0 3.55-.28 1.994-.214 8.003-.902 11.886-1.474 9.973-1.526 12.185-12.584 12.668-16.533 1.873-.362 5.208-1.52 8.602-5.44.072-.068.099-.125.129-.166 6.193-9.11 5.706-15.837 4.195-19.893" filter="url(#d)"/>
                <path d="M-842.005 546.068c-3.946 4.499-7.397 4.39-7.541 4.384l-.015.006c-.012 0-.029-.006-.029-.006l-4.786-.108c1.081-.819 2.212-1.857 3.357-3.154.031-.049.075-.107.12-.155 8.556-12.618 5.716-21.113 3.262-25.061a5.344 5.344 0 0 0-.386-.536l1.814.601c3.764 1.021 6.736 3.675 7.997 7.129 1.225 3.301 1.546 8.936-3.793 16.9m-19.284 20.827c-1.536.238-3.409.492-5.244.697 3.75-4.336 5.305-10.863 5.734-14.199l9.402.238c-.494 3.641-2.433 12.115-9.892 13.264m-14.72 1.736c-3.74-.295-13.608-1.295-19.488-1.916l-4.396-.435c-2.091-.188-4.119-2.401-5.528-4.44 5.792.434 19.36 1.219 22.033 1.188 3.685-.116 7.926-1.957 8.88-5.334.632-2.186.67-2.473.775-3.737.07-.681.144-1.736.43-3.899.714-5.27 3.383-6.3 3.845-6.438.987-.059 5.077-.535 8.604-4.195.039-.059.07-.115.126-.164 3.294-4.336 1.863-11.111 1.825-11.405-.016-.049-.569-3.614-3.448-5.588-1.811-1.27-4.041-1.616-6.638-1.083-.902.189-1.735.509-2.465.876 1.951-2.496 4.629-4.046 7.787-4.512a13.53 13.53 0 0 1 5.576.41c.132.064.247.13.39.17l1.649.568c2.309 1.048 4.337 2.785 5.691 4.954 2.05 3.285 4.336 10.414-3.144 21.509-4.178 4.783-7.887 5.003-8.527 5.021l-.147-.018c-.092 0-.149.027-.237.027-.013 0-.025 0-.039.016a1.63 1.63 0 0 0-1.313 1.17s0 .017-.012.025c0 .065-.016.125-.016.182-.015.055-.015.088-.015.13-.098 1.934-1.47 10.643-6.149 14.813-1.021.933-2.118 1.531-3.343 1.851-.259.024-.387.024-.42.047a1.5 1.5 0 0 0-.479.141 10.6 10.6 0 0 1-1.807.066m-37.962-25.333c-3.448-.579-3.408-4.855-3.408-5.014 0 .032 1.951-39.979 1.951-39.979 0-.199.136-3.82 3.575-4.951.169-.055.33-.122.473-.263 2.93-2.263 3.511-4.562 4.179-9.674.252-3.451 2.573-5.042 2.665-5.091 11.38-6.266 33.289-18.291 34.071-18.694.82-.412 2.079-.778 2.928-.385.511.246.902.821 1.145 1.678.21 4.466 1.144 17.133 1.23 18.511-.029.63-.51 6.233-5.618 7.528-1.541.411-2.766.326-3.583-.263-1.272-.874-1.453-2.694-1.453-2.703-.011-.073-.011-.115-.034-.17l-.662-3.402c-.233-1.198-.901-2.171-1.908-2.78-2.232-1.366-5.478-.515-5.853-.424a1.415 1.415 0 0 0-.276.122c-.104.042-9.419 4.763-13.154 6.581-4.453 2.153-4.053 8.554-4.036 8.822l-.245 44.75c0 .421.056 3.975 2.167 6.064.957.927 2.238 1.417 3.652 1.377 4.319-.099 13.566-.756 13.949-.77.115-.018.199-.024.297-.041.278-.091 6.929-1.893 7.411-7.515.273-3.021.658-6.165.67-6.191.017-.124 1.065-5.155 5.483-6.098 1.72-.344 3.107-.172 4.134.558 1.75 1.211 2.147 3.55 2.147 3.566.024.163 1.176 5.66-1.152 8.822-2.99 3.041-6.335 3.139-6.474 3.139-.09 0-.18.023-.26.04-.227.047-5.441 1.039-6.523 9.185-.285 2.244-.385 3.344-.443 4.065-.088 1.048-.088 1.113-.675 3.121-.475 1.718-3.418 2.939-5.878 2.98-2.807.065-19.587-.926-23.608-1.301-1.57-.158-2.197-3.9-2.197-5.959.192-.932.75-4.38-.93-6.872-.846-1.269-2.151-2.08-3.757-2.369m55.22-86.934c1.329.622 3.636 2.309 4.344 6.251.293 6.187 1.267 18.154 1.281 18.254.02.451.481 11.772-12.563 16.084-1.775.596-3.378.622-4.831.113-.381-.188-.611-.295-.611-.295-.091-.048-.162-.066-.264-.098-.041-.016-.088-.041-.132-.059-3.169-1.776-4.823-5.938-5.472-7.946a7.5 7.5 0 0 0 .764.638c1.651 1.173 3.751 1.436 6.258.764 6.127-1.59 7.927-7.63 8.028-10.611v-.138c-.013-.164-1.043-14.37-1.253-18.74 0-.12-.011-.228-.04-.317-.469-1.737-1.254-2.746-2.051-3.369l1.414-.76c1.377-.707 3.399-.658 5.128.229m15.927 16.49c.266 5.49 1.096 15.947 1.096 16.044.031.384.419 10.315-11.047 14.166-1.702.574-5.694-.264-6.652-.786-.028-.017-2.431-1.132-5.03-2.369 15.202-5.178 14.533-19.128 14.533-19.253-.012-.166-.932-11.471-1.254-17.706l4.779 4.479c1.585 1.346 3.11 2.798 3.575 5.425m-45.624 61.622-.149-39.44 9.036 3.67 1.052 34.728zm10.52-38.566-8.075-3.269 6.093-2.537c.508 1.456 1.401 3.593 2.798 5.553zm-4.683 45.072c-1.274.088-9.697.645-13.63.753-.566.023-.986-.133-1.338-.476-.991-.949-1.211-3.064-1.211-3.728l.232-44.872c0-.18-.198-4.655 2.261-5.85 3.477-1.671 11.774-5.883 13.011-6.523.79-.188 2.417-.384 3.189.098.175.106.348.272.437.672l.655 3.319c.012.296.148 1.082.527 2.008-.336-.092-.709-.092-1.026.067l-11.333 4.701c-.114.072-.248.149-.367.235a.272.272 0 0 0-.07.067c-.1.091-.186.179-.277.303v.009c-.063.082-.107.179-.167.27-.011.056-.011.091-.026.098-.013.034-.013.068-.029.106-.028.125-.04.263-.04.402 0 .018-.015.018-.015.018v.017l.185 43.575c0 .46.196.879.543 1.198.331.288.769.442 1.237.404l12.121-1.272c-.434 2.9-4.146 4.179-4.869 4.401m47.39-12.947c-1.631-4.406-5.374-7.8-10.076-9.071.085.026-6.594-2.245-9.764-3.316-2.8-1.222-5.95-1.714-9.057-1.255-5.062.697-9.109 3.671-11.517 8.268l-.702-23.89 1.593-.525c.509.432 1.054.808 1.629 1.153.425.255.876.438 1.331.624l10.917 5.138c1.541.836 6.445 1.826 9.096.909 13.872-4.606 13.254-17.262 13.242-17.386 0-.148-.859-10.716-1.094-16.147-.007-.051-.007-.141-.023-.191-.628-3.531-2.584-5.594-4.613-7.308.038.075-10.73-10.068-10.73-10.068-.089-.058-.172-.097-.288-.158a10.534 10.534 0 0 0-2.039-1.333c-2.669-1.32-5.748-1.376-8.068-.18 0 0-37.364 20.399-40.795 22.285-.235.14-3.846 2.492-4.191 7.521-.662 4.736-1.097 5.957-2.811 7.317-5.285 1.991-5.456 7.529-5.456 7.8 0-.066-1.938 39.942-1.938 39.942-.069 2.513 1.089 7.454 6.068 8.312.741.125 1.269.422 1.632.968.897 1.335.611 3.745.423 4.552-.013.112-.032.231-.032.325-.015.73 0 5.97 2.637 8.306.45.969 4.191 8.346 9.647 8.854l4.387.437c5.894.606 15.772 1.623 19.562 1.903 1.245.088 2.43 0 3.55-.28 1.994-.214 8.003-.902 11.886-1.474 9.973-1.526 12.185-12.584 12.668-16.533 1.873-.362 5.208-1.52 8.602-5.44.072-.068.099-.125.129-.166 6.193-9.11 5.706-15.837 4.195-19.893"/>
            </g>
        </g>
    </g>
    <g fill="#094">
        <path d="M995.13 235.163h69.51v-14.694c0-4.428.264-8.076-2.994-11.118l-9.222-8.004c-3.012-2.826-7.716-3.144-11.544-3.144h-20.382c-4.416 0-8.16 0-12.138 2.838l-8.352 6.102c-2.898 2.208-4.878 4.02-4.878 10.956zm19.89 74.076c-9.924 0-13.956 0-21.48-6.528l-10.242-9c-9.492-8.46-12.276-14.016-12.276-26.988v-46.404c0-12.738 1.722-20.346 11.694-28.77l8.544-7.218c11.358-9.798 16.854-10.02 26.658-10.02h21.906c11.814 0 17.388 1.17 26.55 8.742l9.768 7.782c11.106 8.682 12.522 18.018 12.522 31.254v19.368c0 13.632-2.226 17.742-16.536 17.742H995.13v8.016c0 2.274 1.632 5.154 3.474 6.984l6.036 6.48c3.282 3.48 7.956 4.572 15.858 4.572h51.63c8.136 0 16.536 1.734 16.536 11.892 0 10.608-9.444 12.096-16.536 12.096zM879.528 204.227V192.1c0-8.544 1.5-17.79 12.234-17.79 8.58 0 11.784 6.726 11.784 14.484v17.004c0 3.996-1.008 6.054-2.796 9.798l-35.802 78.654c-2.286 4.968-6.468 14.988-12.564 14.988h-15.48c-6.012 0-10.29-10.02-12.486-14.988l-35.79-78.654c-1.866-3.744-2.742-5.802-2.742-9.798v-17.004c0-7.758 3.27-14.484 11.616-14.484 10.83 0 12.306 9.246 12.306 17.79v12.126l34.854 79.932zM638.96 248.83c-6.462 0-16.11 1.77-16.11 10.567v16.02c0 8.16 9.804 9.834 15.666 9.834h26.46l26.538-13.956v-5.112c0-13.326-3.756-17.352-16.986-17.352zm.264-50.627c-6.99 0-16.5-1.452-16.5-11.814 0-10.368 8.43-12.078 16.5-12.078h32.988c12.576 0 21.57 1.17 31.11 10.71 9.27 9.234 10.464 16.476 10.818 28.56l2.448 81.666c.234 7.008-3.24 13.992-11.202 13.992-6.264 0-12.588-5.322-12.408-12.096l-16.41 8.556c-6.834 3.54-7.068 3.54-14.832 3.54h-23.052c-10.734 0-18.516-1.278-27.246-8.496-10.038-8.262-12.504-17.004-12.504-29.58v-10.488c0-11.544 2.808-18.786 11.712-26.802 8.394-7.308 17.544-9.042 28.038-9.042h51.6v-5.484c0-18-3.996-21.144-21.306-21.144zM414.278 230.147c0-14.796 2.7-22.02 14.238-31.626l17.712-14.778c11.364-9.21 17.148-9.432 31.11-9.432h38.094c7.998 0 16.578 1.71 16.578 12.078 0 10.362-9.534 11.814-16.578 11.814h-42.348c-4.752 0-9.51 2.592-13.824 6.024l-14.49 12.456c-3.768 2.952-6.486 5.406-6.486 10.164v29.796c0 4.71 2.718 7.326 6.486 10.23l14.49 12.282c4.314 3.54 9.072 6.096 13.824 6.096h42.348c7.044 0 16.578 1.428 16.578 11.892 0 10.422-8.58 12.096-16.578 12.096h-38.094c-13.962 0-19.746-.234-31.11-9.444l-17.712-14.85c-11.538-9.528-14.238-16.698-14.238-31.536z"/>
    </g>
</svg>
