<?xml version="1.0" encoding="UTF-8" standalone="no"?>
<!-- Created by ERK -->

<svg
   version="1.1"
   id="Layer_1"
   x="0px"
   y="0px"
   viewBox="0 0 4522.1709 365.09994"
   xml:space="preserve"
   sodipodi:docname="cbm2.svg"
   inkscape:version="1.3.2 (091e20e, 2023-11-25, custom)"
   width="4522.1709"
   height="365.09995"
   xmlns:inkscape="http://www.inkscape.org/namespaces/inkscape"
   xmlns:sodipodi="http://sodipodi.sourceforge.net/DTD/sodipodi-0.dtd"
   xmlns="http://www.w3.org/2000/svg"
   xmlns:svg="http://www.w3.org/2000/svg"><defs
   id="defs35">
							
							
						
							
							
						
						
						
					
					
					
				
				
				
			
			
		
		
		
	
			
			
		
			
			
		
			
			
		
			
			
		
			
			
		
			
			
		
			
			
		
			
			
		
			
			
		
			
			
		
			
			
		
			
			
		
		
		
		
		
		
		
		
		
		
		
		
		
	</defs><sodipodi:namedview
   id="namedview35"
   pagecolor="#ffffff"
   bordercolor="#000000"
   borderopacity="0.25"
   inkscape:showpageshadow="2"
   inkscape:pageopacity="0.0"
   inkscape:pagecheckerboard="true"
   inkscape:deskcolor="#d1d1d1"
   inkscape:zoom="0.35355339"
   inkscape:cx="2098.6929"
   inkscape:cy="295.57064"
   inkscape:window-width="2560"
   inkscape:window-height="1351"
   inkscape:window-x="-9"
   inkscape:window-y="-9"
   inkscape:window-maximized="1"
   inkscape:current-layer="Layer_1" />
<style
   type="text/css"
   id="style1">
	.st0{fill:#FFFFFF;}
</style>
<g
   id="g35"
   inkscape:label="C-commodorePET"
   transform="translate(-39.4,-39.300029)">
	
	<path
   d="m 239.8,295.5 c -12.1,6.9 -26.2,10.8 -41.2,10.8 -46.5,0 -84.4,-37.9 -84.4,-84.4 0,-46.5 37.9,-84.4 84.4,-84.4 15,0 29,3.9 41.2,10.8 V 68 c -13.1,-3.5 -26.9,-5.4 -41.1,-5.4 -88,0 -159.3,71.3 -159.3,159.2 0,87.9 71.3,159.2 159.2,159.2 14.2,0 28,-1.9 41.1,-5.4 z"
   id="path28"
   style="fill:#002684;fill-opacity:1"
   inkscape:label="C" /><path
   id="rect28"
   style="fill:#002684;fill-opacity:1"
   d="M 239.80078,152.30078 V 216 H 285.5 v 0.0996 h 29.30078 L 378.5,152.30078 H 306.59961 285.5 Z"
   inkscape:label="BlueDash" /><path
   id="rect29"
   style="fill:#f20029;fill-opacity:1"
   d="m 239.80078,227.59961 v 63.70117 H 285.5 v 0.0996 h 93 L 314.80078,227.59961 H 306.59961 285.5 Z"
   inkscape:label="RedDash" /><path
   id="path4595_00000015352148864051845840000009120747381251297167_"
   d="m 2066.3,157.3 h -42.7 v 122.5 h 44.6 v -64 c 0,-16.7 10.2,-25.1 28.8,-25.1 18.5,0 23.2,5.6 24.1,21.3 h 41.8 c 0,-41.8 -5.6,-57.6 -50.1,-57.6 -26.9,0 -36.2,5.6 -46.4,26 v -23.1 z m 205.1,98.4 c -42.7,0 -49.2,-3.7 -49.2,-25.1 h 117 c -1.9,-59.3 -1.9,-73.3 -80.8,-73.3 -66.9,0 -81.8,12 -81.8,65 0,49.3 19.5,61.3 73.3,62.2 60.3,0 89.1,-2.8 89.1,-42.7 h -43.7 c -1.6,9.2 -5.3,13.9 -23.9,13.9 z m -50.1,-51.1 c 1.9,-13 5.6,-17.6 35.3,-17.6 32.5,0 37.1,1.9 39,17.6 z m -1660.1,4.7 h 44.6 c -3.7,-41.8 -15.8,-52 -77.9,-52 -70.6,0 -86.4,11.2 -86.4,63.2 0,52 14.9,64 80.8,64 69.6,0 83.5,-9.3 83.5,-53 h -44.6 c 0,12 -4.6,17.6 -39,17.6 -29.7,0 -36.2,-7.4 -36.2,-31.5 0,-23.2 6.5,-23.2 41.8,-23.2 25.9,0 30.5,2.9 33.4,14.9 z m 1035.2,7.4 c 0,-50.1 -14.9,-60.3 -86.4,-60.3 -77.1,0 -86.4,13 -86.4,64.9 0,52 13,63.2 86.4,63.2 78.1,0 86.4,-13 86.4,-67.8 z m -127.2,2.8 c 0,-25.1 5.6,-27.8 38.1,-27.8 36.2,0 42.7,0.9 42.7,27.8 0,25.1 -4.6,29.7 -39,29.7 -37.2,0.1 -41.8,-3.6 -41.8,-29.7 z m 527.4,-2.8 c 0,-50.1 -13.9,-60.3 -85.4,-60.3 -76.2,0 -85.4,12 -85.4,64 0,52.9 13,64 85.4,64 77.9,0.1 85.4,-12.9 85.4,-67.7 z m -126.3,2.8 c 0,-25.1 5.6,-27.8 38.1,-27.8 36.2,0 42.7,0.9 42.7,27.8 0,25.1 -4.6,29.7 -39,29.7 -37.2,0.1 -41.8,-3.6 -41.8,-29.7 z M 803.5,216.7 c 0,-50.1 -13.9,-60.3 -85.4,-60.3 -77.1,0 -86.4,12 -86.4,64 0,52.9 13,64 86.4,64 78,0.1 85.4,-12.9 85.4,-67.7 z m -125.4,2.8 c 0,-25.1 5.6,-27.8 37.1,-27.8 36.2,0 42.7,0.9 42.7,27.8 0,25.1 -4.7,29.7 -39,29.7 -36.1,0.1 -40.8,-3.6 -40.8,-29.7 z M 1751.5,105.3 v 71.5 c -10.2,-13.9 -19.5,-21.3 -56.6,-21.3 -59.4,0 -70.6,15.8 -70.6,64 0,49.3 15.8,63.2 73.3,63.2 36.2,0 47.4,-9.3 55.7,-25.1 v 22.2 h 44.6 V 105.3 Z m -32.6,85.4 c 25.1,0 33.4,3.7 33.4,23.2 0,29.8 -1.9,32.5 -37.1,32.5 -35.3,0 -44.6,-1 -44.6,-26 0.1,-28.7 11.2,-29.7 48.3,-29.7 z M 874,157.3 h -41.8 v 122.5 h 44.6 v -63.2 c 0,-18.5 9.3,-25.1 34.4,-25.1 23.2,0 29.7,8.3 29.7,31.5 v 56.6 h 45.5 v -64.9 c 0,-17.6 13.9,-23.2 35.3,-23.2 20.5,0 29.7,5.6 29.7,23.2 v 64.9 h 44.6 v -72.4 c 0,-36.2 -22.3,-52.9 -63.2,-52.9 -35.3,0 -48.3,13 -53,26.9 -9.3,-15.8 -22.2,-26.9 -57.6,-26.9 -33.4,0 -42.7,11.2 -48.3,31.5 z m 300,0 h -41.8 v 122.5 h 44.6 v -63.2 c 0,-18.5 11.2,-25.1 33.4,-25.1 23.2,0 29.7,7.4 29.7,31.5 v 56.6 h 45.5 v -64.9 c 0,-17.6 13,-23.2 34.4,-23.2 20.5,0 30.7,6.5 30.7,23.2 v 64.9 h 44.6 v -72.4 c 0,-36.2 -22.2,-52.9 -63.2,-52.9 -35.3,0 -47.4,12 -52.9,26.9 -9.3,-15.8 -22.3,-26.9 -57.6,-26.9 -32.5,0 -40.8,11.2 -47.3,31.5 v -28.5 z"
   style="display:inline;fill:#002684;fill-opacity:1"
   inkscape:label="commodore" />
</g>
<path
   style="font-weight:bold;font-size:531.441px;line-height:0;font-family:'Microgramma D Extended';-inkscape-font-specification:'Microgramma D Extended Bold';text-align:center;letter-spacing:0px;word-spacing:0px;text-anchor:middle;fill:#000000;stroke-width:19.1319;stroke-linecap:square;stroke-miterlimit:2;paint-order:stroke fill markers"
   d="m 2741.8423,223.20521 c -0.5314,52.61266 -2.1257,53.1441 -120.6371,53.1441 -113.7283,0 -115.3227,-1.06288 -115.3227,-91.93929 0,-53.67554 4.2516,-74.40174 17.0062,-85.030559 10.6288,-8.50305 30.2921,-10.62882 97.7851,-10.62882 68.0244,0 99.3795,3.18865 107.3511,10.09738 6.3773,5.314409 7.4401,10.097379 8.503,33.480779 h 107.8825 v -17.53755 c 0,-56.864184 -10.6288,-82.904792 -40.9209,-98.31658 C 2779.0432,3.720086 2746.0939,0 2651.4974,0 2466.0245,0 2427.2293,9.034496 2408.0974,56.864184 2400.1258,76.527501 2398,105.75675 2398,184.94146 c 0,45.17248 1.0629,74.40174 2.6572,90.34497 4.2516,36.13798 14.8804,55.8013 38.2638,69.08732 28.6978,16.47467 73.3388,20.7262 212.0449,20.7262 78.6533,0 117.4485,-3.18864 146.1463,-12.22314 39.3266,-12.75458 54.207,-38.79519 54.207,-96.19082 0,-5.31441 -0.5315,-13.28602 -1.0629,-33.48078 z m 146.6779,136.58033 h 255.0917 c 119.0428,-0.53144 124.8886,-1.06288 145.0834,-7.97161 31.355,-10.62882 44.641,-36.66943 44.641,-87.15632 0,-56.86419 -14.3489,-77.59039 -61.1157,-85.562 35.6066,-10.09738 47.8297,-30.82358 47.8297,-81.310469 0,-64.30436 -19.1319,-86.624881 -77.0589,-90.876409 C 3227.0481,5.84585 3227.0481,5.84585 3143.0805,5.314409 H 2888.5202 Z M 2991.0884,145.08339 V 88.750641 h 151.9921 c 48.8925,0.53144 50.4869,0.53144 56.3327,1.59432 11.1603,2.65721 15.9432,10.628819 15.9432,25.509169 0,12.75459 -3.72,21.78908 -11.6917,24.97773 -6.9087,3.18864 -22.3205,4.25153 -60.5842,4.25153 z m 0,129.67159 v -58.98994 h 152.5235 c 62.71,0.53144 62.71,0.53144 68.0245,1.59432 12.2231,2.6572 17.0061,10.09738 17.0061,26.57205 0,14.88035 -3.7201,22.85196 -12.7546,26.57205 -7.9716,3.72008 -7.9716,3.72008 -72.276,4.25152 z M 3371.0692,5.314409 V 359.78554 h 106.2882 l -2.6572,-265.189049 h 19.1318 l 133.3917,265.189049 h 89.8135 L 3850.4289,94.596491 h 18.069 l -2.6572,265.189049 h 106.2882 V 5.314409 H 3777.6215 L 3671.8648,235.42835 3566.6394,5.314409 Z m 626.038,191.318751 -0.5314,71.74453 h 224.268 V 196.63316 Z M 4245.822,5.314409 V 359.78554 h 113.197 V 5.314409 Z m 163.1519,0 V 359.78554 h 113.1969 V 5.314409 Z"
   id="text2"
   inkscape:label="CBM-II"
   aria-label="CBM-II" /></svg>
