<?xml version="1.0" encoding="UTF-8" standalone="no"?>
<!-- Created with Inkscape (http://www.inkscape.org/) -->

<svg
   version="1.0"
   width="1188.5958"
   height="121.47977"
   id="svg2"
   sodipodi:docname="cbm2.svg"
   inkscape:version="1.2.2 (732a01da63, 2022-12-09)"
   xmlns:inkscape="http://www.inkscape.org/namespaces/inkscape"
   xmlns:sodipodi="http://sodipodi.sourceforge.net/DTD/sodipodi-0.dtd"
   xmlns="http://www.w3.org/2000/svg"
   xmlns:svg="http://www.w3.org/2000/svg">
  <sodipodi:namedview
     id="namedview824"
     pagecolor="#ffffff"
     bordercolor="#000000"
     borderopacity="0.25"
     inkscape:showpageshadow="2"
     inkscape:pageopacity="0.0"
     inkscape:pagecheckerboard="0"
     inkscape:deskcolor="#d1d1d1"
     showgrid="false"
     inkscape:zoom="0.94316065"
     inkscape:cx="755.96878"
     inkscape:cy="62.555621"
     inkscape:window-width="2560"
     inkscape:window-height="1369"
     inkscape:window-x="-8"
     inkscape:window-y="-8"
     inkscape:window-maximized="1"
     inkscape:current-layer="text1736" />
  <defs
     id="defs4">
    <rect
       x="794.68079"
       y="16.555849"
       width="291.90579"
       height="94.978302"
       id="rect880" />
  </defs>
  <g
     transform="translate(-126.08211,-224.69482)"
     style="display:inline;opacity:1"
     id="layer2">
    <path
       d="m 271.90388,279.47089 c 0.031,-12.57889 15.36229,-14.18944 16.85693,-14.07901 l 23.54918,10e-6 c 14.26841,0.25254 16.16244,10.54347 16.16244,10.54347 l 0.12627,5.68212 h -14.77348 c 0,0 0.1894,-4.60883 -2.71479,-4.60883 -2.90419,0 -20.70813,0 -20.70813,0 0,0 -3.15672,-0.0631 -3.28299,4.60883 -0.11044,3.97593 -0.12627,11.42736 -0.12627,11.42736 0,0 -0.0813,3.47239 4.98763,3.47239 5.06144,0 11.36987,0 14.89974,0 3.46678,0 7.00794,-1.57838 6.88167,-4.3563 0,0 -0.17362,0 3.03046,0 3.20408,0 10.29093,0 10.29093,0 v 6.25032 c 0,0 0.70481,7.96765 -15.15229,9.09137 0,0 -6.87584,0.12628 -13.16355,0.12628 -6.27423,0 -9.39256,-0.46052 -12.53222,-0.82076 -4.60459,-0.5283 -14.14213,-4.27735 -14.14213,-12.18496 0,-10.1686 -0.1894,-13.76334 -0.1894,-15.15229 z"
       style="display:inline;fill:#0044aa;fill-rule:evenodd;stroke:#2c5aa0;stroke-width:1.1;stroke-linecap:butt;stroke-linejoin:miter;stroke-miterlimit:4;stroke-dasharray:none;stroke-opacity:1"
       id="path1933" />
    <path
       d="m 612.873,267.45886 c -8.48292,0 -15.3125,5.10609 -15.3125,11.4375 v 17.96876 c 0,6.33142 6.82958,11.43748 15.3125,11.43749 h 27.3125 c 8.48292,0 15.28125,-5.10606 15.28125,-11.43749 v -17.96876 c 0,-6.33142 -6.79833,-11.4375 -15.28125,-11.4375 z m 7,9.96876 h 13.78125 c 4.18525,0 7.5625,2.35424 7.5625,5.3125 v 10.21874 c -1e-5,2.95826 -3.37723,5.34375 -7.5625,5.34375 H 619.873 c -4.18526,-1e-5 -7.53125,-2.38549 -7.53125,-5.34375 v -10.21874 c 0,-2.95827 3.34598,-5.3125 7.53125,-5.3125 z"
       style="fill:#0044aa;fill-opacity:1;stroke:#2c5aa0;stroke-width:1.1;stroke-miterlimit:4;stroke-dasharray:none;stroke-opacity:1"
       id="rect5653" />
    <path
       d="m 743.06748,267.82901 c -8.48292,0 -15.3125,5.10609 -15.3125,11.4375 v 17.96875 c 0,6.33143 6.82958,11.4375 15.3125,11.43751 h 27.3125 c 8.48292,0 15.28125,-5.10607 15.28125,-11.43751 v -17.96875 c 0,-6.33142 -6.79833,-11.4375 -15.28125,-11.4375 z m 7,9.96875 h 13.78125 c 4.18525,0 7.5625,2.35425 7.5625,5.3125 v 10.21875 c -1e-5,2.95825 -3.37723,5.34376 -7.5625,5.34376 h -13.78125 c -4.18526,-1e-5 -7.53125,-2.38551 -7.53125,-5.34376 v -10.21875 c 0,-2.95826 3.34598,-5.3125 7.53125,-5.3125 z"
       style="display:inline;fill:#0044aa;fill-opacity:1;stroke:#2c5aa0;stroke-width:1.1;stroke-miterlimit:4;stroke-dasharray:none;stroke-opacity:1"
       id="path6547" />
    <path
       d="m 350.68099,266.45599 c -8.48292,0 -15.3125,5.10607 -15.3125,11.43749 v 17.96875 c 0,6.33143 6.82958,11.43749 15.3125,11.43751 h 27.3125 c 8.48292,0 15.28125,-5.10607 15.28125,-11.43751 v -17.96875 c 0,-6.33143 -6.79833,-11.43749 -15.28125,-11.43749 z m 7,9.96875 h 13.78125 c 4.18525,0 7.5625,2.35424 7.5625,5.3125 v 10.21875 c -1e-5,2.95825 -3.37723,5.34375 -7.5625,5.34375 h -13.78125 c -4.18526,-2e-5 -7.53125,-2.3855 -7.53125,-5.34375 v -10.21875 c 0,-2.95826 3.34598,-5.3125 7.53125,-5.3125 z"
       style="display:inline;fill:#0044aa;fill-opacity:1;stroke:#2c5aa0;stroke-width:1.1;stroke-miterlimit:4;stroke-dasharray:none;stroke-opacity:1"
       id="path6549" />
    <path
       d="M 491.81656,306.4062 H 476.5253 v -23.05826 c 0,0 0.12135,-6.06796 -6.5534,-6.06796 -6.67475,0 -3.45859,0.0607 -10.13334,0.0607 -6.67475,1.45631 -6.61408,7.52427 -6.61408,7.52427 l -1.6e-4,21.67722 H 438.4185 v -23.05826 c 0,0 0.12135,-6.06796 -6.5534,-6.06796 -6.67475,0 -3.15534,-0.12138 -9.83009,-0.12138 -6.67475,1.45632 -6.5534,7.88836 -6.5534,7.88836 v 21.23787 h -15.29126 v -39.0227 h 14.15632 v 3.86163 h 1.25167 c 1.4214,0.0635 1.66861,0.14839 3.37188,-1.82723 2.41081,-2.79631 7.84966,-2.97836 7.84966,-2.97836 h 11.0416 c 0,0 10.8628,0.1318 12.63798,6.93622 l 0.8999,0.0117 c 0,0 2.79893,-6.82143 10.69413,-6.85774 0,0 2.11748,0.0821 7.47444,-0.13304 15.80578,-0.62503 21.89297,7.38589 22.32508,12.97746 z"
       style="display:inline;fill:#0044aa;fill-rule:evenodd;stroke:#2c5aa0;stroke-width:1.1;stroke-linecap:butt;stroke-linejoin:miter;stroke-miterlimit:4;stroke-dasharray:none;stroke-opacity:1"
       id="path6555" />
    <path
       d="m 705.87391,250.33387 0.1875,22.375 c -6.0928,-6.09281 -10.46877,-5.46875 -10.46875,-5.46875 h -18.8125 c -15.96139,0.68651 -14.56249,12.9375 -14.5625,12.9375 l 0.0625,18.71874 c 0.77234,8.40976 15.12499,9.59375 15.125,9.59376 0,0 12.77479,-10e-6 19.125,0 6.35023,0 8.25,-5.12502 8.25,-5.125 h 2.21875 v 4.78124 h 14.0625 v -57.81249 z m -20.46875,27.1875 h 12.46875 c 4.54013,0 8.1875,2.19642 8.1875,4.90625 v 10.96874 c 0,2.70984 -3.64737,4.90625 -8.1875,4.90625 h -12.46875 c -4.54014,-1e-5 -8.1875,-2.19641 -8.1875,-4.90625 v -10.96874 c 0,-2.70983 3.64737,-4.90625 8.1875,-4.90625 z"
       style="fill:#0044aa;fill-rule:evenodd;stroke:#2c5aa0;stroke-width:1.1;stroke-linecap:butt;stroke-linejoin:miter;stroke-miterlimit:4;stroke-dasharray:none;stroke-opacity:1"
       id="path1920" />
    <path
       d="m 792.42335,268.31398 v 39.92718 l 15.1699,-0.12135 -0.12136,-21.96603 c 0,0 0.48601,-5.7756 6.91747,-7.64562 l 8.00972,-0.12136 c 0,0 4.00485,-2e-5 3.88349,7.03882 l 14.07767,-0.12136 v -8.13106 c 0,0 -0.84951,-9.58739 -10.19417,-9.58738 l -10.92233,-0.12136 c 0,0 -6.69312,-0.96693 -10.55826,5.70388 h -2.18446 v -4.85436 z"
       style="fill:#0044aa;fill-rule:evenodd;stroke:#2c5aa0;stroke-width:1.1;stroke-linecap:butt;stroke-linejoin:miter;stroke-miterlimit:4;stroke-dasharray:none;stroke-opacity:1"
       id="path1928" />
    <path
       d="m 871.67791,267.52137 c -2.6511,0.0108 -5.50746,0.0568 -8.53125,0.0625 -15.50977,0.0291 -15.875,13.62502 -15.875,13.62501 0,0 -0.0625,6.35014 -0.0625,15.53125 0,8.75446 13.12065,12.45337 17.75,12.625 2.03782,0.0755 9.54358,0 23.53125,0 7.09574,-1.0582 15.55363,-3.45558 15.09375,-12.09376 h -14.75 c -0.42907,2.91767 -4.65623,3.15626 -4.65625,3.15626 0,0 -16.23811,-0.0625 -17.09375,-0.0625 -4.57454,0 -4.21875,-8.84374 -4.21875,-8.84375 h 40.8125 c 0,0 0.0276,-1.83443 0.0312,-2.87501 0.0107,-2.84262 -0.0492,-7.83489 -0.71875,-10.09374 -3.14627,-10.61444 -12.7548,-11.10661 -31.3125,-11.03125 z m -3.96875,8.81249 c 0.14412,-0.0114 0.29714,-0.006 0.4375,0 3.58011,10e-6 14.625,0 14.625,0 3e-5,10e-6 5.78125,0.1699 5.78125,3.75 0,4.83033 0,3.46876 0,3.46876 l -25.8125,-0.125 c -2e-5,0 -0.0183,-1.34744 0.1875,-3.46876 0.13456,-1.3868 2.61949,-3.45354 4.78125,-3.625 z"
       style="fill:#0044aa;fill-rule:evenodd;stroke:#2c5aa0;stroke-width:1.1;stroke-linecap:butt;stroke-linejoin:miter;stroke-miterlimit:4;stroke-dasharray:none;stroke-opacity:1"
       id="path1930" />
    <path
       d="m 590.40709,306.4062 h -15.29126 v -23.05826 c 0,0 0.12135,-6.06796 -6.5534,-6.06796 -6.67475,0 -3.45859,0.0607 -10.13334,0.0607 -6.67475,1.45631 -6.61408,7.52427 -6.61408,7.52427 l -1.6e-4,21.67722 h -14.80582 v -23.05826 c 0,0 0.12135,-6.06796 -6.5534,-6.06796 -6.67475,0 -3.15534,-0.12138 -9.83009,-0.12138 -6.67475,1.45632 -6.5534,7.88836 -6.5534,7.88836 v 21.23787 h -15.29126 v -39.0227 h 14.15632 v 3.86163 h 1.25167 c 1.4214,0.0635 1.66861,0.14839 3.37188,-1.82723 2.41081,-2.79631 7.84966,-2.97836 7.84966,-2.97836 h 11.0416 c 0,0 10.8628,0.1318 12.63798,6.93622 l 0.8999,0.0117 c 0,0 2.79893,-6.82143 10.69413,-6.85774 0,0 2.11748,0.0821 7.47444,-0.13304 15.80578,-0.62503 21.89297,7.38589 22.32508,12.97746 z"
       style="display:inline;fill:#0044aa;fill-rule:evenodd;stroke:#2c5aa0;stroke-width:1.1;stroke-linecap:butt;stroke-linejoin:miter;stroke-miterlimit:4;stroke-dasharray:none;stroke-opacity:1"
       id="path2828" />
    <g
       transform="translate(6.865114,6.865115)"
       id="g1980">
      <path
         d="m 196.3921,336.48673 c -5.94714,2.07444 -11.53307,2.82274 -18.16118,2.82274 -8.14802,0 -15.91067,-1.69943 -22.97077,-4.77333 -7.06009,-3.07391 -13.41849,-7.52099 -18.75844,-13.01716 -5.33952,-5.4953 -9.66102,-12.04013 -12.64689,-19.3065 -2.98629,-7.2668 -4.63782,-15.25602 -4.63782,-23.64268 0,-8.38667 1.65153,-16.37631 4.63782,-23.64311 2.98587,-7.26637 7.30737,-13.81077 12.64689,-19.30651 5.33952,-5.49617 11.69792,-9.94368 18.75844,-13.01715 7.0601,-3.0739 14.82275,-4.77333 22.97077,-4.77333 6.23842,0 9.60362,0.27533 15.24781,2.12191 0.62056,0.21534 1.48193,0.51829 2.86633,0.97745 l -0.025,3.73374 0.063,26.11975 v 0.24296 c -0.23346,-0.15276 -0.96838,-0.62962 -1.03398,-0.6676 -4.81562,-2.79728 -9.51343,-3.93786 -15.49984,-3.93786 -8.96752,0 -17.08577,3.59867 -22.96256,9.41677 -5.87636,5.8181 -9.51127,13.85565 -9.51127,22.73384 0,8.87777 3.63491,16.91574 9.51127,22.73341 5.87679,5.81811 13.99504,9.41634 22.96256,9.41634 6.24836,0 11.55335,-1.7538 16.50707,-4.78239 v 0.95242 l 0.0358,28.84194 z"
         style="fill:#0044aa"
         id="path1946" />
      <polygon
         points="179.959,78.103 298.459,78.103 245.459,134.853 179.959,134.853 "
         transform="matrix(0.431546,0,0,0.431546,119.217,217.8297)"
         style="fill:#0044aa"
         id="polygon1948" />
      <polygon
         points="179.959,203.103 298.459,203.103 245.459,146.353 179.959,146.353 "
         transform="matrix(0.431546,0,0,0.431546,119.217,217.8297)"
         style="fill:#e61e25"
         id="polygon1950" />
    </g>
  </g>
  <text
     xml:space="preserve"
     id="text878"
     style="font-size:85.3333px;white-space:pre;shape-inside:url(#rect880);fill:#ffffff" />
  <g
     aria-label="CBM-II"
     id="text1736"
     style="font-size:74.6667px;fill:#0044aa;stroke:#0044aa">
    <path
       d="m 849.68939,34.139279 q 22.85939,0 28.14585,3.809898 4.63021,3.299481 4.63021,17.481779 h -16.49741 q 0,-4.63021 -2.46094,-5.906253 -3.0625,-1.567709 -13.81771,-1.567709 -12.01303,0 -14.10938,1.877605 -2.09636,1.859376 -2.09636,11.794277 0,9.843754 2.09636,11.721359 2.09635,1.859376 14.10938,1.859376 10.90105,0 13.67188,-1.348959 2.67969,-1.257813 2.67969,-6.106773 h 16.42449 q 0,14.255215 -4.46615,17.46355 -5.30469,3.809897 -28.30991,3.809897 -22.98699,0 -27.78126,-4.174481 -4.84896,-4.19271 -4.84896,-23.296886 0,-19.049488 4.63021,-23.078136 5.01302,-4.338544 28.00001,-4.338544 z"
       style="font-weight:bold;font-family:Microgramma;-inkscape-font-specification:'Microgramma Bold';fill:#ffffff;stroke:#1a1a1a"
       id="path229" />
    <path
       d="m 909.57223,66.933566 h 28.45574 q 2.31511,0 3.59115,0.893229 1.1849,0.966147 1.1849,3.500002 0,4.028648 -4.77605,4.028648 H 909.57223 Z M 893.14774,34.886675 V 88.27993 h 49.65628 q 8.80469,0 12.61459,-3.354168 3.80989,-3.372398 3.80989,-11.429693 0,-9.333338 -7.38281,-12.614589 2.3151,-1.057293 3.88281,-3.882815 1.56771,-2.843751 1.56771,-7.018232 0,-9.479172 -5.23177,-12.851569 -3.51823,-2.242189 -11.19272,-2.242189 z m 16.42449,12.924486 h 29.13022 q 2.00521,0 3.04427,0.820313 1.0573,0.820313 1.0573,2.770834 0,1.859376 -1.03907,2.679689 -1.13021,0.89323 -3.0625,0.89323 h -29.13022 z"
       style="font-weight:bold;font-family:Microgramma;-inkscape-font-specification:'Microgramma Bold';fill:#ffffff;stroke:#1a1a1a"
       id="path231" />
    <path
       d="m 969.30925,35.050738 v 53.302109 h 16.44271 V 50.946579 q 0,-0.67448 -0.23698,-1.713543 -0.51041,-2.388021 -0.51041,-2.460938 0,-0.528646 0.4375,-0.528646 0.30989,0 0.67448,0.747396 0.38281,0.747396 0.82031,1.713542 L 1007.39,88.352847 h 13.4531 l 18.9584,-39.502623 q 0.2916,-0.747396 0.7474,-1.640626 0.4557,-0.820313 0.7474,-0.820313 0.4557,0 0.4557,0.601563 0,0.291667 -0.3828,1.713542 -0.3646,1.421876 -0.3646,2.388022 v 37.260435 h 16.4245 V 35.050738 h -28 l -14.0365,29.932306 q -0.4557,2.916668 -0.6745,4.630211 -0.3099,1.786459 -0.6015,1.786459 -0.3646,0 -0.6745,-2.989585 -0.3646,-2.898439 -0.6016,-3.427085 L 998.80405,35.050738 Z"
       style="font-weight:bold;font-family:Microgramma;-inkscape-font-specification:'Microgramma Bold';fill:#ffffff;stroke:#1a1a1a"
       id="path233" />
    <path
       d="M 1076.1687,66.332003 V 54.373664 h 54.5052 v 11.958339 z"
       style="font-weight:bold;font-family:Microgramma;-inkscape-font-specification:'Microgramma Bold';fill:#ffffff;stroke:#1a1a1a"
       id="path235" />
    <path
       d="M 1145.9135,88.352847 V 35.050738 h 16.4245 v 53.302109 z"
       style="font-weight:bold;font-family:Microgramma;-inkscape-font-specification:'Microgramma Bold';fill:#ffffff;stroke:#1a1a1a"
       id="path237" />
    <path
       d="M 1171.6713,88.352847 V 35.050738 h 16.4245 v 53.302109 z"
       style="font-weight:bold;font-family:Microgramma;-inkscape-font-specification:'Microgramma Bold';fill:#ffffff;stroke:#1a1a1a"
       id="path239" />
  </g>
</svg>
