<svg height="152.913" viewBox="0 0 729.648 290.535" width="384.026" xmlns="http://www.w3.org/2000/svg">
    <g stroke="#000">
        <g fill="#16bcf8" stroke-width="1.952">
            <path d="M0 .01v495.894c0 167.314 133.222 302.93 297.59 302.93 164.347 0 297.633-135.615 297.633-302.93V.01zm579.575 495.894c0 158.506-126.283 287.002-281.985 287.002-155.713 0-281.957-128.496-281.957-287.002V15.982h563.942z" transform="matrix(.19552 0 0 .19381 7.632 3.56)"/>
            <path d="M297.59 225.422c-99.223 0-185.769 55.428-231.435 137.444-21.854 39.318-34.313 84.716-34.313 133.038 0 149.384 118.96 270.481 265.747 270.481 146.786 0 265.756-121.098 265.756-270.481.001-149.352-118.969-270.482-265.755-270.482m-53.587 70.726-7.109-47.085c19.438-4.953 39.764-7.682 60.696-7.682 125.451 0 229.04 94.182 247.034 216.744-17.518 9.456-37.333 14.993-58.483 14.993-22.927 0-44.397-6.241-62.905-17.184-18.503-10.812-40.021-17.085-62.914-17.085-22.871 0-44.302 6.273-62.795 17.076-18.507 10.951-39.949 17.192-62.886 17.192-21.505 0-41.668-5.688-59.395-15.416l8.692-76.828 82.395-9.698v-4.245l-29.785-3.488 7.455-49.264 48.537-7.552v-2.86zm-60.065 61.094-5.701-50.518 48.02 7.454 7.354 48.906zm49.274-107.324-6.955 46.229-48.365 7.585-3.316-29.416a245.438 245.438 0 0 1 58.636-24.398zM84.39 362.866a253.57 253.57 0 0 1 85.483-85.698l-9.145 80.074-78.365 9.222c.683-1.204 1.313-2.428 2.027-3.598zm-4.759 8.484 81.098 9.524 8.407 73.739c-17.93-9.956-38.396-15.764-60.259-15.764-20.848 0-40.404 5.438-57.748 14.55 4.918-29.338 14.626-57.021 28.502-82.049zm-30.779 99.31c17.89-9.97 38.214-15.896 60.025-15.896 22.903 0 44.378 6.231 62.882 17.128h.02c18.507 10.956 39.992 17.119 62.862 17.119 22.937 0 44.378-6.229 62.886-17.119 18.494-10.82 39.924-17.128 62.795-17.128 22.893 0 44.411 6.308 62.914 17.128 18.508 10.956 39.979 17.119 62.905 17.119 21.885 0 42.427-5.871 60.402-15.894.445 5.127.619 10.314.79 15.526-18.158 10.348-38.981 16.316-61.192 16.316-22.927 0-44.397-6.177-62.905-17.14-18.503-10.878-40.021-17.088-62.914-17.088-22.871 0-44.302 6.274-62.795 17.088-18.507 10.909-39.949 17.14-62.886 17.14-22.87 0-44.355-6.23-62.862-17.14h-.02c-18.503-10.878-39.979-17.088-62.882-17.088-22.233 0-42.97 6.113-61.108 16.438.194-5.558.563-11.072 1.083-16.509zm1.669 62.794c17.474-9.368 37.249-14.92 58.355-14.92 22.903 0 44.378 6.231 62.882 17.153h.02c18.507 10.908 39.992 17.109 62.862 17.109 22.937 0 44.378-6.254 62.886-17.109 18.494-10.922 39.924-17.153 62.795-17.153 21.648 0 41.92 5.756 59.709 15.526l-8.755 77.067-82.387 9.685v4.322l29.797 3.481-7.389 49.176-48.593 7.649v2.88l48.593 7.597 7.018 46.796c-19.455 4.96-39.76 7.756-60.725 7.756-125.559 0-229.214-94.268-247.068-217.015zm366.82 154.912 3.315 28.973c-18.245 10.51-37.854 18.829-58.559 24.474l6.892-45.895zm-55.71-59.395 49.645 5.827 5.744 50.536-48.03-7.543zm63.77 85.657 9.102-79.83 77.859-9.131c-21.27 36.492-51.163 67.219-86.961 88.961zm89.864-93.966-80.762-9.534-8.406-74.022c17.866 9.937 38.258 15.691 60.044 15.691 20.869 0 40.436-5.409 57.793-14.618a255.836 255.836 0 0 1-28.669 82.483zm31.16-99.646c-17.965 10.013-38.442 15.831-60.284 15.831-22.927 0-44.397-6.21-62.905-17.109-18.503-10.941-40.021-17.161-62.914-17.161-22.871 0-44.302 6.241-62.795 17.161-18.507 10.855-39.949 17.109-62.886 17.109-22.87 0-44.355-6.254-62.862-17.109h-.02c-18.503-10.941-39.979-17.161-62.882-17.161-21.908 0-42.343 5.959-60.254 15.981-.442-5.137-.616-10.325-.747-15.481 18.118-10.315 38.811-16.405 61-16.405 22.903 0 44.378 6.197 62.882 17.119h.02c18.507 10.933 39.992 17.096 62.862 17.096 22.937 0 44.378-6.241 62.886-17.096 18.494-10.898 39.924-17.119 62.795-17.119 22.893 0 44.411 6.221 62.914 17.129 18.508 10.923 39.979 17.086 62.905 17.086 22.189 0 42.96-5.971 61.086-16.228-.164 5.469-.305 10.962-.801 16.357zM215.996 71.215H188.42v36.511h-28.687V71.215h-27.585v91.865h27.585v-36.112h28.687v36.112h27.576zm95.948 73.415V71.215H284.37v91.865h49.872l4.137-18.45zm-47.962-73.415h-27.585v91.865h27.585zm111.8 0h-27.564v91.865h27.564zM511.73 94.648c0-4.973 4.943-7.3 12.895-7.3 8.688 0 18.113 1.918 24.529 4.625l-2.297-20c-7.15-1.539-13.544-2.666-25.268-2.666-22.317 0-37.42 8.94-37.42 27.662 0 32.296 43.076 25.753 43.076 40.735 0 5.786-4.182 8.844-14.354 8.844-9.047 0-23.046-3.058-31.345-7.304l3.021 21.16c8.3 3.055 19.624 4.594 28.712 4.594 23.023 0 41.92-7.672 41.92-30.727.001-30.77-43.469-25.006-43.469-39.623zm-77.767 46.525c25.678 0 41.917-13.447 41.917-36.904 0-25.75-17.387-34.962-45.71-34.962-10.966 0-24.184.748-33.63 1.908v91.865h27.575v-21.907zm14.701-36.502c0 11.898-5.678 19.969-20.01 19.969h-4.539V86.687c1.593-.087 3.151-.087 4.539-.087 13.585 0 20.01 6.513 20.01 18.071zM79.253 141.173c25.701 0 41.93-13.447 41.93-36.904 0-25.75-17.357-34.962-45.699-34.962-10.942 0-24.161.748-33.587 1.908v91.865H69.46v-21.907zm14.748-36.502c0 11.898-5.668 19.969-20.013 19.969H69.46V86.687c1.604-.087 3.12-.087 4.528-.087 13.608 0 20.013 6.513 20.013 18.071z" transform="matrix(.19552 0 0 .19381 7.632 3.56)"/>
        </g>
        <g fill="#16bcf8" stroke-width="2.425">
            <path d="M586.91 6.215c-6.364.031-13.131.413-37.271.834v129.256l29.054.006v-27.655c5.787.03 12.064.141 15.342-.197 39.458-2.341 44.907-39.855 45.055-50.053.251-17.71-5.17-29.912-12.008-37.914-7.093-8.301-16.956-13.702-33.312-14.18-2.66-.079-4.738-.108-6.86-.097zm-.033 28.894c11.504.445 21.113 7.396 20.525 22.996-.66 17.103-13.062 22.805-28.695 21.3l-.014.06v-43.65h.018c2.754-.564 5.511-.808 8.166-.706z" stroke-width="1.901" transform="matrix(1.0006 0 0 .99804 -3.523 -2.653)"/>
            <path d="m741.115 56.787 32.697 11.646c21.766 8.592 26.391 26.027 26.182 41.043-.48 34.828-28.27 47.885-50.423 49.77-25.189 2.138-44.688-2.081-51.242-3.146v-37.902c19.937 6.055 43.137 5.814 50.971 2.76 5.926-2.31 10.428-5.839 10.07-10.471-.197-2.513-.449-5.709-7.939-8.911l-30.153-10.938c-19.363-6.972-26.834-25.356-26.027-41.732C696.89 15.82 723.323-.926 749.714.042c8.142.295 19.111.104 35.063 2.31v37.55c-17.873-4.157-26.255-4.089-35.476-2.943-10.315 1.274-14.947 6.608-14.731 12.306.104 2.888 2.987 6.054 6.547 7.471M181.926 59.922h42.897l-.012-56.994h39.842v153.208h-39.83V94.628h-42.897l-.006 61.508h-39.884V2.928h39.884zM302.178 2.928h39.866v153.208h-39.866zM480.311 2.928h39.873v153.208h-39.873zM419.437 121.351h41.105v34.773l-80.984.012V2.928h39.879z" transform="matrix(.7298 0 0 .8414 139.144 2.038)"/>
            <path d="M179.857 6.215c-6.365.031-13.132.413-37.275.834v129.256l29.1.006-.006-27.655c5.752.028 11.984.146 15.302-.197 39.459-2.341 44.908-39.855 45.06-50.053.253-17.71-5.175-29.912-12.007-37.914-7.097-8.301-16.963-13.702-33.314-14.18-2.662-.079-4.738-.108-6.86-.097zm-.039 28.894c11.502.445 21.115 7.396 20.528 22.996-.647 17.103-13.041 22.805-28.678 21.3l-.012-43.59c2.754-.564 5.508-.808 8.162-.706z" stroke-width="1.901" transform="matrix(1.0006 0 0 .99804 -3.523 -2.653)"/>
        </g>
        <g fill="#fff">
            <path d="M83.395 115.617c-11.112-.03-20.226 3.454-20.178 7.61-.048 4.409 9.066 7.882 20.178 7.609 11.4.273 20.513-3.2 20.744-7.61-.23-4.155-9.345-7.638-20.744-7.609zm-.008 3.574c4.723-.002 10.164.782 12.94 1.924 2.547 1.05 3.133 2.026 1.933 3.219-1.308 1.3-4.64 2.276-9.463 2.773-.896.093-8.078.187-8.912.118-.22-.019-.924-.076-1.56-.127-4.2-.339-7.781-1.338-9.124-2.545-.556-.5-.724-.798-.724-1.285 0-.47.174-.797.63-1.188 1.678-1.436 6.406-2.525 12.309-2.838.635-.033 1.296-.05 1.97-.05z" transform="matrix(1.9 0 0 1.9 0 0)"/>
            <path d="M83.395 95.133c-45.57-.234-82.622 12.506-82.4 28.094-.222 15.841 36.83 28.582 82.4 28.68 40.307-.108 73.785-9.941 81.248-22.827h-23.05c-7.49 7.492-30.655 12.807-58.198 12.875-33.383-.068-60.552-8.369-60.504-18.728-.048-10.116 27.12-18.418 60.504-18.145 27.178-.263 50.093 5.063 58.199 12.291h23.049c-7.741-12.72-41.104-22.474-81.248-22.24zm85.857 4.097v50.334h67.42c38.165.196 68.753-9.453 68.57-25.168.173-15.987-30.712-25.331-68.57-25.166zm197.07 0v11.706h16.711V99.23zm-178.054 9.364h48.412c26.381-.049 47.952 5.306 47.818 15.802.125 10.233-21.444 15.881-47.826 15.813v-.01h-48.404zm178.054 7.61v33.946h16.711v-33.947z" transform="matrix(1.9 0 0 1.9 0 0)"/>
        </g>
        <path d="M598.687 239.775v-11.96l8.98 1.554c4.94.855 20.08 3.447 33.647 5.76 13.567 2.313 24.817 4.333 25 4.488s-14.687 2.85-33.047 5.987-33.652 5.801-33.981 5.918c-.469.168-.599-2.383-.599-11.747z" fill="red" opacity=".98" stroke-width="1.9"/>
    </g>
</svg>
