<?xml version="1.0" encoding="UTF-8" standalone="no"?>
<!-- Created by ERK -->

<svg
   width="385.97427"
   height="142.592"
   viewBox="0 0 63.523227 23.467632"
   version="1.1"
   id="svg16"
   sodipodi:docname="cdogs.svg"
   inkscape:version="1.4 (86a8ad7, 2024-10-11)"
   xmlns:inkscape="http://www.inkscape.org/namespaces/inkscape"
   xmlns:sodipodi="http://sodipodi.sourceforge.net/DTD/sodipodi-0.dtd"
   xmlns="http://www.w3.org/2000/svg"
   xmlns:svg="http://www.w3.org/2000/svg">
  <defs
     id="defs16" />
  <sodipodi:namedview
     id="namedview16"
     pagecolor="#ffffff"
     bordercolor="#000000"
     borderopacity="0.25"
     inkscape:showpageshadow="2"
     inkscape:pageopacity="0.0"
     inkscape:pagecheckerboard="true"
     inkscape:deskcolor="#d1d1d1"
     showguides="true"
     inkscape:zoom="3.8185498"
     inkscape:cx="190.38641"
     inkscape:cy="101.47832"
     inkscape:window-width="3840"
     inkscape:window-height="2066"
     inkscape:window-x="-11"
     inkscape:window-y="-11"
     inkscape:window-maximized="1"
     inkscape:current-layer="g25">
    <sodipodi:guide
       position="54.281157,50.813321"
       orientation="0,-1"
       id="guide25"
       inkscape:locked="false" />
  </sodipodi:namedview>
  <g
     id="g25"
     inkscape:label="CdogsSDLShadow"
     style="display:inline;opacity:0.355;fill:#000000;fill-opacity:1;stroke:#000000;stroke-opacity:1"
     transform="translate(0.71986383,-0.65942064)">
    <path
       style="display:inline;opacity:1;fill:#000000;fill-opacity:1;stroke:#000000;stroke-width:1.28599;stroke-linejoin:bevel;stroke-miterlimit:4;stroke-dasharray:none;stroke-opacity:1"
       d="M 100.26,128.639 H 84.477 c -8.337,-0.672 -10.867,20.294 -11.056,23.742 -0.12,0.953 -0.1,4.13 0.144,5.014 0.67,2.437 2.498,4.379 4.287,4.523 1.494,0.12 2.96,-0.02 3.697,0.04 h 18.736 v -6.264 H 84.313 c -1.877,-0.01 -4.206,-2.178 -3.627,-4.388 l 4.08,-16.332 h 15.469 z"
       transform="matrix(0.65858,0,0,0.65858,-47.944,-83.626)"
       id="path17"
       inkscape:label="C" />
    <path
       style="display:inline;opacity:1;fill:#000000;fill-opacity:1;stroke:#000000;stroke-width:5.14595;stroke-linejoin:bevel;stroke-miterlimit:4;stroke-dasharray:none;stroke-opacity:1"
       d="M 73.977,45.982 C 59.912,45.836 55.392,88.132 55.682,104.318 l -0.123,9.086 c 0,0 -0.311,3.207 3.49,3.162 l 50.549,-0.027 c 7.726,-0.909 12.83,-6.092 12.4,-20.287 V 74.568 C 115.307,50.334 87.438,46.538 87.438,46.538 L 74.311,45.992 a 7.072,7.072 0 0 0 -0.334,-0.01 z m 16.18,21.372 c 3.58,-0.005 6.871,2.1 9.204,4.708 3.035,3.433 5.222,7.798 5.537,12.409 -0.232,2.053 -0.139,4.162 -0.724,6.158 -1.065,3.453 -3.721,6.892 -7.53,7.332 -5.552,0.245 -11.11,0.401 -16.665,0.611 1.065,-5.24 3.58,-32.107 9.458,-31.19 0.242,-0.019 0.48,-0.028 0.72,-0.028 z"
       transform="matrix(0.16458,0,0,0.16458,-1.668,-1.285)"
       id="path18"
       inkscape:label="D" />
    <path
       style="display:inline;opacity:1;fill:#000000;fill-opacity:1;stroke:#000000;stroke-width:5.14595;stroke-linejoin:bevel;stroke-miterlimit:4;stroke-dasharray:none;stroke-opacity:1"
       d="m 146.215,54.7 c -13.104,0 -23.654,12.408 -23.654,27.82 v 5.765 c 0,15.412 10.55,27.819 23.654,27.819 13.104,0 23.652,-12.407 23.652,-27.819 V 82.52 c 0,-15.412 -10.548,-27.82 -23.652,-27.82 z m -0.17,23.21 c 2.652,0 4.787,3.512 4.787,7.873 v 3.67 c 0,4.361 -2.135,7.873 -4.787,7.873 -2.652,0 -4.787,-3.512 -4.787,-7.873 v -3.67 c 0,-4.36 2.135,-7.873 4.787,-7.873 z"
       transform="matrix(0.16458,0,0,0.16458,-1.668,-1.285)"
       id="path19"
       inkscape:label="O" />
    <path
       style="display:inline;opacity:1;fill:#000000;fill-opacity:1;stroke:#000000;stroke-width:5.14595;stroke-linejoin:bevel;stroke-miterlimit:4;stroke-dasharray:none;stroke-opacity:1"
       d="m 187.016,56.508 a 13.927,13.927 0 0 0 -13.957,13.957 v 31.357 a 13.927,13.927 0 0 0 13.957,13.957 h 16.064 a 13.927,13.927 0 0 0 13.957,-13.957 V 70.465 A 13.927,13.927 0 0 0 203.08,56.508 Z m 1.293,20.482 h 7.19 l 0.093,4.047 c 0.119,3.75 0.058,7.502 0.07,11.254 h 3.676 v 4.512 h -11.03 V 81.037 Z"
       transform="matrix(0.16458,0,0,0.16458,-1.668,-1.285)"
       id="path20"
       inkscape:label="G" />
    <path
       style="display:inline;opacity:1;fill:#000000;fill-opacity:1;stroke:#000000;stroke-width:1.28599;stroke-linejoin:bevel;stroke-miterlimit:4;stroke-dasharray:none;stroke-opacity:1"
       d="m 131.291,138.997 c 4.81,-0.06 4.885,5.845 1.01,5.684 h -1.807 c -0.462,-0.04 -0.286,0.052 -0.046,0.24 1.77,1.386 4.496,3.684 4.582,4.996 0.227,2.677 -0.04,3.04 -2.007,4.074 -1.995,0.59 -4.069,0.258 -5.264,0.059 -4.144,-1.379 -4.218,-6.033 -0.163,-5.602 l 1.405,0.068 0.916,0.916 h 0.411 c -1.977,-1.854 -4.035,-3.692 -5.62,-5.62 -0.82,-3.701 2.046,-4.903 4.06,-4.836 -3,-0.006 1.982,0.018 2.523,0.021 z"
       transform="matrix(0.65858001,0,0,0.65858001,-47.944,-83.626)"
       id="path22"
       inkscape:label="S" />
    <path
       style="display:inline;opacity:1;fill:#000000;fill-opacity:1;stroke:#000000;stroke-width:0.846927;stroke-linejoin:bevel;stroke-miterlimit:4;stroke-dasharray:none;stroke-opacity:1"
       d="m 56.828592,7.9747123 -1.954007,9.8872617 6.458036,0.02107 c 1.402775,0.11591 1.460072,-3.438446 -0.250261,-3.157232 l -2.251026,0.04676 1.742603,-6.7899598 z"
       id="path23"
       inkscape:label="L" />
    <path
       style="display:inline;opacity:1;fill:#000000;fill-opacity:1;stroke:#000000;stroke-width:0.84692;stroke-linejoin:bevel;stroke-miterlimit:4;stroke-dasharray:none;stroke-opacity:1"
       d="m 50.093436,7.8634026 -2.515276,0.012508 -1.771539,9.9895124 h 8.571985 C 59.451949,13.294378 52.322179,7.7832521 50.093436,7.8634026 Z m 0.265797,3.6424844 0.850879,0.02831 c 1.00509,0.47399 1.505413,1.210815 1.512819,2.204878 l -0.0082,1.025992 -2.763627,-0.01646 z"
       id="path24"
       inkscape:label="D" />
    <path
       style="display:inline;opacity:1;fill:#000000;fill-opacity:1;stroke:#000000;stroke-width:0.846927;stroke-linejoin:bevel;stroke-miterlimit:4;stroke-dasharray:none;stroke-opacity:1"
       d="m 42.755396,7.9569306 c -1.167662,-0.00724 -2.392621,-0.1126172 -2.537509,1.6530358 l 0.01844,1.9737646 3.703854,3.283021 -0.74222,-0.01317 c -1.056362,-1.080071 -1.855878,-0.671751 -2.637613,-0.160693 -1.511441,1.207836 -0.491301,2.704129 1.555566,3.194771 0.745513,0.179134 1.860489,0.19955 2.756157,0.0922 1.529882,-0.516327 1.830853,-1.103122 1.981009,-1.69782 l 0.100763,-1.54898 -3.221115,-3.136158 -0.01317,-0.455737 0.43137,0.507107 1.789362,-0.04215 C 48.105042,9.9385978 46.294605,7.7514537 44.847046,7.9694436 Z"
       id="path25"
       inkscape:label="S" />
  </g>
  <g
     id="g17"
     inkscape:label="CdogsSDL"
     style="display:inline"
     transform="translate(0.0615482,-0.00110501)">
    <path
       style="display:inline;opacity:0.98;fill:#989898;fill-opacity:1;stroke:#000000;stroke-width:1.28599;stroke-linejoin:bevel;stroke-miterlimit:4;stroke-dasharray:none;stroke-opacity:0.964435"
       d="M 100.26,128.639 H 84.477 c -8.337,-0.672 -10.867,20.294 -11.056,23.742 -0.12,0.953 -0.1,4.13 0.144,5.014 0.67,2.437 2.498,4.379 4.287,4.523 1.494,0.12 2.96,-0.02 3.697,0.04 h 18.736 v -6.264 H 84.313 c -1.877,-0.01 -4.206,-2.178 -3.627,-4.388 l 4.08,-16.332 h 15.469 z"
       transform="matrix(0.65858,0,0,0.65858,-47.944,-83.626)"
       id="path2"
       inkscape:label="C" />
    <path
       style="display:inline;opacity:0.98;fill:#989898;fill-opacity:1;stroke:#000000;stroke-width:5.14595;stroke-linejoin:bevel;stroke-miterlimit:4;stroke-dasharray:none;stroke-opacity:1"
       d="M 73.977,45.982 C 59.912,45.836 55.392,88.132 55.682,104.318 l -0.123,9.086 c 0,0 -0.311,3.207 3.49,3.162 l 50.549,-0.027 c 7.726,-0.909 12.83,-6.092 12.4,-20.287 V 74.568 C 115.307,50.334 87.438,46.538 87.438,46.538 L 74.311,45.992 a 7.072,7.072 0 0 0 -0.334,-0.01 z m 16.18,21.372 c 3.58,-0.005 6.871,2.1 9.204,4.708 3.035,3.433 5.222,7.798 5.537,12.409 -0.232,2.053 -0.139,4.162 -0.724,6.158 -1.065,3.453 -3.721,6.892 -7.53,7.332 -5.552,0.245 -11.11,0.401 -16.665,0.611 1.065,-5.24 3.58,-32.107 9.458,-31.19 0.242,-0.019 0.48,-0.028 0.72,-0.028 z"
       transform="matrix(0.16458,0,0,0.16458,-1.668,-1.285)"
       id="path3"
       inkscape:label="D" />
    <path
       style="display:inline;opacity:0.98;fill:#989898;fill-opacity:1;stroke:#000000;stroke-width:5.14595;stroke-linejoin:bevel;stroke-miterlimit:4;stroke-dasharray:none;stroke-opacity:0.964435"
       d="m 146.215,54.7 c -13.104,0 -23.654,12.408 -23.654,27.82 v 5.765 c 0,15.412 10.55,27.819 23.654,27.819 13.104,0 23.652,-12.407 23.652,-27.819 V 82.52 c 0,-15.412 -10.548,-27.82 -23.652,-27.82 z m -0.17,23.21 c 2.652,0 4.787,3.512 4.787,7.873 v 3.67 c 0,4.361 -2.135,7.873 -4.787,7.873 -2.652,0 -4.787,-3.512 -4.787,-7.873 v -3.67 c 0,-4.36 2.135,-7.873 4.787,-7.873 z"
       transform="matrix(0.16458,0,0,0.16458,-1.668,-1.285)"
       id="path4"
       inkscape:label="O" />
    <path
       style="display:inline;fill:#989898;fill-opacity:1;stroke:#000000;stroke-width:5.14595;stroke-linejoin:bevel;stroke-miterlimit:4;stroke-dasharray:none;stroke-opacity:0.964435"
       d="m 187.016,56.508 a 13.927,13.927 0 0 0 -13.957,13.957 v 31.357 a 13.927,13.927 0 0 0 13.957,13.957 h 16.064 a 13.927,13.927 0 0 0 13.957,-13.957 V 70.465 A 13.927,13.927 0 0 0 203.08,56.508 Z m 1.293,20.482 h 7.19 l 0.093,4.047 c 0.119,3.75 0.058,7.502 0.07,11.254 h 3.676 v 4.512 h -11.03 V 81.037 Z"
       transform="matrix(0.16458,0,0,0.16458,-1.668,-1.285)"
       id="path5"
       inkscape:label="G" />
    <path
       style="display:inline;opacity:0.98;fill:none;fill-opacity:1;stroke:#000000;stroke-width:0.846926;stroke-linejoin:bevel;stroke-miterlimit:4;stroke-dasharray:none;stroke-opacity:1"
       d="m 111.7,111.636 v -0.666 h 1.184 l 0.015,0.666 m -1.198,0 v 2.595 h 1.815 v -0.743 h -0.605 c -0.002,-0.617 0.008,-1.235 -0.012,-1.852 h 3.551"
       transform="translate(-82.376,-99.584)"
       id="path6"
       inkscape:label="G2" />
    <path
       style="display:inline;opacity:0.98;fill:#989898;fill-opacity:1;stroke:#000000;stroke-width:1.28599;stroke-linejoin:bevel;stroke-miterlimit:4;stroke-dasharray:none;stroke-opacity:0.964435"
       d="m 131.291,138.997 c 4.81,-0.06 4.885,5.845 1.01,5.684 h -1.807 c -0.462,-0.04 -0.286,0.052 -0.046,0.24 1.77,1.386 4.496,3.684 4.582,4.996 0.227,2.677 -0.04,3.04 -2.007,4.074 -1.995,0.59 -4.069,0.258 -5.264,0.059 -4.144,-1.379 -4.218,-6.033 -0.163,-5.602 l 1.405,0.068 0.916,0.916 h 0.411 c -1.977,-1.854 -4.035,-3.692 -5.62,-5.62 -0.82,-3.701 2.046,-4.903 4.06,-4.836 -3,-0.006 1.982,0.018 2.523,0.021 z"
       transform="matrix(0.65858001,0,0,0.65858001,-47.944,-83.626)"
       id="path7"
       inkscape:label="S" />
    <path
       style="display:inline;opacity:0.98;fill:#546387;fill-opacity:1;stroke:#000000;stroke-width:0.846927;stroke-linejoin:bevel;stroke-miterlimit:4;stroke-dasharray:none;stroke-opacity:0.964435"
       d="m 56.828592,7.9747123 -1.954007,9.8872617 6.458036,0.02107 c 1.402775,0.11591 1.460072,-3.438446 -0.250261,-3.157232 l -2.251026,0.04676 1.742603,-6.7899598 z"
       id="path8"
       inkscape:label="L" />
    <path
       style="display:inline;opacity:0.98;fill:#546387;fill-opacity:1;stroke:#000000;stroke-width:0.84692;stroke-linejoin:bevel;stroke-miterlimit:4;stroke-dasharray:none;stroke-opacity:0.964435"
       d="m 50.093436,7.8634026 -2.515276,0.012508 -1.771539,9.9895124 h 8.571985 C 59.451949,13.294378 52.322179,7.7832521 50.093436,7.8634026 Z m 0.265797,3.6424844 0.850879,0.02831 c 1.00509,0.47399 1.505413,1.210815 1.512819,2.204878 l -0.0082,1.025992 -2.763627,-0.01646 z"
       id="path9"
       inkscape:label="D" />
    <path
       style="display:inline;opacity:0.98;fill:#546387;fill-opacity:1;stroke:#000000;stroke-width:0.846927;stroke-linejoin:bevel;stroke-miterlimit:4;stroke-dasharray:none;stroke-opacity:0.964435"
       d="m 42.755396,7.9569306 c -1.167662,-0.00724 -2.392621,-0.1126172 -2.537509,1.6530358 l 0.01844,1.9737646 3.703854,3.283021 -0.74222,-0.01317 c -1.056362,-1.080071 -1.855878,-0.671751 -2.637613,-0.160693 -1.511441,1.207836 -0.491301,2.704129 1.555566,3.194771 0.745513,0.179134 1.860489,0.19955 2.756157,0.0922 1.529882,-0.516327 1.830853,-1.103122 1.981009,-1.69782 l 0.100763,-1.54898 -3.221115,-3.136158 -0.01317,-0.455737 0.43137,0.507107 1.789362,-0.04215 C 48.105042,9.9385978 46.294605,7.7514537 44.847046,7.9694436 Z"
       id="path10"
       inkscape:label="S" />
  </g>
  <g
     style="display:inline;opacity:0.388041;stroke-width:1.31363"
     id="g16"
     inkscape:label="Sq"
     transform="translate(0.0615482,-0.00110501)">
    <path
       style="opacity:0.98;fill:#555555;fill-opacity:1;stroke:none;stroke-width:1.28605;stroke-linejoin:bevel;stroke-miterlimit:4;stroke-dasharray:none;stroke-opacity:0.964435"
       d="m 91.068,158.065 h 1.5 v 1.5 h -1.5 z"
       transform="matrix(0.65858,0,0,0.65858,-47.944,-83.626)"
       id="path11"
       inkscape:label="Sq1" />
    <path
       style="opacity:0.98;fill:#ffffff;fill-opacity:1;stroke:none;stroke-width:1.28605;stroke-linejoin:bevel;stroke-miterlimit:4;stroke-dasharray:none;stroke-opacity:0.964435"
       d="m 90.126,157.266 h 1.5 v 1.5 h -1.5 z"
       transform="matrix(0.65858,0,0,0.65858,-47.944,-83.626)"
       id="path12"
       inkscape:label="Sq2" />
    <path
       style="opacity:0.98;fill:#555555;fill-opacity:1;stroke:none;stroke-width:1.28605;stroke-linejoin:bevel;stroke-miterlimit:4;stroke-dasharray:none;stroke-opacity:0.964435"
       d="m 91.115,131.121 h 1.5 v 1.5 h -1.5 z"
       transform="matrix(0.65858,0,0,0.65858,-47.944,-83.626)"
       id="path13"
       inkscape:label="Sq3" />
    <path
       style="opacity:0.98;fill:#ffffff;fill-opacity:1;stroke:none;stroke-width:1.28605;stroke-linejoin:bevel;stroke-miterlimit:4;stroke-dasharray:none;stroke-opacity:0.964435"
       d="m 90.173,130.322 h 1.5 v 1.5 h -1.5 z"
       transform="matrix(0.65858,0,0,0.65858,-47.944,-83.626)"
       id="path14"
       inkscape:label="Sq4" />
    <path
       style="opacity:0.98;fill:#4d4d4d;fill-opacity:1;stroke:none;stroke-width:1.28606;stroke-linejoin:bevel;stroke-miterlimit:4;stroke-dasharray:none;stroke-opacity:0.964435"
       d="m 81.523,131.143 h 0.794 v 0.794 h -0.794 z m 8.494,7.159 h 0.794 v 0.794 h -0.794 z m 14.082,3.125 h 0.794 v 0.794 h -0.794 z m 11.974,-0.12 h 0.794 v 0.794 h -0.794 z m 11.092,0.07 h 0.794 v 0.794 h -0.794 z"
       transform="matrix(0.65858,0,0,0.65858,-47.944,-83.626)"
       id="path15"
       inkscape:label="Sq5" />
    <path
       style="display:inline;opacity:0.98;fill:#ffffff;fill-opacity:1;stroke:none;stroke-width:1.28606;stroke-linejoin:bevel;stroke-miterlimit:4;stroke-dasharray:none;stroke-opacity:0.964435"
       d="m 132.599,154.831 h 0.794 v 0.794 h -0.794 z m -15.067,0.143 h 0.794 v 0.794 h -0.794 z m -10.033,0.595 h 0.794 v 0.794 h -0.794 z"
       transform="matrix(0.65858001,0,0,0.65858001,-28.891524,-92.996139)"
       id="path16"
       inkscape:label="Sq6" />
  </g>
</svg>
