<?xml version="1.0" encoding="UTF-8" standalone="no"?>
<svg
   height="158.32361pt"
   preserveAspectRatio="xMidYMid meet"
   viewBox="0 0 598.41032 221.65306"
   width="427.43594pt"
   version="1.1"
   id="svg24"
   sodipodi:docname="centurye.svg"
   inkscape:version="1.1.2 (0a00cf5339, 2022-02-04, custom)"
   xmlns:inkscape="http://www.inkscape.org/namespaces/inkscape"
   xmlns:sodipodi="http://sodipodi.sourceforge.net/DTD/sodipodi-0.dtd"
   xmlns="http://www.w3.org/2000/svg"
   xmlns:svg="http://www.w3.org/2000/svg">
  <defs
     id="defs28" />
  <sodipodi:namedview
     id="namedview26"
     pagecolor="#ffffff"
     bordercolor="#666666"
     borderopacity="1.0"
     inkscape:pageshadow="2"
     inkscape:pageopacity="0.0"
     inkscape:pagecheckerboard="0"
     inkscape:document-units="pt"
     showgrid="false"
     inkscape:zoom="1.8757197"
     inkscape:cx="284.9573"
     inkscape:cy="105.55948"
     inkscape:window-width="1920"
     inkscape:window-height="1017"
     inkscape:window-x="-8"
     inkscape:window-y="-8"
     inkscape:window-maximized="1"
     inkscape:current-layer="svg24" />
  <g
     transform="matrix(.1 0 0 -.1 .047383 222.93383)"
     id="g8"
     style="fill:#f9f9f9">
    <path
       d="m1350 2211c-100-28-161-54-226-97-179-119-312-310-350-502-8-42-17-87-19-99-4-16-39-39-137-90-286-149-561-342-604-424-33-64-8-136 59-170 39-21 51-21 187-15 181 7 369 35 525 77 181 48 167 48 226-5 99-89 245-157 373-175 78-11 86-9 86 22 0 19-10 24-79 40-98 22-215 78-305 146-63 48-71 51-99 42-16-6-31-11-33-11-1 0-18 23-38 50-28 38-33 52-22 56 8 3 119 41 247 84 129 43 260 88 291 99 114 42 428 184 625 283 111 57 205 99 209 95 4-3 9-29 12-56 4-49 4-49-38-76-88-55-524-265-672-323-84-33-233-86-330-118-98-33-178-64-178-69 0-7 42-10 120-8 116 2 123 4 192 38 83 42 131 44 136 7 2-13-4-32-12-41-15-16-15-19-1-31 20-16 98 16 172 71 36 27 62 39 86 39 23 0 41 8 57 25 27 28 40 32 40 10 0-10 10-15 30-15 17 0 30-5 30-10 0-17-27-22-49-10-18 9-22 8-28-7-13-38-36-53-79-53-24 0-46 5-49 10-4 7-13 7-26 0-24-13-25-32-1-28 37 6 57-26 22-37-54-17-3-24 171-22l191 2 52 56c99 106 162 263 174 434l7 99 60 34c323 186 547 341 582 404 23 42 16 87-19 122-27 27-43 34-93 40-100 11-348-33-580-103l-130-39-51 48c-68 64-178 135-257 165-149 56-333 70-457 36zm1380-256c10-12 10-18 0-29-29-36-417-266-447-266-5 0-15 19-22 43-7 23-23 63-36 89-18 35-21 49-12 56 18 14 236 82 329 102 106 23 172 25 188 5zm-1550-24c0-12-20-25-27-18s6 27 18 27c5 0 9-4 9-9zm15-72c7-10-31-59-46-59-19 0-50 36-44 53 8 19 79 25 90 6zm635 1c0-6 11-15 25-20 28-11 33-28 10-36-15-6-67 45-58 58 6 12 23 10 23-2zm-904-112c-3-13-9-42-12-64-6-37-4-43 17-55 13-6 34-23 47-37 20-21 29-23 67-18 51 8 59 0 39-38-29-57-12-61 57-11 57 41 59 41 59 15 0-11 3-20 8-20 11 0 55 32 84 62 23 24 33 27 78 25 28-2 56-9 62-15 9-9 18-6 38 13 24 23 28 24 40 10 19-23 38-18 67 15 13 17 29 30 34 30s8-25 6-56c-4-51-2-56 19-65 13-4 24-15 24-22 0-21-37-50-55-43-8 3-26 0-40-6-21-9-28-8-46 8-20 18-21 18-45-14-17-21-34-32-51-32-14 0-38-11-55-25-16-14-41-25-54-25-34 0-194-111-194-134 0-11-82-86-94-86-3 0-6 6-6 14 0 27-21 28-61 2-22-15-43-25-48-22-4 3-19 40-32 83-21 67-24 98-24 218 0 127 3 148 29 228 15 48 33 87 38 87 6 0 8-10 4-22zm609-98c-3-5-10-10-16-10-5 0-9 5-9 10 0 6 7 10 16 10 8 0 12-4 9-10zm-751-402c10-35 29-89 43-121 14-31 23-60 20-64-26-26-414-103-593-119-82-6-100-1-89 28 6 16 104 81 235 156 90 52 348 182 361 182 3 0 14-28 23-62zm1201-108c12-19-24-60-50-60-33 0-32 23 3 49 31 23 38 25 47 11zm55-84c0-15-18-31-26-23-7 7 7 37 17 37 5 0 9-6 9-14z"
       id="path2"
       style="fill:#f9f9f9" />
    <path
       d="m1360 1555c-11-28-13-55-5-55 3 0 21 10 40 23 41 26 42 51 2 55-21 3-29-2-37-23z"
       id="path4"
       style="fill:#f9f9f9" />
    <path
       d="m1542 1560c-18-29-5-46 19-24 10 9 19 23 19 31 0 20-24 16-38-7z"
       id="path6"
       style="fill:#f9f9f9" />
  </g>
  <g
     font-family="Harry"
     stroke-width=".75"
     id="g22"
     style="fill:#f9f9f9">
    <text
       font-size="41.298"
       transform="matrix(1.0324501 0 0 .96856982 .047383 -.066169)"
       x="146.38165"
       y="227.96417"
       id="text12"
       style="fill:#f9f9f9"><tspan
         font-family="FreeSans"
         font-size="41.298"
         stroke-width=".75"
         x="146.38165"
         y="227.96417"
         id="tspan10"
         style="fill:#f9f9f9">AHEAD OF THE GAME</tspan></text>
    <text
       font-size="64.9675"
       letter-spacing="0"
       transform="matrix(.95751612 0 0 1.0443688 .047383 -.066169)"
       x="240.60318"
       y="120.1809"
       id="text16"
       style="fill:#f9f9f9"><tspan
         font-family="Crossharbour DB"
         font-size="64.9675"
         stroke-width=".75"
         x="240.60318"
         y="120.1809"
         id="tspan14"
         style="fill:#f9f9f9">CENTURY</tspan></text>
    <text
       font-size="65.1246"
       letter-spacing="0"
       transform="matrix(.95762643 0 0 1.0442485 .047383 -.066169)"
       x="153.14742"
       y="173.94124"
       id="text20"
       style="fill:#f9f9f9"><tspan
         font-family="Crossharbour DB"
         font-size="65.1246"
         stroke-width=".75"
         x="153.14742"
         y="173.94124"
         id="tspan18"
         style="fill:#f9f9f9">ELECTRONICS</tspan></text>
  </g>
</svg>
