<svg height="211.098" viewBox="0 0 598.41 221.653" width="569.915" xmlns="http://www.w3.org/2000/svg">
    <path d="M135.047 1.834c-10 2.8-16.1 5.4-22.6 9.7-17.9 11.9-31.2 31-35 50.2-.8 4.2-1.7 8.7-1.9 9.9-.4 1.6-3.9 3.9-13.7 9-28.6 14.9-56.1 34.2-60.4 42.4-3.3 6.4-.8 13.6 5.9 17 3.9 2.1 5.1 2.1 18.7 1.5 18.1-.7 36.9-3.5 52.5-7.7 18.1-4.8 16.7-4.8 22.6.5 9.9 8.9 24.5 15.7 37.3 17.5 7.8 1.1 8.6.9 8.6-2.2 0-1.9-1-2.4-7.9-4-9.8-2.2-21.5-7.8-30.5-14.6-6.3-4.8-7.1-5.1-9.9-4.2-1.6.6-3.1 1.1-3.3 1.1-.1 0-1.8-2.3-3.8-5-2.8-3.8-3.3-5.2-2.2-5.6.8-.3 11.9-4.1 24.7-8.4 12.9-4.3 26-8.8 29.1-9.9 11.4-4.2 42.8-18.4 62.5-28.3 11.1-5.7 20.5-9.9 20.9-9.5.4.3.9 2.9 1.2 5.6.4 4.9.4 4.9-3.8 7.6-8.8 5.5-52.4 26.5-67.2 32.3-8.4 3.3-23.3 8.6-33 11.8-9.8 3.3-17.8 6.4-17.8 6.9 0 .7 4.2 1 12 .8 11.6-.2 12.3-.4 19.2-3.8 8.3-4.2 13.1-4.4 13.6-.7.2 1.3-.4 3.2-1.2 4.1-1.5 1.6-1.5 1.9-.1 3.1 2 1.6 9.8-1.6 17.2-7.1 3.6-2.7 6.2-3.9 8.6-3.9 2.3 0 4.1-.8 5.7-2.5 2.7-2.8 4-3.2 4-1 0 1 1 1.5 3 1.5 1.7 0 3 .5 3 1 0 1.7-2.7 2.2-4.9 1-1.8-.9-2.2-.8-2.8.7-1.3 3.8-3.6 5.3-7.9 5.3-2.4 0-4.6-.5-4.9-1-.4-.7-1.3-.7-2.6 0-2.4 1.3-2.5 3.2-.1 2.8 3.7-.6 5.7 2.6 2.2 3.7-5.4 1.7-.3 2.4 17.1 2.2l19.1-.2 5.2-5.6c9.9-10.6 16.2-26.3 17.4-43.4l.7-9.9 6-3.4c32.3-18.6 54.7-34.1 58.2-40.4 2.3-4.2 1.6-8.7-1.9-12.2-2.7-2.7-4.3-3.4-9.3-4-10-1.1-34.8 3.3-58 10.3l-13 3.9-5.1-4.8c-6.8-6.4-17.8-13.5-25.7-16.5-14.9-5.6-33.3-7-45.7-3.6zm138 25.6c1 1.2 1 1.8 0 2.9-2.9 3.6-41.7 26.6-44.7 26.6-.5 0-1.5-1.9-2.2-4.3-.7-2.3-2.3-6.3-3.6-8.9-1.8-3.5-2.1-4.9-1.2-5.6 1.8-1.4 23.6-8.2 32.9-10.2 10.6-2.3 17.2-2.5 18.8-.5zm-155 2.4c0 1.2-2 2.5-2.7 1.8s.6-2.7 1.8-2.7c.5 0 .9.4.9.9zm1.5 7.2c.7 1-3.1 5.9-4.6 5.9-1.9 0-5-3.6-4.4-5.3.8-1.9 7.9-2.5 9-.6zm63.5-.1c0 .6 1.1 1.5 2.5 2 2.8 1.1 3.3 2.8 1 3.6-1.5.6-6.7-4.5-5.8-5.8.6-1.2 2.3-1 2.3.2zm-90.4 11.2c-.3 1.3-.9 4.2-1.2 6.4-.6 3.7-.4 4.3 1.7 5.5 1.3.6 3.4 2.3 4.7 3.7 2 2.1 2.9 2.3 6.7 1.8 5.1-.8 5.9 0 3.9 3.8-2.9 5.7-1.2 6.1 5.7 1.1 5.7-4.1 5.9-4.1 5.9-1.5 0 1.1.3 2 .8 2 1.1 0 5.5-3.2 8.4-6.2 2.3-2.4 3.3-2.7 7.8-2.5 2.8.2 5.6.9 6.2 1.5.9.9 1.8.6 3.8-1.3 2.4-2.3 2.8-2.4 4-1 1.9 2.3 3.8 1.8 6.7-1.5 1.3-1.7 2.9-3 3.4-3s.8 2.5.6 5.6c-.4 5.1-.2 5.6 1.9 6.5 1.3.4 2.4 1.5 2.4 2.2 0 2.1-3.7 5-5.5 4.3-.8-.3-2.6 0-4 .6-2.1.9-2.8.8-4.6-.8-2-1.8-2.1-1.8-4.5 1.4-1.7 2.1-3.4 3.2-5.1 3.2-1.4 0-3.8 1.1-5.5 2.5-1.6 1.4-4.1 2.5-5.4 2.5-3.4 0-19.4 11.1-19.4 13.4 0 1.1-8.2 8.6-9.4 8.6-.3 0-.6-.6-.6-1.4 0-2.7-2.1-2.8-6.1-.2-2.2 1.5-4.3 2.5-4.8 2.2-.4-.3-1.9-4-3.2-8.3-2.1-6.7-2.4-9.8-2.4-21.8 0-12.7.3-14.8 2.9-22.8 1.5-4.8 3.3-8.7 3.8-8.7.6 0 .8 1 .4 2.2zm60.9 9.8c-.3.5-1 1-1.6 1-.5 0-.9-.5-.9-1 0-.6.7-1 1.6-1 .8 0 1.2.4.9 1zm-75.1 40.2c1 3.5 2.9 8.9 4.3 12.1 1.4 3.1 2.3 6 2 6.4-2.6 2.6-41.4 10.3-59.3 11.9-8.2.6-10 .1-8.9-2.8.6-1.6 10.4-8.1 23.5-15.6 9-5.2 34.8-18.2 36.1-18.2.3 0 1.4 2.8 2.3 6.2zm120.1 10.8c1.2 1.9-2.4 6-5 6-3.3 0-3.2-2.3.3-4.9 3.1-2.3 3.8-2.5 4.7-1.1zm5.5 8.4c0 1.5-1.8 3.1-2.6 2.3-.7-.7.7-3.7 1.7-3.7.5 0 .9.6.9 1.4z"/>
    <path d="M136.047 67.434c-1.1 2.8-1.3 5.5-.5 5.5.3 0 2.1-1 4-2.3 4.1-2.6 4.2-5.1.2-5.5-2.1-.3-2.9.2-3.7 2.3zM154.247 66.934c-1.8 2.9-.5 4.6 1.9 2.4 1-.9 1.9-2.3 1.9-3.1 0-2-2.4-1.6-3.8.7z"/>
    <g font-family="Harry" stroke-width=".75">
        <text font-size="41.298" transform="matrix(1.03245 0 0 .96857 .047 -.066)" x="146.382" y="227.964"><tspan font-family="FreeSans" x="146.382" y="227.964">AHEAD OF THE GAME</tspan></text>
        <text font-size="64.968" letter-spacing="0" transform="matrix(.95752 0 0 1.04437 .047 -.066)" x="240.603" y="120.181"><tspan font-family="Crossharbour DB" x="240.603" y="120.181">CENTURY</tspan></text>
        <text font-size="65.125" letter-spacing="0" transform="matrix(.95763 0 0 1.04425 .047 -.066)" x="153.147" y="173.941"><tspan font-family="Crossharbour DB" x="153.147" y="173.941">ELECTRONICS</tspan></text>
    </g>
</svg>
