<svg height="183.936" viewBox="0 0 283.761 30.272" width="1724.152" xmlns="http://www.w3.org/2000/svg">
    <filter id="e" color-interpolation-filters="sRGB" height="1.589" width="1.106" x="-.051" y="-.208">
        <feFlood result="flood"/>
        <feComposite in="flood" in2="SourceGraphic" operator="in" result="composite1"/>
        <feGaussianBlur in="composite1" result="blur" stdDeviation=".4"/>
        <feOffset dx=".1" dy=".9" result="offset"/>
        <feComposite in="SourceGraphic" in2="offset" result="composite2"/>
    </filter>
    <linearGradient id="d" gradientUnits="userSpaceOnUse" x1="112.061" x2="112.061" y1="136.685" y2="158.552">
        <stop offset="0" stop-color="#fcfcfc"/>
        <stop offset=".625" stop-color="#7a7a7a" stop-opacity="0"/>
        <stop offset=".878" stop-color="#747474"/>
        <stop offset="1" stop-color="#4d4d4d"/>
    </linearGradient>
    <filter id="h" color-interpolation-filters="sRGB" height="2.726" width="1.854" x="-.427" y="-.861">
        <feGaussianBlur in="SourceGraphic" result="blur" stdDeviation=".948"/>
        <feDiffuseLighting result="diffuse" surfaceScale="10">
            <feDistantLight azimuth="79" elevation="204"/>
        </feDiffuseLighting>
        <feComposite in="diffuse" in2="diffuse" k1="1" operator="arithmetic" result="composite1"/>
        <feComposite in="composite1" in2="SourceGraphic" k1="1" k3="1" operator="arithmetic" result="composite2"/>
    </filter>
    <filter id="g" color-interpolation-filters="sRGB" height="2.726" width="1.854" x="-.427" y="-.861">
        <feGaussianBlur in="SourceGraphic" result="blur" stdDeviation=".948"/>
        <feDiffuseLighting result="diffuse" surfaceScale="10">
            <feDistantLight azimuth="79" elevation="204"/>
        </feDiffuseLighting>
        <feComposite in="diffuse" in2="diffuse" k1="1" operator="arithmetic" result="composite1"/>
        <feComposite in="composite1" in2="SourceGraphic" k1="1" k3="1" operator="arithmetic" result="composite2"/>
    </filter>
    <filter id="i" color-interpolation-filters="sRGB" height="2.726" width="1.854" x="-.427" y="-.861">
        <feGaussianBlur in="SourceGraphic" result="blur" stdDeviation=".948"/>
        <feDiffuseLighting result="diffuse" surfaceScale="10">
            <feDistantLight azimuth="79" elevation="204"/>
        </feDiffuseLighting>
        <feComposite in="diffuse" in2="diffuse" k1="1" operator="arithmetic" result="composite1"/>
        <feComposite in="composite1" in2="SourceGraphic" k1="1" k3="1" operator="arithmetic" result="composite2"/>
    </filter>
    <filter id="f" color-interpolation-filters="sRGB" height="4.51" width="1.511" x="-.255" y="-1.755">
        <feGaussianBlur in="SourceGraphic" result="blur" stdDeviation=".948"/>
        <feDiffuseLighting result="diffuse" surfaceScale="10">
            <feDistantLight azimuth="79" elevation="204"/>
        </feDiffuseLighting>
        <feComposite in="diffuse" in2="diffuse" k1="1" operator="arithmetic" result="composite1"/>
        <feComposite in="composite1" in2="SourceGraphic" k1="1" k3="1" operator="arithmetic" result="composite2"/>
    </filter>
    <filter id="q" color-interpolation-filters="sRGB" height="1.63" width="3.062" x="-1.03" y="-.315">
        <feGaussianBlur in="SourceGraphic" result="blur" stdDeviation=".948"/>
        <feDiffuseLighting result="diffuse" surfaceScale="10">
            <feDistantLight azimuth="48" elevation="204"/>
        </feDiffuseLighting>
        <feComposite in="diffuse" in2="diffuse" k1="1" operator="arithmetic" result="composite1"/>
        <feComposite in="composite1" in2="SourceGraphic" k1="1" k3="1" operator="arithmetic" result="composite2"/>
    </filter>
    <filter id="l" color-interpolation-filters="sRGB" height="16.062" width="17.74" x="-16.453" y="-14.826">
        <feGaussianBlur in="SourceGraphic" result="blur" stdDeviation=".948"/>
        <feDiffuseLighting result="diffuse" surfaceScale="10">
            <feDistantLight azimuth="43" elevation="204"/>
        </feDiffuseLighting>
        <feComposite in="diffuse" in2="diffuse" k1="1" operator="arithmetic" result="composite1"/>
        <feComposite in="composite1" in2="SourceGraphic" k1="1" k3="1" operator="arithmetic" result="composite2"/>
    </filter>
    <filter id="o" color-interpolation-filters="sRGB" height="2.191" width="2.026" x="-.513" y="-.595">
        <feGaussianBlur in="SourceGraphic" result="blur" stdDeviation=".948"/>
        <feDiffuseLighting result="diffuse" surfaceScale="10">
            <feDistantLight azimuth="43" elevation="204"/>
        </feDiffuseLighting>
        <feComposite in="diffuse" in2="diffuse" k1="1" operator="arithmetic" result="composite1"/>
        <feComposite in="composite1" in2="SourceGraphic" k1="1" k3="1" operator="arithmetic" result="composite2"/>
    </filter>
    <filter id="n" color-interpolation-filters="sRGB" height="2.569" width="3.069" x="-1.034" y="-.784">
        <feGaussianBlur in="SourceGraphic" result="blur" stdDeviation=".948"/>
        <feDiffuseLighting result="diffuse" surfaceScale="10">
            <feDistantLight azimuth="41" elevation="204"/>
        </feDiffuseLighting>
        <feComposite in="diffuse" in2="diffuse" k1="1" operator="arithmetic" result="composite1"/>
        <feComposite in="composite1" in2="SourceGraphic" k1="1" k3="1" operator="arithmetic" result="composite2"/>
    </filter>
    <filter id="k" color-interpolation-filters="sRGB" height="1.721" width="2.107" x="-.554" y="-.361">
        <feGaussianBlur in="SourceGraphic" result="blur" stdDeviation=".948"/>
        <feDiffuseLighting result="diffuse" surfaceScale="10">
            <feDistantLight azimuth="41" elevation="204"/>
        </feDiffuseLighting>
        <feComposite in="diffuse" in2="diffuse" k1="1" operator="arithmetic" result="composite1"/>
        <feComposite in="composite1" in2="SourceGraphic" k1="1" k3="1" operator="arithmetic" result="composite2"/>
    </filter>
    <filter id="p" color-interpolation-filters="sRGB" height="1.69" width="2.479" x="-.739" y="-.345">
        <feGaussianBlur in="SourceGraphic" result="blur" stdDeviation=".948"/>
        <feDiffuseLighting result="diffuse" surfaceScale="10">
            <feDistantLight azimuth="95" elevation="204"/>
        </feDiffuseLighting>
        <feComposite in="diffuse" in2="diffuse" k1="1" operator="arithmetic" result="composite1"/>
        <feComposite in="composite1" in2="SourceGraphic" k1="1" k3="1" operator="arithmetic" result="composite2"/>
    </filter>
    <filter id="m" color-interpolation-filters="sRGB" height="3.699" width="3.904" x="-1.452" y="-1.349">
        <feGaussianBlur in="SourceGraphic" result="blur" stdDeviation=".948"/>
        <feDiffuseLighting result="diffuse" surfaceScale="10">
            <feDistantLight azimuth="33" elevation="204"/>
        </feDiffuseLighting>
        <feComposite in="diffuse" in2="diffuse" k1="1" operator="arithmetic" result="composite1"/>
        <feComposite in="composite1" in2="SourceGraphic" k1="1" k3="1" operator="arithmetic" result="composite2"/>
    </filter>
    <filter id="j" color-interpolation-filters="sRGB" height="1.574" width="1.465" x="-.233" y="-.287">
        <feGaussianBlur in="SourceGraphic" result="blur" stdDeviation=".948"/>
        <feDiffuseLighting lighting-color="#838381" result="diffuse" surfaceScale="10">
            <feDistantLight azimuth="42" elevation="204"/>
        </feDiffuseLighting>
        <feComposite in="diffuse" in2="diffuse" k1="1" operator="arithmetic" result="composite1"/>
        <feComposite in="composite1" in2="SourceGraphic" k1="1" k3="1" operator="arithmetic" result="composite2"/>
    </filter>
    <filter id="b" color-interpolation-filters="sRGB" height="2.349" width="1.323" x="-.162" y="-.675">
        <feGaussianBlur in="SourceGraphic" result="blur" stdDeviation=".948"/>
        <feDiffuseLighting result="diffuse" surfaceScale="10">
            <feDistantLight azimuth="108" elevation="189"/>
        </feDiffuseLighting>
        <feComposite in="diffuse" in2="diffuse" k1="1" operator="arithmetic" result="composite1"/>
        <feComposite in="composite1" in2="SourceGraphic" k1="1" k3="1" operator="arithmetic" result="composite2"/>
    </filter>
    <filter id="a" color-interpolation-filters="sRGB" height="1.759" width="1.258" x="-.129" y="-.379">
        <feGaussianBlur in="SourceGraphic" result="blur" stdDeviation=".948"/>
        <feDiffuseLighting result="diffuse" surfaceScale="10">
            <feDistantLight azimuth="108" elevation="189"/>
        </feDiffuseLighting>
        <feComposite in="diffuse" in2="diffuse" k1="1" operator="arithmetic" result="composite1"/>
        <feComposite in="composite1" in2="SourceGraphic" k1="1" k3="1" operator="arithmetic" result="composite2"/>
    </filter>
    <filter id="c" color-interpolation-filters="sRGB" height="3.564" width="1.388" x="-.194" y="-1.282">
        <feGaussianBlur in="SourceGraphic" result="blur" stdDeviation=".948"/>
        <feDiffuseLighting result="diffuse" surfaceScale="10">
            <feDistantLight azimuth="108" elevation="189"/>
        </feDiffuseLighting>
        <feComposite in="diffuse" in2="diffuse" k1="1" operator="arithmetic" result="composite1"/>
        <feComposite in="composite1" in2="SourceGraphic" k1="1" k3="1" operator="arithmetic" result="composite2"/>
    </filter>
    <path d="M92.886 145.43c-.513.063-1.027-.93-.751-1.184 1.395-1.286 8.323-4.29 11.71-4.34 1.625-.309 2.694-.332 3.65-.042 3.68 1.116 2.025 6.304-.045 5.755" style="opacity:.98;fill:#5556c8;stroke-width:.132292;stroke-linecap:round;stroke-linejoin:round;stroke-opacity:.881958;filter:url(#a)" transform="translate(-74.798 -132.092)"/>
    <path d="M93.725 144.552c3.217-2.066 7.267-3.498 13.42-3.324l.649 1.471-5.233-.027c-1.164.09-6.87 2.207-8.836 1.88z" fill="#fff" fill-opacity=".771" filter="url(#b)" opacity=".98" transform="translate(-74.798 -132.092)"/>
    <path d="M95.782 145.053c1.264-.83 3.214-1.17 5.119-1.544 5.438-.444 5.252-.131 6.598-.024l-.123.733c-1.774-.29-4.139-.183-6.437-.121-1.57.482-3.275.816-5.157.956z" fill="#fff" fill-opacity=".771" filter="url(#c)" opacity=".98" transform="translate(-74.798 -132.092)"/>
    <path d="m117.744 137.745-.565-.698c.73.386 3.129-2.61 3.5-2.696l2.84-.007c1.58.05 1.738 3.183 1.647 3.465l-7.422-.063" style="opacity:.98;fill:#fcfcfc;stroke:#000;stroke-width:.264583;stroke-linecap:round;stroke-linejoin:round" transform="translate(-74.798 -132.092)"/>
    <path d="m50.514 5.587-.09-.603c.04-.413-.78-2.708-1.217-2.648l-1.385-.013.042 3.313z" opacity=".98"/>
    <g stroke-linejoin="round" transform="translate(-74.798 -132.092)">
        <path d="M122.634 136.868h2.374l.02.257h-2.394z" fill="#fff" opacity=".98"/>
        <path d="M74.872 147.385c11.161-1.387 13.986-2.18 17.24-3.003.059.362-.06.757.796.973-2.395-.006 6.636.136 14.542.264 1.621-.322 3.253-2.824-.094-6.122 1.448-1.51 2.84-2.322 4.214-2.933l5.214-.032.96 1.213 7.53.026-.294.866-.33.42-.125 16.924.483.378v1.02l.254.948H118.5c-4.3.113-11.502-1.475-15.99-1.829-1.745.133-18.333-1.668-27.638-9.113z" fill="#fcfcfc" opacity=".98" stroke="#000" stroke-linecap="round" stroke-width=".397"/>
        <path d="M74.872 147.385c11.161-1.387 13.986-2.18 17.24-3.003.059.362-.06.757.796.973-2.395-.006 6.636.136 14.542.264 1.621-.322 3.253-2.824-.094-6.122 1.448-1.51 3.666-2.944 4.214-2.933l5.214-.032.96 1.213 7.53.026-.294.866-.33.42-.125 16.924.483.378v1.02l.254.948H118.5c-4.3.113-11.502-1.475-15.99-1.829-1.745.133-18.333-1.668-27.638-9.113z" fill="url(#d)" opacity=".98" stroke="#000" stroke-linecap="round" stroke-width=".397"/>
        <ellipse cx="125.272" cy="147.946" fill="#535151" opacity=".98" rx="1.293" ry="10.172" stroke="#000" stroke-width=".397"/>
    </g>
    <path d="M34.406 9.593c.043-1.88 1.585-3.203 2.243-4.892-1.033.305-2.449 1.37-3.773 2.7.775.839 1.172 1.524 1.53 2.192zM41.894 4.642l-1.079 1.18c-.07.069-.011.097.02.113l.866.313c.08.035.118.02.157.002.584-.304.95-.198 1.394-.237h6.67L50 5.88l-7.062-.036c-.066.005-.066.005-.125-.046z" fill="#535151" fill-opacity=".399" opacity=".98"/>
    <path d="M119.08 151.611H98.593c-.637.171-.515 1.212.059 1.378 1.497.67 3.506.648 3.554 3.552.018.316.025.31.257.31h16.532c.166.01.245-.4.254-.689v-.48c.01-.27-.036-.34.195-.365.41-.017.279-.35.302-.496v-2.352c-.034-.416-.21-.826-.666-.858z" style="opacity:.98;fill:#fcfcfc;stroke:#727272;stroke-width:.264583;stroke-linecap:round;stroke-linejoin:round;filter:url(#e)" transform="translate(-74.798 -132.092)"/>
    <g filter="url(#f)" transform="translate(-74.798 -132.092)">
        <rect fill="#535151" height="1.275" opacity=".98" rx=".638" width="8.911" x="95.174" y="157.217"/>
        <path d="M96.264 157.2h1.058v1.297h-1.058z" fill="#671e5a" opacity=".98"/>
    </g>
    <g stroke-width="1.113">
        <g filter="url(#g)" transform="matrix(.89843 0 0 .89825 -64.564 -110.03)">
            <path d="M116.96 149.674h2.43c.795 0 1.435.537 1.435 1.204v.238c0 .667-.64 1.204-1.435 1.204h-2.43c-.795 0-1.436-.537-1.436-1.204v-.238c0-.667.64-1.204 1.436-1.204z" style="opacity:.98;fill:#871413;stroke-width:.147262;stroke-linecap:round;stroke-linejoin:round;stroke-opacity:.881958"/>
            <path d="M120.36 149.986c.77.581.531 1.706-.011 2.03m0 0c-.182-.238-.216-.598-.216-.934v-.095c0-.363.04-.763.227-1.001" fill="#4b0404" opacity=".98"/>
            <path d="M117.063 152.258c-.24-.28-.394-.72-.394-1.216v-.076c0-.5.156-.941.398-1.221h1.942c-.242.28-.398.721-.398 1.22v.077c0 .496.154.936.394 1.216l-.4-.005a113.21 113.21 0 0 0-1.542.005z" style="opacity:.98;fill:#fff;stroke:#fff;stroke-width:.147262;stroke-linecap:round;stroke-linejoin:round"/>
        </g>
        <g filter="url(#h)" transform="matrix(.89843 0 0 .89825 -75.97 -110.03)">
            <path d="M116.96 149.674h2.43c.795 0 1.435.537 1.435 1.204v.238c0 .667-.64 1.204-1.435 1.204h-2.43c-.795 0-1.436-.537-1.436-1.204v-.238c0-.667.64-1.204 1.436-1.204z" style="opacity:.98;fill:#871413;stroke-width:.147262;stroke-linecap:round;stroke-linejoin:round;stroke-opacity:.881958"/>
            <path d="M120.36 149.986c.77.581.531 1.706-.011 2.03m0 0c-.182-.238-.216-.598-.216-.934v-.095c0-.363.04-.763.227-1.001" fill="#4b0404" opacity=".98"/>
            <path d="M117.063 152.258c-.24-.28-.394-.72-.394-1.216v-.076c0-.5.156-.941.398-1.221h1.942c-.242.28-.398.721-.398 1.22v.077c0 .496.154.936.394 1.216l-.4-.005a113.21 113.21 0 0 0-1.542.005z" style="opacity:.98;fill:#fff;stroke:#fff;stroke-width:.147262;stroke-linecap:round;stroke-linejoin:round"/>
        </g>
        <g filter="url(#i)" transform="matrix(.89843 0 0 .89825 -70.488 -110.03)">
            <path d="M116.96 149.674h2.43c.795 0 1.435.537 1.435 1.204v.238c0 .667-.64 1.204-1.435 1.204h-2.43c-.795 0-1.436-.537-1.436-1.204v-.238c0-.667.64-1.204 1.436-1.204z" style="opacity:.98;fill:#871413;stroke-width:.147262;stroke-linecap:round;stroke-linejoin:round;stroke-opacity:.881958"/>
            <path d="M120.36 149.986c.77.581.531 1.706-.011 2.03m0 0c-.182-.238-.216-.598-.216-.934v-.095c0-.363.04-.763.227-1.001" fill="#4b0404" opacity=".98"/>
            <path d="M117.063 152.258c-.24-.28-.394-.72-.394-1.216v-.076c0-.5.156-.941.398-1.221h1.942c-.242.28-.398.721-.398 1.22v.077c0 .496.154.936.394 1.216l-.4-.005a113.21 113.21 0 0 0-1.542.005z" style="opacity:.98;fill:#fff;stroke:#fff;stroke-width:.147262;stroke-linecap:round;stroke-linejoin:round"/>
        </g>
    </g>
    <g fill="#535353" filter="url(#j)" stroke="#cdcdcd" transform="translate(-74.798 -132.092)">
        <g stroke-linecap="round" stroke-linejoin="round">
            <path d="M111.484 142.65h8.57c.239 0 .43.191.43.43v.92c-.002.045.002.075-.088.095l-.245.064c-.032.01-.063.024-.062.109l-.001 4.747c-.004.024 0 .046.036.057l.243.085c.068.017.11.057.118.134v1.093c0 .238-.192.43-.43.43h-8.57c-1.483-.007-1.348-8.153 0-8.164z" fill="#7d7d7d" opacity=".98" stroke="#000" stroke-width=".132"/>
            <path d="M112.504 143h6.206c.209 0 .377.169.377.377v6.158a.376.376 0 0 1-.377.376h-5.908a.376.376 0 0 1-.376-.376l-.013-.82c-.203.01-.32-.147-.319-.534l.033-4.804a.376.376 0 0 1 .377-.376z" opacity=".98" stroke="#000" stroke-width=".066"/>
            <rect fill="#4f4f4f" height="2.117" opacity=".98" rx=".377" stroke-width=".132" width="2.117" x="113.061" y="143.452"/>
            <rect fill="#4f4f4f" height="2.117" opacity=".98" rx=".377" stroke-width=".132" width="2.117" x="116.236" y="147.191"/>
            <rect fill="#4f4f4f" height="2.117" opacity=".98" rx=".377" stroke-width=".132" width="2.117" x="116.236" y="143.452"/>
            <rect fill="#4f4f4f" height="2.117" opacity=".98" rx=".377" stroke-width=".132" width="2.117" x="113.116" y="147.269"/>
        </g>
        <rect fill="#9aeefa" height="1.058" opacity=".98" rx=".273" width="1.058" x="114.053" y="144.447" stroke="none"/>
        <rect fill="#9aeefa" height="1.058" opacity=".98" rx=".273" width="1.058" x="117.222" y="144.421" stroke="none"/>
    </g>
    <path d="M129.515 153.82c.393-.032.833-.041 1.297-.072.647-.042 1.908-.833 1.986-1.692v-3.625h.887v3.758c.013 1.43-2.098 2.718-2.873 2.643h-1.27z" style="opacity:.98;fill:#cdd370;stroke:#000;stroke-width:.066146;stroke-linejoin:round;filter:url(#k)" transform="translate(-74.798 -132.092)"/>
    <g filter="url(#l)" transform="translate(-74.798 -132.092)">
        <ellipse cx="132.613" cy="145.176" rx=".795" ry=".855" style="opacity:.98;fill:#7b7b7b;stroke:#000;stroke-width:.066146;stroke-linejoin:round;filter:url(#m)"/>
        <ellipse cx="134.737" cy="142.983" fill="#808578" opacity=".98" rx=".654" ry=".703" stroke="#000" stroke-linejoin="round" stroke-width=".066"/>
        <path d="M135.505 143.43c.763 3.28.5 5.522.246 7.772-.192.634-.594.438-1.156.438v-8.184z" opacity=".98"/>
        <g stroke="#000" stroke-linejoin="round" stroke-width=".066">
            <path d="m134.07 143.41.488-.009c.026-.35.11-.667.596-.754h.56c.118 0 .125-.003.12.12v.43c-.476.191-.669.473-.72.8v8.028c-.02.363-.012.394-.316.397h-2.031c-.801-.91-.755-2.487-.779-4.009z" fill="#2e6b6b" opacity=".98"/>
            <path d="M131.418 148.605h.566l.414.717c.206.383.382.551.508.528.206-.303.221-.567.212-.887.09-.44.088-.46.484-.44.23.379.484.19.496 0v-5.317c-.42.041-.72.33-.89.891v.86c-.013.342-.276.856-.504.872h-.908v2.194h-.368z" fill="#129292" opacity=".98"/>
            <path d="M131.425 148.734h-3.338v-1.194h3.343c.347-.022.26.268.255.621.001.517-.036.598-.26.573z" fill="#acabac" opacity=".98"/>
        </g>
    </g>
    <path d="M127.586 155.922h.644c.084-.275.266-.52.694-.695h.71v-1.86c-.383-.164-.685.114-.722-.346h-1.478z" fill="#2c2c2d" filter="url(#n)" opacity=".98" transform="translate(-74.798 -132.092)"/>
    <path d="M127.654 149.999h2.192c1.076-.121 1.24-.688 1.73-.71.815-.138.529 1.63.532 1.656-.115.74-2.095 2.224-2.444 2.214h-1.992z" style="opacity:.98;fill:#a00203;stroke:#000;stroke-width:.066146;stroke-linejoin:round;filter:url(#o)" transform="translate(-74.798 -132.092)"/>
    <path d="M125.149 155.93h2.715v-6.79h-3.167v6.787z" style="opacity:.98;fill:#555353;stroke:#000;stroke-width:.132292;stroke-linejoin:round;filter:url(#p)" transform="translate(-74.798 -132.092)"/>
    <g filter="url(#q)" transform="translate(-74.798 -131.563)">
        <path d="M127.604 138.19v3.009h1.493v-3.103c-.006-.259.1-.317.227-.336.148-.01.12-.107.121-.45v-3.174c-.005-.18.023-.263-.455-.263h-1.42c-.357-.007-.353 0-.353.356v3.412c.234.082.387.243.387.55z" fill="#43b3b2" opacity=".98" stroke="#000" stroke-linejoin="round" stroke-width=".066"/>
        <path d="M127.611 139.859c.486.138.977.196 1.483 0v1.319H127.6z" fill="#4c5253" opacity=".98"/>
        <rect fill="#d1d1d1" height="1.795" opacity=".98" rx=".219" width="1.556" x="127.223" y="135.05"/>
        <path d="M127.223 135.352h1.169c.121 0 .22.097.22.219v.766c0 .121-.099.219-.22.219h-1.163" fill="none" opacity=".98" stroke="#ff211e" stroke-linejoin="round" stroke-width=".066"/>
        <g fill="#ff2321" stroke-width=".512">
            <path d="m127.818 136.376.056-.125h.035l.038.076.039-.076h.034l.056.125h-.043l-.032-.079-.038.08h-.031l-.038-.08-.033.08zM127.668 136.25h.038v.057q0 .008.009.012.007.004.017.004.01 0 .017-.004.008-.004.008-.012v-.056h.038v.125h-.038v-.042q-.015.01-.037.01-.024 0-.038-.01-.014-.009-.014-.024zM127.503 136.297q0-.013.004-.021.003-.01.013-.015.018-.011.048-.011.03 0 .047.01.01.007.014.016.003.008.003.02 0 .025-.018.037-.017.01-.047.01t-.047-.01q-.018-.012-.018-.036zm.039 0q0 .017.008.022.007.004.018.004.012 0 .018-.004.008-.005.008-.022 0-.017-.008-.023-.007-.004-.018-.004-.012 0-.018.004-.008.005-.008.023zM127.904 136.076q0-.026.02-.038.023-.015.059-.015.034 0 .057.014.013.008.018.022.002.008.002.028t-.002.029q-.004.013-.018.021-.023.014-.057.014t-.056-.012q-.018-.011-.023-.028h.041q.007.018.038.018.017 0 .026-.007.009-.005.01-.017l.001-.018v-.018q-.002-.012-.01-.017-.01-.007-.027-.007-.018 0-.03.007-.01.006-.01.016v.005h.04v.02h-.08zM127.742 136.07q0-.013.003-.02.003-.01.013-.015.018-.012.048-.012.03 0 .048.012.01.006.013.014.003.008.003.021 0 .025-.017.036-.018.011-.048.011-.03 0-.047-.01-.018-.012-.018-.037zm.038 0q0 .017.008.023.007.004.018.004.012 0 .018-.004.008-.005.008-.023 0-.017-.008-.022-.007-.004-.018-.004t-.018.004q-.008.005-.008.022zM127.636 136.024h.021q.022 0 .034.008.01.007.01.018v.046h.017v.017h-.017v.028h-.038v-.028h-.027v-.017h.027v-.044q0-.008-.014-.008h-.013zM127.918 135.902h.055v-.104h.04v.104h.056v.022h-.15zM127.761 135.798h.039v.056q0 .008.008.013.007.004.017.004.01 0 .017-.004.008-.004.008-.013v-.056h.038v.126h-.038v-.043q-.015.01-.037.01-.024 0-.038-.01-.013-.009-.013-.024zM127.594 135.837h.096q0-.01-.008-.015-.009-.006-.025-.006-.02 0-.035.009l-.023-.014q.013-.008.025-.01.013-.004.033-.004.071 0 .071.047 0 .022-.018.034-.018.013-.049.013-.03 0-.049-.013-.017-.012-.017-.031zm.038.015q0 .006.003.01.007.01.026.01.018 0 .025-.01.004-.004.004-.01zM127.9 135.572h.041v.052h.071v-.052h.041v.125h-.04v-.051h-.072v.051h-.04zM127.73 135.618q0-.014.004-.021.003-.01.013-.015.018-.012.048-.012.03 0 .048.012.01.006.013.015.003.008.003.02 0 .025-.017.036-.018.011-.047.011-.03 0-.048-.01-.018-.012-.018-.036zm.039 0q0 .016.008.022.007.004.018.004.012 0 .018-.004.008-.005.008-.022 0-.018-.008-.023-.007-.004-.018-.004t-.018.004q-.008.005-.008.023zM127.57 135.618q0-.014.004-.021.003-.01.013-.015.018-.012.048-.012.03 0 .048.012.01.006.013.015.003.008.003.02 0 .025-.017.036-.018.011-.048.011-.03 0-.047-.01-.018-.012-.018-.036zm.039 0q0 .016.008.022.007.004.018.004.012 0 .018-.004.008-.005.008-.022 0-.018-.008-.023-.007-.004-.018-.004t-.018.004q-.008.005-.008.023zM127.422 135.583q.02-.012.051-.012.028 0 .046.01.023.012.023.037 0 .025-.023.038-.018.01-.046.01-.03 0-.05-.013l.025-.015q.012.007.025.007.013 0 .022-.006.008-.006.008-.02t-.008-.02q-.008-.007-.022-.007-.013 0-.025.007zM127.266 135.572h.038v.056q0 .008.009.012.006.004.017.004.01 0 .017-.004.008-.004.008-.012v-.056h.038v.125h-.038v-.042q-.015.01-.037.01-.024 0-.038-.01-.014-.01-.014-.024z"/>
        </g>
        <path d="M127.21 134.6v-.509c0-.121.098-.22.22-.22h1.793c.122 0 .22.099.22.22v.51h-1.703z" opacity=".98"/>
    </g>
    <g fill="#fcfcfc" stroke="#000" stroke-linejoin="round" stroke-width=".132">
        <path d="M50.402 12.271h3.77c1.138.201 1.122-.862 1.11-1.92V8.872c-.011-.557-.252-.777-.697-.697-.27 1.224-.692 1.087-1.097 1.098h-.907V8.21h-.448V6.883c-.752-1.047-1.391-.492-2.045 0v5.444z" opacity=".98"/>
        <path d="m50.22 24.293.346-.404v-4.376c.29-1.047.688-2.036 2.562-2.22.283.002.428-.15.447-.446v-1.176l.666-.666c-.774-.644-.935-1.26-3.426-1.978v-1.573h-.428V6.942l.666-.667V4.868c-.769.861-1.063 1.91-1.223 3.088-.665 5.303-.787 10.75-.17 16.331z" opacity=".98"/>
    </g>
    <g fill="#fff" fill-opacity=".4" stroke-width=".411">
        <path d="M219.827 13.118q0 .04-.01.067-.014.04-.045.04-.021 0-.044-.01-.027-.01-.03-.028.01 0 .022.004.029.007.036.007.028 0 .042-.028.012-.022.012-.053 0-.022-.015-.063-.014-.041-.014-.058 0-.004.003-.007.003-.004.008-.004.013 0 .025.06.01.05.01.074zM219.954 13.152q0 .034-.02.053-.019.019-.053.019-.019 0-.03-.01-.01-.008-.01-.026 0-.026.035-.053.032-.025.06-.025.012 0 .016.016.002.009.002.026zm-.02.01-.001-.008q0-.004-.003-.01l-.018.018-.01.011v-.01l.004-.01q-.014 0-.03.012-.015.013-.015.027 0 .01.01.01.02 0 .039-.01.023-.012.023-.03zM220.09 13.166q0 .016-.013.036-.014.022-.028.022-.004 0-.007-.004-.003-.005-.003-.01 0-.006.012-.018.013-.013.013-.018l-.001-.005-.001-.004q-.025.005-.05.028-.026.023-.039.026-.003-.008-.003-.015 0-.01.004-.02l.01-.017q.012-.017.024-.04l.023-.04.024-.04.007-.008q.004-.004.01-.006.004.002.006.005.002.004.002.009 0 .011-.014.03l-.027.036q-.015.022-.015.04v.003l.022-.01q.014-.005.023-.005.01 0 .016.007.005.007.005.018zM220.242 13.146q0 .022-.01.048-.013.028-.03.038-.004-.004-.006-.01-.002-.004-.002-.01 0-.005.017-.033.007-.012.007-.021v-.005q-.013.004-.043.022l-.06.037q-.005 0-.009-.003-.004-.004-.004-.008 0-.007.022-.046l.024-.041q.005.006.007.015.002.008.002.02v.007l.047-.027q.02-.01.026-.01.005 0 .01.01.003.01.003.017zM220.528 13.21q0 .006-.005.01-.005.002-.011.002l-.014-.001-.025-.003-.039.002-.024.001q-.02 0-.02-.02 0-.019.013-.054l.026-.066q.017-.041.021-.058l.003-.007q.003-.004.007-.004.006 0 .01.01.005.008.005.015 0 .012-.014.04l-.026.052q-.014.031-.014.047 0 .009.007.012.005.002.014.002l.025-.001.024-.002q.015 0 .025.004.013.006.013.019zM220.65 13.152q0 .034-.019.053-.02.019-.053.019-.02 0-.03-.01-.01-.008-.01-.026 0-.026.034-.053.033-.025.06-.025.012 0 .016.016.002.009.002.026zm-.02.01v-.008l-.003-.01-.018.018-.01.011v-.01l.004-.01q-.014 0-.03.012-.015.013-.015.027 0 .01.01.01.02 0 .039-.01.023-.012.023-.03zM220.79 13.145q0 .01-.007.022-.005.012-.013.02v-.017l.001-.012q0-.005-.002-.008t-.007-.003q-.015 0-.038.024l-.05.052h-.004l-.007-.001q.001-.012.008-.027.02-.039.02-.042l.004-.015.004-.01.006-.01q.004-.005.01-.007l.002.04.022-.018q.015-.012.025-.012.01 0 .017.007.007.007.007.017zM220.95 13.107q0 .014-.036.036t-.052.022q-.008 0-.01-.005t-.002-.015v-.009q.022 0 .04-.006.018-.007.032-.022-.01-.004-.02-.004-.024 0-.051.019-.03.02-.03.042 0 .022.03.03.005.002.055.01.03.005.03.016 0 .005-.01.008-.012.003-.028.003-.042 0-.067-.013-.032-.017-.032-.055 0-.039.04-.062.033-.02.076-.02.013 0 .023.006.013.007.013.019zM221.082 13.048q0 .007-.018.03-.017.023-.017.036 0 .006.007.012.016.014.016.018 0 .004-.003.008t-.007.004q-.004 0-.01-.004l-.018-.013-.008.015-.012.025-.01.03q-.009.02-.021.02v-.007q0-.023.014-.055l.017-.03q-.026-.015-.057-.015 0-.012.005-.018.005-.006.017-.006.011 0 .028.004l.016.004q.006-.002.017-.021.027-.047.037-.054.003.004.004.009l.002.008zM221.203 13.166q0 .016-.012.036-.014.022-.028.022-.004 0-.007-.004-.003-.005-.003-.01 0-.006.012-.018.013-.013.013-.018l-.001-.005-.001-.004q-.025.005-.05.028-.026.023-.039.026-.003-.008-.003-.015 0-.01.004-.02l.01-.017.024-.04.023-.04.024-.04.007-.008q.004-.004.01-.006.004.002.006.005.002.004.002.009 0 .011-.014.03-.027.034-.027.036-.015.022-.015.04v.003l.022-.01q.014-.005.023-.005.01 0 .016.007.005.007.005.018zM221.474 13.058q0 .016-.017.042-.01.016-.034.047-.024.03-.03.04l.024.008q.024.007.024.026l-.019.003h-.004v-.002l-.009-.002-.02.002-.02.002q-.01 0-.015-.003-.006-.003-.006-.012 0-.007.026-.04l.047-.06q.026-.035.026-.047 0-.004-.003-.007-.003-.002-.012-.002-.006 0-.026.012-.01.006-.016.006h-.006l-.004-.006-.002-.006q0-.014.027-.025.023-.01.04-.01.014 0 .021.01.007.01.007.024zM221.671 13.117q0 .04-.043.07-.04.029-.081.029-.02 0-.033-.01-.012-.011-.012-.031 0-.045.04-.078.036-.031.082-.031.024 0 .036.014.012.013.012.037zm-.02.008q0-.015-.017-.023-.013-.005-.03-.005-.026 0-.055.025-.028.025-.028.051 0 .01.005.015.006.005.017.005.032 0 .067-.018.041-.021.041-.05zM221.822 13.058q0 .016-.016.042-.01.016-.035.047-.024.03-.03.04l.025.008q.024.007.024.026l-.02.003h-.003v-.002l-.01-.002-.02.002-.02.002q-.009 0-.014-.003-.006-.003-.006-.012 0-.007.025-.04l.048-.06q.026-.035.026-.047 0-.004-.003-.007-.003-.002-.012-.002-.006 0-.026.012-.01.006-.016.006h-.006l-.004-.006-.002-.006q0-.014.027-.025.022-.01.04-.01.013 0 .021.01.007.01.007.024zM221.974 13.058q0 .016-.017.042-.01.016-.035.047-.024.03-.03.04l.025.008q.024.007.024.026l-.02.003h-.003v-.002l-.01-.002-.019.002-.02.002q-.01 0-.015-.003-.006-.003-.006-.012 0-.007.026-.04l.047-.06q.026-.035.026-.047 0-.004-.003-.007-.003-.002-.012-.002-.006 0-.026.012-.01.006-.016.006h-.006l-.004-.006-.002-.006q0-.014.027-.025.023-.01.04-.01.014 0 .021.01.007.01.007.024z"/>
    </g>
    <g fill="#ffff75" stroke="#a44f32" stroke-width=".661">
        <path d="M286.247 10.879h-7.028c.385.834.482 1.187.482 1.829 0 .32-.032.674-.065.995l-.738 5.038h-1.38c-.77 0-.994-.193-.994-.835 0-.128.032-.289.032-.481l1.284-9.049c.064-.642.128-.995.16-1.155.064-.225.257-.481.481-.642a1.79 1.79 0 0 1 1.06-.32h4.203c.834 0 1.86.064 2.182.16.192.096.481.224.866.417l.802-5.744H276.46c-.867 0-1.38.032-1.573.032-.577.065-1.09.321-1.54.77-.738.674-1.09 1.605-1.315 3.017l-2.086 14.856c-.096.738-.16 1.412-.16 1.958 0 1.732.834 2.503 2.727 2.503h9.017c.898 0 1.957-.578 2.502-1.412.61-.867.706-1.22.995-3.402zM298.952 24.228l.738-5.199h-6.129l.514-3.69h6.16l.706-5.23h-6.128l.545-3.915h6.193l.674-5.102h-8.343c-1.829 0-2.47.193-3.24 1.155-.803.867-1.316 2.214-1.541 3.755l-1.893 13.477a7.403 7.403 0 0 0-.096 1.187c0 2.406 1.187 3.562 3.593 3.562zM301.197 24.228h6.257l2.278-15.948c.128-1.187.642-1.765 1.476-1.765.642 0 1.059.417 1.059.995 0 .16-.032.417-.096.706l-2.246 16.012h6.289l2.695-19.189c.064-.642.16-1.348.16-1.668 0-1.38-.994-2.279-2.502-2.279H314c-.867 0-1.669.29-2.279.802-.577.514-.898.963-1.476 2.182.065-.77.097-1.155.097-1.54 0-.449-.032-.738-.16-1.444h-6.45c.192 1.284.256 1.797.256 2.503 0 .45-.032.995-.128 1.669zM318.394 24.228h6.225l3.273-23.136h-6.289zM345.058 1.092h-6.225L336.49 17.49c-.16 1.252-.192 1.348-.673 1.637-.257.128-.514.224-.803.224-.705 0-1.155-.353-1.155-.93 0-.129.032-.418.129-.77l2.31-16.558h-6.29l-2.79 20.151c-.065.45-.13.93-.13 1.22 0 1.315.578 1.765 2.311 1.765h9.819c2.118 0 2.695-.578 3.048-2.985zM343.645 24.228h8.824c1.38 0 2.053-.257 2.791-.931.803-.77.899-1.091 1.188-3.016l1.09-7.701c.065-.321.065-.674.065-.995 0-1.348-.802-2.022-2.439-2.022h-3.209l.514-3.369h6l.706-5.102h-7.893c-1.861 0-2.214.097-3.145.642-1.155.802-1.508 1.508-1.861 4.14l-.738 5.07a14.408 14.408 0 0 0-.096 1.636c0 1.99.77 2.823 2.567 2.823h2.823l-.481 3.562h-5.936zM107.843 23.62l.77-5.52h-2.374c-.61 0-.963-.32-.963-.93 0-.064 0-.129.032-.225l1.348-9.755c.096-.77.546-1.155 1.316-1.155h2.374l.77-5.55h-5.936c-1.765 0-2.021.095-2.824.833-.898.835-1.572 2.15-1.732 3.498L98.57 19.32c-.032.256-.064.513-.064.802 0 1.059.32 2.086.834 2.663.546.706 1.027.834 2.6.834zM115.383 23.62h1.604c3.465 0 4.428-.29 6.032-1.701a7.178 7.178 0 0 0 1.765-2.471c.417-.995.802-2.535 1.06-4.364l.833-5.872c.385-2.695.45-3.145.45-3.818 0-1.733-.514-3.241-1.38-3.947-.738-.61-2.118-.963-3.979-.963h-3.048c-3.049 0-5.006.899-5.904 2.76-.642 1.315-1.06 3.016-1.477 5.968l-.834 5.872c-.128 1.091-.256 2.182-.256 2.888 0 3.562 1.925 5.647 5.134 5.647zm3.625-5.969c-.192.513-.738.93-1.283.93-.642 0-1.059-.417-1.059-.994 0-.225.032-.546.128-.995l1.38-9.947c.16-1.187.546-1.604 1.476-1.604.674 0 1.027.288 1.027.962 0 .193-.032.417-.064.642l-1.412 9.947a9.397 9.397 0 0 1-.193 1.06zM126.804 23.62h6.257l2.31-16.205c.13-1.09.61-1.668 1.445-1.668.802 0 1.155.385 1.155 1.219 0 .128-.032.32-.032.45l-2.31 16.203h6.257l2.278-16.3c.16-.995.706-1.637 1.508-1.637.674 0 1.059.385 1.059 1.06 0 .16-.032.32-.032.513l-2.375 16.364h6.225l2.728-19.252c.096-.674.128-1.22.128-1.7 0-1.413-.802-2.215-2.214-2.215l-2.984.032c-.867.032-1.669.385-2.118.93-.257.29-.481.675-.738 1.156-.096.224-.289.545-.481.962 0-1.443-.064-1.796-.385-2.278-.225-.417-.93-.77-1.605-.77h-3.754c-1.123 0-1.797.546-2.824 2.407l-.61 1.059c.129-.867.161-1.252.161-1.733 0-.546-.032-.899-.16-1.733h-6.354c.193 1.348.257 1.797.257 2.503 0 .45-.064 1.027-.128 1.7zM152.762 23.62h6.257l2.31-16.205c.129-1.09.61-1.668 1.444-1.668.803 0 1.155.385 1.155 1.219 0 .128-.032.32-.032.45l-2.31 16.203h6.257l2.278-16.3c.16-.995.706-1.637 1.509-1.637.673 0 1.058.385 1.058 1.06 0 .16-.032.32-.032.513l-2.374 16.364h6.225l2.727-19.252c.097-.674.129-1.22.129-1.7 0-1.413-.803-2.215-2.214-2.215l-2.985.032c-.866.032-1.668.385-2.117.93-.257.29-.482.675-.738 1.156-.097.224-.29.545-.482.962 0-1.443-.064-1.796-.385-2.278-.224-.417-.93-.77-1.604-.77h-3.754c-1.123 0-1.797.546-2.824 2.407l-.61 1.059c.129-.867.16-1.252.16-1.733 0-.546-.031-.899-.16-1.733h-6.353c.192 1.348.257 1.797.257 2.503 0 .45-.065 1.027-.129 1.7zM178.72 23.62h6.192l.738-5.07h2.471l-.706 5.07h6.225l2.792-19.767c.032-.385.064-.77.064-1.123 0-1.38-.93-2.246-2.439-2.246h-9.273c-.834 0-1.604.289-2.182.802-.674.578-.93 1.22-1.123 2.567zm8.567-16.686c.128-1.027.61-1.573 1.38-1.573.802 0 1.123.321 1.123 1.188 0 .128-.032.256-.032.385l-.963 6.706h-2.439zM195.82 23.62h6.258l2.278-15.948c.129-1.187.642-1.765 1.476-1.765.642 0 1.06.417 1.06.995 0 .16-.033.417-.097.706l-2.246 16.011h6.289l2.695-19.188c.065-.642.16-1.348.16-1.669 0-1.38-.994-2.278-2.502-2.278h-2.567c-.866 0-1.669.289-2.278.802-.578.514-.899.963-1.476 2.182.064-.77.096-1.155.096-1.54 0-.45-.032-.738-.16-1.444h-6.45c.192 1.284.257 1.797.257 2.503 0 .45-.033.995-.129 1.669zM213.019 23.62h11.455c2.246 0 3.658-1.605 4.075-4.525l1.99-14.054c.064-.546.096-1.06.096-1.509 0-1.86-1.123-3.048-2.952-3.048h-11.456zm8.76-18.034h1.09c.706 0 1.091.45 1.091 1.284 0 .16 0 .32-.032.48l-1.283 9.178c-.193 1.476-.546 1.893-1.54 1.893h-1.123zM242.474 23.62l.738-5.199h-6.129l.513-3.69h6.161l.706-5.23h-6.129l.546-3.915h6.193l.674-5.102h-8.343c-1.83 0-2.47.193-3.24 1.155-.803.867-1.317 2.214-1.541 3.755L230.73 18.87a7.403 7.403 0 0 0-.097 1.188c0 2.406 1.188 3.561 3.594 3.561zM244.719 23.62h6.225l1.219-8.664h.93c.899 0 1.252.288 1.252 1.155v.257l-.674 4.813c-.032.256-.032.481-.032.738 0 .802.032 1.09.32 1.7h6.675c-.417-.866-.513-1.219-.513-1.732 0-.257.032-.546.096-.963l.706-5.006c.032-.385.064-.77.064-1.123 0-1.7-.93-2.567-3.24-2.92 1.507-.256 2.15-.481 2.727-.994.77-.674 1.315-1.797 1.476-3.21l.481-3.304c.032-.193.032-.45.032-.674 0-.963-.257-1.733-.77-2.278-.674-.738-1.348-.93-3.209-.93h-10.557zm8.824-18.13h.61c1.058 0 1.507.32 1.507 1.09 0 .546-.16 1.637-.385 2.215-.192.642-.673.866-1.604.866h-.706z" transform="matrix(.81891 0 0 1.22113 -10.703 .356)"/>
    </g>
</svg>
