<?xml version="1.0" encoding="UTF-8" standalone="no"?>
<!-- Created by ERK -->

<svg
   version="1.1"
   viewBox="0 0 640 320"
   id="svg32"
   sodipodi:docname="cgenie.svg"
   width="640"
   height="320"
   inkscape:version="1.4 (86a8ad7, 2024-10-11)"
   xmlns:inkscape="http://www.inkscape.org/namespaces/inkscape"
   xmlns:sodipodi="http://sodipodi.sourceforge.net/DTD/sodipodi-0.dtd"
   xmlns="http://www.w3.org/2000/svg"
   xmlns:svg="http://www.w3.org/2000/svg">
  <defs
     id="defs32" />
  <sodipodi:namedview
     id="namedview32"
     pagecolor="#ffffff"
     bordercolor="#000000"
     borderopacity="0.25"
     inkscape:showpageshadow="2"
     inkscape:pageopacity="0.0"
     inkscape:pagecheckerboard="true"
     inkscape:deskcolor="#d1d1d1"
     inkscape:zoom="2.8284271"
     inkscape:cx="337.64349"
     inkscape:cy="247.3106"
     inkscape:window-width="3840"
     inkscape:window-height="2066"
     inkscape:window-x="-11"
     inkscape:window-y="-11"
     inkscape:window-maximized="1"
     inkscape:current-layer="svg32" />
  <g
     id="g33"
     inkscape:label="Logo"
     transform="translate(19.991269,10.495)">
    <g
       stroke-width="2"
       fill="none"
       stroke-linecap="butt"
       id="g6">
      <path
         stroke="#5c5032"
         vector-effect="non-scaling-stroke"
         d="M 600,51.25 0,51.23"
         id="path1" />
      <path
         stroke="#03849a"
         vector-effect="non-scaling-stroke"
         d="m 600,58.81 c -0.84,-0.04 -1.53,-0.31 -2.34,-0.31 q -284.61,-0.02 -569.22,0.03 -20.99,0 -28.45,0.15"
         id="path2" />
      <path
         stroke="#5c5032"
         vector-effect="non-scaling-stroke"
         d="M 600,240.48 H 0"
         id="path5" />
      <path
         stroke="#03849a"
         vector-effect="non-scaling-stroke"
         d="m 600,247.81 c -11.69,-0.52 -23.31,-0.2 -35,-0.21 Q 282.5,247.31 0,247.69"
         id="path6" />
    </g>
    <g
       fill="#000000"
       id="g16">
      <path
         d="m 141.37,70.22 q 8.96,0.54 17.95,0.22 c 2.01,-0.08 3.65,-1.34 5.82,-1.22 a 2.5,2.49 1.7 0 1 2.35,2.49 L 167.5,80 a 1.04,0.99 72 0 1 -0.39,0.81 c -1.75,1.34 -25.93,0.44 -29.83,0.46 a 1.92,1.91 -75.3 0 0 -1.67,0.98 q -17.93,31.96 -35.23,64.18 -1.77,3.29 -3.87,6.49 a 1.46,1.46 0 0 0 1.2,2.26 c 2.92,0.05 6.15,-0.43 8.81,-0.43 q 29.87,0.06 59.82,-0.09 a 1.15,1.15 0 0 1 1.16,1.15 v 8.85 a 0.71,0.7 80.9 0 1 -0.48,0.67 c -3.01,1.05 -6.42,0.17 -8.66,0.17 q -31.93,0 -63.86,0 -2.19,0 -6.86,0.76 a 1.43,1.43 0 0 1 -0.91,-0.15 L 85,165.16 a 0.45,0.45 0 0 1 -0.14,-0.66 q 2.84,-3.71 3.57,-5.07 c 16,-29.99 31.93,-60.32 49.4,-89.45 a 1.12,1.11 -79.7 0 1 0.76,-0.53 q 1.1,-0.21 1.91,0.44 a 1.57,1.54 -23.5 0 0 0.87,0.33 z"
         id="path7" />
      <path
         d="m 120.3,133.39 a 0.48,0.48 0 0 0 0.43,0.27 l 45.78,-0.31 a 0.98,0.98 0 0 1 0.99,0.98 v 9.2 a 1.15,1.14 -89.5 0 1 -1.15,1.14 c -19.15,-0.15 -38.27,-0.61 -57.42,0.07 a 1.39,1.39 0 0 1 -1.33,-1.93 c 0.8,-1.92 2.3,-3.67 3.12,-5.17 q 12.59,-22.88 24.99,-45.76 a 1.18,1.17 -75.9 0 1 1.01,-0.61 q 11.52,-0.06 22.95,0.01 c 1.91,0.01 4.84,-0.92 7.39,0.17 a 0.72,0.71 -79 0 1 0.44,0.66 v 9.08 a 0.99,0.99 0 0 1 -1,0.99 l -28.41,-0.34 a 2,1.98 15.4 0 0 -1.73,0.97 l -4.56,7.77 a 1.18,1.17 14.8 0 0 1.03,1.77 l 33.66,-0.57 a 0.97,0.97 0 0 1 0.99,0.96 l 0.04,8.71 a 1.47,1.46 -89.8 0 1 -1.47,1.47 l -39.7,-0.25 a 1.25,1.24 15 0 0 -1.08,0.62 l -5.14,8.63 a 1.1,1.09 48 0 0 -0.05,1.03 z"
         id="path8" />
      <path
         d="m 289.75,126.75 a 0.34,0.33 13.8 0 0 -0.3,-0.49 l -9.16,-0.01 a 0.77,0.77 0 0 1 -0.77,-0.77 l -0.02,-9.44 a 1.2,1.19 0 0 1 1.21,-1.2 l 20.75,0.2 a 0.9,0.9 0 0 1 0.88,0.77 c 2.13,15.55 -6.53,28.96 -22.03,32.52 -18.18,4.18 -36.07,-9.18 -35.65,-28.13 0.64,-28.84 37.3,-38.42 52.91,-14.78 q 0.86,1.29 0.23,2.94 a 1.57,1.49 -7.8 0 1 -0.59,0.74 q -2.76,1.8 -5.53,3.58 c -3.14,2.02 -6.57,-3.94 -9.05,-5.55 q -11.95,-7.78 -22.07,2.94 c -16.37,17.33 15.56,41.93 29.19,16.68 z"
         id="path9" />
      <path
         d="m 209.74,115.3 19.51,-0.07 a 1.76,1.75 89.8 0 1 1.76,1.76 l -0.02,7.65 a 1.63,1.62 0.2 0 1 -1.63,1.61 h -19.49 a 0.62,0.62 0 0 0 -0.62,0.62 v 9.26 a 0.63,0.62 0 0 0 0.63,0.62 h 27.2 a 1.15,1.15 0 0 1 1.15,1.14 l 0.04,8.31 a 1.54,1.53 90 0 1 -1.53,1.54 h -37.93 q -2.02,0 -2.43,-1.98 -0.16,-0.77 -0.13,-2.83 0.35,-23.66 0.12,-46.74 a 1.66,1.66 0 0 1 1.66,-1.68 l 39.19,-0.01 a 1.03,1.03 0 0 1 1.03,1.03 l 0.01,8.69 a 1.29,1.28 0 0 1 -1.29,1.28 l -27.24,-0.02 a 0.48,0.48 0 0 0 -0.48,0.48 v 8.85 a 0.49,0.49 0 0 0 0.49,0.49 z"
         id="path10" />
      <path
         d="m 325.14,136.78 22.56,-0.04 a 1.02,1.02 0 0 1 1.03,1.02 l 0.03,8.57 a 1.4,1.4 0 0 1 -1.4,1.4 l -34.63,0.02 a 1.45,1.45 0 0 1 -1.46,-1.45 c -0.06,-10.53 -0.68,-16.37 8.92,-22.36 3.92,-2.44 17.45,-8.9 15.87,-14.64 q -0.61,-2.23 -2.9,-3.03 -7.21,-2.53 -9.21,4.27 a 1.89,1.89 0 0 1 -2.17,1.33 c -2.69,-0.51 -12.07,-0.88 -10.08,-5.41 q 6.09,-13.89 22.04,-11.69 c 9.53,1.32 16.44,8 15.07,17.93 -0.91,6.59 -4.39,9.83 -10.34,13.45 q -7.09,4.31 -13.8,9.22 a 0.78,0.78 0 0 0 0.47,1.41 z"
         id="path11" />
      <path
         d="m 358.52,108.51 c 0.44,-6.2 8.08,-11.9 13.67,-13.3 10.29,-2.6 27.21,1.8 27.29,15.37 q 0.06,11.21 0,22.42 c -0.04,7.43 -9.29,13.22 -15.67,14.37 -11.4,2.05 -24.75,-3.13 -25.31,-16.31 q -0.59,-13.92 0.02,-22.55 z m 28.7,4.93 a 7.83,7.83 0 0 0 -7.83,-7.83 h -0.82 a 7.83,7.83 0 0 0 -7.83,7.83 v 15.22 a 7.83,7.83 0 0 0 7.83,7.83 h 0.82 a 7.83,7.83 0 0 0 7.83,-7.83 z"
         id="path12" />
      <path
         d="m 413.62,101.62 q 8.38,-8.95 20.87,-6.85 c 9.39,1.59 16.93,7.2 16.81,17.08 -0.08,7.42 1.75,21.43 -2.64,27.37 -5.62,7.62 -14.87,9.91 -24.29,7.81 -7.81,-1.74 -14.29,-7.8 -14.18,-16.25 0.1,-7.79 -2.01,-23.35 3.43,-29.16 z m 25.14,11.69 c 0.01,-10.58 -16.29,-9.01 -16.27,-1.3 q 0.02,8.3 0,16.65 c -0.03,10.25 16.25,10.53 16.26,0.23 q 0,-7.77 0.01,-15.58 z"
         id="path13" />
      <path
         d="m 502.19,137.27 c -7.6,15.84 -39.62,13.7 -39.68,-6.48 q -0.03,-11.01 0,-22.04 c 0.02,-6.45 8.7,-12.25 13.95,-13.57 10.75,-2.7 26.97,2.12 27.02,15.82 0.02,6.72 1.5,20.48 -1.29,26.27 z m -10.9367,-23.8156 a 7.83,7.83 0 0 0 -7.8164,-7.8436 l -0.84,-10e-4 a 7.83,7.83 0 0 0 -7.8436,7.8163 l -0.0266,15.22 a 7.83,7.83 0 0 0 7.8164,7.8436 l 0.84,0.001 a 7.83,7.83 0 0 0 7.8436,-7.8163 z"
         id="path14" />
    </g>
    <g
       fill="#00a05d"
       id="g20">
      <path
         d="m 0,51.23 600,0.02 v 7.56 c -0.84,-0.04 -1.53,-0.31 -2.34,-0.31 q -284.61,-0.02 -569.22,0.03 -20.99,0 -28.45,0.15 z"
         id="path17" />
      <path
         d="m 504,171.46 c 0,0 -0.0501,-0.0872 1.4,-0.3 1.45014,-0.21283 5.49986,-0.21283 6.95,0 1.45014,0.21283 1.4,0.3 1.4,0.3 1.25,0.82 0.76,8.8 0.75,10.58 -0.005,0.39373 -0.32623,0.71004 -0.72,0.71 h -9.77 c -0.39377,4e-5 -0.71453,-0.31627 -0.72,-0.71 -0.04,-1.77 -0.55,-9.76 0.71,-10.58 z"
         id="path18"
         sodipodi:nodetypes="czzcccccc" />
      <path
         d="m 173.22,195.26 c 11.82,-19.71 44.01,-11.92 41.53,13.5 -2.02,20.61 -28.58,25.41 -39.94,10.64 -5.11,-6.64 -5.94,-16.88 -1.59,-24.14 z m 26.2434,3.3713 a 9.41,9.41 0 0 0 -13.3061,-0.209 l -1.1347,1.0995 a 9.41,9.41 0 0 0 -0.209,13.3061 l 1.183,1.2208 a 9.41,9.41 0 0 0 13.3061,0.209 l 1.1347,-1.0995 a 9.41,9.41 0 0 0 0.209,-13.3061 z"
         id="path19" />
      <rect
         x="503.25"
         y="184.27"
         width="11.26"
         height="42.48"
         rx="1.4400001"
         id="rect19" />
      <path
         d="m 0,240.48 h 600 v 7.33 c -11.69,-0.52 -23.31,-0.2 -35,-0.21 Q 282.5,247.31 0,247.69 Z"
         id="path20" />
    </g>
    <g
       fill="#0567d7"
       id="g25">
      <path
         d="m 600,58.81 v 7 C 445.16,66.08 290.31,65.54 135.47,66.01 Q 67.73,66.22 0,65.68 l -0.01,-7 Q 7.45,58.53 28.44,58.53 313.05,58.48 597.66,58.5 c 0.81,0 1.5,0.27 2.34,0.31 z"
         id="path21" />
      <path
         d="m 365.93745,171.34276 c 5.88781,-0.0179 17.17079,1.70194 24.77255,13.81724 0.65174,1.03922 0.32855,2.41275 -0.72,3.06 l -6.4,3.96 c -0.77161,0.47502 -1.77226,0.33207 -2.38,-0.34 -1.87,-2.05 -3.89,-4.59 -6.31,-5.97 -8.94667,-5.09333 -16.58667,-3.45667 -22.92,4.91 -10.34,13.66 7.36,32.18 22.14,23.87 3.75333,-2.10667 6.46667,-4.94333 8.14,-8.51 0.20841,-0.42909 -0.11638,-0.92709 -0.6,-0.92 l -8.45,0.11 c -0.51753,0.006 -0.94003,-0.41244 -0.94,-0.93 l -0.03,-9.49 c 0,-0.50258 0.40742,-0.91 0.91,-0.91 h 21.07 c 0.43793,2.7e-4 0.81115,0.3226 0.88,0.76 3.05,19.97 -12.31,34.81 -31.98,33.01 -38.10517,-3.49184 -30.41839,-56.32622 2.81745,-56.42724 z"
         id="path22"
         sodipodi:nodetypes="sccccccccccccscccs" />
      <path
         d="m 80.94,208.46 c 3.05,1.77 9.04,4.14 5.46,8.69 -17.54,22.3 -54.67,9.78 -51.86,-19.7 1.39,-14.61 12.62,-24.76 27.1,-25.53 q 15.44,-0.82 25.66,13.09 a 2.74,2.73 53.5 0 1 -0.56,3.81 c -2.6,1.94 -6.89,6 -9.86,2.24 -9.26,-11.74 -25.39,-8.89 -30.24,4.93 -4.12,11.73 8.85,24.05 20.35,20.69 q 6.6,-1.93 10.46,-7.45 a 2.65,2.65 0 0 1 3.49,-0.77 z"
         id="path23" />
      <path
         d="m 261.48,225.83 a 1.24,1.23 85.6 0 1 -1.03,1.21 q -3.76,0.66 -7.98,0.07 -2.29,-0.32 -4.39,0.14 c -10.07,2.21 -19.78,-1.62 -23.54,-11.32 q -1.33,-3.43 -1.3,-10.04 0.03,-10.26 0,-20.59 a 1.04,1.04 0 0 1 1.05,-1.04 l 9.53,0.05 a 0.63,0.63 0 0 1 0.62,0.63 q 0.05,8.76 0.1,17.4 c 0.03,6.16 -0.4,10.63 4.71,13.44 5.82,3.2 10.4,-2.41 10.7,-7.77 q 0.61,-10.91 0.14,-22.66 a 0.96,0.96 0 0 1 0.95,-1 l 8.94,-0.13 a 1.49,1.49 0 0 1 1.51,1.5 z"
         id="path24" />
      <path
         d="m 600,247.81 v 7.17 L 0,254.94 v -7.25 q 282.5,-0.38 565,-0.09 c 11.69,0.01 23.31,-0.31 35,0.21 z"
         id="path25" />
    </g>
    <g
       fill="#b70006"
       id="g31">
      <path
         d="m 600,44.05 v 7.2 L 0,51.23 v -7.2 z"
         id="path26" />
      <path
         d="m 95.05,201.65 c 4.57,-25.68 45.23,-21.75 44.18,4.88 -1.23,31.17 -49.88,27.06 -44.18,-4.88 z m 29.6564,11.3673 a 9.42,9.42 0 0 0 -0.0233,-13.3219 l -1.1758,-1.1718 a 9.42,9.42 0 0 0 -13.3219,0.0233 l -1.1718,1.1758 a 9.42,9.42 0 0 0 0.0233,13.3219 l 1.1758,1.1718 a 9.42,9.42 0 0 0 13.3219,-0.0233 z"
         id="path27" />
      <path
         d="m 283.79,185.54 q 3.87,-1.55 8.07,-1.16 a 1.52,1.51 -87.9 0 1 1.38,1.49 q 0.04,3.47 -0.01,7.33 c -0.03,2.14 -0.98,2.11 -2.71,2.31 -6.12,0.68 -7.49,5.4 -7.51,11.09 q -0.02,9.68 -0.02,19.14 a 0.99,0.99 0 0 1 -1,1 l -9.52,-0.05 a 0.73,0.72 0.4 0 1 -0.72,-0.72 v -40.72 a 0.75,0.75 0 0 1 0.75,-0.75 h 9.42 a 1.02,1 73.1 0 1 0.84,0.46 l 0.18,0.3 a 0.7,0.7 0 0 0 0.85,0.28 z"
         id="path28" />
      <path
         d="m 419.56,216.27 c 5.62,1.79 11.05,-2.42 13.34,-7.23 a 1.32,1.31 -88 0 1 0.68,-0.64 q 2.32,-0.94 3.66,1.11 c 1.16,1.78 4.76,6.3 4.2,8.28 -1.23,4.41 -9.28,8.77 -13.1,9.52 -13.34,2.62 -26.16,-4.37 -27.78,-18.21 -2.94,-25.19 29.58,-34.03 42.08,-13.35 0.77,1.29 0.76,2.64 0.48,4.02 a 1.29,1.27 -10.9 0 1 -0.55,0.8 l -23.13,14.84 a 0.48,0.48 0 0 0 0.12,0.86 z m 6.77,-19.51 c -6.63,-3.5 -13.22,3.36 -14.57,9.4 a 0.26,0.26 0 0 0 0.4,0.27 l 14.19,-9.18 a 0.28,0.28 0 0 0 -0.02,-0.49 z"
         id="path29" />
      <path
         d="m 542.14,215.98 c 5.15,2.75 11.37,-2.49 13.2,-6.95 a 0.98,0.98 0 0 1 0.81,-0.61 l 2,-0.2 a 1.02,1.01 -20.4 0 1 0.93,0.42 c 2.07,2.86 6.83,7.81 3.89,11.31 q -6.03,7.15 -15.44,7.93 c -30.74,2.54 -32.87,-41.97 -3.95,-43.57 11.93,-0.66 16.33,4.38 22.93,13.02 a 1.86,1.85 -35 0 1 -0.48,2.69 l -23.91,15.3 a 0.38,0.38 0 0 0 0.02,0.66 z m 6.79,-19.49 c -7.04,-2.04 -13.31,2.66 -14.41,9.66 a 0.22,0.22 0 0 0 0.34,0.22 l 14.17,-9.18 a 0.39,0.39 0 0 0 -0.1,-0.7 z"
         id="path30" />
      <path
         d="m 600,233.24 v 7.24 H 0 v -7.29 c 118,-0.21 236,-0.05 354,-0.19 q 123,-0.15 246,0.24 z"
         id="path31" />
    </g>
    <g
       fill="#d1c544"
       id="g32">
      <rect
         x="149.00999"
         y="171.78"
         width="11.24"
         height="55.48"
         rx="1.46"
         id="rect31" />
      <path
         d="m 453.26,186.29 a 0.69,0.68 87.8 0 1 0.63,-0.69 c 4.48,-0.33 9.44,0.76 13.67,-0.29 8.97,-2.24 18.42,2.11 22.29,10.43 q 1.42,3.05 1.54,8.25 0.25,11.01 0.05,22.06 a 1.22,1.22 0 0 1 -1.22,1.2 l -8.47,0.01 a 1.79,1.78 -88.5 0 1 -1.78,-1.88 c 0.31,-5.55 1.56,-21.54 -1.74,-25.7 -3.55,-4.49 -9.82,-3.94 -12.52,1.01 -2.48,4.55 -1.26,19.31 -1.13,25.42 a 1.13,1.13 0 0 1 -1.13,1.15 l -9.17,-0.01 a 1.03,1.03 0 0 1 -1.03,-1.03 z"
         id="path32" />
    </g>
  </g>
</svg>
