<!-- Created by ERK --><svg xmlns="http://www.w3.org/2000/svg" width="640" height="320" viewBox="0 0 640 320"><g fill="none" stroke-width="2"><path stroke="#5c5032" d="m619.991 61.745-600-.02" vector-effect="non-scaling-stroke"/><path stroke="#03849a" d="M619.991 69.305c-.84-.04-1.53-.31-2.34-.31q-284.61-.02-569.22.03-20.99 0-28.45.15" vector-effect="non-scaling-stroke"/><path stroke="#5c5032" d="M619.991 250.975h-600" vector-effect="non-scaling-stroke"/><path stroke="#03849a" d="M619.991 258.305c-11.69-.52-23.31-.2-35-.21q-282.5-.29-565 .09" vector-effect="non-scaling-stroke"/></g><path d="M161.361 80.715q8.96.54 17.95.22c2.01-.08 3.65-1.34 5.82-1.22a2.5 2.49 1.7 0 1 2.35 2.49l.01 8.29a1.04.99 72 0 1-.39.81c-1.75 1.34-25.93.44-29.83.46a1.92 1.91-75.3 0 0-1.67.98q-17.93 31.96-35.23 64.18-1.77 3.29-3.87 6.49a1.46 1.46 0 0 0 1.2 2.26c2.92.05 6.15-.43 8.81-.43q29.87.06 59.82-.09a1.15 1.15 0 0 1 1.16 1.15v8.85a.7.71-9.1 0 1-.48.67c-3.01 1.05-6.42.17-8.66.17h-63.86q-2.19 0-6.86.76a1.43 1.43 0 0 1-.91-.15l-1.73-.95a.45.45 0 0 1-.14-.66q2.84-3.71 3.57-5.07c16-29.99 31.93-60.32 49.4-89.45a1.12 1.11-79.7 0 1 .76-.53q1.1-.21 1.91.44a1.57 1.54-23.5 0 0 .87.33"/><path d="M140.291 143.885a.48.48 0 0 0 .43.27l45.78-.31a.98.98 0 0 1 .99.98v9.2a1.14 1.15.5 0 1-1.15 1.14c-19.15-.15-38.27-.61-57.42.07a1.39 1.39 0 0 1-1.33-1.93c.8-1.92 2.3-3.67 3.12-5.17q12.59-22.88 24.99-45.76a1.18 1.17-75.9 0 1 1.01-.61q11.52-.06 22.95.01c1.91.01 4.84-.92 7.39.17a.72.71-79 0 1 .44.66v9.08a.99.99 0 0 1-1 .99l-28.41-.34a2 1.98 15.4 0 0-1.73.97l-4.56 7.77a1.18 1.17 14.8 0 0 1.03 1.77l33.66-.57a.97.97 0 0 1 .99.96l.04 8.71a1.46 1.47.2 0 1-1.47 1.47l-39.7-.25a1.25 1.24 15 0 0-1.08.62l-5.14 8.63a1.1 1.09 48 0 0-.05 1.03zm169.45-6.64a.34.33 13.8 0 0-.3-.49l-9.16-.01a.77.77 0 0 1-.77-.77l-.02-9.44a1.2 1.19 0 0 1 1.21-1.2l20.75.2a.9.9 0 0 1 .88.77c2.13 15.55-6.53 28.96-22.03 32.52-18.18 4.18-36.07-9.18-35.65-28.13.64-28.84 37.3-38.42 52.91-14.78q.86 1.29.23 2.94a1.57 1.49-7.8 0 1-.59.74q-2.76 1.8-5.53 3.58c-3.14 2.02-6.57-3.94-9.05-5.55q-11.95-7.78-22.07 2.94c-16.37 17.33 15.56 41.93 29.19 16.68m-80.01-11.45 19.51-.07a1.75 1.76-.2 0 1 1.76 1.76l-.02 7.65a1.63 1.62.2 0 1-1.63 1.61h-19.49a.62.62 0 0 0-.62.62v9.26a.63.62 0 0 0 .63.62h27.2a1.15 1.15 0 0 1 1.15 1.14l.04 8.31a1.53 1.54 0 0 1-1.53 1.54h-37.93q-2.02 0-2.43-1.98-.16-.77-.13-2.83.35-23.66.12-46.74a1.66 1.66 0 0 1 1.66-1.68l39.19-.01a1.03 1.03 0 0 1 1.03 1.03l.01 8.69a1.29 1.28 0 0 1-1.29 1.28l-27.24-.02a.48.48 0 0 0-.48.48v8.85a.49.49 0 0 0 .49.49m115.4 21.48 22.56-.04a1.02 1.02 0 0 1 1.03 1.02l.03 8.57a1.4 1.4 0 0 1-1.4 1.4l-34.63.02a1.45 1.45 0 0 1-1.46-1.45c-.06-10.53-.68-16.37 8.92-22.36 3.92-2.44 17.45-8.9 15.87-14.64q-.61-2.23-2.9-3.03-7.21-2.53-9.21 4.27a1.89 1.89 0 0 1-2.17 1.33c-2.69-.51-12.07-.88-10.08-5.41q6.09-13.89 22.04-11.69c9.53 1.32 16.44 8 15.07 17.93-.91 6.59-4.39 9.83-10.34 13.45q-7.09 4.31-13.8 9.22a.78.78 0 0 0 .47 1.41m33.38-28.27c.44-6.2 8.08-11.9 13.67-13.3 10.29-2.6 27.21 1.8 27.29 15.37q.06 11.21 0 22.42c-.04 7.43-9.29 13.22-15.67 14.37-11.4 2.05-24.75-3.13-25.31-16.31q-.59-13.92.02-22.55m28.7 4.93a7.83 7.83 0 0 0-7.83-7.83h-.82a7.83 7.83 0 0 0-7.83 7.83v15.22a7.83 7.83 0 0 0 7.83 7.83h.82a7.83 7.83 0 0 0 7.83-7.83zm26.4-11.82q8.38-8.95 20.87-6.85c9.39 1.59 16.93 7.2 16.81 17.08-.08 7.42 1.75 21.43-2.64 27.37-5.62 7.62-14.87 9.91-24.29 7.81-7.81-1.74-14.29-7.8-14.18-16.25.1-7.79-2.01-23.35 3.43-29.16m25.14 11.69c.01-10.58-16.29-9.01-16.27-1.3q.02 8.3 0 16.65c-.03 10.25 16.25 10.53 16.26.23q0-7.77.01-15.58m63.43 23.96c-7.6 15.84-39.62 13.7-39.68-6.48q-.03-11.01 0-22.04c.02-6.45 8.7-12.25 13.95-13.57 10.75-2.7 26.97 2.12 27.02 15.82.02 6.72 1.5 20.48-1.29 26.27m-10.936-23.816a7.83 7.83 0 0 0-7.817-7.843l-.84-.001a7.83 7.83 0 0 0-7.843 7.816l-.027 15.22a7.83 7.83 0 0 0 7.816 7.844h.84a7.83 7.83 0 0 0 7.844-7.816z"/><g fill="#00a05d" transform="translate(19.991 10.495)"><path d="m0 51.23 600 .02v7.56c-.84-.04-1.53-.31-2.34-.31q-284.61-.02-569.22.03-20.99 0-28.45.15zm504 120.23s-.05-.087 1.4-.3 5.5-.213 6.95 0 1.4.3 1.4.3c1.25.82.76 8.8.75 10.58a.72.72 0 0 1-.72.71h-9.77a.72.72 0 0 1-.72-.71c-.04-1.77-.55-9.76.71-10.58m-330.78 23.8c11.82-19.71 44.01-11.92 41.53 13.5-2.02 20.61-28.58 25.41-39.94 10.64-5.11-6.64-5.94-16.88-1.59-24.14m26.243 3.371a9.41 9.41 0 0 0-13.306-.209l-1.134 1.1a9.41 9.41 0 0 0-.21 13.306l1.184 1.22a9.41 9.41 0 0 0 13.306.21l1.134-1.1a9.41 9.41 0 0 0 .21-13.306z"/><rect width="11.26" height="42.48" x="503.25" y="184.27" rx="1.44"/><path d="M0 240.48h600v7.33c-11.69-.52-23.31-.2-35-.21q-282.5-.29-565 .09Z"/></g><path fill="#0567d7" d="M619.991 69.305v7c-154.84.27-309.69-.27-464.53.2q-67.74.21-135.47-.33l-.01-7q7.46-.15 28.45-.15 284.61-.05 569.22-.03c.81 0 1.5.27 2.34.31M385.929 181.838c5.888-.018 17.17 1.702 24.772 13.817a2.215 2.215 0 0 1-.72 3.06l-6.4 3.96a1.88 1.88 0 0 1-2.38-.34c-1.87-2.05-3.89-4.59-6.31-5.97q-13.419-7.64-22.92 4.91c-10.34 13.66 7.36 32.18 22.14 23.87q5.63-3.16 8.14-8.51a.645.645 0 0 0-.6-.92l-8.45.11a.93.93 0 0 1-.94-.93l-.03-9.49a.91.91 0 0 1 .91-.91h21.07c.438 0 .811.323.88.76 3.05 19.97-12.31 34.81-31.98 33.01-38.105-3.492-30.418-56.326 2.818-56.427m-284.998 37.117c3.05 1.77 9.04 4.14 5.46 8.69-17.54 22.3-54.67 9.78-51.86-19.7 1.39-14.61 12.62-24.76 27.1-25.53q15.44-.82 25.66 13.09a2.74 2.73 53.5 0 1-.56 3.81c-2.6 1.94-6.89 6-9.86 2.24-9.26-11.74-25.39-8.89-30.24 4.93-4.12 11.73 8.85 24.05 20.35 20.69q6.6-1.93 10.46-7.45a2.65 2.65 0 0 1 3.49-.77m180.54 17.37a1.23 1.24-4.4 0 1-1.03 1.21q-3.76.66-7.98.07-2.29-.32-4.39.14c-10.07 2.21-19.78-1.62-23.54-11.32q-1.33-3.43-1.3-10.04.03-10.26 0-20.59a1.04 1.04 0 0 1 1.05-1.04l9.53.05a.63.63 0 0 1 .62.63l.1 17.4c.03 6.16-.4 10.63 4.71 13.44 5.82 3.2 10.4-2.41 10.7-7.77q.61-10.91.14-22.66a.96.96 0 0 1 .95-1l8.94-.13a1.49 1.49 0 0 1 1.51 1.5zm338.52 21.98v7.17l-600-.04v-7.25q282.5-.38 565-.09c11.69.01 23.31-.31 35 .21"/><g fill="#b70006"><path d="M619.991 54.545v7.2l-600-.02v-7.2zm-504.95 157.6c4.57-25.68 45.23-21.75 44.18 4.88-1.23 31.17-49.88 27.06-44.18-4.88m29.657 11.367a9.42 9.42 0 0 0-.024-13.322l-1.175-1.171a9.42 9.42 0 0 0-13.322.023l-1.172 1.176a9.42 9.42 0 0 0 .023 13.322l1.176 1.171a9.42 9.42 0 0 0 13.322-.023zm159.083-27.477q3.87-1.55 8.07-1.16a1.51 1.52 2.1 0 1 1.38 1.49q.04 3.47-.01 7.33c-.03 2.14-.98 2.11-2.71 2.31-6.12.68-7.49 5.4-7.51 11.09q-.02 9.68-.02 19.14a.99.99 0 0 1-1 1l-9.52-.05a.73.72.4 0 1-.72-.72v-40.72a.75.75 0 0 1 .75-.75h9.42a1.02 1 73.1 0 1 .84.46l.18.3a.7.7 0 0 0 .85.28m135.77 30.73c5.62 1.79 11.05-2.42 13.34-7.23a1.31 1.32 2 0 1 .68-.64q2.32-.94 3.66 1.11c1.16 1.78 4.76 6.3 4.2 8.28-1.23 4.41-9.28 8.77-13.1 9.52-13.34 2.62-26.16-4.37-27.78-18.21-2.94-25.19 29.58-34.03 42.08-13.35.77 1.29.76 2.64.48 4.02a1.29 1.27-10.9 0 1-.55.8l-23.13 14.84a.48.48 0 0 0 .12.86m6.77-19.51c-6.63-3.5-13.22 3.36-14.57 9.4a.26.26 0 0 0 .4.27l14.19-9.18a.28.28 0 0 0-.02-.49m115.81 19.22c5.15 2.75 11.37-2.49 13.2-6.95a.98.98 0 0 1 .81-.61l2-.2a1.02 1.01-20.4 0 1 .93.42c2.07 2.86 6.83 7.81 3.89 11.31q-6.03 7.15-15.44 7.93c-30.74 2.54-32.87-41.97-3.95-43.57 11.93-.66 16.33 4.38 22.93 13.02a1.86 1.85-35 0 1-.48 2.69l-23.91 15.3a.38.38 0 0 0 .02.66m6.79-19.49c-7.04-2.04-13.31 2.66-14.41 9.66a.22.22 0 0 0 .34.22l14.17-9.18a.39.39 0 0 0-.1-.7"/><path d="M619.991 243.735v7.24h-600v-7.29c118-.21 236-.05 354-.19q123-.15 246 .24"/></g><g fill="#d1c544" transform="translate(19.991 10.495)"><rect width="11.24" height="55.48" x="149.01" y="171.78" rx="1.46"/><path d="M453.26 186.29a.69.68 87.8 0 1 .63-.69c4.48-.33 9.44.76 13.67-.29 8.97-2.24 18.42 2.11 22.29 10.43q1.42 3.05 1.54 8.25.25 11.01.05 22.06a1.22 1.22 0 0 1-1.22 1.2l-8.47.01a1.79 1.78-88.5 0 1-1.78-1.88c.31-5.55 1.56-21.54-1.74-25.7-3.55-4.49-9.82-3.94-12.52 1.01-2.48 4.55-1.26 19.31-1.13 25.42a1.13 1.13 0 0 1-1.13 1.15l-9.17-.01a1.03 1.03 0 0 1-1.03-1.03z"/></g></svg>