<svg height="156.176" viewBox="0 0 2525.005 531" width="742.649" xmlns="http://www.w3.org/2000/svg">
    <path d="M1236.7 0h10.8c4.6.9 9.5 2.3 12.6 6.1 3.3 4.2 3.6 10.1 2.3 15.1-2.2 7.8-7.1 14.6-12.4 20.6-11.4 12.7-26.2 21.9-42.1 27.7-9.9 3.5-20.9 5.8-31.3 3-5.8-1.4-10.6-6.5-11.1-12.5-.4-6.3 1.9-12.4 5.1-17.6 5.2-8.5 12.4-15.6 20.1-21.8 13.3-10.6 29.2-18 46-20.6M1781 0h11.4c5.4 1.1 11.6 3.5 13.9 9 3.1 7.5 0 15.7-3.9 22.2-12.3 19.5-32.7 32.9-54.4 39.7-8.1 2.4-16.7 3.7-25.1 2.1-5.4-1.1-10.8-4.6-12.3-10.1-2.1-7.7 1.3-15.6 5.5-22 14.7-22 39.1-36.3 64.9-40.9M845.9 17.7c18.5-6.1 37.2-12.1 56.3-16-5.4 19.6-13.5 38.2-21.7 56.7-6.8 15.1-13.3 30.3-19.2 45.8-11.5 29.6-24.6 58.7-39 87 19.4-8.9 39.4-16.9 60.4-21.5 18.5-4.1 37.8-5.3 56.5-2.1 14.1 1.8 26.9 10.1 35.2 21.5 10.9 14.8 14.9 34 12 52-2 11-5.4 21.6-8.9 32.2-10.5 30.7-24.9 59.8-36 90.2-3.2 8.4-.8 17.5-.1 26.1-27.5.9-55.1 2.5-82.7 1.7 21.3-27 31.6-60.4 45.1-91.5 8.6-20.3 17-41.4 17.7-63.7 1.1-19.9-14.4-40.9-35.2-41.7-16-.7-32.4-.8-47.9 3.9-7.2 2.2-14.1 5.4-20.1 10-1.5 1.1-2.8 2.7-3.5 4.4-19.1 47.5-39.4 94.5-59.1 141.8-1.9 4.5-4.3 8.9-5.3 13.8-1.7 8.2-.7 16.7.2 25-27.5.1-55 1.2-82.5 1.7 28.9-42 41.4-92 65.1-136.5-28.9 17.7-51 45.2-82.5 58.8 15.2-25.3 34.7-47.9 46.9-74.9 3-6.2 3.6-13.1 6-19.5 1.6 5.1 1.9 10.5 3.1 15.8 1.1 4.5 4.4 8.8 9.3 9.6 10.4 2 20.9-5.1 24.9-14.6 15.1-33.4 29.4-67.1 43.1-101.1 5-12.6 9.9-25.1 15.4-37.5 6.9-15 13.4-30.6 15.3-47.1.5-2.2-1.7-3.4-3.4-4.1-7.2-3.1-14.5-5.7-21.6-8.7 18.8-5.6 37.6-11.1 56.2-17.5m544.5-.5c18.2-6 36.6-11.4 55.2-15.8-21.7 62.9-50.5 123-75.9 184.5 31.2-14.7 66-24 100.7-19.6 17.9 1.6 34.4 12.5 44 27.6 7.4 12.5 9.9 27.6 9.3 42-1.2 21.6-9.6 41.8-18 61.5-15.4 33.6-27.4 68.7-42.7 102.3 112.4.4 224.8 5.1 337.2 5.6 11-.1 22 .8 33 1.3 42.6 2.1 85.3 3 128 3.6 20.7.3 41.4.8 62 2.6 50.6 3.2 101.5 1.8 152 6.5 46.1 1.9 92.1 4.1 138.1 7.7 37.7 2.9 75.4 6.2 113 10.9 30.4 4 61.5 7.3 90.3 18.6 2.3.9 4.8 1.7 6.4 3.7 2.9 3.6 2.7 9.5-.9 12.6-5.5 4.9-13.1 5.9-20 7.7-13.4 3.5-27.1 5.1-40.7 7.1-94.2 13.4-189.3 17.5-284.1 22.5-16.3 1-32.6 2.3-49 2.8-30.6 1.2-61.3 1.6-91.9 2.7-22.7.5-45.3 2.8-68.1 3.3-50.7 1.5-101.4 1.7-152.1 3.2-24.3.4-48.6 2.2-73 2.9-106.7 1.3-213.3 2.1-320 4-23.2.5-46.4.5-69.5 2h-20.1c10.3-11 18.7-23.6 25.4-37.1 12.1-24.1 20.1-50 32.5-73.9-78.7-3.8-157.6-2.2-236.4-1.6-22.7.4-45.3 0-68 .4-110 4.6-220.2 1.3-330.1 8.2-65.7-.3-131.3 5.8-197 7-97.1 6.2-194.4 10.4-291 22.1-32 4.2-64.3 7.4-95.4 16.3-4.3 1.2-8.4 3.3-11.5 6.6 5.8 7.4 14.4 11.8 22.1 17-57.4-.4-115.2-5.8-170.6-21.4-4.9-1.3-10.3-2.5-13.6-6.7v-4.7c3.1-4.6 8.8-6 13.8-7.5 59.9-17.7 122.4-20.2 183.9-27C352 417.6 506.5 410.1 661.2 408c23.4.2 46.7-2.2 70-2.4 28.7-.5 57.3-.6 86-.8 103.7-.2 207.3-2.7 311-2.5 90.5-4.3 181.1-2.3 271.7-2.7 12.1-30.6 24.6-61.1 37.8-91.3 6.6-14.8 13.5-29.6 17-45.5 2.5-11.4 4.6-23.2 3-34.9-1.4-9.8-5.7-19.5-13.6-25.9-6.6-5.6-15.4-7.1-23.7-8.3-19.2-2.1-38.4 2.6-56.5 8.6-22.8 51-43.1 103-65 154.4-4 9.8-1.3 20.5 0 30.6-29-.7-58-.2-87-.8 8.6-10.9 17.3-21.8 23.6-34.3 3.3-6.3 5.4-13.2 8.1-19.7 10.9-27.7 23.1-54.9 35.8-81.9-39.1 30.2-79.2 61.1-106.7 102.9-4.3 7.2-9.9 14.1-11.2 22.6 3.6 1.9 7.7.9 11.5.2 16-3.2 30.4-11.1 45.4-17-16.2 25.6-47.5 39.2-77.3 37.7-3.3.1-7.1-2.4-6.4-6.1 2.5-14.8 11.3-27.5 20.3-39.2 10.8-13.2 22.6-25.4 34.6-37.4 23.4-23 46.8-46.3 73.7-65.3 8.7-6.5 18.9-11.7 25-21 3.1-5.2 4.9-11.1 7.4-16.6 12.8-30.9 25-62 38.4-92.6 5.7-13.2 11.9-26.3 17.4-39.6 3.8-9.6 6.8-19.9 6-30.4-.1-2.3-2.5-3.3-4.2-4.1-6.9-2.8-13.9-5.5-20.8-8.3 19.8-4.9 38.6-12.9 57.9-19.2m63.1 403.5c-11.8 30.9-26 60.9-35.8 92.6 44.1.2 88.3-.4 132.4-1.2 76.3-4.9 152.8-1.4 229-6.9 91.2-3.4 182.5-7.6 273.2-18.5 17-2 34-4.2 50.7-7.4 9.3-1.9 18.6-4.1 27.2-8.1 2.4-1.3 5.8-4.8 3.2-7.4-2.8-3.5-7.4-4.3-11.5-5.5-40.9-11.6-83.5-15.1-125.8-18.1-24.4-1.5-48.7-4.1-73.1-5.7-156.2-9.2-312.9-14.2-469.5-13.8M402.4 44.2c46.7-20 96.8-33.5 147.8-34.9 21.8-.4 43.7.8 65 5.7 18.8 4.9 36 14.2 54.8 19 8.5 2.1 17.3-.4 25-4.2 11-5.5 20.6-13.5 31.8-18.8-17.5 45.1-33.1 91.2-57.1 133.4-1.4-19.6-2.8-39.6-9.9-58.1-6.7-18.2-20.8-33.1-37.7-42.3-14.3-7.8-30.6-11-46.8-12-14.8-.7-29.6.2-44.3 2.3-52.4 10-101.6 34.8-142 69.5-27 23-49.8 50.8-67.6 81.4-15.2 26.2-28 54.5-32.2 84.7-1.8 12.5-2.1 25.3-.4 37.9 1.8 13 5.2 26 12.5 37 13.9 21.6 37.2 35.2 61.2 42.6 18.9 5.9 39 7 58.6 4.6 21-2.5 41.5-8.5 61.4-15.4 31.4-11 61.1-26.7 88.4-45.8 32-22.4 61-48.9 87.5-77.4 9.9-9.4 19.4-19.2 29.3-28.6-3.4 11.8-9.8 22.4-15.8 33-33.4 56.5-83.4 102.6-140.9 133.9-22.1 11.4-47.7 11.1-71.9 11-23.7.6-47.5 1.1-71.1 2.9-30.3 2.1-60.6 5-91 4.1-5.3-.1-9.9-3.1-14.6-5.2-27.2-13-51.4-33.6-65.5-60.5-11.4-21.8-14.6-47-13.2-71.2 2.1-35.5 15.4-69.7 35.6-98.7 20.9-30.7 47.4-57.5 77-79.9 26.6-20 55.3-37.4 86.1-50m1710.8 145c32.6-16.5 68.2-28.3 105-29.5 19.1-.3 38.5-.5 57.1 4.6 18.2 4.7 35.7 13.3 49.4 26.4 10.4 9.8 19.3 21.6 23.6 35.3 5 16.6 4.3 34.5-.3 51.1-3 11.2-8.2 21.6-14 31.6-15.1 25.6-36.4 47.3-60.8 64.2-20 13.7-41.7 24.9-64.2 33.8-9.8 3.6-20.5 2.5-30.7 1.8-45.9-3.8-92-5.9-138.1-5.1-19.6-14.2-35.6-35-40-59.2-3.4-18 1.8-36.2 8.6-52.7 14.1-33.4 39.5-61.2 69.1-81.7 11.3-7.7 23.2-14.4 35.3-20.6m101.2 0c-20.4 2.3-39.5 10.9-57.4 20.6-30.1 17-56.3 41.7-72.6 72.4-8.6 16.1-14.2 34.3-13.2 52.7.6 8.7 2.2 17.7 6.7 25.3 5.2 8.9 13.5 15.9 22.9 20.2 16 7.6 34.6 8.7 51.8 4.8 60.3-12.6 112.3-58.6 132.3-116.9 3.4-11.1 4.4-23 2.2-34.4-2.5-13.9-10.6-26.7-22.3-34.6-14.4-10.4-33.2-12.2-50.4-10.1m-219.3-18.7c7.9-2 15.9-3.4 24-4.1 4.5-.3 9.7.1 12.9 3.7 2.7 3.1 2.7 7.7 1.6 11.5-4.9 19.5-18.9 36-36.4 45.6-15.7 8.6-34.9 11.6-52 5.7-3.4-1.1-7.7-2.3-8.6-6.2-1.4-8.6 3.4-16.6 8.1-23.4-17 9.4-34.5 17.9-51 28.2-2.8 1.6-3.1 5.1-4.3 7.7-15.7 43.2-36.9 84.2-51.8 127.8-3.1 9 .3 18.3 1 27.4-29.4-1.1-58.9-1.1-88.3-2.4 11.3-10.5 23-22.1 27.3-37.4 16.8-46.8 42.2-90.4 54.3-138.9-4.9-2.4-9.8-4.9-14.7-7.2 0-3.4.3-6.7.5-10.1 33.8-7.4 65.2-22.8 99-30-4.7 16.2-10.7 32-17.5 47.4 30.8-17.5 61.4-36.5 95.9-45.3m-899 28.9c34.3-9 66.8-23.6 101.5-31.1-22.1 59.8-47.2 118.4-72.2 177-2.2 5.4-5.1 10.7-6 16.5-1.6 8.6-.4 17.4.5 26-29 0-58 .6-86.9 0 11.9-10.4 20-24.3 26.5-38.5 8.5-19.1 15.5-38.8 24.2-57.8 10.7-24.1 22.1-48.5 25.8-74.8-4.5-5.7-9.1-11.4-13.4-17.3m539.1.2c35.6-8.3 69.2-23.5 104.9-31.2-23 64.9-53.4 126.8-79 190.6-1.7 4.5-4.2 9-4.1 14 .2 6.3 2.1 12.3 3.2 18.5-27.7.1-55.5.6-83.1-2.1 2.9-4.8 6.8-9 9.7-13.8 11.5-17.7 19.5-37.3 27-56.9 7.1-18.6 14.7-37.1 22.6-55.4 6.4-14.6 12.3-29.4 16.4-44.8-6.4-5.8-12.4-12.1-17.6-18.9"/>
</svg>
