<svg height="165.667" viewBox="0 0 567.038 149.1" width="630.043" xmlns="http://www.w3.org/2000/svg">
    <g transform="translate(-118.29 -42)">
        <rect fill="#fff" height="61.67" rx="16.878" ry="17.123" stroke="#fff" stroke-width="4.5" width="153.561" x="264.527" y="86.049"/>
        <g stroke-width="5">
            <rect fill="none" height="144.1" rx="12.29" ry="9.781" stroke="#fff" width="562.038" x="120.79" y="44.5"/>
            <rect fill="none" height="122.407" rx="12.29" ry="9.781" stroke="#fff" width="539.377" x="131.138" y="55.625"/>
            <path d="M162.28 67.95c32.42-3.249 63.102-3.24 92.062 0 11.624 1.3 21.114 9.347 21.114 20.96v56.204c0 11.612-9.522 19.402-21.114 20.96-29.287 3.937-59.922 4.083-92.061 0-11.603-1.474-21.114-9.348-21.114-20.96V88.909c0-11.612 9.476-19.794 21.114-20.96z" fill="#fff"/>
            <path d="M296.127 67.95c32.182-3.249 62.64-3.24 91.39 0 11.539 1.3 20.96 9.347 20.96 20.96v56.204c0 11.612-9.453 19.402-20.96 20.96-29.074 3.937-59.485 4.083-91.39 0-11.518-1.474-20.96-9.348-20.96-20.96V88.909c0-11.612 9.406-19.794 20.96-20.96zM429.66 67.95c32.514-3.249 63.288-3.24 92.334 0 11.658 1.3 21.177 9.347 21.177 20.96v56.204c0 11.612-9.551 19.402-21.177 20.96-29.374 3.937-60.1 4.083-92.334 0-11.637-1.474-21.177-9.348-21.177-20.96V88.909c0-11.612 9.504-19.794 21.177-20.96z" fill="#fff"/>
        </g>
        <path d="M189.678 112.091v-1.544c-.392-8.095-4.594-8.133-11.936-8.133-8.678 0-12.33 2.033-12.33 11.07v6.477c.118 8.246 1.964 11.522 12.33 11.145 7.303-.301 12.368 0 12.25-8.51v-1.845h-5.654v1.544c0 4.03-2.042 4.18-6.596 4.18-5.93 0-6.636-1.092-6.675-6.74v-6.25c0-5.536.981-6.44 6.675-6.44 4.947 0 6.282.226 6.282 3.502v1.544zM201.268 102.64h-5.654v28.24h5.654zM230.846 126.249h-.157l-12.605-23.61h-9.345v28.241h5.654l-.47-23.609h.196l12.525 23.61h9.385V102.64h-5.655zM248.569 107.271h14.528v-4.631h-20.182v28.24h20.3v-4.631h-14.646v-7.493h13.782v-4.443h-13.782zM298.038 107.083h.196l-.47 23.797h5.642v-28.24h-9.247l-7.837 20.973h-.157l-7.993-20.973h-9.051v28.24h5.642l-.47-23.684h.117l9.326 23.684h5.055z"/>
        <path d="M571.181 103.092v28.537h-3.405v-28.537z" fill="#fffffb"/>
        <path d="m327.38 125.533 1.925 5.347h5.733l-9.974-28.24h-8.324l-9.777 28.24h5.85l1.846-5.347zm-1.256-4.104h-10.17l5.027-14.647h.078zM347.514 107.271h8.639v-4.631h-22.931v4.631h8.638v23.61h5.654zM373.946 121.542c2.71.038 3.73 1.694 3.73 4.067v5.271h5.654v-5.271c0-3.992-.981-6.063-4.986-6.401v-.151c4.986-.716 5.222-3.765 5.222-7.945 0-6.401-2.474-8.321-8.913-8.472h-15.04v28.24h5.655v-9.338zm-8.678-4.631v-9.64h7.853c4.045 0 4.79.716 4.79 4.707 0 4.142-1.02 4.933-5.182 4.933zM401.11 101.675c-9.545 0-12.713 1.584-12.713 10.583v7.802c0 9.501 3.409 11.046 12.712 11.046 9.104 0 12.833-1.777 12.833-11.046v-7.802c0-9.308-4.17-10.583-12.833-10.583zm0 4.75c5.132 0 7.178.387 7.057 5.833v7.802c0 5.6-1.804 6.295-7.058 6.295-5.774 0-6.937-.54-6.937-6.295v-7.802c.12-4.596.722-5.832 6.937-5.832zM441.74 126.249h-.156l-12.605-23.61h-9.345v28.241h5.655l-.472-23.609h.197l12.525 23.61h9.385V102.64h-5.654zM459.348 102.84h-5.654v28.24h5.654zM489.637 112.091v-1.544c-.392-8.095-4.594-8.133-11.936-8.133-8.678 0-12.33 2.033-12.33 11.07v6.477c.118 8.246 1.963 11.522 12.33 11.145 7.303-.301 12.368 0 12.25-8.51v-1.845h-5.654v1.544c0 4.03-2.042 4.18-6.596 4.18-5.93 0-6.636-1.092-6.676-6.74v-6.25c0-5.536.982-6.44 6.676-6.44 4.947 0 6.282.226 6.282 3.502v1.544zM493.284 121.88v1.319c0 8.095 5.812 7.907 12.33 7.907 7.578 0 11.505-.678 11.505-8.623 0-7.191-2.474-7.643-11.544-8.17-5.733-.34-6.48-.452-6.48-3.916 0-3.013.904-3.54 6.519-3.54 3.966 0 5.261.113 5.261 3.163v.904h5.655v-.904c0-7.418-4.909-7.606-10.916-7.606-7.068 0-12.172.226-12.172 7.983 0 8.208 5.026 7.982 11.387 8.359 4.397.226 6.635-.302 6.635 3.727 0 3.276-.706 4.18-5.85 4.18-5.222 0-6.675-.226-6.675-3.464v-1.318z"/>
        <path d="M601.062 103.092v28.537h-5.308l-16.295-25.787v25.787h-3.169v-28.537h5.262l16.341 26.071v-26.071zM625.34 121.505h3.18q0 .457.069 1.37.069.915.069 1.371 0 6.63-6.372 7.24-2.31.14-4.587.14h-4.027q-3.054-.234-4.747-1.546-1.682-1.324-2.345-3.374-.664-2.061-.767-4.943-.103-2.882-.16-4.955v-4.662q0-2.94.618-4.99.629-2.062 2.242-3.315 1.624-1.266 4.496-1.57 1.784-.246 5.582-.246 3.031 0 4.77.351 1.75.352 2.757 1.3 1.007.95 1.476 2.742.469 1.78.652 4.92h-3.192q0-2.519-.332-3.82-.32-1.311-1.418-1.955-1.087-.656-3.352-.656-2.7 0-6.051.234-2.06.176-3.112.972-1.04.785-1.384 2.167-.332 1.37-.332 3.725v6.77q0 6.01 1.133 8.107 1.018 1.874 5.708 1.874.343 0 1.247.047.904.047 1.43.047 2.928 0 4.839-.82 1.91-.832 2.002-3.21 0-.574-.046-1.686-.046-1.113-.046-1.629zM637.31 127.228v4.03h-3.42v-4.03z" fill="#fffffb"/>
        <text fill="#ef00eb" font-family="TrasksHand" font-size="1.8" stroke="#0105ff" stroke-width="2.25" x="346.224" y="185.862"><tspan fill="#fafafa" fill-opacity=".4" stroke="none" x="346.224" y="185.862">John Loreth 2022</tspan></text>
    </g>
</svg>
