<?xml version="1.0" encoding="UTF-8" standalone="no"?>
<!-- Created by ERK -->

<svg
   height="165.667"
   viewBox="0 0 567.038 149.1"
   width="630.043"
   version="1.1"
   id="svg8"
   sodipodi:docname="cinematronics-w.svg"
   inkscape:version="1.3.2 (091e20e, 2023-11-25, custom)"
   xmlns:inkscape="http://www.inkscape.org/namespaces/inkscape"
   xmlns:sodipodi="http://sodipodi.sourceforge.net/DTD/sodipodi-0.dtd"
   xmlns="http://www.w3.org/2000/svg"
   xmlns:svg="http://www.w3.org/2000/svg">
  <defs
     id="defs8" />
  <sodipodi:namedview
     id="namedview8"
     pagecolor="#ffffff"
     bordercolor="#000000"
     borderopacity="0.25"
     inkscape:showpageshadow="2"
     inkscape:pageopacity="0.0"
     inkscape:pagecheckerboard="true"
     inkscape:deskcolor="#d1d1d1"
     inkscape:zoom="2.9315458"
     inkscape:cx="315.87431"
     inkscape:cy="93.636606"
     inkscape:window-width="2560"
     inkscape:window-height="1351"
     inkscape:window-x="-9"
     inkscape:window-y="-9"
     inkscape:window-maximized="1"
     inkscape:current-layer="svg8" />
  <g
     transform="translate(-118.29,-42)"
     id="g8"
     style="display:inline">
    <rect
       fill="#ffffff"
       height="61.669998"
       rx="16.878"
       ry="17.122999"
       stroke="#ffffff"
       stroke-width="4.5"
       width="153.561"
       x="264.52701"
       y="86.049004"
       id="rect1" />
    <g
       stroke-width="5"
       id="g4">
      <rect
         fill="none"
         height="144.10001"
         rx="12.29"
         ry="9.7810001"
         stroke="#ffffff"
         width="562.03802"
         x="120.79"
         y="44.5"
         id="rect2" />
      <rect
         fill="none"
         height="122.407"
         rx="12.29"
         ry="9.7810001"
         stroke="#ffffff"
         width="539.37701"
         x="131.138"
         y="55.625"
         id="rect3" />
      <path
         d="m 162.28,67.95 c 32.42,-3.249 63.102,-3.24 92.062,0 11.624,1.3 21.114,9.347 21.114,20.96 v 56.204 c 0,11.612 -9.522,19.402 -21.114,20.96 -29.287,3.937 -59.922,4.083 -92.061,0 -11.603,-1.474 -21.114,-9.348 -21.114,-20.96 V 88.909 c 0,-11.612 9.476,-19.794 21.114,-20.96 z"
         fill="#ffffff"
         id="path3" />
      <path
         d="m 296.127,67.95 c 32.182,-3.249 62.64,-3.24 91.39,0 11.539,1.3 20.96,9.347 20.96,20.96 v 56.204 c 0,11.612 -9.453,19.402 -20.96,20.96 -29.074,3.937 -59.485,4.083 -91.39,0 -11.518,-1.474 -20.96,-9.348 -20.96,-20.96 V 88.909 c 0,-11.612 9.406,-19.794 20.96,-20.96 z m 133.533,0 c 32.514,-3.249 63.288,-3.24 92.334,0 11.658,1.3 21.177,9.347 21.177,20.96 v 56.204 c 0,11.612 -9.551,19.402 -21.177,20.96 -29.374,3.937 -60.1,4.083 -92.334,0 -11.637,-1.474 -21.177,-9.348 -21.177,-20.96 V 88.909 c 0,-11.612 9.504,-19.794 21.177,-20.96 z"
         fill="#ffffff"
         id="path4" />
    </g>
    <path
       d="m 189.678,112.091 v -1.544 c -0.392,-8.095 -4.594,-8.133 -11.936,-8.133 -8.678,0 -12.33,2.033 -12.33,11.07 v 6.477 c 0.118,8.246 1.964,11.522 12.33,11.145 7.303,-0.301 12.368,0 12.25,-8.51 v -1.845 h -5.654 v 1.544 c 0,4.03 -2.042,4.18 -6.596,4.18 -5.93,0 -6.636,-1.092 -6.675,-6.74 v -6.25 c 0,-5.536 0.981,-6.44 6.675,-6.44 4.947,0 6.282,0.226 6.282,3.502 v 1.544 z m 11.59,-9.451 h -5.654 v 28.24 h 5.654 z m 29.578,23.609 h -0.157 l -12.605,-23.61 h -9.345 v 28.241 h 5.654 l -0.47,-23.609 h 0.196 l 12.525,23.61 h 9.385 V 102.64 h -5.655 z m 17.723,-18.978 h 14.528 v -4.631 h -20.182 v 28.24 h 20.3 v -4.631 h -14.646 v -7.493 h 13.782 v -4.443 h -13.782 z m 49.469,-0.188 h 0.196 l -0.47,23.797 h 5.642 v -28.24 h -9.247 l -7.837,20.973 h -0.157 l -7.993,-20.973 h -9.051 v 28.24 h 5.642 l -0.47,-23.684 h 0.117 l 9.326,23.684 h 5.055 z"
       id="path5" />
    <path
       d="m 571.181,103.092 v 28.537 h -3.405 v -28.537 z"
       fill="#fffffb"
       id="path6" />
    <path
       d="m 327.38,125.533 1.925,5.347 h 5.733 l -9.974,-28.24 h -8.324 l -9.777,28.24 h 5.85 l 1.846,-5.347 z m -1.256,-4.104 h -10.17 l 5.027,-14.647 h 0.078 z m 21.39,-14.158 h 8.639 v -4.631 h -22.931 v 4.631 h 8.638 v 23.61 h 5.654 z m 26.432,14.271 c 2.71,0.038 3.73,1.694 3.73,4.067 v 5.271 h 5.654 v -5.271 c 0,-3.992 -0.981,-6.063 -4.986,-6.401 v -0.151 c 4.986,-0.716 5.222,-3.765 5.222,-7.945 0,-6.401 -2.474,-8.321 -8.913,-8.472 h -15.04 v 28.24 h 5.655 v -9.338 z m -8.678,-4.631 v -9.64 h 7.853 c 4.045,0 4.79,0.716 4.79,4.707 0,4.142 -1.02,4.933 -5.182,4.933 z m 35.842,-15.236 c -9.545,0 -12.713,1.584 -12.713,10.583 v 7.802 c 0,9.501 3.409,11.046 12.712,11.046 9.104,0 12.833,-1.777 12.833,-11.046 v -7.802 c 0,-9.308 -4.17,-10.583 -12.833,-10.583 z m 0,4.75 c 5.132,0 7.178,0.387 7.057,5.833 v 7.802 c 0,5.6 -1.804,6.295 -7.058,6.295 -5.774,0 -6.937,-0.54 -6.937,-6.295 v -7.802 c 0.12,-4.596 0.722,-5.832 6.937,-5.832 z m 40.63,19.824 h -0.156 l -12.605,-23.61 h -9.345 v 28.241 h 5.655 l -0.472,-23.609 h 0.197 l 12.525,23.61 h 9.385 V 102.64 h -5.654 z m 17.608,-23.409 h -5.654 v 28.24 h 5.654 z m 30.289,9.251 v -1.544 c -0.392,-8.095 -4.594,-8.133 -11.936,-8.133 -8.678,0 -12.33,2.033 -12.33,11.07 v 6.477 c 0.118,8.246 1.963,11.522 12.33,11.145 7.303,-0.301 12.368,0 12.25,-8.51 v -1.845 h -5.654 v 1.544 c 0,4.03 -2.042,4.18 -6.596,4.18 -5.93,0 -6.636,-1.092 -6.676,-6.74 v -6.25 c 0,-5.536 0.982,-6.44 6.676,-6.44 4.947,0 6.282,0.226 6.282,3.502 v 1.544 z m 3.647,9.789 v 1.319 c 0,8.095 5.812,7.907 12.33,7.907 7.578,0 11.505,-0.678 11.505,-8.623 0,-7.191 -2.474,-7.643 -11.544,-8.17 -5.733,-0.34 -6.48,-0.452 -6.48,-3.916 0,-3.013 0.904,-3.54 6.519,-3.54 3.966,0 5.261,0.113 5.261,3.163 v 0.904 h 5.655 v -0.904 c 0,-7.418 -4.909,-7.606 -10.916,-7.606 -7.068,0 -12.172,0.226 -12.172,7.983 0,8.208 5.026,7.982 11.387,8.359 4.397,0.226 6.635,-0.302 6.635,3.727 0,3.276 -0.706,4.18 -5.85,4.18 -5.222,0 -6.675,-0.226 -6.675,-3.464 v -1.318 z"
       id="path7" />
    <path
       d="m 601.062,103.092 v 28.537 h -5.308 l -16.295,-25.787 v 25.787 h -3.169 v -28.537 h 5.262 l 16.341,26.071 v -26.071 z m 24.278,18.413 h 3.18 q 0,0.457 0.069,1.37 0.069,0.915 0.069,1.371 0,6.63 -6.372,7.24 -2.31,0.14 -4.587,0.14 h -4.027 q -3.054,-0.234 -4.747,-1.546 -1.682,-1.324 -2.345,-3.374 -0.664,-2.061 -0.767,-4.943 -0.103,-2.882 -0.16,-4.955 v -4.662 q 0,-2.94 0.618,-4.99 0.629,-2.062 2.242,-3.315 1.624,-1.266 4.496,-1.57 1.784,-0.246 5.582,-0.246 3.031,0 4.77,0.351 1.75,0.352 2.757,1.3 1.007,0.95 1.476,2.742 0.469,1.78 0.652,4.92 h -3.192 q 0,-2.519 -0.332,-3.82 -0.32,-1.311 -1.418,-1.955 -1.087,-0.656 -3.352,-0.656 -2.7,0 -6.051,0.234 -2.06,0.176 -3.112,0.972 -1.04,0.785 -1.384,2.167 -0.332,1.37 -0.332,3.725 v 6.77 q 0,6.01 1.133,8.107 1.018,1.874 5.708,1.874 0.343,0 1.247,0.047 0.904,0.047 1.43,0.047 2.928,0 4.839,-0.82 1.91,-0.832 2.002,-3.21 0,-0.574 -0.046,-1.686 -0.046,-1.113 -0.046,-1.629 z m 11.97,5.723 v 4.03 h -3.42 v -4.03 z"
       fill="#fffffb"
       id="path8" />
  </g>
</svg>
