<?xml version="1.0" encoding="UTF-8" standalone="no"?>
<svg
   viewBox="0 0 1020.4956 669.52112"
   version="1.1"
   id="svg5"
   sodipodi:docname="clonehero.svg"
   inkscape:version="1.4 (86a8ad7, 2024-10-11)"
   width="1020.4956"
   height="669.52112"
   xmlns:inkscape="http://www.inkscape.org/namespaces/inkscape"
   xmlns:sodipodi="http://sodipodi.sourceforge.net/DTD/sodipodi-0.dtd"
   xmlns="http://www.w3.org/2000/svg"
   xmlns:svg="http://www.w3.org/2000/svg">
  <sodipodi:namedview
     id="namedview5"
     pagecolor="#e5e5e5"
     bordercolor="#000000"
     borderopacity="0.25"
     inkscape:showpageshadow="2"
     inkscape:pageopacity="0.0"
     inkscape:pagecheckerboard="0"
     inkscape:deskcolor="#d1d1d1"
     inkscape:zoom="1.3933244"
     inkscape:cx="425.60081"
     inkscape:cy="471.89298"
     inkscape:window-width="3840"
     inkscape:window-height="2066"
     inkscape:window-x="-11"
     inkscape:window-y="-11"
     inkscape:window-maximized="1"
     inkscape:current-layer="svg5" />
  <defs
     id="defs1">
    <style
       id="style1">.cls-1{fill:#fff;}</style>
  </defs>
  <g
     id="g1"
     style="fill:#333333"
     inkscape:label="g1"
     transform="translate(6.0135328,6.0001115)">
    <path
       class="cls-1"
       d="m 789.107,473.8 c 0,-16.007 -0.322,-32.021 0.08,-48.018 0.527,-20.992 5.615,-40.916 16.105,-59.229 13.726,-23.963 34.431,-38.569 61.211,-44.7 16.222,-3.716 32.63,-4 49.134,-2.352 a 124.92,124.92 0 0 1 36.279,8.8 c 24.309,10.223 41.027,27.945 51.083,52.142 a 145.7,145.7 0 0 1 10.462,46.26 c 0.593,8.615 0.741,17.272 0.782,25.911 0.1,20.8 0.544,41.612 -0.115,62.389 -1.108,34.881 -14.147,64.748 -40.118,88.4 -16.583,15.1 -36.421,23.357 -58.705,25.63 -18.951,1.933 -37.6,0.363 -55.644,-5.958 -25.77,-9.026 -44.3,-26.337 -56.525,-50.522 A 120.632,120.632 0 0 1 789.714,519.7 c -0.27,-15.3 -0.623,-30.6 -0.94,-45.9 z m 147.948,1.92 q 0,-23.132 0,-46.263 a 47.554,47.554 0 0 0 -3.568,-18.1 c -4.454,-10.914 -12.237,-18.141 -23.95,-20.456 a 48.334,48.334 0 0 0 -12.527,-0.85 c -12.1,0.828 -20.813,6.905 -25.99,17.929 a 47.636,47.636 0 0 0 -4.543,20.355 q -0.088,47.49 0.007,94.979 a 43.257,43.257 0 0 0 6.3,22.329 c 4.47,7.489 10.953,12.459 19.515,14.228 a 47.136,47.136 0 0 0 11.822,0.9 c 10.083,-0.513 18.528,-4.573 24.553,-12.9 a 42.624,42.624 0 0 0 8.352,-25.19 c 0.102,-15.656 0.031,-31.311 0.029,-46.966 z"
       id="path4"
       inkscape:label="O"
       style="fill:#333333" />
    <path
       class="cls-1"
       d="m 804.549,0 h 209.543 V 70.634 H 883.239 v 47.073 l 110.508,0.064 v 71.995 H 883.289 v 50.874 l 130.778,0.032 v 69.693 L 805.018,310.3 Z"
       id="path2"
       inkscape:label="E"
       style="fill:#333333" />
    <path
       class="cls-1"
       d="m 736.788,498.923 c 29.205,54.814 87.479,164.524 87.479,164.524 l -90.666,0.074 c 0,0 -27.1,-55.938 -39.916,-82.429 -8.949,-18.5 -17.8,-37.053 -26.832,-55.513 -3.944,-8.059 -10.159,-13.372 -19.471,-14.057 -2.62,-0.193 -8.311,0 -8.311,0 V 619.653 H 562.893 L 563.149,0 h 68.96 l 88.065,153.867 h 0.763 L 721.328,0 h 75.927 v 310.365 h -64.1 L 637.566,163.273 h -0.542 v 156.566 c 0,0 39.9,-0.69 57.743,0.155 30.03,1.423 55.3,12.836 72.787,38.352 8.216,11.987 12.45,25.556 14.433,39.839 a 126.7,126.7 0 0 1 0.929,29.707 c -2.144,22.2 -11.328,40.971 -27.128,56.594 a 94.4,94.4 0 0 1 -19,14.437 z M 638.31,449.09 h 1.966 c 0,0 24.311,0.1 36.465,-0.026 a 40.505,40.505 0 0 0 18.216,-4.481 c 6.425,-3.287 11.015,-8.192 13.185,-15.171 a 31.279,31.279 0 0 0 1.054,-11.8 24.887,24.887 0 0 0 -10.696,-19.234 37.677,37.677 0 0 0 -21.658,-7.071 c -11.918,-0.19 -35.763,-0.04 -35.763,-0.04 h -2.769 z"
       id="path1"
       inkscape:label="NR"
       style="fill:#333333" />
    <polygon
       class="cls-1"
       points="403.779,552.389 555.108,552.389 555.108,619.637 322.064,619.637 322.064,320.067 555.106,320.067 555.106,387.851 403.769,387.876 403.769,433.337 520.154,433.337 520.154,503.207 403.779,503.207 "
       id="polygon2"
       inkscape:label="E"
       style="fill:#333333" />
    <path
       class="cls-1"
       d="m 322.4,154.9 c 0,0 -0.27,-30.848 0.066,-46.262 0.454,-20.763 5.435,-40.451 15.733,-58.6 13.875,-24.452 34.95,-39.3 62.079,-45.872 16.414,-3.977 33.061,-4.327 49.8,-3.08 a 136.793,136.793 0 0 1 34.593,6.893 c 29.619,10.206 49.629,30.243 60.617,59.448 a 151.622,151.622 0 0 1 9.087,45.5 c 0.442,8.159 0.5,16.345 0.526,24.52 0.071,19.16 0.527,38.336 -0.082,57.477 -1.28,40.235 -17.394,73.166 -50.262,97.08 -15.134,11.012 -32.428,16.883 -51.026,18.784 -20.119,2.056 -39.927,0.529 -59.109,-6.166 -28.655,-10 -48.465,-29.592 -60.809,-57.014 -6.793,-15.091 -10.893,-31.023 -11.15,-47.61 C 322.23,184.933 322.4,154.9 322.4,154.9 Z m 152.765,2.839 c 0,-15.188 0.1,-30.377 -0.065,-45.563 a 53.541,53.541 0 0 0 -1.433,-12.127 c -3.3,-13.422 -10.9,-23.13 -24.777,-26.828 a 45.23,45.23 0 0 0 -9.332,-1.39 C 423.1,71 411.178,78.1 405.386,93.57 a 48.482,48.482 0 0 0 -3.1,17.14 q 0.013,46.966 0.01,93.932 a 43.257,43.257 0 0 0 5.522,21.124 c 4.916,8.918 12.347,14.6 22.477,16.16 a 55.6,55.6 0 0 0 12.894,0.5 31.039,31.039 0 0 0 21.955,-11.032 40.856,40.856 0 0 0 9.964,-26.344 c 0.212,-15.769 0.054,-31.543 0.054,-47.316 z"
       id="path3"
       inkscape:label="O"
       style="fill:#333333" />
    <polygon
       class="cls-1"
       points="314.642,660.74 241.867,660.74 241.867,502.996 164.105,502.996 164.03,618.943 89.068,619.869 89.068,317.522 163.96,317.233 164.03,434.231 238.942,434.231 239.164,0.208 314.642,0.208 "
       id="polygon1"
       inkscape:label="LH"
       style="fill:#333333" />
    <path
       class="cls-1"
       d="m 231.472,105.914 h -78.166 c -0.487,-2.2 -0.9,-4.249 -1.4,-6.279 A 53.245,53.245 0 0 0 141.087,77.493 C 129.446,63.753 110.522,63.604 99.46,68.983 a 29.994,29.994 0 0 0 -13.45,13.36 50.345,50.345 0 0 0 -5.9,23.915 q -0.076,46.625 0,93.248 a 41.2,41.2 0 0 0 6.21,21.633 c 7.464,12.239 18.952,16.441 32.632,15.485 16.18,-1.129 26.61,-10.242 32.77,-24.723 1.541,-3.621 2.524,-7.478 3.81,-11.368 h 76.133 c -0.41,2.784 -0.655,5.4 -1.194,7.961 -5.182,24.608 -15.43,46.755 -32.626,65.313 -16.968,18.311 -38.075,28.668 -62.889,31.275 A 138.449,138.449 0 0 1 74.139,298.407 C 41.56,287.015 20.126,264.317 8.202,232.255 A 113.841,113.841 0 0 1 1.189,194.191 C 0.728,166.154 0.222,138.117 0,110.077 A 129.023,129.023 0 0 1 8.523,62.057 Q 26.286,16.235 73.965,4.16 c 15.54,-3.945 31.35,-4.769 47.314,-3.777 a 144.5,144.5 0 0 1 37.452,6.851 c 35.105,11.833 57.316,36.075 68.092,71.18 a 110.212,110.212 0 0 1 4.641,24.738 c 0.056,0.796 0.008,1.599 0.008,2.762 z"
       id="path5"
       inkscape:label="C"
       style="fill:#333333" />
  </g>
  <g
     id="g10"
     style="display:inline;fill:#ffffff"
     transform="translate(0.01353282,1.1145484e-4)">
    <path
       class="cls-1"
       d="m 789.107,473.8 c 0,-16.007 -0.322,-32.021 0.08,-48.018 0.527,-20.992 5.615,-40.916 16.105,-59.229 13.726,-23.963 34.431,-38.569 61.211,-44.7 16.222,-3.716 32.63,-4 49.134,-2.352 a 124.92,124.92 0 0 1 36.279,8.8 c 24.309,10.223 41.027,27.945 51.083,52.142 a 145.7,145.7 0 0 1 10.462,46.26 c 0.593,8.615 0.741,17.272 0.782,25.911 0.1,20.8 0.544,41.612 -0.115,62.389 -1.108,34.881 -14.147,64.748 -40.118,88.4 -16.583,15.1 -36.421,23.357 -58.705,25.63 -18.951,1.933 -37.6,0.363 -55.644,-5.958 -25.77,-9.026 -44.3,-26.337 -56.525,-50.522 A 120.632,120.632 0 0 1 789.714,519.7 c -0.27,-15.3 -0.623,-30.6 -0.94,-45.9 z m 147.948,1.92 q 0,-23.132 0,-46.263 a 47.554,47.554 0 0 0 -3.568,-18.1 c -4.454,-10.914 -12.237,-18.141 -23.95,-20.456 a 48.334,48.334 0 0 0 -12.527,-0.85 c -12.1,0.828 -20.813,6.905 -25.99,17.929 a 47.636,47.636 0 0 0 -4.543,20.355 q -0.088,47.49 0.007,94.979 a 43.257,43.257 0 0 0 6.3,22.329 c 4.47,7.489 10.953,12.459 19.515,14.228 a 47.136,47.136 0 0 0 11.822,0.9 c 10.083,-0.513 18.528,-4.573 24.553,-12.9 a 42.624,42.624 0 0 0 8.352,-25.19 c 0.102,-15.656 0.031,-31.311 0.029,-46.966 z"
       id="path6"
       inkscape:label="O"
       style="fill:#ffffff" />
    <path
       class="cls-1"
       d="m 804.549,0 h 209.543 V 70.634 H 883.239 v 47.073 l 110.508,0.064 v 71.995 H 883.289 v 50.874 l 130.778,0.032 v 69.693 L 805.018,310.3 Z"
       id="path7"
       inkscape:label="E"
       style="fill:#ffffff" />
    <path
       class="cls-1"
       d="m 736.788,498.923 c 29.205,54.814 87.479,164.524 87.479,164.524 l -90.666,0.074 c 0,0 -27.1,-55.938 -39.916,-82.429 -8.949,-18.5 -17.8,-37.053 -26.832,-55.513 -3.944,-8.059 -10.159,-13.372 -19.471,-14.057 -2.62,-0.193 -8.311,0 -8.311,0 V 619.653 H 562.893 L 563.149,0 h 68.96 l 88.065,153.867 h 0.763 L 721.328,0 h 75.927 v 310.365 h -64.1 L 637.566,163.273 h -0.542 v 156.566 c 0,0 39.9,-0.69 57.743,0.155 30.03,1.423 55.3,12.836 72.787,38.352 8.216,11.987 12.45,25.556 14.433,39.839 a 126.7,126.7 0 0 1 0.929,29.707 c -2.144,22.2 -11.328,40.971 -27.128,56.594 a 94.4,94.4 0 0 1 -19,14.437 z M 638.31,449.09 h 1.966 c 0,0 24.311,0.1 36.465,-0.026 a 40.505,40.505 0 0 0 18.216,-4.481 c 6.425,-3.287 11.015,-8.192 13.185,-15.171 a 31.279,31.279 0 0 0 1.054,-11.8 24.887,24.887 0 0 0 -10.696,-19.234 37.677,37.677 0 0 0 -21.658,-7.071 c -11.918,-0.19 -35.763,-0.04 -35.763,-0.04 h -2.769 z"
       id="path8"
       inkscape:label="NR"
       style="fill:#ffffff" />
    <polygon
       class="cls-1"
       points="555.108,619.637 322.064,619.637 322.064,320.067 555.106,320.067 555.106,387.851 403.769,387.876 403.769,433.337 520.154,433.337 520.154,503.207 403.779,503.207 403.779,552.389 555.108,552.389 "
       id="polygon8"
       inkscape:label="E"
       style="fill:#ffffff" />
    <path
       class="cls-1"
       d="m 322.4,154.9 c 0,0 -0.27,-30.848 0.066,-46.262 0.454,-20.763 5.435,-40.451 15.733,-58.6 13.875,-24.452 34.95,-39.3 62.079,-45.872 16.414,-3.977 33.061,-4.327 49.8,-3.08 a 136.793,136.793 0 0 1 34.593,6.893 c 29.619,10.206 49.629,30.243 60.617,59.448 a 151.622,151.622 0 0 1 9.087,45.5 c 0.442,8.159 0.5,16.345 0.526,24.52 0.071,19.16 0.527,38.336 -0.082,57.477 -1.28,40.235 -17.394,73.166 -50.262,97.08 -15.134,11.012 -32.428,16.883 -51.026,18.784 -20.119,2.056 -39.927,0.529 -59.109,-6.166 -28.655,-10 -48.465,-29.592 -60.809,-57.014 -6.793,-15.091 -10.893,-31.023 -11.15,-47.61 C 322.23,184.933 322.4,154.9 322.4,154.9 Z m 152.765,2.839 c 0,-15.188 0.1,-30.377 -0.065,-45.563 a 53.541,53.541 0 0 0 -1.433,-12.127 c -3.3,-13.422 -10.9,-23.13 -24.777,-26.828 a 45.23,45.23 0 0 0 -9.332,-1.39 C 423.1,71 411.178,78.1 405.386,93.57 a 48.482,48.482 0 0 0 -3.1,17.14 q 0.013,46.966 0.01,93.932 a 43.257,43.257 0 0 0 5.522,21.124 c 4.916,8.918 12.347,14.6 22.477,16.16 a 55.6,55.6 0 0 0 12.894,0.5 31.039,31.039 0 0 0 21.955,-11.032 40.856,40.856 0 0 0 9.964,-26.344 c 0.212,-15.769 0.054,-31.543 0.054,-47.316 z"
       id="path9"
       inkscape:label="O"
       style="fill:#ffffff" />
    <polygon
       class="cls-1"
       points="241.867,502.996 164.105,502.996 164.03,618.943 89.068,619.869 89.068,317.522 163.96,317.233 164.03,434.231 238.942,434.231 239.164,0.208 314.642,0.208 314.642,660.74 241.867,660.74 "
       id="polygon9"
       inkscape:label="LH"
       style="fill:#ffffff" />
    <path
       class="cls-1"
       d="m 231.472,105.914 h -78.166 c -0.487,-2.2 -0.9,-4.249 -1.4,-6.279 A 53.245,53.245 0 0 0 141.087,77.493 C 129.446,63.753 110.522,63.604 99.46,68.983 a 29.994,29.994 0 0 0 -13.45,13.36 50.345,50.345 0 0 0 -5.9,23.915 q -0.076,46.625 0,93.248 a 41.2,41.2 0 0 0 6.21,21.633 c 7.464,12.239 18.952,16.441 32.632,15.485 16.18,-1.129 26.61,-10.242 32.77,-24.723 1.541,-3.621 2.524,-7.478 3.81,-11.368 h 76.133 c -0.41,2.784 -0.655,5.4 -1.194,7.961 -5.182,24.608 -15.43,46.755 -32.626,65.313 -16.968,18.311 -38.075,28.668 -62.889,31.275 A 138.449,138.449 0 0 1 74.139,298.407 C 41.56,287.015 20.126,264.317 8.202,232.255 A 113.841,113.841 0 0 1 1.189,194.191 C 0.728,166.154 0.222,138.117 0,110.077 A 129.023,129.023 0 0 1 8.523,62.057 Q 26.286,16.235 73.965,4.16 c 15.54,-3.945 31.35,-4.769 47.314,-3.777 a 144.5,144.5 0 0 1 37.452,6.851 c 35.105,11.833 57.316,36.075 68.092,71.18 a 110.212,110.212 0 0 1 4.641,24.738 c 0.056,0.796 0.008,1.599 0.008,2.762 z"
       id="path10"
       inkscape:label="C"
       style="fill:#ffffff" />
  </g>
</svg>
