<?xml version="1.0" encoding="UTF-8" standalone="no"?>
<!-- Generator: Adobe Illustrator 16.0.3, SVG Export Plug-In . SVG Version: 6.00 Build 0)  -->

<svg
   xmlns:dc="http://purl.org/dc/elements/1.1/"
   xmlns:cc="http://creativecommons.org/ns#"
   xmlns:rdf="http://www.w3.org/1999/02/22-rdf-syntax-ns#"
   xmlns:svg="http://www.w3.org/2000/svg"
   xmlns="http://www.w3.org/2000/svg"
   xmlns:sodipodi="http://sodipodi.sourceforge.net/DTD/sodipodi-0.dtd"
   xmlns:inkscape="http://www.inkscape.org/namespaces/inkscape"
   version="1.1"
   id="Ebene_1"
   x="0px"
   y="0px"
   width="566.929px"
   height="178.654px"
   viewBox="0 0 566.929 178.654"
   enable-background="new 0 0 566.929 178.654"
   xml:space="preserve"
   sodipodi:docname="colecovision.svg"
   inkscape:version="0.92.4 (5da689c313, 2019-01-14)"><metadata
   id="metadata26"><rdf:RDF><cc:Work
       rdf:about=""><dc:format>image/svg+xml</dc:format><dc:type
         rdf:resource="http://purl.org/dc/dcmitype/StillImage" /></cc:Work></rdf:RDF></metadata><defs
   id="defs24" /><sodipodi:namedview
   pagecolor="#ffffff"
   bordercolor="#666666"
   borderopacity="1"
   objecttolerance="10"
   gridtolerance="10"
   guidetolerance="10"
   inkscape:pageopacity="0"
   inkscape:pageshadow="2"
   inkscape:window-width="640"
   inkscape:window-height="480"
   id="namedview22"
   showgrid="false"
   inkscape:zoom="0.62970846"
   inkscape:cx="0"
   inkscape:cy="89.327003"
   inkscape:current-layer="Ebene_1" />
<g
   id="g19"
   transform="matrix(0.8907563,0,0,0.80444402,31.76073,20.644474)">
	<path
   d="M 95.964,11.469 C 99.685,7.854 104.652,0 124.966,0 h 49.43 c 9.841,0 21.039,3.675 24.176,9.759 C 198.798,6.797 198.24,0 205.216,0 h 28.052 c 3.352,0 6.644,2.539 6.644,5.905 v 45.649 c 0,5.963 3.164,5.33 6.762,5.284 h 21.289 V 0 H 369.096 V 9.538 C 371.337,7.369 376.705,0 393.22,0 h 57.814 c 3.287,0 5.02,4.941 5.166,7.323 v 3.691 C 460.63,6.376 468.935,0 483.957,0 h 49.99 c 20.113,0 32.982,14.024 32.982,28.671 v 35.445 c 0,15.198 -14.047,29.634 -33.492,29.634 h -4.895 c 9.057,9.81 8.836,15.385 9.596,21.406 v 56.84 c 0,3.149 -3.695,6.646 -6.643,6.646 h -28.789 c -4.158,0 -6.627,-4.529 -6.646,-6.646 v -41.338 c 0,-5.603 -5.15,-8.851 -9.598,-8.858 H 463.58 v 50.196 c 0,4.563 -5.359,6.646 -7.383,6.646 h -28.051 c -2.604,0 -6.961,0.737 -6.645,-9.479 -2.213,3.174 -10.406,8.861 -23.73,9.479 H 345.97 c -15.088,0 -19.973,-6.697 -24.125,-10.218 0,10.853 -0.727,10.218 -7.381,10.218 h -28.051 c -4.831,0 -5.909,-4.781 -5.909,-7.382 -2.779,3.343 -10.433,7.396 -16.24,7.382 H 155.757 c -4.802,0 -6.613,-3.263 -6.644,-7.382 v -58.317 l -41.338,65.699 H 75.295 L 23.623,93.012 C 9.293,90.175 0,77.85 0,58.5 V 30.09 C 0,17.225 8.884,0.001 33.155,0.001 h 57.642 c 3.38,0 5.167,4.025 5.167,5.563 z m 20.953,81.432 C 105.109,91.36 100.056,84.997 95.964,79.164 v 9.417 c -0.091,3.648 -1.623,5.169 -5.167,5.169 H 71.604 l 19.931,36.909 z"
   id="path2"
   inkscape:connector-curvature="0" />
	
		<linearGradient
   id="SVGID_1_"
   gradientUnits="userSpaceOnUse"
   x1="7.4766002"
   y1="846.32373"
   x2="561.11768"
   y2="846.32373"
   gradientTransform="translate(-0.0947,-757.002)">
		<stop
   offset="0"
   style="stop-color:#F090A7"
   id="stop4" />
		<stop
   offset="0.1495"
   style="stop-color:#EF7B75"
   id="stop6" />
		<stop
   offset="0.2564"
   style="stop-color:#EE6E5E"
   id="stop8" />
		<stop
   offset="0.5894"
   style="stop-color:#FCE72C"
   id="stop10" />
		<stop
   offset="0.8131"
   style="stop-color:#ACDEE4"
   id="stop12" />
		<stop
   offset="1"
   style="stop-color:#A3DDF2"
   id="stop14" />
	</linearGradient>
	<path
   d="m 279.773,91.536 v 22.885 h -64.96 c -7.426,0 -7.01,7.381 0,7.381 0,0 28.543,0 42.814,0 33.358,0 33.348,49.458 0,49.458 -22.392,0 -67.174,0 -67.174,0 v -22.145 c 0,0 42.814,0 64.221,0 7.687,0 7.166,-7.382 0,-7.382 -13.287,0 -39.861,0 -39.861,0 -34.278,0 -34.157,-50.197 0,-50.197 21.653,0 64.96,0 64.96,0 z m 149.115,0 h 76.033 c 13.646,0 25.805,10.596 25.836,25.1 v 54.625 h -27.313 v -47.242 c 0,-7.886 -4.689,-9.484 -10.336,-9.597 H 456.2 v 56.839 H 428.886 V 91.536 Z m -71.603,22.234 c -7.258,0.043 -10.336,4.6 -10.336,10.246 v 14.764 c 0,6.133 5.273,10.334 10.336,10.334 h 30.266 c 3.59,0 9.598,-2.43 9.598,-10.334 v -14.764 c 0,-4.968 -3.021,-10.463 -9.598,-10.427 z M 346.949,91.536 h 50.936 c 16.17,0 26.574,11.012 26.574,24.359 v 29.525 c 0,20.938 -18.09,25.838 -26.574,25.838 h -50.936 c -19.133,0 -27.313,-15.396 -27.313,-25.838 v -29.525 c 0,-17.002 15.215,-24.359 27.313,-24.359 z m -59.793,0 h 27.313 v 79.724 h -27.313 z m -131.399,0 h 27.313 v 79.724 h -27.313 z m -124.016,0 h 30.266 l 29.527,51.673 34.695,-51.673 h 25.099 l -47.244,79.726 H 79.269 Z M 275.345,7.382 h 86.367 v 19.932 h -59.793 v 7.382 h 59.793 v 19.932 h -59.793 c 0,7.327 5.384,10.334 11.072,10.334 h 48.721 v 21.407 h -62.746 c -14.059,0 -23.724,-11.67 -23.691,-24.359 z m -69.391,0 h 26.575 v 47.244 c 0,6.786 5.115,10.404 11.073,10.334 h 28.79 v 21.407 h -41.339 c -11.737,0 -25.098,-5.275 -25.098,-24.359 z M 451.035,7.381 H 391.24 c -17.203,0 -24.32,15.824 -24.359,24.359 v 29.527 c 0,19.149 15.754,25.948 24.359,25.837 h 59.795 V 64.959 h -45.77 c -3.258,0 -11.072,-2.411 -11.072,-9.597 V 39.861 c 0,-7.384 5.559,-10.335 11.072,-10.335 h 45.77 z m 42.814,22.235 c -7.258,0.042 -10.336,4.6 -10.336,10.245 v 14.765 c 0,6.133 5.273,10.334 10.336,10.334 h 30.266 c 3.59,0 9.598,-2.431 9.598,-10.334 V 39.863 c 0,-4.965 -3.025,-10.463 -9.598,-10.424 z M 483.513,7.382 h 50.938 c 16.166,0 26.572,11.012 26.572,24.359 v 29.527 c 0,20.938 -18.09,25.837 -26.572,25.837 H 483.513 C 464.382,87.105 456.2,71.71 456.2,61.268 V 31.741 C 456.201,14.74 471.416,7.382 483.513,7.382 Z M 133.611,29.616 c -7.257,0.043 -10.334,4.6 -10.334,10.246 v 14.765 c 0,6.133 5.273,10.334 10.334,10.334 h 30.266 c 3.588,0 9.596,-2.431 9.596,-10.334 V 39.863 c 0,-4.965 -3.025,-10.463 -9.596,-10.424 z M 123.277,7.382 h 50.935 c 16.167,0 26.576,11.012 26.576,24.359 v 29.527 c 0,20.938 -18.091,25.837 -26.576,25.837 H 123.277 C 104.145,87.105 96.702,71.71 96.702,61.268 V 31.741 c 0,-17.001 14.477,-24.359 26.575,-24.359 z m -31.742,0 H 31.742 c -17.204,0 -24.321,15.824 -24.36,24.359 v 29.527 c 0,19.149 15.753,25.948 24.36,25.837 H 91.535 V 64.961 H 45.029 c -3.256,0 -11.073,-2.412 -11.073,-9.597 V 39.863 c 0,-7.384 5.559,-10.335 11.073,-10.335 h 46.506 z"
   id="path17"
   inkscape:connector-curvature="0"
   style="fill:url(#SVGID_1_)" />
</g>
</svg>