<svg height="162.073" viewBox="0 0 601.385 226.902" width="429.561" xmlns="http://www.w3.org/2000/svg">
    <text fill="#fff" fill-opacity=".5" font-family="TrasksHand" font-size="2.8" stroke-width="1.4" x="424.862" y="188.181" transform="translate(-.827 -36.252)"><tspan x="424.862" y="188.181">John Loreth 2022</tspan></text>
    <path d="M147.235 116.114H74.44m74.67-.216a67.643 58.065 0 0 1-67.643 58.066 67.643 58.065 0 0 1-67.642-58.066 67.643 58.065 0 0 1 67.642-58.065 67.643 58.065 0 0 1 67.643 58.065z" fill="none" opacity=".98" stroke="#14a83b" stroke-linecap="round" stroke-width="22"/>
    <g fill-opacity=".996">
        <g fill="#14a83b" transform="translate(-.827 -36.252)">
            <circle cx="207.701" cy="153.059" opacity=".98" r="17.5"/>
            <path d="M246.035 98.131c-3.58 6.096-6.73 12.891-9.346 20.491 9.443 8.23 15.408 20.333 15.408 33.94 0 24.983-20.017 45-45 45s-45-20.017-45-45c0-24.984 20.017-45 45-45 .694 0 1.368.07 2.054.101 3.58-7.19 7.963-14.052 13.259-20.308a66.622 66.622 0 0 0-15.313-1.794c-36.872 0-67 30.128-67 67 0 36.873 30.128 67 67 67s67-30.127 67-67c0-22.372-11.102-42.247-28.062-54.43" fill="#14a53a" fill-opacity="1" opacity=".98"/>
        </g>
        <g fill="none" stroke="#14a53a">
            <path d="M262.862 168.868V115.49c0-29.257 24.574-52.81 55.099-52.81 30.525 0 55.1 23.553 55.1 52.81v55.088m0 0-14.3-.115H252.1" opacity=".98" stroke-width="22"/>
            <g stroke-linecap="round" stroke-width="12">
                <path d="M302.13 123.028v46.702M334.865 123.028v46.702" opacity=".98"/>
            </g>
        </g>
        <g fill="#14a83b">
            <path d="M406.521 131.829v-17.22c5.198-25.376 39.998-25.533 45.302 0v17.22h-45.368" opacity=".98"/>
            <path d="M429.505 52.35c-37.195 0-67.446 30.375-67.446 67.637v61.78l63.456-.207v-3.235a3.75 3.75 0 1 1 7.5 0v3.21l45.35-.15 18.586.33V119.989c0-37.263-30.252-67.638-67.446-67.638zm0 22c25.346 0 45.445 20.142 45.445 45.637v39.41l-23.185.074-.024-7.18-45.533.161.024 7.17-22.173.07v-39.705c0-25.495 20.099-45.637 45.446-45.637z" fill="#14a53a" fill-opacity="1" opacity=".98"/>
        </g>
        <g fill="#14a83b">
            <path d="m474.64 57.906.174 113.158c1.963 8.098 6.897 10.555 13.916 10.555h52.816c31.762 0 57.676-25.847 57.676-57.527v-8.661c0-31.68-25.914-57.525-57.676-57.525zm22.035 21.943h44.871c19.954 0 35.676 15.68 35.676 35.582v8.661c0 19.903-15.722 35.584-35.676 35.584h-44.75z" fill="#14a239" fill-opacity="1" opacity=".98"/>
            <path d="M518.388 140.064V100.17h23.177c23.928 7.839 16.387 35.463 0 39.895z" opacity=".98"/>
        </g>
    </g>
    <path d="M204.516 79.876c12.717-31.53 39.061-59.252 88.431-60.644-24.311 11.988-47.834 31.183-58.88 68.73z" fill="none" opacity=".98" stroke="#149f38" stroke-linecap="round" stroke-width="7"/>
    <path d="M314.535 0a16 16 0 0 0-15.999 15.999 16 16 0 0 0 16 16.001 16 16 0 0 0 16-16.001 16 16 0 0 0-16-15.999zm-.205 5.436c1.972.043 3.632.859 4.733 2.171.599 1.704.902 3.526-2.469 3.847l-2.658-.475c-.922-.25-1.978-.302-3.352.112-1.233.144-3.292 2.778-5.225.834-2.014-4.006 4.423-6.47 8.107-6.459a7.82 7.82 0 0 1 .864-.03z" fill="#14a239" opacity=".98"/>
    <g fill="#14a239">
        <path d="M14.051 215.966q5.277 0 7.332-5.54l5.08 2.005q-1.64 4.217-4.823 6.284-3.162 2.047-7.589 2.047-6.719 0-10.395-3.97Q0 212.803 0 205.65q0-7.174 3.538-11.019 3.537-3.845 10.257-3.845 4.9 0 7.984 2.067 3.083 2.047 4.328 6.037l-5.139 1.468q-.652-2.192-2.569-3.474-1.897-1.302-4.486-1.302-3.952 0-6.008 2.564-2.035 2.563-2.035 7.504 0 5.023 2.094 7.67 2.115 2.646 6.087 2.646zM56.96 205.65q0 4.548-1.72 8-1.72 3.453-4.921 5.293-3.202 1.819-7.47 1.819-6.562 0-10.297-4.031-3.715-4.052-3.715-11.081 0-7.008 3.715-10.936t10.336-3.928q6.62 0 10.336 3.97 3.735 3.968 3.735 10.894zm-5.95 0q0-4.714-2.134-7.38-2.134-2.688-5.988-2.688-3.913 0-6.047 2.667-2.135 2.646-2.135 7.4 0 4.797 2.174 7.567 2.194 2.75 5.969 2.75 3.913 0 6.027-2.688 2.135-2.687 2.135-7.628zM84.096 220.348v-18.854q.02-.599.198-5.147-1.403 5.561-2.075 7.752l-5.02 16.25h-4.15l-5.02-16.25-2.115-7.752q.237 4.796.237 6.347v17.654h-5.177V191.22h7.806l4.98 16.29.435 1.572.949 3.907 1.245-4.672 5.118-17.097h7.767v29.128zM113.98 220.348l-2.47-7.442h-10.613l-2.47 7.442h-5.83l10.158-29.128h6.877l10.119 29.128zm-7.786-24.642-.119.455q-.198.744-.474 1.695-.277.951-3.4 10.46h8.005l-2.748-8.372-.85-2.811zM147.955 205.567q0 4.507-1.7 7.877-1.68 3.349-4.782 5.126-3.083 1.778-7.075 1.778h-11.265V191.22h10.08q7.035 0 10.888 3.721 3.854 3.7 3.854 10.626zm-5.87 0q0-4.693-2.331-7.153-2.332-2.48-6.66-2.48h-4.13v19.7h4.94q3.755 0 5.968-2.707 2.214-2.708 2.214-7.36z"/>
    </g>
    <g fill="#14a239">
        <path d="M169.047 220.348V191.22h6.326v29.128zM199.222 220.348l-13.166-22.43q.386 3.267.386 5.251v17.18h-5.619V191.22h7.227l13.36 22.616q-.386-3.121-.386-5.685v-16.93h5.618v29.127zM239.047 205.567q0 4.507-1.844 7.877-1.823 3.349-5.19 5.126-3.345 1.778-7.676 1.778h-12.224V191.22h10.937q7.634 0 11.816 3.721 4.181 3.7 4.181 10.626zm-6.369 0q0-4.693-2.53-7.153-2.53-2.48-7.227-2.48h-4.482v19.7h5.361q4.075 0 6.477-2.707 2.401-2.708 2.401-7.36zM255.97 220.762q-6.24 0-9.564-2.936-3.303-2.935-3.303-8.393V191.22h6.326v17.738q0 3.452 1.694 5.25 1.716 1.778 5.018 1.778 3.389 0 5.211-1.86 1.823-1.881 1.823-5.375v-17.53h6.326v17.902q0 5.54-3.56 8.6-3.538 3.039-9.971 3.039zM299.333 211.955q0 4.28-3.302 6.553-3.281 2.254-9.65 2.254-5.812 0-9.114-1.985-3.303-1.984-4.246-6.016l6.111-.971q.622 2.315 2.424 3.37 1.801 1.033 4.996 1.033 6.627 0 6.627-3.886 0-1.24-.772-2.047-.751-.806-2.145-1.344-1.372-.537-5.297-1.302-3.388-.765-4.717-1.22-1.33-.475-2.402-1.096-1.072-.64-1.823-1.53-.75-.888-1.18-2.087-.407-1.2-.407-2.75 0-3.948 3.067-6.036 3.088-2.109 8.963-2.109 5.619 0 8.428 1.695 2.83 1.695 3.646 5.603l-6.133.806q-.472-1.881-1.93-2.832-1.437-.951-4.14-.951-5.746 0-5.746 3.473 0 1.137.6 1.86.622.724 1.823 1.24 1.2.497 4.868 1.262 4.353.889 6.219 1.654 1.887.744 2.98 1.757 1.094.992 1.673 2.398.58 1.385.58 3.204zM317.199 195.934v24.414h-6.326v-24.414h-9.757v-4.714h25.862v4.714zM350.72 220.348l-7.013-11.06h-7.42v11.06h-6.326V191.22h15.097q5.404 0 8.342 2.253 2.938 2.233 2.938 6.43 0 3.06-1.801 5.292-1.802 2.212-4.868 2.915l8.17 12.238zm-.751-20.197q0-4.197-5.576-4.197h-8.106v8.6h8.278q2.659 0 4.031-1.157 1.373-1.158 1.373-3.246zM374.504 208.4v11.948h-6.305V208.4l-10.765-17.179h6.627l7.248 12.321 7.334-12.32h6.626z"/>
    </g>
    <g fill="#14a239">
        <path d="M420.837 215.966q5.726 0 7.956-5.54l5.511 2.005q-1.78 4.217-5.232 6.284-3.431 2.047-8.235 2.047-7.291 0-11.28-3.97-3.967-3.99-3.967-11.142 0-7.174 3.839-11.019 3.838-3.845 11.13-3.845 5.317 0 8.663 2.067 3.345 2.047 4.696 6.037l-5.575 1.468q-.708-2.192-2.788-3.473-2.059-1.303-4.868-1.303-4.289 0-6.52 2.564-2.208 2.563-2.208 7.504 0 5.023 2.273 7.67 2.295 2.646 6.605 2.646zM467.396 205.65q0 4.548-1.866 8-1.866 3.453-5.34 5.293-3.474 1.819-8.106 1.819-7.12 0-11.172-4.031-4.032-4.052-4.032-11.081 0-7.008 4.032-10.936 4.031-3.928 11.215-3.928t11.216 3.97q4.053 3.968 4.053 10.894zm-6.455 0q0-4.714-2.316-7.38-2.316-2.688-6.498-2.688-4.246 0-6.562 2.667-2.316 2.646-2.316 7.4 0 4.797 2.359 7.567 2.38 2.75 6.476 2.75 4.246 0 6.54-2.688 2.317-2.687 2.317-7.628zM471.794 220.348v-6.305h6.198v6.305zM489.853 218.984q0 2.48-.557 4.383-.536 1.902-1.759 3.535h-3.967q1.265-1.468 2.059-3.225.793-1.757.793-3.329h-2.766v-6.305h6.197z"/>
    </g>
    <g fill="#14a239">
        <path d="M506.727 220.348V191.22h6.877v24.415h17.625v4.713zM546.711 195.933v24.415h-6.877v-24.415h-10.607v-4.713h28.115v4.713zM589.866 205.567q0 4.507-2.005 7.877-1.982 3.349-5.642 5.126-3.637 1.778-8.346 1.778h-13.288V191.22h11.89q8.299 0 12.845 3.721 4.546 3.7 4.546 10.626zm-6.924 0q0-4.693-2.751-7.153-2.75-2.48-7.856-2.48h-4.873v19.7h5.828q4.43 0 7.04-2.707 2.612-2.708 2.612-7.36zM594.648 220.348v-6.305h6.737v6.305z"/>
    </g>
</svg>
