<?xml version="1.0" encoding="UTF-8" standalone="no"?>
<svg
   width="2600pt"
   height="540pt"
   viewBox="0 0 2600 540"
   version="1.1"
   id="svg23"
   sodipodi:docname="creativision2.svg"
   inkscape:version="1.1.2 (0a00cf5339, 2022-02-04)"
   xmlns:inkscape="http://www.inkscape.org/namespaces/inkscape"
   xmlns:sodipodi="http://sodipodi.sourceforge.net/DTD/sodipodi-0.dtd"
   xmlns:xlink="http://www.w3.org/1999/xlink"
   xmlns="http://www.w3.org/2000/svg"
   xmlns:svg="http://www.w3.org/2000/svg">
  <defs
     id="defs27">
    <linearGradient
       id="linearGradient110405"
       inkscape:swatch="solid">
      <stop
         style="stop-color:#e4d47f;stop-opacity:1;"
         offset="0"
         id="stop110403" />
    </linearGradient>
    <linearGradient
       inkscape:collect="always"
       id="linearGradient47203">
      <stop
         style="stop-color:#87622e;stop-opacity:1;"
         offset="0"
         id="stop47199" />
      <stop
         style="stop-color:#deca77;stop-opacity:1"
         offset="1"
         id="stop47201" />
    </linearGradient>
    <linearGradient
       id="linearGradient47151"
       inkscape:swatch="solid">
      <stop
         style="stop-color:#87622e;stop-opacity:1;"
         offset="0"
         id="stop47149" />
    </linearGradient>
    <linearGradient
       inkscape:collect="always"
       xlink:href="#linearGradient47203"
       id="linearGradient110449"
       x1="1919.818"
       y1="159.45549"
       x2="1919.818"
       y2="293.48044"
       gradientUnits="userSpaceOnUse" />
    <linearGradient
       inkscape:collect="always"
       xlink:href="#linearGradient47203"
       id="linearGradient110695"
       x1="1920.0801"
       y1="698.67969"
       x2="1920.0801"
       y2="301.16333"
       gradientUnits="userSpaceOnUse" />
    <linearGradient
       inkscape:collect="always"
       xlink:href="#linearGradient47203"
       id="linearGradient180882"
       x1="1101.189"
       y1="509.72894"
       x2="1101.189"
       y2="395.27228"
       gradientUnits="userSpaceOnUse" />
  </defs>
  <sodipodi:namedview
     id="namedview25"
     pagecolor="#ffffff"
     bordercolor="#666666"
     borderopacity="1.0"
     inkscape:pageshadow="2"
     inkscape:pageopacity="0.0"
     inkscape:pagecheckerboard="0"
     inkscape:document-units="pt"
     showgrid="false"
     inkscape:zoom="0.19714241"
     inkscape:cx="2165.9469"
     inkscape:cy="284.05861"
     inkscape:window-width="1920"
     inkscape:window-height="1011"
     inkscape:window-x="1920"
     inkscape:window-y="32"
     inkscape:window-maximized="1"
     inkscape:current-layer="#000000ff" />
  <g
     id="#000000ff">
    <g
       id="g37369"
       style="stroke-width:1;stroke-miterlimit:4;stroke-dasharray:none;fill-opacity:1;fill:url(#linearGradient180882);stroke:#deca77;stroke-opacity:1">
      <path
         id="path18"
         style="fill:url(#linearGradient180882);fill-opacity:1;stroke:#deca77;stroke-width:4;stroke-miterlimit:4;stroke-dasharray:none;stroke-opacity:1"
         d="m 2199.543,158.62109 c -2.36,0.0183 -4.7025,0.17802 -6.9825,0.80469 -4.76,1.42667 -8.1595,6.21383 -7.9062,11.17383 0.013,123.58667 0.027,247.17344 0,370.77344 -0.2133,4.26666 2.2658,8.55979 6.1191,10.45312 3.6267,1.94667 7.8806,1.42654 11.8672,1.53321 9.4,-0.14667 18.8269,0.16085 28.2403,-0.11915 6.28,0.0133 11.9197,-5.52018 11.7597,-11.85351 0.08,-123.13333 -0.014,-246.26706 0.039,-369.40039 0.6133,-6.28 -4.1462,-12.56042 -10.5195,-13.09375 -8.4934,-0.56 -17.0266,-0.0532 -25.5332,-0.22656 -2.3467,0.06 -4.724,-0.0633 -7.084,-0.0449 z m 377.3711,0.008 c -2.3467,0.035 -4.6744,0.22395 -6.9278,0.89062 -4.4266,1.72 -7.9206,6.19974 -7.6406,11.06641 -0.027,123.56 -0.013,247.13336 0,370.69336 -0.4,6.50666 5.6684,12.16127 12.0684,11.97461 11.24,0.16 22.5064,0.12033 33.7597,0.0137 6.44,0.25333 12.5452,-5.36026 12.1719,-11.9336 -0.013,-123.54666 -0.013,-247.09429 0,-370.65429 0.3333,-6.02667 -4.8649,-11.55985 -10.8516,-11.83985 -8.5066,-0.44 -17.0398,-0.0272 -25.5332,-0.17382 -2.3333,0.0467 -4.7002,-0.0721 -7.0468,-0.0371 z m -956.002,0.0215 c -1.9083,0.0433 -3.8049,0.20198 -5.6582,0.69531 -4.76,1.44 -8.4669,6.16151 -8.2402,11.21485 -0.027,123.6 -0.027,247.2125 0,370.8125 -0.2534,5.06666 3.4399,9.82791 8.2265,11.28125 3.28,0.89333 6.7188,0.65174 10.1055,0.70508 9.36,-0.16001 18.7481,0.18684 28.1348,-0.14649 6.1466,-0.0533 11.7725,-5.49276 11.5058,-11.74609 0.027,-123.64 0.027,-247.27993 0,-370.91992 0.28,-6.29334 -5.3992,-11.74678 -11.5859,-11.77344 -8.92,-0.30667 -17.8398,0.0142 -26.7598,-0.11914 -1.9,0.0267 -3.8202,-0.0472 -5.7285,-0.004 z m -1345.50976,0.45899 c -13.555,-0.15667 -27.10958,-0.18336 -40.65625,0.55664 -40.93333,2.44 -80.39903,19.62664 -111.3457,46.30664 -33.733333,28.86666 -58.041275,69.3614 -64.974609,113.4414 -8.453333,57.38667 6.481198,118.8267 43.894529,163.69336 25.22667,30.77334 61.07888,52.78518 100.18555,60.47852 46.18667,8.92 93.44151,6.84008 140.21484,7.08008 15.73334,0.14666 32.0531,-0.25185 46.75977,-6.47852 11.50667,-4.56 20.53276,-14.33487 24.74609,-25.9082 7.52,-19.85334 5.93248,-41.46597 6.11914,-62.2793 0.57334,-12.88 0.22698,-25.77268 0.32032,-38.66602 -0.08,-50.26666 -0.0132,-100.53377 0.85351,-150.7871 0.44,-13.53334 2.62662,-28.84076 13.61328,-38.10743 11.73334,-9.65333 27.80091,-10.01372 42.26758,-10.40039 19.50667,0.10667 39.0132,0.97406 58.5332,1.41406 8.70667,0.45334 17.8255,2.38761 24.79883,7.96094 6.05334,4.69334 9.92167,11.7869 11.375,19.24024 2.28,10.90666 1.61169,23.09294 -4.68164,32.59961 -5.53333,8.44 -15.13242,13.23877 -24.73242,15.41211 -23.97333,5.30666 -49.2525,-2.0524 -72.8125,5.96093 -15.49333,4.86667 -28.80037,16.62719 -34.70703,31.86719 -6.58667,16.64 -6.73344,36.1187 1.22656,52.33203 8.45333,17.77334 25.8388,30.70672 45.10547,34.38672 17.98667,3.2 36.33448,1.98685 54.50781,2.85352 8.73334,0.41333 17.7055,2.63932 24.79883,7.97265 7.10667,5.25334 11.50755,13.45521 13.57422,21.92188 4.66667,20.37333 0.54745,42.0383 7.80078,61.93164 5.26667,15.62666 17.23961,28.92109 32.59961,35.12109 13.42667,5.73334 28.29294,5.65357 42.59961,5.24024 5.90667,-0.21334 11.37232,-5.53295 10.95898,-11.59961 -0.04,-11.10667 0.0409,-22.22732 -0.0391,-33.33399 0.0933,-4.2 -2.79911,-7.98617 -6.42578,-9.82617 -4.16,-2.04 -8.92125,-0.56081 -13.28125,-1.49414 -5.53333,-1.88 -10.37281,-6.14583 -12.13281,-11.8125 -2.42667,-7.6 -1.46607,-15.70654 -2.05274,-23.5332 -1.37333,-22.41334 -7.88169,-45.14787 -22.06836,-62.89453 -12.89333,-16.52 -31.98528,-27.56066 -52.25195,-32.33399 -20.28,-5.16 -41.37375,-3.93213 -62.09375,-4.10547 v -8.65429 c 20.81333,-0.54667 42.04039,1.92072 62.40039,-3.58594 23.76,-5.85334 45.54633,-20.78607 57.98633,-42.05274 12.8,-21.37333 15.30617,-47.57437 10.82617,-71.73437 -3.62667,-20.90667 -14.09344,-40.97305 -30.77344,-54.37305 -17.02666,-14.01333 -39.17198,-20.46739 -60.94531,-21.41406 -15.18667,-0.53333 -30.36021,-0.94651 -45.54687,-0.83984 -18.30667,-0.04 -36.85378,-0.17326 -54.78711,4.08007 -19.06667,4.34667 -37.49279,13.62722 -50.43946,28.56055 -14.21333,16.16 -21.14773,37.45388 -23.42773,58.56055 -1.74667,13.74666 -0.43896,27.62612 -1.26563,41.43945 -0.16,53.34667 -0.001,106.70573 0.63868,160.03906 -0.42667,10.62667 1.94724,21.89487 -2.7461,31.90821 -2.81333,6.21333 -9.38599,9.78552 -15.97265,10.49218 -9.73334,0.96 -19.52125,-0.25341 -29.28125,-0.0801 -23.14667,-0.56 -46.29245,-0.48016 -69.42579,-1.16016 -18.36,-0.92 -36.5745,-5.35828 -53.20117,-13.23828 -26.08,-12.30667 -47.9862,-33.16029 -61.51953,-58.62696 -14.93333,-27.66666 -20.30682,-60.40039 -15.16015,-91.40039 5.23999,-31.84 22.46742,-61.38776 47.10742,-82.12109 22.36,-19.05333 50.85349,-30.71984 80.16015,-32.83984 28.89334,-1.18667 57.82644,-0.91899 86.75977,-0.95899 5.96,0.0267 11.2539,-5.33458 11.2539,-11.28125 0.0933,-10.69333 -9.3e-4,-21.38479 0.0391,-32.07812 0.37333,-5.02667 -2.81253,-9.98711 -7.50586,-11.78711 -5.54667,-1.58667 -11.41409,-0.58651 -17.10742,-0.83985 -13.55334,0.22 -27.10907,-0.0679 -40.66407,-0.2246 z"
         transform="scale(0.75)" />
    </g>
    <path
       id="path20"
       style="stroke-width:6.66666667;fill:url(#linearGradient110449);fill-opacity:1;stroke:url(#linearGradient110695);stroke-opacity:0.79000002;stroke-miterlimit:4;stroke-dasharray:none"
       d="M 1659.4414 20.941406 C 1657.0464 20.983073 1654.6734 21.207604 1652.3867 21.960938 C 1647.9334 23.800937 1644.8407 28.466641 1645.0273 33.306641 C 1644.9607 44.839974 1644.974 56.386927 1645.0273 67.933594 C 1644.8273 72.786927 1647.8928 77.600651 1652.4395 79.333984 C 1657.2395 80.667318 1662.3601 80.572969 1667.0801 82.292969 C 1675.4934 85.119635 1681.4663 92.453646 1684.9863 100.32031 C 1689.573 110.65365 1691.8402 121.81354 1695.2402 132.54688 C 1711.8536 189.33354 1729.8142 245.70604 1746.8809 302.35938 C 1781.4275 417.33271 1814.4929 532.75971 1850.2129 647.37305 C 1853.5062 657.59971 1858.8809 667.1469 1865.9609 675.24023 C 1879.3076 690.5069 1899.5601 700.33302 1920.0801 698.67969 C 1933.4534 699.74635 1946.8131 695.78695 1958.0664 688.62695 C 1973.7597 678.82695 1984.9996 662.73409 1990.2129 645.10742 C 2025.5196 531.58742 2058.3208 417.32013 2092.4941 303.4668 C 2111.4408 240.64013 2131.4269 178.11906 2149.5469 115.03906 C 2152.6135 104.30573 2156.4936 92.6525 2165.9336 85.8125 C 2171.1203 81.8525 2177.68 80.826068 2184 80.052734 C 2190.0133 79.692734 2194.9343 74.027344 2194.6543 68.027344 C 2194.681 56.440677 2194.681 44.840573 2194.6543 33.253906 C 2194.9876 26.760573 2189.1467 20.906406 2182.6934 21.066406 C 2173.72 20.866406 2164.7208 21.065833 2155.8008 21.8125 C 2134.5608 25.265833 2114.6002 39.959531 2107.2402 60.519531 C 2102.1069 74.639531 2097.174 88.840156 2092.6406 103.16016 C 2076.0406 155.76016 2060.6393 208.72081 2044.5859 261.49414 C 2009.7859 377.36081 1975.0528 493.25333 1939.8262 609 C 1937.5728 618.02667 1933.3057 626.76008 1926.3457 633.08008 C 1923.8257 635.48008 1919.8676 637.73305 1916.5742 635.37305 C 1909.4276 630.82638 1904.7865 623.11904 1901.8398 615.3457 C 1862.7065 487.13237 1824.3874 358.66664 1785.7207 230.30664 C 1769.4007 177.02664 1754.4795 123.30635 1736.1328 70.679688 C 1732.8928 61.546354 1729.9461 51.986875 1723.4395 44.546875 C 1714.4261 33.693542 1701.8525 25.853281 1688.1191 22.613281 C 1681.0791 20.866615 1673.787 21.440339 1666.627 21.013672 C 1664.2536 21.040339 1661.8364 20.89974 1659.4414 20.941406 z M 2852.9707 154.23633 C 2841.2957 153.74112 2829.58 154.25044 2818 155.78711 C 2783.64 160.37378 2750.6669 174.35919 2723.2402 195.50586 C 2688.5469 221.97253 2662.4938 259.86674 2651.1738 302.08008 C 2642.4272 333.96008 2642.8405 367.89409 2649.5605 400.10742 C 2658.6939 443.60076 2682.4396 484.21247 2717.2129 512.11914 C 2752.9729 541.33247 2799.3463 556.14734 2845.293 556.02734 C 2892.9463 556.48068 2940.5602 539.59974 2977.1602 509.06641 C 3010.3868 481.66641 3034.4398 443.01404 3043.1465 400.7207 C 3051.0265 361.70737 3046.5865 320.56013 3032.4531 283.4668 C 3017.0131 243.3068 2988.6669 208.10581 2952.2402 185.11914 C 2922.6602 166.23914 2887.9957 155.72195 2852.9707 154.23633 z M 3132.2031 154.37109 C 3129.0125 154.54693 3125.8374 154.97935 3122.7207 155.66602 C 3109.934 158.26602 3097.453 164.13299 3088.6797 173.98633 C 3080.8264 182.71966 3076.2402 193.97312 3074.2402 205.45312 C 3071.7336 219.06646 3072.9327 232.94669 3072.666 246.69336 C 3072.3993 303.58669 3073.1733 360.46604 3073 417.35938 C 3072.8533 439.19938 3073.4126 461.01318 3072.8926 482.83984 C 3072.6659 487.61318 3068.5342 491.60016 3063.8809 492.16016 C 3059.4675 492.64016 3055.0273 492.05279 3050.6406 492.43945 C 3044.8806 492.74612 3039.7067 498.04086 3040 503.88086 C 3039.9867 515.94753 3039.9737 527.99974 3040.0137 540.06641 C 3039.8537 544.14641 3042.3066 548.10633 3045.9199 549.98633 C 3048.9333 551.82633 3052.6137 551.21339 3056.0137 551.38672 C 3071.7603 551.97339 3088.2925 550.19974 3102.1191 542.06641 C 3118.9325 532.50641 3128.5599 513.54594 3129.5332 494.58594 C 3130.4132 468.38594 3129.8267 442.14693 3130 415.93359 C 3129.96 383.97359 3130.1727 352.01307 3129.666 320.06641 C 3129.586 286.34641 3129.8139 252.62659 3129.5605 218.91992 C 3132.5072 218.95992 3135.4925 218.95992 3138.5059 218.91992 C 3150.5592 249.54659 3163.1075 279.98753 3174.4941 310.88086 C 3200.2275 380.26753 3226.0801 449.61349 3251.3867 519.16016 C 3258.3867 536.32016 3273.4532 549.87982 3291.2266 555.14648 C 3310.5332 560.97315 3332.6261 557.11979 3348.4395 544.45312 C 3363.6395 532.73312 3372.7464 513.77294 3372.6797 494.59961 C 3372.533 455.93294 3372.7467 417.26661 3373 378.61328 C 3373 330.63995 3373.013 282.66635 3372.9863 234.67969 C 3372.933 230.42635 3373.6798 225.50591 3377.4531 222.89258 C 3382.9065 219.17258 3389.8127 221.16003 3395.9727 220.69336 C 3402.3193 221.13336 3408.373 215.7463 3408.293 209.29297 C 3408.4396 199.0663 3408.226 188.83995 3408.3594 178.61328 C 3408.4794 173.78661 3408.6005 168.12036 3404.5605 164.70703 C 3399.3205 159.8537 3391.7858 162.26721 3385.4258 161.56055 C 3365.6791 160.52055 3343.4926 164.81411 3330.2793 180.80078 C 3315.626 198.73411 3314.094 223.20005 3314.334 245.38672 C 3313.7607 328.60005 3314.0797 411.82573 3313.9863 495.03906 C 3311.213 494.86573 3308.3328 495.38578 3305.7461 494.42578 C 3303.1994 492.62578 3302.3207 489.46583 3301.0273 486.8125 C 3290.0807 462.63917 3281.9736 437.34688 3272.627 412.54688 C 3246.9603 342.38688 3221.4659 272.16008 3195.5859 202.08008 C 3189.1459 184.54674 3177.2125 168.18685 3160.1191 159.85352 C 3151.4791 155.63352 3141.775 153.84359 3132.2031 154.37109 z M 1109.1582 158.20703 C 1094.1063 157.40828 1078.7874 160.33969 1066.1074 168.67969 C 1049.8941 179.23969 1039.8661 196.84063 1033.4395 214.64062 C 1003.1728 299.10729 973.06581 383.62651 942.11914 467.83984 C 938.73247 477.61318 934.32055 487.51995 926.56055 494.61328 C 924.50721 496.67995 921.54677 497.14716 918.77344 497.17383 C 868.05344 498.69383 817.26755 499.11969 766.57422 496.67969 C 762.00089 496.57302 757.28039 495.77289 753.40039 493.21289 C 745.29372 488.10622 740.73281 479.05247 738.13281 470.11914 C 735.26615 459.37247 734.58708 447.8276 737.09375 436.96094 C 738.53375 430.53427 744.32034 425.6131 751.01367 425.75977 C 784.68034 425.3331 818.3994 426.34576 852.05273 424.73242 C 870.3994 424.01242 889.78609 417.94596 901.74609 403.2793 C 911.10609 392.06596 914.82604 377.0937 914.35938 362.70703 C 914.22604 347.02703 909.37411 330.62721 897.80078 319.56055 C 886.17411 307.84055 869.33323 303.08039 853.22656 302.40039 C 823.5199 302.00039 793.78708 303.04081 764.09375 301.49414 C 756.88042 301.36081 749.8794 298.62646 744.05273 294.45312 C 740.93273 292.14646 737.78701 289.30732 737.01367 285.33398 C 734.12034 274.10732 733.38755 261.87924 737.57422 250.89258 C 741.28089 240.85258 749.36008 232.80047 759.08008 228.48047 C 773.09341 221.90714 788.94701 222.78635 804.01367 222.67969 C 836.46701 221.98635 868.93339 222.35969 901.38672 222.67969 C 908.13339 223.42635 914.66698 217.59943 914.32031 210.74609 C 914.36031 200.02609 914.34698 189.30594 914.32031 178.58594 C 914.49365 173.6126 911.01331 168.84031 906.30664 167.32031 C 902.95997 166.32031 899.41266 166.70729 895.97266 166.64062 C 854.63932 166.69396 813.30599 166.63935 771.97266 166.66602 C 745.41266 168.03935 717.85359 178.13253 700.93359 199.50586 C 682.64026 222.33253 677.80031 252.7993 678.32031 281.2793 C 678.16031 300.61263 680.24036 321.9076 693.70703 336.96094 C 708.02703 352.80094 730.21396 357.71927 750.64062 359.58594 C 783.20062 359.78594 815.77237 359.62763 848.3457 359.6543 C 848.31904 362.6543 848.32031 365.6543 848.32031 368.6543 C 819.74698 368.70763 791.17294 368.61336 762.59961 368.69336 C 751.90628 369.40003 741.15987 368.33326 730.5332 369.91992 C 719.55987 371.45326 708.81406 375.71906 700.41406 383.03906 C 692.88073 389.4924 687.6931 398.33276 684.75977 407.74609 C 680.10643 422.43943 677.63932 437.89398 677.97266 453.33398 C 677.77266 479.37398 685.53357 506.38667 703.24023 526 C 716.17357 540.50667 734.31997 549.77365 753.30664 553.32031 C 767.79997 556.33365 782.65237 555.41367 797.3457 556.01367 C 828.43904 555.84034 859.56063 556.34763 890.64062 555.6543 C 904.81396 555.6543 919.00016 555.88042 933.16016 555.09375 C 948.61349 553.86708 963.97247 547.29365 974.11914 535.32031 C 983.95914 524.64031 987.92068 510.38682 993.02734 497.16016 C 1025.3207 411.62682 1053.9861 324.76068 1085.7461 239.02734 C 1089.4661 230.29401 1097.7462 224.94708 1103.9062 218.09375 C 1108.7463 223.25375 1114.4402 227.61383 1118.8535 233.17383 C 1121.9735 237.02716 1123.7467 241.7199 1125.6934 246.22656 C 1135.0534 267.9999 1142.961 290.36039 1151.6543 312.40039 C 1153.721 318.20039 1155.9735 324.81318 1153.4668 330.83984 C 1151.1335 335.87984 1145.2791 337.82622 1140.1191 338.21289 C 1125.3591 339.39956 1110.5201 337.97401 1095.7734 339.02734 C 1075.3868 341.42734 1056.7195 354.76057 1047.8262 373.25391 C 1039.1328 390.58724 1039.2942 412.05391 1048.2676 429.25391 C 1056.6142 445.73391 1072.7072 458.14643 1090.8672 461.75977 C 1098.2672 463.46643 1105.9061 462.93333 1113.4395 463 C 1138.7328 463.04 1164.039 462.9194 1189.3457 463.05273 C 1196.1324 463.09273 1204.1068 464.33284 1207.7734 470.82617 C 1217.9468 488.43951 1220.973 509.40073 1232.373 526.41406 C 1242.1997 541.1874 1258.0934 552.65297 1276.0801 554.29297 C 1285.8401 554.4263 1295.5994 554.29237 1305.3594 554.3457 C 1309.7727 554.57237 1314.4124 552.65242 1316.7324 548.73242 C 1318.7724 545.77242 1318.3064 542.02729 1318.373 538.64062 C 1318.2397 528.84062 1318.4266 519.04057 1318.3066 509.25391 C 1318.32 503.22724 1312.5326 498.0657 1306.5859 498.3457 C 1299.9726 497.8257 1292.6534 499.88052 1286.7734 495.86719 C 1276.3201 490.18719 1272.9866 477.81289 1269.9199 467.21289 C 1265.8666 451.87956 1259.4004 436.62589 1248.0938 425.19922 C 1238.8138 415.73255 1226.4001 409.66578 1213.3867 407.42578 C 1200.1601 404.78578 1186.6807 406.62732 1173.334 406.33398 C 1153.654 406.37398 1133.9866 406.25339 1114.3066 406.38672 C 1113.9333 402.49339 1113.907 398.57268 1114.0137 394.66602 C 1135.0137 394.42602 1156.7739 396.15909 1176.8672 388.73242 C 1191.1205 383.70576 1204.0543 373.46596 1209.9609 359.2793 C 1217.1476 342.46596 1215.0659 323.29331 1209.5859 306.30664 C 1200.8793 279.93331 1191.387 253.82727 1181.3203 227.94727 C 1175.7603 213.98727 1170.8008 199.57349 1162.1074 187.16016 C 1153.3341 173.86682 1139.7203 163.57417 1124.0137 160.1875 C 1119.1637 159.15417 1114.1755 158.47328 1109.1582 158.20703 z M 2507.9062 158.66602 C 2464.0396 159.38602 2420.146 158.72042 2376.2793 159.09375 C 2352.9993 159.97375 2329.8136 167.54609 2311.2402 181.74609 C 2273.4936 210.21276 2257.694 264.21388 2274.0273 308.56055 C 2282.6807 332.84055 2299.8933 353.98638 2321.9199 367.37305 C 2338.1599 377.42638 2357.1458 382.33289 2376.1191 383.21289 C 2392.5591 384.45289 2409.0925 382.67927 2425.5059 384.58594 C 2440.3992 386.4926 2455.3859 392.45292 2465.5059 403.90625 C 2479.7192 419.91958 2481.7994 444.49362 2473.0527 463.62695 C 2466.8794 477.09362 2453.8928 486.3875 2439.8262 490.1875 C 2426.4795 494.3075 2412.4127 493.20065 2398.666 493.33398 C 2360.3993 493.36065 2322.1205 493.27971 2283.8672 493.37305 C 2277.3872 493.07971 2271.6524 498.85263 2271.7324 505.2793 C 2271.6258 516.3593 2271.5468 527.46687 2271.7734 538.54688 C 2271.6934 544.96021 2277.6257 550.54734 2284.0391 550.02734 C 2327.1057 549.97401 2370.1872 550.01333 2413.2539 550 C 2428.2139 549.49333 2443.4659 549.42591 2457.8926 544.89258 C 2492.8926 534.58591 2521.5059 505.50747 2531.5859 470.49414 C 2537.8793 449.18747 2536.1733 426.21247 2529.9199 405.11914 C 2523.6666 384.18581 2511.1342 365.09328 2493.8809 351.61328 C 2475.2142 336.87995 2451.6003 329.2394 2428.0137 328.05273 C 2412.4537 327.2394 2396.854 327.9737 2381.334 326.70703 C 2364.7607 325.20036 2347.8259 318.8125 2336.8926 305.8125 C 2323.2792 289.94583 2321.9196 266.20055 2330.293 247.56055 C 2336.5463 233.50721 2349.2125 222.73247 2363.8125 218.11914 C 2373.2925 214.94581 2383.387 214.39935 2393.3203 214.66602 C 2434.667 214.67935 2476.0127 214.65302 2517.3594 214.67969 C 2523.5327 215.18635 2529.8139 210.33292 2529.8672 203.90625 C 2530.2272 194.61292 2529.8524 185.30701 2530.0391 176.01367 C 2530.0791 171.13367 2530.1061 165.46599 2526.1328 161.97266 C 2521.2261 157.34599 2513.9862 158.93268 2507.9062 158.66602 z M 1240.0938 159.41406 C 1234.0271 159.3074 1228.279 164.48096 1228.3457 170.6543 C 1228.2924 181.82763 1228.3057 192.98682 1228.3457 204.16016 C 1228.079 210.32016 1233.7733 215.95969 1239.9199 215.67969 C 1265.2533 215.71969 1290.6003 215.57242 1315.9336 215.73242 C 1324.2269 215.79909 1333.6139 218.38716 1337.8672 226.17383 C 1343.7472 237.38716 1341.7727 250.49396 1341.666 262.64062 L 1341.666 478.74609 C 1341.7193 487.19943 1341.2006 495.74708 1342.9473 504.09375 C 1346.9873 525.42708 1363.1476 543.86625 1383.6543 550.90625 C 1402.0943 557.39958 1423.56 554.78763 1439.6934 543.6543 C 1455.9067 532.78763 1466.4526 514.08021 1467.1992 494.54688 C 1467.7726 462.60021 1466.84 430.6537 1467 398.70703 L 1467 253.35938 C 1466.96 243.57271 1466.3724 232.73271 1472.3457 224.35938 C 1477.3324 217.26604 1486.5997 215.74635 1494.6797 215.67969 C 1519.5864 215.62635 1544.4937 215.72062 1569.4004 215.64062 C 1575.5204 215.82729 1580.9343 210.09333 1580.6543 204 C 1580.6543 192.89333 1580.7336 181.76096 1580.627 170.6543 C 1580.6403 164.62763 1575.1329 159.50578 1569.2129 159.42578 C 1557.6796 159.23911 1546.1333 159.18763 1534.6133 159.6543 C 1513.6933 159.80096 1492.7472 159.22654 1471.8672 160.5332 C 1454.6672 161.87987 1436.4007 167.21299 1425.0273 180.98633 C 1412.4807 196.22633 1410.306 217.00068 1410.666 236.02734 C 1410.0127 280.02734 1410.4673 324.0394 1410.334 368.05273 C 1410.0673 407.81273 1410.7727 447.56031 1410.666 487.32031 C 1406.6527 487.33365 1402.6527 487.33365 1398.666 487.32031 C 1399.0927 443.53365 1399.0133 399.71992 1399 355.91992 C 1398.8533 314.19992 1399.333 272.46609 1398.6797 230.74609 C 1398.7064 219.07943 1397.2927 207.21424 1393.0527 196.26758 C 1388.4661 183.84091 1379.0129 173.33352 1366.9062 167.85352 C 1348.1329 158.94685 1326.8536 160.06763 1306.627 159.6543 C 1284.4403 159.9743 1262.2804 158.9874 1240.0938 159.41406 z M 2845.6348 210.63281 C 2888.2587 210.91573 2930.4725 230.86031 2957.1191 264.32031 C 2984.2125 297.20031 2995.2266 342.36008 2986.9199 384.08008 C 2979.3999 424.29341 2953.9998 460.74687 2918.7598 481.54688 C 2890.5064 498.53354 2856.3061 505.10716 2823.7461 500.17383 C 2781.6794 494.12049 2743.2663 467.87922 2721.9062 431.19922 C 2695.7729 387.71922 2694.8126 330.57247 2719.1992 286.11914 C 2740.5592 245.89247 2781.9867 216.89242 2827.3867 211.73242 C 2833.4484 210.95242 2839.5456 210.5924 2845.6348 210.63281 z "
       transform="scale(0.75)" />
  </g>
</svg>
