<?xml version="1.0" encoding="UTF-8" standalone="no"?>
<!-- Created by ERK -->

<svg
   width="2600pt"
   height="540pt"
   viewBox="0 0 2600 540"
   version="1.1"
   id="svg23"
   sodipodi:docname="crvision.svg"
   inkscape:version="1.4 (86a8ad7, 2024-10-11)"
   xmlns:inkscape="http://www.inkscape.org/namespaces/inkscape"
   xmlns:sodipodi="http://sodipodi.sourceforge.net/DTD/sodipodi-0.dtd"
   xmlns:xlink="http://www.w3.org/1999/xlink"
   xmlns="http://www.w3.org/2000/svg"
   xmlns:svg="http://www.w3.org/2000/svg">
  <defs
     id="defs27">
    <linearGradient
       id="linearGradient110405"
       inkscape:swatch="solid">
      <stop
         style="stop-color:#e4d47f;stop-opacity:1;"
         offset="0"
         id="stop110403" />
    </linearGradient>
    <linearGradient
       inkscape:collect="always"
       id="linearGradient47203">
      <stop
         style="stop-color:#87622e;stop-opacity:1;"
         offset="0"
         id="stop47199" />
      <stop
         style="stop-color:#deca77;stop-opacity:1"
         offset="1"
         id="stop47201" />
    </linearGradient>
    <linearGradient
       id="linearGradient47151"
       inkscape:swatch="solid">
      <stop
         style="stop-color:#87622e;stop-opacity:1;"
         offset="0"
         id="stop47149" />
    </linearGradient>
    <linearGradient
       inkscape:collect="always"
       xlink:href="#linearGradient47203"
       id="linearGradient110449"
       x1="1919.818"
       y1="159.45549"
       x2="1919.818"
       y2="293.48044"
       gradientUnits="userSpaceOnUse"
       gradientTransform="scale(0.75)" />
    <linearGradient
       inkscape:collect="always"
       xlink:href="#linearGradient47203"
       id="linearGradient110695"
       x1="1920.0801"
       y1="698.67969"
       x2="1920.0801"
       y2="301.16333"
       gradientUnits="userSpaceOnUse"
       gradientTransform="scale(0.75)" />
    <linearGradient
       inkscape:collect="always"
       xlink:href="#linearGradient47203"
       id="linearGradient1"
       gradientUnits="userSpaceOnUse"
       x1="1101.189"
       y1="509.72894"
       x2="1101.189"
       y2="395.27228"
       gradientTransform="scale(0.75)" />
  </defs>
  <sodipodi:namedview
     id="namedview25"
     pagecolor="#ffffff"
     bordercolor="#666666"
     borderopacity="1.0"
     inkscape:pageshadow="2"
     inkscape:pageopacity="0.0"
     inkscape:pagecheckerboard="true"
     inkscape:document-units="pt"
     showgrid="false"
     inkscape:zoom="0.47248963"
     inkscape:cx="1919.6189"
     inkscape:cy="322.75841"
     inkscape:window-width="3840"
     inkscape:window-height="2066"
     inkscape:window-x="-11"
     inkscape:window-y="-11"
     inkscape:window-maximized="1"
     inkscape:current-layer="svg23"
     inkscape:showpageshadow="2"
     inkscape:deskcolor="#d1d1d1" />
  <path
     id="path10"
     d="m 1244.4771,9.7075195 c -2.1022,0.036572 -4.5148,0.2233888 -7.065,1.0634765 l -0.2095,0.07031 -0.205,0.08496 c -5.7421,2.37259 -9.4668,7.956433 -9.2227,14.285156 -0.048,8.497182 -0.038,16.997778 0,25.491211 -0.2606,6.323136 3.3898,12.107891 9.416,14.405273 l 0.2622,0.09961 0.271,0.07324 c 4.7306,1.314059 8.3701,1.289275 10.5322,2.077148 l 0.072,0.0249 0.07,0.0249 c 4.1499,1.394247 7.6867,5.419416 9.8614,10.274414 3.0854,6.954388 4.7717,15.083867 7.4502,23.540042 12.4764,42.6381 25.9364,84.89024 38.7055,127.27734 25.8946,86.17922 50.6981,172.7675 77.5152,258.81445 l 0.01,0.0278 0.01,0.0278 c 2.7198,8.44598 7.1475,16.31389 13.0063,23.01123 11.1144,12.71205 27.8805,20.95314 45.4204,19.60107 11.2283,0.70292 22.1807,-2.59576 31.3667,-8.4331 13.1701,-8.22979 22.374,-21.49753 26.6675,-36.0044 26.4972,-85.19888 51.0967,-170.89447 76.7051,-256.21289 v -0.007 c 14.1902,-47.05419 29.188,-93.96814 42.81,-141.389651 v -0.0029 -0.0044 c 2.2478,-7.867528 4.951,-15.020443 10.0416,-18.708984 l 0.061,-0.04541 0.06,-0.04395 c 2.348,-1.792725 6.0348,-2.570247 10.6363,-3.133301 l -0.3692,0.03369 c 8.0634,-0.482735 13.9953,-7.344422 13.6245,-15.290039 l 0.01,0.295898 c 0.02,-8.699216 0.02,-17.410157 0,-26.109375 l -0.01,0.322266 c 0.4434,-8.637072 -6.5538,-15.658073 -15.1069,-15.4482423 -6.8155,-0.1436162 -13.6797,0.00742 -20.521,0.5800783 l -0.2329,0.02051 -0.2285,0.03662 c -18.0019,2.926855 -34.7296,15.12067 -41.105,32.925293 -5e-4,0.0014 0,0.003 0,0.0044 -3.8661,10.63509 -7.5909,21.35478 -11.0215,32.191406 v 0.0044 0.0015 c -12.4849,39.536811 -24.0416,79.277631 -36.0674,118.810541 v 0.0103 0.0102 c -26.1007,86.90227 -52.1489,173.81515 -78.5639,260.60889 l -0.043,0.14502 -0.038,0.14795 c -1.4792,5.9255 -4.2349,11.35917 -8.3218,15.07031 l -0.053,0.0498 -0.053,0.0483 c -0.2617,0.2492 -0.401,0.30124 -0.6416,0.45557 -3.4038,-2.47496 -6.1269,-6.68754 -7.941,-11.42871 C 1402.7245,363.44417 1374.0121,267.19181 1345.0356,171 v -0.0132 -0.0146 c -12.217,-39.8593 -23.425,-80.223413 -37.27,-119.937014 l -0.01,-0.01611 -0.01,-0.01465 c -2.3663,-6.670588 -4.687,-14.680155 -10.6201,-21.490723 -7.595,-9.115315 -18.0721,-15.649899 -29.6426,-18.385254 -6.4995,-1.6032151 -12.3666,-1.070509 -17.165,-1.3564453 l -0.211,-0.014648 -0.2124,0.00293 c -1.4949,0.016797 -3.3201,-0.088769 -5.4169,-0.052734 z M 1440.3779,529.98193 c -0.2661,-0.0167 -0.526,0.03 -0.7925,0.009 h 0.9581 c -0.056,0.005 -0.1095,-0.0131 -0.1656,-0.009 z m 699.605,-420.29882 c -9.1,-0.38599 -18.2357,0.011 -27.2725,1.20996 -26.8463,3.58368 -52.5224,14.47853 -73.916,30.96679 -27.0641,20.64653 -47.3507,50.12914 -56.2046,83.146 -6.8508,24.9944 -6.4887,51.3753 -1.289,76.30078 v 0.004 0.003 c 7.1237,33.92329 25.5904,65.56463 52.8354,87.43799 28.0064,22.87037 64.0773,34.35138 99.8174,34.26563 37.1815,0.34427 74.1915,-12.77633 102.7617,-36.61084 25.9464,-21.40649 44.7009,-51.51715 51.523,-84.65625 v -0.0103 -0.0117 c 6.1587,-30.49124 2.6844,-62.45674 -8.2925,-91.26563 v -0.007 -0.009 c -12.0405,-31.31758 -34.0848,-58.71154 -62.5518,-76.67725 -23.1209,-14.75234 -50.1135,-22.92882 -77.4052,-24.08642 z m 208.8399,0.104 c -2.703,0.14897 -5.3928,0.51891 -8.0391,1.1001 -10.5443,2.1548 -21.0865,7.01057 -28.7432,15.60351 -6.8149,7.5834 -10.6111,17.07258 -12.2651,26.54444 -2.0655,11.24792 -1.0844,21.99536 -1.2759,31.86914 v 0.0425 0.0454 c -0.2003,42.74316 0.3803,85.40635 0.2505,128.00976 -0.11,16.45434 0.3021,32.72578 -0.078,48.84522 -0.017,0.28816 -0.9171,1.23612 -1.4707,1.31103 -2.3246,0.24339 -5.5538,-0.14852 -9.627,0.19336 -7.7489,0.45903 -13.9723,6.79886 -13.5674,14.85938 l -0.01,-0.30615 c -0.01,9.05058 -0.019,18.0974 0.01,27.16406 l 0.01,-0.25489 c -0.2172,5.53863 2.8079,10.36543 7.4898,12.88331 4.5409,2.6735 8.6113,1.75447 10.1997,1.83544 l 0.041,0.003 h 0.041 c 12.3984,0.46192 25.9619,-0.84909 37.793,-7.79003 14.6988,-8.3731 22.7392,-24.47181 23.562,-40.5 v -0.0527 -0.0527 c 0.6675,-19.87369 0.2239,-39.6063 0.353,-59.15039 v -0.0234 -0.0234 c -0.03,-23.91157 0.128,-47.88466 -0.252,-71.90771 v -0.0806 c -0.048,-20.38943 10e-4,-40.82789 -0.063,-61.27295 7.5095,18.85963 15.0827,37.63893 22.0546,56.55469 v 0.006 0.004 c 19.3024,52.04638 38.6886,104.04532 57.6578,156.17578 l 0.039,0.10694 0.043,0.1084 c 5.9658,14.62481 18.5807,25.97517 33.7017,30.46582 0,5.9e-4 0,0.002 0.01,0.003 16.3759,4.94011 34.8303,1.7525 48.3501,-9.05567 12.9302,-9.99531 20.5248,-25.84726 20.4683,-42.12012 v -0.003 c -0.1099,-28.96276 0.05,-57.94093 0.2402,-86.92675 v -0.0205 -0.0205 c 0,-35.97892 0.011,-71.95983 -0.01,-107.95312 v -0.0352 -0.0381 c -0.03,-2.41442 0.5226,-3.64096 0.7618,-3.81738 0.6577,-0.43997 1.5375,-0.67015 3.3867,-0.68555 1.7238,-0.0144 4.1613,0.20732 6.9521,0.0659 8.2766,0.41859 15.4852,-6.06505 15.3794,-14.60156 0.1071,-7.73007 -0.045,-15.32653 0.051,-22.78564 v -0.003 c 0.045,-1.81783 0.1499,-4.17337 -0.356,-6.86573 -0.4989,-2.65512 -1.809,-5.83758 -4.5161,-8.18408 -3.3651,-3.05656 -7.5749,-3.78502 -10.6714,-3.87012 -3.1261,-0.0859 -5.6103,0.17398 -6.9917,0.0205 l -0.1743,-0.019 -0.1743,-0.007 c -15.9119,-0.83803 -34.6258,2.47106 -46.3008,16.59668 l -0.01,0.0146 -0.013,0.0132 c -12.5522,15.36183 -13.496,35.33692 -13.3125,52.30078 -0.4,58.15633 -0.2291,116.29102 -0.2593,174.39404 -7.1347,-16.48844 -12.8554,-33.82108 -19.3843,-51.14941 -19.2455,-52.6074 -38.3673,-105.27997 -57.7837,-157.85743 v -0.004 c -5.2405,-14.26511 -14.9891,-27.86741 -29.5972,-34.99072 -7.4708,-3.64891 -15.7544,-5.15986 -23.9004,-4.71094 z m -1516.63481,2.87695 c -12.27108,-0.65118 -25.06189,1.71067 -35.88135,8.81836 -0.002,10e-4 -0.004,0.003 -0.006,0.004 -13.7631,8.96681 -21.79802,23.42121 -26.86523,37.45605 l -0.001,0.006 -0.003,0.009 c -22.70232,63.35665 -45.27785,126.72994 -68.47412,189.85254 l -0.019,0.0527 -0.0176,0.0527 c -2.42287,6.99198 -5.44487,13.40912 -10.04736,17.61621 l -0.10694,0.0967 -0.10254,0.10254 c 0.17366,-0.17478 -0.19481,0.13549 -1.64209,0.14941 h -0.0601 l -0.0615,0.003 c -37.95367,1.13742 -75.88636,1.45292 -113.68066,-0.36621 l -0.0747,-0.003 -0.0747,-0.003 c -2.82695,-0.0659 -5.19238,-0.60389 -6.71484,-1.6084 l -0.0527,-0.0351 -0.0542,-0.0352 c -4.21965,-2.65811 -7.13682,-7.95309 -8.8667,-13.86768 -1.91742,-7.23155 -2.32658,-14.9095 -0.71485,-21.89648 l 0.006,-0.0176 0.004,-0.0176 c 0.47306,-2.11123 2.44768,-3.75879 4.45312,-3.71484 l 0.10254,0.001 h 0.10401 c 25.0623,-0.31763 50.40475,0.44659 75.93896,-0.7749 10e-4,-5e-5 0.003,5e-5 0.004,0 14.90503,-0.58565 31.19707,-5.45739 41.66162,-18.27392 8.1676,-9.80466 11.19685,-22.4455 10.82226,-34.3711 -0.12496,-12.91132 -4.05911,-26.75342 -14.20312,-36.49804 -10.18469,-10.23469 -24.32274,-14.04567 -37.38575,-14.59717 l -0.0879,-0.001 -0.0864,-0.003 c -22.47394,-0.30261 -44.69407,0.47101 -66.6167,-0.6709 l -0.10254,-0.007 -0.0996,-0.001 c -3.95323,-0.0731 -8.08891,-1.6252 -11.61035,-4.13819 -1.96162,-1.45927 -2.82227,-2.62215 -2.9209,-3.1289 l -0.0352,-0.17579 -0.0439,-0.17431 c -1.96832,-7.6375 -2.31274,-15.55877 0.2168,-22.19678 l 0.0117,-0.0293 0.009,-0.0293 c 2.15991,-5.85041 7.04848,-10.78745 12.9375,-13.40479 l 0.0571,-0.0249 0.0542,-0.0264 c 8.74858,-4.10376 19.63213,-3.70037 31.19531,-3.78222 h 0.0439 l 0.0425,-0.003 c 24.20859,-0.5172 48.49573,-0.23718 72.84229,0.003 l -0.60059,-0.0381 c 8.87313,0.98198 16.8129,-6.10663 16.35205,-15.2168 l 0.009,0.32666 c 0.0301,-8.0599 0.02,-16.11323 0,-24.1582 l -0.004,0.22412 c 0.23205,-6.65766 -3.95976,-12.36432 -10.16162,-14.36719 l -0.063,-0.0205 -0.0645,-0.0176 c -4.03122,-1.20455 -7.30121,-0.72051 -9.35156,-0.76026 l -0.063,-0.001 h -0.0601 c -30.98959,0.04 -61.98778,-7.9e-4 -92.9956,0.019 h -0.15528 l -0.15234,0.007 c -21.21542,1.09698 -43.57561,9.09902 -57.66357,26.88574 -15.00679,18.73652 -18.66075,43.0336 -18.26221,65.13428 -0.11572,14.94268 1.32458,32.56924 13.06494,45.69287 l 0.0103,0.0117 0.0117,0.0117 c 7.48422,8.27864 17.14046,12.89277 27.1084,15.59766 -7.76986,1.68677 -15.31985,4.976 -21.55371,10.40332 -6.65878,5.71313 -11.06344,13.32884 -13.54102,21.27832 -2.5e-4,7.9e-4 -0.003,0.002 -0.003,0.003 -3.65588,11.55315 -5.61113,23.74402 -5.3584,36.00586 -0.14385,20.72292 5.9765,42.39555 20.47851,58.4707 10.69881,11.99511 25.476,19.48867 40.87061,22.37403 11.88137,2.45707 23.34844,1.69772 33.93164,2.12988 l 0.14062,0.006 0.13916,-0.001 c 23.18785,-0.12927 46.51835,0.24945 69.9375,-0.26953 10.56618,0 21.31699,0.17518 32.22217,-0.43066 l 0.0703,-0.004 0.0718,-0.006 c 12.91136,-1.02489 25.87112,-6.46226 34.70947,-16.81347 8.59167,-9.36451 11.63693,-20.9368 15.31202,-30.45557 l 0.009,-0.022 0.007,-0.019 c 8.62027,-22.83194 16.85021,-45.77937 24.99609,-68.74366 0.68196,6.39333 2.48573,12.67359 5.49317,18.44532 7.10577,13.99878 20.53253,24.37496 36.00879,27.48779 6.66707,1.52232 12.83653,1.02381 18.14648,1.0708 h 0.022 0.022 c 18.99407,0.03 37.96472,-0.0617 56.90332,0.0381 2.19342,0.0129 4.376,0.26387 5.88574,0.77929 1.50975,0.51542 2.20545,1.04673 2.74512,2.00244 l 0.0146,0.0249 0.0147,0.0264 c 6.85375,11.86599 9.11374,27.77095 18.64893,42.01172 0.002,0.003 0.004,0.004 0.006,0.007 0.002,0.003 0.004,0.007 0.006,0.0103 8.23038,12.36379 21.53756,22.11451 37.22021,23.54443 l 0.23145,0.022 0.23291,0.001 c 7.42947,0.1015 14.7645,10e-4 22.00781,0.041 l -0.27539,-0.007 c 5.19952,0.26705 10.76761,-1.90286 13.87793,-6.99609 2.95177,-4.44814 2.15307,-8.7836 2.18994,-10.6582 l 10e-4,-0.0996 -10e-4,-0.0996 c -0.0978,-7.19116 0.0411,-14.50939 -0.0483,-21.94483 0.0183,-8.27598 -6.82144,-14.40742 -14.80957,-14.17382 -3.00548,-0.1781 -5.62133,0.0619 -7.5249,0.0322 -2.02707,-0.0317 -3.07934,-0.28446 -3.93311,-0.86719 l -0.25195,-0.17138 -0.2666,-0.14502 c -5.098,-2.7701 -7.41733,-9.8533 -9.74121,-17.88574 l 0.0366,0.13476 c -3.19066,-12.07001 -8.34848,-24.53455 -17.896,-34.18799 -7.9153,-8.06948 -18.3257,-13.12441 -29.20898,-15.01318 -11.18195,-2.21452 -21.65482,-0.71889 -31.00196,-0.92432 l -0.0732,-10e-4 h -0.0718 c -0.0883,1.8e-4 -0.17829,-1.7e-4 -0.2666,0 1.65049,-0.4657 3.30101,-0.94692 4.94532,-1.55274 12.01161,-4.24187 23.1019,-12.86739 28.333,-25.41211 6.18562,-14.50194 4.27579,-30.33426 -0.0996,-43.89697 l -0.009,-0.019 -0.006,-0.0205 c -6.56742,-19.89349 -13.72244,-39.5711 -21.30469,-59.06396 l -0.007,-0.022 -0.0103,-0.0234 c -4.08648,-10.2603 -7.89538,-21.52407 -15.01172,-31.71973 -7.3685,-11.14044 -18.76689,-19.83139 -32.27783,-22.74463 l -0.007,-0.001 -0.009,-0.003 c -3.93217,-0.83779 -7.97839,-1.38972 -12.07178,-1.60694 z m 817.42381,0.30323 c -2.01,0.0155 -4.3109,0.13666 -6.7822,0.81591 l -0.066,0.0191 -0.066,0.0205 c -6.3533,1.9042 -10.5378,7.78578 -10.1983,14.43311 l -0.01,-0.30469 c 0.01,92.69 0.02,185.37991 0,278.07862 l 0.01,-0.29883 c -0.284,5.68439 2.7135,10.90135 7.8589,13.4707 4.7881,2.51923 9.1271,1.75392 11.4624,1.81641 l 0.1274,0.003 0.1275,-10e-4 c 6.7987,-0.10609 13.8405,0.11585 21.0849,-0.0923 8.2366,0.011 15.0304,-6.64538 14.8184,-15.03809 0.06,-92.30434 -0.01,-184.60246 0.029,-276.89648 l -0.029,0.58007 c 0.7895,-8.0839 -4.9261,-15.67711 -13.3594,-16.38281 l -0.1582,-0.0117 -0.1567,-0.006 c -8.287,-0.25754 -16.5151,-0.22339 -24.6621,-0.20507 h -0.018 z m 282.9844,0.006 c -2.0226,0.0302 -4.3364,0.18269 -6.8086,0.91407 l -0.2388,0.0703 -0.2329,0.0894 c -5.6046,2.17776 -9.9329,7.51844 -9.5464,14.23681 l -0.01,-0.3457 c -0.02,92.6713 -0.01,185.35295 0,278.02295 l 0.012,-0.36914 c -0.5411,8.80193 6.7752,15.59185 15.2153,15.3457 l -0.2622,10e-4 c 8.5012,0.12102 16.9996,0.0918 25.4634,0.0117 l -0.293,-0.006 c 8.4575,0.3327 15.8569,-6.46388 15.356,-15.28418 l 0.01,0.33985 c -0.01,-92.65956 -0.01,-185.32115 0,-277.99072 l -0.01,0.33252 c 0.451,-8.15645 -5.8371,-14.83031 -13.8501,-15.20508 l -0.075,-0.004 -0.073,-10e-4 c -8.2235,-0.18011 -16.4243,-0.18792 -24.5874,-0.15821 h -0.035 z m -717.0161,0.0147 -0.031,0.003 c -1.6734,0.038 -3.5886,0.17123 -5.6528,0.72071 l -0.098,0.0249 -0.095,0.0293 c -6.2229,1.88256 -10.7472,7.54187 -10.4385,14.42431 l -0.01,-0.26953 c -0.02,92.70086 -0.02,185.40998 0,278.11084 l 0.01,-0.30029 c -0.3448,6.89221 4.1661,12.60284 10.4209,14.50195 l 0.082,0.0249 0.084,0.022 c 3.7506,1.02147 6.8691,0.70523 9.06,0.73974 h 0.1011 0.098 c 6.7607,-0.11558 13.7988,0.13936 21.0791,-0.11279 8.1043,-0.0864 14.902,-6.64644 14.5429,-15.06299 l 0.01,0.25781 c 0.02,-92.73086 0.02,-185.46201 0,-278.19287 l -0.01,0.26953 c 0.3769,-8.47272 -6.5072,-15.06301 -14.6572,-15.09814 -8.0853,-0.0678 -16.2439,-0.18991 -24.4629,-0.0923 z m 665.4316,0.0103 -0.1802,0.003 c -32.7735,0.53792 -65.6786,0.0385 -98.6733,0.31933 h -0.088 l -0.088,0.004 c -18.5946,0.70289 -37.1438,6.72271 -52.1645,18.19482 -8e-4,5.6e-4 0,0.002 0,0.003 -30.5705,23.05646 -43.1458,66.03072 -29.9326,101.94434 6.9658,19.52126 20.7101,36.40618 38.4213,47.17675 13.1977,8.16377 28.4068,12.05114 43.459,12.75586 12.9941,0.96573 25.2494,-0.31828 36.627,0.9961 10.1024,1.29767 19.9199,5.351 26.2427,12.50683 v 0.006 l 0.01,0.004 c 8.8299,9.94818 10.2934,26.05838 4.6905,38.31445 -3.7388,8.14975 -11.9605,14.1721 -21.0279,16.62158 l -0.104,0.0293 -0.101,0.0308 c -8.5853,2.65022 -18.4861,1.98829 -29.1578,2.0918 -28.6706,0.0199 -57.3651,-0.0407 -86.0551,0.0293 l 0.2856,0.006 c -8.5717,-0.38804 -15.4773,6.5647 -15.3735,14.99707 v 10e-4 c -0.079,8.21793 -0.1331,16.50414 0.034,24.82031 -0.096,8.54403 7.1294,15.34035 15.6811,14.64697 l -0.476,0.019 c 32.2914,-0.04 64.5989,-0.01 96.9038,-0.019 h 0.101 l 0.1011,-0.004 c 11.088,-0.37553 23.0914,-0.34914 35.0361,-4.09424 28.297,-8.35843 51.1202,-31.57146 59.2691,-59.85351 5.128,-17.37997 3.6856,-35.74726 -1.2554,-52.41358 v -0.006 -0.009 c -5.0363,-16.83965 -15.0848,-32.18734 -29.0683,-43.1206 l -0.01,-0.004 c -15.1389,-11.94669 -34.0299,-18.00448 -52.8076,-18.94921 -12.0487,-0.62903 -23.6731,-0.0911 -34.7857,-0.99463 -11.2688,-1.02756 -22.4105,-5.40273 -29.2661,-13.5542 l -0.019,-0.0234 -0.019,-0.022 c -8.4123,-9.80463 -9.4298,-25.30308 -4.0297,-37.32422 v -0.0103 -0.009 c 3.9296,-8.83128 12.1258,-15.84811 21.4672,-18.79981 l 0.047,-0.0147 0.048,-0.0161 c 6.0908,-2.03885 12.9456,-2.47194 20.0668,-2.28076 l 0.078,0.001 h 0.081 c 31.0139,0.01 62.0215,-0.0102 93.0263,0.0103 l -0.4863,-0.019 c 8.0658,0.66199 15.7826,-5.29665 15.8701,-13.98633 0.2717,-7.22689 -0.01,-14.19615 0.1289,-20.87402 v -0.0352 -0.0366 c 0.03,-3.66116 0.421,-10.27363 -4.916,-15.02343 -3.1445,-2.90671 -7.0682,-3.80196 -10.1162,-4.00782 -3.08,-0.20801 -5.6483,0.0506 -7.3037,-0.022 z m -1689.76756,0.29004 v 0.001 c -5.14844,0.0503 -10.31848,0.18509 -15.51123,0.46875 l -0.0161,10e-4 h -0.0132 c -32.14189,1.91595 -62.91475,15.3506 -87.070309,36.17578 -26.315536,22.52552 -45.295057,54.07149 -50.740723,88.69336 l -0.0059,0.0278 -0.0044,0.0293 c -6.577524,44.65247 4.966012,92.35757 34.239258,127.47216 0.0042,0.005 0.0075,0.0111 0.01172,0.0161 19.795853,24.12986 47.828914,41.35131 78.587404,47.40234 l 0.0103,10e-4 0.0117,0.003 c 35.55006,6.86575 71.36874,5.24187 106.24218,5.41993 11.91575,0.11108 24.99813,-0.0842 37.38868,-5.3086 10.32475,-4.11126 18.19485,-12.68647 21.92285,-22.90429 6.22962,-16.48582 4.82609,-33.4792 4.96289,-48.73243 l -0.006,0.21241 c 0.44268,-9.94495 0.17707,-19.6915 0.24609,-29.2251 v -0.0249 -0.0278 c -0.012,-7.55681 0.0212,-15.10646 0.022,-22.66113 0.13704,0.29446 0.23178,0.60115 0.375,0.89356 7.22987,15.17821 21.77602,25.96063 38.10791,29.08007 l 0.0366,0.009 0.0366,0.006 c 14.44026,2.56905 28.47502,1.5984 41.64697,2.22657 h 0.001 c 5.72771,0.27107 11.25981,1.75982 15.27832,4.78125 l 0.019,0.0146 0.019,0.0147 c 3.87233,2.86247 6.60707,7.70591 7.90723,13.00196 3.10086,13.60301 -0.0972,30.17022 6.03515,47.05371 4.50356,13.29186 14.56849,24.51483 27.78077,29.87695 11.55016,4.92248 23.62925,4.71293 34.44726,4.40039 h 0.022 l 0.0205,-0.001 c 7.89199,-0.28504 14.56074,-6.7379 13.99072,-15.10401 l 0.0132,0.38672 c -0.0299,-8.28643 0.0311,-16.63301 -0.0293,-25.021 l -0.001,0.17579 c 0.13295,-5.98274 -3.56976,-10.5538 -8.10352,-12.85401 l -0.0352,-0.0176 -0.0366,-0.0176 c -2.8872,-1.41583 -5.62466,-1.48228 -7.56152,-1.48389 -1.73909,-0.001 -2.76227,-0.0192 -3.3999,-0.10547 -2.39468,-0.91843 -4.39025,-2.78335 -5.01123,-4.78272 l -0.009,-0.0234 -0.006,-0.022 c -1.30119,-4.07515 -0.7782,-9.58627 -1.27149,-16.229 -1.0895,-17.69525 -6.21072,-35.93562 -17.82861,-50.48437 -10.62881,-13.60442 -26.11178,-22.49429 -42.47461,-26.3584 -0.45619,-0.11574 -0.90915,-0.14414 -1.36523,-0.25196 0.56373,-0.13765 1.12606,-0.22719 1.69043,-0.37939 19.25282,-4.76448 36.8928,-16.79789 47.13427,-34.2876 10.51643,-17.57816 12.42863,-38.66936 8.85938,-57.93457 -2.94805,-16.92706 -11.39171,-33.25196 -25.19385,-44.354 -14.03927,-11.54328 -31.91064,-16.64905 -49.23633,-17.40235 h -0.0249 l -0.0234,-0.001 c -11.41304,-0.4008 -22.87037,-0.71313 -34.38867,-0.63281 h -0.0249 c -13.68432,-0.0302 -28.05012,-0.18537 -42.40283,3.21386 -15.27335,3.48569 -30.24847,10.9354 -40.99219,23.31885 -11.72531,13.3393 -17.20066,30.49819 -19.00928,47.16797 -1.41011,11.16117 -0.40076,21.69202 -0.98291,31.41943 l -0.0102,0.16993 v 0.17285 c -0.12007,40.03392 -0.002,80.08259 0.479,120.11865 l 0.004,-0.31201 c -0.36262,9.03131 0.95884,16.38429 -1.49707,21.62402 l -0.0176,0.0352 -0.0147,0.0351 c -1.01528,2.24227 -3.91142,4.02079 -7.1294,4.37403 -6.34617,0.62206 -13.45053,-0.20506 -21.23437,-0.0864 -17.42556,-0.42096 -34.72868,-0.3645 -51.90381,-0.86719 -12.99683,-0.65427 -25.89003,-3.80218 -37.6084,-9.35595 l -0.006,-10e-4 -0.003,-0.001 c -18.36695,-8.66702 -33.87546,-23.43205 -43.40332,-41.36133 l -0.007,-0.0161 -0.0102,-0.0176 C 92.623861,294.59225 88.801239,271.32277 92.438965,249.41162 v -0.003 -0.004 C 96.123363,227.01693 108.3275,206.05944 125.71289,191.4305 l 0.0132,-0.0117 0.0161,-0.0117 c 15.75357,-13.42388 35.92686,-21.69085 56.57666,-23.20313 21.42408,-0.87649 42.99834,-0.68363 64.69482,-0.71338 8.08394,0.0362 14.4668,-6.44001 14.4668,-14.46093 0.0698,-8.07218 -4.4e-4,-16.08428 0.0293,-24.03662 l -0.0161,0.42334 c 0.48834,-6.5751 -3.35083,-12.544 -9.46435,-14.88868 l -0.2461,-0.0937 -0.25195,-0.0718 c -5.87671,-1.68108 -10.82835,-0.70478 -14.21484,-0.85547 l -0.18164,-0.009 -0.18164,0.004 c -10.01516,0.16257 -20.12758,-0.0519 -30.33252,-0.16992 -5.1023,-0.059 -10.22803,-0.0942 -15.37647,-0.0439 z m 738.90234,0.27539 c -8.01361,-0.12513 -14.97773,6.11212 -14.8872,14.4917 -0.0394,8.37288 -0.0299,16.72641 0,25.08545 l 0.006,-0.27833 c -0.3665,8.46533 6.5104,15.27594 14.94726,14.89161 l -0.28271,0.006 c 19.02636,0.03 38.02395,-0.08 56.97217,0.0395 4.98686,0.0401 9.50821,1.62554 11.20312,4.67138 3.22858,6.21361 2.22958,14.76106 2.14448,24.45703 v 0.0278 162.12304 0.019 c 0.038,6.05463 -0.43302,12.87269 1.0811,20.15039 3.4741,18.21907 16.9647,33.59212 34.4428,39.60058 15.6626,5.50624 33.5939,3.3424 47.3687,-6.14648 13.7873,-9.25597 22.6166,-24.91786 23.2529,-41.56348 v -0.0601 -0.0601 c 0.4334,-24.14846 -0.2687,-48.1343 -0.1494,-71.95751 v -0.0161 -109.03711 -0.0132 c -0.031,-7.56205 -0.056,-14.10473 2.8945,-18.24024 l 0.013,-0.0176 0.012,-0.0161 c 1.9604,-2.78867 6.5446,-3.91684 11.8902,-3.96093 18.6446,-0.0398 37.315,0.0307 56.0112,-0.0293 l -0.2021,-10e-4 c 8.4402,0.25743 14.9969,-6.71924 14.6162,-15.00439 l 0.01,0.27539 c 0,-8.27863 0.059,-16.6237 -0.019,-24.99609 0.018,-8.18281 -6.6305,-14.32703 -14.48,-14.43311 -8.6918,-0.14055 -17.4588,-0.18129 -26.2734,0.17578 l 0.2006,-0.006 c -15.5521,0.10904 -31.373,-0.3301 -47.392,0.67237 l -0.047,10e-4 -0.047,0.004 c -13.7993,1.08042 -29.2329,5.32616 -39.2871,17.50195 v 10e-4 0.004 c -6.0405,7.3372 -9.047,15.88956 -10.6157,24.57275 -0.719,-3.83977 -1.6758,-7.66625 -3.1187,-11.40381 -3.9867,-10.77842 -12.1101,-19.83967 -22.7212,-24.65332 -15.8231,-7.48101 -32.74843,-6.39545 -47.58977,-6.69873 l -0.10547,-0.003 -0.10547,0.003 c -16.34212,0.2357 -32.90758,-0.49577 -49.73584,-0.18017 z m 1204.03272,50.41113 h 0.01 c 30.1227,0.19994 60.1759,14.41564 78.9609,38.00391 l 0.032,0.0395 0.031,0.0395 c 19.1129,23.19504 26.9649,55.35144 21.0952,84.83203 l -0.01,0.0337 -0.01,0.0352 c -5.3117,28.40442 -23.3983,54.35345 -48.2725,69.03515 l -0.019,0.0132 -0.022,0.0117 c -19.9433,11.99047 -44.2443,16.66771 -67.2685,13.1792 l -0.024,-0.001 -0.02,-0.004 c -29.6402,-4.26516 -56.9776,-22.92788 -72.0498,-48.81005 l -0.021,-0.0381 -0.022,-0.0352 c -18.4376,-30.67607 -19.1268,-71.45283 -1.9116,-102.83349 l 0.019,-0.0352 0.019,-0.0366 c 15.0732,-28.38683 44.567,-49.00923 76.5176,-52.64062 l 0.045,-0.006 0.045,-0.006 c 4.273,-0.54983 8.5751,-0.80493 12.8789,-0.77637 z m -1776.06738,5.55762 c 14.39256,0.0811 28.90509,0.71946 43.54834,1.05175 5.8541,0.30746 11.38067,1.6578 15.14209,4.66407 l 0.0351,0.0278 0.0352,0.0278 c 3.20464,2.48466 5.47524,6.50656 6.31933,10.83545 l 0.007,0.041 0.009,0.0395 c 1.47877,7.07389 0.88404,14.58506 -2.64112,19.91015 l -0.007,0.0103 -0.009,0.0117 c -2.97276,4.53437 -8.65442,7.58665 -14.82861,8.98974 h -10e-4 c -15.94841,3.52953 -35.22807,-2.12433 -55.17041,4.62891 -12.62756,3.98592 -23.41735,13.21963 -28.88086,25.50732 0.099,-15.0667 0.20937,-30.13174 0.46875,-45.1875 0.31473,-9.63254 2.02989,-19.04384 8.05664,-24.14941 6.7608,-5.53773 17.10141,-6.11777 27.917,-6.40869 z m 469.8706,2.46826 c 2.45401,2.3111 4.76265,4.47437 6.4585,6.61084 l 0.0176,0.022 0.0176,0.0234 c 1.54043,1.90249 2.7508,4.83773 4.28614,8.39209 6.88782,16.0237 12.78408,32.66798 19.32568,49.26562 1.49111,4.18466 2.20488,7.41902 1.5044,9.34571 -0.44101,0.83215 -2.29376,1.81648 -4.95118,2.01562 l -0.0161,0.001 -0.0161,0.003 c -10.36719,0.83349 -21.47747,-0.2328 -33.20655,0.60498 l -0.13623,0.0103 -0.13769,0.0176 c -11.6172,1.36763 -22.37271,6.84668 -30.54785,14.98828 9.6112,-27.31925 19.23254,-54.61105 29.2705,-81.71484 1.34067,-3.11357 4.56015,-6.13153 8.13135,-9.58594 z m -47.47705,105.24902 c -0.009,0.0183 -0.0143,0.0388 -0.0234,0.0571 -0.006,0.0116 -0.0134,0.0221 -0.019,0.0337 z"
     inkscape:label="Outline"
     style="opacity:0.65;fill:#000000" />
  <g
     id="g1"
     inkscape:label="Logo">
    <path
       id="path8"
       style="display:inline;fill:url(#linearGradient1);fill-opacity:1;stroke:#deca77;stroke-width:3;stroke-miterlimit:4;stroke-dasharray:none;stroke-opacity:1"
       d="m 1649.6573,118.96582 c -1.77,0.0137 -3.5269,0.13351 -5.2369,0.60351 -3.57,1.07001 -6.1197,4.66038 -5.9297,8.38038 0.01,92.69 0.02,185.38008 0,278.08008 -0.1599,3.19999 1.6994,6.41984 4.5894,7.83984 2.72,1.46 5.9104,1.0699 8.9004,1.14991 7.05,-0.11001 14.1201,0.12063 21.1802,-0.0894 4.71,0.01 8.9398,-4.14013 8.8198,-8.89013 0.06,-92.35 -0.01,-184.70029 0.029,-277.05029 0.46,-4.71 -3.1096,-9.42032 -7.8896,-9.82031 -8.1474,-0.25319 -16.3096,-0.22195 -24.4629,-0.20362 z m 283.0283,0.006 c -1.76,0.0263 -3.5058,0.16796 -5.1959,0.66796 -3.3199,1.29 -5.9404,4.64981 -5.7304,8.29981 -0.02,92.67 -0.01,185.35002 0,278.02002 -0.3,4.87999 4.2513,9.12095 9.0513,8.98096 8.43,0.12 16.8798,0.0902 25.3198,0.0103 4.83,0.19 9.4089,-4.02019 9.1289,-8.9502 -0.01,-92.65999 -0.01,-185.32071 0,-277.99072 0.2499,-4.52 -3.6487,-8.66988 -8.1387,-8.87988 -8.1405,-0.17829 -16.2911,-0.18781 -24.435,-0.15817 z m -717.0015,0.0161 c -1.4313,0.0325 -2.8537,0.15149 -4.2437,0.52149 -3.57,1.08 -6.3501,4.62113 -6.1801,8.41113 -0.02,92.7 -0.02,185.40938 0,278.10938 -0.1901,3.79999 2.5799,7.37093 6.1699,8.46094 2.46,0.66999 5.0391,0.4888 7.5791,0.52881 7.02,-0.12001 14.0611,0.14012 21.1011,-0.10987 4.6099,-0.04 8.8294,-4.11957 8.6293,-8.80957 0.02,-92.73 0.02,-185.45995 0,-278.18994 0.21,-4.72 -4.0494,-8.81029 -8.6894,-8.83029 -8.1188,-0.068 -16.2463,-0.18854 -24.3662,-0.0921 z m -1009.13234,0.34425 c -10.16625,-0.11751 -20.33219,-0.13752 -30.49219,0.41748 -30.7,1.83 -60.29927,14.71998 -83.509277,34.72997 -25.3,21.65 -43.530957,52.02105 -48.730957,85.08105 -6.34,43.04001 4.860898,89.12003 32.920897,122.77002 18.920002,23.08001 45.809157,39.58889 75.139167,45.3589 34.64,6.68999 70.08113,5.13006 105.16113,5.31005 11.8,0.11 24.03982,-0.18888 35.06982,-4.85889 8.63001,-3.42 15.39957,-10.75115 18.55957,-19.43115 5.64,-14.89 4.44936,-31.09947 4.58936,-46.70947 0.43,-9.66 0.17023,-19.32951 0.24024,-28.99952 -0.06,-37.69999 -0.01,-75.40032 0.64013,-113.09032 0.33,-10.15001 1.96996,-21.63057 10.20996,-28.58057 8.8,-7.24 20.85068,-7.51029 31.70068,-7.8003 14.63,0.08 29.2599,0.73055 43.8999,1.06055 6.53,0.34001 13.36913,1.79071 18.59912,5.9707 4.54001,3.52001 7.44126,8.84018 8.53125,14.43019 1.71,8.17999 1.20877,17.3197 -3.51123,24.4497 -4.14999,6.33 -11.34931,9.92908 -18.54931,11.55908 -17.98,3.98 -36.93938,-1.53929 -54.60938,4.4707 -11.61999,3.65001 -21.60027,12.4704 -26.03027,23.9004 -4.94,12.47999 -5.05008,27.08902 0.91992,39.24902 6.34,13.33 19.3791,23.03004 33.8291,25.79004 13.49001,2.4 27.25086,1.49013 40.88086,2.14014 6.55001,0.30999 13.27913,1.97949 18.59912,5.97948 5.33001,3.94001 8.63067,10.09141 10.18067,16.44141 3.5,15.28 0.41059,31.52873 5.85058,46.44873 3.95001,11.72 12.92971,21.69082 24.44971,26.34082 10.07,4.30001 21.21971,4.24018 31.94971,3.93018 4.43,-0.16 8.52924,-4.14971 8.21923,-8.69971 -0.03,-8.33 0.0307,-16.67049 -0.0293,-25.00049 0.07,-3.15 -2.09933,-5.98963 -4.81934,-7.36963 -3.12,-1.53 -6.69093,-0.4206 -9.96093,-1.1206 -4.15,-1.41 -7.77961,-4.60937 -9.09961,-8.85938 -1.82,-5.7 -1.09955,-11.7799 -1.53956,-17.6499 -1.02999,-16.81 -5.91126,-33.8609 -16.55127,-47.17089 -9.66999,-12.39 -23.98896,-20.6705 -39.18896,-24.2505 -15.21,-3.87 -31.03031,-2.94909 -46.57031,-3.0791 v -6.49072 c 15.61,-0.41 31.53029,1.44054 46.80029,-2.68945 17.82,-4.39001 34.15975,-15.58955 43.48975,-31.53956 9.6,-16.02999 11.47963,-35.68077 8.11963,-53.80077 -2.72001,-15.68001 -10.57008,-30.72979 -23.08008,-40.77979 -12.77,-10.51 -29.37899,-15.35054 -45.70899,-16.06055 -11.39,-0.39999 -22.77015,-0.70988 -34.16015,-0.62988 -13.73,-0.03 -27.64033,-0.12994 -41.09033,3.06006 -14.3,3.26 -28.11959,10.22041 -37.8296,21.42041 -10.65999,12.12 -15.86079,28.09041 -17.57079,43.92041 -1.31001,10.31 -0.32922,20.71959 -0.94923,31.07959 -0.12,40.01 -7.5e-4,80.0293 0.47901,120.02929 -0.32,7.97001 1.46043,16.42116 -2.05957,23.93116 -2.11,4.66 -7.03949,7.33914 -11.97949,7.86914 -7.3,0.72 -14.64094,-0.19006 -21.96094,-0.0601 -17.36,-0.42 -34.71933,-0.36012 -52.06934,-0.87012 -13.77,-0.69 -27.43087,-4.01871 -39.90088,-9.92871 -19.56,-9.23 -35.98965,-24.87022 -46.139643,-43.97022 C 86.68962,296.2306 82.659502,271.6803 86.519505,248.4303 c 3.929992,-23.88 16.850565,-46.04082 35.330565,-61.59082 16.77,-14.29 38.14012,-23.03988 60.12011,-24.62988 21.67001,-0.89 43.36983,-0.68924 65.06983,-0.71924 4.47,0.02 8.44042,-4.00094 8.44042,-8.46094 0.07,-8.02 -6.9e-4,-16.03859 0.0293,-24.05859 0.28,-3.77 -2.1094,-7.49033 -5.6294,-8.84033 -4.16,-1.19 -8.56056,-0.43988 -12.83056,-0.62989 -10.16501,0.165 -20.3318,-0.0509 -30.49805,-0.16845 z"
       inkscape:label="Logo1"
       sodipodi:nodetypes="ccccccccccccsccccccccssscccccccccsscccccccccccccccccccccccccccccccccccccccccccccccccccccccccccccccccc" />
    <path
       id="path9"
       style="display:inline;fill:url(#linearGradient110449);fill-opacity:1;stroke:url(#linearGradient110695);stroke-width:5;stroke-miterlimit:4;stroke-dasharray:none;stroke-opacity:0.79"
       d="m 1244.5811,15.706055 c -1.7963,0.03125 -3.576,0.199648 -5.2911,0.764649 -3.3399,1.379999 -5.6595,4.879277 -5.5195,8.509277 -0.05,8.65 -0.04,17.310214 0,25.970214 -0.15,3.64 2.1491,7.250293 5.5591,8.550293 3.6,1 7.4405,0.929239 10.9805,2.219239 6.31,2.119999 10.7896,7.620507 13.4296,13.520506 3.44,7.750005 5.1405,16.119922 7.6904,24.169927 12.4601,42.58999 25.9305,84.86937 38.7306,127.35937 25.9099,86.23 50.709,172.80025 77.499,258.76026 2.4699,7.66999 6.501,14.83038 11.811,20.90038 10.01,11.45 25.1994,18.81959 40.5894,17.5796 10.0299,0.79999 20.0497,-2.16956 28.4897,-7.53956 11.77,-7.35 20.1999,-19.41964 24.1099,-32.63965 26.48,-85.14 51.0809,-170.84046 76.7109,-256.23046 14.21,-47.12 29.1996,-94.01081 42.7896,-141.320805 2.2999,-8.049998 5.21,-16.78992 12.29,-21.91992 3.89,-2.97 8.8098,-3.739824 13.5498,-4.319825 4.51,-0.27 8.2007,-4.519042 7.9907,-9.019042 0.02,-8.69 0.02,-17.390078 0,-26.080079 0.25,-4.869999 -4.1307,-9.260625 -8.9706,-9.140625 -6.7301,-0.15 -13.4795,-4.29e-4 -20.1695,0.559571 -15.93,2.59 -30.9005,13.610273 -36.4204,29.030273 -3.85,10.59 -7.5497,21.240469 -10.9497,31.980472 -12.45,39.45 -24.001,79.17049 -36.0411,118.75048 -26.1,86.90001 -52.1498,173.8194 -78.5697,260.6294 -1.6901,6.77 -4.8904,13.32006 -10.1104,18.06006 -1.89,1.8 -4.8586,3.48973 -7.3286,1.71973 -5.36,-3.41001 -8.8408,-9.19051 -11.0508,-15.02052 -29.35,-96.15999 -58.0893,-192.50929 -87.0894,-288.77929 -12.24,-39.96 -23.4309,-80.250218 -37.1909,-119.720214 -2.43,-6.850001 -4.64,-14.01961 -9.52,-19.59961 -6.76,-8.14 -16.1902,-14.020195 -26.4903,-16.450195 -5.28,-1.31 -10.749,-0.879707 -16.119,-1.199707 -1.7801,0.02 -3.593,-0.08545 -5.3892,-0.0542 z m 895.1469,99.971195 c -8.7562,-0.37141 -17.543,0.0106 -26.228,1.16308 -25.77,3.44001 -50.4998,13.92906 -71.0698,29.78907 -26.02,19.85 -45.5598,48.27065 -54.0498,79.93066 -6.56,23.91 -6.25,49.36051 -1.21,73.5205 6.85,32.62001 24.6593,63.07879 50.7393,84.00879 26.82,21.91 61.6,33.02115 96.0601,32.93115 35.7399,0.34001 71.4504,-12.3207 98.9004,-35.22069 24.9199,-20.55 42.9597,-49.53928 49.4897,-81.25929 5.91,-29.25999 2.58,-60.12042 -8.0201,-87.94042 -11.58,-30.12 -32.8396,-56.52074 -60.1596,-73.76075 -22.185,-14.16 -48.1834,-22.04789 -74.4522,-23.1621 z m 209.4243,0.10107 c -2.3929,0.13188 -4.7743,0.45619 -7.1118,0.9712 -9.59,1.94999 -18.9507,6.35022 -25.5307,13.74023 -5.89,6.54999 -9.3297,14.99009 -10.8297,23.60009 -1.8799,10.21 -0.9806,20.62018 -1.1806,30.93018 -0.2,42.67 0.3805,85.32951 0.2505,127.99952 -0.11,16.37999 0.3094,32.74034 -0.081,49.11034 -0.17,3.58 -3.2688,6.57024 -6.7587,6.99024 -3.3101,0.36 -6.6402,-0.0805 -9.9302,0.20947 -4.3201,0.23 -8.2005,4.20105 -7.9805,8.58105 -0.01,9.05001 -0.019,18.08916 0.01,27.13917 -0.12,3.06 1.7197,6.02994 4.4296,7.43994 2.2601,1.38 5.0204,0.92029 7.5704,1.05029 11.8099,0.44 24.2091,-0.89023 34.579,-6.99023 12.6101,-7.17 19.8306,-21.39035 20.5606,-35.61035 0.66,-19.65 0.2202,-39.32926 0.3501,-58.98927 -0.03,-23.97 0.1296,-47.94039 -0.2505,-71.90038 -0.06,-25.29 0.1109,-50.57987 -0.079,-75.85987 2.21,0.03 4.449,0.03 6.709,0 9.04,22.97 18.4512,45.80071 26.9912,68.97071 19.3,52.04 38.6895,104.04947 57.6695,156.20947 5.25,12.87 16.5498,23.03975 29.8799,26.98974 14.4799,4.37 31.0496,1.47998 42.9096,-8.02002 11.4,-8.79 18.2302,-23.01013 18.1802,-37.39013 -0.11,-29 0.05,-57.99975 0.2402,-86.98975 0,-35.98 0.01,-71.9602 -0.01,-107.95019 -0.04,-3.19001 0.5201,-6.88034 3.3501,-8.84033 4.0901,-2.79 9.2697,-1.29942 13.8897,-1.64942 4.76,0.33 9.3002,-3.71029 9.2402,-8.55029 0.11,-7.67 -0.05,-15.33977 0.05,-23.00977 0.09,-3.62 0.1809,-7.86969 -2.8491,-10.42969 -3.93,-3.63999 -9.5811,-1.82986 -14.3511,-2.35986 -14.81,-0.78 -31.4499,2.44017 -41.3598,14.43018 -10.99,13.44999 -12.139,31.79945 -11.959,48.43945 -0.43,62.41 -0.1907,124.82926 -0.2608,187.23926 -2.0799,-0.13 -4.2401,0.26004 -6.1801,-0.45996 -1.91,-1.35 -2.5691,-3.71997 -3.5391,-5.70996 -8.21,-18.13 -14.2903,-37.09922 -21.3002,-55.69922 -19.2501,-52.62 -38.3709,-105.2901 -57.7809,-157.8501 -4.83,-13.15 -13.78,-25.41992 -26.6001,-31.66992 -6.48,-3.165 -13.758,-4.50745 -20.937,-4.11182 z m -1517.28365,2.87695 c -11.28893,-0.59906 -22.7781,1.5995 -32.2881,7.8545 -12.15998,7.92 -19.68098,21.1207 -24.50093,34.47069 -22.70002,63.35001 -45.28026,126.73942 -68.49027,189.89942 -2.54,7.33 -5.84894,14.76008 -11.66894,20.08008 -1.54,1.55 -3.76033,1.90041 -5.84033,1.92041 -38.04,1.14 -76.12942,1.4594 -114.14942,-0.3706 -3.42999,-0.08 -6.97037,-0.6801 -9.88037,-2.6001 -6.08,-3.83001 -9.50068,-10.62032 -11.45068,-17.32032 -2.15,-8.06 -2.6593,-16.71865 -0.7793,-24.86865 1.08,-4.82 5.41994,-8.51088 10.43994,-8.40087 25.25001,-0.32001 50.5393,0.43949 75.7793,-0.77052 13.76,-0.54 28.30002,-5.08984 37.27002,-16.08984 7.02,-8.41 9.80996,-19.6392 9.45997,-30.4292 -0.10001,-11.76 -3.73896,-24.05986 -12.41895,-32.35986 -8.72001,-8.79 -21.35067,-12.36012 -33.43067,-12.87012 -22.27999,-0.3 -44.57961,0.48032 -66.84961,-0.67969 -5.40999,-0.1 -10.66076,-2.15076 -15.03076,-5.28076 -2.34,-1.73 -4.69929,-3.85935 -5.2793,-6.83936 -2.16999,-8.41999 -2.71959,-17.59105 0.42042,-25.83105 2.78,-7.53 8.83939,-13.56908 16.12939,-16.80908 10.51,-4.93 22.4002,-4.27059 33.70019,-4.35058 24.34001,-0.52001 48.68979,-0.24 73.02979,0 5.06,0.55999 9.9602,-3.8102 9.70019,-8.9502 0.03,-8.04 0.02,-16.08012 0,-24.12012 0.13001,-3.73 -2.48025,-7.30922 -6.01025,-8.44922 -2.51,-0.75 -5.17048,-0.45976 -7.75048,-0.50977 -31.00001,0.04 -62.00001,-7.5e-4 -93,0.0191 -19.92,1.03 -40.58931,8.59989 -53.27931,24.62988 -13.71999,17.12001 -17.34996,39.97008 -16.95996,61.33008 -0.12,14.5 1.44004,30.47123 11.54004,41.76123 10.74,11.88 27.3802,15.56875 42.7002,16.96875 24.42,0.15 48.84881,0.0313 73.27881,0.0513 -0.02,2.25 -0.0191,4.5 -0.0191,6.75 -21.42999,0.04 -42.86052,-0.0307 -64.29052,0.0293 -8.02,0.53 -16.0798,-0.27008 -24.04981,0.91992 -8.23,1.15 -16.28935,4.34935 -22.58935,9.83935 -5.65,4.84001 -9.54072,11.47028 -11.74072,18.53028 -3.49,11.02 -5.34034,22.61091 -5.09033,34.19091 -0.15,19.53 5.67068,39.78952 18.95068,54.49952 9.7,10.88 23.3098,17.83024 37.5498,20.49023 10.87,2.26001 22.0093,1.57002 33.0293,2.02002 23.32,-0.13 46.6612,0.25047 69.97119,-0.26953 10.63,0 21.26965,0.16959 31.88965,-0.42041 11.59,-0.92 23.10924,-5.85007 30.71924,-14.83008 7.38,-8.01 10.35115,-18.70012 14.18115,-28.62011 24.22002,-64.15001 45.71907,-129.29961 69.53907,-193.59962 2.79,-6.54999 9.00007,-10.56019 13.62007,-15.70019 3.63008,3.87 7.9005,7.14006 11.21048,11.31006 2.34,2.89 3.6699,6.40955 5.12992,9.78955 7.02,16.33 12.9507,33.10037 19.47068,49.63037 1.55002,4.35 3.2394,9.30959 1.35937,13.82959 -1.74997,3.78 -6.14077,5.23978 -10.01077,5.52979 -11.07,0.89 -22.19925,-0.17916 -33.25928,0.61083 -15.28995,1.8 -29.29042,11.79993 -35.9604,25.66993 -6.52005,13 -6.399,29.1 0.33105,42 6.25995,12.36 18.3297,21.66939 31.9497,24.3794 5.55,1.27999 11.27918,0.88017 16.92923,0.93017 18.96997,0.03 37.94962,-0.0605 56.92965,0.0395 5.09002,0.03 11.07082,0.96009 13.82077,5.83008 7.63005,13.21001 9.8997,28.93092 18.4497,41.69092 7.37003,11.08001 19.2903,19.67918 32.78033,20.90918 7.32,0.1 14.63947,-4.5e-4 21.95947,0.0395 3.30998,0.17 6.78975,-1.26996 8.52975,-4.20996 1.53,-2.22 1.1805,-5.02885 1.23045,-7.56885 -0.1,-7.35 0.0405,-14.70004 -0.0495,-22.04003 0.01,-4.52001 -4.3305,-8.39116 -8.79052,-8.18116 -4.95998,-0.39 -10.44938,1.15111 -14.85938,-1.85888 -7.83997,-4.26 -10.3401,-13.54073 -12.64012,-21.49073 -3.03998,-11.5 -7.88963,-22.94025 -16.36958,-31.51025 -6.96,-7.1 -16.27027,-11.65008 -26.03032,-13.33008 -9.91995,-1.98 -20.0295,-0.59885 -30.03953,-0.81885 -14.76,0.03 -29.51055,-0.0605 -44.27055,0.0395 -0.27997,-2.91999 -0.2997,-5.86053 -0.21967,-8.79052 15.75,-0.18 32.07015,1.1198 47.14012,-4.4502 10.68998,-3.77 20.39033,-11.44985 24.82028,-22.08984 5.39002,-12.61001 3.82875,-26.98949 -0.28125,-39.7295 -6.52995,-19.77999 -13.64918,-39.35952 -21.1992,-58.76952 -4.17,-10.47 -7.88963,-21.28034 -14.40968,-30.59034 -6.57997,-9.97 -16.79032,-17.68949 -28.57027,-20.22949 -3.6375,-0.775 -7.37865,-1.28567 -11.14163,-1.48535 z m 1049.06095,0.34425 c -32.8999,0.53999 -65.8201,0.0408 -98.7201,0.32079 -17.46,0.66 -34.8493,6.33926 -48.7794,16.98926 -28.3099,21.35 -40.1596,61.85084 -27.9096,95.11084 6.49,18.21 19.3995,34.06938 35.9194,44.10938 12.18,7.54 26.4194,11.21988 40.6494,11.87988 12.33,0.93 24.7301,-0.40022 37.0401,1.02978 11.17,1.43 22.41,5.90024 30,14.49024 10.66,12.00999 12.2202,30.44053 5.6601,44.79052 -4.63,10.10001 -14.3699,17.07042 -24.9199,19.92041 -10.01,3.09001 -20.5601,2.25987 -30.8701,2.35987 -28.7,0.02 -57.4091,-0.0407 -86.0991,0.0293 -4.86,-0.22001 -9.1611,4.10968 -9.1011,8.92969 -0.08,8.31 -0.1392,16.64068 0.031,24.95068 -0.06,4.81 4.3892,9.00035 9.1992,8.61035 32.3,-0.04 64.6111,-0.0105 96.9111,-0.0205 11.22,-0.38 22.659,-0.43056 33.4791,-3.83056 26.25,-7.73001 47.7099,-29.53884 55.2699,-55.79883 4.7201,-15.98 3.4406,-33.21126 -1.2495,-49.03125 -4.6899,-15.7 -14.0893,-30.0194 -27.0292,-40.1294 -14.0001,-11.05 -31.7105,-16.78041 -49.4004,-17.67041 -11.67,-0.61 -23.3698,-0.0593 -35.0098,-1.00928 -12.43,-1.13 -25.1311,-5.92089 -33.3311,-15.67089 -10.21,-11.9 -11.2297,-29.70896 -4.9497,-43.68896 4.69,-10.54001 14.1897,-18.62106 25.1397,-22.08106 7.11,-2.38 14.6808,-2.78984 22.1308,-2.58984 31.01,0.01 62.0193,-0.01 93.0293,0.0103 4.63,0.38 9.3409,-3.26007 9.3809,-8.08008 0.27,-6.96999 -0.011,-13.94943 0.1289,-20.91943 0.03,-3.66 0.05,-7.91076 -2.9297,-10.53076 -3.68,-3.47 -9.11,-2.27998 -13.67,-2.47998 z m -950.85925,0.56103 c -4.55003,-0.08 -8.8611,3.80017 -8.81108,8.43017 -0.0398,8.38 -0.03,16.74939 0,25.1294 -0.20002,4.62 4.0707,8.84965 8.68065,8.63965 19.00005,0.03 38.0103,-0.0805 57.01028,0.0395 6.21997,0.05 13.2602,1.99106 16.4502,7.83106 4.41,8.41 2.9291,18.2401 2.8491,27.35009 v 162.0791 c 0.04,6.34001 -0.3491,12.75075 0.961,19.01075 3.03,16 15.1502,29.82938 30.5302,35.10937 13.83,4.87 29.9293,2.91104 42.0293,-5.43896 12.16,-8.15 20.0694,-22.18056 20.6294,-36.83056 0.43,-23.96 -0.2694,-47.91989 -0.1494,-71.87989 v -109.0107 c -0.03,-7.34 -0.4707,-15.47 4.0093,-21.75 3.74,-5.32 10.6905,-6.45977 16.7505,-6.50976 18.68,-0.04 37.3605,0.0307 56.0405,-0.0293 4.59,0.14 8.6504,-4.16047 8.4404,-8.73046 0,-8.33001 0.059,-16.67928 -0.02,-25.00928 0.01,-4.52 -4.1206,-8.36139 -8.5606,-8.42139 -8.65,-0.14 -17.3097,-0.17861 -25.9497,0.17139 -15.69,0.11 -31.3996,-0.32082 -47.0596,0.65918 -12.9,1.01 -26.5999,5.00984 -35.1299,15.33984 -9.41,11.43 -11.041,27.01077 -10.771,41.28076 -0.49,33 -0.149,66.00905 -0.249,99.01904 -0.2,29.82 0.329,59.63069 0.249,89.45069 -3.01,0.01 -6.01,0.01 -9,0 0.32,-32.84 0.2605,-65.70029 0.2505,-98.55029 -0.11,-31.29 0.2498,-62.59037 -0.2402,-93.88037 0.02,-8.75 -1.0403,-17.64889 -4.2203,-25.85889 -3.4399,-9.32 -10.5298,-17.20054 -19.6098,-21.31054 -14.08,-6.68 -30.03948,-5.83942 -45.20943,-6.14942 -16.64002,0.24 -33.25995,-0.50017 -49.8999,-0.18018 z m 1204.15575,38.41406 c 31.9679,0.21219 63.6283,15.17062 83.6132,40.26562 20.3201,24.66 28.5806,58.52983 22.3506,89.81983 -5.64,30.16 -24.6901,57.50009 -51.1201,73.1001 -21.19,12.74 -46.8402,17.67021 -71.2602,13.97021 -31.5501,-4.54 -60.3599,-24.22095 -76.38,-51.73095 -19.5999,-32.61 -20.3202,-75.47007 -2.0302,-108.81007 16.02,-30.17 47.0906,-51.92004 81.1406,-55.79004 4.5463,-0.585 9.1192,-0.85501 13.6861,-0.8247 z"
       inkscape:label="Logo2" />
  </g>
</svg>
