<svg height="146.45" viewBox="0 0 75.697 8.201" width="1351.737" xmlns="http://www.w3.org/2000/svg" xmlns:xlink="http://www.w3.org/1999/xlink">
    <linearGradient id="a">
        <stop offset="0" stop-color="#ffcf64"/>
        <stop offset="1" stop-color="#d09236"/>
    </linearGradient>
    <radialGradient id="b" cx="38.516" cy="-25.263" gradientTransform="matrix(1 0 0 .28004 0 11.939)" gradientUnits="userSpaceOnUse" r="37.413" xlink:href="#a"/>
    <radialGradient id="c" cx="38.516" cy="-25.263" gradientTransform="matrix(1 0 0 .28004 .112 11.939)" gradientUnits="userSpaceOnUse" r="37.413" xlink:href="#a"/>
    <g stroke-width=".661">
        <path d="M1.137 0 0 1.137v5.912l1.137 1.137h6.11V5.635H2.55V2.55H6.18L7.453 0zm7.435 0L7.436 1.137v5.912l1.136 1.137h4.973l1.137-1.137V1.137L13.545 0zm6.3 0v8.186h6.177l1.275-2.551h-4.902V0zm7.491 0v8.201h6.496V5.646h-3.87v-.269h3.87V2.822h-3.87v-.265h3.661l.002-.002h.207V0zm7.867 0-1.136 1.137v5.912l1.136 1.137h6.11V5.635h-4.697V2.55h3.628L36.547 0zm7.434 0-1.137 1.137v5.912l1.137 1.137h6.111V5.635h-4.697V2.55h3.629L43.963.039v8.147h2.55V0h-2.55zM47.84 0l-1.137 1.137v5.912l1.137 1.137h4.972l1.137-1.137V1.137L52.813 0zm6.297 0v8.186h2.55v-3.61l1.807 3.61h2.89V0h-2.55v3.607L57.029 0zm7.496 0v8.201h6.496V5.646h-3.87v-.269h3.87V2.822h-3.87v-.265h3.66l.003-.002h.207V0zM69.5 0l-1.137 1.137V4.23L69.5 5.367h3.559v.268h-4.696v2.55h5.17L75.61 6.11V2.82h-4.697V2.55h3.51L75.697 0zM9.986 2.55h2.147v3.085H9.986zm39.266 0h2.146v3.085h-2.146z"/>
        <g fill="url(#b)" transform="translate(-.768 -4.135)">
            <path d="m2.043 11.985-.94-.94V5.41l.94-.94h5.636l-.94 1.879H2.982v3.757H7.68v1.879zM13.235 10.106V6.349h-2.817v3.757zm-3.757 1.879-.939-.94V5.41l.94-.94h4.696l.939.94v5.635l-.94.94zM15.974 11.985V4.47h1.879v5.636h4.696l-.94 1.879zM31.136 11.985l-.94-.94V5.41l.94-.94h5.635l-.939 1.879h-3.757v3.757h4.696v1.879zM38.571 11.985l-.94-.94V5.41l.94-.94h5.636l-.94 1.879H39.51v3.757h4.697v1.879zM45.067 11.985V4.47h1.879v7.515zM52.502 10.106V6.349h-2.818v3.757zm-3.757 1.879-.94-.94V5.41l.94-.94h4.696l.94.94v5.635l-.94.94zM55.241 11.985V4.47h2.348l2.348 4.697V4.47h1.879v7.515h-2.348L57.12 7.288v4.697z"/>
            <path d="M69.466 11.985v-1.879h4.696v-.94h-3.757l-.939-.939V5.41l.94-.94h5.516l-.94 1.879h-3.637v.94h4.696v2.817l-1.879 1.879z" fill="url(#c)"/>
            <path d="M29.29 4.47h-5.823V12h5.823v-1.883h-3.87v-.941h3.87V7.294h-3.87v-.939h3.859l.001-.002h.01z"/>
            <path d="M68.56 4.47h-5.823V12h5.824v-1.883h-3.87v-.941h3.87V7.294h-3.87v-.939h3.858l.002-.002h.01z" fill="url(#c)"/>
        </g>
    </g>
</svg>
