<svg height="151.44" viewBox="0 0 79.311 8.178" width="1468.714" xmlns="http://www.w3.org/2000/svg" xmlns:xlink="http://www.w3.org/1999/xlink">
    <linearGradient id="a">
        <stop offset="0" stop-color="#ffcf64"/>
        <stop offset="1" stop-color="#d09236"/>
    </linearGradient>
    <radialGradient id="b" cx="40.168" cy="-26.488" gradientTransform="matrix(1 0 0 .2704 0 12.051)" gradientUnits="userSpaceOnUse" r="39.065" xlink:href="#a"/>
    <radialGradient id="c" cx="40.168" cy="-26.488" gradientTransform="matrix(1 0 0 .2704 -.216 12.051)" gradientUnits="userSpaceOnUse" r="39.065" xlink:href="#a"/>
    <radialGradient id="d" cx="40.168" cy="-26.488" gradientTransform="matrix(1 0 0 .2704 -.54 12.051)" gradientUnits="userSpaceOnUse" r="39.065" xlink:href="#a"/>
    <radialGradient id="e" cx="40.168" cy="-26.488" gradientTransform="matrix(1 0 0 .2704 -.432 12.051)" gradientUnits="userSpaceOnUse" r="39.065" xlink:href="#a"/>
    <g stroke-width=".661">
        <path d="M1.129 0 0 1.129v5.904l1.129 1.13h6.094V5.634H2.525V2.527H6.16L7.422 0zm7.434 0-1.13 1.129v5.904l1.13 1.13h4.966l1.13-1.13V1.13L13.528 0zm6.306 0v8.162h6.162l1.262-2.527h-4.897V0zm10.174 0v8.162h6.162l1.211-2.426v2.442h6.473V5.646h-3.871v-.292h3.87V2.822h-3.87v-.289h3.67l.001-.002h.2V0h-6.473v5.635H27.57V0zm15.168 0-1.127 1.129v5.904l1.127 1.13h6.096V5.634h-4.698V2.527h3.635L46.506 0zm7.435 0-1.128 1.129v5.904l1.128 1.13h6.096V5.634h-4.697V2.527h3.635L53.94 0zm6.307 0v8.162h2.527V0zm3.867 0-1.127 1.129v5.904l1.127 1.13h4.967l1.129-1.13V1.13L62.787 0zm6.307 0v8.162h2.527V4.516l1.823 3.646h2.875V0h-2.528v3.646L67.002 0zm8.63 0-1.17 1.127v3.1l1.17 1.127h3.714v.292h-4.883v2.532h5.338l2.146-2.069V2.822H74.19v-.29h3.809L79.311 0zM9.962 2.527h2.17v3.108H9.96zm49.258 0h2.17v3.108h-2.17zm-36.903.194v2.527h2.528V2.721z"/>
        <g fill="url(#b)" transform="translate(-.24 -4.146)">
            <path d="M72.152 12v-1.883h4.883v-.941h-3.907l-.976-.941V5.41l.976-.94h5.89l-.977 1.882h-3.936v.94h4.883v2.824l-1.953 1.882z" fill="url(#c)"/>
            <path d="M38.804 4.47h-5.823V12h5.823v-1.883h-3.87v-.941h3.87V7.294h-3.87v-.939h3.859l.002-.002h.01zM1.503 11.985l-.94-.94V5.41l.94-.94h5.636l-.94 1.879H2.442v3.757H7.14v1.879zM12.695 10.106V6.349H9.878v3.757zm-3.757 1.879L8 11.045V5.41l.94-.94h4.696l.939.94v5.635l-.94.94zM15.434 11.985V4.47h1.879v5.636h4.696l-.94 1.879z" fill="url(#d)"/>
            <path d="M22.88 9.07V7.19h1.879V9.07z"/>
            <path d="M25.608 11.985V4.47h1.879v5.636h4.696l-.939 1.879z" fill="url(#d)"/>
            <g fill="url(#e)">
                <path d="m40.587 11.985-.94-.94V5.41l.94-.94h5.635l-.939 1.879h-3.757v3.757h4.696v1.879zM48.022 11.985l-.94-.94V5.41l.94-.94h5.636l-.94 1.879h-3.757v3.757h4.697v1.879zM54.518 11.985V4.47h1.879v7.515zM61.953 10.106V6.349h-2.818v3.757zm-3.757 1.879-.939-.94V5.41l.94-.94h4.696l.939.94v5.635l-.94.94zM64.692 11.985V4.47h2.348l2.349 4.697V4.47h1.878v7.515H68.92L66.57 7.288v4.697z"/>
            </g>
        </g>
    </g>
</svg>
