<svg height="153.001" viewBox="0 0 599.156 260.102" width="352.445" xmlns="http://www.w3.org/2000/svg">
    <g transform="translate(-.405 -20.574)">
        <rect height="66.039" rx="33.02" ry="33.02" width="588.488" x="6.327" y="214.637"/>
        <g fill="#fff" fill-opacity=".987">
            <path d="M91.013 235.715c0-3.068-.298-7.112-5.369-9.971-4.573-2.65-10.738-3.277-16.803-3.277-4.971 0-13.82.279-19.09 4.81-2.982 2.58-3.48 5.51-3.48 8.995v24.265c0 7.74 3.48 12.69 22.173 12.69 19.885 0 22.967-5.648 22.967-14.991v-4.393H74.31v6.136c0 2.44 0 4.88-5.469 4.88-5.07 0-5.667-1.742-5.667-4.88v-24.474c0-2.37.497-4.462 5.27-4.462 5.27 0 5.866 1.673 5.866 4.393v6.136h16.703zM483.917 235.715c0-3.068-.3-7.112-5.4-9.971-4.6-2.65-10.8-3.277-16.9-3.277-5 0-13.9.279-19.2 4.81-3 2.58-3.5 5.51-3.5 8.995v24.265c0 7.74 3.5 12.69 22.3 12.69 20 0 23.1-5.648 23.1-14.991v-4.393h-17.2v6.136c0 2.44 0 4.88-5.5 4.88-5.1 0-5.7-1.742-5.7-4.88v-24.474c0-2.37.5-4.462 5.3-4.462 5.3 0 5.9 1.673 5.9 4.393v6.136h16.8zM120.48 270.776h40.667v-6.94h-24.521v-39.775h-16.147zM181.961 270.776h16.893l2.53-10.638h13.25l2.429 10.638h16.893l-14.466-46.649h-23.063zm30.954-18.501h-9.61l4.856-20.748zM277.805 253.753c6.67 3.042 6.776 3.38 6.776 7.03 0 1.149-.106 3.38-5.717 3.38-5.293 0-5.293-2.704-5.293-3.853v-3.718H255.68c-.212 5.745-.318 10.071 5.081 12.978 3.917 2.028 10.057 2.974 18.42 2.974 10.905 0 15.669-1.622 18.739-3.65 3.176-2.095 4.764-4.596 4.764-9.801 0-7.3-2.753-8.72-9.634-11.761l-15.456-6.827c-3.176-1.352-3.388-2.299-3.388-4.867 0-1.96 0-4.191 4.552-4.191 4.658 0 4.976 1.555 4.976 3.988v3.312h17.15c.423-10.477-1.376-15.479-20.961-15.479-18.633 0-23.397 3.988-23.397 13.79 0 6.826 2.753 8.178 10.375 11.693zM346.902 253.753c6.67 3.042 6.775 3.38 6.775 7.03 0 1.149-.106 3.38-5.717 3.38-5.293 0-5.293-2.704-5.293-3.853v-3.718h-17.89c-.213 5.745-.319 10.071 5.08 12.978 3.918 2.028 10.058 2.974 18.421 2.974 10.904 0 15.668-1.622 18.738-3.65 3.176-2.095 4.764-4.596 4.764-9.801 0-7.3-2.752-8.72-9.634-11.761l-15.456-6.827c-3.176-1.352-3.388-2.299-3.388-4.867 0-1.96 0-4.191 4.553-4.191 4.658 0 4.975 1.555 4.975 3.988v3.312h17.15c.424-10.477-1.376-15.479-20.96-15.479-18.633 0-23.397 3.988-23.397 13.79 0 6.826 2.752 8.178 10.375 11.693zM396.551 224.127v46.649h15.247v-46.649zM533.235 253.753c6.67 3.042 6.775 3.38 6.775 7.03 0 1.149-.106 3.38-5.717 3.38-5.293 0-5.293-2.704-5.293-3.853v-3.718H511.11c-.212 5.745-.318 10.071 5.082 12.978 3.917 2.028 10.057 2.974 18.42 2.974 10.904 0 15.668-1.622 18.738-3.65 3.176-2.095 4.764-4.596 4.764-9.801 0-7.3-2.752-8.72-9.634-11.761l-15.456-6.827c-3.176-1.352-3.388-2.299-3.388-4.867 0-1.96 0-4.191 4.553-4.191 4.658 0 4.975 1.555 4.975 3.988v3.312h17.15c.424-10.477-1.376-15.479-20.96-15.479-18.633 0-23.397 3.988-23.397 13.79 0 6.826 2.752 8.178 10.375 11.693z"/>
        </g>
        <g fill="#f91b20" stroke-width=".582">
            <path d="M521.884 121.123h77.677v19.102H573.52v58.154h-25.592v-58.154h-26.044zM439.593 172.822l24.39-1.414c.527 3.67 1.611 6.472 3.238 8.393 2.644 3.116 6.425 4.671 11.347 4.671 3.667 0 6.491-.799 8.474-2.398 1.986-1.595 2.983-3.449 2.983-5.554 0-2.002-.95-3.792-2.852-5.374-1.899-1.582-6.284-3.073-13.141-4.477-11.236-2.344-19.25-5.47-24.035-9.36-4.828-3.895-7.243-8.855-7.243-14.887 0-3.96 1.234-7.698 3.707-11.227 2.469-3.523 6.186-6.298 11.145-8.316 4.955-2.008 11.749-3.019 20.388-3.019 10.595 0 18.677 1.834 24.236 5.495 5.56 3.67 8.87 9.49 9.927 17.49l-24.085 1.316c-.65-3.479-2.006-6.014-4.073-7.603-2.066-1.582-4.918-2.371-8.561-2.371-2.996 0-5.254.588-6.768 1.767-1.52 1.175-2.278 2.606-2.278 4.291 0 1.23.631 2.335 1.9 3.319 1.224 1.017 4.1 1.964 8.622 2.844 11.199 2.247 19.22 4.51 24.065 6.811 4.844 2.3 8.37 5.155 10.575 8.56 2.21 3.406 3.31 7.218 3.31 11.43 0 4.953-1.472 9.507-4.411 13.685-2.946 4.18-7.055 7.348-12.34 9.507-5.283 2.16-11.943 3.241-19.982 3.241-14.11 0-23.877-2.529-29.315-7.566-5.428-5.058-8.505-11.466-9.223-19.254zM405.148 185.597h-28.96l-4.174 12.782h-26.111l31.02-77.256h28.067l31.084 77.256h-26.776zm-5.419-16.714-9.038-27.75-9.055 27.75zM270.691 121.123h68.646v16.436h-43.054v12.359h39.894v15.734h-39.894v15.17h44.258v17.557h-69.85zM564.233 91.601H535.27l-4.177 12.782h-26.105l31.02-77.253h28.064l31.087 77.253h-26.776zm-5.425-16.715-9.038-27.75-9.052 27.75zM431.9 27.13h77.678v19.102h-26.042v58.151h-25.591v-58.15H431.9zM406.617 91.601h-28.963l-4.174 12.782h-26.108l31.02-77.253h28.068l31.083 77.253h-26.776zm-5.421-16.715-9.042-27.75-9.048 27.75zM271.142 27.13h37.927c7.475 0 13.517.947 18.12 2.844 4.603 1.898 8.407 4.625 11.407 8.172 3.01 3.55 5.186 7.673 6.538 12.389 1.353 4.705 2.03 9.692 2.03 14.958 0 8.251-1.006 14.66-3.016 19.207-2.01 4.55-4.8 8.369-8.367 11.439-3.57 3.072-7.408 5.117-11.498 6.138-5.6 1.404-10.668 2.106-15.214 2.106h-37.927zm25.592 17.558v42.137h6.215c5.301 0 9.069-.554 11.31-1.659 2.238-1.098 3.995-3.029 5.26-5.786 1.268-2.747 1.903-7.214 1.903-13.387 0-8.174-1.42-13.766-4.251-16.775-2.842-3.019-7.549-4.53-14.114-4.53zM16.466 20.574c-.29 0-.57.035-.86.036H.405v27.358l11.79-.024c39.686 0 71.86 32.207 71.86 71.934 0 39.624-32.01 71.757-71.556 71.922l-12.094.014v27.371h16.48v-.017c54.59-.228 98.78-44.59 98.78-99.291 0-54.841-44.414-99.301-99.199-99.301z"/>
            <path d="M72.189 119.877c0-34.136-27.647-61.811-61.748-61.811l-10 .02V181.69l10.26-.01c33.982-.144 61.488-27.754 61.488-61.803zM157.469 124.147c2.193 32.05 28.73 57.395 61.273 57.533l10.259.01v-57.542h-71.532zM229 115.55V58.088l-9.998-.021c-32.643 0-59.302 25.374-61.53 57.484H229z"/>
            <path d="M212.976 20.574c.29 0 .57.035.86.036h15.202v27.358l-11.79-.024c-39.687 0-71.86 32.207-71.86 71.934 0 39.624 32.01 71.757 71.555 71.922l12.095.014v27.371h-16.48v-.017c-54.591-.228-98.781-44.59-98.781-99.291 0-54.841 44.414-99.301 99.2-99.301z"/>
        </g>
    </g>
</svg>
