<?xml version="1.0" encoding="UTF-8" standalone="no"?>
<svg
   version="1.0"
   width="1685.000000pt"
   height="481.000000pt"
   viewBox="0 0 1685.000000 481.000000"
   preserveAspectRatio="xMidYMid meet"
   id="svg36"
   sodipodi:docname="datach-w.svg"
   inkscape:version="1.3.2 (091e20e, 2023-11-25, custom)"
   xmlns:inkscape="http://www.inkscape.org/namespaces/inkscape"
   xmlns:sodipodi="http://sodipodi.sourceforge.net/DTD/sodipodi-0.dtd"
   xmlns="http://www.w3.org/2000/svg"
   xmlns:svg="http://www.w3.org/2000/svg">
  <defs
     id="defs36" />
  <sodipodi:namedview
     id="namedview36"
     pagecolor="#505050"
     bordercolor="#eeeeee"
     borderopacity="1"
     inkscape:showpageshadow="0"
     inkscape:pageopacity="0"
     inkscape:pagecheckerboard="0"
     inkscape:deskcolor="#505050"
     inkscape:document-units="pt"
     inkscape:zoom="0.27696764"
     inkscape:cx="1574.1911"
     inkscape:cy="-722.10602"
     inkscape:window-width="1920"
     inkscape:window-height="1009"
     inkscape:window-x="-8"
     inkscape:window-y="-8"
     inkscape:window-maximized="1"
     inkscape:current-layer="svg36" />
  <g
     transform="translate(0.000000,481.000000) scale(0.100000,-0.100000)"
     fill="#000000"
     stroke="none"
     id="g36">
    <path
       d="m 1710,4806 c 0,-3 -111,-369 -246,-813 -135,-445 -248,-820 -251,-834 l -5,-27 373,-4 c 206,-2 376,-3 378,-1 2,1 68,218 146,480 l 142,478 739,3 c 817,2 772,5 922,-64 287,-132 500,-405 578,-739 28,-118 25,-353 -5,-495 -109,-512 -480,-1093 -911,-1427 -36,-27 -113,-82 -172,-122 -317,-211 -568,-334 -820,-400 -251,-67 -419,-81 -941,-81 -370,0 -378,0 -372,19 15,50 295,994 295,997 0,2 -173,4 -384,4 -358,0 -385,-1 -390,-17 C 735.15931,1593.531 260,35.297 260,14 260,1 394,0 1333,3 c 1055,3 1074,4 1187,25 331,64 646,182 875,330 112,71 471,330 577,414 248,197 471,438 756,815 295,390 469,917 489,1483 11,324 -46,592 -184,862 -81,160 -162,267 -318,423 -205,206 -388,326 -605,397 l -95,31 -330,8 c -467,10 -1975,22 -1975,15 z"
       id="path1"
       style="fill:#000000;fill-opacity:1"
       sodipodi:nodetypes="sccccccccccccccscsscscccccccccccs" />
    <path
       d="m 6970,4715 v -56 l 68,3 67,3 3,53 3,52 h -70 -71 z"
       id="path2"
       style="fill:#909ec1;fill-opacity:1"
       sodipodi:nodetypes="ccccccccc" />
    <path
       d="m 7152,4718 3,-53 68,-3 67,-3 v 56 55 h -71 -70 z"
       id="path3"
       style="fill:#909ec1;fill-opacity:1"
       sodipodi:nodetypes="ccccccccc" />
    <path
       d="m 6328,4651 c -20,-50 -33,-92 -30,-95 3,-4 214,-6 469,-6 h 463 l 10,25 c 5,14 13,37 16,50 l 6,25 h -166 -166 v 29 c 0,64 15,61 -289,61 h -277 z"
       id="path4"
       style="fill:#909ec1;fill-opacity:1"
       sodipodi:nodetypes="ccsccccccsscc" />
    <path
       d="m 8591,4706 c -47,-76 -202,-186 -262,-186 -9,0 -21,-6 -27,-13 -11,-12 -62,-147 -62,-162 0,-10 110,3 167,20 26,8 49,13 50,11 2,-2 -6,-24 -17,-50 -11,-26 -20,-51 -20,-56 0,-4 46,-10 103,-13 104,-5 173,-23 216,-56 l 25,-19 -54,-27 c -95,-48 -325,-95 -466,-95 h -50 l -32,-78 c -18,-43 -32,-84 -32,-92 0,-10 24,-12 121,-6 493.8705,27.4373 585.8404,206 730,206 122,0 124,1 143,89 20,94 20,89 -3,93 -17,3 -12,13 33,74 28,39 68,102 88,140 41,79 100,239 91,248 -4,3 -167,6 -364,6 h -357 z m -81,-293 c -8510,397 -8510,397 0,0 z m 560,129 c 0,-14 -66,-119 -105,-166 l -36,-44 -74,38 c -82,41 -182,70 -245,70 h -40 l 52,55 53,54 198,1 c 108,0 197,-4 197,-8 z"
       id="path5"
       style="fill:#909ec1;fill-opacity:1"
       sodipodi:nodetypes="cscsccssccccsccscscccccsccccscccsccccs" />
    <path
       d="m 10637,4697 c -48,-81 -132,-142 -247,-177 l -55,-17 -33,-93 c -18,-51 -30,-95 -27,-98 9,-9 140,30 209,62 72,33 171,102 215,150 l 24,26 h 193 194 l -11,-27 c -20,-54 -101,-162 -164,-221 -152,-143 -353,-222 -601,-238 l -101,-7 -26,-84 c -21,-72 -23,-85 -10,-90 8,-3 55,-3 105,1 360,27 668,181 868,431 91,115 176,275 215,403 l 6,22 h -364 -365 z"
       id="path6"
       style="fill:#909ec1;fill-opacity:1"
       sodipodi:nodetypes="ccccscccccccccccccccccc" />
    <path
       d="m 9387,4553 c -3,-5 -26,-84 -51,-178 -26,-93 -50,-178 -52,-188 -5,-16 2,-18 87,-15 l 93,3 48,165 c 26,91 50,177 53,193 l 7,27 h -91 c -49,0 -92,-3 -94,-7 z"
       id="path7"
       style="fill:#909ec1;fill-opacity:1"
       sodipodi:nodetypes="ccccccccsc" />
    <path
       d="m 9646,4543 c -30,-102 -96,-346 -96,-358 0,-12 16,-15 83,-15 h 82 l -25,-20 c -70,-55 -264,-106 -371,-98 l -40,3 -29,-90 c -16,-49 -27,-91 -24,-94 2,-2 52,1 110,8 253,29 470,127 616,278 101,105 159,205 201,351 l 16,52 h -95 c -91,0 -96,-1 -102,-22 -18,-69 -106,-220 -168,-287 -37,-39 -68,-70 -70,-69 -1,2 13,57 32,123 19,66 43,150 53,188 l 19,67 h -93 c -81,0 -94,-2 -99,-17 z"
       id="path8"
       style="fill:#909ec1;fill-opacity:1"
       sodipodi:nodetypes="csscccccsccccscccsccsc" />
    <path
       d="m 6215,4399 c -14,-44 -25,-84 -25,-90 0,-5 94,-9 235,-9 h 236 l -12,-22 c -23,-43 -107,-114 -171,-146 -77,-37 -167,-62 -261,-71 l -69,-6 -34,-84 c -19,-47 -32,-86 -29,-89 11,-12 102,-13 174,-3 236,35 457,171 597,370 l 29,41 75,1 c 41,1 102,4 134,8 l 59,6 23,67 c 12,36 25,76 29,87 l 6,21 h -485 -485 z"
       id="path9"
       sodipodi:nodetypes="cssccccccccccccccccccc"
       style="fill:#909ec1;fill-opacity:1" />
    <path
       d="m 7276,4438 c -8,-24 -24,-67 -35,-95 l -19,-53 h 472 473 l 27,88 c 14,48 26,90 26,95 0,4 -209,7 -464,7 h -464 z"
       id="path10"
       style="fill:#909ec1;fill-opacity:1"
       sodipodi:nodetypes="ccccccsscc" />
    <path
       d="m 5777,3725 c -15,-36 -27,-68 -27,-70 0,-3 2483,-4 5518,-3 l 5517,3 32,60 c 18,33 33,63 33,68 0,4 -2485,7 -5523,7 H 5804 Z"
       id="path11"
       sodipodi:nodetypes="cscccsscc"
       style="fill:#909ec1;fill-opacity:1" />
    <path
       d="m 12770,3586 c -165,-35 -272,-157 -273,-310 -1,-96 43,-143 159,-169 115,-27 141,-62 86,-117 -57,-57 -180,-46 -259,23 l -34,30 -75,-74 c -41,-40 -74,-80 -74,-89 0,-27 58,-80 117,-107 50,-23 71,-27 153,-26 172,1 280,45 356,145 91,120 99,273 16,338 -13,11 -56,29 -94,41 -103,30 -138,79 -83,115 44,29 97,29 161,0 l 58,-27 74,75 c 47,46 73,79 69,88 -3,8 -48,29 -100,46 -103,35 -163,39 -257,18 z"
       id="path12"
       style="fill:#000000"
       sodipodi:nodetypes="cccscccscccccccccccc" />
    <path
       d="m 14097,3589 c -170,-33 -278,-154 -281,-316 -2,-96 43,-141 169,-170 85,-19 113,-41 100,-78 -17,-48 -58,-70 -128,-70 -67,1 -112,19 -160,63 l -27,26 -75,-74 c -41,-41 -75,-82 -75,-92 0,-23 58,-80 104,-102 84,-39 249,-40 368,0 103,34 215,175 226,284 11,116 -29,175 -143,209 -85,25 -115,45 -115,75 0,31 28,54 76,62 32,5 56,0 105,-20 l 64,-26 74,74 c 46,46 72,79 68,88 -3,8 -48,29 -100,46 -100,33 -158,38 -250,21 z"
       id="path13"
       style="fill:#000000"
       sodipodi:nodetypes="ccccccccsccccscccsccc" />
    <path
       d="m 5995,3558 c -2,-7 -31,-96 -64,-197 -92,-282 -166,-417 -216,-397 -9,3 -25,21 -36,41 -12,19 -26,35 -32,35 -13,0 -190,-155 -195,-171 -7,-18 27,-58 72,-84 68,-40 163,-51 243,-30 65,18 161,73 200,116 29,32 100,177 156,319 69,176 128,353 123,367 -7,18 -245,19 -251,1 z"
       id="path14"
       style="fill:#000000"
       sodipodi:nodetypes="ccccsccccccc" />
    <path
       d="m 6610,3552 c -170,-56 -334,-193 -399,-332 -34,-73 -40,-169 -15,-259 15,-56 26,-74 73,-122 66,-65 132,-90 238,-92 161,-2 376,127 499,299 64,89 87,161 82,249 -12,174 -120,263 -328,271 -73,3 -108,0 -150,-14 z m 167.5568,-189.3459 c 66.6882,-50.3118 40.7202,-6.5405 80.7202,-82.5405 16,-31 0.6555,-27.8849 0.6555,-88.8849 1,-69 -42.4922,-77.2294 -67.4922,-126.2294 -108.0987,-91.934 -34.1946,-56.8502 -186.1946,-105.8502 -73,-23 -104.2613,13.9184 -166.2613,44.9184 -61,31 -8.0156,68.9673 -39.0156,127.9673 -22,43 27.8529,23.5078 27.8529,100.5078 58.8367,69.2294 67.8203,32.3764 93.8203,85.3764 71.902,47.8686 59.2614,15.4901 144.2614,65.4901 112.0327,-26.1321 -14.3466,2.245 111.6534,-20.755 z"
       id="path15"
       style="fill:#000000"
       sodipodi:nodetypes="cccccccccccccccccccc" />
    <path
       d="M6623 3376 c-99 -32 -199 -118 -224 -193 -16 -49 -7 -138 17 -170 38 -50 70 -67 139 -71 55 -4 73 0 119 22 127 62 213 179 204 277 -3 28 -14 62 -25 77 -41 55 -151 83 -230 58z m162 -42 c38 -17 65 -66 65 -113 0 -72 -84 -174 -183 -224 -125 -64 -247 -7 -247 116 0 77 55 151 153 207 43 24 63 30 115 30 38 0 78 -7 97 -16z"
       id="path16"
       style="fill:#000000" />
    <path
       d="m 7322,3553 c -29,-55 -293,-787 -288,-799 7,-19 218,-21 233,-1 15,19 303,780 303,800 0,15 -13,17 -120,17 -103,0 -121,-2 -128,-17 z"
       id="path17"
       style="fill:#000000"
       sodipodi:nodetypes="cccssc" />
    <path
       d="m 7656,3538 c -73,-178 -287,-772 -282,-783 4,-12 27,-15 113,-15 59,0 114,4 121,8 7,5 43,98 81,208 39,109 74,209 78,222 7,19 25,-13 107,-200 54,-123 104,-226 110,-230 20,-13 223,-9 234,5 17,22 293,797 287,807 -4,6 -59,10 -129,10 h -123 l -78,-200 c -43,-110 -81,-200 -84,-200 -4,0 -48,89 -98,198 l -91,197 -117,3 -116,3 z"
       id="path18"
       style="fill:#000000"
       sodipodi:nodetypes="ccscccccccsccsccccc" />
    <path
       d="m 8523,3488 c -16,-46 -28,-89 -25,-95 3,-9 28,-13 78,-13 41,0 74,-3 74,-7 0,-4 -50,-139 -111,-301 -61,-161 -109,-300 -107,-310 3,-14 18,-17 98,-20 52,-2 105,0 116,2 18,5 42,61 140,320 l 119,315 83,3 84,3 34,84 c 18,46 31,88 28,92 -3,5 -135,9 -293,9 h -288 z"
       id="path19"
       style="fill:#000000"
       sodipodi:nodetypes="ccssccccccccccscc" />
    <path
       d="m 9504,3559 c -3,-6 -71,-187 -149,-402 -101,-278 -140,-396 -133,-404 14,-18 211,-18 226,0 6,7 29,63 52,125 24,61 45,112 49,112 3,0 24,-51 45,-112 22,-62 43,-119 49,-125 15,-20 276,-18 283,1 3,8 -22,80 -56,161 -34,80 -60,150 -58,155 2,4 32,28 68,52 114,78 177,186 168,292 -6,66 -25,105 -67,133 -33,22 -41,23 -252,23 -147,0 -220,-4 -225,-11 z m 237.906,-176.0873 c 62.1546,-20.8454 0.995,9.2402 72.5412,-14.4472 -21,-62 7.0856,-6.0656 5.4755,-70.1446 -30,-16 -44.8454,-72.926 -63.4622,-97.5428 l -155.4438,1.842 c 71,195 46.6857,136.5212 52.6857,149.5212 34.5841,27.7482 49.0059,26.563 88.2036,30.7714 z"
       id="path20"
       style="fill:#000000"
       sodipodi:nodetypes="cccccscccccccsscccccccc" />
    <path
       d="M9652 3378 c-14 -18 -62 -179 -56 -190 8 -13 122 -9 159 6 38 16 68 67 78 128 5 31 2 40 -16 53 -27 19 -150 21 -165 3z m148 -53 c0 -42 -31 -93 -63 -105 -35 -12 -107 -13 -107 -2 0 4 9 36 21 70 l21 62 64 0 c61 0 64 -1 64 -25z"
       id="path21"
       style="fill:#000000" />
    <path
       d="m 10510,3552 c -172,-58 -335,-196 -404,-342 -31,-67 -30,-215 3,-288 66,-147 254,-213 433,-153 129,43 283,162 369,285 55,78 79,145 79,222 0,125 -64,221 -176,264 -83,32 -228,37 -304,12 z m 207.572,-216.4105 c 33.45,-54.6467 76.034,-86.2099 52.459,-133.3594 -58,-118 -57.572,-162.2287 -200.572,-233.2287 -138.873,-6.9116 -174.158,-3.8908 -207.95,14.1314 -49.934,63.9673 -61,116.3712 -52.638,174.2287 6.441,44.5688 49.749,103.6436 228.851,209.8501 77.962,5.8443 127.589,-4.6501 179.85,-31.6221 z"
       id="path22"
       style="fill:#000000"
       sodipodi:nodetypes="cccccsccccccscc" />
    <path
       d="M10513 3372 c-96 -34 -190 -117 -214 -190 -16 -48 -7 -137 17 -169 38 -50 70 -67 139 -71 55 -4 73 0 119 22 73 36 146 103 180 166 50 91 26 193 -55 232 -56 27 -127 31 -186 10z m172 -38 c38 -17 65 -66 65 -113 0 -105 -163 -251 -279 -251 -91 0 -151 57 -151 143 0 75 58 152 155 208 41 23 62 29 113 29 38 0 78 -7 97 -16z"
       id="path23"
       style="fill:#000000" />
    <path
       d="m 11037,3170 c -115,-221 -206,-408 -203,-416 4,-11 28,-14 113,-14 59,0 113,4 119,8 6,4 57,97 112,207 l 101,200 v -195 c 1,-139 5,-200 13,-208 13,-13 106,-16 123,-4 6,4 76,96 155,204 79,109 145,196 147,195 1,-2 -20,-88 -47,-192 -35,-137 -46,-193 -38,-202 14,-17 234,-18 244,-2 11,18 173,802 168,811 -3,4 -63,8 -134,8 h -129 l -138,-195 -138,-195 -5,193 -5,192 -125,3 -125,2 z"
       id="path24"
       style="fill:#000000"
       sodipodi:nodetypes="ccsscccscccccccscccccccc" />
    <path
       d="m 13150,3553 c 0,-10 21,-111 47,-225 l 46,-207 -67,-172 c -37,-94 -66,-179 -64,-188 3,-13 21,-16 119,-19 85,-2 119,1 127,10 6,7 37,88 70,180 l 59,166 204,221 c 112,122 204,227 204,234 0,9 -35,13 -125,15 l -126,3 -94,-108 -95,-107 -12,95 c -7,52 -15,100 -18,107 -3,9 -41,12 -140,12 -122,0 -135,-2 -135,-17 z"
       id="path25"
       style="fill:#000000"
       sodipodi:nodetypes="scccccccccsccccccss" />
    <path
       d="m 14463,3486 c -16,-46 -27,-88 -25,-95 2,-7 31,-11 78,-11 41,0 74,-3 74,-7 0,-3 -50,-140 -111,-304 -62,-165 -109,-304 -106,-313 5,-13 24,-16 109,-16 57,0 109,4 115,8 7,5 66,147 131,318 l 117,309 84,5 83,5 34,84 c 18,46 31,88 28,92 -3,5 -135,9 -293,9 h -288 z"
       id="path26"
       style="fill:#000000"
       sodipodi:nodetypes="csssccscccccccscc" />
    <path
       d="m 15117,3563 c -25,-44 -298,-796 -294,-808 6,-13 39,-15 244,-15 131,0 243,4 249,8 18,11 87,180 80,197 -4,12 -28,15 -135,15 h -129 l 18,48 18,47 118,5 118,5 33,84 c 24,63 30,88 21,98 -7,9 -40,13 -110,13 -98,0 -99,0 -92,23 22,71 11,66 151,69 l 127,3 43,98 c 24,54 41,102 38,108 -7,11 -492,13 -498,2 z"
       id="path27"
       style="fill:#000000"
       sodipodi:nodetypes="ccsccscccccccscccccc" />
    <path
       d="m 15797,3548 c -8,-13 -103,-193 -211,-401 -157,-302 -194,-382 -185,-393 15,-19 208,-20 231,-1 9,6 59,98 112,202 l 95,190 v -190 c 1,-135 5,-195 13,-203 17,-17 113,-15 131,3 8,8 77,100 153,204 76,105 140,188 142,187 1,-2 -19,-89 -47,-194 -35,-138 -46,-193 -38,-201 16,-16 232,-15 244,2 13,16 174,797 167,808 -3,5 -63,9 -133,9 h -128 l -139,-196 -139,-197 -5,194 -5,194 -122,3 c -118,3 -123,2 -136,-20 z"
       id="path28"
       style="fill:#000000"
       sodipodi:nodetypes="cccccccsscccsccsccccccc" />
    <path
       d="M301 2908 c-23 -68 -41 -129 -41 -136 0 -10 331 -12 1636 -10 l1636 3 44 125 c24 68 44 128 44 132 0 4 -737 8 -1639 8 l-1638 0 -42 -122z"
       id="path29"
       style="fill:#ff0000" />
    <path
       d="M 4810,1339 C 4065,612 3454,14 3452,9 3450,4 3656,0 3931,0 h 482 l 276,273 c 979,965 1324,1300 1319,1282 -3,-11 -136,-361 -297,-778 C 5551,359 5420,14 5420,9 c 0,-5 158,-9 379,-9 h 378 l 497,1323 c 273,728 496,1327 496,1330 0,4 -226,7 -502,7 h -503 z"
       id="path30"
       style="fill:#000000"
       sodipodi:nodetypes="cssccccssccsscc" />
    <path
       d="m 7276,2652 c -7,-12 -236,-655 -236,-664 0,-4 191,-8 425,-8 234,0 425,-1 425,-2 0,-2 -164,-444 -364,-983 C 7326,456 7166,12 7170,7 c 3,-4 163,-6 356,-5 l 349,3 146,385 c 80,212 248,657 374,988 l 228,604 431,-7 431,-7 123,338 c 67,187 122,342 122,347 0,10 -2447,9 -2454,-1 z"
       id="path31"
       style="fill:#000000"
       sodipodi:nodetypes="csssscccccccccsc" />
    <path
       d="M 9335,1338 C 8590,612 7980,13 7980,8 c 0,-4 215,-8 478,-8 h 477 l 800,784 c 440,432 800,784 802,783 1,-2 -132,-351 -296,-777 C 10077,364 9946,12 9950,7 c 3,-4 175,-6 381,-5 l 374,3 472,1260 c 260,693 484,1290 497,1328 l 26,67 h -505 -504 z"
       id="path32"
       style="fill:#000000"
       sodipodi:nodetypes="csscccsccccccccc" />
    <path
       d="m 12290,2645 c -168,-34 -314,-119 -460,-265 -69,-69 -170,-198 -216,-275 -34,-58 -569,-1535 -584,-1613 -15,-76 -8,-193 15,-248 42,-102 136,-186 248,-223 63,-21 72,-22 913,-19 652,2 854,6 871,15 22,13 68,123 179,424 70,191 74,220 41,253 l -26,26 h -636 c -703,0 -705,0 -705,57 0,16 23,92 51,168 28,77 109,301 180,499 76,212 139,372 154,392 14,19 45,44 68,57 l 42,22 689,5 689,5 129,345 c 70,190 131,355 134,368 l 6,22 -858,-1 c -672,-1 -873,-4 -924,-14 z"
       id="path33"
       style="fill:#000000"
       sodipodi:nodetypes="cscccccccscsscccccccccccc" />
    <path
       d="m 14160,2657 c 0,-2 -220,-597 -490,-1322 C 13401,609 13180,12 13180,8 c 0,-4 162,-8 359,-8 h 359 l 178,480 179,480 h 413 c 226,0 412,-4 412,-8 0,-11.54568 -320,-916.645493 -320,-938 0,-12 51,-14 344,-14 h 344 l 10,28 c 6,15 229,609 496,1321 267,712 486,1298 486,1303 0,4 -164,8 -364,8 h -363 l -172,-471 c -95,-259 -179,-490 -188,-515 l -15,-44 h -418 -417 l 188,507 c 104,279 189,510 189,515 0,4 -162,8 -360,8 -198,0 -360,-2 -360,-3 z"
       id="path34"
       style="fill:#000000"
       sodipodi:nodetypes="scsscccssssccssscccccccsss" />
    <path
       d="M215 2568 c-7 -18 -29 -79 -49 -136 l-35 -102 1640 2 1641 3 44 124 c24 68 44 127 44 132 0 5 -706 9 -1636 9 l-1635 0 -14 -32z"
       id="path35"
       style="fill:#ff0000" />
    <path
       d="M85 2148 c-3 -7 -20 -58 -39 -113 -19 -55 -38 -108 -41 -118 -7 -16 74 -17 1636 -15 l1642 3 43 128 43 127 -1640 0 c-1303 0 -1641 -3 -1644 -12z"
       id="path36"
       style="fill:#ff0000" />
  </g>
</svg>
