<?xml version="1.0" standalone="no"?>
<!DOCTYPE svg PUBLIC "-//W3C//DTD SVG 20010904//EN"
 "http://www.w3.org/TR/2001/REC-SVG-20010904/DTD/svg10.dtd">
<svg version="1.0" xmlns="http://www.w3.org/2000/svg"
 width="480.000000pt" height="160.000000pt" viewBox="0 0 480.000000 160.000000"
 preserveAspectRatio="xMidYMid meet">
<metadata>
Created by potrace 1.16, written by Peter Selinger 2001-2019
</metadata>
<g transform="translate(0.000000,160.000000) scale(0.100000,-0.100000)"
fill="#000000" stroke="none">
<path d="M3600 1450 l0 -50 -50 0 -50 0 0 -50 0 -50 -50 0 -50 0 0 -50 0 -50
-50 0 -50 0 0 -50 0 -50 -50 0 -50 0 0 -500 0 -500 50 0 50 0 0 -50 0 -50 500
0 500 0 0 50 0 50 50 0 50 0 0 50 0 50 50 0 50 0 0 50 0 50 50 0 50 0 0 50 0
50 50 0 50 0 0 500 0 500 -50 0 -50 0 0 50 0 50 -500 0 -500 0 0 -50z m900
-100 l0 -50 50 0 50 0 0 -450 0 -450 -50 0 -50 0 0 -50 0 -50 -50 0 -50 0 0
-50 0 -50 -50 0 -50 0 0 450 0 450 -450 0 -450 0 0 50 0 50 50 0 50 0 0 50 0
50 50 0 50 0 0 50 0 50 450 0 450 0 0 -50z m-300 -800 l0 -450 -450 0 -450 0
0 450 0 450 450 0 450 0 0 -450z"/>
<path d="M3900 1250 l0 -50 50 0 50 0 0 50 0 50 -50 0 -50 0 0 -50z"/>
<path d="M4400 1250 l0 -50 -50 0 -50 0 0 -50 0 -50 50 0 50 0 0 50 0 50 50 0
50 0 0 50 0 50 -50 0 -50 0 0 -50z"/>
<path d="M4400 950 l0 -50 50 0 50 0 0 50 0 50 -50 0 -50 0 0 -50z"/>
<path d="M4400 550 l0 -50 50 0 50 0 0 50 0 50 -50 0 -50 0 0 -50z"/>
<path d="M3400 700 l0 -200 50 0 50 0 0 200 0 200 -50 0 -50 0 0 -200z"/>
<path d="M3700 550 l0 -50 50 0 50 0 0 50 0 50 -50 0 -50 0 0 -50z"/>
<path d="M4000 400 l0 -200 50 0 50 0 0 200 0 200 -50 0 -50 0 0 -200z"/>
<path d="M0 700 l0 -700 200 0 200 0 0 100 0 100 100 0 100 0 0 500 0 500
-100 0 -100 0 0 100 0 100 -200 0 -200 0 0 -700z m400 0 l0 -500 -100 0 -100
0 0 500 0 500 100 0 100 0 0 -500z"/>
<path d="M800 1300 l0 -100 100 0 100 0 0 -500 0 -500 -100 0 -100 0 0 -100 0
-100 300 0 300 0 0 100 0 100 -100 0 -100 0 0 500 0 500 100 0 100 0 0 100 0
100 -300 0 -300 0 0 -100z"/>
<path d="M1600 700 l0 -700 300 0 300 0 0 100 0 100 -200 0 -200 0 0 500 0
500 200 0 200 0 0 100 0 100 -300 0 -300 0 0 -700z"/>
<path d="M2400 700 l0 -700 300 0 300 0 0 100 0 100 -200 0 -200 0 0 200 0
200 100 0 100 0 0 100 0 100 -100 0 -100 0 0 200 0 200 200 0 200 0 0 100 0
100 -300 0 -300 0 0 -700z"/>
</g>
</svg>
