<svg version="1.2" width="566.93" height="94.787" xml:space="preserve" xmlns="http://www.w3.org/2000/svg">
    <g style="fill:#f2f2f2" fill="#666">
        <path d="M122.813 19.344c0-2.409-.458-5.529-1.522-6.841 6.973 0 22.039.046 28.497.046 14.859 0 37.277 8.247 37.277 36.052 0 20.635-15.826 36.008-37.277 36.008-4.705 0-22.67-.058-29.044-.058 1.306-2.411 2.069-5.685 2.069-8.269zM133.5 77.543c6.858.892 13.189 1.165 18.917.347 5.542-.793 24.165-4.805 24.049-29.529-.109-23.431-14.581-28.788-25.731-29.443-5.819-.343-11.436-.123-17.236.881zM193.187 34.642l10.676-1.667v9.4c2.738-6.767 11.259-12.205 23.366-7.493l-2.838 7.433c-11.082-5.26-20.528-.646-20.528 11.661V79.37c0 1.209.264 3.648.985 5.213h-11.089c1.12-1.381 1.64-4.004 1.64-5.213V42.74c-.003-2.657-.545-6.77-2.212-8.098zM530.719 39.738v32.434c0 10.183 7.019 12.905 12.219 12.905 2.197.107 5.313-.406 7.488-.889l1.338-6.285c-2.535.97-5.481 1.197-7.25 1.197-3.26 0-5.617-2.164-5.617-5.549 0-3.037-.077-32.809 0-33.761h-.034c.432 0 7.196-.024 7.879 0 2.217.078 3.92.213 5.387.803l.008-5.919-13.239-.017.053-15.181-9.838 2.719c1.356 1.269 1.797 4.982 1.797 7.431l-.008 5.083c-.441 0-5.438.025-6.265.025v5.001l6.082.003zM488.193 74.036c4.229 3.021 10.866 5.703 15.733 5.703 6.752 0 11.588-3.285 11.588-9.469 0-11.414-26.022-9.522-26.022-24.004 0-9.792 8.756-13.476 17.1-13.476 2.683 0 8.806.582 12.697 2.088l-.031 6.688c-3.459-2.955-8.735-3.669-12.213-3.669-5.521 0-9.668 2.74-9.668 8.112 0 7.887 26.002 7.43 26.002 23.621 0 10.471-9.07 15.354-19.055 15.354-4.865 0-9.939-.862-14.16-2.071zM331.107 39.839c0-.592.021-5.895.021-6.574l-10.809 1.671c1.303 1.365 2.303 5.623 2.303 8.667v35.414c0 1.209-.519 4.143-1.641 5.521h11.784c-1.118-1.381-1.637-4.313-1.637-5.521V52.372c0-9.75 6.031-13.164 12.035-13.164 5.434 0 10.344 2.352 10.344 13.164v26.646c0 1.209-.52 4.142-1.637 5.521h11.428c-1.123-1.381-1.637-4.313-1.637-5.521V52.372c0-10.811 6.678-13.164 12.123-13.164 5.43 0 11.111 3.411 11.111 13.164v26.646c0 1.209-.515 4.142-1.642 5.521h11.008c-1.127-1.381-1.639-4.313-1.639-5.521V47.312c0-5.404-5.516-14.063-18.391-14.063-7.492 0-11.818 3.333-15.103 6.2-2.793-3.26-7.34-6.317-14.647-6.317-7.116-.003-11.319 4.17-13.374 6.707zM305.621 56.453c-1.543 1.453-4.773 2.579-8.107 3.019-8.762 1.147-16.352 2.604-16.352 11.137 0 5.063 5.52 9.048 9.891 9.048 11.578 0 14.57-8.353 14.57-14.935v-8.269ZM278.269 35.57c4.419-1.771 11.549-2.583 16.021-2.583 11.42 0 19.008 5.705 19.008 18.95v21.972c0 4.069.062 7.924 1.512 10.631h-9.178l-.332-5.78c-3.473 4.487-7.627 6.495-14.676 6.495-13.91 0-16.946-9.503-16.946-14.069 0-16.297 15.512-16.485 22.249-17.447 3.728-.526 8.521-1.58 9.244-5.074 1.188-5.78-2.942-10.114-11.385-10.114-6.197 0-11.273 1.885-15.514 4.422zm197.303 20.883c-1.541 1.453-4.773 2.579-8.109 3.019-8.76 1.147-16.348 2.604-16.348 11.137 0 5.063 5.516 9.048 9.887 9.048 11.576 0 14.57-8.353 14.57-14.935zM448.223 35.57c4.418-1.771 11.556-2.583 16.023-2.583 11.414 0 19.002 5.705 19.002 18.95v21.972c0 4.069-.887 7.841 1.508 10.631h-9.176l-.334-5.78c-3.478 4.487-7.625 6.495-14.674 6.495-13.902 0-16.943-9.503-16.943-14.069 0-16.297 15.512-16.485 22.246-17.447 3.729-.526 8.527-1.58 9.242-5.074 1.19-5.78-2.941-10.114-11.385-10.114-6.195 0-11.271 1.885-15.513 4.422v-7.4zM438.451 42.308c-3.443-2.012-8.879-3.605-12.67-3.605-13.312 0-19.412 8.185-19.412 19.976 0 11.68 5.965 20.625 18.983 20.625 4.462 0 10.535-2.006 15.25-4.902l-1.918 8.593c-4.799 1.428-8.842 2.108-14.194 2.108-18.295 0-26.871-12.977-26.871-26.479 0-14.921 11.504-25.417 27.072-25.417 6.805 0 11.771 1.668 13.776 2.238zM233.646 59.304c.008-1.234.172-2.41.31-3.55h35.401c0-12.169-6.087-22.608-20.505-22.608-14.965 0-23.85 11.703-23.85 26.63 0 13.498 9.891 25.56 26.832 25.56 5.356 0 9.834-1.319 14.669-3.012l1.701-8.63c-4.135 3.404-10.817 5.418-16.849 5.418-10.841 0-17.756-7.849-17.709-19.808zm1.431-8.948c1.149-5.92 6.628-11.952 13.184-11.952 10.018 0 12.917 7.817 12.917 11.952-.002 0-26.101.019-26.101 0z" style="fill:#f2f2f2"/>
    </g>
    <path fill="#CF3311" d="M65.058 1.288c3.969.596 8.026 1.984 10.141 2.63C79.46 5.22 86.376 9.269 88.82 11.209c1.157.918 3.585 3.323 4.528 4.533.917 1.179 2.667 3.733 3.783 5.308 1.781 2.597 3.874 6.466 5.648 10.025 1.984 3.978 2.12 5.13 2.721 8.455l1.311 5.862c.123 1.014.227 4.731-1.957 5.251-2.181.521-4.199-.483-5.15-1.955-1.316-2.036-1.133-4.926-2.623-8.234-1.161-2.674-1.666-6.561-3.521-9.355l-1.453-2.458c-2.573-3.96-5.253-7.103-6.851-9.153-1.411-1.723-4.04-4.064-6.531-5.729-2.306-1.398-6.032-2.993-8.719-3.813-.856-.279-4.524-1.357-6.8-1.66-3.093-.347-5.126-.836-8.063-1.043-3.63-.256-5.367-.578-10.074-.028-1.783.484-4.605.676-7.147 1.647-2.053.837-4.906 2.189-7.703 3.832-3.012 1.651-7.578 5.026-10.609 7.907-3.054 3.263-4.582 5.014-6.687 9.15-.931 2.046-2.736 5.213-3.464 7.447-.497 2.269-1.443 6.5-1.286 8.556.073 3.681-.25 4.44.027 7.45.01 2.71.899 4.588 1.27 6.806.315 1.53 1.787 6.828 2.694 8.062 4.129 8.9 9.675 12.755 15.856 15.537 1.742.888 7.191 2.346 8.767 2.763 2.69.485 6.227.81 9.633.875 3.583.069 8.522-.414 11.517-1.519 3.244-1.193 6.997-2.891 6.953-2.84 1.504-.832 3.802-2.187 4.516-2.781 1.383-.885 2.217-1.228 3.034-2.08 1.184-1.033 1.898-1.629 2.794-2.91a61.17 61.17 0 0 1 2.059-2.805c.83-1.36 1.307-2.793 2.116-4.564.968-2.623.818-2.496 1.003-5.277.175-.807-.02-3.519-.164-3.979-.437-2.502-.283-4.709-.856-7.139-.771-3.287-1.417-5.747-2.402-8.899-.929-3.549-3.656-6.838-5.702-9.188-1.268-1.457-5.201-4.895-10.658-7.043-1.538-.517-4.05-1.103-5.647-1.395-3.41-.356-3.965-.127-7.229.111-1.124.196-3.731.729-4.692 1.066-2.804.985-3.835 1.611-6.702 3.366-1.334.775-2.34 1.368-3.705 2.646-1.089 1.008-1.868 2.72-2.748 3.725-1.209 1.644-2.554 3.836-3.456 6.201-.978 2.353-1.293 5.664-1.143 7.795 0 1.621.441 4.598.616 5.246.176.65.616 2.67.71 3.076.097.405 1.145 2.541 1.292 2.853.593 1.261 1.726 3.069 3.633 4.919 1.411 1.54 4.133 3.05 6.174 3.635 1.828 1.006 4.912 1.174 6.62 1.178.839-.053 2.984-.184 4.103-.451 2.271-.545 2.688-.56 5.028-1.575 2.1-.974 3.523-1.325 4.986-2.403 0 0 2.007-1.572 2.919-2.724.481-.604 1.306-3.5 1.161-5.293-.069-2.453.289-3.845-.214-5.863-.5-2.019-1.354-4.358-2.281-5.8-.939-1.46-2.956-2.882-5.251-4.017-1.288-.636-4.333-1.224-5.627-1.376-2.453-.292-4.506.823-5.753 2.097-1.082 1.236-3.22 3.803-2.369 6.457.771 2.4 1.703 4.959 5.304 4.77 2.473.516 5.33-.229 6.283.207 1.413.803 1.955 2.573 1.443 3.811-.359 2.383-2.643 2.668-5.076 2.852-2.18.365-7.715-.702-8.93-1.613-.816-.484-2.067-1.647-2.946-2.435-.633-.568-1.346-1.828-1.837-2.734-.598-1.114-.903-1.933-1.057-2.657-.185-.86-.562-2.506-.419-4.149.099-1.108.394-1.582.688-3.203.589-1.84 1.32-3.239 2.498-4.834 1.532-1.556 3.479-3.408 5.38-4.269 1.676-.886 4.613-1.211 7.268-1.056 2.156.206 4.702.469 6.389 1.033 2.884 1.03 3.708 1.236 6.077 2.73 1.999 1.237 4.012 3.516 5.136 5.402 2.39 4.89 3.76 10.328 2.764 17.653-.081 1.236-.466 2.443-1.237 4.084-.714 1.511-1.96 3.35-3.838 4.732-.754.699-1.946 1.561-2.915 2.063-1.375.834-2.299 1.269-3.733 1.989-1.26.594-2.73 1.27-4.646 1.802-2.076.821-3.67.854-6.281 1.243-2.568.646-9.602.187-13.792-1.662-2.857-1.203-6.064-3.321-8.505-5.904-1.354-1.422-2.681-3.996-3.069-4.523-1.94-3.729-2.319-7.233-2.631-7.973-.422-1-.631-3.244-.916-4.779-.319-1.724-.122-8.941 1.617-13.573.981-1.845 1.555-3.49 2.217-4.353 1.193-1.696 1.769-2.755 2.782-3.957 1.528-1.852 2.64-3.364 4.127-4.431 3.793-3.083 6.959-4.711 11.245-6.746 5.324-2.168 6.923-1.72 11.964-1.639 2.267.02 5.566.733 7.189 1.027 3.012.401 4.738 1.127 6.773 1.695 2.178.608 3.436 1.58 5.226 2.659 1.47.949 3.202 2.251 4.345 3.308 2.927 2.146 4.337 4.401 6.131 7.171.327.464 2.455 5.002 2.794 6.266.158.633.638 2.449.949 3.511.396 1.685.591 3.176 1.036 5.078.396 1.957 1.072 5.652 1.364 9.107.495 2.965-.296 9.016-.76 10.871-1.035 3.463-2.85 7.69-6.428 11.762-1.519 1.804-3.135 3.199-5.003 4.717-1.427 1.189-2.653 1.886-4.861 3.202-2.996 1.788-5.276 2.931-9.477 4.573-1.71.549-3.866 1.271-6.188 1.75-4.499.408-9.123.805-14.169.206-5.047-.602-10.102-2.023-13.089-2.939-1.649-.618-4.841-1.955-6.178-2.68-.872-.44-3.793-2.438-4.288-2.918-2-1.237-6.479-5.449-9.371-9.375-.633-1.217-2.911-4.854-3.406-6.448-1.313-2.697-2.229-5.96-2.766-7.354C1.664 59.513.704 57.419.33 54.156c.042-.768-.154-2.577-.33-3.578.254-2.235-.086-4.339.358-6.773.39-2.053.904-2.91 1.028-4.766.121-.794 1.141-3.182 1.415-4.245.826-1.75 1.03-3.191 2.107-5.147 1.549-3.048 3.172-6.554 5.662-9.617.712-.95 2.729-3.228 3.416-4.017 1.625-1.625 2.578-1.881 4.421-3.51.19-.12 1.409-1.508 2.685-1.985 2.111-1.632 3.937-2.23 5.948-3.715 4.029-2.008 5.497-2.686 9.497-4.351 2.313-.825 5.534-1.28 6.694-1.73C45.44.585 47.682-.119 50.004.02c2.607-.024 5.234.162 7.855.4 1.766.102 4.072.188 7.199.868z" style="fill:#4365a2;fill-opacity:.94117647"/>
</svg>
