<?xml version="1.0" encoding="UTF-8"?>
<svg width="1e3" height="1000.001" enable-background="new 0 0 1000 1000" version="1.1" viewBox="0 0 1e3 1000.001" xml:space="preserve" xmlns="http://www.w3.org/2000/svg">

<g transform="matrix(1.1510805,0,0,1.1510666,-75.547713,-75.547537)" fill="#ff4747">
	<g fill="#ff4747">
		<path d="m500.006 934.393c-239.516 0-434.374-194.862-434.374-434.379 0-239.52 194.858-434.381 434.374-434.381 239.513 0 434.375 194.862 434.375 434.381 0 239.516-194.861 434.379-434.375 434.379zm73.521-602.394h-245.486l-37.247 59.858h245.204zm50.168 0.571-150.071 238.963h-166.464l38.405-59.909h99.771l38.112-59.88h-230.654l-38.104 59.88h54.641l-75.812 119.611h316.389l116.86-184.295 42.609 64.684h-38.42l-36.385 59.909h113.773l39.506 59.702h72.576z" clip-rule="evenodd" fill="#ff4747" fill-rule="evenodd"/>
	</g>
</g>
</svg>
