<?xml version="1.0" encoding="UTF-8" standalone="no"?>
<!-- Created by ERK -->

<svg
   width="400mm"
   height="200mm"
   viewBox="0 0 400 200"
   version="1.1"
   id="svg1"
   inkscape:version="1.4 (86a8ad7, 2024-10-11)"
   sodipodi:docname="eagames-w.svg"
   xml:space="preserve"
   xmlns:inkscape="http://www.inkscape.org/namespaces/inkscape"
   xmlns:sodipodi="http://sodipodi.sourceforge.net/DTD/sodipodi-0.dtd"
   xmlns="http://www.w3.org/2000/svg"
   xmlns:svg="http://www.w3.org/2000/svg"><sodipodi:namedview
     id="namedview1"
     pagecolor="#ffffff"
     bordercolor="#000000"
     borderopacity="0.25"
     inkscape:showpageshadow="2"
     inkscape:pageopacity="0.0"
     inkscape:pagecheckerboard="true"
     inkscape:deskcolor="#d1d1d1"
     inkscape:document-units="mm"
     inkscape:zoom="1.1647372"
     inkscape:cx="778.71643"
     inkscape:cy="350.72289"
     inkscape:window-width="3840"
     inkscape:window-height="2066"
     inkscape:window-x="-11"
     inkscape:window-y="-11"
     inkscape:window-maximized="1"
     inkscape:current-layer="svg1" /><defs
     id="defs1"><marker
       id="DistanceX"
       orient="auto"
       refX="0"
       refY="0"
       style="overflow:visible"><path
         d="M 3,-3 -3,3 M 0,-5 V 5"
         style="stroke:#000000;stroke-width:0.5"
         id="path1" /></marker><pattern
       id="Hatch"
       patternUnits="userSpaceOnUse"
       width="8"
       height="8"
       x="0"
       y="0"><path
         d="M8 4 l-4,4"
         stroke="#000000"
         stroke-width="0.25"
         linecap="square"
         id="path2-8" /><path
         d="M6 2 l-4,4"
         stroke="#000000"
         stroke-width="0.25"
         linecap="square"
         id="path3-8" /><path
         d="M4 0 l-4,4"
         stroke="#000000"
         stroke-width="0.25"
         linecap="square"
         id="path4" /></pattern><symbol
       id="*Model_Space" /><symbol
       id="*Paper_Space" /><symbol
       id="*Paper_Space0" /></defs><g
     id="g1"
     inkscape:label="Logo"
     transform="translate(95.363927,31.961775)"><path
       id="path3"
       style="clip-rule:evenodd;display:inline;fill:#ff4747;fill-opacity:1;fill-rule:evenodd;stroke-width:0.304555"
       d="M 43.224405,0 31.880395,18.229895 H 106.55904 L 117.98883,0 Z M 133.26749,0.173633 87.562269,72.950583 H 36.864587 l 11.696443,-18.2454 h 30.386259 l 11.60704,-18.23661 H 20.307458 L 8.702481,54.705183 h 16.641362 l -23.08903,36.42776 h 96.357946 l 35.590591,-56.12733 12.97698,19.69957 h -11.70109 l -11.08149,18.2454 h 34.65059 l 12.03183,18.18236 h 22.10356 z"
       inkscape:label="EA" /><g
       inkscape:label="Games"
       id="g101"
       transform="matrix(0.11667724,0,0,0.11667724,0,5.103727)"><path
         id="path22"
         style="fill:#0097da;fill-opacity:1;stroke:none;stroke-width:4.28533;stroke-linecap:round;stroke-dasharray:none"
         d="m 144.62777,935.433 v 54.803 H 241.89 v 71.814 H 58.5827 V 857.953 H 241.89 v 34.975 h 58.582 l 2.2e-4,-42.53415 c 2.2e-4,-27.13603 -21.99776,-49.13401 -49.13343,-49.13393 H 49.133879 C 21.997977,801.25984 -1.1045694e-6,823.25782 0,850.39385 v 222.99405 c -2.3195974e-5,27.1338 21.997961,49.1318 49.133879,49.132 H 251.33879 c 27.13569,-2e-4 49.13367,-21.9982 49.13343,-49.132 L 300.472,935.433 Z"
         sodipodi:nodetypes="ccccccccccccccccccc"
         inkscape:label="G" /><path
         d="m 451.85319,801.25914 -145.7099,321.26246 h 60.46923 l 31.45038,-71.8119 h 163.87326 l 31.45038,71.8119 H 653.8602 L 508.14587,801.25914 Z m 28.14634,62.36485 57.10762,130.38996 H 422.89191 Z"
         style="fill:#0097da;stroke:none;stroke-width:4.28533;stroke-linecap:round;stroke-dasharray:none"
         id="path16"
         inkscape:label="A" /><path
         d="m 687.87498,801.25914 v 321.26246 h 49.13097 V 897.39516 L 845.66721,1084.72 h 13.22945 L 967.55792,897.39516 v 225.12644 h 49.13098 V 801.25914 H 967.55792 L 852.28415,997.79633 737.00595,801.25914 Z"
         style="fill:#0097da;fill-opacity:1;stroke:none;stroke-width:4.28533;stroke-linecap:round;stroke-dasharray:none"
         id="path13"
         inkscape:label="M" /><path
         d="m 1073.389,801.25914 v 321.26246 h 258.8888 v -60.4737 h -200.3063 v -79.3722 h 115.2694 v -52.91335 h -115.2694 v -71.80749 h 200.3063 v -56.69572 z"
         style="fill:#0097da;fill-opacity:1;stroke:none;stroke-width:4.28533;stroke-linecap:round;stroke-dasharray:none"
         id="path14"
         inkscape:label="E" /><path
         id="path80"
         style="fill:#0097da;fill-opacity:1;stroke:none;stroke-width:4.28533;stroke-linecap:round;stroke-dasharray:none"
         d="m 1439.28,1065.83 h 157.57 v -79.373 l -158.7399,-1.5e-4 c -27.1358,-1.9e-4 -49.1337,-21.99816 -49.1319,-49.13393 v -86.92907 c 0,-27.13601 21.9961,-49.13398 49.1319,-49.13393 h 164.4097 c 27.1358,-5e-5 49.1337,21.99792 49.132,49.13393 V 897.397 h -56.69 v -39.444 h -145.51 v 75.59 l 158.7395,1.5e-4 c 27.1354,1.9e-4 49.1333,21.99816 49.1319,49.13393 v 90.71082 c 0,27.1338 -21.9965,49.1318 -49.1319,49.132 H 1424.881 c -27.135,-2e-4 -49.133,-21.9982 -49.132,-49.132 l 10e-4,-52.9179 h 63.53 z"
         sodipodi:nodetypes="ccccccccccccccccccccccc"
         inkscape:label="S" /><path
         d="m 1675.238,801.25914 v 11.33825 h 15.1206 v 52.91335 h 11.3427 v -52.91335 h 15.1206 v -11.33825 z"
         style="fill:#0097da;fill-opacity:1;stroke:none;stroke-width:4.28533;stroke-linecap:round;stroke-dasharray:none"
         id="path10"
         inkscape:label="T" /><path
         d="m 1727.8103,801.25914 -11.0017,64.2516 h 13.2295 l 6.2714,-39.26315 14.1684,35.48521 h 9.4515 l 14.1684,-35.48521 6.2715,39.26315 h 13.2294 l -10.9883,-64.2516 h -13.2295 l -14.1728,41.57509 -14.1772,-41.57509 z"
         style="fill:#0097da;fill-opacity:1;stroke:none;stroke-width:4.28533;stroke-linecap:round;stroke-dasharray:none"
         id="path11"
         inkscape:label="M" /></g></g></svg>
