<svg xmlns="http://www.w3.org/2000/svg" width="638" height="215" style="shape-rendering:geometricPrecision;text-rendering:geometricPrecision;image-rendering:optimizeQuality;fill-rule:evenodd;clip-rule:evenodd">
    <path style="opacity:1" fill="#f7f7f7" d="M356.5 29.5c26.163.832 52.497 1.332 79 1.5l-8 4 1 1-69 1c-1.803 2.102-4.136 2.936-7 2.5.284-1.915-.049-3.581-1-5v-22c-1.599-.268-2.932.066-4 1a20.676 20.676 0 0 0-5 1 72.442 72.442 0 0 0-12 .5c-2.153.1-3.819.933-5 2.5-2.433-.227-4.099.773-5 3-2.923.663-3.59 2.33-2 5 2.587.554 4.92 1.554 7 3v15c-1.644.214-3.144-.12-4.5-1a60.93 60.93 0 0 1-.5-11c-1.291-.237-2.291.096-3 1-.992-.172-1.658.162-2 1h-2c-1.294-1.548-1.961-3.548-2-6 .279-3.68.612-7.346 1-11 1.406-.473 2.073-1.473 2-3 .473-1.406 1.473-2.073 3-2 2.897-.629 5.564-1.629 8-3h1l20-3c2.982-.463 5.982-.796 9-1-.326 8.517.007 16.85 1 25Z"/>
    <path style="opacity:1" fill="#c0bfc0" d="M353.5 3.5h3v26c-.993-8.15-1.326-16.483-1-25-3.018.204-6.018.537-9 1v-1a21.446 21.446 0 0 1 7-1Z"/>
    <path style="opacity:.71" fill="#121110" d="M452.5 26.5c0 1.333-.667 2-2 2h-93v-26c-1.599-.268-2.932.066-4 1a21.446 21.446 0 0 0-7 1 741.774 741.774 0 0 0-19 2.5c-.556.383-.889.883-1 1.5h-1c-3.216-.155-5.883.845-8 3-1.527-.073-2.527.594-3 2-1.406.473-2.073 1.473-2 3-1.424 2.015-2.09 4.348-2 7-.802 1.452-1.302 3.118-1.5 5-.198-1.882-.698-3.548-1.5-5 .192-5.633-2.141-9.633-7-12-4.343-2.185-9.009-3.685-14-4.5a898.449 898.449 0 0 1-24-3.5c-.709-.904-1.709-1.237-3-1v26h-125c-.237 1.291.096 2.291 1 3h1c.8 2.074 2.133 3.74 4 5l10 11h-1a414.706 414.706 0 0 1-17.5-17c-.507-1.496-.007-2.663 1.5-3.5 41.665-.5 83.332-.667 125-.5V.5a515.532 515.532 0 0 1 42 7.5c4.766 2.43 7.6 6.263 8.5 11.5 1.523-6.201 5.356-10.368 11.5-12.5a404.081 404.081 0 0 1 38-6.5v26h94Z"/>
    <path style="opacity:1" fill="#9c9b9b" d="M325.5 8.5c-2.436 1.371-5.103 2.371-8 3 2.117-2.155 4.784-3.155 8-3Z"/>
    <path style="opacity:1" fill="#828282" d="M346.5 4.5v1l-20 3c.111-.617.444-1.117 1-1.5a741.774 741.774 0 0 1 19-2.5Z"/>
    <path style="opacity:1" fill="#a6a6a6" d="M260.5 4.5c.342-.838 1.008-1.172 2-1a898.449 898.449 0 0 0 24 3.5c4.991.815 9.657 2.315 14 4.5a370.65 370.65 0 0 0-40-7Z"/>
    <path style="opacity:1" fill="#72393c" d="M269.5 13.5h1v1c-1.975 9.946-2.642 20.28-2 31v4h-1c-.646-12.38.021-24.38 2-36Z"/>
    <path style="opacity:1" fill="#805959" d="M347.5 13.5h3v36h-1v-35c-1.599-.268-2.932.066-4 1h-3v-1a20.676 20.676 0 0 1 5-1Z"/>
    <path style="opacity:1" fill="#908e8e" d="M314.5 13.5c.073 1.527-.594 2.527-2 3-.073-1.527.594-2.527 2-3Z"/>
    <path style="opacity:1" fill="#887b7a" d="M342.5 14.5v1a805.745 805.745 0 0 0-16 2h-1c1.181-1.567 2.847-2.4 5-2.5a72.442 72.442 0 0 1 12-.5Z"/>
    <path style="opacity:1" fill="#8b3f3b" d="M325.5 17.5h1a607.576 607.576 0 0 1-6 3c.901-2.227 2.567-3.227 5-3Z"/>
    <path style="opacity:.996" fill="#4a4a4a" d="M307.5 23.5c.802 1.452 1.302 3.118 1.5 5 .198-1.882.698-3.548 1.5-5v11c-2.235.295-4.235-.039-6-1h3v-10Z"/>
    <path style="opacity:1" fill="#7b7a7b" d="M262.5 3.5c-.992-.172-1.658.162-2 1v25c-42.013-.661-83.68.006-125 2-.904-.709-1.237-1.709-1-3h125v-26c1.291-.237 2.291.096 3 1Z"/>
    <path style="opacity:1" fill="#d91b22" d="M342.5 15.5h6v27c-6.877.097-13.544.097-20 0 .318-4.532-.015-8.866-1-13-2.043-3.205-5.043-5.205-9-6a184.223 184.223 0 0 0 2-3 607.576 607.576 0 0 0 6-3 805.745 805.745 0 0 1 16-2Z"/>
    <path style="opacity:1" fill="#757575" d="M353.5 3.5c1.068-.934 2.401-1.268 4-1v26h93c.172.992-.162 1.658-1 2-4.134-.985-8.468-1.318-13-1h-80v-26h-3Z"/>
    <path style="opacity:1" fill="#d7d7d8" d="m260.5 29.5-124 2h-1c41.32-1.994 82.987-2.661 125-2Z"/>
    <path style="opacity:1" fill="#b0afaf" d="M312.5 16.5c-.388 3.654-.721 7.32-1 11 .039 2.452.706 4.452 2 6-.709.904-1.709 1.237-3 1v-11c-.09-2.652.576-4.985 2-7Z"/>
    <path style="opacity:1" fill="#a8a8a8" d="M436.5 29.5c4.532-.318 8.866.015 13 1-1.645.979-2.979 2.312-4 4-3.523.635-6.856 1.635-10 3h-3c3.37-1.193 6.036-3.36 8-6.5-1.558-.21-2.891-.71-4-1.5Z"/>
    <path style="opacity:1" fill="#f4f5f5" d="M260.5 4.5a370.65 370.65 0 0 1 40 7c4.859 2.367 7.192 6.367 7 12v10h-5c0-.667-.333-1-1-1-1.068-.934-2.401-1.268-4-1v11c-1.542.8-3.208 1.134-5 1v-14c1.573-3.393 4.24-4.726 8-4 .609-3.378-.724-5.378-4-6-.843-1.673-2.176-2.84-4-3.5a40.939 40.939 0 0 0-9-.5c-4.157-.949-8.49-1.616-13-2h-1c-.709-.904-1.709-1.237-3-1v26c-.951 1.419-1.284 3.085-1 5-3.542.313-6.875-.02-10-1l2-3c.904-.709 1.237-1.709 1-3-39.394.063-78.727.063-118 0-1.867-1.26-3.2-2.926-4-5l124-2v-25Z"/>
    <path style="opacity:1" fill="#9f9b9b" d="M283.5 16.5v-1a40.939 40.939 0 0 1 9 .5c1.824.66 3.157 1.827 4 3.5-3.95-2.38-8.284-3.38-13-3Z"/>
    <path style="opacity:1" fill="#dd1d24" d="M272.5 15.5a39.704 39.704 0 0 0 11 1c4.716-.38 9.05.62 13 3a512.469 512.469 0 0 0 3 4c-4.125.481-7.125 2.481-9 6h-1c-.817 2.469-1.317 5.135-1.5 8l-3-3c-3.744.51-7.744.51-12 0l-3 3a242.43 242.43 0 0 1-.5-22h3Z"/>
    <path style="opacity:1" fill="#8d716f" d="M270.5 14.5v-1c4.51.384 8.843 1.051 13 2v1a39.704 39.704 0 0 1-11-1c-.342-.838-1.008-1.172-2-1Z"/>
    <path style="opacity:1" fill="#38302a" d="M484.5 27.5c.558 1.29 1.558 2.123 3 2.5a38.47 38.47 0 0 0-5 5.5c-1.285 1.952-2.951 3.618-5 5a49.923 49.923 0 0 1-4-6c3.15-3.08 6.817-5.413 11-7Z"/>
    <path style="opacity:1" fill="#8b8383" d="M296.5 19.5c3.276.622 4.609 2.622 4 6-3.76-.726-6.427.607-8 4-.99 6.145-1.323 12.478-1 19h6v-17c1.599-.268 2.932.066 4 1h-3v17c-2.885.306-5.552-.027-8-1v-19c1.875-3.519 4.875-5.519 9-6a512.469 512.469 0 0 1-3-4Z"/>
    <path style="opacity:1" fill="#828080" d="M320.5 20.5c-.641.982-1.307 1.982-2 3 3.957.795 6.957 2.795 9 6v20h-8c-.988-5.14-1.321-10.474-1-16h-3c.342-.838 1.008-1.172 2-1 1.954 4.892 2.954 10.226 3 16h6c.324-6.854-.009-13.521-1-20-2.08-1.446-4.413-2.446-7-3-1.59-2.67-.923-4.337 2-5Z"/>
    <path style="opacity:1" fill="#cfd0d1" d="M356.5 29.5h80c1.109.79 2.442 1.29 4 1.5-1.964 3.14-4.63 5.307-8 6.5a1296.9 1296.9 0 0 0-72 1c.355 1.022 1.022 1.689 2 2 .889 2.236 2.222 4.236 4 6-4.667 1.333-9.333 1.333-14 0a40.285 40.285 0 0 1-1-12c.951 1.419 1.284 3.085 1 5 2.864.436 5.197-.398 7-2.5l69-1-1-1 8-4a3102.788 3102.788 0 0 1-79-1.5Z"/>
    <path style="opacity:1" fill="#2d231b" d="M482.5 35.5a38.47 38.47 0 0 1 5-5.5c-1.442-.377-2.442-1.21-3-2.5a26.695 26.695 0 0 1 7-5c.543-.06.876-.393 1-1-7.49-1.32-14.823-1.32-22 0a156.857 156.857 0 0 0-20 13 2149.377 2149.377 0 0 0 0 131c1.022-.355 1.689-1.022 2-2a159.793 159.793 0 0 0 18-12 3532.219 3532.219 0 0 0 1.5-84 638.771 638.771 0 0 1 19.5-13c.543-.06.876-.393 1-1-6.634-.997-13.3-1.33-20-1a86.751 86.751 0 0 1 1-18 49.923 49.923 0 0 0 4 6c-1.768 2.663-2.435 5.663-2 9 6.675-.166 13.342 0 20 .5 1.624 3.206.958 5.872-2 8L476 69.5a1803.929 1803.929 0 0 1-2 84 136.741 136.741 0 0 1-24.5 16c-1.147-.318-1.981-.984-2.5-2a15.256 15.256 0 0 1-1.5 4.5l-19 13c-2.789 1.664-5.623 1.83-8.5.5a481.165 481.165 0 0 1-.5-31c-20.003-.167-40.003 0-60 .5a632.785 632.785 0 0 1-2 12.5v-11c-1.126-1.358-1.126-2.692 0-4l6 1c17.461-.654 34.794-1.32 52-2v-98a650.846 650.846 0 0 0-51-1l-1-2 9-2h1c2.31.664 4.81.997 7.5 1a1543.251 1543.251 0 0 1 41.5-1.5c5.118-2.639 9.785-5.805 14-9.5.667 0 1-.333 1-1 3.144-1.365 6.477-2.365 10-3 1.021-1.688 2.355-3.021 4-4 .838-.342 1.172-1.008 1-2 1.333 0 2-.667 2-2a160.454 160.454 0 0 0 13-8.5c10-.667 20-.667 30 0 1.076 1.726 1.243 3.56.5 5.5a245.066 245.066 0 0 0-13.5 12Z"/>
    <path style="opacity:1" fill="#fcfcfc" d="M470.5 21.5c7.187-.325 14.187.009 21 1a26.695 26.695 0 0 0-7 5c-4.183 1.587-7.85 3.92-11 7-1.956 5.912-2.623 12.245-2 19 6.854-.324 13.521.01 20 1a638.771 638.771 0 0 0-19.5 13 3532.219 3532.219 0 0 1-1.5 84 159.793 159.793 0 0 1-18 12c-1.995-42.654-2.661-85.654-2-129a156.857 156.857 0 0 1 20-13Z"/>
    <path style="opacity:1" fill="#bab9ba" d="M470.5 21.5c7.177-1.32 14.51-1.32 22 0-.124.607-.457.94-1 1-6.813-.991-13.813-1.325-21-1Z"/>
    <path style="opacity:1" fill="#ced2d3" d="M140.5 36.5c39.273.063 78.606.063 118 0 .237 1.291-.096 2.291-1 3-17.32-1.333-34.987-2-53-2l-53 1c.355 1.022 1.022 1.689 2 2h1c1.043 2.556 2.71 4.723 5 6.5a32.438 32.438 0 0 1-8 .5h-1l-10-11Z"/>
    <path style="opacity:1" fill="#7a6e6d" d="m257.5 39.5-2 3c-2.414 1.41-4.081 3.41-5 6-2.198.091-2.531-.575-1-2l4-5c.667 0 1-.333 1-1 .789-.283 1.456-.783 2-1.5l-51.5-.5c-17.513 0-34.68.667-51.5 2-.978-.311-1.645-.978-2-2l53-1c18.013 0 35.68.667 53 2Z"/>
    <path style="opacity:1" fill="#c9181f" d="M270.5 14.5c.992-.172 1.658.162 2 1h-3c-.166 7.34 0 14.674.5 22l3-3c4.256.51 8.256.51 12 0l3 3c.183-2.865.683-5.531 1.5-8 .404 5.79-.096 11.456-1.5 17a116.938 116.938 0 0 0-19.5-1c-.642-10.72.025-21.054 2-31Z"/>
    <path style="opacity:1" fill="#736664" d="M432.5 37.5h3c0 .667-.333 1-1 1-24.357-.657-48.357.01-72 2-.978-.311-1.645-.978-2-2a1296.9 1296.9 0 0 1 72-1Z"/>
    <path style="opacity:1" fill="#e8e8e9" d="M450.5 34.5c-.661 43.346.005 86.346 2 129-.311.978-.978 1.645-2 2a2149.377 2149.377 0 0 1 0-131Z"/>
    <path style="opacity:1" fill="#971e1f" d="M254.5 40.5c-33-1.333-66-1.333-99 0h-2c16.82-1.333 33.987-2 51.5-2l51.5.5c-.544.717-1.211 1.217-2 1.5Z"/>
    <path style="opacity:1" fill="#5e5a58" d="M441.5 39.5c.06-.543.393-.876 1-1a2149.377 2149.377 0 0 1 0 131c.332-43.503-.001-86.837-1-130Z"/>
    <path style="opacity:1" fill="silver" d="M292.5 29.5v14c1.792.134 3.458-.2 5-1v6h-6c-.323-6.522.01-12.855 1-19Z"/>
    <path style="opacity:1" fill="#c7161c" d="M422.5 39.5c-6.087 1.586-12.42 2.42-19 2.5a650.523 650.523 0 0 0-35 1.5 5.577 5.577 0 0 0-3-1c-1-.333-1.667-1-2-2a870.829 870.829 0 0 1 59-1Z"/>
    <path style="opacity:1" fill="#fdfdfd" d="M441.5 39.5a4224.728 4224.728 0 0 1 1 130l-20 13a4224.711 4224.711 0 0 1-1-130c6.63-4.32 13.297-8.653 20-13Z"/>
    <path style="opacity:1" fill="#be161c" d="M254.5 40.5c0 .667-.333 1-1 1-2.917.791-5.75.791-8.5 0a9.465 9.465 0 0 1-2.5 1.5c-27.998.5-55.998.667-84 .5a6.544 6.544 0 0 1-3-3c33-1.333 66-1.333 99 0Z"/>
    <path style="opacity:1" fill="#c1c1c1" d="M325.5 28.5c.991 6.479 1.324 13.146 1 20h-6c-.046-5.774-1.046-11.108-3-16 .709-.904 1.709-1.237 3-1a60.93 60.93 0 0 0 .5 11c1.356.88 2.856 1.214 4.5 1v-15Z"/>
    <path style="opacity:1" fill="#b4141b" d="M345.5 15.5c1.068-.934 2.401-1.268 4-1v31a98.282 98.282 0 0 0-19.5 1 10.136 10.136 0 0 1-1.5-4c6.456.097 13.123.097 20 0v-27h-3Z"/>
    <path style="opacity:1" fill="#a01116" d="m253.5 41.5-4 5a516.513 516.513 0 0 1-44.5 2l-42.5-.5c-.544-.717-1.211-1.217-2-1.5l-2-3c28.002.167 56.002 0 84-.5a9.465 9.465 0 0 0 2.5-1.5c2.75.791 5.583.791 8.5 0Z"/>
    <path style="opacity:1" fill="silver" d="M266.5 38.5v10h-16c.919-2.59 2.586-4.59 5-6 3.125.98 6.458 1.313 10 1-.284-1.915.049-3.581 1-5Z"/>
    <path style="opacity:1" fill="#ab1319" d="M422.5 39.5a13.118 13.118 0 0 1 7 1 75.66 75.66 0 0 1-16 6.5c-14.044.2-28.044.7-42 1.5h-1l-5-6a5.577 5.577 0 0 1 3 1 650.523 650.523 0 0 1 35-1.5c6.58-.08 12.913-.914 19-2.5Z"/>
    <path style="opacity:1" fill="#961619" d="M289.5 29.5h1v19a127.743 127.743 0 0 1-22 1v-4c6.437-.215 12.937.118 19.5 1 1.404-5.544 1.904-11.21 1.5-17Z"/>
    <path style="opacity:1" fill="#951619" d="M327.5 29.5c.985 4.134 1.318 8.468 1 13a10.136 10.136 0 0 0 1.5 4 98.282 98.282 0 0 1 19.5-1v4c-5.676-.166-11.343 0-17 .5-1.773 1.802-3.44 1.635-5-.5v-20Z"/>
    <path style="opacity:1" fill="#9d9c9d" d="M347.5 13.5c1.068-.934 2.401-1.268 4-1v22c-.266 4.07.067 8.07 1 12 4.667 1.333 9.333 1.333 14 0-1.778-1.764-3.111-3.764-4-6h1c.333 1 1 1.667 2 2l5 6-9 2c-1.603 1.177-2.936 1.01-4-.5a24.939 24.939 0 0 0-7-.5v-36h-3Z"/>
    <path style="opacity:1" fill="#7c7373" d="M154.5 40.5h1a6.544 6.544 0 0 0 3 3l2 3c-1.014 1.265-2.514 1.931-4.5 2-1.707-.008-3.207-.342-4.5-1a32.438 32.438 0 0 0 8-.5c-2.29-1.777-3.957-3.944-5-6.5Z"/>
    <path style="opacity:1" fill="#8f1215" d="M434.5 38.5c-4.215 3.695-8.882 6.861-14 9.5-13.841.314-27.674.814-41.5 1.5-2.69-.003-5.19-.336-7.5-1 13.956-.8 27.956-1.3 42-1.5a75.66 75.66 0 0 0 16-6.5 13.118 13.118 0 0 0-7-1c-19.84-.33-39.507.003-59 1h-1c23.643-1.99 47.643-2.657 72-2Z"/>
    <path style="opacity:1" fill="#939696" d="M269.5 13.5c-1.979 11.62-2.646 23.62-2 36-5.858.322-11.525-.011-17-1h16v-36c1.291-.237 2.291.096 3 1Z"/>
    <path style="opacity:1" fill="#1b140e" d="M302.5 33.5h2c1.765.961 3.765 1.295 6 1 1.291.237 2.291-.096 3-1h5c-.321 5.526.012 10.86 1 16 2.528.666 5.194 1.332 8 2-.124.607-.457.94-1 1h-22c-1.052-1.756-2.719-2.423-5-2-.321-5.195.013-10.195 1-15v13h16a84.9 84.9 0 0 0-.5-13 9.208 9.208 0 0 1-4.5 2c-1.667-1.333-3.333-1.333-5 0-2.192-.257-3.859-1.257-5-3 0-.667.333-1 1-1Z"/>
    <path style="opacity:1" fill="#7e7b79" d="M473.5 34.5a86.751 86.751 0 0 0-1 18c6.7-.33 13.366.003 20 1-.124.607-.457.94-1 1-6.479-.99-13.146-1.324-20-1-.623-6.755.044-13.088 2-19Z"/>
    <path style="opacity:1" fill="#fefefe" d="M413.5 53.5v97h-50v-97h50Z"/>
    <path style="opacity:1" fill="#bbb9b9" d="M362.5 52.5c17.175-.33 34.175.003 51 1h-50v97h50v1h-51v-99Z"/>
    <path style="opacity:1" fill="#d0cecf" d="M421.5 52.5c-.332 43.503.001 86.837 1 130-.06.543-.393.876-1 1a2149.377 2149.377 0 0 1 0-131Z"/>
    <path style="opacity:1" fill="#2e241c" d="M301.5 32.5c.667 0 1 .333 1 1-.667 0-1 .333-1 1-.667 0-1 .333-1 1-.987 4.805-1.321 9.805-1 15 2.281-.423 3.948.244 5 2v91l-4 2c-1.992-30.649-2.659-61.649-2-93-14.682-.333-29.348 0-44 1 .124.607.457.94 1 1a155.205 155.205 0 0 0 20 13c-.333 38.672 0 77.339 1 116 .607-.124.94-.457 1-1l26-16c.667 5.514 1.333 11.181 2 17 .607-.124.94-.457 1-1a43548.69 43548.69 0 0 0 48-31c1-32.66 1.333-65.326 1-98-7.148-.992-14.481-1.325-22-1v91c-1.562.233-2.895.9-4 2a2109.433 2109.433 0 0 1-3-92v-1c.543-.06.876-.393 1-1a345.429 345.429 0 0 1-8-2h8c1.56 2.135 3.227 2.302 5 .5 5.657-.5 11.324-.666 17-.5h1c2.357-.163 4.69.003 7 .5 1.064 1.51 2.397 1.677 4 .5l1 2v99h51c-17.206.68-34.539 1.346-52 2l-6-1c-1.126 1.308-1.126 2.642 0 4-4.584 1.582-7.917 4.582-10 9h-1c-.017-1.528-.684-2.028-2-1.5a344.857 344.857 0 0 0-15 10.5c-.992-.172-1.658.162-2 1a129.055 129.055 0 0 0-18 12h-1a29.555 29.555 0 0 1-5-3 21.127 21.127 0 0 0-1-9c-.607.124-.94.457-1 1-2.883-1.373-5.217-.707-7 2-.985 4.134-1.318 8.468-1 13-.33 7.032.003 14.032 1 21 2.353-2.023 4.686-4.023 7-6-1.624 3.29-3.957 5.957-7 8h-2c.167-11.671 0-23.338-.5-35a207.455 207.455 0 0 1-14.5 10c.237-1.291-.096-2.291-1-3-1.442-1.32-2.108-2.986-2-5l-2-2c1.333-16.82 2-33.987 2-51.5 0-17.337-.333-34.503-1-51.5h-18c-.985 4.134-1.318 8.468-1 13 .215 1.679-.452 2.679-2 3a400.453 400.453 0 0 0-1-40h-51a1554.232 1554.232 0 0 0 48-2.5 625.219 625.219 0 0 0-50 0c-.916.278-1.582.778-2 1.5h-77c-.592 3.13.408 5.464 3 7a338.854 338.854 0 0 1 16 26c-6.25 1.959-12.916 2.626-20 2-.237 1.291.096 2.291 1 3 0 .667.333 1 1 1a2649.642 2649.642 0 0 1 38 59v1l-6-3a670.734 670.734 0 0 1-37-58.5c-.016-2.305.984-3.972 3-5l14-1A1181.451 1181.451 0 0 0 114 55.5c-.896-2.525-.396-4.692 1.5-6.5 11.507-.17 22.841-.67 34-1.5h2c1.293.658 2.793.992 4.5 1 1.986-.069 3.486-.735 4.5-2 .789.283 1.456.783 2 1.5l42.5.5a516.513 516.513 0 0 0 44.5-2c-1.531 1.425-1.198 2.091 1 2 5.475.989 11.142 1.322 17 1h1c7.42.297 14.754-.036 22-1 2.448.973 5.115 1.306 8 1v-17h3Z"/>
    <path style="opacity:1" fill="#560909" d="M253.5 58.5a252.334 252.334 0 0 0 12 7.5 72.442 72.442 0 0 1-12 .5v-8Z"/>
    <path style="opacity:1" fill="#acaaaa" d="M304.5 52.5h22v1h-21c.331 30.171-.002 60.171-1 90v-91Z"/>
    <path style="opacity:1" fill="#b8b7b7" d="M355.5 53.5h-21c.331 30.171-.002 60.171-1 90v-91c7.519-.325 14.852.008 22 1Z"/>
    <path style="opacity:1" fill="#999796" d="M300.5 145.5c-.709.904-1.709 1.237-3 1v-93a441.612 441.612 0 0 0-42 1c-.543-.06-.876-.393-1-1 14.652-1 29.318-1.333 44-1-.659 31.351.008 62.351 2 93Z"/>
    <path style="opacity:1" fill="#fdfdfd" d="m300.5 145.5 4-2a2026.415 2026.415 0 0 0 1-90h21v93c1.291.237 2.291-.096 3-1 1.105-1.1 2.438-1.767 4-2a2026.415 2026.415 0 0 0 1-90h21c.333 32.674 0 65.34-1 98a43548.69 43548.69 0 0 1-48 31 2740.153 2740.153 0 0 1-2-17c-.607.124-.94.457-1 1l-26 16-2-115a155.205 155.205 0 0 1-20-13 441.612 441.612 0 0 1 42-1v93c1.291.237 2.291-.096 3-1Z"/>
    <path style="opacity:1" fill="#928e8d" d="M326.5 53.5a2109.433 2109.433 0 0 0 3 92c-.709.904-1.709 1.237-3 1v-93Z"/>
    <path style="opacity:1" fill="#fdfdfd" d="M246.5 89.5a125.431 125.431 0 0 1-18-11c-.929-1.189-1.262-2.522-1-4h-6a729.545 729.545 0 0 0-1 54h7v-3a100.148 100.148 0 0 1 20-13 342.787 342.787 0 0 1 1 37h-49v-96h49c.646 12.38-.021 24.38-2 36ZM193.5 52.5v26h-31c-.446 2.51.22 4.51 2 6 .838.342 1.172 1.008 1 2 8.94 1.972 18.273 2.639 28 2v25h-32c-.237 1.291.096 2.291 1 3-.073 1.527.594 2.527 2 3 1.406.473 2.073 1.473 2 3 8.818.993 17.818 1.327 27 1v26h-37a2649.642 2649.642 0 0 0-38-59c6.587-1.961 13.587-2.628 21-2 .343-1.983-.324-3.317-2-4h-1a338.854 338.854 0 0 0-16-26c-1.13-1.815-1.796-3.815-2-6h75Z"/>
    <path style="opacity:1" fill="#939191" d="M194.5 51.5v1h-76c.204 2.185.87 4.185 2 6-2.592-1.536-3.592-3.87-3-7h77Z"/>
    <path style="opacity:1" fill="#b9b5b5" d="m275.5 67.5 2 115c-.06.543-.393.876-1 1-1-38.661-1.333-77.328-1-116Z"/>
    <path style="opacity:1" fill="#4b4643" d="M249.5 52.5a400.453 400.453 0 0 1 1 40c-.992.172-1.658-.162-2-1a380.928 380.928 0 0 0 1-39Z"/>
    <path style="opacity:1" fill="#888" d="M267.5 75.5c-.277-6.579-3.777-8.579-10.5-6-1.559 1.717-2.392 3.717-2.5 6-.973-2.448-1.306-5.115-1-8 4.679-.166 9.345 0 14 .5 4.271.77 5.937 3.27 5 7.5h-5Z"/>
    <path style="opacity:1" fill="#a5a6a7" d="M267.5 75.5h-13c.108-2.283.941-4.283 2.5-6 6.723-2.579 10.223-.579 10.5 6Z"/>
    <path style="opacity:1" fill="#797471" d="M384.5 75.5h1v53h6v1h-7v-54Z"/>
    <path style="opacity:1" fill="#d6d6d6" d="M384.5 75.5c2.448-.973 5.115-1.306 8-1a756.857 756.857 0 0 1-1 55v-54h-7Z"/>
    <path style="opacity:1" fill="#291f16" d="M385.5 75.5h6v53h-6v-53Z"/>
    <path style="opacity:1" fill="#bfbebe" d="M193.5 52.5h1v27h-31c-.237 1.291.096 2.291 1 3v2c-1.78-1.49-2.446-3.49-2-6h31v-26Z"/>
    <path style="opacity:1" fill="#635d5b" d="M194.5 79.5c-10.208.343-20.208 1.343-30 3-.904-.709-1.237-1.709-1-3h31Z"/>
    <path style="opacity:1" fill="#6b6765" d="M136.5 84.5h1c.304.65.637 1.317 1 2-7.381.356-14.381 1.356-21 3-.904-.709-1.237-1.709-1-3 7.084.626 13.75-.041 20-2Z"/>
    <path style="opacity:1" fill="#c7c7c8" d="M137.5 84.5c1.676.683 2.343 2.017 2 4-7.413-.628-14.413.039-21 2-.667 0-1-.333-1-1 6.619-1.644 13.619-2.644 21-3a44.147 44.147 0 0 1-1-2Z"/>
    <path style="opacity:1" fill="#661a18" d="M253.5 76.5v12h18v-12c.667 16.997 1 34.163 1 51.5 0 17.513-.667 34.68-2 51.5a2026.42 2026.42 0 0 0-1-90h-17c-.318-4.532.015-8.866 1-13Z"/>
    <path style="opacity:1" fill="#83080e" d="M253.5 77.5v-1h18v12h-7c1.765-.961 3.765-1.295 6-1a76.923 76.923 0 0 1-1-10h-16Z"/>
    <path style="opacity:1" fill="#a71117" d="M253.5 77.5h16c.116 3.36.449 6.693 1 10-2.235-.295-4.235.039-6 1h-11v-11Z"/>
    <path style="opacity:1" fill="#9fa0a0" d="M252.5 89.5h17v60a871.155 871.155 0 0 1-1-59h-15c-.204 2.185-.87 4.185-2 6h-26v-6h14c3.455 2.741 7.122 3.408 11 2 1.548-.321 2.215-1.321 2-3Z"/>
    <path style="opacity:.145" fill="#0e0c0a" d="M224.5 97.5h38v102h3c-.76 3.46-2.26 3.793-4.5 1a5098.15 5098.15 0 0 1-.5-101h-35c-.838-.342-1.172-1.008-1-2Z"/>
    <path style="opacity:.968" fill="#2b221b" d="M198.5 52.5v98h51c1.325-13.173 1.325-26.506 0-40-.607.124-.94.457-1 1-.667 0-1 .333-1 1a100.148 100.148 0 0 0-20 13c-1.614 1.575-3.614 2.241-6 2v-53h6c-.262 1.478.071 2.811 1 4a125.431 125.431 0 0 0 18 11l2 2c.342.838 1.008 1.172 2 1-3.878 1.408-7.545.741-11-2-.342-.838-1.008-1.172-2-1-2.367-2.657-5.367-4.657-9-6-3.701.798-4.701 2.798-3 6-.973 2.448-1.306 5.115-1 8-.172.992.162 1.658 1 2-.166 7.341 0 14.674.5 22a743.53 743.53 0 0 0 21.5-14.5c2.201-.825 4.034-.325 5.5 1.5a484.008 484.008 0 0 1 0 44l-1.5 1.5c-32.333.667-64.667.667-97 0a22.162 22.162 0 0 1-4-6.5l6 3h38v-28h-28c.073-1.527-.594-2.527-2-3a5.576 5.576 0 0 0-1-3c10.492-.667 20.826-1.333 31-2v-27c-9.75.306-19.416-.027-29-1 .172-.992-.162-1.658-1-2v-2c9.792-1.657 19.792-2.657 30-3v-28c.418-.722 1.084-1.222 2-1.5a625.219 625.219 0 0 1 50 0 1554.232 1554.232 0 0 1-48 2.5Z"/>
    <path style="opacity:1" fill="#827f7e" d="M221.5 74.5v53c2.386.241 4.386-.425 6-2v3h-7a729.545 729.545 0 0 1 1-54Z"/>
    <path style="opacity:1" fill="#636262" d="M269.5 89.5a2026.42 2026.42 0 0 1 1 90l2 2h-3v-92Z"/>
    <path style="opacity:1" fill="#d4d4d4" d="M165.5 86.5c9.584.973 19.25 1.306 29 1v27c-11.052-.643-21.719.024-32 2-.904-.709-1.237-1.709-1-3h32v-25c-9.727.639-19.06-.028-28-2Z"/>
    <path style="opacity:1" fill="#4c4643" d="M248.5 111.5c.06-.543.393-.876 1-1 1.325 13.494 1.325 26.827 0 40a380.934 380.934 0 0 0-1-39Z"/>
    <path style="opacity:1" fill="#8c8988" d="M194.5 114.5c-10.174.667-20.508 1.333-31 2a5.576 5.576 0 0 1 1 3c-1.406-.473-2.073-1.473-2-3 10.281-1.976 20.948-2.643 32-2Z"/>
    <path style="opacity:.994" fill="#6d6c6c" d="M225.5 89.5h12c.992-.172 1.658.162 2 1h-14v6h38v82c-.626 7.084.041 13.75 2 20v1h-3v-102h-38c-.306-2.885.027-5.552 1-8Z"/>
    <path style="opacity:1" fill="#b0afb0" d="M166.5 122.5h28v28h-38v-1h37v-26c-9.182.327-18.182-.007-27-1Z"/>
    <path style="opacity:1" fill="#cacaca" d="M198.5 52.5h51a380.928 380.928 0 0 1-1 39l-2-2c1.979-11.62 2.646-23.62 2-36h-49v96h49a342.787 342.787 0 0 0-1-37c0-.667.333-1 1-1a380.934 380.934 0 0 1 1 39h-51v-98Z"/>
    <path style="opacity:1" fill="#520c0a" d="M237.5 89.5h-12c-1.701-3.202-.701-5.202 3-6 3.633 1.343 6.633 3.343 9 6Z"/>
    <path style="opacity:1" fill="#b1b1b1" d="M303.5 166.5c.06-.543.393-.876 1-1 .667 5.819 1.333 11.486 2 17-.06.543-.393.876-1 1a2740.153 2740.153 0 0 0-2-17Z"/>
    <path style="opacity:1" fill="#766d6d" d="M344.5 165.5h1l-13 14a308.607 308.607 0 0 0-4 3c-1.583-2.008-2.583-4.341-3-7 .342-.838 1.008-1.172 2-1a9.86 9.86 0 0 0 1 6c5.354-5.022 10.687-10.022 16-15Z"/>
    <path style="opacity:1" fill="#bcbcbc" d="M355.5 156.5v11a229.509 229.509 0 0 1-18 18h-1a29.812 29.812 0 0 1-.5-5c2.429-.529 4.262-1.863 5.5-4l-1-1c-2.142 2.405-4.809 3.738-8 4l13-14c2.083-4.418 5.416-7.418 10-9Z"/>
    <path style="opacity:1" fill="silver" d="M269.5 149.5v32h3c-.108 2.014.558 3.68 2 5-3.49-.897-5.656-3.23-6.5-7a604.243 604.243 0 0 0-3-24 260.63 260.63 0 0 1-1.5 23v-82h-12c1.13-1.815 1.796-3.815 2-6h15c-.33 19.84.003 39.507 1 59Z"/>
    <path style="opacity:1" fill="#931316" d="M344.5 165.5c-5.313 4.978-10.646 9.978-16 15a9.86 9.86 0 0 1-1-6 344.857 344.857 0 0 1 15-10.5c1.316-.528 1.983-.028 2 1.5Z"/>
    <path style="opacity:1" fill="#adacad" d="M325.5 175.5c.417 2.659 1.417 4.992 3 7-.709.904-1.709 1.237-3 1v-3c-2.886.11-5.22 1.277-7 3.5a223.49 223.49 0 0 0 4 15.5v1h-3a43.117 43.117 0 0 0-1-13c-.607.124-.94.457-1 1-1 1.667-2.333 3-4 4v-3h-7l1-2a129.055 129.055 0 0 1 18-12Z"/>
    <path style="opacity:1" fill="#9f9f9f" d="M298.5 184.5c-1.879-.841-3.879-1.175-6-1 .306 2.885-.027 5.552-1 8-.318-4.532.015-8.866 1-13 5.426-1.881 7.426.119 6 6Z"/>
    <path style="opacity:1" fill="#6b1111" d="M301.5 184.5h-2v-8c.06-.543.393-.876 1-1a21.127 21.127 0 0 1 1 9Z"/>
    <path style="opacity:1" fill="#d9dada" d="M336.5 185.5c-.838.342-1.172 1.008-1 2-2 2.667-4.333 5-7 7-2 0-3 1-3 3-1.527-.073-2.527.594-3 2a223.49 223.49 0 0 1-4-15.5c1.78-2.223 4.114-3.39 7-3.5v3c1.291.237 2.291-.096 3-1a308.607 308.607 0 0 1 4-3c3.191-.262 5.858-1.595 8-4l1 1c-1.238 2.137-3.071 3.471-5.5 4 .019 1.607.185 3.274.5 5Z"/>
    <path style="opacity:.235" fill="#2b2724" d="M336.5 185.5h1c-.333 1-1 1.667-2 2-.172-.992.162-1.658 1-2Z"/>
    <path style="opacity:1" fill="#e2e2e3" d="M274.5 186.5c.904.709 1.237 1.709 1 3-3.936 2.266-7.269 5.266-10 9-1.959-6.25-2.626-12.916-2-20a260.63 260.63 0 0 0 1.5-23 604.243 604.243 0 0 1 3 24c.844 3.77 3.01 6.103 6.5 7Z"/>
    <path style="opacity:1" fill="#af161b" d="M299.5 184.5h2a29.555 29.555 0 0 0 5 3 54.53 54.53 0 0 0-6.5 6 40.914 40.914 0 0 1-.5-9Z"/>
    <path style="opacity:1" fill="#6b6462" d="M299.5 176.5v8a40.914 40.914 0 0 0 .5 9 54.53 54.53 0 0 1 6.5-6h1l-1 2a31.447 31.447 0 0 0-5 4.5 4.934 4.934 0 0 1-3 .5v-10c1.426-5.881-.574-7.881-6-6 1.783-2.707 4.117-3.373 7-2Z"/>
    <path style="opacity:1" fill="#e0e1e1" d="M298.5 184.5v10a4.934 4.934 0 0 0 3-.5 31.447 31.447 0 0 1 5-4.5h7v3c-.333 1-1 1.667-2 2-1 .333-1.667 1-2 2-1 .333-1.667 1-2 2a6.547 6.547 0 0 1-3 3c-1 .333-1.667 1-2 2a6.547 6.547 0 0 0-3 3 2968.346 2968.346 0 0 0-7 6 111.148 111.148 0 0 1-1-21c.973-2.448 1.306-5.115 1-8 2.121-.175 4.121.159 6 1Z"/>
    <path style="opacity:.027" fill="#272423" d="M311.5 194.5c0 1.333-.667 2-2 2 .333-1 1-1.667 2-2Z"/>
    <path style="opacity:.118" fill="#2a2726" d="M328.5 194.5a6.547 6.547 0 0 1-3 3c0-2 1-3 3-3Z"/>
    <path style="opacity:.529" fill="#3c3b3a" d="M317.5 188.5c.06-.543.393-.876 1-1a43.117 43.117 0 0 1 1 13h3c-.761.891-1.761 1.558-3 2-.667-4.817-1.334-9.483-2-14Z"/>
    <path style="opacity:.592" fill="#35312e" d="M275.5 189.5a70.849 70.849 0 0 1-10 10v-1c2.731-3.734 6.064-6.734 10-9Z"/>
    <path style="opacity:.027" fill="#272423" d="M309.5 196.5c0 1.333-.667 2-2 2 .333-1 1-1.667 2-2Z"/>
    <path style="opacity:.059" fill="#37322f" d="M325.5 197.5a6.547 6.547 0 0 1-3 3v-1c.473-1.406 1.473-2.073 3-2Z"/>
    <path style="opacity:.059" fill="#342e2b" d="M304.5 201.5c0 1.333-.667 2-2 2 .333-1 1-1.667 2-2Z"/>
    <path style="opacity:.027" fill="#2b2725" d="M302.5 203.5c0 2-1 3-3 3a6.547 6.547 0 0 1 3-3Z"/>
</svg>
