<?xml version="1.0" encoding="UTF-8" standalone="no"?>
<svg
   height="158.766"
   viewBox="0 0 716.858 301.656"
   width="377.294"
   version="1.1"
   id="svg28"
   sodipodi:docname="eighting.svg"
   inkscape:version="1.1.2 (b8e25be833, 2022-02-05)"
   xmlns:inkscape="http://www.inkscape.org/namespaces/inkscape"
   xmlns:sodipodi="http://sodipodi.sourceforge.net/DTD/sodipodi-0.dtd"
   xmlns="http://www.w3.org/2000/svg"
   xmlns:svg="http://www.w3.org/2000/svg">
  <defs
     id="defs32" />
  <sodipodi:namedview
     id="namedview30"
     pagecolor="#ffffff"
     bordercolor="#666666"
     borderopacity="1.0"
     inkscape:pageshadow="2"
     inkscape:pageopacity="0.0"
     inkscape:pagecheckerboard="0"
     showgrid="false"
     inkscape:zoom="2.8333342"
     inkscape:cx="188.647"
     inkscape:cy="79.411741"
     inkscape:window-width="1280"
     inkscape:window-height="961"
     inkscape:window-x="3832"
     inkscape:window-y="1128"
     inkscape:window-maximized="1"
     inkscape:current-layer="svg28" />
  <g
     stroke-width="1.235"
     id="g12">
    <g
       stroke="#000"
       stroke-width="1.154"
       id="g8">
      <path
         d="M67.328 252.726h7.624v-67.023l29.516-76.64-35.99-26.41v-23.79h-9.583v63.665l-26.927 30.036-4.662 44.79L57.86 221.95l9.583 25.371z"
         stroke-width="4.03612654"
         id="path2" />
      <path
         d="M75.638 192.712c-2.123.55-4.355.84-6.646.84-14.56 0-26.36-11.804-26.36-26.365 0-13.182 9.688-24.108 22.328-26.052l2.36-.396 1.56-.108c13.165-1.661 23.35-12.902 23.35-26.518 0-13.84-10.262-21.597-23.734-22.968l.028-32.282c28.106 0 50.888 19.155 50.888 47.261 0 13.364-5.148 25.522-13.573 34.601l-.077.179c16.714 10.188 27.875 28.588 27.875 49.584 0 32.055-25.987 58.045-58.038 58.045z"
         fill="#fdb813"
         stroke-width="4.03612654"
         id="path4" />
      <path
         d="M78.96 118.663c0-10.776-9.25-19.51-20.026-19.51l-.098-37.17c-24.83 0-44.947 20.12-44.947 44.946 0 12.64 5.215 24.066 13.62 32.23l.094-.064.804.742C12.448 151.081 2.02 169.65 2.02 190.659c0 34.314 27.812 62.12 62.119 62.12 1.067 0 2.123-.018 3.183-.074l-.007-47.426c-.55.028-1.099.042-1.648.042-18.641 0-33.754-15.12-33.754-33.762 0-17.62 13.504-32.09 30.732-33.625l-.884.105c9.688-1.14 17.2-9.377 17.2-19.376z"
         fill="#fdb813"
         stroke-width="4.03612654"
         id="path6" />
    </g>
    <path
       d="M147.449 148.679h54.89v92.69h-54.89zM260.978 191.12c8.957 0 16.204 3.628 16.204 12.578l-.021 37.675h47.129l-.028-45.894c0-25.836-20.937-46.78-46.773-46.78l-63.763-.02v92.694h47.122zM432.384 148.64h-55.415c-25.665 0-46.464 20.744-46.464 46.335 0 25.588 20.8 46.335 46.464 46.335h10.891s-.65 11.322-9.586 11.322h-45.699v42.33h49.451s50.235 3.627 50.235-49.189zM42.289 278.142v4.62h-8.356v2.145h7.565v5.568h-7.565v2.179h8.825v4.473H27.823v-18.985zM79.954 278.142h5.673v6.593h6.74v-6.593h5.536v18.985h-5.537v-7.911h-6.74v7.91h-5.672zM117.335 278.142v6.572h-4.834v12.413h-5.966v-12.413h-5.205v-6.572zM140.198 278.142l6.226 9.66v-9.66h5.683v18.985h-5.627l-6.233-9.562v9.562h-5.963v-18.985zM239.157 293.329h4.113v3.798h-4.113zM248.47 293.329h4.107v3.696c.056.78 0 2.809-1.644 3.75-.77.566-1.812.78-2.462.881v-1.455c.986-.056 1.748-.937 2.025-1.49.272-.545.437-1.066.241-1.584h-2.266zM266.717 278.142v14.784h7.418v4.2H260.46v-18.984zM294.67 278.142h9.296c2.05 0 4.627.945 6.386 4.435.406.78.874 2.26.874 4.215 0 3.305-.905 5.648-1.836 7.009-1.374 2.028-3.62 3.326-5.704 3.326h-9.017zm5.074 14.067h2.371c1.36 0 2.445-.486 3.096-1.836.332-.657.531-1.777.51-2.913 0-1.14-.217-2.28-.73-2.977-.753-1.045-1.515-1.248-2.582-1.248h-2.665zM122.046 278.142h7.118v18.985h-7.118zM204.878 284.382c-1.099-1.333-2.879-2.05-4.715-2.05-3.284 0-5.505 2.274-5.505 5.163 0 2.952 2.245 5.075 5.589 5.075 1.752 0 3.504-.77 4.63-1.98v5.813c-1.78.493-3.067.867-4.739.867-2.878 0-5.617-.99-7.753-2.745-2.277-1.857-3.32-4.285-3.32-7.051 0-2.546 1.07-4.991 3.043-6.83 2.025-1.872 4.96-3.012 7.863-3.012 1.727 0 3.319.34 4.907.94zM230.76 287.12c0 6.03-4.792 10.28-11.427 10.28-6.631 0-11.427-4.25-11.427-10.28 0-5.64 5.478-9.597 11.427-9.597 5.946 0 11.426 3.956 11.426 9.598m-16.809.28c0 3.217 2.5 5.567 5.547 5.567s5.547-2.35 5.547-5.568c0-2.574-2.5-4.917-5.547-4.917s-5.547 2.343-5.547 4.917M69.67 296.718v.65h5.198V285.83h-6.211v4.774h1.073s.098 1.133-1.185 1.385c-1.28.262-5.708.262-3.42-6.565 0 0 2.85-4.508 9.701-1.413l-.066-5.449s-9.807-3.525-15.064 3.9c-5.281 7.474 2.553 16.7 9.975 14.256M290.654 278.142v5.023h-4.844v13.962h-5.963v-13.962h-5.201v-5.023zM167.7 296.718v.65h5.2V285.83h-6.208v4.774h1.07s.105 1.133-1.182 1.385c-1.287.262-5.708.262-3.428-6.565 0 0 2.854-4.508 9.706-1.413l-.067-5.449s-9.81-3.525-15.06 3.9c-5.285 7.474 2.553 16.7 9.968 14.256M316.515 293.329h4.106v3.798h-4.106zM47.99 278.142h7.12v18.985h-7.12z"
       id="path10"
       style="fill:#cccccc" />
  </g>
  <g
     stroke="#000"
     stroke-width="2"
     id="g26">
    <path
       d="m534.65 12.27-21.038 30.68.013 108.1 20.471-32.385-.254 86.613 20.514-33.595-.377-125.94-19.135 29.618zm132.967 31.104c-9.177.432-16.922 6.601-19.447 14.872 0 0-.165 60.868.125 93.259-.645 6.003 7.368 17.293 15.663 17.462l26.888-.118 4.614-2.672.02 4.405 20.221-.289-.628-70.105-38.042-.072-.333 19.278 19.048-.065-.237 29.872-27.078.237V63.24l27.311.143c.13 9.136.196 28.302.196 28.302l19.898-.031-.765-34.997c-3.343-8.129-11.827-13.803-20.666-13.342l-26.788.059zm-100.544.123.031 126.96 20.775-.027.168-67.437 27.725 67.31 20.592-.185.03-126.942-21.261.29.265 67.606-27.868-67.713zm-129.914.001s.312 19.658.322 19.69l41.548.159c-14.427 29.257-43.946 88.45-43.946 88.45l.478 18.627 64.234.242.242-20.405-41.17-.304c14.404-29.223 43.548-87.861 43.548-87.861l-.23-18.729zM404.651 12.27l-21.039 30.68.013 108.1 20.471-32.385-.254 86.613 20.514-33.595-.377-125.94-19.135 29.618zm-78.671 31.2c-11.662.845-19.44 9.115-18.883 19.804-.88 35.405-.103 107.088-.103 107.088l18.414-.069.548-48.43 17.033-.449.318-19.735-17.588-.087.025-38.3h24.884l-.025 107.036 20.444-.035.18-113.396c.163-5.111-9.456-12.452-16.707-13.46zm-96.943-.11.21 126.924 18.987.01.302-106.422 20.105-.094c8.83 6.52 5.512 25.276 4.51 32.266-2.886 7.444-5.165 6.922-17.921 6.459l-.173 20.365c6.36 15.745 19.086 47.23 19.086 47.23l18.103-.587-17.116-46.61c7.485-3.81 14.786-9.551 17.534-17.788 2.26-9.438 1.203-19.29 1.415-28.905.12-7.3-.625-15.164-5.61-20.936-5.755-7.17-15.216-12.133-24.573-11.63-12.166-.259-34.859-.281-34.859-.281z"
       id="path14" />
    <path
       d="m221.325 34.302.208 126.924 18.988.01.302-106.422 20.105-.094c8.83 6.52 5.512 25.276 4.51 32.266-2.886 7.444-5.165 6.922-17.92 6.459l-.173 20.365c6.36 15.745 19.086 47.23 19.086 47.23l18.102-.587-17.115-46.61c7.484-3.81 14.785-9.552 17.533-17.788 2.26-9.438 1.203-19.29 1.415-28.905.12-7.3-.624-15.164-5.61-20.937-5.754-7.17-15.216-12.132-24.573-11.63-12.166-.258-34.858-.28-34.858-.28zM318.267 34.413c-11.662.844-19.439 9.113-18.882 19.803-.88 35.405-.104 107.088-.104 107.088l18.415-.069.548-48.43 17.032-.449.319-19.735-17.588-.087.024-38.3h24.884l-.025 107.036 20.444-.035.18-113.396c.163-5.111-9.456-12.452-16.706-13.46z"
       fill="#fff"
       id="path16" />
    <path
       d="M396.938 3.212 375.9 33.891l.012 108.102 20.472-32.386-.255 86.613 20.514-33.595-.376-125.94-19.136 29.618z"
       fill="#f8cd15"
       id="path18" />
    <g
       fill="#fff"
       id="g22">
      <path
         d="M429.446 34.44s.312 19.658.322 19.689l41.549.16c-14.428 29.257-43.947 88.45-43.947 88.45l.479 18.627 64.234.242.242-20.405-41.171-.304c14.404-29.224 43.548-87.861 43.548-87.861l-.23-18.729zM559.36 34.439l.031 126.96 20.775-.027.168-67.437 27.726 67.31 20.59-.185.03-126.942-21.26.29.265 67.606L579.817 34.3zM659.905 34.316c-9.178.432-16.923 6.6-19.447 14.872 0 0-.166 60.868.124 93.259-.645 6.003 7.369 17.293 15.663 17.462l26.889-.118 4.613-2.672.02 4.405 20.221-.289-.628-70.105-38.042-.072-.333 19.277 19.049-.064-.237 29.872-27.078.237V54.182l27.31.143c.131 9.136.196 28.302.196 28.302l19.898-.031-.765-34.997c-3.343-8.129-11.826-13.803-20.666-13.342l-26.787.059z"
         id="path20" />
    </g>
    <path
       d="M526.938 3.212 505.9 33.891l.012 108.102 20.472-32.386-.255 86.613 20.514-33.595-.376-125.94-19.136 29.618z"
       fill="#f8cd15"
       id="path24" />
  </g>
</svg>
