<?xml version="1.0" encoding="UTF-8" standalone="no"?>
<!-- Generator: Adobe Illustrator 25.2.3, SVG Export Plug-In . SVG Version: 6.00 Build 0)  -->

<svg
   version="1.1"
   id="Layer_1"
   x="0px"
   y="0px"
   viewBox="0 0 3839 1257.59"
   style="enable-background:new 0 0 3839 1257.59;"
   xml:space="preserve"
   sodipodi:docname="ep128.svg"
   inkscape:version="1.3 (0e150ed6c4, 2023-07-21)"
   xmlns:inkscape="http://www.inkscape.org/namespaces/inkscape"
   xmlns:sodipodi="http://sodipodi.sourceforge.net/DTD/sodipodi-0.dtd"
   xmlns="http://www.w3.org/2000/svg"
   xmlns:svg="http://www.w3.org/2000/svg"><defs
   id="defs76" /><sodipodi:namedview
   id="namedview76"
   pagecolor="#ffffff"
   bordercolor="#000000"
   borderopacity="0.25"
   inkscape:showpageshadow="2"
   inkscape:pageopacity="0.0"
   inkscape:pagecheckerboard="0"
   inkscape:deskcolor="#d1d1d1"
   inkscape:zoom="0.76321959"
   inkscape:cx="1920.1551"
   inkscape:cy="628.25956"
   inkscape:window-width="3440"
   inkscape:window-height="1369"
   inkscape:window-x="-8"
   inkscape:window-y="-8"
   inkscape:window-maximized="1"
   inkscape:current-layer="g75" />&#10;<style
   type="text/css"
   id="style1">&#10;	.st0{fill:#953D8C;}&#10;	.st1{fill:#FFFFFF;}&#10;	.st2{fill:#E20C00;}&#10;	.st3{fill:#FCA200;}&#10;	.st4{fill:#FFF100;}&#10;	.st5{fill:#00A85F;}&#10;	.st6{fill:#00A0DE;}&#10;	.st7{fill:#F10075;}&#10;</style>&#10;<g
   id="g76">&#10;	<path
   id="rect1"
   d="M 0,0 H 3839 V 1257.59 H 0 Z" />&#10;	<g
   id="g75">&#10;		<g
   id="g9"
   style="fill:#ffffff">&#10;			<path
   class="st1"
   d="M267.03,910.75c-2.9-11.91-10.75-21.2-20.62-27.59c-9.87-6.68-22.07-10.16-33.98-10.16     c-43.85,0-68.83,34.27-68.83,74.63c0,40.08,24.39,74.63,68.83,74.63c31.36,0,47.92-16.26,59.53-39.5h34.85     c-12.2,50.24-48.79,74.34-94.38,74.34c-60.4,0-106.58-47.92-106.58-110.65c0-73.76,56.05-108.32,106.29-108.32     c6.68,0,38.04,2.03,54.89,18.01v-13.36h30.49v67.96H267.03z"
   id="path18"
   style="fill:#ffffff" />&#10;			<path
   class="st1"
   d="M528.98,947.92c0-60.7,46.76-109.77,110.06-109.77S749.4,887.23,749.4,947.92     c0,61.86-50.53,109.19-110.36,109.19C562.37,1057.11,528.98,998.45,528.98,947.92z M566.73,951.99     c0,39.2,31.07,70.28,70.28,70.28c43.27,0,74.63-33.11,74.63-75.8c0-40.37-30.78-73.47-71.44-73.47     C594.03,873,566.73,907.55,566.73,951.99z"
   id="path17"
   style="fill:#ffffff" />&#10;			<path
   class="st1"
   d="M1040.09,885.19h-0.58v138.82h23.52v28.46h-79.28v-28.46h20.91V871.25h-20.91v-28.46h79.57l40.37,120.23     h0.58l43.56-120.23h75.8v28.46h-20.62v152.75h20.62v28.46h-78.99v-28.46h23.52V885.19h-0.58l-51.98,141.72h-23.23L1040.09,885.19     z"
   id="path16"
   style="fill:#ffffff" />&#10;			<path
   class="st1"
   d="M1518.97,871.25h-22.94v-28.46h79.57c40.66,0,81.31,16.26,81.31,66.21c0,50.53-39.21,66.21-73.76,66.21     h-26.43v48.79h26.72v28.46h-87.41v-28.46h22.94V871.25z M1556.73,946.76h14.23c29.91,0,48.21-11.04,48.21-38.04     c0-27.01-18.3-38.04-48.21-38.04h-14.23V946.76z"
   id="path15"
   style="fill:#ffffff" />&#10;			<path
   class="st1"
   d="M1900.86,842.79h81.31v28.46h-22.65v95.25c0,24.98-3.78,55.76,39.21,55.76c38.91,0,35.14-30.78,35.14-55.76     v-95.25h-22.65v-28.46h81.31v28.46h-20.91v111.23c0,55.18-39.5,74.63-72.31,74.63c-42.4,0-77.54-24.98-77.54-69.99V871.25h-20.91     V842.79z"
   id="path14"
   style="fill:#ffffff" />&#10;			<path
   class="st1"
   d="M2343.44,901.46v-58.66h157.4v58.66h-33.4v-30.2h-26.43v152.75h25.27v28.46h-88.28v-28.46h25.27V871.25     h-26.43v30.2H2343.44z"
   id="path13"
   style="fill:#ffffff" />&#10;			<path
   class="st1"
   d="M2756.68,1052.47v-28.46h22.36V871.25h-22.36v-28.46h161.47v55.47h-33.4v-27.01h-67.96v52.85h58.37v33.11     h-58.37v66.79h67.96v-34.27h33.4v62.73H2756.68z"
   id="path12"
   style="fill:#ffffff" />&#10;			<path
   class="st1"
   d="M3166.45,1052.47v-28.46h22.36V871.25h-22.36v-28.46h90.03c14.23,0,45.01-2.32,64.76,23.81     c9.58,12.2,9.29,25.27,9.29,28.46c0,24.39-10.75,38.33-32.82,47.63v0.58c23.81,5.81,25.85,20.62,25.85,33.4v47.34h20.33v28.46     h-58.08V979c0-19.75-21.2-21.78-36.59-21.78h-22.65v66.79h23.23v28.46H3166.45z M3226.56,928.75h24.39     c20.91,0,41.82-3.49,41.82-31.65c0-25.85-26.43-25.85-46.17-25.85h-20.04V928.75z"
   id="path11"
   style="fill:#ffffff" />&#10;			<path
   class="st1"
   d="M3623.84,980.74c3.49,27.59,22.07,47.34,50.53,47.34c16.84,0,31.65-13.36,31.65-30.78     c0-28.46-22.07-28.17-56.92-38.62c-8.71-2.61-56.34-8.42-56.34-62.73c0-19.46,16.26-57.79,65.34-57.79     c16.26,0,31.65,6.97,42.98,17.71v-13.07h30.49v62.73h-29.04c-2.32-11.04-7.26-20.62-14.23-27.3     c-7.26-6.97-16.84-11.04-28.46-11.04c-17.13,0-29.33,10.45-29.33,28.46c0,20.04,28.46,23.81,56.92,32.24     c28.46,8.42,56.34,18.88,56.34,64.18c0,39.21-28.17,65.05-66.5,65.05c-19.46,0-37.17-5.23-52.27-17.71v13.07h-30.49v-71.73     H3623.84z"
   id="path10"
   style="fill:#ffffff" />&#10;		</g>&#10;		<path
   id="rect9"
   class="st1"
   style="fill:#ffffff"
   d="m 157.02,72.620003 h 90.41001 V 699.65003 H 157.02 Z" />&#10;		<path
   id="rect10"
   class="st1"
   style="fill:#ffffff"
   d="m 1055.27,72.620003 h 90.41 V 699.65003 h -90.41 z" />&#10;		&#10;			<path
   id="rect11"
   class="st1"
   transform="matrix(-1.836970e-16 1 -1 -1.836970e-16 820.4515 501.3867)"
   style="fill:#ffffff"
   d="m 120.8,608.97998 h 77.46 v 103.89 H 120.8 Z" />&#10;		&#10;			<path
   id="rect12"
   class="st1"
   transform="matrix(-1.836970e-16 1 -1 -1.836970e-16 270.8874 -48.1775)"
   style="fill:#ffffff"
   d="m 120.8,59.41 h 77.46 V 163.3 H 120.8 Z" />&#10;		<g
   id="g14">&#10;			<path
   id="rect13"
   class="st1"
   style="fill:#ffffff"
   d="m 355.70001,522.01001 h 75.58 v 148.58 h -75.58 z" />&#10;			&#10;				<path
   id="rect14"
   class="st1"
   transform="matrix(-1.836970e-16 1 -1 -1.836970e-16 1008.335 313.5032)"
   style="fill:#ffffff"
   d="m 308.67999,577.06 h 77.46 v 167.72999 h -77.46 z" />&#10;		</g>&#10;		<g
   id="g19">&#10;			<g
   id="g16">&#10;				&#10;					<path
   id="rect15"
   class="st1"
   transform="matrix(-1 -1.224647e-16 1.224647e-16 -1 1890.1681 340.5817)"
   style="fill:#ffffff"
   d="m 907.28998,101.69 h 75.58 v 137.21001 h -75.58 z" />&#10;				&#10;					<path
   id="rect16"
   class="st1"
   transform="matrix(6.123234e-17 -1 1 6.123234e-17 861.8628 1084.5728)"
   style="fill:#ffffff"
   d="M 934.48999,45.43 H 1011.95 v 131.85001 h -77.46001 z" />&#10;			</g>&#10;			<g
   id="g18">&#10;				<path
   id="rect17"
   class="st1"
   style="fill:#ffffff"
   d="m 1218.0699,101.69 h 75.58 v 137.21001 h -75.58 z" />&#10;				&#10;					<path
   id="rect18"
   class="st1"
   transform="matrix(3.503515e-11 -1 1 3.503515e-11 1116.3669 1339.0769)"
   style="fill:#ffffff"
   d="m 1188.99,45.43 h 77.46 v 131.85001 h -77.46 z" />&#10;			</g>&#10;		</g>&#10;		<path
   id="rect19"
   class="st1"
   style="fill:#ffffff"
   d="m 355.70001,101.69 h 75.58 v 115.54 h -75.58 z" />&#10;		&#10;			<path
   id="rect20"
   class="st1"
   transform="matrix(6.123234e-17 -1 1 6.123234e-17 236.0609 458.7709)"
   style="fill:#ffffff"
   d="m 308.67999,27.49 h 77.46 v 167.73 h -77.46 z" />&#10;		&#10;			<path
   id="rect21"
   class="st1"
   transform="matrix(6.123234e-17 -1 1 6.123234e-17 -49.7575 697.1394)"
   style="fill:#ffffff"
   d="m 284.95999,313.31 h 77.46 v 120.28 h -77.46 z" />&#10;		<g
   id="g23">&#10;			&#10;				<path
   id="rect22"
   class="st1"
   transform="matrix(-1.836970e-16 1 -1 -1.836970e-16 1817.4302 -495.592)"
   style="fill:#ffffff"
   d="m 1117.78,608.97998 h 77.46 v 103.89 h -77.46 z" />&#10;			&#10;				<path
   id="rect23"
   class="st1"
   transform="matrix(-1.836970e-16 1 -1 -1.836970e-16 1705.3478 -383.5095)"
   style="fill:#ffffff"
   d="m 1005.7,608.97998 h 77.46 v 103.89 h -77.46 z" />&#10;		</g>&#10;		<path
   id="rect24"
   class="st1"
   style="fill:#ffffff"
   d="m 2887.71,72.620003 h 90.41 V 699.65003 h -90.41 z" />&#10;		&#10;			<path
   id="rect25"
   class="st1"
   transform="matrix(-1.836970e-16 1 -1 -1.836970e-16 3537.79 -2215.9517)"
   style="fill:#ffffff"
   d="m 2838.1399,608.97998 h 77.46 v 103.89 h -77.46 z" />&#10;		&#10;			<path
   id="rect26"
   class="st1"
   transform="matrix(-1.836970e-16 1 -1 -1.836970e-16 3649.8726 -2328.0342)"
   style="fill:#ffffff"
   d="m 2950.22,608.97998 h 77.46 v 103.89 h -77.46 z" />&#10;		<g
   id="g28">&#10;			&#10;				<path
   id="rect27"
   class="st1"
   transform="matrix(-1.836970e-16 1 -1 -1.836970e-16 3100.3083 -2877.5984)"
   style="fill:#ffffff"
   d="m 2950.22,59.41 h 77.46 V 163.3 h -77.46 z" />&#10;			&#10;				<path
   id="rect28"
   class="st1"
   transform="matrix(-1.836970e-16 1 -1 -1.836970e-16 2988.2258 -2765.5159)"
   style="fill:#ffffff"
   d="m 2838.1399,59.41 h 77.46 V 163.3 h -77.46 z" />&#10;		</g>&#10;		<path
   id="rect29"
   class="st1"
   style="fill:#ffffff"
   d="m 1722.65,72.620003 h 90.41 V 699.65003 h -90.41 z" />&#10;		&#10;			<path
   id="rect30"
   class="st1"
   transform="matrix(-1.836970e-16 1 -1 -1.836970e-16 2386.0813 -1064.2429)"
   style="fill:#ffffff"
   d="m 1686.4301,608.97998 h 77.46 v 103.89 h -77.46 z" />&#10;		&#10;			<path
   id="rect31"
   class="st1"
   transform="matrix(-1.836970e-16 1 -1 -1.836970e-16 2650.4265 -1328.5884)"
   style="fill:#ffffff"
   d="m 1950.78,608.97998 h 77.46 v 103.89 h -77.46 z" />&#10;		&#10;			<path
   id="rect32"
   class="st1"
   transform="matrix(-1.836970e-16 1 -1 -1.836970e-16 1836.5171 -1613.8071)"
   style="fill:#ffffff"
   d="m 1686.4301,59.41 h 77.46 V 163.3 h -77.46 z" />&#10;		&#10;			<path
   id="rect33"
   class="st1"
   transform="matrix(-1.836970e-16 1 -1 -1.836970e-16 2891.3333 -1569.4951)"
   style="fill:#ffffff"
   d="m 2191.6799,636.20001 h 77.46 v 49.43 h -77.46 z" />&#10;		<path
   id="rect34"
   class="st1"
   style="fill:#ffffff"
   d="m 1366.67,72.620003 h 90.41 V 699.65003 h -90.41 z" />&#10;		&#10;			<path
   id="rect35"
   class="st1"
   transform="matrix(-1.836970e-16 1 -1 -1.836970e-16 2030.0961 -708.2578)"
   style="fill:#ffffff"
   d="m 1330.45,608.97998 h 77.46 v 103.89 h -77.46 z" />&#10;		&#10;			<path
   id="rect36"
   class="st1"
   transform="matrix(-1.836970e-16 1 -1 -1.836970e-16 1480.532 -1257.822)"
   style="fill:#ffffff"
   d="m 1330.45,59.41 h 77.46 V 163.3 h -77.46 z" />&#10;		<g
   id="g38">&#10;			<path
   id="rect37"
   class="st1"
   style="fill:#ffffff"
   d="m 1565.34,522.01001 h 75.58 v 148.58 h -75.58 z" />&#10;			&#10;				<path
   id="rect38"
   class="st1"
   transform="matrix(-1.836970e-16 1 -1 -1.836970e-16 2217.9795 -896.1413)"
   style="fill:#ffffff"
   d="m 1518.33,577.06 h 77.46 v 167.72999 h -77.46 z" />&#10;		</g>&#10;		<path
   id="rect39"
   class="st1"
   style="fill:#ffffff"
   d="m 1565.34,101.69 h 75.58 v 115.54 h -75.58 z" />&#10;		<path
   id="rect40"
   class="st1"
   style="fill:#ffffff"
   d="m 3292.95,65.75 h 75.58 V 216.3 h -75.58 z" />&#10;		<path
   id="rect41"
   class="st1"
   style="fill:#ffffff"
   d="m 3069.78,509.70999 h 75.58 v 178.22 h -75.58 z" />&#10;		&#10;			<path
   id="rect42"
   class="st1"
   transform="matrix(6.123234e-17 -1 1 6.123234e-17 1445.7054 1668.4154)"
   style="fill:#ffffff"
   d="m 1518.33,27.49 h 77.46 v 167.73 h -77.46 z" />&#10;		&#10;			<path
   id="rect43"
   class="st1"
   transform="matrix(6.123234e-17 -1 1 6.123234e-17 1159.887 1906.7839)"
   style="fill:#ffffff"
   d="m 1494.6,313.31 h 77.46 v 120.28 h -77.46 z" />&#10;		<g
   id="g51">&#10;			<path
   id="rect44"
   class="st1"
   style="fill:#ffffff"
   d="m 3452.8799,72.620003 h 90.41 V 699.65003 h -90.41 z" />&#10;			&#10;				<path
   id="rect45"
   class="st1"
   transform="matrix(-1.836970e-16 1 -1 -1.836970e-16 4116.3101 -2794.4717)"
   style="fill:#ffffff"
   d="m 3416.6599,608.97998 h 77.46 v 103.89 h -77.46 z" />&#10;			&#10;				<path
   id="rect46"
   class="st1"
   transform="matrix(-1.836970e-16 1 -1 -1.836970e-16 3566.7458 -3344.0359)"
   style="fill:#ffffff"
   d="m 3416.6599,59.41 h 77.46 V 163.3 h -77.46 z" />&#10;			<g
   id="g48">&#10;				<path
   id="rect47"
   class="st1"
   style="fill:#ffffff"
   d="m 3651.5601,522.01001 h 75.58 v 148.58 h -75.58 z" />&#10;				&#10;					<path
   id="rect48"
   class="st1"
   transform="matrix(-1.836970e-16 1 -1 -1.836970e-16 4304.1934 -2982.3552)"
   style="fill:#ffffff"
   d="M 3604.54,577.06 H 3682 v 167.72999 h -77.46 z" />&#10;			</g>&#10;			<path
   id="rect49"
   class="st1"
   style="fill:#ffffff"
   d="m 3651.5601,101.69 h 75.58 v 115.54 h -75.58 z" />&#10;			&#10;				<path
   id="rect50"
   class="st1"
   transform="matrix(6.123234e-17 -1 1 6.123234e-17 3531.9192 3754.6292)"
   style="fill:#ffffff"
   d="M 3604.54,27.49 H 3682 v 167.73 h -77.46 z" />&#10;			&#10;				<path
   id="rect51"
   class="st1"
   transform="matrix(6.123234e-17 -1 1 6.123234e-17 3246.1008 3992.9978)"
   style="fill:#ffffff"
   d="m 3580.8201,313.31 h 77.46 v 120.28 h -77.46 z" />&#10;		</g>&#10;		<g
   id="g52">&#10;			<path
   id="polygon51"
   class="st1"
   style="fill:#ffffff"
   d="m 1936.42,237.75 h 90.4 v -89.66 l -75.46,-75.47 h -122.18 v 77.47 h 74.19 l 33.05,33.04 z" />&#10;			<path
   id="polygon52"
   class="st1"
   style="fill:#ffffff"
   d="m 1936.42,209.2 h 90.4 v 120.16 l -75.46,75.46 h -122.18 v -77.47 h 74.19 l 33.05,-33.04 z" />&#10;		</g>&#10;		<path
   id="rect52"
   class="st1"
   style="fill:#ffffff"
   d="m 2115.29,72.620003 h 90.41 V 699.65003 h -90.41 z" />&#10;		&#10;			<path
   id="rect53"
   class="st1"
   transform="matrix(-1.836970e-16 1 -1 -1.836970e-16 2778.7222 -1456.884)"
   style="fill:#ffffff"
   d="m 2079.0701,608.97998 h 77.46 v 103.89 h -77.46 z" />&#10;		&#10;			<path
   id="rect54"
   class="st1"
   transform="matrix(-1.836970e-16 1 -1 -1.836970e-16 2229.1582 -2006.4481)"
   style="fill:#ffffff"
   d="m 2079.0701,59.41 h 77.46 V 163.3 h -77.46 z" />&#10;		<g
   id="g55">&#10;			<path
   id="polygon54"
   class="st1"
   style="fill:#ffffff"
   d="m 2329.06,237.75 h 90.41 V 148.09 L 2344,72.62 h -122.18 v 77.47 h 74.19 l 33.05,33.04 z" />&#10;			<path
   id="polygon55"
   class="st1"
   style="fill:#ffffff"
   d="m 2329.06,209.2 h 90.41 V 329.36 L 2344,404.82 h -122.18 v -77.47 h 74.19 l 33.05,-33.04 z" />&#10;		</g>&#10;		<path
   id="polygon56"
   class="st1"
   style="fill:#ffffff"
   d="m 1948.39,420.94 h -94.21 l 81.76,278.71 h 94.21 z" />&#10;		<path
   id="rect56"
   class="st1"
   style="fill:#ffffff"
   d="m 2487.51,72.620003 h 90.41 V 699.65003 h -90.41 z" />&#10;		&#10;			<path
   id="rect57"
   class="st1"
   transform="matrix(-1.836970e-16 1 -1 -1.836970e-16 3150.9424 -1829.1042)"
   style="fill:#ffffff"
   d="m 2451.29,608.97998 h 77.46 v 103.89 h -77.46 z" />&#10;		&#10;			<path
   id="rect58"
   class="st1"
   transform="matrix(-1.836970e-16 1 -1 -1.836970e-16 3415.2878 -2093.4497)"
   style="fill:#ffffff"
   d="m 2715.6399,608.97998 h 77.46 v 103.89 h -77.46 z" />&#10;		&#10;			<path
   id="rect59"
   class="st1"
   transform="matrix(-1.836970e-16 1 -1 -1.836970e-16 2601.3784 -2378.6685)"
   style="fill:#ffffff"
   d="m 2451.29,59.41 h 77.46 V 163.3 h -77.46 z" />&#10;		<g
   id="g60">&#10;			<path
   id="polygon59"
   class="st1"
   style="fill:#ffffff"
   d="m 2701.28,237.75 h 90.41 v -89.66 l -75.47,-75.47 h -122.18 v 77.47 h 74.19 l 33.05,33.04 z" />&#10;			<path
   id="polygon60"
   class="st1"
   style="fill:#ffffff"
   d="m 2701.28,209.2 h 90.41 v 120.16 l -75.47,75.46 h -122.18 v -77.47 h 74.19 l 33.05,-33.04 z" />&#10;		</g>&#10;		<g
   id="g62">&#10;			<path
   id="polygon61"
   class="st1"
   style="fill:#ffffff"
   d="m 3157.52,242.33 h -90.41 V 332 l 75.46,75.46 h 122.18 V 330 h -74.18 l -33.05,-33.05 z" />&#10;			<path
   id="polygon62"
   class="st1"
   style="fill:#ffffff"
   d="m 3157.52,261.37 h -90.41 V 141.21 l 75.46,-75.46 h 134.26 v 77.46 h -86.26 l -33.05,33.05 z" />&#10;		</g>&#10;		<g
   id="g63">&#10;			<path
   id="polygon63"
   class="st1"
   style="fill:#ffffff"
   d="m 3280.79,536.99 h 90.41 V 405.46 L 3295.74,330 h -122.19 v 77.46 h 74.19 l 33.05,33.05 z" />&#10;		</g>&#10;		<g
   id="g64">&#10;			<path
   id="polygon64"
   class="st1"
   style="fill:#ffffff"
   d="m 3280.79,522.8 h 90.41 v 89.67 l -75.46,75.46 h -134.26 v -77.46 h 86.26 l 33.05,-33.05 z" />&#10;		</g>&#10;		<path
   id="polygon65"
   class="st1"
   style="fill:#ffffff"
   d="m 2713.26,420.94 h -94.22 l 81.76,278.71 h 94.21 z" />&#10;		<path
   id="polygon66"
   class="st1"
   style="fill:#ffffff"
   d="M 831.46,575.96 V 150.09 h 49.43 V 72.62 H 831.46 765.37 741.05 V 377 Z" />&#10;		<g
   id="g68">&#10;			<path
   id="polygon67"
   class="st1"
   style="fill:#ffffff"
   d="M 520.93,189.07 V 622.19 H 471.5 v 77.46 h 49.43 66.08 24.32 V 388.02 Z" />&#10;			<path
   id="polygon68"
   class="st1"
   style="fill:#ffffff"
   d="M 834.75,622.19 833.11,618.57 601.87,109.68 585.03,72.62 H 468.16 v 77.47 h 52.75 l 0.02,-0.01 v 0.01 0 0 l 90.4,198.95 v 0 l 159.32,350.61 h 110.81 v -77.46 z" />&#10;		</g>&#10;		<g
   id="g74">&#10;			<path
   id="rect68"
   class="st2"
   style="fill:#e20c00"
   d="m 107.59,717.70001 h 573.29998 v 77.46 H 107.59 Z" />&#10;			<path
   id="rect69"
   class="st1"
   style="fill:#ffffff"
   d="m 107.59,1108.05 h 3619.55 v 77.46 H 107.59 Z" />&#10;			<path
   id="rect70"
   class="st3"
   style="fill:#fca200"
   d="M 716.84003,717.70001 H 1290.14 v 77.46 H 716.84003 Z" />&#10;			<path
   id="rect71"
   class="st4"
   style="fill:#fff100"
   d="m 1326.09,717.70001 h 573.3 v 77.46 h -573.3 z" />&#10;			<path
   id="rect72"
   class="st5"
   style="fill:#00a85f"
   d="m 1935.34,717.70001 h 573.3 v 77.46 h -573.3 z" />&#10;			<path
   id="rect73"
   class="st6"
   style="fill:#00a0de"
   d="m 2544.5901,717.70001 h 573.3 v 77.46 h -573.3 z" />&#10;			<path
   id="rect74"
   class="st7"
   style="fill:#f10075"
   d="m 3153.8401,717.70001 h 573.3 v 77.46 h -573.3 z" />&#10;		</g>&#10;	</g>&#10;</g>&#10;</svg>
