<?xml version="1.0" encoding="UTF-8" standalone="no"?>
<!-- Created with Inkscape (http://www.inkscape.org/) -->

<svg
   width="499.8522"
   height="198.37115"
   id="svg3195"
   version="1.1"
   xmlns="http://www.w3.org/2000/svg"
   xmlns:svg="http://www.w3.org/2000/svg"
   xmlns:rdf="http://www.w3.org/1999/02/22-rdf-syntax-ns#"
   xmlns:cc="http://creativecommons.org/ns#"
   xmlns:dc="http://purl.org/dc/elements/1.1/">
  <defs
     id="defs3197" />
  <metadata
     id="metadata3200">
    <rdf:RDF>
      <cc:Work
         rdf:about="">
        <dc:format>image/svg+xml</dc:format>
        <dc:type
           rdf:resource="http://purl.org/dc/dcmitype/StillImage" />
      </cc:Work>
    </rdf:RDF>
  </metadata>
  <g
     id="layer1"
     transform="translate(-195.27173,-331.66439)">
    <g
       transform="matrix(3.7553225,0,0,3.7553225,7.0361862,-1918.1043)"
       id="g50">
      <g
         id="g52">
        <path
           style="fill:#ff1e00"
           d="m 75.836,617.551 4.122,-4.072 -21.527,-0.004 0.004,-1.635 c -0.004,-1.902 1.299,-2.934 2.369,-2.947 0.613,-0.008 0.785,0.246 0.994,0.104 0.432,-0.293 -0.365,-2.031 -2.184,-2.6 -0.647,-0.205 -3.499,-0.559 -4.601,-0.717 l -4.888,-0.67 v 36.98 h 25.026 l -0.67,-4.889 c -0.158,-1.1 -0.512,-3.953 -0.716,-4.6 -0.568,-1.818 -2.308,-2.615 -2.601,-2.184 -0.142,0.209 0.111,0.381 0.104,0.994 -0.014,1.068 -1.045,2.373 -2.947,2.369 l -9.941,-0.012 0.009,-3.684 5.09,0.018 4.427,-4.383 -9.506,0.1 0.006,-2.486 11.758,0.041 3.819,-3.871 H 58.417 l 0.004,-1.857 17.415,0.005 z"
           id="path54" />
      </g>
      <g
         id="g56"
         style="fill:#ffffff">
        <path
           d="m 110.187,634.966 v 3.133 h -9.863 v -25.197 h 3.563 v 22.064 h 6.3 z"
           id="path58"
           style="fill:#ffffff" />
        <path
           d="m 115.839,616.069 v 7.848 h 5.867 v 3.166 h -5.867 v 7.883 h 7.883 v 3.133 h -11.446 v -25.197 h 11.446 v 3.168 h -7.883 z"
           id="path60"
           style="fill:#ffffff" />
        <path
           d="m 125.235,634.858 c -0.756,-1.547 -0.792,-2.916 -0.792,-3.059 v -12.6 c 0,-0.143 0.036,-1.512 0.792,-3.059 1.044,-2.088 3.095,-3.24 5.723,-3.24 2.627,0 4.679,1.152 5.723,3.24 0.756,1.547 0.792,2.916 0.792,3.059 v 1.584 h -3.6 V 619.2 c 0,-0.576 -0.36,-3.131 -2.916,-3.131 -2.556,0 -2.952,2.592 -2.952,3.131 v 12.6 c 0,0.539 0.396,3.166 2.952,3.166 2.556,0 2.916,-2.59 2.916,-3.166 v -4.717 h -2.34 v -3.166 h 5.939 v 7.883 c 0,0.143 -0.036,1.512 -0.792,3.059 -1.044,2.088 -3.096,3.24 -5.723,3.24 -2.626,0 -4.678,-1.153 -5.722,-3.241 z"
           id="path62"
           style="fill:#ffffff" />
        <path
           d="m 148.562,630.216 h -5.255 l -1.692,7.883 h -3.635 l 5.399,-25.197 h 5.111 l 5.399,25.197 h -3.636 l -1.691,-7.883 z m -0.684,-3.133 -1.943,-9.033 c -0.684,3.059 -1.296,5.975 -1.944,9.033 h 3.887 z"
           id="path64"
           style="fill:#ffffff" />
        <path
           d="m 156.771,634.858 c -0.756,-1.547 -0.792,-2.916 -0.792,-3.059 v -12.6 c 0,-0.143 0.036,-1.512 0.792,-3.059 1.044,-2.088 3.095,-3.24 5.723,-3.24 2.627,0 4.679,1.152 5.723,3.24 0.756,1.547 0.792,2.916 0.792,3.059 v 1.584 h -3.6 V 619.2 c 0,-0.576 -0.36,-3.131 -2.916,-3.131 -2.556,0 -2.952,2.592 -2.952,3.131 v 12.6 c 0,0.539 0.396,3.166 2.952,3.166 2.556,0 2.916,-2.59 2.916,-3.166 v -1.584 h 3.6 v 1.584 c 0,0.143 -0.036,1.512 -0.792,3.059 -1.044,2.088 -3.096,3.24 -5.723,3.24 -2.627,0 -4.679,-1.153 -5.723,-3.241 z"
           id="path66"
           style="fill:#ffffff" />
        <path
           d="m 183.23,612.901 -5.328,12.922 v 12.275 h -3.563 v -12.275 l -5.327,-12.922 h 3.852 l 3.239,7.92 c 1.08,-2.664 2.196,-5.256 3.276,-7.92 h 3.851 z"
           id="path68"
           style="fill:#ffffff" />
      </g>
      <g
         id="g70">
        <rect
           style="fill:#ff1e00"
           x="89"
           y="599.08801"
           width="1"
           height="52.824001"
           id="rect72" />
      </g>
    </g>
  </g>
</svg>
