<!-- Created by ERK --><svg xmlns="http://www.w3.org/2000/svg" xml:space="preserve" width="1280mm" height="420mm" viewBox="0 0 1280 420"><path d="M1099.5 315.881c0-59.923-48.577-108.5-108.5-108.5H209c-59.923 0-108.5 48.577-108.5 108.5s48.577 108.5 108.5 108.5h782c59.923 0 108.5-48.577 108.5-108.5" style="display:inline;fill:#000;fill-opacity:1;stroke:none;stroke-width:.944827;stroke-linecap:round" transform="translate(40 -30)"/><path d="M209 419.38c-57.145-.022-103.458-46.354-103.458-103.499S151.855 212.405 209 212.381h782c57.145.023 103.458 46.355 103.458 103.5S1048.145 419.358 991 419.381z" style="display:inline;fill:#fff;fill-opacity:1;stroke:none;stroke-width:.944827;stroke-linecap:round" transform="translate(40 -30)"/><path d="M1072.462 315.881c0-44.996-36.466-81.479-81.462-81.5H209c-44.996.021-81.462 36.504-81.462 81.5s36.466 81.479 81.462 81.5h782c44.996-.02 81.462-36.504 81.462-81.5" style="display:inline;fill:#000;fill-opacity:1;stroke:none;stroke-width:.944827;stroke-linecap:round" transform="translate(40 -30)"/><path d="M140.014 75.287a38 38 0 0 0-3.874-4.123c-2.291-2.1-4.85-3.936-7.638-5.292-1.92-.934-3.948-1.64-6.063-2.037a23.4 23.4 0 0 0-8.548 0c-2.116.397-4.144 1.103-6.064 2.037-2.788 1.356-5.347 3.192-7.637 5.292a38 38 0 0 0-3.875 4.123c-4.224 5.238-7.031 11.639-8.445 18.185h60.59c-1.415-6.546-4.221-12.947-8.446-18.185m-2.085-27.313c3.402.79 6.762 1.741 10.007 3 3.484 1.35 6.837 3.055 10.031 5.01 2.445 1.497 4.796 3.14 6.986 4.983a48 48 0 0 1 5.973 5.998c2.79 3.347 5.12 7.072 7.004 11.02 2.559 5.363 4.294 11.14 5.033 17.009.811 6.451.417 13.016.452 19.478H87.473c.03 3.498 1.147 6.802 2.49 9.997.868 2.066 1.832 4.087 2.97 6.003a44 44 0 0 0 1.962 2.998c2.262 3.19 4.89 6.189 8.015 8.51a28.5 28.5 0 0 0 5.075 2.997c3.452 1.59 7.26 2.557 11.03 2.511 2.86-.035 5.698-.653 8.447-1.516 2.438-.764 4.805-1.722 6.999-2.99 2.171-1.256 4.172-2.818 6.036-4.51 2.563-2.326 4.867-4.9 6.545-8h33.36c-2.858 9.667-9.073 18.746-17.447 24.485-5.92 4.059-12.92 6.448-20.003 8.037-8.587 1.926-17.297 2.675-26.017 2.478-7.058-.159-14.121-.938-21.002-2.516-3.39-.777-6.737-1.748-9.98-3.004a59.6 59.6 0 0 1-13.035-7.005c-3.274-2.33-6.302-5.001-8.956-8.024a49.3 49.3 0 0 1-8.995-15.002c-1.348-3.559-2.27-7.253-3.006-10.996-.885-4.502-1.5-9.074-1.443-13.635.05-4.13.652-8.25 1.429-12.333.517-2.72 1.113-5.426 2.014-8.022.83-2.39 1.917-4.688 3.007-6.993.84-1.78 1.683-3.562 2.783-5.174.672-.986 1.44-1.907 2.2-2.838 2.092-2.565 4.112-5.206 6.509-7.45 2.259-2.115 4.853-3.88 7.507-5.531 3.693-2.298 7.503-4.38 11.506-5.996 4.637-1.871 9.534-3.118 14.483-4.01 5.142-.926 10.34-1.469 15.544-1.47 6.86 0 13.727.942 20.43 2.5" style="display:inline;fill:#fff;fill-opacity:1;stroke:none;stroke-width:.944827;stroke-linecap:round" transform="translate(140.045 176.909)"/><path d="m264.14 105.39 51.315 60.082h-45.37l-28.63-33.52-28.63 33.52h-45.37l51.315-60.081-47.758-55.919h45.37l25.073 29.358 25.073-29.358H311.9zm144.823-47.42c4.596 3.38 8.3 7.817 10.04 12.996 1.7 5.057 1.53 10.82-.005 16.035a30.4 30.4 0 0 1-14.39 17.971c8.223 2.809 17.059 8.829 20.553 17.245 3.435 8.274 1.707 18.864-3.185 26.718-2.58 4.143-6.04 7.525-10.033 10.037-7.811 4.914-17.662 6.5-26.987 6.5h-68v-116h65.082c8.484 0 19.023 2.687 26.925 8.498m-13.008 73.502c0-8.284-6.715-15-15-15h-36.499v30h36.5c8.284 0 15-6.715 15-15m-51.499-62.5v29h33.5c8.008 0 14.5-6.491 14.5-14.5 0-8.008-6.492-14.5-14.5-14.5zm160.098 84.699c23.062-4.385 39.002-25.597 36.8-48.962-2.204-23.364-21.826-41.205-45.3-41.205s-43.095 17.84-45.298 41.205 13.736 44.577 36.799 48.962v21.274c-36.038-4.49-62.368-36.237-60.117-72.47 2.25-36.232 32.304-64.442 68.616-64.442 36.313 0 66.366 28.21 68.617 64.442 2.25 36.233-24.08 67.98-60.117 72.47zm120.899-87.108-19.256 52.91h38.515zm-18.748-17.09h37.5l51.249 116h-33.999l-9.827-27h-52.347l-9.827 27h-33.999zm94.25-.001v116h30.498v-43h29.41c6.15 0 10.606 1.463 14.056 4.509 4.092 3.613 6.767 9.454 9.033 15 1.79 4.381 3.325 8.578 4.918 12.932 1.415 3.869 2.877 7.862 6.084 10.56h30c-3.157-2.704-4.533-6.637-6.009-10.452-1.312-3.396-2.704-6.697-4.027-10.044-1.592-4.026-3.085-8.117-5.014-12.014-1.402-2.83-3.033-5.558-5.006-8.02-3.435-4.288-7.903-7.775-12.944-9.97 7.79-3.004 15.619-7.276 20.935-14 3.96-5.01 6.527-11.38 6.565-17.738.033-5.38-1.745-10.751-4.635-15.323-3.567-5.642-8.828-10.067-14.837-13.044-8.106-4.016-17.574-5.396-26.097-5.396zm30.498 19.5h41.002c8.836 0 16 7.164 16 16s-7.164 16-16 16h-41.002zm96.502-19.5v116h56.697c13.872 0 27.86-2.981 39.2-10.398 6.364-4.162 11.894-9.722 16.067-16.121 3.785-5.806 6.453-12.303 8.008-19.033.944-4.087 1.478-8.26 1.504-12.447-.026-4.188-.56-8.361-1.504-12.448-1.555-6.73-4.223-13.227-8.008-19.033-4.173-6.4-9.703-11.959-16.068-16.121-11.34-7.417-25.327-10.399-39.199-10.399zm29.998 19.5h24.001c5.562 0 10.925.01 15.86 1.752 3.651 1.288 7.068 3.525 10.059 6.178 3.82 3.39 6.947 7.462 9.133 11.999 2.754 5.716 4.016 12.173 4.013 18.572.003 6.398-1.259 12.855-4.013 18.571-2.186 4.537-5.313 8.609-9.133 11.999-2.991 2.653-6.408 4.89-10.059 6.178-4.935 1.741-10.298 1.752-15.86 1.751h-24z" style="display:inline;fill:#fff;fill-opacity:1;stroke:none;stroke-width:.944827;stroke-linecap:round" transform="translate(140.045 176.909)"/><path d="M583.05 290.144c1.967-.061 4.565-.083 7.019.515 2.16.526 4.207 1.531 5.271 3.25 1.132 1.83 1.15 4.468.353 6.58-1.307 3.457-4.803 5.501-8.21 7-2.058.905-4.083 1.611-6.301 1.67-3.333.086-7.1-1.291-9.059-3.735-1.175-1.467-1.7-3.317-1.316-5.73.378-2.383-2.806-3.544-4.05-1.477-8.74 14.52-5.548 33.248 7.506 44.049s32.042 10.426 44.67-.876c12.626-11.301 15.095-30.132 5.802-44.3-9.294-14.166-27.556-19.407-42.951-12.323-2.79 1.284-1.805 5.472 1.266 5.377z" style="display:inline;fill:#ff0600;fill-opacity:1;stroke:#ff0600;stroke-width:.944827;stroke-linecap:round;stroke-opacity:1" transform="translate(40 -30)"/><g style="fill:#fff"><path d="M1194.33 166.299h631.18v-75.01c-42.843-11.82-70.355-53.495-64.39-97.53s43.57-76.864 88.015-76.864 82.05 32.829 88.015 76.863c5.965 44.036-21.547 85.71-64.393 97.531v75.01h213.54v-313.701h7.78l38.52 313.701h64.25l38.54-313.919h7.76v313.919h90.71v-438.425h-139.84l-26.22 213.543h-6.15l-26.217-213.543h-139.84v405.851l-67.09-405.851h-158.74l-57.63 326.88v-326.88h-517.8m1162.21 0h98.26V78.137c0 4.082 1.087 8.828 3.318 13.152 4.278 8.29 12.764 15.031 21.249 14.983s16.97-6.886 21.248-14.983c2.232-4.224 3.319-8.79 3.322-13.152v-350.263h98.26V78.137c0 11.582-.253 22.273-3.35 32.207-7.18 23.03-29.633 41.993-53.414 52.742-21.312 9.632-43.69 12.667-66.068 12.662-22.379-.005-44.757-3.049-66.069-12.662-23.78-10.727-46.233-29.634-53.413-52.742-3.098-9.968-3.353-20.718-3.35-32.207z" style="fill:#fff;fill-opacity:1;stroke:none;stroke-width:3.571;stroke-linecap:round" transform="translate(140.5 97.619)scale(.26458)"/></g><g style="fill:#000"><path d="M1409.76 154.961v-79.37h-71.81v-86.93h71.81v-83.15h-71.81v-75.59h71.81v-90.708h-173.85v415.748zm5.67-415.748h111.5l22.95 99.404 16.6-99.216h98.4l-34.77 207.772 51.78 207.975h-111.94l-24.96-108.121-18.06 107.934h-109.61l39.54-236.29z" style="fill:#000;fill-opacity:1;stroke:none;stroke-width:3.571;stroke-linecap:round" transform="translate(140.5 97.619)scale(.26458)"/></g><path d="M607.25 129.119a17.5 17.5 0 0 0-35 0 17.5 17.5 0 0 0 35 0" style="fill:#ff0600;fill-opacity:1;stroke:none;stroke-width:.944827;stroke-linecap:round" transform="translate(40 -30)"/></svg>