<?xml version="1.0" encoding="UTF-8" standalone="no"?>
<svg
   version="1.1"
   viewBox="0 0 600 300"
   id="svg43"
   sodipodi:docname="exl100-w.svg"
   inkscape:version="1.3 (0e150ed6c4, 2023-07-21)"
   xmlns:inkscape="http://www.inkscape.org/namespaces/inkscape"
   xmlns:sodipodi="http://sodipodi.sourceforge.net/DTD/sodipodi-0.dtd"
   xmlns="http://www.w3.org/2000/svg"
   xmlns:svg="http://www.w3.org/2000/svg">
  <defs
     id="defs43" />
  <sodipodi:namedview
     id="namedview43"
     pagecolor="#ffffff"
     bordercolor="#000000"
     borderopacity="0.25"
     inkscape:showpageshadow="2"
     inkscape:pageopacity="0.0"
     inkscape:pagecheckerboard="0"
     inkscape:deskcolor="#d1d1d1"
     inkscape:zoom="3.91"
     inkscape:cx="299.87212"
     inkscape:cy="150"
     inkscape:window-width="3440"
     inkscape:window-height="1369"
     inkscape:window-x="-8"
     inkscape:window-y="-8"
     inkscape:window-maximized="1"
     inkscape:current-layer="g33" />
  <g
     stroke-width="2.00"
     fill="none"
     stroke-linecap="butt"
     id="g17">
    <path
       stroke="#7f7f7f"
       vector-effect="non-scaling-stroke"
       d="   M 146.79 152.25   L 141.65 143.56   A 1.17 1.17 0.0 0 0 140.77 143.00   Q 138.91 142.80 137.73 144.15   A 1.78 1.74 12.5 0 1 136.86 144.69   C 133.35 145.61 134.63 141.64 132.00 140.96"
       id="path1" />
    <path
       stroke="#7f7f7f"
       vector-effect="non-scaling-stroke"
       d="   M 117.50 140.96   C 114.77 144.28 109.79 144.56 115.60 149.67   A 1.30 1.30 0.0 0 0 116.49 150.00   L 137.51 149.99   A 0.59 0.59 0.0 0 1 138.10 150.57   L 138.20 179.58   A 0.38 0.37 89.3 0 0 138.58 179.96   L 152.59 179.67   A 0.66 0.66 0.0 0 1 153.26 180.34   L 153.09 194.23   A 0.64 0.64 0.0 0 0 153.73 194.88   L 167.42 194.78   A 0.38 0.38 0.0 0 0 167.79 194.39   L 167.73 180.49   A 0.78 0.77 -89.6 0 1 168.51 179.71   L 182.42 179.84   A 0.45 0.44 -89.4 0 0 182.87 179.39   L 183.00 147.31   A 0.38 0.38 0.0 0 1 183.38 146.93   L 215.55 147.01   A 0.47 0.47 0.0 0 1 216.02 147.48   L 215.99 179.60   A 0.41 0.41 0.0 0 1 215.58 180.01   L 201.61 180.00   A 0.64 0.64 0.0 0 0 200.97 180.64   L 201.06 194.54   A 0.42 0.42 0.0 0 1 200.64 194.97   L 183.69 195.11   A 0.70 0.70 0.0 0 0 183.00 195.81   L 183.00 209.38   A 0.63 0.63 0.0 0 0 183.63 210.01   L 200.56 209.97   A 0.47 0.47 0.0 0 1 201.03 210.44   L 200.98 224.43   A 0.44 0.44 0.0 0 0 201.43 224.87   L 215.69 224.73   A 0.50 0.50 0.0 0 1 216.20 225.26   C 215.69 236.81 216.80 247.33 215.82 257.70   A 0.50 0.49 -86.7 0 1 215.33 258.14   L 183.28 258.04   A 0.44 0.44 0.0 0 1 182.84 257.59   L 182.91 226.18   A 0.99 0.99 0.0 0 0 181.93 225.19   L 168.30 225.08   A 0.53 0.53 0.0 0 1 167.77 224.55   L 167.79 210.68   A 0.48 0.48 0.0 0 0 167.31 210.20   L 153.51 210.20   A 0.29 0.29 0.0 0 0 153.22 210.49   L 153.23 224.60   A 0.40 0.40 0.0 0 1 152.83 225.01   L 139.04 224.99   A 0.97 0.96 90.0 0 0 138.08 225.96   L 138.16 257.71   A 0.38 0.37 -90.0 0 1 137.79 258.09   L 108.51 257.96   A 0.52 0.52 0.0 0 1 107.99 257.44   L 108.00 225.37   A 0.38 0.37 -0.0 0 1 108.38 225.00   L 122.38 225.00   A 0.63 0.62 90.0 0 0 123.00 224.37   L 123.00 210.21   A 0.53 0.52 -89.0 0 1 123.54 209.68   L 137.24 209.98   A 0.47 0.47 0.0 0 0 137.72 209.51   L 137.82 195.87   A 0.70 0.69 0.0 0 0 137.12 195.18   L 123.53 195.27   A 0.80 0.80 0.0 0 1 122.73 194.47   L 122.78 180.88   A 0.52 0.52 0.0 0 0 122.28 180.35   C 120.30 180.29 108.80 180.60 108.02 179.77   A 0.66 0.66 0.0 0 1 107.90 179.05   Q 108.08 178.65 107.98 178.22   A 0.42 0.41 68.0 0 0 107.36 177.95   L 98.96 183.00"
       id="path2" />
    <path
       stroke="#7f7f7f"
       vector-effect="non-scaling-stroke"
       d="   M 76.00 171.04   L 76.25 171.00   A 0.01 0.01 0.0 0 0 76.26 170.98   L 73.22 165.64   A 0.73 0.73 0.0 0 0 72.59 165.28   L 36.62 165.19   A 0.38 0.38 0.0 0 0 36.24 165.57   L 36.23 194.24   A 0.51 0.51 0.0 0 0 36.74 194.75   L 83.51 194.80   A 0.64 0.63 -90.0 0 1 84.14 195.44   L 83.95 212.54   A 0.50 0.49 -0.0 0 1 83.45 213.03   Q 63.10 212.85 42.75 213.24   Q 41.13 213.27 39.88 213.04   A 0.55 0.54 -84.6 0 0 39.25 213.57   L 39.17 242.45   A 0.40 0.40 0.0 0 0 39.57 242.85   L 98.38 242.97   A 0.66 0.66 0.0 0 1 99.04 243.64   L 99.04 257.55   A 0.51 0.50 0.6 0 1 98.52 258.05   Q 71.05 257.87 43.57 258.14   C 36.90 258.20 28.88 257.88 21.52 257.99   A 0.51 0.51 0.0 0 1 21.00 257.48   L 21.00 243.75   A 0.75 0.75 0.0 0 0 20.25 243.00   L 6.50 243.00   A 0.51 0.51 0.0 0 1 5.99 242.49   L 6.00 165.42   A 0.65 0.64 0.0 0 1 6.65 164.78   L 20.49 164.81   A 0.48 0.48 0.0 0 0 20.97 164.33   L 21.01 150.51   A 0.49 0.49 0.0 0 1 21.49 150.03   L 77.73 149.75   A 0.34 0.34 0.0 0 0 78.02 149.23   L 75.83 145.53   A 0.59 0.59 0.0 0 1 76.03 144.73   C 77.21 144.00 80.80 142.76 79.96 141.00"
       id="path3" />
    <path
       stroke="#7d7420"
       vector-effect="non-scaling-stroke"
       d="   M 106.72 111.38   L 112.74 121.09   A 0.67 0.67 0.0 0 0 113.57 121.36   L 116.87 119.99   A 2.12 2.12 0.0 0 0 117.82 116.86   C 114.69 112.16 121.39 109.15 124.80 107.86   Q 127.00 107.04 125.72 105.07   L 120.71 97.30   A 1.76 1.75 -32.0 0 1 121.29 94.83   L 134.82 86.78   A 1.46 1.46 0.0 0 0 135.29 84.70   L 133.33 81.84   A 1.39 1.39 0.0 0 1 133.77 79.87   L 142.40 74.72   A 1.00 0.98 77.0 0 0 142.87 73.95   C 143.08 71.46 139.63 69.92 141.79 68.00"
       id="path4" />
    <path
       stroke="#782f2f"
       vector-effect="non-scaling-stroke"
       d="   M 141.79 68.00   L 144.80 66.05   A 1.45 1.45 0.0 0 0 145.18 63.96   L 143.22 61.33   A 0.94 0.93 -55.3 0 1 143.07 60.49   C 143.86 57.90 146.78 59.33 147.48 56.11   A 1.12 1.11 -61.0 0 0 147.19 55.09   L 144.07 51.84   A 0.67 0.67 0.0 0 0 143.18 51.78   L 140.65 53.73   A 1.60 1.60 0.0 0 1 138.33 53.32   Q 137.40 51.87 136.32 50.43   C 134.85 48.48 134.18 45.96 131.89 44.21   A 0.64 0.63 42.7 0 0 131.08 44.24   L 128.77 46.31   A 1.93 1.93 0.0 0 1 125.84 45.89   L 120.49 37.23   A 0.97 0.96 58.8 0 0 119.18 36.90   Q 113.04 40.55 106.93 44.29   C 104.50 45.78 102.91 47.57 105.89 49.86   A 1.15 1.13 16.8 0 1 106.33 50.67   C 106.57 53.15 102.93 53.43 101.84 56.03   A 0.60 0.60 0.0 0 0 102.07 56.76   Q 104.14 58.12 103.98 60.56   A 0.99 0.97 -12.3 0 1 103.44 61.38   C 101.93 62.17 99.69 62.49 99.76 64.77   A 1.07 1.05 15.2 0 0 100.26 65.63   Q 102.81 67.19 101.31 69.87   A 1.01 1.00 -77.5 0 1 100.54 70.37   Q 98.98 70.53 98.00 71.69   A 0.99 0.98 -38.9 0 0 97.88 72.76   L 99.96 76.92   A 1.16 1.15 61.8 0 1 99.51 78.43   L 91.36 83.22   A 1.84 1.83 -31.3 0 0 90.73 85.77   L 106.72 111.38"
       id="path5" />
    <path
       stroke="#f5a24e"
       vector-effect="non-scaling-stroke"
       d="   M 141.79 68.00   Q 141.16 67.43 140.55 67.81   C 138.53 69.06 125.16 77.64 124.03 77.53   A 0.82 0.80 -72.6 0 0 123.23 77.96   L 122.66 79.02   A 0.92 0.91 -47.1 0 0 122.69 79.92   L 125.87 85.17   A 0.72 0.71 -31.7 0 1 125.63 86.16   L 109.63 95.78   A 0.66 0.66 0.0 0 0 109.40 96.69   L 114.66 105.65   A 0.80 0.80 0.0 0 1 114.39 106.74   L 106.72 111.38"
       id="path6" />
    <path
       stroke="#7d7420"
       vector-effect="non-scaling-stroke"
       d="   M 47.25 125.46   L 47.85 125.66   A 1.57 1.50 79.6 0 1 48.62 126.22   L 50.91 129.30   A 0.73 0.72 56.5 0 0 51.86 129.50   L 61.36 124.08   A 0.79 0.78 59.2 0 1 62.42 124.35   L 64.20 127.32   A 1.78 1.77 -31.0 0 0 66.63 127.92   L 80.14 119.77   A 1.08 1.06 38.9 0 1 81.05 119.68   C 83.25 120.47 86.31 126.77 87.47 128.93   A 1.15 1.15 0.0 0 0 89.09 129.36   L 97.91 123.82   A 1.19 1.19 0.0 0 1 99.50 124.11   L 102.11 127.58   A 0.97 0.96 -25.1 0 0 103.11 127.94   Q 105.74 127.31 107.47 125.26   A 0.83 0.83 0.0 0 0 107.53 124.28   L 102.00 115.71"
       id="path7" />
    <path
       stroke="#782f2f"
       vector-effect="non-scaling-stroke"
       d="   M 102.00 115.71   L 86.20 89.19   Q 84.97 87.12 82.91 88.37   L 74.72 93.31   A 0.82 0.82 0.0 0 1 73.60 93.06   L 71.26 89.55   A 1.19 1.19 0.0 0 0 70.39 89.02   Q 68.64 88.81 67.45 90.19   A 1.63 1.58 14.7 0 1 66.51 90.72   Q 63.73 91.20 63.28 88.36   A 0.74 0.73 7.3 0 0 62.83 87.79   Q 60.02 86.66 58.25 88.64   A 1.83 1.83 0.0 0 1 55.42 88.51   L 52.77 84.97   A 0.68 0.68 0.0 0 0 51.81 84.84   L 48.80 87.15   A 0.89 0.89 0.0 0 1 47.91 87.27   Q 45.96 86.46 45.57 84.36   A 1.84 1.83 69.7 0 0 42.84 83.10   L 28.90 91.26   A 1.65 1.64 -31.2 0 0 28.33 93.55   L 33.77 102.32   A 0.99 0.99 0.0 0 1 33.40 103.71   L 30.10 105.50   A 1.78 1.78 0.0 0 0 29.63 108.26   Q 32.96 111.95 34.89 116.54   A 0.70 0.69 60.9 0 1 34.66 117.37   L 31.40 119.74   A 1.68 1.67 54.4 0 0 31.02 122.06   L 33.02 124.88   A 0.93 0.92 -21.3 0 0 33.89 125.26   Q 35.35 125.07 36.47 124.19   C 40.12 121.33 40.20 125.84 42.57 127.57   A 0.65 0.64 42.5 0 0 43.36 127.54   Q 45.15 126.07 47.25 125.46"
       id="path8" />
    <path
       stroke="#f5a24e"
       vector-effect="non-scaling-stroke"
       d="   M 102.00 115.71   Q 97.70 116.99 94.02 119.88   A 0.47 0.47 0.0 0 1 93.32 119.74   L 87.91 110.51   A 0.65 0.64 59.4 0 0 87.03 110.28   L 70.68 119.94   A 0.50 0.50 0.0 0 1 69.99 119.77   L 66.48 113.81   A 0.75 0.75 0.0 0 0 65.43 113.55   Q 56.62 119.01 47.55 124.29   Q 47.05 124.58 47.25 125.46"
       id="path9" />
    <path
       stroke="#094d7e"
       vector-effect="non-scaling-stroke"
       d="   M 130.49 126.53   C 132.74 127.94 135.32 134.03 137.14 136.55   A 0.79 0.79 0.0 0 0 138.24 136.73   L 141.15 134.65   A 1.70 1.70 0.0 0 1 143.58 135.15   L 148.87 143.76   A 1.22 1.21 -31.3 0 0 150.54 144.16   L 157.44 139.94   Q 157.86 139.68 158.34 139.58   Q 160.41 139.18 159.95 136.73   A 1.58 1.52 19.1 0 0 159.53 135.91   Q 158.06 134.38 157.55 132.30   A 0.69 0.67 -20.8 0 1 157.91 131.52   L 161.41 129.73   A 1.14 1.12 75.2 0 0 162.02 128.66   Q 161.89 126.55 159.97 125.47   A 0.71 0.70 -67.8 0 1 159.63 124.65   Q 160.44 121.77 163.62 121.59   A 1.15 1.15 0.0 0 0 164.55 119.87   L 162.07 115.58   A 1.21 1.21 0.0 0 0 160.33 115.20   L 156.82 117.70   A 0.57 0.56 -34.2 0 1 156.02 117.55   L 153.47 113.66   A 1.59 1.58 -32.6 0 0 151.29 113.19   L 147.87 115.33   A 0.82 0.81 58.6 0 1 146.73 115.05   L 144.83 111.83   A 1.17 1.17 0.0 0 0 143.94 111.26   Q 141.48 111.02 139.95 113.05   A 1.30 1.29 -36.3 0 1 137.70 112.71   Q 136.78 110.15 134.66 108.56   A 0.70 0.69 -46.1 0 0 133.81 108.58   Q 129.61 111.87 124.82 114.24   A 1.25 1.24 -27.2 0 0 124.27 115.94   L 126.77 120.64   A 0.80 0.80 0.0 0 1 126.09 121.81   Q 123.26 121.90 122.30 124.51   A 1.16 1.15 38.2 0 0 122.43 125.55   L 124.75 128.98   A 0.67 0.67 0.0 0 0 125.67 129.16   L 129.63 126.54   A 0.80 0.79 -45.3 0 1 130.49 126.53"
       id="path10" />
    <path
       stroke="#094d7e"
       vector-effect="non-scaling-stroke"
       d="   M 105.71 157.16   Q 106.91 155.33 109.05 154.79   A 1.73 1.73 0.0 0 0 110.07 152.14   L 104.44 143.85   A 1.43 1.43 0.0 0 1 105.16 141.69   L 107.70 140.83   A 1.18 1.18 0.0 0 0 108.47 139.41   Q 107.68 136.38 105.45 134.40   A 0.66 0.65 48.6 0 0 104.66 134.34   L 101.32 136.55   A 0.69 0.69 0.0 0 1 100.39 136.39   L 98.14 133.38   A 2.45 2.45 0.0 0 0 94.84 132.80   L 89.17 136.51   Q 88.73 136.80 88.21 136.90   C 84.49 137.64 87.34 140.95 88.31 142.40   A 1.40 1.38 31.7 0 1 88.54 143.34   Q 88.28 145.73 85.85 145.64   A 1.08 1.08 0.0 0 0 85.00 146.00   C 83.62 147.58 86.06 150.52 86.49 152.46   A 0.68 0.68 0.0 0 1 86.18 153.18   L 83.01 155.10   A 1.50 1.50 0.0 0 0 82.49 157.12   L 84.75 161.10   A 0.70 0.70 0.0 0 1 84.45 162.08   L 81.06 163.76   A 1.58 1.58 0.0 0 0 80.43 166.02   L 82.41 169.11   Q 83.61 170.99 85.28 169.49   L 87.67 167.33   A 0.77 0.77 0.0 0 1 88.86 167.52   L 90.95 171.20   A 1.02 1.00 -11.1 0 0 91.71 171.70   Q 94.14 171.96 95.61 169.90   A 1.25 1.25 0.0 0 1 97.70 169.98   L 100.25 174.16   A 1.20 1.20 0.0 0 0 101.94 174.53   L 111.08 168.34   A 0.71 0.70 61.1 0 0 111.33 167.46   Q 109.18 162.73 105.81 158.81   A 1.38 1.37 41.7 0 1 105.71 157.16"
       id="path11" />
    <path
       stroke="#7f7f7f"
       vector-effect="non-scaling-stroke"
       d="   M 225.51 161.85   A 0.58 0.58 0.0 0 0 224.92 162.40   Q 224.82 164.34 224.81 166.76   Q 224.73 203.07 225.05 239.44   A 0.56 0.56 0.0 0 0 225.61 240.00   L 238.76 240.00   A 1.27 1.27 0.0 0 1 240.03 241.27   L 239.95 257.53   A 0.47 0.47 0.0 0 0 240.37 258.01   C 244.67 258.49 250.15 258.01 253.12 258.01   Q 283.87 257.94 314.67 258.07   A 0.52 0.51 90.0 0 0 315.19 257.54   L 314.93 240.43   A 0.54 0.54 0.0 0 0 314.39 239.90   C 290.80 240.23 275.49 239.14 256.02 240.01   A 0.99 0.98 1.0 0 1 254.98 238.94   Q 255.25 235.88 255.24 232.50   Q 255.21 189.90 254.96 147.34   A 0.39 0.39 0.0 0 0 254.57 146.95   L 240.36 147.02   A 0.37 0.37 0.0 0 0 240.00 147.39   L 240.00 161.53   A 0.53 0.53 0.0 0 1 239.46 162.06   L 225.51 161.85"
       id="path12" />
    <path
       stroke="#7f7f7f"
       vector-effect="non-scaling-stroke"
       d="   M 362.73 180.57   L 363.06 257.43   A 0.56 0.56 0.0 0 0 363.62 257.99   L 392.65 258.02   A 0.36 0.36 0.0 0 0 393.01 257.66   L 393.00 147.55   A 0.52 0.52 0.0 0 0 392.48 147.03   L 348.31 146.92   A 0.52 0.52 0.0 0 0 347.79 147.44   L 348.03 160.60   A 1.38 1.38 0.0 0 1 346.65 162.00   L 330.50 162.00   A 0.50 0.50 0.0 0 0 330.00 162.50   L 330.00 179.25   A 0.75 0.75 0.0 0 1 329.25 180.00   L 315.50 180.00   A 0.50 0.50 0.0 0 0 315.00 180.50   L 315.00 194.46   A 0.47 0.46 90.0 0 0 315.46 194.93   L 347.75 195.23   A 0.48 0.48 0.0 0 0 348.23 194.75   L 348.20 180.72   A 0.58 0.58 0.0 0 1 348.78 180.14   L 362.38 180.22   A 0.35 0.35 0.0 0 1 362.73 180.57"
       id="path13" />
    <path
       stroke="#7f7f7f"
       vector-effect="non-scaling-stroke"
       d="   M 494.64 161.86   L 477.50 162.06   A 0.56 0.55 0.5 0 1 476.94 161.50   L 477.16 147.24   A 0.46 0.45 0.6 0 0 476.70 146.78   Q 449.61 147.15 422.52 146.96   C 421.27 146.96 419.23 146.54 417.52 146.85   A 0.65 0.65 0.0 0 0 416.99 147.49   L 417.01 161.14   A 0.90 0.89 0.0 0 1 416.11 162.03   L 402.50 161.94   A 0.43 0.43 0.0 0 0 402.07 162.34   Q 401.82 167.16 401.93 177.31   Q 402.15 196.34 401.95 242.50   A 0.50 0.49 90.0 0 0 402.44 243.00   L 416.26 243.00   A 0.77 0.77 0.0 0 1 417.03 243.77   L 416.94 257.56   A 0.38 0.37 -90.0 0 0 417.31 257.94   L 476.52 258.27   A 0.53 0.53 0.0 0 0 477.05 257.74   L 476.98 243.88   A 0.89 0.88 -0.3 0 1 477.87 242.99   L 494.85 243.03   A 0.32 0.32 0.0 0 0 495.17 242.71   L 495.18 162.39   A 0.53 0.53 0.0 0 0 494.64 161.86"
       id="path14" />
    <path
       stroke="#7f7f7f"
       vector-effect="non-scaling-stroke"
       d="   M 593.60 161.76   L 580.35 162.02   A 1.39 1.39 0.0 0 1 578.93 160.60   L 579.21 147.25   A 0.46 0.45 0.6 0 0 578.75 146.79   L 516.46 147.01   A 0.54 0.53 -0.6 0 0 515.93 147.54   L 516.03 160.83   A 1.09 1.09 0.0 0 1 514.92 161.93   L 501.41 161.69   A 0.65 0.65 0.0 0 0 500.75 162.34   L 500.87 242.40   A 0.61 0.60 89.5 0 0 501.47 243.00   L 515.01 243.00   A 1.00 1.00 0.0 0 1 516.01 244.01   L 515.97 257.37   A 0.59 0.59 0.0 0 0 516.56 257.97   L 578.80 258.11   A 0.40 0.40 0.0 0 0 579.20 257.70   L 578.93 243.54   A 0.53 0.53 0.0 0 1 579.46 243.00   L 593.46 243.00   A 0.46 0.46 0.0 0 0 593.92 242.54   L 594.21 162.35   A 0.60 0.59 -0.5 0 0 593.60 161.76"
       id="path15" />
    <path
       stroke="#7f7f7f"
       vector-effect="non-scaling-stroke"
       d="   M 461.91 165.52   A 0.30 0.30 0.0 0 0 461.61 165.22   L 432.53 165.22   A 0.30 0.30 0.0 0 0 432.23 165.52   L 432.23 239.54   A 0.30 0.30 0.0 0 0 432.53 239.84   L 461.61 239.84   A 0.30 0.30 0.0 0 0 461.91 239.54   L 461.91 165.52"
       id="path16" />
    <path
       stroke="#7f7f7f"
       vector-effect="non-scaling-stroke"
       d="   M 560.82 162.45   A 0.26 0.26 0.0 0 0 560.56 162.19   L 531.40 162.19   A 0.26 0.26 0.0 0 0 531.14 162.45   L 531.14 239.49   A 0.26 0.26 0.0 0 0 531.40 239.75   L 560.56 239.75   A 0.26 0.26 0.0 0 0 560.82 239.49   L 560.82 162.45"
       id="path17" />
  </g>
  <g
     fill="#000000"
     id="g33">
    <rect
       x="-3.01"
       y="-3.34"
       transform="translate(89.45,29.29) rotate(-33.8)"
       width="6.02"
       height="6.68"
       rx="2.05"
       id="rect17" />
    <path
       d="   M 146.79 152.25   L 141.65 143.56   A 1.17 1.17 0.0 0 0 140.77 143.00   Q 138.91 142.80 137.73 144.15   A 1.78 1.74 12.5 0 1 136.86 144.69   C 133.35 145.61 134.63 141.64 132.00 140.96   L 129.69 136.13   A 1.05 1.04 -6.6 0 0 128.98 135.57   Q 126.76 135.08 125.52 136.86   A 1.76 1.76 0.0 0 1 122.57 136.77   L 117.48 128.39   A 0.87 0.87 0.0 0 0 116.77 127.97   Q 114.00 127.89 112.10 129.92   A 1.62 1.62 0.0 0 0 111.90 131.89   L 117.50 140.96   C 114.77 144.28 109.79 144.56 115.60 149.67   A 1.30 1.30 0.0 0 0 116.49 150.00   L 137.51 149.99   A 0.59 0.59 0.0 0 1 138.10 150.57   L 138.20 179.58   A 0.38 0.37 89.3 0 0 138.58 179.96   L 152.59 179.67   A 0.66 0.66 0.0 0 1 153.26 180.34   L 153.09 194.23   A 0.64 0.64 0.0 0 0 153.73 194.88   L 167.42 194.78   A 0.38 0.38 0.0 0 0 167.79 194.39   L 167.73 180.49   A 0.78 0.77 -89.6 0 1 168.51 179.71   L 182.42 179.84   A 0.45 0.44 -89.4 0 0 182.87 179.39   L 183.00 147.31   A 0.38 0.38 0.0 0 1 183.38 146.93   L 215.55 147.01   A 0.47 0.47 0.0 0 1 216.02 147.48   L 215.99 179.60   A 0.41 0.41 0.0 0 1 215.58 180.01   L 201.61 180.00   A 0.64 0.64 0.0 0 0 200.97 180.64   L 201.06 194.54   A 0.42 0.42 0.0 0 1 200.64 194.97   L 183.69 195.11   A 0.70 0.70 0.0 0 0 183.00 195.81   L 183.00 209.38   A 0.63 0.63 0.0 0 0 183.63 210.01   L 200.56 209.97   A 0.47 0.47 0.0 0 1 201.03 210.44   L 200.98 224.43   A 0.44 0.44 0.0 0 0 201.43 224.87   L 215.69 224.73   A 0.50 0.50 0.0 0 1 216.20 225.26   C 215.69 236.81 216.80 247.33 215.82 257.70   A 0.50 0.49 -86.7 0 1 215.33 258.14   L 183.28 258.04   A 0.44 0.44 0.0 0 1 182.84 257.59   L 182.91 226.18   A 0.99 0.99 0.0 0 0 181.93 225.19   L 168.30 225.08   A 0.53 0.53 0.0 0 1 167.77 224.55   L 167.79 210.68   A 0.48 0.48 0.0 0 0 167.31 210.20   L 153.51 210.20   A 0.29 0.29 0.0 0 0 153.22 210.49   L 153.23 224.60   A 0.40 0.40 0.0 0 1 152.83 225.01   L 139.04 224.99   A 0.97 0.96 90.0 0 0 138.08 225.96   L 138.16 257.71   A 0.38 0.37 -90.0 0 1 137.79 258.09   L 108.51 257.96   A 0.52 0.52 0.0 0 1 107.99 257.44   L 108.00 225.37   A 0.38 0.37 -0.0 0 1 108.38 225.00   L 122.38 225.00   A 0.63 0.62 90.0 0 0 123.00 224.37   L 123.00 210.21   A 0.53 0.52 -89.0 0 1 123.54 209.68   L 137.24 209.98   A 0.47 0.47 0.0 0 0 137.72 209.51   L 137.82 195.87   A 0.70 0.69 0.0 0 0 137.12 195.18   L 123.53 195.27   A 0.80 0.80 0.0 0 1 122.73 194.47   L 122.78 180.88   A 0.52 0.52 0.0 0 0 122.28 180.35   C 120.30 180.29 108.80 180.60 108.02 179.77   A 0.66 0.66 0.0 0 1 107.90 179.05   Q 108.08 178.65 107.98 178.22   A 0.42 0.41 68.0 0 0 107.36 177.95   L 98.96 183.00   Q 97.20 182.11 96.82 180.19   A 1.16 1.14 -80.2 0 0 96.30 179.44   C 93.27 177.52 92.82 182.13 89.29 180.42   A 0.84 0.82 -79.2 0 1 88.83 179.72   Q 88.73 177.33 86.64 176.43   A 1.05 1.04 -50.4 0 0 85.63 176.53   L 82.57 178.59   A 1.44 1.43 -32.2 0 1 80.52 178.13   L 76.69 171.58   A 1.07 1.06 87.8 0 0 76.25 171.17   L 76.00 171.04   L 76.25 171.00   A 0.01 0.01 0.0 0 0 76.26 170.98   L 73.22 165.64   A 0.73 0.73 0.0 0 0 72.59 165.28   L 36.62 165.19   A 0.38 0.38 0.0 0 0 36.24 165.57   L 36.23 194.24   A 0.51 0.51 0.0 0 0 36.74 194.75   L 83.51 194.80   A 0.64 0.63 -90.0 0 1 84.14 195.44   L 83.95 212.54   A 0.50 0.49 -0.0 0 1 83.45 213.03   Q 63.10 212.85 42.75 213.24   Q 41.13 213.27 39.88 213.04   A 0.55 0.54 -84.6 0 0 39.25 213.57   L 39.17 242.45   A 0.40 0.40 0.0 0 0 39.57 242.85   L 98.38 242.97   A 0.66 0.66 0.0 0 1 99.04 243.64   L 99.04 257.55   A 0.51 0.50 0.6 0 1 98.52 258.05   Q 71.05 257.87 43.57 258.14   C 36.90 258.20 28.88 257.88 21.52 257.99   A 0.51 0.51 0.0 0 1 21.00 257.48   L 21.00 243.75   A 0.75 0.75 0.0 0 0 20.25 243.00   L 6.50 243.00   A 0.51 0.51 0.0 0 1 5.99 242.49   L 6.00 165.42   A 0.65 0.64 0.0 0 1 6.65 164.78   L 20.49 164.81   A 0.48 0.48 0.0 0 0 20.97 164.33   L 21.01 150.51   A 0.49 0.49 0.0 0 1 21.49 150.03   L 77.73 149.75   A 0.34 0.34 0.0 0 0 78.02 149.23   L 75.83 145.53   A 0.59 0.59 0.0 0 1 76.03 144.73   C 77.21 144.00 80.80 142.76 79.96 141.00   Q 79.91 138.91 78.32 137.83   A 1.10 1.09 44.5 0 1 78.30 136.03   L 81.77 133.57   A 0.95 0.93 -22.4 0 0 82.16 132.66   Q 81.76 129.84 79.47 128.17   A 0.84 0.83 47.1 0 0 78.53 128.13   L 64.51 136.76   A 0.93 0.93 0.0 0 1 63.52 136.74   Q 61.69 135.55 61.02 133.37   A 1.62 1.62 0.0 0 0 58.58 132.49   L 50.82 137.62   A 0.98 0.95 34.0 0 1 50.05 137.76   Q 47.74 137.23 47.09 134.80   A 0.98 0.97 4.7 0 0 46.54 134.16   C 42.97 132.60 42.90 136.93 40.11 135.52   A 1.34 1.32 -85.7 0 1 39.45 134.74   Q 38.86 132.91 37.41 131.66   A 0.84 0.84 0.0 0 0 36.43 131.57   L 32.44 133.94   A 0.98 0.97 -31.2 0 1 31.12 133.62   L 22.23 119.48   A 1.25 1.24 -32.6 0 1 22.61 117.77   L 25.91 115.64   A 1.82 1.82 0.0 0 0 26.36 112.99   Q 24.08 110.05 22.17 106.91   C 18.66 101.14 28.20 103.81 24.59 98.03   Q 22.61 94.85 20.44 91.78   C 18.94 89.67 21.20 88.87 22.64 88.02   Q 33.33 81.73 44.35 74.89   Q 45.90 73.93 47.08 75.32   L 49.37 78.03   A 1.42 1.36 72.7 0 0 50.24 78.51   Q 51.66 78.72 52.43 77.37   A 1.22 1.19 -76.8 0 1 53.37 76.77   Q 56.29 76.51 56.98 79.49   A 1.93 1.92 -26.7 0 0 60.10 80.52   L 62.65 78.34   A 0.71 0.70 -48.1 0 1 63.48 78.29   Q 65.26 79.43 65.82 81.58   A 1.24 1.23 -86.6 0 0 66.54 82.40   L 67.56 82.82   A 1.11 1.11 0.0 0 0 68.57 82.72   L 71.70 80.70   A 0.80 0.79 -38.9 0 1 72.69 80.80   Q 73.91 81.99 74.41 83.64   A 1.07 1.06 4.0 0 0 74.98 84.29   C 77.76 85.60 82.20 82.85 80.02 79.45   Q 77.92 76.15 75.75 73.24   A 1.59 1.58 -48.4 0 1 75.65 71.49   Q 77.30 68.68 80.37 69.47   A 1.48 1.43 81.6 0 1 81.27 70.16   L 85.62 77.75   A 1.60 1.60 0.0 0 0 87.84 78.33   C 93.85 74.71 91.80 76.07 89.58 70.70   A 0.65 0.65 0.0 0 1 89.80 69.93   C 91.40 68.80 94.49 67.87 93.91 65.42   A 1.21 1.19 10.3 0 0 93.41 64.71   Q 91.42 63.44 91.94 61.31   A 0.92 0.90 89.6 0 1 92.58 60.65   Q 94.14 60.25 95.39 59.23   A 1.12 1.12 0.0 0 0 95.79 58.31   Q 95.69 56.14 94.03 54.68   A 0.92 0.89 -63.9 0 1 93.74 53.79   C 94.39 50.80 97.62 52.15 98.18 49.43   A 1.23 1.22 33.0 0 0 97.97 48.46   L 96.23 46.06   A 0.97 0.94 40.4 0 1 96.14 45.08   C 97.32 42.72 99.20 42.30 101.54 40.78   Q 106.23 37.72 118.72 30.45   A 1.43 1.42 -54.9 0 1 119.68 30.28   L 122.70 30.84   A 1.28 1.27 -10.8 0 1 123.56 31.42   C 124.95 33.62 128.36 41.87 132.10 37.04   A 1.88 1.88 0.0 0 1 135.19 37.21   C 136.70 39.68 140.44 49.77 144.57 44.26   A 1.57 1.57 0.0 0 1 147.21 44.44   Q 150.49 50.42 154.15 55.89   C 156.54 59.47 153.64 59.85 151.42 61.39   A 1.07 1.05 73.9 0 0 150.97 62.22   Q 150.91 64.07 152.50 65.08   A 1.44 1.41 -82.2 0 1 153.11 65.90   C 153.85 68.36 150.76 69.19 149.33 69.97   A 0.81 0.79 71.1 0 0 148.93 70.80   Q 149.25 72.90 151.04 74.16   A 1.36 1.36 0.0 0 1 150.88 76.48   C 148.60 77.65 140.79 81.04 141.87 84.09   A 1.93 1.91 -80.6 0 0 142.45 84.91   Q 143.79 85.98 143.68 87.60   A 1.19 1.18 -13.7 0 1 143.10 88.54   L 129.42 96.65   A 2.09 2.08 -33.7 0 0 128.81 99.68   L 130.95 102.58   A 1.02 1.01 70.4 0 0 131.80 102.99   C 134.30 102.88 134.69 101.06 136.69 100.73   A 0.90 0.88 -18.9 0 1 137.61 101.17   L 139.35 104.31   A 1.42 1.41 -28.7 0 0 141.28 104.87   L 144.36 103.18   A 1.36 1.36 0.0 0 1 145.35 103.05   C 148.08 103.69 147.07 106.89 149.55 107.07   C 150.97 107.17 152.00 105.86 153.22 105.09   A 1.17 1.16 37.8 0 1 154.20 104.97   Q 156.70 105.79 157.09 108.46   A 0.94 0.94 0.0 0 0 158.45 109.16   L 161.77 107.48   A 2.00 2.00 0.0 0 1 164.44 108.30   Q 167.89 114.61 171.70 120.50   C 173.98 124.04 169.20 123.54 168.18 125.73   A 1.17 1.14 44.4 0 0 168.20 126.73   L 170.28 130.78   A 0.86 0.85 61.1 0 1 169.96 131.91   L 166.33 134.11   A 0.75 0.75 0.0 0 0 166.01 134.98   C 166.60 136.78 168.51 138.26 167.55 140.39   A 1.69 1.64 87.9 0 1 166.89 141.12   L 148.90 151.91   Q 148.46 152.18 147.95 152.20   L 146.79 152.25   Z   M 106.72 111.38   L 112.74 121.09   A 0.67 0.67 0.0 0 0 113.57 121.36   L 116.87 119.99   A 2.12 2.12 0.0 0 0 117.82 116.86   C 114.69 112.16 121.39 109.15 124.80 107.86   Q 127.00 107.04 125.72 105.07   L 120.71 97.30   A 1.76 1.75 -32.0 0 1 121.29 94.83   L 134.82 86.78   A 1.46 1.46 0.0 0 0 135.29 84.70   L 133.33 81.84   A 1.39 1.39 0.0 0 1 133.77 79.87   L 142.40 74.72   A 1.00 0.98 77.0 0 0 142.87 73.95   C 143.08 71.46 139.63 69.92 141.79 68.00   L 144.80 66.05   A 1.45 1.45 0.0 0 0 145.18 63.96   L 143.22 61.33   A 0.94 0.93 -55.3 0 1 143.07 60.49   C 143.86 57.90 146.78 59.33 147.48 56.11   A 1.12 1.11 -61.0 0 0 147.19 55.09   L 144.07 51.84   A 0.67 0.67 0.0 0 0 143.18 51.78   L 140.65 53.73   A 1.60 1.60 0.0 0 1 138.33 53.32   Q 137.40 51.87 136.32 50.43   C 134.85 48.48 134.18 45.96 131.89 44.21   A 0.64 0.63 42.7 0 0 131.08 44.24   L 128.77 46.31   A 1.93 1.93 0.0 0 1 125.84 45.89   L 120.49 37.23   A 0.97 0.96 58.8 0 0 119.18 36.90   Q 113.04 40.55 106.93 44.29   C 104.50 45.78 102.91 47.57 105.89 49.86   A 1.15 1.13 16.8 0 1 106.33 50.67   C 106.57 53.15 102.93 53.43 101.84 56.03   A 0.60 0.60 0.0 0 0 102.07 56.76   Q 104.14 58.12 103.98 60.56   A 0.99 0.97 -12.3 0 1 103.44 61.38   C 101.93 62.17 99.69 62.49 99.76 64.77   A 1.07 1.05 15.2 0 0 100.26 65.63   Q 102.81 67.19 101.31 69.87   A 1.01 1.00 -77.5 0 1 100.54 70.37   Q 98.98 70.53 98.00 71.69   A 0.99 0.98 -38.9 0 0 97.88 72.76   L 99.96 76.92   A 1.16 1.15 61.8 0 1 99.51 78.43   L 91.36 83.22   A 1.84 1.83 -31.3 0 0 90.73 85.77   L 106.72 111.38   Z   M 47.25 125.46   L 47.85 125.66   A 1.57 1.50 79.6 0 1 48.62 126.22   L 50.91 129.30   A 0.73 0.72 56.5 0 0 51.86 129.50   L 61.36 124.08   A 0.79 0.78 59.2 0 1 62.42 124.35   L 64.20 127.32   A 1.78 1.77 -31.0 0 0 66.63 127.92   L 80.14 119.77   A 1.08 1.06 38.9 0 1 81.05 119.68   C 83.25 120.47 86.31 126.77 87.47 128.93   A 1.15 1.15 0.0 0 0 89.09 129.36   L 97.91 123.82   A 1.19 1.19 0.0 0 1 99.50 124.11   L 102.11 127.58   A 0.97 0.96 -25.1 0 0 103.11 127.94   Q 105.74 127.31 107.47 125.26   A 0.83 0.83 0.0 0 0 107.53 124.28   L 102.00 115.71   L 86.20 89.19   Q 84.97 87.12 82.91 88.37   L 74.72 93.31   A 0.82 0.82 0.0 0 1 73.60 93.06   L 71.26 89.55   A 1.19 1.19 0.0 0 0 70.39 89.02   Q 68.64 88.81 67.45 90.19   A 1.63 1.58 14.7 0 1 66.51 90.72   Q 63.73 91.20 63.28 88.36   A 0.74 0.73 7.3 0 0 62.83 87.79   Q 60.02 86.66 58.25 88.64   A 1.83 1.83 0.0 0 1 55.42 88.51   L 52.77 84.97   A 0.68 0.68 0.0 0 0 51.81 84.84   L 48.80 87.15   A 0.89 0.89 0.0 0 1 47.91 87.27   Q 45.96 86.46 45.57 84.36   A 1.84 1.83 69.7 0 0 42.84 83.10   L 28.90 91.26   A 1.65 1.64 -31.2 0 0 28.33 93.55   L 33.77 102.32   A 0.99 0.99 0.0 0 1 33.40 103.71   L 30.10 105.50   A 1.78 1.78 0.0 0 0 29.63 108.26   Q 32.96 111.95 34.89 116.54   A 0.70 0.69 60.9 0 1 34.66 117.37   L 31.40 119.74   A 1.68 1.67 54.4 0 0 31.02 122.06   L 33.02 124.88   A 0.93 0.92 -21.3 0 0 33.89 125.26   Q 35.35 125.07 36.47 124.19   C 40.12 121.33 40.20 125.84 42.57 127.57   A 0.65 0.64 42.5 0 0 43.36 127.54   Q 45.15 126.07 47.25 125.46   Z   M 130.49 126.53   C 132.74 127.94 135.32 134.03 137.14 136.55   A 0.79 0.79 0.0 0 0 138.24 136.73   L 141.15 134.65   A 1.70 1.70 0.0 0 1 143.58 135.15   L 148.87 143.76   A 1.22 1.21 -31.3 0 0 150.54 144.16   L 157.44 139.94   Q 157.86 139.68 158.34 139.58   Q 160.41 139.18 159.95 136.73   A 1.58 1.52 19.1 0 0 159.53 135.91   Q 158.06 134.38 157.55 132.30   A 0.69 0.67 -20.8 0 1 157.91 131.52   L 161.41 129.73   A 1.14 1.12 75.2 0 0 162.02 128.66   Q 161.89 126.55 159.97 125.47   A 0.71 0.70 -67.8 0 1 159.63 124.65   Q 160.44 121.77 163.62 121.59   A 1.15 1.15 0.0 0 0 164.55 119.87   L 162.07 115.58   A 1.21 1.21 0.0 0 0 160.33 115.20   L 156.82 117.70   A 0.57 0.56 -34.2 0 1 156.02 117.55   L 153.47 113.66   A 1.59 1.58 -32.6 0 0 151.29 113.19   L 147.87 115.33   A 0.82 0.81 58.6 0 1 146.73 115.05   L 144.83 111.83   A 1.17 1.17 0.0 0 0 143.94 111.26   Q 141.48 111.02 139.95 113.05   A 1.30 1.29 -36.3 0 1 137.70 112.71   Q 136.78 110.15 134.66 108.56   A 0.70 0.69 -46.1 0 0 133.81 108.58   Q 129.61 111.87 124.82 114.24   A 1.25 1.24 -27.2 0 0 124.27 115.94   L 126.77 120.64   A 0.80 0.80 0.0 0 1 126.09 121.81   Q 123.26 121.90 122.30 124.51   A 1.16 1.15 38.2 0 0 122.43 125.55   L 124.75 128.98   A 0.67 0.67 0.0 0 0 125.67 129.16   L 129.63 126.54   A 0.80 0.79 -45.3 0 1 130.49 126.53   Z   M 105.71 157.16   Q 106.91 155.33 109.05 154.79   A 1.73 1.73 0.0 0 0 110.07 152.14   L 104.44 143.85   A 1.43 1.43 0.0 0 1 105.16 141.69   L 107.70 140.83   A 1.18 1.18 0.0 0 0 108.47 139.41   Q 107.68 136.38 105.45 134.40   A 0.66 0.65 48.6 0 0 104.66 134.34   L 101.32 136.55   A 0.69 0.69 0.0 0 1 100.39 136.39   L 98.14 133.38   A 2.45 2.45 0.0 0 0 94.84 132.80   L 89.17 136.51   Q 88.73 136.80 88.21 136.90   C 84.49 137.64 87.34 140.95 88.31 142.40   A 1.40 1.38 31.7 0 1 88.54 143.34   Q 88.28 145.73 85.85 145.64   A 1.08 1.08 0.0 0 0 85.00 146.00   C 83.62 147.58 86.06 150.52 86.49 152.46   A 0.68 0.68 0.0 0 1 86.18 153.18   L 83.01 155.10   A 1.50 1.50 0.0 0 0 82.49 157.12   L 84.75 161.10   A 0.70 0.70 0.0 0 1 84.45 162.08   L 81.06 163.76   A 1.58 1.58 0.0 0 0 80.43 166.02   L 82.41 169.11   Q 83.61 170.99 85.28 169.49   L 87.67 167.33   A 0.77 0.77 0.0 0 1 88.86 167.52   L 90.95 171.20   A 1.02 1.00 -11.1 0 0 91.71 171.70   Q 94.14 171.96 95.61 169.90   A 1.25 1.25 0.0 0 1 97.70 169.98   L 100.25 174.16   A 1.20 1.20 0.0 0 0 101.94 174.53   L 111.08 168.34   A 0.71 0.70 61.1 0 0 111.33 167.46   Q 109.18 162.73 105.81 158.81   A 1.38 1.37 41.7 0 1 105.71 157.16   Z"
       id="path18" />
    <rect
       x="-2.97"
       y="-3.05"
       transform="translate(87.43,38.11) rotate(-42.1)"
       width="5.94"
       height="6.10"
       rx="1.86"
       id="rect18" />
    <rect
       x="-2.90"
       y="-3.04"
       transform="translate(85.20,46.78) rotate(-36.6)"
       width="5.80"
       height="6.08"
       rx="1.66"
       id="rect19" />
    <path
       d="   M 79.74 54.12   C 82.63 50.95 87.38 52.13 86.60 56.28   A 1.15 1.14 -9.0 0 1 86.01 57.08   L 83.23 58.61   A 0.90 0.89 53.6 0 1 82.15 58.44   L 79.76 55.94   A 1.33 1.33 0.0 0 1 79.74 54.12   Z"
       id="path19" />
    <path
       d="   M 31.92 61.16   Q 33.21 58.56 36.17 58.74   A 1.05 1.05 0.0 0 1 37.00 59.23   L 38.64 61.85   A 0.98 0.96 -50.7 0 1 38.72 62.74   Q 37.70 65.16 35.05 65.88   A 0.77 0.75 61.4 0 1 34.27 65.64   L 32.20 63.27   A 1.93 1.92 -52.6 0 1 31.92 61.16   Z"
       id="path20" />
    <path
       d="   M 314.85 60.76   A 0.82 0.82 0.0 0 1 315.67 59.95   L 330.54 59.95   A 1.09 1.09 0.0 0 1 331.63 61.07   C 331.15 83.28 331.11 105.55 330.85 127.79   A 1.00 1.00 0.0 0 1 329.85 128.78   Q 309.41 128.87 288.53 128.52   C 287.44 128.51 281.39 127.92 280.52 127.11   A 1.24 1.21 -22.8 0 0 279.68 126.78   C 275.81 126.81 269.96 120.95 268.61 118.40   Q 264.73 111.05 264.73 100.93   C 264.73 99.08 265.48 96.76 265.51 94.56   C 265.61 87.24 271.30 80.25 277.10 77.32   C 288.20 71.68 301.99 74.67 308.34 86.07   C 311.33 91.42 310.94 99.30 310.69 105.38   A 1.75 1.74 1.5 0 1 308.91 107.06   L 282.85 106.64   A 1.74 1.73 -8.5 0 0 281.17 108.91   Q 283.11 114.91 289.45 115.05   Q 301.33 115.33 313.05 115.28   A 1.52 1.52 0.0 0 0 314.56 113.77   L 314.85 60.76   Z   M 288.66 86.86   C 284.38 86.77 281.55 90.70 281.21 94.66   A 0.87 0.86 -87.6 0 0 282.07 95.60   L 294.14 95.61   A 1.55 1.55 0.0 0 0 295.59 93.53   C 294.43 90.34 292.42 86.95 288.66 86.86   Z"
       id="path21"
       style="fill:#ffffff" />
    <rect
       x="-3.08"
       y="-3.13"
       transform="translate(81.06,63.82) rotate(-32.1)"
       width="6.16"
       height="6.26"
       rx="1.69"
       id="rect21" />
    <rect
       x="-8.30"
       y="-6.12"
       transform="translate(397.76,66.64) rotate(0.1)"
       width="16.60"
       height="12.24"
       rx="0.75"
       id="rect22"
       style="fill:#ffffff" />
    <path
       d="   M 455.70 60.51   L 470.12 60.51   A 1.14 1.14 0.0 0 1 471.26 61.65   L 471.24 71.80   A 1.14 1.14 0.0 0 1 470.12 72.93   L 455.63 73.12   A 1.14 1.14 0.0 0 1 454.48 71.97   L 454.56 61.64   A 1.14 1.14 0.0 0 1 455.70 60.51   Z"
       id="path22"
       style="fill:#ffffff" />
    <path
       d="   M 43.27 68.09   C 37.25 64.79 43.17 56.97 47.45 63.69   A 1.63 1.63 0.0 0 1 47.06 65.87   L 44.23 68.01   A 0.90 0.88 -49.2 0 1 43.27 68.09   Z"
       id="path23" />
    <rect
       x="-3.18"
       y="-2.98"
       transform="translate(52.83,66.28) rotate(-34.3)"
       width="6.36"
       height="5.96"
       rx="1.85"
       id="rect23" />
    <rect
       x="-3.19"
       y="-3.19"
       transform="translate(61.56,68.25) rotate(-30.6)"
       width="6.38"
       height="6.38"
       rx="2.33"
       id="rect24" />
    <rect
       x="-2.91"
       y="-3.13"
       transform="translate(70.13,70.44) rotate(-28.5)"
       width="5.82"
       height="6.26"
       rx="1.58"
       id="rect25" />
    <path
       d="   M 242.94 85.74   A 0.84 0.83 -45.1 0 0 244.45 85.73   L 248.74 76.49   A 0.85 0.83 -77.1 0 1 249.50 76.00   L 265.42 75.99   A 1.03 1.03 0.0 0 1 266.27 77.59   C 262.53 83.12 259.74 88.98 256.32 94.72   Q 254.71 97.43 253.53 100.37   A 1.05 1.04 -49.0 0 0 253.59 101.26   L 268.20 126.99   A 1.08 1.07 75.4 0 1 267.26 128.60   L 252.23 128.46   A 1.60 1.58 75.7 0 1 250.86 127.64   L 243.99 115.24   A 1.35 1.35 0.0 0 0 241.64 115.23   L 234.33 127.96   A 0.97 0.96 14.9 0 1 233.47 128.45   Q 215.30 128.14 197.26 128.21   C 176.46 128.30 171.37 109.21 174.47 92.24   C 178.29 71.36 210.30 67.47 218.18 87.04   C 220.27 92.24 220.09 99.65 219.70 105.58   A 1.02 1.01 1.8 0 1 218.68 106.53   L 191.79 106.42   A 0.75 0.74 4.0 0 0 191.05 107.06   C 190.30 112.27 193.40 114.38 198.29 114.44   Q 211.47 114.60 224.67 114.44   A 0.99 0.98 -75.5 0 0 225.51 113.94   L 233.20 100.74   A 2.02 1.99 -44.1 0 0 233.24 98.81   Q 227.52 88.00 220.89 77.74   A 1.19 1.19 0.0 0 1 221.92 75.91   L 238.10 76.27   A 0.67 0.67 0.0 0 1 238.70 76.67   L 242.94 85.74   Z   M 201.46 88.31   C 195.57 83.67 191.60 88.73 190.12 94.03   A 1.04 1.04 0.0 0 0 191.12 95.34   L 203.86 95.36   A 0.74 0.74 0.0 0 0 204.60 94.62   Q 204.62 90.80 201.46 88.31   Z"
       id="path25"
       style="fill:#ffffff" />
    <path
       d="   M 476.30 92.76   C 477.47 79.14 492.89 73.81 504.28 75.72   C 522.22 78.72 522.74 91.91 522.32 106.82   Q 522.09 115.05 520.10 119.32   C 512.84 134.87 484.37 133.74 477.75 118.40   C 475.00 112.03 475.72 99.52 476.30 92.76   Z   M 492.62 92.14   A 2.68 2.65 67.8 0 0 492.14 93.30   Q 490.76 101.89 492.11 110.93   C 493.07 117.33 502.47 117.97 505.20 113.34   C 507.31 109.78 506.48 99.70 506.33 95.32   C 506.09 88.01 496.37 86.89 492.62 92.14   Z"
       id="path26"
       style="fill:#ffffff" />
    <path
       d="   M 362.11 103.94   L 369.03 77.52   A 1.03 1.03 0.0 0 1 370.03 76.75   L 384.19 76.75   A 1.11 1.10 -81.3 0 1 385.24 78.19   L 369.07 127.78   A 1.62 1.62 0.0 0 1 367.46 128.90   Q 360.69 128.64 354.00 128.77   Q 352.05 128.82 351.55 127.27   Q 344.12 104.34 336.60 81.43   C 336.13 80.00 334.73 78.01 335.48 76.91   A 0.95 0.94 17.0 0 1 336.26 76.50   L 352.74 76.50   A 0.75 0.73 82.2 0 1 353.45 77.05   L 360.41 103.94   A 0.88 0.88 0.0 0 0 362.11 103.94   Z"
       id="path27"
       style="fill:#ffffff" />
    <path
       d="   M 434.02 110.06   A 1.90 1.90 0.0 0 0 432.24 108.78   C 427.63 108.73 420.32 109.70 416.50 106.49   Q 410.08 101.09 410.05 93.03   C 410.02 85.05 415.43 77.13 424.02 77.21   Q 434.94 77.30 445.65 77.24   A 1.21 1.20 0.2 0 1 446.86 78.45   L 446.71 89.99   A 0.68 0.68 0.0 0 1 446.01 90.66   C 440.87 90.47 432.09 89.32 427.41 90.91   A 1.08 1.05 -0.2 0 0 426.76 91.55   C 424.20 98.54 437.68 95.83 441.09 97.28   C 443.90 98.47 449.01 102.43 448.79 106.01   A 1.86 1.83 33.6 0 0 448.99 106.96   Q 450.30 109.51 449.82 113.40   C 448.14 127.11 440.13 129.17 427.62 129.22   Q 414.73 129.28 401.82 129.25   C 399.11 129.25 394.31 128.77 390.55 129.21   A 1.67 1.67 0.0 0 1 388.68 127.50   Q 389.50 102.73 389.15 77.96   A 0.96 0.95 -0.6 0 1 390.11 76.99   L 404.83 77.02   A 1.36 1.35 -89.6 0 1 406.18 78.40   L 405.65 114.66   A 1.05 1.04 0.8 0 0 406.69 115.72   Q 417.80 115.80 429.09 115.72   C 432.74 115.69 435.45 114.17 434.02 110.06   Z"
       id="path28"
       style="fill:#ffffff" />
    <rect
       x="-8.46"
       y="-25.91"
       transform="translate(462.74,103.33) rotate(0.6)"
       width="16.92"
       height="51.82"
       rx="0.95"
       id="rect28"
       style="fill:#ffffff" />
    <path
       d="   M 557.80 98.02   C 557.96 89.60 551.47 91.18 545.94 90.66   A 1.96 1.96 0.0 0 0 543.81 92.60   L 543.76 128.38   A 0.95 0.95 0.0 0 1 542.81 129.33   L 527.74 129.40   A 1.04 1.04 0.0 0 1 526.70 128.35   Q 526.87 104.96 527.32 81.51   C 527.34 80.60 526.44 78.88 527.60 77.87   A 1.31 1.30 -64.7 0 1 528.48 77.55   Q 543.99 77.73 559.49 77.95   Q 564.57 78.03 568.16 80.32   C 573.83 83.93 574.36 88.13 574.29 95.01   Q 574.13 111.91 574.37 128.52   A 1.34 1.34 0.0 0 1 573.02 129.88   L 558.47 129.69   A 1.09 1.08 -89.7 0 1 557.40 128.60   Q 557.50 113.33 557.80 98.02   Z"
       id="path29"
       style="fill:#ffffff" />
    <path
       d="   M 225.51 161.85   L 239.46 162.06   A 0.53 0.53 0.0 0 0 240.00 161.53   L 240.00 147.39   A 0.37 0.37 0.0 0 1 240.36 147.02   L 254.57 146.95   A 0.39 0.39 0.0 0 1 254.96 147.34   Q 255.21 189.90 255.24 232.50   Q 255.25 235.88 254.98 238.94   A 0.99 0.98 1.0 0 0 256.02 240.01   C 275.49 239.14 290.80 240.23 314.39 239.90   A 0.54 0.54 0.0 0 1 314.93 240.43   L 315.19 257.54   A 0.52 0.51 90.0 0 1 314.67 258.07   Q 283.87 257.94 253.12 258.01   C 250.15 258.01 244.67 258.49 240.37 258.01   A 0.47 0.47 0.0 0 1 239.95 257.53   L 240.03 241.27   A 1.27 1.27 0.0 0 0 238.76 240.00   L 225.61 240.00   A 0.56 0.56 0.0 0 1 225.05 239.44   Q 224.73 203.07 224.81 166.76   Q 224.82 164.34 224.92 162.40   A 0.58 0.58 0.0 0 1 225.51 161.85   Z"
       id="path30" />
    <path
       d="   M 362.38 180.22   L 348.78 180.14   A 0.58 0.58 0.0 0 0 348.20 180.72   L 348.23 194.75   A 0.48 0.48 0.0 0 1 347.75 195.23   L 315.46 194.93   A 0.47 0.46 -90.0 0 1 315.00 194.46   L 315.00 180.50   A 0.50 0.50 0.0 0 1 315.50 180.00   L 329.25 180.00   A 0.75 0.75 0.0 0 0 330.00 179.25   L 330.00 162.50   A 0.50 0.50 0.0 0 1 330.50 162.00   L 346.65 162.00   A 1.38 1.38 0.0 0 0 348.03 160.60   L 347.79 147.44   A 0.52 0.52 0.0 0 1 348.31 146.92   L 392.48 147.03   A 0.52 0.52 0.0 0 1 393.00 147.55   L 393.01 257.66   A 0.36 0.36 0.0 0 1 392.65 258.02   L 363.62 257.99   A 0.56 0.56 0.0 0 1 363.06 257.43   L 362.73 180.57   A 0.35 0.35 0.0 0 0 362.38 180.22   Z"
       id="path31" />
    <path
       d="   M 494.64 161.86   A 0.53 0.53 0.0 0 1 495.18 162.39   L 495.17 242.71   A 0.32 0.32 0.0 0 1 494.85 243.03   L 477.87 242.99   A 0.89 0.88 -0.3 0 0 476.98 243.88   L 477.05 257.74   A 0.53 0.53 0.0 0 1 476.52 258.27   L 417.31 257.94   A 0.38 0.37 90.0 0 1 416.94 257.56   L 417.03 243.77   A 0.77 0.77 0.0 0 0 416.26 243.00   L 402.44 243.00   A 0.50 0.49 90.0 0 1 401.95 242.50   Q 402.15 196.34 401.93 177.31   Q 401.82 167.16 402.07 162.34   A 0.43 0.43 0.0 0 1 402.50 161.94   L 416.11 162.03   A 0.90 0.89 0.0 0 0 417.01 161.14   L 416.99 147.49   A 0.65 0.65 0.0 0 1 417.52 146.85   C 419.23 146.54 421.27 146.96 422.52 146.96   Q 449.61 147.15 476.70 146.78   A 0.46 0.45 0.6 0 1 477.16 147.24   L 476.94 161.50   A 0.56 0.55 0.5 0 0 477.50 162.06   L 494.64 161.86   Z   M 461.91 165.52   A 0.30 0.30 0.0 0 0 461.61 165.22   L 432.53 165.22   A 0.30 0.30 0.0 0 0 432.23 165.52   L 432.23 239.54   A 0.30 0.30 0.0 0 0 432.53 239.84   L 461.61 239.84   A 0.30 0.30 0.0 0 0 461.91 239.54   L 461.91 165.52   Z"
       id="path32" />
    <path
       d="   M 593.60 161.76   A 0.60 0.59 -0.5 0 1 594.21 162.35   L 593.92 242.54   A 0.46 0.46 0.0 0 1 593.46 243.00   L 579.46 243.00   A 0.53 0.53 0.0 0 0 578.93 243.54   L 579.20 257.70   A 0.40 0.40 0.0 0 1 578.80 258.11   L 516.56 257.97   A 0.59 0.59 0.0 0 1 515.97 257.37   L 516.01 244.01   A 1.00 1.00 0.0 0 0 515.01 243.00   L 501.47 243.00   A 0.61 0.60 89.5 0 1 500.87 242.40   L 500.75 162.34   A 0.65 0.65 0.0 0 1 501.41 161.69   L 514.92 161.93   A 1.09 1.09 0.0 0 0 516.03 160.83   L 515.93 147.54   A 0.54 0.53 -0.6 0 1 516.46 147.01   L 578.75 146.79   A 0.46 0.45 0.6 0 1 579.21 147.25   L 578.93 160.60   A 1.39 1.39 0.0 0 0 580.35 162.02   L 593.60 161.76   Z   M 560.82 162.45   A 0.26 0.26 0.0 0 0 560.56 162.19   L 531.40 162.19   A 0.26 0.26 0.0 0 0 531.14 162.45   L 531.14 239.49   A 0.26 0.26 0.0 0 0 531.40 239.75   L 560.56 239.75   A 0.26 0.26 0.0 0 0 560.82 239.49   L 560.82 162.45   Z"
       id="path33" />
  </g>
  <g
     fill="#fefefe"
     id="g37">
    <path
       d="   M 79.96 141.00   C 80.80 142.76 77.21 144.00 76.03 144.73   A 0.59 0.59 0.0 0 0 75.83 145.53   L 78.02 149.23   A 0.34 0.34 0.0 0 1 77.73 149.75   L 21.49 150.03   A 0.49 0.49 0.0 0 0 21.01 150.51   L 20.97 164.33   A 0.48 0.48 0.0 0 1 20.49 164.81   L 6.65 164.78   A 0.65 0.64 0.0 0 0 6.00 165.42   L 5.99 242.49   A 0.51 0.51 0.0 0 0 6.50 243.00   L 20.25 243.00   A 0.75 0.75 0.0 0 1 21.00 243.75   L 21.00 257.48   A 0.51 0.51 0.0 0 0 21.52 257.99   C 28.88 257.88 36.90 258.20 43.57 258.14   Q 71.05 257.87 98.52 258.05   A 0.51 0.50 0.6 0 0 99.04 257.55   L 99.04 243.64   A 0.66 0.66 0.0 0 0 98.38 242.97   L 39.57 242.85   A 0.40 0.40 0.0 0 1 39.17 242.45   L 39.25 213.57   A 0.55 0.54 -84.6 0 1 39.88 213.04   Q 41.13 213.27 42.75 213.24   Q 63.10 212.85 83.45 213.03   A 0.50 0.49 -0.0 0 0 83.95 212.54   L 84.14 195.44   A 0.64 0.63 -90.0 0 0 83.51 194.80   L 36.74 194.75   A 0.51 0.51 0.0 0 1 36.23 194.24   L 36.24 165.57   A 0.38 0.38 0.0 0 1 36.62 165.19   L 72.59 165.28   A 0.73 0.73 0.0 0 1 73.22 165.64   L 76.26 170.98   A 0.01 0.01 0.0 0 1 76.25 171.00   L 76.00 171.04   L 45.51 171.04   A 0.50 0.49 -89.4 0 0 45.02 171.53   L 44.95 188.47   A 0.52 0.52 0.0 0 0 45.47 189.00   L 89.21 189.00   A 0.72 0.72 0.0 0 1 89.93 189.71   L 89.99 218.50   A 0.50 0.49 -90.0 0 1 89.50 219.00   L 45.52 219.00   A 0.49 0.48 -0.0 0 0 45.03 219.48   L 44.94 233.46   A 0.51 0.51 0.0 0 0 45.45 233.98   L 98.70 234.05   A 0.49 0.48 89.4 0 0 99.18 233.55   L 98.93 219.54   A 0.53 0.53 0.0 0 1 99.46 219.00   L 113.63 219.00   A 0.38 0.38 0.0 0 0 114.01 218.62   L 114.05 186.20   A 0.35 0.34 -0.0 0 0 113.70 185.86   L 99.76 186.06   A 0.61 0.61 0.0 0 1 99.15 185.49   L 98.96 183.00   L 107.36 177.95   A 0.42 0.41 68.0 0 1 107.98 178.22   Q 108.08 178.65 107.90 179.05   A 0.66 0.66 0.0 0 0 108.02 179.77   C 108.80 180.60 120.30 180.29 122.28 180.35   A 0.52 0.52 0.0 0 1 122.78 180.88   L 122.73 194.47   A 0.80 0.80 0.0 0 0 123.53 195.27   L 137.12 195.18   A 0.70 0.69 0.0 0 1 137.82 195.87   L 137.72 209.51   A 0.47 0.47 0.0 0 1 137.24 209.98   L 123.54 209.68   A 0.53 0.52 -89.0 0 0 123.00 210.21   L 123.00 224.37   A 0.63 0.62 -90.0 0 1 122.38 225.00   L 108.38 225.00   A 0.38 0.37 0.0 0 0 108.00 225.37   L 107.99 257.44   A 0.52 0.52 0.0 0 0 108.51 257.96   L 137.79 258.09   A 0.38 0.37 90.0 0 0 138.16 257.71   L 138.08 225.96   A 0.97 0.96 -90.0 0 1 139.04 224.99   L 152.83 225.01   A 0.40 0.40 0.0 0 0 153.23 224.60   L 153.22 210.49   A 0.29 0.29 0.0 0 1 153.51 210.20   L 167.31 210.20   A 0.48 0.48 0.0 0 1 167.79 210.68   L 167.77 224.55   A 0.53 0.53 0.0 0 0 168.30 225.08   L 181.93 225.19   A 0.99 0.99 0.0 0 1 182.91 226.18   L 182.84 257.59   A 0.44 0.44 0.0 0 0 183.28 258.04   L 215.33 258.14   A 0.50 0.49 -86.7 0 0 215.82 257.70   C 216.80 247.33 215.69 236.81 216.20 225.26   A 0.50 0.50 0.0 0 0 215.69 224.73   L 201.43 224.87   A 0.44 0.44 0.0 0 1 200.98 224.43   L 201.03 210.44   A 0.47 0.47 0.0 0 0 200.56 209.97   L 183.63 210.01   A 0.63 0.63 0.0 0 1 183.00 209.38   L 183.00 195.81   A 0.70 0.70 0.0 0 1 183.69 195.11   L 200.64 194.97   A 0.42 0.42 0.0 0 0 201.06 194.54   L 200.97 180.64   A 0.64 0.64 0.0 0 1 201.61 180.00   L 215.58 180.01   A 0.41 0.41 0.0 0 0 215.99 179.60   L 216.02 147.48   A 0.47 0.47 0.0 0 0 215.55 147.01   L 183.38 146.93   A 0.38 0.38 0.0 0 0 183.00 147.31   L 182.87 179.39   A 0.45 0.44 -89.4 0 1 182.42 179.84   L 168.51 179.71   A 0.78 0.77 -89.6 0 0 167.73 180.49   L 167.79 194.39   A 0.38 0.38 0.0 0 1 167.42 194.78   L 153.73 194.88   A 0.64 0.64 0.0 0 1 153.09 194.23   L 153.26 180.34   A 0.66 0.66 0.0 0 0 152.59 179.67   L 138.58 179.96   A 0.38 0.37 89.3 0 1 138.20 179.58   L 138.10 150.57   A 0.59 0.59 0.0 0 0 137.51 149.99   L 116.49 150.00   A 1.30 1.30 0.0 0 1 115.60 149.67   C 109.79 144.56 114.77 144.28 117.50 140.96   L 132.00 140.96   C 134.63 141.64 133.35 145.61 136.86 144.69   A 1.78 1.74 12.5 0 0 137.73 144.15   Q 138.91 142.80 140.77 143.00   A 1.17 1.17 0.0 0 1 141.65 143.56   L 146.79 152.25   L 146.96 170.53   A 0.46 0.46 0.0 0 0 147.42 170.98   L 176.76 171.08   A 0.35 0.34 0.0 0 0 177.11 170.74   L 176.95 141.65   A 0.65 0.65 0.0 0 1 177.60 141.00   L 221.26 141.00   A 0.76 0.75 0.4 0 1 222.02 141.76   L 221.95 155.56   A 0.44 0.44 0.0 0 0 222.38 156.00   L 230.74 156.21   A 0.44 0.44 0.0 0 0 231.19 155.76   L 230.93 141.67   A 0.66 0.66 0.0 0 1 231.59 141.00   L 260.38 141.00   A 0.52 0.52 0.0 0 1 260.90 141.52   C 261.04 172.20 260.64 202.87 261.00 233.50   A 0.50 0.50 0.0 0 0 261.50 234.00   L 323.25 234.00   A 0.75 0.75 0.0 0 1 324.00 234.75   L 324.00 263.38   A 0.62 0.62 0.0 0 1 323.38 264.00   L 231.98 264.00   A 1.02 1.02 0.0 0 1 230.96 262.97   L 231.10 249.50   A 0.54 0.54 0.0 0 0 230.56 248.95   L 222.37 249.02   A 0.55 0.55 0.0 0 0 221.82 249.58   L 222.06 263.34   A 0.65 0.65 0.0 0 1 221.41 264.00   L 177.61 264.00   A 0.45 0.45 0.0 0 1 177.16 263.55   L 177.05 234.55   A 0.56 0.56 0.0 0 0 176.49 233.99   L 147.30 234.00   A 0.45 0.45 0.0 0 0 146.85 234.45   L 147.01 262.99   A 1.00 1.00 0.0 0 1 146.01 264.00   L 15.84 264.00   A 0.89 0.89 0.0 0 1 14.95 263.09   L 15.15 249.46   A 0.54 0.54 0.0 0 0 14.62 248.91   L 0.00 248.69   L 0.00 156.19   L 14.82 156.20   A 0.48 0.48 0.0 0 0 15.30 155.71   L 14.94 141.63   A 0.58 0.58 0.0 0 1 15.52 141.04   L 79.96 141.00   Z   M 225.51 161.85   A 0.58 0.58 0.0 0 0 224.92 162.40   Q 224.82 164.34 224.81 166.76   Q 224.73 203.07 225.05 239.44   A 0.56 0.56 0.0 0 0 225.61 240.00   L 238.76 240.00   A 1.27 1.27 0.0 0 1 240.03 241.27   L 239.95 257.53   A 0.47 0.47 0.0 0 0 240.37 258.01   C 244.67 258.49 250.15 258.01 253.12 258.01   Q 283.87 257.94 314.67 258.07   A 0.52 0.51 90.0 0 0 315.19 257.54   L 314.93 240.43   A 0.54 0.54 0.0 0 0 314.39 239.90   C 290.80 240.23 275.49 239.14 256.02 240.01   A 0.99 0.98 1.0 0 1 254.98 238.94   Q 255.25 235.88 255.24 232.50   Q 255.21 189.90 254.96 147.34   A 0.39 0.39 0.0 0 0 254.57 146.95   L 240.36 147.02   A 0.37 0.37 0.0 0 0 240.00 147.39   L 240.00 161.53   A 0.53 0.53 0.0 0 1 239.46 162.06   L 225.51 161.85   Z   M 216.02 186.22   A 0.27 0.27 0.0 0 0 215.75 185.95   L 207.27 185.95   A 0.27 0.27 0.0 0 0 207.00 186.22   L 207.00 218.76   A 0.27 0.27 0.0 0 0 207.27 219.03   L 215.75 219.03   A 0.27 0.27 0.0 0 0 216.02 218.76   L 216.02 186.22   Z"
       id="path34" />
    <path
       d="   M 600.00 156.31   L 600.00 248.81   L 585.54 248.86   A 0.60 0.60 0.0 0 0 584.95 249.46   L 585.02 263.36   A 0.63 0.63 0.0 0 1 584.39 264.00   L 510.75 264.00   A 0.75 0.75 0.0 0 1 510.00 263.25   L 510.00 249.53   A 0.54 0.53 -0.0 0 0 509.46 249.00   L 486.54 248.99   A 0.54 0.54 0.0 0 0 486.00 249.53   L 486.00 263.37   A 0.63 0.63 0.0 0 1 485.37 264.00   L 409.61 264.00   A 1.61 1.61 0.0 0 1 408.00 262.36   L 408.22 249.74   A 0.73 0.72 -90.0 0 0 407.49 249.00   L 399.50 249.00   A 0.50 0.50 0.0 0 0 399.00 249.50   L 399.00 263.38   A 0.63 0.62 -0.0 0 1 398.37 264.00   L 354.80 264.00   A 0.60 0.60 0.0 0 1 354.21 263.52   C 353.70 261.01 354.23 258.08 354.20 256.17   Q 353.82 230.33 354.07 204.49   A 0.56 0.55 90.0 0 0 353.52 203.93   L 309.71 203.74   A 0.54 0.53 0.6 0 1 309.18 203.21   L 309.23 171.63   A 0.65 0.64 -89.6 0 1 309.88 170.98   L 323.50 171.05   A 0.55 0.55 0.0 0 0 324.05 170.50   L 323.98 156.65   A 0.62 0.62 0.0 0 1 324.61 156.02   L 338.81 156.17   A 0.48 0.47 -0.6 0 0 339.29 155.69   L 338.93 141.67   A 0.66 0.65 89.6 0 1 339.58 141.00   L 401.51 141.00   A 0.51 0.51 0.0 0 1 402.02 141.51   L 401.95 155.50   A 0.57 0.57 0.0 0 0 402.50 156.07   L 410.77 156.27   A 0.54 0.53 0.0 0 0 411.32 155.73   L 410.97 141.65   A 0.64 0.63 89.6 0 1 411.60 141.00   L 485.52 141.00   A 0.52 0.51 -90.0 0 1 486.03 141.52   L 485.94 155.46   A 0.52 0.52 0.0 0 0 486.46 155.99   L 509.52 156.08   A 0.60 0.60 0.0 0 0 510.12 155.48   L 509.95 141.65   A 0.65 0.65 0.0 0 1 510.60 141.00   L 584.52 141.00   A 0.52 0.52 0.0 0 1 585.04 141.52   L 584.91 155.69   A 0.45 0.45 0.0 0 0 585.35 156.14   L 600.00 156.31   Z   M 362.73 180.57   L 363.06 257.43   A 0.56 0.56 0.0 0 0 363.62 257.99   L 392.65 258.02   A 0.36 0.36 0.0 0 0 393.01 257.66   L 393.00 147.55   A 0.52 0.52 0.0 0 0 392.48 147.03   L 348.31 146.92   A 0.52 0.52 0.0 0 0 347.79 147.44   L 348.03 160.60   A 1.38 1.38 0.0 0 1 346.65 162.00   L 330.50 162.00   A 0.50 0.50 0.0 0 0 330.00 162.50   L 330.00 179.25   A 0.75 0.75 0.0 0 1 329.25 180.00   L 315.50 180.00   A 0.50 0.50 0.0 0 0 315.00 180.50   L 315.00 194.46   A 0.47 0.46 90.0 0 0 315.46 194.93   L 347.75 195.23   A 0.48 0.48 0.0 0 0 348.23 194.75   L 348.20 180.72   A 0.58 0.58 0.0 0 1 348.78 180.14   L 362.38 180.22   A 0.35 0.35 0.0 0 1 362.73 180.57   Z   M 494.64 161.86   L 477.50 162.06   A 0.56 0.55 0.5 0 1 476.94 161.50   L 477.16 147.24   A 0.46 0.45 0.6 0 0 476.70 146.78   Q 449.61 147.15 422.52 146.96   C 421.27 146.96 419.23 146.54 417.52 146.85   A 0.65 0.65 0.0 0 0 416.99 147.49   L 417.01 161.14   A 0.90 0.89 0.0 0 1 416.11 162.03   L 402.50 161.94   A 0.43 0.43 0.0 0 0 402.07 162.34   Q 401.82 167.16 401.93 177.31   Q 402.15 196.34 401.95 242.50   A 0.50 0.49 90.0 0 0 402.44 243.00   L 416.26 243.00   A 0.77 0.77 0.0 0 1 417.03 243.77   L 416.94 257.56   A 0.38 0.37 -90.0 0 0 417.31 257.94   L 476.52 258.27   A 0.53 0.53 0.0 0 0 477.05 257.74   L 476.98 243.88   A 0.89 0.88 -0.3 0 1 477.87 242.99   L 494.85 243.03   A 0.32 0.32 0.0 0 0 495.17 242.71   L 495.18 162.39   A 0.53 0.53 0.0 0 0 494.64 161.86   Z   M 593.60 161.76   L 580.35 162.02   A 1.39 1.39 0.0 0 1 578.93 160.60   L 579.21 147.25   A 0.46 0.45 0.6 0 0 578.75 146.79   L 516.46 147.01   A 0.54 0.53 -0.6 0 0 515.93 147.54   L 516.03 160.83   A 1.09 1.09 0.0 0 1 514.92 161.93   L 501.41 161.69   A 0.65 0.65 0.0 0 0 500.75 162.34   L 500.87 242.40   A 0.61 0.60 89.5 0 0 501.47 243.00   L 515.01 243.00   A 1.00 1.00 0.0 0 1 516.01 244.01   L 515.97 257.37   A 0.59 0.59 0.0 0 0 516.56 257.97   L 578.80 258.11   A 0.40 0.40 0.0 0 0 579.20 257.70   L 578.93 243.54   A 0.53 0.53 0.0 0 1 579.46 243.00   L 593.46 243.00   A 0.46 0.46 0.0 0 0 593.92 242.54   L 594.21 162.35   A 0.60 0.59 -0.5 0 0 593.60 161.76   Z"
       id="path35" />
    <path
       d="   M 560.82 239.49   A 0.26 0.26 0.0 0 1 560.56 239.75   L 531.40 239.75   A 0.26 0.26 0.0 0 1 531.14 239.49   L 531.14 162.45   A 0.26 0.26 0.0 0 1 531.40 162.19   L 560.56 162.19   A 0.26 0.26 0.0 0 1 560.82 162.45   L 560.82 239.49   Z   M 555.03 171.23   A 0.26 0.26 0.0 0 0 554.77 170.97   L 540.25 170.97   A 0.26 0.26 0.0 0 0 539.99 171.23   L 539.99 233.81   A 0.26 0.26 0.0 0 0 540.25 234.07   L 554.77 234.07   A 0.26 0.26 0.0 0 0 555.03 233.81   L 555.03 171.23   Z"
       id="path36" />
    <path
       d="   M 461.91 239.54   A 0.30 0.30 0.0 0 1 461.61 239.84   L 432.53 239.84   A 0.30 0.30 0.0 0 1 432.23 239.54   L 432.23 165.52   A 0.30 0.30 0.0 0 1 432.53 165.22   L 461.61 165.22   A 0.30 0.30 0.0 0 1 461.91 165.52   L 461.91 239.54   Z   M 456.00 171.26   A 0.27 0.27 0.0 0 0 455.73 170.99   L 441.19 170.99   A 0.27 0.27 0.0 0 0 440.92 171.26   L 440.92 233.82   A 0.27 0.27 0.0 0 0 441.19 234.09   L 455.73 234.09   A 0.27 0.27 0.0 0 0 456.00 233.82   L 456.00 171.26   Z"
       id="path37" />
  </g>
  <g
     fill="#f05d5d"
     id="g39">
    <path
       d="   M 141.79 68.00   Q 141.16 67.43 140.55 67.81   C 138.53 69.06 125.16 77.64 124.03 77.53   A 0.82 0.80 -72.6 0 0 123.23 77.96   L 122.66 79.02   A 0.92 0.91 -47.1 0 0 122.69 79.92   L 125.87 85.17   A 0.72 0.71 -31.7 0 1 125.63 86.16   L 109.63 95.78   A 0.66 0.66 0.0 0 0 109.40 96.69   L 114.66 105.65   A 0.80 0.80 0.0 0 1 114.39 106.74   L 106.72 111.38   L 90.73 85.77   A 1.84 1.83 -31.3 0 1 91.36 83.22   L 99.51 78.43   A 1.16 1.15 61.8 0 0 99.96 76.92   L 97.88 72.76   A 0.99 0.98 -38.9 0 1 98.00 71.69   Q 98.98 70.53 100.54 70.37   A 1.01 1.00 -77.5 0 0 101.31 69.87   Q 102.81 67.19 100.26 65.63   A 1.07 1.05 15.2 0 1 99.76 64.77   C 99.69 62.49 101.93 62.17 103.44 61.38   A 0.99 0.97 -12.3 0 0 103.98 60.56   Q 104.14 58.12 102.07 56.76   A 0.60 0.60 0.0 0 1 101.84 56.03   C 102.93 53.43 106.57 53.15 106.33 50.67   A 1.15 1.13 16.8 0 0 105.89 49.86   C 102.91 47.57 104.50 45.78 106.93 44.29   Q 113.04 40.55 119.18 36.90   A 0.97 0.96 58.8 0 1 120.49 37.23   L 125.84 45.89   A 1.93 1.93 0.0 0 0 128.77 46.31   L 131.08 44.24   A 0.64 0.63 42.7 0 1 131.89 44.21   C 134.18 45.96 134.85 48.48 136.32 50.43   Q 137.40 51.87 138.33 53.32   A 1.60 1.60 0.0 0 0 140.65 53.73   L 143.18 51.78   A 0.67 0.67 0.0 0 1 144.07 51.84   L 147.19 55.09   A 1.12 1.11 -61.0 0 1 147.48 56.11   C 146.78 59.33 143.86 57.90 143.07 60.49   A 0.94 0.93 -55.3 0 0 143.22 61.33   L 145.18 63.96   A 1.45 1.45 0.0 0 1 144.80 66.05   L 141.79 68.00   Z"
       id="path38" />
    <path
       d="   M 102.00 115.71   Q 97.70 116.99 94.02 119.88   A 0.47 0.47 0.0 0 1 93.32 119.74   L 87.91 110.51   A 0.65 0.64 59.4 0 0 87.03 110.28   L 70.68 119.94   A 0.50 0.50 0.0 0 1 69.99 119.77   L 66.48 113.81   A 0.75 0.75 0.0 0 0 65.43 113.55   Q 56.62 119.01 47.55 124.29   Q 47.05 124.58 47.25 125.46   Q 45.15 126.07 43.36 127.54   A 0.65 0.64 42.5 0 1 42.57 127.57   C 40.20 125.84 40.12 121.33 36.47 124.19   Q 35.35 125.07 33.89 125.26   A 0.93 0.92 -21.3 0 1 33.02 124.88   L 31.02 122.06   A 1.68 1.67 54.4 0 1 31.40 119.74   L 34.66 117.37   A 0.70 0.69 60.9 0 0 34.89 116.54   Q 32.96 111.95 29.63 108.26   A 1.78 1.78 0.0 0 1 30.10 105.50   L 33.40 103.71   A 0.99 0.99 0.0 0 0 33.77 102.32   L 28.33 93.55   A 1.65 1.64 -31.2 0 1 28.90 91.26   L 42.84 83.10   A 1.84 1.83 69.7 0 1 45.57 84.36   Q 45.96 86.46 47.91 87.27   A 0.89 0.89 0.0 0 0 48.80 87.15   L 51.81 84.84   A 0.68 0.68 0.0 0 1 52.77 84.97   L 55.42 88.51   A 1.83 1.83 0.0 0 0 58.25 88.64   Q 60.02 86.66 62.83 87.79   A 0.74 0.73 7.3 0 1 63.28 88.36   Q 63.73 91.20 66.51 90.72   A 1.63 1.58 14.7 0 0 67.45 90.19   Q 68.64 88.81 70.39 89.02   A 1.19 1.19 0.0 0 1 71.26 89.55   L 73.60 93.06   A 0.82 0.82 0.0 0 0 74.72 93.31   L 82.91 88.37   Q 84.97 87.12 86.20 89.19   L 102.00 115.71   Z"
       id="path39" />
  </g>
  <g
     fill="#1299fb"
     id="g41">
    <path
       d="   M 129.63 126.54   L 125.67 129.16   A 0.67 0.67 0.0 0 1 124.75 128.98   L 122.43 125.55   A 1.16 1.15 38.2 0 1 122.30 124.51   Q 123.26 121.90 126.09 121.81   A 0.80 0.80 0.0 0 0 126.77 120.64   L 124.27 115.94   A 1.25 1.24 -27.2 0 1 124.82 114.24   Q 129.61 111.87 133.81 108.58   A 0.70 0.69 -46.1 0 1 134.66 108.56   Q 136.78 110.15 137.70 112.71   A 1.30 1.29 -36.3 0 0 139.95 113.05   Q 141.48 111.02 143.94 111.26   A 1.17 1.17 0.0 0 1 144.83 111.83   L 146.73 115.05   A 0.82 0.81 58.6 0 0 147.87 115.33   L 151.29 113.19   A 1.59 1.58 -32.6 0 1 153.47 113.66   L 156.02 117.55   A 0.57 0.56 -34.2 0 0 156.82 117.70   L 160.33 115.20   A 1.21 1.21 0.0 0 1 162.07 115.58   L 164.55 119.87   A 1.15 1.15 0.0 0 1 163.62 121.59   Q 160.44 121.77 159.63 124.65   A 0.71 0.70 -67.8 0 0 159.97 125.47   Q 161.89 126.55 162.02 128.66   A 1.14 1.12 75.2 0 1 161.41 129.73   L 157.91 131.52   A 0.69 0.67 -20.8 0 0 157.55 132.30   Q 158.06 134.38 159.53 135.91   A 1.58 1.52 19.1 0 1 159.95 136.73   Q 160.41 139.18 158.34 139.58   Q 157.86 139.68 157.44 139.94   L 150.54 144.16   A 1.22 1.21 -31.3 0 1 148.87 143.76   L 143.58 135.15   A 1.70 1.70 0.0 0 0 141.15 134.65   L 138.24 136.73   A 0.79 0.79 0.0 0 1 137.14 136.55   C 135.32 134.03 132.74 127.94 130.49 126.53   A 0.80 0.79 -45.3 0 0 129.63 126.54   Z"
       id="path40" />
    <path
       d="   M 105.71 157.16   A 1.38 1.37 41.7 0 0 105.81 158.81   Q 109.18 162.73 111.33 167.46   A 0.71 0.70 61.1 0 1 111.08 168.34   L 101.94 174.53   A 1.20 1.20 0.0 0 1 100.25 174.16   L 97.70 169.98   A 1.25 1.25 0.0 0 0 95.61 169.90   Q 94.14 171.96 91.71 171.70   A 1.02 1.00 -11.1 0 1 90.95 171.20   L 88.86 167.52   A 0.77 0.77 0.0 0 0 87.67 167.33   L 85.28 169.49   Q 83.61 170.99 82.41 169.11   L 80.43 166.02   A 1.58 1.58 0.0 0 1 81.06 163.76   L 84.45 162.08   A 0.70 0.70 0.0 0 0 84.75 161.10   L 82.49 157.12   A 1.50 1.50 0.0 0 1 83.01 155.10   L 86.18 153.18   A 0.68 0.68 0.0 0 0 86.49 152.46   C 86.06 150.52 83.62 147.58 85.00 146.00   A 1.08 1.08 0.0 0 1 85.85 145.64   Q 88.28 145.73 88.54 143.34   A 1.40 1.38 31.7 0 0 88.31 142.40   C 87.34 140.95 84.49 137.64 88.21 136.90   Q 88.73 136.80 89.17 136.51   L 94.84 132.80   A 2.45 2.45 0.0 0 1 98.14 133.38   L 100.39 136.39   A 0.69 0.69 0.0 0 0 101.32 136.55   L 104.66 134.34   A 0.66 0.65 48.6 0 1 105.45 134.40   Q 107.68 136.38 108.47 139.41   A 1.18 1.18 0.0 0 1 107.70 140.83   L 105.16 141.69   A 1.43 1.43 0.0 0 0 104.44 143.85   L 110.07 152.14   A 1.73 1.73 0.0 0 1 109.05 154.79   Q 106.91 155.33 105.71 157.16   Z"
       id="path41" />
  </g>
  <g
     fill="#f9e73f"
     id="g43">
    <path
       d="   M 141.79 68.00   C 139.63 69.92 143.08 71.46 142.87 73.95   A 1.00 0.98 77.0 0 1 142.40 74.72   L 133.77 79.87   A 1.39 1.39 0.0 0 0 133.33 81.84   L 135.29 84.70   A 1.46 1.46 0.0 0 1 134.82 86.78   L 121.29 94.83   A 1.76 1.75 -32.0 0 0 120.71 97.30   L 125.72 105.07   Q 127.00 107.04 124.80 107.86   C 121.39 109.15 114.69 112.16 117.82 116.86   A 2.12 2.12 0.0 0 1 116.87 119.99   L 113.57 121.36   A 0.67 0.67 0.0 0 1 112.74 121.09   L 106.72 111.38   L 114.39 106.74   A 0.80 0.80 0.0 0 0 114.66 105.65   L 109.40 96.69   A 0.66 0.66 0.0 0 1 109.63 95.78   L 125.63 86.16   A 0.72 0.71 -31.7 0 0 125.87 85.17   L 122.69 79.92   A 0.92 0.91 -47.1 0 1 122.66 79.02   L 123.23 77.96   A 0.82 0.80 -72.6 0 1 124.03 77.53   C 125.16 77.64 138.53 69.06 140.55 67.81   Q 141.16 67.43 141.79 68.00   Z"
       id="path42" />
    <path
       d="   M 102.00 115.71   L 107.53 124.28   A 0.83 0.83 0.0 0 1 107.47 125.26   Q 105.74 127.31 103.11 127.94   A 0.97 0.96 -25.1 0 1 102.11 127.58   L 99.50 124.11   A 1.19 1.19 0.0 0 0 97.91 123.82   L 89.09 129.36   A 1.15 1.15 0.0 0 1 87.47 128.93   C 86.31 126.77 83.25 120.47 81.05 119.68   A 1.08 1.06 38.9 0 0 80.14 119.77   L 66.63 127.92   A 1.78 1.77 -31.0 0 1 64.20 127.32   L 62.42 124.35   A 0.79 0.78 59.2 0 0 61.36 124.08   L 51.86 129.50   A 0.73 0.72 56.5 0 1 50.91 129.30   L 48.62 126.22   A 1.57 1.50 79.6 0 0 47.85 125.66   L 47.25 125.46   Q 47.05 124.58 47.55 124.29   Q 56.62 119.01 65.43 113.55   A 0.75 0.75 0.0 0 1 66.48 113.81   L 69.99 119.77   A 0.50 0.50 0.0 0 0 70.68 119.94   L 87.03 110.28   A 0.65 0.64 59.4 0 1 87.91 110.51   L 93.32 119.74   A 0.47 0.47 0.0 0 0 94.02 119.88   Q 97.70 116.99 102.00 115.71   Z"
       id="path43" />
  </g>
</svg>
