<?xml version="1.0" encoding="UTF-8" standalone="no"?>
<svg
   xmlns:dc="http://purl.org/dc/elements/1.1/"
   xmlns:cc="http://creativecommons.org/ns#"
   xmlns:rdf="http://www.w3.org/1999/02/22-rdf-syntax-ns#"
   xmlns:svg="http://www.w3.org/2000/svg"
   xmlns="http://www.w3.org/2000/svg"
   xmlns:sodipodi="http://sodipodi.sourceforge.net/DTD/sodipodi-0.dtd"
   xmlns:inkscape="http://www.inkscape.org/namespaces/inkscape"
   sodipodi:docname="Family Computer.svg"
   inkscape:version="1.0 (4035a4fb49, 2020-05-01)"
   id="svg2293"
   version="1.1"
   viewBox="0 0 335.20273 60.953899"
   height="60.953899mm"
   width="335.20273mm">
  <defs
     id="defs2287" />
  <sodipodi:namedview
     inkscape:window-maximized="0"
     inkscape:window-y="0"
     inkscape:window-x="26"
     inkscape:window-height="1040"
     inkscape:window-width="1274"
     fit-margin-bottom="0"
     fit-margin-right="0"
     fit-margin-left="0"
     fit-margin-top="0"
     showgrid="false"
     inkscape:document-rotation="0"
     inkscape:current-layer="layer1"
     inkscape:document-units="mm"
     inkscape:cy="9.4741798"
     inkscape:cx="584.88252"
     inkscape:zoom="0.35"
     inkscape:pageshadow="2"
     inkscape:pageopacity="0.0"
     borderopacity="1.0"
     bordercolor="#666666"
     pagecolor="#ffffff"
     id="base" />
  <metadata
     id="metadata2290">
    <rdf:RDF>
      <cc:Work
         rdf:about="">
        <dc:format>image/svg+xml</dc:format>
        <dc:type
           rdf:resource="http://purl.org/dc/dcmitype/StillImage" />
        <dc:title></dc:title>
      </cc:Work>
    </rdf:RDF>
  </metadata>
  <g
     transform="translate(48.916834,-145.65996)"
     id="layer1"
     inkscape:groupmode="layer"
     inkscape:label="Layer 1">
    <g
       transform="translate(-207.16189,336.10082)"
       id="g2248">
      <path
         sodipodi:nodetypes="ccccccccccc"
         id="path1605"
         d="m 178.53843,-138.7259 v -6.54421 h -20.10317 v 3.72121 h 16.85243 v 2.64583 c 0,3.39752 -3.13621,5.43821 -5.76075,5.43821 h -8.99583 v 3.80677 h 9.7094 c 4.48825,0 8.29792,-4.23287 8.29792,-9.06781 z"
         style="fill:#303691;fill-opacity:1;stroke:none;stroke-width:0.264583px;stroke-linecap:butt;stroke-linejoin:miter;stroke-opacity:1" />
      <path
         transform="matrix(0.26458333,0,0,0.26458333,451.25715,133.90729)"
         d="m -957.83984,-1053.2188 v 12.125 l 76.46679,7.1133 v -12.4492 z m 0,19.0762 v 12.125 l 76.46679,7.1133 v -12.4492 z m 0,19.3985 v 12.125 l 76.46679,7.11324 v -12.44724 z"
         style="fill:#303691;fill-opacity:1;stroke:none;stroke-width:0.999999px;stroke-linecap:butt;stroke-linejoin:miter;stroke-opacity:1"
         id="path1607-6" />
      <path
         sodipodi:nodetypes="ccccccsccccccccc"
         id="path1667"
         d="m 184.64196,-129.65809 h -4.87512 v -3.19433 h 5.5124 c 0.82223,0 1.27484,-0.65359 1.27484,-1.33838 v -2.10954 h 5.24489 c 1.00839,0 1.43189,-0.69167 1.43189,-1.28552 v -0.52917 h -13.36089 v -3.23621 h 16.15076 v 4.90638 c 0,2.06725 -1.75246,3.38072 -3.31656,3.38072 h -3.95841 c 0,1.54181 -1.22949,3.40605 -4.1038,3.40605 z"
         style="fill:#303691;fill-opacity:1;stroke:none;stroke-width:0.265;stroke-linecap:butt;stroke-linejoin:miter;stroke-miterlimit:4;stroke-dasharray:none;stroke-opacity:1" />
      <path
         transform="matrix(0.26458333,0,0,0.26458333,451.25715,133.90729)"
         d="m -876.76758,-1055.457 v 38.5039 h 10.61133 v -38.5039 z m 63.85547,0 v 25.9218 c 0,11.9353 -9.34991,19.1563 -16.81055,19.1563 h -36.53515 v 14.22656 h 33.625 c 11.63081,0 30.33203,-9.75496 30.33203,-29.39846 v -29.9062 z"
         style="fill:#303691;fill-opacity:1;stroke:none;stroke-width:1.00157;stroke-linecap:round;stroke-linejoin:miter;stroke-miterlimit:4;stroke-dasharray:none"
         id="rect1669" />
      <rect
         y="-139.12704"
         x="240.73552"
         height="3.963346"
         width="19.059303"
         id="rect1688"
         style="fill:#303691;fill-opacity:1;stroke:none;stroke-width:0.265;stroke-linecap:round;stroke-linejoin:miter;stroke-miterlimit:4;stroke-dasharray:none" />
      <rect
         style="fill:#303691;fill-opacity:1;stroke:none;stroke-width:0.265;stroke-linecap:round;stroke-linejoin:miter;stroke-miterlimit:4;stroke-dasharray:none"
         id="rect1688-6"
         width="19.78644"
         height="3.4500737"
         x="347.4361"
         y="-139.12704" />
      <path
         transform="matrix(0.26458333,0,0,0.26458333,451.25715,133.90729)"
         d="m -693.6875,-1055.1895 v 14.4551 h 66.07227 v 30.3555 h -66.07227 v 14.22656 h 66.07227 11.24218 v -14.22656 -44.8106 z"
         style="fill:#303691;fill-opacity:1;stroke:none;stroke-width:1.00157;stroke-linecap:round;stroke-linejoin:miter;stroke-miterlimit:4;stroke-dasharray:none"
         id="rect1712" />
      <path
         transform="matrix(0.26458333,0,0,0.26458333,451.25715,133.90729)"
         d="m -546.07422,-1055.457 v 27.8613 c 0,11.9353 -11.29132,17.2168 -18.75195,17.2168 h -45.75 v 14.22656 h 45.91211 c 11.63081,0 29.20117,-9.75496 29.20117,-29.39846 v -29.9062 z m -64.84375,0.2988 v 14.4238 h 43.32813 v -14.4238 z"
         style="fill:#303691;fill-opacity:1;stroke:none;stroke-width:0.999999px;stroke-linecap:butt;stroke-linejoin:miter;stroke-opacity:1"
         id="path1706-6" />
      <path
         transform="matrix(0.26458333,0,0,0.26458333,451.25715,133.90729)"
         d="m -529.51953,-1055.457 v 41.8359 c 0,8.7024 7.43746,17.51173 18.32031,17.51172 h 58.41211 v -14.26172 h -59.39062 c -4.17283,0 -6.45313,-2.8093 -6.45313,-6.375 v -9.3066 h 65.84375 v -10.0723 c -2.62571,3.2482 -6.63195,5.3438 -11.0957,5.3438 -6.25274,0 -11.60757,-4.1087 -13.51953,-9.7481 h -41.22852 v -14.9277 z m 65.63672,0.012 c -5.71136,-10e-5 -10.39453,4.6753 -10.39453,10.3867 3e-5,5.7114 4.68321,10.3946 10.39453,10.3945 5.71132,0 10.39453,-4.6832 10.39453,-10.3945 4e-5,-5.7113 -4.68318,-10.3867 -10.39453,-10.3867 z m 0,4.748 c 3.14558,0 5.64062,2.4932 5.64062,5.6387 0,3.1456 -2.49504,5.6484 -5.64062,5.6484 -3.14555,1e-4 -5.64645,-2.5028 -5.64649,-5.6484 0,-3.1456 2.5009,-5.6387 5.64649,-5.6387 z"
         style="fill:#303691;fill-opacity:1;stroke:none;stroke-width:1.00157;stroke-linecap:butt;stroke-linejoin:miter;stroke-miterlimit:4;stroke-dasharray:none;stroke-opacity:1"
         id="path1776" />
      <g
         style="opacity:1;fill:#303691;fill-opacity:1;stroke:none"
         id="g1804">
        <path
           id="path1806"
           d="m 328.52148,-145.3457 c -1.51113,-1e-5 -2.75,1.23691 -2.75,2.74804 10e-6,1.51113 1.23888,2.75001 2.75,2.75 1.51112,0 2.75,-1.23888 2.75,-2.75 10e-6,-1.51112 -1.23887,-2.74804 -2.75,-2.74804 z m 0,1.25586 c 0.83227,0 1.49219,0.65992 1.49219,1.49218 0,0.83227 -0.65992,1.49414 -1.49219,1.49414 -0.83226,1e-5 -1.49413,-0.66187 -1.49414,-1.49414 0,-0.83227 0.66187,-1.49219 1.49414,-1.49218 z"
           style="color:#000000;font-style:normal;font-variant:normal;font-weight:normal;font-stretch:normal;font-size:medium;line-height:normal;font-family:sans-serif;font-variant-ligatures:normal;font-variant-position:normal;font-variant-caps:normal;font-variant-numeric:normal;font-variant-alternates:normal;font-variant-east-asian:normal;font-feature-settings:normal;font-variation-settings:normal;text-indent:0;text-align:start;text-decoration:none;text-decoration-line:none;text-decoration-style:solid;text-decoration-color:#000000;letter-spacing:normal;word-spacing:normal;text-transform:none;writing-mode:lr-tb;direction:ltr;text-orientation:mixed;dominant-baseline:auto;baseline-shift:baseline;text-anchor:start;white-space:normal;shape-padding:0;shape-margin:0;inline-size:0;clip-rule:nonzero;display:inline;overflow:visible;visibility:visible;isolation:auto;mix-blend-mode:normal;color-interpolation:sRGB;color-interpolation-filters:linearRGB;solid-color:#000000;solid-opacity:1;vector-effect:none;fill:#303691;fill-opacity:1;fill-rule:nonzero;stroke:none;stroke-width:2.056;stroke-linecap:round;stroke-linejoin:miter;stroke-miterlimit:4;stroke-dasharray:none;stroke-dashoffset:0;stroke-opacity:1;color-rendering:auto;image-rendering:auto;shape-rendering:auto;text-rendering:auto;enable-background:accumulate;stop-color:#000000;stop-opacity:1" />
      </g>
      <path
         transform="matrix(0.26458333,0,0,0.26458333,451.25715,133.90729)"
         d="m -441.92773,-1038.8145 v 12.7618 h 34.52148 v 15.6738 h -40.74023 v 14.22656 h 61.96484 v -14.22656 h -12.87891 v -28.4356 z"
         style="fill:#303691;fill-opacity:1;stroke:none;stroke-width:1.00157;stroke-linecap:round;stroke-linejoin:miter;stroke-miterlimit:4;stroke-dasharray:none"
         id="rect1813" />
      <path
         sodipodi:nodetypes="ccccccccccccccscccc"
         id="path1834"
         d="m 368.34227,-140.2871 v 3.764 h 1.11209 c 1.55762,0 4.28672,-2.36861 4.28672,-4.97935 h 12.06618 l -10e-6,2.48007 h -11.84864 v 3.74669 h 10.12804 v 0.34739 c 0,0.78471 -1.54463,1.50618 -2.58821,1.50618 H 369.8884 v 3.76411 h 11.17042 c 3.43694,0 7.59146,-2.79707 7.59146,-7.48919 v -8.16978 h -16.99609 v 0.79538 c 0,1.35699 -1.49569,3.57818 -3.31192,4.2345 z"
         style="fill:#303691;fill-opacity:1;stroke:none;stroke-width:0.264583px;stroke-linecap:butt;stroke-linejoin:miter;stroke-opacity:1" />
      <path
         transform="matrix(0.26458333,0,0,0.26458333,451.25715,133.90729)"
         d="m -1107.4473,-1225.1895 v 23.7774 28.8066 23.7774 50.0683 h 24.6914 v -50.0683 h 41.3789 v -23.7774 h -41.3789 v -28.8066 h 41.3789 v -23.7774 h -41.3789 z"
         style="fill:#e6361e;fill-opacity:1;stroke:none;stroke-width:1.00157;stroke-linecap:round;stroke-linejoin:miter;stroke-miterlimit:4;stroke-dasharray:none"
         id="rect1840" />
      <path
         transform="matrix(0.26458333,0,0,0.26458333,451.25715,133.90729)"
         d="m -983.30664,-1225.1895 -86.87496,126.4297 h 27.6621 l 13.3066,-19.6621 h 42.70704 v 19.6621 h 23.08984 v -126.4297 z m -3.19922,43.668 v 40.4668 h -27.38864 z"
         style="fill:#e6361e;fill-opacity:1;stroke:none;stroke-width:0.999999px;stroke-linecap:butt;stroke-linejoin:miter;stroke-opacity:1"
         id="path1859" />
      <path
         style="fill:#e6361e;fill-opacity:1;stroke:none;stroke-width:0.264583px;stroke-linecap:butt;stroke-linejoin:miter;stroke-opacity:1"
         d="m 225.38848,-190.25719 h 7.37976 v 33.45082 h -6.5329 v -16.81614 h -0.60488 l -7.2283,16.81614 h -2.93398 -2.93398 l -7.2283,-16.81614 h -0.60488 v 16.81614 h -6.5329 v -33.45082 h 7.37976 l 9.9203,22.9861 z"
         id="path1894-2"
         sodipodi:nodetypes="ccccccccccccccccc" />
      <path
         sodipodi:nodetypes="ccccc"
         d="m 234.46585,-190.25719 h 6.23348 v 33.45082 h -6.23348 z"
         style="fill:#e6361e;fill-opacity:1;stroke:none;stroke-width:0.264999;stroke-linecap:round;stroke-linejoin:miter;stroke-miterlimit:4;stroke-dasharray:none"
         id="rect1840-6" />
      <path
         transform="matrix(0.26458333,0,0,0.26458333,451.25715,133.90729)"
         d="m -789.13867,-1225.1895 v 102.4571 23.9726 h 24.6914 32.28711 v -23.9726 h -32.28711 v -102.4571 z"
         style="fill:#e6361e;fill-opacity:1;stroke:none;stroke-width:1.00157;stroke-linecap:round;stroke-linejoin:miter;stroke-miterlimit:4;stroke-dasharray:none"
         id="rect1840-0" />
      <path
         sodipodi:nodetypes="ccccccccccc"
         id="path1942"
         d="m 260.9272,-156.80624 v -12.70297 l -10.4783,-20.74822 h 6.87817 l 6.77485,13.30799 6.86558,-13.30799 h 6.87817 l -10.4783,20.74822 v 12.70297 h -3.17472 z"
         style="fill:#e6361e;fill-opacity:1;stroke:none;stroke-width:0.264583px;stroke-linecap:butt;stroke-linejoin:miter;stroke-opacity:1" />
      <path
         sodipodi:nodetypes="ccccccccccccccccc"
         id="path1894-2-6"
         d="m 375.69175,-190.25719 h 7.37976 v 33.45082 h -6.5329 v -16.81614 h -0.60488 l -7.2283,16.81614 h -2.93398 -2.93398 l -7.2283,-16.81614 h -0.60488 v 16.81614 h -6.5329 v -33.45082 h 7.37976 l 9.9203,22.9861 z"
         style="fill:#e6361e;fill-opacity:1;stroke:none;stroke-width:0.264583px;stroke-linecap:butt;stroke-linejoin:miter;stroke-opacity:1" />
      <path
         transform="matrix(0.26458333,0,0,0.26458333,451.25715,133.90729)"
         d="m -458.38867,-1225.8828 a 63.565353,64.594159 0 0 0 -63.56445,64.5937 63.565353,64.594159 0 0 0 63.56445,64.5938 63.565353,64.594159 0 0 0 63.5664,-64.5938 63.565353,64.594159 0 0 0 -63.5664,-64.5937 z m -0.15821,22.875 a 40.805726,41.834532 0 0 1 0.0449,0 40.805726,41.834532 0 0 1 40.80468,41.834 40.805726,41.834532 0 0 1 -40.80468,41.834 40.805726,41.834532 0 0 1 -40.80664,-41.834 40.805726,41.834532 0 0 1 40.76171,-41.834 z"
         style="fill:#e6361e;fill-opacity:1;stroke:none;stroke-width:0.985028;stroke-linecap:round;stroke-linejoin:miter;stroke-miterlimit:4;stroke-dasharray:none"
         id="path1980" />
      <path
         transform="matrix(0.26458333,0,0,0.26458333,451.25715,133.90729)"
         d="m -579.10156,-1225.8828 a 63.566219,64.366401 0 0 0 -63.56446,64.3652 63.566219,64.366401 0 0 0 63.56446,64.3653 63.566219,64.366401 0 0 0 56.67383,-35.2149 h -27.50977 a 40.806282,41.687025 0 0 1 -29.27734,12.6504 40.806282,41.687025 0 0 1 -40.80664,-41.6855 40.806282,41.687025 0 0 1 40.76171,-41.6875 40.806282,41.687025 0 0 1 0.0449,0 40.806282,41.687025 0 0 1 28.61132,11.9668 h 27.94532 a 63.566219,64.366401 0 0 0 -56.44336,-34.7598 z"
         style="fill:#e6361e;fill-opacity:1;stroke:none;stroke-width:0.983297;stroke-linecap:round;stroke-linejoin:miter;stroke-miterlimit:4;stroke-dasharray:none"
         id="path1980-2" />
      <path
         transform="matrix(0.26458333,0,0,0.26458333,451.25715,133.90729)"
         d="m -210.44336,-1225.1934 h -40.49023 l -0.041,126.4297 h 24.65039 l 0.0137,-44.3379 h 15.86719 a 41.047569,41.047569 0 0 0 35.54688,-20.5234 41.047569,41.047569 0 0 0 0,-41.0488 41.047569,41.047569 0 0 0 -35.54688,-20.5235 z m 0.84766,24.0508 c 5.92898,0 11.40662,3.1643 14.37109,8.2988 2.96447,5.1347 2.96447,11.4611 0,16.5958 -2.96447,5.1346 -8.44215,8.2968 -14.37109,8.2968 h -16.70703 l 0.0117,-33.1875 z"
         style="fill:#e6361e;fill-opacity:1;stroke:none;stroke-width:1.00157;stroke-linecap:round;stroke-linejoin:miter;stroke-miterlimit:4;stroke-dasharray:none"
         id="rect2037" />
      <path
         transform="matrix(0.26458333,0,0,0.26458333,451.25715,133.90729)"
         d="m 118.41406,-1225.1973 v 0 H 68.222656 l -0.04102,126.4297 h 24.003906 v -64.8691 l 12.357418,20.5312 26.68555,44.3379 h 26.39062 l -26.67383,-46.1172 -0.14453,-0.1543 c 9.63074,-3.0514 17.96162,-9.5859 23.16016,-18.5898 7.33292,-12.7005 7.33292,-28.3484 0,-41.0488 -7.33229,-12.6997 -20.88254,-20.523 -35.54688,-20.5235 z m 0.75,24.0547 c 5.92899,0 11.40662,3.1645 14.3711,8.2988 2.96447,5.1348 2.96447,11.461 0,16.5958 -2.96448,5.1346 -8.44215,8.2968 -14.3711,8.2968 H 92.207031 l 0.01172,-33.1875 z"
         style="fill:#e6361e;fill-opacity:1;stroke:none;stroke-width:1.00157;stroke-linecap:round;stroke-linejoin:miter;stroke-miterlimit:4;stroke-dasharray:none"
         id="rect2037-4" />
      <path
         sodipodi:nodetypes="ssccccssccccs"
         d="m 416.64225,-163.61856 c 1.35421,0.78185 2.87144,0.78185 4.22565,0 1.3542,-0.78185 2.18843,-2.22677 2.18843,-3.79047 v -22.8484 h 6.47029 v 22.91661 c 0,3.84341 -2.09069,7.33068 -5.41918,9.25239 -3.32849,1.92171 -7.42936,1.92171 -10.75785,0 -3.32849,-1.92171 -5.38593,-5.40899 -5.38593,-9.2524 v -22.9166 h 6.49016 v 22.8484 c 0,1.5637 0.83423,3.00862 2.18843,3.79047 z"
         style="fill:#e6361e;fill-opacity:1;stroke:none;stroke-width:0.265;stroke-linecap:round;stroke-linejoin:miter;stroke-miterlimit:4;stroke-dasharray:none"
         id="path2125-4" />
      <path
         transform="matrix(0.26458333,0,0,0.26458333,451.25715,133.90729)"
         d="m -75.730469,-1225.1895 v 24.6915 h 20.462891 v 101.7382 h 24.691406 v -101.7382 h 20.7460939 v -24.6915 H -30.576172 -55.267578 Z"
         style="fill:#e6361e;fill-opacity:1;stroke:none;stroke-width:1.00157;stroke-linecap:round;stroke-linejoin:miter;stroke-miterlimit:4;stroke-dasharray:none"
         id="rect2163" />
      <path
         transform="matrix(0.26458333,0,0,0.26458333,451.25715,133.90729)"
         d="m -3.8242188,-1225.1934 v 23.7793 h 0.00586 v 28.8106 h -0.00586 v 23.7793 h 0.00586 v 26.2832 23.7812 H 20.873047 60.96875 v -23.7812 H 20.873047 v -26.2832 h 40.091797 v -23.7793 H 20.873047 v -28.8106 h 40.091797 v -23.7793 z"
         style="fill:#e6361e;fill-opacity:1;stroke:none;stroke-width:1.00157;stroke-linecap:round;stroke-linejoin:miter;stroke-miterlimit:4;stroke-dasharray:none"
         id="rect1840-7" />
      <path
         sodipodi:nodetypes="ccccc"
         d="M 158.24507,-152.72836 H 490.5193 l -3.65707,3.43007 H 158.24507 Z"
         style="fill:#e6361e;fill-opacity:1;stroke:none;stroke-width:0.264999;stroke-linecap:round;stroke-linejoin:miter;stroke-miterlimit:4;stroke-dasharray:none"
         id="rect2217" />
    </g>
  </g>
</svg>
