<?xml version="1.0" encoding="UTF-8" standalone="no"?>
<!-- Created with Inkscape (http://www.inkscape.org/) -->

<svg
   width="1000.0735mm"
   height="181.21312mm"
   viewBox="0 0 1000.0735 181.21312"
   version="1.1"
   id="svg1"
   inkscape:version="1.3.2 (091e20e, 2023-11-25, custom)"
   sodipodi:docname="fds-w.svg"
   xmlns:inkscape="http://www.inkscape.org/namespaces/inkscape"
   xmlns:sodipodi="http://sodipodi.sourceforge.net/DTD/sodipodi-0.dtd"
   xmlns="http://www.w3.org/2000/svg"
   xmlns:svg="http://www.w3.org/2000/svg">
  <sodipodi:namedview
     id="namedview1"
     pagecolor="#e5e5e5"
     bordercolor="#000000"
     borderopacity="0.25"
     inkscape:showpageshadow="2"
     inkscape:pageopacity="0.0"
     inkscape:pagecheckerboard="true"
     inkscape:deskcolor="#d1d1d1"
     inkscape:document-units="mm"
     inkscape:zoom="0.2911843"
     inkscape:cx="-539.17742"
     inkscape:cy="262.72021"
     inkscape:window-width="2560"
     inkscape:window-height="1351"
     inkscape:window-x="-9"
     inkscape:window-y="-9"
     inkscape:window-maximized="1"
     inkscape:current-layer="g102" />
  <defs
     id="defs1" />
  <g
     id="g103"
     transform="matrix(0.26458333,0,0,0.26458333,-7.80521,-7.805208)">
    <g
       id="g102"
       style="display:inline">
      <g
         id="g101"
         style="display:inline">
        <g
           id="g80">
          <g
             id="g70">
            <path
               class="st1"
               d="m 689.8,532 v -12.7 l 10.6,-6.9 c 30.6,-19.6 48.9,-52.8 48.9,-88.8 0,-36 -18.2,-69.1 -48.8,-88.8 l -10.6,-6.9 V 315.2 105.9 C 689.9,82.7 671,63.7 647.8,63.7 H 164.3 c -23.2,0 -42.2,18.9 -42.2,42.2 V 315.3 328 l -10.6,6.9 c -30.7,19.6 -48.9,52.8 -48.9,88.8 0,36 18.3,69.1 48.8,88.8 l 10.6,6.9 v 12.7 45.7 21.7 l -21.8,1.4 c -21.3,1.4 -37.8,18.9 -37.8,40.1 0,22.4 18.1,40.5 40.4,40.5 h 215.1 c 10.2,-39 45.8,-67.7 87.9,-67.7 42.1,0 77.8,28.8 87.9,67.7 h 215.1 c 22.4,0 40.4,-18.1 40.4,-40.5 0,-21.2 -16.6,-38.7 -37.9,-40.1 l -21.8,-1.4 v -21.9 z"
               id="path69"
               style="fill:#fdbc1a;fill-opacity:1" />
          </g>
          <g
             id="g74">
            <g
               id="g72">
              <g
                 id="g71">
                <path
                   d="m 548,189.3 c 28.2,0 54.7,10.9 74.6,30.9 20,20 30.9,46.4 30.9,74.7 0,28.2 -10.9,54.7 -30.9,74.6 -20,20 -46.5,30.9 -74.6,30.9 -28.1,0 -54.7,-10.9 -74.6,-30.9 -20,-20 -30.9,-46.5 -30.9,-74.6 0,-28.2 10.9,-54.7 30.9,-74.7 19.8,-19.9 46.4,-30.9 74.6,-30.9 m 0,-23.3 c -71.1,0 -128.8,57.7 -128.8,128.8 0,71.1 57.7,128.8 128.8,128.8 71.1,0 128.9,-57.7 128.9,-128.8 C 676.9,223.7 619.2,166 548,166 Z"
                   id="path70" />
              </g>
            </g>
            <g
               id="g73">
              <circle
                 cx="460.70001"
                 cy="294.79999"
                 r="31.1"
                 id="circle72" />
            </g>
          </g>
          <g
             id="g78">
            <g
               id="g76">
              <g
                 id="g75">
                <path
                   d="m 264,189.3 c 28.2,0 54.7,10.9 74.6,30.9 20,20 30.9,46.4 30.9,74.7 0,28.2 -10.9,54.7 -30.9,74.6 -20,20 -46.5,30.9 -74.6,30.9 -28.1,0 -54.7,-10.9 -74.6,-30.9 -20,-20 -30.9,-46.5 -30.9,-74.6 0,-28.2 10.9,-54.7 30.9,-74.7 19.8,-19.9 46.4,-30.9 74.6,-30.9 m 0,-23.3 c -71.1,0 -128.8,57.7 -128.8,128.8 0,71.1 57.7,128.8 128.8,128.8 71.1,0 128.8,-57.7 128.8,-128.8 C 392.8,223.7 335.1,166 264,166 Z"
                   id="path74" />
              </g>
            </g>
            <g
               id="g77">
              <circle
                 cx="351.20001"
                 cy="294.79999"
                 r="31.1"
                 id="circle76" />
            </g>
          </g>
          <g
             id="g79">
            <path
               d="m 712.8,577.8 v -45.7 c 35.7,-22.9 59.7,-62.7 59.7,-108.3 0,-45.6 -23.8,-85.5 -59.7,-108.3 V 105.9 C 713,69.8 683.8,40.5 647.7,40.5 H 164.3 c -36.1,0 -65.4,29.2 -65.4,65.4 v 209.4 c -35.7,22.9 -59.7,62.8 -59.7,108.3 0,45.6 23.9,85.5 59.7,108.3 v 45.7 c -33.3,2.2 -59.7,29.4 -59.7,63.2 0,35.2 28.5,63.6 63.5,63.6 H 338 c 0,-37.4 30.3,-67.7 67.7,-67.7 37.4,0 67.7,30.3 67.7,67.7 h 235.2 c 35.2,0 63.5,-28.5 63.5,-63.6 0.4,-33.6 -26,-61 -59.3,-63 z m -3.7,103.6 H 493.9 c -10.2,-39 -45.8,-67.7 -87.9,-67.7 -42.1,0 -77.8,28.8 -87.9,67.7 H 102.9 c -22.4,0 -40.4,-18.1 -40.4,-40.5 0,-21.2 16.6,-38.7 37.8,-40.1 l 21.8,-1.4 v -21.9 -45.7 -12.7 l -10.6,-6.9 C 80.9,492.6 62.7,459.4 62.7,423.4 c 0,-36 18.3,-69.1 48.8,-88.8 l 10.6,-6.9 V 315 105.9 c 0,-23.2 18.9,-42.2 42.2,-42.2 h 483.4 c 23.2,0 42.1,18.9 42.1,42.2 V 315.3 328 l 10.6,6.9 c 30.6,19.6 48.9,52.8 48.9,88.8 0,36 -18.3,69.1 -48.9,88.8 l -10.6,6.9 v 12.7 45.7 21.7 l 21.8,1.4 c 21.3,1.4 37.9,18.9 37.9,40.1 -0.1,22.3 -18.2,40.4 -40.4,40.4 z"
               id="path78" />
          </g>
        </g>
        <g
           id="g92">
          <g
             id="g81">
            <path
               d="M 1046.3,256.8 H 849.9 v 447.6 h 196.4 c 37.3,0 67.5,-30.2 67.5,-67.5 V 324.5 c 0.1,-37.4 -30.3,-67.7 -67.5,-67.7 z m 44.4,380.1 c 0,24.5 -19.9,44.4 -44.4,44.4 H 873 V 279.9 h 173.2 c 24.5,0 44.4,19.9 44.4,44.4 z"
               id="path80" />
          </g>
          <g
             id="g82">
            <path
               d="m 1523.3,482.6 -113.6,-76.1 v -30 c 0,-7.1 6.3,-12.6 13.5,-11.3 5.7,1 9.6,6.3 9.6,12 v 17.6 7 l 120.4,80.9 V 324.4 c 0,-37.3 -30.2,-67.5 -67.5,-67.5 h -128.9 c -37.3,0 -67.5,30.2 -67.5,67.5 v 98.3 c 0,22.5 11.2,43.6 29.9,56.1 l 113.6,76.1 v 30 c 0,7.1 -6.3,12.5 -13.5,11.3 -5.7,-0.9 -9.6,-6.3 -9.6,-12 v -17.6 -7 l -120.4,-80.9 v 158.2 c 0,37.3 30.2,67.5 67.5,67.5 h 128.9 c 37.3,0 67.5,-30.2 67.5,-67.5 v -87.8 21.7 -31.9 c 0,-22.7 -11.2,-43.8 -29.9,-56.3 z m 6.8,66.5 v 0 87.8 c 0,24.5 -19.9,44.4 -44.4,44.4 h -128.9 c -24.5,0 -44.4,-19.9 -44.4,-44.4 V 522.3 l 74.1,49.7 v 12.3 c 0,17.4 12.2,32.1 29,34.9 1.9,0.3 3.7,0.5 5.7,0.5 8.3,0 16.1,-3 22.5,-8.3 7.8,-6.7 12.2,-16.2 12.2,-26.5 v -30 -12.3 l -10.2,-6.9 -113.5,-76 c -12.3,-8.3 -19.7,-22.1 -19.7,-36.9 v -98.4 c 0,-24.5 19.9,-44.4 44.4,-44.4 h 128.9 c 24.5,0 44.4,19.9 44.4,44.4 v 114.8 l -74.1,-49.7 v -12.3 c 0,-17.5 -12.2,-32.1 -29,-34.9 -1.9,-0.3 -3.7,-0.5 -5.7,-0.5 -8.3,0 -16.1,3 -22.5,8.3 -7.8,6.7 -12.2,16.2 -12.2,26.5 v 30 12.3 l 10.2,6.9 113.6,76.1 c 12.3,8.3 19.7,22.1 19.7,36.9 z"
               id="path81" />
          </g>
          <g
             id="g83">
            <path
               d="M 2844.6,482.6 2731,406.5 v -30 c 0,-7.1 6.3,-12.6 13.5,-11.3 5.7,1 9.6,6.3 9.6,12 v 17.6 7 l 120.4,80.9 V 324.4 c 0,-37.3 -30.2,-67.5 -67.5,-67.5 h -129 c -37.3,0 -67.5,30.2 -67.5,67.5 v 98.3 c 0,22.5 11.2,43.6 29.9,56.1 l 113.6,76.1 v 30 c 0,7.1 -6.3,12.5 -13.5,11.3 -5.7,-0.9 -9.6,-6.3 -9.6,-12 v -17.6 -7 l -120.4,-80.9 v 158.2 c 0,37.3 30.2,67.5 67.5,67.5 h 128.9 c 37.3,0 67.5,-30.2 67.5,-67.5 v -87.8 21.7 -31.9 c 0,-22.7 -11.1,-43.8 -29.8,-56.3 z m 6.7,66.5 v 0 87.8 c 0,24.5 -19.9,44.4 -44.4,44.4 H 2678 c -24.5,0 -44.4,-19.9 -44.4,-44.4 V 522.3 l 74.1,49.7 v 12.3 c 0,17.4 12.2,32.1 29,34.9 1.9,0.3 3.8,0.5 5.7,0.5 8.3,0 16.1,-3 22.5,-8.3 7.8,-6.7 12.2,-16.2 12.2,-26.5 v -30 -12.3 l -10.2,-6.9 -113.6,-76.1 c -12.3,-8.3 -19.7,-22.1 -19.7,-36.9 v -98.4 c 0,-24.5 19.9,-44.4 44.4,-44.4 h 128.9 c 24.5,0 44.4,19.9 44.4,44.4 v 114.9 l -74,-49.7 v -12.3 c 0,-17.5 -12.2,-32.1 -29,-34.9 -1.9,-0.3 -3.8,-0.5 -5.7,-0.5 -8.3,0 -16.1,3 -22.5,8.3 -7.8,6.7 -12.2,16.2 -12.2,26.5 v 30 12.3 l 10.2,6.9 113.6,76.1 c 12.3,8.3 19.7,22.1 19.7,36.9 z"
               id="path82" />
          </g>
          <g
             id="g84">
            <path
               d="m 2270.3,482.6 -113.6,-76.1 v -30 c 0,-7.1 6.3,-12.6 13.5,-11.3 5.7,1 9.6,6.3 9.6,12 v 17.6 7 l 120.4,80.9 V 324.4 c 0,-37.3 -30.2,-67.5 -67.5,-67.5 h -128.9 c -37.3,0 -67.5,30.2 -67.5,67.5 v 98.3 c 0,22.5 11.2,43.6 29.9,56.1 l 113.6,76.1 v 30 c 0,7.1 -6.3,12.5 -13.5,11.3 -5.7,-0.9 -9.6,-6.3 -9.6,-12 v -17.6 -7 l -120.4,-80.9 v 158.2 c 0,37.3 30.2,67.5 67.5,67.5 h 128.9 c 37.3,0 67.5,-30.2 67.5,-67.5 v -87.8 21.7 -31.9 c 0,-22.7 -11.3,-43.8 -29.9,-56.3 z m 6.8,66.5 v 0 87.8 c 0,24.5 -19.9,44.4 -44.4,44.4 h -129 c -24.5,0 -44.4,-19.9 -44.4,-44.4 V 522.3 l 74.1,49.7 v 12.3 c 0,17.4 12.2,32.1 29,34.9 1.9,0.3 3.8,0.5 5.7,0.5 8.3,0 16.1,-3 22.5,-8.3 7.8,-6.7 12.2,-16.2 12.2,-26.5 v -30 -12.3 l -10.2,-6.9 -113.6,-76.1 c -12.3,-8.3 -19.7,-22.1 -19.7,-36.9 v -98.4 c 0,-24.5 19.9,-44.4 44.4,-44.4 h 128.9 c 24.5,0 44.4,19.9 44.4,44.4 v 114.9 l -74,-49.7 v -12.3 c 0,-17.5 -12.2,-32.1 -29,-34.9 -1.9,-0.3 -3.8,-0.5 -5.7,-0.5 -8.3,0 -16.1,3 -22.5,8.3 -7.8,6.7 -12.2,16.2 -12.2,26.5 v 30 12.3 l 10.2,6.9 113.6,76.1 c 12.3,8.3 19.7,22.1 19.7,36.9 z"
               id="path83" />
          </g>
          <g
             id="g85">
            <path
               d="m 1144.2,256.8 v 447.6 h 120.4 V 256.8 Z m 97.4,424.6 h -74.1 V 279.9 h 74.1 z"
               id="path84" />
          </g>
          <g
             id="g86">
            <path
               d="M 3074.1,256.8 H 2953.7 2895 V 365 h 58.7 v 339.4 h 120.4 V 365 h 58.7 V 256.8 Z m 35.3,85.1 h -58.7 v 339.5 h -74.1 V 341.9 h -58.7 V 280 h 191.3 z"
               id="path85" />
          </g>
          <g
             id="g87">
            <path
               d="M 979,341.9 H 947.2 V 619.7 H 979 c 20.8,0 37.6,-16.8 37.6,-37.6 V 379.5 c 0,-20.7 -16.8,-37.6 -37.6,-37.6 z m 14.4,240 c 0,8.1 -6.5,14.5 -14.5,14.5 h -8.7 V 365 h 8.7 c 8.1,0 14.5,6.5 14.5,14.5 z"
               id="path86" />
          </g>
          <g
             id="g88">
            <path
               d="m 1837.1,256.8 h -120.4 v 116.9 l -23.1,23.1 v -140 h -120.4 v 447.6 h 120.4 V 564.5 l 23.1,23.1 v 116.9 h 120.4 V 537.7 l -57,-57 57,-57 z m -23.1,157.3 -66.6,66.6 66.6,66.6 v 134.1 h -74.1 V 578.1 l -69.4,-69.4 v 172.6 h -74.1 V 279.9 h 74.1 v 172.6 l 69.4,-69.4 V 279.9 h 74.1 z"
               id="path87" />
          </g>
          <g
             id="g89">
            <path
               d="m 2465.7,256.8 v 196.1 h -23.1 V 256.8 h -120.4 v 161.3 64.9 22.6 c 0,37.3 30.2,67.5 67.5,67.5 h 76 v 23.1 h -120.4 v 108 h 173.2 c 37.3,0 67.5,-30.2 67.5,-67.5 v -380 h -120.3 z m 97.1,380.1 c 0,24.5 -19.9,44.4 -44.4,44.4 h -150.2 v -61.7 h 97.3 23.2 v -23.2 -23.1 -23.2 h -23.1 -76 c -24.5,0 -44.4,-19.9 -44.4,-44.4 V 483.1 418 279.9 h 74.1 V 452.8 476 h 23.2 23.1 23.2 V 452.8 279.9 h 74.1 z"
               id="path88" />
          </g>
          <g
             id="g90">
            <path
               d="m 3273,365 h 88.3 V 256.8 h -208.7 v 447.6 h 208.7 V 596.5 H 3273 v -61.7 h 88.3 V 426.6 H 3273 Z m 65.1,84.8 v 61.9 h -88.3 v 108 h 88.3 v 61.6 H 3175.7 V 279.9 h 162.4 v 61.9 h -88.3 v 107.9 z"
               id="path89" />
          </g>
          <g
             id="g91">
            <path
               d="m 3732.4,256.8 h -92 c -17,0 -32.5,6.4 -44.5,16.7 -11.8,-10.3 -27.4,-16.7 -44.5,-16.7 h -159.5 v 447.6 h 120.4 V 376.7 c 0,-6.5 5.2,-11.6 11.6,-11.6 6.5,0 11.6,5.2 11.6,11.6 v 327.9 h 120.4 v -328 c 0,-6.5 5.2,-11.6 11.6,-11.6 6.5,0 11.6,5.2 11.6,11.6 v 327.9 h 120.4 v -380 c 0.5,-37.4 -29.8,-67.7 -67.1,-67.7 z m 44.4,424.6 h -74.1 V 377.9 c 0,-17.7 -12.6,-33.5 -30.2,-35.7 -21.3,-2.8 -39.4,13.8 -39.4,34.5 v 304.7 h -74 V 377.9 c 0,-17.7 -12.6,-33.5 -30.2,-35.7 -21.3,-2.8 -39.4,13.8 -39.4,34.5 v 304.7 h -74.1 V 279.9 h 136.3 c 11.4,0 22,4.4 29.7,11.5 6.7,6.1 11.5,21.9 13.6,29.2 0.3,1.1 1.8,1.1 2.1,0 2.1,-7.5 6.9,-23.1 13.5,-29.2 8,-7.2 18.3,-11.5 29.7,-11.5 h 92 c 24.5,0 44.4,19.9 44.4,44.4 z"
               id="path90" />
          </g>
        </g>
        <g
           id="g98">
          <path
             class="st1"
             d="m 2806.9,681.4 c 24.5,0 44.4,-19.9 44.4,-44.4 v -87.8 0 -10.2 c 0,-14.8 -7.4,-28.6 -19.7,-36.9 L 2718,426 l -10.2,-6.9 v -12.3 -30 c 0,-10.1 4.5,-19.9 12.2,-26.5 6.4,-5.4 14.3,-8.3 22.5,-8.3 1.9,0 3.7,0.1 5.7,0.5 16.8,2.8 29,17.4 29,34.9 v 12.3 l 74,49.7 V 324.6 c 0,-24.5 -19.9,-44.4 -44.4,-44.4 H 2678 c -24.5,0 -44.4,19.9 -44.4,44.4 v 98.3 c 0,14.8 7.4,28.6 19.7,36.9 l 113.6,76.1 10.2,6.9 v 12.3 30 c 0,10.1 -4.5,19.9 -12.2,26.5 -6.4,5.4 -14.3,8.3 -22.5,8.3 -1.9,0 -3.7,-0.2 -5.7,-0.5 -16.8,-2.8 -29,-17.4 -29,-34.9 V 572 l -74.1,-49.7 V 637 c 0,24.5 19.9,44.4 44.4,44.4 z"
             id="path92"
             style="fill:#fdbc1a;fill-opacity:1" />
          <path
             class="st1"
             d="m 2232.7,681.4 c 24.5,0 44.4,-19.9 44.4,-44.4 v -87.8 0 -10.2 c 0,-14.8 -7.4,-28.6 -19.7,-36.9 l -113.6,-76.1 -10.2,-6.9 v -12.3 -30 c 0,-10.1 4.5,-19.9 12.2,-26.5 6.4,-5.4 14.3,-8.3 22.5,-8.3 1.9,0 3.7,0.1 5.7,0.5 16.8,2.8 29,17.4 29,34.9 v 12.3 l 74,49.7 V 324.6 c 0,-24.5 -19.9,-44.4 -44.4,-44.4 h -128.9 c -24.5,0 -44.4,19.9 -44.4,44.4 v 98.3 c 0,14.8 7.4,28.6 19.7,36.9 l 113.6,76.1 10.2,6.9 v 12.3 30 c 0,10.1 -4.5,19.9 -12.2,26.5 -6.4,5.4 -14.3,8.3 -22.5,8.3 -1.9,0 -3.7,-0.2 -5.7,-0.5 -16.8,-2.8 -29,-17.4 -29,-34.9 V 572 l -74.1,-49.7 V 637 c 0,24.5 19.9,44.4 44.4,44.4 z"
             id="path93"
             style="fill:#fdbc1a;fill-opacity:1"
             sodipodi:nodetypes="ssccsccccscscsccsssssccccscscsccsss" />
          <path
             class="st1"
             d="m 2562.8,636.9 v -357 h -74.1 V 452.8 476 h -23.2 -23.1 -23.2 V 452.8 279.9 h -74.1 v 138.2 64.9 22.6 c 0,24.5 19.9,44.4 44.4,44.4 h 76 23.2 v 23.2 23.1 23.2 h -23.2 -97.2 v 61.7 h 150.2 c 24.5,0.2 44.3,-19.8 44.3,-44.3 z"
             id="path94"
             sodipodi:nodetypes="sccccccccccccsscccccccccs"
             style="fill:#fdbc1a;fill-opacity:1" />
          <polygon
             class="st1"
             points="1747.4,480.7 1814,414.1 1814,279.9 1739.8,279.9 1739.8,383.1 1670.4,452.7 1670.4,279.9 1596.3,279.9 1596.3,681.4 1670.4,681.4 1670.4,508.6 1739.8,578.2 1739.8,681.4 1814,681.4 1814,547.3 "
             id="polygon94"
             style="fill:#fdbc1a;fill-opacity:1" />
          <rect
             x="1167.4"
             y="279.89999"
             class="st1"
             width="74.099998"
             height="401.39999"
             id="rect94"
             style="fill:#fdbc1a;fill-opacity:1" />
          <path
             class="st1"
             d="m 1485.6,681.4 c 24.5,0 44.4,-19.9 44.4,-44.4 v -87.8 0 -10.2 c 0,-14.8 -7.4,-28.6 -19.7,-36.9 l -113.6,-76.1 -10.2,-6.9 v -12.3 -30 c 0,-10.1 4.5,-19.9 12.2,-26.5 6.4,-5.4 14.3,-8.3 22.5,-8.3 1.9,0 3.7,0.1 5.7,0.5 16.8,2.8 29,17.4 29,34.9 v 12.3 l 74.1,49.7 V 324.6 c 0,-24.5 -19.9,-44.4 -44.4,-44.4 h -128.9 c -24.5,0 -44.4,19.9 -44.4,44.4 v 98.3 c 0,14.8 7.4,28.6 19.7,36.9 l 113.6,76.1 10.2,6.9 v 12.3 30 c 0,10.1 -4.5,19.9 -12.2,26.5 -6.4,5.4 -14.3,8.3 -22.5,8.3 -1.9,0 -3.7,-0.2 -5.7,-0.5 -16.8,-2.8 -29,-17.4 -29,-34.9 V 572 l -74.1,-49.7 V 637 c 0,24.5 19.9,44.4 44.4,44.4 z"
             id="path95"
             style="fill:#fdbc1a;fill-opacity:1" />
          <path
             class="st1"
             d="M 1090.7,636.9 V 324.5 c 0,-24.5 -19.9,-44.4 -44.4,-44.4 H 873 v 401.4 h 173.2 c 24.5,-0.1 44.5,-20.1 44.5,-44.6 z m -74.1,-55 c 0,20.8 -16.8,37.6 -37.6,37.6 H 947.2 V 341.9 H 979 c 20.8,0 37.6,16.8 37.6,37.6 z"
             id="path96"
             style="fill:#fdbc1a;fill-opacity:1" />
          <path
             class="st1"
             d="m 3702.7,377.9 v 303.5 h 74.1 V 324.5 c 0,-24.5 -19.9,-44.4 -44.4,-44.4 h -92 c -11.4,0 -22,4.4 -29.7,11.5 -6.8,6.1 -11.5,21.8 -13.5,29.2 -0.3,1.1 -1.8,1.1 -2.1,0 -2.1,-7.5 -7,-23.2 -13.6,-29.2 -8,-7.2 -18.3,-11.5 -29.7,-11.5 h -136.3 v 401.4 h 74.1 V 376.6 c 0,-20.7 18.1,-37.2 39.4,-34.5 17.5,2.3 30.2,18 30.2,35.7 v 303.5 h 74.1 V 376.6 c 0,-20.7 18.1,-37.2 39.4,-34.5 17.3,2.3 30,18.1 30,35.8 z"
             id="path97"
             style="fill:#fdbc1a;fill-opacity:1"
             sodipodi:nodetypes="sccsssccccscccscsccscs" />
          <polygon
             class="st1"
             points="3050.9,341.9 3109.4,341.9 3109.4,279.9 2918.2,279.9 2918.2,341.9 2976.7,341.9 2976.7,681.4 3050.9,681.4 "
             id="polygon97"
             style="fill:#fdbc1a;fill-opacity:1" />
          <polygon
             class="st1"
             points="3249.8,341.9 3338.1,341.9 3338.1,279.9 3175.7,279.9 3175.7,681.4 3338.1,681.4 3338.1,619.6 3249.8,619.6 3249.8,511.5 3338.1,511.5 3338.1,449.8 3249.8,449.8 "
             id="polygon98"
             style="fill:#fdbc1a;fill-opacity:1" />
        </g>
        <g
           id="g100"
           style="fill:#ffffff">
          <g
             id="g99"
             style="fill:#ffffff">
            <path
               d="m 1450.9,122 c -0.4,45.1 35.8,82.1 81,82.6 30.2,-0.1 57.9,-17.2 71.6,-44.2 l 0.3,-0.7 h -35.6 c -9.7,9.6 -22.6,15 -36.2,15.1 -29.1,-0.8 -52.3,-25.1 -51.5,-54.3 0.8,-28.1 23.4,-50.8 51.5,-51.5 13.4,0 26.4,5.4 35.8,14.9 l 36,0.1 -0.3,-0.7 c -13.7,-27 -41.4,-44 -71.6,-44.1 -45,0.6 -81.3,37.5 -81,82.8 z m 154.6,0.4 c 0.9,44.8 37.9,80.4 82.6,79.5 44.8,-0.9 80.4,-37.9 79.5,-82.6 -0.9,-44.2 -36.9,-79.5 -80.9,-79.6 -45.3,0.5 -81.6,37.5 -81.2,82.7 z m 29.3,0 c 0.6,-28.6 24.3,-51.3 52.9,-50.7 28.6,0.6 51.3,24.3 50.7,52.9 -0.6,28.2 -23.6,50.7 -51.8,50.7 -28.9,-0.3 -52,-24.1 -51.8,-52.9 z m 635.3,-82 v 162.8 h 82 v -31.3 h -51.3 v -32.6 h 51.3 V 108 h -51.3 V 71.7 h 51.3 V 40.4 Z m -1231.5,0 h -24.2 l -112,162.8 h 34.8 c 0,0 17.3,-25.3 17.5,-25.6 h 54.9 v 25.6 h 29.5 V 40.4 Z m -62.2,105.3 33.1,-48.3 v 51.2 h -35 c 0.6,-1 1.9,-2.9 1.9,-2.9 z M 1943.1,40.4 h -34.3 c 0,0 -47.8,110.5 -48.5,112.3 -0.8,-1.8 -48.7,-112.3 -48.7,-112.3 H 1777 v 162.9 h 30.6 v -81 c 0.5,-0.1 3,-0.7 3.4,-0.8 l 35.5,81.8 h 27.3 c 0,0 35.3,-81 35.4,-81.7 0.5,0.1 3,0.7 3.4,0.8 v 81 h 30.6 v -163 z m 225.2,0 H 2138 v 109.9 c 0.2,11.6 -9.2,21.3 -20.8,21.5 -11.5,0.2 -21.3,-9.1 -21.5,-20.8 0,-0.2 0,-0.4 0,-0.6 V 40.4 H 2065 v 109.9 c -0.5,28.7 22.4,52.2 51,52.7 28.7,0.5 52.2,-22.4 52.7,-51 0,-0.6 0,-1.1 0,-1.7 V 40.5 Z m 193.6,0.1 h -0.5 v 163.4 h 30.7 v -86 c 1.6,2.6 50.7,85.4 50.7,85.4 h 34.6 c 0,0 -34.7,-58.5 -35.2,-59.4 0.7,-0.2 2.1,-0.8 2.1,-0.8 27.4,-10.2 41.4,-40.9 31.1,-68.2 -7.6,-20.2 -26.6,-33.8 -48.1,-34.5 z m 65.6,31.3 c 11.6,0.4 20.8,9.9 20.7,21.7 0.2,11.6 -9,21.3 -20.7,21.6 h -35.3 V 71.9 l 33.3,-0.1 z M 1953.3,40.5 h -0.4 v 162.8 h 30.7 v -58 h 22 c 28.9,-0.6 52,-24.5 51.4,-53.4 -0.5,-28.2 -23.2,-50.9 -51.4,-51.4 z m 52.2,31.3 c 11.6,0.2 21,9.8 20.8,21.6 -0.2,11.3 -9.4,20.5 -20.8,20.7 h -22 V 71.8 Z m 255.4,-31.3 h -83.4 v 31.2 h 26.6 v 131.6 h 30.7 V 71.8 h 26.7 V 40.5 Z m -859.8,0 c 0,0 -32.7,63.6 -33.4,65.2 -0.8,-1.5 -33.4,-65.2 -33.4,-65.2 h -32.5 l 50.5,100 -0.1,62.8 h 30.8 l 0.1,-62.9 c 0.1,0 50.5,-99.9 50.5,-99.9 z m -107.7,0 h -30.2 v 162.8 h 72.3 V 172 h -41.6 V 40.5 Z m -40.1,0 h -28.8 v 162.8 h 29.1 V 40.5 Z m -38.6,0 h -34.3 c 0,0 -47.8,110.4 -48.5,112.2 L 1083.2,40.5 h -34.6 v 162.8 h 30.6 v -81 c 0.5,-0.1 3,-0.7 3.4,-0.8 0.3,0.7 35.5,81.7 35.5,81.7 h 27.3 l 35.5,-81.7 c 0.5,0.1 3,0.7 3.4,0.8 v 81 h 30.6 V 40.5 Z m -276.1,0 h -83.9 v 162.8 h 31.2 V 139.2 H 939 V 108 H 885.9 V 70.5 H 939 v -30 z"
               id="path98"
               style="fill:#ffffff" />
          </g>
        </g>
      </g>
    </g>
  </g>
</svg>
