<svg xmlns="http://www.w3.org/2000/svg" xmlns:xlink="http://www.w3.org/1999/xlink" width="1000" height="350">
    <defs>
        <linearGradient id="a">
            <stop style="stop-color:#7c1315;stop-opacity:1" offset="0"/>
            <stop style="stop-color:#e81c24;stop-opacity:1" offset="1"/>
        </linearGradient>
        <linearGradient xlink:href="#a" id="d" x1="1877.583" y1="914.461" x2="1734.319" y2="323.32" gradientUnits="userSpaceOnUse" gradientTransform="matrix(.24257 0 0 .249 -260.158 16.88)"/>
        <linearGradient id="b">
            <stop style="stop-color:#e5e5e5;stop-opacity:1" offset="0"/>
            <stop style="stop-color:#fff;stop-opacity:1" offset="1"/>
        </linearGradient>
        <linearGradient id="c">
            <stop style="stop-color:#e5e5e5;stop-opacity:1" offset="0"/>
            <stop style="stop-color:#fff;stop-opacity:1" offset="1"/>
        </linearGradient>
    </defs>
    <rect style="fill:url(#d);fill-opacity:1;stroke:none;stroke-width:.24576101" width="228.023" height="234.07" x="56.013" y="59.93" ry="0"/>
    <path style="fill:#fff;fill-opacity:1;stroke:none;stroke-width:.24576101" d="M105.51 237.741v-14.514l2.423-.25c11.647-1.198 17.217-3.78 24.684-11.445 8.708-8.94 14.54-20.144 24.197-46.49 6.39-17.432 11.687-28.016 19.985-39.933 7.243-10.4 18.722-18.829 31.575-23.184 6.332-2.146 14.947-3.72 20.361-3.72h2.078V127.263l-2.423.217c-6.423.576-11.629 2.211-16.655 5.232-6.685 4.019-14.897 14.335-19.515 24.517-1.602 3.534-2.486 3.261 10.588 3.261h11.49v29.477l-17.625.095-17.624.096-1.938 4.398c-4.97 11.274-10.766 21.89-16.445 30.12-10.913 15.813-25.482 24.41-45.822 27.041-2.27.294-5.3.535-6.732.537l-2.603.003v-14.514z"/>
    <g aria-label="ADOBE FLASH PLAYER" style="font-style:normal;font-weight:400;font-size:40px;line-height:1.25;font-family:sans-serif;letter-spacing:0;word-spacing:0;fill:#333;fill-opacity:1;stroke:none">
        <path style="font-size:85.33333588px;fill:#ececec" d="m400.229 29.719-23.854 62.48h9.307c1.888-5.32 3.778-10.64 5.668-15.959h27.76l5.665 15.96h9.182l-23.86-62.608h-9.82zm16.109 39.123h-22.3l11.128-30.182 11.172 30.182zM442.51 29.791v62.408c7.698-.097 15.407.216 23.098-.2 7.902-.595 16.297-2.582 22.066-8.378 5.736-5.802 7.47-14.295 7.52-22.189.09-7.973-1.365-16.587-6.922-22.67-5.472-5.99-13.782-8.181-21.598-8.885-7.476-.558-14.984-.169-22.474-.285-.474.125-1.56-.256-1.69.199zm18.78 7.117c8.41-.195 18.453 2.244 22.155 10.675 2.759 6.131 2.87 13.125 2.013 19.69-.762 5.668-3.544 11.444-8.722 14.284-7.156 4.082-15.697 3.242-23.649 3.328-1.693.439-2.032-.477-1.763-2V36.908h9.965zM532.809 28.477c-7.423.034-14.95 2.866-19.968 8.453-6.148 6.486-8.385 15.697-8.246 24.43-.02 8.672 2.415 17.772 8.665 24.061 5.25 5.566 13.025 8.143 20.567 7.985 7.414.08 15.008-2.548 20.138-8.037 6.209-6.328 8.64-15.418 8.607-24.096.124-8.662-2.096-17.783-8.152-24.244-4.945-5.587-12.396-8.475-19.774-8.546a35.78 35.78 0 0 0-1.837-.006zm.816 7.222c5.58-.135 11.174 2.36 14.465 6.922 4.958 6.521 5.703 15.225 4.956 23.151-.656 6.85-3.603 13.947-9.564 17.763-5.332 3.27-12.333 3.453-18.003.95-6.146-2.873-9.792-9.356-10.934-15.841-1.192-7.132-.993-14.743 1.848-21.48 2.369-5.637 7.503-10.342 13.717-11.182 1.16-.196 2.339-.272 3.515-.283zM575.342 29.791v62.408c8.495-.065 16.996.131 25.487-.1 6.177-.346 12.883-2.499 16.435-7.91 2.974-4.639 3.284-10.694 1.595-15.851-1.712-4.993-6.238-8.688-11.324-9.858 4.177-.732 7.9-3.8 9.017-7.951 1.53-5.409.866-11.993-3.47-15.969-4.757-4.413-11.639-5.097-17.841-4.968h-19.9zm21.072 7.117c3.914.002 8.645.655 10.856 4.324 1.626 3.088 1.61 7.148-.252 10.133-2.608 3.685-7.646 3.933-11.804 3.895h-11.056V36.908h12.256zm1.043 25.582c4.219-.015 9.218.813 11.611 4.723 1.933 3.477 1.95 7.974.635 11.624-1.41 3.877-5.642 5.645-9.488 5.913-5.343.302-10.706.054-16.057.135V62.49h13.299zM633.842 29.791v62.408h40.482v-7.482h-31.666V62.574h29.625v-7.482h-29.625V37.074h30.916v-7.482h-39.732zM384.176 136.459v62.406h8.814v-29.707h24.668v-7.482H392.99V143.74h27.334v-7.48h-36.148zM433.342 136.459v62.406h39.107v-7.48h-30.29V136.26h-8.817zM498.896 136.387l-23.853 62.478h9.307l5.666-15.957h27.76l5.667 15.957h9.182c-7.955-20.868-15.908-41.737-23.861-62.605h-9.819zm16.108 39.123h-22.3l11.13-30.184 11.17 30.184zM559.197 135.152c-6.498.13-13.54 2.155-17.594 7.57-3.522 4.736-3.987 11.3-2.11 16.782 1.737 4.933 6.582 7.823 11.329 9.322 5.966 2.137 12.688 1.893 18.24 5.09 3.266 1.777 4.73 5.68 4.319 9.25-.135 3.987-3.193 7.321-6.895 8.491-6.988 2.275-14.696 1.078-21.401-1.63-2.206-.888-4.337-1.95-6.41-3.115v9.145c9.688 3.626 20.48 5.418 30.64 2.734 5.464-1.38 10.628-5.161 12.32-10.72 1.608-5.327 1.408-11.508-1.584-16.325-3.565-5.516-10.207-7.795-16.363-8.938-4.619-1.115-9.628-1.403-13.694-4.042-3.088-2.365-3.28-7.004-1.932-10.333 1.928-4.298 6.964-5.757 11.306-6 6.808-.5 13.45 1.67 19.497 4.59v-8.67c-6.324-2.116-12.977-3.386-19.668-3.2zM595.342 136.459v62.406h8.816V169.24h30.184v29.625h8.816V136.26h-8.816v25.5h-30.184v-25.5h-8.816zM686.676 136.459v62.406h8.814v-25c6.262-.197 12.657.595 18.8-.959 5.3-1.217 10.134-4.989 11.796-10.28 1.61-5.046 1.594-10.687-.205-15.683-1.944-5.349-7.117-8.907-12.57-9.95-5.862-1.237-11.895-.555-17.836-.733h-8.8zm19.195 7.115c4.234-.13 8.962 1.557 10.867 5.576 1.688 3.746 1.689 8.294-.1 12.007-2.006 3.997-6.751 5.543-10.967 5.394h-10.18v-22.977h10.38zM738.176 136.459v62.406h39.107v-7.48H746.99V136.26h-8.814zM803.729 136.387l-23.854 62.478h9.307c1.888-5.319 3.778-10.638 5.668-15.957h27.76l5.665 15.957h9.182l-23.86-62.605h-9.82zm16.109 39.123h-22.3l11.128-30.184 11.172 30.184zM830.834 136.57l21.967 32.534v29.761h8.857v-29.761c7.393-10.948 14.784-21.897 22.178-32.844h-9.527l-17.018 25.422c-5.715-8.474-11.428-16.95-17.145-25.422h-9.523l.112.165zM891.51 136.459v62.406h40.48v-7.48h-31.666V169.24h29.625v-7.48h-29.625v-18.02h30.916v-7.48h-39.73zM945.51 136.459v62.406h8.814v-26.29c4.254.153 8.563-.358 12.777.362 3.261.506 5.907 2.934 7.566 5.723 3.116 5.186 5.505 10.772 8.302 16.132.748 1.31 1.289 2.952 2.156 4.073h9.365c-3.608-7.016-6.948-14.177-10.734-21.095-1.99-3.253-4.33-6.653-7.932-8.25 4.725-1.352 8.561-5.301 9.658-10.106 1.1-4.894.77-10.298-1.583-14.789-2.663-5.043-8.404-7.426-13.818-8.037-5.832-.642-11.718-.194-17.572-.328h-7zm19.195 7.115c4.035-.062 8.637 1.065 10.748 4.858 1.77 3.417 1.749 7.699.373 11.177-1.539 3.721-5.604 5.413-9.361 5.583-4.044.156-8.095.025-12.14.068v-21.686h10.38z" transform="translate(-42 66)"/>
    </g>
</svg>
