<?xml version="1.0" encoding="UTF-8" standalone="no"?>
<!-- Created by ERK -->

<svg
   width="1000"
   height="350"
   version="1.1"
   id="svg7"
   sodipodi:docname="flash.svg"
   inkscape:version="1.4 (86a8ad7, 2024-10-11)"
   xmlns:inkscape="http://www.inkscape.org/namespaces/inkscape"
   xmlns:sodipodi="http://sodipodi.sourceforge.net/DTD/sodipodi-0.dtd"
   xmlns:xlink="http://www.w3.org/1999/xlink"
   xmlns="http://www.w3.org/2000/svg"
   xmlns:svg="http://www.w3.org/2000/svg">
  <sodipodi:namedview
     id="namedview7"
     pagecolor="#ffffff"
     bordercolor="#000000"
     borderopacity="0.25"
     inkscape:showpageshadow="2"
     inkscape:pageopacity="0.0"
     inkscape:pagecheckerboard="true"
     inkscape:deskcolor="#d1d1d1"
     inkscape:zoom="1.847"
     inkscape:cx="503.51922"
     inkscape:cy="216.2967"
     inkscape:window-width="3840"
     inkscape:window-height="2066"
     inkscape:window-x="-11"
     inkscape:window-y="-11"
     inkscape:window-maximized="1"
     inkscape:current-layer="svg7" />
  <defs
     id="defs6">
    <linearGradient
       id="a">
      <stop
         style="stop-color:#7c1315;stop-opacity:1"
         offset="0"
         id="stop1" />
      <stop
         style="stop-color:#e81c24;stop-opacity:1"
         offset="1"
         id="stop2" />
    </linearGradient>
    <linearGradient
       xlink:href="#a"
       id="d"
       x1="1877.583"
       y1="914.461"
       x2="1734.319"
       y2="323.32"
       gradientUnits="userSpaceOnUse"
       gradientTransform="matrix(.24257 0 0 .249 -260.158 16.88)" />
    <linearGradient
       id="b">
      <stop
         style="stop-color:#e5e5e5;stop-opacity:1"
         offset="0"
         id="stop3" />
      <stop
         style="stop-color:#fff;stop-opacity:1"
         offset="1"
         id="stop4" />
    </linearGradient>
    <linearGradient
       id="c">
      <stop
         style="stop-color:#e5e5e5;stop-opacity:1"
         offset="0"
         id="stop5" />
      <stop
         style="stop-color:#fff;stop-opacity:1"
         offset="1"
         id="stop6" />
    </linearGradient>
  </defs>
  <rect
     style="fill:url(#d);fill-opacity:1;stroke:none;stroke-width:.24576101"
     width="228.023"
     height="234.07"
     x="56.013"
     y="59.93"
     ry="0"
     id="rect6"
     inkscape:label="Square" />
  <path
     style="fill:#fff;fill-opacity:1;stroke:none;stroke-width:.24576101"
     d="M105.51 237.741v-14.514l2.423-.25c11.647-1.198 17.217-3.78 24.684-11.445 8.708-8.94 14.54-20.144 24.197-46.49 6.39-17.432 11.687-28.016 19.985-39.933 7.243-10.4 18.722-18.829 31.575-23.184 6.332-2.146 14.947-3.72 20.361-3.72h2.078V127.263l-2.423.217c-6.423.576-11.629 2.211-16.655 5.232-6.685 4.019-14.897 14.335-19.515 24.517-1.602 3.534-2.486 3.261 10.588 3.261h11.49v29.477l-17.625.095-17.624.096-1.938 4.398c-4.97 11.274-10.766 21.89-16.445 30.12-10.913 15.813-25.482 24.41-45.822 27.041-2.27.294-5.3.535-6.732.537l-2.603.003v-14.514z"
     id="path6"
     inkscape:label="f" />
  <path
     style="font-style:normal;font-weight:400;font-size:85.3333px;line-height:1.25;font-family:sans-serif;letter-spacing:0;word-spacing:0;fill:#333333;fill-opacity:1;stroke:none"
     d="m 358.229,95.719 -23.854,62.48 h 9.307 c 1.888,-5.32 3.778,-10.64 5.668,-15.959 h 27.76 l 5.665,15.96 h 9.182 l -23.86,-62.608 h -9.82 z m 16.109,39.123 h -22.3 L 363.166,104.66 Z M 400.51,95.791 v 62.408 c 7.698,-0.097 15.407,0.216 23.098,-0.2 7.902,-0.595 16.297,-2.582 22.066,-8.378 5.736,-5.802 7.47,-14.295 7.52,-22.189 0.09,-7.973 -1.365,-16.587 -6.922,-22.67 -5.472,-5.99 -13.782,-8.181 -21.598,-8.885 -7.476,-0.558 -14.984,-0.169 -22.474,-0.285 -0.474,0.125 -1.56,-0.256 -1.69,0.199 z m 18.78,7.117 c 8.41,-0.195 18.453,2.244 22.155,10.675 2.759,6.131 2.87,13.125 2.013,19.69 -0.762,5.668 -3.544,11.444 -8.722,14.284 -7.156,4.082 -15.697,3.242 -23.649,3.328 -1.693,0.439 -2.032,-0.477 -1.763,-2 v -45.977 h 9.965 z m 71.519,-8.431 c -7.423,0.034 -14.95,2.866 -19.968,8.453 -6.148,6.486 -8.385,15.697 -8.246,24.43 -0.02,8.672 2.415,17.772 8.665,24.061 5.25,5.566 13.025,8.143 20.567,7.985 7.414,0.08 15.008,-2.548 20.138,-8.037 6.209,-6.328 8.64,-15.418 8.607,-24.096 0.124,-8.662 -2.096,-17.783 -8.152,-24.244 -4.945,-5.587 -12.396,-8.475 -19.774,-8.546 a 35.78,35.78 0 0 0 -1.837,-0.006 z m 0.816,7.222 c 5.58,-0.135 11.174,2.36 14.465,6.922 4.958,6.521 5.703,15.225 4.956,23.151 -0.656,6.85 -3.603,13.947 -9.564,17.763 -5.332,3.27 -12.333,3.453 -18.003,0.95 -6.146,-2.873 -9.792,-9.356 -10.934,-15.841 -1.192,-7.132 -0.993,-14.743 1.848,-21.48 2.369,-5.637 7.503,-10.342 13.717,-11.182 1.16,-0.196 2.339,-0.272 3.515,-0.283 z m 41.717,-5.908 v 62.408 c 8.495,-0.065 16.996,0.131 25.487,-0.1 6.177,-0.346 12.883,-2.499 16.435,-7.91 2.974,-4.639 3.284,-10.694 1.595,-15.851 -1.712,-4.993 -6.238,-8.688 -11.324,-9.858 4.177,-0.732 7.9,-3.8 9.017,-7.951 1.53,-5.409 0.866,-11.993 -3.47,-15.969 -4.757,-4.413 -11.639,-5.097 -17.841,-4.968 h -19.9 z m 21.072,7.117 c 3.914,0.002 8.645,0.655 10.856,4.324 1.626,3.088 1.61,7.148 -0.252,10.133 -2.608,3.685 -7.646,3.933 -11.804,3.895 h -11.056 v -18.352 z m 1.043,25.582 c 4.219,-0.015 9.218,0.813 11.611,4.723 1.933,3.477 1.95,7.974 0.635,11.624 -1.41,3.877 -5.642,5.645 -9.488,5.913 -5.343,0.302 -10.706,0.054 -16.057,0.135 V 128.49 Z m 36.385,-32.699 v 62.408 h 40.482 v -7.482 h -31.666 v -22.143 h 29.625 v -7.482 h -29.625 v -18.018 h 30.916 V 95.592 H 591.842 Z M 342.176,202.459 v 62.406 h 8.814 v -29.707 h 24.668 v -7.482 H 350.99 V 209.74 h 27.334 v -7.48 h -36.148 z m 49.166,0 v 62.406 h 39.107 v -7.48 h -30.29 V 202.26 h -8.817 z m 65.554,-0.072 -23.853,62.478 h 9.307 l 5.666,-15.957 h 27.76 l 5.667,15.957 h 9.182 C 482.67,243.997 474.717,223.128 466.764,202.26 h -9.819 z m 16.108,39.123 h -22.3 l 11.13,-30.184 z m 44.193,-40.358 c -6.498,0.13 -13.54,2.155 -17.594,7.57 -3.522,4.736 -3.987,11.3 -2.11,16.782 1.737,4.933 6.582,7.823 11.329,9.322 5.966,2.137 12.688,1.893 18.24,5.09 3.266,1.777 4.73,5.68 4.319,9.25 -0.135,3.987 -3.193,7.321 -6.895,8.491 -6.988,2.275 -14.696,1.078 -21.401,-1.63 -2.206,-0.888 -4.337,-1.95 -6.41,-3.115 v 9.145 c 9.688,3.626 20.48,5.418 30.64,2.734 5.464,-1.38 10.628,-5.161 12.32,-10.72 1.608,-5.327 1.408,-11.508 -1.584,-16.325 -3.565,-5.516 -10.207,-7.795 -16.363,-8.938 -4.619,-1.115 -9.628,-1.403 -13.694,-4.042 -3.088,-2.365 -3.28,-7.004 -1.932,-10.333 1.928,-4.298 6.964,-5.757 11.306,-6 6.808,-0.5 13.45,1.67 19.497,4.59 v -8.67 c -6.324,-2.116 -12.977,-3.386 -19.668,-3.2 z m 36.145,1.307 v 62.406 h 8.816 V 235.24 h 30.184 v 29.625 h 8.816 V 202.26 h -8.816 v 25.5 h -30.184 v -25.5 h -8.816 z m 91.334,0 v 62.406 h 8.814 v -25 c 6.262,-0.197 12.657,0.595 18.8,-0.959 5.3,-1.217 10.134,-4.989 11.796,-10.28 1.61,-5.046 1.594,-10.687 -0.205,-15.683 -1.944,-5.349 -7.117,-8.907 -12.57,-9.95 -5.862,-1.237 -11.895,-0.555 -17.836,-0.733 h -8.8 z m 19.195,7.115 c 4.234,-0.13 8.962,1.557 10.867,5.576 1.688,3.746 1.689,8.294 -0.1,12.007 -2.006,3.997 -6.751,5.543 -10.967,5.394 h -10.18 v -22.977 z m 32.305,-7.115 v 62.406 h 39.107 v -7.48 H 704.99 V 202.26 h -8.814 z m 65.553,-0.072 -23.854,62.478 h 9.307 c 1.888,-5.319 3.778,-10.638 5.668,-15.957 h 27.76 l 5.665,15.957 h 9.182 l -23.86,-62.605 h -9.82 z m 16.109,39.123 h -22.3 l 11.128,-30.184 z m 10.996,-38.94 21.967,32.534 v 29.761 h 8.857 v -29.761 c 7.393,-10.948 14.784,-21.897 22.178,-32.844 h -9.527 l -17.018,25.422 c -5.715,-8.474 -11.428,-16.95 -17.145,-25.422 h -9.523 l 0.112,0.165 z m 60.676,-0.111 v 62.406 h 40.48 v -7.48 H 858.324 V 235.24 h 29.625 v -7.48 h -29.625 v -18.02 h 30.916 v -7.48 h -39.73 z m 54,0 v 62.406 h 8.814 v -26.29 c 4.254,0.153 8.563,-0.358 12.777,0.362 3.261,0.506 5.907,2.934 7.566,5.723 3.116,5.186 5.505,10.772 8.302,16.132 0.748,1.31 1.289,2.952 2.156,4.073 h 9.365 c -3.608,-7.016 -6.948,-14.177 -10.734,-21.095 -1.99,-3.253 -4.33,-6.653 -7.932,-8.25 4.725,-1.352 8.561,-5.301 9.658,-10.106 1.1,-4.894 0.77,-10.298 -1.583,-14.789 -2.663,-5.043 -8.404,-7.426 -13.818,-8.037 -5.832,-0.642 -11.718,-0.194 -17.572,-0.328 h -7 z m 19.195,7.115 c 4.035,-0.062 8.637,1.065 10.748,4.858 1.77,3.417 1.749,7.699 0.373,11.177 -1.539,3.721 -5.604,5.413 -9.361,5.583 -4.044,0.156 -8.095,0.025 -12.14,0.068 v -21.686 z"
     id="path7"
     inkscape:label="AdobeFlashPlayer" />
</svg>
