<?xml version="1.0" encoding="UTF-8" standalone="no"?>
<!-- Created with Inkscape (http://www.inkscape.org/) -->

<svg
   xmlns:osb="http://www.openswatchbook.org/uri/2009/osb"
   xmlns:dc="http://purl.org/dc/elements/1.1/"
   xmlns:cc="http://creativecommons.org/ns#"
   xmlns:rdf="http://www.w3.org/1999/02/22-rdf-syntax-ns#"
   xmlns:svg="http://www.w3.org/2000/svg"
   xmlns="http://www.w3.org/2000/svg"
   xmlns:xlink="http://www.w3.org/1999/xlink"
   xmlns:sodipodi="http://sodipodi.sourceforge.net/DTD/sodipodi-0.dtd"
   xmlns:inkscape="http://www.inkscape.org/namespaces/inkscape"
   id="svg2"
   version="1.1"
   inkscape:version="0.92.4 (5da689c313, 2019-01-14)"
   width="1000"
   height="350"
   sodipodi:docname="flash.svg">
  <metadata
     id="metadata8">
    <rdf:RDF>
      <cc:Work
         rdf:about="">
        <dc:format>image/svg+xml</dc:format>
        <dc:type
           rdf:resource="http://purl.org/dc/dcmitype/StillImage" />
        <dc:title></dc:title>
      </cc:Work>
    </rdf:RDF>
  </metadata>
  <defs
     id="defs6">
    <linearGradient
       id="linearGradient5376">
      <stop
         id="stop5384"
         offset="0"
         style="stop-color:#e7e7e7;stop-opacity:1;" />
      <stop
         style="stop-color:#ffffff;stop-opacity:1;"
         offset="1"
         id="stop5380" />
    </linearGradient>
    <linearGradient
       id="linearGradient5360">
      <stop
         style="stop-color:#ffffff;stop-opacity:1;"
         offset="0"
         id="stop5362" />
      <stop
         style="stop-color:#e7e7e7;stop-opacity:1;"
         offset="1"
         id="stop5364" />
    </linearGradient>
    <linearGradient
       id="linearGradient5352">
      <stop
         style="stop-color:#4e111d;stop-opacity:1;"
         offset="0"
         id="stop5354" />
      <stop
         style="stop-color:#8f1a1e;stop-opacity:1;"
         offset="1"
         id="stop5356" />
    </linearGradient>
    <linearGradient
       id="linearGradient5328">
      <stop
         style="stop-color:#7c1315;stop-opacity:1;"
         offset="0"
         id="stop5330" />
      <stop
         style="stop-color:#e81c24;stop-opacity:1;"
         offset="1"
         id="stop5332" />
    </linearGradient>
    <linearGradient
       id="linearGradient5320">
      <stop
         style="stop-color:#e5e5e5;stop-opacity:1;"
         offset="0"
         id="stop5322" />
      <stop
         style="stop-color:#ffffff;stop-opacity:1;"
         offset="1"
         id="stop5324" />
    </linearGradient>
    <linearGradient
       id="linearGradient5314"
       osb:paint="solid">
      <stop
         style="stop-color:#ededed;stop-opacity:1;"
         offset="0"
         id="stop5316" />
    </linearGradient>
    <inkscape:perspective
       sodipodi:type="inkscape:persp3d"
       inkscape:vp_x="14.801303 : 428.87427 : 1"
       inkscape:vp_y="0 : 1000 : 0"
       inkscape:vp_z="1106.4104 : 523.60261 : 1"
       inkscape:persp3d-origin="494 : 329.33333 : 1"
       id="perspective3830" />
    <linearGradient
       id="linearGradient3822">
      <stop
         style="stop-color:#ffffff;stop-opacity:1;"
         offset="0"
         id="stop3824" />
      <stop
         style="stop-color:#e7e7e7;stop-opacity:1;"
         offset="1"
         id="stop3826" />
    </linearGradient>
    <linearGradient
       inkscape:collect="always"
       xlink:href="#linearGradient5328"
       id="linearGradient5334"
       x1="1877.5829"
       y1="914.46088"
       x2="1734.3185"
       y2="323.31961"
       gradientUnits="userSpaceOnUse"
       gradientTransform="matrix(0.24257183,0,0,0.2489921,-260.15767,16.880049)" />
    <linearGradient
       inkscape:collect="always"
       xlink:href="#linearGradient5320-5"
       id="linearGradient5326-4"
       x1="-95.114098"
       y1="101.63474"
       x2="421.45139"
       y2="101.63474"
       gradientUnits="userSpaceOnUse"
       gradientTransform="translate(345.06811,407.2935)" />
    <linearGradient
       id="linearGradient5320-5">
      <stop
         style="stop-color:#e5e5e5;stop-opacity:1;"
         offset="0"
         id="stop5322-8" />
      <stop
         style="stop-color:#ffffff;stop-opacity:1;"
         offset="1"
         id="stop5324-8" />
    </linearGradient>
    <linearGradient
       inkscape:collect="always"
       xlink:href="#linearGradient5320-1"
       id="linearGradient5326-2"
       x1="-95.114098"
       y1="101.63474"
       x2="421.45139"
       y2="101.63474"
       gradientUnits="userSpaceOnUse"
       gradientTransform="translate(345.06811,407.2935)" />
    <linearGradient
       id="linearGradient5320-1">
      <stop
         style="stop-color:#e5e5e5;stop-opacity:1;"
         offset="0"
         id="stop5322-4" />
      <stop
         style="stop-color:#ffffff;stop-opacity:1;"
         offset="1"
         id="stop5324-9" />
    </linearGradient>
  </defs>
  <sodipodi:namedview
     pagecolor="#ffffff"
     bordercolor="#666666"
     borderopacity="1"
     objecttolerance="10"
     gridtolerance="10"
     guidetolerance="10"
     inkscape:pageopacity="0"
     inkscape:pageshadow="2"
     inkscape:window-width="984"
     inkscape:window-height="675"
     id="namedview4"
     showgrid="false"
     inkscape:snap-global="true"
     fit-margin-top="0"
     fit-margin-left="0"
     fit-margin-right="0"
     fit-margin-bottom="0"
     inkscape:zoom="0.5"
     inkscape:cx="313.96344"
     inkscape:cy="169.72604"
     inkscape:window-x="2"
     inkscape:window-y="0"
     inkscape:window-maximized="0"
     inkscape:current-layer="text4563" />
  <rect
     style="fill:url(#linearGradient5334);fill-opacity:1;stroke:none;stroke-width:0.24576101"
     id="rect3846-5"
     width="228.02313"
     height="234.07001"
     x="56.01342"
     y="59.929993"
     ry="0" />
  <path
     style="fill:#ffffff;fill-opacity:1;stroke:none;stroke-width:0.24576101"
     d="m 105.50915,237.74148 v -14.51442 l 2.42351,-0.24938 c 11.64722,-1.19845 17.21705,-3.78109 24.68385,-11.44552 8.70885,-8.93935 14.54071,-20.14391 24.19737,-46.48959 6.38982,-17.43296 11.68667,-28.01674 19.9853,-39.93322 7.24306,-10.40076 18.72135,-18.82891 31.57433,-23.18408 6.33287,-2.145856 14.94718,-3.719404 20.36176,-3.719404 h 2.07811 v 14.528034 14.52802 l -2.42351,0.2172 c -6.42273,0.57558 -11.62845,2.21098 -16.65458,5.2321 -6.68575,4.01868 -14.89733,14.33498 -19.51512,24.51703 -1.60242,3.53328 -2.48646,3.26101 10.58825,3.26101 h 11.48922 v 14.73816 14.73815 l -17.62426,0.0956 -17.62425,0.0956 -1.93834,4.39781 c -4.96907,11.2741 -10.7656,21.8911 -16.4446,30.12017 -10.91306,15.81336 -25.482,24.41105 -45.82205,27.04131 -2.27092,0.29367 -5.3003,0.53526 -6.73197,0.53688 l -2.60302,0.003 v -14.51442 z"
     id="path3820"
     inkscape:connector-curvature="0" />
  <g
     aria-label="ADOBE 
FLASH PLAYER"
     style="font-style:normal;font-weight:normal;font-size:40px;line-height:1.25;font-family:sans-serif;letter-spacing:0px;word-spacing:0px;fill:#333333;fill-opacity:1;stroke:none"
     id="text4563"
     transform="translate(-42,66)">
    <path
       style="font-size:85.33333588px;fill:#333333"
       d="m 400.22852,29.71875 c -7.95114,20.826837 -15.90258,41.653559 -23.85352,62.480469 3.10221,0 6.20443,0 9.30664,0 1.8888,-5.319849 3.77873,-10.639292 5.66797,-15.958985 9.25325,0 18.50651,0 27.75977,0 1.88858,5.319691 3.77784,10.639147 5.66601,15.958985 3.06055,0 6.12109,0 9.18164,0 -7.95444,-20.868639 -15.90653,-41.738174 -23.85937,-62.607422 -3.27344,0 -6.54688,0 -9.82032,0 z m 16.10937,39.123047 c -7.43359,0 -14.86719,0 -22.30078,0 3.70963,-10.060547 7.41927,-20.121094 11.12891,-30.181641 3.72395,10.060547 7.44791,20.121094 11.17187,30.181641 z"
       id="path4567"
       inkscape:connector-curvature="0" />
    <path
       style="font-size:85.33333588px;fill:#333333"
       d="m 442.50977,29.791016 c 0,20.802734 0,41.605468 0,62.408203 7.69799,-0.09769 15.40768,0.215665 23.09779,-0.199573 7.90205,-0.595919 16.29701,-2.582757 22.06627,-8.378552 5.73584,-5.802168 7.471,-14.294679 7.52071,-22.18905 0.0892,-7.972803 -1.36505,-16.586882 -6.92221,-22.670681 -5.47276,-5.989491 -13.78212,-8.180542 -21.59804,-8.883867 -7.47635,-0.558712 -14.98456,-0.169287 -22.47429,-0.285699 -0.47419,0.125446 -1.5593,-0.25592 -1.69023,0.199219 z m 18.77929,7.117187 c 8.41064,-0.194933 18.45407,2.244101 22.15554,10.675073 2.75927,6.130878 2.87027,13.12493 2.01323,19.689168 -0.7617,5.668666 -3.54337,11.444812 -8.72215,14.284514 -7.15573,4.081866 -15.69651,3.242048 -23.64857,3.327808 -1.69319,0.438896 -2.03222,-0.47638 -1.76289,-2 0,-15.325521 0,-30.651042 0,-45.976563 3.32161,0 6.64323,0 9.96484,0 z"
       id="path4569"
       inkscape:connector-curvature="0" />
    <path
       style="font-size:85.33333588px;fill:#333333"
       d="m 532.80859,28.476562 c -7.42297,0.03464 -14.94918,2.86691 -19.96748,8.453785 -6.14855,6.485349 -8.38479,15.696866 -8.2459,24.430576 -0.0193,8.670842 2.4149,17.771533 8.66432,24.060417 5.24996,5.565918 13.02552,8.143041 20.56741,7.984459 7.41395,0.0803 15.00816,-2.547823 20.13851,-8.037198 6.20822,-6.327896 8.6403,-15.417926 8.6061,-24.095532 0.12428,-8.66216 -2.0958,-17.782576 -8.15186,-24.244198 -4.94437,-5.586889 -12.39543,-8.475181 -19.7733,-8.545886 -0.61238,-0.01994 -1.22527,-0.01793 -1.8378,-0.0064 z m 0.81641,7.222657 c 5.58046,-0.134879 11.17436,2.359402 14.46518,6.922112 4.95798,6.520685 5.70278,15.224292 4.95537,23.150834 -0.65582,6.849077 -3.60206,13.946805 -9.56313,17.762991 -5.33219,3.269865 -12.33379,3.453282 -18.0039,0.949219 -6.1453,-2.872124 -9.79102,-9.355601 -10.93359,-15.840684 -1.19216,-7.131374 -0.99338,-14.742885 1.84765,-21.479629 2.36934,-5.63708 7.5037,-10.342471 13.71712,-11.182272 1.16056,-0.195595 2.33921,-0.271939 3.5153,-0.282571 z"
       id="path4571"
       inkscape:connector-curvature="0" />
    <path
       style="font-size:85.33333588px;fill:#333333"
       d="m 575.3418,29.791016 c 0,20.802734 0,41.605468 0,62.408203 8.49477,-0.06496 16.99591,0.131073 25.4868,-0.09981 6.1776,-0.346779 12.8836,-2.499312 16.43503,-7.910715 2.9741,-4.638427 3.28461,-10.693756 1.59496,-15.850875 -1.71139,-4.992625 -6.23795,-8.687469 -11.32343,-9.857346 4.17699,-0.732218 7.89924,-3.801015 9.01655,-7.951867 1.53072,-5.408391 0.86588,-11.992172 -3.46887,-15.968213 -4.75787,-4.413803 -11.63969,-5.097043 -17.84182,-4.968592 -6.63308,0 -13.26615,0 -19.89922,0 z m 21.07226,7.117187 c 3.91438,0.002 8.64464,0.655173 10.85547,4.324219 1.62623,3.087658 1.61084,7.148029 -0.25195,10.132812 -2.6075,3.684551 -7.64597,3.933144 -11.80352,3.894532 -3.68528,0 -7.37057,0 -11.05586,0 0,-6.117188 0,-12.234375 0,-18.351563 4.08529,0 8.17058,0 12.25586,0 z m 1.04297,25.582031 c 4.2189,-0.01505 9.21794,0.813083 11.61133,4.722657 1.93305,3.477382 1.94917,7.974532 0.63457,11.6243 -1.41084,3.877098 -5.64239,5.644713 -9.48758,5.91242 -5.34337,0.302771 -10.70622,0.05444 -16.05715,0.135155 0,-7.464844 0,-14.929688 0,-22.394532 4.43295,0 8.86589,0 13.29883,0 z"
       id="path4573"
       inkscape:connector-curvature="0" />
    <path
       style="font-size:85.33333588px;fill:#333333"
       d="m 633.8418,29.791016 c 0,20.802734 0,41.605468 0,62.408203 13.49414,0 26.98828,0 40.48242,0 0,-2.494141 0,-4.988281 0,-7.482422 -10.55534,0 -21.11068,0 -31.66602,0 0,-7.38086 0,-14.761719 0,-22.142578 9.875,0 19.75,0 29.625,0 0,-2.494141 0,-4.988281 0,-7.482422 -9.875,0 -19.75,0 -29.625,0 0,-6.00586 0,-12.011719 0,-18.017578 10.30534,0 20.61068,0 30.91602,0 0,-2.494141 0,-4.988281 0,-7.482422 -13.24414,0 -26.48828,0 -39.73242,0 z"
       id="path4575"
       inkscape:connector-curvature="0" />
    <path
       style="font-size:85.33333588px;fill:#333333"
       d="m 384.17578,136.45898 c 0,20.80209 0,41.60417 0,62.40625 2.93815,0 5.8763,0 8.81445,0 0,-9.90234 0,-19.80468 0,-29.70703 8.22266,0 16.44532,0 24.66797,0 0,-2.49414 0,-4.98828 0,-7.48242 -8.22265,0 -16.44531,0 -24.66797,0 0,-5.97851 0,-11.95703 0,-17.93555 9.11133,0 18.22266,0 27.33399,0 0,-2.49349 0,-4.98697 0,-7.48046 -12.04948,0 -24.09896,0 -36.14844,0 z"
       id="path4577"
       inkscape:connector-curvature="0" />
    <path
       style="font-size:85.33333588px;fill:#333333"
       d="m 433.3418,136.45898 c 0,20.80209 0,41.60417 0,62.40625 13.0358,0 26.07161,0 39.10742,0 0,-2.49349 0,-4.98697 0,-7.48046 -10.09701,0 -20.19401,0 -30.29102,0 0,-18.375 0,-36.75 0,-55.125 -2.9388,0 -5.8776,0 -8.8164,0 z"
       id="path4579"
       inkscape:connector-curvature="0" />
    <path
       style="font-size:85.33333588px;fill:#333333"
       d="m 498.89648,136.38672 c -7.95113,20.82619 -15.90257,41.65225 -23.85351,62.47851 3.10221,0 6.20443,0 9.30664,0 1.88816,-5.31919 3.77743,-10.63799 5.66601,-15.95703 9.25326,0 18.50652,0 27.75977,0 1.88923,5.31905 3.77918,10.63783 5.66797,15.95703 3.06055,0 6.12109,0 9.18164,0 -7.95507,-20.86799 -15.90785,-41.73686 -23.86133,-62.60546 -3.27278,0 -6.54557,0 -9.81836,0 z m 16.10743,39.12305 c -7.4336,0 -14.86719,0 -22.30079,0 3.71029,-10.0612 7.42058,-20.1224 11.13086,-30.1836 3.72331,10.0612 7.44662,20.1224 11.16993,30.1836 z"
       id="path4581"
       inkscape:connector-curvature="0" />
    <path
       style="font-size:85.33333588px;fill:#333333"
       d="m 559.19727,135.15234 c -6.49829,0.12897 -13.53998,2.15493 -17.59394,7.57014 -3.52221,4.73599 -3.98732,11.3004 -2.11114,16.78143 1.73775,4.93307 6.58269,7.82344 11.32964,9.32208 5.96633,2.13705 12.68822,1.89311 18.24067,5.09003 3.26531,1.77682 4.72953,5.67933 4.31815,9.25047 -0.13459,3.98653 -3.19245,7.32068 -6.89492,8.4906 -6.98756,2.27459 -14.69608,1.07766 -21.4009,-1.63029 -2.20599,-0.88749 -4.33688,-1.95056 -6.40905,-3.11469 0,3.04818 0,6.09635 0,9.14453 9.68744,3.62592 20.47907,5.41802 30.63854,2.73395 5.46426,-1.37874 10.62827,-5.16097 12.32012,-10.72002 1.60877,-5.32631 1.40839,-11.50757 -1.58366,-16.32448 -3.56509,-5.51598 -10.2065,-7.79483 -16.36253,-8.93786 -4.6191,-1.11514 -9.62842,-1.40293 -13.69411,-4.04261 -3.08805,-2.36444 -3.28071,-7.00323 -1.93208,-10.33299 1.92803,-4.29763 6.96402,-5.7564 11.30586,-5.99946 6.80778,-0.50036 13.44923,1.66899 19.49731,4.59027 0,-2.88998 0,-5.77995 0,-8.66992 -6.32448,-2.11672 -12.97725,-3.38694 -19.66796,-3.20118 z"
       id="path4583"
       inkscape:connector-curvature="0" />
    <path
       style="font-size:85.33333588px;fill:#333333"
       d="m 595.3418,136.45898 c 0,20.80209 0,41.60417 0,62.40625 2.9388,0 5.8776,0 8.8164,0 0,-9.875 0,-19.75 0,-29.625 10.0612,0 20.1224,0 30.1836,0 0,9.875 0,19.75 0,29.625 2.9388,0 5.8776,0 8.8164,0 0,-20.86849 0,-41.73697 0,-62.60546 -2.9388,0 -5.8776,0 -8.8164,0 0,8.5 0,17 0,25.5 -10.0612,0 -20.1224,0 -30.1836,0 0,-8.5 0,-17 0,-25.5 -2.9388,0 -5.8776,0 -8.8164,0 z"
       id="path4585"
       inkscape:connector-curvature="0" />
    <path
       style="font-size:85.33333588px;fill:#333333"
       d="m 686.67578,136.45898 c 0,20.80209 0,41.60417 0,62.40625 2.93815,0 5.8763,0 8.81445,0 0,-8.33333 0,-16.66666 0,-25 6.26214,-0.19723 12.65706,0.59488 18.80035,-0.95896 5.29978,-1.21721 10.13295,-4.98883 11.79583,-10.27997 1.6089,-5.04673 1.59331,-10.68758 -0.20555,-15.68294 -1.94347,-5.34897 -7.11672,-8.90748 -12.57075,-9.95042 -5.86146,-1.23714 -11.89455,-0.55447 -17.83511,-0.73317 -2.93307,0 -5.86615,0 -8.79922,0 z m 19.19531,7.11524 c 4.23383,-0.12936 8.96159,1.55707 10.86719,5.57617 1.68727,3.74609 1.68857,8.29377 -0.10055,12.00624 -2.00563,3.99764 -6.75112,5.54347 -10.96664,5.39415 -3.39362,0 -6.78724,0 -10.18086,0 0,-7.65885 0,-15.31771 0,-22.97656 3.46029,0 6.92058,0 10.38086,0 z"
       id="path4587"
       inkscape:connector-curvature="0" />
    <path
       style="font-size:85.33333588px;fill:#333333"
       d="m 738.17578,136.45898 c 0,20.80209 0,41.60417 0,62.40625 13.03581,0 26.07162,0 39.10742,0 0,-2.49349 0,-4.98697 0,-7.48046 -10.09765,0 -20.19531,0 -30.29297,0 0,-18.375 0,-36.75 0,-55.125 -2.93815,0 -5.8763,0 -8.81445,0 z"
       id="path4589"
       inkscape:connector-curvature="0" />
    <path
       style="font-size:85.33333588px;fill:#333333"
       d="m 803.72852,136.38672 c -7.95114,20.82619 -15.90258,41.65225 -23.85352,62.47851 3.10221,0 6.20443,0 9.30664,0 1.88879,-5.3192 3.77874,-10.63798 5.66797,-15.95703 9.25325,0 18.50651,0 27.75977,0 1.88858,5.31904 3.77785,10.63784 5.66601,15.95703 3.06055,0 6.12109,0 9.18164,0 -7.95443,-20.86799 -15.90654,-41.73687 -23.85937,-62.60546 -3.27344,0 -6.54688,0 -9.82032,0 z m 16.10937,39.12305 c -7.43359,0 -14.86719,0 -22.30078,0 3.70963,-10.0612 7.41927,-20.1224 11.12891,-30.1836 3.72395,10.0612 7.44791,20.1224 11.17187,30.1836 z"
       id="path4591"
       inkscape:connector-curvature="0" />
    <path
       style="font-size:85.33333588px;fill:#333333"
       d="m 830.83398,136.57031 c 7.32227,10.8444 14.64454,21.6888 21.9668,32.53321 0,9.92057 0,19.84114 0,29.76171 2.95248,0 5.90495,0 8.85742,0 0,-9.92057 0,-19.84114 0,-29.76171 7.39287,-10.94773 14.78344,-21.897 22.17774,-32.84375 -3.17578,0 -6.35157,0 -9.52735,0 -5.67219,8.47418 -11.3451,16.94788 -17.01757,25.42187 -5.71514,-8.47376 -11.42794,-16.94911 -17.14454,-25.42187 -3.17447,0 -6.34895,0 -9.52343,0 l 0.11237,0.16544 z"
       id="path4593"
       inkscape:connector-curvature="0" />
    <path
       style="font-size:85.33333588px;fill:#333333"
       d="m 891.50977,136.45898 c 0,20.80209 0,41.60417 0,62.40625 13.49349,0 26.98697,0 40.48046,0 0,-2.49349 0,-4.98697 0,-7.48046 -10.55533,0 -21.11067,0 -31.66601,0 0,-7.38151 0,-14.76303 0,-22.14454 9.875,0 19.75,0 29.625,0 0,-2.49349 0,-4.98697 0,-7.48046 -9.875,0 -19.75,0 -29.625,0 0,-6.00651 0,-12.01303 0,-18.01954 10.30534,0 20.61068,0 30.91601,0 0,-2.49349 0,-4.98697 0,-7.48046 -13.24349,0 -26.48697,0 -39.73046,0 z"
       id="path4595"
       inkscape:connector-curvature="0" />
    <path
       style="font-size:85.33333588px;fill:#333333"
       d="m 945.50977,136.45898 c 0,20.80209 0,41.60417 0,62.40625 2.93815,0 5.8763,0 8.81445,0 0,-8.76367 0,-17.52734 0,-26.29101 4.25384,0.15418 8.56239,-0.35722 12.77711,0.36303 3.26079,0.50619 5.90648,2.93376 7.56582,5.72321 3.1156,5.1855 5.50512,10.77132 8.30146,16.1318 0.74844,1.31043 1.28921,2.95134 2.15639,4.07297 3.12174,0 6.24349,0 9.36523,0 -3.60796,-7.01577 -6.9485,-14.17706 -10.73454,-21.09485 -1.98879,-3.25351 -4.33057,-6.65343 -7.93147,-8.25085 4.7244,-1.35146 8.56113,-5.30092 9.65826,-10.10563 1.10037,-4.894 0.76896,-10.2979 -1.58366,-14.78872 -2.66305,-5.04359 -8.40421,-7.42643 -13.81821,-8.03764 -5.83121,-0.64162 -11.71742,-0.19395 -17.57163,-0.32777 -2.33307,0 -4.66614,0 -6.99921,0 z m 19.19531,7.11524 c 4.03531,-0.0622 8.6367,1.06445 10.74785,4.85824 1.77029,3.41699 1.74869,7.69807 0.37324,11.17692 -1.53882,3.72063 -5.60423,5.41238 -9.36164,5.58232 -4.04316,0.15585 -8.09417,0.025 -12.14031,0.0681 0,-7.22852 0,-14.45704 0,-21.68555 3.46029,0 6.92057,0 10.38086,0 z"
       id="path4597"
       inkscape:connector-curvature="0" />
  </g>
</svg>
