<?xml version="1.0" encoding="UTF-8" standalone="no"?>
<!-- Created by ERK -->

<svg
   height="155.54"
   viewBox="0 0 308.052 77.77"
   width="616.104"
   version="1.1"
   id="svg6"
   sodipodi:docname="flatpak.svg"
   inkscape:version="1.4 (86a8ad7, 2024-10-11)"
   xmlns:inkscape="http://www.inkscape.org/namespaces/inkscape"
   xmlns:sodipodi="http://sodipodi.sourceforge.net/DTD/sodipodi-0.dtd"
   xmlns="http://www.w3.org/2000/svg"
   xmlns:svg="http://www.w3.org/2000/svg">
  <defs
     id="defs10" />
  <sodipodi:namedview
     id="namedview8"
     pagecolor="#ffffff"
     bordercolor="#666666"
     borderopacity="1.0"
     inkscape:pageshadow="2"
     inkscape:pageopacity="0.0"
     inkscape:pagecheckerboard="true"
     showgrid="false"
     inkscape:zoom="2.9427203"
     inkscape:cx="313.99518"
     inkscape:cy="81.7271"
     inkscape:window-width="3840"
     inkscape:window-height="2066"
     inkscape:window-x="-11"
     inkscape:window-y="-11"
     inkscape:window-maximized="1"
     inkscape:current-layer="svg6"
     inkscape:showpageshadow="2"
     inkscape:deskcolor="#d1d1d1" />
  <path
     d="M 33.857,0 0.283,19.47 0.15,58.3 34.02,77.77 67.89,58.333 67.742,19.469 Z m 0,3.087 v 28.111 l 3.949,2.37 -3.949,2.284 L 5.436,19.355 Z M 65.412,21.172 65.517,56.97 35.536,73.858 V 38.199 Z m 19.083,36.77 V 20.153 h 23.434 v 5.297 h -17.82 v 10.355 h 11.52 v 5.297 h -11.52 v 16.839 z m 30.156,0 V 20.153 h 5.614 V 52.54 h 18.478 v 5.402 z m 56.04,0 -3.005,-8.696 h -15.289 l -3.084,8.696 h -5.825 l 13.654,-37.789 h 5.773 l 13.602,37.789 z m -9.331,-26.51 q -0.317,-0.896 -0.712,-2.082 -0.369,-1.186 -0.58,-2.161 -0.263,0.975 -0.632,2.16 -0.343,1.16 -0.66,2.083 l -4.665,12.86 h 11.835 z m 31.816,-5.877 v 32.387 h -5.615 V 25.555 h -10.702 v -5.402 h 26.993 v 5.402 z m 17.951,32.387 V 20.153 h 15.183 q 3.48,0 5.852,1.028 2.399,1.001 3.849,2.635 1.476,1.634 2.108,3.716 0.66,2.055 0.66,4.19 0,1.317 -0.317,2.687 -0.29,1.37 -0.923,2.662 -0.632,1.265 -1.634,2.398 -1.002,1.133 -2.399,1.976 -1.37,0.844 -3.163,1.344 -1.792,0.475 -4.033,0.475 h -9.568 v 14.678 z m 15.5,-20.08 q 1.766,0 2.952,-0.554 1.212,-0.553 1.95,-1.423 0.765,-0.896 1.081,-1.976 0.343,-1.107 0.343,-2.187 0,-1.002 -0.29,-2.082 -0.29,-1.08 -1.002,-1.977 -0.711,-0.922 -1.95,-1.502 -1.213,-0.606 -3.084,-0.606 h -9.885 v 12.307 z m 38.959,20.08 -3.005,-8.696 h -15.288 l -3.085,8.696 h -5.825 l 13.654,-37.789 h 5.773 l 13.602,37.789 z m -9.331,-26.51 q -0.316,-0.896 -0.712,-2.082 -0.369,-1.186 -0.58,-2.161 -0.263,0.975 -0.632,2.16 -0.343,1.16 -0.66,2.083 l -4.665,12.86 h 11.835 z m 45.206,26.51 -10.649,-19.764 -6.695,8.116 v 11.648 h -5.615 V 20.153 h 5.615 v 18.315 l 14.577,-18.315 h 6.485 l -10.57,13.281 13.443,24.508 z"
     id="path2"
     style="fill:#666666"
     inkscape:label="Logo" />
</svg>
