<?xml version="1.0" encoding="UTF-8" standalone="no"?>
<!-- Created with Inkscape (http://www.inkscape.org/) -->

<svg
   width="104.61836mm"
   height="49.763626mm"
   viewBox="0 0 104.61836 49.763626"
   version="1.1"
   id="svg1"
   inkscape:version="1.3.2 (091e20e, 2023-11-25, custom)"
   sodipodi:docname="fm7-w.svg"
   xmlns:inkscape="http://www.inkscape.org/namespaces/inkscape"
   xmlns:sodipodi="http://sodipodi.sourceforge.net/DTD/sodipodi-0.dtd"
   xmlns="http://www.w3.org/2000/svg"
   xmlns:svg="http://www.w3.org/2000/svg">
  <sodipodi:namedview
     id="namedview1"
     pagecolor="#ffffff"
     bordercolor="#000000"
     borderopacity="0.25"
     inkscape:showpageshadow="2"
     inkscape:pageopacity="0.0"
     inkscape:pagecheckerboard="true"
     inkscape:deskcolor="#d1d1d1"
     inkscape:document-units="mm"
     inkscape:zoom="3.2943742"
     inkscape:cx="197.76138"
     inkscape:cy="108.51833"
     inkscape:window-width="2560"
     inkscape:window-height="1351"
     inkscape:window-x="-9"
     inkscape:window-y="-9"
     inkscape:window-maximized="1"
     inkscape:current-layer="svg1" />
  <defs
     id="defs1" />
  <path
     id="path2"
     d="m 50.205746,12.650257 h 0.0254 C 50.814552,11.609122 51.7144,11.597216 51.7144,11.597216 h 2.333095 l 0.0016,10.74076 c 0,0.58129 -0.433917,1.203854 -1.008592,1.238515 v 0.02487 h 4.315354 v -0.02487 c -0.579172,-0.03466 -1.014677,-0.661459 -1.014677,-1.23825 l 0.0032,-10.74129 1.94998,-0.0048 c 0.592137,0 1.060979,0.470958 1.077912,1.058068 h 0.02381 l 0.716228,-2.407708 h -9.188186 z m 21.476228,7.362296 c 0,1.389063 1.130036,2.590271 2.524919,2.590271 1.391179,0 2.526242,-1.217083 2.526242,-2.606675 v -8.4836 c 0,-0.583406 -0.433388,-1.208087 -1.007534,-1.240102 v -0.02513 l 4.309798,-0.0042 v 0.02937 c -0.5715,0.03201 -1.007004,0.656696 -1.007004,1.240102 v 8.243623 c 0,2.653241 -2.146829,4.198937 -4.812241,4.198937 -2.660915,0 -4.830234,-1.545696 -4.830234,-4.198937 l 0.0032,-8.243623 c 0,-0.583406 -0.433916,-1.208087 -1.00965,-1.240102 v -0.02937 h 4.310856 v 0.02937 c -0.57732,0.03519 -1.011237,0.6604 -1.011237,1.240102 z M 23.19311,17.078324 h 3.045355 c 0.57732,0 1.116541,0.432329 1.145645,1.005152 h 0.02778 v -2.354262 h -4.21878 l -0.0021,-4.132263 h 4.070614 c 0.579702,0 1.119452,0.430742 1.149879,1.001977 h 0.02646 l -0.004,-2.35585 -8.542073,0.0037 v 0.02593 c 0.575204,0.03201 1.006475,0.656431 1.006475,1.239837 v 10.825427 c 0,0.58129 -0.431271,1.208352 -1.006475,1.241425 v 0.0254 h 4.309798 v -0.0254 C 23.625955,23.546327 23.19098,22.919262 23.19098,22.337972 Z m 8.818827,2.934229 c 0,1.389063 1.129771,2.590271 2.524125,2.590271 1.392767,0 2.526771,-1.217083 2.526771,-2.606675 v -8.4836 c 0,-0.583406 -0.432858,-1.208087 -1.00965,-1.240102 v -0.02513 l 4.312973,-0.0042 v 0.02937 c -0.575733,0.03201 -1.011767,0.656696 -1.011767,1.240102 v 8.243623 c 0,2.653241 -2.14577,4.198937 -4.80695,4.198937 -2.665941,0 -4.834731,-1.545696 -4.834731,-4.198937 l 0.0056,-8.243623 c 0,-0.583406 -0.434975,-1.208087 -1.007534,-1.240102 v -0.02937 h 4.306888 v 0.02937 c -0.574146,0.03519 -1.007798,0.6604 -1.007798,1.240102 z m 35.23959,-7.605977 c -0.722313,-1.193535 -2.371461,-1.049867 -2.371461,-1.049867 -2.697427,0 -2.569898,2.103438 -2.569898,2.103438 0,0 -0.185473,1.055423 1.169723,1.775354 l 2.696898,1.464733 c 2.603235,1.427957 2.294467,3.457311 2.294467,3.457311 0,0 0.117739,3.79095 -5.326592,3.79095 0,0 -1.581944,0.04948 -2.477558,-0.293688 l -0.766234,-2.455333 h 0.02672 c 0.829469,1.222375 3.23903,1.399117 3.23903,1.399117 3.059377,-0.137584 3.080543,-2.262717 3.080543,-2.262717 0,0 0.137584,-0.915194 -1.060185,-1.577975 l -2.683404,-1.464733 c -2.801938,-1.530615 -2.481263,-3.591984 -2.481263,-3.591984 0,0 -0.06615,-3.7295663 4.750594,-3.7295663 0,0 2.162175,0.056885 2.506662,0.4019023 v 2.032794 z M 46.236996,5.5977887 a 2.6405416,2.6405416 0 0 0 1.871927,0.7733771 c 1.466056,0 2.652977,-1.1826875 2.652977,-2.6442458 0,-1.457325 -1.186921,-2.6421292 -2.652977,-2.6421292 0,0 -2.042584,-0.19314581 -2.961746,2.4122062 l 0.0029,-1.9557999 C 45.8343,0.64875749 46.893162,-8.355e-7 48.108923,-8.355e-7 c 2.068512,0 3.742266,1.6671395355 3.742266,3.7269208355 0,2.0568708 -1.673754,3.7300957 -3.742266,3.7300957 -1.033463,0 -1.967971,-0.4153958 -2.643188,-1.0929937 L 44.178537,4.9217783 a 1.9362208,1.9362208 0 0 0 -1.370277,-0.56515 c -1.071562,0 -1.940719,0.8636 -1.940719,1.9304 0,1.0710333 0.868892,1.9367499 1.940719,1.9367499 0,0 1.433513,0.1915584 2.338917,-1.5792979 l 0.0029,1.5660688 a 3.0363583,3.0363583 0 0 1 -2.341562,1.0988145 c -1.67349,0 -3.032125,-1.3530791 -3.032125,-3.0223353 0,-1.6660813 1.358635,-3.01625 3.032125,-3.01625 0.833437,0 1.590146,0.3341687 2.13995,0.8847666 z M 46.9265,11.484503 c 0,-0.583935 -0.433388,-1.182158 -1.008063,-1.212056 v -0.0254 h 4.303184 v 0.0254 c -0.571236,0.03254 -1.00674,0.631296 -1.00674,1.211792 v 10.84871 c 0,0.582083 0.435504,1.208881 1.00674,1.243542 v 0.02487 h -4.303184 v -0.02487 C 46.493112,23.54183 46.9265,22.915032 46.9265,22.332949 Z m -2.70219,0.02831 c 0,-0.583407 0.432329,-1.208088 1.007534,-1.240102 v -0.02593 h -4.310063 v 0.02593 c 0.576792,0.03201 1.007269,0.656695 1.007269,1.240102 l 0.0037,13.562012 c 0,0 -0.04842,2.394744 -1.930135,3.772958 l 0.0048,0.02619 c 0.37121,-0.06218 4.220104,-0.79031 4.220104,-4.601898 z"
     style="fill:#e60012;stroke-width:0.572558"
     inkscape:label="Fujitsu" />
  <g
     fill="#545454"
     id="g4"
     transform="matrix(0.26458333,0,0,0.26458333,-0.750358,-0.17198)"
     inkscape:label="FM-7">
    <path
       d="m 47.487,169.509 v 12.942 H 2.836 V 169.51 h 10.206 v -50.476 h -8.93 v -15.53 H 95.964 V 135.86 H 76.828 V 119.034 H 37.281 v 19.414 h 28.066 v 15.531 H 37.28 v 15.531 z m 65.062,-1.294 v -50.476 h -8.93 v -14.236 h 34.01 l 21.65,45.169 22.593,-45.17 h 36.563 v 14.237 h -8.93 l -0.013,50.463 7.667,0.026 v 14.223 h -40.823 v -14.236 l 7.654,-0.013 -0.051,-30.337 -22.07,44.586 h -10.614 l -23.333,-45.686 c -0.154,10.043 -0.026,21.393 -0.064,31.437 2.551,0.013 5.103,0.013 7.654,0.026 v 14.223 H 103.62 v -14.236 z m 114.816,-32.356 h 39.548 v 14.236 h -39.548 z m 90.743,-12.879 c -4.86,0.726 -7.03,5.786 -6.736,10.303 l -15.118,-0.013 v -28.473 h 88.026 v 17.692 c -8.343,2.446 -14.352,8.193 -19.404,15.7 -8.152,13.136 -11.443,28.9 -11.214,44.25 -9.848,0 -19.697,0.051 -29.533,-0.026 1.684,-11.183 4.146,-22.365 8.739,-32.719 3.572,-6.717 9.9,-14.91 16.916,-20.332 3.024,-2.369 5.633,-4.504 9.517,-6.355 z"
       id="path3"
       inkscape:label="FM-7"
       style="fill:#ffffff" />
    <path
       d="m 284.198,99.567 h 112.546 v 87.666 H 284.198 Z"
       fill="none"
       opacity="0.98"
       stroke="#545454"
       stroke-width="3"
       id="path4"
       inkscape:label="Square"
       style="stroke:#ffffff" />
  </g>
</svg>
