<svg height="190.476" width="400" xmlns="http://www.w3.org/2000/svg">
    <g fill="#e60012" stroke-width="2.164">
        <path d="M90.495 65.198h11.51c2.182 0 4.22 1.634 4.33 3.799h.105v-8.898H90.495l-.008-15.618h15.385c2.191 0 4.231 1.628 4.346 3.787h.1l-.015-8.904-32.285.014v.098c2.174.121 3.804 2.481 3.804 4.686v40.915c0 2.197-1.63 4.567-3.804 4.692v.096h16.289v-.096c-2.176-.125-3.82-2.495-3.82-4.692zM123.826 76.288c0 5.25 4.27 9.79 9.54 9.79 5.264 0 9.55-4.6 9.55-9.852V44.162c0-2.205-1.636-4.566-3.816-4.687v-.095l16.301-.016v.111c-2.176.121-3.824 2.482-3.824 4.687v31.157c0 10.028-8.11 15.87-18.168 15.87-10.076 0-18.273-5.842-18.273-15.87l.021-31.157c0-2.205-1.644-4.566-3.808-4.687v-.111h16.278v.111c-2.17.133-3.809 2.496-3.809 4.687zM257.015 47.541c-2.73-4.511-8.963-3.968-8.963-3.968-10.195 0-9.713 7.95-9.713 7.95s-.701 3.989 4.421 6.71l10.193 5.536c9.839 5.397 8.672 13.067 8.672 13.067s.445 14.328-20.132 14.328c0 0-5.979.187-9.364-1.11l-2.896-9.28h.101c3.135 4.62 12.242 5.288 12.242 5.288 11.563-.52 11.643-8.552 11.643-8.552s.52-3.459-4.007-5.964L239.07 66.01c-10.59-5.785-9.378-13.576-9.378-13.576s-.25-14.096 17.955-14.096c0 0 8.172.215 9.474 1.519v7.683zM177.59 21.807a9.98 9.98 0 0 0 7.075 2.923c5.541 0 10.027-4.47 10.027-9.994 0-5.508-4.486-9.986-10.027-9.986 0 0-7.72-.73-11.194 9.117l.011-7.392C176.068 3.102 180.07.65 184.665.65c7.818 0 14.144 6.301 14.144 14.086 0 7.774-6.326 14.098-14.144 14.098-3.906 0-7.438-1.57-9.99-4.131l-4.865-5.451a7.318 7.318 0 0 0-5.179-2.136c-4.05 0-7.335 3.264-7.335 7.296 0 4.048 3.284 7.32 7.335 7.32 0 0 5.418.724 8.84-5.969l.011 5.919a11.476 11.476 0 0 1-8.85 4.153c-6.325 0-11.46-5.114-11.46-11.423 0-6.297 5.135-11.4 11.46-11.4 3.15 0 6.01 1.263 8.088 3.344zM180.196 44.056c0-2.207-1.638-4.468-3.81-4.581v-.096h16.264v.096c-2.159.123-3.805 2.386-3.805 4.58v41.003c0 2.2 1.646 4.569 3.805 4.7v.094h-16.264v-.094c2.172-.131 3.81-2.5 3.81-4.7zM169.983 44.163c0-2.205 1.634-4.566 3.808-4.687v-.098h-16.29v.098c2.18.121 3.807 2.482 3.807 4.687l.014 51.258s-.183 9.051-7.295 14.26l.018.099c1.403-.235 15.95-2.987 15.95-17.393z"/>
        <path d="M192.59 48.462h.096c2.205-3.935 5.606-3.98 5.606-3.98h8.818l.006 40.595c0 2.197-1.64 4.55-3.812 4.681v.094h16.31v-.094c-2.189-.131-3.835-2.5-3.835-4.68l.012-40.597 7.37-.018c2.238 0 4.01 1.78 4.074 3.999h.09l2.707-9.1h-34.727zM273.76 76.288c0 5.25 4.271 9.79 9.543 9.79 5.258 0 9.548-4.6 9.548-9.852V44.162c0-2.205-1.638-4.566-3.808-4.687v-.095l16.289-.016v.111c-2.16.121-3.806 2.482-3.806 4.687v31.157c0 10.028-8.114 15.87-18.188 15.87-10.057 0-18.256-5.842-18.256-15.87l.012-31.157c0-2.205-1.64-4.566-3.816-4.687v-.111h16.293v.111c-2.182.133-3.822 2.496-3.822 4.687z"/>
    </g>
    <g fill="#545454">
        <g stroke-width=".778">
            <path d="M47.487 169.509v12.942H2.836V169.51h10.206v-50.476h-8.93v-15.53h91.852v32.356H76.828v-16.826H37.281v19.414h28.066v15.531H37.28v15.531zM112.549 168.215v-50.476h-8.93v-14.236h34.01l21.65 45.169 22.593-45.17h36.563v14.237h-8.93l-.013 50.463 7.667.026v14.223h-40.823v-14.236l7.654-.013-.051-30.337-22.07 44.586h-10.614l-23.333-45.686c-.154 10.043-.026 21.393-.064 31.437 2.551.013 5.103.013 7.654.026v14.223H103.62v-14.236zM227.365 135.859h39.548v14.236h-39.548zM318.108 122.98c-4.86.726-7.03 5.786-6.736 10.303l-15.118-.013v-28.473h88.026v17.692c-8.343 2.446-14.352 8.193-19.404 15.7-8.152 13.136-11.443 28.9-11.214 44.25-9.848 0-19.697.051-29.533-.026 1.684-11.183 4.146-22.365 8.739-32.719 3.572-6.717 9.9-14.91 16.916-20.332 3.024-2.369 5.633-4.504 9.517-6.355z"/>
        </g>
        <path d="M284.198 99.567h112.546v87.666H284.198z" fill="none" opacity=".98" stroke="#545454" stroke-width="3"/>
    </g>
</svg>
