<?xml version="1.0" encoding="UTF-8" standalone="no"?>
<!-- Created by ERK -->

<svg
   width="1982.8717mm"
   height="535.68213mm"
   viewBox="0 0 1982.8717 535.68212"
   version="1.1"
   id="svg1"
   inkscape:version="1.4 (86a8ad7, 2024-10-11)"
   xml:space="preserve"
   sodipodi:docname="marty2.svg"
   xmlns:inkscape="http://www.inkscape.org/namespaces/inkscape"
   xmlns:sodipodi="http://sodipodi.sourceforge.net/DTD/sodipodi-0.dtd"
   xmlns="http://www.w3.org/2000/svg"
   xmlns:svg="http://www.w3.org/2000/svg"><sodipodi:namedview
     id="namedview1"
     pagecolor="#ffffff"
     bordercolor="#000000"
     borderopacity="0.25"
     inkscape:showpageshadow="2"
     inkscape:pageopacity="0.0"
     inkscape:pagecheckerboard="true"
     inkscape:deskcolor="#d1d1d1"
     inkscape:document-units="mm"
     inkscape:zoom="0.125"
     inkscape:cx="3680"
     inkscape:cy="1400"
     inkscape:window-width="1916"
     inkscape:window-height="2053"
     inkscape:window-x="-9"
     inkscape:window-y="0"
     inkscape:window-maximized="0"
     inkscape:current-layer="g194" /><defs
     id="defs1"><marker
       id="DistanceX"
       orient="auto"
       refX="0"
       refY="0"
       style="overflow:visible"><path
         d="M 3,-3 -3,3 M 0,-5 V 5"
         style="stroke:#000000;stroke-width:0.5"
         id="path1" /></marker><pattern
       id="Hatch"
       patternUnits="userSpaceOnUse"
       width="8"
       height="8"
       x="0"
       y="0"><path
         d="M8 4 l-4,4"
         stroke="#000000"
         stroke-width="0.25"
         linecap="square"
         id="path2" /><path
         d="M6 2 l-4,4"
         stroke="#000000"
         stroke-width="0.25"
         linecap="square"
         id="path3" /><path
         d="M4 0 l-4,4"
         stroke="#000000"
         stroke-width="0.25"
         linecap="square"
         id="path4" /></pattern><symbol
       id="*Model_Space" /><symbol
       id="*Paper_Space" /><symbol
       id="*Paper_Space0" /><marker
       id="DistanceX-7"
       orient="auto"
       refX="0"
       refY="0"
       style="overflow:visible"><path
         d="M 3,-3 -3,3 M 0,-5 V 5"
         style="stroke:#000000;stroke-width:0.5"
         id="path1-9" /></marker><pattern
       id="Hatch-3"
       patternUnits="userSpaceOnUse"
       width="8"
       height="8"
       x="0"
       y="0"><path
         d="M8 4 l-4,4"
         stroke="#000000"
         stroke-width="0.25"
         linecap="square"
         id="path2-1" /><path
         d="M6 2 l-4,4"
         stroke="#000000"
         stroke-width="0.25"
         linecap="square"
         id="path3-9" /><path
         d="M4 0 l-4,4"
         stroke="#000000"
         stroke-width="0.25"
         linecap="square"
         id="path4-8" /></pattern><symbol
       id="*Model_Space-6" /><symbol
       id="*Paper_Space-5" /><symbol
       id="*Paper_Space0-0" /><marker
       id="DistanceX-6"
       orient="auto"
       refX="0"
       refY="0"
       style="overflow:visible"><path
         d="M 3,-3 -3,3 M 0,-5 V 5"
         style="stroke:#000000;stroke-width:0.5"
         id="path1-3" /></marker><pattern
       id="Hatch-7"
       patternUnits="userSpaceOnUse"
       width="8"
       height="8"
       x="0"
       y="0"><path
         d="M8 4 l-4,4"
         stroke="#000000"
         stroke-width="0.25"
         linecap="square"
         id="path2-8" /><path
         d="M6 2 l-4,4"
         stroke="#000000"
         stroke-width="0.25"
         linecap="square"
         id="path3-8" /><path
         d="M4 0 l-4,4"
         stroke="#000000"
         stroke-width="0.25"
         linecap="square"
         id="path4-2" /></pattern><symbol
       id="*Model_Space-9" /><symbol
       id="*Paper_Space-1" /><symbol
       id="*Paper_Space0-3" /><marker
       id="DistanceX-9"
       orient="auto"
       refX="0"
       refY="0"
       style="overflow:visible"><path
         d="M 3,-3 -3,3 M 0,-5 V 5"
         style="stroke:#000000;stroke-width:0.5"
         id="path1-7" /></marker><pattern
       id="Hatch-37"
       patternUnits="userSpaceOnUse"
       width="8"
       height="8"
       x="0"
       y="0"><path
         d="M8 4 l-4,4"
         stroke="#000000"
         stroke-width="0.25"
         linecap="square"
         id="path2-2" /><path
         d="M6 2 l-4,4"
         stroke="#000000"
         stroke-width="0.25"
         linecap="square"
         id="path3-6" /><path
         d="M4 0 l-4,4"
         stroke="#000000"
         stroke-width="0.25"
         linecap="square"
         id="path4-0" /></pattern><symbol
       id="*Model_Space-1" /><symbol
       id="*Paper_Space-6" /><symbol
       id="*Paper_Space0-5" /><marker
       id="DistanceX-99"
       orient="auto"
       refX="0"
       refY="0"
       style="overflow:visible"><path
         d="M 3,-3 -3,3 M 0,-5 V 5"
         style="stroke:#000000;stroke-width:0.5"
         id="path1-8" /></marker><pattern
       id="Hatch-1"
       patternUnits="userSpaceOnUse"
       width="8"
       height="8"
       x="0"
       y="0"><path
         d="M8 4 l-4,4"
         stroke="#000000"
         stroke-width="0.25"
         linecap="square"
         id="path2-82" /><path
         d="M6 2 l-4,4"
         stroke="#000000"
         stroke-width="0.25"
         linecap="square"
         id="path3-66" /><path
         d="M4 0 l-4,4"
         stroke="#000000"
         stroke-width="0.25"
         linecap="square"
         id="path4-03" /></pattern><symbol
       id="*Model_Space-8" /><symbol
       id="*Paper_Space-0" /><symbol
       id="*Paper_Space0-1" /><marker
       id="DistanceX-90"
       orient="auto"
       refX="0"
       refY="0"
       style="overflow:visible"><path
         d="M 3,-3 -3,3 M 0,-5 V 5"
         style="stroke:#000000;stroke-width:0.5"
         id="path1-78" /></marker><pattern
       id="Hatch-15"
       patternUnits="userSpaceOnUse"
       width="8"
       height="8"
       x="0"
       y="0"><path
         d="M8 4 l-4,4"
         stroke="#000000"
         stroke-width="0.25"
         linecap="square"
         id="path2-86" /><path
         d="M6 2 l-4,4"
         stroke="#000000"
         stroke-width="0.25"
         linecap="square"
         id="path3-1" /><path
         d="M4 0 l-4,4"
         stroke="#000000"
         stroke-width="0.25"
         linecap="square"
         id="path4-24" /></pattern><symbol
       id="*Model_Space-2" /><symbol
       id="*Paper_Space-58" /><symbol
       id="*Paper_Space0-6" /><marker
       id="DistanceX-1"
       orient="auto"
       refX="0"
       refY="0"
       style="overflow:visible"><path
         d="M 3,-3 -3,3 M 0,-5 V 5"
         style="stroke:#000000;stroke-width:0.5"
         id="path1-95" /></marker><pattern
       id="Hatch-32"
       patternUnits="userSpaceOnUse"
       width="8"
       height="8"
       x="0"
       y="0"><path
         d="M8 4 l-4,4"
         stroke="#000000"
         stroke-width="0.25"
         linecap="square"
         id="path2-5" /><path
         d="M6 2 l-4,4"
         stroke="#000000"
         stroke-width="0.25"
         linecap="square"
         id="path3-2" /><path
         d="M4 0 l-4,4"
         stroke="#000000"
         stroke-width="0.25"
         linecap="square"
         id="path4-5" /></pattern><symbol
       id="*Model_Space-86" /><symbol
       id="*Paper_Space-7" /><symbol
       id="*Paper_Space0-7" /><marker
       id="DistanceX-997"
       orient="auto"
       refX="0"
       refY="0"
       style="overflow:visible"><path
         d="M 3,-3 -3,3 M 0,-5 V 5"
         style="stroke:#000000;stroke-width:0.5"
         id="path1-6" /></marker><pattern
       id="Hatch-9"
       patternUnits="userSpaceOnUse"
       width="8"
       height="8"
       x="0"
       y="0"><path
         d="M8 4 l-4,4"
         stroke="#000000"
         stroke-width="0.25"
         linecap="square"
         id="path2-3" /><path
         d="M6 2 l-4,4"
         stroke="#000000"
         stroke-width="0.25"
         linecap="square"
         id="path3-5" /><path
         d="M4 0 l-4,4"
         stroke="#000000"
         stroke-width="0.25"
         linecap="square"
         id="path4-7" /></pattern><symbol
       id="*Model_Space-66" /><symbol
       id="*Paper_Space-582" /><symbol
       id="*Paper_Space0-54" /></defs><g
     id="g194"
     transform="translate(778.79809)"
     style="stroke-width:1.5;stroke-dasharray:none"><path
       id="path170"
       style="display:inline;fill:#5492cb;fill-opacity:1;stroke:#000000;stroke-width:1.5;stroke-linecap:round;stroke-dasharray:none"
       d="m 1074.209,373.06225 c 0.2456,-0.14581 0.4857,-0.28955 0.7243,-0.43607 7.1954,-4.41787 13.1192,-11.3643 16.2323,-19.36479 0.6658,-1.71118 1.2031,-3.47057 1.6166,-5.262 -0.1529,0.11671 -0.3058,0.23289 -0.4586,0.34855 -1.2988,0.98305 -2.5949,1.9284 -3.8233,2.8078 -10.9118,7.81108 -16.4963,10.41805 -22.5909,12.42018 -9.4755,3.11278 -20.1839,4.76353 -34.4792,4.32714 -2.1336,-0.0651 -4.3472,-0.17676 -6.5781,-0.415 -5.1311,-0.54796 -10.3539,-1.76573 -15.2518,-4.54066 -0.7212,1.38482 -1.5708,2.69583 -2.5359,3.88899 -2.2299,2.75683 -5.0762,4.88454 -8.257,6.30157 1.465,1.46758 -0.1259,3.10444 -0.3981,4.40756 -0.5273,2.52441 3.8942,3.79639 7.4179,4.72403 4.6299,1.21887 7.7098,1.84328 11.3909,1.94239 3.5597,0.0958 7.6816,-0.29957 11.1107,-1.19044 4.2476,-1.10353 7.4321,-2.96732 10.8113,-4.70321 2.8179,-1.44761 5.7713,-2.80628 10.1471,-6.71027 3.3043,1.7778 5.5826,2.40902 8.0044,2.82201 4.0571,0.69184 8.5171,0.77126 11.0412,0.5388 2.076,-0.19119 4.0834,-0.84249 5.8762,-1.90658"
       sodipodi:nodetypes="csscssssscscssssscscc"
       inkscape:label="Pants" /><path
       d="m 1049.2872,371.60802 c 0.8748,-0.7805 1.8065,-1.66275 2.8053,-2.66779"
       style="display:inline;fill:none;stroke:#000000;stroke-width:1.5;stroke-linecap:round;stroke-dasharray:none"
       id="path183"
       inkscape:label="PantLine" /><path
       id="path182"
       style="display:inline;fill:#ed8383;fill-opacity:1;stroke:#000000;stroke-width:1.5;stroke-linecap:round;stroke-dasharray:none"
       d="m 1047.9625,351.88439 c -12.1032,1.29514 -24.506,-0.89082 -36.2516,-4.99364 1.4538,4.89503 0.5368,10.97319 -2.1106,16.05665 4.8979,2.77494 10.1207,3.9927 15.2518,4.54067 2.2309,0.23824 4.4445,0.34986 6.5781,0.415 14.2953,0.43638 25.0037,-1.21436 34.4792,-4.32714 6.0946,-2.00213 11.6791,-4.6091 22.5909,-12.42019 1.2284,-0.87939 2.5245,-1.82475 3.8233,-2.8078 0.1528,-0.11566 0.3057,-0.23184 0.4586,-0.34854 1.1018,-4.7729 1.3253,-9.77321 0.7625,-14.69488 -13.5955,8.81331 -29.3184,16.8395 -45.5822,18.57987 z"
       sodipodi:nodetypes="sccsssssccs"
       inkscape:label="Shirt4" /><path
       id="path155"
       style="display:inline;fill:#5492cb;fill-opacity:1;stroke:#000000;stroke-width:1.5;stroke-linecap:round;stroke-dasharray:none"
       d="m 1036.1502,334.36482 c -7.7182,-0.2087 -15.4113,-1.7749 -22.5561,-4.65418 -3.5262,-1.42104 -6.9189,-3.16193 -10.1152,-5.21733 -0.2071,0.1847 -0.4155,0.37228 -0.6252,0.56316 -1.5687,1.42811 -3.2066,3.04061 -3.2221,4.65417 -0.015,1.57584 1.517,3.15268 2.9834,4.65418 4.1064,4.20439 7.6976,7.81795 9.0959,12.52593 11.7456,4.10282 24.1484,6.28878 36.2516,4.99364 16.2638,-1.74037 31.9867,-9.76656 45.5822,-18.57987 -0.1867,-1.63206 -0.4598,-3.25548 -0.816,-4.85909 -1.1172,-5.02868 -3.0517,-9.86258 -5.6993,-14.21077 -13.3236,13.16953 -32.1752,20.63591 -50.8792,20.13016 z"
       sodipodi:nodetypes="sscssscscscs"
       inkscape:label="Shirt3" /><path
       id="path27-9"
       style="display:inline;fill:#ed8383;fill-opacity:1;stroke:#000000;stroke-width:1.5;stroke-linecap:round;stroke-dasharray:none"
       d="m 1073.6473,300.03752 c 2.997,2.34759 5.9137,4.79012 8.4601,7.59564 1.8394,2.02658 3.4856,4.24256 4.922,6.6015 -13.3236,13.16953 -32.1752,20.63591 -50.8792,20.13016 -7.7182,-0.2087 -15.4113,-1.7749 -22.5561,-4.65418 -3.5262,-1.42104 -6.9189,-3.16193 -10.1152,-5.21733 3.9977,-3.56471 7.5127,-6.05501 10.1152,-10.41591 0.8029,-1.34533 1.5189,-2.86868 1.7721,-4.3498 19.1209,4.71329 42.5747,3.37557 58.2811,-9.69008"
       inkscape:label="Shirt2"
       sodipodi:nodetypes="cscsscscc" /><path
       id="path190"
       style="display:inline;fill:#5492cb;fill-opacity:1;stroke:#000000;stroke-width:1.5;stroke-linecap:round;stroke-dasharray:none"
       d="m 1070.1125,297.31143 c 1.1789,0.90486 2.363,1.80822 3.5348,2.72609 -15.7064,13.06565 -39.1602,14.40337 -58.2811,9.69008 0.1225,-0.71633 0.1367,-1.42278 0,-2.09444 -0.6965,-3.42397 -5.3122,-5.94371 -9.2904,-6.08623 -3.7472,-0.13425 -6.9288,1.8407 -9.7857,3.69947 -0.4865,0.31655 -0.969,0.63911 -1.4476,0.9676 0.5262,-2.3185 0.5262,-4.72543 0,-7.04394 25.7268,4.20904 51.204,1.00149 75.27,-6.51493 -1.5307,1.17473 -1.5307,3.48156 0,4.6563 z"
       inkscape:label="Shirt1"
       sodipodi:nodetypes="cccssccccc" /><path
       id="path14-0"
       style="display:inline;fill:#7dc6a9;fill-opacity:1;stroke:#000000;stroke-width:1.5;stroke-linecap:round;stroke-dasharray:none"
       d="m 984.5317,358.46193 c 3.13319,-1.94716 4.61878,-9.79593 4.289,-13.46624 -0.3044,-2.42176 -2.0231,-4.63706 -4.0051,-6.62427 -1.8198,-1.82466 -3.8615,-3.45701 -5.4983,-4.50416 -1.52,-0.97243 -2.6262,-2.47317 -3.1046,-4.21285 l -0.1286,0.0562 c -12.2265,5.3965 -26.0339,6.03781 -39.1926,2.27037 -9.0947,-2.60388 -17.8794,-7.31381 -23.1491,-14.80467 -2.6937,-3.82906 -4.469,-8.38475 -5.2938,-13.01018 -3.8883,-21.80459 13.3449,-45.15888 -14.5923,-62.97041 10.1849,13.62393 9.661,30.84641 4.1967,45.89474 -2.2204,6.1148 -5.2566,11.87061 -6.6312,18.15597 -1.7484,7.9945 -0.8088,16.84568 2.4345,24.46424 4.2982,10.09675 12.6425,18.02857 21.799,24.21571 18.8328,12.72555 41.1013,18.07055 63.5452,19.21161 -5.3456,-2.24899 -9.8893,-6.22939 -11.8756,-11.3128 -2.0821,-5.32872 -1.3539,-11.86948 2.07,-16.82947 2.3031,-3.33625 5.8257,-5.9573 9.8056,-5.82511 2.7904,0.0927 5.8055,1.53873 6.9902,3.8834 1.1695,2.31477 1.61333,5.50538 0.36463,7.8639 -0.8944,1.6891 -1.05556,1.89309 -1.84016,3.79591 -1.14679,2.78145 -1.83394,4.643 -0.18347,3.74811 z"
       inkscape:label="Tail"
       sodipodi:nodetypes="ssscccssscsssscsssssss" /><path
       id="path14-1"
       style="display:inline;fill:#7dc6a9;fill-opacity:1;stroke:#000000;stroke-width:1.5;stroke-linecap:round;stroke-dasharray:none"
       d="m 1071.8755,374.17075 c -1.1413,0.41833 -2.3322,0.6866 -3.5427,0.79808 -2.5241,0.23246 -6.9841,0.15304 -11.0412,-0.5388 -2.4218,-0.41299 -4.7001,-1.04421 -8.0044,-2.82201 -1.8614,4.488 -2.3864,9.41816 -1.5122,14.19752 3.6091,5.0234 9.8285,7.46357 15.8907,6.23468 1.38,-0.71986 2.7417,-1.46879 4.075,-2.20691 1.4169,-0.7844 2.8017,-1.5566 4.1586,-2.33011 0.4135,-4.43491 0.4055,-8.89904 -0.024,-13.33245 z"
       inkscape:label="LegRight"
       sodipodi:nodetypes="ccscccscc" /><path
       id="path18-0"
       style="display:inline;fill:#7dc6a9;fill-opacity:1;stroke:#000000;stroke-width:1.5;stroke-linecap:round;stroke-dasharray:none"
       d="m 1017.2181,384.21194 c -3.6811,-0.0991 -6.761,-0.72352 -11.3909,-1.94239 -2.6754,-0.70431 -5.8683,-1.6071 -7.0198,-3.10584 -2.7034,2.55121 -5.2581,5.2555 -7.6516,8.09953 3.7597,5.78258 9.8952,9.59485 16.7448,10.40441 4.1084,-4.22986 7.9348,-8.72476 11.4546,-13.45571 -0.7276,0.0187 -1.443,0.0187 -2.1371,0 z"
       inkscape:label="LegLeft"
       sodipodi:nodetypes="ssccccs" /><path
       id="path13-60"
       style="display:inline;fill:#fdbe2c;fill-opacity:1;stroke:#000000;stroke-width:1.5;stroke-linecap:round;stroke-dasharray:none"
       d="m 1047.775,385.80554 c -0.2137,-1.16797 -0.3446,-2.34957 -0.3917,-3.53599 -3.7574,1.83575 -5.3927,5.48139 -8.0552,9.46877 -0.047,0.78401 -0.2519,1.54448 0.3457,2.05405 7.3023,5.64391 15.9584,2.43833 23.9919,-1.75215 -6.0622,1.22889 -12.2816,-1.21128 -15.8907,-6.23468 z"
       inkscape:label="SockRight"
       sodipodi:nodetypes="cccccc" /><path
       id="path17-7"
       style="display:inline;fill:#fdbe2c;fill-opacity:1;stroke:#000000;stroke-width:1.5;stroke-linecap:round;stroke-dasharray:none"
       d="m 991.1558,387.26324 c -2.6532,3.15277 -5.1032,6.47118 -7.335,9.93513 2.656,0.93971 5.2842,1.76376 8.1283,2.56847 3.3904,0.95931 7.0877,1.89114 11.7003,2.08822 1.4478,-1.36426 2.8652,-2.76041 4.2512,-4.18741 -6.8496,-0.80956 -12.9851,-4.62183 -16.7448,-10.40441 z"
       inkscape:label="SockLeft"
       sodipodi:nodetypes="ccsccc" /><path
       id="path19-7"
       style="display:inline;fill:#ed8383;fill-opacity:1;stroke:#000000;stroke-width:1.5;stroke-linecap:round;stroke-dasharray:none"
       d="m 1173.7775,405.02336 c 0.1125,1.04118 -0.2456,2.18252 -0.7126,3.22269 -3.393,7.55758 -12.481,10.01865 -20.8911,11.77449 -33.7433,7.04487 -65.9305,5.3435 -100.0813,3.33426 -6.2171,-0.36578 -12.7227,-0.71262 -17.4666,-4.59308 -4.8033,-3.92907 -7.797,-11.5374 -0.9646,-15.99521 0.041,0.16343 0.093,0.3228 0.155,0.47744 0.5541,1.37651 1.9636,2.37846 3.3943,3.2581 7.6857,4.72547 15.984,5.92096 24.3736,6.69089 14.6918,1.34829 29.6639,1.39155 44.2561,0.71007 15.1769,-0.7088 29.9428,-2.20159 45.6316,-6.08425 5.2459,-1.29825 10.5949,-2.8637 13.6402,-7.13362 0.4856,-0.68089 0.9126,-1.43056 1.1492,-2.20977 2.34,1.07534 7.1691,3.33467 7.5162,6.54799 z"
       inkscape:label="ShoeSoulRight"
       sodipodi:nodetypes="ssssscsssssscs" /><path
       id="path32-8"
       style="display:inline;fill:#ed8383;fill-opacity:1;stroke:#000000;stroke-width:1.5;stroke-linecap:round;stroke-dasharray:none"
       d="m 1039.6738,393.79237 c 8.5567,6.61346 18.9723,1.07582 28.0669,-3.95906 6.1701,-3.41586 11.7321,-6.60031 17.03,-10.6696 3.3675,-2.58652 6.6283,-5.53052 10.2994,-7.55569 10.4643,-5.77255 24.2628,-4.07967 36.4036,-0.68836 7.8426,2.19068 14.9934,5.09008 21.5502,9.42191 5.1218,3.38381 9.8811,7.64168 12.5149,13.4508 0.5702,1.25743 1.0407,2.58754 0.8932,3.87528 -0.1222,1.06647 -0.6683,2.10389 -1.3199,3.01749 -3.0453,4.26992 -8.3943,5.83537 -13.6402,7.13362 -15.6888,3.88266 -30.4547,5.37545 -45.6316,6.08425 -14.5922,0.68148 -29.5643,0.63822 -44.2561,-0.71007 -8.3896,-0.76993 -16.6879,-1.96542 -24.3736,-6.69089 -1.4307,-0.87964 -2.8402,-1.88159 -3.3943,-3.2581 -1.4092,-3.50054 2.7129,-9.42341 5.3238,-10.08755 0.1413,0.24022 0.3217,0.45516 0.5337,0.63597 z"
       sodipodi:nodetypes="cssssssssssssscc"
       inkscape:label="ShoeRIght" /><path
       id="path21-5"
       style="display:inline;fill:#ed8383;fill-opacity:1;stroke:#000000;stroke-width:1.5;stroke-linecap:round;stroke-dasharray:none"
       d="m 936.8915,434.2884 c 9.4358,-0.83387 18.2761,-2.50345 27.6114,-5.21641 7.8359,-2.27724 14.96217,-4.2313 23.28747,-6.24492 9.70861,-3.06894 18.97863,-5.43279 28.52573,-9.2659 1.2488,-0.50082 3.6861,-1.05198 5.0463,-0.95721 1.0823,0.0754 4.2754,2.23237 2.59,7.15566 -1.0294,3.00698 -3.7307,5.5084 -6.8782,6.4515 -21.03539,6.30291 -42.87573,13.93529 -64.6844,19.4703 -3.71251,0.94223 -7.7915,1.31258 -11.8265,1.68106 -10.4517,0.95446 -20.8671,0.77051 -30.9417,0.0878 -5.7792,-0.39164 -11.4463,-0.94741 -17.4498,-3.24761 -6.6832,-2.5606 -13.7834,-7.28294 -3.2596,-14.38892 0.1657,0.27616 0.4191,0.48889 0.7198,0.60426 14.9921,4.37229 31.9133,5.22664 47.2595,3.87042 z"
       inkscape:label="ShoeSoulLeft"
       sodipodi:nodetypes="sssssssssssccss" /><path
       id="path37-1"
       style="display:inline;fill:#ed8383;fill-opacity:1;stroke:#000000;stroke-width:1.5;stroke-linecap:round;stroke-dasharray:none"
       d="m 991.9491,399.76684 c -5.1098,-1.44577 -9.5226,-2.95397 -14.6522,-5.0832 -6.2386,-2.58955 -13.5374,-6.09769 -20.8695,-7.4204 -16.19135,-2.9209 -42.99793,5.66921 -54.6003,15.98071 -4.4415,3.94728 -7.8419,8.78823 -10.4053,15.51777 -1.2665,3.32482 -2.3286,7.11063 -2.7041,10.13252 -0.082,0.65768 0.2955,1.28635 0.9143,1.52374 14.9921,4.37229 31.9133,5.22664 47.2595,3.87042 9.4358,-0.83387 18.2761,-2.50345 27.6114,-5.21641 7.8359,-2.27724 14.96217,-4.2313 23.28747,-6.24492 9.70861,-3.06894 18.97863,-5.43279 28.52573,-9.2659 1.1812,-0.4737 3.5372,-0.99242 4.8251,-0.96703 0,-3.46402 0.1133,-5.00318 0.2063,-7.57078 0.1007,-2.77994 -2.4377,-4.91447 -5.1592,-4.33822 -11.2847,2.38948 -18.242,0.77858 -24.2392,-0.9183 z"
       sodipodi:nodetypes="sssssccsssscccs"
       inkscape:label="ShoeLeft" /><path
       id="path20-9"
       style="display:inline;fill:#fdbe2c;fill-opacity:1;stroke:#000000;stroke-width:1.5;stroke-linecap:round;stroke-dasharray:none"
       d="m 1058.5255,304.1661 c -1.6113,5.77851 -2.783,11.67066 -3.5051,17.62599 -6.0347,0.46044 -12.0041,1.55459 -17.8098,3.26438 4.7178,3.47508 9.6927,6.58681 14.8819,9.30835 -0.8026,6.27135 -1.3066,12.57733 -1.51,18.89657 5.9131,-4.68031 11.5915,-9.64968 17.0145,-14.88997 5.5528,1.79321 11.3396,2.75832 17.1737,2.86423 -3.2473,-4.44848 -6.7328,-8.71812 -10.4412,-12.79022 3.5367,-3.63493 6.5473,-7.74686 8.9444,-12.2162 -4.9483,-0.55119 -9.955,-0.23066 -14.7927,0.94705 -2.8473,-4.67784 -6.1847,-9.03916 -9.9557,-13.01018 z"
       sodipodi:nodetypes="ccccccccccc"
       inkscape:label="Star" /><path
       id="path24-3"
       style="display:inline;fill:#7dc6a9;fill-opacity:1;stroke:#000000;stroke-width:1.5;stroke-linecap:round;stroke-dasharray:none"
       d="m 984.71517,354.71379 c 0.7846,-1.90282 0.94576,-2.10681 1.84016,-3.79591 1.2487,-2.35852 0.80487,-5.54913 -0.36463,-7.8639 -1.1847,-2.34467 -4.1998,-3.79072 -6.9902,-3.8834 -3.9799,-0.13219 -7.5025,2.48886 -9.8056,5.82511 -3.4239,4.95999 -4.1521,11.50075 -2.07,16.82947 2.9639,7.58553 11.6226,12.71497 20.1426,13.30041 7.5106,0.51608 14.9135,-2.49891 19.5969,-8.28918 4.5078,-5.57306 6.4963,-13.71711 4.6465,-19.94564 -1.3983,-4.70798 -4.9895,-8.32154 -9.0959,-12.52593 -1.4664,-1.5015 -2.9985,-3.07834 -2.9834,-4.65418 0.016,-1.61356 1.6534,-3.22606 3.2221,-4.65417 4.2563,-3.87483 8.003,-6.39222 10.7404,-10.97907 1.1912,-1.99598 2.1913,-4.38383 1.7721,-6.44424 -0.6965,-3.42397 -5.3122,-5.94371 -9.2904,-6.08623 -3.7472,-0.13425 -6.9288,1.8407 -9.7857,3.69947 -7.4238,4.83025 -13.868,11.01998 -18.9932,18.24336 -2.4134,3.40145 -1.4929,8.12991 2.0204,10.3775 1.6368,1.04715 3.6785,2.6795 5.4983,4.50416 1.982,1.98721 3.7007,4.20251 4.0051,6.62427 0.0457,4.13078 -0.78551,11.10995 -4.289,13.46624 -1.70168,0.92265 -0.94102,-1.02074 0.18347,-3.74814 z"
       inkscape:label="Arm"
       sodipodi:nodetypes="ssssssssssssssscccssss" /><path
       id="path14-9"
       style="display:inline;fill:#7dc6a9;fill-opacity:1;stroke:#000000;stroke-width:5.66929141;stroke-linecap:round;stroke-dasharray:none"
       d="m 4888.5436,-534.29969 c -0.9719,-11.67282 -4.0971,-24.05903 -12.0109,-29.7982 -7.2559,-5.26202 -18.5372,-4.93629 -28.6737,-6.74676 -26.0274,-4.64874 -41.1799,-27.84161 -63.532,-41.0428 -18.1864,-10.74093 -25.3115,-12.95789 -57.3475,-12.36906 -22.5837,0.41509 -43.8444,3.97941 -62.4075,12.36906 -33.5875,15.17993 -57.8157,53.71877 -67.4676,93.56439 -26.0387,6.7058 -49.9373,-1.19998 -71.3866,-12.8936 -19.4732,-10.61637 -36.9276,-24.35484 -53.49,-39.62799 -14.2565,-13.14683 -27.8522,-27.43078 -49.1174,-27.00388 -33.187,49.02174 -97.7276,65.58653 -150.421,38.60663 14.4992,63.14552 -14.9574,128.19907 -71.9779,158.96017 -57.0205,30.76109 -127.5634,19.65468 -172.3744,-27.13884 -66.1565,27.37635 -116.4162,83.84107 -137.0573,153.3311 -16.9711,57.13449 -13.9197,123.0742 13.6854,172.7282 36.1045,64.942242 114.2102,102.026304 192.0528,120.297999 138.1289,32.422447 275.4295,5.610028 399.3775,-46.935387 119.9254,-50.840121 227.3507,-125.770072 318.4033,-223.604632 45.807,-49.21887 87.4702,-104.23471 102.283,-166.8868 3.7532,-15.8741 5.7826,-32.23843 2.9123,-49.50816 -3.0107,-18.11433 -11.412,-37.22479 -31.4523,-36.69452 l -2.0488,0.0546 c 2.0726,-9.41661 2.9171,-19.25561 2.0506,-29.66155 z"
       transform="matrix(0.26458333,0,0,0.26458333,-98.505701,292.30108)"
       sodipodi:nodetypes="sssssscssccscsssssssccss"
       inkscape:label="Face" /><path
       d="m 3957.8125,-258.23375 c 39.7142,-48.23794 100.9565,-42.32495 151.7676,-19.89842 57.0064,25.16095 100.8828,71.10787 154.5983,96.55797 74.2073,35.15899 167.1928,31.19964 251.6711,8.36917 94.4978,-25.53821 178.3509,-74.68931 243.7107,-141.23124 37.4266,-38.10359 68.7894,-81.90963 97.8549,-128.21991 12.2797,-19.56539 24.1495,-39.57777 29.0772,-61.98211"
       style="display:inline;fill:none;stroke:#000000;stroke-width:5.66929141;stroke-linecap:round;stroke-dasharray:none"
       id="path15-12"
       inkscape:label="MouthLine"
       transform="matrix(0.26458333,0,0,0.26458333,-98.505706,292.30108)" /><path
       d="m 3979.0909,-220.94718 c -5.8877,8.9005 -17.7124,15.93321 -29.4992,18.23766 -2.1637,0.42302 -4.3262,0.68672 -6.4264,0.63012 -7.4609,-0.20107 -14.1371,-4.44417 -15.9753,-10.8909 -1.5722,-5.51345 0.3941,-12.63869 1.801,-17.06022"
       style="display:inline;fill:none;stroke:#000000;stroke-width:5.66929141;stroke-linecap:round;stroke-dasharray:none"
       id="path17-08"
       inkscape:label="MouthCorner"
       transform="matrix(0.26458333,0,0,0.26458333,-98.505706,292.30108)" /><path
       d="m 4597.1026,-518.32306 c -5.9531,24.57576 -6.3611,49.64864 0,70.04458"
       style="display:inline;fill:none;stroke:#000000;stroke-width:5.66929141;stroke-linecap:round;stroke-dasharray:none"
       id="path18-3"
       inkscape:label="NoseLine"
       transform="matrix(0.26458333,0,0,0.26458333,-98.505706,292.30108)" /><path
       d="m 1163.4706,138.97074 c -1.874,-0.6444 -2.6451,-0.73727 -4.1551,-0.53554 -0.3265,0.0436 -0.6876,0.10101 -1.009,0.22169 -1.2502,0.46936 -1.9012,1.89601 -1.9764,3.20799 -0.6343,3.10529 2.3447,5.55608 4.7203,7.1922 1.5877,1.00307 3.8973,0.0599 5.2112,-1.01846 1.5582,-1.27878 2.0781,-3.5699 1.2297,-5.42269 -0.1592,-0.34783 -0.3667,-0.6802 -0.6085,-1.00579 -0.7896,-1.06305 -1.9451,-2.05367 -3.0175,-2.49402 -0.134,-0.0551 -0.2668,-0.1015 -0.3944,-0.14538 z"
       style="display:inline;fill:#ffffff;fill-opacity:1;stroke:#000000;stroke-width:1.5;stroke-linecap:round;stroke-opacity:1;stroke-dasharray:none"
       id="path25-9"
       inkscape:label="NoseRight"
       sodipodi:nodetypes="ssscsssssss" /><path
       d="m 1139.1656,156.77076 c -0.9055,-1.364 -2.7306,-2.38407 -4.3633,-2.26245 -1.7985,0.13398 -3.3634,1.65342 -4.2825,3.31287 -0.7989,1.44257 -1.1097,2.99094 -0.9696,4.60571 0.1689,1.94704 0.9933,3.99061 2.6665,5.00972 1.7634,1.07413 4.4697,1.0102 5.9793,-0.1616 1.6779,-1.30245 2.1582,-3.97356 2.1391,-6.38335 -0.012,-1.52802 -0.3928,-2.95097 -1.1695,-4.1209 z"
       style="display:inline;fill:#ffffff;fill-opacity:1;stroke:#000000;stroke-width:1.5;stroke-linecap:round;stroke-opacity:1;stroke-dasharray:none"
       id="path26-8"
       inkscape:label="NoseLeft"
       sodipodi:nodetypes="ssssssss" /><path
       id="path30-7"
       style="display:inline;fill:#ffffff;fill-opacity:1;stroke:#000000;stroke-width:1.5;stroke-linecap:round;stroke-dasharray:none"
       d="m 1119.2942,220.74499 c -1.8921,-1.02737 -4.2283,0.14796 -4.5311,2.27953 -0.8027,5.6501 -0.7103,11.39137 0.2739,17.0127 5.6865,-2.3962 11.1753,-5.1359 16.4367,-8.19552 -3.1026,-4.62954 -7.2819,-8.43733 -12.1795,-11.09671 z"
       inkscape:label="Tooth"
       sodipodi:nodetypes="ccccc" /><path
       d="m 4443.2511,-663.53166 a 117.16535,117.16535 0 0 0 -234.3307,0 117.16535,117.16535 0 0 0 234.3307,0 z"
       style="display:inline;fill:#ffffff;fill-opacity:1;stroke:#000000;stroke-width:5.66929141;stroke-linecap:round;stroke-dasharray:none"
       id="path81-2"
       inkscape:label="EyeballRight"
       transform="matrix(0.26458333,0,0,0.26458333,-98.505698,292.30108)" /><path
       d="m 4276.3398,-527.01604 a 144,144 0 0 0 -288,0 144,144 0 0 0 288,0 z"
       style="display:inline;fill:#ffffff;fill-opacity:1;stroke:#000000;stroke-width:5.66929141;stroke-linecap:round;stroke-dasharray:none"
       id="path10-3"
       inkscape:label="EyeballLeft"
       transform="matrix(0.26458333,0,0,0.26458333,-98.50569,292.30108)" /><path
       d="m 4110.9029,-589.35581 a 41.574803,41.574803 0 0 0 -83.1496,0 41.574803,41.574803 0 0 0 83.1496,0 z"
       style="display:inline;fill:#000000;fill-opacity:1;stroke:#000000;stroke-width:5.66929141;stroke-linecap:round;stroke-dasharray:none"
       id="path9-8"
       inkscape:label="IrisLeft"
       transform="matrix(0.26458333,0,0,0.26458333,-98.50569,292.30108)" /><path
       d="m 4315.5478,-715.67423 a 35.90555,35.90555 0 0 0 -71.8111,0 35.90555,35.90555 0 0 0 71.8111,0 z"
       style="display:inline;fill:#000000;fill-opacity:1;stroke:#000000;stroke-width:5.66929141;stroke-linecap:round;stroke-dasharray:none"
       id="path82-8"
       inkscape:label="IrisRight"
       transform="matrix(0.26458333,0,0,0.26458333,-98.505698,292.30108)" /></g><g
     id="g5"
     transform="matrix(0.26458333,0,0,0.26458333,680.2924,292.30108)"
     inkscape:label="Japan"
     style="display:inline;fill:#5492cb;fill-opacity:1"><path
       id="path41-4"
       style="fill:#5492cb;fill-opacity:1;stroke:none;stroke-width:3.571;stroke-linecap:round"
       d="m 1663.01,-1002.71 h -241.89 v 45.354 h 241.89 z"
       inkscape:label="6"
       sodipodi:nodetypes="ccccc" /><path
       id="path49-6"
       style="fill:#5492cb;fill-opacity:1;stroke:none;stroke-width:3.571;stroke-linecap:round"
       d="m 1320.9683,-851.529 v -123.88293 c 25.6964,-20.13722 50.517,-41.36767 74.3937,-63.63047 l -30.9308,-33.17 c -60.6926,56.5935 -127.6153,106.11366 -199.4819,147.60636 l 22.6707,39.278 c 30.1736,-17.42081 59.5338,-36.21401 87.9883,-56.32078 v 90.11982 z"
       inkscape:label="5"
       sodipodi:nodetypes="ccccccccc" /><path
       id="path61-3"
       style="fill:#5492cb;fill-opacity:1;stroke:none;stroke-width:3.571;stroke-linecap:round"
       d="m 981.181,-833.51 72.599,-72.59496 c 14.9901,-14.99006 23.4114,-35.32099 23.4114,-56.52011 V -980.033 h 86.9293 l -7e-4,-45.357 H 933.565 v 45.357 h 98.265 v 17.40793 c 0,9.17041 -3.6419,17.96529 -10.1288,24.44993 L 949.11,-865.581 Z"
       inkscape:label="4"
       sodipodi:nodetypes="ccccccccccccc" /><path
       id="path65-3"
       style="fill:#5492cb;fill-opacity:1;stroke:none;stroke-width:3.571;stroke-linecap:round"
       d="M 1145.22,-1059.4 H 952.462 v -45.36 h 192.758 z"
       inkscape:label="3"
       sodipodi:nodetypes="ccccc" /><path
       id="path69-8"
       style="fill:#5492cb;fill-opacity:1;stroke:none;stroke-width:3.571;stroke-linecap:round"
       d="M 890.1,-959.675 H 648.21 v -45.355 H 890.1 Z"
       inkscape:label="2"
       sodipodi:nodetypes="ccccc" /><path
       id="path80-8"
       style="fill:#5492cb;fill-opacity:1;stroke:none;stroke-width:3.57165;stroke-linecap:round;stroke-dasharray:none"
       d="m 630.12,-1048.25 -20.869,-36.15 H 372.305 v 45.36 h 187.862 l -77.401,84.463 -57.849,-53.013 -30.641,33.443 144.901,132.778 30.641,-33.439 -53.613,-49.128 z"
       inkscape:label="1"
       sodipodi:nodetypes="cccccccccccc" /></g><g
     id="g44"
     inkscape:label="MARTY"
     transform="matrix(0.42086559,0,0,0.49271671,-21.178436,-43.407796)"
     style="fill:#5492cb;fill-opacity:1">
	
	<path
   class="st1"
   d="m 985.1211,300.9 h -111.9 c -47.8,0 -91.5,26.3 -113.8,68.3 l -122.8,230.9 -8.7,-249.1 c -1,-28 -23.9,-50.1 -51.9,-50.1 h -98.7 c -47.7,0 -91.4,26.3 -113.7,68.3 L 50.32114,958.4 H 256.3211 l 198,-372.2 13,372.2 h 184.9 l 202.9,-381.8 V 958.4 H 1037.021 V 352.9 c 0.1,-28.7 -23.1,-52 -51.8999,-52 z"
   id="path27-4"
   inkscape:label="M"
   style="fill:#5492cb;fill-opacity:1" /><path
   class="st1"
   d="m 1685.9,421.8 c -12.3,-70 -73.2,-121 -144.2,-121 h -35.5 -360.6 v 165.3 h 327 c 21.1,0 39.1,15.1 42.7,35.8 l 23.8,134.9 -118.9,-140.3 -228.6,119.9 c -167.7,87.9 -105.3,341.8 84.1,341.8 h 320.1 v 0.1 h 87.5 c 50.7,0 89,-45.8 80.3,-95.6 z m -360.6,371.3 c -20.2,0 -26.9,-27.2 -9,-36.5 l 223.2,-117.1 27.1,153.6 z"
   id="path25-4"
   style="display:inline;fill:#5492cb;fill-opacity:1"
   inkscape:label="A" /><path
   class="st1"
   d="m 2463.8,556.5 c 7.9,-6.5 14.8,-13.4 20.8,-20.8 0.1,-0.1 0.1,-0.1 0.2,-0.2 v 0 c 73.7,-90.2 12.5,-237.6 -115.1,-237 l -448.1,2.3 h -79.8 v 657.5 h 181.9 V 655.5 l 519.8,519.8 128.7,-128.6 L 2302.5,677 c 59.6,-35.6 113.8,-74.9 161.3,-120.5 z m -184.4,-68.3 v 0 c -76.3,60.3 -155.6,104 -255.7,142.3 V 466.2 H 2272 c 11.7,0 16.6,15 7.4,22 z"
   id="path32-4"
   inkscape:label="R"
   style="fill:#5492cb;fill-opacity:1" /><polygon
   class="st1"
   points="2554.1,466.2 2742.6,466.2 2742.6,958.4 2924.5,958.4 2924.5,466.2 3113.2,466.2 3113.2,300.9 2924.5,300.9 2742.6,300.9 2554.1,300.9 "
   id="polygon28"
   inkscape:label="T"
   style="fill:#5492cb;fill-opacity:1" /><path
   class="st1"
   d="m 3608.2,300.9 -90.9,243.2 c -83.7,4.8 -171.2,-48.6 -171.3,-160.5 h 0.1 V 301 h -181.9 v 82.5 h -0.1 c 0,203.4 135.8,316.4 286.6,338.7 l -11.1,29.8 c -9.3,24.8 -33,41.2 -59.4,41.2 H 3175 v 165.3 h 254.4 c 76.5,0 145,-47.6 171.8,-119.2 L 3802.4,301 Z"
   id="path30-4"
   inkscape:label="Y"
   style="fill:#5492cb;fill-opacity:1" />
</g><g
     id="g195"
     transform="matrix(0.30451145,0,-0.02773637,0.35649835,-172.01594,-9.942329)"
     inkscape:label="FM TOWNS"
     style="fill:#5492cb;fill-opacity:1"><polygon
       class="st1"
       points="1216.9,217.6 1216.9,148 1274,148 1274,109 1216.9,109 1216.9,79.4 1279.8,79.4 1279.8,40.4 1164.7,40.4 1164.7,217.6 "
       id="polygon33"
       inkscape:label="F"
       style="fill:#5492cb;fill-opacity:1" /><polygon
       class="st1"
       points="1382.3,40.4 1331,40.4 1296.9,217.8 1348.8,217.8 1365.6,115.6 1366.1,115.6 1412.1,217.8 1432.9,217.8 1481.1,115.6 1481.5,115.6 1496.1,217.8 1548.3,217.8 1518,40.4 1466.1,40.4 1423,135.2 "
       id="polygon34"
       inkscape:label="M"
       style="fill:#5492cb;fill-opacity:1"
       transform="translate(25.863541)" /><polygon
       class="st1"
       points="1646.2,40.4 1646.2,79.4 1689.2,79.4 1689.2,217.8 1741.4,217.8 1741.4,79.4 1784.4,79.4 1784.4,40.4 "
       id="polygon35"
       inkscape:label="T"
       style="fill:#5492cb;fill-opacity:1"
       transform="translate(76.461265)" /><path
       class="st1"
       d="m 2114.0546,125.7 c 0,-53.7 -53.2,-91.3 -110.9,-91.3 -57.8,0 -110.9,37.6 -110.9,91.3 0,57.5 46.6,98 110.9,98 64.3,0 110.9,-40.6 110.9,-98 z m -167.5,0.3 c 0,-24.5 25.5,-46.9 56.7,-46.9 31.2,0 56.7,22.4 56.7,46.9 0,30.6 -25.6,53 -56.7,53 -31.2,0 -56.7,-22.3 -56.7,-53 z"
       id="path37-4"
       inkscape:label="O"
       style="fill:#5492cb;fill-opacity:1" /><polygon
       class="st1"
       points="2072.6,40.4 2018.4,40.4 2078,217.8 2131,217.8 2170.4,114.9 2170.9,114.9 2206,217.8 2259.2,217.8 2323.3,40.4 2269,40.4 2231.2,155 2230.7,155 2191.4,40.4 2149.9,40.4 2107.9,155 2107.4,155 "
       id="polygon38"
       inkscape:label="W"
       style="fill:#5492cb;fill-opacity:1"
       transform="translate(125.11849)" /><polygon
       class="st1"
       points="2388.7,109.1 2389.2,109.1 2484.7,217.8 2536.8,217.8 2536.8,40.4 2484.7,40.4 2484.7,148.9 2484.1,148.9 2388.6,40.4 2336.5,40.4 2336.5,217.8 2388.7,217.8 "
       id="polygon39"
       inkscape:label="N"
       style="fill:#5492cb;fill-opacity:1"
       transform="translate(152.92265)" /><path
       class="st1"
       d="m 2817.9824,183.3 c -17.8,0 -33.3,-8.3 -46.3,-18.3 l -22.4,37.1 c 20.5,12.6 45.2,20.2 70.5,20.2 20.2,0 41.2,-4.9 56.9,-16.6 15.9,-11.9 20.7,-30.1 20.7,-47.8 0,-28.7 -21.5,-41.2 -49.4,-48.4 l -13.3,-3.5 c -9.1,-2.7 -23.1,-6.6 -23.1,-16.9 0,-9.9 12.7,-14.8 22.4,-14.8 12.8,0 25,4.7 34.7,11.8 l 20.8,-35.6 c -17.8,-9 -42.5,-14.6 -62.7,-14.6 -40.1,0 -69.1,23.5 -69.1,59.5 0,34.4 21.5,41.8 54.3,50.1 11.2,2.8 31.7,7.3 31.7,20.2 -0.4,12.3 -13.5,17.6 -25.7,17.6 z"
       id="path41-2"
       inkscape:label="S"
       style="fill:#5492cb;fill-opacity:1" /></g></svg>
