<?xml version="1.0" encoding="UTF-8" standalone="no"?>
<svg
   xmlns:dc="http://purl.org/dc/elements/1.1/"
   xmlns:cc="http://creativecommons.org/ns#"
   xmlns:rdf="http://www.w3.org/1999/02/22-rdf-syntax-ns#"
   xmlns:svg="http://www.w3.org/2000/svg"
   xmlns="http://www.w3.org/2000/svg"
   xmlns:sodipodi="http://sodipodi.sourceforge.net/DTD/sodipodi-0.dtd"
   xmlns:inkscape="http://www.inkscape.org/namespaces/inkscape"
   id="svg"
   width="400"
   height="144.34782608695653"
   viewBox="0, 0, 400,144.34782608695653"
   version="1.1"
   sodipodi:docname="image2vector.svg"
   inkscape:version="0.92.4 (5da689c313, 2019-01-14)">
  <metadata
     id="metadata9">
    <rdf:RDF>
      <cc:Work
         rdf:about="">
        <dc:format>image/svg+xml</dc:format>
        <dc:type
           rdf:resource="http://purl.org/dc/dcmitype/StillImage" />
      </cc:Work>
    </rdf:RDF>
  </metadata>
  <defs
     id="defs7" />
  <sodipodi:namedview
     pagecolor="#ffffff"
     bordercolor="#666666"
     borderopacity="1"
     objecttolerance="10"
     gridtolerance="10"
     guidetolerance="10"
     inkscape:pageopacity="0"
     inkscape:pageshadow="2"
     inkscape:window-width="640"
     inkscape:window-height="480"
     id="namedview5"
     showgrid="false"
     inkscape:zoom="1.2621856"
     inkscape:cx="100.57588"
     inkscape:cy="105.22298"
     inkscape:current-layer="svg" />
  <g
     id="svgg"
     style="fill:#4362ff;fill-opacity:1">
    <path
       id="path0"
       d="m 123.478,12.916 c 0,4.449542 4e-5,13.765995 0.59913,13.731032 2.87395,-0.167723 3.99101,-0.0098 4.22887,-1.864032 0.354,-2.357 0.34876,-5.497553 1.03776,-5.497553 1.519,0 4.56924,-0.833447 4.56924,-2.391447 0,-0.8 -0.927,-1.242 -2.609,-1.242 -3.658,0 -3.39,-2.268 0.351,-2.97 2.675,-0.502 3.997,-1.844 3.997,-4.057 0,-0.44 -2.739,-0.799 -6.087,-0.799 h -6.087 v 5.09 m 14.985,4.258 c -2.408,11.585 -2.408,11.709 0.009,11.365 1.628,-0.232 2.143,-1.175 3.119,-5.713 0.643,-2.989 1.457,-5.435 1.81,-5.435 0.353,0 1.395,2.446 2.316,5.435 1.324,4.297 2.038,5.435 3.413,5.435 1.375,0 2.09,-1.138 3.414,-5.435 0.92,-2.989 1.963,-5.435 2.316,-5.435 0.353,0 1.167,2.446 1.81,5.435 1.09,5.067 5.069,8.911 5.069,4.895 0,-7.045 -3.944,-19.895 -6.107,-19.895 -2.144,0 -2.455,0.47 -3.885,5.87 -2.577,9.734 -2.959,9.518 -6.134,-3.479 -0.455,-1.862 -1.095,-2.391 -2.896,-2.391 -2.238,0 -2.373,0.296 -4.254,9.348 m 34.58,-8.106 c 0,1.602 2.374,3.975 3.976,3.975 0.886,0 1.242,1.086 1.242,3.792 0,7.371 0.987,11.861 2.609,11.861 1.621,0 2.608,-4.49 2.608,-11.861 0,-2.706 0.356,-3.792 1.242,-3.792 1.602,0 3.976,-2.373 3.976,-3.975 0,-0.984 -1.624,-1.242 -7.826,-1.242 -6.203,0 -7.827,0.258 -7.827,1.242 m 40.88,0.715 c 0.017,1.837 5.187,18.371 5.999,19.182 1.798,1.799 4.018,0.066 5.366,-4.19 0.757,-2.387 1.899,-4.34 2.538,-4.34 0.639,0 1.781,1.953 2.538,4.34 1.349,4.256 3.568,5.989 5.367,4.19 0.811,-0.811 5.981,-17.345 5.998,-19.182 0.021,-2.323 -4.127,-1.179 -4.726,1.304 -2.62,10.854 -3.152,11.182 -5.296,3.261 -1.771,-6.542 -5.643,-8.378 -6.878,-3.261 -2.62,10.854 -3.152,11.182 -5.296,3.261 -1.436,-5.303 -5.648,-8.731 -5.61,-4.565 m 32.164,4.002 c 0,9.925 0.972,15.78 2.619,15.78 1.525,0 2.567,-3.59 2.589,-8.913 0.014,-3.525 1.098,-2.997 6.694,3.261 6.485,7.251 7.678,7.295 8.409,0.307 1.291,-12.352 0.872,-15.524 -2.05,-15.524 -2.606,0 -2.609,0.005 -2.609,5.166 0,6.972 -0.676,7.02 -6.776,0.471 -6.952,-7.462 -8.876,-7.581 -8.876,-0.548 m 27.108,-3.077 c -3.452,3.675 -1.985,7.803 3.341,9.399 5.655,1.694 5.251,6.461 -0.481,5.676 -3.139,-0.431 -4.053,-0.259 -4.475,0.839 -0.731,1.905 1.215,2.914 5.651,2.93 9.766,0.035 11.345,-8.774 2.254,-12.573 -4.5,-1.88 -4.1,-4.623 0.725,-4.972 2.69,-0.196 3.766,-0.68 3.977,-1.79 0.485,-2.558 -8.505,-2.157 -10.992,0.491 M 194.36,11.45 c -4.126,3.246 -5.161,7.036 -3.158,11.565 3.864,8.734 14.602,8.734 18.465,0 4.048,-9.15 -7.39,-17.792 -15.307,-11.565 m 10.683,3.507 c 3.362,3.361 0.263,10.26 -4.608,10.26 -4.871,0 -7.97,-6.899 -4.609,-10.26 1.352,-1.352 7.866,-1.352 9.217,0 M 48.428,33.105 c -6.49,1.053 -10.065,7.152 -23.661,40.373 -4.584,11.201 -8.58,20.249 -13.209,29.908 l -4.331,9.039 10.902,-0.583 c 5.996,-0.321 11.032,-0.713 11.191,-0.872 0.159,-0.159 2,-4.747 4.091,-10.195 2.09,-5.448 5.148,-12.84 6.795,-16.427 1.647,-3.587 4.328,-9.554 5.959,-13.26 3.961,-9 4.27,-8.649 4.27,4.861 0,6.381 0.254,16.902 0.565,23.38 l 0.565,11.778 3.782,0.427 c 2.081,0.234 5.581,0.224 7.778,-0.024 l 3.994,-0.45 5.788,-11.834 c 3.184,-6.509 7.941,-16.428 10.571,-22.042 2.631,-5.613 5.014,-10.211 5.296,-10.217 0.282,-0.006 0.766,9.832 1.075,21.862 0.309,12.03 0.758,22.068 0.996,22.306 0.514,0.514 17.723,0.593 18.211,0.084 0.528,-0.55 0.966,-33.213 0.727,-54.131 l -0.218,-18.999 -2.568,-2.399 c -4.578,-4.276 -16.169,-4.151 -20.723,0.224 -1.299,1.247 -5.669,8.74 -9.712,16.652 -4.043,7.912 -7.636,14.093 -7.984,13.735 C 68.229,65.944 67.512,60.37 66.983,53.913 65.286,33.191 63.089,30.727 48.428,33.105 m 74.643,9.005 c -0.775,10.326 -2.693,9.141 15.714,9.701 20.664,0.629 18.757,-0.107 20.563,7.934 2.743,12.211 1.969,13.566 -3.471,6.082 -2.156,-2.966 -4.215,-5.716 -4.575,-6.113 -1.537,-1.688 -19.308,9.419 -25.784,16.116 -12.335,12.755 -11.187,26.953 2.743,33.927 5.159,2.583 49.645,2.835 53.111,0.301 2.493,-1.823 2.978,-7.282 1.587,-17.884 -0.721,-5.5 -1.851,-14.5 -2.511,-20 -4.315,-35.979 -5.227,-36.933 -36.229,-37.881 l -20.515,-0.627 -0.633,8.444 m 141.538,1.035 c 0.626,11.06 -0.501,9.815 9.471,10.47 l 8.254,0.542 0.545,28.691 c 0.299,15.781 0.753,28.899 1.007,29.154 0.603,0.603 18.582,0.603 19.185,0 0.254,-0.255 0.707,-13.373 1.007,-29.154 l 0.545,-28.691 8.253,-0.542 c 9.972,-0.655 8.846,0.59 9.472,-10.47 l 0.523,-9.232 h -29.393 -29.392 l 0.523,9.232 m 61.479,-7.71 c 0.01,15 4.195,31.077 9.401,36.119 3.241,3.139 17.382,11.055 19.75,11.055 2.418,0 1.442,4.362 -1.674,7.478 l -2.956,2.956 h -11.523 -11.522 l 0.523,9.233 c 0.64,11.305 -0.928,10.192 14.303,10.154 23.807,-0.06 25.77,-2.189 39.9,-43.3 4.086,-11.889 6.769,-21.058 9.351,-31.956 l 0.566,-2.391 h -9.863 -9.864 l -1.882,6.304 c -1.036,3.467 -3.078,10.315 -4.538,15.217 -2.537,8.512 -2.765,8.913 -5.058,8.913 -3.295,0 -10.4,-4.678 -11.543,-7.601 -1.379,-3.527 -3.307,-14.819 -3.342,-19.573 l -0.03,-4.13 h -10 c -8.945,0 -10,0.161 -9.999,1.522 M 192.415,72.557 c 0.286,20.933 0.739,38.279 1.007,38.546 0.594,0.595 16.052,0.583 16.647,-0.013 0.234,-0.234 0.67,-8.303 0.968,-17.932 0.298,-9.628 0.798,-17.506 1.111,-17.506 0.645,0 3.016,3.115 8.599,11.299 5.762,8.446 12.81,17.858 19.215,25.658 3.141,3.826 6.846,8.521 8.233,10.434 1.386,1.914 5.286,6.414 8.666,10 l 6.145,6.522 7.41,-7.391 7.41,-7.391 -11.615,-11.305 C 252.152,99.795 238.28,83.166 238.267,79.979 c -0.004,-0.729 3.31,-3.774 7.363,-6.768 15.148,-11.188 18.535,-21.434 10.163,-30.746 -6.041,-6.719 -5.954,-6.702 -36.736,-7.374 l -27.163,-0.594 0.521,38.06 M 237.214,55.66 c 0.362,4.289 -3.3,7.566 -15.021,13.441 -11.491,5.76 -10.889,6.123 -10.889,-6.567 V 52.127 l 12.826,0.241 12.827,0.241 0.257,3.051 M 162.086,75 c 0.303,1.076 0.799,5.783 1.104,10.459 l 0.554,8.502 -12.959,-0.241 -12.959,-0.242 -0.256,-2.611 c -0.364,-3.704 4.566,-8.235 14.718,-13.524 9.511,-4.955 9.092,-4.855 9.798,-2.343"
       style="fill:#4362ff;fill-opacity:1;fill-rule:evenodd;stroke:none"
       inkscape:connector-curvature="0"
       sodipodi:nodetypes="cscssscsscccccscscscssccsccsssssssccccscscccccccscccssccccccccccccccccssccccccscscscccccccssscccccsccccccccccccccccccccccccccccccccssccccccccccccscccscccccsccccccccccccccccscccccccccccc" />
  </g>
</svg>
