<?xml version="1.0" encoding="UTF-8" standalone="no"?>
<!-- Created by ERK -->

<svg
   width="1015.9721mm"
   height="333.38663mm"
   viewBox="0 0 1015.9721 333.38663"
   version="1.1"
   id="svg1"
   inkscape:version="1.4 (86a8ad7, 2024-10-11)"
   sodipodi:docname="fmtowns.svg"
   xmlns:inkscape="http://www.inkscape.org/namespaces/inkscape"
   xmlns:sodipodi="http://sodipodi.sourceforge.net/DTD/sodipodi-0.dtd"
   xmlns="http://www.w3.org/2000/svg"
   xmlns:svg="http://www.w3.org/2000/svg">
  <sodipodi:namedview
     id="namedview1"
     pagecolor="#ffffff"
     bordercolor="#000000"
     borderopacity="0.25"
     inkscape:showpageshadow="2"
     inkscape:pageopacity="0.0"
     inkscape:pagecheckerboard="true"
     inkscape:deskcolor="#d1d1d1"
     inkscape:document-units="mm"
     inkscape:zoom="0.41179678"
     inkscape:cx="2064.125"
     inkscape:cy="766.15462"
     inkscape:window-width="3840"
     inkscape:window-height="2066"
     inkscape:window-x="-11"
     inkscape:window-y="-11"
     inkscape:window-maximized="1"
     inkscape:current-layer="layer1" />
  <defs
     id="defs1" />
  <g
     inkscape:label="Layer 1"
     inkscape:groupmode="layer"
     id="layer1"
     transform="translate(378.88334,32.808333)">
    <g
       id="g2"
       transform="matrix(0.26458333,0,0,0.26458333,-378.91796,-32.770257)">
      <g
         id="g20"
         inkscape:label="FM TOWNS">
        <path
           id="rect9"
           class="st0"
           d="m 9.18935e-4,962.60064 v 53.99996 H 31.299747 v 169.5 H 9.18935e-4 v 54 H 148.60053 v -54 h -31.40039 v -51.4003 h 97.59961 v -54 h -97.59961 v -64.0997 h 133.40039 v 54.3985 h 69.29883 v -54.3985 -32.90035 -21.09961 z"
           inkscape:label="F"
           style="fill:#009971"
           transform="translate(0.12994044,-0.12994044)" />
        <path
           id="rect10"
           class="st0"
           d="m 344.29975,962.60064 v 54.09966 h 31.30078 v 169.4003 h -31.30078 v 54 h 116.70117 v -54 h -31.40039 v -105.4003 l 74.69922,159.4003 h 33.30078 l 84.09961,-169.6054 v 115.6054 h -31.40039 v 54 h 148.59961 v -54 h -31.29883 v -169.5 h 31.29883 V 962.60064 H 675.20014 614.89936 L 539.95404,1113.7784 469.10053,962.60064 Z"
           inkscape:label="M"
           style="fill:#009971"
           transform="translate(0.12994044,-0.12994044)" />
        <path
           id="polygon2"
           style="fill:#009971"
           class="st0"
           d="m 813.8,749 h 225.9 v 184.8 h 79.1 V 749 h 229.1 V 669.9 H 813.8 Z m 225.9,221.29999 h 79.0999 V 1240.1 H 1039.7 Z"
           inkscape:label="T" />
        <path
           id="path2"
           class="st0"
           d="m 1625.6,1180.9 c -119.6,0 -217.5,-93 -225.5,-210.6 h -79.2 c 8.1,161.3 141.4,289.6 304.7,289.6 163.3,0 296.7,-128.3 304.7,-289.6 h -79.2 c -7.9,117.7 -105.8,210.6 -225.5,210.6 z m -225,-247.1 c 10.6,-115 107.3,-205 225.1,-205 117.8,0 214.4,90 225.1,205 h 79.3 c -10.8,-158.7 -142.9,-284.1 -304.3,-284.1 -161.4,0 -293.5,125.4 -304.3,284.1 z"
           inkscape:label="O"
           style="fill:#009971" />
        <path
           id="polygon8"
           style="fill:#009971"
           class="st0"
           d="m 1993.3,933.8 h 81 l -58.5,-263.9 h -81 z m 282.9,-263.9 h -26.5 l -58.5,263.9 h 80.9 l 31.3,-141 31.3,141 h 81 l -58.5,-263.9 h -26.5 z m 147.6,300.4 h -81 l 59.8,269.8 h 62 19 62 l 59.8,-269.8 h -81 l -43.1,194.5 h -14.4 z m -341.4,0 h -81 l 59.8,269.8 h 62.1 18.9 62 L 2264,970.3 h -80.9 l -43.1,194.5 h -14.5 z M 2672,669.9 h -81 l -58.5,263.9 h 81 z"
           inkscape:label="W" />
        <path
           id="path4"
           class="st0"
           d="m 2935,694.4 c -6.6,-14.9 -21.4,-24.4 -37.6,-24.4 h -89.8 -48.7 -30.3 v 263.9 h 79.1 V 749 h 65.2 l 82.3,184.8 h 86.5 z m 227.2,-24.49998 h 79.0999 v 263.9 H 3162.2 Z m 0,491.19998 h -19.4 l -84.9,-190.7 h -86.5 l 109.2,245.3 c 6.6,14.9 21.4,24.4 37.6,24.4 h 43.9 43.9 35.1 V 970.3 H 3162 v 190.8 z M 2728.6001,970.29999 h 79.1 V 1240.1 h -79.1 z"
           inkscape:label="N"
           style="fill:#009971" />
        <path
           id="path9"
           class="st0"
           d="m 3828.2,970.3 h -88.6 c 47.9,69.8 15.2,190.7 -98.2,190.7 v 0 h -347.3 v 79.1 h 347.3 v 0 c 164.7,0 227,-153.6 186.8,-269.8 z M 3418.3,922 h 223.1 c 21.4,0 39.8,4.3 55.5,11.8 h 114.4 C 3780.2,881.4 3724,843.3 3642.5,843 v 0 h -224.2 c -62.7,0 -62.7,-94 0,-94 h 388.6 v -79.1 h -388.6 c -168,0 -168,252.1 0,252.1 z"
           inkscape:label="S"
           style="fill:#009971" />
      </g>
      <g
         id="g9"
         style="fill:#e50012;fill-opacity:1"
         inkscape:label="FUJITSU">
		<path
   id="path5600_6_"
   class="st0"
   d="m 1372.1085,340.91652 h 62.511 c 11.9068,0 22.9632,8.5049 23.3885,19.98651 h 0.4252 v -47.20218 h -86.3247 v -82.49751 h 83.348 c 11.9068,0 22.9632,8.5049 23.3885,19.98651 h 0.4252 v -47.20218 h -174.7756 v 0.42525 c 11.9068,0.85049 20.4117,13.18259 20.4117,24.6642 v 216.02439 c 0,11.48161 -8.9301,24.23896 -20.4117,24.6642 v 0.42525 h 88.0257 v -0.42525 c -11.9069,-0.85049 -20.837,-13.18259 -20.837,-24.6642 z"
   style="fill:#e50012;fill-opacity:1;stroke-width:4.25245"
   inkscape:label="F" />
<path
   id="path5604_6_"
   class="st0"
   d="m 1552.7177,399.4842 c 0,27.64091 22.9632,51.87987 51.4546,51.87987 28.4914,0 51.8799,-24.23896 51.8799,-51.87987 V 230.23674 c 0,-11.48161 -8.9302,-24.23895 -20.837,-24.6642 v -0.42524 h 88.4509 v 0 c -11.9068,0.85049 -20.837,13.18259 -20.837,24.6642 v 164.56976 c 0,53.15561 -43.8002,83.77324 -98.2315,83.77324 -54.4314,0 -99.0821,-31.04288 -99.0821,-83.77324 V 229.8115 c 0,-11.48161 -8.9301,-24.23896 -20.4118,-24.6642 v -0.42525 h 88.0257 v 0.42525 c -11.9068,0.85049 -20.4117,13.18259 -20.4117,24.6642 z"
   style="fill:#e50012;fill-opacity:1;stroke-width:4.25245"
   inkscape:label="U" />
<path
   id="path5620_6_"
   class="st0"
   d="m 1802.6736,229.63035 c 0,-11.48161 8.9302,-24.23896 20.4118,-24.6642 v -0.42525 h -88.0257 v 0.42525 c 11.9068,0.85049 20.4117,13.18259 20.4117,24.6642 v 270.88098 c 0,0 -0.8505,47.62742 -39.5477,75.26834 v 0.42524 c 7.6544,-1.27573 86.3247,-15.73406 86.3247,-91.85289 z"
   style="fill:#e50012;fill-opacity:1;stroke-width:4.25245"
   inkscape:label="J" />
<path
   id="path5616_6_"
   class="st0"
   d="m 1857.7926,229.40241 c 0,-11.48161 -8.9301,-23.38847 -20.837,-24.23896 v -0.42524 h 88.0257 v 0.42524 c -11.4816,0.85049 -20.4118,12.75735 -20.4118,24.23896 v 216.44963 c 0,11.48162 8.9302,24.23896 20.4118,24.66421 v 0.42524 h -88.0257 v -0.42524 c 11.9069,-0.85049 20.837,-13.18259 20.837,-24.66421 z"
   style="fill:#e50012;fill-opacity:1;stroke-width:4.25245"
   inkscape:label="I" />
<path
   id="path5612_6_"
   class="st0"
   d="m 1843.5775,111.69549 c 9.7806,9.35539 23.3884,15.30881 38.272,15.30881 30.1924,0 54.4314,-23.81371 54.4314,-52.730359 0,-28.916651 -24.239,-52.730363 -54.4314,-52.730363 0,0 -41.674,-3.827204 -60.81,48.052669 V 30.47372 c 14.0331,-17.860284 35.7206,-30.61762974 60.3848,-30.61762974 42.5245,0 76.544,33.16909874 76.544,74.41785074 0,41.248749 -34.4448,74.417849 -76.544,74.417849 -21.2623,0 -40.3983,-8.5049 -54.0061,-21.68749 L 1801.053,98.087653 c -7.2292,-6.803918 -17.0098,-11.481611 -28.0662,-11.481611 -22.1127,0 -39.5477,17.435038 -39.5477,38.697278 0,21.26225 17.8602,38.69729 39.5477,38.69729 0,0 29.3419,3.8272 48.0527,-31.46812 v 31.46812 c -11.4816,13.18259 -28.4914,22.11273 -48.0527,22.11273 -34.4448,0 -62.0857,-27.21567 -62.0857,-60.38477 0,-33.1691 27.6409,-60.384771 62.0857,-60.384771 17.0098,0 32.7439,6.803917 43.8002,17.860284 z"
   style="fill:#e50012;fill-opacity:1;stroke-width:4.25245"
   inkscape:label="dotdot" />
<path
   id="path5624_6_"
   class="st0"
   d="m 1924.9166,252.42433 h 0.4253 c 11.9068,-20.837 30.1924,-20.837 30.1924,-20.837 h 47.6274 v 214.32341 c 0,11.48161 -8.9301,24.23895 -20.837,24.6642 v 0.42524 h 88.4509 v -0.42524 c -11.9068,-0.85049 -20.837,-13.18259 -20.837,-24.6642 V 231.58733 h 39.973 c 12.3321,0 21.6875,9.35538 22.1128,21.26224 h 0.4252 l 14.4583,-48.05267 h -187.9582 z"
   style="fill:#e50012;fill-opacity:1;stroke-width:4.25245"
   inkscape:label="T" />
<path
   id="path5608_6_"
   class="st0"
   d="m 2274.0061,247.48127 c -14.8836,-23.81371 -48.4779,-20.837 -48.4779,-20.837 -55.2819,0 -52.7304,42.09924 -52.7304,42.09924 0,0 -3.8272,21.26225 23.8137,35.29533 l 55.2819,29.34189 c 53.1556,28.49141 46.7769,68.88967 46.7769,68.88967 0,0 2.5515,75.69359 -108.8627,75.69359 0,0 -32.3186,0.85049 -50.6041,-5.95343 l -15.7341,-48.90316 h 0.4253 c 17.0098,24.23896 66.3382,28.06616 66.3382,28.06616 62.511,-2.55147 62.9362,-45.07596 62.9362,-45.07596 0,0 2.9767,-18.28552 -21.6875,-31.46812 l -54.8566,-29.34189 c -57.408,-30.61763 -50.6041,-71.86638 -50.6041,-71.86638 0,0 -1.701,-74.41785 96.9558,-74.41785 0,0 44.2255,1.27573 51.4546,8.07965 v 40.39826 z"
   style="fill:#e50012;fill-opacity:1;stroke-width:4.25245"
   inkscape:label="S" />
<path
   id="path5628_6_"
   class="st0"
   d="m 2364.698,399.4842 c 0,27.64091 22.9633,51.87987 51.8799,51.87987 28.4914,0 51.8799,-24.23896 51.8799,-51.87987 V 230.23674 c 0,-11.48161 -8.9302,-24.23895 -20.4118,-24.6642 v -0.42524 h 88.0257 v 0 c -11.9068,0.85049 -20.4117,13.18259 -20.4117,24.6642 v 164.56976 c 0,53.15561 -43.8003,83.77324 -98.6568,83.77324 -54.4314,0 -98.6569,-31.04288 -98.6569,-83.77324 V 229.8115 c 0,-11.48161 -8.9301,-24.23896 -20.837,-24.6642 v -0.42525 h 88.0257 v 0.42525 c -11.9068,0.85049 -20.837,13.18259 -20.837,24.6642 z"
   style="fill:#e50012;fill-opacity:1;stroke-width:4.25245"
   inkscape:label="U" />

	</g>
    </g>
  </g>
</svg>
