<svg height="148.011" width="980.448" xmlns="http://www.w3.org/2000/svg">
    <linearGradient id="c" gradientUnits="userSpaceOnUse" x1="611.299" x2="636.076" y1="75.178" y2="84.75">
        <stop offset="0" stop-color="#687378"/>
        <stop offset=".498" stop-color="#646f74"/>
        <stop offset="1" stop-color="#333638"/>
    </linearGradient>
    <linearGradient id="b" gradientUnits="userSpaceOnUse" x1="560.294" x2="567.754" y1="166.796" y2="25.893">
        <stop offset="0" stop-color="#784421"/>
        <stop offset="1" stop-color="#7e4a2d"/>
    </linearGradient>
    <linearGradient id="a" gradientUnits="userSpaceOnUse" x1="576.557" x2="581.209" y1="165.301" y2="26.976">
        <stop offset="0" stop-color="#a56a27"/>
        <stop offset=".724" stop-color="#a56a27"/>
        <stop offset="1" stop-color="#9b6b44"/>
    </linearGradient>
    <text fill="#ef00eb" font-family="TrasksHand" font-size="2" stroke="#0105ff" stroke-width="2.5" x="471.58" y="148.39" transform="translate(-3.727 -21.675)"><tspan fill="#fafafa" fill-opacity=".4" stroke="none" x="471.58" y="148.39">John Loreth 2022</tspan></text>
    <path d="M553.614.002c-16.871.17-33.723 4.213-48.72 11.974-12.047 6.171-22.954 14.838-30.917 25.849-4.421 6.008-8.155 12.832-9.09 20.336-.788 6.343.621 13.074 4.523 18.218 4.246 5.662 11.013 8.993 17.902 10.096 2.932.474 5.916.59 8.88.434-1.065 3.566.64 7.704 3.911 9.479 2.938 1.698 6.538 1.403 9.662.425a104.9 104.9 0 0 1 6.162-1.605c-5.07 9.291-10.928 18.407-19.05 25.34-5.233 4.501-11.6 7.923-18.52 8.774a26.767 26.767 0 0 1-13.267-1.517 24.921 24.921 0 0 1-2.653-1.105c2.912-.804 5.878-1.466 8.71-2.524 5.423-2.44 9.31-8.083 9.371-14.069.19-5.633-2.435-11.34-7.04-14.649-4.602-3.493-10.66-4.457-16.295-3.826-6.428.624-12.637 3.638-16.91 8.514-4.779 5.22-7.081 12.482-6.54 19.507.43 6.545 3.513 12.826 8.325 17.268 5.582 5.263 12.943 8.226 20.368 9.765 9.043 1.847 18.385 1.56 27.495.379 13.73-1.905 27.011-7.04 38.371-14.995 10.632-7.329 19.74-16.855 26.532-27.842 3.044-4.875 5.661-10.012 7.878-15.313 9.925-1.156 19.754-3.406 29.065-7.063-2.403 5.024-4.718 10.094-7.212 15.072-3.135 5.052-6.453 9.995-9.435 15.14-2.732 4.979-4.541 10.662-4.016 16.395.275 4.656 2.021 9.515 5.842 12.416 4.093 3.146 9.69 3.637 14.572 2.365 3.589-.882 6.942-2.54 10.042-4.525.63 2.761 3.259 4.89 6.098 4.902 2.932-.074 5.863-.337 8.795-.478 4.926-.31 9.862-.531 14.78-.924 2.396-.398 4.29-2.293 5.132-4.511 4.566-9.296 7.859-19.146 12.236-28.526 2.312-4.807 4.919-9.57 8.66-13.429 1.362-1.466 2.797-2.863 4.26-4.227-1.351 4.499-3.479 8.858-5.672 12.902-2.544 4.626-5.136 9.234-7.263 14.071-1.277 2.67-2.15 5.624-1.826 8.61.303 4.667 2.492 9.362 6.458 12 4.13 2.853 9.337 3.407 14.228 3.186 6.849-.2 13.87-1.81 19.5-5.875 1.662-1.179 3.233-2.481 4.737-3.855 2.018 4.273 5.73 7.664 10.13 9.37 5.832 2.37 12.292 2.396 18.469 1.824 10.074-1.019 19.821-5.076 27.598-11.57 1.618-1.31 3.192-2.825 4.627-4.245 1.345 5.308 5.102 9.957 9.98 12.43 3.269 1.666 7.037 2.173 10.656 1.692 4.33-.484 8.505-2.203 11.958-4.854 2.44 3.16 6.466 4.603 10.336 4.916 3.908.403 7.896-.367 11.408-2.117 5.884-2.784 10.84-7.119 15.596-11.487.893-.842 1.776-1.696 2.642-2.566-.166 3.188.344 6.451 1.866 9.286 1.885 3.733 5.293 6.629 9.275 7.906 4.214 1.44 9.007 1.136 12.946-.976 4.98-2.486 9.199-6.21 13.233-9.987a152.97 152.97 0 0 0 7.875-8.063c-.288 3.365-.19 6.873 1.225 10.002 1.732 4.142 5.252 7.492 9.52 8.921 4.282 1.558 9.208 1.288 13.237-.876 4.958-2.473 9.156-6.18 13.176-9.935 4.627-4.432 9.05-9.097 13.059-14.098 1.778-2.307 3.67-4.895 3.684-7.934.024-3.184-2.211-6.324-5.38-7.011-3.066-.803-6.343.402-8.623 2.492-3.11 2.488-5.802 5.437-8.567 8.29 1.128-3.732 2.407-7.479 4.472-10.808.662-.94 1.771-1.449 2.628-2.202 7.724-5.881 15.567-11.622 22.927-17.964 15.988-13.594 30.706-28.91 42.191-46.544 2.706-4.11 5.194-8.502 6.148-13.385.615-3.215.858-6.749-.717-9.74-1.502-3.022-4.4-5.214-7.646-6.054-4.057-1.149-8.374-1.043-12.505-.383-8.221 1.463-15.618 5.766-22.196 10.749-.518.39-1.025.792-1.535 1.193.122-3.625-1.539-7.275-4.48-9.432-2.959-2.263-6.808-2.876-10.44-2.989-6.497-.184-12.885 1.763-18.592 4.764-8.04 4.225-15.012 10.184-21.467 16.51-8.086 8.088-15.44 16.884-22.294 26.032-10.32 13.854-19.23 28.817-25.856 44.79a6.626 6.626 0 0 0-2.846-.625c3.85-5.604 7.394-11.465 10.012-17.753.77-1.992 1.571-4.01 1.938-6.118.336-3.273-2.368-6.494-5.66-6.697-4.32-.574-8.708-.646-13.05-.305-2.423.276-4.891.932-6.85 2.446-2.794-1.487-5.888-2.801-9.125-2.447-7.2.365-13.893 3.664-19.69 7.762-5.748 4.063-10.89 8.918-15.686 14.056.383-3.931.596-8.062-.941-11.793-1.827-4.706-5.784-8.762-10.795-9.925a17.659 17.659 0 0 0-5.91-.417c1.455-2.835 2.641-5.798 4.2-8.58 4.828-9.28 9.707-18.535 14.489-27.837 1.497-3.234-.505-7.508-3.966-8.395-1.966-.506-4.015-.222-6.02-.34-3.661-.046-7.418-.417-10.97.704a29.135 29.135 0 0 0-7.882 3.69c-1.61 1.342-2.389 3.355-3.573 5.036-12.662 20.296-24.884 40.868-36.713 61.66-2.886 5.118-5.718 10.266-8.411 15.488-1.598 1.003-2.953 2.223-4.442 3.292-3.03 2.327-6.032 4.856-9.703 6.112 4.149-7.914 8.805-15.728 11.006-24.468 1.271-5.222 1.194-11.037-1.493-15.819-2.171-3.83-6.132-6.458-10.415-7.324-4.756-1.103-9.809-.608-14.332 1.191-3.623 1.335-7.006 3.225-10.344 5.147-.996-3.613-3.307-6.955-6.693-8.686-3.685-2.024-8.442-2.346-12.138-.173-.928.503-1.8 1.102-2.653 1.72 1.854-3.347 2.106-7.293 1.95-11.04-.183-3.971-1.86-8.095-5.266-10.353a12.808 12.808 0 0 0-3.833-1.748c.883-8.023-1.266-16.399-6.212-22.817A33.512 33.512 0 0 0 618.472 21c2.48-.766 5.104-1.563 7.04-3.375 2.033-1.975 2.737-5.126 1.759-7.784-.987-3.185-3.953-5.61-7.273-5.942-3.09-.39-6.21.102-9.258.605-4.208.78-8.321 1.997-12.372 3.366-8.294-3.813-17.153-6.653-26.306-7.263-6.133-.535-12.295-.624-18.448-.605zM117.972 4.57c-16.05.186-31.96 4.335-46.277 11.533-11.986 5.933-23.015 14.104-31.338 24.645-4.572 5.724-8.626 12.145-10.194 19.392-1.406 6.433-.694 13.497 2.836 19.152 2.809 4.606 7.276 8.038 12.25 10.031 4.742 1.927 9.906 2.651 15.004 2.54-3.058 1.899-6.25 4.083-7.765 7.483-1.123 2.362-1.218 5.242.06 7.566.982 2.276 3.252 3.702 5.608 4.209 2.165.68 4.453-.017 6.347-1.118 5.718-3.011 11.426-6.04 17.166-9.01.928-.596.392.134.068.66-4.423 7.395-9.954 14.345-17.187 19.163-5.314 3.534-11.503 5.689-17.851 6.302a49.66 49.66 0 0 1-6.905.23c-.347-.018-1.137-.056-1.653-.104-3.619-.332-7.23-.995-10.654-2.237-.79-.152-.131-.321.498-.414 1.707-.407 3.284-.803 4.978-1.123 5.466-.99 10.41-5.122 11.837-10.566 1.236-5.323-.385-11.329-4.379-15.115-3.805-3.546-9.133-4.847-14.21-4.978-6.286-.316-12.742 1.503-17.679 5.472-4.155 3.289-7.095 8.081-8.028 13.308-1.174 6.176.24 12.79 3.851 17.94 3.96 5.722 10.208 9.444 16.712 11.61 10.43 3.472 21.594 3.938 32.487 3.28 14.814-.86 29.677-4.557 42.482-12.222 8.846-5.221 16.515-12.386 22.442-20.768-1.398 2.814-2.96 5.611-3.519 8.742-.88 4.078-.322 8.464 1.735 12.112 3.054 5.7 9.031 9.97 15.59 10.213 5.657.294 11.372-1.517 15.899-4.905 2.623 3.233 6.854 4.616 10.887 4.88 3.848.32 7.749-.464 11.208-2.168 5.723-2.672 10.59-6.811 15.237-11.018 2.124-1.961 4.248-4.02 6.185-6.114-.294 3.527-.416 7.223 1.027 10.539 1.662 4.21 5.194 7.631 9.49 9.08 4.268 1.562 9.179 1.3 13.2-.85 5.135-2.545 9.47-6.391 13.632-10.268a89.91 89.91 0 0 0 1.868-1.807c1.992 5.344 6.399 9.797 11.792 11.697 5.053 1.703 10.666 1.043 15.53-.96a25.056 25.056 0 0 0 5.254-3.015c2.578 3.174 6.713 4.576 10.678 4.866 3.916.364 7.899-.415 11.423-2.149 3.695-1.71 7.038-4.081 10.188-6.64-1.435 2.262-1.333 5.378.34 7.488 1.38 1.885 3.788 2.734 6.068 2.59 5.956.086 11.914.27 17.87.27 2.48-.202 4.666-1.964 5.554-4.266 3.23-6.451 6.247-13.008 9.437-19.478 3.126-5.809 6.419-11.564 10.434-16.811 2.24-2.285 4.682-4.358 7.166-6.37.424 1.861 1.357 3.599 2.563 5.067 1.306 1.374 3.026 2.28 4.723 3.08.306.288 1.4.174 1.076.694-3.206 6.841-5.053 14.509-4.214 22.082.64 5.026 3.358 9.915 7.782 12.539 4.839 2.985 10.744 3.502 16.298 3.111 8.536-.685 16.542-4.544 23.219-9.772 6.616-5.137 11.98-11.634 17.346-18.01 1.693-2.132 3.415-4.286 4.657-6.718 1.29-3.078.276-7.102-2.672-8.838 3.516-4.706 5.517-10.6 5.183-16.497-.173-4.574-1.765-9.332-5.333-12.373-3.646-3.184-8.701-4.134-13.415-3.857-9.084.347-17.74 4.172-24.938 9.576a63.091 63.091 0 0 0-3.075 2.432c-1.447-3.647-4.24-6.728-7.631-8.672-3.354-1.854-7.427-2.122-11.08-1.07-5.078 1.28-9.563 4.089-14.05 6.683-1.006-3.641-3.364-6.99-6.78-8.723-3.674-1.98-8.41-2.37-12.1-.214-2.678 1.54-5.054 3.546-7.402 5.539-.228-2.921-2.612-5.526-5.55-5.86-1.935-.21-3.866.21-5.801.267-5.429.44-10.873.733-16.29 1.286-2.308.456-4.074 2.316-4.93 4.438-5.181 10.131-11.451 19.656-17.848 29.05-2.357 3.416-4.814 6.77-7.493 9.942 1.094-3.608 2.629-7.067 4.365-10.408.373-.697.868-1.653 1.31-2.443 4.289-7.742 9.204-15.148 14.827-21.987 2.205-2.934 1.154-7.647-2.099-9.356-2.109-1.329-4.657-.73-6.982-.619-6.123.461-12.264.798-18.387 1.363-2.368.416-4.199 2.323-5.055 4.497l-14.958 29.853c-2.55.116-4.8 1.532-6.66 3.18-3.404 2.748-6.225 6.118-9.397 9.115.868-3.388 3.019-6.21 4.681-9.228l25.564-43.61c4.282-.029 8.57.076 12.848-.065 2.55-.253 4.649-2.315 5.247-4.76.515-2.394 1.844-4.776 1.203-7.276-.707-2.93-3.767-4.923-6.727-4.594h-2.005c3.103-5.391 6.266-10.75 9.303-16.176 1.512-3.158-.398-7.373-3.782-8.297-2.055-.583-4.195-.077-6.29-.105-5.313.253-10.636.382-15.942.735-1.886.258-3.476 1.529-4.417 3.144C230.612 43.379 219.62 61.49 208.76 79.68c-3.459 5.83-6.952 11.667-9.656 17.897-.333.737-.654 1.48-.972 2.223a6.675 6.675 0 0 0-4.912-2.267c4.3-6.622 8.65-13.19 12.94-19.83 1.207-1.57 1.683-3.672 1.148-5.592-.638-2.692-3.139-4.791-5.916-4.878-1.922-.04-3.83.277-5.75.358-5.263.424-10.54.71-15.791 1.248-2.281.454-4.053 2.279-4.9 4.383-3.594 7.062-7.753 13.798-12.053 20.413-4.213 6.364-8.39 12.785-13.317 18.63 2.21-7.207 6.056-13.763 9.977-20.15 3.196-5.15 6.754-10.07 10.58-14.766 2.134-2.939 1.064-7.58-2.155-9.274-2.014-1.273-4.456-.773-6.683-.64-6.224.469-12.463.812-18.687 1.384-2.355.414-4.181 2.305-5.041 4.466-.344.439-.404 1.312-.93 1.47-.949.05-1.897.096-2.844.15.837-3.651 1.834-7.433 2.973-10.898.34-.997.686-2.072 1.001-2.95 2.635-7.499 6.066-14.655 9.212-21.925a6.468 6.468 0 0 0 .205-3.09c5.122 1.331 10.382 2.6 15.713 2.304 6.835-.5 13.09-3.754 18.669-7.536 4.055-2.749 7.853-6.43 9.247-11.263.817-2.578.721-5.5-.668-7.868-1.193-2.383-3.846-3.542-6.36-3.91-2.636-.449-5.031 1.014-7.51 1.626-2.654.782-5.326 1.682-8.1 1.872a66.955 66.955 0 0 1-2.646-.139c-1.006-.075-1.866-.177-2.92-.284-3.576-.402-7.283-1.06-10.724-1.651-11.164-2.059-22.445-4.804-33.918-4.625zm438.262 14.666c5.798.018 11.606.254 17.359 1.01-15.503 10.011-28.071 24.018-38.1 39.398a197.881 197.881 0 0 0-8.697 14.725c-.773.11-1.556.235-2.318.359 6.126-6.12 10.655-13.949 12.344-22.481.963-4.682 1.086-9.505.71-14.259-.46-5.117-2.325-10.375-6.29-13.822a16.548 16.548 0 0 0-3.569-2.368 78.185 78.185 0 0 1 4.021-.782c8.102-1.354 16.336-1.752 24.54-1.78zm-452.83 6.398c5.914.06 11.734 1.323 17.46 2.7 2.728.689 5.33 1.406 8.042 2.234.563.171 1.145.345 1.704.533-5.34 2.83-9.672 7.177-13.669 11.636-4.8 5.47-9.007 11.427-13.146 17.403a229.258 229.258 0 0 0-3.317 5.041c2.807-6.336 3.78-13.36 3.433-20.25-.117-5.312-1.554-10.864-5.254-14.835a16.547 16.547 0 0 0-4.816-3.573 48.594 48.594 0 0 1 9.562-.889zm810.533 2.3c-5.3 8.77-12.154 16.467-19.146 23.911A383.63 383.63 0 0 1 881.6 65.073c5.038-7.248 10.298-14.348 15.902-21.17a197.05 197.05 0 0 1 3.078-3.614c4.119-4.62 8.402-9.186 13.476-12.776.453-.428-.083.302-.118.42zm45.066.025c-.65 1.118-1.492 2.405-2.262 3.559a108.208 108.208 0 0 1-3.655 5.08 149.077 149.077 0 0 1-5.538 6.786c-6.577 7.586-13.628 14.75-20.875 21.694a318.01 318.01 0 0 1 6.188-8.639c5.816-7.817 11.788-15.572 18.709-22.455 2.426-2.373 4.939-4.683 7.757-6.586l-.324.56zm-364.84 2.539c.516 2.664.298 5.406-.035 8.08-.065.394-.126.897-.237 1.428-1.545 8.088-6.37 15.237-12.411 20.69-2.87 2.55-6.092 4.712-9.573 6.337 3.416-8.387 6.893-16.823 11.818-24.46 2.925-4.528 6.216-8.905 10.368-12.384l.07.309zm14.612 42.986c-1.11.273-.557-.547 0 0zM94.927 74.788a101.456 101.456 0 0 0-2.37 4.89c-.982.22-1.96.463-2.935.72a47.282 47.282 0 0 0 5.705-6.37l-.4.76zm-35.12-.262c-1.33.053.382-.996 0 0zm566.7.547c-.585.559-1.176 1.111-1.752 1.68-.295-.51-.746-1.004-1.104-1.401 1.185-.18 2.363-.44 3.487-.861l-.631.582zm256.291 11.476c-2.8 5.61-5.35 11.347-7.537 17.223-2.864-1.466-6.438-.897-8.971.987-3.398 2.502-6.302 5.588-9.196 8.64-.666.84-.565.384-.286-.374 1.107-3.46 2.32-6.947 4.298-10.016.74-.87 1.807-1.425 2.678-2.168 6.488-4.953 13.077-9.777 19.366-14.983l-.352.691zm-141.51 2.08c-1.457 5.895-4.455 11.28-7.837 16.274a50.268 50.268 0 0 1-4.348 5.416c2.894-6.001 6.054-11.81 9.341-17.573.991-1.687 1.982-3.374 3.041-5.019l-.197.902zM405.54 91.5a24.42 24.42 0 0 1-1.084 1.291c.464-.585.934-1.167 1.42-1.734l-.336.443zm-10.289 26.735c-2.132 1.46-4.531 2.692-7.025 3.273.232-.56.309-1.313.685-1.74 2.28-.522 4.54-1.13 6.768-1.84l-.428.307zm245.03 4.113c.693.329 1.103 1.165.917 1.912-.53.297-1.043.719-1.668.4-.522.022-1.518-.412-.758-.9l1.37-1.455.095.03z"/>
    <g fill="url(#a)" stroke-width="3.001" transform="translate(-3.727 -21.675)">
        <path d="M123.207 30.232c-15.77 0-31.077 3.7-45.754 11.012-14.69 7.21-26.152 16.932-34.18 29.071a3.143 2.843 0 0 0-.002.004c-3.96 6.008-6.064 11.927-6.064 17.69 0 6.42 2.507 11.982 7.403 15.904a3.143 2.843 0 0 0 .04.03c4.836 3.75 11.073 5.604 18.183 5.604 11.77 0 21.845-4.087 29.388-11.966 7.581-7.903 11.466-17.313 11.466-27.773v-1.64c0-5.435-1.064-9.863-3.746-13.133-2.683-3.27-7.031-4.961-11.907-4.961-4.192 0-8.042.94-11.657 2.39 10.033-6.126 20.17-9.168 30.514-9.168 7.097 0 17.382 2.026 30.497 6.232 13.398 4.296 22.035 6.559 27.521 6.559 5.147 0 10.469-2.003 16.093-5.58 6.2-3.744 10.076-8.026 10.076-13.004a3.143 2.843 0 0 0-.163-.901l-.363-.985a3.143 2.843 0 0 0-1.984-1.794l-1.089-.329a3.143 2.843 0 0 0-2.127.043c-6.77 2.363-11.57 3.42-13.01 3.42-4.311 0-12.172-1.048-23.078-3.216l.033.008c-11.12-2.321-19.718-3.517-26.09-3.517zm19.459 24.272c-4.35.154-8.429 2.48-12.754 6.245-4.319 3.761-8.945 9.134-14.032 16.173l-.007.01-.01.012c-7.849 10.651-13.381 19.876-16.738 27.887-5.513 1.082-12.261 3.147-20.843 6.473-5.802 2.233-10.221 4.303-13.394 6.379-3.172 2.075-5.561 4.266-5.561 7.387a3.143 2.843 0 0 0 .33 1.27c.028.051.106.214.193.45a3.143 2.843 0 0 0 1.818 1.74l.906.327a3.143 2.843 0 0 0 2.74-.18 5090.903 5090.903 0 0 0 12.97-6.81c1.454-.766 2.553-1.349 3.305-1.751a90.347 90.347 0 0 0 1.115-.607c4.187-2.025 8.06-3.41 11.782-4.501-5.226 10.776-10.78 19.116-16.543 24.682a3.143 2.843 0 0 0-.032.032c-9.044 9.007-19.687 13.336-32.666 13.336-4.495 0-8.992-.657-13.534-1.993a3.143 2.843 0 0 0-.013-.003c-2.93-.85-4.93-1.864-6.031-2.785-1.101-.92-1.395-1.58-1.395-2.545 0-.491.072-.69.575-1.146.5-.451 1.562-1.046 3.233-1.554 2.937-.743 5.93-1.435 8.987-2.073a3.143 2.843 0 0 0 .46-.13c4.464-1.616 7.416-5.3 7.416-9.527 0-3.902-1.44-7.419-4.436-9.683-2.998-2.265-7.093-3.162-11.943-3.162-5.8 0-11.023 1.941-14.953 5.623a3.143 2.843 0 0 0-.002.002c-3.808 3.572-5.775 8.25-5.775 13.452 0 8.928 5.427 16.115 15.019 20.274a3.143 2.843 0 0 0 .037.015c7.3 3.065 16.1 4.526 26.343 4.526 20.34 0 37.645-4.58 51.541-13.836 13.393-8.92 22.903-21.934 28.694-38.528 4.004-.48 8.123-.767 12.415-.767a3.143 2.843 0 0 0 2.694-1.38l2.175-3.28a3.143 2.843 0 0 0-2.863-4.3c-4.99.241-8.151.422-11.381.605 1.35-6.74 3-13.194 5.116-19.206a3.143 2.843 0 0 0 .008-.023c1.507-4.404 4.572-11.706 9.15-21.728a3.143 2.843 0 0 0 .116-1.867l-.363-1.148a3.143 2.843 0 0 0-1.612-1.76l-.725-.328a3.143 2.843 0 0 0-1.532-.299zm-79.137 7.6c-.299.374-.661.646-.949 1.036-5.546 7.357-8.33 15.908-8.33 25.362a3.143 2.843 0 0 0 .093.689c.249.901.5 1.75.753 2.55a3.143 2.843 0 0 0 5.244 1.23c-.295.266-.176.143-.095.087.08-.056.222-.15.407-.273.37-.245.92-.6 1.639-1.06 1.434-.92 3.545-2.255 6.315-3.998 3.401-2.122 6.347-3.681 8.76-4.673a3.143 2.843 0 0 0 1.785-2.047c.659-3.078 2.014-6.636 4.102-10.625v-.002c1.369-2.58 2.687-4.42 3.74-5.454 1.051-1.034 1.627-1.133 1.766-1.133.513 0 .242.001.162-.087-.08-.088.141.152.141 1.018 0 8.446-3.015 15.913-9.26 22.793a3.143 2.843 0 0 0-.018.02c-6.563 7.369-13.894 10.75-22.753 10.75-3.082 0-5.02-.844-6.783-2.859-1.862-2.126-2.767-4.52-2.767-7.582 0-6.93 4.332-14.887 13.807-23.774a3.143 2.843 0 0 0 .002-.002c.746-.7 1.493-1.3 2.239-1.965z"/>
        <path d="m168.303 92.887-20.852 1.476a2.508 2.508 0 0 0-2.064 1.38l-21.032 41.98c-1.344 2.676-2.078 5.363-2.078 8.01 0 3.635 1.567 7.069 4.325 9.937 2.808 2.92 6.422 4.541 10.33 4.54 6.394 0 11.889-2.668 16.14-7.415.133.32.34.863.457 1.139.267.625.495 1.132.7 1.55.204.42.278.667.718 1.198 2.15 2.592 5.66 3.529 9.907 3.529 6.264 0 13.179-4.376 21.82-12.303a2.508 2.508 0 0 0 .014-.011c8.634-8.033 13.49-14.306 13.49-20.366 0-1.27-.539-2.545-1.354-3.467a2.508 2.508 0 0 0-1.879-.845h-.724a2.508 2.508 0 0 0-1.033.222c-.92.416-1.134.76-1.59 1.221a29.812 29.812 0 0 0-1.565 1.746c-1.2 1.429-2.758 3.42-4.707 6.01a2.508 2.508 0 0 0-.008.01c-2.628 3.528-5.436 5.995-8.463 7.533 1.308-2.658 2.813-5.378 4.752-8.228l.002-.004c3.503-5.134 6.158-9.013 7.965-11.627a2.508 2.508 0 0 0 .037-.053l15.23-23.287a2.508 2.508 0 0 0-2.286-3.873l-19.764 1.476a2.508 2.508 0 0 0-2.06 1.387c-3.55 7.17-8.875 16.06-15.967 26.605a2.508 2.508 0 0 0-.004.006c-4.677 6.996-8.581 12.216-11.612 15.582-1.515 1.684-2.817 2.902-3.8 3.624-.957.701-1.55.806-1.502.812-.102-.094-.361-.415-.625-1.053a2.508 2.508 0 0 0-.04-.088c-.47-1.023-.675-1.96-.675-2.886 0-4.233 2.542-11.492 8.006-21.053l.004-.006c4.533-7.876 9.17-14.641 13.89-20.299a2.508 2.508 0 0 0-2.103-4.11zM269.996 46.848l-19.4.82a2.134 2.134 0 0 0-1.739 1.031L227.1 84.775c-10.514 17.38-16.407 27.35-18.03 30.649v.002c-6.496 12.97-9.836 24.174-9.836 33.75 0 3.237 1.223 6.253 3.475 8.672a2.134 2.134 0 0 0 .086.086c2.432 2.329 5.605 3.545 9.09 3.545 3.254 0 6.654-1.712 10.693-4.68 4.04-2.968 8.7-7.31 14.074-13.053 2.687-2.872 4.716-5.201 6.123-7.053.704-.925 1.253-1.727 1.664-2.472.412-.745.766-1.377.766-2.426 0-.666-.254-1.585-.93-2.197s-1.487-.758-2.111-.758c-1.985 0-3.1 1.024-4.795 2.41s-3.733 3.36-6.187 5.969c-2.354 2.501-4.402 4.339-6.057 5.492-1.382.963-2.374 1.316-3.018 1.432l-1.146-2.264c.065-4.075 1.006-7.702 2.92-10.973v-.002l29.66-50.6h14.37a2.134 2.134 0 0 0 2.05-1.546l1.27-4.428a2.134 2.134 0 0 0-2.051-2.723h-9.717l12.47-21.558a2.134 2.134 0 0 0-1.937-3.201zM339.303 91.824c-2.374 0-4.005 1.201-6.364 2.942-2.358 1.74-5.21 4.24-8.64 7.54-3.368 3.245-5.932 5.943-7.736 8.173-1.805 2.229-3.048 3.717-3.192 6.044a2.548 2.548 0 0 0 .154 1.047l.182.489a2.548 2.548 0 0 0 1.436 1.343 2.548 2.548 0 0 0 1.677.643c1.002 0 1.543-.315 2.086-.615.543-.301 1.056-.666 1.623-1.114 1.135-.895 2.467-2.127 4.078-3.742l-.033.033c1.014-.978 1.624-1.505 2.346-2.158a29.057 29.057 0 0 1-1.953 3.903l-.004.006a604.425 604.425 0 0 0-4.35 7.164 2.548 2.548 0 0 0-.066.12l-17.77 34.032a2.548 2.548 0 0 0 2.213 3.727l18.131.326a2.548 2.548 0 0 0 2.332-1.424 1394.188 1394.188 0 0 0 9.229-19.178c3.818-7.285 7.504-13.304 11.02-18.039.992-1.337 5.012-5.034 11.487-10.096a2.548 2.548 0 0 0 .004-.002c3.283-2.573 5.937-4.486 7.891-5.707 1.299-.811 1.554-.847 2.025-1.04-.707.439-1.403.923-2.07 1.493-3.01 2.47-4.896 5.56-4.896 8.948 0 1.677.611 2.574 1.41 4.008a2.548 2.548 0 0 0 .777.855c.848.586 1.592 1.05 2.305 1.406s1.342.676 2.408.676c4.217 0 8.017-2.473 11.082-6.533 2.776-3.567 4.34-7.332 4.34-11.16 0-2.729-1.316-5.289-3.424-7.448-2.056-2.227-4.765-3.568-7.646-3.568-4.06 0-8.767 2.115-15.088 5.9l-6.51 3.784c-.22-3.338-.798-6.266-2.24-8.483-1.783-2.74-4.882-4.295-8.254-4.295z"/>
        <path d="M415.191 93.234c-12.11 0-23.807 6.45-34.931 18.772a2.116 2.116 0 0 0-.002.002c-10.491 11.639-15.953 23.09-15.953 34.308 0 4.755 1.479 8.754 4.547 11.377 3.067 2.624 7.418 3.764 12.796 3.764 11.512 0 22.609-6.184 33.127-17.965 3.704-4.144 6.489-7.408 8.385-9.838.948-1.214 1.673-2.214 2.201-3.062.529-.848 1.01-1.289 1.01-2.676 0-.585-.128-1.358-.715-2.018s-1.487-.912-2.125-.912c-1.676 0-2.859.791-4.336 1.877-1.477 1.086-3.164 2.613-5.144 4.614a2.116 2.116 0 0 0-.006.006c-5.412 5.508-9.298 9.133-11.373 10.703-4.931 3.706-9.602 5.435-14.133 5.435-.666 0-.725-.1-.824-.218-.1-.12-.325-.567-.325-1.575 0-1.563.754-4.336 2.192-7.808 9.378-1.921 17.613-5.098 24.584-9.631 9.18-5.876 14.2-13.227 14.2-21.64 0-4.142-1.028-7.616-3.362-10.022-2.334-2.406-5.763-3.492-9.813-3.492zm.883 9.936c.216.542.447 1.081.447 2.113 0 4.938-2.858 10.135-9.242 15.66a2.116 2.116 0 0 0-.013.012c-4.36 3.838-8.862 6.606-13.528 8.357 2.4-4.432 5.165-9.001 8.662-13.833a2.116 2.116 0 0 0 .006-.01c3.081-4.31 5.86-7.494 8.223-9.516 2.351-2.012 4.228-2.776 5.445-2.783zM558.88 25.668c-16.279 0-31.595 3.42-45.83 10.252-14.967 7.167-26.59 17.066-34.652 29.63a2.758 2.758 0 0 0 0 .003c-3.9 6.086-5.994 11.99-5.994 17.687 0 6.447 2.519 12.024 7.3 15.889a2.758 2.758 0 0 0 .034.027c4.726 3.697 10.735 5.494 17.655 5.494 11.492 0 21.282-3.99 28.709-11.82 7.47-7.858 11.336-17.274 11.336-27.752v-1.637c0-5.446-1.08-9.917-3.71-13.152-2.629-3.234-6.729-4.822-11.417-4.822-4.613 0-8.855 1.05-12.745 2.87 4.9-3.107 9.845-5.494 14.84-7.14l.006-.002c8.786-2.81 20.67-4.285 35.545-4.285 11.908 0 21.436 1.123 28.582 3.174-21.97 11.08-40.458 31.03-55.443 59.637-6.01.759-13.41 2.286-22.611 4.744a2.758 2.758 0 0 0-.01.002c-1.824.493-3.337 1.096-4.602 2.08-1.265.984-2.275 2.621-2.275 4.346 0 1.3.85 2.886 1.996 3.584 1.145.697 2.275.81 3.45.81.765 0 1.195-.12 1.87-.273.675-.154 1.487-.37 2.473-.65a2.758 2.758 0 0 0 .008-.003c4.794-1.382 9.274-2.27 13.605-2.93-5.83 11.767-11.59 20.97-17.152 27.247a2.758 2.758 0 0 0-.006.008c-9.917 11.262-20.373 16.572-31.81 16.572-3.774 0-7.773-.834-12.038-2.574l-.006-.002c-2.522-1.053-4.274-2.186-5.265-3.19-.995-1.006-1.266-1.74-1.266-2.603 0-.143-.095-.091.336-.446.43-.353 1.444-.88 3.006-1.308l.006-.002a610.631 610.631 0 0 0 7.18-1.926c.847-.235 1.517-.425 2.027-.578.51-.153.695-.177 1.248-.43a2.758 2.758 0 0 0 .062-.029c4.297-2.091 6.93-6.143 6.93-10.824 0-4.141-1.666-7.893-4.746-10.45-2.954-2.548-6.864-3.763-11.277-3.763-6.56 0-12.27 2.215-16.49 6.558-4.17 4.185-6.346 9.604-6.346 15.672 0 8.777 4.75 16.038 13.252 20.74a2.758 2.758 0 0 0 .043.022c7.05 3.744 15.47 5.559 25.136 5.559 19.888 0 37.645-5.826 52.922-17.403l.004-.004c13.85-10.354 24.118-24.268 30.873-41.394 14.57-1.457 27.68-5.092 39.192-11.049a2.758 2.758 0 0 0 .004-.002c15.22-7.906 23.537-18.71 23.537-31.736 0-9.44-4.304-17.417-12.196-23.424 1.054-.275 2.732-.7 3.487-.903 2.623-.668 4.608-1.25 6.084-1.814.737-.282 1.339-.54 1.941-.924.301-.192.613-.407.96-.804.345-.398.798-1.091.798-2.075 0-1.325-.73-2.936-1.916-3.748-1.185-.811-2.439-.972-3.71-.972-5.22 0-11.84 1.578-19.933 4.416-7.18-3.396-13.954-5.741-20.29-6.832a2.758 2.758 0 0 0-.009 0c-5.42-.921-12.928-1.348-22.691-1.348zm40.499 20.24c1.84 2.405 2.816 5.43 2.816 9.516 0 9.775-3.595 18.56-11.101 26.764-6.324 6.819-13.755 11.06-22.365 13.132 4.378-11.383 8.273-20.579 11.404-26.48l.002-.004.006-.012c6.44-11.947 12.996-19.363 19.238-22.916zm-98.953 9.238c-.989 1.053-2.033 2.006-2.924 3.225-5.474 7.328-8.246 15.894-8.246 25.36a2.758 2.758 0 0 0 .098.728c.246.9.493 1.75.744 2.55a2.758 2.758 0 0 0 4.13 1.493l8.598-5.56.008-.004c3.115-2 6.025-3.557 8.71-4.68a2.758 2.758 0 0 0 1.632-1.973c.648-3.054 1.983-6.602 4.047-10.58 1.353-2.573 2.65-4.407 3.713-5.46 1.062-1.054 1.73-1.245 2.091-1.245.628 0 .557.085.51.033-.046-.051.139.133.139.97 0 8.387-2.958 15.815-9.153 22.702a2.758 2.758 0 0 0-.017.02c-6.51 7.376-13.915 10.847-22.85 10.847-3.194 0-5.29-.937-7.058-2.976-1.861-2.146-2.733-4.5-2.733-7.52 0-6.846 4.268-14.797 13.658-23.685 1.627-1.54 3.265-2.877 4.903-4.245zM603.719 99.158c-1.057 0-2.02.61-2.471 1.567-5.223 11.051-8.295 17.518-9.248 19.476l-7.98 12.63-.004.003c-3.395 5.393-5.262 10.36-5.262 15.037 0 4.012.755 7.387 2.736 9.91 1.981 2.524 5.155 3.787 8.604 3.787 6.763 0 14.099-4.324 22.802-12.156 8.702-7.83 13.635-14.363 13.635-20.847 0-1.158-.403-2.556-1.43-3.493a2.734 2.734 0 0 0-1.843-.714h-.717c-.412 0-.819.093-1.19.273-3.144 1.52-5.708 4.78-9.15 9.941l.03-.043c-2.036 2.93-4.321 5.012-6.9 6.422 4.57-11.27 11.06-23.772 19.708-37.61 1.139-1.82-.17-4.183-2.318-4.183z"/>
        <path d="M645.438 91.563c-2.31 0-4.019 1.173-6.356 2.898-2.337 1.724-5.128 4.198-8.463 7.463a2.476 2.476 0 0 0-.015.015c-3.269 3.26-5.773 5.983-7.55 8.24-1.776 2.259-2.952 3.842-3.2 5.993a2.476 2.476 0 0 0 .132 1.133l.18.492a2.476 2.476 0 0 0 1.383 1.308 2.476 2.476 0 0 0 1.66.645c.989 0 1.52-.315 2.055-.615.534-.301 1.042-.667 1.601-1.115 1.12-.898 2.433-2.135 4.026-3.756l-.034.033c1.06-1.04 1.718-1.62 2.456-2.293-.391 1.041-.995 2.419-2.026 4.183a609.333 609.333 0 0 0-4.3 7.2 2.476 2.476 0 0 0-.065.119l-17.568 34.197a2.476 2.476 0 0 0 2.35 3.604l22.228-1.309a2.476 2.476 0 0 0 2.043-1.314c1.802-3.409 4.7-10.196 8.892-20.694v.004c3.542-8.836 6.904-15.346 9.91-19.412a2.476 2.476 0 0 0 .01-.012c1.524-2.086 4.008-4.792 7.409-8.004a2.476 2.476 0 0 0 .02-.019c2.031-1.96 3.75-3.412 5.07-4.328 1.16-.806 1.826-.991 2.044-1.057a2.476 2.476 0 0 0 .489.19c.284 0 .107-.01.058-.06-.048-.051.1.091.176.68a2.476 2.476 0 0 0 .156.196v1.451c0 4.784-2.414 12.008-7.57 21.207-2.648 4.725-4.644 8.542-6.006 11.508-1.362 2.966-2.2 4.8-2.2 6.883 0 3.924 1.273 7.38 3.927 9.623 2.653 2.244 6.33 3.162 10.742 3.162 6.341 0 11.674-1.008 15.967-3.201 3.265-1.56 6.92-4.594 11.425-9.15 4.671-4.712 7.491-8.167 8.041-11.85a2.476 2.476 0 0 0-.779-2.193l-.18-.164a2.476 2.476 0 0 0-3.162-.149c-3.442 2.6-5.98 4.542-7.675 5.867-4.779 3.49-9.765 5.198-15.153 5.354-.067-.055-.15-.115-.203-.162l.027-.07c.28-.664.735-1.64 1.35-2.883 1.23-2.486 3.104-6.054 5.606-10.676a2.476 2.476 0 0 0 .006-.012c5.1-9.532 7.822-16.701 7.822-22.275 0-4.1-1.176-7.653-3.752-10.04-2.576-2.386-6.23-3.4-10.557-3.4-4.414 0-9.546 2.031-15.94 5.735a499.517 499.517 0 0 0-6.175 3.584c-.217-3.336-.785-6.257-2.197-8.463-1.749-2.732-4.801-4.291-8.135-4.291z"/>
        <path d="M760.445 47.117c-3.221 0-6.657 1.22-10.449 3.412a2.252 2.252 0 0 0-.781.752 1672.297 1672.297 0 0 0-28.723 47.516c-7.656 13.047-13.404 23.24-17.258 30.605-1.927 3.684-3.38 6.657-4.375 8.97-.994 2.31-1.617 3.711-1.617 5.41 0 5.676 1.767 10.398 5.408 13.495 3.642 3.098 8.835 4.463 15.309 4.463 11.317 0 21.437-3.398 30.06-10.127 6.644-5.148 12.169-12.202 16.592-21.062 4.42-8.852 6.69-17.267 6.69-25.223 0-3.385-1.095-6.493-3.213-8.959-2.085-2.67-5.295-4.092-8.899-4.092-1.689 0-3.788.37-6.615 1.043l.065-.013c-1.262.261-1.781.254-2.694.38 2.83-4.972 4.957-9.081 6.221-12.189l16.135-30.924a2.252 2.252 0 0 0-1.955-3.293c-6.096-.109-9.25-.164-9.9-.164zm-12.191 54.737c.733 0 .994.154 1.08.224.086.07.199.161.27.74a2.252 2.252 0 0 0 .164.207v1.323c0 5.92-2.043 12.517-6.323 19.802a2.252 2.252 0 0 0-.011.022c-3.93 6.858-8.684 12.33-14.272 16.494-2.211 1.632-3.88 2.236-4.762 2.29.08-.969.638-3.216 1.96-6.415 1.42-3.44 3.59-7.947 6.497-13.473a2.252 2.252 0 0 0 .002-.002c5.347-10.183 9.439-16.94 12.065-20.218 1.244-.668 2.352-.995 3.33-.995z"/>
        <path d="M830.639 92.484c-3.9 0-6.74.335-8.852 1.912a2.21 2.21 0 0 0-.83 1.467c-.835-.212-1.718-.418-3.344-1.199l.074.04c-2.398-1.268-4.155-2.056-6.05-2.056-9.916 0-20.78 6.931-33.155 19.997a2.21 2.21 0 0 0-.002.002c-12.234 12.936-18.71 23.734-18.71 33.097 0 3.543 1.507 6.884 4.195 9.705 2.732 2.869 6.226 4.45 10.025 4.45 6.404 0 11.847-2.759 16.035-7.653.188.462.46 1.183.62 1.559.262.62.484 1.123.683 1.533.199.41.278.653.674 1.135 2.046 2.49 5.435 3.425 9.596 3.425 6.064 0 12.874-4.314 21.398-12.205a2.21 2.21 0 0 0 .012-.01c8.518-7.997 13.246-14.251 13.246-20.101 0-1.192-.496-2.382-1.264-3.258a2.21 2.21 0 0 0-1.662-.752h-.717a2.21 2.21 0 0 0-.918.2c-.833.38-1.048.708-1.49 1.16a29.52 29.52 0 0 0-1.531 1.726c-1.181 1.418-2.72 3.403-4.645 5.984a2.21 2.21 0 0 0-.006.008c-2.74 3.712-5.7 6.231-8.894 7.77 2.35-4.73 6.213-11.107 12.47-19.9l.002-.002c7.01-9.82 11.495-17.973 13.41-24.733a2.21 2.21 0 0 0-1.751-2.78c-2.14-.365-4.967-.52-8.62-.52zm-15.416 10.635c.4 0 .474.062.617.111-1.98 4.336-6.433 11.604-13.717 21.934-4.33 6.117-7.91 10.683-10.658 13.635-1.374 1.476-2.545 2.546-3.422 3.183-.877.637-1.462.735-1.324.735-.601 0-.612-.092-.635-.117-.023-.026-.205-.291-.205-1.11 0-4.864 2.814-11.58 8.883-19.785l.004-.004s0-.003.002-.004c5.206-6.969 10.617-12.565 16.195-16.865a2.21 2.21 0 0 0 .197-.018c1.665-1.235 3.015-1.695 4.063-1.695zM923.205 32.08c-14.412 0-30.591 11.946-49.53 34.736-15.19 18.268-26.682 36.912-34.437 55.934-4.252 10.424-6.453 19.172-6.453 26.43 0 3.288 1.239 6.366 3.506 8.824a2.398 2.398 0 0 0 .096.1c2.454 2.371 5.682 3.619 9.195 3.619 3.338 0 6.734-1.749 10.75-4.727s8.633-7.318 13.953-13.057c2.66-2.87 4.673-5.2 6.074-7.06.701-.93 1.25-1.739 1.666-2.5.417-.761.79-1.413.79-2.543 0-.71-.27-1.712-1.006-2.385-.737-.673-1.626-.832-2.29-.832-2.146 0-3.238 1.076-4.931 2.473-1.693 1.397-3.714 3.375-6.145 5.982-2.318 2.487-4.334 4.31-5.945 5.442-1.212.852-2.058 1.175-2.652 1.326l-.973-1.94c.177-2.315 1-5.98 2.656-10.923 1.98-5.63 4.072-8.983 4.766-9.526 7.63-5.768 13.368-10.13 17.197-13.078a2.398 2.398 0 0 0 .03-.023c22.386-17.797 39.43-36.03 51.09-54.76l.001-.004c2.916-4.629 4.49-9.153 4.49-13.545 0-2.537-1.375-4.962-3.56-6.242s-4.937-1.72-8.338-1.72zm.63 10.27c.185.199.539.754.837 1.185-1.636 7.046-10.153 19.373-26.129 35.738a2.398 2.398 0 0 0-.004.004c-11.548 11.879-21.527 20.852-29.908 27.032 4.782-9.306 12.158-20.664 22.25-34.061h-.002c7.709-10.23 14.463-17.857 20.146-22.834 5.434-4.759 9.832-6.882 12.81-7.064zM283.619 92.887l-20.852 1.476a2.508 2.508 0 0 0-2.064 1.38l-21.031 41.98c-1.345 2.676-2.078 5.363-2.078 8.01 0 3.635 1.566 7.069 4.324 9.937 2.808 2.92 6.422 4.541 10.33 4.54 6.395 0 11.889-2.668 16.14-7.415.133.32.34.863.458 1.139.267.625.494 1.132.699 1.55.205.42.278.667.719 1.198 2.149 2.592 5.66 3.529 9.906 3.529 6.265 0 13.18-4.376 21.82-12.303a2.508 2.508 0 0 0 .014-.011c8.635-8.033 13.49-14.306 13.49-20.366 0-1.27-.539-2.545-1.353-3.467a2.508 2.508 0 0 0-1.88-.845h-.724a2.508 2.508 0 0 0-1.033.222c-.92.416-1.134.76-1.59 1.221a29.812 29.812 0 0 0-1.565 1.746c-1.2 1.429-2.758 3.42-4.707 6.01a2.508 2.508 0 0 0-.008.01c-2.628 3.528-5.436 5.995-8.462 7.533 1.307-2.658 2.813-5.378 4.752-8.228l.002-.004c3.502-5.134 6.158-9.013 7.964-11.627a2.508 2.508 0 0 0 .037-.053l15.231-23.287a2.508 2.508 0 0 0-2.287-3.873l-19.764 1.476a2.508 2.508 0 0 0-2.06 1.387c-3.55 7.17-8.875 16.06-15.967 26.605a2.508 2.508 0 0 0-.004.006c-4.677 6.996-8.581 12.216-11.611 15.582-1.516 1.684-2.818 2.902-3.801 3.624-.957.701-1.549.806-1.502.812-.101-.094-.36-.415-.625-1.053a2.508 2.508 0 0 0-.04-.088c-.47-1.023-.675-1.96-.675-2.886 0-4.233 2.543-11.492 8.006-21.053l.004-.006c4.533-7.876 9.17-14.641 13.89-20.299a2.508 2.508 0 0 0-2.103-4.11z"/>
        <path d="M968.289 32.08c-14.413 0-30.592 11.946-49.53 34.736-15.191 18.268-26.683 36.912-34.437 55.934-4.252 10.424-6.453 19.172-6.453 26.43 0 3.288 1.238 6.366 3.505 8.824a2.398 2.398 0 0 0 .096.1c2.454 2.371 5.682 3.619 9.195 3.619 3.339 0 6.734-1.749 10.75-4.727 4.017-2.978 8.633-7.318 13.954-13.057 2.66-2.87 4.672-5.2 6.074-7.06.7-.93 1.249-1.739 1.666-2.5.417-.761.789-1.413.789-2.543 0-.71-.269-1.712-1.006-2.385-.737-.673-1.625-.832-2.289-.832-2.146 0-3.238 1.076-4.932 2.473-1.693 1.397-3.713 3.375-6.144 5.982-2.319 2.487-4.335 4.31-5.946 5.442-1.211.852-2.058 1.175-2.652 1.326l-.973-1.94c.177-2.315 1-5.98 2.657-10.923 1.98-5.63 4.071-8.983 4.765-9.526 7.631-5.768 13.369-10.13 17.198-13.078a2.398 2.398 0 0 0 .029-.023c22.386-17.797 39.431-36.03 51.09-54.76l.002-.004c2.915-4.629 4.49-9.153 4.49-13.545 0-2.537-1.376-4.962-3.56-6.242s-4.937-1.72-8.338-1.72zm.63 10.27c.185.199.538.754.836 1.185-1.635 7.046-10.153 19.373-26.129 35.738a2.398 2.398 0 0 0-.004.004c-11.547 11.879-21.527 20.852-29.908 27.032 4.782-9.306 12.159-20.664 22.25-34.061h-.002c7.709-10.23 14.464-17.857 20.147-22.834 5.433-4.759 9.831-6.882 12.81-7.064z"/>
    </g>
    <path d="M123.207 30.232c-.402 0-.795.065-1.196.07-3.053 5.385-5.033 4.486-6.511.385-4.637.36-9.236.979-13.782 1.986-.32 3.686-.545 7.376-.812 11.065 1.99-.23 3.98-.442 5.984-.442 4.256 0 9.79.825 16.26 2.315 1.338-5.39 2.823-11.255 5.174-14.975-1.68-.122-3.67-.404-5.117-.404zm13.562 1.297c.547 6.073.953 12.153 1.408 18.23 1.425.454 2.301.653 3.618 1.059-.314-6.191-.598-12.383-.975-18.572-1.325-.229-2.816-.532-4.05-.717zm9.73 1.724c-.015 6.289-.027 12.519-.029 18.93 4.135 1.201 8.29 2.396 11.276 2.984-.25-6.666-.466-13.333-.366-20.023-2.635-.442-4.957-.775-8.115-1.402l.033.008c-1.05-.22-1.794-.297-2.798-.496zm40.981.243a3.456 3.456 0 0 0-2.127.04 98.123 98.123 0 0 1-7.482 2.286c-.413 5.725-.832 11.444-1.262 17.166a47.5 47.5 0 0 0 4.394-2.48c3.422-2.067 6.035-4.316 7.78-6.737.66-2.21 1.419-4.435 2.222-6.664a2.595 2.595 0 0 0-.09-.504l-.363-.984c-.313-.847-1.048-1.512-1.984-1.795zm-92.184.904a104.96 104.96 0 0 0-10.906 3.848c.242 3.277.456 6.478.696 9.763 3.395-1.462 6.809-2.51 10.238-3.281.012-3.536.052-7.073-.028-10.33zm-13.744 5.072c-.446.2-.896.373-1.341.58-6.58 38.386-11.606 47.676-14.416 7.996-3.923 2.636-7.467 5.555-10.77 8.653.702 3.927 1.369 7.86 2.096 11.767 1.313-1.45 2.563-2.891 4.168-4.396l.002-.002c.745-.7 1.492-1.3 2.238-1.965-.299.373-.662.645-.95 1.035-2.04 2.708-3.577 5.627-4.868 8.643.445 2.38.83 4.806 1.277 7.177-.731 6.05-.149 10.747 1.182 14.051a3.41 3.41 0 0 0 .17-.04c-.295.266-.175.143-.094.087.08-.056.221-.151.406-.273.37-.245.92-.6 1.639-1.06 1.434-.92 6.204-3.552 7.985-8.112 1.159 4.069 4.677.433 7.09-.559.198-.173.37-.37.51-.584.1-.581.231-1.103.313-1.717.047.407.073.815.12 1.221.355-.263.643-.593.843-.967.659-3.077 2.014-6.636 4.102-10.625v-.002a32.312 32.312 0 0 1 2.037-3.365 172.879 172.879 0 0 0-1.551-16.478c-2.555.395-5.033.992-7.363 1.927a70.317 70.317 0 0 1 7.091-3.773 104.462 104.462 0 0 0-1.916-9.219zm188.776 7.483c.02 1.926.03 3.853.052 5.779l1.553-2.686a2.134 2.134 0 0 0-1.605-3.093zm-9.58.283-4.575.193c.248 10.957.478 21.913.856 32.873h3.963c-.035-2.899-.04-5.798-.065-8.697h-1.465l1.448-2.502c-.053-7.289-.172-14.578-.162-21.867zM88.035 50.074c-.965 0-1.852.206-2.782.3.376 5.164.732 10.19 1.092 15.344.211-.245.453-.6.647-.79 1.052-1.035 1.629-1.134 1.767-1.134.514 0 .243 0 .162-.087-.08-.089.141.152.141 1.017 0 3.873-.713 7.519-2.002 11.018.57 8.506.988 16.672 1.451 24.988 1.056-.856 2.141-1.665 3.117-2.645.54-12.042 1.54-24.205 3.39-36.576.178-3.623.108-6.604.18-9.965-2.13-.949-4.557-1.47-7.163-1.47zm53.959 4.539c-1.141.1-2.269.35-3.385.734.48 6.795.946 13.591 1.328 20.39a274.73 274.73 0 0 1 2.785-6.636c-.202-4.83-.493-9.659-.728-14.488zm-41.932.611a890.176 890.176 0 0 0-1.305 33.254c3.154-5.73 4.93-11.953 4.93-18.67v-1.64c0-5.34-1.045-9.691-3.625-12.944zm46.4 1.588c0 1.302-.007 2.522-.006 3.828.128-.28.195-.45.325-.734a2.59 2.59 0 0 0 .117-1.867l-.363-1.149a2.988 2.988 0 0 0-.073-.078zm90.715 11.252-8.377 13.89c.238 12.922.582 25.84 1.057 38.754l8.05-13.734c-.55-10.085-.738-23.298-.73-38.91zm33.5 4.289c.02 1.202.065 2.404.086 3.605l.467-1.628a2.134 2.134 0 0 0-.553-1.977zm-185.002 6.46c-1.483 3.005-3.345 5.919-5.873 8.704a2.315 2.315 0 0 0-.017.022c-.275.308-.574.507-.852.802.627 5.784 1.173 11.572 1.705 17.362 2-.922 3.955-1.921 5.76-3.178-.463-7.866-.57-15.798-.723-23.711zM224.091 89.89c-2.538 4.22-3.28 5.59-5.097 8.662-.625 20.328-1.06 40.653-.862 60.967 1.424-.751 2.854-1.551 4.446-2.72.603-.444 1.323-1.134 1.955-1.64-.184-3.996-.269-8.001-.34-12.007-.792.43-1.641.91-2.086.99l-1.146-2.264c.065-4.075 1.005-7.702 2.92-10.972v-.002l.007-.014c-.665-13.632-.29-27.315.204-41zm115.211 1.934c-2.373 0-4.005 1.2-6.363 2.941-.83.613-2.086 1.853-3.043 2.656.549.41.895.383.809-.632 3.095 12.417 5.336 25.232 7.504 38.082 2.561-4.455 5.079-8.535 7.492-11.786.523-.705 1.992-2.13 4.115-4.002-3.4-8.824-6.197-17.85-8.484-27.023-.663-.129-1.335-.236-2.03-.236zm-264.402.32c-3.503 2.754-7.246 4.547-11.324 5.441 3.492 2.403 8.105.766 11.324-5.441zm242.303.943-17.096 1.278c-.498.145-.94.442-1.262.85.49 10.37.779 22.12.62 35.728a2601.1 2601.1 0 0 1 7.462-10.893l8.692-13.29c.309-2.28.603-4.565.914-6.845.029-3.044.295-5.158.67-6.828zm97.988.147c-4.091 0-8.13.798-12.121 2.248.153 4.478.237 8.956.469 13.434.242 1.418.427 2.84.656 4.26 2.35-3.063 4.553-5.614 6.433-7.223 2.352-2.013 4.228-2.776 5.446-2.784.215.542.447 1.082.447 2.114 0 4.938-2.858 10.135-9.242 15.66l-.014.012c-.55.484-1.124.803-1.68 1.253.478 3.379.888 6.761 1.293 10.143 2.546-1.196 5.008-2.479 7.288-3.96 9.18-5.877 14.199-13.227 14.199-21.642 0-4.141-1.028-7.615-3.362-10.021-2.333-2.406-5.762-3.492-9.812-3.492zm-138.488.142-5.52.391c.17 7.897.357 15.794.56 23.691.033-.056.053-.101.085-.158l.004-.006c1.77-3.075 3.568-5.839 5.369-8.576-.119-5.119-.33-10.228-.498-15.342zm-79.522.063-6.732.504c-.444 9.927-.865 19.85-1.479 29.959.772-1.125 2.013-2.946 2.604-3.8l.037-.052 4.777-7.306c.278-6.39.52-12.888.793-19.305zm-38.55.133-11.18.79a2.508 2.508 0 0 0-.985.659c.09 20.893.338 41.697.567 62.521 2.2-1.217 4.252-2.752 6.039-4.748.133.321.34.863.457 1.14.267.624.494 1.131.7 1.55.204.419.278.666.718 1.197.437.527.967.944 1.512 1.34-.074-7.215-.065-14.43-.043-21.646-.396.466-.898 1.159-1.268 1.57-1.515 1.683-2.818 2.902-3.8 3.623-.957.702-1.55.806-1.503.812-.1-.094-.36-.415-.625-1.052a2.47 2.47 0 0 0-.039-.088c-.471-1.023-.676-1.96-.676-2.887 0-4.233 2.543-11.491 8.006-21.053 1.33-7.93 1.93-15.834 2.12-23.728zM368.278 95.3c-2.09.476-4.625 1.717-7.21 3.037-.332 4.222-.685 8.44-1.118 12.657 1.844-1.372 3.862-2.92 5.133-3.713 1.298-.812 1.554-.847 2.025-1.041-.707.44-1.404.924-2.07 1.494-3.011 2.47-4.897 5.559-4.897 8.947 0 1.678.612 2.574 1.41 4.008.19.34.456.634.778.855.848.586 1.592 1.051 2.304 1.407a5.42 5.42 0 0 0 2.118.593c.662-9.401 1.222-18.81 1.527-28.244zm-107.139.15a2.508 2.508 0 0 0-.437.292l-2.862 5.71c.754 19.045 1.543 38.092 2.368 57.14 1.096-.45 2.132-1.023 3.142-1.657-1.03-20.49-1.826-40.984-2.21-61.484zm-78.775.962c-2.12 4.222-4.995 9.172-8.313 14.543-.263 15.76-.522 31.71-.773 46.808 2.381-1.208 4.86-2.754 7.539-4.86.34-5.094.643-10.118.82-14.86-.918.68-1.822 1.43-2.783 1.92.798-1.623 1.901-3.34 2.9-5.024.448-14.067.418-26.738.61-38.527zm-38.61 2.584-.652 1.302c-.805.04-1.213.067-1.93.104.823 19.604 1.37 39.22 1.784 58.844.677-.202 1.353-.407 2.002-.676-.3-19.862-.61-39.723-1.204-59.574zm-41.962.154c-.992 1.952-1.902 3.858-2.666 5.682-.157.03-.368.102-.526.134-.064 14.822.151 29.649.637 44.477.506-.32 1.04-.599 1.537-.93.321-.214.613-.459.93-.678-.548-16.264-.86-32.55.088-48.685zm115.01 3.129c-1.196 2.045-3.27 5.49-4.028 6.846-.496 17.439-.83 34.88-1.037 52.326.051 0 .095.027.146.027 1.257 0 2.552-.326 3.881-.81.188-19.442.527-38.926 1.037-58.39zm173.831.152c-.775.587-1.55 1.18-2.32 1.822-.086 12.543-.064 25.085-.098 37.627.357-1.169.765-2.408 1.366-3.859.436-.09.838-.218 1.27-.313-.066-11.759-.145-23.517-.218-35.277zm-8.957.135a3076.882 3076.882 0 0 1-2.62 58.742c.848.067 1.683.149 2.591.149 1.274 0 2.542-.104 3.805-.254.392-18.391.78-36.782 1.013-55.172-1.63 1.46-3.254 2.974-4.861 4.68.526-1.576.86-3.17.86-4.778 0-1.167-.347-2.28-.788-3.367zm-290.38 4.287c-.798.235-1.572.448-2.413.715.156 3.028.362 6.151.496 9.137.631-.231 1.234-.407 1.854-.616.002-3.073-.007-6.144.062-9.236zm-4.473 1.441c-1.811.603-3.717 1.27-5.735 2.02.281 3.202.613 6.4.866 9.603.176-.095.386-.207.51-.275.092-.05.165-.09.24-.133 1.728-.835 3.375-1.506 5.007-2.148-.02-.39-.02-.78-.04-1.17-.373-2.614-.615-5.254-.848-7.897zm227.982 4.55c-.77 1.14-1.348 2.273-1.435 3.679-.023.356.03.712.154 1.047l.182.488c.108.123.229.236.359.336.249-1.85.49-3.702.74-5.55zm-284.595 5.792c.92 7.731 1.8 15.497 2.767 23.266 1.365-.313 2.7-.653 4.09-.944.156-.032.31-.076.459-.13 2.525-.914 4.478-2.53 5.775-4.49-.9-4.918-1.823-9.834-2.84-14.747-2.622-1.964-6.19-2.756-10.251-2.955zm60.988 2.668c-.483.88-.97 1.733-1.457 2.572.414 10.542.62 20.644.654 30.37.75-.342 1.468-.727 2.201-1.09-.755-10.528-1.279-21.132-1.398-31.852zm-75.416 1.113c-.202.143-.392.301-.588.452.04.596.089 1.19.13 1.787.155-.749.306-1.49.458-2.239zm-.457 2.239c-1.662 8.06-3.369 16.054-4.35 23.578 1.677 2.624 4.107 4.862 7.04 6.797a820.716 820.716 0 0 1-2.69-30.375zm296.21-1.438c-.356 0-.708.076-1.033.223-.92.416-1.134.759-1.59 1.22a29.812 29.812 0 0 0-1.564 1.747c-1.2 1.428-2.758 3.42-4.707 6.01l-.008.011c-1.036 1.391-2.124 2.49-3.219 3.559-.12 5.152-.435 9.926-.779 14.781 1.113-.943 2.18-1.785 3.354-2.861l.013-.012c4.071-3.787 7.224-7.161 9.502-10.328.615-4.619 1.231-9.24 1.85-13.858a2.508 2.508 0 0 0-1.094-.492zm-115.583.059c-.263.014-.52.07-.766.164-.92.416-1.134.759-1.59 1.22a29.812 29.812 0 0 0-1.564 1.747c-.895 1.065-2.203 2.776-3.51 4.482-.338 5.38-.684 10.793-1.039 16.213 3.222-3.046 5.796-5.827 7.826-8.455.221-5.132.418-10.225.643-15.371zm227.578 1.709c-1.676 0-2.859.79-4.336 1.877-1.477 1.086-3.164 2.612-5.145 4.613l-.006.008c-3.104 3.16-4.477 4.253-6.523 6.14.435 3.979.657 7.967 1.002 11.95 2.1-1.871 4.195-3.779 6.252-6.082 3.703-4.144 6.488-7.409 8.385-9.838.948-1.215 1.672-2.215 2.2-3.063.53-.847 1.01-1.288 1.01-2.675 0-.585-.128-1.358-.714-2.018s-1.487-.912-2.125-.912zm-335.492 1.67c-1.697 2.72-3.412 5.242-5.159 7.457.503 7.54 1.044 15.076 1.407 22.623a80.268 80.268 0 0 0 4.744-1.883c-.215-9.403-.572-18.802-.992-28.197zm189.664 1.937c-2.047 2.857-3.886 5.262-5.526 7.229.216 7.605.365 15.21.6 22.816 1.77.959 3.998 1.35 6.463 1.444-.823-10.472-1.238-20.976-1.537-31.489zm-37.66.826c-.87.432-1.696 1.03-2.674 1.83-1.696 1.387-3.734 3.361-6.188 5.97-.211.224-.336.28-.543.493.172 3.848.338 7.695.53 11.541 1.77-1.72 3.529-3.418 5.484-5.507.627-.67.872-1.033 1.428-1.645-.292 1.215-.487 2.427-.487 3.63 0 3.637 1.567 7.07 4.325 9.938 1.224 1.274 2.623 2.25 4.11 3.002-2.605-10.369-4.557-19.188-5.985-29.252zm125.867 6.782c-.963 3.39-1.606 6.765-1.606 10.115 0 1.147.096 2.246.27 3.297.487-4.466.938-8.936 1.336-13.412zM7.984 139.455c.053.577.094 1.158.193 1.718-.062-.573-.132-1.145-.193-1.718zm302.914 2.666-8.121 15.552c-.876 1.679.32 3.692 2.213 3.727l3.326.06c.852-6.448 1.726-12.893 2.582-19.34zm80.012 5.275c-.793.105-1.588.227-2.371.227-.27 0-.22-.06-.334-.088-.008 4.394-.029 8.787-.028 13.181.94-.193 1.878-.4 2.81-.675-.021-4.215-.055-8.43-.077-12.645zm-356.742 4.21c.403 3.217.781 6.457 1.185 9.679 3.777.621 7.857.927 12.168 1-.445-3.103-.88-6.204-1.367-9.307-.314.005-.592.08-.908.08-3.68 0-7.37-.558-11.078-1.451zM558.88 25.669c-4.426 0-8.766.303-13.047.809 1.451 3.198 3.799 6.951 6.111 10.642 2.598-.104 5.2-.209 8.012-.209 2.66 0 4.758.256 7.18.365.227-3.793.366-7.59.617-11.382-2.818-.103-5.534-.225-8.873-.225zm13.435.377c-.133 4.005-.173 7.753-.22 11.482 1.399.114 3.055.11 4.363.264.064-3.76.25-7.517.334-11.277-1.487-.157-2.762-.362-4.477-.47zm8.893.932c.103 3.857.25 7.722.52 11.597 2.447.432 4.756.92 6.81 1.51-2.184 1.102-4.308 2.358-6.424 3.635.51 6.465 1.056 12.932 1.434 19.392 3.272-5.248 6.546-9.387 9.783-12.463-.063-6.837-.107-13.626-.076-20.324-4.024-1.468-7.948-2.666-11.676-3.308h-.008c-.101-.018-.26-.023-.363-.04zm-41.285.476a102.825 102.825 0 0 0-21.647 6.31c-.217 3.404-.425 6.764-.63 10.173 2.243-1.05 4.495-1.993 6.76-2.739l.005-.002c5.112-1.635 11.397-2.76 18.584-3.463a127.074 127.074 0 0 1-3.072-10.279zm81.88 1.979c-2.073 0-4.434.314-6.954.793-5.253 20.523-6.791 41.336-6.215 62.197 2.895-1.89 5.435-3.916 7.644-6.065.904-12.628 2.813-25.208 5.254-37.709-1.943-2.91-4.296-5.634-7.373-7.976 1.054-.275 2.732-.7 3.487-.903 2.602-.662 4.565-1.24 6.037-1.8.55-2.551 1.183-5.054 1.76-7.596-1.166-.771-2.393-.941-3.64-.941zm-11.624 1.955c-1.258.331-2.62.756-3.971 1.175-.437 2.552-.774 4.995-.879 7.053 2.404-2.223 3.865-5.14 4.85-8.228zm358.105.693c-.224 0-.457.065-.681.07-.017 3.5-.096 6.999-.14 10.498.494-.111 1.02-.27 1.454-.296.185.2.538.753.836 1.183-.386 1.663-1.224 3.671-2.385 5.906-.09 5.512-.196 11.023-.33 16.534 3.116-4.107 6.068-8.228 8.654-12.383v-.004c2.916-4.629 4.49-9.153 4.49-13.545 0-2.537-1.375-4.962-3.56-6.242-2.184-1.28-4.936-1.72-8.336-1.721zm-47.742.272c-2.03.2-4.097.622-6.201 1.277.626 3.978 1.157 7.973 1.74 11.96 2.269-1.482 4.263-2.429 5.945-2.868-.214-1.761-.38-3.536-.6-5.295-.346-1.677-.59-3.382-.884-5.074zm31.326 4.431c-1.265.68-2.56 1.518-3.853 2.346.58 5.561 1.08 11.212 1.506 16.973.685-.73 1.324-1.346 1.986-2.016.315-5.764.35-11.533.361-17.303zm-6.637 4.111c-1.79 1.272-3.622 2.738-5.468 4.28a848.036 848.036 0 0 1 1.912 20.02c1.564-1.925 3.239-4.142 4.709-5.819-.323-6.162-.758-12.32-1.153-18.48zm-49.265 3.274a110.647 110.647 0 0 0-5.49 4.76c-.802 8.158-1.704 17.595-2.698 27.715 1.119-1.529 1.911-2.81 3.106-4.395h-.002c1.41-1.871 2.617-3.201 3.963-4.898.012-7.819.206-15.591 1.12-23.182zM522.31 45.467c-1.664 0-3.225.283-4.793.543-.423 7.112-.735 14.229-1.045 21.351.272-.565.447-1.072.75-1.656 1.353-2.573 2.65-4.407 3.713-5.46 1.061-1.054 1.73-1.245 2.091-1.245.629 0 .557.085.51.033-.046-.051.139.132.139.97 0 7.626-2.584 14.432-7.684 20.786-.185 6.53-.299 13.056-.293 19.572 3.806-1.91 7.35-4.313 10.403-7.531 7.47-7.858 11.336-17.274 11.336-27.752v-1.637c0-5.446-1.08-9.918-3.71-13.152-2.629-3.234-6.729-4.822-11.417-4.822zm-26.278 1.097c-.805.63-1.705 1.185-2.48 1.838-.393 4.831-.783 9.662-1.313 14.483 1.035-1.113 1.942-2.201 3.145-3.346.198-4.326.43-8.65.648-12.975zm264.412.553c-1.419 0-2.901.327-4.416.78-.122 10.577.504 21.326.948 32.048l6.404-12.273c.063-6.816.121-13.633.125-20.504-.693-.01-2.86-.05-3.06-.05zm-184.066.385c-1.464 1.025-2.937 2.027-4.365 3.14.091 10.9.39 22.824.726 34.731a293.05 293.05 0 0 1 3.46-8.125c.004-9.917.057-19.832.179-29.746zm346.3.965c-1.178 2.449-2.801 5.208-5.009 8.365 1.6 11.874 3.039 23.771 4.168 35.701 1.392-2.178 3.096-4.591 4.691-6.926-1.12-12.418-2.396-24.8-3.85-37.14zm-430.864 1.545c-1.687 1.51-3.268 3.104-4.8 4.734-.213 5.157-.418 10.313-.603 15.47 1.493-2.325 3.429-4.742 5.735-7.232-.2-4.323-.245-8.648-.332-12.972zm258.181.517a2.252 2.252 0 0 0-.781.752c-1.583 2.524-3.012 5.047-4.576 7.57-.397 15.813-1.096 31.626-2.008 47.434.75-1.112 1.693-2.688 2.293-3.437 1.244-.668 2.352-.995 3.33-.995.733 0 .994.155 1.08.225.086.07.199.161.27.74.05.073.105.142.164.207v1.323c0 5.92-2.043 12.517-6.323 19.802a.556.556 0 0 0-.011.022c-.658 1.147-1.373 2.2-2.077 3.27-.66 9.845-1.437 19.666-2.17 29.501 3.075-1.473 6.058-3.165 8.833-5.33a50.145 50.145 0 0 0 4.586-4.052c.381-1.116.709-2.225 1.128-3.346.017.692.002 1.404.016 2.097 2.982-3.15 5.686-6.769 8.113-10.845.446-14.113.904-28.21 1.172-42.526-1.21-.396-2.484-.664-3.846-.664-.486 0-1.342.241-1.904.301.094 15.844-1.272 31.43-7.885 46.004.364-29.349.802-58.7.596-88.053zm-125.273 4.557c-2.603 9.38-4.652 18.85-5.758 28.338 4.792-5.706 7.39-12.167 7.39-19.328 0-3.202-.67-6.164-1.632-9.01zm-58.578.478c-1.175 1.054-2.314 2.194-3.463 3.311.158.783.359 1.577.416 2.336-.873 16.754-1.359 33.53-1.645 50.308.703-1.564 1.53-3.014 2.17-4.636.284-.029.547-.087.83-.117.274-17.071.848-34.138 1.692-51.202zm-70.88 6.366c-3.911 6.507-6.01 13.807-6.01 21.8 0 .247.034.492.099.729.246.9.493 1.75.744 2.55a2.758 2.758 0 0 0 4.111 1.495c.277-8.861.66-17.718 1.057-26.574zm-15.267 1.494c-.506.73-1.119 1.378-1.6 2.127v.002a48.13 48.13 0 0 0-2.453 4.304c-.09 8.218-.173 16.443-.248 24.668 1.097 1.693 2.368 3.28 4.006 4.604l.035.027c.012.01.026.015.037.024-.002-11.887.036-23.787.223-35.756zm73.52 5.35c-7.394 8.854-14.225 19.116-20.422 30.947-4.768.602-10.719 1.85-17.44 3.5.021 3.515.098 7.023.19 10.53 3.865-1.002 7.584-1.776 11.154-2.32-3.526 7.116-7.02 13.167-10.467 18.327a363.07 363.07 0 0 0 2.658 26.904c4.704-2.35 9.24-5.11 13.555-8.38l.004-.005a85.652 85.652 0 0 0 6.852-5.7c1.874-1.732.294-1.203 2.007-3.092.367-.404-5.243-34.696-4.118-35.64 1.333-1.117 9.425 31.097 9.84 30.6 4.468-5.347 8.347-11.26 11.671-17.69-.271-16.23-1.742-32.339-5.484-47.982zm398.152 2.622c-.017 4.164-.075 8.329-.098 12.493.07-.072.148-.143.217-.215-.048-4.091-.068-8.187-.12-12.278zm-4.516 4.047c-1.227 1.307-2.198 2.467-3.529 3.83v.004c-.292.3-.526.495-.816.791.259 3.927.487 7.853.697 11.78 1.414-1.338 2.724-2.685 4.08-4.028-.148-4.125-.255-8.252-.432-12.377zm-353.43 3.38c-.867 1.122-1.623 2.263-2.63 3.364-2.416 2.606-5.048 4.723-7.791 6.598-.012.11-.006.22-.018.33-.093 4.712-.08 9.453-.06 14.196 3.732-1.006 7.365-2.158 10.85-3.528-.13-7.176-.229-14.155-.35-20.96zm301.194 3.97c-3 3.009-5.879 5.793-8.652 8.389-.483 4.39-1.012 8.574-1.547 12.748 3.447-2.864 6.949-5.723 10.12-8.61.055-4.167.13-8.331.079-12.527zM858.94 86.62a213.77 213.77 0 0 0-9.823 15.961c2.598 18.119 4.796 36.3 7.145 54.459.025-.019.045-.026.07-.045 4.016-2.978 8.633-7.318 13.953-13.057 1.16-1.25 1.73-2.024 2.647-3.076-1.296-1.108-2.681-3.728-4.157-8.006-1.334 1.23-2.618 2.38-4.332 4.217-2.318 2.487-4.334 4.31-5.945 5.442-1.212.852-2.058 1.175-2.652 1.326l-.973-1.94c.177-2.315 1-5.98 2.656-10.924 1.98-5.628 4.072-8.982 4.766-9.525 1.274-.963 1.703-1.299 2.871-2.183a626.169 626.169 0 0 1-6.227-32.649zm-373.186 4.846c-.101 3.626-.251 7.252-.338 10.879 2.55 1.06 5.32 1.756 8.31 2.056.078-3.693.232-7.384.337-11.076-.81.061-1.57.246-2.407.246-2.577 0-4.35-.798-5.902-2.105zm159.684.095c-2.31 0-4.019 1.174-6.356 2.899-2.337 1.724-5.128 4.198-8.463 7.463l-.015.015c-3.269 3.26-5.773 5.983-7.55 8.24-1.713 2.179-2.826 3.746-3.128 5.784.145.7.352 1.396.515 2.096.25.456.638.823 1.108 1.046a2.476 2.476 0 0 0 1.66.645c.989 0 1.52-.315 2.055-.615.534-.301 1.042-.667 1.601-1.116 1.12-.897 2.433-2.134 4.026-3.755l-.033.033c1.06-1.04 1.717-1.62 2.455-2.293-.39 1.041-.995 2.419-2.026 4.183a609.333 609.333 0 0 0-4.3 7.2 2.47 2.47 0 0 0-.065.119l-1.248 2.431c-.187-.293-.305-.621-.572-.865a2.734 2.734 0 0 0-1.844-.715h-.717c-.12 0-.227.065-.346.08.574 1.793 1.145 3.586 1.856 5.37 10.99 34.389 12.183-14.663 19.615-24.657a5364.25 5364.25 0 0 0 2.184 30.655c3.172-7.593 6.207-13.545 8.927-17.223l.01-.012c.28-.383 1.017-1.046 1.362-1.47-.523-6.4-1.041-12.886-1.41-18.373-.32-1.02-.634-2.041-1.166-2.874-1.749-2.73-4.802-4.29-8.135-4.29zm187.072 1.036c-.069 6.792-.083 13.584-.102 20.377 1.934-3.078 3.913-6.191 5.239-8.9.307-3.714.76-7.406 1.28-11.089-1.631-.26-3.96-.336-6.417-.388zm-256.324.164c-1.053.455-2.138.849-3.23 1.224.098 3.979.212 7.159.288 11.54 1.032-.182 2.035-.406 3.051-.612-.032-4.051-.091-8.101-.11-12.152zm247.56.828c-.656.258-1.408.395-1.959.806a2.21 2.21 0 0 0-.83 1.467c-.75-.19-1.673-.475-3.006-1.078-.17 13.553-.186 27.109-.013 40.67 1.403-2.44 3.205-5.288 5.31-8.457.127-11.136.26-22.272.498-33.408zm-145.861 1.408c-.358 0-.752.095-1.12.121.584 6.422 1.694 12.56 4.147 17.906 3.305-4.157 5.869-8.967 7.87-14.22-.124-.128-.21-.285-.34-.407-2.576-2.386-6.23-3.4-10.557-3.4zm249.469.04c-1.791 1.613-3.264 2.663-4.952 4.093.298 3.439.498 6.883.75 10.324.343-.263 1.106-.836 1.422-1.08l.03-.023c1.292-1.028 2.388-2.072 3.644-3.102-.251-3.41-.613-6.806-.894-10.213zm-204.614.038c-.726 1.24-1.526 2.48-2.248 3.72-5.197 8.86-8.273 14.545-11.717 20.78-.066 13.189-.058 27.044-.062 40.889 2.696.844 5.77 1.275 9.246 1.275.669 0 1.291-.126 1.951-.15-.348-10.067-.526-20.148.242-30.283 1.161-12.068 1.946-24.147 2.588-36.23zm78.094.139c-3.007 1.343-6.157 3.467-9.36 5.853-.245 8.753-.376 17.508-.497 26.264a73.975 73.975 0 0 1 3.785-5.627l.004-.004s0-.003.002-.004c1.844-2.468 3.743-4.556 5.636-6.683.133-6.294.264-12.791.43-19.8zm-191.93 3.943c.476 9.636 1.252 19.272 2.448 28.89a245.829 245.829 0 0 1 5.191-9.952c-.593-6.314-.954-12.63-.88-18.938zm9.186 0a92.968 92.968 0 0 0 1.33 13.94c1.875-3.254 3.485-6.342 5.62-9.756 1.138-1.821-.171-4.184-2.32-4.184zm276.592 2.569c-3.91 6.961-7.481 13.957-10.362 21.023-4.252 10.424-6.453 19.172-6.453 26.43 0 3.288 1.239 6.366 3.506 8.824.031.034.063.067.096.1 2.454 2.371 5.682 3.619 9.195 3.619 1.849 0 3.747-.637 5.727-1.621-1.6-13.47-2.638-27.015-3.33-40.457.97-5.86 1.385-11.865 1.62-17.918zm-226.326.267c-.188 1.302-.288 2.61-.467 3.912.615-.34 1.287-.698 1.441-.744.156.08.32.144.488.19.285 0 .108-.01.059-.061-.049-.05.1.092.176.682.049.067.1.133.156.195v1.451c0 3.616-1.391 8.635-4.291 14.838-1.38 12.197-2.488 24.41-3.27 36.643 1.913.603 4.064.902 6.454.902 1.015 0 1.839-.196 2.802-.248.326-1.099.605-2.204.955-3.299.566 1.24 1.05 2.099 1.557 3.074 3.796-.416 7.304-1.135 10.195-2.537 1.344-5.162 2.721-11.261 4.836-15.756-3.775 2.083-7.695 3.16-11.861 3.28-.067-.055-.15-.116-.203-.163.013-.03.013-.038.027-.07.28-.663.735-1.64 1.35-2.883l.008-.013c-4.154-6.362-4.727-34.987-10.412-39.393zm114.326 6.625c-1.248 1.206-2.459 2.245-3.739 3.584-.69 15.787-1.31 31.576-1.939 47.363a19.76 19.76 0 0 0 3.687-.906c.61-16.998 1.308-33.319 1.99-50.04zm-188.35 6.67c-.51 1.069-2.092 4.418-2.332 4.912l-7.95 12.58c.425 9.288.956 18.608 1.675 27.989 1.352.507 2.824.798 4.369.798 1.483 0 3.006-.292 4.553-.699.011-16.3-.102-31.4-.315-45.58zm-130.103 1.844c-.807 0-1.558.136-2.338.203-.21 9.449-.247 18.901-.362 28.352.462-.196.61-.372 1.27-.553l.006-.002c2.85-.75 4.948-1.315 6.605-1.772.098-8.485.172-16.994.221-25.486a20.128 20.128 0 0 0-5.402-.742zm11.222 3.724c-.045 6.63-.047 13.317-.082 19.96 2.72-2.029 4.402-4.964 4.723-8.34-.012-.991-.018-1.986-.03-2.977-.426-3.392-1.947-6.438-4.556-8.604-.017-.014-.038-.024-.055-.039zm357.16 2.715a2.21 2.21 0 0 0-.255.055c.004 4.573.028 9.146.052 13.719 2.471-3.489 3.846-6.693 3.846-9.764 0-1.192-.496-2.382-1.264-3.258a2.21 2.21 0 0 0-1.662-.752zm-48.793 1.76c-.252 10.86-.667 21.731-1.044 32.6 1.464-.704 2.834-1.612 4.128-2.666-.15-4.258-.456-8.506-.834-12.748-.04-.059-.189-.27-.189-1.028 0-.181.072-.409.08-.596-.504-5.2-1.18-10.39-2.14-15.562zm-79.293 1.781c-.309.583-1.002 1.738-1.29 2.29-.846 1.616-1.256 2.588-1.92 3.935-.295-.07-.6-.084-.9-.043-1.469 1.109-2.13 1.63-3.274 2.502.519.118 1.002.127 1.572.398.567 6.056.932 12.121 1.404 18.182.716 1.07 1.542 2.057 2.533 2.9.4.34.887.58 1.323.88-.363-7.068-.666-14.136-1.112-21.2 1.296-3.936 1.734-7.158 1.664-9.844zm-86.853.358c-1.7 1.735-3.41 4.025-5.41 7.021.624 4.55 1.233 9.097 1.957 13.633.04-.037.072-.072.111-.11l-.098.19c.687 4.302 1.534 8.533 2.284 12.818l17.416-1.025a2.476 2.476 0 0 0 2.043-1.314c.142-.27.547-1.324.703-1.635-8.914 3.957-23.785-8.62-18.705-27.082-.142-.832-.173-1.664-.301-2.496zm182.455.39c-3.388 4.65-6.377 8.483-8.662 10.938-.263.282-.407.357-.654.61-.037 4.868-.073 9.736-.073 14.605.218.508.419.97.59 1.324.199.41.278.653.674 1.135 1.65 2.008 4.336 2.814 7.436 3.125.084-7.826.513-22.345.689-31.737zm36.584 1.662c-2.57 7.495-3.926 14.036-3.926 19.657 0 3.288 1.239 6.366 3.506 8.824.031.034.063.067.096.1.393.38.836.683 1.267 1.005-.426-9.855-.865-19.737-.943-29.586zm-13.535 4.053c-1.654 2.067-3.4 3.673-5.213 4.957.063 4.397.253 8.798.344 13.195 1.521-1.249 3.047-2.515 4.69-4.035l.01-.01.015-.013c.02-4.698.11-9.396.154-14.094zm-61.342 2.955c-1.226 3.204-2.064 6.307-2.064 9.213 0 2.09.664 4.062 1.646 5.945.177-5.006.258-10.13.418-15.158zm-104.453 2.371c-.19.396-.579 1.063-.748 1.432-1.362 2.966-2.2 4.8-2.2 6.883 0 3.448 1.048 6.48 3.087 8.7.063-6.041.049-11.749-.14-17.015zm-195.908 11.164c-.046 4.273-.136 8.545-.164 12.819 2.457.82 5.068 1.418 7.783 1.869.062-3.684.112-7.369.164-11.05-1.086-.335-2.14-.563-3.262-1.02l-.006-.002c-2.063-.862-3.478-1.762-4.515-2.616zm31.85 1.659c-.17.08-.342.15-.512.228.12 2.315.315 7.213.443 9.791 0-3.34.047-6.68.068-10.02zm-.07 10.02c.001.99-.02 1.982-.019 2.974.051-.007.104-.01.155-.018-.04-.803-.096-2.178-.135-2.957zm-2.735-8.765c-1.9.72-3.836 1.205-5.79 1.582-.016 3.647-.012 7.293-.013 10.94 2.037-.101 4.047-.273 6.037-.5-.115-4.78-.153-7.927-.234-12.022zm-15.205 1.983c-.014 3.499-.033 6.995-.043 10.498 1.502.096 2.985.223 4.554.223.24 0 .469-.024.707-.026-.078-3.512-.156-7.016-.224-10.535-.758.048-1.51.135-2.276.135-.879 0-1.815-.204-2.719-.295zM122.949 81.525c1.157 1.796 1.038 5.161 2.863 7.741.778 1.1.343 2.09-.4 3.082-1.883-.842-5.413-5.968-6.537-10.133-.57-2.108-2.923-3.437-4.463-2.618-.003.592 1.704 3.439 2.96 5.688.729 1.308 1.306 2.414 1.306 2.759-.008 13.917.364 28.047.819 41.94l1.04-1.552 1.492-2.36c-.53-15.75 14.98-44.745 1.285-46.564-.218-.04-2.312-.46-1.538-2.952.772-2.481.138-7.55-.513-6.687l-7.14 9.486c-.145.193 3.183 2.886 5.55 1.48 1.479-.878 3.12.69 3.276.69z" fill="url(#b)" transform="translate(-3.727 -21.675)"/>
    <g stroke-linecap="square" stroke-linejoin="round" stroke-width="3" transform="translate(-3.727 -21.675)">
        <path d="M623.564 63.85c-2.626.053-5.24.705-7.546 1.975-2.997 1.645-5.456 4.266-6.859 7.39a15.927 15.927 0 0 0-1.245 9.142c.497 3.188 2 6.198 4.227 8.532 2.365 2.469 5.533 4.168 8.914 4.712 3.074.536 6.305.11 9.152-1.161a16.032 16.032 0 0 0 7.147-6.291c2.336-3.831 2.98-8.67 1.645-12.965-1.646-5.61-6.613-10.055-12.372-11.067a15.654 15.654 0 0 0-3.063-.267z"/>
        <circle cx="623.696" cy="79.845" fill="url(#c)" r="14"/>
        <path d="M619.355 78.898c.165.637-.41 1.883-.79 2.403-.573.74-.89.564-1.643.68-.569.03-1.312.194-1.647-.577-.48-.784-.263-1.132-.39-1.852-.23-.597-.08-1.892.284-2.177-.043-.044.89-.152 1.757-.27.37.363 1.202.727 1.648.979.03.19.752.474.851 1.406-.304.25-.068-.428-.07-.592" fill="#b2c1c7"/>
    </g>
</svg>
