<svg height="162.685" viewBox="0 0 272.492 97.611" width="454.154" xmlns="http://www.w3.org/2000/svg">
    <path d="m13.703 89.553-1.177 5.266c-.248 1.054-.31 1.797-.31 2.54 0 3.347 2.292 4.772 9.604 4.772h8.427c7.869 0 10.78-2.23 12.64-5.515.991-1.859 1.673-4.46 2.85-9.108l4.709-20.633c.248-.868.434-1.859.434-2.602 0-1.488-.682-2.417-1.86-3.099-1.672-.929-3.531-.743-8.178-.743h-8.179c-6.134 0-7.56.558-9.232 1.487-2.665 1.425-3.904 4.213-5.577 9.108-1.425 4.152-2.54 9.728-2.54 12.64 0 2.169.867 3.842 2.478 4.586 1.116.557 2.355.681 4.771.681 4.523 0 6.134-.558 7.87-2.788l1.734-2.169-.681 2.974c-.496 2.23-.93 2.913-1.983 3.718-1.053.806-2.788 1.177-4.833 1.177h-3.966c-3.47 0-4.956-.62-5.328-2.292zm22.12-21.563L33.159 79.64h-.682c-1.24 0-1.859-.434-1.859-1.301 0-.186.062-.62.124-1.054l1.611-6.815c.434-1.86.992-2.479 2.355-2.479z" fill="#fff" stroke="#000" transform="matrix(.94674 0 0 1.05625 -11.065 -10.765)"/>
    <g fill="#fff" stroke="#000">
        <path d="m81.668 93.66.363-1.632c-1.27-.241-1.632-.604-1.632-1.572 0-.423.12-1.33.423-2.6l4.05-17.534c.303-1.27.424-2.237.424-2.963 0-3.749-2.54-5.925-6.953-5.925H59.84l-.968 4.111c-.06.302-.12.847-.12 1.27 0 1.874.846 2.54 3.385 2.54h6.47c1.633 0 2.237.302 2.237 1.33 0 1.209-.846 1.693-2.781 1.693h-5.14c-5.562 0-7.98 1.209-9.976 4.897-1.39 2.54-2.782 7.981-2.782 11.186 0 4.233 3.507 5.2 7.317 5.2 4.353 0 5.38-.242 6.711-1.874l2.48-3.205c-.122.544-.243.967-.303 1.21-.121.604-.182 1.148-.182 1.51 0 1.573 1.089 2.359 3.205 2.359h1.512zM69.031 78.304l-1.511 6.651h-1.27c-.847 0-1.451-.484-1.451-1.21 0-.362.12-.967.242-1.51l.483-2.178c.303-1.27.847-1.753 1.935-1.753zM116.98 82.112h-1.512c-1.149 1.572-1.572 1.814-3.87 1.996-1.028.06-1.874.12-2.237.12h-3.265c-2.963 0-4.535-.846-4.535-2.358 0-.483.06-1.027.242-1.632l.302-1.451h10.46c3.991 0 5.019-.484 6.107-2.903.786-1.753 1.693-5.38 1.693-7.678 0-2.963-1.45-5.14-4.05-6.047-1.391-.544-2.42-.725-6.894-.725h-4.534c-10.703 0-13.303 4.353-15.66 12.697-.605 1.814-1.21 4.353-1.875 7.618-.605 2.721-.847 4.414-.847 5.684 0 2.781 1.27 4.354 3.205 5.381 1.753.907 5.2.847 9.977.847h6.227c5.684 0 8.345-.423 9.614-5.26zm-13.545-9.009.484-2.116c.363-1.572.786-2.056 1.814-2.056.786 0 1.33.484 1.33 1.33 0 .182-.06.424-.12.726l-.484 2.116zM135.965 93.66l.423-1.632c-1.27-.241-1.693-.665-1.693-1.572 0-.423.121-1.33.424-2.6l6.772-29.143.302-1.452a5.535 5.535 0 0 0 .242-1.572c0-1.572-1.089-2.358-3.205-2.358h-12.395l-.363 1.633c1.27.302 1.693.665 1.693 1.572 0 .423-.181 1.33-.483 2.6L120.97 88.28l-.302 1.45c-.182.666-.242 1.21-.242 1.573 0 1.572 1.088 2.358 3.204 2.358h1.452zM167.104 82.052h-1.753c-.786 1.511-1.633 1.995-3.507 1.995h-2.298c-2.237 0-3.325-.846-3.325-2.781 0-.484.06-.968.181-1.512l1.21-5.2c.785-3.325 1.813-4.293 4.715-4.293h2.6c2.359 0 3.386-.907 3.93-3.386l1.27-5.441h-12.334c-5.684 0-7.86.604-9.916 2.72-1.996 2.117-3.568 6.228-5.563 14.633-1.089 4.535-1.512 7.135-1.512 8.888 0 2.902.968 4.535 3.386 5.563.847.302 2.48.423 4.595.423h6.591c3.81 0 5.744.181 7.377-.786 1.814-1.088 2.358-2.116 2.781-3.93zM194.01 61.434h-7.557c-2.782 0-4.414.18-5.442.423-3.688.846-5.442 2.72-7.256 7.074-.846 2.056-1.874 5.442-2.72 8.888-1.089 4.656-1.694 7.921-1.694 9.554 0 2.6 1.089 4.111 2.419 5.079 1.451 1.028 2.963 1.209 7.86 1.209h7.316c4.051-.121 6.35-.242 8.586-1.814 3.689-2.54 5.2-7.316 7.256-16.265.907-4.111 1.39-6.288 1.39-8.223 0-1.935-.18-3.386-1.874-4.716-1.935-1.39-4.474-1.21-8.283-1.21zm-7.497 10.702c.423-2.117.847-2.6 1.935-2.6.786 0 1.21.483 1.21 1.39 0 .303 0 .666-.122 1.21L187.3 81.81l-.181.786c-.423 1.633-.907 2.237-1.875 2.237-.846 0-1.27-.484-1.27-1.27 0-.423.122-1.027.243-1.753z" transform="matrix(.96254 0 0 1.03892 -11.065 -10.765)"/>
    </g>
    <path d="M222.806 95.616c.005-.34 1.389-6.224 3.075-13.073 1.218-4.95 2.246-9.28 2.696-11.329.114-.522.191-.896.224-1.094.032-.248.08-.208-.148-.172-.258.033-.78.182-1.345.393-2.17.808-8.67.58-12.76-.449-14.19-3.566-24.435-13.256-26.978-25.515-.844-4.072-1.04-14.471-.271-14.471.264 0 .48.706.48 1.57 0 2.448 1.775 8.705 3.384 11.93 4.755 9.525 15.57 14.216 26.796 11.624 1.692-.39 4.174-1.287 5.515-1.99 3.366-1.767 8.355-6.793 10.283-10.36.883-1.634 1.692-2.886 1.797-2.783.169.165-5.322 26.03-5.856 28.194-.185.748-.155.92.807.801.925-.114 2.683-.371 5.533-1.18 9.989-2.836 17.39-8.65 21.484-16.877 5.537-11.125 5.042-25.59-1.236-36.122-2.324-3.897-8.543-10.41-12.233-12.81-3.745-2.435-2.742-2.571 1.395-.19 10.56 6.078 18.417 14.118 22.724 23.25 7.23 15.33 5.23 35.923-4.835 49.825-2.713 3.746-9.059 9.63-13.255 12.29-6.834 4.33-15.738 7.601-22.848 8.394-1.517.169-3.135.41-3.597.535-.495.134-.836-.026-.83-.391z" fill="#390"/>
</svg>
