<?xml version="1.0" encoding="UTF-8" standalone="no"?>
<!-- Created by ERK -->

<svg
   width="634.5097mm"
   height="78.655754mm"
   viewBox="0 0 634.5097 78.655754"
   version="1.1"
   id="svg1"
   inkscape:version="1.4 (86a8ad7, 2024-10-11)"
   xml:space="preserve"
   sodipodi:docname="galaxy.svg"
   xmlns:inkscape="http://www.inkscape.org/namespaces/inkscape"
   xmlns:sodipodi="http://sodipodi.sourceforge.net/DTD/sodipodi-0.dtd"
   xmlns="http://www.w3.org/2000/svg"
   xmlns:svg="http://www.w3.org/2000/svg"><sodipodi:namedview
     id="namedview1"
     pagecolor="#ffffff"
     bordercolor="#000000"
     borderopacity="0.25"
     inkscape:showpageshadow="2"
     inkscape:pageopacity="0.0"
     inkscape:pagecheckerboard="true"
     inkscape:deskcolor="#d1d1d1"
     inkscape:document-units="mm"
     inkscape:zoom="0.72711293"
     inkscape:cx="1265.278"
     inkscape:cy="306.00474"
     inkscape:window-width="3840"
     inkscape:window-height="2066"
     inkscape:window-x="-11"
     inkscape:window-y="-11"
     inkscape:window-maximized="1"
     inkscape:current-layer="g1"
     showgrid="false" /><defs
     id="defs1"><marker
       id="DistanceX"
       orient="auto"
       refX="0"
       refY="0"
       style="overflow:visible"><path
         d="M 3,-3 -3,3 M 0,-5 V 5"
         style="stroke:#000000;stroke-width:0.5"
         id="path1" /></marker><pattern
       id="Hatch"
       patternUnits="userSpaceOnUse"
       width="8"
       height="8"
       x="0"
       y="0"><path
         d="M8 4 l-4,4"
         stroke="#000000"
         stroke-width="0.25"
         linecap="square"
         id="path2" /><path
         d="M6 2 l-4,4"
         stroke="#000000"
         stroke-width="0.25"
         linecap="square"
         id="path3" /><path
         d="M4 0 l-4,4"
         stroke="#000000"
         stroke-width="0.25"
         linecap="square"
         id="path4" /></pattern><symbol
       id="*Model_Space" /><symbol
       id="*Paper_Space" /><symbol
       id="*Paper_Space0" /><marker
       id="DistanceX-0"
       orient="auto"
       refX="0.0"
       refY="0.0"
       style="overflow:visible"><path
         d="M 3,-3 L -3,3 M 0,-5 L  0,5"
         style="stroke:#000000; stroke-width:0.5"
         id="path1-9" /></marker><pattern
       id="Hatch-4"
       patternUnits="userSpaceOnUse"
       width="8"
       height="8"
       x="0"
       y="0"><path
         d="M8 4 l-4,4"
         stroke="#000000"
         stroke-width="0.25"
         linecap="square"
         id="path2-8" /><path
         d="M6 2 l-4,4"
         stroke="#000000"
         stroke-width="0.25"
         linecap="square"
         id="path3-8" /><path
         d="M4 0 l-4,4"
         stroke="#000000"
         stroke-width="0.25"
         linecap="square"
         id="path4-2" /></pattern><symbol
       id="*Model_Space-4" /><symbol
       id="*Paper_Space-5" /><symbol
       id="*Paper_Space0-5" /><marker
       id="DistanceX-09"
       orient="auto"
       refX="0.0"
       refY="0.0"
       style="overflow:visible"><path
         d="M 3,-3 L -3,3 M 0,-5 L  0,5"
         style="stroke:#000000; stroke-width:0.5"
         id="path1-4" /></marker><pattern
       id="Hatch-8"
       patternUnits="userSpaceOnUse"
       width="8"
       height="8"
       x="0"
       y="0"><path
         d="M8 4 l-4,4"
         stroke="#000000"
         stroke-width="0.25"
         linecap="square"
         id="path2-82" /><path
         d="M6 2 l-4,4"
         stroke="#000000"
         stroke-width="0.25"
         linecap="square"
         id="path3-4" /><path
         d="M4 0 l-4,4"
         stroke="#000000"
         stroke-width="0.25"
         linecap="square"
         id="path4-5" /></pattern><symbol
       id="*Model_Space-5" /><symbol
       id="*Paper_Space-1" /><symbol
       id="*Paper_Space0-7" /><marker
       id="DistanceX-4"
       orient="auto"
       refX="0.0"
       refY="0.0"
       style="overflow:visible"><path
         d="M 3,-3 L -3,3 M 0,-5 L  0,5"
         style="stroke:#000000; stroke-width:0.5"
         id="path1-0" /></marker><pattern
       id="Hatch-2"
       patternUnits="userSpaceOnUse"
       width="8"
       height="8"
       x="0"
       y="0"><path
         d="M8 4 l-4,4"
         stroke="#000000"
         stroke-width="0.25"
         linecap="square"
         id="path2-6" /><path
         d="M6 2 l-4,4"
         stroke="#000000"
         stroke-width="0.25"
         linecap="square"
         id="path3-0" /><path
         d="M4 0 l-4,4"
         stroke="#000000"
         stroke-width="0.25"
         linecap="square"
         id="path4-6" /></pattern><symbol
       id="*Model_Space-1" /><symbol
       id="*Paper_Space-11" /><symbol
       id="*Paper_Space0-73" /></defs><g
     id="g16"
     transform="translate(212.21526,-109.10337)"
     inkscape:label="Sqaure"><path
       id="path8"
       style="display:inline;fill:#ffffff;fill-opacity:1;stroke:none;stroke-width:0.944827;stroke-linecap:round"
       d="m -166.74286,173.65468 v -45.00007 h -44.99999 v 45.00007 z"
       sodipodi:nodetypes="ccccc"
       inkscape:label="SquareOutline" /><path
       id="path12"
       style="display:inline;fill:#000000;fill-opacity:1;stroke:none;stroke-width:0.944827;stroke-linecap:round"
       d="m -206.74283,133.65471 h 34.99987 v 34.99987 h -34.99987 z"
       sodipodi:nodetypes="ccccc"
       inkscape:label="SquareInner" /><path
       id="path16"
       style="fill:#ffffff;fill-opacity:1;stroke:none;stroke-width:0.944827;stroke-linecap:round"
       d="m -186.74271,143.65463 v -5.00009 h -5.0001 v 5.00009 z"
       sodipodi:nodetypes="ccccc"
       inkscape:label="Square1" /><path
       id="path20"
       style="fill:#ffffff;fill-opacity:1;stroke:none;stroke-width:0.944827;stroke-linecap:round"
       d="m -201.74284,153.65456 h 4.99994 v -4.99983 h -4.99994 z"
       sodipodi:nodetypes="ccccc"
       inkscape:label="Square2" /><path
       id="path24"
       style="fill:#ffffff;fill-opacity:1;stroke:none;stroke-width:0.944827;stroke-linecap:round"
       d="m -196.7429,163.65475 v -5.00009 h -4.99994 v 5.00009 z"
       sodipodi:nodetypes="ccccc"
       inkscape:label="Square3" /><path
       id="path28"
       style="fill:#ffffff;fill-opacity:1;stroke:none;stroke-width:0.944827;stroke-linecap:round"
       d="m -191.74281,163.65475 h 5.0001 v -5.00009 h -5.0001 z"
       sodipodi:nodetypes="ccccc"
       inkscape:label="Square4" /><path
       id="path32"
       style="fill:#ffffff;fill-opacity:1;stroke:none;stroke-width:0.944827;stroke-linecap:round"
       d="m -181.74288,158.65466 h 5.00009 v 5.00009 h -5.00009 z"
       sodipodi:nodetypes="ccccc"
       inkscape:label="Square5" /></g><path
     id="path57"
     style="display:inline;fill:#ffffff;stroke:none;stroke-width:0.944827;stroke-linecap:round"
     d="m -127.74275,159.69024 v -4.03569 h 29.999783 v 14.42905 l 16.9291,-16.92884 -16.9291,-16.9291 v 14.42905 h -29.999783 v -4.03569 l 17.46435,-17.46435 h 3.53563 v 3.53563 l -13.96444,13.96444 h 18.96427 v -17.50007 h 3.999973 l 23.000229,22.99997 v 1.99998 l -23.000229,22.99997 h -3.999973 v -17.50007 h -18.96427 l 13.96444,13.9647 v 3.53537 h -3.53563 z"
     sodipodi:nodetypes="cccccccccccccccccccccccccc"
     transform="translate(212.21526,-109.10337)"
     inkscape:label="Arrow" /><g
     id="g14"
     inkscape:label="GalaksijaOutline"><path
       d="m 784.25156,699.21311 c -13.70322,0 -27.40695,3.54376 -39.68555,10.63281 -23.3878,13.50296 -37.7951,38.45675 -37.79492,65.4629 v 135.51172 c -1.7e-4,42.19937 33.77141,76.63812 75.96289,77.46484 4.11178,0.0806 8.22416,0.0806 12.33594,0 38.07524,-0.74606 68.55276,-31.82556 68.55273,-69.9082 v -90.66016 h -9.21679 c 5.65968,-2.9172 9.21682,-8.75171 9.21679,-15.11914 v -34.01563 c 3e-5,-28.35636 -15.12836,-54.55822 -39.68554,-68.73633 -12.2786,-7.08905 -25.98233,-10.63281 -39.68555,-10.63281 z m -1.9082,89.75196 2.75,0.0176 c 21.5233,0.14111 39.10955,17.224 39.875,38.73438 H 765.35312 V 859.844 l 55.17969,-0.002 c -3.59421,8.29072 -9.5995,15.30975 -17.23633,20.14063 -13.3159,8.4233 -30.29348,8.4233 -43.60937,0 -10.77905,-6.81856 -17.72454,-18.3101 -18.75001,-31.02344 -0.59174,-7.33621 -0.59174,-14.70872 0,-22.04492 1.73737,-21.5392 19.79737,-38.08996 41.40626,-37.94922 z"
       style="display:inline;fill:#ffffff;stroke:none;stroke-width:3.571;stroke-linecap:round"
       id="path5"
       transform="matrix(0.26458333,0,0,0.26458333,-11.527544,-183.44885)"
       inkscape:label="G_Outline" /><path
       d="m 241.6266,1.8980754 c -1.91544,-0.03279 -3.83489,0.1464366 -5.72214,0.5384684 -9.27977,1.9276615 -15.93189,10.1043602 -15.93184,19.5822672 v 49.270378 c -5e-5,2.856214 1.86418,5.377709 4.59507,6.214607 2.3817,0.729888 4.92742,0.729888 7.30911,0 2.73089,-0.836895 4.59557,-3.358393 4.59559,-6.214607 v -9.180835 c -2e-5,-0.756251 0.34239,-1.471549 0.93121,-1.946135 0.0889,-0.07164 0.19952,-0.111109 0.31367,-0.111104 h 7.51014 c 0.11415,-5e-6 0.22479,0.03946 0.31367,0.111104 0.58882,0.474586 0.93123,1.189884 0.93121,1.946135 v 9.180835 c 2e-5,2.856214 1.86471,5.377709 4.59559,6.214607 2.38171,0.729891 4.92741,0.729891 7.30911,0 2.73087,-0.836903 4.59564,-3.358396 4.59559,-6.214607 V 22.549011 c 5e-5,-9.452094 -6.46274,-17.6785428 -15.64607,-19.9166135 -1.87272,-0.4563997 -3.78448,-0.7015317 -5.69991,-0.7343221 z m -0.15452,28.6535486 a 9.0050934,9.2499626 0 0 1 0,18.499646 9.0050934,9.2499626 0 0 1 0,-18.499646 z"
       style="display:inline;fill:#ffffff;stroke:none;stroke-width:0.945;stroke-linecap:round;stroke-dasharray:none"
       id="path6"
       inkscape:label="A_Outline" /><path
       id="path298"
       style="display:inline;fill:#ffffff;fill-opacity:1;stroke:none;stroke-width:3.571;stroke-linecap:round"
       d="m 1113.0705,720 c 4e-4,-11.48056 -9.3064,-20.7874 -20.7888,-20.7872 l -18.8917,2e-4 c -11.4848,-4e-4 -20.7916,9.30644 -20.7908,20.787 v 237.90511 c -8e-4,16.81237 13.6282,30.44139 30.4405,30.44135 l 66.1303,-4.6e-4 c 15.6471,4.5e-4 29.0163,-11.26741 31.6656,-26.68484 2.8753,-16.73285 2.8753,-33.83357 0,-50.56642 -2.6493,-15.41743 -16.0185,-26.68528 -31.6619,-26.68529 L 1113.07,884.409 Z"
       sodipodi:nodetypes="cccccccccccc"
       transform="matrix(0.26458333,0,0,0.26458333,-11.52758,-183.44873)"
       inkscape:label="L_Outline" /><path
       d="m 241.6266,1.8980754 c -1.91544,-0.03279 -3.83489,0.1464366 -5.72214,0.5384684 -9.27977,1.9276615 -15.93189,10.1043602 -15.93184,19.5822672 v 49.270378 c -5e-5,2.856214 1.86418,5.377709 4.59507,6.214607 2.3817,0.729888 4.92742,0.729888 7.30911,0 2.73089,-0.836895 4.59557,-3.358393 4.59559,-6.214607 v -9.180835 c -2e-5,-0.756251 0.34239,-1.471549 0.93121,-1.946135 0.0889,-0.07164 0.19952,-0.111109 0.31367,-0.111104 h 7.51014 c 0.11415,-5e-6 0.22479,0.03946 0.31367,0.111104 0.58882,0.474586 0.93123,1.189884 0.93121,1.946135 v 9.180835 c 2e-5,2.856214 1.86471,5.377709 4.59559,6.214607 2.38171,0.729891 4.92741,0.729891 7.30911,0 2.73087,-0.836903 4.59564,-3.358396 4.59559,-6.214607 V 22.549011 c 5e-5,-9.452094 -6.46274,-17.6785428 -15.64607,-19.9166135 -1.87272,-0.4563997 -3.78448,-0.7015317 -5.69991,-0.7343221 z m -0.15452,28.6535486 a 9.0050934,9.2499626 0 0 1 0,18.499646 9.0050934,9.2499626 0 0 1 0,-18.499646 z"
       style="display:inline;fill:#ffffff;stroke:none;stroke-width:0.945;stroke-linecap:round;stroke-dasharray:none"
       id="path7"
       transform="translate(84.42738)"
       inkscape:label="A_Outline" /><path
       id="path268"
       style="display:inline;fill:#ffffff;fill-opacity:1;stroke:none;stroke-width:3.571;stroke-linecap:round"
       d="m 1392.758,988.34623 h 17.0039 c 11.4825,2.3e-4 20.7893,-9.30661 20.7887,-20.7872 l -0,-25.34799 c 22.0326,29.05356 54.0633,44.14301 92.108,46.61817 4.3582,0.28335 8.0487,-3.17532 8.0494,-7.54297 l 0,-77.97817 c -7e-4,-4.23705 -3.4829,-7.64663 -7.7191,-7.55731 -27.9821,0.58995 -55.3447,-8.27936 -77.6598,-25.17267 -16.9074,-12.79953 -17.0225,-38.74777 0.01,-51.65804 22.3075,-16.91135 49.6695,-25.79928 77.6568,-25.22503 4.2346,0.0869 7.7142,-3.32199 7.7149,-7.55724 v -76.95892 c -7e-4,-3.84793 -2.8911,-7.08171 -6.7148,-7.5117 -34.4945,-3.87856 -66.2781,3.42395 -93.444,23.68181 V 720 c 6e-4,-11.48056 -9.3062,-20.7874 -20.7887,-20.7872 h -17.0039 c -11.4827,-2e-4 -20.7895,9.30664 -20.7887,20.7872 v 247.55903 c -8e-4,11.48059 9.306,20.78743 20.7887,20.7872 z"
       transform="matrix(0.26458333,0,0,0.26458333,-11.52758,-183.44873)"
       sodipodi:nodetypes="ccccccccccccccccccccc"
       inkscape:label="K_Outline" /><path
       id="path248-0"
       style="display:inline;fill:#ffffff;fill-opacity:1;stroke:none;stroke-width:3.571;stroke-linecap:round"
       d="m 1669.012,811.5063 c 3.4527,5.0617 5.739,9.37384 8.9398,11.12446 1.6443,0.89938 3.53,1.12268 5.3372,0.48296 3.7711,-1.33497 7.2001,-6.42821 9.3005,-12.00598 2.3887,-6.34313 3.0591,-13.31288 3.4379,-17.05677 1.4801,-14.63158 1.4982,-28.37729 -0.4129,-42.60767 -7.6336,-41.98899 -53.1007,-61.18441 -91.3907,-55.24799 -38.2899,5.93641 -66.3469,46.99487 -60.8052,85.72889 2.7709,19.367 11.8369,37.99479 25.7203,51.74621 13.8835,13.75141 33.2467,19.14687 48.7075,33.15381 7.7304,7.00346 13.7835,16.1633 11.5065,25.37462 -2.277,9.21133 -16.5412,11.07424 -25.5698,8.90158 -18.0572,-4.34534 -31.1459,-23.26195 -41.9352,-39.8101 -3.5049,-5.37562 -11.6913,-4.21419 -13.5622,1.92428 -4.6026,15.09886 -6.3927,30.97973 -4.8683,46.88335 2.9708,40.00325 30.2433,73.65232 67.7092,77.75649 37.4659,4.10417 80.3307,-22.85953 87.0033,-56.31252 3.3362,-16.72649 3.796,-37.91453 -3.9572,-55.80664 -7.7533,-17.89211 -22.907,-25.00856 -43.4556,-33.83007 -20.5486,-8.8215 -38.764,-19.03259 -33.8366,-38.81858 4.9274,-19.78598 36.898,-14.14309 47.2294,1.54575 0.4189,0.63611 2.8638,3.88564 4.9021,6.87392 z"
       inkscape:label="S_Outline"
       sodipodi:nodetypes="ssssccsssssscccssssscs"
       transform="matrix(0.26458333,0,0,0.26458333,-11.566709,-183.43755)" /><path
       id="path242"
       style="display:inline;fill:#ffffff;fill-opacity:1;stroke:none;stroke-width:3.571;stroke-linecap:round"
       d="m 1715.91,967.55903 c 0,11.48059 9.3046,20.78743 20.7838,20.7872 h 18.8988 c 11.4809,2.3e-4 20.7877,-9.30661 20.7887,-20.7872 L 1776.379,720 c -10e-4,-11.48056 -9.3078,-20.7874 -20.7887,-20.7872 H 1736.69 c -11.4794,0.001 -20.7845,9.30777 -20.7823,20.7872 z"
       sodipodi:nodetypes="scccccccs"
       transform="matrix(0.26458333,0,0,0.26458333,-11.52758,-183.44873)"
       inkscape:label="I_Outline" /><path
       id="path17"
       style="fill:#ffffff;fill-opacity:1;stroke:none;stroke-width:0.944827;stroke-linecap:round"
       d="m 490.97217,7.050945 c 3.4e-4,-3.03756 -2.46208,-5.499998 -5.49902,-5.499945 h -5.00031 c -3.03789,-5.3e-5 -5.50032,2.462385 -5.50032,5.499945 l -2e-5,37.49996 c 2e-5,0.55401 -0.30531,1.06288 -0.7941,1.32357 -3.08486,1.64525 -6.57275,2.3827 -10.05954,2.12688 -1.15911,-0.085 -2.14635,0.83242 -2.14586,1.99464 v 26.04658 c -4.9e-4,1.09572 0.88129,1.98747 1.97701,1.9998 3.14827,0.0354 6.29682,-0.039 9.43988,-0.22325 5.92532,-0.34727 11.49178,-2.95387 15.5526,-7.2828 1.30416,-1.39027 2.03002,-3.22498 2.02968,-5.13123 z"
       sodipodi:nodetypes="cccccccccccccc"
       inkscape:label="J_Outline" /><path
       d="m 241.6266,1.8980754 c -1.91544,-0.03279 -3.83489,0.1464366 -5.72214,0.5384684 -9.27977,1.9276615 -15.93189,10.1043602 -15.93184,19.5822672 v 49.270378 c -5e-5,2.856214 1.86418,5.377709 4.59507,6.214607 2.3817,0.729888 4.92742,0.729888 7.30911,0 2.73089,-0.836895 4.59557,-3.358393 4.59559,-6.214607 v -9.180835 c -2e-5,-0.756251 0.34239,-1.471549 0.93121,-1.946135 0.0889,-0.07164 0.19952,-0.111109 0.31367,-0.111104 h 7.51014 c 0.11415,-5e-6 0.22479,0.03946 0.31367,0.111104 0.58882,0.474586 0.93123,1.189884 0.93121,1.946135 v 9.180835 c 2e-5,2.856214 1.86471,5.377709 4.59559,6.214607 2.38171,0.729891 4.92741,0.729891 7.30911,0 2.73087,-0.836903 4.59564,-3.358396 4.59559,-6.214607 V 22.549011 c 5e-5,-9.452094 -6.46274,-17.6785428 -15.64607,-19.9166135 -1.87272,-0.4563997 -3.78448,-0.7015317 -5.69991,-0.7343221 z m -0.15452,28.6535486 a 9.0050934,9.2499626 0 0 1 0,18.499646 9.0050934,9.2499626 0 0 1 0,-18.499646 z"
       style="display:inline;stroke:none;stroke-width:0.945;stroke-dasharray:none;stroke-opacity:1;fill:#ffffff;stroke-linecap:round"
       id="path10"
       transform="translate(274.99987)"
       inkscape:label="A_Outline" /></g><g
     id="g13"
     inkscape:label="Galaksija"><path
       id="path99"
       style="display:inline;fill:#000000;fill-opacity:1;stroke:none;stroke-width:3.571;stroke-linecap:round"
       d="m 720,910.8208 c 0,34.99456 28.00517,63.55385 62.99323,64.23942 3.93903,0.0772 7.87918,0.0772 11.81821,0 30.87181,-0.60492 55.58226,-25.80429 55.58241,-56.68212 l 1.5e-4,-77.4331 h -71.811 v 5.669 l 50.5591,9e-5 c 4.50218,8e-5 7.82958,4.19483 6.80497,8.57877 -3.47791,14.88079 -12.66472,27.79868 -25.57951,35.96826 -17.63466,11.15525 -40.11745,11.15525 -57.75211,0 -14.29385,-9.04194 -23.50313,-24.27973 -24.86298,-41.1386 -0.64884,-8.04409 -0.64884,-16.12738 0,-24.17147 2.29427,-28.44341 26.14142,-50.30087 54.67657,-50.11486 l 2.75177,0.018 c 20.64347,0.13534 39.35941,12.15937 48.06365,30.87876 0.61994,1.33325 1.95682,2.18596 3.42735,2.18601 l 9.94236,-5e-5 c 2.08738,0 3.77953,-1.69215 3.77968,-3.77971 v -26.45635 c -1.5e-4,-23.63033 -12.60669,-45.4655 -33.07102,-57.28058 -20.46432,-11.81508 -45.67741,-11.81508 -66.14173,0 C 731.88617,732.44219 720,753.02964 720,775.30975 Z"
       inkscape:label="G"
       sodipodi:nodetypes="ccccccccccccccccccccsccc"
       transform="matrix(0.26458333,0,0,0.26458333,-11.527544,-183.44885)" /><path
       id="path76"
       style="display:inline;fill:#000000;fill-opacity:1;stroke:none;stroke-width:3.571;stroke-linecap:round"
       d="m 1016.2377,973.62973 c -6.4757,1.98452 -13.3973,1.98452 -19.87294,0 -4.76375,-1.45988 -8.0163,-5.85852 -8.01753,-10.84084 l -10e-4,-34.69884 c 2.3e-4,-6.85991 -3.10506,-13.35116 -8.44611,-17.65605 -2.68753,-2.16615 -6.0354,-3.34739 -9.48717,-3.34719 h -28.38492 c -3.4518,-2e-4 -6.79967,1.18104 -9.4872,3.34719 -5.34105,4.30489 -8.44634,10.79614 -8.44658,17.65605 v 34.69884 c 2.4e-4,4.98233 -3.25232,9.38096 -8.01607,10.84084 -6.47567,1.98451 -13.39723,1.98451 -19.8729,0 -4.76375,-1.45988 -8.0163,-5.85852 -8.01629,-10.84084 l 0,-186.21901 c -10e-6,-29.55319 20.74326,-55.04822 49.67863,-61.05888 12.34158,-2.56368 25.09933,-2.34528 37.34593,0.63934 28.78285,7.01464 49.03845,32.79961 49.03845,62.42476 l 10e-4,184.21379 c 10e-4,4.98232 -3.2516,9.38096 -8.0153,10.84084 z M 956.22047,795.59055 c -26.08689,0.008 -47.23046,21.58036 -47.23046,48.18897 0,26.60862 21.14357,48.18131 47.23046,48.18898 26.08689,-0.008 47.23043,-21.58036 47.23043,-48.18898 0,-26.60861 -21.14354,-48.1813 -47.23043,-48.18897 z"
       transform="matrix(0.26458333,0,0,0.26458333,-11.52758,-183.44873)"
       sodipodi:nodetypes="ccccccccccccccccccccscsc"
       inkscape:label="A" /><path
       id="path88"
       style="fill:#000000;stroke:none;stroke-width:3.571;stroke-linecap:round;fill-opacity:1"
       d="m 1109.7322,897.6379 h 39.4418 c 9.2039,-1.3e-4 17.0682,6.62803 18.6266,15.69713 2.6205,15.25019 2.6205,30.83566 -0,46.08585 -1.5595,9.0691 -9.4238,15.69725 -18.6276,15.69718 h -66.1321 c -9.5065,6e-5 -17.213,-7.70642 -17.2114,-17.21295 V 720 c -0,-4.17473 3.3827,-7.55902 7.5595,-7.55903 l 18.8939,10e-6 c 4.1764,0 7.5607,3.38429 7.5595,7.55902 l -0,167.74581 c 0,5.46312 4.4289,9.892 9.8922,9.89209 z"
       sodipodi:nodetypes="ccccccccccccc"
       transform="matrix(0.26458333,0,0,0.26458333,-11.52758,-183.44873)"
       inkscape:label="L" /><path
       id="path9"
       style="display:inline;fill:#000000;fill-opacity:1;stroke:none;stroke-width:3.571;stroke-linecap:round"
       d="m 1016.2377,973.62973 c -6.4757,1.98452 -13.3973,1.98452 -19.87294,0 -4.76375,-1.45988 -8.0163,-5.85852 -8.01753,-10.84084 l -10e-4,-34.69884 c 2.3e-4,-6.85991 -3.10506,-13.35116 -8.44611,-17.65605 -2.68753,-2.16615 -6.0354,-3.34739 -9.48717,-3.34719 h -28.38492 c -3.4518,-2e-4 -6.79967,1.18104 -9.4872,3.34719 -5.34105,4.30489 -8.44634,10.79614 -8.44658,17.65605 v 34.69884 c 2.4e-4,4.98233 -3.25232,9.38096 -8.01607,10.84084 -6.47567,1.98451 -13.39723,1.98451 -19.8729,0 -4.76375,-1.45988 -8.0163,-5.85852 -8.01629,-10.84084 V 776.56988 c -10e-6,-29.55319 20.74326,-55.04822 49.67863,-61.05888 12.34158,-2.56368 25.09933,-2.34528 37.34593,0.63934 28.78285,7.01464 49.03845,32.79961 49.03845,62.42476 l 10e-4,184.21379 c 10e-4,4.98232 -3.2516,9.38096 -8.0153,10.84084 z M 956.22047,795.59055 c -26.08689,0.008 -47.23046,21.58036 -47.23046,48.18897 0,26.60862 21.14357,48.18131 47.23046,48.18898 26.08689,-0.008 47.23043,-21.58036 47.23043,-48.18898 0,-26.60861 -21.14354,-48.1813 -47.23043,-48.18897 z"
       transform="matrix(0.26458333,0,0,0.26458333,72.899799,-183.44873)"
       sodipodi:nodetypes="ccccccccccccccccccccscsc"
       inkscape:label="A" /><path
       id="path125"
       style="fill:#000000;stroke:none;stroke-width:3.571;stroke-linecap:round;fill-opacity:1"
       d="m 1392.758,975.11806 17.0039,0 c 4.1766,2e-5 7.5609,-3.38428 7.5595,-7.55904 l -0,-40.50384 c 0,-8.60832 11.2218,-11.9107 15.8847,-4.6744 18.2353,31.19652 46.3262,48.77562 84.2726,52.73727 v -66.14186 c -28.9785,-0.60868 -57.0242,-10.35623 -80.134,-27.85114 -26.6978,-20.21113 -26.6978,-52.50692 0,-72.74654 23.1031,-17.51448 51.1494,-27.28139 80.134,-27.90629 v -66.14137 c -33.9639,-2.67831 -63.0829,6.79904 -87.3569,28.43189 -5.0874,4.22987 -12.8004,0.61199 -12.8004,-6.00394 l 0,-16.7588 c 0,-4.17473 -3.3829,-7.55902 -7.5595,-7.55902 l -17.0039,-10e-6 c -4.1768,10e-6 -7.5611,3.3843 -7.5611,7.55903 l 0,247.55903 c -0,4.17475 3.3828,7.55905 7.5596,7.55903 z"
       sodipodi:nodetypes="ccccccccccccccccccc"
       transform="matrix(0.26458333,0,0,0.26458333,-11.52758,-183.44873)"
       inkscape:label="K" /><path
       id="path242-0"
       style="display:inline;fill:#000000;fill-opacity:1;stroke:none;stroke-width:3.571;stroke-linecap:round"
       d="m 1682.4121,796.80932 c 1.7704,-14.65876 2.0135,-29.29592 0.1325,-43.30147 -3.5098,-19.30611 -18.7315,-31.54515 -35.6211,-38.65386 -9.4037,-3.95795 -19.3244,-6.32554 -29.5508,-6.40154 -14.6374,-0.10883 -29.9011,4.47708 -41.0017,13.85193 -12.2606,10.35459 -19.4424,26.55139 -20.4699,43.19663 -1.4768,23.92432 9.7603,48.77506 27.3023,63.04749 9.2567,7.53142 20.2691,12.11725 30.9157,18.93807 13.8688,8.88523 27.1169,21.56312 28.7463,37.47195 0.5982,5.84041 -0.3695,12.11627 -3.3687,17.00787 -5.208,8.49413 -16.5415,12.81428 -27.062,13.19493 -21.8192,0.78945 -40.1412,-15.36631 -51.891,-31.83102 -0.9918,-1.38975 -3.172,-0.85595 -3.4096,0.8348 -1.1611,8.26447 -1.3395,16.53489 -0.5351,24.81128 3.7113,50.77794 36.8374,66.40123 64.3003,66.14173 10.9108,-0.1031 20.9278,-2.71317 30.7749,-7.55236 12.0506,-5.92204 23.8469,-15.18242 29.6296,-26.91245 4.0473,-8.20987 5.1489,-17.62952 5.3765,-27.49447 0.3246,-14.06802 -1.128,-29.04159 -8.5607,-39.02344 -7.4186,-9.96293 -20.7946,-14.95303 -34.08,-20.70336 -16.7433,-7.24704 -33.3426,-15.70158 -38.9733,-31.72717 -3.6762,-10.46319 -2.6767,-24.15379 4.1148,-32.55248 6.2001,-7.66745 17.2276,-10.92437 27.8904,-10.92741 15.7078,-0.004 30.6241,7.05241 38.6757,20.05469 1.7999,2.90648 6.255,1.92364 6.6649,-1.47034 z"
       inkscape:label="S"
       sodipodi:nodetypes="ccssssssssscccssssssssccc"
       transform="matrix(0.26458333,0,0,0.26458333,-11.566709,-183.43755)" /><path
       id="path139"
       style="fill:#000000;stroke:none;stroke-width:3.571;stroke-linecap:round;fill-opacity:1"
       d="m 1755.5903,975.11806 h -18.8988 c -4.1733,2e-5 -7.5576,-3.38428 -7.5595,-7.55903 V 720 c 0,-4.17473 3.3862,-7.55902 7.5595,-7.55903 l 18.8988,10e-6 c 4.175,0 7.5593,3.38429 7.5595,7.55902 v 247.55903 c -2e-4,4.17475 -3.3845,7.55905 -7.5595,7.55903 z"
       sodipodi:nodetypes="ccccccccc"
       transform="matrix(0.26458333,0,0,0.26458333,-11.52758,-183.44873)"
       inkscape:label="I" /><path
       id="path150"
       style="display:inline;fill:#000000;fill-opacity:1;stroke:none;stroke-width:3.571;stroke-linecap:round"
       d="m 1851.9692,720 c -7e-4,-4.17477 3.3836,-7.55907 7.5596,-7.55903 l 18.8988,10e-6 c 4.1724,-5e-5 7.5567,3.38425 7.5546,7.55902 v 220.5511 c 0,3.8426 -1.4611,7.5409 -4.09,10.34333 -13.031,13.89132 -30.8935,22.25578 -49.9075,23.37019 -9.7063,0.56887 -19.4272,0.85349 -29.1524,0.85344 v -86.92908 c 13.6483,10e-6 27.0867,-3.35959 39.1293,-9.78231 6.158,-3.2843 10.0046,-9.69527 10.0065,-16.67453 z"
       sodipodi:nodetypes="cccccccccccc"
       transform="matrix(0.26458333,0,0,0.26458333,-11.52758,-183.44873)"
       inkscape:label="J" /><path
       id="path11"
       style="display:inline;stroke:none;stroke-width:3.57165;stroke-dasharray:none;stroke-opacity:1;fill:#000000;fill-opacity:1;stroke-linecap:round"
       d="m 1016.2377,973.62973 c -6.4757,1.98452 -13.3973,1.98452 -19.87294,0 -4.76375,-1.45988 -8.0163,-5.85852 -8.01753,-10.84084 l -10e-4,-34.69884 c 2.3e-4,-6.85991 -3.10506,-13.35116 -8.44611,-17.65605 -2.68753,-2.16615 -6.0354,-3.34739 -9.48717,-3.34719 h -28.38492 c -3.4518,-2e-4 -6.79967,1.18104 -9.4872,3.34719 -5.34105,4.30489 -8.44634,10.79614 -8.44658,17.65605 v 34.69884 c 2.4e-4,4.98233 -3.25232,9.38096 -8.01607,10.84084 -6.47567,1.98451 -13.39723,1.98451 -19.8729,0 -4.76375,-1.45988 -8.0163,-5.85852 -8.01629,-10.84084 V 776.56988 c -10e-6,-29.55319 20.74326,-55.04822 49.67863,-61.05888 12.34158,-2.56368 25.09933,-2.34528 37.34593,0.63934 28.78285,7.01464 49.03845,32.79961 49.03845,62.42476 l 10e-4,184.21379 c 10e-4,4.98232 -3.2516,9.38096 -8.0153,10.84084 z M 956.22047,795.59055 c -26.08689,0.008 -47.23046,21.58036 -47.23046,48.18897 0,26.60862 21.14357,48.18131 47.23046,48.18898 26.08689,-0.008 47.23043,-21.58036 47.23043,-48.18898 0,-26.60861 -21.14354,-48.1813 -47.23043,-48.18897 z"
       transform="matrix(0.26458333,0,0,0.26458333,263.4723,-183.44873)"
       sodipodi:nodetypes="ccccccccccccccccccccscsc"
       inkscape:label="A" /></g><g
     id="g1"
     inkscape:label="ReadingLogo"
     transform="matrix(0.26458333,0,0,0.26458333,-11.527583,-183.44874)"><path
       id="path334"
       style="fill:#ffffff;fill-opacity:1;stroke:none;stroke-width:3.571;stroke-linecap:round"
       d="m 2396.3104,727.55903 c 16.8733,3e-5 30.871,13.05311 32.0488,29.88499 l 11.4887,164.27782 c 1.3736,19.67242 -14.2143,36.38841 -33.9364,36.38828 h -191.2 c -16.8716,1.1e-4 -30.8693,-13.05297 -32.0439,-29.88499 l -11.4887,-164.27732 c -1.3767,-19.67278 14.2112,-36.38877 33.9315,-36.38878 z"
       sodipodi:nodetypes="ccccccccc"
       inkscape:label="TrapazoidOutline" /><path
       id="path342"
       style="fill:#000000;fill-opacity:1;stroke:none;stroke-width:3.571;stroke-linecap:round"
       d="m 2180.6018,763.28875 11.4887,164.27732 c 0.8313,11.8814 10.712,21.09534 22.621,21.09514 h 191.2 c 14.2442,2.2e-4 25.5021,-12.07244 24.5085,-26.28032 l -11.4887,-164.27781 c -0.8295,-11.88126 -10.7102,-21.0952 -22.621,-21.09514 h -191.1999 c -14.2424,-8e-5 -25.5003,12.07258 -24.5086,26.28081 z"
       sodipodi:nodetypes="ccccccccc"
       inkscape:label="Trapazoid" /><path
       d="m 2340.8111,816.1256 a 43.464582,37.795289 20 0 0 -81.6867,-29.73151 43.464582,37.795289 20 0 0 81.6867,29.73151 z"
       style="fill:#ffffff;fill-opacity:1;stroke:none;stroke-width:3.571;stroke-linecap:round"
       id="path344"
       inkscape:label="OvalOutline" /><path
       d="m 2269.7792,790.27211 a 32.125984,27.401575 -160 0 0 60.3771,21.97547 32.125984,27.401575 -160 0 0 -60.3771,-21.97547 z"
       style="fill:#000000;fill-opacity:1;stroke:none;stroke-width:3.571;stroke-linecap:round"
       id="path343"
       inkscape:label="Oval" /><path
       id="path354"
       style="display:inline;fill:#ffffff;fill-opacity:1;stroke:none;stroke-width:3.571;stroke-linecap:round"
       d="m 2232.7267,847.42807 c 0.8557,-0.66885 1.7604,-1.25524 2.7189,-1.76945 6.4503,-3.4605 15.3374,-3.65198 23.8926,-3.57988 9.0491,0.0763 17.7268,0.4474 24.9126,3.34858 6.1433,2.48025 11.1961,6.80965 16.9926,13.15514 1.4309,1.56641 2.9071,3.25568 4.2684,3.14982 1.3218,-0.10277 2.5353,-1.89784 3.7795,-3.49917 4.665,-6.00362 9.7623,-9.28394 15.4916,-11.52851 7.7095,-3.02035 16.5632,-4.1653 25.5696,-4.62586 7.0521,-0.36063 14.1977,-0.30165 20.1937,2.48778 2.7465,1.27774 5.2518,3.12839 7.2032,5.91453 l 26.7715,38.23582 c 2.6319,3.7573 -0.056,8.92099 -4.6421,8.92103 h -81.9282 c -1.5021,-1.1e-4 -2.8622,0.89025 -3.4633,2.26761 -1.6522,3.78553 -6.668,4.59038 -9.4216,1.51181 -2.151,-2.40492 -5.2248,-3.77953 -8.4535,-3.77942 h -81.2446 c -4.1923,-1.3e-4 -6.9346,-4.38867 -5.0977,-8.15477 l 17.5816,-36.05111 c 1.2415,-2.54209 2.9323,-4.48551 4.8752,-6.00395 z"
       sodipodi:nodetypes="ssssssssssccccccccccs"
       inkscape:label="BookOutline" /><path
       id="path361"
       style="fill:#000000;fill-opacity:1;stroke:none;stroke-width:3.571;stroke-linecap:round"
       d="m 2392.62,888.189 -74.6694,-10e-6 c -3.4867,0 -6.833,1.37713 -9.3102,3.83178 -3.5146,-2.4928 -7.7171,-3.8318 -12.0282,-3.83178 l -75.2022,10e-6 12.4019,-25.42383 c 4.1811,-8.56854 14.1287,-9.57449 22.7093,-9.42256 1.9517,0.0346 3.8327,0.12902 5.707,0.24815 8.6286,0.54841 17.1172,1.61961 24.3569,4.9917 6.3661,2.96516 11.7664,7.7094 17.2791,15.55293 0.4719,0.67144 0.9446,1.36558 1.4187,1.39558 0.4813,0.0304 0.964,-0.62348 1.5106,-1.26 0.8068,-0.93967 1.7526,-1.84138 2.662,-2.69508 7.5683,-7.10501 12.6093,-10.88419 19.6266,-14.00836 5.2374,-2.33175 11.5756,-4.29863 17.9067,-4.72125 1.7097,-0.11414 3.419,-0.11565 5.0754,-0.10448 8.7741,0.0591 16.0645,0.47373 20.835,7.28532 z"
       sodipodi:nodetypes="ccccccsssssssssscc"
       inkscape:label="Book" /></g></svg>
