<?xml version="1.0" encoding="UTF-8" standalone="no"?>
<!-- Created with Inkscape (http://www.inkscape.org/) -->

<svg
   xmlns:dc="http://purl.org/dc/elements/1.1/"
   xmlns:cc="http://creativecommons.org/ns#"
   xmlns:rdf="http://www.w3.org/1999/02/22-rdf-syntax-ns#"
   xmlns:svg="http://www.w3.org/2000/svg"
   xmlns="http://www.w3.org/2000/svg"
   xmlns:sodipodi="http://sodipodi.sourceforge.net/DTD/sodipodi-0.dtd"
   xmlns:inkscape="http://www.inkscape.org/namespaces/inkscape"
   width="629.82434"
   height="69.793884"
   id="svg2"
   version="1.1"
   inkscape:version="0.92.4 (5da689c313, 2019-01-14)"
   sodipodi:docname="gamate.svg">
  <defs
     id="defs4" />
  <sodipodi:namedview
     id="base"
     pagecolor="#ffffff"
     bordercolor="#666666"
     borderopacity="1.0"
     inkscape:pageopacity="0.0"
     inkscape:pageshadow="2"
     inkscape:zoom="0.7"
     inkscape:cx="203.13447"
     inkscape:cy="70.068123"
     inkscape:document-units="px"
     inkscape:current-layer="layer1"
     showgrid="false"
     fit-margin-top="0"
     fit-margin-left="0"
     fit-margin-right="0"
     fit-margin-bottom="0"
     inkscape:window-width="962"
     inkscape:window-height="445"
     inkscape:window-x="114"
     inkscape:window-y="399"
     inkscape:window-maximized="0" />
  <metadata
     id="metadata7">
    <rdf:RDF>
      <cc:Work
         rdf:about="">
        <dc:format>image/svg+xml</dc:format>
        <dc:type
           rdf:resource="http://purl.org/dc/dcmitype/StillImage" />
        <dc:title></dc:title>
      </cc:Work>
    </rdf:RDF>
  </metadata>
  <g
     inkscape:label="Layer 1"
     inkscape:groupmode="layer"
     id="layer1"
     transform="translate(-46.613191,-129.6829)">
    <g
       transform="matrix(3.1542882,0,0,1.9909569,-69.423542,7.3985441)"
       style="font-style:normal;font-weight:normal;font-size:40px;line-height:125%;font-family:Sans;letter-spacing:0px;word-spacing:0px;fill:#ececec;fill-opacity:1;stroke:none"
       id="flowRoot2985">
      <path
         d="m 69.879412,65.608006 h -4.159946 l -1.013833,2.119973 c -0.5399,-0.988295 -1.327528,-1.691619 -2.362887,-2.109973 -1.035407,-0.418302 -2.461197,-0.621632 -4.277375,-0.609992 -4.145249,0.05836 -7.651506,1.341675 -10.518783,3.84995 -2.867295,2.508322 -4.703895,5.891608 -5.509806,10.149868 -0.408713,2.379146 -0.349811,4.530783 0.176706,6.454916 0.526509,1.924148 1.475914,3.505792 2.848218,4.744939 2.03039,1.79331 4.939483,2.686631 8.727289,2.679965 1.776038,0.0033 3.332653,-0.22333 4.669851,-0.679991 1.337158,-0.456661 2.478424,-1.163317 3.423803,-2.119972 l 0.412041,2.199971 h 3.519954 l 1.163846,-6.599914 c 0.25435,-1.371641 0.430415,-2.228296 0.528193,-2.569967 0.09772,-0.341653 0.234453,-0.578317 0.410199,-0.709991 0.142349,-0.159988 0.355173,-0.279986 0.638474,-0.359995 0.28324,-0.07999 0.671955,-0.119988 1.166147,-0.119998 h 1.199984 l 0.641879,-3.639953 H 57.003555 l -0.641879,3.639953 h 1.679978 c 0.49458,-0.0025 0.870069,0.03251 1.126469,0.104999 0.256358,0.07251 0.42598,0.197507 0.508866,0.374994 0.129258,0.131675 0.182522,0.368339 0.159794,0.709991 -0.02277,0.341671 -0.148836,1.198326 -0.378195,2.569967 l -0.04938,0.279996 c -0.184587,1.074991 -0.583892,1.86498 -1.197917,2.369969 -0.614064,0.504997 -1.478138,0.754994 -2.592222,0.749991 -0.743194,-8.31e-4 -1.422124,-0.139162 -2.036793,-0.414995 -0.614699,-0.275826 -1.146018,-0.684153 -1.593958,-1.224984 -0.755561,-0.90415 -1.22952,-2.015801 -1.42188,-3.334958 -0.192385,-1.31914 -0.116416,-2.940783 0.227905,-4.864936 0.605721,-3.392439 1.626552,-5.977403 3.062496,-7.754899 1.435913,-1.777455 3.228715,-2.672442 5.378411,-2.684965 1.005896,0.0042 1.866988,0.205854 2.583278,0.604992 0.716243,0.399184 1.252094,0.970843 1.607553,1.714978 0.289748,0.568347 0.469825,1.191671 0.540231,1.869975 0.07035,0.678343 0.05753,1.601664 -0.03847,2.769964 h 4.159946 z"
         style="font-style:oblique;font-variant:normal;font-weight:800;font-stretch:normal;font-size:39.99999619px;line-height:125%;font-family:'Clarendon T OT Extra Bold';-inkscape-font-specification:'Clarendon T OT Extra Bold, Ultra-Bold Oblique';text-align:start;writing-mode:lr-tb;text-anchor:start;fill:#ececec"
         id="path2994"
         inkscape:connector-curvature="0" />
      <path
         d="m 84.883997,65.608006 -10.340825,20.07974 c -0.600578,1.208322 -1.137232,2.011644 -1.609966,2.409968 -0.472739,0.398332 -1.11006,0.581663 -1.911963,0.549993 H 69.74126 l -0.641879,3.639953 h 12.159842 l 0.641879,-3.639953 h -1.719978 c -0.673922,0.0033 -1.14373,-0.07333 -1.409423,-0.229997 -0.265712,-0.15666 -0.363782,-0.413323 -0.294212,-0.76999 0.0058,-0.09916 0.05589,-0.250826 0.150234,-0.454995 0.09433,-0.204158 0.346122,-0.705817 0.755386,-1.504979 l 1.046779,-2.079973 h 8.199894 l 0.313203,2.079973 c 0.108513,0.797495 0.171126,1.302488 0.187839,1.51498 0.01667,0.212503 0.0075,0.3875 -0.02758,0.524993 -0.04791,0.370833 -0.216702,0.619162 -0.50637,0.74499 -0.289704,0.125835 -0.814983,0.184168 -1.575838,0.174998 h -1.55998 l -0.641879,3.639953 h 15.199803 l 0.64188,-3.639953 h -1.319984 c -0.387231,-0.0017 -0.735761,-0.03833 -1.045591,-0.109998 -0.309886,-0.07166 -0.537836,-0.168327 -0.68385,-0.289996 -0.142006,-0.154162 -0.288711,-0.465824 -0.440114,-0.934989 -0.151458,-0.469155 -0.267604,-1.010814 -0.348438,-1.624978 l -2.659006,-20.07974 z m 3.272409,14.559811 h -6.039921 l 4.707022,-8.999883 z"
         style="font-style:oblique;font-variant:normal;font-weight:800;font-stretch:normal;font-size:39.99999619px;line-height:125%;font-family:'Clarendon T OT Extra Bold';-inkscape-font-specification:'Clarendon T OT Extra Bold, Ultra-Bold Oblique';text-align:start;writing-mode:lr-tb;text-anchor:start;fill:#ececec"
         id="path2996"
         inkscape:connector-curvature="0" />
      <path
         d="m 131.93696,69.92795 -2.63805,14.959806 c -0.25441,1.371655 -0.43047,2.22831 -0.52819,2.569967 -0.0978,0.341666 -0.23451,0.57833 -0.4102,0.709991 -0.14241,0.160002 -0.35523,0.28 -0.63848,0.359995 -0.28329,0.08 -0.67201,0.120002 -1.16614,0.119998 h -1.35998 l -0.64188,3.639953 h 15.5598 l 0.64188,-3.639953 h -2.23998 c -0.49419,4e-6 -0.8688,-0.03999 -1.12382,-0.119998 -0.25509,-0.07999 -0.4256,-0.199993 -0.51151,-0.359995 -0.12579,-0.151661 -0.17729,-0.398325 -0.15451,-0.739991 0.0227,-0.341657 0.14702,-1.188312 0.37291,-2.539967 l 2.09492,-11.879846 c 0.25434,-1.371628 0.43041,-2.228283 0.5282,-2.569967 0.0977,-0.34164 0.23444,-0.578303 0.4102,-0.70999 0.14233,-0.159975 0.35516,-0.279974 0.63847,-0.359996 0.28323,-0.07998 0.67195,-0.119975 1.16615,-0.119998 h 2.23997 l 0.64188,-3.639953 h -15.5598 l -7.09666,16.19979 -1.34323,-16.19979 h -15.5598 l -0.64188,3.639953 h 2.23997 c 0.49415,2.3e-5 0.86876,0.04002 1.12383,0.119998 0.25504,0.08002 0.42555,0.200021 0.51151,0.359996 0.12927,0.131687 0.18253,0.368351 0.15979,0.709991 -0.0228,0.341683 -0.14882,1.198338 -0.37819,2.569966 l -2.09493,11.879846 c -0.25086,1.351655 -0.42516,2.19831 -0.5229,2.539967 -0.0978,0.341666 -0.23625,0.58833 -0.41549,0.739991 -0.14239,0.160002 -0.35521,0.28 -0.63848,0.359995 -0.28327,0.08 -0.67199,0.120002 -1.16614,0.119998 h -2.23997 l -0.64188,3.639953 h 12.27984 l 0.64188,-3.639953 h -1.35998 c -0.49418,4e-6 -0.86878,-0.03999 -1.12383,-0.119998 -0.25507,-0.07999 -0.42557,-0.199993 -0.51151,-0.359995 -0.12929,-0.131661 -0.18255,-0.368325 -0.15979,-0.709992 0.0227,-0.341657 0.1488,-1.198312 0.37819,-2.569966 l 2.63806,-14.959806 2.25695,22.35971 h 6.27991 z"
         style="font-style:oblique;font-variant:normal;font-weight:800;font-stretch:normal;font-size:39.99999619px;line-height:125%;font-family:'Clarendon T OT Extra Bold';-inkscape-font-specification:'Clarendon T OT Extra Bold, Ultra-Bold Oblique';text-align:start;writing-mode:lr-tb;text-anchor:start;fill:#ececec"
         id="path2998"
         inkscape:connector-curvature="0" />
      <path
         d="m 156.44649,65.608006 -10.34082,20.07974 c -0.60058,1.208322 -1.13723,2.011644 -1.60997,2.409968 -0.47274,0.398332 -1.11006,0.581663 -1.91196,0.549993 h -1.27998 l -0.64188,3.639953 h 12.15984 l 0.64188,-3.639953 h -1.71998 c -0.67392,0.0033 -1.14373,-0.07333 -1.40942,-0.229997 -0.26571,-0.15666 -0.36379,-0.413323 -0.29421,-0.76999 0.006,-0.09916 0.0559,-0.250826 0.15023,-0.454995 0.0943,-0.204158 0.34612,-0.705817 0.75539,-1.504979 l 1.04677,-2.079973 h 8.1999 l 0.3132,2.079973 c 0.10851,0.797495 0.17113,1.302488 0.18784,1.51498 0.0167,0.212503 0.007,0.3875 -0.0276,0.524993 -0.0479,0.370833 -0.2167,0.619162 -0.50637,0.74499 -0.2897,0.125835 -0.81498,0.184168 -1.57584,0.174998 h -1.55998 l -0.64188,3.639953 h 15.19981 l 0.64187,-3.639953 h -1.31998 c -0.38723,-0.0017 -0.73576,-0.03833 -1.04559,-0.109998 -0.30988,-0.07166 -0.53783,-0.168327 -0.68385,-0.289996 -0.14201,-0.154162 -0.28871,-0.465824 -0.44011,-0.934989 -0.15146,-0.469155 -0.26761,-1.010814 -0.34844,-1.624978 l -2.65901,-20.07974 z m 3.27241,14.559811 h -6.03992 l 4.70702,-8.999883 z"
         style="font-style:oblique;font-variant:normal;font-weight:800;font-stretch:normal;font-size:39.99999619px;line-height:125%;font-family:'Clarendon T OT Extra Bold';-inkscape-font-specification:'Clarendon T OT Extra Bold, Ultra-Bold Oblique';text-align:start;writing-mode:lr-tb;text-anchor:start;fill:#ececec"
         id="path3000"
         inkscape:connector-curvature="0" />
      <path
         d="m 176.9271,65.608006 -3.19661,8.584027 3.85714,1.815838 c 0.38993,-2.334117 1.11686,-4.055759 2.18078,-5.164932 1.0639,-1.10913 2.48097,-1.64079 4.25121,-1.59498 l -2.75796,15.639797 c -0.25439,1.371655 -0.43046,2.22831 -0.52819,2.569967 -0.0978,0.341666 -0.2345,0.57833 -0.4102,0.709991 -0.14239,0.160002 -0.35522,0.28 -0.63848,0.359995 -0.28328,0.08 -0.67199,0.120002 -1.16614,0.119998 h -2.23997 l -0.64188,3.639953 h 16.59978 l 0.64188,-3.639953 h -2.23997 c -0.49418,4e-6 -0.86879,-0.03999 -1.12383,-0.119998 -0.25507,-0.07999 -0.42557,-0.199993 -0.5115,-0.359995 -0.1293,-0.131661 -0.18257,-0.368325 -0.1598,-0.709992 0.0227,-0.341657 0.1488,-1.198312 0.3782,-2.569966 l 2.75796,-15.639797 h 0.83999 c 1.48133,0.0017 2.51216,0.488349 3.0925,1.459981 0.58028,0.971674 0.70184,2.418321 0.36467,4.339944 l -0.16929,0.959987 4.37624,-1.139226 -1.1942,-9.391066 z"
         style="font-style:oblique;font-variant:normal;font-weight:800;font-stretch:normal;font-size:39.99999619px;line-height:125%;font-family:'Clarendon T OT Extra Bold';-inkscape-font-specification:'Clarendon T OT Extra Bold, Ultra-Bold Oblique';text-align:start;writing-mode:lr-tb;text-anchor:start;fill:#ececec"
         id="path3002"
         inkscape:connector-curvature="0"
         sodipodi:nodetypes="cccsccccssccccscccccccccccc" />
      <path
         d="m 229.82207,65.608006 h -26.51609 l -0.64188,3.639953 h 2.23997 c 0.49415,2.3e-5 0.86876,0.04002 1.12382,0.119998 0.25505,0.08002 0.42555,0.200021 0.51151,0.359996 0.12927,0.131687 0.18254,0.368351 0.1598,0.709991 -0.0228,0.341683 -0.14883,1.198338 -0.3782,2.569966 l -2.09492,11.879846 c -0.25439,1.371655 -0.43045,2.22831 -0.52819,2.569967 -0.0978,0.341666 -0.23449,0.57833 -0.4102,0.709991 -0.14239,0.160002 -0.35521,0.28 -0.63848,0.359995 -0.28327,0.08 -0.67199,0.120002 -1.16614,0.119998 h -2.23997 l -0.64188,3.639953 h 26.51609 l 4.17393,-9.493201 -5.48469,-1.426657 c -0.22645,1.080829 -0.41733,1.88915 -0.57262,2.424968 -0.15535,0.535835 -0.34156,1.034161 -0.55863,1.494981 -0.34634,0.754162 -0.82635,1.415819 -1.44002,1.984973 -0.61372,0.569164 -1.26611,0.960826 -1.95717,1.174986 -0.32442,0.09583 -0.6697,0.154168 -1.03585,0.174997 -0.36619,0.02084 -1.19265,0.02917 -2.47938,0.025 h -4.39994 l 1.4601,-8.279892 h 1.23998 c 1.1134,-0.01 1.87244,0.260008 2.27713,0.809989 0.40466,0.550004 0.49438,1.439991 0.26917,2.669966 l -0.14108,0.799989 h 3.51996 l 2.11608,-11.999844 h -3.51995 c -0.13233,0.755009 -0.25098,1.305001 -0.35596,1.649979 -0.10503,0.345013 -0.22783,0.635009 -0.36842,0.869988 -0.29847,0.558343 -0.70135,0.971671 -1.20865,1.239984 -0.50733,0.268346 -1.12083,0.401677 -1.84051,0.399995 h -1.35998 l 1.33313,-7.559902 h 5.27993 c 0.66178,-8.1e-4 1.15639,0.01086 1.48381,0.035 0.32738,0.02419 0.59669,0.06585 0.80795,0.124998 0.4817,0.122521 0.90064,0.317519 1.25682,0.584993 0.35613,0.267518 0.63215,0.592514 0.82806,0.974987 0.2921,0.611679 0.46748,1.318336 0.52614,2.119972 0.0586,0.801675 -0.008,1.748328 -0.20081,2.839963 l 5.80587,-1.141326 z"
         style="font-style:oblique;font-variant:normal;font-weight:800;font-stretch:normal;font-size:39.99999619px;line-height:125%;font-family:'Clarendon T OT Extra Bold';-inkscape-font-specification:'Clarendon T OT Extra Bold, Ultra-Bold Oblique';text-align:start;writing-mode:lr-tb;text-anchor:start;fill:#ececec"
         id="path3004"
         inkscape:connector-curvature="0"
         sodipodi:nodetypes="ccccccccccccsccccccccccccccccccccccccccccccccccc" />
    </g>
  </g>
</svg>
