<?xml version="1.0" encoding="UTF-8" standalone="no"?>
<!-- Created by ERK -->

<svg
   version="1.2"
   width="563.6543"
   height="63.919922"
   xml:space="preserve"
   id="svg5"
   sodipodi:docname="gameandwatch.svg"
   inkscape:version="1.3.2 (091e20e, 2023-11-25, custom)"
   xmlns:inkscape="http://www.inkscape.org/namespaces/inkscape"
   xmlns:sodipodi="http://sodipodi.sourceforge.net/DTD/sodipodi-0.dtd"
   xmlns="http://www.w3.org/2000/svg"
   xmlns:svg="http://www.w3.org/2000/svg"><defs
   id="defs5">
            
            
        
            
        </defs><sodipodi:namedview
   id="namedview5"
   pagecolor="#ffffff"
   bordercolor="#000000"
   borderopacity="0.25"
   inkscape:showpageshadow="2"
   inkscape:pageopacity="0.0"
   inkscape:pagecheckerboard="true"
   inkscape:deskcolor="#d1d1d1"
   inkscape:zoom="3.2943727"
   inkscape:cx="281.69248"
   inkscape:cy="42.648484"
   inkscape:window-width="2560"
   inkscape:window-height="1351"
   inkscape:window-x="-9"
   inkscape:window-y="-9"
   inkscape:window-maximized="1"
   inkscape:current-layer="g8" />
    
<g
   style="fill:#d70000;fill-opacity:1"
   id="g8"
   inkscape:label="Logo"
   transform="translate(1.5019531,1.5)">
        
        
        <g
   id="g9"
   inkscape:label="Logo"
   style="display:inline"><path
     d="M 47.802202,18.226035 A 21.181227,21.181227 0 0 0 30.457322,9.2273622 c -11.730994,0 -21.2309754,9.5038078 -21.2309754,21.2290618 0,11.721427 9.4999814,21.225236 21.2309754,21.225236 8.510759,0 15.852436,-5.013082 19.24105,-12.245696 H 30.960544 v -9.654966 h 29.927333 c 0.0096,0.227693 0.01722,0.449646 0.01722,0.675426 0,3.118826 -0.466867,6.138155 -1.341286,8.977626 -3.828694,12.435122 -15.410443,21.485456 -29.104576,21.485456 -16.822524,0 -30.46116841,-13.644384 -30.46116841,-30.463082 0,-16.824438 13.63864441,-30.45734174 30.46116841,-30.45734174 12.465736,0 23.17498,7.49857544 27.889573,18.22503974 H 47.804116 Z M 93.214601,0.6037135 54.730588,58.55647 h 11.914679 l 8.219924,-12.379633 h 18.34941 v 12.402594 h 9.924749 V 0.6037135 H 93.216514 Z M 81.454906,36.250169 93.214601,18.547485 V 36.250169 Z M 180.86508,0.6037135 154.32636,40.553383 V 0.60180011 H 144.3997 L 105.91377,58.554556 h 11.92616 L 144.3997,18.545572 v 40.033859 h 9.92666 v -0.06888 l 26.53872,-39.964976 v 40.033859 h 9.92284 V 0.60180011 h -9.92284 z m 48.10263,9.9266675 V 0.60180011 h -30.1512 V 58.594738 l 9.92284,-0.03827 h 20.22836 v -9.928581 h -20.22836 v -13.51236 h 20.22836 V 25.190775 H 208.73935 V 10.530381 Z"
     style="fill:#d70000;fill-opacity:1;fill-rule:nonzero;stroke:none;stroke-width:1.91339"
     id="path5"
     inkscape:label="Game" /><path
     d="m 163.333,30.547 c 1.663,-3.743 4.16,-9.37 4.16,-9.37 h -5.088 l -2.68,6.04 -3.988,-3.684 c 1.826,-1.468 3.43,-3.324 3.43,-6.42 a 6.24,6.24 0 0 0 -1.841,-4.421 c -1.355,-1.352 -3.261,-2.127 -5.238,-2.127 -3.423,0 -6.968,2.45 -6.968,6.548 0,2.855 1.572,4.7 3.133,6.066 -2.89,2.048 -5.408,4.228 -5.408,8.724 0,2.551 0.923,4.872 2.598,6.547 1.69,1.692 4.048,2.623 6.645,2.623 4.918,0 7.358,-2.38 9.227,-6.06 l 6.032,5.576 3.16,-3.415 z M 150.26,15.927 c 0.438,-0.44 1.142,-0.71 1.828,-0.71 0.732,0 1.475,0.293 1.947,0.763 0.326,0.325 0.485,0.694 0.485,1.133 0,1.306 -0.627,2.017 -2.338,3.282 -1.496,-1.197 -2.411,-2.032 -2.411,-3.282 0,-0.465 0.16,-0.855 0.489,-1.185 m 7.378,15.987 c -1.605,3.577 -2.745,4.503 -5.55,4.503 -1.377,0 -2.535,-0.436 -3.357,-1.253 -0.809,-0.81 -1.234,-1.938 -1.234,-3.262 0,-2.445 1.256,-3.414 4.35,-5.558 a 0.344,0.344 0 0 0 0.045,-0.033 l 5.839,5.393 z"
     style="fill:#d70000;fill-opacity:1;fill-rule:nonzero;stroke:none"
     transform="matrix(1.91339,0,0,1.91339,-20.358,-18.942)"
     id="path6"
     inkscape:label="&amp;" /><path
     style="fill:#d70000;fill-opacity:1;fill-rule:nonzero;stroke:none;stroke-width:1.91339"
     d="M 419.20651,2.0307757 380.72632,59.985445 h 11.91277 l 8.21992,-12.375806 h 18.34941 v 12.404507 h 9.9305 V 2.0288623 h -9.9305 z m -11.7597,35.6560223 11.7597,-17.700771 v 17.700771 z m -69.43883,22.327348 v -0.0019 l 26.52532,-39.96115 v 39.963063 h 9.92667 v -0.0019 L 412.9459,2.0575632 H 401.02548 L 374.45997,42.060808 V 2.0326891 h -9.92667 v 0.076536 L 338.00798,42.060808 V 2.0326891 h -9.9305 V 60.014146 Z M 550.72337,2.0307757 V 25.374134 H 532.80256 V 2.0307757 h -9.92284 V 60.004579 h 9.92284 V 35.306541 h 17.92081 v 24.698038 h 9.92858 V 2.0288623 h -9.92858 z m -85.30849,0 h -32.39752 v 9.9228403 h 11.23734 v 48.050963 h 9.93049 V 11.953616 h 11.2316 V 2.0307757 Z"
     id="path7"
     inkscape:label="Wat_h" /><path
     style="fill:#d70000;fill-opacity:1;fill-rule:nonzero;stroke:none;stroke-width:1.91339"
     d="m 508.85074,44.379837 a 20.741148,20.741148 0 0 1 -15.47167,6.89203 c -11.5033,0 -20.82725,-9.320122 -20.82725,-20.815769 0,-11.499474 9.32395,-20.8195971 20.82725,-20.8195971 6.04823,0 11.49948,2.7189271 15.29755,6.8977711 h 11.62959 C 515.22233,6.8659122 505.06988,0.03510992 493.37907,0.03510992 c -16.79956,0 -30.41716,13.62333708 -30.41716,30.42290108 0,16.795737 13.6176,30.422901 30.41716,30.422901 11.775,0 21.98294,-6.715999 27.03812,-16.501075 z"
     id="path8"
     inkscape:label="c" /></g>
    </g></svg>
