<svg xmlns="http://www.w3.org/2000/svg" version="1.2" width="560.653" height="60.92" xml:space="preserve">
    <g style="fill:#d70000;fill-opacity:1">
        <g style="fill:#d70000;fill-opacity:1">
            <path d="M508.865 368.86a11.07 11.07 0 0 0-9.065-4.703c-6.131 0-11.096 4.967-11.096 11.095 0 6.126 4.965 11.093 11.096 11.093 4.448 0 8.285-2.62 10.056-6.4h-9.793v-5.046h15.641c.005.119.009.235.009.353 0 1.63-.244 3.208-.701 4.692-2.001 6.499-8.054 11.229-15.211 11.229-8.792 0-15.92-7.131-15.92-15.921 0-8.793 7.128-15.918 15.92-15.918 6.515 0 12.112 3.919 14.576 9.525h-5.511zM532.599 359.65l-20.113 30.288h6.227l4.296-6.47h9.59v6.482h5.187V359.65H532.6zm-6.146 18.63 6.146-9.252v9.252h-6.146zM578.408 359.65l-13.87 20.879v-20.88h-5.188l-20.114 30.288h6.233l13.881-20.91v20.923h5.188v-.036l13.87-20.887v20.923h5.186v-30.301h-5.186zM603.548 364.838v-5.189H587.79v30.309l5.186-.02h10.572v-5.189h-10.572v-7.062h10.572V372.5h-10.572v-7.662h10.572z" style="fill:#d70000;fill-opacity:1;fill-rule:nonzero;stroke:none" transform="translate(-925.855 -687.547) scale(1.91339)"/>
        </g>
        <path d="M163.333 30.547c1.663-3.743 4.16-9.37 4.16-9.37h-5.088l-2.68 6.04-3.988-3.684c1.826-1.468 3.43-3.324 3.43-6.42a6.24 6.24 0 0 0-1.841-4.421c-1.355-1.352-3.261-2.127-5.238-2.127-3.423 0-6.968 2.45-6.968 6.548 0 2.855 1.572 4.7 3.133 6.066-2.89 2.048-5.408 4.228-5.408 8.724 0 2.551.923 4.872 2.598 6.547 1.69 1.692 4.048 2.623 6.645 2.623 4.918 0 7.358-2.38 9.227-6.06l6.032 5.576 3.16-3.415-7.174-6.627zm-13.073-14.62c.438-.44 1.142-.71 1.828-.71.732 0 1.475.293 1.947.763.326.325.485.694.485 1.133 0 1.306-.627 2.017-2.338 3.282-1.496-1.197-2.411-2.032-2.411-3.282 0-.465.16-.855.489-1.185m7.378 15.987c-1.605 3.577-2.745 4.503-5.55 4.503-1.377 0-2.535-.436-3.357-1.253-.809-.81-1.234-1.938-1.234-3.262 0-2.445 1.256-3.414 4.35-5.558a.344.344 0 0 0 .045-.033l5.839 5.393-.093.21z" style="fill:#d70000;fill-opacity:1;fill-rule:nonzero;stroke:none" transform="translate(-20.358 -18.942) scale(1.91339)"/>
        <g style="fill:#d70000;fill-opacity:1">
            <path style="fill:#d70000;fill-opacity:1;fill-rule:nonzero;stroke:none" d="m702.973 357.571-20.111 30.289h6.226l4.296-6.468h9.59v6.483h5.19V357.57h-5.19zm-6.146 18.635 6.146-9.251v9.251h-6.146zM660.536 387.875v-.001l13.863-20.885v20.886h5.188v-.001l20.114-30.289h-6.23l-13.884 20.907v-20.92h-5.188v.04l-13.863 20.88v-20.92h-5.19v30.303h5.19zM771.708 357.571v12.2h-9.366v-12.2h-5.186v30.299h5.186v-12.908h9.366v12.908h5.189V357.57h-5.189zM727.123 357.571h-16.932v5.186h5.873v25.113h5.19v-25.113h5.87v-5.186z" transform="translate(-925.855 -682.142) scale(1.91339)"/>
            <path style="fill:#d70000;fill-opacity:1;fill-rule:nonzero;stroke:none" d="M749.824 379.704a10.84 10.84 0 0 1-8.086 3.602c-6.012 0-10.885-4.871-10.885-10.879 0-6.01 4.873-10.881 10.885-10.881 3.161 0 6.01 1.421 7.995 3.605h6.078c-2.657-5.053-7.963-8.623-14.073-8.623-8.78 0-15.897 7.12-15.897 15.9 0 8.778 7.117 15.9 15.897 15.9 6.154 0 11.489-3.51 14.131-8.624h-6.045z" transform="translate(-925.855 -682.142) scale(1.91339)"/>
        </g>
    </g>
</svg>
