<svg xmlns="http://www.w3.org/2000/svg" xml:space="preserve" height="69.41" viewBox="0.001 -1 567.926 69.41" width="567.93" version="1.2">
    <g style="fill:#f2f2f2;stroke:none;stroke-width:2">
        <path d="M213.3 56.3c-4.779 6.492-9.51 8.334-11.58 9.33-2.068.998-5.201 1.779-7.941 1.779-7.689 0-13.688-2.508-18-7.5-4.314-5.017-6.469-12.048-6.469-21.165 0-10.782 2.719-19.924 8.182-27.472C182.952 3.75 190.192 0 199.212 0c6.846 0 12.445 1.922 16.828 5.789 4.383 3.844 6.564 9.891 6.564 18.117H209.36c0-3.938-.867-6.703-2.604-8.298-1.732-1.569-4.219-2.366-7.477-2.366-5.32 0-9.422 2.601-12.352 7.78-2.906 5.204-4.385 11.109-4.385 17.742 0 4.524.963 8.229 2.838 11.086 1.898 2.885 4.732 4.313 8.508 4.313 3.938 0 6.984-1.125 9.188-3.354 2.18-2.202 3.797-5.063 4.828-8.556h-12.33l1.996-12h24.045l-2.039 11.625c0 .007-1.52 7.93-6.28 14.422zM292.62 46.855l18.46-45.308 16.55.119-10.76 64.174h-11.58l9.12-49.736L294.3 65.84h-9.49l-4.38-49.713-6.92 49.713h-11.72L272.5 1.666h16.43zM342 14.907l-2.11 11.602h18.91l-1.97 12.447h-18.91l-2.44 13.664h21.35l-2.11 13.22h-33.65l10.64-64.246h33.25l-2.03 13.313zM239.08 1.547 213.21 65.84h12.609l4.617-12.541h16.5l1.078 12.541h12.211l-7.313-64.292-13.84-.001Zm-4.64 40.784 9.377-25.571 2.178 25.571h-11.56z" style="stroke:none;fill:#f2f2f2" transform="matrix(.98854 0 0 .9099 .421 3.796)"/>
    </g>
    <g style="fill:#f2f2f2;stroke:none;stroke-width:2">
        <path d="M430.28 56.3c-4.781 6.492-9.51 8.334-11.58 9.331-2.068.997-5.201 1.779-7.941 1.779-7.688 0-13.688-2.509-18-7.5-4.314-5.017-6.471-12.046-6.471-21.164 0-10.782 2.721-19.923 8.182-27.472C399.931 3.752 407.173.002 416.197.002c6.844 0 12.445 1.922 16.828 5.789 4.385 3.845 6.563 9.893 6.563 18.118h-13.24c0-3.938-.865-6.703-2.604-8.298-1.732-1.568-4.219-2.366-7.477-2.366-5.32 0-9.422 2.601-12.352 7.78-2.908 5.204-4.383 11.109-4.383 17.743 0 4.523.961 8.229 2.834 11.085 1.898 2.885 4.734 4.313 8.51 4.313 3.938 0 6.984-1.125 9.188-3.353 2.18-2.203 3.797-5.063 4.83-8.556h-12.33l1.992-12h24.047l-2.039 11.625c0 .003-1.53 7.926-6.29 14.418zM457.1 14.906l-2.11 11.626h18.89l-1.94 12.424h-18.92l-2.46 13.664h21.38l-2.11 13.242h-33.66l10.64-64.268h33.26l-2.04 13.312zM496.8 1.573l-25.875 64.292h12.635l4.594-12.54h16.523l1.076 12.54h12.189l-7.314-64.292h-13.83zm-4.62 40.757 9.355-25.572 2.203 25.572h-11.557zM537.49 29.836l2.813-15.819h6.75c2.484 0 4.336.444 5.578 1.336 1.242.914 1.852 2.718 1.852 5.438 0 3.047-1.008 5.297-3 6.798-2.018 1.5-4.57 2.249-7.664 2.249l-6.33-.002zm-7.61-28.242-10.641 64.268h12.303l4.127-24.492h5.695l9.516 24.492h14.109L554.44 38.745c3.682-1.875 6.846-4.993 9.049-8.25 2.297-3.353 3.443-7.267 3.443-11.743 0-6.07-1.357-10.431-4.102-13.125-2.719-2.694-6.588-4.031-11.555-4.031l-21.4-.002z" style="stroke:none;fill:#f2f2f2" transform="matrix(.98854 0 0 .9099 .421 3.796)"/>
    </g>
    <path d="M10.274 26.281C21.131 8.071 36.077-3.295 43.657.855c7.564 4.168 4.898 22.309-5.979 40.506C26.819 59.572 11.875 70.936 4.313 66.784c-7.582-4.165-4.9-22.307 5.961-40.503z" fill="#D61808"/>
    <path d="M58.846 26.281C69.704 8.071 84.649-3.295 92.227.855c7.564 4.168 4.898 22.309-5.979 40.506-10.857 18.211-25.802 29.575-33.365 25.423-7.58-4.165-4.898-22.307 5.963-40.503z" fill="#008400"/>
    <path d="M107.42 26.281C118.27 8.07 133.22-3.295 140.8.854c7.564 4.168 4.898 22.309-5.979 40.506-10.859 18.211-25.801 29.575-33.365 25.424-7.586-4.165-4.903-22.307 5.96-40.503z" fill="#00F"/>
</svg>
