<svg version="1.2" baseProfile="tiny" xmlns="http://www.w3.org/2000/svg" width="566.929" height="98.574" xml:space="preserve">
    <linearGradient id="a" gradientUnits="userSpaceOnUse" x1="527.771" y1="-.713" x2="527.771" y2="98.787">
        <stop offset=".005" style="stop-color:#2e5c92"/>
        <stop offset="1" style="stop-color:#2e3192"/>
    </linearGradient>
    <path fill="url(#a)" d="M488.615.917h24.029l11.869 27.298L542.312.917h24.615L532.22 54.913l-5.635 42.128h-22.248l6.526-48.068z"/>
    <linearGradient id="b" gradientUnits="userSpaceOnUse" x1="290.738" y1="-.713" x2="290.738" y2="98.787">
        <stop offset=".005" style="stop-color:#2e5c92"/>
        <stop offset="1" style="stop-color:#2e3192"/>
    </linearGradient>
    <path fill="url(#b)" d="m311.798 97.041 2.967-21.37h-33.814l2.076-16.605h29.365l2.971-21.36h-29.072l2.078-15.43h33.812L325.447.917h-56.068l-13.35 96.124z"/>
    <linearGradient id="c" gradientUnits="userSpaceOnUse" x1="127.571" y1="-.713" x2="127.571" y2="98.787">
        <stop offset=".005" style="stop-color:#2e5c92"/>
        <stop offset="1" style="stop-color:#2e3192"/>
    </linearGradient>
    <path fill="url(#c)" d="m112.146 49.565 7.416-19.874 2.375 19.874h-9.791zm-8.009 18.987h20.172l3.563 28.48h36.488l16.91-52.213 8.309 52.213h19.283l21.359-55.179 3.561 55.179h21.359L249.207.913h-25.514l-19.875 50.728L196.103.913h-22.842l-26.105 78.912L137.365.913h-28.48l-31.744 79.8 4.154-31.149H42.729l-2.672 18.987h16.912l-1.188 6.526c-2.967 1.778-9.789 2.075-12.459 2.075s-22.545-1.778-21.656-23.139c.889-21.359 29.369-41.235 63.188-30.259l3.266-20.47C65.572-4.427 6.354-.111.305 52.828-3.254 83.976 25.226 98.81 44.211 98.516c10.977.594 23.438-3.561 27.887-5.935l-1.482 4.451h22.547l10.974-28.48z"/>
    <linearGradient id="d" gradientUnits="userSpaceOnUse" x1="458.994" y1="-.713" x2="458.994" y2="98.787">
        <stop offset=".005" style="stop-color:#2e5c92"/>
        <stop offset="1" style="stop-color:#2e3192"/>
    </linearGradient>
    <path fill="url(#d)" d="M464.582.028c-15.428-.594-37.678 8.306-45.094 44.204-7.416 35.894 12.459 50.431 30.852 52.804 18.396 2.373 44.205-9.196 48.951-43.609C504.039 19.013 487.125.919 464.582.028zm-2.374 20.47c6.229 0 19.578 4.154 16.314 29.071-3.264 24.92-18.689 27.887-24.326 27.292-5.639-.594-17.207-4.447-13.943-27.292 3.262-22.841 15.424-29.368 21.955-29.071z"/>
    <linearGradient id="e" gradientUnits="userSpaceOnUse" x1="378.921" y1="-.713" x2="378.921" y2="98.787">
        <stop offset=".005" style="stop-color:#2e5c92"/>
        <stop offset="1" style="stop-color:#2e3192"/>
    </linearGradient>
    <path fill="url(#e)" d="M370.833 37.706h12.461c9.197 0 10.977-5.934 11.271-8.305.297-2.375-2.371-7.122-7.117-7.122h-14.537l-2.078 15.427zm-5.339 37.971h16.912c9.193 0 11.27-7.118 11.564-9.493.299-2.373-2.371-7.117-7.117-7.117h-18.984l-2.375 16.61zm-24.918 21.361L353.926.92h40.938c9.793 0 24.031 11.274 22.252 26.403-1.779 15.13-6.527 16.02-9.791 18.393 5.045 4.447 10.088 11.568 8.012 24.918-2.078 13.353-13.055 26.403-32.338 26.403l-42.423.001z"/>
    <linearGradient id="f" gradientUnits="userSpaceOnUse" x1="538.598" y1="-.713" x2="538.598" y2="98.787">
        <stop offset=".005" style="stop-color:#2e5c92"/>
        <stop offset="1" style="stop-color:#2e3192"/>
    </linearGradient>
    <path fill="url(#f)" d="M538.619 82.498c-3.66 0-6.615 2.951-6.615 6.593a6.608 6.608 0 0 0 6.615 6.634c3.641 0 6.592-2.953 6.592-6.634a6.596 6.596 0 0 0-6.592-6.593v-.907a7.5 7.5 0 0 1 7.498 7.5c0 4.173-3.35 7.538-7.498 7.538a7.526 7.526 0 0 1-7.539-7.538c0-4.135 3.365-7.499 7.539-7.499v.906z"/>
    <linearGradient id="g" gradientUnits="userSpaceOnUse" x1="539.144" y1="-.713" x2="539.144" y2="98.787">
        <stop offset=".005" style="stop-color:#2e5c92"/>
        <stop offset="1" style="stop-color:#2e3192"/>
    </linearGradient>
    <path fill="url(#g)" d="M536.839 85.639h2.402c1.045 0 2.182.156 2.182 1.457 0 1.711-1.828 1.516-3.01 1.516l-1.574-.002v.809h1.893l2.4 3.878h1.219l-2.539-3.878c1.496-.038 2.656-.648 2.656-2.302 0-.71-.313-1.457-.943-1.813-.629-.373-1.34-.412-2.049-.412h-3.656v8.403h1.02v-7.656h-.001z"/>
</svg>
