<?xml version="1.0" encoding="UTF-8" standalone="no"?>
<!-- Created with Inkscape (http://www.inkscape.org/) -->

<svg
   width="166.99899mm"
   height="61.342999mm"
   viewBox="0 0 166.999 61.342999"
   version="1.1"
   id="svg1"
   inkscape:version="1.3.2 (091e20e, 2023-11-25, custom)"
   sodipodi:docname="gb2players.svg"
   xmlns:inkscape="http://www.inkscape.org/namespaces/inkscape"
   xmlns:sodipodi="http://sodipodi.sourceforge.net/DTD/sodipodi-0.dtd"
   xmlns:xlink="http://www.w3.org/1999/xlink"
   xmlns="http://www.w3.org/2000/svg"
   xmlns:svg="http://www.w3.org/2000/svg">
  <sodipodi:namedview
     id="namedview1"
     pagecolor="#ffffff"
     bordercolor="#000000"
     borderopacity="0.25"
     inkscape:showpageshadow="2"
     inkscape:pageopacity="0.0"
     inkscape:pagecheckerboard="true"
     inkscape:deskcolor="#d1d1d1"
     inkscape:document-units="mm"
     inkscape:zoom="1.6471871"
     inkscape:cx="357.27575"
     inkscape:cy="130.8291"
     inkscape:window-width="2560"
     inkscape:window-height="1351"
     inkscape:window-x="-9"
     inkscape:window-y="-9"
     inkscape:window-maximized="1"
     inkscape:current-layer="svg1" />
  <defs
     id="defs1">
    <linearGradient
       id="linearGradient18"
       gradientUnits="userSpaceOnUse"
       x1="127.571"
       y1="-0.713"
       x2="127.571"
       y2="98.787003"
       gradientTransform="matrix(0.99999769,0,0,0.99999769,-9.5978193e-4,-6.4086325e-4)">
      <stop
         offset="0.005"
         style="stop-color:#c95252;stop-opacity:1;"
         id="stop15" />
      <stop
         offset="1"
         style="stop-color:#922e5c;stop-opacity:1;"
         id="stop18" />
    </linearGradient>
    <linearGradient
       id="linearGradient17"
       gradientUnits="userSpaceOnUse"
       x1="127.571"
       y1="-0.713"
       x2="127.571"
       y2="98.787003"
       gradientTransform="matrix(0.99999769,0,0,0.99999769,-9.5978193e-4,-6.4086325e-4)">
      <stop
         offset="0.0001"
         style="stop-color:#2e5c92"
         id="stop16" />
      <stop
         offset="1"
         style="stop-color:#2e3192"
         id="stop17" />
    </linearGradient>
    <linearGradient
       id="c"
       gradientUnits="userSpaceOnUse"
       x1="127.571"
       y1="-0.713"
       x2="127.571"
       y2="98.787003"
       gradientTransform="matrix(0.26457836,0,0,0.26457836,-2.5403194e-4,-1.6987932e-4)">
      <stop
         offset=".005"
         style="stop-color:#2e5c92"
         id="stop5" />
      <stop
         offset="1"
         style="stop-color:#2e3192"
         id="stop6" />
    </linearGradient>
    <linearGradient
       id="b"
       gradientUnits="userSpaceOnUse"
       x1="290.73801"
       y1="-0.713"
       x2="290.73801"
       y2="98.787003"
       gradientTransform="matrix(0.26458333,0,0,0.26458333,-2.5403671e-4,-1.7144553e-4)">
      <stop
         offset=".005"
         style="stop-color:#2e5c92"
         id="stop3" />
      <stop
         offset="1"
         style="stop-color:#2e3192"
         id="stop4" />
    </linearGradient>
    <linearGradient
       id="e"
       gradientUnits="userSpaceOnUse"
       x1="378.92099"
       y1="-0.713"
       x2="378.92099"
       y2="98.787003"
       gradientTransform="matrix(0.26458333,0,0,0.26458333,-2.5403671e-4,-1.7144553e-4)">
      <stop
         offset=".005"
         style="stop-color:#2e5c92"
         id="stop9" />
      <stop
         offset="1"
         style="stop-color:#2e3192"
         id="stop10" />
    </linearGradient>
    <linearGradient
       id="d"
       gradientUnits="userSpaceOnUse"
       x1="458.99399"
       y1="-0.713"
       x2="458.99399"
       y2="98.787003"
       gradientTransform="matrix(0.26458333,0,0,0.26458333,-2.5403671e-4,-1.7144553e-4)">
      <stop
         offset=".005"
         style="stop-color:#2e5c92"
         id="stop7" />
      <stop
         offset="1"
         style="stop-color:#2e3192"
         id="stop8" />
    </linearGradient>
    <linearGradient
       id="a"
       gradientUnits="userSpaceOnUse"
       x1="527.771"
       y1="-0.713"
       x2="527.771"
       y2="98.787003"
       gradientTransform="matrix(0.26458333,0,0,0.26458333,-2.5403671e-4,-1.7144553e-4)">
      <stop
         offset=".005"
         style="stop-color:#2e5c92"
         id="stop1" />
      <stop
         offset="1"
         style="stop-color:#2e3192"
         id="stop2" />
    </linearGradient>
    <linearGradient
       id="f"
       gradientUnits="userSpaceOnUse"
       x1="538.59802"
       y1="-0.713"
       x2="538.59802"
       y2="98.787003"
       gradientTransform="matrix(0.26458333,0,0,0.26458333,-2.5403671e-4,-1.7144553e-4)">
      <stop
         offset=".005"
         style="stop-color:#2e5c92"
         id="stop11" />
      <stop
         offset="1"
         style="stop-color:#2e3192"
         id="stop12" />
    </linearGradient>
    <linearGradient
       id="g"
       gradientUnits="userSpaceOnUse"
       x1="539.14398"
       y1="-0.713"
       x2="539.14398"
       y2="98.787003"
       gradientTransform="matrix(0.26458333,0,0,0.26458333,-2.5403671e-4,-1.7144553e-4)">
      <stop
         offset=".005"
         style="stop-color:#2e5c92"
         id="stop13" />
      <stop
         offset="1"
         style="stop-color:#2e3192"
         id="stop14" />
    </linearGradient>
    <linearGradient
       id="linearGradient22"
       gradientUnits="userSpaceOnUse"
       x1="539.14398"
       y1="-0.713"
       x2="539.14398"
       y2="98.787003"
       gradientTransform="translate(208.35564,-171.03631)">
      <stop
         offset="0.0001"
         style="stop-color:#2e5c92"
         id="stop21" />
      <stop
         offset="1"
         style="stop-color:#2e3192"
         id="stop22" />
    </linearGradient>
    <linearGradient
       id="linearGradient6"
       gradientUnits="userSpaceOnUse"
       x1="127.571"
       y1="-0.713"
       x2="127.571"
       y2="98.787003"
       gradientTransform="matrix(0.99999769,0,0,0.99999769,-9.5978193e-4,-6.4086325e-4)">
      <stop
         offset="0.005"
         style="stop-color:#2e5c92"
         id="stop1-2" />
      <stop
         offset="1"
         style="stop-color:#2e3192"
         id="stop2-2" />
    </linearGradient>
    <linearGradient
       inkscape:collect="always"
       xlink:href="#linearGradient6"
       id="linearGradient1-2"
       gradientUnits="userSpaceOnUse"
       x1="241.83485"
       y1="107.47323"
       x2="241.83487"
       y2="204.53386"
       gradientTransform="matrix(0.26458873,0,0,0.26458873,145.68339,-88.368597)" />
    <linearGradient
       inkscape:collect="always"
       xlink:href="#a"
       id="linearGradient7"
       gradientUnits="userSpaceOnUse"
       gradientTransform="matrix(0.27046314,0,0,0.27046314,83.331757,-60.243633)"
       x1="527.771"
       y1="-0.713"
       x2="527.771"
       y2="98.787003" />
    <linearGradient
       inkscape:collect="always"
       xlink:href="#b"
       id="linearGradient8"
       gradientUnits="userSpaceOnUse"
       gradientTransform="matrix(0.27046314,0,0,0.27046314,164.12329,-60.243633)"
       x1="290.73801"
       y1="-0.713"
       x2="290.73801"
       y2="98.787003" />
    <linearGradient
       inkscape:collect="always"
       xlink:href="#linearGradient17"
       id="linearGradient16"
       x1="44.761192"
       y1="-30.740107"
       x2="44.761192"
       y2="-4.9551439"
       gradientUnits="userSpaceOnUse"
       gradientTransform="translate(146.0951,-29.234182)" />
    <linearGradient
       inkscape:collect="always"
       xlink:href="#linearGradient6"
       id="linearGradient19"
       x1="26.175161"
       y1="-30.679043"
       x2="26.175161"
       y2="-4.7322559"
       gradientUnits="userSpaceOnUse"
       gradientTransform="translate(146.0951,-29.234182)" />
    <linearGradient
       inkscape:collect="always"
       xlink:href="#linearGradient18"
       id="linearGradient23"
       x1="5.2207346"
       y1="-30.74818"
       x2="5.2207346"
       y2="-5.0176401"
       gradientUnits="userSpaceOnUse" />
    <linearGradient
       inkscape:collect="always"
       xlink:href="#linearGradient6"
       id="linearGradient27"
       x1="114.46273"
       y1="-30.732193"
       x2="114.46273"
       y2="-4.792686"
       gradientUnits="userSpaceOnUse"
       gradientTransform="translate(146.0951,-29.234182)" />
    <linearGradient
       inkscape:collect="always"
       xlink:href="#linearGradient6"
       id="linearGradient29"
       x1="133.62148"
       y1="-30.724947"
       x2="133.62148"
       y2="-4.6922016"
       gradientUnits="userSpaceOnUse"
       gradientTransform="translate(146.0951,-29.234182)" />
    <linearGradient
       inkscape:collect="always"
       xlink:href="#b"
       id="linearGradient30"
       gradientUnits="userSpaceOnUse"
       gradientTransform="matrix(0.26458333,0,0,0.26458333,-2.5403671e-4,-1.7144553e-4)"
       x1="290.73801"
       y1="-0.713"
       x2="290.73801"
       y2="98.787003" />
    <linearGradient
       inkscape:collect="always"
       xlink:href="#a"
       id="linearGradient31"
       gradientUnits="userSpaceOnUse"
       gradientTransform="matrix(0.26458333,0,0,0.26458333,-2.5403671e-4,-1.7144553e-4)"
       x1="527.771"
       y1="-0.713"
       x2="527.771"
       y2="98.787003" />
    <linearGradient
       inkscape:collect="always"
       xlink:href="#linearGradient18"
       id="linearGradient9"
       gradientUnits="userSpaceOnUse"
       x1="5.2207346"
       y1="-30.74818"
       x2="5.2207346"
       y2="-5.0176401"
       gradientTransform="translate(146.0951,-29.234182)" />
  </defs>
  <g
     id="g29"
     inkscape:label="Gameboy"
     transform="translate(8.4999065,2.6458334)">
    <path
       fill="url(#c)"
       d="m 29.671151,13.113654 1.962113,-5.2582314 0.628374,5.2582314 z m -2.119008,5.023556 h 5.337074 l 0.942694,7.535188 h 9.653934 l 4.47402,-13.81443 2.198382,13.81443 h 5.101864 l 5.651125,-14.599165 0.942172,14.599165 h 5.651124 L 65.934522,0.24138558 H 59.184069 L 53.925578,13.662924 51.884357,0.24138558 h -6.0435 L 38.93404,21.119794 36.343552,0.24138558 H 28.808361 L 20.409586,21.35474 21.508644,13.113394 H 11.304915 l -0.706954,5.023546 h 4.47455 l -0.314319,1.726638 c -0.785004,0.470421 -2.589958,0.548999 -3.296382,0.548999 -0.706424,0 -5.9649192,-0.470421 -5.7297097,-6.122075 C 5.9673109,8.6393679 13.502502,3.3806167 22.450278,6.2846221 L 23.314391,0.8687038 C 17.348678,-1.1714578 1.6808764,-0.02953933 0.08044245,13.976978 -0.86119187,22.218063 6.6739997,26.14282 11.69702,26.065031 c 2.904277,0.157157 6.201188,-0.942162 7.378297,-1.57027 l -0.392106,1.177637 h 5.965449 z"
       id="path6"
       inkscape:label="GAM"
       style="fill:url(#c);stroke-width:0.264578" />
    <path
       fill="url(#b)"
       d="m 82.4963,25.675259 0.78502,-5.65414 H 74.3347 l 0.54927,-4.39341 h 7.76949 l 0.78608,-5.6515004 h -7.69197 l 0.54981,-4.08252 h 8.94609 L 86.1076,0.24244855 H 71.27294 L 67.74075,25.675259 Z"
       id="path4"
       inkscape:label="E"
       style="fill:url(#linearGradient30);stroke-width:0.264583" />
    <path
       fill="url(#e)"
       d="m 98.11598,9.9762086 h 3.29697 c 2.43337,0 2.90433,-1.57004 2.98212,-2.19737 0.0786,-0.62838 -0.62733,-1.88436 -1.88304,-1.88436 H 98.66578 Z M 96.70337,20.022699 h 4.47463 c 2.43231,0 2.98185,-1.8833 3.05964,-2.51169 0.0791,-0.62785 -0.62733,-1.88304 -1.88304,-1.88304 h -5.02285 z m -6.59289,5.65177 3.53219,-25.43122045 h 10.83151 c 2.59106,0 6.3582,2.98291005 5.88751,6.98579005 -0.4707,4.0031504 -1.72694,4.2386304 -2.59054,4.8664804 1.33482,1.1766 2.66912,3.0607 2.11984,6.59289 -0.5498,3.53298 -3.45413,6.98579 -8.55609,6.98579 z"
       id="path10"
       inkscape:label="B"
       style="fill:url(#e);stroke-width:0.264583" />
    <path
       fill="url(#d)"
       d="m 122.9204,0.00723855 c -4.08199,-0.15716 -9.96897,2.19763005 -11.93112,11.69564045 -1.96215,9.49695 3.29644,13.3432 8.16292,13.97106 4.86728,0.62785 11.69591,-2.43311 12.95162,-11.53822 C 133.36006,5.0303486 128.8849,0.24297855 122.9204,0.00723855 Z m -0.62812,5.41602005 c 1.64809,0 5.18001,1.09908 4.31641,7.6917004 -0.8636,6.59342 -4.9448,7.37844 -6.43625,7.22101 -1.49199,-0.15716 -4.55269,-1.1766 -3.68909,-7.22101 0.86307,-6.0433504 4.08093,-7.7702804 5.80893,-7.6917004 z"
       id="path8"
       inkscape:label="O"
       style="fill:url(#d);stroke-width:0.264583" />
    <path
       fill="url(#a)"
       d="m 129.27913,0.24244855 h 6.35767 l 3.14034,7.22260005 4.70932,-7.22260005 h 6.51272 l -9.18289,14.28644045 -1.49093,11.14637 h -5.88645 l 1.72667,-12.71799 z"
       id="path2"
       inkscape:label="Y"
       style="fill:url(#linearGradient31);stroke-width:0.264583" />
    <path
       fill="url(#f)"
       d="m 142.50935,21.827429 c -0.96837,0 -1.75021,0.78078 -1.75021,1.74439 a 1.7483666,1.7483666 0 0 0 1.75021,1.75525 c 0.96335,0 1.74414,-0.78132 1.74414,-1.75525 a 1.7451916,1.7451916 0 0 0 -1.74414,-1.74439 v -0.23998 a 1.984375,1.984375 0 0 1 1.98385,1.98437 c 0,1.10411 -0.88635,1.99443 -1.98385,1.99443 a 1.9912541,1.9912541 0 0 1 -1.99469,-1.99443 c 0,-1.09405 0.89032,-1.98411 1.99469,-1.98411 z"
       id="path12"
       inkscape:label="Circle"
       style="fill:url(#f);stroke-width:0.264583" />
    <path
       fill="url(#g)"
       d="m 142.0384,22.658479 h 0.63553 c 0.27649,0 0.57732,0.0413 0.57732,0.3855 0,0.4527 -0.48366,0.40111 -0.7964,0.40111 l -0.41645,-5.3e-4 v 0.21405 h 0.50085 l 0.635,1.02605 h 0.32253 l -0.67178,-1.02605 c 0.39582,-0.0101 0.70274,-0.17145 0.70274,-0.60907 0,-0.18786 -0.0828,-0.3855 -0.24951,-0.47969 -0.16642,-0.0987 -0.35454,-0.10901 -0.54213,-0.10901 h -0.96731 v 2.22329 h 0.26987 v -2.02565 z"
       id="path14"
       inkscape:label="R"
       style="fill:url(#g);stroke-width:0.264583" />
  </g>
  <g
     id="g8"
     inkscape:label="2Player"
     transform="translate(-132.31996,91.986391)">
    <path
       d="m 13.055788,-9.9997787 -0.734566,5.236339 H -3.2028966 l -0.00307,-0.826792 c 3.74603659,-4.6912723 6.6190399,-8.4700183 8.6190123,-11.3362253 2.0128161,-2.87846 3.0165225,-5.046492 3.0111205,-6.504095 -0.00263,-0.722672 -0.2820267,-1.328989 -0.8380462,-1.818944 -0.5560176,-0.489946 -1.246457,-0.734924 -2.0713175,-0.734924 -1.2759543,0 -3.1870041,0.777801 -5.73314811,2.333395 l 0.73484228,-5.162856 c 1.76090313,-1.298372 3.76264803,-1.947559 6.00523523,-1.947559 2.2296995,0 4.0365101,0.655308 5.4204301,1.965933 1.383875,1.298363 2.079443,2.92745 2.086707,4.887252 0.0061,1.629086 -0.477412,3.331658 -1.45035,5.107733 -0.960096,1.763823 -3.0435938,4.697404 -6.2504942,8.8007433 z"
       style="font-style:italic;font-weight:bold;font-size:38.1124px;line-height:0;font-family:'Gill Sans MT';-inkscape-font-specification:'Gill Sans MT Bold Italic';text-align:center;letter-spacing:-3.32446px;word-spacing:0px;text-anchor:middle;display:none;fill:url(#linearGradient23);stroke-width:3.47383;paint-order:stroke markers fill"
       id="path1"
       inkscape:label="2" />
    <path
       d="m 159.15088,-39.23396 -0.73456,5.236339 H 142.8922 l -0.003,-0.826792 c 3.74604,-4.691273 6.61904,-8.470019 8.61901,-11.336226 2.01282,-2.87846 3.01652,-5.046492 3.01112,-6.504095 -0.003,-0.722672 -0.28203,-1.328989 -0.83804,-1.818944 -0.55602,-0.489946 -1.24646,-0.734924 -2.07132,-0.734924 -1.27596,0 -3.18701,0.777801 -5.73315,2.333395 l 0.73484,-5.162856 c 1.76091,-1.298372 3.76265,-1.947559 6.00524,-1.947559 2.2297,0 4.03651,0.655308 5.42043,1.965933 1.38387,1.298363 2.07944,2.92745 2.0867,4.887252 0.006,1.629086 -0.47741,3.331658 -1.45035,5.107733 -0.96009,1.763823 -3.04359,4.697404 -6.25049,8.800744 z"
       style="font-style:italic;font-weight:bold;font-size:38.1124px;line-height:0;font-family:'Gill Sans MT';-inkscape-font-specification:'Gill Sans MT Bold Italic';text-align:center;letter-spacing:-3.32446px;word-spacing:0px;text-anchor:middle;fill:url(#linearGradient9);stroke-width:3.47383;paint-order:stroke markers fill"
       id="path3"
       inkscape:label="2" />
    <path
       d="m 165.18127,-59.995622 h 8.92928 c 2.67617,0 4.85232,0.694771 6.52844,2.084315 1.67608,1.377132 2.51856,3.262934 2.52744,5.657404 0.0102,2.741855 -0.88283,4.838559 -2.67897,6.290133 -1.78309,1.451574 -4.18243,2.177356 -7.19801,2.177356 h -4.60171 l -1.41277,9.788793 h -5.81578 z m 5.22399,4.112788 -1.1256,8.020852 h 2.44772 c 1.74931,0 3.09254,-0.372195 4.0297,-1.116588 0.93717,-0.744392 1.40336,-1.761729 1.39858,-3.05202 -0.004,-1.19103 -0.47132,-2.127735 -1.40072,-2.810097 -0.91639,-0.694761 -2.22966,-1.042147 -3.93979,-1.042147 z"
       style="font-style:italic;font-weight:bold;font-size:38.1124px;line-height:0;font-family:'Gill Sans MT';-inkscape-font-specification:'Gill Sans MT Bold Italic';text-align:center;letter-spacing:-3.32446px;word-spacing:0px;text-anchor:middle;fill:url(#linearGradient19);stroke-width:3.51859;paint-order:stroke markers fill"
       id="path1-6"
       inkscape:label="P" />
    <path
       d="m 190.68962,-59.995622 -3.11154,21.661899 h 12.43441 l -0.63012,4.336102 h -18.25019 l 3.76125,-25.998001 z"
       style="font-style:italic;font-weight:bold;font-size:38.1124px;line-height:0;font-family:'Gill Sans MT';-inkscape-font-specification:'Gill Sans MT Bold Italic';text-align:center;letter-spacing:-3.32446px;word-spacing:0px;text-anchor:middle;fill:url(#linearGradient16);stroke-width:3.51859;paint-order:stroke markers fill"
       id="path1-0"
       inkscape:label="L" />
    <path
       d="m 207.37857,-59.995587 -10.35101,25.997966 h 6.0984 l 2.96837,-7.703298 h 5.45602 l 0.96357,7.703298 h 5.79464 l -3.2267,-25.997966 z m 2.88755,7.783592 0.64238,5.375721 h -2.64824 z"
       style="display:inline;fill:url(#linearGradient1-2);stroke-width:1.62286;paint-order:stroke markers fill"
       id="path22-1"
       sodipodi:nodetypes="ccccccccccccc"
       inkscape:label="A" />
    <path
       fill="url(#a)"
       d="m 215.48409,-59.995622 h 6.49895 l 3.21013,7.383107 4.81397,-7.383107 h 6.65745 l -9.38696,14.603926 -1.52406,11.394075 h -6.01726 l 1.76504,-13.000621 z"
       id="path2-2"
       inkscape:label="Y"
       style="fill:url(#linearGradient7);stroke-width:0.270463" />
    <path
       fill="url(#b)"
       d="m 248.45316,-33.997621 0.80247,-5.779792 h -9.14545 l 0.56148,-4.491044 h 7.94215 l 0.80355,-5.777092 h -7.86291 l 0.56203,-4.173246 h 9.1449 l 0.88333,-5.776827 h -15.16433 l -3.61068,25.998001 z"
       id="path4-9"
       inkscape:label="E"
       style="fill:url(#linearGradient8);stroke-width:0.270463" />
    <path
       d="m 252.54994,-59.995621 h 9.37966 c 2.92421,0 5.19204,0.775414 6.80349,2.326241 1.62446,1.538418 2.44063,3.36839 2.4485,5.489918 0.006,1.71211 -0.51692,3.182296 -1.56979,4.410548 -1.0398,1.228251 -2.53813,2.022276 -4.49497,2.382072 l 2.7e-4,0.0744 c 1.0981,0.409417 2.06138,1.426765 2.88984,3.052025 l 4.24071,8.262796 h -6.42283 l -2.6239,-5.266594 c -1.1705,-2.332441 -2.07666,-3.790217 -2.71849,-4.373327 -0.64183,-0.583111 -1.68075,-0.874666 -3.11674,-0.874666 h -1.23365 l -1.48841,10.514587 h -5.81578 z m 5.18572,4.354717 -1.01155,7.090375 h 2.87851 c 1.76236,0 3.13177,-0.353586 4.10824,-1.060767 0.97642,-0.719584 1.46261,-1.625259 1.45857,-2.717039 -0.004,-1.029748 -0.4115,-1.836183 -1.22304,-2.419292 -0.81159,-0.595521 -1.93538,-0.893277 -3.37137,-0.893277 z"
       style="font-style:italic;font-weight:bold;font-size:38.1124px;line-height:0;font-family:'Gill Sans MT';-inkscape-font-specification:'Gill Sans MT Bold Italic';text-align:center;letter-spacing:-3.32446px;word-spacing:0px;text-anchor:middle;fill:url(#linearGradient27);stroke-width:3.5186;paint-order:stroke markers fill"
       id="path1-4"
       inkscape:label="R"
       sodipodi:nodetypes="cscccccccccssccccccscccsc" />
    <path
       d="m 288.74972,-57.999965 -0.76614,4.463025 c -0.95691,-0.65313 -2.0661,-1.185305 -3.32756,-1.596526 -1.24877,-0.423328 -2.34403,-0.634987 -3.28578,-0.634987 -1.06904,0 -1.95891,0.266088 -2.66962,0.798263 -0.71076,0.520076 -1.06464,1.185305 -1.06164,1.995666 0.002,0.483791 0.20088,0.973636 0.59724,1.469525 0.40904,0.483792 1.67846,1.330439 3.80828,2.53993 2.14254,1.209492 3.58505,2.400842 4.32754,3.574048 0.74244,1.161109 1.116,2.370592 1.12066,3.628467 0.008,2.237557 -0.79932,4.094127 -2.42285,5.569706 -1.62358,1.463482 -3.81618,2.195227 -6.57785,2.195227 -3.4998,0 -6.52533,-0.804317 -9.0766,-2.41294 l 0.8427,-4.408587 c 1.14826,0.774075 2.42324,1.403008 3.82495,1.8868 1.4144,0.471703 2.65611,0.707559 3.72515,0.707559 1.15811,0 2.0862,-0.253999 2.78427,-0.761987 0.69804,-0.520077 1.04551,-1.197395 1.04242,-2.031944 -0.002,-0.580559 -0.2334,-1.167162 -0.69375,-1.759809 -0.44763,-0.592648 -1.74918,-1.5179 -3.90462,-2.775776 -2.14272,-1.257877 -3.5533,-2.418985 -4.23175,-3.483335 -0.67846,-1.064349 -1.01979,-2.164985 -1.02401,-3.301906 -0.008,-2.177085 0.87605,-3.997367 2.65234,-5.460849 1.77629,-1.463481 4.00708,-2.195227 6.69238,-2.195227 2.68531,0 5.22672,0.66522 7.62424,1.995657 z"
       style="font-style:italic;font-weight:bold;font-size:38.1124px;line-height:0;font-family:'Gill Sans MT';-inkscape-font-specification:'Gill Sans MT Bold Italic';text-align:center;letter-spacing:-3.32446px;word-spacing:0px;text-anchor:middle;fill:url(#linearGradient29);stroke-width:3.4302;paint-order:stroke markers fill"
       id="path1-66"
       inkscape:label="S" />
  </g>
</svg>
