<!-- Created by ERK --><svg xmlns="http://www.w3.org/2000/svg" xmlns:xlink="http://www.w3.org/1999/xlink" width="572.482" height="137.887" viewBox="0 0 151.469 36.483"><defs><linearGradient id="a" x1="538.598" x2="538.598" y1="-.713" y2="98.787" gradientTransform="scale(.26458)" gradientUnits="userSpaceOnUse"><stop offset="0" style="stop-color:#2e5c92"/><stop offset="1" style="stop-color:#2e3192"/></linearGradient><linearGradient id="c" x1="127.571" x2="127.571" y1="-.713" y2="98.787" gradientTransform="scale(.26458)" gradientUnits="userSpaceOnUse"><stop offset=".005" style="stop-color:#2e5c92"/><stop offset="1" style="stop-color:#2e3192"/></linearGradient><linearGradient id="d" x1="290.738" x2="290.738" y1="-.713" y2="98.787" gradientTransform="scale(.26458)" gradientUnits="userSpaceOnUse"><stop offset=".005" style="stop-color:#2e5c92"/><stop offset="1" style="stop-color:#2e3192"/></linearGradient><linearGradient id="e" x1="378.921" x2="378.921" y1="-.713" y2="98.787" gradientTransform="scale(.26458)" gradientUnits="userSpaceOnUse"><stop offset=".005" style="stop-color:#2e5c92"/><stop offset="1" style="stop-color:#2e3192"/></linearGradient><linearGradient id="f" x1="458.994" x2="458.994" y1="-.713" y2="98.787" gradientTransform="scale(.26458)" gradientUnits="userSpaceOnUse"><stop offset=".005" style="stop-color:#2e5c92"/><stop offset="1" style="stop-color:#2e3192"/></linearGradient><linearGradient id="g" x1="527.771" x2="527.771" y1="-.713" y2="98.787" gradientTransform="scale(.26458)" gradientUnits="userSpaceOnUse"><stop offset=".005" style="stop-color:#2e5c92"/><stop offset="1" style="stop-color:#2e3192"/></linearGradient><linearGradient id="i" x1="539.144" x2="539.144" y1="-.713" y2="98.787" gradientTransform="scale(.26458)" gradientUnits="userSpaceOnUse"><stop offset=".005" style="stop-color:#2e5c92"/><stop offset="1" style="stop-color:#2e3192"/></linearGradient><linearGradient xlink:href="#a" id="h" x1="142.5" x2="142.504" y1="-.176" y2="26.099" gradientUnits="userSpaceOnUse"/><linearGradient xlink:href="#b" id="j" x1="283.501" x2="283.501" y1="49.798" y2="131.809" gradientUnits="userSpaceOnUse"/><linearGradient id="b"><stop offset="0" style="stop-color:#ffe793;stop-opacity:1"/><stop offset="1" style="stop-color:#ff941b;stop-opacity:1"/></linearGradient><filter id="k" width="1.507" height="1.533" x="-.254" y="-.267" style="color-interpolation-filters:sRGB"><feFlood flood-color="#000" flood-opacity=".498" result="flood"/><feGaussianBlur in="SourceGraphic" result="blur" stdDeviation="1"/><feOffset in="blur" result="offset"/><feComposite in="flood" in2="offset" operator="in" result="comp1"/><feComposite in="SourceGraphic" in2="comp1" result="fbSourceGraphic"/><feColorMatrix in="fbSourceGraphic" result="fbSourceGraphicAlpha" values="0 0 0 -1 0 0 0 0 -1 0 0 0 0 -1 0 0 0 0 1 0"/><feFlood flood-color="#000" flood-opacity=".498" result="flood"/><feGaussianBlur in="fbSourceGraphic" result="blur" stdDeviation="1"/><feOffset in="blur" result="offset"/><feComposite in="flood" in2="offset" operator="in" result="comp1"/><feComposite in="fbSourceGraphic" in2="comp1" result="fbSourceGraphic"/><feColorMatrix in="fbSourceGraphic" result="fbSourceGraphicAlpha" values="0 0 0 -1 0 0 0 0 -1 0 0 0 0 -1 0 0 0 0 1 0"/><feFlood flood-color="#000" flood-opacity=".498" result="flood"/><feGaussianBlur in="fbSourceGraphic" result="blur" stdDeviation="5"/><feOffset in="blur" result="offset"/><feComposite in="flood" in2="offset" operator="in" result="comp1"/><feComposite in="fbSourceGraphic" in2="comp1" result="fbSourceGraphic"/><feColorMatrix in="fbSourceGraphic" result="fbSourceGraphicAlpha" values="0 0 0 -1 0 0 0 0 -1 0 0 0 0 -1 0 0 0 0 1 0"/><feFlood flood-color="#000" flood-opacity=".498" result="flood"/><feGaussianBlur in="fbSourceGraphic" result="blur" stdDeviation=".1"/><feOffset in="blur" result="offset"/><feComposite in="flood" in2="offset" operator="in" result="comp1"/><feComposite in="fbSourceGraphic" in2="comp1" result="comp2"/></filter></defs><g style="display:inline"><path fill="url(#c)" d="m29.672 13.114 1.962-5.258.628 5.258zm-2.12 5.024h5.338l.943 7.535h9.654l4.474-13.815 2.198 13.815h5.102l5.651-14.6.943 14.6h5.65L65.936.24h-6.75l-5.258 13.422L51.885.241h-6.043l-6.907 20.88L36.345.24h-7.536L20.41 21.355l1.099-8.241H11.305l-.707 5.023h4.475l-.315 1.727c-.785.47-2.59.549-3.296.549s-5.965-.47-5.73-6.122c.235-5.651 7.77-10.91 16.719-8.006l.864-5.416C17.349-1.171 1.68-.03.08 13.977c-.941 8.241 6.594 12.166 11.617 12.089 2.905.157 6.202-.943 7.379-1.57l-.392 1.177h5.965z" style="fill:url(#c);stroke-width:.264583" transform="translate(.5 .533)"/><path fill="url(#d)" d="m82.496 25.675.785-5.654h-8.946l.549-4.393h7.77l.786-5.652h-7.692l.55-4.082h8.945l.865-5.652H71.273L67.74 25.675Z" style="fill:url(#d);stroke-width:.264583" transform="translate(.5 .533)"/><path fill="url(#e)" d="M98.116 9.976h3.297c2.433 0 2.904-1.57 2.982-2.197.079-.629-.627-1.885-1.883-1.885h-3.846Zm-1.413 10.047h4.475c2.432 0 2.982-1.884 3.06-2.512.079-.628-.628-1.883-1.883-1.883h-5.023zm-6.593 5.651L93.643.244h10.831c2.591 0 6.358 2.982 5.888 6.985-.471 4.003-1.727 4.239-2.59 4.867 1.334 1.176 2.668 3.06 2.119 6.592-.55 3.533-3.454 6.986-8.556 6.986z" style="fill:url(#e);stroke-width:.264583" transform="translate(.5 .533)"/><path fill="url(#f)" d="M122.92.007c-4.082-.157-9.969 2.198-11.93 11.696-1.963 9.497 3.296 13.343 8.162 13.97 4.867.629 11.696-2.432 12.952-11.537S128.884.243 122.92.007m-.628 5.416c1.648 0 5.18 1.1 4.317 7.692-.864 6.593-4.945 7.378-6.437 7.221s-4.552-1.177-3.689-7.221c.863-6.043 4.081-7.77 5.81-7.692" style="fill:url(#f);stroke-width:.264583" transform="translate(.5 .533)"/><path fill="url(#g)" d="M129.28.242h6.357l3.14 7.223 4.71-7.223h6.512l-9.183 14.287-1.49 11.146h-5.887l1.727-12.718z" style="fill:url(#g);stroke-width:.264583" transform="translate(.5 .533)"/><path d="M142.504 21.588a1.99 1.99 0 0 0-1.99 1.988c0 1.097.893 1.99 1.99 1.99s1.99-.893 1.99-1.99a1.99 1.99 0 0 0-1.99-1.988m0 .244a1.745 1.745 0 1 1 0 3.49 1.745 1.745 0 1 1 0-3.49" style="display:inline;fill:url(#h);stroke:none;stroke-linecap:round;stroke-miterlimit:4.5;paint-order:fill markers stroke" transform="translate(.5 .533)"/><path fill="url(#i)" d="M142.038 22.658h.636c.276 0 .577.042.577.386 0 .453-.483.401-.796.401h-.417v.214h.501l.635 1.026h.323l-.672-1.026c.396-.01.703-.172.703-.61 0-.187-.083-.385-.25-.48-.166-.098-.354-.108-.542-.108h-.967v2.223h.27z" style="display:inline;fill:url(#i);stroke-width:.264583" transform="translate(.5 .533)"/></g><path d="m283.59 54.144 12.6 24.669 25.816 3.431-19.567 19.606 4.714 25.613-24.693-12.551-22.903 12.398 4.307-27.363-18.87-17.95 27.356-4.36z" style="fill:url(#j);fill-opacity:1;stroke:url(#j);stroke-width:5;stroke-linecap:round;stroke-linejoin:round;stroke-dasharray:none;paint-order:fill markers stroke;filter:url(#k)" transform="translate(38.925 11.637)scale(.16901)"/></svg>