<?xml version="1.0" encoding="UTF-8" standalone="no"?>
<!-- Created by ERK -->

<svg
   version="1.1"
   viewBox="0 0 983 292"
   id="svg51"
   sodipodi:docname="gba-w.svg"
   inkscape:version="1.4 (86a8ad7, 2024-10-11)"
   xmlns:inkscape="http://www.inkscape.org/namespaces/inkscape"
   xmlns:sodipodi="http://sodipodi.sourceforge.net/DTD/sodipodi-0.dtd"
   xmlns="http://www.w3.org/2000/svg"
   xmlns:svg="http://www.w3.org/2000/svg">
  <defs
     id="defs51">
    <rect
       x="12.374368"
       y="23.688076"
       width="975.45376"
       height="239.35563"
       id="rect21" />
  </defs>
  <sodipodi:namedview
     id="namedview51"
     pagecolor="#ffffff"
     bordercolor="#000000"
     borderopacity="0.25"
     inkscape:showpageshadow="2"
     inkscape:pageopacity="0.0"
     inkscape:pagecheckerboard="true"
     inkscape:deskcolor="#d1d1d1"
     inkscape:zoom="2.0000001"
     inkscape:cx="500.99997"
     inkscape:cy="150.99999"
     inkscape:window-width="3818"
     inkscape:window-height="1003"
     inkscape:window-x="0"
     inkscape:window-y="1041"
     inkscape:window-maximized="0"
     inkscape:current-layer="svg51" />
  <path
     id="path71"
     style="display:inline;fill:#ffffff;fill-opacity:1;stroke:none;stroke-opacity:1"
     inkscape:label="GameboyAdvancedOutline2"
     d="m 79.708984,85.741985 c -17.113477,0.507708 -33.781698,7.473063 -46.69831,18.611385 -8.011024,6.95032 -14.352766,15.90619 -17.797099,25.96688 -3.545137,10.18274 -4.426507,21.24891 -2.792396,31.89243 1.437179,8.98328 5.475747,17.50434 11.444933,24.36209 9.894848,11.45985 24.756384,18.55572 39.923685,18.7536 7.60526,0.10507 15.206503,-0.29649 22.811529,-0.31847 8.668575,-0.104 17.340924,-0.0224 26.007744,-0.0434 2.58245,-0.23771 4.42859,-2.51358 5.19181,-4.8372 0.4902,-1.0868 0.9804,-2.17361 1.4706,-3.26041 0.33039,1.71678 0.48479,3.49916 1.09766,5.14063 1.17323,2.38646 4.07325,3.37308 6.58672,3.03267 70.46556,-0.20924 140.93143,-0.29952 211.39725,-0.34827 8.16441,-0.0405 16.56636,-0.77946 24.05722,-4.27654 3.37393,-1.57081 6.51198,-3.63388 9.34553,-6.04263 10.62116,9.10051 25.24298,13.59403 39.11533,11.3387 4.2082,-0.66342 8.3217,-1.91004 12.19717,-3.67854 1.02232,2.00551 3.32897,3.13819 5.54333,2.93143 14.54427,5.3e-4 29.09199,0.054 43.6344,-0.0486 2.98406,-0.35268 5.11328,-3.30094 5.11855,-6.20043 0.14083,-0.92603 0.28165,-1.85206 0.42247,-2.77809 1.51485,-0.67942 2.92001,-1.59843 4.16211,-2.69922 39.73561,-0.0583 79.47156,0.0406 119.20695,-0.0948 10.11945,-0.1447 20.45363,-1.23333 29.82343,-5.29442 3.77334,-1.64694 7.33753,-3.77488 10.56728,-6.32956 2.152,3.37118 4.12279,6.87889 6.54455,10.06364 1.72391,1.7669 4.37281,1.72268 6.65896,1.63753 42.32989,0.001 84.66025,0.002 126.98984,-0.0234 3.17322,-0.18638 5.47519,-3.53585 4.9754,-6.58047 0.0173,-2.20755 0.0346,-4.4151 0.0519,-6.62266 5.32333,4.16068 10.60689,8.37583 16.00781,12.43164 2.38082,1.27073 5.1438,0.64361 7.71289,0.79688 51.93029,0 103.861,0.003 155.79102,-0.0176 3.17153,-0.21272 5.46904,-3.55745 4.9707,-6.60781 -0.009,-27.43513 0.0249,-54.8726 -0.043,-82.30625 -0.31765,-3.08205 -3.57987,-5.249688 -6.55703,-4.789107 -51.59342,-0.0078 -103.18717,-0.08792 -154.78038,0.04564 -6.05916,0.152917 -12.12508,0.226432 -18.18219,0.02292 -3.15173,0.236825 -5.43443,3.565477 -4.93718,6.603747 0.005,2.022 0.0102,4.04401 0.0154,6.06601 -5.03113,-3.93984 -9.98639,-7.98855 -15.12908,-11.77783 -2.57597,-1.476274 -5.62799,-0.857835 -8.4467,-0.989727 -29.03648,0.0018 -58.07382,-0.0024 -87.10976,0.02733 -2.68358,0.173117 -4.68101,2.434487 -5.62696,4.791017 -2.02994,3.86067 -4.05989,7.72135 -6.08984,11.58203 -2.72904,-4.69133 -5.37032,-9.43962 -8.23828,-14.04688 -1.70419,-2.118589 -4.63673,-2.560637 -7.1957,-2.353511 -42.43933,0 -84.87865,0 -127.31797,0 1.05571,-1.727637 2.27549,-3.407379 2.95508,-5.324219 0.79028,-3.378985 -2.48711,-6.93217 -5.91797,-6.416015 -36.28356,0.0065 -72.5679,-0.05777 -108.85091,0.07913 -8.58879,0.252702 -17.25977,2.222687 -24.69311,6.646453 -2.69327,1.523534 -5.27076,3.243322 -7.78801,5.040046 -5.03095,-4.972574 -11.0716,-9.267617 -18.07138,-10.847563 -6.3595,-1.45958 -12.92247,-0.827127 -19.38409,-0.956908 -59.18531,0.01405 -118.37149,0.01676 -177.55625,0.04861 -1.96199,0.0879 -3.69266,1.48991 -4.60157,3.103516 -0.96943,-2.266854 -3.5999,-3.288651 -5.93554,-3.164501 -5.03425,0.09486 -10.07411,0.01279 -15.11055,0.0386 -8.36149,0.01069 -16.72753,-0.02659 -25.08609,0.06788 -1.43791,0.189347 -2.73405,1.048188 -3.60024,2.192789 -9.113236,-2.895456 -18.683016,-4.519915 -28.261716,-4.240234 z m 2.246094,23.761715 c 3.536647,-0.003 6.975084,0.33269 10.449219,1.03907 1.202836,0.25148 2.54119,0.5748 3.789062,0.9375 -0.31697,1.96966 -0.589089,3.94654 -0.93164,5.91211 -11.946399,-2.59851 -24.947151,-1.11716 -35.609695,5.02946 -7.344002,4.26192 -13.481438,10.98245 -16.083083,19.15982 -2.405696,7.23317 -2.286414,15.53773 1.398255,22.3282 3.480989,6.30902 10.314651,10.81283 17.594695,10.91734 4.185752,0.18564 8.364446,-0.34211 12.505436,-0.87465 2.390835,-0.56653 4.07372,-2.88004 4.20382,-5.28539 0.303824,-2.19025 0.76987,-4.36808 0.922243,-6.57398 0.0472,-2.41355 -1.604074,-4.6879 -3.883158,-5.45118 -1.947678,-0.7338 -4.043347,-0.23144 -6.061599,-0.31863 -0.458361,-0.13998 -1.629737,0.34375 -1.538925,-0.27662 0.224368,-1.52411 0.448736,-3.04823 0.673104,-4.57234 6.647136,0 13.294271,0 19.941407,0 -1.114244,7.26312 -2.300667,14.51897 -3.312122,21.7953 -0.02191,0.8626 0.229155,1.72269 0.665637,2.46251 -1.715766,0.55721 -3.289836,1.4765 -4.983185,2.10223 -3.747443,1.58436 -7.704835,2.74774 -11.782305,3.00312 -2.289122,0.18649 -4.7177,0.16101 -6.839492,-0.0559 -7.054247,-0.71452 -14.070481,-3.37406 -19.330119,-8.21688 -4.181711,-3.85798 -7.040495,-9.14938 -7.787439,-14.80537 -1.22954,-8.3011 0.02381,-17.03965 3.970775,-24.4829 4.788859,-9.22903 13.320117,-16.16741 22.885931,-20.01168 5.194593,-2.10778 10.87021,-3.33585 16.377553,-3.67125 0.921369,-0.0486 1.843033,-0.0789 2.765625,-0.0898 z m 208.234372,1.97071 c -0.36198,2.33333 -0.72396,4.66666 -1.08593,7 -8.28319,0.0276 -16.57211,-0.0738 -24.85157,0.082 -2.68689,0.42423 -4.47302,3.15302 -4.45365,5.76109 -0.60657,4.41136 -1.32469,8.81876 -1.82955,13.23695 0.1814,2.76001 2.74771,5.20538 5.56326,4.94226 6.14511,0.08 12.29119,0.0159 18.43674,0.0382 -0.35156,2.31315 -0.70312,4.6263 -1.05469,6.93945 -6.9811,0.0129 -13.96777,-0.0463 -20.94531,0.0547 -2.65948,0.39437 -4.50797,3.02734 -4.56175,5.61811 -0.72328,4.41057 -1.58195,8.81114 -2.19802,13.23151 0.14123,2.68153 2.49826,5.18866 5.26821,5.04499 4.12937,0.1105 8.26198,0.0147 12.39273,0.0507 3.2849,0 6.56979,0 9.85469,0 -0.37891,2.25 -0.75781,4.5 -1.13672,6.75 -11.67513,0 -23.35026,0 -35.02539,0 3.64518,-22.91667 7.29036,-45.83334 10.93555,-68.75 11.5638,0 23.1276,0 34.6914,0 z m 155.49219,0 c 2.99981,7.63847 5.89357,15.32396 9.03219,22.90314 1.69022,3.10446 6.68591,3.3214 8.69908,0.44469 4.87183,-7.76259 9.70621,-15.55023 14.56365,-23.32244 2.34505,-0.006 4.69011,-0.0117 7.03516,-0.0176 -7.91824,12.53736 -15.89398,25.03814 -23.65039,37.67383 -1.94543,3.33921 -2.04008,7.30586 -2.58557,11.03247 -0.98966,6.67886 -1.93294,13.36528 -2.99256,20.03394 -2.07552,0.0117 -4.15104,0.0234 -6.22656,0.0351 1.70962,-10.58819 3.49313,-21.16804 5.08789,-31.77149 0.0105,-2.77625 -1.74599,-5.07803 -2.70973,-7.56912 -4.53491,-9.8142 -9.06981,-19.6284 -13.60472,-29.44259 2.45052,0 4.90104,0 7.35156,0 z M 184.125,111.64042 c 2.35302,12.779 4.63218,25.57363 7.07788,38.3314 1.06134,3.43346 5.97698,4.73167 8.60181,2.28188 1.89259,-1.97173 2.44762,-4.75801 3.64529,-7.13742 4.76342,-11.16122 9.52684,-22.32245 14.29025,-33.48367 3.84441,0.0254 7.68881,0.0508 11.53321,0.0762 0.94987,22.83854 1.89974,45.67709 2.84961,68.51563 -2.03386,0 -4.06771,0 -6.10157,0 -0.64765,-14.46863 -1.23135,-28.94107 -1.97713,-43.40337 -0.49299,-3.37966 -4.97216,-5.30393 -7.75138,-3.30171 -2.65771,2.06227 -3.47363,5.48492 -4.86838,8.38086 -5.52694,12.79428 -11.05389,25.58855 -16.58084,38.38281 -1.20898,-0.0156 -2.41797,-0.0312 -3.62695,-0.0469 -2.71564,-13.17024 -5.36521,-26.35207 -8.19374,-39.49722 -1.00046,-3.20078 -5.52311,-4.68058 -8.10459,-2.4335 -1.98725,1.6188 -2.34039,4.2827 -3.13496,6.55947 -3.78605,11.78556 -7.52524,23.58729 -11.29328,35.37906 -6.58593,-0.003 -13.17187,-0.007 -19.75781,-0.01 -1.19896,-6.59629 -2.23834,-13.22877 -3.6289,-19.78516 -0.95616,-2.61266 -3.99905,-3.82994 -6.61563,-3.4668 -5.7459,0.0362 -11.49905,-0.12467 -17.23984,0.11133 -2.50411,0.44405 -4.11635,2.74674 -4.91211,5 -2.79167,6.05143 -5.58334,12.10287 -8.375002,18.1543 -2.225247,-0.008 -4.450778,0.01 -6.675782,-0.0293 -0.05231,-0.68076 -0.237779,-1.35192 -0.546875,-1.96094 1.963347,-0.5793 3.284109,-2.35056 3.936623,-4.21334 9.154856,-20.81135 18.375936,-41.59361 27.555566,-62.39408 4.14193,0.0143 8.28385,0.0286 12.42578,0.043 3.27224,19.53607 6.47968,39.08692 9.81836,58.60937 0.87342,3.00163 4.69077,4.68015 7.46546,3.18328 2.02038,-0.89532 2.80055,-3.14953 3.34289,-5.12139 6.2016,-18.92356 12.39531,-37.8497 18.58032,-56.77869 2.75391,0.0182 5.50781,0.0365 8.26172,0.0547 z m 224.9043,-0.01 c 7.04493,0.029 13.84928,3.60104 18.19892,9.0875 5.47868,6.71921 7.78311,15.60971 7.43777,24.17845 -0.18275,4.72771 -1.14856,9.45546 -2.8065,13.82315 -3.24757,8.61827 -9.41872,16.38266 -17.79113,20.46364 -4.81739,2.3023 -10.37723,3.23313 -15.63672,2.1211 -1.04352,-0.21591 -2.3239,-0.56071 -3.41133,-0.98663 -6.44047,-2.39184 -11.44832,-7.72736 -14.34062,-13.86285 -2.7857,-5.85073 -3.84548,-12.43938 -3.4668,-18.8849 0.60211,-9.87215 4.63057,-19.82303 11.69184,-26.9344 1.15107,-1.15187 2.36995,-2.23608 3.59839,-3.16921 0.91951,-0.69408 1.83784,-1.32309 2.75517,-1.86712 4.12865,-2.50074 8.9212,-4.01588 13.77101,-3.96873 z m -79.96289,0.58594 c 7.35307,0.0472 14.71104,-0.10491 22.06065,0.12784 3.42351,0.29593 6.75448,1.73847 9.19693,4.17642 2.90213,2.57932 5.21835,6.15293 5.27562,10.14301 0.10148,4.94835 -2.53554,9.49914 -5.81007,13.02906 -1.24414,1.30408 -2.71624,2.7024 -2.78694,4.63223 -0.24035,2.26974 0.97108,4.4726 2.71478,5.85718 3.39184,3.5594 5.47592,8.66027 4.517,13.59677 -0.62033,3.48919 -2.56303,6.89686 -5.09961,9.48828 -4.08386,4.14284 -9.73335,6.87995 -15.60775,6.88832 -5.12708,0.21992 -10.25962,-0.0103 -15.38913,0.0673 -4.65599,-0.009 -9.31198,-0.0186 -13.96797,-0.0279 3.59594,-22.66464 7.19897,-45.32808 10.81055,-67.99024 1.36198,0.004 2.72396,0.008 4.08594,0.0117 z m 79.45507,4.85742 c -6.13083,0.28398 -11.71818,3.77333 -15.64062,8.34375 -6.83705,7.96272 -10.00453,18.78161 -9.17188,29.18751 0.54333,5.9822 2.63233,12.05426 6.89533,16.41369 3.63777,3.69693 9.00376,5.78571 14.18729,4.99112 5.95576,-0.77982 11.15038,-4.50074 14.83581,-9.10468 5.72611,-7.09164 8.56301,-16.28142 8.55177,-25.34151 -0.0727,-6.31666 -1.71881,-12.83357 -5.70232,-17.84589 -2.95169,-3.69192 -7.37044,-6.29912 -12.13691,-6.5927 -0.6044,-0.0523 -1.21225,-0.058 -1.81847,-0.0513 z m -68.3125,1.50391 c -2.48636,0.17368 -5.06255,-0.11142 -7.46952,0.64588 -2.14959,0.90329 -3.09191,3.32729 -3.24686,5.50928 -0.72829,4.45742 -1.70386,8.88479 -2.17998,13.3764 0.10142,3.10894 3.28804,5.4391 6.27944,5.10818 5.46647,0.29338 11.19375,0.55926 16.34153,-1.63779 5.48533,-2.40231 8.85277,-9.05775 7.09366,-14.86121 -1.10413,-4.02674 -4.85666,-6.91916 -8.88467,-7.62121 -2.60565,-0.55724 -5.28345,-0.53047 -7.9336,-0.51953 z m 194.70313,4.60742 c 1.09253,0.0301 2.18598,0.0414 3.27734,0.10352 8.74529,14.39051 17.40206,28.83603 26.14258,43.22852 2.07074,2.86908 7.01501,2.45238 8.70864,-0.60219 1.04794,-2.21671 0.65404,-4.75638 0.68781,-7.12984 0.0374,-11.76247 0.019,-23.52501 0.0215,-35.28751 12.16835,-0.0121 24.34042,-0.15819 36.5061,0.11346 6.17306,0.42839 12.12244,2.79984 17.11486,6.41299 3.00056,1.73003 7.33836,-0.58574 7.5569,-4.04598 0.0928,-0.84854 -0.0442,-1.71412 -0.36927,-2.50195 2.19206,0.003 4.38412,0.007 6.57618,0.01 6.51731,11.21582 12.98888,22.46072 19.56835,33.63867 2.00015,2.68787 6.68626,2.69743 8.52692,-0.17384 1.45411,-2.19717 2.55638,-4.597 3.86362,-6.8195 4.90693,-8.88894 9.81386,-17.77788 14.72079,-26.66682 1.77145,0.0154 3.54292,0.0399 5.31446,0.0254 -8.72461,15.06966 -17.44922,30.13932 -26.17383,45.20899 -1.64188,0.0182 -3.28381,0.0259 -4.92578,0.0234 -6.65519,-10.91311 -13.19871,-21.89675 -19.90799,-32.77507 -1.55264,-2.22012 -4.92998,-2.97657 -7.16825,-1.34593 -1.86226,1.24349 -2.63045,3.66847 -2.23965,5.81681 0.30154,4.08367 0.78318,8.26096 -0.24173,12.29095 -0.88767,3.85209 -3.02458,7.45388 -6.23145,9.81597 -4.88814,3.71741 -11.05838,5.20541 -17.06243,5.85129 -6.05445,0.61433 -12.14486,0.34625 -18.2481,0.39202 -10.54626,-0.0171 -21.09254,-0.0364 -31.63868,-0.091 -7.22621,-12.75281 -14.40764,-25.53358 -21.69141,-38.25195 -1.94531,-2.7191 -6.63841,-2.80294 -8.49548,0.0559 -1.61953,2.43738 -2.86608,5.09534 -4.35296,7.61241 -3.89049,7.01021 -7.83185,13.99404 -11.64961,21.04071 -1.32077,3.23734 1.36756,7.35521 4.89882,7.30702 3.49956,0.0505 6.99972,0.0348 10.49962,0.0328 0,0.75 0,1.5 0,2.25 -8.50846,0 -17.01693,0 -25.52539,0 8.98503,-15.12435 17.97005,-30.2487 26.95508,-45.37305 1.68591,-0.11746 3.27881,-0.15586 4.98242,-0.16602 z m 412.33789,0.0586 c 0,0.91341 0,1.82682 0,2.74023 -12.71823,0.007 -25.43977,-0.048 -38.15593,0.0295 -3.11626,0.35419 -5.27457,3.6738 -4.80063,6.68379 0.0651,2.55625 -0.37818,5.20566 0.40182,7.68719 1.01717,2.48323 3.9324,3.69305 6.48677,3.33976 6.10599,0 12.21198,0 18.31797,0 0,0.75 0,1.5 0,2.25 -6.8406,0.01 -13.68603,-0.0503 -20.52344,0.0684 -3.03526,0.40868 -5.12381,3.63331 -4.6795,6.58243 0.0478,3.07997 -0.28653,6.19718 0.21008,9.24912 0.79278,2.73765 3.88357,4.24513 6.59286,3.8501 12.31107,0 24.62214,0 36.9332,0 0.01,0.91667 0.0195,1.83333 0.0293,2.75 -16.60417,0 -33.20833,0 -49.8125,0 0,-15.08659 0,-30.17318 0,-45.25977 16.33333,0.01 32.66667,0.0195 49,0.0293 z m -182.1875,2.3418 c 12.62764,9.82869 25.15271,19.79386 37.82366,29.56378 3.03031,1.90903 7.50103,-0.28413 8.05779,-3.76598 0.16262,-4.09445 0.004,-8.20457 0.0542,-12.30523 6.2e-4,-5.21692 10e-4,-10.43385 0.002,-15.65078 1.5,-0.005 3,-0.0104 4.5,-0.0156 0,15.13607 0,30.27214 0,45.40821 -1.7115,0.0691 -3.61999,0.21932 -5.12351,-0.74026 -2.61478,-2.07972 -5.31605,-4.29848 -7.9682,-6.42857 -10.55339,-8.53242 -21.08637,-17.09112 -31.76767,-25.46008 -2.93466,-1.91671 -7.37028,0.2262 -7.83398,3.66211 -0.0991,3.69625 -0.0332,7.40258 -0.0512,11.10273 0.004,5.92281 0.025,11.84557 0.0375,17.76837 -6.40234,-0.004 -12.80469,-0.008 -19.20703,-0.0117 -7.2904,-12.85187 -14.49322,-25.7544 -21.85156,-38.5664 -1.98063,-2.85785 -6.84252,-2.54051 -8.57422,0.41992 -5.14233,9.45035 -10.42906,18.82504 -15.51954,28.30273 -1.34332,3.11455 1.10444,7.18625 4.54102,7.27931 2.84225,0.18354 5.69275,0.01 8.53867,0.0762 0.67852,0 1.35703,0 2.03555,0 0.007,0.80078 0.0143,1.60156 0.0215,2.40233 -4.00537,-0.0283 -8.01364,-0.25776 -12.0162,0.001 -4.4718,0.12327 -8.94639,0.15766 -13.41934,0.0827 8.9694,-15.15821 17.9388,-30.31642 26.9082,-45.47462 2.74349,0.0118 5.48698,0.0235 8.23047,0.0352 8.78997,14.41195 17.47499,28.88785 26.28515,43.28516 2.07965,2.79294 6.97004,2.40206 8.60818,-0.65824 1.20001,-2.23065 0.55914,-4.82565 0.70853,-7.23238 -0.0392,-11.80925 -0.0783,-23.6185 -0.11749,-35.42774 1.3444,-0.007 2.68881,-0.013 4.03321,-0.0195 1.02148,0.78906 2.04297,1.57812 3.06445,2.36719 z m 95.79688,-2.3379 c 3.86854,0.0388 7.84208,-0.0421 11.64453,0.0762 1.79642,0.08 3.56433,0.1519 5.38281,0.50586 1.74658,0.34734 3.6429,1.18884 4.28906,2.98632 0.86913,2.19402 0.81983,4.63914 0.92383,6.90821 -2.0293,0 -4.05859,0 -6.08789,0 0.1433,-2.02741 -0.0266,-4.34045 -1.63322,-5.79691 -1.54062,-1.52468 -3.83396,-1.94856 -5.92069,-1.70322 -9.51672,0.01 -19.03742,-0.0478 -28.55156,0.0626 -3.03856,0.38076 -5.12087,3.62199 -4.65631,6.56094 0.0101,9.25973 -0.0567,18.5243 0.0723,27.78087 0.41402,3.05185 3.70276,5.07534 6.64296,4.59574 9.74227,-0.0104 19.48836,0.0499 29.22813,-0.0645 3.05157,-0.40421 5.11725,-3.63959 4.71318,-6.59412 0.0136,-0.60535 0.0272,-1.21069 0.0407,-1.81604 2.05859,0.043 4.11718,0.0859 6.17578,0.12891 0.0132,3.06738 0.0336,6.30254 -1.31753,9.12696 -1.38572,2.00259 -4.0148,2.33332 -6.25015,2.55711 -3.99404,0.34826 -8.00868,0.12491 -12.012,0.19417 -9.61604,-0.037 -19.26629,-0.10121 -28.83928,-0.62906 -1.84727,-0.27765 -3.4831,-1.74899 -3.72362,-3.63981 -0.60654,-2.80304 -0.44007,-5.69341 -0.63813,-8.53884 -0.29898,-8.4278 -0.25096,-16.85951 0.28502,-25.24372 0.075,-2.2756 0.48949,-4.89549 2.48143,-6.31168 1.55645,-0.99514 3.47951,-0.85053 5.20755,-0.92924 7.51391,-0.13655 15.02778,-0.22252 22.54304,-0.21676 z m -275.87891,2.73633 c -3.26726,-0.12423 -5.96975,3.23304 -5.4707,6.39649 0.005,9.47283 -0.0651,18.94965 0.0449,28.41992 0.38871,3.05285 3.60636,5.10339 6.55305,4.76939 8.23728,0.32764 16.54994,0.39623 24.70561,-0.95737 5.01352,-0.99124 10.04707,-3.33631 13.06556,-7.61085 3.01893,-4.26343 3.5978,-9.77879 2.84617,-14.83373 -0.60936,-4.83516 -2.99035,-9.61404 -7.10429,-12.38259 -4.27341,-3.047 -9.67977,-3.96017 -14.83133,-3.79289 -6.60297,-0.032 -13.20599,-0.0154 -19.80899,-0.008 z m -458.40625,1.20313 c -2.46198,0.11602 -4.38031,2.18626 -5.07495,4.43266 -2.01873,4.48906 -4.22622,8.90097 -6.0322,13.47907 -0.8278,3.21261 2.15674,6.67626 5.45519,6.35258 3.24906,-0.0116 6.51041,0.12977 9.75149,-0.10242 2.56396,-0.40832 4.38425,-2.99053 4.21832,-5.52781 -0.10152,-1.59521 -0.63096,-3.0301 -0.84711,-4.59443 -0.72926,-3.60496 -1.33917,-7.25626 -2.23637,-10.83262 -0.84963,-2.02457 -3.04657,-3.36408 -5.23437,-3.20703 z m 209.42187,22.10937 c -2.65405,0.15352 -5.38192,-0.0392 -7.96102,0.69163 -2.35414,0.92827 -3.44002,3.50701 -3.79708,5.84975 -0.99039,4.70397 -1.49837,9.49793 -1.8886,14.28112 0.14984,3.11153 3.3479,5.46326 6.35995,5.08055 6.37982,0.14739 12.86812,0.44601 19.13054,-1.01335 5.3297,-1.61368 9.60126,-6.79419 9.47754,-12.4686 0.0296,-4.79441 -3.40062,-9.41318 -7.89554,-10.83321 -4.26468,-1.66135 -8.91878,-1.6638 -13.42579,-1.58789 z" />
  <path
     id="path4"
     style="display:inline;fill:#ffffff;fill-opacity:1;fill-rule:nonzero;stroke:none;stroke-width:0.336424"
     d="m 471.94514,184.50245 c 3.48906,0 6.23731,-2.73042 6.23731,-6.44084 0,-3.6502 -2.74825,-6.39274 -6.23731,-6.39274 -3.519,0 -6.27364,2.7422 -6.27364,6.39274 0,3.71076 2.7543,6.44084 6.27364,6.44084 M 464.13,178.06161 c 0,-4.42129 3.57888,-7.6772 7.81514,-7.6772 4.19992,0 7.78486,3.25591 7.78486,7.6772 0,4.45729 -3.58494,7.72531 -7.78486,7.72531 -4.23626,0 -7.81514,-3.26802 -7.81514,-7.72531 m 7.79697,-0.53761 c 1.14115,0 2.16321,-0.0717 2.16321,-1.44595 0,-1.0991 -0.99817,-1.29658 -1.93612,-1.29658 h -1.82813 v 2.74253 h 1.60138 z m -1.60138,4.9949 h -1.34401 v -8.87824 h 3.36962 c 2.10299,0 3.14288,0.77041 3.14288,2.52722 0,1.58927 -0.99783,2.27624 -2.30047,2.44345 l 2.5215,3.90757 h -1.50583 l -2.34825,-3.85375 h -1.5351 v 3.85375 z"
     inkscape:label="R" />
  <path
     id="path1"
     style="display:inline;fill:#1f00cc;fill-opacity:1;stroke:none;stroke-opacity:1"
     inkscape:label="GameboyAdvancedOutline"
     d="m 83.664062,90.730266 c -14.21302,-0.334375 -27.627473,3.657943 -40.24414,11.974614 -19.01,12.54 -28.469297,31.8696 -26.529297,55.09961 1.77,21.37 18.279375,37.44945 38.609375,41.68945 3.44,0.72 8.312474,0.99675 14.619141,0.83008 13.886666,-0.37333 27.808385,-0.47721 41.761719,-0.31055 a 0.76,0.75 12 0 0 0.68945,-0.43945 l 8.53907,-18.96875 a 0.34,0.34 0 0 1 0.64062,0.0898 l 3.00977,18.83985 a 0.6,0.61 85.1 0 0 0.60937,0.50976 c 70.6,-0.22666 141.20388,-0.33984 211.81055,-0.33984 14.74,0 24.22976,-1.89102 34.25976,-11.79102 a 0.5,0.5 0 0 1 0.70117,0.01 c 13.85001,13.94 35.05985,17.72148 52.33985,7.77148 1.08667,-0.62666 2.19364,-1.2038 3.32031,-1.73047 0.36667,-0.17333 0.51589,-0.0601 0.44922,0.33985 l -0.81055,5.08984 a 0.5,0.5 0 0 0 0.49024,0.57989 h 43.5 a 0.8,0.81 4.7 0 0 0.79101,-0.67969 l 1,-6.58008 a 0.81,0.81 0 0 1 0.60938,-0.66992 c 2.27333,-0.57333 4.1838,-1.7307 5.73047,-3.4707 a 1.05,1.03 20.1 0 1 0.78906,-0.35938 c 38.96667,0.0267 77.93372,0.0205 116.90039,-0.0195 16.59,-0.01 32.5307,-1.51117 44.9707,-13.95117 a 0.46,0.45 51.1 0 1 0.70899,0.0801 l 8.41992,13.43945 a 0.99,0.98 73.8 0 0 0.83008,0.46094 h 129.05078 a 0.48,0.48 0 0 0 0.48047,-0.48047 l 0.11914,-15.98047 c 0.007,-1.32666 0.53341,-1.57976 1.58008,-0.75976 l 21.64062,16.97065 a 1.24,1.22 63.2 0 0 0.73828,0.25 H 965.75 a 0.5,0.5 0 0 0 0.5,-0.5 v -82.71094 a 0.51,0.51 0 0 0 -0.50977,-0.50977 c -50.82666,-0.0467 -101.6538,-0.0498 -152.48046,-0.01 -4.92,0.01 -13.90899,0.47079 -20.95899,0.0508 a 0.52,0.52 0 0 0 -0.55078,0.51957 l 0.0391,16.63086 a 0.42,0.42 0 0 1 -0.67968,0.33984 l -21.51958,-16.9707 a 2.69,2.76 64.8 0 0 -1.69922,-0.58984 h -91.23046 a 1.08,1.1 14.2 0 0 -0.96094,0.58008 l -10.75,20.43945 a 0.46,0.46 0 0 1 -0.79883,0.01 l -11.66016,-20.19925 a 1.66,1.68 75.2 0 0 -1.45117,-0.83008 H 513.06055 a 0.27,0.28 16 0 1 -0.23047,-0.41992 l 6.76953,-10.769536 a 0.36,0.36 0 0 0 -0.29883,-0.550781 c -35.34667,-0.02 -70.59667,-0.0169 -105.75,0.0098 -16.42,0.01 -23.77062,3.69125 -36.39062,13.031247 a 0.55,0.56 49.9 0 1 -0.74024,-0.0606 c -7.67,-8.039997 -14.18969,-13.019528 -25.92969,-13.019528 -62.54,0.02 -125.10278,0.0293 -187.68945,0.0293 a 0.73,0.72 8.8 0 0 -0.6914,0.5 l -5.33985,16.599608 a 0.43,0.42 49.6 0 1 -0.82031,-0.0703 l -2.67969,-16.55863 a 0.55,0.56 85.8 0 0 -0.54883,-0.470703 h -40.24023 a 0.73,0.73 0 0 0 -0.67969,0.470703 l -0.95117,2.46875 a 0.58,0.58 0 0 1 -0.74023,0.339844 c -9.1025,-3.315 -17.917505,-5.072813 -26.445318,-5.273438 z M 81.896484,104.5037 c 6.5169,-0.0356 13.114844,1.05477 19.433596,3.40039 a 0.6,0.6 0 0 1 0.38086,0.6504 l -2.271487,14.5996 a 0.47,0.46 13.2 0 1 -0.609375,0.3711 c -15.93,-5.26 -36.349531,-1.95125 -46.769531,12.21875 -7.33,9.96 -7.810625,27.25 5.359375,33 4.59,2 11.139765,0.86016 16.259766,0.41016 a 0.61,0.6 1.2 0 0 0.541015,-0.50977 l 0.978516,-6.35937 a 0.87,0.88 3.6 0 0 -0.878907,-1.00977 l -10.759765,0.12891 a 0.6,0.6 0 0 1 -0.599609,-0.68946 l 2.009765,-13.65039 a 0.7,0.69 4.3 0 1 0.689453,-0.58984 H 94.5 a 0.57,0.57 0 0 1 0.560547,0.66015 l -4.03125,25.94923 a 0.27136843,0.27136843 0 0 0 0.521484,0.15039 l 29.179689,-66.04884 a 0.93,0.92 11.6 0 1 0.84961,-0.55078 l 18.73047,0.0703 a 0.69,0.69 0 0 1 0.67968,0.58008 l 10.25,61.44923 a 0.34,0.34 0 0 0 0.66016,0.0508 l 20.18945,-61.75977 a 0.68,0.67 8.9 0 1 0.64063,-0.46094 l 14.88867,0.0996 a 0.84,0.83 85.4 0 1 0.81055,0.6914 l 7.4707,40.85938 a 0.4,0.39 51.7 0 0 0.75,0.0898 l 17.60938,-41.25 a 0.72,0.72 0 0 1 0.67968,-0.43945 l 18.59961,0.11914 a 0.56,0.57 89.5 0 1 0.56055,0.54101 l 3.21094,77.2793 a 0.64,0.64 0 0 1 -0.64063,0.66992 h -14.81054 a 0.66,0.66 0 0 1 -0.66016,-0.64062 l -2.03906,-46.58008 c -0.0133,-0.34667 -0.12342,-0.37651 -0.33008,-0.0898 -0.40667,0.56666 -0.87992,1.47713 -1.41992,2.73047 -6.36667,14.78 -12.7473,29.55365 -19.14063,44.32031 a 0.62,0.61 11.8 0 1 -0.55859,0.35938 l -10.16016,-0.13867 a 0.53,0.54 84.5 0 1 -0.51172,-0.42188 l -8.56836,-41.71877 c -0.22666,-1.09333 -0.51156,-1.11078 -0.85156,-0.0508 l -13.33008,41.79102 a 0.68,0.67 8.9 0 1 -0.63867,0.45898 l -26.51953,-0.01 a 0.7,0.7 0 0 1 -0.69141,-0.58008 l -3.92968,-22.20899 a 0.56,0.55 85 0 0 -0.53907,-0.46093 l -17.49023,-0.0195 a 0.92,0.9 12 0 0 -0.83008,0.5293 l -10.2207,22.20117 a 0.97,0.99 13.1 0 1 -0.90039,0.56836 l -15.638675,-0.0586 a 0.42,0.42 0 0 1 -0.380859,-0.59961 l 1.689453,-3.58008 c 0.233333,-0.48667 0.104661,-0.62039 -0.388672,-0.40039 -1.833333,0.82667 -3.663568,1.61581 -5.490235,2.36914 -20.39,8.39 -48.429687,-1.19047 -51.429687,-25.23047 -3.965,-31.8175 22.765962,-53.10542 51.005859,-53.25977 z m 411.552736,1.96094 a 0.37,0.37 0 0 1 0.31055,0.57031 c -9.31334,14.62 -18.54279,29.25683 -27.68946,43.91016 -0.86,1.37333 -1.39604,2.85898 -1.60937,4.45899 -1.31334,9.79333 -2.75055,19.54953 -4.31055,29.26953 a 0.63,0.62 4.3 0 1 -0.62109,0.53125 l -15.2793,0.0801 a 0.48,0.48 0 0 1 -0.48047,-0.56057 l 5.87109,-36.11914 a 1.76,1.77 36.6 0 0 -0.15039,-1.05079 l -18.75976,-40.5996 a 0.34,0.33 77.5 0 1 0.29883,-0.48047 h 17.64062 a 0.64,0.63 79.1 0 1 0.58985,0.41015 l 9.60937,24.64063 c 0.18667,0.48 0.41807,0.49859 0.69141,0.0586 l 15.33984,-24.61914 a 1,1.02 16.5 0 1 0.84961,-0.4707 z m -241.95899,0.01 h 44.17969 a 0.31,0.31 0 0 1 0.30078,0.35937 l -2.54101,16.38086 a 0.31,0.31 0 0 1 -0.31055,0.25977 h -27.87891 a 0.31,0.31 0 0 0 -0.31054,0.26953 l -1.91992,13.4414 a 0.31,0.31 0 0 0 0.31054,0.34961 h 24.09961 a 0.31,0.31 0 0 1 0.31055,0.35938 L 285.25,154.21464 a 0.31,0.31 0 0 1 -0.31055,0.25977 h -24.08984 a 0.31,0.31 0 0 0 -0.29883,0.25977 l -2.29101,13.38085 a 0.31,0.31 0 0 0 0.31054,0.35938 h 27.69922 a 0.31,0.31 0 0 1 0.31055,0.35938 l -2.7207,16.13085 a 0.31,0.31 0 0 1 -0.29883,0.25977 h -44.5 a 0.31,0.31 0 0 1 -0.30078,-0.35938 l 12.42968,-78.13086 a 0.31,0.31 0 0 1 0.30078,-0.25976 z m 69.51954,0.7207 c 9.39333,0.0333 18.41078,0.0395 27.05078,0.0195 7.67,-0.02 12.35914,1.96984 17.36914,7.33984 8.95,9.6 5.29078,21.61907 -3.19922,29.78907 a 0.87,0.86 45.2 0 0 0,1.25 c 14.51,14.03 5.34945,32.97094 -11.31055,38.46094 -2.42,0.79333 -5.72969,1.18945 -9.92969,1.18945 -10.74,-0.007 -21.46325,-0.0253 -32.16992,-0.0586 a 0.43,0.43 0 0 1 -0.42969,-0.5 c 4,-25.36 8.02985,-50.70149 12.08985,-76.02149 0.0467,-0.30667 0.0529,-0.59891 0.0195,-0.87891 a 0.52,0.52 0 0 1 0.50977,-0.58984 z m 94.14257,0.14844 a 33.4,40.43 13.2 0 1 23.28516,46.98828 33.4,40.43 13.2 0 1 -41.75,31.73438 33.4,40.43 13.2 0 1 -23.28516,-46.98829 33.4,40.43 13.2 0 1 41.75,-31.73437 z m 118.29297,10.8457 c 2.06,-0.0267 4.1819,0.0356 6.36524,0.18555 1.64,0.11 1.69039,0.75015 2.40039,1.91015 8.7,14.31334 17.36976,28.67032 26.00976,43.07032 a 0.29,0.28 29.9 0 0 0.5293,-0.14063 V 119.0037 a 0.49,0.49 0 0 1 0.49023,-0.49023 c 12.77334,-0.0733 25.52334,-0.0826 38.25,-0.0293 8.23334,0.0333 15.60891,2.38721 22.12891,7.06054 a 0.2,0.2 0 0 0 0.29102,-0.26953 l -3.81055,-6.14062 c -0.27333,-0.44 -0.14891,-0.66015 0.37109,-0.66015 h 17.01953 a 0.9,0.9 0 0 1 0.7793,0.44922 l 20.32031,35.02148 a 0.4,0.4 0 0 0 0.69922,-0.01 c 6.2,-11.26667 12.44071,-22.5876 18.72071,-33.96094 1.12,-2.02 1.78976,-1.51023 3.75976,-1.49023 4.55333,0.0467 8.94016,0.004 13.16016,-0.12891 0.64,-0.02 0.80047,0.2486 0.48047,0.8086 l -31.2793,54.05078 a 0.95,0.95 0 0 1 -0.80078,0.4707 l -9.5,0.0586 a 1.08,1.09 74.3 0 1 -0.94922,-0.5293 L 638.4707,139.45488 c -0.64,-1.05334 -0.91364,-0.96691 -0.82031,0.25976 0.0667,0.88 0.1655,2.11255 0.29883,3.69922 2.08,23.72 -16.71922,30.34133 -36.19922,30.36133 -14.95333,0.0133 -29.90914,-0.0216 -44.86914,-0.10156 a 0.91,0.89 75 0 1 -0.78125,-0.45899 l -22.43945,-39.67969 a 0.37,0.37 0 0 0 -0.65039,0 l -15.16993,27.25977 a 0.46,0.46 0 0 0 0.40039,0.67969 H 533 a 0.5,0.5 0 0 1 0.5,0.5 v 11.11914 a 0.63,0.63 0 0 1 -0.63086,0.63086 H 494.7793 a 0.33,0.33 0 0 1 -0.28907,-0.5 l 32.18946,-54.18946 a 1.04,1.03 11.8 0 1 0.76953,-0.5 c 1.93667,-0.20333 3.93609,-0.31903 5.99609,-0.3457 z m 229.73438,0.0156 a 1.69,1.72 64.4 0 1 1.05078,0.35938 l 41.05859,32.18945 A 0.44,0.44 0 0 0 806,150.40409 v -31.3496 a 0.61,0.61 0 0 1 0.59961,-0.60938 l 13.36133,-0.0508 a 0.54,0.53 89.5 0 1 0.53906,0.54101 v 54.00977 a 0.54,0.55 87.1 0 1 -0.49023,0.53907 c -2.93,0.31 -9.62961,1.07937 -12.34961,-1.14063 -12.92,-10.52667 -26.01769,-21.07821 -39.29102,-31.65821 -0.42667,-0.34666 -0.63867,-0.24474 -0.63867,0.3086 l 0.0703,31.96094 a 0.77,0.77 0 0 1 -0.77147,0.76953 h -25.86914 a 0.87,0.86 75 0 1 -0.75,-0.43945 l -22.54102,-39.94141 c -0.17333,-0.3 -0.3431,-0.3 -0.50976,0 l -15.01954,27.23047 a 0.44,0.44 0 0 0 0.38086,0.65039 h 14.50977 a 0.49,0.49 0 0 1 0.49023,0.49023 l 0.0899,11.07032 a 0.61,0.6 85.6 0 1 -0.50977,0.59961 c -4.11,0.61 -8.66008,-0.0109 -12.08008,0.11914 -8.68,0.33333 -17.36101,0.34148 -26.04101,0.0215 a 0.29,0.29 0 0 1 -0.24024,-0.4414 l 32.09961,-54.25001 a 1.21,1.2 15.2 0 1 1.04102,-0.58984 l 12.57031,0.0195 a 1.2,1.19 74.3 0 1 1.01953,0.58008 l 26.94922,44.5 a 0.26,0.26 0 0 0 0.48047,-0.13867 l -0.15039,-44.22071 a 0.72,0.72 0 0 1 0.7207,-0.7207 z m 130.64062,0.01 57.85938,0.0293 a 0.57,0.57 0 0 1 0.57031,0.57031 v 11.59961 a 0.57,0.57 0 0 1 -0.57031,0.57032 l -41.81055,-0.0195 a 0.57,0.57 0 0 0 -0.56836,0.56054 l -0.0703,6.61914 a 0.57,0.57 0 0 0 0.5703,0.58004 h 24.12891 a 0.57,0.57 0 0 1 0.57031,0.57031 v 11.10937 a 0.57,0.57 0 0 1 -0.57031,0.57032 h -24.06055 a 0.57,0.57 0 0 0 -0.56836,0.57031 l -0.0703,8.60938 a 0.57,0.57 0 0 0 0.57031,0.57031 h 42.61914 a 0.57,0.57 0 0 1 0.57031,0.56055 l 0.11915,11.60937 a 0.57,0.57 0 0 1 -0.57033,0.58008 H 893.82031 A 0.57,0.57 0 0 1 893.25,172.9041 v -54.11915 a 0.57,0.57 0 0 1 0.57031,-0.57031 z m -22.07031,0.0703 c 15.32,0.1 16.72055,5.86938 16.31055,19.85938 a 0.6,0.6 0 0 1 -0.59961,0.58008 h -15.04102 a 0.56,0.56 0 0 1 -0.56054,-0.57032 l 0.20117,-6.14062 a 0.77,0.77 0 0 0 -0.77149,-0.78906 H 841.75 a 0.5,0.5 0 0 0 -0.5,0.5 v 28 a 0.5,0.5 0 0 0 0.5,0.5 h 29.56055 a 0.57,0.57 0 0 0 0.57031,-0.56055 l 0.16992,-7.50977 a 0.51,0.51 0 0 1 0.51953,-0.5 l 14.79883,0.31055 A 0.65,0.65 0 0 1 888,152.57402 c 0.34,5.73333 0.10745,10.11396 -0.69922,13.14062 -2.17,8.12 -10.56078,8.00883 -17.55078,8.04883 -11.19333,0.06 -22.38055,-0.0985 -33.56055,-0.47851 -6.75,-0.23 -10.13906,-4.07039 -10.53906,-10.65039 -0.67333,-10.99334 -0.67333,-21.97279 0,-32.93946 0.39,-6.36 3.82016,-10.95016 10.41016,-11.16016 8.41333,-0.26 20.30945,-0.34333 35.68945,-0.25 z m -459.8418,4.11133 a 16.74,24.96 14 0 0 -22.28125,20.16797 16.74,24.96 14 0 0 10.20508,28.26954 16.74,24.96 14 0 0 22.28125,-20.16993 16.74,24.96 14 0 0 -10.20508,-28.26758 z m -69.58593,1.16406 c -2.6425,-0.0288 -5.36758,0.15836 -7.39258,0.19336 a 0.23,0.25 6.1 0 0 -0.23047,0.20118 l -2.39844,13.70898 a 0.43,0.43 0 0 0 0.39844,0.5 c 6.76,0.39 14.71172,0.89992 18.01172,-3.33008 2.57,-3.3 2.61976,-8.13992 -1.49024,-10.16992 -1.695,-0.83 -4.25593,-1.07476 -6.89843,-1.10352 z m 242.6582,7.42383 a 0.47,0.47 0 0 0 -0.4707,0.47071 l -0.0195,28.48047 a 0.58,0.58 0 0 0 0.53907,0.57812 c 6.63333,0.40667 13.2845,0.35823 19.95117,-0.14844 11.51,-0.86999 18.91914,-5.47148 16.61914,-18.52148 -1.38,-7.87 -7.97961,-10.84938 -15.34961,-10.85938 -7.16,-0.02 -14.24953,-0.02 -21.26953,0 z m -458.01563,1.21094 a 0.31,0.31 0 0 0 -0.31445,0.16992 l -6.26953,13.66992 a 0.31,0.31 0 0 0 0.2793,0.43946 h 8.92968 a 0.31,0.31 0 0 0 0.31055,-0.36914 l -2.66992,-13.66993 a 0.31,0.31 0 0 0 -0.26563,-0.24023 z M 336.07227,154.283 c -2.10766,0.0589 -4.12,0.18219 -5.8125,0.24219 a 0.72,0.72 0 0 0 -0.66016,0.50977 c -1.26,4.12 -1.71977,10.23937 -2.25977,14.60937 a 0.46,0.47 4.6 0 0 0.43946,0.51953 c 7.46,0.33334 13.1976,0.19032 17.21093,-0.42968 5,-0.78 8.9704,-5.82055 6.65039,-10.81055 -2.055,-4.4175 -9.24539,-4.81735 -15.56835,-4.64063 z m 135.87304,16.10157 c 4.19992,0 7.78516,3.25644 7.78516,7.67773 0,4.45729 -3.58524,7.72461 -7.78516,7.72461 -4.23626,0 -7.81445,-3.26732 -7.81445,-7.72461 0,-4.42129 3.57819,-7.67773 7.81445,-7.67773 z m 0,1.28515 c -3.519,0 -6.27344,2.74204 -6.27343,6.39258 0,3.71076 2.75409,6.43945 6.27343,6.43945 3.48906,0 6.23633,-2.72903 6.23633,-6.43945 0,-3.6502 -2.74727,-6.39258 -6.23633,-6.39258 z m -2.96289,1.97071 h 3.36914 c 2.10299,0 3.14258,0.77053 3.14258,2.52734 0,1.58927 -0.99814,2.27615 -2.30078,2.44336 l 2.52148,3.9082 h -1.50586 l -2.34765,-3.85351 h -1.53516 v 3.85351 h -1.34375 z m 1.34375,1.14062 v 2.74219 h 1.60156 c 1.14115,0 2.16211,-0.0711 2.16211,-1.44531 0,-1.0991 -0.99759,-1.29688 -1.93554,-1.29688 z" />
  <path
     id="path36"
     style="display:inline;fill:#ffffff"
     d="m 909.8,160.72441 h 42.62 a 0.57,0.57 0 0 1 0.57,0.56 l 0.12,11.61 a 0.57,0.57 0 0 1 -0.57,0.58 h -58.72 a 0.57,0.57 0 0 1 -0.57,-0.57 v -54.12 a 0.57,0.57 0 0 1 0.57,-0.57 l 57.86,0.03 a 0.57,0.57 0 0 1 0.57,0.57 v 11.6 a 0.57,0.57 0 0 1 -0.57,0.57 l -41.81,-0.02 a 0.57,0.57 0 0 0 -0.57,0.56 l -0.07,6.62 a 0.57,0.57 0 0 0 0.57,0.58 h 24.13 a 0.57,0.57 0 0 1 0.57,0.57 v 11.11 a 0.57,0.57 0 0 1 -0.57,0.57 h -24.06 a 0.57,0.57 0 0 0 -0.57,0.57 l -0.07,8.61 a 0.57,0.57 0 0 0 0.57,0.57 z m -68.05,-0.5 h 29.56 a 0.57,0.57 0 0 0 0.57,-0.56 l 0.17,-7.51 a 0.51,0.51 0 0 1 0.52,-0.5 l 14.8,0.31 a 0.65,0.65 0 0 1 0.63,0.61 q 0.51,8.6 -0.7,13.14 c -2.17,8.12 -10.56,8.01 -17.55,8.05 q -16.79,0.09 -33.56,-0.48 c -6.75,-0.23 -10.14,-4.07 -10.54,-10.65 q -1.01,-16.49 0,-32.94 c 0.39,-6.36 3.82,-10.95 10.41,-11.16 q 12.62,-0.39 35.69,-0.25 c 15.32,0.1 16.72,5.87 16.31,19.86 a 0.6,0.6 0 0 1 -0.6,0.58 h -15.04 a 0.56,0.56 0 0 1 -0.56,-0.57 l 0.2,-6.14 a 0.77,0.77 0 0 0 -0.77,-0.79 h -29.54 a 0.5,0.5 0 0 0 -0.5,0.5 v 28 a 0.5,0.5 0 0 0 0.5,0.5 z m -139.03,1 h 14.51 a 0.49,0.49 0 0 1 0.49,0.49 l 0.09,11.07 a 0.61,0.6 85.6 0 1 -0.51,0.6 c -4.11,0.61 -8.66,-0.01 -12.08,0.12 q -13.02,0.5 -26.04,0.02 a 0.29,0.29 0 0 1 -0.24,-0.44 l 32.1,-54.25 a 1.21,1.2 15.2 0 1 1.04,-0.59 l 12.57,0.02 a 1.2,1.19 74.3 0 1 1.02,0.58 l 26.95,44.5 a 0.26,0.26 0 0 0 0.48,-0.14 l -0.15,-44.22 a 0.72,0.72 0 0 1 0.72,-0.72 l 9.51,-0.06 a 1.69,1.72 64.4 0 1 1.05,0.36 l 41.06,32.19 a 0.44,0.44 0 0 0 0.71,-0.35 v -31.35 a 0.61,0.61 0 0 1 0.6,-0.61 l 13.36,-0.05 a 0.54,0.53 89.5 0 1 0.54,0.54 v 54.01 a 0.54,0.55 87.1 0 1 -0.49,0.54 c -2.93,0.31 -9.63,1.08 -12.35,-1.14 q -19.38,-15.79 -39.29,-31.66 -0.64,-0.52 -0.64,0.31 l 0.07,31.96 a 0.77,0.77 0 0 1 -0.77,0.77 h -25.87 a 0.87,0.86 75 0 1 -0.75,-0.44 l -22.54,-39.94 q -0.26,-0.45 -0.51,0 l -15.02,27.23 a 0.44,0.44 0 0 0 0.38,0.65 z m -65.07,-21.51 q 0.1,1.32 0.3,3.7 c 2.08,23.72 -16.72,30.34 -36.2,30.36 q -22.43,0.02 -44.87,-0.1 a 0.91,0.89 75 0 1 -0.78,-0.46 l -22.44,-39.68 a 0.37,0.37 0 0 0 -0.65,0 l -15.17,27.26 a 0.46,0.46 0 0 0 0.4,0.68 H 533 a 0.5,0.5 0 0 1 0.5,0.5 v 11.12 a 0.63,0.63 0 0 1 -0.63,0.63 h -38.09 a 0.33,0.33 0 0 1 -0.29,-0.5 l 32.19,-54.19 a 1.04,1.03 11.8 0 1 0.77,-0.5 q 5.81,-0.61 12.36,-0.16 c 1.64,0.11 1.69,0.75 2.4,1.91 q 13.05,21.47 26.01,43.07 a 0.29,0.28 29.9 0 0 0.53,-0.14 v -44.21 a 0.49,0.49 0 0 1 0.49,-0.49 q 19.16,-0.11 38.25,-0.03 12.35,0.05 22.13,7.06 a 0.2,0.2 0 0 0 0.29,-0.27 l -3.81,-6.14 q -0.41,-0.66 0.37,-0.66 h 17.02 a 0.9,0.9 0 0 1 0.78,0.45 l 20.32,35.02 a 0.4,0.4 0 0 0 0.7,-0.01 q 9.3,-16.9 18.72,-33.96 c 1.12,-2.02 1.79,-1.51 3.76,-1.49 q 6.83,0.07 13.16,-0.13 0.96,-0.03 0.48,0.81 l -31.28,54.05 a 0.95,0.95 0 0 1 -0.8,0.47 l -9.5,0.06 a 1.08,1.09 74.3 0 1 -0.95,-0.53 l -20.41,-33.76 q -0.96,-1.58 -0.82,0.26 z m -53.14,-8.26 -0.02,28.48 a 0.58,0.58 0 0 0 0.54,0.58 q 9.95,0.61 19.95,-0.15 c 11.51,-0.87 18.92,-5.47 16.62,-18.52 -1.38,-7.87 -7.98,-10.85 -15.35,-10.86 q -10.74,-0.03 -21.27,0 a 0.47,0.47 0 0 0 -0.47,0.47 z m -264.03,-22.79 q 0.07,-0.46 0.02,-0.88 a 0.52,0.52 0 0 1 0.51,-0.59 q 14.09,0.05 27.05,0.02 c 7.67,-0.02 12.36,1.97 17.37,7.34 8.95,9.6 5.29,21.62 -3.2,29.79 a 0.87,0.86 45.2 0 0 0,1.25 c 14.51,14.03 5.35,32.97 -11.31,38.46 q -3.63,1.19 -9.93,1.19 -16.11,-0.01 -32.17,-0.06 a 0.43,0.43 0 0 1 -0.43,-0.5 q 6,-38.04 12.09,-76.02 z m 14.22,15.29 -2.4,13.71 a 0.43,0.43 0 0 0 0.4,0.5 c 6.76,0.39 14.71,0.9 18.01,-3.33 2.57,-3.3 2.62,-8.14 -1.49,-10.17 -3.39,-1.66 -10.24,-0.98 -14.29,-0.91 a 0.23,0.25 6.1 0 0 -0.23,0.2 z m -5.1,31.08 c -1.26,4.12 -1.72,10.24 -2.26,14.61 a 0.46,0.47 4.6 0 0 0.44,0.52 q 11.19,0.5 17.21,-0.43 c 5,-0.78 8.97,-5.82 6.65,-10.81 -2.74,-5.89 -14.61,-4.64 -21.38,-4.4 a 0.72,0.72 0 0 0 -0.66,0.51 z m 119.89,-7.48 -18.76,-40.6 a 0.34,0.33 77.5 0 1 0.3,-0.48 h 17.64 a 0.64,0.63 79.1 0 1 0.59,0.41 l 9.61,24.64 q 0.28,0.72 0.69,0.06 l 15.34,-24.62 a 1,1.02 16.5 0 1 0.85,-0.47 l 17.7,-0.03 a 0.37,0.37 0 0 1 0.31,0.57 q -13.97,21.93 -27.69,43.91 -1.29,2.06 -1.61,4.46 -1.97,14.69 -4.31,29.27 a 0.63,0.62 4.3 0 1 -0.62,0.53 l -15.28,0.08 a 0.48,0.48 0 0 1 -0.48,-0.56 l 5.87,-36.12 a 1.76,1.77 36.6 0 0 -0.15,-1.05 z m -52.8022,38.5118 a 33.4,40.43 13.2 0 1 -23.2853,-46.9887 33.4,40.43 13.2 0 1 41.7497,-31.7349 33.4,40.43 13.2 0 1 23.2853,46.9887 33.4,40.43 13.2 0 1 -41.7497,31.7349 z m 3.1438,-15.2332 a 16.74,24.96 14 0 0 22.2812,-20.1688 16.74,24.96 14 0 0 -10.2044,-28.2684 16.74,24.96 14 0 0 -22.2812,20.1688 16.74,24.96 14 0 0 10.2044,28.2684 z M 258.57,168.47441 h 27.7 a 0.31,0.31 0 0 1 0.31,0.36 l -2.72,16.13 a 0.31,0.31 0 0 1 -0.3,0.26 h -44.5 a 0.31,0.31 0 0 1 -0.3,-0.36 l 12.43,-78.13 a 0.31,0.31 0 0 1 0.3,-0.26 h 44.18 a 0.31,0.31 0 0 1 0.3,0.36 l -2.54,16.38 a 0.31,0.31 0 0 1 -0.31,0.26 h -27.88 a 0.31,0.31 0 0 0 -0.31,0.27 l -1.92,13.44 a 0.31,0.31 0 0 0 0.31,0.35 h 24.1 a 0.31,0.31 0 0 1 0.31,0.36 l -2.48,16.32 a 0.31,0.31 0 0 1 -0.31,0.26 h -24.09 a 0.31,0.31 0 0 0 -0.3,0.26 l -2.29,13.38 a 0.31,0.31 0 0 0 0.31,0.36 z m -80.1,-25.43 q -0.34,-1.64 -0.85,-0.05 l -13.33,41.79 a 0.68,0.67 8.9 0 1 -0.64,0.46 l -26.52,-0.01 a 0.7,0.7 0 0 1 -0.69,-0.58 l -3.93,-22.21 a 0.56,0.55 85 0 0 -0.54,-0.46 l -17.49,-0.02 a 0.92,0.9 12 0 0 -0.83,0.53 l -10.22,22.2 a 0.97,0.99 13.1 0 1 -0.9,0.57 l -15.64,-0.06 a 0.42,0.42 0 0 1 -0.38,-0.6 l 1.69,-3.58 q 0.35,-0.73 -0.39,-0.4 -2.75,1.24 -5.49,2.37 c -20.39,8.39 -48.43,-1.19 -51.43,-25.23 -4.88,-39.16 36.74,-62.370003 70.44,-49.86 a 0.6,0.6 0 0 1 0.38,0.65 l -2.27,14.6 a 0.47,0.46 13.2 0 1 -0.61,0.37 c -15.93,-5.26 -36.35,-1.95 -46.77,12.22 -7.33,9.96 -7.81,27.25 5.36,33 4.59,2 11.14,0.86 16.26,0.41 a 0.61,0.6 1.2 0 0 0.54,-0.51 l 0.98,-6.36 a 0.87,0.88 3.6 0 0 -0.88,-1.01 l -10.76,0.13 a 0.6,0.6 0 0 1 -0.6,-0.69 l 2.01,-13.65 a 0.7,0.69 4.3 0 1 0.69,-0.59 H 94.5 a 0.57,0.57 0 0 1 0.56,0.66 l -4.03,25.95 a 0.27060118,0.27060118 0 0 0 0.52,0.15 l 29.18,-66.05 a 0.93,0.92 11.6 0 1 0.85,-0.55 l 18.73,0.07 a 0.69,0.69 0 0 1 0.68,0.58 l 10.25,61.45 a 0.34,0.34 0 0 0 0.66,0.05 l 20.19,-61.76 a 0.68,0.67 8.9 0 1 0.64,-0.46 l 14.89,0.1 a 0.84,0.83 85.4 0 1 0.81,0.69 l 7.47,40.86 a 0.4,0.39 51.7 0 0 0.75,0.09 l 17.61,-41.25 a 0.72,0.72 0 0 1 0.68,-0.44 l 18.6,0.12 a 0.56,0.57 89.5 0 1 0.56,0.54 l 3.21,77.28 a 0.64,0.64 0 0 1 -0.64,0.67 h -14.81 a 0.66,0.66 0 0 1 -0.66,-0.64 l -2.04,-46.58 q -0.02,-0.52 -0.33,-0.09 -0.61,0.85 -1.42,2.73 -9.55,22.17 -19.14,44.32 a 0.62,0.61 11.8 0 1 -0.56,0.36 l -10.16,-0.14 a 0.53,0.54 84.5 0 1 -0.51,-0.42 z m -51.24,-10.61 a 0.31,0.31 0 0 0 -0.58,-0.07 l -6.27,13.67 a 0.31,0.31 0 0 0 0.28,0.44 h 8.93 a 0.31,0.31 0 0 0 0.31,-0.37 z"
     inkscape:label="GameboyAdvanced" />
</svg>
