<?xml version="1.0" encoding="UTF-8" standalone="no"?>
<!-- Created by ERK -->

<svg
   version="1.1"
   viewBox="0 0 983 292"
   id="svg51"
   sodipodi:docname="gba_top.svg"
   inkscape:version="1.4 (86a8ad7, 2024-10-11)"
   xmlns:inkscape="http://www.inkscape.org/namespaces/inkscape"
   xmlns:sodipodi="http://sodipodi.sourceforge.net/DTD/sodipodi-0.dtd"
   xmlns:xlink="http://www.w3.org/1999/xlink"
   xmlns="http://www.w3.org/2000/svg"
   xmlns:svg="http://www.w3.org/2000/svg">
  <defs
     id="defs51">
    <rect
       x="12.374368"
       y="23.688076"
       width="975.45376"
       height="239.35563"
       id="rect21" />
    <linearGradient
       inkscape:collect="always"
       xlink:href="#linearGradient18"
       id="linearGradient2"
       gradientUnits="userSpaceOnUse"
       x1="283.50052"
       y1="49.798119"
       x2="283.50052"
       y2="131.80899" />
    <linearGradient
       id="linearGradient18"
       inkscape:collect="always">
      <stop
         style="stop-color:#ffe793;stop-opacity:1;"
         offset="0"
         id="stop18" />
      <stop
         style="stop-color:#ff941b;stop-opacity:1;"
         offset="1"
         id="stop19" />
    </linearGradient>
    <filter
       style="color-interpolation-filters:sRGB"
       inkscape:label="Drop Shadow"
       id="filter128-4-37"
       x="-0.25372537"
       y="-0.26650401"
       width="1.5074508"
       height="1.5330095">
      <feFlood
         result="flood"
         in="SourceGraphic"
         flood-opacity="0.498039"
         flood-color="rgb(0,0,0)"
         id="feFlood127-5-2" />
      <feGaussianBlur
         result="blur"
         in="SourceGraphic"
         stdDeviation="1.000000"
         id="feGaussianBlur127-5-6" />
      <feOffset
         result="offset"
         in="blur"
         dx="0.000000"
         dy="0.000000"
         id="feOffset127-1-0" />
      <feComposite
         result="comp1"
         operator="in"
         in="flood"
         in2="offset"
         id="feComposite127-7-1" />
      <feComposite
         result="fbSourceGraphic"
         operator="over"
         in="SourceGraphic"
         in2="comp1"
         id="feComposite128-1-6" />
      <feColorMatrix
         result="fbSourceGraphicAlpha"
         in="fbSourceGraphic"
         values="0 0 0 -1 0 0 0 0 -1 0 0 0 0 -1 0 0 0 0 1 0"
         id="feColorMatrix128-1-5" />
      <feFlood
         id="feFlood128-5-7"
         result="flood"
         in="fbSourceGraphic"
         flood-opacity="0.498039"
         flood-color="rgb(0,0,0)" />
      <feGaussianBlur
         id="feGaussianBlur128-2-5"
         result="blur"
         in="fbSourceGraphic"
         stdDeviation="1.000000" />
      <feOffset
         id="feOffset128-7-4"
         result="offset"
         in="blur"
         dx="0.000000"
         dy="0.000000" />
      <feComposite
         id="feComposite129-6-12"
         result="comp1"
         operator="in"
         in="flood"
         in2="offset" />
      <feComposite
         id="feComposite130-1-0"
         result="fbSourceGraphic"
         operator="over"
         in="fbSourceGraphic"
         in2="comp1" />
      <feColorMatrix
         result="fbSourceGraphicAlpha"
         in="fbSourceGraphic"
         values="0 0 0 -1 0 0 0 0 -1 0 0 0 0 -1 0 0 0 0 1 0"
         id="feColorMatrix136-4-0" />
      <feFlood
         id="feFlood136-2-1"
         result="flood"
         in="fbSourceGraphic"
         flood-opacity="0.498039"
         flood-color="rgb(0,0,0)" />
      <feGaussianBlur
         id="feGaussianBlur136-3-4"
         result="blur"
         in="fbSourceGraphic"
         stdDeviation="5.000000" />
      <feOffset
         id="feOffset136-2-6"
         result="offset"
         in="blur"
         dx="0.000000"
         dy="0.000000" />
      <feComposite
         id="feComposite136-2-0"
         result="comp1"
         operator="in"
         in="flood"
         in2="offset" />
      <feComposite
         id="feComposite137-1-7"
         result="fbSourceGraphic"
         operator="over"
         in="fbSourceGraphic"
         in2="comp1" />
      <feColorMatrix
         result="fbSourceGraphicAlpha"
         in="fbSourceGraphic"
         values="0 0 0 -1 0 0 0 0 -1 0 0 0 0 -1 0 0 0 0 1 0"
         id="feColorMatrix137-6-1" />
      <feFlood
         id="feFlood137-8-7"
         result="flood"
         in="fbSourceGraphic"
         flood-opacity="0.498039"
         flood-color="rgb(0,0,0)" />
      <feGaussianBlur
         id="feGaussianBlur137-5-7"
         result="blur"
         in="fbSourceGraphic"
         stdDeviation="0.100000" />
      <feOffset
         id="feOffset137-7-7"
         result="offset"
         in="blur"
         dx="0.000000"
         dy="0.000000" />
      <feComposite
         id="feComposite138-6-7"
         result="comp1"
         operator="in"
         in="flood"
         in2="offset" />
      <feComposite
         id="feComposite139-1-3"
         result="comp2"
         operator="over"
         in="fbSourceGraphic"
         in2="comp1" />
    </filter>
  </defs>
  <sodipodi:namedview
     id="namedview51"
     pagecolor="#ffffff"
     bordercolor="#000000"
     borderopacity="0.25"
     inkscape:showpageshadow="2"
     inkscape:pageopacity="0.0"
     inkscape:pagecheckerboard="true"
     inkscape:deskcolor="#d1d1d1"
     inkscape:zoom="2"
     inkscape:cx="502"
     inkscape:cy="141"
     inkscape:window-width="3818"
     inkscape:window-height="1003"
     inkscape:window-x="0"
     inkscape:window-y="1041"
     inkscape:window-maximized="0"
     inkscape:current-layer="svg51" />
  <g
     id="g77"
     transform="translate(0,53.976)"
     inkscape:label="GBA_Centered"
     style="display:inline">
    <path
       id="path75"
       style="display:inline;fill:#ffffff;fill-opacity:1;fill-rule:nonzero;stroke:none;stroke-width:0.336424"
       d="m 471.94514,130.52804 c 3.48906,0 6.23731,-2.73042 6.23731,-6.44084 0,-3.6502 -2.74825,-6.39274 -6.23731,-6.39274 -3.519,0 -6.27364,2.7422 -6.27364,6.39274 0,3.71076 2.7543,6.44084 6.27364,6.44084 M 464.13,124.0872 c 0,-4.42129 3.57888,-7.6772 7.81514,-7.6772 4.19992,0 7.78486,3.25591 7.78486,7.6772 0,4.45729 -3.58494,7.72531 -7.78486,7.72531 -4.23626,0 -7.81514,-3.26802 -7.81514,-7.72531 m 7.79697,-0.53761 c 1.14115,0 2.16321,-0.0717 2.16321,-1.44595 0,-1.0991 -0.99817,-1.29658 -1.93612,-1.29658 h -1.82813 v 2.74253 h 1.60138 z m -1.60138,4.9949 h -1.34401 v -8.87824 h 3.36962 c 2.10299,0 3.14288,0.77041 3.14288,2.52722 0,1.58927 -0.99783,2.27624 -2.30047,2.44345 l 2.5215,3.90757 h -1.50583 l -2.34825,-3.85375 h -1.5351 v 3.85375 z"
       inkscape:label="R" />
    <path
       id="path76"
       style="display:inline;fill:#1f00cc;fill-opacity:1;stroke:none;stroke-opacity:1"
       inkscape:label="GameboyAdvancedOutline"
       d="m 83.664062,36.755859 c -14.21302,-0.334375 -27.627473,3.657943 -40.24414,11.97461 -19.01,12.54 -28.469297,31.869609 -26.529297,55.099611 1.77,21.37 18.279375,37.44945 38.609375,41.68945 3.44,0.72 8.312474,0.99675 14.619141,0.83008 13.886666,-0.37333 27.808385,-0.47721 41.761719,-0.31055 a 0.76,0.75 12 0 0 0.68945,-0.43945 l 8.53907,-18.96875 a 0.34,0.34 0 0 1 0.64062,0.0898 l 3.00977,18.83985 a 0.6,0.61 85.1 0 0 0.60937,0.50976 c 70.6,-0.22666 141.20388,-0.33984 211.81055,-0.33984 14.74,0 24.22976,-1.89102 34.25976,-11.79102 a 0.5,0.5 0 0 1 0.70117,0.01 c 13.85001,13.94 35.05985,17.72148 52.33985,7.77148 1.08667,-0.62666 2.19364,-1.2038 3.32031,-1.73047 0.36667,-0.17333 0.51589,-0.0601 0.44922,0.33985 l -0.81055,5.08984 A 0.5,0.5 0 0 0 427.92969,146 h 43.5 a 0.8,0.81 4.7 0 0 0.79101,-0.67969 l 1,-6.58008 a 0.81,0.81 0 0 1 0.60938,-0.66992 c 2.27333,-0.57333 4.1838,-1.7307 5.73047,-3.4707 a 1.05,1.03 20.1 0 1 0.78906,-0.35938 c 38.96667,0.0267 77.93372,0.0205 116.90039,-0.0195 16.59,-0.01 32.5307,-1.51117 44.9707,-13.95117 a 0.46,0.45 51.1 0 1 0.70899,0.0801 l 8.41992,13.43945 a 0.99,0.98 73.8 0 0 0.83008,0.46094 h 129.05078 a 0.48,0.48 0 0 0 0.48047,-0.48047 l 0.11914,-15.98047 c 0.007,-1.32666 0.53341,-1.57976 1.58008,-0.75976 L 805.05078,134 a 1.24,1.22 63.2 0 0 0.73828,0.25 H 965.75 a 0.5,0.5 0 0 0 0.5,-0.5 V 51.039062 a 0.51,0.51 0 0 0 -0.50977,-0.509765 c -50.82666,-0.04667 -101.6538,-0.04977 -152.48046,-0.0098 -4.92,0.01 -13.90899,0.470781 -20.95899,0.05078 A 0.52,0.52 0 0 0 791.75,51.089844 l 0.0391,16.630859 a 0.42,0.42 0 0 1 -0.67968,0.339844 L 769.58984,51.089844 A 2.69,2.76 64.8 0 0 767.89062,50.5 h -91.23046 a 1.08,1.1 14.2 0 0 -0.96094,0.580078 l -10.75,20.439453 a 0.46,0.46 0 0 1 -0.79883,0.0098 L 652.49023,51.330078 A 1.66,1.68 75.2 0 0 651.03906,50.5 H 513.06055 a 0.27,0.28 16 0 1 -0.23047,-0.419922 l 6.76953,-10.769531 a 0.36,0.36 0 0 0 -0.29883,-0.550781 c -35.34667,-0.02 -70.59667,-0.0169 -105.75,0.0098 -16.42,0.01 -23.77062,3.69125 -36.39062,13.03125 a 0.55,0.56 49.9 0 1 -0.74024,-0.06055 c -7.67,-8.04 -14.18969,-13.019531 -25.92969,-13.019531 -62.54,0.02 -125.10278,0.0293 -187.68945,0.0293 a 0.73,0.72 8.8 0 0 -0.6914,0.5 l -5.33985,16.599609 a 0.43,0.42 49.6 0 1 -0.82031,-0.07031 L 153.26953,39.220703 A 0.55,0.56 85.8 0 0 152.7207,38.75 h -40.24023 a 0.73,0.73 0 0 0 -0.67969,0.470703 l -0.95117,2.46875 a 0.58,0.58 0 0 1 -0.74023,0.339844 c -9.1025,-3.315 -17.917505,-5.072813 -26.445318,-5.273438 z m -1.767578,13.773438 c 6.5169,-0.03562 13.114844,1.054766 19.433596,3.400391 a 0.6,0.6 0 0 1 0.38086,0.65039 l -2.271487,14.59961 a 0.47,0.46 13.2 0 1 -0.609375,0.371093 c -15.93,-5.26 -36.349531,-1.95125 -46.769531,12.21875 -7.33,9.96 -7.810625,27.249999 5.359375,32.999999 4.59,2 11.139765,0.86016 16.259766,0.41016 a 0.61,0.6 1.2 0 0 0.541015,-0.50977 l 0.978516,-6.35937 a 0.87,0.88 3.6 0 0 -0.878907,-1.00977 l -10.759765,0.12891 a 0.6,0.6 0 0 1 -0.599609,-0.68946 L 64.970703,93.089844 A 0.7,0.69 4.3 0 1 65.660156,92.5 H 94.5 a 0.57,0.57 0 0 1 0.560547,0.660156 l -4.03125,25.949224 a 0.27136843,0.27136843 0 0 0 0.521484,0.15039 L 120.73047,53.210938 a 0.93,0.92 11.6 0 1 0.84961,-0.550782 l 18.73047,0.07031 a 0.69,0.69 0 0 1 0.67968,0.580078 l 10.25,61.449226 a 0.34,0.34 0 0 0 0.66016,0.0508 l 20.18945,-61.759772 a 0.68,0.67 8.9 0 1 0.64063,-0.460937 l 14.88867,0.09961 a 0.84,0.83 85.4 0 1 0.81055,0.691406 l 7.4707,40.859375 a 0.4,0.39 51.7 0 0 0.75,0.08984 l 17.60938,-41.25 a 0.72,0.72 0 0 1 0.67968,-0.439453 l 18.59961,0.119141 a 0.56,0.57 89.5 0 1 0.56055,0.541015 l 3.21094,77.279295 a 0.64,0.64 0 0 1 -0.64063,0.66992 h -14.81054 a 0.66,0.66 0 0 1 -0.66016,-0.64062 l -2.03906,-46.580079 c -0.0133,-0.346667 -0.12342,-0.376511 -0.33008,-0.08984 -0.40667,0.566667 -0.87992,1.477136 -1.41992,2.730469 -6.36667,14.78 -12.7473,29.55365 -19.14063,44.32031 a 0.62,0.61 11.8 0 1 -0.55859,0.35938 l -10.16016,-0.13867 a 0.53,0.54 84.5 0 1 -0.51172,-0.42188 L 178.4707,89.070312 c -0.22666,-1.093333 -0.51156,-1.110781 -0.85156,-0.05078 l -13.33008,41.791018 a 0.68,0.67 8.9 0 1 -0.63867,0.45898 l -26.51953,-0.01 a 0.7,0.7 0 0 1 -0.69141,-0.58008 l -3.92968,-22.20899 a 0.56,0.55 85 0 0 -0.53907,-0.46093 l -17.49023,-0.0195 a 0.92,0.9 12 0 0 -0.83008,0.5293 l -10.2207,22.20117 a 0.97,0.99 13.1 0 1 -0.90039,0.56836 l -15.638675,-0.0586 a 0.42,0.42 0 0 1 -0.380859,-0.59961 l 1.689453,-3.58008 c 0.233333,-0.48667 0.104661,-0.62039 -0.388672,-0.40039 -1.833333,0.82667 -3.663568,1.61581 -5.490235,2.36914 -20.39,8.39 -48.429687,-1.19047 -51.429687,-25.23047 -3.965,-31.817497 22.765962,-53.105419 51.005859,-53.259762 z m 411.552736,1.960937 a 0.37,0.37 0 0 1 0.31055,0.570313 c -9.31334,14.62 -18.54279,29.256823 -27.68946,43.910156 -0.86,1.373333 -1.39604,2.858984 -1.60937,4.458987 -1.31334,9.79333 -2.75055,19.54953 -4.31055,29.26953 a 0.63,0.62 4.3 0 1 -0.62109,0.53125 l -15.2793,0.0801 A 0.48,0.48 0 0 1 443.76953,130.75 l 5.87109,-36.119141 a 1.76,1.77 36.6 0 0 -0.15039,-1.050781 L 430.73047,52.980469 A 0.34,0.33 77.5 0 1 431.0293,52.5 h 17.64062 a 0.64,0.63 79.1 0 1 0.58985,0.410156 l 9.60937,24.640625 c 0.18667,0.48 0.41807,0.498594 0.69141,0.05859 L 474.90039,52.990234 A 1,1.02 16.5 0 1 475.75,52.519531 Z M 251.49023,52.5 h 44.17969 a 0.31,0.31 0 0 1 0.30078,0.359375 l -2.54101,16.380859 A 0.31,0.31 0 0 1 293.11914,69.5 h -27.87891 a 0.31,0.31 0 0 0 -0.31054,0.269531 l -1.91992,13.441407 a 0.31,0.31 0 0 0 0.31054,0.349609 h 24.09961 a 0.31,0.31 0 0 1 0.31055,0.359375 L 285.25,100.24023 A 0.31,0.31 0 0 1 284.93945,100.5 h -24.08984 a 0.31,0.31 0 0 0 -0.29883,0.25977 l -2.29101,13.38085 a 0.31,0.31 0 0 0 0.31054,0.35938 h 27.69922 a 0.31,0.31 0 0 1 0.31055,0.35938 l -2.7207,16.13085 a 0.31,0.31 0 0 1 -0.29883,0.25977 h -44.5 a 0.31,0.31 0 0 1 -0.30078,-0.35938 L 251.18945,52.759766 A 0.31,0.31 0 0 1 251.49023,52.5 Z m 69.51954,0.720703 c 9.39333,0.03333 18.41078,0.03953 27.05078,0.01953 7.67,-0.02 12.35914,1.969844 17.36914,7.339844 8.95,9.6 5.29078,21.619063 -3.19922,29.789063 a 0.87,0.86 45.2 0 0 0,1.25 c 14.51,14.03 5.34945,32.97094 -11.31055,38.46094 -2.42,0.79333 -5.72969,1.18945 -9.92969,1.18945 -10.74,-0.007 -21.46325,-0.0253 -32.16992,-0.0586 a 0.43,0.43 0 0 1 -0.42969,-0.5 c 4,-25.36 8.02985,-50.701488 12.08985,-76.021488 0.0467,-0.306667 0.0529,-0.598906 0.0195,-0.878906 a 0.52,0.52 0 0 1 0.50977,-0.589844 z m 94.14257,0.148438 a 33.4,40.43 13.2 0 1 23.28516,46.988279 33.4,40.43 13.2 0 1 -41.75,31.73438 33.4,40.43 13.2 0 1 -23.28516,-46.988284 33.4,40.43 13.2 0 1 41.75,-31.734375 z m 118.29297,10.845703 c 2.06,-0.02667 4.1819,0.03555 6.36524,0.185547 1.64,0.11 1.69039,0.750156 2.40039,1.910156 8.7,14.313333 17.36976,28.670312 26.00976,43.070313 a 0.29,0.28 29.9 0 0 0.5293,-0.14063 V 65.029297 a 0.49,0.49 0 0 1 0.49023,-0.490235 c 12.77334,-0.07333 25.52334,-0.08263 38.25,-0.0293 8.23334,0.03333 15.60891,2.387213 22.12891,7.060546 a 0.2,0.2 0 0 0 0.29102,-0.269531 l -3.81055,-6.140625 C 625.82628,64.720156 625.9507,64.5 626.4707,64.5 h 17.01953 a 0.9,0.9 0 0 1 0.7793,0.449219 l 20.32031,35.021484 a 0.4,0.4 0 0 0 0.69922,-0.0098 c 6.2,-11.266667 12.44071,-22.587605 18.72071,-33.960938 1.12,-2.02 1.78976,-1.510234 3.75976,-1.490234 4.55333,0.04667 8.94016,0.0044 13.16016,-0.128907 0.64,-0.02 0.80047,0.248594 0.48047,0.808594 l -31.2793,54.050782 a 0.95,0.95 0 0 1 -0.80078,0.4707 l -9.5,0.0586 a 1.08,1.09 74.3 0 1 -0.94922,-0.5293 L 638.4707,85.480469 c -0.64,-1.053334 -0.91364,-0.966901 -0.82031,0.259765 0.0667,0.88 0.1655,2.112552 0.29883,3.699219 2.08,23.719997 -16.71922,30.341327 -36.19922,30.361327 -14.95333,0.0133 -29.90914,-0.0216 -44.86914,-0.10156 a 0.91,0.89 75 0 1 -0.78125,-0.45899 L 533.66016,79.560547 a 0.37,0.37 0 0 0 -0.65039,0 L 517.83984,106.82031 A 0.46,0.46 0 0 0 518.24023,107.5 H 533 a 0.5,0.5 0 0 1 0.5,0.5 v 11.11914 A 0.63,0.63 0 0 1 532.86914,119.75 H 494.7793 a 0.33,0.33 0 0 1 -0.28907,-0.5 l 32.18946,-54.189453 a 1.04,1.03 11.8 0 1 0.76953,-0.5 c 1.93667,-0.203333 3.93609,-0.319037 5.99609,-0.345703 z m 229.73438,0.01563 a 1.69,1.72 64.4 0 1 1.05078,0.359375 l 41.05859,32.189453 A 0.44,0.44 0 0 0 806,96.429688 v -31.34961 a 0.61,0.61 0 0 1 0.59961,-0.609375 l 13.36133,-0.05078 A 0.54,0.53 89.5 0 1 820.5,64.960938 V 118.9707 a 0.54,0.55 87.1 0 1 -0.49023,0.53907 c -2.93,0.31 -9.62961,1.07937 -12.34961,-1.14063 -12.92,-10.52667 -26.01769,-21.078202 -39.29102,-31.658202 -0.42667,-0.346667 -0.63867,-0.24474 -0.63867,0.308593 l 0.0703,31.960939 A 0.77,0.77 0 0 1 767.0293,119.75 h -25.86914 a 0.87,0.86 75 0 1 -0.75,-0.43945 L 717.86914,79.369141 c -0.17333,-0.3 -0.3431,-0.3 -0.50976,0 l -15.01954,27.230469 a 0.44,0.44 0 0 0 0.38086,0.65039 h 14.50977 a 0.49,0.49 0 0 1 0.49023,0.49023 l 0.0899,11.07032 a 0.61,0.6 85.6 0 1 -0.50977,0.59961 c -4.11,0.61 -8.66008,-0.0109 -12.08008,0.11914 -8.68,0.33333 -17.36101,0.34148 -26.04101,0.0215 a 0.29,0.29 0 0 1 -0.24024,-0.4414 l 32.09961,-54.250005 a 1.21,1.2 15.2 0 1 1.04102,-0.589844 l 12.57031,0.01953 a 1.2,1.19 74.3 0 1 1.01953,0.580079 l 26.94922,44.5 a 0.26,0.26 0 0 0 0.48047,-0.13867 l -0.15039,-44.220705 a 0.72,0.72 0 0 1 0.7207,-0.720704 z m 130.64062,0.0098 57.85938,0.0293 a 0.57,0.57 0 0 1 0.57031,0.570313 v 11.599609 a 0.57,0.57 0 0 1 -0.57031,0.570313 l -41.81055,-0.01953 a 0.57,0.57 0 0 0 -0.56836,0.560547 l -0.0703,6.619141 a 0.57,0.57 0 0 0 0.5703,0.580033 h 24.12891 A 0.57,0.57 0 0 1 934.5,85.320312 V 96.429688 A 0.57,0.57 0 0 1 933.92969,97 h -24.06055 a 0.57,0.57 0 0 0 -0.56836,0.570312 l -0.0703,8.609378 a 0.57,0.57 0 0 0 0.57031,0.57031 h 42.61914 a 0.57,0.57 0 0 1 0.57031,0.56055 l 0.11915,11.60937 A 0.57,0.57 0 0 1 952.53906,119.5 H 893.82031 A 0.57,0.57 0 0 1 893.25,118.92969 V 64.810547 a 0.57,0.57 0 0 1 0.57031,-0.570313 z M 871.75,64.310547 c 15.32,0.1 16.72055,5.869375 16.31055,19.859375 A 0.6,0.6 0 0 1 887.46094,84.75 h -15.04102 a 0.56,0.56 0 0 1 -0.56054,-0.570312 l 0.20117,-6.140626 A 0.77,0.77 0 0 0 871.28906,77.25 H 841.75 a 0.5,0.5 0 0 0 -0.5,0.5 v 28 a 0.5,0.5 0 0 0 0.5,0.5 h 29.56055 a 0.57,0.57 0 0 0 0.57031,-0.56055 l 0.16992,-7.509762 a 0.51,0.51 0 0 1 0.51953,-0.5 l 14.79883,0.310546 A 0.65,0.65 0 0 1 888,98.599609 c 0.34,5.733331 0.10745,10.113961 -0.69922,13.140621 -2.17,8.12 -10.56078,8.00883 -17.55078,8.04883 -11.19333,0.06 -22.38055,-0.0985 -33.56055,-0.47851 -6.75,-0.23 -10.13906,-4.07039 -10.53906,-10.65039 -0.67333,-10.993337 -0.67333,-21.97279 0,-32.939457 0.39,-6.36 3.82016,-10.950156 10.41016,-11.160156 8.41333,-0.26 20.30945,-0.343333 35.68945,-0.25 z M 411.9082,68.421875 A 16.74,24.96 14 0 0 389.62695,88.589844 16.74,24.96 14 0 0 399.83203,116.85938 16.74,24.96 14 0 0 422.11328,96.689453 16.74,24.96 14 0 0 411.9082,68.421875 Z m -69.58593,1.164063 c -2.6425,-0.02875 -5.36758,0.158359 -7.39258,0.193359 a 0.23,0.25 6.1 0 0 -0.23047,0.201172 l -2.39844,13.708984 a 0.43,0.43 0 0 0 0.39844,0.5 c 6.76,0.39 14.71172,0.899922 18.01172,-3.330078 2.57,-3.3 2.61976,-8.139922 -1.49024,-10.169922 -1.695,-0.83 -4.25593,-1.074765 -6.89843,-1.103515 z m 242.6582,7.423828 a 0.47,0.47 0 0 0 -0.4707,0.470703 l -0.0195,28.480471 a 0.58,0.58 0 0 0 0.53907,0.57812 c 6.63333,0.40667 13.2845,0.35823 19.95117,-0.14844 11.51,-0.86999 18.91914,-5.47148 16.61914,-18.521479 -1.38,-7.87 -7.97961,-10.849375 -15.34961,-10.859375 -7.16,-0.02 -14.24953,-0.02 -21.26953,0 z m -458.01563,1.210937 a 0.31,0.31 0 0 0 -0.31445,0.169922 l -6.26953,13.669922 A 0.31,0.31 0 0 0 120.66016,92.5 h 8.92968 a 0.31,0.31 0 0 0 0.31055,-0.369141 l -2.66992,-13.669921 a 0.31,0.31 0 0 0 -0.26563,-0.240235 z m 209.10743,22.087887 c -2.10766,0.0589 -4.12,0.18219 -5.8125,0.24219 a 0.72,0.72 0 0 0 -0.66016,0.50977 c -1.26,4.12 -1.71977,10.23937 -2.25977,14.60937 a 0.46,0.47 4.6 0 0 0.43946,0.51953 c 7.46,0.33334 13.1976,0.19032 17.21093,-0.42968 5,-0.78 8.9704,-5.82055 6.65039,-10.81055 -2.055,-4.4175 -9.24539,-4.81735 -15.56835,-4.64063 z m 135.87304,16.10157 c 4.19992,0 7.78516,3.25644 7.78516,7.67773 0,4.45729 -3.58524,7.72461 -7.78516,7.72461 -4.23626,0 -7.81445,-3.26732 -7.81445,-7.72461 0,-4.42129 3.57819,-7.67773 7.81445,-7.67773 z m 0,1.28515 c -3.519,0 -6.27344,2.74204 -6.27343,6.39258 0,3.71076 2.75409,6.43945 6.27343,6.43945 3.48906,0 6.23633,-2.72903 6.23633,-6.43945 0,-3.6502 -2.74727,-6.39258 -6.23633,-6.39258 z m -2.96289,1.97071 h 3.36914 c 2.10299,0 3.14258,0.77053 3.14258,2.52734 0,1.58927 -0.99814,2.27615 -2.30078,2.44336 l 2.52148,3.9082 h -1.50586 l -2.34765,-3.85351 h -1.53516 v 3.85351 h -1.34375 z m 1.34375,1.14062 v 2.74219 h 1.60156 c 1.14115,0 2.16211,-0.0711 2.16211,-1.44531 0,-1.0991 -0.99759,-1.29688 -1.93554,-1.29688 z" />
    <path
       id="path77"
       style="display:inline;fill:#ffffff"
       d="m 909.8,106.75 h 42.62 a 0.57,0.57 0 0 1 0.57,0.56 l 0.12,11.61 a 0.57,0.57 0 0 1 -0.57,0.58 h -58.72 a 0.57,0.57 0 0 1 -0.57,-0.57 V 64.81 a 0.57,0.57 0 0 1 0.57,-0.57 l 57.86,0.03 a 0.57,0.57 0 0 1 0.57,0.57 v 11.6 a 0.57,0.57 0 0 1 -0.57,0.57 l -41.81,-0.02 a 0.57,0.57 0 0 0 -0.57,0.56 l -0.07,6.62 a 0.57,0.57 0 0 0 0.57,0.58 h 24.13 a 0.57,0.57 0 0 1 0.57,0.57 V 96.43 A 0.57,0.57 0 0 1 933.93,97 h -24.06 a 0.57,0.57 0 0 0 -0.57,0.57 l -0.07,8.61 a 0.57,0.57 0 0 0 0.57,0.57 z m -68.05,-0.5 h 29.56 a 0.57,0.57 0 0 0 0.57,-0.56 l 0.17,-7.51 a 0.51,0.51 0 0 1 0.52,-0.5 l 14.8,0.31 A 0.65,0.65 0 0 1 888,98.6 q 0.51,8.6 -0.7,13.14 c -2.17,8.12 -10.56,8.01 -17.55,8.05 q -16.79,0.09 -33.56,-0.48 c -6.75,-0.23 -10.14,-4.07 -10.54,-10.65 q -1.01,-16.49 0,-32.94 c 0.39,-6.36 3.82,-10.95 10.41,-11.16 q 12.62,-0.39 35.69,-0.25 c 15.32,0.1 16.72,5.87 16.31,19.86 a 0.6,0.6 0 0 1 -0.6,0.58 h -15.04 a 0.56,0.56 0 0 1 -0.56,-0.57 l 0.2,-6.14 a 0.77,0.77 0 0 0 -0.77,-0.79 h -29.54 a 0.5,0.5 0 0 0 -0.5,0.5 v 28 a 0.5,0.5 0 0 0 0.5,0.5 z m -139.03,1 h 14.51 a 0.49,0.49 0 0 1 0.49,0.49 l 0.09,11.07 a 0.61,0.6 85.6 0 1 -0.51,0.6 c -4.11,0.61 -8.66,-0.01 -12.08,0.12 q -13.02,0.5 -26.04,0.02 a 0.29,0.29 0 0 1 -0.24,-0.44 l 32.1,-54.25 a 1.21,1.2 15.2 0 1 1.04,-0.59 l 12.57,0.02 a 1.2,1.19 74.3 0 1 1.02,0.58 l 26.95,44.5 a 0.26,0.26 0 0 0 0.48,-0.14 l -0.15,-44.22 a 0.72,0.72 0 0 1 0.72,-0.72 l 9.51,-0.06 a 1.69,1.72 64.4 0 1 1.05,0.36 l 41.06,32.19 A 0.44,0.44 0 0 0 806,96.43 V 65.08 a 0.61,0.61 0 0 1 0.6,-0.61 l 13.36,-0.05 a 0.54,0.53 89.5 0 1 0.54,0.54 v 54.01 a 0.54,0.55 87.1 0 1 -0.49,0.54 c -2.93,0.31 -9.63,1.08 -12.35,-1.14 q -19.38,-15.79 -39.29,-31.66 -0.64,-0.52 -0.64,0.31 l 0.07,31.96 a 0.77,0.77 0 0 1 -0.77,0.77 h -25.87 a 0.87,0.86 75 0 1 -0.75,-0.44 L 717.87,79.37 q -0.26,-0.45 -0.51,0 l -15.02,27.23 a 0.44,0.44 0 0 0 0.38,0.65 z M 637.65,85.74 q 0.1,1.32 0.3,3.7 c 2.08,23.72 -16.72,30.34 -36.2,30.36 q -22.43,0.02 -44.87,-0.1 a 0.91,0.89 75 0 1 -0.78,-0.46 L 533.66,79.56 a 0.37,0.37 0 0 0 -0.65,0 l -15.17,27.26 a 0.46,0.46 0 0 0 0.4,0.68 H 533 a 0.5,0.5 0 0 1 0.5,0.5 v 11.12 a 0.63,0.63 0 0 1 -0.63,0.63 h -38.09 a 0.33,0.33 0 0 1 -0.29,-0.5 l 32.19,-54.19 a 1.04,1.03 11.8 0 1 0.77,-0.5 q 5.81,-0.61 12.36,-0.16 c 1.64,0.11 1.69,0.75 2.4,1.91 q 13.05,21.47 26.01,43.07 a 0.29,0.28 29.9 0 0 0.53,-0.14 V 65.03 a 0.49,0.49 0 0 1 0.49,-0.49 q 19.16,-0.11 38.25,-0.03 12.35,0.05 22.13,7.06 a 0.2,0.2 0 0 0 0.29,-0.27 l -3.81,-6.14 q -0.41,-0.66 0.37,-0.66 h 17.02 a 0.9,0.9 0 0 1 0.78,0.45 l 20.32,35.02 a 0.4,0.4 0 0 0 0.7,-0.01 q 9.3,-16.9 18.72,-33.96 c 1.12,-2.02 1.79,-1.51 3.76,-1.49 q 6.83,0.07 13.16,-0.13 0.96,-0.03 0.48,0.81 l -31.28,54.05 a 0.95,0.95 0 0 1 -0.8,0.47 l -9.5,0.06 a 1.08,1.09 74.3 0 1 -0.95,-0.53 L 638.47,85.48 q -0.96,-1.58 -0.82,0.26 z m -53.14,-8.26 -0.02,28.48 a 0.58,0.58 0 0 0 0.54,0.58 q 9.95,0.61 19.95,-0.15 C 616.49,105.52 623.9,100.92 621.6,87.87 620.22,80 613.62,77.02 606.25,77.01 q -10.74,-0.03 -21.27,0 a 0.47,0.47 0 0 0 -0.47,0.47 z M 320.48,54.69 q 0.07,-0.46 0.02,-0.88 a 0.52,0.52 0 0 1 0.51,-0.59 q 14.09,0.05 27.05,0.02 c 7.67,-0.02 12.36,1.97 17.37,7.34 8.95,9.6 5.29,21.62 -3.2,29.79 a 0.87,0.86 45.2 0 0 0,1.25 c 14.51,14.03 5.35,32.97 -11.31,38.46 q -3.63,1.19 -9.93,1.19 -16.11,-0.01 -32.17,-0.06 a 0.43,0.43 0 0 1 -0.43,-0.5 q 6,-38.04 12.09,-76.02 z m 14.22,15.29 -2.4,13.71 a 0.43,0.43 0 0 0 0.4,0.5 c 6.76,0.39 14.71,0.9 18.01,-3.33 2.57,-3.3 2.62,-8.14 -1.49,-10.17 -3.39,-1.66 -10.24,-0.98 -14.29,-0.91 a 0.23,0.25 6.1 0 0 -0.23,0.2 z m -5.1,31.08 c -1.26,4.12 -1.72,10.24 -2.26,14.61 a 0.46,0.47 4.6 0 0 0.44,0.52 q 11.19,0.5 17.21,-0.43 c 5,-0.78 8.97,-5.82 6.65,-10.81 -2.74,-5.89 -14.61,-4.64 -21.38,-4.4 a 0.72,0.72 0 0 0 -0.66,0.51 z m 119.89,-7.48 -18.76,-40.6 a 0.34,0.33 77.5 0 1 0.3,-0.48 h 17.64 a 0.64,0.63 79.1 0 1 0.59,0.41 l 9.61,24.64 q 0.28,0.72 0.69,0.06 L 474.9,52.99 a 1,1.02 16.5 0 1 0.85,-0.47 l 17.7,-0.03 a 0.37,0.37 0 0 1 0.31,0.57 q -13.97,21.93 -27.69,43.91 -1.29,2.06 -1.61,4.46 -1.97,14.69 -4.31,29.27 a 0.63,0.62 4.3 0 1 -0.62,0.53 l -15.28,0.08 a 0.48,0.48 0 0 1 -0.48,-0.56 l 5.87,-36.12 a 1.76,1.77 36.6 0 0 -0.15,-1.05 z m -52.8022,38.5118 a 33.4,40.43 13.2 0 1 -23.2853,-46.9887 33.4,40.43 13.2 0 1 41.7497,-31.7349 33.4,40.43 13.2 0 1 23.2853,46.9887 33.4,40.43 13.2 0 1 -41.7497,31.7349 z m 3.1438,-15.2332 a 16.74,24.96 14 0 0 22.2812,-20.1688 16.74,24.96 14 0 0 -10.2044,-28.2684 16.74,24.96 14 0 0 -22.2812,20.1688 16.74,24.96 14 0 0 10.2044,28.2684 z M 258.57,114.5 h 27.7 a 0.31,0.31 0 0 1 0.31,0.36 l -2.72,16.13 a 0.31,0.31 0 0 1 -0.3,0.26 h -44.5 a 0.31,0.31 0 0 1 -0.3,-0.36 l 12.43,-78.13 a 0.31,0.31 0 0 1 0.3,-0.26 h 44.18 a 0.31,0.31 0 0 1 0.3,0.36 l -2.54,16.38 a 0.31,0.31 0 0 1 -0.31,0.26 h -27.88 a 0.31,0.31 0 0 0 -0.31,0.27 l -1.92,13.44 a 0.31,0.31 0 0 0 0.31,0.35 h 24.1 a 0.31,0.31 0 0 1 0.31,0.36 l -2.48,16.32 a 0.31,0.31 0 0 1 -0.31,0.26 h -24.09 a 0.31,0.31 0 0 0 -0.3,0.26 l -2.29,13.38 a 0.31,0.31 0 0 0 0.31,0.36 z m -80.1,-25.43 q -0.34,-1.64 -0.85,-0.05 l -13.33,41.79 a 0.68,0.67 8.9 0 1 -0.64,0.46 l -26.52,-0.01 a 0.7,0.7 0 0 1 -0.69,-0.58 l -3.93,-22.21 a 0.56,0.55 85 0 0 -0.54,-0.46 l -17.49,-0.02 a 0.92,0.9 12 0 0 -0.83,0.53 l -10.22,22.2 a 0.97,0.99 13.1 0 1 -0.9,0.57 l -15.64,-0.06 a 0.42,0.42 0 0 1 -0.38,-0.6 l 1.69,-3.58 q 0.35,-0.73 -0.39,-0.4 -2.75,1.24 -5.49,2.37 C 61.93,137.41 33.89,127.83 30.89,103.79 26.01,64.63 67.63,41.42 101.33,53.93 a 0.6,0.6 0 0 1 0.38,0.65 l -2.27,14.6 a 0.47,0.46 13.2 0 1 -0.61,0.37 C 82.9,64.29 62.48,67.6 52.06,81.77 c -7.33,9.96 -7.81,27.25 5.36,33 4.59,2 11.14,0.86 16.26,0.41 a 0.61,0.6 1.2 0 0 0.54,-0.51 l 0.98,-6.36 a 0.87,0.88 3.6 0 0 -0.88,-1.01 l -10.76,0.13 a 0.6,0.6 0 0 1 -0.6,-0.69 L 64.97,93.09 A 0.7,0.69 4.3 0 1 65.66,92.5 H 94.5 a 0.57,0.57 0 0 1 0.56,0.66 l -4.03,25.95 a 0.27060118,0.27060118 0 0 0 0.52,0.15 l 29.18,-66.05 a 0.93,0.92 11.6 0 1 0.85,-0.55 l 18.73,0.07 a 0.69,0.69 0 0 1 0.68,0.58 l 10.25,61.45 a 0.34,0.34 0 0 0 0.66,0.05 l 20.19,-61.76 a 0.68,0.67 8.9 0 1 0.64,-0.46 l 14.89,0.1 a 0.84,0.83 85.4 0 1 0.81,0.69 l 7.47,40.86 a 0.4,0.39 51.7 0 0 0.75,0.09 l 17.61,-41.25 a 0.72,0.72 0 0 1 0.68,-0.44 l 18.6,0.12 a 0.56,0.57 89.5 0 1 0.56,0.54 l 3.21,77.28 a 0.64,0.64 0 0 1 -0.64,0.67 h -14.81 a 0.66,0.66 0 0 1 -0.66,-0.64 l -2.04,-46.58 q -0.02,-0.52 -0.33,-0.09 -0.61,0.85 -1.42,2.73 -9.55,22.17 -19.14,44.32 a 0.62,0.61 11.8 0 1 -0.56,0.36 l -10.16,-0.14 a 0.53,0.54 84.5 0 1 -0.51,-0.42 z M 127.23,78.46 a 0.31,0.31 0 0 0 -0.58,-0.07 l -6.27,13.67 a 0.31,0.31 0 0 0 0.28,0.44 h 8.93 a 0.31,0.31 0 0 0 0.31,-0.37 z"
       inkscape:label="GameboyAdvanced" />
  </g>
  <path
     sodipodi:type="star"
     style="display:inline;fill:url(#linearGradient2);fill-opacity:1;stroke:url(#linearGradient2);stroke-width:5;stroke-linecap:round;stroke-linejoin:round;stroke-dasharray:none;paint-order:fill markers stroke;filter:url(#filter128-4-37)"
     id="path16-8-1"
     inkscape:flatsided="false"
     sodipodi:sides="5"
     sodipodi:cx="283.4603"
     sodipodi:cy="94.631462"
     sodipodi:r1="40.487427"
     sodipodi:r2="20.304785"
     sodipodi:arg1="-1.5675826"
     sodipodi:arg2="-0.89316927"
     inkscape:rounded="0"
     inkscape:randomized="0"
     d="m 283.59041,54.144244 12.59989,24.668519 25.81584,3.431208 -19.56758,19.606199 4.71426,25.61262 -24.69332,-12.55122 -22.90226,12.39826 4.30627,-27.363282 -18.86864,-17.950071 27.35474,-4.360217 z"
     inkscape:transform-center-x="0.060100219"
     inkscape:transform-center-y="-4.6726945"
     transform="matrix(1.0703398,0,0,1.0703398,182.06026,116.67378)"
     inkscape:label="Star" />
</svg>
