<?xml version="1.0" encoding="UTF-8" standalone="no"?>
<!DOCTYPE svg PUBLIC "-//W3C//DTD SVG 1.1//EN" "http://www.w3.org/Graphics/SVG/1.1/DTD/svg11.dtd">
<svg xmlns="http://www.w3.org/2000/svg" version="1.1" viewBox="0 0 983 292">
<g stroke-width="2.00" fill="none" stroke-linecap="butt">
<path stroke="#8f80e6" vector-effect="non-scaling-stroke" d="
  M 428.25 140.33
  L 427.44 145.42
  A 0.50 0.50 0.0 0 0 427.93 146.00
  L 471.43 146.00
  A 0.81 0.80 -85.3 0 0 472.22 145.32
  L 473.22 138.74
  A 0.81 0.81 0.0 0 1 473.83 138.07
  Q 477.24 137.21 479.56 134.60
  A 1.05 1.03 20.1 0 1 480.35 134.24
  Q 538.80 134.28 597.25 134.22
  C 613.84 134.21 629.78 132.71 642.22 120.27
  A 0.46 0.45 51.1 0 1 642.93 120.35
  L 651.35 133.79
  A 0.99 0.98 73.8 0 0 652.18 134.25
  L 781.23 134.25
  A 0.48 0.48 0.0 0 0 781.71 133.77
  L 781.83 117.79
  Q 781.84 115.80 783.41 117.03
  L 805.05 134.00
  A 1.24 1.22 63.2 0 0 805.79 134.25
  L 965.75 134.25
  A 0.50 0.50 0.0 0 0 966.25 133.75
  L 966.25 51.04
  A 0.51 0.51 0.0 0 0 965.74 50.53
  Q 889.50 50.46 813.26 50.52
  C 808.34 50.53 799.35 50.99 792.30 50.57
  A 0.52 0.52 0.0 0 0 791.75 51.09
  L 791.79 67.72
  A 0.42 0.42 0.0 0 1 791.11 68.06
  L 769.59 51.09
  A 2.76 2.69 -25.2 0 0 767.89 50.50
  L 676.66 50.50
  A 1.10 1.08 -75.8 0 0 675.70 51.08
  L 664.95 71.52
  A 0.46 0.46 0.0 0 1 664.15 71.53
  L 652.49 51.33
  A 1.68 1.66 -14.8 0 0 651.04 50.50
  L 513.06 50.50
  A 0.28 0.27 -74.0 0 1 512.83 50.08
  L 519.60 39.31
  A 0.36 0.36 0.0 0 0 519.30 38.76
  Q 466.28 38.73 413.55 38.77
  C 397.13 38.78 389.78 42.46 377.16 51.80
  A 0.56 0.55 -40.1 0 1 376.42 51.74
  C 368.75 43.70 362.23 38.72 350.49 38.72
  Q 256.68 38.75 162.80 38.75
  A 0.73 0.72 8.8 0 0 162.11 39.25
  L 156.77 55.85
  A 0.43 0.42 49.6 0 1 155.95 55.78
  L 153.27 39.22
  A 0.56 0.55 -4.2 0 0 152.72 38.75
  L 112.48 38.75
  A 0.73 0.73 0.0 0 0 111.80 39.22
  L 110.85 41.69
  A 0.58 0.58 0.0 0 1 110.11 42.03
  Q 73.70 28.77 43.42 48.73
  C 24.41 61.27 14.95 80.60 16.89 103.83
  C 18.66 125.20 35.17 141.28 55.50 145.52
  Q 60.66 146.60 70.12 146.35
  Q 90.95 145.79 111.88 146.04
  A 0.76 0.75 12.0 0 0 112.57 145.60
  L 121.11 126.63
  A 0.34 0.34 0.0 0 1 121.75 126.72
  L 124.76 145.56
  A 0.61 0.60 -4.9 0 0 125.37 146.07
  Q 231.27 145.73 337.18 145.73
  C 351.92 145.73 361.41 143.84 371.44 133.94
  A 0.50 0.50 0.0 0 1 372.14 133.95
  C 385.99 147.89 407.20 151.67 424.48 141.72
  Q 426.11 140.78 427.80 139.99
  Q 428.35 139.73 428.25 140.33"
/>
<path stroke="#8f80e6" vector-effect="non-scaling-stroke" d="
  M 776.05 173.41
  C 773.12 165.16 771.41 156.99 763.91 151.78
  C 757.11 147.05 728.81 147.28 722.18 152.48
  Q 716.48 156.94 714.49 164.33
  A 0.37 0.37 0.0 0 1 713.77 164.29
  Q 712.62 155.97 705.68 151.61
  C 698.77 147.28 673.28 147.29 666.58 152.14
  Q 664.14 153.91 662.28 156.37
  A 0.37 0.37 0.0 0 1 661.69 156.37
  C 654.15 146.56 640.39 148.69 629.66 148.79
  C 615.82 148.91 609.29 158.03 609.27 171.03
  Q 609.22 206.18 609.27 241.34
  C 609.28 248.50 612.39 255.63 618.60 259.53
  C 624.98 263.53 650.69 263.58 656.83 259.12
  Q 658.23 258.10 659.62 257.07
  Q 660.04 256.77 660.32 256.34
  L 661.53 254.55
  A 0.49 0.49 0.0 0 1 662.33 254.55
  C 669.34 264.63 684.31 262.09 695.28 261.91
  C 706.17 261.73 717.03 263.34 727.39 261.31
  C 734.50 259.92 738.83 256.08 741.33 249.54
  A 0.86 0.85 10.4 0 1 742.13 248.99
  L 744.28 249.00
  A 0.85 0.84 78.4 0 1 745.06 249.52
  C 747.92 256.22 752.95 260.34 760.22 261.56
  C 769.00 263.04 781.68 263.04 790.25 260.46
  C 792.51 259.78 794.25 258.18 795.96 256.64
  A 0.72 0.71 -52.4 0 1 796.77 256.53
  Q 815.04 266.15 835.39 262.99
  C 838.60 262.49 842.34 261.40 845.72 260.53
  C 848.81 259.74 851.25 260.90 854.23 261.56
  C 862.67 263.42 874.13 262.56 882.52 260.60
  C 885.28 259.96 886.97 258.26 889.11 256.57
  A 0.62 0.62 0.0 0 1 889.89 256.58
  C 892.01 258.31 893.70 259.90 896.42 260.66
  C 905.00 263.03 914.20 262.49 925.80 262.26
  Q 943.41 261.93 945.77 245.86
  C 946.47 241.07 944.52 233.88 941.02 230.43
  C 932.99 222.49 925.85 212.60 918.63 203.89
  A 0.60 0.60 0.0 0 1 918.63 203.13
  Q 926.62 193.47 934.83 184.00
  Q 941.24 176.62 942.62 172.85
  C 945.30 165.51 942.81 156.54 936.06 152.00
  C 932.79 149.80 926.30 148.79 922.40 148.77
  C 915.03 148.74 905.58 147.78 898.49 149.43
  Q 895.68 150.09 892.88 150.82
  Q 892.39 150.94 891.99 151.25
  L 888.99 153.58
  A 0.72 0.71 42.5 0 1 888.16 153.61
  C 886.50 152.52 885.45 151.16 883.48 150.64
  C 880.12 149.77 876.95 148.79 873.43 148.76
  Q 866.12 148.71 858.80 148.78
  C 854.56 148.82 849.90 151.40 845.94 150.34
  C 837.07 147.97 830.56 146.10 822.42 146.67
  C 803.66 147.98 786.75 157.85 776.37 173.45
  A 0.18 0.18 0.0 0 1 776.05 173.41"
/>
<path stroke="#8f80e6" vector-effect="non-scaling-stroke" d="
  M 178.47 89.07
  L 187.04 130.79
  A 0.54 0.53 -5.5 0 0 187.55 131.21
  L 197.71 131.35
  A 0.62 0.61 11.8 0 0 198.27 130.99
  Q 207.86 108.84 217.41 86.67
  Q 218.22 84.79 218.83 83.94
  Q 219.14 83.51 219.16 84.03
  L 221.20 130.61
  A 0.66 0.66 0.0 0 0 221.86 131.25
  L 236.67 131.25
  A 0.64 0.64 0.0 0 0 237.31 130.58
  L 234.10 53.30
  A 0.57 0.56 -0.5 0 0 233.54 52.76
  L 214.94 52.64
  A 0.72 0.72 0.0 0 0 214.26 53.08
  L 196.65 94.33
  A 0.40 0.39 51.7 0 1 195.90 94.24
  L 188.43 53.38
  A 0.84 0.83 85.4 0 0 187.62 52.69
  L 172.73 52.59
  A 0.68 0.67 8.9 0 0 172.09 53.05
  L 151.90 114.81
  A 0.34 0.34 0.0 0 1 151.24 114.76
  L 140.99 53.31
  A 0.69 0.69 0.0 0 0 140.31 52.73
  L 121.58 52.66
  A 0.93 0.92 11.6 0 0 120.73 53.21
  L 91.55 119.26
  A 0.27 0.27 0.0 0 1 91.03 119.11
  L 95.06 93.16
  A 0.57 0.57 0.0 0 0 94.50 92.50
  L 65.66 92.50
  A 0.70 0.69 4.3 0 0 64.97 93.09
  L 62.96 106.74
  A 0.60 0.60 0.0 0 0 63.56 107.43
  L 74.32 107.30
  A 0.88 0.87 -86.4 0 1 75.20 108.31
  L 74.22 114.67
  A 0.61 0.60 1.2 0 1 73.68 115.18
  C 68.56 115.63 62.01 116.77 57.42 114.77
  C 44.25 109.02 44.73 91.73 52.06 81.77
  C 62.48 67.60 82.90 64.29 98.83 69.55
  A 0.47 0.46 13.2 0 0 99.44 69.18
  L 101.71 54.58
  A 0.60 0.60 0.0 0 0 101.33 53.93
  C 67.63 41.42 26.01 64.63 30.89 103.79
  C 33.89 127.83 61.93 137.41 82.32 129.02
  Q 85.06 127.89 87.81 126.65
  Q 88.55 126.32 88.20 127.05
  L 86.51 130.63
  A 0.42 0.42 0.0 0 0 86.89 131.23
  L 102.53 131.29
  A 0.99 0.97 -76.9 0 0 103.43 130.72
  L 113.65 108.52
  A 0.92 0.90 12.0 0 1 114.48 107.99
  L 131.97 108.01
  A 0.56 0.55 85.0 0 1 132.51 108.47
  L 136.44 130.68
  A 0.70 0.70 0.0 0 0 137.13 131.26
  L 163.65 131.27
  A 0.68 0.67 8.9 0 0 164.29 130.81
  L 177.62 89.02
  Q 178.13 87.43 178.47 89.07"
/>
<path stroke="#8f80e6" vector-effect="non-scaling-stroke" d="
  M 258.57 114.50
  A 0.31 0.31 0.0 0 1 258.26 114.14
  L 260.55 100.76
  A 0.31 0.31 0.0 0 1 260.85 100.50
  L 284.94 100.50
  A 0.31 0.31 0.0 0 0 285.25 100.24
  L 287.73 83.92
  A 0.31 0.31 0.0 0 0 287.42 83.56
  L 263.32 83.56
  A 0.31 0.31 0.0 0 1 263.01 83.21
  L 264.93 69.77
  A 0.31 0.31 0.0 0 1 265.24 69.50
  L 293.12 69.50
  A 0.31 0.31 0.0 0 0 293.43 69.24
  L 295.97 52.86
  A 0.31 0.31 0.0 0 0 295.67 52.50
  L 251.49 52.50
  A 0.31 0.31 0.0 0 0 251.19 52.76
  L 238.76 130.89
  A 0.31 0.31 0.0 0 0 239.06 131.25
  L 283.56 131.25
  A 0.31 0.31 0.0 0 0 283.86 130.99
  L 286.58 114.86
  A 0.31 0.31 0.0 0 0 286.27 114.50
  L 258.57 114.50"
/>
<path stroke="#8f80e6" vector-effect="non-scaling-stroke" d="
  M 396.6878 132.0918
  A 40.43 33.40 103.2 0 0 438.4375 100.3569
  A 40.43 33.40 103.2 0 0 415.1522 53.3682
  A 40.43 33.40 103.2 0 0 373.4025 85.1031
  A 40.43 33.40 103.2 0 0 396.6878 132.0918"
/>
<path stroke="#8f80e6" vector-effect="non-scaling-stroke" d="
  M 449.64 94.63
  L 443.77 130.75
  A 0.48 0.48 0.0 0 0 444.25 131.31
  L 459.53 131.23
  A 0.63 0.62 4.3 0 0 460.15 130.70
  Q 462.49 116.12 464.46 101.43
  Q 464.78 99.03 466.07 96.97
  Q 479.79 74.99 493.76 53.06
  A 0.37 0.37 0.0 0 0 493.45 52.49
  L 475.75 52.52
  A 1.02 1.00 -73.5 0 0 474.90 52.99
  L 459.56 77.61
  Q 459.15 78.27 458.87 77.55
  L 449.26 52.91
  A 0.64 0.63 79.1 0 0 448.67 52.50
  L 431.03 52.50
  A 0.34 0.33 77.5 0 0 430.73 52.98
  L 449.49 93.58
  A 1.77 1.76 -53.4 0 1 449.64 94.63"
/>
<path stroke="#8f80e6" vector-effect="non-scaling-stroke" d="
  M 320.48 54.69
  Q 314.39 92.67 308.39 130.71
  A 0.43 0.43 0.0 0 0 308.82 131.21
  Q 324.88 131.26 340.99 131.27
  Q 347.29 131.27 350.92 130.08
  C 367.58 124.59 376.74 105.65 362.23 91.62
  A 0.87 0.86 45.2 0 1 362.23 90.37
  C 370.72 82.20 374.38 70.18 365.43 60.58
  C 360.42 55.21 355.73 53.22 348.06 53.24
  Q 335.10 53.27 321.01 53.22
  A 0.52 0.52 0.0 0 0 320.50 53.81
  Q 320.55 54.23 320.48 54.69"
/>
<path stroke="#8f80e6" vector-effect="non-scaling-stroke" d="
  M 637.65 85.74
  Q 637.51 83.90 638.47 85.48
  L 658.88 119.24
  A 1.09 1.08 -15.7 0 0 659.83 119.77
  L 669.33 119.71
  A 0.95 0.95 0.0 0 0 670.13 119.24
  L 701.41 65.19
  Q 701.89 64.35 700.93 64.38
  Q 694.60 64.58 687.77 64.51
  C 685.80 64.49 685.13 63.98 684.01 66.00
  Q 674.59 83.06 665.29 99.96
  A 0.40 0.40 0.0 0 1 664.59 99.97
  L 644.27 64.95
  A 0.90 0.90 0.0 0 0 643.49 64.50
  L 626.47 64.50
  Q 625.69 64.50 626.10 65.16
  L 629.91 71.30
  A 0.20 0.20 0.0 0 1 629.62 71.57
  Q 619.84 64.56 607.49 64.51
  Q 588.40 64.43 569.24 64.54
  A 0.49 0.49 0.0 0 0 568.75 65.03
  L 568.75 109.24
  A 0.29 0.28 29.9 0 1 568.22 109.38
  Q 555.26 87.78 542.21 66.31
  C 541.50 65.15 541.45 64.51 539.81 64.40
  Q 533.26 63.95 527.45 64.56
  A 1.04 1.03 11.8 0 0 526.68 65.06
  L 494.49 119.25
  A 0.33 0.33 0.0 0 0 494.78 119.75
  L 532.87 119.75
  A 0.63 0.63 0.0 0 0 533.50 119.12
  L 533.50 108.00
  A 0.50 0.50 0.0 0 0 533.00 107.50
  L 518.24 107.50
  A 0.46 0.46 0.0 0 1 517.84 106.82
  L 533.01 79.56
  A 0.37 0.37 0.0 0 1 533.66 79.56
  L 556.10 119.24
  A 0.91 0.89 75.0 0 0 556.88 119.70
  Q 579.32 119.82 601.75 119.80
  C 621.23 119.78 640.03 113.16 637.95 89.44
  Q 637.75 87.06 637.65 85.74"
/>
<path stroke="#8f80e6" vector-effect="non-scaling-stroke" d="
  M 702.34 106.60
  L 717.36 79.37
  Q 717.61 78.92 717.87 79.37
  L 740.41 119.31
  A 0.87 0.86 75.0 0 0 741.16 119.75
  L 767.03 119.75
  A 0.77 0.77 0.0 0 0 767.80 118.98
  L 767.73 87.02
  Q 767.73 86.19 768.37 86.71
  Q 788.28 102.58 807.66 118.37
  C 810.38 120.59 817.08 119.82 820.01 119.51
  A 0.55 0.54 -2.9 0 0 820.50 118.97
  L 820.50 64.96
  A 0.54 0.53 89.5 0 0 819.96 64.42
  L 806.60 64.47
  A 0.61 0.61 0.0 0 0 806.00 65.08
  L 806.00 96.43
  A 0.44 0.44 0.0 0 1 805.29 96.78
  L 764.23 64.59
  A 1.72 1.69 -25.6 0 0 763.18 64.23
  L 753.67 64.29
  A 0.72 0.72 0.0 0 0 752.95 65.01
  L 753.10 109.23
  A 0.26 0.26 0.0 0 1 752.62 109.37
  L 725.67 64.87
  A 1.20 1.19 74.3 0 0 724.65 64.29
  L 712.08 64.27
  A 1.21 1.20 15.2 0 0 711.04 64.86
  L 678.94 119.11
  A 0.29 0.29 0.0 0 0 679.18 119.55
  Q 692.20 120.03 705.22 119.53
  C 708.64 119.40 713.19 120.02 717.30 119.41
  A 0.61 0.60 85.6 0 0 717.81 118.81
  L 717.72 107.74
  A 0.49 0.49 0.0 0 0 717.23 107.25
  L 702.72 107.25
  A 0.44 0.44 0.0 0 1 702.34 106.60"
/>
<path stroke="#8f80e6" vector-effect="non-scaling-stroke" d="
  M 841.25 105.75
  L 841.25 77.75
  A 0.50 0.50 0.0 0 1 841.75 77.25
  L 871.29 77.25
  A 0.77 0.77 0.0 0 1 872.06 78.04
  L 871.86 84.18
  A 0.56 0.56 0.0 0 0 872.42 84.75
  L 887.46 84.75
  A 0.60 0.60 0.0 0 0 888.06 84.17
  C 888.47 70.18 887.07 64.41 871.75 64.31
  Q 848.68 64.17 836.06 64.56
  C 829.47 64.77 826.04 69.36 825.65 75.72
  Q 824.64 92.17 825.65 108.66
  C 826.05 115.24 829.44 119.08 836.19 119.31
  Q 852.96 119.88 869.75 119.79
  C 876.74 119.75 885.13 119.86 887.30 111.74
  Q 888.51 107.20 888.00 98.60
  A 0.65 0.65 0.0 0 0 887.37 97.99
  L 872.57 97.68
  A 0.51 0.51 0.0 0 0 872.05 98.18
  L 871.88 105.69
  A 0.57 0.57 0.0 0 1 871.31 106.25
  L 841.75 106.25
  A 0.50 0.50 0.0 0 1 841.25 105.75"
/>
<path stroke="#8f80e6" vector-effect="non-scaling-stroke" d="
  M 909.80 106.75
  A 0.57 0.57 0.0 0 1 909.23 106.18
  L 909.30 97.57
  A 0.57 0.57 0.0 0 1 909.87 97.00
  L 933.93 97.00
  A 0.57 0.57 0.0 0 0 934.50 96.43
  L 934.50 85.32
  A 0.57 0.57 0.0 0 0 933.93 84.75
  L 909.80 84.75
  A 0.57 0.57 0.0 0 1 909.23 84.17
  L 909.30 77.55
  A 0.57 0.57 0.0 0 1 909.87 76.99
  L 951.68 77.01
  A 0.57 0.57 0.0 0 0 952.25 76.44
  L 952.25 64.84
  A 0.57 0.57 0.0 0 0 951.68 64.27
  L 893.82 64.24
  A 0.57 0.57 0.0 0 0 893.25 64.81
  L 893.25 118.93
  A 0.57 0.57 0.0 0 0 893.82 119.50
  L 952.54 119.50
  A 0.57 0.57 0.0 0 0 953.11 118.92
  L 952.99 107.31
  A 0.57 0.57 0.0 0 0 952.42 106.75
  L 909.80 106.75"
/>
<path stroke="#8f80e6" vector-effect="non-scaling-stroke" d="
  M 479.73 124.21
  A 7.80 7.80 0.0 0 0 471.93 116.41
  A 7.80 7.80 0.0 0 0 464.13 124.21
  A 7.80 7.80 0.0 0 0 471.93 132.01
  A 7.80 7.80 0.0 0 0 479.73 124.21"
/>
<path stroke="#8f80e6" vector-effect="non-scaling-stroke" d="
  M 127.23 78.46
  A 0.31 0.31 0.0 0 0 126.65 78.39
  L 120.38 92.06
  A 0.31 0.31 0.0 0 0 120.66 92.50
  L 129.59 92.50
  A 0.31 0.31 0.0 0 0 129.90 92.13
  L 127.23 78.46"
/>
<path stroke="#8f80e6" vector-effect="non-scaling-stroke" d="
  M 399.8316 116.8586
  A 24.96 16.74 104.0 0 0 422.1128 96.6898
  A 24.96 16.74 104.0 0 0 411.9084 68.4214
  A 24.96 16.74 104.0 0 0 389.6272 88.5902
  A 24.96 16.74 104.0 0 0 399.8316 116.8586"
/>
<path stroke="#8f80e6" vector-effect="non-scaling-stroke" d="
  M 334.70 69.98
  L 332.30 83.69
  A 0.43 0.43 0.0 0 0 332.70 84.19
  C 339.46 84.58 347.41 85.09 350.71 80.86
  C 353.28 77.56 353.33 72.72 349.22 70.69
  C 345.83 69.03 338.98 69.71 334.93 69.78
  A 0.25 0.23 -83.9 0 0 334.70 69.98"
/>
<path stroke="#8f80e6" vector-effect="non-scaling-stroke" d="
  M 329.60 101.06
  C 328.34 105.18 327.88 111.30 327.34 115.67
  A 0.47 0.46 -85.4 0 0 327.78 116.19
  Q 338.97 116.69 344.99 115.76
  C 349.99 114.98 353.96 109.94 351.64 104.95
  C 348.90 99.06 337.03 100.31 330.26 100.55
  A 0.72 0.72 0.0 0 0 329.60 101.06"
/>
<path stroke="#8f80e6" vector-effect="non-scaling-stroke" d="
  M 584.51 77.48
  L 584.49 105.96
  A 0.58 0.58 0.0 0 0 585.03 106.54
  Q 594.98 107.15 604.98 106.39
  C 616.49 105.52 623.90 100.92 621.60 87.87
  C 620.22 80.00 613.62 77.02 606.25 77.01
  Q 595.51 76.98 584.98 77.01
  A 0.47 0.47 0.0 0 0 584.51 77.48"
/>
<path stroke="#8f80e6" vector-effect="non-scaling-stroke" d="
  M 478.28 124.17
  A 6.40 6.40 0.0 0 0 471.88 117.77
  A 6.40 6.40 0.0 0 0 465.48 124.17
  A 6.40 6.40 0.0 0 0 471.88 130.57
  A 6.40 6.40 0.0 0 0 478.28 124.17"
/>
<path stroke="#8f80e6" vector-effect="non-scaling-stroke" d="
  M 471.07 124.49
  L 471.61 124.74
  A 1.36 1.35 -86.5 0 1 472.33 125.56
  Q 472.89 127.37 474.46 128.28
  Q 475.58 128.92 475.05 127.74
  Q 474.51 126.52 473.55 125.61
  A 0.55 0.55 0.0 0 1 473.61 124.76
  L 475.26 123.62
  A 1.14 1.11 -18.3 0 0 475.73 122.71
  C 475.75 119.14 471.19 119.04 469.16 120.41
  A 1.02 1.01 -17.7 0 0 468.71 121.27
  L 468.86 128.15
  A 0.36 0.35 88.4 0 0 469.22 128.50
  L 469.51 128.50
  A 0.56 0.55 -87.7 0 0 470.05 128.00
  L 470.39 124.87
  A 0.48 0.48 0.0 0 1 471.07 124.49"
/>
<path stroke="#8f80e6" vector-effect="non-scaling-stroke" d="
  M 474.1898 122.0992
  A 2.09 1.30 0.8 0 0 472.1182 120.7701
  A 2.09 1.30 0.8 0 0 470.0102 122.0408
  A 2.09 1.30 0.8 0 0 472.0818 123.3699
  A 2.09 1.30 0.8 0 0 474.1898 122.0992"
/>
<path stroke="#8f80e6" vector-effect="non-scaling-stroke" d="
  M 794.19 179.69
  C 782.04 193.88 781.08 218.58 795.03 232.51
  Q 815.33 252.79 843.27 242.46
  A 0.72 0.72 0.0 0 0 843.73 241.79
  L 843.79 220.29
  Q 843.80 218.63 842.66 219.84
  C 835.98 226.94 824.41 228.58 815.94 224.09
  C 804.84 218.21 802.42 201.58 809.81 192.09
  C 818.30 181.17 834.48 181.91 843.26 191.71
  A 0.31 0.31 0.0 0 0 843.80 191.50
  L 843.73 169.23
  A 0.86 0.86 0.0 0 0 843.19 168.45
  Q 833.22 164.59 826.04 164.57
  Q 807.16 164.52 794.19 179.69"
/>
<path stroke="#8f80e6" vector-effect="non-scaling-stroke" d="
  M 647.82 196.55
  A 0.32 0.32 0.0 0 1 647.50 196.23
  L 647.50 167.07
  A 0.32 0.32 0.0 0 0 647.18 166.75
  L 627.57 166.75
  A 0.32 0.32 0.0 0 0 627.25 167.07
  L 627.25 243.74
  A 0.32 0.32 0.0 0 0 627.57 244.06
  L 647.18 243.97
  A 0.32 0.32 0.0 0 0 647.50 243.65
  L 647.50 212.86
  A 0.32 0.32 0.0 0 1 647.82 212.54
  L 676.20 212.29
  A 0.32 0.32 0.0 0 1 676.52 212.61
  L 676.49 243.71
  A 0.32 0.32 0.0 0 0 676.81 244.03
  L 696.18 243.99
  A 0.32 0.32 0.0 0 0 696.50 243.67
  L 696.50 167.07
  A 0.32 0.32 0.0 0 0 696.18 166.75
  L 676.82 166.75
  A 0.32 0.32 0.0 0 0 676.50 167.07
  L 676.50 196.21
  A 0.32 0.32 0.0 0 1 676.18 196.53
  L 647.82 196.55"
/>
<path stroke="#8f80e6" vector-effect="non-scaling-stroke" d="
  M 756.83 230.50
  A 0.50 0.50 0.0 0 1 757.30 230.82
  L 762.11 243.68
  A 0.50 0.50 0.0 0 0 762.58 244.00
  L 782.76 244.00
  A 0.50 0.50 0.0 0 0 783.23 243.32
  L 754.53 167.07
  A 0.50 0.50 0.0 0 0 754.06 166.75
  L 732.96 166.75
  A 0.50 0.50 0.0 0 0 732.50 167.07
  L 703.15 243.36
  A 0.50 0.50 0.0 0 0 703.62 244.04
  L 723.71 243.98
  A 0.50 0.50 0.0 0 0 724.17 243.67
  L 729.26 230.82
  A 0.50 0.50 0.0 0 1 729.73 230.50
  L 756.83 230.50"
/>
<path stroke="#8f80e6" vector-effect="non-scaling-stroke" d="
  M 876.82 198.43
  A 0.30 0.30 0.0 0 1 876.28 198.25
  L 876.23 167.05
  A 0.30 0.30 0.0 0 0 875.93 166.75
  L 856.72 166.75
  A 0.30 0.30 0.0 0 0 856.42 167.05
  L 856.31 243.75
  A 0.30 0.30 0.0 0 0 856.61 244.05
  L 875.95 243.99
  A 0.30 0.30 0.0 0 0 876.25 243.69
  L 876.25 210.87
  A 0.30 0.30 0.0 0 1 876.79 210.68
  L 902.48 243.91
  A 0.30 0.30 0.0 0 0 902.72 244.03
  L 927.77 243.98
  A 0.30 0.30 0.0 0 0 928.00 243.49
  L 895.08 203.53
  A 0.30 0.30 0.0 0 1 895.08 203.15
  L 925.25 167.24
  A 0.30 0.30 0.0 0 0 925.02 166.75
  L 901.11 166.75
  A 0.30 0.30 0.0 0 0 900.87 166.87
  L 876.82 198.43"
/>
<path stroke="#8f80e6" vector-effect="non-scaling-stroke" d="
  M 824.58 202.60
  Q 822.95 205.26 824.35 208.04
  A 0.86 0.84 76.0 0 0 825.10 208.50
  L 827.72 208.51
  A 1.37 1.36 -65.7 0 0 828.63 208.16
  L 831.27 205.83
  A 0.48 0.47 -37.8 0 0 831.35 205.23
  Q 829.15 201.93 825.24 202.21
  A 0.86 0.85 14.1 0 0 824.58 202.60"
/>
<path stroke="#8f80e6" vector-effect="non-scaling-stroke" d="
  M 735.06 214.83
  A 0.30 0.30 0.0 0 0 735.34 215.22
  L 751.32 215.28
  A 0.30 0.30 0.0 0 0 751.61 214.88
  L 743.70 191.05
  A 0.30 0.30 0.0 0 0 743.13 191.05
  L 735.06 214.83"
/>
</g>
<g fill="#ffffff">
<path d="
  M 983.00 46.81
  L 983.00 138.56
  Q 978.04 151.86 963.36 150.98
  A 0.78 0.78 0.0 0 0 962.56 151.93
  C 963.57 156.19 966.53 164.44 965.51 168.65
  C 964.14 174.29 963.29 181.76 960.25 186.66
  Q 954.66 195.66 947.05 203.09
  A 0.55 0.55 0.0 0 0 947.00 203.83
  Q 951.08 208.97 955.52 213.79
  C 958.56 217.10 963.35 222.91 964.40 227.28
  Q 966.13 234.40 967.79 241.56
  C 968.82 245.99 965.64 254.92 964.55 259.56
  C 963.48 264.14 957.82 271.59 953.99 274.34
  C 950.72 276.68 947.64 279.58 943.62 280.53
  C 937.01 282.09 930.43 284.23 923.59 284.25
  C 915.75 284.27 906.52 285.17 898.93 283.25
  Q 895.28 282.33 891.60 281.52
  C 887.77 280.69 883.24 282.47 879.48 283.37
  C 872.95 284.93 865.69 284.25 859.00 284.24
  C 854.16 284.24 850.22 281.59 845.35 282.74
  C 835.66 285.03 828.07 286.67 817.00 285.23
  Q 813.24 284.74 799.91 281.33
  Q 797.73 280.77 795.56 281.26
  C 789.95 282.54 784.82 284.18 779.05 284.24
  Q 773.08 284.30 767.11 284.24
  C 759.71 284.17 752.22 281.66 745.00 280.02
  A 1.29 1.28 -12.7 0 1 744.28 279.57
  Q 743.47 278.55 742.62 279.47
  A 1.78 1.72 -74.2 0 1 741.73 279.99
  C 734.51 281.65 726.86 284.24 719.45 284.25
  Q 712.09 284.26 704.72 284.24
  C 702.59 284.23 700.51 283.26 698.07 283.68
  C 690.81 284.92 680.00 284.93 672.81 283.21
  Q 668.55 282.18 664.27 281.19
  C 660.33 280.29 655.20 282.24 651.33 283.17
  C 644.88 284.71 638.64 284.30 632.13 284.23
  C 625.38 284.17 618.90 282.07 612.35 280.54
  C 607.99 279.52 600.42 273.87 597.81 270.23
  C 595.30 266.74 591.96 263.15 590.99 258.87
  C 589.50 252.35 587.26 245.72 587.26 239.00
  Q 587.24 205.17 587.25 171.34
  C 587.26 164.76 589.68 158.01 590.87 151.48
  A 0.41 0.41 0.0 0 0 590.47 151.00
  L 488.97 151.00
  A 0.79 0.79 0.0 0 0 488.23 151.52
  Q 485.58 158.68 479.70 161.17
  Q 472.16 164.38 461.32 164.31
  Q 446.03 164.22 430.75 163.92
  Q 427.93 163.87 425.73 162.93
  C 420.66 160.77 418.91 163.07 414.00 163.72
  Q 391.74 166.69 372.16 156.04
  A 1.04 1.02 45.6 0 0 371.22 156.02
  Q 358.15 162.49 343.49 163.01
  Q 321.88 163.78 300.25 163.86
  Q 214.18 164.17 128.10 163.80
  Q 126.37 163.79 124.07 162.92
  Q 119.15 161.06 114.26 162.84
  Q 111.81 163.73 110.06 163.75
  Q 86.93 164.10 63.80 164.01
  Q 59.17 163.99 54.81 163.01
  C 40.46 159.77 29.00 155.06 18.28 144.69
  Q 3.12 130.01 0.00 108.94
  L 0.00 85.44
  C 1.98 78.61 3.54 71.11 6.39 65.12
  C 15.54 45.85 33.06 31.76 52.97 24.69
  C 56.48 23.45 61.47 22.45 65.71 21.22
  C 73.90 18.84 85.03 19.49 93.49 20.14
  C 97.09 20.42 101.60 22.77 104.57 22.67
  Q 115.98 22.29 155.81 22.17
  Q 253.53 21.87 351.25 22.03
  C 360.11 22.05 370.79 23.60 377.43 29.74
  A 0.68 0.68 0.0 0 0 378.22 29.83
  C 389.22 23.53 398.78 22.07 412.57 22.04
  Q 464.86 21.95 517.16 22.02
  C 525.55 22.03 532.53 23.51 535.28 32.50
  A 0.68 0.68 0.0 0 0 535.93 32.98
  Q 592.60 33.01 649.24 33.01
  Q 656.60 33.01 663.60 37.68
  A 0.78 0.78 0.0 0 0 664.45 37.69
  Q 671.74 33.07 680.57 33.04
  Q 742.41 32.81 766.06 33.08
  Q 773.39 33.16 780.36 37.43
  A 0.83 0.82 -44.1 0 0 781.21 37.44
  C 783.02 36.38 784.38 35.14 786.45 34.60
  Q 792.54 33.02 796.31 33.01
  Q 877.03 32.99 957.75 33.05
  C 969.27 33.06 979.19 34.39 983.00 46.81
  Z
  M 428.25 140.33
  L 427.44 145.42
  A 0.50 0.50 0.0 0 0 427.93 146.00
  L 471.43 146.00
  A 0.81 0.80 -85.3 0 0 472.22 145.32
  L 473.22 138.74
  A 0.81 0.81 0.0 0 1 473.83 138.07
  Q 477.24 137.21 479.56 134.60
  A 1.05 1.03 20.1 0 1 480.35 134.24
  Q 538.80 134.28 597.25 134.22
  C 613.84 134.21 629.78 132.71 642.22 120.27
  A 0.46 0.45 51.1 0 1 642.93 120.35
  L 651.35 133.79
  A 0.99 0.98 73.8 0 0 652.18 134.25
  L 781.23 134.25
  A 0.48 0.48 0.0 0 0 781.71 133.77
  L 781.83 117.79
  Q 781.84 115.80 783.41 117.03
  L 805.05 134.00
  A 1.24 1.22 63.2 0 0 805.79 134.25
  L 965.75 134.25
  A 0.50 0.50 0.0 0 0 966.25 133.75
  L 966.25 51.04
  A 0.51 0.51 0.0 0 0 965.74 50.53
  Q 889.50 50.46 813.26 50.52
  C 808.34 50.53 799.35 50.99 792.30 50.57
  A 0.52 0.52 0.0 0 0 791.75 51.09
  L 791.79 67.72
  A 0.42 0.42 0.0 0 1 791.11 68.06
  L 769.59 51.09
  A 2.76 2.69 -25.2 0 0 767.89 50.50
  L 676.66 50.50
  A 1.10 1.08 -75.8 0 0 675.70 51.08
  L 664.95 71.52
  A 0.46 0.46 0.0 0 1 664.15 71.53
  L 652.49 51.33
  A 1.68 1.66 -14.8 0 0 651.04 50.50
  L 513.06 50.50
  A 0.28 0.27 -74.0 0 1 512.83 50.08
  L 519.60 39.31
  A 0.36 0.36 0.0 0 0 519.30 38.76
  Q 466.28 38.73 413.55 38.77
  C 397.13 38.78 389.78 42.46 377.16 51.80
  A 0.56 0.55 -40.1 0 1 376.42 51.74
  C 368.75 43.70 362.23 38.72 350.49 38.72
  Q 256.68 38.75 162.80 38.75
  A 0.73 0.72 8.8 0 0 162.11 39.25
  L 156.77 55.85
  A 0.43 0.42 49.6 0 1 155.95 55.78
  L 153.27 39.22
  A 0.56 0.55 -4.2 0 0 152.72 38.75
  L 112.48 38.75
  A 0.73 0.73 0.0 0 0 111.80 39.22
  L 110.85 41.69
  A 0.58 0.58 0.0 0 1 110.11 42.03
  Q 73.70 28.77 43.42 48.73
  C 24.41 61.27 14.95 80.60 16.89 103.83
  C 18.66 125.20 35.17 141.28 55.50 145.52
  Q 60.66 146.60 70.12 146.35
  Q 90.95 145.79 111.88 146.04
  A 0.76 0.75 12.0 0 0 112.57 145.60
  L 121.11 126.63
  A 0.34 0.34 0.0 0 1 121.75 126.72
  L 124.76 145.56
  A 0.61 0.60 -4.9 0 0 125.37 146.07
  Q 231.27 145.73 337.18 145.73
  C 351.92 145.73 361.41 143.84 371.44 133.94
  A 0.50 0.50 0.0 0 1 372.14 133.95
  C 385.99 147.89 407.20 151.67 424.48 141.72
  Q 426.11 140.78 427.80 139.99
  Q 428.35 139.73 428.25 140.33
  Z
  M 776.05 173.41
  C 773.12 165.16 771.41 156.99 763.91 151.78
  C 757.11 147.05 728.81 147.28 722.18 152.48
  Q 716.48 156.94 714.49 164.33
  A 0.37 0.37 0.0 0 1 713.77 164.29
  Q 712.62 155.97 705.68 151.61
  C 698.77 147.28 673.28 147.29 666.58 152.14
  Q 664.14 153.91 662.28 156.37
  A 0.37 0.37 0.0 0 1 661.69 156.37
  C 654.15 146.56 640.39 148.69 629.66 148.79
  C 615.82 148.91 609.29 158.03 609.27 171.03
  Q 609.22 206.18 609.27 241.34
  C 609.28 248.50 612.39 255.63 618.60 259.53
  C 624.98 263.53 650.69 263.58 656.83 259.12
  Q 658.23 258.10 659.62 257.07
  Q 660.04 256.77 660.32 256.34
  L 661.53 254.55
  A 0.49 0.49 0.0 0 1 662.33 254.55
  C 669.34 264.63 684.31 262.09 695.28 261.91
  C 706.17 261.73 717.03 263.34 727.39 261.31
  C 734.50 259.92 738.83 256.08 741.33 249.54
  A 0.86 0.85 10.4 0 1 742.13 248.99
  L 744.28 249.00
  A 0.85 0.84 78.4 0 1 745.06 249.52
  C 747.92 256.22 752.95 260.34 760.22 261.56
  C 769.00 263.04 781.68 263.04 790.25 260.46
  C 792.51 259.78 794.25 258.18 795.96 256.64
  A 0.72 0.71 -52.4 0 1 796.77 256.53
  Q 815.04 266.15 835.39 262.99
  C 838.60 262.49 842.34 261.40 845.72 260.53
  C 848.81 259.74 851.25 260.90 854.23 261.56
  C 862.67 263.42 874.13 262.56 882.52 260.60
  C 885.28 259.96 886.97 258.26 889.11 256.57
  A 0.62 0.62 0.0 0 1 889.89 256.58
  C 892.01 258.31 893.70 259.90 896.42 260.66
  C 905.00 263.03 914.20 262.49 925.80 262.26
  Q 943.41 261.93 945.77 245.86
  C 946.47 241.07 944.52 233.88 941.02 230.43
  C 932.99 222.49 925.85 212.60 918.63 203.89
  A 0.60 0.60 0.0 0 1 918.63 203.13
  Q 926.62 193.47 934.83 184.00
  Q 941.24 176.62 942.62 172.85
  C 945.30 165.51 942.81 156.54 936.06 152.00
  C 932.79 149.80 926.30 148.79 922.40 148.77
  C 915.03 148.74 905.58 147.78 898.49 149.43
  Q 895.68 150.09 892.88 150.82
  Q 892.39 150.94 891.99 151.25
  L 888.99 153.58
  A 0.72 0.71 42.5 0 1 888.16 153.61
  C 886.50 152.52 885.45 151.16 883.48 150.64
  C 880.12 149.77 876.95 148.79 873.43 148.76
  Q 866.12 148.71 858.80 148.78
  C 854.56 148.82 849.90 151.40 845.94 150.34
  C 837.07 147.97 830.56 146.10 822.42 146.67
  C 803.66 147.98 786.75 157.85 776.37 173.45
  A 0.18 0.18 0.0 0 1 776.05 173.41
  Z"
/>
<path d="
  M 178.47 89.07
  Q 178.13 87.43 177.62 89.02
  L 164.29 130.81
  A 0.68 0.67 8.9 0 1 163.65 131.27
  L 137.13 131.26
  A 0.70 0.70 0.0 0 1 136.44 130.68
  L 132.51 108.47
  A 0.56 0.55 85.0 0 0 131.97 108.01
  L 114.48 107.99
  A 0.92 0.90 12.0 0 0 113.65 108.52
  L 103.43 130.72
  A 0.99 0.97 -76.9 0 1 102.53 131.29
  L 86.89 131.23
  A 0.42 0.42 0.0 0 1 86.51 130.63
  L 88.20 127.05
  Q 88.55 126.32 87.81 126.65
  Q 85.06 127.89 82.32 129.02
  C 61.93 137.41 33.89 127.83 30.89 103.79
  C 26.01 64.63 67.63 41.42 101.33 53.93
  A 0.60 0.60 0.0 0 1 101.71 54.58
  L 99.44 69.18
  A 0.47 0.46 13.2 0 1 98.83 69.55
  C 82.90 64.29 62.48 67.60 52.06 81.77
  C 44.73 91.73 44.25 109.02 57.42 114.77
  C 62.01 116.77 68.56 115.63 73.68 115.18
  A 0.61 0.60 1.2 0 0 74.22 114.67
  L 75.20 108.31
  A 0.88 0.87 -86.4 0 0 74.32 107.30
  L 63.56 107.43
  A 0.60 0.60 0.0 0 1 62.96 106.74
  L 64.97 93.09
  A 0.70 0.69 4.3 0 1 65.66 92.50
  L 94.50 92.50
  A 0.57 0.57 0.0 0 1 95.06 93.16
  L 91.03 119.11
  A 0.27 0.27 0.0 0 0 91.55 119.26
  L 120.73 53.21
  A 0.93 0.92 11.6 0 1 121.58 52.66
  L 140.31 52.73
  A 0.69 0.69 0.0 0 1 140.99 53.31
  L 151.24 114.76
  A 0.34 0.34 0.0 0 0 151.90 114.81
  L 172.09 53.05
  A 0.68 0.67 8.9 0 1 172.73 52.59
  L 187.62 52.69
  A 0.84 0.83 85.4 0 1 188.43 53.38
  L 195.90 94.24
  A 0.40 0.39 51.7 0 0 196.65 94.33
  L 214.26 53.08
  A 0.72 0.72 0.0 0 1 214.94 52.64
  L 233.54 52.76
  A 0.57 0.56 -0.5 0 1 234.10 53.30
  L 237.31 130.58
  A 0.64 0.64 0.0 0 1 236.67 131.25
  L 221.86 131.25
  A 0.66 0.66 0.0 0 1 221.20 130.61
  L 219.16 84.03
  Q 219.14 83.51 218.83 83.94
  Q 218.22 84.79 217.41 86.67
  Q 207.86 108.84 198.27 130.99
  A 0.62 0.61 11.8 0 1 197.71 131.35
  L 187.55 131.21
  A 0.54 0.53 -5.5 0 1 187.04 130.79
  L 178.47 89.07
  Z
  M 127.23 78.46
  A 0.31 0.31 0.0 0 0 126.65 78.39
  L 120.38 92.06
  A 0.31 0.31 0.0 0 0 120.66 92.50
  L 129.59 92.50
  A 0.31 0.31 0.0 0 0 129.90 92.13
  L 127.23 78.46
  Z"
/>
<path d="
  M 258.57 114.50
  L 286.27 114.50
  A 0.31 0.31 0.0 0 1 286.58 114.86
  L 283.86 130.99
  A 0.31 0.31 0.0 0 1 283.56 131.25
  L 239.06 131.25
  A 0.31 0.31 0.0 0 1 238.76 130.89
  L 251.19 52.76
  A 0.31 0.31 0.0 0 1 251.49 52.50
  L 295.67 52.50
  A 0.31 0.31 0.0 0 1 295.97 52.86
  L 293.43 69.24
  A 0.31 0.31 0.0 0 1 293.12 69.50
  L 265.24 69.50
  A 0.31 0.31 0.0 0 0 264.93 69.77
  L 263.01 83.21
  A 0.31 0.31 0.0 0 0 263.32 83.56
  L 287.42 83.56
  A 0.31 0.31 0.0 0 1 287.73 83.92
  L 285.25 100.24
  A 0.31 0.31 0.0 0 1 284.94 100.50
  L 260.85 100.50
  A 0.31 0.31 0.0 0 0 260.55 100.76
  L 258.26 114.14
  A 0.31 0.31 0.0 0 0 258.57 114.50
  Z"
/>
<path d="
  M 396.6878 132.0918
  A 40.43 33.40 103.2 0 1 373.4025 85.1031
  A 40.43 33.40 103.2 0 1 415.1522 53.3682
  A 40.43 33.40 103.2 0 1 438.4375 100.3569
  A 40.43 33.40 103.2 0 1 396.6878 132.0918
  Z
  M 399.8316 116.8586
  A 24.96 16.74 104.0 0 0 422.1128 96.6898
  A 24.96 16.74 104.0 0 0 411.9084 68.4214
  A 24.96 16.74 104.0 0 0 389.6272 88.5902
  A 24.96 16.74 104.0 0 0 399.8316 116.8586
  Z"
/>
<path d="
  M 449.49 93.58
  L 430.73 52.98
  A 0.34 0.33 77.5 0 1 431.03 52.50
  L 448.67 52.50
  A 0.64 0.63 79.1 0 1 449.26 52.91
  L 458.87 77.55
  Q 459.15 78.27 459.56 77.61
  L 474.90 52.99
  A 1.02 1.00 -73.5 0 1 475.75 52.52
  L 493.45 52.49
  A 0.37 0.37 0.0 0 1 493.76 53.06
  Q 479.79 74.99 466.07 96.97
  Q 464.78 99.03 464.46 101.43
  Q 462.49 116.12 460.15 130.70
  A 0.63 0.62 4.3 0 1 459.53 131.23
  L 444.25 131.31
  A 0.48 0.48 0.0 0 1 443.77 130.75
  L 449.64 94.63
  A 1.77 1.76 -53.4 0 0 449.49 93.58
  Z"
/>
<path d="
  M 320.48 54.69
  Q 320.55 54.23 320.50 53.81
  A 0.52 0.52 0.0 0 1 321.01 53.22
  Q 335.10 53.27 348.06 53.24
  C 355.73 53.22 360.42 55.21 365.43 60.58
  C 374.38 70.18 370.72 82.20 362.23 90.37
  A 0.87 0.86 45.2 0 0 362.23 91.62
  C 376.74 105.65 367.58 124.59 350.92 130.08
  Q 347.29 131.27 340.99 131.27
  Q 324.88 131.26 308.82 131.21
  A 0.43 0.43 0.0 0 1 308.39 130.71
  Q 314.39 92.67 320.48 54.69
  Z
  M 334.70 69.98
  L 332.30 83.69
  A 0.43 0.43 0.0 0 0 332.70 84.19
  C 339.46 84.58 347.41 85.09 350.71 80.86
  C 353.28 77.56 353.33 72.72 349.22 70.69
  C 345.83 69.03 338.98 69.71 334.93 69.78
  A 0.25 0.23 -83.9 0 0 334.70 69.98
  Z
  M 329.60 101.06
  C 328.34 105.18 327.88 111.30 327.34 115.67
  A 0.47 0.46 -85.4 0 0 327.78 116.19
  Q 338.97 116.69 344.99 115.76
  C 349.99 114.98 353.96 109.94 351.64 104.95
  C 348.90 99.06 337.03 100.31 330.26 100.55
  A 0.72 0.72 0.0 0 0 329.60 101.06
  Z"
/>
<path d="
  M 637.65 85.74
  Q 637.75 87.06 637.95 89.44
  C 640.03 113.16 621.23 119.78 601.75 119.80
  Q 579.32 119.82 556.88 119.70
  A 0.91 0.89 75.0 0 1 556.10 119.24
  L 533.66 79.56
  A 0.37 0.37 0.0 0 0 533.01 79.56
  L 517.84 106.82
  A 0.46 0.46 0.0 0 0 518.24 107.50
  L 533.00 107.50
  A 0.50 0.50 0.0 0 1 533.50 108.00
  L 533.50 119.12
  A 0.63 0.63 0.0 0 1 532.87 119.75
  L 494.78 119.75
  A 0.33 0.33 0.0 0 1 494.49 119.25
  L 526.68 65.06
  A 1.04 1.03 11.8 0 1 527.45 64.56
  Q 533.26 63.95 539.81 64.40
  C 541.45 64.51 541.50 65.15 542.21 66.31
  Q 555.26 87.78 568.22 109.38
  A 0.29 0.28 29.9 0 0 568.75 109.24
  L 568.75 65.03
  A 0.49 0.49 0.0 0 1 569.24 64.54
  Q 588.40 64.43 607.49 64.51
  Q 619.84 64.56 629.62 71.57
  A 0.20 0.20 0.0 0 0 629.91 71.30
  L 626.10 65.16
  Q 625.69 64.50 626.47 64.50
  L 643.49 64.50
  A 0.90 0.90 0.0 0 1 644.27 64.95
  L 664.59 99.97
  A 0.40 0.40 0.0 0 0 665.29 99.96
  Q 674.59 83.06 684.01 66.00
  C 685.13 63.98 685.80 64.49 687.77 64.51
  Q 694.60 64.58 700.93 64.38
  Q 701.89 64.35 701.41 65.19
  L 670.13 119.24
  A 0.95 0.95 0.0 0 1 669.33 119.71
  L 659.83 119.77
  A 1.09 1.08 -15.7 0 1 658.88 119.24
  L 638.47 85.48
  Q 637.51 83.90 637.65 85.74
  Z
  M 584.51 77.48
  L 584.49 105.96
  A 0.58 0.58 0.0 0 0 585.03 106.54
  Q 594.98 107.15 604.98 106.39
  C 616.49 105.52 623.90 100.92 621.60 87.87
  C 620.22 80.00 613.62 77.02 606.25 77.01
  Q 595.51 76.98 584.98 77.01
  A 0.47 0.47 0.0 0 0 584.51 77.48
  Z"
/>
<path d="
  M 702.72 107.25
  L 717.23 107.25
  A 0.49 0.49 0.0 0 1 717.72 107.74
  L 717.81 118.81
  A 0.61 0.60 85.6 0 1 717.30 119.41
  C 713.19 120.02 708.64 119.40 705.22 119.53
  Q 692.20 120.03 679.18 119.55
  A 0.29 0.29 0.0 0 1 678.94 119.11
  L 711.04 64.86
  A 1.21 1.20 15.2 0 1 712.08 64.27
  L 724.65 64.29
  A 1.20 1.19 74.3 0 1 725.67 64.87
  L 752.62 109.37
  A 0.26 0.26 0.0 0 0 753.10 109.23
  L 752.95 65.01
  A 0.72 0.72 0.0 0 1 753.67 64.29
  L 763.18 64.23
  A 1.72 1.69 -25.6 0 1 764.23 64.59
  L 805.29 96.78
  A 0.44 0.44 0.0 0 0 806.00 96.43
  L 806.00 65.08
  A 0.61 0.61 0.0 0 1 806.60 64.47
  L 819.96 64.42
  A 0.54 0.53 89.5 0 1 820.50 64.96
  L 820.50 118.97
  A 0.55 0.54 -2.9 0 1 820.01 119.51
  C 817.08 119.82 810.38 120.59 807.66 118.37
  Q 788.28 102.58 768.37 86.71
  Q 767.73 86.19 767.73 87.02
  L 767.80 118.98
  A 0.77 0.77 0.0 0 1 767.03 119.75
  L 741.16 119.75
  A 0.87 0.86 75.0 0 1 740.41 119.31
  L 717.87 79.37
  Q 717.61 78.92 717.36 79.37
  L 702.34 106.60
  A 0.44 0.44 0.0 0 0 702.72 107.25
  Z"
/>
<path d="
  M 841.75 106.25
  L 871.31 106.25
  A 0.57 0.57 0.0 0 0 871.88 105.69
  L 872.05 98.18
  A 0.51 0.51 0.0 0 1 872.57 97.68
  L 887.37 97.99
  A 0.65 0.65 0.0 0 1 888.00 98.60
  Q 888.51 107.20 887.30 111.74
  C 885.13 119.86 876.74 119.75 869.75 119.79
  Q 852.96 119.88 836.19 119.31
  C 829.44 119.08 826.05 115.24 825.65 108.66
  Q 824.64 92.17 825.65 75.72
  C 826.04 69.36 829.47 64.77 836.06 64.56
  Q 848.68 64.17 871.75 64.31
  C 887.07 64.41 888.47 70.18 888.06 84.17
  A 0.60 0.60 0.0 0 1 887.46 84.75
  L 872.42 84.75
  A 0.56 0.56 0.0 0 1 871.86 84.18
  L 872.06 78.04
  A 0.77 0.77 0.0 0 0 871.29 77.25
  L 841.75 77.25
  A 0.50 0.50 0.0 0 0 841.25 77.75
  L 841.25 105.75
  A 0.50 0.50 0.0 0 0 841.75 106.25
  Z"
/>
<path d="
  M 909.80 106.75
  L 952.42 106.75
  A 0.57 0.57 0.0 0 1 952.99 107.31
  L 953.11 118.92
  A 0.57 0.57 0.0 0 1 952.54 119.50
  L 893.82 119.50
  A 0.57 0.57 0.0 0 1 893.25 118.93
  L 893.25 64.81
  A 0.57 0.57 0.0 0 1 893.82 64.24
  L 951.68 64.27
  A 0.57 0.57 0.0 0 1 952.25 64.84
  L 952.25 76.44
  A 0.57 0.57 0.0 0 1 951.68 77.01
  L 909.87 76.99
  A 0.57 0.57 0.0 0 0 909.30 77.55
  L 909.23 84.17
  A 0.57 0.57 0.0 0 0 909.80 84.75
  L 933.93 84.75
  A 0.57 0.57 0.0 0 1 934.50 85.32
  L 934.50 96.43
  A 0.57 0.57 0.0 0 1 933.93 97.00
  L 909.87 97.00
  A 0.57 0.57 0.0 0 0 909.30 97.57
  L 909.23 106.18
  A 0.57 0.57 0.0 0 0 909.80 106.75
  Z"
/>
<path d="
  M 479.73 124.21
  A 7.80 7.80 0.0 0 1 471.93 132.01
  A 7.80 7.80 0.0 0 1 464.13 124.21
  A 7.80 7.80 0.0 0 1 471.93 116.41
  A 7.80 7.80 0.0 0 1 479.73 124.21
  Z
  M 478.28 124.17
  A 6.40 6.40 0.0 0 0 471.88 117.77
  A 6.40 6.40 0.0 0 0 465.48 124.17
  A 6.40 6.40 0.0 0 0 471.88 130.57
  A 6.40 6.40 0.0 0 0 478.28 124.17
  Z"
/>
<path d="
  M 470.39 124.87
  L 470.05 128.00
  A 0.56 0.55 -87.7 0 1 469.51 128.50
  L 469.22 128.50
  A 0.36 0.35 88.4 0 1 468.86 128.15
  L 468.71 121.27
  A 1.02 1.01 -17.7 0 1 469.16 120.41
  C 471.19 119.04 475.75 119.14 475.73 122.71
  A 1.14 1.11 -18.3 0 1 475.26 123.62
  L 473.61 124.76
  A 0.55 0.55 0.0 0 0 473.55 125.61
  Q 474.51 126.52 475.05 127.74
  Q 475.58 128.92 474.46 128.28
  Q 472.89 127.37 472.33 125.56
  A 1.36 1.35 -86.5 0 0 471.61 124.74
  L 471.07 124.49
  A 0.48 0.48 0.0 0 0 470.39 124.87
  Z
  M 474.1898 122.0992
  A 2.09 1.30 0.8 0 0 472.1182 120.7701
  A 2.09 1.30 0.8 0 0 470.0102 122.0408
  A 2.09 1.30 0.8 0 0 472.0818 123.3699
  A 2.09 1.30 0.8 0 0 474.1898 122.0992
  Z"
/>
<path d="
  M 794.19 179.69
  Q 807.16 164.52 826.04 164.57
  Q 833.22 164.59 843.19 168.45
  A 0.86 0.86 0.0 0 1 843.73 169.23
  L 843.80 191.50
  A 0.31 0.31 0.0 0 1 843.26 191.71
  C 834.48 181.91 818.30 181.17 809.81 192.09
  C 802.42 201.58 804.84 218.21 815.94 224.09
  C 824.41 228.58 835.98 226.94 842.66 219.84
  Q 843.80 218.63 843.79 220.29
  L 843.73 241.79
  A 0.72 0.72 0.0 0 1 843.27 242.46
  Q 815.33 252.79 795.03 232.51
  C 781.08 218.58 782.04 193.88 794.19 179.69
  Z"
/>
<path d="
  M 647.82 196.55
  L 676.18 196.53
  A 0.32 0.32 0.0 0 0 676.50 196.21
  L 676.50 167.07
  A 0.32 0.32 0.0 0 1 676.82 166.75
  L 696.18 166.75
  A 0.32 0.32 0.0 0 1 696.50 167.07
  L 696.50 243.67
  A 0.32 0.32 0.0 0 1 696.18 243.99
  L 676.81 244.03
  A 0.32 0.32 0.0 0 1 676.49 243.71
  L 676.52 212.61
  A 0.32 0.32 0.0 0 0 676.20 212.29
  L 647.82 212.54
  A 0.32 0.32 0.0 0 0 647.50 212.86
  L 647.50 243.65
  A 0.32 0.32 0.0 0 1 647.18 243.97
  L 627.57 244.06
  A 0.32 0.32 0.0 0 1 627.25 243.74
  L 627.25 167.07
  A 0.32 0.32 0.0 0 1 627.57 166.75
  L 647.18 166.75
  A 0.32 0.32 0.0 0 1 647.50 167.07
  L 647.50 196.23
  A 0.32 0.32 0.0 0 0 647.82 196.55
  Z"
/>
<path d="
  M 756.83 230.50
  L 729.73 230.50
  A 0.50 0.50 0.0 0 0 729.26 230.82
  L 724.17 243.67
  A 0.50 0.50 0.0 0 1 723.71 243.98
  L 703.62 244.04
  A 0.50 0.50 0.0 0 1 703.15 243.36
  L 732.50 167.07
  A 0.50 0.50 0.0 0 1 732.96 166.75
  L 754.06 166.75
  A 0.50 0.50 0.0 0 1 754.53 167.07
  L 783.23 243.32
  A 0.50 0.50 0.0 0 1 782.76 244.00
  L 762.58 244.00
  A 0.50 0.50 0.0 0 1 762.11 243.68
  L 757.30 230.82
  A 0.50 0.50 0.0 0 0 756.83 230.50
  Z
  M 735.06 214.83
  A 0.30 0.30 0.0 0 0 735.34 215.22
  L 751.32 215.28
  A 0.30 0.30 0.0 0 0 751.61 214.88
  L 743.70 191.05
  A 0.30 0.30 0.0 0 0 743.13 191.05
  L 735.06 214.83
  Z"
/>
<path d="
  M 876.82 198.43
  L 900.87 166.87
  A 0.30 0.30 0.0 0 1 901.11 166.75
  L 925.02 166.75
  A 0.30 0.30 0.0 0 1 925.25 167.24
  L 895.08 203.15
  A 0.30 0.30 0.0 0 0 895.08 203.53
  L 928.00 243.49
  A 0.30 0.30 0.0 0 1 927.77 243.98
  L 902.72 244.03
  A 0.30 0.30 0.0 0 1 902.48 243.91
  L 876.79 210.68
  A 0.30 0.30 0.0 0 0 876.25 210.87
  L 876.25 243.69
  A 0.30 0.30 0.0 0 1 875.95 243.99
  L 856.61 244.05
  A 0.30 0.30 0.0 0 1 856.31 243.75
  L 856.42 167.05
  A 0.30 0.30 0.0 0 1 856.72 166.75
  L 875.93 166.75
  A 0.30 0.30 0.0 0 1 876.23 167.05
  L 876.28 198.25
  A 0.30 0.30 0.0 0 0 876.82 198.43
  Z"
/>
<path d="
  M 824.58 202.60
  A 0.86 0.85 14.1 0 1 825.24 202.21
  Q 829.15 201.93 831.35 205.23
  A 0.48 0.47 -37.8 0 1 831.27 205.83
  L 828.63 208.16
  A 1.37 1.36 -65.7 0 1 827.72 208.51
  L 825.10 208.50
  A 0.86 0.84 76.0 0 1 824.35 208.04
  Q 822.95 205.26 824.58 202.60
  Z"
/>
</g>
<g fill="#1f00cc">
<path d="
  M 427.80 139.99
  Q 426.11 140.78 424.48 141.72
  C 407.20 151.67 385.99 147.89 372.14 133.95
  A 0.50 0.50 0.0 0 0 371.44 133.94
  C 361.41 143.84 351.92 145.73 337.18 145.73
  Q 231.27 145.73 125.37 146.07
  A 0.61 0.60 -4.9 0 1 124.76 145.56
  L 121.75 126.72
  A 0.34 0.34 0.0 0 0 121.11 126.63
  L 112.57 145.60
  A 0.76 0.75 12.0 0 1 111.88 146.04
  Q 90.95 145.79 70.12 146.35
  Q 60.66 146.60 55.50 145.52
  C 35.17 141.28 18.66 125.20 16.89 103.83
  C 14.95 80.60 24.41 61.27 43.42 48.73
  Q 73.70 28.77 110.11 42.03
  A 0.58 0.58 0.0 0 0 110.85 41.69
  L 111.80 39.22
  A 0.73 0.73 0.0 0 1 112.48 38.75
  L 152.72 38.75
  A 0.56 0.55 -4.2 0 1 153.27 39.22
  L 155.95 55.78
  A 0.43 0.42 49.6 0 0 156.77 55.85
  L 162.11 39.25
  A 0.73 0.72 8.8 0 1 162.80 38.75
  Q 256.68 38.75 350.49 38.72
  C 362.23 38.72 368.75 43.70 376.42 51.74
  A 0.56 0.55 -40.1 0 0 377.16 51.80
  C 389.78 42.46 397.13 38.78 413.55 38.77
  Q 466.28 38.73 519.30 38.76
  A 0.36 0.36 0.0 0 1 519.60 39.31
  L 512.83 50.08
  A 0.28 0.27 -74.0 0 0 513.06 50.50
  L 651.04 50.50
  A 1.68 1.66 -14.8 0 1 652.49 51.33
  L 664.15 71.53
  A 0.46 0.46 0.0 0 0 664.95 71.52
  L 675.70 51.08
  A 1.10 1.08 -75.8 0 1 676.66 50.50
  L 767.89 50.50
  A 2.76 2.69 -25.2 0 1 769.59 51.09
  L 791.11 68.06
  A 0.42 0.42 0.0 0 0 791.79 67.72
  L 791.75 51.09
  A 0.52 0.52 0.0 0 1 792.30 50.57
  C 799.35 50.99 808.34 50.53 813.26 50.52
  Q 889.50 50.46 965.74 50.53
  A 0.51 0.51 0.0 0 1 966.25 51.04
  L 966.25 133.75
  A 0.50 0.50 0.0 0 1 965.75 134.25
  L 805.79 134.25
  A 1.24 1.22 63.2 0 1 805.05 134.00
  L 783.41 117.03
  Q 781.84 115.80 781.83 117.79
  L 781.71 133.77
  A 0.48 0.48 0.0 0 1 781.23 134.25
  L 652.18 134.25
  A 0.99 0.98 73.8 0 1 651.35 133.79
  L 642.93 120.35
  A 0.46 0.45 51.1 0 0 642.22 120.27
  C 629.78 132.71 613.84 134.21 597.25 134.22
  Q 538.80 134.28 480.35 134.24
  A 1.05 1.03 20.1 0 0 479.56 134.60
  Q 477.24 137.21 473.83 138.07
  A 0.81 0.81 0.0 0 0 473.22 138.74
  L 472.22 145.32
  A 0.81 0.80 -85.3 0 1 471.43 146.00
  L 427.93 146.00
  A 0.50 0.50 0.0 0 1 427.44 145.42
  L 428.25 140.33
  Q 428.35 139.73 427.80 139.99
  Z
  M 178.47 89.07
  L 187.04 130.79
  A 0.54 0.53 -5.5 0 0 187.55 131.21
  L 197.71 131.35
  A 0.62 0.61 11.8 0 0 198.27 130.99
  Q 207.86 108.84 217.41 86.67
  Q 218.22 84.79 218.83 83.94
  Q 219.14 83.51 219.16 84.03
  L 221.20 130.61
  A 0.66 0.66 0.0 0 0 221.86 131.25
  L 236.67 131.25
  A 0.64 0.64 0.0 0 0 237.31 130.58
  L 234.10 53.30
  A 0.57 0.56 -0.5 0 0 233.54 52.76
  L 214.94 52.64
  A 0.72 0.72 0.0 0 0 214.26 53.08
  L 196.65 94.33
  A 0.40 0.39 51.7 0 1 195.90 94.24
  L 188.43 53.38
  A 0.84 0.83 85.4 0 0 187.62 52.69
  L 172.73 52.59
  A 0.68 0.67 8.9 0 0 172.09 53.05
  L 151.90 114.81
  A 0.34 0.34 0.0 0 1 151.24 114.76
  L 140.99 53.31
  A 0.69 0.69 0.0 0 0 140.31 52.73
  L 121.58 52.66
  A 0.93 0.92 11.6 0 0 120.73 53.21
  L 91.55 119.26
  A 0.27 0.27 0.0 0 1 91.03 119.11
  L 95.06 93.16
  A 0.57 0.57 0.0 0 0 94.50 92.50
  L 65.66 92.50
  A 0.70 0.69 4.3 0 0 64.97 93.09
  L 62.96 106.74
  A 0.60 0.60 0.0 0 0 63.56 107.43
  L 74.32 107.30
  A 0.88 0.87 -86.4 0 1 75.20 108.31
  L 74.22 114.67
  A 0.61 0.60 1.2 0 1 73.68 115.18
  C 68.56 115.63 62.01 116.77 57.42 114.77
  C 44.25 109.02 44.73 91.73 52.06 81.77
  C 62.48 67.60 82.90 64.29 98.83 69.55
  A 0.47 0.46 13.2 0 0 99.44 69.18
  L 101.71 54.58
  A 0.60 0.60 0.0 0 0 101.33 53.93
  C 67.63 41.42 26.01 64.63 30.89 103.79
  C 33.89 127.83 61.93 137.41 82.32 129.02
  Q 85.06 127.89 87.81 126.65
  Q 88.55 126.32 88.20 127.05
  L 86.51 130.63
  A 0.42 0.42 0.0 0 0 86.89 131.23
  L 102.53 131.29
  A 0.99 0.97 -76.9 0 0 103.43 130.72
  L 113.65 108.52
  A 0.92 0.90 12.0 0 1 114.48 107.99
  L 131.97 108.01
  A 0.56 0.55 85.0 0 1 132.51 108.47
  L 136.44 130.68
  A 0.70 0.70 0.0 0 0 137.13 131.26
  L 163.65 131.27
  A 0.68 0.67 8.9 0 0 164.29 130.81
  L 177.62 89.02
  Q 178.13 87.43 178.47 89.07
  Z
  M 258.57 114.50
  A 0.31 0.31 0.0 0 1 258.26 114.14
  L 260.55 100.76
  A 0.31 0.31 0.0 0 1 260.85 100.50
  L 284.94 100.50
  A 0.31 0.31 0.0 0 0 285.25 100.24
  L 287.73 83.92
  A 0.31 0.31 0.0 0 0 287.42 83.56
  L 263.32 83.56
  A 0.31 0.31 0.0 0 1 263.01 83.21
  L 264.93 69.77
  A 0.31 0.31 0.0 0 1 265.24 69.50
  L 293.12 69.50
  A 0.31 0.31 0.0 0 0 293.43 69.24
  L 295.97 52.86
  A 0.31 0.31 0.0 0 0 295.67 52.50
  L 251.49 52.50
  A 0.31 0.31 0.0 0 0 251.19 52.76
  L 238.76 130.89
  A 0.31 0.31 0.0 0 0 239.06 131.25
  L 283.56 131.25
  A 0.31 0.31 0.0 0 0 283.86 130.99
  L 286.58 114.86
  A 0.31 0.31 0.0 0 0 286.27 114.50
  L 258.57 114.50
  Z
  M 396.6878 132.0918
  A 40.43 33.40 103.2 0 0 438.4375 100.3569
  A 40.43 33.40 103.2 0 0 415.1522 53.3682
  A 40.43 33.40 103.2 0 0 373.4025 85.1031
  A 40.43 33.40 103.2 0 0 396.6878 132.0918
  Z
  M 449.64 94.63
  L 443.77 130.75
  A 0.48 0.48 0.0 0 0 444.25 131.31
  L 459.53 131.23
  A 0.63 0.62 4.3 0 0 460.15 130.70
  Q 462.49 116.12 464.46 101.43
  Q 464.78 99.03 466.07 96.97
  Q 479.79 74.99 493.76 53.06
  A 0.37 0.37 0.0 0 0 493.45 52.49
  L 475.75 52.52
  A 1.02 1.00 -73.5 0 0 474.90 52.99
  L 459.56 77.61
  Q 459.15 78.27 458.87 77.55
  L 449.26 52.91
  A 0.64 0.63 79.1 0 0 448.67 52.50
  L 431.03 52.50
  A 0.34 0.33 77.5 0 0 430.73 52.98
  L 449.49 93.58
  A 1.77 1.76 -53.4 0 1 449.64 94.63
  Z
  M 320.48 54.69
  Q 314.39 92.67 308.39 130.71
  A 0.43 0.43 0.0 0 0 308.82 131.21
  Q 324.88 131.26 340.99 131.27
  Q 347.29 131.27 350.92 130.08
  C 367.58 124.59 376.74 105.65 362.23 91.62
  A 0.87 0.86 45.2 0 1 362.23 90.37
  C 370.72 82.20 374.38 70.18 365.43 60.58
  C 360.42 55.21 355.73 53.22 348.06 53.24
  Q 335.10 53.27 321.01 53.22
  A 0.52 0.52 0.0 0 0 320.50 53.81
  Q 320.55 54.23 320.48 54.69
  Z
  M 637.65 85.74
  Q 637.51 83.90 638.47 85.48
  L 658.88 119.24
  A 1.09 1.08 -15.7 0 0 659.83 119.77
  L 669.33 119.71
  A 0.95 0.95 0.0 0 0 670.13 119.24
  L 701.41 65.19
  Q 701.89 64.35 700.93 64.38
  Q 694.60 64.58 687.77 64.51
  C 685.80 64.49 685.13 63.98 684.01 66.00
  Q 674.59 83.06 665.29 99.96
  A 0.40 0.40 0.0 0 1 664.59 99.97
  L 644.27 64.95
  A 0.90 0.90 0.0 0 0 643.49 64.50
  L 626.47 64.50
  Q 625.69 64.50 626.10 65.16
  L 629.91 71.30
  A 0.20 0.20 0.0 0 1 629.62 71.57
  Q 619.84 64.56 607.49 64.51
  Q 588.40 64.43 569.24 64.54
  A 0.49 0.49 0.0 0 0 568.75 65.03
  L 568.75 109.24
  A 0.29 0.28 29.9 0 1 568.22 109.38
  Q 555.26 87.78 542.21 66.31
  C 541.50 65.15 541.45 64.51 539.81 64.40
  Q 533.26 63.95 527.45 64.56
  A 1.04 1.03 11.8 0 0 526.68 65.06
  L 494.49 119.25
  A 0.33 0.33 0.0 0 0 494.78 119.75
  L 532.87 119.75
  A 0.63 0.63 0.0 0 0 533.50 119.12
  L 533.50 108.00
  A 0.50 0.50 0.0 0 0 533.00 107.50
  L 518.24 107.50
  A 0.46 0.46 0.0 0 1 517.84 106.82
  L 533.01 79.56
  A 0.37 0.37 0.0 0 1 533.66 79.56
  L 556.10 119.24
  A 0.91 0.89 75.0 0 0 556.88 119.70
  Q 579.32 119.82 601.75 119.80
  C 621.23 119.78 640.03 113.16 637.95 89.44
  Q 637.75 87.06 637.65 85.74
  Z
  M 702.34 106.60
  L 717.36 79.37
  Q 717.61 78.92 717.87 79.37
  L 740.41 119.31
  A 0.87 0.86 75.0 0 0 741.16 119.75
  L 767.03 119.75
  A 0.77 0.77 0.0 0 0 767.80 118.98
  L 767.73 87.02
  Q 767.73 86.19 768.37 86.71
  Q 788.28 102.58 807.66 118.37
  C 810.38 120.59 817.08 119.82 820.01 119.51
  A 0.55 0.54 -2.9 0 0 820.50 118.97
  L 820.50 64.96
  A 0.54 0.53 89.5 0 0 819.96 64.42
  L 806.60 64.47
  A 0.61 0.61 0.0 0 0 806.00 65.08
  L 806.00 96.43
  A 0.44 0.44 0.0 0 1 805.29 96.78
  L 764.23 64.59
  A 1.72 1.69 -25.6 0 0 763.18 64.23
  L 753.67 64.29
  A 0.72 0.72 0.0 0 0 752.95 65.01
  L 753.10 109.23
  A 0.26 0.26 0.0 0 1 752.62 109.37
  L 725.67 64.87
  A 1.20 1.19 74.3 0 0 724.65 64.29
  L 712.08 64.27
  A 1.21 1.20 15.2 0 0 711.04 64.86
  L 678.94 119.11
  A 0.29 0.29 0.0 0 0 679.18 119.55
  Q 692.20 120.03 705.22 119.53
  C 708.64 119.40 713.19 120.02 717.30 119.41
  A 0.61 0.60 85.6 0 0 717.81 118.81
  L 717.72 107.74
  A 0.49 0.49 0.0 0 0 717.23 107.25
  L 702.72 107.25
  A 0.44 0.44 0.0 0 1 702.34 106.60
  Z
  M 841.25 105.75
  L 841.25 77.75
  A 0.50 0.50 0.0 0 1 841.75 77.25
  L 871.29 77.25
  A 0.77 0.77 0.0 0 1 872.06 78.04
  L 871.86 84.18
  A 0.56 0.56 0.0 0 0 872.42 84.75
  L 887.46 84.75
  A 0.60 0.60 0.0 0 0 888.06 84.17
  C 888.47 70.18 887.07 64.41 871.75 64.31
  Q 848.68 64.17 836.06 64.56
  C 829.47 64.77 826.04 69.36 825.65 75.72
  Q 824.64 92.17 825.65 108.66
  C 826.05 115.24 829.44 119.08 836.19 119.31
  Q 852.96 119.88 869.75 119.79
  C 876.74 119.75 885.13 119.86 887.30 111.74
  Q 888.51 107.20 888.00 98.60
  A 0.65 0.65 0.0 0 0 887.37 97.99
  L 872.57 97.68
  A 0.51 0.51 0.0 0 0 872.05 98.18
  L 871.88 105.69
  A 0.57 0.57 0.0 0 1 871.31 106.25
  L 841.75 106.25
  A 0.50 0.50 0.0 0 1 841.25 105.75
  Z
  M 909.80 106.75
  A 0.57 0.57 0.0 0 1 909.23 106.18
  L 909.30 97.57
  A 0.57 0.57 0.0 0 1 909.87 97.00
  L 933.93 97.00
  A 0.57 0.57 0.0 0 0 934.50 96.43
  L 934.50 85.32
  A 0.57 0.57 0.0 0 0 933.93 84.75
  L 909.80 84.75
  A 0.57 0.57 0.0 0 1 909.23 84.17
  L 909.30 77.55
  A 0.57 0.57 0.0 0 1 909.87 76.99
  L 951.68 77.01
  A 0.57 0.57 0.0 0 0 952.25 76.44
  L 952.25 64.84
  A 0.57 0.57 0.0 0 0 951.68 64.27
  L 893.82 64.24
  A 0.57 0.57 0.0 0 0 893.25 64.81
  L 893.25 118.93
  A 0.57 0.57 0.0 0 0 893.82 119.50
  L 952.54 119.50
  A 0.57 0.57 0.0 0 0 953.11 118.92
  L 952.99 107.31
  A 0.57 0.57 0.0 0 0 952.42 106.75
  L 909.80 106.75
  Z
  M 479.73 124.21
  A 7.80 7.80 0.0 0 0 471.93 116.41
  A 7.80 7.80 0.0 0 0 464.13 124.21
  A 7.80 7.80 0.0 0 0 471.93 132.01
  A 7.80 7.80 0.0 0 0 479.73 124.21
  Z"
/>
<ellipse cx="0.00" cy="0.00" transform="translate(405.87,92.64) rotate(104.0)" rx="24.96" ry="16.74"/>
<path d="
  M 334.70 69.98
  A 0.25 0.23 -83.9 0 1 334.93 69.78
  C 338.98 69.71 345.83 69.03 349.22 70.69
  C 353.33 72.72 353.28 77.56 350.71 80.86
  C 347.41 85.09 339.46 84.58 332.70 84.19
  A 0.43 0.43 0.0 0 1 332.30 83.69
  L 334.70 69.98
  Z"
/>
<path d="
  M 584.51 77.48
  A 0.47 0.47 0.0 0 1 584.98 77.01
  Q 595.51 76.98 606.25 77.01
  C 613.62 77.02 620.22 80.00 621.60 87.87
  C 623.90 100.92 616.49 105.52 604.98 106.39
  Q 594.98 107.15 585.03 106.54
  A 0.58 0.58 0.0 0 1 584.49 105.96
  L 584.51 77.48
  Z"
/>
<path d="
  M 127.23 78.46
  L 129.90 92.13
  A 0.31 0.31 0.0 0 1 129.59 92.50
  L 120.66 92.50
  A 0.31 0.31 0.0 0 1 120.38 92.06
  L 126.65 78.39
  A 0.31 0.31 0.0 0 1 127.23 78.46
  Z"
/>
<path d="
  M 327.34 115.67
  C 327.88 111.30 328.34 105.18 329.60 101.06
  A 0.72 0.72 0.0 0 1 330.26 100.55
  C 337.03 100.31 348.90 99.06 351.64 104.95
  C 353.96 109.94 349.99 114.98 344.99 115.76
  Q 338.97 116.69 327.78 116.19
  A 0.47 0.46 -85.4 0 1 327.34 115.67
  Z"
/>
<path d="
  M 478.28 124.17
  A 6.40 6.40 0.0 0 1 471.88 130.57
  A 6.40 6.40 0.0 0 1 465.48 124.17
  A 6.40 6.40 0.0 0 1 471.88 117.77
  A 6.40 6.40 0.0 0 1 478.28 124.17
  Z
  M 471.07 124.49
  L 471.61 124.74
  A 1.36 1.35 -86.5 0 1 472.33 125.56
  Q 472.89 127.37 474.46 128.28
  Q 475.58 128.92 475.05 127.74
  Q 474.51 126.52 473.55 125.61
  A 0.55 0.55 0.0 0 1 473.61 124.76
  L 475.26 123.62
  A 1.14 1.11 -18.3 0 0 475.73 122.71
  C 475.75 119.14 471.19 119.04 469.16 120.41
  A 1.02 1.01 -17.7 0 0 468.71 121.27
  L 468.86 128.15
  A 0.36 0.35 88.4 0 0 469.22 128.50
  L 469.51 128.50
  A 0.56 0.55 -87.7 0 0 470.05 128.00
  L 470.39 124.87
  A 0.48 0.48 0.0 0 1 471.07 124.49
  Z"
/>
<ellipse cx="0.00" cy="0.00" transform="translate(472.10,122.07) rotate(0.8)" rx="2.09" ry="1.30"/>
<path d="
  M 776.05 173.41
  A 0.18 0.18 0.0 0 0 776.37 173.45
  C 786.75 157.85 803.66 147.98 822.42 146.67
  C 830.56 146.10 837.07 147.97 845.94 150.34
  C 849.90 151.40 854.56 148.82 858.80 148.78
  Q 866.12 148.71 873.43 148.76
  C 876.95 148.79 880.12 149.77 883.48 150.64
  C 885.45 151.16 886.50 152.52 888.16 153.61
  A 0.72 0.71 42.5 0 0 888.99 153.58
  L 891.99 151.25
  Q 892.39 150.94 892.88 150.82
  Q 895.68 150.09 898.49 149.43
  C 905.58 147.78 915.03 148.74 922.40 148.77
  C 926.30 148.79 932.79 149.80 936.06 152.00
  C 942.81 156.54 945.30 165.51 942.62 172.85
  Q 941.24 176.62 934.83 184.00
  Q 926.62 193.47 918.63 203.13
  A 0.60 0.60 0.0 0 0 918.63 203.89
  C 925.85 212.60 932.99 222.49 941.02 230.43
  C 944.52 233.88 946.47 241.07 945.77 245.86
  Q 943.41 261.93 925.80 262.26
  C 914.20 262.49 905.00 263.03 896.42 260.66
  C 893.70 259.90 892.01 258.31 889.89 256.58
  A 0.62 0.62 0.0 0 0 889.11 256.57
  C 886.97 258.26 885.28 259.96 882.52 260.60
  C 874.13 262.56 862.67 263.42 854.23 261.56
  C 851.25 260.90 848.81 259.74 845.72 260.53
  C 842.34 261.40 838.60 262.49 835.39 262.99
  Q 815.04 266.15 796.77 256.53
  A 0.72 0.71 -52.4 0 0 795.96 256.64
  C 794.25 258.18 792.51 259.78 790.25 260.46
  C 781.68 263.04 769.00 263.04 760.22 261.56
  C 752.95 260.34 747.92 256.22 745.06 249.52
  A 0.85 0.84 78.4 0 0 744.28 249.00
  L 742.13 248.99
  A 0.86 0.85 10.4 0 0 741.33 249.54
  C 738.83 256.08 734.50 259.92 727.39 261.31
  C 717.03 263.34 706.17 261.73 695.28 261.91
  C 684.31 262.09 669.34 264.63 662.33 254.55
  A 0.49 0.49 0.0 0 0 661.53 254.55
  L 660.32 256.34
  Q 660.04 256.77 659.62 257.07
  Q 658.23 258.10 656.83 259.12
  C 650.69 263.58 624.98 263.53 618.60 259.53
  C 612.39 255.63 609.28 248.50 609.27 241.34
  Q 609.22 206.18 609.27 171.03
  C 609.29 158.03 615.82 148.91 629.66 148.79
  C 640.39 148.69 654.15 146.56 661.69 156.37
  A 0.37 0.37 0.0 0 0 662.28 156.37
  Q 664.14 153.91 666.58 152.14
  C 673.28 147.29 698.77 147.28 705.68 151.61
  Q 712.62 155.97 713.77 164.29
  A 0.37 0.37 0.0 0 0 714.49 164.33
  Q 716.48 156.94 722.18 152.48
  C 728.81 147.28 757.11 147.05 763.91 151.78
  C 771.41 156.99 773.12 165.16 776.05 173.41
  Z
  M 794.19 179.69
  C 782.04 193.88 781.08 218.58 795.03 232.51
  Q 815.33 252.79 843.27 242.46
  A 0.72 0.72 0.0 0 0 843.73 241.79
  L 843.79 220.29
  Q 843.80 218.63 842.66 219.84
  C 835.98 226.94 824.41 228.58 815.94 224.09
  C 804.84 218.21 802.42 201.58 809.81 192.09
  C 818.30 181.17 834.48 181.91 843.26 191.71
  A 0.31 0.31 0.0 0 0 843.80 191.50
  L 843.73 169.23
  A 0.86 0.86 0.0 0 0 843.19 168.45
  Q 833.22 164.59 826.04 164.57
  Q 807.16 164.52 794.19 179.69
  Z
  M 647.82 196.55
  A 0.32 0.32 0.0 0 1 647.50 196.23
  L 647.50 167.07
  A 0.32 0.32 0.0 0 0 647.18 166.75
  L 627.57 166.75
  A 0.32 0.32 0.0 0 0 627.25 167.07
  L 627.25 243.74
  A 0.32 0.32 0.0 0 0 627.57 244.06
  L 647.18 243.97
  A 0.32 0.32 0.0 0 0 647.50 243.65
  L 647.50 212.86
  A 0.32 0.32 0.0 0 1 647.82 212.54
  L 676.20 212.29
  A 0.32 0.32 0.0 0 1 676.52 212.61
  L 676.49 243.71
  A 0.32 0.32 0.0 0 0 676.81 244.03
  L 696.18 243.99
  A 0.32 0.32 0.0 0 0 696.50 243.67
  L 696.50 167.07
  A 0.32 0.32 0.0 0 0 696.18 166.75
  L 676.82 166.75
  A 0.32 0.32 0.0 0 0 676.50 167.07
  L 676.50 196.21
  A 0.32 0.32 0.0 0 1 676.18 196.53
  L 647.82 196.55
  Z
  M 756.83 230.50
  A 0.50 0.50 0.0 0 1 757.30 230.82
  L 762.11 243.68
  A 0.50 0.50 0.0 0 0 762.58 244.00
  L 782.76 244.00
  A 0.50 0.50 0.0 0 0 783.23 243.32
  L 754.53 167.07
  A 0.50 0.50 0.0 0 0 754.06 166.75
  L 732.96 166.75
  A 0.50 0.50 0.0 0 0 732.50 167.07
  L 703.15 243.36
  A 0.50 0.50 0.0 0 0 703.62 244.04
  L 723.71 243.98
  A 0.50 0.50 0.0 0 0 724.17 243.67
  L 729.26 230.82
  A 0.50 0.50 0.0 0 1 729.73 230.50
  L 756.83 230.50
  Z
  M 876.82 198.43
  A 0.30 0.30 0.0 0 1 876.28 198.25
  L 876.23 167.05
  A 0.30 0.30 0.0 0 0 875.93 166.75
  L 856.72 166.75
  A 0.30 0.30 0.0 0 0 856.42 167.05
  L 856.31 243.75
  A 0.30 0.30 0.0 0 0 856.61 244.05
  L 875.95 243.99
  A 0.30 0.30 0.0 0 0 876.25 243.69
  L 876.25 210.87
  A 0.30 0.30 0.0 0 1 876.79 210.68
  L 902.48 243.91
  A 0.30 0.30 0.0 0 0 902.72 244.03
  L 927.77 243.98
  A 0.30 0.30 0.0 0 0 928.00 243.49
  L 895.08 203.53
  A 0.30 0.30 0.0 0 1 895.08 203.15
  L 925.25 167.24
  A 0.30 0.30 0.0 0 0 925.02 166.75
  L 901.11 166.75
  A 0.30 0.30 0.0 0 0 900.87 166.87
  L 876.82 198.43
  Z
  M 824.58 202.60
  Q 822.95 205.26 824.35 208.04
  A 0.86 0.84 76.0 0 0 825.10 208.50
  L 827.72 208.51
  A 1.37 1.36 -65.7 0 0 828.63 208.16
  L 831.27 205.83
  A 0.48 0.47 -37.8 0 0 831.35 205.23
  Q 829.15 201.93 825.24 202.21
  A 0.86 0.85 14.1 0 0 824.58 202.60
  Z"
/>
<path d="
  M 735.06 214.83
  L 743.13 191.05
  A 0.30 0.30 0.0 0 1 743.70 191.05
  L 751.61 214.88
  A 0.30 0.30 0.0 0 1 751.32 215.28
  L 735.34 215.22
  A 0.30 0.30 0.0 0 1 735.06 214.83
  Z"
/>
</g>
</svg>
