<svg height="187.418" width="1337.504" xmlns="http://www.w3.org/2000/svg">
    <path d="M201.23 82.846q-3.602 9.488-7.344 18.513-3.472 8.793-8.256 17.356-4.784 8.562-11.106 16.893-6.052 8.099-14.59 16.198-18.78 18.05-39.746 26.15-20.739 8.1-42.205 8.1-20.11 0-34.43-6.711Q29.23 172.634 21.34 160.6q-7.847-12.265-8.717-29.158-.87-16.893 6.191-37.489 7.42-21.29 19.968-38.645Q51.558 37.952 67.89 25.687q16.33-12.265 35.677-18.976Q122.913 0 143.475 0q26.437 0 41.966 12.265 15.573 12.033 18.16 36.563l-48.155 18.05q-.346-12.496-7.035-20.133-6.69-7.636-20.247-7.636-10.846 0-21.03 4.86-9.957 4.859-18.225 12.727T74.464 74.515q-6.132 9.72-9.597 19.67-3.509 10.182-4.037 20.133-.483 9.719 2.59 17.356 3.3 7.636 10.063 12.496 6.807 4.628 17.652 4.628 14.462 0 26.935-7.405 12.517-7.637 19.023-22.91H100.94l12.394-35.637z" fill="#ff004f"/>
    <path d="M246.933 73.454h5.525q4.77 0 9.624-.463 5.144-.694 9.448-2.314 4.345-1.851 7.68-5.091 3.625-3.471 5.61-9.025 2.067-6.017.63-9.256-1.395-3.472-4.876-5.092-3.44-1.85-8.421-2.082-4.94-.463-9.963-.463h-3.516zM160.67 179.44 221.361 4.956h70.312q12.555 0 22.15 2.546 9.636 2.314 14.974 7.636 5.589 5.323 6.547 14.116 1.25 8.563-3.216 21.059-4.093 11.802-12.005 21.058-7.661 9.257-21.156 14.58l-.082.462q19.388 2.546 24.335 14.348 5.199 11.802-1.294 30.083-4.67 13.653-13.88 23.141-9.167 9.257-20.735 15.042-11.527 5.554-24.784 8.1-12.964 2.313-26.021 2.313zm61.374-34.711h6.277q5.525 0 12.346-.232 6.82-.231 13.384-1.851 6.564-1.62 11.738-5.322 5.466-3.934 7.988-11.108 2.896-7.868.075-11.802-2.57-3.934-8.31-5.554-5.49-1.62-12.521-1.62h-18.08z" fill="#7942ba"/>
    <path d="M459.164 63.503q-3.93-9.488-13.457-14.347-9.287-4.86-21.561-4.86-10.831 0-21.085 3.703-10.013 3.702-18.61 10.413-8.558 6.48-15.1 15.273-6.303 8.794-9.71 18.976-3.448 10.414-2.77 19.207.717 8.562 4.955 14.81 4.478 6.249 12.275 9.951 7.837 3.471 18.908 3.471 11.553 0 23.928-4.86 12.655-5.09 23.01-13.652l-18.35 54.381q-12.862 3.471-23.122 5.785-10.019 2.315-21.09 2.315-19.014 0-34.284-6.48-15.23-6.71-25.39-19.207-10.765-13.19-12.317-29.62-1.272-16.662 5.427-36.332 5.943-18.05 18.11-34.48 12.408-16.43 29.764-29.39 17.877-13.19 38.626-20.595Q418.109.328 437.363.328q11.553 0 21.03 2.314 9.717 2.314 19.12 6.48z" fill="#aae000"/>
    <path d="m545.239 144.21-14.612 37.239h-125.13l93.194-75.151q4.925-4.038 10.018-8.75 5.148-4.934 9.733-10.094 4.64-5.384 8.303-10.992 3.72-5.833 5.993-11.665 1.621-4.038 1.742-7.852.383-4.038-.696-7.179-1.079-3.14-3.73-4.935-2.39-2.019-6.314-2.019-8.26 0-15.131 6.057-6.666 6.057-10.02 14.582l-1.304 3.589-.891 3.59h-44.601q6.303-14.582 15.243-26.472 9.2-12.114 20.402-20.638 11.201-8.525 23.934-13.236 12.939-4.711 26.773-4.711 12.183 0 21.45 4.262 9.266 4.263 14.338 12.114 5.333 7.627 5.647 18.844.52 11.217-4.942 24.9-3.522 9.198-8.25 16.601-4.466 7.179-10.417 13.685-5.689 6.28-12.711 12.114-6.817 5.832-15.078 11.665l-33.945 24.452z" fill="gray"/>
    <g fill="#3c3f8b">
        <path d="M603.69 86.13h6.968q5.702 0 11.028-.231 5.585-.463 10.399-2.314 4.86-2.083 8.88-6.249 4.068-4.396 6.781-12.496 2.972-8.33 1.971-12.728-.742-4.628-4.117-6.71-3.375-2.083-8.818-2.315-5.184-.462-11.097-.462h-6.969zM590.087 6.061h63.352q12.881 0 22.307 3.472 9.473 3.24 14.599 10.182 5.336 6.942 5.645 17.818.52 10.877-4.67 25.919-10.781 31.009-30.352 45.125-19.36 14.116-46.601 14.116h-23.44l-20.286 57.853h-41.39z"/>
        <path d="M683.95 142.375h54.564L725.45 180.79H625.376L684.929 6.304h45.509z"/>
        <path d="M836.288 60.224h-.47l-37.802 55.539h38.248zm-62.75 90.25-22.522 30.316H702.21L829.219 6.305h50.216l7.68 174.485h-49.042l-1.178-30.315z"/>
        <path d="M879.279 6.305h51.456l15.153 47.44 46.593-47.44h51.456L952.83 97.02l-27.868 83.77h-42.916l27.867-83.77z"/>
        <path d="m1041.806 44.72-10.497 29.157h50.194l-13.751 38.415h-50.194l-10.914 30.083h52.92l-13.751 38.415h-97.437l62.665-174.485h97.436l-13.75 38.414z"/>
        <path d="M1121.347 84.522h4.304q5.436 0 11.24-.694 5.804-.695 11.032-3.009t9.474-6.48q4.294-4.396 6.888-11.57 2.594-7.174 1.177-11.339-1.143-4.397-4.748-6.711-3.606-2.314-8.9-3.008-5.069-.695-10.505-.695h-4.304zm63.063 96.268h-55.268l-17.813-67.11h-.453l-24.09 67.11h-44.396L1104.89 6.305h66.367q12.684 0 22.217 3.24 9.806 3.008 15.461 9.719 5.702 6.48 6.572 16.661.87 10.182-3.997 24.067-3.198 9.025-8.745 17.356-5.275 8.1-12.531 14.81-6.983 6.48-15.627 11.108-8.597 4.397-18.214 6.017z"/>
        <path d="M1304.149 53.198q-4.409-5.322-10.886-8.33-6.431-3.24-14.662-3.24-3.2 0-7.046.925-3.617.926-7.193 2.777-3.347 1.852-6.196 4.629-2.802 2.545-4.01 6.248-1.483 3.934-.445 6.71 1.084 2.546 3.406 4.629 2.368 1.851 5.288 3.24 2.966 1.157 5.522 2.082l10.27 3.472q7.896 2.777 14.187 6.71 6.565 3.703 10.24 9.257 3.905 5.554 4.14 13.422.51 7.637-3.248 18.282-4.73 13.19-12.979 25.687-8.248 12.496-21.69 21.29-13.441 8.793-27.68 12.496-14.058 3.934-27.09 3.934-16.46 0-30.06-5.091-13.554-5.323-23.52-14.81l32.33-36.564q5.815 7.405 13.653 12.728 8.066 5.322 19.726 5.322 3.887 0 8.19-.925 4.35-1.157 8.2-3.24 3.852-2.083 6.795-5.323 3.218-3.47 4.842-8.1 1.67-4.859.041-8.099-1.63-3.24-5.047-5.553-3.418-2.315-7.71-3.703-4.061-1.389-7.256-2.546-9.45-3.008-17.024-6.248-7.299-3.47-11.478-8.793-4.18-5.323-4.596-13.422-.417-8.1 4.22-20.827 4.731-13.191 13.108-24.067 8.377-10.877 18.84-18.513 10.693-7.637 22.969-11.803 12.504-4.165 25.535-4.165 13.032 0 26.18 3.934 13.425 3.703 22.582 10.414z"/>
    </g>
</svg>
