<?xml version="1.0" encoding="UTF-8" standalone="no"?>
<!-- Created by ERK -->

<svg
   version="1.2"
   width="934.5766"
   height="221.82332"
   xml:space="preserve"
   id="svg14"
   sodipodi:docname="gbc_new.svg"
   inkscape:version="1.4 (86a8ad7, 2024-10-11)"
   xmlns:inkscape="http://www.inkscape.org/namespaces/inkscape"
   xmlns:sodipodi="http://sodipodi.sourceforge.net/DTD/sodipodi-0.dtd"
   xmlns="http://www.w3.org/2000/svg"
   xmlns:svg="http://www.w3.org/2000/svg"><defs
   id="defs14"><linearGradient
     id="f-0"
     gradientUnits="userSpaceOnUse"
     x1="538.59802"
     y1="-0.713"
     x2="538.59802"
     y2="98.787003"
     gradientTransform="translate(-9.5978415e-4,-6.4086473e-4)"><stop
       offset=".005"
       style="stop-color:#2e5c92"
       id="stop11-9" /><stop
       offset="1"
       style="stop-color:#2e3192"
       id="stop12-4" /></linearGradient><linearGradient
     id="g-8"
     gradientUnits="userSpaceOnUse"
     x1="539.14398"
     y1="-0.713"
     x2="539.14398"
     y2="98.787003"
     gradientTransform="translate(-9.5978415e-4,-6.4086473e-4)"><stop
       offset=".005"
       style="stop-color:#2e5c92"
       id="stop13-8" /><stop
       offset="1"
       style="stop-color:#2e3192"
       id="stop14-2" /></linearGradient><linearGradient
     id="a-4"
     gradientUnits="userSpaceOnUse"
     x1="527.771"
     y1="-0.713"
     x2="527.771"
     y2="98.787003"
     gradientTransform="translate(-9.5978415e-4,-6.4086473e-4)"><stop
       offset=".005"
       style="stop-color:#2e5c92"
       id="stop15" /><stop
       offset="1"
       style="stop-color:#2e3192"
       id="stop16" /></linearGradient><linearGradient
     id="d-5"
     gradientUnits="userSpaceOnUse"
     x1="458.99399"
     y1="-0.713"
     x2="458.99399"
     y2="98.787003"
     gradientTransform="translate(-9.5978415e-4,-6.4086473e-4)"><stop
       offset=".005"
       style="stop-color:#2e5c92"
       id="stop17" /><stop
       offset="1"
       style="stop-color:#2e3192"
       id="stop18" /></linearGradient><linearGradient
     id="linearGradient1"
     gradientUnits="userSpaceOnUse"
     x1="378.92099"
     y1="-0.713"
     x2="378.92099"
     y2="98.787003"><stop
       offset=".005"
       style="stop-color:#2e5c92"
       id="stop19" /><stop
       offset="1"
       style="stop-color:#2e3192"
       id="stop20" /></linearGradient><linearGradient
     id="b-5"
     gradientUnits="userSpaceOnUse"
     x1="290.73801"
     y1="-0.713"
     x2="290.73801"
     y2="98.787003"
     gradientTransform="translate(-9.5978415e-4,-6.4086473e-4)"><stop
       offset=".005"
       style="stop-color:#2e5c92"
       id="stop21" /><stop
       offset="1"
       style="stop-color:#2e3192"
       id="stop22" /></linearGradient><linearGradient
     id="c-1"
     gradientUnits="userSpaceOnUse"
     x1="127.571"
     y1="-0.713"
     x2="127.571"
     y2="98.787003"
     gradientTransform="matrix(0.99999769,0,0,0.99999769,-9.5978193e-4,-6.4086325e-4)"><stop
       offset=".005"
       style="stop-color:#2e5c92"
       id="stop23" /><stop
       offset="1"
       style="stop-color:#2e3192"
       id="stop24" /></linearGradient><filter
     style="color-interpolation-filters:sRGB"
     inkscape:label="Drop Shadow"
     id="filter128-4-3"
     x="-0.25372537"
     y="-0.26650401"
     width="1.5074508"
     height="1.5330095"><feFlood
       result="flood"
       in="SourceGraphic"
       flood-opacity="0.498039"
       flood-color="rgb(0,0,0)"
       id="feFlood127-5-8" /><feGaussianBlur
       result="blur"
       in="SourceGraphic"
       stdDeviation="1.000000"
       id="feGaussianBlur127-5-9" /><feOffset
       result="offset"
       in="blur"
       dx="0.000000"
       dy="0.000000"
       id="feOffset127-1-3" /><feComposite
       result="comp1"
       operator="in"
       in="flood"
       in2="offset"
       id="feComposite127-7-4" /><feComposite
       result="fbSourceGraphic"
       operator="over"
       in="SourceGraphic"
       in2="comp1"
       id="feComposite128-1-4" /><feColorMatrix
       result="fbSourceGraphicAlpha"
       in="fbSourceGraphic"
       values="0 0 0 -1 0 0 0 0 -1 0 0 0 0 -1 0 0 0 0 1 0"
       id="feColorMatrix128-1-6" /><feFlood
       id="feFlood128-5-0"
       result="flood"
       in="fbSourceGraphic"
       flood-opacity="0.498039"
       flood-color="rgb(0,0,0)" /><feGaussianBlur
       id="feGaussianBlur128-2-6"
       result="blur"
       in="fbSourceGraphic"
       stdDeviation="1.000000" /><feOffset
       id="feOffset128-7-6"
       result="offset"
       in="blur"
       dx="0.000000"
       dy="0.000000" /><feComposite
       id="feComposite129-6-1"
       result="comp1"
       operator="in"
       in="flood"
       in2="offset" /><feComposite
       id="feComposite130-1-8"
       result="fbSourceGraphic"
       operator="over"
       in="fbSourceGraphic"
       in2="comp1" /><feColorMatrix
       result="fbSourceGraphicAlpha"
       in="fbSourceGraphic"
       values="0 0 0 -1 0 0 0 0 -1 0 0 0 0 -1 0 0 0 0 1 0"
       id="feColorMatrix136-4-4" /><feFlood
       id="feFlood136-2-9"
       result="flood"
       in="fbSourceGraphic"
       flood-opacity="0.498039"
       flood-color="rgb(0,0,0)" /><feGaussianBlur
       id="feGaussianBlur136-3-6"
       result="blur"
       in="fbSourceGraphic"
       stdDeviation="5.000000" /><feOffset
       id="feOffset136-2-3"
       result="offset"
       in="blur"
       dx="0.000000"
       dy="0.000000" /><feComposite
       id="feComposite136-2-7"
       result="comp1"
       operator="in"
       in="flood"
       in2="offset" /><feComposite
       id="feComposite137-1-8"
       result="fbSourceGraphic"
       operator="over"
       in="fbSourceGraphic"
       in2="comp1" /><feColorMatrix
       result="fbSourceGraphicAlpha"
       in="fbSourceGraphic"
       values="0 0 0 -1 0 0 0 0 -1 0 0 0 0 -1 0 0 0 0 1 0"
       id="feColorMatrix137-6-8" /><feFlood
       id="feFlood137-8-2"
       result="flood"
       in="fbSourceGraphic"
       flood-opacity="0.498039"
       flood-color="rgb(0,0,0)" /><feGaussianBlur
       id="feGaussianBlur137-5-9"
       result="blur"
       in="fbSourceGraphic"
       stdDeviation="0.100000" /><feOffset
       id="feOffset137-7-1"
       result="offset"
       in="blur"
       dx="0.000000"
       dy="0.000000" /><feComposite
       id="feComposite138-6-3"
       result="comp1"
       operator="in"
       in="flood"
       in2="offset" /><feComposite
       id="feComposite139-1-5"
       result="comp2"
       operator="over"
       in="fbSourceGraphic"
       in2="comp1" /></filter></defs><sodipodi:namedview
   id="namedview14"
   pagecolor="#ffffff"
   bordercolor="#000000"
   borderopacity="0.25"
   inkscape:showpageshadow="2"
   inkscape:pageopacity="0.0"
   inkscape:pagecheckerboard="true"
   inkscape:deskcolor="#d1d1d1"
   inkscape:zoom="1.1568319"
   inkscape:cx="460.7411"
   inkscape:cy="51.433575"
   inkscape:window-width="3840"
   inkscape:window-height="2066"
   inkscape:window-x="-11"
   inkscape:window-y="-11"
   inkscape:window-maximized="1"
   inkscape:current-layer="svg14" />
    <linearGradient
   id="a"
   gradientUnits="userSpaceOnUse"
   x1="527.771"
   y1="-0.713"
   x2="527.771"
   y2="98.787003">
        <stop
   offset=".005"
   style="stop-color:#2e5c92"
   id="stop1" />
        <stop
   offset="1"
   style="stop-color:#2e3192"
   id="stop2" />
    </linearGradient>
    
    <linearGradient
   id="b"
   gradientUnits="userSpaceOnUse"
   x1="290.73801"
   y1="-0.713"
   x2="290.73801"
   y2="98.787003">
        <stop
   offset=".005"
   style="stop-color:#2e5c92"
   id="stop3" />
        <stop
   offset="1"
   style="stop-color:#2e3192"
   id="stop4" />
    </linearGradient>
    
    <linearGradient
   id="c"
   gradientUnits="userSpaceOnUse"
   x1="127.571"
   y1="-0.713"
   x2="127.571"
   y2="98.787003">
        <stop
   offset=".005"
   style="stop-color:#2e5c92"
   id="stop5" />
        <stop
   offset="1"
   style="stop-color:#2e3192"
   id="stop6" />
    </linearGradient>
    
    <linearGradient
   id="d"
   gradientUnits="userSpaceOnUse"
   x1="458.99399"
   y1="-0.713"
   x2="458.99399"
   y2="98.787003">
        <stop
   offset=".005"
   style="stop-color:#2e5c92"
   id="stop7" />
        <stop
   offset="1"
   style="stop-color:#2e3192"
   id="stop8" />
    </linearGradient>
    
    <linearGradient
   id="e"
   gradientUnits="userSpaceOnUse"
   x1="378.92099"
   y1="-0.713"
   x2="378.92099"
   y2="98.787003">
        <stop
   offset=".005"
   style="stop-color:#2e5c92"
   id="stop9" />
        <stop
   offset="1"
   style="stop-color:#2e3192"
   id="stop10" />
    </linearGradient>
    
    <linearGradient
   id="f"
   gradientUnits="userSpaceOnUse"
   x1="538.59802"
   y1="-0.713"
   x2="538.59802"
   y2="98.787003">
        <stop
   offset=".005"
   style="stop-color:#2e5c92"
   id="stop11" />
        <stop
   offset="1"
   style="stop-color:#2e3192"
   id="stop12" />
    </linearGradient>
    
    <linearGradient
   id="g"
   gradientUnits="userSpaceOnUse"
   x1="539.14398"
   y1="-0.713"
   x2="539.14398"
   y2="98.787003">
        <stop
   offset=".005"
   style="stop-color:#2e5c92"
   id="stop13" />
        <stop
   offset="1"
   style="stop-color:#2e3192"
   id="stop14" />
    </linearGradient>
    
<g
   id="g1"
   inkscape:label="Gameboy"
   transform="translate(-9.6e-4,4.46287)"
   style="display:inline"><path
     fill="url(#c)"
     d="m 112.146,49.565 7.416,-19.874 2.375,19.874 z m -8.009,18.987 h 20.172 l 3.563,28.48 h 36.488 l 16.91,-52.213 8.309,52.213 h 19.283 l 21.359,-55.179 3.561,55.179 h 21.359 L 249.207,0.913 H 223.693 L 203.818,51.641 196.103,0.913 H 173.261 L 147.156,79.825 137.365,0.913 h -28.48 l -31.744,79.8 4.154,-31.149 H 42.729 l -2.672,18.987 h 16.912 l -1.188,6.526 c -2.967,1.778 -9.789,2.075 -12.459,2.075 -2.67,0 -22.545,-1.778 -21.656,-23.139 C 22.555,32.654 51.035,12.778 84.854,23.754 L 88.12,3.284 C 65.572,-4.427 6.354,-0.111 0.305,52.828 -3.254,83.976 25.226,98.81 44.211,98.516 55.188,99.11 67.649,94.955 72.098,92.581 l -1.482,4.451 h 22.547 z"
     id="path6"
     inkscape:label="GAM"
     style="fill:url(#c)" /><path
     fill="url(#b)"
     d="m 311.798,97.041 2.967,-21.37 h -33.814 l 2.076,-16.605 h 29.365 l 2.971,-21.36 h -29.072 l 2.078,-15.43 h 33.812 l 3.266,-21.359 h -56.068 l -13.35,96.124 z"
     id="path4"
     inkscape:label="E"
     style="fill:url(#b)" /><path
     fill="url(#e)"
     d="m 370.833,37.706 h 12.461 c 9.197,0 10.977,-5.934 11.271,-8.305 0.297,-2.375 -2.371,-7.122 -7.117,-7.122 h -14.537 z m -5.339,37.971 h 16.912 c 9.193,0 11.27,-7.118 11.564,-9.493 0.299,-2.373 -2.371,-7.117 -7.117,-7.117 H 367.869 Z M 340.576,97.038 353.926,0.92 h 40.938 c 9.793,0 24.031,11.274 22.252,26.403 -1.779,15.13 -6.527,16.02 -9.791,18.393 5.045,4.447 10.088,11.568 8.012,24.918 -2.078,13.353 -13.055,26.403 -32.338,26.403 z"
     id="path10"
     inkscape:label="B"
     style="fill:url(#e)" /><path
     fill="url(#d)"
     d="m 464.582,0.028 c -15.428,-0.594 -37.678,8.306 -45.094,44.204 -7.416,35.894 12.459,50.431 30.852,52.804 18.396,2.373 44.205,-9.196 48.951,-43.609 C 504.039,19.013 487.125,0.919 464.582,0.028 Z m -2.374,20.47 c 6.229,0 19.578,4.154 16.314,29.071 -3.264,24.92 -18.689,27.887 -24.326,27.292 -5.639,-0.594 -17.207,-4.447 -13.943,-27.292 3.262,-22.841 15.424,-29.368 21.955,-29.071 z"
     id="path8"
     inkscape:label="O"
     style="fill:url(#d)" /><path
     fill="url(#a)"
     d="m 488.615,0.917 h 24.029 l 11.869,27.298 17.799,-27.298 h 24.615 l -34.707,53.996 -5.635,42.128 h -22.248 l 6.526,-48.068 z"
     id="path2"
     inkscape:label="Y"
     style="fill:url(#a)" /><path
     fill="url(#f)"
     d="m 538.619,82.498 c -3.66,0 -6.615,2.951 -6.615,6.593 a 6.608,6.608 0 0 0 6.615,6.634 c 3.641,0 6.592,-2.953 6.592,-6.634 a 6.596,6.596 0 0 0 -6.592,-6.593 v -0.907 a 7.5,7.5 0 0 1 7.498,7.5 c 0,4.173 -3.35,7.538 -7.498,7.538 a 7.526,7.526 0 0 1 -7.539,-7.538 c 0,-4.135 3.365,-7.499 7.539,-7.499 z"
     id="path12"
     inkscape:label="Circle"
     style="fill:url(#f)" /><path
     fill="url(#g)"
     d="m 536.839,85.639 h 2.402 c 1.045,0 2.182,0.156 2.182,1.457 0,1.711 -1.828,1.516 -3.01,1.516 l -1.574,-0.002 v 0.809 h 1.893 l 2.4,3.878 h 1.219 l -2.539,-3.878 c 1.496,-0.038 2.656,-0.648 2.656,-2.302 0,-0.71 -0.313,-1.457 -0.943,-1.813 -0.629,-0.373 -1.34,-0.412 -2.049,-0.412 h -3.656 v 8.403 h 1.02 v -7.656 z"
     id="path14"
     inkscape:label="R"
     style="fill:url(#g)" /></g><g
   id="g2"
   transform="matrix(1.6428862,0,0,1.6428862,3.1755081,0.00217155)"
   inkscape:label="Color"
   style="display:inline"><path
     fill="#94012c"
     d="m 387.3,50.872 c -3.229,-0.969 -6.938,-0.327 -6.938,-0.327 0,0 -10.485,1.011 -15.945,-0.146 -8.457,-1.48 -8.174,-10.592 -8.174,-10.592 0,0 -0.283,-6.039 4.813,-14.208 6.289,-10.088 13.23,-11.895 13.23,-11.895 0,0 1.733,-0.649 3.36,0.217 1.013,5.854 6.688,5.818 6.688,5.818 0,0 8.171,0.545 7.771,-9.359 -0.938,-8.138 -8.782,-9.257 -12.074,-10.018 -9.864,-1.771 -16.269,3.508 -16.269,3.508 0,0 -6.614,3.578 -14.531,16.051 -5.391,7.735 -6.04,13.811 -6.04,13.811 0,0 -0.649,1.446 -0.396,7.883 -0.145,5.023 1.737,8.676 1.737,8.676 0,0 2.854,8.645 11.891,12.187 5.497,2.276 13.525,2.241 13.525,2.241 0,0 7.771,-0.108 13.733,-0.435 3.255,0.252 4.812,-1.447 4.812,-1.447 0,0 3.648,-2.385 3.289,-6.543 0,0 -0.708,-4.295 -4.482,-5.422"
     id="path3-2"
     inkscape:label="C" /><path
     fill="#2d288b"
     d="m 437.047,26.359 c -1.192,-3.612 -4.341,-7.049 -4.341,-7.049 0,0 -4.731,-6.146 -14.024,-8.242 -7.956,-1.664 -14.208,1.845 -14.208,1.845 0,0 -5.677,2.275 -9.943,6.978 -6.796,6.542 -8.749,16.088 -8.749,16.088 0,0 -2.604,8.314 1.521,14.896 l 4.482,5.422 c 6.326,5.279 13.087,5.819 13.087,5.819 0,0 5.46,1.229 11.824,-0.434 5.563,-1.122 9.614,-3.869 9.614,-3.869 0,0 9.222,-5.097 11.749,-15.509 z M 422.69,43.676 c 0,0 -3.686,6.437 -11.782,5.675 -9.51,-0.975 -10.628,-9.325 -10.628,-9.325 0,0 -1.305,-6.146 4.553,-11.498 5.931,-4.987 12.113,-4.229 12.113,-4.229 0,0 4.154,0.397 6.292,7.268 2.744,8.747 -0.548,12.109 -0.548,12.109"
     id="path1-8"
     inkscape:label="O" /><path
     fill="#639d01"
     d="m 467.773,43.787 c -3.044,-0.672 -7.917,0.575 -7.917,0.575 0,0 -6.796,2.493 -7.845,2.458 -0.396,-0.577 -1.263,-11.677 -1.012,-16.123 0.146,-7.846 -0.509,-14.243 -0.509,-14.243 0,0 -0.323,-7.558 -4.373,-12.039 -4.771,-4.811 -8.101,-2.747 -10.016,-1.593 -4.591,4.122 -2.457,9.146 -2.457,9.146 l 2.389,6.762 c 0,0 1.155,2.894 1.012,7.628 l 1.012,15.944 c 0,2.133 1.737,16.484 1.737,16.484 0,0 0.176,4.665 4.661,5.496 4.593,0.759 9.109,-1.52 11.025,-2.423 1.917,-0.901 4.447,-1.697 4.447,-1.697 0,0 2.098,-0.471 4.194,-0.65 4.916,-0.472 6.688,-1.338 6.688,-1.338 0,0 1.901,-0.286 3.184,-2.099 1.278,-1.81 2.826,-10.302 -6.22,-12.288"
     id="path2-8"
     inkscape:label="L"
     sodipodi:nodetypes="ccccccccccccccccccc" /><path
     fill="#c8a601"
     d="m 518.642,24.443 c -6.325,-10.339 -17.46,-11.894 -17.46,-11.894 0,0 -3.543,-1.194 -11.133,-0.183 -14.246,2.713 -19.2,13.667 -19.2,13.667 0,0 -5.099,8.024 -3.074,17.75 l 6.224,12.292 c 4.59,4.302 6.469,4.302 6.757,4.558 6.076,2.747 13.125,1.156 13.125,1.156 0,0 8.895,-0.867 17.029,-7.194 6.506,-4.771 9.326,-11.786 9.326,-11.786 l 0.863,-9.41 z m -17.316,21.113 c -10.231,6.146 -16.668,-0.579 -16.668,-0.579 0,0 -2.855,-1.88 -3.47,-7.593 -0.438,-6.615 6.146,-10.05 6.146,-10.05 0,0 3.471,-2.134 7.81,-1.808 4.339,0.324 5.708,0.035 9.219,2.64 3.324,3.002 3.107,5.206 3.107,5.206 0,0 1.195,7.449 -6.144,12.184"
     id="path7-5"
     inkscape:label="O" /><path
     fill="#00766a"
     d="m 520.234,42.809 c 0,0 0.218,5.783 -0.688,7.194 -1.229,2.639 -1.047,5.206 -1.047,5.206 0,0 -0.835,7.809 8.209,9.107 6.214,-0.035 6.971,-5.206 7.081,-7.411 0.36,-1.732 0.217,-9.798 0.217,-9.798 l 8.063,6.581 c 0,0 5.856,4.917 9.295,7.772 3.581,2.818 4.479,3.325 4.479,3.325 0,0 0.763,0.901 3.506,0.577 2.211,0.038 4.234,-1.952 4.234,-1.952 0,0 2.563,-1.875 3.214,-5.167 0.795,-3.905 -2.24,-5.821 -2.24,-5.821 0,0 -11.205,-9.039 -18.798,-15.258 5.097,-2.783 7.556,-4.699 7.556,-4.699 0,0 7.088,-4.698 8.604,-11.896 2.099,-7.918 -3.867,-11.024 -3.867,-11.024 0,0 -3.726,-2.676 -6.87,-4.087 -7.92,-3.868 -15.293,-3.073 -15.293,-3.073 0,0 -10.483,-0.722 -17.316,7.703 -3.144,4.083 -1.19,9.436 -1.19,9.436 0,0 0.388,0.857 1.263,4.916 1.753,8.167 1.588,18.369 1.588,18.369 z m 13.738,-16.053 -0.688,-9.435 c 0,0 6.614,-0.146 9.363,0.324 5.426,0.831 5.134,2.352 5.134,2.352 0,0 -0.181,1.915 -4.303,3.796 -4.48,2.17 -9.506,2.963 -9.506,2.963"
     id="path8-1"
     inkscape:label="R"
     sodipodi:nodetypes="ccccccccccccccccccccccccccccc" /></g><g
   id="g9"
   transform="translate(35.113781,-135.74164)"
   inkscape:label="New"
   style="display:inline"><path
     style="font-size:155.249px;line-height:0;font-family:'CC Rick Veitch';-inkscape-font-specification:'CC Rick Veitch';text-align:center;letter-spacing:0px;word-spacing:0px;text-anchor:middle;fill:#2d288b;fill-opacity:1;stroke-width:4.42214;paint-order:stroke markers fill"
     d="m 680.96667,268.85185 c -0.1366,1.98969 -0.34997,4.22788 -0.64013,6.71457 -0.29488,2.4467 -0.48134,4.23853 -0.5594,5.3755 -0.11242,1.74545 -0.23072,4.33939 -0.35505,7.78179 -0.12907,3.40239 -0.25719,6.13845 -0.38435,8.20814 -0.0793,2.02545 -0.27618,4.40363 -0.59058,7.13457 -0.26655,2.68669 -0.64498,5.09977 -1.13524,7.23923 -0.71116,2.96498 -0.50043,12.94335 -4.25539,23.38282 -1.73613,5.57854 -1.9653,7.82264 -7.55895,11.372 -1.25233,0.62633 -3.00355,1.07096 -5.25366,1.33387 -0.8886,0.11228 -1.76034,0.14251 -2.61525,0.0906 -0.80238,-0.0562 -1.61653,-0.21237 -2.4425,-0.46855 -0.77343,-0.26042 -1.49193,-0.50511 -2.15554,-0.73405 -0.61105,-0.23319 -1.32217,-0.63999 -2.13335,-1.22041 -0.81115,-0.58042 -1.44582,-1.01362 -1.90396,-1.29957 -0.46283,-0.32596 -1.10929,-0.85915 -1.93933,-1.59955 -0.78222,-0.78466 -1.32121,-1.30637 -1.61699,-1.56507 -0.30048,-0.29871 -0.87047,-0.85828 -1.70996,-1.6787 -0.79166,-0.86466 -1.27812,-1.3906 -1.45936,-1.57782 -1.86963,-1.90806 -5.30277,-6.05178 -10.29937,-12.43119 -4.9488,-6.42365 -8.94666,-16.62607 -12.3389,-19.29922 -3.75008,7.55329 -10.89779,32.93855 -10.70463,40.48673 0.0541,2.25692 -0.17548,4.133 -0.6887,5.62825 -0.51325,1.49524 -1.47043,2.76321 -3.17681,3.58782 -1.40057,0.71908 -2.9088,1.22163 -4.28155,1.31648 -1.3826,0.0955 -2.64687,0.0289 -3.92596,-0.22731 -1.60495,-0.32154 -3.2044,-0.8273 -4.58469,-1.62018 -16.35937,-8.27432 9.85292,-61.47469 13.8015,-75.38435 0.59233,-2.31398 1.41272,-4.21298 2.02161,-5.79672 0.60888,-1.58375 1.39696,-3.2224 2.36424,-4.91591 1.01983,-1.69778 2.29232,-3.05259 3.81747,-4.06443 1.57299,-1.05609 3.40334,-1.7292 5.4911,-2.01936 2.49867,-0.40418 4.576,-0.10797 6.23202,0.88861 1.65603,0.99659 2.89336,2.49144 3.71208,4.48458 2.95953,7.20501 3.42724,12.5491 5.71683,18.627 2.4329,6.45834 5.98989,14.25028 8.49427,18.88147 2.49969,5.12603 8.24541,15.55645 10.7101,9.31893 3.98074,-10.07428 4.63553,-23.585 5.18741,-33.76946 0.55188,-10.18446 -0.15731,-17.45199 1.02303,-20.72794 0.85652,-2.66205 2.19704,-5.16375 4.15874,-7.24173 0.066,-0.0699 3.75484,-3.89017 11.25448,-2.00013 3.63729,0.91666 5.91062,2.96246 6.32763,8.79845 0.36642,5.12787 -1.46625,7.00052 -1.60291,8.99024 z"
     id="text1-9"
     inkscape:label="N"
     aria-label="W"
     sodipodi:nodetypes="sccccccccccccsccccccccscsaasscccssacszcasss" /><path
     style="font-size:122.387px;line-height:0;font-family:'CC Rick Veitch';-inkscape-font-specification:'CC Rick Veitch';text-align:center;letter-spacing:0px;word-spacing:0px;text-anchor:middle;fill:#639d01;stroke-width:3.82458;paint-order:stroke markers fill"
     d="m 738.54557,328.96531 c 0.55775,4.30267 -0.2988,7.35039 -2.56965,9.14317 -1.35454,1.03583 -2.88836,1.99197 -4.60146,2.86844 -1.7131,0.83663 -3.80467,1.67326 -6.27472,2.50989 -2.43021,0.83663 -4.34251,1.45415 -5.7369,1.85254 -1.39438,0.43823 -3.64531,1.09559 -6.75279,1.97206 -4.62139,1.27486 -9.14317,2.23101 -13.56536,2.86844 -4.42219,0.63743 -7.72887,0.81671 -9.92004,0.53784 -1.55374,-0.15936 -3.10748,-1.15535 -4.66122,-2.98797 -1.51391,-1.79277 -2.70909,-3.84451 -3.58556,-6.1552 -3.30668,-8.48582 -5.01978,-19.70065 -5.1393,-33.64448 0,-15.69677 1.35454,-28.52509 4.06363,-38.48497 0.1992,-0.71711 0.47808,-1.9123 0.83663,-3.58556 0.3984,-1.7131 0.71712,-2.96804 0.95615,-3.76483 0.27888,-0.83663 0.6972,-1.7131 1.25495,-2.62941 0.59759,-0.91631 1.29478,-1.53382 2.09157,-1.85254 1.63342,-0.51791 2.96804,-0.75695 4.00387,-0.71711 1.03583,0.0399 2.35053,0.15939 3.94411,0.35856 1.63342,0.15935 2.90829,0.19919 3.8246,0.11951 1.47406,-0.11951 2.9282,-0.25895 4.36243,-0.41831 1.43422,-0.15936 2.9282,-0.35856 4.48194,-0.59759 1.59358,-0.23904 2.9282,-0.43824 4.00387,-0.5976 1.11551,-0.19919 2.54973,-0.45815 4.30267,-0.77687 1.75294,-0.35855 3.0278,-0.61751 3.82459,-0.77687 0.79679,-0.15935 2.19118,-0.45815 4.18315,-0.89639 2.03182,-0.43823 3.34653,-0.71711 3.94412,-0.83663 0.47807,-0.0797 1.23502,-0.23903 2.27085,-0.47807 1.03583,-0.27888 1.85254,-0.47808 2.45013,-0.59759 0.59759,-0.11952 1.33462,-0.17928 2.21109,-0.17928 0.87647,0 1.67326,0.11952 2.39037,0.35855 1.23503,0.43824 2.13142,1.75295 2.68917,3.94412 0.59759,2.15133 0.77687,4.4421 0.53783,6.87231 -0.19919,2.39037 -0.71711,4.14331 -1.55374,5.25882 -1.5139,2.11149 -4.28275,3.74491 -8.30654,4.90026 -2.19117,0.63743 -5.2389,1.17527 -9.14317,1.6135 -3.86443,0.39839 -7.44999,0.91631 -10.75667,1.55374 -3.26684,0.63743 -5.97593,1.6135 -8.12726,2.92821 -3.46603,1.99197 -4.97993,7.33047 -4.5417,16.01548 4.06363,-0.11951 9.66108,-0.87646 16.79235,-2.27085 7.13128,-1.43422 11.8921,-2.31069 14.28247,-2.62941 3.74491,-0.43823 6.454,-0.0199 8.12726,1.25495 1.67326,1.27486 2.52981,3.80467 2.56965,7.58943 0,1.35454 -0.0199,2.37045 -0.0598,3.04772 -0.0399,0.63743 -0.19922,1.4143 -0.47807,2.33061 -0.27888,0.91631 -0.71711,1.63342 -1.3147,2.15134 -0.55775,0.47807 -1.37447,0.97607 -2.45014,1.49398 -1.07567,0.47807 -2.43021,0.89639 -4.06363,1.25494 -0.31871,0.0797 -1.4143,0.27888 -3.28676,0.59759 -1.83261,0.31872 -3.0278,0.53784 -3.58555,0.65736 -0.51791,0.0797 -1.63342,0.2988 -3.34652,0.65735 -1.7131,0.31871 -2.92821,0.55775 -3.64532,0.71711 -0.67727,0.15936 -1.79278,0.41832 -3.34652,0.77687 -1.5139,0.35855 -2.66925,0.65735 -3.46604,0.89639 -0.79679,0.23904 -1.83261,0.55776 -3.10748,0.95615 -1.27487,0.39839 -2.33061,0.77687 -3.16724,1.13542 -0.83663,0.35856 -1.73302,0.77688 -2.68917,1.25495 -0.91631,0.43823 -1.75294,0.89639 -2.50989,1.37446 -0.67727,1.31471 -0.93623,2.84853 -0.77687,4.60147 0.1992,1.75294 0.73703,3.36644 1.6135,4.8405 1.07567,0.1992 2.29077,0.2988 3.64532,0.2988 1.35454,0 2.78876,-0.0797 4.30267,-0.23904 1.5139,-0.1992 3.00788,-0.41832 4.48194,-0.65735 1.47407,-0.23904 3.06765,-0.53784 4.78074,-0.89639 1.7131,-0.35856 3.26684,-0.6972 4.66123,-1.01591 1.39438,-0.31871 2.9282,-0.67727 4.60146,-1.07567 1.7131,-0.39839 3.1274,-0.71711 4.24291,-0.95615 1.95214,-0.47807 3.58556,-0.67727 4.90026,-0.59759 1.35455,0.0399 2.43021,0.59762 3.227,1.67326 0.79679,1.03583 1.35455,2.72901 1.67326,5.07954 z"
     id="text1-8"
     inkscape:label="E"
     aria-label="E"
     sodipodi:nodetypes="scccccscccccccccsccscccscccsscccccccccccsccsccccccccsssccccscsssccccss" /><path
     style="font-size:128.562px;line-height:0;font-family:'CC Rick Veitch';-inkscape-font-specification:'CC Rick Veitch';text-align:center;letter-spacing:0px;word-spacing:0px;text-anchor:middle;fill:#c8a601;stroke-width:4.19582;paint-order:stroke markers fill"
     d="m 810.0643,353.20557 c -0.68468,-0.12555 -1.36937,-0.35573 -2.05406,-0.69052 -0.63904,-0.3348 -1.23244,-0.64867 -1.78018,-0.94162 -0.50211,-0.29295 -1.07268,-0.77422 -1.71172,-1.44381 -5.71357,-6.29186 -10.58153,-13.5357 -15.04377,-20.75412 -3.14719,-5.51513 -5.79016,-13.84109 -7.89573,-17.33639 -4.38201,8.24437 -7.95487,17.65452 -11.51525,29.53981 -1.24155,4.6556 -1.58136,7.99689 -2.9292,11.87774 -0.5934,1.50659 -1.66607,2.6156 -3.21803,3.32705 -1.27809,0.62774 -2.51053,1.00439 -3.69732,1.12994 -1.18679,0.12555 -2.30511,-0.0628 -3.35496,-0.56497 -1.00421,-0.46035 -1.91713,-0.98347 -2.73876,-1.56936 -0.82162,-0.5859 -1.71171,-1.50659 -2.67028,-2.76208 -0.91291,-1.25549 -1.66607,-2.32265 -2.25947,-3.20149 -0.5934,-0.87885 -1.36938,-2.11341 -2.32794,-3.70369 -14.7085,-25.27986 -12.6761,-44.389 -12.11897,-65.15984 0.54775,-4.60346 1.0955,-7.61663 1.64326,-9.03952 1.0042,-2.80392 2.3155,-6.05429 4.67672,-6.84206 2.72608,-0.9095 5.7379,-1.2246 8.45531,-0.46112 5.26071,1.47805 8.29298,5.42856 8.91775,12.04426 0.43305,4.58555 -4.34717,6.48566 -3.90556,24.19793 0.45645,3.80831 2.1025,21.41707 5.1763,18.75244 6.7147,-17.34022 7.69852,-21.74148 9.76589,-29.18242 0.65266,-2.34906 2.16089,-7.06736 3.37809,-10.5553 0.68266,-1.95618 0.96226,-4.15174 2.19999,-5.81327 1.17686,-1.57982 2.8039,-3.04267 4.69736,-3.5864 2.64759,-0.76029 5.89204,-0.69363 8.22822,0.76584 3.89077,2.43064 6.50822,5.79266 7.15612,11.75605 1.89262,17.42005 3.73282,23.47881 5.16268,26.82215 2.28229,4.22681 4.88858,12.72093 8.05783,13.79288 4.09515,7.15792 -1.74196,-61.83607 16.35864,-65.08264 2.30453,-0.41335 3.82654,-0.65652 5.66217,-0.65904 12.58199,-0.0173 15.48815,10.46227 11.80186,15.87902 -4.22409,6.20702 -6.36466,8.99979 -6.68354,14.57553 -4.75764,17.67285 0.79074,69.31812 -25.43345,64.88902 z"
     id="text1-5-2"
     inkscape:label="W"
     aria-label="W"
     sodipodi:nodetypes="cccsaccscscscscccsssccsaaaasccssscc" /></g></svg>
