<?xml version="1.0" encoding="UTF-8" standalone="no"?>
<!-- Created by ERK -->

<svg
   version="1.2"
   width="934.5766"
   height="221.82332"
   xml:space="preserve"
   id="svg14"
   sodipodi:docname="gbch-w.svg"
   inkscape:version="1.4 (86a8ad7, 2024-10-11)"
   xmlns:inkscape="http://www.inkscape.org/namespaces/inkscape"
   xmlns:sodipodi="http://sodipodi.sourceforge.net/DTD/sodipodi-0.dtd"
   xmlns:xlink="http://www.w3.org/1999/xlink"
   xmlns="http://www.w3.org/2000/svg"
   xmlns:svg="http://www.w3.org/2000/svg"><defs
   id="defs14"><linearGradient
     id="f-0"
     gradientUnits="userSpaceOnUse"
     x1="538.59802"
     y1="-0.713"
     x2="538.59802"
     y2="98.787003"
     gradientTransform="translate(-9.5978415e-4,-6.4086473e-4)"><stop
       offset=".005"
       style="stop-color:#2e5c92"
       id="stop11-9" /><stop
       offset="1"
       style="stop-color:#2e3192"
       id="stop12-4" /></linearGradient><linearGradient
     id="g-8"
     gradientUnits="userSpaceOnUse"
     x1="539.14398"
     y1="-0.713"
     x2="539.14398"
     y2="98.787003"
     gradientTransform="translate(-9.5978415e-4,-6.4086473e-4)"><stop
       offset=".005"
       style="stop-color:#2e5c92"
       id="stop13-8" /><stop
       offset="1"
       style="stop-color:#2e3192"
       id="stop14-2" /></linearGradient><linearGradient
     id="a-4"
     gradientUnits="userSpaceOnUse"
     x1="527.771"
     y1="-0.713"
     x2="527.771"
     y2="98.787003"
     gradientTransform="translate(-9.5978415e-4,-6.4086473e-4)"><stop
       offset=".005"
       style="stop-color:#2e5c92"
       id="stop15" /><stop
       offset="1"
       style="stop-color:#2e3192"
       id="stop16" /></linearGradient><linearGradient
     id="d-5"
     gradientUnits="userSpaceOnUse"
     x1="458.99399"
     y1="-0.713"
     x2="458.99399"
     y2="98.787003"
     gradientTransform="translate(-9.5978415e-4,-6.4086473e-4)"><stop
       offset=".005"
       style="stop-color:#2e5c92"
       id="stop17" /><stop
       offset="1"
       style="stop-color:#2e3192"
       id="stop18" /></linearGradient><linearGradient
     id="linearGradient1"
     gradientUnits="userSpaceOnUse"
     x1="378.92099"
     y1="-0.713"
     x2="378.92099"
     y2="98.787003"><stop
       offset=".005"
       style="stop-color:#2e5c92"
       id="stop19" /><stop
       offset="1"
       style="stop-color:#2e3192"
       id="stop20" /></linearGradient><linearGradient
     id="b-5"
     gradientUnits="userSpaceOnUse"
     x1="290.73801"
     y1="-0.713"
     x2="290.73801"
     y2="98.787003"
     gradientTransform="translate(-9.5978415e-4,-6.4086473e-4)"><stop
       offset=".005"
       style="stop-color:#2e5c92"
       id="stop21" /><stop
       offset="1"
       style="stop-color:#2e3192"
       id="stop22" /></linearGradient><linearGradient
     id="c-1"
     gradientUnits="userSpaceOnUse"
     x1="127.571"
     y1="-0.713"
     x2="127.571"
     y2="98.787003"
     gradientTransform="matrix(0.99999769,0,0,0.99999769,-9.5978193e-4,-6.4086325e-4)"><stop
       offset=".005"
       style="stop-color:#2e5c92"
       id="stop23" /><stop
       offset="1"
       style="stop-color:#2e3192"
       id="stop24" /></linearGradient><filter
     style="color-interpolation-filters:sRGB"
     inkscape:label="Drop Shadow"
     id="filter128-4-3"
     x="-0.25372537"
     y="-0.26650401"
     width="1.5074508"
     height="1.5330095"><feFlood
       result="flood"
       in="SourceGraphic"
       flood-opacity="0.498039"
       flood-color="rgb(0,0,0)"
       id="feFlood127-5-8" /><feGaussianBlur
       result="blur"
       in="SourceGraphic"
       stdDeviation="1.000000"
       id="feGaussianBlur127-5-9" /><feOffset
       result="offset"
       in="blur"
       dx="0.000000"
       dy="0.000000"
       id="feOffset127-1-3" /><feComposite
       result="comp1"
       operator="in"
       in="flood"
       in2="offset"
       id="feComposite127-7-4" /><feComposite
       result="fbSourceGraphic"
       operator="over"
       in="SourceGraphic"
       in2="comp1"
       id="feComposite128-1-4" /><feColorMatrix
       result="fbSourceGraphicAlpha"
       in="fbSourceGraphic"
       values="0 0 0 -1 0 0 0 0 -1 0 0 0 0 -1 0 0 0 0 1 0"
       id="feColorMatrix128-1-6" /><feFlood
       id="feFlood128-5-0"
       result="flood"
       in="fbSourceGraphic"
       flood-opacity="0.498039"
       flood-color="rgb(0,0,0)" /><feGaussianBlur
       id="feGaussianBlur128-2-6"
       result="blur"
       in="fbSourceGraphic"
       stdDeviation="1.000000" /><feOffset
       id="feOffset128-7-6"
       result="offset"
       in="blur"
       dx="0.000000"
       dy="0.000000" /><feComposite
       id="feComposite129-6-1"
       result="comp1"
       operator="in"
       in="flood"
       in2="offset" /><feComposite
       id="feComposite130-1-8"
       result="fbSourceGraphic"
       operator="over"
       in="fbSourceGraphic"
       in2="comp1" /><feColorMatrix
       result="fbSourceGraphicAlpha"
       in="fbSourceGraphic"
       values="0 0 0 -1 0 0 0 0 -1 0 0 0 0 -1 0 0 0 0 1 0"
       id="feColorMatrix136-4-4" /><feFlood
       id="feFlood136-2-9"
       result="flood"
       in="fbSourceGraphic"
       flood-opacity="0.498039"
       flood-color="rgb(0,0,0)" /><feGaussianBlur
       id="feGaussianBlur136-3-6"
       result="blur"
       in="fbSourceGraphic"
       stdDeviation="5.000000" /><feOffset
       id="feOffset136-2-3"
       result="offset"
       in="blur"
       dx="0.000000"
       dy="0.000000" /><feComposite
       id="feComposite136-2-7"
       result="comp1"
       operator="in"
       in="flood"
       in2="offset" /><feComposite
       id="feComposite137-1-8"
       result="fbSourceGraphic"
       operator="over"
       in="fbSourceGraphic"
       in2="comp1" /><feColorMatrix
       result="fbSourceGraphicAlpha"
       in="fbSourceGraphic"
       values="0 0 0 -1 0 0 0 0 -1 0 0 0 0 -1 0 0 0 0 1 0"
       id="feColorMatrix137-6-8" /><feFlood
       id="feFlood137-8-2"
       result="flood"
       in="fbSourceGraphic"
       flood-opacity="0.498039"
       flood-color="rgb(0,0,0)" /><feGaussianBlur
       id="feGaussianBlur137-5-9"
       result="blur"
       in="fbSourceGraphic"
       stdDeviation="0.100000" /><feOffset
       id="feOffset137-7-1"
       result="offset"
       in="blur"
       dx="0.000000"
       dy="0.000000" /><feComposite
       id="feComposite138-6-3"
       result="comp1"
       operator="in"
       in="flood"
       in2="offset" /><feComposite
       id="feComposite139-1-5"
       result="comp2"
       operator="over"
       in="fbSourceGraphic"
       in2="comp1" /></filter><linearGradient
     id="linearGradient39"
     inkscape:collect="always"><stop
       style="stop-color:#f6f6f6;stop-opacity:1;"
       offset="0"
       id="stop39" /><stop
       style="stop-color:#666666;stop-opacity:1;"
       offset="1"
       id="stop40" /></linearGradient><linearGradient
     inkscape:collect="always"
     xlink:href="#linearGradient39"
     id="linearGradient29"
     gradientUnits="userSpaceOnUse"
     x1="75.280685"
     y1="0.59525603"
     x2="75.280685"
     y2="25.164202" /><linearGradient
     inkscape:collect="always"
     xlink:href="#linearGradient39"
     id="linearGradient30"
     gradientUnits="userSpaceOnUse"
     x1="75.280685"
     y1="0.59525603"
     x2="75.280685"
     y2="25.164202" /><linearGradient
     inkscape:collect="always"
     xlink:href="#linearGradient39"
     id="linearGradient31"
     gradientUnits="userSpaceOnUse"
     x1="75.280685"
     y1="0.59525603"
     x2="75.280685"
     y2="25.164202" /><linearGradient
     inkscape:collect="always"
     xlink:href="#linearGradient39"
     id="linearGradient32"
     gradientUnits="userSpaceOnUse"
     x1="75.280685"
     y1="0.59525603"
     x2="75.280685"
     y2="25.164202" /><linearGradient
     inkscape:collect="always"
     xlink:href="#linearGradient39"
     id="linearGradient33"
     gradientUnits="userSpaceOnUse"
     x1="75.280685"
     y1="0.59525603"
     x2="75.280685"
     y2="25.164202" /><linearGradient
     inkscape:collect="always"
     xlink:href="#linearGradient39"
     id="linearGradient34"
     gradientUnits="userSpaceOnUse"
     x1="75.280685"
     y1="0.59525603"
     x2="75.280685"
     y2="25.164202" /><linearGradient
     inkscape:collect="always"
     xlink:href="#linearGradient39"
     id="linearGradient35"
     gradientUnits="userSpaceOnUse"
     x1="75.280685"
     y1="0.59525603"
     x2="75.280685"
     y2="25.164202" /><linearGradient
     inkscape:collect="always"
     xlink:href="#linearGradient39"
     id="linearGradient36"
     gradientUnits="userSpaceOnUse"
     x1="75.280685"
     y1="0.59525603"
     x2="75.280685"
     y2="25.164202" /></defs><sodipodi:namedview
   id="namedview14"
   pagecolor="#ffffff"
   bordercolor="#000000"
   borderopacity="0.25"
   inkscape:showpageshadow="2"
   inkscape:pageopacity="0.0"
   inkscape:pagecheckerboard="true"
   inkscape:deskcolor="#d1d1d1"
   inkscape:zoom="1.1568319"
   inkscape:cx="460.7411"
   inkscape:cy="51.433575"
   inkscape:window-width="3840"
   inkscape:window-height="2066"
   inkscape:window-x="-11"
   inkscape:window-y="-11"
   inkscape:window-maximized="1"
   inkscape:current-layer="svg14" />
    <linearGradient
   id="a"
   gradientUnits="userSpaceOnUse"
   x1="527.771"
   y1="-0.713"
   x2="527.771"
   y2="98.787003">
        <stop
   offset=".005"
   style="stop-color:#2e5c92"
   id="stop1" />
        <stop
   offset="1"
   style="stop-color:#2e3192"
   id="stop2" />
    </linearGradient>
    
    <linearGradient
   id="b"
   gradientUnits="userSpaceOnUse"
   x1="290.73801"
   y1="-0.713"
   x2="290.73801"
   y2="98.787003">
        <stop
   offset=".005"
   style="stop-color:#2e5c92"
   id="stop3" />
        <stop
   offset="1"
   style="stop-color:#2e3192"
   id="stop4" />
    </linearGradient>
    
    <linearGradient
   id="c"
   gradientUnits="userSpaceOnUse"
   x1="127.571"
   y1="-0.713"
   x2="127.571"
   y2="98.787003">
        <stop
   offset=".005"
   style="stop-color:#2e5c92"
   id="stop5" />
        <stop
   offset="1"
   style="stop-color:#2e3192"
   id="stop6" />
    </linearGradient>
    
    <linearGradient
   id="d"
   gradientUnits="userSpaceOnUse"
   x1="458.99399"
   y1="-0.713"
   x2="458.99399"
   y2="98.787003">
        <stop
   offset=".005"
   style="stop-color:#2e5c92"
   id="stop7" />
        <stop
   offset="1"
   style="stop-color:#2e3192"
   id="stop8" />
    </linearGradient>
    
    <linearGradient
   id="e"
   gradientUnits="userSpaceOnUse"
   x1="378.92099"
   y1="-0.713"
   x2="378.92099"
   y2="98.787003">
        <stop
   offset=".005"
   style="stop-color:#2e5c92"
   id="stop9" />
        <stop
   offset="1"
   style="stop-color:#2e3192"
   id="stop10" />
    </linearGradient>
    
    <linearGradient
   id="f"
   gradientUnits="userSpaceOnUse"
   x1="538.59802"
   y1="-0.713"
   x2="538.59802"
   y2="98.787003">
        <stop
   offset=".005"
   style="stop-color:#2e5c92"
   id="stop11" />
        <stop
   offset="1"
   style="stop-color:#2e3192"
   id="stop12" />
    </linearGradient>
    
    <linearGradient
   id="g"
   gradientUnits="userSpaceOnUse"
   x1="539.14398"
   y1="-0.713"
   x2="539.14398"
   y2="98.787003">
        <stop
   offset=".005"
   style="stop-color:#2e5c92"
   id="stop13" />
        <stop
   offset="1"
   style="stop-color:#2e3192"
   id="stop14" />
    </linearGradient>
    
<g
   id="g29"
   style="display:inline;fill:url(#linearGradient36)"
   inkscape:label="Gameboy-w"
   transform="matrix(3.7795276,0,0,3.7795276,-4.9611862e-7,4.463517)"><path
     fill="url(#c)"
     d="m 29.671708,13.113899 1.96215,-5.2583304 0.628386,5.2583304 z m -2.119048,5.02365 h 5.337175 l 0.942711,7.53533 h 9.654116 l 4.474104,-13.81469 2.198423,13.81469 h 5.10196 l 5.651231,-14.59944 0.94219,14.59944 H 67.5058 L 65.93576,0.24138855 H 59.18518 L 53.926591,13.663179 51.885331,0.24138855 H 45.841718 L 38.934771,21.120189 36.344235,0.24138855 h -7.535333 l -8.398933,21.11375045 1.099079,-8.2415 H 11.305127 l -0.706967,5.02364 h 4.474634 l -0.314325,1.72667 c -0.785019,0.47043 -2.590006,0.54901 -3.296444,0.54901 -0.706437,0 -5.965031,-0.47043 -5.729817,-6.12219 C 5.967423,8.6395286 13.502756,3.3806786 22.4507,6.2847386 L 23.314829,0.86871855 C 17.349004,-1.1714814 1.680908,-0.02954145 0.08044396,13.977239 c -0.941652,8.24124 6.59368104,12.16607 11.61679604,12.08828 2.904331,0.15716 6.201304,-0.94218 7.378435,-1.5703 l -0.392113,1.17766 h 5.965561 z"
     id="path23"
     inkscape:label="GAM"
     style="fill:url(#linearGradient29);fill-opacity:1;stroke-width:0.264583" /><path
     fill="url(#b)"
     d="m 82.4963,25.675259 0.78502,-5.65414 H 74.3347 l 0.54927,-4.39341 h 7.76949 l 0.78608,-5.6515004 h -7.69197 l 0.54981,-4.08252 h 8.94609 L 86.1076,0.24244855 H 71.27294 L 67.74075,25.675259 Z"
     id="path24"
     inkscape:label="E"
     style="fill:url(#linearGradient30);fill-opacity:1;stroke-width:0.264583" /><path
     fill="url(#e)"
     d="m 98.11598,9.9762086 h 3.29697 c 2.43337,0 2.90433,-1.57004 2.98212,-2.19737 0.0786,-0.62838 -0.62733,-1.88436 -1.88304,-1.88436 H 98.66578 Z M 96.70337,20.022699 h 4.47463 c 2.43231,0 2.98185,-1.8833 3.05964,-2.51169 0.0791,-0.62785 -0.62733,-1.88304 -1.88304,-1.88304 h -5.02285 z m -6.59289,5.65177 3.53219,-25.43122045 h 10.83151 c 2.59106,0 6.3582,2.98291005 5.88751,6.98579005 -0.4707,4.0031504 -1.72694,4.2386304 -2.59054,4.8664804 1.33482,1.1766 2.66912,3.0607 2.11984,6.59289 -0.5498,3.53298 -3.45413,6.98579 -8.55609,6.98579 z"
     id="path25"
     inkscape:label="B"
     style="fill:url(#linearGradient31);fill-opacity:1;stroke-width:0.264583" /><path
     fill="url(#d)"
     d="m 122.9204,0.00723855 c -4.08199,-0.15716 -9.96897,2.19763005 -11.93112,11.69564045 -1.96215,9.49695 3.29644,13.3432 8.16292,13.97106 4.86728,0.62785 11.69591,-2.43311 12.95162,-11.53822 C 133.36006,5.0303486 128.8849,0.24297855 122.9204,0.00723855 Z m -0.62812,5.41602005 c 1.64809,0 5.18001,1.09908 4.31641,7.6917004 -0.8636,6.59342 -4.9448,7.37844 -6.43625,7.22101 -1.49199,-0.15716 -4.55269,-1.1766 -3.68909,-7.22101 0.86307,-6.0433504 4.08093,-7.7702804 5.80893,-7.6917004 z"
     id="path26"
     inkscape:label="O"
     style="fill:url(#linearGradient32);fill-opacity:1;stroke-width:0.264583" /><path
     fill="url(#a)"
     d="m 129.27913,0.24244855 h 6.35767 l 3.14034,7.22260005 4.70932,-7.22260005 h 6.51272 l -9.18289,14.28644045 -1.49093,11.14637 h -5.88645 l 1.72667,-12.71799 z"
     id="path27"
     inkscape:label="Y"
     style="fill:url(#linearGradient33);fill-opacity:1;stroke-width:0.264583" /><path
     style="display:inline;fill:url(#linearGradient34);fill-opacity:1;stroke:none;stroke-linecap:round;stroke-miterlimit:4.5;paint-order:fill markers stroke"
     d="m 142.50391,21.587891 c -1.09733,0 -1.99024,0.890956 -1.99024,1.988281 0,1.097325 0.89291,1.990234 1.99024,1.990234 1.09732,0 1.99023,-0.892909 1.99023,-1.990234 0,-1.097325 -0.89291,-1.988281 -1.99023,-1.988281 z m 0,0.24414 c 0.96537,0 1.74609,0.778768 1.74609,1.744141 0,0.965373 -0.78072,1.746094 -1.74609,1.746094 -0.96538,0 -1.7461,-0.780721 -1.7461,-1.746094 0,-0.965373 0.78072,-1.744141 1.7461,-1.744141 z"
     id="path28"
     sodipodi:nodetypes="ssssssssss"
     inkscape:label="Circle" /><path
     fill="url(#g)"
     d="m 142.0384,22.658479 h 0.63553 c 0.27649,0 0.57732,0.0413 0.57732,0.3855 0,0.4527 -0.48366,0.40111 -0.7964,0.40111 l -0.41645,-5.3e-4 v 0.21405 h 0.50085 l 0.635,1.02605 h 0.32253 l -0.67178,-1.02605 c 0.39582,-0.0101 0.70274,-0.17145 0.70274,-0.60907 0,-0.18786 -0.0828,-0.3855 -0.24951,-0.47969 -0.16642,-0.0987 -0.35454,-0.10901 -0.54213,-0.10901 h -0.96731 v 2.22329 h 0.26987 v -2.02565 z"
     id="path29"
     inkscape:label="R"
     style="display:inline;fill:url(#linearGradient35);fill-opacity:1;stroke-width:0.264583" /></g><g
   id="g2"
   transform="matrix(1.6428862,0,0,1.6428862,3.1755081,0.00217155)"
   inkscape:label="Color"
   style="display:inline"><path
     fill="#94012c"
     d="m 387.3,50.872 c -3.229,-0.969 -6.938,-0.327 -6.938,-0.327 0,0 -10.485,1.011 -15.945,-0.146 -8.457,-1.48 -8.174,-10.592 -8.174,-10.592 0,0 -0.283,-6.039 4.813,-14.208 6.289,-10.088 13.23,-11.895 13.23,-11.895 0,0 1.733,-0.649 3.36,0.217 1.013,5.854 6.688,5.818 6.688,5.818 0,0 8.171,0.545 7.771,-9.359 -0.938,-8.138 -8.782,-9.257 -12.074,-10.018 -9.864,-1.771 -16.269,3.508 -16.269,3.508 0,0 -6.614,3.578 -14.531,16.051 -5.391,7.735 -6.04,13.811 -6.04,13.811 0,0 -0.649,1.446 -0.396,7.883 -0.145,5.023 1.737,8.676 1.737,8.676 0,0 2.854,8.645 11.891,12.187 5.497,2.276 13.525,2.241 13.525,2.241 0,0 7.771,-0.108 13.733,-0.435 3.255,0.252 4.812,-1.447 4.812,-1.447 0,0 3.648,-2.385 3.289,-6.543 0,0 -0.708,-4.295 -4.482,-5.422"
     id="path3-2"
     inkscape:label="C" /><path
     fill="#2d288b"
     d="m 437.047,26.359 c -1.192,-3.612 -4.341,-7.049 -4.341,-7.049 0,0 -4.731,-6.146 -14.024,-8.242 -7.956,-1.664 -14.208,1.845 -14.208,1.845 0,0 -5.677,2.275 -9.943,6.978 -6.796,6.542 -8.749,16.088 -8.749,16.088 0,0 -2.604,8.314 1.521,14.896 l 4.482,5.422 c 6.326,5.279 13.087,5.819 13.087,5.819 0,0 5.46,1.229 11.824,-0.434 5.563,-1.122 9.614,-3.869 9.614,-3.869 0,0 9.222,-5.097 11.749,-15.509 z M 422.69,43.676 c 0,0 -3.686,6.437 -11.782,5.675 -9.51,-0.975 -10.628,-9.325 -10.628,-9.325 0,0 -1.305,-6.146 4.553,-11.498 5.931,-4.987 12.113,-4.229 12.113,-4.229 0,0 4.154,0.397 6.292,7.268 2.744,8.747 -0.548,12.109 -0.548,12.109"
     id="path1-8"
     inkscape:label="O" /><path
     fill="#639d01"
     d="m 467.773,43.787 c -3.044,-0.672 -7.917,0.575 -7.917,0.575 0,0 -6.796,2.493 -7.845,2.458 -0.396,-0.577 -1.263,-11.677 -1.012,-16.123 0.146,-7.846 -0.509,-14.243 -0.509,-14.243 0,0 -0.323,-7.558 -4.373,-12.039 -4.771,-4.811 -8.101,-2.747 -10.016,-1.593 -4.591,4.122 -2.457,9.146 -2.457,9.146 l 2.389,6.762 c 0,0 1.155,2.894 1.012,7.628 l 1.012,15.944 c 0,2.133 1.737,16.484 1.737,16.484 0,0 0.176,4.665 4.661,5.496 4.593,0.759 9.109,-1.52 11.025,-2.423 1.917,-0.901 4.447,-1.697 4.447,-1.697 0,0 2.098,-0.471 4.194,-0.65 4.916,-0.472 6.688,-1.338 6.688,-1.338 0,0 1.901,-0.286 3.184,-2.099 1.278,-1.81 2.826,-10.302 -6.22,-12.288"
     id="path2-8"
     inkscape:label="L"
     sodipodi:nodetypes="ccccccccccccccccccc" /><path
     fill="#c8a601"
     d="m 518.642,24.443 c -6.325,-10.339 -17.46,-11.894 -17.46,-11.894 0,0 -3.543,-1.194 -11.133,-0.183 -14.246,2.713 -19.2,13.667 -19.2,13.667 0,0 -5.099,8.024 -3.074,17.75 l 6.224,12.292 c 4.59,4.302 6.469,4.302 6.757,4.558 6.076,2.747 13.125,1.156 13.125,1.156 0,0 8.895,-0.867 17.029,-7.194 6.506,-4.771 9.326,-11.786 9.326,-11.786 l 0.863,-9.41 z m -17.316,21.113 c -10.231,6.146 -16.668,-0.579 -16.668,-0.579 0,0 -2.855,-1.88 -3.47,-7.593 -0.438,-6.615 6.146,-10.05 6.146,-10.05 0,0 3.471,-2.134 7.81,-1.808 4.339,0.324 5.708,0.035 9.219,2.64 3.324,3.002 3.107,5.206 3.107,5.206 0,0 1.195,7.449 -6.144,12.184"
     id="path7-5"
     inkscape:label="O" /><path
     fill="#00766a"
     d="m 520.234,42.809 c 0,0 0.218,5.783 -0.688,7.194 -1.229,2.639 -1.047,5.206 -1.047,5.206 0,0 -0.835,7.809 8.209,9.107 6.214,-0.035 6.971,-5.206 7.081,-7.411 0.36,-1.732 0.217,-9.798 0.217,-9.798 l 8.063,6.581 c 0,0 5.856,4.917 9.295,7.772 3.581,2.818 4.479,3.325 4.479,3.325 0,0 0.763,0.901 3.506,0.577 2.211,0.038 4.234,-1.952 4.234,-1.952 0,0 2.563,-1.875 3.214,-5.167 0.795,-3.905 -2.24,-5.821 -2.24,-5.821 0,0 -11.205,-9.039 -18.798,-15.258 5.097,-2.783 7.556,-4.699 7.556,-4.699 0,0 7.088,-4.698 8.604,-11.896 2.099,-7.918 -3.867,-11.024 -3.867,-11.024 0,0 -3.726,-2.676 -6.87,-4.087 -7.92,-3.868 -15.293,-3.073 -15.293,-3.073 0,0 -10.483,-0.722 -17.316,7.703 -3.144,4.083 -1.19,9.436 -1.19,9.436 0,0 0.388,0.857 1.263,4.916 1.753,8.167 1.588,18.369 1.588,18.369 z m 13.738,-16.053 -0.688,-9.435 c 0,0 6.614,-0.146 9.363,0.324 5.426,0.831 5.134,2.352 5.134,2.352 0,0 -0.181,1.915 -4.303,3.796 -4.48,2.17 -9.506,2.963 -9.506,2.963"
     id="path8-1"
     inkscape:label="R"
     sodipodi:nodetypes="ccccccccccccccccccccccccccccc" /></g><g
   id="g3"
   inkscape:label="Hacks"
   transform="matrix(0.96149214,0,0,0.96149214,52.591577,-4.015082)"
   style="display:inline"><path
     id="path1"
     style="font-size:131.278px;line-height:0;font-family:'CC Rick Veitch';-inkscape-font-specification:'CC Rick Veitch';text-align:center;letter-spacing:0px;word-spacing:0px;text-anchor:middle;fill:#94012c;fill-opacity:1;stroke-width:4.32902;paint-order:stroke markers fill"
     d="m 612.78733,122.48914 c -2.51474,0.20084 -4.88391,1.89938 -5.77175,4.2829 -1.38078,3.48125 -1.91125,7.23711 -2.22973,10.9481 -0.60119,9.09633 0.10969,18.20384 0.24573,27.30229 0.0234,4.1388 0.0255,8.20674 -0.57482,12.29557 -5.69722,1.42806 -11.20939,3.56207 -16.97781,4.70832 -3.1645,0.42659 -6.49895,0.64972 -9.56997,-0.39877 -0.91585,-0.33152 -1.78735,-0.79264 -2.55564,-1.39324 -0.89855,-4.11942 -0.23333,-8.39171 0.31522,-12.4556 0.58625,-4.11791 1.74626,-8.09589 2.5704,-12.20339 1.17131,-5.50379 2.40975,-11.26134 1.07611,-16.85503 -0.84435,-4.04471 -4.28974,-7.46201 -8.41251,-8.05784 -2.53085,-0.45941 -5.41728,-0.27423 -7.39813,1.55131 -2.55815,2.14728 -3.25816,5.57964 -3.9894,8.67043 -1.29995,5.95004 -1.47985,12.08614 -2.88012,18.01704 -2.14973,10.5072 -3.32054,21.19364 -4.06743,31.88523 -0.54742,9.11745 -0.65646,18.31808 0.61637,27.38136 0.68618,3.3737 1.64886,6.87662 3.91519,9.55613 2.54155,2.78686 6.59389,3.77771 10.24426,3.3197 1.85365,-0.1919 3.46471,-1.39156 4.35201,-3.00595 1.84939,-3.14311 2.09824,-6.85329 2.66466,-10.3715 0.33358,-1.91066 0.77275,-3.8715 1.92288,-5.47603 4.38917,0.15027 8.63449,-1.19062 12.70696,-2.6814 4.29196,-1.42398 8.37644,-3.55858 12.87214,-4.30335 1.4312,1.57388 1.45363,3.85927 1.58356,5.86396 0.007,2.17552 -0.43354,4.35124 -0.0849,6.52376 0.38814,2.99153 1.3132,6.00275 3.09396,8.46811 1.50442,2.14019 4.35674,2.70117 6.80891,2.34488 3.50997,-0.43038 6.74387,-2.51726 8.57455,-5.54425 2.73489,-4.39444 3.18859,-9.71021 3.43035,-14.75663 0.36128,-6.41336 -0.16142,-12.8305 -0.40822,-19.23787 -0.40432,-7.74234 -0.15324,-15.54986 -0.0614,-23.3178 0.17548,-8.80549 0.34681,-17.62449 -0.14135,-26.4225 -0.23176,-3.45849 -0.57753,-6.95694 -1.6474,-10.26944 -0.82279,-2.25475 -2.55444,-4.17593 -4.8046,-5.06479 -1.6906,-0.78109 -3.5335,-1.38945 -5.41797,-1.30371 z"
     inkscape:label="H" /><path
     id="path1-6"
     style="font-size:131.278px;line-height:0;font-family:'CC Rick Veitch';-inkscape-font-specification:'CC Rick Veitch';text-align:center;letter-spacing:0px;word-spacing:0px;text-anchor:middle;fill:#2d288b;fill-opacity:1;stroke-width:3.75565;paint-order:stroke markers fill"
     d="m 662.66315,135.29325 c -2.02513,0.0329 -4.23704,0.769 -5.30526,2.61052 -4.6504,6.83791 -9.007,13.87368 -13.02698,21.10075 -4.11908,7.38792 -8.17328,14.81292 -12.02673,22.34345 -2.97461,6.00428 -5.96865,12.07177 -7.62712,18.59748 -0.68682,2.61809 -1.17048,5.29723 -2.18524,7.81904 -1.00614,2.96195 -2.40254,5.80858 -2.93186,8.91491 -0.58267,2.85829 -0.87078,6.01214 0.54726,8.68469 1.36231,2.96945 4.26473,4.84335 7.22264,5.97099 2.21901,0.84477 4.99167,1.1114 6.99554,-0.39238 2.21296,-1.7163 3.61132,-4.20322 5.00093,-6.57777 1.12544,-1.67905 2.49757,-3.35837 4.47748,-4.03618 3.58172,-1.51142 7.5141,-2.40346 11.349,-3.30797 3.19806,-0.73066 6.40609,-1.39013 9.64882,-2.04959 0.94205,4.02946 1.93597,8.1677 4.20185,11.68832 1.02761,1.73595 2.51558,3.3357 4.52907,3.86569 1.56879,0.53597 3.32271,0.43909 4.79912,-0.3276 2.82555,-1.11708 4.63395,-3.85984 5.4391,-6.69038 1.42655,-4.97966 0.95728,-10.23726 0.39981,-15.31194 -0.80783,-6.69703 -2.22665,-13.29999 -3.54642,-19.90963 -1.89936,-9.25017 -4.1664,-18.37554 -5.47766,-27.72416 -0.63509,-5.0086 -0.55276,-10.12634 -1.88121,-15.03042 -0.86296,-3.56884 -3.0564,-6.74793 -5.86387,-9.0738 -1.36609,-0.9679 -3.10076,-1.21946 -4.73827,-1.16402 z m -4.08385,37.53422 c 1.34578,6.65961 2.64391,13.36942 4.0159,20.04554 -3.41411,1.937 -7.23544,3.06769 -10.91618,4.24709 -2.01119,0.64788 -4.02458,1.22498 -6.0611,1.85365 1.97789,-5.27546 4.32225,-10.37002 6.80166,-15.44921 1.85147,-3.7013 3.76294,-7.39504 6.14006,-10.79184 l 0.0186,0.0896 z"
     inkscape:label="A"
     sodipodi:nodetypes="ccccccccccccccccccccccccsccccccs" /><path
     fill="#94012c"
     d="m 751.84772,205.74548 c -5.30488,-1.59196 -11.39835,-0.53723 -11.39835,-0.53723 0,0 -17.22566,1.66096 -26.19582,-0.23986 -13.89389,-2.43147 -13.42895,-17.40145 -13.42895,-17.40145 0,0 -0.46494,-9.92139 7.90721,-23.34213 10.33211,-16.57343 21.73538,-19.54213 21.73538,-19.54213 0,0 2.84713,-1.06623 5.5201,0.35651 1.66425,9.61745 10.98762,9.55831 10.98762,9.55831 0,0 13.42403,0.89537 12.76687,-15.37577 -1.54102,-13.36981 -14.42782,-15.2082 -19.8362,-16.45844 -16.20543,-2.90955 -26.72812,5.76325 -26.72812,5.76325 0,0 -10.86605,5.87825 -23.87278,26.36997 -8.8568,12.70772 -9.92303,22.6899 -9.92303,22.6899 0,0 -1.06624,2.37561 -0.65059,12.95087 -0.23821,8.25222 2.8537,14.25368 2.8537,14.25368 0,0 4.6888,14.20275 19.53556,20.02185 9.03094,3.73921 22.22003,3.68171 22.22003,3.68171 0,0 12.76687,-0.17743 22.56176,-0.71465 5.34759,0.414 7.90557,-2.37726 7.90557,-2.37726 0,0 5.99325,-3.91828 5.40345,-10.7494 0,0 -1.16316,-7.0562 -7.36341,-8.90773"
     id="path3-2-9"
     inkscape:label="C"
     style="fill:#639d01;fill-opacity:1;stroke-width:1.64289" /><path
     id="text2"
     style="font-size:131.278px;line-height:0;font-family:'CC Rick Veitch';-inkscape-font-specification:'CC Rick Veitch';text-align:center;letter-spacing:0px;word-spacing:0px;text-anchor:middle;fill:#c8a601;fill-opacity:1;stroke-width:3.69048;paint-order:stroke markers fill"
     inkscape:label="K"
     d="m 818.57806,142.91728 c -1.71732,0.0876 -3.33308,1.00987 -4.28905,2.43872 -5.5001,6.77808 -10.00328,14.28394 -15.24769,21.25127 -2.80609,3.71958 -5.70606,7.39617 -9.14035,10.56392 -2.96336,2.91758 -6.25698,5.5218 -9.93884,7.47568 -2.51969,1.37529 -5.13096,2.60583 -7.87604,3.4622 0.67732,-9.7803 0.60473,-19.66041 -0.23264,-29.39863 -0.21727,-2.0246 -0.0174,-4.05366 0.0376,-6.07871 -0.0557,-2.47794 -0.5469,-5.245 -2.56856,-6.90549 -1.83143,-1.53305 -4.51438,-2.2358 -6.75429,-1.19368 -2.28071,1.03528 -3.95018,3.06995 -5.18538,5.19054 -0.91753,1.794 -1.38177,3.7839 -1.77356,5.74678 -0.32698,2.77278 -0.25923,5.57749 -0.17643,8.36289 0.0992,3.7565 0.48371,7.50377 0.36803,11.26496 -0.13075,9.28704 -0.95659,18.56142 -1.52725,27.8492 -0.29272,5.9977 -0.59255,12.03213 0.022,18.01942 0.35471,2.55295 0.75167,5.12046 1.51016,7.58885 0.77499,2.28729 2.08137,4.66415 4.44169,5.60483 1.9166,0.90977 4.23153,1.01114 6.1372,0.0175 1.729,-0.89003 3.03324,-2.56549 3.42072,-4.47669 0.75053,-2.1751 1.59188,-4.45744 3.32089,-6.05476 1.83829,-1.41199 4.31061,-1.09686 6.46027,-0.85007 5.64848,0.63437 11.06785,2.46132 16.41271,4.31327 5.98093,2.24177 12.13367,4.40111 18.57083,4.70222 2.65414,0.21402 5.30671,-1.06681 6.87981,-3.19681 2.01078,-2.70206 2.88385,-6.0516 3.49123,-9.31305 0.29258,-1.39747 0.26266,-2.8723 -0.31368,-4.19634 -0.41574,-1.32776 -1.4153,-2.40044 -2.68555,-2.95351 -2.59056,-1.25143 -5.42377,-1.86744 -8.16669,-2.68863 -3.94176,-1.04385 -7.91169,-1.87273 -11.80321,-3.03692 -2.8181,-1.03095 -5.69895,-2.24464 -7.84782,-4.40707 -0.51815,-0.31042 -0.44475,-0.71342 -0.11034,-1.1283 3.24822,-5.86262 8.06288,-10.62112 12.72442,-15.35605 3.49019,-3.50715 6.96076,-7.05785 9.91855,-11.03664 3.5412,-4.68627 6.23472,-10.13453 7.0486,-15.99659 0.64013,-4.47012 0.33124,-9.07376 -0.81914,-13.43381 -0.61546,-1.77833 -2.60711,-2.33146 -4.30817,-2.15057 z" /><path
     id="path1-66"
     style="font-size:131.278px;line-height:0;font-family:'CC Rick Veitch';-inkscape-font-specification:'CC Rick Veitch';text-align:center;letter-spacing:0px;word-spacing:0px;text-anchor:middle;fill:#00766a;fill-opacity:1;stroke-width:3.88506;paint-order:stroke markers fill"
     d="m 877.02122,123.32597 c -5.16589,0.12035 -10.17934,1.66792 -14.94414,3.5651 -8.34474,3.43544 -15.76155,8.82458 -22.23945,15.0552 -6.53097,6.21909 -12.51519,13.21461 -16.4781,21.37441 -2.79179,5.8494 -4.51109,12.31721 -4.32815,18.82932 0.14182,3.69033 1.3107,7.60998 4.24319,10.044 2.33958,1.9326 5.54909,2.16954 8.45187,1.89275 3.53803,-0.28529 6.87317,-1.59559 10.30845,-2.39309 3.12534,-0.82932 6.34814,-1.68891 9.49521,-2.00563 4.65989,-0.59229 9.37076,-1.08233 14.00672,-1.44717 2.98605,-0.15973 6.00876,-0.11988 8.96149,0.37918 0.63417,0.15163 1.26231,0.36211 1.8256,0.69545 -5.17773,4.7228 -11.29635,8.3657 -17.79352,10.95911 -0.47877,0.16596 -1.10992,0.41898 -1.6216,0.58153 -3.87833,1.33328 -8.06696,2.10937 -12.07866,2.34275 -1.65858,0.0287 -3.35067,0.22878 -4.99021,-0.0766 -2.40695,-0.59133 -4.16589,-2.64124 -6.64406,-3.0511 -1.95759,-0.45697 -4.16128,0.10633 -5.47802,1.6746 -1.6776,1.92096 -2.34774,4.48517 -2.84144,6.92923 -0.71253,4.39443 0.48083,9.06636 3.24148,12.5658 1.63074,2.19585 3.91445,3.94527 6.58012,4.65774 6.13195,1.9297 12.75868,1.12379 18.81532,-0.68747 5.74287,-1.85654 11.25578,-4.34348 16.76238,-6.7958 7.0166,-3.20694 13.69193,-7.47966 18.8144,-13.31313 2.40116,-2.85809 4.2554,-6.13874 5.87608,-9.48851 2.18775,-4.87009 3.90318,-10.03637 4.35147,-15.38198 0.27328,-4.88561 -0.68252,-10.03305 -3.61442,-14.04515 -1.48396,-1.84849 -4.02387,-2.13696 -6.238,-2.07492 -3.42072,0.084 -6.8134,0.73369 -10.24327,0.59745 -5.245,0.0847 -10.43418,0.95293 -15.61919,1.66749 -3.46302,0.55998 -6.94254,1.13917 -10.46367,1.08891 -2.5216,0.009 -5.11299,-0.20983 -7.45629,-1.20198 2.38938,-3.53292 5.48478,-6.70152 8.80982,-9.2445 5.88871,-4.40675 12.47129,-7.65117 19.29745,-10.39959 0.85392,-0.31705 1.71519,-0.8374 2.6857,-0.63583 2.47241,0.15122 4.74996,1.42643 6.45571,3.1764 1.65944,1.43726 3.24956,2.98522 5.07568,4.20918 1.86844,1.09004 4.2669,0.504 5.82617,-0.86454 2.03745,-1.52734 3.05505,-4.03359 3.29914,-6.50764 0.58419,-3.76118 -0.36982,-7.5695 -1.87278,-11.00557 -1.49503,-3.66352 -3.56757,-7.38846 -7.04065,-9.50405 -2.04122,-1.22061 -4.45328,-1.55991 -6.76364,-1.9249 -1.46936,-0.19223 -2.95281,-0.26716 -4.43419,-0.23646 z"
     inkscape:label="S"
     sodipodi:nodetypes="scccccccccccccccccccccccccccccccccccccccccss" /></g></svg>
