<?xml version="1.0" encoding="UTF-8" standalone="no"?>
<!DOCTYPE svg PUBLIC "-//W3C//DTD SVG 1.1//EN" "http://www.w3.org/Graphics/SVG/1.1/DTD/svg11.dtd">
<svg xmlns="http://www.w3.org/2000/svg" version="1.1" viewBox="0 0 754 325">
<g stroke-width="2.00" fill="none" stroke-linecap="butt">
<path stroke="#8080c0" vector-effect="non-scaling-stroke" d="
  M 313.82 71.87
  Q 314.54 77.50 314.83 84.25
  Q 316.09 113.39 317.25 142.05
  A 1.29 1.28 -1.4 0 0 318.55 143.28
  L 341.24 143.16
  A 0.90 0.90 0.0 0 0 342.13 142.21
  C 340.36 104.29 338.21 66.18 337.45 28.18
  C 337.42 26.68 337.10 25.14 336.70 23.81
  A 1.81 1.80 -8.2 0 0 334.97 22.52
  L 307.85 22.49
  A 0.72 0.71 11.0 0 0 307.19 22.93
  Q 294.10 54.27 279.96 85.14
  C 279.87 85.34 279.14 86.04 278.97 86.28
  A 0.44 0.44 0.0 0 1 278.18 86.09
  Q 273.92 58.78 268.48 31.75
  Q 267.58 27.34 266.01 22.94
  A 0.67 0.67 0.0 0 0 265.38 22.50
  L 243.55 22.50
  A 0.85 0.85 0.0 0 0 242.75 23.07
  Q 226.66 70.15 211.76 117.62
  A 0.73 0.73 0.0 0 1 210.34 117.51
  Q 206.78 94.35 202.59 71.34
  C 200.21 58.31 198.33 43.62 195.68 29.81
  Q 195.03 26.40 193.55 23.01
  A 0.85 0.84 -11.6 0 0 192.77 22.50
  L 165.00 22.50
  A 0.82 0.80 -77.2 0 0 164.27 22.97
  Q 142.14 71.01 121.45 119.69
  Q 121.11 120.50 119.72 122.42
  Q 119.41 122.84 119.25 122.34
  Q 118.82 120.96 119.11 118.92
  Q 121.61 101.70 124.25 84.41
  A 1.01 1.01 0.0 0 0 123.25 83.25
  L 79.98 83.25
  A 0.77 0.76 7.4 0 0 79.24 83.82
  Q 76.44 94.31 75.48 105.14
  A 0.55 0.54 -87.1 0 0 76.02 105.74
  L 93.71 105.75
  A 0.45 0.45 0.0 0 1 94.16 106.25
  C 93.51 112.28 93.81 118.90 86.25 120.01
  C 61.65 123.62 43.49 102.70 52.26 78.68
  Q 54.34 72.98 59.39 66.14
  C 75.27 44.64 104.85 40.11 129.03 48.02
  A 0.98 0.97 17.1 0 0 130.27 47.37
  Q 133.47 36.51 134.38 25.21
  A 0.66 0.66 0.0 0 0 133.96 24.54
  C 104.94 13.61 76.13 20.01 51.56 37.81
  C 30.14 53.34 24.04 75.20 26.08 100.78
  C 26.91 111.32 34.85 123.40 42.06 130.20
  C 60.45 147.54 91.50 148.09 112.58 135.65
  A 0.72 0.72 0.0 0 1 113.62 136.54
  L 111.42 142.10
  A 0.82 0.82 0.0 0 0 112.18 143.22
  L 135.26 143.26
  A 1.45 1.43 18.3 0 0 136.41 142.69
  Q 138.82 139.47 140.34 135.79
  C 144.20 126.46 148.15 115.37 153.56 106.90
  A 0.88 0.88 0.0 0 1 154.30 106.50
  L 181.01 106.50
  A 0.59 0.58 -3.9 0 1 181.59 107.00
  Q 184.18 124.50 188.29 141.70
  A 2.03 2.02 -6.7 0 0 190.26 143.25
  L 229.18 143.25
  A 0.58 0.57 9.0 0 0 229.73 142.86
  Q 240.73 110.94 250.13 78.52
  A 1.29 1.28 48.2 0 1 252.63 78.66
  Q 257.26 105.66 263.38 132.97
  Q 264.32 137.20 265.88 142.07
  A 1.69 1.68 -8.7 0 0 267.49 143.25
  L 280.43 143.25
  A 0.82 0.81 -76.0 0 0 281.15 142.81
  C 292.91 120.02 302.33 95.66 312.25 71.66
  A 0.82 0.82 0.0 0 1 313.82 71.87"
/>
<path stroke="#8080c0" vector-effect="non-scaling-stroke" d="
  M 375.22 117.16
  A 1.47 1.47 0.0 0 1 374.28 115.55
  L 377.38 95.78
  A 0.63 0.62 4.3 0 1 378.00 95.25
  L 413.51 95.25
  A 1.59 1.58 6.1 0 0 415.06 94.00
  Q 417.47 82.90 418.72 71.57
  Q 418.94 69.53 416.89 69.53
  L 381.97 69.49
  A 0.61 0.60 -85.5 0 1 381.38 68.79
  L 384.51 48.71
  A 0.54 0.54 0.0 0 1 385.04 48.25
  L 425.76 48.25
  A 0.89 0.88 -74.0 0 0 426.51 47.83
  C 429.96 42.20 430.81 30.36 431.41 23.94
  A 1.32 1.32 0.0 0 0 430.10 22.50
  L 365.22 22.52
  A 2.05 2.05 0.0 0 0 363.20 24.24
  Q 353.78 81.83 344.70 140.14
  C 344.29 142.79 344.37 143.28 347.26 143.26
  Q 378.99 143.07 410.84 143.29
  A 1.97 1.96 7.1 0 0 412.76 141.80
  Q 415.55 130.76 416.83 119.44
  Q 417.05 117.52 415.12 117.52
  Q 395.87 117.49 376.39 117.49
  C 376.22 117.49 375.36 117.21 375.22 117.16"
/>
<path stroke="#8080c0" vector-effect="non-scaling-stroke" d="
  M 585.29 26.95
  C 565.29 37.76 551.15 56.03 548.98 79.16
  C 547.05 99.73 551.61 116.24 565.03 131.97
  C 579.64 149.10 605.11 148.45 622.46 136.21
  C 654.05 113.93 661.01 72.72 639.30 40.70
  C 629.33 25.99 613.40 20.43 596.34 23.14
  Q 590.67 24.04 585.29 26.95"
/>
<path stroke="#8080c0" vector-effect="non-scaling-stroke" d="
  M 730.19 29.90
  Q 732.37 26.54 734.18 23.23
  A 0.50 0.49 14.2 0 0 733.74 22.50
  L 707.26 22.50
  A 1.07 1.07 0.0 0 0 706.46 22.86
  Q 704.83 24.68 703.50 26.75
  Q 692.96 43.11 683.12 59.89
  Q 683.04 60.03 682.96 60.15
  A 1.55 1.55 0.0 0 1 680.21 59.77
  Q 674.06 41.33 666.08 23.60
  A 1.89 1.88 -12.1 0 0 664.36 22.49
  L 639.28 22.51
  A 0.90 0.90 0.0 0 0 638.46 23.78
  Q 651.67 52.73 665.07 82.18
  C 666.13 84.51 666.94 85.37 666.53 88.02
  Q 662.42 114.68 658.16 141.87
  A 1.14 1.13 -85.6 0 0 659.28 143.18
  L 681.19 143.28
  A 0.81 0.81 0.0 0 0 681.98 142.66
  C 685.58 127.61 687.63 111.97 690.03 96.68
  Q 690.42 94.19 691.61 92.06
  C 703.53 70.82 716.91 50.30 730.19 29.90"
/>
<path stroke="#8080c0" vector-effect="non-scaling-stroke" d="
  M 469.88 25.17
  Q 468.22 32.92 466.91 40.74
  Q 458.52 90.82 450.75 141.03
  A 1.26 1.26 0.0 0 0 452.00 142.48
  Q 479.62 142.53 507.17 142.48
  C 509.18 142.47 512.31 142.16 514.12 141.45
  C 529.11 135.54 543.71 124.05 544.07 106.62
  C 544.29 96.30 539.28 88.92 532.95 81.40
  A 0.83 0.83 0.0 0 1 532.96 80.31
  C 542.58 69.47 549.87 56.62 542.83 42.30
  C 538.49 33.48 527.43 23.24 517.25 23.25
  Q 494.28 23.26 470.53 23.24
  A 0.52 0.52 0.0 0 0 470.01 23.81
  Q 470.06 24.35 469.88 25.17"
/>
<path stroke="#ff8080" vector-effect="non-scaling-stroke" d="
  M 338.94 302.31
  Q 345.81 302.61 349.69 302.40
  A 0.57 0.56 -88.9 0 0 350.23 301.88
  L 350.54 298.33
  A 0.53 0.53 0.0 0 0 350.05 297.76
  C 336.16 296.61 332.81 293.41 328.45 280.77
  Q 311.04 230.28 293.70 179.77
  Q 290.93 171.72 288.54 161.55
  A 0.66 0.66 0.0 0 0 287.81 161.04
  L 280.15 162.05
  A 0.94 0.94 0.0 0 0 279.37 162.68
  Q 276.34 171.22 272.81 179.56
  Q 252.09 228.63 231.17 277.62
  C 228.42 284.08 224.79 292.01 218.39 295.54
  C 215.21 297.29 210.85 297.63 207.08 298.08
  A 0.67 0.66 -6.2 0 0 206.50 298.80
  L 206.79 301.90
  A 0.57 0.57 0.0 0 0 207.32 302.41
  C 211.64 302.68 217.13 302.28 220.19 302.26
  Q 235.84 302.13 252.50 302.58
  A 1.18 1.18 0.0 0 0 253.71 301.47
  L 253.93 298.24
  A 0.49 0.49 0.0 0 0 253.44 297.72
  Q 247.58 297.72 242.04 295.97
  C 235.04 293.76 238.67 285.20 240.41 280.67
  Q 246.03 266.07 251.63 251.87
  A 0.98 0.97 10.5 0 1 252.54 251.25
  L 299.73 251.25
  A 0.70 0.69 -9.3 0 1 300.39 251.72
  Q 306.14 268.36 311.50 285.13
  C 315.38 297.26 307.46 296.90 298.24 298.17
  A 0.57 0.56 -7.3 0 0 297.75 298.79
  L 298.06 302.04
  A 0.57 0.56 -3.3 0 0 298.64 302.55
  Q 328.32 301.85 338.94 302.31"
/>
<path stroke="#ff8080" vector-effect="non-scaling-stroke" d="
  M 429.29 297.93
  C 387.28 293.16 375.08 248.99 381.51 213.76
  C 385.99 189.25 403.59 172.96 427.66 169.07
  C 446.67 166.00 466.27 170.79 472.81 191.09
  C 473.75 193.99 474.14 197.63 474.80 200.89
  A 0.62 0.62 0.0 0 0 475.46 201.38
  L 479.79 200.97
  A 0.50 0.50 0.0 0 0 480.25 200.46
  Q 480.08 183.69 481.45 166.97
  A 0.61 0.61 0.0 0 0 481.00 166.33
  C 429.84 152.88 363.23 167.21 360.04 231.02
  C 358.64 259.05 371.81 284.18 396.37 296.70
  C 422.02 309.76 452.79 306.38 479.38 298.61
  A 0.80 0.78 -5.5 0 0 479.95 297.93
  Q 481.77 280.57 486.00 263.64
  A 0.68 0.68 0.0 0 0 485.48 262.81
  L 481.44 261.95
  A 0.79 0.79 0.0 0 0 480.54 262.43
  C 470.78 286.47 457.16 301.09 429.29 297.93"
/>
<path stroke="#ff8080" vector-effect="non-scaling-stroke" d="
  M 652.90 299.65
  C 671.07 305.06 690.18 308.47 708.22 301.28
  C 724.69 294.72 735.92 279.62 734.23 261.63
  C 732.06 238.52 709.94 229.86 691.91 221.36
  C 677.20 214.42 667.09 208.82 667.26 192.01
  C 667.44 174.03 683.08 166.28 699.26 169.75
  C 713.90 172.88 721.29 184.22 722.26 198.79
  A 0.54 0.53 85.7 0 0 722.83 199.29
  L 727.42 198.97
  A 0.63 0.63 0.0 0 0 728.01 198.33
  Q 727.84 182.66 729.24 167.06
  A 0.57 0.56 -80.0 0 0 728.82 166.45
  C 706.05 160.53 672.58 156.11 656.67 179.02
  C 649.20 189.77 648.39 204.71 655.48 216.02
  C 660.75 224.45 669.56 230.65 678.46 234.83
  C 688.85 239.70 701.79 244.42 710.04 252.47
  C 721.42 263.59 720.30 283.75 707.14 292.85
  Q 700.21 297.64 690.45 297.73
  C 668.64 297.92 659.06 281.77 652.01 263.39
  A 0.64 0.62 -16.4 0 0 651.28 263.00
  L 646.77 264.06
  A 0.59 0.59 0.0 0 0 646.34 264.78
  Q 650.68 281.62 652.32 298.94
  A 0.82 0.82 0.0 0 0 652.90 299.65"
/>
<path stroke="#ff8080" vector-effect="non-scaling-stroke" d="
  M 90.28 233.82
  L 167.05 234.05
  A 0.46 0.46 0.0 0 1 167.50 234.51
  Q 167.49 258.16 167.51 281.81
  C 167.51 294.64 162.88 297.27 151.08 298.16
  A 0.63 0.63 0.0 0 0 150.49 298.85
  L 150.79 302.22
  A 0.66 0.66 0.0 0 0 151.47 302.82
  Q 176.13 301.97 200.79 302.82
  A 0.64 0.64 0.0 0 0 201.45 302.26
  L 201.88 298.56
  A 0.55 0.54 -84.5 0 0 201.38 297.95
  C 193.60 297.45 183.73 297.50 183.72 286.75
  Q 183.69 248.24 183.78 209.73
  C 183.80 200.99 183.38 191.99 183.93 182.51
  C 184.57 171.43 190.80 169.55 200.58 168.91
  A 0.61 0.60 86.6 0 0 201.14 168.27
  L 200.95 165.06
  A 0.46 0.45 -2.0 0 0 200.49 164.64
  L 150.55 164.58
  A 0.45 0.44 -0.0 0 0 150.10 165.02
  L 150.07 168.58
  A 0.58 0.57 -89.5 0 0 150.63 169.16
  C 158.50 169.35 167.44 170.28 167.47 179.50
  Q 167.56 202.45 167.48 225.31
  A 0.44 0.44 0.0 0 1 167.04 225.75
  L 90.80 225.75
  A 1.15 1.15 0.0 0 1 89.65 224.54
  C 90.31 210.07 89.82 196.15 89.89 181.97
  C 89.94 171.80 97.65 169.09 106.27 169.01
  A 0.68 0.67 86.9 0 0 106.94 168.26
  L 106.60 165.13
  A 0.72 0.71 -3.1 0 0 105.89 164.50
  L 56.42 164.50
  A 0.62 0.62 0.0 0 0 55.80 165.09
  L 55.60 168.66
  A 0.47 0.47 0.0 0 0 56.06 169.16
  Q 61.88 169.30 66.73 170.53
  C 73.20 172.15 73.48 177.33 73.51 183.00
  Q 73.78 231.22 73.72 279.44
  C 73.70 293.65 70.29 296.60 56.71 298.07
  A 0.62 0.61 -2.7 0 0 56.16 298.67
  L 56.11 301.58
  A 0.63 0.62 -82.0 0 0 56.56 302.18
  Q 57.95 302.56 60.25 302.49
  Q 83.17 301.79 106.14 302.92
  A 1.04 1.04 0.0 0 0 107.24 301.88
  L 107.25 298.60
  A 0.60 0.59 -88.0 0 0 106.70 298.00
  C 94.52 297.15 89.43 296.24 89.68 282.73
  Q 90.13 258.51 89.82 234.29
  A 0.46 0.46 0.0 0 1 90.28 233.82"
/>
<path stroke="#ff8080" vector-effect="non-scaling-stroke" d="
  M 550.94 238.56
  Q 562.73 251.61 590.08 285.17
  Q 597.92 294.79 602.92 302.09
  A 0.95 0.95 0.0 0 0 603.72 302.50
  Q 619.76 302.09 635.81 302.76
  A 0.61 0.61 0.0 0 0 636.45 302.19
  L 636.67 298.37
  A 0.50 0.50 0.0 0 0 636.19 297.84
  C 622.53 297.40 615.46 289.22 605.69 278.30
  Q 582.71 252.65 561.31 225.62
  A 0.70 0.69 42.6 0 1 561.27 224.80
  Q 562.56 222.86 564.21 221.21
  C 577.14 208.23 589.78 194.92 603.18 182.43
  Q 616.16 170.33 633.87 168.89
  A 0.63 0.63 0.0 0 0 634.45 168.21
  L 634.19 165.03
  A 0.48 0.47 -2.6 0 0 633.71 164.60
  L 583.24 164.60
  A 0.51 0.50 -87.5 0 0 582.74 165.07
  L 582.45 168.32
  A 0.55 0.55 0.0 0 0 582.96 168.92
  Q 585.70 169.10 591.11 170.16
  C 600.87 172.08 593.09 180.65 590.24 183.98
  Q 574.17 202.77 556.20 219.71
  C 551.04 224.56 546.85 227.27 540.39 228.73
  A 0.73 0.73 0.0 0 1 539.51 228.02
  Q 539.47 207.59 539.53 187.18
  C 539.57 173.25 544.04 169.55 557.55 168.90
  A 0.51 0.51 0.0 0 0 558.03 168.31
  L 557.50 165.01
  A 0.50 0.48 -4.0 0 0 557.01 164.60
  L 505.41 164.57
  A 0.54 0.54 0.0 0 0 504.87 165.08
  L 504.70 168.16
  A 1.02 1.01 1.9 0 0 505.70 169.22
  C 514.41 169.36 523.38 170.10 523.42 181.28
  Q 523.59 230.71 523.46 280.14
  C 523.42 293.77 519.02 297.85 505.65 298.04
  A 0.56 0.55 -90.0 0 0 505.10 298.60
  L 505.09 302.23
  A 0.62 0.61 -0.9 0 0 505.73 302.84
  Q 531.51 301.95 557.29 302.85
  A 0.66 0.66 0.0 0 0 557.97 302.21
  L 558.08 298.65
  A 0.57 0.56 9.0 0 0 557.66 298.08
  C 554.24 297.09 550.86 297.42 545.82 296.02
  C 540.02 294.42 539.56 289.25 539.52 284.74
  Q 539.39 271.39 539.56 236.14
  A 0.61 0.60 84.9 0 1 540.05 235.54
  Q 547.04 234.26 550.94 238.56"
/>
<path stroke="#8080c0" vector-effect="non-scaling-stroke" d="
  M 164.96 83.49
  C 166.13 84.17 173.82 83.09 175.95 83.52
  A 1.12 1.12 0.0 0 0 177.29 82.30
  Q 176.23 72.35 173.47 62.76
  A 0.82 0.81 48.7 0 0 171.94 62.66
  Q 167.85 72.12 163.65 82.19
  C 163.36 82.88 163.63 83.33 164.39 83.33
  A 1.10 1.07 -28.5 0 1 164.96 83.49"
/>
<path stroke="#8080c0" vector-effect="non-scaling-stroke" d="
  M 604.80 45.92
  C 586.90 45.82 578.77 64.77 575.03 78.96
  C 571.82 91.21 574.13 117.34 590.18 120.75
  C 601.88 123.24 610.08 117.82 616.18 108.47
  C 622.90 98.20 628.25 83.98 626.15 71.70
  C 624.07 59.58 619.80 46.00 604.80 45.92"
/>
<path stroke="#8080c0" vector-effect="non-scaling-stroke" d="
  M 490.30 49.91
  Q 488.64 60.17 487.52 70.33
  A 0.50 0.48 -85.6 0 0 487.98 70.88
  Q 497.34 71.37 506.54 70.59
  Q 518.36 69.57 518.15 57.80
  C 517.93 45.72 500.29 47.76 491.16 48.39
  A 0.71 0.70 5.7 0 0 490.52 48.91
  Q 490.38 49.41 490.30 49.91"
/>
<path stroke="#8080c0" vector-effect="non-scaling-stroke" d="
  M 483.65 96.04
  Q 480.62 107.46 479.81 119.26
  A 0.46 0.46 0.0 0 0 480.26 119.75
  C 489.99 119.84 516.09 122.56 517.99 108.53
  C 520.25 91.85 493.63 94.95 484.47 95.38
  A 0.89 0.89 0.0 0 0 483.65 96.04"
/>
<path stroke="#ff8080" vector-effect="non-scaling-stroke" d="
  M 278.70 187.00
  A 0.70 0.70 0.0 0 0 277.39 186.96
  L 255.31 242.54
  A 0.70 0.70 0.0 0 0 255.96 243.50
  L 296.80 243.50
  A 0.70 0.70 0.0 0 0 297.47 242.58
  L 278.70 187.00"
/>
</g>
<g fill="#ffffff">
<path d="
  M 303.36 126.53
  L 293.27 148.37
  A 0.44 0.43 -63.5 0 0 293.45 148.93
  C 302.05 153.46 301.71 162.70 304.54 171.02
  Q 322.32 223.33 340.46 275.51
  Q 341.91 279.68 343.99 283.56
  A 0.91 0.91 0.0 0 0 344.74 284.04
  C 353.26 284.70 360.56 285.92 362.75 294.52
  C 364.60 301.78 362.87 310.87 355.42 314.17
  Q 352.65 315.39 345.50 315.44
  Q 325.26 315.57 304.99 315.49
  C 293.58 315.45 286.04 314.09 284.96 301.50
  Q 284.07 291.23 292.19 286.72
  C 293.75 285.85 295.56 285.74 297.34 284.97
  A 0.52 0.52 0.0 0 0 297.63 284.32
  L 291.18 264.76
  A 0.75 0.74 80.6 0 0 290.48 264.25
  L 261.29 264.26
  A 0.76 0.75 -79.1 0 0 260.59 264.74
  L 253.00 284.24
  A 0.38 0.37 -78.2 0 0 253.33 284.75
  C 265.75 285.38 269.66 298.88 264.90 308.44
  C 261.90 314.45 255.93 315.39 249.10 315.44
  C 234.92 315.53 219.49 316.52 205.44 315.14
  C 202.92 314.89 200.87 316.05 198.50 315.97
  Q 175.10 315.17 151.70 315.81
  Q 146.60 315.95 142.67 312.61
  C 136.15 307.05 135.40 293.65 142.44 288.27
  C 145.54 285.90 150.08 285.21 153.94 284.57
  A 0.53 0.52 -5.4 0 0 154.37 284.06
  L 154.22 247.50
  A 0.48 0.48 0.0 0 0 153.74 247.03
  L 103.44 246.91
  A 0.40 0.40 0.0 0 0 103.04 247.31
  L 102.78 283.57
  A 1.18 1.18 0.0 0 0 103.93 284.76
  Q 111.07 284.94 115.47 288.60
  C 123.13 294.97 121.53 310.55 112.09 314.52
  Q 109.25 315.71 102.59 315.66
  Q 81.67 315.51 60.72 315.43
  Q 54.44 315.41 51.81 314.33
  C 43.67 311.01 41.25 300.30 44.51 293.00
  C 47.40 286.55 53.34 284.89 60.00 284.70
  A 0.50 0.50 0.0 0 0 60.49 284.20
  Q 60.45 247.13 60.74 210.07
  Q 60.85 197.03 60.34 183.09
  A 0.65 0.65 0.0 0 0 59.70 182.47
  C 53.69 182.37 48.58 181.15 44.89 176.10
  C 39.73 169.03 42.82 155.03 51.96 152.46
  Q 52.43 152.33 51.99 152.13
  C 32.00 142.77 14.44 123.13 12.93 100.43
  C 11.03 71.70 18.56 46.80 41.83 28.83
  C 69.77 7.26 104.54 -0.18 138.24 12.22
  C 145.28 14.81 147.58 20.90 147.46 28.01
  Q 147.46 28.50 147.63 28.05
  C 149.20 24.08 151.52 18.81 153.27 16.06
  C 156.76 10.57 161.37 9.66 168.07 9.54
  Q 187.66 9.19 193.82 9.63
  C 202.40 10.25 205.60 16.23 207.51 24.34
  Q 211.81 42.57 213.72 61.26
  Q 213.82 62.22 214.71 64.95
  Q 214.87 65.43 215.03 64.95
  Q 222.26 43.20 229.51 21.47
  Q 231.40 15.80 233.62 13.55
  C 239.14 7.95 250.54 9.39 260.16 9.47
  C 269.66 9.55 277.00 11.31 279.19 21.08
  Q 281.64 31.96 284.11 42.88
  Q 284.22 43.37 284.42 42.91
  Q 289.20 31.79 294.00 20.76
  Q 296.36 15.32 298.37 13.31
  C 303.91 7.75 317.28 9.40 328.30 9.48
  C 339.76 9.57 347.81 10.86 349.80 23.14
  A 0.27 0.27 0.0 0 0 350.33 23.13
  C 351.94 11.96 359.14 9.59 369.53 9.55
  Q 396.36 9.44 423.20 9.52
  Q 433.16 9.54 436.60 11.12
  C 443.80 14.43 444.90 21.32 444.02 28.98
  Q 442.88 38.76 440.33 48.24
  C 438.47 55.15 435.37 59.31 428.52 60.92
  A 0.33 0.32 64.9 0 0 428.34 61.43
  Q 432.20 66.66 431.74 71.74
  C 430.76 82.61 429.27 99.92 422.14 105.47
  A 0.32 0.32 0.0 0 0 422.18 106.01
  C 428.38 109.57 430.61 114.91 429.69 122.09
  Q 428.02 135.00 424.47 147.58
  C 424.13 148.80 423.52 149.22 422.83 150.19
  Q 422.53 150.60 423.02 150.49
  Q 431.03 148.78 439.22 148.60
  A 0.27 0.27 0.0 0 0 439.45 148.21
  Q 437.13 143.70 437.51 141.25
  Q 443.28 104.26 453.22 44.25
  Q 455.31 31.61 457.63 21.30
  C 459.05 15.01 462.99 10.81 469.44 10.38
  Q 479.58 9.72 515.18 10.32
  C 533.01 10.62 544.56 20.38 553.93 34.60
  A 0.40 0.39 49.5 0 0 554.55 34.65
  C 564.20 24.21 577.94 13.50 592.08 10.69
  Q 610.31 7.06 628.04 14.29
  A 0.79 0.77 34.0 0 0 628.87 14.14
  Q 633.54 9.67 640.24 9.57
  Q 660.18 9.29 665.57 9.61
  C 676.28 10.25 680.43 22.83 684.05 32.10
  Q 684.23 32.57 684.49 32.14
  Q 689.56 23.86 695.08 16.08
  Q 699.66 9.63 707.75 9.57
  Q 719.90 9.49 732.05 9.50
  C 741.48 9.51 748.59 15.83 746.90 25.49
  Q 746.29 28.92 742.77 34.37
  C 729.56 54.78 716.37 75.30 704.20 96.38
  Q 702.82 98.77 702.40 101.59
  C 700.01 117.63 698.07 133.77 693.72 148.16
  A 0.35 0.35 0.0 0 0 694.08 148.61
  C 706.34 147.96 718.22 150.55 730.27 153.53
  C 740.47 156.05 742.66 161.88 741.97 171.71
  Q 741.05 184.69 740.87 197.74
  C 740.71 208.83 732.14 212.74 722.26 212.15
  C 703.18 211.02 715.18 188.80 698.33 182.92
  C 692.55 180.90 681.91 181.60 680.55 189.30
  Q 678.49 200.89 689.63 205.98
  C 713.07 216.69 736.11 225.23 744.49 248.52
  C 749.85 263.41 747.53 281.78 737.79 294.76
  C 721.36 316.64 692.55 322.03 666.76 316.23
  Q 652.75 313.08 647.09 311.34
  A 1.14 1.13 35.2 0 0 646.08 311.51
  L 642.77 313.95
  Q 642.38 314.24 641.90 314.36
  C 638.89 315.08 636.27 315.89 633.12 315.81
  Q 612.67 315.32 605.75 315.49
  C 593.30 315.78 590.89 306.90 584.50 299.00
  Q 571.26 282.61 552.86 260.92
  Q 552.61 260.62 552.61 261.02
  L 552.77 284.06
  A 0.42 0.41 89.3 0 0 553.18 284.47
  C 565.69 284.60 573.51 291.49 570.64 304.70
  C 568.84 312.97 562.88 315.79 555.00 315.71
  Q 531.70 315.46 508.36 315.70
  C 502.36 315.77 498.10 314.76 494.68 310.15
  C 493.14 308.07 492.93 305.56 492.19 303.00
  Q 492.05 302.53 491.88 302.99
  Q 489.74 308.84 484.75 310.46
  Q 471.38 314.80 454.62 317.19
  C 411.10 323.40 366.74 307.61 351.56 263.71
  C 346.56 249.24 345.59 231.21 348.92 215.92
  Q 358.18 173.46 399.97 156.50
  Q 400.43 156.31 399.94 156.31
  Q 359.22 156.53 345.50 156.17
  C 337.52 155.96 329.37 156.55 321.34 156.49
  C 301.56 156.34 304.23 140.45 303.46 126.55
  Q 303.45 126.33 303.36 126.53
  Z
  M 313.82 71.87
  Q 314.54 77.50 314.83 84.25
  Q 316.09 113.39 317.25 142.05
  A 1.29 1.28 -1.4 0 0 318.55 143.28
  L 341.24 143.16
  A 0.90 0.90 0.0 0 0 342.13 142.21
  C 340.36 104.29 338.21 66.18 337.45 28.18
  C 337.42 26.68 337.10 25.14 336.70 23.81
  A 1.81 1.80 -8.2 0 0 334.97 22.52
  L 307.85 22.49
  A 0.72 0.71 11.0 0 0 307.19 22.93
  Q 294.10 54.27 279.96 85.14
  C 279.87 85.34 279.14 86.04 278.97 86.28
  A 0.44 0.44 0.0 0 1 278.18 86.09
  Q 273.92 58.78 268.48 31.75
  Q 267.58 27.34 266.01 22.94
  A 0.67 0.67 0.0 0 0 265.38 22.50
  L 243.55 22.50
  A 0.85 0.85 0.0 0 0 242.75 23.07
  Q 226.66 70.15 211.76 117.62
  A 0.73 0.73 0.0 0 1 210.34 117.51
  Q 206.78 94.35 202.59 71.34
  C 200.21 58.31 198.33 43.62 195.68 29.81
  Q 195.03 26.40 193.55 23.01
  A 0.85 0.84 -11.6 0 0 192.77 22.50
  L 165.00 22.50
  A 0.82 0.80 -77.2 0 0 164.27 22.97
  Q 142.14 71.01 121.45 119.69
  Q 121.11 120.50 119.72 122.42
  Q 119.41 122.84 119.25 122.34
  Q 118.82 120.96 119.11 118.92
  Q 121.61 101.70 124.25 84.41
  A 1.01 1.01 0.0 0 0 123.25 83.25
  L 79.98 83.25
  A 0.77 0.76 7.4 0 0 79.24 83.82
  Q 76.44 94.31 75.48 105.14
  A 0.55 0.54 -87.1 0 0 76.02 105.74
  L 93.71 105.75
  A 0.45 0.45 0.0 0 1 94.16 106.25
  C 93.51 112.28 93.81 118.90 86.25 120.01
  C 61.65 123.62 43.49 102.70 52.26 78.68
  Q 54.34 72.98 59.39 66.14
  C 75.27 44.64 104.85 40.11 129.03 48.02
  A 0.98 0.97 17.1 0 0 130.27 47.37
  Q 133.47 36.51 134.38 25.21
  A 0.66 0.66 0.0 0 0 133.96 24.54
  C 104.94 13.61 76.13 20.01 51.56 37.81
  C 30.14 53.34 24.04 75.20 26.08 100.78
  C 26.91 111.32 34.85 123.40 42.06 130.20
  C 60.45 147.54 91.50 148.09 112.58 135.65
  A 0.72 0.72 0.0 0 1 113.62 136.54
  L 111.42 142.10
  A 0.82 0.82 0.0 0 0 112.18 143.22
  L 135.26 143.26
  A 1.45 1.43 18.3 0 0 136.41 142.69
  Q 138.82 139.47 140.34 135.79
  C 144.20 126.46 148.15 115.37 153.56 106.90
  A 0.88 0.88 0.0 0 1 154.30 106.50
  L 181.01 106.50
  A 0.59 0.58 -3.9 0 1 181.59 107.00
  Q 184.18 124.50 188.29 141.70
  A 2.03 2.02 -6.7 0 0 190.26 143.25
  L 229.18 143.25
  A 0.58 0.57 9.0 0 0 229.73 142.86
  Q 240.73 110.94 250.13 78.52
  A 1.29 1.28 48.2 0 1 252.63 78.66
  Q 257.26 105.66 263.38 132.97
  Q 264.32 137.20 265.88 142.07
  A 1.69 1.68 -8.7 0 0 267.49 143.25
  L 280.43 143.25
  A 0.82 0.81 -76.0 0 0 281.15 142.81
  C 292.91 120.02 302.33 95.66 312.25 71.66
  A 0.82 0.82 0.0 0 1 313.82 71.87
  Z
  M 375.22 117.16
  A 1.47 1.47 0.0 0 1 374.28 115.55
  L 377.38 95.78
  A 0.63 0.62 4.3 0 1 378.00 95.25
  L 413.51 95.25
  A 1.59 1.58 6.1 0 0 415.06 94.00
  Q 417.47 82.90 418.72 71.57
  Q 418.94 69.53 416.89 69.53
  L 381.97 69.49
  A 0.61 0.60 -85.5 0 1 381.38 68.79
  L 384.51 48.71
  A 0.54 0.54 0.0 0 1 385.04 48.25
  L 425.76 48.25
  A 0.89 0.88 -74.0 0 0 426.51 47.83
  C 429.96 42.20 430.81 30.36 431.41 23.94
  A 1.32 1.32 0.0 0 0 430.10 22.50
  L 365.22 22.52
  A 2.05 2.05 0.0 0 0 363.20 24.24
  Q 353.78 81.83 344.70 140.14
  C 344.29 142.79 344.37 143.28 347.26 143.26
  Q 378.99 143.07 410.84 143.29
  A 1.97 1.96 7.1 0 0 412.76 141.80
  Q 415.55 130.76 416.83 119.44
  Q 417.05 117.52 415.12 117.52
  Q 395.87 117.49 376.39 117.49
  C 376.22 117.49 375.36 117.21 375.22 117.16
  Z
  M 585.29 26.95
  C 565.29 37.76 551.15 56.03 548.98 79.16
  C 547.05 99.73 551.61 116.24 565.03 131.97
  C 579.64 149.10 605.11 148.45 622.46 136.21
  C 654.05 113.93 661.01 72.72 639.30 40.70
  C 629.33 25.99 613.40 20.43 596.34 23.14
  Q 590.67 24.04 585.29 26.95
  Z
  M 730.19 29.90
  Q 732.37 26.54 734.18 23.23
  A 0.50 0.49 14.2 0 0 733.74 22.50
  L 707.26 22.50
  A 1.07 1.07 0.0 0 0 706.46 22.86
  Q 704.83 24.68 703.50 26.75
  Q 692.96 43.11 683.12 59.89
  Q 683.04 60.03 682.96 60.15
  A 1.55 1.55 0.0 0 1 680.21 59.77
  Q 674.06 41.33 666.08 23.60
  A 1.89 1.88 -12.1 0 0 664.36 22.49
  L 639.28 22.51
  A 0.90 0.90 0.0 0 0 638.46 23.78
  Q 651.67 52.73 665.07 82.18
  C 666.13 84.51 666.94 85.37 666.53 88.02
  Q 662.42 114.68 658.16 141.87
  A 1.14 1.13 -85.6 0 0 659.28 143.18
  L 681.19 143.28
  A 0.81 0.81 0.0 0 0 681.98 142.66
  C 685.58 127.61 687.63 111.97 690.03 96.68
  Q 690.42 94.19 691.61 92.06
  C 703.53 70.82 716.91 50.30 730.19 29.90
  Z
  M 469.88 25.17
  Q 468.22 32.92 466.91 40.74
  Q 458.52 90.82 450.75 141.03
  A 1.26 1.26 0.0 0 0 452.00 142.48
  Q 479.62 142.53 507.17 142.48
  C 509.18 142.47 512.31 142.16 514.12 141.45
  C 529.11 135.54 543.71 124.05 544.07 106.62
  C 544.29 96.30 539.28 88.92 532.95 81.40
  A 0.83 0.83 0.0 0 1 532.96 80.31
  C 542.58 69.47 549.87 56.62 542.83 42.30
  C 538.49 33.48 527.43 23.24 517.25 23.25
  Q 494.28 23.26 470.53 23.24
  A 0.52 0.52 0.0 0 0 470.01 23.81
  Q 470.06 24.35 469.88 25.17
  Z
  M 132.30 60.37
  C 129.49 62.15 124.98 60.23 122.09 59.46
  C 115.03 57.58 107.59 57.16 100.55 57.78
  C 80.97 59.53 61.04 74.35 63.41 95.94
  Q 63.47 96.46 63.54 95.95
  C 64.47 89.46 65.76 79.18 70.47 74.33
  C 74.39 70.30 80.72 70.06 86.25 70.05
  Q 111.43 69.99 122.72 70.18
  C 124.33 70.21 125.97 70.93 127.64 71.15
  A 0.66 0.66 0.0 0 0 128.34 70.76
  L 132.74 60.75
  A 0.30 0.30 0.0 0 0 132.30 60.37
  Z
  M 143.00 154.00
  C 134.84 157.89 125.50 156.38 116.81 156.29
  Q 116.32 156.28 116.59 156.69
  C 121.08 163.47 121.32 173.24 114.90 178.69
  C 111.95 181.19 107.47 181.78 103.60 182.37
  A 0.69 0.69 0.0 0 0 103.01 183.05
  L 102.77 211.87
  A 0.60 0.60 0.0 0 0 103.37 212.48
  L 154.11 212.59
  A 0.45 0.45 0.0 0 0 154.56 212.13
  L 154.29 183.21
  A 0.85 0.85 0.0 0 0 153.47 182.37
  Q 138.58 181.66 137.06 168.62
  C 136.74 165.89 137.68 162.99 138.37 160.28
  C 139.10 157.36 140.76 155.74 143.00 154.00
  C 149.80 149.85 164.33 151.40 178.77 151.57
  Q 179.27 151.58 178.97 151.17
  C 177.89 149.70 176.89 148.69 176.40 146.85
  Q 172.87 133.56 170.58 120.04
  A 0.59 0.58 84.9 0 0 169.99 119.54
  L 162.10 119.57
  A 0.84 0.83 -78.0 0 0 161.34 120.07
  Q 155.84 132.63 150.39 145.16
  Q 148.43 149.67 143.00 154.00
  Z
  M 242.04 146.65
  C 237.29 160.23 221.79 155.76 211.64 156.40
  A 0.32 0.32 0.0 0 0 211.38 156.87
  C 214.73 162.81 215.61 171.56 211.01 177.11
  C 207.87 180.92 202.25 181.48 197.44 182.63
  A 0.82 0.82 0.0 0 0 196.81 183.43
  Q 196.68 225.07 196.78 267.26
  C 196.79 271.11 197.23 278.36 196.84 283.96
  A 0.46 0.46 0.0 0 0 197.30 284.45
  C 201.72 284.40 209.66 286.65 213.11 283.12
  C 216.16 279.99 218.74 273.51 220.17 270.18
  Q 234.86 235.85 263.24 168.50
  Q 264.96 164.43 267.61 156.77
  A 0.38 0.38 0.0 0 0 267.27 156.27
  Q 260.27 155.80 256.34 151.14
  C 252.23 146.28 250.54 134.98 248.80 128.00
  Q 248.68 127.51 248.52 127.99
  Q 245.30 137.36 242.04 146.65
  Z
  M 645.57 145.65
  C 644.58 141.71 645.79 136.53 646.58 132.30
  Q 646.67 131.81 646.34 132.18
  Q 636.39 143.37 623.47 151.08
  Q 623.04 151.34 623.54 151.36
  C 629.82 151.61 638.34 150.31 643.57 155.89
  C 646.78 159.32 647.50 164.80 647.47 169.45
  Q 647.47 169.91 647.67 169.49
  C 650.25 164.27 657.56 159.41 662.56 156.68
  Q 662.99 156.45 662.50 156.44
  C 654.92 156.36 647.50 153.38 645.57 145.65
  Z
  M 548.38 132.56
  Q 538.51 144.81 524.06 151.21
  A 0.30 0.30 0.0 0 0 524.19 151.78
  Q 539.64 151.35 555.02 151.52
  C 562.50 151.60 568.20 154.38 569.77 161.92
  A 0.33 0.32 -46.7 0 0 570.41 161.90
  Q 571.09 157.52 574.48 154.63
  Q 574.79 154.36 574.39 154.25
  C 564.43 151.58 554.10 141.09 549.06 132.61
  A 0.42 0.41 48.9 0 0 548.38 132.56
  Z
  M 492.78 159.59
  L 495.53 155.77
  Q 495.61 155.66 495.48 155.66
  L 488.80 155.69
  Q 488.33 155.69 488.74 155.92
  Q 491.08 157.21 492.35 159.56
  A 0.26 0.26 0.0 0 0 492.78 159.59
  Z
  M 338.94 302.31
  Q 345.81 302.61 349.69 302.40
  A 0.57 0.56 -88.9 0 0 350.23 301.88
  L 350.54 298.33
  A 0.53 0.53 0.0 0 0 350.05 297.76
  C 336.16 296.61 332.81 293.41 328.45 280.77
  Q 311.04 230.28 293.70 179.77
  Q 290.93 171.72 288.54 161.55
  A 0.66 0.66 0.0 0 0 287.81 161.04
  L 280.15 162.05
  A 0.94 0.94 0.0 0 0 279.37 162.68
  Q 276.34 171.22 272.81 179.56
  Q 252.09 228.63 231.17 277.62
  C 228.42 284.08 224.79 292.01 218.39 295.54
  C 215.21 297.29 210.85 297.63 207.08 298.08
  A 0.67 0.66 -6.2 0 0 206.50 298.80
  L 206.79 301.90
  A 0.57 0.57 0.0 0 0 207.32 302.41
  C 211.64 302.68 217.13 302.28 220.19 302.26
  Q 235.84 302.13 252.50 302.58
  A 1.18 1.18 0.0 0 0 253.71 301.47
  L 253.93 298.24
  A 0.49 0.49 0.0 0 0 253.44 297.72
  Q 247.58 297.72 242.04 295.97
  C 235.04 293.76 238.67 285.20 240.41 280.67
  Q 246.03 266.07 251.63 251.87
  A 0.98 0.97 10.5 0 1 252.54 251.25
  L 299.73 251.25
  A 0.70 0.69 -9.3 0 1 300.39 251.72
  Q 306.14 268.36 311.50 285.13
  C 315.38 297.26 307.46 296.90 298.24 298.17
  A 0.57 0.56 -7.3 0 0 297.75 298.79
  L 298.06 302.04
  A 0.57 0.56 -3.3 0 0 298.64 302.55
  Q 328.32 301.85 338.94 302.31
  Z
  M 429.29 297.93
  C 387.28 293.16 375.08 248.99 381.51 213.76
  C 385.99 189.25 403.59 172.96 427.66 169.07
  C 446.67 166.00 466.27 170.79 472.81 191.09
  C 473.75 193.99 474.14 197.63 474.80 200.89
  A 0.62 0.62 0.0 0 0 475.46 201.38
  L 479.79 200.97
  A 0.50 0.50 0.0 0 0 480.25 200.46
  Q 480.08 183.69 481.45 166.97
  A 0.61 0.61 0.0 0 0 481.00 166.33
  C 429.84 152.88 363.23 167.21 360.04 231.02
  C 358.64 259.05 371.81 284.18 396.37 296.70
  C 422.02 309.76 452.79 306.38 479.38 298.61
  A 0.80 0.78 -5.5 0 0 479.95 297.93
  Q 481.77 280.57 486.00 263.64
  A 0.68 0.68 0.0 0 0 485.48 262.81
  L 481.44 261.95
  A 0.79 0.79 0.0 0 0 480.54 262.43
  C 470.78 286.47 457.16 301.09 429.29 297.93
  Z
  M 652.90 299.65
  C 671.07 305.06 690.18 308.47 708.22 301.28
  C 724.69 294.72 735.92 279.62 734.23 261.63
  C 732.06 238.52 709.94 229.86 691.91 221.36
  C 677.20 214.42 667.09 208.82 667.26 192.01
  C 667.44 174.03 683.08 166.28 699.26 169.75
  C 713.90 172.88 721.29 184.22 722.26 198.79
  A 0.54 0.53 85.7 0 0 722.83 199.29
  L 727.42 198.97
  A 0.63 0.63 0.0 0 0 728.01 198.33
  Q 727.84 182.66 729.24 167.06
  A 0.57 0.56 -80.0 0 0 728.82 166.45
  C 706.05 160.53 672.58 156.11 656.67 179.02
  C 649.20 189.77 648.39 204.71 655.48 216.02
  C 660.75 224.45 669.56 230.65 678.46 234.83
  C 688.85 239.70 701.79 244.42 710.04 252.47
  C 721.42 263.59 720.30 283.75 707.14 292.85
  Q 700.21 297.64 690.45 297.73
  C 668.64 297.92 659.06 281.77 652.01 263.39
  A 0.64 0.62 -16.4 0 0 651.28 263.00
  L 646.77 264.06
  A 0.59 0.59 0.0 0 0 646.34 264.78
  Q 650.68 281.62 652.32 298.94
  A 0.82 0.82 0.0 0 0 652.90 299.65
  Z
  M 90.28 233.82
  L 167.05 234.05
  A 0.46 0.46 0.0 0 1 167.50 234.51
  Q 167.49 258.16 167.51 281.81
  C 167.51 294.64 162.88 297.27 151.08 298.16
  A 0.63 0.63 0.0 0 0 150.49 298.85
  L 150.79 302.22
  A 0.66 0.66 0.0 0 0 151.47 302.82
  Q 176.13 301.97 200.79 302.82
  A 0.64 0.64 0.0 0 0 201.45 302.26
  L 201.88 298.56
  A 0.55 0.54 -84.5 0 0 201.38 297.95
  C 193.60 297.45 183.73 297.50 183.72 286.75
  Q 183.69 248.24 183.78 209.73
  C 183.80 200.99 183.38 191.99 183.93 182.51
  C 184.57 171.43 190.80 169.55 200.58 168.91
  A 0.61 0.60 86.6 0 0 201.14 168.27
  L 200.95 165.06
  A 0.46 0.45 -2.0 0 0 200.49 164.64
  L 150.55 164.58
  A 0.45 0.44 -0.0 0 0 150.10 165.02
  L 150.07 168.58
  A 0.58 0.57 -89.5 0 0 150.63 169.16
  C 158.50 169.35 167.44 170.28 167.47 179.50
  Q 167.56 202.45 167.48 225.31
  A 0.44 0.44 0.0 0 1 167.04 225.75
  L 90.80 225.75
  A 1.15 1.15 0.0 0 1 89.65 224.54
  C 90.31 210.07 89.82 196.15 89.89 181.97
  C 89.94 171.80 97.65 169.09 106.27 169.01
  A 0.68 0.67 86.9 0 0 106.94 168.26
  L 106.60 165.13
  A 0.72 0.71 -3.1 0 0 105.89 164.50
  L 56.42 164.50
  A 0.62 0.62 0.0 0 0 55.80 165.09
  L 55.60 168.66
  A 0.47 0.47 0.0 0 0 56.06 169.16
  Q 61.88 169.30 66.73 170.53
  C 73.20 172.15 73.48 177.33 73.51 183.00
  Q 73.78 231.22 73.72 279.44
  C 73.70 293.65 70.29 296.60 56.71 298.07
  A 0.62 0.61 -2.7 0 0 56.16 298.67
  L 56.11 301.58
  A 0.63 0.62 -82.0 0 0 56.56 302.18
  Q 57.95 302.56 60.25 302.49
  Q 83.17 301.79 106.14 302.92
  A 1.04 1.04 0.0 0 0 107.24 301.88
  L 107.25 298.60
  A 0.60 0.59 -88.0 0 0 106.70 298.00
  C 94.52 297.15 89.43 296.24 89.68 282.73
  Q 90.13 258.51 89.82 234.29
  A 0.46 0.46 0.0 0 1 90.28 233.82
  Z
  M 550.94 238.56
  Q 562.73 251.61 590.08 285.17
  Q 597.92 294.79 602.92 302.09
  A 0.95 0.95 0.0 0 0 603.72 302.50
  Q 619.76 302.09 635.81 302.76
  A 0.61 0.61 0.0 0 0 636.45 302.19
  L 636.67 298.37
  A 0.50 0.50 0.0 0 0 636.19 297.84
  C 622.53 297.40 615.46 289.22 605.69 278.30
  Q 582.71 252.65 561.31 225.62
  A 0.70 0.69 42.6 0 1 561.27 224.80
  Q 562.56 222.86 564.21 221.21
  C 577.14 208.23 589.78 194.92 603.18 182.43
  Q 616.16 170.33 633.87 168.89
  A 0.63 0.63 0.0 0 0 634.45 168.21
  L 634.19 165.03
  A 0.48 0.47 -2.6 0 0 633.71 164.60
  L 583.24 164.60
  A 0.51 0.50 -87.5 0 0 582.74 165.07
  L 582.45 168.32
  A 0.55 0.55 0.0 0 0 582.96 168.92
  Q 585.70 169.10 591.11 170.16
  C 600.87 172.08 593.09 180.65 590.24 183.98
  Q 574.17 202.77 556.20 219.71
  C 551.04 224.56 546.85 227.27 540.39 228.73
  A 0.73 0.73 0.0 0 1 539.51 228.02
  Q 539.47 207.59 539.53 187.18
  C 539.57 173.25 544.04 169.55 557.55 168.90
  A 0.51 0.51 0.0 0 0 558.03 168.31
  L 557.50 165.01
  A 0.50 0.48 -4.0 0 0 557.01 164.60
  L 505.41 164.57
  A 0.54 0.54 0.0 0 0 504.87 165.08
  L 504.70 168.16
  A 1.02 1.01 1.9 0 0 505.70 169.22
  C 514.41 169.36 523.38 170.10 523.42 181.28
  Q 523.59 230.71 523.46 280.14
  C 523.42 293.77 519.02 297.85 505.65 298.04
  A 0.56 0.55 -90.0 0 0 505.10 298.60
  L 505.09 302.23
  A 0.62 0.61 -0.9 0 0 505.73 302.84
  Q 531.51 301.95 557.29 302.85
  A 0.66 0.66 0.0 0 0 557.97 302.21
  L 558.08 298.65
  A 0.57 0.56 9.0 0 0 557.66 298.08
  C 554.24 297.09 550.86 297.42 545.82 296.02
  C 540.02 294.42 539.56 289.25 539.52 284.74
  Q 539.39 271.39 539.56 236.14
  A 0.61 0.60 84.9 0 1 540.05 235.54
  Q 547.04 234.26 550.94 238.56
  Z
  M 552.69 203.92
  C 552.69 204.20 552.50 204.58 552.41 204.86
  Q 552.23 205.39 552.63 205.00
  Q 564.59 193.23 575.76 180.71
  A 0.57 0.57 0.0 0 0 575.65 179.85
  Q 571.44 177.11 570.30 172.24
  Q 570.19 171.77 570.07 172.23
  C 567.85 180.39 560.60 181.81 553.28 182.39
  A 0.58 0.58 0.0 0 0 552.74 182.97
  Q 552.80 193.49 552.69 203.92
  Z
  M 498.71 265.58
  Q 495.41 278.59 493.84 291.92
  Q 493.78 292.41 494.01 291.97
  C 497.14 286.06 503.88 284.98 509.77 284.69
  A 0.62 0.62 0.0 0 0 510.36 284.07
  C 510.57 254.03 510.91 223.89 510.28 193.89
  Q 510.16 188.47 510.50 183.05
  A 0.46 0.46 0.0 0 0 510.04 182.56
  C 503.74 182.57 497.91 181.28 494.19 175.98
  Q 493.90 175.57 493.88 176.07
  Q 493.46 188.21 493.36 200.28
  C 493.27 212.01 481.77 215.89 472.09 213.79
  C 459.53 211.06 463.52 199.94 458.94 191.62
  Q 454.31 183.20 443.98 181.87
  C 428.85 179.92 413.63 184.35 403.64 195.97
  C 391.30 210.31 391.43 232.64 395.03 250.14
  C 397.68 263.01 404.77 273.83 416.09 280.37
  Q 423.62 284.73 429.00 284.75
  C 435.22 284.78 442.20 285.43 447.76 283.42
  C 458.06 279.69 462.83 270.25 467.31 260.20
  C 469.98 254.19 471.96 250.68 478.15 249.29
  C 483.83 248.02 493.91 250.77 497.05 255.98
  C 498.50 258.40 499.41 262.81 498.71 265.58
  Z
  M 609.45 194.71
  C 596.28 207.53 587.68 216.09 578.61 225.48
  A 0.58 0.57 47.8 0 0 578.58 226.24
  C 593.61 244.80 608.78 263.30 625.95 280.30
  Q 630.62 284.92 636.91 284.73
  A 0.43 0.43 0.0 0 0 637.32 284.22
  Q 635.98 276.69 634.25 269.27
  Q 633.09 264.32 633.70 261.54
  C 635.38 254.00 640.64 252.32 647.47 250.70
  Q 651.63 249.71 654.48 250.44
  C 659.76 251.80 662.39 254.86 664.69 260.09
  C 669.90 271.92 674.50 284.07 689.56 284.63
  C 697.56 284.93 704.21 281.15 704.66 272.65
  C 705.20 262.44 696.40 257.48 688.51 253.98
  C 676.84 248.81 665.14 243.76 655.52 235.75
  C 638.64 221.72 633.02 200.52 641.25 180.03
  Q 641.43 179.58 640.99 179.78
  Q 636.99 181.65 632.61 182.20
  C 623.29 183.36 616.35 187.99 609.45 194.71
  Z"
/>
<path d="
  M 575.03 78.96
  C 578.77 64.77 586.90 45.82 604.80 45.92
  C 619.80 46.00 624.07 59.58 626.15 71.70
  C 628.25 83.98 622.90 98.20 616.18 108.47
  C 610.08 117.82 601.88 123.24 590.18 120.75
  C 574.13 117.34 571.82 91.21 575.03 78.96
  Z
  M 605.49 58.99
  C 595.47 58.41 589.95 73.52 587.87 81.20
  C 586.49 86.29 585.73 105.50 593.24 107.96
  C 604.61 111.69 612.97 86.85 613.46 79.25
  C 613.75 74.75 612.19 59.38 605.49 58.99
  Z"
/>
<path d="
  M 490.30 49.91
  Q 490.38 49.41 490.52 48.91
  A 0.71 0.70 5.7 0 1 491.16 48.39
  C 500.29 47.76 517.93 45.72 518.15 57.80
  Q 518.36 69.57 506.54 70.59
  Q 497.34 71.37 487.98 70.88
  A 0.50 0.48 -85.6 0 1 487.52 70.33
  Q 488.64 60.17 490.30 49.91
  Z"
/>
<path d="
  M 164.39 83.33
  C 163.63 83.33 163.36 82.88 163.65 82.19
  Q 167.85 72.12 171.94 62.66
  A 0.82 0.81 48.7 0 1 173.47 62.76
  Q 176.23 72.35 177.29 82.30
  A 1.12 1.12 0.0 0 1 175.95 83.52
  C 173.82 83.09 166.13 84.17 164.96 83.49
  A 1.10 1.07 -28.5 0 0 164.39 83.33
  Z"
/>
<path d="
  M 483.65 96.04
  A 0.89 0.89 0.0 0 1 484.47 95.38
  C 493.63 94.95 520.25 91.85 517.99 108.53
  C 516.09 122.56 489.99 119.84 480.26 119.75
  A 0.46 0.46 0.0 0 1 479.81 119.26
  Q 480.62 107.46 483.65 96.04
  Z"
/>
<path d="
  M 278.70 187.00
  L 297.47 242.58
  A 0.70 0.70 0.0 0 1 296.80 243.50
  L 255.96 243.50
  A 0.70 0.70 0.0 0 1 255.31 242.54
  L 277.39 186.96
  A 0.70 0.70 0.0 0 1 278.70 187.00
  Z
  M 276.82 223.78
  L 274.34 229.93
  A 0.33 0.33 0.0 0 0 274.65 230.38
  L 279.20 230.40
  A 0.29 0.29 0.0 0 0 279.48 230.02
  L 277.35 223.80
  Q 277.10 223.07 276.82 223.78
  Z"
/>
</g>
<g fill="#000080">
<path d="
  M 313.82 71.87
  A 0.82 0.82 0.0 0 0 312.25 71.66
  C 302.33 95.66 292.91 120.02 281.15 142.81
  A 0.82 0.81 -76.0 0 1 280.43 143.25
  L 267.49 143.25
  A 1.69 1.68 -8.7 0 1 265.88 142.07
  Q 264.32 137.20 263.38 132.97
  Q 257.26 105.66 252.63 78.66
  A 1.29 1.28 48.2 0 0 250.13 78.52
  Q 240.73 110.94 229.73 142.86
  A 0.58 0.57 9.0 0 1 229.18 143.25
  L 190.26 143.25
  A 2.03 2.02 -6.7 0 1 188.29 141.70
  Q 184.18 124.50 181.59 107.00
  A 0.59 0.58 -3.9 0 0 181.01 106.50
  L 154.30 106.50
  A 0.88 0.88 0.0 0 0 153.56 106.90
  C 148.15 115.37 144.20 126.46 140.34 135.79
  Q 138.82 139.47 136.41 142.69
  A 1.45 1.43 18.3 0 1 135.26 143.26
  L 112.18 143.22
  A 0.82 0.82 0.0 0 1 111.42 142.10
  L 113.62 136.54
  A 0.72 0.72 0.0 0 0 112.58 135.65
  C 91.50 148.09 60.45 147.54 42.06 130.20
  C 34.85 123.40 26.91 111.32 26.08 100.78
  C 24.04 75.20 30.14 53.34 51.56 37.81
  C 76.13 20.01 104.94 13.61 133.96 24.54
  A 0.66 0.66 0.0 0 1 134.38 25.21
  Q 133.47 36.51 130.27 47.37
  A 0.98 0.97 17.1 0 1 129.03 48.02
  C 104.85 40.11 75.27 44.64 59.39 66.14
  Q 54.34 72.98 52.26 78.68
  C 43.49 102.70 61.65 123.62 86.25 120.01
  C 93.81 118.90 93.51 112.28 94.16 106.25
  A 0.45 0.45 0.0 0 0 93.71 105.75
  L 76.02 105.74
  A 0.55 0.54 -87.1 0 1 75.48 105.14
  Q 76.44 94.31 79.24 83.82
  A 0.77 0.76 7.4 0 1 79.98 83.25
  L 123.25 83.25
  A 1.01 1.01 0.0 0 1 124.25 84.41
  Q 121.61 101.70 119.11 118.92
  Q 118.82 120.96 119.25 122.34
  Q 119.41 122.84 119.72 122.42
  Q 121.11 120.50 121.45 119.69
  Q 142.14 71.01 164.27 22.97
  A 0.82 0.80 -77.2 0 1 165.00 22.50
  L 192.77 22.50
  A 0.85 0.84 -11.6 0 1 193.55 23.01
  Q 195.03 26.40 195.68 29.81
  C 198.33 43.62 200.21 58.31 202.59 71.34
  Q 206.78 94.35 210.34 117.51
  A 0.73 0.73 0.0 0 0 211.76 117.62
  Q 226.66 70.15 242.75 23.07
  A 0.85 0.85 0.0 0 1 243.55 22.50
  L 265.38 22.50
  A 0.67 0.67 0.0 0 1 266.01 22.94
  Q 267.58 27.34 268.48 31.75
  Q 273.92 58.78 278.18 86.09
  A 0.44 0.44 0.0 0 0 278.97 86.28
  C 279.14 86.04 279.87 85.34 279.96 85.14
  Q 294.10 54.27 307.19 22.93
  A 0.72 0.71 11.0 0 1 307.85 22.49
  L 334.97 22.52
  A 1.81 1.80 -8.2 0 1 336.70 23.81
  C 337.10 25.14 337.42 26.68 337.45 28.18
  C 338.21 66.18 340.36 104.29 342.13 142.21
  A 0.90 0.90 0.0 0 1 341.24 143.16
  L 318.55 143.28
  A 1.29 1.28 -1.4 0 1 317.25 142.05
  Q 316.09 113.39 314.83 84.25
  Q 314.54 77.50 313.82 71.87
  Z
  M 164.96 83.49
  C 166.13 84.17 173.82 83.09 175.95 83.52
  A 1.12 1.12 0.0 0 0 177.29 82.30
  Q 176.23 72.35 173.47 62.76
  A 0.82 0.81 48.7 0 0 171.94 62.66
  Q 167.85 72.12 163.65 82.19
  C 163.36 82.88 163.63 83.33 164.39 83.33
  A 1.10 1.07 -28.5 0 1 164.96 83.49
  Z"
/>
<path d="
  M 375.22 117.16
  C 375.36 117.21 376.22 117.49 376.39 117.49
  Q 395.87 117.49 415.12 117.52
  Q 417.05 117.52 416.83 119.44
  Q 415.55 130.76 412.76 141.80
  A 1.97 1.96 7.1 0 1 410.84 143.29
  Q 378.99 143.07 347.26 143.26
  C 344.37 143.28 344.29 142.79 344.70 140.14
  Q 353.78 81.83 363.20 24.24
  A 2.05 2.05 0.0 0 1 365.22 22.52
  L 430.10 22.50
  A 1.32 1.32 0.0 0 1 431.41 23.94
  C 430.81 30.36 429.96 42.20 426.51 47.83
  A 0.89 0.88 -74.0 0 1 425.76 48.25
  L 385.04 48.25
  A 0.54 0.54 0.0 0 0 384.51 48.71
  L 381.38 68.79
  A 0.61 0.60 -85.5 0 0 381.97 69.49
  L 416.89 69.53
  Q 418.94 69.53 418.72 71.57
  Q 417.47 82.90 415.06 94.00
  A 1.59 1.58 6.1 0 1 413.51 95.25
  L 378.00 95.25
  A 0.63 0.62 4.3 0 0 377.38 95.78
  L 374.28 115.55
  A 1.47 1.47 0.0 0 0 375.22 117.16
  Z"
/>
<path d="
  M 548.98 79.16
  C 551.15 56.03 565.29 37.76 585.29 26.95
  Q 590.67 24.04 596.34 23.14
  C 613.40 20.43 629.33 25.99 639.30 40.70
  C 661.01 72.72 654.05 113.93 622.46 136.21
  C 605.11 148.45 579.64 149.10 565.03 131.97
  C 551.61 116.24 547.05 99.73 548.98 79.16
  Z
  M 604.80 45.92
  C 586.90 45.82 578.77 64.77 575.03 78.96
  C 571.82 91.21 574.13 117.34 590.18 120.75
  C 601.88 123.24 610.08 117.82 616.18 108.47
  C 622.90 98.20 628.25 83.98 626.15 71.70
  C 624.07 59.58 619.80 46.00 604.80 45.92
  Z"
/>
<path d="
  M 730.19 29.90
  C 716.91 50.30 703.53 70.82 691.61 92.06
  Q 690.42 94.19 690.03 96.68
  C 687.63 111.97 685.58 127.61 681.98 142.66
  A 0.81 0.81 0.0 0 1 681.19 143.28
  L 659.28 143.18
  A 1.14 1.13 -85.6 0 1 658.16 141.87
  Q 662.42 114.68 666.53 88.02
  C 666.94 85.37 666.13 84.51 665.07 82.18
  Q 651.67 52.73 638.46 23.78
  A 0.90 0.90 0.0 0 1 639.28 22.51
  L 664.36 22.49
  A 1.89 1.88 -12.1 0 1 666.08 23.60
  Q 674.06 41.33 680.21 59.77
  A 1.55 1.55 0.0 0 0 682.96 60.15
  Q 683.04 60.03 683.12 59.89
  Q 692.96 43.11 703.50 26.75
  Q 704.83 24.68 706.46 22.86
  A 1.07 1.07 0.0 0 1 707.26 22.50
  L 733.74 22.50
  A 0.50 0.49 14.2 0 1 734.18 23.23
  Q 732.37 26.54 730.19 29.90
  Z"
/>
<path d="
  M 469.88 25.17
  Q 470.06 24.35 470.01 23.81
  A 0.52 0.52 0.0 0 1 470.53 23.24
  Q 494.28 23.26 517.25 23.25
  C 527.43 23.24 538.49 33.48 542.83 42.30
  C 549.87 56.62 542.58 69.47 532.96 80.31
  A 0.83 0.83 0.0 0 0 532.95 81.40
  C 539.28 88.92 544.29 96.30 544.07 106.62
  C 543.71 124.05 529.11 135.54 514.12 141.45
  C 512.31 142.16 509.18 142.47 507.17 142.48
  Q 479.62 142.53 452.00 142.48
  A 1.26 1.26 0.0 0 1 450.75 141.03
  Q 458.52 90.82 466.91 40.74
  Q 468.22 32.92 469.88 25.17
  Z
  M 490.30 49.91
  Q 488.64 60.17 487.52 70.33
  A 0.50 0.48 -85.6 0 0 487.98 70.88
  Q 497.34 71.37 506.54 70.59
  Q 518.36 69.57 518.15 57.80
  C 517.93 45.72 500.29 47.76 491.16 48.39
  A 0.71 0.70 5.7 0 0 490.52 48.91
  Q 490.38 49.41 490.30 49.91
  Z
  M 483.65 96.04
  Q 480.62 107.46 479.81 119.26
  A 0.46 0.46 0.0 0 0 480.26 119.75
  C 489.99 119.84 516.09 122.56 517.99 108.53
  C 520.25 91.85 493.63 94.95 484.47 95.38
  A 0.89 0.89 0.0 0 0 483.65 96.04
  Z"
/>
</g>
<g fill="#ff0000">
<path d="
  M 338.94 302.31
  Q 328.32 301.85 298.64 302.55
  A 0.57 0.56 -3.3 0 1 298.06 302.04
  L 297.75 298.79
  A 0.57 0.56 -7.3 0 1 298.24 298.17
  C 307.46 296.90 315.38 297.26 311.50 285.13
  Q 306.14 268.36 300.39 251.72
  A 0.70 0.69 -9.3 0 0 299.73 251.25
  L 252.54 251.25
  A 0.98 0.97 10.5 0 0 251.63 251.87
  Q 246.03 266.07 240.41 280.67
  C 238.67 285.20 235.04 293.76 242.04 295.97
  Q 247.58 297.72 253.44 297.72
  A 0.49 0.49 0.0 0 1 253.93 298.24
  L 253.71 301.47
  A 1.18 1.18 0.0 0 1 252.50 302.58
  Q 235.84 302.13 220.19 302.26
  C 217.13 302.28 211.64 302.68 207.32 302.41
  A 0.57 0.57 0.0 0 1 206.79 301.90
  L 206.50 298.80
  A 0.67 0.66 -6.2 0 1 207.08 298.08
  C 210.85 297.63 215.21 297.29 218.39 295.54
  C 224.79 292.01 228.42 284.08 231.17 277.62
  Q 252.09 228.63 272.81 179.56
  Q 276.34 171.22 279.37 162.68
  A 0.94 0.94 0.0 0 1 280.15 162.05
  L 287.81 161.04
  A 0.66 0.66 0.0 0 1 288.54 161.55
  Q 290.93 171.72 293.70 179.77
  Q 311.04 230.28 328.45 280.77
  C 332.81 293.41 336.16 296.61 350.05 297.76
  A 0.53 0.53 0.0 0 1 350.54 298.33
  L 350.23 301.88
  A 0.57 0.56 -88.9 0 1 349.69 302.40
  Q 345.81 302.61 338.94 302.31
  Z
  M 278.70 187.00
  A 0.70 0.70 0.0 0 0 277.39 186.96
  L 255.31 242.54
  A 0.70 0.70 0.0 0 0 255.96 243.50
  L 296.80 243.50
  A 0.70 0.70 0.0 0 0 297.47 242.58
  L 278.70 187.00
  Z"
/>
<path d="
  M 381.51 213.76
  C 375.08 248.99 387.28 293.16 429.29 297.93
  C 457.16 301.09 470.78 286.47 480.54 262.43
  A 0.79 0.79 0.0 0 1 481.44 261.95
  L 485.48 262.81
  A 0.68 0.68 0.0 0 1 486.00 263.64
  Q 481.77 280.57 479.95 297.93
  A 0.80 0.78 -5.5 0 1 479.38 298.61
  C 452.79 306.38 422.02 309.76 396.37 296.70
  C 371.81 284.18 358.64 259.05 360.04 231.02
  C 363.23 167.21 429.84 152.88 481.00 166.33
  A 0.61 0.61 0.0 0 1 481.45 166.97
  Q 480.08 183.69 480.25 200.46
  A 0.50 0.50 0.0 0 1 479.79 200.97
  L 475.46 201.38
  A 0.62 0.62 0.0 0 1 474.80 200.89
  C 474.14 197.63 473.75 193.99 472.81 191.09
  C 466.27 170.79 446.67 166.00 427.66 169.07
  C 403.59 172.96 385.99 189.25 381.51 213.76
  Z"
/>
<path d="
  M 652.90 299.65
  A 0.82 0.82 0.0 0 1 652.32 298.94
  Q 650.68 281.62 646.34 264.78
  A 0.59 0.59 0.0 0 1 646.77 264.06
  L 651.28 263.00
  A 0.64 0.62 -16.4 0 1 652.01 263.39
  C 659.06 281.77 668.64 297.92 690.45 297.73
  Q 700.21 297.64 707.14 292.85
  C 720.30 283.75 721.42 263.59 710.04 252.47
  C 701.79 244.42 688.85 239.70 678.46 234.83
  C 669.56 230.65 660.75 224.45 655.48 216.02
  C 648.39 204.71 649.20 189.77 656.67 179.02
  C 672.58 156.11 706.05 160.53 728.82 166.45
  A 0.57 0.56 -80.0 0 1 729.24 167.06
  Q 727.84 182.66 728.01 198.33
  A 0.63 0.63 0.0 0 1 727.42 198.97
  L 722.83 199.29
  A 0.54 0.53 85.7 0 1 722.26 198.79
  C 721.29 184.22 713.90 172.88 699.26 169.75
  C 683.08 166.28 667.44 174.03 667.26 192.01
  C 667.09 208.82 677.20 214.42 691.91 221.36
  C 709.94 229.86 732.06 238.52 734.23 261.63
  C 735.92 279.62 724.69 294.72 708.22 301.28
  C 690.18 308.47 671.07 305.06 652.90 299.65
  Z"
/>
<path d="
  M 89.82 234.29
  Q 90.13 258.51 89.68 282.73
  C 89.43 296.24 94.52 297.15 106.70 298.00
  A 0.60 0.59 -88.0 0 1 107.25 298.60
  L 107.24 301.88
  A 1.04 1.04 0.0 0 1 106.14 302.92
  Q 83.17 301.79 60.25 302.49
  Q 57.95 302.56 56.56 302.18
  A 0.63 0.62 -82.0 0 1 56.11 301.58
  L 56.16 298.67
  A 0.62 0.61 -2.7 0 1 56.71 298.07
  C 70.29 296.60 73.70 293.65 73.72 279.44
  Q 73.78 231.22 73.51 183.00
  C 73.48 177.33 73.20 172.15 66.73 170.53
  Q 61.88 169.30 56.06 169.16
  A 0.47 0.47 0.0 0 1 55.60 168.66
  L 55.80 165.09
  A 0.62 0.62 0.0 0 1 56.42 164.50
  L 105.89 164.50
  A 0.72 0.71 -3.1 0 1 106.60 165.13
  L 106.94 168.26
  A 0.68 0.67 86.9 0 1 106.27 169.01
  C 97.65 169.09 89.94 171.80 89.89 181.97
  C 89.82 196.15 90.31 210.07 89.65 224.54
  A 1.15 1.15 0.0 0 0 90.80 225.75
  L 167.04 225.75
  A 0.44 0.44 0.0 0 0 167.48 225.31
  Q 167.56 202.45 167.47 179.50
  C 167.44 170.28 158.50 169.35 150.63 169.16
  A 0.58 0.57 -89.5 0 1 150.07 168.58
  L 150.10 165.02
  A 0.45 0.44 -0.0 0 1 150.55 164.58
  L 200.49 164.64
  A 0.46 0.45 -2.0 0 1 200.95 165.06
  L 201.14 168.27
  A 0.61 0.60 86.6 0 1 200.58 168.91
  C 190.80 169.55 184.57 171.43 183.93 182.51
  C 183.38 191.99 183.80 200.99 183.78 209.73
  Q 183.69 248.24 183.72 286.75
  C 183.73 297.50 193.60 297.45 201.38 297.95
  A 0.55 0.54 -84.5 0 1 201.88 298.56
  L 201.45 302.26
  A 0.64 0.64 0.0 0 1 200.79 302.82
  Q 176.13 301.97 151.47 302.82
  A 0.66 0.66 0.0 0 1 150.79 302.22
  L 150.49 298.85
  A 0.63 0.63 0.0 0 1 151.08 298.16
  C 162.88 297.27 167.51 294.64 167.51 281.81
  Q 167.49 258.16 167.50 234.51
  A 0.46 0.46 0.0 0 0 167.05 234.05
  L 90.28 233.82
  A 0.46 0.46 0.0 0 0 89.82 234.29
  Z"
/>
<path d="
  M 550.94 238.56
  Q 547.04 234.26 540.05 235.54
  A 0.61 0.60 84.9 0 0 539.56 236.14
  Q 539.39 271.39 539.52 284.74
  C 539.56 289.25 540.02 294.42 545.82 296.02
  C 550.86 297.42 554.24 297.09 557.66 298.08
  A 0.57 0.56 9.0 0 1 558.08 298.65
  L 557.97 302.21
  A 0.66 0.66 0.0 0 1 557.29 302.85
  Q 531.51 301.95 505.73 302.84
  A 0.62 0.61 -0.9 0 1 505.09 302.23
  L 505.10 298.60
  A 0.56 0.55 -90.0 0 1 505.65 298.04
  C 519.02 297.85 523.42 293.77 523.46 280.14
  Q 523.59 230.71 523.42 181.28
  C 523.38 170.10 514.41 169.36 505.70 169.22
  A 1.02 1.01 1.9 0 1 504.70 168.16
  L 504.87 165.08
  A 0.54 0.54 0.0 0 1 505.41 164.57
  L 557.01 164.60
  A 0.50 0.48 -4.0 0 1 557.50 165.01
  L 558.03 168.31
  A 0.51 0.51 0.0 0 1 557.55 168.90
  C 544.04 169.55 539.57 173.25 539.53 187.18
  Q 539.47 207.59 539.51 228.02
  A 0.73 0.73 0.0 0 0 540.39 228.73
  C 546.85 227.27 551.04 224.56 556.20 219.71
  Q 574.17 202.77 590.24 183.98
  C 593.09 180.65 600.87 172.08 591.11 170.16
  Q 585.70 169.10 582.96 168.92
  A 0.55 0.55 0.0 0 1 582.45 168.32
  L 582.74 165.07
  A 0.51 0.50 -87.5 0 1 583.24 164.60
  L 633.71 164.60
  A 0.48 0.47 -2.6 0 1 634.19 165.03
  L 634.45 168.21
  A 0.63 0.63 0.0 0 1 633.87 168.89
  Q 616.16 170.33 603.18 182.43
  C 589.78 194.92 577.14 208.23 564.21 221.21
  Q 562.56 222.86 561.27 224.80
  A 0.70 0.69 42.6 0 0 561.31 225.62
  Q 582.71 252.65 605.69 278.30
  C 615.46 289.22 622.53 297.40 636.19 297.84
  A 0.50 0.50 0.0 0 1 636.67 298.37
  L 636.45 302.19
  A 0.61 0.61 0.0 0 1 635.81 302.76
  Q 619.76 302.09 603.72 302.50
  A 0.95 0.95 0.0 0 1 602.92 302.09
  Q 597.92 294.79 590.08 285.17
  Q 562.73 251.61 550.94 238.56
  Z"
/>
</g>
</svg>
