<?xml version="1.0" encoding="UTF-8" standalone="no"?>
<svg
   width="567"
   height="160"
   xml:space="preserve"
   version="1.1"
   id="svg30"
   sodipodi:docname="gc-w.svg"
   inkscape:version="1.3.2 (091e20e, 2023-11-25, custom)"
   xmlns:inkscape="http://www.inkscape.org/namespaces/inkscape"
   xmlns:sodipodi="http://sodipodi.sourceforge.net/DTD/sodipodi-0.dtd"
   xmlns="http://www.w3.org/2000/svg"
   xmlns:svg="http://www.w3.org/2000/svg"><defs
   id="defs30"><pattern
     id="EMFhbasepattern"
     patternUnits="userSpaceOnUse"
     width="6"
     height="6"
     x="0"
     y="0" /></defs><sodipodi:namedview
   id="namedview30"
   pagecolor="#ffffff"
   bordercolor="#000000"
   borderopacity="0.25"
   inkscape:showpageshadow="2"
   inkscape:pageopacity="0.0"
   inkscape:pagecheckerboard="true"
   inkscape:deskcolor="#d1d1d1"
   inkscape:zoom="2"
   inkscape:cx="309.25"
   inkscape:cy="3.25"
   inkscape:window-width="2560"
   inkscape:window-height="1351"
   inkscape:window-x="-9"
   inkscape:window-y="-9"
   inkscape:window-maximized="1"
   inkscape:current-layer="svg30" />
    
    <linearGradient
   id="a"
   gradientUnits="userSpaceOnUse"
   x1="24.415001"
   y1="564.87201"
   x2="104.743"
   y2="551.50897"
   gradientTransform="translate(11.337,-473.426)">
        <stop
   offset=".037"
   style="stop-color:#fff"
   id="stop1" />
        <stop
   offset=".896"
   style="stop-color:#898cbf"
   id="stop2" />
    </linearGradient>
    
    
    <linearGradient
   id="b"
   gradientUnits="userSpaceOnUse"
   x1="28.461"
   y1="68.836998"
   x2="54.049"
   y2="68.836998"
   gradientTransform="matrix(1,0,0,-1,11.297,123.99)">
        <stop
   offset="0"
   style="stop-color:#6e70a9"
   id="stop3" />
        <stop
   offset=".969"
   style="stop-color:#514a8e"
   id="stop4" />
    </linearGradient>
    
    <linearGradient
   id="c"
   gradientUnits="userSpaceOnUse"
   x1="53.856998"
   y1="61.681"
   x2="54.185001"
   y2="61.681"
   gradientTransform="matrix(1,0,0,-1,11.297,123.99)">
        <stop
   offset="0"
   style="stop-color:#6e70a9"
   id="stop5" />
        <stop
   offset=".969"
   style="stop-color:#514a8e"
   id="stop6" />
    </linearGradient>
    
    
    
    <linearGradient
   id="d"
   gradientUnits="userSpaceOnUse"
   x1="64.084999"
   y1="540.32599"
   x2="108.726"
   y2="569.63098"
   gradientTransform="translate(11.337,-473.426)">
        <stop
   offset="0"
   style="stop-color:#4c5284"
   id="stop8" />
        <stop
   offset="1"
   style="stop-color:#8789bc"
   id="stop9" />
    </linearGradient>
    
    <linearGradient
   id="e"
   gradientUnits="userSpaceOnUse"
   x1="53.464001"
   y1="596.99902"
   x2="53.153"
   y2="577.09601"
   gradientTransform="translate(11.337,-473.426)">
        <stop
   offset=".11"
   style="stop-color:#4c407e"
   id="stop10" />
        <stop
   offset=".89"
   style="stop-color:#669"
   id="stop11" />
        <stop
   offset="1"
   style="stop-color:#a7b3d9"
   id="stop12" />
        <stop
   offset="1"
   style="stop-color:#9ba5cd"
   id="stop13" />
    </linearGradient>
    
    
    
    <linearGradient
   id="f"
   gradientUnits="userSpaceOnUse"
   x1="4.8239999"
   y1="553.133"
   x2="66.026001"
   y2="536.12299"
   gradientTransform="translate(11.337,-473.426)">
        <stop
   offset=".233"
   style="stop-color:#669"
   id="stop15" />
        <stop
   offset=".724"
   style="stop-color:#a7b3d9"
   id="stop16" />
    </linearGradient>
    
    <linearGradient
   id="g"
   gradientUnits="userSpaceOnUse"
   x1="5.882"
   y1="556.93103"
   x2="67.080002"
   y2="539.92401"
   gradientTransform="translate(11.337,-473.426)">
        <stop
   offset=".233"
   style="stop-color:#669"
   id="stop17" />
        <stop
   offset=".991"
   style="stop-color:#a7b3d9"
   id="stop18" />
    </linearGradient>
    
    
    <linearGradient
   id="h"
   gradientUnits="userSpaceOnUse"
   x1="19.586"
   y1="559.81403"
   x2="43.921001"
   y2="572.836"
   gradientTransform="translate(11.337,-473.426)">
        <stop
   offset="0"
   style="stop-color:#6e70a9"
   id="stop20" />
        <stop
   offset=".969"
   style="stop-color:#514a8e"
   id="stop21" />
    </linearGradient>
    
    <linearGradient
   id="i"
   gradientUnits="userSpaceOnUse"
   x1="55.735001"
   y1="495.65399"
   x2="71.184998"
   y2="503.17099"
   gradientTransform="translate(11.337,-473.426)">
        <stop
   offset=".037"
   style="stop-color:#9ea5d3"
   id="stop22" />
        <stop
   offset=".902"
   style="stop-color:#7675ae"
   id="stop23" />
    </linearGradient>
    
    
    <linearGradient
   id="j"
   gradientUnits="userSpaceOnUse"
   x1="0.219"
   y1="504.418"
   x2="0.219"
   y2="504.418"
   gradientTransform="translate(-0.005,-473.426)">
        <stop
   offset=".233"
   style="stop-color:#669"
   id="stop24" />
        <stop
   offset=".991"
   style="stop-color:#a7b3d9"
   id="stop25" />
    </linearGradient>
    <linearGradient
   id="k"
   gradientUnits="userSpaceOnUse"
   x1="49.386002"
   y1="477.94699"
   x2="45.741001"
   y2="518.44202"
   gradientTransform="translate(11.337,-473.426)">
        <stop
   offset="0"
   style="stop-color:#aaacd2"
   id="stop26" />
        <stop
   offset=".626"
   style="stop-color:#fcfafb"
   id="stop27" />
    </linearGradient>
    
    <linearGradient
   id="l"
   gradientUnits="userSpaceOnUse"
   x1="71.779999"
   y1="473.26501"
   x2="68.135002"
   y2="513.76099"
   gradientTransform="translate(11.337,-473.426)">
        <stop
   offset=".674"
   style="stop-color:#aaacd2"
   id="stop28" />
        <stop
   offset="1"
   style="stop-color:#fcfafb"
   id="stop29" />
    </linearGradient>
    
    <g
   id="g1"
   transform="translate(11.342)"
   inkscape:label="Logo"><path
     fill="none"
     d="M 40.59,99.123 39.462,98.282"
     id="path1"
     transform="translate(-11.342)" /><path
     fill="url(#a)"
     d="M 65.041,105.427 102.407,83.824 V 61.505 l -1.614,0.933 v 20.17 L 65.041,103.224 29.564,82.608 27.97,83.691 Z"
     id="path2"
     style="fill:url(#a)"
     transform="translate(-11.342)" /><path
     fill="#7a7eae"
     d="M 100.793,82.608 V 82.52 l 1.614,1.165 v 0.139 l -0.102,0.076 -1.655,-1.21 z"
     id="path3"
     transform="translate(-11.342)" /><path
     fill="url(#b)"
     d="m 40.156,47.455 -0.398,0.398 25.283,14.998 0.305,-0.646 z"
     id="path4"
     style="fill:url(#b)"
     transform="translate(-11.342)" /><path
     fill="url(#c)"
     d="m 65.449,62.205 0.033,0.208 h -0.327 l 0.109,-0.208 z"
     id="path6"
     style="fill:url(#c)"
     transform="translate(-11.342)"
     inkscape:label="path5" /><path
     fill="#120f22"
     d="m 65.346,62.205 53.623,-30.999 0.158,0.441 -53.781,31.204 z"
     id="path7"
     transform="translate(-11.342)"
     inkscape:label="path6" /><path
     fill="#453d76"
     d="m 102.407,83.824 -37.366,21.603 -0.134,18.803 h 0.439 l 0.359,-18.501 37.219,-21.449 0.138,-22.968 h -0.655 z"
     id="path8"
     transform="translate(-11.342)"
     inkscape:label="path7" /><path
     fill="url(#d)"
     d="m 65.346,105.573 37.357,-21.511 v -22.73 l -12.511,7.234 v 8.029 L 65.346,91.212 V 62.851 l 53.781,-31.204 v 61.55 L 65.346,124.23 Z"
     id="path9"
     style="fill:url(#d)"
     transform="translate(-11.342)"
     inkscape:label="path8" /><path
     fill="url(#e)"
     d="m 64.744,124.23 h 0.297 v -18.803 l -1.057,-0.621 0.76,19.424"
     id="path13"
     style="fill:url(#e)"
     transform="translate(-11.342)"
     inkscape:label="path9" /><path
     fill="#2d2868"
     d="m 27.884,40.703 0.229,0.194 0.091,42.635 -0.234,0.159 -0.142,-0.09 0.056,-42.898"
     id="path14"
     transform="translate(-11.342)"
     inkscape:label="path10" /><path
     fill="#453d76"
     d="M 29.602,41.987 29.564,82.608 27.97,83.691 V 40.755 L 65.346,19.174 V 21.3 Z m 35.744,20.107 v 29.118 l -0.305,0.205 V 62.028 Z"
     id="path15"
     transform="translate(-11.342)"
     inkscape:label="path11" /><path
     fill="url(#f)"
     d="M 39.758,76.802 65.041,91.417 V 62.851 L 39.758,47.853 Z"
     id="path16"
     style="fill:url(#f)"
     transform="translate(-11.342)"
     inkscape:label="path12" /><path
     fill="url(#g)"
     d="M 11.342,93.302 64.744,124.23 V 105.251 L 27.97,83.691 V 40.964 L 11.342,31.206 Z"
     id="path18"
     style="fill:url(#g)"
     transform="translate(-11.342)"
     inkscape:label="path13" /><path
     d="m 16.343,40.755 h 0.285 v 42.938 h -0.285 z"
     id="path19"
     inkscape:label="path14" /><path
     d="M 0.214,30.992 0,31.206 l 16.486,9.691 0.142,-0.142 z"
     id="path20"
     inkscape:label="path15" /><path
     fill="url(#h)"
     d="m 64.744,105.251 v 0.352 L 27.685,84.015 v -0.324 h 0.285 z"
     id="path21"
     style="fill:url(#h)"
     transform="translate(-11.342)"
     inkscape:label="path16" /><path
     fill="url(#i)"
     d="m 89.243,33.142 v 2.089 L 65.346,21.3 v -2.126 z"
     id="path23"
     style="fill:url(#i)"
     transform="translate(-11.342)"
     inkscape:label="path17" /><path
     fill="#484592"
     d="m 89.243,35.231 16.553,-9.707 v -1.972 l -16.553,9.59 z"
     id="path24"
     transform="translate(-11.342)"
     inkscape:label="path18" /><path
     fill="url(#k)"
     d="M 11.556,30.992 65.175,0 105.796,23.552 89.243,33.142 65.346,19.174 27.97,40.755 Z"
     id="path27"
     style="fill:url(#k)"
     transform="translate(-11.342)"
     inkscape:label="path19" /><path
     fill="url(#l)"
     d="m 65.346,62.205 -25.19,-14.75 24.866,-14.046 23.689,13.372 28.863,-16.589 1.395,1.014 z"
     id="path29"
     style="fill:url(#l)"
     transform="translate(-11.342)"
     inkscape:label="path20" /></g><path
   d="m 384.862,21.158 v -4.949 h -14.143 c -1.816,0 -3.533,0.404 -5.054,1.11 -1.513,0.71 -2.726,1.718 -3.634,2.932 -0.908,1.209 -1.314,2.529 -1.416,4.04 v 15.252 c 0.1,1.417 0.508,2.729 1.313,3.944 0.912,1.21 2.121,2.116 3.537,2.924 1.516,0.71 3.127,1.115 5.053,1.115 h 14.34 v -4.949 h -13.739 a 5.319,5.319 0 0 1 -3.022,-0.911 c -0.815,-0.604 -1.318,-1.312 -1.318,-2.319 V 33.69 h 18.082 v -5.053 h -18.082 v -4.142 c 0,-1.013 0.503,-1.817 1.318,-2.427 a 5.31,5.31 0 0 1 3.022,-0.91 h 13.739 m 84.436,-4.948 v 31.317 h 15.102 c 1.916,-0.098 3.625,-0.405 5.139,-1.107 1.609,-0.804 2.818,-1.712 3.723,-2.921 0.908,-1.203 1.307,-2.615 1.408,-4.127 V 24.266 c -0.102,-1.507 -0.5,-2.821 -1.408,-4.028 -0.904,-1.208 -2.111,-2.213 -3.723,-2.921 -1.514,-0.705 -3.225,-1.107 -5.139,-1.107 z m 17.826,5.842 c 0.898,0.604 1.303,1.407 1.404,2.418 v 14.803 c -0.104,1.006 -0.506,1.812 -1.404,2.416 -0.809,0.703 -1.82,1.005 -2.928,1.005 h -8.758 V 21.046 h 8.758 c 1.108,0 2.119,0.301 2.928,1.006 m 56.18,-4.75 c -1.488,-0.692 -3.172,-0.993 -5.053,-1.093 h -5.453 c -1.885,0.099 -3.566,0.4 -5.057,1.093 -1.584,0.794 -2.775,1.68 -3.666,2.874 -0.895,1.186 -1.389,2.576 -1.389,4.063 v 15.359 c 0,1.486 0.494,2.777 1.389,3.967 0.891,1.19 2.082,2.179 3.666,2.874 1.49,0.693 3.172,1.089 5.057,1.089 h 5.453 c 1.881,0 3.563,-0.396 5.053,-1.089 1.584,-0.694 2.773,-1.684 3.666,-2.874 0.893,-1.191 1.387,-2.577 1.387,-3.967 v -15.36 c -0.096,-1.487 -0.494,-2.877 -1.387,-4.063 -0.893,-1.194 -2.082,-2.08 -3.666,-2.873 z m -2.379,4.656 c 0.891,0.694 1.387,1.484 1.387,2.382 v 15.059 c 0,0.892 -0.496,1.686 -1.387,2.379 -0.793,0.597 -1.787,0.994 -2.873,0.994 h -5.055 c -1.094,0 -2.084,-0.396 -2.977,-0.994 -0.789,-0.694 -1.285,-1.487 -1.285,-2.379 V 24.34 c 0,-0.897 0.496,-1.688 1.285,-2.382 0.893,-0.596 1.883,-0.893 2.977,-0.992 h 5.055 c 1.087,0.101 2.08,0.397 2.873,0.992 M 180.643,16.21 H 174.48 V 36.213 L 163.976,16.21 h -8.385 v 31.317 h 6.163 V 23.083 l 12.828,24.444 h 6.061 V 16.21 m 100.41,0 H 274.89 V 36.213 L 264.385,16.21 H 256 v 31.317 h 6.163 V 23.083 l 12.828,24.444 h 6.062 V 16.21 m 158.588,0 h -6.162 V 36.213 L 422.975,16.21 h -8.387 v 31.317 h 6.163 V 23.083 l 12.828,24.444 h 6.062 V 16.21 M 221.868,47.527 V 16.21 h -7.07 v 31.317 h 7.07 M 308.264,16.21 v 4.949 h 10.401 v 26.369 h 6.671 v -26.37 h 10.504 v -4.949 h -27.578 m 247,52.821 v -8.463 h -42.717 v 40.229 h 43.113 v -9.062 h -31.855 v -7.57 h 18.316 V 75.707 H 523.803 V 69.03 h 31.459 m -47.546,-0.275 c 0.096,-2.785 -0.697,-4.977 -2.393,-6.274 -1.596,-1.394 -4.08,-2.09 -7.467,-2.09 h -35.148 v 40.325 h 32.658 c 8.563,-0.099 12.744,-2.887 12.744,-8.562 v -4.883 c 0,-3.382 -1.492,-5.87 -4.582,-7.262 2.789,-1.298 4.188,-3.487 4.188,-6.576 z m -10.854,0.2 c 0.398,0.399 0.602,0.8 0.496,1.396 v 3.685 c 0.104,0.495 -0.098,0.995 -0.496,1.293 l -2.795,0.495 H 473.96 v -7.266 h 20.107 c 1.502,0 2.496,0.199 2.795,0.397 z m -22.902,22.9 v -7.867 h 20.211 c 1.496,0 2.393,0.201 2.889,0.5 0.402,0.401 0.596,0.998 0.596,1.993 v 2.886 c 0,0.897 -0.191,1.594 -0.596,1.891 -0.496,0.4 -1.393,0.597 -2.889,0.597 H 473.96 M 457.956,60.458 h -11.25 V 91.625 H 422.31 V 60.458 h -11.248 v 30.271 c -0.106,2.486 0.295,4.484 0.99,5.975 0.6,1.395 1.797,2.49 3.389,3.089 1.597,0.695 3.684,0.993 6.47,0.896 h 25.093 c 2.789,0.097 4.977,-0.201 6.57,-0.896 1.59,-0.599 2.689,-1.694 3.389,-3.089 0.695,-1.491 0.996,-3.487 0.996,-5.975 V 60.458 m -52.527,4.149 c -0.705,-1.489 -1.896,-2.488 -3.388,-3.186 -1.596,-0.602 -3.784,-0.898 -6.473,-0.898 H 370.98 c -2.789,0 -4.881,0.298 -6.478,0.898 -1.591,0.697 -2.786,1.696 -3.382,3.186 -0.697,1.494 -1.096,3.484 -0.993,5.974 v 20.214 c -0.103,2.484 0.296,4.48 0.993,5.971 0.596,1.396 1.791,2.491 3.382,3.093 1.597,0.693 3.688,0.991 6.478,0.893 h 24.592 c 2.688,0.098 4.877,-0.199 6.473,-0.893 a 6.48,6.48 0 0 0 3.387,-3.093 c 0.597,-1.489 0.996,-3.485 0.996,-5.971 v -7.371 l -11.256,0.105 v 8.162 H 371.279 V 69.39 h 23.893 v 7.165 h 11.256 v -5.974 c 0,-2.585 -0.399,-4.574 -0.996,-5.974 m -53.629,4.423 v -8.463 h -42.718 v 40.229 h 43.116 V 91.734 H 320.34 v -7.57 h 18.321 V 75.707 H 320.34 V 69.03 h 31.463 m -58.05,-8.572 -17.127,28.48 -17.025,-28.48 H 249.347 V 93.617 L 229.331,60.458 h -10.056 l -23.994,40.228 h 30.068 v -9.061 h -13.442 l 12.447,-20.013 16.828,29.072 h 18.519 V 79.179 l 12.842,21.505 h 8.266 l 12.942,-21.505 v 21.505 h 10.354 V 60.457 h -10.354 m -97.579,8.85 v -8.77 h -37.938 c -2.685,0 -4.879,0.3 -6.474,0.899 -1.59,0.696 -2.686,1.698 -3.381,3.187 -0.7,1.493 -0.998,3.483 -0.998,5.975 v 20.21 c 0,2.486 0.298,4.483 0.998,5.975 0.696,1.395 1.792,2.49 3.381,3.091 1.594,0.692 3.789,0.991 6.474,0.895 h 27.584 c 3.978,0.097 6.768,-0.599 8.458,-2.091 1.595,-1.595 2.391,-4.183 2.294,-7.868 V 76.57 h -26.088 v 8.47 h 15.135 v 6.667 h -26.985 v -22.4 h 37.54"
   id="path30"
   inkscape:label="NintendoGameCube"
   style="fill:#ffffff" />
</svg>
