<?xml version="1.0" encoding="UTF-8" standalone="no"?>
<!-- Created with Inkscape (http://www.inkscape.org/) -->

<svg
   width="166.42722mm"
   height="55.325317mm"
   viewBox="0 0 166.42722 55.325317"
   version="1.1"
   id="svg1"
   inkscape:version="1.4 (86a8ad7, 2024-10-11)"
   sodipodi:docname="genh.svg"
   xmlns:inkscape="http://www.inkscape.org/namespaces/inkscape"
   xmlns:sodipodi="http://sodipodi.sourceforge.net/DTD/sodipodi-0.dtd"
   xmlns:xlink="http://www.w3.org/1999/xlink"
   xmlns="http://www.w3.org/2000/svg"
   xmlns:svg="http://www.w3.org/2000/svg">
  <sodipodi:namedview
     id="namedview1"
     pagecolor="#ffffff"
     bordercolor="#000000"
     borderopacity="0.25"
     inkscape:showpageshadow="2"
     inkscape:pageopacity="0.0"
     inkscape:pagecheckerboard="true"
     inkscape:deskcolor="#d1d1d1"
     inkscape:document-units="mm"
     inkscape:zoom="3.349675"
     inkscape:cx="314.50812"
     inkscape:cy="104.48775"
     inkscape:window-width="3818"
     inkscape:window-height="1003"
     inkscape:window-x="0"
     inkscape:window-y="1041"
     inkscape:window-maximized="0"
     inkscape:current-layer="svg1" />
  <defs
     id="defs1">
    <linearGradient
       id="linearGradient73"
       gradientUnits="userSpaceOnUse"
       x1="221.69"
       y1="1450.804"
       x2="269.72101"
       y2="1498.835"
       gradientTransform="matrix(1.1056147,0,0,1.1056147,23.28854,-1533.3745)">
      <stop
         offset="0.02"
         style="stop-color:#000"
         id="stop73" />
      <stop
         offset="0.16"
         style="stop-color:#181c4e"
         id="stop71" />
      <stop
         offset="0.28"
         style="stop-color:#000"
         id="stop69" />
      <stop
         offset="0.41"
         style="stop-color:#181c4e"
         id="stop67" />
      <stop
         offset="0.53"
         style="stop-color:#000"
         id="stop65" />
      <stop
         offset="0.66"
         style="stop-color:#181c4e"
         id="stop63" />
      <stop
         offset="0.78"
         style="stop-color:#181818"
         id="stop61" />
      <stop
         offset="0.89"
         style="stop-color:#181c4e"
         id="stop59" />
      <stop
         offset="1"
         style="stop-color:#000"
         id="stop57" />
    </linearGradient>
    <linearGradient
       id="a"
       gradientUnits="userSpaceOnUse"
       x1="308.14401"
       y1="1410.964"
       x2="308.14401"
       y2="1515.981"
       gradientTransform="matrix(1.1056147,0,0,1.1056147,23.28854,-1533.3745)">
      <stop
         offset="0"
         style="stop-color:#d9dde9"
         id="stop6" />
      <stop
         offset=".39"
         style="stop-color:#777489"
         id="stop8" />
      <stop
         offset=".98"
         style="stop-color:#d9dde9"
         id="stop10" />
    </linearGradient>
    <linearGradient
       id="b"
       gradientUnits="userSpaceOnUse"
       x1="220.795"
       y1="1450.026"
       x2="270.30701"
       y2="1499.537"
       gradientTransform="matrix(1.1056147,0,0,1.1056147,23.28854,-1533.3745)">
      <stop
         offset="0"
         style="stop-color:#d9dde9"
         id="stop17" />
      <stop
         offset=".39"
         style="stop-color:#777489"
         id="stop19" />
      <stop
         offset=".98"
         style="stop-color:#d9dde9"
         id="stop21" />
    </linearGradient>
    <linearGradient
       id="c"
       gradientUnits="userSpaceOnUse"
       x1="221.69"
       y1="1450.804"
       x2="269.72101"
       y2="1498.835"
       gradientTransform="matrix(1.1056147,0,0,1.1056147,23.28854,-1533.3745)">
      <stop
         offset="0"
         style="stop-color:#000"
         id="stop26" />
      <stop
         offset=".11"
         style="stop-color:#181c4e"
         id="stop28" />
      <stop
         offset=".22"
         style="stop-color:#181818"
         id="stop30" />
      <stop
         offset=".34"
         style="stop-color:#181c4e"
         id="stop32" />
      <stop
         offset=".47"
         style="stop-color:#000"
         id="stop34" />
      <stop
         offset=".59"
         style="stop-color:#181c4e"
         id="stop36" />
      <stop
         offset=".72"
         style="stop-color:#000"
         id="stop38" />
      <stop
         offset=".84"
         style="stop-color:#181c4e"
         id="stop40" />
      <stop
         offset=".98"
         style="stop-color:#000"
         id="stop42" />
    </linearGradient>
    <linearGradient
       id="d"
       gradientUnits="userSpaceOnUse"
       x1="449.509"
       y1="1461.434"
       x2="499.75101"
       y2="1514.88"
       gradientTransform="matrix(1.1056147,0,0,1.1056147,23.28854,-1533.3745)">
      <stop
         offset="0"
         style="stop-color:#d9dde9"
         id="stop47" />
      <stop
         offset=".39"
         style="stop-color:#777489"
         id="stop49" />
      <stop
         offset=".98"
         style="stop-color:#d9dde9"
         id="stop51" />
    </linearGradient>
    <linearGradient
       id="e"
       gradientUnits="userSpaceOnUse"
       x1="450.20999"
       y1="1462.1801"
       x2="498.41599"
       y2="1513.46"
       gradientTransform="matrix(1.1056147,0,0,1.1056147,23.28854,-1533.3745)">
      <stop
         offset="0"
         style="stop-color:#000"
         id="stop56" />
      <stop
         offset=".11"
         style="stop-color:#181c4e"
         id="stop58" />
      <stop
         offset=".22"
         style="stop-color:#181818"
         id="stop60" />
      <stop
         offset=".34"
         style="stop-color:#181c4e"
         id="stop62" />
      <stop
         offset=".47"
         style="stop-color:#000"
         id="stop64" />
      <stop
         offset=".59"
         style="stop-color:#181c4e"
         id="stop66" />
      <stop
         offset=".72"
         style="stop-color:#000"
         id="stop68" />
      <stop
         offset=".84"
         style="stop-color:#181c4e"
         id="stop70" />
      <stop
         offset=".98"
         style="stop-color:#000"
         id="stop72" />
    </linearGradient>
    <linearGradient
       id="f"
       gradientUnits="userSpaceOnUse"
       x1="300.5"
       y1="1450.364"
       x2="350.30801"
       y2="1500.173"
       gradientTransform="matrix(1.1056147,0,0,1.1056147,23.28854,-1533.3745)">
      <stop
         offset="0"
         style="stop-color:#d9dde9"
         id="stop77" />
      <stop
         offset=".39"
         style="stop-color:#777489"
         id="stop79" />
      <stop
         offset=".98"
         style="stop-color:#d9dde9"
         id="stop81" />
    </linearGradient>
    <linearGradient
       id="g"
       gradientUnits="userSpaceOnUse"
       x1="301.62"
       y1="1451.46"
       x2="349.578"
       y2="1499.4189"
       gradientTransform="matrix(1.1056147,0,0,1.1056147,23.28854,-1533.3745)">
      <stop
         offset="0"
         style="stop-color:#000"
         id="stop86" />
      <stop
         offset=".11"
         style="stop-color:#181c4e"
         id="stop88" />
      <stop
         offset=".22"
         style="stop-color:#181818"
         id="stop90" />
      <stop
         offset=".34"
         style="stop-color:#181c4e"
         id="stop92" />
      <stop
         offset=".47"
         style="stop-color:#000"
         id="stop94" />
      <stop
         offset=".59"
         style="stop-color:#181c4e"
         id="stop96" />
      <stop
         offset=".72"
         style="stop-color:#000"
         id="stop98" />
      <stop
         offset=".84"
         style="stop-color:#181c4e"
         id="stop100" />
      <stop
         offset=".98"
         style="stop-color:#000"
         id="stop102" />
    </linearGradient>
    <linearGradient
       id="h"
       gradientUnits="userSpaceOnUse"
       x1="141.228"
       y1="1450.637"
       x2="190.761"
       y2="1500.1689"
       gradientTransform="matrix(1.1056147,0,0,1.1056147,23.28854,-1533.3745)">
      <stop
         offset="0"
         style="stop-color:#d9dde9"
         id="stop107" />
      <stop
         offset=".39"
         style="stop-color:#777489"
         id="stop109" />
      <stop
         offset=".98"
         style="stop-color:#d9dde9"
         id="stop111" />
    </linearGradient>
    <linearGradient
       id="i"
       gradientUnits="userSpaceOnUse"
       x1="142.08099"
       y1="1451.468"
       x2="190.20599"
       y2="1499.594"
       gradientTransform="matrix(1.1056147,0,0,1.1056147,23.28854,-1533.3745)">
      <stop
         offset="0"
         style="stop-color:#000"
         id="stop116" />
      <stop
         offset=".11"
         style="stop-color:#181c4e"
         id="stop118" />
      <stop
         offset=".22"
         style="stop-color:#181818"
         id="stop120" />
      <stop
         offset=".34"
         style="stop-color:#181c4e"
         id="stop122" />
      <stop
         offset=".47"
         style="stop-color:#000"
         id="stop124" />
      <stop
         offset=".59"
         style="stop-color:#181c4e"
         id="stop126" />
      <stop
         offset=".72"
         style="stop-color:#000"
         id="stop128" />
      <stop
         offset=".84"
         style="stop-color:#181c4e"
         id="stop130" />
      <stop
         offset=".98"
         style="stop-color:#000"
         id="stop132" />
    </linearGradient>
    <linearGradient
       id="j"
       gradientUnits="userSpaceOnUse"
       x1="64.991997"
       y1="1454.767"
       x2="113.868"
       y2="1503.642"
       gradientTransform="matrix(1.1056147,0,0,1.1056147,23.28854,-1533.3745)">
      <stop
         offset="0"
         style="stop-color:#d9dde9"
         id="stop137" />
      <stop
         offset=".39"
         style="stop-color:#777489"
         id="stop139" />
      <stop
         offset=".98"
         style="stop-color:#d9dde9"
         id="stop141" />
    </linearGradient>
    <linearGradient
       id="k"
       gradientUnits="userSpaceOnUse"
       x1="65.686996"
       y1="1455.464"
       x2="113.198"
       y2="1502.976"
       gradientTransform="matrix(1.1056147,0,0,1.1056147,23.28854,-1533.3745)">
      <stop
         offset="0"
         style="stop-color:#000"
         id="stop146" />
      <stop
         offset=".11"
         style="stop-color:#181c4e"
         id="stop148" />
      <stop
         offset=".22"
         style="stop-color:#181818"
         id="stop150" />
      <stop
         offset=".34"
         style="stop-color:#181c4e"
         id="stop152" />
      <stop
         offset=".47"
         style="stop-color:#000"
         id="stop154" />
      <stop
         offset=".59"
         style="stop-color:#181c4e"
         id="stop156" />
      <stop
         offset=".72"
         style="stop-color:#000"
         id="stop158" />
      <stop
         offset=".84"
         style="stop-color:#181c4e"
         id="stop160" />
      <stop
         offset=".98"
         style="stop-color:#000"
         id="stop162" />
    </linearGradient>
    <linearGradient
       id="l"
       gradientUnits="userSpaceOnUse"
       x1="350.52301"
       y1="-651.40002"
       x2="422.81601"
       y2="-651.40002"
       gradientTransform="matrix(1.1056147,0,0,-1.1056147,50.331876,-617.44573)">
      <stop
         offset="0"
         style="stop-color:#d9dde9"
         id="stop169" />
      <stop
         offset=".39"
         style="stop-color:#777489"
         id="stop171" />
      <stop
         offset=".98"
         style="stop-color:#d9dde9"
         id="stop173" />
    </linearGradient>
    <linearGradient
       id="m"
       gradientUnits="userSpaceOnUse"
       x1="381.42599"
       y1="1450.132"
       x2="430.44299"
       y2="1499.149"
       gradientTransform="matrix(1.1056147,0,0,1.1056147,23.28854,-1533.3745)">
      <stop
         offset="0"
         style="stop-color:#000"
         id="stop178" />
      <stop
         offset=".11"
         style="stop-color:#181c4e"
         id="stop180" />
      <stop
         offset=".22"
         style="stop-color:#181818"
         id="stop182" />
      <stop
         offset=".34"
         style="stop-color:#181c4e"
         id="stop184" />
      <stop
         offset=".47"
         style="stop-color:#000"
         id="stop186" />
      <stop
         offset=".59"
         style="stop-color:#181c4e"
         id="stop188" />
      <stop
         offset=".72"
         style="stop-color:#000"
         id="stop190" />
      <stop
         offset=".84"
         style="stop-color:#181c4e"
         id="stop192" />
      <stop
         offset=".98"
         style="stop-color:#000"
         id="stop194" />
    </linearGradient>
    <linearGradient
       id="n"
       gradientUnits="userSpaceOnUse"
       x1="491.63599"
       y1="1448.985"
       x2="542.54602"
       y2="1499.895"
       gradientTransform="matrix(1.1056147,0,0,1.1056147,23.28854,-1533.3745)">
      <stop
         offset="0"
         style="stop-color:#d9dde9"
         id="stop201" />
      <stop
         offset=".39"
         style="stop-color:#777489"
         id="stop203" />
      <stop
         offset=".98"
         style="stop-color:#d9dde9"
         id="stop205" />
    </linearGradient>
    <linearGradient
       id="o"
       gradientUnits="userSpaceOnUse"
       x1="492.78201"
       y1="1450.132"
       x2="541.79901"
       y2="1499.149"
       gradientTransform="matrix(1.1056147,0,0,1.1056147,23.28854,-1533.3745)">
      <stop
         offset="0"
         style="stop-color:#000"
         id="stop210" />
      <stop
         offset=".11"
         style="stop-color:#181c4e"
         id="stop212" />
      <stop
         offset=".22"
         style="stop-color:#181818"
         id="stop214" />
      <stop
         offset=".34"
         style="stop-color:#181c4e"
         id="stop216" />
      <stop
         offset=".47"
         style="stop-color:#000"
         id="stop218" />
      <stop
         offset=".59"
         style="stop-color:#181c4e"
         id="stop220" />
      <stop
         offset=".72"
         style="stop-color:#000"
         id="stop222" />
      <stop
         offset=".84"
         style="stop-color:#181c4e"
         id="stop224" />
      <stop
         offset=".98"
         style="stop-color:#000"
         id="stop226" />
    </linearGradient>
    <linearGradient
       id="swatch54"
       inkscape:swatch="solid">
      <stop
         style="stop-color:#0b0e25;stop-opacity:1;"
         offset="0"
         id="stop55" />
    </linearGradient>
    <linearGradient
       id="swatch308"
       inkscape:swatch="solid">
      <stop
         style="stop-color:#b3b4c3;stop-opacity:1;"
         offset="0"
         id="stop309" />
    </linearGradient>
    <filter
       style="color-interpolation-filters:sRGB"
       inkscape:label="Drop Shadow"
       id="filter128-4"
       x="-0.25372537"
       y="-0.26650401"
       width="1.5074508"
       height="1.5330095">
      <feFlood
         result="flood"
         in="SourceGraphic"
         flood-opacity="0.498039"
         flood-color="rgb(0,0,0)"
         id="feFlood127-5" />
      <feGaussianBlur
         result="blur"
         in="SourceGraphic"
         stdDeviation="1.000000"
         id="feGaussianBlur127-5" />
      <feOffset
         result="offset"
         in="blur"
         dx="0.000000"
         dy="0.000000"
         id="feOffset127-1" />
      <feComposite
         result="comp1"
         operator="in"
         in="flood"
         in2="offset"
         id="feComposite127-7" />
      <feComposite
         result="fbSourceGraphic"
         operator="over"
         in="SourceGraphic"
         in2="comp1"
         id="feComposite128-1" />
      <feColorMatrix
         result="fbSourceGraphicAlpha"
         in="fbSourceGraphic"
         values="0 0 0 -1 0 0 0 0 -1 0 0 0 0 -1 0 0 0 0 1 0"
         id="feColorMatrix128-1" />
      <feFlood
         id="feFlood128-5"
         result="flood"
         in="fbSourceGraphic"
         flood-opacity="0.498039"
         flood-color="rgb(0,0,0)" />
      <feGaussianBlur
         id="feGaussianBlur128-2"
         result="blur"
         in="fbSourceGraphic"
         stdDeviation="1.000000" />
      <feOffset
         id="feOffset128-7"
         result="offset"
         in="blur"
         dx="0.000000"
         dy="0.000000" />
      <feComposite
         id="feComposite129-6"
         result="comp1"
         operator="in"
         in="flood"
         in2="offset" />
      <feComposite
         id="feComposite130-1"
         result="fbSourceGraphic"
         operator="over"
         in="fbSourceGraphic"
         in2="comp1" />
      <feColorMatrix
         result="fbSourceGraphicAlpha"
         in="fbSourceGraphic"
         values="0 0 0 -1 0 0 0 0 -1 0 0 0 0 -1 0 0 0 0 1 0"
         id="feColorMatrix136-4" />
      <feFlood
         id="feFlood136-2"
         result="flood"
         in="fbSourceGraphic"
         flood-opacity="0.498039"
         flood-color="rgb(0,0,0)" />
      <feGaussianBlur
         id="feGaussianBlur136-3"
         result="blur"
         in="fbSourceGraphic"
         stdDeviation="5.000000" />
      <feOffset
         id="feOffset136-2"
         result="offset"
         in="blur"
         dx="0.000000"
         dy="0.000000" />
      <feComposite
         id="feComposite136-2"
         result="comp1"
         operator="in"
         in="flood"
         in2="offset" />
      <feComposite
         id="feComposite137-1"
         result="fbSourceGraphic"
         operator="over"
         in="fbSourceGraphic"
         in2="comp1" />
      <feColorMatrix
         result="fbSourceGraphicAlpha"
         in="fbSourceGraphic"
         values="0 0 0 -1 0 0 0 0 -1 0 0 0 0 -1 0 0 0 0 1 0"
         id="feColorMatrix137-6" />
      <feFlood
         id="feFlood137-8"
         result="flood"
         in="fbSourceGraphic"
         flood-opacity="0.498039"
         flood-color="rgb(0,0,0)" />
      <feGaussianBlur
         id="feGaussianBlur137-5"
         result="blur"
         in="fbSourceGraphic"
         stdDeviation="0.100000" />
      <feOffset
         id="feOffset137-7"
         result="offset"
         in="blur"
         dx="0.000000"
         dy="0.000000" />
      <feComposite
         id="feComposite138-6"
         result="comp1"
         operator="in"
         in="flood"
         in2="offset" />
      <feComposite
         id="feComposite139-1"
         result="comp2"
         operator="over"
         in="fbSourceGraphic"
         in2="comp1" />
    </filter>
    <linearGradient
       inkscape:collect="always"
       xlink:href="#n"
       id="linearGradient30"
       gradientUnits="userSpaceOnUse"
       gradientTransform="matrix(0.29252722,0,0,0.29252722,-86.360048,-387.95097)"
       x1="491.63599"
       y1="1448.985"
       x2="542.54602"
       y2="1499.895" />
    <linearGradient
       inkscape:collect="always"
       xlink:href="#o"
       id="linearGradient32"
       gradientUnits="userSpaceOnUse"
       gradientTransform="matrix(0.29252722,0,0,0.29252722,-86.360048,-387.95123)"
       x1="492.78201"
       y1="1450.132"
       x2="541.79901"
       y2="1499.149" />
    <linearGradient
       inkscape:collect="always"
       xlink:href="#f"
       id="linearGradient33"
       gradientUnits="userSpaceOnUse"
       gradientTransform="matrix(0.29252722,0,0,0.29252722,-6.8524529,-387.9508)"
       x1="300.5"
       y1="1450.364"
       x2="350.30801"
       y2="1500.173" />
    <linearGradient
       inkscape:collect="always"
       xlink:href="#g"
       id="linearGradient34"
       gradientUnits="userSpaceOnUse"
       gradientTransform="matrix(0.29252722,0,0,0.29252722,-6.8524529,-387.95124)"
       x1="301.62"
       y1="1451.46"
       x2="349.578"
       y2="1499.4189" />
    <linearGradient
       inkscape:collect="always"
       xlink:href="#linearGradient73"
       id="linearGradient38"
       gradientUnits="userSpaceOnUse"
       gradientTransform="matrix(-0.29252722,0,0,0.29252722,186.23805,-387.94176)"
       x1="269.72101"
       y1="1450.804"
       x2="221.69"
       y2="1498.835" />
    <linearGradient
       inkscape:collect="always"
       xlink:href="#b"
       id="linearGradient40"
       gradientUnits="userSpaceOnUse"
       gradientTransform="matrix(-0.29252722,0,0,0.29252722,186.23805,-387.97609)"
       x1="220.79526"
       y1="1499.5372"
       x2="270.30676"
       y2="1450.0258" />
    <linearGradient
       inkscape:collect="always"
       xlink:href="#n"
       id="linearGradient42"
       gradientUnits="userSpaceOnUse"
       gradientTransform="matrix(0.29252722,0,0,0.29252722,-13.120492,-387.9508)"
       x1="491.63599"
       y1="1448.985"
       x2="542.54602"
       y2="1499.895" />
    <linearGradient
       inkscape:collect="always"
       xlink:href="#o"
       id="linearGradient44"
       gradientUnits="userSpaceOnUse"
       gradientTransform="matrix(0.29252722,0,0,0.29252722,-13.120492,-387.95124)"
       x1="492.78201"
       y1="1450.132"
       x2="541.79901"
       y2="1499.149" />
    <linearGradient
       inkscape:collect="always"
       xlink:href="#b"
       id="linearGradient50"
       gradientUnits="userSpaceOnUse"
       gradientTransform="matrix(0.29252722,0,0,0.29252722,-30.43658,-387.97597)"
       x1="220.795"
       y1="1450.026"
       x2="270.30701"
       y2="1499.537" />
    <linearGradient
       inkscape:collect="always"
       xlink:href="#c"
       id="linearGradient51"
       gradientUnits="userSpaceOnUse"
       gradientTransform="matrix(0.29253556,0,0,0.29253556,-30.438392,-387.95408)"
       x1="221.69"
       y1="1450.804"
       x2="269.72101"
       y2="1498.835" />
    <linearGradient
       inkscape:collect="always"
       xlink:href="#n"
       id="linearGradient29"
       gradientUnits="userSpaceOnUse"
       gradientTransform="matrix(0.29252722,0,0,0.29252722,-13.120492,-387.95047)"
       x1="491.63599"
       y1="1448.985"
       x2="542.54602"
       y2="1499.895" />
    <linearGradient
       inkscape:collect="always"
       xlink:href="#b"
       id="linearGradient36"
       gradientUnits="userSpaceOnUse"
       gradientTransform="matrix(-0.29252722,0,0,0.29252722,186.23805,-387.97507)"
       x1="220.79526"
       y1="1499.5372"
       x2="270.30676"
       y2="1450.0258" />
    <linearGradient
       inkscape:collect="always"
       xlink:href="#f"
       id="linearGradient37"
       gradientUnits="userSpaceOnUse"
       gradientTransform="matrix(0.29252722,0,0,0.29252722,-6.8524529,-387.95047)"
       x1="300.5"
       y1="1450.364"
       x2="350.30801"
       y2="1500.173" />
    <linearGradient
       inkscape:collect="always"
       xlink:href="#n"
       id="linearGradient41"
       gradientUnits="userSpaceOnUse"
       gradientTransform="matrix(0.29252722,0,0,0.29252722,-86.360048,-387.95054)"
       x1="491.63599"
       y1="1448.985"
       x2="542.54602"
       y2="1499.895" />
    <linearGradient
       inkscape:collect="always"
       xlink:href="#b"
       id="linearGradient46"
       gradientUnits="userSpaceOnUse"
       gradientTransform="matrix(0.29252722,0,0,0.29252722,-30.43658,-387.97661)"
       x1="220.795"
       y1="1450.026"
       x2="270.30701"
       y2="1499.537" />
  </defs>
  <g
     id="g297"
     transform="matrix(0.26458333,0,0,0.26458333,-13.01421,-5.4124148)"
     inkscape:label="SegaGenesis"
     style="display:inline">
    <path
       d="m 639.64774,56.77913 -0.25319,-0.14594 H 435.42633 l -21.031,-36.176819 H 313.84299 L 292.80645,56.63319 H 88.001277 L 49.187566,78.61723 v 48.26451 l 38.563841,21.84584 0.25208,0.14042 H 639.39235 l 38.53067,-21.82595 0.28082,-0.16031 V 78.61945 Z"
       id="path2-3"
       style="display:inline;stroke-width:1.10562"
       inkscape:label="LogoOutline" />
    <path
       fill="#ced1dd"
       d="m 50.293181,79.26163 v 46.97631 l 37.999858,21.52405 H 639.09752 l 37.99875,-21.52405 V 79.26384 L 639.09752,57.737587 H 434.7883 L 413.75626,21.561986 H 314.47679 L 293.44253,57.737587 H 88.293039 Z"
       id="path4-6"
       style="display:inline;stroke-width:1.10562"
       inkscape:label="LogoFill" />
    <path
       fill="url(#a)"
       d="M 431.42511,62.78594 410.39301,26.608011 H 317.56559 L 296.53127,62.78704 H 90.954372 l -35.61406,19.98178 v 39.96576 l 35.61406,19.98067 H 637.0009 l 35.61295,-19.98067 V 82.76882 L 637.0009,62.78815 Z"
       id="path13"
       style="display:inline;fill:url(#a);stroke-width:1.10562"
       inkscape:label="LogoInnerGradient" />
    <path
       fill="#202066"
       d="M 392.43671,36.453511 384.55258,60.4741 h 3.89286 l 7.90073,-23.194696 c 0.28745,-1.060284 1.15315,-1.834214 2.17032,-1.834214 1.02932,0 1.89392,0.77393 2.18249,1.834214 l 6.67901,19.620236 h -10.48012 v 3.57335 h 15.59469 l -7.88524,-24.020586 a 6.3329611,6.3329611 0 0 0 -12.17061,0.0011 z m 4.61927,14.916953 1.37979,-4.097408 1.43841,4.097408 z m -0.57161,-11.76153 -7.06156,20.865166 h 4.55181 l 2.92214,-8.648123 v 4.087453 h 9.17107 l -5.44625,-16.304496 c -0.27641,-0.907709 -1.10119,-3.518065 -2.07082,-3.518065 -0.97404,0 -1.79883,2.60925 -2.06639,3.518065 z m -24.93051,-3.189697 h 13.64771 V 32.516416 H 371.2277 c -3.76793,0 -6.82384,3.063659 -6.82384,6.8327 v 14.302231 a 6.8238541,6.8238541 0 0 0 6.82384,6.823853 h 13.97387 V 42.265727 h -11.0473 v 3.575558 h 7.14337 V 56.56796 h -9.74378 a 3.2427679,3.2427679 0 0 1 -3.24608,-3.248297 V 39.665322 a 3.2427679,3.2427679 0 0 1 3.24608,-3.246085 z m 2.5993,10.399411 v 3.903926 h 2.27204 v 0.975152 h -2.27204 a 0.97736341,0.97736341 0 0 1 -0.97626,-0.975152 v -8.455742 c 0,-0.537328 0.43783,-0.976257 0.97626,-0.976257 h 11.0473 v -3.896187 h -12.67145 a 3.2527185,3.2527185 0 0 0 -3.25603,3.248297 v 11.702932 a 3.2527185,3.2527185 0 0 0 3.25603,3.248293 h 7.80011 V 46.817543 Z M 349.13199,36.419237 h 13.64772 v -3.902821 h -13.97608 c -3.76793,0 -6.82164,3.063659 -6.82164,6.8327 v 14.143022 c 0,3.767932 3.05371,6.831592 6.82164,6.831592 h 13.97608 v -3.90392 h -13.64772 a 3.248296,3.248296 0 0 1 -3.24829,-3.2483 V 39.667532 a 3.2505072,3.2505072 0 0 1 3.24829,-3.248295 z m 10.71894,9.423154 v -3.575559 h -9.09589 c 0,-0.537328 0.43672,-0.976257 0.97625,-0.976257 h 11.04731 v -3.896187 h -12.67145 a 3.248296,3.248296 0 0 0 -3.24608,3.248297 v 5.199706 z m 0,1.303519 v 3.575558 h -9.09589 c 0,0.536224 0.43672,0.975152 0.97625,0.975152 h 11.04731 v 3.89398 h -12.67145 a 3.2460848,3.2460848 0 0 1 -3.24608,-3.2483 v -5.199706 z m -33.39288,4.872444 h -8.19481 v 3.574456 h 12.66923 a 4.3892905,4.3892905 0 0 0 -0.16032,-8.776373 h -4.92993 c -1.99342,-0.758452 -3.68611,-2.73529 -3.68611,-5.040498 0,-2.961941 2.72755,-5.360019 5.68838,-5.360019 h 12.19162 v -3.900609 h -12.6803 c -5.0206,0 -9.09369,4.079718 -9.09369,9.102525 0,5.030547 4.39925,9.103632 9.42095,9.103632 v -0.04202 l 0.0254,0.04202 h 2.90223 a 0.6478905,0.6478905 0 0 1 0,1.295781 h -4.15268 z m 5.3755,-11.048408 h 8.20366 v -3.575558 h -12.67919 a 4.3870792,4.3870792 0 0 0 -4.22124,4.384868 4.3892905,4.3892905 0 0 0 4.39261,4.392608 h 4.92994 c 1.99342,0.765086 3.67727,2.734185 3.67727,5.039392 0,2.963047 -2.72534,5.361124 -5.68949,5.361124 h -12.18167 v 3.90282 h 12.66925 a 9.102526,9.102526 0 0 0 9.10363,-9.101419 c 0,-5.022807 -4.39925,-9.103631 -9.42316,-9.103631 V 42.321 l -0.032,-0.04975 h -2.89561 a 0.6478905,0.6478905 0 0 1 0,-1.295781 z"
       id="path15"
       style="display:inline;stroke-width:1.10562"
       inkscape:label="SEGA" />
    <path
       fill="url(#b)"
       d="m 338.49266,74.00461 v 57.68324 H 319.06923 V 110.37933 L 281.84096,89.19354 v 42.49431 H 262.41642 V 74.00461 h 20.23386 l 36.41895,20.71922 V 74.00461 Z"
       id="path24-7"
       style="display:inline;fill:url(#b);stroke-width:1.10562"
       inkscape:label="N_Outline_1" />
    <path
       fill="url(#c)"
       d="m 337.41911,74.80397 v 55.82581 H 318.54406 V 110.00563 L 282.36502,89.50201 v 41.12777 H 263.48887 V 74.80397 h 19.66225 l 35.39294,20.04922 V 74.80397 Z"
       id="path45"
       style="display:inline;fill:url(#c);stroke-width:1.10562"
       inkscape:label="N" />
    <path
       fill="url(#d)"
       d="M 529.30186,73.72378 H 549.4926 V 131.7785 H 529.30186 Z"
       id="path54-5"
       style="display:inline;fill:url(#d);stroke-width:1.10562"
       inkscape:label="I_Outline_1" />
    <path
       fill="url(#e)"
       d="m 529.81597,74.80397 h 19.16252 v 55.89877 h -19.16252 z"
       id="path75"
       style="display:inline;fill:url(#e);stroke-width:1.10562"
       inkscape:label="I" />
    <path
       fill="url(#f)"
       d="M 405.10816,85.33384 H 371.9353 v 11.61117 h 39.80655 l -19.07407,11.61116 H 371.9353 v 11.61117 h 53.90535 L 406.76659,131.7785 H 352.03203 V 86.99448 l 19.90327,-13.2707 h 52.24693 z"
       id="path84-3"
       style="fill:url(#f);stroke-width:1.10562"
       inkscape:label="E_Outline_1" />
    <path
       fill="url(#g)"
       d="m 404.50782,85.98173 h -31.94121 v 11.17998 h 38.32944 l -18.36647,11.17997 h -19.96297 v 11.17777 h 51.90308 l -18.36316,11.18218 H 353.40077 V 87.58045 l 19.16584,-12.77648 h 50.30768 z"
       id="path105"
       style="fill:url(#g);stroke-width:1.10562"
       inkscape:label="E" />
    <path
       fill="url(#h)"
       d="m 228.73829,85.55275 h -32.98712 v 11.54152 h 39.58433 l -18.96793,11.54814 h -20.6164 v 11.54483 h 53.60462 l -18.96903,11.54594 H 175.95735 V 87.20012 l 19.79382,-13.19551 h 51.95505 z"
       id="path114-5"
       style="display:inline;fill:url(#h);stroke-width:1.10562"
       inkscape:label="E_Outline_1" />
    <path
       fill="url(#i)"
       d="m 228.27947,86.04033 h -32.04956 v 11.22088 h 38.46101 l -18.43059,11.21867 h -20.03042 v 11.21646 h 52.08329 l -18.42838,11.21647 H 176.99774 V 87.64237 l 19.23217,-12.8185 h 50.48015 z"
       id="path135"
       style="display:inline;fill:url(#i);stroke-width:1.10562"
       inkscape:label="E" />
    <path
       fill="url(#j)"
       d="M 82.977364,87.20454 102.77671,74.00461 h 60.22505 l -18.97567,11.55257 h -41.24938 v 34.64664 h 37.12434 v -14.02471 h -23.09961 l 18.97455,-11.54815 h 23.92661 v 23.92329 l -19.80155,13.20103 H 82.977364 Z"
       id="path144-6"
       style="display:inline;fill:url(#j);stroke-width:1.10562"
       inkscape:label="G_Outline_1" />
    <path
       fill="url(#k)"
       d="M 84.084084,87.63352 103.33062,74.80397 h 58.54342 l -18.44609,11.22752 h -40.09733 v 33.68255 h 36.08727 v -13.63445 h -22.45393 l 18.44497,-11.2264 h 23.25772 v 23.2566 l -19.24876,12.83066 H 84.084084 Z"
       id="path165"
       style="display:inline;fill:url(#k);stroke-width:1.10562"
       inkscape:label="G" />
    <path
       fill="#c2c4d2"
       d="m 516.961,119.99928 -19.35047,11.77922 h -59.73526 l 19.35047,-11.77922 h 37.86067 v -11.777 H 437.87527 V 85.50521 l 19.35047,-11.78143 h 60.57773 L 498.45301,85.50521 H 458.90848 V 96.43974 H 516.961 Z"
       id="path167"
       style="display:inline;stroke-width:1.10562"
       inkscape:label="S_Outline_1" />
    <path
       fill="url(#l)"
       d="m 495.08641,119.99928 v -11.777 H 437.87527 V 85.50521 l 19.35047,-11.78143 h 60.57773 L 498.45301,85.50521 H 458.90848 V 96.43974 H 516.961 v 23.55954 l -19.35047,11.77922 h -59.73526 l 19.35047,-11.77922 z"
       id="path176-2"
       style="display:inline;fill:url(#l);stroke-width:1.10562"
       inkscape:label="S_Outline_2" />
    <path
       fill="url(#m)"
       d="M 494.44515,119.35803 V 108.01884 H 439.36121 V 86.14426 l 18.63072,-11.34029 h 58.32559 l -18.63071,11.34029 h -38.07516 v 10.53098 h 55.89657 v 22.68279 l -18.63182,11.3436 h -57.51519 l 18.63072,-11.3436 z"
       id="path197"
       style="display:inline;fill:url(#m);stroke-width:1.10562"
       inkscape:label="S" />
    <path
       fill="#c2c4d2"
       d="M 640.08003,119.99928 620.72957,131.7785 H 560.9921 l 19.35157,-11.77922 h 37.86178 v -11.777 H 560.9921 V 85.50521 l 19.35157,-11.78143 h 60.57663 l -19.35046,11.78143 h -39.54342 v 10.93453 h 58.05361 z"
       id="path199"
       style="display:inline;stroke-width:1.10562"
       inkscape:label="S_Outline_1" />
    <path
       fill="url(#n)"
       d="m 618.20545,119.99928 v -11.777 H 560.9921 V 85.50521 l 19.35157,-11.78143 h 60.57663 l -19.35046,11.78143 h -39.54342 v 10.93453 h 58.05361 v 23.55954 L 620.72957,131.7785 H 560.9921 l 19.35157,-11.77922 z"
       id="path208-9"
       style="display:inline;fill:url(#n);stroke-width:1.10562"
       inkscape:label="S_Outline_2" />
    <path
       fill="url(#o)"
       d="M 617.5642,119.35803 V 108.01884 H 562.47694 V 86.14426 l 18.63403,-11.34029 h 58.3256 L 620.80254,86.14426 H 582.7307 v 10.53098 h 55.89545 v 22.68279 l -18.63292,11.3436 h -57.51629 l 18.63403,-11.3436 z"
       id="path229"
       style="display:inline;fill:url(#o);stroke-width:1.10562"
       inkscape:label="S" />
  </g>
  <g
     id="g2"
     transform="translate(-9.029301)"
     inkscape:label="Hacks_v2"
     style="display:inline">
    <path
       fill="url(#b)"
       d="M 52.961175,37.309752 V 52.571776 H 47.822059 L 47.822553,46.433 H 37.97208 v 6.138776 H 32.83267 V 37.309752 h 5.353883 V 43.299 h 9.635506 v -5.989248 z"
       id="path28"
       style="display:inline;fill:url(#linearGradient50);stroke-width:0.292529"
       inkscape:label="H_Outline_1"
       sodipodi:nodetypes="ccccccccccccc" />
    <path
       id="path27"
       style="display:inline;fill:url(#linearGradient46);stroke-width:0.292529"
       inkscape:label="H_Outline_2"
       d="m 32.304688,37.046233 c 0,5.350911 -10e-7,10.701823 0,16.052734 2.065104,0 4.130208,0 6.195312,0 0,-2.046224 0,-4.092448 0,-6.138671 2.931641,-10e-7 5.863281,0 8.794922,0 0,2.046223 0,4.092447 0,6.138671 2.064453,0 4.128906,0 6.193359,0 0,-5.438802 0,-10.877604 0,-16.316406 -2.064453,0 -4.128906,0 -6.193359,0 0,1.996094 0,3.992188 0,5.988281 -2.860026,0 -5.720052,0 -8.580078,0 0,-1.996093 0,-3.992187 0,-5.988281 -2.136719,0 -4.273438,0 -6.410156,0 0,0.08789 -10e-7,0.175781 0,0.263672 z" />
    <path
       fill="url(#c)"
       d="m 52.67769,37.555264 v 14.771 h -4.994167 v -5.957249 h -9.572644 l -3.26e-4,5.957249 h -4.99413 v -14.771 h 4.99413 v 5.811751 h 9.573 l -3e-5,-5.811751 z"
       id="path29"
       style="display:inline;fill:url(#linearGradient51);stroke-width:0.292537"
       inkscape:label="H"
       sodipodi:nodetypes="ccccccccccccc" />
    <path
       d="m 61.027569,37.260612 -5.120101,3.117123 v 12.24318 h 5.17e-4 5.509741 l -0.03566,-6.232694 h 9.66246 v 6.232694 h 6.009969 v -6.127274 -3.222543 -6.010486 z m 0.445451,3.117123 h 9.571509 v 2.893364 h -9.572026 z"
       style="display:inline;fill:#c2c4d2;stroke-width:0.292529"
       id="path41"
       inkscape:label="A_Outline1" />
    <path
       d="m 61.027708,37.260612 -5.120101,3.117123 v 12.243181 h 5.565035 v -6.232695 l 9.572025,-5.18e-4 v 0.340032 l 5.17e-4,5.893181 h 6.009453 V 37.260612 Z m 0.444934,3.117123 h 9.572025 v 2.892847 h -9.572025 z"
       style="display:inline;fill:url(#linearGradient30);stroke-width:0.292529"
       id="path40"
       inkscape:label="A_Outline2" />
    <path
       id="path26"
       style="display:inline;fill:url(#linearGradient41);stroke-width:0.292529"
       inkscape:label="A_Outline3"
       d="m 60.818359,36.769865 c -1.813797,1.100272 -3.625477,2.206438 -5.4375,3.310547 0,4.35612 0,8.71224 0,13.06836 2.206381,0 4.412761,-10e-7 6.619141,0 0,-2.077474 0,-4.154948 0,-6.232422 2.839193,0 5.678385,0 8.517578,0 0,2.077474 0,4.154948 0,6.232422 2.354818,-10e-7 4.709636,0 7.064453,0 0,-5.472006 0,-10.944011 0,-16.416016 -5.567057,0 -11.134114,0 -16.701172,0 z m 9.699219,4.134766 c 0,0.613281 0,1.226562 0,1.839844 -2.839193,0 -5.678385,0 -8.517578,0 0,-0.613282 0,-1.226563 0,-1.839844 2.839193,0 5.678385,0 8.517578,0 z" />
    <path
       id="path229-9"
       style="display:inline;fill:url(#linearGradient32);stroke-width:0.292529"
       inkscape:label="A"
       d="m 61.230279,37.546125 -4.929931,3.000333 v 11.788945 h 5.358329 v -6.000758 l 9.217009,-4.26e-4 -5.17e-4,6.001184 h 5.17e-4 5.719547 l 0.06718,-14.789278 z m 9.64489,14.789278 H 61.658677 Z M 61.659194,40.546458 h 9.216492 v 2.786394 l -9.217009,-2.07e-4 z"
       sodipodi:nodetypes="ccccccccccccccccccc" />
    <path
       fill="url(#f)"
       d="m 94.170649,40.332437 h -8.77698 V 49.5488 h 14.26246 l -5.04668,3.072119 H 80.127594 V 40.771814 l 5.266075,-3.511206 h 13.82367 z"
       id="path84-3-0"
       style="display:inline;fill:url(#linearGradient33);stroke-width:0.292529"
       inkscape:label="C_Outline_1"
       sodipodi:nodetypes="cccccccccc" />
    <path
       id="path22"
       style="display:inline;fill:url(#linearGradient37);stroke-width:0.292529"
       inkscape:label="C_Outline_2"
       d="m 85.169922,36.773772 c -1.855088,1.237089 -3.715555,2.475614 -5.570313,3.716797 0,4.2194 0,8.438802 0,12.658203 5.052735,0 10.105469,0 15.158203,0 2.262585,-1.374212 4.522837,-2.752294 6.785158,-4.126953 -5.207032,0 -10.414064,0 -15.621095,0 0,-2.720703 0,-5.441406 0,-8.16211 2.837173,-0.03783 5.70223,0.08272 8.521484,-0.07422 2.220122,-1.350797 4.439534,-2.70276 6.660161,-4.052734 -5.289067,0 -10.578129,0 -15.867192,0 z" />
    <path
       fill="url(#g)"
       d="m 94.011809,40.503418 h -8.45111 v 8.873522 h 13.73269 l -4.85858,2.958619 H 80.48974 l 2.74e-4,-11.409 5.070685,-3.380591 h 13.31058 z"
       id="path105-9"
       style="display:inline;fill:url(#linearGradient34);stroke-width:0.292529"
       inkscape:label="C"
       sodipodi:nodetypes="cccccccccc" />
    <path
       id="path19"
       style="display:inline;fill:url(#linearGradient40);stroke-width:0.292529"
       d="m 102.84037,37.309738 v 15.262118 h 5.13922 V 47.09002 l 9.41183,5.354712 v 10e-4 l 0.22169,0.126091 h 7.27863 l -7.50032,-4.267957 -5.90972,-3.363102 5.90972,-3.363102 7.50032,-4.267957 h -7.27863 l -0.22169,0.126091 v 10e-4 l -9.41183,5.354712 v -5.481836 z"
       inkscape:label="K_Outline_1" />
    <path
       id="path21"
       style="display:inline;fill:url(#linearGradient36);stroke-width:0.292529"
       inkscape:label="K_Outline_2"
       d="m 119.58008,36.782139 c -0.79039,0.09133 -1.66753,-0.132915 -2.40041,0.16724 -2.89062,1.644123 -5.78124,3.288246 -8.67186,4.932369 0,-1.699218 0,-3.398437 0,-5.097656 -2.0651,0 -4.13021,0 -6.19531,0 0,5.438802 0,10.877604 0,16.316406 2.0651,0 4.13021,0 6.19531,0 0,-1.699869 0,-3.399739 0,-5.099609 2.98846,1.699552 5.97551,3.401636 8.96485,5.099609 3.13997,0 6.27994,0 9.41992,0 -4.78024,-2.718882 -9.55985,-5.438881 -14.33985,-8.158203 4.78133,-2.719911 9.56198,-5.44102 14.34375,-8.160156 -2.43884,0.01246 -4.87757,-0.0056 -7.3164,0 z" />
    <path
       id="path54"
       style="display:inline;fill:url(#linearGradient38);stroke-width:0.292529"
       d="m 103.12435,37.555426 v 14.770675 h 4.99401 v -5.304586 l 9.36067,5.304586 h 7.07295 l -13.03125,-7.385078 13.03125,-7.385596 h -7.07295 l -9.36067,5.304586 v -5.304586 z"
       inkscape:label="K" />
    <path
       fill="#c2c4d2"
       d="m 150.07227,49.504334 -5.11981,3.116586 h -15.80554 l 5.1201,-3.116586 h 10.0176 v -3.115998 h -15.1377 v -6.010558 l 5.1201,-3.11717 h 16.02757 l -5.11981,3.11717 h -10.46253 v 2.893095 h 15.36002 z"
       id="path199-5"
       style="display:inline;stroke-width:0.292529"
       inkscape:label="S_Outline_1" />
    <path
       fill="url(#n)"
       d="m 144.28462,49.504334 v -3.115998 h -15.1377 v -6.010558 l 5.1201,-3.11717 h 16.02757 l -5.11981,3.11717 h -10.46253 v 2.893095 h 15.36002 v 6.233461 l -5.11981,3.116586 h -15.80554 l 5.1201,-3.116586 z"
       id="path208-9-1"
       style="display:inline;fill:url(#linearGradient42);stroke-width:0.292529"
       inkscape:label="S_Outline_2" />
    <path
       id="path20"
       style="display:inline;fill:url(#linearGradient29);stroke-width:0.292529"
       inkscape:label="S_Outline_3"
       d="m 134.05809,36.769865 c -1.81444,1.1003 -3.62681,2.206393 -5.43946,3.310547 0,2.278646 0,4.557292 0,6.835938 5.04623,0 10.09245,0 15.13867,0 1e-5,0.686849 0,1.373698 0,2.060546 -3.23027,0.02493 -6.48789,-0.04973 -9.70117,0.03711 -2.26568,1.378162 -4.5308,2.757241 -6.79687,4.134766 5.94726,-10e-7 11.89453,0 17.8418,0 1.83338,-1.114706 3.66596,-2.230794 5.49804,-3.347657 0,-2.352213 0,-4.704427 0,-7.05664 -5.11979,0 -10.23958,0 -15.35937,0 0,-0.613282 0,-1.226563 0,-1.839844 3.36133,0 6.72265,0 10.08398,0 2.2867,-1.389148 4.57091,-2.782421 6.85742,-4.171875 -6.02018,0 -12.04036,0 -18.06054,0 z" />
    <path
       fill="url(#o)"
       d="m 144.11495,49.33423 v -3.00016 h -14.57517 v -5.78765 l 4.93026,-3.000451 h 15.43198 l -4.93026,3.000451 h -10.07317 v 2.786322 h 14.789 v 6.001488 l -4.92996,3.001328 h -15.21785 l 4.93026,-3.001328 z"
       id="path229-2"
       style="display:inline;fill:url(#linearGradient44);stroke-width:0.292529"
       inkscape:label="S" />
  </g>
</svg>
