<svg xmlns="http://www.w3.org/2000/svg" width="568.929" height="116.145" viewBox="-1 -1 568.929 116.145" xml:space="preserve">
    <path d="m533.056 31.853-.229-.132H348.343L329.321-1h-90.947l-19.027 32.721H34.106L-1 51.605v43.654l34.88 19.759.228.127h498.717l34.85-19.741.254-.145V51.607z"/>
    <path fill="#CED1DD" d="M0 52.188v42.489l34.37 19.468h498.19l34.369-19.468V52.19L532.56 32.72H347.767L328.744 0h-89.796l-19.025 32.72H34.37z"/>
    <linearGradient id="a" gradientUnits="userSpaceOnUse" x1="308.144" y1="1410.964" x2="308.144" y2="1515.981" gradientTransform="translate(-24.425 -1406.4)">
        <stop offset="0" style="stop-color:#d9dde9"/>
        <stop offset=".39" style="stop-color:#777489"/>
        <stop offset=".98" style="stop-color:#d9dde9"/>
    </linearGradient>
    <path fill="url(#a)" d="M344.724 37.286 325.701 4.564h-83.96l-19.025 32.723H36.777L4.565 55.36v36.148l32.212 18.072h493.885l32.211-18.072V55.36l-32.211-18.072-185.938-.002z"/>
    <path fill="#202066" d="m309.46 13.469-7.131 21.726h3.521l7.146-20.979c.26-.959 1.043-1.659 1.963-1.659.931 0 1.713.7 1.974 1.659l6.041 17.746h-9.479v3.232H327.6l-7.132-21.726a5.728 5.728 0 0 0-11.008.001zm4.178 13.492 1.248-3.706 1.301 3.706h-2.549zm-.517-10.638-6.387 18.872h4.117l2.643-7.822v3.697h8.295l-4.926-14.747c-.25-.821-.996-3.182-1.873-3.182-.881 0-1.627 2.36-1.869 3.182zm-22.549-2.885h12.344v-3.53h-12.639c-3.408 0-6.172 2.771-6.172 6.18v12.936a6.172 6.172 0 0 0 6.172 6.172h12.639v-16.47h-9.992v3.234h6.461v9.702h-8.813a2.933 2.933 0 0 1-2.936-2.938v-12.35a2.933 2.933 0 0 1 2.936-2.936zm2.351 9.406v3.531h2.055v.882h-2.055a.884.884 0 0 1-.883-.882v-7.648c0-.486.396-.883.883-.883h9.992V14.32h-11.461a2.942 2.942 0 0 0-2.945 2.938v10.585a2.942 2.942 0 0 0 2.945 2.938h7.055v-7.938l-5.586.001zm-22.631-9.406h12.344v-3.53h-12.641c-3.408 0-6.17 2.771-6.17 6.18V28.88c0 3.408 2.762 6.179 6.17 6.179h12.641v-3.531h-12.344a2.938 2.938 0 0 1-2.938-2.938V16.376a2.94 2.94 0 0 1 2.938-2.938zm9.695 8.523v-3.234h-8.227c0-.486.395-.883.883-.883h9.992V14.32h-11.461a2.938 2.938 0 0 0-2.936 2.938v4.703h11.749zm0 1.179v3.234h-8.227c0 .485.395.882.883.882h9.992v3.522h-11.461a2.936 2.936 0 0 1-2.936-2.938v-4.703l11.749.003zm-30.203 4.407h-7.412v3.233h11.459a3.97 3.97 0 0 0-.145-7.938h-4.459c-1.803-.686-3.334-2.474-3.334-4.559 0-2.679 2.467-4.848 5.145-4.848h11.027V9.907h-11.469c-4.541 0-8.225 3.69-8.225 8.233 0 4.55 3.979 8.234 8.521 8.234v-.038l.023.038h2.625a.586.586 0 0 1 0 1.172h-3.756v.001zm4.862-9.993h7.42V14.32h-11.468a3.968 3.968 0 0 0-3.818 3.966 3.97 3.97 0 0 0 3.973 3.973h4.459c1.803.692 3.326 2.473 3.326 4.558 0 2.68-2.465 4.849-5.146 4.849h-11.018v3.53h11.459a8.233 8.233 0 0 0 8.234-8.232c0-4.543-3.979-8.234-8.523-8.234v.046l-.029-.045h-2.619a.586.586 0 0 1 0-1.172l3.75-.005z"/>
    <linearGradient id="b" gradientUnits="userSpaceOnUse" x1="220.795" y1="1450.026" x2="270.307" y2="1499.537" gradientTransform="translate(-24.425 -1406.4)">
        <stop offset="0" style="stop-color:#d9dde9"/>
        <stop offset=".39" style="stop-color:#777489"/>
        <stop offset=".98" style="stop-color:#d9dde9"/>
    </linearGradient>
    <path fill="url(#b)" d="M260.669 47.433v52.173h-17.568V80.333l-33.672-19.162v38.435H191.86V47.433h18.301l32.94 18.74v-18.74z"/>
    <linearGradient id="c" gradientUnits="userSpaceOnUse" x1="221.69" y1="1450.804" x2="269.721" y2="1498.835" gradientTransform="translate(-24.425 -1406.4)">
        <stop offset="0" style="stop-color:#000"/>
        <stop offset=".11" style="stop-color:#181c4e"/>
        <stop offset=".22" style="stop-color:#181818"/>
        <stop offset=".34" style="stop-color:#181c4e"/>
        <stop offset=".47" style="stop-color:#000"/>
        <stop offset=".59" style="stop-color:#181c4e"/>
        <stop offset=".72" style="stop-color:#000"/>
        <stop offset=".84" style="stop-color:#181c4e"/>
        <stop offset=".98" style="stop-color:#000"/>
    </linearGradient>
    <path fill="url(#c)" d="M259.698 48.156v50.493h-17.072V79.995L209.903 61.45v37.199H192.83V48.156h17.784l32.012 18.134V48.156z"/>
    <linearGradient id="d" gradientUnits="userSpaceOnUse" x1="449.509" y1="1461.434" x2="499.751" y2="1514.88" gradientTransform="translate(-24.425 -1406.4)">
        <stop offset="0" style="stop-color:#d9dde9"/>
        <stop offset=".39" style="stop-color:#777489"/>
        <stop offset=".98" style="stop-color:#d9dde9"/>
    </linearGradient>
    <path fill="url(#d)" d="M433.251 47.179h18.262v52.509h-18.262z"/>
    <linearGradient id="e" gradientUnits="userSpaceOnUse" x1="450.21" y1="1462.18" x2="498.416" y2="1513.46" gradientTransform="translate(-24.425 -1406.4)">
        <stop offset="0" style="stop-color:#000"/>
        <stop offset=".11" style="stop-color:#181c4e"/>
        <stop offset=".22" style="stop-color:#181818"/>
        <stop offset=".34" style="stop-color:#181c4e"/>
        <stop offset=".47" style="stop-color:#000"/>
        <stop offset=".59" style="stop-color:#181c4e"/>
        <stop offset=".72" style="stop-color:#000"/>
        <stop offset=".84" style="stop-color:#181c4e"/>
        <stop offset=".98" style="stop-color:#000"/>
    </linearGradient>
    <path fill="url(#e)" d="M433.716 48.156h17.332v50.559h-17.332z"/>
    <linearGradient id="f" gradientUnits="userSpaceOnUse" x1="300.5" y1="1450.364" x2="350.308" y2="1500.173" gradientTransform="translate(-24.425 -1406.4)">
        <stop offset="0" style="stop-color:#d9dde9"/>
        <stop offset=".39" style="stop-color:#777489"/>
        <stop offset=".98" style="stop-color:#d9dde9"/>
    </linearGradient>
    <path fill="url(#f)" d="M320.921 57.68h-30.004v10.502h36.004l-17.252 10.502h-18.752v10.502h48.756l-17.252 10.502h-49.506V59.182l18.002-12.003h47.256z"/>
    <linearGradient id="g" gradientUnits="userSpaceOnUse" x1="301.62" y1="1451.46" x2="349.578" y2="1499.419" gradientTransform="translate(-24.425 -1406.4)">
        <stop offset="0" style="stop-color:#000"/>
        <stop offset=".11" style="stop-color:#181c4e"/>
        <stop offset=".22" style="stop-color:#181818"/>
        <stop offset=".34" style="stop-color:#181c4e"/>
        <stop offset=".47" style="stop-color:#000"/>
        <stop offset=".59" style="stop-color:#181c4e"/>
        <stop offset=".72" style="stop-color:#000"/>
        <stop offset=".84" style="stop-color:#181c4e"/>
        <stop offset=".98" style="stop-color:#000"/>
    </linearGradient>
    <path fill="url(#g)" d="M320.378 58.266h-28.89v10.112h34.668L309.544 78.49h-18.056V88.6h46.945l-16.609 10.114h-47.671V59.712l17.335-11.556h45.502z"/>
    <linearGradient id="h" gradientUnits="userSpaceOnUse" x1="141.228" y1="1450.637" x2="190.761" y2="1500.169" gradientTransform="translate(-24.425 -1406.4)">
        <stop offset="0" style="stop-color:#d9dde9"/>
        <stop offset=".39" style="stop-color:#777489"/>
        <stop offset=".98" style="stop-color:#d9dde9"/>
    </linearGradient>
    <path fill="url(#h)" d="M161.399 57.878h-29.836v10.439h35.803L150.21 78.762h-18.647v10.442h48.484L162.89 99.647h-49.23V59.368l17.903-11.935h46.992z"/>
    <linearGradient id="i" gradientUnits="userSpaceOnUse" x1="142.081" y1="1451.468" x2="190.206" y2="1499.594" gradientTransform="translate(-24.425 -1406.4)">
        <stop offset="0" style="stop-color:#000"/>
        <stop offset=".11" style="stop-color:#181c4e"/>
        <stop offset=".22" style="stop-color:#181818"/>
        <stop offset=".34" style="stop-color:#181c4e"/>
        <stop offset=".47" style="stop-color:#000"/>
        <stop offset=".59" style="stop-color:#181c4e"/>
        <stop offset=".72" style="stop-color:#000"/>
        <stop offset=".84" style="stop-color:#181c4e"/>
        <stop offset=".98" style="stop-color:#000"/>
    </linearGradient>
    <path fill="url(#i)" d="M160.984 58.319h-28.988v10.149h34.787l-16.67 10.147h-18.117V88.76h47.108l-16.668 10.145h-47.835V59.768l17.395-11.594h45.658z"/>
    <linearGradient id="j" gradientUnits="userSpaceOnUse" x1="64.992" y1="1454.767" x2="113.868" y2="1503.642" gradientTransform="translate(-24.425 -1406.4)">
        <stop offset="0" style="stop-color:#d9dde9"/>
        <stop offset=".39" style="stop-color:#777489"/>
        <stop offset=".98" style="stop-color:#d9dde9"/>
    </linearGradient>
    <path fill="url(#j)" d="M29.562 59.372 47.47 47.433h54.472L84.779 57.882H47.47v31.337h33.578V76.534H60.155l17.162-10.445h21.641v21.638l-17.91 11.94H29.562z"/>
    <linearGradient id="k" gradientUnits="userSpaceOnUse" x1="65.687" y1="1455.464" x2="113.198" y2="1502.976" gradientTransform="translate(-24.425 -1406.4)">
        <stop offset="0" style="stop-color:#000"/>
        <stop offset=".11" style="stop-color:#181c4e"/>
        <stop offset=".22" style="stop-color:#181818"/>
        <stop offset=".34" style="stop-color:#181c4e"/>
        <stop offset=".47" style="stop-color:#000"/>
        <stop offset=".59" style="stop-color:#181c4e"/>
        <stop offset=".72" style="stop-color:#000"/>
        <stop offset=".84" style="stop-color:#181c4e"/>
        <stop offset=".98" style="stop-color:#000"/>
    </linearGradient>
    <path fill="url(#k)" d="m30.563 59.76 17.408-11.604h52.951L84.238 58.311H47.971v30.465h32.64V76.444H60.302L76.985 66.29h21.036v21.035L80.611 98.93H30.563z"/>
    <path fill="#C2C4D2" d="m422.089 89.034-17.502 10.654h-54.029l17.502-10.654h34.244V78.382h-51.746V57.835l17.502-10.656h54.791l-17.502 10.656h-35.767v9.89h52.507z"/>
    <linearGradient id="l" gradientUnits="userSpaceOnUse" x1="350.523" y1="-651.4" x2="422.816" y2="-651.4" gradientTransform="matrix(1 0 0 -1 .035 -577.966)">
        <stop offset="0" style="stop-color:#d9dde9"/>
        <stop offset=".39" style="stop-color:#777489"/>
        <stop offset=".98" style="stop-color:#d9dde9"/>
    </linearGradient>
    <path fill="url(#l)" d="M402.304 89.034V78.382h-51.746V57.835l17.502-10.656h54.791l-17.502 10.656h-35.767v9.89h52.507v21.309l-17.502 10.654h-54.029l17.502-10.654z"/>
    <linearGradient id="m" gradientUnits="userSpaceOnUse" x1="381.426" y1="1450.132" x2="430.443" y2="1499.149" gradientTransform="translate(-24.425 -1406.4)">
        <stop offset="0" style="stop-color:#000"/>
        <stop offset=".11" style="stop-color:#181c4e"/>
        <stop offset=".22" style="stop-color:#181818"/>
        <stop offset=".34" style="stop-color:#181c4e"/>
        <stop offset=".47" style="stop-color:#000"/>
        <stop offset=".59" style="stop-color:#181c4e"/>
        <stop offset=".72" style="stop-color:#000"/>
        <stop offset=".84" style="stop-color:#181c4e"/>
        <stop offset=".98" style="stop-color:#000"/>
    </linearGradient>
    <path fill="url(#m)" d="M401.724 88.454V78.198h-49.822V58.413l16.851-10.257h52.754l-16.851 10.257h-34.438v9.525h50.557v20.516l-16.852 10.26h-52.021l16.851-10.26z"/>
    <path fill="#C2C4D2" d="m533.447 89.034-17.502 10.654h-54.031l17.503-10.654h34.245V78.382h-51.748V57.835l17.503-10.656h54.79l-17.502 10.656h-35.766v9.89h52.508z"/>
    <linearGradient id="n" gradientUnits="userSpaceOnUse" x1="491.636" y1="1448.985" x2="542.546" y2="1499.895" gradientTransform="translate(-24.425 -1406.4)">
        <stop offset="0" style="stop-color:#d9dde9"/>
        <stop offset=".39" style="stop-color:#777489"/>
        <stop offset=".98" style="stop-color:#d9dde9"/>
    </linearGradient>
    <path fill="url(#n)" d="M513.662 89.034V78.382h-51.748V57.835l17.503-10.656h54.79l-17.502 10.656h-35.766v9.89h52.508v21.309l-17.502 10.654h-54.031l17.503-10.654z"/>
    <linearGradient id="o" gradientUnits="userSpaceOnUse" x1="492.782" y1="1450.132" x2="541.799" y2="1499.149" gradientTransform="translate(-24.425 -1406.4)">
        <stop offset="0" style="stop-color:#000"/>
        <stop offset=".11" style="stop-color:#181c4e"/>
        <stop offset=".22" style="stop-color:#181818"/>
        <stop offset=".34" style="stop-color:#181c4e"/>
        <stop offset=".47" style="stop-color:#000"/>
        <stop offset=".59" style="stop-color:#181c4e"/>
        <stop offset=".72" style="stop-color:#000"/>
        <stop offset=".84" style="stop-color:#181c4e"/>
        <stop offset=".98" style="stop-color:#000"/>
    </linearGradient>
    <path fill="url(#o)" d="M513.082 88.454V78.198h-49.825V58.413l16.854-10.257h52.754l-16.854 10.257h-34.435v9.525h50.556v20.516l-16.853 10.26h-52.022l16.854-10.26z"/>
</svg>
