<?xml version="1.0" encoding="UTF-8" standalone="no"?>
<svg
   version="1.1"
   viewBox="0 0 754 299"
   id="svg712"
   sodipodi:docname="genh-w.svg"
   inkscape:version="1.1.2 (0a00cf5339, 2022-02-04)"
   xmlns:inkscape="http://www.inkscape.org/namespaces/inkscape"
   xmlns:sodipodi="http://sodipodi.sourceforge.net/DTD/sodipodi-0.dtd"
   xmlns="http://www.w3.org/2000/svg"
   xmlns:svg="http://www.w3.org/2000/svg">
  <defs
     id="defs716">
    <linearGradient
       id="a"
       gradientUnits="userSpaceOnUse"
       x1="308.14401"
       y1="1410.964"
       x2="308.14401"
       y2="1515.981"
       gradientTransform="matrix(1.1056147,0,0,1.1056147,23.28854,-1533.3745)">
      <stop
         offset="0"
         style="stop-color:#d9dde9"
         id="stop6" />
      <stop
         offset=".39"
         style="stop-color:#777489"
         id="stop8" />
      <stop
         offset=".98"
         style="stop-color:#d9dde9"
         id="stop10" />
    </linearGradient>
    <linearGradient
       id="b"
       gradientUnits="userSpaceOnUse"
       x1="220.795"
       y1="1450.026"
       x2="270.30701"
       y2="1499.537"
       gradientTransform="matrix(1.1056147,0,0,1.1056147,23.28854,-1533.3745)">
      <stop
         offset="0"
         style="stop-color:#d9dde9"
         id="stop17" />
      <stop
         offset=".39"
         style="stop-color:#777489"
         id="stop19" />
      <stop
         offset=".98"
         style="stop-color:#d9dde9"
         id="stop21" />
    </linearGradient>
    <linearGradient
       id="c"
       gradientUnits="userSpaceOnUse"
       x1="221.69"
       y1="1450.804"
       x2="269.72101"
       y2="1498.835"
       gradientTransform="matrix(1.1056147,0,0,1.1056147,23.28854,-1533.3745)">
      <stop
         offset="0"
         style="stop-color:#000"
         id="stop26" />
      <stop
         offset=".11"
         style="stop-color:#181c4e"
         id="stop28" />
      <stop
         offset=".22"
         style="stop-color:#181818"
         id="stop30" />
      <stop
         offset=".34"
         style="stop-color:#181c4e"
         id="stop32" />
      <stop
         offset=".47"
         style="stop-color:#000"
         id="stop34" />
      <stop
         offset=".59"
         style="stop-color:#181c4e"
         id="stop36" />
      <stop
         offset=".72"
         style="stop-color:#000"
         id="stop38" />
      <stop
         offset=".84"
         style="stop-color:#181c4e"
         id="stop40" />
      <stop
         offset=".98"
         style="stop-color:#000"
         id="stop42" />
    </linearGradient>
    <linearGradient
       id="d"
       gradientUnits="userSpaceOnUse"
       x1="449.509"
       y1="1461.434"
       x2="499.75101"
       y2="1514.88"
       gradientTransform="matrix(1.1056147,0,0,1.1056147,23.28854,-1533.3745)">
      <stop
         offset="0"
         style="stop-color:#d9dde9"
         id="stop47" />
      <stop
         offset=".39"
         style="stop-color:#777489"
         id="stop49" />
      <stop
         offset=".98"
         style="stop-color:#d9dde9"
         id="stop51" />
    </linearGradient>
    <linearGradient
       id="e"
       gradientUnits="userSpaceOnUse"
       x1="450.20999"
       y1="1462.1801"
       x2="498.41599"
       y2="1513.46"
       gradientTransform="matrix(1.1056147,0,0,1.1056147,23.28854,-1533.3745)">
      <stop
         offset="0"
         style="stop-color:#000"
         id="stop56" />
      <stop
         offset=".11"
         style="stop-color:#181c4e"
         id="stop58" />
      <stop
         offset=".22"
         style="stop-color:#181818"
         id="stop60" />
      <stop
         offset=".34"
         style="stop-color:#181c4e"
         id="stop62" />
      <stop
         offset=".47"
         style="stop-color:#000"
         id="stop64" />
      <stop
         offset=".59"
         style="stop-color:#181c4e"
         id="stop66" />
      <stop
         offset=".72"
         style="stop-color:#000"
         id="stop68" />
      <stop
         offset=".84"
         style="stop-color:#181c4e"
         id="stop70" />
      <stop
         offset=".98"
         style="stop-color:#000"
         id="stop72" />
    </linearGradient>
    <linearGradient
       id="f"
       gradientUnits="userSpaceOnUse"
       x1="300.5"
       y1="1450.364"
       x2="350.30801"
       y2="1500.173"
       gradientTransform="matrix(1.1056147,0,0,1.1056147,23.28854,-1533.3745)">
      <stop
         offset="0"
         style="stop-color:#d9dde9"
         id="stop77" />
      <stop
         offset=".39"
         style="stop-color:#777489"
         id="stop79" />
      <stop
         offset=".98"
         style="stop-color:#d9dde9"
         id="stop81" />
    </linearGradient>
    <linearGradient
       id="g"
       gradientUnits="userSpaceOnUse"
       x1="301.62"
       y1="1451.46"
       x2="349.578"
       y2="1499.4189"
       gradientTransform="matrix(1.1056147,0,0,1.1056147,23.28854,-1533.3745)">
      <stop
         offset="0"
         style="stop-color:#000"
         id="stop86" />
      <stop
         offset=".11"
         style="stop-color:#181c4e"
         id="stop88" />
      <stop
         offset=".22"
         style="stop-color:#181818"
         id="stop90" />
      <stop
         offset=".34"
         style="stop-color:#181c4e"
         id="stop92" />
      <stop
         offset=".47"
         style="stop-color:#000"
         id="stop94" />
      <stop
         offset=".59"
         style="stop-color:#181c4e"
         id="stop96" />
      <stop
         offset=".72"
         style="stop-color:#000"
         id="stop98" />
      <stop
         offset=".84"
         style="stop-color:#181c4e"
         id="stop100" />
      <stop
         offset=".98"
         style="stop-color:#000"
         id="stop102" />
    </linearGradient>
    <linearGradient
       id="h"
       gradientUnits="userSpaceOnUse"
       x1="141.228"
       y1="1450.637"
       x2="190.761"
       y2="1500.1689"
       gradientTransform="matrix(1.1056147,0,0,1.1056147,23.28854,-1533.3745)">
      <stop
         offset="0"
         style="stop-color:#d9dde9"
         id="stop107" />
      <stop
         offset=".39"
         style="stop-color:#777489"
         id="stop109" />
      <stop
         offset=".98"
         style="stop-color:#d9dde9"
         id="stop111" />
    </linearGradient>
    <linearGradient
       id="i"
       gradientUnits="userSpaceOnUse"
       x1="142.08099"
       y1="1451.468"
       x2="190.20599"
       y2="1499.594"
       gradientTransform="matrix(1.1056147,0,0,1.1056147,23.28854,-1533.3745)">
      <stop
         offset="0"
         style="stop-color:#000"
         id="stop116" />
      <stop
         offset=".11"
         style="stop-color:#181c4e"
         id="stop118" />
      <stop
         offset=".22"
         style="stop-color:#181818"
         id="stop120" />
      <stop
         offset=".34"
         style="stop-color:#181c4e"
         id="stop122" />
      <stop
         offset=".47"
         style="stop-color:#000"
         id="stop124" />
      <stop
         offset=".59"
         style="stop-color:#181c4e"
         id="stop126" />
      <stop
         offset=".72"
         style="stop-color:#000"
         id="stop128" />
      <stop
         offset=".84"
         style="stop-color:#181c4e"
         id="stop130" />
      <stop
         offset=".98"
         style="stop-color:#000"
         id="stop132" />
    </linearGradient>
    <linearGradient
       id="j"
       gradientUnits="userSpaceOnUse"
       x1="64.991997"
       y1="1454.767"
       x2="113.868"
       y2="1503.642"
       gradientTransform="matrix(1.1056147,0,0,1.1056147,23.28854,-1533.3745)">
      <stop
         offset="0"
         style="stop-color:#d9dde9"
         id="stop137" />
      <stop
         offset=".39"
         style="stop-color:#777489"
         id="stop139" />
      <stop
         offset=".98"
         style="stop-color:#d9dde9"
         id="stop141" />
    </linearGradient>
    <linearGradient
       id="k"
       gradientUnits="userSpaceOnUse"
       x1="65.686996"
       y1="1455.464"
       x2="113.198"
       y2="1502.976"
       gradientTransform="matrix(1.1056147,0,0,1.1056147,23.28854,-1533.3745)">
      <stop
         offset="0"
         style="stop-color:#000"
         id="stop146" />
      <stop
         offset=".11"
         style="stop-color:#181c4e"
         id="stop148" />
      <stop
         offset=".22"
         style="stop-color:#181818"
         id="stop150" />
      <stop
         offset=".34"
         style="stop-color:#181c4e"
         id="stop152" />
      <stop
         offset=".47"
         style="stop-color:#000"
         id="stop154" />
      <stop
         offset=".59"
         style="stop-color:#181c4e"
         id="stop156" />
      <stop
         offset=".72"
         style="stop-color:#000"
         id="stop158" />
      <stop
         offset=".84"
         style="stop-color:#181c4e"
         id="stop160" />
      <stop
         offset=".98"
         style="stop-color:#000"
         id="stop162" />
    </linearGradient>
    <linearGradient
       id="l"
       gradientUnits="userSpaceOnUse"
       x1="350.52301"
       y1="-651.40002"
       x2="422.81601"
       y2="-651.40002"
       gradientTransform="matrix(1.1056147,0,0,-1.1056147,50.331876,-617.44573)">
      <stop
         offset="0"
         style="stop-color:#d9dde9"
         id="stop169" />
      <stop
         offset=".39"
         style="stop-color:#777489"
         id="stop171" />
      <stop
         offset=".98"
         style="stop-color:#d9dde9"
         id="stop173" />
    </linearGradient>
    <linearGradient
       id="m"
       gradientUnits="userSpaceOnUse"
       x1="381.42599"
       y1="1450.132"
       x2="430.44299"
       y2="1499.149"
       gradientTransform="matrix(1.1056147,0,0,1.1056147,23.28854,-1533.3745)">
      <stop
         offset="0"
         style="stop-color:#000"
         id="stop178" />
      <stop
         offset=".11"
         style="stop-color:#181c4e"
         id="stop180" />
      <stop
         offset=".22"
         style="stop-color:#181818"
         id="stop182" />
      <stop
         offset=".34"
         style="stop-color:#181c4e"
         id="stop184" />
      <stop
         offset=".47"
         style="stop-color:#000"
         id="stop186" />
      <stop
         offset=".59"
         style="stop-color:#181c4e"
         id="stop188" />
      <stop
         offset=".72"
         style="stop-color:#000"
         id="stop190" />
      <stop
         offset=".84"
         style="stop-color:#181c4e"
         id="stop192" />
      <stop
         offset=".98"
         style="stop-color:#000"
         id="stop194" />
    </linearGradient>
    <linearGradient
       id="n"
       gradientUnits="userSpaceOnUse"
       x1="491.63599"
       y1="1448.985"
       x2="542.54602"
       y2="1499.895"
       gradientTransform="matrix(1.1056147,0,0,1.1056147,23.28854,-1533.3745)">
      <stop
         offset="0"
         style="stop-color:#d9dde9"
         id="stop201" />
      <stop
         offset=".39"
         style="stop-color:#777489"
         id="stop203" />
      <stop
         offset=".98"
         style="stop-color:#d9dde9"
         id="stop205" />
    </linearGradient>
    <linearGradient
       id="o"
       gradientUnits="userSpaceOnUse"
       x1="492.78201"
       y1="1450.132"
       x2="541.79901"
       y2="1499.149"
       gradientTransform="matrix(1.1056147,0,0,1.1056147,23.28854,-1533.3745)">
      <stop
         offset="0"
         style="stop-color:#000"
         id="stop210" />
      <stop
         offset=".11"
         style="stop-color:#181c4e"
         id="stop212" />
      <stop
         offset=".22"
         style="stop-color:#181818"
         id="stop214" />
      <stop
         offset=".34"
         style="stop-color:#181c4e"
         id="stop216" />
      <stop
         offset=".47"
         style="stop-color:#000"
         id="stop218" />
      <stop
         offset=".59"
         style="stop-color:#181c4e"
         id="stop220" />
      <stop
         offset=".72"
         style="stop-color:#000"
         id="stop222" />
      <stop
         offset=".84"
         style="stop-color:#181c4e"
         id="stop224" />
      <stop
         offset=".98"
         style="stop-color:#000"
         id="stop226" />
    </linearGradient>
  </defs>
  <sodipodi:namedview
     id="namedview714"
     pagecolor="#ffffff"
     bordercolor="#666666"
     borderopacity="1.0"
     inkscape:pageshadow="2"
     inkscape:pageopacity="0.0"
     inkscape:pagecheckerboard="0"
     showgrid="false"
     inkscape:zoom="1.7078257"
     inkscape:cx="324.38908"
     inkscape:cy="56.797365"
     inkscape:window-width="1920"
     inkscape:window-height="1011"
     inkscape:window-x="1920"
     inkscape:window-y="32"
     inkscape:window-maximized="1"
     inkscape:current-layer="svg712" />
  <g
     fill="#ffffff"
     id="g508"
     style="fill:#ffffff">
    <path
       d="   M 648.98 155.34   C 654.52 159.11 657.20 163.95 657.23 170.72   Q 657.27 184.02 657.25 197.32   C 657.22 210.44 649.34 216.21 636.75 215.43   Q 636.26 215.40 636.57 215.78   C 640.91 220.99 642.74 227.41 643.95 233.98   C 648.26 257.50 631.51 277.96 609.66 283.46   Q 604.05 284.87 593.83 284.93   Q 569.14 285.08 544.44 284.98   Q 544.01 284.98 539.11 284.42   C 536.34 284.11 533.73 284.98 531.30 284.99   C 520.15 285.04 506.73 286.00 497.06 283.43   Q 487.35 280.85 479.19 274.53   A 0.37 0.37 0.0 0 0 478.62 274.69   C 475.92 281.63 469.44 284.95 462.25 284.97   C 449.98 285.01 437.36 285.59 425.15 284.46   C 422.11 284.18 418.96 285.00 416.28 285.00   Q 395.51 284.99 374.75 285.01   Q 369.33 285.02 356.81 281.41   Q 344.58 277.88 333.95 268.59   Q 333.47 268.17 333.68 268.78   L 333.78 269.09   Q 333.86 269.33 333.84 269.59   Q 332.95 279.76 325.13 283.26   Q 321.48 284.89 312.01 284.96   Q 296.51 285.07 281.00 284.98   Q 279.75 284.97 276.11 283.99   C 270.35 282.44 266.48 278.82 265.16 272.83   A 0.75 0.74 -6.3 0 0 264.43 272.25   L 259.57 272.25   A 0.74 0.74 0.0 0 0 258.85 272.83   C 257.14 280.50 250.25 284.96 242.48 284.98   C 229.74 285.00 215.73 286.02 203.16 284.42   C 200.38 284.07 197.72 284.98 195.27 284.99   Q 169.86 285.10 162.75 284.94   C 141.48 284.46 145.65 261.35 145.76 247.71   A 0.53 0.53 0.0 0 0 144.94 247.26   L 144.40 247.61   A 0.89 0.89 0.0 0 0 144.00 248.37   C 144.08 261.13 146.74 278.01 135.34 283.16   Q 131.52 284.89 121.32 284.98   Q 109.95 285.07 98.59 284.98   C 80.53 284.83 76.07 280.10 76.03 262.49   Q 75.90 195.77 76.03 170.50   Q 76.07 162.92 81.64 157.54   A 0.38 0.38 0.0 0 0 81.56 156.94   Q 66.20 148.29 50.79 139.65   C 41.17 134.26 37.17 132.27 37.07 121.22   Q 36.89 101.99 36.98 82.75   Q 37.02 73.55 44.91 69.15   Q 63.52 58.79 82.07 48.33   C 85.65 46.30 89.57 45.74 94.09 45.74   Q 190.01 45.77 285.93 45.73   A 0.87 0.86 15.0 0 0 286.68 45.30   Q 295.13 30.56 303.82 16.08   C 306.40 11.79 311.72 9.24 316.27 9.24   Q 364.46 9.26 412.64 9.24   C 416.97 9.24 422.21 12.35 424.43 16.07   Q 433.30 30.96 441.95 45.98   A 0.11 0.10 -38.1 0 0 442.12 46.00   L 442.31 45.81   A 0.20 0.12 -58.3 0 1 442.43 45.75   Q 539.46 45.75 636.50 45.75   C 639.86 45.75 644.04 47.60 647.46 49.51   Q 665.16 59.44 682.82 69.42   Q 689.91 73.43 689.95 81.50   Q 690.05 102.62 690.02 123.74   Q 690.01 131.87 683.13 135.82   Q 666.65 145.30 650.04 154.52   Q 649.56 154.79 649.04 154.94   Q 648.59 155.08 648.98 155.34   Z   M 434.98 57.52   L 414.19 21.93   A 0.87 0.86 -15.0 0 0 413.44 21.50   L 314.78 21.50   A 0.90 0.89 -74.7 0 0 314.01 21.94   L 293.44 57.25   A 1.00 1.00 0.0 0 1 292.58 57.74   Q 192.34 57.77 92.16 57.73   Q 90.04 57.73 88.17 58.75   Q 68.90 69.22 49.76 80.17   A 1.01 1.00 -15.0 0 0 49.25 81.04   L 49.25 124.67   A 0.83 0.83 0.0 0 0 49.67 125.39   Q 68.69 136.08 87.79 146.76   Q 89.56 147.75 91.60 147.75   Q 363.61 147.75 635.63 147.75   Q 637.70 147.75 639.50 146.76   Q 658.74 136.17 677.82 125.22   A 0.85 0.84 75.7 0 0 678.25 124.48   L 678.25 81.43   A 1.61 1.61 0.0 0 0 677.42 80.02   L 638.21 58.01   A 2.10 2.07 -30.2 0 0 637.20 57.75   L 435.38 57.75   A 0.46 0.45 -14.4 0 1 434.98 57.52   Z   M 129.49 206.00   A 0.49 0.49 0.0 0 1 129.00 205.51   L 129.00 169.24   A 0.49 0.49 0.0 0 0 128.51 168.75   L 91.49 168.75   A 0.49 0.49 0.0 0 0 91.00 169.24   L 91.00 269.51   A 0.49 0.49 0.0 0 0 91.49 270.00   L 128.51 270.00   A 0.49 0.49 0.0 0 0 129.00 269.51   L 129.00 232.99   A 0.49 0.49 0.0 0 1 129.49 232.50   L 160.26 232.50   A 0.49 0.49 0.0 0 1 160.75 232.99   L 160.75 269.51   A 0.49 0.49 0.0 0 0 161.24 270.00   L 198.26 270.00   A 0.49 0.49 0.0 0 0 198.75 269.51   L 198.75 169.24   A 0.49 0.49 0.0 0 0 198.26 168.75   L 161.24 168.75   A 0.49 0.49 0.0 0 0 160.75 169.24   L 160.75 205.51   A 0.49 0.49 0.0 0 1 160.26 206.00   L 129.49 206.00   Z   M 275.97 257.25   A 0.44 0.44 0.0 0 1 276.39 257.58   L 279.48 269.67   A 0.44 0.44 0.0 0 0 279.90 270.00   L 318.53 270.00   A 0.44 0.44 0.0 0 0 318.96 269.45   L 292.61 169.08   A 0.44 0.44 0.0 0 0 292.18 168.75   L 231.82 168.75   A 0.44 0.44 0.0 0 0 231.39 169.08   L 205.02 269.45   A 0.44 0.44 0.0 0 0 205.45 270.00   L 244.10 270.00   A 0.44 0.44 0.0 0 0 244.53 269.67   L 247.64 257.58   A 0.44 0.44 0.0 0 1 248.07 257.25   L 275.97 257.25   Z   M 328.32 202.18   C 315.24 235.67 343.31 269.46 377.01 269.99   Q 387.52 270.15 419.98 269.92   A 0.52 0.52 0.0 0 0 420.50 269.40   L 420.50 238.62   A 0.38 0.38 0.0 0 0 420.12 238.24   Q 400.52 238.28 381.00 238.29   C 352.96 238.30 353.15 200.53 380.76 200.51   Q 400.35 200.51 419.99 200.48   A 0.51 0.51 0.0 0 0 420.50 199.97   L 420.50 169.25   A 0.51 0.51 0.0 0 0 419.99 168.74   Q 401.22 168.77 382.42 168.74   Q 372.32 168.72 366.65 170.03   C 349.72 173.94 334.66 185.97 328.32 202.18   Z   M 465.14 240.38   Q 474.66 249.74 484.10 259.14   C 491.55 266.56 499.74 270.02 510.42 270.03   Q 522.15 270.04 534.00 269.89   A 0.50 0.50 0.0 0 0 534.50 269.39   L 534.50 238.86   A 0.50 0.50 0.0 0 0 534.00 238.36   C 530.09 238.33 515.29 239.10 512.81 236.66   Q 505.43 229.38 498.04 221.85   A 0.67 0.67 0.0 0 1 497.97 220.99   L 534.20 169.18   A 0.27 0.27 0.0 0 0 533.98 168.75   L 488.31 168.75   A 1.00 0.98 -71.6 0 0 487.51 169.16   L 465.06 201.04   A 0.17 0.17 0.0 0 1 464.75 200.94   L 464.75 169.25   A 0.50 0.50 0.0 0 0 464.25 168.75   L 427.00 168.75   A 0.50 0.50 0.0 0 0 426.50 169.25   L 426.50 269.50   A 0.50 0.50 0.0 0 0 427.00 270.00   L 464.25 270.00   A 0.50 0.50 0.0 0 0 464.75 269.50   L 464.75 240.55   Q 464.75 240.00 465.14 240.38   Z   M 575.97 170.12   C 559.65 175.37 550.11 191.92 554.62 208.81   C 557.74 220.46 571.07 227.37 580.18 234.09   C 582.35 235.69 580.28 238.29 577.98 238.28   Q 559.71 238.16 541.27 238.34   A 0.52 0.52 0.0 0 0 540.75 238.86   L 540.75 269.63   A 0.37 0.37 0.0 0 0 541.12 270.00   Q 567.67 270.01 594.17 269.99   C 605.72 269.99 614.33 267.75 622.03 259.77   C 633.52 247.86 632.07 228.42 618.68 218.31   Q 609.47 211.35 600.14 204.51   A 1.24 1.23 13.6 0 1 599.65 203.71   C 599.23 201.07 601.30 200.51 603.54 200.51   Q 622.62 200.51 641.75 200.47   A 0.50 0.50 0.0 0 0 642.25 199.97   L 642.25 169.29   A 0.51 0.51 0.0 0 0 641.74 168.78   Q 614.77 168.72 587.81 168.76   Q 580.15 168.78 575.97 170.12   Z"
       id="path504"
       style="fill:#ffffff" />
    <path
       d="   M 261.78 204.01   Q 261.98 203.24 262.19 204.01   L 269.43 231.24   A 0.41 0.40 -7.5 0 1 269.03 231.75   L 254.97 231.75   A 0.41 0.41 0.0 0 1 254.57 231.23   L 261.78 204.01   Z"
       id="path506"
       style="fill:#ffffff" />
  </g>
  <path
     d="m 639.64774,56.77913 -0.25319,-0.14594 H 435.42633 l -21.031,-36.176819 H 313.84299 L 292.80645,56.63319 H 88.001277 L 49.187566,78.61723 v 48.26451 l 38.563841,21.84584 0.25208,0.14042 H 639.39235 l 38.53067,-21.82595 0.28082,-0.16031 V 78.61945 Z"
     id="path2-3"
     style="stroke-width:1.10562" />
  <path
     fill="#ced1dd"
     d="m 50.293181,79.26181 v 46.97646 l 37.999977,21.52411 H 639.09936 l 37.99887,-21.52411 V 79.26402 L 639.09936,57.7377 H 434.7895 L 413.75739,21.561986 H 314.47761 L 293.44329,57.7377 H 88.293158 Z"
     id="path4-6"
     style="stroke-width:1.10562" />
  <path
     fill="url(#a)"
     d="M 431.42511,62.78594 410.39301,26.608011 H 317.56559 L 296.53127,62.78704 H 90.954372 l -35.61406,19.98178 v 39.96576 l 35.61406,19.98067 H 637.0009 l 35.61295,-19.98067 V 82.76882 L 637.0009,62.78815 Z"
     id="path13"
     style="fill:url(#a);stroke-width:1.10562" />
  <path
     fill="#202066"
     d="M 392.43671,36.453511 384.55258,60.4741 h 3.89286 l 7.90073,-23.194696 c 0.28745,-1.060284 1.15315,-1.834214 2.17032,-1.834214 1.02932,0 1.89392,0.77393 2.18249,1.834214 l 6.67901,19.620236 h -10.48012 v 3.57335 h 15.59469 l -7.88524,-24.020586 a 6.3329611,6.3329611 0 0 0 -12.17061,0.0011 z m 4.61927,14.916953 1.37979,-4.097408 1.43841,4.097408 z m -0.57161,-11.76153 -7.06156,20.865166 h 4.55181 l 2.92214,-8.648123 v 4.087453 h 9.17107 l -5.44625,-16.304496 c -0.27641,-0.907709 -1.10119,-3.518065 -2.07082,-3.518065 -0.97404,0 -1.79883,2.60925 -2.06639,3.518065 z m -24.93051,-3.189697 h 13.64771 V 32.516416 H 371.2277 c -3.76793,0 -6.82384,3.063659 -6.82384,6.8327 v 14.302231 a 6.8238541,6.8238541 0 0 0 6.82384,6.823853 h 13.97387 V 42.265727 h -11.0473 v 3.575558 h 7.14337 V 56.56796 h -9.74378 a 3.2427679,3.2427679 0 0 1 -3.24608,-3.248297 V 39.665322 a 3.2427679,3.2427679 0 0 1 3.24608,-3.246085 z m 2.5993,10.399411 v 3.903926 h 2.27204 v 0.975152 h -2.27204 a 0.97736341,0.97736341 0 0 1 -0.97626,-0.975152 v -8.455742 c 0,-0.537328 0.43783,-0.976257 0.97626,-0.976257 h 11.0473 v -3.896187 h -12.67145 a 3.2527185,3.2527185 0 0 0 -3.25603,3.248297 v 11.702932 a 3.2527185,3.2527185 0 0 0 3.25603,3.248293 h 7.80011 V 46.817543 Z M 349.13199,36.419237 h 13.64772 v -3.902821 h -13.97608 c -3.76793,0 -6.82164,3.063659 -6.82164,6.8327 v 14.143022 c 0,3.767932 3.05371,6.831592 6.82164,6.831592 h 13.97608 v -3.90392 h -13.64772 a 3.248296,3.248296 0 0 1 -3.24829,-3.2483 V 39.667532 a 3.2505072,3.2505072 0 0 1 3.24829,-3.248295 z m 10.71894,9.423154 v -3.575559 h -9.09589 c 0,-0.537328 0.43672,-0.976257 0.97625,-0.976257 h 11.04731 v -3.896187 h -12.67145 a 3.248296,3.248296 0 0 0 -3.24608,3.248297 v 5.199706 z m 0,1.303519 v 3.575558 h -9.09589 c 0,0.536224 0.43672,0.975152 0.97625,0.975152 h 11.04731 v 3.89398 h -12.67145 a 3.2460848,3.2460848 0 0 1 -3.24608,-3.2483 v -5.199706 z m -33.39288,4.872444 h -8.19481 v 3.574456 h 12.66923 a 4.3892905,4.3892905 0 0 0 -0.16032,-8.776373 h -4.92993 c -1.99342,-0.758452 -3.68611,-2.73529 -3.68611,-5.040498 0,-2.961941 2.72755,-5.360019 5.68838,-5.360019 h 12.19162 v -3.900609 h -12.6803 c -5.0206,0 -9.09369,4.079718 -9.09369,9.102525 0,5.030547 4.39925,9.103632 9.42095,9.103632 v -0.04202 l 0.0254,0.04202 h 2.90223 a 0.6478905,0.6478905 0 0 1 0,1.295781 h -4.15268 z m 5.3755,-11.048408 h 8.20366 v -3.575558 h -12.67919 a 4.3870792,4.3870792 0 0 0 -4.22124,4.384868 4.3892905,4.3892905 0 0 0 4.39261,4.392608 h 4.92994 c 1.99342,0.765086 3.67727,2.734185 3.67727,5.039392 0,2.963047 -2.72534,5.361124 -5.68949,5.361124 h -12.18167 v 3.90282 h 12.66925 a 9.102526,9.102526 0 0 0 9.10363,-9.101419 c 0,-5.022807 -4.39925,-9.103631 -9.42316,-9.103631 V 42.321 l -0.032,-0.04975 h -2.89561 a 0.6478905,0.6478905 0 0 1 0,-1.295781 z"
     id="path15"
     style="stroke-width:1.10562" />
  <path
     fill="url(#b)"
     d="m 338.49266,74.00461 v 57.68324 H 319.06923 V 110.37933 L 281.84096,89.19354 v 42.49431 H 262.41642 V 74.00461 h 20.23386 l 36.41895,20.71922 V 74.00461 Z"
     id="path24-7"
     style="fill:url(#b);stroke-width:1.10562" />
  <path
     fill="url(#c)"
     d="m 337.41911,74.80397 v 55.82581 H 318.54406 V 110.00563 L 282.36502,89.50201 v 41.12777 H 263.48887 V 74.80397 h 19.66225 l 35.39294,20.04922 V 74.80397 Z"
     id="path45"
     style="fill:url(#c);stroke-width:1.10562" />
  <path
     fill="url(#d)"
     d="M 529.30186,73.72378 H 549.4926 V 131.7785 H 529.30186 Z"
     id="path54-5"
     style="fill:url(#d);stroke-width:1.10562" />
  <path
     fill="url(#e)"
     d="m 529.81597,74.80397 h 19.16252 v 55.89877 h -19.16252 z"
     id="path75"
     style="fill:url(#e);stroke-width:1.10562" />
  <path
     fill="url(#f)"
     d="M 405.10816,85.33384 H 371.9353 v 11.61117 h 39.80655 l -19.07407,11.61116 H 371.9353 v 11.61117 h 53.90535 L 406.76659,131.7785 H 352.03203 V 86.99448 l 19.90327,-13.2707 h 52.24693 z"
     id="path84-3"
     style="fill:url(#f);stroke-width:1.10562" />
  <path
     fill="url(#g)"
     d="m 404.50782,85.98173 h -31.94121 v 11.17998 h 38.32944 l -18.36647,11.17997 h -19.96297 v 11.17777 h 51.90308 l -18.36316,11.18218 H 353.40077 V 87.58045 l 19.16584,-12.77648 h 50.30768 z"
     id="path105"
     style="fill:url(#g);stroke-width:1.10562" />
  <path
     fill="url(#h)"
     d="m 228.73829,85.55275 h -32.98712 v 11.54152 h 39.58433 l -18.96793,11.54814 h -20.6164 v 11.54483 h 53.60462 l -18.96903,11.54594 H 175.95735 V 87.20012 l 19.79382,-13.19551 h 51.95505 z"
     id="path114-5"
     style="fill:url(#h);stroke-width:1.10562" />
  <path
     fill="url(#i)"
     d="m 228.27947,86.04033 h -32.04956 v 11.22088 h 38.46101 l -18.43059,11.21867 h -20.03042 v 11.21646 h 52.08329 l -18.42838,11.21647 H 176.99774 V 87.64237 l 19.23217,-12.8185 h 50.48015 z"
     id="path135"
     style="fill:url(#i);stroke-width:1.10562" />
  <path
     fill="url(#j)"
     d="M 82.977364,87.20454 102.77671,74.00461 h 60.22505 l -18.97567,11.55257 h -41.24938 v 34.64664 h 37.12434 v -14.02471 h -23.09961 l 18.97455,-11.54815 h 23.92661 v 23.92329 l -19.80155,13.20103 H 82.977364 Z"
     id="path144-6"
     style="fill:url(#j);stroke-width:1.10562" />
  <path
     fill="url(#k)"
     d="M 84.084084,87.63352 103.33062,74.80397 h 58.54342 l -18.44609,11.22752 h -40.09733 v 33.68255 h 36.08727 v -13.63445 h -22.45393 l 18.44497,-11.2264 h 23.25772 v 23.2566 l -19.24876,12.83066 H 84.084084 Z"
     id="path165"
     style="fill:url(#k);stroke-width:1.10562" />
  <path
     fill="#c2c4d2"
     d="m 516.961,119.99928 -19.35047,11.77922 h -59.73526 l 19.35047,-11.77922 h 37.86067 v -11.777 H 437.87527 V 85.50521 l 19.35047,-11.78143 h 60.57773 L 498.45301,85.50521 H 458.90848 V 96.43974 H 516.961 Z"
     id="path167"
     style="stroke-width:1.10562" />
  <path
     fill="url(#l)"
     d="m 495.08641,119.99928 v -11.777 H 437.87527 V 85.50521 l 19.35047,-11.78143 h 60.57773 L 498.45301,85.50521 H 458.90848 V 96.43974 H 516.961 v 23.55954 l -19.35047,11.77922 h -59.73526 l 19.35047,-11.77922 z"
     id="path176-2"
     style="fill:url(#l);stroke-width:1.10562" />
  <path
     fill="url(#m)"
     d="M 494.44515,119.35803 V 108.01884 H 439.36121 V 86.14426 l 18.63072,-11.34029 h 58.32559 l -18.63071,11.34029 h -38.07516 v 10.53098 h 55.89657 v 22.68279 l -18.63182,11.3436 h -57.51519 l 18.63072,-11.3436 z"
     id="path197"
     style="fill:url(#m);stroke-width:1.10562" />
  <path
     fill="#c2c4d2"
     d="M 640.08003,119.99928 620.72957,131.7785 H 560.9921 l 19.35157,-11.77922 h 37.86178 v -11.777 H 560.9921 V 85.50521 l 19.35157,-11.78143 h 60.57663 l -19.35046,11.78143 h -39.54342 v 10.93453 h 58.05361 z"
     id="path199"
     style="stroke-width:1.10562" />
  <path
     fill="url(#n)"
     d="m 618.20545,119.99928 v -11.777 H 560.9921 V 85.50521 l 19.35157,-11.78143 h 60.57663 l -19.35046,11.78143 h -39.54342 v 10.93453 h 58.05361 v 23.55954 L 620.72957,131.7785 H 560.9921 l 19.35157,-11.77922 z"
     id="path208-9"
     style="fill:url(#n);stroke-width:1.10562" />
  <path
     fill="url(#o)"
     d="M 617.5642,119.35803 V 108.01884 H 562.47694 V 86.14426 l 18.63403,-11.34029 h 58.3256 L 620.80254,86.14426 H 582.7307 v 10.53098 h 55.89545 v 22.68279 l -18.63292,11.3436 h -57.51629 l 18.63403,-11.3436 z"
     id="path229"
     style="fill:url(#o);stroke-width:1.10562" />
  <g
     fill="#0b0e25"
     id="g566">
    <path
       d="   M 129.49 206.00   L 160.26 206.00   A 0.49 0.49 0.0 0 0 160.75 205.51   L 160.75 169.24   A 0.49 0.49 0.0 0 1 161.24 168.75   L 198.26 168.75   A 0.49 0.49 0.0 0 1 198.75 169.24   L 198.75 269.51   A 0.49 0.49 0.0 0 1 198.26 270.00   L 161.24 270.00   A 0.49 0.49 0.0 0 1 160.75 269.51   L 160.75 232.99   A 0.49 0.49 0.0 0 0 160.26 232.50   L 129.49 232.50   A 0.49 0.49 0.0 0 0 129.00 232.99   L 129.00 269.51   A 0.49 0.49 0.0 0 1 128.51 270.00   L 91.49 270.00   A 0.49 0.49 0.0 0 1 91.00 269.51   L 91.00 169.24   A 0.49 0.49 0.0 0 1 91.49 168.75   L 128.51 168.75   A 0.49 0.49 0.0 0 1 129.00 169.24   L 129.00 205.51   A 0.49 0.49 0.0 0 0 129.49 206.00   Z"
       id="path556" />
    <path
       d="   M 275.97 257.25   L 248.07 257.25   A 0.44 0.44 0.0 0 0 247.64 257.58   L 244.53 269.67   A 0.44 0.44 0.0 0 1 244.10 270.00   L 205.45 270.00   A 0.44 0.44 0.0 0 1 205.02 269.45   L 231.39 169.08   A 0.44 0.44 0.0 0 1 231.82 168.75   L 292.18 168.75   A 0.44 0.44 0.0 0 1 292.61 169.08   L 318.96 269.45   A 0.44 0.44 0.0 0 1 318.53 270.00   L 279.90 270.00   A 0.44 0.44 0.0 0 1 279.48 269.67   L 276.39 257.58   A 0.44 0.44 0.0 0 0 275.97 257.25   Z   M 261.78 204.01   L 254.57 231.23   A 0.41 0.41 0.0 0 0 254.97 231.75   L 269.03 231.75   A 0.41 0.40 -7.5 0 0 269.43 231.24   L 262.19 204.01   Q 261.98 203.24 261.78 204.01   Z"
       id="path558" />
    <path
       d="   M 377.01 269.99   C 343.31 269.46 315.24 235.67 328.32 202.18   C 334.66 185.97 349.72 173.94 366.65 170.03   Q 372.32 168.72 382.42 168.74   Q 401.22 168.77 419.99 168.74   A 0.51 0.51 0.0 0 1 420.50 169.25   L 420.50 199.97   A 0.51 0.51 0.0 0 1 419.99 200.48   Q 400.35 200.51 380.76 200.51   C 353.15 200.53 352.96 238.30 381.00 238.29   Q 400.52 238.28 420.12 238.24   A 0.38 0.38 0.0 0 1 420.50 238.62   L 420.50 269.40   A 0.52 0.52 0.0 0 1 419.98 269.92   Q 387.52 270.15 377.01 269.99   Z"
       id="path560" />
    <path
       d="   M 464.75 240.55   L 464.75 269.50   A 0.50 0.50 0.0 0 1 464.25 270.00   L 427.00 270.00   A 0.50 0.50 0.0 0 1 426.50 269.50   L 426.50 169.25   A 0.50 0.50 0.0 0 1 427.00 168.75   L 464.25 168.75   A 0.50 0.50 0.0 0 1 464.75 169.25   L 464.75 200.94   A 0.17 0.17 0.0 0 0 465.06 201.04   L 487.51 169.16   A 1.00 0.98 -71.6 0 1 488.31 168.75   L 533.98 168.75   A 0.27 0.27 0.0 0 1 534.20 169.18   L 497.97 220.99   A 0.67 0.67 0.0 0 0 498.04 221.85   Q 505.43 229.38 512.81 236.66   C 515.29 239.10 530.09 238.33 534.00 238.36   A 0.50 0.50 0.0 0 1 534.50 238.86   L 534.50 269.39   A 0.50 0.50 0.0 0 1 534.00 269.89   Q 522.15 270.04 510.42 270.03   C 499.74 270.02 491.55 266.56 484.10 259.14   Q 474.66 249.74 465.14 240.38   Q 464.75 240.00 464.75 240.55   Z"
       id="path562" />
    <path
       d="   M 554.62 208.81   C 550.11 191.92 559.65 175.37 575.97 170.12   Q 580.15 168.78 587.81 168.76   Q 614.77 168.72 641.74 168.78   A 0.51 0.51 0.0 0 1 642.25 169.29   L 642.25 199.97   A 0.50 0.50 0.0 0 1 641.75 200.47   Q 622.62 200.51 603.54 200.51   C 601.30 200.51 599.23 201.07 599.65 203.71   A 1.24 1.23 13.6 0 0 600.14 204.51   Q 609.47 211.35 618.68 218.31   C 632.07 228.42 633.52 247.86 622.03 259.77   C 614.33 267.75 605.72 269.99 594.17 269.99   Q 567.67 270.01 541.12 270.00   A 0.37 0.37 0.0 0 1 540.75 269.63   L 540.75 238.86   A 0.52 0.52 0.0 0 1 541.27 238.34   Q 559.71 238.16 577.98 238.28   C 580.28 238.29 582.35 235.69 580.18 234.09   C 571.07 227.37 557.74 220.46 554.62 208.81   Z"
       id="path564" />
  </g>
</svg>
