<svg height="152.3" viewBox="0 0 984.008 121.84" width="1230.011" xmlns="http://www.w3.org/2000/svg">
    <g fill="red">
        <path d="M0 58.166q0-23.473 16.428-40.454T56.828.73q27.827 0 43.082 18.646L81.303 38.688q-.168-.333-.67-.832-.504-.666-2.348-2.164-1.676-1.499-4.023-2.664-2.18-1.165-6.37-1.998-4.023-.999-8.717-.999-14.081 0-21.457 8.324-7.209 8.324-7.209 19.811 0 12.82 6.035 21.476Q42.747 88.3 56.828 88.3q9.723 0 16.428-4.994 6.873-5.161 6.873-10.988H47.776v-24.14h65.88q.838 5.328.838 11.321 0 23.973-16.93 40.455-16.764 16.315-40.736 16.315-13.746 0-24.81-4.995-11.064-4.994-17.937-13.318-6.873-8.324-10.56-18.48Q0 69.155 0 58.167zM155.711 58.39h19.993V40.558q-.168-4.5-2.857-7.665-2.688-3.333-7.056-3.333-4.536 0-7.224 3.333-2.688 3.166-2.856 7.665zm-18.144-46.828Q148.15.563 165.79.563t28.057 10.999q10.584 10.999 10.584 28.996v74.825h-28.728V83.72H155.71v31.663h-28.729V40.558q0-17.997 10.585-28.996zM274.9 26.79h1.997q.831-11.78 8.315-18.75Q292.696.906 304.67.906q15.966 0 23.284 9.623 7.317 9.624 7.317 23.727v80.97h-28.605V40.228q0-11.117-8.315-11.117-3.493 0-5.821 2.655-2.329 2.655-2.329 8.462v74.996h-28.605V40.23q0-5.807-2.328-8.462-2.328-2.655-5.821-2.655-8.315 0-8.315 11.117v74.996h-28.606V34.256q0-14.103 7.318-23.727Q231.162.906 247.127.906q11.975 0 19.458 7.134 7.484 6.97 8.316 18.75zM409.072 115.403h-34.984q-14.464 0-20.855-8.507-6.391-8.506-6.391-28.855V1.316h61.557v25.353h-32.124v18.347h30.442v25.352h-30.442v6.339q0 7.505 1.85 10.508 2.018 2.835 8.578 2.835h22.369zM504.75 26.255h1.997q.832-11.758 8.32-18.713 7.489-7.121 19.47-7.121 15.975 0 23.297 9.605 7.322 9.605 7.322 23.682v80.815h-28.622V39.669q0-11.095-8.32-11.095-3.495 0-5.825 2.65t-2.33 8.445v74.854h-28.621V39.669q0-5.796-2.33-8.446-2.33-2.65-5.824-2.65-8.32 0-8.32 11.096v74.854H446.34V33.708q0-14.077 7.322-23.682Q460.985.421 476.96.421q11.982 0 19.47 7.121 7.488 6.955 8.32 18.713zM605.714 58.213h19.902V40.478q-.168-4.475-2.844-7.624-2.675-3.315-7.024-3.315-4.515 0-7.191 3.315-2.676 3.149-2.843 7.624zM587.65 11.638Q598.188.698 615.748.698q17.56 0 27.93 10.94 10.536 10.94 10.536 28.84v74.42h-28.598V83.408h-19.902v31.492h-28.6v-74.42q0-17.902 10.537-28.841zM668.96 115.98V88.25q13.903 0 16.276-10.357l11.19-46.606q3.391-18.208 17.124-25.558Q723.892.049 740.17.049v28.565q-6.274 0-10.682 3.174-4.408 3.007-5.595 8.854L713.55 87.248q-4.747 21.215-29.162 27.061-1.865.501-5.764.836-3.73.5-6.612.668-2.883.334-3.052.167zM767.568 26.911h-16.649V1.687h62.432v25.224h-16.648v88.283h-29.135zM883.443 115.633h-34.452q-14.245 0-20.539-8.493-6.294-8.494-6.294-28.811V1.72h60.623v25.314h-31.637v18.32h29.98v25.313h-29.98v6.328q0 7.494 1.822 10.492 1.988 2.831 8.448 2.831h22.03zM928.18 84.736l-3.333-15.041h-1.166v45.46h-29.164V46.797q0-21.393 10.499-34.095Q915.68 0 938.846 0q19.831 0 32.497 12.034 12.665 11.866 12.665 30.92 0 11.866-6.832 22.06-6.666 10.029-17.332 13.873l20.831 24.234-20.664 18.719zm-.666-53.482q-4.333 4.345-4.333 11.866t4.333 11.867q4.5 4.345 11.499 4.345 6.999 0 11.332-4.345 4.5-4.346 4.5-11.867 0-7.52-4.5-11.866-4.333-4.346-11.332-4.346-7 0-11.5 4.346z"/>
    </g>
</svg>
