<?xml version="1.0" encoding="UTF-8" standalone="no"?>
<svg
   id="svg8"
   version="1.1"
   viewBox="0 0 300 84.156998"
   height="84.156998mm"
   width="300mm"
   sodipodi:docname="gmloader.svg"
   inkscape:version="1.1.2 (0a00cf5339, 2022-02-04, custom)"
   xmlns:inkscape="http://www.inkscape.org/namespaces/inkscape"
   xmlns:sodipodi="http://sodipodi.sourceforge.net/DTD/sodipodi-0.dtd"
   xmlns="http://www.w3.org/2000/svg"
   xmlns:svg="http://www.w3.org/2000/svg"
   xmlns:rdf="http://www.w3.org/1999/02/22-rdf-syntax-ns#"
   xmlns:cc="http://creativecommons.org/ns#"
   xmlns:dc="http://purl.org/dc/elements/1.1/">
  <sodipodi:namedview
     id="namedview26"
     pagecolor="#ffffff"
     bordercolor="#666666"
     borderopacity="1.0"
     inkscape:pageshadow="2"
     inkscape:pageopacity="0.0"
     inkscape:pagecheckerboard="0"
     inkscape:document-units="mm"
     showgrid="false"
     inkscape:zoom="0.94279861"
     inkscape:cx="566.92913"
     inkscape:cy="159.10079"
     inkscape:window-width="1920"
     inkscape:window-height="1017"
     inkscape:window-x="-8"
     inkscape:window-y="-8"
     inkscape:window-maximized="1"
     inkscape:current-layer="svg8" />
  <defs
     id="defs2" />
  <metadata
     id="metadata5">
    <rdf:RDF>
      <cc:Work
         rdf:about="">
        <dc:format>image/svg+xml</dc:format>
        <dc:type
           rdf:resource="http://purl.org/dc/dcmitype/StillImage" />
      </cc:Work>
    </rdf:RDF>
  </metadata>
  <g
     transform="translate(0,-212.843)"
     id="layer1"
     style="fill:#f2f2f2">
    <g
       transform="matrix(1.7643043,0,0,1.7643043,-56.658244,9.6729834)"
       id="g123"
       style="fill:#f2f2f2">
      <path
         transform="matrix(0.035278,0,0,-0.035278,13.281683,181.72805)"
         id="path16"
         style="fill:#f2f2f2;fill-opacity:1;fill-rule:nonzero;stroke:none"
         d="m 2359.21,748.699 c 0,-17.398 -3.27,-34.058 -9.82,-49.988 -6.54,-15.93 -15.86,-29.949 -27.97,-42.07 -12.11,-12.121 -26.76,-21.75 -43.95,-28.891 -17.19,-7.121 -36.52,-10.691 -58.01,-10.691 -16.79,0 -32.66,2.203 -47.6,6.589 -14.95,4.403 -28.52,10.602 -40.73,18.602 -12.2,8.012 -22.9,17.68 -32.08,29.012 -9.18,11.328 -16.5,23.918 -21.97,37.789 l 30.18,26.371 c 5.07,-11.961 11.47,-22.703 19.19,-32.203 7.71,-9.508 16.4,-17.598 26.07,-24.27 9.67,-6.66 20.21,-11.75 31.64,-15.289 11.43,-3.519 23.39,-5.289 35.89,-5.289 14.26,0 27.05,2.34 38.38,7.039 11.33,4.692 20.95,11.078 28.86,19.199 7.91,8.11 13.96,17.442 18.16,28 4.2,10.551 6.3,21.692 6.3,33.411 0,9.98 -1.32,19.109 -3.96,27.421 -2.63,8.309 -6.88,16.118 -12.74,23.45 -5.86,7.339 -13.43,14.269 -22.71,20.808 -9.27,6.563 -20.55,12.86 -33.83,18.922 l -34.28,16.117 c -14.26,6.453 -27.3,13.344 -39.11,20.672 -11.82,7.328 -22.02,15.629 -30.62,24.922 -8.59,9.289 -15.28,19.688 -20.07,31.219 -4.78,11.531 -7.17,24.629 -7.17,39.289 0,16.219 3,31.27 9.02,45.14 6.01,13.88 14.36,25.95 25.05,36.21 10.68,10.26 23.35,18.28 38,24.04 14.64,5.77 30.46,8.65 47.46,8.65 13.47,0 26.22,-1.46 38.23,-4.36 12.01,-2.92 23.1,-7.03 33.25,-12.37 10.16,-5.33 19.44,-11.74 27.83,-19.22 8.4,-7.48 15.73,-15.81 21.98,-24.99 l -27.54,-30.17 c -5.47,7.218 -11.53,13.91 -18.17,20.06 -6.64,6.16 -13.82,11.43 -21.53,15.83 -7.71,4.39 -15.92,7.81 -24.61,10.25 -8.69,2.44 -17.92,3.66 -27.69,3.66 -10.93,0 -20.99,-1.61 -30.17,-4.83 -9.18,-3.23 -17.09,-7.78 -23.73,-13.64 -6.64,-5.86 -11.82,-12.99 -15.53,-21.4 -3.71,-8.399 -5.57,-17.88 -5.57,-28.43 0,-9.969 1.47,-18.77 4.41,-26.399 2.93,-7.609 7.58,-14.652 13.93,-21.101 6.36,-6.45 14.48,-12.61 24.35,-18.481 9.88,-5.859 21.76,-11.91 35.65,-18.168 l 32.87,-14.941 c 16.62,-7.43 30.89,-15.45 42.82,-24.039 11.93,-8.61 21.72,-17.993 29.34,-28.153 7.63,-10.156 13.26,-21.258 16.87,-33.277 3.62,-12.02 5.43,-25.352 5.43,-40.012" />
      <path
         transform="matrix(0.035278,0,0,-0.035278,13.281683,181.72805)"
         id="path18"
         style="fill:#f2f2f2;fill-opacity:1;fill-rule:nonzero;stroke:none"
         d="M 2476.34,874.582 V 624.379 h -43.95 v 250.203 h -32.52 v 38.957 h 32.52 v 99.611 h 43.95 v -99.611 h 52.15 v -38.957 h -52.15" />
      <path
         transform="matrix(0.035278,0,0,-0.035278,13.281683,181.72805)"
         id="path20"
         style="fill:#f2f2f2;fill-opacity:1;fill-rule:nonzero;stroke:none"
         d="m 2772.48,648.41 c -19.15,-20.512 -47.57,-30.762 -85.25,-30.762 -19.53,0 -36.53,2.883 -50.98,8.641 -14.46,5.762 -26.37,14.012 -35.74,24.75 -9.38,10.75 -16.37,23.691 -20.95,38.82 -4.59,15.141 -6.88,32.082 -6.88,50.832 v 172.848 h 43.94 V 746.84 c 0,-13.078 0.97,-25.34 2.92,-36.758 1.95,-11.434 5.61,-21.293 10.96,-29.594 5.36,-8.297 12.67,-14.847 21.93,-19.629 9.26,-4.789 21.19,-7.179 35.81,-7.179 14.62,0 26.42,2.34 35.38,7.031 8.97,4.687 15.93,11.18 20.9,19.48 4.97,8.309 8.33,18.168 10.09,29.59 1.76,11.43 2.64,23.778 2.64,37.059 v 166.699 h 43.94 V 740.691 c 0,-41.011 -9.57,-71.781 -28.71,-92.281" />
      <path
         transform="matrix(0.035278,0,0,-0.035278,13.281683,181.72805)"
         id="path22"
         style="fill:#f2f2f2;fill-opacity:1;fill-rule:nonzero;stroke:none"
         d="m 3107.58,772.629 c 0,14.84 -2.55,28.902 -7.64,42.18 -5.08,13.281 -12.22,24.953 -21.4,35.011 -9.2,10.059 -20.36,18.02 -33.45,23.879 -13.11,5.86 -27.58,8.789 -43.42,8.789 -15.85,0 -30.18,-2.777 -42.99,-8.347 -12.8,-5.571 -23.66,-13.332 -32.56,-23.289 -8.9,-9.961 -15.75,-21.782 -20.53,-35.454 -4.8,-13.668 -7.19,-28.707 -7.19,-45.117 0,-15.043 2.49,-29.492 7.48,-43.359 4.99,-13.863 12.03,-26.172 21.12,-36.91 9.09,-10.742 20.14,-19.293 33.16,-25.641 12.99,-6.34 27.42,-9.519 43.27,-9.519 16.81,0 31.68,3.23 44.59,9.668 12.91,6.449 23.77,15.089 32.57,25.929 8.79,10.84 15.49,23.34 20.09,37.5 4.59,14.16 6.9,29.051 6.9,44.68 z m -2.35,-148.25 v 50.391 h -1.46 c -5.28,-8.782 -11.69,-16.688 -19.22,-23.731 -7.53,-7.027 -15.94,-13.027 -25.22,-18.008 -9.29,-4.98 -19.12,-8.793 -29.48,-11.429 -10.36,-2.641 -20.92,-3.954 -31.68,-3.954 -21.51,0 -41.07,3.903 -58.66,11.711 -17.6,7.821 -32.61,18.563 -45.03,32.231 -12.41,13.672 -22.05,29.789 -28.88,48.34 -6.85,18.558 -10.27,38.48 -10.27,59.769 0,20.891 3.27,40.52 9.83,58.883 6.54,18.359 15.98,34.328 28.3,47.898 12.32,13.579 27.28,24.27 44.88,32.079 17.59,7.82 37.34,11.722 59.25,11.722 10.55,0 20.92,-1.222 31.09,-3.66 10.17,-2.441 19.85,-5.961 29.03,-10.551 9.19,-4.59 17.7,-10.25 25.52,-16.992 7.82,-6.738 14.67,-14.398 20.54,-22.996 h 1.46 v 254.008 h 43.95 V 624.379 h -43.95" />
      <path
         transform="matrix(0.035278,0,0,-0.035278,13.281683,181.72805)"
         id="path24"
         style="fill:#f2f2f2;fill-opacity:1;fill-rule:nonzero;stroke:none"
         d="m 3233.2,624.379 v 289.16 h 43.95 v -289.16 z m 50.39,386.431 c 0,-3.71 -0.78,-7.23 -2.34,-10.55 -1.56,-3.319 -3.61,-6.248 -6.15,-8.791 -2.54,-2.539 -5.52,-4.539 -8.94,-6 -3.42,-1.469 -6.98,-2.199 -10.69,-2.199 -3.91,0 -7.62,0.73 -11.13,2.199 -3.52,1.461 -6.55,3.461 -9.09,6 -2.54,2.543 -4.54,5.472 -6,8.791 -1.47,3.32 -2.2,6.84 -2.2,10.55 0,7.81 2.74,14.35 8.2,19.63 5.47,5.27 12.21,7.91 20.22,7.91 3.71,0 7.27,-0.69 10.69,-2.05 3.42,-1.37 6.4,-3.32 8.94,-5.86 2.54,-2.54 4.59,-5.47 6.15,-8.79 1.56,-3.32 2.34,-6.93 2.34,-10.84" />
      <path
         transform="matrix(0.035278,0,0,-0.035278,13.281683,181.72805)"
         id="path26"
         style="fill:#f2f2f2;fill-opacity:1;fill-rule:nonzero;stroke:none"
         d="m 3601.41,769.109 c 0,15.039 -2.45,29.442 -7.33,43.211 -4.88,13.77 -12.01,25.93 -21.38,36.481 -9.38,10.539 -20.81,18.988 -34.28,25.34 -13.48,6.347 -28.81,9.519 -46,9.519 -16.99,0 -32.37,-3.121 -46.14,-9.371 -13.77,-6.25 -25.49,-14.598 -35.16,-25.051 -9.66,-10.449 -17.14,-22.609 -22.41,-36.476 -5.27,-13.864 -7.91,-28.422 -7.91,-43.653 0,-15.23 2.44,-29.777 7.33,-43.648 4.88,-13.871 12.01,-26.082 21.38,-36.621 9.38,-10.551 20.85,-18.949 34.43,-25.199 13.57,-6.25 28.95,-9.371 46.14,-9.371 17.58,0 33.25,3.07 47.02,9.23 13.77,6.148 25.39,14.5 34.86,25.039 9.48,10.551 16.75,22.762 21.83,36.621 5.08,13.871 7.62,28.52 7.62,43.949 z m 42.18,0 c 0,-21.289 -3.71,-41.16 -11.13,-59.621 -7.42,-18.457 -17.87,-34.468 -31.35,-48.047 -13.47,-13.57 -29.64,-24.261 -48.48,-32.082 -18.85,-7.808 -39.7,-11.711 -62.55,-11.711 -22.85,0 -43.56,3.903 -62.11,11.711 -18.56,7.821 -34.43,18.512 -47.61,32.082 -13.18,13.579 -23.34,29.59 -30.47,48.047 -7.13,18.461 -10.69,38.332 -10.69,59.621 0,21.481 3.71,41.411 11.13,59.77 7.42,18.359 17.82,34.32 31.2,47.902 13.38,13.571 29.5,24.219 48.34,31.93 18.85,7.711 39.7,11.57 62.55,11.57 23.05,0 43.9,-3.902 62.55,-11.722 18.65,-7.809 34.52,-18.547 47.61,-32.219 13.08,-13.68 23.19,-29.692 30.32,-48.051 7.13,-18.359 10.69,-38.09 10.69,-59.18" />
      <path
         transform="matrix(0.035278,0,0,-0.035278,13.281683,181.72805)"
         id="path28"
         style="fill:#f2f2f2;fill-opacity:1;fill-rule:nonzero;stroke:none"
         d="m 4130.69,948.41 c 0,-12.699 -1.51,-24.859 -4.54,-36.48 -3.02,-11.621 -7.47,-22.95 -13.33,-33.981 -5.86,-11.039 -13.03,-22.07 -21.53,-33.109 -8.5,-11.031 -18.21,-22.309 -29.15,-33.84 L 3927.96,665.691 h 202.73 v -41.312 h -293.55 l -1.17,1.18 193.36,211.23 c 17.77,19.531 31.49,38.52 41.16,56.981 9.67,18.46 14.5,37.449 14.5,56.98 0,13.281 -2.29,25.539 -6.88,36.77 -4.59,11.23 -11.19,20.85 -19.78,28.86 -8.59,8 -19.04,14.25 -31.35,18.75 -12.3,4.49 -26.17,6.73 -41.6,6.73 -13.67,0 -26.27,-2.29 -37.79,-6.88 -11.53,-4.59 -21.39,-11.04 -29.59,-19.34 -8.21,-8.3 -14.6,-18.261 -19.19,-29.878 -4.59,-11.621 -6.89,-24.461 -6.89,-38.524 v -4.988 h -45.7 v 4.988 c 0.78,22.852 5.03,42.871 12.74,60.052 7.72,17.19 18.02,31.45 30.91,42.78 12.89,11.33 27.93,19.82 45.12,25.49 17.19,5.66 35.64,8.49 55.37,8.49 20.31,0 39.02,-3.32 56.1,-9.96 17.09,-6.64 31.89,-15.97 44.39,-27.98 12.5,-12.01 22.27,-26.32 29.3,-42.92 7.03,-16.6 10.54,-34.858 10.54,-54.78" />
      <path
         transform="matrix(0.035278,0,0,-0.035278,13.281683,181.72805)"
         id="path30"
         style="fill:#f2f2f2;fill-opacity:1;fill-rule:nonzero;stroke:none"
         d="m 2530.6,1472.75 c -1.37,-13.96 -3.81,-27.34 -7.33,-40.13 -3.51,-12.8 -8.35,-25.1 -14.5,-36.92 -6.15,-11.81 -14.01,-23.29 -23.58,-34.42 -21.29,-25 -46.73,-44 -76.32,-56.98 -29.59,-12.99 -61.77,-19.49 -96.54,-19.49 -21.68,0 -42.43,2.84 -62.25,8.5 -19.83,5.66 -38.28,13.62 -55.37,23.88 -17.09,10.25 -32.52,22.51 -46.29,36.76 -13.77,14.26 -25.54,29.94 -35.3,47.03 -9.77,17.09 -17.29,35.45 -22.56,55.07 -5.28,19.63 -7.91,39.8 -7.91,60.5 0,21.68 2.68,42.58 8.05,62.7 5.37,20.11 12.99,38.91 22.85,56.39 9.87,17.49 21.78,33.35 35.75,47.61 13.96,14.26 29.54,26.46 46.73,36.62 17.18,10.16 35.84,18.02 55.95,23.59 20.12,5.56 41.21,8.34 63.28,8.34 21.68,0 42.29,-2.44 61.82,-7.32 19.53,-4.88 37.79,-11.96 54.79,-21.24 16.99,-9.28 32.61,-20.65 46.87,-34.13 14.26,-13.48 26.95,-28.81 38.09,-46 l -39.55,-23.43 c -18.95,28.51 -42.09,50.63 -69.44,66.36 -27.34,15.72 -58.79,23.58 -94.33,23.58 -17,0 -33.35,-2.35 -49.08,-7.03 -15.72,-4.69 -30.37,-11.33 -43.94,-19.93 -13.58,-8.59 -25.88,-18.75 -36.92,-30.46 -11.03,-11.72 -20.5,-24.71 -28.41,-38.97 -7.91,-14.26 -14.02,-29.39 -18.31,-45.41 -4.3,-16.02 -6.45,-32.52 -6.45,-49.51 0,-17.38 2.15,-34.18 6.45,-50.39 4.29,-16.21 10.4,-31.4 18.31,-45.56 7.91,-14.16 17.48,-27.1 28.71,-38.82 11.23,-11.71 23.73,-21.77 37.5,-30.17 13.77,-8.4 28.66,-14.89 44.67,-19.48 16.02,-4.59 32.82,-6.89 50.4,-6.89 21.68,0 42.43,3.52 62.25,10.55 19.83,7.03 37.31,17.09 52.44,30.17 15.14,13.09 27.4,28.86 36.77,47.32 9.38,18.46 14.55,39.11 15.53,61.96 h -149.42 v 40.14 h 198.64 c 0,-15.63 -0.69,-30.42 -2.05,-44.39" />
      <path
         transform="matrix(0.035278,0,0,-0.035278,13.281683,181.72805)"
         id="path32"
         style="fill:#f2f2f2;fill-opacity:1;fill-rule:nonzero;stroke:none"
         d="m 2823.51,1440.38 c 0,15.23 -2.49,29.54 -7.47,42.92 -4.99,13.38 -12.07,25.15 -21.25,35.3 -9.17,10.16 -20.26,18.17 -33.25,24.03 -12.99,5.85 -27.39,8.78 -43.21,8.78 -16.21,0 -30.71,-2.97 -43.51,-8.93 -12.79,-5.96 -23.68,-14.06 -32.66,-24.32 -8.99,-10.25 -15.82,-22.31 -20.51,-36.18 -4.69,-13.87 -7.03,-28.71 -7.03,-44.53 0,-15.24 2.49,-29.79 7.47,-43.65 4.98,-13.87 12.06,-26.13 21.24,-36.77 9.18,-10.64 20.31,-19.14 33.4,-25.49 13.08,-6.35 27.64,-9.52 43.65,-9.52 16.6,0 31.3,3.22 44.09,9.67 12.8,6.44 23.59,15.14 32.38,26.07 8.78,10.94 15.43,23.54 19.92,37.8 4.49,14.25 6.74,29.19 6.74,44.82 z m -1.76,-148.24 v 50.39 h -1.17 c -4.5,-8.99 -10.6,-17.04 -18.31,-24.17 -7.72,-7.13 -16.31,-13.14 -25.79,-18.02 -9.47,-4.88 -19.48,-8.59 -30.02,-11.13 -10.55,-2.54 -21.1,-3.81 -31.65,-3.81 -21.09,0 -40.33,3.86 -57.71,11.57 -17.38,7.72 -32.32,18.41 -44.82,32.08 -12.5,13.67 -22.22,29.84 -29.15,48.49 -6.94,18.65 -10.41,38.82 -10.41,60.5 0,20.89 3.42,40.48 10.26,58.74 6.83,18.26 16.45,34.13 28.86,47.6 12.4,13.48 27.34,24.12 44.82,31.94 17.48,7.81 36.87,11.72 58.15,11.72 10.75,0 21.24,-1.22 31.5,-3.66 10.25,-2.45 20.02,-6.01 29.3,-10.7 9.27,-4.69 17.72,-10.4 25.34,-17.14 7.61,-6.74 14.16,-14.5 19.63,-23.29 h 1.17 v 48.05 h 43.65 v -289.16 h -43.65" />
      <path
         transform="matrix(0.035278,0,0,-0.035278,13.281683,181.72805)"
         id="path34"
         style="fill:#f2f2f2;fill-opacity:1;fill-rule:nonzero;stroke:none"
         d="m 3280.77,1292.14 v 181.05 c 0,27.93 -4.86,48.05 -14.61,60.35 -9.74,12.31 -25.04,18.46 -45.89,18.46 -22.59,0 -39.26,-7.96 -49.98,-23.87 -10.72,-15.92 -16.07,-38.83 -16.07,-68.71 v -167.28 h -43.95 v 171.68 c 0,15.23 -1.07,28.41 -3.22,39.55 -2.16,11.13 -5.67,20.36 -10.55,27.68 -4.88,7.33 -11.24,12.75 -19.04,16.26 -7.81,3.52 -17.48,5.28 -29,5.28 -21.1,0 -37.17,-8.55 -48.2,-25.64 -11.03,-17.09 -16.55,-43.11 -16.55,-78.07 v -156.74 h -43.94 v 289.16 h 43.94 v -36.62 h 1.13 c 7.45,14.06 17.56,24.8 30.38,32.22 12.82,7.42 28.12,11.14 45.93,11.14 17.81,0 34.18,-4.25 49.15,-12.75 14.96,-8.49 26.85,-21.92 35.66,-40.28 8.17,17.19 19.62,30.32 34.31,39.4 14.71,9.09 32.19,13.63 52.44,13.63 31.15,0 54.27,-9.18 69.37,-27.54 15.1,-18.36 22.64,-44.44 22.64,-78.23 v -190.13 h -43.95" />
      <path
         transform="matrix(0.035278,0,0,-0.035278,13.281683,181.72805)"
         id="path36"
         style="fill:#f2f2f2;fill-opacity:1;fill-rule:nonzero;stroke:none"
         d="m 3612.66,1497.51 c -4.89,11.33 -11.33,21.19 -19.34,29.59 -8.01,8.4 -17.82,14.94 -29.44,19.63 -11.62,4.68 -25.25,7.03 -40.87,7.03 -14.06,0 -26.96,-2.39 -38.67,-7.18 -11.72,-4.78 -21.98,-11.38 -30.77,-19.78 -8.78,-8.39 -15.86,-18.26 -21.24,-29.59 -5.37,-11.32 -8.74,-23.53 -10.1,-36.62 h 200.97 c -2.15,13.29 -5.66,25.59 -10.54,36.92 z m -191.61,-67.38 c 0.4,-16.8 3.42,-31.99 9.09,-45.56 5.66,-13.57 13.33,-25.1 22.99,-34.57 9.67,-9.47 20.95,-16.8 33.84,-21.97 12.89,-5.18 26.66,-7.77 41.31,-7.77 21.68,0 40.48,5.32 56.4,15.97 15.92,10.64 29.15,24.95 39.7,42.92 l 36.62,-9.67 c -6.06,-13.48 -13.72,-25.44 -23,-35.89 -9.28,-10.45 -19.83,-19.24 -31.64,-26.36 -11.82,-7.13 -24.61,-12.56 -38.38,-16.26 -13.77,-3.72 -28.18,-5.57 -43.21,-5.57 -22.27,0 -42.39,3.91 -60.36,11.72 -17.96,7.81 -33.35,18.5 -46.14,32.08 -12.79,13.57 -22.65,29.59 -29.59,48.05 -6.93,18.45 -10.4,38.33 -10.4,59.61 0,20.9 3.52,40.53 10.55,58.89 7.03,18.36 16.89,34.38 29.59,48.05 12.69,13.67 27.93,24.46 45.7,32.37 17.77,7.91 37.4,11.87 58.89,11.87 22.85,0 43.21,-3.81 61.08,-11.43 17.87,-7.62 32.96,-18.36 45.27,-32.23 12.3,-13.86 21.63,-30.47 27.97,-49.8 6.35,-19.34 9.43,-40.82 9.23,-64.45 h -245.51" />
      <path
         transform="matrix(0.035278,0,0,-0.035278,13.281683,181.72805)"
         id="path38"
         style="fill:#f2f2f2;fill-opacity:1;fill-rule:nonzero;stroke:none"
         d="m 4175.98,1292.14 -67.39,350.39 h -1.17 l -147.07,-362.4 h -10.84 l -145.02,362.4 h -1.17 l -68.55,-350.39 h -46 l 92.87,464.35 h 24.02 l 150.59,-377.34 152.34,377.34 h 24.61 l 90.53,-464.35 h -47.75" />
      <path
         transform="matrix(0.035278,0,0,-0.035278,13.281683,181.72805)"
         id="path40"
         style="fill:#f2f2f2;fill-opacity:1;fill-rule:nonzero;stroke:none"
         d="m 4506.39,1440.38 c 0,15.23 -2.49,29.54 -7.47,42.92 -4.98,13.38 -12.06,25.15 -21.24,35.3 -9.18,10.16 -20.27,18.17 -33.26,24.03 -12.98,5.85 -27.39,8.78 -43.21,8.78 -16.21,0 -30.71,-2.97 -43.5,-8.93 -12.8,-5.96 -23.69,-14.06 -32.67,-24.32 -8.99,-10.25 -15.82,-22.31 -20.51,-36.18 -4.69,-13.87 -7.03,-28.71 -7.03,-44.53 0,-15.24 2.49,-29.79 7.47,-43.65 4.98,-13.87 12.06,-26.13 21.24,-36.77 9.18,-10.64 20.31,-19.14 33.4,-25.49 13.09,-6.35 27.64,-9.52 43.65,-9.52 16.6,0 31.3,3.22 44.09,9.67 12.8,6.44 23.59,15.14 32.38,26.07 8.79,10.94 15.43,23.54 19.92,37.8 4.49,14.25 6.74,29.19 6.74,44.82 z m -1.76,-148.24 v 50.39 h -1.17 c -4.5,-8.99 -10.6,-17.04 -18.31,-24.17 -7.72,-7.13 -16.31,-13.14 -25.78,-18.02 -9.48,-4.88 -19.49,-8.59 -30.03,-11.13 -10.55,-2.54 -21.1,-3.81 -31.64,-3.81 -21.1,0 -40.34,3.86 -57.72,11.57 -17.38,7.72 -32.32,18.41 -44.82,32.08 -12.5,13.67 -22.22,29.84 -29.15,48.49 -6.94,18.65 -10.4,38.82 -10.4,60.5 0,20.89 3.41,40.48 10.25,58.74 6.84,18.26 16.45,34.13 28.86,47.6 12.4,13.48 27.34,24.12 44.82,31.94 17.48,7.81 36.87,11.72 58.16,11.72 10.74,0 21.24,-1.22 31.49,-3.66 10.25,-2.45 20.02,-6.01 29.3,-10.7 9.27,-4.69 17.72,-10.4 25.34,-17.14 7.62,-6.74 14.16,-14.5 19.63,-23.29 h 1.17 v 48.05 h 43.65 v -289.16 h -43.65" />
      <path
         transform="matrix(0.035278,0,0,-0.035278,13.281683,181.72805)"
         id="path42"
         style="fill:#f2f2f2;fill-opacity:1;fill-rule:nonzero;stroke:none"
         d="m 4798.42,1292.14 -122.17,140.91 -12.6,-11.42 v -129.49 h -43.94 v 495.7 h 43.94 v -325.2 l 123.34,118.66 h 55.37 l -133.88,-126.57 144.14,-162.59 h -54.2" />
      <path
         transform="matrix(0.035278,0,0,-0.035278,13.281683,181.72805)"
         id="path44"
         style="fill:#f2f2f2;fill-opacity:1;fill-rule:nonzero;stroke:none"
         d="m 5101.3,1497.51 c -4.88,11.33 -11.33,21.19 -19.34,29.59 -8,8.4 -17.82,14.94 -29.44,19.63 -11.62,4.68 -25.24,7.03 -40.87,7.03 -14.06,0 -26.95,-2.39 -38.67,-7.18 -11.72,-4.78 -21.97,-11.38 -30.76,-19.78 -8.79,-8.39 -15.87,-18.26 -21.24,-29.59 -5.37,-11.32 -8.74,-23.53 -10.11,-36.62 h 200.98 c -2.15,13.29 -5.67,25.59 -10.55,36.92 z m -191.6,-67.38 c 0.39,-16.8 3.42,-31.99 9.08,-45.56 5.66,-13.57 13.33,-25.1 23,-34.57 9.67,-9.47 20.94,-16.8 33.84,-21.97 12.89,-5.18 26.66,-7.77 41.3,-7.77 21.68,0 40.48,5.32 56.4,15.97 15.92,10.64 29.15,24.95 39.7,42.92 l 36.62,-9.67 c -6.06,-13.48 -13.72,-25.44 -23,-35.89 -9.28,-10.45 -19.82,-19.24 -31.64,-26.36 -11.82,-7.13 -24.61,-12.56 -38.38,-16.26 -13.77,-3.72 -28.17,-5.57 -43.21,-5.57 -22.27,0 -42.38,3.91 -60.35,11.72 -17.97,7.81 -33.35,18.5 -46.15,32.08 -12.79,13.57 -22.65,29.59 -29.59,48.05 -6.93,18.45 -10.4,38.33 -10.4,59.61 0,20.9 3.52,40.53 10.55,58.89 7.03,18.36 16.9,34.38 29.59,48.05 12.7,13.67 27.93,24.46 45.7,32.37 17.78,7.91 37.41,11.87 58.89,11.87 22.85,0 43.21,-3.81 61.08,-11.43 17.88,-7.62 32.96,-18.36 45.27,-32.23 12.3,-13.86 21.63,-30.47 27.98,-49.8 6.34,-19.34 9.42,-40.82 9.23,-64.45 H 4909.7" />
      <path
         transform="matrix(0.035278,0,0,-0.035278,13.281683,181.72805)"
         id="path46"
         style="fill:#f2f2f2;fill-opacity:1;fill-rule:nonzero;stroke:none"
         d="m 5329.46,1544.38 c -5.47,1.17 -11.03,1.76 -16.7,1.76 -18.36,0 -32.52,-8.78 -42.48,-26.34 -9.96,-17.55 -14.94,-44.87 -14.94,-81.93 v -145.73 h -43.94 v 289.16 h 43.94 v -39.55 h 1.17 c 6.84,15.62 15.97,27.14 27.4,34.57 11.42,7.42 25.24,11.13 41.45,11.13 5.08,0 9.96,-0.59 14.65,-1.76 4.69,-1.17 9.28,-2.64 13.77,-4.39 l -9.67,-42.19 c -4.3,2.34 -9.18,4.1 -14.65,5.27" />
      <path
         transform="matrix(0.035278,0,0,-0.035278,13.281683,181.72805)"
         id="path48"
         style="fill:#f2f2f2;fill-opacity:1;fill-rule:nonzero;stroke:none"
         d="m 4252.02,1080.81 v -73.28 h -8.35 v 73.28 h -20.11 v 7.36 h 48.57 v -7.36 h -20.11" />
      <path
         transform="matrix(0.035278,0,0,-0.035278,13.281683,181.72805)"
         id="path50"
         style="fill:#f2f2f2;fill-opacity:1;fill-rule:nonzero;stroke:none"
         d="m 4360.97,1007.53 -12.01,62.47 h -0.21 l -26.22,-64.61 h -1.93 l -25.85,64.61 h -0.22 l -12.22,-62.47 h -8.2 l 16.55,82.78 h 4.29 l 26.85,-67.27 27.16,67.27 h 4.38 l 16.14,-82.78 h -8.51" />
      <path
         transform="matrix(0.035278,0,0,-0.035278,13.281683,181.72805)"
         id="path52"
         style="fill:#f2f2f2;fill-opacity:1;fill-rule:nonzero;stroke:none"
         d="M 1209.88,1211.01 V 926.371 l -284.653,284.639 284.653,284.66 284.66,-284.66 z m 0,676.07 -676.064,-676.07 676.064,-676.049 284.69,284.68 v 391.369 h 391.37 l -676.06,676.07" />
    </g>
  </g>
</svg>
