<svg xml:space="preserve" width="75.386" height="91.985" xmlns="http://www.w3.org/2000/svg"><path d="M7.766 91.692a6.74 6.74 0 0 1-2.04.293c-.876 0-1.666-.135-2.368-.407a5.224 5.224 0 0 1-1.804-1.138 4.976 4.976 0 0 1-1.151-1.758A6.139 6.139 0 0 1 0 86.426c0-.83.131-1.588.391-2.27a5.033 5.033 0 0 1 1.113-1.759 4.931 4.931 0 0 1 1.754-1.135 6.297 6.297 0 0 1 2.309-.402c.43 0 .83.032 1.2.095.37.062.712.153 1.025.273a4.93 4.93 0 0 1 1.626 1.005l-.419.67a.432.432 0 0 1-.255.193c-.102.028-.218.004-.345-.072a11.261 11.261 0 0 1-.417-.259 3.74 3.74 0 0 0-.574-.292 4.71 4.71 0 0 0-1.886-.337 4.42 4.42 0 0 0-1.664.299 3.539 3.539 0 0 0-1.268.858 3.807 3.807 0 0 0-.806 1.352 5.324 5.324 0 0 0-.28 1.782c0 .682.098 1.293.292 1.833.195.538.474.998.836 1.374a3.573 3.573 0 0 0 1.318.863 4.839 4.839 0 0 0 1.738.296 5.174 5.174 0 0 0 1.93-.368c.186-.08.377-.17.569-.27v-2.4H6.494a.325.325 0 0 1-.232-.083.277.277 0 0 1-.088-.207v-.834h3.342v4.177a6.099 6.099 0 0 1-1.75.884" style="fill:#000000;fill-opacity:1;fill-rule:nonzero;stroke:none;stroke-width:1.33333"/><path d="M20.915 86.425c0-.668-.09-1.268-.273-1.8a3.798 3.798 0 0 0-.775-1.348 3.367 3.367 0 0 0-1.215-.847 4.104 4.104 0 0 0-1.594-.296c-.583 0-1.112.098-1.588.296a3.416 3.416 0 0 0-1.219.847 3.787 3.787 0 0 0-.779 1.348 5.56 5.56 0 0 0-.273 1.8c0 .668.092 1.267.273 1.796.183.53.443.977.779 1.344a3.373 3.373 0 0 0 1.219.843 4.16 4.16 0 0 0 1.588.293 4.18 4.18 0 0 0 1.594-.293 3.33 3.33 0 0 0 1.215-.843 3.81 3.81 0 0 0 .775-1.344c.182-.53.273-1.128.273-1.796m1.51 0c0 .815-.127 1.563-.386 2.244a5.15 5.15 0 0 1-1.093 1.757 4.88 4.88 0 0 1-1.698 1.144 5.733 5.733 0 0 1-2.19.406c-.8 0-1.53-.135-2.188-.406a4.888 4.888 0 0 1-1.694-1.144 5.15 5.15 0 0 1-1.093-1.757 6.304 6.304 0 0 1-.387-2.244c0-.816.13-1.563.387-2.245a5.206 5.206 0 0 1 1.093-1.762 4.923 4.923 0 0 1 1.694-1.15 5.656 5.656 0 0 1 2.188-.41c.798 0 1.529.136 2.19.41a4.915 4.915 0 0 1 1.698 1.15c.47.495.834 1.082 1.093 1.762.259.682.387 1.43.387 2.245" style="fill:#000000;fill-opacity:1;fill-rule:nonzero;stroke:none;stroke-width:1.33333"/><path d="M32.219 91.692a6.74 6.74 0 0 1-2.04.293c-.876 0-1.665-.135-2.368-.407a5.224 5.224 0 0 1-1.804-1.138 4.976 4.976 0 0 1-1.15-1.758 6.139 6.139 0 0 1-.403-2.256c0-.83.13-1.588.39-2.27a5.033 5.033 0 0 1 1.114-1.759 4.931 4.931 0 0 1 1.753-1.135 6.297 6.297 0 0 1 2.31-.402c.43 0 .83.032 1.2.095.369.062.711.153 1.025.273a4.93 4.93 0 0 1 1.625 1.005l-.419.67a.432.432 0 0 1-.254.193c-.103.028-.219.004-.346-.072a11.261 11.261 0 0 1-.417-.259 3.74 3.74 0 0 0-.573-.292 4.71 4.71 0 0 0-1.887-.337 4.42 4.42 0 0 0-1.664.299 3.539 3.539 0 0 0-1.268.858 3.807 3.807 0 0 0-.805 1.352 5.324 5.324 0 0 0-.28 1.781c0 .683.097 1.294.292 1.834.194.538.473.998.836 1.374a3.573 3.573 0 0 0 1.317.863 4.839 4.839 0 0 0 1.739.296 5.19 5.19 0 0 0 1.929-.368c.187-.08.377-.17.57-.27v-2.4h-1.694a.325.325 0 0 1-.232-.083.277.277 0 0 1-.087-.207v-.834h3.342v4.177a6.099 6.099 0 0 1-1.751.884" style="fill:#000000;fill-opacity:1;fill-rule:nonzero;stroke:none;stroke-width:1.33333"/><path d="M36.532 91.025a.961.961 0 0 1 .57-.88.92.92 0 0 1 .372-.076.979.979 0 0 1 .881.585.94.94 0 0 1 0 .747.984.984 0 0 1-.205.3.963.963 0 0 1-.676.273.963.963 0 0 1-.372-.072.88.88 0 0 1-.3-.2.939.939 0 0 1-.27-.677" style="fill:#000000;fill-opacity:1;fill-rule:nonzero;stroke:none;stroke-width:1.33333"/><path d="M48.554 89.614a.275.275 0 0 1 .212.1l.585.63a4.676 4.676 0 0 1-1.621 1.208c-.636.288-1.404.432-2.306.432-.78 0-1.488-.135-2.126-.407a4.667 4.667 0 0 1-1.632-1.139 5.146 5.146 0 0 1-1.048-1.757 6.58 6.58 0 0 1-.372-2.256c0-.821.129-1.572.386-2.256a5.157 5.157 0 0 1 1.09-1.761 4.87 4.87 0 0 1 1.682-1.144c.654-.27 1.375-.405 2.166-.405.773 0 1.457.123 2.049.371a5.167 5.167 0 0 1 1.565 1.01l-.486.676a.405.405 0 0 1-.118.125.34.34 0 0 1-.194.05c-.091 0-.202-.05-.334-.149a5.06 5.06 0 0 0-.517-.329 3.915 3.915 0 0 0-.796-.33 3.988 3.988 0 0 0-1.177-.149 3.93 3.93 0 0 0-1.542.292 3.353 3.353 0 0 0-1.204.847 3.924 3.924 0 0 0-.786 1.352 5.413 5.413 0 0 0-.282 1.8c0 .677.099 1.283.294 1.815.194.532.46.981.797 1.348.336.366.733.646 1.192.838a3.805 3.805 0 0 0 1.484.29c.325 0 .617-.019.879-.058.26-.038.5-.097.72-.178.22-.08.426-.184.616-.307.189-.124.377-.273.565-.445a.392.392 0 0 1 .259-.114" style="fill:#000000;fill-opacity:1;fill-rule:nonzero;stroke:none;stroke-width:1.33333"/><path d="M59.895 86.425c0-.668-.09-1.268-.273-1.8a3.798 3.798 0 0 0-.775-1.348 3.367 3.367 0 0 0-1.215-.847 4.104 4.104 0 0 0-1.594-.296c-.583 0-1.112.098-1.588.296a3.416 3.416 0 0 0-1.22.847 3.787 3.787 0 0 0-.778 1.348 5.56 5.56 0 0 0-.273 1.8c0 .668.092 1.267.273 1.796.183.53.443.977.779 1.344a3.373 3.373 0 0 0 1.219.843 4.16 4.16 0 0 0 1.588.293 4.18 4.18 0 0 0 1.594-.293 3.33 3.33 0 0 0 1.215-.843 3.81 3.81 0 0 0 .775-1.344c.182-.53.273-1.128.273-1.796m1.51 0c0 .815-.127 1.563-.386 2.244a5.15 5.15 0 0 1-1.093 1.757 4.88 4.88 0 0 1-1.698 1.144 5.733 5.733 0 0 1-2.19.406c-.8 0-1.53-.135-2.188-.406a4.888 4.888 0 0 1-1.694-1.144 5.15 5.15 0 0 1-1.093-1.757 6.304 6.304 0 0 1-.387-2.244c0-.816.13-1.563.387-2.245a5.207 5.207 0 0 1 1.093-1.762 4.923 4.923 0 0 1 1.694-1.15 5.656 5.656 0 0 1 2.188-.41c.798 0 1.529.136 2.19.41a4.915 4.915 0 0 1 1.698 1.15c.47.495.834 1.082 1.093 1.762.259.682.387 1.43.387 2.245" style="fill:#000000;fill-opacity:1;fill-rule:nonzero;stroke:none;stroke-width:1.33333"/><path d="m69.59 88.313.168.397a9.46 9.46 0 0 1 .16-.405c.054-.133.116-.263.18-.383l3.693-6.69c.06-.118.127-.188.2-.214a.985.985 0 0 1 .308-.037h1.087v10.881h-1.292v-7.996a7.89 7.89 0 0 1 .03-.714l-3.73 6.805c-.115.227-.292.341-.53.341h-.213c-.237 0-.415-.114-.53-.34l-3.813-6.829a8.43 8.43 0 0 1 .046.737v7.996h-1.292v-10.88h1.086a.95.95 0 0 1 .304.036c.07.026.139.096.204.214l3.76 6.697c.06.121.119.25.175.384" style="fill:#000000;fill-opacity:1;fill-rule:nonzero;stroke:none;stroke-width:1.33333"/><path d="M22.462 46.053h-8.77a1.241 1.241 0 0 0-1.24 1.247s.003 0 .003.008h-.003v6.257h.003l-.003.005c0 .686.552 1.25 1.24 1.25h8.77v4.174H11.519v-.01A3.235 3.235 0 0 1 8.28 55.75V45.11a3.233 3.233 0 0 1 3.239-3.223h10.943z" style="fill:#000000;fill-opacity:1;fill-rule:evenodd;stroke:none;stroke-width:1.33333"/><path d="M25.628 34.433a3.28 3.28 0 0 1-3.282 3.284H8.27v-4.23h11.867c.698 0 1.258-.571 1.258-1.266V18.237c0-.697-.56-1.262-1.258-1.262H13.76a1.259 1.259 0 0 0-1.258 1.262v6.364a1.26 1.26 0 0 0 1.258 1.266h5.095v4.23h-7.303a3.277 3.277 0 0 1-3.281-3.281V16.024a3.28 3.28 0 0 1 3.281-3.283h10.794a3.283 3.283 0 0 1 3.282 3.283z" style="fill:#000000;fill-opacity:1;fill-rule:evenodd;stroke:none;stroke-width:1.33333"/><path d="M67.102 58.985H62.93v-12.93H60a1.241 1.241 0 0 0-1.242 1.246v11.684h-4.17v-12.93h-2.933a1.243 1.243 0 0 0-1.242 1.246v11.695h-4.17V45.112a3.23 3.23 0 0 1 3.235-3.224h17.623z" style="fill:#000000;fill-opacity:1;fill-rule:evenodd;stroke:none;stroke-width:1.33333"/><path d="M67.112 34.433a3.28 3.28 0 0 1-3.281 3.284H49.755v-4.23h11.867c.7 0 1.264-.571 1.264-1.266V18.237a1.261 1.261 0 0 0-1.264-1.262h-6.376a1.26 1.26 0 0 0-1.255 1.262v6.364c0 .699.564 1.266 1.255 1.266h5.092v4.23h-7.3a3.28 3.28 0 0 1-3.283-3.281V16.024a3.281 3.281 0 0 1 3.284-3.283H63.83a3.284 3.284 0 0 1 3.281 3.283z" style="fill:#000000;fill-opacity:1;fill-rule:evenodd;stroke:none;stroke-width:1.33333"/><path d="M42.13 18.248v6.353a1.25 1.25 0 0 1-1.248 1.267h-6.375a1.261 1.261 0 0 1-1.26-1.267v-6.364c0-.697.56-1.261 1.26-1.261h6.375a1.248 1.248 0 0 1 1.248 1.261zm.96-5.505H32.295a3.28 3.28 0 0 0-3.279 3.282v10.792a3.277 3.277 0 0 0 3.279 3.282H43.09a3.283 3.283 0 0 0 3.28-3.282V16.025a3.284 3.284 0 0 0-3.28-3.282" style="fill:#000000;fill-opacity:1;fill-rule:evenodd;stroke:none;stroke-width:1.33333"/><path d="M38.734 47.308v6.257a1.244 1.244 0 0 1-1.238 1.25c-.006 0-.008-.007-.014-.007v.007h-6.256v-.007s-.007.007-.014.007a1.244 1.244 0 0 1-1.24-1.25V47.3c0-.688.552-1.247 1.24-1.247h6.284a1.24 1.24 0 0 1 1.238 1.247zm.937-5.421H29.036A3.23 3.23 0 0 0 25.8 45.11v10.64a3.233 3.233 0 0 0 3.236 3.233h10.635a3.233 3.233 0 0 0 3.232-3.233V45.11a3.232 3.232 0 0 0-3.232-3.224" style="fill:#000000;fill-opacity:1;fill-rule:evenodd;stroke:none;stroke-width:1.33333"/><path d="M73.783 66.252c0 1.075-.433 2.04-1.137 2.745a3.864 3.864 0 0 1-2.743 1.135H5.483a3.876 3.876 0 0 1-3.88-3.88V5.482A3.872 3.872 0 0 1 2.74 2.738a3.868 3.868 0 0 1 2.743-1.136h64.42a3.87 3.87 0 0 1 2.743 1.136 3.861 3.861 0 0 1 1.137 2.742zm-.005-64.647A5.459 5.459 0 0 0 69.903 0H5.483a5.459 5.459 0 0 0-3.875 1.605A5.461 5.461 0 0 0 0 5.481v60.77c0 1.513.615 2.889 1.608 3.878a5.467 5.467 0 0 0 3.875 1.607h64.42a5.467 5.467 0 0 0 3.875-1.607 5.467 5.467 0 0 0 1.608-3.877V5.482a5.467 5.467 0 0 0-1.608-3.877" style="fill:#000000;fill-opacity:1;fill-rule:nonzero;stroke:none;stroke-width:1.33333"/></svg>