<svg height="158.338" viewBox="0 0 458.921 110.837" width="655.601" xmlns="http://www.w3.org/2000/svg">
    <filter id="a" color-interpolation-filters="sRGB" height="1.128" width="1.03" x="-.012" y="-.058">
        <feOffset dx="3" dy="3"/>
        <feGaussianBlur result="blur" stdDeviation="3"/>
        <feFlood result="flood"/>
        <feComposite in="flood" in2="SourceGraphic" operator="in" result="composite"/>
        <feBlend in="blur" in2="composite"/>
    </filter>
    <linearGradient id="b" gradientUnits="userSpaceOnUse" x1="4.196" x2="653.466" y1="195.63" y2="-229.842">
        <stop offset="0" stop-color="#3cb200"/>
        <stop offset=".13" stop-color="#3cb200"/>
        <stop offset=".216" stop-color="#dbec4d" stop-opacity="0"/>
        <stop offset=".292" stop-color="#87cd24" stop-opacity="0"/>
        <stop offset=".378" stop-color="#3cb300"/>
        <stop offset=".476" stop-color="#3aaf00"/>
        <stop offset=".547" stop-color="#3cb300"/>
        <stop offset=".661" stop-color="#b6e100" stop-opacity="0"/>
        <stop offset="1" stop-color="#ff0" stop-opacity="0"/>
    </linearGradient>
    <path d="M399.343 61.476q0 .066-.07.176-.045.07-.147.202-.102.13-.128.17l.105.034q.103.031.103.112l-.083.013-.015-.001v-.012q-.023-.005-.037-.005-.026 0-.084.008-.057.009-.087.009-.037 0-.061-.014t-.024-.05q0-.03.108-.167l.203-.26q.109-.148.109-.198 0-.02-.014-.03-.013-.01-.052-.01-.026 0-.11.052-.041.026-.066.026l-.024-.005q-.008-.005-.018-.02-.01-.017-.01-.027 0-.059.113-.108.097-.042.168-.042.06 0 .093.045.028.039.028.102zm-.644 0q0 .066-.07.176-.045.07-.147.202-.102.13-.128.17l.105.034q.103.031.103.112l-.083.013-.015-.001v-.012q-.023-.005-.037-.005-.026 0-.084.008-.057.009-.087.009-.037 0-.061-.014t-.024-.05q0-.03.108-.167l.203-.26q.109-.148.109-.198 0-.02-.014-.03-.013-.01-.052-.01-.026 0-.11.052-.041.026-.066.026l-.024-.005q-.008-.005-.018-.02-.01-.017-.01-.027 0-.059.113-.108.097-.042.168-.042.06 0 .093.045.028.039.028.102zm-.641.252q0 .17-.184.3-.168.119-.346.119-.088 0-.14-.045-.051-.045-.051-.13 0-.19.166-.33.158-.134.354-.134.1 0 .15.059.05.059.05.161zm-.086.032q0-.064-.073-.096-.054-.024-.13-.024-.11 0-.23.108-.121.107-.121.217 0 .044.022.064.024.018.072.018.137 0 .285-.075.175-.09.175-.212zm-.756-.284q0 .066-.07.176-.045.07-.147.202-.102.13-.127.17l.105.034q.102.031.102.112l-.083.013-.015-.001v-.012q-.022-.005-.036-.005-.027 0-.084.008-.058.009-.087.009-.038 0-.062-.014t-.024-.05q0-.03.108-.167.202-.257.203-.26.11-.148.11-.198 0-.02-.015-.03-.012-.01-.051-.01-.027 0-.111.052-.04.026-.066.026l-.024-.005q-.008-.005-.018-.02-.01-.017-.01-.027 0-.059.114-.108.096-.042.168-.042.06 0 .092.045.028.039.028.102zm-1.15.456q0 .069-.051.154-.059.097-.122.097-.018 0-.03-.02t-.012-.04q0-.025.053-.079.055-.054.055-.074 0-.012-.004-.025l-.006-.017q-.105.024-.214.12-.108.097-.164.11-.011-.031-.011-.063 0-.04.018-.083.013-.03.042-.074.049-.074.104-.168l.096-.17q.07-.12.102-.17.017-.025.03-.038.018-.017.043-.022.017.005.024.02.008.016.008.037 0 .048-.062.129-.112.145-.114.151-.063.095-.063.172l.003.014q.077-.038.09-.043.058-.024.099-.024.044 0 .065.03.021.03.021.076zm-.516-.5q0 .031-.074.13-.074.097-.074.15 0 .026.03.052.07.062.07.076 0 .018-.012.035-.011.017-.03.017-.015 0-.043-.017-.02-.011-.075-.055l-.033.062q-.039.074-.053.108l-.042.129q-.036.086-.09.086l-.002-.032q0-.1.065-.235.012-.025.07-.13-.111-.06-.244-.06 0-.052.02-.076.023-.025.075-.025.048 0 .12.017l.07.016q.026-.008.072-.09.113-.2.154-.229.011.018.018.037.008.018.008.035zm-.557.251q0 .059-.157.156-.151.092-.22.092-.032 0-.043-.022-.01-.023-.01-.063v-.038q.094 0 .17-.028.078-.028.135-.093-.042-.015-.085-.015-.102 0-.217.078-.126.086-.126.182 0 .093.126.13.02.005.236.038.128.02.128.069 0 .021-.046.034-.047.014-.118.014-.18 0-.283-.055-.137-.073-.137-.234 0-.168.168-.267.143-.084.325-.084.054 0 .1.025.054.03.054.081zm-.687.163q0 .044-.024.095-.023.05-.058.084v-.02l.003-.052q.004-.035.004-.051 0-.024-.007-.035-.007-.013-.03-.013-.065 0-.163.102l-.211.223-.017-.002-.028-.007q.004-.05.035-.112.083-.166.085-.177l.017-.066q.006-.021.016-.044.01-.023.025-.042.015-.02.039-.029l.014.168.092-.076q.062-.049.107-.049t.073.03q.028.03.028.073zm-.59.029q0 .143-.082.224-.083.081-.229.081-.08 0-.123-.038-.043-.037-.043-.116 0-.11.144-.222.137-.107.253-.107.054 0 .07.066.01.038.01.112zm-.085.04q0-.018-.004-.033-.003-.017-.011-.038-.023.016-.075.076-.026.03-.046.045 0-.027.006-.044l.018-.04q-.061 0-.128.051-.066.052-.066.112 0 .041.045.041.085 0 .165-.042.096-.05.096-.129zm-.436.206q0 .026-.022.04-.021.012-.048.012-.023 0-.06-.005-.082-.013-.106-.013-.042 0-.165.01-.07.005-.101.005-.086 0-.086-.085 0-.081.054-.232.029-.086.11-.28.073-.175.093-.247l.01-.03q.012-.016.029-.016.026 0 .045.04.018.037.018.068 0 .049-.058.165l-.112.225q-.06.132-.06.2 0 .036.03.05.02.01.061.01.03 0 .107-.008.075-.008.1-.008.063 0 .104.018.057.025.057.081zm-1.216-.271q0 .095-.046.203-.05.119-.125.164-.015-.019-.027-.041-.01-.022-.01-.045 0-.024.07-.141.031-.052.028-.091v-.018q-.052.015-.18.093l-.255.157q-.02 0-.036-.014-.015-.015-.015-.033 0-.03.093-.198l.101-.175q.023.03.03.066.007.035.007.084v.032q.128-.077.201-.116.08-.043.11-.043.019 0 .036.044.018.045.018.072zm-.65.082q0 .069-.052.154-.058.097-.121.097-.019 0-.031-.02-.011-.02-.011-.04 0-.025.053-.079.054-.054.054-.074 0-.012-.004-.025l-.006-.017q-.105.024-.214.12-.108.097-.164.11-.01-.031-.01-.063 0-.04.017-.083.013-.03.042-.074.05-.074.104-.168l.097-.17q.07-.12.102-.17.017-.025.03-.038.017-.017.043-.022.016.005.023.02.008.016.008.037 0 .048-.061.129-.112.145-.115.151-.063.095-.063.172l.003.014q.077-.038.09-.043.058-.024.099-.024.045 0 .066.03.02.03.02.076zm-.577-.057q0 .143-.082.224-.083.081-.228.081-.08 0-.124-.038-.043-.037-.043-.116 0-.11.144-.222.137-.107.254-.107.053 0 .07.066.01.038.01.112zm-.085.04q0-.018-.004-.033-.003-.017-.011-.038-.023.016-.074.076-.027.03-.047.045 0-.027.006-.044l.019-.04q-.062 0-.13.051-.065.052-.065.112 0 .041.045.041.085 0 .165-.042.097-.05.097-.129zm-.454-.183q0 .168-.04.283-.06.17-.193.17-.089 0-.185-.04-.116-.049-.128-.12.04 0 .093.014.123.032.154.032.119 0 .179-.119.048-.095.048-.228 0-.094-.062-.268-.06-.175-.06-.243 0-.021.01-.034.014-.014.035-.014.054 0 .106.252.043.213.043.315z" fill="#fff" fill-opacity=".5"/>
    <g fill="#000005">
        <path d="M30.911 93.596h1.281v2.7h2.975v-2.7h1.549v7.1h-1.549v-3.018h-2.975v3.019h-1.537V93.596zM45.561 96.626q.012.116.012.244.01.117.01.234 0 2.487-2.138 3.455-.825.287-1.538.287-1.281 0-2.295-.904-1.17-1.244-1.17-2.764 0-.67.234-1.392.814-2.233 3.109-2.392 3.308.021 3.776 3.232zm-5.436.776q.067 1.35 1.147 1.902h.056q.044.022.078.032l.089.022.045.02.234.054q2.05-.01 2.139-2.01.01-.095.01-.18v-.18q0-2.18-2.094-2.265-1.715.32-1.715 2.275v.17q0 .075.01.16zM47.444 93.575h1.883l.078.117.033.053.045.053.078.117q.09.085.134.17.055.074.078.128.044.042.055.095l.145.138.034.075.066.095.034.043.011.053q.123.085.167.18l.034.075.077.085.067.096.011.042q.134.128.156.192l.023.042q.033.043.055.085.023.032.045.054l.033.042.078.128.045.02.022.054.1.149q.045.053.067.096l.056-.022.022-.064.312-.403.056-.085.2-.288q.112-.106.145-.223l.067-.074.056-.053.067-.107.055-.031.045-.086q.056-.106.123-.17l.044-.095q.045-.053.078-.085l.056-.053.022-.054.045-.063.033-.032.022-.064.045-.043.044-.063.045-.054.178-.265h1.983v7.1h-1.46q-.088-.02-.088-.074 0-.042.01-.053v-4.73q0-.064-.01-.107 0-.053-.011-.106l-.1.106q-.023.064-.079.117-.055.085-.1.16-.044.064-.089.117l-.078.117-.39.531-.178.266-.056.074q-.044.064-.089.117l-.09.085-.033.075q-.055.085-.122.17-.056.074-.123.138l-.033.085-.056.053-.022.053q-.045.075-.09.128-.044.042-.088.074-.023.075-.056.128-.033.042-.056.085-.089.117-.167.212-.078.096-.145.16-.044-.075-.089-.117-.033-.053-.056-.074l-.01-.064-.056-.053-.034-.043-.022-.064-.067-.074-.078-.117-.033-.032q-.09-.096-.134-.16l-.056-.116-.089-.117q-.022-.021-.022-.032l.011-.01-.09-.086-.077-.095q-.056-.086-.112-.16-.044-.074-.078-.127l-.078-.096-.055-.075-.045-.074q-.1-.074-.145-.202l-.055-.064-.1-.17-.067-.053q-.045-.053-.078-.096l-.056-.085-.022-.053-.056-.064-.011-.053q-.034-.032-.045-.064-.044-.01-.044-.02-.023-.022-.023-.033l.012-.01-.268-.32v5.093h-.022.022-.044.022-.045.023-.045.022-.033.011-.033.022-.045.023-.045.022-.044.022-.033.01-.033.023-.045.022-.044.022-.044.022-.034.012-.034.022-.044.022-.044.022-.034.012-.034.022-.033.011-.033.022-.045.023-.045.022-.033.011-.033.022-.045.023-.045.022-.033.011-.033.022-.045.023-.045.022-.044.022-.033.01-.033.023-.045.022-.044.022-.044.022-.034.012-.034.022-.044.022-.044.022-.034.012-.023.011-.033.022-.044.022-.044.022-.045.023-.034.011-.033.022-.044.022-.045.023-.045.022-.033.011-.033.022-.045.023-.045.022-.033.011-.033.022-.045.023-.045.022-.044.022-.033.01-.022.012-.034.022-.044.022-.044.022-.033.01-.033.023-.045.022-.044.022-.045.023-.034.011-.033.022-.044.022-.045.023-.045.022-.022v-7.101zM57.248 93.575h4.824v1.414h-3.353v1.424h3.041v1.329H58.72v1.477q.033.064.111.064h3.543v1.414h-5.18v-7.122zM64.668 93.575h3.309l.067.021h.055l.156.021.312.075q.836.35 1.192 1.041.2.447.2.83 0 .754-.768 1.265.824.372 1.014 1.126.022.15.033.298.011.138.011.276 0 1.425-1.392 1.999H68.8q-.234.106-.434.117l-.134.032-.056.02H64.4v-7.121zm1.248 2.86h1.793l.112-.022q.534-.255.534-.712 0-.053-.01-.096 0-.053-.012-.106-.122-.277-.334-.436-.056-.01-.1-.032-.034-.021-.078-.042l-.067-.022h-.123q-.044-.01-.089-.01h-1.627zm0 2.87h1.637q.346 0 .424-.043.601-.298.601-.85 0-.043-.01-.075v-.074q-.146-.457-.547-.66l-.122-.02q-.067-.011-.123-.033h-1.86zM72.232 93.564h3.332q.055.01.089.021h.1q.011-.01.033-.01l.245.042.034.01h.056l.033.022.3.096q.892.446 1.193 1.244.134.446.134.84 0 1.317-1.482 1.966l.044.021q.045.085.078.17.045.075.09.128l.055.106q.045.064.056.106l.09.117q.055.085.088.16.045.063.09.138.11.138.144.266.056.074.1.138.056.064.078.117.067.117.1.191l.034.053.034.064.066.064.134.244q.067.096.1.16l.067.095.022.043.023.053q.089.128.145.245.066.106.111.202h-1.771l-.023-.032-.033-.043-.022-.042-.134-.224-.011-.042q-.1-.085-.123-.213-.122-.117-.156-.244l-.1-.138q-.033-.064-.056-.128l-.055-.064-.067-.117-.034-.074q-.055-.074-.111-.128-.045-.053-.067-.106-.045-.085-.078-.138l-.056-.106-.022-.064q-.111-.106-.156-.234l-.045-.053-.01-.064-.045-.021-.045-.117q-.033-.01-.033-.032l.01-.01q-.155-.181-.222-.33h-.98v2.764h-1.527v-7.112zm1.37 3.008h1.884l.222-.063q.524-.287.524-.787 0-.032-.011-.064v-.074q-.145-.425-.513-.617h-.044l-.045-.01-.256-.064h-1.76zM79.93 93.575h4.825v1.414H81.4v1.424h3.042v1.329H81.4v1.477q.034.064.112.064h3.542v1.414h-5.18v-7.122zM86.526 93.596h1.192q.09 0 .167.01.078 0 .145.011v.053l.078.309.022.117v.031q.012.011.012.022 0 .01.01.01l.023.054.033.127.056.298.022.042v.053q.078.139.078.32l.034.095v.064q.044.085.055.17.023.074.034.149l.033.085.023.095.022.117q.044.117.056.234.022.106.033.192l.045.127q.022.064.033.128.022.053.022.106l.023.106q.022.085.044.16.022.074.034.16.044.116.055.212l.045.17q.055.16.067.297l.022.096.056.18.022.128.078.266.022-.085.022-.064v-.053l.012-.064q.022-.095.044-.17.022-.085.045-.16v-.074l.01-.053.068-.244v-.053l.01-.075.012-.064.022-.053v-.042l.045-.138v-.054q.011-.106.033-.19.045-.075.045-.16.022-.117.044-.202.023-.096.034-.17l.022-.096.022-.064.112-.531.01-.096.023-.053q.023-.075.034-.128l.022-.106v-.064l.045-.149.077-.372.023-.042.033-.213.023-.053v-.064L90.18 94q.011-.085.023-.16.01-.074.033-.127l.011-.117h1.794l.022.128.034.138v.074q.078.245.1.415l.067.265.055.224.012.095.022.128.01.106.023.117.045.096.022.117.011.085v.053q.067.149.067.266v.032q.011 0 .011.01t.011.01l.011.033v.064l.045.148.033.213.045.117.022.117v.053l.034.149.01.106q.068.16.068.276l.01.086q.067.148.067.233l.023.054.01.159.045.149.023.106q.078.138.078.372l.055-.106v-.075l.034-.159.044-.106q.012-.085.023-.15.01-.063.033-.116l.045-.149.01-.106.023-.032.022-.138.078-.255.023-.128.033-.138.022-.128.045-.127.011-.075.034-.148.122-.468.022-.107.034-.148.044-.128.023-.117.033-.117.022-.064v-.074l.023-.074.033-.096.033-.223.045-.15.033-.137v-.043l.023-.053.022-.064v-.053l.033-.138.023-.043v-.063q.078-.139.078-.298h1.582v.053l-.023.117-.055.149-.023.127-.066.266-.012.043q-.022.117-.044.202t-.045.16l-.022.105q-.011.043-.022.075l-.123.489-.022.053v.064l-.011.106-.045.149q-.022.064-.033.117-.011.053-.022.096l-.023.042-.022.138q-.022.075-.034.138 0 .064-.01.117-.056.117-.068.192l-.01.074-.023.053-.022.107q-.012.042-.023.074l-.022.117-.011.074-.022.043-.023.117-.078.265-.067.32-.022.138-.044.138-.023.106-.011.085-.044.085-.045.223-.056.234-.022.064q-.033.213-.1.35v.075q-.045.075-.045.234l-.022.064-.022.053-.034.149-.022.127-.078.266-.022.128-.078.34H92.553q-.034.01-.067.01-.178 0-.312-.031v-.054l-.011-.042v-.053l-.022-.053-.045-.224-.1-.425-.011-.138q-.045-.127-.067-.234-.011-.106-.022-.191l-.09-.298-.01-.127-.023-.128-.045-.117v-.074l-.055-.213v-.064q-.09-.255-.1-.425l-.045-.117v-.095q-.011-.011-.011-.054l-.023-.031-.077-.404-.012-.075-.066-.308-.034-.138-.022-.085v-.075l-.022-.074-.034-.128v-.053l-.044-.149-.045-.127-.011.053-.022.106-.023.085-.01.107-.079.35-.044.128v.053l-.078.308-.023.139-.033.159-.045.138-.01.149-.045.16-.045.212q-.056.213-.067.35l-.033.118-.022.095v.054q-.045.074-.045.18-.033.096-.033.181l-.045.085-.045.266-.01.095-.023.064-.078.34-.056.256-.022.116-.033.139-.067.308H88.52q-.034.01-.067.01-.167 0-.3-.031l-.023-.15q-.09-.244-.1-.424-.023-.032-.034-.139l-.044-.138-.034-.16-.044-.127-.023-.149-.022-.074q-.022-.064-.033-.106 0-.053-.011-.085-.012-.011-.012-.064l-.022-.075-.089-.319v-.074q-.078-.138-.078-.33-.022-.084-.045-.159-.022-.074-.033-.149l-.045-.095-.01-.16q-.023-.021-.023-.053l-.09-.372-.044-.138v-.064q-.022-.117-.044-.17-.011-.064-.011-.074-.011-.022-.023-.054l-.022-.074-.033-.128-.023-.138q-.055-.127-.066-.234-.023-.117-.045-.191-.011-.074-.022-.117-.011-.021-.011-.053t-.012-.053l-.044-.096-.011-.085-.023-.106-.022-.096q-.011-.01-.011-.096l-.045-.074-.055-.298q-.056-.127-.067-.233-.034-.107-.034-.192-.089-.223-.1-.393-.055-.117-.067-.202v-.117q-.044-.106-.066-.202zM124.243 93.564h5.954v1.403h-2.21v5.709h-1.626v-5.709h-2.2v-1.403zM131.929 93.596h1.333v7.1h-1.602v-7.1zM135.894 93.564h3.381l.047.01h.058l.14.022.06.021.292.053q1.65.734 1.65 2.18 0 .233-.036.467-.62 1.882-2.597 1.882-.246 0-.526-.032h-1.03v2.487h-1.614v-7.09zm1.44 3.264h1.719q.222-.043.222-.054.643-.35.643-.893 0-.074-.023-.16-.012-.095-.035-.212-.187-.393-.597-.552h-.07q-.269-.064-.491-.064h-1.369zM143.416 93.575h1.334v5.687h3.45v1.414h-5.065v-7.101zM149.721 93.575h5.065v1.414h-3.52v1.424h3.193v1.329h-3.194v1.477q.035.064.117.064h3.72v1.414h-5.44v-7.122zM110.5 93.617h1.401v4.475l.12.404q.493.819 1.369.883.93-.075 1.38-.798v-.063q.054-.139.087-.277.043-.138.054-.287.011-.074.011-.138.011-.074.011-.138v-4.06h1.5v4.57q-.011.053-.022.085v.053l-.022.043q-.022.117-.044.223-.01.096-.033.18-.437 1.17-1.433 1.702-.756.382-1.478.382-.482 0-.941-.16-2.113-.775-2.113-3.114 0-.287.033-.606v-3.38zM118.917 93.575h1.248v5.687h3.23v1.414h-4.74v-7.101zM101.677 93.575h1.693l.07.117.03.053.04.053.07.117q.08.085.12.17.05.074.07.128.04.042.05.095l.13.138.03.075.06.095.03.043.01.053q.11.085.15.18l.03.075.071.085.06.096.01.042q.12.128.14.192l.02.042q.03.043.05.085.02.032.04.054l.03.042.07.128.04.02.02.054q.05.085.09.149.041.053.061.096l.05-.022.02-.064.28-.403.05-.086.18-.287q.1-.106.13-.223l.061-.074.05-.053.06-.107.05-.031.04-.086q.05-.106.11-.17l.04-.095q.04-.053.07-.085l.05-.053.02-.054.04-.063.031-.032.02-.064.04-.043.04-.063.04-.054.16-.265h1.783v7.1h-1.312q-.08-.02-.08-.074 0-.042.01-.053v-4.73q0-.064-.01-.107 0-.053-.01-.106l-.09.106q-.02.064-.07.117-.05.085-.09.16-.04.064-.08.117l-.07.117-.35.531-.161.266-.05.074q-.04.064-.08.117l-.08.085-.03.075q-.05.085-.11.17-.05.074-.11.138l-.03.085-.051.053-.02.053q-.04.075-.08.128-.04.042-.08.074-.02.075-.05.128-.03.042-.05.085-.08.117-.15.212-.07.096-.13.16-.04-.075-.08-.117-.03-.053-.05-.074l-.01-.064-.051-.053-.03-.043-.02-.064-.06-.074-.07-.117-.03-.032q-.08-.096-.12-.16l-.05-.116-.08-.117q-.02-.021-.02-.032l.01-.01-.08-.086-.071-.095q-.05-.086-.1-.16l-.07-.127-.07-.096-.05-.075-.04-.074q-.09-.074-.13-.202l-.05-.064-.09-.17-.061-.053q-.04-.053-.07-.096-.03-.053-.05-.085l-.02-.053-.05-.064-.01-.053q-.03-.032-.04-.064-.04-.01-.04-.02-.02-.022-.02-.033l.01-.01-.24-.32v5.093h-.02.02-.04.02-.041.02-.04.02-.03.01-.03.02-.04.02-.04.02-.04.02-.03.01-.03.02-.04.02-.04.02-.04.02-.03.01-.03.02-.04.02-.04.02-.03.01-.03.02-.031.01-.03.02-.04.02-.04.02-.03.01-.03.02-.04.02-.04.02-.03.01-.03.02-.041.02-.04.02-.04.02-.03.01-.03.02-.04.02-.04.02-.04.02-.03.01-.03.02-.04.02-.041.02-.03.01-.02.01-.03.02-.04.02-.04.02-.04.02-.03.01-.03.02-.04.02-.04.02-.041.02-.03.01-.03.02-.04.02-.04.02-.03.01-.03.02-.04.02-.04.02-.04.02-.031.01-.02.01-.03.02-.04.02-.04.02-.03.01-.03.02-.04.02-.04.02-.04.02-.03.01-.03.02-.04.02-.04.02-.04.02-.02v-7.101zM261.882 93.575h1.854l.076.117.033.053.044.053.077.117q.088.085.132.17.054.074.076.128.044.042.055.095l.143.138.033.075.065.095.033.043.011.053q.121.085.165.18l.033.075.077.085.065.096.011.042q.132.128.154.192l.022.042q.033.043.055.085.022.032.044.054l.032.042.077.128.044.02.022.054q.055.085.099.149.044.053.066.096l.054-.022.022-.064.307-.403.055-.086.198-.287q.11-.106.142-.223l.066-.074.055-.053.066-.107.054-.031.044-.086q.055-.106.121-.17l.044-.095q.044-.053.077-.085l.054-.053.022-.054.044-.063.033-.032.022-.064.044-.043.044-.063.044-.054.175-.265h1.952v7.1h-1.436q-.088-.02-.088-.074 0-.042.01-.053v-4.73q0-.064-.01-.107 0-.053-.011-.106l-.099.106q-.022.064-.077.117-.054.085-.098.16-.044.063-.088.117l-.077.117-.384.531-.175.266-.055.074q-.044.064-.088.117l-.087.085-.033.075q-.055.085-.121.17-.055.074-.12.138l-.033.085-.055.053-.022.053q-.044.075-.088.128-.044.042-.088.074-.022.075-.055.128-.032.042-.054.085-.088.117-.165.212-.077.096-.142.16-.044-.075-.088-.117-.033-.053-.055-.075l-.011-.063-.055-.053-.033-.043-.022-.064-.065-.074-.077-.117-.033-.032q-.088-.096-.132-.16l-.055-.116-.087-.117q-.022-.022-.022-.032l.01-.01-.087-.086-.077-.096q-.055-.085-.11-.159l-.076-.128-.077-.095-.055-.075-.044-.074q-.099-.074-.142-.202l-.055-.064-.099-.17-.066-.053q-.044-.053-.076-.096-.033-.053-.055-.085l-.022-.053-.055-.064-.011-.053q-.033-.032-.044-.064-.044-.01-.044-.02-.022-.022-.022-.033l.011-.01-.263-.32v5.093h-.022.022-.044.022-.044.022-.044.022-.033.011-.033.022-.044.022-.044.022-.044.022-.033.011-.033.022-.044.022-.044.022H263h.022-.033.011-.033.022-.044.022-.044.022-.033.011-.032.021-.032.01-.032.022-.044.022-.044.022-.033.01-.032.022-.044.022-.044.022-.033.01-.032.022-.044.022-.044.022-.044.022-.033.01-.032.022-.044.022-.044.022-.044.022-.033.01-.032.022-.044.022-.044.022-.033.011-.022.011-.033.022-.044.022-.044.022-.044.022-.033.011-.033.022-.044.022-.044.022-.044.022-.033.011-.033.022-.044.022-.044.022-.033.011-.032.021-.043.021-.043.021-.043.021-.032.01-.021.01-.032.022-.044.022-.044.022-.033.01-.032.022-.044.022-.044.022-.044.022-.033.01-.032.022-.044.022-.044.022-.044.022-.022v-7.101zM273.178 93.575h1.842v.053q.044.085.066.16.033.074.044.148l.044.128.022.074q.01.01.01.053.022.085.033.085.011-.01.011.032.055.085.055.138l.121.309v.042q.044.085.066.17.033.075.044.16.054.117.076.202.033.085.044.149.011.02.011.053.011.032.022.053l.044.074q.022.053.033.096.011.032.022.053v.064q.022.021.022.053.044.064.055.138l.11.298.021.074.022.043.033.17.044.074.044.085.01.064.023.074.044.107.022.085.021.064v.053q.022.064.033.106.022.043.044.106l.12.298.023.106.055.107.043.117v.053l.033.063.022.075.022.085q.077.17.12.308.045.138.067.255.022.022.022.053.153.32.197.553l.022.053.022.075.022.085.022.053.01.074q.022.054.033.064.011.01.011.043v.032q.011 0 .011.01t.011.01l.033.065V100.187q.011 0 .011.01 0 .011.011.011.055.085.066.149.022.074.044.127.022.054.033.096l.033.117h-1.667l-.033-.117v-.074l-.044-.053v-.064q-.022-.043-.033-.075 0-.042-.01-.063-.012-.011-.012-.043l-.044-.053v-.053l-.022-.085-.054-.117-.132-.468h-2.742l-.021.085-.022.096-.033.074-.022.106q-.011.043-.033.086l-.033.127-.066.191-.01.075-.023.042q-.033.117-.065.16l-.055.223h-1.645l.033-.149.065-.191.011-.064.022-.042.022-.054.022-.042.099-.298.022-.053v-.053l.022-.085.044-.075.054-.202.044-.106.033-.096q.033-.106.066-.19.033-.086.055-.15l.055-.16q.021-.105.054-.19.033-.086.055-.15.022-.052.033-.084.022-.032.033-.054l.033-.159.066-.128.033-.148.021-.032q.022-.107.044-.18.033-.086.077-.16l.022-.15.165-.403.032-.128.022-.053.022-.064q.055-.18.12-.287l.023-.117.022-.053v-.064l.022-.053.131-.34.022-.106.044-.085.033-.075q.044-.202.099-.297l.021-.096.033-.096q.022-.106.055-.19l.055-.14.022-.084.022-.075q.022-.053.044-.095.022-.053.033-.096l.065-.191.011-.064.154-.425zm.822 1.637-.055.212-.022.032-.098.33-.099.319-.022.042-.12.404-.022.075-.121.318-.033.096q-.022.149-.066.255-.01.107-.065.202l-.022.075q-.033.148-.077.191l-.11.404h1.941l-.044-.149-.12-.35-.099-.32q-.033-.085-.055-.16-.022-.084-.044-.137l-.01-.032q-.023-.096-.045-.149-.022-.064-.033-.085l-.01-.064-.022-.074-.044-.096-.022-.117-.011-.074-.044-.043-.022-.117-.011-.074q-.022-.032-.033-.064 0-.032-.01-.053l-.023-.064q-.022-.064-.055-.127-.022-.064-.044-.139l-.01-.063-.012-.032-.043-.16-.022-.063-.099-.234zM285.043 95.637l-.076.053-.33.117-.076.043-.077.02q-.132.086-.241.096l-.099.022-.044.042h-.055l-.033.032h-.055l-.043.043h-.055l-.044.042-.077.01-.208.075q-.395-1.403-1.69-1.403-.12 0-.251.021-.132.011-.286.032-1.315.479-1.315 1.882v.064q-.033.255-.033.478 0 1.137.778 1.796.505.33 1.053.33.395 0 .537-.075 1.042-.33 1.196-1.318.186.032.296.107.088.02.164.053.088.021.165.064l.077.042.12.021.055.022.132.053.076.021.055.043q.044.01.077.02.044.011.088.033l.22.074q-.768 2.052-2.852 2.232-.088.011-.187.011h-.175q-1.875 0-2.84-1.403-.68-1.17-.68-2.317 0-.404.088-.798.087-.404.252-.808.822-1.828 2.72-2.072h.153q.077-.011.164-.011 2.534 0 3.356 2.211zM287.006 93.596h1.261v2.7h2.929v-2.7h1.524v7.1h-1.524v-3.018h-2.928v3.019h-1.514V93.596zM295.231 93.596h1.25v7.1h-1.502v-7.1zM298.85 93.564h1.623l.077.128.077.106.077.117.076.106.077.117.055.053.022.064q.022.021.022.032.131.16.186.276.143.16.198.277l.076.095.066.117q.033.043.055.075l.044.042.022.064q.077.074.098.149.187.191.264.393l.076.106q.022.022.022.032v.011q.077.074.121.149.055.064.099.127l.065.117.055.096.077.117.088.074.055.096.044.085q.11.128.164.255l.055.075.044.063.055.053q.043.075.076.128.033.053.055.106l.055.053.044.054.01.053.045.021q.055.128.142.213l.011.053q.022.021.022.032.088.085.143.18.066.096.11.181l.01-.138v-4.603h1.514v7.09h-1.261.033-.483l-.022-.032q-.088-.085-.099-.148-.032-.011-.032-.032l.01-.01q-.175-.171-.252-.352-.022-.021-.022-.032l.011-.01-.076-.107q-.121-.106-.165-.223l-.099-.117-.065-.117-.077-.138q-.132-.138-.198-.255l-.032-.042q-.044-.085-.088-.15-.044-.063-.088-.116l-.011-.032-.044-.053-.175-.266-.055-.074q-.022-.043-.044-.064-.022-.021-.022-.032l.011-.01-.044-.022-.077-.128-.022-.042q-.065-.085-.087-.138-.055-.043-.066-.096l-.077-.074-.066-.117-.044-.096-.033-.01-.263-.383-.022-.064-.044-.074-.055-.054-.043-.063-.022-.053-.099-.096q-.033-.043-.055-.085l-.044-.075q-.088-.106-.098-.191-.044-.01-.044-.042l-.044-.022-.011-.042-.077-.128-.186-.244v4.751h-1.503v-7.09zM307.546 93.575h4.749v1.414h-3.301v1.424h2.994v1.329h-2.994v1.477q.033.064.11.064h3.487v1.414h-5.1v-7.122zM317.838 93.575h4.691v1.414h-3.261v1.424h2.958v1.329h-2.958v1.477q.032.064.108.064h3.446v1.414h-5.038v-7.122zM324.87 93.575h1.83l.076.117.033.053.043.053.076.117q.087.085.13.17.054.074.076.128.043.042.054.095l.14.138.033.075.065.095.033.043.01.053q.12.085.163.18l.033.075.075.085.065.096.011.043q.13.127.152.19l.022.043q.032.043.054.085.021.032.043.054l.033.042.075.128.044.02.021.054.098.149q.043.053.065.096l.054-.022.022-.064.303-.403.054-.085.195-.287q.109-.107.141-.224l.065-.074.054-.053.065-.107.055-.031.043-.086q.054-.106.12-.17l.042-.095q.044-.053.076-.085l.054-.053.022-.054.043-.063.033-.032.022-.064.043-.043.043-.063.043-.054.174-.265h1.928v7.1h-1.419q-.087-.02-.087-.074 0-.042.011-.053v-4.73q0-.064-.01-.107 0-.053-.011-.106l-.098.106q-.022.064-.076.117-.054.085-.097.16-.044.064-.087.117l-.076.117-.379.531-.173.266-.055.074q-.043.064-.086.117l-.087.085-.032.075q-.055.085-.12.17-.054.074-.119.138l-.032.085-.054.053-.022.053q-.043.075-.087.128-.043.042-.086.074-.022.075-.055.128-.032.042-.054.085-.086.117-.162.212-.076.096-.141.16-.043-.075-.087-.117-.032-.053-.054-.074l-.01-.064-.055-.053-.032-.043-.022-.064-.065-.074-.076-.117-.032-.032q-.087-.096-.13-.16l-.055-.116-.086-.117q-.022-.022-.022-.032l.01-.01-.086-.086q-.032-.042-.076-.095-.054-.086-.108-.16-.043-.074-.076-.127l-.076-.096-.054-.075-.043-.074q-.098-.074-.14-.202l-.055-.064-.098-.17-.065-.053q-.043-.053-.075-.096-.033-.053-.055-.085l-.021-.053-.055-.064-.01-.053q-.033-.032-.044-.064-.043-.01-.043-.02-.022-.022-.022-.033l.011-.01-.26-.32v5.093h-.022.022-.043.022-.044.022-.043.021-.032.01-.032.022-.043.021-.043.022-.044.022-.032.01-.032.022-.044.022-.043.021-.043.022-.033.011-.032.021-.043.022-.044.022-.032.01-.032.022-.033.01-.032.022-.043.021-.043.022-.033.011-.032.021-.043.022-.044.022-.032.01-.032.022-.044.022-.043.021-.043.022-.033.011-.032.021-.043.022-.044.022-.043.022-.033.01-.032.022-.043.021-.043.022-.033.011-.022.011-.032.021-.043.022-.043.021-.043.022-.033.01-.032.022-.043.022-.044.022-.043.021-.032.01-.032.022-.043.021-.043.022-.033.01-.032.022-.043.022-.044.022-.043.021-.032.01-.021.01-.032.022-.043.021-.043.022-.033.011-.032.021-.043.022-.044.022-.043.021-.032.01-.032.022-.043.021-.043.022-.044.022-.022v-7.101zM334.35 93.617h1.386v4.476l.12.403q.487.819 1.354.883.92-.075 1.365-.798v-.063q.054-.138.087-.277.043-.138.054-.287.01-.074.01-.138.012-.074.012-.138v-4.06h1.484v4.57q-.01.053-.022.085v.053l-.021.043q-.022.117-.044.223-.01.096-.032.18-.434 1.17-1.42 1.702-.747.382-1.462.382-.477 0-.932-.16-2.091-.775-2.091-3.114 0-.287.032-.606v-3.38zM342.681 93.575h1.236v5.687h3.196v1.414h-4.692v-7.101zM351.114 93.575h1.82v.053q.043.085.065.16.032.074.043.148l.044.128.021.074q.011.01.011.053.022.085.033.085.01-.01.01.032.055.085.055.138l.119.309v.042q.043.085.065.17.032.075.043.16.054.117.076.202.032.085.043.149.01.02.01.053.012.032.023.053l.043.074q.022.053.032.096.011.032.022.053v.064q.022.021.022.053.043.064.054.138l.108.298.022.074.022.043.032.17.044.074.043.085.01.064.022.074.044.107.021.085.022.064v.053q.022.064.033.106.021.043.043.106l.119.298.022.106.054.107.043.116v.054l.033.063.021.075.022.085q.076.17.12.308.043.138.064.255.022.022.022.053.152.32.195.553l.022.053.021.075.022.085.022.053.01.074q.022.054.033.064.01.01.01.043v.032q.012 0 .012.01t.01.01l.033.065V100.187q.01 0 .01.01t.012.01q.054.086.065.15.021.074.043.127.022.053.032.096l.033.117h-1.647l-.032-.117v-.074l-.044-.054v-.063q-.021-.043-.032-.075 0-.042-.011-.064-.01-.01-.01-.042l-.044-.053v-.054l-.022-.085-.054-.116-.13-.468h-2.709l-.021.085-.022.095-.033.075-.021.106q-.011.043-.033.085l-.032.128-.065.191-.011.074-.022.043q-.032.117-.065.16l-.054.223H348.6l.032-.15.065-.19.011-.064.022-.043.022-.053.021-.042.098-.298.021-.053v-.053l.022-.085.043-.075.055-.202.043-.106.032-.096q.033-.106.065-.191.033-.085.055-.149l.054-.16q.022-.106.054-.19.033-.086.054-.15.022-.053.033-.085.021-.031.032-.053l.033-.16.065-.127.032-.149.022-.031q.022-.107.043-.181.033-.085.076-.16l.022-.148.162-.404.033-.128.021-.053.022-.064q.054-.18.12-.287l.021-.117.022-.053v-.064l.021-.053.13-.34.022-.106.043-.085.033-.075q.043-.202.097-.297l.022-.096.033-.096q.021-.106.054-.191.032-.085.054-.138l.022-.085.021-.075q.022-.053.044-.095.021-.054.032-.096l.065-.191.011-.064.152-.425zm.812 1.637-.054.212-.022.032-.097.33-.098.319-.021.042-.12.404-.021.075-.12.318-.032.096q-.022.149-.065.255-.01.107-.065.202l-.022.075q-.032.148-.075.191l-.109.404h1.918l-.043-.149-.12-.35-.097-.32q-.032-.085-.054-.16-.022-.084-.043-.137l-.011-.032q-.022-.096-.044-.149-.021-.064-.032-.085l-.01-.064-.023-.074-.043-.096-.022-.117-.01-.074-.044-.043-.021-.117-.011-.074q-.022-.032-.033-.064 0-.032-.01-.053l-.022-.064q-.022-.064-.054-.127-.022-.064-.044-.139l-.01-.063-.011-.032-.044-.16-.021-.063-.098-.234zM356.607 93.564h6.008v1.403h-2.231v5.709h-1.64v-5.709h-2.22v-1.403zM371.03 96.626q.012.116.012.244.012.117.012.234 0 2.487-2.266 3.455-.873.287-1.629.287-1.357 0-2.431-.904-1.24-1.244-1.24-2.764 0-.67.248-1.392.862-2.233 3.293-2.392 3.506.021 4.002 3.232zm-5.76.776q.071 1.35 1.216 1.902h.06q.047.022.082.032l.094.021.048.022.247.053q2.172-.01 2.267-2.01.011-.095.011-.18v-.18q0-2.18-2.219-2.265-1.817.32-1.817 2.275v.17q0 .074.011.16zM373.084 93.564h3.53q.059.01.094.021H376.814q.012-.01.036-.01l.26.042.035.01h.059l.035.022.319.096q.944.446 1.263 1.244.141.446.141.84 0 1.317-1.57 1.966l.048.021q.047.085.082.17.048.075.095.128l.059.106q.047.064.059.106l.094.117q.06.085.095.16.047.064.094.138.118.138.153.266.06.074.107.138.059.064.082.117.071.117.106.191l.036.053.035.064.071.064.142.244q.07.096.106.16l.07.095.024.043.024.053q.094.128.153.245.071.106.118.202h-1.876l-.024-.032-.035-.043-.024-.042-.142-.224-.011-.042q-.107-.085-.13-.213-.13-.117-.165-.244-.06-.075-.107-.138-.035-.064-.059-.128l-.059-.064-.07-.117-.036-.074q-.059-.074-.118-.128-.047-.053-.07-.106-.048-.085-.083-.138l-.06-.106-.023-.064q-.118-.106-.165-.234l-.047-.053-.012-.064-.047-.021-.048-.117q-.035-.01-.035-.032l.012-.01q-.165-.181-.236-.33h-1.039v2.764h-1.617v-7.112zm1.452 3.008h1.995l.236-.063q.555-.287.555-.787 0-.032-.012-.064v-.074q-.153-.425-.543-.617h-.047l-.047-.01-.272-.064h-1.865zM213.334 93.575h1.906v.053q.045.085.068.16.034.074.045.148l.046.128.022.074q.012.01.012.053.022.085.034.085.011-.01.011.032.057.085.057.138l.125.309v.042q.045.085.068.17.034.075.045.16.057.117.08.202.034.085.045.149.011.02.011.053.012.032.023.053l.045.074q.023.053.034.096.012.032.023.053v.064q.023.021.023.053.045.064.056.138l.114.298.023.074.022.043.034.17.046.074.045.085.012.064.022.074.046.107.022.085.023.064v.053q.023.064.034.106.023.043.045.106l.125.298.023.106.057.107.045.117v.053l.034.063.023.075.022.085q.08.17.125.308.046.138.068.255.023.022.023.053.159.32.204.553l.023.053.023.075.022.085.023.053.011.074q.023.054.034.064.012.01.012.043v.032q.011 0 .011.01t.012.01l.034.065V100.187q.011 0 .011.01 0 .011.011.011.057.085.069.149.022.074.045.127.023.053.034.096l.034.117h-1.725l-.034-.117v-.074l-.045-.054v-.063q-.023-.043-.034-.075 0-.042-.011-.064-.012-.01-.012-.042l-.045-.053v-.053l-.023-.085-.057-.117-.136-.468h-2.836l-.023.085-.023.096-.034.074-.022.106q-.012.043-.034.085l-.034.128-.068.191-.012.075-.023.042q-.034.117-.068.16l-.056.223h-1.702l.034-.149.068-.191.011-.064.023-.043.023-.053.022-.042.102-.298.023-.053v-.053l.023-.085.045-.075.057-.202.045-.106.034-.095q.034-.107.068-.192t.057-.149l.057-.16q.023-.105.057-.19t.056-.15q.023-.052.034-.084.023-.032.034-.053l.034-.16.068-.127.034-.15.023-.031q.023-.106.045-.18.034-.086.08-.16l.023-.15.17-.403.034-.128.022-.053.023-.064q.057-.18.125-.287l.023-.116.022-.054v-.063l.023-.054.136-.34.023-.106.045-.085.034-.074q.046-.202.102-.298l.023-.096.034-.095q.023-.107.057-.192l.056-.138.023-.085.023-.074q.023-.054.045-.096.023-.053.034-.096l.068-.191.012-.064.159-.425zm.85 1.637-.056.212-.023.032-.102.33-.102.319-.023.042-.124.404-.023.075-.125.318-.034.096q-.023.149-.068.255-.011.107-.068.202l-.023.075q-.034.148-.08.191l-.113.404h2.009l-.046-.149-.125-.35-.102-.32q-.034-.085-.056-.16-.023-.084-.046-.137l-.011-.032q-.023-.096-.046-.149-.022-.064-.034-.085l-.011-.064-.023-.074-.045-.096-.023-.117-.011-.074-.046-.043-.022-.117-.012-.074q-.022-.032-.034-.064 0-.032-.011-.053l-.023-.064q-.022-.064-.056-.127-.023-.064-.046-.139l-.011-.063-.012-.032-.045-.16-.023-.063-.102-.234zM219.37 93.564h3.392q.057.01.09.021H222.956q.011-.01.034-.01l.25.042.034.01h.056l.034.022.307.096q.907.446 1.214 1.244.136.446.136.84 0 1.317-1.51 1.966l.046.021q.045.085.08.17.045.075.09.128l.057.106q.045.064.057.106l.09.117q.057.085.091.16.046.064.091.138.114.138.148.266.056.074.102.138.056.064.08.117.067.117.101.191l.034.053.034.064.068.064.137.244q.068.096.102.16l.068.095.022.043.023.053q.091.128.148.245.068.106.113.202h-1.804l-.023-.032-.034-.043-.022-.042-.136-.224-.012-.042q-.102-.085-.125-.213-.124-.117-.158-.244l-.103-.138q-.034-.064-.056-.128l-.057-.064-.068-.117-.034-.074q-.057-.074-.114-.128-.045-.053-.068-.106-.045-.085-.079-.138l-.057-.106-.022-.064q-.114-.106-.16-.234l-.045-.053-.011-.064-.045-.021-.046-.117q-.034-.01-.034-.032l.012-.01q-.16-.181-.227-.33h-.999v2.764h-1.554v-7.112zm1.395 3.008h1.918l.227-.063q.533-.287.533-.787 0-.032-.012-.064v-.074q-.147-.425-.521-.617h-.046l-.045-.01-.261-.064h-1.793zM233.552 95.637l-.08.053-.34.117-.08.043-.079.02q-.136.086-.25.096l-.101.022-.046.042h-.056l-.034.032h-.057l-.045.043h-.057l-.045.042-.08.01-.216.075q-.408-1.403-1.747-1.403-.125 0-.26.021-.137.011-.296.032-1.361.479-1.361 1.882v.064q-.034.255-.034.478 0 1.137.805 1.796.522.33 1.09.33.408 0 .555-.075 1.078-.33 1.237-1.318.193.032.307.107.09.02.17.053.09.021.17.064l.08.042.124.021.057.022.136.053.08.021.056.043q.046.01.08.02.045.012.09.033l.227.074q-.794 2.052-2.95 2.232-.09.011-.192.011h-.182q-1.94 0-2.938-1.403-.704-1.17-.704-2.317 0-.404.09-.798.092-.404.262-.808.85-1.828 2.814-2.072h.158q.08-.011.17-.011 2.622 0 3.473 2.211zM237.047 93.575h1.906v.053q.045.085.068.16.034.074.045.148l.045.128.023.074q.012.01.012.053.022.085.034.085.01-.01.01.032.058.085.058.138l.124.309v.042q.046.085.069.17.034.075.045.16.057.117.08.202.033.085.045.149.011.02.011.053.012.032.023.053l.045.074q.023.053.034.096.012.032.023.053v.064q.023.021.023.053.045.064.056.138l.114.298.023.074.022.043.034.17.046.074.045.085.011.064.023.074.045.107.023.085.023.064v.053q.022.064.034.106.022.043.045.106l.125.298.023.106.056.107.046.117v.053l.034.063.022.075.023.085q.08.17.125.308.045.138.068.255.023.022.023.053.159.32.204.553l.023.053.022.075.023.085.023.053.011.074q.023.054.034.064.012.01.012.043v.032q.011 0 .011.01t.011.01l.034.065V100.187q.012 0 .012.01 0 .011.011.011.057.085.068.149.023.074.046.127.022.053.034.096l.034.117h-1.725l-.034-.117v-.074l-.045-.054v-.063q-.023-.043-.034-.075 0-.042-.012-.064-.011-.01-.011-.042l-.046-.053v-.053l-.022-.085-.057-.117-.136-.468h-2.837l-.022.085-.023.096-.034.074-.023.106q-.011.043-.034.085l-.034.128-.068.191-.011.075-.023.042q-.034.117-.068.16l-.057.223h-1.702l.034-.149.069-.191.01-.064.024-.043.022-.053.023-.042.102-.298.023-.053v-.053l.022-.085.046-.075.057-.202.045-.106.034-.095q.034-.107.068-.192t.057-.149l.056-.16q.023-.105.057-.19t.057-.15q.023-.052.034-.084.023-.032.034-.053l.034-.16.068-.127.034-.15.023-.031q.022-.106.045-.18.034-.086.08-.16l.022-.15.17-.403.034-.128.023-.053.023-.064q.057-.18.125-.287l.022-.116.023-.054v-.063l.023-.054.136-.34.023-.106.045-.085.034-.074q.045-.202.102-.298l.023-.096.034-.095q.022-.107.056-.192t.057-.138l.023-.085.023-.074q.022-.054.045-.096.023-.053.034-.096l.068-.191.011-.064.16-.425zm.85 1.637-.056.212-.023.032-.102.33-.102.319-.023.042-.125.404-.022.075-.125.318-.034.096q-.023.149-.068.255-.012.107-.068.202l-.023.075q-.034.148-.08.191l-.113.404h2.008l-.045-.149-.125-.35-.102-.32q-.034-.085-.057-.16-.022-.084-.045-.137l-.011-.032q-.023-.096-.046-.149-.022-.064-.034-.085l-.011-.064-.023-.074-.045-.096-.023-.117-.011-.074-.046-.043-.022-.117-.012-.074q-.022-.032-.034-.064 0-.032-.011-.053l-.023-.064q-.023-.064-.057-.127-.022-.064-.045-.139l-.011-.063-.012-.032-.045-.16-.023-.063-.102-.234zM243.037 93.575h2.961l.057.021h.148l.045.021.33.032q2.654.83 2.654 3.412 0 .17-.011.351-.012.17-.034.351-.545 2.966-3.949 2.966-.374 0-.76-.032h-1.52v-7.122zm1.464 5.666h1.418l.136-.022q.091-.01.17-.032.091-.02.148-.042l.125-.021q1.168-.585 1.168-1.829v-.138q0-.074-.011-.16-.17-1.977-2.065-1.977h-.17q-.08 0-.17.011h-.749zM251.047 93.575h4.913v1.414h-3.415v1.424h3.097v1.329h-3.097v1.477q.034.064.113.064h3.608v1.414h-5.275v-7.122z"/>
    </g>
    <g stroke="#000">
        <g stroke-width="1.429">
            <path d="m368.063 1.822-76.211 82.319V2.285L244.488 52.98V2.285l-65.642 71.188-.008-1.422c-2.481-2.62-5.852-4.113-9.46-5.303 10.992-6.32 15.858-13.737 15.325-22.121.407-9.901-3.79-22.863-27.441-26.772H98.166l.014 102.38h80.953l-.006-.747h.344l44.35-47.44v49.298l40.042-42.323v35.348l-40.043 43.252h43.057l72.768-78.6v40.465h49.087l43.916-47.44v49.298l40.045-42.323v32.09l-6.888 8.375h111.947l27.988-29.765h-73.197l12.486-13.489h22.39l27.987-30.228h-21.959l12.057-13.022h41.766l26.697-28.838h-82.242L500.68 80.885v-78.6L453.316 52.98V2.285l-85.253 91.621zM66.55 17.855v38.53H28.453V18.039l-27.738.14v137.895L28.08 128.71V81.205h38.344v38.766h27.383V17.855zm81.982 21.303c16.656 3.153 10.17 21.942 0 20.608l-24.054.058-.012-20.637zm3.363 38.299c18.862 3.293 11.517 22.919 0 21.525l-27.242.063-.013-21.557z" filter="url(#a)" transform="scale(.7)"/>
            <path d="m257.644 1.276-53.348 57.622V1.6l-33.154 35.486V1.6l-45.95 49.83-.006-.994c-1.736-1.834-4.096-2.88-6.62-3.712 7.693-4.424 11.099-9.616 10.726-15.485.285-6.93-2.653-16.004-19.209-18.74H68.716l.01 71.665h56.667l-.004-.522h.24l31.045-33.208v34.508l28.03-29.626V80.06l-28.03 30.276h30.14l50.937-55.02v28.326h34.362l30.74-33.208v34.508l28.032-29.626V77.78l-4.822 5.863h78.363l19.592-20.836H372.78l8.74-9.442h15.674l19.59-21.16h-15.37l8.439-9.115h29.236l18.688-20.186h-57.57l-49.731 53.716V1.6L317.32 37.087V1.6l-59.677 64.134zM46.586 12.499v26.97H19.917V12.627L.5 12.726v96.526l19.156-19.156V56.844h26.84v27.135h19.169V12.5zm57.387 14.912c11.659 2.207 7.119 15.359 0 14.425l-16.838.041-.008-14.446zm2.355 26.809c13.203 2.305 8.061 16.043 0 15.068l-19.07.043-.01-15.09z" fill="#dced4d" stroke-width="1.0003"/>
            <path d="m368.063 1.822-76.211 82.319V2.285L244.488 52.98V2.285l-65.642 71.188-.008-1.422c-2.481-2.62-5.852-4.113-9.46-5.303 10.992-6.32 15.858-13.737 15.325-22.121.407-9.901-3.79-22.863-27.441-26.772H98.166l.014 102.38h80.953l-.006-.747h.344l44.35-47.44v49.298l40.042-42.323v35.348l-40.043 43.252h43.057l72.768-78.6v40.465h49.087l43.916-47.44v49.298l40.045-42.323v32.09l-6.888 8.375h111.947l27.988-29.765h-73.197l12.486-13.489h22.39l27.987-30.228h-21.959l12.057-13.022h41.766l26.697-28.838h-82.242L500.68 80.885v-78.6L453.316 52.98V2.285l-85.253 91.621zM66.55 17.855v38.53H28.453V18.039l-27.738.14v137.895L28.08 128.71V81.205h38.344v38.766h27.383V17.855zm81.982 21.303c16.656 3.153 10.17 21.942 0 20.608l-24.054.058-.012-20.637zm3.363 38.299c18.862 3.293 11.517 22.919 0 21.525l-27.242.063-.013-21.557z" fill="url(#b)" transform="scale(.7)"/>
        </g>
        <path d="m257.644 1.276-24.23 26.17 20.11-1.567 4.12-.121zm-86.502.324L139.08 36.37l32.062-3.307zm33.154 0-28.994 31.033 26.148-2.697 2.846-.222zm113.025 0-21.427 23.027 18.518-.547 2.91.133zm33.155 0L328.86 24.737l18.894.857 2.72.195zm49.731 1.303-22.973 24.813 25.19 1.814c.51.01.97-.009 1.47-.004l5.959-6.437h29.144l.174-.087 18.606-20.1zM46.586 12.499v17.18l17.054-1.8 2.025.252V12.5zm22.13 0 .003 16.01 18.41 2.283-.002-3.36 16.846-.021c4.687.887 6.724 3.545 7.06 6.343l17.66 2.19c.485-1.518.702-3.083.6-4.705.284-6.93-2.654-16.004-19.21-18.74zm-48.799.128L.5 12.726l.329 21.78 19.088-2.015z" fill="#fff" fill-opacity=".25" stroke="none"/>
    </g>
</svg>
