<?xml version="1.0" encoding="UTF-8" standalone="no"?>
<!-- Created by ERK -->

<svg
   width="897.85944mm"
   height="166.5mm"
   viewBox="0 0 897.85944 166.5"
   version="1.1"
   id="svg1"
   inkscape:version="1.4 (86a8ad7, 2024-10-11)"
   xml:space="preserve"
   sodipodi:docname="hec2hr.svg"
   xmlns:inkscape="http://www.inkscape.org/namespaces/inkscape"
   xmlns:sodipodi="http://sodipodi.sourceforge.net/DTD/sodipodi-0.dtd"
   xmlns="http://www.w3.org/2000/svg"
   xmlns:svg="http://www.w3.org/2000/svg"><sodipodi:namedview
     id="namedview1"
     pagecolor="#ffffff"
     bordercolor="#000000"
     borderopacity="0.25"
     inkscape:showpageshadow="2"
     inkscape:pageopacity="0.0"
     inkscape:pagecheckerboard="true"
     inkscape:deskcolor="#d1d1d1"
     inkscape:document-units="mm"
     inkscape:zoom="0.58236858"
     inkscape:cx="1624.4008"
     inkscape:cy="392.3632"
     inkscape:window-width="3840"
     inkscape:window-height="2066"
     inkscape:window-x="-11"
     inkscape:window-y="-11"
     inkscape:window-maximized="1"
     inkscape:current-layer="svg1" /><defs
     id="defs1"><marker
       id="DistanceX"
       orient="auto"
       refX="0"
       refY="0"
       style="overflow:visible"><path
         d="M 3,-3 -3,3 M 0,-5 V 5"
         style="stroke:#000000;stroke-width:0.5"
         id="path1" /></marker><pattern
       id="Hatch"
       patternUnits="userSpaceOnUse"
       width="8"
       height="8"
       x="0"
       y="0"><path
         d="M8 4 l-4,4"
         stroke="#000000"
         stroke-width="0.25"
         linecap="square"
         id="path2" /><path
         d="M6 2 l-4,4"
         stroke="#000000"
         stroke-width="0.25"
         linecap="square"
         id="path3" /><path
         d="M4 0 l-4,4"
         stroke="#000000"
         stroke-width="0.25"
         linecap="square"
         id="path4" /></pattern><symbol
       id="*Model_Space" /><symbol
       id="*Paper_Space" /><symbol
       id="*Paper_Space0" /><marker
       id="DistanceX-8"
       orient="auto"
       refX="0"
       refY="0"
       style="overflow:visible"><path
         d="M 3,-3 -3,3 M 0,-5 V 5"
         style="stroke:#000000;stroke-width:0.5"
         id="path1-8" /></marker><pattern
       id="Hatch-2"
       patternUnits="userSpaceOnUse"
       width="8"
       height="8"
       x="0"
       y="0"><path
         d="M8 4 l-4,4"
         stroke="#000000"
         stroke-width="0.25"
         linecap="square"
         id="path2-4" /><path
         d="M6 2 l-4,4"
         stroke="#000000"
         stroke-width="0.25"
         linecap="square"
         id="path3-5" /><path
         d="M4 0 l-4,4"
         stroke="#000000"
         stroke-width="0.25"
         linecap="square"
         id="path4-5" /></pattern><symbol
       id="*Model_Space-1" /><symbol
       id="*Paper_Space-7" /><symbol
       id="*Paper_Space0-1" /></defs><path
     id="path262"
     style="display:inline;fill:#000000;fill-opacity:1;stroke:none;stroke-width:0.944827;stroke-linecap:round"
     d="m 34.368524,114.7678 c -1.37729,1.03057 -2.52455,2.33701 -3.36857,3.8359 l -5e-5,44.88602 H 0 V 54.48976 h 30.999904 l 5e-5,33.500032 c 7.56084,-3.231731 15.74132,-4.756233 23.95866,-4.464916 12.85536,0.455741 23.04138,11.009276 23.04137,23.872684 l -3e-5,56.09216 h -32.00002 l 3e-5,-40.04279 c 4e-5,-2.91609 -1.09264,-5.72639 -3.06251,-7.87662 -2.22578,-2.42957 -5.93073,-2.77655 -8.56893,-0.80251 z"
     inkscape:label="h"
     sodipodi:nodetypes="cccccccccccccc" /><path
     id="path12"
     style="display:inline;fill:#000000;fill-opacity:1;stroke:none;stroke-width:0.944827;stroke-linecap:round"
     d="m 112.46388,115.65364 c -4.60836,4.06901 -4.45408,11.30395 0.32352,15.17277 l 13.21571,-16.32004 c -4.27238,-2.6445 -9.7727,-2.17843 -13.53923,1.14727 z m 9.73416,21.82542 c 2.54795,0.56154 5.2118,0.22341 7.5387,-0.95692 3.85209,-1.95399 7.2685,-4.66795 10.04317,-7.97826 l 11.83852,24.71147 c -12.23308,12.88217 -31.18821,16.79649 -47.52282,9.81372 -16.334556,-6.98274 -26.601446,-23.38897 -25.742856,-41.13321 0.85859,-17.74424 12.66151,-33.082578 29.593926,-38.455626 16.93247,-5.373068 35.42113,0.353048 46.3533,14.356098 z"
     inkscape:label="e"
     sodipodi:nodetypes="ccccccccssscc" /><path
     id="path45"
     style="fill:#000000;fill-opacity:1;stroke:none;stroke-width:0.944827;stroke-linecap:round"
     d="m 312.30001,123.98977 c 0,-6.90357 -5.59644,-12.5 -12.5,-12.5 -6.90357,0 -12.50001,5.59643 -12.50001,12.5 0,6.90356 5.59644,12.49999 12.50001,12.49999 6.90356,0 12.5,-5.59643 12.5,-12.49999 z m 26.49894,39.49995 5.2e-4,-22.61055 c -8.88987,20.52911 -32.17288,30.65141 -53.24942,23.15039 -21.07653,-7.50102 -32.72958,-30.05686 -26.65131,-51.58691 l -15.8988,-4e-5 3e-5,21.11513 c 3e-5,4.03892 3.6131,7.11948 7.60115,6.48089 2.15017,-0.34429 4.2689,-0.86228 6.33543,-1.54886 l -3.86493,21.91858 c -7.83756,5.92638 -18.07736,7.64696 -27.42147,4.60756 -6.25864,-2.03578 -11.50066,-6.38996 -14.6502,-12.16882 l -4e-5,-40.40448 -21.67072,4e-5 c -4.74375,5e-5 -9.1942,2.29569 -11.94408,6.16105 -2.05919,2.89451 -2.52017,6.63215 -1.22597,9.94024 3.51328,8.98026 15.44145,10.76881 21.43407,3.21384 l 14.43545,27.14933 c -21.35317,14.81673 -50.88596,7.16743 -62.36153,-16.15219 -11.47557,-23.31962 0.48152,-51.386058 25.2487,-59.265141 l 36.08408,8e-6 V 57.489765 h 32.00003 v 26.000022 h 20.00012 l -3e-5,19.239443 c 8.0327,-13.903888 23.2159,-22.093416 39.24676,-21.16896 16.03086,0.924456 30.17201,10.805042 36.55268,25.54014 l -5.2e-4,-23.610623 h 31.5013 l -1.2e-4,6.500005 c 8.01956,-5.280501 17.03987,-8.854589 26.50032,-10.499998 v 32.952856 c -4.19368,-0.36485 -8.41806,0.0695 -12.4493,1.27999 -8.34029,2.50445 -14.05114,10.18208 -14.05102,18.89025 l 1.2e-4,30.87683 z"
     inkscape:label="ctor"
     sodipodi:nodetypes="sssssccsccccccccccccccscccccccscccccccccc" /><path
     id="path68"
     style="display:inline;fill:#ffffff;fill-opacity:1;stroke:#ffffff;stroke-width:3;stroke-linecap:round;stroke-dasharray:none;stroke-opacity:1"
     d="M 433.93664,159.01735 495.83326,45.017366 H 454.87047 L 392.9712,159.01735 Z"
     sodipodi:nodetypes="ccccc"
     inkscape:label="/" /><path
     id="path5"
     style="fill:#e43434;fill-opacity:1;stroke:none;stroke-width:2;stroke-linecap:round;stroke-dasharray:none;stroke-opacity:1"
     d="M 433.93664,159.01735 495.83326,45.017366 H 454.87047 L 392.9712,159.01735 Z"
     sodipodi:nodetypes="ccccc"
     inkscape:label="/" /><path
     id="path110"
     style="fill:#e43434;fill-opacity:1;stroke:none;stroke-width:0.944827;stroke-linecap:round"
     d="m 553.95946,161.49999 a 5.0000005,5.0000005 0 0 0 -10,0 5.0000005,5.0000005 0 0 0 10,0 z m 0,-15.65 a 5.0000005,5.0000005 0 0 0 -10,0 5.0000005,5.0000005 0 0 0 10,0 z m 15.64999,0 a 5,5 0 0 0 -10,0 5,5 0 0 0 10,0 z m 0,15.65 a 5,5 0 0 0 -10,0 5,5 0 0 0 10,0 z m 15.65001,0 a 5.0000005,5.0000005 0 0 0 -10,0 5.0000005,5.0000005 0 0 0 10,0 z m 0,-15.65 a 5.0000005,5.0000005 0 0 0 -10,0 5.0000005,5.0000005 0 0 0 10,0 z m 15.65,0 a 5.0000005,5.0000005 0 0 0 -10,0 5.0000005,5.0000005 0 0 0 10,0 z m 0,15.65 a 5.0000005,5.0000005 0 0 0 -10,0 5.0000005,5.0000005 0 0 0 10,0 z m 15.65,0 a 5,5 0 0 0 -10,0 5,5 0 0 0 10,0 z m 0,-15.65 a 5,5 0 0 0 -10,0 5,5 0 0 0 10,0 z m 15.65,0 a 5.0000005,5.0000005 0 0 0 -10,0 5.0000005,5.0000005 0 0 0 10,0 z m 0,15.65 a 5.0000005,5.0000005 0 0 0 -10,0 5.0000005,5.0000005 0 0 0 10,0 z m 15.65,0 a 5.0000005,5.0000005 0 0 0 -10,0 5.0000005,5.0000005 0 0 0 10,0 z m 0,-15.65 a 5.0000005,5.0000005 0 0 0 -10,0 5.0000005,5.0000005 0 0 0 10,0 z m 0,-15.64999 a 5.0000005,5.0000005 0 0 0 -10,0 5.0000005,5.0000005 0 0 0 10,0 z m -15.65,0 a 5.0000005,5.0000005 0 0 0 -10,0 5.0000005,5.0000005 0 0 0 10,0 z m -15.65,0 a 5,5 0 0 0 -10,0 5,5 0 0 0 10,0 z m -15.65,0 a 5.0000005,5.0000005 0 0 0 -10,0 5.0000005,5.0000005 0 0 0 10,0 z m -15.65,0 a 5.0000005,5.0000005 0 0 0 -10,0 5.0000005,5.0000005 0 0 0 10,0 z m -15.65001,0 a 5,5 0 0 0 -10,0 5,5 0 0 0 10,0 z m -15.64999,0 a 5.0000005,5.0000005 0 0 0 -10,0 5.0000005,5.0000005 0 0 0 10,0 z m 31.3,-15.65 a 5.0000005,5.0000005 0 0 0 -10,0 5.0000005,5.0000005 0 0 0 10,0 z m -15.65001,0 a 5,5 0 0 0 -10,0 5,5 0 0 0 10,0 z m -15.64999,0 a 5.0000005,5.0000005 0 0 0 -10,0 5.0000005,5.0000005 0 0 0 10,0 z m 78.25,-15.649995 a 5.0000005,5.0000005 0 0 0 -10,0 5.0000005,5.0000005 0 0 0 10,0 z m -15.65,0 a 5,5 0 0 0 -10,0 5,5 0 0 0 10,0 z m -15.65,0 a 5.0000005,5.0000005 0 0 0 -10,0 5.0000005,5.0000005 0 0 0 10,0 z m -15.65,0 a 5.0000005,5.0000005 0 0 0 -10,0 5.0000005,5.0000005 0 0 0 10,0 z m -15.65001,0 a 5,5 0 0 0 -10,0 5,5 0 0 0 10,0 z m -15.64999,0 a 5.0000005,5.0000005 0 0 0 -10,0 5.0000005,5.0000005 0 0 0 10,0 z m 15.64999,-15.65 a 5,5 0 0 0 -10,0 5,5 0 0 0 10,0 z m 15.65001,0 a 5.0000005,5.0000005 0 0 0 -10,0 5.0000005,5.0000005 0 0 0 10,0 z m 15.65,0 a 5.0000005,5.0000005 0 0 0 -10,0 5.0000005,5.0000005 0 0 0 10,0 z m 15.65,0 a 5,5 0 0 0 -10,0 5,5 0 0 0 10,0 z m 15.65,0 a 5.0000005,5.0000005 0 0 0 -10,0 5.0000005,5.0000005 0 0 0 10,0 z m 15.65,0 a 5.0000005,5.0000005 0 0 0 -10,0 5.0000005,5.0000005 0 0 0 10,0 z m 0,-15.65 a 5.0000005,5.0000005 0 0 0 -10,0 5.0000005,5.0000005 0 0 0 10,0 z m -15.65,0 a 5.0000005,5.0000005 0 0 0 -10,0 5.0000005,5.0000005 0 0 0 10,0 z m -15.65,0 a 5,5 0 0 0 -10,0 5,5 0 0 0 10,0 z m -15.65,0 a 5.0000005,5.0000005 0 0 0 -10,0 5.0000005,5.0000005 0 0 0 10,0 z m -46.95,-15.649996 a 5.0000005,5.0000005 0 0 0 -10,0 5.0000005,5.0000005 0 0 0 10,0 z m 15.64999,0 a 5,5 0 0 0 -10,0 5,5 0 0 0 10,0 z m 15.65001,0 a 5.0000005,5.0000005 0 0 0 -10,0 5.0000005,5.0000005 0 0 0 10,0 z m 31.3,0 a 5,5 0 0 0 -10,0 5,5 0 0 0 10,0 z m 15.65,0 a 5.0000005,5.0000005 0 0 0 -10,0 5.0000005,5.0000005 0 0 0 10,0 z m 15.65,0 a 5.0000005,5.0000005 0 0 0 -10,0 5.0000005,5.0000005 0 0 0 10,0 z m 0,-15.65 a 5.0000005,5.0000005 0 0 0 -10,0 5.0000005,5.0000005 0 0 0 10,0 z m -15.65,0 a 5.0000005,5.0000005 0 0 0 -10,0 5.0000005,5.0000005 0 0 0 10,0 z m -15.65,0 a 5,5 0 0 0 -10,0 5,5 0 0 0 10,0 z m -15.65,0 a 5.0000005,5.0000005 0 0 0 -10,0 5.0000005,5.0000005 0 0 0 10,0 z m -15.65,0 a 5.0000005,5.0000005 0 0 0 -10,0 5.0000005,5.0000005 0 0 0 10,0 z m -15.65001,0 a 5,5 0 0 0 -10,0 5,5 0 0 0 10,0 z m -15.64999,0 a 5.0000005,5.0000005 0 0 0 -10,0 5.0000005,5.0000005 0 0 0 10,0 z m 0,-15.65 a 5.0000005,5.0000005 0 0 0 -10,0 5.0000005,5.0000005 0 0 0 10,0 z m 15.64999,0 a 5,5 0 0 0 -10,0 5,5 0 0 0 10,0 z m 15.65001,0 a 5.0000005,5.0000005 0 0 0 -10,0 5.0000005,5.0000005 0 0 0 10,0 z m 15.65,0 a 5.0000005,5.0000005 0 0 0 -10,0 5.0000005,5.0000005 0 0 0 10,0 z m 15.65,0 a 5,5 0 0 0 -10,0 5,5 0 0 0 10,0 z m 15.65,0 a 5.0000005,5.0000005 0 0 0 -10,0 5.0000005,5.0000005 0 0 0 10,0 z m 15.65,0 a 5.0000005,5.0000005 0 0 0 -10,0 5.0000005,5.0000005 0 0 0 10,0 z m -15.65,-15.65 a 5.0000005,5.0000005 0 0 0 -10,0 5.0000005,5.0000005 0 0 0 10,0 z m -15.65,0 a 5,5 0 0 0 -10,0 5,5 0 0 0 10,0 z m -15.65,0 a 5.0000005,5.0000005 0 0 0 -10,0 5.0000005,5.0000005 0 0 0 10,0 z m -15.65,0 a 5.0000005,5.0000005 0 0 0 -10,0 5.0000005,5.0000005 0 0 0 10,0 z m -15.65001,0 a 5,5 0 0 0 -10,0 5,5 0 0 0 10,0 z"
     inkscape:label="2" /><path
     id="path179"
     style="fill:#000000;fill-opacity:1;stroke:none;stroke-width:0.944827;stroke-linecap:round"
     d="m 757.20947,130.2 a 5.000005,5.000005 0 0 0 -10.00001,0 5.000005,5.000005 0 0 0 10.00001,0 z m 0,15.64999 a 5.000005,5.000005 0 0 0 -10.00001,0 5.000005,5.000005 0 0 0 10.00001,0 z m 0,15.65001 a 5.000005,5.000005 0 0 0 -10.00001,0 5.000005,5.000005 0 0 0 10.00001,0 z m 15.64999,0 a 5.0000032,5.0000032 0 0 0 -10,0 5.0000032,5.0000032 0 0 0 10,0 z m 0,-15.65001 a 5.0000032,5.0000032 0 0 0 -10,0 5.0000032,5.0000032 0 0 0 10,0 z m 0,-15.64999 a 5.0000032,5.0000032 0 0 0 -10,0 5.0000032,5.0000032 0 0 0 10,0 z m 0,-15.64999 a 5.0000032,5.0000032 0 0 0 -10,0 5.0000032,5.0000032 0 0 0 10,0 z m -15.64999,0 a 5.000005,5.000005 0 0 0 -10.00001,0 5.000005,5.000005 0 0 0 10.00001,0 z m -15.65,0 a 5.0000058,5.0000058 0 0 0 -10.00001,0 5.0000058,5.0000058 0 0 0 10.00001,0 z m 0,15.64999 a 5.0000058,5.0000058 0 0 0 -10.00001,0 5.0000058,5.0000058 0 0 0 10.00001,0 z m 0,15.64999 a 5.0000058,5.0000058 0 0 0 -10.00001,0 5.0000058,5.0000058 0 0 0 10.00001,0 z m 0,15.65001 a 5.0000058,5.0000058 0 0 0 -10.00001,0 5.0000058,5.0000058 0 0 0 10.00001,0 z m 15.65,-156.499991 a 5.000005,5.000005 0 0 0 -10.00001,0 5.000005,5.000005 0 0 0 10.00001,0 z m 15.64999,0 a 5.0000032,5.0000032 0 0 0 -10,0 5.0000032,5.0000032 0 0 0 10,0 z m 0,15.65 a 5.0000032,5.0000032 0 0 0 -10,0 5.0000032,5.0000032 0 0 0 10,0 z m -15.64999,0 a 5.000005,5.000005 0 0 0 -10.00001,0 5.000005,5.000005 0 0 0 10.00001,0 z m 0,15.65 a 5.000005,5.000005 0 0 0 -10.00001,0 5.000005,5.000005 0 0 0 10.00001,0 z m 15.64999,0 a 5.0000032,5.0000032 0 0 0 -10,0 5.0000032,5.0000032 0 0 0 10,0 z m 0,15.65 a 5.0000032,5.0000032 0 0 0 -10,0 5.0000032,5.0000032 0 0 0 10,0 z m -15.64999,0 a 5.000005,5.000005 0 0 0 -10.00001,0 5.000005,5.000005 0 0 0 10.00001,0 z m 0,15.649996 a 5.000005,5.000005 0 0 0 -10.00001,0 5.000005,5.000005 0 0 0 10.00001,0 z m 15.64999,0 a 5.0000032,5.0000032 0 0 0 -10,0 5.0000032,5.0000032 0 0 0 10,0 z m 0,31.3 a 5.0000032,5.0000032 0 0 0 -10,0 5.0000032,5.0000032 0 0 0 10,0 z m 0,-15.65 a 5.0000032,5.0000032 0 0 0 -10,0 5.0000032,5.0000032 0 0 0 10,0 z m -15.64999,0 a 5.000005,5.000005 0 0 0 -10.00001,0 5.000005,5.000005 0 0 0 10.00001,0 z m 0,15.65 a 5.000005,5.000005 0 0 0 -10.00001,0 5.000005,5.000005 0 0 0 10.00001,0 z m -15.65,-15.65 a 5.0000058,5.0000058 0 0 0 -10.00001,0 5.0000058,5.0000058 0 0 0 10.00001,0 z m 0,15.65 a 5.0000058,5.0000058 0 0 0 -10.00001,0 5.0000058,5.0000058 0 0 0 10.00001,0 z m -15.65001,0 a 5,5 0 0 0 -10,0 5,5 0 0 0 10,0 z m 0,-15.65 a 5,5 0 0 0 -10,0 5,5 0 0 0 10,0 z m 0,-15.65 a 5,5 0 0 0 -10,0 5,5 0 0 0 10,0 z m 15.65001,0 a 5.0000058,5.0000058 0 0 0 -10.00001,0 5.0000058,5.0000058 0 0 0 10.00001,0 z m 0,-15.649996 a 5.0000058,5.0000058 0 0 0 -10.00001,0 5.0000058,5.0000058 0 0 0 10.00001,0 z m 0,-15.65 a 5.0000058,5.0000058 0 0 0 -10.00001,0 5.0000058,5.0000058 0 0 0 10.00001,0 z m 0,-15.65 a 5.0000058,5.0000058 0 0 0 -10.00001,0 5.0000058,5.0000058 0 0 0 10.00001,0 z m 0,-15.65 a 5.0000058,5.0000058 0 0 0 -10.00001,0 5.0000058,5.0000058 0 0 0 10.00001,0 z m -62.60001,0 a 5,5 0 0 0 -10,0 5,5 0 0 0 10,0 z m 15.65,0 a 5.0000005,5.0000005 0 0 0 -10,0 5.0000005,5.0000005 0 0 0 10,0 z m 15.65,0 a 5.0000005,5.0000005 0 0 0 -10,0 5.0000005,5.0000005 0 0 0 10,0 z m 0,15.65 a 5.0000005,5.0000005 0 0 0 -10,0 5.0000005,5.0000005 0 0 0 10,0 z m -15.65,0 a 5.0000005,5.0000005 0 0 0 -10,0 5.0000005,5.0000005 0 0 0 10,0 z m -15.65,0 a 5,5 0 0 0 -10,0 5,5 0 0 0 10,0 z m 0,15.65 a 5,5 0 0 0 -10,0 5,5 0 0 0 10,0 z m 15.65,0 a 5.0000005,5.0000005 0 0 0 -10,0 5.0000005,5.0000005 0 0 0 10,0 z m 15.65,0 a 5.0000005,5.0000005 0 0 0 -10,0 5.0000005,5.0000005 0 0 0 10,0 z m 0,15.65 a 5.0000005,5.0000005 0 0 0 -10,0 5.0000005,5.0000005 0 0 0 10,0 z m -15.65,0 a 5.0000005,5.0000005 0 0 0 -10,0 5.0000005,5.0000005 0 0 0 10,0 z m -15.65,0 a 5,5 0 0 0 -10,0 5,5 0 0 0 10,0 z m 15.65,31.299996 a 5.0000005,5.0000005 0 0 0 -10,0 5.0000005,5.0000005 0 0 0 10,0 z m -15.65,0 a 5,5 0 0 0 -10,0 5,5 0 0 0 10,0 z m 0,-15.65 a 5,5 0 0 0 -10,0 5,5 0 0 0 10,0 z m 15.65,0 a 5.0000005,5.0000005 0 0 0 -10,0 5.0000005,5.0000005 0 0 0 10,0 z m 15.65,0 a 5.0000005,5.0000005 0 0 0 -10,0 5.0000005,5.0000005 0 0 0 10,0 z m 0,15.65 a 5.0000005,5.0000005 0 0 0 -10,0 5.0000005,5.0000005 0 0 0 10,0 z m 0,15.65 a 5.0000005,5.0000005 0 0 0 -10,0 5.0000005,5.0000005 0 0 0 10,0 z m -15.65,0 a 5.0000005,5.0000005 0 0 0 -10,0 5.0000005,5.0000005 0 0 0 10,0 z m -15.65,0 a 5,5 0 0 0 -10,0 5,5 0 0 0 10,0 z m 0,15.650005 a 5,5 0 0 0 -10,0 5,5 0 0 0 10,0 z m 15.65,0 a 5.0000005,5.0000005 0 0 0 -10,0 5.0000005,5.0000005 0 0 0 10,0 z m 15.65,0 a 5.0000005,5.0000005 0 0 0 -10,0 5.0000005,5.0000005 0 0 0 10,0 z m 0,15.65 a 5.0000005,5.0000005 0 0 0 -10,0 5.0000005,5.0000005 0 0 0 10,0 z m -15.65,0 a 5.0000005,5.0000005 0 0 0 -10,0 5.0000005,5.0000005 0 0 0 10,0 z m -15.65,0 a 5,5 0 0 0 -10,0 5,5 0 0 0 10,0 z m 0,15.64999 a 5,5 0 0 0 -10,0 5,5 0 0 0 10,0 z m 15.65,0 a 5.0000005,5.0000005 0 0 0 -10,0 5.0000005,5.0000005 0 0 0 10,0 z m 15.65,0 a 5.0000005,5.0000005 0 0 0 -10,0 5.0000005,5.0000005 0 0 0 10,0 z m 0,15.65 a 5.0000005,5.0000005 0 0 0 -10,0 5.0000005,5.0000005 0 0 0 10,0 z m -15.65,0 a 5.0000005,5.0000005 0 0 0 -10,0 5.0000005,5.0000005 0 0 0 10,0 z m -15.65,0 a 5,5 0 0 0 -10,0 5,5 0 0 0 10,0 z"
     inkscape:label="H" /><path
     id="path249"
     style="fill:#000000;fill-opacity:1;stroke:none;stroke-width:0.944827;stroke-linecap:round"
     d="m 850.90946,67.600005 a 5.000005,5.000005 0 0 0 -10.00001,0 5.000005,5.000005 0 0 0 10.00001,0 z m 15.64999,0 a 5.0000032,5.0000032 0 0 0 -10,0 5.0000032,5.0000032 0 0 0 10,0 z m 0,-15.649996 a 5.0000032,5.0000032 0 0 0 -10,0 5.0000032,5.0000032 0 0 0 10,0 z m 15.65,15.649996 a 5.0000032,5.0000032 0 0 0 -10,0 5.0000032,5.0000032 0 0 0 10,0 z m 15.65,0 a 5.000005,5.000005 0 0 0 -10.00001,0 5.000005,5.000005 0 0 0 10.00001,0 z m 0,-15.649996 a 5.000005,5.000005 0 0 0 -10.00001,0 5.000005,5.000005 0 0 0 10.00001,0 z m -15.65,0 a 5.0000032,5.0000032 0 0 0 -10,0 5.0000032,5.0000032 0 0 0 10,0 z m 0,-15.65 a 5.0000032,5.0000032 0 0 0 -10,0 5.0000032,5.0000032 0 0 0 10,0 z m 15.65,0 a 5.000005,5.000005 0 0 0 -10.00001,0 5.000005,5.000005 0 0 0 10.00001,0 z m 0,-15.65 a 5.000005,5.000005 0 0 0 -10.00001,0 5.000005,5.000005 0 0 0 10.00001,0 z m -15.65,0 a 5.0000032,5.0000032 0 0 0 -10,0 5.0000032,5.0000032 0 0 0 10,0 z m 0,-15.65 a 5.0000032,5.0000032 0 0 0 -10,0 5.0000032,5.0000032 0 0 0 10,0 z m -15.65,0 a 5.0000032,5.0000032 0 0 0 -10,0 5.0000032,5.0000032 0 0 0 10,0 z m 0,15.65 a 5.0000032,5.0000032 0 0 0 -10,0 5.0000032,5.0000032 0 0 0 10,0 z m 0,15.65 a 5.0000032,5.0000032 0 0 0 -10,0 5.0000032,5.0000032 0 0 0 10,0 z m -15.64999,0 a 5.000005,5.000005 0 0 0 -10.00001,0 5.000005,5.000005 0 0 0 10.00001,0 z m 0,-15.65 a 5.000005,5.000005 0 0 0 -10.00001,0 5.000005,5.000005 0 0 0 10.00001,0 z m 0,-15.65 a 5.000005,5.000005 0 0 0 -10.00001,0 5.000005,5.000005 0 0 0 10.00001,0 z m -15.65,0 a 5.000005,5.000005 0 0 0 -10.00001,0 5.000005,5.000005 0 0 0 10.00001,0 z m 0,15.65 a 5.000005,5.000005 0 0 0 -10.00001,0 5.000005,5.000005 0 0 0 10.00001,0 z m 0,15.65 a 5.000005,5.000005 0 0 0 -10.00001,0 5.000005,5.000005 0 0 0 10.00001,0 z m 0,15.65 a 5.000005,5.000005 0 0 0 -10.00001,0 5.000005,5.000005 0 0 0 10.00001,0 z m 0,15.649996 a 5.000005,5.000005 0 0 0 -10.00001,0 5.000005,5.000005 0 0 0 10.00001,0 z m -15.65,0 a 5.000005,5.000005 0 0 0 -10.00001,0 5.000005,5.000005 0 0 0 10.00001,0 z m 0,-15.649996 a 5.000005,5.000005 0 0 0 -10.00001,0 5.000005,5.000005 0 0 0 10.00001,0 z m 0,-15.65 a 5.000005,5.000005 0 0 0 -10.00001,0 5.000005,5.000005 0 0 0 10.00001,0 z m 0,-15.65 a 5.000005,5.000005 0 0 0 -10.00001,0 5.000005,5.000005 0 0 0 10.00001,0 z m 0,-15.65 a 5.000005,5.000005 0 0 0 -10.00001,0 5.000005,5.000005 0 0 0 10.00001,0 z m -15.65,0 a 5.0000032,5.0000032 0 0 0 -10,0 5.0000032,5.0000032 0 0 0 10,0 z m 0,15.65 a 5.0000032,5.0000032 0 0 0 -10,0 5.0000032,5.0000032 0 0 0 10,0 z m 0,15.65 a 5.0000032,5.0000032 0 0 0 -10,0 5.0000032,5.0000032 0 0 0 10,0 z m 0,15.65 a 5.0000032,5.0000032 0 0 0 -10,0 5.0000032,5.0000032 0 0 0 10,0 z m 0,15.649996 a 5.0000032,5.0000032 0 0 0 -10,0 5.0000032,5.0000032 0 0 0 10,0 z m 93.89999,15.65 a 5.000005,5.000005 0 0 0 -10.00001,0 5.000005,5.000005 0 0 0 10.00001,0 z m -15.65,0 a 5.0000032,5.0000032 0 0 0 -10,0 5.0000032,5.0000032 0 0 0 10,0 z m -15.65,0 a 5.0000032,5.0000032 0 0 0 -10,0 5.0000032,5.0000032 0 0 0 10,0 z m -15.64999,0 a 5.000005,5.000005 0 0 0 -10.00001,0 5.000005,5.000005 0 0 0 10.00001,0 z m -15.65,0 a 5.000005,5.000005 0 0 0 -10.00001,0 5.000005,5.000005 0 0 0 10.00001,0 z m -15.65,0 a 5.000005,5.000005 0 0 0 -10.00001,0 5.000005,5.000005 0 0 0 10.00001,0 z m -15.65,0 a 5.0000032,5.0000032 0 0 0 -10,0 5.0000032,5.0000032 0 0 0 10,0 z m 78.24999,15.65 a 5.0000032,5.0000032 0 0 0 -10,0 5.0000032,5.0000032 0 0 0 10,0 z m -15.65,0 a 5.0000032,5.0000032 0 0 0 -10,0 5.0000032,5.0000032 0 0 0 10,0 z m 0,15.650005 a 5.0000032,5.0000032 0 0 0 -10,0 5.0000032,5.0000032 0 0 0 10,0 z m 15.65,0 a 5.0000032,5.0000032 0 0 0 -10,0 5.0000032,5.0000032 0 0 0 10,0 z m 15.65,0 a 5.000005,5.000005 0 0 0 -10.00001,0 5.000005,5.000005 0 0 0 10.00001,0 z m 0,15.64999 a 5.000005,5.000005 0 0 0 -10.00001,0 5.000005,5.000005 0 0 0 10.00001,0 z m -15.65,0 a 5.0000032,5.0000032 0 0 0 -10,0 5.0000032,5.0000032 0 0 0 10,0 z m -15.65,0 a 5.0000032,5.0000032 0 0 0 -10,0 5.0000032,5.0000032 0 0 0 10,0 z m 0,15.64999 a 5.0000032,5.0000032 0 0 0 -10,0 5.0000032,5.0000032 0 0 0 10,0 z m 15.65,0 a 5.0000032,5.0000032 0 0 0 -10,0 5.0000032,5.0000032 0 0 0 10,0 z m 15.65,0 a 5.000005,5.000005 0 0 0 -10.00001,0 5.000005,5.000005 0 0 0 10.00001,0 z m 0,15.65001 a 5.000005,5.000005 0 0 0 -10.00001,0 5.000005,5.000005 0 0 0 10.00001,0 z m -15.65,0 a 5.0000032,5.0000032 0 0 0 -10,0 5.0000032,5.0000032 0 0 0 10,0 z m -15.65,0 a 5.0000032,5.0000032 0 0 0 -10,0 5.0000032,5.0000032 0 0 0 10,0 z M 850.90946,98.900005 a 5.000005,5.000005 0 0 0 -10.00001,0 5.000005,5.000005 0 0 0 10.00001,0 z m -15.65,0 a 5.000005,5.000005 0 0 0 -10.00001,0 5.000005,5.000005 0 0 0 10.00001,0 z m -15.65,0 a 5.000005,5.000005 0 0 0 -10.00001,0 5.000005,5.000005 0 0 0 10.00001,0 z m -15.65,0 a 5.0000032,5.0000032 0 0 0 -10,0 5.0000032,5.0000032 0 0 0 10,0 z m 0,15.650005 a 5.0000032,5.0000032 0 0 0 -10,0 5.0000032,5.0000032 0 0 0 10,0 z m 15.65,0 a 5.000005,5.000005 0 0 0 -10.00001,0 5.000005,5.000005 0 0 0 10.00001,0 z m 15.65,0 a 5.000005,5.000005 0 0 0 -10.00001,0 5.000005,5.000005 0 0 0 10.00001,0 z m 0,15.64999 a 5.000005,5.000005 0 0 0 -10.00001,0 5.000005,5.000005 0 0 0 10.00001,0 z m -15.65,0 a 5.000005,5.000005 0 0 0 -10.00001,0 5.000005,5.000005 0 0 0 10.00001,0 z m -15.65,0 a 5.0000032,5.0000032 0 0 0 -10,0 5.0000032,5.0000032 0 0 0 10,0 z m 0,15.64999 a 5.0000032,5.0000032 0 0 0 -10,0 5.0000032,5.0000032 0 0 0 10,0 z m 15.65,0 a 5.000005,5.000005 0 0 0 -10.00001,0 5.000005,5.000005 0 0 0 10.00001,0 z m 15.65,0 a 5.000005,5.000005 0 0 0 -10.00001,0 5.000005,5.000005 0 0 0 10.00001,0 z m 0,15.65001 a 5.000005,5.000005 0 0 0 -10.00001,0 5.000005,5.000005 0 0 0 10.00001,0 z m -15.65,0 a 5.000005,5.000005 0 0 0 -10.00001,0 5.000005,5.000005 0 0 0 10.00001,0 z m -15.65,0 a 5.0000032,5.0000032 0 0 0 -10,0 5.0000032,5.0000032 0 0 0 10,0 z"
     inkscape:label="R" /></svg>
