<?xml version="1.0" encoding="UTF-8" standalone="no"?>
<!-- Created with Inkscape (http://www.inkscape.org/) -->

<svg
   width="509.90106mm"
   height="156.08969mm"
   viewBox="0 0 509.90106 156.08969"
   version="1.1"
   id="svg1"
   inkscape:version="1.3.2 (091e20e, 2023-11-25, custom)"
   xml:space="preserve"
   sodipodi:docname="heroic.svg"
   xmlns:inkscape="http://www.inkscape.org/namespaces/inkscape"
   xmlns:sodipodi="http://sodipodi.sourceforge.net/DTD/sodipodi-0.dtd"
   xmlns:xlink="http://www.w3.org/1999/xlink"
   xmlns="http://www.w3.org/2000/svg"
   xmlns:svg="http://www.w3.org/2000/svg"><sodipodi:namedview
     id="namedview1"
     pagecolor="#ffffff"
     bordercolor="#000000"
     borderopacity="0.25"
     inkscape:showpageshadow="2"
     inkscape:pageopacity="0.0"
     inkscape:pagecheckerboard="true"
     inkscape:deskcolor="#d1d1d1"
     inkscape:document-units="mm"
     inkscape:zoom="0.5"
     inkscape:cx="1065"
     inkscape:cy="-57"
     inkscape:window-width="2560"
     inkscape:window-height="1351"
     inkscape:window-x="-9"
     inkscape:window-y="-9"
     inkscape:window-maximized="1"
     inkscape:current-layer="svg1" /><defs
     id="defs1"><linearGradient
       id="linearGradient24"
       inkscape:collect="always"><stop
         style="stop-color:#4896fe;stop-opacity:0.99607843;"
         offset="0"
         id="stop24" /><stop
         style="stop-color:#17deed;stop-opacity:0.65882355;"
         offset="1"
         id="stop25" /></linearGradient><linearGradient
       id="linearGradient1"
       inkscape:collect="always"><stop
         style="stop-color:#4a94fd;stop-opacity:1;"
         offset="0"
         id="stop1" /><stop
         style="stop-color:#17deeb;stop-opacity:1;"
         offset="1"
         id="stop2" /></linearGradient><marker
       id="DistanceX"
       orient="auto"
       refX="0"
       refY="0"
       style="overflow:visible"><path
         d="M 3,-3 -3,3 M 0,-5 V 5"
         style="stroke:#000000;stroke-width:0.5"
         id="path1" /></marker><pattern
       id="Hatch"
       patternUnits="userSpaceOnUse"
       width="8"
       height="8"
       x="0"
       y="0"><path
         d="M8 4 l-4,4"
         stroke="#000000"
         stroke-width="0.25"
         linecap="square"
         id="path2" /><path
         d="M6 2 l-4,4"
         stroke="#000000"
         stroke-width="0.25"
         linecap="square"
         id="path3" /><path
         d="M4 0 l-4,4"
         stroke="#000000"
         stroke-width="0.25"
         linecap="square"
         id="path4" /></pattern><symbol
       id="*Model_Space" /><symbol
       id="*Paper_Space" /><symbol
       id="*Paper_Space0" /><linearGradient
       inkscape:collect="always"
       xlink:href="#linearGradient1"
       id="linearGradient2"
       x1="105.03958"
       y1="91.355286"
       x2="105.03958"
       y2="199.50781"
       gradientUnits="userSpaceOnUse"
       gradientTransform="translate(-46.637672,-70.386208)" /><linearGradient
       inkscape:collect="always"
       xlink:href="#linearGradient24"
       id="linearGradient25"
       x1="316.17194"
       y1="27.431829"
       x2="316.70111"
       y2="131.78586"
       gradientUnits="userSpaceOnUse" /><linearGradient
       inkscape:collect="always"
       xlink:href="#linearGradient24"
       id="linearGradient26"
       gradientUnits="userSpaceOnUse"
       x1="316.17194"
       y1="27.431829"
       x2="316.70111"
       y2="131.78586" /><linearGradient
       inkscape:collect="always"
       xlink:href="#linearGradient24"
       id="linearGradient27"
       gradientUnits="userSpaceOnUse"
       x1="316.17194"
       y1="27.431829"
       x2="316.70111"
       y2="131.78586" /><linearGradient
       inkscape:collect="always"
       xlink:href="#linearGradient24"
       id="linearGradient28"
       gradientUnits="userSpaceOnUse"
       x1="316.17194"
       y1="27.431829"
       x2="316.70111"
       y2="131.78586" /><linearGradient
       inkscape:collect="always"
       xlink:href="#linearGradient24"
       id="linearGradient29"
       gradientUnits="userSpaceOnUse"
       x1="316.17194"
       y1="27.431829"
       x2="316.70111"
       y2="131.78586" /><linearGradient
       inkscape:collect="always"
       xlink:href="#linearGradient24"
       id="linearGradient30"
       gradientUnits="userSpaceOnUse"
       x1="316.17194"
       y1="27.431829"
       x2="316.70111"
       y2="131.78586" /><linearGradient
       inkscape:collect="always"
       xlink:href="#linearGradient24"
       id="linearGradient31"
       gradientUnits="userSpaceOnUse"
       x1="316.17194"
       y1="27.431829"
       x2="316.70111"
       y2="131.78586" /><linearGradient
       inkscape:collect="always"
       xlink:href="#linearGradient24"
       id="linearGradient32"
       gradientUnits="userSpaceOnUse"
       x1="316.17194"
       y1="27.431829"
       x2="316.70111"
       y2="131.78586" /><linearGradient
       inkscape:collect="always"
       xlink:href="#linearGradient24"
       id="linearGradient33"
       gradientUnits="userSpaceOnUse"
       x1="316.17194"
       y1="27.431829"
       x2="316.70111"
       y2="131.78586" /><linearGradient
       inkscape:collect="always"
       xlink:href="#linearGradient24"
       id="linearGradient34"
       gradientUnits="userSpaceOnUse"
       x1="316.17194"
       y1="27.431829"
       x2="316.70111"
       y2="131.78586" /><linearGradient
       inkscape:collect="always"
       xlink:href="#linearGradient24"
       id="linearGradient35"
       gradientUnits="userSpaceOnUse"
       x1="316.17194"
       y1="27.431829"
       x2="316.70111"
       y2="131.78586" /><linearGradient
       inkscape:collect="always"
       xlink:href="#linearGradient24"
       id="linearGradient36"
       gradientUnits="userSpaceOnUse"
       x1="316.17194"
       y1="27.431829"
       x2="316.70111"
       y2="131.78586" /><linearGradient
       inkscape:collect="always"
       xlink:href="#linearGradient24"
       id="linearGradient37"
       gradientUnits="userSpaceOnUse"
       x1="316.17194"
       y1="27.431829"
       x2="316.70111"
       y2="131.78586" /><linearGradient
       inkscape:collect="always"
       xlink:href="#linearGradient24"
       id="linearGradient38"
       gradientUnits="userSpaceOnUse"
       x1="316.17194"
       y1="27.431829"
       x2="316.70111"
       y2="131.78586" /><linearGradient
       inkscape:collect="always"
       xlink:href="#linearGradient24"
       id="linearGradient39"
       gradientUnits="userSpaceOnUse"
       x1="316.17194"
       y1="27.431829"
       x2="316.70111"
       y2="131.78586" /><linearGradient
       inkscape:collect="always"
       xlink:href="#linearGradient24"
       id="linearGradient40"
       gradientUnits="userSpaceOnUse"
       x1="316.17194"
       y1="27.431829"
       x2="316.70111"
       y2="131.78586" /><linearGradient
       inkscape:collect="always"
       xlink:href="#linearGradient24"
       id="linearGradient41"
       gradientUnits="userSpaceOnUse"
       x1="316.17194"
       y1="27.431829"
       x2="316.70111"
       y2="131.78586" /><linearGradient
       inkscape:collect="always"
       xlink:href="#linearGradient24"
       id="linearGradient42"
       gradientUnits="userSpaceOnUse"
       x1="316.17194"
       y1="27.431829"
       x2="316.70111"
       y2="131.78586" /><linearGradient
       inkscape:collect="always"
       xlink:href="#linearGradient24"
       id="linearGradient43"
       gradientUnits="userSpaceOnUse"
       x1="316.17194"
       y1="27.431829"
       x2="316.70111"
       y2="131.78586" /><linearGradient
       inkscape:collect="always"
       xlink:href="#linearGradient24"
       id="linearGradient44"
       gradientUnits="userSpaceOnUse"
       x1="316.17194"
       y1="27.431829"
       x2="316.70111"
       y2="131.78586" /><linearGradient
       inkscape:collect="always"
       xlink:href="#linearGradient24"
       id="linearGradient45"
       gradientUnits="userSpaceOnUse"
       x1="316.17194"
       y1="27.431829"
       x2="316.70111"
       y2="131.78586" /><linearGradient
       inkscape:collect="always"
       xlink:href="#linearGradient24"
       id="linearGradient46"
       gradientUnits="userSpaceOnUse"
       x1="316.17194"
       y1="27.431829"
       x2="316.70111"
       y2="131.78586" /></defs><g
     id="g9"
     inkscape:label="Sheild"
     transform="translate(8.6480344e-8,-1.5075e-4)"><path
       id="path32"
       style="display:inline;fill:#000000;fill-opacity:1;stroke:none;stroke-width:0.944827;stroke-linecap:round"
       d="m 56.971768,156.08984 2.86035,-4e-5 c 1.17545,-4e-5 2.31338,-0.41421 3.21391,-1.16962 l 30.19061,-25.33342 c 2.0511,-1.72081 3.46767,-4.07839 4.02432,-6.69736 L 116.63924,31.722172 c 0.7362,-3.463814 -1.0506,-6.97061 -4.28566,-8.410883 L 61.452468,0.648516 c -1.94183,-0.864487 -4.15928,-0.864487 -6.10104,0 L 4.450226,23.311289 c -3.235038,1.440276 -5.02184,4.947071 -4.285587,8.410883 L 19.542833,122.8894 c 0.55668,2.61897 1.973251,4.97655 4.024316,6.69736 l 30.190709,25.33342 c 0.90046,0.7554 2.03839,1.16958 3.2139,1.16958"
       sodipodi:nodetypes="ccccccccccccccc"
       inkscape:label="SheildOutline" /><path
       id="path18"
       style="display:inline;fill:url(#linearGradient2);stroke:none;stroke-width:0.944827;stroke-linecap:round;stroke-opacity:1"
       d="m 24.956016,121.61458 29.801762,25.00623 c 0.90054,0.75601 2.03847,1.17019 3.21405,1.16969 h 0.86023 c 1.17551,5e-4 2.31344,-0.41367 3.21392,-1.16969 l 29.80183,-25.00623 c 0.85461,-0.71715 1.44485,-1.69947 1.67674,-2.79074 L 112.3684,30.170702 c 0.49086,-2.309164 -0.70035,-4.647031 -2.85702,-5.6073 L 60.516928,2.749754 c -1.3463,-0.599443 -2.88374,-0.599443 -4.23011,0 L 7.292462,24.563402 c -2.156693,0.960271 -3.347894,3.298137 -2.857052,5.6073 l 18.843808,88.653138 c 0.231943,1.09127 0.82218,2.07359 1.676798,2.79074 z"
       sodipodi:nodetypes="ccccccccccccccc"
       inkscape:label="SheildFill" /><path
       id="path44"
       style="display:inline;fill:#000000;fill-opacity:1;stroke:none;stroke-width:0.944827;stroke-linecap:round"
       d="m 54.656928,119.12226 3.74491,-3.03239 3.74491,3.03239 1.46818,13.96735 -5.21309,4.0005 -5.212818,-4.0005 z"
       sodipodi:nodetypes="ccccccc"
       inkscape:label="Sword4" /><path
       id="path38"
       style="display:inline;fill:#000000;fill-opacity:1;stroke:none;stroke-width:0.944827;stroke-linecap:round"
       d="m 56.401858,113.28978 -3.401751,4.4331 -14.556845,2.56698 -4.041246,-7.00008 4.041246,-7.00008 14.556845,2.56672 z"
       sodipodi:nodetypes="ccccccc"
       inkscape:label="Sword3" /><path
       id="path50"
       style="display:inline;fill:#000000;fill-opacity:1;stroke:none;stroke-width:0.944827;stroke-linecap:round"
       d="m 60.401828,113.28978 3.40175,-4.43336 14.55684,-2.56672 4.04151,7.00008 -4.04151,7.00008 -14.55684,-2.56698 z"
       sodipodi:nodetypes="ccccccc"
       inkscape:label="Sword2" /><path
       id="path56"
       style="display:inline;fill:#000000;fill-opacity:1;stroke:none;stroke-width:0.944827;stroke-linecap:round"
       d="m 55.142698,107.85048 -7.710482,-73.360758 10.969622,-18.999991 10.96963,18.999991 -7.71049,73.360758 -3.25914,2.63922 z"
       sodipodi:nodetypes="ccccccc"
       inkscape:label="Sword1" /></g><g
     id="g24"
     inkscape:label="Text"
     style="fill:url(#linearGradient25)"
     transform="translate(8.6480344e-8,-1.5075e-4)"><g
       id="g16"
       inkscape:label="Heroic"
       style="fill:url(#linearGradient32)"><path
         style="font-weight:bold;font-size:98.7074px;line-height:0;font-family:'Book Antiqua';-inkscape-font-specification:'Book Antiqua Bold';text-align:center;letter-spacing:-0.68108px;word-spacing:0px;text-anchor:middle;fill:url(#linearGradient26);stroke-width:2.0349;stroke-linecap:round;stroke-miterlimit:4.5;paint-order:fill markers stroke"
         d="m 127.73452,94.48439 v -4.048546 q 6.3138,-0.289182 7.13315,-0.819349 0.86755,-0.578363 1.15673,-2.313454 0.48197,-2.650834 0.48197,-13.350561 l -0.0482,-26.363744 q -0.0482,-13.350561 -0.48197,-14.555485 -0.24098,-0.722955 -0.81935,-1.10853 -0.96394,-0.626561 -7.42233,-1.012137 v -4.048545 q 9.63939,0.337379 15.27844,0.337379 8.91644,0 16.29058,-0.337379 v 4.048545 q -5.92823,0.385576 -6.98857,0.867546 -0.62656,0.289182 -0.91574,0.867545 -0.48197,0.915743 -0.67476,5.590849 -0.28918,6.940364 -0.28918,14.073516 v 4.000348 q 5.01249,0.240985 15.905,0.240985 9.68759,0 14.26631,-0.240985 0.0482,-15.664015 -0.33738,-20.821091 -0.19279,-2.747228 -1.01214,-3.373788 -1.10853,-0.915743 -7.51873,-1.204925 v -4.048545 q 12.00105,0.337379 16.24238,0.337379 7.27775,0 15.37484,-0.337379 v 4.048545 q -6.16922,0.385576 -7.18135,0.915743 -0.57837,0.289182 -0.86755,0.867545 -0.43377,1.012137 -0.62656,7.856107 -0.33738,10.506939 -0.33738,17.01353 l 0.28919,21.881426 q 0.0964,7.422333 0.43377,8.530863 0.33738,1.108531 1.10853,1.590501 0.77115,0.433772 7.18135,0.867545 v 4.048546 l -5.34987,-0.144591 q -6.02462,-0.192788 -9.4466,-0.192788 -7.13315,0 -16.82075,0.337379 v -4.048546 q 6.4584,-0.289182 7.32594,-1.012136 0.91575,-0.771152 1.10853,-3.952152 0.33738,-5.446258 0.43378,-23.23094 -5.39806,-0.192788 -12.00105,-0.192788 -10.36235,0 -18.17026,0.192788 v 3.181 q 0,12.627606 0.33738,18.94141 0.24099,4.241333 1.15673,4.964288 0.91574,0.674757 7.37414,1.10853 v 4.048546 l -5.68725,-0.144591 q -5.39806,-0.192788 -9.63939,-0.192788 z"
         id="text9"
         inkscape:label="H"
         aria-label="H" /><path
         style="font-weight:bold;font-size:98.7074px;line-height:0;font-family:'Book Antiqua';-inkscape-font-specification:'Book Antiqua Bold';text-align:center;letter-spacing:-0.68108px;word-spacing:0px;text-anchor:middle;fill:url(#linearGradient27);stroke-width:2.0349;stroke-linecap:round;stroke-miterlimit:4.5;paint-order:fill markers stroke"
         d="m 210.65696,94.436195 v -2.602637 c 1.70296,-0.771151 3.26133,-1.670828 4.67511,-2.69903 0.64263,-5.012485 0.96394,-15.551556 0.96394,-31.617213 0,-10.956779 -0.11246,-18.747622 -0.33738,-22.314198 -0.0964,-1.895748 -0.43377,-3.084606 -1.01214,-3.566576 -0.54623,-0.514101 -2.92395,-0.947874 -7.13315,-1.301319 v -4.048545 c 7.58299,0.289182 13.57548,0.433773 17.97747,0.433773 l 24.43986,-0.289182 c 2.79543,0 6.37607,0.11246 8.62527,0.337379 l 0.33737,0.530166 c -0.70689,3.502314 -2.27933,9.748855 -2.60064,15.564623 h -3.80756 c -0.16065,-4.691172 -0.88261,-8.784915 -1.10753,-9.106229 -0.19278,-0.321312 -0.91574,-0.62656 -2.16887,-0.915742 -2.6669,-0.578364 -3.04341,-0.867546 -8.53786,-0.867546 -2.69903,0 -5.31872,0.11246 -8.91743,0.337379 -0.41771,9.928576 -0.65869,18.362046 -0.72296,24.242077 3.43805,0.224919 3.49225,0.337379 6.51259,0.337379 4.46625,0 5.56172,-0.144591 6.4614,-0.433773 0.54623,-0.192788 0.93181,-0.658692 1.15672,-1.397712 0.19279,-0.578363 0.41771,-2.602636 0.67476,-6.072818 h 4.14494 c -0.16065,5.430192 -0.24098,8.964636 -0.24098,10.603333 l 0.24098,10.844319 h -4.14494 c -0.22492,-4.209202 -0.5141,-6.635116 -0.86754,-7.277743 -0.19279,-0.385575 -0.62657,-0.658691 -1.30132,-0.819348 -1.60657,-0.353445 -0.45884,-0.530167 -6.08182,-0.530167 -1.76722,0 -3.83969,0.09639 -6.21741,0.289182 -0.0643,1.702959 -0.0964,3.43805 -0.0964,5.205273 0,9.189556 0.16066,16.258445 0.48197,21.206667 l 7.42633,0.144591 c 5.43019,0 8.27781,-0.289182 12.7762,-0.867545 0.80328,-2.956081 3.6911,-8.430471 4.43012,-12.189834 h 3.47118 c -0.73902,5.655111 -0.64363,13.20197 -0.77215,18.407243 -2.92395,0.321313 -6.26461,0.48197 -8.96363,0.48197 -1.76723,0 -5.25348,-0.06426 -10.45875,-0.192788 -4.85183,-0.128525 -8.25975,-0.192788 -12.34043,-0.192788 -5.36593,0 -11.02104,0.11246 -16.96533,0.337379 z"
         id="text10"
         inkscape:label="E"
         aria-label="E"
         sodipodi:nodetypes="cccsccccccccccccsccscccccccccscsccccccscssc" /><path
         id="text11"
         style="font-weight:bold;font-size:98.7074px;line-height:0;font-family:'Book Antiqua';-inkscape-font-specification:'Book Antiqua Bold';text-align:center;letter-spacing:-0.68108px;word-spacing:0px;text-anchor:middle;fill:url(#linearGradient28);stroke-width:2.0349;stroke-linecap:round;stroke-miterlimit:4.5;paint-order:fill markers stroke"
         inkscape:label="R"
         d="m 306.4583,26.286768 -24.14633,0.433565 c -1.92788,0 -6.2178,-0.128456 -12.86898,-0.385506 v 3.519165 c 3.63083,0.385576 5.17443,1.268254 5.68854,1.589567 0.38557,0.224919 0.64248,0.546575 0.77101,0.964282 0.48197,1.381647 0.78718,5.66995 0.91571,11.807031 0.12849,8.225617 0.19275,15.005529 0.19275,20.339327 0,3.952152 -0.0802,9.366319 -0.24081,16.24242 -0.12852,4.434121 -0.35359,7.036641 -0.6749,7.807792 -0.16066,0.417707 -0.41756,0.722918 -0.77101,0.915706 -0.54623,0.289181 -2.15406,1.12356 -5.88129,1.444873 v 3.519165 h 5.1e-4 c 5.46232,-0.224919 10.57077,-0.33693 15.3262,-0.33693 4.46625,0 6.94581,0.112011 12.72945,0.33693 V 90.96499 c -3.6951,-0.192788 -3.71623,-0.418795 -4.0597,-0.67386 -0.53419,-0.38756 -0.77747,-1.266875 -0.91002,-1.734778 -0.19681,-0.628559 -0.51396,-3.261555 -0.77101,-8.049121 -0.32131,-6.362 -0.48214,-11.583484 -0.48214,-15.664161 l 0.0522,-2.174544 c 3.68673,0.292597 6.83508,5.786181 10.87841,12.227161 5.55872,8.482667 9.70303,15.122215 12.49846,19.588468 2.34559,-0.128528 7.59893,-0.224611 15.76028,-0.288871 l 3.90208,-0.04806 v -2.653068 c -1.67083,-0.03213 -3.93408,-1.299076 -4.6731,-1.684652 -0.73902,-0.417707 -1.86378,-1.590769 -3.37395,-3.518648 l -8.00055,-11.856641 -9.2077,-13.88339 c 5.42132,-1.196522 9.77688,-3.649774 12.94556,-8.854838 1.12314,-1.660317 2.0921,-5.645335 2.44058,-9.35697 0.28247,-3.008627 -1.10391,-7.425245 -2.51768,-9.642306 -1.38165,-2.249192 -3.27714,-3.871849 -5.68699,-4.86792 -2.37771,-1.028202 -4.59816,-1.542024 -9.83557,-1.542024 z m -10.11825,5.446179 c 4.56265,0 6.39722,1.076462 8.67854,3.22926 2.28133,2.152798 3.42201,5.702223 3.42201,9.590112 0,4.466253 -0.463,8.578392 -3.34656,11.080978 -1.32254,1.147809 -5.69761,2.677517 -9.28212,2.847888 -0.55737,0.0265 -2.91279,0.10708 -4.38475,0.08682 l 0.28319,-11.750187 0.33745,-14.74742 c 2.47411,-0.224918 2.84633,-0.337447 4.29224,-0.337447 z"
         sodipodi:nodetypes="sccccccscccccsscccccccccccccccccscccssssscccsss" /><path
         style="font-weight:bold;font-size:98.7074px;line-height:0;font-family:'Book Antiqua';-inkscape-font-specification:'Book Antiqua Bold';text-align:center;letter-spacing:-0.68108px;word-spacing:0px;text-anchor:middle;fill:url(#linearGradient29);stroke-width:2.0349;stroke-linecap:round;stroke-miterlimit:4.5;paint-order:fill markers stroke"
         d="m 371.45731,95.542726 c -11.85645,0 -19.34605,-3.036409 -25.64379,-9.109227 -6.29773,-6.10495 -9.4466,-14.491223 -9.4466,-25.158819 0,-7.454465 1.52624,-14.842667 4.57871,-20.04794 3.05247,-5.237405 7.27774,-9.253819 12.6758,-12.049243 5.43019,-2.795425 10.81519,-4.193137 19.32999,-4.193137 8.19349,0 13.30536,1.349515 18.51063,4.048546 5.20527,2.666899 9.20562,6.394132 12.00105,11.181697 2.82755,4.755435 4.24133,11.661667 4.24133,18.602031 0,7.518727 -1.5423,14.025318 -4.62691,19.519773 -3.0846,5.462324 -7.43839,9.703658 -13.06137,12.724001 -5.59085,2.988212 -10.7188,4.482318 -18.55884,4.482318 z m 1.83149,-5.25347 c 6.45839,0 8.95357,-2.377717 12.7772,-7.133151 3.85575,-4.787566 5.78363,-12.049243 5.78363,-21.785032 0,-10.217757 -2.20099,-19.116131 -6.60298,-24.578455 -3.56658,-4.40199 -6.41521,-6.602985 -13.83754,-6.602985 -6.94036,0 -10.20568,2.297389 -14.02931,6.892167 -3.79149,4.594778 -5.68724,12.722 -5.68724,22.265001 0,6.876101 1.04427,12.707935 3.1328,17.4955 2.08853,4.755435 4.73937,8.193485 7.9525,10.314152 3.24526,2.088535 5.33779,3.132803 10.51094,3.132803 z"
         id="text12"
         inkscape:label="O"
         aria-label="O"
         sodipodi:nodetypes="scsccsccsccsscscscsccs" /><path
         style="font-weight:bold;font-size:98.7074px;line-height:0;font-family:'Book Antiqua';-inkscape-font-specification:'Book Antiqua Bold';text-align:center;letter-spacing:-0.68108px;word-spacing:0px;text-anchor:middle;fill:url(#linearGradient30);stroke-width:2.0349;stroke-linecap:round;stroke-miterlimit:4.5;paint-order:fill markers stroke"
         d="m 415.821,94.48439 v -2.990213 c 4.43412,-0.224919 6.94036,-1.652762 7.51873,-2.166863 0.57836,-0.514101 0.9318,-1.783288 1.06033,-3.807561 0.22492,-4.241333 0.33738,-12.145637 0.33738,-23.71291 0,-4.434121 -0.0643,-11.389551 -0.19279,-19.807956 -0.0643,-5.751505 -0.19279,-8.900373 -0.38557,-9.446606 -0.19279,-0.578363 -0.53017,-0.99607 -1.01214,-1.253121 -0.70689,-0.353445 -3.14887,-1.717026 -7.32594,-1.974076 v -2.990212 c 6.61905,0.25705 11.67974,0.385575 15.18205,0.385575 6.04069,0 11.50301,-0.128525 16.38697,-0.385575 v 2.990212 c -4.36986,0.25705 -6.84397,1.668828 -7.42234,2.118667 -0.54623,0.417707 -0.89967,1.413777 -1.06033,2.988212 -0.28918,3.084606 -0.43377,9.334147 -0.43377,18.748622 0,12.531213 0.0482,21.800097 0.14459,26.748319 0.0964,4.916091 0.38557,7.840041 0.86754,8.771849 0.19279,0.417707 0.59444,0.755086 1.20493,1.012136 0.64263,0.224919 2.87575,1.524238 6.69938,1.781288 v 2.990213 l -5.68725,-0.144591 c -3.59871,-0.128525 -6.81184,-0.192788 -9.63939,-0.192788 z"
         id="text13"
         inkscape:label="I"
         aria-label="I"
         sodipodi:nodetypes="ccscscccccsccccscccccccc" /><path
         style="font-weight:bold;font-size:98.7074px;line-height:0;font-family:'Book Antiqua';-inkscape-font-specification:'Book Antiqua Bold';text-align:center;letter-spacing:-0.68108px;word-spacing:0px;text-anchor:middle;fill:url(#linearGradient31);stroke-width:1.88508;stroke-linecap:round;stroke-miterlimit:4.5;paint-order:fill markers stroke"
         d="m 508.60503,84.295582 1.01253,1.132081 c -0.70203,1.640698 -1.32304,3.31421 -1.86304,5.020535 -3.13207,2.001651 -6.15614,3.412651 -9.0722,4.233 -2.88906,0.853163 -6.22363,1.279744 -10.00372,1.279744 -7.07415,0 -13.05479,-1.509442 -17.9419,-4.528325 -4.88711,-3.018884 -8.65368,-7.268291 -11.29973,-12.748222 -2.61907,-5.47993 -3.9286,-11.763802 -3.9286,-18.851616 0,-10.205139 2.97007,-18.55629 8.9102,-25.053453 5.96713,-6.529977 14.18881,-9.794966 24.66504,-9.794966 3.48307,0 6.92565,0.377361 10.32772,1.132082 3.42907,0.754721 6.83115,1.903209 10.20623,3.445465 l 0.28349,0.738314 c -0.48601,1.771953 -0.82351,3.478279 -1.01251,5.118976 -0.35101,2.854815 -0.62102,6.398722 -0.81002,10.631722 h -3.40207 c -0.16201,-5.184605 -0.32401,-8.023012 -0.48602,-8.515221 -0.16201,-0.525023 -0.90452,-1.394593 -2.22754,-2.608709 -1.32303,-1.246931 -2.3519,-2.219362 -4.76193,-3.34322 -2.24105,-0.787535 -3.26153,-1.039326 -5.98858,-1.039326 -6.48015,0 -10.02136,2.626999 -13.85544,7.483464 -3.80709,4.856465 -6.2398,11.61614 -6.2398,20.279023 0,9.384791 2.82422,16.981222 7.41433,22.789291 4.23908,5.381489 8.47021,8.072233 15.86838,8.072233 2.86206,0 3.41844,-0.360953 5.90249,-1.08286 2.51106,-0.721907 5.27862,-1.985245 8.30269,-3.790012 z"
         id="text14"
         inkscape:label="C"
         aria-label="C"
         sodipodi:nodetypes="ccccsscscscccccccccscscscc" /></g><g
       id="g23"
       inkscape:label="GamesLauncher"
       style="fill:url(#linearGradient46)"><path
         style="font-weight:bold;font-size:36.9205px;line-height:0;font-family:'Book Antiqua';-inkscape-font-specification:'Book Antiqua Bold';letter-spacing:-1.24607px;word-spacing:0px;fill:url(#linearGradient33);stroke-width:1.9564;stroke-linecap:round;stroke-miterlimit:4.5;paint-order:fill markers stroke"
         d="m 163.22568,118.98163 v -1.48579 c 1.87801,0.0489 3.55482,0.0734 5.03041,0.0734 1.36207,0 4.41997,-0.0244 5.99875,-0.0734 v 1.17396 c -0.45403,0.1712 -1.41658,0.37298 -1.82933,0.60532 -0.12382,1.23511 -0.18573,2.28679 -0.18573,3.15503 0,0.62368 0.0619,3.46709 0.18573,5.31364 -2.04312,0.88048 -4.28519,1.47357 -5.66792,1.77929 -1.37239,0.31795 -2.79639,0.47691 -4.27198,0.47691 -3.98305,0 -6.57534,-1.22287 -8.83515,-3.66862 -2.2495,-2.458 -3.37425,-5.63748 -3.37425,-9.53847 0,-4.01105 1.15054,-7.2211 3.45163,-9.63017 2.3011,-2.40907 4.95349,-3.96663 9.3769,-4.14971 1.5156,-0.0627 3.0952,0.10586 4.48532,0.40155 1.51351,0.32195 2.59853,0.72961 3.85743,1.30436 l 0.1393,0.27515 c -0.29924,1.55306 -0.52109,2.94912 -0.66556,5.26035 h -1.30017 c 0.005,-1.16683 0.0482,-1.49816 -0.23636,-2.11624 -0.38934,-0.77272 -1.37008,-1.62068 -2.41228,-2.07315 -1.03188,-0.45246 -1.83399,-0.611 -3.24566,-0.53485 -2.53619,0.1368 -3.67346,0.99582 -5.28774,2.86154 -1.56846,1.90769 -2.35269,4.51854 -2.35269,7.83255 0,3.53411 0.8255,6.38342 2.47651,8.54791 1.66132,2.15227 2.63434,3.07931 5.07106,3.2284 1.46198,0.0895 2.4274,-0.41612 3.0589,-1.11893 0.0825,-0.94162 0.12382,-3.44263 0.12382,-4.28642 0,-1.88323 -0.0929,-2.92268 -0.27861,-3.11834 -0.18575,-0.19566 -1.28986,-0.36074 -3.31233,-0.49527 z"
         id="text16"
         inkscape:label="G"
         aria-label="G"
         sodipodi:nodetypes="ccscccsccscssssccccccscscscssc" /><path
         style="font-weight:bold;font-size:36.9205px;line-height:0;font-family:'Book Antiqua';-inkscape-font-specification:'Book Antiqua Bold';letter-spacing:-1.24607px;word-spacing:0px;fill:url(#linearGradient34);stroke-width:2.0204;stroke-linecap:round;stroke-miterlimit:4.5;paint-order:fill markers stroke"
         d="m 174.51603,128.32757 q 1.54873,-0.0919 1.9112,-0.34917 0.24713,-0.18381 0.77436,-1.39676 1.00503,-2.38918 2.57024,-6.63455 l 5.83245,-15.93397 h 2.42197 l 7.4471,19.73827 q 1.44988,3.84105 1.7794,4.20863 0.346,0.36755 2.09243,0.4962 v 1.54377 q -2.68556,-0.12863 -5.07456,-0.12863 -2.85033,0 -5.42058,0.12863 v -1.54377 q 1.96063,-0.0919 2.25721,-0.23893 0.31304,-0.16538 0.31304,-0.5697 0,-0.34921 -0.69199,-2.38919 l -1.08742,-3.14268 q -2.04301,-0.0369 -4.56381,-0.0369 -2.19129,0 -3.98717,0.0369 l -0.72494,2.11351 q -0.29656,0.86377 -0.72493,2.57296 -0.0989,0.38593 -0.0989,0.69836 0,0.4227 0.31305,0.60648 0.32953,0.16542 2.3231,0.34919 v 1.54377 q -1.61464,-0.12863 -4.02012,-0.12863 -2.29014,0 -3.64116,0.12863 z m 10.80818,-17.80853 -3.47642,9.42805 q 1.51579,0.0919 3.3446,0.0919 1.91121,0 3.65765,-0.0919 z"
         id="text16-6"
         inkscape:label="A"
         aria-label="A" /><path
         style="font-weight:bold;font-size:36.9205px;line-height:0;font-family:'Book Antiqua';-inkscape-font-specification:'Book Antiqua Bold';letter-spacing:-1.24607px;word-spacing:0px;fill:url(#linearGradient35);stroke-width:1.98108;stroke-linecap:round;stroke-miterlimit:4.5;paint-order:fill markers stroke"
         d="m 200.64612,129.6891 v -1.53616 l 0.95516,-0.0731 c 0.77473,-0.0487 1.25762,-0.20116 1.44865,-0.45718 0.20164,-0.25603 0.31837,-1.12165 0.35021,-2.59688 0.0743,-3.01137 0.11145,-6.2727 0.11145,-9.78396 0,-1.86535 -0.0107,-3.98674 -0.0319,-6.36415 -0.0212,-1.43864 -0.0955,-2.31646 -0.22287,-2.63345 -0.0636,-0.15849 -0.18041,-0.2865 -0.35022,-0.38403 -0.16979,-0.0976 -0.9233,-0.20117 -2.26052,-0.31088 v -1.53619 c 1.28415,0.0366 2.54177,0.0548 3.77285,0.0548 1.43271,0 2.81239,-0.0183 4.13898,-0.0548 0.57309,1.54836 1.1674,3.08454 1.78295,4.60852 0.43513,1.08508 2.36136,5.6875 5.77868,13.80728 3.60834,-8.33923 6.1342,-14.47784 7.57754,-18.4158 1.27353,0.0609 2.48339,0.0914 3.62957,0.0914 1.34783,0 2.6479,-0.0305 3.90022,-0.0914 v 1.53619 c -1.3903,0.0976 -2.17564,0.23773 -2.35605,0.42061 -0.18043,0.18286 -0.29716,0.74369 -0.35024,1.68248 -0.0849,1.53616 -0.12734,4.45611 -0.12734,8.75983 0,2.17016 0.0212,4.46223 0.0636,6.87621 0.0425,2.41399 0.11671,3.77948 0.22286,4.09646 0.0743,0.18288 0.18043,0.32309 0.31839,0.42062 0.13797,0.0976 0.88085,0.21336 2.2287,0.34748 v 1.53616 c -1.71928,-0.0976 -3.25283,-0.14629 -4.60067,-0.14629 -1.35843,0 -3.20506,0.0487 -5.53988,0.14629 V 128.153 l 0.93925,-0.0367 c 0.74288,-0.0366 1.20454,-0.15238 1.38496,-0.34745 0.19103,-0.20727 0.31308,-0.73761 0.36615,-1.59104 0.0529,-0.86562 0.0796,-2.89556 0.0796,-6.08984 v -11.04576 c -1.63436,3.76728 -3.71978,8.70498 -6.25623,14.81309 -1.04007,2.51153 -1.85194,4.55976 -2.43565,6.14469 h -1.08249 c -0.79596,-2.09699 -1.86255,-4.74871 -3.19976,-7.95517 l -5.50805,-13.00261 v 2.48713 c 0,6.8762 0.0319,11.61274 0.0955,14.20961 0.0319,1.0485 0.15388,1.69466 0.36613,1.93851 0.21227,0.24383 1.00293,0.40232 2.37196,0.47548 v 1.53616 c -1.08249,-0.0976 -2.16499,-0.14629 -3.24751,-0.14629 -1.61314,0 -3.05118,0.0488 -4.3141,0.14629 z"
         id="text16-7"
         inkscape:label="M"
         aria-label="M"
         sodipodi:nodetypes="cccccscssccsccccsccscsscsccscccccsccccccscsccscc" /><path
         style="font-weight:bold;font-size:36.9205px;line-height:0;font-family:'Book Antiqua';-inkscape-font-specification:'Book Antiqua Bold';letter-spacing:-1.24607px;word-spacing:0px;fill:url(#linearGradient36);stroke-width:2.06275;stroke-linecap:round;stroke-miterlimit:4.5;paint-order:fill markers stroke"
         d="m 235.08566,129.98152 v -0.9995 c 0.60253,-0.29615 1.68306,-0.64165 2.18327,-1.03651 0.22737,-1.92494 0.34106,-5.97229 0.34106,-12.14202 0,-4.20775 -0.0398,-6.99647 -0.11939,-8.36616 -0.0341,-0.72803 -0.1535,-1.18458 -0.35809,-1.36967 -0.19327,-0.19743 -1.03452,-0.36402 -2.52377,-0.49975 v -1.55477 c 2.68292,0.11105 4.80311,0.16658 6.36057,0.16658 l 8.86675,-0.11106 c 0.98905,0 1.88147,0.0432 2.67725,0.12957 l 0.11937,0.2036 c -0.2501,1.345 -0.43199,3.66339 -0.54567,5.89683 h -1.34715 c -0.0569,-1.80156 -0.12508,-3.29321 -0.20463,-3.41661 -0.0682,-0.12339 -0.38338,-0.33641 -0.80044,-0.45916 -0.72793,-0.18159 -1.08924,-0.2174 -2.71076,-0.22567 -0.95493,-0.005 -2.06904,0.0432 -3.34229,0.12958 -0.14779,3.81288 -0.23305,6.84838 -0.25578,9.1065 1.21641,0.0864 1.30059,0.12956 2.36921,0.12956 1.5802,0 1.47113,-0.0555 1.78944,-0.16658 0.19326,-0.0741 0.32968,-0.25296 0.40926,-0.53676 0.0682,-0.22211 0.14779,-0.99949 0.23873,-2.33215 h 1.4665 c -0.0569,2.08536 -0.0853,3.44269 -0.0853,4.07201 l 0.0853,4.16457 h -1.4665 c -0.0796,-1.61647 -0.1819,-2.5481 -0.30694,-2.79488 -0.0682,-0.14807 -0.22169,-0.25296 -0.46043,-0.31467 -0.56841,-0.13573 -0.25985,-0.20359 -2.24931,-0.20359 -0.62525,0 -0.82934,0.037 -1.6706,0.11105 -0.0227,0.65398 -0.0341,1.32031 -0.0341,1.99899 0,3.52908 0.0568,6.24376 0.17053,8.14403 l 3.37639,0.0555 c 1.93337,9.3e-4 2.86437,-0.0515 3.68172,-0.33316 0.28421,-1.13523 0.55704,-2.42471 0.81851,-3.86843 h 1.94453 c -0.26146,2.17174 -0.41493,4.25711 -0.46041,6.2561 -1.03451,0.1234 -2.02924,0.1851 -2.98419,0.1851 -0.62526,0 -1.85872,-0.0247 -3.70039,-0.0741 -1.71663,-0.0493 -3.29682,-0.074 -4.74059,-0.074 -1.89851,0 -4.47543,0.0892 -5.6883,0.11303 z"
         id="text16-1"
         inkscape:label="E"
         aria-label="E"
         sodipodi:nodetypes="cccsccccccccccccsccscccccccccscsccccccscssc" /><path
         style="font-weight:bold;font-size:36.9205px;line-height:0;font-family:'Book Antiqua';-inkscape-font-specification:'Book Antiqua Bold';letter-spacing:-1.24607px;word-spacing:0px;fill:url(#linearGradient37);stroke-width:1.96233;stroke-linecap:round;stroke-miterlimit:4.5;paint-order:fill markers stroke"
         d="m 256.69452,122.19913 1.92402,0.071 c 0.0339,1.70848 0.0932,2.2036 0.14265,2.61383 0.0366,0.36367 0.14429,0.95714 0.66207,1.4881 0.51778,0.51895 0.91686,0.72174 1.74108,1.07611 0.82422,0.35433 1.66862,0.61451 2.53607,0.59769 1.51332,-0.0293 2.24011,-0.41936 2.74186,-0.9829 0.44215,-0.44607 1.11343,-2.14289 1.11343,-3.48849 0,-1.23747 -0.29588,-2.20166 -0.88763,-2.89259 -0.60231,-0.69145 -0.68521,-1.21812 -2.36536,-1.58 -2.49378,-0.53549 -4.1792,-1.06585 -5.05626,-1.59109 -0.86649,-0.52469 -1.55335,-1.28053 -2.06056,-2.26751 -0.49664,-0.98643 -0.74496,-2.15245 -0.74496,-3.49804 0,-2.25869 0.69742,-4.13344 2.09225,-5.62427 1.4054,-1.50229 3.64559,-2.17514 6.72056,-2.01855 1.20464,0.0613 2.2719,0.2178 3.20178,0.46941 0.94046,0.25215 2.41009,0.63644 3.35054,1.15288 l 0.1585,0.44058 c -0.16907,0.74829 -0.29059,1.42692 -0.36456,2.03589 -0.0634,0.60949 -0.12152,1.13462 -0.17435,2.63373 l -1.90816,-0.0702 c -0.0529,-1.85289 -0.13212,-2.36699 -0.23775,-2.60064 -0.20077,-0.40671 -0.71326,-0.8473 -1.53748,-1.32177 -0.81366,-0.48597 -1.75369,-0.9243 -2.80552,-0.80968 -0.99292,0.1082 -1.51473,0.27144 -2.31782,1.03551 -0.79251,0.75258 -1.18876,1.75962 -1.18876,3.02112 0,0.76891 0.16378,1.45005 0.49135,2.04342 0.32758,0.58135 0.78196,1.02499 1.36313,1.33092 0.59175,0.29445 0.79618,0.66512 2.72993,1.11201 1.75411,0.38969 2.94288,0.74457 3.56632,1.06465 1.02499,0.52076 1.80166,1.27517 2.33001,2.26322 0.52835,0.98804 0.79252,2.21493 0.79252,3.68068 0,2.54703 -0.85592,4.62396 -2.56776,6.23079 -1.71185,1.59482 -4.05242,2.31662 -7.02172,2.16541 -1.32087,-0.0673 -2.52021,-0.27251 -3.59804,-0.61574 -1.07783,-0.34323 -2.19264,-0.87457 -3.34443,-1.59402 0.19021,-0.83131 0.31701,-1.58775 0.38042,-2.26934 0.0845,-0.94481 0.13208,-1.69274 0.14263,-3.30212 z"
         id="text16-11"
         inkscape:label="S"
         aria-label="S"
         sodipodi:nodetypes="ccccsscsccccscsccccccccscsccccsscssccc" /><path
         style="font-weight:bold;font-size:36.3378px;line-height:0;font-family:'Book Antiqua';-inkscape-font-specification:'Book Antiqua Bold';letter-spacing:-1.2264px;word-spacing:0px;fill:url(#linearGradient38);stroke-width:2.0601;stroke-linecap:round;stroke-miterlimit:4.5;paint-order:fill markers stroke"
         d="m 284.51895,129.99999 v -0.96316 c 0.6232,-0.32106 1.74157,-0.69768 2.2968,-1.12987 0.14729,-3.34639 0.22095,-6.83479 0.22095,-10.46519 0,-2.85245 -0.0284,-5.54439 -0.085,-8.07579 -0.034,-1.80285 -0.11329,-2.31095 -0.23795,-2.58261 -0.0566,-0.16053 -0.17562,-0.27784 -0.35693,-0.35192 -0.16996,-0.0864 -0.99146,-0.19759 -2.46448,-0.33341 v -2.08505 c 2.18688,0.0617 4.21512,0.0926 6.08474,0.0926 1.81295,0 3.52959,-0.0309 5.14993,-0.0926 v 2.08505 c -1.56368,0.11113 -2.4645,0.25931 -2.70244,0.44453 -0.1473,0.11114 -0.25495,0.33958 -0.32294,0.68534 -0.0566,0.3334 -0.10197,1.79849 -0.13597,5.45359 l -0.10198,9.02043 c 0,1.69172 0.0397,3.64892 0.11898,5.87162 1.48436,0.0864 2.58346,0.12966 3.29731,0.12966 2.14156,0 3.41401,-0.17905 4.87572,-0.53715 0.2946,-1.12369 0.58354,-2.99265 0.86681,-4.54854 h 2.02485 c -0.24928,1.76581 -0.47023,4.4868 -0.66286,7.10464 -1.07644,0.17287 -2.0679,0.25931 -2.97437,0.25931 l -6.15273,-0.0741 -2.75343,-0.0371 c -1.26906,-0.0123 -4.38227,0.006 -5.22498,0.0712 z"
         id="text17"
         inkscape:label="L"
         aria-label="L"
         sodipodi:nodetypes="cccscccccscccccccscccccccsc" /><path
         style="font-weight:bold;font-size:36.9205px;line-height:0;font-family:'Book Antiqua';-inkscape-font-specification:'Book Antiqua Bold';letter-spacing:-1.24607px;word-spacing:0px;fill:url(#linearGradient39);stroke-width:2.0204;stroke-linecap:round;stroke-miterlimit:4.5;paint-order:fill markers stroke"
         d="m 303.87399,128.32757 q 1.54873,-0.0919 1.9112,-0.34917 0.24713,-0.18381 0.77436,-1.39676 1.00503,-2.38918 2.57024,-6.63455 l 5.83245,-15.93397 h 2.42197 l 7.4471,19.73827 q 1.44988,3.84105 1.7794,4.20863 0.346,0.36755 2.09243,0.4962 v 1.54377 q -2.68556,-0.12863 -5.07456,-0.12863 -2.85033,0 -5.42058,0.12863 v -1.54377 q 1.96063,-0.0919 2.25721,-0.23893 0.31304,-0.16538 0.31304,-0.5697 0,-0.34921 -0.69199,-2.38919 l -1.08742,-3.14268 q -2.04301,-0.0369 -4.56381,-0.0369 -2.19129,0 -3.98717,0.0369 l -0.72494,2.11351 q -0.29656,0.86377 -0.72493,2.57296 -0.0989,0.38593 -0.0989,0.69836 0,0.4227 0.31305,0.60648 0.32953,0.16542 2.3231,0.34919 v 1.54377 q -1.61464,-0.12863 -4.02012,-0.12863 -2.29014,0 -3.64116,0.12863 z m 10.80818,-17.80853 -3.47642,9.42805 q 1.51579,0.0919 3.3446,0.0919 1.91121,0 3.65765,-0.0919 z"
         id="text16-6-0"
         inkscape:label="A"
         aria-label="A" /><path
         d="m 328.536,105.54701 v -1.53402 q 3.54471,0.12783 6.22062,0.12783 1.70285,0 4.81316,-0.12783 v 1.53402 q -1.59859,0 -2.25889,0.29219 -0.22588,0.0913 -0.36489,0.31046 -0.19114,0.25567 -0.26065,0.85832 -0.10425,1.02268 -0.17375,5.8804 -0.0521,3.3785 -0.0521,6.86656 0,2.86716 0.62554,4.21855 0.62553,1.33313 1.82448,1.99057 1.7376,0.93138 3.78798,0.93138 2.79754,0 4.2745,-0.9679 1.47696,-0.96789 1.98087,-2.66627 0.50391,-1.69838 0.50391,-7.43268 l -0.0174,-6.75699 q -0.0174,-2.28277 -0.20852,-2.73932 -0.10425,-0.25567 -0.36489,-0.3835 -0.41703,-0.25567 -2.5369,-0.40177 v -1.53402 q 2.24151,0.12783 4.1355,0.12783 1.63334,0 4.01386,-0.12783 v 1.53402 q -1.72023,0 -2.15463,0.40177 -0.41703,0.40176 -0.5039,2.08188 -0.19114,4.09071 -0.20852,9.2589 0,3.30544 -0.0869,4.32812 -0.19114,2.52018 -1.1642,4.30986 -0.97305,1.77142 -3.23194,2.92194 -2.25889,1.15051 -5.61246,1.15051 -3.49259,0 -5.80361,-1.09572 -2.311,-1.09574 -3.28406,-2.75758 -0.97306,-1.68012 -0.97306,-4.91251 l 0.0869,-8.21796 q 0,-0.98615 -0.0869,-5.02208 -0.0347,-1.26009 -0.26065,-1.71665 -0.13901,-0.25567 -0.4344,-0.40176 -0.27801,-0.1461 -2.22413,-0.32872 z"
         id="text18"
         style="font-weight:bold;font-size:36.4822px;line-height:0;font-family:'Book Antiqua';-inkscape-font-specification:'Book Antiqua Bold';letter-spacing:-1.23128px;word-spacing:0px;fill:url(#linearGradient40);stroke-width:2.06829;stroke-linecap:round;stroke-miterlimit:4.5;paint-order:fill markers stroke"
         aria-label="U"
         inkscape:label="U" /><path
         d="m 356.50676,129.47372 v -1.52438 q 1.938,-0.0907 2.27159,-0.29036 0.22239,-0.14517 0.33359,-0.47183 0.17474,-0.43553 0.22239,-3.06689 0.0953,-4.35537 0.0953,-6.56935 l -0.0318,-7.67632 q 0,-3.04876 -0.17474,-3.52059 -0.0953,-0.27221 -0.30182,-0.39925 -0.31771,-0.21776 -2.41456,-0.41739 v -1.52437 q 2.50987,0.0907 3.71715,0.0907 1.33435,0 3.03408,-0.0907 3.6536,5.33531 8.26033,11.578 3.06585,4.1739 5.28978,6.896 v -7.18635 q 0,-4.08315 -0.0953,-7.04118 -0.0635,-1.76029 -0.25417,-2.15953 -0.0953,-0.21777 -0.34947,-0.3085 -0.25417,-0.0907 -2.22393,-0.25407 v -1.52437 q 1.73148,0.0907 3.44709,0.0907 2.35102,0 4.25725,-0.0907 v 1.52437 q -1.77915,0.12704 -2.14451,0.29036 -0.20651,0.0907 -0.33359,0.25407 -0.12708,0.16332 -0.19063,0.41738 -0.11119,0.43554 -0.12708,2.7947 l -0.0476,7.25893 -0.0318,7.31338 q 0,2.93988 0.11119,5.87975 l -0.2065,0.25406 q -1.92212,-0.39924 -2.71638,-0.52627 -4.08251,-5.172 -9.86473,-12.9935 -2.92289,-3.95613 -4.71792,-6.66008 v 7.05932 q 0,2.88543 0.0794,6.95044 0.0476,2.99431 0.22239,3.44799 0.0635,0.19962 0.23828,0.3085 0.30182,0.19963 2.28748,0.36295 v 1.52438 q -2.57342,-0.12703 -3.68538,-0.12703 -0.92135,0 -3.95543,0.12703 z"
         id="text19"
         style="font-weight:bold;font-size:34.7723px;line-height:0;font-family:'Book Antiqua';-inkscape-font-specification:'Book Antiqua Bold';letter-spacing:-1.17357px;word-spacing:0px;fill:url(#linearGradient41);stroke-width:1.97134;stroke-linecap:round;stroke-miterlimit:4.5;paint-order:fill markers stroke"
         aria-label="N"
         inkscape:label="N" /><path
         d="m 404.60891,125.7289 0.40376,0.41449 c -0.27993,0.60072 -0.52757,1.21345 -0.7429,1.8382 -1.24893,0.73287 -2.45478,1.24949 -3.61758,1.54984 -1.15203,0.31238 -2.4817,0.46856 -3.98902,0.46856 -2.82086,0 -5.20566,-0.55265 -7.15442,-1.65797 -1.94875,-1.10532 -3.4507,-2.66119 -4.50583,-4.66758 -1.04435,-2.00639 -1.56653,-4.30713 -1.56653,-6.90223 0,-3.73646 1.18432,-6.7941 3.55297,-9.17294 2.37942,-2.39085 5.65786,-3.58628 9.8353,-3.58628 1.38889,0 2.76163,0.13817 4.11823,0.4145 1.36736,0.27633 2.72396,0.69683 4.06978,1.2615 l 0.11305,0.27032 c -0.19381,0.64878 -0.32839,1.27352 -0.40376,1.87424 -0.13996,1.04525 -0.24763,2.3428 -0.32299,3.89264 h -1.88576 c -0.0646,-1.89826 -0.1292,-2.93751 -0.1938,-3.11772 -0.0646,-0.19222 -0.11513,-0.65093 -0.6427,-1.09545 -0.52756,-0.45655 -0.98472,-0.78188 -1.88911,-1.11609 -0.91016,-0.31316 -1.74383,-0.46807 -2.94679,-0.27543 -2.19414,0.35137 -3.16866,1.23633 -4.58176,2.66718 -1.51809,1.77813 -2.27713,4.25309 -2.27713,7.42487 0,3.43609 0.88208,6.13472 2.74548,8.34394 1.83917,2.05303 3.00183,2.64134 5.3731,2.95553 1.13137,0.14991 2.20716,-0.13216 3.19768,-0.39647 1.0013,-0.26431 2.10488,-0.72687 3.31073,-1.38765 z"
         id="text20"
         style="font-weight:bold;font-size:34.939px;line-height:0;font-family:'Book Antiqua';-inkscape-font-specification:'Book Antiqua Bold';letter-spacing:-1.17919px;word-spacing:0px;fill:url(#linearGradient42);stroke-width:1.9808;stroke-linecap:round;stroke-miterlimit:4.5;paint-order:fill markers stroke"
         aria-label="C"
         sodipodi:nodetypes="ccccsscscscccccccccscscscc"
         inkscape:label="C" /><path
         d="m 407.73806,129.99994 v -1.55589 q 2.26077,-0.11113 2.55415,-0.31488 0.31064,-0.22226 0.41418,-0.88907 0.17258,-1.01874 0.17258,-5.13072 l -0.0173,-10.13179 q -0.0173,-5.13072 -0.17258,-5.59378 -0.0863,-0.27784 -0.29338,-0.42602 -0.34515,-0.24078 -2.65768,-0.38897 v -1.55588 q 3.45154,0.12965 5.47069,0.12965 3.19268,0 5.83311,-0.12965 v 1.55588 q -2.1227,0.14819 -2.50237,0.3334 -0.22435,0.11114 -0.3279,0.3334 -0.17258,0.35193 -0.2416,2.14862 -0.10355,2.66723 -0.10355,5.40855 v 1.53737 q 1.7948,0.0926 5.69504,0.0926 3.4688,0 5.10829,-0.0926 0.0173,-6.01981 -0.1208,-8.00171 -0.069,-1.05578 -0.36242,-1.29656 -0.39693,-0.35193 -2.6922,-0.46307 v -1.55588 q 4.29717,0.12965 5.81585,0.12965 2.60592,0 5.50521,-0.12965 v 1.55588 q -2.20899,0.14819 -2.57139,0.35192 -0.2071,0.11115 -0.31064,0.33341 -0.15532,0.38897 -0.22436,3.01917 -0.1208,4.03789 -0.1208,6.53842 l 0.10354,8.40919 q 0.0346,2.85247 0.15532,3.27848 0.12081,0.42601 0.39694,0.61124 0.27612,0.1667 2.57139,0.3334 v 1.55589 l -1.91561,-0.0555 q -2.15721,-0.0741 -3.38251,-0.0741 -2.55414,0 -6.02294,0.12965 v -1.55589 q 2.31253,-0.11113 2.62317,-0.38896 0.3279,-0.29637 0.39693,-1.51884 0.1208,-2.09304 0.15532,-8.92783 -1.93287,-0.0741 -4.29717,-0.0741 -3.71041,0 -6.50616,0.0741 v 1.22248 q 0,4.85289 0.12081,7.27932 0.0863,1.62999 0.41418,1.90782 0.3279,0.25931 2.64043,0.42601 v 1.55589 l -2.03641,-0.0555 q -1.93287,-0.0741 -3.45155,-0.0741 z"
         id="text21"
         style="font-weight:bold;font-size:36.616px;line-height:0;font-family:'Book Antiqua';-inkscape-font-specification:'Book Antiqua Bold';letter-spacing:-1.23579px;word-spacing:0px;fill:url(#linearGradient43);stroke-width:2.07587;stroke-linecap:round;stroke-miterlimit:4.5;paint-order:fill markers stroke"
         aria-label="H"
         inkscape:label="H" /><path
         style="font-weight:bold;font-size:36.9205px;line-height:0;font-family:'Book Antiqua';-inkscape-font-specification:'Book Antiqua Bold';letter-spacing:-1.24607px;word-spacing:0px;fill:url(#linearGradient44);stroke-width:2.06275;stroke-linecap:round;stroke-miterlimit:4.5;paint-order:fill markers stroke"
         d="m 438.36234,129.98152 v -0.9995 c 0.60253,-0.29615 1.68306,-0.64165 2.18327,-1.03651 0.22737,-1.92494 0.34106,-5.97229 0.34106,-12.14202 0,-4.20775 -0.0398,-6.99647 -0.11939,-8.36616 -0.0341,-0.72803 -0.1535,-1.18458 -0.35809,-1.36967 -0.19327,-0.19743 -1.03452,-0.36402 -2.52377,-0.49975 v -1.55477 c 2.68292,0.11105 4.80311,0.16658 6.36057,0.16658 l 8.86675,-0.11106 c 0.98905,0 1.88147,0.0432 2.67725,0.12957 l 0.11937,0.2036 c -0.2501,1.345 -0.43199,3.66339 -0.54567,5.89683 h -1.34715 c -0.0569,-1.80156 -0.12508,-3.29321 -0.20463,-3.41661 -0.0682,-0.12339 -0.38338,-0.33641 -0.80044,-0.45916 -0.72793,-0.18159 -1.08924,-0.2174 -2.71076,-0.22567 -0.95493,-0.005 -2.06904,0.0432 -3.34229,0.12958 -0.14779,3.81288 -0.23305,6.84838 -0.25578,9.1065 1.21641,0.0864 1.30059,0.12956 2.36921,0.12956 1.5802,0 1.47113,-0.0555 1.78944,-0.16658 0.19326,-0.0741 0.32968,-0.25296 0.40926,-0.53676 0.0682,-0.22211 0.14779,-0.99949 0.23873,-2.33215 h 1.4665 c -0.0569,2.08536 -0.0853,3.44269 -0.0853,4.07201 l 0.0853,4.16457 h -1.4665 c -0.0796,-1.61647 -0.1819,-2.5481 -0.30694,-2.79488 -0.0682,-0.14807 -0.22169,-0.25296 -0.46043,-0.31467 -0.56841,-0.13573 -0.25985,-0.20359 -2.24931,-0.20359 -0.62525,0 -0.82934,0.037 -1.6706,0.11105 -0.0227,0.65398 -0.0341,1.32031 -0.0341,1.99899 0,3.52908 0.0568,6.24376 0.17053,8.14403 l 3.37639,0.0555 c 1.93337,9.3e-4 2.86437,-0.0515 3.68172,-0.33316 0.28421,-1.13523 0.55704,-2.42471 0.81851,-3.86843 h 1.94453 c -0.26146,2.17174 -0.41493,4.25711 -0.46041,6.2561 -1.03451,0.1234 -2.02924,0.1851 -2.98419,0.1851 -0.62526,0 -1.85872,-0.0247 -3.70039,-0.0741 -1.71663,-0.0493 -3.29682,-0.074 -4.74059,-0.074 -1.89851,0 -4.47543,0.0892 -5.6883,0.11303 z"
         id="text16-1-2"
         inkscape:label="E"
         aria-label="E"
         sodipodi:nodetypes="cccsccccccccccccsccscccccccccscsccccccscssc" /><path
         id="text23"
         style="font-weight:bold;font-size:36.5068px;line-height:0;font-family:'Book Antiqua';-inkscape-font-specification:'Book Antiqua Bold';letter-spacing:-1.2321px;word-spacing:0px;fill:url(#linearGradient45);stroke-width:2.06968;stroke-linecap:round;stroke-miterlimit:4.5;paint-order:fill markers stroke"
         d="m 472.81507,104.01295 -8.60051,0.16639 c -0.68668,0 -2.21463,-0.0491 -4.5837,-0.14779 v 1.55443 c 1.29326,0.14808 2.03121,0.28382 2.21433,0.40721 0.13734,0.0864 0.22918,0.2101 0.27493,0.37051 0.17167,0.5306 0.28033,1.97416 0.32607,4.33101 0.0457,3.15891 0.0687,5.76253 0.0687,7.81089 0,1.51776 -0.0286,3.5967 -0.0858,6.23734 -0.0458,1.70285 -0.12585,2.70264 -0.2403,2.99879 -0.0572,0.16041 -0.14901,0.27736 -0.27491,0.3514 -0.19456,0.11105 -0.95548,0.22852 -2.28307,0.35192 v 1.55494 c 1.94561,-0.0864 3.76527,-0.12971 5.45909,-0.12971 1.59082,0 3.4161,0.0433 5.47616,0.12971 v -1.55494 c -1.31616,-0.074 -2.0944,-0.18525 -2.33474,-0.33332 -0.18312,-0.0987 -0.30909,-0.22818 -0.37776,-0.3886 -0.0916,-0.22211 -0.18281,-1.25271 -0.2744,-3.09129 -0.11447,-2.44323 -0.17157,-4.44802 -0.17157,-6.01513 l 0.0202,-0.89297 c 2.01218,0.28418 3.68318,2.86783 4.80384,4.81676 1.97995,3.25763 3.4676,5.7443 4.46329,7.45949 0.83547,-0.0494 2.70664,-0.0864 5.61361,-0.1111 l 1.54203,-0.0186 v -1.42523 c -0.59512,-0.0123 -1.5532,-0.0927 -1.81643,-0.24082 -0.26324,-0.16041 -0.66409,-0.61045 -1.20199,-1.35081 l -2.84944,-4.55321 -3.3507,-5.0984 c 1.96851,-0.86377 3.0416,-1.63606 3.83129,-2.74661 0.80114,-1.1229 1.20148,-2.42444 1.20148,-3.90519 0,-1.15991 -0.25143,-2.69462 -0.75499,-3.54604 -0.49214,-0.86376 -1.16737,-1.48712 -2.02572,-1.86964 -0.84692,-0.39487 -2.2035,-1.12138 -4.069,-1.12138 z m -3.03858,2.09134 c 1.10308,0.007 2.31489,0.41349 3.12746,1.24023 0.81259,0.82675 1.21905,2.51598 1.21905,4.00906 0,1.7152 -0.5151,3.03502 -1.54512,3.96048 -1.03004,0.92568 -1.83779,0.93535 -2.90216,0.93535 -0.1986,0 -1.60309,-0.0129 -2.21433,-0.0351 l 0.10077,-4.52014 0.11989,-5.46014 c 0.88125,-0.0864 1.40533,-0.13385 2.09444,-0.1297 z"
         inkscape:label="R" /></g></g></svg>
