<?xml version="1.0" encoding="UTF-8" standalone="no"?>
<!-- Created with Inkscape (http://www.inkscape.org/) -->

<svg
   version="1.1"
   id="svg824"
   width="415.79999"
   height="191.52838"
   viewBox="0 0 415.79999 191.52839"
   sodipodi:docname="test.svg"
   inkscape:version="1.1.2 (0a00cf5339, 2022-02-04, custom)"
   xmlns:inkscape="http://www.inkscape.org/namespaces/inkscape"
   xmlns:sodipodi="http://sodipodi.sourceforge.net/DTD/sodipodi-0.dtd"
   xmlns="http://www.w3.org/2000/svg"
   xmlns:svg="http://www.w3.org/2000/svg">
  <defs
     id="defs828" />
  <sodipodi:namedview
     id="namedview826"
     pagecolor="#ffffff"
     bordercolor="#666666"
     borderopacity="1.0"
     inkscape:pageshadow="2"
     inkscape:pageopacity="0.0"
     inkscape:pagecheckerboard="0"
     showgrid="false"
     inkscape:zoom="1.7537642"
     inkscape:cx="138.274"
     inkscape:cy="49.037379"
     inkscape:window-width="1920"
     inkscape:window-height="1017"
     inkscape:window-x="-8"
     inkscape:window-y="-8"
     inkscape:window-maximized="1"
     inkscape:current-layer="g944" />
  <g
     inkscape:groupmode="layer"
     inkscape:label="Image"
     id="g830"
     transform="translate(-207.13999,-72.419996)">
    <g
       id="g944"
       transform="translate(207.99999,58.559996)"
       style="stroke:#ffffff">
      <path
         style="fill:#d699b6;stroke:#000000;stroke-width:1.72;stroke-miterlimit:4;stroke-dasharray:none"
         d="m 79.039998,204.36819 h -2.72 l 1.36,-0.1225 1.36,-0.12249 1.36,0.12249 1.36,0.1225 z m 66.159682,-6.84819 -0.0926,7.12 V 190.4 176.16 l 0.0926,7.12 0.0926,7.12 z m 106.64031,6.8043 H 205.92 l 22.95999,-0.0843 22.96,-0.0843 22.96,0.0843 22.96,0.0843 z m 72.32,0.005 h -20 l 10,-0.0893 10,-0.0893 10,0.0893 10,0.0893 z m 64.16,-0.006 -19.84,0.004 19.7583,-0.0862 19.75834,-0.0862 0.0842,-29.11758 0.0842,-29.11757 -0.003,29.20001 -0.003,29.20002 -19.84,0.004 z M 4.7197052,182.8 l -0.09209,7.44 v -14.88 -14.88 l 0.09209,7.44 0.09209,7.44 z m 201.2799948,0 -0.0921,7.44 v -14.88 -14.88 l 0.0921,7.44 0.0921,7.44 z m 65.68029,6.80738 h -26.08 l 13.04,-0.0873 13.04,-0.0873 13.04,0.0873 13.04,0.0873 z M 188.16,175.56161 h -3.36 l 1.68,-0.11753 1.68,-0.11753 1.68,0.11753 1.68,0.11753 z m 83.51999,-0.35423 h -26.08 l 13.04,-0.0873 13.04,-0.0873 13.04,0.0873 13.04,0.0873 z M 46.559999,172.695 l -2.24,0.003 1.032864,-0.12854 1.032861,-0.12853 1.207139,0.12595 1.207136,0.12595 -2.24,0.003 z m 98.639271,-13.255 -0.0983,4.56 v -9.12 -9.12 l 0.0983,4.56 0.0983,4.56 z m 223.20072,-4.23928 -0.24,6.4e-4 0.085,-3.12072 0.0849,-3.12072 0.0959,-1.6 0.0958,-1.6 0.0592,4.72 0.0592,4.72 -0.24,6.4e-4 z M 19.84,73.129453 h -20 L 9.8399998,73.04017 19.84,72.950883 l 9.999999,0.08929 10,0.08928 z m 63.999998,-0.0058 -20,0.0037 19.918317,-0.08612 19.918315,-0.08612 0.0842,-29.11759 0.0842,-29.117592 -0.003,29.200014 L 103.84,73.12 Z m 146.559992,0 -20,0.0037 19.91616,-0.08612 19.91615,-0.08611 0.0898,-12.077581 0.0898,-12.077578 -0.006,12.16 -0.006,12.16 -20,0.0037 z m 64.38996,0.07877 -19.93004,0.07753 -0.15398,-0.401267 -0.15398,-0.401267 0.0881,-11.838733 0.0881,-11.838733 0.0759,12.077578 0.0759,12.077577 19.92,0.08489 19.92,0.08489 z m 73.59999,-0.0013 -45.85004,0.0789 -0.15252,-0.4 -0.15251,-0.4 0.0843,-28.96 0.0843,-28.96 0.0783,29.198912 0.0783,29.198912 45.84,0.08218 45.84,0.08219 z M 203.75989,53.2 203.67253,66.08 V 40.32 14.56 l 0.0874,12.88 0.0874,12.88 z M 39.919682,51.443843 39.827369,58.72 l -0.07368,-7.44 -0.07369,-7.44 12.24,0.07603 12.239999,0.07603 -12.074002,0.08781 -12.074,0.0878 z m 348.240308,6.963539 h -26.08 l 13.04,-0.08728 13.04,-0.08728 13.04,0.08728 13.04,0.08728 z M 150.31983,45.81728 l -0.0902,9.06272 -8e-5,-17.92 -9e-5,-17.92 0.0903,8.85728 0.0903,8.85728 z m 237.84016,-1.809898 h -26.08 l 13.04,-0.08728 13.04,-0.08728 13.04,0.08728 13.04,0.08728 z"
         id="path958" />
      <path
         style="fill:#fdf401;stroke:#000000;stroke-width:1.72;stroke-miterlimit:4;stroke-dasharray:none"
         d="M 49.692386,160.64 H 4.7999999 v -7.36 -7.36 h 19.8399991 19.84 v 7.2 7.2 h 5.375945 5.375946 l 1.277123,-0.8281 1.27712,-0.8281 0.786934,-1.14709 0.786932,-1.14709 0.101536,-5.22481 0.101536,-5.22481 h 19.158857 19.158854 l 0.222736,1.4853 0.222732,1.48529 -0.198643,2.34994 -0.198643,2.34994 -0.640749,1.82306 -0.640752,1.82305 -1.031344,1.70171 -1.031344,1.70171 z m 75.427614,0 h -19.84 v -7.36 -7.36 h 19.84 19.84 v 7.36 7.36 z m 53.59178,0 h -19.68822 l 0.56822,-1.04 0.56822,-1.04 v -6.31983 -6.31983 l 19.12,-1.7e-4 19.12,-1.7e-4 v 7.36 7.36 z M 251.91999,160.5619 206.08,160.64 v -7.36 -7.36 h 19.83999 19.84 v 7.19812 7.19812 l 26,0.0838 26,0.0838 z m 104.24,0.0781 h -51.84 v -7.36 -7.36 h 19.83146 19.83142 l 0.0886,4.71809 0.0885,4.7181 3.96778,-4.7181 3.96774,-4.71809 h 4.20743 4.20742 l 3.82483,4.62017 3.8248,4.62016 0.24,0.0198 0.24,0.0198 v -4.64 -4.64 h 19.68 19.68 v 7.36 7.36 h -51.84 z M 51.839999,29.44 H 0 v -7.36 -7.36 h 19.84 19.839999 v 7.2 7.2 h 12.16 12.159999 v -7.2 -7.2 h 19.84 H 103.68 v 7.36 7.36 z m 79.168921,0 H 112 v -7.36 -7.36 h 19.95107 19.95106 l -0.83106,1.678357 -0.83107,1.678357 -0.11109,5.681643 -0.11108,5.681643 z m 53.47108,0 h -19.04 v -5.705767 -5.705767 l -0.79866,-1.574233 -0.79867,-1.574233 -0.001,-0.08 -0.001,-0.08 h 19.84 19.84 v 7.36 7.36 z m 78.07999,0 h -52 v -7.36 -7.36 h 52 52 v 7.36 7.36 z m 105.84,-0.07809 -45.84,0.07809 v -7.36 -7.36 h 19.84 19.84 v 7.198118 7.198119 l 26,0.08379 26,0.08379 z"
         id="path956" />
      <path
         style="fill:#e4509d;stroke:#000000;stroke-width:1.72;stroke-miterlimit:4;stroke-dasharray:none"
         d="m 105.5197,182.8 -0.0921,7.44 v -14.88 -14.88 l 0.0921,7.44 0.0921,7.44 z m 199.04,0 -0.0921,7.44 v -14.88 -14.88 l 0.0921,7.44 0.0921,7.44 z m -58.88082,3.2 -0.10208,3.6 v -7.2 -7.2 l 0.10208,3.6 0.10207,3.6 z m -185.922779,-1.10746 -0.115088,1.82746 0.0013,-3.84 0.0013,-3.84 0.113936,2.01254 0.113939,2.01254 -0.115088,1.82746 z m -9.036102,-12.19754 -2.24,0.003 1.032864,-0.12854 1.032861,-0.12853 1.207139,0.12595 1.207136,0.12595 -2.24,0.003 z M 64.238712,55.138054 64.136802,58.72 l 3.2e-4,-7.36 3.2e-4,-7.36 0.1015,3.778054 0.101501,3.778055 -0.10191,3.581945 z m 48.000928,-3.676108 -0.0923,7.258054 1.2e-4,-14.72 1.2e-4,-14.72 0.0922,7.461946 0.0921,7.461942 z m 98.55999,0 -0.0923,7.258054 1.3e-4,-14.72 1.2e-4,-14.72 0.0921,7.461946 0.0922,7.461942 z m 103.68,0 -0.0923,7.258054 1.3e-4,-14.72 1.2e-4,-14.72 0.0921,7.461946 0.0922,7.461942 z M 362.15887,54.8 362.05679,58.4 V 51.2 44 l 0.10208,3.6 0.10208,3.6 z"
         id="path954" />
      <path
         style="fill:#af7198;stroke:#000000;stroke-width:1.72;stroke-miterlimit:4;stroke-dasharray:none"
         d="m 56.479999,204.32939 -20.16,-7e-5 10.183126,-0.0892 10.18313,-0.0892 9.97687,0.0892 9.976873,0.0893 z m 68.869961,0.0731 -19.77005,0.0775 -0.15653,-0.40791 -0.15653,-0.40791 0.0933,-6.87209 0.0933,-6.87209 0.0733,7.11756 0.0733,7.11756 19.76,0.0849 19.76,0.0849 z m 53.30892,0.004 -19.90111,0.0737 -0.14848,-0.24 -0.14849,-0.24 12.8496,0.0807 12.8496,0.0807 7.2,0.0856 7.2,0.0856 z m 125.9,-3.68633 -0.10208,3.6 v -7.2 -7.2 l 0.10208,3.6 0.10207,3.6 z m -256.078881,-7.56433 -4.16,-9.6e-4 2.173309,-0.11225 2.173308,-0.11225 1.986692,0.11327 1.986691,0.11326 -4.16,-9.6e-4 z M 157.92,73.12511 l -38.4,-1.9e-5 19.30474,-0.08505 19.30474,-0.08505 19.09526,0.08507 19.09526,0.08508 z M 64.238712,69.538054 64.136802,73.12 l 3.2e-4,-7.36 3.2e-4,-7.36 0.1015,3.778054 0.101501,3.778055 -0.10191,3.581945 z m 146.559998,0 -0.10191,3.581946 3.2e-4,-7.36 3.2e-4,-7.36 0.1015,3.778054 0.1015,3.778055 -0.10191,3.581945 z m 103.68,0 -0.10191,3.581946 3.2e-4,-7.36 3.2e-4,-7.36 0.1015,3.778054 0.1015,3.778055 -0.10191,3.581945 z M 112.23693,64.4 l -0.11362,2 v -4 -4 l 0.11362,2 0.1136,2 z"
         id="path952" />
      <path
         style="fill:#dc117a;stroke:#000000;stroke-width:1.72;stroke-miterlimit:4;stroke-dasharray:none"
         d="M 24.639999,190.08 H 4.7999999 v -7.36 -7.36 h 19.8399991 19.84 v 7.36 7.36 z m 53.36741,-0.0776 -19.748703,0.0824 0.710646,-1.20243 0.710647,-1.20244 v -4.8 -4.8 l -0.72,-1.21829 -0.72,-1.21829 V 175.50171 175.36 l 18.159999,0.002 18.16,0.002 0.751379,1.10341 0.751379,1.10341 0.764285,1.89218 0.764285,1.89217 0.350921,2.36223 0.350922,2.36223 -0.268531,1.92 -0.268528,1.92 -19.748701,0.0824 z M 125.27388,190.08 H 105.6 v -7.36 -7.36 h 39.46646 39.46646 l 3.26669,6.88811 3.26669,6.8881 0.18108,0.4719 0.18109,0.47189 h -19.7332 -19.7332 l -2.09918,-4.4 -2.09919,-4.4 -1.32185,-2.72 -1.32185,-2.72 -0.0861,7.12 -0.0861,7.12 z M 251.91999,190.00283 206.08,190.08 v -7.36 -7.36 h 19.67387 19.67388 l 0.0861,7.12 0.0861,7.12 26.08,0.16283 26.08,0.16282 z m 104.4,0.0742 -51.68,-3e-5 V 182.71852 175.36 h 51.68 51.68 v 7.35854 7.35854 z M 19.84,58.56 H 0 v -7.2 -7.2 h 19.84 19.839999 v 7.2 7.2 z m 64.159998,0 h -19.68 v -7.2 -7.2 h 19.68 H 103.68 v 7.2 7.2 z m 47.848212,0 H 112.32 v -7.2 -7.2 h 18.85553 18.85553 l 0.10447,6.16 0.10447,6.16 0.56821,1.04 0.56822,1.04 z M 184,58.56 h -19.52 l 0.0113,-0.24 0.0113,-0.24 0.45732,-0.8 0.45733,-0.8 0.0113,-6.16 0.0114,-6.16 h 19.04 19.04 v 7.2 7.2 z m 46.55166,0 h -19.67167 v -7.2 -7.2 h 51.68 51.68 v 7.2 7.2 h -19.68 -19.68 v -4.826666 -4.826668 l -0.28109,0.106668 -0.2811,0.106666 -3.94455,4.72 -3.94454,4.72 h -3.89431 -3.89431 l -4.12004,-4.88 -4.12006,-4.88 -0.0883,4.88 -0.0883,4.88 z m 111.76833,2.78e-4 -19.76,-2.78e-4 v -7.2 -7.2 h 19.66832 19.66832 l 0.0917,7.200278 0.0917,7.200279 z"
         id="path950" />
      <path
         style="fill:#964377;stroke:#000000;stroke-width:1.72;stroke-miterlimit:4;stroke-dasharray:none"
         d="m 43.279999,204.31918 -38.4799991,0.20461 v -7.2219 -7.22189 h 19.8399991 19.84 v 1.6396 1.6396 l 4.72,-0.14687 4.72,-0.14688 1.143273,-0.49269 1.143271,-0.4927 1.138972,-1.00003 1.138973,-1.00003 H 78.076933 97.66938 l -0.204605,0.88 -0.204601,0.88 -1.133866,2.33275 -1.133869,2.33274 -2.219881,2.21988 -2.219882,2.21988 -2.636339,1.2609 -2.636339,1.26089 -1.76,0.32377 -1.76,0.32377 z M 125.28,204.16 H 105.6 v -7.04 -7.04 h 19.68 19.68 v 7.04 7.04 z m 53.12574,0 h -19.72759 l -1.93756,-4.08 -1.93756,-4.08 -1.38296,-2.96 -1.38296,-2.96 h 19.74374 19.74374 l 3.1977,6.75432 3.19771,6.75432 0.10666,0.28568 0.10667,0.28568 z m 73.43425,0 H 206.08 v -7.04 -7.04 h 45.75999 45.76 v 7.04 7.04 z m 72.56,-0.0175 -19.76,0.0175 v -7.04 -7.04 h 25.61411 25.61415 l -5.85415,7.02245 -5.85411,7.02246 -19.76,0.0175 z m 63.84,-9.6e-4 -19.76,-0.0186 -4.16,-4.98157 -4.16,-4.98157 -1.70422,-2.03985 -1.70426,-2.03984 h 25.62426 25.62422 v 7.04 7.04 l -19.76,-0.0186 z M 19.84,72.96 H 0 v -7.2 -7.2 h 19.84 19.839999 v 7.2 7.2 z m 64.159998,0 h -19.68 v -7.2 -7.2 h 19.68 H 103.68 v 7.2 7.2 z M 157.56287,72.947488 118.24,72.934976 117.19755,72.48192 116.1551,72.028864 115.08916,71.21583 114.02322,70.402797 113.17161,68.83808 112.32,67.273389 V 62.916694 58.56 h 19.60302 19.60303 l 0.3949,0.632346 0.39491,0.632345 1.68207,0.964653 1.68207,0.96465 2.08,-0.004 2.08,-0.004 1.28,-0.592621 1.28,-0.592621 0.93986,-1.000352 0.93987,-1.000352 H 183.89986 203.52 l -0.002,3.92 -0.002,3.92 -0.34696,1.24961 -0.34696,1.249606 -1.65126,1.641235 -1.65126,1.641235 -1.31712,0.389156 -1.31686,0.389174 -39.32287,-0.01252 z M 230.55999,72.96 h -19.68 v -7.2 -7.2 h 19.68 19.68 v 7.2 7.2 z m 64,0 h -19.68 v -7.2 -7.2 h 19.68 19.68 v 7.2 7.2 z m 73.76,0 h -45.76 v -7.2 -7.2 h 45.76 45.76 v 7.2 7.2 z m -104.54922,-11.241344 -1.22474,1.398656 -1.83302,-2.087834 -1.83302,-2.087836 V 58.750822 58.56 h 3.70179 3.70179 l -0.64403,0.88 -0.64403,0.88 z"
         id="path948" />
      <path
         style="fill:#d9241b;stroke:#000000;stroke-width:1.72;stroke-miterlimit:4;stroke-dasharray:none"
         d="M 24.639999,175.36 H 4.7999999 V 168 160.64 H 49.439999 94.079998 v 0.2944 0.29441 l -1.84,1.64573 -1.84,1.64574 -2.573338,1.27914 -2.573337,1.27914 -2.304298,0.38826 -2.304297,0.38826 2.557088,0.52875 2.557088,0.52875 1.680547,0.77724 1.680547,0.77724 1.994672,1.50959 1.994672,1.50959 0.66712,0.93688 0.667117,0.93688 H 76.344558 58.245538 l -1.428547,-1.09043 -1.428544,-1.09044 -1.629975,-0.34956 -1.629974,-0.34957 h -3.82425 -3.824249 v 1.44 1.44 z M 148.72,175.34596 105.6,175.36 V 168 160.64 h 19.68 19.68 v 1.6 1.6 l 4.72,-0.003 4.72,-0.003 1.6,-0.75452 1.6,-0.75453 0.77578,-0.84235 0.77578,-0.84235 h 19.6598 19.65981 l -0.11808,4.56 -0.11807,4.56 -0.88465,1.50916 -0.88464,1.50916 -1.11222,0.84832 -1.11222,0.84833 -1.20065,0.42847 -1.20064,0.42847 -43.12,0.014 z m 87.17294,-0.0932 -29.81294,0.21277 V 168.05276 160.64 h 45.75999 45.76 v 7.2 7.2 H 281.65294 265.70589 Z M 356.31999,175.36 h -51.68 V 168 160.64 h 51.68 51.68 v 7.36 7.36 z M 51.839999,44.08465 H 0 V 36.762323 29.44 H 51.839999 103.68 v 7.322323 7.322327 z M 131.2,44.16 H 112.32 V 36.8 29.44 h 18.88 18.88 v 7.36 7.36 z m 53.28,0 H 165.44 V 36.8 29.44 h 19.04 19.04 v 7.36 7.36 z m 78.07999,0 h -51.68 V 36.8 29.44 h 51.68 51.68 v 7.36 7.36 z m 89.81296,-0.107235 -29.81296,0.212765 V 36.852765 29.44 h 45.76 45.76 v 7.2 7.2 h -15.94704 -15.94707 z"
         id="path946" />
    </g>
  </g>
</svg>
