<?xml version="1.0" encoding="UTF-8" standalone="no"?>
<!-- Created by ERK -->

<svg
   width="1080mm"
   height="640mm"
   viewBox="0 0 1080 640"
   version="1.1"
   id="svg1"
   inkscape:version="1.3.2 (091e20e, 2023-11-25, custom)"
   xml:space="preserve"
   sodipodi:docname="hyperscan-w.svg"
   xmlns:inkscape="http://www.inkscape.org/namespaces/inkscape"
   xmlns:sodipodi="http://sodipodi.sourceforge.net/DTD/sodipodi-0.dtd"
   xmlns="http://www.w3.org/2000/svg"
   xmlns:svg="http://www.w3.org/2000/svg"><sodipodi:namedview
     id="namedview1"
     pagecolor="#ffffff"
     bordercolor="#000000"
     borderopacity="0.25"
     inkscape:showpageshadow="2"
     inkscape:pageopacity="0.0"
     inkscape:pagecheckerboard="true"
     inkscape:deskcolor="#d1d1d1"
     inkscape:document-units="mm"
     inkscape:zoom="0.29118429"
     inkscape:cx="1662.1776"
     inkscape:cy="726.34413"
     inkscape:window-width="2560"
     inkscape:window-height="1351"
     inkscape:window-x="-9"
     inkscape:window-y="-9"
     inkscape:window-maximized="1"
     inkscape:current-layer="svg1" /><defs
     id="defs1"><marker
       id="DistanceX"
       orient="auto"
       refX="0"
       refY="0"
       style="overflow:visible"><path
         d="M 3,-3 -3,3 M 0,-5 V 5"
         style="stroke:#000000;stroke-width:0.5"
         id="path1" /></marker><pattern
       id="Hatch"
       patternUnits="userSpaceOnUse"
       width="8"
       height="8"
       x="0"
       y="0"><path
         d="M8 4 l-4,4"
         stroke="#000000"
         stroke-width="0.25"
         linecap="square"
         id="path2" /><path
         d="M6 2 l-4,4"
         stroke="#000000"
         stroke-width="0.25"
         linecap="square"
         id="path3" /><path
         d="M4 0 l-4,4"
         stroke="#000000"
         stroke-width="0.25"
         linecap="square"
         id="path4" /></pattern><symbol
       id="*Model_Space" /><symbol
       id="*Paper_Space" /><symbol
       id="*Paper_Space0" /><marker
       id="DistanceX-0"
       orient="auto"
       refX="0"
       refY="0"
       style="overflow:visible"><path
         d="M 3,-3 -3,3 M 0,-5 V 5"
         style="stroke:#000000;stroke-width:0.5"
         id="path1-9" /></marker><pattern
       id="Hatch-4"
       patternUnits="userSpaceOnUse"
       width="8"
       height="8"
       x="0"
       y="0"><path
         d="M8 4 l-4,4"
         stroke="#000000"
         stroke-width="0.25"
         linecap="square"
         id="path2-8" /><path
         d="M6 2 l-4,4"
         stroke="#000000"
         stroke-width="0.25"
         linecap="square"
         id="path3-8" /><path
         d="M4 0 l-4,4"
         stroke="#000000"
         stroke-width="0.25"
         linecap="square"
         id="path4-2" /></pattern><symbol
       id="*Model_Space-4" /><symbol
       id="*Paper_Space-5" /><symbol
       id="*Paper_Space0-5" /></defs><path
     id="path119"
     style="display:inline;fill:#000000;fill-opacity:1;stroke:#000000;stroke-width:7;stroke-linecap:square;stroke-linejoin:round;stroke-miterlimit:0.5;stroke-dasharray:none;stroke-opacity:1"
     inkscape:label="HyperScanOutline"
     d="m 168.57357,115.60676 v 133.00015 h -1.00046 v 84.00004 h 1.00046 c -20.3431,8.16845 -37.99136,31.27872 -37.1135,54.08249 0.25299,6.57179 2.04485,13.11787 5.03173,18.98954 8.66231,17.02851 27.37762,28.38248 44.188,35.96266 11.09984,5.00517 21.36906,8.36539 34.62166,13.1501 1.95337,0.70525 3.97177,1.44136 5.83686,2.42725 4.13214,2.18426 7.51288,5.59392 7.54992,9.61233 0.0254,2.75711 -1.52361,5.80055 -3.90518,7.54476 -0.8598,0.6297 -1.82797,1.09009 -2.8112,1.49396 -6.12565,2.51619 -12.82895,2.84101 -19.466,2.78381 -18.21483,-0.15696 -35.93201,-3.1895 -52.61694,-10.08465 l -15.75718,46.37753 c 23.2279,5.11545 46.91169,8.99313 70.77863,9.29349 16.73444,0.21061 33.55899,-1.33739 49.72616,-6.21564 13.25387,-3.99921 26.06601,-10.23669 35.81487,-20.12745 11.039,-11.19969 18.15014,-27.08374 18.11259,-42.84855 -0.0133,-5.56817 -0.91842,-11.12157 -3.02617,-16.14992 -4.48538,-10.70058 -14.4169,-19.02362 -24.09775,-25.33541 -17.56834,-11.4543 -34.31089,-16.28394 -58.38249,-24.85739 -7.02437,-2.50184 -14.67292,-5.32268 -14.77429,-11.16211 -0.0379,-2.18136 0.97747,-4.78367 2.73885,-6.40788 0.61529,-0.56738 1.32157,-1.01558 2.1022,-1.41334 4.79095,-2.44122 12.38046,-2.99079 19.25877,-3.11557 18.71016,-0.33943 32.15831,2.46542 50.60932,9.36532 l 15.81402,-43.36532 h 96.77652 c -39.29829,13.95462 -58.02641,54.41941 -56.96086,95.37299 0.68582,26.35907 9.57159,52.92049 27.65309,69.91718 13.65006,12.8311 32.54084,20.21117 51.53535,23.78666 29.17336,5.49156 58.59124,2.00846 86.76267,-4.89272 l -6.27921,-43.4976 c -4.80105,2.37561 -11.62862,3.40324 -17.42942,4.19406 -13.83086,1.88555 -21.82348,2.42666 -31.40222,0.11937 -5.75538,-1.38634 -12.08368,-3.80122 -17.06253,-9.03769 -6.78338,-7.13436 -11.06237,-19.50662 -11.06237,-23.86677 l 10e-4,-39.02346 c 0,-8.71454 2.52286,-16.41545 7.40059,-22.56657 4.85129,-6.11778 12.03161,-10.70237 19.61327,-13.16147 13.7737,-4.4675 28.87126,-1.91936 42.65063,0 l 7.9685,-37.34398 h 76.07856 l -57.47556,187.99885 h 79.99977 l 9.35808,-42.21551 c 0.10137,-0.45773 0.50712,-0.78343 0.97617,-0.78341 h 39.3299 c 0.46842,-2e-5 0.8742,0.32568 0.97617,0.78341 l 9.35912,42.21551 h 79.99925 L 680.0948,332.60696 h 75.21298 V 520.8704 h 63.53049 c -10e-4,-26.98516 0.003,-53.97063 -0.002,-80.95578 -0.0179,-14.34575 -0.65988,-28.69026 -1.91255,-42.98084 -0.0701,-0.33154 0.0459,-0.72233 0.37569,-0.86662 0.36915,-0.2018 0.8946,-0.0347 1.02474,0.38086 14.68948,41.47322 29.37374,82.94846 44.06139,124.42238 h 84.4517 V 332.60696 h 1.73529 v -84.00004 h -1.0449 l -37.66339,-61.96108 c -0.6936,-1.14111 -0.0953,-2.62874 1.19528,-2.97191 10.94279,-2.90982 19.64001,-11.20913 23.05854,-22.00383 3.41849,-10.7947 1.0842,-22.58785 -6.18877,-31.26631 -3.36701,-4.01768 -7.65098,-7.16649 -12.49071,-9.18032 -8.91101,-3.70788 -18.46745,-5.61673 -28.11922,-5.61671 h -67.74677 v 133.00015 h -53.99877 v -29.5 c -15.94929,-1.63171 -31.96991,-2.46585 -48.00223,-2.49908 -0.55148,-0.001 -0.99788,-0.44846 -0.99788,-0.99994 v -19.0009 c 0,-0.55235 0.44765,-0.99995 0.99994,-0.99994 h 36.99929 v -28.00036 h -36.99929 c -0.55229,4e-5 -0.99994,-0.44769 -0.99994,-0.99994 v -18.00097 c 0,-0.55144 0.4464,-0.99888 0.99788,-0.99994 16.03232,-0.0332 32.05294,-0.86738 48.00223,-2.49907 V 115.60676 H 667.57205 V 248.60691 H 552.07368 v -43.99989 c -8e-5,-0.55233 0.44751,-0.99992 0.99994,-0.99994 h 17.7617 c 18.0698,2e-5 34.53603,-10.3691 42.3447,-26.66452 9.39787,-19.61183 1.63051,-43.14518 -17.5953,-53.30941 -9.97038,-5.27111 -21.07718,-8.02642 -32.35565,-8.02639 H 504.5727 v 133.00015 h -85.9994 v -46.11553 c 0,-0.58277 0.12767,-1.15827 0.3731,-1.68672 l 39.62601,-85.1979 h -50.99844 c -5.34416,15.17534 -9.52902,30.73474 -12.5181,46.54341 -0.20529,1.08557 -1.75945,1.08557 -1.96474,0 -2.98907,-15.80867 -7.17366,-31.36807 -12.51758,-46.54341 h -50.99999 l 39.62652,85.1979 c 0.24584,0.52845 0.37358,1.10395 0.37363,1.68672 v 46.11553 H 285.57315 V 115.60676 h -48.9996 v 50.99999 c -6e-5,0.55225 -0.44765,0.99997 -0.99993,0.99994 h -17 c -0.55229,3e-5 -1.0004,-0.44769 -1.00046,-0.99994 v -50.99999 z m 700.07872,28.00036 h 6.99905 c 3.57672,-6e-5 6.75455,2.28204 7.89668,5.67097 1.46645,4.35115 1.47234,9.06186 0.0171,13.41675 -1.14578,3.42864 -4.30042,5.78512 -7.91373,5.91179 h -6.99905 c -0.55269,-4e-5 -1.00046,-0.44763 -1.00046,-0.99994 v -22.99963 c 0,-0.55227 0.44777,-0.99999 1.00046,-0.99994 z m -315.57867,3.99976 h 6.50037 c 5.52231,-5e-5 9.99939,4.47704 9.99939,9.9999 v 8.00003 c 0,5.52288 -4.47708,9.99997 -9.99939,9.99991 h -6.50037 c -0.55243,7e-5 -1.00002,-0.44766 -0.99994,-0.99994 v -25.99997 c -8e-5,-0.55226 0.44751,-0.99999 0.99994,-0.99993 z m -334.5,48.00017 h 17 c 0.55228,0 0.99987,0.44759 0.99993,0.99994 v 51.99992 h -19.00039 v -51.99992 c 6e-5,-0.55235 0.44817,-0.99994 1.00046,-0.99994 z m 650.16135,1.16582 c 0.31833,0.0221 0.62898,0.19398 0.8077,0.54519 l 26.13226,51.28886 h -28.0231 v -50.83463 c 0,-0.65696 0.55258,-1.03624 1.08314,-0.99942 z m -25.88214,135.83409 h 39.45547 c 9.6e-4,21.75196 -0.003,43.50401 0.002,65.25597 0.0456,16.98887 1.11428,33.97395 3.18792,50.83514 0.0727,0.44647 -0.35362,0.83879 -0.78807,0.79943 -0.35901,-9e-5 -0.61662,-0.31219 -0.68988,-0.64027 -13.7224,-38.75017 -27.44493,-77.50017 -41.16751,-116.25027 z m -215.422,34 h 0.28422 c 0.49364,2e-5 0.91325,0.35942 0.98857,0.84697 3.40519,22.04231 7.12311,44.03537 11.1523,65.9722 0.11284,0.61435 -0.35932,1.18081 -0.98392,1.18081 h -22.59759 c -0.62463,0 -1.09647,-0.56646 -0.98392,-1.18081 4.02889,-21.93683 7.74661,-43.92989 11.15177,-65.9722 0.0753,-0.48755 0.4946,-0.84694 0.98857,-0.84697 z" /><path
     id="path132"
     style="display:inline;fill:#ffffff;fill-opacity:1;stroke:none;stroke-width:0.944827;stroke-linecap:round"
     inkscape:label="HyperScan"
     d="m 168.57357,115.60681 v 133.00015 h -1.00046 v 84.00005 h 1.00046 c -20.34309,8.16844 -37.99136,31.2787 -37.1135,54.08249 0.25299,6.57177 2.04485,13.11786 5.03174,18.98953 8.6623,17.0285 27.37761,28.38247 44.188,35.96267 11.09983,5.00516 21.36905,8.36487 34.62165,13.14958 1.95338,0.70525 3.97177,1.44187 5.83686,2.42776 4.13214,2.18427 7.51289,5.59392 7.54993,9.61232 0.0254,2.75712 -1.52362,5.80055 -3.90519,7.54476 -0.8598,0.62971 -1.82796,1.09009 -2.8112,1.49397 -6.12565,2.51619 -12.82894,2.841 -19.466,2.78381 -18.21483,-0.15696 -35.93201,-3.18951 -52.61694,-10.08465 l -15.75718,46.37752 c 23.2279,5.11546 46.91169,8.99314 70.77863,9.2935 16.73444,0.2106 33.559,-1.33738 49.72617,-6.21564 13.25386,-3.9992 26.066,-10.2367 35.81486,-20.12746 11.039,-11.1997 18.15015,-27.08375 18.11259,-42.84854 -0.0133,-5.56818 -0.91842,-11.12158 -3.02617,-16.14993 -4.48538,-10.70058 -14.41689,-19.02361 -24.09775,-25.33539 -17.56833,-11.4543 -34.31089,-16.28395 -58.38249,-24.8574 -7.02437,-2.50183 -14.67292,-5.32268 -14.77429,-11.16211 -0.0379,-2.18136 0.97748,-4.78367 2.73885,-6.40788 0.61529,-0.56737 1.32157,-1.01558 2.1022,-1.41335 4.79096,-2.44121 12.38046,-2.99079 19.25877,-3.11557 18.71017,-0.33943 32.15831,2.46542 50.60932,9.36532 l 15.81402,-43.36531 h 96.77652 c -39.29829,13.95462 -58.02641,54.4194 -56.96086,95.37299 0.68582,26.35907 9.57159,52.92048 27.65309,69.91718 13.65006,12.8311 32.54084,20.21116 51.53536,23.78666 29.17335,5.49156 58.59123,2.00845 86.76266,-4.89272 l -6.2792,-43.49761 c -4.80105,2.37561 -11.62863,3.40324 -17.42943,4.19406 -13.83086,1.88556 -21.82348,2.42666 -31.40222,0.11937 -5.75537,-1.38633 -12.08367,-3.80122 -17.06252,-9.03769 -6.78339,-7.13436 -11.06238,-19.50661 -11.06238,-23.86677 l 10e-4,-39.02346 c 0,-8.71455 2.52285,-16.41545 7.40058,-22.56658 4.85129,-6.11777 12.03161,-10.70236 19.61327,-13.16147 13.77371,-4.4675 28.87126,-1.91936 42.65063,0 l 7.9685,-37.34397 h 76.07856 l -57.47556,187.99886 h 79.99977 l 9.35809,-42.21551 c 0.10136,-0.45774 0.50711,-0.78343 0.97616,-0.78341 h 39.3299 c 0.46842,-2e-5 0.8742,0.32569 0.97617,0.78341 l 9.35912,42.21551 h 79.99925 L 680.0948,332.60701 h 75.47757 v 187.99885 h 63.00132 v -79.97651 c 10e-4,-14.62862 -0.64192,-29.25002 -1.9265,-43.82214 -0.10321,-1.17034 1.54654,-1.52919 1.93735,-0.42168 l 43.98802,124.22033 H 946.5726 V 332.60701 h 1.99987 v -84.00005 h -1.04489 l -37.66334,-61.96108 c -0.6936,-1.14111 -0.0953,-2.62873 1.19528,-2.97191 10.94279,-2.90981 19.64002,-11.20912 23.05854,-22.00382 3.4185,-10.79471 1.0842,-22.58786 -6.18877,-31.26632 -3.36701,-4.01768 -7.65098,-7.16649 -12.49071,-9.18031 -8.91101,-3.70788 -18.46745,-5.61674 -28.11921,-5.61672 H 819.5726 v 133.00016 h -53.99878 v -29.50001 c -15.94929,-1.63171 -31.96991,-2.46583 -48.00223,-2.49907 -0.55147,-0.001 -0.99787,-0.44847 -0.99787,-0.99994 v -19.00091 c 0,-0.55235 0.44764,-0.99994 0.99993,-0.99994 h 36.9993 v -28.00036 h -36.9993 c -0.55229,5e-5 -0.99993,-0.44768 -0.99993,-0.99994 v -18.00097 c 0,-0.55143 0.4464,-0.99888 0.99787,-0.99993 16.03232,-0.0332 32.05294,-0.86739 48.00223,-2.49908 v -29.5 H 667.57205 V 248.60696 H 552.07368 v -43.9999 c -8e-5,-0.55232 0.44751,-1.00044 0.99994,-1.00045 h 17.7617 c 18.0698,2e-5 34.53603,-10.36858 42.34471,-26.66401 9.39786,-19.61183 1.6305,-43.14518 -17.59531,-53.30941 -9.97038,-5.2711 -21.07718,-8.02641 -32.35565,-8.02638 H 504.5727 v 133.00015 h -85.9994 v -46.11553 c 0,-0.58278 0.12768,-1.15828 0.3731,-1.68672 l 39.62601,-85.19791 h -50.99844 c -5.34416,15.17535 -9.52902,30.73423 -12.5181,46.5429 -0.20529,1.08557 -1.75945,1.08557 -1.96474,0 -2.98907,-15.80867 -7.17366,-31.36755 -12.51758,-46.5429 h -50.99999 l 39.62653,85.19791 c 0.24583,0.52844 0.37357,1.10394 0.37362,1.68672 v 46.11553 H 285.57315 V 115.60681 h -48.99959 v 50.99998 c -7e-5,0.55225 -0.44766,0.99997 -0.99994,0.99994 h -17 c -0.55229,3e-5 -1.0004,-0.44769 -1.00046,-0.99994 v -50.99998 z m 700.07872,28.00035 h 6.99905 c 3.57672,-6e-5 6.75455,2.28204 7.89668,5.67098 1.46645,4.35114 1.47234,9.06186 0.0171,13.41675 -1.14578,3.42864 -4.30042,5.78512 -7.91373,5.91178 h -6.99905 c -0.55269,-3e-5 -1.00046,-0.44762 -1.00046,-0.99994 v -23.00014 c 0,-0.55227 0.44777,-0.99948 1.00046,-0.99943 z m -315.57867,3.99976 h 6.50038 c 5.5223,-5e-5 9.99939,4.47705 9.99939,9.99991 v 8.00002 c 0,5.52288 -4.47709,9.99998 -9.99939,9.99991 h -6.50038 c -0.55243,8e-5 -1.00002,-0.44765 -0.99994,-0.99993 v -25.99997 c -8e-5,-0.55227 0.44751,-0.99999 0.99994,-0.99994 z m -334.5,48.00017 h 17 c 0.55228,0 0.99987,0.4476 0.99994,0.99994 v 51.99993 h -19.0004 v -51.99993 c 6e-5,-0.55234 0.44817,-0.99994 1.00046,-0.99994 z m 650.16135,1.16583 c 0.31833,0.0221 0.62898,0.19398 0.8077,0.54518 l 26.13226,51.28886 h -28.0231 v -50.83462 c 0,-0.65696 0.55258,-1.03625 1.08314,-0.99942 z m -26.16223,135.83409 h 40.00015 v 64.09066 c 4.2e-4,17.36266 1.06443,34.70906 3.18636,51.94153 0.14605,1.18649 -1.5361,1.58314 -1.93528,0.4563 z M 627.43084,366.607 h 0.28422 c 0.49363,3e-5 0.91324,0.35943 0.98857,0.84698 3.40518,22.0423 7.12311,44.03537 11.15229,65.97219 0.11284,0.61435 -0.35932,1.18081 -0.98392,1.1808 h -22.59759 c -0.62463,1e-5 -1.09647,-0.56645 -0.98392,-1.1808 4.02889,-21.93682 7.74661,-43.92989 11.15178,-65.97219 0.0753,-0.48755 0.49459,-0.84695 0.98857,-0.84698 z" /><path
     id="path102"
     style="display:inline;fill:#ff0000;fill-opacity:1;stroke:none;stroke-width:0.944827;stroke-linecap:round"
     d="m 201.57324,300.60674 v -17.00001 h 708.99999 v 17.00001 z"
     inkscape:label="Rect"
     sodipodi:nodetypes="ccccc" /></svg>
