<?xml version="1.0" encoding="UTF-8" standalone="no"?>
<!-- Created with Inkscape (http://www.inkscape.org/) -->

<svg
   width="824.14508mm"
   height="415.78647mm"
   viewBox="0 0 824.14508 415.78647"
   version="1.1"
   id="svg1"
   inkscape:version="1.3.2 (091e20e, 2023-11-25, custom)"
   xml:space="preserve"
   sodipodi:docname="hyperscan.svg"
   xmlns:inkscape="http://www.inkscape.org/namespaces/inkscape"
   xmlns:sodipodi="http://sodipodi.sourceforge.net/DTD/sodipodi-0.dtd"
   xmlns="http://www.w3.org/2000/svg"
   xmlns:svg="http://www.w3.org/2000/svg"><sodipodi:namedview
     id="namedview1"
     pagecolor="#ffffff"
     bordercolor="#000000"
     borderopacity="0.25"
     inkscape:showpageshadow="2"
     inkscape:pageopacity="0.0"
     inkscape:pagecheckerboard="true"
     inkscape:deskcolor="#d1d1d1"
     inkscape:document-units="mm"
     inkscape:zoom="0.29118429"
     inkscape:cx="1663.8947"
     inkscape:cy="726.34413"
     inkscape:window-width="2560"
     inkscape:window-height="1351"
     inkscape:window-x="-9"
     inkscape:window-y="-9"
     inkscape:window-maximized="1"
     inkscape:current-layer="svg1" /><defs
     id="defs1"><marker
       id="DistanceX"
       orient="auto"
       refX="0"
       refY="0"
       style="overflow:visible"><path
         d="M 3,-3 -3,3 M 0,-5 V 5"
         style="stroke:#000000;stroke-width:0.5"
         id="path1" /></marker><pattern
       id="Hatch"
       patternUnits="userSpaceOnUse"
       width="8"
       height="8"
       x="0"
       y="0"><path
         d="M8 4 l-4,4"
         stroke="#000000"
         stroke-width="0.25"
         linecap="square"
         id="path2" /><path
         d="M6 2 l-4,4"
         stroke="#000000"
         stroke-width="0.25"
         linecap="square"
         id="path3" /><path
         d="M4 0 l-4,4"
         stroke="#000000"
         stroke-width="0.25"
         linecap="square"
         id="path4" /></pattern><symbol
       id="*Model_Space" /><symbol
       id="*Paper_Space" /><symbol
       id="*Paper_Space0" /><marker
       id="DistanceX-0"
       orient="auto"
       refX="0"
       refY="0"
       style="overflow:visible"><path
         d="M 3,-3 -3,3 M 0,-5 V 5"
         style="stroke:#000000;stroke-width:0.5"
         id="path1-9" /></marker><pattern
       id="Hatch-4"
       patternUnits="userSpaceOnUse"
       width="8"
       height="8"
       x="0"
       y="0"><path
         d="M8 4 l-4,4"
         stroke="#000000"
         stroke-width="0.25"
         linecap="square"
         id="path2-8" /><path
         d="M6 2 l-4,4"
         stroke="#000000"
         stroke-width="0.25"
         linecap="square"
         id="path3-8" /><path
         d="M4 0 l-4,4"
         stroke="#000000"
         stroke-width="0.25"
         linecap="square"
         id="path4-2" /></pattern><symbol
       id="*Model_Space-4" /><symbol
       id="*Paper_Space-5" /><symbol
       id="*Paper_Space0-5" /></defs><path
     id="path119"
     style="display:inline;fill:#ffffff;fill-opacity:1;stroke:#ffffff;stroke-width:7;stroke-linecap:square;stroke-linejoin:round;stroke-miterlimit:0.5;stroke-dasharray:none;stroke-opacity:1"
     inkscape:label="HyperScanOutline"
     d="M 40.646096,3.5 V 136.50015 H 39.64564 v 84.00004 h 1.000456 c -20.343093,8.16845 -37.9913575,31.27872 -37.113497,54.08249 0.2529893,6.57179 2.0448504,13.11787 5.0317343,18.98954 8.6623037,17.02851 27.3776167,28.38248 44.1880007,35.96266 11.099837,5.00517 21.369058,8.36539 34.621659,13.1501 1.953371,0.70525 3.971768,1.44136 5.836853,2.42725 4.132143,2.18426 7.512884,5.59392 7.549924,9.61233 0.0254,2.75711 -1.523612,5.80055 -3.905185,7.54476 -0.859795,0.6297 -1.827961,1.09009 -2.811198,1.49396 -6.125649,2.51619 -12.828944,2.84101 -19.465995,2.78381 -18.21483,-0.15696 -35.932009,-3.1895 -52.616944,-10.08465 L 6.2042706,402.83997 c 23.2278994,5.11545 46.9116904,8.99313 70.7786254,9.29349 16.734446,0.21061 33.558994,-1.33739 49.726164,-6.21564 13.25387,-3.99921 26.06601,-10.2367 35.81487,-20.12746 11.039,-11.19969 18.15014,-27.08374 18.11259,-42.84854 -0.0133,-5.56818 -0.91842,-11.12157 -3.02617,-16.14992 -4.48538,-10.70058 -14.4169,-19.02362 -24.09775,-25.33541 -17.56834,-11.4543 -34.31089,-16.28394 -58.382491,-24.85739 -7.024368,-2.50184 -14.67292,-5.32268 -14.774292,-11.16211 -0.03787,-2.18136 0.977477,-4.78367 2.738851,-6.40788 0.615288,-0.56738 1.32157,-1.01559 2.102197,-1.41335 4.790958,-2.44122 12.380461,-2.99079 19.258775,-3.11557 18.71016,-0.33943 32.15831,2.46542 50.60932,9.36532 l 15.81402,-43.36532 h 96.77652 c -39.29829,13.95462 -58.02641,54.41941 -56.96086,95.37299 0.68582,26.35907 9.57159,52.92049 27.65309,69.91718 13.65006,12.8311 32.54084,20.21117 51.53535,23.78666 29.17336,5.49156 58.59124,2.00846 86.76267,-4.89272 l -6.27921,-43.4976 c -4.80105,2.37561 -11.62862,3.40324 -17.42942,4.19406 -13.83086,1.88555 -21.82348,2.42666 -31.40222,0.11937 -5.75538,-1.38634 -12.08368,-3.80122 -17.06253,-9.03769 C 297.68899,349.32809 293.41,336.95583 293.41,332.59568 l 10e-4,-39.02346 c 0,-8.71455 2.52286,-16.41546 7.40059,-22.56658 4.85129,-6.11778 12.03161,-10.70237 19.61327,-13.16147 13.7737,-4.4675 28.87126,-1.91936 42.65063,0 l 7.9685,-37.34398 h 76.07856 l -57.47556,187.99886 h 79.99977 l 9.35808,-42.21551 c 0.10137,-0.45773 0.50712,-0.78344 0.97617,-0.78341 h 39.3299 c 0.46842,-3e-5 0.8742,0.32568 0.97617,0.78341 l 9.35912,42.21551 h 79.99925 L 552.16733,220.50019 h 75.21298 v 188.26345 h 63.53049 c -10e-4,-26.98516 0.003,-53.97063 -0.002,-80.95578 -0.0179,-14.34575 -0.65988,-28.69026 -1.91255,-42.98084 -0.0701,-0.33154 0.0459,-0.72234 0.37569,-0.86662 0.36915,-0.2018 0.8946,-0.0347 1.02474,0.38086 14.68948,41.47322 29.37374,82.94846 44.06139,124.42238 h 84.4517 V 220.50019 h 1.73529 v -84.00004 h -1.0449 L 781.93677,74.539074 c -0.6936,-1.141113 -0.0953,-2.628736 1.19528,-2.971911 10.94279,-2.909814 19.64001,-11.209127 23.05854,-22.003825 3.41849,-10.794701 1.0842,-22.587854 -6.18877,-31.266309 -3.36701,-4.017682 -7.65098,-7.166494 -12.49071,-9.1803176 C 778.6001,5.40883 769.04366,3.4999762 759.39189,3.5 h -67.74677 v 133.00015 h -53.99877 v -29.5 c -15.94929,-1.63171 -31.96991,-2.46585 -48.00223,-2.49908 -0.55148,-0.001 -0.99788,-0.44846 -0.99788,-0.99994 V 84.500223 c 0,-0.552352 0.44765,-0.999947 0.99994,-0.999939 h 36.99929 V 55.499926 h -36.99929 c -0.55229,4.3e-5 -0.99994,-0.447684 -0.99994,-0.999939 V 36.499019 c 0,-0.551437 0.4464,-0.998881 0.99788,-0.999939 16.03232,-0.03323 32.05294,-0.867382 48.00223,-2.499072 V 3.5 H 539.64458 V 136.50015 H 424.14621 V 92.500252 c -8e-5,-0.552323 0.44751,-0.999921 0.99994,-0.999939 h 17.7617 c 18.0698,2.4e-5 34.53603,-10.369097 42.3447,-26.664522 9.39787,-19.611827 1.63051,-43.145177 -17.5953,-53.309407 C 457.68687,6.2552829 446.58007,3.4999735 435.3016,3.5 h -58.65637 v 133.00015 h -85.9994 V 90.384619 c 0,-0.582774 0.12767,-1.158275 0.3731,-1.686719 L 330.64494,3.5 H 279.6465 c -5.34416,15.175341 -9.52902,30.734743 -12.5181,46.543412 -0.20529,1.085567 -1.75945,1.085567 -1.96474,0 C 262.17459,34.234743 257.99,18.675341 252.64608,3.5 h -50.99999 l 39.62652,85.1979 c 0.24584,0.528444 0.37358,1.103945 0.37363,1.686719 V 136.50015 H 157.64568 V 3.5 h -48.9996 v 50.999987 c -6e-5,0.552247 -0.44765,0.999971 -0.99993,0.999939 H 90.646145 c -0.552286,3.2e-5 -1.000393,-0.44769 -1.000456,-0.999939 V 3.5 Z M 740.72482,31.500358 h 6.99905 c 3.57672,-6.1e-5 6.75455,2.28204 7.89668,5.670971 1.46645,4.351147 1.47234,9.061859 0.0171,13.416752 -1.14578,3.428641 -4.30042,5.785118 -7.91373,5.911784 h -6.99905 c -0.55269,-3.7e-5 -1.00046,-0.447626 -1.00046,-0.999939 V 32.500297 c 0,-0.55227 0.44777,-0.999992 1.00046,-0.999939 z m -315.57867,3.999756 h 6.50037 c 5.52231,-4.5e-5 9.99939,4.477049 9.99939,9.999906 v 8.000028 c 0,5.522876 -4.47708,9.99997 -9.99939,9.999907 h -6.50037 c -0.55243,7.1e-5 -1.00002,-0.447658 -0.99994,-0.999939 V 36.500052 c -8e-5,-0.552264 0.44751,-0.999991 0.99994,-0.999938 z M 90.646145,83.500284 h 17.000005 c 0.55228,0 0.99987,0.447595 0.99993,0.999939 V 136.50015 H 89.645689 V 84.500223 c 6.3e-5,-0.552346 0.448172,-0.999939 1.000456,-0.999939 z M 740.8075,84.666105 c 0.31833,0.02209 0.62898,0.193981 0.8077,0.545186 l 26.13226,51.288859 h -28.0231 V 85.665527 c 0,-0.656957 0.55258,-1.036246 1.08314,-0.999422 z M 714.92536,220.50019 h 39.45547 c 9.6e-4,21.75196 -0.003,43.50402 0.002,65.25597 0.0456,16.98887 1.11428,33.97395 3.18792,50.83514 0.0727,0.44647 -0.35362,0.83879 -0.78807,0.79943 -0.35901,-9e-5 -0.61662,-0.31219 -0.68988,-0.64027 C 742.3704,298.0003 728.64787,259.2503 714.92529,220.50019 Z m -215.422,34 h 0.28422 c 0.49364,3e-5 0.91325,0.35942 0.98857,0.84697 3.40519,22.04231 7.12311,44.03538 11.1523,65.9722 0.11284,0.61435 -0.35932,1.18081 -0.98392,1.18081 h -22.59759 c -0.62463,0 -1.09647,-0.56646 -0.98392,-1.18081 4.02889,-21.93682 7.74661,-43.92989 11.15177,-65.9722 0.0753,-0.48755 0.4946,-0.84694 0.98857,-0.84697 z" /><path
     id="path132"
     style="display:inline;fill:#000000;fill-opacity:1;stroke:none;stroke-width:0.944827;stroke-linecap:round"
     inkscape:label="HyperScan"
     d="M 40.646098,3.5000448 V 136.5002 h -1.000456 v 84.00004 h 1.000456 c -20.343093,8.16844 -37.9913576,31.27871 -37.1134971,54.08249 0.2529893,6.57178 2.0448504,13.11787 5.0317342,18.98953 8.6623029,17.02851 27.3776169,28.38248 44.1880009,35.96267 11.099836,5.00516 21.369058,8.36487 34.621659,13.14958 1.953371,0.70525 3.971768,1.44187 5.836853,2.42776 4.132143,2.18427 7.512892,5.59392 7.549932,9.61233 0.0254,2.75711 -1.523621,5.80055 -3.905193,7.54476 -0.859796,0.6297 -1.827962,1.09009 -2.811198,1.49397 -6.125649,2.51619 -12.828944,2.841 -19.465996,2.78381 C 56.363564,366.39018 38.646385,363.35763 21.96145,356.46248 L 6.2042725,402.84001 c 23.2278985,5.11546 46.9116905,8.99314 70.7786255,9.29349 16.734446,0.21061 33.559002,-1.33738 49.726172,-6.21564 13.25386,-3.9992 26.066,-10.23669 35.81486,-20.12745 11.039,-11.1997 18.15015,-27.08375 18.11259,-42.84855 -0.0133,-5.56817 -0.91842,-11.12157 -3.02617,-16.14992 -4.48538,-10.70058 -14.41689,-19.02362 -24.09775,-25.3354 -17.56833,-11.4543 -34.31089,-16.28394 -58.382489,-24.8574 -7.024368,-2.50183 -14.67292,-5.32268 -14.774292,-11.16211 -0.03787,-2.18136 0.977477,-4.78367 2.73885,-6.40788 0.615289,-0.56737 1.321571,-1.01558 2.102198,-1.41335 4.790958,-2.44121 12.380461,-2.99079 19.258773,-3.11557 18.71017,-0.33943 32.15831,2.46542 50.60932,9.36532 l 15.81402,-43.36531 h 96.77652 c -39.29829,13.95462 -58.02641,54.4194 -56.96086,95.37299 0.68582,26.35907 9.57159,52.92048 27.65309,69.91718 13.65006,12.8311 32.54084,20.21116 51.53536,23.78666 29.17335,5.49156 58.59123,2.00845 86.76266,-4.89272 l -6.2792,-43.49761 c -4.80105,2.37561 -11.62863,3.40324 -17.42943,4.19406 -13.83086,1.88556 -21.82348,2.42666 -31.40222,0.11937 -5.75537,-1.38633 -12.08367,-3.80121 -17.06252,-9.03769 C 297.68899,349.32813 293.41,336.95588 293.41,332.59572 l 10e-4,-39.02346 c 0,-8.71455 2.52285,-16.41545 7.40058,-22.56658 4.85129,-6.11777 12.03161,-10.70236 19.61327,-13.16147 13.77371,-4.4675 28.87126,-1.91936 42.65063,0 l 7.9685,-37.34397 h 76.07856 L 389.64698,408.4991 h 79.99977 l 9.35809,-42.21551 c 0.10136,-0.45774 0.50711,-0.78344 0.97616,-0.78342 h 39.3299 c 0.46842,-2e-5 0.8742,0.32569 0.97617,0.78342 l 9.35912,42.21551 h 79.99925 L 552.16733,220.50024 H 627.6449 V 408.4991 h 63.00132 v -79.97651 c 10e-4,-14.62862 -0.64192,-29.25002 -1.9265,-43.82214 -0.10321,-1.17034 1.54654,-1.52919 1.93735,-0.42168 l 43.98802,124.22033 h 84.00004 V 220.50024 H 820.645 V 136.5002 h -1.04489 L 781.93677,74.539119 c -0.6936,-1.141113 -0.0953,-2.628736 1.19528,-2.971912 10.94279,-2.909813 19.64002,-11.209126 23.05854,-22.003824 3.4185,-10.794701 1.0842,-22.587854 -6.18877,-31.266309 -3.36701,-4.017682 -7.65098,-7.166495 -12.49071,-9.1803178 C 778.6001,5.4088748 769.04366,3.500021 759.3919,3.5000448 H 691.64513 V 136.5002 h -53.99878 v -29.50001 c -15.94929,-1.63171 -31.96991,-2.46584 -48.00223,-2.49907 -0.55147,-0.001 -0.99787,-0.44847 -0.99787,-0.99994 V 84.500268 c 0,-0.552352 0.44764,-0.999947 0.99993,-0.999939 h 36.9993 V 55.499971 h -36.9993 c -0.55229,4.2e-5 -0.99993,-0.447685 -0.99993,-0.999939 V 36.499064 c 0,-0.551437 0.4464,-0.998881 0.99787,-0.999939 16.03232,-0.03323 32.05294,-0.867382 48.00223,-2.499073 V 3.5000448 H 539.64458 V 136.5002 H 424.14621 V 92.500297 c -8e-5,-0.552323 0.44751,-1.000438 0.99994,-1.000456 h 17.7617 c 18.0698,2.4e-5 34.53603,-10.36858 42.34471,-26.664006 9.39786,-19.611826 1.6305,-43.145177 -17.59531,-53.309407 C 457.68687,6.2553277 446.58007,3.5000183 435.3016,3.5000448 H 376.64523 V 136.5002 h -85.9994 V 90.384663 c 0,-0.582773 0.12768,-1.158274 0.3731,-1.686718 L 330.64494,3.5000448 H 279.6465 c -5.34416,15.1753402 -9.52902,30.7342262 -12.5181,46.5428952 -0.20529,1.085567 -1.75945,1.085567 -1.96474,0 C 262.17459,34.234271 257.99,18.675385 252.64608,3.5000448 h -50.99999 l 39.62653,85.1979002 c 0.24583,0.528444 0.37357,1.103945 0.37362,1.686718 V 136.5002 H 157.64568 V 3.5000448 H 108.64609 V 54.500032 c -7e-5,0.552246 -0.44766,0.999971 -0.99994,0.999939 H 90.646147 c -0.552286,3.2e-5 -1.000393,-0.44769 -1.000456,-0.999939 V 3.5000448 Z M 740.72482,31.500402 h 6.99905 c 3.57672,-6e-5 6.75455,2.282041 7.89668,5.670972 1.46645,4.351147 1.47234,9.061859 0.0171,13.416752 -1.14578,3.42864 -4.30042,5.785117 -7.91373,5.911784 h -6.99905 c -0.55269,-3.7e-5 -1.00046,-0.447626 -1.00046,-0.999939 V 32.499825 c 0,-0.55227 0.44777,-0.999475 1.00046,-0.999423 z m -315.57867,3.999756 h 6.50038 c 5.5223,-4.5e-5 9.99939,4.47705 9.99939,9.999907 v 8.000028 c 0,5.522876 -4.47709,9.99997 -9.99939,9.999907 h -6.50038 c -0.55243,7.1e-5 -1.00002,-0.447659 -0.99994,-0.999939 V 36.500097 c -8e-5,-0.552265 0.44751,-0.999992 0.99994,-0.999939 z M 90.646147,83.500329 h 17.000003 c 0.55228,0 0.99987,0.447595 0.99994,0.999939 V 136.5002 H 89.645691 V 84.500268 c 6.3e-5,-0.552347 0.448172,-0.999939 1.000456,-0.999939 z M 740.8075,84.66615 c 0.31833,0.02209 0.62898,0.193981 0.8077,0.545186 l 26.13226,51.288864 h -28.0231 V 85.665572 c 0,-0.656957 0.55258,-1.036246 1.08314,-0.999422 z m -26.16223,135.83409 h 40.00015 v 64.09066 c 4.2e-4,17.36267 1.06443,34.70906 3.18636,51.94153 0.14605,1.18649 -1.5361,1.58314 -1.93528,0.45631 z m -215.1419,33.99999 h 0.28422 c 0.49363,3e-5 0.91324,0.35943 0.98857,0.84698 3.40518,22.04231 7.12311,44.03537 11.15229,65.9722 0.11284,0.61435 -0.35932,1.18081 -0.98392,1.1808 h -22.59759 c -0.62463,1e-5 -1.09647,-0.56645 -0.98392,-1.1808 4.02889,-21.93683 7.74661,-43.92989 11.15178,-65.9722 0.0753,-0.48755 0.49459,-0.84695 0.98857,-0.84698 z" /><path
     id="path102"
     style="display:inline;fill:#ff0000;fill-opacity:1;stroke:none;stroke-width:0.944827;stroke-linecap:round"
     d="M 73.645771,188.49998 V 171.49997 H 782.64576 v 17.00001 z"
     inkscape:label="Rect"
     sodipodi:nodetypes="ccccc" /></svg>
