<svg xmlns="http://www.w3.org/2000/svg" height="80.739" width="471.71" xml:space="preserve">
    <defs>
        <clipPath id="a" clipPathUnits="userSpaceOnUse">
            <path d="M0 64.592h377.368V0H0v64.592Z"/>
        </clipPath>
    </defs>
    <g clip-path="url(#a)" transform="matrix(1.25 0 0 -1.25 0 80.74)">
        <path style="fill:#2b2321;fill-opacity:1;fill-rule:nonzero;stroke:none" d="m0 0 .001 31.613c.496.503 1.141.54 1.783.541a4827.2 4827.2 0 0 0 26.365-.004 3.744 3.744 0 0 0 1.1-.148c1.225-.684.239-1.275-.169-1.718-2.206-2.394-3.819-5.107-4.715-8.243-2.155-7.544-.713-14.313 4.366-20.299.309-.364.673-.683.909-1.109.254-.459.196-.809-.344-.998-.62-.204-1.26-.184-1.895-.185-8.33-.006-16.659-.008-24.988.003C1.576-.546.694-.664 0 0" transform="translate(5.84 12.72)"/>
        <path style="fill:#2b2321;fill-opacity:1;fill-rule:nonzero;stroke:none" d="M0 0v-31.609c-.448-.459-1.029-.533-1.621-.535-7.021-.021-14.043-.049-21.064.014a2.957 2.957 0 0 0-.783.124c-1.029.419-.484 1.006-.086 1.462.835.956 1.674 1.903 2.385 2.96 1.65 2.452 2.658 5.151 3.201 8.046.153.819.155 1.696.699 2.405.408.293.89.298 1.362.32.68.033 1.1.298 1.079 1.052-.018.671-.402.916-1.011.957-.471.031-.953.025-1.379.288-.565.578-.555 1.359-.681 2.07-.743 4.221-2.489 7.935-5.4 11.106-.398.432-1.398.993-.213 1.715.625.195 1.267.174 1.905.175C-15.212.556-8.818.559-2.423.547-1.584.545-.697.669 0 0" transform="translate(89.31 44.332)"/>
        <path style="fill:#b7aba9;fill-opacity:1;fill-rule:nonzero;stroke:none" d="m0 0-23.914.028c-.489-.239-.818.098-1.133.358-2.893 2.389-6.174 3.948-9.848 4.716-.364.076-1.529-.045-.611.972 2.272.447 4.568.141 6.851.202 2.22.06 2.266.063 2.274 2.213.005 1.332-.015 2.665.002 3.997.013.985-.366 1.468-1.405 1.467-5.436-.007-10.872.002-16.308-.006-.873-.001-1.43-.312-1.502-1.256-.077-1.012-.667-1.522-1.65-1.613-.754-.07-1.146-.489-1.215-1.231-.093-.994-.636-1.524-1.63-1.648-.611-.076-1.178-.275-1.125-1.066.057-.847.735-.812 1.303-.827 1.811-.048 3.624-.007 5.436-.023.743-.006 1.495.066 2.218-.182 1.038-.871-.094-.89-.468-1.01-1.257-.401-2.566-.611-3.804-1.109-2.029-.815-3.917-1.843-5.608-3.244-.454-.377-.896-.957-1.65-.708L-83.469.001l-.055 2.882c-.624.982-.61 1.976-.061 2.981.801.58 1.732.427 2.622.429 6.914.015 13.828.035 20.741-.015 1.428-.011 2.24.406 2.269 1.906.046.175.125.339.227.488.15.145.333.312.534.296 1.761-.141 2.201.938 2.246 2.395a.866.866 0 0 0 .307.368c.232.127.488.226.746.205 1.308-.109 1.785.552 1.706 1.773-.014.207.071.409.153.604.078.147.19.259.334.34 1.889-.145 2.408 1.148 2.753 2.624l2.857.066c.982.622 1.964.627 2.945-.004l8.576.005c.983.622 1.966.625 2.948-.003l14.337.001a27.96 27.96 0 0 0 11.59 0c.424-.006.856-.065 1.271-.009 1.232.169 1.792-.282 1.581-1.562-.172-1.044.295-1.496 1.331-1.326 1.297.212 1.648-.374 1.566-1.595-.092-1.373-.007-2.757 0-4.136.752-1.944.752-3.887 0-5.83z" transform="translate(89.31 44.332)"/>
        <path style="fill:#fdfdf9;fill-opacity:1;fill-rule:nonzero;stroke:none" d="M0 0c4.49-.83 8.482-2.698 11.92-5.719 2.967-3.178 5.268-6.733 6.172-11.057.227-1.087.347-2.197.517-3.296.623-.987.619-1.975.003-2.963-.523-5.344-2.463-10.033-6.366-13.821-.144-.139-.219-.349-.326-.527-.996-1.672-2.68-2.538-4.251-3.487-2.307-1.395-4.886-2.016-7.56-2.253-1.134-.532-2.17-.57-3.361.086-.834.459-1.903-.353-2.891-.089-3.914.212-7.297 1.764-10.362 4.111-.588.45-1.25.839-1.457 1.632-2.758 2.939-5.016 6.209-5.963 10.171-1.877 7.849-.184 14.827 5.407 20.762.211.223.377.488.565.733 3.445 3.003 7.44 4.859 11.914 5.719C-4.026.883-2.013.886 0 0" transform="translate(53.475 50.079)"/>
        <path style="fill:#b8aaa9;fill-opacity:1;fill-rule:nonzero;stroke:none" d="M0 0c3.417-2.99 7.39-4.837 11.82-5.743-12.418-.009-24.834-.005-37.251-.054-1.144-.004-1.521.356-1.409 1.454.075.733.168 1.638-1.039 1.437-1.663-.277-2.047.542-1.834 1.974.047.314.028.637.039.957L0 0" transform="translate(35.513 12.696)"/>
        <path style="fill:#b6aba9;fill-opacity:1;fill-rule:nonzero;stroke:none" d="M0 0c.478-.006.962.035 1.432-.028 1.112-.147 1.594.287 1.41 1.408-.199 1.209.328 1.536 1.507 1.505 3.342-.089 6.687-.057 10.032-.073.65-.949.61-1.895-.015-2.837l.005.005c-.164-.134-.329-.313-.539-.314-1.358-.007-2.026-.673-2.032-2.032-.001-.21-.181-.375-.314-.539l.004.004c-.119-.098-.243-.253-.38-.254-1.498-.011-2.239-.752-2.251-2.25-.001-.138-.155-.261-.254-.381l.005.005c-.518-.469-1.162-.504-1.805-.505a3856.06 3856.06 0 0 0-22.561.006 3.578 3.578 0 0 0-1.106.152 1.158 1.158 0 0 0-.511.364c.018.371.098.751.044 1.111-.207 1.366.258 2.005 1.714 1.764.722-.119 1.339.079 1.162.991-.351 1.809.633 2.065 2.067 1.883.261-.033.531.008.796.015A28.01 28.01 0 0 0 0 0" transform="translate(23.125 58.794)"/>
        <path style="fill:#b8aaaa;fill-opacity:1;fill-rule:nonzero;stroke:none" d="M0 0c1.209.335 2.42.665 3.627 1.006 3.131.881 5.679 2.771 8.184 4.734l23.914.027c.01-.479-.027-.965.042-1.436.179-1.213-.326-1.68-1.509-1.485-1.161.191-1.52-.366-1.384-1.443.113-.902-.038-1.469-1.23-1.463C21.096-.005 10.548-.012 0 0" transform="translate(53.585 6.956)"/>
        <path style="fill:#c4c3c3;fill-opacity:1;fill-rule:nonzero;stroke:none" d="M0 0h-11.59c.094 2.859.094 2.859 3.016 2.859 2.223 0 4.452-.101 6.666.034C-.349 2.987.222 2.462-.024.95-.074.643-.011.317 0 0" transform="translate(83.615 61.675)"/>
        <path style="fill:#c4c3c3;fill-opacity:1;fill-rule:nonzero;stroke:none" d="M0 0h-11.59c.093 2.849.093 2.849 2.947 2.864 1.902.765 3.804.767 5.706-.002C-.091 2.853-.091 2.853 0 0" transform="translate(23.125 58.794)"/>
        <path style="fill:#c4c4c3;fill-opacity:1;fill-rule:nonzero;stroke:none" d="m0 0-.038-2.927c-.424.011-.855.076-1.271.022-1.233-.16-1.8.292-1.59 1.576.174 1.063-.329 1.466-1.348 1.315-1.141-.171-1.569.215-1.576 1.457-.008 1.293.519 1.502 1.615 1.445 1.375-.072 2.758-.007 4.137-.001l.12-.033C.616 1.892.622.941 0 0" transform="translate(5.823 50.143)"/>
        <path style="fill:#c3c3c3;fill-opacity:1;fill-rule:nonzero;stroke:none" d="M0 0v5.83c1.488-.011 2.978-.088 4.461-.013 1.129.058 1.332-.462 1.299-1.429-.029-.867-.004-1.657-1.221-1.472-1.29.197-1.905-.268-1.684-1.633.158-.982-.299-1.351-1.263-1.26C1.067.073.531.011 0 0" transform="translate(89.364 47.216)"/>
        <path style="fill:#1a1316;fill-opacity:1;fill-rule:nonzero;stroke:none" d="m0 0-5.705.002c-.1 2.875-.1 2.875 2.684 2.874h.16C.066 2.876.066 2.876 0 0" transform="translate(20.188 61.657)"/>
        <path style="fill:#c4c3c3;fill-opacity:1;fill-rule:nonzero;stroke:none" d="m0 0-2.945.004c.012.367.063.739.028 1.101-.112 1.14.03 1.819 1.527 1.815C.151 2.915 0 2.067-.025 1.102-.034.735-.009.368 0 0" transform="translate(46.164 61.672)"/>
        <path style="fill:#c4c3c3;fill-opacity:1;fill-rule:nonzero;stroke:none" d="m0 0-2.948.002c.011.368.062.739.027 1.102-.111 1.139.028 1.819 1.527 1.814C.147 2.913-.001 2.069-.026 1.103-.036.736-.01.368 0 0" transform="translate(57.689 61.673)"/>
        <path style="fill:#a09795;fill-opacity:1;fill-rule:nonzero;stroke:none" d="m0 0 .015 2.837 2.857.003C2.904.007 2.904.007 0 0" transform="translate(37.49 58.77)"/>
        <path style="fill:#c6c2bf;fill-opacity:1;fill-rule:nonzero;stroke:none" d="m0 0-.003 2.963c.366-.014.732-.038 1.098-.04 1.69-.011 1.757-.237 1.759-2.382 0-.528-.452-.485-.814-.495C1.36.028.68.015 0 0" transform="translate(72.088 27.043)"/>
        <path style="fill:#0e090c;fill-opacity:1;fill-rule:nonzero;stroke:none" d="m0 0-6.039.002c-2.926.017-5.854.11-8.776.015-1.285-.042-1.186.626-1.175 1.462.01.813-.143 1.684 1.162 1.457 1.314-.227 2.04.171 1.73 1.665-.203.982.226 1.381 1.209 1.213 1.239-.213 1.942.137 1.673 1.562-.19 1.006.193 1.354 1.272 1.343 5.855-.054 11.712-.046 17.567-.006 1 .007 1.395-.212 1.345-1.304a77.892 77.892 0 0 1-.01-6.227C9.991.233 9.652.024 8.777.032 5.852.062 2.926.017 0 0" transform="translate(53.475 50.079)"/>
        <path style="fill:#0e090d;fill-opacity:1;fill-rule:nonzero;stroke:none" d="M0 0c2.453.001 4.907-.026 7.36.016.823.015 1.245-.094 1.225-1.093-.064-3.146-.043-6.293-.009-9.439.008-.742-.186-1.027-.976-1.022-5.119.029-10.239.031-15.359 0-.792-.004-.983.277-.975 1.017.033 3.146.053 6.294-.01 9.439-.02.995.397 1.111 1.224 1.096C-5.014-.029-2.507-.001 0 0" transform="translate(75.019 58.773)"/>
        <path style="fill:#a19795;fill-opacity:1;fill-rule:nonzero;stroke:none" d="m0 0 .049 2.854 25.862.016c-.005-2.882-.005-2.883-2.835-2.882L0 0" transform="translate(5.823 50.143)"/>
        <path style="fill:#a19795;fill-opacity:1;fill-rule:nonzero;stroke:none" d="M0 0c.006 2.878.006 2.878 2.885 2.885C2.879.006 2.879.006 0 0" transform="translate(31.73 53.009)"/>
        <path style="fill:#a29795;fill-opacity:1;fill-rule:nonzero;stroke:none" d="M0 0c.004 3.138-.243 2.878 2.885 2.885C2.88.006 2.88.006 0 0" transform="translate(34.61 55.89)"/>
        <path style="fill:#1b1318;fill-opacity:1;fill-rule:nonzero;stroke:none" d="M0 0c-4.07 2.245-7.377 5.258-9.116 9.654-2.824 7.143-1.956 13.875 3.131 19.676 5.318 6.064 12.173 7.936 19.824 5.516 7.543-2.384 11.931-7.861 12.914-15.686C28.394 6.098 16.149-4.44 3.424-1.109c-.509.134-1.029.227-1.544.339C1.157-.75.445-.701 0 0" transform="translate(42.33 11.492)"/>
        <path style="fill:#fefefe;fill-opacity:1;fill-rule:nonzero;stroke:none" d="m0 0 1.88-.77C.258-1.285-.024-1.17 0 0" transform="translate(42.33 11.492)"/>
        <path style="fill:#fefdfb;fill-opacity:1;fill-rule:nonzero;stroke:none" d="M0 0c-2.724.001-2.724.001-2.724 2.718 0 3.042 0 3.042 3.04 3.043 2.721.002 2.721.002 2.721-2.722C3.036-.001 3.036-.001 0 0" transform="translate(71.903 50.13)"/>
        <path style="fill:#3c3041;fill-opacity:1;fill-rule:nonzero;stroke:none" d="M0 0c-7.45-.226-13.354 5.563-13.372 12.991-.016 7.137 5.833 13.043 13.097 12.954 7.222-.089 12.786-5.71 12.866-13.01C12.668 5.973 6.746-.177 0 0" transform="translate(50.845 15.565)"/>
        <path style="fill:#1a1418;fill-opacity:1;fill-rule:nonzero;stroke:none" d="M0 0c-5.787-.341-10.156 5.195-10.259 9.849-.131 5.961 5.376 10.455 9.947 10.347 5.799-.138 10.123-4.436 10.33-10.146C10.19 5.282 5.438-.339 0 0" transform="translate(50.566 18.447)"/>
        <path style="fill:#666;fill-opacity:1;fill-rule:nonzero;stroke:none" d="M0 0h11.85v-3.775h2.963v-7.551H11.85v-3.775H-2.962v3.775h-2.963v3.776H0v-3.776h8.888v7.551h-11.85V0h-2.963v7.55h2.963v3.775h11.85V7.55h2.962V3.775H5.925V7.55H0Z" transform="translate(108.678 51.266)"/>
        <path style="fill:#666;fill-opacity:1;fill-rule:nonzero;stroke:none" d="M0 0h14.813v-3.775H2.962v-11.326h11.851v-3.774H0v3.774h-2.962v11.326H0Z" transform="translate(132.378 55.041)"/>
        <path style="fill:#666;fill-opacity:1;fill-rule:nonzero;stroke:none" d="M162.002 55.041h8.888v-3.775h-8.888zm-2.963-18.875h-5.924v18.875h5.924v-3.775h2.963v-3.775h-2.963zM188.663 51.266h-5.925v-3.775h5.925zm-8.887 3.775h11.85v-3.775h2.963v-7.55h-11.85v-3.775h11.85v-3.775h-14.813v3.775h-2.962v11.325h2.962zM212.363 51.266h-5.925v-3.775h5.925zm-8.888 3.775h11.851v-3.775h2.962v-7.55h-11.85v-3.775h11.85v-3.775h-14.813v3.775h-2.962v11.325h2.962z"/>
        <path style="fill:#666;fill-opacity:1;fill-rule:nonzero;stroke:none" d="M0 0h14.813v-3.775h2.962v-15.1H11.85v15.1H5.925v-15.1H0Z" transform="translate(224.212 55.041)"/>
        <path style="fill:#e6e6e6;fill-opacity:1;fill-rule:nonzero;stroke:none" d="M0 0h11.85v-3.775h2.963v-7.551H11.85v-3.775H-2.962v3.775h-2.963v3.776H0v-3.776h8.888v7.551h-11.85V0h-2.963v7.55h2.963v3.775h11.85V7.55h2.962V3.775H5.925V7.55H0Z" transform="translate(253.837 51.266)"/>
        <path style="fill:#e6e6e6;fill-opacity:1;fill-rule:nonzero;stroke:none" d="M0 0h5.925v-7.55h8.888v-3.775h2.962v-15.101H11.85v15.101H5.925v-15.101H0Z" transform="translate(274.574 62.591)"/>
        <path style="fill:#e6e6e6;fill-opacity:1;fill-rule:nonzero;stroke:none" d="M310.123 51.266h-5.925V39.94h5.925zm2.963-15.1h-11.85v3.775h-2.963v11.325h2.963v3.775h11.85v-3.775h2.962V39.941h-2.962z"/>
        <path style="fill:#ececec;fill-opacity:1;fill-rule:nonzero;stroke:none" d="M0 0h2.962v7.55h5.925V0h8.888v-3.775H8.887v-11.326h8.888v-3.774H5.925v3.774H2.962v11.326H0Z" transform="translate(321.973 55.041)"/>
        <path style="fill:#e6e6e6;fill-opacity:1;fill-rule:nonzero;stroke:none" d="M0 0h8.888v-3.775h2.962V-7.55H8.888v-3.775H-5.925v3.775h11.85v3.775h-8.887V0h-2.963v3.775h2.963V7.55H11.85V3.775H0Z" transform="translate(351.597 47.49)"/>
        <path style="fill:#a19795;fill-opacity:1;fill-rule:nonzero;stroke:none" d="M0 0h1.452v-1.453h2.905v2.905H2.905v1.453h4.358v-5.81H0v1.452h-1.453V0h-1.452v4.357h1.452V5.81H0v1.453h7.263V5.81H1.452V4.357H0Z" transform="translate(105.974 23.58)"/>
        <path style="fill:#a19795;fill-opacity:1;fill-rule:nonzero;stroke:none" d="M121.952 23.58h-2.905v-1.453h2.905zm-4.358 1.452h4.358v1.453h-5.811v1.453h7.263v-1.453h1.453v-5.81h-7.263v1.453h-1.453v1.452h1.453z"/>
        <path style="fill:#a19795;fill-opacity:1;fill-rule:nonzero;stroke:none" d="M0 0h4.357v-10.168H1.453v8.715H0Z" transform="translate(127.762 30.843)"/>
        <path style="fill:#a19795;fill-opacity:1;fill-rule:nonzero;stroke:none" d="M0 0h4.357v-10.168H1.453v8.715H0Z" transform="translate(135.024 30.843)"/>
        <path style="fill:#a19795;fill-opacity:1;fill-rule:nonzero;stroke:none" d="M148.098 26.485h-2.905v-1.453h2.905zm-4.358 1.453h5.81v-1.453h1.453V23.58h-5.81v-1.452h5.81v-1.453h-7.263v1.453h-1.453v4.357h1.453zM158.265 27.938h4.358v-1.453h-4.358zm-1.452-7.263h-2.905v7.263h2.905v-1.453h1.452v-1.453h-1.452z"/>
        <path style="fill:#a19795;fill-opacity:1;fill-rule:nonzero;stroke:none" d="M0 0h4.357v1.453H0v1.452h-1.453v4.358h2.906V2.905h2.904v4.358h2.906V0H5.81v-1.453H0Z" transform="translate(166.98 20.675)"/>
        <path style="fill:#d50f2a;fill-opacity:1;fill-rule:nonzero;stroke:none" d="M0 0h-259.211l3.001-2.911H3Z" transform="translate(362.28 17.922)"/>
        <path style="fill:#e5e2e1;fill-opacity:1;fill-rule:nonzero;stroke:none" d="M0 0h-259.211l3.001-2.911H3Z" transform="translate(366.207 13.665)"/>
        <path style="fill:#fdfbfc;fill-opacity:1;fill-rule:nonzero;stroke:none" d="M0 0h-2.253c-.275 0-.5.225-.5.5v2.165c0 .275.225.5.5.5H0c.275 0 .5-.225.5-.5V.5C.5.225.275 0 0 0" transform="translate(52.24 59.839)"/>
        <path style="fill:#e5e2e1;fill-opacity:1;fill-rule:nonzero;stroke:none" d="M0 0h-12.158c-.55 0-1 .45-1 1v3.876c0 .55.45 1 1 1H0c.55 0 1-.45 1-1V1C1 .45.55 0 0 0" transform="translate(22.698 42.373)"/>
        <path style="fill:#d4102e;fill-opacity:1;fill-rule:nonzero;stroke:none" d="M15.006 45.474h-2.775v2.775h2.775zM21.042 45.474h-2.775v2.775h2.775z"/>
        <path style="fill:#d50f2a;fill-opacity:1;fill-rule:nonzero;stroke:none" d="M358.418 22.282h-6.338v3.191h6.338zM374.212 22.282h-6.338v3.191h6.338zM358.418 3.055h-6.338v3.191h6.338zM377.368 3.055h-9.301v3.191h9.301z"/>
        <path style="fill:#d50f2a;fill-opacity:1;fill-rule:nonzero;stroke:none" d="M0 0v-9.301h-3.191V0Z" transform="translate(374.313 9.301)"/>
        <path style="fill:#d50f2a;fill-opacity:1;fill-rule:nonzero;stroke:none" d="M374.311 19.113h-3.191v6.338h3.191zM355.271 3.095h-3.191v6.338h3.191zM355.271 19.113h-3.191v6.338h3.191zM374.311 14.892h-3.191v3.125h3.191zM374.311 10.515h-3.191v3.125h3.191zM367.042 22.314h-3.191v3.125h3.191zM362.665 22.314h-3.191v3.125h3.191z"/>
        <path style="fill:#e5e2e1;fill-opacity:1;fill-rule:nonzero;stroke:none" d="M355.271 15.011h-3.191v2.911h3.191z"/>
        <path style="fill:#d50f2a;fill-opacity:1;fill-rule:nonzero;stroke:none" d="M355.271 10.754h-3.191v2.911h3.191zM362.665 3.088h-3.191v3.125h3.191zM367.042 3.088h-3.191v3.125h3.191z"/>
    </g>
</svg>
