<svg xmlns="http://www.w3.org/2000/svg" version="1.2" width="566.93" height="89.334" xml:space="preserve">
    <g style="fill:#f2f2f2" fill="#6B6B6B">
        <path d="M429.039 490.88c-.636 0-.999.541-.999 1.212l-.132 13.085c0 .636.541.966 1.212.966l6.011-.049c.672 0 1.213-.362 1.213-.999v-2.424c0-.637-.541-.982-1.213-.982l-3.881.016c-.671 0-1.229-.33-1.229-.967v-8.646c0-.671-.344-1.212-.982-1.212zm29.396 0c-.079 0-.157.017-.229.033-.496.113-.771.591-.771 1.179l-.146 13.085c0 .398.218.665.54.818a1.425 1.425 0 0 0 .442.131c.078.01.161.017.245.017l5.993-.049c.672 0 1.212-.362 1.212-.999v-2.424c0-.636-.54-.982-1.212-.982l-3.882.016c-.671 0-1.212-.33-1.212-.966l-.017-8.647c.002-.671-.327-1.212-.963-1.212zm-94 .017c-.673 0-1.229.378-1.229 1.015l.065 1.965-.065 10.988c0 .672.346 1.212.981 1.212.079 0 .143 0 .214-.016.496-.113.786-.608.786-1.196v-8.646c0-.636.54-.999 1.211-.999h.836c.671 0 1.212.363 1.212.999l.817 4.602c0 .672.33 1.212.968 1.212h2.146c.078 0 .157-.002.229-.016.491-.098.77-.527 1.079-1.13 0 0 2.47-5.901 2.57-6.125.223-.483.836-.403.836.065v8.793l.033 1.294c0 .672.328 1.229.965 1.229l2.475.016a.734.734 0 0 0 .394-.082c.323-.168.471-.574.786-1.13l1.852-4.045c.302-.585.704-.987 1.211-.999h3.063c.672 0 1.212.362 1.212.999l.164 4.308c-.009.436.219.678.573.818.118.047.252.089.394.115.565.105 1.291.065 1.884.082.563.015 1.44-.358 1.44-.981l.032-13.363c0-.637-.54-.982-1.212-.982h-6.484c-.671 0-1.021.34-1.212.982 0 0-4.267 10.776-4.372 11.021a.266.266 0 0 1-.064.082.674.674 0 0 1-.264.115c-.244.055-.539-.002-.539-.312l-.018-10.546c0-.672-.279-1.294-.917-1.294h-2.293c-.638 0-.871.426-1.326 1.212 0 0-2.704 6.669-2.866 6.977a.556.556 0 0 1-.181.196.47.47 0 0 1-.212.098c-.154.022-.304-.047-.347-.262-.081-.429-1.323-7.254-1.323-7.254 0-.636-.541-1.015-1.213-1.015l-4.291-.002zm118.383 0c-.672 0-1.229.345-1.229.982l-.063 13.232c0 .238.081.432.212.59.132.157.307.277.523.343a1.767 1.767 0 0 0 .474.066l2.063.016v.017h5.044a1.782 1.782 0 0 0 .475-.066c.437-.124.736-.423.736-.9 0-.636-.541-1.016-1.213-1.016h-5.044v.033c-.646-.017-1.161-.395-1.161-1.015l.082-6.977c0-.636.539-.966 1.212-.966h4.979c.672 0 1.229-.33 1.229-.966v-2.326c0-.637-.558-.999-1.229-.999l-7.09-.048zm21.633 0c-.084 0-.166.006-.245.017-.555.072-.981.408-.981.966-.002.332.003.651 0 .982-.023 3.76-.104 7.54-.049 11.299.003.23-.037.477-.051.721a1.6 1.6 0 0 0 .018.361c.02.116.055.225.114.327.158.269.388.44.64.541.252.1.536.123.818.115.442-.012.862.034 1.261.016.133-.006.271-.027.394-.049.495-.088.906-.331 1.181-.982l.163-4.308c0-.636.54-.999 1.212-.999h3.274c.672 0 1.212.362 1.212.999l.05 4.045c0 .672.328 1.212.966 1.212.079 0 .158 0 .229-.016.496-.113.785-.608.785-1.196v-5.551c0-.955-.838-1.264-1.457-1.573a2.233 2.233 0 0 1-.477-.294.502.502 0 0 1-.181-.393c0-.842-.017-5.257-.017-5.257 0-.637-.542-.982-1.212-.982l-7.647-.001zm14.528 0c-.084 0-.168.006-.246.017-.555.072-.982.408-.982.966l-.064 13.232a.91.91 0 0 0 .359.736c.057.043.115.082.182.115.192.099.421.148.672.148h8.435c.67 0 1.211-.363 1.211-.999l-.063-13.232c0-.637-.54-.982-1.213-.982l-8.291-.001zm13.116 0c-.084 0-.167.005-.245.017a1.37 1.37 0 0 0-.428.13.95.95 0 0 0-.539.868l.064 1.965-.064 10.988c0 .588.264 1.083.754 1.196a.904.904 0 0 0 .213.016c.079 0 .158 0 .229-.016.496-.113.786-.608.786-1.196v-8.646c0-.636.542-.999 1.212-.999h4.438c.671 0 1.212.363 1.212.999l.05 8.614c0 .672.33 1.212.966 1.212.079 0 .158 0 .229-.016.496-.113.786-.608.786-1.196l-.018-9.58.018-3.341c0-.637-.559-1.015-1.229-1.015h-8.434zm20.831 0c-.505 0-.945.193-1.131.557a.92.92 0 0 0-.082.426l-.081 13.232c0 .238.081.432.213.59.219.262.58.409.999.409l7.105.033c.671 0 1.212-.329 1.212-.966 0-.636-.541-1.015-1.212-1.015l-4.979.033c-.671 0-1.229-.38-1.229-1.016l.082-6.977c0-.636.54-.966 1.212-.966h4.979c.673 0 1.229-.33 1.229-.966v-2.326c0-.637-.557-.999-1.229-.999l-7.088-.049zm-5.961.017c-.396 0-.682.2-.834.524a1.552 1.552 0 0 0-.149.687l.063 8.729c0 .478-.25.793-.653.918a1.57 1.57 0 0 1-.215.049c-.074.011-.16 0-.244 0h-.459c-.672 0-1.326.329-1.326.966v2.325c0 .319.163.565.408.737.063.042.127.082.196.114.213.099.47.148.722.148h3.995c.671 0 1.212-.363 1.212-.999v-2.325c0-.1-.004-.184-.018-.263-.088-.551-.473-.62-.852-.687a1.697 1.697 0 0 1-.458-.131c-.232-.116-.396-.336-.396-.852v-8.729c.006-.671-.355-1.211-.992-1.211zm-150.449.032c-.672 0-1.229.361-1.229.999v2.326c0 .636.558.966 1.229.966h1.521c.671 0 1.212.33 1.212.966l-.064 8.729c0 .671.347 1.212.982 1.212.079 0 .143 0 .212-.017.497-.113.786-.607.786-1.195v-8.729c0-.557.412-.877.967-.949.079-.011.162-.017.245-.017h4.193c.669 0 1.211.33 1.211.966v8.729c0 .671.361 1.212.999 1.212.08 0 .159 0 .229-.017.49-.113.735-.607.735-1.195l-.064-8.729c0-.557.431-.877.981-.949.079-.011.162-.017.246-.017h1.521c.672 0 1.212-.33 1.212-.966v-2.326c0-.637-.539-.999-1.212-.999h-15.912zm96.767 0a1.7 1.7 0 0 0-.476.064 1.4 1.4 0 0 0-.213.082c-.323.163-.54.454-.54.852v2.326c0 .636.558.966 1.229.966h1.522c.671 0 1.212.33 1.212.966l-.064 8.729c0 .335.082.648.246.868.04.055.097.104.146.146a.83.83 0 0 0 .359.18c.07.017.148.017.229.017.079 0 .143 0 .214-.017.495-.113.784-.607.784-1.195v-8.729c0-.557.414-.877.968-.949.078-.011.161-.017.244-.017h1.523c.67 0 1.211-.33 1.211-.966v-2.326c0-.637-.541-.999-1.211-.999h-7.385v.002h.002zm78.426 0-7.188.049a1.93 1.93 0 0 0-.245.015c-.556.08-.968.427-.968.983l.082 6.681c0 .637.541.982 1.212.982l3.521.065c.671 0 1.212.379 1.212 1.015l-.082 2.44a.923.923 0 0 1-.099.426c-.122.242-.349.409-.64.491-.071.021-.149.022-.229.033a1.794 1.794 0 0 1-.246.016l-5.011.017c-.085 0-.167.007-.246.016-.554.074-.966.409-.966.967a.89.89 0 0 0 .344.736c.221.172.532.263.868.263h9.448c.335 0 .633-.083.853-.246a.86.86 0 0 0 .36-.72l.082-6.567c0-.636-.559-.966-1.229-.966h-5.829c-.673 0-1.213-.33-1.213-.967l-.082-2.768c0-.636.559-.999 1.229-.999l5.061.017c.673 0 1.213-.363 1.213-.999 0-.634-.54-.981-1.212-.98zm-153.527.114c-.671 0-1.212.33-1.212.967v4.603c0 .67-.329 1.212-.967 1.212l-1.311.033c-.671 0-1.212.33-1.212.966l-.082 6.271c0 .479.317.8.754.933.071.022.134.038.213.049.079.011.162.017.245.017l9.843.033c.671 0 1.212-.33 1.212-.966 0-.636-.541-1.015-1.212-1.015l-7.713.033c-.672 0-1.212-.38-1.212-1.016l.063-2.342c0-.636.541-.966 1.213-.966l7.647.016c.084 0 .167-.006.245-.016.079-.011.141-.029.213-.049.438-.124.754-.439.754-.917 0-.557-.413-.904-.967-.982a1.625 1.625 0 0 0-.245-.017l-1.703-.017c-.084 0-.167-.005-.246-.016-.315-.045-.577-.167-.753-.377a.94.94 0 0 1-.213-.606l.064-2.866c0-.636.558-.982 1.229-.982h1.621c.671 0 1.212-.346 1.212-.982 0-.637-.541-.999-1.212-.999l-6.268-.002zm29.381 0c-.421 0-.781.124-1 .377a.836.836 0 0 0-.114.179.854.854 0 0 0-.099.41v4.602c0 .67-.328 1.212-.966 1.212l-1.312.033c-.671 0-1.212.33-1.212.966l-.082 6.271a.9.9 0 0 0 .213.59c.131.157.321.277.54.343a1.778 1.778 0 0 0 .474.066l9.825.033c.672 0 1.212-.33 1.212-.966 0-.636-.54-1.015-1.212-1.015l-7.713.033c-.671 0-1.212-.38-1.212-1.016l.064-2.342c0-.636.559-.966 1.229-.966l7.63.016c.085 0 .167-.006.246-.016.08-.011.156-.029.229-.049.437-.124.735-.439.735-.917 0-.557-.411-.904-.967-.982a1.638 1.638 0 0 0-.246-.017l-1.702-.017c-.084 0-.166-.005-.246-.016-.314-.045-.577-.167-.753-.377a.934.934 0 0 1-.213-.606l.082-2.866c0-.636.541-.982 1.211-.982h1.622c.672 0 1.212-.346 1.212-.982 0-.637-.54-.999-1.212-.999h-6.263zm24.382 0c-.42 0-.797.124-1.017.377a.873.873 0 0 0-.113.179.855.855 0 0 0-.1.41l.018 4.602c0 .67-.348 1.212-.982 1.212l-1.294.033c-.672 0-1.212.33-1.212.966l-.082 6.271c0 .238.082.432.214.59.132.157.306.277.523.343a1.742 1.742 0 0 0 .473.066l9.826.033c.671 0 1.229-.33 1.229-.966 0-.636-.559-1.015-1.229-1.015l-7.696.033c-.672 0-1.229-.38-1.229-1.016l.081-2.342c0-.636.54-.966 1.212-.966l7.632.016c.084 0 .166-.006.246-.016.078-.011.155-.029.229-.049.438-.124.754-.439.754-.917 0-.557-.431-.904-.981-.982a1.657 1.657 0 0 0-.246-.017l-1.688-.017a1.79 1.79 0 0 1-.245-.016c-.315-.045-.595-.167-.771-.377a.928.928 0 0 1-.195-.606l.064-2.866c0-.636.54-.982 1.212-.982h1.621c.671 0 1.229-.346 1.229-.982 0-.637-.559-.999-1.229-.999h-6.254zm-84.452 2.015h2.702c.67 0 1.212.33 1.212.966l.082 2.849c0 .637-.542.999-1.212.999h-4.014c-1.378-.019-1.196-.984-1.112-1.31l1.13-2.539c.326-.554.54-.965 1.212-.965zm119.104 0h3.343c.671 0 1.212.33 1.212.966l.082 2.849c0 .637-.56.999-1.229.999h-3.472c-.672 0-1.212-.362-1.212-.999l.064-2.849c.001-.636.542-.966 1.212-.966zm14.314 0h4.404c.671 0 1.212.33 1.212.966l.063 6.993c0 .636-.541.999-1.212.999h-4.534c-.672 0-1.213-.362-1.213-.999l.065-6.993c.003-.636.544-.966 1.215-.966zM340.803 496.705s-15.496 59.529-15.91 60.881c-.542 1.758-2.217 2.334-3.094.304-1.082-2.165-12.816-42.374-12.816-42.374h-21.38s15.962 52.369 16.685 53.92c7.577 16.234 24.275 9.75 27.705-2.154 3.527-12.254 18.618-70.576 18.618-70.576h-9.808v-.001zm-220.761 4.447-33.175 21.159v-6.685H76.315v29.198c0 .729-1.371 2.065-2.597.275 0 0-14.051-20.15-19.144-26.242-4.228-5.062-18.975-4.803-19.031 7.182-.038 7.607.026 52.151.026 52.151h10.553v-36.819c0-2.039 1.806-1.322 2.928-.058.521.588 23.124 35.004 24.142 36.381 2.306 3.108 13.701 5.406 13.701-6.354 0-8.427-.021-33.382-.028-46.849h10.304c1.081 0 2.457 1.213 2.458 1.215-.01 1.021-.166 33.137-.166 37.375 0 9.528 7.895 15.966 16.436 15.966h19.032v-9.255h-8.756c-3.138 0-5.607-2.306-5.607-5.44V528.25c0-1.942 1.559-4.696 4.668-4.696 3.111 0 9.75-.083 9.75-.083v-7.956h-13.093c-1.218 0-1.851-.958-1.851-1.851l.002-12.512zm-113.032.359s-.166 73.3-.166 77.675l20.468-.027v-77.646l-20.302-.002zm478.674 13.259c-9.841 0-18.67 4.102-24.807 10.635-.359.385-.708.786-1.05 1.188-4.783 5.61-7.679 12.791-7.679 20.636 0 4.48.953 8.769 2.65 12.649.213.485.429.964.662 1.437 4.005 8.041 11.321 14.246 20.247 16.935.526.158 1.067.28 1.604.414a34.52 34.52 0 0 0 8.369 1.021c18.524 0 33.563-14.529 33.563-32.455.002-17.931-15.034-32.46-33.559-32.46zm-89.525.469c-12.309 0-21.851 8.804-21.851 21.326 0 12.896 14.228 16.998 21.739 17.789 4.726.496 9.28 3.765 9.28 8.396 0 3.727-3.219 6.74-6.687 6.74l-21.96-.084v9.254h24.31c.384 0 .752-.008 1.132-.027 11.773-.579 21.132-10.041 21.132-21.711 0-1.926-.106-3.633-.358-5.166-.063-.383-.145-.743-.221-1.104-2.104-9.762-9.756-11.649-21.685-14.807 0 0-6.326-1.967-6.326-5.773 0-2.379 1.377-4.012 3.261-4.889.188-.088.382-.175.579-.249.986-.364 2.065-.524 3.149-.524l14.888.055v-9.227h-20.382v.001zm-133.805.083s-.166 6.508-.166 10.883l20.469-.056v-10.828l-20.303.001zm86.929 0s-.14 6.508-.14 10.883l20.441-.056v-10.828l-20.301.001zm78.282 0s-.139 6.508-.139 10.883l20.439-.056v-10.828l-20.3.001zm-274.596.056c-5.871 0-10.142 3.04-12.237 8.039-.189.455-.343.923-.497 1.41-.617 1.942-.938 4.135-.938 6.519v31.188c0 9.527 5.134 16.324 13.673 16.324h30.661v-9.228h-18.259c-3.137 0-5.578-2.657-5.552-5.802v-12.209h20.966v-9.227l-20.993-.057-.056-12.265c0-3.137 2.498-5.44 5.635-5.44h18.259v-9.254l-30.662.002zm34.97.11s-.166 43.219-.166 47.594c0 1.785.276 3.451.746 4.998.156.517.321 1.033.524 1.521 2.234 5.345 7.184 8.819 12.928 9.364a17.3 17.3 0 0 0 1.602.083h19.032v-9.254h-8.396c-3.137 0-5.607-2.306-5.607-5.44v-48.866h-20.663zm36.241 0s-.138 43.219-.138 47.594c0 8.934 6.365 15.141 14.197 15.883.522.049 1.041.083 1.575.083h19.031v-9.255h-8.729c-3.137 0-5.635-2.305-5.635-5.439v-48.866H224.18zm339.013.138v29.198c0 .729-1.369 2.064-2.598.275 0 0-14.022-20.15-19.113-26.242-4.23-5.062-19.001-4.803-19.062 7.182-.035 7.607.027 52.151.027 52.151H533v-36.819c0-2.039 1.805-1.322 2.929-.058.521.588 23.151 35.004 24.17 36.381.433.582 1.164 1.136 2.101 1.573.313.146.646.298.994.414 4.171 1.403 10.58.479 10.58-8.342 0-11.761-.028-55.715-.028-55.715h-10.553v.002zm-77.509 6.712c8.129 0 11.382 11.144 11.382 24.889 0 13.743-3.822 24.871-11.382 24.889-2.065.005-3.795-.676-5.248-1.935a11.411 11.411 0 0 1-1.961-2.293c-.146-.224-.306-.452-.441-.69-2.616-4.539-3.701-11.812-3.701-19.971 0-.859.013-1.705.027-2.542.143-7.528.985-14.067 3.563-18.093.146-.225.288-.428.442-.635 1.694-2.286 4.047-3.619 7.319-3.619zm-223.33 7.846s-.166 44.626-.166 49.001l20.469-.026v-48.975h-20.303zm86.929 0s-.14 44.626-.14 49.001l20.441-.026v-48.975h-20.301zm78.282 0s-.139 44.626-.139 49.001l20.439-.026v-48.975h-20.3z" style="fill:#f2f2f2" transform="translate(-6.844 -490.88)"/>
    </g>
</svg>
