<?xml version="1.0" encoding="UTF-8" standalone="no"?>
<!-- Created with Inkscape (http://www.inkscape.org/) -->

<svg
   width="150.00023mm"
   height="23.635838mm"
   viewBox="0 0 150.00023 23.635838"
   version="1.1"
   id="svg1"
   inkscape:version="1.4 (86a8ad7, 2024-10-11)"
   sodipodi:docname="intellivision.svg"
   xmlns:inkscape="http://www.inkscape.org/namespaces/inkscape"
   xmlns:sodipodi="http://sodipodi.sourceforge.net/DTD/sodipodi-0.dtd"
   xmlns="http://www.w3.org/2000/svg"
   xmlns:svg="http://www.w3.org/2000/svg">
  <sodipodi:namedview
     id="namedview1"
     pagecolor="#ffffff"
     bordercolor="#000000"
     borderopacity="0.25"
     inkscape:showpageshadow="2"
     inkscape:pageopacity="0.0"
     inkscape:pagecheckerboard="true"
     inkscape:deskcolor="#d1d1d1"
     inkscape:document-units="mm"
     inkscape:zoom="3.2943742"
     inkscape:cx="292.01297"
     inkscape:cy="101.84028"
     inkscape:window-width="3840"
     inkscape:window-height="2066"
     inkscape:window-x="-11"
     inkscape:window-y="-11"
     inkscape:window-maximized="1"
     inkscape:current-layer="svg1" />
  <defs
     id="defs1">
        
    </defs>
  <path
     d="m 111.70576,0 c -0.16828,0 -0.26432,0.14313958 -0.26432,0.320675 l -0.0349,3.4620729 c 0,0.168275 0.14313,0.2555875 0.32067,0.2555875 l 1.59041,-0.012965 c 0.1778,0 0.32094,-0.095779 0.32094,-0.2643188 v -0.64135 c 0,-0.1685395 -0.14287,-0.2598208 -0.32094,-0.2598208 l -1.02658,0.00423 c -0.1778,0 -0.32544,-0.087312 -0.32544,-0.255852 V 0.320675 C 111.96558,0.14313958 111.87456,0 111.70576,0 Z m 7.77769,0 c -0.0209,0 -0.0415,0.00449792 -0.0606,0.00873125 C 119.29163,0.03862917 119.21913,0.1651 119.21913,0.320675 l -0.0389,3.4620729 c 0,0.1053041 0.0577,0.1759479 0.14287,0.2164291 a 0.37703125,0.37703125 0 0 0 0.11695,0.03466 c 0.0206,0.00265 0.0426,0.0045 0.0648,0.0045 l 1.58565,-0.012965 c 0.1778,0 0.32067,-0.095779 0.32067,-0.2643188 v -0.64135 c 0,-0.168275 -0.14287,-0.2598208 -0.32067,-0.2598208 l -1.02711,0.00423 c -0.17727,0 -0.32068,-0.087312 -0.32068,-0.2555874 l -0.004,-2.2878521 C 119.73877,0.14313958 119.65173,0 119.48345,0 Z M 94.612618,0.00449792 c -0.178065,0 -0.325173,0.1000125 -0.325173,0.26855208 l 0.0172,0.51990624 -0.0172,2.90724166 c 0,0.1778 0.09154,0.320675 0.259556,0.320675 0.02117,0 0.03784,0 0.05662,-0.00423 0.131233,-0.029898 0.207962,-0.1608666 0.207962,-0.3164416 V 1.4126104 c 0,-0.168275 0.142875,-0.2643187 0.320411,-0.2643187 h 0.221191 c 0.177536,0 0.320675,0.096044 0.320675,0.2643187 l 0.216165,1.2176125 c 0,0.1778 0.08731,0.320675 0.256117,0.320675 h 0.567795 c 0.02064,0 0.04154,-5.292e-4 0.06086,-0.00423 0.129645,-0.025929 0.203729,-0.1394354 0.28522,-0.2989791 0,0 0.653521,-1.5613062 0.67998,-1.6205729 0.059,-0.12779376 0.221191,-0.10662709 0.221191,0.017198 v 2.3264812 l 0.0087,0.3423709 c 0,0.1778 0.08678,0.3251729 0.255323,0.3251729 l 0.654844,0.00423 a 0.19420416,0.19420416 0 0 0 0.104246,-0.021696 c 0.08546,-0.04445 0.124619,-0.1518709 0.207962,-0.2989792 l 0.490009,-1.0702396 c 0.0799,-0.1547812 0.186266,-0.2611437 0.320408,-0.2643187 h 0.81042 c 0.1778,0 0.32067,0.095779 0.32067,0.2643187 l 0.0434,1.139825 c -0.002,0.1153584 0.0582,0.1793875 0.15161,0.2164292 0.0312,0.012435 0.0667,0.023548 0.10425,0.030427 0.14949,0.027781 0.34157,0.017198 0.49847,0.021696 0.14896,0.00397 0.381,-0.094721 0.381,-0.2595562 l 0.008,-3.53562709 c 0,-0.16853958 -0.14288,-0.25982083 -0.32068,-0.25982083 h -1.71556 c -0.17727,0 -0.26987,0.08995834 -0.320667,0.25982083 0,0 -1.128977,2.85114999 -1.156758,2.91597289 a 0.07037917,0.07037917 0 0 1 -0.01693,0.021696 0.17832916,0.17832916 0 0 1 -0.06985,0.030427 c -0.06456,0.014552 -0.14261,-5.292e-4 -0.14261,-0.08255 l -0.0048,-2.79029579 c 0,-0.1778 -0.07382,-0.34237083 -0.242622,-0.34237083 h -0.60669 c -0.168804,0 -0.230188,0.1127125 -0.350838,0.320675 0,0 -0.715433,1.76450622 -0.758295,1.84599792 a 0.14710833,0.14710833 0 0 1 -0.04763,0.051858 0.12435417,0.12435417 0 0 1 -0.05636,0.025929 C 96.46946,2.2680072 96.42978,2.2497522 96.4184,2.1928662 96.39723,2.07936 96.068356,0.27357876 96.068356,0.27357876 c 0,-0.16827499 -0.142875,-0.26855208 -0.320939,-0.26855208 l -1.135063,-5.2916e-4 z m 31.322172,0 c -0.1778,0 -0.32518,0.09128125 -0.32518,0.25982083 l -0.0167,3.50096665 c 0,0.062971 0.0214,0.1143 0.0561,0.1561041 0.0349,0.04154 0.0812,0.07329 0.13837,0.090752 a 0.46751874,0.46751874 0 0 0 0.12542,0.017463 l 0.54583,0.00423 v 0.0045 h 1.33456 a 0.47148749,0.47148749 0 0 0 0.12568,-0.017463 c 0.11562,-0.032808 0.19473,-0.1119188 0.19473,-0.238125 0,-0.168275 -0.14288,-0.2688167 -0.32094,-0.2688167 h -1.33456 v 0.00873 c -0.17092,-0.0045 -0.30691,-0.1045105 -0.30691,-0.2685521 l 0.0214,-1.8459979 c 0,-0.168275 0.14287,-0.2555875 0.32067,-0.2555875 h 1.31763 c 0.17753,0 0.3249,-0.087313 0.3249,-0.25558751 V 0.28151666 c 0,-0.16853958 -0.14763,-0.26431874 -0.32517,-0.26431874 z m 5.72373,0 c -0.0222,0 -0.0439,0.0015875 -0.0648,0.00449791 -0.14684,0.01905 -0.25929,0.10795 -0.25929,0.2555875 -7.9e-4,0.0878417 5.3e-4,0.17224375 0,0.25982083 -0.006,0.99483334 -0.0278,1.99495834 -0.0132,2.98952704 8e-4,0.060854 -0.01,0.1262063 -0.0132,0.1907646 a 0.42333333,0.42333333 0 0 0 0.005,0.095515 c 0.005,0.030692 0.0145,0.059531 0.0302,0.086519 0.0418,0.071173 0.10266,0.1164167 0.16934,0.1431396 0.0667,0.026458 0.14181,0.032544 0.21643,0.030427 0.11694,-0.00317 0.22807,0.009 0.33364,0.00423 0.0352,-0.00159 0.0717,-0.00714 0.10424,-0.012965 0.13097,-0.023283 0.23971,-0.087577 0.31248,-0.2598208 l 0.0431,-1.139825 c 0,-0.168275 0.14288,-0.2643187 0.32068,-0.2643187 h 0.86624 c 0.1778,0 0.32068,0.095779 0.32068,0.2643187 l 0.0132,1.0702396 c 0,0.1778 0.0868,0.320675 0.25558,0.320675 0.0212,0 0.0418,0 0.0609,-0.00423 0.13097,-0.029898 0.20743,-0.1608666 0.20743,-0.3164416 V 2.2534562 c 0,-0.2526771 -0.22172,-0.3344333 -0.3855,-0.4161896 a 0.59081458,0.59081458 0 0 1 -0.1262,-0.077787 0.13282083,0.13282083 0 0 1 -0.0476,-0.1039812 c 0,-0.2227792 -0.005,-1.39091457 -0.005,-1.39091457 0,-0.16853958 -0.1434,-0.25982083 -0.32067,-0.25982083 z m 3.84386,0 c -0.0222,0 -0.0444,0.0015875 -0.0651,0.00449791 -0.14685,0.01905 -0.25982,0.10795 -0.25982,0.2555875 L 135.16054,3.76555 a 0.24077083,0.24077083 0 0 0 0.0952,0.1947333 c 0.0148,0.011377 0.0302,0.021696 0.0479,0.030427 0.0508,0.026194 0.11139,0.039158 0.1778,0.039158 h 2.23176 c 0.17727,0 0.32041,-0.096044 0.32041,-0.2643187 l -0.0164,-3.50096667 c 0,-0.16853958 -0.14288,-0.25982083 -0.32094,-0.25982083 l -2.1934,-2.6458e-4 z m 3.47028,0 c -0.0222,0 -0.0442,0.00132291 -0.0648,0.00449791 A 0.36247916,0.36247916 0 0 0 138.79459,0.04339167 0.25135416,0.25135416 0 0 0 138.65198,0.27305 l 0.0169,0.51990624 -0.0169,2.90724166 c 0,0.155575 0.0699,0.2865437 0.1995,0.3164416 a 0.23918333,0.23918333 0 0 0 0.0564,0.00423 c 0.0212,0 0.0418,0 0.0609,-0.00423 0.13097,-0.029898 0.2077,-0.1608666 0.2077,-0.3164416 V 1.4126104 c 0,-0.168275 0.1434,-0.2643187 0.32067,-0.2643187 h 1.17422 c 0.17754,0 0.32068,0.096044 0.32068,0.2643187 l 0.0132,2.2791208 c 0,0.1778 0.0873,0.320675 0.25559,0.320675 0.0212,0 0.0418,0 0.0608,-0.00423 0.13097,-0.029898 0.2077,-0.1608667 0.2077,-0.3164417 l -0.005,-2.5347083 0.005,-0.8839729 c 0,-0.16853958 -0.1479,-0.26855208 -0.32518,-0.26855208 z m 5.51153,0 c -0.13361,0 -0.25003,0.05106458 -0.29898,0.14737291 a 0.24341666,0.24341666 0 0 0 -0.022,0.1127125 L 144.14209,3.76555 c 0,0.062971 0.0212,0.1143 0.0561,0.1561041 0.0582,0.069321 0.15346,0.1082146 0.26458,0.1082146 l 1.8796,0.00873 c 0.17754,0 0.32068,-0.087048 0.32068,-0.2555874 0,-0.168275 -0.14288,-0.2685521 -0.32068,-0.2685521 l -1.31736,0.00873 c -0.17727,0 -0.32517,-0.1005416 -0.32517,-0.2688166 l 0.0217,-1.8459979 c 0,-0.168275 0.14287,-0.2555875 0.32067,-0.2555875 h 1.31763 c 0.1778,0 0.3249,-0.087312 0.3249,-0.25558753 V 0.28178125 c 0,-0.16853958 -0.14737,-0.26431875 -0.32517,-0.26431875 z m -1.57691,0.00449791 c -0.10504,0 -0.18071,0.05291667 -0.22093,0.13864167 a 0.41063333,0.41063333 0 0 0 -0.0394,0.18176875 l 0.0167,2.30954785 c 0,0.1264709 -0.0661,0.2098146 -0.17278,0.2428875 a 0.41539583,0.41539583 0 0 1 -0.0569,0.012965 c -0.0196,0.00291 -0.0423,0 -0.0646,0 h -0.12144 c -0.1778,0 -0.35084,0.087048 -0.35084,0.2555875 V 3.76555 c 0,0.084402 0.0431,0.1494895 0.10795,0.1949979 0.0167,0.011113 0.0336,0.021696 0.0519,0.030163 0.0564,0.026194 0.12435,0.039158 0.19103,0.039158 h 1.05701 c 0.17753,0 0.32067,-0.096044 0.32067,-0.2643187 V 3.1503937 c 0,-0.026458 -0.001,-0.048683 -0.005,-0.069585 -0.0233,-0.1457854 -0.12515,-0.1640417 -0.22543,-0.1817688 a 0.44899791,0.44899791 0 0 1 -0.12118,-0.03466 c -0.0614,-0.030692 -0.10477,-0.0889 -0.10477,-0.225425 V 0.32940625 c 0.002,-0.17753542 -0.0939,-0.32041042 -0.26247,-0.32041042 z M 103.10072,0.0174625 c -0.1778,0 -0.32518,0.09551458 -0.32518,0.26431875 v 0.61542082 c 0,0.16827503 0.14764,0.25558753 0.32544,0.25558753 h 0.40217 c 0.17753,0 0.32067,0.087313 0.32067,0.2555875 l -0.0169,2.3095479 c 0,0.1775354 0.0918,0.3206749 0.25982,0.3206749 0.0212,0 0.0378,0 0.0561,-0.0045 0.1315,-0.029898 0.20796,-0.160602 0.20796,-0.316177 V 1.4083771 c 0,-0.1473729 0.10901,-0.2320396 0.25586,-0.2510896 0.0212,-0.00291 0.0429,-0.0045 0.0648,-0.0045 h 1.1094 c 0.17727,0 0.32041,0.087313 0.32041,0.2555875 v 2.30955 c 0,0.1775354 0.0955,0.3206749 0.26458,0.3206749 0.0212,0 0.0418,0 0.0603,-0.0045 0.12965,-0.029898 0.19447,-0.160602 0.19447,-0.316177 l -0.0169,-2.3095479 c 0,-0.1473729 0.11404,-0.2320396 0.25956,-0.2510896 0.0212,-0.00291 0.0429,-0.0045 0.0651,-0.0045 h 0.40244 c 0.1778,0 0.32067,-0.087312 0.32067,-0.25558753 V 0.28178125 c 0,-0.16853958 -0.14261,-0.26431875 -0.32067,-0.26431875 z m 25.60293,0 a 0.44979166,0.44979166 0 0 0 -0.12594,0.01693333 0.37041666,0.37041666 0 0 0 -0.0564,0.02169584 c -0.0855,0.04312708 -0.14287,0.12012083 -0.14287,0.22542499 v 0.61542083 c 0,0.16827501 0.14764,0.25558751 0.32544,0.25558751 h 0.40243 c 0.17753,0 0.32067,0.087312 0.32067,0.2555875 l -0.0169,2.3095479 c 0,0.088635 0.0217,0.17145 0.0651,0.2296583 0.0106,0.014552 0.0257,0.027517 0.0386,0.038629 a 0.21960416,0.21960416 0 0 0 0.0952,0.047625 c 0.0185,0.0045 0.0389,0.0045 0.0603,0.0045 0.0212,0 0.0378,0 0.0566,-0.0045 0.13097,-0.029898 0.20743,-0.1606021 0.20743,-0.3161771 V 1.4078479 c 0,-0.1473729 0.10954,-0.2320396 0.25612,-0.2510896 0.0206,-0.00291 0.0426,-0.0045 0.0646,-0.0045 h 0.40296 c 0.17727,0 0.32041,-0.087313 0.32041,-0.25558749 V 0.28125208 c 0,-0.16853958 -0.14288,-0.26431875 -0.32015,-0.26431875 h -1.95421 v 5.2917e-4 z m 20.75021,0 -1.90182,0.01296458 a 0.51064583,0.51064583 0 0 0 -0.0648,0.0039688 c -0.1471,0.02116667 -0.25611,0.11297708 -0.25611,0.26008542 l 0.0217,1.7676813 c 0,0.1685396 0.14314,0.2598208 0.32068,0.2598208 l 0.9316,0.017198 c 0.17753,0 0.32067,0.1002771 0.32067,0.2685521 l -0.0217,0.6455832 a 0.24421041,0.24421041 0 0 1 -0.0262,0.1127125 c -0.0323,0.064029 -0.0923,0.1082146 -0.16933,0.1299104 -0.0185,0.00556 -0.0394,0.00582 -0.0606,0.00873 a 0.47466249,0.47466249 0 0 1 -0.0651,0.00423 l -1.32556,0.0045 c -0.0227,0 -0.0444,0.00185 -0.0653,0.00423 -0.14658,0.019579 -0.25559,0.1082146 -0.25559,0.2558521 a 0.23547916,0.23547916 0 0 0 0.091,0.1947333 c 0.0585,0.045508 0.14075,0.069585 0.22965,0.069585 h 2.49979 c 0.0886,0 0.16748,-0.02196 0.22569,-0.065088 a 0.22754166,0.22754166 0 0 0 0.0953,-0.1905 L 149.99943,2.0447 c 0,-0.168275 -0.1479,-0.2555875 -0.32517,-0.2555875 H 148.132 c -0.17806,0 -0.32094,-0.087313 -0.32094,-0.2558521 l -0.0217,-0.73236666 c 0,-0.168275 0.14817,-0.26431875 0.32544,-0.26431875 l 1.33879,0.004498 c 0.17806,0 0.32094,-0.0960438 0.32094,-0.26431875 0,-0.16774583 -0.14288,-0.25955624 -0.32068,-0.25929166 z M 108.83318,0.047625 c -0.17727,0 -0.32068,0.0873125 -0.32068,0.25585208 V 1.5213541 c 0,0.1772709 -0.0871,0.320675 -0.25585,0.320675 l -0.3466,0.00873 c -0.1778,0 -0.32094,0.087313 -0.32094,0.2555875 l -0.0217,1.6592021 c 0,0.1267354 0.0839,0.2116666 0.1995,0.2468562 0.0188,0.00582 0.0354,0.010054 0.0564,0.012965 0.0212,0.00291 0.0429,0.0045 0.0648,0.0045 l 2.60429,0.00873 c 0.17754,0 0.32067,-0.087312 0.32067,-0.2555874 0,-0.168275 -0.14287,-0.2685521 -0.32067,-0.2685521 l -2.04073,0.00873 c -0.1778,0 -0.32068,-0.1005416 -0.32068,-0.2688166 l 0.0167,-0.6196542 c 0,-0.168275 0.14314,-0.2555875 0.32094,-0.2555875 l 2.02327,0.00423 c 0.0222,0 0.0442,-0.00159 0.0648,-0.00423 0.0212,-0.00291 0.0373,-0.00767 0.0564,-0.012965 0.11589,-0.032808 0.1995,-0.1161521 0.1995,-0.2426229 0,-0.1473729 -0.10928,-0.2391833 -0.25586,-0.2598208 a 0.42994791,0.42994791 0 0 0 -0.0648,-0.0045 l -0.45058,-0.0045 c -0.0222,0 -0.0442,-0.00132 -0.0651,-0.00423 -0.0833,-0.011906 -0.15267,-0.044185 -0.19923,-0.099748 a 0.24870833,0.24870833 0 0 1 -0.0564,-0.1603375 l 0.0169,-0.75829583 c 0,-0.168275 0.14764,-0.25982083 0.32544,-0.25982083 h 0.42863 c 0.17753,0 0.32067,-0.0915458 0.32067,-0.25982083 0,-0.16853958 -0.14287,-0.26431874 -0.32067,-0.26431874 z m 7.77372,0 c -0.11112,0 -0.20637,0.03280833 -0.26458,0.09974791 a 0.22119166,0.22119166 0 0 0 -0.0302,0.0473604 0.22595416,0.22595416 0 0 0 -0.0262,0.10847917 V 1.520825 c 0,0.1772708 -0.0868,0.320675 -0.25559,0.320675 l -0.34713,0.00873 c -0.17727,0 -0.32067,0.087312 -0.32067,0.2555875 l -0.0217,1.6592021 a 0.238125,0.238125 0 0 0 0.0564,0.1561042 c 0.0347,0.041539 0.0849,0.07329 0.14287,0.090752 a 0.47042916,0.47042916 0 0 0 0.12541,0.017462 l 2.59953,0.00873 c 0.1778,0 0.32068,-0.087312 0.32068,-0.2555875 0,-0.168275 -0.14288,-0.2685521 -0.32068,-0.2685521 l -2.04073,0.00873 c -0.17727,0 -0.32067,-0.1005417 -0.32067,-0.2688167 l 0.0169,-0.6196542 c 0,-0.168275 0.14817,-0.2555875 0.32544,-0.2555875 l 2.01877,0.00423 c 0.0222,0 0.0439,-0.00159 0.0648,-0.00423 0.0212,-0.00291 0.0413,-0.00767 0.0609,-0.012964 0.11536,-0.032808 0.1942,-0.1161521 0.1942,-0.242623 0,-0.1473729 -0.10848,-0.2391833 -0.25585,-0.2598208 a 0.43338749,0.43338749 0 0 0 -0.0651,-0.0045 L 117.8134,1.8542 c -0.0222,0 -0.0439,-0.00132 -0.0651,-0.00423 -0.0831,-0.011906 -0.15266,-0.044185 -0.19923,-0.099748 a 0.24712083,0.24712083 0 0 1 -0.0564,-0.1603375 l 0.0217,-0.75829579 c 0,-0.168275 0.14314,-0.25982083 0.32041,-0.25982083 h 0.42916 c 0.1778,0 0.32067,-0.0915458 0.32067,-0.25982083 0,-0.16853959 -0.14287,-0.26431875 -0.32067,-0.26431875 z m 6.45107,0 c -0.11112,0 -0.21087,0.03280833 -0.26908,0.09974791 a 0.23098125,0.23098125 0 0 0 -0.0299,0.0473604 0.22621875,0.22621875 0 0 0 -0.0265,0.10847917 l 0.005,1.21761252 c 0,0.1772708 -0.0921,0.320675 -0.25982,0.320675 l -0.34238,0.00873 c -0.1778,0 -0.32067,0.087312 -0.32067,0.2555875 l -0.0217,1.6592021 c 0,0.062971 0.0217,0.1143 0.0566,0.1561042 0.0349,0.041539 0.081,0.07329 0.13838,0.090752 a 0.46090416,0.46090416 0 0 0 0.12515,0.017462 l 2.5998,0.00873 c 0.17753,0 0.32543,-0.087312 0.32543,-0.2555875 0,-0.168275 -0.14816,-0.2685521 -0.32543,-0.2685521 l -2.03624,0.00873 c -0.1778,0 -0.32517,-0.1005417 -0.32517,-0.2688167 l 0.0214,-0.6196542 c 0,-0.168275 0.14288,-0.2555875 0.32068,-0.2555875 l 2.0193,0.00423 c 0.0222,0 0.0439,-0.00159 0.0651,-0.00423 0.0206,-0.00291 0.041,-0.00767 0.0609,-0.012964 0.11562,-0.032808 0.19923,-0.1161521 0.19923,-0.242623 0,-0.1473729 -0.11377,-0.2391833 -0.25929,-0.2598208 a 0.43841458,0.43841458 0 0 0 -0.0654,-0.0045 l -0.44661,-0.0045 a 0.47360416,0.47360416 0 0 1 -0.0648,-0.00423 c -0.0833,-0.011906 -0.15743,-0.044185 -0.20373,-0.099748 a 0.24553333,0.24553333 0 0 1 -0.0519,-0.1603375 l 0.0169,-0.75829581 c 0,-0.168275 0.14288,-0.25982083 0.32068,-0.25982083 h 0.42889 c 0.17753,0 0.32543,-0.0915458 0.32543,-0.25982083 0,-0.16853959 -0.14816,-0.26431875 -0.32543,-0.26431875 z m -22.34433,0.53313541 h 0.71491 c 0.17727,0 0.32067,0.0873125 0.32067,0.2555875 l 0.0217,0.75379789 c 0,0.1685396 -0.1434,0.2643188 -0.32068,0.2643188 h -1.06203 c -0.3646,-0.00503 -0.31644,-0.26035 -0.29422,-0.3466042 l 0.29898,-0.67177708 c 0.0862,-0.14657916 0.14287,-0.25532291 0.32067,-0.25532291 z m 31.51294,0 h 0.8845 c 0.17753,0 0.32067,0.0873125 0.32067,0.2555875 l 0.0217,0.75379789 c 0,0.1685396 -0.14817,0.2643188 -0.32517,0.2643188 h -0.91864 c -0.1778,0 -0.32067,-0.095779 -0.32067,-0.2643188 l 0.0169,-0.75379789 c 2.7e-4,-0.168275 0.14341,-0.2555875 0.32068,-0.2555875 z m 3.78724,0 h 1.16523 c 0.17753,0 0.32067,0.0873125 0.32067,0.2555875 l 0.0167,1.85023119 c 0,0.168275 -0.14287,0.2643188 -0.32067,0.2643188 h -1.19989 c -0.1778,0 -0.32094,-0.095779 -0.32094,-0.2643188 l 0.0172,-1.85023119 c 7.9e-4,-0.168275 0.14393,-0.2555875 0.32147,-0.2555875 z M 88.360249,1.5411979 c 0,0 -4.100248,15.7503811 -4.209521,16.1080981 -0.143669,0.465137 -0.586846,0.617537 -0.818885,0.08043 -0.286279,-0.572823 -3.3909,-11.2114541 -3.3909,-11.2114541 h -5.656792 c 0,0 4.223279,13.8559641 4.414573,14.2663331 2.004748,4.295246 6.42276,2.579688 7.330281,-0.569912 0.933186,-3.242205 4.926013,-18.6732335 4.926013,-18.6732335 H 88.359984 V 1.5411979 Z M 29.950304,2.7178 21.172752,8.3161186 V 6.5473791 h -2.791883 v 7.7253039 c 0,0.192881 -0.36248,0.546365 -0.687123,0.07276 0,0 -3.717396,-5.3313545 -5.065184,-6.9431962 C 11.509904,6.062927 7.6080937,6.1314541 7.5935416,9.3024853 c -0.010319,2.0126857 0.00661,13.7982857 0.00661,13.7982857 h 2.7921474 v -9.741694 c 0,-0.539485 0.477838,-0.349779 0.7747,-0.01535 0.137848,0.155575 6.118225,9.261475 6.387571,9.625806 0.610129,0.822325 3.625056,1.430338 3.625056,-1.681162 0,-2.229644 -0.0053,-8.832321 -0.0074,-12.3954647 h 2.726266 c 0.286015,0 0.650082,0.3209396 0.650346,0.3214688 -0.0026,0.2701395 -0.04392,8.7674979 -0.04392,9.8888019 0,2.52095 2.088886,4.224337 4.348692,4.224337 h 5.03555 V 20.8788 h -2.316692 c -0.830262,0 -1.483519,-0.610129 -1.483519,-1.439334 V 9.887479 c 0,-0.5138208 0.41275,-1.2424833 1.235075,-1.2424833 0.823119,0 2.579688,-0.02196 2.579688,-0.02196 v -2.105025 h -3.46419 c -0.322262,0 -0.489479,-0.2534708 -0.489479,-0.4897437 z M 0.04392083,2.8127854 C 0.04392083,2.8127854 0,22.206743 0,23.364296 l 5.4154916,-0.0071 V 2.8133145 Z M 126.69308,6.3208958 c -2.6035,0 -4.93977,1.0853208 -6.56352,2.8138437 -0.095,0.1018646 -0.18732,0.2079625 -0.27781,0.314325 -1.2655,1.4843125 -2.03173,3.3842855 -2.03173,5.4599415 0,1.185333 0.25214,2.320131 0.70114,3.346715 0.0564,0.128323 0.11377,0.255058 0.17516,0.380206 1.05965,2.127514 2.99534,3.769254 5.35701,4.480719 0.13917,0.0418 0.28231,0.07408 0.4244,0.109537 a 9.1334166,9.1334166 0 0 0 2.21456,0.27014 c 4.90088,0 8.87994,-3.844132 8.87994,-8.587052 5.3e-4,-4.744244 -3.97774,-8.5883752 -8.87915,-8.5883752 z m -23.68682,0.1240895 c -3.256757,0 -5.781147,2.3293917 -5.781147,5.6425037 0,3.412067 3.764227,4.497388 5.751517,4.706673 1.25042,0.131234 2.45533,0.996157 2.45533,2.221442 0,0.986102 -0.85169,1.783292 -1.76927,1.783292 l -5.81025,-0.02222 v 2.448454 h 6.43202 c 0.1016,0 0.19897,-0.0021 0.29951,-0.0071 3.11494,-0.153194 5.59117,-2.656681 5.59117,-5.744369 0,-0.509587 -0.028,-0.961231 -0.0947,-1.366837 -0.0167,-0.101336 -0.0384,-0.196586 -0.0582,-0.2921 -0.55695,-2.582863 -2.58154,-3.082131 -5.73776,-3.917686 0,0 -1.67375,-0.520435 -1.67375,-1.527439 0,-0.6294439 0.36433,-1.0615085 0.8628,-1.293548 0.0497,-0.023283 0.10107,-0.046302 0.15346,-0.065881 0.26062,-0.096308 0.5461,-0.1386416 0.83291,-0.1386416 l 3.93912,0.014552 V 6.4447208 h -5.39274 z m -35.402573,0.021961 c 0,0 -0.04392,1.7219083 -0.04392,2.8794603 l 5.416021,-0.014817 V 6.4666812 Z m 23.000229,0 c 0,0 -0.03704,1.7219083 -0.03704,2.8794603 l 5.408083,-0.014817 V 6.4666812 Z m 20.711844,0 c 0,0 -0.0368,1.7219083 -0.0368,2.8794603 l 5.40808,-0.014817 V 6.4666812 l -5.37104,2.646e-4 z m -72.653521,0.014817 c -1.553104,0 -2.683404,0.8043333 -3.237706,2.1269854 -0.05001,0.1203854 -0.09075,0.2442104 -0.131498,0.3730625 -0.163248,0.5138208 -0.248179,1.0940518 -0.248179,1.7248188 v 8.251825 c 0,2.520685 1.358371,4.319058 3.617648,4.319058 h 8.112389 v -2.441575 h -4.831027 c -0.829998,0 -1.475846,-0.702998 -1.468967,-1.535112 v -3.230298 h 5.547255 v -2.441311 l -5.554398,-0.01508 -0.01482,-3.245114 c 0,-0.8299983 0.660929,-1.4393337 1.490927,-1.4393337 h 4.831292 v -2.448456 z m 9.252479,0.029104 c 0,0 -0.04392,11.4350277 -0.04392,12.5925797 0,0.472281 0.07302,0.913077 0.197379,1.322387 0.04127,0.13679 0.08493,0.273315 0.138642,0.402431 0.591079,1.414198 1.900767,2.333361 3.420533,2.477559 a 4.5772916,4.5772916 0 0 0 0.423863,0.02196 h 5.03555 V 20.87933 h -2.221442 c -0.829998,0 -1.483519,-0.610129 -1.483519,-1.439333 V 6.5108666 Z m 9.588765,0 c 0,0 -0.03651,11.4350277 -0.03651,12.5925797 0,2.363787 1.684073,4.006056 3.75629,4.202377 0.138112,0.01296 0.275431,0.02196 0.416718,0.02196 h 5.035286 v -2.448719 h -2.309548 c -0.829998,0 -1.490927,-0.609864 -1.490927,-1.439068 V 6.5108666 H 57.50375 Z m 89.697187,0.036512 v 7.7253037 c 0,0.192881 -0.36221,0.5461 -0.68739,0.07276 0,0 -3.70998,-5.3313543 -5.05698,-6.943196 -1.11919,-1.3393208 -5.02708,-1.2707937 -5.04349,1.9002375 -0.009,2.0126855 0.007,13.7982855 0.007,13.7982855 h 2.79215 v -9.741694 c 0,-0.539485 0.47757,-0.349779 0.77523,-0.01535 0.13758,0.155575 6.1251,9.261475 6.39497,9.625806 0.1143,0.153988 0.30772,0.300567 0.55563,0.41619 0.0828,0.03863 0.17092,0.07885 0.263,0.109537 1.10357,0.371211 2.79929,0.126736 2.79929,-2.207154 0,-3.111764 -0.007,-14.7412599 -0.007,-14.7412599 h -2.79188 v 5.292e-4 z m -20.50759,1.7758833 c 2.15106,0 3.01149,2.9485164 3.01149,6.5852144 0,3.636169 -1.01124,6.580452 -3.01149,6.585214 -0.54636,0.0013 -1.00409,-0.178858 -1.38853,-0.511968 a 3.0191604,3.0191604 0 0 1 -0.51885,-0.60669 c -0.0386,-0.05927 -0.081,-0.119592 -0.11642,-0.182562 -0.69241,-1.200944 -0.97948,-3.125259 -0.97948,-5.283994 0,-0.227277 0.003,-0.451115 0.007,-0.672571 0.0378,-1.991783 0.26061,-3.721894 0.94271,-4.7871059 0.0386,-0.059531 0.0762,-0.1132417 0.11695,-0.1680104 0.4482,-0.6048375 1.07077,-0.9575271 1.93675,-0.9575271 z M 67.603687,10.399183 c 0,0 -0.04392,11.807296 -0.04392,12.964848 l 5.416021,-0.0069 V 10.399183 Z m 23.000229,0 c 0,0 -0.03704,11.807296 -0.03704,12.964848 l 5.408083,-0.0069 V 10.399183 Z m 20.711844,0 c 0,0 -0.0368,11.807296 -0.0368,12.964848 l 5.40808,-0.0069 V 10.399183 H 111.316 Z"
     id="path1"
     style="fill:#6b6b6b;stroke-width:0.264583" />
</svg>
