<svg height="164.849" viewBox="0 0 232.196 88.606" width="431.993" xmlns="http://www.w3.org/2000/svg">
    <path d="M87.262 30.635h143.214v55.504H87.262z" fill="#fff"/>
    <path d="M2.807 1.855H29.53V28.92H2.807z" fill="#0fc"/>
    <path d="M2.122 30.12h27.923v55.504H2.122z" fill="#0055d4"/>
    <path d="M31.073 30.463h27.58v55.504h-27.58z" fill="#fff"/>
    <path d="M54.713 29.435h32.378v27.752H54.713z" fill="#fff"/>
    <g fill="none" stroke="#000" stroke-width="3.876">
        <path d="M1.938 1.938v84.303l56.822.413V58.347h28.307v28.307h143.191V29.832H29.832V1.938z"/>
        <path d="M1.46 29.711h28.307V85.5M87.061 30.112v28.235M107.936 48.842h15.497M107.523 68.471h36.78M145.129 30.039v55.995M172.816 57.933v27.895M200.917 58.14v27.894"/>
    </g>
</svg>
