<?xml version="1.0" encoding="UTF-8" standalone="no"?>
<!-- Created with Inkscape (http://www.inkscape.org/) -->

<svg
   width="212.39311mm"
   height="96.781708mm"
   viewBox="0 0 212.39311 96.781708"
   version="1.1"
   id="svg408"
   inkscape:version="1.2 (dc2aedaf03, 2022-05-15)"
   sodipodi:docname="j2me.svg"
   xml:space="preserve"
   xmlns:inkscape="http://www.inkscape.org/namespaces/inkscape"
   xmlns:sodipodi="http://sodipodi.sourceforge.net/DTD/sodipodi-0.dtd"
   xmlns:xlink="http://www.w3.org/1999/xlink"
   xmlns="http://www.w3.org/2000/svg"
   xmlns:svg="http://www.w3.org/2000/svg"><sodipodi:namedview
     id="namedview410"
     pagecolor="#505050"
     bordercolor="#ffffff"
     borderopacity="1"
     inkscape:showpageshadow="0"
     inkscape:pageopacity="0"
     inkscape:pagecheckerboard="1"
     inkscape:deskcolor="#505050"
     inkscape:document-units="mm"
     showgrid="false"
     inkscape:zoom="0.5946522"
     inkscape:cx="164.80222"
     inkscape:cy="63.9029"
     inkscape:window-width="1920"
     inkscape:window-height="1017"
     inkscape:window-x="-8"
     inkscape:window-y="-8"
     inkscape:window-maximized="1"
     inkscape:current-layer="layer1" /><defs
     id="defs405"><linearGradient
       inkscape:collect="always"
       id="linearGradient1201"><stop
         style="stop-color:#ec2025;stop-opacity:1;"
         offset="0"
         id="stop1197" /><stop
         style="stop-color:#56296f;stop-opacity:1;"
         offset="1"
         id="stop1199" /></linearGradient><linearGradient
       inkscape:collect="always"
       xlink:href="#linearGradient1201"
       id="linearGradient1203"
       x1="-220.57669"
       y1="-89.632278"
       x2="-220.78584"
       y2="-100.53326"
       gradientUnits="userSpaceOnUse"
       gradientTransform="translate(-14.298941,-5.7358032)" /></defs><g
     inkscape:label="Слой 1"
     inkscape:groupmode="layer"
     id="layer1"
     transform="translate(376.76859,183.04764)"><path
       d="m -353.77838,-108.19488 c 0,0 -3.69874,2.15095 2.63227,2.8788 7.66985,0.87499 11.58982,0.74951 20.04207,-0.8502 0,0 2.22217,1.39335 5.32559,2.60018 -18.94768,8.120645 -42.88233,-0.47037 -27.99993,-4.62878 m -2.3153,-10.59691 c 0,0 -4.1485,3.07081 2.18721,3.72613 8.19317,0.84525 14.6635,0.91439 25.85968,-1.24152 0,0 1.54857,1.56997 3.98362,2.42852 -22.90887,6.69886 -48.42523,0.52828 -32.03051,-4.91313"
       fill="#5382a1"
       id="path2"
       style="display:inline;stroke-width:0.260879"
       sodipodi:nodetypes="cccccccccc" /><path
       d="m -350.10929,-86.570195 c 17.50554,1.115781 44.38733,-0.619066 45.02398,-8.866761 0,0 -1.22378,3.126637 -14.46741,5.609685 -14.94136,2.799755 -33.36942,2.472874 -44.29929,0.678547 0,-2.61e-4 2.23748,1.843894 13.74272,2.578529"
       style="display:inline;fill:#5382a1;fill-opacity:1;stroke-width:0.469066"
       id="path4161" /><path
       d="m -311.51512,-100.35677 c 0,0 2.73714,2.255304 -3.01446,4.000064 -10.93688,3.313165 -45.52036,4.313637 -55.12749,0.132005 -3.45352,-1.502404 3.02281,-3.58735 5.06001,-4.024849 2.1246,-0.46071 3.33873,-0.37488 3.33873,-0.37488 -3.84066,-2.70558 -24.8245,5.312545 -10.65874,7.608803 38.63206,6.265014 70.42258,-2.821147 60.40195,-7.341143 m -40.48461,-29.41465 c 0,0 -17.59134,4.17825 -6.22953,5.69552 4.79731,0.64228 14.36062,0.49697 23.26862,-0.2494 7.2801,-0.61411 14.59019,-1.91981 14.59019,-1.91981 0,0 -2.56705,1.09934 -4.42425,2.36748 -17.86373,4.69817 -52.37311,2.51252 -42.43828,-2.29313 8.40187,-4.06137 15.23325,-3.60066 15.23325,-3.60066 m 31.55676,17.63909 c 18.15932,-9.43626 9.76319,-18.50442 3.90277,-17.28272 -1.4364,0.29896 -2.07688,0.55802 -2.07688,0.55802 0,0 0.53326,-0.83534 1.55173,-1.19692 11.59376,-4.07597 20.51009,12.02158 -3.74259,18.3972 0,2.6e-4 0.28096,-0.25096 0.36497,-0.47558"
       fill="#5382a1"
       id="path6"
       style="stroke-width:0.260879" /><path
       d="m -336.57496,-136.76767 c 4.66872,5.37515 -1.22665,10.21211 -1.22665,10.21211 0,0 11.85463,-6.1197 6.41034,-13.78303 -5.08482,-7.14652 -8.98418,-10.69735 12.12541,-22.94015 0,0 -33.13507,8.27561 -17.3091,26.51107"
       fill="#f8981d"
       id="path4"
       style="stroke-width:0.260879;fill:#ec2025;fill-opacity:1"
       transform="translate(8.1249999e-6)" /><path
       d="m -331.39127,-183.04764 c 0,0 10.0569,10.06029 -9.53855,25.53016 -15.71353,12.4095 -3.58317,19.48506 -0.007,27.56919 -9.17225,-8.27561 -15.90345,-15.56066 -11.38764,-22.34091 6.62816,-9.9528 24.99043,-14.77828 20.93271,-30.75844"
       fill="#f8981d"
       id="path8"
       style="display:inline;stroke-width:0.260879;fill:#ec2025;fill-opacity:1" /><path
       d="m -247.74003,-126.08659 c -2.31963,2.01197 -4.76955,3.14143 -6.96811,3.14143 -3.13811,0 -4.83358,-1.8817 -4.83358,-4.89983 0,-3.26472 1.81656,-5.6517 9.10447,-5.6517 h 2.69686 v 7.4101 m 6.40099,7.22167 v -22.35432 c 0,-5.71058 -3.257,-9.47875 -11.10982,-9.47875 -4.58443,0 -8.60028,1.13203 -11.86425,2.57578 l 0.94213,3.95696 c 2.56989,-0.94323 5.89643,-1.82134 9.16151,-1.82134 4.52371,0 6.4698,1.82134 6.4698,5.58693 v 2.82529 h -2.2578 c -10.99095,0 -15.94892,4.26647 -15.94892,10.67041 0,5.52657 3.26728,8.66799 9.41912,8.66799 3.95438,0 6.90629,-1.63254 9.66571,-4.02173 l 0.50087,3.39315 h 5.02165 z m 21.3614,0 h -7.98312 l -9.60754,-31.26705 h 6.97141 l 5.96157,19.21069 1.32524,5.77756 c 3.01593,-8.35334 5.14899,-16.82813 6.21588,-24.98825 h 6.78152 c -1.81693,10.29612 -5.08642,21.5973 -9.66496,31.26705 m 30.62411,-7.22167 c -2.32406,2.01197 -4.77839,3.14143 -6.97694,3.14143 -3.13259,0 -4.83248,-1.8817 -4.83248,-4.89983 0,-3.26472 1.82097,-5.6517 9.10814,-5.6517 h 2.70128 v 7.4101 m 6.39989,7.22167 v -22.35432 c 0,-5.71058 -3.26509,-9.47875 -11.10872,-9.47875 -4.58774,0 -8.60506,1.13203 -11.86756,2.57578 l 0.94066,3.95696 c 2.57099,-0.94323 5.90378,-1.82134 9.16629,-1.82134 4.5204,0 6.46944,1.82134 6.46944,5.58693 v 2.82529 h -2.26149 c -10.99425,0 -15.95002,4.26647 -15.95002,10.67041 0,5.52657 3.26471,8.66799 9.41544,8.66799 3.95659,0 6.90739,-1.63254 9.67159,-4.02173 l 0.50272,3.39315 h 5.02165 z m -90.01089,5.30981 c -1.82466,2.6641 -4.77176,4.77176 -7.99821,5.96414 l -3.16019,-3.71885 c 2.4558,-1.2601 4.56198,-3.29525 5.54055,-5.19093 0.84645,-1.6859 1.19681,-3.8587 1.19681,-9.05479 v -35.69618 h 6.80029 v 35.20708 c -4.4e-4,6.94677 -0.55572,9.75292 -2.37925,12.48953"
       fill="#5382a1"
       id="path10"
       style="display:inline;fill:#ec2025;fill-opacity:1;stroke-width:0.368021"
       sodipodi:nodetypes="cssscccssccsscsssccccccccccccccssscccssccsscsssccccccccscccc" /><g
       aria-label="J2ME"
       id="text1122"
       style="font-weight:bold;font-size:22.5778px;line-height:1.25;-inkscape-font-specification:'sans-serif, Bold';fill:url(#linearGradient1203);stroke-width:0.264583"><path
         d="m -257.46993,-88.38045 q -0.65475,0 -1.15146,-0.06773 -0.49672,-0.06773 -0.85796,-0.180623 v -2.844803 q 0.36124,0.09031 0.76764,0.158045 0.38383,0.06773 0.83538,0.06773 0.58703,0 1.06116,-0.225778 0.49671,-0.225778 0.76764,-0.857956 0.27094,-0.609601 0.27094,-1.806224 v -15.104551 h 3.40925 v 15.081973 q 0,2.077158 -0.65476,3.341515 -0.63218,1.286934 -1.78365,1.851379 -1.15146,0.587023 -2.66418,0.587023 z"
         id="path3005" /><path
         d="m -238.16592,-93.121788 h -11.26632 v -2.370669 l 4.04142,-4.086582 q 1.2192,-1.264361 1.96427,-2.099731 0.74507,-0.85796 1.08374,-1.53529 0.33866,-0.69992 0.33866,-1.49014 0,-0.97085 -0.54186,-1.44498 -0.51929,-0.47413 -1.42241,-0.47413 -0.92569,0 -1.80622,0.42898 -0.88053,0.42897 -1.85138,1.2192 l -1.85138,-2.19005 q 0.67733,-0.58702 1.46756,-1.10631 0.79022,-0.54187 1.80622,-0.85796 1.03858,-0.33867 2.48356,-0.33867 1.58045,0 2.70934,0.58703 1.15146,0.56444 1.76106,1.55787 0.63218,0.97084 0.63218,2.21262 0,1.33209 -0.54186,2.4384 -0.51929,1.10631 -1.53529,2.19005 -0.99343,1.083733 -2.41583,2.393246 l -2.07716,1.941691 v 0.158044 h 7.0217 z"
         id="path3007" /><path
         d="m -228.57034,-93.121788 -3.88339,-12.643572 h -0.0903 q 0.0226,0.45156 0.0677,1.35467 0.0452,0.90311 0.0903,1.94169 0.0452,1.03858 0.0452,1.85138 v 7.495832 h -3.048 v -16.120552 h 4.65103 l 3.81565,12.327481 h 0.0677 l 4.04143,-12.327481 h 4.65102 v 16.120552 h -3.18347 v -7.631292 q 0,-0.76765 0.0226,-1.76107 0.0452,-0.99343 0.0677,-1.87396 0.0452,-0.90311 0.0677,-1.35467 h -0.0903 l -4.15432,12.620992 z"
         id="path3009" /><path
         d="m -204.81848,-93.121788 h -9.27948 v -16.120552 h 9.27948 v 2.79965 h -5.87023 v 3.54471 h 5.46383 v 2.79965 h -5.46383 v 4.154317 h 5.87023 z"
         id="path3011" /></g></g></svg>
