<?xml version="1.0" encoding="UTF-8" standalone="no"?>
<!-- Created with Inkscape (http://www.inkscape.org/) -->

<svg
   width="1015.7354mm"
   height="313.05499mm"
   viewBox="0 0 1015.7354 313.05499"
   version="1.1"
   id="svg1"
   inkscape:version="1.4 (86a8ad7, 2024-10-11)"
   sodipodi:docname="konamilcd.svg"
   xmlns:inkscape="http://www.inkscape.org/namespaces/inkscape"
   xmlns:sodipodi="http://sodipodi.sourceforge.net/DTD/sodipodi-0.dtd"
   xmlns="http://www.w3.org/2000/svg"
   xmlns:svg="http://www.w3.org/2000/svg">
  <sodipodi:namedview
     id="namedview1"
     pagecolor="#ffffff"
     bordercolor="#000000"
     borderopacity="0.25"
     inkscape:showpageshadow="2"
     inkscape:pageopacity="0.0"
     inkscape:pagecheckerboard="true"
     inkscape:deskcolor="#d1d1d1"
     inkscape:document-units="mm"
     inkscape:zoom="0.41179678"
     inkscape:cx="2117.5494"
     inkscape:cy="989.56579"
     inkscape:window-width="3840"
     inkscape:window-height="2066"
     inkscape:window-x="-11"
     inkscape:window-y="-11"
     inkscape:window-maximized="1"
     inkscape:current-layer="g2" />
  <defs
     id="defs1">
			
			
			
		
				
				
				
				
				
			</defs>
  <g
     id="g8"
     transform="scale(0.26458333)"
     inkscape:label="Logo">
		<path
   class="st1"
   d="M 707.2,0 C 683.9,74.5 664.6,130.6 635.6,206.1 608.3,277 558.6,334.3 489.5,365.7 412.3,400.8 329.3,395.1 249.6,421.8 93.8,474.1 44.5,650.2 0,794.3 h 424.7 c 23.2,-71.6 55.5,-197.8 116.7,-287.5 25.5,-37.6 63.3,-64.6 94.8,-81.9 18.3,-10 35.9,-13.2 54.6,-17.5 16.5,-3.9 35.8,-7.8 50.3,-8.7 9.1,-0.6 18.3,-2 28,-2.9 10.6,-1 19.4,-2 29,-3.9 8.7,-1 29.8,-4.3 36.7,-5.8 18.4,-3.9 35.8,-10.6 47.4,-14.5 10.5,-3.5 22.3,-9.7 32.9,-13.6 2.2,-0.8 13.3,-7.8 16.4,-9.7 44,-25.7 83.2,-69.7 101.3,-103.2 28.8,-53.8 52,-108.2 71.9,-165.7 8.7,-25.2 14.5,-40.6 28,-79.3 H 707.2 Z"
   id="path4"
   style="fill:#ff8c1a;fill-opacity:1"
   inkscape:label="Orange" />

		<path
   class="st2"
   d="M 991.7,388.9 C 968.4,463.4 949.1,519.5 920.1,595 892.8,665.9 843.1,723.2 774,754.6 696.8,789.7 613.7,784 534.1,810.7 378.3,863 329,1039 284.5,1183.2 h 424.7 c 23.2,-71.6 55.5,-197.8 116.7,-287.5 25.6,-37.6 63.3,-64.6 94.8,-81.9 18.3,-10.1 35.9,-13.1 54.6,-17.6 16.5,-3.9 35.8,-7.8 50.3,-8.7 9.1,-0.6 18.3,-2 28,-2.9 10.6,-0.9 19.3,-1.9 29,-3.9 8.7,-1 29.9,-4.3 36.8,-5.8 18.4,-3.9 35.8,-10.6 47.4,-14.5 10.5,-3.5 22.2,-9.7 32.9,-13.6 2.2,-0.8 13.3,-7.8 16.4,-9.6 44,-25.7 83.2,-69.7 101.3,-103.3 28.8,-53.8 52.1,-108.2 71.9,-165.7 8.7,-25.2 14.6,-40.7 28.1,-79.3 H 991.7 Z"
   id="path6"
   style="fill:#ff0000"
   inkscape:label="Red" />

	</g>
  <g
     id="g28"
     transform="scale(0.26458333)"
     inkscape:label="KONAMI">
		<polygon
   class="st0"
   points="1601.1,794.3 1747.8,388.9 1638.8,388.9 1491.1,794.3 "
   id="polygon24"
   style="fill:#797979;fill-opacity:1"
   inkscape:label="K1" />
<path
   class="st0"
   d="m 1861.6,794.3 -59.1,-220.2 197.9,-185.2 h -134.6 l -181.4,179.8 c -1,0.8 -1.5,1.6 -2.5,2.4 0.3,0.9 0.6,2.3 1,3.8 l 52.5,219.5 h 126.2 z"
   id="path22"
   style="fill:#797979;fill-opacity:1"
   inkscape:label="K2" />
<path
   class="st0"
   d="m 2248.8,404.4 c -25.8,-17.7 -53.9,-24.7 -95.1,-25.3 -46.4,-0.8 -92.1,9.3 -129.1,31.1 -30.2,17.7 -56.9,44.9 -74.6,80.3 -24.5,49 -58.1,114.7 -59.1,182.1 -0.6,43.2 15.2,75.9 40.7,97.1 23.2,19.3 66.6,30.7 105.7,31.2 35.4,0.5 76.9,-5.4 105.4,-17.9 31.8,-13.8 71.2,-43.9 94.7,-91.8 12.7,-26 24.9,-52.2 35.4,-81.1 8.5,-23.2 15.8,-48.1 21.9,-76.3 10.5,-48.4 -2.5,-99.7 -45.9,-129.4 z m -107.6,250.3 c -11.5,23 -24.7,45.5 -54.3,55.2 -16.7,5.5 -32.8,5.9 -46.6,3.9 -13.9,-2.2 -23.9,-8.6 -30.7,-17.3 -7.5,-9.7 -11.5,-22.4 -10,-37.8 1,-10.5 3.2,-22.5 8.1,-36.1 9.6,-27.1 30.1,-81.3 44,-109.7 9.1,-18.7 17.2,-28.9 29.7,-38.2 16.8,-12.7 39,-16.8 57.9,-15.8 13.1,0.7 29.4,5.2 37.5,13.4 12.3,12.3 17.7,28 10.1,58.6 -3.7,14.6 -11.7,38.1 -20.2,61.2 -9.4,25.5 -19.5,50.6 -25.5,62.6 z"
   id="path10"
   style="fill:#797979;fill-opacity:1"
   inkscape:label="O" />
<path
   class="st0"
   d="m 2556.7,704.2 105.4,-315.3 h 102.6 l -147,405.4 h -156.6 c -2.2,-82.5 -2.4,-236.9 -5,-316.3 l -105,316.3 H 2246.6 L 2393,388.9 h 158.8 c 1.6,88.2 4.4,271.3 4.9,315.3"
   id="path12"
   style="fill:#797979;fill-opacity:1"
   inkscape:label="N" />
<path
   class="st0"
   d="m 2895.7,388.9 -259.6,405.4 h 109.5 L 2795.3,714 H 2928 l -3.9,80.3 h 103.3 l 8.8,-405.4 z m 37.2,243.1 h -41.7 -45.5 c 27.1,-45.4 77.5,-128.6 101.7,-171.5 -3.4,33.8 -9.6,108.9 -14.5,171.5 z"
   id="path14"
   style="fill:#797979;fill-opacity:1"
   inkscape:label="A" />
<path
   class="st0"
   d="m 3232.6,547.1 -82.9,247.2 h -106.9 l 147.5,-405.4 h 177.4 c -5.7,61.9 -25.3,181 -42,282.3 L 3486.3,388.9 H 3667 L 3519.2,794.3 H 3412.6 L 3536.7,466.5 3336.1,794.3 H 3230 l 29.7,-327.6 c -10.9,35.5 -27.1,80.4 -27.1,80.4"
   id="path16"
   style="fill:#797979;fill-opacity:1"
   inkscape:label="M" />
<polyline
   class="st0"
   points="3730.4,388.9 3839,388.9 3691.4,794.3 3583.2,794.3 3730.4,388.9     "
   id="polyline18"
   style="fill:#797979;fill-opacity:1"
   inkscape:label="I" />

	</g>
  <g
     id="g2"
     transform="matrix(0.23937283,0,0,0.26482442,37.80223,-0.223996)"
     inkscape:label="LCD_Handhelds">
    <path
       d="m 1326.0318,1232.3402 h -115.8803 v -160.6571 h 41.432 v 129.5831 h 74.4483 z m 97.538,3.129 q -17.9108,0 -33.1241,-5.2869 -15.1054,-5.2869 -26.0029,-15.7528 -10.8975,-10.4659 -16.9397,-26.1109 -5.9343,-15.6449 -5.9343,-36.1451 0,-19.0976 5.7185,-34.6346 5.7185,-15.537 16.616,-26.6503 10.4659,-10.6817 25.895,-16.5081 15.537,-5.8264 33.8794,-5.8264 10.1422,0 18.2344,1.1868 8.2001,1.079 15.1054,2.9132 7.2291,2.0501 13.0554,4.6396 5.9343,2.4816 10.3581,4.6395 v 38.9504 h -4.7475 q -3.0211,-2.5895 -7.6606,-6.15 -4.5316,-3.5606 -10.358,-7.0133 -5.9343,-3.4526 -12.8396,-5.8263 -6.9054,-2.3738 -14.7818,-2.3738 -8.7396,0 -16.616,2.8053 -7.8764,2.6974 -14.5659,9.0633 -6.3659,6.1501 -10.358,16.2923 -3.8843,10.1422 -3.8843,24.6003 0,15.1054 4.208,25.2476 4.3158,10.1423 10.7896,15.9687 6.5816,5.9342 14.6738,8.5237 8.0922,2.4816 15.9686,2.4816 7.5527,0 14.8897,-2.2658 7.4448,-2.2658 13.7028,-6.15 5.2869,-3.129 9.8185,-6.6896 4.5316,-3.5606 7.4448,-6.1501 h 4.3159 v 38.411 q -6.0422,2.6974 -11.5449,5.0711 -5.5027,2.3737 -11.5449,4.1001 -7.8764,2.2658 -14.7817,3.4526 -6.9054,1.1869 -18.9897,1.1869 z m 239.0975,-83.2957 q 0,22.4424 -10.2502,40.2452 -10.2501,17.6949 -25.895,27.1898 -11.7607,7.1211 -25.7871,9.9264 -14.0265,2.8053 -33.232,2.8053 h -56.6454 v -160.6571 h 58.2638 q 19.6371,0 33.8794,3.3448 14.2422,3.2368 23.9529,9.279 16.616,10.1422 26.1108,27.4056 9.6028,17.1555 9.6028,40.461 z m -42.8347,-0.3237 q 0,-15.8607 -5.8264,-27.0819 -5.7185,-11.3291 -18.2345,-17.6949 -6.3658,-3.129 -13.0554,-4.208 -6.5816,-1.1868 -19.9607,-1.1868 h -10.4659 v 100.559 h 10.4659 q 14.7817,0 21.6871,-1.2947 6.9053,-1.4027 13.487,-4.9632 11.329,-6.4738 16.6159,-17.2634 5.287,-10.8975 5.287,-26.8661 z m 294.0165,80.4904 h -41.432 v -70.7798 H 1811.24 v 70.7798 h -41.432 v -160.6571 h 41.432 v 58.8033 h 61.1771 v -58.8033 h 41.432 z m 189.4654,0 h -42.8347 l -11.1133,-32.4767 h -59.5586 l -11.1133,32.4767 h -41.7557 l 59.3428,-160.6571 h 47.69 z m -63.9823,-61.9323 -19.745,-57.6164 -19.745,57.6164 z m 233.1632,61.9323 h -39.9215 l -68.1903,-110.2697 v 110.2697 h -37.9794 v -160.6571 h 49.5243 l 58.5875,92.0353 v -92.0353 h 37.9794 z m 192.8101,-80.1667 q 0,22.4424 -10.2501,40.2452 -10.2501,17.6949 -25.8951,27.1898 -11.7606,7.1211 -25.7871,9.9264 -14.0265,2.8053 -33.232,2.8053 h -56.6454 v -160.6571 h 58.2639 q 19.6371,0 33.8793,3.3448 14.2423,3.2368 23.9529,9.279 16.616,10.1422 26.1109,27.4056 9.6027,17.1555 9.6027,40.461 z m -42.8347,-0.3237 q 0,-15.8607 -5.8264,-27.0819 -5.7185,-11.3291 -18.2344,-17.6949 -6.3659,-3.129 -13.0554,-4.208 -6.5817,-1.1868 -19.9608,-1.1868 h -10.4659 v 100.559 h 10.4659 q 14.7818,0 21.6871,-1.2947 6.9054,-1.4027 13.487,-4.9632 11.3291,-6.4738 16.616,-17.2634 5.2869,-10.8975 5.2869,-26.8661 z m 218.4894,80.4904 h -41.432 v -70.7798 h -61.1771 v 70.7798 h -41.432 v -160.6571 h 41.432 v 58.8033 h 61.1771 v -58.8033 h 41.432 z m 157.2045,0 h -116.204 v -160.6571 h 116.204 v 31.074 h -74.9877 v 27.7293 h 69.5929 v 31.074 h -69.5929 v 39.7058 h 74.9877 z m 150.6228,0 h -115.8803 v -160.6571 h 41.4321 v 129.5831 h 74.4482 z m 176.7336,-80.1667 q 0,22.4424 -10.2501,40.2452 -10.2502,17.6949 -25.8951,27.1898 -11.7606,7.1211 -25.7871,9.9264 -14.0265,2.8053 -33.232,2.8053 h -56.6454 v -160.6571 h 58.2639 q 19.637,0 33.8793,3.3448 14.2423,3.2368 23.9529,9.279 16.616,10.1422 26.1108,27.4056 9.6028,17.1555 9.6028,40.461 z m -42.8347,-0.3237 q 0,-15.8607 -5.8264,-27.0819 -5.7185,-11.3291 -18.2344,-17.6949 -6.3659,-3.129 -13.0554,-4.208 -6.5817,-1.1868 -19.9608,-1.1868 h -10.4659 v 100.559 h 10.4659 q 14.7817,0 21.6871,-1.2947 6.9053,-1.4027 13.487,-4.9632 11.3291,-6.4738 16.616,-17.2634 5.2869,-10.8975 5.2869,-26.8661 z m 203.0603,29.9951 q 0,23.7371 -20.1766,38.6268 -20.0686,14.7817 -54.5954,14.7817 -19.9607,0 -34.8504,-3.4527 -14.7817,-3.5605 -27.7292,-8.9553 v -38.5189 h 4.5316 q 12.8396,10.2501 28.7003,15.7528 15.9686,5.5027 30.6425,5.5027 3.7764,0 9.9264,-0.6474 6.1501,-0.6473 10.0343,-2.1579 4.7475,-1.9421 7.7686,-4.8553 3.1289,-2.9132 3.1289,-8.6317 0,-5.2869 -4.5316,-9.0633 -4.4237,-3.8842 -13.0554,-5.9342 -9.0633,-2.158 -19.2055,-3.9922 -10.0343,-1.9421 -18.8818,-4.8553 -20.2844,-6.5817 -29.2398,-17.8028 -8.8475,-11.3291 -8.8475,-28.053 0,-22.4424 20.0687,-36.5767 20.1765,-14.2423 51.7901,-14.2423 15.8607,0 31.2898,3.129 15.537,3.0211 26.8661,7.6606 v 37.0083 h -4.4237 q -9.7107,-7.7685 -23.8451,-12.9475 -14.0264,-5.2869 -28.7003,-5.2869 -5.179,0 -10.358,0.7553 -5.0711,0.6473 -9.8185,2.5895 -4.208,1.6184 -7.2291,4.9632 -3.0211,3.2369 -3.0211,7.4448 0,6.3659 4.8554,9.8185 4.8553,3.3448 18.3423,6.1501 8.8475,1.8342 16.9397,3.5606 8.2,1.7263 17.587,4.7474 18.4502,6.0422 27.1898,16.5081 8.8475,10.358 8.8475,26.974 z"
       id="text372"
       style="font-weight:bold;font-size:220.971px;font-family:Play;-inkscape-font-specification:'Play, Bold';fill:#ff0000;stroke:#33348e;stroke-width:2.52513"
       transform="scale(1.2398514,0.80654829)"
       aria-label="LCD HANDHELDS"
       inkscape:label="LCD_Handhelds" />
  </g>
</svg>
