<?xml version="1.0" encoding="UTF-8" standalone="no"?>
<svg
   version="1.1"
   viewBox="0 0 1274 429"
   id="svg46"
   sodipodi:docname="laser310-2.svg"
   inkscape:version="1.1.2 (0a00cf5339, 2022-02-04)"
   xmlns:inkscape="http://www.inkscape.org/namespaces/inkscape"
   xmlns:sodipodi="http://sodipodi.sourceforge.net/DTD/sodipodi-0.dtd"
   xmlns="http://www.w3.org/2000/svg"
   xmlns:svg="http://www.w3.org/2000/svg">
  <defs
     id="defs50" />
  <sodipodi:namedview
     id="namedview48"
     pagecolor="#ffffff"
     bordercolor="#666666"
     borderopacity="1.0"
     inkscape:pageshadow="2"
     inkscape:pageopacity="0.0"
     inkscape:pagecheckerboard="0"
     showgrid="false"
     inkscape:zoom="0.54908057"
     inkscape:cx="650.17781"
     inkscape:cy="448.02168"
     inkscape:window-width="1920"
     inkscape:window-height="1011"
     inkscape:window-x="1920"
     inkscape:window-y="32"
     inkscape:window-maximized="1"
     inkscape:current-layer="svg46" />
  <g
     fill="#e58d6c"
     fill-opacity="0.969"
     id="g16">
    <path
       d="   M 260.34 221.18   L 242.58 291.33   A 0.55 0.55 0.0 0 1 242.04 291.75   L 14.16 291.73   A 0.55 0.55 0.0 0 1 13.63 291.04   L 92.40 0.91   A 0.55 0.55 0.0 0 1 92.93 0.50   L 181.79 0.50   A 0.55 0.55 0.0 0 1 182.32 1.20   L 120.73 219.80   A 0.55 0.55 0.0 0 0 121.26 220.50   L 259.80 220.50   A 0.55 0.55 0.0 0 1 260.34 221.18   Z"
       id="path2"
       style="fill:#ff0000;fill-opacity:1" />
    <path
       d="   M 839.26 223.50   L 976.83 223.50   A 0.58 0.58 0.0 0 1 977.40 224.19   L 966.56 282.27   A 0.58 0.58 0.0 0 1 965.99 282.74   L 755.17 282.75   A 0.58 0.58 0.0 0 1 754.60 282.03   L 811.39 45.94   A 0.58 0.58 0.0 0 1 811.96 45.50   L 1015.83 45.50   A 0.58 0.58 0.0 0 1 1016.40 46.18   L 1006.55 102.25   A 0.58 0.58 0.0 0 1 1005.98 102.73   L 865.92 102.75   A 0.58 0.58 0.0 0 0 865.35 103.21   L 858.70 134.80   A 0.58 0.58 0.0 0 0 859.26 135.50   L 972.79 135.50   A 0.58 0.58 0.0 0 1 973.36 136.21   L 961.56 187.28   A 0.58 0.58 0.0 0 1 961.00 187.73   L 846.92 187.76   A 0.58 0.58 0.0 0 0 846.35 188.21   L 838.70 222.79   A 0.58 0.58 0.0 0 0 839.26 223.50   Z"
       id="path4"
       style="fill:#ff0000;fill-opacity:1" />
    <path
       d="   M 1210.42 189.07   A 1.00 1.00 0.0 0 0 1209.88 190.39   L 1249.00 282.34   A 1.00 1.00 0.0 0 1 1248.08 283.73   L 1176.24 283.76   A 1.01 1.00 79.2 0 1 1175.31 283.12   L 1125.98 156.85   A 1.00 0.99 -10.8 0 1 1126.91 155.49   Q 1147.22 155.53 1167.99 155.30   C 1181.33 155.15 1193.17 149.24 1196.97 135.80   C 1202.24 117.14 1186.43 101.54 1168.52 100.78   Q 1141.83 99.65 1115.35 98.70   A 1.01 1.00 -83.6 0 0 1114.33 99.52   L 1080.62 280.90   A 1.00 1.00 0.0 0 1 1079.64 281.72   L 996.70 281.75   A 1.00 1.00 0.0 0 1 995.72 280.53   L 1048.31 47.32   A 1.01 1.01 0.0 0 1 1049.28 46.54   C 1098.89 46.03 1149.06 45.34 1198.77 47.17   C 1225.77 48.17 1255.81 65.80 1267.18 90.81   C 1274.39 106.69 1276.19 126.16 1270.02 142.59   C 1265.01 155.92 1254.60 168.80 1241.61 175.18   Q 1226.29 182.71 1210.42 189.07   Z"
       id="path6"
       style="fill:#ff0000;fill-opacity:1" />
    <path
       d="   M 511.38 234.45   Q 575.78 235.16 640.18 235.40   Q 645.63 235.42 649.56 234.27   C 659.57 231.33 679.68 221.69 662.70 209.55   C 641.63 194.48 617.34 186.42 594.72 174.44   C 586.99 170.34 577.16 165.78 569.96 159.54   C 562.09 152.74 557.70 140.42 556.33 130.45   C 553.08 106.98 558.02 84.54 576.78 68.80   Q 579.76 66.30 589.02 60.76   C 600.78 53.73 610.63 50.59 624.19 50.56   Q 693.27 50.44 762.35 50.52   A 1.00 1.00 0.0 0 1 763.34 51.65   L 756.58 103.85   A 1.00 0.99 3.6 0 1 755.59 104.72   Q 692.64 104.77 629.69 104.75   C 615.86 104.74 616.27 125.53 627.44 128.80   C 645.62 134.14 662.40 141.36 679.96 149.22   Q 702.45 159.30 719.85 170.38   C 737.80 181.82 739.64 206.35 737.36 225.35   Q 736.10 235.80 732.14 244.56   C 725.35 259.60 713.25 273.48 697.56 279.63   Q 691.72 281.92 681.13 283.10   Q 657.36 285.73 639.19 285.71   Q 542.50 285.59 445.47 286.73   A 1.01 1.00 0.5 0 1 444.45 285.70   L 445.46 251.76   A 1.00 1.00 0.0 0 0 444.46 250.73   L 352.95 250.75   A 0.99 0.99 0.0 0 0 352.11 251.22   L 326.68 291.29   A 1.02 1.01 16.5 0 1 325.83 291.75   L 259.20 291.74   Q 257.36 291.74 258.36 290.20   L 410.22 54.96   A 1.02 1.00 -73.1 0 1 411.06 54.50   L 489.60 54.50   A 1.01 1.00 -3.2 0 1 490.60 55.39   L 510.40 233.56   A 1.00 1.00 0.0 0 0 511.38 234.45   Z   M 432.58 125.42   A 0.30 0.30 0.0 0 0 432.03 125.28   L 379.85 205.04   A 0.30 0.30 0.0 0 0 380.10 205.50   L 439.13 205.50   A 0.30 0.30 0.0 0 0 439.43 205.17   L 432.58 125.42   Z"
       id="path8"
       style="fill:#ff0000;fill-opacity:1" />
    <path
       d="   M 1173.19 415.06   C 1166.12 409.29 1162.16 396.89 1162.07 388.17   Q 1162.03 383.62 1164.11 376.05   C 1169.23 357.39 1173.12 337.37 1179.43 319.68   C 1183.85 307.30 1198.91 296.57 1210.50 293.74   C 1219.38 291.58 1230.81 294.28 1239.22 297.44   C 1258.34 304.63 1263.28 326.38 1258.50 344.74   Q 1254.29 360.90 1242.45 395.19   C 1238.37 407.00 1223.27 420.43 1211.25 422.50   C 1198.62 424.68 1183.84 423.77 1173.19 415.06   Z   M 1176.71 390.51   C 1178.79 408.46 1192.90 410.12 1207.60 408.29   C 1216.83 407.13 1226.34 396.85 1229.29 388.47   Q 1235.38 371.23 1240.60 353.70   C 1244.80 339.61 1247.75 332.61 1243.78 320.83   C 1240.99 312.57 1233.22 310.37 1225.45 308.61   Q 1219.15 307.18 1214.81 308.00   C 1204.63 309.90 1195.26 317.79 1192.13 327.68   C 1186.46 345.56 1182.24 365.01 1177.63 382.24   Q 1176.32 387.14 1176.71 390.51   Z"
       id="path10"
       style="fill:#ff0000;fill-opacity:1" />
    <path
       d="   M 988.94 429.00   L 981.94 429.00   Q 958.00 426.74 941.88 409.09   A 0.99 0.99 0.0 0 1 941.94 407.69   L 950.91 399.31   A 1.00 1.00 0.0 0 1 952.23 399.27   Q 953.74 400.53 955.16 401.86   C 969.04 414.91 986.76 417.67 1004.57 410.36   C 1014.36 406.34 1019.54 394.70 1020.39 384.81   A 1.02 1.01 26.7 0 0 1020.14 384.07   C 1013.64 376.58 1003.57 372.08 994.82 367.68   C 990.08 365.31 990.48 358.18 994.56 355.52   Q 996.17 354.48 1000.71 353.84   C 1008.77 352.72 1018.42 350.99 1024.54 346.02   C 1029.63 341.90 1035.59 334.51 1035.15 327.51   C 1034.04 310.02 1022.00 309.21 1007.26 309.98   Q 989.01 310.93 976.34 323.73   A 0.99 0.99 0.0 0 1 974.95 323.76   L 965.89 315.27   A 1.00 1.00 0.0 0 1 965.85 313.85   C 980.76 298.40 998.54 294.08 1019.27 295.30   Q 1041.17 296.59 1048.00 317.44   C 1054.01 335.76 1042.90 352.46 1027.66 361.36   Q 1024.59 363.15 1021.21 364.13   Q 1019.58 364.60 1020.98 365.56   Q 1026.99 369.68 1031.67 375.34   C 1034.76 379.07 1035.13 385.33 1034.31 390.35   C 1030.35 414.62 1012.99 427.11 988.94 429.00   Z"
       id="path12"
       style="fill:#ff0000;fill-opacity:1" />
    <path
       d="   M 1115.78 326.03   Q 1116.41 324.07 1114.62 325.08   L 1093.07 337.28   A 0.99 0.99 0.0 0 1 1091.64 336.74   L 1087.39 324.71   A 1.00 0.99 65.6 0 1 1087.84 323.51   Q 1105.12 313.81 1125.06 301.58   C 1129.72 298.73 1135.66 301.02 1136.45 306.55   Q 1136.73 308.55 1135.55 312.19   Q 1117.67 367.52 1099.63 422.80   A 1.01 1.01 0.0 0 1 1098.37 423.45   L 1086.43 419.63   A 0.99 0.99 0.0 0 1 1085.79 418.37   L 1115.78 326.03   Z"
       id="path14"
       style="fill:#ff0000;fill-opacity:1" />
  </g>
  <g
     fill="#a6a6a7"
     fill-opacity="0.969"
     id="g44"
     style="fill:#686868;fill-opacity:1">
    <path
       d="   M 20.98 365.30   C 27.77 365.69 34.15 365.87 41.18 365.34   Q 44.12 365.12 44.53 362.79   L 44.92 360.58   A 1.01 1.01 0.0 0 1 45.91 359.75   L 57.23 359.75   A 1.00 1.00 0.0 0 1 58.23 360.70   Q 58.56 367.33 55.59 373.38   A 0.99 0.99 0.0 0 1 55.13 373.84   Q 48.97 376.80 41.24 376.80   C 31.15 376.80 21.26 377.05 11.23 375.78   Q 2.42 374.66 1.53 365.77   C 0.49 355.48 -1.90 334.35 13.43 333.31   Q 28.53 332.28 43.61 333.20   C 51.38 333.67 55.74 335.44 56.68 343.56   Q 56.99 346.28 57.08 347.75   A 1.00 1.00 0.0 0 1 56.08 348.81   L 45.86 348.79   A 1.00 0.99 -2.9 0 1 44.87 347.90   Q 44.63 345.68 42.95 344.68   C 39.50 342.65 20.43 344.21 18.29 344.81   C 14.82 345.77 15.15 354.20 15.37 357.19   C 15.71 361.65 15.87 365.01 20.98 365.30   Z"
       id="path18"
       style="fill:#686868;fill-opacity:1" />
    <path
       d="   M 74.26 373.46   C 69.35 370.19 69.28 366.55 68.98 360.45   C 68.69 354.66 68.33 343.00 71.83 338.09   C 74.61 334.18 79.77 333.40 84.32 333.18   C 92.99 332.75 118.19 330.45 125.52 336.57   C 132.38 342.28 131.13 363.43 127.74 370.48   C 124.94 376.31 114.85 376.31 108.81 376.57   C 98.09 377.04 81.62 378.36 74.26 373.46   Z   M 107.10 365.56   C 112.24 365.46 115.55 365.07 115.69 358.98   C 115.83 352.95 117.60 344.39 110.44 344.01   Q 101.12 343.52 91.83 344.07   C 87.86 344.31 84.05 344.22 83.59 348.28   Q 82.87 354.68 83.69 361.29   Q 84.10 364.58 87.38 365.07   C 93.69 366.02 100.35 365.69 107.10 365.56   Z"
       id="path20"
       style="fill:#686868;fill-opacity:1" />
    <path
       d="   M 156.00 365.75   L 184.75 365.75   A 1.00 1.00 0.0 0 1 185.75 366.75   L 185.75 375.73   A 1.00 1.00 0.0 0 1 184.75 376.73   Q 168.27 376.72 151.82 376.96   Q 147.25 377.02 142.70 376.77   A 1.00 0.99 1.5 0 1 141.75 375.78   L 141.75 333.75   A 1.00 1.00 0.0 0 1 142.75 332.75   L 154.00 332.75   A 1.00 1.00 0.0 0 1 155.00 333.75   L 155.00 364.75   A 1.00 1.00 0.0 0 0 156.00 365.75   Z"
       id="path22"
       style="fill:#686868;fill-opacity:1" />
    <path
       d="   M 204.49 376.06   C 192.57 374.77 193.02 361.96 193.30 353.50   C 193.63 343.61 193.67 334.42 206.27 333.43   Q 223.08 332.12 239.94 333.11   C 249.14 333.66 253.39 337.83 254.40 347.04   Q 255.39 355.96 253.84 365.35   C 252.41 374.05 246.94 375.53 238.63 376.22   Q 220.13 377.76 204.49 376.06   Z   M 208.68 346.32   C 207.21 351.49 207.16 358.42 208.99 363.54   A 0.99 0.99 0.0 0 0 209.41 364.05   C 214.47 367.18 230.76 365.73 236.50 364.94   Q 239.52 364.53 239.95 361.51   C 240.54 357.39 242.07 344.86 236.01 344.16   C 232.73 343.79 213.28 342.51 209.03 345.80   A 1.01 0.98 79.6 0 0 208.68 346.32   Z"
       id="path24"
       style="fill:#686868;fill-opacity:1" />
    <path
       d="   M 315.75 359.09   Q 313.06 360.22 315.95 360.62   Q 318.63 361.00 320.43 362.74   Q 322.08 364.35 322.34 367.72   Q 322.66 371.77 322.48 375.80   A 1.00 0.99 1.2 0 1 321.48 376.75   L 309.32 376.75   A 1.00 1.00 0.0 0 1 308.32 375.81   L 307.93 368.92   Q 307.77 366.15 304.76 366.11   L 280.51 365.83   A 1.00 1.00 0.0 0 0 279.50 366.83   L 279.50 375.75   A 1.00 1.00 0.0 0 1 278.50 376.75   L 267.09 376.75   A 1.00 1.00 0.0 0 1 266.09 375.75   L 265.97 333.88   A 1.00 1.00 0.0 0 1 266.96 332.88   Q 288.19 332.59 309.22 332.83   C 314.95 332.89 320.71 334.18 322.56 340.15   C 324.33 345.82 324.77 356.15 317.48 358.47   Q 316.54 358.76 315.75 359.09   Z   M 308.77 345.72   Q 308.38 344.06 305.25 344.05   L 280.51 343.91   A 1.01 1.00 0.0 0 0 279.50 344.91   L 279.50 353.78   A 1.01 1.00 0.0 0 0 280.51 354.78   L 305.00 354.69   Q 308.04 354.68 308.63 352.60   Q 309.59 349.19 308.77 345.72   Z"
       id="path26"
       style="fill:#686868;fill-opacity:1" />
    <path
       d="   M 394.73 363.02   L 395.06 360.61   A 1.00 1.00 0.0 0 1 396.05 359.75   L 407.41 359.75   A 1.00 1.00 0.0 0 1 408.41 360.70   Q 408.74 366.85 406.72 371.44   C 403.46 378.84 378.92 376.78 371.75 376.71   C 363.51 376.62 353.31 376.19 351.91 366.32   C 350.70 357.82 349.38 339.72 357.74 335.05   Q 360.41 333.57 366.53 333.20   Q 380.43 332.35 394.32 333.25   C 400.60 333.65 404.54 334.63 406.33 340.86   Q 407.29 344.20 407.41 347.70   A 1.01 1.01 0.0 0 1 406.41 348.74   L 396.04 348.78   A 0.99 0.99 0.0 0 1 395.04 347.86   Q 394.88 345.66 393.17 344.67   C 390.57 343.17 372.06 343.71 368.81 344.74   Q 366.46 345.49 366.06 347.93   C 365.36 352.19 363.83 364.59 370.42 365.26   Q 380.95 366.34 391.82 365.22   Q 394.46 364.95 394.73 363.02   Z"
       id="path28"
       style="fill:#686868;fill-opacity:1" />
    <path
       d="   M 433.32 376.42   C 426.21 376.08 419.74 371.96 419.27 364.27   Q 418.58 352.98 419.95 343.49   C 421.09 335.58 426.52 333.86 434.02 333.29   Q 449.08 332.14 464.14 333.13   C 478.05 334.05 480.38 339.88 480.57 353.24   Q 480.66 360.05 479.30 366.76   C 477.40 376.07 467.58 376.42 459.82 376.66   Q 446.56 377.06 433.32 376.42   Z   M 435.66 364.40   C 442.09 366.63 452.12 365.74 457.94 365.39   C 461.64 365.18 465.37 365.09 465.85 361.10   Q 466.69 354.03 465.70 347.79   Q 465.16 344.43 461.76 344.19   Q 451.93 343.49 442.10 344.08   C 437.95 344.32 434.47 344.11 433.79 348.47   C 433.19 352.29 432.83 359.72 435.10 363.93   A 1.04 1.03 -4.7 0 0 435.66 364.40   Z"
       id="path30"
       style="fill:#686868;fill-opacity:1" />
    <path
       d="   M 554.50 346.27   Q 554.50 343.23 553.00 345.87   L 535.82 376.24   A 0.98 0.98 0.0 0 1 534.96 376.75   L 524.77 376.75   A 1.01 1.00 75.0 0 1 523.90 376.24   L 506.75 345.90   Q 505.25 343.26 505.25 346.30   L 505.25 375.72   A 1.00 0.99 -90.0 0 1 504.26 376.72   L 493.01 376.81   A 1.00 1.00 0.0 0 1 492.00 375.81   L 492.00 333.75   A 1.00 1.00 0.0 0 1 493.00 332.75   L 512.77 332.75   A 1.00 0.98 -14.2 0 1 513.64 333.26   L 528.97 360.39   Q 529.84 361.93 530.71 360.39   L 546.12 333.26   A 1.01 1.00 -75.0 0 1 546.99 332.75   L 566.75 332.75   A 1.00 1.00 0.0 0 1 567.75 333.75   L 567.75 375.75   A 1.00 1.00 0.0 0 1 566.75 376.75   L 555.50 376.75   A 1.00 1.00 0.0 0 1 554.50 375.75   L 554.50 346.27   Z"
       id="path32"
       style="fill:#686868;fill-opacity:1" />
    <path
       d="   M 594.79 365.75   A 1.00 0.99 -88.6 0 0 593.75 366.75   L 593.75 375.75   A 1.00 1.00 0.0 0 1 592.75 376.75   L 581.50 376.75   A 1.00 1.00 0.0 0 1 580.50 375.75   L 580.50 333.76   A 1.00 1.00 0.0 0 1 581.50 332.76   Q 598.28 332.74 615.25 332.78   C 622.60 332.79 631.96 332.79 634.03 341.97   C 635.80 349.87 635.64 364.78 624.25 365.52   Q 610.31 366.43 594.79 365.75   Z   M 619.24 345.27   C 617.85 344.56 616.58 343.97 614.99 343.99   Q 604.86 344.14 594.79 343.75   A 1.00 1.00 0.0 0 0 593.75 344.75   L 593.75 353.78   A 1.01 1.00 0.0 0 0 594.76 354.78   L 615.75 354.68   Q 619.25 354.67 619.96 352.23   Q 620.93 348.91 619.71 345.80   A 1.03 0.97 -88.3 0 0 619.24 345.27   Z"
       id="path34"
       style="fill:#686868;fill-opacity:1" />
    <path
       d="   M 663.71 365.24   C 670.75 365.86 677.47 365.83 684.50 365.19   Q 687.29 364.94 687.98 362.21   C 690.00 354.09 688.74 342.30 688.81 333.74   A 1.00 1.00 0.0 0 1 689.81 332.75   L 700.88 332.75   A 1.00 1.00 0.0 0 1 701.88 333.72   Q 702.30 347.55 701.78 361.30   C 701.28 374.45 692.81 376.62 681.43 376.72   C 670.79 376.82 663.84 377.11 657.32 376.15   C 649.11 374.93 645.37 370.51 644.87 362.20   Q 644.01 347.97 644.74 333.70   A 1.00 1.00 0.0 0 1 645.74 332.75   L 656.96 332.75   A 1.00 1.00 0.0 0 1 657.96 333.76   Q 657.84 349.80 658.25 360.17   C 658.38 363.51 660.45 364.95 663.71 365.24   Z"
       id="path36"
       style="fill:#686868;fill-opacity:1" />
    <path
       d="   M 730.51 344.03   Q 727.99 343.95 725.46 343.83   C 721.12 343.63 716.65 344.27 712.03 343.66   A 1.00 0.99 -86.4 0 1 711.16 342.67   L 711.17 333.75   A 1.00 1.00 0.0 0 1 712.17 332.75   L 764.34 332.75   A 1.01 1.00 89.1 0 1 765.34 333.73   L 765.55 342.90   A 1.00 1.00 0.0 0 1 764.55 343.92   L 745.89 343.92   A 1.00 1.00 0.0 0 0 744.89 344.92   L 744.97 375.81   A 1.01 1.00 -0.0 0 1 743.96 376.81   L 732.53 376.73   A 1.00 1.00 0.0 0 1 731.54 375.73   L 731.48 345.03   A 1.00 1.00 0.0 0 0 730.51 344.03   Z"
       id="path38"
       style="fill:#686868;fill-opacity:1" />
    <path
       d="   M 787.25 365.75   L 821.98 365.75   A 1.00 0.99 0.0 0 1 822.98 366.74   L 823.04 375.80   A 1.00 1.00 0.0 0 1 822.03 376.81   Q 806.55 376.60 791.75 376.98   Q 785.00 377.15 773.69 376.62   A 1.00 1.00 0.0 0 1 772.73 375.62   L 772.83 333.75   A 1.00 1.00 0.0 0 1 773.83 332.75   L 821.98 332.75   A 1.00 0.99 0.0 0 1 822.98 333.74   L 823.04 342.83   A 0.99 0.99 0.0 0 1 822.05 343.83   L 787.25 343.98   A 1.00 1.00 0.0 0 0 786.25 344.98   L 786.25 348.75   A 1.00 1.00 0.0 0 0 787.25 349.75   L 819.75 349.75   A 1.00 1.00 0.0 0 1 820.75 350.75   L 820.75 357.89   A 1.00 1.00 0.0 0 1 819.75 358.89   L 787.25 358.94   A 1.00 1.00 0.0 0 0 786.25 359.94   L 786.25 364.75   A 1.00 1.00 0.0 0 0 787.25 365.75   Z"
       id="path40"
       style="fill:#686868;fill-opacity:1" />
    <path
       d="   M 873.83 366.68   Q 871.50 365.89 868.98 365.93   Q 858.34 366.09 847.52 365.88   A 1.00 1.00 0.0 0 0 846.50 366.88   L 846.50 375.72   A 1.00 0.99 -90.0 0 1 845.51 376.72   L 834.26 376.81   A 1.00 1.00 0.0 0 1 833.25 375.81   L 833.25 333.75   A 1.00 1.00 0.0 0 1 834.25 332.75   L 876.25 332.75   Q 878.99 332.75 881.67 333.38   Q 889.88 335.30 890.32 343.93   C 890.67 350.80 890.83 358.00 882.01 359.22   Q 881.02 359.36 881.07 360.02   A 0.51 0.51 0.0 0 0 881.56 360.50   C 890.88 360.85 889.79 369.29 889.56 375.77   A 0.99 0.99 0.0 0 1 888.57 376.73   L 876.24 376.79   A 1.00 1.00 0.0 0 1 875.23 375.72   Q 875.54 371.48 874.47 367.38   A 1.01 1.00 2.9 0 0 873.83 366.68   Z   M 874.17 344.23   A 1.04 1.03 63.7 0 0 873.59 344.03   L 847.50 343.96   A 1.00 0.99 -89.7 0 0 846.50 344.96   L 846.50 353.72   A 1.00 1.00 0.0 0 0 847.49 354.72   Q 859.60 354.82 871.68 354.69   C 877.33 354.63 877.44 346.61 874.17 344.23   Z"
       id="path42"
       style="fill:#686868;fill-opacity:1" />
  </g>
</svg>
