<?xml version="1.0" encoding="UTF-8" standalone="no"?>
<!-- Generator: Adobe Illustrator 16.0.3, SVG Export Plug-In . SVG Version: 6.00 Build 0)  -->

<svg
   xmlns:dc="http://purl.org/dc/elements/1.1/"
   xmlns:cc="http://creativecommons.org/ns#"
   xmlns:rdf="http://www.w3.org/1999/02/22-rdf-syntax-ns#"
   xmlns:svg="http://www.w3.org/2000/svg"
   xmlns="http://www.w3.org/2000/svg"
   xmlns:sodipodi="http://sodipodi.sourceforge.net/DTD/sodipodi-0.dtd"
   xmlns:inkscape="http://www.inkscape.org/namespaces/inkscape"
   version="1.1"
   id="TEXT"
   x="0px"
   y="0px"
   width="566.929px"
   height="157.78px"
   viewBox="0 -0.001 566.929 157.78"
   enable-background="new 0 -0.001 566.929 157.78"
   xml:space="preserve"
   sodipodi:docname="library-w.svg"
   inkscape:version="0.92.4 (5da689c313, 2019-01-14)"><metadata
   id="metadata339"><rdf:RDF><cc:Work
       rdf:about=""><dc:format>image/svg+xml</dc:format><dc:type
         rdf:resource="http://purl.org/dc/dcmitype/StillImage" /><dc:title /></cc:Work></rdf:RDF></metadata><defs
   id="defs337"><clipPath
     id="clipPath16"
     clipPathUnits="userSpaceOnUse"><path
       inkscape:connector-curvature="0"
       id="path18"
       d="M 0,64.592 H 377.368 V 0 H 0 Z" /></clipPath></defs><sodipodi:namedview
   pagecolor="#ffffff"
   bordercolor="#666666"
   borderopacity="1"
   objecttolerance="10"
   gridtolerance="10"
   guidetolerance="10"
   inkscape:pageopacity="0"
   inkscape:pageshadow="2"
   inkscape:window-width="640"
   inkscape:window-height="480"
   id="namedview335"
   showgrid="false"
   inkscape:zoom="1.2594169"
   inkscape:cx="161.78944"
   inkscape:cy="71.722789"
   inkscape:current-layer="TEXT" />
<linearGradient
   id="SVGID_1_"
   gradientUnits="userSpaceOnUse"
   x1="558.1284"
   y1="955.5977"
   x2="11.77"
   y2="955.5977"
   gradientTransform="matrix(1 0 0 1 -0.1797 -875.4102)">
	<stop
   offset="0"
   style="stop-color:#013A67"
   id="stop2" />
	<stop
   offset="1"
   style="stop-color:#6CD1FF"
   id="stop4" />
</linearGradient>

<linearGradient
   id="SVGID_2_"
   gradientUnits="userSpaceOnUse"
   x1="64.7095"
   y1="938.7891"
   x2="60.765"
   y2="934.8448"
   gradientTransform="matrix(1 0 0 1 -0.1797 -875.4102)">
	<stop
   offset="0"
   style="stop-color:#08406F"
   id="stop9" />
	<stop
   offset="1"
   style="stop-color:#60C5F5"
   id="stop11" />
</linearGradient>

<linearGradient
   id="SVGID_3_"
   gradientUnits="userSpaceOnUse"
   x1="123.2954"
   y1="1013.9102"
   x2="119.6701"
   y2="1010.2849"
   gradientTransform="matrix(1 0 0 1 -0.1797 -875.4102)">
	<stop
   offset="0"
   style="stop-color:#08406F"
   id="stop16" />
	<stop
   offset="1"
   style="stop-color:#60C5F5"
   id="stop18" />
</linearGradient>

<linearGradient
   id="SVGID_4_"
   gradientUnits="userSpaceOnUse"
   x1="25.7236"
   y1="994.0508"
   x2="25.7236"
   y2="989.7383"
   gradientTransform="matrix(1 0 0 1 -0.1797 -875.4102)">
	<stop
   offset="0"
   style="stop-color:#08406F"
   id="stop23" />
	<stop
   offset="1"
   style="stop-color:#60C5F5"
   id="stop25" />
</linearGradient>

<linearGradient
   id="SVGID_5_"
   gradientUnits="userSpaceOnUse"
   x1="121.1855"
   y1="1033.1816"
   x2="121.1855"
   y2="1028.7246"
   gradientTransform="matrix(1 0 0 1 -0.1797 -875.4102)">
	<stop
   offset="0"
   style="stop-color:#08406F"
   id="stop30" />
	<stop
   offset="1"
   style="stop-color:#60C5F5"
   id="stop32" />
</linearGradient>

<linearGradient
   id="SVGID_6_"
   gradientUnits="userSpaceOnUse"
   x1="427.6938"
   y1="994.0234"
   x2="427.6938"
   y2="989.5566"
   gradientTransform="matrix(1 0 0 1 -0.1797 -875.4102)">
	<stop
   offset="0"
   style="stop-color:#08406F"
   id="stop37" />
	<stop
   offset="1"
   style="stop-color:#60C5F5"
   id="stop39" />
</linearGradient>

<linearGradient
   id="SVGID_7_"
   gradientUnits="userSpaceOnUse"
   x1="251.0645"
   y1="994.8945"
   x2="251.0645"
   y2="990.416"
   gradientTransform="matrix(1 0 0 1 -0.1797 -875.4102)">
	<stop
   offset="0"
   style="stop-color:#08406F"
   id="stop44" />
	<stop
   offset="1"
   style="stop-color:#60C5F5"
   id="stop46" />
</linearGradient>

<linearGradient
   id="SVGID_8_"
   gradientUnits="userSpaceOnUse"
   x1="522.2808"
   y1="882.1875"
   x2="522.2808"
   y2="877.3242"
   gradientTransform="matrix(1 0 0 1 -0.1797 -875.4102)">
	<stop
   offset="0"
   style="stop-color:#08406F"
   id="stop51" />
	<stop
   offset="1"
   style="stop-color:#60C5F5"
   id="stop53" />
</linearGradient>

<linearGradient
   id="SVGID_9_"
   gradientUnits="userSpaceOnUse"
   x1="515.0132"
   y1="906.7148"
   x2="515.0132"
   y2="902.5049"
   gradientTransform="matrix(1 0 0 1 -0.1797 -875.4102)">
	<stop
   offset="0"
   style="stop-color:#08406F"
   id="stop58" />
	<stop
   offset="1"
   style="stop-color:#60C5F5"
   id="stop60" />
</linearGradient>

<linearGradient
   id="SVGID_10_"
   gradientUnits="userSpaceOnUse"
   x1="459.3696"
   y1="950.2305"
   x2="459.3696"
   y2="946.5117"
   gradientTransform="matrix(1 0 0 1 -0.1797 -875.4102)">
	<stop
   offset="0"
   style="stop-color:#08406F"
   id="stop65" />
	<stop
   offset="1"
   style="stop-color:#60C5F5"
   id="stop67" />
</linearGradient>

<linearGradient
   id="SVGID_11_"
   gradientUnits="userSpaceOnUse"
   x1="490.1606"
   y1="925.1113"
   x2="490.1606"
   y2="919.5566"
   gradientTransform="matrix(1 0 0 1 -0.1797 -875.4102)">
	<stop
   offset="0"
   style="stop-color:#08406F"
   id="stop72" />
	<stop
   offset="1"
   style="stop-color:#60C5F5"
   id="stop74" />
</linearGradient>

<linearGradient
   id="SVGID_12_"
   gradientUnits="userSpaceOnUse"
   x1="74.3892"
   y1="968.8252"
   x2="70.846"
   y2="965.282"
   gradientTransform="matrix(1 0 0 1 -0.1797 -875.4102)">
	<stop
   offset="0"
   style="stop-color:#08406F"
   id="stop79" />
	<stop
   offset="1"
   style="stop-color:#60C5F5"
   id="stop81" />
</linearGradient>

<linearGradient
   id="SVGID_13_"
   gradientUnits="userSpaceOnUse"
   x1="120.2554"
   y1="904.3691"
   x2="114.8892"
   y2="904.3691"
   gradientTransform="matrix(1 0 0 1 -0.1797 -875.4102)">
	<stop
   offset="0"
   style="stop-color:#08406F"
   id="stop86" />
	<stop
   offset="1"
   style="stop-color:#60C5F5"
   id="stop88" />
</linearGradient>

<linearGradient
   id="SVGID_14_"
   gradientUnits="userSpaceOnUse"
   x1="173.0811"
   y1="919.9609"
   x2="166.4209"
   y2="919.9609"
   gradientTransform="matrix(1 0 0 1 -0.1797 -875.4102)">
	<stop
   offset="0"
   style="stop-color:#08406F"
   id="stop93" />
	<stop
   offset="1"
   style="stop-color:#60C5F5"
   id="stop95" />
</linearGradient>

<linearGradient
   id="SVGID_15_"
   gradientUnits="userSpaceOnUse"
   x1="255.9883"
   y1="925.2158"
   x2="249.9951"
   y2="925.2158"
   gradientTransform="matrix(1 0 0 1 -0.1797 -875.4102)">
	<stop
   offset="0"
   style="stop-color:#08406F"
   id="stop100" />
	<stop
   offset="1"
   style="stop-color:#60C5F5"
   id="stop102" />
</linearGradient>

<linearGradient
   id="SVGID_16_"
   gradientUnits="userSpaceOnUse"
   x1="349.2769"
   y1="904.625"
   x2="343.5757"
   y2="904.625"
   gradientTransform="matrix(1 0 0 1 -0.1797 -875.4102)">
	<stop
   offset="0"
   style="stop-color:#08406F"
   id="stop107" />
	<stop
   offset="1"
   style="stop-color:#60C5F5"
   id="stop109" />
</linearGradient>

<linearGradient
   id="SVGID_17_"
   gradientUnits="userSpaceOnUse"
   x1="400.9604"
   y1="918.4463"
   x2="395.1636"
   y2="918.4463"
   gradientTransform="matrix(1 0 0 1 -0.1797 -875.4102)">
	<stop
   offset="0"
   style="stop-color:#08406F"
   id="stop114" />
	<stop
   offset="1"
   style="stop-color:#60C5F5"
   id="stop116" />
</linearGradient>

<linearGradient
   id="SVGID_18_"
   gradientUnits="userSpaceOnUse"
   x1="101.7651"
   y1="968.9385"
   x2="96.6543"
   y2="968.9385"
   gradientTransform="matrix(1 0 0 1 -0.1797 -875.4102)">
	<stop
   offset="0"
   style="stop-color:#08406F"
   id="stop121" />
	<stop
   offset="1"
   style="stop-color:#60C5F5"
   id="stop123" />
</linearGradient>

<linearGradient
   id="SVGID_19_"
   gradientUnits="userSpaceOnUse"
   x1="121.2485"
   y1="973.8379"
   x2="117.6964"
   y2="970.2858"
   gradientTransform="matrix(1 0 0 1 -0.1797 -875.4102)">
	<stop
   offset="0"
   style="stop-color:#08406F"
   id="stop128" />
	<stop
   offset="1"
   style="stop-color:#60C5F5"
   id="stop130" />
</linearGradient>

<linearGradient
   id="SVGID_20_"
   gradientUnits="userSpaceOnUse"
   x1="553.436"
   y1="892.5"
   x2="549.7673"
   y2="888.8311"
   gradientTransform="matrix(1 0 0 1 -0.1797 -875.4102)">
	<stop
   offset="0"
   style="stop-color:#08406F"
   id="stop135" />
	<stop
   offset="1"
   style="stop-color:#60C5F5"
   id="stop137" />
</linearGradient>

<linearGradient
   id="SVGID_21_"
   gradientUnits="userSpaceOnUse"
   x1="145.9941"
   y1="969.8789"
   x2="140.5957"
   y2="969.8789"
   gradientTransform="matrix(1 0 0 1 -0.1797 -875.4102)">
	<stop
   offset="0"
   style="stop-color:#08406F"
   id="stop142" />
	<stop
   offset="1"
   style="stop-color:#60C5F5"
   id="stop144" />
</linearGradient>

<linearGradient
   id="SVGID_22_"
   gradientUnits="userSpaceOnUse"
   x1="148.7769"
   y1="907.0098"
   x2="144.2891"
   y2="902.522"
   gradientTransform="matrix(1 0 0 1 -0.1797 -875.4102)">
	<stop
   offset="0"
   style="stop-color:#08406F"
   id="stop149" />
	<stop
   offset="1"
   style="stop-color:#60C5F5"
   id="stop151" />
</linearGradient>

<linearGradient
   id="SVGID_23_"
   gradientUnits="userSpaceOnUse"
   x1="215.8457"
   y1="922.3213"
   x2="211.688"
   y2="918.1636"
   gradientTransform="matrix(1 0 0 1 -0.1797 -875.4102)">
	<stop
   offset="0"
   style="stop-color:#08406F"
   id="stop156" />
	<stop
   offset="1"
   style="stop-color:#60C5F5"
   id="stop158" />
</linearGradient>

<linearGradient
   id="SVGID_24_"
   gradientUnits="userSpaceOnUse"
   x1="304.3159"
   y1="927.8105"
   x2="299.9317"
   y2="923.4263"
   gradientTransform="matrix(1 0 0 1 -0.1797 -875.4102)">
	<stop
   offset="0"
   style="stop-color:#08406F"
   id="stop163" />
	<stop
   offset="1"
   style="stop-color:#60C5F5"
   id="stop165" />
</linearGradient>

<linearGradient
   id="SVGID_25_"
   gradientUnits="userSpaceOnUse"
   x1="376.9712"
   y1="906.8613"
   x2="372.7633"
   y2="902.653"
   gradientTransform="matrix(1 0 0 1 -0.1797 -875.4102)">
	<stop
   offset="0"
   style="stop-color:#08406F"
   id="stop170" />
	<stop
   offset="1"
   style="stop-color:#60C5F5"
   id="stop172" />
</linearGradient>

<linearGradient
   id="SVGID_26_"
   gradientUnits="userSpaceOnUse"
   x1="488.7378"
   y1="935.2646"
   x2="485.2816"
   y2="931.8086"
   gradientTransform="matrix(1 0 0 1 -0.1797 -875.4102)">
	<stop
   offset="0"
   style="stop-color:#08406F"
   id="stop177" />
	<stop
   offset="1"
   style="stop-color:#60C5F5"
   id="stop179" />
</linearGradient>

<linearGradient
   id="SVGID_27_"
   gradientUnits="userSpaceOnUse"
   x1="499.8081"
   y1="979.377"
   x2="495.8485"
   y2="975.4175"
   gradientTransform="matrix(1 0 0 1 -0.1797 -875.4102)">
	<stop
   offset="0"
   style="stop-color:#08406F"
   id="stop184" />
	<stop
   offset="1"
   style="stop-color:#60C5F5"
   id="stop186" />
</linearGradient>

<linearGradient
   id="SVGID_28_"
   gradientUnits="userSpaceOnUse"
   x1="441.8374"
   y1="921.6133"
   x2="437.5547"
   y2="917.3306"
   gradientTransform="matrix(1 0 0 1 -0.1797 -875.4102)">
	<stop
   offset="0"
   style="stop-color:#08406F"
   id="stop191" />
	<stop
   offset="1"
   style="stop-color:#60C5F5"
   id="stop193" />
</linearGradient>

<linearGradient
   id="SVGID_29_"
   gradientUnits="userSpaceOnUse"
   x1="486.8589"
   y1="916.6494"
   x2="481.7448"
   y2="911.5353"
   gradientTransform="matrix(1 0 0 1 -0.1797 -875.4102)">
	<stop
   offset="0"
   style="stop-color:#08406F"
   id="stop198" />
	<stop
   offset="1"
   style="stop-color:#60C5F5"
   id="stop200" />
</linearGradient>

<linearGradient
   id="SVGID_30_"
   gradientUnits="userSpaceOnUse"
   x1="185.9771"
   y1="992.3301"
   x2="182.3352"
   y2="988.6882"
   gradientTransform="matrix(1 0 0 1 -0.1797 -875.4102)">
	<stop
   offset="0"
   style="stop-color:#08406F"
   id="stop205" />
	<stop
   offset="1"
   style="stop-color:#60C5F5"
   id="stop207" />
</linearGradient>

<linearGradient
   id="SVGID_31_"
   gradientUnits="userSpaceOnUse"
   x1="303.0278"
   y1="969.1396"
   x2="299.3873"
   y2="965.4991"
   gradientTransform="matrix(1 0 0 1 -0.1797 -875.4102)">
	<stop
   offset="0"
   style="stop-color:#08406F"
   id="stop212" />
	<stop
   offset="1"
   style="stop-color:#60C5F5"
   id="stop214" />
</linearGradient>

<linearGradient
   id="SVGID_32_"
   gradientUnits="userSpaceOnUse"
   x1="349.8892"
   y1="973.085"
   x2="346.3799"
   y2="969.5756"
   gradientTransform="matrix(1 0 0 1 -0.1797 -875.4102)">
	<stop
   offset="0"
   style="stop-color:#08406F"
   id="stop219" />
	<stop
   offset="1"
   style="stop-color:#60C5F5"
   id="stop221" />
</linearGradient>

<linearGradient
   id="SVGID_33_"
   gradientUnits="userSpaceOnUse"
   x1="370.8042"
   y1="993.6396"
   x2="366.3813"
   y2="989.2169"
   gradientTransform="matrix(1 0 0 1 -0.1797 -875.4102)">
	<stop
   offset="0"
   style="stop-color:#08406F"
   id="stop226" />
	<stop
   offset="1"
   style="stop-color:#60C5F5"
   id="stop228" />
</linearGradient>

<linearGradient
   id="SVGID_34_"
   gradientUnits="userSpaceOnUse"
   x1="229.457"
   y1="971.7686"
   x2="223.4189"
   y2="971.7686"
   gradientTransform="matrix(1 0 0 1 -0.1797 -875.4102)">
	<stop
   offset="0"
   style="stop-color:#08406F"
   id="stop233" />
	<stop
   offset="1"
   style="stop-color:#60C5F5"
   id="stop235" />
</linearGradient>

<linearGradient
   id="SVGID_35_"
   gradientUnits="userSpaceOnUse"
   x1="330.3042"
   y1="968.5186"
   x2="325.0923"
   y2="968.5186"
   gradientTransform="matrix(1 0 0 1 -0.1797 -875.4102)">
	<stop
   offset="0"
   style="stop-color:#08406F"
   id="stop240" />
	<stop
   offset="1"
   style="stop-color:#60C5F5"
   id="stop242" />
</linearGradient>

<linearGradient
   id="SVGID_36_"
   gradientUnits="userSpaceOnUse"
   x1="374.9702"
   y1="967.8066"
   x2="368.7251"
   y2="967.8066"
   gradientTransform="matrix(1 0 0 1 -0.1797 -875.4102)">
	<stop
   offset="0"
   style="stop-color:#08406F"
   id="stop247" />
	<stop
   offset="1"
   style="stop-color:#60C5F5"
   id="stop249" />
</linearGradient>

<linearGradient
   id="SVGID_37_"
   gradientUnits="userSpaceOnUse"
   x1="440.6372"
   y1="959.6748"
   x2="436.2191"
   y2="955.2568"
   gradientTransform="matrix(1 0 0 1 -0.1797 -875.4102)">
	<stop
   offset="0"
   style="stop-color:#08406F"
   id="stop254" />
	<stop
   offset="1"
   style="stop-color:#60C5F5"
   id="stop256" />
</linearGradient>

<linearGradient
   id="SVGID_38_"
   gradientUnits="userSpaceOnUse"
   x1="472.9204"
   y1="969.5098"
   x2="472.9204"
   y2="963.708"
   gradientTransform="matrix(1 0 0 1 -0.1797 -875.4102)">
	<stop
   offset="0"
   style="stop-color:#08406F"
   id="stop261" />
	<stop
   offset="1"
   style="stop-color:#60C5F5"
   id="stop263" />
</linearGradient>





<g
   transform="matrix(1.379752,0,0,-1.7534699,-2.4131331,139.87014)"
   id="g10"><g
     id="g12"><g
       clip-path="url(#clipPath16)"
       id="g14"><g
         transform="translate(362.2794,17.9215)"
         id="g182"><path
           id="path184"
           style="fill:#3362ba;fill-opacity:1;fill-rule:nonzero;stroke:none"
           d="m 0,0 h -259.211 l 3.001,-2.911 H 3 Z"
           inkscape:connector-curvature="0" /></g><g
         transform="translate(366.2072,13.6647)"
         id="g186"><path
           id="path188"
           style="fill:#d4d0ce;fill-opacity:1;fill-rule:nonzero;stroke:none"
           d="m 0,0 h -259.211 l 3.001,-2.911 H 3 Z"
           inkscape:connector-curvature="0" /></g></g></g></g><g
   aria-label="Library"
   transform="matrix(1.3582295,0,0,1.0952833,14.782337,28.914713)"
   style="font-style:normal;font-variant:normal;font-weight:normal;font-stretch:normal;font-size:33.03963852px;line-height:1.25;font-family:Pixeled;-inkscape-font-specification:Pixeled;letter-spacing:0px;word-spacing:0px;fill:#f2f2f2;fill-opacity:1;stroke:none;stroke-width:0.82599097"
   id="text927"><path
     d="M 119.76005,57.453373 V 17.80742 h 6.60631 v 33.039639 h 19.81895 v 6.606314 z"
     style="fill:#f2f2f2;stroke-width:0.82599097"
     id="path830"
     inkscape:connector-curvature="0" /><path
     d="M 152.79969,57.453373 V 37.63443 h 6.60631 v 19.818943 z m 0,-26.425258 v -6.614381 h 6.60631 v 6.614381 z"
     style="fill:#f2f2f2;stroke-width:0.82599097"
     id="path832"
     inkscape:connector-curvature="0" /><path
     d="m 185.84739,50.847059 v -6.606315 h -13.21263 v 6.606315 z m -19.81894,6.606314 V 24.413734 h 6.60631 V 37.63443 h 19.81895 v 19.818943 z"
     style="fill:#f2f2f2;stroke-width:0.82599097"
     id="path834"
     inkscape:connector-curvature="0" /><path
     d="M 199.06808,57.453373 V 24.413734 h 26.42526 v 6.614381 H 205.6744 v 26.425258 z"
     style="fill:#f2f2f2;stroke-width:0.82599097"
     id="path836"
     inkscape:connector-curvature="0" /><path
     d="m 251.92667,50.847059 v -6.606315 h -13.21263 v 6.606315 z m -19.81894,6.606314 V 37.63443 h 19.81894 v -6.606315 h 6.60631 v 26.425258 z m 0,-26.425258 v -6.614381 h 19.81894 v 6.614381 z"
     style="fill:#f2f2f2;stroke-width:0.82599097"
     id="path838"
     inkscape:connector-curvature="0" /><path
     d="M 265.14736,57.453373 V 24.413734 h 26.42526 v 6.614381 h -19.81894 v 26.425258 z"
     style="fill:#f2f2f2;stroke-width:0.82599097"
     id="path840"
     inkscape:connector-curvature="0" /><path
     d="m 298.187,57.453373 v -6.606314 h 19.81895 V 44.240744 H 298.187 v -19.82701 h 6.60632 V 37.63443 h 13.21263 V 24.413734 h 6.60631 v 33.039639 z"
     style="fill:#f2f2f2;stroke-width:0.82599097"
     id="path842"
     inkscape:connector-curvature="0" /></g><g
   transform="matrix(-0.60329651,0,0,0.53717356,190.91874,197.62915)"
   id="svgg"><path
     style="fill:#ef8b0f;fill-rule:evenodd;stroke:none;fill-opacity:0.94117647"
     inkscape:connector-curvature="0"
     id="path0"
     d="m 130.03199,-309.63593 c -0.298,0.099 -0.374,12.463 -0.372,60.49 l 0.002,60.365 0.808,0.375 c 0.444,0.207 1.455,0.375 2.248,0.375 0.792,0 1.44,0.121 1.44,0.268 0,0.147 1.351,0.364 3.001,0.482 1.65,0.119 3.001,0.336 3.001,0.483 0,0.147 0.675,0.268 1.5,0.268 0.825,0 1.501,0.12 1.501,0.267 0,0.148 1.35,0.365 3,0.483 1.651,0.118 3.001,0.335 3.001,0.482 0,0.148 0.81,0.268 1.801,0.268 0.99,0 1.8,0.122 1.8,0.271 0,0.149 1.418,0.368 3.151,0.486 1.733,0.118 3.151,0.334 3.151,0.479 0,0.146 0.607,0.264 1.35,0.264 0.743,0 1.35,0.119 1.35,0.265 0,0.145 1.418,0.361 3.151,0.479 1.733,0.118 3.151,0.336 3.151,0.486 0,0.149 0.799,0.271 1.775,0.271 0.977,0 1.821,0.13 1.876,0.29 0.055,0.159 1.416,0.381 3.025,0.494 1.61,0.113 2.926,0.32 2.926,0.46 0,0.141 0.675,0.256 1.501,0.256 0.825,0 1.5,0.121 1.5,0.268 0,0.147 1.35,0.364 3.001,0.482 1.65,0.119 3,0.336 3,0.483 0,0.147 0.811,0.268 1.801,0.268 0.99,0 1.8,0.122 1.8,0.271 0,0.149 1.418,0.368 3.151,0.486 1.733,0.118 3.151,0.333 3.151,0.479 0,0.145 0.608,0.264 1.35,0.264 0.743,0 1.351,0.118 1.351,0.261 0,0.144 1.35,0.358 3,0.475 1.651,0.117 3.001,0.336 3.001,0.488 0,0.152 0.743,0.276 1.651,0.276 0.907,0 1.65,0.118 1.65,0.262 0,0.144 1.485,0.358 3.301,0.475 1.815,0.118 3.301,0.338 3.301,0.489 0,0.151 0.675,0.275 1.5,0.275 0.825,0 1.5,0.12 1.5,0.267 0,0.148 1.351,0.365 3.001,0.483 1.65,0.118 3.001,0.335 3.001,0.482 0,0.148 0.81,0.268 1.8,0.268 0.991,0 1.801,0.121 1.801,0.268 0,0.147 1.35,0.364 3,0.482 1.651,0.118 3.001,0.335 3.001,0.483 0,0.147 0.675,0.267 1.501,0.267 0.825,0 1.5,0.118 1.5,0.262 0,0.144 1.35,0.357 3.001,0.474 1.65,0.117 3,0.337 3,0.489 0,0.152 0.878,0.276 1.951,0.276 1.195,0 1.95,-0.126 1.95,-0.324 0,-0.477 -2.202,-2.573 -2.953,-2.812 -0.356,-0.113 -0.647,-0.331 -0.647,-0.485 0,-0.154 -0.154,-0.28 -0.341,-0.28 -0.188,0 -0.654,-0.338 -1.036,-0.75 -0.382,-0.413 -0.843,-0.751 -1.024,-0.751 -0.181,0 -0.642,-0.337 -1.024,-0.75 -0.382,-0.412 -0.849,-0.75 -1.036,-0.75 -0.187,0 -0.341,-0.126 -0.341,-0.28 0,-0.154 -0.303,-0.376 -0.675,-0.493 -0.371,-0.117 -0.878,-0.444 -1.125,-0.727 -0.248,-0.283 -0.754,-0.611 -1.125,-0.728 -0.372,-0.117 -0.676,-0.339 -0.676,-0.493 0,-0.154 -0.202,-0.28 -0.45,-0.28 -0.247,0 -0.45,-0.132 -0.45,-0.294 0,-0.162 -0.337,-0.379 -0.75,-0.483 -0.413,-0.103 -0.75,-0.308 -0.75,-0.455 0,-0.148 -0.256,-0.268 -0.568,-0.268 -0.313,0 -0.646,-0.203 -0.741,-0.45 -0.095,-0.248 -0.415,-0.45 -0.71,-0.45 -0.296,0 -0.699,-0.258 -0.895,-0.573 -0.197,-0.316 -0.77,-0.664 -1.273,-0.774 -0.503,-0.111 -0.914,-0.326 -0.914,-0.478 0,-0.151 -0.145,-0.276 -0.322,-0.276 -0.177,0 -0.524,-0.202 -0.772,-0.45 -0.247,-0.247 -0.748,-0.45 -1.112,-0.45 -0.365,0 -0.854,-0.265 -1.087,-0.589 -0.234,-0.324 -0.804,-0.672 -1.267,-0.774 -0.463,-0.102 -0.842,-0.309 -0.842,-0.461 0,-0.152 -0.27,-0.277 -0.6,-0.277 -0.33,0 -0.6,-0.135 -0.6,-0.3 0,-0.165 -0.342,-0.3 -0.76,-0.3 -0.417,0 -0.837,-0.202 -0.932,-0.45 -0.095,-0.247 -0.428,-0.45 -0.741,-0.45 -0.312,0 -0.568,-0.118 -0.568,-0.262 0,-0.144 -0.54,-0.348 -1.2,-0.453 -0.66,-0.106 -1.2,-0.294 -1.2,-0.418 0,-0.31 -2.268,-1.268 -3.003,-1.268 -0.329,0 -0.598,-0.135 -0.598,-0.3 0,-0.165 -0.203,-0.3 -0.45,-0.3 -0.248,0 -0.451,-0.117 -0.451,-0.261 0,-0.144 -0.54,-0.348 -1.2,-0.454 -0.66,-0.106 -1.2,-0.325 -1.2,-0.489 0,-0.163 -0.338,-0.296 -0.75,-0.296 -0.413,0 -0.751,-0.127 -0.751,-0.282 0,-0.155 -0.607,-0.373 -1.35,-0.484 -0.743,-0.111 -1.35,-0.322 -1.35,-0.468 0,-0.147 -0.338,-0.266 -0.75,-0.266 -0.413,0 -0.751,-0.118 -0.751,-0.262 0,-0.144 -0.54,-0.348 -1.2,-0.454 -0.66,-0.105 -1.2,-0.325 -1.2,-0.488 0,-0.163 -0.338,-0.297 -0.75,-0.297 -0.413,0 -0.751,-0.122 -0.751,-0.272 0,-0.149 -0.675,-0.364 -1.5,-0.478 -0.825,-0.113 -1.5,-0.329 -1.5,-0.478 0,-0.15 -0.33,-0.272 -0.733,-0.272 -0.403,0 -0.806,-0.119 -0.896,-0.265 -0.09,-0.146 -0.908,-0.358 -1.818,-0.472 -0.91,-0.114 -1.655,-0.332 -1.655,-0.485 0,-0.153 -0.337,-0.279 -0.75,-0.279 -0.412,0 -0.75,-0.125 -0.75,-0.278 0,-0.153 -0.743,-0.371 -1.65,-0.485 -0.908,-0.113 -1.651,-0.325 -1.651,-0.471 0,-0.146 -0.472,-0.266 -1.05,-0.266 -0.578,0 -1.05,-0.116 -1.05,-0.257 0,-0.142 -0.844,-0.346 -1.876,-0.453 -1.031,-0.108 -1.92,-0.33 -1.975,-0.493 -0.055,-0.164 -0.685,-0.297 -1.401,-0.297 -0.715,0 -1.345,-0.131 -1.4,-0.29 -0.055,-0.159 -1.417,-0.382 -3.026,-0.494 -1.609,-0.113 -2.925,-0.32 -2.925,-0.461 0,-0.141 -1.553,-0.256 -3.451,-0.256 -2.101,0 -3.451,-0.117 -3.451,-0.3 0,-0.165 -0.203,-0.3 -0.45,-0.3 -0.399,0 -0.45,-5.737 -0.45,-49.834 0,-42.339 -0.064,-49.897 -0.421,-50.254 -0.268,-0.268 -1.468,-0.494 -3.301,-0.623 -1.584,-0.111 -2.88,-0.318 -2.88,-0.458 0,-0.141 -0.799,-0.256 -1.776,-0.256 -0.976,0 -1.82,-0.131 -1.875,-0.29 -0.055,-0.159 -1.417,-0.382 -3.026,-0.494 -1.609,-0.113 -2.925,-0.32 -2.925,-0.461 0,-0.14 -0.676,-0.256 -1.501,-0.256 -0.825,0 -1.5,-0.122 -1.5,-0.271 0,-0.149 -1.418,-0.368 -3.151,-0.486 -1.733,-0.118 -3.151,-0.333 -3.151,-0.479 0,-0.145 -0.596,-0.264 -1.325,-0.264 -0.729,0 -1.37,-0.117 -1.425,-0.26 -0.106,-0.275 -4.338,-0.628 -4.977,-0.415" /><path
     style="fill:#4a994f;fill-rule:evenodd;stroke:none;fill-opacity:1"
     inkscape:connector-curvature="0"
     id="path1"
     d="m 176.12699,-333.59893 c 0.372,0.236 1.542,0.12 1.542,-0.153 0,-0.063 -0.439,-0.113 -0.975,-0.111 -0.663,0.004 -0.845,0.088 -0.567,0.264 m 3.343,0.332 c 0,0.165 0.27,0.3 0.6,0.3 0.33,0 0.6,-0.135 0.6,-0.3 0,-0.165 -0.27,-0.3 -0.6,-0.3 -0.33,0 -0.6,0.135 -0.6,0.3 m 2.7,0.6 c 0,0.165 0.203,0.3 0.45,0.3 0.248,0 0.451,-0.135 0.451,-0.3 0,-0.165 -0.203,-0.3 -0.451,-0.3 -0.247,0 -0.45,0.135 -0.45,0.3 m 3.601,0.9 c 0,0.165 0.203,0.3 0.45,0.3 0.248,0 0.45,-0.135 0.45,-0.3 0,-0.165 -0.202,-0.3 -0.45,-0.3 -0.247,0 -0.45,0.135 -0.45,0.3 m 20.105,7.502 c 0,0.165 0.203,0.3 0.45,0.3 0.248,0 0.45,-0.135 0.45,-0.3 0,-0.165 -0.202,-0.3 -0.45,-0.3 -0.247,0 -0.45,0.135 -0.45,0.3 m 26.707,14.072 c 0,0.147 0.214,0.35 0.475,0.45 0.734,0.282 0.807,0.22 0.318,-0.268 -0.51,-0.51 -0.793,-0.575 -0.793,-0.182 m 5.106,3.793 c 0.008,0.517 0.557,1.179 0.786,0.949 0.123,-0.123 -0.005,-0.452 -0.284,-0.731 -0.279,-0.279 -0.505,-0.377 -0.502,-0.218 m 3.296,2.993 c 0,0.282 4.244,4.349 4.539,4.349 0.16,0 -0.721,-1.013 -1.959,-2.251 -2.091,-2.091 -2.58,-2.489 -2.58,-2.098 m -65.266,89.57 c 0.102,0.165 0.582,0.3 1.068,0.3 0.485,0 0.882,-0.135 0.882,-0.3 0,-0.165 -0.48,-0.3 -1.068,-0.3 -0.635,0 -0.993,0.121 -0.882,0.3 m 3.451,0.6 c 0,0.165 0.202,0.3 0.45,0.3 0.247,0 0.45,-0.135 0.45,-0.3 0,-0.165 -0.203,-0.3 -0.45,-0.3 -0.248,0 -0.45,0.135 -0.45,0.3 m 6.241,1.56 c 0.28,0.28 0.44,0.28 0.72,0 0.28,-0.28 0.2,-0.36 -0.36,-0.36 -0.56,0 -0.64,0.08 -0.36,0.36 m 5.161,1.441 c 0,0.165 0.203,0.3 0.451,0.3 0.247,0 0.45,-0.135 0.45,-0.3 0,-0.165 -0.203,-0.3 -0.45,-0.3 -0.248,0 -0.451,0.135 -0.451,0.3 m 3.001,0.9 c 0,0.165 0.203,0.3 0.45,0.3 0.248,0 0.45,-0.135 0.45,-0.3 0,-0.165 -0.202,-0.3 -0.45,-0.3 -0.247,0 -0.45,0.135 -0.45,0.3 m 45.454,20.891 c 0.268,0.267 0.577,0.395 0.688,0.284 0.111,-0.111 0.004,-0.328 -0.239,-0.482 -0.709,-0.448 -0.977,-0.33 -0.449,0.198 m 3.158,2.183 c 0,0.147 0.214,0.35 0.475,0.45 0.734,0.282 0.807,0.22 0.318,-0.268 -0.51,-0.51 -0.793,-0.575 -0.793,-0.182 m 2.844,2.318 c 0.267,0.267 0.577,0.395 0.688,0.284 0.111,-0.111 0.003,-0.328 -0.24,-0.481 -0.708,-0.449 -0.976,-0.331 -0.448,0.197 m -95.267,20.97 v 11.552 h 1.333 c 0.733,0 1.416,-0.135 1.518,-0.3 0.102,-0.165 1.115,-0.3 2.25,-0.3 1.136,0 2.141,-0.122 2.234,-0.272 0.092,-0.15 2.058,-0.369 4.369,-0.488 2.31,-0.119 4.2,-0.335 4.2,-0.478 0,-0.144 0.878,-0.262 1.951,-0.262 1.072,0 1.95,-0.116 1.95,-0.257 0,-0.141 1.992,-0.352 4.426,-0.47 2.435,-0.117 4.471,-0.339 4.526,-0.493 0.055,-0.154 0.959,-0.28 2.008,-0.28 1.049,0 1.984,-0.123 2.076,-0.273 0.093,-0.149 2.059,-0.369 4.369,-0.488 2.31,-0.119 4.201,-0.334 4.201,-0.478 0,-0.144 1.012,-0.262 2.25,-0.262 1.238,0 2.251,-0.12 2.251,-0.266 0,-0.147 1.757,-0.365 3.904,-0.484 2.147,-0.12 3.978,-0.337 4.068,-0.484 0.091,-0.146 1.226,-0.266 2.523,-0.266 1.297,0 2.403,-0.127 2.458,-0.282 0.055,-0.155 1.957,-0.377 4.226,-0.494 2.269,-0.116 4.126,-0.327 4.126,-0.468 0,-0.141 0.81,-0.257 1.8,-0.257 0.991,0 1.801,-0.119 1.801,-0.266 0,-0.146 2.025,-0.364 4.501,-0.484 2.476,-0.12 4.501,-0.337 4.501,-0.484 0,-0.146 1.013,-0.266 2.251,-0.266 1.238,0 2.25,-0.122 2.25,-0.272 0,-0.15 1.891,-0.37 4.201,-0.489 2.311,-0.119 4.201,-0.334 4.201,-0.478 0,-0.144 0.811,-0.261 1.801,-0.261 1.4,0 1.8,-0.1 1.8,-0.45 0,-0.315 -0.316,-0.451 -1.05,-0.451 -0.578,0 -1.05,-0.122 -1.05,-0.272 0,-0.149 -1.891,-0.369 -4.201,-0.488 -2.311,-0.119 -4.201,-0.334 -4.201,-0.478 0,-0.144 -0.878,-0.262 -1.951,-0.262 -1.073,0 -1.95,-0.118 -1.95,-0.262 0,-0.143 -1.891,-0.359 -4.201,-0.478 -2.311,-0.119 -4.201,-0.338 -4.201,-0.488 0,-0.15 -1.005,-0.272 -2.233,-0.272 -1.228,0 -2.309,-0.123 -2.401,-0.272 -0.093,-0.15 -2.059,-0.37 -4.369,-0.489 -2.31,-0.119 -4.201,-0.334 -4.201,-0.478 0,-0.144 -0.877,-0.262 -1.95,-0.262 -1.073,0 -1.951,-0.119 -1.951,-0.266 0,-0.146 -2.025,-0.364 -4.501,-0.484 -2.475,-0.12 -4.501,-0.338 -4.501,-0.484 0,-0.146 -0.87,-0.266 -1.933,-0.266 -1.063,0 -2.008,-0.123 -2.101,-0.272 -0.092,-0.15 -2.058,-0.37 -4.368,-0.489 -2.311,-0.119 -4.201,-0.334 -4.201,-0.478 0,-0.144 -0.812,-0.261 -1.805,-0.261 -0.992,0 -2.039,-0.13 -2.325,-0.288 -0.287,-0.158 -2.378,-0.374 -4.647,-0.481 -2.27,-0.106 -4.126,-0.314 -4.126,-0.462 0,-0.149 -0.851,-0.27 -1.891,-0.27 -1.04,0 -2.019,-0.125 -2.175,-0.278 -0.157,-0.153 -2.213,-0.375 -4.57,-0.493 -2.357,-0.118 -4.356,-0.33 -4.444,-0.472 -0.087,-0.141 -1.029,-0.257 -2.092,-0.257 -1.088,0 -1.933,-0.131 -1.933,-0.3 0,-0.175 -1,-0.3 -2.4,-0.3 h -2.401 v 11.553 m 96.024,8.224 c 0,0.424 0.155,0.531 0.6,0.415 0.33,-0.087 0.601,-0.344 0.601,-0.572 0,-0.229 -0.271,-0.416 -0.601,-0.416 -0.39,0 -0.6,0.201 -0.6,0.573 m -3.001,0.028 c 0,0.165 0.203,0.3 0.451,0.3 0.247,0 0.45,-0.135 0.45,-0.3 0,-0.165 -0.203,-0.3 -0.45,-0.3 -0.248,0 -0.451,0.135 -0.451,0.3 m -3.6,0.6 c 0,0.165 0.27,0.3 0.6,0.3 0.33,0 0.6,-0.135 0.6,-0.3 0,-0.165 -0.27,-0.3 -0.6,-0.3 -0.33,0 -0.6,0.135 -0.6,0.3 m -3.601,0.415 c 0,0.266 1.214,0.406 1.367,0.157 0.093,-0.15 -0.177,-0.272 -0.599,-0.272 -0.423,0 -0.768,0.052 -0.768,0.115 m -3.001,0.485 c 0,0.165 0.27,0.3 0.6,0.3 0.33,0 0.6,-0.135 0.6,-0.3 0,-0.165 -0.27,-0.3 -0.6,-0.3 -0.33,0 -0.6,0.135 -0.6,0.3 m -3.301,0.6 c 0,0.165 0.27,0.3 0.6,0.3 0.33,0 0.6,-0.135 0.6,-0.3 0,-0.165 -0.27,-0.3 -0.6,-0.3 -0.33,0 -0.6,0.135 -0.6,0.3 m -6.602,0.9 c 0,0.165 0.271,0.3 0.601,0.3 0.33,0 0.6,-0.135 0.6,-0.3 0,-0.165 -0.27,-0.3 -0.6,-0.3 -0.33,0 -0.601,0.135 -0.601,0.3 m -3.45,0.601 c -0.106,0.17 0.146,0.3 0.582,0.3 0.422,0 0.768,-0.135 0.768,-0.3 0,-0.166 -0.262,-0.301 -0.583,-0.301 -0.32,0 -0.665,0.135 -0.767,0.301 m -6.452,0.9 c 0,0.165 0.346,0.3 0.768,0.3 0.435,0 0.687,-0.13 0.582,-0.3 -0.102,-0.165 -0.447,-0.3 -0.768,-0.3 -0.32,0 -0.582,0.135 -0.582,0.3 m -3.001,0.6 c 0,0.165 0.203,0.3 0.45,0.3 0.248,0 0.45,-0.135 0.45,-0.3 0,-0.165 -0.202,-0.3 -0.45,-0.3 -0.247,0 -0.45,0.135 -0.45,0.3 m -6.601,0.9 c 0,0.165 0.202,0.3 0.45,0.3 0.247,0 0.45,-0.135 0.45,-0.3 0,-0.165 -0.203,-0.3 -0.45,-0.3 -0.248,0 -0.45,0.135 -0.45,0.3 m -3.601,0.6 c 0,0.165 0.27,0.3 0.6,0.3 0.33,0 0.6,-0.135 0.6,-0.3 0,-0.165 -0.27,-0.3 -0.6,-0.3 -0.33,0 -0.6,0.135 -0.6,0.3 m -6.302,0.901 c 0,0.165 0.278,0.3 0.618,0.3 0.34,0 0.534,-0.135 0.432,-0.3 -0.102,-0.166 -0.38,-0.301 -0.618,-0.301 -0.237,0 -0.432,0.135 -0.432,0.301 m -3.601,0.6 c 0,0.165 0.262,0.3 0.583,0.3 0.32,0 0.666,-0.135 0.768,-0.3 0.105,-0.171 -0.147,-0.3 -0.583,-0.3 -0.422,0 -0.768,0.135 -0.768,0.3 m -2.1,18.304 c 0,0.165 0.337,0.3 0.75,0.3 0.412,0 0.75,-0.135 0.75,-0.3 0,-0.165 -0.338,-0.3 -0.75,-0.3 -0.413,0 -0.75,0.135 -0.75,0.3" /><path
     style="fill:#3362ba;fill-rule:evenodd;stroke:none;fill-opacity:1"
     inkscape:connector-curvature="0"
     id="path2"
     d="m 174.66799,-274.03693 v 59.9 h 1.501 c 0.825,0 1.5,0.135 1.5,0.3 0,0.165 0.54,0.3 1.2,0.3 0.661,0 1.201,0.121 1.201,0.27 0,0.148 0.945,0.364 2.1,0.48 1.156,0.116 2.101,0.332 2.101,0.481 0,0.148 0.48,0.269 1.068,0.269 0.587,0 0.993,0.122 0.901,0.271 -0.093,0.149 0.642,0.365 1.632,0.48 0.99,0.114 1.8,0.33 1.8,0.479 0,0.149 0.405,0.271 0.9,0.271 0.496,0 0.901,0.122 0.901,0.272 0,0.149 0.675,0.364 1.5,0.478 0.825,0.113 1.5,0.329 1.5,0.478 0,0.15 0.338,0.272 0.751,0.272 0.412,0 0.75,0.118 0.75,0.261 0,0.144 0.675,0.351 1.5,0.461 0.825,0.109 1.501,0.329 1.501,0.489 0,0.159 0.337,0.289 0.75,0.289 0.412,0 0.75,0.124 0.75,0.274 0,0.151 0.574,0.37 1.275,0.487 0.702,0.117 1.355,0.338 1.453,0.492 0.097,0.153 0.468,0.3 0.825,0.327 0.356,0.027 0.648,0.147 0.648,0.266 0,0.12 0.608,0.309 1.35,0.421 0.743,0.111 1.351,0.322 1.351,0.468 0,0.146 0.337,0.266 0.75,0.266 0.412,0 0.75,0.134 0.75,0.297 0,0.163 0.54,0.383 1.2,0.488 0.66,0.106 1.201,0.31 1.201,0.454 0,0.144 0.27,0.262 0.6,0.262 0.33,0 0.6,0.123 0.6,0.273 0,0.151 0.54,0.365 1.2,0.477 0.66,0.111 1.2,0.326 1.2,0.476 0,0.151 0.346,0.274 0.768,0.274 0.423,0 0.694,0.12 0.604,0.266 -0.091,0.147 0.441,0.358 1.182,0.469 0.741,0.111 1.347,0.329 1.347,0.484 0,0.155 0.203,0.281 0.451,0.281 0.247,0 0.45,0.12 0.45,0.267 0,0.147 0.472,0.355 1.05,0.464 0.578,0.108 1.05,0.293 1.05,0.41 0,0.219 1.127,0.753 2.326,1.103 0.371,0.109 0.675,0.323 0.675,0.477 0,0.154 0.346,0.28 0.768,0.28 0.435,0 0.687,0.13 0.582,0.3 -0.102,0.165 -0.076,0.311 0.058,0.323 0.887,0.084 1.446,0.288 1.537,0.561 0.058,0.174 0.297,0.316 0.531,0.316 0.234,0 0.425,0.12 0.425,0.267 0,0.147 0.473,0.355 1.05,0.464 0.578,0.108 1.05,0.328 1.05,0.488 0,0.16 0.507,0.525 1.126,0.811 0.619,0.285 1.328,0.736 1.575,1.002 0.248,0.266 0.754,0.579 1.125,0.697 0.372,0.117 0.676,0.339 0.676,0.493 0,0.154 0.202,0.28 0.45,0.28 0.247,0 0.45,0.135 0.45,0.3 0,0.165 0.196,0.3 0.436,0.3 0.24,0 0.774,0.337 1.187,0.75 0.413,0.413 0.872,0.75 1.02,0.75 0.241,0 0.764,0.402 2.533,1.943 0.289,0.252 0.678,0.458 0.865,0.458 0.187,0 0.769,0.455 1.294,1.012 0.525,0.557 1.243,1.104 1.596,1.216 0.352,0.111 0.724,0.466 0.826,0.788 0.117,0.368 0.456,0.585 0.916,0.585 h 0.73 v -57.154 -57.154 l -0.89,-0.911 c -0.49,-0.501 -1.025,-0.91 -1.188,-0.91 -0.254,0 -4.791,-4.446 -5.961,-5.841 -0.213,-0.253 -0.652,-0.461 -0.975,-0.461 -0.324,0 -0.589,-0.116 -0.589,-0.258 0,-0.443 -2.037,-2.443 -2.488,-2.443 -0.236,0 -0.676,-0.329 -0.978,-0.732 -0.303,-0.402 -0.853,-0.808 -1.223,-0.901 -0.369,-0.093 -0.758,-0.438 -0.862,-0.768 -0.105,-0.33 -0.414,-0.599 -0.686,-0.599 -0.272,0 -0.803,-0.359 -1.18,-0.797 -0.377,-0.439 -0.685,-0.631 -0.685,-0.429 0,0.247 -0.155,0.213 -0.471,-0.103 -0.26,-0.26 -0.656,-0.472 -0.88,-0.472 -0.225,0 -0.494,-0.27 -0.599,-0.6 -0.106,-0.332 -0.454,-0.6 -0.78,-0.6 -0.324,0 -0.667,-0.203 -0.762,-0.45 -0.095,-0.248 -0.428,-0.45 -0.741,-0.45 -0.312,0 -0.568,-0.125 -0.568,-0.277 0,-0.152 -0.405,-0.365 -0.9,-0.474 -0.495,-0.108 -0.9,-0.322 -0.9,-0.474 0,-0.151 -0.203,-0.276 -0.451,-0.276 -0.247,0 -0.45,-0.124 -0.45,-0.276 0,-0.152 -0.405,-0.365 -0.9,-0.474 -0.495,-0.109 -0.9,-0.322 -0.9,-0.474 0,-0.152 -0.203,-0.276 -0.45,-0.276 -0.248,0 -0.45,-0.12 -0.45,-0.267 0,-0.147 -0.473,-0.355 -1.051,-0.464 -0.577,-0.108 -1.05,-0.326 -1.05,-0.483 0,-0.158 -0.27,-0.287 -0.6,-0.287 -0.33,0 -0.6,-0.124 -0.6,-0.276 0,-0.152 -0.405,-0.365 -0.9,-0.474 -0.495,-0.108 -0.901,-0.322 -0.901,-0.474 0,-0.152 -0.337,-0.276 -0.75,-0.276 -0.412,0 -0.75,-0.129 -0.75,-0.286 0,-0.158 -0.473,-0.376 -1.05,-0.484 -0.578,-0.108 -1.05,-0.317 -1.05,-0.464 0,-0.146 -0.271,-0.266 -0.601,-0.266 -0.33,0 -0.6,-0.118 -0.6,-0.262 0,-0.144 -0.546,-0.349 -1.214,-0.456 -0.668,-0.107 -1.15,-0.298 -1.072,-0.425 0.078,-0.127 -0.212,-0.26 -0.644,-0.295 -0.433,-0.036 -0.875,-0.209 -0.983,-0.383 -0.108,-0.175 -0.656,-0.389 -1.218,-0.476 -0.561,-0.087 -1.065,-0.281 -1.12,-0.431 -0.055,-0.15 -0.359,-0.273 -0.676,-0.273 -0.316,0 -0.575,-0.127 -0.575,-0.282 0,-0.155 -0.607,-0.373 -1.35,-0.484 -0.743,-0.111 -1.35,-0.322 -1.35,-0.468 0,-0.147 -0.27,-0.266 -0.6,-0.266 -0.331,0 -0.601,-0.124 -0.601,-0.274 0,-0.151 -0.54,-0.365 -1.2,-0.477 -0.66,-0.111 -1.2,-0.326 -1.2,-0.476 0,-0.151 -0.338,-0.274 -0.75,-0.274 -0.413,0 -0.751,-0.133 -0.751,-0.296 0,-0.163 -0.54,-0.383 -1.2,-0.489 -0.66,-0.105 -1.2,-0.31 -1.2,-0.453 0,-0.144 -0.338,-0.262 -0.75,-0.262 -0.413,0 -0.751,-0.123 -0.751,-0.272 0,-0.15 -0.675,-0.365 -1.5,-0.478 -0.825,-0.114 -1.5,-0.329 -1.5,-0.479 0,-0.149 -0.405,-0.272 -0.901,-0.272 -0.495,0 -0.9,-0.121 -0.9,-0.27 0,-0.149 -0.81,-0.365 -1.8,-0.48 -0.99,-0.115 -1.801,-0.33 -1.801,-0.479 0,-0.149 -0.607,-0.271 -1.35,-0.271 -0.744,0 -1.35,-0.142 -1.35,-0.315 0,-0.184 -0.657,-0.305 -1.576,-0.289 -0.866,0.014 -1.946,-0.062 -2.4,-0.17 l -0.826,-0.196 v 59.9 m 69.018,119.315 c 0,0.165 -0.743,0.3 -1.651,0.3 -0.907,0 -1.65,0.135 -1.65,0.3 0,0.165 -0.72,0.3 -1.601,0.3 -0.88,0 -1.693,0.093 -1.807,0.207 -0.114,0.114 -0.879,0.171 -1.7,0.128 -0.914,-0.049 -1.494,0.046 -1.494,0.243 0,0.19 -0.674,0.322 -1.65,0.322 -0.908,0 -1.651,0.12 -1.651,0.267 0,0.147 -1.485,0.365 -3.3,0.483 -1.816,0.119 -3.301,0.336 -3.301,0.483 0,0.147 -0.743,0.267 -1.651,0.267 -0.907,0 -1.65,0.124 -1.65,0.275 0,0.151 -1.483,0.371 -3.295,0.489 -1.812,0.117 -3.222,0.331 -3.133,0.475 0.089,0.144 -0.656,0.262 -1.656,0.262 -1,0 -1.819,0.12 -1.819,0.267 0,0.147 -1.485,0.364 -3.3,0.483 -1.816,0.119 -3.301,0.336 -3.301,0.483 0,0.147 -0.743,0.267 -1.651,0.267 -0.907,0 -1.65,0.124 -1.65,0.275 0,0.151 -1.483,0.371 -3.295,0.488 -1.812,0.118 -3.222,0.332 -3.133,0.476 0.089,0.144 -0.581,0.262 -1.489,0.262 -0.907,0 -1.733,0.135 -1.835,0.3 -0.102,0.165 -0.786,0.3 -1.519,0.3 -0.863,0 -1.334,0.132 -1.337,0.375 -0.003,0.25 -0.101,0.225 -0.295,-0.075 -0.192,-0.296 -0.293,2.616 -0.296,8.516 l -0.004,8.966 1.415,-0.159 c 0.779,-0.088 1.465,-0.308 1.526,-0.489 0.06,-0.182 0.436,-0.33 0.835,-0.33 0.398,0 0.725,-0.135 0.725,-0.3 0,-0.165 0.26,-0.3 0.579,-0.3 0.318,0 0.781,-0.203 1.028,-0.45 0.248,-0.248 0.663,-0.45 0.922,-0.45 0.259,0 0.472,-0.129 0.472,-0.287 0,-0.157 0.472,-0.375 1.05,-0.483 0.577,-0.109 1.05,-0.289 1.05,-0.4 0,-0.112 0.292,-0.225 0.648,-0.252 0.357,-0.027 0.729,-0.18 0.828,-0.34 0.099,-0.16 0.55,-0.384 1.003,-0.498 0.452,-0.113 0.822,-0.326 0.822,-0.474 0,-0.147 0.27,-0.267 0.6,-0.267 0.33,0 0.6,-0.118 0.6,-0.262 0,-0.144 0.54,-0.348 1.2,-0.454 0.661,-0.105 1.201,-0.325 1.201,-0.488 0,-0.163 0.202,-0.297 0.45,-0.297 0.247,0 0.45,-0.128 0.45,-0.286 0,-0.158 0.473,-0.375 1.05,-0.484 0.578,-0.108 1.051,-0.317 1.051,-0.463 0,-0.147 0.345,-0.267 0.767,-0.267 0.423,0 0.692,-0.123 0.599,-0.273 -0.093,-0.151 0.372,-0.365 1.033,-0.477 0.661,-0.112 1.201,-0.326 1.201,-0.477 0,-0.15 0.203,-0.273 0.451,-0.273 0.247,0 0.45,-0.121 0.45,-0.268 0,-0.147 0.371,-0.357 0.825,-0.467 1.138,-0.275 2.475,-0.872 2.475,-1.106 0,-0.106 0.473,-0.282 1.051,-0.39 0.577,-0.108 1.05,-0.326 1.05,-0.484 0,-0.157 0.439,-0.288 0.975,-0.291 0.647,-0.003 0.841,-0.09 0.576,-0.257 -0.27,-0.172 -0.004,-0.317 0.825,-0.45 0.674,-0.107 1.225,-0.329 1.225,-0.492 0,-0.163 0.202,-0.296 0.45,-0.296 0.248,0 0.45,-0.127 0.45,-0.282 0,-0.155 0.608,-0.373 1.35,-0.484 0.743,-0.112 1.351,-0.323 1.351,-0.469 0,-0.146 0.202,-0.266 0.45,-0.266 0.247,0 0.45,-0.124 0.45,-0.276 0,-0.152 0.405,-0.365 0.9,-0.474 0.495,-0.109 0.9,-0.322 0.9,-0.474 0,-0.152 0.271,-0.276 0.601,-0.276 0.33,0 0.6,-0.134 0.6,-0.297 0,-0.163 0.54,-0.383 1.2,-0.488 0.66,-0.106 1.2,-0.31 1.2,-0.454 0,-0.144 0.203,-0.262 0.451,-0.262 0.247,0 0.45,-0.12 0.45,-0.266 0,-0.147 0.472,-0.356 1.05,-0.464 0.578,-0.108 1.05,-0.326 1.05,-0.483 0,-0.158 0.27,-0.287 0.6,-0.287 0.33,0 0.6,-0.123 0.6,-0.274 0,-0.15 0.541,-0.365 1.201,-0.476 0.66,-0.112 1.2,-0.326 1.2,-0.477 0,-0.15 0.203,-0.273 0.45,-0.273 0.248,0 0.45,-0.127 0.45,-0.282 0,-0.155 0.607,-0.373 1.348,-0.484 0.741,-0.111 1.273,-0.322 1.182,-0.468 -0.09,-0.147 0.113,-0.267 0.453,-0.267 0.34,0 0.618,-0.129 0.618,-0.286 0,-0.158 0.472,-0.375 1.048,-0.483 0.576,-0.108 0.973,-0.317 0.882,-0.464 -0.09,-0.147 0.147,-0.271 0.528,-0.277 0.789,-0.01 1.743,-0.639 1.743,-1.148 0,-0.191 -0.464,-0.342 -1.05,-0.342 -0.578,0 -1.05,0.135 -1.05,0.3" /></g></svg>