<?xml version="1.0" encoding="UTF-8" standalone="no"?>
<!DOCTYPE svg PUBLIC "-//W3C//DTD SVG 1.1//EN" "http://www.w3.org/Graphics/SVG/1.1/DTD/svg11.dtd">
<svg xmlns="http://www.w3.org/2000/svg" version="1.1" viewBox="0 0 1070 240">
<g stroke-width="2.00" fill="none" stroke-linecap="butt">
<path stroke="#808080" vector-effect="non-scaling-stroke" d="
  M 658.66 176.52
  L 662.81 170.96
  A 1.15 1.13 17.9 0 1 663.73 170.50
  L 672.92 170.50
  A 0.53 0.53 0.0 0 1 673.44 170.93
  L 674.35 175.69
  A 0.97 0.95 63.0 0 1 674.07 176.57
  Q 672.74 177.80 670.90 177.46
  A 0.52 0.52 0.0 0 0 670.29 177.90
  L 670.25 178.22
  A 0.47 0.47 0.0 0 0 670.72 178.75
  L 679.80 178.75
  A 0.76 0.75 24.3 0 0 680.29 178.57
  L 680.51 178.37
  A 0.39 0.39 0.0 0 0 680.39 177.71
  L 679.36 177.30
  A 1.20 1.19 -89.0 0 1 678.66 176.57
  Q 677.20 172.28 677.36 167.76
  Q 677.39 167.13 677.04 166.75
  A 1.30 1.27 23.7 0 1 676.70 165.91
  Q 676.57 160.17 675.40 154.49
  Q 674.98 152.46 673.71 154.10
  Q 664.90 165.47 656.42 175.95
  C 655.43 177.18 654.10 177.46 652.65 177.71
  A 0.51 0.51 0.0 0 0 652.24 178.33
  C 652.40 178.98 658.40 178.77 660.67 178.71
  C 660.93 178.70 661.35 178.41 661.41 178.21
  A 0.51 0.51 0.0 0 0 660.97 177.55
  L 659.04 177.37
  Q 658.08 177.28 658.66 176.52"
/>
<path stroke="#808080" vector-effect="non-scaling-stroke" d="
  M 431.73 157.73
  C 428.87 160.80 428.09 165.80 433.36 166.91
  Q 437.76 167.83 439.50 168.40
  A 1.33 1.30 82.9 0 1 440.24 168.99
  Q 441.39 170.88 440.35 172.57
  Q 435.85 179.84 427.40 176.52
  A 0.70 0.69 -76.8 0 1 426.96 175.80
  L 427.26 172.75
  A 0.22 0.22 0.0 0 0 427.04 172.50
  L 426.68 172.50
  A 0.83 0.82 10.4 0 0 425.89 173.04
  L 424.23 177.60
  A 0.61 0.61 0.0 0 0 424.62 178.39
  Q 436.15 181.99 443.29 172.77
  Q 446.12 169.11 443.34 165.70
  A 1.59 1.59 0.0 0 0 442.54 165.19
  C 439.87 164.52 431.03 164.35 433.60 159.56
  Q 436.63 153.92 443.19 155.60
  Q 445.99 156.32 444.30 159.00
  A 0.42 0.42 0.0 0 0 444.60 159.64
  L 445.22 159.74
  A 0.66 0.66 0.0 0 0 445.94 159.32
  L 447.52 155.32
  A 0.49 0.49 0.0 0 0 447.26 154.69
  Q 438.23 150.75 431.73 157.73"
/>
<path stroke="#808080" vector-effect="non-scaling-stroke" d="
  M 468.57 177.28
  A 0.60 0.60 0.0 0 1 468.20 176.32
  L 472.33 170.92
  A 1.07 1.07 0.0 0 1 473.18 170.50
  L 482.66 170.50
  A 0.68 0.68 0.0 0 1 483.34 171.16
  L 483.50 176.63
  A 0.64 0.63 -4.0 0 1 482.94 177.27
  L 479.97 177.63
  A 0.44 0.44 0.0 0 0 479.61 178.22
  C 479.93 179.04 486.57 178.78 489.51 178.72
  C 489.66 178.71 490.02 178.43 490.07 178.32
  A 0.51 0.51 0.0 0 0 489.77 177.65
  L 488.37 177.15
  A 0.92 0.92 0.0 0 1 487.77 176.40
  Q 486.87 169.36 486.17 162.28
  Q 485.74 157.97 484.84 154.18
  A 0.81 0.80 57.5 0 0 483.43 153.86
  L 465.65 176.35
  A 1.64 1.62 -79.2 0 1 464.87 176.89
  L 461.64 177.89
  A 0.39 0.39 0.0 0 0 461.74 178.65
  C 463.23 178.71 470.67 179.02 471.04 178.42
  A 0.49 0.49 0.0 0 0 470.71 177.68
  L 468.57 177.28"
/>
<path stroke="#808080" vector-effect="non-scaling-stroke" d="
  M 614.19 161.44
  C 611.56 164.57 609.91 169.74 611.44 173.73
  C 614.53 181.77 633.00 179.52 632.66 176.05
  A 0.59 0.58 -3.6 0 0 632.05 175.52
  C 630.95 175.55 630.35 176.26 629.39 176.53
  C 608.66 182.17 612.85 156.48 629.51 155.24
  Q 633.13 154.97 636.14 156.91
  A 0.64 0.64 0.0 0 1 636.39 157.66
  L 635.63 159.71
  Q 635.37 160.42 636.11 160.28
  L 636.51 160.21
  A 1.10 1.09 6.3 0 0 637.30 159.58
  L 639.18 155.34
  A 0.38 0.38 0.0 0 0 638.95 154.82
  Q 623.95 149.84 614.19 161.44"
/>
<path stroke="#808080" vector-effect="non-scaling-stroke" d="
  M 175.85 175.70
  A 1.99 1.98 -70.7 0 1 174.72 173.34
  Q 176.94 165.39 179.45 157.60
  C 180.40 154.64 184.04 155.88 184.20 154.31
  A 0.50 0.49 2.6 0 0 183.70 153.77
  L 174.08 153.83
  A 0.59 0.58 90.0 0 0 173.50 154.42
  L 173.50 154.69
  A 0.57 0.56 -84.5 0 0 173.95 155.25
  L 175.96 155.63
  A 0.53 0.53 0.0 0 1 176.36 156.33
  Q 171.62 169.40 171.01 173.24
  Q 170.39 177.12 173.58 178.42
  C 179.42 180.81 188.88 178.89 191.70 172.69
  Q 193.19 169.42 197.33 156.25
  A 0.87 0.86 -88.7 0 1 197.95 155.65
  C 198.66 155.46 201.60 155.24 201.44 154.25
  A 0.60 0.59 -4.5 0 0 200.85 153.75
  L 192.76 153.84
  A 0.58 0.57 52.1 0 0 192.62 154.97
  L 194.94 155.59
  A 0.45 0.45 0.0 0 1 195.26 156.15
  Q 193.13 163.45 190.47 170.64
  C 188.17 176.87 181.61 178.18 175.85 175.70"
/>
<path stroke="#808080" vector-effect="non-scaling-stroke" d="
  M 221.75 159.02
  A 0.48 0.47 41.0 0 1 222.63 158.96
  Q 227.37 168.73 232.63 178.07
  Q 233.81 180.16 235.75 179.05
  A 1.29 1.27 84.1 0 0 236.34 178.31
  Q 239.49 168.22 242.95 158.24
  Q 243.46 156.77 244.13 155.91
  A 1.45 1.39 9.8 0 1 244.86 155.42
  L 246.92 154.82
  A 0.47 0.47 0.0 0 0 246.79 153.89
  L 239.39 153.89
  Q 237.98 153.89 239.09 154.76
  Q 239.93 155.41 241.10 155.44
  A 0.48 0.48 0.0 0 1 241.54 156.07
  L 235.86 173.79
  A 0.53 0.53 0.0 0 1 234.88 173.87
  L 224.88 154.33
  A 0.94 0.92 78.2 0 0 224.13 153.83
  C 223.13 153.74 218.12 153.14 218.19 154.77
  A 0.51 0.51 0.0 0 0 218.73 155.25
  Q 219.95 155.18 220.36 156.01
  C 221.02 157.37 215.24 173.00 214.36 175.43
  C 213.72 177.21 212.51 177.84 210.71 177.52
  A 0.33 0.32 14.0 0 0 210.35 177.73
  L 210.23 178.06
  A 0.41 0.41 0.0 0 0 210.58 178.62
  C 211.74 178.71 218.36 179.08 218.96 178.45
  A 0.35 0.34 -59.9 0 0 218.81 177.88
  L 216.73 177.27
  A 0.72 0.72 0.0 0 1 216.25 176.36
  L 221.75 159.02"
/>
<path stroke="#808080" vector-effect="non-scaling-stroke" d="
  M 269.01 177.31
  A 0.82 0.82 0.0 0 1 268.37 176.24
  L 274.87 156.38
  A 1.18 1.16 89.6 0 1 275.59 155.64
  C 276.10 155.46 279.07 155.09 279.01 154.38
  A 0.63 0.62 86.6 0 0 278.37 153.80
  L 268.66 154.00
  Q 266.23 154.05 268.50 154.90
  L 270.66 155.71
  A 0.55 0.54 18.5 0 1 271.00 156.37
  Q 268.31 165.61 265.06 174.70
  C 264.24 177.00 262.92 177.89 260.53 177.69
  A 0.26 0.26 0.0 0 0 260.25 177.95
  L 260.25 178.21
  A 0.51 0.51 0.0 0 0 260.76 178.72
  C 262.04 178.74 271.29 179.05 271.58 178.32
  A 0.47 0.47 0.0 0 0 271.22 177.69
  L 269.01 177.31"
/>
<path stroke="#808080" vector-effect="non-scaling-stroke" d="
  M 306.70 173.28
  L 305.32 156.71
  A 1.14 1.13 83.6 0 1 306.29 155.49
  L 308.78 155.12
  A 0.57 0.56 85.4 0 0 309.26 154.55
  L 309.25 154.25
  A 0.51 0.51 0.0 0 0 308.74 153.75
  L 299.84 153.75
  A 0.57 0.56 4.1 0 0 299.28 154.23
  L 299.24 154.51
  A 0.33 0.33 0.0 0 0 299.42 154.86
  Q 301.13 155.68 301.25 156.75
  Q 302.47 167.61 303.52 178.64
  A 0.65 0.65 0.0 0 0 304.30 179.21
  C 306.20 178.80 319.45 160.06 321.63 157.21
  C 322.53 156.02 323.98 155.44 324.95 154.21
  Q 325.26 153.80 324.75 153.80
  L 317.27 153.87
  A 0.46 0.46 0.0 0 0 317.11 154.76
  L 319.42 155.64
  A 0.60 0.60 0.0 0 1 319.69 156.56
  L 307.30 173.44
  A 0.34 0.33 -29.4 0 1 306.70 173.28"
/>
<path stroke="#808080" vector-effect="non-scaling-stroke" d="
  M 349.71 164.46
  L 352.63 156.25
  A 0.76 0.75 -80.1 0 1 353.34 155.75
  L 361.25 155.75
  A 0.69 0.68 0.8 0 1 361.94 156.45
  L 361.88 159.03
  A 0.66 0.65 14.5 0 0 362.24 159.63
  L 362.50 159.76
  A 0.34 0.33 23.6 0 0 362.95 159.59
  L 365.18 154.31
  A 0.40 0.40 0.0 0 0 364.81 153.75
  L 346.84 153.75
  A 0.57 0.57 0.0 0 0 346.28 154.23
  L 346.24 154.52
  A 0.69 0.68 11.4 0 0 346.76 155.29
  L 348.18 155.63
  A 0.60 0.60 0.0 0 1 348.61 156.40
  Q 345.54 166.07 342.19 175.66
  C 341.76 176.91 341.05 177.30 339.99 177.90
  A 0.45 0.45 0.0 0 0 340.21 178.75
  L 356.97 178.74
  A 1.43 1.42 -79.0 0 0 358.29 177.84
  L 360.16 173.10
  A 0.39 0.39 0.0 0 0 360.01 172.64
  L 359.76 172.49
  A 0.52 0.52 0.0 0 0 359.04 172.67
  L 356.82 176.22
  A 0.99 0.99 0.0 0 1 355.98 176.69
  L 346.31 176.78
  A 0.49 0.49 0.0 0 1 345.84 176.14
  L 348.68 167.71
  A 0.94 0.93 -80.1 0 1 349.58 167.07
  L 356.08 167.15
  A 0.59 0.58 -81.3 0 1 356.63 167.91
  L 356.13 169.56
  A 0.54 0.53 -81.8 0 0 356.64 170.25
  L 356.97 170.25
  A 0.52 0.51 -80.1 0 0 357.47 169.89
  L 359.90 162.62
  A 0.43 0.42 25.5 0 0 359.72 162.12
  L 359.47 161.97
  A 0.53 0.53 0.0 0 0 358.72 162.18
  L 357.54 164.53
  A 0.87 0.86 13.5 0 1 356.77 165.00
  L 350.09 165.00
  A 0.40 0.40 0.0 0 1 349.71 164.46"
/>
<path stroke="#808080" vector-effect="non-scaling-stroke" d="
  M 388.83 177.51
  A 1.37 1.36 -76.6 0 1 387.77 175.78
  Q 390.58 166.38 393.49 158.51
  C 393.99 157.15 394.02 155.85 395.81 155.58
  C 408.19 153.68 402.14 166.14 393.00 165.20
  A 0.53 0.53 0.0 0 0 392.47 165.96
  L 398.10 178.10
  A 0.91 0.88 -7.7 0 0 398.79 178.61
  C 399.78 178.73 403.81 179.04 404.00 178.39
  A 0.55 0.54 18.8 0 0 403.66 177.71
  C 401.45 176.94 399.40 171.53 397.41 167.18
  A 0.50 0.49 65.7 0 1 397.65 166.52
  C 401.17 164.91 404.69 163.81 406.47 160.01
  C 408.79 155.05 403.34 153.42 399.75 153.67
  Q 393.93 154.08 388.12 153.76
  A 0.56 0.56 0.0 0 0 387.53 154.26
  L 387.49 154.65
  A 0.72 0.72 0.0 0 0 388.15 155.45
  L 390.03 155.61
  A 0.44 0.44 0.0 0 1 390.41 156.18
  L 383.71 176.46
  A 1.08 1.07 -85.9 0 1 382.87 177.19
  L 379.92 177.73
  A 0.39 0.39 0.0 0 0 379.63 178.27
  C 379.96 179.02 386.88 178.78 390.01 178.72
  C 390.14 178.72 390.52 178.44 390.56 178.35
  A 0.41 0.41 0.0 0 0 390.26 177.77
  L 388.83 177.51"
/>
<path stroke="#808080" vector-effect="non-scaling-stroke" d="
  M 518.18 176.11
  L 524.66 156.53
  A 1.26 1.26 0.0 0 1 525.44 155.75
  L 528.44 154.70
  A 0.53 0.52 34.5 0 0 528.25 153.68
  L 518.60 153.99
  Q 517.84 154.02 518.24 154.66
  Q 518.86 155.64 520.07 155.62
  A 0.74 0.74 0.0 0 1 520.79 156.57
  Q 517.91 166.12 514.24 176.10
  C 513.90 177.04 513.12 177.49 512.23 177.75
  A 0.32 0.32 0.0 0 0 512.01 178.10
  L 512.05 178.37
  A 0.45 0.44 85.5 0 0 512.49 178.75
  L 530.01 178.75
  A 0.83 0.82 11.2 0 0 530.77 178.25
  L 532.93 173.16
  A 0.45 0.44 -75.5 0 0 532.57 172.54
  L 532.29 172.51
  A 0.80 0.79 -72.8 0 0 531.54 172.91
  L 529.64 176.25
  A 1.01 0.98 14.2 0 1 528.77 176.75
  L 518.64 176.75
  A 0.49 0.49 0.0 0 1 518.18 176.11"
/>
<path stroke="#808080" vector-effect="non-scaling-stroke" d="
  M 719.58 164.99
  A 0.34 0.34 0.0 0 1 719.51 164.32
  Q 725.70 163.05 726.67 156.91
  A 1.27 1.24 -60.0 0 0 726.42 155.93
  C 723.87 152.66 715.29 153.68 709.29 153.78
  A 0.93 0.91 13.0 0 0 708.49 154.27
  L 708.35 154.55
  A 0.52 0.52 0.0 0 0 708.70 155.30
  L 710.25 155.63
  A 0.62 0.61 -75.5 0 1 710.70 156.41
  Q 707.83 166.03 704.44 175.50
  C 703.97 176.79 703.18 177.48 701.98 177.95
  A 0.38 0.38 0.0 0 0 702.11 178.68
  C 709.92 178.90 717.58 180.02 722.81 172.66
  C 723.97 171.02 723.87 169.22 723.74 167.30
  A 1.35 1.33 -71.7 0 0 723.29 166.39
  Q 721.75 165.00 719.58 164.99"
/>
<path stroke="#808080" vector-effect="non-scaling-stroke" d="
  M 753.44 156.43
  Q 750.66 165.24 747.75 174.00
  Q 746.55 177.63 743.51 177.55
  A 1.05 1.04 -65.7 0 0 742.81 177.82
  L 742.59 178.02
  A 0.42 0.42 0.0 0 0 742.87 178.74
  C 744.37 178.75 753.66 179.10 754.09 178.18
  Q 754.33 177.69 753.79 177.77
  Q 751.93 178.03 751.28 176.87
  C 750.36 175.23 756.47 158.85 757.44 156.11
  A 0.97 0.95 2.2 0 1 758.10 155.51
  C 759.00 155.29 761.42 155.53 761.30 154.26
  A 0.56 0.55 -2.2 0 0 760.74 153.75
  L 751.38 153.75
  A 0.63 0.62 0.0 0 0 750.75 154.37
  L 750.74 154.76
  A 0.54 0.54 0.0 0 0 751.18 155.29
  L 752.96 155.63
  A 0.63 0.62 -76.4 0 1 753.44 156.43"
/>
<path stroke="#808080" vector-effect="non-scaling-stroke" d="
  M 805.47 156.15
  L 799.89 173.80
  A 0.54 0.54 0.0 0 1 798.89 173.88
  L 788.79 154.16
  A 0.81 0.81 0.0 0 0 788.05 153.71
  L 782.45 153.85
  A 0.64 0.63 52.9 0 0 782.28 155.09
  L 784.40 155.75
  A 0.55 0.54 -72.7 0 1 784.76 156.44
  L 778.25 175.99
  A 1.91 1.89 2.9 0 1 776.84 177.25
  L 774.41 177.78
  A 0.48 0.48 0.0 0 0 774.50 178.72
  C 775.60 178.74 782.49 179.03 782.81 178.34
  A 0.36 0.35 12.1 0 0 782.48 177.84
  C 780.35 177.83 780.04 176.77 780.64 174.94
  Q 783.28 166.90 785.81 158.92
  A 0.41 0.41 0.0 0 1 786.57 158.87
  C 788.50 162.81 795.43 178.60 799.19 179.46
  A 0.77 0.77 0.0 0 0 800.09 178.95
  Q 803.53 168.33 807.01 157.98
  Q 808.00 155.02 810.81 154.88
  A 0.38 0.37 75.3 0 0 811.12 154.34
  C 810.60 153.26 804.46 154.04 803.24 154.18
  Q 801.44 154.40 803.17 154.93
  L 805.15 155.54
  A 0.49 0.49 0.0 0 1 805.47 156.15"
/>
<path stroke="#808080" vector-effect="non-scaling-stroke" d="
  M 832.41 176.10
  L 835.15 167.60
  A 0.93 0.91 -79.3 0 1 836.07 166.96
  L 842.59 167.30
  A 0.45 0.45 0.0 0 1 843.01 167.84
  L 842.60 169.78
  A 0.40 0.39 -89.5 0 0 843.06 170.25
  L 843.38 170.19
  A 0.80 0.80 0.0 0 0 843.98 169.67
  L 846.40 162.54
  A 0.33 0.33 0.0 0 0 846.26 162.15
  L 845.98 161.98
  A 0.52 0.51 -60.0 0 0 845.25 162.18
  L 843.86 164.76
  A 1.05 1.04 15.3 0 1 842.89 165.31
  L 836.76 165.03
  A 0.58 0.58 0.0 0 1 836.24 164.26
  L 839.13 156.18
  A 0.66 0.65 -79.6 0 1 839.74 155.75
  L 847.73 155.75
  A 0.66 0.66 0.0 0 1 848.37 156.24
  C 848.55 156.89 848.26 159.38 848.65 159.57
  A 0.64 0.64 0.0 0 0 849.52 159.24
  L 851.59 154.46
  A 0.51 0.51 0.0 0 0 851.12 153.75
  L 833.25 153.75
  A 0.50 0.50 0.0 0 0 832.75 154.25
  L 832.75 154.53
  A 0.48 0.48 0.0 0 0 833.02 154.96
  L 834.65 155.78
  A 0.69 0.69 0.0 0 1 835.00 156.60
  Q 831.98 166.30 828.60 175.87
  C 828.22 176.94 827.44 177.36 826.55 177.89
  A 0.46 0.46 0.0 0 0 826.79 178.74
  L 843.66 178.75
  A 1.01 0.99 -78.3 0 0 844.60 178.12
  L 846.56 173.38
  A 0.65 0.64 -68.8 0 0 846.20 172.54
  C 845.29 172.19 843.63 175.73 843.05 176.38
  A 1.07 1.07 0.0 0 1 842.24 176.75
  L 832.88 176.75
  A 0.50 0.49 -81.0 0 1 832.41 176.10"
/>
<path stroke="#808080" vector-effect="non-scaling-stroke" d="
  M 882.20 156.41
  L 875.73 176.21
  A 1.19 1.17 1.7 0 1 874.89 176.99
  L 871.74 177.76
  A 0.30 0.29 87.1 0 0 871.53 178.00
  L 871.48 178.32
  A 0.38 0.37 -86.0 0 0 871.85 178.75
  L 881.42 178.75
  A 1.12 1.10 -64.6 0 0 882.13 178.49
  L 882.45 178.21
  Q 883.00 177.72 882.27 177.65
  L 880.62 177.47
  A 1.27 1.27 0.0 0 1 879.55 175.81
  L 885.86 156.40
  A 0.95 0.94 8.9 0 1 886.76 155.75
  L 892.16 155.75
  A 0.59 0.58 -86.9 0 1 892.74 156.40
  L 892.43 159.09
  A 0.58 0.56 8.0 0 0 892.91 159.71
  L 893.16 159.75
  A 0.69 0.69 0.0 0 0 893.92 159.28
  L 895.54 154.36
  A 0.47 0.46 -80.9 0 0 895.10 153.75
  L 874.56 153.75
  A 0.70 0.69 -79.6 0 0 873.91 154.20
  C 873.58 155.12 871.86 159.19 872.74 159.80
  A 0.54 0.54 0.0 0 0 873.53 159.61
  L 875.30 156.31
  A 1.09 1.09 0.0 0 1 876.25 155.75
  L 881.72 155.75
  A 0.51 0.50 -81.1 0 1 882.20 156.41"
/>
<path stroke="#808080" vector-effect="non-scaling-stroke" d="
  M 672.19 159.73
  A 0.31 0.31 0.0 0 0 671.64 159.60
  L 664.72 168.33
  A 0.31 0.31 0.0 0 0 664.98 168.83
  L 673.41 168.41
  A 0.31 0.31 0.0 0 0 673.70 168.04
  L 672.19 159.73"
/>
<path stroke="#808080" vector-effect="non-scaling-stroke" d="
  M 481.78 159.89
  A 0.42 0.42 0.0 0 0 481.03 159.70
  L 474.29 168.21
  A 0.42 0.42 0.0 0 0 474.65 168.89
  L 482.71 168.35
  A 0.42 0.42 0.0 0 0 483.10 167.86
  L 481.78 159.89"
/>
<path stroke="#808080" vector-effect="non-scaling-stroke" d="
  M 714.73 156.16
  L 712.26 163.17
  A 0.52 0.52 0.0 0 0 712.65 163.85
  Q 719.90 165.26 722.57 158.71
  A 2.09 2.09 0.0 0 0 720.75 155.83
  L 715.66 155.54
  A 0.93 0.93 0.0 0 0 714.73 156.16"
/>
<path stroke="#808080" vector-effect="non-scaling-stroke" d="
  M 711.36 166.33
  L 708.06 176.17
  A 0.45 0.45 0.0 0 0 708.39 176.76
  Q 716.16 178.41 719.30 171.57
  Q 720.31 169.36 719.11 166.96
  A 1.15 1.15 0.0 0 0 718.21 166.33
  L 712.44 165.65
  A 1.01 1.01 0.0 0 0 711.36 166.33"
/>
</g>
<g fill="#ffffff">
<path d="
  M 119.37 119.45
  A 0.80 0.79 12.8 0 1 120.08 120.57
  Q 118.83 123.36 116.62 125.39
  A 1.23 1.17 -65.3 0 1 115.81 125.71
  Q 76.87 126.03 62.25 125.52
  C 45.40 124.92 16.55 120.32 16.59 97.95
  Q 16.60 93.71 19.13 86.84
  Q 25.50 69.51 32.69 52.55
  A 0.90 0.90 0.0 0 1 33.52 52.00
  L 61.63 52.01
  A 0.80 0.80 0.0 0 1 62.37 53.13
  Q 54.32 71.76 47.66 90.83
  Q 45.36 97.42 45.68 100.97
  C 47.15 117.43 73.67 119.33 85.72 119.25
  Q 102.26 119.13 119.37 119.45
  Z"
/>
<path d="
  M 169.27 118.66
  A 0.42 0.42 0.0 0 0 169.66 119.19
  L 177.51 119.41
  A 0.64 0.63 -77.1 0 1 178.07 120.31
  Q 176.73 123.24 174.35 125.44
  A 1.17 1.15 23.6 0 1 173.57 125.74
  Q 158.28 125.76 143.01 125.75
  C 138.55 125.74 138.80 121.77 139.68 118.50
  Q 147.73 88.53 159.02 59.66
  A 1.00 1.00 0.0 0 0 158.12 58.29
  L 152.48 58.13
  A 1.22 1.22 0.0 0 1 151.60 56.10
  L 154.86 52.44
  A 1.31 1.29 -68.9 0 1 155.83 52.00
  Q 170.79 52.02 185.73 51.98
  C 188.81 51.97 191.39 53.11 189.98 56.71
  Q 178.03 87.14 169.27 118.66
  Z"
/>
<path d="
  M 248.85 59.64
  Q 236.20 91.65 227.67 125.01
  A 1.02 1.02 0.0 0 1 226.68 125.77
  L 199.47 125.71
  A 1.31 1.31 0.0 0 1 198.21 124.08
  Q 207.16 88.86 221.03 54.56
  C 221.71 52.88 224.40 52.02 226.33 52.01
  Q 249.85 51.98 273.64 52.01
  A 0.95 0.94 25.5 0 1 274.24 53.69
  L 269.02 57.90
  A 1.58 1.55 25.1 0 1 268.03 58.25
  L 250.89 58.25
  A 2.20 2.19 -79.2 0 0 248.85 59.64
  Z"
/>
<path d="
  M 314.18 52.59
  A 0.94 0.93 10.5 0 1 315.05 52.00
  L 343.03 52.00
  A 0.85 0.85 0.0 0 1 343.82 53.17
  Q 330.25 86.95 320.83 122.02
  Q 319.91 125.45 315.43 125.51
  Q 291.97 125.78 268.36 125.74
  A 2.53 2.51 -20.6 0 1 266.51 124.91
  C 265.89 124.21 269.80 120.33 270.45 119.75
  A 1.48 1.45 -65.4 0 1 271.37 119.40
  L 290.03 119.19
  A 1.41 1.38 -65.2 0 0 290.90 118.86
  C 292.71 117.31 292.88 115.49 293.49 113.33
  Q 302.13 82.69 314.18 52.59
  Z"
/>
<path d="
  M 363.23 52.79
  A 1.27 1.26 11.1 0 1 364.40 52.01
  Q 403.95 51.99 444.00 52.01
  C 451.16 52.01 458.84 55.27 460.76 62.69
  Q 461.63 66.03 460.22 72.65
  C 455.77 93.47 447.15 125.37 419.94 125.54
  Q 380.53 125.80 340.77 125.72
  A 1.16 1.15 7.2 0 1 339.65 124.28
  Q 349.06 87.74 363.23 52.79
  Z
  M 390.29 59.82
  Q 378.91 88.88 370.77 119.00
  A 0.29 0.29 0.0 0 0 371.05 119.37
  Q 384.47 119.18 397.88 119.25
  C 406.93 119.30 413.86 118.42 417.72 110.24
  Q 426.73 91.19 432.06 67.43
  C 433.57 60.68 430.07 58.29 423.63 58.27
  Q 407.41 58.22 391.17 58.27
  A 0.66 0.65 11.6 0 0 390.57 58.66
  C 390.44 58.93 390.38 59.60 390.29 59.82
  Z"
/>
<path d="
  M 531.25 81.51
  C 542.32 81.54 549.48 58.22 541.35 58.25
  Q 528.67 58.30 515.96 58.18
  A 0.80 0.80 0.0 0 0 515.22 58.68
  Q 502.33 91.20 493.56 125.08
  A 0.91 0.90 6.9 0 1 492.68 125.76
  L 465.29 125.71
  A 1.21 1.20 7.1 0 1 464.12 124.21
  Q 473.54 87.47 487.87 52.37
  A 0.59 0.58 11.6 0 1 488.41 52.01
  Q 523.88 51.99 559.50 51.97
  C 580.80 51.95 574.87 72.54 566.36 82.20
  A 0.36 0.36 0.0 0 0 566.49 82.77
  C 574.48 86.18 578.81 90.35 576.85 99.77
  C 574.76 109.81 569.43 121.48 559.14 124.65
  Q 555.67 125.72 546.14 125.73
  Q 532.64 125.75 519.15 125.79
  C 515.40 125.80 512.08 124.53 511.61 120.63
  A 1.23 1.23 0.0 0 1 512.84 119.26
  C 524.21 119.42 538.77 120.42 544.22 108.24
  C 547.75 100.34 551.77 88.61 538.49 88.14
  Q 527.22 87.74 515.93 87.72
  A 0.95 0.95 0.0 0 1 515.10 87.23
  L 513.02 83.33
  A 1.23 1.23 0.0 0 1 514.10 81.52
  Q 522.71 81.48 531.25 81.51
  Z"
/>
<path d="
  M 628.91 76.75
  L 679.97 76.75
  A 0.84 0.84 0.0 0 1 680.71 77.98
  C 679.21 80.82 677.14 83.00 673.61 83.00
  Q 650.29 83.00 626.90 83.00
  A 1.04 1.04 0.0 0 0 625.92 83.70
  C 623.44 90.95 619.21 101.35 619.91 108.05
  C 620.99 118.32 629.94 119.25 639.05 119.24
  Q 653.21 119.24 667.74 119.28
  Q 670.34 119.28 668.77 121.36
  L 665.78 125.32
  A 1.08 1.07 18.2 0 1 664.92 125.75
  Q 642.32 125.76 619.75 125.82
  C 598.26 125.87 585.07 117.00 592.92 93.65
  Q 599.91 72.82 607.82 52.34
  A 0.53 0.52 -79.4 0 1 608.31 52.00
  L 692.85 52.00
  A 0.75 0.75 0.0 0 1 693.37 53.29
  L 688.61 57.94
  A 1.11 1.10 22.7 0 1 687.84 58.25
  L 635.87 58.25
  A 0.83 0.83 0.0 0 0 635.09 58.79
  L 628.50 76.16
  A 0.44 0.44 0.0 0 0 628.91 76.75
  Z"
/>
<path d="
  M 790.97 118.52
  C 793.39 119.84 797.00 119.10 799.77 119.48
  A 0.81 0.80 21.5 0 1 800.32 120.74
  C 798.34 123.55 796.20 125.68 792.46 125.74
  Q 773.29 126.06 767.77 125.51
  C 762.57 125.00 759.78 121.69 757.75 116.76
  Q 751.72 102.13 745.74 87.49
  C 744.34 84.07 745.33 81.36 749.30 81.50
  C 754.94 81.71 768.08 82.67 772.78 80.10
  C 778.74 76.84 782.11 69.84 782.25 63.24
  C 782.33 59.55 779.88 58.26 776.42 58.25
  Q 760.48 58.24 743.36 58.26
  A 0.88 0.86 -79.1 0 0 742.55 58.82
  Q 729.86 91.08 721.18 124.66
  A 1.45 1.44 -82.8 0 1 719.78 125.75
  L 692.59 125.75
  A 1.14 1.13 7.3 0 1 691.49 124.33
  Q 701.02 87.65 715.21 52.51
  A 0.79 0.79 0.0 0 1 715.94 52.02
  Q 754.18 51.97 792.59 52.02
  C 804.86 52.04 814.95 53.99 811.01 69.47
  Q 807.65 82.63 796.01 86.79
  C 791.17 88.52 784.06 87.70 778.59 88.11
  A 0.50 0.50 0.0 0 0 778.17 88.80
  L 790.23 117.71
  A 1.59 1.58 2.8 0 0 790.97 118.52
  Z"
/>
<path d="
  M 836.19 57.69
  C 837.75 54.03 840.77 52.10 844.75 52.09
  Q 889.01 51.99 932.99 52.01
  A 0.87 0.87 0.0 0 1 933.60 53.50
  L 929.19 57.82
  A 1.51 1.49 -66.9 0 1 928.14 58.25
  Q 898.43 58.25 868.75 58.25
  C 867.62 58.25 866.38 59.56 865.92 60.70
  Q 854.90 88.00 847.45 116.58
  A 1.05 1.05 0.0 0 0 848.05 117.81
  Q 849.59 118.47 851.50 118.67
  Q 865.88 120.12 881.69 118.42
  C 884.13 118.15 885.30 117.43 886.32 115.08
  Q 890.46 105.56 893.81 95.62
  A 1.42 1.41 9.4 0 0 892.47 93.76
  L 882.73 93.75
  A 1.04 1.03 -16.7 0 1 881.90 93.31
  L 879.05 89.25
  A 1.11 1.11 0.0 0 1 879.96 87.50
  L 927.69 87.51
  A 1.15 1.11 -5.5 0 1 928.81 88.40
  Q 928.83 88.51 928.62 89.16
  Q 924.35 102.53 918.97 115.48
  C 917.24 119.64 913.74 123.02 909.51 123.50
  C 880.73 126.75 850.80 126.07 823.06 123.42
  C 818.54 122.99 815.86 119.43 816.96 114.95
  Q 824.03 86.15 836.19 57.69
  Z"
/>
<path d="
  M 978.64 76.75
  L 1016.85 76.75
  A 1.15 1.15 0.0 0 1 1017.58 78.78
  L 1012.84 82.71
  A 1.26 1.24 -64.5 0 1 1012.04 83.00
  L 976.24 83.00
  A 0.64 0.63 -80.3 0 0 975.64 83.43
  Q 968.75 103.93 963.31 124.86
  A 1.20 1.20 0.0 0 1 962.15 125.76
  L 935.23 125.73
  A 1.44 1.44 0.0 0 1 933.84 123.93
  Q 943.26 87.47 957.40 52.58
  A 0.94 0.93 -78.6 0 1 958.26 52.00
  L 985.62 52.00
  A 1.20 1.20 0.0 0 1 986.74 53.63
  L 978.19 76.10
  A 0.48 0.48 0.0 0 0 978.64 76.75
  Z"
/>
<path d="
  M 1029.86 52.29
  A 0.47 0.46 -78.6 0 1 1030.29 52.00
  L 1058.05 52.00
  A 0.69 0.69 0.0 0 1 1058.73 52.57
  Q 1058.98 53.95 1058.33 55.57
  Q 1044.77 89.58 1035.50 125.07
  A 0.90 0.89 7.0 0 1 1034.63 125.74
  C 1025.68 125.75 1015.52 126.55 1006.56 125.42
  A 0.69 0.69 0.0 0 1 1005.98 124.56
  Q 1015.42 87.60 1029.86 52.29
  Z"
/>
<path d="
  M 271.25 61.27
  C 275.81 61.31 279.20 63.06 280.05 67.65
  Q 283.95 88.84 288.07 109.99
  Q 288.64 112.92 288.62 114.86
  A 0.53 0.53 0.0 0 1 288.11 115.38
  Q 278.36 115.73 268.68 115.61
  C 263.75 115.56 260.81 113.90 259.96 109.01
  Q 255.94 85.76 252.05 62.92
  A 1.40 1.39 -5.3 0 1 253.41 61.29
  Q 262.40 61.20 271.25 61.27
  Z"
/>
<path d="
  M 945.70 154.34
  L 944.60 153.88
  A 0.63 0.63 0.0 0 0 943.76 154.26
  L 932.70 187.29
  A 1.06 1.04 9.2 0 1 931.70 188.00
  L 11.52 188.00
  A 0.52 0.52 0.0 0 1 11.03 187.32
  L 22.26 152.77
  A 0.76 0.75 9.0 0 1 22.98 152.25
  L 126.28 152.25
  A 0.38 0.37 9.0 0 1 126.64 152.74
  L 119.54 174.17
  A 0.77 0.76 -72.8 0 0 120.05 175.15
  L 121.36 175.53
  A 0.66 0.65 17.4 0 0 122.17 175.11
  L 132.87 143.02
  A 0.75 0.74 -80.6 0 1 133.57 142.51
  C 441.31 142.50 748.81 142.52 1056.81 142.50
  A 0.36 0.35 -80.5 0 1 1057.14 142.97
  L 1045.43 178.08
  A 0.62 0.62 0.0 0 1 1044.84 178.51
  L 939.20 178.50
  A 0.40 0.39 -80.8 0 1 938.83 177.98
  L 946.25 155.54
  A 0.96 0.96 0.0 0 0 945.70 154.34
  Z
  M 658.66 176.52
  L 662.81 170.96
  A 1.15 1.13 17.9 0 1 663.73 170.50
  L 672.92 170.50
  A 0.53 0.53 0.0 0 1 673.44 170.93
  L 674.35 175.69
  A 0.97 0.95 63.0 0 1 674.07 176.57
  Q 672.74 177.80 670.90 177.46
  A 0.52 0.52 0.0 0 0 670.29 177.90
  L 670.25 178.22
  A 0.47 0.47 0.0 0 0 670.72 178.75
  L 679.80 178.75
  A 0.76 0.75 24.3 0 0 680.29 178.57
  L 680.51 178.37
  A 0.39 0.39 0.0 0 0 680.39 177.71
  L 679.36 177.30
  A 1.20 1.19 -89.0 0 1 678.66 176.57
  Q 677.20 172.28 677.36 167.76
  Q 677.39 167.13 677.04 166.75
  A 1.30 1.27 23.7 0 1 676.70 165.91
  Q 676.57 160.17 675.40 154.49
  Q 674.98 152.46 673.71 154.10
  Q 664.90 165.47 656.42 175.95
  C 655.43 177.18 654.10 177.46 652.65 177.71
  A 0.51 0.51 0.0 0 0 652.24 178.33
  C 652.40 178.98 658.40 178.77 660.67 178.71
  C 660.93 178.70 661.35 178.41 661.41 178.21
  A 0.51 0.51 0.0 0 0 660.97 177.55
  L 659.04 177.37
  Q 658.08 177.28 658.66 176.52
  Z
  M 431.73 157.73
  C 428.87 160.80 428.09 165.80 433.36 166.91
  Q 437.76 167.83 439.50 168.40
  A 1.33 1.30 82.9 0 1 440.24 168.99
  Q 441.39 170.88 440.35 172.57
  Q 435.85 179.84 427.40 176.52
  A 0.70 0.69 -76.8 0 1 426.96 175.80
  L 427.26 172.75
  A 0.22 0.22 0.0 0 0 427.04 172.50
  L 426.68 172.50
  A 0.83 0.82 10.4 0 0 425.89 173.04
  L 424.23 177.60
  A 0.61 0.61 0.0 0 0 424.62 178.39
  Q 436.15 181.99 443.29 172.77
  Q 446.12 169.11 443.34 165.70
  A 1.59 1.59 0.0 0 0 442.54 165.19
  C 439.87 164.52 431.03 164.35 433.60 159.56
  Q 436.63 153.92 443.19 155.60
  Q 445.99 156.32 444.30 159.00
  A 0.42 0.42 0.0 0 0 444.60 159.64
  L 445.22 159.74
  A 0.66 0.66 0.0 0 0 445.94 159.32
  L 447.52 155.32
  A 0.49 0.49 0.0 0 0 447.26 154.69
  Q 438.23 150.75 431.73 157.73
  Z
  M 468.57 177.28
  A 0.60 0.60 0.0 0 1 468.20 176.32
  L 472.33 170.92
  A 1.07 1.07 0.0 0 1 473.18 170.50
  L 482.66 170.50
  A 0.68 0.68 0.0 0 1 483.34 171.16
  L 483.50 176.63
  A 0.64 0.63 -4.0 0 1 482.94 177.27
  L 479.97 177.63
  A 0.44 0.44 0.0 0 0 479.61 178.22
  C 479.93 179.04 486.57 178.78 489.51 178.72
  C 489.66 178.71 490.02 178.43 490.07 178.32
  A 0.51 0.51 0.0 0 0 489.77 177.65
  L 488.37 177.15
  A 0.92 0.92 0.0 0 1 487.77 176.40
  Q 486.87 169.36 486.17 162.28
  Q 485.74 157.97 484.84 154.18
  A 0.81 0.80 57.5 0 0 483.43 153.86
  L 465.65 176.35
  A 1.64 1.62 -79.2 0 1 464.87 176.89
  L 461.64 177.89
  A 0.39 0.39 0.0 0 0 461.74 178.65
  C 463.23 178.71 470.67 179.02 471.04 178.42
  A 0.49 0.49 0.0 0 0 470.71 177.68
  L 468.57 177.28
  Z
  M 614.19 161.44
  C 611.56 164.57 609.91 169.74 611.44 173.73
  C 614.53 181.77 633.00 179.52 632.66 176.05
  A 0.59 0.58 -3.6 0 0 632.05 175.52
  C 630.95 175.55 630.35 176.26 629.39 176.53
  C 608.66 182.17 612.85 156.48 629.51 155.24
  Q 633.13 154.97 636.14 156.91
  A 0.64 0.64 0.0 0 1 636.39 157.66
  L 635.63 159.71
  Q 635.37 160.42 636.11 160.28
  L 636.51 160.21
  A 1.10 1.09 6.3 0 0 637.30 159.58
  L 639.18 155.34
  A 0.38 0.38 0.0 0 0 638.95 154.82
  Q 623.95 149.84 614.19 161.44
  Z
  M 175.85 175.70
  A 1.99 1.98 -70.7 0 1 174.72 173.34
  Q 176.94 165.39 179.45 157.60
  C 180.40 154.64 184.04 155.88 184.20 154.31
  A 0.50 0.49 2.6 0 0 183.70 153.77
  L 174.08 153.83
  A 0.59 0.58 90.0 0 0 173.50 154.42
  L 173.50 154.69
  A 0.57 0.56 -84.5 0 0 173.95 155.25
  L 175.96 155.63
  A 0.53 0.53 0.0 0 1 176.36 156.33
  Q 171.62 169.40 171.01 173.24
  Q 170.39 177.12 173.58 178.42
  C 179.42 180.81 188.88 178.89 191.70 172.69
  Q 193.19 169.42 197.33 156.25
  A 0.87 0.86 -88.7 0 1 197.95 155.65
  C 198.66 155.46 201.60 155.24 201.44 154.25
  A 0.60 0.59 -4.5 0 0 200.85 153.75
  L 192.76 153.84
  A 0.58 0.57 52.1 0 0 192.62 154.97
  L 194.94 155.59
  A 0.45 0.45 0.0 0 1 195.26 156.15
  Q 193.13 163.45 190.47 170.64
  C 188.17 176.87 181.61 178.18 175.85 175.70
  Z
  M 221.75 159.02
  A 0.48 0.47 41.0 0 1 222.63 158.96
  Q 227.37 168.73 232.63 178.07
  Q 233.81 180.16 235.75 179.05
  A 1.29 1.27 84.1 0 0 236.34 178.31
  Q 239.49 168.22 242.95 158.24
  Q 243.46 156.77 244.13 155.91
  A 1.45 1.39 9.8 0 1 244.86 155.42
  L 246.92 154.82
  A 0.47 0.47 0.0 0 0 246.79 153.89
  L 239.39 153.89
  Q 237.98 153.89 239.09 154.76
  Q 239.93 155.41 241.10 155.44
  A 0.48 0.48 0.0 0 1 241.54 156.07
  L 235.86 173.79
  A 0.53 0.53 0.0 0 1 234.88 173.87
  L 224.88 154.33
  A 0.94 0.92 78.2 0 0 224.13 153.83
  C 223.13 153.74 218.12 153.14 218.19 154.77
  A 0.51 0.51 0.0 0 0 218.73 155.25
  Q 219.95 155.18 220.36 156.01
  C 221.02 157.37 215.24 173.00 214.36 175.43
  C 213.72 177.21 212.51 177.84 210.71 177.52
  A 0.33 0.32 14.0 0 0 210.35 177.73
  L 210.23 178.06
  A 0.41 0.41 0.0 0 0 210.58 178.62
  C 211.74 178.71 218.36 179.08 218.96 178.45
  A 0.35 0.34 -59.9 0 0 218.81 177.88
  L 216.73 177.27
  A 0.72 0.72 0.0 0 1 216.25 176.36
  L 221.75 159.02
  Z
  M 269.01 177.31
  A 0.82 0.82 0.0 0 1 268.37 176.24
  L 274.87 156.38
  A 1.18 1.16 89.6 0 1 275.59 155.64
  C 276.10 155.46 279.07 155.09 279.01 154.38
  A 0.63 0.62 86.6 0 0 278.37 153.80
  L 268.66 154.00
  Q 266.23 154.05 268.50 154.90
  L 270.66 155.71
  A 0.55 0.54 18.5 0 1 271.00 156.37
  Q 268.31 165.61 265.06 174.70
  C 264.24 177.00 262.92 177.89 260.53 177.69
  A 0.26 0.26 0.0 0 0 260.25 177.95
  L 260.25 178.21
  A 0.51 0.51 0.0 0 0 260.76 178.72
  C 262.04 178.74 271.29 179.05 271.58 178.32
  A 0.47 0.47 0.0 0 0 271.22 177.69
  L 269.01 177.31
  Z
  M 306.70 173.28
  L 305.32 156.71
  A 1.14 1.13 83.6 0 1 306.29 155.49
  L 308.78 155.12
  A 0.57 0.56 85.4 0 0 309.26 154.55
  L 309.25 154.25
  A 0.51 0.51 0.0 0 0 308.74 153.75
  L 299.84 153.75
  A 0.57 0.56 4.1 0 0 299.28 154.23
  L 299.24 154.51
  A 0.33 0.33 0.0 0 0 299.42 154.86
  Q 301.13 155.68 301.25 156.75
  Q 302.47 167.61 303.52 178.64
  A 0.65 0.65 0.0 0 0 304.30 179.21
  C 306.20 178.80 319.45 160.06 321.63 157.21
  C 322.53 156.02 323.98 155.44 324.95 154.21
  Q 325.26 153.80 324.75 153.80
  L 317.27 153.87
  A 0.46 0.46 0.0 0 0 317.11 154.76
  L 319.42 155.64
  A 0.60 0.60 0.0 0 1 319.69 156.56
  L 307.30 173.44
  A 0.34 0.33 -29.4 0 1 306.70 173.28
  Z
  M 349.71 164.46
  L 352.63 156.25
  A 0.76 0.75 -80.1 0 1 353.34 155.75
  L 361.25 155.75
  A 0.69 0.68 0.8 0 1 361.94 156.45
  L 361.88 159.03
  A 0.66 0.65 14.5 0 0 362.24 159.63
  L 362.50 159.76
  A 0.34 0.33 23.6 0 0 362.95 159.59
  L 365.18 154.31
  A 0.40 0.40 0.0 0 0 364.81 153.75
  L 346.84 153.75
  A 0.57 0.57 0.0 0 0 346.28 154.23
  L 346.24 154.52
  A 0.69 0.68 11.4 0 0 346.76 155.29
  L 348.18 155.63
  A 0.60 0.60 0.0 0 1 348.61 156.40
  Q 345.54 166.07 342.19 175.66
  C 341.76 176.91 341.05 177.30 339.99 177.90
  A 0.45 0.45 0.0 0 0 340.21 178.75
  L 356.97 178.74
  A 1.43 1.42 -79.0 0 0 358.29 177.84
  L 360.16 173.10
  A 0.39 0.39 0.0 0 0 360.01 172.64
  L 359.76 172.49
  A 0.52 0.52 0.0 0 0 359.04 172.67
  L 356.82 176.22
  A 0.99 0.99 0.0 0 1 355.98 176.69
  L 346.31 176.78
  A 0.49 0.49 0.0 0 1 345.84 176.14
  L 348.68 167.71
  A 0.94 0.93 -80.1 0 1 349.58 167.07
  L 356.08 167.15
  A 0.59 0.58 -81.3 0 1 356.63 167.91
  L 356.13 169.56
  A 0.54 0.53 -81.8 0 0 356.64 170.25
  L 356.97 170.25
  A 0.52 0.51 -80.1 0 0 357.47 169.89
  L 359.90 162.62
  A 0.43 0.42 25.5 0 0 359.72 162.12
  L 359.47 161.97
  A 0.53 0.53 0.0 0 0 358.72 162.18
  L 357.54 164.53
  A 0.87 0.86 13.5 0 1 356.77 165.00
  L 350.09 165.00
  A 0.40 0.40 0.0 0 1 349.71 164.46
  Z
  M 388.83 177.51
  A 1.37 1.36 -76.6 0 1 387.77 175.78
  Q 390.58 166.38 393.49 158.51
  C 393.99 157.15 394.02 155.85 395.81 155.58
  C 408.19 153.68 402.14 166.14 393.00 165.20
  A 0.53 0.53 0.0 0 0 392.47 165.96
  L 398.10 178.10
  A 0.91 0.88 -7.7 0 0 398.79 178.61
  C 399.78 178.73 403.81 179.04 404.00 178.39
  A 0.55 0.54 18.8 0 0 403.66 177.71
  C 401.45 176.94 399.40 171.53 397.41 167.18
  A 0.50 0.49 65.7 0 1 397.65 166.52
  C 401.17 164.91 404.69 163.81 406.47 160.01
  C 408.79 155.05 403.34 153.42 399.75 153.67
  Q 393.93 154.08 388.12 153.76
  A 0.56 0.56 0.0 0 0 387.53 154.26
  L 387.49 154.65
  A 0.72 0.72 0.0 0 0 388.15 155.45
  L 390.03 155.61
  A 0.44 0.44 0.0 0 1 390.41 156.18
  L 383.71 176.46
  A 1.08 1.07 -85.9 0 1 382.87 177.19
  L 379.92 177.73
  A 0.39 0.39 0.0 0 0 379.63 178.27
  C 379.96 179.02 386.88 178.78 390.01 178.72
  C 390.14 178.72 390.52 178.44 390.56 178.35
  A 0.41 0.41 0.0 0 0 390.26 177.77
  L 388.83 177.51
  Z
  M 518.18 176.11
  L 524.66 156.53
  A 1.26 1.26 0.0 0 1 525.44 155.75
  L 528.44 154.70
  A 0.53 0.52 34.5 0 0 528.25 153.68
  L 518.60 153.99
  Q 517.84 154.02 518.24 154.66
  Q 518.86 155.64 520.07 155.62
  A 0.74 0.74 0.0 0 1 520.79 156.57
  Q 517.91 166.12 514.24 176.10
  C 513.90 177.04 513.12 177.49 512.23 177.75
  A 0.32 0.32 0.0 0 0 512.01 178.10
  L 512.05 178.37
  A 0.45 0.44 85.5 0 0 512.49 178.75
  L 530.01 178.75
  A 0.83 0.82 11.2 0 0 530.77 178.25
  L 532.93 173.16
  A 0.45 0.44 -75.5 0 0 532.57 172.54
  L 532.29 172.51
  A 0.80 0.79 -72.8 0 0 531.54 172.91
  L 529.64 176.25
  A 1.01 0.98 14.2 0 1 528.77 176.75
  L 518.64 176.75
  A 0.49 0.49 0.0 0 1 518.18 176.11
  Z
  M 719.58 164.99
  A 0.34 0.34 0.0 0 1 719.51 164.32
  Q 725.70 163.05 726.67 156.91
  A 1.27 1.24 -60.0 0 0 726.42 155.93
  C 723.87 152.66 715.29 153.68 709.29 153.78
  A 0.93 0.91 13.0 0 0 708.49 154.27
  L 708.35 154.55
  A 0.52 0.52 0.0 0 0 708.70 155.30
  L 710.25 155.63
  A 0.62 0.61 -75.5 0 1 710.70 156.41
  Q 707.83 166.03 704.44 175.50
  C 703.97 176.79 703.18 177.48 701.98 177.95
  A 0.38 0.38 0.0 0 0 702.11 178.68
  C 709.92 178.90 717.58 180.02 722.81 172.66
  C 723.97 171.02 723.87 169.22 723.74 167.30
  A 1.35 1.33 -71.7 0 0 723.29 166.39
  Q 721.75 165.00 719.58 164.99
  Z
  M 753.44 156.43
  Q 750.66 165.24 747.75 174.00
  Q 746.55 177.63 743.51 177.55
  A 1.05 1.04 -65.7 0 0 742.81 177.82
  L 742.59 178.02
  A 0.42 0.42 0.0 0 0 742.87 178.74
  C 744.37 178.75 753.66 179.10 754.09 178.18
  Q 754.33 177.69 753.79 177.77
  Q 751.93 178.03 751.28 176.87
  C 750.36 175.23 756.47 158.85 757.44 156.11
  A 0.97 0.95 2.2 0 1 758.10 155.51
  C 759.00 155.29 761.42 155.53 761.30 154.26
  A 0.56 0.55 -2.2 0 0 760.74 153.75
  L 751.38 153.75
  A 0.63 0.62 0.0 0 0 750.75 154.37
  L 750.74 154.76
  A 0.54 0.54 0.0 0 0 751.18 155.29
  L 752.96 155.63
  A 0.63 0.62 -76.4 0 1 753.44 156.43
  Z
  M 805.47 156.15
  L 799.89 173.80
  A 0.54 0.54 0.0 0 1 798.89 173.88
  L 788.79 154.16
  A 0.81 0.81 0.0 0 0 788.05 153.71
  L 782.45 153.85
  A 0.64 0.63 52.9 0 0 782.28 155.09
  L 784.40 155.75
  A 0.55 0.54 -72.7 0 1 784.76 156.44
  L 778.25 175.99
  A 1.91 1.89 2.9 0 1 776.84 177.25
  L 774.41 177.78
  A 0.48 0.48 0.0 0 0 774.50 178.72
  C 775.60 178.74 782.49 179.03 782.81 178.34
  A 0.36 0.35 12.1 0 0 782.48 177.84
  C 780.35 177.83 780.04 176.77 780.64 174.94
  Q 783.28 166.90 785.81 158.92
  A 0.41 0.41 0.0 0 1 786.57 158.87
  C 788.50 162.81 795.43 178.60 799.19 179.46
  A 0.77 0.77 0.0 0 0 800.09 178.95
  Q 803.53 168.33 807.01 157.98
  Q 808.00 155.02 810.81 154.88
  A 0.38 0.37 75.3 0 0 811.12 154.34
  C 810.60 153.26 804.46 154.04 803.24 154.18
  Q 801.44 154.40 803.17 154.93
  L 805.15 155.54
  A 0.49 0.49 0.0 0 1 805.47 156.15
  Z
  M 832.41 176.10
  L 835.15 167.60
  A 0.93 0.91 -79.3 0 1 836.07 166.96
  L 842.59 167.30
  A 0.45 0.45 0.0 0 1 843.01 167.84
  L 842.60 169.78
  A 0.40 0.39 -89.5 0 0 843.06 170.25
  L 843.38 170.19
  A 0.80 0.80 0.0 0 0 843.98 169.67
  L 846.40 162.54
  A 0.33 0.33 0.0 0 0 846.26 162.15
  L 845.98 161.98
  A 0.52 0.51 -60.0 0 0 845.25 162.18
  L 843.86 164.76
  A 1.05 1.04 15.3 0 1 842.89 165.31
  L 836.76 165.03
  A 0.58 0.58 0.0 0 1 836.24 164.26
  L 839.13 156.18
  A 0.66 0.65 -79.6 0 1 839.74 155.75
  L 847.73 155.75
  A 0.66 0.66 0.0 0 1 848.37 156.24
  C 848.55 156.89 848.26 159.38 848.65 159.57
  A 0.64 0.64 0.0 0 0 849.52 159.24
  L 851.59 154.46
  A 0.51 0.51 0.0 0 0 851.12 153.75
  L 833.25 153.75
  A 0.50 0.50 0.0 0 0 832.75 154.25
  L 832.75 154.53
  A 0.48 0.48 0.0 0 0 833.02 154.96
  L 834.65 155.78
  A 0.69 0.69 0.0 0 1 835.00 156.60
  Q 831.98 166.30 828.60 175.87
  C 828.22 176.94 827.44 177.36 826.55 177.89
  A 0.46 0.46 0.0 0 0 826.79 178.74
  L 843.66 178.75
  A 1.01 0.99 -78.3 0 0 844.60 178.12
  L 846.56 173.38
  A 0.65 0.64 -68.8 0 0 846.20 172.54
  C 845.29 172.19 843.63 175.73 843.05 176.38
  A 1.07 1.07 0.0 0 1 842.24 176.75
  L 832.88 176.75
  A 0.50 0.49 -81.0 0 1 832.41 176.10
  Z
  M 882.20 156.41
  L 875.73 176.21
  A 1.19 1.17 1.7 0 1 874.89 176.99
  L 871.74 177.76
  A 0.30 0.29 87.1 0 0 871.53 178.00
  L 871.48 178.32
  A 0.38 0.37 -86.0 0 0 871.85 178.75
  L 881.42 178.75
  A 1.12 1.10 -64.6 0 0 882.13 178.49
  L 882.45 178.21
  Q 883.00 177.72 882.27 177.65
  L 880.62 177.47
  A 1.27 1.27 0.0 0 1 879.55 175.81
  L 885.86 156.40
  A 0.95 0.94 8.9 0 1 886.76 155.75
  L 892.16 155.75
  A 0.59 0.58 -86.9 0 1 892.74 156.40
  L 892.43 159.09
  A 0.58 0.56 8.0 0 0 892.91 159.71
  L 893.16 159.75
  A 0.69 0.69 0.0 0 0 893.92 159.28
  L 895.54 154.36
  A 0.47 0.46 -80.9 0 0 895.10 153.75
  L 874.56 153.75
  A 0.70 0.69 -79.6 0 0 873.91 154.20
  C 873.58 155.12 871.86 159.19 872.74 159.80
  A 0.54 0.54 0.0 0 0 873.53 159.61
  L 875.30 156.31
  A 1.09 1.09 0.0 0 1 876.25 155.75
  L 881.72 155.75
  A 0.51 0.50 -81.1 0 1 882.20 156.41
  Z"
/>
<path d="
  M 714.73 156.16
  A 0.93 0.93 0.0 0 1 715.66 155.54
  L 720.75 155.83
  A 2.09 2.09 0.0 0 1 722.57 158.71
  Q 719.90 165.26 712.65 163.85
  A 0.52 0.52 0.0 0 1 712.26 163.17
  L 714.73 156.16
  Z"
/>
<path d="
  M 672.19 159.73
  L 673.70 168.04
  A 0.31 0.31 0.0 0 1 673.41 168.41
  L 664.98 168.83
  A 0.31 0.31 0.0 0 1 664.72 168.33
  L 671.64 159.60
  A 0.31 0.31 0.0 0 1 672.19 159.73
  Z"
/>
<path d="
  M 481.78 159.89
  L 483.10 167.86
  A 0.42 0.42 0.0 0 1 482.71 168.35
  L 474.65 168.89
  A 0.42 0.42 0.0 0 1 474.29 168.21
  L 481.03 159.70
  A 0.42 0.42 0.0 0 1 481.78 159.89
  Z"
/>
<path d="
  M 712.44 165.65
  L 718.21 166.33
  A 1.15 1.15 0.0 0 1 719.11 166.96
  Q 720.31 169.36 719.30 171.57
  Q 716.16 178.41 708.39 176.76
  A 0.45 0.45 0.0 0 1 708.06 176.17
  L 711.36 166.33
  A 1.01 1.01 0.0 0 1 712.44 165.65
  Z"
/>
</g>
<g fill="#000000">
<path d="
  M 659.04 177.37
  L 660.97 177.55
  A 0.51 0.51 0.0 0 1 661.41 178.21
  C 661.35 178.41 660.93 178.70 660.67 178.71
  C 658.40 178.77 652.40 178.98 652.24 178.33
  A 0.51 0.51 0.0 0 1 652.65 177.71
  C 654.10 177.46 655.43 177.18 656.42 175.95
  Q 664.90 165.47 673.71 154.10
  Q 674.98 152.46 675.40 154.49
  Q 676.57 160.17 676.70 165.91
  A 1.30 1.27 23.7 0 0 677.04 166.75
  Q 677.39 167.13 677.36 167.76
  Q 677.20 172.28 678.66 176.57
  A 1.20 1.19 -89.0 0 0 679.36 177.30
  L 680.39 177.71
  A 0.39 0.39 0.0 0 1 680.51 178.37
  L 680.29 178.57
  A 0.76 0.75 24.3 0 1 679.80 178.75
  L 670.72 178.75
  A 0.47 0.47 0.0 0 1 670.25 178.22
  L 670.29 177.90
  A 0.52 0.52 0.0 0 1 670.90 177.46
  Q 672.74 177.80 674.07 176.57
  A 0.97 0.95 63.0 0 0 674.35 175.69
  L 673.44 170.93
  A 0.53 0.53 0.0 0 0 672.92 170.50
  L 663.73 170.50
  A 1.15 1.13 17.9 0 0 662.81 170.96
  L 658.66 176.52
  Q 658.08 177.28 659.04 177.37
  Z
  M 672.19 159.73
  A 0.31 0.31 0.0 0 0 671.64 159.60
  L 664.72 168.33
  A 0.31 0.31 0.0 0 0 664.98 168.83
  L 673.41 168.41
  A 0.31 0.31 0.0 0 0 673.70 168.04
  L 672.19 159.73
  Z"
/>
<path d="
  M 431.73 157.73
  Q 438.23 150.75 447.26 154.69
  A 0.49 0.49 0.0 0 1 447.52 155.32
  L 445.94 159.32
  A 0.66 0.66 0.0 0 1 445.22 159.74
  L 444.60 159.64
  A 0.42 0.42 0.0 0 1 444.30 159.00
  Q 445.99 156.32 443.19 155.60
  Q 436.63 153.92 433.60 159.56
  C 431.03 164.35 439.87 164.52 442.54 165.19
  A 1.59 1.59 0.0 0 1 443.34 165.70
  Q 446.12 169.11 443.29 172.77
  Q 436.15 181.99 424.62 178.39
  A 0.61 0.61 0.0 0 1 424.23 177.60
  L 425.89 173.04
  A 0.83 0.82 10.4 0 1 426.68 172.50
  L 427.04 172.50
  A 0.22 0.22 0.0 0 1 427.26 172.75
  L 426.96 175.80
  A 0.70 0.69 -76.8 0 0 427.40 176.52
  Q 435.85 179.84 440.35 172.57
  Q 441.39 170.88 440.24 168.99
  A 1.33 1.30 82.9 0 0 439.50 168.40
  Q 437.76 167.83 433.36 166.91
  C 428.09 165.80 428.87 160.80 431.73 157.73
  Z"
/>
<path d="
  M 468.57 177.28
  L 470.71 177.68
  A 0.49 0.49 0.0 0 1 471.04 178.42
  C 470.67 179.02 463.23 178.71 461.74 178.65
  A 0.39 0.39 0.0 0 1 461.64 177.89
  L 464.87 176.89
  A 1.64 1.62 -79.2 0 0 465.65 176.35
  L 483.43 153.86
  A 0.81 0.80 57.5 0 1 484.84 154.18
  Q 485.74 157.97 486.17 162.28
  Q 486.87 169.36 487.77 176.40
  A 0.92 0.92 0.0 0 0 488.37 177.15
  L 489.77 177.65
  A 0.51 0.51 0.0 0 1 490.07 178.32
  C 490.02 178.43 489.66 178.71 489.51 178.72
  C 486.57 178.78 479.93 179.04 479.61 178.22
  A 0.44 0.44 0.0 0 1 479.97 177.63
  L 482.94 177.27
  A 0.64 0.63 -4.0 0 0 483.50 176.63
  L 483.34 171.16
  A 0.68 0.68 0.0 0 0 482.66 170.50
  L 473.18 170.50
  A 1.07 1.07 0.0 0 0 472.33 170.92
  L 468.20 176.32
  A 0.60 0.60 0.0 0 0 468.57 177.28
  Z
  M 481.78 159.89
  A 0.42 0.42 0.0 0 0 481.03 159.70
  L 474.29 168.21
  A 0.42 0.42 0.0 0 0 474.65 168.89
  L 482.71 168.35
  A 0.42 0.42 0.0 0 0 483.10 167.86
  L 481.78 159.89
  Z"
/>
<path d="
  M 614.19 161.44
  Q 623.95 149.84 638.95 154.82
  A 0.38 0.38 0.0 0 1 639.18 155.34
  L 637.30 159.58
  A 1.10 1.09 6.3 0 1 636.51 160.21
  L 636.11 160.28
  Q 635.37 160.42 635.63 159.71
  L 636.39 157.66
  A 0.64 0.64 0.0 0 0 636.14 156.91
  Q 633.13 154.97 629.51 155.24
  C 612.85 156.48 608.66 182.17 629.39 176.53
  C 630.35 176.26 630.95 175.55 632.05 175.52
  A 0.59 0.58 -3.6 0 1 632.66 176.05
  C 633.00 179.52 614.53 181.77 611.44 173.73
  C 609.91 169.74 611.56 164.57 614.19 161.44
  Z"
/>
<path d="
  M 175.85 175.70
  C 181.61 178.18 188.17 176.87 190.47 170.64
  Q 193.13 163.45 195.26 156.15
  A 0.45 0.45 0.0 0 0 194.94 155.59
  L 192.62 154.97
  A 0.58 0.57 52.1 0 1 192.76 153.84
  L 200.85 153.75
  A 0.60 0.59 -4.5 0 1 201.44 154.25
  C 201.60 155.24 198.66 155.46 197.95 155.65
  A 0.87 0.86 -88.7 0 0 197.33 156.25
  Q 193.19 169.42 191.70 172.69
  C 188.88 178.89 179.42 180.81 173.58 178.42
  Q 170.39 177.12 171.01 173.24
  Q 171.62 169.40 176.36 156.33
  A 0.53 0.53 0.0 0 0 175.96 155.63
  L 173.95 155.25
  A 0.57 0.56 -84.5 0 1 173.50 154.69
  L 173.50 154.42
  A 0.59 0.58 90.0 0 1 174.08 153.83
  L 183.70 153.77
  A 0.50 0.49 2.6 0 1 184.20 154.31
  C 184.04 155.88 180.40 154.64 179.45 157.60
  Q 176.94 165.39 174.72 173.34
  A 1.99 1.98 -70.7 0 0 175.85 175.70
  Z"
/>
<path d="
  M 221.75 159.02
  L 216.25 176.36
  A 0.72 0.72 0.0 0 0 216.73 177.27
  L 218.81 177.88
  A 0.35 0.34 -59.9 0 1 218.96 178.45
  C 218.36 179.08 211.74 178.71 210.58 178.62
  A 0.41 0.41 0.0 0 1 210.23 178.06
  L 210.35 177.73
  A 0.33 0.32 14.0 0 1 210.71 177.52
  C 212.51 177.84 213.72 177.21 214.36 175.43
  C 215.24 173.00 221.02 157.37 220.36 156.01
  Q 219.95 155.18 218.73 155.25
  A 0.51 0.51 0.0 0 1 218.19 154.77
  C 218.12 153.14 223.13 153.74 224.13 153.83
  A 0.94 0.92 78.2 0 1 224.88 154.33
  L 234.88 173.87
  A 0.53 0.53 0.0 0 0 235.86 173.79
  L 241.54 156.07
  A 0.48 0.48 0.0 0 0 241.10 155.44
  Q 239.93 155.41 239.09 154.76
  Q 237.98 153.89 239.39 153.89
  L 246.79 153.89
  A 0.47 0.47 0.0 0 1 246.92 154.82
  L 244.86 155.42
  A 1.45 1.39 9.8 0 0 244.13 155.91
  Q 243.46 156.77 242.95 158.24
  Q 239.49 168.22 236.34 178.31
  A 1.29 1.27 84.1 0 1 235.75 179.05
  Q 233.81 180.16 232.63 178.07
  Q 227.37 168.73 222.63 158.96
  A 0.48 0.47 41.0 0 0 221.75 159.02
  Z"
/>
<path d="
  M 269.01 177.31
  L 271.22 177.69
  A 0.47 0.47 0.0 0 1 271.58 178.32
  C 271.29 179.05 262.04 178.74 260.76 178.72
  A 0.51 0.51 0.0 0 1 260.25 178.21
  L 260.25 177.95
  A 0.26 0.26 0.0 0 1 260.53 177.69
  C 262.92 177.89 264.24 177.00 265.06 174.70
  Q 268.31 165.61 271.00 156.37
  A 0.55 0.54 18.5 0 0 270.66 155.71
  L 268.50 154.90
  Q 266.23 154.05 268.66 154.00
  L 278.37 153.80
  A 0.63 0.62 86.6 0 1 279.01 154.38
  C 279.07 155.09 276.10 155.46 275.59 155.64
  A 1.18 1.16 89.6 0 0 274.87 156.38
  L 268.37 176.24
  A 0.82 0.82 0.0 0 0 269.01 177.31
  Z"
/>
<path d="
  M 306.70 173.28
  A 0.34 0.33 -29.4 0 0 307.30 173.44
  L 319.69 156.56
  A 0.60 0.60 0.0 0 0 319.42 155.64
  L 317.11 154.76
  A 0.46 0.46 0.0 0 1 317.27 153.87
  L 324.75 153.80
  Q 325.26 153.80 324.95 154.21
  C 323.98 155.44 322.53 156.02 321.63 157.21
  C 319.45 160.06 306.20 178.80 304.30 179.21
  A 0.65 0.65 0.0 0 1 303.52 178.64
  Q 302.47 167.61 301.25 156.75
  Q 301.13 155.68 299.42 154.86
  A 0.33 0.33 0.0 0 1 299.24 154.51
  L 299.28 154.23
  A 0.57 0.56 4.1 0 1 299.84 153.75
  L 308.74 153.75
  A 0.51 0.51 0.0 0 1 309.25 154.25
  L 309.26 154.55
  A 0.57 0.56 85.4 0 1 308.78 155.12
  L 306.29 155.49
  A 1.14 1.13 83.6 0 0 305.32 156.71
  L 306.70 173.28
  Z"
/>
<path d="
  M 350.09 165.00
  L 356.77 165.00
  A 0.87 0.86 13.5 0 0 357.54 164.53
  L 358.72 162.18
  A 0.53 0.53 0.0 0 1 359.47 161.97
  L 359.72 162.12
  A 0.43 0.42 25.5 0 1 359.90 162.62
  L 357.47 169.89
  A 0.52 0.51 -80.1 0 1 356.97 170.25
  L 356.64 170.25
  A 0.54 0.53 -81.8 0 1 356.13 169.56
  L 356.63 167.91
  A 0.59 0.58 -81.3 0 0 356.08 167.15
  L 349.58 167.07
  A 0.94 0.93 -80.1 0 0 348.68 167.71
  L 345.84 176.14
  A 0.49 0.49 0.0 0 0 346.31 176.78
  L 355.98 176.69
  A 0.99 0.99 0.0 0 0 356.82 176.22
  L 359.04 172.67
  A 0.52 0.52 0.0 0 1 359.76 172.49
  L 360.01 172.64
  A 0.39 0.39 0.0 0 1 360.16 173.10
  L 358.29 177.84
  A 1.43 1.42 -79.0 0 1 356.97 178.74
  L 340.21 178.75
  A 0.45 0.45 0.0 0 1 339.99 177.90
  C 341.05 177.30 341.76 176.91 342.19 175.66
  Q 345.54 166.07 348.61 156.40
  A 0.60 0.60 0.0 0 0 348.18 155.63
  L 346.76 155.29
  A 0.69 0.68 11.4 0 1 346.24 154.52
  L 346.28 154.23
  A 0.57 0.57 0.0 0 1 346.84 153.75
  L 364.81 153.75
  A 0.40 0.40 0.0 0 1 365.18 154.31
  L 362.95 159.59
  A 0.34 0.33 23.6 0 1 362.50 159.76
  L 362.24 159.63
  A 0.66 0.65 14.5 0 1 361.88 159.03
  L 361.94 156.45
  A 0.69 0.68 0.8 0 0 361.25 155.75
  L 353.34 155.75
  A 0.76 0.75 -80.1 0 0 352.63 156.25
  L 349.71 164.46
  A 0.40 0.40 0.0 0 0 350.09 165.00
  Z"
/>
<path d="
  M 388.83 177.51
  L 390.26 177.77
  A 0.41 0.41 0.0 0 1 390.56 178.35
  C 390.52 178.44 390.14 178.72 390.01 178.72
  C 386.88 178.78 379.96 179.02 379.63 178.27
  A 0.39 0.39 0.0 0 1 379.92 177.73
  L 382.87 177.19
  A 1.08 1.07 -85.9 0 0 383.71 176.46
  L 390.41 156.18
  A 0.44 0.44 0.0 0 0 390.03 155.61
  L 388.15 155.45
  A 0.72 0.72 0.0 0 1 387.49 154.65
  L 387.53 154.26
  A 0.56 0.56 0.0 0 1 388.12 153.76
  Q 393.93 154.08 399.75 153.67
  C 403.34 153.42 408.79 155.05 406.47 160.01
  C 404.69 163.81 401.17 164.91 397.65 166.52
  A 0.50 0.49 65.7 0 0 397.41 167.18
  C 399.40 171.53 401.45 176.94 403.66 177.71
  A 0.55 0.54 18.8 0 1 404.00 178.39
  C 403.81 179.04 399.78 178.73 398.79 178.61
  A 0.91 0.88 -7.7 0 1 398.10 178.10
  L 392.47 165.96
  A 0.53 0.53 0.0 0 1 393.00 165.20
  C 402.14 166.14 408.19 153.68 395.81 155.58
  C 394.02 155.85 393.99 157.15 393.49 158.51
  Q 390.58 166.38 387.77 175.78
  A 1.37 1.36 -76.6 0 0 388.83 177.51
  Z"
/>
<path d="
  M 518.64 176.75
  L 528.77 176.75
  A 1.01 0.98 14.2 0 0 529.64 176.25
  L 531.54 172.91
  A 0.80 0.79 -72.8 0 1 532.29 172.51
  L 532.57 172.54
  A 0.45 0.44 -75.5 0 1 532.93 173.16
  L 530.77 178.25
  A 0.83 0.82 11.2 0 1 530.01 178.75
  L 512.49 178.75
  A 0.45 0.44 85.5 0 1 512.05 178.37
  L 512.01 178.10
  A 0.32 0.32 0.0 0 1 512.23 177.75
  C 513.12 177.49 513.90 177.04 514.24 176.10
  Q 517.91 166.12 520.79 156.57
  A 0.74 0.74 0.0 0 0 520.07 155.62
  Q 518.86 155.64 518.24 154.66
  Q 517.84 154.02 518.60 153.99
  L 528.25 153.68
  A 0.53 0.52 34.5 0 1 528.44 154.70
  L 525.44 155.75
  A 1.26 1.26 0.0 0 0 524.66 156.53
  L 518.18 176.11
  A 0.49 0.49 0.0 0 0 518.64 176.75
  Z"
/>
<path d="
  M 719.58 164.99
  Q 721.75 165.00 723.29 166.39
  A 1.35 1.33 -71.7 0 1 723.74 167.30
  C 723.87 169.22 723.97 171.02 722.81 172.66
  C 717.58 180.02 709.92 178.90 702.11 178.68
  A 0.38 0.38 0.0 0 1 701.98 177.95
  C 703.18 177.48 703.97 176.79 704.44 175.50
  Q 707.83 166.03 710.70 156.41
  A 0.62 0.61 -75.5 0 0 710.25 155.63
  L 708.70 155.30
  A 0.52 0.52 0.0 0 1 708.35 154.55
  L 708.49 154.27
  A 0.93 0.91 13.0 0 1 709.29 153.78
  C 715.29 153.68 723.87 152.66 726.42 155.93
  A 1.27 1.24 -60.0 0 1 726.67 156.91
  Q 725.70 163.05 719.51 164.32
  A 0.34 0.34 0.0 0 0 719.58 164.99
  Z
  M 714.73 156.16
  L 712.26 163.17
  A 0.52 0.52 0.0 0 0 712.65 163.85
  Q 719.90 165.26 722.57 158.71
  A 2.09 2.09 0.0 0 0 720.75 155.83
  L 715.66 155.54
  A 0.93 0.93 0.0 0 0 714.73 156.16
  Z
  M 711.36 166.33
  L 708.06 176.17
  A 0.45 0.45 0.0 0 0 708.39 176.76
  Q 716.16 178.41 719.30 171.57
  Q 720.31 169.36 719.11 166.96
  A 1.15 1.15 0.0 0 0 718.21 166.33
  L 712.44 165.65
  A 1.01 1.01 0.0 0 0 711.36 166.33
  Z"
/>
<path d="
  M 752.96 155.63
  L 751.18 155.29
  A 0.54 0.54 0.0 0 1 750.74 154.76
  L 750.75 154.37
  A 0.63 0.62 -0.0 0 1 751.38 153.75
  L 760.74 153.75
  A 0.56 0.55 -2.2 0 1 761.30 154.26
  C 761.42 155.53 759.00 155.29 758.10 155.51
  A 0.97 0.95 2.2 0 0 757.44 156.11
  C 756.47 158.85 750.36 175.23 751.28 176.87
  Q 751.93 178.03 753.79 177.77
  Q 754.33 177.69 754.09 178.18
  C 753.66 179.10 744.37 178.75 742.87 178.74
  A 0.42 0.42 0.0 0 1 742.59 178.02
  L 742.81 177.82
  A 1.05 1.04 -65.7 0 1 743.51 177.55
  Q 746.55 177.63 747.75 174.00
  Q 750.66 165.24 753.44 156.43
  A 0.63 0.62 -76.4 0 0 752.96 155.63
  Z"
/>
<path d="
  M 805.15 155.54
  L 803.17 154.93
  Q 801.44 154.40 803.24 154.18
  C 804.46 154.04 810.60 153.26 811.12 154.34
  A 0.38 0.37 75.3 0 1 810.81 154.88
  Q 808.00 155.02 807.01 157.98
  Q 803.53 168.33 800.09 178.95
  A 0.77 0.77 0.0 0 1 799.19 179.46
  C 795.43 178.60 788.50 162.81 786.57 158.87
  A 0.41 0.41 0.0 0 0 785.81 158.92
  Q 783.28 166.90 780.64 174.94
  C 780.04 176.77 780.35 177.83 782.48 177.84
  A 0.36 0.35 12.1 0 1 782.81 178.34
  C 782.49 179.03 775.60 178.74 774.50 178.72
  A 0.48 0.48 0.0 0 1 774.41 177.78
  L 776.84 177.25
  A 1.91 1.89 2.9 0 0 778.25 175.99
  L 784.76 156.44
  A 0.55 0.54 -72.7 0 0 784.40 155.75
  L 782.28 155.09
  A 0.64 0.63 52.9 0 1 782.45 153.85
  L 788.05 153.71
  A 0.81 0.81 0.0 0 1 788.79 154.16
  L 798.89 173.88
  A 0.54 0.54 0.0 0 0 799.89 173.80
  L 805.47 156.15
  A 0.49 0.49 0.0 0 0 805.15 155.54
  Z"
/>
<path d="
  M 832.88 176.75
  L 842.24 176.75
  A 1.07 1.07 0.0 0 0 843.05 176.38
  C 843.63 175.73 845.29 172.19 846.20 172.54
  A 0.65 0.64 -68.8 0 1 846.56 173.38
  L 844.60 178.12
  A 1.01 0.99 -78.3 0 1 843.66 178.75
  L 826.79 178.74
  A 0.46 0.46 0.0 0 1 826.55 177.89
  C 827.44 177.36 828.22 176.94 828.60 175.87
  Q 831.98 166.30 835.00 156.60
  A 0.69 0.69 0.0 0 0 834.65 155.78
  L 833.02 154.96
  A 0.48 0.48 0.0 0 1 832.75 154.53
  L 832.75 154.25
  A 0.50 0.50 0.0 0 1 833.25 153.75
  L 851.12 153.75
  A 0.51 0.51 0.0 0 1 851.59 154.46
  L 849.52 159.24
  A 0.64 0.64 0.0 0 1 848.65 159.57
  C 848.26 159.38 848.55 156.89 848.37 156.24
  A 0.66 0.66 0.0 0 0 847.73 155.75
  L 839.74 155.75
  A 0.66 0.65 -79.6 0 0 839.13 156.18
  L 836.24 164.26
  A 0.58 0.58 0.0 0 0 836.76 165.03
  L 842.89 165.31
  A 1.05 1.04 15.3 0 0 843.86 164.76
  L 845.25 162.18
  A 0.52 0.51 -60.0 0 1 845.98 161.98
  L 846.26 162.15
  A 0.33 0.33 0.0 0 1 846.40 162.54
  L 843.98 169.67
  A 0.80 0.80 0.0 0 1 843.38 170.19
  L 843.06 170.25
  A 0.40 0.39 -89.5 0 1 842.60 169.78
  L 843.01 167.84
  A 0.45 0.45 0.0 0 0 842.59 167.30
  L 836.07 166.96
  A 0.93 0.91 -79.3 0 0 835.15 167.60
  L 832.41 176.10
  A 0.50 0.49 -81.0 0 0 832.88 176.75
  Z"
/>
<path d="
  M 881.72 155.75
  L 876.25 155.75
  A 1.09 1.09 0.0 0 0 875.30 156.31
  L 873.53 159.61
  A 0.54 0.54 0.0 0 1 872.74 159.80
  C 871.86 159.19 873.58 155.12 873.91 154.20
  A 0.70 0.69 -79.6 0 1 874.56 153.75
  L 895.10 153.75
  A 0.47 0.46 -80.9 0 1 895.54 154.36
  L 893.92 159.28
  A 0.69 0.69 0.0 0 1 893.16 159.75
  L 892.91 159.71
  A 0.58 0.56 8.0 0 1 892.43 159.09
  L 892.74 156.40
  A 0.59 0.58 -86.9 0 0 892.16 155.75
  L 886.76 155.75
  A 0.95 0.94 8.9 0 0 885.86 156.40
  L 879.55 175.81
  A 1.27 1.27 0.0 0 0 880.62 177.47
  L 882.27 177.65
  Q 883.00 177.72 882.45 178.21
  L 882.13 178.49
  A 1.12 1.10 -64.6 0 1 881.42 178.75
  L 871.85 178.75
  A 0.38 0.37 -86.0 0 1 871.48 178.32
  L 871.53 178.00
  A 0.30 0.29 87.1 0 1 871.74 177.76
  L 874.89 176.99
  A 1.19 1.17 1.7 0 0 875.73 176.21
  L 882.20 156.41
  A 0.51 0.50 -81.1 0 0 881.72 155.75
  Z"
/>
</g>
</svg>
