<?xml version="1.0" encoding="UTF-8" standalone="no"?>
<!-- Created by ERK -->

<svg
   width="722.83441mm"
   height="221.81799mm"
   viewBox="0 0 722.83441 221.81799"
   version="1.1"
   id="svg1"
   inkscape:version="1.3.2 (091e20e, 2023-11-25, custom)"
   xml:space="preserve"
   sodipodi:docname="lindbergh.svg"
   xmlns:inkscape="http://www.inkscape.org/namespaces/inkscape"
   xmlns:sodipodi="http://sodipodi.sourceforge.net/DTD/sodipodi-0.dtd"
   xmlns:xlink="http://www.w3.org/1999/xlink"
   xmlns="http://www.w3.org/2000/svg"
   xmlns:svg="http://www.w3.org/2000/svg"><sodipodi:namedview
     id="namedview1"
     pagecolor="#ffffff"
     bordercolor="#000000"
     borderopacity="0.25"
     inkscape:showpageshadow="2"
     inkscape:pageopacity="0.0"
     inkscape:pagecheckerboard="true"
     inkscape:deskcolor="#d1d1d1"
     inkscape:document-units="mm"
     inkscape:zoom="0.58236858"
     inkscape:cx="1371.9834"
     inkscape:cy="466.1996"
     inkscape:window-width="2560"
     inkscape:window-height="1351"
     inkscape:window-x="-9"
     inkscape:window-y="-9"
     inkscape:window-maximized="1"
     inkscape:current-layer="svg1" /><defs
     id="defs1"><linearGradient
       id="linearGradient6"
       inkscape:collect="always"><stop
         style="stop-color:#fcfbfb;stop-opacity:1;"
         offset="0"
         id="stop6" /><stop
         style="stop-color:#010101;stop-opacity:1;"
         offset="0.23576038"
         id="stop8" /><stop
         style="stop-color:#000000;stop-opacity:1;"
         offset="0.41161901"
         id="stop10" /><stop
         style="stop-color:#ffffff;stop-opacity:1;"
         offset="0.6385234"
         id="stop11" /><stop
         style="stop-color:#ffffff;stop-opacity:1;"
         offset="0.85163373"
         id="stop9" /><stop
         style="stop-color:#000000;stop-opacity:1;"
         offset="1"
         id="stop7" /></linearGradient><marker
       id="DistanceX"
       orient="auto"
       refX="0"
       refY="0"
       style="overflow:visible"><path
         d="M 3,-3 -3,3 M 0,-5 V 5"
         style="stroke:#000000;stroke-width:0.5"
         id="path1" /></marker><pattern
       id="Hatch"
       patternUnits="userSpaceOnUse"
       width="8"
       height="8"
       x="0"
       y="0"><path
         d="M8 4 l-4,4"
         stroke="#000000"
         stroke-width="0.25"
         linecap="square"
         id="path2" /><path
         d="M6 2 l-4,4"
         stroke="#000000"
         stroke-width="0.25"
         linecap="square"
         id="path3" /><path
         d="M4 0 l-4,4"
         stroke="#000000"
         stroke-width="0.25"
         linecap="square"
         id="path4" /></pattern><symbol
       id="*Model_Space" /><symbol
       id="*Paper_Space" /><symbol
       id="*Paper_Space0" /><linearGradient
       inkscape:collect="always"
       xlink:href="#linearGradient6"
       id="linearGradient7"
       x1="500.0629"
       y1="283.82559"
       x2="506.11755"
       y2="214.6203"
       gradientUnits="userSpaceOnUse"
       spreadMethod="pad" /><linearGradient
       inkscape:collect="always"
       xlink:href="#linearGradient6"
       id="linearGradient36"
       gradientUnits="userSpaceOnUse"
       x1="500.0629"
       y1="283.82559"
       x2="506.11755"
       y2="214.6203"
       spreadMethod="pad" /><linearGradient
       inkscape:collect="always"
       xlink:href="#linearGradient6"
       id="linearGradient37"
       gradientUnits="userSpaceOnUse"
       x1="500.0629"
       y1="283.82559"
       x2="506.11755"
       y2="214.6203"
       spreadMethod="pad" /><linearGradient
       inkscape:collect="always"
       xlink:href="#linearGradient6"
       id="linearGradient38"
       gradientUnits="userSpaceOnUse"
       x1="500.0629"
       y1="283.82559"
       x2="506.11755"
       y2="214.6203"
       spreadMethod="pad" /><linearGradient
       inkscape:collect="always"
       xlink:href="#linearGradient6"
       id="linearGradient39"
       gradientUnits="userSpaceOnUse"
       x1="500.0629"
       y1="283.82559"
       x2="506.11755"
       y2="214.6203"
       spreadMethod="pad" /><linearGradient
       inkscape:collect="always"
       xlink:href="#linearGradient6"
       id="linearGradient40"
       gradientUnits="userSpaceOnUse"
       x1="500.0629"
       y1="283.82559"
       x2="506.11755"
       y2="214.6203"
       spreadMethod="pad" /><linearGradient
       inkscape:collect="always"
       xlink:href="#linearGradient6"
       id="linearGradient41"
       gradientUnits="userSpaceOnUse"
       x1="500.0629"
       y1="283.82559"
       x2="506.11755"
       y2="214.6203"
       spreadMethod="pad" /><linearGradient
       inkscape:collect="always"
       xlink:href="#linearGradient6"
       id="linearGradient42"
       gradientUnits="userSpaceOnUse"
       x1="500.0629"
       y1="283.82559"
       x2="506.11755"
       y2="214.6203"
       spreadMethod="pad" /><linearGradient
       inkscape:collect="always"
       xlink:href="#linearGradient6"
       id="linearGradient43"
       gradientUnits="userSpaceOnUse"
       x1="500.0629"
       y1="283.82559"
       x2="506.11755"
       y2="214.6203"
       spreadMethod="pad" /><linearGradient
       inkscape:collect="always"
       xlink:href="#linearGradient6"
       id="linearGradient44"
       gradientUnits="userSpaceOnUse"
       x1="500.0629"
       y1="283.82559"
       x2="506.11755"
       y2="214.6203"
       spreadMethod="pad" /><linearGradient
       inkscape:collect="always"
       xlink:href="#linearGradient6"
       id="linearGradient45"
       gradientUnits="userSpaceOnUse"
       x1="500.0629"
       y1="283.82559"
       x2="506.11755"
       y2="214.6203"
       spreadMethod="pad" /><linearGradient
       inkscape:collect="always"
       xlink:href="#linearGradient6"
       id="linearGradient46"
       gradientUnits="userSpaceOnUse"
       x1="500.0629"
       y1="283.82559"
       x2="506.11755"
       y2="214.6203"
       spreadMethod="pad" /></defs><g
     id="g18"
     inkscape:label="Lindbergh"
     style="display:inline"><g
       id="g6"
       inkscape:label="Lindbergh"
       transform="translate(-39.128464,-84.000002)"
       style="display:inline;fill:url(#linearGradient7);stroke:#000000;stroke-width:1;stroke-dasharray:none;stroke-opacity:1"><path
         id="path16"
         style="display:inline;fill:url(#linearGradient36);fill-opacity:1;stroke:#000000;stroke-width:1;stroke-linecap:round;stroke-dasharray:none;stroke-opacity:1"
         d="m 82.29989,257.49563 c -9.6104,-5e-5 -22.06103,-7.0136 -18.98369,-16.29456 3.196028,-9.63893 6.95374,-19.08244 11.25384,-28.28204 0.309918,-0.66304 -0.17403,-1.42345 -0.905885,-1.4235 h -20.12784 c -0.392198,5e-5 -0.748216,0.22935 -0.910435,0.58647 -3.962855,8.72391 -7.565682,17.60693 -10.79937,26.62659 -2.4402,6.80639 1.85317,14.41898 7.34347,18.50303 5.4903,4.08404 12.80314,6.28396 19.955085,6.28399 h 42.185305 c 0.26516,-3e-5 0.51951,-0.10539 0.70704,-0.2929 l 3.99998,-3.99998 c 0.63,-0.63001 0.18383,-1.70716 -0.70704,-1.7071 z"
         sodipodi:nodetypes="cccccccscccccc"
         inkscape:label="L" /><path
         id="path30"
         style="display:inline;fill:url(#linearGradient37);fill-opacity:1;stroke:#000000;stroke-width:1;stroke-linecap:round;stroke-dasharray:none;stroke-opacity:1"
         d="m 154.21256,257.82751 c 0.81135,5e-5 1.28482,0.91514 0.81635,1.57743 l -2.59405,3.6681 c -0.18745,0.26498 -0.49186,0.42254 -0.81647,0.42257 h -23.65797 c -1.95265,-3e-5 -3.3849,-1.83587 -2.90986,-3.72987 3.70286,-14.76319 8.78263,-29.14643 15.1725,-42.96061 h -5.24753 c -0.89094,-2e-5 -1.33711,-1.07717 -0.70717,-1.70711 l 3.3096,-3.30959 c 0.18749,-0.18749 0.44184,-0.29285 0.70703,-0.29289 h 21.43282 c 2.16907,4e-5 3.62125,2.23099 2.74323,4.21441 -6.03928,13.64262 -11.03963,27.72186 -14.95846,42.11756 z"
         sodipodi:nodetypes="ccccccccccccccc"
         inkscape:label="I" /><path
         id="path42"
         style="display:inline;fill:url(#linearGradient38);fill-opacity:1;stroke:#000000;stroke-width:1;stroke-linecap:round;stroke-dasharray:none;stroke-opacity:1"
         d="m 186.86913,263.49561 h -18.35021 c -1.28539,-3e-5 -2.23705,-1.19518 -1.94918,-2.44794 3.8206,-16.62634 9.2854,-32.83145 16.31371,-48.37606 0.32371,-0.71595 1.03665,-1.17603 1.82239,-1.17608 h 35.42459 c 0.89095,4e-5 1.33712,1.07719 0.70717,1.7071 l -3.00006,3.00006 c -0.18749,0.18753 -0.44185,0.29289 -0.70703,0.29289 h -12.06577 c -0.77146,0 -1.4741,0.44363 -1.80576,1.1401 -6.69534,14.05957 -11.54368,28.92624 -14.42431,44.22987 -0.17794,0.94529 -1.00359,1.63003 -1.96554,1.63006 z"
         sodipodi:nodetypes="ccccccccccccc"
         inkscape:label="N" /><path
         id="path50"
         style="display:inline;fill:url(#linearGradient39);fill-opacity:1;stroke:#000000;stroke-width:1;stroke-linecap:round;stroke-dasharray:none;stroke-opacity:1"
         d="m 227.57973,256.21672 h -16.64758 c -0.93338,3e-5 -1.74266,-0.6456 -1.95001,-1.55567 -2.58812,-11.35916 -4.08136,-22.94027 -4.45924,-34.58442 -0.0366,-1.1294 0.86896,-2.06487 1.9989,-2.06498 l 14.64497,6e-5 c 0.90046,5e-5 1.68989,0.6018 1.92851,1.47006 3.10861,11.31143 5.27402,22.86112 6.47397,34.5304 0.12127,1.17926 -0.80403,2.20458 -1.98952,2.20455 z"
         sodipodi:nodetypes="ccccccccc"
         inkscape:label="N" /><path
         id="path62"
         style="display:inline;fill:url(#linearGradient40);fill-opacity:1;stroke:#000000;stroke-width:1;stroke-linecap:round;stroke-dasharray:none;stroke-opacity:1"
         d="m 250.34895,263.49561 c 0.91414,-3e-5 1.71195,-0.61986 1.93792,-1.50565 4.13376,-16.20399 9.19427,-32.15733 15.15654,-47.78131 0.49962,-1.30924 -0.46724,-2.71307 -1.86904,-2.71311 h -17.22479 c -0.77768,4e-5 -1.4849,0.45092 -1.81312,1.15602 -6.58971,14.15644 -11.57989,29.0037 -14.87801,44.26645 -0.19892,0.92054 -1.0131,1.57757 -1.9549,1.57755 h -13.03528 c -0.26525,2e-5 -0.5196,0.10537 -0.70717,0.29289 l -2.99992,3.00005 c -0.63002,0.62993 -0.18385,1.70708 0.70704,1.70711 z"
         sodipodi:nodetypes="ccccccccccccc"
         inkscape:label="N" /><path
         d="m 281.95144,211.49565 c -0.76957,5e-5 -1.47091,0.44177 -1.8035,1.13585 -7.38538,15.41214 -12.76912,31.70566 -16.02021,48.48386 -0.23916,1.23424 0.70648,2.38018 1.96422,2.38022 h 55.51289 c 7.58715,-3e-5 14.52109,-4.29286 17.9033,-11.08408 4.1459,-8.32467 7.32314,-17.0974 9.4697,-26.14621 1.78817,-7.538 -3.92885,-14.76958 -11.67577,-14.76964 z m 18.99729,6.00015 h 23.97994 c 2.39461,-6e-5 3.40173,3.20758 2.94607,5.56814 -1.99328,10.32655 -5.46209,20.31283 -10.29963,29.65142 -1.35745,2.62049 -3.57304,4.78002 -6.21512,4.78007 H 288.4048 c -0.64887,-5e-5 -1.12608,-0.6081 -0.97152,-1.23817 3.19532,-13.02552 7.40595,-25.78075 12.59355,-38.14858 0.15581,-0.37148 0.51932,-0.61294 0.9219,-0.61288 z"
         style="display:inline;fill:url(#linearGradient41);fill-opacity:1;stroke:#000000;stroke-width:1;stroke-linecap:round;stroke-dasharray:none;stroke-opacity:1"
         id="path5"
         inkscape:label="D" /><path
         id="path109"
         style="display:inline;fill:url(#linearGradient42);fill-opacity:1;stroke:#000000;stroke-width:1;stroke-linecap:round;stroke-dasharray:none;stroke-opacity:1"
         d="m 407.05774,242.77316 c 0.49013,-2.47323 -1.40238,-4.77759 -3.92402,-4.77756 h -16.76211 c -0.29604,-3e-5 -0.57648,-0.1308 -0.76666,-0.3572 l -3.77578,-4.50002 c -0.54598,-0.6507 -0.0834,-1.64278 0.76666,-1.64279 h 14.48672 c 1.94031,-1e-5 3.76072,-0.93814 4.88659,-2.5182 1.68239,-2.36109 2.84543,-5.05185 3.41249,-7.89502 0.37017,-1.85594 -1.04957,-3.5868 -2.94175,-3.58673 h -15.49603 c -0.78724,-6e-5 -1.50145,0.4621 -1.82412,1.18049 -6.20696,13.81904 -10.77924,28.31552 -13.62398,43.19502 -0.18023,0.94267 -1.00467,1.62443 -1.96442,1.62446 h -17.73791 c -1.22658,-2e-5 -2.16411,-1.09359 -1.97678,-2.30554 2.62601,-16.98918 8.06105,-33.42289 16.08238,-48.6277 0.34616,-0.65615 1.02707,-1.06679 1.76928,-1.06684 h 50.25029 c 5.56465,4e-5 9.79582,4.99882 8.87664,10.48676 -0.74318,4.43708 -3.14676,8.42517 -6.72307,11.15481 h 2.33928 c 5.23919,3e-5 8.07743,6.64903 6.7839,11.72774 -0.86752,3.40613 -2.10466,6.70726 -3.6894,9.84461 -2.72179,5.38839 -8.24467,8.78613 -14.28152,8.78616 h -25.6198 c -0.26536,-3e-5 -0.51971,-0.10539 -0.70677,-0.2929 l -4.00025,-3.99998 c -0.63019,-0.63 -0.18403,-1.70715 0.70677,-1.7071 h 13.62859 c 3.0758,-6e-5 5.93859,-1.57081 7.59097,-4.16504 2.05459,-3.22571 3.49035,-6.80592 4.23381,-10.55743 z"
         sodipodi:nodetypes="cccccccccccccccccccccccccccccccc"
         inkscape:label="B" /><path
         id="path131"
         style="display:inline;fill:url(#linearGradient43);fill-opacity:1;stroke:#000000;stroke-width:1;stroke-linecap:round;stroke-dasharray:none;stroke-opacity:1"
         d="m 509.38241,213.20263 -4.00024,4.00012 c -0.18701,0.18748 -0.44138,0.29283 -0.70679,0.29289 h -36.03339 c -0.81305,-6e-5 -1.54546,0.49261 -1.85208,1.24606 -1.25596,3.0862 -2.39054,6.22041 -3.40072,9.39549 h 35.49743 c 0.8914,-6e-5 1.33757,1.07708 0.70809,1.7071 l -3.00019,2.99992 c -0.18784,0.18756 -0.44219,0.29292 -0.70677,0.29289 h -33.9793 c -1.36784,4.99687 -2.43057,10.07242 -3.18178,15.19849 -0.7076,4.82847 3.03541,9.15999 7.915,9.16004 h 25.58722 c 0.89073,-5e-5 1.3369,1.07709 0.70677,1.7071 l -4.00025,3.99998 c -0.18713,0.18751 -0.44148,0.29287 -0.70677,0.2929 h -39.54145 c -9.39609,-3e-5 -15.09934,-11.53825 -12.49216,-20.59594 2.98745,-10.37892 6.81099,-20.4987 11.43307,-30.26001 0.33081,-0.69864 1.0346,-1.14408 1.80749,-1.14413 h 59.24005 c 0.89085,5e-5 1.33702,1.07719 0.70677,1.7071 z"
         sodipodi:nodetypes="ccccccccccccccccccccccc"
         inkscape:label="E" /><path
         id="path157"
         style="display:inline;fill:url(#linearGradient44);fill-opacity:1;stroke:#000000;stroke-width:1;stroke-linecap:round;stroke-dasharray:none;stroke-opacity:1"
         d="m 558.13654,263.49561 c -2.11103,-3e-5 -4.06646,-1.10904 -5.14977,-2.92049 -4.70695,-7.87065 -8.26143,-16.37535 -10.555,-25.25465 -0.49054,-1.89906 0.94329,-3.7503 2.90464,-3.75027 h 12.7474 c 2.52798,-2e-5 4.93957,-1.06337 6.64469,-2.92997 1.93627,-2.11962 3.0865,-4.83951 3.25853,-7.70522 0.10351,-1.72445 -1.26709,-3.17978 -2.99471,-3.17976 H 541.9948 c -6.05942,14.25188 -10.77432,29.03867 -14.08312,44.16764 -0.20082,0.91821 -1.01391,1.57269 -1.95361,1.57272 H 507.5801 c -1.30395,-2e-5 -2.25914,-1.22735 -1.93899,-2.49116 4.17561,-16.48335 9.78905,-32.56865 16.77578,-48.07097 0.3232,-0.71714 1.03676,-1.17823 1.82381,-1.1782 h 58.01538 c 5.19041,-4e-5 9.00669,4.86653 7.76905,9.90746 -0.72211,2.94116 -1.78549,5.78784 -3.1685,8.48212 -2.73968,5.33725 -8.23489,8.69339 -14.23401,8.69343 l -5.87634,-1e-5 c 3.34944,5.32346 5.89174,11.1139 7.54389,17.18266 0.237,0.87056 1.02753,1.47464 1.93039,1.47469 h 5.82621 c 0.89038,-4e-5 1.33653,1.0771 0.70677,1.7071 l -4.00024,3.99998 c -0.18749,0.18751 -0.44184,0.29287 -0.70677,0.2929 z"
         sodipodi:nodetypes="ccccccccccccccccccccccccccc"
         inkscape:label="R" /><path
         id="path180"
         style="display:inline;fill:url(#linearGradient45);fill-opacity:1;stroke:#000000;stroke-width:1;stroke-linecap:round;stroke-dasharray:none;stroke-opacity:1"
         d="m 670.62671,217.46236 3.99892,-3.99998 c 0.63059,-0.62999 0.18441,-1.70715 -0.70678,-1.7071 h -65.23031 c -0.75758,-3e-5 -1.45038,0.4284 -1.78898,1.10649 -6.64328,13.3042 -11.7481,27.32243 -15.21555,41.78313 -0.94387,3.93633 1.90097,7.76868 5.94201,8.00459 19.52602,1.13989 39.10226,1.12797 58.62688,-0.0357 2.36692,-0.14105 4.50153,-1.47072 5.67171,-3.53297 3.66026,-6.45058 6.40761,-13.37792 8.16346,-20.58378 0.30687,-1.25937 -0.64692,-2.47347 -1.94292,-2.47343 h -32.9487 c -0.72615,-4e-5 -1.21018,0.74888 -0.91228,1.4106 l 1.942,4.31128 c 0.16171,0.3586 0.51854,0.58922 0.91229,0.58926 l 8.18659,3e-5 c -2.56377,4.05129 -4.40272,8.51857 -5.43351,13.2013 -0.18379,0.83495 -0.87799,1.46074 -1.72746,1.55727 -7.16086,0.81359 -14.38939,0.83884 -21.55576,0.0753 -1.16073,-0.12366 -1.96932,-1.21094 -1.75372,-2.35815 2.35134,-12.51109 6.48008,-24.62155 12.2608,-35.96347 0.34147,-0.66999 1.0299,-1.09181 1.78178,-1.09181 h 41.02142 c 0.26575,0 0.52012,-0.10535 0.70811,-0.29289 z"
         sodipodi:nodetypes="cccccccccccccccccccccccc"
         inkscape:label="G" /><path
         id="path203"
         style="display:inline;fill:url(#linearGradient46);fill-opacity:1;stroke:#000000;stroke-width:1;stroke-linecap:round;stroke-dasharray:none;stroke-opacity:1"
         d="M 726.85315,234.45153 H 702.2664 c -3.09989,8.99409 -5.65917,18.16564 -7.66376,27.46547 -0.19852,0.92101 -1.01292,1.57857 -1.95465,1.57861 H 674.0663 c -1.28029,-3e-5 -2.2308,-1.1855 -1.95261,-2.43475 3.69438,-16.59036 8.94142,-32.79635 15.67177,-48.40374 0.31616,-0.73317 1.0381,-1.20805 1.83633,-1.20799 h 18.82264 c 1.45185,-6e-5 2.41995,1.49745 1.82411,2.82097 -2.09936,4.66327 -4.04818,9.39286 -5.84347,14.18145 h 26.427 c 0.20965,-1e-5 0.41356,0.0656 0.58351,0.18754 1.94546,-5.35312 3.9938,-10.66829 6.14389,-15.94254 0.30691,-0.75286 1.03902,-1.24502 1.8523,-1.245 h 18.53742 c 1.36512,-2e-5 2.32902,1.33658 1.89871,2.63151 L 743.87996,262.127 c -0.27166,0.81724 -1.03619,1.36858 -1.89738,1.36861 h -18.98442 c -1.3242,-4e-5 -2.28272,-1.26261 -1.92703,-2.5375 2.79684,-10.02466 5.94549,-19.94782 9.43964,-29.75112 l -2.95085,2.95165 c -0.18781,0.18753 -0.44217,0.29289 -0.70677,0.29289 z"
         sodipodi:nodetypes="cccccccccccccccccccccccc"
         inkscape:label="H" /></g></g><g
     id="g5"
     transform="matrix(4.8377066,0,0,4.8377066,2631.1272,-765.42595)"
     inkscape:label="Sega"
     style="display:inline"><g
       id="g30"
       style="display:none"
       transform="matrix(0.03162901,0,0,0.03162901,-529.59534,158.22083)"
       inkscape:label="SEGA_Outline"><path
         class="st0"
         d="M 2760,123.3 C 2737.4,51.4 2669.4,0 2591.4,0 2513.3,0 2445.5,51.4 2422.8,123.3 l -59.6,176.8 V 10.2 h -312.3 c -55.5,0 -106.8,22.6 -145.9,59.6 V 10.2 h -320.6 c -59.6,0 -113,24.7 -152.1,65.8 V 10.2 h -304.1 c -129.5,0 -236.3,106.8 -236.3,236.3 0,61.7 24.7,119.2 63.7,160.4 H 891.9 V 682.3 H 1196 c 86.2,0 160.3,-45.3 203.4,-115.1 35,67.7 104.8,115.1 187,115.1 h 322.7 v -59.6 c 37,37 88.3,59.6 145.9,59.6 h 892 z"
         id="path20-4"
         style="display:inline;fill:#ffffff"
         inkscape:label="SEGA_Outline" /></g><g
       id="g2"
       transform="matrix(0.03162901,0,0,0.03162901,-489.47556,186.14558)"
       style="display:inline"
       inkscape:label="SEGA"><path
         id="path21-5"
         style="display:inline;fill:#034693"
         class="st1"
         d="m 1320.9519,-835.58323 c -59.5,0 -108.9008,39 -123.3008,92.5 l -149.9004,439.79884 V -625.98362 H 821.65106 v 80.09961 h 148 v 217.80079 h -185 c -45.3,0 -80.0996,-37.00157 -80.0996,-80.10157 v -256.89844 c 0,-45.3 36.9996,-80.10156 80.0996,-80.10156 h 265.09964 v -80 H 782.55146 c -88.3,0 -160.3008,72.00078 -160.3008,160.30078 v 256.9004 c 0,88.3 72.0008,160.29883 160.3008,160.29883 h 330.80084 l 166.5,-482.89845 c 6.2,-18.5 22.5992,-30.80078 43.1992,-30.80078 20.6,0 36.9993,12.30078 43.1993,30.80078 l 135.7011,402.79884 h -213.7011 v 79.90039 h 324.7011 l -166.7011,-493.19923 c -16.4,-53.4 -65.7989,-94.5 -125.2989,-94.5 z m -1461.20124,10.29883 c -104.8,0 -188.99997,84.3 -188.99997,189 0,104.7 84.29997,189 188.99997,189 h 65.800796 c 6.2,0 10.1992,4.10118 10.1992,10.20118 0.1,6.2 -4.0988,10.39843 -8.2988,10.39843 H -329.24931 v 80.10157 h 256.800766 c 49.2,0 90.4004,-41.20039 90.4004,-90.40039 0,-49.2 -41.2004,-90.4004 -90.4004,-90.4004 h -65.800796 c -59.6,0 -108.8984,-49.20039 -108.8984,-108.90039 0,-59.7 49.2984,-108.90039 108.8984,-108.90039 h 254.9004 v -80.09961 z m 456.3008,0 c -88.3,0 -160.3008,72.00078 -160.3008,160.30078 v 256.9004 c 0,88.3 72.0008,160.29883 160.3008,160.29883 h 275.3008 V -327.884 h -275.3008 c -45.3,0 -80.0996,-36.99961 -80.0996,-80.09961 v -257.00001 c 0,-45.3 36.9996,-80.09961 80.0996,-80.09961 h 275.3008 v -80.20117 z m 1006.80084,82.09961 c -10.2,0 -20.6012,8.30039 -24.7012,16.40039 l -164.4004,478.9004 h 94.5001 l 57.6015,-170.5 v 72 l 2.0996,-0.0996 h 187 l -127.4004,-378.20119 c -4.1,-10.2 -12.2992,-18.5 -24.6992,-18.5 z m -1463.10164,16.5 c -49.2,0 -90.3984,41.20039 -90.3984,90.40039 0,49.2 41.1984,90.40039 90.3984,90.40039 h 65.800796 c 59.6,0 108.9004,49.2004 108.9004,108.9004 0,59.7 -49.2004,108.90039 -108.9004,108.90039 H -329.24931 v 80.09961 h 256.800766 c 104.8,0 189.000004,-84.3 189.000004,-189 0,-104.7 -84.300004,-189.00001 -189.000004,-189.00001 h -65.800796 c -6.2,0 -10.1992,-4.10117 -10.1992,-10.20117 -0.1,-4.2 4.0992,-8.29883 8.1992,-8.29883 h 256.9004 v -82.20117 z m 456.2012,0 c -35,0 -61.7012,26.80117 -61.7012,61.70117 v 119.19922 h 279.5 v -80.19922 h -199.1992 c 0,-10.2 8.3,-18.5 18.5,-18.5 h 236.3008 v -82.20117 z m 466.5,0 c -35,0 -61.7012,26.80117 -61.7012,61.70117 v 256.9004 c 0,35 26.8012,61.69922 61.7012,61.69922 h 166.5 v -181.00001 h -127.4004 v 80.09961 h 47.3008 v 18.50001 h -47.3008 c -10.2,0 -18.5,-8.30001 -18.5,-18.50001 v -180.69922 c 0,-10.2 8.3,-18.5 18.5,-18.5 h 228.09964 v -80.09961 z m -528.0996,201.40039 v 119.20118 c 0,35 26.7992,61.69922 61.6992,61.69922 h 275.3008 v -80.19922 h -238.4004 c -10.3,-2.1 -18.4004,-10.30157 -18.4004,-20.60157 h 199.3008 v -80.09961 z m 1066.59964,6.20118 26.7989,82.19922 h -55.5 z"
         inkscape:label="SEGA" /></g></g><path
     d="m 86.547128,190.5708 c -0.193392,-2.1e-4 -0.366152,0.12066 -0.432532,0.3023 -2.591313,7.12841 -5.013184,14.27501 -7.265706,21.44004 -0.254107,0.79658 -1.181383,1.38734 -1.820044,0.65939 -0.212558,-0.23835 -0.283228,-0.57047 -0.185518,-0.8723 l 4.745446,-14.40119 c 0.06963,-0.2116 -0.08628,-0.42953 -0.309025,-0.43253 H 10.593107 c -0.274998,4e-5 -0.518243,0.17423 -0.6040973,0.43253 l -7.7535319,23.61717 c -0.079222,0.24797 0.1011981,0.50174 0.3570841,0.50178 l 631.9366181,-5.2e-4 c 0.17044,-0.0323 0.32608,-0.22778 0.493,-0.30283 2.59116,-7.12805 5.01278,-14.27485 7.26519,-21.43951 0.2541,-0.79658 1.18138,-1.38683 1.82004,-0.65888 0.21252,0.23835 0.28322,0.57047 0.18552,0.8723 l -4.74545,14.40067 c -0.0696,0.2116 0.0863,0.42953 0.30903,0.43253 h 72.58368 c 0.0637,-0.0524 0.16236,-0.0552 0.19172,-0.13694 l 7.96592,-23.89208 c 0.0839,-0.25709 -0.1073,-0.52129 -0.37775,-0.52193 z"
     style="stroke-width:0.686744"
     id="path21"
     inkscape:label="Bar" /><g
     id="g13"
     inkscape:label="UniversalCabinet"
     transform="translate(0.7213577)"><path
       style="font-size:25.5624px;line-height:0;font-family:'Palatino Linotype';-inkscape-font-specification:'Palatino Linotype';letter-spacing:0px;word-spacing:0px;fill:#ffffff;stroke:#ffffff;stroke-width:0.5;stroke-linecap:square;stroke-miterlimit:10;paint-order:stroke fill markers"
       d="m 174.13394,204.24668 0.0999,-0.0874 q 3.09545,0.0999 3.56975,0.0999 0.42438,0 3.58223,-0.0999 l 0.0999,0.0874 v 0.62408 l -0.0999,0.0874 q -0.86123,0.025 -1.33553,0.0749 -0.46182,0.0499 -0.67401,0.18723 -0.21219,0.1373 -0.28708,0.64904 -0.0624,0.49927 -0.0624,1.39795 l -0.025,2.87078 v 3.96916 q 0,1.95961 0.0749,2.88326 0.0874,0.91116 0.34949,1.54772 0.27459,0.62408 0.82378,1.0859 0.5492,0.44934 1.57269,0.73642 1.0235,0.28708 2.32159,0.28708 1.37298,0 2.55873,-0.37445 1.19824,-0.38693 1.82232,-1.11087 0.62408,-0.72393 0.81131,-1.89721 0.19971,-1.18575 0.19971,-3.28267 v -3.84434 q 0,-0.97357 -0.0375,-2.67108 -0.025,-1.70998 -0.14978,-1.95961 -0.11233,-0.26212 -0.43686,-0.38693 -0.31204,-0.1373 -1.75991,-0.16227 l -0.0999,-0.0999 v -0.58664 l 0.0999,-0.11233 q 1.84728,0.0999 2.95815,0.0999 0.94861,0 2.94567,-0.0999 l 0.11233,0.0999 v 0.59912 l -0.11233,0.0999 q -1.17328,0.025 -1.53524,0.0999 -0.34949,0.0624 -0.49927,0.1997 -0.1373,0.1373 -0.21219,0.42438 -0.0624,0.28708 -0.0874,1.64758 l -0.0374,2.80837 v 3.79441 q 0,2.27166 -0.17475,3.58224 -0.17474,1.31057 -0.78634,2.15932 -0.59912,0.83627 -1.43539,1.41042 -0.82379,0.56168 -2.12188,0.86124 -1.29809,0.31204 -2.69603,0.31204 -1.74743,0 -3.09545,-0.38693 -1.33553,-0.38693 -2.1094,-1.0235 -0.77386,-0.63656 -1.11086,-1.33553 -0.33701,-0.71146 -0.43686,-1.66006 -0.0998,-0.96109 -0.0998,-2.9207 v -4.79295 l -0.025,-2.43392 q -0.0125,-1.42291 -0.0749,-1.83481 -0.0499,-0.41189 -0.17474,-0.54919 -0.11233,-0.1373 -0.44934,-0.22467 -0.337,-0.0874 -1.66006,-0.1373 l -0.0999,-0.0874 z m 9.74816,-1.01101 z m -0.0749,19.3091 z"
       id="text53-4-8-3"
       inkscape:label="U"
       transform="matrix(1.0297365,0,-0.32439999,0.97112222,0,0)"
       aria-label="U" /><path
       style="font-size:25.5624px;line-height:0;font-family:'Palatino Linotype';-inkscape-font-specification:'Palatino Linotype';letter-spacing:0px;word-spacing:0px;fill:#ffffff;stroke:#ffffff;stroke-width:0.5;stroke-linecap:square;stroke-miterlimit:10;paint-order:stroke fill markers"
       d="m 204.0783,221.82083 -0.11233,-0.11233 v -0.57416 l 0.11233,-0.0999 q 0.76139,-0.0125 1.21072,-0.0874 0.46182,-0.0749 0.58664,-0.24964 0.1373,-0.17474 0.17474,-0.56167 0.0499,-0.38693 0.0874,-1.74743 0.0499,-1.3605 0.0499,-1.94714 V 206.356 q 0,-0.63657 -0.23715,-0.93613 -0.22467,-0.31204 -0.62408,-0.38693 -0.39941,-0.0874 -1.3605,-0.0999 l -0.0999,-0.0999 v -0.58664 l 0.0999,-0.11233 q 1.72247,0.0624 2.25918,0.0624 1.26064,0 2.07195,-0.0624 l 3.98164,5.1674 5.85389,7.3392 q 1.06094,1.33554 2.15933,2.53377 v -9.66079 q 0,-0.44934 -0.0499,-1.90969 -0.0374,-1.47283 -0.0999,-1.85976 -0.0624,-0.39942 -0.22467,-0.53671 -0.14978,-0.1373 -0.58664,-0.19971 -0.42438,-0.0749 -1.16079,-0.0874 l -0.0999,-0.0999 v -0.57416 l 0.0999,-0.11233 q 1.01101,0.0624 2.88326,0.0624 1.70998,0 2.48384,-0.0624 l 0.11234,0.11233 v 0.57416 l -0.0999,0.0999 q -0.82378,0.0125 -1.27312,0.0999 -0.44934,0.0749 -0.56168,0.26212 -0.11233,0.18722 -0.16226,0.54919 -0.0374,0.36197 -0.0874,1.72247 -0.0374,1.36049 -0.0374,1.95961 v 5.92878 l 0.0125,3.43245 q 0.025,1.68503 0.0499,3.38253 -0.62408,-0.21219 -2.15932,-0.52423 l -0.8862,-1.04846 -2.65859,-3.24523 -8.46255,-10.57194 v 9.57341 q 0,0.57416 0.0375,2.04699 0.0499,1.47284 0.11233,1.78488 0.0624,0.31204 0.16226,0.43685 0.0999,0.11234 0.42438,0.21219 0.337,0.0999 1.37298,0.11234 l 0.0999,0.0999 v 0.58664 l -0.0999,0.0999 q -0.64905,-0.0874 -2.09692,-0.0874 -1.85976,0 -3.25771,0.0874 z"
       id="text53-4-8-8"
       inkscape:label="N"
       transform="matrix(1.0297365,0,-0.32439999,0.97112222,0,0)"
       aria-label="N" /><path
       style="font-size:25.5624px;line-height:0;font-family:'Palatino Linotype';-inkscape-font-specification:'Palatino Linotype';letter-spacing:0px;word-spacing:0px;fill:#ffffff;stroke:#ffffff;stroke-width:0.5;stroke-linecap:square;stroke-miterlimit:10;paint-order:stroke fill markers"
       d="m 237.58526,204.52128 1.56021,0.0499 q 1.53524,0.0499 2.00954,0.0499 0.42438,0 3.58223,-0.0999 l 0.0999,0.0874 v 0.62408 l -0.0999,0.0874 q -0.86123,0.025 -1.33553,0.0749 -0.46182,0.0499 -0.67401,0.18723 -0.21219,0.1373 -0.28708,0.64904 -0.0624,0.49927 -0.0624,1.39795 l -0.025,2.87077 v 5.779 l 0.0125,2.43392 q 0.0125,1.41043 0.0749,1.82232 0.0624,0.4119 0.17474,0.5492 0.12482,0.13729 0.46183,0.23715 0.337,0.0874 1.66005,0.1373 l 0.0999,0.0749 v 0.62409 l -0.0999,0.0999 q -0.0624,0 -2.19677,-0.0749 -0.88619,-0.025 -1.38546,-0.025 -0.38693,0 -3.56975,0.0999 l -0.0999,-0.0999 v -0.62409 l 0.0999,-0.0749 q 1.1608,-0.0499 1.54773,-0.12482 0.38693,-0.0749 0.51174,-0.18723 0.1373,-0.12481 0.21219,-0.51174 0.0874,-0.38693 0.0999,-1.72247 l 0.0125,-2.63363 v -5.779 l -0.025,-2.43392 q -0.0125,-1.4229 -0.0749,-1.8348 -0.0499,-0.41189 -0.17474,-0.54919 -0.11233,-0.1373 -0.44934,-0.22467 -0.337,-0.0874 -1.66006,-0.1373 l -0.0999,-0.0874 v -0.62408 z m 3.7445,-0.92364 z m -0.17475,19.3091 z"
       id="text53-4-8-8-7"
       inkscape:label="I"
       transform="matrix(1.0297365,0,-0.32439999,0.97112222,0,0)"
       aria-label="I" /><path
       style="font-size:25.5624px;line-height:0;font-family:'Palatino Linotype';-inkscape-font-specification:'Palatino Linotype';letter-spacing:0px;word-spacing:0px;fill:#ffffff;stroke:#ffffff;stroke-width:0.5;stroke-linecap:square;stroke-miterlimit:10;paint-order:stroke fill markers"
       d="m 266.42563,222.25769 q -0.18723,-0.54919 -1.56021,-4.19383 l -4.24376,-10.49706 q -0.72393,-1.79736 -0.91116,-2.03451 -0.18722,-0.24963 -1.49779,-0.337 l -0.11234,-0.11234 v -0.57415 l 0.11234,-0.11234 q 1.90969,0.0999 3.24522,0.0999 1.24817,0 3.30764,-0.0999 l 0.0998,0.0999 v 0.68649 l -0.0998,0.0999 q -1.51028,0 -1.80984,0.0999 -0.28708,0.0874 -0.28708,0.34949 0,0.14978 0.39941,1.33553 0.39942,1.17328 0.71146,1.98458 l 3.90675,9.87298 3.25771,-8.18796 q 0.337,-0.83627 0.98605,-2.69603 0.64904,-1.85976 0.64904,-2.23421 0,-0.31204 -0.31204,-0.39942 -0.29956,-0.0874 -1.82232,-0.21218 l -0.11233,-0.0999 v -0.59912 l 0.11233,-0.0999 q 2.18429,0.0999 2.78341,0.0999 0.48678,0 2.52129,-0.0999 l 0.0999,0.0999 v 0.59912 l -0.0999,0.0999 q -0.89868,0.0374 -1.0859,0.13729 -0.18723,0.0999 -0.33701,0.38694 -0.13729,0.28707 -0.88619,1.97209 l -3.89427,9.5859 q -1.31058,3.20779 -1.85977,4.98018 z"
       id="text53-4-8-8-86"
       inkscape:label="V"
       transform="matrix(1.0297365,0,-0.32439999,0.97112222,0,0)"
       aria-label="V" /><path
       style="font-size:25.5624px;line-height:0;font-family:'Palatino Linotype';-inkscape-font-specification:'Palatino Linotype';letter-spacing:0px;word-spacing:0px;fill:#ffffff;stroke:#ffffff;stroke-width:0.5;stroke-linecap:square;stroke-miterlimit:10;paint-order:stroke fill markers"
       d="m 289.37051,204.60865 0.0999,-0.0874 q 4.28121,0.0749 5.47944,0.0749 4.09398,0 7.28928,-0.0749 l 0.0624,0.0874 q -0.31204,1.19824 -0.46182,3.75697 l -0.0749,0.0999 h -0.6116 l -0.11234,-0.0999 q 0.0125,-0.11233 0.0125,-0.1997 0,-1.06094 -0.16226,-2.02203 -0.78635,-0.34948 -2.18429,-0.44934 -1.38546,-0.11233 -2.08444,-0.11233 -0.98605,0 -2.52129,0.1373 l -0.0499,1.99706 -0.0374,2.28414 -0.0374,2.53377 q 1.34801,0.0749 2.48384,0.0749 1.14831,0 1.92218,-0.0749 0.77386,-0.0749 0.89867,-0.14978 0.1373,-0.0874 0.19971,-0.31204 0.0749,-0.23715 0.12482,-0.82379 l 0.0499,-0.77386 0.0999,-0.0999 h 0.57415 l 0.0999,0.0999 q -0.025,1.3605 -0.0624,2.73348 l 0.0624,2.80837 -0.0999,0.0998 h -0.57415 l -0.0999,-0.0998 -0.0874,-0.7489 q -0.11233,-0.87371 -0.16226,-1.03598 -0.0499,-0.17474 -0.23715,-0.29955 -0.17474,-0.12482 -0.92364,-0.19971 -0.7489,-0.0749 -2.05947,-0.0749 -0.72394,0 -2.20925,0.0624 -0.0624,1.04846 -0.0624,3.49486 0,2.62114 0.0624,3.85682 h 2.29662 q 3.03304,0 3.79442,-0.0749 0.76138,-0.0749 1.44787,-0.36196 0.11233,-0.28708 0.36196,-1.32306 0.26212,-1.04846 0.29956,-1.31057 l 0.12482,-0.0874 h 0.59912 l 0.0999,0.0874 q -0.11233,0.53671 -0.22467,1.87225 -0.0998,1.33553 -0.0998,2.28414 l -0.0874,0.0999 q -2.384,-0.0749 -6.24082,-0.0749 l -3.39501,-0.025 q -1.18575,0 -2.47136,0.0999 l -0.0999,-0.0999 v -0.4119 l 0.0999,-0.12481 q 0.73641,-0.37445 0.83627,-0.46182 0.11233,-0.0999 0.17474,-2.18429 0.0749,-2.09692 0.0749,-3.1953 v -4.58076 l -0.0125,-2.83334 q 0,-0.92364 -0.025,-1.49779 -0.025,-0.58664 -0.0874,-0.83627 -0.0624,-0.24964 -0.14978,-0.34949 -0.0749,-0.0999 -0.26211,-0.16226 -0.17474,-0.0749 -0.6116,-0.12482 l -0.94861,-0.0749 -0.0999,-0.0874 z m 7.12702,-1.01101 z m -0.0499,19.3091 z"
       id="text53-4-8-8-86-0"
       inkscape:label="E"
       transform="matrix(1.0297365,0,-0.32439999,0.97112222,0,0)"
       aria-label="E" /><path
       style="font-size:25.5624px;line-height:0;font-family:'Palatino Linotype';-inkscape-font-specification:'Palatino Linotype';letter-spacing:0px;word-spacing:0px;fill:#ffffff;stroke:#ffffff;stroke-width:0.5;stroke-linecap:square;stroke-miterlimit:10;paint-order:stroke fill markers"
       d="m 316.89309,204.60865 0.0999,-0.0874 q 2.28414,0.0999 3.55727,0.0999 1.41042,0 3.8069,-0.0874 0.88619,-0.025 1.28561,-0.025 3.15785,0 4.2812,1.14831 1.12335,1.14831 1.12335,2.721 0,1.04845 -0.5492,2.05947 -0.54919,1.01101 -1.62261,1.73494 -1.07342,0.71146 -2.95815,1.07343 0.34949,0.48678 1.26065,1.68502 l 1.77239,2.34655 q 0.86123,1.16079 1.84728,2.45888 0.98605,1.28561 1.27313,1.46035 0.28708,0.16226 0.48678,0.19971 0.21219,0.0374 0.66153,0.0374 l 0.0999,0.0999 v 0.58664 l -0.11233,0.11234 q -0.59912,-0.0749 -1.42291,-0.0749 -0.88619,0 -1.93465,0.0749 -0.86123,-1.04846 -2.70852,-3.63216 -2.14684,-2.99559 -4.39354,-5.55433 l 0.12482,-0.38693 q 0.64905,0.0374 1.01101,0.0374 2.15933,0 3.38253,-1.03597 1.2232,-1.03598 1.2232,-2.87078 0,-1.64758 -1.09839,-2.48385 -1.09838,-0.84875 -2.97063,-0.84875 -1.31057,0 -2.47136,0.36197 -0.18723,0.27459 -0.18723,4.68061 v 5.779 l 0.0125,2.43392 q 0.0125,1.41043 0.0749,1.82232 0.0624,0.4119 0.17474,0.5492 0.12482,0.13729 0.46182,0.23715 0.337,0.0874 1.66006,0.1373 l 0.0999,0.0749 v 0.62409 l -0.0999,0.0999 q -0.0624,0 -2.19677,-0.0749 -0.8862,-0.025 -1.38546,-0.025 -0.38693,0 -3.56975,0.0999 l -0.0999,-0.0999 v -0.62409 l 0.0999,-0.0749 q 1.16079,-0.0499 1.54772,-0.12482 0.38693,-0.0749 0.51175,-0.18723 0.1373,-0.12481 0.21219,-0.51174 0.0874,-0.38693 0.0999,-1.72247 l 0.0125,-2.63363 v -5.779 l -0.025,-2.43392 q -0.0125,-1.4229 -0.0749,-1.8348 -0.0499,-0.41189 -0.17474,-0.54919 -0.11234,-0.1373 -0.44934,-0.22467 -0.33701,-0.0874 -1.66006,-0.1373 l -0.0999,-0.0874 z"
       id="text53-4-8-8-86-0-0-8"
       inkscape:label="R"
       transform="matrix(1.0297365,0,-0.32439999,0.97112222,0,0)"
       aria-label="R" /><path
       style="font-size:25.5624px;line-height:0;font-family:'Palatino Linotype';-inkscape-font-specification:'Palatino Linotype';letter-spacing:0px;word-spacing:0px;fill:#ffffff;stroke:#ffffff;stroke-width:0.5;stroke-linecap:square;stroke-miterlimit:10;paint-order:stroke fill markers"
       d="m 346.66265,217.50218 0.0999,-0.0999 h 0.6116 l 0.0999,0.0999 q 0.0624,1.59765 0.16226,1.95962 0.11234,0.34949 0.67401,0.7489 0.57416,0.38693 1.51028,0.63656 0.9486,0.24964 1.90969,0.24964 1.32306,0 2.37151,-0.48679 1.06094,-0.48678 1.64758,-1.42291 0.58664,-0.9486 0.58664,-2.12187 0,-0.82379 -0.28708,-1.43539 -0.2746,-0.6116 -0.78634,-0.97357 -0.49927,-0.37445 -1.14832,-0.54919 -0.64904,-0.18723 -1.93465,-0.39942 -1.24816,-0.1997 -1.95962,-0.36196 -0.69897,-0.16226 -1.39794,-0.49927 -0.69897,-0.337 -1.17328,-0.84875 -0.46182,-0.52423 -0.74889,-1.27313 -0.2746,-0.76138 -0.2746,-1.62261 0,-2.33407 1.62261,-3.81938 1.62262,-1.4978 4.3561,-1.4978 1.0859,0 2.35903,0.2746 1.28561,0.26211 2.33406,0.78634 l 0.0874,0.14978 q -0.27459,1.14831 -0.337,3.27019 l -0.11233,0.0999 H 356.286 l -0.0999,-0.0874 q -0.025,-1.4978 -0.0749,-1.88473 -0.0499,-0.38693 -1.13583,-0.96108 -1.0859,-0.57416 -2.35903,-0.57416 -1.06094,0 -1.98458,0.42438 -0.92364,0.42437 -1.39795,1.33553 -0.4743,0.91116 -0.4743,1.85977 0,0.73641 0.28708,1.31057 0.28708,0.56167 0.73642,0.89868 0.46182,0.32452 1.06093,0.48678 0.61161,0.16226 2.22174,0.39941 2.20925,0.31204 3.20778,0.76138 1.01101,0.43686 1.61013,1.39795 0.6116,0.96108 0.6116,2.32158 0,2.65859 -2.1718,4.43099 -2.15933,1.77239 -5.24229,1.77239 -2.5837,0 -4.53084,-0.92364 l -0.0749,-0.16226 q 0.12482,-0.78635 0.18722,-3.66961 z"
       id="text53-4-8-8-86-0-0-8-3"
       inkscape:label="S"
       transform="matrix(1.0297365,0,-0.32439999,0.97112222,0,0)"
       aria-label="S" /><path
       style="font-size:25.5624px;line-height:0;font-family:'Palatino Linotype';-inkscape-font-specification:'Palatino Linotype';letter-spacing:0px;word-spacing:0px;fill:#ffffff;stroke:#ffffff;stroke-width:0.5;stroke-linecap:square;stroke-miterlimit:10;paint-order:stroke fill markers"
       d="m 372.00299,222.25769 -0.11234,-0.0999 v -0.64905 l 0.11234,-0.0999 q 0.91116,-0.0125 1.17327,-0.0874 0.26212,-0.0874 0.46182,-0.32453 0.21219,-0.24963 0.83627,-1.59765 l 1.31058,-2.84581 3.395,-7.68869 q 0.96109,-2.25918 1.90969,-4.51835 h 0.81131 l 5.32966,12.53156 0.71145,1.67254 q 0.31205,0.71146 0.71146,1.54773 0.41189,0.83627 0.56167,0.98605 0.16226,0.14978 0.38693,0.23715 0.23715,0.0749 1.03598,0.0874 l 0.0999,0.0999 v 0.64905 l -0.0999,0.0999 q -1.32306,-0.11233 -2.38399,-0.11233 -2.07196,0.0624 -4.14391,0.11233 l -0.0999,-0.0999 v -0.64905 l 0.0999,-0.0999 q 1.39794,-0.025 1.74743,-0.11234 0.34949,-0.0999 0.34949,-0.43685 0,-0.2746 -0.17475,-0.72394 l -1.53524,-3.8069 h -7.22687 l -1.3605,3.1953 q -0.36197,0.86123 -0.36197,1.26065 0,0.31204 0.33701,0.46182 0.337,0.14978 1.6975,0.16226 l 0.11234,0.0999 v 0.64905 l -0.0999,0.0999 q -1.61013,-0.0999 -2.82085,-0.0999 -1.37298,0 -2.77092,0.0999 z m 5.69163,-7.0022 h 6.31571 l -3.13289,-7.52643 z m 3.78193,-11.65785 z m -0.28707,19.3091 z"
       id="text53-4-8-8-86-0-0"
       inkscape:label="A"
       transform="matrix(1.0297365,0,-0.32439999,0.97112222,0,0)"
       aria-label="A" /><path
       style="font-size:25.5624px;line-height:0;font-family:'Palatino Linotype';-inkscape-font-specification:'Palatino Linotype';letter-spacing:0px;word-spacing:0px;fill:#ffffff;stroke:#ffffff;stroke-width:0.5;stroke-linecap:square;stroke-miterlimit:10;paint-order:stroke fill markers"
       d="m 403.98236,204.60865 0.0998,-0.0874 q 3.09545,0.0999 3.56975,0.0999 0.42438,0 3.58223,-0.0999 l 0.0999,0.0874 v 0.62408 l -0.0999,0.0874 q -0.86123,0.025 -1.33553,0.0749 -0.46182,0.0499 -0.67401,0.18723 -0.21219,0.1373 -0.28708,0.64904 -0.0624,0.49927 -0.0624,1.39795 l -0.025,2.87077 v 5.51689 q 0,2.07195 0.025,2.89574 l 0.0624,2.15932 h 2.54626 q 3.04552,0 3.79441,-0.0749 0.76138,-0.0749 1.46036,-0.36196 0.13729,-0.31204 0.38693,-1.43539 0.26211,-1.12335 0.27459,-1.29809 l 0.11234,-0.0999 h 0.6116 l 0.0874,0.0999 q -0.0999,0.49926 -0.21219,1.93465 -0.0999,1.43539 -0.0999,2.32159 l -0.0999,0.0999 q -2.37152,-0.0749 -6.22834,-0.0749 l -3.64464,-0.025 q -1.24817,0 -2.54626,0.0999 l -0.0999,-0.0999 v -0.4119 l 0.0999,-0.12481 q 0.77386,-0.39942 0.84875,-0.48679 0.0749,-0.0874 0.14978,-1.61013 0.0874,-1.52276 0.0874,-3.6696 v -5.35463 l -0.025,-2.43392 q -0.0125,-1.4229 -0.0749,-1.8348 -0.0499,-0.41189 -0.17474,-0.54919 -0.11234,-0.1373 -0.44934,-0.22467 -0.337,-0.0874 -1.66006,-0.1373 l -0.0998,-0.0874 z"
       id="text53-4-8-8-86-0-0-8-0"
       inkscape:label="L"
       transform="matrix(1.0297365,0,-0.32439999,0.97112222,0,0)"
       aria-label="L" /><path
       style="font-size:25.5624px;line-height:0;font-family:'Palatino Linotype';-inkscape-font-specification:'Palatino Linotype';letter-spacing:0px;word-spacing:0px;fill:#ffffff;stroke:#ffffff;stroke-width:0.5;stroke-linecap:square;stroke-miterlimit:10;paint-order:stroke fill markers"
       d="m 485.40234,219.68647 -0.47431,1.16079 q -2.77092,1.41043 -5.91629,1.41043 -4.50588,0 -7.32673,-2.55874 -2.80837,-2.55873 -2.80837,-6.69016 0,-2.84581 1.39795,-4.96769 1.41042,-2.13436 3.70705,-3.18282 2.3091,-1.06094 5.17988,-1.06094 1.66005,0 3.28267,0.34949 1.62261,0.34948 2.70851,0.83627 l 0.0874,0.12481 q -0.28708,0.69898 -0.53671,3.45742 l -0.0874,0.0999 h -0.58663 l -0.0999,-0.0999 -0.12481,-2.12188 q -0.91116,-0.72394 -2.20925,-1.12335 -1.28561,-0.41189 -2.68356,-0.41189 -2.10939,0 -3.78193,0.91116 -1.67254,0.89868 -2.59618,2.62114 -0.92365,1.70999 -0.92365,4.19383 0,2.49633 1.08591,4.38106 1.0859,1.88473 2.95815,2.89574 1.88472,1.01101 4.39353,1.01101 1.11087,0 2.13436,-0.21218 1.0235,-0.21219 1.69751,-0.52423 0.68649,-0.31204 1.31057,-0.76138 z"
       id="text53-4-8-8-86-0-0-8-1"
       inkscape:label="C"
       transform="matrix(1.0297365,0,-0.32439999,0.97112222,0,0)"
       aria-label="C" /><path
       style="font-size:25.5624px;line-height:0;font-family:'Palatino Linotype';-inkscape-font-specification:'Palatino Linotype';letter-spacing:0px;word-spacing:0px;fill:#ffffff;stroke:#ffffff;stroke-width:0.5;stroke-linecap:square;stroke-miterlimit:10;paint-order:stroke fill markers"
       d="m 499.08987,222.25769 -0.11233,-0.0999 v -0.64905 l 0.11233,-0.0999 q 0.91116,-0.0125 1.17328,-0.0874 0.26211,-0.0874 0.46182,-0.32453 0.21219,-0.24963 0.83627,-1.59765 l 1.31057,-2.84581 3.39501,-7.68869 q 0.96108,-2.25918 1.90969,-4.51835 h 0.8113 l 5.32966,12.53156 0.71146,1.67254 q 0.31204,0.71146 0.71145,1.54773 0.4119,0.83627 0.56168,0.98605 0.16226,0.14978 0.38693,0.23715 0.23715,0.0749 1.03597,0.0874 l 0.0999,0.0999 v 0.64905 l -0.0999,0.0999 q -1.32305,-0.11233 -2.38399,-0.11233 -2.07195,0.0624 -4.14391,0.11233 l -0.0999,-0.0999 v -0.64905 l 0.0999,-0.0999 q 1.39795,-0.025 1.74743,-0.11234 0.34949,-0.0999 0.34949,-0.43685 0,-0.2746 -0.17474,-0.72394 l -1.53525,-3.8069 h -7.22687 l -1.36049,3.1953 q -0.36197,0.86123 -0.36197,1.26065 0,0.31204 0.337,0.46182 0.33701,0.14978 1.69751,0.16226 l 0.11233,0.0999 v 0.64905 l -0.0999,0.0999 q -1.61013,-0.0999 -2.82085,-0.0999 -1.37298,0 -2.77093,0.0999 z m 5.69163,-7.0022 h 6.31571 l -3.13289,-7.52643 z m 3.78194,-11.65785 z m -0.28708,19.3091 z"
       id="text53-4-8-8-86-0-0-4"
       inkscape:label="A"
       transform="matrix(1.0297365,0,-0.32439999,0.97112222,0,0)"
       aria-label="A" /><path
       style="font-size:25.5624px;line-height:0;font-family:'Palatino Linotype';-inkscape-font-specification:'Palatino Linotype';letter-spacing:0px;word-spacing:0px;fill:#ffffff;stroke:#ffffff;stroke-width:0.5;stroke-linecap:square;stroke-miterlimit:10;paint-order:stroke fill markers"
       d="m 531.11474,205.3201 -0.0998,-0.0874 v -0.62408 l 0.0998,-0.0874 q 2.13436,0.0999 3.29516,0.0999 0.43686,0 3.45741,-0.0999 0.97357,-0.025 1.41043,-0.025 1.68502,0 2.67107,0.33701 0.98605,0.337 1.58517,1.19824 0.59912,0.84875 0.59912,1.93465 0,1.38546 -0.99854,2.57122 -0.99853,1.18576 -3.24522,1.6975 1.34802,0.12482 2.22173,0.36197 0.87371,0.23715 1.51028,0.73642 0.63656,0.48678 0.99853,1.27312 0.37445,0.78635 0.37445,1.82232 0,0.81131 -0.24963,1.64758 -0.24964,0.83627 -0.92365,1.66006 -0.66152,0.82379 -1.61013,1.41042 -0.9486,0.58664 -1.94713,0.84876 -0.98605,0.26211 -2.45889,0.26211 -0.29956,0 -1.79735,-0.0624 -1.66006,-0.0374 -1.79736,-0.0374 -0.84875,0 -2.08443,0.0999 l -0.0999,-0.0999 v -0.4119 l 0.0999,-0.12481 q 0.72393,-0.32453 0.83627,-0.44934 0.11233,-0.12482 0.17474,-2.20925 0.0749,-2.08444 0.0749,-3.18282 v -4.58076 l -0.0125,-2.83334 q 0,-0.92364 -0.025,-1.49779 -0.025,-0.58664 -0.0749,-0.83627 -0.0375,-0.24964 -0.1373,-0.34949 -0.0999,-0.0999 -0.28708,-0.16226 -0.17474,-0.0749 -0.6116,-0.12482 z m 4.48091,6.55286 q 0.62409,0.0499 1.41043,0.0499 2.5837,0 3.59471,-0.92364 1.01101,-0.92364 1.01101,-2.53377 0,-0.93613 -0.38693,-1.58517 -0.38693,-0.66153 -1.2232,-1.01101 -0.82379,-0.34949 -2.24669,-0.34949 -1.1608,0 -2.04699,0.18722 -0.11234,1.12335 -0.11234,3.91924 z m 0.025,9.09912 q 0.96108,0.22467 1.9721,0.22467 1.78487,0 2.79588,-0.57415 1.01102,-0.57416 1.48532,-1.58517 0.48678,-1.0235 0.48678,-2.22174 0,-1.79735 -1.02349,-2.87077 -1.01101,-1.08591 -4.39354,-1.08591 -0.56167,0 -1.34802,0.0499 v 4.25624 z"
       id="text53-4-8-8-86-0-0-8-7"
       inkscape:label="B"
       transform="matrix(1.0297365,0,-0.32439999,0.97112222,0,0)"
       aria-label="B" /><path
       style="font-size:25.5624px;line-height:0;font-family:'Palatino Linotype';-inkscape-font-specification:'Palatino Linotype';letter-spacing:0px;word-spacing:0px;fill:#ffffff;stroke:#ffffff;stroke-width:0.5;stroke-linecap:square;stroke-miterlimit:10;paint-order:stroke fill markers"
       d="m 559.32779,204.52128 1.5602,0.0499 q 1.53524,0.0499 2.00955,0.0499 0.42437,0 3.58223,-0.0999 l 0.0998,0.0874 v 0.62408 l -0.0998,0.0874 q -0.86124,0.025 -1.33554,0.0749 -0.46182,0.0499 -0.67401,0.18723 -0.21219,0.1373 -0.28708,0.64904 -0.0624,0.49927 -0.0624,1.39795 l -0.025,2.87077 v 5.779 l 0.0125,2.43392 q 0.0125,1.41043 0.0749,1.82232 0.0624,0.4119 0.17475,0.5492 0.12481,0.13729 0.46182,0.23715 0.337,0.0874 1.66006,0.1373 l 0.0998,0.0749 v 0.62409 l -0.0998,0.0999 q -0.0624,0 -2.19677,-0.0749 -0.8862,-0.025 -1.38546,-0.025 -0.38694,0 -3.56975,0.0999 l -0.0999,-0.0999 v -0.62409 l 0.0999,-0.0749 q 1.16079,-0.0499 1.54772,-0.12482 0.38693,-0.0749 0.51175,-0.18723 0.1373,-0.12481 0.21219,-0.51174 0.0874,-0.38693 0.0998,-1.72247 l 0.0125,-2.63363 v -5.779 l -0.025,-2.43392 q -0.0125,-1.4229 -0.0749,-1.8348 -0.0499,-0.41189 -0.17475,-0.54919 -0.11233,-0.1373 -0.44934,-0.22467 -0.337,-0.0874 -1.66005,-0.1373 l -0.0999,-0.0874 v -0.62408 z m 3.74449,-0.92364 z m -0.17474,19.3091 z"
       id="text53-4-8-8-7-8"
       inkscape:label="I"
       transform="matrix(1.0297365,0,-0.32439999,0.97112222,0,0)"
       aria-label="I" /><path
       style="font-size:25.5624px;line-height:0;font-family:'Palatino Linotype';-inkscape-font-specification:'Palatino Linotype';letter-spacing:0px;word-spacing:0px;fill:#ffffff;stroke:#ffffff;stroke-width:0.5;stroke-linecap:square;stroke-miterlimit:10;paint-order:stroke fill markers"
       d="m 580.23767,221.82083 -0.11234,-0.11233 v -0.57416 l 0.11234,-0.0999 q 0.76138,-0.0125 1.21072,-0.0874 0.46182,-0.0749 0.58663,-0.24964 0.1373,-0.17474 0.17475,-0.56167 0.0499,-0.38693 0.0874,-1.74743 0.0499,-1.3605 0.0499,-1.94714 V 206.356 q 0,-0.63657 -0.23716,-0.93613 -0.22467,-0.31204 -0.62408,-0.38693 -0.39941,-0.0874 -1.3605,-0.0999 l -0.0998,-0.0999 v -0.58664 l 0.0998,-0.11233 q 1.72247,0.0624 2.25918,0.0624 1.26065,0 2.07195,-0.0624 l 3.98165,5.1674 5.85389,7.3392 q 1.06093,1.33554 2.15932,2.53377 v -9.66079 q 0,-0.44934 -0.0499,-1.90969 -0.0374,-1.47283 -0.0998,-1.85976 -0.0624,-0.39942 -0.22467,-0.53671 -0.14978,-0.1373 -0.58664,-0.19971 -0.42437,-0.0749 -1.16079,-0.0874 l -0.0998,-0.0999 v -0.57416 l 0.0998,-0.11233 q 1.01101,0.0624 2.88326,0.0624 1.70998,0 2.48385,-0.0624 l 0.11233,0.11233 v 0.57416 l -0.0999,0.0999 q -0.82379,0.0125 -1.27313,0.0999 -0.44934,0.0749 -0.56167,0.26212 -0.11234,0.18722 -0.16226,0.54919 -0.0374,0.36197 -0.0874,1.72247 -0.0374,1.36049 -0.0374,1.95961 v 5.92878 l 0.0125,3.43245 q 0.025,1.68503 0.0499,3.38253 -0.62409,-0.21219 -2.15933,-0.52423 l -0.88619,-1.04846 -2.65859,-3.24523 -8.46256,-10.57194 v 9.57341 q 0,0.57416 0.0375,2.04699 0.0499,1.47284 0.11233,1.78488 0.0624,0.31204 0.16227,0.43685 0.0998,0.11234 0.42437,0.21219 0.33701,0.0999 1.37298,0.11234 l 0.0998,0.0999 v 0.58664 l -0.0998,0.0999 q -0.64904,-0.0874 -2.09691,-0.0874 -1.85977,0 -3.25771,0.0874 z"
       id="text53-4-8-8-8"
       inkscape:label="N"
       transform="matrix(1.0297365,0,-0.32439999,0.97112222,0,0)"
       aria-label="N" /><path
       style="font-size:25.5624px;line-height:0;font-family:'Palatino Linotype';-inkscape-font-specification:'Palatino Linotype';letter-spacing:0px;word-spacing:0px;fill:#ffffff;stroke:#ffffff;stroke-width:0.5;stroke-linecap:square;stroke-miterlimit:10;paint-order:stroke fill markers"
       d="m 613.97396,204.60865 0.0999,-0.0874 q 4.2812,0.0749 5.47944,0.0749 4.09398,0 7.28928,-0.0749 l 0.0624,0.0874 q -0.31205,1.19824 -0.46183,3.75697 l -0.0749,0.0999 h -0.6116 l -0.11233,-0.0999 q 0.0125,-0.11233 0.0125,-0.1997 0,-1.06094 -0.16226,-2.02203 -0.78634,-0.34948 -2.18429,-0.44934 -1.38546,-0.11233 -2.08443,-0.11233 -0.98605,0 -2.52129,0.1373 l -0.0499,1.99706 -0.0374,2.28414 -0.0374,2.53377 q 1.34802,0.0749 2.48385,0.0749 1.14831,0 1.92217,-0.0749 0.77386,-0.0749 0.89868,-0.14978 0.1373,-0.0874 0.1997,-0.31204 0.0749,-0.23715 0.12482,-0.82379 l 0.0499,-0.77386 0.0999,-0.0999 h 0.57416 l 0.0998,0.0999 q -0.025,1.3605 -0.0624,2.73348 l 0.0624,2.80837 -0.0998,0.0998 h -0.57416 l -0.0999,-0.0998 -0.0874,-0.7489 q -0.11234,-0.87371 -0.16227,-1.03598 -0.0499,-0.17474 -0.23715,-0.29955 -0.17474,-0.12482 -0.92364,-0.19971 -0.7489,-0.0749 -2.05947,-0.0749 -0.72393,0 -2.20925,0.0624 -0.0624,1.04846 -0.0624,3.49486 0,2.62114 0.0624,3.85682 h 2.29662 q 3.03304,0 3.79442,-0.0749 0.76138,-0.0749 1.44787,-0.36196 0.11234,-0.28708 0.36197,-1.32306 0.26211,-1.04846 0.29956,-1.31057 l 0.12482,-0.0874 h 0.59911 l 0.0999,0.0874 q -0.11234,0.53671 -0.22467,1.87225 -0.0999,1.33553 -0.0999,2.28414 l -0.0874,0.0999 q -2.38399,-0.0749 -6.24082,-0.0749 l -3.395,-0.025 q -1.18576,0 -2.47137,0.0999 l -0.0999,-0.0999 v -0.4119 l 0.0999,-0.12481 q 0.73642,-0.37445 0.83627,-0.46182 0.11234,-0.0999 0.17474,-2.18429 0.0749,-2.09692 0.0749,-3.1953 v -4.58076 l -0.0125,-2.83334 q 0,-0.92364 -0.025,-1.49779 -0.025,-0.58664 -0.0874,-0.83627 -0.0624,-0.24964 -0.14978,-0.34949 -0.0749,-0.0999 -0.26212,-0.16226 -0.17474,-0.0749 -0.6116,-0.12482 l -0.9486,-0.0749 -0.0999,-0.0874 z m 7.12702,-1.01101 z m -0.0499,19.3091 z"
       id="text53-4-8-8-86-0-9"
       inkscape:label="E"
       transform="matrix(1.0297365,0,-0.32439999,0.97112222,0,0)"
       aria-label="E" /><path
       style="font-size:25.5624px;line-height:0;font-family:'Palatino Linotype';-inkscape-font-specification:'Palatino Linotype';letter-spacing:0px;word-spacing:0px;fill:#ffffff;stroke:#ffffff;stroke-width:0.5;stroke-linecap:square;stroke-miterlimit:10;paint-order:stroke fill markers"
       d="m 655.96537,204.52128 0.11233,0.11233 q -0.11233,1.12335 -0.11233,3.91924 l -0.0999,0.0999 h -0.58664 l -0.0998,-0.11233 -0.1373,-1.14831 q -0.0999,-0.92365 -0.16226,-1.12335 -0.0499,-0.21219 -0.17474,-0.29956 -0.12482,-0.0999 -0.81131,-0.16226 -0.68649,-0.0624 -1.53524,-0.0624 h -2.35903 q -0.0999,2.82085 -0.0999,3.25771 v 7.27679 l 0.025,2.43392 q 0.0125,1.41043 0.0624,1.83481 0.0624,0.41189 0.17474,0.54919 0.12482,0.12481 0.46182,0.22467 0.33701,0.0874 1.67254,0.1373 l 0.0874,0.0749 v 0.62409 l -0.0874,0.0999 q -3.1953,-0.0999 -3.56975,-0.0999 -0.39941,0 -3.55726,0.0999 l -0.0999,-0.0999 v -0.62409 l 0.0999,-0.0749 q 1.17327,-0.0499 1.54772,-0.12482 0.38693,-0.0749 0.51175,-0.18723 0.13729,-0.12481 0.22467,-0.51174 0.0874,-0.38693 0.0874,-1.72247 l 0.025,-2.63363 v -7.27679 q 0,-0.19971 -0.0998,-3.25771 h -1.85977 q -1.14831,0 -1.98458,0.0499 -0.83627,0.0499 -0.97357,0.26211 -0.12481,0.19971 -0.23715,1.33554 l -0.12481,1.14831 -0.11234,0.11233 H 641.599 l -0.0999,-0.0999 q -0.025,-3.00808 -0.11233,-3.91924 l 0.11233,-0.11233 q 2.17181,0.0999 7.22687,0.0999 5.15492,0 7.23936,-0.0999 z"
       id="text53-4-8-8-86-0-9-0"
       inkscape:label="T"
       transform="matrix(1.0297365,0,-0.32439999,0.97112222,0,0)"
       aria-label="T" /></g></svg>
