<?xml version="1.0" encoding="UTF-8" standalone="no"?>
<!DOCTYPE svg PUBLIC "-//W3C//DTD SVG 1.1//EN" "http://www.w3.org/Graphics/SVG/1.1/DTD/svg11.dtd">
<svg xmlns="http://www.w3.org/2000/svg" version="1.1" viewBox="0 0 1070 240">
<g stroke-width="2.00" fill="none" stroke-linecap="butt">
<path stroke="#808080" vector-effect="non-scaling-stroke" d="
  M 674.14 153.82
  Q 665.14 165.02 656.94 175.43
  Q 655.42 177.36 653.02 177.56
  C 652.72 177.59 652.55 177.72 652.49 178.00
  A 0.50 0.50 0.0 0 0 652.94 178.59
  C 654.37 178.73 661.00 179.11 661.38 178.26
  A 0.44 0.43 17.9 0 0 661.06 177.65
  L 659.28 177.31
  A 0.71 0.71 0.0 0 1 658.86 176.18
  L 662.93 170.91
  A 1.05 1.03 18.3 0 1 663.76 170.50
  L 672.82 170.50
  A 0.69 0.68 84.9 0 1 673.49 171.07
  L 674.29 175.78
  A 1.01 1.01 0.0 0 1 673.88 176.78
  Q 672.49 177.77 670.70 177.57
  A 0.42 0.41 3.1 0 0 670.24 177.98
  L 670.25 178.26
  A 0.51 0.51 0.0 0 0 670.76 178.76
  L 680.22 178.73
  A 0.47 0.47 0.0 0 0 680.38 177.81
  C 678.04 176.97 677.99 175.07 677.75 172.84
  Q 676.71 163.08 675.39 154.15
  Q 675.15 152.55 674.14 153.82"
/>
<path stroke="#808080" vector-effect="non-scaling-stroke" d="
  M 426.96 175.59
  L 427.23 172.81
  A 0.40 0.39 -63.8 0 0 427.13 172.50
  L 426.91 172.27
  A 0.43 0.43 0.0 0 0 426.20 172.41
  L 424.24 177.56
  A 0.62 0.62 0.0 0 0 424.61 178.36
  C 431.87 180.93 442.11 178.20 444.36 169.95
  C 446.68 161.43 430.15 166.81 433.52 159.75
  Q 436.21 154.11 442.78 155.48
  Q 445.86 156.12 444.52 159.29
  A 0.46 0.45 -72.0 0 0 444.83 159.91
  C 445.79 160.15 447.18 156.23 447.40 155.27
  A 0.58 0.58 0.0 0 0 447.04 154.60
  Q 437.90 151.08 432.00 157.41
  C 429.09 160.53 427.81 165.84 433.50 167.00
  Q 438.09 167.94 440.04 168.82
  A 0.84 0.84 0.0 0 1 440.54 169.52
  C 441.16 176.51 432.50 179.01 427.37 176.35
  A 0.78 0.77 -73.6 0 1 426.96 175.59"
/>
<path stroke="#808080" vector-effect="non-scaling-stroke" d="
  M 468.56 177.27
  A 0.61 0.60 24.8 0 1 468.21 176.32
  L 472.29 170.90
  A 1.00 1.00 0.0 0 1 473.09 170.50
  L 482.63 170.50
  A 0.67 0.67 0.0 0 1 483.30 171.13
  L 483.65 176.49
  A 0.75 0.74 -5.9 0 1 483.01 177.27
  L 480.06 177.72
  A 0.47 0.47 0.0 0 0 479.74 178.44
  C 480.08 178.95 486.94 178.77 489.44 178.70
  Q 489.90 178.69 490.00 178.31
  A 0.55 0.54 -76.4 0 0 489.61 177.66
  C 488.47 177.38 487.88 177.04 487.70 175.77
  Q 486.21 165.14 485.01 154.29
  A 0.84 0.84 0.0 0 0 483.51 153.86
  Q 475.04 164.43 466.37 175.38
  Q 464.76 177.42 462.16 177.76
  A 0.39 0.39 0.0 0 0 461.88 178.34
  C 462.21 178.94 470.51 178.98 470.85 178.33
  A 0.43 0.42 20.6 0 0 470.57 177.72
  L 468.56 177.27"
/>
<path stroke="#808080" vector-effect="non-scaling-stroke" d="
  M 615.44 159.94
  C 612.04 163.33 609.64 169.39 611.60 173.94
  C 615.42 182.79 633.86 178.46 632.46 175.90
  A 0.56 0.56 0.0 0 0 631.74 175.66
  C 626.26 178.11 615.60 178.65 615.32 169.93
  Q 615.23 167.28 616.04 165.32
  Q 621.07 153.16 635.25 155.96
  A 1.47 1.46 15.1 0 1 636.35 157.87
  L 635.75 159.64
  A 0.53 0.53 0.0 0 0 636.21 160.34
  C 637.24 160.43 638.36 157.18 639.10 155.44
  A 0.47 0.47 0.0 0 0 638.82 154.82
  Q 625.17 150.22 615.44 159.94"
/>
<path stroke="#808080" vector-effect="non-scaling-stroke" d="
  M 176.41 156.49
  Q 171.38 169.60 170.97 173.75
  C 170.33 180.42 180.62 179.86 184.75 178.51
  C 192.87 175.84 194.88 163.65 197.26 156.49
  Q 197.79 154.91 200.17 155.23
  A 1.17 1.16 26.7 0 0 201.12 154.92
  L 201.52 154.54
  A 0.44 0.44 0.0 0 0 201.22 153.78
  C 200.02 153.76 192.41 153.27 192.28 154.49
  A 0.59 0.59 0.0 0 0 192.74 155.12
  L 194.77 155.54
  A 0.68 0.67 -75.3 0 1 195.27 156.41
  Q 193.77 161.07 192.23 165.77
  C 189.56 173.90 187.25 178.37 177.91 176.47
  C 175.23 175.92 174.40 174.47 175.16 171.79
  Q 177.22 164.45 179.75 157.24
  C 180.73 154.43 183.77 156.00 184.14 154.39
  A 0.41 0.40 4.8 0 0 183.72 153.90
  C 182.32 153.96 173.30 153.44 173.30 154.49
  A 0.74 0.72 -84.6 0 0 173.87 155.20
  L 175.98 155.68
  A 0.61 0.61 0.0 0 1 176.41 156.49"
/>
<path stroke="#808080" vector-effect="non-scaling-stroke" d="
  M 221.61 159.34
  A 0.60 0.60 0.0 0 1 222.71 159.25
  L 232.36 177.79
  A 1.45 1.44 87.1 0 0 233.12 178.48
  L 235.29 179.36
  A 0.51 0.51 0.0 0 0 235.97 179.05
  L 243.42 156.73
  A 2.16 2.14 -83.1 0 1 245.27 155.27
  Q 246.39 155.17 247.26 154.51
  Q 248.34 153.70 246.99 153.72
  L 239.24 153.82
  A 0.46 0.45 56.3 0 0 239.07 154.69
  L 241.17 155.63
  A 0.58 0.57 20.9 0 1 241.49 156.33
  L 235.88 173.81
  A 0.58 0.58 0.0 0 1 234.81 173.90
  L 224.86 154.27
  A 0.74 0.74 0.0 0 0 224.18 153.86
  L 218.80 153.89
  A 0.51 0.51 0.0 0 0 218.43 154.05
  L 218.24 154.26
  A 0.51 0.50 31.5 0 0 218.44 155.08
  L 220.15 155.69
  A 0.87 0.86 -71.1 0 1 220.68 156.78
  L 214.09 176.36
  A 1.24 1.23 2.7 0 1 213.22 177.15
  L 210.43 177.79
  A 0.31 0.31 0.0 0 0 210.25 178.27
  C 210.77 178.97 218.26 178.99 218.76 178.34
  A 0.29 0.29 0.0 0 0 218.64 177.90
  L 216.62 177.09
  A 0.65 0.64 20.2 0 1 216.24 176.29
  L 221.61 159.34"
/>
<path stroke="#808080" vector-effect="non-scaling-stroke" d="
  M 270.61 158.19
  Q 267.85 166.59 264.96 174.96
  C 264.24 177.06 262.76 177.81 260.68 177.78
  A 0.45 0.45 0.0 0 0 260.23 178.30
  C 260.34 179.01 267.90 178.77 270.94 178.71
  Q 271.32 178.70 271.45 178.48
  A 0.34 0.33 -64.0 0 0 271.29 178.00
  L 268.87 177.02
  A 0.65 0.64 19.2 0 1 268.49 176.25
  Q 271.25 166.76 274.58 157.45
  C 275.61 154.56 278.84 155.51 279.14 154.45
  A 0.45 0.45 0.0 0 0 278.74 153.89
  C 277.46 153.81 268.19 153.21 268.04 154.44
  A 0.49 0.48 -86.2 0 0 268.51 154.98
  C 270.79 155.02 271.27 156.18 270.61 158.19"
/>
<path stroke="#808080" vector-effect="non-scaling-stroke" d="
  M 306.70 173.06
  L 305.26 156.65
  A 0.88 0.86 69.9 0 1 305.62 155.85
  C 306.83 154.97 308.68 155.84 309.31 154.39
  A 0.45 0.45 0.0 0 0 308.90 153.76
  L 299.88 153.74
  A 0.63 0.63 0.0 0 0 299.25 154.37
  L 299.25 154.70
  A 0.52 0.51 -87.6 0 0 299.72 155.22
  Q 301.09 155.34 301.20 156.31
  Q 302.48 167.39 303.51 178.68
  A 0.69 0.69 0.0 0 0 304.62 179.17
  Q 305.80 178.28 306.75 176.98
  Q 313.95 167.12 321.42 157.46
  C 322.61 155.93 323.78 155.25 325.45 154.45
  A 0.36 0.36 0.0 0 0 325.29 153.77
  L 317.59 153.83
  A 0.45 0.45 0.0 0 0 317.16 154.19
  L 317.10 154.47
  A 0.60 0.59 13.0 0 0 317.55 155.17
  L 319.43 155.61
  A 0.58 0.58 0.0 0 1 319.76 156.52
  L 307.43 173.27
  Q 306.79 174.14 306.70 173.06"
/>
<path stroke="#808080" vector-effect="non-scaling-stroke" d="
  M 353.36 155.67
  L 361.48 155.78
  A 0.62 0.62 0.0 0 1 362.09 156.42
  L 361.97 159.27
  Q 361.89 161.32 362.78 159.46
  L 365.22 154.35
  A 0.42 0.41 -77.0 0 0 364.85 153.75
  L 346.95 153.75
  A 0.64 0.64 0.0 0 0 346.31 154.38
  L 346.29 154.85
  A 0.47 0.46 -0.0 0 0 346.77 155.32
  C 348.15 155.27 348.78 156.05 348.32 157.36
  Q 345.04 166.77 341.92 176.28
  A 1.30 1.29 -7.9 0 1 341.40 176.96
  L 339.92 177.94
  Q 338.70 178.75 340.17 178.75
  L 357.36 178.75
  A 0.84 0.84 0.0 0 0 358.14 178.22
  L 360.09 173.21
  A 0.51 0.51 0.0 0 0 359.66 172.52
  C 358.89 172.44 357.30 175.50 356.86 176.19
  A 0.96 0.93 15.4 0 1 356.08 176.62
  L 346.60 176.80
  A 0.61 0.61 0.0 0 1 345.99 176.10
  Q 346.46 172.80 348.27 170.02
  A 1.11 1.09 -34.0 0 0 348.43 169.22
  C 347.75 165.76 354.21 167.03 355.95 167.32
  A 0.66 0.65 11.1 0 1 356.48 168.10
  L 356.19 169.44
  A 0.62 0.61 14.7 0 0 356.61 170.15
  L 356.86 170.23
  A 0.52 0.51 -72.1 0 0 357.50 169.90
  L 359.85 162.33
  A 0.43 0.43 0.0 0 0 359.07 161.97
  L 357.44 164.57
  A 0.92 0.90 -73.7 0 1 356.67 165.00
  L 350.19 165.00
  A 0.46 0.46 0.0 0 1 349.75 164.39
  L 352.66 156.16
  A 0.73 0.72 9.9 0 1 353.36 155.67"
/>
<path stroke="#808080" vector-effect="non-scaling-stroke" d="
  M 390.36 156.38
  L 383.97 175.67
  A 2.54 2.54 0.0 0 1 382.01 177.38
  L 379.66 177.82
  A 0.45 0.45 0.0 0 0 379.74 178.71
  C 381.14 178.74 389.89 179.00 390.35 178.48
  A 0.35 0.35 0.0 0 0 390.21 177.93
  L 388.04 177.06
  A 0.76 0.76 0.0 0 1 387.60 176.11
  L 393.86 157.08
  A 1.30 1.27 84.1 0 1 394.40 156.40
  C 396.47 155.14 402.16 154.91 402.73 157.52
  C 403.81 162.49 397.44 165.72 393.36 165.25
  A 0.79 0.79 0.0 0 0 392.55 166.38
  L 398.16 178.08
  A 0.90 0.90 0.0 0 0 398.82 178.58
  Q 401.19 179.02 403.57 178.55
  Q 404.82 178.31 403.68 177.75
  L 402.63 177.23
  A 1.70 1.68 -89.6 0 1 401.86 176.44
  L 397.36 167.20
  A 0.82 0.82 0.0 0 1 397.94 166.04
  C 406.29 164.44 413.09 153.10 398.17 153.77
  Q 392.97 154.01 387.72 153.77
  A 0.53 0.53 0.0 0 0 387.23 154.53
  Q 387.92 155.90 389.48 155.46
  A 0.72 0.72 0.0 0 1 390.36 156.38"
/>
<path stroke="#808080" vector-effect="non-scaling-stroke" d="
  M 518.42 176.27
  Q 520.92 166.52 524.54 157.11
  C 525.65 154.22 528.09 156.20 528.78 154.42
  A 0.47 0.47 0.0 0 0 528.35 153.78
  C 527.10 153.76 518.29 153.34 518.08 154.37
  A 0.64 0.64 0.0 0 0 518.49 155.11
  L 520.30 155.78
  A 0.73 0.72 -71.7 0 1 520.74 156.67
  Q 517.96 165.78 514.92 174.81
  Q 514.15 177.08 512.01 177.85
  A 0.45 0.45 0.0 0 0 512.16 178.73
  L 530.07 178.76
  A 0.83 0.83 0.0 0 0 530.84 178.24
  L 532.82 173.26
  A 0.58 0.58 0.0 0 0 532.32 172.47
  C 531.45 172.41 530.13 175.44 529.67 176.19
  A 0.97 0.97 0.0 0 1 528.87 176.64
  L 518.83 176.80
  A 0.42 0.42 0.0 0 1 518.42 176.27"
/>
<path stroke="#808080" vector-effect="non-scaling-stroke" d="
  M 720.28 164.50
  Q 723.56 163.09 725.50 160.26
  C 727.65 157.14 726.35 154.07 722.41 153.91
  C 720.77 153.85 708.54 153.17 708.29 154.43
  A 0.65 0.64 -75.4 0 0 708.71 155.16
  L 710.29 155.70
  A 0.69 0.69 0.0 0 1 710.72 156.56
  C 709.48 160.59 705.41 176.23 702.14 177.90
  A 0.41 0.41 0.0 0 0 702.31 178.68
  C 706.84 178.80 712.53 179.30 716.35 177.78
  C 719.81 176.40 723.60 173.05 723.90 169.17
  Q 724.16 165.73 720.30 164.79
  Q 719.85 164.68 720.28 164.50"
/>
<path stroke="#808080" vector-effect="non-scaling-stroke" d="
  M 753.35 156.95
  Q 750.36 166.06 747.50 174.76
  Q 746.44 178.00 743.05 177.66
  A 0.42 0.42 0.0 0 0 742.59 178.09
  C 742.61 179.09 753.46 179.09 754.03 178.19
  Q 754.33 177.72 753.78 177.77
  C 750.85 178.07 750.68 176.36 751.39 174.11
  Q 755.46 161.29 757.20 156.73
  Q 757.93 154.84 760.25 155.24
  A 0.90 0.89 -68.8 0 0 761.14 154.84
  L 761.46 154.35
  A 0.38 0.38 0.0 0 0 761.15 153.76
  C 759.77 153.75 750.68 153.28 750.54 154.49
  A 0.64 0.63 -81.3 0 0 751.05 155.19
  L 752.48 155.46
  A 1.15 1.15 0.0 0 1 753.35 156.95"
/>
<path stroke="#808080" vector-effect="non-scaling-stroke" d="
  M 784.44 155.80
  A 0.52 0.52 0.0 0 1 784.75 156.45
  Q 781.62 165.98 778.36 175.41
  C 777.40 178.21 774.55 177.15 774.29 177.95
  A 0.47 0.47 0.0 0 0 774.68 178.56
  C 775.48 178.65 781.94 179.18 782.69 178.37
  A 0.32 0.32 0.0 0 0 782.55 177.85
  L 780.69 177.23
  A 0.74 0.73 -71.8 0 1 780.23 176.31
  L 785.76 159.04
  A 0.44 0.44 0.0 0 1 786.57 158.97
  L 796.32 177.72
  A 1.63 1.61 88.1 0 0 797.09 178.45
  L 799.22 179.41
  A 0.55 0.54 21.2 0 0 799.96 179.09
  L 807.66 156.08
  A 0.80 0.80 0.0 0 1 808.30 155.55
  Q 809.93 155.35 811.22 154.51
  Q 812.47 153.70 810.98 153.72
  L 803.22 153.82
  A 0.49 0.49 0.0 0 0 803.05 154.76
  L 805.17 155.60
  A 0.59 0.59 0.0 0 1 805.52 156.33
  L 800.03 173.32
  Q 799.43 175.19 798.54 173.43
  L 788.89 154.31
  A 1.04 1.04 0.0 0 0 787.74 153.76
  C 786.76 153.98 782.46 153.71 782.15 154.26
  A 0.57 0.57 0.0 0 0 782.45 155.08
  L 784.44 155.80"
/>
<path stroke="#808080" vector-effect="non-scaling-stroke" d="
  M 843.04 164.95
  L 837.40 165.31
  A 0.95 0.95 0.0 0 1 836.44 164.06
  L 839.06 156.16
  A 0.76 0.76 0.0 0 1 839.79 155.65
  L 847.90 155.79
  A 0.61 0.61 0.0 0 1 848.50 156.40
  L 848.49 159.25
  A 0.35 0.35 0.0 0 0 849.00 159.56
  C 849.97 159.06 851.09 155.49 851.68 154.40
  A 0.44 0.44 0.0 0 0 851.29 153.75
  L 833.52 153.75
  A 0.63 0.62 8.9 0 0 832.92 154.18
  L 832.83 154.43
  A 0.45 0.45 0.0 0 0 833.05 154.97
  L 834.72 155.86
  A 0.73 0.71 23.4 0 1 835.07 156.72
  L 828.56 176.12
  A 1.61 1.59 80.2 0 1 828.05 176.85
  L 826.66 177.96
  Q 825.67 178.75 826.94 178.75
  L 843.50 178.75
  A 0.98 0.98 0.0 0 0 844.36 178.24
  C 844.97 177.12 847.09 172.93 846.26 172.57
  A 0.68 0.67 27.2 0 0 845.43 172.83
  L 843.32 176.22
  A 0.99 0.99 0.0 0 1 842.48 176.69
  L 833.03 176.78
  A 0.59 0.58 9.0 0 1 832.47 176.02
  L 835.15 167.59
  A 0.94 0.93 -79.8 0 1 836.08 166.94
  L 842.29 167.18
  A 0.71 0.70 -83.4 0 1 842.95 168.03
  L 842.62 169.65
  A 0.47 0.47 0.0 0 0 843.04 170.22
  L 843.36 170.25
  A 0.53 0.52 11.7 0 0 843.91 169.89
  L 846.21 162.96
  A 0.54 0.54 0.0 0 0 845.87 162.28
  Q 845.06 162.00 844.79 162.80
  Q 844.43 163.89 843.85 164.55
  A 1.23 1.20 17.9 0 1 843.04 164.95"
/>
<path stroke="#808080" vector-effect="non-scaling-stroke" d="
  M 879.73 177.22
  A 0.53 0.53 0.0 0 1 879.33 176.54
  L 885.85 156.36
  A 0.85 0.84 -80.9 0 1 886.65 155.77
  L 892.17 155.74
  A 0.61 0.60 -86.6 0 1 892.77 156.42
  L 892.45 159.04
  A 0.56 0.55 19.6 0 0 892.72 159.59
  L 893.04 159.78
  A 0.49 0.49 0.0 0 0 893.76 159.52
  L 895.52 154.36
  A 0.44 0.44 0.0 0 0 895.10 153.78
  L 874.68 153.79
  A 0.82 0.81 8.7 0 0 873.90 154.35
  L 872.40 159.02
  A 0.58 0.58 0.0 0 0 872.87 159.78
  C 873.65 159.90 875.03 156.76 875.65 156.09
  A 1.08 1.06 -68.0 0 1 876.43 155.75
  L 881.63 155.75
  A 0.51 0.51 0.0 0 1 882.12 156.41
  Q 879.29 166.01 875.93 175.46
  C 874.90 178.36 871.70 177.05 871.52 178.03
  A 0.49 0.49 0.0 0 0 871.97 178.61
  C 873.28 178.69 881.73 179.13 882.28 178.34
  A 0.41 0.40 -67.0 0 0 882.03 177.71
  L 879.73 177.22"
/>
<path stroke="#808080" vector-effect="non-scaling-stroke" d="
  M 672.19 159.86
  A 0.33 0.33 0.0 0 0 671.61 159.71
  L 664.81 168.29
  A 0.33 0.33 0.0 0 0 665.08 168.83
  L 673.39 168.42
  A 0.33 0.33 0.0 0 0 673.70 168.03
  L 672.19 159.86"
/>
<path stroke="#808080" vector-effect="non-scaling-stroke" d="
  M 481.98 159.89
  A 0.52 0.52 0.0 0 0 481.05 159.61
  L 474.66 167.91
  A 0.52 0.52 0.0 0 0 475.08 168.75
  L 482.11 168.75
  A 0.52 0.52 0.0 0 0 482.63 168.19
  L 481.98 159.89"
/>
<path stroke="#808080" vector-effect="non-scaling-stroke" d="
  M 714.66 156.46
  L 712.34 163.21
  A 0.46 0.45 -75.0 0 0 712.68 163.81
  Q 719.33 165.20 722.05 159.61
  C 724.34 154.90 717.68 155.71 715.58 155.79
  A 1.01 1.01 0.0 0 0 714.66 156.46"
/>
<path stroke="#808080" vector-effect="non-scaling-stroke" d="
  M 711.28 166.48
  L 708.17 176.10
  A 0.53 0.53 0.0 0 0 708.59 176.79
  Q 717.87 178.33 719.78 169.78
  C 720.69 165.71 714.62 165.79 712.33 165.74
  A 1.08 1.08 0.0 0 0 711.28 166.48"
/>
</g>
<g fill="#000000">
<path d="
  M 86.75 119.47
  Q 102.98 119.54 118.71 119.49
  A 1.13 1.13 0.0 0 1 119.73 121.11
  C 118.34 124.01 117.41 125.63 113.83 125.68
  Q 86.87 126.04 59.95 125.39
  C 43.65 124.99 16.56 119.21 16.59 98.02
  Q 16.60 93.79 19.17 86.80
  Q 25.38 69.92 32.40 53.10
  A 1.77 1.77 0.0 0 1 34.04 52.00
  L 61.50 52.00
  A 0.83 0.83 0.0 0 1 62.27 53.15
  Q 55.51 69.34 49.33 85.64
  C 47.52 90.40 45.27 96.68 45.76 101.36
  C 47.44 117.66 74.78 119.42 86.75 119.47
  Z"
/>
<path d="
  M 157.73 58.16
  L 152.31 57.95
  A 1.07 1.07 0.0 0 1 151.56 56.17
  L 155.00 52.38
  A 1.18 1.16 -68.3 0 1 155.86 52.00
  Q 171.01 52.00 186.13 52.00
  C 189.93 52.00 191.13 53.89 189.77 57.33
  Q 177.89 87.22 169.48 118.32
  A 0.84 0.84 0.0 0 0 170.27 119.38
  L 177.20 119.55
  A 0.93 0.93 0.0 0 1 177.91 121.06
  L 174.53 125.24
  A 1.37 1.35 -70.1 0 1 173.48 125.74
  Q 158.48 125.77 143.51 125.69
  C 139.50 125.66 138.44 123.17 139.39 119.58
  Q 147.46 89.27 158.93 59.98
  A 1.34 1.34 0.0 0 0 157.73 58.16
  Z"
/>
<path d="
  M 199.09 125.72
  A 1.02 1.02 0.0 0 1 198.10 124.44
  Q 207.18 88.72 221.19 54.27
  C 221.79 52.79 224.77 52.02 226.54 52.01
  Q 249.96 51.98 273.64 52.01
  A 0.95 0.95 0.0 0 1 274.24 53.70
  L 269.36 57.65
  A 1.64 1.64 0.0 0 1 268.35 58.02
  Q 260.21 58.22 252.07 58.24
  C 250.68 58.25 249.01 59.16 248.56 60.32
  Q 236.26 91.79 227.76 124.59
  A 1.55 1.54 -82.6 0 1 226.25 125.76
  L 199.09 125.72
  Z"
/>
<path d="
  M 314.00 53.03
  A 1.64 1.63 10.8 0 1 315.52 52.00
  L 342.78 52.00
  A 1.03 1.03 0.0 0 1 343.73 53.41
  Q 330.21 86.75 320.97 121.70
  C 320.13 124.90 317.01 125.72 313.79 125.73
  Q 290.60 125.78 267.33 125.73
  A 1.00 1.00 0.0 0 1 266.57 124.08
  L 270.10 119.98
  A 1.32 1.30 19.5 0 1 271.07 119.53
  L 289.67 119.43
  A 1.48 1.47 -64.7 0 0 290.61 119.09
  C 292.85 117.29 292.81 115.46 293.53 112.94
  Q 302.22 82.53 314.00 53.03
  Z"
/>
<path d="
  M 363.21 52.85
  A 1.35 1.34 11.0 0 1 364.46 52.01
  Q 404.41 51.99 444.75 52.00
  C 452.96 52.00 460.79 57.08 461.17 65.51
  Q 461.32 68.92 458.72 79.04
  C 453.74 98.42 445.25 125.43 420.19 125.57
  Q 380.50 125.79 341.01 125.74
  A 1.36 1.36 0.0 0 1 339.70 124.04
  Q 349.09 87.66 363.21 52.85
  Z
  M 390.29 59.82
  Q 379.01 88.49 370.92 118.47
  A 0.80 0.80 0.0 0 0 371.68 119.48
  Q 384.09 119.55 396.45 119.47
  C 407.73 119.40 414.31 118.52 418.72 108.00
  Q 427.57 86.90 431.95 68.05
  C 433.66 60.69 430.44 58.28 423.28 58.26
  Q 407.25 58.23 391.17 58.26
  A 0.68 0.66 -77.6 0 0 390.56 58.66
  C 390.44 58.94 390.38 59.59 390.29 59.82
  Z"
/>
<path d="
  M 487.52 53.12
  A 1.78 1.78 0.0 0 1 489.17 52.01
  Q 524.41 51.99 559.75 51.97
  C 580.37 51.96 574.93 72.15 566.75 81.85
  A 0.87 0.87 0.0 0 0 567.17 83.24
  C 574.70 85.53 578.57 91.42 576.94 99.15
  C 574.85 109.00 570.22 120.39 560.27 124.20
  Q 556.27 125.73 545.94 125.74
  Q 530.73 125.76 515.53 125.75
  A 1.26 1.23 -17.3 0 1 514.51 125.23
  L 511.57 121.07
  A 1.12 1.11 -17.7 0 1 512.48 119.31
  C 531.88 119.19 544.34 119.49 547.61 96.25
  C 548.50 89.91 542.16 88.08 537.26 88.03
  Q 528.18 87.95 519.10 88.02
  C 515.15 88.06 513.95 86.50 513.13 82.95
  A 1.04 1.04 0.0 0 1 514.11 81.68
  Q 521.47 81.39 529.22 81.49
  C 538.08 81.59 540.80 77.01 543.54 69.47
  C 545.22 64.84 547.06 58.34 539.67 58.25
  Q 527.68 58.09 515.69 58.40
  A 0.66 0.64 -79.7 0 0 515.10 58.82
  Q 502.41 91.03 493.73 124.56
  A 1.59 1.59 0.0 0 1 492.19 125.75
  L 465.46 125.75
  A 1.36 1.36 0.0 0 1 464.14 124.04
  Q 473.51 87.82 487.52 53.12
  Z"
/>
<path d="
  M 677.27 82.02
  C 676.88 82.53 676.06 82.99 675.37 82.99
  Q 651.19 83.01 626.95 83.00
  A 1.09 1.08 9.3 0 0 625.92 83.73
  C 621.95 95.28 611.42 119.03 634.45 119.38
  Q 651.24 119.62 668.13 119.46
  A 0.92 0.92 0.0 0 1 668.96 120.79
  Q 667.61 123.51 665.31 125.44
  A 1.30 1.29 25.0 0 1 664.48 125.74
  Q 640.60 125.80 616.76 125.70
  C 598.05 125.62 585.63 115.56 592.24 95.75
  Q 599.49 74.06 607.68 52.76
  A 1.19 1.18 10.4 0 1 608.79 52.00
  L 692.56 52.00
  A 0.94 0.94 0.0 0 1 693.23 53.60
  L 689.30 57.59
  A 1.59 1.57 -71.9 0 1 688.41 58.05
  Q 687.01 58.28 684.75 58.26
  Q 669.91 58.14 635.67 58.32
  A 0.68 0.66 9.9 0 0 635.04 58.75
  L 628.68 75.82
  A 0.71 0.71 0.0 0 0 629.35 76.78
  L 679.62 76.74
  A 1.11 1.11 0.0 0 1 680.55 78.46
  Q 679.37 80.26 677.73 81.56
  Q 677.47 81.76 677.27 82.02
  Z"
/>
<path d="
  M 779.10 88.25
  A 0.82 0.82 0.0 0 0 778.44 89.38
  Q 784.27 103.37 790.01 117.24
  C 791.13 119.95 797.08 119.65 799.36 119.47
  A 0.96 0.96 0.0 0 1 800.18 121.03
  C 798.03 123.63 795.89 125.73 792.23 125.75
  Q 781.36 125.81 770.51 125.74
  C 764.80 125.70 760.57 123.32 758.30 117.92
  Q 751.79 102.40 745.44 86.82
  Q 744.36 84.15 746.04 82.58
  C 748.09 80.67 762.89 81.50 766.25 81.55
  C 775.95 81.68 781.76 72.71 782.19 63.72
  C 782.35 60.18 780.48 58.21 776.83 58.24
  Q 760.38 58.38 743.61 57.94
  A 1.03 1.03 0.0 0 0 742.64 58.59
  Q 729.94 90.87 721.20 124.44
  A 1.78 1.77 -82.5 0 1 719.49 125.76
  L 692.51 125.74
  A 1.03 1.03 0.0 0 1 691.51 124.45
  Q 700.93 87.67 715.24 52.53
  A 0.85 0.84 -78.4 0 1 716.02 52.01
  Q 756.31 51.99 796.89 52.00
  C 804.52 52.00 812.51 55.42 812.05 64.13
  C 811.55 73.71 805.68 83.47 795.98 86.81
  C 791.20 88.46 784.46 87.66 779.10 88.25
  Z"
/>
<path d="
  M 847.49 117.02
  A 2.54 2.52 -8.9 0 0 849.44 118.43
  Q 865.24 120.51 880.75 118.50
  C 884.49 118.01 885.48 117.45 886.98 113.80
  Q 890.72 104.66 893.87 95.66
  A 1.43 1.43 0.0 0 0 892.52 93.76
  L 882.91 93.75
  A 1.16 1.13 -17.3 0 1 881.97 93.27
  L 879.05 89.18
  A 1.06 1.06 0.0 0 1 879.91 87.50
  L 927.74 87.52
  A 1.10 1.10 0.0 0 1 928.79 88.95
  Q 925.74 98.44 921.94 108.09
  C 918.27 117.41 916.72 123.21 906.69 124.05
  C 882.06 126.12 857.15 125.91 832.49 124.35
  C 823.64 123.79 814.54 124.37 817.45 112.91
  Q 825.50 81.14 836.51 56.79
  C 838.22 53.01 842.51 52.02 846.73 52.02
  Q 889.84 51.98 932.48 52.00
  A 1.16 1.16 0.0 0 1 933.27 54.01
  L 929.16 57.79
  A 1.28 1.27 23.4 0 1 928.34 58.11
  C 908.33 58.35 888.20 57.71 868.23 58.36
  A 1.40 1.36 22.1 0 0 867.35 58.72
  Q 866.32 59.66 866.00 60.46
  Q 855.12 87.27 847.59 115.21
  Q 847.24 116.50 847.49 117.02
  Z"
/>
<path d="
  M 979.11 76.77
  L 1017.00 76.74
  A 0.85 0.84 -20.6 0 1 1017.63 77.02
  C 1019.06 78.60 1013.67 82.01 1012.59 82.73
  A 1.54 1.51 27.2 0 1 1011.72 83.00
  L 976.54 83.00
  A 1.05 1.04 -80.7 0 0 975.55 83.72
  Q 968.83 103.94 963.39 124.53
  A 1.64 1.64 0.0 0 1 961.80 125.76
  L 935.34 125.74
  A 1.73 1.72 5.3 0 1 933.64 123.70
  Q 933.68 123.46 933.76 123.18
  Q 943.39 87.10 957.45 52.50
  A 0.77 0.76 -79.3 0 1 958.16 52.01
  L 986.15 52.00
  A 0.85 0.85 0.0 0 1 986.94 53.15
  L 978.34 75.64
  A 0.83 0.83 0.0 0 0 979.11 76.77
  Z"
/>
<path d="
  M 1029.65 52.58
  A 0.94 0.93 -78.6 0 1 1030.51 52.00
  L 1057.94 52.00
  A 1.23 1.22 11.0 0 1 1059.08 53.68
  Q 1045.05 88.34 1035.70 124.55
  A 1.61 1.60 -82.8 0 1 1034.15 125.76
  L 1007.25 125.74
  A 1.25 1.24 7.2 0 1 1006.04 124.19
  Q 1015.53 87.62 1029.65 52.58
  Z"
/>
<path d="
  M 278.12 115.72
  C 270.38 116.18 261.43 117.42 259.86 108.36
  Q 255.93 85.57 252.02 63.03
  A 1.49 1.48 84.7 0 1 253.46 61.29
  Q 262.91 61.20 272.26 61.28
  C 277.26 61.32 279.13 64.06 280.06 68.82
  Q 284.43 91.07 288.85 113.82
  A 1.57 1.57 0.0 0 1 287.40 115.68
  C 284.34 115.85 281.06 115.55 278.12 115.72
  Z"
/>
<path d="
  M 119.91 175.12
  C 120.84 176.18 122.19 175.32 122.56 174.16
  Q 127.48 158.51 133.14 142.94
  A 0.67 0.67 0.0 0 1 133.77 142.50
  L 1056.49 142.50
  A 0.58 0.58 0.0 0 1 1057.04 143.26
  L 1045.44 178.05
  A 0.68 0.67 -80.1 0 1 1044.81 178.50
  L 939.73 178.50
  A 0.78 0.78 0.0 0 1 938.99 177.47
  L 946.41 155.09
  A 0.65 0.65 0.0 0 0 945.90 154.24
  L 944.50 154.03
  A 0.82 0.82 0.0 0 0 943.59 154.58
  L 932.71 187.28
  A 1.05 1.05 0.0 0 1 931.71 188.00
  L 11.52 188.00
  A 0.56 0.55 -80.8 0 1 11.00 187.27
  L 22.29 152.88
  A 0.93 0.92 9.1 0 1 23.17 152.25
  L 126.10 152.25
  A 0.48 0.48 0.0 0 1 126.55 152.88
  L 119.64 173.85
  A 1.31 1.30 33.2 0 0 119.91 175.12
  Z
  M 674.14 153.82
  Q 665.14 165.02 656.94 175.43
  Q 655.42 177.36 653.02 177.56
  C 652.72 177.59 652.55 177.72 652.49 178.00
  A 0.50 0.50 0.0 0 0 652.94 178.59
  C 654.37 178.73 661.00 179.11 661.38 178.26
  A 0.44 0.43 17.9 0 0 661.06 177.65
  L 659.28 177.31
  A 0.71 0.71 0.0 0 1 658.86 176.18
  L 662.93 170.91
  A 1.05 1.03 18.3 0 1 663.76 170.50
  L 672.82 170.50
  A 0.69 0.68 84.9 0 1 673.49 171.07
  L 674.29 175.78
  A 1.01 1.01 0.0 0 1 673.88 176.78
  Q 672.49 177.77 670.70 177.57
  A 0.42 0.41 3.1 0 0 670.24 177.98
  L 670.25 178.26
  A 0.51 0.51 0.0 0 0 670.76 178.76
  L 680.22 178.73
  A 0.47 0.47 0.0 0 0 680.38 177.81
  C 678.04 176.97 677.99 175.07 677.75 172.84
  Q 676.71 163.08 675.39 154.15
  Q 675.15 152.55 674.14 153.82
  Z
  M 426.96 175.59
  L 427.23 172.81
  A 0.40 0.39 -63.8 0 0 427.13 172.50
  L 426.91 172.27
  A 0.43 0.43 0.0 0 0 426.20 172.41
  L 424.24 177.56
  A 0.62 0.62 0.0 0 0 424.61 178.36
  C 431.87 180.93 442.11 178.20 444.36 169.95
  C 446.68 161.43 430.15 166.81 433.52 159.75
  Q 436.21 154.11 442.78 155.48
  Q 445.86 156.12 444.52 159.29
  A 0.46 0.45 -72.0 0 0 444.83 159.91
  C 445.79 160.15 447.18 156.23 447.40 155.27
  A 0.58 0.58 0.0 0 0 447.04 154.60
  Q 437.90 151.08 432.00 157.41
  C 429.09 160.53 427.81 165.84 433.50 167.00
  Q 438.09 167.94 440.04 168.82
  A 0.84 0.84 0.0 0 1 440.54 169.52
  C 441.16 176.51 432.50 179.01 427.37 176.35
  A 0.78 0.77 -73.6 0 1 426.96 175.59
  Z
  M 468.56 177.27
  A 0.61 0.60 24.8 0 1 468.21 176.32
  L 472.29 170.90
  A 1.00 1.00 0.0 0 1 473.09 170.50
  L 482.63 170.50
  A 0.67 0.67 0.0 0 1 483.30 171.13
  L 483.65 176.49
  A 0.75 0.74 -5.9 0 1 483.01 177.27
  L 480.06 177.72
  A 0.47 0.47 0.0 0 0 479.74 178.44
  C 480.08 178.95 486.94 178.77 489.44 178.70
  Q 489.90 178.69 490.00 178.31
  A 0.55 0.54 -76.4 0 0 489.61 177.66
  C 488.47 177.38 487.88 177.04 487.70 175.77
  Q 486.21 165.14 485.01 154.29
  A 0.84 0.84 0.0 0 0 483.51 153.86
  Q 475.04 164.43 466.37 175.38
  Q 464.76 177.42 462.16 177.76
  A 0.39 0.39 0.0 0 0 461.88 178.34
  C 462.21 178.94 470.51 178.98 470.85 178.33
  A 0.43 0.42 20.6 0 0 470.57 177.72
  L 468.56 177.27
  Z
  M 615.44 159.94
  C 612.04 163.33 609.64 169.39 611.60 173.94
  C 615.42 182.79 633.86 178.46 632.46 175.90
  A 0.56 0.56 0.0 0 0 631.74 175.66
  C 626.26 178.11 615.60 178.65 615.32 169.93
  Q 615.23 167.28 616.04 165.32
  Q 621.07 153.16 635.25 155.96
  A 1.47 1.46 15.1 0 1 636.35 157.87
  L 635.75 159.64
  A 0.53 0.53 0.0 0 0 636.21 160.34
  C 637.24 160.43 638.36 157.18 639.10 155.44
  A 0.47 0.47 0.0 0 0 638.82 154.82
  Q 625.17 150.22 615.44 159.94
  Z
  M 176.41 156.49
  Q 171.38 169.60 170.97 173.75
  C 170.33 180.42 180.62 179.86 184.75 178.51
  C 192.87 175.84 194.88 163.65 197.26 156.49
  Q 197.79 154.91 200.17 155.23
  A 1.17 1.16 26.7 0 0 201.12 154.92
  L 201.52 154.54
  A 0.44 0.44 0.0 0 0 201.22 153.78
  C 200.02 153.76 192.41 153.27 192.28 154.49
  A 0.59 0.59 0.0 0 0 192.74 155.12
  L 194.77 155.54
  A 0.68 0.67 -75.3 0 1 195.27 156.41
  Q 193.77 161.07 192.23 165.77
  C 189.56 173.90 187.25 178.37 177.91 176.47
  C 175.23 175.92 174.40 174.47 175.16 171.79
  Q 177.22 164.45 179.75 157.24
  C 180.73 154.43 183.77 156.00 184.14 154.39
  A 0.41 0.40 4.8 0 0 183.72 153.90
  C 182.32 153.96 173.30 153.44 173.30 154.49
  A 0.74 0.72 -84.6 0 0 173.87 155.20
  L 175.98 155.68
  A 0.61 0.61 0.0 0 1 176.41 156.49
  Z
  M 221.61 159.34
  A 0.60 0.60 0.0 0 1 222.71 159.25
  L 232.36 177.79
  A 1.45 1.44 87.1 0 0 233.12 178.48
  L 235.29 179.36
  A 0.51 0.51 0.0 0 0 235.97 179.05
  L 243.42 156.73
  A 2.16 2.14 -83.1 0 1 245.27 155.27
  Q 246.39 155.17 247.26 154.51
  Q 248.34 153.70 246.99 153.72
  L 239.24 153.82
  A 0.46 0.45 56.3 0 0 239.07 154.69
  L 241.17 155.63
  A 0.58 0.57 20.9 0 1 241.49 156.33
  L 235.88 173.81
  A 0.58 0.58 0.0 0 1 234.81 173.90
  L 224.86 154.27
  A 0.74 0.74 0.0 0 0 224.18 153.86
  L 218.80 153.89
  A 0.51 0.51 0.0 0 0 218.43 154.05
  L 218.24 154.26
  A 0.51 0.50 31.5 0 0 218.44 155.08
  L 220.15 155.69
  A 0.87 0.86 -71.1 0 1 220.68 156.78
  L 214.09 176.36
  A 1.24 1.23 2.7 0 1 213.22 177.15
  L 210.43 177.79
  A 0.31 0.31 0.0 0 0 210.25 178.27
  C 210.77 178.97 218.26 178.99 218.76 178.34
  A 0.29 0.29 0.0 0 0 218.64 177.90
  L 216.62 177.09
  A 0.65 0.64 20.2 0 1 216.24 176.29
  L 221.61 159.34
  Z
  M 270.61 158.19
  Q 267.85 166.59 264.96 174.96
  C 264.24 177.06 262.76 177.81 260.68 177.78
  A 0.45 0.45 0.0 0 0 260.23 178.30
  C 260.34 179.01 267.90 178.77 270.94 178.71
  Q 271.32 178.70 271.45 178.48
  A 0.34 0.33 -64.0 0 0 271.29 178.00
  L 268.87 177.02
  A 0.65 0.64 19.2 0 1 268.49 176.25
  Q 271.25 166.76 274.58 157.45
  C 275.61 154.56 278.84 155.51 279.14 154.45
  A 0.45 0.45 0.0 0 0 278.74 153.89
  C 277.46 153.81 268.19 153.21 268.04 154.44
  A 0.49 0.48 -86.2 0 0 268.51 154.98
  C 270.79 155.02 271.27 156.18 270.61 158.19
  Z
  M 306.70 173.06
  L 305.26 156.65
  A 0.88 0.86 69.9 0 1 305.62 155.85
  C 306.83 154.97 308.68 155.84 309.31 154.39
  A 0.45 0.45 0.0 0 0 308.90 153.76
  L 299.88 153.74
  A 0.63 0.63 0.0 0 0 299.25 154.37
  L 299.25 154.70
  A 0.52 0.51 -87.6 0 0 299.72 155.22
  Q 301.09 155.34 301.20 156.31
  Q 302.48 167.39 303.51 178.68
  A 0.69 0.69 0.0 0 0 304.62 179.17
  Q 305.80 178.28 306.75 176.98
  Q 313.95 167.12 321.42 157.46
  C 322.61 155.93 323.78 155.25 325.45 154.45
  A 0.36 0.36 0.0 0 0 325.29 153.77
  L 317.59 153.83
  A 0.45 0.45 0.0 0 0 317.16 154.19
  L 317.10 154.47
  A 0.60 0.59 13.0 0 0 317.55 155.17
  L 319.43 155.61
  A 0.58 0.58 0.0 0 1 319.76 156.52
  L 307.43 173.27
  Q 306.79 174.14 306.70 173.06
  Z
  M 353.36 155.67
  L 361.48 155.78
  A 0.62 0.62 0.0 0 1 362.09 156.42
  L 361.97 159.27
  Q 361.89 161.32 362.78 159.46
  L 365.22 154.35
  A 0.42 0.41 -77.0 0 0 364.85 153.75
  L 346.95 153.75
  A 0.64 0.64 0.0 0 0 346.31 154.38
  L 346.29 154.85
  A 0.47 0.46 -0.0 0 0 346.77 155.32
  C 348.15 155.27 348.78 156.05 348.32 157.36
  Q 345.04 166.77 341.92 176.28
  A 1.30 1.29 -7.9 0 1 341.40 176.96
  L 339.92 177.94
  Q 338.70 178.75 340.17 178.75
  L 357.36 178.75
  A 0.84 0.84 0.0 0 0 358.14 178.22
  L 360.09 173.21
  A 0.51 0.51 0.0 0 0 359.66 172.52
  C 358.89 172.44 357.30 175.50 356.86 176.19
  A 0.96 0.93 15.4 0 1 356.08 176.62
  L 346.60 176.80
  A 0.61 0.61 0.0 0 1 345.99 176.10
  Q 346.46 172.80 348.27 170.02
  A 1.11 1.09 -34.0 0 0 348.43 169.22
  C 347.75 165.76 354.21 167.03 355.95 167.32
  A 0.66 0.65 11.1 0 1 356.48 168.10
  L 356.19 169.44
  A 0.62 0.61 14.7 0 0 356.61 170.15
  L 356.86 170.23
  A 0.52 0.51 -72.1 0 0 357.50 169.90
  L 359.85 162.33
  A 0.43 0.43 0.0 0 0 359.07 161.97
  L 357.44 164.57
  A 0.92 0.90 -73.7 0 1 356.67 165.00
  L 350.19 165.00
  A 0.46 0.46 0.0 0 1 349.75 164.39
  L 352.66 156.16
  A 0.73 0.72 9.9 0 1 353.36 155.67
  Z
  M 390.36 156.38
  L 383.97 175.67
  A 2.54 2.54 0.0 0 1 382.01 177.38
  L 379.66 177.82
  A 0.45 0.45 0.0 0 0 379.74 178.71
  C 381.14 178.74 389.89 179.00 390.35 178.48
  A 0.35 0.35 0.0 0 0 390.21 177.93
  L 388.04 177.06
  A 0.76 0.76 0.0 0 1 387.60 176.11
  L 393.86 157.08
  A 1.30 1.27 84.1 0 1 394.40 156.40
  C 396.47 155.14 402.16 154.91 402.73 157.52
  C 403.81 162.49 397.44 165.72 393.36 165.25
  A 0.79 0.79 0.0 0 0 392.55 166.38
  L 398.16 178.08
  A 0.90 0.90 0.0 0 0 398.82 178.58
  Q 401.19 179.02 403.57 178.55
  Q 404.82 178.31 403.68 177.75
  L 402.63 177.23
  A 1.70 1.68 -89.6 0 1 401.86 176.44
  L 397.36 167.20
  A 0.82 0.82 0.0 0 1 397.94 166.04
  C 406.29 164.44 413.09 153.10 398.17 153.77
  Q 392.97 154.01 387.72 153.77
  A 0.53 0.53 0.0 0 0 387.23 154.53
  Q 387.92 155.90 389.48 155.46
  A 0.72 0.72 0.0 0 1 390.36 156.38
  Z
  M 518.42 176.27
  Q 520.92 166.52 524.54 157.11
  C 525.65 154.22 528.09 156.20 528.78 154.42
  A 0.47 0.47 0.0 0 0 528.35 153.78
  C 527.10 153.76 518.29 153.34 518.08 154.37
  A 0.64 0.64 0.0 0 0 518.49 155.11
  L 520.30 155.78
  A 0.73 0.72 -71.7 0 1 520.74 156.67
  Q 517.96 165.78 514.92 174.81
  Q 514.15 177.08 512.01 177.85
  A 0.45 0.45 0.0 0 0 512.16 178.73
  L 530.07 178.76
  A 0.83 0.83 0.0 0 0 530.84 178.24
  L 532.82 173.26
  A 0.58 0.58 0.0 0 0 532.32 172.47
  C 531.45 172.41 530.13 175.44 529.67 176.19
  A 0.97 0.97 0.0 0 1 528.87 176.64
  L 518.83 176.80
  A 0.42 0.42 0.0 0 1 518.42 176.27
  Z
  M 720.28 164.50
  Q 723.56 163.09 725.50 160.26
  C 727.65 157.14 726.35 154.07 722.41 153.91
  C 720.77 153.85 708.54 153.17 708.29 154.43
  A 0.65 0.64 -75.4 0 0 708.71 155.16
  L 710.29 155.70
  A 0.69 0.69 0.0 0 1 710.72 156.56
  C 709.48 160.59 705.41 176.23 702.14 177.90
  A 0.41 0.41 0.0 0 0 702.31 178.68
  C 706.84 178.80 712.53 179.30 716.35 177.78
  C 719.81 176.40 723.60 173.05 723.90 169.17
  Q 724.16 165.73 720.30 164.79
  Q 719.85 164.68 720.28 164.50
  Z
  M 753.35 156.95
  Q 750.36 166.06 747.50 174.76
  Q 746.44 178.00 743.05 177.66
  A 0.42 0.42 0.0 0 0 742.59 178.09
  C 742.61 179.09 753.46 179.09 754.03 178.19
  Q 754.33 177.72 753.78 177.77
  C 750.85 178.07 750.68 176.36 751.39 174.11
  Q 755.46 161.29 757.20 156.73
  Q 757.93 154.84 760.25 155.24
  A 0.90 0.89 -68.8 0 0 761.14 154.84
  L 761.46 154.35
  A 0.38 0.38 0.0 0 0 761.15 153.76
  C 759.77 153.75 750.68 153.28 750.54 154.49
  A 0.64 0.63 -81.3 0 0 751.05 155.19
  L 752.48 155.46
  A 1.15 1.15 0.0 0 1 753.35 156.95
  Z
  M 784.44 155.80
  A 0.52 0.52 0.0 0 1 784.75 156.45
  Q 781.62 165.98 778.36 175.41
  C 777.40 178.21 774.55 177.15 774.29 177.95
  A 0.47 0.47 0.0 0 0 774.68 178.56
  C 775.48 178.65 781.94 179.18 782.69 178.37
  A 0.32 0.32 0.0 0 0 782.55 177.85
  L 780.69 177.23
  A 0.74 0.73 -71.8 0 1 780.23 176.31
  L 785.76 159.04
  A 0.44 0.44 0.0 0 1 786.57 158.97
  L 796.32 177.72
  A 1.63 1.61 88.1 0 0 797.09 178.45
  L 799.22 179.41
  A 0.55 0.54 21.2 0 0 799.96 179.09
  L 807.66 156.08
  A 0.80 0.80 0.0 0 1 808.30 155.55
  Q 809.93 155.35 811.22 154.51
  Q 812.47 153.70 810.98 153.72
  L 803.22 153.82
  A 0.49 0.49 0.0 0 0 803.05 154.76
  L 805.17 155.60
  A 0.59 0.59 0.0 0 1 805.52 156.33
  L 800.03 173.32
  Q 799.43 175.19 798.54 173.43
  L 788.89 154.31
  A 1.04 1.04 0.0 0 0 787.74 153.76
  C 786.76 153.98 782.46 153.71 782.15 154.26
  A 0.57 0.57 0.0 0 0 782.45 155.08
  L 784.44 155.80
  Z
  M 843.04 164.95
  L 837.40 165.31
  A 0.95 0.95 0.0 0 1 836.44 164.06
  L 839.06 156.16
  A 0.76 0.76 0.0 0 1 839.79 155.65
  L 847.90 155.79
  A 0.61 0.61 0.0 0 1 848.50 156.40
  L 848.49 159.25
  A 0.35 0.35 0.0 0 0 849.00 159.56
  C 849.97 159.06 851.09 155.49 851.68 154.40
  A 0.44 0.44 0.0 0 0 851.29 153.75
  L 833.52 153.75
  A 0.63 0.62 8.9 0 0 832.92 154.18
  L 832.83 154.43
  A 0.45 0.45 0.0 0 0 833.05 154.97
  L 834.72 155.86
  A 0.73 0.71 23.4 0 1 835.07 156.72
  L 828.56 176.12
  A 1.61 1.59 80.2 0 1 828.05 176.85
  L 826.66 177.96
  Q 825.67 178.75 826.94 178.75
  L 843.50 178.75
  A 0.98 0.98 0.0 0 0 844.36 178.24
  C 844.97 177.12 847.09 172.93 846.26 172.57
  A 0.68 0.67 27.2 0 0 845.43 172.83
  L 843.32 176.22
  A 0.99 0.99 0.0 0 1 842.48 176.69
  L 833.03 176.78
  A 0.59 0.58 9.0 0 1 832.47 176.02
  L 835.15 167.59
  A 0.94 0.93 -79.8 0 1 836.08 166.94
  L 842.29 167.18
  A 0.71 0.70 -83.4 0 1 842.95 168.03
  L 842.62 169.65
  A 0.47 0.47 0.0 0 0 843.04 170.22
  L 843.36 170.25
  A 0.53 0.52 11.7 0 0 843.91 169.89
  L 846.21 162.96
  A 0.54 0.54 0.0 0 0 845.87 162.28
  Q 845.06 162.00 844.79 162.80
  Q 844.43 163.89 843.85 164.55
  A 1.23 1.20 17.9 0 1 843.04 164.95
  Z
  M 879.73 177.22
  A 0.53 0.53 0.0 0 1 879.33 176.54
  L 885.85 156.36
  A 0.85 0.84 -80.9 0 1 886.65 155.77
  L 892.17 155.74
  A 0.61 0.60 -86.6 0 1 892.77 156.42
  L 892.45 159.04
  A 0.56 0.55 19.6 0 0 892.72 159.59
  L 893.04 159.78
  A 0.49 0.49 0.0 0 0 893.76 159.52
  L 895.52 154.36
  A 0.44 0.44 0.0 0 0 895.10 153.78
  L 874.68 153.79
  A 0.82 0.81 8.7 0 0 873.90 154.35
  L 872.40 159.02
  A 0.58 0.58 0.0 0 0 872.87 159.78
  C 873.65 159.90 875.03 156.76 875.65 156.09
  A 1.08 1.06 -68.0 0 1 876.43 155.75
  L 881.63 155.75
  A 0.51 0.51 0.0 0 1 882.12 156.41
  Q 879.29 166.01 875.93 175.46
  C 874.90 178.36 871.70 177.05 871.52 178.03
  A 0.49 0.49 0.0 0 0 871.97 178.61
  C 873.28 178.69 881.73 179.13 882.28 178.34
  A 0.41 0.40 -67.0 0 0 882.03 177.71
  L 879.73 177.22
  Z"
/>
<path d="
  M 714.66 156.46
  A 1.01 1.01 0.0 0 1 715.58 155.79
  C 717.68 155.71 724.34 154.90 722.05 159.61
  Q 719.33 165.20 712.68 163.81
  A 0.46 0.45 -75.0 0 1 712.34 163.21
  L 714.66 156.46
  Z"
/>
<path d="
  M 672.19 159.86
  L 673.70 168.03
  A 0.33 0.33 0.0 0 1 673.39 168.42
  L 665.08 168.83
  A 0.33 0.33 0.0 0 1 664.81 168.29
  L 671.61 159.71
  A 0.33 0.33 0.0 0 1 672.19 159.86
  Z"
/>
<path d="
  M 481.98 159.89
  L 482.63 168.19
  A 0.52 0.52 0.0 0 1 482.11 168.75
  L 475.08 168.75
  A 0.52 0.52 0.0 0 1 474.66 167.91
  L 481.05 159.61
  A 0.52 0.52 0.0 0 1 481.98 159.89
  Z"
/>
<path d="
  M 711.28 166.48
  A 1.08 1.08 0.0 0 1 712.33 165.74
  C 714.62 165.79 720.69 165.71 719.78 169.78
  Q 717.87 178.33 708.59 176.79
  A 0.53 0.53 0.0 0 1 708.17 176.10
  L 711.28 166.48
  Z"
/>
</g>
<g fill="#ffffff">
<path d="
  M 674.14 153.82
  Q 675.15 152.55 675.39 154.15
  Q 676.71 163.08 677.75 172.84
  C 677.99 175.07 678.04 176.97 680.38 177.81
  A 0.47 0.47 0.0 0 1 680.22 178.73
  L 670.76 178.76
  A 0.51 0.51 0.0 0 1 670.25 178.26
  L 670.24 177.98
  A 0.42 0.41 3.1 0 1 670.70 177.57
  Q 672.49 177.77 673.88 176.78
  A 1.01 1.01 0.0 0 0 674.29 175.78
  L 673.49 171.07
  A 0.69 0.68 84.9 0 0 672.82 170.50
  L 663.76 170.50
  A 1.05 1.03 18.3 0 0 662.93 170.91
  L 658.86 176.18
  A 0.71 0.71 0.0 0 0 659.28 177.31
  L 661.06 177.65
  A 0.44 0.43 17.9 0 1 661.38 178.26
  C 661.00 179.11 654.37 178.73 652.94 178.59
  A 0.50 0.50 0.0 0 1 652.49 178.00
  C 652.55 177.72 652.72 177.59 653.02 177.56
  Q 655.42 177.36 656.94 175.43
  Q 665.14 165.02 674.14 153.82
  Z
  M 672.19 159.86
  A 0.33 0.33 0.0 0 0 671.61 159.71
  L 664.81 168.29
  A 0.33 0.33 0.0 0 0 665.08 168.83
  L 673.39 168.42
  A 0.33 0.33 0.0 0 0 673.70 168.03
  L 672.19 159.86
  Z"
/>
<path d="
  M 427.37 176.35
  C 432.50 179.01 441.16 176.51 440.54 169.52
  A 0.84 0.84 0.0 0 0 440.04 168.82
  Q 438.09 167.94 433.50 167.00
  C 427.81 165.84 429.09 160.53 432.00 157.41
  Q 437.90 151.08 447.04 154.60
  A 0.58 0.58 0.0 0 1 447.40 155.27
  C 447.18 156.23 445.79 160.15 444.83 159.91
  A 0.46 0.45 -72.0 0 1 444.52 159.29
  Q 445.86 156.12 442.78 155.48
  Q 436.21 154.11 433.52 159.75
  C 430.15 166.81 446.68 161.43 444.36 169.95
  C 442.11 178.20 431.87 180.93 424.61 178.36
  A 0.62 0.62 0.0 0 1 424.24 177.56
  L 426.20 172.41
  A 0.43 0.43 0.0 0 1 426.91 172.27
  L 427.13 172.50
  A 0.40 0.39 -63.8 0 1 427.23 172.81
  L 426.96 175.59
  A 0.78 0.77 -73.6 0 0 427.37 176.35
  Z"
/>
<path d="
  M 468.56 177.27
  L 470.57 177.72
  A 0.43 0.42 20.6 0 1 470.85 178.33
  C 470.51 178.98 462.21 178.94 461.88 178.34
  A 0.39 0.39 0.0 0 1 462.16 177.76
  Q 464.76 177.42 466.37 175.38
  Q 475.04 164.43 483.51 153.86
  A 0.84 0.84 0.0 0 1 485.01 154.29
  Q 486.21 165.14 487.70 175.77
  C 487.88 177.04 488.47 177.38 489.61 177.66
  A 0.55 0.54 -76.4 0 1 490.00 178.31
  Q 489.90 178.69 489.44 178.70
  C 486.94 178.77 480.08 178.95 479.74 178.44
  A 0.47 0.47 0.0 0 1 480.06 177.72
  L 483.01 177.27
  A 0.75 0.74 -5.9 0 0 483.65 176.49
  L 483.30 171.13
  A 0.67 0.67 0.0 0 0 482.63 170.50
  L 473.09 170.50
  A 1.00 1.00 0.0 0 0 472.29 170.90
  L 468.21 176.32
  A 0.61 0.60 24.8 0 0 468.56 177.27
  Z
  M 481.98 159.89
  A 0.52 0.52 0.0 0 0 481.05 159.61
  L 474.66 167.91
  A 0.52 0.52 0.0 0 0 475.08 168.75
  L 482.11 168.75
  A 0.52 0.52 0.0 0 0 482.63 168.19
  L 481.98 159.89
  Z"
/>
<path d="
  M 615.44 159.94
  Q 625.17 150.22 638.82 154.82
  A 0.47 0.47 0.0 0 1 639.10 155.44
  C 638.36 157.18 637.24 160.43 636.21 160.34
  A 0.53 0.53 0.0 0 1 635.75 159.64
  L 636.35 157.87
  A 1.47 1.46 15.1 0 0 635.25 155.96
  Q 621.07 153.16 616.04 165.32
  Q 615.23 167.28 615.32 169.93
  C 615.60 178.65 626.26 178.11 631.74 175.66
  A 0.56 0.56 0.0 0 1 632.46 175.90
  C 633.86 178.46 615.42 182.79 611.60 173.94
  C 609.64 169.39 612.04 163.33 615.44 159.94
  Z"
/>
<path d="
  M 175.98 155.68
  L 173.87 155.20
  A 0.74 0.72 -84.6 0 1 173.30 154.49
  C 173.30 153.44 182.32 153.96 183.72 153.90
  A 0.41 0.40 4.8 0 1 184.14 154.39
  C 183.77 156.00 180.73 154.43 179.75 157.24
  Q 177.22 164.45 175.16 171.79
  C 174.40 174.47 175.23 175.92 177.91 176.47
  C 187.25 178.37 189.56 173.90 192.23 165.77
  Q 193.77 161.07 195.27 156.41
  A 0.68 0.67 -75.3 0 0 194.77 155.54
  L 192.74 155.12
  A 0.59 0.59 0.0 0 1 192.28 154.49
  C 192.41 153.27 200.02 153.76 201.22 153.78
  A 0.44 0.44 0.0 0 1 201.52 154.54
  L 201.12 154.92
  A 1.17 1.16 26.7 0 1 200.17 155.23
  Q 197.79 154.91 197.26 156.49
  C 194.88 163.65 192.87 175.84 184.75 178.51
  C 180.62 179.86 170.33 180.42 170.97 173.75
  Q 171.38 169.60 176.41 156.49
  A 0.61 0.61 0.0 0 0 175.98 155.68
  Z"
/>
<path d="
  M 221.61 159.34
  L 216.24 176.29
  A 0.65 0.64 20.2 0 0 216.62 177.09
  L 218.64 177.90
  A 0.29 0.29 0.0 0 1 218.76 178.34
  C 218.26 178.99 210.77 178.97 210.25 178.27
  A 0.31 0.31 0.0 0 1 210.43 177.79
  L 213.22 177.15
  A 1.24 1.23 2.7 0 0 214.09 176.36
  L 220.68 156.78
  A 0.87 0.86 -71.1 0 0 220.15 155.69
  L 218.44 155.08
  A 0.51 0.50 31.5 0 1 218.24 154.26
  L 218.43 154.05
  A 0.51 0.51 0.0 0 1 218.80 153.89
  L 224.18 153.86
  A 0.74 0.74 0.0 0 1 224.86 154.27
  L 234.81 173.90
  A 0.58 0.58 0.0 0 0 235.88 173.81
  L 241.49 156.33
  A 0.58 0.57 20.9 0 0 241.17 155.63
  L 239.07 154.69
  A 0.46 0.45 56.3 0 1 239.24 153.82
  L 246.99 153.72
  Q 248.34 153.70 247.26 154.51
  Q 246.39 155.17 245.27 155.27
  A 2.16 2.14 -83.1 0 0 243.42 156.73
  L 235.97 179.05
  A 0.51 0.51 0.0 0 1 235.29 179.36
  L 233.12 178.48
  A 1.45 1.44 87.1 0 1 232.36 177.79
  L 222.71 159.25
  A 0.60 0.60 0.0 0 0 221.61 159.34
  Z"
/>
<path d="
  M 270.61 158.19
  C 271.27 156.18 270.79 155.02 268.51 154.98
  A 0.49 0.48 -86.2 0 1 268.04 154.44
  C 268.19 153.21 277.46 153.81 278.74 153.89
  A 0.45 0.45 0.0 0 1 279.14 154.45
  C 278.84 155.51 275.61 154.56 274.58 157.45
  Q 271.25 166.76 268.49 176.25
  A 0.65 0.64 19.2 0 0 268.87 177.02
  L 271.29 178.00
  A 0.34 0.33 -64.0 0 1 271.45 178.48
  Q 271.32 178.70 270.94 178.71
  C 267.90 178.77 260.34 179.01 260.23 178.30
  A 0.45 0.45 0.0 0 1 260.68 177.78
  C 262.76 177.81 264.24 177.06 264.96 174.96
  Q 267.85 166.59 270.61 158.19
  Z"
/>
<path d="
  M 307.43 173.27
  L 319.76 156.52
  A 0.58 0.58 0.0 0 0 319.43 155.61
  L 317.55 155.17
  A 0.60 0.59 13.0 0 1 317.10 154.47
  L 317.16 154.19
  A 0.45 0.45 0.0 0 1 317.59 153.83
  L 325.29 153.77
  A 0.36 0.36 0.0 0 1 325.45 154.45
  C 323.78 155.25 322.61 155.93 321.42 157.46
  Q 313.95 167.12 306.75 176.98
  Q 305.80 178.28 304.62 179.17
  A 0.69 0.69 0.0 0 1 303.51 178.68
  Q 302.48 167.39 301.20 156.31
  Q 301.09 155.34 299.72 155.22
  A 0.52 0.51 -87.6 0 1 299.25 154.70
  L 299.25 154.37
  A 0.63 0.63 0.0 0 1 299.88 153.74
  L 308.90 153.76
  A 0.45 0.45 0.0 0 1 309.31 154.39
  C 308.68 155.84 306.83 154.97 305.62 155.85
  A 0.88 0.86 69.9 0 0 305.26 156.65
  L 306.70 173.06
  Q 306.79 174.14 307.43 173.27
  Z"
/>
<path d="
  M 352.66 156.16
  L 349.75 164.39
  A 0.46 0.46 0.0 0 0 350.19 165.00
  L 356.67 165.00
  A 0.92 0.90 -73.7 0 0 357.44 164.57
  L 359.07 161.97
  A 0.43 0.43 0.0 0 1 359.85 162.33
  L 357.50 169.90
  A 0.52 0.51 -72.1 0 1 356.86 170.23
  L 356.61 170.15
  A 0.62 0.61 14.7 0 1 356.19 169.44
  L 356.48 168.10
  A 0.66 0.65 11.1 0 0 355.95 167.32
  C 354.21 167.03 347.75 165.76 348.43 169.22
  A 1.11 1.09 -34.0 0 1 348.27 170.02
  Q 346.46 172.80 345.99 176.10
  A 0.61 0.61 0.0 0 0 346.60 176.80
  L 356.08 176.62
  A 0.96 0.93 15.4 0 0 356.86 176.19
  C 357.30 175.50 358.89 172.44 359.66 172.52
  A 0.51 0.51 0.0 0 1 360.09 173.21
  L 358.14 178.22
  A 0.84 0.84 0.0 0 1 357.36 178.75
  L 340.17 178.75
  Q 338.70 178.75 339.92 177.94
  L 341.40 176.96
  A 1.30 1.29 -7.9 0 0 341.92 176.28
  Q 345.04 166.77 348.32 157.36
  C 348.78 156.05 348.15 155.27 346.77 155.32
  A 0.47 0.46 -0.0 0 1 346.29 154.85
  L 346.31 154.38
  A 0.64 0.64 0.0 0 1 346.95 153.75
  L 364.85 153.75
  A 0.42 0.41 -77.0 0 1 365.22 154.35
  L 362.78 159.46
  Q 361.89 161.32 361.97 159.27
  L 362.09 156.42
  A 0.62 0.62 0.0 0 0 361.48 155.78
  L 353.36 155.67
  A 0.73 0.72 9.9 0 0 352.66 156.16
  Z"
/>
<path d="
  M 390.36 156.38
  A 0.72 0.72 0.0 0 0 389.48 155.46
  Q 387.92 155.90 387.23 154.53
  A 0.53 0.53 0.0 0 1 387.72 153.77
  Q 392.97 154.01 398.17 153.77
  C 413.09 153.10 406.29 164.44 397.94 166.04
  A 0.82 0.82 0.0 0 0 397.36 167.20
  L 401.86 176.44
  A 1.70 1.68 -89.6 0 0 402.63 177.23
  L 403.68 177.75
  Q 404.82 178.31 403.57 178.55
  Q 401.19 179.02 398.82 178.58
  A 0.90 0.90 0.0 0 1 398.16 178.08
  L 392.55 166.38
  A 0.79 0.79 0.0 0 1 393.36 165.25
  C 397.44 165.72 403.81 162.49 402.73 157.52
  C 402.16 154.91 396.47 155.14 394.40 156.40
  A 1.30 1.27 84.1 0 0 393.86 157.08
  L 387.60 176.11
  A 0.76 0.76 0.0 0 0 388.04 177.06
  L 390.21 177.93
  A 0.35 0.35 0.0 0 1 390.35 178.48
  C 389.89 179.00 381.14 178.74 379.74 178.71
  A 0.45 0.45 0.0 0 1 379.66 177.82
  L 382.01 177.38
  A 2.54 2.54 0.0 0 0 383.97 175.67
  L 390.36 156.38
  Z"
/>
<path d="
  M 518.83 176.80
  L 528.87 176.64
  A 0.97 0.97 0.0 0 0 529.67 176.19
  C 530.13 175.44 531.45 172.41 532.32 172.47
  A 0.58 0.58 0.0 0 1 532.82 173.26
  L 530.84 178.24
  A 0.83 0.83 0.0 0 1 530.07 178.76
  L 512.16 178.73
  A 0.45 0.45 0.0 0 1 512.01 177.85
  Q 514.15 177.08 514.92 174.81
  Q 517.96 165.78 520.74 156.67
  A 0.73 0.72 -71.7 0 0 520.30 155.78
  L 518.49 155.11
  A 0.64 0.64 0.0 0 1 518.08 154.37
  C 518.29 153.34 527.10 153.76 528.35 153.78
  A 0.47 0.47 0.0 0 1 528.78 154.42
  C 528.09 156.20 525.65 154.22 524.54 157.11
  Q 520.92 166.52 518.42 176.27
  A 0.42 0.42 0.0 0 0 518.83 176.80
  Z"
/>
<path d="
  M 720.30 164.79
  Q 724.16 165.73 723.90 169.17
  C 723.60 173.05 719.81 176.40 716.35 177.78
  C 712.53 179.30 706.84 178.80 702.31 178.68
  A 0.41 0.41 0.0 0 1 702.14 177.90
  C 705.41 176.23 709.48 160.59 710.72 156.56
  A 0.69 0.69 0.0 0 0 710.29 155.70
  L 708.71 155.16
  A 0.65 0.64 -75.4 0 1 708.29 154.43
  C 708.54 153.17 720.77 153.85 722.41 153.91
  C 726.35 154.07 727.65 157.14 725.50 160.26
  Q 723.56 163.09 720.28 164.50
  Q 719.85 164.68 720.30 164.79
  Z
  M 714.66 156.46
  L 712.34 163.21
  A 0.46 0.45 -75.0 0 0 712.68 163.81
  Q 719.33 165.20 722.05 159.61
  C 724.34 154.90 717.68 155.71 715.58 155.79
  A 1.01 1.01 0.0 0 0 714.66 156.46
  Z
  M 711.28 166.48
  L 708.17 176.10
  A 0.53 0.53 0.0 0 0 708.59 176.79
  Q 717.87 178.33 719.78 169.78
  C 720.69 165.71 714.62 165.79 712.33 165.74
  A 1.08 1.08 0.0 0 0 711.28 166.48
  Z"
/>
<path d="
  M 753.35 156.95
  A 1.15 1.15 0.0 0 0 752.48 155.46
  L 751.05 155.19
  A 0.64 0.63 -81.3 0 1 750.54 154.49
  C 750.68 153.28 759.77 153.75 761.15 153.76
  A 0.38 0.38 0.0 0 1 761.46 154.35
  L 761.14 154.84
  A 0.90 0.89 -68.8 0 1 760.25 155.24
  Q 757.93 154.84 757.20 156.73
  Q 755.46 161.29 751.39 174.11
  C 750.68 176.36 750.85 178.07 753.78 177.77
  Q 754.33 177.72 754.03 178.19
  C 753.46 179.09 742.61 179.09 742.59 178.09
  A 0.42 0.42 0.0 0 1 743.05 177.66
  Q 746.44 178.00 747.50 174.76
  Q 750.36 166.06 753.35 156.95
  Z"
/>
<path d="
  M 784.44 155.80
  L 782.45 155.08
  A 0.57 0.57 0.0 0 1 782.15 154.26
  C 782.46 153.71 786.76 153.98 787.74 153.76
  A 1.04 1.04 0.0 0 1 788.89 154.31
  L 798.54 173.43
  Q 799.43 175.19 800.03 173.32
  L 805.52 156.33
  A 0.59 0.59 0.0 0 0 805.17 155.60
  L 803.05 154.76
  A 0.49 0.49 0.0 0 1 803.22 153.82
  L 810.98 153.72
  Q 812.47 153.70 811.22 154.51
  Q 809.93 155.35 808.30 155.55
  A 0.80 0.80 0.0 0 0 807.66 156.08
  L 799.96 179.09
  A 0.55 0.54 21.2 0 1 799.22 179.41
  L 797.09 178.45
  A 1.63 1.61 88.1 0 1 796.32 177.72
  L 786.57 158.97
  A 0.44 0.44 0.0 0 0 785.76 159.04
  L 780.23 176.31
  A 0.74 0.73 -71.8 0 0 780.69 177.23
  L 782.55 177.85
  A 0.32 0.32 0.0 0 1 782.69 178.37
  C 781.94 179.18 775.48 178.65 774.68 178.56
  A 0.47 0.47 0.0 0 1 774.29 177.95
  C 774.55 177.15 777.40 178.21 778.36 175.41
  Q 781.62 165.98 784.75 156.45
  A 0.52 0.52 0.0 0 0 784.44 155.80
  Z"
/>
<path d="
  M 843.85 164.55
  Q 844.43 163.89 844.79 162.80
  Q 845.06 162.00 845.87 162.28
  A 0.54 0.54 0.0 0 1 846.21 162.96
  L 843.91 169.89
  A 0.53 0.52 11.7 0 1 843.36 170.25
  L 843.04 170.22
  A 0.47 0.47 0.0 0 1 842.62 169.65
  L 842.95 168.03
  A 0.71 0.70 -83.4 0 0 842.29 167.18
  L 836.08 166.94
  A 0.94 0.93 -79.8 0 0 835.15 167.59
  L 832.47 176.02
  A 0.59 0.58 9.0 0 0 833.03 176.78
  L 842.48 176.69
  A 0.99 0.99 0.0 0 0 843.32 176.22
  L 845.43 172.83
  A 0.68 0.67 27.2 0 1 846.26 172.57
  C 847.09 172.93 844.97 177.12 844.36 178.24
  A 0.98 0.98 0.0 0 1 843.50 178.75
  L 826.94 178.75
  Q 825.67 178.75 826.66 177.96
  L 828.05 176.85
  A 1.61 1.59 80.2 0 0 828.56 176.12
  L 835.07 156.72
  A 0.73 0.71 23.4 0 0 834.72 155.86
  L 833.05 154.97
  A 0.45 0.45 0.0 0 1 832.83 154.43
  L 832.92 154.18
  A 0.63 0.62 8.9 0 1 833.52 153.75
  L 851.29 153.75
  A 0.44 0.44 0.0 0 1 851.68 154.40
  C 851.09 155.49 849.97 159.06 849.00 159.56
  A 0.35 0.35 0.0 0 1 848.49 159.25
  L 848.50 156.40
  A 0.61 0.61 0.0 0 0 847.90 155.79
  L 839.79 155.65
  A 0.76 0.76 0.0 0 0 839.06 156.16
  L 836.44 164.06
  A 0.95 0.95 0.0 0 0 837.40 165.31
  L 843.04 164.95
  A 1.23 1.20 17.9 0 0 843.85 164.55
  Z"
/>
<path d="
  M 879.73 177.22
  L 882.03 177.71
  A 0.41 0.40 -67.0 0 1 882.28 178.34
  C 881.73 179.13 873.28 178.69 871.97 178.61
  A 0.49 0.49 0.0 0 1 871.52 178.03
  C 871.70 177.05 874.90 178.36 875.93 175.46
  Q 879.29 166.01 882.12 156.41
  A 0.51 0.51 0.0 0 0 881.63 155.75
  L 876.43 155.75
  A 1.08 1.06 -68.0 0 0 875.65 156.09
  C 875.03 156.76 873.65 159.90 872.87 159.78
  A 0.58 0.58 0.0 0 1 872.40 159.02
  L 873.90 154.35
  A 0.82 0.81 8.7 0 1 874.68 153.79
  L 895.10 153.78
  A 0.44 0.44 0.0 0 1 895.52 154.36
  L 893.76 159.52
  A 0.49 0.49 0.0 0 1 893.04 159.78
  L 892.72 159.59
  A 0.56 0.55 19.6 0 1 892.45 159.04
  L 892.77 156.42
  A 0.61 0.60 -86.6 0 0 892.17 155.74
  L 886.65 155.77
  A 0.85 0.84 -80.9 0 0 885.85 156.36
  L 879.33 176.54
  A 0.53 0.53 0.0 0 0 879.73 177.22
  Z"
/>
</g>
</svg>
