<?xml version="1.0" encoding="UTF-8" standalone="no"?>
<!-- Generator: Adobe Illustrator 24.3.0, SVG Export Plug-In . SVG Version: 6.00 Build 0)  -->

<svg
   version="1.1"
   id="Layer_1"
   x="0px"
   y="0px"
   viewBox="0 0 535.63647 167.17523"
   xml:space="preserve"
   sodipodi:docname="linux-w.svg"
   width="535.63647"
   height="167.17523"
   inkscape:version="1.4 (86a8ad7, 2024-10-11)"
   xmlns:inkscape="http://www.inkscape.org/namespaces/inkscape"
   xmlns:sodipodi="http://sodipodi.sourceforge.net/DTD/sodipodi-0.dtd"
   xmlns="http://www.w3.org/2000/svg"
   xmlns:svg="http://www.w3.org/2000/svg"><defs
   id="defs1">
	
	
</defs><sodipodi:namedview
   id="namedview1"
   pagecolor="#ffffff"
   bordercolor="#000000"
   borderopacity="0.25"
   inkscape:showpageshadow="2"
   inkscape:pageopacity="0.0"
   inkscape:pagecheckerboard="true"
   inkscape:deskcolor="#d1d1d1"
   inkscape:zoom="2.8284271"
   inkscape:cx="210.71782"
   inkscape:cy="-4.7729708"
   inkscape:window-width="3840"
   inkscape:window-height="2066"
   inkscape:window-x="-11"
   inkscape:window-y="-11"
   inkscape:window-maximized="1"
   inkscape:current-layer="Layer_1" />
<style
   type="text/css"
   id="style1">
	.st0{fill:#4D4D4D;}
	.st1{fill:#1793D1;}
</style>
<path
   id="XMLID_8_"
   class="st0"
   d="m 185.56648,63.20523 c -7.3,0 -13.33,1.54 -15.71,2.25 l -2.39,13.05 c 0,0 12.07,-3.23 17.4,-3.09 8.84,0.28 9.54,3.37 9.4,7.44 0.14,0.28 -2.25,-3.65 -9.82,-3.79 -9.54,-0.14 -23.15,3.37 -23.15,17.82 -0.28,16.28 12.21,21.05 20.63,21.19 7.58,-0.14 11.22,-2.81 13.05,-4.35 2.53,-2.67 5.47,-5.33 8.28,-8.56 -2.67,4.77 -4.91,8.14 -7.3,10.66 v 2.1 l 11.51,-1.96 0.14,-31.43 c -0.15,-4.36 2.52,-21.33 -22.04,-21.33 z m -1.68,27.36 c 4.77,0 10.24,2.39 10.24,8.14 0,5.19 -6.45,8 -10.66,7.86 -4.21,0 -9.82,-3.37 -9.82,-8.42 0.13,-4.5 5.33,-7.72 10.24,-7.58 z m 31.29,-24.56 -0.14,52.06 13.47,-2.53 v -29.47 c 0,-4.35 6.31,-9.54 14.17,-9.4 1.68,-3.09 4.77,-10.8 5.61,-12.49 -17.54,0 -17.82,5.05 -20.91,7.58 0,-4.77 0,-7.72 0,-7.72 z m 75.77,6.88 c -0.14,0 -7.02,-8 -20.91,-8.14 -12.91,-0.28 -27.5,4.77 -27.78,26.52 0.14,19.08 14.03,26.66 27.78,26.8 14.87,0.14 20.77,-9.26 21.05,-9.54 -1.82,-1.54 -8.42,-8.14 -8.42,-8.14 0,0 -4.07,5.89 -12.21,6.03 -8,0.14 -15.01,-6.17 -15.15,-15.01 -0.14,-8.7 6.45,-13.47 15.15,-13.89 7.58,0 11.93,4.91 11.93,4.91 z m 16.97,-24.98 -12.77,2.95 0.14,67.77 12.49,-2.24 0.14,-31.85 c 0,-3.37 4.77,-8.42 12.91,-8.28 7.72,0.14 9.4,5.05 9.4,5.75 l 0.28,36.9 12.35,-2.24 v -39.15 c 0.14,-3.79 -8.28,-11.79 -21.61,-11.79 -6.31,0 -9.82,1.4 -11.65,2.53 -3.09,2.39 -6.59,4.63 -9.96,7.58 3.23,-4.07 5.89,-6.88 8.42,-8.98 z"
   inkscape:label="arch"
   style="fill:#ffffff" /><path
   id="XMLID_20_"
   class="st1"
   d="m 353.51648,49.59523 5.75,-1.4 -0.7,68.33 -5.89,0.98 z m 15.3,20.48 5.05,-2.25 -0.7,48.97 -4.91,0.98 z m -0.84,-17.68 4.07,-3.37 3.37,3.79 -4.07,3.37 z m 15.43,16.7 5.75,-1.12 -0.14,10.24 c 0,0.42 3.37,-11.51 18.66,-11.22 14.87,0.14 17.12,11.51 16.98,14.03 l -0.28,36.06 -5.05,1.12 0.42,-35.5 c 0.14,-0.98 -2.25,-9.82 -12.63,-9.82 -10.52,0 -17.82,7.58 -17.96,12.35 l -0.42,31.29 -5.89,1.54 z m 91.2,48.27 -5.75,1.12 0.14,-10.24 c 0,-0.42 -3.37,11.51 -18.66,11.22 -14.87,-0.14 -17.12,-11.51 -16.98,-14.03 l 0.28,-36.06 6.17,-1.26 -0.42,35.5 c 0,0.98 0.98,9.96 11.51,9.96 10.53,0 17.96,-6.31 18.1,-15.71 l 0.28,-28.06 5.75,-1.4 z m 12.07,-48.69 -4.07,3.09 15.15,20.2 -16.84,23.29 4.21,3.23 15.86,-21.61 15.71,22.17 4.07,-3.09 -16.84,-23.71 14.03,-19.08 -4.21,-3.51 -12.77,17.68 z m -387.819996,-52.06 c -6.74,16.42 -10.8,27.22 -18.24,43.08 4.63,4.91 10.24,10.52 19.36,16.84 -9.82,-4.07 -16.56,-8.14 -21.47,-12.35 -9.54,19.92 -24.55,48.27 -54.86,102.85 23.85,-13.75 42.37,-22.31 59.63,-25.54 -0.7,-3.23 -1.12,-6.59 -1.12,-10.24 v -0.7 c 0.42,-15.29 8.28,-27.08 17.82,-26.24 9.399996,0.84 16.699996,13.89 16.419996,29.18 0,2.95 -0.42,5.61 -0.98,8.28 17.12,3.37 35.36,11.79 58.93,25.4 -4.63,-8.56 -8.84,-16.28 -12.77,-23.57 -6.17,-4.77 -12.77,-11.08 -25.96,-17.96 9.12,2.39 15.71,5.05 20.77,8.14 -40.55,-74.79 -43.78,-84.76 -57.529996,-117.17 z m 429.349996,97.66 v -4.21 h -1.54 v -0.56 h 3.79 v 0.56 h -1.54 v 4.21 z m 2.81,0 v -4.77 h 0.98 l 1.12,3.37 c 0.14,0.28 0.14,0.56 0.28,0.7 0,-0.14 0.14,-0.42 0.28,-0.7 l 1.12,-3.37 h 0.84 v 4.77 h -0.56 v -4.07 l -1.4,4.07 h -0.56 l -1.4,-4.07 v 4.07 z m -356.11,39.57 v -4.07 h -1.54 v -0.56 h 3.65 v 0.56 h -1.54 v 4.07 z m 2.8,0 v -4.63 h 0.98 l 1.12,3.37 c 0.14,0.28 0.14,0.56 0.28,0.7 0,-0.14 0.14,-0.42 0.28,-0.7 l 1.12,-3.23 h 0.84 v 4.63 h -0.56 v -3.93 l -1.4,3.93 h -0.56 l -1.4,-3.93 v 3.93 h -0.7 z"
   style="display:inline"
   inkscape:label="A_linux" />
<path
   id="path10"
   style="fill:#aa2826;fill-opacity:1;stroke-width:0.751441;stroke-linecap:round;stroke-miterlimit:4.5;paint-order:fill markers stroke"
   d="m 0,0 v 37.271484 11.308594 h 2.28125 7.421875 v -9.90625 L 17.238281,28.617187 28.009765,48.580078 H 38.71875 L 23.464843,20.30664 38.679687,0 H 27.927734 L 18.96289,11.964843 12.736328,20.273437 9.703125,24.322265 V 14.65039 0 H 1.798828 Z"
   inkscape:label="K" /><path
   id="path22"
   style="display:inline;fill:#aa2826;fill-opacity:1;stroke-width:0.770242;stroke-linecap:round;stroke-miterlimit:4.5;paint-order:fill markers stroke"
   d="m 33.070312,18.992187 v 12.699219 h 2.398438 v -2.595703 h 2.939453 l 1.125,2.595703 h 2.601563 l -1.462891,-3.382812 v 0 c 1.474135,-0.918736 2.372645,-2.530596 2.378906,-4.267579 -0.0012,-2.621145 -2.007552,-4.805664 -4.61914,-5.029297 C 38.288105,18.999053 38.144093,18.992536 38,18.992187 v 0 z m 2.398438,2.398438 H 38 c 1.46386,-2.16e-4 2.650606,1.18653 2.650391,2.65039 C 40.650607,25.504841 39.46386,26.691622 38,26.691406 h -2.53125 z"
   sodipodi:nodetypes="cccccccccccccccccccc"
   inkscape:label="R" /><path
   id="rect5"
   style="fill:#aa2826;fill-opacity:1;stroke-width:0.782294;stroke-linecap:round;stroke-miterlimit:4.5;paint-order:fill markers stroke"
   d="m 58.796875,18.991796 v 12.7 h 2.400168 v -8.573428 l 4.985868,8.573428 h 2.724359 l -0.0625,-0.107412 V 18.991796 h -2.398211 v 8.467968 l -4.925326,-8.467968 h -0.32419 z"
   inkscape:label="N" /><path
   d="m 50.605468,18.841796 a 6.5,6.5 0 0 0 -6.5,6.5 6.5,6.5 0 0 0 6.5,6.500001 6.5,6.5 0 0 0 6.5,-6.500001 6.5,6.5 0 0 0 -6.5,-6.5 z m 0,2.351563 a 4.1500001,4.1500001 0 0 1 4.150391,4.148437 4.1500001,4.1500001 0 0 1 -4.150391,4.150391 4.1500001,4.1500001 0 0 1 -4.15039,-4.150391 4.1500001,4.1500001 0 0 1 4.15039,-4.148437 z"
   style="display:inline;fill:#aa2826;fill-opacity:1;stroke-width:0.76477;stroke-linecap:round;stroke-miterlimit:4.5;paint-order:fill markers stroke"
   id="path15"
   inkscape:label="O" /></svg>
