<?xml version="1.0" encoding="UTF-8" standalone="no"?>
<!-- Created by ERK -->

<svg
   width="676.50079mm"
   height="123.42865mm"
   viewBox="0 0 676.50079 123.42865"
   version="1.1"
   id="svg1"
   inkscape:version="1.4 (86a8ad7, 2024-10-11)"
   xml:space="preserve"
   sodipodi:docname="locomalito-w.svg"
   xmlns:inkscape="http://www.inkscape.org/namespaces/inkscape"
   xmlns:sodipodi="http://sodipodi.sourceforge.net/DTD/sodipodi-0.dtd"
   xmlns="http://www.w3.org/2000/svg"
   xmlns:svg="http://www.w3.org/2000/svg"><sodipodi:namedview
     id="namedview1"
     pagecolor="#ffffff"
     bordercolor="#000000"
     borderopacity="0.25"
     inkscape:showpageshadow="2"
     inkscape:pageopacity="0.0"
     inkscape:pagecheckerboard="true"
     inkscape:deskcolor="#d1d1d1"
     inkscape:document-units="mm"
     inkscape:zoom="0.76422059"
     inkscape:cx="1278.4267"
     inkscape:cy="233.5713"
     inkscape:window-width="3840"
     inkscape:window-height="2066"
     inkscape:window-x="-11"
     inkscape:window-y="-11"
     inkscape:window-maximized="1"
     inkscape:current-layer="svg1" /><defs
     id="defs1"><marker
       id="DistanceX"
       orient="auto"
       refX="0"
       refY="0"
       style="overflow:visible"><path
         d="M 3,-3 -3,3 M 0,-5 V 5"
         style="stroke:#000000;stroke-width:0.5"
         id="path1" /></marker><pattern
       id="Hatch"
       patternUnits="userSpaceOnUse"
       width="8"
       height="8"
       x="0"
       y="0"><path
         d="M8 4 l-4,4"
         stroke="#000000"
         stroke-width="0.25"
         linecap="square"
         id="path2" /><path
         d="M6 2 l-4,4"
         stroke="#000000"
         stroke-width="0.25"
         linecap="square"
         id="path3" /><path
         d="M4 0 l-4,4"
         stroke="#000000"
         stroke-width="0.25"
         linecap="square"
         id="path4" /></pattern><symbol
       id="*Model_Space" /><symbol
       id="*Paper_Space" /><symbol
       id="*Paper_Space0" /><marker
       id="DistanceX-0"
       orient="auto"
       refX="0"
       refY="0"
       style="overflow:visible"><path
         d="M 3,-3 -3,3 M 0,-5 V 5"
         style="stroke:#000000;stroke-width:0.5"
         id="path1-9" /></marker><pattern
       id="Hatch-4"
       patternUnits="userSpaceOnUse"
       width="8"
       height="8"
       x="0"
       y="0"><path
         d="M8 4 l-4,4"
         stroke="#000000"
         stroke-width="0.25"
         linecap="square"
         id="path2-8" /><path
         d="M6 2 l-4,4"
         stroke="#000000"
         stroke-width="0.25"
         linecap="square"
         id="path3-8" /><path
         d="M4 0 l-4,4"
         stroke="#000000"
         stroke-width="0.25"
         linecap="square"
         id="path4-2" /></pattern><symbol
       id="*Model_Space-4" /><symbol
       id="*Paper_Space-5" /><symbol
       id="*Paper_Space0-5" /></defs><path
     d="M 27.50013,0 V 10.286193 H 14.49989 v 41.142704 h 13.00024 v 20.57136 h 12.99972 v -10.28568 h 13.00024 v 10.28568 h 12.99972 v -10.28568 h 13.00024 v 10.28568 h 12.99973 v -20.57136 h 13.00023 V 10.286193 H 92.49978 V 0 Z m 0,20.57187 H 55.89736 V 41.255367 H 27.50013 Z m 39.41258,10.285677 h 25.58707 v 10.28568 H 66.91271 Z"
     style="stroke:none;stroke-width:0.944827;stroke-linecap:round;fill:#ffffff"
     id="path14"
     inkscape:label="skull" /><path
     d="m 0,72.000257 v 20.57135 H 40.93703 V 82.285937 H 13.39504 v -10.28568 z"
     style="fill:#ffffff;fill-opacity:1;stroke:none;stroke-width:0.944827;stroke-linecap:round;stroke-opacity:1"
     id="path9"
     inkscape:label="bone1" /><path
     id="path8"
     style="display:inline;fill:#ffffff;fill-opacity:1;stroke:none;stroke-width:0.944827;stroke-linecap:round"
     d="M 40.936808,102.85749 V 92.571813 h 40.744775 v 10.285677 z"
     sodipodi:nodetypes="ccccc"
     inkscape:label="bone2" /><path
     d="m 81.68183,102.85729 v 10.28568 h 25.27494 v 10.28568 h 13.04314 v -20.57136 z"
     style="fill:#ffffff;fill-opacity:1;stroke:none;stroke-width:0.944827;stroke-linecap:round;stroke-opacity:1"
     id="path13"
     inkscape:label="bone3" /><path
     d="m 106.95677,72.000257 v 10.28568 H 81.68183 v 10.28567 h 38.31808 v -20.57135 z"
     style="fill:#ffffff;fill-opacity:1;stroke:none;stroke-width:0.944827;stroke-linecap:round;stroke-opacity:1"
     id="path10"
     inkscape:label="bone4" /><path
     d="m 0,102.85729 v 20.57136 h 13.39504 v -10.28568 h 27.54199 v -10.28568 z"
     style="display:inline;fill:#ffffff;fill-opacity:1;stroke:none;stroke-width:0.944827;stroke-linecap:round;stroke-opacity:1"
     id="path11"
     inkscape:label="bone5" /><path
     d="m 419.00027,78.428807 v 12.0003 h 9.74979 v 8.00003 h 5.50095 v -8.00003 h 9.74979 v -12.0003 h -5.00073 v 8.00003 h -14.99909 v -8.00003 z"
     style="fill:#ffffff;fill-opacity:1;stroke:none;stroke-width:0.944827;stroke-linecap:round"
     id="path35"
     inkscape:label="Y" /><path
     id="path34"
     style="fill:#ffffff;fill-opacity:1;stroke:none;stroke-width:0.944827;stroke-linecap:round"
     d="m 388.49928,78.428807 v 20.00033 h 25.00002 v -8.00003 h -5.00021 v 3.99975 h -14.9996 v -3.99975 h 14.9996 v -4.00027 h -14.9996 v -4.00028 h 14.9996 v 4.00028 h 5.00021 v -8.00003 z"
     inkscape:label="B" /><path
     d="m 342.50106,78.428807 v 20.00033 h 24.99796 v -4.00027 h -19.99983 v -3.99976 h 15.7267 v -4.00027 h -15.7267 v -4.00028 h 19.99983 v -3.99975 z"
     style="fill:#ffffff;fill-opacity:1;stroke:none;stroke-width:0.944827;stroke-linecap:round"
     id="path33"
     inkscape:label="E" /><path
     d="m 300.99867,78.428807 v 20.00033 h 5.00073 v -16.00058 h 10.50118 v 16.00058 h 5.00071 v -16.00058 h 10.49859 v 16.00058 h 5.00073 v -20.00033 z"
     style="fill:#ffffff;fill-opacity:1;stroke:none;stroke-width:0.944827;stroke-linecap:round"
     id="path32"
     inkscape:label="M" /><path
     d="m 270.50029,78.428807 v 20.00033 h 5.00073 v -8.00003 h 14.99907 v 8.00003 h 5.00073 v -20.00033 z m 5.00073,3.99975 h 14.99907 v 4.00028 h -14.99907 z"
     style="stroke:none;stroke-width:0.944827;stroke-linecap:round;fill:#ffffff"
     id="path43"
     inkscape:label="A" /><path
     d="m 239.99981,78.428807 v 20.00033 h 24.99952 v -12.0003 h -14.99961 v 4.00027 h 9.99888 v 3.99976 h -14.99857 v -12.00031 h 19.9993 v -3.99975 z"
     style="fill:#ffffff;fill-opacity:1;stroke:none;stroke-width:0.944827;stroke-linecap:round"
     id="path30"
     inkscape:label="G" /><path
     d="m 194.00004,78.428807 v 20.00033 h 4.99969 v -8.00003 h 15.00012 v 8.00003 h 5.00021 v -20.00033 z m 4.99969,3.99975 h 15.00012 v 4.00028 h -15.00012 z"
     style="stroke:none;stroke-width:0.944827;stroke-linecap:round;fill:#ffffff"
     id="path42"
     inkscape:label="A" /><path
     d="m 632.50039,27.428817 v 33.00005 h 44.00042 v -33.00005 z m 8.49821,6.00015 h 27.00094 v 20.99975 H 640.9986 Z"
     style="stroke:none;stroke-width:0.944827;stroke-linecap:round;fill:#ffffff"
     id="path41"
     inkscape:label="O" /><path
     d="m 579.49898,27.428817 v 6.76186 h 17.75087 v 26.23819 h 8.50127 v -26.23819 h 17.74828 v -6.76186 z"
     style="fill:#ffffff;fill-opacity:1;stroke:none;stroke-width:0.944827;stroke-linecap:round"
     id="path23"
     inkscape:label="T" /><path
     d="m 561.99981,27.428817 v 33.00005 h 8.50077 v -33.00005 z"
     style="fill:#ffffff;fill-opacity:1;stroke:none;stroke-width:0.944827;stroke-linecap:round"
     id="path22"
     inkscape:label="I" /><path
     d="m 517.99939,27.428817 v 33.00005 h 35.00146 v -6.00015 h -26.00047 v -26.9999 z"
     style="fill:#ffffff;fill-opacity:1;stroke:none;stroke-width:0.944827;stroke-linecap:round"
     id="path21"
     inkscape:label="L" /><path
     d="m 465.00054,27.428817 v 33.00005 h 7.92459 v -13.47411 h 26.76531 v 13.47411 h 9.31052 v -33.00005 z m 7.92459,6.05183 h 26.76531 v 6.81457 h -26.76531 z"
     style="stroke:none;stroke-width:0.944827;stroke-linecap:round;fill:#ffffff"
     id="path40"
     inkscape:label="A" /><path
     d="m 396.00012,27.428817 v 33.00005 h 8.50077 v -26.94822 h 17.20877 v 26.94822 h 8.58036 v -26.94822 h 17.21135 v 26.94822 h 8.49818 v -33.00005 z"
     style="fill:#ffffff;fill-opacity:1;stroke:none;stroke-width:0.944827;stroke-linecap:round"
     id="path19"
     inkscape:label="M" /><path
     d="m 343.00128,27.428817 v 33.00005 h 43.99732 v -33.00005 z m 8.4982,6.00015 h 27.00092 v 20.99975 h -27.00092 z"
     style="stroke:none;stroke-width:0.944827;stroke-linecap:round;fill:#ffffff"
     id="path39"
     inkscape:label="O" /><path
     d="m 289.99986,27.428817 v 33.00005 h 44.00042 v -6.97166 h -35.49911 v -19.97656 h 35.49911 v -6.05183 z"
     style="fill:#ffffff;fill-opacity:1;stroke:none;stroke-width:0.944827;stroke-linecap:round"
     id="path17"
     inkscape:label="C" /><path
     d="m 237.99994,27.428817 v 33.00005 h 42.99893 v -33.00005 z m 8.50025,6.00015 h 25.99998 v 20.99975 h -25.99998 z"
     style="stroke:none;stroke-width:0.944827;stroke-linecap:round;fill:#ffffff"
     id="path38"
     inkscape:label="O" /><path
     d="m 194.00004,27.428817 v 33.00005 h 34.99993 v -6.00015 h -25.99996 v -26.9999 z"
     style="display:inline;fill:#ffffff;fill-opacity:1;stroke:none;stroke-width:0.944827;stroke-linecap:round"
     id="path15"
     inkscape:label="L" /></svg>
