<svg id="Layer_1" data-name="Layer 1" xmlns="http://www.w3.org/2000/svg" viewBox="0 0 3839.96105 831.79174"><path d="M1369.6,324.9a229.97526,229.97526,0,0,0-127.30005-120.6L730,5.7,537.3,520.2a229.37344,229.37344,0,0,0,5.3,175.2c52.1,116.2,188.5,168.2,304.7,116.1A229.29158,229.29158,0,0,0,971.1,676l27-72,71.69995,27.8a230.2819,230.2819,0,0,0,183.7-2.1C1369.7,577.5,1421.7,441.1,1369.6,324.9ZM1220.2,518.6a140.20393,140.20393,0,0,1-112.1,1.3L929.4,450.6,862.2,630.1a140.69668,140.69668,0,1,1-264.8-95.1L765.8,85.5,1213.4,259A140.626,140.626,0,0,1,1220.2,518.6Z" transform="translate(-0.03895 0.06038)" style="fill:#47a7d6"/><path d="M731.4,212.5a230.11087,230.11087,0,0,0-183.6-5.9l-72.3,26.3-25.5-72.6a230.15614,230.15614,0,0,0-121-138.2C214-32.3,76.5,16.9,22.1,132a230.17688,230.17688,0,0,0-8.9,175.1L195.3,825.5,711.5,637.4A229.69736,229.69736,0,0,0,841.3,519.5C895.7,404.4,846.6,267,731.4,212.5Zm13.8,243.9a140.21006,140.21006,0,0,1-79.2,72L267.1,673.6,126.5,273.1a140.17316,140.17316,0,0,1,5.4-106.9C165.1,96,249,66,319.3,99.2a140.57824,140.57824,0,0,1,73.9,84.3l45.1,128.4,127.9-46.6a140.71541,140.71541,0,0,1,179,191.1Z" transform="translate(-0.03895 0.06038)" style="fill:#fa68b7"/><path d="M602.2,740c13.1-14.3,25.3-31.6,40.5-44.5A140.42534,140.42534,0,0,1,597.5,535l22.6-60.3c-5.1-.5-10.2-1-15.4-1.4-16-1.4-32.1-2.8-48.1-4.3l-19.2,51.1a229.868,229.868,0,0,0,45.7,236.6C589.7,751.6,596.3,746.4,602.2,740Z" transform="translate(-0.03895 0.06038)" style="fill:#47a7d6"/><path d="M1548.6,732.3c0,13.5,3.69995,20.3,18.5,23.4,14.8,2.5,35.69995,2.5,51.1,2.5,20.9,0,42.5-1.2,62.80005-6.2,22.80005-6.2,35.69995-18.5,52.9-34.5,8.6-8,21.5-20.9,34.5-20.9,9.80005,0,20.9,6.2,20.9,16.6,0,13.5-21.5,60.3-29.5,73.2-12.9,20.3-27.1,17.2-49.80005,17.2H1434.30005c-13.5,0-44.30005,3.7-44.30005-17.2,0-11.1,5.5-15.4,13.5-20.3,26.5-17.8,26.5-32,32-63.4l48-288.6c0-12.9-5.5-16-15.4-22.8-5.5-4.3-11.7-8.6-11.7-16.6,0-7.4,4.9-14.2,11.7-17.8a35.449,35.449,0,0,1,16-3.7h132.3c12.30005,0,26.5,2.5,26.5,17.8,0,9.9-6.8,13.5-14.19995,18.5-4.9,3.1-15.4,9.8-19.7,14.2-10.5,10.5-13.5,35.1-16,49.2Z" transform="translate(-0.03895 0.06038)" style="fill:#fff"/><path d="M1807.6,613.6c0-71.4,28.9-140.9,79.4-190.7,53.5-53.5,123.69995-78.8,199.3999-78.8,120.6001,0,217.2,72,217.2,197.5,0,153.8-121.2,271.4-275.7,271.4C1906.7,812.9,1807.6,740.3,1807.6,613.6Zm304.6,121.2c19.1001-17.8,32.6001-40.6,43.1001-64,19.7-43.7,32.6001-102.1,32.6001-149.5,0-64-26.5-132.3-102.1001-132.3-63.4,0-100.3,41.8-125.5,94.1C1939.4,527.4,1926.5,583.4,1926.5,632c0,68.9,24,134.7,104.6,134.7C2058.7,766.8,2092.5,753.9,2112.2,734.8Z" transform="translate(-0.03895 0.06038)" style="fill:#fff"/><path d="M2354,613.6c0-71.4,28.8999-140.9,79.3999-190.7,53.5-53.5,123.7-78.8,199.3999-78.8,120.6001,0,217.2,72,217.2,197.5,0,153.8-121.2,271.4-275.7,271.4C2453.1001,812.9,2354,740.3,2354,613.6Zm304.6001,121.2c19.1001-17.8,32.6001-40.6,43.1001-64,19.69995-43.7,32.60009-102.1,32.60009-149.5,0-64-26.5-132.3-102.10009-132.3-63.39991,0-100.30005,41.8-125.5,94.1-20.89991,44.3-33.80005,100.3-33.80005,148.9,0,68.9,24,134.7,104.60009,134.7C2605.1001,766.8,2638.8999,753.9,2658.6001,734.8Z" transform="translate(-0.03895 0.06038)" style="fill:#fff"/><path d="M3042.5,742.2c0,11.7,5.5,16.6,15.3999,23.4,6.80005,4.3,12.30005,8.6,12.30005,17.2,0,15.4-16,20.9-28.8999,20.9H2922.5c-12.3,0-32-.6-32-17.2,0-9.2,5.5-13.5,12.3-18.5,4.8999-3.7,13.5-9.2,17.80005-13.5,11.1001-10.5,14.19995-36.3,16.6001-50.5l47.3999-289.2c0-13.5-5.5-16-16-23.4-5.5-4.3-11.7-8.6-11.7-16.6,0-18.5,19.10009-21.5,33.80005-21.5h177.19995c34.5,0,78.80005,0,111.3999,11.7,38.2,13.5,68.8999,46.1,68.8999,88.6,0,68.3-54.1001,117.5-113.80005,143.4-54.8,24-115.69995,32.6-176,32.6Zm22.2-156.3c35.1001-2.5,70.1001-9.9,100.3-27.7,32.6001-20.3,63.3999-56,63.3999-95.4,0-50.5-37.5-69.5-84.3-69.5-16,0-36.30005,3.1-46.10009,17.8-4.30005,6.2-8,20.3-10.5,35.1Z" transform="translate(-0.03895 0.06038)" style="fill:#fff"/><path d="M3810.5,353.3c12.3,0,29.5.6,29.5,17.2,0,10.5-8,15.4-16,21.5-9.8,6.8-17.8,15.4-25.2,23.4l-173.5,202.4-18.5,124.9c0,28.9,38.2,16.6,38.2,40.6,0,16-14.2,20.3-27.1001,20.3h-158.8c-10.5-3.1-19.7-8-19.7-18.5,0-11.7,12.8999-17.8,22.80005-21.5,9.8-3.1,17.8-5.5,24-14.2,6.8-11.1,11.1001-40.6,13.5-53.5l12.3-71.4-53.5-88.6-54.2-117.5c-4.3-9.8-8.6001-17.8-19.1001-24.6-9.2-5.5-16.6001-8.6-16.6001-20.3,0-11.1,6.8-16,15.39991-20.3h157.5c10.5,1.9,19.69995,6.2,19.69995,17.8,0,9.2-6.19995,13.5-13.5,17.8-11.69995,6.8-20.89991,11.1-20.89991,25.2,0,32,56.6001,129.8,76.30005,161.2,25.19995-25.8,129.8-140.3,129.8-168.6,0-19.1-24.6001-16.6-24.6001-33.2,0-19.7,19.7-20.3,35.1001-20.3H3810.5Z" transform="translate(-0.03895 0.06038)" style="fill:#fff"/><path d="M3066.7,185.1c-10.80005-2.7-13.3999-8.1-14.80005-18.8-2.69995-17.5-2.69995-60.5,0-79.3,1.30005-9.4,6.7-14.8,14.80005-17.5,9.3999-2.7,95.5-4,104.8999,0,8.1001,2.7,10.8,8.1,12.1001,16.1,4,17.5,4,61.9,0,79.3-1.30005,8.1-4,12.1-12.1001,16.1C3163.6001,187.8,3078.80005,187.8,3066.7,185.1ZM3199.8999,10.2C3174.2998,4.8,3076.2,3.5,3037.2,10.2c-29.6001,5.4-52.3999,26.9-59.2,53.8-5.3999,30.9-5.3999,99.5,0,127.8,5.3999,25.6,26.8999,48.4,59.2,53.8,33.6001,6.7,133.1001,5.4,164.1001-1.3,36.30005-8.1,51.1001-35,55.1001-52.4,5.3999-26.9,5.3999-95.5,0-127.8C3249.6001,35.8,3225.3999,15.6,3199.8999,10.2Zm-337.59985,1.4h74V244.2h-74ZM2744,155.5c12.1001,2.7,14.8,12.1,14.8,20.2s-1.3,17.5-14.8,18.8c-14.8,2.7-64.5,2.7-83.3999,0-8.1001-1.3-17.5-1.3-20.2-16.1v-4h-74a45.25524,45.25524,0,0,0,1.30005,10.8c2.69995,30.9,14.8,52.4,49.8,59.2,28.2,5.4,134.5,6.7,166.80005,0,37.69995-8.1,47.1001-41.7,47.1001-71.3,0-33.6-12.1001-56.5-41.69995-65.9-8.1001-2.7-26.8999-4-35-4-6.7,0-86.1001-2.7-103.5-5.4-10.80005-1.3-13.3999-8.1-13.3999-17.5s1.3-16.1,14.8-18.8c16.10009-2.7,79.3-2.7,86.10009,0,8.1001,2.7,10.80005,8.1,10.80005,14.8v5.4h74c0-5.4-1.30005-9.4-1.30005-13.4-4-36.3-24.19995-56.5-60.5-59.2-36.3-4-119.69995-2.7-145.19995,1.3-24.2,5.4-48.3999,20.2-48.3999,69.9,0,40.3,18.80005,60.5,51.1001,67.2,9.3999,1.3,36.3,2.7,40.3,2.7C2668.7,151.4,2738.6001,154.1,2744,155.5Zm-291.8-1.4h-82l35-92.8h12.1001Zm16.1001,48.4,16.1001,41.7h79.30005l-99.5-234H2356.6001l-98.2,234h79.30005l16.10009-43,114.49976,1.3ZM2046.1,167.6c1.3,13.4,8.1,16.1,14.79992,17.5,10.80005,2.7,87.3999,2.7,100.8999,0,9.39991-1.3,16.1001-8.1,17.5-16.1,0-4,1.30005-10.8,1.30005-13.4h76.69995a305.23156,305.23156,0,0,1-1.3,30.9c-4,28.2-20.2,51.1-55.1001,59.2-24.2,5.4-141.2,5.4-168.1,0-28.2-6.7-52.4-24.2-59.2-53.8-5.4-26.9-5.4-96.8,0-126.4,4-21.5,24.2-47.1,57.80005-53.8,30.9-5.4,139.9-6.7,169.4,0,39,9.4,51.1001,44.4,52.39991,56.5a273.71267,273.71267,0,0,1,1.30005,28.2h-76.7c0-5.4,1.30005-20.2-12.10009-24.2-8.1001-2.7-83.39991-2.7-102.19995-1.3-9.39991,1.3-14.80005,5.4-16.1,14.8C2043.4,104.4,2043.4,150.1,2046.1,167.6Z" transform="translate(-0.03895 0.06038)" style="fill:#fff"/></svg>