<?xml version="1.0" encoding="UTF-8" standalone="no"?>
<!-- Created by ERK -->

<svg
   width="566.93"
   height="118.865"
   xml:space="preserve"
   version="1.1"
   id="svg11"
   sodipodi:docname="macintosh.svg"
   inkscape:version="1.4 (86a8ad7, 2024-10-11)"
   xmlns:inkscape="http://www.inkscape.org/namespaces/inkscape"
   xmlns:sodipodi="http://sodipodi.sourceforge.net/DTD/sodipodi-0.dtd"
   xmlns="http://www.w3.org/2000/svg"
   xmlns:svg="http://www.w3.org/2000/svg"><defs
   id="defs11">
        
        
        
        
    
            
            
            
            
            
            
            
        </defs><sodipodi:namedview
   id="namedview11"
   pagecolor="#ffffff"
   bordercolor="#000000"
   borderopacity="0.25"
   inkscape:showpageshadow="2"
   inkscape:pageopacity="0.0"
   inkscape:pagecheckerboard="true"
   inkscape:deskcolor="#d1d1d1"
   inkscape:zoom="3.2384951"
   inkscape:cx="252.89524"
   inkscape:cy="68.704751"
   inkscape:window-width="3840"
   inkscape:window-height="2066"
   inkscape:window-x="-11"
   inkscape:window-y="-11"
   inkscape:window-maximized="1"
   inkscape:current-layer="svg11" />
    <g
   id="g11"
   inkscape:label="Macintosh"><path
     fill="#595959"
     d="m 177.639,103.668 c 0,-1.56 1.428,-1.949 4.808,-2.339 4.161,-0.391 4.418,-2.209 4.418,-8.188 0,-14.037 -0.907,-39.771 -1.428,-53.678 -0.13,-1.949 -0.13,-2.6 -0.65,-2.6 -0.52,0 -0.651,0.781 -1.171,1.95 -2.47,6.5 -6.497,19.235 -16.505,51.208 -3.64,12.086 -3.25,14.557 -5.719,14.557 -1.56,0 -1.949,-1.041 -3.25,-6.5 -4.288,-16.115 -14.296,-48.998 -17.546,-59.135 -0.391,-1.17 -0.649,-1.82 -1.301,-1.82 -0.518,0 -0.518,1.04 -0.777,2.859 -0.91,12.215 -1.688,33.142 -1.688,44.45 0,8.577 -0.133,16.246 4.288,16.896 2.339,0.392 5.719,0.521 5.719,2.34 0,1.039 -0.779,1.819 -2.602,1.819 -2.598,0 -4.676,-0.521 -9.617,-0.521 -4.548,0 -7.146,0.521 -8.966,0.521 -1.302,0 -2.079,-0.26 -2.079,-1.819 0,-1.948 1.949,-1.69 4.158,-2.209 3.77,-0.78 4.289,-3.771 4.678,-10.14 0.78,-13.905 2.209,-44.318 2.209,-55.106 0.13,-7.018 0,-8.317 -4.418,-8.968 -2.209,-0.259 -4.288,-0.519 -4.288,-2.079 0,-1.82 1.688,-1.949 3.509,-1.95 2.729,0 6.368,0.39 9.229,0.39 2.209,0 5.587,-0.39 7.668,-0.389 1.429,0 1.949,0.389 2.6,2.339 4.81,15.855 9.62,31.711 14.298,47.438 1.038,3.771 1.819,6.76 2.729,6.76 0.778,0 1.429,-1.819 2.597,-5.592 4.941,-15.854 9.88,-31.71 14.818,-47.438 0.776,-2.469 1.559,-3.509 2.989,-3.51 1.948,0 5.198,0.39 7.668,0.39 2.6,0 6.366,-0.39 9.097,-0.389 1.432,0 2.729,0.519 2.729,1.819 0,1.69 -1.688,2.081 -5.459,2.339 -2.339,0.26 -2.988,1.95 -2.988,7.798 0,12.867 1.561,43.279 1.95,59.266 0,4.81 1.168,6.629 3.769,6.89 3.25,0.778 4.679,1.041 4.679,2.47 0,1.43 -1.169,1.689 -2.986,1.689 -2.729,0 -5.851,-0.521 -11.828,-0.521 -5.199,0 -9.487,0.521 -12.348,0.521 -1.69,0 -2.988,-0.521 -2.988,-1.689 V 103.67 Z M 239.633,57.01 c 0,-6.108 -1.432,-8.579 -5.459,-8.579 -6.239,0 -9.097,4.68 -11.179,11.048 -0.91,2.729 -2.469,4.938 -4.418,6.238 -1.431,1.04 -3.25,1.819 -5.198,1.819 -2.47,0 -3.38,-1.041 -3.38,-3.379 0,-7.537 11.179,-19.364 27.294,-19.364 4.81,0 8.579,0.649 10.785,2.6 2.212,1.69 2.732,4.159 2.732,8.188 v 37.17 c 0,3.25 1.038,5.589 3.638,5.589 2.081,0 3.25,-1.169 3.9,-2.339 0.521,-1.17 1.038,-2.469 1.817,-2.469 0.78,0 1.041,0.648 1.041,2.209 0,2.857 -4.418,10.525 -11.959,10.525 -5.459,0 -7.018,-4.418 -8.059,-7.019 -0.391,-1.04 -0.777,-1.819 -1.428,-1.819 -1.041,0 -3.12,2.471 -6.37,4.811 -2.989,2.34 -7.019,4.418 -12.217,4.418 -6.108,0 -10.918,-4.157 -10.918,-11.697 0,-6.887 4.81,-11.566 15.336,-18.064 4.161,-2.729 7.277,-4.549 9.619,-6.108 3.509,-2.078 4.419,-3.25 4.419,-6.237 v -7.54 h 0.004 z m -17.679,35.61 c 0,4.811 2.732,7.279 6.5,7.279 2.859,0 5.589,-1.69 8.06,-4.16 2.339,-2.338 3.119,-4.158 3.119,-7.407 V 75.075 c 0,-1.561 -0.261,-1.95 -0.91,-1.95 -0.647,0 -1.299,0.26 -2.989,1.301 -2.729,1.819 -5.329,3.897 -7.538,6.108 -3.638,3.379 -6.24,7.277 -6.24,11.957 z m 37.822,-14.945 c 0,-18.975 12.347,-32.882 28.074,-32.882 3.51,0 8.188,0.649 11.178,2.469 2.729,1.56 2.988,2.079 3.119,5.199 v 4.68 c 0,1.169 -0.131,3.118 -0.392,4.288 -0.261,2.34 -1.171,3.12 -2.858,3.12 -2.34,0 -2.989,-3.378 -5.459,-8.837 -1.818,-4.29 -3.511,-6.499 -7.277,-6.499 -7.537,0 -14.167,9.877 -14.167,23.782 0,18.457 7.021,26.645 15.726,26.645 4.684,0 8.188,-1.949 10.788,-5.719 1.56,-2.339 2.601,-5.587 3.642,-5.587 0.776,0 1.299,0.778 1.299,1.819 0,6.107 -6.497,16.506 -19.624,16.506 -14.428,0 -24.045,-11.827 -24.045,-28.854 z m 52.638,-16.897 c 0,-4.158 -0.91,-5.199 -4.94,-5.849 -1.559,-0.26 -2.206,-0.649 -2.206,-1.56 0,-1.17 1.168,-1.689 4.158,-2.598 4.156,-1.172 7.798,-3.121 10.526,-4.681 1.298,-0.778 2.079,-1.3 2.601,-1.3 0.776,0 1.037,0.521 1.037,1.949 V 94.7 c 0,4.42 -0.042,6.641 1.637,7.146 2.296,0.696 3.25,0.781 3.25,2.082 0,1.168 -0.521,1.561 -2.078,1.561 -2.729,0 -2.678,-0.521 -8.396,-0.521 -6.238,0 -6.057,0.521 -8.524,0.521 -1.04,0 -1.951,-0.521 -1.951,-1.561 0,-1.301 0.911,-1.695 2.603,-2.082 2.067,-0.471 2.286,-1.56 2.286,-6.759 z m 5.589,-24.173 c -3.382,0 -6.499,-2.731 -6.499,-7.669 0,-4.808 2.859,-7.798 6.63,-7.798 3.639,0 6.497,2.859 6.497,7.668 0,5.068 -2.858,7.799 -6.497,7.799 z m 20.923,24.173 c 0,-4.418 -0.521,-4.938 -3.768,-5.328 -2.339,-0.26 -3.12,-0.391 -3.12,-1.431 0,-1.3 1.299,-1.56 4.028,-2.469 4.678,-1.69 8.319,-3.769 10.267,-5.329 1.171,-0.909 1.821,-1.43 2.474,-1.43 0.776,0 1.038,1.04 1.038,2.209 v 5.2 c 0,1.819 0.13,2.209 0.521,2.209 1.171,0 3.249,-2.209 6.105,-4.418 2.991,-2.209 7.021,-4.549 11.827,-4.549 4.419,0 8.579,1.43 11.565,4.549 2.731,2.859 4.291,7.019 4.291,12.476 V 95.61 c 0,4.549 1.153,5.979 4.146,6.367 0,0 1.924,0.65 1.924,1.95 0,1.169 -0.911,1.562 -2.34,1.562 -1.562,0 -3.339,-0.521 -9.447,-0.521 -5.848,0 -6.474,0.521 -8.551,0.521 -1.433,0 -2.079,-0.391 -2.079,-1.69 0,-0.909 0.928,-1.354 2.209,-1.69 1.2,-0.313 2.962,-1.688 2.962,-5.328 V 63.769 c 0,-3.121 -0.646,-5.85 -2.209,-7.93 -1.818,-2.338 -4.549,-3.639 -7.798,-3.639 -3.382,0 -6.628,1.301 -9.098,3.51 -2.339,2.209 -3.641,4.809 -3.641,7.928 V 96.78 c 0,3.379 0.632,4.779 3.771,5.328 0.549,0.096 1.148,0.375 1.148,1.543 0,1.301 -0.91,1.689 -1.951,1.689 -1.56,0 -1.147,-0.375 -8.813,-0.375 -6.63,0 -6.734,0.521 -8.813,0.521 -1.56,0 -2.471,-0.521 -2.471,-1.69 0,-1.169 1.045,-1.784 2.341,-1.95 2.813,-0.354 3.481,-2.078 3.481,-7.277 V 60.778 Z m 68.856,31.584 c 0,5.066 1.431,7.275 4.551,7.275 2.47,0 4.028,-1.689 5.068,-3.248 1.169,-1.562 1.948,-3.121 2.989,-3.121 0.776,0 1.299,0.391 1.299,1.301 0,1.949 -3.511,12.088 -13.647,12.088 -3.768,0 -6.627,-1.039 -8.575,-3.119 -2.078,-2.34 -2.858,-5.459 -2.858,-10.398 V 53.11 c 0,-1.431 -0.65,-1.951 -1.563,-2.08 -0.907,-0.131 -2.079,-0.131 -3.116,-0.131 -1.172,0 -2.213,-0.129 -2.213,-1.56 0,-0.91 0.78,-1.819 2.473,-3.379 4.027,-3.12 7.408,-6.628 11.826,-14.426 1.171,-2.209 1.56,-2.99 2.47,-2.99 0.907,0 1.299,0.521 1.299,2.729 v 12.348 c 0,1.95 0.649,2.729 2.604,2.729 h 7.018 c 2.209,0 2.729,0.52 2.729,2.34 0,2.08 -0.521,2.729 -2.989,2.729 -2.209,0 -4.548,-0.131 -6.757,-0.131 -2.082,0 -2.604,0.521 -2.604,2.859 z"
     style="fill:#040404;fill-opacity:1"
     id="path1"
     inkscape:label="Macint" /><path
     fill="#595959"
     d="m 446.125,106.657 c -15.076,0 -25.477,-14.037 -25.477,-30.934 0,-16.637 10.008,-30.933 25.604,-30.933 15.856,0 25.604,14.427 25.604,30.803 0,17.025 -10.397,31.063 -25.604,31.063 h -0.127 z m 0.518,-3.638 c 8.97,0 13.127,-13.646 13.127,-25.994 0,-14.428 -4.549,-28.593 -13.776,-28.593 -8.967,0 -13.255,12.997 -13.255,25.995 0,14.425 4.679,28.593 13.774,28.593 h 0.13 z m 26.244,-41.721 c 0,-10.917 9.487,-16.505 20.665,-16.505 4.157,0 8.84,0.778 11.31,2.079 0.646,0.39 0.911,1.3 1.038,3.119 0.131,1.17 0.131,2.6 0.131,4.55 v 3.379 c -0.131,2.08 -0.389,3.25 -1.561,3.25 -1.688,0 -1.947,-2.47 -4.029,-6.89 -1.56,-3.379 -3.77,-5.979 -7.927,-5.979 -5.069,0 -9.103,3.51 -9.103,8.318 0,6.237 6.24,9.228 12.74,12.996 6.368,3.77 12.996,8.317 12.996,17.677 0,12.605 -10.139,19.364 -22.354,19.364 -3.9,0 -7.668,-0.649 -10.27,-1.56 -0.908,-0.261 -1.818,-0.52 -2.472,-1.041 -0.646,-0.39 -1.168,-1.039 -1.298,-3.639 -0.13,-1.82 -0.13,-4.288 -0.13,-7.669 0,-5.199 0.388,-6.627 1.688,-6.627 1.82,0 1.947,2.079 3.899,7.538 1.948,5.068 4.938,9.357 10.27,9.357 5.849,0 10.007,-3.898 10.007,-9.748 0,-7.668 -6.109,-11.049 -12.089,-14.688 -6.497,-3.641 -13.517,-7.798 -13.517,-17.156 v -0.13 h 0.005 v 0.005 z"
     style="fill:#040404;fill-opacity:1"
     id="path2"
     inkscape:label="os" /><path
     fill="#595959"
     d="m 514.162,27.766 c 0,-3.769 -0.519,-4.678 -4.028,-5.069 -2.209,-0.521 -2.988,-0.65 -2.988,-1.82 0,-1.3 0.911,-1.43 3.642,-2.209 5.198,-1.56 8.448,-2.729 10.527,-3.899 1.688,-0.781 2.469,-1.17 3.25,-1.17 0.775,0 0.905,0.519 0.905,2.339 V 52.85 c 0,0.779 0.263,1.169 0.781,1.169 0.521,0 1.168,-0.391 1.688,-0.91 3.25,-2.988 8.316,-7.668 15.854,-7.668 9.747,0 15.466,6.627 15.727,16.896 v 33.271 c 0,4.42 1.173,6.108 4.291,6.498 2.079,0.261 3.117,0.65 3.117,1.82 0,1.17 -0.908,1.561 -1.948,1.561 -1.169,0 -5.068,-0.521 -10.784,-0.521 -6.24,0 -8.579,0.521 -10.4,0.521 -1.429,0 -2.209,-0.521 -2.209,-1.689 0,-1.168 0.91,-1.431 2.339,-1.689 3.25,-0.52 4.291,-1.688 4.291,-5.328 V 63.769 c 0,-3.25 -0.521,-6.108 -2.078,-8.059 -1.82,-2.469 -4.552,-3.641 -8.063,-3.641 -3.377,0 -6.627,1.301 -9.096,3.51 -2.341,2.21 -3.513,4.811 -3.513,8.061 v 32.752 c 0,3.377 1.172,5.068 5.069,5.717 1.951,0.394 2.469,0.65 2.469,1.82 0,1.17 -0.907,1.562 -1.947,1.562 -1.56,0 -3.512,-0.521 -11.438,-0.521 -6.367,0 -8.446,0.521 -10.658,0.521 -1.168,0 -2.078,-0.392 -2.078,-1.69 0,-1.169 1.172,-1.818 2.47,-1.949 4.157,-0.39 4.81,-1.949 4.81,-7.277 z"
     style="fill:#040404;fill-opacity:1"
     id="path3"
     inkscape:label="h" /></g><path
   fill="#008000"
   d="M 66.344,21.192 C 70.774,16.333 73.079,9.51 73.399,0.334 L 73.41,0.001 73.086,0.067 C 57.533,3.249 49.5,12.996 49.213,29.038 l -0.006,0.312 0.307,-0.048 c 7.408,-1.161 12.914,-3.814 16.83,-8.11 z"
   id="path4"
   inkscape:label="AppleGreen1" /><path
   fill="#008000"
   d="m 92.947,42.269 a 50.748,50.748 0 0 1 3.313,-3.015 l 0.197,-0.165 -0.164,-0.201 C 90.524,31.77 82.621,27.93 73.441,27.786 l -0.42,-0.003 c -4.651,0 -8.764,0.872 -11.896,2.521 -4.059,2.138 -7.079,2.613 -7.108,2.617 -0.051,0.007 -0.383,0.02 -1.295,0.02 -1.104,0 -2.061,-0.018 -2.176,-0.035 L 50.474,32.898 C 49.173,32.729 45.853,32.184 43.165,30.75 39.509,28.801 35.436,27.771 31.39,27.771 l -0.267,10e-4 C 20.42,27.893 11.471,33.108 5.908,42.269 Z"
   id="path6"
   inkscape:label="AppleGreen2" /><path
   fill="#ffff00"
   d="m 83.973,57.487 c 1.052,-5.094 3.895,-10.039 8.531,-14.771 l 0.438,-0.447 H 5.909 l -0.075,0.127 c -2.668,4.426 -4.435,9.545 -5.273,15.09 z"
   id="path7"
   inkscape:label="AppleYellow" /><path
   fill="#ff6600"
   d="M 86.01,72.521 C 83.906,68.197 82.874,63.202 83.92,57.8 l 0.059,-0.313 H 0.569 L 0.536,57.713 C -0.17,62.521 -0.17,67.495 0.483,72.521 Z"
   id="path8"
   inkscape:label="AppleOrange" /><path
   fill="#ff0000"
   d="m 4.58,88.291 h 95.323 l 0.558,-1.206 -0.23,-0.115 C 95.668,84.711 89.553,79.767 86.072,72.667 L 86,72.521 H 0.478 l 0.042,0.297 c 0.58,4.348 1.771,9.632 4.06,15.473 z"
   id="path9"
   inkscape:label="AppleRed" /><path
   fill="#800080"
   d="m 12.827,103.702 h 79.201 c 3.026,-4.898 5.517,-10.297 7.707,-15.039 L 99.907,88.29 H 4.594 l 0.144,0.361 c 2.085,5.205 4.789,10.233 8.089,15.051 z"
   id="path10"
   inkscape:label="ApplePurple" /><path
   fill="#0000ff"
   d="m 12.824,103.702 0.285,0.412 a 90.751,90.751 0 0 0 8.761,10.725 c 2.47,2.596 6.403,4.025 11.076,4.025 3.424,0 6.976,-0.809 9.269,-2.104 4.738,-2.681 7.252,-2.687 9.084,-2.688 0.371,0 0.715,-0.002 1.043,-0.021 l 0.303,-0.021 c 0.396,-0.024 0.806,-0.052 1.268,-0.052 1.625,0 4.057,0.318 8.471,2.813 3.082,1.29 6.068,1.944 8.881,1.944 7.658,0 14.371,-4.789 20.521,-14.633 L 92.038,103.7 H 12.824 Z"
   id="path5"
   inkscape:label="AppleBlue" />
</svg>
