<svg xmlns="http://www.w3.org/2000/svg" width="565.195" height="186.787" viewBox="1.735 -0.002 565.195 186.787" xml:space="preserve">
    <linearGradient id="a" gradientUnits="userSpaceOnUse" x1="-749.872" y1="1590.816" x2="-1296.229" y2="1590.816" gradientTransform="translate(1307.82 -1510.63)">
        <stop offset="0" style="stop-color:#013a67"/>
        <stop offset="1" style="stop-color:#6cd1ff"/>
    </linearGradient>
    <path fill="url(#a)" d="m491.191 27.662 45.586.284 21.172-22.019-77.998-.285-73.289 73.575-10.262.568.285-70.784-41.205 42.054-9.855 1.169V9.374l-84.361 83.467-10.489 1.117.892-85.881-73.73 74.863-9.682.047-1.135-71.898-39.778 40.061-11.064.567.419-42.778L11.591 114.896l34.618-.568 45.389-44.052h8.705l-.42 44.265 36.152-36.998h8.644v37.686l-39.787 39.5 38.127-.563 75.017-75.867h10.104v37.27l46.757.285 45.218-45.501 8.728-.567-.135 43.012 36.131-36.131h8.536l.566 36.436-.738 1.895h109.175l20.901-21.183-67.881-1.153-.617-9.853 10.576-11.139 25.611-.003 22.248-22.534-13.447-.568v-9.483z"/>
    <linearGradient id="b" gradientUnits="userSpaceOnUse" x1="-1243.291" y1="1574.01" x2="-1247.236" y2="1570.065" gradientTransform="translate(1307.82 -1510.63)">
        <stop offset="0" style="stop-color:#08406f"/>
        <stop offset="1" style="stop-color:#60c5f5"/>
    </linearGradient>
    <path fill="url(#b)" d="M114.692 13.213 13.577 114.328l-11.471 4.313s-.604.039-.271-.445c0 0 117.26-117.292 117.472-117.471.212-.181.467-.028.467-.028l-5.082 12.516z"/>
    <linearGradient id="c" gradientUnits="userSpaceOnUse" x1="-1184.705" y1="1649.129" x2="-1188.33" y2="1645.504" gradientTransform="translate(1307.82 -1510.63)">
        <stop offset="0" style="stop-color:#08406f"/>
        <stop offset="1" style="stop-color:#60c5f5"/>
    </linearGradient>
    <path fill="url(#c)" d="m145.814 115.796-37.518 37.521-11.065 4.457s-.576.063-.236-.406l43.929-43.75 4.89 2.178z"/>
    <linearGradient id="d" gradientUnits="userSpaceOnUse" x1="-1282.276" y1="1629.272" x2="-1282.276" y2="1624.958" gradientTransform="translate(1307.82 -1510.63)">
        <stop offset="0" style="stop-color:#08406f"/>
        <stop offset="1" style="stop-color:#60c5f5"/>
    </linearGradient>
    <path fill="url(#d)" d="M48.982 118.642H2.106l11.497-4.314h32.606z"/>
    <linearGradient id="e" gradientUnits="userSpaceOnUse" x1="-1186.814" y1="1668.4" x2="-1186.814" y2="1663.943" gradientTransform="translate(1307.82 -1510.63)">
        <stop offset="0" style="stop-color:#08406f"/>
        <stop offset="1" style="stop-color:#60c5f5"/>
    </linearGradient>
    <path fill="url(#e)" d="M144.781 157.771H97.23l11.066-4.458h33.872z"/>
    <linearGradient id="f" gradientUnits="userSpaceOnUse" x1="-880.306" y1="1629.242" x2="-880.306" y2="1624.775" gradientTransform="translate(1307.82 -1510.63)">
        <stop offset="0" style="stop-color:#08406f"/>
        <stop offset="1" style="stop-color:#60c5f5"/>
    </linearGradient>
    <path fill="url(#f)" d="m484.787 118.612-114.545-.029 3.81-4.436 107.477-.001z"/>
    <linearGradient id="g" gradientUnits="userSpaceOnUse" x1="-1056.936" y1="1630.113" x2="-1056.936" y2="1625.636" gradientTransform="translate(1307.82 -1510.63)">
        <stop offset="0" style="stop-color:#08406f"/>
        <stop offset="1" style="stop-color:#60c5f5"/>
    </linearGradient>
    <path fill="url(#g)" d="m277.053 119.483-51.527-.028c-.333.006-.81-.334-.81-.334l4.561-4.115h45.054l2.722 4.477z"/>
    <linearGradient id="h" gradientUnits="userSpaceOnUse" x1="-785.719" y1="1517.406" x2="-785.719" y2="1512.543" gradientTransform="translate(1307.82 -1510.63)">
        <stop offset="0" style="stop-color:#08406f"/>
        <stop offset="1" style="stop-color:#60c5f5"/>
    </linearGradient>
    <path fill="url(#h)" d="M477.382 1.913h88.652c.785 0 .785.313.785.313l-10.572 4.55h-75.164l-3.701-4.863z"/>
    <linearGradient id="i" gradientUnits="userSpaceOnUse" x1="-792.987" y1="1541.935" x2="-792.987" y2="1537.724" gradientTransform="translate(1307.82 -1510.63)">
        <stop offset="0" style="stop-color:#08406f"/>
        <stop offset="1" style="stop-color:#60c5f5"/>
    </linearGradient>
    <path fill="url(#i)" d="M539.042 31.304h-46.345l-2.072-4.21h45.302z"/>
    <linearGradient id="j" gradientUnits="userSpaceOnUse" x1="-848.63" y1="1585.45" x2="-848.63" y2="1581.73" gradientTransform="translate(1307.82 -1510.63)">
        <stop offset="0" style="stop-color:#08406f"/>
        <stop offset="1" style="stop-color:#60c5f5"/>
    </linearGradient>
    <path fill="url(#j)" d="M473.589 74.82H448.91l-4.119-3.718 25.611-.002z"/>
    <linearGradient id="k" gradientUnits="userSpaceOnUse" x1="-817.839" y1="1560.33" x2="-817.839" y2="1554.775" gradientTransform="translate(1307.82 -1510.63)">
        <stop offset="0" style="stop-color:#08406f"/>
        <stop offset="1" style="stop-color:#60c5f5"/>
    </linearGradient>
    <path fill="url(#k)" d="M491.8 49.7h-13.58l-1.193-5.548h25.467c.346-.043.441.146.441.146L491.8 49.7z"/>
    <linearGradient id="l" gradientUnits="userSpaceOnUse" x1="-1233.609" y1="1604.046" x2="-1237.152" y2="1600.503" gradientTransform="translate(1307.82 -1510.63)">
        <stop offset="0" style="stop-color:#08406f"/>
        <stop offset="1" style="stop-color:#60c5f5"/>
    </linearGradient>
    <path fill="url(#l)" d="m96.872 70.634-47.89 48.01-2.773-4.313L92.81 67.965c2-2.313 4.675-1.731 4.675-1.731l-.613 4.4z"/>
    <linearGradient id="m" gradientUnits="userSpaceOnUse" x1="-1187.744" y1="1539.589" x2="-1193.11" y2="1539.589" gradientTransform="translate(1307.82 -1510.63)">
        <stop offset="0" style="stop-color:#08406f"/>
        <stop offset="1" style="stop-color:#60c5f5"/>
    </linearGradient>
    <path fill="url(#m)" d="M114.71 51.669V13.193L119.773.694s.303.075.303.571v53.647l-.315 2.311c0 .001-4.496.025-5.051-5.554z"/>
    <linearGradient id="n" gradientUnits="userSpaceOnUse" x1="-1134.918" y1="1555.179" x2="-1141.579" y2="1555.179" gradientTransform="translate(1307.82 -1510.63)">
        <stop offset="0" style="stop-color:#08406f"/>
        <stop offset="1" style="stop-color:#60c5f5"/>
    </linearGradient>
    <path fill="url(#n)" d="M172.902 88.843s-6.539 1.949-6.621-5.625c-.08-7.313-.013-69.292-.013-69.292L171.482.03s.182-.027.182.725l-.017 81.792 1.255 6.296z"/>
    <linearGradient id="o" gradientUnits="userSpaceOnUse" x1="-1052.011" y1="1560.436" x2="-1058.004" y2="1560.436" gradientTransform="translate(1307.82 -1510.63)">
        <stop offset="0" style="stop-color:#08406f"/>
        <stop offset="1" style="stop-color:#60c5f5"/>
    </linearGradient>
    <path fill="url(#o)" d="M255.809 98.91s-5.889.577-5.96-6.088l-.033-80.063L254.467.688s.583.153.583.907l-.016 91.14.775 6.175z"/>
    <linearGradient id="p" gradientUnits="userSpaceOnUse" x1="-958.723" y1="1539.844" x2="-964.424" y2="1539.844" gradientTransform="translate(1307.82 -1510.63)">
        <stop offset="0" style="stop-color:#08406f"/>
        <stop offset="1" style="stop-color:#60c5f5"/>
    </linearGradient>
    <path fill="url(#p)" d="M349.097 57.425s-4.869.452-5.701-4.563V13.139L347.789.992s.563.134.563.886v49.667l.745 5.88z"/>
    <linearGradient id="q" gradientUnits="userSpaceOnUse" x1="-907.04" y1="1553.664" x2="-912.836" y2="1553.664" gradientTransform="translate(1307.82 -1510.63)">
        <stop offset="0" style="stop-color:#08406f"/>
        <stop offset="1" style="stop-color:#60c5f5"/>
    </linearGradient>
    <path fill="url(#q)" d="M400.781 85.333s-4.938.643-5.797-4.373V13.254L399.834.71s.268.221.268 1.708v77.226l.679 5.689z"/>
    <linearGradient id="r" gradientUnits="userSpaceOnUse" x1="-1206.234" y1="1604.157" x2="-1211.345" y2="1604.157" gradientTransform="translate(1307.82 -1510.63)">
        <stop offset="0" style="stop-color:#08406f"/>
        <stop offset="1" style="stop-color:#60c5f5"/>
    </linearGradient>
    <path fill="url(#r)" d="M97.759 120.819s-.833-.067-.809-1.147l-.078-49.037s-1.218-1.577.613-4.4c.547.131 3.495.727 4.101 4.256v40.369l-3.827 9.959z"/>
    <linearGradient id="s" gradientUnits="userSpaceOnUse" x1="-1186.75" y1="1609.057" x2="-1190.304" y2="1605.503" gradientTransform="translate(1307.82 -1510.63)">
        <stop offset="0" style="stop-color:#08406f"/>
        <stop offset="1" style="stop-color:#60c5f5"/>
    </linearGradient>
    <path fill="url(#s)" d="M140.843 78.598s-41.489 41.547-41.883 41.938c-.346.379-1.202.281-1.202.281l3.827-9.963 36.059-36.088s1.34-1.727 3.831-1.637l-.632 5.469z"/>
    <linearGradient id="t" gradientUnits="userSpaceOnUse" x1="-754.563" y1="1527.721" x2="-758.232" y2="1524.051" gradientTransform="translate(1307.82 -1510.63)">
        <stop offset="0" style="stop-color:#08406f"/>
        <stop offset="1" style="stop-color:#60c5f5"/>
    </linearGradient>
    <path fill="url(#t)" d="m566.609 3.639-27.566 27.665-3.115-4.211L556.24 6.769l10.582-4.542c0 .001.349.847-.213 1.412z"/>
    <linearGradient id="u" gradientUnits="userSpaceOnUse" x1="-1162.005" y1="1605.098" x2="-1167.404" y2="1605.098" gradientTransform="translate(1307.82 -1510.63)">
        <stop offset="0" style="stop-color:#08406f"/>
        <stop offset="1" style="stop-color:#60c5f5"/>
    </linearGradient>
    <path fill="url(#u)" d="m140.924 113.617-.079-35.026s-1.301-2.633.631-5.456c.593-.007 3.7.421 4.339 4.146l-.001 38.519-4.89-2.183z"/>
    <linearGradient id="v" gradientUnits="userSpaceOnUse" x1="-1159.223" y1="1542.229" x2="-1163.71" y2="1537.742" gradientTransform="translate(1307.82 -1510.63)">
        <stop offset="0" style="stop-color:#08406f"/>
        <stop offset="1" style="stop-color:#60c5f5"/>
    </linearGradient>
    <path fill="url(#v)" d="m166.269 13.926-41.462 41.463c-1.987 1.986-5.045 1.836-5.045 1.836-1.795-3.531.315-6.065.315-6.065S170.58.67 170.944.29c.331-.417.541-.264.541-.264l-5.216 13.9z"/>
    <linearGradient id="w" gradientUnits="userSpaceOnUse" x1="-1092.154" y1="1557.541" x2="-1096.312" y2="1553.383" gradientTransform="translate(1307.82 -1510.63)">
        <stop offset="0" style="stop-color:#08406f"/>
        <stop offset="1" style="stop-color:#60c5f5"/>
    </linearGradient>
    <path fill="url(#w)" d="m249.815 12.762-74.376 74.375c-1.55 1.551-2.537 1.702-2.537 1.702-3.781-1.877-1.213-6.254-1.213-6.254S252.341 1.95 252.705 1.57c.943-1.093 1.761-.883 1.761-.883l-4.651 12.075z"/>
    <linearGradient id="x" gradientUnits="userSpaceOnUse" x1="-1003.684" y1="1563.029" x2="-1008.068" y2="1558.645" gradientTransform="translate(1307.82 -1510.63)">
        <stop offset="0" style="stop-color:#08406f"/>
        <stop offset="1" style="stop-color:#60c5f5"/>
    </linearGradient>
    <path fill="url(#x)" d="M343.396 13.139 259.233 97.3c-1.429 1.432-3.424 1.607-3.424 1.607-3.115-1.557-.776-6.175-.776-6.175s90.609-90.5 90.974-90.881c.941-1.098 1.781-.862 1.781-.862l-4.392 12.15z"/>
    <linearGradient id="y" gradientUnits="userSpaceOnUse" x1="-931.029" y1="1542.08" x2="-935.236" y2="1537.872" gradientTransform="translate(1307.82 -1510.63)">
        <stop offset="0" style="stop-color:#08406f"/>
        <stop offset="1" style="stop-color:#60c5f5"/>
    </linearGradient>
    <path fill="url(#y)" d="M394.984 13.254 352.47 55.768c-1.428 1.432-3.373 1.657-3.373 1.657-2.932-1.908-.588-5.983-.588-5.983s49.584-49.69 49.947-50.07c1.047-1.033 1.377-.66 1.377-.66l-4.849 12.542z"/>
    <linearGradient id="z" gradientUnits="userSpaceOnUse" x1="-819.262" y1="1570.484" x2="-822.719" y2="1567.028" gradientTransform="translate(1307.82 -1510.63)">
        <stop offset="0" style="stop-color:#08406f"/>
        <stop offset="1" style="stop-color:#60c5f5"/>
    </linearGradient>
    <path fill="url(#z)" d="M502.958 45.453 473.589 74.82l-3.188-3.722L491.8 49.7l11.135-5.401s.414.294.023 1.154z"/>
    <linearGradient id="A" gradientUnits="userSpaceOnUse" x1="-808.19" y1="1614.596" x2="-812.151" y2="1610.636" gradientTransform="translate(1307.82 -1510.63)">
        <stop offset="0" style="stop-color:#08406f"/>
        <stop offset="1" style="stop-color:#60c5f5"/>
    </linearGradient>
    <path fill="url(#A)" d="m513.634 89.96-28.848 28.65-3.258-4.465 20.049-20.049 12.289-5.382c.001.006.397.438-.232 1.246z"/>
    <linearGradient id="B" gradientUnits="userSpaceOnUse" x1="-866.163" y1="1556.835" x2="-870.448" y2="1552.55" gradientTransform="translate(1307.82 -1510.63)">
        <stop offset="0" style="stop-color:#08406f"/>
        <stop offset="1" style="stop-color:#60c5f5"/>
    </linearGradient>
    <path fill="url(#B)" d="M481.083 6.777 404.171 83.69c-1.43 1.433-3.395 1.644-3.395 1.644-2.449-3.092-.689-5.979-.689-5.979l77.289-77.44 3.707 4.862z"/>
    <linearGradient id="C" gradientUnits="userSpaceOnUse" x1="-821.141" y1="1551.869" x2="-826.253" y2="1546.756" gradientTransform="translate(1307.82 -1510.63)">
        <stop offset="0" style="stop-color:#08406f"/>
        <stop offset="1" style="stop-color:#60c5f5"/>
    </linearGradient>
    <path fill="url(#C)" d="M492.697 31.304 480.021 44.09c-2.771 2.282-1.801 5.608-1.801 5.608-2.25-.21-3.125-2.065-3.412-3.695-.285-1.63.303-3.422 1.348-4.467l14.469-14.44 2.072 4.208z"/>
    <linearGradient id="D" gradientUnits="userSpaceOnUse" x1="-1122.022" y1="1627.55" x2="-1125.665" y2="1623.907" gradientTransform="translate(1307.82 -1510.63)">
        <stop offset="0" style="stop-color:#08406f"/>
        <stop offset="1" style="stop-color:#60c5f5"/>
    </linearGradient>
    <path fill="url(#D)" d="m142.17 153.315 77.913-77.942s1.437-1.873 4.267-1.771l-.456 5.223s-78.666 78.506-79.113 78.947l-2.611-4.457z"/>
    <linearGradient id="E" gradientUnits="userSpaceOnUse" x1="-1004.971" y1="1604.358" x2="-1008.612" y2="1600.717" gradientTransform="translate(1307.82 -1510.63)">
        <stop offset="0" style="stop-color:#08406f"/>
        <stop offset="1" style="stop-color:#60c5f5"/>
    </linearGradient>
    <path fill="url(#E)" d="m274.33 115.003 47.642-47.659s1.438-1.871 4.268-1.771l-.857 5.621-48.323 48.29-2.73-4.481z"/>
    <linearGradient id="F" gradientUnits="userSpaceOnUse" x1="-958.11" y1="1608.305" x2="-961.62" y2="1604.795" gradientTransform="translate(1307.82 -1510.63)">
        <stop offset="0" style="stop-color:#08406f"/>
        <stop offset="1" style="stop-color:#60c5f5"/>
    </linearGradient>
    <path fill="url(#F)" d="m330.125 110.25 36.779-36.789c.842-.843 1.779-1.771 3.396-1.771l-.107 5.501-43.08 43.042c-.57.563-1.02.398-1.02.398l4.032-10.381z"/>
    <linearGradient id="G" gradientUnits="userSpaceOnUse" x1="-937.193" y1="1628.862" x2="-941.618" y2="1624.438" gradientTransform="translate(1307.82 -1510.63)">
        <stop offset="0" style="stop-color:#08406f"/>
        <stop offset="1" style="stop-color:#60c5f5"/>
    </linearGradient>
    <path fill="url(#G)" d="m361.984 118.058 7.25-7.281 5.557 2.326-.734 1.047-3.813 4.437-.271.301h-7.721c-.34.015-.52-.271-.52-.271s-.156-.149.252-.559z"/>
    <linearGradient id="H" gradientUnits="userSpaceOnUse" x1="-1078.543" y1="1606.988" x2="-1084.58" y2="1606.988" gradientTransform="translate(1307.82 -1510.63)">
        <stop offset="0" style="stop-color:#08406f"/>
        <stop offset="1" style="stop-color:#60c5f5"/>
    </linearGradient>
    <path fill="url(#H)" d="m223.983 117.337-.09-38.514s-1.738-2.016.457-5.223c.673-.01 4.202.478 4.928 4.707l-.001 36.694-4.561 4.115c0 .003-.73-.474-.733-1.779z"/>
    <linearGradient id="I" gradientUnits="userSpaceOnUse" x1="-977.696" y1="1603.738" x2="-982.908" y2="1603.738" gradientTransform="translate(1307.82 -1510.63)">
        <stop offset="0" style="stop-color:#08406f"/>
        <stop offset="1" style="stop-color:#60c5f5"/>
    </linearGradient>
    <path fill="url(#I)" d="m325.449 119.944-.08-48.75s-1.471-2.681.871-5.621c.596-.009 3.244.472 3.885 4.702v39.976l-4.027 10.39c-.005-.001-.606-.143-.649-.697z"/>
    <linearGradient id="J" gradientUnits="userSpaceOnUse" x1="-933.03" y1="1603.025" x2="-939.275" y2="1603.025" gradientTransform="translate(1307.82 -1510.63)">
        <stop offset="0" style="stop-color:#08406f"/>
        <stop offset="1" style="stop-color:#60c5f5"/>
    </linearGradient>
    <path fill="url(#J)" d="M369.234 110.774V78.146s-2.113-3.379 1.064-6.456c.693-.008 4.131.24 4.492 4.323V113.1l-5.556-2.326z"/>
    <linearGradient id="K" gradientUnits="userSpaceOnUse" x1="-867.362" y1="1594.896" x2="-871.781" y2="1590.477" gradientTransform="translate(1307.82 -1510.63)">
        <stop offset="0" style="stop-color:#08406f"/>
        <stop offset="1" style="stop-color:#60c5f5"/>
    </linearGradient>
    <path fill="url(#K)" d="m448.91 74.82-13.451 13.479-3.844 4.81c-3.896-2.458-1.953-6.874-.912-7.925l14.088-14.079 4.119 3.715z"/>
    <linearGradient id="L" gradientUnits="userSpaceOnUse" x1="-835.08" y1="1604.728" x2="-835.08" y2="1598.926" gradientTransform="translate(1307.82 -1510.63)">
        <stop offset="0" style="stop-color:#08406f"/>
        <stop offset="1" style="stop-color:#60c5f5"/>
    </linearGradient>
    <path fill="url(#L)" d="M501.58 94.099h-66.391c-2.502-.197-3.574-.993-3.574-.993-.012-3.571 3.844-4.81 3.844-4.81l77.746.002c.543-.002.662.422.662.422l-12.287 5.379z"/>
    <path fill="#C0392B" d="M199.027 180.485c3.235 0 5.857 2.921 5.857 6.156h-17.971V128.36h5.958v52.125h6.156zM215.707 186.642c-3.235 0-6.057-2.923-6.057-6.156v-40.459h6.057v46.615zM233.678 140.026h-6.157V128.36h-6.055v58.281h12.212c3.235 0 5.857-2.923 5.857-6.156v-34.75c0-3.235-2.622-5.709-5.857-5.709zm-.1 40.459h-6.057v-34.65h6.057v34.65z"/>
    <path fill="#231F20" d="M246.087 128.005h48.477c2.012 0 2.755.446 3.648 2.085.893 1.64 7.894 16.084 8.563 17.722.67 1.64.074 2.83-.895 4.098-.969 1.266-11.021 12.732-11.021 12.732l12.286 21.645h-18.541s-14.521-24.848-15.339-26.038c-.82-1.19-.82-3.128.967-3.128h6.33c.818 0 1.191-.148 2.159-.967.968-.82 5.957-6.853 5.957-6.853s-2.383-6.403-2.904-7.595-1.639-1.563-2.68-1.563h-18.689v46.143h-18.319l.001-58.281z"/>
    <path fill="#FFF" d="m288.318 186.786-.145-.248c-.008-.012-3.629-6.213-7.359-12.572-3.727-6.349-7.584-12.895-7.959-13.435a3.477 3.477 0 0 1-.616-1.916c0-.491.129-.991.473-1.384.344-.394.887-.619 1.522-.613 1.789 0 5.511 0 6.33.002.746-.025.852-.048 1.837-.85.404-.336 1.929-2.08 3.282-3.676 1.053-1.238 2.031-2.416 2.427-2.892-.46-1.233-2.351-6.289-2.793-7.298-.421-.958-1.276-1.252-2.22-1.264H264.907v46.144h-19.321V127.502H294.563c2.065-.057 3.211.618 4.088 2.348.917 1.688 7.892 16.073 8.589 17.771.217.535.32 1.048.318 1.537 0 1.179-.584 2.135-1.279 3.054-.914 1.193-9.293 10.762-10.808 12.49l12.536 22.083-19.689.001zm17.969-1.002-12.035-21.208.232-.265c.012-.015 10.068-11.488 10.999-12.705.665-.873 1.079-1.625 1.077-2.447a3.045 3.045 0 0 0-.248-1.158c-.645-1.579-7.671-16.082-8.54-17.671-.91-1.55-1.252-1.767-3.209-1.825h-47.975v57.279h17.317v-46.143h19.191c1.141-.013 2.518.438 3.138 1.862.538 1.231 2.91 7.614 2.914 7.621l.101.271-.184.224c-.023.021-4.947 5.995-6.02 6.915-.95.834-1.591 1.107-2.482 1.086-.819-.002-4.541-.002-6.33-.002-.812.045-.939.354-.996.997-.002.427.165.952.441 1.348.808 1.181 13.699 23.231 15.214 25.821h17.395z"/>
    <path fill="#231F20" d="M432.835 128.005h48.475c2.012 0 2.756.446 3.648 2.085.893 1.64 7.895 16.084 8.563 17.722.672 1.64.074 2.83-.893 4.098-.969 1.266-11.021 12.732-11.021 12.732l12.287 21.645h-18.543s-14.52-24.848-15.34-26.038c-.818-1.19-.818-3.128.969-3.128h6.328c.82 0 1.191-.148 2.16-.967.969-.82 5.957-6.853 5.957-6.853s-2.383-6.403-2.904-7.595c-.52-1.191-1.637-1.563-2.68-1.563h-18.689v46.143h-18.318v-58.281h.001z"/>
    <path fill="#FFF" d="m475.064 186.785-.143-.248c-.01-.013-3.631-6.211-7.361-12.571-3.727-6.348-7.584-12.893-7.959-13.435a3.474 3.474 0 0 1-.615-1.917c-.004-.489.129-.989.473-1.383.342-.395.885-.617 1.523-.612h6.328c.746-.022.852-.047 1.838-.849.404-.338 1.93-2.08 3.283-3.676a354.634 354.634 0 0 0 2.426-2.892c-.459-1.229-2.35-6.288-2.793-7.296-.422-.961-1.277-1.254-2.221-1.266h-18.189v46.143h-19.32v-59.28h48.979c2.064-.058 3.209.617 4.086 2.345.92 1.688 7.891 16.075 8.588 17.771.221.538.32 1.051.32 1.54-.002 1.177-.584 2.134-1.279 3.052-.914 1.191-9.293 10.762-10.809 12.49l12.535 22.083h-19.69v.001zm17.971-1.001-12.037-21.207.236-.266c.008-.016 10.066-11.488 10.996-12.705.662-.873 1.078-1.627 1.076-2.446 0-.353-.07-.728-.248-1.16-.643-1.577-7.668-16.08-8.539-17.67-.908-1.55-1.254-1.767-3.209-1.824-1.889-.002-42.963-.002-47.975 0v57.278h17.314v-46.143h19.191c1.141-.013 2.52.438 3.139 1.862.537 1.233 2.91 7.613 2.914 7.621l.102.271-.184.225c-.021.021-4.949 5.992-6.02 6.914-.951.836-1.59 1.109-2.482 1.084h-6.328c-.814.045-.941.353-.998.996-.004.43.164.953.441 1.35.809 1.18 13.697 23.227 15.215 25.82h17.396z"/>
    <path fill="#231F20" d="M310.5 186.286v-38.549c0-1.266.297-1.786.893-3.053.598-1.267 7.447-13.851 8.193-15.041.744-1.191 1.787-1.639 3.797-1.639h48.24v12.063h-36.252c-1.34 0-1.936.076-2.83 2.012s-3.723 8.787-3.723 8.787h36.711v12.138h-36.711v11.021h42.805v12.262H310.5z"/>
    <path fill="#FFF" d="M310.5 186.786v-.5h.5-.5v.5h-.5v-39.049c-.008-1.356.355-2.036.938-3.266.629-1.324 7.443-13.847 8.223-15.095.822-1.356 2.164-1.897 4.223-1.874h48.738v13.063h-36.75c-1.342.082-1.42-.131-2.377 1.722-.711 1.539-2.688 6.288-3.43 8.077h36.465v13.139l-36.711-.002v10.021h42.805v13.263l-61.624.001zm60.621-1.002v-11.26h-42.805v-12.022h36.713v-11.137h-36.961l.285-.691c.002-.005 2.828-6.845 3.732-8.805.832-2.019 1.945-2.384 3.285-2.302h35.752v-11.063H323.38c-1.963.024-2.707.378-3.373 1.402-.711 1.135-7.6 13.782-8.164 14.989-.607 1.303-.836 1.666-.846 2.842v38.046l60.124.001z"/>
    <path fill="#231F20" d="M411.845 146.324v-18.318H389.99v18.318h-18.367v21.407h18.367v18.555h21.855v-18.555h17.945v-21.407h-17.945zm-11.019 17.164a6.44 6.44 0 1 1 0-12.881 6.44 6.44 0 0 1 0 12.881z"/>
    <path fill="#FFF" d="M389.489 186.786v-18.555h-18.367v-22.409h18.367v-18.318h22.856v18.318h17.944v22.409l-17.946-.003v18.558h-22.854zm-17.368-19.556h18.369v18.554h20.854V167.23h17.944v-20.407h-17.443v-.5h.5-.5v.5h-.501v-18.319H390.49v18.319l-18.369-.002v20.409zm28.705-3.244v-1a5.946 5.946 0 0 0 5.938-5.939 5.946 5.946 0 0 0-5.938-5.941 5.947 5.947 0 0 0-5.941 5.941 5.948 5.948 0 0 0 5.941 5.941v.998a6.943 6.943 0 0 1-6.944-6.939 6.941 6.941 0 1 1 13.882 0 6.943 6.943 0 0 1-6.938 6.942v-.003z"/>
    <path fill="#FFF" d="M407.08 173.578h-12.584l6.179 6.18zM417.392 150.681v12.582l6.182-6.18zM384.181 163.263v-12.582l-6.18 6.179z"/>
    <path fill="#231F20" d="M543.201 128.005h-35.049c-6.496 0-11.766 5.268-11.766 11.766v34.75c0 6.498 5.27 11.766 11.766 11.766h35.049c6.498 0 11.766-5.268 11.766-11.766v-34.75c-.003-6.499-5.268-11.766-11.766-11.766zm-17.526 46.663c-9.705 0-17.574-7.868-17.574-17.573s7.869-17.572 17.574-17.572 17.574 7.867 17.574 17.572-7.869 17.573-17.574 17.573z"/>
    <path fill="#FFF" d="M508.151 186.785c-6.772 0-12.266-5.491-12.266-12.266V139.77c0-6.776 5.493-12.266 12.266-12.268h35.05v1h-35.05c-6.22.014-11.255 5.046-11.266 11.268v34.749c.011 6.222 5.046 11.254 11.266 11.265h35.05c6.221-.011 11.253-5.043 11.266-11.265V139.77c-.002-6.224-5.045-11.268-11.266-11.268v-1c6.774.002 12.262 5.493 12.264 12.268l.002 34.749c-.002 6.774-5.493 12.266-12.266 12.266h-35.05zm-.551-29.691c0-9.981 8.094-18.071 18.073-18.073 9.982.002 18.074 8.092 18.076 18.073-.002 9.982-8.094 18.073-18.076 18.073v-1c9.43-.018 17.059-7.646 17.075-17.073-.017-9.428-7.646-17.056-17.075-17.072-9.43.017-17.056 7.645-17.072 17.072.017 9.428 7.643 17.056 17.072 17.073v1c-9.979 0-18.073-8.091-18.073-18.073z"/>
    <path fill="#C0392B" d="M209.65 128.36h6.057v6.269h-6.057z"/>
    <path fill="#FFF" d="M394.496 140.366h12.584l-6.182-6.179z"/>
</svg>
