<?xml version="1.0" encoding="UTF-8" standalone="no"?>
<!-- Created with Inkscape (http://www.inkscape.org/) -->

<svg
   width="1015.7618mm"
   height="358.45749mm"
   viewBox="0 0 1015.7618 358.45749"
   version="1.1"
   id="svg1"
   inkscape:version="1.3.2 (091e20e, 2023-11-25, custom)"
   sodipodi:docname="max-w.svg"
   xml:space="preserve"
   xmlns:inkscape="http://www.inkscape.org/namespaces/inkscape"
   xmlns:sodipodi="http://sodipodi.sourceforge.net/DTD/sodipodi-0.dtd"
   xmlns:xlink="http://www.w3.org/1999/xlink"
   xmlns="http://www.w3.org/2000/svg"
   xmlns:svg="http://www.w3.org/2000/svg"><sodipodi:namedview
     id="namedview1"
     pagecolor="#ffffff"
     bordercolor="#000000"
     borderopacity="0.25"
     inkscape:showpageshadow="2"
     inkscape:pageopacity="0.0"
     inkscape:pagecheckerboard="true"
     inkscape:deskcolor="#d1d1d1"
     inkscape:document-units="mm"
     inkscape:zoom="0.41179678"
     inkscape:cx="1803.0738"
     inkscape:cy="894.85887"
     inkscape:window-width="2560"
     inkscape:window-height="1351"
     inkscape:window-x="-9"
     inkscape:window-y="-9"
     inkscape:window-maximized="1"
     inkscape:current-layer="svg1" /><defs
     id="defs1"><clipPath
       id="SVGID_00000046337453222900239440000014632039938231015090_"><use
         xlink:href="#SVGID_1_"
         style="overflow:visible"
         id="use42" /></clipPath><path
       id="SVGID_1_"
       d="m 3820.1,247.1 h -515 l -121,175 -121,-175 h -515 l 378.5,547.4 -121,175 L 2306,247.1 H 1719.3 L 1367.2,756.3 V 247.1 H 877.8 L 688.5,520.8 499.3,247.1 H 9.9 v 1094.7 h 404.9 v -262.6 l 181.6,262.6 h 184.2 l 181.6,-262.6 v 262.6 h 404.9 110.1 v 0 h 93.1 v -199.2 h 884.6 v 199.2 h 93.1 v 0 h 515 l 121,-175 121,175 h 515 L 3441.5,794.4 Z m -1946.8,522 139.3,-201.5 139.4,201.5 z" /><defs
       id="defs42"><path
         id="path43"
         d="m 3820.1,247.1 h -515 l -121,175 -121,-175 h -515 l 378.5,547.4 -121,175 L 2306,247.1 H 1719.3 L 1367.2,756.3 V 247.1 H 877.8 L 688.5,520.8 499.3,247.1 H 9.9 v 1094.7 h 404.9 v -262.6 l 181.6,262.6 h 184.2 l 181.6,-262.6 v 262.6 h 404.9 110.1 v 0 h 93.1 v -199.2 h 884.6 v 199.2 h 93.1 v 0 h 515 l 121,-175 121,175 h 515 L 3441.5,794.4 Z m -1946.8,522 139.3,-201.5 139.4,201.5 z" /></defs><clipPath
       id="clipPath1"><use
         xlink:href="#SVGID_1_"
         style="overflow:visible"
         id="use1" /></clipPath></defs><g
     id="g27"
     transform="scale(0.26458333)"
     style="display:inline"
     inkscape:label="MaxOutline"><path
       class="st0"
       d="m 3302.5,1346.8 -118.4,-171.2 -118.4,171.2 H 2450 v -199.2 h -874.7 v 199.2 h -618 v -251.7 l -174,251.7 H 593.8 l -174,-251.7 v 251.7 H 5 V 242.1 H 501.9 L 688.6,512 875.3,242.1 h 496.9 v 498.2 l 344.6,-498.2 h 591.9 l 496.9,718.6 115,-166.3 -381.9,-552.3 h 527.1 l 118.4,171.2 118.4,-171.2 h 527.1 l -381.9,552.3 381.9,552.3 H 3302.5 Z M 2142.5,764.1 2012.6,576.3 1882.7,764.1 Z"
       id="path25"
       style="display:inline;fill:#015ab5;fill-opacity:1"
       inkscape:label="MaxOutline1" /></g><g
     id="g43"
     inkscape:label="Commodore"
     transform="scale(0.26458333)"
     style="fill:#ffffff"><path
       d="M 95.1,56.2 C 92.5,32 77.8,17.9 60.1,17.9 20,17.9 18.7,73.7 18.7,87 c 0,20.4 3.1,68.5 41.2,68.5 27.3,0 34.8,-27.7 38.5,-41.8 l 8.4,2.6 C 103.1,130.2 94.2,163.4 59.3,163.4 15.1,163.4 10,111.7 10,87.8 10,26.7 36.5,10 60.3,10 c 19.8,0 40.1,14.7 43.4,45.6 z"
       id="path27"
       style="display:inline;fill:#ffffff"
       inkscape:label="C" /><path
       d="m 458.7,88.2 c 0,-35.9 11,-78.2 52.2,-78.2 43.2,0 52.6,48.1 52.6,74.8 0,33.2 -9,78.6 -52,78.6 -49.5,-0.1 -52.8,-60.2 -52.8,-75.2 z m 96,-3.7 c 0,-24 -7.9,-66.6 -43.8,-66.6 -30.8,0 -43.4,29.7 -43.4,71.1 0,12.8 2.6,66.4 43.8,66.4 38.7,0 43.4,-47.5 43.4,-70.9 z"
       id="path28"
       inkscape:label="O"
       style="fill:#ffffff" /><path
       d="m 1029.2,12.6 v 148.1 h -8.8 V 21.9 L 976.8,132.7 932.6,21.9 v 138.7 h -8.8 v -148 h 14.1 l 38.9,98.2 38.5,-98.2 z"
       id="path29"
       inkscape:label="M"
       style="fill:#ffffff" /><path
       d="m 1501.2,12.6 v 148.1 h -8.8 V 21.9 l -43.6,110.8 -44.2,-110.8 v 138.7 h -8.8 v -148 h 14.1 l 38.9,98.2 38.5,-98.2 z"
       id="path30"
       inkscape:label="M"
       style="fill:#ffffff" /><path
       d="m 1862,88.2 c 0,-35.9 11,-78.2 52.2,-78.2 43.2,0 52.6,48.1 52.6,74.8 0,33.2 -9,78.6 -52,78.6 -49.5,-0.1 -52.8,-60.2 -52.8,-75.2 z m 96,-3.7 c 0,-24 -7.9,-66.6 -43.8,-66.6 -30.8,0 -43.4,29.7 -43.4,71.1 0,12.8 2.6,66.4 43.8,66.4 38.7,0 43.4,-47.5 43.4,-70.9 z"
       id="path31"
       inkscape:label="O"
       style="fill:#ffffff" /><path
       d="m 2359.7,12.6 c 46,0 62.3,31.2 62.3,73.5 0,45.6 -16.5,74.6 -61.5,74.6 h -34 V 12.6 Z m -24.4,7.9 v 132.2 h 24.7 c 44.2,0 53.4,-32 53.4,-66.8 0,-39.9 -15.3,-65.4 -54,-65.4 z"
       id="path32"
       inkscape:label="D"
       style="fill:#ffffff" /><path
       d="m 2776.1,88.2 c 0,-35.9 11,-78.2 52.2,-78.2 43.2,0 52.6,48.1 52.6,74.8 0,33.2 -9,78.6 -52,78.6 -49.5,-0.1 -52.8,-60.2 -52.8,-75.2 z m 96,-3.7 c 0,-24 -7.9,-66.6 -43.8,-66.6 -30.8,0 -43.4,29.7 -43.4,71.1 0,12.8 2.6,66.4 43.8,66.4 38.7,0 43.4,-47.5 43.4,-70.9 z"
       id="path33"
       inkscape:label="O"
       style="fill:#ffffff" /><path
       d="m 3280.5,12.6 c 17.7,0 31.4,4.7 39.1,16.5 4.7,7.1 6.9,15.5 6.9,23.2 0,10.8 -4.1,21.8 -12.8,28.7 -7.3,5.9 -13.9,7.1 -20,8.4 l 33.4,71.3 h -9.2 L 3284.7,90.6 H 3249 v 70.1 h -8.8 V 12.6 Z m -31.3,7.9 v 62.1 h 21.6 c 15.5,0 21.2,-0.6 26.1,-2.2 14.5,-4.3 21,-16.7 21,-29.1 0,-30.8 -31.6,-30.8 -41.8,-30.8 z"
       id="path34"
       inkscape:label="R"
       style="fill:#ffffff" /><path
       d="m 3765.6,12.6 v 7.9 H 3691 v 58.9 h 53 v 7.9 h -53 v 65.4 h 76.6 v 7.9 h -85.4 v -148 z"
       id="path35"
       inkscape:label="E"
       style="fill:#ffffff" /></g><g
     id="g44"
     inkscape:label="Machine"
     transform="scale(0.26458333)"
     style="fill:#ffffff;fill-opacity:1"><path
       d="m 1732.6,1175.2 v 166.7 h -9.9 v -156.1 l -49.1,124.7 -49.8,-124.7 v 156.1 h -9.9 v -166.7 h 15.8 l 43.8,110.5 43.3,-110.5 z"
       id="path36"
       inkscape:label="M"
       style="fill:#ffffff;fill-opacity:1" /><path
       d="m 1815.4,1175.2 49.3,166.7 h -10.1 l -16,-54.3 H 1781 l -15.6,54.3 h -10.1 l 47.9,-166.7 z m -6.2,13.7 -25.7,89.6 h 52.3 z"
       id="path37"
       inkscape:label="A"
       style="fill:#ffffff;fill-opacity:1" /><path
       d="m 1972.4,1224.2 c -3,-27.3 -19.5,-43.1 -39.4,-43.1 -45.2,0 -46.5,62.8 -46.5,77.7 0,22.9 3.4,77 46.3,77 30.7,0 39.2,-31.2 43.3,-47 l 9.4,3 c -4.1,15.6 -14.2,53 -53.4,53 -49.8,0 -55.5,-58.2 -55.5,-85.1 0,-68.8 29.8,-87.6 56.6,-87.6 22.2,0 45.2,16.5 48.8,51.4 z"
       id="path38"
       inkscape:label="C"
       style="fill:#ffffff;fill-opacity:1" /><path
       d="m 2020.3,1175.2 v 75.2 h 84.6 v -75.2 h 9.9 v 166.7 h -9.9 v -82.5 h -84.6 v 82.5 h -9.9 v -166.7 z"
       id="path39"
       inkscape:label="H"
       style="fill:#ffffff;fill-opacity:1" /><path
       d="m 2158.3,1175.2 v 166.7 h -9.9 v -166.7 z"
       id="path40"
       inkscape:label="I"
       style="fill:#ffffff;fill-opacity:1" /><path
       d="m 2293.4,1175.2 v 166.7 h -9.2 l -82.8,-153.4 v 153.4 h -9.9 v -166.7 h 14.2 l 77.7,144.2 v -144.2 z"
       id="path41"
       inkscape:label="N"
       style="fill:#ffffff;fill-opacity:1" /><path
       d="m 2420.2,1175.2 v 8.9 h -83.9 v 66.3 h 59.6 v 8.9 h -59.6 v 73.6 h 86.2 v 8.9 h -96.1 v -166.7 h 93.8 z"
       id="path42"
       inkscape:label="E"
       style="fill:#ffffff;fill-opacity:1" /></g></svg>
