<?xml version="1.0" encoding="UTF-8" standalone="no"?>
<!-- Created with Inkscape (http://www.inkscape.org/) -->

<svg
   width="1015.7618mm"
   height="358.45749mm"
   viewBox="0 0 1015.7618 358.45749"
   version="1.1"
   id="svg1"
   inkscape:version="1.4 (86a8ad7, 2024-10-11)"
   sodipodi:docname="max.svg"
   xmlns:inkscape="http://www.inkscape.org/namespaces/inkscape"
   xmlns:sodipodi="http://sodipodi.sourceforge.net/DTD/sodipodi-0.dtd"
   xmlns:xlink="http://www.w3.org/1999/xlink"
   xmlns="http://www.w3.org/2000/svg"
   xmlns:svg="http://www.w3.org/2000/svg">
  <sodipodi:namedview
     id="namedview1"
     pagecolor="#ffffff"
     bordercolor="#000000"
     borderopacity="0.25"
     inkscape:showpageshadow="2"
     inkscape:pageopacity="0.0"
     inkscape:pagecheckerboard="true"
     inkscape:deskcolor="#d1d1d1"
     inkscape:document-units="mm"
     inkscape:zoom="0.41179678"
     inkscape:cx="1805.5022"
     inkscape:cy="894.85888"
     inkscape:window-width="3840"
     inkscape:window-height="2066"
     inkscape:window-x="-11"
     inkscape:window-y="-11"
     inkscape:window-maximized="1"
     inkscape:current-layer="svg1" />
  <defs
     id="defs1"><clipPath
   id="SVGID_00000046337453222900239440000014632039938231015090_">
				<use
   xlink:href="#SVGID_1_"
   style="overflow:visible"
   id="use42" />

			</clipPath>
<path
   id="SVGID_1_"
   d="m 3820.1,247.1 h -515 l -121,175 -121,-175 h -515 l 378.5,547.4 -121,175 L 2306,247.1 H 1719.3 L 1367.2,756.3 V 247.1 H 877.8 L 688.5,520.8 499.3,247.1 H 9.9 v 1094.7 h 404.9 v -262.6 l 181.6,262.6 h 184.2 l 181.6,-262.6 v 262.6 h 404.9 110.1 v 0 h 93.1 v -199.2 h 884.6 v 199.2 h 93.1 v 0 h 515 l 121,-175 121,175 h 515 L 3441.5,794.4 Z m -1946.8,522 139.3,-201.5 139.4,201.5 z" />

	
	

			
			
			
			
			
			
			
			
			
		
			
			
			
			
			
			
			
		
			
			
		
			
			
			
			
			
			
			
		
			<defs
   id="defs42">
				<path
   id="path43"
   d="m 3820.1,247.1 h -515 l -121,175 -121,-175 h -515 l 378.5,547.4 -121,175 L 2306,247.1 H 1719.3 L 1367.2,756.3 V 247.1 H 877.8 L 688.5,520.8 499.3,247.1 H 9.9 v 1094.7 h 404.9 v -262.6 l 181.6,262.6 h 184.2 l 181.6,-262.6 v 262.6 h 404.9 110.1 v 0 h 93.1 v -199.2 h 884.6 v 199.2 h 93.1 v 0 h 515 l 121,-175 121,175 h 515 L 3441.5,794.4 Z m -1946.8,522 139.3,-201.5 139.4,201.5 z" />

			</defs>

			<clipPath
   id="clipPath1">
				<use
   xlink:href="#SVGID_1_"
   style="overflow:visible"
   id="use1" />

			</clipPath>

			
		
			
			
			
			
			
			
			
			
			
		
				
				
			
				
				
			
				
				
			
				
				
			
				
				
			
				
				
			
				
				
			
				
				
			
				
				
			
				
				
			
				
				
			
				
				
			
				
				
			
				
				
			
				
				
			
				
				
			
		
		
		
	</defs>
  <g
     id="g46"
     inkscape:label="CommodoreOutline"
     style="display:inline"
     transform="scale(0.26458333)">
    <path
       class="st0"
       d="m 59.2,168.3 c -21.1,0 -36.9,-11 -45.8,-31.9 C 6.4,120 5,100.9 5,87.8 5,13 43.6,5 60.2,5 c 21.4,0 44.7,15.5 48.3,50.1 l 0.5,5.1 -18.4,1.3 -0.5,-4.8 C 87.9,36.1 76.1,22.8 60,22.8 45.1,22.8 35,31.4 29,49 c -3.5,10.3 -5.4,23.4 -5.4,37.9 0,16.2 2,29.7 6,40.1 6,15.7 15.9,23.4 30.2,23.4 20.9,0 28.5,-18.3 33.7,-38.1 l 1.3,-5.1 17.8,5.7 -1.2,4.6 c -3.6,13.9 -13.3,50.8 -52.2,50.8 z"
       id="path1"
       style="fill:#ffffff"
       inkscape:label="O_Outline1" />
    <path
       class="st0"
       d="m 60.2,9.9 c 19.8,0 40.1,14.7 43.4,45.6 L 95,56.1 C 92.4,31.9 77.7,17.8 60,17.8 c -40.1,0 -41.4,55.8 -41.4,69.1 0,20.4 3.1,68.5 41.2,68.5 27.3,0 34.8,-27.7 38.5,-41.8 l 8.4,2.6 C 103,130.1 94.1,163.3 59.2,163.3 15,163.3 9.9,111.6 9.9,87.7 9.9,26.6 36.4,9.9 60.2,9.9 M 60.2,0 C 43.3,0 28.9,6.8 18.4,19.7 6.2,34.7 0,57.6 0,87.8 c 0,13.6 1.5,33.5 8.9,50.6 9.7,22.8 27.2,34.9 50.4,34.9 18.1,0 33.2,-7.8 43.5,-22.6 8.1,-11.6 11.6,-24.8 13.5,-31.9 l 2.4,-9.1 -9,-2.9 -8.4,-2.6 -10,-3.2 -2.6,10.1 c -5.4,20.6 -12.4,34.3 -28.9,34.3 -16.1,0 -22.3,-11.5 -25.6,-20.2 -3.7,-9.9 -5.6,-22.8 -5.6,-38.3 0,-14 1.8,-26.5 5.1,-36.3 7,-20.5 18.4,-22.8 26.3,-22.8 13.3,0 23.2,11.6 25.2,29.5 l 1,9.5 9.5,-0.7 8.6,-0.6 10.2,-0.7 -1.1,-10.2 C 111.6,37.9 105.2,23.8 94.8,14 85.5,4.9 73.1,0 60.2,0 Z"
       id="path2"
       style="fill:#ffffff"
       inkscape:label="C_Outline2" />
    <path
       class="st0"
       d="m 511.5,168.3 c -22.9,0 -40.1,-12.1 -49.5,-35 -7.4,-17.9 -8.2,-37.5 -8.2,-45.1 C 453.8,72.9 455.7,51 465,33.3 474.7,14.8 490.6,5 510.9,5 c 42.5,0 57.5,43 57.5,79.7 0,53.1 -20.7,83.6 -56.9,83.6 z M 510.9,22.8 c -12.9,0 -22.4,5.7 -28.9,17.5 -6.2,11.2 -9.5,28.1 -9.5,48.7 0,6.1 0.6,21.9 6.1,36.2 6.5,16.7 17.5,25.2 32.7,25.2 14.8,0 25.2,-7.7 31.6,-23.6 5.6,-13.9 6.8,-30.7 6.8,-42.4 0,-7 -0.8,-25 -8,-40.2 C 535,30.1 524.6,22.8 510.9,22.8 Z"
       id="path3"
       style="fill:#ffffff"
       inkscape:label="O_Outline1" />
    <path
       class="st0"
       d="m 510.9,9.9 c 43.2,0 52.6,48.1 52.6,74.8 0,33.2 -9,78.6 -52,78.6 -49.5,0 -52.8,-60.1 -52.8,-75.2 0,-35.8 11,-78.2 52.2,-78.2 m 0.4,145.5 c 38.7,0 43.4,-47.5 43.4,-70.9 0,-24 -7.9,-66.6 -43.8,-66.6 -30.8,0 -43.4,29.7 -43.4,71.1 0,12.8 2.6,66.4 43.8,66.4 M 510.9,0 c -22.3,0 -39.7,10.7 -50.3,31 -9.7,18.6 -11.8,41.3 -11.8,57.2 0,7.9 0.8,28.4 8.6,47 10.3,24.9 29,38.1 54.1,38.1 23,0 40.6,-11.2 51,-32.4 9,-18.3 10.9,-40.6 10.9,-56.1 0,-8.9 -1.1,-31.9 -11.1,-51.9 C 551.4,11.4 533.6,0 510.9,0 Z m 0.4,145.5 c -13.1,0 -22.3,-7.2 -28.1,-22.1 -5.4,-13.9 -5.8,-29.9 -5.8,-34.4 0,-19.8 3.1,-35.7 8.9,-46.2 5.7,-10.2 13.5,-14.9 24.6,-14.9 17.6,0 24.2,14 26.4,18.6 6.8,14.3 7.5,31.4 7.5,38.1 0,11.2 -1.1,27.4 -6.5,40.5 -5.7,13.9 -14.2,20.4 -27,20.4 z"
       id="path4"
       style="fill:#ffffff"
       inkscape:label="O_Outline2" />
    <polygon
       class="st0"
       points="918.9,7.6 941.3,7.6 976.8,97.2 1011.9,7.6 1034.1,7.6 1034.1,165.6 1015.4,165.6 1015.4,48.1 976.8,146.2 937.6,47.8 937.6,165.6 918.9,165.6 "
       id="polygon4"
       style="fill:#ffffff"
       inkscape:label="M_Outline1" />
    <path
       class="st0"
       d="m 1029.2,12.6 v 148.1 h -8.8 V 21.9 L 976.8,132.7 932.6,21.9 v 138.7 h -8.8 v -148 h 14.1 l 38.9,98.2 38.5,-98.2 h 13.9 m 9.9,-10 h -9.9 -13.9 -6.8 L 1006,8.9 976.7,83.7 947.1,8.9 944.6,2.6 h -6.7 -14.1 -9.9 v 9.9 148.1 9.9 h 9.9 8.8 9.9 v -9.9 -87 l 25.1,62.8 9.3,23.3 9.2,-23.3 24.4,-62.1 v 86.4 9.9 h 9.9 8.8 9.9 V 160.7 12.6 Z"
       id="path5"
       style="fill:#ffffff"
       inkscape:label="M_Outline2" />
    <polygon
       class="st0"
       points="1390.9,7.6 1413.3,7.6 1448.8,97.2 1484,7.6 1506.2,7.6 1506.2,165.6 1487.5,165.6 1487.5,48.1 1448.9,146.2 1409.6,47.8 1409.6,165.6 1390.9,165.6 "
       id="polygon5"
       style="fill:#ffffff"
       inkscape:label="M_Outline1" />
    <path
       class="st0"
       d="m 1501.2,12.6 v 148.1 h -8.8 V 21.9 l -43.6,110.8 -44.2,-110.8 v 138.7 h -8.8 v -148 h 14.1 l 38.9,98.2 38.5,-98.2 h 13.9 m 9.9,-10 h -9.9 -13.9 -6.8 l -2.5,6.3 -29.3,74.8 -29.6,-74.8 -2.5,-6.3 h -6.7 -14.1 -9.9 v 9.9 148.1 9.9 h 9.9 8.8 9.9 v -9.9 -87 l 25.1,62.8 9.3,23.3 9.2,-23.3 24.4,-62.1 v 86.4 9.9 h 9.9 8.8 9.9 V 160.7 12.6 Z"
       id="path6"
       style="fill:#ffffff"
       inkscape:label="M_Outline2" />
    <path
       class="st0"
       d="m 1914.8,168.3 c -22.9,0 -40.1,-12.1 -49.5,-35 -7.4,-17.9 -8.2,-37.5 -8.2,-45.1 0,-15.3 1.9,-37.2 11.2,-54.9 9.7,-18.5 25.5,-28.3 45.9,-28.3 42.5,0 57.5,43 57.5,79.7 0,53.1 -20.8,83.6 -56.9,83.6 z m -0.6,-145.5 c -12.9,0 -22.4,5.7 -28.9,17.5 -6.2,11.2 -9.5,28.1 -9.5,48.7 0,6.1 0.6,21.9 6.1,36.2 6.5,16.7 17.5,25.2 32.7,25.2 14.8,0 25.2,-7.7 31.6,-23.6 5.6,-13.9 6.8,-30.7 6.8,-42.4 0,-7 -0.8,-25 -8,-40.2 -6.7,-14.1 -17.1,-21.4 -30.8,-21.4 z"
       id="path7"
       style="fill:#ffffff"
       inkscape:label="O_Outline1" />
    <path
       class="st0"
       d="m 1914.2,9.9 c 43.2,0 52.6,48.1 52.6,74.8 0,33.2 -9,78.6 -52,78.6 -49.5,0 -52.8,-60.1 -52.8,-75.2 0,-35.8 11,-78.2 52.2,-78.2 m 0.4,145.5 c 38.7,0 43.4,-47.5 43.4,-70.9 0,-24 -7.9,-66.6 -43.8,-66.6 -30.8,0 -43.4,29.7 -43.4,71.1 0,12.8 2.6,66.4 43.8,66.4 M 1914.2,0 c -22.3,0 -39.7,10.7 -50.3,31 -9.7,18.6 -11.8,41.3 -11.8,57.2 0,7.9 0.8,28.4 8.6,47 10.3,24.9 29,38.1 54.1,38.1 23,0 40.6,-11.2 51,-32.4 9,-18.3 10.9,-40.6 10.9,-56.1 0,-8.9 -1.1,-31.9 -11.1,-51.9 C 1954.7,11.4 1936.9,0 1914.2,0 Z m 0.4,145.5 c -13.1,0 -22.3,-7.2 -28.1,-22.1 -5.4,-13.9 -5.8,-29.9 -5.8,-34.4 0,-19.8 3.1,-35.7 8.9,-46.2 5.7,-10.2 13.5,-14.9 24.6,-14.9 17.6,0 24.2,14 26.4,18.6 6.8,14.3 7.5,31.4 7.5,38.1 0,11.2 -1.1,27.4 -6.5,40.5 -5.7,13.9 -14.3,20.4 -27,20.4 z"
       id="path8"
       style="fill:#ffffff"
       inkscape:label="O_Outline2" />
    <path
       class="st0"
       d="M 2321.5,165.6 V 7.6 h 38.2 c 44,0 67.3,27.1 67.3,78.5 0,52.8 -22.4,79.5 -66.5,79.5 z m 38.4,-17.8 c 33.5,0 48.4,-19.1 48.4,-61.9 0,-40.7 -16,-60.4 -49,-60.4 h -19.1 v 122.3 z"
       id="path9"
       style="fill:#ffffff"
       inkscape:label="D_Outline1" />
    <path
       class="st0"
       d="m 2359.7,12.6 c 46,0 62.3,31.2 62.3,73.5 0,45.6 -16.5,74.6 -61.5,74.6 h -34 V 12.6 h 33.2 m -24.4,140.1 h 24.7 c 44.2,0 53.4,-32 53.4,-66.8 0,-39.9 -15.3,-65.4 -54,-65.4 h -24 V 152.7 M 2359.7,2.6 h -33.2 -9.9 v 9.9 148.1 9.9 h 9.9 34 c 24.8,0 43.5,-8.1 55.6,-24.1 10.7,-14.2 15.9,-33.9 15.9,-60.4 0,-24.9 -5.3,-44.6 -15.9,-58.6 C 2403.7,11 2384.7,2.6 2359.7,2.6 Z m -14.5,27.8 h 14.1 c 15.5,0 26.5,4.5 33.6,13.8 6.9,9.1 10.4,23.1 10.4,41.7 0,18.6 -2.8,32.1 -8.6,41.2 -6.7,10.6 -18.1,15.7 -34.9,15.7 h -14.7 V 30.4 Z"
       id="path10"
       style="fill:#ffffff"
       inkscape:label="D_Outline2" />
    <path
       class="st0"
       d="m 2828.9,168.3 c -22.9,0 -40.1,-12.1 -49.5,-35 -7.4,-17.9 -8.2,-37.5 -8.2,-45.1 0,-15.3 1.9,-37.2 11.2,-54.9 9.7,-18.5 25.6,-28.3 45.9,-28.3 42.5,0 57.5,43 57.5,79.7 0,53.1 -20.7,83.6 -56.9,83.6 z m -0.6,-145.5 c -12.9,0 -22.4,5.7 -28.9,17.5 -6.2,11.2 -9.5,28.1 -9.5,48.7 0,6.1 0.6,21.9 6.1,36.2 6.5,16.7 17.5,25.2 32.7,25.2 14.8,0 25.2,-7.7 31.6,-23.6 5.6,-13.9 6.8,-30.7 6.8,-42.4 0,-7 -0.8,-25 -8,-40.2 -6.7,-14.1 -17.1,-21.4 -30.8,-21.4 z"
       id="path11"
       style="fill:#ffffff"
       inkscape:label="O_Outline1" />
    <path
       class="st0"
       d="m 2828.3,9.9 c 43.2,0 52.6,48.1 52.6,74.8 0,33.2 -9,78.6 -52,78.6 -49.5,0 -52.8,-60.1 -52.8,-75.2 0,-35.8 11,-78.2 52.2,-78.2 m 0.4,145.5 c 38.7,0 43.4,-47.5 43.4,-70.9 0,-24 -7.9,-66.6 -43.8,-66.6 -30.8,0 -43.4,29.7 -43.4,71.1 0,12.8 2.6,66.4 43.8,66.4 M 2828.3,0 c -22.3,0 -39.7,10.7 -50.3,31 -9.7,18.6 -11.8,41.3 -11.8,57.2 0,7.9 0.8,28.4 8.6,47 10.3,24.9 29,38.1 54.1,38.1 23,0 40.6,-11.2 51,-32.4 9,-18.3 10.9,-40.6 10.9,-56.1 0,-8.9 -1.1,-31.9 -11.1,-51.9 C 2868.8,11.4 2851,0 2828.3,0 Z m 0.4,145.5 c -13.1,0 -22.3,-7.2 -28.1,-22.1 -5.4,-13.9 -5.8,-29.9 -5.8,-34.4 0,-19.8 3.1,-35.7 8.9,-46.2 5.7,-10.2 13.5,-14.9 24.6,-14.9 17.6,0 24.2,14 26.4,18.6 6.8,14.3 7.5,31.4 7.5,38.1 0,11.2 -1.1,27.4 -6.5,40.5 -5.7,13.9 -14.3,20.4 -27,20.4 z"
       id="path12"
       style="fill:#ffffff"
       inkscape:label="O_Outline2" />
    <path
       class="st0"
       d="m 3314.9,165.6 -33.2,-70.1 h -27.6 v 70.1 h -18.7 V 7.6 h 45.1 c 20.9,0 35,6.1 43.3,18.7 5,7.6 7.7,16.8 7.7,25.9 0,13.3 -5.4,25.2 -14.7,32.6 -5.7,4.6 -11,6.7 -15.9,8 l 34.1,72.8 z m -44.1,-87.9 c 15.7,0 20.6,-0.7 24.5,-2 l 0.2,-0.1 c 16.2,-4.8 17.4,-19.9 17.4,-24.4 0,-22.9 -19.7,-25.8 -36.8,-25.8 h -21.9 v 52.2 h 16.6 z"
       id="path13"
       style="fill:#ffffff"
       inkscape:label="R_Outline1" />
    <path
       class="st0"
       d="m 3280.5,12.6 c 17.7,0 31.4,4.7 39.1,16.5 4.7,7.1 6.9,15.5 6.9,23.2 0,10.8 -4.1,21.8 -12.8,28.7 -7.3,5.9 -13.9,7.1 -20,8.4 l 33.4,71.3 h -9.2 L 3284.7,90.6 H 3249 v 70.1 h -8.8 V 12.6 h 40.3 m -31.3,70.1 h 21.6 c 15.5,0 21.2,-0.6 26.1,-2.2 14.5,-4.3 21,-16.7 21,-29.1 0,-30.8 -31.6,-30.8 -41.8,-30.8 h -26.9 v 62.1 m 31.3,-80.1 h -40.1 -9.9 v 9.9 148.1 9.9 h 9.9 8.8 9.9 v -9.9 -60.2 h 19.4 l 30.5,64.4 2.7,5.7 h 6.3 9.2 15.6 l -6.6,-14.1 -28.4,-60.6 c 3.8,-1.5 7.9,-3.7 12.1,-7.1 10.5,-8.3 16.6,-21.6 16.6,-36.5 0,-10.1 -3,-20.3 -8.6,-28.7 -9.1,-13.8 -25,-20.9 -47.4,-20.9 z m -21.4,27.8 h 17 c 22.6,0 31.8,6 31.8,20.8 0,3.6 -1,15.8 -13.9,19.6 h -0.2 l -0.2,0.1 c -3.4,1.1 -8,1.7 -22.9,1.7 H 3259 V 30.4 Z"
       id="path14"
       style="fill:#ffffff"
       inkscape:label="R_Outline2" />
    <polygon
       class="st0"
       points="3749,74.4 3749,92.3 3696,92.3 3696,147.8 3772.6,147.8 3772.6,165.6 3677.3,165.6 3677.3,7.6 3770.6,7.6 3770.6,25.5 3696,25.5 3696,74.4 "
       id="polygon14"
       style="fill:#ffffff"
       inkscape:label="E_Outline1" />
    <path
       class="st0"
       d="m 3765.6,12.6 v 7.9 H 3691 v 58.9 h 53 v 7.9 h -53 v 65.4 h 76.6 v 7.9 h -85.4 v -148 h 83.4 m 9.9,-10 h -9.9 -83.3 -9.9 v 9.9 148.1 9.9 h 9.9 85.4 9.9 v -9.9 -7.9 -9.9 h -9.9 -66.7 V 97.3 h 43 9.9 v -9.9 -7.9 -9.9 h -9.9 -43 v -39 h 64.6 9.9 v -9.9 -7.9 z"
       id="path15"
       style="fill:#ffffff"
       inkscape:label="E_Outline2" />
  </g>
  <g
     id="g45"
     inkscape:label="MachineOutline"
     style="display:inline"
     transform="scale(0.26458333)">
    <polygon
       class="st0"
       points="1609.1,1170.2 1633.3,1170.2 1673.7,1272.1 1713.6,1170.2 1737.6,1170.2 1737.6,1346.8 1717.8,1346.8 1717.8,1211.9 1673.7,1323.9 1628.9,1211.5 1628.9,1346.8 1609.1,1346.8 "
       id="polygon16"
       style="fill:#ffffff"
       inkscape:label="M_Outline1" />
    <path
       class="st0"
       d="m 1732.6,1175.2 v 166.7 h -9.9 v -156.1 l -49.1,124.7 -49.8,-124.7 v 156.1 h -9.9 v -166.7 h 15.8 l 43.8,110.5 43.3,-110.5 h 15.8 m 9.9,-10 h -9.9 -15.6 -6.8 l -2.5,6.3 -34.1,87.1 -34.5,-87.1 -2.5,-6.3 h -6.7 -15.8 -9.9 v 9.9 166.7 9.9 h 9.9 9.9 9.9 v -9.9 -104.5 l 30.6,76.7 9.3,23.3 9.2,-23.3 29.9,-76 v 103.8 9.9 h 9.9 9.9 9.9 v -9.9 -166.7 -9.9 z"
       id="path16"
       style="fill:#ffffff"
       inkscape:label="M_Outline2" />
    <path
       class="st0"
       d="m 1850.9,1346.8 -16,-54.3 h -50.1 l -15.6,54.3 h -20.4 l 50.8,-176.6 h 19.6 l 52.2,176.6 z m -21.8,-73.2 -19.9,-67 -19.2,67 z"
       id="path17"
       style="fill:#ffffff"
       inkscape:label="A_Outline1" />
    <path
       class="st0"
       d="m 1815.4,1175.2 49.3,166.7 h -10.1 l -16,-54.3 H 1781 l -15.6,54.3 h -10.1 l 47.9,-166.7 h 12.2 m -31.9,103.4 h 52.3 l -26.6,-89.6 -25.7,89.6 m 39.3,-113.4 h -7.4 -12.2 -7.5 l -2.1,7.2 -47.9,166.7 -3.6,12.7 h 13.2 10.1 7.5 l 2.1,-7.2 13.5,-47.1 h 42.7 l 13.9,47.2 2.1,7.1 h 7.4 10.1 13.3 l -3.8,-12.7 -49.3,-166.7 z m -26.1,103.4 12.7,-44.3 13.1,44.3 z"
       id="path18"
       style="display:inline;fill:#ffffff"
       inkscape:label="A_Outline2" />
    <path
       class="st0"
       d="m 1932.1,1349.8 c -23.4,0 -41,-12.3 -51,-35.5 -7.8,-18.3 -9.5,-39.8 -9.5,-54.5 0,-83.5 43.1,-92.5 61.6,-92.5 23.8,0 49.7,17.3 53.8,55.8 l 0.5,5.1 -19.5,1.4 -0.5,-4.8 c -2.6,-23.5 -16.1,-38.7 -34.5,-38.7 -16.8,0 -28.7,10.1 -35.5,29.9 -4,11.6 -6.1,26.5 -6.1,42.8 0,18.3 2.3,33.5 6.8,45.4 6.8,18 18.1,26.7 34.6,26.7 23.9,0 32.7,-20.8 38.5,-43.3 l 1.3,-5.1 18.9,6 -1.2,4.6 c -4.1,15.5 -15,56.7 -58.2,56.7 z"
       id="path19"
       style="fill:#ffffff"
       inkscape:label="C_Outline1" />
    <path
       class="st0"
       d="m 1933.2,1172.2 c 22.2,0 45.2,16.5 48.8,51.4 l -9.6,0.7 c -3,-27.3 -19.5,-43.1 -39.4,-43.1 -45.2,0 -46.5,62.8 -46.5,77.7 0,22.9 3.4,77 46.3,77 30.7,0 39.2,-31.2 43.3,-47 l 9.4,3 c -4.1,15.6 -14.2,53 -53.4,53 -49.8,0 -55.5,-58.2 -55.5,-85.1 0,-68.8 29.8,-87.6 56.6,-87.6 m 0,-9.9 c -18.6,0 -34.6,7.5 -46.1,21.7 -13.6,16.7 -20.5,42.2 -20.5,75.8 0,15.2 1.7,37.4 9.9,56.5 10.8,25.2 30,38.5 55.5,38.5 20,0 36.6,-8.6 48,-24.9 9,-12.9 12.9,-27.6 15,-35.5 l 2.4,-9.1 -9,-2.9 -9.4,-3 -10,-3.2 -2.6,10.1 c -1.7,6.7 -4.7,17.8 -10.4,26.5 -5.9,9 -13.4,13.1 -23.4,13.1 -18.9,0 -26.1,-13.4 -30,-23.5 -4.3,-11.3 -6.4,-25.9 -6.4,-43.6 0,-15.8 2,-30.1 5.8,-41.2 9.1,-26.6 25.4,-26.6 30.8,-26.6 15.7,0 27.3,13.4 29.6,34.3 l 1,9.5 9.5,-0.7 9.6,-0.7 10.2,-0.7 -1.1,-10.2 c -2,-18.5 -9,-34.1 -20.5,-44.9 -10.1,-9.9 -23.7,-15.3 -37.9,-15.3 z"
       id="path20"
       style="fill:#ffffff"
       inkscape:label="C_Outline2" />
    <polygon
       class="st0"
       points="2025.3,1170.2 2025.3,1245.4 2100,1245.4 2100,1170.2 2119.7,1170.2 2119.7,1346.8 2100,1346.8 2100,1264.3 2025.3,1264.3 2025.3,1346.8 2005.5,1346.8 2005.5,1170.2 "
       id="polygon20"
       style="fill:#ffffff"
       inkscape:label="H_Outline1" />
    <path
       class="st0"
       d="m 2114.8,1175.2 v 166.7 h -9.9 v -82.5 h -84.6 v 82.5 h -9.9 v -166.7 h 9.9 v 75.2 h 84.6 v -75.2 h 9.9 m 9.9,-10 h -9.9 -9.9 -9.9 v 9.9 65.3 h -64.8 v -65.3 -9.9 h -9.9 -9.9 -9.9 v 9.9 166.7 9.9 h 9.9 9.9 9.9 v -9.9 -72.6 h 64.8 v 72.6 9.9 h 9.9 9.9 9.9 v -9.9 -166.7 z"
       id="path21"
       style="fill:#ffffff"
       inkscape:label="H_Outline2" />
    <rect
       x="2143.5"
       y="1170.2"
       class="st0"
       width="19.799999"
       height="176.60001"
       id="rect21"
       style="fill:#ffffff"
       inkscape:label="I_Outline1" />
    <path
       class="st0"
       d="m 2158.3,1175.2 v 166.7 h -9.9 v -166.7 h 9.9 m 10,-10 h -9.9 -9.9 -9.9 v 9.9 166.7 9.9 h 9.9 9.9 9.9 v -9.9 -166.7 z"
       id="path22"
       style="fill:#ffffff"
       inkscape:label="I_Outline2" />
    <polygon
       class="st0"
       points="2298.3,1170.2 2298.3,1346.8 2281.2,1346.8 2206.4,1208.1 2206.4,1346.8 2186.6,1346.8 2186.6,1170.2 2208.8,1170.2 2278.6,1299.7 2278.6,1170.2 "
       id="polygon22"
       style="fill:#ffffff"
       inkscape:label="N_Outline1" />
    <path
       class="st0"
       d="m 2293.4,1175.2 v 166.7 h -9.2 l -82.8,-153.4 v 153.4 h -9.9 v -166.7 h 14.2 l 77.7,144.2 v -144.2 h 10 m 9.9,-10 h -9.9 -9.9 -9.9 v 9.9 104.9 l -59.1,-109.6 -2.8,-5.2 h -5.9 -14.2 -9.9 v 9.9 166.7 9.9 h 9.9 9.9 9.9 v -9.9 -114.1 l 64.1,118.8 2.8,5.2 h 5.9 9.2 9.9 v -9.9 -166.7 z"
       id="path23"
       style="display:inline;fill:#ffffff"
       inkscape:label="N_Outline2" />
    <polygon
       class="st0"
       points="2341.2,1264.3 2341.2,1327.9 2427.4,1327.9 2427.4,1346.8 2321.4,1346.8 2321.4,1170.2 2425.1,1170.2 2425.1,1189.1 2341.2,1189.1 2341.2,1245.4 2400.8,1245.4 2400.8,1264.3 "
       id="polygon23"
       style="display:inline;fill:#ffffff"
       inkscape:label="E_Outline1" />
    <path
       class="st0"
       d="m 2420.2,1175.2 v 8.9 h -83.9 v 66.3 h 59.6 v 8.9 h -59.6 v 73.6 h 86.2 v 8.9 h -96.1 v -166.7 h 93.8 m 9.9,-9.9 h -9.9 -93.8 -9.9 v 9.9 166.7 9.9 h 9.9 96.1 9.9 v -9.9 -8.9 -9.9 h -9.9 -76.3 v -53.7 h 49.7 9.9 v -9.9 -8.9 -9.9 h -9.9 -49.7 V 1194 h 74 9.9 v -9.9 -8.9 z"
       id="path24"
       style="display:inline;fill:#ffffff"
       inkscape:label="E_Outline2" />
  </g>
  <g
     id="g27"
     transform="scale(0.26458333)"
     style="display:inline"
     inkscape:label="MaxOutline">
		
		
		<path
   class="st0"
   d="m 3302.5,1346.8 -118.4,-171.2 -118.4,171.2 H 2450 v -199.2 h -874.7 v 199.2 h -618 v -251.7 l -174,251.7 H 593.8 l -174,-251.7 v 251.7 H 5 V 242.1 H 501.9 L 688.6,512 875.3,242.1 h 496.9 v 498.2 l 344.6,-498.2 h 591.9 l 496.9,718.6 115,-166.3 -381.9,-552.3 h 527.1 l 118.4,171.2 118.4,-171.2 h 527.1 l -381.9,552.3 381.9,552.3 H 3302.5 Z M 2142.5,764.1 2012.6,576.3 1882.7,764.1 Z"
   id="path25"
   style="display:inline;fill:#ffffff"
   inkscape:label="MaxOutline1" />

	<path
   class="st0"
   d="m 3820.1,247.1 -378.5,547.4 378.5,547.4 h -515 l -121,-175 -121,175 h -515 v 0 H 2455 v -199.2 h -884.6 v 199.2 h -93.1 v 0 h -110.1 -405 V 1079.3 L 780.6,1341.9 H 596.4 L 414.8,1079.3 v 262.6 H 9.9 V 247.1 H 499.3 L 688.6,520.8 877.9,247.1 h 489.4 V 756.3 L 1719.4,247.1 H 2306 l 499.5,722.4 121,-175 L 2548,247.1 h 515 l 121,175 121,-175 h 515.1 m -1946.8,522 H 2152 L 2012.7,567.6 1873.3,769.1 M 3839,237.2 h -18.9 -515 -5.2 l -3,4.3 -112.9,163.2 -112.9,-163.2 -3,-4.3 h -5.2 -515 -18.9 l 10.8,15.6 374.6,541.7 -109,157.6 -491.4,-710.6 -3,-4.3 h -5.2 -586.7 -5.2 l -3,4.3 -334,483 v -477.4 -9.9 h -9.9 -489.2 -5.2 l -3,4.3 -181.1,261.8 -181.1,-261.8 -3,-4.3 H 499.2 9.9 0 v 9.9 1094.7 9.9 h 9.9 404.9 9.9 v -9.9 -230.8 l 163.5,236.4 3,4.3 h 5.2 184.2 5.2 l 3,-4.3 163.5,-236.4 v 230.8 9.9 h 9.9 404.9 110.1 93.1 9.9 v -9.9 -189.3 H 2445 v 189.3 9.9 h 9.9 93.1 515 5.2 l 3,-4.3 112.9,-163.2 112.9,163.2 3,4.3 h 5.2 515 18.9 l -10.8,-15.6 -374.6,-541.7 374.6,-541.7 z M 1892.2,759.2 2012.6,585 2133,759.2 Z"
   id="path26"
   style="display:inline;fill:#ffffff"
   inkscape:label="MaxOutline2" />
</g>
  <g
     id="g43"
     inkscape:label="Commodore"
     transform="scale(0.26458333)">
    <path
       d="M 95.1,56.2 C 92.5,32 77.8,17.9 60.1,17.9 20,17.9 18.7,73.7 18.7,87 c 0,20.4 3.1,68.5 41.2,68.5 27.3,0 34.8,-27.7 38.5,-41.8 l 8.4,2.6 C 103.1,130.2 94.2,163.4 59.3,163.4 15.1,163.4 10,111.7 10,87.8 10,26.7 36.5,10 60.3,10 c 19.8,0 40.1,14.7 43.4,45.6 z"
       id="path27"
       style="display:inline"
       inkscape:label="C" />
    <path
       d="m 458.7,88.2 c 0,-35.9 11,-78.2 52.2,-78.2 43.2,0 52.6,48.1 52.6,74.8 0,33.2 -9,78.6 -52,78.6 -49.5,-0.1 -52.8,-60.2 -52.8,-75.2 z m 96,-3.7 c 0,-24 -7.9,-66.6 -43.8,-66.6 -30.8,0 -43.4,29.7 -43.4,71.1 0,12.8 2.6,66.4 43.8,66.4 38.7,0 43.4,-47.5 43.4,-70.9 z"
       id="path28"
       inkscape:label="O" />
    <path
       d="m 1029.2,12.6 v 148.1 h -8.8 V 21.9 L 976.8,132.7 932.6,21.9 v 138.7 h -8.8 v -148 h 14.1 l 38.9,98.2 38.5,-98.2 z"
       id="path29"
       inkscape:label="M" />
    <path
       d="m 1501.2,12.6 v 148.1 h -8.8 V 21.9 l -43.6,110.8 -44.2,-110.8 v 138.7 h -8.8 v -148 h 14.1 l 38.9,98.2 38.5,-98.2 z"
       id="path30"
       inkscape:label="M" />
    <path
       d="m 1862,88.2 c 0,-35.9 11,-78.2 52.2,-78.2 43.2,0 52.6,48.1 52.6,74.8 0,33.2 -9,78.6 -52,78.6 -49.5,-0.1 -52.8,-60.2 -52.8,-75.2 z m 96,-3.7 c 0,-24 -7.9,-66.6 -43.8,-66.6 -30.8,0 -43.4,29.7 -43.4,71.1 0,12.8 2.6,66.4 43.8,66.4 38.7,0 43.4,-47.5 43.4,-70.9 z"
       id="path31"
       inkscape:label="O" />
    <path
       d="m 2359.7,12.6 c 46,0 62.3,31.2 62.3,73.5 0,45.6 -16.5,74.6 -61.5,74.6 h -34 V 12.6 Z m -24.4,7.9 v 132.2 h 24.7 c 44.2,0 53.4,-32 53.4,-66.8 0,-39.9 -15.3,-65.4 -54,-65.4 z"
       id="path32"
       inkscape:label="D" />
    <path
       d="m 2776.1,88.2 c 0,-35.9 11,-78.2 52.2,-78.2 43.2,0 52.6,48.1 52.6,74.8 0,33.2 -9,78.6 -52,78.6 -49.5,-0.1 -52.8,-60.2 -52.8,-75.2 z m 96,-3.7 c 0,-24 -7.9,-66.6 -43.8,-66.6 -30.8,0 -43.4,29.7 -43.4,71.1 0,12.8 2.6,66.4 43.8,66.4 38.7,0 43.4,-47.5 43.4,-70.9 z"
       id="path33"
       inkscape:label="O" />
    <path
       d="m 3280.5,12.6 c 17.7,0 31.4,4.7 39.1,16.5 4.7,7.1 6.9,15.5 6.9,23.2 0,10.8 -4.1,21.8 -12.8,28.7 -7.3,5.9 -13.9,7.1 -20,8.4 l 33.4,71.3 h -9.2 L 3284.7,90.6 H 3249 v 70.1 h -8.8 V 12.6 Z m -31.3,7.9 v 62.1 h 21.6 c 15.5,0 21.2,-0.6 26.1,-2.2 14.5,-4.3 21,-16.7 21,-29.1 0,-30.8 -31.6,-30.8 -41.8,-30.8 z"
       id="path34"
       inkscape:label="R" />
    <path
       d="m 3765.6,12.6 v 7.9 H 3691 v 58.9 h 53 v 7.9 h -53 v 65.4 h 76.6 v 7.9 h -85.4 v -148 z"
       id="path35"
       inkscape:label="E" />
  </g>
  <g
     id="g44"
     inkscape:label="Machine"
     transform="scale(0.26458333)">
    <path
       d="m 1732.6,1175.2 v 166.7 h -9.9 v -156.1 l -49.1,124.7 -49.8,-124.7 v 156.1 h -9.9 v -166.7 h 15.8 l 43.8,110.5 43.3,-110.5 z"
       id="path36"
       inkscape:label="M" />
    <path
       d="m 1815.4,1175.2 49.3,166.7 h -10.1 l -16,-54.3 H 1781 l -15.6,54.3 h -10.1 l 47.9,-166.7 z m -6.2,13.7 -25.7,89.6 h 52.3 z"
       id="path37"
       inkscape:label="A" />
    <path
       d="m 1972.4,1224.2 c -3,-27.3 -19.5,-43.1 -39.4,-43.1 -45.2,0 -46.5,62.8 -46.5,77.7 0,22.9 3.4,77 46.3,77 30.7,0 39.2,-31.2 43.3,-47 l 9.4,3 c -4.1,15.6 -14.2,53 -53.4,53 -49.8,0 -55.5,-58.2 -55.5,-85.1 0,-68.8 29.8,-87.6 56.6,-87.6 22.2,0 45.2,16.5 48.8,51.4 z"
       id="path38"
       inkscape:label="C" />
    <path
       d="m 2020.3,1175.2 v 75.2 h 84.6 v -75.2 h 9.9 v 166.7 h -9.9 v -82.5 h -84.6 v 82.5 h -9.9 v -166.7 z"
       id="path39"
       inkscape:label="H" />
    <path
       d="m 2158.3,1175.2 v 166.7 h -9.9 v -166.7 z"
       id="path40"
       inkscape:label="I" />
    <path
       d="m 2293.4,1175.2 v 166.7 h -9.2 l -82.8,-153.4 v 153.4 h -9.9 v -166.7 h 14.2 l 77.7,144.2 v -144.2 z"
       id="path41"
       inkscape:label="N" />
    <path
       d="m 2420.2,1175.2 v 8.9 h -83.9 v 66.3 h 59.6 v 8.9 h -59.6 v 73.6 h 86.2 v 8.9 h -96.1 v -166.7 h 93.8 z"
       id="path42"
       inkscape:label="E" />
  </g>
  <g
     clip-path="url(#SVGID_00000046337453222900239440000014632039938231015090_)"
     id="g49"
     inkscape:label="MaxLogo"
     transform="scale(0.26458333)">
				
					<rect
   x="-20.200001"
   y="1205"
   transform="rotate(180,1899.9517,1273.4123)"
   class="st2"
   width="3840.2"
   height="136.8"
   id="rect42"
   style="display:inline;fill:#b2b2b2"
   inkscape:label="MaxGrey" />

				
					<rect
   x="-20.200001"
   y="1068.2"
   transform="rotate(180,1899.9517,1136.5711)"
   class="st3"
   width="3840.2"
   height="136.8"
   id="rect43"
   style="display:inline;fill:#6ba6b6"
   inkscape:label="MaxBlueGrey" />

				
					<rect
   x="-20.200001"
   y="931.29999"
   transform="rotate(180,1899.9517,999.7301)"
   class="st4"
   width="3840.2"
   height="136.8"
   id="rect44"
   style="fill:#0193bd"
   inkscape:label="MaxCyanLight" />

				
					<rect
   x="-20.200001"
   y="794.5"
   transform="rotate(180,1899.9517,862.88905)"
   class="st5"
   width="3840.2"
   height="136.8"
   id="rect45"
   style="fill:#017db2"
   inkscape:label="MaxCyan" />

				
					<rect
   x="-20.200001"
   y="657.59998"
   transform="rotate(180,1899.9517,726.0479)"
   class="st6"
   width="3840.2"
   height="136.8"
   id="rect46"
   style="fill:#0167a6"
   inkscape:label="MaxCyanDark" />

				
					<rect
   x="-20.200001"
   y="520.79999"
   transform="rotate(180,1899.9517,589.20685)"
   class="st7"
   width="3840.2"
   height="136.8"
   id="rect47"
   style="fill:#00529b"
   inkscape:label="MaxLBlueLight" />

				
					<rect
   x="-20.200001"
   y="383.89999"
   transform="rotate(180,1899.9517,452.3657)"
   class="st8"
   width="3840.2"
   height="136.8"
   id="rect48"
   style="fill:#003c8f"
   inkscape:label="MaxBlueMedium" />

				
					<rect
   x="-20.200001"
   y="247.10001"
   transform="rotate(180,1899.9517,315.52465)"
   class="st9"
   width="3840.2"
   height="136.8"
   id="rect49"
   style="fill:#002684"
   inkscape:label="MaxBlue" />

			</g>
</svg>
