<?xml version="1.0" encoding="UTF-8" standalone="no"?>
<!-- Created by ERK -->

<svg
   width="62.748806mm"
   height="15.501782mm"
   viewBox="0 0 62.748807 15.501782"
   version="1.1"
   id="svg1"
   inkscape:version="1.3.2 (091e20e, 2023-11-25, custom)"
   sodipodi:docname="megacd32x-w.svg"
   xml:space="preserve"
   xmlns:inkscape="http://www.inkscape.org/namespaces/inkscape"
   xmlns:sodipodi="http://sodipodi.sourceforge.net/DTD/sodipodi-0.dtd"
   xmlns:xlink="http://www.w3.org/1999/xlink"
   xmlns="http://www.w3.org/2000/svg"
   xmlns:svg="http://www.w3.org/2000/svg"><sodipodi:namedview
     id="namedview1"
     pagecolor="#ffffff"
     bordercolor="#000000"
     borderopacity="0.25"
     inkscape:showpageshadow="2"
     inkscape:pageopacity="0.0"
     inkscape:pagecheckerboard="true"
     inkscape:deskcolor="#d1d1d1"
     inkscape:document-units="mm"
     inkscape:zoom="7.7128046"
     inkscape:cx="121.09732"
     inkscape:cy="39.868766"
     inkscape:window-width="2542"
     inkscape:window-height="1003"
     inkscape:window-x="0"
     inkscape:window-y="330"
     inkscape:window-maximized="0"
     inkscape:current-layer="svg1" /><defs
     id="defs1"><linearGradient
       id="linearGradient9"
       inkscape:collect="always"><stop
         style="stop-color:#eee5e6;stop-opacity:1;"
         offset="0"
         id="stop9" /><stop
         style="stop-color:#eee5e6;stop-opacity:1;"
         offset="0.07810088"
         id="stop11" /><stop
         style="stop-color:#93b8f0;stop-opacity:1;"
         offset="0.16087641"
         id="stop12" /><stop
         style="stop-color:#92b7f0;stop-opacity:1;"
         offset="0.19352634"
         id="stop19" /><stop
         style="stop-color:#eee5e6;stop-opacity:1;"
         offset="0.25463235"
         id="stop13" /><stop
         style="stop-color:#eee5e6;stop-opacity:1;"
         offset="0.31302917"
         id="stop18" /><stop
         style="stop-color:#94b9f0;stop-opacity:1;"
         offset="0.3842029"
         id="stop14" /><stop
         style="stop-color:#96baf0;stop-opacity:1;"
         offset="0.44283596"
         id="stop20" /><stop
         style="stop-color:#eee5e6;stop-opacity:1;"
         offset="0.50617456"
         id="stop15" /><stop
         style="stop-color:#eee5e6;stop-opacity:1;"
         offset="0.56444222"
         id="stop21" /><stop
         style="stop-color:#9abcf0;stop-opacity:1;"
         offset="0.71539944"
         id="stop16" /><stop
         style="stop-color:#8fb5f0;stop-opacity:1;"
         offset="0.83924836"
         id="stop22" /><stop
         style="stop-color:#eee5e6;stop-opacity:1;"
         offset="0.99957532"
         id="stop17" /><stop
         style="stop-color:#eee5e6;stop-opacity:1;"
         offset="0.99957532"
         id="stop23" /><stop
         style="stop-color:#94b8f0;stop-opacity:1;"
         offset="1"
         id="stop10" /></linearGradient><linearGradient
       inkscape:collect="always"
       xlink:href="#linearGradient9"
       id="linearGradient10"
       x1="5.232698"
       y1="6.0487704"
       x2="65.64859"
       y2="19.469421"
       gradientUnits="userSpaceOnUse"
       spreadMethod="repeat" /><linearGradient
       inkscape:collect="always"
       xlink:href="#linearGradient9"
       id="linearGradient45"
       x1="7.9486117"
       y1="5.5309687"
       x2="33.471466"
       y2="33.035946"
       gradientUnits="userSpaceOnUse" /><linearGradient
       inkscape:collect="always"
       xlink:href="#linearGradient9"
       id="linearGradient61"
       gradientUnits="userSpaceOnUse"
       x1="7.9486117"
       y1="5.5309687"
       x2="33.471466"
       y2="33.035946"
       gradientTransform="translate(12.280882)" /><linearGradient
       inkscape:collect="always"
       xlink:href="#linearGradient9"
       id="linearGradient63"
       gradientUnits="userSpaceOnUse"
       x1="7.9486117"
       y1="5.5309687"
       x2="33.471466"
       y2="33.035946" /><linearGradient
       inkscape:collect="always"
       xlink:href="#linearGradient9"
       id="linearGradient65"
       gradientUnits="userSpaceOnUse"
       x1="7.9486117"
       y1="5.5309687"
       x2="33.471466"
       y2="33.035946" /><linearGradient
       inkscape:collect="always"
       xlink:href="#linearGradient9"
       id="linearGradient1"
       gradientUnits="userSpaceOnUse"
       x1="5.232698"
       y1="6.0487704"
       x2="65.64859"
       y2="19.469421"
       spreadMethod="repeat" /><linearGradient
       inkscape:collect="always"
       xlink:href="#linearGradient9"
       id="linearGradient2"
       gradientUnits="userSpaceOnUse"
       x1="5.232698"
       y1="6.0487704"
       x2="65.64859"
       y2="19.469421"
       spreadMethod="repeat" /><linearGradient
       inkscape:collect="always"
       xlink:href="#linearGradient9"
       id="linearGradient3"
       gradientUnits="userSpaceOnUse"
       x1="5.232698"
       y1="6.0487704"
       x2="65.64859"
       y2="19.469421"
       spreadMethod="repeat" /></defs><g
     id="g3"
     transform="matrix(0,-0.03643622,0.03643622,0,-1.4294108,27.239424)"
     style="display:inline"
     inkscape:label="SegaLogo"><path
       class="st0"
       d="m 706.37658,64.163295 c -4.57,-14.539081 -18.32045,-24.932805 -34.09303,-24.932805 -15.7928,0 -29.50281,10.393724 -34.09303,24.932805 L 626.13865,99.91447 V 41.293058 h -63.15097 c -11.2228,0 -21.5963,4.570003 -29.50281,12.051867 V 41.293058 h -64.82934 c -12.05186,0 -22.85001,4.994649 -30.75652,13.305584 V 41.293058 h -61.49283 c -26.18653,0 -47.78282,21.596298 -47.78282,47.782821 0,12.476511 4.99464,24.103731 12.88093,32.434891 h -12.88093 v 55.68933 h 61.49283 c 17.43072,0 32.41466,-9.16023 41.13002,-23.27466 7.07744,13.68979 21.19188,23.27466 37.81375,23.27466 h 65.25398 v -12.05187 c 7.48186,7.48187 17.85537,12.05187 29.50281,12.05187 h 180.37358 z"
       id="path20-4"
       style="display:inline;fill:#ffffff;stroke-width:0.202213"
       inkscape:label="SEGA_Outline" /><path
       id="path21-8"
       style="display:inline;fill:#034693;stroke-width:0.202213"
       class="st1"
       d="m 673.72949,48.795301 c -12.03165,0 -22.02111,7.886289 -24.93297,18.704659 L 618.48478,156.4328 V 91.178968 H 572.7646 v 16.197142 h 29.92745 v 44.04205 h -37.40931 c -9.16023,0 -16.19715,-7.48218 -16.19715,-16.19754 V 83.272537 c 0,-9.160227 7.48179,-16.197539 16.19715,-16.197539 H 618.8892 V 50.897996 h -54.03103 c -17.85537,0 -32.41483,14.55946 -32.41483,32.414826 V 135.2613 c 0,17.85537 14.55946,32.41443 32.41483,32.41443 h 66.89208 l 33.66838,-97.648113 c 1.25372,-3.740932 4.56984,-6.228304 8.73542,-6.228304 4.16558,0 7.48172,2.487372 8.73544,6.228304 l 27.44046,81.450973 h -43.21304 v 16.15686 h 65.65863 L 699.06649,67.904385 c -3.31628,-10.798149 -13.30536,-19.109084 -25.337,-19.109084 z m -295.4732,2.082553 c -21.19188,0 -38.21817,17.046516 -38.21817,38.218168 0,21.171648 17.04651,38.218168 38.21817,38.218168 h 13.30574 c 1.25372,0 2.06241,0.82931 2.06241,2.06281 0.0202,1.25371 -0.82883,2.10269 -1.67812,2.10269 h -51.9082 v 16.19754 h 51.92834 c 9.94885,0 18.28009,-8.33123 18.28009,-18.28009 0,-9.94886 -8.33124,-18.28009 -18.28009,-18.28009 h -13.30575 c -12.05187,0 -22.02062,-9.94894 -22.02062,-22.021028 0,-12.072088 9.96875,-22.021024 22.02062,-22.021024 h 51.54406 V 50.877854 Z m 92.26974,0 c -17.85537,0 -32.41483,14.559459 -32.41483,32.414826 v 51.94848 c 0,17.85537 14.55946,32.41443 32.41483,32.41443 h 55.66927 v -16.19714 h -55.66927 c -9.16023,0 -16.19715,-7.48179 -16.19715,-16.19715 V 83.29268 c 0,-9.160228 7.48179,-16.197145 16.19715,-16.197145 H 526.1953 V 50.877854 Z m 203.58774,16.601569 c -2.06257,0 -4.16582,1.678443 -4.99489,3.316365 l -33.24382,96.839662 h 19.1091 l 11.64775,-34.47724 v 14.55931 l 0.42456,-0.0202 h 37.81375 L 679.10826,71.220355 c -0.82907,-2.062568 -2.48705,-3.740932 -4.99449,-3.740932 z M 378.25629,70.81593 c -9.94886,0 -18.27969,8.331235 -18.27969,18.280092 0,9.948856 8.33083,18.280088 18.27969,18.280088 h 13.30574 c 12.05187,0 22.02103,9.94894 22.02103,22.02103 0,12.07209 -9.94894,22.02102 -22.02103,22.02102 h -51.52391 v 16.19715 h 51.92834 c 21.19187,0 38.21817,-17.04652 38.21817,-38.21817 0,-21.17165 -17.04652,-38.218172 -38.21817,-38.218172 h -13.30575 c -1.25372,0 -2.0624,-0.829308 -2.0624,-2.062804 -0.0202,-0.849293 0.8289,-1.678127 1.65798,-1.678127 h 51.94848 V 70.81593 Z m 92.24959,0 c -7.07743,0 -12.47675,5.419532 -12.47675,12.47675 v 24.10358 h 56.5184 V 91.178968 h -40.28057 c 0,-2.062567 1.67836,-3.740931 3.74093,-3.740931 h 47.78298 V 70.81593 Z m 94.33215,0 c -7.07744,0 -12.47676,5.419532 -12.47676,12.47675 v 51.94848 c 0,7.07744 5.41954,12.47636 12.47676,12.47636 h 33.66839 v -36.60047 h -25.76196 v 16.19714 h 9.56481 v 3.74093 h -9.56481 c -2.06257,0 -3.74093,-1.67836 -3.74093,-3.74093 V 90.774543 c 0,-2.062567 1.67836,-3.740931 3.74093,-3.740931 h 46.1246 V 70.836467 Z m -106.78836,40.72568 v 24.10397 c 0,7.07744 5.41914,12.47636 12.47636,12.47636 h 55.66927 v -16.21729 h -48.20755 c -2.08279,-0.42464 -3.72079,-2.0831 -3.72079,-4.16589 h 40.30112 v -16.19715 z m 215.67982,1.25396 5.41907,16.62171 h -11.2228 z"
       inkscape:label="SEGA" /></g><g
     id="g8"
     inkscape:label="32X"
     style="display:inline;fill:url(#linearGradient10);fill-opacity:1;stroke:#000000;stroke-width:0.3;stroke-linejoin:bevel;stroke-dasharray:none;stroke-opacity:0.750394;paint-order:stroke fill markers"><path
       id="path6"
       style="fill:url(#linearGradient1);fill-opacity:1;stroke:#000000;stroke-width:0.3;stroke-linejoin:bevel;stroke-dasharray:none;stroke-opacity:0.750394;paint-order:stroke fill markers"
       d="m 5.9399376,5.71684 v 2.6839095 5.01e-4 H 21.094324 c 0,-1.589262 -0.744847,-2.6844105 -2.233613,-2.6844105 z M 16.806494,8.6949525 c 0,0.529948 -0.318916,0.6940475 -0.956988,0.6940475 H 8.43 v 2.184097 h 7.578844 c 0.531558,0 0.79765,0.13322 0.79765,0.397806 0,0.264587 -0.266273,0.397097 -0.797831,0.397097 H 5.9397568 l 1.808e-4,2.883629 H 18.860711 c 1.488766,0 2.233613,-0.794183 2.233613,-2.383446 V 8.6949525 Z"
       sodipodi:nodetypes="ccccsccsccsssccsscc"
       inkscape:label="3" /><path
       id="path7"
       style="fill:url(#linearGradient2);fill-opacity:1;stroke:#000000;stroke-width:0.3;stroke-linejoin:bevel;stroke-dasharray:none;stroke-opacity:0.750394;paint-order:stroke fill markers"
       d="m 21.961516,5.71684 v 2.6839095 5.01e-4 h 15.458405 c 0,-1.589262 -0.813184,-2.6844105 -2.440465,-2.6844105 z M 33.252,8.6949525 c 0,0.529948 -0.171277,0.5940732 -0.7135,0.5940732 h -8.136028 c -1.627077,0 -2.440956,0.7946863 -2.440956,2.3839483 v 3.578655 H 37.419921 V 12.468542 H 26.216174 c 0,-0.529948 0.271431,-0.79465 0.813653,-0.79465 h 7.949629 c 1.627076,0 2.440465,-0.99517 2.440465,-2.5844337 V 8.6949525 Z"
       sodipodi:nodetypes="ccccsccsssccccssscc"
       inkscape:label="2" /><path
       id="path8"
       style="fill:url(#linearGradient3);fill-opacity:1;stroke:#000000;stroke-width:0.3;stroke-linejoin:bevel;stroke-dasharray:none;stroke-opacity:0.750394;paint-order:stroke fill markers"
       d="m 25.219155,5.7169637 5.10098,2.6835571 h 6.644039 L 32.078167,5.7169637 Z m 17.782894,0 -4.886007,2.6835571 h 6.644039 l 5.10098,-2.6835571 z m -12.182203,2.9781128 3.315043,1.8004065 -8.558133,4.756299 h 6.759277 l 5.204333,-2.843754 5.203817,2.843754 H 49.50346 L 40.945326,10.495483 44.26037,8.6950765 h -6.720004 z"
       transform="translate(12.280882)"
       inkscape:label="X" /></g><g
     id="g37"
     inkscape:label="32X"
     style="fill:url(#linearGradient45);stroke:#ffffff;stroke-width:0.1;stroke-dasharray:none;stroke-opacity:0.0622048"><path
       id="path34"
       style="fill:url(#linearGradient65);stroke:#ffffff;stroke-width:0.1;stroke-dasharray:none;stroke-opacity:0.0622048"
       d="m 6.1892863,5.9665609 v 2.183846 H 20.773409 C 20.730863,7.535837 20.620287,6.9730395 20.339844,6.6171672 20.013691,6.2032908 19.544463,5.9665609 18.861381,5.9665609 Z M 16.939535,8.9451904 c -0.05223,0.1887747 -0.07841,0.3986287 -0.232544,0.502295 -0.231066,0.1554103 -0.516844,0.1912028 -0.857312,0.1912028 H 8.6795736 v 1.6836178 h 7.3303014 c 0.286664,0 0.516564,0.03105 0.709001,0.127124 0.192437,0.09607 0.337964,0.305315 0.337964,0.521416 0,0.216158 -0.145485,0.425615 -0.337964,0.521415 -0.192479,0.0958 -0.424515,0.125057 -0.711068,0.125057 H 6.1892863 v 2.384867 H 18.861381 c 0.699929,0 1.17646,-0.181267 1.491899,-0.517798 0.315438,-0.336531 0.490409,-0.85983 0.490409,-1.615405 V 8.9451904 Z"
       inkscape:label="3" /><path
       id="path36"
       style="fill:url(#linearGradient63);stroke:#ffffff;stroke-width:0.1;stroke-dasharray:none;stroke-opacity:0.0622048"
       d="m 22.211047,5.9665609 v 2.183846 H 37.091793 C 37.045663,7.5402231 36.927832,6.9833894 36.621021,6.6269857 36.26381,6.212037 35.7363,5.9665609 34.978743,5.9665609 Z m 11.261845,2.9786295 c -0.007,0.044595 -0.0047,0.096814 -0.01757,0.1390096 -0.036,0.118182 -0.106521,0.2315283 -0.207222,0.3064413 -0.201403,0.1498275 -0.428034,0.1483113 -0.709001,0.1483113 h -8.136971 c -0.772838,0 -1.308971,0.1864203 -1.65623,0.5255494 -0.347259,0.339129 -0.534851,0.857249 -0.534851,1.609204 v 3.328479 H 37.169824 V 12.718604 H 25.96689 v -0.249598 c 0,-0.307656 0.08226,-0.585048 0.277503,-0.775663 0.195244,-0.190611 0.473172,-0.269751 0.784965,-0.269751 h 7.949385 c 0.762568,0 1.292356,-0.225448 1.646412,-0.614949 0.354056,-0.389502 0.544669,-0.966777 0.544669,-1.7187586 v -0.144694 z"
       inkscape:label="2" /><path
       id="path43"
       style="display:inline;fill:url(#linearGradient61);stroke:#ffffff;stroke-width:0.1;stroke-dasharray:none;stroke-opacity:0.0622048"
       d="m 38.511344,5.9665609 4.152202,2.183846 h 5.607409 l -3.976501,-2.183846 z m 16.836182,0 -3.977018,2.183846 h 5.609477 l 4.150651,-2.183846 z m -16.836182,0 4.152202,2.183846 h 5.607409 l -3.976501,-2.183846 z m 16.836182,0 -3.977018,2.183846 h 5.609477 l 4.150651,-2.183846 z m -11.259778,2.9786295 2.847372,1.5471926 -8.1132,4.509802 h 5.730399 l 5.269446,-2.878894 5.267896,2.878894 h 5.730399 l -8.1132,-4.509802 2.847372,-1.5471926 h -5.732467 z"
       inkscape:label="X" /></g><g
     id="g33"
     style="display:inline;fill:#eee5e6;fill-opacity:1;stroke:#000000;stroke-width:0.15;stroke-dasharray:none;stroke-opacity:0.745669"
     transform="translate(2.3525161,22.399218)"
     inkscape:label="Mega-CD"><path
       id="path3-7"
       style="fill:#eee5e6;fill-opacity:1;stroke:#000000;stroke-width:0.15;stroke-dasharray:none;stroke-opacity:0.745669"
       d="m 3.5388019,-22.324218 v 1.12448 H 13.699131 c 0,-0.74987 -0.224918,-1.12448 -0.676796,-1.12448 z m 0,1.599526 v 2.999385 H 5.332 v -2.999385 z m 4.1643967,0 v 2.999385 H 9.497 v -2.999385 z m 4.2028014,0 v 2.999385 h 1.793131 v -2.999385 z"
       sodipodi:nodetypes="cccscccccccccccccccc"
       inkscape:label="M" /><path
       id="path4-2"
       style="fill:#eee5e6;fill-opacity:1;stroke:#000000;stroke-width:0.15;stroke-dasharray:none;stroke-opacity:0.745669"
       d="m 14.315,-22.324218 v 1.12448 h 6.791227 v -1.12448 z m 0,1.599526 v 1.874136 c 0,0.749869 0.238706,1.125249 0.715546,1.125249 h 6.075681 v -1.125249 h -4.44651 c -0.238143,0 -0.357434,-0.124469 -0.357434,-0.374827 h 4.446511 v -1.124481 h -4.089077 c -0.238143,0 -0.357434,-0.12447 -0.357434,-0.374828 z"
       sodipodi:nodetypes="ccccccssccscccscc"
       inkscape:label="E" /><path
       id="path5-5"
       style="fill:#eee5e6;fill-opacity:1;stroke:#000000;stroke-width:0.15;stroke-dasharray:none;stroke-opacity:0.745669"
       d="m 22.278342,-22.324218 c -0.474662,0 -0.711342,0.374908 -0.711342,1.12448 h 7.475538 v -1.12448 z M 21.567,-20.724692 v 1.874136 c 0,0.749869 0.237077,1.125249 0.712021,1.125249 h 6.407507 c 0.474662,0 0.71202,-0.375677 0.71202,-1.125249 v -0.374827 c 0,-0.74987 -0.356179,-1.124481 -1.068031,-1.124481 h -3.204093 v 1.124481 h 1.780051 c 0.236908,0 0.356012,0.06336 0.356012,0.187797 0,0.12444 -0.118823,0.18703 -0.356012,0.18703 h -3.559424 v -1.874136 z"
       sodipodi:nodetypes="scccscssssssccsssccc"
       inkscape:label="G" /><path
       id="path6-1"
       style="fill:#eee5e6;fill-opacity:1;stroke:#000000;stroke-width:0.15;stroke-dasharray:none;stroke-opacity:0.745669"
       d="m 30.547663,-22.324218 c -0.475758,0 -0.713663,0.374908 -0.713663,1.12448 h 7.492793 c 0,-0.74987 -0.237624,-1.12448 -0.713665,-1.12448 z M 29.834,-20.724692 v 2.999385 h 1.884 v -2.999385 z m 5.609,0 v 1.12448 h -3.468007 v 1.125253 H 35.443 v 0.749652 h 1.884472 v -2.999385 z"
       sodipodi:nodetypes="sccsscccccccccccccc"
       inkscape:label="A" /><path
       d="m 38.770493,-19.469828 h 2.787054 v -1.706179 h -2.787054 z"
       style="display:inline;fill:#eee5e6;fill-opacity:1;stroke:#000000;stroke-width:0.15;stroke-dasharray:none;stroke-opacity:0.745669"
       id="path9-1"
       sodipodi:nodetypes="ccccc"
       inkscape:label="-" /><path
       id="path33-6"
       style="fill:#eee5e6;fill-opacity:1;stroke:#000000;stroke-width:0.15;stroke-dasharray:none;stroke-opacity:0.745669"
       d="m 43.724087,-22.324218 c -0.494706,0 -0.742087,0.374908 -0.742087,1.124482 h 7.633349 c 0,-0.749872 -0.247089,-1.124482 -0.742088,-1.124482 z M 42.982,-20.724692 v 1.874136 c 0,0.749869 0.247088,1.125249 0.742088,1.125249 h 6.148913 c 0.494706,0 0.742086,-0.375677 0.742086,-1.125249 -2.102345,-3.82e-4 -3.675524,-3.04e-4 -5.777869,-3.04e-4 v -1.873832 z"
       sodipodi:nodetypes="sccsscssscccc"
       inkscape:label="C" /><path
       id="path7-7"
       style="fill:#eee5e6;fill-opacity:1;stroke:#000000;stroke-width:0.15;stroke-dasharray:none;stroke-opacity:0.745669"
       d="m 51.826,-22.324218 v 1.12448 h 7.532631 c 0,-0.74987 -0.245227,-1.12448 -0.736504,-1.12448 z m 0,1.599526 v 2.999385 h 1.840563 v -2.999385 z m 5.691368,0 v 1.874136 h -3.482553 v 1.125249 h 4.587312 c 0.491277,0 0.736504,-0.37538 0.736504,-1.125249 v -1.874136 z"
       sodipodi:nodetypes="cccsccccccccccsscc"
       inkscape:label="D" /></g></svg>
