<?xml version="1.0" encoding="UTF-8" standalone="no"?>
<svg
   height="181.306"
   viewBox="0 0 565.003 362.611"
   width="282.501"
   version="1.1"
   id="svg890"
   sodipodi:docname="megaduck.svg"
   xml:space="preserve"
   inkscape:version="1.2 (dc2aedaf03, 2022-05-15)"
   xmlns:inkscape="http://www.inkscape.org/namespaces/inkscape"
   xmlns:sodipodi="http://sodipodi.sourceforge.net/DTD/sodipodi-0.dtd"
   xmlns="http://www.w3.org/2000/svg"
   xmlns:svg="http://www.w3.org/2000/svg"><defs
     id="defs894" /><sodipodi:namedview
     id="namedview892"
     pagecolor="#505050"
     bordercolor="#ffffff"
     borderopacity="1"
     inkscape:showpageshadow="0"
     inkscape:pageopacity="0"
     inkscape:pagecheckerboard="1"
     inkscape:deskcolor="#505050"
     showgrid="false"
     inkscape:zoom="1.3016668"
     inkscape:cx="125.22406"
     inkscape:cy="271.19075"
     inkscape:window-width="1920"
     inkscape:window-height="1017"
     inkscape:window-x="-8"
     inkscape:window-y="-8"
     inkscape:window-maximized="1"
     inkscape:current-layer="svg890" /><g
     fill="#279eb4"
     id="g888"
     style="fill:#202b49;fill-opacity:1"><path
       d="M 15.004,4.799 C 18.83,2.115 23.421,0.994 28.017,0.61 c 3.721,-0.31 12.917,-1.786 15.06,1.409 3.044,4.542 3.326,11.016 3.933,16.294 0.732,6.366 1.898,12.617 2.455,19 1.042,11.948 5.548,22.88 8.922,34.266 3.688,12.443 6.574,25.102 9.928,37.636 6.041,-7.493 8.065,-17.296 12.02,-25.885 4.876,-10.598 9.16,-21.5 12.233,-32.765 1.27,-4.654 1.484,-9.623 2.965,-14.164 1.38,-4.23 4.25,-7.935 6.336,-11.837 3.4,-6.356 10.423,-16.793 17.575,-19.444 5.03,-1.864 9.668,-0.165 14.73,0.298 5.26,0.48 10.336,-1.206 15.548,-0.905 11.641,0.673 6.57,21.273 5.918,28.717 -2.036,23.24 -0.57,45.739 -0.403,68.959 0.082,11.312 -0.325,22.518 -0.722,33.809 -0.198,5.645 1.568,26.887 -6.095,27.937 -11.646,1.595 -10.775,-10.802 -10.88,-19.004 -0.154,-12.044 -0.862,-24.023 -1.03,-36.066 -0.323,-22.98 -0.908,-45.881 -1.664,-68.847 -0.173,-5.291 -0.664,-10.632 -2.446,-15.654 -3.854,0.565 -7.533,2.788 -9.569,6.149 -5.607,9.256 -7.673,20.368 -12.616,29.973 -7.587,19.793 -16.83,38.912 -24.165,58.807 -2.959,8.025 -4.05,18.484 -10.83,24.219 -4.079,3.45 -13.307,15.656 -18.804,9.944 -6.58,-6.838 -5.073,-14.728 -6.375,-23.748 -1.583,-10.971 -4.266,-21.74 -6.907,-32.492 -2.562,-10.433 -3.98,-21.488 -7.739,-31.548 -2.688,-7.193 -0.807,-18.952 -6.96,-24.373 -1.33,4.915 -1.335,10.036 -1.738,15.076 -0.51,6.378 -1.933,12.562 -2.19,18.992 -0.499,12.468 -1.4,24.95 -1.906,37.366 -0.492,12.096 -1.484,24.17 -1.67,36.278 C 13.757,155.486 2.923,146.27 1.236,139.099 -1.449,127.684 1.063,113.361 1.146,101.649 1.231,89.604 0.999,77.517 2.073,65.503 4.666,54.445 4.057,41.85 4.69,30.523 4.993,25.082 5.592,19.567 6.201,14.15 c 1.17,-4.41 5.338,-6.884 8.804,-9.351 7.827,-5.49 -3.473,2.473 0,0 z m 415.222,38.386 c 4.55,0.745 11.417,-1.408 11.062,5.626 -0.408,8.083 -1.638,15.798 -1.49,23.988 0.316,17.503 0.167,35.346 -0.16,52.835 -0.17,9.107 -1.069,16.605 1.604,25.49 1.74,5.782 6.815,14.059 -1.48,17.163 -6.052,2.265 -11.138,-5.205 -13.742,-9.56 -3.782,-6.325 -6.555,-11.191 -6.845,-18.62 -6.536,0.182 -10.748,13.156 -17.205,16.569 -8.053,4.257 -19.575,5.122 -27.524,0.529 -16.683,-9.638 -23.654,-32.227 -23.864,-50.523 -0.107,-9.26 -1.01,-21.303 3.824,-29.554 4.262,-7.276 11.733,-14.076 17.968,-19.704 6.7,-6.047 17.961,-7.753 26.571,-6.02 5.78,1.165 19.513,6.673 17.287,14.83 -2.989,10.95 -17.63,1.192 -24.912,1.388 -7.36,0.198 -16.458,13.388 -18.979,19.668 -3.63,9.042 -4.255,18.995 -3.806,28.633 0.413,8.875 5.531,16.32 10.753,23.272 7.883,10.496 15.147,-4.567 19.427,-10.727 5.73,-8.25 9.792,-17.521 13.108,-26.964 3.206,-9.128 8.34,-18.445 8.67,-28.23 0.18,-5.323 -0.889,-11.382 1.236,-16.357 2.117,-4.956 4.541,-9.958 8.497,-13.732 3.726,0.61 -4.525,4.318 0,0 z M 328.268,61.806 c 2.214,-6.314 5.851,-16.494 14.683,-11.146 3.717,2.25 0.236,10.847 0.212,14.499 -0.2,6.835 -1.142,13.538 -1.56,20.338 -0.719,11.666 -1.368,23.337 -1.76,35.019 -0.418,12.452 -1.867,24.83 -2.042,37.283 -0.138,9.793 0.612,17.953 -6.206,25.859 -6.656,7.718 -17.3,11.905 -27.073,13.938 -11.058,2.299 -20.909,3.292 -32.236,2.325 -5.673,-0.484 -11.322,-1.221 -16.96,-2 -5.047,-0.734 -9,0.694 -12.372,-4.046 -6.422,-9.027 7.88,-10.201 14.101,-9.984 10.546,0.368 20.291,3.175 30.803,1.5 7.985,-1.272 17.163,-3.558 22.177,-10.635 2.308,-3.257 3.006,-8.617 4.462,-12.386 0.851,-2.202 1.55,-4.492 1.588,-6.875 -2.219,-1.393 -4.478,-3.43 -7.322,-3.036 -4.7,0.397 -9.217,2.324 -13.99,1.947 -4.92,0.306 -9.68,-1.171 -14.463,-2.064 -9.605,-1.794 -18.019,-3.852 -25.226,-11.04 -13.23,-13.2 -10.9,-39.144 0.902,-52.852 5.982,-6.948 15.091,-13.775 22.876,-18.514 5.205,-3.167 10.905,-4.37 16.746,-5.813 5.058,-1.25 9.657,-4.795 13.9,-0.23 4.078,4.388 -1.53,7.695 -5.44,10.538 -4.123,2.997 -8.647,5.37 -12.927,8.123 -9.614,6.182 -18.166,11.377 -23.052,22.26 -2.763,6.156 -1.894,8.6 0.022,14.87 1.878,6.148 3.786,8.743 9.64,11.703 9.413,4.759 26.613,2.713 35.396,-3.014 8.61,-5.614 7.88,-21.278 7.83,-30.575 -0.035,-6.388 -0.417,-12.84 0.735,-19.161 1.482,-5.872 4.84,-11.04 6.556,-16.831 1.535,-4.376 -1.718,5.794 0,0 z"
       id="path884"
       style="display:inline;fill:#202b49;fill-opacity:1" /><path
       d="m 195.838,52.92 c 7.36,-1.01 21.513,-2.876 27.212,2.882 6.168,6.23 9.848,13.067 8.646,21.854 -1.058,7.734 -4.568,15.454 -10.982,20.174 -7.557,5.562 -18.003,6.497 -26.616,9.763 -9.703,3.678 -12.007,9.273 -10.476,19.336 1.408,9.252 16.02,13.5 23.544,16.468 8.751,4.959 18.636,7.254 28.44,9.07 7.867,1.459 18.07,1.648 25.328,5.204 7.704,3.773 2.306,11.206 -3.775,12.59 -5.544,0.979 -11.168,0.189 -16.708,-0.371 -5.475,-0.554 -11.019,-0.042 -16.428,-1.144 -10.53,-2.145 -20.678,-5.874 -30.555,-10.04 -7.938,-3.347 -19.262,-6.313 -23.705,-14.346 -3.887,-7.03 -3.57,-15.943 -4.712,-23.696 -1.56,-10.583 -0.326,-22.016 -0.02,-32.684 0.29,-10.041 3.386,-16.307 12.21,-21.18 3.483,-1.922 7.144,-3.755 9.881,-6.724 2.708,-2.576 4.92,-6.075 8.716,-7.155 6.591,-0.904 -3.794,1.08 0,0 z m 5.555,17.848 c -7.27,1.639 -12.414,2.545 -15.66,9.922 -1.36,3.087 -4.254,7.096 -3.383,10.582 0.824,3.296 6.88,0.9 9.81,0.409 6.57,-1.104 16.735,-2.756 19.31,-9.884 1.154,-3.2 1.161,-6.743 0.562,-10.057 -0.654,-3.605 -7.653,-1.802 -10.639,-0.972 -4.676,1.054 3.33,-0.925 0,0 z m -70.466,115.988 c -0.863,-9.464 17.696,-1.061 21.898,-0.494 11.383,1.535 22.185,4.74 33.372,7.44 9.896,2.39 20.03,5.764 30.168,6.967 8.812,0.989 16.507,10.273 22.043,16.383 6.2,6.839 9.52,17.049 11.543,26 1.184,5.24 0.616,10.736 0.87,16.06 0.298,6.28 1.246,12.523 1.185,18.819 -0.087,8.924 0.104,21.297 -4.602,29.15 -5.065,8.45 -15.915,12.64 -24.129,17.255 -4.432,2.489 -9,5.246 -13.977,6.435 -5.1,1.219 -10.338,1.934 -15.296,3.699 -11.002,3.916 -22.195,8.776 -32.698,13.883 -9.117,4.433 -17.738,9.314 -27.133,13.248 -11.566,5.286 -9.13,-11.584 -7.694,-17.925 4.005,-22.6 6.761,-45.461 10.995,-68.005 1.7,-9.043 6.66,-19.004 4.3,-28.312 -1.218,-4.796 -4.089,-8.216 -4.14,-13.42 -0.042,-4.194 -0.108,-13.577 3.501,-15.708 8.011,-4.731 11.64,-1.591 16.387,5.592 4.002,6.057 6.69,13.069 7.107,20.356 -0.38,17.28 -3.442,34.793 -6.18,51.892 -1.239,7.727 -3.824,15.365 -4.607,23.139 -0.39,3.88 0.051,7.179 5.12,5.656 4.295,-1.23 8.506,-2.738 12.654,-4.395 7.471,-2.984 14.737,-6.444 22.108,-9.662 7.676,-3.351 13.55,-9.343 20.876,-13.297 6.946,-3.75 10.243,-5.678 11.424,-13.53 1.1,-8.698 0.981,-17.482 1.038,-26.231 0.051,-7.847 -4.555,-12.871 -8.68,-19.195 -3.73,-5.72 -8.768,-13.184 -14.688,-16.884 -6.1,-3.811 -14.983,-5.708 -21.848,-7.803 -7.272,-2.22 -14.789,-3.598 -22.347,-4.396 -14.592,-1.543 -28.659,-5.183 -28.57,-22.717 -0.238,-2.608 -0.034,6.758 0,0 z m 261.105,35.639 c 19.691,-6.981 42.656,0.208 55.958,16.168 1.601,3.413 -1.585,6.63 -4.686,7.475 -3.947,1.075 -7.773,-2.172 -10.79,-4.272 -7.564,-5.27 -21.11,-9.977 -29.422,-4.45 -15.756,10.48 -26.782,33.62 -21.136,52.32 5.784,19.16 20.89,39.804 43.475,31.248 4.661,-1.766 9.521,-2.223 14.262,-3.695 4.892,-1.52 10.005,-2.513 15.147,-2.271 11.184,0.526 -10.884,17.116 -14.046,18.804 -18.03,9.625 -43.21,8.4 -57.642,-6.58 -6.529,-6.777 -11.064,-12.55 -13.933,-21.726 -3.117,-9.972 -5.388,-20.595 -5.099,-31.061 0.493,-17.9 10.184,-44.264 27.912,-51.96 7.663,-2.717 -5.495,2.385 0,0 z m 72.202,4.561 c 1.247,-3.678 4.875,-5.648 8.481,-6.353 5.768,-1.127 4.718,4.268 4.432,8.744 -0.763,11.94 -0.662,22.622 2.142,34.236 1.135,4.7 0.895,9.562 2.115,14.202 1.294,4.92 7.662,1.595 11.294,0.239 4.248,-1.587 8.744,-1.617 12.997,-3.15 4.946,-1.783 9.46,-4.604 14.492,-6.168 7.87,-0.288 18.67,1.837 24.443,7.866 5.2,5.43 12.303,14.399 7.883,22.216 -1.786,3.159 -4.96,5.257 -7.79,7.383 -3.533,2.653 -2.537,5.62 1.526,7.736 3.856,2.205 6.997,5.388 10.081,8.533 2.598,2.648 8.544,6.072 8.667,10.126 0.552,18.247 -40.912,-9.586 -45.726,-11.674 -9.232,-4.005 -18.93,-8.464 -28.69,-10.992 -3.155,-0.817 -4.786,-2.25 -5.735,1.489 -0.626,2.464 -0.888,5.004 -0.99,7.539 -0.187,4.587 1.603,13.056 -1.288,16.893 -2.187,2.903 -6.165,3.475 -9.308,4.798 -3.156,-4.002 -4.309,-7.328 -4.352,-12.404 -0.1,-12.012 -0.05,-24.178 -1.692,-36.09 -1.526,-11.071 -2.436,-21.422 -2.706,-32.573 -0.259,-10.622 -5.729,-22.44 -0.276,-32.596 1.673,-4.934 -4.096,7.628 0,0 z m 46.303,59.284 c -6.725,2.099 -13.586,8.113 -4.334,12.21 5.925,2.625 15.227,2.558 21.537,1.424 4.382,-2.046 12.674,-5.282 6.603,-10.91 -5.522,-5.117 -16.863,-3.443 -23.806,-2.724 -3.212,1.003 6.47,-0.67 0,0 z M 261.65,236.465 c 8.37,0.157 16.25,-0.14 16.801,10.448 0.557,10.694 -1.036,21.243 -0.668,31.89 0.303,8.755 2.372,21.108 6.56,28.895 5.494,10.219 14.358,11.586 24.99,11.596 9.645,0.01 17.572,-3.868 21.964,-12.9 1.913,-4.386 2.28,-9.204 3.16,-13.854 1.112,-5.892 2.87,-11.398 3.306,-17.438 0.434,-5.99 -2.464,-25.695 6.842,-24.518 11.785,1.49 8.82,16.563 6.954,24.78 -1.769,10.235 1.774,21.37 4.63,31.115 1.63,5.559 2.978,11.195 4.347,16.823 1.22,5.015 3.357,9.995 1.345,15.072 -1.229,3.1 -3.672,6.02 -7.002,6.906 -4.318,1.15 -6.363,-2.691 -8.158,-6.022 -1.869,-3.471 -3.39,-7.278 -6.336,-10.02 -5.59,0.178 -10.54,3.126 -15.563,5.23 -9.372,3.93 -18.447,6.224 -28.45,3.28 -9.293,-2.733 -20.304,-9.537 -25.332,-18.03 -10.947,-20.68 -6.764,-44.178 -8.432,-66.52 -0.419,-5.622 -0.96,-11.085 -0.958,-16.733 4.443,0.084 0,2.734 0,0 z"
       id="path886"
       style="display:inline;fill:#202b49;fill-opacity:1" /></g></svg>
