<?xml version="1.0" encoding="UTF-8" standalone="no"?>
<svg
   version="1.1"
   viewBox="0.00 0.00 600.00 300.00"
   id="svg68"
   sodipodi:docname="mikrosha.svg"
   inkscape:version="1.1.2 (0a00cf5339, 2022-02-04)"
   xmlns:inkscape="http://www.inkscape.org/namespaces/inkscape"
   xmlns:sodipodi="http://sodipodi.sourceforge.net/DTD/sodipodi-0.dtd"
   xmlns="http://www.w3.org/2000/svg"
   xmlns:svg="http://www.w3.org/2000/svg">
  <defs
     id="defs72" />
  <sodipodi:namedview
     id="namedview70"
     pagecolor="#ffffff"
     bordercolor="#666666"
     borderopacity="1.0"
     inkscape:pageshadow="2"
     inkscape:pageopacity="0.0"
     inkscape:pagecheckerboard="0"
     showgrid="false"
     inkscape:zoom="2.1366667"
     inkscape:cx="300"
     inkscape:cy="149.76599"
     inkscape:window-width="1920"
     inkscape:window-height="1011"
     inkscape:window-x="1920"
     inkscape:window-y="32"
     inkscape:window-maximized="1"
     inkscape:current-layer="svg68" />
  <g
     fill="#ffffff"
     id="g42"
     style="fill:#ffffff">
    <path
       d="   M 55.25 166.23   Q 55.25 164.09 54.12 165.91   L 43.33 183.37   Q 42.97 183.97 42.62 183.36   L 31.70 164.27   A 1.03 1.03 0.0 0 0 29.77 164.78   L 29.74 209.76   Q 29.74 210.25 29.24 210.25   L 5.00 210.25   Q 4.50 210.25 4.50 209.75   L 4.50 90.86   Q 4.50 90.22 5.14 90.22   L 29.06 90.13   Q 29.50 90.13 29.50 90.56   L 29.50 102.95   Q 29.50 103.47 29.77 103.91   L 41.97 123.57   A 0.38 0.38 0.0 0 0 42.61 123.57   L 54.80 104.17   Q 55.09 103.71 55.08 103.16   L 54.96 90.76   A 0.79 0.78 -90.0 0 1 55.74 89.97   L 79.23 89.97   A 0.52 0.51 0.0 0 1 79.75 90.48   L 79.75 209.75   Q 79.75 210.25 79.25 210.25   L 55.75 210.25   Q 55.25 210.25 55.25 209.75   L 55.25 166.23   Z"
       id="path26"
       style="fill:#ffffff" />
    <path
       d="   M 207.98 89.99   L 275.00 90.00   Q 275.50 90.00 275.50 90.50   L 275.50 150.46   Q 275.50 150.97 275.22 151.40   L 263.05 170.09   A 0.58 0.57 44.6 0 0 263.06 170.73   L 275.24 188.58   Q 275.55 189.02 275.54 189.56   L 275.48 209.76   Q 275.48 210.25 274.99 210.25   L 251.52 210.25   Q 251.05 210.25 251.00 209.78   C 250.76 207.48 251.00 205.68 249.71 203.64   Q 245.61 197.12 241.49 190.66   Q 241.22 190.25 240.74 190.25   L 232.88 190.25   A 0.69 0.68 -90.0 0 0 232.20 190.94   L 232.37 209.81   A 0.43 0.43 0.0 0 1 231.94 210.25   L 208.00 210.25   Q 207.50 210.25 207.50 209.75   L 207.50 90.46   A 0.48 0.47 -0.0 0 1 207.98 89.99   Z   M 249.23 136.37   A 0.33 0.33 0.0 0 0 248.95 135.86   L 232.83 135.99   A 0.33 0.33 0.0 0 0 232.50 136.32   L 232.50 150.42   A 0.33 0.33 0.0 0 0 232.83 150.75   L 239.62 150.75   A 0.33 0.33 0.0 0 0 239.90 150.60   L 249.23 136.37   Z"
       id="path28"
       style="fill:#ffffff" />
    <path
       d="   M 551.75 190.81   L 551.75 209.94   A 0.31 0.31 0.0 0 1 551.44 210.25   L 527.57 210.25   A 0.31 0.31 0.0 0 1 527.26 209.94   L 527.24 127.32   A 0.31 0.31 0.0 0 1 527.29 127.15   L 550.58 89.90   A 0.31 0.31 0.0 0 1 550.84 89.75   L 594.91 89.75   A 0.31 0.31 0.0 0 1 595.22 90.06   L 594.99 209.94   A 0.31 0.31 0.0 0 1 594.68 210.25   L 570.81 210.25   A 0.31 0.31 0.0 0 1 570.50 209.94   L 570.50 190.81   A 0.31 0.31 0.0 0 0 570.19 190.50   L 552.06 190.50   A 0.31 0.31 0.0 0 0 551.75 190.81   Z   M 560.92 130.68   Q 556.24 137.43 552.47 143.74   Q 551.50 145.37 552.16 150.04   Q 552.22 150.50 552.69 150.50   L 569.75 150.50   Q 570.25 150.50 570.25 150.00   L 570.25 131.25   Q 570.25 130.50 569.50 130.50   L 561.25 130.50   A 0.41 0.39 -72.6 0 0 560.92 130.68   Z"
       id="path30"
       style="fill:#ffffff" />
    <rect
       x="91.25"
       y="90.01"
       width="24.50"
       height="120.24"
       rx="0.35"
       id="rect32"
       style="fill:#ffffff" />
    <path
       d="   M 153.64 130.50   L 161.19 130.50   Q 161.71 130.50 161.98 130.06   L 170.99 115.12   Q 171.25 114.68 171.25 114.17   L 171.25 90.75   Q 171.25 90.25 171.75 90.25   L 195.24 90.25   Q 195.76 90.25 195.75 90.77   Q 195.65 109.40 196.08 127.99   C 196.11 129.55 196.01 130.72 195.12 132.09   Q 189.42 140.85 183.73 149.69   A 0.81 0.80 45.5 0 0 183.73 150.56   L 195.72 169.20   Q 196.00 169.63 196.00 170.14   L 196.00 209.75   Q 196.00 210.25 195.50 210.25   L 171.98 210.25   Q 171.47 210.25 171.47 209.74   L 171.51 186.06   Q 171.52 185.43 171.17 184.90   L 161.84 170.68   A 2.01 1.99 72.2 0 0 160.10 169.78   L 153.37 169.98   A 0.65 0.64 89.1 0 0 152.75 170.63   L 152.76 209.65   Q 152.76 210.25 152.16 210.25   L 128.50 210.25   Q 128.00 210.25 128.00 209.75   L 128.00 90.50   Q 128.00 90.00 128.50 90.00   L 152.01 90.00   Q 152.53 90.00 152.53 90.52   L 152.53 129.39   Q 152.53 130.50 153.64 130.50   Z"
       id="path34"
       style="fill:#ffffff" />
    <path
       d="   M 393.86 169.76   L 370.61 132.68   A 0.49 0.49 0.0 0 1 370.54 132.44   L 370.48 130.70   A 0.49 0.49 0.0 0 0 369.95 130.23   L 367.78 130.38   A 0.49 0.49 0.0 0 1 367.25 129.89   L 367.25 90.58   A 0.49 0.49 0.0 0 1 367.74 90.09   L 434.76 90.04   A 0.49 0.49 0.0 0 1 435.25 90.53   L 435.25 129.83   A 0.49 0.49 0.0 0 1 434.76 130.32   L 408.81 130.10   A 0.49 0.49 0.0 0 0 408.39 130.85   L 432.79 170.02   A 0.49 0.49 0.0 0 0 433.20 170.25   L 434.73 170.25   A 0.49 0.49 0.0 0 1 435.22 170.74   L 435.42 209.76   A 0.49 0.49 0.0 0 1 434.93 210.25   L 367.95 210.25   A 0.49 0.49 0.0 0 1 367.46 209.76   L 367.19 170.96   A 0.49 0.49 0.0 0 1 367.68 170.47   L 393.44 170.51   A 0.49 0.49 0.0 0 0 393.86 169.76   Z"
       id="path36"
       style="fill:#ffffff" />
    <path
       d="   M 472.24 170.48   L 472.27 209.82   A 0.43 0.43 0.0 0 1 471.84 210.25   L 447.93 210.25   A 0.43 0.43 0.0 0 1 447.50 209.82   L 447.50 90.43   A 0.43 0.43 0.0 0 1 447.93 90.00   L 471.82 90.00   A 0.43 0.43 0.0 0 1 472.25 90.43   L 472.25 130.07   A 0.43 0.43 0.0 0 0 472.68 130.50   L 490.32 130.50   A 0.43 0.43 0.0 0 0 490.75 130.07   L 490.75 90.68   A 0.43 0.43 0.0 0 1 491.18 90.25   L 515.07 90.25   A 0.43 0.43 0.0 0 1 515.50 90.68   L 515.50 209.82   A 0.43 0.43 0.0 0 1 515.07 210.25   L 491.22 210.25   A 0.43 0.43 0.0 0 1 490.79 209.82   L 491.08 170.74   A 0.43 0.43 0.0 0 0 490.65 170.30   L 472.68 170.05   A 0.43 0.43 0.0 0 0 472.24 170.48   Z"
       id="path38"
       style="fill:#ffffff" />
    <path
       d="   M 355.75 209.98   A 0.27 0.27 0.0 0 1 355.48 210.25   L 287.90 210.25   A 0.27 0.27 0.0 0 1 287.63 209.98   L 287.63 90.52   A 0.27 0.27 0.0 0 1 287.90 90.25   L 355.48 90.25   A 0.27 0.27 0.0 0 1 355.75 90.52   L 355.75 209.98   Z   M 330.75 131.12   A 0.62 0.62 0.0 0 0 330.13 130.50   L 313.37 130.50   A 0.62 0.62 0.0 0 0 312.75 131.12   L 312.75 169.38   A 0.62 0.62 0.0 0 0 313.37 170.00   L 330.13 170.00   A 0.62 0.62 0.0 0 0 330.75 169.38   L 330.75 131.12   Z"
       id="path40"
       style="fill:#ffffff" />
  </g>
  <g
     fill="#000000"
     id="g66">
    <path
       d="   M 34.54 177.89   A 0.41 0.40 31.4 0 0 33.78 178.07   Q 33.60 193.93 34.04 209.68   C 34.10 211.71 33.30 212.73 31.74 213.76   Q 31.38 214.00 30.95 214.00   L 3.31 214.00   A 2.31 2.31 0.0 0 1 1.00 211.69   L 1.00 88.79   A 2.53 2.53 0.0 0 1 3.53 86.26   Q 16.58 86.24 29.99 86.25   C 31.71 86.25 33.61 87.64 33.56 89.24   C 33.42 93.31 32.65 99.87 34.77 103.44   Q 38.31 109.40 42.06 115.17   A 0.44 0.44 0.0 0 0 42.80 115.16   Q 46.19 109.49 49.70 103.98   C 52.87 99.02 47.78 86.18 54.99 86.22   Q 66.67 86.27 78.33 86.23   C 81.30 86.22 83.74 86.25 83.74 90.14   Q 83.76 150.22 83.75 210.32   C 83.75 212.32 82.38 213.98 80.37 213.98   Q 67.31 214.01 54.24 214.00   C 52.57 214.00 51.33 212.16 51.29 210.44   Q 50.99 195.50 51.21 180.50   A 0.41 0.41 0.0 0 0 50.46 180.27   C 49.01 182.51 47.43 186.13 45.18 187.30   C 39.61 190.18 36.47 181.51 34.54 177.89   Z   M 55.25 166.23   L 55.25 209.75   Q 55.25 210.25 55.75 210.25   L 79.25 210.25   Q 79.75 210.25 79.75 209.75   L 79.75 90.48   A 0.52 0.51 0.0 0 0 79.23 89.97   L 55.74 89.97   A 0.79 0.78 90.0 0 0 54.96 90.76   L 55.08 103.16   Q 55.09 103.71 54.80 104.17   L 42.61 123.57   A 0.38 0.38 0.0 0 1 41.97 123.57   L 29.77 103.91   Q 29.50 103.47 29.50 102.95   L 29.50 90.56   Q 29.50 90.13 29.06 90.13   L 5.14 90.22   Q 4.50 90.22 4.50 90.86   L 4.50 209.75   Q 4.50 210.25 5.00 210.25   L 29.24 210.25   Q 29.74 210.25 29.74 209.76   L 29.77 164.78   A 1.03 1.03 0.0 0 1 31.70 164.27   L 42.62 183.36   Q 42.97 183.97 43.33 183.37   L 54.12 165.91   Q 55.25 164.09 55.25 166.23   Z"
       id="path44" />
    <path
       d="   M 566.00 194.50   L 556.51 194.50   Q 555.88 194.50 555.88 195.14   Q 555.99 202.46 556.02 209.62   C 556.03 211.98 554.71 213.98 552.25 213.99   Q 539.81 214.01 527.37 214.00   C 525.03 214.00 523.01 212.70 523.01 210.24   Q 523.00 168.62 523.00 127.00   C 523.00 126.14 523.41 124.97 523.94 124.13   Q 535.19 106.16 546.47 88.20   C 547.54 86.50 548.38 86.02 550.51 86.02   Q 572.54 85.99 594.59 86.00   C 600.55 86.01 598.96 94.24 598.94 98.09   Q 598.66 154.71 598.77 211.34   Q 598.77 211.82 598.49 212.20   Q 597.18 214.02 596.00 214.01   Q 583.21 213.98 570.43 214.02   C 568.56 214.02 567.67 213.47 566.73 211.98   Q 566.50 211.62 566.50 211.18   L 566.50 195.00   Q 566.50 194.50 566.00 194.50   Z   M 551.75 190.81   A 0.31 0.31 0.0 0 1 552.06 190.50   L 570.19 190.50   A 0.31 0.31 0.0 0 1 570.50 190.81   L 570.50 209.94   A 0.31 0.31 0.0 0 0 570.81 210.25   L 594.68 210.25   A 0.31 0.31 0.0 0 0 594.99 209.94   L 595.22 90.06   A 0.31 0.31 0.0 0 0 594.91 89.75   L 550.84 89.75   A 0.31 0.31 0.0 0 0 550.58 89.90   L 527.29 127.15   A 0.31 0.31 0.0 0 0 527.24 127.32   L 527.26 209.94   A 0.31 0.31 0.0 0 0 527.57 210.25   L 551.44 210.25   A 0.31 0.31 0.0 0 0 551.75 209.94   L 551.75 190.81   Z"
       id="path46" />
    <path
       d="   M 119.75 210.70   A 3.28 3.28 0.0 0 1 116.47 213.98   L 90.45 213.98   A 3.28 3.28 0.0 0 1 87.17 210.70   L 87.17 89.54   A 3.28 3.28 0.0 0 1 90.45 86.26   L 116.47 86.26   A 3.28 3.28 0.0 0 1 119.75 89.54   L 119.75 210.70   Z   M 115.75 90.36   A 0.35 0.35 0.0 0 0 115.40 90.01   L 91.60 90.01   A 0.35 0.35 0.0 0 0 91.25 90.36   L 91.25 209.90   A 0.35 0.35 0.0 0 0 91.60 210.25   L 115.40 210.25   A 0.35 0.35 0.0 0 0 115.75 209.90   L 115.75 90.36   Z"
       id="path48" />
    <path
       d="   M 157.10 126.29   Q 158.18 126.98 159.09 125.66   C 161.70 121.88 167.31 114.73 167.28 110.10   Q 167.21 99.76 167.26 89.51   Q 167.27 86.27 171.25 86.38   Q 179.93 86.64 196.25 86.28   Q 199.81 86.20 199.85 90.06   Q 200.04 110.55 199.98 131.04   C 199.97 134.74 191.49 145.82 189.27 149.25   Q 188.70 150.13 189.27 151.01   L 199.66 167.07   Q 199.95 167.51 199.95 168.05   L 200.10 211.18   Q 200.11 211.77 199.69 212.19   L 198.30 213.57   Q 197.88 214.00 197.28 214.00   Q 184.36 214.01 171.44 214.00   C 169.60 214.00 168.69 213.45 167.73 212.01   Q 167.46 211.59 167.47 211.10   Q 167.62 201.81 167.35 192.52   C 167.31 191.16 167.92 188.13 167.01 186.74   C 165.63 184.63 159.57 174.36 157.78 173.78   A 0.79 0.79 0.0 0 0 156.75 174.53   L 156.75 211.21   Q 156.75 211.65 156.50 212.02   C 155.62 213.36 154.68 214.01 152.97 214.01   Q 140.47 213.98 127.97 214.01   C 125.92 214.02 123.98 212.90 123.98 210.71   Q 124.01 150.01 124.00 89.31   C 124.00 87.06 126.10 86.27 128.17 86.27   Q 140.97 86.23 153.76 86.25   C 155.35 86.25 156.48 88.15 156.48 89.77   Q 156.52 107.25 156.49 125.17   A 1.33 1.32 -73.9 0 0 157.10 126.29   Z   M 153.64 130.50   Q 152.53 130.50 152.53 129.39   L 152.53 90.52   Q 152.53 90.00 152.01 90.00   L 128.50 90.00   Q 128.00 90.00 128.00 90.50   L 128.00 209.75   Q 128.00 210.25 128.50 210.25   L 152.16 210.25   Q 152.76 210.25 152.76 209.65   L 152.75 170.63   A 0.65 0.64 89.1 0 1 153.37 169.98   L 160.10 169.78   A 2.01 1.99 72.2 0 1 161.84 170.68   L 171.17 184.90   Q 171.52 185.43 171.51 186.06   L 171.47 209.74   Q 171.47 210.25 171.98 210.25   L 195.50 210.25   Q 196.00 210.25 196.00 209.75   L 196.00 170.14   Q 196.00 169.63 195.72 169.20   L 183.73 150.56   A 0.81 0.80 45.5 0 1 183.73 149.69   Q 189.42 140.85 195.12 132.09   C 196.01 130.72 196.11 129.55 196.08 127.99   Q 195.65 109.40 195.75 90.77   Q 195.76 90.25 195.24 90.25   L 171.75 90.25   Q 171.25 90.25 171.25 90.75   L 171.25 114.17   Q 171.25 114.68 170.99 115.12   L 161.98 130.06   Q 161.71 130.50 161.19 130.50   L 153.64 130.50   Z"
       id="path50" />
    <path
       d="   M 205.40 213.62   C 204.30 212.76 203.50 212.02 203.50 210.47   Q 203.56 150.99 203.40 91.50   Q 203.39 88.97 204.51 86.99   A 1.44 1.44 0.0 0 1 205.77 86.25   Q 241.43 86.24 277.00 86.25   C 278.51 86.25 279.50 88.43 279.50 89.94   Q 279.48 120.01 279.52 150.09   C 279.52 154.95 271.70 165.18 268.81 169.21   A 1.73 1.73 0.0 0 0 268.78 171.17   L 279.27 186.73   Q 279.50 187.07 279.50 187.49   L 279.50 211.20   Q 279.50 211.64 279.26 212.01   C 278.37 213.36 277.43 214.01 275.71 214.01   Q 263.88 213.99 252.04 214.01   C 248.13 214.01 245.95 212.27 246.85 208.24   Q 246.97 207.71 246.68 207.24   L 238.74 194.65   A 1.20 1.19 45.4 0 0 236.73 194.63   C 235.80 196.07 236.51 208.46 236.48 211.07   Q 236.47 211.65 236.06 212.06   L 234.50 213.62   Q 234.13 214.00 233.59 214.00   L 206.51 214.00   Q 205.89 214.00 205.40 213.62   Z   M 207.98 89.99   A 0.48 0.47 -0.0 0 0 207.50 90.46   L 207.50 209.75   Q 207.50 210.25 208.00 210.25   L 231.94 210.25   A 0.43 0.43 0.0 0 0 232.37 209.81   L 232.20 190.94   A 0.69 0.68 -90.0 0 1 232.88 190.25   L 240.74 190.25   Q 241.22 190.25 241.49 190.66   Q 245.61 197.12 249.71 203.64   C 251.00 205.68 250.76 207.48 251.00 209.78   Q 251.05 210.25 251.52 210.25   L 274.99 210.25   Q 275.48 210.25 275.48 209.76   L 275.54 189.56   Q 275.55 189.02 275.24 188.58   L 263.06 170.73   A 0.58 0.57 44.6 0 1 263.05 170.09   L 275.22 151.40   Q 275.50 150.97 275.50 150.46   L 275.50 90.50   Q 275.50 90.00 275.00 90.00   L 207.98 89.99   Z"
       id="path52" />
    <path
       d="   M 359.75 210.44   A 3.56 3.56 0.0 0 1 356.19 214.00   L 287.07 214.00   A 3.56 3.56 0.0 0 1 283.51 210.44   L 283.51 89.98   A 3.56 3.56 0.0 0 1 287.07 86.42   L 356.19 86.42   A 3.56 3.56 0.0 0 1 359.75 89.98   L 359.75 210.44   Z   M 355.75 90.52   A 0.27 0.27 0.0 0 0 355.48 90.25   L 287.90 90.25   A 0.27 0.27 0.0 0 0 287.63 90.52   L 287.63 209.98   A 0.27 0.27 0.0 0 0 287.90 210.25   L 355.48 210.25   A 0.27 0.27 0.0 0 0 355.75 209.98   L 355.75 90.52   Z"
       id="path54" />
    <path
       d="   M 385.96 166.45   A 0.31 0.31 0.0 0 0 386.23 165.98   Q 377.04 151.39 367.95 136.78   C 366.80 134.93 365.14 133.76 363.62 132.12   Q 363.26 131.73 363.26 131.19   Q 363.24 110.59 363.26 90.01   C 363.27 87.16 364.82 86.25 367.54 86.25   Q 401.21 86.24 434.87 86.26   C 437.20 86.26 439.47 87.34 439.47 89.81   Q 439.54 109.65 439.48 129.49   C 439.47 132.86 437.70 134.27 434.35 134.26   Q 425.96 134.24 416.66 134.19   A 0.52 0.52 0.0 0 0 416.21 134.99   L 435.09 165.23   Q 435.38 165.69 435.87 165.92   C 438.19 166.99 439.64 168.46 439.58 171.27   Q 439.11 191.22 439.42 211.17   Q 439.43 211.72 439.03 212.11   L 437.39 213.70   Q 437.09 214.00 436.66 214.00   Q 401.45 214.00 366.25 214.00   C 364.62 214.00 363.26 212.13 363.26 210.41   Q 363.24 190.09 363.25 169.75   C 363.25 167.95 365.50 166.28 367.48 166.25   Q 376.71 166.14 385.96 166.45   Z   M 393.86 169.76   A 0.49 0.49 0.0 0 1 393.44 170.51   L 367.68 170.47   A 0.49 0.49 0.0 0 0 367.19 170.96   L 367.46 209.76   A 0.49 0.49 0.0 0 0 367.95 210.25   L 434.93 210.25   A 0.49 0.49 0.0 0 0 435.42 209.76   L 435.22 170.74   A 0.49 0.49 0.0 0 0 434.73 170.25   L 433.20 170.25   A 0.49 0.49 0.0 0 1 432.79 170.02   L 408.39 130.85   A 0.49 0.49 0.0 0 1 408.81 130.10   L 434.76 130.32   A 0.49 0.49 0.0 0 0 435.25 129.83   L 435.25 90.53   A 0.49 0.49 0.0 0 0 434.76 90.04   L 367.74 90.09   A 0.49 0.49 0.0 0 0 367.25 90.58   L 367.25 129.89   A 0.49 0.49 0.0 0 0 367.78 130.38   L 369.95 130.23   A 0.49 0.49 0.0 0 1 370.48 130.70   L 370.54 132.44   A 0.49 0.49 0.0 0 0 370.61 132.68   L 393.86 169.76   Z"
       id="path56" />
    <path
       d="   M 477.68 174.25   Q 476.35 174.25 476.36 175.75   L 476.48 210.84   Q 476.48 211.38 476.18 211.83   C 475.25 213.23 474.30 213.99 472.47 213.99   Q 459.48 214.01 446.49 214.00   Q 444.96 214.00 443.74 211.85   Q 443.51 211.44 443.50 210.96   Q 443.49 150.14 443.51 89.32   C 443.51 87.16 445.59 86.25 447.62 86.25   Q 459.94 86.26 472.26 86.24   C 474.39 86.24 476.23 87.46 476.23 89.68   Q 476.27 107.47 476.24 124.84   A 1.60 1.60 0.0 0 0 477.85 126.44   L 485.16 126.43   A 1.54 1.54 0.0 0 0 486.70 124.85   Q 486.35 108.35 486.54 91.50   Q 486.60 85.98 491.76 86.24   Q 504.00 86.84 516.25 86.22   C 518.10 86.13 519.49 88.30 519.49 90.19   Q 519.51 150.68 519.50 211.17   Q 519.50 211.65 519.23 212.06   C 518.35 213.37 517.42 214.01 515.73 214.00   Q 503.21 213.99 490.69 214.00   C 488.78 214.00 487.81 213.23 486.94 211.66   Q 486.73 211.30 486.73 210.89   L 486.78 175.24   A 0.99 0.98 -90.0 0 0 485.80 174.25   L 477.68 174.25   Z   M 472.24 170.48   A 0.43 0.43 0.0 0 1 472.68 170.05   L 490.65 170.30   A 0.43 0.43 0.0 0 1 491.08 170.74   L 490.79 209.82   A 0.43 0.43 0.0 0 0 491.22 210.25   L 515.07 210.25   A 0.43 0.43 0.0 0 0 515.50 209.82   L 515.50 90.68   A 0.43 0.43 0.0 0 0 515.07 90.25   L 491.18 90.25   A 0.43 0.43 0.0 0 0 490.75 90.68   L 490.75 130.07   A 0.43 0.43 0.0 0 1 490.32 130.50   L 472.68 130.50   A 0.43 0.43 0.0 0 1 472.25 130.07   L 472.25 90.43   A 0.43 0.43 0.0 0 0 471.82 90.00   L 447.93 90.00   A 0.43 0.43 0.0 0 0 447.50 90.43   L 447.50 209.82   A 0.43 0.43 0.0 0 0 447.93 210.25   L 471.84 210.25   A 0.43 0.43 0.0 0 0 472.27 209.82   L 472.24 170.48   Z"
       id="path58" />
    <path
       d="   M 330.75 169.38   A 0.62 0.62 0.0 0 1 330.13 170.00   L 313.37 170.00   A 0.62 0.62 0.0 0 1 312.75 169.38   L 312.75 131.12   A 0.62 0.62 0.0 0 1 313.37 130.50   L 330.13 130.50   A 0.62 0.62 0.0 0 1 330.75 131.12   L 330.75 169.38   Z   M 326.75 135.38   A 0.87 0.87 0.0 0 0 325.88 134.51   L 317.62 134.51   A 0.87 0.87 0.0 0 0 316.75 135.38   L 316.75 165.02   A 0.87 0.87 0.0 0 0 317.62 165.89   L 325.88 165.89   A 0.87 0.87 0.0 0 0 326.75 165.02   L 326.75 135.38   Z"
       id="path60" />
    <path
       d="   M 560.92 130.68   A 0.41 0.39 -72.6 0 1 561.25 130.50   L 569.50 130.50   Q 570.25 130.50 570.25 131.25   L 570.25 150.00   Q 570.25 150.50 569.75 150.50   L 552.69 150.50   Q 552.22 150.50 552.16 150.04   Q 551.50 145.37 552.47 143.74   Q 556.24 137.43 560.92 130.68   Z   M 565.93 134.55   C 562.82 133.94 558.04 143.07 556.54 145.47   A 0.74 0.74 0.0 0 0 557.18 146.60   L 565.45 146.45   A 0.73 0.73 0.0 0 0 566.17 145.74   L 566.46 135.21   Q 566.48 134.66 565.93 134.55   Z"
       id="path62" />
    <path
       d="   M 249.23 136.37   L 239.90 150.60   A 0.33 0.33 0.0 0 1 239.62 150.75   L 232.83 150.75   A 0.33 0.33 0.0 0 1 232.50 150.42   L 232.50 136.32   A 0.33 0.33 0.0 0 1 232.83 135.99   L 248.95 135.86   A 0.33 0.33 0.0 0 1 249.23 136.37   Z   M 237.57 139.72   A 0.97 0.96 -87.1 0 0 236.50 140.69   L 236.51 146.44   A 0.38 0.38 0.0 0 0 237.21 146.65   L 241.11 140.85   Q 241.58 140.15 240.74 140.06   L 237.57 139.72   Z"
       id="path64" />
  </g>
</svg>
