<?xml version="1.0" encoding="UTF-8" standalone="no"?>
<!-- Created by ERK -->

<svg
   width="5000mm"
   height="2500mm"
   viewBox="0 0 5000 2500"
   version="1.1"
   id="svg1"
   inkscape:version="1.3.2 (091e20e, 2023-11-25, custom)"
   sodipodi:docname="model2-w.svg"
   xmlns:inkscape="http://www.inkscape.org/namespaces/inkscape"
   xmlns:sodipodi="http://sodipodi.sourceforge.net/DTD/sodipodi-0.dtd"
   xmlns="http://www.w3.org/2000/svg"
   xmlns:svg="http://www.w3.org/2000/svg">
  <sodipodi:namedview
     id="namedview1"
     pagecolor="#ffffff"
     bordercolor="#000000"
     borderopacity="0.25"
     inkscape:showpageshadow="2"
     inkscape:pageopacity="0.0"
     inkscape:pagecheckerboard="true"
     inkscape:deskcolor="#d1d1d1"
     inkscape:document-units="mm"
     inkscape:zoom="0.10294919"
     inkscape:cx="9441.5507"
     inkscape:cy="4657.6374"
     inkscape:window-width="2560"
     inkscape:window-height="1351"
     inkscape:window-x="-9"
     inkscape:window-y="-9"
     inkscape:window-maximized="1"
     inkscape:current-layer="svg1" />
  <defs
     id="defs1">
    <linearGradient
       id="path2694_00000114031621549950431030000016908671293815337642_"
       gradientUnits="userSpaceOnUse"
       x1="9578.7266"
       y1="3841.907"
       x2="9584.3164"
       y2="3841.907"
       gradientTransform="matrix(661.2057,0,0,-176.4121,-6333154.3,679565.44)">
      <stop
         offset="0"
         style="stop-color:#002F9E"
         id="stop15" />
      <stop
         offset="0.4013"
         style="stop-color:#2B89A2"
         id="stop16" />
      <stop
         offset="1"
         style="stop-color:#FFFFFF"
         id="stop17" />
    </linearGradient>
    <linearGradient
       id="path2796_00000129915079507725507360000007210173760882724533_"
       gradientUnits="userSpaceOnUse"
       x1="9503.3398"
       y1="3740.3162"
       x2="9508.9287"
       y2="3740.3162"
       gradientTransform="matrix(0,125.8848,175.5626,0,-653470.23,-1195269.8)">
      <stop
         offset="0"
         style="stop-color:#F7ED18"
         id="stop20" />
      <stop
         offset="1"
         style="stop-color:#F4134B"
         id="stop21" />
    </linearGradient>
    <linearGradient
       id="path2824_00000002365732031018715190000005015035672075230652_"
       gradientUnits="userSpaceOnUse"
       x1="9503.3379"
       y1="3727.1367"
       x2="9508.9258"
       y2="3727.1367"
       gradientTransform="matrix(0,125.8851,146.2225,0,-542684.41,-1195273.1)">
      <stop
         offset="0"
         style="stop-color:#F7ED18"
         id="stop23" />
      <stop
         offset="1"
         style="stop-color:#F4134B"
         id="stop24" />
    </linearGradient>
    <linearGradient
       id="path2852_00000023988166612383122220000003796106833670384272_"
       gradientUnits="userSpaceOnUse"
       x1="9503.2441"
       y1="3744.5759"
       x2="9508.834"
       y2="3744.5759"
       gradientTransform="matrix(0,125.8848,239.3265,0,-894933.85,-1195269.8)">
      <stop
         offset="0"
         style="stop-color:#F7ED18"
         id="stop26" />
      <stop
         offset="1"
         style="stop-color:#F4134B"
         id="stop27" />
    </linearGradient>
  </defs>
  <g
     id="g2"
     inkscape:label="Logo"
     transform="translate(298.9,-49.749805)">
    <path
       class="st0"
       d="m 1383.15,483.1 c -13.3,-42.1 -52.9,-72 -98.4,-72 -45.5,0 -85.2,30 -98.4,72 l -34.9,103.1 v -169 h -182.4 c -32.4,0 -62.4,13.3 -85.2,34.8 v -34.8 h -187.3 c -34.8,0 -65.9,14.5 -88.9,38.4 v -38.4 h -177.4 c -75.6,0 -138,62.4 -138,138 0,36 14.5,69.6 37.2,93.6 h -37.2 v 160.8 h 177.6 c 50.5,0 93.6,-26.3 118.8,-67.2 20.4,39.6 61.2,67.2 109.2,67.2 h 188.3 v -34.8 c 21.6,21.6 51.6,34.8 85.2,34.8 h 520.8 z"
       id="path1"
       inkscape:label="SegaOutline"
       style="display:inline;fill:#ffffff" />
    <path
       id="path2"
       class="st1"
       d="m 1283.5504,438.80078 c -34.8,0 -63.5,22.8 -72,54 l -87.5996,256.79883 v -188.5 H 991.95078 v 46.80078 h 86.39842 V 735.19922 H 970.45078 c -26.3,0 -46.80078,-21.59883 -46.80078,-46.79883 v -150 c 0,-26.3 21.60078,-46.80078 46.80078,-46.80078 H 1125.2496 V 444.80078 H 969.15 c -51.6,0 -93.59961,42.09961 -93.59961,93.59961 v 150 C 875.55039,740.00039 917.65,782 969.15,782 h 193.1992 l 97.2012,-282 c 3.6,-10.8 13.2996,-18 25.0996,-18 12,0 21.5996,7.2 25.0996,18 l 79.2012,235.30078 h -124.6016 v 46.79883 h 189.7012 L 1356.7496,494 c -9.6,-31.2 -38.3992,-55.19922 -73.1992,-55.19922 z m -586.9004,6 c -51.6,0 -93.59961,42.09961 -93.59961,93.59961 v 150 C 603.05039,740.00039 645.15,782 696.65,782 H 857.45078 V 735.30078 L 696.65,735.19922 c -26.3,0 -46.80078,-21.59883 -46.80078,-46.79883 v -150 c 0,-26.3 21.60078,-46.80078 46.80078,-46.80078 H 857.45078 V 444.80078 Z M 430.15,445 c -61.2,0 -110.5,49.3 -110.5,110.5 0,61.2 49.3,110.5 110.5,110.5 h 38.40039 c 3.6,0 6,2.5 6,6 0.1,3.2 -2.30117,5.59961 -4.70117,5.59961 h -150 V 724.5 h 150 c 28.8,0 52.90039,-24.00039 52.90039,-52.90039 0,-28.9 -24.00039,-52.90039 -52.90039,-52.90039 h -38.5 c -34.8,0 -63.5,-28.8 -63.5,-63.5 0,-34.7 28.8,-63.5 63.5,-63.5 H 580.15 V 445 Z m 854.5,48 c -6,0 -12,4.79961 -14.5,9.59961 l -96,279.59961 h 55.1992 l 33.6016,-99.59961 v 42.09961 l 1.3984,-0.19922 h 109.2012 L 1299.15,503.80078 c -2.5,-6 -7.2,-10.80078 -14.5,-10.80078 z m -854.40039,9.30078 c -28.8,0 -52.90039,23.99844 -52.90039,52.89844 0,28.9 24.00039,52.90039 52.90039,52.90039 H 468.65 c 34.8,0 63.5,28.8 63.5,63.5 0,34.7 -28.8,63.5 -63.5,63.5 H 319.95078 v 46.80078 h 150 c 61.2,0 110.5,-49.3 110.5,-110.5 0,-61.2 -49.3,-110.30078 -110.5,-110.30078 h -38.5 c -3.6,0 -6,-2.5 -6,-6 0.1,-2.4 2.39883,-4.79883 4.79883,-4.79883 h 150 v -48 z m 266.40039,0 c -20.4,0 -36,15.6 -36,36 v 69.59961 H 823.84922 V 561.09961 H 707.45078 c 0,-6 4.79883,-10.79883 10.79883,-10.79883 h 138 v -48 z m 272.40039,0.0996 c -20.4,0 -36,15.6 -36,36 v 150 c 0,20.4 15.6,36 36,36 h 97.19921 V 618.59961 H 991.84922 V 665.5 h 27.60158 v 10.80078 h -27.60158 c -6,0 -10.79883,-4.80078 -10.79883,-10.80078 V 560 c 0,-6 4.79883,-10.80078 10.79883,-10.80078 H 1125.0504 V 502.40039 Z M 660.65,620 v 69.5 c 0,20.4 15.6,36 36,36 H 857.45078 V 678.69922 H 718.24961 c -5.9,-1.1 -10.79883,-5.99844 -10.79883,-11.89844 H 823.84922 V 620 Z m 622.9004,3.59961 15.5996,48 h -32.5 z"
       inkscape:label="Sega"
       style="fill:#034693" />
    <path
       class="st0"
       d="m 553.65,2322.2 c -19.1,0 -36,-4.6 -50.5,-13.7 -11.3,-7.2 -20.6,-16.6 -27.6,-28.2 -5.7,-9.3 -12.9,-20 -21.3,-32.4 l -3.8,-5.6 -2.1,-3 c -29.7,-43.7 -70.4,-103.6 -101.7,-174.9 -17.3,-39.5 -30.1,-79.2 -38.3,-117.9 -9.5,-45.5 -12.6,-91.2 -9.1,-135.8 1.3,-17 8.9,-32.2 22.5,-45.3 10.8,-10.5 23.7,-17.9 35,-23.8 18.6,-9.7 43,-19.9 74.8,-31.3 57.1,-20.4 127.5,-41.1 179,-56.2 l 9.8,-2.9 c 2,-0.6 4.1,-1.2 6.1,-1.8 -0.5,-1.5 -1,-3.1 -1.4,-4.6 -5.3,-18.5 -6.1,-36.7 -2.4,-54 3.7,-17.5 11.9,-33.5 24.5,-47.7 16.8,-19 37.6,-30.9 57.8,-42.5 l 0.6,-0.3 0.2,-0.1 c 0.2,-0.2 0.5,-0.3 0.8,-0.5 l 1.6,-0.9 c 11.7,-6.7 26.3,-15 31.3,-21 0,0 0.1,-0.1 0.1,-0.1 18.1,-21.4 40.7,-36.6 67.3,-45 24.3,-7.8 48.3,-8.7 64.3,-8.7 21,0 42.4,2 65,4.1 v 0 c 0.3,0 0.6,0 0.9,0 0,0 1.3,0.1 1.3,0.1 l 1,0.1 c 18.9,1.7 38.3,3.5 58.4,4.2 121.1,-148.6 254,-297.2 356.6,-410.5 36.1,-39.9 74.7,-83.6 121.5,-136.9 0,0 3.3,-3.7 3.3,-3.7 68.1,-77.4 138.5,-157.4 197.5,-219.3 97.5,-102.3 131.7,-121 163.8,-121 1.3,0 3.7,0 6.5,0.5 32.2,2.7 58.8,17.3 76.8,42.3 15.6,21.7 23.5,49.8 23.6,83.8 0,1.6 0,3.2 0,4.9 13.4,-32.3 28.6,-59.9 46.7,-85.1 20.8,-28.9 46,-55 76.9,-79.6 3.1,-23.1 11.9,-45.2 25.8,-64 16,-21.9 38.5,-39.3 65,-50.3 31.1,-12.8 62.2,-19.2 92.4,-19.2 22.3,0 44.5,3.6 66.1,10.6 3.2,-9.4 7.3,-18.2 12.3,-26.5 25.9,-43.2 72.6,-69 138.9,-76.9 20.4,-2.5 40.1,-3.8 58.5,-3.8 52.2,0 93.2,10.9 121.9,32.4 10.5,7.7 19.3,16.7 26.3,26.7 26.2,1.8 61.6,8.2 94.7,26.9 35.9,20.3 62.7,51.7 77.8,91 54.9,27 107.5,56.7 150,114 45.5,61.2 55.5,140.7 29.1,229.8 -6,20.1 -22.5,34.9 -43,38.7 -0.5,0.1 -1,0.2 -1.5,0.2 -3.2,0.4 -5.8,0.6 -8.4,0.6 -17.3,0 -33.8,-8.2 -44.1,-21.8 l -36.3,-47.6 c 2.1,20.5 3.2,43.6 1.4,66.4 -3.5,44 -17.2,81.9 -41.8,115.8 -3.7,5.1 -8.3,9.5 -13.4,13 1.5,2.5 2.9,5 4.3,7.5 39.7,-23.2 85.8,-35.8 134.4,-36.5 0.1,0 4.4,0 4.4,0 51.9,0 95.4,13 129.1,38.6 34.2,26.1 55.2,63 60.8,106.7 7.7,59.1 1.4,110.6 -19.6,161.9 -7.5,18.5 -17,37.2 -29.7,58.6 40.1,-0.8 80.5,-1.3 120.5,-1.3 20.7,0 42.8,0.2 67.7,0.5 126.2,-34.1 260,-59.4 283.2,-60.9 6.6,-0.5 13.4,-0.7 20.9,-0.7 15.7,0 28.7,1.6 39.7,4.9 35.4,10.7 44.7,37.5 47,48.6 0,0 0,0.1 0,0.1 1.4,6.6 2.3,17.5 -1.3,29.9 20.1,2.2 40,4.5 59.5,6.9 125.5,15.9 199.8,33.3 235.5,41.7 l 4.3,1 c 1.6,0.4 3.1,0.7 4.4,1 2.6,0.6 4.8,1.1 6.3,1.4 58.5,11.7 93.6,42.7 93.7,83 0,7.2 -1.4,21.3 -10.6,35.4 -11.1,16.7 -28.8,27.7 -52.7,32.6 -44.3,9.1 -137.5,19.4 -266.5,33.7 l -0.6,0.1 c -0.3,0 -0.5,0.1 -0.8,0.1 l -1.2,0.1 c -199.4,22 -471.2,52 -742.7,97.6 5.1,44.3 9.7,89.6 13.8,134.9 137.6,28.4 278.4,130.9 333.5,174.5 18.4,14.5 25.7,39.2 18,61.5 -7.5,22.2 -28.6,37.2 -52.2,37.2 h -1278.1 c -26.1,0 -48.9,-18.5 -54.2,-44.1 -2.7,-12.4 -0.9,-25.4 4.9,-36.7 5.7,-11.2 15.3,-20.2 27,-25.4 120,-52.4 246.8,-93.9 376.8,-123.2 110.1,-24.7 222,-40.7 332.9,-47.6 0.7,-14.6 1.6,-33.3 2.5,-54.6 -4.6,-0.7 -8.9,-1.9 -13,-3.4 -8.7,-3.2 -17,-7.4 -24.6,-12.4 -0.1,-0.1 -0.2,-0.1 -0.3,-0.2 -51.7,11.6 -126.2,27.7 -221.4,48.1 l -1.2,0.3 c -163.7,35.2 -366.1,78.7 -559.4,122.9 12.8,27.2 15.9,54.5 8.8,79.5 -5.4,18.7 -19,44.8 -53.4,63.5 -18.9,10.3 -36.7,15.3 -54.4,15.3 -20.2,0 -36.2,-6.8 -45.7,-10.8 l -0.4,-0.2 c -8.6,-3.7 -12.3,-5.2 -19.7,-5.2 -2.6,0 -5.6,0.2 -9.1,0.7 -4.6,0.6 -9.4,0.9 -14.4,0.9 -12.7,0 -38.3,-2.2 -66.9,-17 -23,-11.8 -43,-29 -59.4,-51.1 -362,93.5 -764.6,249 -922,311.9 -0.5,0.2 -0.9,0.3 -1.4,0.5 l -0.8,0.3 c -8.6,3.5 -17.8,7.2 -28.8,11.9 -0.2,0.1 -0.4,0.2 -0.6,0.3 -43.4,17.9 -80.7,33.5 -115.8,33.5 z m 836.9,-869.8 c 0.4,0 0.9,0 1.3,0.1 11.6,1.2 21.2,2.2 30.2,3 30.7,-5.4 64.6,-11 103.2,-17.1 3.9,-71.8 10.7,-141.7 20.7,-212.1 -67.3,76.8 -129.3,150.2 -188,222.8 10,1 19.5,2 28.2,2.9 z m 484.2,-238.7 c -0.8,51.8 -1.8,115.3 -1.7,174.3 69.2,-8.7 136.3,-16 209.7,-23 14.9,-1.5 30.7,-3 48,-4.5 62.5,-79.5 170.3,-212.9 221.3,-253.5 23.8,-19 46.3,-28.3 68.6,-28.3 8.6,0 21.6,1.5 35.1,8.5 15.2,7.9 27.3,20.7 35.9,38 7.3,14.5 9.8,28.5 11.5,37.8 l 0.1,0.5 c 0.6,3.2 1.4,7.9 2,9.5 8.3,15.3 9.8,32.4 4.9,57 -0.5,2.4 -1,5 -1.6,7.6 8,-8.1 15.9,-15.6 23.4,-22.4 24.1,-22 45,-37.1 63.8,-46.2 19.8,-9.7 33.6,-10.8 42.3,-10.8 4.5,0 8.7,0.4 12.8,1.1 10.6,1.8 20.3,5.2 29,10.1 5.7,-10.7 13.3,-20.5 21.6,-30.1 -29.1,-66.2 -72.5,-144.6 -121.1,-219.3 -5.5,8 -11.7,15.3 -18.5,21.7 -22.2,20.8 -50.3,31.7 -81.1,31.7 -9.6,0 -19.6,-1.1 -29.8,-3.2 0,0 -0.1,0 -0.1,0 -39.6,-8.5 -72.6,-31.8 -92.7,-65.5 -3,-5 -5.6,-10.1 -7.9,-15.4 0,0 -1.9,3 -1.9,3 -2.6,4 -5.7,7.7 -9.2,11 1.9,7.1 2.3,14.5 1.3,22 l -3.7,25.9 c -1.4,9.4 -5.1,18.2 -10.7,25.5 3.8,8 5.6,16.8 5.2,25.6 l -2.2,62.5 c -0.5,16.2 -8.1,31.4 -20.8,41.5 -9.8,7.8 -22,12.1 -34.4,12.1 -3.4,0 -7.1,-0.4 -10.7,-1.1 0,0 -0.1,0 -0.1,0 -38.3,-7.7 -74.6,-32.8 -102.2,-70.8 -27.5,-38.1 -43.9,-85.4 -47.3,-136.8 -0.2,-3 -0.4,-6 -0.5,-9.1 -0.6,0.5 -1.2,1 -1.8,1.4 0.7,6.6 0.3,13.2 -1.4,19.7 l -16.4,64.4 c -4.9,19.1 -19.8,34.3 -38.8,39.5 -0.6,0.2 -1.1,0.3 -1.7,0.4 -4.6,1 -8.9,1.6 -13,1.6 -14.8,0 -28.7,-5.7 -39.1,-16.1 -36.8,-36.6 -63.6,-86.8 -75.5,-141.5 -3.6,-16.4 -5.8,-33 -6.7,-49.6 -22.2,103 -41.7,226.3 -42.8,325.4 -0.1,7.1 -0.2,14.6 -0.3,22.3 v 2.1 c -0.2,13.3 -0.4,27.1 -0.7,41.6 -0.1,0.2 -0.1,1.8 -0.1,1.9 z m 849,75.7 c -0.5,4 -1.1,8.1 -1.8,12.3 -0.9,5.6 -2,11.3 -3.3,17.4 4.8,-0.3 26.2,-1.6 32.1,-1.9 -0.8,-7 -1.7,-13.9 -2.6,-20.6 -8.5,-1.3 -16.7,-3.7 -24.4,-7.2 z m 220.1,-101 c 1.3,4.1 2.6,8.2 4,12.5 0.2,-5.3 -0.2,-9.4 -1.2,-11.9 -0.6,-0.2 -1.5,-0.4 -2.8,-0.6 z"
       id="path13"
       style="display:inline;fill:#ffffff"
       inkscape:label="LogoOutline1" />
    <path
       id="path2658_00000106147362722864042910000010904567407532358077_"
       class="st2"
       d="m 2505.35,728.8 c 73.5,75.8 250.3,337.4 288.5,509.4 42.3,190.2 12.8,615.6 12.8,615.6 l 97.2,29.8 91.7,-29.8 c 0,0 -31.8,-460.6 -116.7,-683.5 -43.1,-113 -118.9,-282.3 -307.6,-441.4 -53.3,-54.8 -61.7,-31.1 -65.9,-0.1 z"
       style="display:inline;fill:#aa9644"
       inkscape:label="PalmTrunk" />
    <path
       id="path2660_00000166664195698185406230000017721332505249560215_"
       class="st3"
       d="m 2641.05,391.2 c 57.4,-4.3 142.2,10.6 163.5,101.9 61.5,29.7 112,54.8 151.2,107.7 48.8,65.8 31.3,144.8 20.5,181.1 l -50.8,-66.5 c 4.8,-28.6 -10.7,-59.1 -10.7,-59.1 0,0 -19.5,24.2 -28.9,35.3 -22,-16.3 -66.3,-43.7 -67,-43.1 23.9,116.2 43,199.1 -8,269 l -11.2,-36.6 c 1.6,-25.4 8,-68.4 8,-68.4 l -35,31.8 -17.5,-20.7 c 14.4,-28.6 9,-71.7 9,-71.7 l -45.6,35 -22.3,-23.4 c 5.3,-30.8 -8.5,-65.8 -8.5,-65.8 l -34,41.4 c -34,-13.9 -86,-17 -151.7,-4.3 -34.6,6.7 -106.1,30.8 -134.7,43.6 l -37.1,-36 c 0,0 -4.3,32.9 3.2,69 l -32,51.5 -38.5,-22.6 c 0,0 0.5,53 22.8,77.3 l -3.7,25.8 -31.4,-17.4 c 0,0 0,45.6 25.4,74.2 l -2.1,62.6 c -47.8,-9.6 -99,-68.7 -105,-157.1 -7.4,-109.3 58.3,-191 58.3,-191 0,0 -38.2,4.3 -77.5,38.2 l -44.6,-31.8 c 0,0 -6.4,26.5 8.5,67.9 l -36,69 -41.4,-31.9 c 0,0 -10.7,24.4 20.1,81.8 l -16.4,64.3 c -59.8,-59.5 -83.8,-161.2 -52.7,-250 27.6,-78.6 63.6,-133.7 137.9,-186.8 -4.3,-42.5 21.2,-76.4 57.3,-91.4 80.2,-33 140.1,-6.4 182.5,27.6 2.2,-38.1 -12.8,-120.9 112.5,-135.7 135.9,-16 161.5,29.8 163.6,55.3 z"
       style="display:inline;fill:#199a40"
       inkscape:label="PalmCanopy" />
    <path
       id="path2662_00000048477093768714684840000000044502678779236256_"
       class="st4"
       d="m 3345.15,2008.6 h -1277.5 c 240.9,-105.1 498.5,-160.9 747.9,-169.2 h 183.4 c 117.3,10.4 257.5,99 346.2,169.2 z"
       style="display:inline;fill:#d4bf7c"
       inkscape:label="Island" />
    <path
       id="path2664_00000008139853906810429490000013632671239482037136_"
       class="st5"
       d="m 2513.15,734.6 c 25.4,11.2 52.6,79.6 33.5,130.6 -11.3,30 -35.1,61.4 -84.4,51 -52.6,-11.2 -77.6,-61.5 -65.2,-103.4 15.8,-54.4 76.4,-95.6 116.1,-78.2 z"
       style="display:inline;fill:#f4134b"
       inkscape:label="Coconut" />
    <path
       id="path15"
       style="display:inline"
       d="m 2529.5504,302.09961 c -17,0 -35.5996,1.19961 -55.5996,3.59961 -58.3,6.9 -98.9016,28.8 -120.6016,65 -9.3,15.6 -13.9988,32.10039 -16.2988,47.40039 -26.9,-13 -54.8008,-19.40039 -83.3008,-19.40039 -27,0 -54.9004,5.80039 -82.9004,17.40039 -45.6,18.8 -74.1996,58.50078 -76.5996,104.30078 -32.9,25 -59.2,51.79922 -80.5,81.19922 -22.1,30.8 -39.8,65.90117 -55.5,110.70117 -17,48.5 -20.1004,101.19922 -8.9004,152.69922 10.9,50.1 35.3008,95.90078 68.8008,129.30078 5.8,5.80002 13.6996,8.89842 21.5996,8.89842 2.8,0 5.3996,-0.3996 8.0996,-1.0996 10.6,-2.99999 18.8,-11.30038 21.5,-21.90038 l 16.4004,-64.29883 c 1.9,-7.4 0.9008,-15.3 -2.6992,-22 -0.9,-1.7 -1.7996,-3.40039 -2.5996,-4.90039 1.2,-0.1 2.3,-0.29961 3.5,-0.59961 8.8,-2 16.4,-7.70117 20.5,-15.70117 l 36,-69 c 3.3,-6.2 4.2984,-13.49922 2.8984,-20.19922 2,0.4 4.1016,0.59961 6.1016,0.59961 2.4,0 4.6984,-0.29883 6.8984,-0.79883 -12.5,34.4 -21.5984,77.29961 -18.3984,125.09961 3.2,47 17.9992,89.9 42.6992,124.00001 23.8,32.9 54.7,54.6 87,61 2,0.4 4.1,0.5996 6,0.5996 6.8,0 13.6,-2.2996 19,-6.5996 7,-5.6 11.2996,-14.1 11.5996,-23 l 2.2012,-62.5996 c 0.3,-7.90002 -2.5012,-15.50041 -7.7012,-21.40041 -2.2,-2.5 -4.1988,-5.19961 -5.7988,-8.09961 0.8,-0.3 1.7,-0.70156 2.5,-1.10156 9,-4.6 15.1992,-13.19961 16.6992,-23.09961 l 3.6992,-25.79883 c 1.3,-9.1 -1.5992,-18.20039 -7.6992,-24.90039 -1,-1.1 -1.9008,-2.30078 -2.8008,-3.80078 8.8,-1.2 16.9004,-6.09922 21.9004,-14.19922 l 32,-51.5 c 3.5,-5.6 4.9996,-12.20117 4.5996,-18.70117 0.8,0.1 1.6004,0.20117 2.4004,0.20117 -6.6,27.7 -2.0004,57.60039 13.0996,82.90039 16.6,27.8 43.9016,47 76.6016,54 8.5,1.8 16.8992,2.69922 24.6992,2.69922 24.4,0 46.6996,-8.7 64.0996,-25 12.9,-12.1 23.1004,-28.10078 30.4004,-47.80078 0.6,-1.7 1.3008,-3.49961 1.8008,-5.09961 76.4,111.4 162.5,264.29959 187,374.09959 33.5,150.5 20.4996,456.8012 14.5996,565.7012 -117.3,5.9 -235.2,22.1988 -351,48.2988 -128.2,28.9 -253.4008,69.9008 -372.3008,121.8008 -13.4,5.8 -20.5992,20.1008 -17.6992,34.3008 3,14.3 15.5,24.3984 30,24.3984 h 1277.6992 c 13.1,0 24.6004,-8.3 28.9004,-20.5 4.3,-12.4 0.3,-25.8996 -10,-34.0996 -58.4,-46.2 -204.4992,-151.7004 -341.1992,-172.9004 -4.7,-54.7 -14.2012,-154.4996 -29.7012,-265.5996 -23.9,-169.9 -52.7988,-299.8992 -85.7988,-386.6992 -24.1,-63.1 -55.7008,-135.6004 -103.8008,-211.9004 0.7,0.2 1.5008,0.3 2.3008,0.5 1.7,0.3 3.4,0.40039 5,0.40039 9.7,0 18.9992,-4.70117 24.6992,-12.70117 46.9,-64.4 43.0992,-136.39883 27.1992,-222.79883 1.7,1.2 3.3004,2.4 4.9004,3.5 5.4,4.1 11.9012,6 18.2012,6 3.3,0 6.4,-0.5 9.5,-1.5 0.8,4.8 2.7988,9.40039 5.7988,13.40039 l 50.8008,66.5 c 5.8,7.7 14.9004,12.09961 24.4004,12.09961 1.9,0 3.7,-0.2 5.5,-0.5 11.4,-2.1 20.4988,-10.40039 23.7988,-21.40039 24.1,-81.4 15.4008,-153.29922 -25.1992,-208.19922 -41.6,-56 -94.0996,-83.8 -150.0996,-111 -12.3,-38.2 -36.2,-68.20078 -70,-87.30078 -33.5,-18.9 -70.3008,-23.80078 -96.8008,-24.30078 -6,-11.9 -15.0992,-22.4 -26.6992,-31 -24.7,-18.5 -60.8004,-27.59961 -107.4004,-27.59961 z m 0,30.59961 c 90.7,0 109.7,36.7 111.5,58.5 5.5,-0.4 11.4004,-0.69922 17.4004,-0.69922 55.8,0 126.9,20.1 146,102.5 61.5,29.7 111.9992,54.79922 151.1992,107.69922 48.8,65.8 31.3,144.80156 20.5,181.10156 l -50.8008,-66.5 c 4.8,-28.6 -10.6992,-59.10156 -10.6992,-59.10156 0,0 -19.5004,24.20078 -28.9004,35.30078 -21.7,-16.1 -65.3,-43.09961 -67,-43.09961 23.9,116.2 43,199.1 -8,269 l -11.1992,-36.59961 c 1.6,-25.4 8,-68.40039 8,-68.40039 l -35,31.79883 -17.5,-20.69922 c 14.4,-28.6 9,-71.69922 9,-71.69922 l -45.5996,35 L 2696.15,763.5 c 5.3,-30.8 -8.5,-65.69922 -8.5,-65.69922 l -34,41.39844 c -19.3,-7.9 -44.3996,-12.29883 -74.5996,-12.29883 -3.2,0 -6.2996,-3.9e-4 -9.5996,0.0996 l 1.5996,1.59961 c 188.9,159.1 264.6992,328.3004 307.6992,441.4004 76.1,199.9 109.6012,590.6008 115.7012,669.3008 h 4.3984 c 117.5,10.3 257.6008,98.8992 346.3008,169.1992 h -1277.5 c 238.4,-104 493,-159.6008 740,-168.8008 4.6,-74.1 24.2008,-431.6996 -13.6992,-601.5996 -33,-148.1 -168.8016,-362.90038 -252.6016,-467.90038 11.6,27 16.9004,64.00078 5.4004,94.80078 -9.8,25.9 -28.8988,53.09961 -65.7988,53.09961 -5.7,0 -11.9,-0.69961 -18.5,-2.09961 -52.6,-11.2 -77.6012,-61.50039 -65.2012,-103.40039 6.9,-23.7 22.4996,-44.89883 41.0996,-59.79883 -27.7,8.9 -55.3988,18.99883 -70.7988,25.79883 l -37.2012,-36.19922 c 0,0 -4.2988,32.9 3.2012,69 l -32,51.5 -38.5,-22.59961 c 0,0 0.4988,52.99883 22.7988,77.29883 L 2282.15,943.40039 2250.7496,926 c 0,0 4e-4,45.59922 25.4004,74.1992 l -2.1992,62.6016 c -47.8,-9.6 -99,-68.70158 -105,-157.10158 -7.4,-109.3 58.2988,-191 58.2988,-191 0,0 -38.2,4.30117 -77.5,38.20117 l -44.5,-31.80078 c 0,0 -6.3,26.50039 8.5,67.90039 l -36,69 -41.4004,-31.90039 c 0,0 -10.5984,24.40078 20.1016,81.80078 l -16.4004,64.29883 c -59.8,-59.5 -83.8012,-161.2 -52.7012,-250 27.5,-78.6 63.6004,-133.69883 137.9004,-186.79883 -4.3,-42.5 21.2008,-76.40039 57.3008,-91.40039 25.8,-10.7 49.5988,-15.09961 71.2988,-15.09961 45.7,0 82.5008,19.59922 111.3008,42.69922 2.1,-38.2 -12.7996,-121.09883 112.4004,-135.79883 19.7,-2 36.8,-3.10156 52,-3.10156 z m 172.0996,480 c 5,3.3 10.9008,5 16.8008,5 2.3,0 4.5992,-0.29883 6.6992,-0.79883 -2.1,9.3 0.2,19.1 6.5,26.5 l 17.5,20.69922 c 5.1,6 12.3996,9.90117 20.0996,10.70117 -0.1,1.5 -0.1988,2.89883 -0.2988,4.29883 -0.2,3.7 0.1988,7.30039 1.2988,10.90039 l 4.5,14.40039 c -21.4,-30.3 -45.4996,-60.90117 -73.0996,-91.70117 z"
       inkscape:label="PalmTreeOutline" />
    <path
       d="m 3246.2496,1354 c -108.9,0 -230.6004,3.2992 -366.4004,11.1992 -745.1,43 -926.6,62.1012 -1323,124.2012 -396.3,62.1 -625.49998,124.1996 -873.99998,200.5996 -96.7,29.7 -325.79844,90.5992 -328.39844,124.6992 -15.3,200 119.39922,357.0012 168.19922,436.7012 6.7,10.9 17.20078,15.4004 30.80078,15.4004 30.2,0 75.19922,-22.1004 124.69922,-41.9004 71.7,-28.7 536.1,-215.1 950.5,-320 358.2,-90.8 890.3992,-199.8996 1084.1992,-243.5996 530.3,-119.4 1187.8012,-163.8008 1319.7012,-191.3008 36.7,-7.8 17.7004,-33.2008 -30.0996,-42.8008 -39.1,-7.9 -267.0012,-73.1992 -756.2012,-73.1992 z"
       style="display:inline;fill:url(#path2694_00000114031621549950431030000016908671293815337642_)"
       id="path4"
       inkscape:label="LogoBackground" />
    <path
       d="m 3246.25,1354 c 489.2,0 717.1,65.3 756.2,73.2 47.8,9.6 66.8,35 30.1,42.8 -131.9,27.5 -789.4,71.9 -1319.7,191.3 -193.8,43.7 -726,152.8 -1084.2,243.6 -414.4,104.9 -878.8,291.3 -950.5,320 -49.5,19.8 -94.5,41.9 -124.7,41.9 -13.6,0 -24.1,-4.5 -30.8,-15.4 -48.8,-79.7 -183.5,-236.7 -168.2,-436.7 2.6,-34.1 231.7,-95 328.4,-124.7 248.5,-76.4 477.7,-138.5 874,-200.6 396.4,-62.1 577.9,-81.2 1323,-124.2 135.8,-7.9 257.5,-11.2 366.4,-11.2 m 0,-30.6 c -116.4,0 -240.2,3.8 -367.8,11.1 -399,23 -614,37.9 -793.4,55 -190.7,18.2 -334.4,38.4 -532.5,69.5 -380.1,59.5 -609.8,119 -878.3,201.6 -15.7,4.9 -35.5,10.7 -56.6,16.9 -54.7,16.1 -122.7,36.1 -177.6,55.8 -31,11.2 -54.4,20.9 -71.6,29.9 -20.9,11 -42.6,25.3 -44.3,49.1 -3.3,42.3 -0.4,85.7 8.6,129 7.7,36.9 20,75 36.7,113 30.3,69 70.3,128 99.5,171 11,16.2 20.4,30.1 27.7,42.1 8.4,13.8 25,30 57,30 30.1,0 65.3,-14.7 106.3,-31.8 9.7,-4.1 19.6,-8.2 29.7,-12.3 l 2.1,-0.8 c 161.1,-64.4 575.7,-224.5 944.4,-317.9 259,-65.6 604.5,-139.9 856.8,-194.1 92.9,-19.9 173.1,-37.2 226.7,-49.3 361,-81.3 778.2,-127.3 1054.3,-157.8 128.8,-14.3 221.7,-24.4 264.9,-33.5 40.6,-8.5 43.7,-35.6 43.7,-43.9 -0.1,-27.6 -27.7,-49.7 -73.9,-58.8 -3.3,-0.7 -8.8,-2 -15.7,-3.6 -35.8,-8.4 -110.4,-25.7 -233,-41.3 -151.4,-19.1 -324.4,-28.9 -513.7,-28.9 z"
       id="path3"
       style="display:inline"
       inkscape:label="LogoBackgroundOutline" />
    <path
       d="m 2981.7496,989.5 c -114.7,1.6 -171.6004,79.3008 -187.9004,117.8008 -17.4,41.4 -65.1984,74.7996 -68.3984,97.0996 -2.8,19.4 15.1996,37.7988 36.5996,37.7988 4.7,0 9.5004,-0.7988 14.4004,-2.7988 23.8,-9.5 68.3996,-93.8 141.5996,-105 7,-1.1 13.8,-1.5996 20,-1.5996 91.7,0 81.9,114.3988 -1,213.2988 -96.6,115.1 -162.4996,167.4008 -199.0996,208.3008 -31.1,34.7 -26.8004,90.5996 12.0996,116.0996 4.4,2.8 8.9,5.1008 13.5,6.8008 1.9,0.8 4.2992,1.0996 7.1992,1.0996 48.8,0 228.1,-98.7004 403.5,-169.9004 168.8,-68.5 399.2996,-158.9 433.0996,-173.5 50.6,-21.8 60.5012,-42.0996 10.7012,-42.0996 -5,0 -10.7996,0.2992 -17.0996,0.6992 -22.4,1.5 -215,38.3008 -353.5,82.8008 -157.5,50.7 -366.1016,140.0996 -366.1016,140.0996 0,0 100.3,-99.5 138.5,-156 70.1,-103.4 114.7008,-162.3008 100.3008,-273.8008 -7.2,-56.4 -52.8,-97.09959 -135,-97.09959 -1.1,0 -2.3004,3.9e-4 -3.4004,-0.0996 z"
       style="display:inline;fill:url(#path2796_00000129915079507725507360000007210173760882724533_)"
       id="path6"
       inkscape:label="2" />
    <path
       d="m 2420.4508,1133.9004 c -8.8,0 -19.8016,4.8 -34.1016,16.5 -84.9,67.9 -394.4988,476.2996 -428.7988,538.0996 -18.6,33.4 -42.1004,14.6 -41.9004,64 0.1,12.7 10.7,22.3008 23,22.3008 1.3,0 2.6004,-0.1008 3.9004,-0.3008 11.6,-1.9 22.3996,-4.3004 34.0996,-7.4004 5.6,-1.5 10.3004,-4.7992 13.4004,-9.6992 69.8,-109.2 211.1992,-334.1012 364.6992,-502.2012 -19.2,50.9 -36.1,114.6 -51,174 -9.9,39.9 -18.8988,93.2004 -23.7988,123.9004 -3.1,20.1 4.7984,40.8012 21.8984,51.7012 5.1,3.2 10.7008,5.5 16.3008,5.5 1.6,0 3.2008,-0.2016 4.8008,-0.6016 44.6,-10.6 84.8988,-67.9996 152.7988,-165.5996 59.5,-85.5 110.4004,-140.0996 110.4004,-140.0996 0,0 -25.8008,82.0004 -61.8008,166.9004 -36.1,85 -41.1,122.3004 -21.5,148.9004 8.3,11.4 16.7004,14.5 24.9004,14.5 9.7,0 19.1,-4.4004 27.5,-4.4004 3.4,0 6.4996,0.7988 9.5996,2.7988 1.2,0.9 2.9,1.3008 5,1.3008 27.5,0 117.0008,-73.3008 86.8008,-100.3008 -3,-2.7 -5.5996,-3.7988 -8.0996,-3.7988 -12.5,0 -20.7,28 -42.5,28 -1.1,0 -2.1012,-0.1012 -3.2012,-0.2012 -15.1,-1.8 -4.3992,-40.5984 9.3008,-78.3984 14.1,-39 26.9996,-78.4008 38.5996,-118.3008 18.6,-64.4 36.9,-138.9 -9.5,-147 -1.1,-0.2 -2.1988,-0.3008 -3.2988,-0.3008 -32.2,-0.1 -103.2008,72.0004 -144.8008,124.4004 -35.6,45.1 -115.0996,150.8008 -115.0996,150.8008 0,0 21.1,-75.9996 35.5,-130.0996 12.3,-46.6 51,-144.9008 43,-159.3008 -8.9,-15.9 -6.9004,-34.5004 -14.4004,-49.4004 -5,-10.1 -11.8992,-16.1992 -21.6992,-16.1992 z"
       style="display:inline;fill:url(#path2824_00000002365732031018715190000005015035672075230652_)"
       id="path7"
       inkscape:label="M" />
    <path
       d="m 1840.15,596.09961 c -48.7,0 -288.4008,289.99961 -444.8008,463.09959 -123,135.9 -254.7,284.5008 -371.5,428.8008 -3.2,0.1 -6.3996,0.1 -9.5996,0.1 -54.49999,0 -102.6996,-8.7988 -143.0996,-8.7988 -36.4,0 -66.50078,7.0996 -89.30078,34.0996 -33.9,40.3 -122.19844,50.1992 -103.39844,116.1992 11.2,40 81.3,49 142,49 49.6,0 93,-6 93,-6 -95.5,127.3 -195.3,236.4004 -312,396.9004 -17,23.3 6.19844,58.5992 24.39844,60.6992 16.8,1.9 35.50117,4.4004 56.20117,4.4004 33.2,0 71.59883,-6.3992 114.79883,-31.1992 61,-35.1 104.10117,-102.0004 201.70117,-239.9004 68.40001,-96.6 95.49881,-137.9 135.79881,-191 39.2,4 73.6,5.6992 104.5,5.6992 164.7,0 225.9,-48.1992 347.5,-48.1992 27.5,116.7 31.9012,223.0992 74.2012,290.6992 28.4,45.2 67.7992,55.6016 88.6992,55.6016 2.5,0 4.9004,-0.1004 6.9004,-0.4004 6,-0.8 11.5,-1.2012 16.5,-1.2012 33.3,0 45.6004,16.1016 65.9004,16.1016 7.6,0 16.3004,-2.3016 27.9004,-8.6016 34.3,-18.7 34,-48.8 17,-78.5 -41.9,-90.2 -51.5008,-169.8988 -56.3008,-277.2988 22.4,-8.7 54.3996,-16.7004 52.5996,-54.9004 -1.1,-22.4 -23.9004,-43.1004 -58.9004,-48.9004 -6.4,-95.4 -1.7,-276.8004 -0.5,-377.4004 1.6,-135 34.9016,-306.59842 63.1016,-417.39842 13.8,-54.2 16.9,-127.40117 -42.5,-131.70117 z M 1635.0504,1044 c -34,157.1 -53.2004,308.3008 -57.4004,471.3008 -16.9,0.7 -32.8008,1 -47.8008,1 -108.3,0 -171.6984,-16.4004 -257.8984,-16.4004 -8.2,0 -16.6004,0.2 -25.4004,0.5 121,-155 252.7,-307.8004 388.5,-456.4004 z"
       style="fill:url(#path2852_00000023988166612383122220000003796106833670384272_)"
       id="path9"
       inkscape:label="A" />
    <path
       d="m 1840.15,596.1 c 0.3,0 0.6,0 0.8,0 59.4,4.3 56.3,77.5 42.5,131.7 -28.2,110.8 -61.5,282.4 -63.1,417.4 -1.2,100.6 -5.9,282 0.5,377.4 35,5.8 57.8,26.5 58.9,48.9 1.8,38.2 -30.2,46.2 -52.6,54.9 4.8,107.4 14.4,187.1 56.3,277.3 17,29.7 17.3,59.8 -17,78.5 -11.6,6.3 -20.3,8.6 -27.9,8.6 -20.3,0 -32.6,-16.1 -65.9,-16.1 -5,0 -10.5,0.4 -16.5,1.2 -2,0.3 -4.4,0.4 -6.9,0.4 -20.9,0 -60.3,-10.4 -88.7,-55.6 -42.3,-67.6 -46.7,-174 -74.2,-290.7 -121.6,0 -182.8,48.2 -347.5,48.2 -30.9,0 -65.3,-1.7 -104.5,-5.7 -40.3,53.1 -67.4,94.4 -135.8,191 -97.6,137.9 -140.7,204.8 -201.7,239.9 -43.2,24.8 -81.6,31.2 -114.8,31.2 -20.7,0 -39.4,-2.5 -56.2,-4.4 -18.2,-2.1 -41.4,-37.4 -24.4,-60.7 116.7,-160.5 216.5,-269.6 312,-396.9 0,0 -43.4,6 -93,6 -60.7,0 -130.8,-9 -142,-49 -18.8,-66 69.5,-75.9 103.4,-116.2 22.8,-27 52.9,-34.1 89.3,-34.1 40.4,0 88.6,8.8 143.1,8.8 3.2,0 6.4,0 9.6,-0.1 116.8,-144.3 248.5,-292.9 371.5,-428.8 156.4,-173.1 396.1,-463.1 444.8,-463.1 m -593.6,904.3 c 8.8,-0.3 17.2,-0.5 25.4,-0.5 86.2,0 149.6,16.4 257.9,16.4 15,0 30.9,-0.3 47.8,-1 4.2,-163 23.4,-314.2 57.4,-471.3 -135.8,148.6 -267.5,301.4 -388.5,456.4 m 593.6,-934.9 c -23.9,0 -55.5,18.6 -145.9,113.3 -59.3,62.2 -130.9,143.5 -200,222.2 -43.6,49.6 -84.7,96.3 -121.8,137.2 -96.3,106.3 -237.8,264.2 -363.5,418.8 -26,-0.3 -50.6,-2.6 -74.3,-4.8 -22.4,-2.1 -43.7,-4.1 -63.7,-4.1 -34.7,0 -79.1,5.1 -112.6,45 -8.1,9.7 -24.1,18.7 -39.5,27.4 -19,10.8 -38.6,21.8 -53.2,38.3 -19.4,21.9 -25.2,49.2 -16.9,78.6 8.3,29.1 33.2,49.5 73.9,60.6 25.6,7 58.5,10.6 97.6,10.6 9.2,0 18.1,-0.2 26.6,-0.5 -27.6,35.2 -55.9,69.9 -85.2,105.8 -58.3,71.6 -118.7,145.5 -185.2,237 -13.7,18.8 -15.6,43.1 -5.3,66.4 10.4,23.6 30.3,40.3 50.9,42.8 l 4.7,0.5 c 16.2,1.9 34.4,4.1 55.1,4.1 46.3,0 88.9,-11.6 130.1,-35.2 60.7,-34.9 101.9,-93.4 183.8,-209.7 8.7,-12.4 17.9,-25.2 27.5,-39 23.7,-33.6 42.3,-60 58.5,-83.4 26.3,-37.8 45,-64.5 66.4,-93.2 31.7,2.8 62.1,4.3 90.5,4.3 92.2,0 154,-14.7 208.6,-27.6 39,-9.3 73.4,-17.5 114.6,-19.8 6,28.3 11,56.1 15.8,83 13.6,76.1 25.1,141.8 57,192.7 15.5,24.8 35.3,43.7 59,55.8 24,12.4 45.1,14.3 55.6,14.3 4,0 7.6,-0.2 11.2,-0.7 4.4,-0.6 8.5,-0.9 12.4,-0.9 12.6,0 20,3.2 29.4,7.1 9.5,4.1 21.3,9 36.4,9 13.6,0 27.4,-4.1 42.7,-12.3 27,-14.7 37.4,-34.5 41.4,-48.6 6.1,-21.6 2.1,-46 -11.9,-70.8 -35.6,-77.1 -46.6,-146.7 -51.9,-242.8 8.9,-3.9 18.2,-8.8 26.5,-16.1 17.5,-15.1 26,-36.1 24.8,-60.8 -0.9,-19.5 -10.7,-38.2 -27.4,-52.5 -9.3,-7.9 -20.3,-14.3 -32.7,-18.8 -3.5,-78 -1.6,-197.8 -0.2,-287.4 0.4,-23.9 0.7,-46.5 1,-65.9 1.5,-128.5 33.1,-296.1 62.1,-410.2 4.3,-16.8 9.4,-42.2 9.3,-68 -0.1,-28.7 -6.4,-52.1 -19,-69.4 -14,-19.2 -34.7,-30.4 -60.3,-32.2 -0.9,-0.1 -1.9,-0.1 -2.9,-0.1 z m -530.8,904.6 c 83.1,-104.3 173.7,-211.2 274.4,-324 -20,114.1 -31.6,224.5 -35.7,339.1 -6.1,0.1 -12.2,0.2 -18.1,0.2 -55.7,0 -99.1,-4.5 -141,-8.7 -26.7,-2.5 -52.3,-5.2 -79.6,-6.6 z"
       id="path29"
       style="display:inline"
       inkscape:label="A_Outline" />
    <path
       d="m 2420.45,1133.9 c 9.8,0 16.7,6.1 21.7,16.2 7.5,14.9 5.5,33.5 14.4,49.4 8,14.4 -30.7,112.7 -43,159.3 -14.4,54.1 -35.5,130.1 -35.5,130.1 0,0 79.5,-105.7 115.1,-150.8 41.6,-52.4 112.6,-124.5 144.8,-124.4 1.1,0 2.2,0.1 3.3,0.3 46.4,8.1 28.1,82.6 9.5,147 -11.6,39.9 -24.5,79.3 -38.6,118.3 -13.7,37.8 -24.4,76.6 -9.3,78.4 1.1,0.1 2.1,0.2 3.2,0.2 21.8,0 30,-28 42.5,-28 2.5,0 5.1,1.1 8.1,3.8 30.2,27 -59.3,100.3 -86.8,100.3 -2.1,0 -3.8,-0.4 -5,-1.3 -3.1,-2 -6.2,-2.8 -9.6,-2.8 -8.4,0 -17.8,4.4 -27.5,4.4 -8.2,0 -16.6,-3.1 -24.9,-14.5 -19.6,-26.6 -14.6,-63.9 21.5,-148.9 36,-84.9 61.8,-166.9 61.8,-166.9 0,0 -50.9,54.6 -110.4,140.1 -67.9,97.6 -108.2,155 -152.8,165.6 -1.6,0.4 -3.2,0.6 -4.8,0.6 -5.6,0 -11.2,-2.3 -16.3,-5.5 -17.1,-10.9 -25,-31.6 -21.9,-51.7 4.9,-30.7 13.9,-84 23.8,-123.9 14.9,-59.4 31.8,-123.1 51,-174 -153.5,168.1 -294.9,393 -364.7,502.2 -3.1,4.9 -7.8,8.2 -13.4,9.7 -11.7,3.1 -22.5,5.5 -34.1,7.4 -1.3,0.2 -2.6,0.3 -3.9,0.3 -12.3,0 -22.9,-9.6 -23,-22.3 -0.2,-49.4 23.3,-30.6 41.9,-64 34.3,-61.8 343.9,-470.2 428.8,-538.1 14.3,-11.7 25.3,-16.5 34.1,-16.5 m 0,-30.6 v 0 c -16.5,0 -33.9,7.5 -53.2,22.9 -52.7,42.1 -172,191.2 -238.4,276.5 -92.8,119 -179.8,238 -198.1,270.7 -3.6,6.4 -6.2,8 -12.2,11.6 -6.6,4.1 -16.7,10.2 -24,22.6 -6.7,11.4 -9.8,25.5 -9.7,44.9 0.1,29.1 24.2,52.8 53.6,52.8 3,0 5.8,-0.2 8.8,-0.7 11.6,-1.9 22.9,-4.4 36.8,-8 13.1,-3.4 24.2,-11.5 31.4,-22.8 3,-4.7 6.1,-9.6 9.4,-14.7 56.3,-88.2 150.2,-235.4 257.5,-371.2 -3,11.6 -5.9,23 -8.7,34.1 -10.4,41.6 -19.7,97.1 -24.4,126.5 -5.1,32.8 8.9,65 35.7,82.2 10.7,6.8 21.7,10.4 32.8,10.4 4,0 7.9,-0.5 11.8,-1.4 52.7,-12.6 93.6,-67 156.5,-157.3 -28.1,70.5 -36.3,117.7 -8.4,155.7 16.4,22.2 36,26.8 49.6,26.8 8.7,0 16,-1.8 21.9,-3.2 1.1,-0.3 2.3,-0.6 3.5,-0.8 5.1,2.4 10.9,3.6 16.8,3.6 23.8,0 52.6,-20.1 67.6,-32.1 14.8,-11.9 41.3,-35.7 51.6,-62.6 8.6,-22.5 4.2,-44.6 -12,-59 -10.7,-9.6 -21.4,-11.6 -28.5,-11.6 -4.2,0 -8,0.6 -11.5,1.7 6.3,-18.7 33.7,-98.8 38.8,-116.4 8,-27.2 17.1,-58.1 21.8,-86.6 6.5,-38.8 3.9,-66 -8.4,-85.9 -9.5,-15.3 -24.3,-25 -42.8,-28.2 -2.8,-0.5 -5.6,-0.7 -8.5,-0.7 v 0 c -14.6,0 -39.7,5.2 -89.6,50.6 -25.8,23.5 -55.5,55.5 -79.3,85.4 -5.5,7 -12.2,15.4 -19.2,24.5 3.2,-10.2 6.9,-21.3 10.7,-32.9 26,-79.1 33.6,-106.3 22.7,-126.1 -2.2,-4 -3.3,-10 -4.6,-17.1 -1.7,-9.5 -3.7,-20.1 -9.2,-31.1 -13.8,-28.9 -36.5,-33.1 -48.6,-33.1 z"
       id="path5"
       style="display:inline"
       inkscape:label="M_Outline" />
    <path
       d="m 2985.15,989.6 c 82.2,0 127.8,40.7 135,97.1 14.4,111.5 -30.2,170.4 -100.3,273.8 -38.2,56.5 -138.5,156 -138.5,156 0,0 208.6,-89.4 366.1,-140.1 138.5,-44.5 331.1,-81.3 353.5,-82.8 6.3,-0.4 12.1,-0.7 17.1,-0.7 49.8,0 39.9,20.3 -10.7,42.1 -33.8,14.6 -264.3,105 -433.1,173.5 -175.4,71.2 -354.7,169.9 -403.5,169.9 -2.9,0 -5.3,-0.3 -7.2,-1.1 -4.6,-1.7 -9.1,-4 -13.5,-6.8 -38.9,-25.5 -43.2,-81.4 -12.1,-116.1 36.6,-40.9 102.5,-93.2 199.1,-208.3 82.9,-98.9 92.7,-213.3 1,-213.3 -6.2,0 -13,0.5 -20,1.6 -73.2,11.2 -117.8,95.5 -141.6,105 -4.9,2 -9.7,2.8 -14.4,2.8 -21.4,0 -39.4,-18.4 -36.6,-37.8 3.2,-22.3 51,-55.7 68.4,-97.1 16.3,-38.5 73.2,-116.2 187.9,-117.8 1.1,0.1 2.3,0.1 3.4,0.1 m 0.1,-30.5 v 0 c -1.3,0 -2.6,0 -4,0 -56.4,0.8 -108.1,18.7 -149.5,51.8 -41.3,33 -60,70.2 -66.1,84.7 -7.1,16.8 -22.4,34 -35.9,49.1 -17.1,19.2 -31.9,35.7 -34.6,55.6 -2.5,17.4 3,35.2 15,49.1 13.1,15.1 32,23.7 52,23.7 8.8,0 17.5,-1.7 25.7,-5 14.6,-5.8 26,-18.7 42.1,-36.5 23,-25.6 54.6,-60.9 92.8,-66.7 5.5,-0.9 10.7,-1.3 15.4,-1.3 24,0 28.8,10.5 30.7,14.5 6,12.9 4.9,34.2 -3,58.6 -9.4,29 -27.8,61 -52.2,90 -63.1,75.2 -113.3,123.6 -150.1,159 -19,18.3 -35.3,34 -48.4,48.6 -21.6,24.2 -31.7,56.5 -27.4,88.7 4,30.3 20.5,57.1 45.5,73.4 6.3,4.2 13.1,7.5 19.7,10 5.3,2 11.2,2.9 17.7,2.9 34.3,0 95.9,-27.9 211,-81.5 62.7,-29.1 133.9,-62.2 203.9,-90.7 88.8,-36 194.7,-78.2 279.9,-112.1 76.7,-30.5 137.3,-54.7 153.7,-61.7 16.7,-7.2 30.1,-14.6 39.7,-21.7 22,-16.7 23.9,-33.8 21.5,-45.1 -1.4,-6.7 -7,-23.1 -29.9,-30 -8.6,-2.6 -19.2,-3.9 -32.6,-3.9 -5.8,0 -12.4,0.2 -19.1,0.7 -24.4,1.7 -219.9,38.9 -360.7,84.2 -76.9,24.7 -166.5,58.8 -238,87.4 17.5,-20.1 33.8,-40.2 45,-57 3.4,-4.9 6.7,-9.9 10,-14.6 33.5,-49.3 59.9,-88.2 77.4,-131 19.3,-47.2 25,-94.6 18,-149.4 -4.8,-37 -22.5,-68.2 -51.3,-90.2 -29.1,-22.5 -67.5,-33.6 -113.9,-33.6 z"
       id="path30"
       style="display:inline"
       inkscape:label="2_Outline" />
  </g>
</svg>
