<?xml version="1.0" encoding="UTF-8" standalone="no"?>
<!-- Created by ERK -->

<svg
   width="4200mm"
   height="1600mm"
   viewBox="0 0 4199.9999 1600"
   version="1.1"
   id="svg1"
   inkscape:version="1.3.2 (091e20e, 2023-11-25, custom)"
   xml:space="preserve"
   sodipodi:docname="model3.svg"
   xmlns:inkscape="http://www.inkscape.org/namespaces/inkscape"
   xmlns:sodipodi="http://sodipodi.sourceforge.net/DTD/sodipodi-0.dtd"
   xmlns:xlink="http://www.w3.org/1999/xlink"
   xmlns="http://www.w3.org/2000/svg"
   xmlns:svg="http://www.w3.org/2000/svg"><sodipodi:namedview
   id="namedview1"
   pagecolor="#ffffff"
   bordercolor="#000000"
   borderopacity="0.25"
   inkscape:showpageshadow="2"
   inkscape:pageopacity="0.0"
   inkscape:pagecheckerboard="true"
   inkscape:deskcolor="#d1d1d1"
   inkscape:document-units="mm"
   inkscape:zoom="0.125"
   inkscape:cx="7880"
   inkscape:cy="3308"
   inkscape:window-width="2560"
   inkscape:window-height="1351"
   inkscape:window-x="-9"
   inkscape:window-y="-9"
   inkscape:window-maximized="1"
   inkscape:current-layer="svg1" /><defs
   id="defs1"><marker
   id="DistanceX"
   orient="auto"
   refX="0"
   refY="0"
   style="overflow:visible"><path
     d="M 3,-3 -3,3 M 0,-5 V 5"
     style="stroke:#000000;stroke-width:0.5"
     id="path1" /></marker><pattern
   id="Hatch"
   patternUnits="userSpaceOnUse"
   width="8"
   height="8"
   x="0"
   y="0"><path
     d="M8 4 l-4,4"
     stroke="#000000"
     stroke-width="0.25"
     linecap="square"
     id="path2" /><path
     d="M6 2 l-4,4"
     stroke="#000000"
     stroke-width="0.25"
     linecap="square"
     id="path3" /><path
     d="M4 0 l-4,4"
     stroke="#000000"
     stroke-width="0.25"
     linecap="square"
     id="path4" /></pattern><symbol
   id="*Model_Space" /><symbol
   id="*Paper_Space" /><symbol
   id="*Paper_Space0" /><marker
   id="DistanceX-0"
   orient="auto"
   refX="0"
   refY="0"
   style="overflow:visible"><path
     d="M 3,-3 -3,3 M 0,-5 V 5"
     style="stroke:#000000;stroke-width:0.5"
     id="path1-9" /></marker><pattern
   id="Hatch-4"
   patternUnits="userSpaceOnUse"
   width="8"
   height="8"
   x="0"
   y="0"><path
     d="M8 4 l-4,4"
     stroke="#000000"
     stroke-width="0.25"
     linecap="square"
     id="path2-8" /><path
     d="M6 2 l-4,4"
     stroke="#000000"
     stroke-width="0.25"
     linecap="square"
     id="path3-8" /><path
     d="M4 0 l-4,4"
     stroke="#000000"
     stroke-width="0.25"
     linecap="square"
     id="path4-2" /></pattern><symbol
   id="*Model_Space-4" /><symbol
   id="*Paper_Space-5" /><symbol
   id="*Paper_Space0-5" /><marker
   id="DistanceX-3"
   orient="auto"
   refX="0"
   refY="0"
   style="overflow:visible"><path
     d="M 3,-3 -3,3 M 0,-5 V 5"
     style="stroke:#000000;stroke-width:0.5"
     id="path1-8" /></marker><pattern
   id="Hatch-7"
   patternUnits="userSpaceOnUse"
   width="8"
   height="8"
   x="0"
   y="0"><path
     d="M8 4 l-4,4"
     stroke="#000000"
     stroke-width="0.25"
     linecap="square"
     id="path2-4" /><path
     d="M6 2 l-4,4"
     stroke="#000000"
     stroke-width="0.25"
     linecap="square"
     id="path3-2" /><path
     d="M4 0 l-4,4"
     stroke="#000000"
     stroke-width="0.25"
     linecap="square"
     id="path4-7" /></pattern><symbol
   id="*Model_Space-7" /><symbol
   id="*Paper_Space-9" /><symbol
   id="*Paper_Space0-3" /><marker
   id="DistanceX-1"
   orient="auto"
   refX="0"
   refY="0"
   style="overflow:visible"><path
     d="M 3,-3 -3,3 M 0,-5 V 5"
     style="stroke:#000000;stroke-width:0.5"
     id="path1-3" /></marker><pattern
   id="Hatch-5"
   patternUnits="userSpaceOnUse"
   width="8"
   height="8"
   x="0"
   y="0"><path
     d="M8 4 l-4,4"
     stroke="#000000"
     stroke-width="0.25"
     linecap="square"
     id="path2-9" /><path
     d="M6 2 l-4,4"
     stroke="#000000"
     stroke-width="0.25"
     linecap="square"
     id="path3-84" /><path
     d="M4 0 l-4,4"
     stroke="#000000"
     stroke-width="0.25"
     linecap="square"
     id="path4-0" /></pattern><symbol
   id="*Model_Space-76" /><symbol
   id="*Paper_Space-3" /><symbol
   id="*Paper_Space0-6" /><marker
   id="DistanceX-8"
   orient="auto"
   refX="0"
   refY="0"
   style="overflow:visible"><path
     d="M 3,-3 -3,3 M 0,-5 V 5"
     style="stroke:#000000;stroke-width:0.5"
     id="path1-1" /></marker><pattern
   id="Hatch-8"
   patternUnits="userSpaceOnUse"
   width="8"
   height="8"
   x="0"
   y="0"><path
     d="M8 4 l-4,4"
     stroke="#000000"
     stroke-width="0.25"
     linecap="square"
     id="path2-2" /><path
     d="M6 2 l-4,4"
     stroke="#000000"
     stroke-width="0.25"
     linecap="square"
     id="path3-6" /><path
     d="M4 0 l-4,4"
     stroke="#000000"
     stroke-width="0.25"
     linecap="square"
     id="path4-6" /></pattern><symbol
   id="*Model_Space-0" /><symbol
   id="*Paper_Space-38" /><symbol
   id="*Paper_Space0-0" /><marker
   id="DistanceX-08"
   orient="auto"
   refX="0"
   refY="0"
   style="overflow:visible"><path
     d="M 3,-3 -3,3 M 0,-5 V 5"
     style="stroke:#000000;stroke-width:0.5"
     id="path1-80" /></marker><pattern
   id="Hatch-6"
   patternUnits="userSpaceOnUse"
   width="8"
   height="8"
   x="0"
   y="0"><path
     d="M8 4 l-4,4"
     stroke="#000000"
     stroke-width="0.25"
     linecap="square"
     id="path2-81" /><path
     d="M6 2 l-4,4"
     stroke="#000000"
     stroke-width="0.25"
     linecap="square"
     id="path3-9" /><path
     d="M4 0 l-4,4"
     stroke="#000000"
     stroke-width="0.25"
     linecap="square"
     id="path4-8" /></pattern><symbol
   id="*Model_Space-9" /><symbol
   id="*Paper_Space-7" /><symbol
   id="*Paper_Space0-2" /><marker
   id="DistanceX-2"
   orient="auto"
   refX="0"
   refY="0"
   style="overflow:visible"><path
     d="M 3,-3 -3,3 M 0,-5 V 5"
     style="stroke:#000000;stroke-width:0.5"
     id="path1-91" /></marker><pattern
   id="Hatch-50"
   patternUnits="userSpaceOnUse"
   width="8"
   height="8"
   x="0"
   y="0"><path
     d="M8 4 l-4,4"
     stroke="#000000"
     stroke-width="0.25"
     linecap="square"
     id="path2-3" /><path
     d="M6 2 l-4,4"
     stroke="#000000"
     stroke-width="0.25"
     linecap="square"
     id="path3-64" /><path
     d="M4 0 l-4,4"
     stroke="#000000"
     stroke-width="0.25"
     linecap="square"
     id="path4-9" /></pattern><symbol
   id="*Model_Space-2" /><symbol
   id="*Paper_Space-93" /><symbol
   id="*Paper_Space0-4" /><linearGradient
   id="SVGID_00000120555014419973377970000015215854939472535222_"
   gradientUnits="userSpaceOnUse"
   x1="3405.8403"
   y1="628.6123"
   x2="3405.8403"
   y2="1378.4492">
			<stop
   offset="0"
   style="stop-color:#23BFD4"
   id="stop15" />
			<stop
   offset="0.7031"
   style="stop-color:#3F4DA0"
   id="stop16" />
		</linearGradient><linearGradient
   id="SVGID_00000028301830060041304320000006220350542150610828_"
   gradientUnits="userSpaceOnUse"
   x1="570.32098"
   y1="628.60168"
   x2="570.32098"
   y2="1378.4387">
				<stop
   offset="0"
   style="stop-color:#23BFD4"
   id="stop17" />
				<stop
   offset="0.7031"
   style="stop-color:#3F4DA0"
   id="stop18" />
			</linearGradient><linearGradient
   id="SVGID_00000054250991446470466680000011668221514653142928_"
   gradientUnits="userSpaceOnUse"
   x1="1312.5062"
   y1="628.60168"
   x2="1312.5062"
   y2="1378.4387">
				<stop
   offset="0"
   style="stop-color:#23BFD4"
   id="stop19" />
				<stop
   offset="0.7031"
   style="stop-color:#3F4DA0"
   id="stop20" />
			</linearGradient><linearGradient
   id="SVGID_00000152242517329389635290000007502664972841097399_"
   gradientUnits="userSpaceOnUse"
   x1="1879.2697"
   y1="628.60168"
   x2="1879.2697"
   y2="1378.4387">
				<stop
   offset="0"
   style="stop-color:#23BFD4"
   id="stop21" />
				<stop
   offset="0.7031"
   style="stop-color:#3F4DA0"
   id="stop22" />
			</linearGradient><linearGradient
   id="SVGID_00000125599818111560610170000005961212981912245926_"
   gradientUnits="userSpaceOnUse"
   x1="2431.8936"
   y1="628.60168"
   x2="2431.8936"
   y2="1378.4387">
				<stop
   offset="0"
   style="stop-color:#23BFD4"
   id="stop23" />
				<stop
   offset="0.7031"
   style="stop-color:#3F4DA0"
   id="stop24" />
			</linearGradient><linearGradient
   id="SVGID_00000000210689655942212340000015375568317689007030_"
   gradientUnits="userSpaceOnUse"
   x1="2986.0513"
   y1="628.60168"
   x2="2986.0513"
   y2="1378.4387">
				<stop
   offset="0"
   style="stop-color:#23BFD4"
   id="stop25" />
				<stop
   offset="0.7031"
   style="stop-color:#3F4DA0"
   id="stop26" />
			</linearGradient><clipPath
   id="SVGID_00000127722685447714651280000005029218276116053399_">
				<path
   id="use26"
   d="m 133.3,1117.5 c 189.7,26.1 834,94.6 1383.7,-83.9 761.8,-247.3 1444.3,-430.1 2288.1,-147 l 4,521.9 H 40 c 0,0 57.8,-295.9 93.3,-291 z" />
			</clipPath><linearGradient
   id="SVGID_00000155129829238575456680000008191887403309447296_"
   gradientUnits="userSpaceOnUse"
   x1="3405.8403"
   y1="628.6123"
   x2="3405.8403"
   y2="1378.4492">
					<stop
   offset="0"
   style="stop-color:#0094BF"
   id="stop27" />
					<stop
   offset="2.865892e-02"
   style="stop-color:#0090BD;stop-opacity:0.5"
   id="stop28" />
					<stop
   offset="1"
   style="stop-color:#282A71"
   id="stop29" />
				</linearGradient><linearGradient
   id="SVGID_00000179616508108830815810000008405121974134893446_"
   gradientUnits="userSpaceOnUse"
   x1="570.32098"
   y1="628.60168"
   x2="570.32098"
   y2="1378.4387">
						<stop
   offset="0"
   style="stop-color:#0094BF"
   id="stop30" />
						<stop
   offset="2.865892e-02"
   style="stop-color:#0090BD;stop-opacity:0.5"
   id="stop31" />
						<stop
   offset="1"
   style="stop-color:#282A71"
   id="stop32" />
					</linearGradient><linearGradient
   id="SVGID_00000101074410511379626870000008542137217463676338_"
   gradientUnits="userSpaceOnUse"
   x1="1312.5062"
   y1="628.60168"
   x2="1312.5062"
   y2="1378.4387">
						<stop
   offset="0"
   style="stop-color:#0094BF"
   id="stop33" />
						<stop
   offset="2.865892e-02"
   style="stop-color:#0090BD;stop-opacity:0.5"
   id="stop34" />
						<stop
   offset="1"
   style="stop-color:#282A71"
   id="stop35" />
					</linearGradient><linearGradient
   id="SVGID_00000167394957007514639270000002992842118757093807_"
   gradientUnits="userSpaceOnUse"
   x1="1879.2697"
   y1="628.60168"
   x2="1879.2697"
   y2="1378.4387">
						<stop
   offset="0"
   style="stop-color:#0094BF"
   id="stop36" />
						<stop
   offset="2.865892e-02"
   style="stop-color:#0090BD;stop-opacity:0.5"
   id="stop37" />
						<stop
   offset="1"
   style="stop-color:#282A71"
   id="stop38" />
					</linearGradient><linearGradient
   id="SVGID_00000034787205620747636730000007950325857579349941_"
   gradientUnits="userSpaceOnUse"
   x1="2431.8936"
   y1="628.60168"
   x2="2431.8936"
   y2="1378.4387">
						<stop
   offset="0"
   style="stop-color:#0094BF"
   id="stop39" />
						<stop
   offset="2.865892e-02"
   style="stop-color:#0090BD;stop-opacity:0.5"
   id="stop40" />
						<stop
   offset="1"
   style="stop-color:#282A71"
   id="stop41" />
					</linearGradient><linearGradient
   id="SVGID_00000080910309501824886500000015374339441397179296_"
   gradientUnits="userSpaceOnUse"
   x1="2986.0513"
   y1="628.60168"
   x2="2986.0513"
   y2="1378.4387">
						<stop
   offset="0"
   style="stop-color:#0094BF"
   id="stop42" />
						<stop
   offset="2.865892e-02"
   style="stop-color:#0090BD;stop-opacity:0.5"
   id="stop43" />
						<stop
   offset="1"
   style="stop-color:#282A71"
   id="stop44" />
					</linearGradient><linearGradient
   id="SVGID_00000034808674198326549920000014294978858919841453_"
   gradientUnits="userSpaceOnUse"
   x1="3405.8403"
   y1="1378.4508"
   x2="3405.8403"
   y2="628.61377">
			<stop
   offset="0"
   style="stop-color:#131313"
   id="stop46" />
			<stop
   offset="1"
   style="stop-color:#F7F8F9"
   id="stop47" />
		</linearGradient><clipPath
   id="SVGID_00000065763012243068495720000012704092376987853708_">
				<path
   id="use48"
   d="m 3744,1334.8 c -685.2,-348.5 -1318.8,-254.4 -2539.7,55.9 -69.5,17.7 2401.8,17.8 2401.8,17.8 z" />
			</clipPath><linearGradient
   id="SVGID_00000086657389350816012990000018125741905765272211_"
   gradientUnits="userSpaceOnUse"
   x1="3790.8562"
   y1="1003.5255"
   x2="1051.0956"
   y2="1003.5255">
						<stop
   offset="0"
   style="stop-color:#474748;stop-opacity:0.5"
   id="stop48" />
						<stop
   offset="0.2168"
   style="stop-color:#545554"
   id="stop49" />
						<stop
   offset="0.5053"
   style="stop-color:#2E3084"
   id="stop50" />
						<stop
   offset="0.6386"
   style="stop-color:#2E3286"
   id="stop51" />
						<stop
   offset="0.8566"
   style="stop-color:#282A71;stop-opacity:0.5"
   id="stop52" />
						<stop
   offset="1"
   style="stop-color:#282A71;stop-opacity:0"
   id="stop53" />
					</linearGradient><marker
   id="DistanceX-4"
   orient="auto"
   refX="0"
   refY="0"
   style="overflow:visible"><path
     d="M 3,-3 -3,3 M 0,-5 V 5"
     style="stroke:#000000;stroke-width:0.5"
     id="path1-5" /></marker><pattern
   id="Hatch-79"
   patternUnits="userSpaceOnUse"
   width="8"
   height="8"
   x="0"
   y="0"><path
     d="M8 4 l-4,4"
     stroke="#000000"
     stroke-width="0.25"
     linecap="square"
     id="path2-83" /><path
     d="M6 2 l-4,4"
     stroke="#000000"
     stroke-width="0.25"
     linecap="square"
     id="path3-0" /><path
     d="M4 0 l-4,4"
     stroke="#000000"
     stroke-width="0.25"
     linecap="square"
     id="path4-22" /></pattern><symbol
   id="*Model_Space-3" /><symbol
   id="*Paper_Space-6" /><symbol
   id="*Paper_Space0-7" /><marker
   id="DistanceX-6"
   orient="auto"
   refX="0"
   refY="0"
   style="overflow:visible"><path
     d="M 3,-3 -3,3 M 0,-5 V 5"
     style="stroke:#000000;stroke-width:0.5"
     id="path1-11" /></marker><pattern
   id="Hatch-1"
   patternUnits="userSpaceOnUse"
   width="8"
   height="8"
   x="0"
   y="0"><path
     d="M8 4 l-4,4"
     stroke="#000000"
     stroke-width="0.25"
     linecap="square"
     id="path2-7" /><path
     d="M6 2 l-4,4"
     stroke="#000000"
     stroke-width="0.25"
     linecap="square"
     id="path3-3" /><path
     d="M4 0 l-4,4"
     stroke="#000000"
     stroke-width="0.25"
     linecap="square"
     id="path4-00" /></pattern><symbol
   id="*Model_Space-48" /><symbol
   id="*Paper_Space-30" /><symbol
   id="*Paper_Space0-1" /><linearGradient
   id="SVGID_00000120555014419973377970000015215854939472535222_-5"
   gradientUnits="userSpaceOnUse"
   x1="3405.8403"
   y1="628.6123"
   x2="3405.8403"
   y2="1378.4492"
   inkscape:label="3">
			<stop
   offset="0"
   style="stop-color:#23BFD4"
   id="stop15-7" />
			<stop
   offset="0.7031"
   style="stop-color:#3F4DA0"
   id="stop16-7" />
		</linearGradient><linearGradient
   id="SVGID_00000028301830060041304320000006220350542150610828_-0"
   gradientUnits="userSpaceOnUse"
   x1="570.32098"
   y1="628.60168"
   x2="570.32098"
   y2="1378.4387"
   inkscape:label="M">
				<stop
   offset="0"
   style="stop-color:#23BFD4"
   id="stop17-8" />
				<stop
   offset="0.7031"
   style="stop-color:#3F4DA0"
   id="stop18-9" />
			</linearGradient><linearGradient
   id="SVGID_00000054250991446470466680000011668221514653142928_-3"
   gradientUnits="userSpaceOnUse"
   x1="1312.5062"
   y1="628.60168"
   x2="1312.5062"
   y2="1378.4387"
   inkscape:label="O">
				<stop
   offset="0"
   style="stop-color:#23BFD4"
   id="stop19-0" />
				<stop
   offset="0.7031"
   style="stop-color:#3F4DA0"
   id="stop20-7" />
			</linearGradient><linearGradient
   id="SVGID_00000152242517329389635290000007502664972841097399_-4"
   gradientUnits="userSpaceOnUse"
   x1="1879.2697"
   y1="628.60168"
   x2="1879.2697"
   y2="1378.4387"
   inkscape:label="D">
				<stop
   offset="0"
   style="stop-color:#23BFD4"
   id="stop21-7" />
				<stop
   offset="0.7031"
   style="stop-color:#3F4DA0"
   id="stop22-8" />
			</linearGradient><linearGradient
   id="SVGID_00000125599818111560610170000005961212981912245926_-3"
   gradientUnits="userSpaceOnUse"
   x1="2431.8936"
   y1="628.60168"
   x2="2431.8936"
   y2="1378.4387"
   inkscape:label="E">
				<stop
   offset="0"
   style="stop-color:#23BFD4"
   id="stop23-7" />
				<stop
   offset="0.7031"
   style="stop-color:#3F4DA0"
   id="stop24-1" />
			</linearGradient><linearGradient
   id="SVGID_00000000210689655942212340000015375568317689007030_-0"
   gradientUnits="userSpaceOnUse"
   x1="2986.0513"
   y1="628.60168"
   x2="2986.0513"
   y2="1378.4387"
   inkscape:label="L">
				<stop
   offset="0"
   style="stop-color:#23BFD4"
   id="stop25-0" />
				<stop
   offset="0.7031"
   style="stop-color:#3F4DA0"
   id="stop26-8" />
			</linearGradient><linearGradient
   id="SVGID_00000155129829238575456680000008191887403309447296_-5"
   gradientUnits="userSpaceOnUse"
   x1="3405.8403"
   y1="628.6123"
   x2="3405.8403"
   y2="1378.4492"
   inkscape:label="3_mid"
   gradientTransform="matrix(0.99976473,0,0,0.99976473,219.10522,454.93969)">
					<stop
   offset="0"
   style="stop-color:#0094BF"
   id="stop27-0" />
					<stop
   offset="2.865892e-02"
   style="stop-color:#0090BD;stop-opacity:0.5"
   id="stop28-1" />
					<stop
   offset="1"
   style="stop-color:#282A71"
   id="stop29-4" />
				</linearGradient><linearGradient
   id="SVGID_00000179616508108830815810000008405121974134893446_-5"
   gradientUnits="userSpaceOnUse"
   x1="570.32098"
   y1="628.60168"
   x2="570.32098"
   y2="1378.4387"
   inkscape:label="M_mid">
						<stop
   offset="0"
   style="stop-color:#0094BF"
   id="stop30-6" />
						<stop
   offset="2.865892e-02"
   style="stop-color:#0090BD;stop-opacity:0.5"
   id="stop31-2" />
						<stop
   offset="1"
   style="stop-color:#282A71"
   id="stop32-0" />
					</linearGradient><linearGradient
   id="SVGID_00000101074410511379626870000008542137217463676338_-3"
   gradientUnits="userSpaceOnUse"
   x1="1312.5062"
   y1="628.60168"
   x2="1312.5062"
   y2="1378.4387"
   inkscape:label="O_mid">
						<stop
   offset="0"
   style="stop-color:#0094BF"
   id="stop33-5" />
						<stop
   offset="2.865892e-02"
   style="stop-color:#0090BD;stop-opacity:0.5"
   id="stop34-6" />
						<stop
   offset="1"
   style="stop-color:#282A71"
   id="stop35-6" />
					</linearGradient><linearGradient
   id="SVGID_00000167394957007514639270000002992842118757093807_-6"
   gradientUnits="userSpaceOnUse"
   x1="1879.2697"
   y1="628.60168"
   x2="1879.2697"
   y2="1378.4387"
   inkscape:label="D_mid">
						<stop
   offset="0"
   style="stop-color:#0094BF"
   id="stop36-7" />
						<stop
   offset="2.865892e-02"
   style="stop-color:#0090BD;stop-opacity:0.5"
   id="stop37-6" />
						<stop
   offset="1"
   style="stop-color:#282A71"
   id="stop38-7" />
					</linearGradient><linearGradient
   id="SVGID_00000034787205620747636730000007950325857579349941_-7"
   gradientUnits="userSpaceOnUse"
   x1="2431.8936"
   y1="628.60168"
   x2="2431.8936"
   y2="1378.4387"
   inkscape:label="E_mid">
						<stop
   offset="0"
   style="stop-color:#0094BF"
   id="stop39-1" />
						<stop
   offset="2.865892e-02"
   style="stop-color:#0090BD;stop-opacity:0.5"
   id="stop40-9" />
						<stop
   offset="1"
   style="stop-color:#282A71"
   id="stop41-1" />
					</linearGradient><linearGradient
   id="SVGID_00000080910309501824886500000015374339441397179296_-6"
   gradientUnits="userSpaceOnUse"
   x1="2986.0513"
   y1="628.60168"
   x2="2986.0513"
   y2="1378.4387"
   inkscape:label="L_mid">
						<stop
   offset="0"
   style="stop-color:#0094BF"
   id="stop42-2" />
						<stop
   offset="2.865892e-02"
   style="stop-color:#0090BD;stop-opacity:0.5"
   id="stop43-7" />
						<stop
   offset="1"
   style="stop-color:#282A71"
   id="stop44-2" />
					</linearGradient><linearGradient
   id="SVGID_00000034808674198326549920000014294978858919841453_-7"
   gradientUnits="userSpaceOnUse"
   x1="3405.8403"
   y1="1378.4508"
   x2="3405.8403"
   y2="628.61377"
   inkscape:label="3">
			<stop
   offset="0"
   style="stop-color:#131313"
   id="stop46-6" />
			<stop
   offset="1"
   style="stop-color:#F7F8F9"
   id="stop47-5" />
		</linearGradient><clipPath
   id="SVGID_00000065763012243068495720000012704092376987853708_-1">
				<path
   id="use48-3"
   d="m 3744,1334.8 c -685.2,-348.5 -1318.8,-254.4 -2539.7,55.9 -69.5,17.7 2401.8,17.8 2401.8,17.8 z" />
			</clipPath><linearGradient
   id="SVGID_00000086657389350816012990000018125741905765272211_-9"
   gradientUnits="userSpaceOnUse"
   x1="3790.8562"
   y1="1003.5255"
   x2="1051.0956"
   y2="1003.5255"
   inkscape:label="Lower">
						<stop
   offset="0"
   style="stop-color:#474748;stop-opacity:0.5"
   id="stop48-9" />
						<stop
   offset="0.2168"
   style="stop-color:#545554"
   id="stop49-5" />
						<stop
   offset="0.5053"
   style="stop-color:#2E3084"
   id="stop50-9" />
						<stop
   offset="0.6386"
   style="stop-color:#2E3286"
   id="stop51-2" />
						<stop
   offset="0.8566"
   style="stop-color:#282A71;stop-opacity:0.5"
   id="stop52-6" />
						<stop
   offset="1"
   style="stop-color:#282A71;stop-opacity:0"
   id="stop53-5" />
					</linearGradient><linearGradient
   inkscape:collect="always"
   xlink:href="#SVGID_00000086657389350816012990000018125741905765272211_-9"
   id="linearGradient156"
   x1="3840.0103"
   y1="489.01617"
   x2="1100.2534"
   y2="489.11557"
   gradientUnits="userSpaceOnUse"
   gradientTransform="translate(-49.825397,513.60493)" />
	
		<linearGradient
   id="linearGradient163"
   gradientUnits="userSpaceOnUse"
   x1="3405.8403"
   y1="628.6123"
   x2="3405.8403"
   y2="1378.4492">
		<stop
   offset="0"
   style="stop-color:#23BFD4"
   id="stop162" />
		<stop
   offset="0.7031"
   style="stop-color:#3F4DA0"
   id="stop163" />
	</linearGradient>
	
	
	
	
	
	
	
	
	
	
	
<linearGradient
   inkscape:collect="always"
   xlink:href="#SVGID_00000028301830060041304320000006220350542150610828_-0"
   id="linearGradient202"
   x1="54748.801"
   y1="-87683.664"
   x2="54748.801"
   y2="8738.7393"
   gradientUnits="userSpaceOnUse" /><linearGradient
   inkscape:collect="always"
   xlink:href="#SVGID_00000054250991446470466680000011668221514653142928_-3"
   id="linearGradient204"
   x1="126004.66"
   y1="-64584.637"
   x2="126004.66"
   y2="-14405.535"
   gradientUnits="userSpaceOnUse" /><linearGradient
   inkscape:collect="always"
   xlink:href="#SVGID_00000152242517329389635290000007502664972841097399_-4"
   id="linearGradient206"
   x1="180407.91"
   y1="-63816.988"
   x2="180407.91"
   y2="-15173.191"
   gradientUnits="userSpaceOnUse" /><linearGradient
   inkscape:collect="always"
   xlink:href="#SVGID_00000125599818111560610170000005961212981912245926_-3"
   id="linearGradient209"
   x1="233462.45"
   y1="-63600.637"
   x2="233462.45"
   y2="-15389.543"
   gradientUnits="userSpaceOnUse" /><linearGradient
   inkscape:collect="always"
   xlink:href="#SVGID_00000000210689655942212340000015375568317689007030_-0"
   id="linearGradient211"
   x1="286660.5"
   y1="-63605.59"
   x2="286660.5"
   y2="-15384.59"
   gradientUnits="userSpaceOnUse" /><linearGradient
   inkscape:collect="always"
   xlink:href="#SVGID_00000120555014419973377970000015215854939472535222_-5"
   id="linearGradient213"
   x1="326976"
   y1="-76455.094"
   x2="326976"
   y2="-2535.0898"
   gradientUnits="userSpaceOnUse" /><linearGradient
   inkscape:collect="always"
   xlink:href="#SVGID_00000179616508108830815810000008405121974134893446_-5"
   id="linearGradient229"
   x1="619.32092"
   y1="115.7462"
   x2="619.32092"
   y2="864.95496"
   gradientUnits="userSpaceOnUse" /><linearGradient
   inkscape:collect="always"
   xlink:href="#SVGID_00000101074410511379626870000008542137217463676338_-3"
   id="linearGradient231"
   x1="1361.5383"
   y1="114.97331"
   x2="1361.5383"
   y2="864.95062"
   gradientUnits="userSpaceOnUse" /><linearGradient
   inkscape:collect="always"
   xlink:href="#SVGID_00000167394957007514639270000002992842118757093807_-6"
   id="linearGradient233"
   x1="1928.3022"
   y1="114.97663"
   x2="1928.3022"
   y2="864.90363"
   gradientUnits="userSpaceOnUse" /><linearGradient
   inkscape:collect="always"
   xlink:href="#SVGID_00000034787205620747636730000007950325857579349941_-7"
   id="linearGradient235"
   x1="2480.9009"
   y1="115.00503"
   x2="2480.9009"
   y2="864.9527"
   gradientUnits="userSpaceOnUse" /><linearGradient
   inkscape:collect="always"
   xlink:href="#SVGID_00000080910309501824886500000015374339441397179296_-6"
   id="linearGradient237"
   x1="2900.9961"
   y1="114.98361"
   x2="2900.9961"
   y2="864.78314"
   gradientUnits="userSpaceOnUse" />
	
		<linearGradient
   id="SVGID_00000099626388547976349230000011883329706908704914_"
   gradientUnits="userSpaceOnUse"
   x1="3405.8403"
   y1="628.6123"
   x2="3405.8403"
   y2="1378.4492">
		<stop
   offset="0"
   style="stop-color:#23BFD4"
   id="stop1" />
		<stop
   offset="0.7031"
   style="stop-color:#3F4DA0"
   id="stop2" />
	</linearGradient>
	
	
	
	
	
	
	
	
	
	
	

				
					<linearGradient
   id="linearGradient5"
   gradientUnits="userSpaceOnUse"
   x1="3405.8403"
   y1="628.6123"
   x2="3405.8403"
   y2="1378.4492">
					<stop
   offset="0"
   style="stop-color:#0094BF"
   id="stop3" />
					<stop
   offset="2.865892e-02"
   style="stop-color:#0090BD;stop-opacity:0.5"
   id="stop4" />
					<stop
   offset="1"
   style="stop-color:#282A71"
   id="stop5" />
				</linearGradient>
				
				
			<linearGradient
   inkscape:collect="always"
   xlink:href="#SVGID_00000034808674198326549920000014294978858919841453_-7"
   id="linearGradient377"
   gradientUnits="userSpaceOnUse"
   x1="326976"
   y1="-2535.0898"
   x2="326976"
   y2="-76455.094" />
			
			
			
		</defs>
				
			<g
   id="g1"
   inkscape:label="Logo"
   transform="translate(171.25587,94.921642)"><g
     inkscape:label="Model3"
     id="g143"
     transform="matrix(0.01041667,0,0,0.01041667,-0.806483,1414.9714)"
     style="display:inline;fill:#000000;fill-opacity:1;stroke:none"><path
       id="path30-0"
       style="fill:url(#linearGradient202);stroke:none;stroke-width:90.709;stroke-linecap:round"
       d="m 69780.723,-62751.857 c -322.098,-231.877 -708.139,-358.241 -1105.005,-361.705 -396.866,-3.463 -785.053,116.144 -1111.149,342.365 -326.096,226.221 -574.075,547.938 -709.792,920.89 L 54748.8,-28589.5 42642.824,-61850.307 c -135.718,-372.952 -383.697,-694.669 -709.793,-920.89 -326.096,-226.221 -714.283,-345.828 -1111.149,-342.365 -396.866,3.464 -782.907,129.828 -1105.005,361.705 -322.098,231.878 -564.424,557.874 -693.656,933.145 L 18940.8,-3495.08 H 28704 L 41365.3,-40266.1 54748.8,-3495.08 68132.3,-40266.1 80793.6,-3495.08 h 9763.2 L 70474.38,-61818.712 c -129.233,-375.271 -371.559,-701.267 -693.657,-933.145 z M 93206.4,-3495.08 H 102960 L 81193.617,-66709.199 c -831.359,-2414.489 -2357.501,-4529.564 -4386.806,-6079.683 -2029.305,-1550.118 -4471.326,-2466.19 -7019.473,-2633.204 -2548.147,-167.014 -5088.848,422.473 -7303.123,1694.452 -2214.275,1271.979 -4003.434,3169.759 -5142.851,5455.076 L 54748.8,-63072.7 52156.218,-68272.579 c -1139.399,-2285.296 -2928.558,-4183.076 -5142.833,-5455.055 -2214.275,-1271.979 -4754.976,-1861.466 -7303.123,-1694.452 -2548.147,167.014 -4990.168,1083.086 -7019.473,2633.204 -2029.305,1550.119 -3555.447,3665.194 -4386.806,6079.683 L 6537.6,-3495.08 h 9753.6 l 20422.684,-59311.727 c 290.709,-844.337 835.944,-1577.827 1560.665,-2099.552 724.72,-521.724 1593.312,-806.043 2486.26,-813.836 892.948,-7.793 1766.369,261.324 2500.085,770.321 733.716,508.997 1291.668,1232.859 1597.096,2071.981 l 9890.81,27174.793 9890.81,-27174.793 c 305.428,-839.122 863.38,-1562.984 1597.096,-2071.981 733.716,-508.997 1607.137,-778.114 2500.085,-770.321 892.948,7.793 1761.54,292.112 2486.26,813.836 724.721,521.725 1269.956,1255.215 1560.666,2099.552 z"
       inkscape:label="M"
       sodipodi:nodetypes="ssscccssscccccccccscccssscccsssccccssscccssscc" /><path
       id="path62"
       style="fill:url(#linearGradient204);stroke:none;stroke-width:90.709;stroke-linecap:round"
       d="m 123285.83,-25698.195 c -55.53,-9.038 -108.23,-20.336 -158.12,-33.894 -24.94,-6.778 -49.18,-14.122 -72.72,-22.03 -23.53,-7.909 -41.28,-14.305 -68.49,-25.421 -108.84,-44.46 -204.64,-104.533 -287.41,-180.218 -41.39,-37.843 -79.52,-79.589 -114.39,-125.237 -17.43,-22.825 -34.05,-46.625 -49.86,-71.401 -15.8,-24.776 -33.73,-56.061 -44.97,-77.255 -44.96,-84.777 -83.22,-181.78 -114.77,-291.01 -15.78,-54.615 -29.88,-112.287 -42.3,-173.015 -6.21,-30.364 -12.01,-61.493 -17.38,-93.385 -2.69,-15.947 -5.27,-32.084 -7.75,-48.412 -2.47,-16.329 -5.46,-37.351 -7.11,-49.559 -26.51,-195.313 -39.76,-422.929 -39.66,-682.858 v -23846.4 c -0.1,-129.297 3.18,-250.605 9.74,-363.915 3.28,-56.655 7.38,-111.311 12.3,-163.967 2.46,-26.328 5.12,-52.156 7.99,-77.484 1.43,-12.664 2.92,-25.203 4.46,-37.617 1.53,-12.415 2.52,-20.232 4.76,-36.868 17.94,-133.089 42.5,-254.08 73.68,-362.971 15.59,-54.446 32.83,-105.868 51.73,-154.264 9.45,-24.198 19.32,-47.641 29.59,-70.327 10.28,-22.685 18,-38.943 32.08,-65.789 56.31,-107.382 125.62,-199.146 207.92,-275.291 41.15,-38.073 85.54,-72.24 133.19,-102.503 23.82,-15.132 48.45,-29.287 73.9,-42.466 25.44,-13.18 56.52,-27.383 78.77,-36.609 177.97,-73.813 401.9,-110.719 671.89,-110.729 h 4704 c 133.5,0.01 255.82,9.048 366.87,27.124 55.53,9.039 108.23,20.337 158.12,33.894 24.94,6.779 49.18,14.122 72.72,22.031 23.53,7.908 41.28,14.305 68.49,25.42 108.84,44.46 204.64,104.533 287.41,180.219 41.39,37.842 79.52,79.588 114.39,125.237 17.43,22.824 34.05,46.624 49.86,71.4 15.8,24.776 33.73,56.061 44.97,77.255 44.96,84.777 83.22,181.78 114.77,291.01 15.78,54.615 29.88,112.287 42.3,173.016 6.21,30.364 12.01,61.492 17.38,93.385 2.69,15.946 5.27,32.083 7.75,48.412 2.47,16.328 5.46,37.351 7.11,49.558 26.51,195.313 39.76,422.93 39.86,682.839 v 23846.4 c -0.1,129.316 -3.38,250.624 -9.94,363.934 -3.28,56.655 -7.38,111.311 -12.3,163.967 -2.46,26.328 -5.12,52.156 -7.99,77.484 -1.43,12.664 -2.92,25.204 -4.46,37.618 -1.53,12.414 -2.52,20.231 -4.76,36.867 -17.94,133.089 -42.5,254.08 -73.68,362.972 -15.59,54.446 -32.83,105.867 -51.73,154.264 -9.45,24.198 -19.32,47.64 -29.59,70.326 -10.28,22.686 -18,38.944 -32.08,65.789 -56.31,107.383 -125.62,199.147 -207.92,275.291 -41.15,38.073 -85.54,72.241 -133.19,102.504 -23.82,15.131 -48.45,29.287 -73.9,42.466 -25.44,13.179 -56.52,27.382 -78.77,36.609 -177.97,73.812 -401.9,110.719 -671.69,110.709 h -4704 c -133.7,0.01 -256.02,-9.029 -367.07,-27.105 z m 9388.54,9702.322 c 301.35,-32.531 589.59,-73.194 864.7,-121.99 137.56,-24.399 271.83,-50.83 402.83,-79.294 65.5,-14.233 130.18,-28.973 194.04,-44.222 31.93,-7.624 63.65,-15.376 95.17,-23.254 15.76,-3.94 31.47,-7.911 47.12,-11.914 15.66,-4.002 25.97,-6.652 46.82,-12.103 667.25,-174.434 1260.87,-414.204 1780.88,-719.309 260,-152.553 501.6,-321.44 724.8,-506.66 111.59,-92.61 218.59,-189.304 320.98,-290.081 102.4,-100.777 205.72,-212.098 293.38,-314.582 350.67,-409.938 648.66,-891.786 893.98,-1445.544 122.66,-276.88 232.15,-571.737 328.47,-884.571 48.16,-156.418 93.02,-317.33 134.6,-482.736 20.79,-82.703 40.75,-166.529 59.89,-251.48 9.58,-42.475 18.94,-85.231 28.1,-128.268 4.58,-21.518 9.11,-43.107 13.59,-64.766 4.47,-21.659 10.07,-49.249 13.27,-65.187 204.67,-1020.074 307.01,-2234.622 307.01,-3643.656 v -28819.2 c 0,-702.154 -25.42,-1356.043 -76.25,-1961.659 -25.42,-302.808 -57.19,-593.547 -95.32,-872.218 -19.07,-139.335 -39.72,-275.653 -61.96,-408.954 -11.12,-66.651 -22.64,-132.547 -34.55,-197.689 -5.96,-32.571 -12.01,-64.954 -18.17,-97.147 -3.08,-16.097 -6.18,-32.147 -9.31,-48.15 -3.13,-16.002 -5.1,-26.075 -9.46,-47.866 -139.27,-697.332 -331.08,-1322.95 -575.44,-1876.854 -122.18,-276.953 -257.49,-535.976 -405.94,-777.072 -74.23,-120.548 -151.74,-236.613 -232.53,-348.197 -40.4,-55.792 -81.61,-110.463 -123.65,-164.014 -42.04,-53.55 -82.13,-102.726 -128.58,-157.29 -371.6,-436.512 -816.75,-807.736 -1335.45,-1113.672 -259.35,-152.968 -537.08,-289.614 -833.21,-409.938 -148.06,-60.162 -300.71,-116.243 -457.97,-168.244 -78.63,-26 -158.4,-50.981 -239.33,-74.941 -40.46,-11.98 -81.21,-23.705 -122.25,-35.175 -20.52,-5.735 -41.11,-11.406 -61.77,-17.014 -20.66,-5.607 -46.6,-12.522 -62.2,-16.631 -998.45,-262.977 -2209.07,-394.465 -3631.76,-394.475 l -9407.9,-0.01 c -707.87,0.02 -1363.06,32.551 -1965.77,97.612 -301.35,32.531 -589.59,73.195 -864.7,121.991 -137.56,24.398 -271.83,50.829 -402.83,79.294 -65.5,14.232 -130.18,28.973 -194.04,44.221 -31.93,7.625 -63.65,15.376 -95.17,23.255 -15.76,3.939 -31.47,7.91 -47.12,11.913 -15.66,4.003 -25.97,6.653 -46.82,12.104 -667.25,174.434 -1260.87,414.203 -1780.88,719.309 -260,152.552 -501.6,321.439 -724.8,506.659 -111.59,92.611 -218.59,189.304 -320.98,290.082 -102.4,100.777 -205.72,212.097 -293.38,314.582 -350.67,409.937 -648.66,891.785 -893.98,1445.544 -122.66,276.879 -232.15,571.736 -328.47,884.571 -48.16,156.417 -93.02,317.329 -134.6,482.735 -20.79,82.703 -40.75,166.53 -59.89,251.48 -9.58,42.475 -18.94,85.231 -28.1,128.268 -4.58,21.519 -9.11,43.107 -13.59,64.766 -4.47,21.659 -10.07,49.249 -13.27,65.188 -204.67,1020.073 -307.01,2234.621 -306.81,3643.636 v 28819.2 c -0.2,702.173 25.22,1356.063 76.05,1961.678 25.42,302.808 57.19,593.547 95.32,872.218 19.07,139.335 39.72,275.654 61.96,408.955 11.12,66.65 22.64,132.547 34.55,197.689 5.96,32.57 12.01,64.953 18.17,97.147 3.08,16.097 6.18,32.146 9.31,48.149 3.13,16.003 5.1,26.075 9.46,47.867 139.27,697.331 331.08,1322.949 575.44,1876.854 122.18,276.952 257.49,535.976 405.94,777.071 74.23,120.548 151.74,236.614 232.53,348.197 40.4,55.792 81.61,110.463 123.65,164.014 42.04,53.551 82.13,102.727 128.58,157.291 371.6,436.512 816.75,807.736 1335.45,1113.672 259.35,152.967 537.08,289.613 833.21,409.937 148.06,60.162 300.71,116.243 457.97,168.244 78.63,26.001 158.4,50.981 239.33,74.941 40.46,11.98 81.21,23.705 122.25,35.175 20.52,5.735 41.11,11.407 61.77,17.014 20.66,5.608 46.6,12.522 62.2,16.631 998.45,262.977 2209.07,394.466 3631.96,394.456 h 9408 c 707.57,0.01 1362.76,-32.521 1965.47,-97.583 z m -31563.63,-4967.534 c 65.18,726.548 146.65,1425.663 244.42,2097.346 48.88,335.842 101.84,664.825 158.87,986.951 28.52,161.062 58.05,320.411 88.6,478.044 15.28,78.817 30.81,157.205 46.59,235.165 7.9,38.98 15.85,77.852 23.87,116.618 4.01,19.382 8.04,38.738 12.08,58.068 4.04,19.329 6.76,32.293 12.18,57.907 346.43,1639.243 816.64,3117.598 1410.64,4435.063 296.99,658.732 624.93,1277.242 983.82,1855.53 179.44,289.144 366.62,568.232 561.53,837.2649 97.46,134.5164 196.85,266.5188 298.18,396.0074 50.66,64.7442 101.81,128.86 153.44,192.3474 51.63,63.4873 100.23,122.1893 156.34,188.5765 897.76,1062.1947 1961.18,1969.1749 3190.26,2720.9404 614.54,375.8828 1270.49,712.9619 1967.86,1011.2373 348.68,149.1378 707.72,288.5746 1077.11,418.3105 184.7,64.8679 371.98,127.3107 561.86,187.3282 94.93,30.0087 190.51,59.4112 286.75,88.2073 48.11,14.3981 96.39,28.6445 144.83,42.7395 24.22,7.0474 48.48,14.057 72.78,21.0286 24.3,6.9717 54.18,15.4741 73.02,20.8014 2410.92,681.8968 5304.07,1022.8453 8679.33,1022.8455 h 9379.1 c 1689.42,-2e-4 3257.95,-85.4192 4705.81,-256.2573 723.93,-85.419 1417.69,-192.1928 2081.28,-320.3214 331.79,-64.0643 656.04,-133.4672 972.75,-208.2089 158.36,-37.3708 314.83,-76.0763 469.41,-116.1165 77.29,-20.0201 154.11,-40.3738 230.46,-61.0612 38.18,-10.3438 76.23,-20.7709 114.17,-31.2814 18.97,-5.2553 37.91,-10.5314 56.82,-15.8284 18.91,-5.297 32.3,-9.0584 56.65,-15.9535 1558.24,-441.2895 2951.26,-1037.6317 4179.04,-1789.0264 613.9,-375.6974 1186.48,-790.1579 1717.76,-1243.3816 265.64,-226.6119 520.95,-462.9145 765.94,-708.9079 122.49,-122.9968 242.4,-248.4162 359.73,-376.2583 58.67,-63.921 116.69,-128.4478 174.06,-193.5802 57.38,-65.1324 117.48,-134.8589 170.19,-197.2142 843.38,-997.6837 1562.48,-2157.2167 2157.31,-3478.5987 297.41,-660.69 563.75,-1361.843 799.02,-2103.458 117.63,-370.808 227.5,-751.731 329.6,-1142.77 51.05,-195.519 100.16,-393.567 147.33,-594.144 23.58,-100.289 46.68,-201.209 69.29,-302.762 11.31,-50.777 22.49,-101.711 33.56,-152.804 5.53,-25.546 11.03,-51.132 16.5,-76.758 5.47,-25.625 12.27,-57.763 16.32,-76.994 518.13,-2461.626 777.2,-5359.997 777,-8695.124 v -27686.4 c 0.2,-1672.544 -64.98,-3235.368 -195.34,-4688.464 -65.18,-726.547 -146.65,-1425.663 -244.42,-2097.346 -48.88,-335.841 -101.84,-664.825 -158.87,-986.95 -28.52,-161.063 -58.05,-320.411 -88.6,-478.045 -15.28,-78.817 -30.81,-157.205 -46.59,-235.164 -7.9,-38.98 -15.85,-77.853 -23.87,-116.618 -4.01,-19.383 -8.04,-38.739 -12.08,-58.068 -4.04,-19.329 -6.76,-32.294 -12.18,-57.907 -346.43,-1639.244 -816.64,-3117.599 -1410.64,-4435.063 -296.99,-658.733 -624.93,-1277.243 -983.82,-1855.531 -179.44,-289.144 -366.62,-568.232 -561.53,-837.265 -97.46,-134.516 -196.85,-266.518 -298.18,-396.007 -50.66,-64.744 -101.81,-128.86 -153.44,-192.347 -51.63,-63.488 -100.23,-122.19 -156.34,-188.577 -897.76,-1062.195 -1961.18,-1969.175 -3190.26,-2720.94 -614.54,-375.883 -1270.49,-712.962 -1967.86,-1011.238 -348.68,-149.137 -707.72,-288.574 -1077.11,-418.31 -184.7,-64.868 -371.98,-127.311 -561.86,-187.328 -94.93,-30.009 -190.51,-59.411 -286.75,-88.208 -48.11,-14.398 -96.39,-28.644 -144.83,-42.739 -24.22,-7.047 -48.48,-14.057 -72.78,-21.029 -24.3,-6.971 -54.18,-15.474 -73.02,-20.801 -2410.92,-681.897 -5304.07,-1022.845 -8679.63,-1022.855 h -9379.1 c -1689.12,0.01 -3257.65,85.429 -4705.51,256.267 -723.93,85.419 -1417.69,192.193 -2081.28,320.321 -331.79,64.064 -656.04,133.467 -972.75,208.209 -158.36,37.371 -314.83,76.076 -469.41,116.117 -77.29,20.02 -154.11,40.373 -230.46,61.061 -38.18,10.344 -76.23,20.771 -114.17,31.281 -18.97,5.255 -37.91,10.532 -56.82,15.829 -18.91,5.297 -32.3,9.058 -56.65,15.953 -1558.24,441.29 -2951.26,1037.632 -4179.04,1789.026 -613.9,375.698 -1186.48,790.158 -1717.76,1243.382 -265.64,226.612 -520.95,462.915 -765.94,708.908 -122.49,122.997 -242.4,248.416 -359.73,376.258 -58.67,63.921 -116.69,128.448 -174.06,193.58 -57.38,65.133 -117.48,134.859 -170.19,197.215 -843.38,997.684 -1562.48,2157.217 -2157.31,3478.598 -297.41,660.691 -563.75,1361.844 -799.02,2103.459 -117.63,370.807 -227.5,751.73 -329.6,1142.769 -51.05,195.519 -100.16,393.567 -147.33,594.145 -23.58,100.288 -46.68,201.209 -69.29,302.762 -11.31,50.776 -22.49,101.711 -33.56,152.803 -5.53,25.547 -11.03,51.133 -16.5,76.758 -5.47,25.625 -12.27,57.763 -16.32,76.994 -518.13,2461.626 -777.2,5359.998 -777.3,8695.105 v 27686.4 c 0.1,1672.563 65.28,3235.388 195.64,4688.483 z m 34752.93,-44158.901 c 306.7,99.995 602.39,212.49 887.06,337.484 71.16,31.248 141.64,63.278 211.43,96.089 69.79,32.811 150.33,71.9 229.76,112.113 158.88,80.427 313.77,165.009 464.69,253.747 301.83,177.476 587.74,371.575 857.73,582.297 134.99,105.361 266.01,214.878 393.04,328.55 63.52,56.836 126.04,114.711 187.57,173.625 61.53,58.914 127.99,124.945 181.6,179.859 1715.37,1757.254 2573.05,4315.742 2573.25,7675.454 v 31776 c -0.2,1678.799 -214.35,3157.541 -642.66,4436.235 -214.15,639.347 -481.84,1228.682 -803.07,1768.005 -160.62,269.662 -334.61,526.821 -522,771.477 -93.69,122.327 -190.73,241.53 -291.11,357.606 -50.19,58.038 -101.22,115.295 -153.09,171.77 -25.93,28.238 -52.07,56.28 -78.42,84.127 -26.35,27.847 -49.93,52.442 -79.68,82.955 -475.99,488.207 -1015.66,909.933 -1619,1265.176 -150.83,88.811 -305.64,173.466 -464.44,253.967 -79.4,40.25 -159.89,79.376 -229.72,112.254 -69.83,32.877 -140.35,64.972 -211.56,96.283 -284.85,125.248 -580.73,237.97 -887.65,338.168 -1227.69,400.791 -2632.03,601.187 -4213.2,601.177 h -11299.1 c -1579.26,0.01 -2982.35,-199.981 -4209.17,-599.962 -306.7,-99.996 -602.39,-212.49 -887.06,-337.484 -71.16,-31.249 -141.64,-63.279 -211.43,-96.09 -69.79,-32.811 -150.33,-71.899 -229.76,-112.113 -158.88,-80.426 -313.77,-165.009 -464.69,-253.747 -301.83,-177.476 -587.74,-371.575 -857.73,-582.297 -134.99,-105.361 -266.01,-214.877 -393.04,-328.55 -63.52,-56.836 -126.04,-114.711 -187.57,-173.625 -61.53,-58.914 -127.99,-124.945 -181.6,-179.859 -1715.37,-1757.254 -2573.05,-4315.742 -2573.05,-7675.473 v -31776 c 0,-1678.78 214.15,-3157.521 642.46,-4436.215 214.15,-639.348 481.84,-1228.683 803.07,-1768.006 160.62,-269.662 334.61,-526.82 522,-771.476 93.69,-122.328 190.73,-241.53 291.11,-357.607 50.19,-58.038 101.22,-115.294 153.09,-171.77 25.93,-28.237 52.07,-56.28 78.42,-84.127 26.35,-27.847 49.93,-52.441 79.68,-82.954 475.99,-488.208 1015.66,-909.933 1619,-1265.177 150.83,-88.81 305.64,-173.466 464.44,-253.967 79.4,-40.25 159.89,-79.376 229.72,-112.253 69.83,-32.878 140.35,-64.972 211.56,-96.284 284.85,-125.247 580.73,-237.97 887.65,-338.168 1227.69,-400.791 2632.03,-601.186 4212.9,-601.196 h 11299.1 c 1579.56,0.01 2982.65,200 4209.47,599.982 z"
       inkscape:label="O"
       sodipodi:nodetypes="sssssssssssscccsssssssssssssccsssssssssssscccsssssssssssssccsssssssssssssssssscccsssssscssssssssssssccsssssssssscsssssscccsssssscssssssssssssccsssssssscssssssssssssscccssssssscssssssssssssscccssssssscssssssssssssscccssssssscssssscssssssscccssssssssscccssssssssssssccsssssssscccssssssssssssccs" /><path
       id="path91"
       style="fill:url(#linearGradient206);stroke:none;stroke-width:90.709;stroke-linecap:round"
       d="m 156086,-53319.1 v -9772.8 l 28253.1,0.01 c 1422.89,0.01 2633.51,131.498 3631.96,394.475 15.6,4.109 41.54,11.024 62.2,16.631 20.66,5.608 41.25,11.279 61.77,17.014 41.04,11.47 81.79,23.195 122.25,35.175 80.93,23.96 160.7,48.941 239.33,74.941 157.26,52.001 309.91,108.082 457.97,168.244 296.13,120.324 573.86,256.97 833.21,409.938 518.7,305.936 963.85,677.16 1335.45,1113.672 46.45,54.564 86.54,103.74 128.58,157.29 42.04,53.551 83.25,108.222 123.65,164.014 80.79,111.584 158.3,227.649 232.53,348.197 148.45,241.096 283.76,500.119 405.94,777.072 244.36,553.904 436.17,1179.522 575.44,1876.854 4.36,21.791 6.33,31.864 9.46,47.866 3.13,16.003 6.23,32.053 9.31,48.15 6.16,32.193 12.21,64.576 18.17,97.147 11.91,65.142 23.43,131.038 34.55,197.689 22.24,133.301 42.89,269.619 61.96,408.954 38.13,278.671 69.9,569.41 95.32,872.218 50.83,605.616 76.25,1259.505 76.05,1961.659 v 28819.2 c 0.2,1409.034 -102.14,2623.582 -306.81,3643.656 -3.2,15.938 -8.8,43.528 -13.27,65.187 -4.48,21.659 -9.01,43.248 -13.59,64.766 -9.16,43.037 -18.52,85.793 -28.1,128.268 -19.14,84.951 -39.1,168.777 -59.89,251.48 -41.58,165.406 -86.44,326.318 -134.6,482.736 -96.32,312.834 -205.81,607.691 -328.47,884.571 -245.32,553.758 -543.31,1035.606 -893.98,1445.544 -87.66,102.484 -190.98,213.805 -293.38,314.582 -102.39,100.777 -209.39,197.471 -320.98,290.081 -223.2,185.22 -464.8,354.107 -724.8,506.66 -520.01,305.105 -1113.63,544.875 -1780.88,719.309 -20.85,5.451 -31.16,8.101 -46.82,12.103 -15.65,4.003 -31.36,7.974 -47.12,11.914 -31.52,7.878 -63.24,15.63 -95.17,23.254 -63.86,15.249 -128.54,29.989 -194.04,44.222 -131,28.464 -265.27,54.895 -402.83,79.294 -275.11,48.796 -563.35,89.459 -864.7,121.99 -602.71,65.062 -1257.9,97.593 -1965.67,97.583 l -16358.1,-0.01 v -34531.2 h 10272 l -0.1,22780.81 c -0.1,281.193 36.1,537.37 108.5,768.542 9.05,28.897 21.37,65.356 33.09,97.089 11.73,31.732 24.15,62.835 37.27,93.307 26.23,60.945 55.26,119.37 87.06,175.274 63.61,111.809 138.37,213.536 224.26,305.182 171.79,183.293 391.71,326.313 648.67,417.2 64.23,22.722 115.65,37.818 175.91,52.945 60.25,15.127 122.13,27.732 185.61,37.817 126.98,20.169 260.42,30.254 400.53,30.244 h 1622.2 c 281.41,0.01 536.65,-40.784 765.7,-122.371 57.26,-20.397 125.55,-48.625 184.52,-77.439 58.97,-28.814 115.39,-60.629 169.28,-95.444 107.77,-69.631 205.39,-151.264 292.84,-244.9 174.91,-187.273 298.32,-407.366 380.66,-671.461 10.29,-33.012 17.4,-58.016 25.26,-87.606 7.86,-29.59 15.16,-59.568 21.9,-89.933 13.48,-60.73 24.71,-123.011 33.69,-186.842 17.97,-127.662 26.95,-261.527 27.05,-401.604 v -23692.8 c -0.1,-281.173 -36.3,-537.351 -108.7,-768.523 -9.05,-28.897 -21.37,-65.356 -33.09,-97.088 -11.73,-31.733 -24.15,-62.835 -37.27,-93.308 -26.23,-60.945 -55.26,-119.369 -87.06,-175.274 -63.61,-111.808 -138.37,-213.536 -224.26,-305.182 -171.79,-183.292 -391.71,-326.313 -648.67,-417.2 -64.23,-22.722 -115.65,-37.817 -175.91,-52.944 -60.25,-15.127 -122.13,-27.733 -185.61,-37.818 -126.98,-20.169 -260.42,-30.253 -400.33,-30.263 z m 36932.4,-21163.688 c 18.82,5.272 48.9,13.747 73.28,20.678 24.39,6.931 48.73,13.9 73.04,20.906 48.61,14.014 97.05,28.18 145.33,42.497 96.56,28.635 192.47,57.879 287.73,87.73 190.51,59.703 378.4,121.839 563.68,186.407 370.56,129.136 730.65,268.002 1080.27,416.597 699.26,297.192 1356.66,633.303 1972.21,1008.333 1231.09,750.061 2294.75,1655.8 3191,2717.217 56.02,66.339 104.47,124.936 155.99,188.357 51.51,63.42 102.53,127.476 153.08,192.166 101.08,129.381 200.23,261.303 297.45,395.765 194.42,268.923 381.11,548.008 560.04,837.254 357.88,578.492 684.78,1197.629 980.71,1857.411 591.85,1319.562 1059.79,2801.704 1403.83,4446.425 5.38,25.699 8.04,38.549 12.04,57.864 4,19.315 7.98,38.657 11.95,58.026 7.93,38.739 15.8,77.585 23.6,116.54 15.62,77.91 30.98,156.253 46.09,235.03 30.21,157.552 59.42,316.837 87.62,477.854 56.41,322.035 108.79,651 157.13,986.895 96.7,671.79 177.28,1371.3 241.74,2098.53 128.93,1454.461 193.39,3019.803 193.59,4696.016 v 27686.4 c -0.2,3342.777 -256.47,6244.129 -769.02,8704.067 -4,19.218 -10.77,51.538 -16.21,77.247 -5.43,25.71 -10.9,51.379 -16.39,77.008 -10.99,51.259 -22.1,102.358 -33.33,153.297 -22.47,101.878 -45.42,203.118 -68.86,303.719 -46.87,201.202 -95.69,399.848 -146.45,595.939 -101.53,392.182 -210.82,774.143 -327.9,1145.883 -234.15,743.479 -499.4,1446.074 -795.75,2107.783 -592.7,1323.42 -1309.8,2483.3 -2151.31,3479.6405 -52.6,62.2712 -112.63,131.9732 -169.93,197.0486 -57.29,65.0755 -115.24,129.5435 -173.83,193.4041 -117.2,127.7211 -237,253.0126 -359.42,375.8742 -244.83,245.7234 -500.09,481.7278 -765.79,708.0132 -531.4,452.5709 -1104.54,866.2658 -1719.43,1241.0849 -1229.78,749.6382 -2626.54,1343.7729 -4190.27,1782.404 -24.43,6.8536 -37.7,10.546 -56.59,15.7881 -18.9,5.242 -37.82,10.4634 -56.78,15.6642 -37.91,10.4015 -75.93,20.7205 -114.08,30.9569 -76.29,20.4729 -153.07,40.6155 -230.31,60.428 -154.49,39.6249 -310.89,77.9289 -469.2,114.9122 -316.61,73.9664 -640.84,142.6496 -972.69,206.0494 -663.71,126.7996 -1357.91,232.466 -2082.61,316.9991 -1449.38,169.0662 -3020.73,253.5993 -4713.85,253.5995 l -28243.8,1e-4 V -50429.5 h 9245 v 37161.6 l 19958.8,0.01 c 1580.77,0.01 2985.11,-200.386 4212.8,-601.177 306.92,-100.198 602.8,-212.92 887.65,-338.168 71.21,-31.311 141.73,-63.406 211.56,-96.283 69.83,-32.878 150.32,-72.004 229.72,-112.254 158.8,-80.501 313.61,-165.156 464.44,-253.967 603.34,-355.243 1143.01,-776.969 1619,-1265.176 29.75,-30.513 53.33,-55.108 79.68,-82.955 26.35,-27.847 52.49,-55.889 78.42,-84.127 51.87,-56.475 102.9,-113.732 153.09,-171.77 100.38,-116.076 197.42,-235.279 291.11,-357.606 187.39,-244.656 361.38,-501.815 522,-771.477 321.23,-539.323 588.92,-1128.658 803.07,-1768.005 428.31,-1278.694 642.46,-2757.436 642.56,-4436.235 v -31776 c -0.1,-3359.712 -857.78,-5918.2 -2573.15,-7675.454 -53.61,-54.914 -120.07,-120.945 -181.6,-179.859 -61.53,-58.914 -124.05,-116.789 -187.57,-173.625 -127.03,-113.672 -258.05,-223.189 -393.04,-328.55 -269.99,-210.722 -555.9,-404.821 -857.73,-582.297 -150.92,-88.738 -305.81,-173.32 -464.69,-253.747 -79.43,-40.213 -159.97,-79.302 -229.76,-112.113 -69.79,-32.811 -140.27,-64.841 -211.43,-96.089 -284.67,-124.994 -580.36,-237.489 -887.06,-337.484 -1226.82,-399.982 -2629.91,-599.972 -4209.07,-599.982 l -29203.8,-0.01 v -9772.8 l 28243.8,0.01 c 3383.45,0.01 6279.72,337.44 8688.6,1012.302 z"
       inkscape:label="D"
       sodipodi:nodetypes="cccsssssssssssscsssssscccssssssssssssssssscccccssssssssccssssssssccsssssssscccssssssscssssscssssssscccssssssscssssscsssssssccccccsssssssssssscccssssssssccccc" /><path
       id="path123"
       style="fill:url(#linearGradient209);stroke:none;stroke-width:90.709;stroke-linecap:round"
       d="m 230707.2,-27571.88 c 0,223.244 26.9,438.598 80.69,646.061 26.89,103.732 64.19,215.919 106.45,315.518 42.25,99.598 91.28,193.623 147.07,282.074 27.9,44.225 64.18,96.646 98.58,140.988 34.4,44.341 70.35,86.028 107.83,125.061 74.96,78.065 156.09,145.513 243.38,202.342 87.29,56.83 192.68,107.917 295.4,139.741 102.72,31.824 212.87,49.015 322.3,49.005 l 25459.1,-0.01 v 9772.8 h -25680 m 0,0.02 c -1454.28,0 -2822.39,-294.551 -4104.33,-883.653 -1281.93,-589.102 -2390.84,-1432.663 -3326.5,-2530.586 -116.96,-137.24 -221.14,-266.092 -326.62,-403.063 -105.48,-136.971 -207.56,-276.558 -306.25,-418.762 -197.37,-284.407 -381.17,-579.28 -551.38,-884.619 -340.42,-610.678 -626.52,-1263.218 -858.3,-1957.621 -28.97,-86.8 -53.69,-163.729 -79.27,-246.026 -25.57,-82.297 -50.29,-164.882 -74.15,-247.756 -47.74,-165.748 -92.06,-332.65 -132.97,-500.705 -81.83,-336.111 -150.02,-676.837 -204.57,-1022.178 -109.11,-690.683 -163.66,-1399.827 -163.66,-2127.441 V -38285.5 h 30230 v 9724.8 h -21283 v 988.8 m 0,-23846.4 v 988.8 h 21283 v 9724.8 h -30230 v -11164.79 c 0,-1459.804 219.5,-2845.019 658.49,-4155.635 27.43,-81.913 58.96,-172.866 89.72,-258.316 30.76,-85.449 62.36,-170.242 94.81,-254.38 64.9,-168.274 133.19,-333.925 204.87,-496.952 143.36,-326.055 300.28,-641.613 470.75,-946.677 340.96,-610.126 736.14,-1178.272 1185.56,-1704.435 112.36,-131.541 237.05,-270.377 359.62,-399.589 122.57,-129.213 247.84,-254.441 375.82,-375.686 255.94,-242.489 522.69,-469.043 800.23,-679.662 555.09,-421.237 1153.38,-778.732 1794.88,-1072.486 1282.99,-587.507 2643.49,-878.572 4093.25,-878.582 l 25680,-0.01 v 9772.8 l -25459.1,0.01 c -219.13,0.01 -425.48,63.248 -619.17,189.723 -48.42,31.619 -85.7,59.628 -126.24,93.422 -40.54,33.793 -79.54,70.239 -116.99,109.339 -74.91,78.198 -143.64,167.009 -206.2,266.431 -31.27,49.711 -54.08,90.054 -78.58,137.171 -24.5,47.118 -47.29,95.63 -68.4,145.535 -42.2,99.811 -77.6,205.197 -106.22,316.159 -28.61,110.962 -46.61,208.505 -59.92,315.677 -13.32,107.172 -19.98,216.289 -19.98,327.353 M 257568,-75495.1 v 9772.8 l -26640,0.01 c -1623.55,0.01 -3171.91,322.421 -4645.07,967.244 -1473.16,644.823 -2750.06,1555.893 -3851.23,2742.195 -275.29,296.575 -523.99,592.716 -762.27,905.848 -238.29,313.132 -460.77,637.446 -667.44,972.943 -413.35,670.995 -763.47,1386.719 -1050.36,2147.174 -71.72,190.113 -135.82,372.724 -197.16,560.711 -61.34,187.988 -118.3,377.06 -170.88,567.216 -105.15,380.312 -192.78,764.96 -262.88,1153.943 -140.21,777.968 -210.31,1573.28 -210.51,2385.926 v 27648 c 0.2,1628.163 281.56,3186.608 844.28,4675.347 70.34,186.092 147.75,377.639 227.57,562.254 79.81,184.614 163.58,366.426 251.31,545.433 175.45,358.015 366.73,704.817 573.83,1040.404 414.2,671.175 891.71,1297.494 1432.52,1878.957 270.4,290.732 562.6,575.607 860.99,837.867 298.4,262.26 608.19,507.491 929.39,735.693 642.38,456.404 1330.36,844.693 2063.93,1164.865 1467.14,640.345 3014.66,962.39 4633.98,962.38 l 26640,-0.01 v 9772.82 l -27811.1,-1e-4 c -2741.99,-2e-4 -5416.91,-642.7093 -8024.85,-1928.1273 -81.49,-40.1693 -153.35,-76.1733 -229.61,-114.9422 -76.27,-38.769 -152.27,-77.9929 -227.99,-117.6716 -151.44,-79.3576 -301.8,-160.5348 -451.07,-243.5315 -298.54,-165.9936 -592.73,-339.2656 -882.56,-519.816 -579.67,-361.1008 -1141.92,-751.3155 -1686.77,-1170.6438 -1089.69,-838.6568 -2109.73,-1793.7687 -3060.13,-2865.3355 -118.8,-133.946 -229.77,-261.957 -342.2,-394.511 -112.43,-132.555 -223.23,-266.161 -332.39,-400.817 -218.33,-269.312 -430.12,-542.829 -635.36,-820.548 -410.5,-555.439 -794.84,-1127.691 -1153.02,-1716.757 -716.37,-1178.132 -1328.11,-2423.519 -1835.23,-3736.16 -253.56,-656.32 -480.91,-1331.154 -673.28,-2001.768 -192.36,-670.613 -352.67,-1344.584 -480.91,-2021.913 -256.49,-1354.656 -384.73,-2722.742 -384.63,-4104.268 v -27686.4 c -0.1,-2762.261 512.47,-5470.54 1537.62,-8124.829 256.29,-663.572 532.65,-1294.768 838.09,-1916.946 305.45,-622.177 636.98,-1227.549 994.59,-1816.117 715.23,-1177.135 1534.78,-2287.052 2458.67,-3329.749 115.49,-130.337 239.02,-266.704 360.17,-397.316 121.15,-130.611 243.38,-259.396 366.71,-386.354 246.65,-253.915 497.67,-500.523 753.04,-739.823 510.75,-478.601 1038.93,-927.97 1584.56,-1348.11 1091.25,-840.278 2252.25,-1563.633 3483.02,-2170.066 76.92,-37.902 163.06,-79.684 244.68,-118.585 81.63,-38.901 163.32,-77.175 245.08,-114.821 163.51,-75.292 327.29,-148.074 491.32,-218.347 328.07,-140.546 657.18,-271.052 987.32,-391.52 660.3,-240.935 1324.76,-441.714 1993.38,-602.337 1337.24,-321.247 2691.12,-481.87 4061.75,-481.88 z"
       inkscape:label="E"
       sodipodi:nodetypes="cssssssscccccsssssssssscccccccccccccsssssssssccccssssssssccccssssssssccsssssssscccccsssssssssssssccsssssssssssssscc" /><path
       id="path139"
       style="fill:url(#linearGradient211);stroke:none;stroke-width:90.709;stroke-linecap:round"
       d="m 310771,-25671.1 v 9772.8 l -25689.2,0.01 c -1429.54,0.01 -2789.46,-307.153 -4079.94,-921.48 -322.62,-153.581 -621.47,-316.243 -916.98,-497.712 -295.52,-181.468 -580.89,-378.502 -856.11,-591.1 -550.44,-425.196 -1060.29,-912.651 -1529.55,-1462.365 -117.32,-137.428 -221.53,-265.832 -327.31,-402.38 -105.78,-136.548 -208.23,-275.517 -307.36,-416.907 -198.25,-282.782 -383.2,-575.248 -554.84,-877.4 -343.29,-604.304 -633.36,-1247.349 -870.22,-1929.136 -59.21,-170.447 -110.74,-329.969 -160.75,-496.323 -50.02,-166.353 -96.46,-333.619 -139.33,-501.798 -85.73,-336.358 -157.18,-676.366 -214.34,-1020.025 -114.31,-687.319 -171.47,-1389.24 -171.27,-2105.774 l 0.2,-48374.41 h 10070 v 47990.41 c 0,217.916 27.52,427.962 82.56,630.149 27.52,101.093 65.59,210.101 108.73,306.838 43.14,96.737 93.17,187.93 150.09,273.581 28.46,42.826 64.78,92.6 99.47,135.032 34.68,42.433 70.89,82.288 108.63,119.565 75.48,74.553 157.06,138.795 244.76,192.726 43.85,26.965 96,54.912 145.12,76.877 49.12,21.965 98.98,40.269 149.59,54.912 101.23,29.286 205.45,43.93 312.85,43.92 z m -27820.8,22176.0199 c -2796.42,-2e-4 -5491.2,-618.8864 -8084.15,-1856.6587 -162.06,-77.3607 -311.17,-150.969 -465,-229.2547 -153.82,-78.2856 -306.48,-158.4387 -457.96,-240.4591 -302.96,-164.041 -601.23,-335.5516 -894.8,-514.5318 -587.16,-357.9605 -1155.54,-745.7996 -1705.15,-1163.5174 -1099.23,-835.4355 -2123.38,-1790.3855 -3072.45,-2864.8502 -118.63,-134.308 -228.59,-261.809 -340.39,-394.412 -111.81,-132.602 -221.95,-266.337 -330.42,-401.204 -216.96,-269.734 -427.27,-543.995 -630.92,-822.786 -407.31,-557.58 -788.03,-1133.274 -1142.14,-1727.08 -708.23,-1187.614 -1310.06,-2447.68 -1805.5,-3780.198 -247.72,-666.259 -459.66,-1324.118 -643.53,-1994.275 -183.86,-670.157 -337.08,-1345.712 -459.66,-2026.666 -245.15,-1361.908 -367.73,-2745.411 -367.93,-4150.517 l -0.2,-49833.61 h 9754 v 49824.01 c 0,1628.163 281.36,3186.608 844.08,4675.347 70.34,186.092 147.75,377.639 227.57,562.254 79.81,184.614 163.58,366.426 251.31,545.433 175.45,358.015 366.73,704.817 573.83,1040.404 414.2,671.175 891.71,1297.494 1432.52,1878.957 270.4,290.732 562.6,575.607 860.99,837.867 298.4,262.26 608.19,507.491 929.39,735.693 642.38,456.404 1330.36,844.693 2063.93,1164.865 1467.14,640.345 3014.66,962.39 4634.18,962.38 l 26649.2,-0.01 v 9772.82 z"
       inkscape:label="L"
       sodipodi:nodetypes="cccsssssssssssccccsssssssscccsssssssssssssccccsssssssscccc" /><path
       id="path36-3"
       style="display:inline;fill:url(#linearGradient213);stroke:none;stroke-width:90.709;stroke-linecap:round"
       d="m 307450,-25671.1 v 9772.8 l 33954.9,0.01 c 712.41,0.01 1407.75,-76.355 2085.92,-229.086 339.08,-76.365 673.87,-171.821 1004.36,-286.369 330.5,-114.547 662.93,-251.143 978.61,-400.917 631.35,-299.548 1222.31,-661.374 1772.89,-1085.479 275.28,-212.053 540.47,-439.675 795.56,-682.867 127.54,-121.596 252.57,-247.084 375.06,-376.464 122.5,-129.381 247.08,-268.039 359.92,-399.82 451.34,-527.121 849.31,-1093.293 1193.9,-1698.516 172.3,-302.611 331.25,-614.985 476.86,-937.121 72.8,-161.068 142.27,-324.577 208.4,-490.526 66.14,-165.95 131.06,-340.443 188.39,-505.171 458.69,-1317.825 688.03,-2694.51 688.13,-4130.064 l 0.1,-11164.81 h -30231 v 9724.8 h 21274 v 988.81 c 0,111.073 -6.66,220.191 -19.98,327.362 -13.31,107.172 -31.31,204.716 -59.92,315.678 -28.62,110.961 -64.02,216.348 -106.22,316.158 -21.11,49.906 -43.9,98.417 -68.4,145.535 -24.5,47.118 -47.31,87.46 -78.58,137.171 -62.56,99.423 -131.29,188.233 -206.2,266.432 -37.45,39.099 -76.45,75.545 -116.99,109.339 -40.54,33.793 -77.82,61.802 -126.24,93.421 -193.69,126.476 -400.04,189.714 -619.27,189.704 z m 34046.6,-27598.966 c 102.72,31.825 208.11,82.911 295.4,139.741 87.29,56.83 168.42,124.277 243.38,202.342 37.48,39.033 73.43,80.72 107.83,125.062 34.4,44.341 70.68,96.762 98.58,140.988 55.79,88.45 104.82,182.475 147.07,282.074 42.26,99.598 79.56,211.785 106.45,315.517 53.79,207.463 80.69,422.817 80.69,646.052 v 988.79 h -21274 v 9724.8 h 30231 l -0.1,-11164.79 c -0.1,-716.515 -57.26,-1418.436 -171.57,-2105.754 -57.16,-343.66 -128.61,-683.668 -214.34,-1020.026 -42.87,-168.178 -89.31,-335.445 -139.33,-501.798 -50.01,-166.354 -101.54,-325.876 -160.75,-496.322 -236.86,-681.787 -526.93,-1324.832 -870.22,-1929.136 -171.64,-302.152 -356.59,-594.619 -554.84,-877.4 -99.13,-141.391 -201.58,-280.36 -307.36,-416.908 -105.78,-136.548 -209.99,-264.951 -327.31,-402.38 -469.26,-549.714 -979.11,-1037.169 -1529.55,-1462.365 -275.22,-212.598 -560.59,-409.631 -856.11,-591.1 -295.51,-181.469 -594.36,-344.13 -916.98,-497.712 -1290.48,-614.326 -2650.4,-921.489 -4079.64,-921.499 l -51388.9,-0.01 v 9772.8 l 51158.2,0.01 c 109.53,0.01 219.68,17.2 322.4,49.024 z m 12685.8,27598.986 c 0,804.637 -71.88,1594.592 -215.64,2369.865 -71.88,387.636 -161.73,771.602 -269.55,1151.896 -107.82,380.295 -232.03,752.829 -377.37,1129.874 -290.67,754.089 -643.98,1465.232 -1059.92,2133.428 -207.96,334.098 -431.59,657.459 -670.87,970.084 -239.29,312.625 -489.25,609.151 -764.83,905.665 -551.17,593.028 -1146.13,1118.889 -1784.87,1577.584 -319.37,229.348 -649.68,441.904 -990.95,637.669 -341.26,195.764 -687.08,371.882 -1056.63,536.919 -1478.2,660.144 -3020.52,990.216 -4626.87,990.206 l -34914.9,-0.01 v 9772.82 l 36086,-2e-4 c 1421.41,-1e-4 2809.12,-148.0694 4163.13,-444.2079 677.01,-148.0692 1345.6,-333.1558 2005.76,-555.2597 330.08,-111.0519 658.05,-231.3582 983.92,-360.9187 325.87,-129.5606 653.83,-270.3062 971.29,-416.4448 1269.85,-584.5544 2459.33,-1291.7066 3568.43,-2121.4567 554.55,-414.8751 1089.01,-860.3996 1603.37,-1336.5736 257.18,-238.0869 509.34,-483.8363 756.48,-737.248 123.56,-126.7059 245.88,-255.3273 366.93,-385.8644 121.06,-130.537 244.66,-267.303 359.4,-397.358 917.91,-1040.44 1727.69,-2159.133 2429.33,-3356.08 350.82,-598.473 674.61,-1216.509 971.36,-1854.108 148.38,-318.8 290,-642.491 424.86,-971.072 67.43,-164.291 133.17,-329.804 197.22,-496.54 64.05,-166.737 128.28,-339.887 187.09,-503.877 940.95,-2623.83 1411.43,-5366.96 1411.43,-8229.401 v -27667.2 c 0,-1427.385 -117.04,-2825.255 -351.13,-4193.6 -117.04,-684.172 -263.35,-1360.964 -438.91,-2030.374 -87.78,-334.705 -182.88,-667.565 -285.29,-998.579 -51.21,-165.508 -104.24,-330.554 -159.11,-495.138 -54.86,-164.585 -109.69,-323.488 -170.08,-492.37 -483.1,-1351.061 -1074.11,-2624.465 -1773.01,-3820.213 -349.45,-597.874 -725.88,-1176.335 -1129.28,-1735.381 -201.7,-279.523 -410.15,-554.192 -625.34,-824.008 -107.59,-134.908 -216.87,-268.603 -327.84,-401.084 -110.96,-132.482 -219.5,-259.069 -337.95,-393.804 -947.63,-1077.882 -1976.13,-2033.073 -3085.5,-2865.573 -554.69,-416.25 -1129.6,-801.828 -1724.72,-1156.732 -297.56,-177.452 -600.18,-347.236 -907.85,-509.352 -307.68,-162.116 -615.81,-314.44 -938.18,-463.343 -2579.04,-1191.226 -5294.31,-1786.839 -8145.81,-1786.849 l -53520,-0.01 v 9772.8 l 52348.9,0.01 c 801.56,0.01 1587.27,82.219 2357.05,246.637 384.89,82.208 765.79,184.97 1142.71,308.283 376.92,123.313 755.36,269.634 1118.8,431.597 726.87,323.925 1409.97,715.107 2049.28,1173.545 319.66,229.219 628.37,475.252 926.13,738.099 297.77,262.847 589.71,548.011 860.46,838.984 541.51,581.947 1020.42,1206.877 1436.72,1874.789 416.31,667.913 772.69,1385.759 1061.11,2132.687 576.83,1493.855 865.24,3046.718 865.24,4658.589 m -0.4,-0.02 v 27648"
       inkscape:label="3"
       transform="translate(9.1999969e-5,-2.0000007e-5)"
       sodipodi:nodetypes="cccsssssssssssccccccssssssssccsssssssccccccsssssssssssccccscsssssssssccccssssssssssssssccssssssssssssssccccssssssssccc" /></g><g
     id="g377"
     inkscape:label="Model3_mid"
     transform="translate(-49.825397,513.60493)"><path
       id="path228"
       style="display:inline;fill:url(#linearGradient229);stroke-linecap:round"
       d="m 205.79984,607.41099 -88.68089,257.54862 h 101.6 l 84.72093,-246.04648 c -32.55972,-3.36747 -65.10565,-7.19427 -97.64004,-11.50214 z m 124.32471,14.15882 -83.80573,243.3898 h 101.70025 l 81.01779,-235.29313 c -32.98797,-2.2501 -65.95758,-4.94132 -98.91231,-8.09667 z m 708.82285,3.58583 c -32.9985,2.89263 -66.06546,5.2275 -99.1567,7.09414 l 80.1274,232.70983 h 101.599 z m -126.26564,8.51989 c -33.48316,1.63629 -66.97992,2.81902 -100.44607,3.64164 l 78.38333,227.64244 h 101.70025 z m -376.90309,1.75752 83.54063,229.52656 82.35208,-226.26216 c -55.36815,0.005 -110.66072,-1.04752 -165.89271,-3.2644 z"
       inkscape:label="M_mid"
       sodipodi:nodetypes="cccccccccccccccccccccccc" /><path
       id="path223"
       style="display:inline;fill:url(#linearGradient231);stroke-linecap:round"
       d="m 1622.9376,498.86516 c -32.0857,10.18363 -64.1523,20.44768 -96.3,30.38677 v 126.20729 c 0,17.48749 -2.2326,32.89088 -6.6942,46.21061 -2.2307,6.65987 -5.0193,12.79902 -8.3654,18.41697 -1.6731,2.80898 -3.4854,5.48769 -5.4374,8.0362 -0.976,1.27424 -1.9867,2.51571 -3.0323,3.72484 -0.5228,0.60456 -1.0545,1.20127 -1.5948,1.78955 -0.2701,0.29415 -0.5425,0.58636 -0.817,0.87643 -0.2745,0.29008 -0.52,0.54619 -0.8299,0.86403 -4.9582,5.08549 -10.5798,9.47808 -16.8646,13.17853 -1.5711,0.92511 -3.1838,1.80728 -4.838,2.64583 -0.8271,0.41927 -1.6657,0.82696 -2.3931,1.16944 -0.7274,0.34247 -1.4617,0.67637 -2.2035,1.00252 -2.9671,1.30467 -6.0493,2.47905 -9.2464,3.52278 -12.7885,4.1749 -27.4173,6.26226 -43.8878,6.26215 h -117.6988 c -16.4506,1.1e-4 -31.0659,-2.08328 -43.8453,-6.24975 -3.1948,-1.04162 -6.275,-2.21301 -9.2403,-3.51503 -0.7412,-0.32551 -1.4755,-0.65918 -2.2025,-1.00097 -0.7269,-0.34178 -1.5662,-0.74899 -2.3936,-1.16789 -1.655,-0.83777 -3.2684,-1.71889 -4.8405,-2.64325 -3.1441,-1.84871 -6.122,-3.87076 -8.9344,-6.06578 -1.4062,-1.09751 -2.7711,-2.23792 -4.0943,-3.42201 -0.6617,-0.59204 -1.313,-1.19498 -1.9539,-1.80867 -0.641,-0.61368 -1.333,-1.30177 -1.8914,-1.87379 -17.8684,-18.30473 -26.8026,-44.95554 -26.8076,-79.95274 l -0.01,-48.82493 c -31.988,4.80422 -64.1013,8.93507 -96.3042,12.47779 l 0.01,15.04714 c 0.01,33.76577 2.5581,63.23813 7.6584,88.41735 0.1593,0.78684 0.3214,1.56971 0.4858,2.34817 0.041,0.19461 0.1055,0.49921 0.1607,0.75706 0.055,0.25784 0.1107,0.51498 0.1664,0.77205 0.1116,0.51415 0.2246,1.02681 0.3385,1.53789 0.4555,2.0443 0.9302,4.06394 1.4237,6.05906 0.9868,3.99023 2.0491,7.88226 3.1874,11.67577 2.2764,7.58705 4.8556,14.78094 7.7375,21.58112 5.7635,13.60034 12.7377,25.62656 20.9227,36.07945 1.0231,1.30661 2.065,2.58884 3.1259,3.84627 0.5306,0.62872 1.1337,1.32972 1.7121,1.98851 0.5784,0.6588 1.1627,1.31161 1.7539,1.95854 2.3645,2.58774 4.8304,5.08065 7.3975,7.47861 5.1339,4.79591 10.6733,9.212 16.6176,13.24881 11.8884,8.0736 25.3971,14.62932 40.5262,19.6665 1.8912,0.62964 3.8077,1.23526 5.7495,1.81746 0.971,0.2911 1.948,0.57652 2.9316,0.85576 0.4919,0.13962 0.8069,0.22769 1.1891,0.33383 0.3822,0.10614 0.7657,0.21123 1.1503,0.31574 3.0763,0.83612 6.2262,1.62041 9.45,2.35231 6.4474,1.46379 13.1897,2.71925 20.2267,3.76618 14.0741,2.09384 29.3275,3.35376 45.76,3.78013 99.8229,-25.24759 195.6828,-49.00609 287.9452,-71.15173 6.9287,-10.57154 12.8134,-22.49697 17.6558,-35.77921 2.4211,-6.64112 4.5817,-13.6212 6.4818,-20.94084 0.9501,-3.65981 1.8353,-7.4045 2.6551,-11.23394 0.1025,-0.47868 0.2038,-0.9582 0.2791,-1.31826 0.075,-0.36006 0.15,-0.7213 0.2242,-1.08314 0.1485,-0.72369 0.295,-1.45094 0.4393,-2.18178 0.2884,-1.46168 0.5681,-2.93735 0.8397,-4.42764 4.3442,-23.84467 6.5165,-51.35141 6.5144,-82.52003 z m -123.6663,38.74905 c -32.7516,9.88859 -65.6163,19.32215 -98.6999,27.87479 v 48.67041 c 0,1.34704 -0.035,2.61067 -0.1034,3.79098 -0.034,0.59016 -0.077,1.15941 -0.1282,1.70791 -0.026,0.27425 -0.053,0.54335 -0.083,0.80719 -0.015,0.13191 -0.03,0.26239 -0.046,0.3917 -0.016,0.12931 -0.026,0.21067 -0.05,0.38396 -0.1869,1.38635 -0.4426,2.64687 -0.7673,3.78116 -0.1624,0.56715 -0.3421,1.10248 -0.539,1.60662 -0.098,0.25206 -0.2011,0.49647 -0.308,0.73278 -0.1071,0.23631 -0.1877,0.4056 -0.3344,0.68523 -0.5866,1.11858 -1.3084,2.07435 -2.1657,2.86752 -0.4287,0.39659 -0.8912,0.7524 -1.3875,1.06764 -0.2482,0.15761 -0.5044,0.30507 -0.7695,0.44235 -0.265,0.13729 -0.5889,0.28525 -0.8206,0.38137 -1.8539,0.76887 -4.1866,1.15353 -6.997,1.15342 h -49.0001 c -1.3927,1.1e-4 -2.6668,-0.0944 -3.8236,-0.28267 -0.5784,-0.0941 -1.1272,-0.21172 -1.6469,-0.35295 -0.2598,-0.0706 -0.5124,-0.14707 -0.7576,-0.22945 -0.2451,-0.0824 -0.4302,-0.14879 -0.7136,-0.26458 -1.1338,-0.46313 -2.1314,-1.08902 -2.9936,-1.8774 -0.4311,-0.3942 -0.8285,-0.82882 -1.1917,-1.30432 -0.1816,-0.23777 -0.3546,-0.48605 -0.5193,-0.74414 -0.1646,-0.25808 -0.3516,-0.58382 -0.4687,-0.8046 -0.4684,-0.88309 -0.8666,-1.89353 -1.1953,-3.03134 -0.1643,-0.56891 -0.3114,-1.16989 -0.4408,-1.80247 -0.065,-0.31629 -0.125,-0.64034 -0.1809,-0.97255 -0.028,-0.16612 -0.055,-0.33429 -0.081,-0.50437 -0.026,-0.1701 -0.057,-0.38908 -0.074,-0.51624 -0.2762,-2.03451 -0.4141,-4.40515 -0.4129,-7.11275 v -30.29686 c -32.7172,6.97581 -65.632,13.10841 -98.6979,18.49241 l -5e-4,37.70416 c -5e-4,7.3143 0.2643,14.12592 0.7938,20.43441 0.2648,3.15425 0.5955,6.18241 0.9927,9.08524 0.1986,1.45141 0.4137,2.87165 0.6454,4.2602 0.1158,0.69427 0.2361,1.38075 0.3602,2.05931 0.062,0.33927 0.1249,0.67646 0.1891,1.01182 0.032,0.16767 0.064,0.33508 0.097,0.50178 0.033,0.1667 0.053,0.27116 0.099,0.49816 1.4507,7.26387 3.4489,13.78091 5.9944,19.55075 1.2727,2.88492 2.6818,5.58319 4.2282,8.09459 0.7732,1.25571 1.581,2.46484 2.4226,3.62717 0.4208,0.58116 0.8499,1.15059 1.2878,1.70842 0.4379,0.55782 0.8555,1.06977 1.3394,1.63815 3.8708,4.547 8.5077,8.41401 13.9108,11.60084 2.7016,1.59341 5.5949,3.01664 8.6796,4.27002 1.5423,0.62669 3.1321,1.21119 4.7702,1.75287 0.8191,0.27084 1.6499,0.53072 2.4929,0.78031 0.4215,0.12479 0.8463,0.24743 1.2738,0.36691 0.2137,0.0597 0.4282,0.11833 0.6434,0.17673 0.2152,0.0584 0.485,0.13083 0.6475,0.17363 10.4006,2.73935 23.0113,4.10889 37.8328,4.10879 h 97.9997 c 7.3705,10e-5 14.1955,-0.33874 20.4737,-1.01647 3.1391,-0.33887 6.1415,-0.76243 9.0072,-1.27072 1.433,-0.25416 2.8321,-0.52929 4.1967,-0.82579 0.6823,-0.14826 1.3558,-0.30211 2.021,-0.46096 0.3326,-0.0794 0.6629,-0.1603 0.9912,-0.24236 0.1642,-0.0411 0.3279,-0.0823 0.4909,-0.12402 0.1631,-0.0417 0.2707,-0.0693 0.4879,-0.12609 6.9506,-1.81702 13.134,-4.31439 18.5508,-7.49257 2.7083,-1.58909 5.2249,-3.34833 7.5499,-5.27771 1.1624,-0.96468 2.2769,-1.97176 3.3434,-3.02152 1.0667,-1.04977 2.143,-2.20978 3.0562,-3.27732 3.6528,-4.27019 6.7571,-9.28916 9.3126,-15.05748 1.2777,-2.88416 2.4182,-5.95574 3.4215,-9.21443 0.5017,-1.62935 0.9689,-3.30565 1.402,-5.02863 0.2166,-0.86149 0.4243,-1.73457 0.6237,-2.61948 0.1,-0.44244 0.197,-0.88754 0.2925,-1.33584 0.048,-0.22415 0.095,-0.44927 0.1416,-0.67489 0.047,-0.22561 0.1051,-0.51301 0.1385,-0.67903 2.1319,-10.62577 3.1977,-23.27735 3.1977,-37.95479 z"
       inkscape:label="O_mid"
       sodipodi:nodetypes="ccsssssssssssssccsssssssscccccsssssssssssssssssssssccsssssscccccsscsscscssssssccssssssssscsscccccsssssscssssssssssssccsssssssssssssssscccc" /><path
       id="path219"
       style="display:inline;fill:url(#linearGradient233);stroke-linecap:round"
       d="m 2181.5893,339.28213 c -32.1575,8.03036 -64.2417,16.34477 -96.268,24.87187 v 291.30522 c 0,10.50224 -0.8056,20.25289 -2.4143,29.24937 33.1199,-6.42006 65.7379,-12.51663 97.8798,-18.28312 0.5558,-10.27705 0.8335,-21.03226 0.8356,-32.26625 V 345.75926 c 0,-2.1768 -0.012,-4.33614 -0.032,-6.47713 z m -123.6669,32.22129 c -31.9143,8.62121 -63.7758,17.43466 -95.6003,26.36997 v 215.48555 c 0,1.45914 -0.094,2.85391 -0.2817,4.18373 -0.093,0.6649 -0.2104,1.31352 -0.3508,1.94613 -0.07,0.3163 -0.1459,0.62867 -0.2279,0.9369 -0.082,0.30823 -0.1559,0.56873 -0.2631,0.9126 -0.8577,2.75099 -2.1436,5.04365 -3.9656,6.99441 -0.9109,0.97538 -1.9274,1.82543 -3.05,2.55075 -0.5614,0.36266 -1.1494,0.69411 -1.7637,0.99425 -0.6142,0.30015 -1.3254,0.5942 -1.9218,0.80667 -2.386,0.84986 -5.0449,1.27497 -7.9763,1.27486 h -16.8977 c -1.4595,10e-5 -2.8496,-0.10514 -4.1723,-0.31523 -0.6612,-0.10506 -1.3056,-0.2362 -1.9332,-0.39377 -0.6277,-0.15758 -1.1635,-0.31471 -1.8325,-0.55139 -2.6767,-0.94674 -4.9677,-2.43668 -6.7572,-4.34599 -0.8947,-0.95464 -1.6732,-2.01445 -2.3358,-3.17913 -0.3313,-0.58233 -0.6337,-1.19089 -0.9069,-1.82573 -0.1367,-0.31742 -0.2664,-0.6415 -0.3886,-0.97204 -0.122,-0.33055 -0.2501,-0.71029 -0.3441,-1.0113 h 5e-4 c -0.7542,-2.40804 -1.1312,-5.07662 -1.1302,-8.00572 V 413.86621 c -35.7104,10.19075 -71.3794,20.53127 -106.9966,31.0658 v 290.82721 h 39.1987 c 73.4047,-16.24996 144.422,-31.2303 213.2784,-44.86341 0.7086,-2.08111 1.3571,-4.24148 1.9462,-6.48281 0.2946,-1.12066 0.5744,-2.26184 0.8392,-3.42304 0.1324,-0.5806 0.261,-1.16626 0.386,-1.757 0.062,-0.29536 0.124,-0.59196 0.185,-0.88987 0.061,-0.29789 0.1058,-0.52509 0.1488,-0.74466 0.6923,-3.51322 1.2696,-7.24549 1.7312,-11.19725 0.923,-7.90353 1.3823,-16.68424 1.3823,-26.34206 z m -286.6936,81.63481 c -32.1468,9.60846 -64.2487,19.38482 -96.3011,29.36152 v 290.48149 c 32.5524,-7.63071 64.6465,-15.04485 96.3011,-22.23585 z"
       inkscape:label="D_mid"
       sodipodi:nodetypes="scscccscsccscsssssssccsssssssccccccccsscscsscccccc" /><path
       id="path222"
       style="display:inline;fill:url(#linearGradient235);stroke-linecap:round"
       d="m 2732.0198,244.15874 -26.3214,5.2e-4 c -110.5315,11.22709 -220.5468,28.64298 -329.4331,50.76434 -2.8991,4.88281 -5.449,10.03519 -7.6523,15.4559 -1.1017,2.71036 -2.1523,5.60059 -3.0277,8.27857 -0.8755,2.67799 -1.6632,5.38553 -2.3637,8.12302 -2.8013,10.94996 -4.2018,22.37606 -4.2018,34.27801 v 116.29988 h 314.8961 V 376.05922 h -221.6981 v -10.30015 c 0,-1.15682 0.07,-2.29324 0.2087,-3.40961 0.1387,-1.11638 0.3263,-2.13283 0.6243,-3.28869 0.2981,-1.15585 0.6669,-2.25364 1.1064,-3.29334 0.2199,-0.51984 0.4574,-1.02486 0.7126,-1.51567 0.2552,-0.4908 0.4928,-0.91102 0.8186,-1.42885 0.6516,-1.03564 1.3678,-1.96098 2.1481,-2.77554 0.3901,-0.40729 0.7963,-0.78694 1.2186,-1.13895 0.4223,-0.35202 0.8103,-0.64371 1.3146,-0.97307 2.0176,-1.31745 4.1676,-1.97601 6.4503,-1.97611 l 265.1988,-5.1e-4 z m -393.7837,58.69254 c -36.0051,7.68975 -71.887,15.86951 -107.6725,24.44244 -0.4977,6.12889 -0.7431,12.28444 -0.7431,18.46554 v 288.39996 c -10e-4,7.86153 0.398,15.68114 1.1953,23.45955 34.0545,-5.8281 67.5737,-11.26862 100.5897,-16.31011 -0.1239,-2.43451 -0.1881,-4.88425 -0.1881,-7.34942 v -288 c 0,-14.93132 2.274,-29.30101 6.8187,-43.10796 z m 20.7858,199.70771 v 116.30039 c 0,6.1853 0.3784,12.24237 1.1353,18.1715 31.7928,-4.67186 63.1193,-8.96383 94.0093,-12.86536 -0.6587,-1.55497 -1.1584,-3.26812 -1.4728,-4.91805 -0.3145,-1.64991 -0.4718,-3.34578 -0.4728,-5.08806 v -10.30014 h 204.3828 c 5.787,-0.41593 11.559,-0.81558 17.3142,-1.1989 V 502.55899 Z"
       inkscape:label="E_mid" /><path
       id="path214"
       style="display:inline;fill:url(#linearGradient237);stroke-linecap:round"
       d="m 2991.7952,229.86866 c -26.2259,-0.12303 -52.4534,0.17061 -78.6733,0.86196 v 365.84692 c 35.4227,0.69454 70.3674,2.15168 104.898,4.39405 V 230.13117 c -8.7412,-0.13435 -17.4828,-0.22151 -26.2247,-0.26251 z m -106.2711,1.73529 c -33.8919,1.25106 -67.7643,3.15438 -101.602,5.66839 v 360.0421 c 34.3407,-1.02474 68.1893,-1.40542 101.602,-1.12292 z"
       inkscape:label="L_mid"
       sodipodi:nodetypes="sccccsccccc" /><path
       id="path377"
       style="display:inline;fill:url(#linearGradient377);fill-opacity:1;stroke:none;stroke-width:90.709;stroke-linecap:round"
       d="m 307450,-25671.1 v 9772.8 l 33954.9,0.01 c 712.41,0.01 1407.75,-76.355 2085.92,-229.086 339.08,-76.365 673.87,-171.821 1004.36,-286.369 330.5,-114.547 662.93,-251.143 978.61,-400.917 631.35,-299.548 1222.31,-661.374 1772.89,-1085.479 275.28,-212.053 540.47,-439.675 795.56,-682.867 127.54,-121.596 252.57,-247.084 375.06,-376.464 122.5,-129.381 247.08,-268.039 359.92,-399.82 451.34,-527.121 849.31,-1093.293 1193.9,-1698.516 172.3,-302.611 331.25,-614.985 476.86,-937.121 72.8,-161.068 142.27,-324.577 208.4,-490.526 66.14,-165.95 131.06,-340.443 188.39,-505.171 458.69,-1317.825 688.03,-2694.51 688.13,-4130.064 l 0.1,-11164.81 h -30231 v 9724.8 h 21274 v 988.81 c 0,111.073 -6.66,220.191 -19.98,327.362 -13.31,107.172 -31.31,204.716 -59.92,315.678 -28.62,110.961 -64.02,216.348 -106.22,316.158 -21.11,49.906 -43.9,98.417 -68.4,145.535 -24.5,47.118 -47.31,87.46 -78.58,137.171 -62.56,99.423 -131.29,188.233 -206.2,266.432 -37.45,39.099 -76.45,75.545 -116.99,109.339 -40.54,33.793 -77.82,61.802 -126.24,93.421 -193.69,126.476 -400.04,189.714 -619.27,189.704 z m 34046.6,-27598.966 c 102.72,31.825 208.11,82.911 295.4,139.741 87.29,56.83 168.42,124.277 243.38,202.342 37.48,39.033 73.43,80.72 107.83,125.062 34.4,44.341 70.68,96.762 98.58,140.988 55.79,88.45 104.82,182.475 147.07,282.074 42.26,99.598 79.56,211.785 106.45,315.517 53.79,207.463 80.69,422.817 80.69,646.052 v 988.79 h -21274 v 9724.8 h 30231 l -0.1,-11164.79 c -0.1,-716.515 -57.26,-1418.436 -171.57,-2105.754 -57.16,-343.66 -128.61,-683.668 -214.34,-1020.026 -42.87,-168.178 -89.31,-335.445 -139.33,-501.798 -50.01,-166.354 -101.54,-325.876 -160.75,-496.322 -236.86,-681.787 -526.93,-1324.832 -870.22,-1929.136 -171.64,-302.152 -356.59,-594.619 -554.84,-877.4 -99.13,-141.391 -201.58,-280.36 -307.36,-416.908 -105.78,-136.548 -209.99,-264.951 -327.31,-402.38 -469.26,-549.714 -979.11,-1037.169 -1529.55,-1462.365 -275.22,-212.598 -560.59,-409.631 -856.11,-591.1 -295.51,-181.469 -594.36,-344.13 -916.98,-497.712 -1290.48,-614.326 -2650.4,-921.489 -4079.64,-921.499 l -51388.9,-0.01 v 9772.8 l 51158.2,0.01 c 109.53,0.01 219.68,17.2 322.4,49.024 z m 12685.8,27598.986 c 0,804.637 -71.88,1594.592 -215.64,2369.865 -71.88,387.636 -161.73,771.602 -269.55,1151.896 -107.82,380.295 -232.03,752.829 -377.37,1129.874 -290.67,754.089 -643.98,1465.232 -1059.92,2133.428 -207.96,334.098 -431.59,657.459 -670.87,970.084 -239.29,312.625 -489.25,609.151 -764.83,905.665 -551.17,593.028 -1146.13,1118.889 -1784.87,1577.584 -319.37,229.348 -649.68,441.904 -990.95,637.669 -341.26,195.764 -687.08,371.882 -1056.63,536.919 -1478.2,660.144 -3020.52,990.216 -4626.87,990.206 l -34914.9,-0.01 v 9772.82 l 36086,-2e-4 c 1421.41,-1e-4 2809.12,-148.0694 4163.13,-444.2079 677.01,-148.0692 1345.6,-333.1558 2005.76,-555.2597 330.08,-111.0519 658.05,-231.3582 983.92,-360.9187 325.87,-129.5606 653.83,-270.3062 971.29,-416.4448 1269.85,-584.5544 2459.33,-1291.7066 3568.43,-2121.4567 554.55,-414.8751 1089.01,-860.3996 1603.37,-1336.5736 257.18,-238.0869 509.34,-483.8363 756.48,-737.248 123.56,-126.7059 245.88,-255.3273 366.93,-385.8644 121.06,-130.537 244.66,-267.303 359.4,-397.358 917.91,-1040.44 1727.69,-2159.133 2429.33,-3356.08 350.82,-598.473 674.61,-1216.509 971.36,-1854.108 148.38,-318.8 290,-642.491 424.86,-971.072 67.43,-164.291 133.17,-329.804 197.22,-496.54 64.05,-166.737 128.28,-339.887 187.09,-503.877 940.95,-2623.83 1411.43,-5366.96 1411.43,-8229.401 v -27667.2 c 0,-1427.385 -117.04,-2825.255 -351.13,-4193.6 -117.04,-684.172 -263.35,-1360.964 -438.91,-2030.374 -87.78,-334.705 -182.88,-667.565 -285.29,-998.579 -51.21,-165.508 -104.24,-330.554 -159.11,-495.138 -54.86,-164.585 -109.69,-323.488 -170.08,-492.37 -483.1,-1351.061 -1074.11,-2624.465 -1773.01,-3820.213 -349.45,-597.874 -725.88,-1176.335 -1129.28,-1735.381 -201.7,-279.523 -410.15,-554.192 -625.34,-824.008 -107.59,-134.908 -216.87,-268.603 -327.84,-401.084 -110.96,-132.482 -219.5,-259.069 -337.95,-393.804 -947.63,-1077.882 -1976.13,-2033.073 -3085.5,-2865.573 -554.69,-416.25 -1129.6,-801.828 -1724.72,-1156.732 -297.56,-177.452 -600.18,-347.236 -907.85,-509.352 -307.68,-162.116 -615.81,-314.44 -938.18,-463.343 -2579.04,-1191.226 -5294.31,-1786.839 -8145.81,-1786.849 l -53520,-0.01 v 9772.8 l 52348.9,0.01 c 801.56,0.01 1587.27,82.219 2357.05,246.637 384.89,82.208 765.79,184.97 1142.71,308.283 376.92,123.313 755.36,269.634 1118.8,431.597 726.87,323.925 1409.97,715.107 2049.28,1173.545 319.66,229.219 628.37,475.252 926.13,738.099 297.77,262.847 589.71,548.011 860.46,838.984 541.51,581.947 1020.42,1206.877 1436.72,1874.789 416.31,667.913 772.69,1385.759 1061.11,2132.687 576.83,1493.855 865.24,3046.718 865.24,4658.589 m -0.4,-0.02 v 27648"
       inkscape:label="3_mid"
       transform="matrix(0.01041667,0,0,0.01041667,49.018915,901.36644)"
       sodipodi:nodetypes="cccsssssssssssccccccssssssssccsssssssccccccsssssssssssccccscsssssssssccccssssssssssssssccssssssssssssssccccssssssssccc" /></g><path
     id="path55-3"
     style="display:inline;fill:url(#linearGradient156);stroke:none;stroke-width:1;stroke-linecap:round;stroke-dasharray:none;stroke-opacity:1"
     inkscape:label="Model_Lower"
     d="m 3555.4957,1249.3641 c 4.4276,10e-5 8.7926,-0.2831 13.0933,-0.8537 -109.6902,-43.6011 -219.5317,-76.2468 -332.1945,-98.8873 -3.462,-0.6958 -6.9267,-1.382 -10.396,-2.059 h -243.2019 c -1.1188,10e-5 -2.2044,-0.1524 -3.2589,-0.4575 -0.5272,-0.1525 -1.0466,-0.3432 -1.5582,-0.572 -0.5117,-0.2288 -1.0549,-0.5199 -1.5117,-0.8008 -0.9135,-0.5618 -1.7633,-1.231 -2.5496,-2.0076 -0.3931,-0.3883 -0.7703,-0.8034 -1.1315,-1.2454 -0.3614,-0.442 -0.7397,-0.9605 -1.0362,-1.4066 -0.5929,-0.8922 -1.1141,-1.8421 -1.5634,-2.8498 -0.4494,-1.0077 -0.846,-2.1432 -1.1326,-3.1962 -0.5734,-2.1062 -0.86,-4.2941 -0.86,-6.5641 v -13.8877 c -34.5285,-2.2424 -69.4732,-3.6991 -104.898,-4.3937 v 22.2813 c 0,7.464 0.5912,14.7757 1.782,21.9352 0.5954,3.5798 1.3397,7.1216 2.2327,10.6253 0.4465,1.7519 0.9303,3.4942 1.4513,5.2271 0.521,1.7328 1.0577,3.3945 1.6745,5.17 2.4673,7.102 5.4889,13.8003 9.0648,20.0952 1.7879,3.1474 3.7145,6.1939 5.7796,9.1396 1.0326,1.4728 2.0998,2.9204 3.2017,4.3428 1.1018,1.4223 2.1874,2.7599 3.4094,4.1914 4.8882,5.7262 10.1991,10.8039 15.9329,15.233 2.8668,2.2145 5.8394,4.267 8.9178,6.1573 3.0782,1.8903 6.1912,3.5847 9.5519,5.1845 13.4425,6.3992 27.6083,9.5988 42.4993,9.5987 z m -693.1132,109.86 c -1.6882,-0.8059 -3.2414,-1.5726 -4.8438,-2.3881 -1.6023,-0.8155 -3.1925,-1.6504 -4.7704,-2.5048 -3.1559,-1.7087 -6.2628,-3.4953 -9.3209,-5.3597 -6.1162,-3.7287 -12.0368,-7.7687 -17.7619,-12.12 -11.4504,-8.7024 -22.1186,-18.6498 -32.0047,-29.8422 -1.2358,-1.399 -2.3812,-2.7271 -3.5458,-4.1084 -1.1647,-1.3813 -2.3119,-2.7744 -3.4418,-4.1792 -2.26,-2.8098 -4.4508,-5.6666 -6.5721,-8.5707 -4.2428,-5.8081 -8.2087,-11.805 -11.8973,-17.9904 -7.3774,-12.371 -13.6465,-25.4967 -18.8073,-39.3771 -2.5804,-6.9402 -4.7881,-13.7929 -6.7035,-20.7737 -1.9152,-6.9808 -3.5112,-14.0179 -4.7881,-21.1111 -2.5536,-14.1866 -3.8305,-28.5981 -3.8326,-43.2346 v -36.7449 c 34.3386,-1.0247 68.1873,-1.4054 101.6042,-1.123 v 37.7679 c 0,16.96 2.9309,33.1938 8.7925,48.7015 0.7327,1.9385 1.5391,3.9338 2.3705,5.8569 0.8314,1.923 1.704,3.8169 2.6179,5.6816 1.8276,3.7293 3.8201,7.3418 5.9774,10.8375 4.3145,6.9914 9.2886,13.5156 14.922,19.5725 2.8167,3.0284 5.8605,5.9959 8.9687,8.7278 3.1083,2.7318 6.3353,5.2863 9.6811,7.6634 6.6915,4.7542 13.858,8.7989 21.4993,12.134 15.2827,6.6703 31.4027,10.0249 48.2706,10.0248 h 606.6971 c 16.4808,10e-5 32.3147,-3.3353 47.5006,-10.0063 36.6833,15.5731 73.3899,32.3852 110.2185,50.4727 -19.251,19.5195 -41.3729,34.6211 -66.4979,45.3062 -25.125,10.685 -51.4658,16.0276 -79.0222,16.0276 h -631.1023 c -29.1294,0 -57.2,-6.4468 -84.2099,-19.3402 z M 2682.1902,1147.564 v 101.8 l -267.4959,10e-5 c -13.6035,10e-5 -26.4831,-2.474 -38.6389,-7.4224 -6.0778,-2.4742 -11.9302,-5.5464 -17.3642,-9.1275 -5.4339,-3.5811 -10.5041,-7.6964 -15.2108,-12.346 -2.3532,-2.3247 -4.683,-4.865 -6.7625,-7.3456 -2.0796,-2.4806 -4.045,-5.0492 -5.8963,-7.7056 -3.7029,-5.3129 -6.9492,-10.9774 -9.7393,-16.9935 -1.395,-3.0081 -2.676,-6.1041 -3.8428,-9.288 -0.5835,-1.5919 -1.1441,-3.2268 -1.6388,-4.761 -0.4946,-1.5341 -0.9605,-3.0779 -1.3978,-4.6314 -1.7494,-6.2141 -3.0404,-12.5833 -3.8704,-19.1079 31.7941,-4.672 63.1192,-8.9637 94.0052,-12.865 0.5474,1.2984 1.1742,2.4712 2.0301,3.6965 0.8559,1.2253 1.8123,2.2777 2.8691,3.1569 2.1135,1.7585 4.9042,2.9406 7.7543,2.9405 z m -324.0943,119.8907 c -14.8105,-6.2064 -27.9555,-15.0934 -39.2877,-26.5938 -11.3321,-11.5004 -20.0399,-24.5947 -26.368,-39.4779 -6.3281,-14.8831 -9.8392,-30.3294 -10.659,-46.4697 -33.0112,5.0408 -66.5268,10.4808 -100.5843,16.3093 1.3531,13.2664 3.8726,26.4106 7.5518,39.4335 3.6792,13.0228 8.5639,26.023 14.3177,38.2278 5.7538,12.2047 12.4537,23.8014 20.0997,34.7899 3.8229,5.4942 7.8825,10.8364 12.1785,16.0266 2.148,2.5951 4.3312,5.1266 6.6508,7.7038 2.3196,2.5773 4.6785,5.0887 7.0769,7.5344 9.5932,9.7825 19.8161,18.5119 30.6689,26.1883 5.4264,3.8382 11.0102,7.4132 16.7515,10.7248 2.8706,1.6559 5.7806,3.2459 8.73,4.7701 1.4747,0.7621 2.9172,1.4877 4.5,2.2596 1.5827,0.7719 3.1678,1.5211 4.7553,2.2475 25.3998,11.6236 51.4052,17.4354 78.0174,17.4354 h 289.699 V 1276.764 l -277.5001,1e-4 c -16.255,10e-5 -31.7878,-3.1031 -46.5984,-9.3094 z m -368.2483,-41.5604 c -1.2159,1.4457 -2.6475,2.9722 -4.1095,4.3538 -1.4621,1.3816 -3.0104,2.6866 -4.645,3.915 -3.2694,2.4567 -6.8838,4.6071 -10.8437,6.451 -3.9598,1.844 -8.2649,3.3815 -12.9154,4.6126 -0.5812,0.1539 -0.9399,0.2446 -1.3813,0.3543 -0.4414,0.1096 -0.8866,0.2169 -1.3356,0.3218 -0.8982,0.2098 -1.8117,0.41 -2.7407,0.6008 -1.8578,0.3814 -3.7772,0.7247 -5.758,1.0298 -7.9235,1.2205 -16.8317,1.8308 -26.7253,1.8307 h -131.199 c 73.4067,-16.2506 144.4266,-31.2316 213.2826,-44.8643 -2.8898,8.4798 -6.7654,15.6116 -11.6291,21.3945 z m 137.0436,-4.8522 c -0.48,3.1747 -0.9953,6.2888 -1.5458,9.3421 -0.2752,1.5267 -0.5592,3.0381 -0.8522,4.5345 -0.2928,1.4963 -0.5536,2.7949 -0.9726,4.7612 -1.6755,7.865 -3.6249,15.37 -5.848,22.5151 -4.4465,14.2902 -9.988,27.1406 -16.625,38.5512 -3.3184,5.7052 -6.9106,11.0506 -10.7768,16.0359 -0.9664,1.2464 -1.9501,2.4702 -2.9509,3.6716 -1.0007,1.2013 -2.113,2.49 -3.2225,3.7251 -2.2189,2.4703 -4.5297,4.8549 -6.9323,7.154 -9.6106,9.1964 -20.6914,17.0237 -33.2422,23.482 -6.2754,3.2291 -12.9183,6.116 -19.9288,8.6606 -3.5052,1.2722 -7.1024,2.459 -10.7913,3.5601 -0.9222,0.2753 -1.8502,0.5453 -2.784,0.8099 -0.9337,0.2646 -1.5677,0.4391 -2.2959,0.6368 -1.4566,0.3953 -2.9299,0.7791 -4.42,1.1512 -23.8417,5.9539 -51.9787,8.9309 -84.4087,8.9309 h -294.2063 v -91.9783 c 32.5503,-7.6308 64.6445,-15.0448 96.3011,-22.2358 v 12.4138 l 207.9042,1e-4 c 13.9939,10e-5 26.6608,-1.5076 37.9988,-4.5229 5.6689,-1.5077 11.0057,-3.3924 16.0102,-5.6539 0.6256,-0.2827 1.2459,-0.5713 1.8611,-0.8657 0.6152,-0.2945 1.394,-0.678 2.0951,-1.0361 1.4024,-0.7162 2.7748,-1.4637 4.1173,-2.2424 2.685,-1.5574 5.2502,-3.2399 7.6957,-5.0474 2.4454,-1.8076 4.771,-3.7401 6.9769,-5.7978 1.103,-1.0288 2.2254,-2.1428 3.1646,-3.1232 0.9392,-0.9804 1.8532,-1.9843 2.742,-3.0117 3.5554,-4.1098 6.7079,-8.5958 9.4577,-13.4581 5.4995,-9.7246 9.3877,-20.9542 11.6584,-33.6901 33.1186,-6.4199 65.7422,-12.5174 97.8882,-18.2846 -0.7933,14.6421 -2.1492,28.3128 -4.069,41.0119 z m -876.8337,157.3592 c 4.2016,0.1085 8.4805,0.163 12.8354,0.163 h 97.699 c 19.4074,0 37.2838,-1.0822 53.6314,-3.2466 8.1738,-1.0821 15.9654,-2.4349 23.3747,-4.0581 3.7047,-0.8117 7.3138,-1.6909 10.8273,-2.6378 0.8785,-0.2368 1.7509,-0.4777 2.6173,-0.7229 0.2166,-0.061 0.5467,-0.1553 0.8254,-0.2354 0.2787,-0.08 0.557,-0.1607 0.8347,-0.2417 0.5554,-0.1622 1.1089,-0.3262 1.6602,-0.4922 2.2055,-0.6638 4.3782,-1.3584 6.5182,-2.0837 17.12,-5.802 32.1467,-13.5685 45.0803,-23.2993 6.4668,-4.8654 12.4101,-10.2219 17.8302,-16.0694 1.3551,-1.4619 2.6774,-2.9545 3.967,-4.4778 0.6448,-0.7616 1.2096,-1.4441 1.8032,-2.1759 0.5936,-0.7319 1.1811,-1.4717 1.7624,-2.2195 2.3254,-2.9914 4.5523,-6.1109 6.684,-9.3565 -92.2615,22.1454 -188.1263,45.9053 -287.9507,71.1538 z m 1356.7202,-260.9372 c 5.7865,-0.4159 11.5583,-0.8156 17.314,-1.1989 v 1.1988 z"
     sodipodi:nodetypes="ccsccsssssssssccsssssssssssscccsssssssssssscccsssssssssccccssscccccsssssssssccssccsssccsssssssssssscccsssssssssscccsssscssssssssssssscccccssssssssssccscssssssssssssssscccccc" /><path
     id="path57"
     class="st1"
     d="m 2376.14,31.592176 c -39.7906,0 -72.6817,26.095032 -82.2794,61.686658 L 2193.7845,386.80938 V 171.45966 h -150.8649 v 53.48741 h 98.7756 v 145.36619 h -123.4709 c -30.1929,0 -53.4875,-24.69419 -53.4875,-53.48741 V 145.36619 c 0,-30.1929 24.6942,-53.487417 53.4875,-53.487417 h 176.9583 V 38.391358 h -178.2568 c -58.9862,0 -106.9749,47.988709 -106.9749,106.974832 v 171.45966 c 0,58.98612 47.9887,106.97483 106.9749,106.97483 h 220.8484 l 111.0735,-322.32456 c 4.099,-12.297103 15.0952,-20.594759 28.792,-20.594759 13.6968,0 24.695,8.19768 28.794,20.594759 l 90.4787,268.83714 h -142.6656 v 53.48742 h 216.7478 L 2459.8216,94.676943 C 2448.8241,58.985341 2415.9307,31.592176 2376.14,31.592176 Z m -975.1689,6.799182 c -69.9835,0 -126.1715,56.185998 -126.1715,126.169532 0,69.98354 56.188,126.17148 126.1715,126.17148 h 43.8881 c 4.099,0 6.8987,2.69781 6.8987,6.89682 0,4.19901 -2.7993,6.89877 -5.4987,6.89877 h -171.4596 v 53.48741 h 171.4596 c 32.8923,0 60.3862,-27.39394 60.3862,-60.38618 0,-32.99224 -27.3939,-60.38423 -60.3862,-60.38423 h -43.89 c -39.7907,0 -72.6821,-32.89343 -72.6821,-72.68407 0,-39.79064 32.8914,-72.682117 72.6821,-72.682117 h 170.0615 V 38.391358 Z m 304.5279,0 c -58.9861,0 -106.9748,47.988709 -106.9748,106.974832 v 171.45966 c 0,58.98612 47.9887,106.97483 106.9748,106.97483 h 183.7556 V 370.31326 H 1705.499 c -30.1929,0 -53.4874,-24.69419 -53.4874,-53.48741 V 145.36619 c 0,-30.1929 24.6942,-53.487417 53.4874,-53.487417 h 183.7556 V 38.391358 Z m 671.9415,54.987062 c -6.8983,0 -13.6967,5.498707 -16.4961,10.99741 l -109.775,319.62402 h 63.0868 l 38.3894,-113.8736 v 47.98871 h 1.6012 v -0.0996 h 124.7694 l -85.0795,-252.34102 c -2.6994,-6.898382 -8.1981,-12.29594 -16.4962,-12.29594 z m -976.4694,10.79629 c -32.8923,0 -60.3862,27.39394 -60.3862,60.38618 0,32.99224 27.3939,60.38618 60.3862,60.38618 h 43.8881 c 39.7906,0 72.6841,32.89148 72.6841,72.68212 0,39.79064 -32.8935,72.68407 -72.6841,72.68407 h -170.0596 v 53.48742 h 171.4596 c 69.9836,0 126.1715,-56.18795 126.1715,-126.17149 0,-69.98353 -56.1879,-126.16953 -126.1715,-126.16953 h -43.89 c -4.0991,0 -6.8968,-2.69976 -6.8968,-6.89877 0,-2.69936 2.7993,-5.49871 5.4987,-5.49871 h 171.4596 v -54.88747 z m 304.4284,0.10154 c -23.2946,0 -41.1915,17.79503 -41.1915,41.18952 v 79.4813 h 186.5557 c 0.1,0 0.1015,-53.48741 0.1015,-53.48741 h -133.0703 c 0,-6.89838 5.4995,-12.29789 12.2979,-12.29789 h 157.7637 v -54.88552 z m 311.4267,0 c -23.2945,0 -41.1915,17.79503 -41.1915,41.18952 v 171.45966 c 0,23.29452 17.797,41.18953 41.1915,41.18953 h 111.0735 v -120.87 h -85.0796 v 53.48741 h 31.5921 v 12.29594 h -31.5921 c -6.8984,0 -12.2979,-5.49753 -12.2979,-12.29594 V 170.0596 c 0,-6.89838 5.4995,-12.29594 12.2979,-12.29594 h 152.2629 v -53.48741 z m -352.5187,134.36682 v 79.58284 c 0,23.29452 17.797,41.18952 41.1915,41.18952 h 183.7556 v -53.48741 h -159.0622 c -6.8984,-1.39967 -12.3975,-6.89916 -12.3975,-13.79753 h 133.0703 v -53.48742 z m 711.8325,4.1006 17.7967,54.88552 h -36.9913 z"
     inkscape:label="Sega"
     style="fill:#034693;stroke-width:0.999765" /></g></svg>
