<?xml version="1.0" encoding="UTF-8" standalone="no"?>
<!-- Created with Inkscape (http://www.inkscape.org/) -->

<svg
   version="1.0"
   width="219.08434"
   height="56.147617"
   id="svg2"
   sodipodi:docname="mplayer-w.svg"
   inkscape:version="1.2 (dc2aedaf03, 2022-05-15)"
   xmlns:inkscape="http://www.inkscape.org/namespaces/inkscape"
   xmlns:sodipodi="http://sodipodi.sourceforge.net/DTD/sodipodi-0.dtd"
   xmlns:xlink="http://www.w3.org/1999/xlink"
   xmlns="http://www.w3.org/2000/svg"
   xmlns:svg="http://www.w3.org/2000/svg">
  <sodipodi:namedview
     id="namedview30"
     pagecolor="#ffffff"
     bordercolor="#666666"
     borderopacity="1.0"
     inkscape:pageshadow="2"
     inkscape:pageopacity="0.0"
     inkscape:pagecheckerboard="0"
     showgrid="false"
     inkscape:zoom="3.1762472"
     inkscape:cx="164.65973"
     inkscape:cy="29.594674"
     inkscape:window-width="1920"
     inkscape:window-height="1017"
     inkscape:window-x="-8"
     inkscape:window-y="-8"
     inkscape:window-maximized="1"
     inkscape:current-layer="svg2"
     inkscape:showpageshadow="0"
     inkscape:deskcolor="#d1d1d1" />
  <defs
     id="defs4">
    <linearGradient
       id="linearGradient3655">
      <stop
         style="stop-color:white;stop-opacity:1"
         offset="0"
         id="stop3657" />
      <stop
         style="stop-color:white;stop-opacity:0"
         offset="1"
         id="stop3659" />
    </linearGradient>
    <linearGradient
       x1="108.11752"
       y1="16.246464"
       x2="108.97424"
       y2="24.144896"
       id="linearGradient1969"
       xlink:href="#linearGradient3655"
       gradientUnits="userSpaceOnUse"
       gradientTransform="rotate(-90,110.9107,115.4338)" />
    <linearGradient
       x1="108.11752"
       y1="16.246464"
       x2="108.97424"
       y2="24.144896"
       id="linearGradient1971"
       xlink:href="#linearGradient3655"
       gradientUnits="userSpaceOnUse"
       gradientTransform="rotate(90,135.13591,85.778885)" />
    <linearGradient
       x1="108.11752"
       y1="16.246464"
       x2="108.97424"
       y2="24.144896"
       id="linearGradient1973"
       xlink:href="#linearGradient3655"
       gradientUnits="userSpaceOnUse" />
    <linearGradient
       x1="108.11752"
       y1="16.246464"
       x2="108.97424"
       y2="24.144896"
       id="linearGradient1975"
       xlink:href="#linearGradient3655"
       gradientUnits="userSpaceOnUse"
       gradientTransform="rotate(180,108.0119,88.80525)" />
  </defs>
  <g
     id="layer1"
     transform="translate(-29.438332,-55.17573)">
    <g
       id="g2020"
       style="display:inline">
      <g
         transform="matrix(0.85538467,0,0,0.79574896,15.01853,12.550332)"
         id="g3763"
         style="display:none">
        <g
           id="g3758">
          <path
             d="m 31.740838,25.179571 c 7.828613,29.932494 4.360128,67.385776 169.185272,10.705473 l 8.74272,86.144016 c 1.54769,15.24974 -9.48368,28.76777 -24.73402,30.30948 C 145.30801,70.964152 55.032018,82.253336 15.74954,141.63307 L 7.0068175,55.489052 C 5.4591274,40.239312 16.490501,26.721284 31.740838,25.179571 Z"
             style="color:#000000;display:inline;overflow:visible;visibility:visible;fill:#08a7e6;fill-opacity:1;fill-rule:nonzero;stroke:none;stroke-width:24;stroke-linecap:round;stroke-linejoin:round;stroke-miterlimit:0;stroke-dashoffset:0;stroke-opacity:1;marker:none;marker-start:none;marker-mid:none;marker-end:none"
             id="rect1872" />
          <path
             d="M 14.888503,132.8905 6.6438345,54.330315 c 0,0 -1.03936,-8.574729 6.7558505,-10.133769 7.7952,-1.55904 17.40929,-4.15744 17.40929,-4.15744 z"
             style="fill:url(#linearGradient1969);fill-opacity:1;fill-rule:evenodd;stroke:none;stroke-width:1px;stroke-linecap:butt;stroke-linejoin:miter;stroke-opacity:1"
             id="path3663" />
          <path
             d="m 201.23933,36.970818 8.50859,85.686332 c 0,0 1.03936,8.57473 -6.75584,10.13377 -7.7952,1.55904 -17.40929,4.15744 -17.40929,4.15744 z"
             style="fill:url(#linearGradient1971);fill-opacity:1;fill-rule:evenodd;stroke:none;stroke-width:1px;stroke-linecap:butt;stroke-linejoin:miter;stroke-opacity:1"
             id="path3667" />
        </g>
        <g
           id="g3753">
          <path
             d="M 31.740852,25.179513 170.6047,11.14126 c 15.25034,-1.5417129 28.77367,9.493998 30.32136,24.743744 -84.1795,22.265598 -89.87245,82.506826 -15.9913,116.453556 L 46.070911,166.37681 C 30.820566,167.91852 17.297237,156.88281 15.749546,141.63306 112.47378,108.86343 101.21545,63.569451 31.740852,25.179513 Z"
             style="color:#000000;display:inline;overflow:visible;visibility:visible;fill:#322374;fill-opacity:1;fill-rule:nonzero;stroke:none;stroke-width:24;stroke-linecap:round;stroke-linejoin:round;stroke-miterlimit:0;stroke-dashoffset:0;stroke-opacity:1;marker:none;marker-start:none;marker-mid:none;marker-end:none"
             id="rect3645" />
          <path
             d="M 33.541646,24.954153 172.01418,11.166938 c 0,0 8.57473,-1.039361 10.13377,6.755844 1.55904,7.795204 4.15744,17.40929 4.15744,17.40929 z"
             style="fill:url(#linearGradient1973);fill-opacity:1;fill-rule:evenodd;stroke:none;stroke-width:1px;stroke-linecap:butt;stroke-linejoin:miter;stroke-opacity:1"
             id="path2768" />
          <path
             d="M 182.48216,152.65632 44.009623,166.44353 c 0,0 -8.57473,1.03936 -10.13377,-6.75584 -1.55904,-7.79521 -4.15744,-17.40929 -4.15744,-17.40929 z"
             style="fill:url(#linearGradient1975);fill-opacity:1;fill-rule:evenodd;stroke:none;stroke-width:1px;stroke-linecap:butt;stroke-linejoin:miter;stroke-opacity:1"
             id="path3671" />
        </g>
      </g>
      <g
         id="g2012"
         style="display:inline">
        <rect
           width="159.58504"
           height="103.7973"
           ry="11.718131"
           x="27.687538"
           y="32.395084"
           style="color:#000000;display:none;overflow:visible;visibility:visible;fill:#ffffff;fill-opacity:1;fill-rule:nonzero;stroke:none;stroke-width:20.5292;stroke-linecap:round;stroke-linejoin:round;stroke-miterlimit:0;stroke-dasharray:none;stroke-dashoffset:0;stroke-opacity:1;marker:none;marker-start:none;marker-mid:none;marker-end:none"
           id="rect4552" />
        <g
           id="g2006"
           style="display:inline">
          <path
             d="m 34.698135,67.401545 h 5.673961 l 7.040682,21.246292 7.144221,-21.246292 h 5.591129 l 5.135556,30.461301 h -5.59113 L 56.420708,78.62522 49.93914,97.862846 H 44.824292 L 38.425555,78.62522 35.091585,97.862846 h -5.653253 l 5.259803,-30.461301 m 35.224117,0 h 6.150242 c 3.327055,3.1e-5 5.722264,0.310649 7.185637,0.931855 1.477144,0.60746 2.636785,1.601438 3.478925,2.981936 0.855905,1.366745 1.283867,3.009569 1.283889,4.928477 -2.2e-5,2.126029 -0.559134,3.8931 -1.677339,5.301219 -1.104439,1.408151 -2.609211,2.388323 -4.514319,2.94052 -1.11824,0.317534 -3.154514,0.476294 -6.108827,0.476281 V 97.862846 H 69.922252 V 67.401545 M 75.72046,79.30858 h 1.843002 c 1.44954,1.8e-5 2.457323,-0.103521 3.023352,-0.310618 0.566001,-0.20706 1.007768,-0.545289 1.325304,-1.014687 0.331311,-0.483163 0.496974,-1.062984 0.49699,-1.739462 -1.6e-5,-1.173424 -0.455589,-2.02935 -1.366721,-2.567778 -0.662666,-0.400328 -1.891333,-0.600504 -3.686004,-0.600529 H 75.72046 v 6.233074"
             style="font-style:normal;font-variant:normal;font-weight:bold;font-stretch:normal;font-size:42.4098px;line-height:125%;font-family:'Century Gothic';text-align:start;writing-mode:lr-tb;text-anchor:start;fill:#322374;fill-opacity:1;stroke:none;stroke-width:1px;stroke-linecap:butt;stroke-linejoin:miter;stroke-opacity:1"
             id="text7217" />
          <path
             d="m 95.607394,70.25761 -4.158,22.344 c -0.168,0.965999 -0.294,1.68 -0.294,2.226 0,2.015998 1.344002,3.108 3.738,3.108 1.385999,0 3.570006,-0.588002 6.593996,-1.68 v -1.638 c -1.30199,0.419999 -2.436,0.63 -3.402,0.63 -0.965995,0 -1.721996,-0.840002 -1.721996,-2.142 0,-0.84 0.21,-1.848002 0.462,-3.066 l 4.367996,-23.394 h -1.848 l -7.181996,1.596 v 1.47 l 3.444,0.546 m 26.024906,6.594 -1.554,1.008 c -1.722,-0.672 -3.318,-1.05 -4.872,-1.05 -3.738,0 -7.224,1.890003 -9.324,5.082 -1.68,2.561997 -2.52,5.334003 -2.52,8.358 0,4.829995 2.268,7.644 6.048,7.644 2.058,0 4.326,-1.134003 6.678,-3.36 0,0.084 0,0.168 0,0.21 0,2.015998 1.092,3.066 3.15,3.066 1.596,0 3.696,-0.504001 6.342,-1.47 v -1.554 c -1.008,0.293999 -1.932,0.462 -2.772,0.462 -0.966,0 -1.764,-0.840002 -1.764,-2.268 0,-0.546 0.126,-1.554002 0.378,-2.94 l 1.26,-6.804 c 0.63,-3.485997 1.176,-5.628001 1.428,-6.384 h -2.478 m -5.166,2.016 1.68,2.52 -1.974,11.13 c -1.596,1.301998 -2.94,1.974 -4.242,1.974 -2.058,0 -3.192,-1.638004 -3.192,-4.83 0,-6.383994 3.276,-10.836 7.182,-10.836 0.21,0 0.378,0.042 0.546,0.042 m 16.05516,-2.058 -6.468,1.47 v 1.386 l 3.654,0.336 c 0.462,0.881999 0.84,1.974001 1.05,3.15 l 2.52,13.314 h 1.596 c -2.268,4.326 -4.36801,6.594 -6.258,6.762 l -2.814,-2.646 c -1.512,0.294 -2.436,1.386 -2.436,2.814 0,1.68 1.512,3.234 3.528,3.234 3.44399,0 6.93,-3.31801 10.626,-9.954 3.23399,-5.795995 4.914,-11.844005 8.19,-16.212 l 2.478,-1.386 v -1.134 l -3.318,-1.092 h -1.302 c -2.604,6.047994 -4.70401,11.256004 -6.426,15.582 l -1.428,-9.156 c -0.63,-4.031996 -1.38601,-6.132001 -3.192,-6.468 m 20.7959,11.214 c 0.462,0 0.882,0.042 1.302,0.042 7.014,0 10.878,-2.562004 10.878,-6.552 0,-2.771998 -1.932,-4.578 -5.208,-4.578 -2.51999,0 -5.208,1.008001 -7.35,2.814 -3.10799,2.645997 -4.746,6.258004 -4.746,10.206 0,4.997995 2.77201,7.98 7.434,7.98 2.52,0 5.54401,-1.134003 8.61,-3.528 l 0.084,-2.562 c -2.51999,1.973998 -4.788,2.94 -6.594,2.94 -2.81399,0 -4.494,-1.932004 -4.494,-5.502 0,-0.378 0.042,-0.798001 0.084,-1.26 m 0.336,-1.764 c 1.176,-4.745996 3.36001,-7.224 5.544,-7.224 1.26,0 2.058,0.840001 2.058,2.142 0,2.435997 -2.898,4.872 -7.602,5.082 m 21.58144,-9.408 -7.224,1.722 v 1.428 l 3.486,0.504 -3.36,17.052 h 5.166 l 1.638,-9.744 c 0.63,-3.737997 2.184,-6.048002 5.586,-7.476 l 1.134,3.192 c 0.042,0 0.084,0 0.084,0 2.478,0 4.074,-1.554002 4.074,-3.57 0,-1.847999 -1.302,-3.066 -3.108,-3.066 -1.974,0 -4.494,1.848003 -7.182,5.586 l 1.176,-5.628 h -1.47"
             style="font-style:italic;font-variant:normal;font-weight:bold;font-stretch:normal;font-size:42px;line-height:125%;font-family:'Bitstream Charter';text-align:start;writing-mode:lr-tb;text-anchor:start;fill:#ffffff;fill-opacity:1;stroke:none;stroke-width:1px;stroke-linecap:butt;stroke-linejoin:miter;stroke-opacity:1"
             id="text7221" />
        </g>
      </g>
      <g
         transform="translate(0,-10)"
         id="g3675"
         style="display:inline">
        <path
           d="m 195.40809,93.24581 a 25.074575,25.074575 0 1 1 6e-5,0.0587"
           style="color:#000000;display:inline;overflow:visible;visibility:visible;opacity:1;fill:#ffffff;fill-opacity:1;fill-rule:nonzero;stroke:#322374;stroke-width:6;stroke-linecap:round;stroke-linejoin:round;stroke-miterlimit:0;stroke-dasharray:none;stroke-dashoffset:0;stroke-opacity:1;marker:none;marker-start:none;marker-mid:none;marker-end:none"
           id="path5443" />
        <path
           d="m 210.22992,77.00829 29.64748,17.11699 -29.70144,16.2073 z"
           style="display:inline;fill:#000000;fill-opacity:1;fill-rule:evenodd;stroke:none;stroke-width:1px;stroke-linecap:butt;stroke-linejoin:miter;stroke-opacity:1"
           id="path6330" />
      </g>
    </g>
  </g>
</svg>
