<svg xmlns="http://www.w3.org/2000/svg" width="450" height="150">
    <g fill="none" fill-rule="evenodd">
        <path fill="#6D7278" d="M.585.1h369.543v149.662H.585z"/>
        <path fill="#FFF" fill-rule="nonzero" d="m340.89 20.726-35.13 51.311L343.97 128.1h-35.287l-20.998-30.012-21.167 30.084h-35.055c.953-1.977 38.374-56.134 38.374-56.134l-15.95-22.19-67.662.077c-3.155.249-7.024-.709-8.607 2.85-.554 1.18-.791 2.918-.155 4.108.548 1.34 1.815 2.601 3.232 2.994l2.132.161h27.082c12.549.315 24.162 8.125 29.603 19.418 4.821 9.476 4.11 22.423-1.262 31.429-6.787 11.441-18.87 17.84-31.971 17.37h-75.323s-11.53-41.615-11.608-41.687l-11.607 41.686-27.472.005-11.054-41.851-12.083 41.764H26.74S54.686 27.589 56.502 20.953H82.17l12.078 44.846 12.316-44.846 25.185-.006 21.554 78.097h50.215c3.465-.166 8.286.78 9.709-3.476.554-1.905.083-3.875-1.262-5.215-1.268-1.107-2.845-1.417-4.5-1.417l-27-.005c-12.792-.393-25.5-8.763-30.239-21.073-5.132-12.321-2.13-27.09 7.262-36.627 6.632-6.648 14.525-9.963 23.769-10.356l88.582-.077 17.848 25.733 18.466-25.811 34.739.006Z"/>
        <path fill="#6D7278" fill-rule="nonzero" d="M414.86 128.251c1.806-12.72 34.507-20.501 34.507-48.284 0-26.465-18.414-33.205-34.507-33.205-16.087 0-33.232 12.19-33.232 32.18v7.526h24.15v-5.45c0-6.874 3.367-11.168 9.343-11.168 5.975 0 8.81 3.513 8.81 10.643 0 16.093-27.251 22.583-38.66 42.835-4.89 8.643-5.2 25.95-5.2 25.95h67.75v-21.027h-32.96Z"/>
    </g>
</svg>
