<?xml version="1.0" encoding="UTF-8" standalone="no"?>
<svg
   width="556"
   height="150"
   version="1.1"
   id="svg10"
   sodipodi:docname="msx2+-w.svg"
   inkscape:version="1.2 (dc2aedaf03, 2022-05-15)"
   xmlns:inkscape="http://www.inkscape.org/namespaces/inkscape"
   xmlns:sodipodi="http://sodipodi.sourceforge.net/DTD/sodipodi-0.dtd"
   xmlns="http://www.w3.org/2000/svg"
   xmlns:svg="http://www.w3.org/2000/svg">
  <defs
     id="defs14" />
  <sodipodi:namedview
     id="namedview12"
     pagecolor="#505050"
     bordercolor="#ffffff"
     borderopacity="1"
     inkscape:showpageshadow="0"
     inkscape:pageopacity="0"
     inkscape:pagecheckerboard="1"
     inkscape:deskcolor="#505050"
     showgrid="false"
     inkscape:zoom="1.5733333"
     inkscape:cx="261.86441"
     inkscape:cy="75.317797"
     inkscape:window-width="1920"
     inkscape:window-height="1017"
     inkscape:window-x="-8"
     inkscape:window-y="-8"
     inkscape:window-maximized="1"
     inkscape:current-layer="svg10" />
  <g
     fill="none"
     id="g8">
    <path
       fill="#221f1f"
       d="m 498.64,149.663 v -42.024 h -38.394 v -19 h 38.395 V 46.614 h 18.205 v 42.025 h 38.395 v 19 h -38.395 v 42.024 z M 0,0 H 369.544 V 149.662 H 0.001 Z"
       id="path2"
       inkscape:label="path2"
       style="display:inline"
       sodipodi:nodetypes="cccccccccccccccccc" />
    <path
       fill="#FFF"
       d="m342.306 20.625-35.131 51.312 38.212 56.06H310.1l-20.998-30.011-21.167 30.084H232.88c.952-1.976 38.373-56.133 38.373-56.133l-15.95-22.19-67.66.076c-3.156.25-7.025-.708-8.608 2.852-.554 1.178-.792 2.916-.156 4.106.548 1.34 1.816 2.602 3.233 2.995l2.131.16h27.083c12.549.316 24.161 8.126 29.602 19.418 4.822 9.477 4.11 22.423-1.262 31.429-6.786 11.441-18.87 17.84-31.97 17.37h-75.323s-11.53-41.614-11.608-41.686l-11.607 41.686-27.472.005-11.054-41.852L58.55 128.07H28.155S56.102 27.488 57.918 20.852h25.667l12.078 44.846 12.316-44.846 25.185-.006 21.554 78.097h50.215c3.465-.166 8.286.78 9.708-3.476.554-1.904.084-3.875-1.261-5.215-1.268-1.106-2.846-1.416-4.5-1.416l-27-.005c-12.792-.394-25.501-8.763-30.239-21.073-5.132-12.322-2.13-27.09 7.262-36.627 6.632-6.648 14.525-9.964 23.768-10.356l88.582-.078 17.849 25.733 18.465-25.81 34.74.005Z"
       id="path4" />
    <path
       fill="#221F1F"
       d="m 415.276,128.151 c 1.805,-12.72 34.506,-20.501 34.506,-48.284 0,-26.465 -18.413,-33.205 -34.507,-33.205 -16.086,0 -33.231,12.19 -33.231,32.18 v 7.526 h 24.15 v -5.45 c 0,-6.875 3.367,-11.169 9.342,-11.169 5.975,0 8.811,3.514 8.811,10.644 0,16.093 -27.252,22.583 -38.66,42.835 -4.89,8.643 -5.2,25.95 -5.2,25.95 h 67.75 v -21.027 z"
       id="path6"
       style="display:inline;fill:#ffffff;fill-opacity:1" />
  </g>
  <path
     d="m 498.76091,148.8423 v -42.024 h -38.394 V 87.818297 h 38.395 v -42.025 h 18.205 v 42.025 h 38.395 V 106.8183 h -38.395 v 42.024 z"
     style="display:inline;fill:#ffffff;fill-opacity:1"
     id="path1363" />
  <g
     fill="none"
     id="g975">
    <path
       fill="#221f1f"
       d="m 498.64,149.663 v -42.024 h -38.394 v -19 h 38.395 V 46.614 h 18.205 v 42.025 h 38.395 v 19 h -38.395 v 42.024 z M 0,0 H 369.544 V 149.662 H 0.001 Z"
       id="path969"
       style="display:none" />
    <path
       fill="#ffffff"
       d="m 342.306,20.625 -35.131,51.312 38.212,56.06 H 310.1 L 289.102,97.986 267.935,128.07 H 232.88 c 0.952,-1.976 38.373,-56.133 38.373,-56.133 l -15.95,-22.19 -67.66,0.076 c -3.156,0.25 -7.025,-0.708 -8.608,2.852 -0.554,1.178 -0.792,2.916 -0.156,4.106 0.548,1.34 1.816,2.602 3.233,2.995 l 2.131,0.16 h 27.083 c 12.549,0.316 24.161,8.126 29.602,19.418 4.822,9.477 4.11,22.423 -1.262,31.429 -6.786,11.441 -18.87,17.84 -31.97,17.37 h -75.323 c 0,0 -11.53,-41.614 -11.608,-41.686 L 109.158,128.153 81.686,128.158 70.632,86.306 58.55,128.07 H 28.155 c 0,0 27.947,-100.582 29.763,-107.218 h 25.667 l 12.078,44.846 12.316,-44.846 25.185,-0.006 21.554,78.097 h 50.215 c 3.465,-0.166 8.286,0.78 9.708,-3.476 0.554,-1.904 0.084,-3.875 -1.261,-5.215 -1.268,-1.106 -2.846,-1.416 -4.5,-1.416 l -27,-0.005 c -12.792,-0.394 -25.501,-8.763 -30.239,-21.073 -5.132,-12.322 -2.13,-27.09 7.262,-36.627 6.632,-6.648 14.525,-9.964 23.768,-10.356 l 88.582,-0.078 17.849,25.733 18.465,-25.81 34.74,0.005 z"
       id="path971"
       style="display:none" />
    <path
       fill="#221f1f"
       d="m 415.276,128.151 c 1.805,-12.72 34.506,-20.501 34.506,-48.284 0,-26.465 -18.413,-33.205 -34.507,-33.205 -16.086,0 -33.231,12.19 -33.231,32.18 v 7.526 h 24.15 v -5.45 c 0,-6.875 3.367,-11.169 9.342,-11.169 5.975,0 8.811,3.514 8.811,10.644 0,16.093 -27.252,22.583 -38.66,42.835 -4.89,8.643 -5.2,25.95 -5.2,25.95 h 67.75 v -21.027 z"
       id="path973"
       style="display:none" />
  </g>
</svg>
