<?xml version="1.0" encoding="UTF-8" standalone="no"?>
<svg
   width="450"
   height="150"
   version="1.1"
   id="svg10"
   sodipodi:docname="msx2-w.svg"
   inkscape:version="1.2 (dc2aedaf03, 2022-05-15)"
   xmlns:inkscape="http://www.inkscape.org/namespaces/inkscape"
   xmlns:sodipodi="http://sodipodi.sourceforge.net/DTD/sodipodi-0.dtd"
   xmlns="http://www.w3.org/2000/svg"
   xmlns:svg="http://www.w3.org/2000/svg">
  <defs
     id="defs14" />
  <sodipodi:namedview
     id="namedview12"
     pagecolor="#505050"
     bordercolor="#ffffff"
     borderopacity="1"
     inkscape:showpageshadow="0"
     inkscape:pageopacity="0"
     inkscape:pagecheckerboard="1"
     inkscape:deskcolor="#505050"
     showgrid="false"
     inkscape:zoom="1.5733333"
     inkscape:cx="220.23305"
     inkscape:cy="75.317797"
     inkscape:window-width="1920"
     inkscape:window-height="1017"
     inkscape:window-x="-8"
     inkscape:window-y="-8"
     inkscape:window-maximized="1"
     inkscape:current-layer="svg10" />
  <g
     fill="none"
     id="g8">
    <path
       fill="#221F1F"
       d="M0 0h369.544v149.662H.001z"
       id="path2" />
    <path
       fill="#ffffff"
       d="m 342.306,20.625 -35.131,51.312 38.212,56.06 H 310.1 L 289.102,97.986 267.935,128.07 H 232.88 c 0.952,-1.976 38.373,-56.133 38.373,-56.133 l -15.95,-22.19 -67.66,0.076 c -3.156,0.25 -7.025,-0.708 -8.608,2.852 -0.554,1.178 -0.792,2.916 -0.156,4.106 0.548,1.34 1.816,2.602 3.233,2.995 l 2.131,0.16 h 27.083 c 12.549,0.316 24.161,8.126 29.602,19.418 4.822,9.477 4.11,22.423 -1.262,31.429 -6.786,11.441 -18.87,17.84 -31.97,17.37 h -75.323 c 0,0 -11.53,-41.614 -11.608,-41.686 L 109.158,128.153 81.686,128.158 70.632,86.306 58.55,128.07 H 28.155 c 0,0 27.947,-100.582 29.763,-107.218 h 25.667 l 12.078,44.846 12.316,-44.846 25.185,-0.006 21.554,78.097 h 50.215 c 3.465,-0.166 8.286,0.78 9.708,-3.476 0.554,-1.904 0.084,-3.875 -1.261,-5.215 -1.268,-1.106 -2.846,-1.416 -4.5,-1.416 l -27,-0.005 c -12.792,-0.394 -25.501,-8.763 -30.239,-21.073 -5.132,-12.322 -2.13,-27.09 7.262,-36.627 6.632,-6.648 14.525,-9.964 23.768,-10.356 l 88.582,-0.078 17.849,25.733 18.465,-25.81 34.74,0.005 z"
       id="path4"
       inkscape:label="path4"
       style="display:inline" />
    <path
       fill="#221F1F"
       d="M415.276 128.151c1.805-12.72 34.506-20.501 34.506-48.284 0-26.465-18.413-33.205-34.507-33.205-16.086 0-33.231 12.19-33.231 32.18v7.526h24.15v-5.45c0-6.875 3.367-11.169 9.342-11.169 5.975 0 8.811 3.514 8.811 10.644 0 16.093-27.252 22.583-38.66 42.835-4.89 8.643-5.2 25.95-5.2 25.95h67.75v-21.027h-32.961Z"
       id="path6"
       style="fill:#ffffff;fill-opacity:1" />
  </g>
</svg>
