<?xml version="1.0" encoding="UTF-8" standalone="no"?>
<svg
   version="1.2"
   width="442.77411"
   height="213.76794"
   viewBox="-0.463 -70.905 442.77412 213.76795"
   xml:space="preserve"
   id="svg6"
   sodipodi:docname="msxlaserdisk-w.svg"
   inkscape:version="1.2 (dc2aedaf03, 2022-05-15)"
   xmlns:inkscape="http://www.inkscape.org/namespaces/inkscape"
   xmlns:sodipodi="http://sodipodi.sourceforge.net/DTD/sodipodi-0.dtd"
   xmlns="http://www.w3.org/2000/svg"
   xmlns:svg="http://www.w3.org/2000/svg"><defs
   id="defs10" /><sodipodi:namedview
   id="namedview8"
   pagecolor="#ffffff"
   bordercolor="#666666"
   borderopacity="1.0"
   inkscape:pageshadow="2"
   inkscape:pageopacity="0.0"
   inkscape:pagecheckerboard="0"
   showgrid="false"
   inkscape:zoom="1.9931985"
   inkscape:cx="231.28655"
   inkscape:cy="142.98626"
   inkscape:window-width="1920"
   inkscape:window-height="1017"
   inkscape:window-x="-8"
   inkscape:window-y="-8"
   inkscape:window-maximized="1"
   inkscape:current-layer="svg6"
   inkscape:showpageshadow="0"
   inkscape:deskcolor="#d1d1d1" />
    <path
   style="fill:#6d7278;fill-opacity:1;stroke-width:0.843337"
   d="M -0.463,-70.905 H 442.31112 V 142.86294 H -0.463 Z"
   id="path2" /><g
   fill-rule="evenodd"
   transform="matrix(1.4340221,0,0,1.4340221,-279.30752,-661.18685)"
   fill="#231f20"
   id="g42"
   style="fill:#ffffff;fill-opacity:1"><path
     d="m 247.339,509.369 h 12.6621 l -4.53562,26.6464 h -12.2838 l 4.15725,-26.6464"
     id="path2-2"
     style="fill:#ffffff;fill-opacity:1" /><path
     d="m 242.425,539.985 h 12.4728 l -0.378,3.02351 h 10.394 l -1.51162,10.7724 h -23.2452 l 2.26803,-13.7959"
     id="path4-2"
     style="fill:#ffffff;fill-opacity:1" /><path
     d="m 404.95,511.637 h 11.5275 l -1.13375,7.56 h -11.5288 l 1.135,-7.56"
     id="path6"
     style="fill:#ffffff;fill-opacity:1" /><path
     d="m 403.343,522.409 h 11.5275 l -2.0775,13.9844 h -11.5288 l 2.07875,-13.9844"
     id="path8"
     style="fill:#ffffff;fill-opacity:1" /><path
     d="m 400.698,539.985 h 11.5275 l -2.07875,13.7959 h -11.5288 l 2.08,-13.7959"
     id="path10"
     style="fill:#ffffff;fill-opacity:1" /><path
     d="m 347.972,539.985 h 11.5272 l -2.07875,13.7959 h -11.5271 l 2.07863,-13.7959"
     id="path12"
     style="fill:#ffffff;fill-opacity:1" /><path
     d="m 277.48,539.985 c -0.0967,0.89263 -0.16412,2.02788 -0.0635,3.04838 0.13675,1.24512 0.62013,2.24025 1.80225,2.24025 1.55613,0 2.49363,-1.36863 3.03125,-2.98688 0.30425,-0.83975 0.5215,-1.5375 0.67925,-2.331 l 10.7421,-0.0284 -2.1885,13.8921 h -9.55075 l 0.5605,-2.76762 c -2.36563,3.01225 -4.26125,3.73588 -8.24313,3.73588 -7.606,0 -8.82125,-8.4375 -8.33937,-14.7992 l 11.5699,-0.004"
     id="path14"
     style="fill:#ffffff;fill-opacity:1" /><path
     d="m 283.408,536.394 c 0.008,-0.79151 -0.002,-1.25938 -0.0401,-1.81451 -0.11075,-1.43112 -0.559,-2.67525 -1.99025,-2.67525 -1.49363,0 -2.38713,1.49313 -3.01213,3.29788 -0.0899,0.28125 -0.168,0.55125 -0.51912,1.18837 l -11.6699,-0.009 c 1.54975,-6.65187 5.03613,-14.4346 12.6324,-14.5909 2.07413,-0.0425 5.94775,0.24 7.46337,3.20375 l 0.331,0.0638 0.48975,-2.6775 h 9.35988 l -2.15575,14.0126 -10.8891,5e-4"
     id="path16"
     style="fill:#ffffff;fill-opacity:1" /><path
     d="m 297.136,536.393 c -0.69675,-1.39063 -0.98825,-3.05613 -0.7115,-5.03813 0.94825,-6.78325 6.04738,-10.2258 13.7013,-10.2258 3.29824,0 5.59074,0.77375 8.22699,2.3925 l -1.25537,8.70925 c -1.914,-1.60113 -5.38038,-2.45213 -7.434,-2.45213 -0.87113,0 -1.95313,0.2055 -2.21975,1.23976 -0.38725,1.50087 1.29437,2.32662 3.33975,3.04874 1.691,0.59725 3.129,1.33888 4.27587,2.3125 l -17.9232,0.0133"
     id="path18"
     style="fill:#ffffff;fill-opacity:1" /><path
     d="m 317.674,540.015 c 0.52063,1.42775 0.67638,3.1465 0.42288,4.96051 -1.03563,7.40525 -7.38962,10.1895 -14.1724,10.1895 -4.48037,0 -6.36525,-0.83449 -9.92775,-2.95025 l 1.59288,-9.74662 c 1.21388,1.55575 5.32512,4.03612 8.07662,3.895 1.05663,-0.0541 3.19038,-0.78125 3.3555,-1.96375 0.165,-1.18213 -0.34275,-2.05275 -2.99712,-2.897 -1.24262,-0.395 -2.42287,-0.8115 -3.46825,-1.45563 l 17.1176,-0.0317"
     id="path20"
     style="fill:#ffffff;fill-opacity:1" /><path
     d="m 330.292,539.99 c -0.459,2.77938 -0.5635,7.14163 1.96925,7.45025 1.63138,0.19825 3.332,-1.125 3.84763,-4.47612 h 10.2466 c -1.78562,10.5322 -7.958,12.4439 -15.3009,12.3901 -8,-0.0585 -12.7895,-6.57125 -12.2021,-15.3774 l 11.4395,0.0131"
     id="path22"
     style="fill:#ffffff;fill-opacity:1" /><path
     d="m 437.825,536.393 c 1.50375,-8.25712 5.52625,-15.0009 17.0275,-15.2634 2.25625,-0.0512 4.05125,0.7125 4.99,1.2575 l -1.4875,8.94087 c -4.56375,-1.8505 -7.04625,1.78225 -7.9225,5.07763 L 437.825,536.393"
     id="path24"
     style="fill:#ffffff;fill-opacity:1" /><path
     d="m 450.169,539.991 c 0.3075,2.05712 1.49125,3.97562 3.8,3.97562 l 2.51,-0.189 -1.4625,10.0049 c -1.7825,0.47025 -3.4825,0.75337 -5.79,0.72125 -8.78,-0.12262 -12.3788,-6.57963 -11.8675,-14.525 l 12.81,0.0122"
     id="path26"
     style="fill:#ffffff;fill-opacity:1" /><path
     d="m 385.304,539.99 c -1.375,2.22612 -2.74875,3.86863 -5.86625,3.5855 l 0.53875,-3.59475 -12.1412,0.007 -2.19375,13.7924 h 12.2838 c 10.165,0 17.1425,-4.44775 20.5638,-13.8218 l -13.185,0.0312"
     id="path28"
     style="fill:#ffffff;fill-opacity:1" /><path
     d="m 380.433,536.402 2.40625,-15.5034 c 4.9125,0 6.04625,3.77875 5.1025,10.5825 -0.23625,1.70025 -0.56625,3.49613 -1.01,4.94875 l 12.7812,0.0136 c 0.4625,-1.9135 0.66625,-4.039 0.89,-6.28512 1.70125,-17.0085 -7.55875,-20.7885 -16.8188,-20.7885 h -11.5288 l -1.60625,12.095 c -1.89,0.3775 -6.52,0.945 -8.97625,4.2525 -0.4725,0.47125 -0.75625,0.28375 -0.66125,-0.28375 l 0.4725,-3.02375 h -10.8668 l -2.0785,13.9844 h 11.5278 c 0.4725,-1.98438 5.67,-4.91313 8.88125,-3.40188 l -0.53875,3.39113 12.0238,0.0185"
     id="path30"
     style="fill:#ffffff;fill-opacity:1" /><path
     d="m 415.439,536.393 c -0.6975,-1.39063 -0.98875,-3.05613 -0.71125,-5.03813 0.9475,-6.78325 6.04625,-10.2258 13.7012,-10.2258 3.2975,0 5.59125,0.77375 8.2275,2.3925 l -1.25625,8.70925 c -1.915,-1.60112 -5.38,-2.45213 -7.43375,-2.45213 -0.87125,0 -1.95375,0.2055 -2.22,1.23976 -0.3875,1.50087 1.295,2.32662 3.34,3.04875 1.69,0.59724 3.12875,1.33887 4.27625,2.3125 l -17.9238,0.0133"
     id="path32"
     style="fill:#ffffff;fill-opacity:1" /><path
     d="m 435.978,540.015 c 0.52,1.42775 0.675,3.1465 0.42125,4.96051 -1.03375,7.40525 -7.38875,10.1895 -14.1712,10.1895 -4.48,0 -6.365,-0.83449 -9.9275,-2.95025 l 1.5925,-9.74662 c 1.21375,1.55575 5.325,4.03612 8.07625,3.895 1.0575,-0.0541 3.19,-0.78125 3.35625,-1.96375 0.165,-1.18213 -0.34375,-2.05275 -2.9975,-2.897 -1.24375,-0.395 -2.4225,-0.8115 -3.46875,-1.45563 l 17.1188,-0.0317"
     id="path34"
     style="fill:#ffffff;fill-opacity:1" /><path
     d="m 453.594,515.322 h 2.37875 v 0.35125 h -0.99125 v 2.57875 h -0.39625 v -2.57875 H 453.594 V 515.322"
     id="path36"
     style="fill:#ffffff;fill-opacity:1" /><path
     d="m 458.752,518.252 v -1.73 c 0,-0.0862 0.009,-0.45625 0.009,-0.73 h -0.009 l -0.82375,2.46 h -0.3925 l -0.82375,-2.45625 h -0.007 c 0,0.27 0.007,0.64 0.007,0.72625 v 1.73 h -0.38375 v -2.93 h 0.5675 l 0.83625,2.47625 h 0.007 l 0.8325,-2.47625 h 0.56375 v 2.93 h -0.38375"
     id="path38"
     style="fill:#ffffff;fill-opacity:1" /><path
     d="m 334.921,521.129 c -9.2495,0.0625 -13.8012,6.55375 -15.5976,15.2604 l 27.9282,0.006 c 0.3095,-4.0385 0.163,-7.95125 -1.05712,-9.72625 -2.129,-3.0975 -4.93175,-5.5825 -11.2735,-5.54 z m 0.18063,7.2925 c 2.17774,0 2.53224,2.36387 2.34187,4.16862 h -5.66263 c 0.17288,-1.67975 1.26713,-4.16862 3.32076,-4.16862"
     id="path40"
     style="fill:#ffffff;fill-opacity:1" /></g>
    <path
   d="M 33.50788,59.456552 66.322355,-59.438963 h 30.427984 l 15.810401,51.8978278 16.40595,-51.8969698 h 28.6379 l 26.84782,87.592227 65.50452,-0.113275 c 6.87371,-0.06179 7.29764,-13.150161 -0.50974,-13.146729 l -38.14782,-0.469403 c -16.38021,0.145884 -33.6546,-16.167388 -32.81362,-37.891241 0.1742,-19.927764 19.05246,-35.621457 43.20314,-35.61545 l 97.29781,-0.07981 24.76081,31.027825 24.16184,-31.302431 40.27086,0.274606 -44.14795,57.113612 47.72898,61.927787 -40.05977,-0.111559 -27.7789,-35.535642 -26.42647,35.533926 -40.86813,-0.03433 46.53702,-61.231834 -20.28647,-27.18335 -84.58015,0.113275 c -9.23103,0.07723 -8.89206,13.445362 0.0721,13.194784 l 35.63777,0.502013 c 15.0621,0.08925 36.27364,14.496586 35.74502,36.988476 0.22913,26.147574 -25.35465,38.094621 -37.67241,37.455306 L 158.79827,59.684817 143.2865,6.188272 127.77473,59.570685 H 98.327599 L 82.132759,6.462019 67.901336,59.65135 Z"
   style="fill:#ffffff;stroke-width:0.731067"
   id="path4" />
</svg>
