<?xml version="1.0" encoding="UTF-8" standalone="no"?>
<!-- Created by ERK -->

<svg
   width="500mm"
   height="104mm"
   viewBox="0 0 500 104"
   version="1.1"
   id="svg1"
   inkscape:version="1.3.2 (091e20e, 2023-11-25, custom)"
   xml:space="preserve"
   sodipodi:docname="mtx512-w.svg"
   xmlns:inkscape="http://www.inkscape.org/namespaces/inkscape"
   xmlns:sodipodi="http://sodipodi.sourceforge.net/DTD/sodipodi-0.dtd"
   xmlns="http://www.w3.org/2000/svg"
   xmlns:svg="http://www.w3.org/2000/svg"><sodipodi:namedview
     id="namedview1"
     pagecolor="#ffffff"
     bordercolor="#000000"
     borderopacity="0.25"
     inkscape:showpageshadow="2"
     inkscape:pageopacity="0.0"
     inkscape:pagecheckerboard="true"
     inkscape:deskcolor="#d1d1d1"
     inkscape:document-units="mm"
     inkscape:zoom="0.82359357"
     inkscape:cx="1044.2044"
     inkscape:cy="79.529518"
     inkscape:window-width="2560"
     inkscape:window-height="1351"
     inkscape:window-x="-9"
     inkscape:window-y="-9"
     inkscape:window-maximized="1"
     inkscape:current-layer="svg1" /><defs
     id="defs1" /><rect
     style="opacity:1;fill:#ffffff;fill-opacity:1;stroke:none;stroke-width:2.73237;stroke-linecap:square;stroke-miterlimit:5;paint-order:fill markers stroke"
     id="rect11"
     width="500"
     height="104"
     x="0"
     y="0"
     inkscape:label="Background" /><rect
     style="opacity:1;fill:#c81719;fill-opacity:1;stroke:none;stroke-width:1.60062;stroke-linecap:square;stroke-miterlimit:5;paint-order:fill markers stroke"
     id="rect9"
     width="65.5"
     height="3.3"
     x="-2.7755576e-17"
     y="95.999992"
     inkscape:label="rect1" /><rect
     style="opacity:1;fill:#c81719;fill-opacity:1;stroke:none;stroke-width:1.60062;stroke-linecap:square;stroke-miterlimit:5;paint-order:fill markers stroke"
     id="rect10"
     width="65.5"
     height="3.3"
     x="434.5"
     y="95.999992"
     inkscape:label="rect2" /><g
     id="g15"
     inkscape:label="MemotechMTX512"
     style="fill:#212022;stroke:none;fill-opacity:1"><g
       id="text15"
       style="font-weight:bold;font-size:73.9748px;line-height:0;font-family:'Eurostile Extended';-inkscape-font-specification:'Eurostile Extended Bold';letter-spacing:0px;word-spacing:0px;stroke:none;stroke-width:2.959;stroke-linecap:square;stroke-miterlimit:5;paint-order:fill markers stroke;fill:#212022;fill-opacity:1"
       inkscape:label="MTX512"
       transform="scale(1.0042635,0.99575461)"
       aria-label="MTX512"><path
         style="font-weight:normal;font-family:'Microgramma D Extended';-inkscape-font-specification:'Microgramma D Extended';letter-spacing:-1.19062px;stroke:none;fill:#212022;fill-opacity:1"
         d="m 75.851755,50.435099 v 49.341192 h 6.583757 V 56.575008 h 2.885018 l 27.81452,43.201283 h 5.32619 l 27.51863,-43.201283 h 2.73706 v 43.201283 h 6.58376 V 50.435099 H 142.0592 L 115.79815,92.304836 89.01927,50.435099 Z"
         id="path15"
         inkscape:label="M" /><path
         d="m 157.80898,50.435342 v 5.769881 h 24.7812 v 43.570958 h 6.58393 V 56.205223 h 24.63351 v -5.769881 z"
         style="font-weight:normal;font-family:'Microgramma D Extended';-inkscape-font-specification:'Microgramma D Extended';letter-spacing:-0.79375px;stroke:none;fill:#212022;fill-opacity:1"
         id="path19"
         inkscape:label="T" /><path
         d="m 215.53813,50.435342 24.70761,23.597973 -27.22284,25.742866 h 9.69091 l 23.30181,-22.857926 23.6723,22.857926 h 9.39451 L 252.37777,74.033315 277.75124,50.435342 h -9.76501 L 246.3115,71.222068 224.93315,50.435342 Z"
         style="font-weight:normal;font-size:73.9748px;line-height:0;font-family:'Microgramma D Extended';-inkscape-font-specification:'Microgramma D Extended';letter-spacing:-0.79375px;word-spacing:0px;fill:#212022;stroke:none;stroke-width:2.959;stroke-linecap:square;stroke-miterlimit:5;paint-order:fill markers stroke;fill-opacity:1"
         id="path20"
         inkscape:label="X" /><path
         d="m 281.45151,50.435342 v 25.890771 h 6.43574 c 0.22192,-1.553471 0.5917,-2.293142 1.47939,-2.88494 1.99732,-1.331546 6.95374,-1.923294 16.42251,-1.923294 12.35379,0 17.08847,0.369717 19.30771,1.405364 2.88502,1.405522 3.92052,3.84676 3.92052,9.39487 0,6.139908 -0.88774,9.173201 -3.10698,10.282823 -1.92335,0.961673 -9.24699,1.553269 -19.52949,1.553269 -12.35379,0 -16.42213,-0.591764 -18.34547,-2.737034 -1.10962,-1.257571 -1.40592,-2.515396 -1.4799,-7.027859 h -6.21344 c 0.074,4.068614 0.14779,5.030345 0.51766,6.80574 0.66578,3.69874 3.47658,6.879971 6.95339,7.693694 2.73707,0.665773 9.76482,1.035341 19.52949,1.035341 l 11.0221,-0.2216 c 5.54811,-0.14795 9.09888,-0.739741 11.0962,-1.775388 4.29053,-2.293219 6.14037,-6.879898 6.14037,-14.943151 0,-7.101581 -1.33187,-11.170313 -4.51279,-13.611481 -3.32886,-2.515143 -9.2468,-3.328658 -24.04176,-3.328658 -13.90726,0 -16.27449,0.517828 -19.15951,4.364517 V 56.057317 h 46.08647 v -5.621975 z"
         style="font-weight:normal;font-family:'Microgramma D Extended';-inkscape-font-specification:'Microgramma D Extended';letter-spacing:-10.0542px;stroke:none;fill:#212022;fill-opacity:1"
         id="path21"
         inkscape:label="5" /><path
         d="m 351.30805,50.435342 -17.53193,16.644327 3.92052,4.43821 15.90485,-14.942632 h 2.29344 v 43.200934 h 6.43574 V 50.435342 Z"
         style="font-weight:normal;font-size:73.9748px;line-height:0;font-family:'Microgramma D Extended';-inkscape-font-specification:'Microgramma D Extended';letter-spacing:-10.0542px;word-spacing:0px;fill:#212022;stroke:none;stroke-width:2.959;stroke-linecap:square;stroke-miterlimit:5;paint-order:fill markers stroke;fill-opacity:1"
         id="path22"
         inkscape:label="1" /><path
         d="m 391.91795,50.213224 c -5.03029,0 -10.20875,0.295679 -13.09376,0.739528 -4.06862,0.665773 -6.50956,1.923587 -8.50687,4.43873 -2.14527,2.663093 -2.58932,5.104291 -2.58932,13.907292 h 6.28805 c 0,-4.956311 0.074,-6.139836 0.29588,-7.249458 0.44385,-2.811043 1.77532,-4.216673 4.58636,-4.882446 2.3672,-0.591798 9.69085,-1.109553 15.83076,-1.109553 8.803,0 14.86885,0.591554 17.23605,1.701176 2.51514,1.183597 3.62464,3.773048 3.62464,8.507435 0,4.068614 -1.0359,6.36139 -3.55105,7.618962 -2.21924,1.035647 -5.17781,1.405945 -16.71788,2.071718 -15.97856,0.961673 -18.27178,1.257496 -21.60064,2.884941 -4.80837,2.367194 -6.36215,6.139694 -6.36215,15.608468 0,1.701421 0.0743,3.476794 0.1482,5.326164 h 54.51925 V 94.154205 H 373.86785 V 92.45303 c 0,-8.137228 1.7014,-9.691024 11.0962,-10.282823 25.5213,-1.331546 29.14602,-1.923086 32.99271,-5.251952 2.73706,-2.441169 3.69873,-5.326441 3.69873,-11.392375 0,-3.180916 -0.36954,-6.213636 -1.03531,-7.841081 -1.25757,-3.254892 -4.36443,-5.69625 -8.2851,-6.362023 -3.10694,-0.517824 -13.4635,-1.109552 -20.41713,-1.109552 z"
         style="font-weight:normal;font-family:'Microgramma D Extended';-inkscape-font-specification:'Microgramma D Extended';letter-spacing:-10.0542px;stroke:none;fill:#212022;fill-opacity:1"
         id="path18"
         inkscape:label="2" /><path
         style="font-size:45.1268px;line-height:0;font-family:'Microgramma D Extended';-inkscape-font-specification:'Microgramma D Extended';letter-spacing:0px;word-spacing:0px;stroke-width:1.80508;stroke-linecap:square;stroke-miterlimit:5;paint-order:fill markers stroke;fill:#212022;stroke:none;fill-opacity:1"
         d="M 87.916016,5.1369353 V 35.236511 h 4.016285 V 8.8824597 h 1.759945 L 110.65992,35.236511 h 3.24913 L 130.69622,8.8824597 h 1.66969 V 35.236511 h 4.01629 V 5.1369353 h -8.0777 L 112.28449,30.678704 95.948586,5.1369353 Z M 140.89487,35.236511 h 29.51293 v -3.51989 H 144.91116 V 21.382583 h 24.36847 v -3.51989 H 144.91116 V 8.6568257 h 25.45151 V 5.1369353 h -29.4678 z M 173.25083,5.1369353 V 35.236511 h 4.01629 V 8.8824597 h 1.75994 l 16.96768,26.3540513 h 3.24913 L 216.03104,8.8824597 h 1.66969 V 35.236511 h 4.01629 V 5.1369353 h -8.0777 L 197.6193,30.678704 181.2834,5.1369353 Z m 72.11262,-0.090254 c -2.61735,0 -7.80693,0.1353804 -9.612,0.225634 -4.10654,0.2707608 -5.64085,0.676902 -7.17517,1.805072 -2.21121,1.7148184 -2.93324,4.9188213 -2.93324,12.9965183 0,4.873695 0.18051,7.671556 0.6769,9.657136 0.54153,2.436847 2.48198,4.332172 4.91883,4.873694 2.25634,0.496395 7.40079,0.722029 15.43336,0.722029 9.20587,0 12.54525,-0.586649 14.3052,-2.436847 1.66969,-1.805072 2.30146,-5.189582 2.30146,-12.590378 0,-2.301467 -0.13538,-5.324962 -0.31588,-6.859273 -0.31589,-3.204003 -0.85741,-4.7383145 -2.12096,-5.9567381 -1.94046,-1.9404524 -5.18959,-2.4368472 -15.4785,-2.4368472 z m -2.34659,3.610144 c 7.71668,0 10.01815,0.090254 12.31962,0.451268 2.0307,0.3158876 3.11375,1.2184233 3.38451,2.9332423 0.27076,1.353804 0.45126,4.963948 0.45126,8.348458 0,2.797861 -0.22563,6.046991 -0.49639,7.671556 -0.36101,1.805072 -1.30868,2.752735 -3.06862,3.068622 -2.03071,0.361015 -6.18237,0.586649 -10.6048,0.586649 -1.94045,0 -6.99465,-0.135381 -8.61922,-0.225634 -3.33938,-0.225634 -4.55781,-0.541522 -5.37009,-1.398931 -0.94766,-1.037916 -1.26355,-3.655271 -1.26355,-10.334037 0,-5.776231 0.45127,-8.619219 1.53431,-9.612009 1.1733,-1.0830431 4.24192,-1.4891843 11.73297,-1.4891843 z m 22.06706,-3.5198904 v 3.5198904 h 15.11747 V 35.236511 h 4.01629 V 8.6568257 H 299.2449 V 5.1369353 Z m 36.41733,30.0995757 h 29.51293 v -3.51989 H 305.51754 V 21.382583 h 24.36847 v -3.51989 H 305.51754 V 8.6568257 h 25.45151 V 5.1369353 h -29.4678 z m 62.99706,-10.28891 -0.0451,1.353804 c 0,3.745524 -0.63178,4.557807 -3.65527,5.009075 -1.1733,0.180507 -6.40801,0.406141 -9.38638,0.406141 -3.65527,0 -7.76181,-0.135381 -9.74739,-0.361015 -2.5271,-0.225634 -3.51989,-1.173296 -3.8809,-3.474763 -0.18051,-1.489185 -0.45127,-6.317752 -0.45127,-8.799726 0,-5.234709 0.54152,-8.122824 1.66969,-9.070487 1.21843,-0.9476631 4.8737,-1.3538043 12.81601,-1.3538043 5.23471,0 8.7546,0.3158876 10.24379,0.8574092 1.71482,0.6769021 2.16609,1.5794381 2.21121,4.5578071 v 1.037916 h 3.74553 c -0.0903,-5.1895819 -0.27076,-6.1372447 -1.62457,-7.4910487 -1.94045,-1.9855792 -5.14445,-2.5722276 -14.39545,-2.5722276 -2.39172,0 -6.36288,0.090254 -8.2582,0.225634 -4.51268,0.2707608 -6.2275,0.676902 -7.67156,1.805072 -2.07583,1.6696916 -2.79786,5.2347093 -2.79786,13.5831673 0,7.265415 0.63178,10.604798 2.34659,12.274489 1.98558,1.940453 5.14446,2.391721 17.01281,2.391721 9.29612,0 12.13911,-0.451268 13.89905,-2.12096 1.39893,-1.353804 1.62457,-2.481974 1.8502,-8.258204 z M 371.71854,5.1369353 V 35.236511 h 4.01628 V 21.382583 h 27.70786 v 13.853928 h 4.01628 V 5.1369353 h -4.01628 V 17.862693 H 375.73482 V 5.1369353 Z"
         id="text11"
         inkscape:label="Memotech"
         transform="scale(1.0050514,0.99497402)"
         aria-label="MEMOTECH" /></g></g></svg>
