<?xml version="1.0" encoding="UTF-8" standalone="no"?>
<!-- Created by ERK -->

<svg
   version="1.1"
   id="Layer_1"
   x="0px"
   y="0px"
   viewBox="0 0 3839 1077.2"
   style="enable-background:new 0 0 3839 1077.2;"
   xml:space="preserve"
   sodipodi:docname="mz2500.svg"
   inkscape:version="1.3.2 (091e20e, 2023-11-25, custom)"
   xmlns:inkscape="http://www.inkscape.org/namespaces/inkscape"
   xmlns:sodipodi="http://sodipodi.sourceforge.net/DTD/sodipodi-0.dtd"
   xmlns="http://www.w3.org/2000/svg"
   xmlns:svg="http://www.w3.org/2000/svg"><defs
   id="defs63">
			
			
		
			
			
		
			
			
		
			
			
		
			
			
		
			
			
		
			
			
		
			
			
		
			
			
		
			
			
		
			
			
		
			
			
		
			
			
		
			
			
		
			
			
		
			
			
		
			
			
		
			
			
		
			
			
		
			
			
		
			
			
		
			
			
		
			
			
		
			
			
		
			
			
		
			
			
		
			
			
		
			
			
		
			
			
		
			
			
		
			
			
		
			
			
		
			
			
		</defs><sodipodi:namedview
   id="namedview63"
   pagecolor="#ffffff"
   bordercolor="#000000"
   borderopacity="0.25"
   inkscape:showpageshadow="2"
   inkscape:pageopacity="0.0"
   inkscape:pagecheckerboard="true"
   inkscape:deskcolor="#d1d1d1"
   inkscape:zoom="0.47824954"
   inkscape:cx="1881.8628"
   inkscape:cy="601.1506"
   inkscape:window-width="2560"
   inkscape:window-height="1351"
   inkscape:window-x="-9"
   inkscape:window-y="-9"
   inkscape:window-maximized="1"
   inkscape:current-layer="g68" />
<style
   type="text/css"
   id="style1">
	.st0{fill:#FFFFFF;}
	.st1{fill:#D02026;}
</style>
<g
   id="g68"
   inkscape:label="Logo"><g
     id="g63"
     inkscape:label="SHARPmz2500">
	
	<g
   id="g67"
   inkscape:label="mz2500"
   style="enable-background:new 0 0 3839 1077.2"><rect
     x="34.400002"
     y="475.20001"
     width="190.3"
     height="567.5"
     id="rect34"
     inkscape:label="m1"
     style="enable-background:new 0 0 3839 1077.2" /><path
     d="M 311,1042.7 V 623.3 c 0,-12.9 -10.5,-23.4 -23.4,-23.4 H 267.3 V 475.2 h 134.8 c 26.6,0 51.5,10.4 70.3,29.1 18.7,18.7 29,43.6 28.9,70.1 v 468.3 z"
     id="path33"
     inkscape:label="m2" /><path
     d="M 587.9,1042.7 V 623.3 c 0,-12.9 -10.5,-23.4 -23.4,-23.4 H 528 V 475.2 h 150.8 c 54.8,0 99.3,44.5 99.3,99.2 v 468.3 z"
     id="path31"
     inkscape:label="m3"
     style="enable-background:new 0 0 3839 1077.2" /><polygon
     points="1135.6,475.2 1043.8,599.9 851.5,599.9 851.5,475.2 "
     id="polygon36"
     inkscape:label="z1" /><path
     d="m 916.7,1042.7 c -29.6,0 -56.3,-16.4 -69.7,-42.8 -13.4,-26.5 -10.8,-57.7 6.8,-81.6 l 326.1,-443.1 h 96 c 27.2,0 51.8,15.1 64.1,39.4 12.3,24.3 9.9,53 -6.1,74.9 l -332.2,453.3 h -85 z"
     id="path38"
     inkscape:label="z2" /><polygon
     points="1310.4,918 1310.4,1042.7 1045.9,1042.7 1137.6,918 "
     id="polygon39"
     inkscape:label="z3" /><rect
     x="1370.3"
     y="688"
     width="241.89999"
     height="143.39999"
     id="rect35"
     inkscape:label="-"
     style="enable-background:new 0 0 3839 1077.2" /><path
     d="M 1685.5,618 V 474.5 h 261.6 V 618 Z m 211.7,-50 V 524.5 H 1735.5 V 568 Z"
     id="path43"
     inkscape:label="2_1" /><path
     d="m 1685.5,1042.3 v -248 c 0,-59.2 48.2,-107.4 107.4,-107.4 h 178 c 8.1,0 14.7,-6.6 14.7,-14.7 V 474.5 h 83 c 28.6,0 55.6,11.2 75.9,31.4 20.3,20.3 31.4,47.2 31.4,76 v 141.6 c 0,59.2 -48.2,107.4 -107.4,107.4 h -175.2 c -8.1,0 -14.7,6.6 -14.7,14.7 v 53.2 h 297.3 v 143.6 h -490.4 z m 440.3,-50 V 948.8 H 1828.5 V 845.6 c 0,-35.7 29,-64.7 64.7,-64.7 h 175.2 c 31.6,0 57.4,-25.7 57.4,-57.3 V 581.9 c 0,-15.3 -6,-29.7 -16.8,-40.5 -10.8,-10.8 -25.2,-16.8 -40.5,-16.8 h -33 v 147.7 c 0,35.7 -29,64.7 -64.7,64.7 h -178 c -31.6,0 -57.3,25.7 -57.3,57.3 v 198 z"
     id="path41"
     inkscape:label="2_2"
     style="enable-background:new 0 0 3839 1077.2" /><path
     d="M 2228.7,830.9 V 474.5 h 489.5 V 618 h -299.4 v 212.8 h -190.1 z m 140,-50 V 568 h 299.4 v -43.5 h -389.5 v 256.4 z"
     id="path47"
     inkscape:label="5_1" /><path
     d="M 2228.6,1042.3 V 898.8 h 282.1 c 8,0 14.6,-6.5 14.6,-14.6 v -38.7 c 0,-8 -6.5,-14.6 -14.6,-14.6 H 2457 V 687.1 h 153.9 c 59.1,0 107.2,48.1 107.2,107.2 v 141 c 0,28.5 -11.1,55.4 -31.3,75.6 -20.3,20.3 -47.2,31.5 -75.9,31.5 h -382.3 z m 382.3,-50 c 31.5,0 57.2,-25.7 57.2,-57.2 v -141 c 0,-31.5 -25.7,-57.2 -57.2,-57.2 H 2507 v 44 h 3.7 c 35.6,0 64.6,29 64.6,64.6 v 38.7 c 0,35.6 -29,64.6 -64.6,64.6 h -232 v 43.4 h 332.2 z"
     id="path45"
     inkscape:label="5_2"
     style="enable-background:new 0 0 3839 1077.2" /><path
     d="m 2878.3,1042.3 c -59.2,0 -107.4,-48.2 -107.4,-107.4 v -353 c 0,-59.2 48.2,-107.4 107.4,-107.4 h 85.7 v 409.6 c 0,8.1 6.6,14.7 14.7,14.7 h 74.8 c 8.1,0 14.7,-6.6 14.7,-14.7 V 632.7 c 0,-8.1 -6.6,-14.7 -14.7,-14.7 h -51.2 V 474.5 H 3154 c 59.2,0 107.4,48.2 107.4,107.4 V 935 c 0,59.2 -48.2,107.4 -107.4,107.4 h -275.7 z m 0,-517.8 c -31.6,0 -57.3,25.7 -57.3,57.3 v 353.1 c 0,31.6 25.7,57.4 57.3,57.4 H 3154 c 31.6,0 57.3,-25.7 57.3,-57.4 v -353 c 0,-31.6 -25.7,-57.3 -57.3,-57.3 h -101.6 v 43.5 h 1.2 c 35.7,0 64.7,29 64.7,64.7 v 251.4 c 0,35.7 -29,64.7 -64.7,64.7 h -74.8 c -35.7,0 -64.7,-29 -64.7,-64.7 V 524.5 Z"
     id="path49"
     inkscape:label="0" /><path
     d="m 3421.6,1042.3 c -59.2,0 -107.4,-48.2 -107.4,-107.4 v -353 c 0,-59.2 48.2,-107.4 107.4,-107.4 h 85.7 v 409.6 c 0,8.1 6.6,14.7 14.7,14.7 h 74.8 c 8.1,0 14.7,-6.6 14.7,-14.7 V 632.7 c 0,-8.1 -6.6,-14.7 -14.7,-14.7 h -51.2 V 474.5 h 151.6 c 59.2,0 107.4,48.2 107.4,107.4 V 935 c 0,59.2 -48.2,107.4 -107.4,107.4 h -275.6 z m 0,-517.8 c -31.6,0 -57.3,25.7 -57.3,57.3 v 353.1 c 0,31.6 25.7,57.4 57.3,57.4 h 275.6 c 31.6,0 57.3,-25.7 57.3,-57.4 v -353 c 0,-31.6 -25.7,-57.3 -57.3,-57.3 h -101.6 v 43.5 h 1.2 c 35.7,0 64.7,29 64.7,64.7 v 251.4 c 0,35.7 -29,64.7 -64.7,64.7 H 3522 c -35.7,0 -64.7,-29 -64.7,-64.7 V 524.5 Z"
     id="path51"
     inkscape:label="0" /></g><g
   id="g62"
   inkscape:label="Sharp">
		
		
		
		
		
		
		
		
		
		
		
		
		
		<path
   class="st1"
   d="m 1074.7,351.6 c -4,0 -8,0 -12.1,-0.1 -68.5,-1.1 -152.2,-18.4 -223.7,-46.4 l -5.4,-2.1 43.4,-71.4 4,2 c 61.6,30.5 118.9,46.9 180.5,51.4 7.3,0.6 14.3,0.8 20.6,0.8 32.2,0 51.5,-7.3 51.5,-19.6 0,-13 -37.3,-20.5 -76.7,-28.5 -14.1,-2.8 -28.7,-5.8 -43.8,-9.3 -4.9,-1.1 -10,-2.3 -15.2,-3.5 -65.2,-14.7 -154.6,-34.8 -149.7,-104.2 4.1,-56.6 70.6,-86.5 192.4,-86.5 7.4,0 15.1,0.1 22.9,0.3 74.3,2.1 151.1,21.8 184.7,34.5 l 5.5,2.1 -40.1,65.9 -3.9,-1.7 c -47.8,-20.4 -96.9,-33.3 -145.9,-38.4 -14.1,-1.5 -26.9,-2.3 -38.2,-2.3 -32.2,0 -50.6,6.2 -50.6,17.1 0,4.8 7.5,9.8 21.6,14.3 15.2,4.9 36.2,8.9 60.4,13.5 6.2,1.2 12.5,2.4 19,3.6 50.6,9.8 102.1,21.4 135.9,39.4 34.1,18.2 49.4,41.9 48.2,74.6 -1,35.2 -21.8,61 -61.8,76.5 -30.2,12.1 -71.8,18 -123.5,18 z"
   id="path58"
   inkscape:label="S"
   style="enable-background:new 0 0 3839 1077.2" /><polygon
   class="st1"
   points="1393.1,226.2 1393.1,342.4 1285.2,342.4 1285.2,43.5 1393.1,43.5 1393.1,154 1573.4,154 1573.4,43.5 1681.3,43.5 1681.3,342.4 1573.4,342.4 1573.4,226.2 "
   id="polygon52"
   inkscape:label="H" />
		<path
   class="st1"
   d="m 2041,342.3 -35,-59.2 h -197.5 l -36,59.2 h -86.6 L 1868,43.5 h 122.4 l 182.1,298.9 H 2041 Z m -74.4,-125.9 -57.8,-97.8 -59.7,97.8 z"
   id="path54"
   inkscape:label="A" />
		<path
   class="st1"
   d="m 2447.2,342.4 -155.4,-138 15,-24.8 3.2,0.5 c 22,3.3 41.8,5 58.9,5 32.5,0 56.2,-6.1 70.5,-18.2 9.6,-8.1 14.6,-18.4 14.1,-29.1 -0.4,-9.7 -5.4,-18.9 -13.3,-24.5 -17.1,-12.2 -39,-17.8 -75.8,-19.4 -2.2,-0.1 -6,-0.2 -11.3,-0.2 -11,0 -39.1,0.6 -68.3,5.9 v 242.5 h -107.9 v -294 l 4.1,-0.7 c 35.5,-6 87.6,-12.9 175.9,-12.9 28.3,0 61,2.7 89.7,7.5 36,6 65.2,15 84.4,26 15.4,8.8 34.8,24.8 40.2,51.4 3.9,19.5 -1.2,40.3 -14,57.2 -23.8,31 -70.3,43.3 -97.3,48 L 2596,342.4 Z"
   id="path56"
   inkscape:label="R" />
		
		<path
   class="st1"
   d="m 2603.3,342.4 v -294 l 4.1,-0.7 c 35.5,-6 87.7,-12.9 176.5,-12.9 31.4,0 64.6,2.7 93.6,7.6 34.9,5.9 62.2,14.7 81.2,25.9 24.1,14.3 39.9,36.1 43.4,59.8 3.3,23 -5.1,46.7 -23.7,66.8 -28.8,31.5 -91,50 -170.7,50.8 -1.5,0 -3.1,0 -4.6,0 -29.3,0 -63.2,-2.6 -91.8,-6.9 v 103.7 h -108 z m 108.3,-167.1 c 30,6.6 55.6,9.8 78.1,9.9 39.9,0 62.5,-5.1 77.7,-17.7 9.5,-7.8 14.5,-18.1 14,-29 -0.4,-9.9 -5.5,-19.4 -13.3,-24.8 -17.1,-12.1 -40,-17.9 -76.5,-19.4 -2.2,-0.1 -6,-0.2 -11.4,-0.2 -11.2,0 -39.7,0.6 -68.8,5.9 v 75.3 z"
   id="path60"
   inkscape:label="P" />
	</g>
</g></g>
</svg>
