<?xml version="1.0" encoding="UTF-8" standalone="no"?>
<!-- Created with Inkscape (http://www.inkscape.org/) -->

<svg
   width="1567.0521"
   height="713.48962"
   viewBox="0 0 1567.0521 713.48959"
   version="1.1"
   id="svg8"
   xmlns="http://www.w3.org/2000/svg"
   xmlns:svg="http://www.w3.org/2000/svg"
   xmlns:rdf="http://www.w3.org/1999/02/22-rdf-syntax-ns#"
   xmlns:cc="http://creativecommons.org/ns#"
   xmlns:dc="http://purl.org/dc/elements/1.1/">
  <defs
     id="defs2" />
  <metadata
     id="metadata5">
    <rdf:RDF>
      <cc:Work
         rdf:about="">
        <dc:format>image/svg+xml</dc:format>
        <dc:type
           rdf:resource="http://purl.org/dc/dcmitype/StillImage" />
      </cc:Work>
    </rdf:RDF>
  </metadata>
  <g
     id="layer1">
    <path
       style="display:none;fill:#000000;fill-opacity:1;fill-rule:nonzero;stroke:none;stroke-width:13.3333"
       d="m 26.206993,865.7292 v 29.2186 H 3.6547933 V 816.9792 H 58.186193 v 18.5416 h -31.9792 v 12.7084 h 24.5312 v 17.5 h -24.5312"
       id="path4335" />
    <path
       style="display:none;fill:#000000;fill-opacity:1;fill-rule:nonzero;stroke:none;stroke-width:13.3333"
       d="m 166.20699,848.4374 v -14.8958 h 9.3749 c 2.1876,0 4.5833,0 6.5625,1.0413 2.3438,1.2493 3.6459,3.75 3.6459,6.3541 0,6.7188 -6.0417,7.5 -11.0937,7.5 z m 44.0104,46.5104 -13.6459,-34.0104 c 8.9063,-4.1666 13.2813,-10.3125 13.2813,-20.5729 0,-7.6041 -2.9688,-14.5312 -9.2188,-18.5937 -5.625,-3.9063 -12.8645,-4.7916 -19.4792,-4.7916 h -38.3853 v 77.9686 h 23.4375 v -29.7916 h 7.2396 l 11.0416,29.7916 h 25.7292"
       id="path4337" />
    <path
       style="display:none;fill:#000000;fill-opacity:1;fill-rule:nonzero;stroke:none;stroke-width:13.3333"
       d="m 330.73809,833.4374 c 10.2604,0 11.3542,15.2084 11.3542,22.8647 0,7.5 -0.781,21.9271 -11.3542,21.9271 -10.5207,0 -11.3019,-14.4271 -11.3019,-21.9271 0,-7.6563 1.0933,-22.8647 11.3019,-22.8647 z m 0,-17.6041 c -22.9686,0 -36.0415,17.0312 -36.0415,40.3645 0,22.1355 13.177,39.8959 36.0415,39.8959 22.9167,0 36.0938,-17.7604 36.0938,-39.8959 0,-23.3333 -13.073,-40.3645 -36.0938,-40.3645"
       id="path4339" />
    <path
       style="display:none;fill:#000000;fill-opacity:1;fill-rule:nonzero;stroke:none;stroke-width:13.3333"
       d="m 537.09229,894.9478 h -21.5624 v -55.729 h -0.208 l -13.75,55.729 h -14.7396 l -14.1667,-55.729 h -0.26 v 55.729 h -17.3437 v -77.9686 h 30.2084 l 10.8333,41.3541 h 0.208 l 10.3125,-41.3541 h 30.4687 v 77.9686"
       id="path4341" />
    <path
       style="display:none;fill:#000000;fill-opacity:1;fill-rule:nonzero;stroke:none;stroke-width:13.3333"
       d="m 788.44649,894.9478 -21.6666,-36.5104 -6.7188,-14.0625 -0.208,0.208 0.208,0.937 c 1.0933,5 1.5625,7.7084 1.5625,13.0208 v 36.4063 h -18.8541 v -77.9687 h 21.927 l 25.2604,43.5416 0.26,-0.26 -1.6666,-21.6145 v -21.6667 h 18.8021 v 77.9687 h -18.9063"
       id="path4343" />
    <path
       style="display:none;fill:#000000;fill-opacity:1;fill-rule:nonzero;stroke:none;stroke-width:13.3333"
       d="m 932.19649,833.4374 c 10.2083,0 11.302,15.2084 11.302,22.8647 0,7.5 -0.729,21.9271 -11.302,21.9271 -10.5729,0 -11.3542,-14.4271 -11.3542,-21.9271 0,-7.6563 1.1453,-22.8647 11.3542,-22.8647 z m 0,-17.6041 c -22.9688,0 -36.0937,17.0312 -36.0937,40.3645 0,22.1355 13.2291,39.8959 36.0937,39.8959 22.8646,0 36.0938,-17.7604 36.0938,-39.8959 0,-23.3333 -13.1251,-40.3645 -36.0938,-40.3645"
       id="path4345" />
    <path
       style="display:none;fill:#000000;fill-opacity:1;fill-rule:nonzero;stroke:none;stroke-width:13.3333"
       d="m 1131.4152,894.9478 h -19.4791 l -10.4688,-42.9686 h -0.208 l -9.7916,42.9686 h -20.2604 l -20.1041,-77.9686 h 21.7708 l 10.4687,45 h 0.208 l 10.2082,-45 h 18.1772 l 11.0938,45 h 0.208 l 10.4688,-45 h 17.7082 l -20,77.9686"
       id="path4347" />
    <path
       style="display:none;fill:#000000;fill-opacity:1;fill-rule:nonzero;stroke:none;stroke-width:13.3333"
       d="m 1379.6444,833.4374 c 10.2604,0 11.3541,15.2084 11.3541,22.8647 0,7.5 -0.781,21.9271 -11.3541,21.9271 -10.5729,0 -11.3021,-14.4271 -11.3021,-21.9271 0,-7.6563 1.0933,-22.8647 11.3021,-22.8647 z m 0,-17.6041 c -22.9688,0 -36.0416,17.0312 -36.0416,40.3645 0,22.1355 13.1771,39.8959 36.0416,39.8959 22.8645,0 36.0937,-17.7604 36.0937,-39.8959 0,-23.3333 -13.0729,-40.3645 -36.0937,-40.3645"
       id="path4349" />
    <path
       style="display:none;fill:#000000;fill-opacity:1;fill-rule:nonzero;stroke:none;stroke-width:13.3333"
       d="m 1549.8528,894.9478 -21.7188,-36.5104 -6.7188,-14.0625 -0.208,0.208 0.208,0.937 c 1.1453,5 1.5625,7.7084 1.5625,13.0208 v 36.4063 h -18.8021 v -77.9687 h 21.8751 l 25.3125,43.5416 0.208,-0.26 -1.6667,-21.6145 v -21.6667 h 18.8542 v 77.9687 h -18.9062"
       id="path4351" />
    <path
       style="fill:#d90021;fill-opacity:1;fill-rule:nonzero;stroke:none;stroke-width:13.3333"
       d="M 1565.7381,350.9896 C 1529.4881,201.8749 1389.6965,67.8125 1247.4569,45.6771 1178.1861,34.8959 1046.6756,41.7708 944.85279,209.0104 c -52.1355,85.5208 -114.5833,123.2812 -185.6772,112.1874 -50,-7.8124 -96.0937,-45.7812 -136.9271,-112.8123 C 520.37359,41.1979 388.91519,34.2708 319.59229,45.1041 177.40479,67.1875 37.613193,201.3021 1.3110933,350.3645 c -5.9896,24.5833 9.1144997,49.3229 33.6458997,55.3125 24.5833,5.9896 49.3229,-9.1145 55.2604,-33.6978 C 117.92559,258.177 227.14439,152.0833 333.65479,135.5208 c 81.8751,-12.7083 154.6355,28.9063 210.4167,120.4688 55.5208,91.1458 123.125,143.4896 201.0417,155.6249 76.4063,11.9271 186.6667,-5.3124 277.86451,-155 55.7812,-91.5624 128.5418,-133.229 210.4167,-120.5208 106.5625,16.6146 215.7292,122.7084 243.4375,236.5104 5.9376,24.5833 30.7292,39.6355 55.2604,33.6459 24.5833,-5.9375 39.6354,-30.7292 33.6458,-55.2604"
       id="path4353" />
    <path
       style="fill:#d90021;fill-opacity:1;fill-rule:nonzero;stroke:none;stroke-width:13.3333"
       d="M 1021.9881,0 C 921.67559,0 840.11319,81.6145 840.11319,181.9271 c 0,100.3125 81.5624,181.927 181.87491,181.927 100.3126,0 181.9271,-81.6145 181.9271,-181.927 C 1203.9152,81.6145 1122.3007,0 1021.9881,0 Z m 0,272.2916 c -49.84371,0 -90.36451,-40.5208 -90.36451,-90.3645 0,-49.8438 40.5208,-90.3646 90.36451,-90.3646 49.8438,0 90.4167,40.5208 90.4167,90.3646 0,49.8437 -40.5729,90.3645 -90.4167,90.3645"
       id="path4355" />
    <path
       style="fill:#000000;fill-opacity:1;fill-rule:nonzero;stroke:none;stroke-width:13.3333"
       d="M 1.7277933,502.2916 H 45.529893 L 111.25899,627.3437 V 502.2916 h 39.1666 v 205.9376 h -37.3437 L 40.894393,569.0104 V 708.2292 H 1.7277933 V 502.2916"
       id="path4357" />
    <path
       style="fill:#000000;fill-opacity:1;fill-rule:nonzero;stroke:none;stroke-width:13.3333"
       d="m 522.82149,631.0416 c 0,29.8438 4.4792,42.5521 28.0208,42.5521 23.8542,0 28.0209,-12.9688 28.0209,-42.5521 v -128.75 h 45.7291 v 139.1666 c 0,48.4376 -23.6979,71.7188 -73.75,71.7188 -49.7395,0 -73.75,-23.5937 -73.75,-71.7188 V 502.2916 h 45.7292 v 128.75"
       id="path4359" />
    <path
       style="fill:#000000;fill-opacity:1;fill-rule:nonzero;stroke:none;stroke-width:13.3333"
       d="m 1044.3319,631.0416 c 0,29.0105 -2.2396,42.5521 -23.75,42.5521 -21.51041,0 -23.75001,-13.5416 -23.75001,-42.5521 v -51.875 c 0,-29.0104 2.2396,-42.5521 23.75001,-42.5521 21.5104,0 23.75,13.5417 23.75,42.5521 z m -93.54161,-44.0104 v 36.4062 c 0,31.5626 1.4062,53.5418 18.2292,70.9375 12.0833,12.3439 29.479,19.1147 51.56241,19.1147 22.0833,0 39.7917,-6.7708 51.875,-19.1147 16.823,-17.3957 18.2292,-39.3749 18.2292,-70.9375 v -36.4062 c 0,-31.5624 -1.4062,-53.5416 -18.2292,-70.9375 -12.0833,-12.3437 -29.7917,-19.1145 -51.875,-19.1145 -22.08341,0 -39.47911,6.7708 -51.56241,19.1145 -16.823,17.3959 -18.2292,39.3751 -18.2292,70.9375"
       id="path4361" />
    <path
       style="fill:#000000;fill-opacity:1;fill-rule:nonzero;stroke:none;stroke-width:13.3333"
       d="m 1416.1548,502.2916 h 43.8021 l 65.7292,125.0521 V 502.2916 h 39.1667 v 205.9376 h -37.3439 l -72.1874,-139.2188 v 139.2188 h -39.1667 V 502.2916"
       id="path4363" />
    <path
       style="display:none;fill:#000000;fill-opacity:1;fill-rule:nonzero;stroke:none;stroke-width:13.3333"
       d="m 1616.6756,677.8645 v 5.0521 h -7.1353 v 25.4688 h -6.3542 v -25.4688 h -7.0833 v -5.0521 h 20.5728"
       id="path4365" />
    <path
       style="display:none;fill:#000000;fill-opacity:1;fill-rule:nonzero;stroke:none;stroke-width:13.3333"
       d="m 1619.4881,708.3854 v -30.5209 h 10.2604 l 4.7918,20.7292 h 0.05 l 5.0521,-20.7292 h 9.9479 v 30.5209 h -6.1979 v -23.5938 h -0.107 l -5.8855,23.5938 h -6.0416 l -5.5729,-23.5938 h -0.107 v 23.5938 h -6.198"
       id="path4367" />
  </g>
</svg>
