<?xml version="1.0" encoding="UTF-8" standalone="no"?>
<!-- Created by ERK -->

<svg
   width="2200"
   height="900"
   viewBox="0 0 2200 899.99997"
   version="1.1"
   id="svg8"
   sodipodi:docname="n501-w.svg"
   inkscape:version="1.3.2 (091e20e, 2023-11-25, custom)"
   xmlns:inkscape="http://www.inkscape.org/namespaces/inkscape"
   xmlns:sodipodi="http://sodipodi.sourceforge.net/DTD/sodipodi-0.dtd"
   xmlns="http://www.w3.org/2000/svg"
   xmlns:svg="http://www.w3.org/2000/svg"
   xmlns:rdf="http://www.w3.org/1999/02/22-rdf-syntax-ns#"
   xmlns:cc="http://creativecommons.org/ns#"
   xmlns:dc="http://purl.org/dc/elements/1.1/">
  <sodipodi:namedview
     id="namedview1"
     pagecolor="#ffffff"
     bordercolor="#000000"
     borderopacity="0.25"
     inkscape:showpageshadow="2"
     inkscape:pageopacity="0.0"
     inkscape:pagecheckerboard="true"
     inkscape:deskcolor="#d1d1d1"
     inkscape:zoom="0.82846514"
     inkscape:cx="1062.2052"
     inkscape:cy="481.00998"
     inkscape:window-width="2560"
     inkscape:window-height="1351"
     inkscape:window-x="-9"
     inkscape:window-y="-9"
     inkscape:window-maximized="1"
     inkscape:current-layer="layer1" />
  <defs
     id="defs2" />
  <metadata
     id="metadata5">
    <rdf:RDF>
      <cc:Work
         rdf:about="">
        <dc:format>image/svg+xml</dc:format>
        <dc:type
           rdf:resource="http://purl.org/dc/dcmitype/StillImage" />
      </cc:Work>
    </rdf:RDF>
  </metadata>
  <g
     id="layer1"
     inkscape:label="Logo"
     transform="translate(275.20485,35)">
    <g
       id="g1"
       inkscape:label="Text"
       style="fill:#ffffff">
      <path
         style="fill:#ffffff;fill-opacity:1;fill-rule:nonzero;stroke:none;stroke-width:13.3333"
         d="M 1.7277933,502.2916 H 45.529893 L 111.25899,627.3437 V 502.2916 h 39.1666 v 205.9376 h -37.3437 L 40.894393,569.0104 V 708.2292 H 1.7277933 V 502.2916"
         id="path4357"
         inkscape:label="N" />
      <path
         style="fill:#ffffff;fill-opacity:1;fill-rule:nonzero;stroke:none;stroke-width:13.3333"
         d="m 522.82149,631.0416 c 0,29.8438 4.4792,42.5521 28.0208,42.5521 23.8542,0 28.0209,-12.9688 28.0209,-42.5521 v -128.75 h 45.7291 v 139.1666 c 0,48.4376 -23.6979,71.7188 -73.75,71.7188 -49.7395,0 -73.75,-23.5937 -73.75,-71.7188 V 502.2916 h 45.7292 v 128.75"
         id="path4359"
         inkscape:label="U" />
      <path
         style="fill:#ffffff;fill-opacity:1;fill-rule:nonzero;stroke:none;stroke-width:13.3333"
         d="m 1044.3319,631.0416 c 0,29.0105 -2.2396,42.5521 -23.75,42.5521 -21.51041,0 -23.75001,-13.5416 -23.75001,-42.5521 v -51.875 c 0,-29.0104 2.2396,-42.5521 23.75001,-42.5521 21.5104,0 23.75,13.5417 23.75,42.5521 z m -93.54161,-44.0104 v 36.4062 c 0,31.5626 1.4062,53.5418 18.2292,70.9375 12.0833,12.3439 29.479,19.1147 51.56241,19.1147 22.0833,0 39.7917,-6.7708 51.875,-19.1147 16.823,-17.3957 18.2292,-39.3749 18.2292,-70.9375 v -36.4062 c 0,-31.5624 -1.4062,-53.5416 -18.2292,-70.9375 -12.0833,-12.3437 -29.7917,-19.1145 -51.875,-19.1145 -22.08341,0 -39.47911,6.7708 -51.56241,19.1145 -16.823,17.3959 -18.2292,39.3751 -18.2292,70.9375"
         id="path4361"
         inkscape:label="O" />
      <path
         style="fill:#ffffff;fill-opacity:1;fill-rule:nonzero;stroke:none;stroke-width:13.3333"
         d="m 1416.1548,502.2916 h 43.8021 l 65.7292,125.0521 V 502.2916 h 39.1667 v 205.9376 h -37.3439 l -72.1874,-139.2188 v 139.2188 h -39.1667 V 502.2916"
         id="path4363"
         inkscape:label="N" />
      <path
         style="display:inline;fill:#ffffff;fill-opacity:1;fill-rule:nonzero;stroke:none;stroke-width:13.3333"
         d="m 1616.6756,677.8645 v 5.0521 h -7.1353 v 25.4688 h -6.3542 v -25.4688 h -7.0833 v -5.0521 h 20.5728"
         id="path4365"
         inkscape:label="T" />
      <path
         style="display:inline;fill:#ffffff;fill-opacity:1;fill-rule:nonzero;stroke:none;stroke-width:13.3333"
         d="m 1619.4881,708.3854 v -30.5209 h 10.2604 l 4.7918,20.7292 h 0.05 l 5.0521,-20.7292 h 9.9479 v 30.5209 h -6.1979 v -23.5938 h -0.107 l -5.8855,23.5938 h -6.0416 l -5.5729,-23.5938 h -0.107 v 23.5938 h -6.198"
         id="path4367"
         inkscape:label="M" />
    </g>
    <g
       id="g2"
       inkscape:label="Logo">
      <path
         style="fill:#d90021;fill-opacity:1;fill-rule:nonzero;stroke:none;stroke-width:13.3333"
         d="M 1021.9881,0 C 921.67559,0 840.11319,81.6145 840.11319,181.9271 c 0,100.3125 81.5624,181.927 181.87491,181.927 100.3126,0 181.9271,-81.6145 181.9271,-181.927 C 1203.9152,81.6145 1122.3007,0 1021.9881,0 Z m 0,272.2916 c -49.84371,0 -90.36451,-40.5208 -90.36451,-90.3645 0,-49.8438 40.5208,-90.3646 90.36451,-90.3646 49.8438,0 90.4167,40.5208 90.4167,90.3646 0,49.8437 -40.5729,90.3645 -90.4167,90.3645"
         id="path4355"
         inkscape:label="LogoCircle" />
      <path
         style="fill:#d90021;fill-opacity:1;fill-rule:nonzero;stroke:none;stroke-width:13.3333"
         d="M 1565.7381,350.9896 C 1529.4881,201.8749 1389.6965,67.8125 1247.4569,45.6771 1178.1861,34.8959 1046.6756,41.7708 944.85279,209.0104 c -52.1355,85.5208 -114.5833,123.2812 -185.6772,112.1874 -50,-7.8124 -96.0937,-45.7812 -136.9271,-112.8123 C 520.37359,41.1979 388.91519,34.2708 319.59229,45.1041 177.40479,67.1875 37.613193,201.3021 1.3110933,350.3645 c -5.9896,24.5833 9.1144997,49.3229 33.6458997,55.3125 24.5833,5.9896 49.3229,-9.1145 55.2604,-33.6978 C 117.92559,258.177 227.14439,152.0833 333.65479,135.5208 c 81.8751,-12.7083 154.6355,28.9063 210.4167,120.4688 55.5208,91.1458 123.125,143.4896 201.0417,155.6249 76.4063,11.9271 186.6667,-5.3124 277.86451,-155 55.7812,-91.5624 128.5418,-133.229 210.4167,-120.5208 106.5625,16.6146 215.7292,122.7084 243.4375,236.5104 5.9376,24.5833 30.7292,39.6355 55.2604,33.6459 24.5833,-5.9375 39.6354,-30.7292 33.6458,-55.2604"
         id="path4353"
         inkscape:label="LogoLine" />
    </g>
  </g>
</svg>
