<?xml version="1.0" encoding="UTF-8" standalone="no"?>
<!-- Generator: Adobe Illustrator 23.0.3, SVG Export Plug-In . SVG Version: 6.00 Build 0)  -->

<svg
   version="1.1"
   id="Camada_1"
   x="0px"
   y="0px"
   viewBox="0 0 500 100"
   style="enable-background:new 0 0 500 100;"
   xml:space="preserve"
   sodipodi:docname="n64-jp.svg"
   inkscape:version="1.3.2 (091e20e, 2023-11-25, custom)"
   xmlns:inkscape="http://www.inkscape.org/namespaces/inkscape"
   xmlns:sodipodi="http://sodipodi.sourceforge.net/DTD/sodipodi-0.dtd"
   xmlns="http://www.w3.org/2000/svg"
   xmlns:svg="http://www.w3.org/2000/svg"><sodipodi:namedview
   id="namedview1"
   pagecolor="#ffffff"
   bordercolor="#000000"
   borderopacity="0.25"
   inkscape:showpageshadow="2"
   inkscape:pageopacity="0.0"
   inkscape:pagecheckerboard="0"
   inkscape:deskcolor="#d1d1d1"
   inkscape:zoom="5.232"
   inkscape:cx="250"
   inkscape:cy="49.980887"
   inkscape:window-width="3440"
   inkscape:window-height="1369"
   inkscape:window-x="-8"
   inkscape:window-y="-8"
   inkscape:window-maximized="1"
   inkscape:current-layer="Camada_1" /><defs
   id="defs11" />
<style
   type="text/css"
   id="style1">
	.st0{fill:#0124A6;}
	.st1{fill:#FF2D1E;}
</style>
<rect
   x="17.34"
   y="19.6"
   class="st0"
   width="49.12"
   height="11.73"
   id="rect1"
   style="fill:#0124a6;fill-opacity:1" />
<rect
   x="12.49"
   y="69.97"
   class="st0"
   width="60.86"
   height="12.05"
   id="rect2"
   style="fill:#0124a6;fill-opacity:1" />
<path
   class="st0"
   d="M83.36,17.1l-3.6,11.11c4.04,1.01,8.64,2.44,13.58,4.49c4.32,1.79,8.1,3.73,11.34,5.61  c1.6-4.28,3.2-8.56,4.8-12.84c0,0-3.54-1.71-11.91-4.43S83.36,17.1,83.36,17.1z"
   id="path2"
   style="fill:#0124a6;fill-opacity:1" />
<path
   class="st0"
   d="M79.76,70.77c0,0,20.21,0.16,32.37-8.42C122.89,54.01,125,33.82,125,33.82l12.4,4.44c0,0-2.92,24.9-15.59,34.54  c-13.22,10.06-38.04,11.15-38.04,11.15L79.76,70.77z"
   id="path3"
   style="fill:#0124a6;fill-opacity:1" />
<path
   class="st0"
   d="M149.71,72.96"
   id="path4"
   style="fill:#0124a6;fill-opacity:1" />
<path
   class="st0"
   d="M203.5,36.86h-60.18v11.38h25.27c0.15,3.03-0.07,8.57-1.81,13.8c-3.66,6.7-16.12,10.52-17.07,10.6  c1.4,3.9,4.21,11.23,4.21,11.23s18.87-4.21,23.93-12.63c5.8-8.57,5.24-19.02,4.73-23h20.92L203.5,36.86L203.5,36.86z"
   id="path5"
   style="fill:#0124a6;fill-opacity:1" />
<rect
   x="151.11"
   y="17.1"
   class="st0"
   width="44.44"
   height="10.96"
   id="rect5"
   style="fill:#0124a6;fill-opacity:1" />
<path
   class="st0"
   d="M210.71,17.1l-3.6,11.11c4.04,1.01,8.64,2.44,13.58,4.49c4.32,1.79,8.1,3.73,11.34,5.61  c1.6-4.28,3.2-8.56,4.8-12.84c0,0-3.54-1.71-11.91-4.43C216.56,18.31,210.71,17.1,210.71,17.1z"
   id="path6"
   style="fill:#0124a6;fill-opacity:1" />
<path
   class="st0"
   d="M207.11,70.77c0,0,20.21,0.16,32.37-8.42c10.76-8.34,12.86-28.53,12.86-28.53l12.4,4.44  c0,0-2.92,24.9-15.59,34.54c-13.22,10.06-38.04,11.15-38.04,11.15L207.11,70.77z"
   id="path7"
   style="fill:#0124a6;fill-opacity:1" />
<path
   class="st0"
   d="M303.13,42.16c-6.02-1.68-11.66-2.9-16.84-3.79V17.1h-14.97v66.77h14.97V51.12c4.16,0.82,8.76,1.95,13.68,3.55  c6.04,1.96,11.31,4.22,15.79,6.43c1.56-4.37,3.12-8.73,4.68-13.1C315.31,45.97,309.53,43.95,303.13,42.16z"
   id="path8"
   style="fill:#0124a6;fill-opacity:1" />
<rect
   x="298.69"
   y="17.1"
   class="st0"
   width="6.78"
   height="16.06"
   id="rect8"
   style="fill:#0124a6;fill-opacity:1" />
<rect
   x="308.51"
   y="17.1"
   class="st0"
   width="6.78"
   height="16.06"
   id="rect9"
   style="fill:#0124a6;fill-opacity:1" />
<path
   class="st0"
   d="M381.56,26.03h-20.82V15.66h-14.27v10.37h-7.09h-13.1V53.7h13.1V37.33h28.58c-0.02,0.01-0.03,0.03-0.05,0.04  c0.11,0.54-0.14,16.53-5.22,22.89c-7.1,8.89-25.46,12.39-25.73,12.38l4.21,10.29c4.51-0.07,23.27-1.79,33.37-14.97  C382.49,57.6,381.59,26.1,381.56,26.03z"
   id="path9"
   style="fill:#0124a6;fill-opacity:1" />
<path
   class="st1"
   d="M439.34,31.32c-1.27,0-2.86,0-4.76,0c-11.11,0.69-15.23,5.52-16.82,11.38h0.32c2.86-2.76,6.03-3.79,10.47-3.79  c8.57,0,16.5,6.9,16.5,19.65c0,12.41-8.57,22.07-20.31,22.07c-15.55,0-22.21-12.76-22.21-26.55c0-11.03,3.49-20.69,9.52-26.55  c5.71-5.86,13.01-8.62,21.9-8.96c2.22,0,3.81,0,5.08,0v12.76l0,0L439.34,31.32z M424.74,68.56c3.49,0,5.71-3.79,5.71-8.96  c0-4.14-1.9-8.96-6.66-8.96c-2.86,0-5.08,2.07-6.03,4.48c-0.32,0.69-0.32,1.72-0.32,3.45C417.76,63.38,419.98,68.56,424.74,68.56  L424.74,68.56L424.74,68.56z"
   id="path10"
   style="opacity:1;fill:#ff2d1e;fill-opacity:1" />
<path
   class="st1"
   d="M472.34,79.59V66.14h-23.16V55.45l18.4-35.86h18.4v34.48h5.71v12.41h-5.71v13.45h-13.96l0,0L472.34,79.59z   M472.34,53.73V43.39c0-3.79,0.32-7.93,0.32-12.07h-0.32c-1.59,4.14-3.17,7.93-5.08,12.07l-4.44,10v0.34H472.34L472.34,53.73  L472.34,53.73z"
   id="path11"
   style="fill:#ff2d1e;fill-opacity:1" />
</svg>
