<?xml version="1.0" encoding="UTF-8" standalone="no"?>
<!-- Generator: Adobe Illustrator 23.0.3, SVG Export Plug-In . SVG Version: 6.00 Build 0)  -->

<svg
   version="1.1"
   id="Camada_1"
   x="0px"
   y="0px"
   viewBox="0 0 3162.9094 857.9"
   xml:space="preserve"
   sodipodi:docname="n64-jp.svg"
   inkscape:version="1.4 (86a8ad7, 2024-10-11)"
   width="3162.9094"
   height="857.90002"
   xmlns:inkscape="http://www.inkscape.org/namespaces/inkscape"
   xmlns:sodipodi="http://sodipodi.sourceforge.net/DTD/sodipodi-0.dtd"
   xmlns="http://www.w3.org/2000/svg"
   xmlns:svg="http://www.w3.org/2000/svg"><sodipodi:namedview
   id="namedview1"
   pagecolor="#ffffff"
   bordercolor="#000000"
   borderopacity="0.25"
   inkscape:showpageshadow="2"
   inkscape:pageopacity="0.0"
   inkscape:pagecheckerboard="true"
   inkscape:deskcolor="#d1d1d1"
   inkscape:zoom="0.32699999"
   inkscape:cx="1905.1988"
   inkscape:cy="292.04894"
   inkscape:window-width="3840"
   inkscape:window-height="2066"
   inkscape:window-x="-11"
   inkscape:window-y="-11"
   inkscape:window-maximized="1"
   inkscape:current-layer="Camada_1" /><defs
   id="defs11" />
<style
   type="text/css"
   id="style1">
	.st0{fill:#0124A6;}
	.st1{fill:#FF2D1E;}
</style>














<g
   id="g13"
   transform="matrix(4.5379997,0,0,4.5379997,398.6732,193.26158)"><rect
     x="134.78101"
     y="21.726"
     class="st0"
     width="49.119999"
     height="11.73"
     id="rect1"
     style="fill:#334fa2;fill-opacity:1" /><rect
     x="129.931"
     y="72.096001"
     class="st0"
     width="60.860001"
     height="12.05"
     id="rect2"
     style="fill:#334fa2;fill-opacity:1" /><path
     class="st0"
     d="m 200.801,19.226 -3.6,11.11 c 4.04,1.01 8.64,2.44 13.58,4.49 4.32,1.79 8.1,3.73 11.34,5.61 1.6,-4.28 3.2,-8.56 4.8,-12.84 0,0 -3.54,-1.71 -11.91,-4.43 -8.37,-2.72 -14.21,-3.94 -14.21,-3.94 z"
     id="path2"
     style="fill:#334fa2;fill-opacity:1" /><path
     class="st0"
     d="m 197.201,72.896 c 0,0 20.21,0.16 32.37,-8.42 10.76,-8.34 12.87,-28.53 12.87,-28.53 l 12.4,4.44 c 0,0 -2.92,24.9 -15.59,34.54 -13.22,10.06 -38.04,11.15 -38.04,11.15 z"
     id="path3"
     style="fill:#334fa2;fill-opacity:1" /><path
     class="st0"
     d="M 267.151,75.086"
     id="path4"
     style="fill:#334fa2;fill-opacity:1" /><path
     class="st0"
     d="m 320.941,38.986 h -60.18 v 11.38 h 25.27 c 0.15,3.03 -0.07,8.57 -1.81,13.8 -3.66,6.7 -16.12,10.52 -17.07,10.6 1.4,3.9 4.21,11.23 4.21,11.23 0,0 18.87,-4.21 23.93,-12.63 5.8,-8.57 5.24,-19.02 4.73,-23 h 20.92 z"
     id="path5"
     style="fill:#334fa2;fill-opacity:1" /><rect
     x="268.55099"
     y="19.226"
     class="st0"
     width="44.439999"
     height="10.96"
     id="rect5"
     style="fill:#334fa2;fill-opacity:1" /><path
     class="st0"
     d="m 328.151,19.226 -3.6,11.11 c 4.04,1.01 8.64,2.44 13.58,4.49 4.32,1.79 8.1,3.73 11.34,5.61 1.6,-4.28 3.2,-8.56 4.8,-12.84 0,0 -3.54,-1.71 -11.91,-4.43 -8.36,-2.73 -14.21,-3.94 -14.21,-3.94 z"
     id="path6"
     style="fill:#334fa2;fill-opacity:1" /><path
     class="st0"
     d="m 324.551,72.896 c 0,0 20.21,0.16 32.37,-8.42 10.76,-8.34 12.86,-28.53 12.86,-28.53 l 12.4,4.44 c 0,0 -2.92,24.9 -15.59,34.54 -13.22,10.06 -38.04,11.15 -38.04,11.15 z"
     id="path7"
     style="fill:#334fa2;fill-opacity:1" /><path
     class="st0"
     d="m 420.571,44.286 c -6.02,-1.68 -11.66,-2.9 -16.84,-3.79 v -21.27 h -14.97 v 66.77 h 14.97 v -32.75 c 4.16,0.82 8.76,1.95 13.68,3.55 6.04,1.96 11.31,4.22 15.79,6.43 1.56,-4.37 3.12,-8.73 4.68,-13.1 -5.13,-2.03 -10.91,-4.05 -17.31,-5.84 z"
     id="path8"
     style="fill:#334fa2;fill-opacity:1" /><rect
     x="416.13101"
     y="19.226"
     class="st0"
     width="6.7800002"
     height="16.059999"
     id="rect8"
     style="fill:#334fa2;fill-opacity:1" /><rect
     x="425.95102"
     y="19.226"
     class="st0"
     width="6.7800002"
     height="16.059999"
     id="rect9"
     style="fill:#334fa2;fill-opacity:1" /><path
     class="st0"
     d="m 499.001,28.156 h -20.82 v -10.37 h -14.27 v 10.37 h -7.09 -13.1 v 27.67 h 13.1 v -16.37 h 28.58 c -0.02,0.01 -0.03,0.03 -0.05,0.04 0.11,0.54 -0.14,16.53 -5.22,22.89 -7.1,8.89 -25.46,12.39 -25.73,12.38 l 4.21,10.29 c 4.51,-0.07 23.27,-1.79 33.37,-14.97 7.95,-10.36 7.05,-41.86 7.02,-41.93 z"
     id="path9"
     style="fill:#334fa2;fill-opacity:1" /><path
     class="st1"
     d="m 556.781,33.446 c -1.27,0 -2.86,0 -4.76,0 -11.11,0.69 -15.23,5.52 -16.82,11.38 h 0.32 c 2.86,-2.76 6.03,-3.79 10.47,-3.79 8.57,0 16.5,6.9 16.5,19.65 0,12.41 -8.57,22.07 -20.31,22.07 -15.55,0 -22.21,-12.76 -22.21,-26.55 0,-11.03 3.49,-20.69 9.52,-26.55 5.71,-5.86 13.01,-8.62 21.9,-8.96 2.22,0 3.81,0 5.08,0 v 12.76 0 z m -14.6,37.24 c 3.49,0 5.71,-3.79 5.71,-8.96 0,-4.14 -1.9,-8.96 -6.66,-8.96 -2.86,0 -5.08,2.07 -6.03,4.48 -0.32,0.69 -0.32,1.72 -0.32,3.45 0.32,4.81 2.54,9.99 7.3,9.99 z"
     id="path10"
     style="opacity:1;fill:#ff2d1e;fill-opacity:1" /><path
     class="st1"
     d="m 589.781,81.716 v -13.45 h -23.16 v -10.69 l 18.4,-35.86 h 18.4 v 34.48 h 5.71 v 12.41 h -5.71 v 13.45 h -13.96 v 0 z m 0,-25.86 v -10.34 c 0,-3.79 0.32,-7.93 0.32,-12.07 h -0.32 c -1.59,4.14 -3.17,7.93 -5.08,12.07 l -4.44,10 v 0.34 z"
     id="path11"
     style="fill:#ff2d1e;fill-opacity:1" /></g>
<g
   id="g22"><g
     id="layer2_57_"><g
       id="polygon3542_57_"><polygon
         class="st2"
         points="429.5,92.8 330.5,269.6 429.5,231.7 524.1,267.9 549.4,239.5 549.4,46.3 "
         id="polygon11"
         style="fill:#354ea2" /></g><g
       id="polygon3558_57_"><polygon
         class="st2"
         points="859.1,164.7 859.1,677 737.4,728.2 558.4,494.6 558.4,803.4 429.5,857.9 429.5,330.4 558.4,281 737.4,536.8 737.4,211.6 "
         id="polygon12"
         style="fill:#354ea2" /></g><g
       id="polygon3560_57_"><polygon
         class="st2"
         points="121.7,728.2 235.9,677.6 121.7,455.9 "
         id="polygon13"
         style="fill:#354ea2" /></g></g><g
     id="layer3_57_"><g
       id="polygon3538_57_"><polygon
         class="st3"
         points="429.5,92.8 309.6,46.2 243.4,164.7 300.7,281 330.5,269.6 "
         id="polygon14"
         style="fill:#23b057" /></g><g
       id="polygon3540_57_"><polygon
         class="st3"
         points="737.4,536.8 558.4,281 524.1,267.9 615.7,164.7 737.4,211.6 "
         id="polygon15"
         style="fill:#23b057" /></g><g
       id="polygon3552_57_"><polygon
         class="st3"
         points="300.7,281 300.7,548.8 121.7,211.6 0,164.7 0,677 121.7,728.2 121.7,455.9 300.7,803.4 429.5,857.9 429.5,330.4 "
         id="polygon16"
         style="fill:#23b057" /></g></g><g
     id="layer4_57_"><g
       id="polygon3554_57_"><polygon
         class="st1"
         points="121.7,211.6 243.4,164.7 300.7,281 300.7,548.8 "
         id="polygon17"
         style="fill:#f01b25" /></g><g
       id="polygon3556_57_"><polygon
         class="st1"
         points="558.4,622.2 595,673.5 737.4,728.2 558.4,494.6 "
         id="polygon18"
         style="fill:#f01b25" /></g></g><g
     id="layer5_57_"><g
       id="polygon3544_57_"><polygon
         class="st4"
         points="300.7,281 429.5,231.7 558.4,281 429.5,330.4 "
         id="polygon19"
         style="fill:#ffa623" /></g><g
       id="polygon3546_57_"><polygon
         class="st4"
         points="859.1,164.7 737.4,211.6 615.7,164.7 737.4,117.9 "
         id="polygon20"
         style="fill:#ffa623" /></g><g
       id="polygon3548_57_"><polygon
         class="st4"
         points="243.4,164.7 121.7,211.6 0,164.7 121.7,117.9 "
         id="polygon21"
         style="fill:#ffa623" /></g><g
       id="polygon3550_57_"><polygon
         class="st4"
         points="309.6,46.2 429.5,92.8 549.4,46.3 429.5,0 "
         id="polygon22"
         style="fill:#ffa623" /></g></g></g></svg>
