<?xml version="1.0" encoding="UTF-8" standalone="no"?>
<!-- Created with Inkscape (http://www.inkscape.org/) -->

<svg
   width="1016mm"
   height="226.98604mm"
   viewBox="0 0 1016 226.98604"
   version="1.1"
   id="svg1"
   inkscape:version="1.4 (86a8ad7, 2024-10-11)"
   sodipodi:docname="n64.svg"
   xmlns:inkscape="http://www.inkscape.org/namespaces/inkscape"
   xmlns:sodipodi="http://sodipodi.sourceforge.net/DTD/sodipodi-0.dtd"
   xmlns="http://www.w3.org/2000/svg"
   xmlns:svg="http://www.w3.org/2000/svg">
  <sodipodi:namedview
     id="namedview1"
     pagecolor="#ffffff"
     bordercolor="#000000"
     borderopacity="0.25"
     inkscape:showpageshadow="2"
     inkscape:pageopacity="0.0"
     inkscape:pagecheckerboard="0"
     inkscape:deskcolor="#d1d1d1"
     inkscape:document-units="mm"
     inkscape:zoom="0.41179679"
     inkscape:cx="1814.0015"
     inkscape:cy="649.59225"
     inkscape:window-width="3840"
     inkscape:window-height="2066"
     inkscape:window-x="-11"
     inkscape:window-y="-11"
     inkscape:window-maximized="1"
     inkscape:current-layer="layer1" />
  <defs
     id="defs1" />
  <g
     inkscape:label="Layer 1"
     inkscape:groupmode="layer"
     id="layer1"
     transform="translate(387.08542,-21.166667)">
    <g
       id="g12"
       transform="matrix(0.26458333,0,0,0.26458333,-387.08542,21.166667)">
		<g
   id="g2">
			<polyline
   class="st0"
   points="1145.7,626.9 1285.1,626.9 1285.1,316.9 1190.8,316.9 1190.8,494.7 1190,494.7 1127.8,316.9      988.3,316.9 988.3,626.9 1082.6,626.9 1082.6,448 1083.4,448 1145.7,626.9    "
   id="polyline1"
   style="fill:#334fa2" />

		</g>

		<g
   id="g3">
			<polyline
   class="st0"
   points="1672,626.9 1811.5,626.9 1811.5,316.9 1717.1,316.9 1717.1,494.7 1716.3,494.7 1654.1,316.9      1514.6,316.9 1514.6,626.9 1609,626.9 1609,448 1609.7,448 1672,626.9    "
   id="polyline2"
   style="fill:#334fa2" />

		</g>

		<g
   id="g4">
			<polyline
   class="st0"
   points="2578.2,626.9 2717.7,626.9 2717.7,316.9 2623.4,316.9 2623.4,494.7 2622.5,494.7 2560.3,316.9      2420.8,316.9 2420.8,626.9 2515.2,626.9 2515.2,448 2515.9,448 2578.2,626.9    "
   id="polyline3"
   style="fill:#334fa2" />

		</g>

		<g
   id="g5">
			<rect
   x="1342.2"
   y="316.89999"
   class="st0"
   width="116.3"
   height="310"
   id="rect3"
   style="fill:#334fa2" />

		</g>

		<g
   id="g6">
			<polyline
   class="st0"
   points="1919.2,401.2 1845.2,401.2 1845.2,316.9 2109.7,316.9 2109.7,401.2 2035.5,401.2 2035.5,626.9      1919.2,626.9 1919.2,401.2    "
   id="polyline4"
   style="fill:#334fa2" />

		</g>

		<g
   id="g7">
			<path
   class="st0"
   d="m 2881.7,556.5 h 11.4 c 18.7,0 31.3,-5.7 38.6,-18.2 7.8,-12.9 8.6,-36.3 8.6,-66.3 0,-30.1 -0.8,-53.5 -8.6,-66.4 -7.3,-12.4 -19.8,-18.2 -38.6,-18.2 h -11.4 V 556.5 M 2767.8,316.9 h 137.9 c 117.6,0 155,66.5 155,158.4 0,93.6 -57.8,151.6 -148.1,151.6 h -144.8 z"
   id="path5"
   style="fill:#334fa2" />

		</g>

		<g
   id="g8">
			<path
   class="st0"
   d="m 3243,556.5 c 17.9,0 31.3,-8.8 31.3,-84.6 0,-74.1 -12.6,-84.6 -31.3,-84.6 -18.7,0 -31.4,10.5 -31.4,84.6 0.1,75.9 13.6,84.6 31.4,84.6 m 0,-247.8 c 101.3,0 151.7,66.5 151.7,163.2 0,96.6 -50.4,163.2 -151.7,163.2 -101.3,0 -151.8,-66.5 -151.8,-163.2 0.1,-96.6 50.6,-163.2 151.8,-163.2 z"
   id="path6"
   style="fill:#334fa2" />

		</g>

		<g
   id="g9">
			<path
   class="st1"
   d="m 3537.4,428.8 c 16,0 25.6,-16.2 25.6,-37 -0.1,-17.6 -8.1,-36.6 -29.5,-36.6 -13,0 -23.2,8.2 -27,18.2 -1.5,3.1 -2,7.5 -2,14.8 1.4,19.8 10.9,40.6 32.6,40.6 h 0.3 m 65.4,-153.1 c -6.2,-0.4 -12.2,-0.3 -20.6,0.1 -49.1,2.3 -68.9,23.2 -75.6,46.8 h 1.2 c 12.2,-10.7 27.3,-15.6 47.6,-15.6 38.9,0 74.5,28.2 74.5,81.3 0,50.8 -39.1,90.4 -91.4,90.4 -69.1,0 -99.2,-52.7 -99.2,-109.3 0,-46 16.3,-84.9 43,-110 25.5,-23.6 58.3,-35.5 98.5,-36.4 10.7,-0.6 17,0 22.1,0.5 v 52.2 z"
   id="path7"
   style="fill:#f01b25" />

		</g>

		<g
   id="g10">
			<path
   class="st1"
   d="m 3751.5,368 v -42.7 c 0,-15.7 0.9,-32.1 1.7,-49.4 h -1.3 c -7.8,16.8 -14.5,32.7 -23.1,49.9 l -20.4,41.3 -0.3,0.8 h 43.4 m 0,106.7 V 419 h -103.4 v -44.4 l 83,-148 h 82.6 V 368 h 26.3 v 51 h -26.3 v 55.6 z"
   id="path8"
   style="fill:#f01b25" />

		</g>

		<g
   id="g11">
			<polyline
   class="st0"
   points="2144,316.9 2374.2,316.9 2374.2,398.8 2258.6,398.8 2258.6,431.2 2365,431.2 2365,510.7      2258.6,510.7 2258.6,545.5 2377.8,545.5 2377.8,626.8 2144,626.8 2144,316.9    "
   id="polyline9"
   style="fill:#334fa2" />

		</g>

	</g>
    <g
       id="g22"
       transform="matrix(0.26458333,0,0,0.26458333,-387.08542,21.166667)">
		<g
   id="layer2_57_">
			<g
   id="polygon3542_57_">
				<polygon
   class="st2"
   points="429.5,231.7 524.1,267.9 549.4,239.5 549.4,46.3 429.5,92.8 330.5,269.6 "
   id="polygon11"
   style="fill:#354ea2" />

			</g>

			<g
   id="polygon3558_57_">
				<polygon
   class="st2"
   points="859.1,164.7 859.1,677 737.4,728.2 558.4,494.6 558.4,803.4 429.5,857.9 429.5,330.4 558.4,281 737.4,536.8 737.4,211.6 "
   id="polygon12"
   style="fill:#354ea2" />

			</g>

			<g
   id="polygon3560_57_">
				<polygon
   class="st2"
   points="121.7,455.9 121.7,728.2 235.9,677.6 "
   id="polygon13"
   style="fill:#354ea2" />

			</g>

		</g>

		<g
   id="layer3_57_">
			<g
   id="polygon3538_57_">
				<polygon
   class="st3"
   points="429.5,92.8 309.6,46.2 243.4,164.7 300.7,281 330.5,269.6 "
   id="polygon14"
   style="fill:#23b057" />

			</g>

			<g
   id="polygon3540_57_">
				<polygon
   class="st3"
   points="737.4,536.8 558.4,281 524.1,267.9 615.7,164.7 737.4,211.6 "
   id="polygon15"
   style="fill:#23b057" />

			</g>

			<g
   id="polygon3552_57_">
				<polygon
   class="st3"
   points="300.7,281 300.7,548.8 121.7,211.6 0,164.7 0,677 121.7,728.2 121.7,455.9 300.7,803.4 429.5,857.9 429.5,330.4 "
   id="polygon16"
   style="fill:#23b057" />

			</g>

		</g>

		<g
   id="layer4_57_">
			<g
   id="polygon3554_57_">
				<polygon
   class="st1"
   points="300.7,281 300.7,548.8 121.7,211.6 243.4,164.7 "
   id="polygon17"
   style="fill:#f01b25" />

			</g>

			<g
   id="polygon3556_57_">
				<polygon
   class="st1"
   points="737.4,728.2 558.4,494.6 558.4,622.2 595,673.5 "
   id="polygon18"
   style="fill:#f01b25" />

			</g>

		</g>

		<g
   id="layer5_57_">
			<g
   id="polygon3544_57_">
				<polygon
   class="st4"
   points="558.4,281 429.5,330.4 300.7,281 429.5,231.7 "
   id="polygon19"
   style="fill:#ffa623" />

			</g>

			<g
   id="polygon3546_57_">
				<polygon
   class="st4"
   points="615.7,164.7 737.4,117.9 859.1,164.7 737.4,211.6 "
   id="polygon20"
   style="fill:#ffa623" />

			</g>

			<g
   id="polygon3548_57_">
				<polygon
   class="st4"
   points="0,164.7 121.7,117.9 243.4,164.7 121.7,211.6 "
   id="polygon21"
   style="fill:#ffa623" />

			</g>

			<g
   id="polygon3550_57_">
				<polygon
   class="st4"
   points="549.4,46.3 429.5,0 309.6,46.2 429.5,92.8 "
   id="polygon22"
   style="fill:#ffa623" />

			</g>

		</g>

	</g>
  </g>
</svg>
