<svg xmlns="http://www.w3.org/2000/svg" width="566.929" height="102.84" xml:space="preserve">
    <path fill="#1747CE" d="M51.491 11.127 39.613 32.324l11.878-4.552 11.338 4.341 3.036-3.406V5.553zM88.391 87.288 66.938 59.29v37.017l-15.447 6.535V39.606l15.447-5.916 21.453 30.664V25.369l14.589-5.627v61.419zM14.589 87.288l13.688-6.061-13.688-26.575z"/>
    <path fill="#069330" d="m29.178 19.742 6.866 13.947 3.569-1.365 11.878-21.197-14.374-5.592zM62.829 32.113l10.978-12.371 14.584 5.627v38.985L66.938 33.69z"/>
    <path fill="#069330" d="M14.589 25.369 0 19.742v61.419l14.589 6.127V54.652l21.455 41.655 15.447 6.535V39.606l-15.447-5.917v32.103z"/>
    <path fill="#CC130E" d="M36.044 33.689v32.103L14.589 25.369l14.589-5.627zM88.391 87.288 66.938 59.29v15.296l4.383 6.144z"/>
    <path fill="#FFC001" d="m66.938 33.689-15.447 5.917-15.447-5.917 15.447-5.917zM73.802 19.742l14.589-5.613 14.589 5.613-14.589 5.627zM0 19.742l14.589-5.613 14.589 5.613-14.589 5.627zM65.865 5.553 51.491 0 37.117 5.535l14.374 5.592z"/>
    <path fill="#1747CE" d="M154.07 81.252h21.377v-47.5h-14.463v27.237h-.125l-9.536-27.237h-21.375v47.5h14.455V53.834h.13zM234.714 81.252h21.375v-47.5h-14.453v27.237h-.131l-9.537-27.237h-21.373v47.5h14.461V53.834h.125zM373.578 81.252h21.379v-47.5h-14.459v27.237h-.129l-9.536-27.237h-21.376v47.5h14.457V53.834h.127zM184.179 33.752h17.83v47.5h-17.83zM272.591 46.655h-11.33V33.752h40.524v12.903h-11.369v34.597h-17.825zM307.05 33.739h35.26v12.564h-17.713v4.967h16.309v12.178h-16.309v5.329h18.278v12.459H307.05zM402.63 33.752h21.123c18.016 0 23.75 10.197 23.75 24.275 0 14.343-8.848 23.226-22.684 23.226H402.63V33.752zm17.453 36.707h1.738c2.867 0 4.789-.879 5.912-2.787 1.184-1.975 1.316-5.572 1.316-10.172 0-4.604-.135-8.194-1.316-10.172-1.123-1.91-3.045-2.789-5.912-2.789h-1.738v25.92zM475.451 32.506c15.521 0 23.244 10.193 23.244 24.995 0 14.806-7.725 25.002-23.244 25.002-15.523 0-23.246-10.196-23.246-25.002 0-14.802 7.72-24.995 23.246-24.995zm0 37.959c2.738 0 4.801-1.346 4.801-12.965 0-11.357-1.939-12.961-4.801-12.961-2.865 0-4.801 1.604-4.801 12.961 0 11.62 2.058 12.965 4.801 12.965zM507.025 71.23a5.632 5.632 0 0 0-5.629 5.634 5.635 5.635 0 1 0 11.27 0 5.639 5.639 0 0 0-5.641-5.634zm0 10.284a4.64 4.64 0 0 1-4.637-4.649 4.638 4.638 0 0 1 4.637-4.646 4.649 4.649 0 1 1 0 9.295z"/>
    <path fill="#1747CE" d="M506.109 79.961h-1.328v-6.199h2.635c1.068.019 2.154.357 2.154 1.615 0 .803-.52 1.342-1.287 1.504v.014c1.021.119 1.021.74 1.135 1.603.059.392.105 1.123.359 1.465h-1.469a17.57 17.57 0 0 1-.232-1.662c-.035-.344-.117-.817-.559-.836h-1.408v2.496zm0-3.527h1.119c.582-.008.928-.305.928-.85 0-.547-.346-.781-.928-.789h-1.119v1.639zM154.07 81.252h21.377v-47.5h-14.463v27.237h-.125l-9.536-27.237h-21.375v47.5h14.455V53.834h.13zM234.714 81.252h21.375v-47.5h-14.453v27.237h-.131l-9.537-27.237h-21.373v47.5h14.461V53.834h.125zM373.578 81.252h21.379v-47.5h-14.459v27.237h-.129l-9.536-27.237h-21.376v47.5h14.457V53.834h.127zM184.179 33.752h17.83v47.5h-17.83zM272.591 46.655h-11.33V33.752h40.524v12.903h-11.369v34.597h-17.825zM307.05 33.739h35.26v12.564h-17.713v4.967h16.309v12.178h-16.309v5.329h18.278v12.459H307.05z"/>
    <path fill="#CC130E" d="M530.583 27.436c-.949-.083-1.871-.044-3.158.014-7.521.348-10.563 3.553-11.594 7.174h.182c1.873-1.637 4.188-2.401 7.289-2.401 5.965 0 11.414 4.338 11.414 12.476 0 7.787-5.986 13.852-14.02 13.852-10.584 0-15.188-8.083-15.188-16.75 0-7.041 2.498-13.004 6.598-16.85 3.902-3.615 8.934-5.441 15.092-5.582 1.631-.094 2.6 0 3.385.071v7.996zm-10.021 23.456c2.439 0 3.918-2.491 3.918-5.673-.02-2.686-1.25-5.613-4.52-5.613a4.427 4.427 0 0 0-4.143 2.795c-.229.469-.314 1.137-.314 2.27.209 3.035 1.672 6.222 4.998 6.222l.061-.001zM553.365 57.911v-8.524h-15.846v-6.811l12.723-22.671h12.66v21.673h4.027v7.809h-4.027v8.524h-9.537zm0-16.333v-6.531c0-2.414.145-4.922.268-7.565h-.207c-1.178 2.565-2.203 5.007-3.543 7.657l-3.113 6.326-.033.115 6.628-.002z"/>
</svg>
