<?xml version="1.0" encoding="UTF-8" standalone="no"?>
<!-- Created with Inkscape (http://www.inkscape.org/) -->

<svg
   width="1015.7618mm"
   height="282.68082mm"
   viewBox="0 0 1015.7618 282.68082"
   version="1.1"
   id="svg1"
   inkscape:version="1.4 (86a8ad7, 2024-10-11)"
   sodipodi:docname="namco12.svg"
   xmlns:inkscape="http://www.inkscape.org/namespaces/inkscape"
   xmlns:sodipodi="http://sodipodi.sourceforge.net/DTD/sodipodi-0.dtd"
   xmlns="http://www.w3.org/2000/svg"
   xmlns:svg="http://www.w3.org/2000/svg">
  <sodipodi:namedview
     id="namedview1"
     pagecolor="#ffffff"
     bordercolor="#000000"
     borderopacity="0.25"
     inkscape:showpageshadow="2"
     inkscape:pageopacity="0.0"
     inkscape:pagecheckerboard="true"
     inkscape:deskcolor="#d1d1d1"
     inkscape:document-units="mm"
     inkscape:zoom="0.29118429"
     inkscape:cx="1473.2938"
     inkscape:cy="743.51538"
     inkscape:window-width="3840"
     inkscape:window-height="2066"
     inkscape:window-x="-11"
     inkscape:window-y="-11"
     inkscape:window-maximized="1"
     inkscape:current-layer="svg1" />
  <defs
     id="defs1">
	
	

			
			
			
		</defs>
  <g
     id="g16"
     style="fill:#a21f2c;fill-opacity:1"
     transform="matrix(0.26458333,0,0,0.26458333,-0.13229,-0.423333)"
     inkscape:label="namco">
		<path
   class="st0"
   d="M 0.5,1.6 V 492.7 H 171 V 144.4 H 451.4 V 492.7 H 621.9 V 148.6 c 0,-81.2 -65.8,-147 -147,-147 H 0.5 Z"
   id="path4"
   style="fill:#a21f2c;fill-opacity:1"
   inkscape:label="n" />

		<path
   class="st0"
   d="m 699.7,1.6 v 122.2 h 484.8 v 52 H 846.7 c -81.2,0 -147,65.8 -147,147 v 22.9 c 0,81.2 65.8,147 147,147 h 508.2 v -344 c 0,-81.2 -65.8,-147 -147,-147 H 699.7 Z m 170.4,368.9 v -72.6 h 314.3 v 72.6 z"
   id="path6"
   style="fill:#a21f2c;fill-opacity:1"
   inkscape:label="a" />

		<path
   class="st0"
   d="m 1449.9,1.6 v 491.1 h 170.5 V 144.4 h 193.3 v 348.3 h 170.5 V 144.4 h 193.3 V 492.7 H 2348 V 148.6 c 0,-81.2 -65.8,-147 -147,-147 z"
   id="path8"
   style="fill:#a21f2c;fill-opacity:1"
   inkscape:label="m" />
<path
   class="st0"
   d="m 2433.4,148.6 v 197 c 0,81.2 65.8,147 147,147 h 467.1 V 349.9 H 2603.9 V 144.4 h 443.6 V 1.6 h -467.1 c -81.3,0 -147,65.8 -147,147 z"
   id="path10"
   style="fill:#a21f2c;fill-opacity:1"
   inkscape:label="c" />
<path
   class="st0"
   d="m 3133.1,148.6 v 197 c 0,81.2 65.8,147 147,147 h 412.5 c 81.2,0 147,-65.8 147,-147 v -197 c 0,-81.2 -65.8,-147 -147,-147 h -412.4 c -81.4,0 -147.1,65.8 -147.1,147 z m 170.4,221.9 V 123.8 h 365.6 v 246.7 z"
   id="path12"
   style="fill:#a21f2c;fill-opacity:1"
   inkscape:label="o" />

	</g>
  <g
     id="g34"
     style="fill:#a21f2c;fill-opacity:1"
     transform="matrix(0.26458333,0,0,0.26458333,-0.13229,-0.423333)"
     inkscape:label="System12">
		<path
   class="st0"
   d="m 56.1,683.4 h 127.3 c 15.5,0 30.2,6.5 44.1,19.6 13.9,13.1 20.8,28.9 20.8,47.6 0,7 -2.5,12.9 -7.4,17.7 -4.9,4.8 -10.4,7.3 -16.4,7.3 -8.3,0 -14.1,-1.9 -17.2,-5.7 -3.1,-3.8 -6.1,-10.8 -8.9,-21.1 -2.8,-10.3 -9.1,-15.4 -18.8,-15.4 H 58.7 c -5.8,0 -8.7,1.9 -8.7,5.6 -0.2,2.4 1,5.1 3.6,8.2 l 181.6,231.6 c 8.8,11.2 13.1,23.3 13.1,36.1 0,14.5 -5.3,27.3 -15.9,38.4 -10.6,11.1 -22.4,16.6 -35.3,16.6 H 65.4 c -17.5,0 -32.6,-6.6 -45.5,-19.9 -13,-13.3 -19.4,-27.9 -19.4,-43.8 0,-18.2 8.5,-27.3 25.6,-27.3 6.6,0 12.2,2.4 16.9,7.1 4.6,4.7 7,10.3 7,16.7 0,5.2 1.8,9.6 5.4,13.1 3.6,3.5 8.1,5.2 13.5,5.2 h 121.6 c 5.2,0 7.8,-2.1 7.8,-6.2 0.1,-2 -1,-4.5 -3.6,-7.6 L 13.3,775.6 C 4.8,764.6 0.5,752.5 0.5,739.5 c 0,-15.1 5.4,-28.3 16.3,-39.4 10.9,-11.1 24,-16.7 39.3,-16.7 z"
   id="path18"
   style="fill:#a21f2c;fill-opacity:1"
   inkscape:label="S" />

		<path
   class="st0"
   d="m 598.5,884.5 v 161.1 c 0,6.8 -2.4,12.6 -7.3,17.3 -4.8,4.8 -10.6,7.1 -17.2,7.1 -7,0 -12.9,-2.4 -17.7,-7.1 -4.8,-4.7 -7.3,-10.5 -7.3,-17.3 v -161 L 450.7,760.2 v -51.8 c 0,-7 2.4,-12.9 7.1,-17.7 4.8,-4.8 10.5,-7.3 17.3,-7.3 6.8,0 12.7,2.5 17.6,7.5 4.9,5 7.4,10.9 7.4,17.7 v 33.6 l 73.3,94.2 74.5,-94.1 v -34 c 0,-6.8 2.4,-12.6 7.3,-17.6 4.8,-4.9 10.6,-7.4 17.2,-7.4 6.4,0 12.1,2.3 17,6.8 4.9,4.6 7.4,10.6 7.4,18.2 v 51.2 z"
   id="path20"
   style="fill:#a21f2c;fill-opacity:1"
   inkscape:label="Y" />

		<path
   class="st0"
   d="m 954.3,683.4 h 127.3 c 15.5,0 30.2,6.5 44.1,19.6 13.9,13.1 20.8,28.9 20.8,47.6 0,7 -2.5,12.9 -7.4,17.7 -4.9,4.8 -10.4,7.3 -16.4,7.3 -8.3,0 -14.1,-1.9 -17.2,-5.7 -3.1,-3.8 -6.1,-10.8 -8.9,-21.1 -2.8,-10.3 -9.1,-15.4 -18.8,-15.4 h -121 c -5.8,0 -8.7,1.9 -8.7,5.6 -0.1,2.4 1,5.1 3.6,8.2 l 181.5,231.6 c 8.7,11.2 13.1,23.3 13.1,36.1 0,14.5 -5.3,27.3 -15.9,38.4 -10.6,11.1 -22.3,16.6 -35.3,16.6 H 963.5 c -17.5,0 -32.6,-6.6 -45.5,-19.9 -12.9,-13.3 -19.3,-27.9 -19.3,-43.8 0,-18.2 8.5,-27.3 25.6,-27.3 6.6,0 12.2,2.4 16.9,7.1 4.7,4.7 7,10.3 7,16.7 0,5.2 1.8,9.6 5.4,13.1 3.6,3.5 8.1,5.2 13.5,5.2 h 121.6 c 5.2,0 7.9,-2.1 7.9,-6.2 0.1,-2 -1,-4.5 -3.6,-7.6 L 911.5,775.6 c -8.6,-11 -12.8,-23.1 -12.8,-36.1 0,-15.1 5.4,-28.3 16.3,-39.4 10.8,-11.1 23.9,-16.7 39.3,-16.7 z"
   id="path22"
   style="fill:#a21f2c;fill-opacity:1"
   inkscape:label="S" />

		<path
   class="st0"
   d="m 1347.7,750 v -66 h 246.6 v 66.6 c 0,6.8 -2.4,12.6 -7.3,17.3 -4.8,4.8 -10.6,7.1 -17.2,7.1 -6.8,0 -12.7,-2.4 -17.6,-7.3 -4.9,-4.8 -7.4,-10.6 -7.4,-17.2 v -17.7 h -49.4 v 312.6 c 0,6.8 -2.4,12.6 -7.3,17.3 -4.8,4.8 -10.6,7.1 -17.2,7.1 -7,0 -12.9,-2.4 -17.7,-7.1 -4.8,-4.8 -7.3,-10.5 -7.3,-17.3 V 732.9 h -49.5 v 17.2 c 0,6.8 -2.4,12.6 -7.1,17.3 -4.8,4.8 -10.5,7.1 -17.3,7.1 -6.8,0 -12.6,-2.4 -17.3,-7.1 -4.6,-4.8 -7,-10.6 -7,-17.4 z"
   id="path24"
   style="fill:#a21f2c;fill-opacity:1"
   inkscape:label="T" />

		<path
   class="st0"
   d="m 2018.9,732.9 h -172.8 v 119 h 74.5 c 6.6,0 12.3,2.4 17.2,7.3 4.8,4.8 7.3,10.6 7.3,17.2 0,7 -2.4,12.9 -7.1,17.7 -4.8,4.8 -10.5,7.3 -17.3,7.3 h -74.5 v 119.8 h 173.4 c 6.6,0 12.3,2.4 17.2,7.1 4.8,4.8 7.3,10.5 7.3,17.3 0,6.8 -2.5,12.6 -7.4,17.3 -4.9,4.8 -10.8,7.1 -17.6,7.1 H 1797.6 V 683.4 h 221.5 c 6.8,0 12.7,2.5 17.6,7.4 4.9,4.9 7.4,10.8 7.4,17.6 0,6.6 -2.5,12.3 -7.4,17.2 -5.1,4.8 -11,7.3 -17.8,7.3 z"
   id="path26"
   style="fill:#a21f2c;fill-opacity:1"
   inkscape:label="E" />

		<path
   class="st0"
   d="M 2344.6,835.2 V 822.7 L 2294,750.6 v 294.8 c 0,6.8 -2.4,12.6 -7.1,17.3 -4.8,4.8 -10.5,7.1 -17.3,7.1 -6.8,0 -12.6,-2.4 -17.3,-7.3 -4.8,-4.8 -7.1,-10.6 -7.1,-17.2 V 683.4 h 63.2 l 60,87.6 62,-87.6 h 62 v 362 c 0,6.8 -2.5,12.6 -7.4,17.3 -4.9,4.8 -10.8,7.1 -17.6,7.1 -6.6,0 -12.3,-2.4 -17.2,-7.3 -4.8,-4.8 -7.3,-10.6 -7.3,-17.2 V 751.8 l -49.4,69.8 v 13.7 c 0,6.6 -2.4,12.3 -7.3,17.2 -4.8,4.8 -10.6,7.3 -17.2,7.3 -6.8,0 -12.6,-2.4 -17.3,-7.3 -4.7,-4.9 -7.1,-10.7 -7.1,-17.3 z"
   id="path28"
   style="fill:#a21f2c;fill-opacity:1"
   inkscape:label="M" />

		
		
	<path
   style="font-weight:bold;font-size:64px;font-family:Candara;-inkscape-font-specification:'Candara Bold';white-space:pre;display:inline;fill:#a21f2c;fill-opacity:1;stroke-width:1.46594;stroke-linecap:square;stroke-miterlimit:1;stroke-opacity:0;paint-order:markers fill stroke"
   d="m 3446.1704,1068.9534 h -50.8577 c 1.5573,-60.9431 2.336,-127.88228 2.336,-200.81748 0,-71.75559 -0.7787,-132.79699 -2.336,-183.12419 h 50.8577 c -1.5573,49.5409 -2.3359,110.58226 -2.3359,183.12419 0,74.11473 0.7786,141.05388 2.3359,200.81748 z"
   id="text397"
   aria-label="I  I"
   sodipodi:nodetypes="ccsccsc"
   inkscape:label="1" />
<path
   class="st0"
   d="M 3815.1,1069.3 H 3593 V 900.7 c 0,-13.6 4.8,-25.2 14.4,-34.9 9.6,-9.7 21.1,-14.5 34.5,-14.5 h 148.3 v -119 h -174.6 c -7,0 -12.8,-2.4 -17.5,-7.1 -4.7,-4.7 -7,-10.5 -7,-17.3 0,-6.8 2.3,-12.6 7,-17.3 4.7,-4.7 10.5,-7.1 17.5,-7.1 H 3790 c 13.6,0 25.2,4.8 34.9,14.4 9.7,9.6 14.5,21.1 14.5,34.5 v 119 c 0,13.8 -4.9,25.4 -14.5,35.1 -9.7,9.6 -21.3,14.4 -34.9,14.4 h -148.3 v 119.8 h 173.4 c 6.6,0 12.3,2.4 17.2,7.1 4.8,4.8 7.3,10.5 7.3,17.3 0,6.8 -2.4,12.6 -7.3,17.3 -4.9,4.5 -10.6,6.9 -17.2,6.9 z"
   id="path32"
   style="fill:#a21f2c;fill-opacity:1"
   inkscape:label="2" />
</g>
</svg>
