<?xml version="1.0" encoding="UTF-8" standalone="no"?>
<!-- Generator: Adobe Illustrator 26.0.3, SVG Export Plug-In . SVG Version: 6.00 Build 0)  -->

<svg
   version="1.1"
   id="Layer_1"
   x="0px"
   y="0px"
   viewBox="0 0 3839.0001 803.85679"
   xml:space="preserve"
   sodipodi:docname="namcoes3.svg"
   width="3839"
   height="803.85681"
   inkscape:version="1.3 (0e150ed6c4, 2023-07-21)"
   xmlns:inkscape="http://www.inkscape.org/namespaces/inkscape"
   xmlns:sodipodi="http://sodipodi.sourceforge.net/DTD/sodipodi-0.dtd"
   xmlns="http://www.w3.org/2000/svg"
   xmlns:svg="http://www.w3.org/2000/svg"><defs
   id="defs41" /><sodipodi:namedview
   id="namedview39"
   pagecolor="#505050"
   bordercolor="#eeeeee"
   borderopacity="1"
   inkscape:showpageshadow="0"
   inkscape:pageopacity="0"
   inkscape:pagecheckerboard="0"
   inkscape:deskcolor="#505050"
   showgrid="false"
   inkscape:zoom="0.2282178"
   inkscape:cx="2136.1173"
   inkscape:cy="365.87856"
   inkscape:window-width="3440"
   inkscape:window-height="1369"
   inkscape:window-x="-8"
   inkscape:window-y="-8"
   inkscape:window-maximized="1"
   inkscape:current-layer="g36" />&#10;<style
   type="text/css"
   id="style2">&#10;	.st0{fill:#A21F2C;}&#10;	.st1{fill:#FFFFFF;}&#10;</style>&#10;<g
   id="g36">&#10;	<g
   id="g16"
   style="fill:#a21f2c;fill-opacity:1">&#10;		<path
   class="st0"
   d="M 0,0 V 491.1 H 170.5 V 142.8 H 450.9 V 491.1 H 621.4 V 147 C 621.4,65.8 555.6,0 474.4,0 Z"
   id="path4"
   style="fill:#a21f2c;fill-opacity:1" />&#10;		<path
   class="st0"
   d="M 699.2,0 V 122.2 H 1184 v 52 H 846.2 c -81.2,0 -147,65.8 -147,147 V 344 c 0,81.2 65.8,147 147,147 h 508.2 V 147 c 0,-81.2 -65.8,-147 -147,-147 z m 170.4,368.9 v -72.6 h 314.3 v 72.6 z"
   id="path6"
   style="fill:#a21f2c;fill-opacity:1" />&#10;		<g
   id="g14"
   style="fill:#a21f2c;fill-opacity:1">&#10;			<path
   class="st0"
   d="m 1449.4,0 v 491.1 h 170.5 V 142.8 h 193.3 v 348.3 h 170.5 V 142.8 H 2177 v 348.3 h 170.5 V 147 c 0,-81.2 -65.8,-147 -147,-147 z"
   id="path8"
   style="fill:#a21f2c;fill-opacity:1" />&#10;			<path
   class="st0"
   d="m 2432.8,147 v 197 c 0,81.2 65.8,147 147,147 h 467.1 V 348.3 H 2603.3 V 142.8 h 443.6 V 0 h -467.1 c -81.2,0 -147,65.8 -147,147 z"
   id="path10"
   style="fill:#a21f2c;fill-opacity:1" />&#10;			<path
   class="st0"
   d="m 3132.5,147 v 197 c 0,81.2 65.8,147 147,147 H 3692 c 81.2,0 147,-65.8 147,-147 V 147 C 3839,65.8 3773.2,0 3692,0 h -412.4 c -81.3,0 -147.1,65.8 -147.1,147 z M 3303,368.9 V 122.2 h 365.6 v 246.7 z"
   id="path12"
   style="fill:#a21f2c;fill-opacity:1" />&#10;		</g>&#10;	</g>&#10;	<g
   id="g34"
   style="fill:#ffffff">&#10;		<path
   d="m 3575.9592,694.01805 c 45.0853,8.85104 65.9167,23.73895 65.9167,51.88072 0,31.54603 -28.8826,51.88073 -69.0868,51.88073 -32.1004,0 -58.3664,-9.66806 -82.6702,-29.18575 l 14.1392,-15.11486 c 21.0836,17.20279 41.3112,25.82689 69.3386,25.82689 27.1707,0 45.0836,-12.75458 45.0836,-31.27368 0,-17.20279 -10.115,-26.87085 -52.5832,-34.95027 -46.5433,-9.12338 -67.9263,-22.69497 -67.9263,-52.92468 0,-29.18574 28.0255,-50.06512 66.4691,-50.06512 29.4861,0 50.568,7.58012 71.0958,22.42264 l -13.2819,15.88648 c -18.7676,-13.79855 -37.5864,-19.83541 -58.3674,-19.83541 -26.3172,0 -43.0734,13.02692 -43.0734,29.73042 0.058,17.47513 10.4652,27.0978 54.9462,35.72189 z"
   id="path22-0"
   style="fill:#ffffff;stroke-width:0.477903" /><path
   d="m 2826.4301,636.94214 h -114.777 v 62.3204 h 102.6952 v 18.79144 h -102.6952 v 63.86365 h 116.135 v 18.79144 H 2690.3929 V 618.24148 h 136.0372 z"
   id="path26-8"
   style="fill:#ffffff;stroke-width:0.461037" /><path
   d="m 1903.1302,700.09538 c 42.1791,8.85104 61.6682,23.73895 61.6682,51.88072 0,31.54602 -27.0211,51.88072 -64.634,51.88072 -30.0339,0 -54.607,-9.66806 -77.3442,-29.18574 l 13.228,-15.11486 c 19.7245,17.20279 38.6487,25.82689 64.8694,25.82689 25.4205,0 42.1792,-12.75458 42.1792,-31.27368 0,-17.20279 -9.4621,-26.87085 -49.1933,-34.95027 -43.5444,-9.12338 -63.5513,-22.69497 -63.5513,-52.92468 0,-29.18574 26.2207,-50.06512 62.186,-50.06512 27.586,0 47.3104,7.58012 66.517,22.42264 l -12.4277,15.88648 c -17.559,-13.79854 -35.1651,-19.83541 -54.6071,-19.83541 -24.6202,0 -40.2962,13.02692 -40.2962,29.73042 0.047,17.47513 9.7445,27.0978 51.406,35.72189 z"
   id="path18"
   style="fill:#ffffff;stroke-width:0.462248" />&#10;		<path
   d="m 2121.5112,801.17881 h -21.6075 v -72.21542 l -78.6623,-110.2068 h 25.9382 l 63.7396,91.2338 64.3516,-91.18841 h 24.8556 l -78.6152,109.97985 z"
   id="path20"
   style="fill:#ffffff;stroke-width:0.462248" />&#10;		<path
   d="m 2333.2074,700.09538 c 42.1792,8.85104 61.6683,23.73895 61.6683,51.88072 0,31.54602 -27.0211,51.88072 -64.6339,51.88072 -30.0339,0 -54.6071,-9.66806 -77.3443,-29.18574 l 13.2281,-15.11486 c 19.7244,17.20279 38.6485,25.82689 64.8693,25.82689 25.4205,0 42.1792,-12.75458 42.1792,-31.27368 0,-17.20279 -9.462,-26.87085 -49.1933,-34.95027 -43.5445,-9.12338 -63.5513,-22.69497 -63.5513,-52.92468 0,-29.18574 26.2207,-50.06512 62.1861,-50.06512 27.5859,0 47.3104,7.58012 66.517,22.42264 l -12.4279,15.88648 c -17.5589,-13.79854 -35.165,-19.83541 -54.6069,-19.83541 -24.6202,0 -40.2962,13.02692 -40.2962,29.73042 0.047,17.47513 9.7915,27.0978 51.4058,35.72189 z"
   id="path22"
   style="fill:#ffffff;stroke-width:0.462248" />&#10;		<path
   d="m 2546.5044,801.17881 h -21.6546 V 637.77498 h -63.5513 v -19.01839 h 148.6629 v 19.01839 h -63.5512 z"
   id="path24"
   style="fill:#ffffff;stroke-width:0.462248" />&#10;		<path
   d="m 3433.0992,633.47245 h -122.7121 v 62.3204 h 109.7951 v 18.79145 h -109.7951 v 63.86366 H 3434.551 V 797.2394 H 3287.6574 V 614.77179 h 145.4418 z"
   id="path26"
   style="fill:#ffffff;stroke-width:0.476705" />&#10;		<path
   d="m 3003.0849,751.15908 h -1.0827 l -68.9649,-97.45223 V 801.2242 h -20.8072 V 618.80198 h 21.6546 l 68.9648,99.54017 68.9649,-99.54017 h 21.6074 V 801.2242 h -21.372 V 653.43451 Z"
   id="path28"
   style="fill:#ffffff;stroke-width:0.462248" />&#10;		&#10;		&#10;	</g><path
   style="font-weight:300;font-size:301.927px;font-family:'Leelawadee UI';-inkscape-font-specification:'Leelawadee UI Light';fill:#ffffff;stroke-width:0.938798;stroke-linecap:square;stroke-miterlimit:1;stroke-opacity:0;paint-order:markers fill stroke"
   d="m 3124.2737,909.24858 q 22.8509,15.7745 47.1761,15.7745 10.0249,0 19.3127,-2.50623 9.2878,-2.50623 16.3642,-7.81354 7.2238,-5.45473 11.4992,-13.71055 4.2753,-8.40324 4.2753,-20.04984 0,-22.11379 -15.6271,-33.31811 -15.4796,-11.20433 -45.7018,-11.20433 h -16.8065 v -16.3642 h 15.4797 q 27.4211,0 41.279,-10.76205 13.858,-10.90947 13.858,-31.69644 0,-18.72301 -10.3197,-28.45308 -10.1724,-9.8775 -30.6645,-9.8775 -21.2293,0 -41.8688,14.44768 v -19.01786 q 22.1138,-11.94145 45.8493,-11.94145 11.2043,0 21.5241,3.09593 10.3197,3.09593 17.9859,9.43522 7.8135,6.19186 12.3837,15.62708 4.7176,9.2878 4.7176,21.81895 0,42.31106 -41.8688,54.10508 v 0.5897 q 10.3198,1.1794 19.3127,5.15989 8.993,3.83305 15.6271,10.46719 6.6341,6.48671 10.4672,15.62708 3.8331,8.99295 3.8331,20.19727 0,15.03738 -5.6022,26.68398 -5.6022,11.64659 -15.3322,19.60756 -9.7301,7.96097 -22.851,12.08887 -12.9734,4.12791 -27.7159,4.12791 -26.8314,0 -46.5864,-11.35175 z"
   id="text434"
   transform="scale(1.1793278,0.84794066)"
   aria-label="3" />&#10;</g>&#10;</svg>
