<!-- Created by ERK --><svg xmlns="http://www.w3.org/2000/svg" xml:space="preserve" width="13738.686" height="3923.274" viewBox="0 0 3635.027 1038.033"><g style="display:inline"><g style="display:inline;fill:#000;fill-opacity:.80315"><path d="M178.216 163.218v484H336.2v-347h299.006v347h154.993l.005-354a129.98 129.98 0 0 0-38.073-91.924 130 130 0 0 0-91.922-38.076zm720-.001v126h430.001v42H993.224a130 130 0 0 0-91.927 38.077 130.02 130.02 0 0 0-38.08 91.923v56a130.03 130.03 0 0 0 38.08 91.925 130 130 0 0 0 91.927 38.075h489.986l.01-354a129.95 129.95 0 0 0-38.07-91.923 130 130 0 0 0-91.925-38.077zm128.535 294h301.466v68h-301.466z" style="fill:#000;fill-opacity:.80315;stroke:none;stroke-width:.944827;stroke-linecap:round" transform="translate(-158.216 -143.185)"/><path d="M5297.01-1598.74V230.551h604.72V-1080.94h623.62V230.551h597.17V-1080.94h623.62V230.551h597.17v-1337.952a491.34 491.34 0 0 0-491.34-491.34zm5510.59 0H9174.802a491.34 491.34 0 0 0-347.428 143.91 491.35 491.35 0 0 0-143.912 347.43v846.613A491.34 491.34 0 0 0 8827.374 86.64a491.34 491.34 0 0 0 347.428 143.91H10811.9v-517.795H9288.19v-793.696h1519.41zm831.5 0c-263.418-6.181-497.563 227.965-491.392 491.34v846.612c-5.564 264.138 227.208 496.91 491.369 491.338H13181.1c263.375 6.181 497.521-227.964 491.321-491.338V-1107.4c5.716-263.883-227.319-497.012-491.321-491.34zm113.299 517.8H13067.7v793.695h-1315.301z" style="fill:#000;fill-opacity:.80315;stroke:none;stroke-width:3.571;stroke-linecap:round" transform="translate(17.5 443.033)scale(.26458)"/></g><g style="display:inline"><path d="M178.216 163.218v484H336.2v-347h299.006v347h154.993l.005-354a129.98 129.98 0 0 0-38.073-91.924 130 130 0 0 0-91.922-38.076zm720-.001v126h430.001v42H993.224a130 130 0 0 0-91.927 38.077 130.02 130.02 0 0 0-38.08 91.923v56a130.03 130.03 0 0 0 38.08 91.925 130 130 0 0 0 91.927 38.075h489.986l.01-354a129.95 129.95 0 0 0-38.07-91.923 130 130 0 0 0-91.925-38.077zm128.535 294h301.466v68h-301.466z" style="fill:#a51e23;fill-opacity:1;stroke:none;stroke-width:.944827;stroke-linecap:round" transform="translate(-168.217 -153.185)"/><path d="M5297.01-1598.74V230.551h604.72V-1080.94h623.62V230.551h597.17V-1080.94h623.62V230.551h597.17v-1337.952a491.34 491.34 0 0 0-491.34-491.34zm5510.59 0H9174.802a491.34 491.34 0 0 0-347.428 143.91 491.35 491.35 0 0 0-143.912 347.43v846.613A491.34 491.34 0 0 0 8827.374 86.64a491.34 491.34 0 0 0 347.428 143.91H10811.9v-517.795H9288.19v-793.696h1519.41zm831.5 0c-263.418-6.181-497.563 227.965-491.392 491.34v846.612c-5.564 264.138 227.208 496.91 491.369 491.338H13181.1c263.375 6.181 497.521-227.964 491.321-491.338V-1107.4c5.716-263.883-227.319-497.012-491.321-491.34zm113.299 517.8H13067.7v793.695h-1315.301z" style="fill:#a51e23;fill-opacity:1;stroke:none;stroke-width:3.571;stroke-linecap:round" transform="translate(7.5 433.033)scale(.26458)"/></g></g><g style="display:inline;fill:#000;fill-opacity:1"><g style="display:inline;fill:#000;fill-opacity:1"><path d="M348.226 874.217h-117.01c-4.998 0-7.805 5.755-4.727 9.694l173.192 221.676a53 53 0 0 1-41.765 85.63h-119.07a60 60 0 0 1-47.114-22.846 63 63 0 0 1-13.506-40.787c.366-12.974 11.18-23.194 24.153-22.828 12.974.365 23.194 11.18 22.828 24.153a16 16 0 0 0 3.43 10.358 13 13 0 0 0 10.208 4.951h119.071c5 0 7.806-5.755 4.728-9.694L189.452 912.848a53 53 0 0 1 41.765-85.63h117.01c3.364 0 6.722.283 10.04.846 30.703 5.211 53.396 31.468 54.106 62.602.29 12.972-9.988 23.724-22.96 24.02-12.97.295-23.727-9.978-24.028-22.949a18 18 0 0 0-14.983-17.336 13 13 0 0 0-2.176-.184m300.32-23.499c-.001-12.98-10.522-23.5-23.501-23.5s-23.5 10.52-23.5 23.5v49l93.17 116.344.001 151.656c0 12.978 10.522 23.5 23.5 23.5 12.98 0 23.5-10.522 23.5-23.5v-151.656l91.829-114.667v-50.677c0-12.98-10.521-23.5-23.5-23.5s-23.5 10.52-23.5 23.5v34.177l-68.33 85.323-69.67-87zm822.345 62.5c12.979 0 23.5-10.522 23.5-23.5l.001-15.501h44.826v293.501c-.001 12.978 10.52 23.5 23.499 23.5s23.5-10.522 23.5-23.5l-.001-293.501h44.826v15.501c0 12.978 10.522 23.5 23.5 23.5 12.98 0 23.5-10.522 23.5-23.5v-62.5h-230.65v62.5c-.001 12.978 10.52 23.5 23.499 23.5m608.826 277.999c12.979 0 23.5-10.52 23.5-23.5 0-12.978-10.521-23.5-23.5-23.499h-162v-111.5h68.604c12.978 0 23.5-10.522 23.5-23.5 0-12.98-10.522-23.5-23.5-23.5h-68.603V874.216h161.999c12.973-.008 23.485-10.527 23.485-23.5 0-12.972-10.512-23.491-23.485-23.5h-209v364zm235.5.001c12.979 0 23.5-10.522 23.5-23.5V890.491l47 67.122v12.105c0 12.978 10.521 23.5 23.5 23.5s23.5-10.522 23.5-23.5l-.001-12.105 47-67.122v277.227c0 12.978 10.522 23.5 23.5 23.5 12.98 0 23.5-10.522 23.5-23.5l.001-340.5h-60.074l-57.427 82.016-57.428-82.016h-60.071v340.5c0 12.978 10.521 23.5 23.5 23.5m-1121.99-317.001h-117.01c-4.999 0-7.806 5.755-4.728 9.694l173.192 221.676a53.001 53.001 0 0 1-41.764 85.63h-119.071a60 60 0 0 1-47.113-22.846 63 63 0 0 1-13.506-40.787c.365-12.974 11.18-23.194 24.153-22.828s23.194 11.18 22.828 24.153a16 16 0 0 0 3.43 10.358 13 13 0 0 0 10.208 4.951h119.07c5 0 7.806-5.755 4.729-9.694l-173.192-221.676a53 53 0 0 1 41.764-85.63h117.01c3.364 0 6.723.283 10.04.846 30.704 5.211 53.397 31.468 54.106 62.602.29 12.972-9.987 23.724-22.959 24.02s-23.728-9.978-24.029-22.949a18 18 0 0 0-14.983-17.336 13 13 0 0 0-2.175-.184" style="fill:#000;fill-opacity:1;stroke:none;stroke-width:.944827;stroke-linecap:round" transform="translate(-168.217 -153.185)"/></g><path d="M3347.552 827.218v363.999h46.99v-364Z" style="display:inline;fill:#000;fill-opacity:1;stroke:none;stroke-width:.944827;stroke-linecap:round" transform="translate(-168.217 -153.185)"/></g></svg>