<?xml version="1.0" encoding="UTF-8" standalone="no"?>
<!-- Generator: Adobe Illustrator 26.0.3, SVG Export Plug-In . SVG Version: 6.00 Build 0)  -->

<svg
   version="1.1"
   id="Layer_1"
   x="0px"
   y="0px"
   viewBox="0 0 3840.1 1068.6"
   style="enable-background:new 0 0 3840.1 1068.6;"
   xml:space="preserve"
   sodipodi:docname="namco22.svg"
   inkscape:version="1.3 (0e150ed6c4, 2023-07-21)"
   xmlns:inkscape="http://www.inkscape.org/namespaces/inkscape"
   xmlns:sodipodi="http://sodipodi.sourceforge.net/DTD/sodipodi-0.dtd"
   xmlns="http://www.w3.org/2000/svg"
   xmlns:svg="http://www.w3.org/2000/svg"><defs
   id="defs41" /><sodipodi:namedview
   id="namedview39"
   pagecolor="#505050"
   bordercolor="#eeeeee"
   borderopacity="1"
   inkscape:showpageshadow="0"
   inkscape:pageopacity="0"
   inkscape:pagecheckerboard="0"
   inkscape:deskcolor="#505050"
   showgrid="false"
   inkscape:zoom="0.16132392"
   inkscape:cx="2414.3971"
   inkscape:cy="604.37411"
   inkscape:window-width="3440"
   inkscape:window-height="1369"
   inkscape:window-x="-8"
   inkscape:window-y="-8"
   inkscape:window-maximized="1"
   inkscape:current-layer="g36" />&#10;<style
   type="text/css"
   id="style2">&#10;	.st0{fill:#A21F2C;}&#10;	.st1{fill:#FFFFFF;}&#10;</style>&#10;<g
   id="g36">&#10;	<g
   id="g16"
   style="fill:#a21f2c;fill-opacity:1">&#10;		<path
   class="st0"
   d="M0.5,1.6v491.1H171V144.4h280.4v348.3h170.5V148.6c0-81.2-65.8-147-147-147H0.5z"
   id="path4"
   style="fill:#a21f2c;fill-opacity:1" />&#10;		<path
   class="st0"
   d="M699.7,1.6v122.2h484.8v52H846.7c-81.2,0-147,65.8-147,147v22.9c0,81.2,65.8,147,147,147h508.2v-344    c0-81.2-65.8-147-147-147H699.7z M870.1,370.5v-72.6h314.3v72.6H870.1z"
   id="path6"
   style="fill:#a21f2c;fill-opacity:1" />&#10;		<g
   id="g14"
   style="fill:#a21f2c;fill-opacity:1">&#10;			<path
   class="st0"
   d="M1449.9,1.6v491.1h170.5V144.4h193.3v348.3h170.5V144.4h193.3v348.3H2348V148.6c0-81.2-65.8-147-147-147     H1449.9z"
   id="path8"
   style="fill:#a21f2c;fill-opacity:1" />&#10;			<path
   class="st0"
   d="M2433.4,148.6v197c0,81.2,65.8,147,147,147h467.1V349.9h-443.6V144.4h443.6V1.6h-467.1     C2499.1,1.6,2433.4,67.4,2433.4,148.6z"
   id="path10"
   style="fill:#a21f2c;fill-opacity:1" />&#10;			<path
   class="st0"
   d="M3133.1,148.6v197c0,81.2,65.8,147,147,147h412.5c81.2,0,147-65.8,147-147v-197c0-81.2-65.8-147-147-147     h-412.4C3198.8,1.6,3133.1,67.4,3133.1,148.6z M3303.5,370.5V123.8h365.6v246.7H3303.5z"
   id="path12"
   style="fill:#a21f2c;fill-opacity:1" />&#10;		</g>&#10;	</g>&#10;	<g
   id="g34"
   style="fill:#a21f2c;fill-opacity:1">&#10;		<path
   class="st0"
   d="M56.1,683.4h127.3c15.5,0,30.2,6.5,44.1,19.6c13.9,13.1,20.8,28.9,20.8,47.6c0,7-2.5,12.9-7.4,17.7    c-4.9,4.8-10.4,7.3-16.4,7.3c-8.3,0-14.1-1.9-17.2-5.7c-3.1-3.8-6.1-10.8-8.9-21.1c-2.8-10.3-9.1-15.4-18.8-15.4H58.7    c-5.8,0-8.7,1.9-8.7,5.6c-0.2,2.4,1,5.1,3.6,8.2l181.6,231.6c8.8,11.2,13.1,23.3,13.1,36.1c0,14.5-5.3,27.3-15.9,38.4    c-10.6,11.1-22.4,16.6-35.3,16.6H65.4c-17.5,0-32.6-6.6-45.5-19.9c-13-13.3-19.4-27.9-19.4-43.8c0-18.2,8.5-27.3,25.6-27.3    c6.6,0,12.2,2.4,16.9,7.1c4.6,4.7,7,10.3,7,16.7c0,5.2,1.8,9.6,5.4,13.1c3.6,3.5,8.1,5.2,13.5,5.2h121.6c5.2,0,7.8-2.1,7.8-6.2    c0.1-2-1-4.5-3.6-7.6L13.3,775.6c-8.5-11-12.8-23.1-12.8-36.1c0-15.1,5.4-28.3,16.3-39.4C27.7,689,40.8,683.4,56.1,683.4z"
   id="path18"
   style="fill:#a21f2c;fill-opacity:1" />&#10;		<path
   class="st0"
   d="M598.5,884.5v161.1c0,6.8-2.4,12.6-7.3,17.3c-4.8,4.8-10.6,7.1-17.2,7.1c-7,0-12.9-2.4-17.7-7.1    c-4.8-4.7-7.3-10.5-7.3-17.3v-161l-98.3-124.4v-51.8c0-7,2.4-12.9,7.1-17.7c4.8-4.8,10.5-7.3,17.3-7.3s12.7,2.5,17.6,7.5    s7.4,10.9,7.4,17.7v33.6l73.3,94.2l74.5-94.1v-34c0-6.8,2.4-12.6,7.3-17.6c4.8-4.9,10.6-7.4,17.2-7.4c6.4,0,12.1,2.3,17,6.8    c4.9,4.6,7.4,10.6,7.4,18.2v51.2L598.5,884.5z"
   id="path20"
   style="fill:#a21f2c;fill-opacity:1" />&#10;		<path
   class="st0"
   d="M954.3,683.4h127.3c15.5,0,30.2,6.5,44.1,19.6c13.9,13.1,20.8,28.9,20.8,47.6c0,7-2.5,12.9-7.4,17.7    c-4.9,4.8-10.4,7.3-16.4,7.3c-8.3,0-14.1-1.9-17.2-5.7s-6.1-10.8-8.9-21.1c-2.8-10.3-9.1-15.4-18.8-15.4h-121    c-5.8,0-8.7,1.9-8.7,5.6c-0.1,2.4,1,5.1,3.6,8.2l181.5,231.6c8.7,11.2,13.1,23.3,13.1,36.1c0,14.5-5.3,27.3-15.9,38.4    c-10.6,11.1-22.3,16.6-35.3,16.6H963.5c-17.5,0-32.6-6.6-45.5-19.9c-12.9-13.3-19.3-27.9-19.3-43.8c0-18.2,8.5-27.3,25.6-27.3    c6.6,0,12.2,2.4,16.9,7.1c4.7,4.7,7,10.3,7,16.7c0,5.2,1.8,9.6,5.4,13.1c3.6,3.5,8.1,5.2,13.5,5.2h121.6c5.2,0,7.9-2.1,7.9-6.2    c0.1-2-1-4.5-3.6-7.6L911.5,775.6c-8.6-11-12.8-23.1-12.8-36.1c0-15.1,5.4-28.3,16.3-39.4C925.8,689,938.9,683.4,954.3,683.4z"
   id="path22"
   style="fill:#a21f2c;fill-opacity:1" />&#10;		<path
   class="st0"
   d="M1347.7,750v-66h246.6v66.6c0,6.8-2.4,12.6-7.3,17.3c-4.8,4.8-10.6,7.1-17.2,7.1c-6.8,0-12.7-2.4-17.6-7.3    c-4.9-4.8-7.4-10.6-7.4-17.2v-17.7h-49.4v312.6c0,6.8-2.4,12.6-7.3,17.3c-4.8,4.8-10.6,7.1-17.2,7.1c-7,0-12.9-2.4-17.7-7.1    c-4.8-4.8-7.3-10.5-7.3-17.3V732.9h-49.5v17.2c0,6.8-2.4,12.6-7.1,17.3c-4.8,4.8-10.5,7.1-17.3,7.1s-12.6-2.4-17.3-7.1    C1350.1,762.6,1347.7,756.8,1347.7,750z"
   id="path24"
   style="fill:#a21f2c;fill-opacity:1" />&#10;		<path
   class="st0"
   d="M2018.9,732.9h-172.8v119h74.5c6.6,0,12.3,2.4,17.2,7.3c4.8,4.8,7.3,10.6,7.3,17.2c0,7-2.4,12.9-7.1,17.7    c-4.8,4.8-10.5,7.3-17.3,7.3h-74.5v119.8h173.4c6.6,0,12.3,2.4,17.2,7.1c4.8,4.8,7.3,10.5,7.3,17.3s-2.5,12.6-7.4,17.3    c-4.9,4.8-10.8,7.1-17.6,7.1h-221.5V683.4h221.5c6.8,0,12.7,2.5,17.6,7.4c4.9,4.9,7.4,10.8,7.4,17.6c0,6.6-2.5,12.3-7.4,17.2    C2031.6,730.4,2025.7,732.9,2018.9,732.9z"
   id="path26"
   style="fill:#a21f2c;fill-opacity:1" />&#10;		<path
   class="st0"
   d="M2344.6,835.2v-12.5l-50.6-72.1v294.8c0,6.8-2.4,12.6-7.1,17.3c-4.8,4.8-10.5,7.1-17.3,7.1    s-12.6-2.4-17.3-7.3c-4.8-4.8-7.1-10.6-7.1-17.2V683.4h63.2l60,87.6l62-87.6h62v362c0,6.8-2.5,12.6-7.4,17.3    c-4.9,4.8-10.8,7.1-17.6,7.1c-6.6,0-12.3-2.4-17.2-7.3c-4.8-4.8-7.3-10.6-7.3-17.2V751.8l-49.4,69.8v13.7c0,6.6-2.4,12.3-7.3,17.2    c-4.8,4.8-10.6,7.3-17.2,7.3c-6.8,0-12.6-2.4-17.3-7.3C2347,847.6,2344.6,841.8,2344.6,835.2z"
   id="path28"
   style="fill:#a21f2c;fill-opacity:1" />&#10;		<path
   class="st0"
   d="M3366,1069.3h-222.1V900.7c0-13.6,4.8-25.2,14.4-34.9c9.6-9.7,21.1-14.5,34.5-14.5H3341v-119h-174.5    c-7,0-12.8-2.4-17.5-7.1c-4.7-4.7-7-10.5-7-17.3s2.3-12.6,7-17.3c4.7-4.7,10.5-7.1,17.5-7.1H3341c13.6,0,25.2,4.8,34.9,14.4    c9.7,9.6,14.5,21.1,14.5,34.5v119c0,13.8-4.9,25.4-14.5,35.1c-9.7,9.6-21.3,14.4-34.9,14.4h-148.4v119.8H3366    c6.6,0,12.3,2.4,17.2,7.1c4.8,4.8,7.3,10.5,7.3,17.3s-2.4,12.6-7.3,17.3C3378.3,1066.9,3372.6,1069.3,3366,1069.3z"
   id="path30"
   style="fill:#a21f2c;fill-opacity:1" />&#10;		<path
   class="st0"
   d="M3815.1,1069.3h-222.1V900.7c0-13.6,4.8-25.2,14.4-34.9c9.6-9.7,21.1-14.5,34.5-14.5h148.3v-119h-174.6    c-7,0-12.8-2.4-17.5-7.1c-4.7-4.7-7-10.5-7-17.3s2.3-12.6,7-17.3c4.7-4.7,10.5-7.1,17.5-7.1H3790c13.6,0,25.2,4.8,34.9,14.4    c9.7,9.6,14.5,21.1,14.5,34.5v119c0,13.8-4.9,25.4-14.5,35.1c-9.7,9.6-21.3,14.4-34.9,14.4h-148.3v119.8h173.4    c6.6,0,12.3,2.4,17.2,7.1c4.8,4.8,7.3,10.5,7.3,17.3s-2.4,12.6-7.3,17.3C3827.4,1066.9,3821.7,1069.3,3815.1,1069.3z"
   id="path32"
   style="fill:#a21f2c;fill-opacity:1" />&#10;	</g>&#10;</g>&#10;</svg>
