<?xml version="1.0" encoding="UTF-8" standalone="no"?>
<svg
   stroke-width=".501"
   stroke-linejoin="bevel"
   fill-rule="evenodd"
   overflow="visible"
   width="556.8"
   height="115.2"
   viewBox="0 0 417.6 86.4"
   version="1.1"
   id="svg2"
   sodipodi:docname="naomi-w.svg"
   inkscape:version="1.3.2 (091e20e, 2023-11-25, custom)"
   xmlns:inkscape="http://www.inkscape.org/namespaces/inkscape"
   xmlns:sodipodi="http://sodipodi.sourceforge.net/DTD/sodipodi-0.dtd"
   xmlns="http://www.w3.org/2000/svg"
   xmlns:svg="http://www.w3.org/2000/svg">
  <defs
     id="defs2" />
  <sodipodi:namedview
     id="namedview2"
     pagecolor="#505050"
     bordercolor="#eeeeee"
     borderopacity="1"
     inkscape:showpageshadow="0"
     inkscape:pageopacity="0"
     inkscape:pagecheckerboard="0"
     inkscape:deskcolor="#505050"
     inkscape:zoom="2.3760776"
     inkscape:cx="278.39999"
     inkscape:cy="57.447618"
     inkscape:window-width="2560"
     inkscape:window-height="1351"
     inkscape:window-x="-9"
     inkscape:window-y="-9"
     inkscape:window-maximized="1"
     inkscape:current-layer="svg2" />
  <g
     stroke="none"
     fill="none"
     font-family="'Times New Roman'"
     font-size="16"
     id="g2">
    <path
       d="M72.677 79.447V3.386H60.033l.208 48.91L1.798 4.008l.206 76.267h10.985V30.951l59.688 48.496M80.758 80.689l9.74-16.579h-8.912V52.504h14.715l26.736-48.496 42.692 76.681H150.6l-8.704-16.579h-37.925L94.85 80.689H80.758m28.393-28.393h27.356l-13.678-25.075-13.678 25.075M273.912 80.689h-12.436V4.216l42.28 49.117L346.447 3.18v77.509h-13.264l-.206-41.657-29.43 35.44-29.635-35.232v41.449M370.488 80.689l.208-78.34h12.642l-.208 78.34h-12.642"
       fill="#000"
       id="path1"
       style="fill:#ffffff" />
    <path
       d="M165.315 43.178c0-23.004 18.652-41.657 41.657-41.657 23.004 0 41.657 18.653 41.657 41.657 0 23.005-18.653 41.657-41.657 41.657-23.005 0-41.657-18.652-41.657-41.657m41.657 29.221c16.165 0 29.221-13.056 29.221-29.221 0-15.957-13.056-29.015-29.221-29.015-15.958 0-29.016 13.058-29.016 29.015 0 16.165 13.058 29.221 29.016 29.221"
       fill="red"
       id="path2" />
  </g>
</svg>
