<?xml version="1.0" encoding="UTF-8" standalone="no"?>
<!-- Created with Inkscape (http://www.inkscape.org/) -->

<svg
   width="1015.7285mm"
   height="312.12897mm"
   viewBox="0 0 1015.7285 312.12897"
   version="1.1"
   id="svg1"
   inkscape:version="1.3.2 (091e20e, 2023-11-25, custom)"
   sodipodi:docname="neogeomvs.svg"
   xmlns:inkscape="http://www.inkscape.org/namespaces/inkscape"
   xmlns:sodipodi="http://sodipodi.sourceforge.net/DTD/sodipodi-0.dtd"
   xmlns="http://www.w3.org/2000/svg"
   xmlns:svg="http://www.w3.org/2000/svg">
  <sodipodi:namedview
     id="namedview1"
     pagecolor="#ffffff"
     bordercolor="#000000"
     borderopacity="0.25"
     inkscape:showpageshadow="2"
     inkscape:pageopacity="0.0"
     inkscape:pagecheckerboard="true"
     inkscape:deskcolor="#d1d1d1"
     inkscape:document-units="mm"
     inkscape:zoom="0.1029492"
     inkscape:cx="636.23614"
     inkscape:cy="1374.4643"
     inkscape:window-width="2560"
     inkscape:window-height="1351"
     inkscape:window-x="-9"
     inkscape:window-y="-9"
     inkscape:window-maximized="1"
     inkscape:current-layer="layer1" />
  <defs
     id="defs1" />
  <g
     inkscape:label="Layer 1"
     inkscape:groupmode="layer"
     id="layer1"
     transform="translate(369.35833,2.6458333)">
    <g
       id="g17"
       transform="matrix(0.26458333,0,0,0.26458333,-369.35833,-2.6458333)"
       style="fill:#ffffff">
      <g
         id="g16"
         style="fill:#ffffff">
        <g
           id="g15"
           style="fill:#ffffff">
          <g
             id="g14"
             style="fill:#ffffff">
            <path
               class="st5"
               d="M 3464.6,387.1 H 2816.8 V 203.9 h 407 l 40.2,69.7 h 277.6 L 3464,139.1 C 3414.3,53.1 3322.5,0.1 3223.2,0.1 H 2739 c -68.8,0 -177.9,55.8 -177.9,124.5 V 475 c 0,68.7 120.6,116 208.1,116 h 678.1 L 3553,774.1 h -736.2 v -69.7 h -255.7 v 120.9 c 0,84.3 51.1,152.6 201,152.6 h 927.1 c 115.1,0 187.1,-124.6 129.5,-224.3 L 3678.4,510.5 C 3634.3,434.1 3552.8,387.1 3464.6,387.1 Z"
               id="path1"
               style="clip-rule:evenodd;fill:#ffffff;fill-rule:evenodd" />
            <g
               id="g2"
               style="fill:#ffffff">
              <path
                 class="st5"
                 d="m 1147.7,75.4 -245.3,425 V 150.8 C 902.4,67.6 834.9,0.1 751.7,0.1 H 651.6 C 597.8,0.1 548,28.8 521.1,75.4 L 0,977.9 H 277.6 L 662,312.1 v 531.7 c 0,74.1 60,134.1 134.1,134.1 h 30.7 c 47.9,0 92.2,-25.6 116.1,-67.1 l 327.6,-567.4 v 634.4 h 255.7 V 125 C 1526.2,35.5 1441.4,0.1 1372.4,0.1 h -94.3 c -53.7,0 -103.5,28.7 -130.4,75.3 z"
                 id="path2"
                 style="clip-rule:evenodd;fill:#ffffff;fill-rule:evenodd" />
            </g>
            <g
               id="g3"
               style="fill:#ffffff">
              <path
                 class="st5"
                 d="M 2215,858 2535.7,0.1 H 2294.8 L 2042,676.2 1789.2,0 H 1548.3 L 1869,857.9 c 27,72.2 95.9,120 172.9,120 v 0 c 77.2,0 146.1,-47.8 173.1,-119.9 z"
                 id="path3"
                 style="clip-rule:evenodd;fill:#ffffff;fill-rule:evenodd" />
            </g>
            <path
               class="st5"
               d="m 475,1063.9 c -2.5,-9.2 -7.5,-17.6 -14.3,-24.4 -31.9,-31.8 -83.7,-32.2 -116.2,-1.3 -32.4,-30.9 -84.3,-30.5 -116.2,1.3 -6.8,6.8 -11.7,15.2 -14.3,24.4 -0.5,1.8 -0.7,3 -0.7,3.4 v 0 0 112.4 h 33.1 v -110.5 0 c 20.1,-27.7 61.5,-27.7 81.6,0 v 110.5 h 33.1 v -110.5 c 20.1,-27.7 61.5,-27.7 81.6,0 v 0 110.5 h 33.1 v -112.4 c -0.1,-0.4 -0.3,-1.7 -0.8,-3.4 z"
               id="path4"
               style="clip-rule:evenodd;fill:#ffffff;fill-rule:evenodd" />
            <path
               class="st5"
               d="m 3618.6,1063.9 c -2.5,-9.2 -7.5,-17.6 -14.3,-24.4 -31.9,-31.8 -83.7,-32.2 -116.2,-1.3 -32.4,-30.9 -84.3,-30.5 -116.2,1.3 -6.8,6.8 -11.7,15.2 -14.3,24.4 -0.5,1.8 -0.7,3 -0.7,3.4 v 0 0 112.4 h 33.1 v -110.5 0 c 20.1,-27.7 61.5,-27.7 81.6,0 v 110.5 h 33.1 v -110.5 c 20.1,-27.7 61.5,-27.7 81.6,0 v 0 110.5 h 33.1 v -112.4 c -0.1,-0.4 -0.3,-1.7 -0.8,-3.4 z"
               id="path5"
               style="clip-rule:evenodd;fill:#ffffff;fill-rule:evenodd" />
            <path
               class="st5"
               d="m 767.2,1146.6 v 0 c -8.3,0 -16.5,-5.5 -16.5,-16.5 v 0 -114.7 h -33.1 v 114.7 c 0,33.1 24.8,49.6 49.6,49.6 H 889 v -33.1 z"
               id="path6"
               style="clip-rule:evenodd;fill:#ffffff;fill-rule:evenodd" />
            <rect
               x="1107.6"
               y="1015.3"
               class="st5"
               width="33.099998"
               height="164.3"
               id="rect6"
               style="clip-rule:evenodd;fill:#ffffff;fill-rule:evenodd" />
            <rect
               x="1540.1"
               y="1015.3"
               class="st5"
               width="33.099998"
               height="164.3"
               id="rect7"
               style="clip-rule:evenodd;fill:#ffffff;fill-rule:evenodd" />
            <polygon
               class="st5"
               points="1014.8,1048.4 1093,1048.4 1093,1015.3 1014.8,1015.3 981.8,1015.3 902.6,1015.3 902.6,1048.4 981.8,1048.4 981.8,1179.6 1014.8,1179.6 "
               id="polygon7"
               style="clip-rule:evenodd;fill:#ffffff;fill-rule:evenodd" />
            <polygon
               class="st5"
               points="3051.7,1048.4 3129.9,1048.4 3129.9,1015.3 3051.7,1015.3 3018.7,1015.3 2939.5,1015.3 2939.5,1048.4 3018.7,1048.4 3018.7,1179.6 3051.7,1179.6 "
               id="polygon8"
               style="clip-rule:evenodd;fill:#ffffff;fill-rule:evenodd" />
            <path
               class="st5"
               d="m 669.4,1015.3 v 114.7 0 c 0,11 -8.3,16.5 -16.5,16.5 v 0 H 550.3 v 0 c -8.3,0 -16.5,-5.5 -16.5,-16.5 v 0 -114.7 H 500.7 V 1130 c 0,33.1 24.8,49.6 49.6,49.6 h 102.6 c 24.8,0 49.6,-16.5 49.6,-49.6 v -114.7 z"
               id="path8"
               style="clip-rule:evenodd;fill:#ffffff;fill-rule:evenodd" />
            <path
               class="st5"
               d="m 1741.3,1015.3 h -118.2 -27.9 -5.1 v 164.3 h 5.1 27.9 118.2 c 33.1,0 49.6,-24.8 49.6,-49.6 v -65.1 c 0,-24.8 -16.5,-49.6 -49.6,-49.6 z m 0,131.3 h -118.2 v -98.2 h 118.2 v 0 c 11,0 16.5,8.3 16.5,16.5 v 0 65.1 0 c 0.1,8.3 -5.4,16.6 -16.5,16.6 z"
               id="path9"
               style="clip-rule:evenodd;fill:#ffffff;fill-rule:evenodd" />
            <path
               class="st5"
               d="m 2000.9,1048.4 v -33.1 h -146.1 c -33.1,0 -49.6,24.8 -49.6,49.6 v 65.1 c 0,24.8 16.5,49.6 49.6,49.6 h 146.1 v -33.1 h -146.1 c -11,0 -16.5,-8.3 -16.5,-16.5 v 0 -16 H 2000 v -33.1 h -161.7 v -16 0 c 0,-8.3 5.5,-16.5 16.5,-16.5 v 0 z"
               id="path10"
               style="clip-rule:evenodd;fill:#ffffff;fill-rule:evenodd" />
            <path
               class="st5"
               d="m 3339,1048.4 v -33.1 h -146.1 c -33.1,0 -49.6,24.8 -49.6,49.6 v 65.1 c 0,24.8 16.5,49.6 49.6,49.6 H 3339 v -33.1 h -146.1 c -11,0 -16.5,-8.3 -16.5,-16.5 v 0 -16 h 161.7 v -33.1 h -161.7 v -16 0 c 0,-8.3 5.5,-16.5 16.5,-16.5 v 0 z"
               id="path11"
               style="clip-rule:evenodd;fill:#ffffff;fill-rule:evenodd" />
            <path
               class="st5"
               d="m 2356.5,1048.4 h 145.3 v -33.1 h -145.3 v 0 c -65.8,0 -65.8,98.7 0,98.7 v 0 h 96 v 0 c 21.7,0 21.7,32.6 0,32.6 v 0 h -145.3 v 33.1 h 145.3 v 0 c 65.8,0 65.8,-98.7 0,-98.7 h -96 c -21.7,0 -21.7,-32.6 0,-32.6 z"
               id="path12"
               style="clip-rule:evenodd;fill:#ffffff;fill-rule:evenodd" />
            <path
               class="st5"
               d="m 2777.9,1048.4 h 145.3 v -33.1 h -145.3 v 0 c -65.8,0 -65.8,98.7 0,98.7 v 0 h 96 v 0 c 21.7,0 21.7,32.6 0,32.6 v 0 h -145.3 v 33.1 h 145.3 v 0 c 65.8,0 65.8,-98.7 0,-98.7 h -96 c -21.7,0 -21.7,-32.6 0,-32.6 z"
               id="path13"
               style="clip-rule:evenodd;fill:#ffffff;fill-rule:evenodd" />
            <path
               class="st5"
               d="m 2165.8,1015.3 v 0 0 h -103.6 v 0 0 c -33.1,0 -49.6,24.8 -49.6,49.6 v 65.1 c 0,24.8 16.5,49.6 49.6,49.6 v 0 0 h 103.6 v 0 0 c 33.1,0 49.6,-24.8 49.6,-49.6 v -65.1 c -0.1,-24.8 -16.6,-49.6 -49.6,-49.6 z m -103.6,131.3 c -11,0 -16.5,-8.3 -16.5,-16.5 v 0 -65.1 0 c 0,-8.3 5.5,-16.5 16.5,-16.5 h 103.6 c 11,0 16.5,8.3 16.5,16.5 v 0 65.1 0 c 0,8.3 -5.5,16.5 -16.5,16.5 z"
               id="path14"
               style="clip-rule:evenodd;fill:#ffffff;fill-rule:evenodd" />
            <polygon
               class="st5"
               points="1412.3,1139.7 1337.6,1015.3 1299,1015.3 1397.7,1179.6 1426.9,1179.6 1525.6,1015.3 1487,1015.3 "
               id="polygon14"
               style="clip-rule:evenodd;fill:#ffffff;fill-rule:evenodd" />
          </g>
        </g>
        <path
           class="st4"
           d="m 2683.6,1015.8 v 51.2 c 0,8.3 -5.5,16.5 -16.5,16.5 h -99.9 c -11,0 -16.5,-8.3 -16.5,-16.5 v -51.2 h -33.1 v 51.2 c 0,24.8 16.5,49.6 49.6,49.6 h 33.4 v 62.6 h 33.1 v -62.6 h 33.4 c 33.1,0 49.6,-24.8 49.6,-49.6 v -51.2 z"
           id="path15"
           style="fill:#ffffff" />
      </g>
    </g>
  </g>
</svg>
