<?xml version="1.0" encoding="UTF-8" standalone="no"?>
<!-- Created with Inkscape (http://www.inkscape.org/) -->

<svg
   width="1015.709mm"
   height="113.00354mm"
   viewBox="0 0 1015.709 113.00354"
   version="1.1"
   id="svg1"
   inkscape:version="1.4 (86a8ad7, 2024-10-11)"
   sodipodi:docname="neogeomvs_v2.svg"
   xmlns:inkscape="http://www.inkscape.org/namespaces/inkscape"
   xmlns:sodipodi="http://sodipodi.sourceforge.net/DTD/sodipodi-0.dtd"
   xmlns="http://www.w3.org/2000/svg"
   xmlns:svg="http://www.w3.org/2000/svg">
  <sodipodi:namedview
     id="namedview1"
     pagecolor="#ffffff"
     bordercolor="#000000"
     borderopacity="0.25"
     inkscape:showpageshadow="2"
     inkscape:pageopacity="0.0"
     inkscape:pagecheckerboard="0"
     inkscape:deskcolor="#d1d1d1"
     inkscape:document-units="mm"
     inkscape:zoom="0.41179679"
     inkscape:cx="1141.3396"
     inkscape:cy="188.19962"
     inkscape:window-width="3840"
     inkscape:window-height="2066"
     inkscape:window-x="-11"
     inkscape:window-y="-11"
     inkscape:window-maximized="1"
     inkscape:current-layer="layer1" />
  <defs
     id="defs1" />
  <g
     inkscape:label="Layer 1"
     inkscape:groupmode="layer"
     id="layer1"
     transform="translate(337.34375,-96.308333)">
    <g
       id="g25"
       transform="matrix(0.26458333,0,0,0.26458333,-337.34375,96.308333)">
	<g
   id="g8">
		<g
   id="g7">
			<path
   class="st4"
   d="M 409,10.2 H 285 v 16.3 h 16.2 c 21.7,0 39.2,20.2 39.2,41.8 V 269.5 L 129,10.2 H 0 v 16.3 c 28.8,0 51.5,26 51.5,54.9 v 281.9 c 0,28.8 -30.4,38.4 -51.5,38.4 V 418 H 140.1 V 401.7 C 113.9,401.6 100,398 91,389.5 82.1,381 79.6,369.8 79.6,354.3 V 90 l 273.7,333.7 h 15 v -355 c 0,-21.1 16.5,-38.9 40.7,-39.8 V 10.2 Z"
   id="path1"
   style="fill:#f91716" />

			<circle
   class="st4"
   cx="1235.6"
   cy="212.7"
   r="47.299999"
   id="circle1"
   style="fill:#f91716" />

			<path
   class="st4"
   d="m 1501.9,227.2 v 19.7 h 15.4 c 25,0 32.1,12.1 32.1,33.6 v 96.4 c -5.8,7 -25.2,15.8 -52.8,15.8 -5.6,0 -37.5,-0.6 -61.3,-20.2 -24.9,-20.4 -41.7,-61.9 -41.7,-160.5 0,-128.3 45.1,-182.6 110.5,-182.6 21.3,0 93.4,14.4 124.2,107.2 h 19.2 V 2.6 h -18.2 c -2.3,18 -16.5,28 -43.4,16.8 C 1545.4,2.6 1509.1,0 1482.5,0 c -104.7,0 -193.8,96.9 -193.8,212.7 0,133.4 100.7,211.5 208.8,211.5 51.2,0 105.6,-11.8 148.6,-33.6 V 280.5 c 0,-25.8 18,-33.6 42.3,-33.6 v -19.7 z"
   id="path2"
   style="fill:#f91716" />

			<g
   id="g4">
				<path
   class="st4"
   d="m 753.4,292 c -10.1,55.9 -58.3,99.5 -112.3,98.1 H 594.5 C 579.9,390.1 568,378.2 568,363.6 V 220.7 h 12.8 c 38.1,0 62.5,31.9 62.5,86.8 H 660 v -97.3 -5 -95.5 h -16.7 c 0,48.3 -20.4,83.2 -62.5,83.2 H 568 V 34.6 h 67.1 c 90.3,0 93.3,80.4 93.3,90.8 h 18 V 38.1 10.2 H 421 v 16.2 h 23 c 17.6,0 31.8,16.6 31.8,34.1 v 300.1 c 0,31.6 -20.7,38.8 -38.3,38.8 H 421 v 18.5 h 54.7 275.2 L 769.4,292 Z"
   id="path3"
   style="fill:#f91716" />

				<path
   class="st4"
   d="m 974.9,5.9 c -117.3,0 -207.7,86.4 -207.7,210.6 0,124.2 90.4,210.6 207.7,210.6 117.3,0 207.7,-86.4 207.7,-210.6 C 1182.6,92.3 1092.2,5.9 974.9,5.9 Z m 0,394 c -56.4,0 -102,-51.6 -102,-183.4 0,-131.8 45.7,-183.4 102,-183.4 56.4,0 102,51.6 102,183.4 0.1,131.8 -45.7,183.4 -102,183.4 z"
   id="path4"
   style="fill:#f91716" />

			</g>

			<g
   id="g6">
				<path
   class="st4"
   d="m 2011.3,292 c -10.1,55.9 -58.3,99.5 -112.3,98.1 h -46.6 c -14.6,0 -26.5,-11.9 -26.5,-26.5 V 220.7 h 12.8 c 38.1,0 62.5,31.9 62.5,86.8 h 16.7 v -97.3 -5 -95.5 H 1901 c 0,48.3 -20.4,83.2 -62.5,83.2 h -12.8 V 34.6 h 67.1 c 90.3,0 93.3,80.4 93.3,90.8 h 18 V 38.1 10.2 h -325.3 v 16.2 h 23 c 17.6,0 31.8,16.6 31.8,34.1 v 300.1 c 0,31.6 -20.7,38.8 -38.3,38.8 h -16.5 v 18.5 h 54.7 275.2 L 2027.2,292 Z"
   id="path5"
   style="fill:#f91716" />

				<path
   class="st4"
   d="m 2232.7,5.9 c -117.3,0 -207.7,86.4 -207.7,210.6 0,124.2 90.4,210.6 207.7,210.6 117.3,0 207.7,-86.4 207.7,-210.6 C 2440.4,92.3 2350,5.9 2232.7,5.9 Z m 0,394 c -56.4,0 -102,-51.6 -102,-183.4 0,-131.8 45.7,-183.4 102,-183.4 56.4,0 102,51.6 102,183.4 0.1,131.8 -45.6,183.4 -102,183.4 z"
   id="path6"
   style="fill:#f91716" />

			</g>

		</g>

	</g>

	<g
   id="g24">
		<g
   id="g23">
			<g
   id="g22">
				<g
   id="g21">
					<path
   class="st5"
   d="M 3709.6,144 H 3485.7 V 80.6 h 140.7 l 13.9,24.1 h 95.9 l -26.8,-46.5 c -17.2,-29.7 -48.9,-48 -83.2,-48 h -167.4 c -23.8,0 -61.5,19.3 -61.5,43 v 121.1 c 0,23.7 41.7,40.1 71.9,40.1 h 234.4 l 36.5,63.3 h -254.5 v -24.1 h -88.4 v 41.8 c 0,29.1 17.7,52.7 69.5,52.7 h 320.4 c 39.8,0 64.7,-43.1 44.8,-77.5 l -48.5,-84 C 3768.3,160.2 3740.1,144 3709.6,144 Z"
   id="path8"
   style="clip-rule:evenodd;fill:#f91716;fill-rule:evenodd" />

					<g
   id="g9">
						<path
   class="st5"
   d="M 2908.8,36.2 2824,183.1 V 62.3 c 0,-28.8 -23.3,-52.1 -52.1,-52.1 h -34.6 c -18.6,0 -35.8,9.9 -45.1,26 L 2512.1,348.1 H 2608 L 2740.9,118 v 183.8 c 0,25.6 20.7,46.3 46.3,46.3 h 10.6 c 16.6,0 31.9,-8.8 40.1,-23.2 l 113.2,-196.1 v 219.3 h 88.4 V 53.4 c 0,-30.9 -29.3,-43.2 -53.2,-43.2 h -32.6 c -18.4,0 -35.6,9.9 -44.9,26 z"
   id="path9"
   style="clip-rule:evenodd;fill:#f91716;fill-rule:evenodd" />

					</g>

					<g
   id="g10">
						<path
   class="st5"
   d="M 3277.7,306.7 3388.5,10.2 h -83.3 l -87.4,233.7 -87.4,-233.7 h -83.3 l 110.8,296.5 c 9.3,25 33.1,41.5 59.8,41.5 v 0 c 26.9,0 50.7,-16.6 60,-41.5 z"
   id="path10"
   style="clip-rule:evenodd;fill:#f91716;fill-rule:evenodd" />

					</g>

					<path
   class="st5"
   d="m 2676.3,377.9 c -0.9,-3.2 -2.6,-6.1 -4.9,-8.4 -11,-11 -28.9,-11.1 -40.2,-0.4 -11.2,-10.7 -29.1,-10.5 -40.2,0.4 -2.4,2.4 -4,5.3 -4.9,8.4 -0.2,0.6 -0.2,1 -0.2,1.2 v 0 0 38.8 h 11.4 v -38.2 0 c 6.9,-9.6 21.3,-9.6 28.2,0 v 38.2 h 11.4 v -38.2 c 6.9,-9.6 21.3,-9.6 28.2,0 v 0 38.2 h 11.4 v -38.8 c 0,-0.2 0,-0.6 -0.2,-1.2 z"
   id="path11"
   style="clip-rule:evenodd;fill:#f91716;fill-rule:evenodd" />

					<path
   class="st5"
   d="m 3762.8,377.9 c -0.9,-3.2 -2.6,-6.1 -4.9,-8.4 -11,-11 -28.9,-11.1 -40.2,-0.4 -11.2,-10.7 -29.1,-10.5 -40.2,0.4 -2.4,2.4 -4,5.3 -4.9,8.4 -0.2,0.6 -0.2,1 -0.2,1.2 v 0 0 38.8 h 11.4 v -38.2 0 c 6.9,-9.6 21.3,-9.6 28.2,0 v 38.2 h 11.4 v -38.2 c 6.9,-9.6 21.3,-9.6 28.2,0 v 0 38.2 h 11.4 v -38.8 c 0.1,-0.2 0,-0.6 -0.2,-1.2 z"
   id="path12"
   style="clip-rule:evenodd;fill:#f91716;fill-rule:evenodd" />

					<path
   class="st5"
   d="m 2777.3,406.5 v 0 c -2.9,0 -5.7,-1.9 -5.7,-5.7 v 0 -39.6 h -11.4 v 39.6 c 0,11.4 8.6,17.1 17.1,17.1 h 42.1 v -11.4 z"
   id="path13"
   style="clip-rule:evenodd;fill:#f91716;fill-rule:evenodd" />

					<rect
   x="2894.8999"
   y="361.10001"
   class="st5"
   width="11.4"
   height="56.799999"
   id="rect13"
   style="clip-rule:evenodd;fill:#f91716;fill-rule:evenodd" />

					<rect
   x="3044.3999"
   y="361.10001"
   class="st5"
   width="11.4"
   height="56.799999"
   id="rect14"
   style="clip-rule:evenodd;fill:#f91716;fill-rule:evenodd" />

					<polygon
   class="st5"
   points="2862.9,372.5 2889.9,372.5 2889.9,361.1 2862.9,361.1 2851.5,361.1 2824.1,361.1 2824.1,372.5 2851.5,372.5 2851.5,417.9 2862.9,417.9 "
   id="polygon14"
   style="clip-rule:evenodd;fill:#f91716;fill-rule:evenodd" />

					<polygon
   class="st5"
   points="3566.9,372.5 3593.9,372.5 3593.9,361.1 3566.9,361.1 3555.5,361.1 3528.1,361.1 3528.1,372.5 3555.5,372.5 3555.5,417.9 3566.9,417.9 "
   id="polygon15"
   style="clip-rule:evenodd;fill:#f91716;fill-rule:evenodd" />

					<path
   class="st5"
   d="m 2743.5,361.1 v 39.6 0 c 0,3.8 -2.9,5.7 -5.7,5.7 v 0 h -35.5 v 0 c -2.9,0 -5.7,-1.9 -5.7,-5.7 v 0 -39.6 h -11.4 v 39.6 c 0,11.4 8.6,17.1 17.1,17.1 h 35.5 c 8.6,0 17.1,-5.7 17.1,-17.1 v -39.6 z"
   id="path15"
   style="clip-rule:evenodd;fill:#f91716;fill-rule:evenodd" />

					<path
   class="st5"
   d="m 3114,361.1 h -40.9 -9.6 -1.8 v 56.8 h 1.8 9.6 40.9 c 11.4,0 17.1,-8.6 17.1,-17.1 v -22.5 c 0,-8.6 -5.7,-17.2 -17.1,-17.2 z m 0,45.4 h -40.9 v -33.9 h 40.9 v 0 c 3.8,0 5.7,2.9 5.7,5.7 v 0 22.5 0 c 0,2.8 -1.9,5.7 -5.7,5.7 z"
   id="path16"
   style="clip-rule:evenodd;fill:#f91716;fill-rule:evenodd" />

					<path
   class="st5"
   d="m 3203.7,372.5 v -11.4 h -50.5 c -11.4,0 -17.1,8.6 -17.1,17.1 v 22.5 c 0,8.6 5.7,17.1 17.1,17.1 h 50.5 v -11.4 h -50.5 c -3.8,0 -5.7,-2.9 -5.7,-5.7 v 0 -5.5 h 55.9 v -11.4 h -55.9 v -5.5 0 c 0,-2.9 1.9,-5.7 5.7,-5.7 v 0 h 50.5 z"
   id="path17"
   style="clip-rule:evenodd;fill:#f91716;fill-rule:evenodd" />

					<path
   class="st5"
   d="m 3666.2,372.5 v -11.4 h -50.5 c -11.4,0 -17.1,8.6 -17.1,17.1 v 22.5 c 0,8.6 5.7,17.1 17.1,17.1 h 50.5 v -11.4 h -50.5 c -3.8,0 -5.7,-2.9 -5.7,-5.7 v 0 -5.5 h 55.9 V 383.8 H 3610 v -5.5 0 c 0,-2.9 1.9,-5.7 5.7,-5.7 v 0 h 50.5 z"
   id="path18"
   style="clip-rule:evenodd;fill:#f91716;fill-rule:evenodd" />

					<path
   class="st5"
   d="m 3326.6,372.5 h 50.2 v -11.4 h -50.2 v 0 c -22.7,0 -22.7,34.1 0,34.1 v 0 h 33.2 v 0 c 7.5,0 7.5,11.3 0,11.3 v 0 h -50.2 v 11.4 h 50.2 v 0 c 22.7,0 22.7,-34.1 0,-34.1 h -33.2 c -7.5,0 -7.5,-11.3 0,-11.3 z"
   id="path19"
   style="clip-rule:evenodd;fill:#f91716;fill-rule:evenodd" />

					<path
   class="st5"
   d="m 3472.3,372.5 h 50.2 v -11.4 h -50.2 v 0 c -22.7,0 -22.7,34.1 0,34.1 v 0 h 33.2 v 0 c 7.5,0 7.5,11.3 0,11.3 v 0 h -50.2 v 11.4 h 50.2 v 0 c 22.7,0 22.7,-34.1 0,-34.1 h -33.2 c -7.5,0 -7.5,-11.3 0,-11.3 z"
   id="path20"
   style="clip-rule:evenodd;fill:#f91716;fill-rule:evenodd" />

					<path
   class="st5"
   d="m 3260.7,361.1 v 0 0 h -35.8 v 0 0 c -11.4,0 -17.1,8.6 -17.1,17.1 v 22.5 c 0,8.6 5.7,17.1 17.1,17.1 v 0 0 h 35.8 v 0 0 c 11.4,0 17.1,-8.6 17.1,-17.1 v -22.5 c 0,-8.5 -5.7,-17.1 -17.1,-17.1 z m -35.8,45.4 c -3.8,0 -5.7,-2.9 -5.7,-5.7 v 0 -22.5 0 c 0,-2.9 1.9,-5.7 5.7,-5.7 h 35.8 c 3.8,0 5.7,2.9 5.7,5.7 v 0 22.5 0 c 0,2.9 -1.9,5.7 -5.7,5.7 z"
   id="path21"
   style="clip-rule:evenodd;fill:#f91716;fill-rule:evenodd" />

					<polygon
   class="st5"
   points="3000.3,404.1 2974.4,361.1 2961.1,361.1 2995.2,417.9 3005.3,417.9 3039.4,361.1 3026.1,361.1 "
   id="polygon21"
   style="clip-rule:evenodd;fill:#f91716;fill-rule:evenodd" />

				</g>

			</g>

			<path
   class="st4"
   d="M 3439.7,361.3 V 379 c 0,2.9 -1.9,5.7 -5.7,5.7 h -34.5 c -3.8,0 -5.7,-2.9 -5.7,-5.7 v -17.7 h -11.4 V 379 c 0,8.6 5.7,17.1 17.1,17.1 h 11.5 v 21.6 h 11.4 v -21.6 h 11.5 c 11.4,0 17.1,-8.6 17.1,-17.1 v -17.7 z"
   id="path22"
   style="fill:#f91716" />

		</g>

	</g>

</g>
  </g>
</svg>
