<?xml version="1.0" encoding="UTF-8" standalone="no"?>
<!-- Created with Inkscape (http://www.inkscape.org/) -->

<svg
   width="1015.7354mm"
   height="403.91431mm"
   viewBox="0 0 1015.7354 403.91431"
   version="1.1"
   id="svg1"
   inkscape:version="1.3.2 (091e20e, 2023-11-25, custom)"
   sodipodi:docname="nes-w.svg"
   xmlns:inkscape="http://www.inkscape.org/namespaces/inkscape"
   xmlns:sodipodi="http://sodipodi.sourceforge.net/DTD/sodipodi-0.dtd"
   xmlns="http://www.w3.org/2000/svg"
   xmlns:svg="http://www.w3.org/2000/svg">
  <sodipodi:namedview
     id="namedview1"
     pagecolor="#ffffff"
     bordercolor="#000000"
     borderopacity="0.25"
     inkscape:showpageshadow="2"
     inkscape:pageopacity="0.0"
     inkscape:pagecheckerboard="true"
     inkscape:deskcolor="#d1d1d1"
     inkscape:document-units="mm"
     inkscape:zoom="0.20589839"
     inkscape:cx="1634.3013"
     inkscape:cy="779.51071"
     inkscape:window-width="2560"
     inkscape:window-height="1351"
     inkscape:window-x="-9"
     inkscape:window-y="-9"
     inkscape:window-maximized="1"
     inkscape:current-layer="svg1" />
  <defs
     id="defs1" />
  <g
     id="g4"
     transform="matrix(0.26458333,0,0,0.26458333,0,0.00139)">
    <path
       class="st0"
       d="M 3261.2,787 H 574.4 c -227.1,1.2 -365,-151 -365,-338.8 0,-187.8 139.1,-337.6 365,-338.8 h 2686.8 c 225.9,0 365,151 365,338.8 0,187.8 -139,338.8 -365,338.8 z"
       id="path1"
       style="fill:#ffffff" />
    <g
       id="g3">
      <g
         id="g2">
        <path
           class="st1"
           d="M 773,531.4 591.1,236.6 H 459 v 422 H 589.7 V 363.8 l 183.1,294.8 h 130.7 v -422 H 773 Z M 1807.3,378 v -41.7 h -69 v -57 h -127.2 v 57 h -69 V 378 h 69 v 280.6 h 127.2 V 378 Z M 976.2,658.6 h 127.2 V 378 H 976.2 Z m 0,-336.4 h 127.2 V 235.5 H 976.2 Z M 3199.4,359 c -102.2,0 -185.4,70.2 -185.4,158.1 0,86.7 83.2,158.1 185.4,158.1 102.2,0 185.4,-70.2 185.4,-158.1 0,-87.9 -80.7,-158.1 -185.4,-158.1 z m 51.2,216.4 c 0,45.2 -26.2,63 -52.3,63 -25,0 -52.3,-19 -52.3,-63 0,-16.7 0,-60.7 0,-60.7 0,0 0,-41.7 0,-58.2 0,-44 26.2,-63 52.3,-63 25,0 52.3,17.8 52.3,63 0,16.7 0,48.7 0,59.5 0,1.2 0,42.8 0,59.4 z M 2848.7,392.3 c -20.2,-11.9 -41.7,-22.5 -71.4,-25 -91.5,-8.3 -161.7,72.5 -161.7,147.4 0,97.5 74.9,134.4 86.7,139.1 42.8,20.2 97.5,20.2 146.2,-10.7 0,2.4 0,16.7 0,16.7 h 125 v -422 h -124.9 c 0.1,-1.2 0.1,89.2 0.1,154.5 z m 0,124.9 c 0,0 0,32.1 0,49.9 0,42.8 -29.7,54.7 -49.9,54.7 -20.2,0 -49.9,-11.9 -49.9,-54.7 0,-15.5 0,-49.9 0,-49.9 0,0 0,-35.7 0,-49.9 0,-44 29.7,-54.7 49.9,-54.7 20.2,0 49.9,10.7 49.9,54.7 0,14.2 0,49.9 0,49.9 z M 1400.6,365 c -41.7,1.2 -77.2,19 -101,42.8 0,-7.2 0,-29.7 0,-29.7 h -126 v 280.6 h 126 c 0,0 0,-172.4 0,-184.3 0,-25 26.2,-51.2 60.7,-51.2 34.5,0 58.2,27.3 58.2,51.2 0,17.8 0,184.3 0,184.3 h 126 c 0,0 0,-133.2 0,-152.2 0,-111.8 -96.2,-142.7 -143.9,-141.5 z m 1032,0 c -41.7,1.2 -77.2,19 -101,42.8 0,-7.2 0,-29.7 0,-29.7 h -126 v 280.6 h 125.9 c 0,0 0,-172.4 0,-184.3 0,-25 26.2,-51.2 60.7,-51.2 34.5,0 58.2,27.3 58.2,51.2 0,17.8 0,184.3 0,184.3 h 126 c 0,0 0,-133.2 0,-152.2 -1.1,-111.8 -97.5,-142.7 -143.8,-141.5 z m -267.5,154.6 c 0,-86.7 -84.4,-159.3 -187.9,-159.3 -103.4,0 -186.6,70.2 -186.6,158.1 0,86.7 83.2,158.1 186.6,158.1 85.6,0 158.1,-48.7 180.7,-115.4 h -126 c 0,0 0,1.2 0,16.7 0,51.2 -33.3,63 -52.3,63 -19,0 -53.5,-11.9 -53.5,-63 0,-15.5 0,-58.2 0,-58.2 z m -229.4,-98.7 c 9.5,-17.8 28.5,-25 45.2,-26.2 16.7,0 34.5,8.3 45.2,26.2 8.3,14.3 8.3,30.9 8.3,54.7 h -105.9 c -2.3,-25 -2.3,-40.4 7.2,-54.7 z m 1501.5,-132 c 0,-14.3 -10.7,-20.2 -30.9,-20.2 h -28.5 v 72.5 h 17.8 v -29.7 h 8.3 l 14.3,29.7 h 19 l -15.5,-32.1 c 9.6,-3.6 15.5,-10.7 15.5,-20.2 z m -33.3,10.7 h -8.3 v -21.4 h 7.2 c 10.7,0 15.5,3.5 15.5,10.7 1,8.4 -4.9,10.7 -14.4,10.7 z m 0,-59.5 c -35.7,0 -65.4,28.5 -65.4,65.4 0,35.7 29.7,65.4 65.4,65.4 35.7,0 65.4,-29.7 65.4,-65.4 0,-36.9 -29.8,-65.4 -65.4,-65.4 z m 0,117.7 c -28.5,0 -52.3,-23.8 -52.3,-52.3 0,-28.5 23.8,-52.3 52.3,-52.3 28.5,0 52.3,23.8 52.3,52.3 -0.1,28.6 -22.6,52.3 -52.3,52.3 z M 3262.4,0 H 573.2 C 289.1,-1.2 97.7,204.5 97.7,449.4 c 0,244.9 190.2,447 476.7,447 h 2688 c 285.3,0 476.7,-202.1 476.7,-447 C 3738,203.3 3546.5,-1.2 3262.4,0 Z m -1.2,787 H 574.4 c -227.1,1.2 -365,-151 -365,-338.8 0,-187.8 139.1,-337.6 365,-338.8 h 2686.8 c 225.9,0 365,151 365,338.8 0,187.8 -139,338.8 -365,338.8 z M 3262.4,0 H 573.2 C 289.1,-1.2 97.7,204.5 97.7,449.4 c 0,244.9 190.2,447 476.7,447 h 2688 c 285.3,0 476.7,-202.1 476.7,-447 C 3738,203.3 3546.5,-1.2 3262.4,0 Z m -1.2,787 H 574.4 c -227.1,1.2 -365,-151 -365,-338.8 0,-187.8 139.1,-337.6 365,-338.8 h 2686.8 c 225.9,0 365,151 365,338.8 0,187.8 -139,338.8 -365,338.8 z M 3262.4,0 H 573.2 C 289.1,-1.2 97.7,204.5 97.7,449.4 c 0,244.9 190.2,447 476.7,447 h 2688 c 285.3,0 476.7,-202.1 476.7,-447 C 3738,203.3 3546.5,-1.2 3262.4,0 Z m -1.2,787 H 574.4 c -227.1,1.2 -365,-151 -365,-338.8 0,-187.8 139.1,-337.6 365,-338.8 h 2686.8 c 225.9,0 365,151 365,338.8 0,187.8 -139,338.8 -365,338.8 z"
           id="path2"
           style="fill:#e31e26" />
      </g>
    </g>
  </g>
  <g
     id="g15"
     transform="matrix(0.26458333,0,0,0.26458333,0,0.00139)"
     style="fill:#ffffff">
    <path
       class="st0"
       d="m 1429.8,1137.6 c 0,0 0.3,0.2 0,0 19.5,-12.6 32.6,-35 32.6,-60.4 0,-39.4 -31.1,-71.4 -69.7,-71.4 h -15.5 -188.4 v 79.7 137.9 h 72.6 V 1181 c 0,-7.5 6.1,-13.5 13.5,-13.5 h 98.9 c 7.5,0 13.5,6.1 13.5,13.5 v 1.3 41 h 69.3 v -41 c -0.2,-10.6 -4.7,-30.1 -26.8,-44.7 z m -154.6,-24.7 c -7.5,0 -13.5,-6.1 -13.5,-13.5 v -27.7 c 0,-7.5 6.1,-13.5 13.5,-13.5 h 98.9 c 7.5,0 13.5,6.1 13.5,13.5 v 27.7 c 0,7.5 -6.1,13.5 -13.5,13.5 z"
       id="path4"
       style="fill:#ffffff" />
    <path
       class="st0"
       d="m 1977.1,1005.8 h -16.5 -38.6 -26.2 -38.6 -16.5 c -35.7,0 -64.6,28.9 -64.6,64.6 v 17.4 135.6 h 71.2 v -53.6 h 123.2 v 53.6 h 71.2 v -135.6 -17.4 c 0,-35.7 -28.9,-64.6 -64.6,-64.6 z m -129.5,107 v -34.5 c 0,-9.9 8,-17.9 17.9,-17.9 h 30.5 26.2 30.5 c 9.9,0 17.9,8 17.9,17.9 v 34.5 z"
       id="path5"
       style="fill:#ffffff" />
    <rect
       x="2090.2"
       y="1005.8"
       class="st0"
       width="73.699997"
       height="217.60001"
       id="rect5"
       style="fill:#ffffff" />
    <path
       class="st0"
       d="m 2440.6,1005.8 h -231.5 v 217.6 h 70.2 v -145.8 c 0,-8.8 7.2,-16 16,-16 h 120.3 c 8.8,0 16,7.2 16,16 v 44.4 101.4 h 69 v -101.4 -17.5 -26.3 -12.5 c -0.1,-33.1 -26.9,-59.9 -60,-59.9 z"
       id="path6"
       style="fill:#ffffff" />
    <path
       class="st0"
       d="m 2863.4,1005.8 h -316.7 v 217.6 h 64.2 V 1087.3 1077 c 0,-8.5 6.9,-15.4 15.4,-15.4 h 54.9 c 8.5,0 15.4,6.9 15.4,15.4 v 26.5 0 119.9 h 72.5 V 1087.3 1077 c 0,-8.5 6.9,-15.4 15.4,-15.4 h 54.9 c 8.5,0 15.4,6.9 15.4,15.4 v 10.3 136.1 h 3.5 69 v -153.8 c -0.1,-35.3 -28.7,-63.8 -63.9,-63.8 z"
       id="path7"
       style="fill:#ffffff" />
    <path
       class="st0"
       d="m 3485.6,1005.8 h -231.5 v 217.6 h 70.2 v -145.8 c 0,-8.8 7.2,-16 16,-16 h 120.3 c 8.8,0 16,7.2 16,16 v 44.4 101.4 h 69 v -101.4 -17.5 -26.3 -12.5 c -0.1,-33.1 -26.9,-59.9 -60,-59.9 z"
       id="path8"
       style="fill:#ffffff" />
    <path
       class="st0"
       d="M 520.6,1005.8 H 289.1 v 217.6 h 70.2 v -145.8 c 0,-8.8 7.2,-16 16,-16 h 120.3 c 8.8,0 16,7.2 16,16 v 44.4 101.4 h 69 v -101.4 -17.5 -26.3 -12.5 c -0.1,-33.1 -26.9,-59.9 -60,-59.9 z"
       id="path9"
       style="fill:#ffffff" />
    <path
       class="st0"
       d="m 243.7,1061.1 v -55.3 H 64.1 v 0 H 0 v 153.7 c 0,35.4 28.6,64 64,64 h 179.7 v -55.3 H 81.3 c -9.5,0 -17.2,-7.7 -17.2,-17.2 v 0 c 0,-9.5 7.7,-17.2 17.2,-17.2 h 152.9 v -38.4 H 81.3 c -9.5,0 -17.2,-7.7 -17.2,-17.2 v 0 c 0,-9.5 7.7,-17.2 17.2,-17.2 z"
       id="path10"
       style="fill:#ffffff" />
    <path
       class="st0"
       d="m 1147,1061.1 v -55.3 H 967.4 v 0 h -64.1 v 153.7 c 0,35.4 28.6,64 64,64 H 1147 v -55.3 H 984.6 c -9.5,0 -17.2,-7.7 -17.2,-17.2 v 0 c 0,-9.5 7.7,-17.2 17.2,-17.2 h 152.9 v -38.4 H 984.6 c -9.5,0 -17.2,-7.7 -17.2,-17.2 v 0 c 0,-9.5 7.7,-17.2 17.2,-17.2 z"
       id="path11"
       style="fill:#ffffff" />
    <path
       class="st0"
       d="m 3211.2,1061.1 v -55.3 h -179.6 v 0 h -64.1 v 153.7 c 0,35.4 28.6,64 64,64 h 179.7 v -55.3 h -162.4 c -9.5,0 -17.2,-7.7 -17.2,-17.2 v 0 c 0,-9.5 7.7,-17.2 17.2,-17.2 h 152.9 v -38.4 h -152.9 c -9.5,0 -17.2,-7.7 -17.2,-17.2 v 0 c 0,-9.5 7.7,-17.2 17.2,-17.2 z"
       id="path12"
       style="fill:#ffffff" />
    <path
       class="st0"
       d="m 3839,1005.8 h -261.7 v 54.7 h 77 c 8.4,0 15.2,6.8 15.2,15.2 v 147.7 h 77.3 v -147.7 c 0,-8.4 6.8,-15.2 15.2,-15.2 h 77 z"
       id="path13"
       style="fill:#ffffff" />
    <path
       class="st0"
       d="m 1746.9,1005.8 h -261.7 v 54.7 h 77 c 8.4,0 15.2,6.8 15.2,15.2 v 147.7 h 77.3 v -147.7 c 0,-8.4 6.8,-15.2 15.2,-15.2 h 77 z"
       id="path14"
       style="fill:#ffffff" />
    <path
       class="st0"
       d="M 870.5,1005.8 H 608.9 v 54.7 h 77 c 8.4,0 15.2,6.8 15.2,15.2 v 147.7 h 77.3 v -147.7 c 0,-8.4 6.8,-15.2 15.2,-15.2 h 77 v -54.7 z"
       id="path15"
       style="fill:#ffffff" />
  </g>
  <g
     id="g24"
     transform="matrix(0.26458333,0,0,0.26458333,0,0.00139)"
     style="fill:#ffffff">
    <path
       class="st0"
       d="m 1779.9,1397.4 h -102.2 c -11.9,0 -20.2,-4.8 -20.2,-15.6 0,-9.6 7.2,-17.9 16.7,-17.9 H 1849 v -55 h -191.4 c -35.7,0 -65.4,29.9 -65.4,63.3 0,47.8 30.9,65.8 72.5,65.8 h 102.2 c 10.7,0 21.4,4.8 21.4,15.6 0,9.6 -7.2,17.9 -16.7,17.9 H 1592 v 55 h 196.1 c 32.1,0 65.4,-26.3 65.4,-63.3 0.1,-44.3 -35.6,-65.8 -73.6,-65.8 z"
       id="path16"
       style="fill:#ffffff" />
    <path
       class="st0"
       d="m 1195,1397.5 h -99.9 c -11.9,0 -21.4,-4.8 -21.4,-15.6 0,-9.5 9.5,-17.9 17.8,-17.9 h 174.8 v -55 h -191.4 c -38,0 -69,29.9 -69,63.3 0,47.7 33.3,65.7 74.9,65.7 h 99.9 c 11.9,0 21.4,4.8 21.4,15.6 0,9.5 -9.5,17.9 -17.8,17.9 h -177.2 v 55 h 196.1 c 35.7,0 67.7,-26.3 67.7,-63.3 0.2,-44.2 -34.3,-65.7 -75.9,-65.7 z"
       id="path17"
       style="fill:#ffffff" />
    <path
       class="st0"
       d="m 2768.3,1309 h -316.7 v 217.6 h 64.2 v -136.1 -10.3 c 0,-8.5 6.9,-15.4 15.4,-15.4 h 54.9 c 8.5,0 15.4,6.9 15.4,15.4 v 26.5 0 119.9 h 72.5 v -136.1 -10.3 c 0,-8.5 6.9,-15.4 15.4,-15.4 h 54.9 c 8.5,0 15.4,6.9 15.4,15.4 v 10.3 136.1 h 3.5 69 v -153.8 c -0.1,-35.3 -28.7,-63.8 -63.9,-63.8 z"
       id="path18"
       style="fill:#ffffff" />
    <path
       class="st0"
       d="m 1560,1309 h -65.4 -0.4 v 81.2 c 0,9.1 -7.4,16.4 -16.4,16.4 h -97.7 c -9.1,0 -16.4,-7.4 -16.4,-16.4 V 1309 h -1.5 -67.4 v 79.7 11.4 c 0,34.4 27.9,62.3 62.3,62.3 h 32.8 v 64.2 h 76.1 v -64.2 h 33.4 c 34.4,0 62.3,-27.9 62.3,-62.3 V 1309 Z"
       id="path19"
       style="fill:#ffffff" />
    <path
       class="st0"
       d="m 2408.5,1364.2 v -55.3 h -179.6 v 0 h -64.1 v 153.7 c 0,35.4 28.6,64 64,64 h 179.7 v -55.3 h -162.4 c -9.5,0 -17.2,-7.7 -17.2,-17.2 v 0 c 0,-9.5 7.7,-17.2 17.2,-17.2 H 2399 v -38.4 h -152.9 c -9.5,0 -17.2,-7.7 -17.2,-17.2 v 0 c 0,-9.5 7.7,-17.2 17.2,-17.2 z"
       id="path20"
       style="fill:#ffffff" />
    <g
       id="g23"
       style="fill:#ffffff">
      <g
         id="g22"
         style="fill:#ffffff">
        <path
           class="st0"
           d="m 2920.1,1309 v 9.5 h -25 v 66.5 h -10.7 v -66.5 h -25 v -9.5 z"
           id="path21"
           style="fill:#ffffff" />
        <path
           class="st0"
           d="m 2928.4,1309 h 14.3 l 21.4,64.2 21.4,-64.2 h 14.3 v 76.1 h -9.5 V 1340 c 0,-1.2 0,-3.5 0,-7.2 0,-3.6 0,-7.2 0,-11.9 l -21.4,64.2 h -10.7 l -21.4,-64.2 v 2.4 c 0,2.4 0,4.8 0,8.3 0,3.5 0,7.2 0,8.3 v 45.2 h -9.5 z"
           id="path22"
           style="fill:#ffffff" />
      </g>
    </g>
    <path
       class="st0"
       d="m 2137.2,1308.9 h -261.7 v 54.7 h 77 c 8.4,0 15.2,6.8 15.2,15.2 v 147.7 h 77.3 v -147.7 c 0,-8.4 6.8,-15.2 15.2,-15.2 h 77 z"
       id="path23"
       style="fill:#ffffff" />
  </g>
</svg>
