<?xml version="1.0" encoding="UTF-8" standalone="no"?>
<svg
   id="Layer_1"
   data-name="Layer 1"
   viewBox="0 0 3839 1526.60523"
   version="1.1"
   sodipodi:docname="nes-w.svg"
   inkscape:version="1.2 (dc2aedaf03, 2022-05-15)"
   xmlns:inkscape="http://www.inkscape.org/namespaces/inkscape"
   xmlns:sodipodi="http://sodipodi.sourceforge.net/DTD/sodipodi-0.dtd"
   xmlns="http://www.w3.org/2000/svg"
   xmlns:svg="http://www.w3.org/2000/svg">
  <defs
     id="defs51" />
  <sodipodi:namedview
     id="namedview49"
     pagecolor="#505050"
     bordercolor="#ffffff"
     borderopacity="1"
     inkscape:showpageshadow="0"
     inkscape:pageopacity="0"
     inkscape:pagecheckerboard="1"
     inkscape:deskcolor="#505050"
     showgrid="false"
     inkscape:zoom="0.10931261"
     inkscape:cx="1788.4488"
     inkscape:cy="-612.92106"
     inkscape:window-width="1920"
     inkscape:window-height="1017"
     inkscape:window-x="-8"
     inkscape:window-y="-8"
     inkscape:window-maximized="1"
     inkscape:current-layer="Layer_1" />
  <path
     d="M3261.2,787H574.4c-227.1,1.2-365-151-365-338.8s139.1-337.6,365-338.8H3261.2002c225.8999,0,365,151,365,338.8S3487.2,787,3261.2,787Z"
     transform="translate(0 0.00525)"
     style="fill:#fff"
     id="path2" />
  <path
     d="M773,531.4,591.1,236.6H459v422H589.7V363.8l183.1,294.8h130.7v-422H773ZM1807.30005,378V336.3h-69v-57H1611.1001v57h-69V378h69V658.6h127.19995V378ZM976.2,658.6h127.2V378H976.2Zm0-336.4h127.2V235.5H976.2ZM3199.3999,359C3097.2,359,3014,429.2,3014,517.1c0,86.7,83.2,158.1,185.3999,158.1s185.3999-70.2,185.3999-158.1C3384.80005,429.2,3304.1001,359,3199.3999,359Zm51.2002,216.4c0,45.2-26.2,63-52.30005,63-25,0-52.3-19-52.3-63V456.5c0-44,26.2-63,52.3-63,25,0,52.30005,17.8,52.30005,63V575.4ZM2848.7,392.3c-20.2-11.9-41.7-22.5-71.3999-25-91.5-8.3-161.69995,72.5-161.69995,147.4,0,97.5,74.8999,134.4,86.69995,139.1,42.80005,20.2,97.5,20.2,146.2-10.7v16.7h125v-422H2848.6001C2848.7,236.6,2848.7,327,2848.7,392.3Zm0,124.9v49.9c0,42.8-29.7,54.7-49.8999,54.7s-49.8999-11.9-49.8999-54.7V467.3c0-44,29.7-54.7,49.8999-54.7S2848.7,423.3,2848.7,467.3ZM1400.6,365c-41.7,1.2-77.2,19-101,42.8V378.1h-126v280.6h126V474.4c0-25,26.19995-51.2,60.69995-51.2s58.2,27.3,58.2,51.2v184.3h126v-152.2C1544.5,394.7,1448.30005,363.8,1400.6,365Zm1032.00012,0c-41.7,1.2-77.2,19-101,42.8V378.1h-126v280.6H2331.5V474.4c0-25,26.2-51.2,60.7-51.2s58.19995,27.3,58.19995,51.2v184.3h126v-152.2C2575.30005,394.7,2478.8999,363.8,2432.6001,365Zm-267.5,154.6c0-86.7-84.3999-159.3-187.9-159.3-103.4,0-186.6,70.2-186.6,158.1,0,86.7,83.19995,158.1,186.6,158.1,85.6,0,158.1-48.7,180.70008-115.4h-126v16.7c0,51.2-33.3,63-52.3,63s-53.5-11.9-53.5-63V519.6ZM1935.7,420.9c9.5-17.8,28.5-25,45.19995-26.2,16.7,0,34.5,8.3,45.2,26.2,8.3,14.3,8.3,30.9,8.3,54.7h-105.9C1926.2,450.6,1926.2,435.2,1935.7,420.9Zm1501.5-132c0-14.3-10.7-20.2-30.8999-20.2h-28.5v72.5h17.80005V311.5h8.3l14.30005,29.7h19l-15.5-32.1C3431.30005,305.5,3437.2,298.4,3437.2,288.9Zm-33.30005,10.7h-8.3V278.2h7.19995c10.7,0,15.5,3.5,15.5,10.7C3419.30005,297.3,3413.3999,299.6,3403.8999,299.6Zm0-59.5A65.16828,65.16828,0,0,0,3338.5,305.5c0,35.7,29.7,65.4,65.3999,65.4s65.3999-29.7,65.3999-65.4A65.23106,65.23106,0,0,0,3403.8999,240.1Zm0,117.7c-28.5,0-52.3-23.8-52.3-52.3s23.8-52.3,52.3-52.3S3456.2,277,3456.2,305.5C3456.1001,334.1,3433.6001,357.8,3403.8999,357.8ZM3262.3999,0H573.2C289.1-1.2,97.7,204.5,97.7,449.4s190.2,447,476.7,447H3262.3999c285.30005,0,476.7-202.1,476.7-447C3738,203.3,3546.5-1.2,3262.3999,0ZM3261.2,787H574.4c-227.1,1.2-365-151-365-338.8s139.1-337.6,365-338.8H3261.2002c225.8999,0,365,151,365,338.8S3487.2,787,3261.2,787ZM3262.3999,0H573.2C289.1-1.2,97.7,204.5,97.7,449.4s190.2,447,476.7,447H3262.3999c285.30005,0,476.7-202.1,476.7-447C3738,203.3,3546.5-1.2,3262.3999,0ZM3261.2,787H574.4c-227.1,1.2-365-151-365-338.8s139.1-337.6,365-338.8H3261.2002c225.8999,0,365,151,365,338.8S3487.2,787,3261.2,787ZM3262.3999,0H573.2C289.1-1.2,97.7,204.5,97.7,449.4s190.2,447,476.7,447H3262.3999c285.30005,0,476.7-202.1,476.7-447C3738,203.3,3546.5-1.2,3262.3999,0ZM3261.2,787H574.4c-227.1,1.2-365-151-365-338.8s139.1-337.6,365-338.8H3261.2002c225.8999,0,365,151,365,338.8S3487.2,787,3261.2,787Z"
     transform="translate(0 0.00525)"
     style="fill:#e31e26"
     id="path4" />
  <path
     d="M1429.80005,1137.6h0a71.89912,71.89912,0,0,0,32.6-60.4c0-39.4-31.1-71.4-69.69995-71.4h-203.9v217.6h72.6V1181a13.50741,13.50741,0,0,1,13.5-13.5h98.9a13.50741,13.50741,0,0,1,13.5,13.5v42.30005h69.30005v-41C1456.4,1171.7,1451.9,1152.2,1429.80005,1137.6ZM1275.2,1112.9a13.50741,13.50741,0,0,1-13.5-13.5v-27.69995a13.50741,13.50741,0,0,1,13.5-13.5h98.9a13.50741,13.50741,0,0,1,13.5,13.5V1099.4a13.50741,13.50741,0,0,1-13.5,13.5Z"
     transform="translate(0 0.00525)"
     style="fill:#fff"
     id="path6" />
  <path
     d="M1977.1,1005.8H1840.70007a64.57132,64.57132,0,0,0-64.6,64.6v153h71.19995v-53.6H1970.5v53.6H2041.7v-153A64.57125,64.57125,0,0,0,1977.1,1005.8Zm-129.5,107.00006v-34.5a17.882,17.882,0,0,1,17.9-17.9H1952.7a17.882,17.882,0,0,1,17.9,17.9v34.5Z"
     transform="translate(0 0.00525)"
     style="fill:#fff"
     id="path8" />
  <rect
     x="2090.19995"
     y="1005.80524"
     width="73.69995"
     height="217.60004"
     style="fill:#fff"
     id="rect10" />
  <path
     d="M2440.6001,1005.8h-231.5v217.6h70.19995V1077.6a16.047,16.047,0,0,1,16-16H2415.6001a16.047,16.047,0,0,1,16,16v145.8h69V1065.7A60.02645,60.02645,0,0,0,2440.6001,1005.8Z"
     transform="translate(0 0.00525)"
     style="fill:#fff"
     id="path12" />
  <path
     d="M2863.3999,1005.8H2546.7v217.6h64.19995V1077a15.40658,15.40658,0,0,1,15.3999-15.4h54.89991a15.40658,15.40658,0,0,1,15.3999,15.4v26.5h0v119.9h72.5V1077a15.40658,15.40658,0,0,1,15.3999-15.4h54.8999a15.40658,15.40658,0,0,1,15.39991,15.4v146.4h72.5V1069.6A63.93025,63.93025,0,0,0,2863.3999,1005.8Z"
     transform="translate(0 0.00525)"
     style="fill:#fff"
     id="path14" />
  <path
     d="M3485.6001,1005.8h-231.5v217.6h70.19995V1077.6a16.047,16.047,0,0,1,16-16H3460.6001a16.047,16.047,0,0,1,16,16v145.8h69V1065.7A60.02645,60.02645,0,0,0,3485.6001,1005.8Z"
     transform="translate(0 0.00525)"
     style="fill:#fff"
     id="path16" />
  <path
     d="M520.6,1005.8H289.1v217.6h70.2V1077.6a16.047,16.047,0,0,1,16-16H495.6a16.047,16.047,0,0,1,16,16v145.8h69V1065.7A60.02625,60.02625,0,0,0,520.6,1005.8Z"
     transform="translate(0 0.00525)"
     style="fill:#fff"
     id="path18" />
  <path
     d="M243.7,1061.1v-55.3H0v153.7a63.93126,63.93126,0,0,0,64,64H243.7V1168.2H81.3A17.199,17.199,0,0,1,64.1,1151h0a17.199,17.199,0,0,1,17.2-17.19995H234.2v-38.4H81.3a17.199,17.199,0,0,1-17.2-17.19995h0a17.199,17.199,0,0,1,17.2-17.2Z"
     transform="translate(0 0.00525)"
     style="fill:#fff"
     id="path20" />
  <path
     d="M1147,1061.1v-55.3H903.30005v153.7a63.93124,63.93124,0,0,0,64,64H1147V1168.2H984.6A17.19908,17.19908,0,0,1,967.4,1151h0a17.19908,17.19908,0,0,1,17.2-17.19995h152.9v-38.4H984.6a17.19908,17.19908,0,0,1-17.2-17.19995h0a17.19908,17.19908,0,0,1,17.2-17.2Z"
     transform="translate(0 0.00525)"
     style="fill:#fff"
     id="path22" />
  <path
     d="M3211.2,1061.1v-55.3H2967.49976v153.7a63.93132,63.93132,0,0,0,64,64h179.69995V1168.2H3048.7998A17.199,17.199,0,0,1,3031.59985,1151h0a17.199,17.199,0,0,1,17.19995-17.19995h152.89991v-38.4H3048.7998a17.199,17.199,0,0,1-17.19995-17.19995h0a17.199,17.199,0,0,1,17.19995-17.2L3211.2,1061.1Z"
     transform="translate(0 0.00525)"
     style="fill:#fff"
     id="path24" />
  <path
     d="M3839,1005.8h-261.7v54.7h77A15.1933,15.1933,0,0,1,3669.5,1075.7V1223.3999h77.3V1075.7A15.19322,15.19322,0,0,1,3762,1060.5h77Z"
     transform="translate(0 0.00525)"
     style="fill:#fff"
     id="path26" />
  <path
     d="M1746.9,1005.8H1485.2v54.7h77A15.19321,15.19321,0,0,1,1577.3999,1075.7V1223.3999H1654.7V1075.7A15.19322,15.19322,0,0,1,1669.8999,1060.5h77l.00012-54.7Z"
     transform="translate(0 0.00525)"
     style="fill:#fff"
     id="path28" />
  <path
     d="M870.5,1005.8H608.9v54.7h77A15.19327,15.19327,0,0,1,701.1,1075.7V1223.3999h77.3V1075.7A15.1932,15.1932,0,0,1,793.6,1060.5h77v-54.7Z"
     transform="translate(0 0.00525)"
     style="fill:#fff"
     id="path30" />
  <path
     d="M1779.9,1397.4H1677.70007c-11.9,0-20.2-4.8-20.2-15.6,0-9.6,7.2-17.9,16.7-17.9H1849v-55H1657.6c-35.7,0-65.4,29.9-65.4,63.30005,0,47.8,30.9,65.8,72.5,65.8H1766.8999c10.7,0,21.4,4.80005,21.4,15.6,0,9.6-7.19995,17.9-16.69995,17.9H1592v55h196.1c32.1,0,65.4-26.3,65.4-63.3C1853.6,1418.9,1817.9,1397.4,1779.9,1397.4Z"
     transform="translate(0 0.00525)"
     style="fill:#fff"
     id="path32" />
  <path
     d="M1195,1397.5h-99.9c-11.9,0-21.4-4.80005-21.4-15.6,0-9.5,9.5-17.9,17.80005-17.9h174.80005v-55H1074.9c-38,0-69,29.9-69,63.30005,0,47.69995,33.30005,65.69995,74.9,65.69995h99.9c11.9,0,21.4,4.80005,21.4,15.6,0,9.5-9.5,17.9-17.80005,17.9H1007.1v55h196.1C1238.9,1526.5,1270.9,1500.2,1270.9,1463.2,1271.1,1419,1236.6,1397.5,1195,1397.5Z"
     transform="translate(0 0.00525)"
     style="fill:#fff"
     id="path34" />
  <path
     d="M2768.30005,1309H2451.6001v217.6h64.19995V1380.2a15.40658,15.40658,0,0,1,15.3999-15.4h54.8999a15.40658,15.40658,0,0,1,15.39991,15.4v26.5h0v119.9h72.5V1380.2a15.40658,15.40658,0,0,1,15.3999-15.4h54.8999a15.40658,15.40658,0,0,1,15.3999,15.4v146.4h72.5V1372.79993A63.93035,63.93035,0,0,0,2768.30005,1309Z"
     transform="translate(0 0.00525)"
     style="fill:#fff"
     id="path36" />
  <path
     d="M1560,1309H1494.2V1390.2a16.40958,16.40958,0,0,1-16.4,16.4H1380.1a16.40959,16.40959,0,0,1-16.4-16.4V1309h-68.9v91.1A62.30944,62.30944,0,0,0,1357.1,1462.4h32.8v64.2H1466v-64.2h33.4a62.30944,62.30944,0,0,0,62.30005-62.3V1309Z"
     transform="translate(0 0.00525)"
     style="fill:#fff"
     id="path38" />
  <path
     d="M2408.5,1364.2V1308.8999H2164.7998v153.7a63.93132,63.93132,0,0,0,64,64h179.7V1471.2998H2246.09985a17.199,17.199,0,0,1-17.2-17.19995h0a17.199,17.199,0,0,1,17.2-17.2H2399v-38.4H2246.1001a17.199,17.199,0,0,1-17.2-17.2h0a17.199,17.199,0,0,1,17.2-17.19995l162.3999.1Z"
     transform="translate(0 0.00525)"
     style="fill:#fff"
     id="path40" />
  <path
     d="M2920.1001,1309v9.5h-25V1385h-10.7v-66.5h-25V1309Z"
     transform="translate(0 0.00525)"
     style="fill:#fff"
     id="path42" />
  <path
     d="M2928.3999,1309H2942.7l21.3999,64.19995L2985.49976,1309h14.3v76.1h-9.5v-64.2l-21.3999,64.2H2958.2l-21.3999-64.2v64.20008h-9.5L2928.3999,1309Z"
     transform="translate(0 0.00525)"
     style="fill:#fff"
     id="path44" />
  <path
     d="M2137.2,1308.9H1875.5v54.7h77A15.19321,15.19321,0,0,1,1967.7,1378.79993v147.7H2045v-147.7A15.19321,15.19321,0,0,1,2060.2,1363.6h77Z"
     transform="translate(0 0.00525)"
     style="fill:#fff"
     id="path46" />
</svg>
