<?xml version="1.0" encoding="UTF-8" standalone="no"?>
<!-- Generator: Adobe Illustrator 13.0.0, SVG Export Plug-In . SVG Version: 6.00 Build 14948)  -->

<svg
   xmlns:osb="http://www.openswatchbook.org/uri/2009/osb"
   xmlns:dc="http://purl.org/dc/elements/1.1/"
   xmlns:cc="http://creativecommons.org/ns#"
   xmlns:rdf="http://www.w3.org/1999/02/22-rdf-syntax-ns#"
   xmlns:svg="http://www.w3.org/2000/svg"
   xmlns="http://www.w3.org/2000/svg"
   xmlns:xlink="http://www.w3.org/1999/xlink"
   xmlns:sodipodi="http://sodipodi.sourceforge.net/DTD/sodipodi-0.dtd"
   xmlns:inkscape="http://www.inkscape.org/namespaces/inkscape"
   version="1.1"
   id="Ebene_1"
   x="0px"
   y="0px"
   width="341.155px"
   height="127.229px"
   viewBox="-0.501 0 341.155 127.229"
   enable-background="new -0.501 0 341.155 127.229"
   xml:space="preserve"
   sodipodi:docname="nes.svg"
   inkscape:version="0.92.4 (5da689c313, 2019-01-14)"><metadata
   id="metadata128"><rdf:RDF><cc:Work
       rdf:about=""><dc:format>image/svg+xml</dc:format><dc:type
         rdf:resource="http://purl.org/dc/dcmitype/StillImage" /></cc:Work></rdf:RDF></metadata><defs
   id="defs126"><linearGradient
     inkscape:collect="always"
     id="linearGradient1043"><stop
       style="stop-color:#000000;stop-opacity:1;"
       offset="0"
       id="stop1039" /><stop
       style="stop-color:#000000;stop-opacity:0;"
       offset="1"
       id="stop1041" /></linearGradient><linearGradient
     id="linearGradient999"
     osb:paint="solid"><stop
       style="stop-color:#000000;stop-opacity:1;"
       offset="0"
       id="stop997" /></linearGradient><linearGradient
     id="linearGradient993"
     osb:paint="solid"><stop
       style="stop-color:#070308;stop-opacity:1;"
       offset="0"
       id="stop991" /></linearGradient><linearGradient
     id="linearGradient943"
     osb:paint="solid"><stop
       style="stop-color:#070308;stop-opacity:1;"
       offset="0"
       id="stop941" /></linearGradient><linearGradient
     inkscape:collect="always"
     xlink:href="#linearGradient999"
     id="linearGradient1001"
     x1="113.911"
     y1="116.343"
     x2="138.868"
     y2="116.343"
     gradientUnits="userSpaceOnUse" /><linearGradient
     inkscape:collect="always"
     xlink:href="#linearGradient999"
     id="linearGradient1003"
     x1="140.515"
     y1="116.341"
     x2="164.744"
     y2="116.341"
     gradientUnits="userSpaceOnUse" /><linearGradient
     inkscape:collect="always"
     xlink:href="#linearGradient999"
     id="linearGradient1005"
     x1="88.731"
     y1="116.341"
     x2="112.955"
     y2="116.341"
     gradientUnits="userSpaceOnUse" /><linearGradient
     inkscape:collect="always"
     xlink:href="#linearGradient999"
     id="linearGradient1007"
     x1="166.516"
     y1="116.2385"
     x2="189.761"
     y2="116.2385"
     gradientUnits="userSpaceOnUse" /><linearGradient
     inkscape:collect="always"
     xlink:href="#linearGradient999"
     id="linearGradient1009"
     x1="191.466"
     y1="116.12"
     x2="213.98"
     y2="116.12"
     gradientUnits="userSpaceOnUse" /><linearGradient
     inkscape:collect="always"
     xlink:href="#linearGradient999"
     id="linearGradient1011"
     x1="217.355"
     y1="116.5945"
     x2="251.36"
     y2="116.5945"
     gradientUnits="userSpaceOnUse" /><linearGradient
     inkscape:collect="always"
     xlink:href="#linearGradient999"
     id="linearGradient1013"
     x1="185.294"
     y1="89.45"
     x2="192.406"
     y2="89.45"
     gradientUnits="userSpaceOnUse" /><linearGradient
     inkscape:collect="always"
     xlink:href="#linearGradient999"
     id="linearGradient1015"
     x1="156.694"
     y1="89.453"
     x2="181.891"
     y2="89.453"
     gradientUnits="userSpaceOnUse" /><linearGradient
     inkscape:collect="always"
     xlink:href="#linearGradient999"
     id="linearGradient1017"
     x1="104.866"
     y1="89.4535"
     x2="130.069"
     y2="89.4535"
     gradientUnits="userSpaceOnUse" /><linearGradient
     inkscape:collect="always"
     xlink:href="#linearGradient999"
     id="linearGradient1019"
     x1="317.409"
     y1="89.4525"
     x2="340.653"
     y2="89.4525"
     gradientUnits="userSpaceOnUse" /><linearGradient
     inkscape:collect="always"
     xlink:href="#linearGradient999"
     id="linearGradient1021"
     x1="131.695"
     y1="89.4515"
     x2="154.941"
     y2="89.4515"
     gradientUnits="userSpaceOnUse" /><linearGradient
     inkscape:collect="always"
     xlink:href="#linearGradient999"
     id="linearGradient1023"
     x1="54.017"
     y1="89.4515"
     x2="77.263"
     y2="89.4515"
     gradientUnits="userSpaceOnUse" /><linearGradient
     inkscape:collect="always"
     xlink:href="#linearGradient999"
     id="linearGradient1025"
     x1="262.889"
     y1="89.3325"
     x2="285.406"
     y2="89.3325"
     gradientUnits="userSpaceOnUse" /><linearGradient
     inkscape:collect="always"
     xlink:href="#linearGradient999"
     id="linearGradient1027"
     x1="78.964"
     y1="89.5765"
     x2="101.478"
     y2="89.5765"
     gradientUnits="userSpaceOnUse" /><linearGradient
     inkscape:collect="always"
     xlink:href="#linearGradient999"
     id="linearGradient1029"
     x1="-0.502"
     y1="89.3315"
     x2="22.015"
     y2="89.3315"
     gradientUnits="userSpaceOnUse" /><linearGradient
     inkscape:collect="always"
     xlink:href="#linearGradient999"
     id="linearGradient1031"
     x1="225.387"
     y1="89.4515"
     x2="259.393"
     y2="89.4515"
     gradientUnits="userSpaceOnUse" /><linearGradient
     inkscape:collect="always"
     xlink:href="#linearGradient999"
     id="linearGradient1033"
     x1="287.912"
     y1="89.451"
     x2="314.827"
     y2="89.451"
     gradientUnits="userSpaceOnUse" /><linearGradient
     inkscape:collect="always"
     xlink:href="#linearGradient999"
     id="linearGradient1035"
     x1="195.056"
     y1="89.45"
     x2="221.969"
     y2="89.45"
     gradientUnits="userSpaceOnUse" /><linearGradient
     inkscape:collect="always"
     xlink:href="#linearGradient999"
     id="linearGradient1037"
     x1="25.414"
     y1="89.4495"
     x2="52.327"
     y2="89.4495"
     gradientUnits="userSpaceOnUse" /><linearGradient
     inkscape:collect="always"
     xlink:href="#linearGradient1043"
     id="linearGradient1045"
     x1="113.911"
     y1="116.343"
     x2="138.868"
     y2="116.343"
     gradientUnits="userSpaceOnUse" /><linearGradient
     inkscape:collect="always"
     xlink:href="#linearGradient1043"
     id="linearGradient1047"
     x1="140.515"
     y1="116.341"
     x2="164.744"
     y2="116.341"
     gradientUnits="userSpaceOnUse" /><linearGradient
     inkscape:collect="always"
     xlink:href="#linearGradient1043"
     id="linearGradient1049"
     x1="88.731"
     y1="116.341"
     x2="112.955"
     y2="116.341"
     gradientUnits="userSpaceOnUse" /><linearGradient
     inkscape:collect="always"
     xlink:href="#linearGradient1043"
     id="linearGradient1051"
     x1="166.516"
     y1="116.2385"
     x2="189.761"
     y2="116.2385"
     gradientUnits="userSpaceOnUse" /><linearGradient
     inkscape:collect="always"
     xlink:href="#linearGradient1043"
     id="linearGradient1053"
     x1="191.466"
     y1="116.12"
     x2="213.98"
     y2="116.12"
     gradientUnits="userSpaceOnUse" /><linearGradient
     inkscape:collect="always"
     xlink:href="#linearGradient1043"
     id="linearGradient1055"
     x1="217.355"
     y1="116.5945"
     x2="251.36"
     y2="116.5945"
     gradientUnits="userSpaceOnUse" /><linearGradient
     inkscape:collect="always"
     xlink:href="#linearGradient1043"
     id="linearGradient1057"
     x1="185.294"
     y1="89.45"
     x2="192.406"
     y2="89.45"
     gradientUnits="userSpaceOnUse" /><linearGradient
     inkscape:collect="always"
     xlink:href="#linearGradient1043"
     id="linearGradient1059"
     x1="156.694"
     y1="89.453"
     x2="181.891"
     y2="89.453"
     gradientUnits="userSpaceOnUse" /><linearGradient
     inkscape:collect="always"
     xlink:href="#linearGradient1043"
     id="linearGradient1061"
     x1="104.866"
     y1="89.4535"
     x2="130.069"
     y2="89.4535"
     gradientUnits="userSpaceOnUse" /><linearGradient
     inkscape:collect="always"
     xlink:href="#linearGradient1043"
     id="linearGradient1063"
     x1="317.409"
     y1="89.4525"
     x2="340.653"
     y2="89.4525"
     gradientUnits="userSpaceOnUse" /><linearGradient
     inkscape:collect="always"
     xlink:href="#linearGradient1043"
     id="linearGradient1065"
     x1="131.695"
     y1="89.4515"
     x2="154.941"
     y2="89.4515"
     gradientUnits="userSpaceOnUse" /><linearGradient
     inkscape:collect="always"
     xlink:href="#linearGradient1043"
     id="linearGradient1067"
     x1="54.017"
     y1="89.4515"
     x2="77.263"
     y2="89.4515"
     gradientUnits="userSpaceOnUse" /><linearGradient
     inkscape:collect="always"
     xlink:href="#linearGradient1043"
     id="linearGradient1069"
     x1="262.889"
     y1="89.3325"
     x2="285.406"
     y2="89.3325"
     gradientUnits="userSpaceOnUse" /><linearGradient
     inkscape:collect="always"
     xlink:href="#linearGradient1043"
     id="linearGradient1071"
     x1="78.964"
     y1="89.5765"
     x2="101.478"
     y2="89.5765"
     gradientUnits="userSpaceOnUse" /><linearGradient
     inkscape:collect="always"
     xlink:href="#linearGradient1043"
     id="linearGradient1073"
     x1="-0.502"
     y1="89.3315"
     x2="22.015"
     y2="89.3315"
     gradientUnits="userSpaceOnUse" /><linearGradient
     inkscape:collect="always"
     xlink:href="#linearGradient1043"
     id="linearGradient1075"
     x1="225.387"
     y1="89.4515"
     x2="259.393"
     y2="89.4515"
     gradientUnits="userSpaceOnUse" /><linearGradient
     inkscape:collect="always"
     xlink:href="#linearGradient1043"
     id="linearGradient1077"
     x1="287.912"
     y1="89.451"
     x2="314.827"
     y2="89.451"
     gradientUnits="userSpaceOnUse" /><linearGradient
     inkscape:collect="always"
     xlink:href="#linearGradient1043"
     id="linearGradient1079"
     x1="195.056"
     y1="89.45"
     x2="221.969"
     y2="89.45"
     gradientUnits="userSpaceOnUse" /><linearGradient
     inkscape:collect="always"
     xlink:href="#linearGradient1043"
     id="linearGradient1081"
     x1="25.414"
     y1="89.4495"
     x2="52.327"
     y2="89.4495"
     gradientUnits="userSpaceOnUse" /></defs><sodipodi:namedview
   pagecolor="#ffffff"
   bordercolor="#666666"
   borderopacity="1"
   objecttolerance="10"
   gridtolerance="10"
   guidetolerance="10"
   inkscape:pageopacity="0"
   inkscape:pageshadow="2"
   inkscape:window-width="640"
   inkscape:window-height="480"
   id="namedview124"
   showgrid="false"
   inkscape:zoom="1.4798969"
   inkscape:cx="44.040075"
   inkscape:cy="-89.732446"
   inkscape:current-layer="g95" />
<path
   d="M 270.51191,75.075771 H 74.461926 c -17.698881,0 -32.100921,-13.651078 -32.100921,-30.430077 0,-16.778999 14.402951,-30.428348 32.100921,-30.428348 H 270.51009 c 17.70162,0 32.10183,13.650213 32.10183,30.429212 -9.1e-4,16.778135 -14.3993,30.429213 -32.10001,30.429213 z M 74.461926,21.415626 c -13.512676,0 -24.507615,10.421224 -24.507615,23.23266 0,12.808845 10.994028,23.231796 24.507615,23.231796 H 270.51009 c 13.51085,0 24.50853,-10.422088 24.50853,-23.231796 0,-12.810572 -10.99585,-23.23266 -24.50853,-23.23266 z"
   id="path2"
   inkscape:connector-curvature="0"
   style="fill:#ff0000;stroke-width:0.88721412" />
<path
   d="M 99.64112,58.758056 V 30.670682 H 90.73017 V 50.309816 L 77.587456,30.670682 h -9.578883 v 28.087374 h 8.910949 V 38.484872 L 90.72926,58.758056 Z"
   id="path4"
   inkscape:connector-curvature="0"
   style="fill:#ff0000;stroke-width:0.88721412" />
<path
   d="M 114.12153,58.758056 V 39.752108 h -8.91004 v 19.005948 z"
   id="path6"
   inkscape:connector-curvature="0"
   style="fill:#ff0000;stroke-width:0.88721412" />
<path
   d="m 114.12153,35.738762 v -5.06808 h -8.91004 v 5.06808 z"
   id="path8"
   inkscape:connector-curvature="0"
   style="fill:#ff0000;stroke-width:0.88721412" />
<path
   id="_x33_162"
   d="M 145.30848,58.758056 V 45.663284 c 0,-2.745246 -5.56946,-6.54609 -8.46444,-6.54609 h -2.67447 c -2.00381,0 -4.23268,1.689648 -6.23739,2.534472 v -1.899558 h -8.91095 v 19.005948 h 8.91095 V 45.663284 c 0,-1.267236 3.11824,-2.745246 4.45593,-2.745246 1.33677,0 3.78617,1.47801 3.78617,2.745246 v 13.093908 z"
   inkscape:connector-curvature="0"
   style="fill:#ff0000;stroke-width:0.88721412" />
<path
   id="_x33_162_1_"
   d="M 219.86558,59.411974 V 46.31893 c 0,-2.74611 -5.56673,-6.546091 -8.46809,-6.546091 h -2.67174 c -2.00562,0 -4.23359,1.689648 -6.24012,2.533609 v -1.899559 h -8.90913 v 19.005949 h 8.90913 V 46.31893 c 0,-1.266373 3.12006,-2.74611 4.45684,-2.74611 1.33678,0 3.78526,1.479737 3.78526,2.74611 v 13.093044 z"
   inkscape:connector-curvature="0"
   style="fill:#ff0000;stroke-width:0.88721412" />
<path
   d="M 159.78889,58.758056 V 39.752108 h 4.67827 v -2.534472 h -4.67827 v -4.012482 h -9.13147 v 4.012482 h -4.67918 v 2.534472 h 4.67918 v 19.005948 z"
   id="path12"
   inkscape:connector-curvature="0"
   style="fill:#ff0000;stroke-width:0.88721412" />
<path
   d="m 176.94103,39.118058 c -7.12767,0 -13.14181,4.645668 -13.14181,10.347798 0,5.913768 6.01414,10.558572 13.14181,10.558572 6.2383,0 11.36216,-3.378432 12.69894,-7.813326 h -9.13146 v 2.534472 c 0,2.11206 -1.5573,2.746973 -3.56293,2.746973 -2.00471,0 -3.3424,-0.634049 -3.3424,-2.746973 V 49.46672 h 16.48694 c -0.004,-5.70213 -5.79544,-10.348662 -13.14909,-10.348662 z m 0,1.900422 c 2.00562,0 3.56474,1.267236 3.56474,3.379296 v 1.899558 h -6.90532 v -1.899558 c 0,-2.11206 1.33678,-3.379296 3.34058,-3.379296 z"
   id="path14"
   inkscape:connector-curvature="0"
   style="fill:#ff0000;stroke-width:0.88721412" />
<path
   d="m 264.71647,39.118058 c -7.35274,0 -13.14545,4.645668 -13.14545,10.347798 0,5.913768 5.78998,10.558572 13.14545,10.558572 7.12402,0 13.1418,-4.644804 13.1418,-10.558572 -0.004,-5.701266 -6.01687,-10.347798 -13.1418,-10.347798 z m 0,1.900422 c 2.00016,0 3.34058,1.267236 3.34058,3.379296 V 54.74471 c 0,2.111196 -1.34042,2.74611 -3.34058,2.74611 -2.22705,0 -3.56657,-0.63405 -3.56657,-2.74611 V 44.397776 c -0.002,-2.11206 1.33678,-3.379296 3.56657,-3.379296 z"
   id="path16"
   inkscape:connector-curvature="0"
   style="fill:#ff0000;stroke-width:0.88721412" />
<path
   d="M 239.09533,30.670682 V 41.01848 c 0,0 -2.67538,-1.900422 -6.24013,-1.900422 -5.56854,0 -10.2459,4.645668 -10.2459,9.714612 0,5.279718 4.67918,10.559436 10.2459,10.559436 3.56475,0 6.24013,-1.267236 6.24013,-1.267236 v 0.632322 h 8.91095 v -28.08651 z m -3.3424,11.615034 c 2.0038,0 3.3424,1.478874 3.3424,3.379296 v 7.813326 c 0,1.901286 -1.3386,2.534472 -3.3424,2.534472 -2.22615,0 -3.56475,-0.632322 -3.56475,-2.534472 v -7.813326 c 0,-1.900422 1.3386,-3.379296 3.56475,-3.379296 z"
   id="path18"
   inkscape:connector-curvature="0"
   style="fill:#ff0000;stroke-width:0.88721412" />
<g
   id="g22"
   transform="matrix(0.91123314,0,0,0.86382821,17.440601,14.217346)">
	<path
   d="m 287.006,29.216 c -2.774,0 -5.036,-2.258 -5.036,-5.035 0,-2.959 2.213,-5.28 5.036,-5.28 2.729,0 5.036,2.417 5.036,5.28 0,2.681 -2.35,5.035 -5.036,5.035 z m 0,-9.533 c -2.427,0 -4.253,1.934 -4.253,4.5 0,2.344 1.908,4.254 4.253,4.254 2.229,0 4.254,-2.028 4.254,-4.254 0,-2.399 -1.984,-4.5 -4.254,-4.5 z m 0.884,6.647 -0.863,-1.515 h -1.096 v 1.321 h -0.779 V 21.59 h 2.104 c 0.979,0 1.488,0.813 1.488,1.613 0,0.615 -0.303,1.238 -0.885,1.492 l 0.711,1.248 z m -1.959,-2.294 h 1.321 c 0.22,0 0.396,-0.079 0.521,-0.235 0.119,-0.149 0.188,-0.368 0.188,-0.597 0,-0.311 -0.151,-0.832 -0.709,-0.832 h -1.321 z"
   id="path20"
   inkscape:connector-curvature="0"
   style="fill:#ff0000" />
</g>
<g
   id="g27"
   style="fill:#000000;fill-opacity:1;stroke:none;stroke-opacity:1"
   transform="matrix(0.85649224,0,0,0.73535221,28.324524,24.350661)">
	<path
   id="_x32_399_1_"
   d="m 51.827,99.231 v -14.18 c 0,-2.688 -2.689,-5.379 -5.378,-5.379 H 25.914 v 19.56 h 6.357 v -13.2 c 0,-0.979 0.732,-1.957 1.711,-1.957 h 9.777 c 0.979,0 1.957,0.979 1.957,1.957 v 13.199 z"
   inkscape:connector-curvature="0"
   style="fill:#000000;fill-opacity:1;stroke:none;stroke-opacity:1" />
	
</g>
<g
   id="g32"
   style="fill:#000000;fill-opacity:1;stroke:none;stroke-opacity:1"
   transform="matrix(0.85649224,0,0,0.73535221,28.324524,24.350661)">
	<path
   id="_x32_399_2_"
   d="m 221.469,99.231 v -14.18 c 0,-2.688 -2.688,-5.379 -5.376,-5.379 h -20.535 v 19.56 h 6.354 v -13.2 c 0,-0.979 0.736,-1.957 1.713,-1.957 h 9.779 c 0.979,0 1.953,0.979 1.953,1.957 v 13.199 z"
   inkscape:connector-curvature="0"
   style="fill:#000000;fill-opacity:1;stroke:none;stroke-opacity:1" />
	
</g>
<g
   id="g37"
   style="fill:#000000;fill-opacity:1;stroke:none;stroke-opacity:1"
   transform="matrix(0.85649224,0,0,0.73535221,28.324524,24.350661)">
	<path
   id="_x32_399_3_"
   d="m 314.327,99.231 v -14.18 c 0,-2.688 -2.688,-5.379 -5.379,-5.379 h -20.535 v 19.56 h 6.354 v -13.2 c 0,-0.979 0.732,-1.957 1.715,-1.957 h 9.775 c 0.979,0 1.955,0.979 1.955,1.957 v 13.199 z"
   inkscape:connector-curvature="0"
   style="fill:#000000;fill-opacity:1;stroke:none;stroke-opacity:1" />
	
</g>
<g
   id="g42"
   style="fill:#000000;fill-opacity:1;stroke:none;stroke-opacity:1"
   transform="matrix(0.85649224,0,0,0.73535221,28.324524,24.350661)">
	<path
   id="_x33_177_1_"
   d="m 258.892,99.231 v -14.18 c 0,-2.688 -2.688,-5.379 -5.379,-5.379 h -27.625 v 19.56 h 6.357 v -13.2 c 0,-0.979 0.73,-1.957 1.709,-1.957 h 3.668 c 0.734,0 1.712,0.979 1.712,1.957 v 13.199 h 6.358 V 86.032 c 0,-0.979 0.73,-1.957 1.709,-1.957 h 3.668 c 0.732,0 1.711,0.979 1.711,1.957 v 13.199 z"
   inkscape:connector-curvature="0"
   style="fill:#000000;fill-opacity:1;stroke:none;stroke-opacity:1" />
	
</g>
<g
   id="g47"
   style="fill:#000000;fill-opacity:1;stroke:none;stroke-opacity:1"
   transform="matrix(0.85649224,0,0,0.73535221,28.324524,24.350661)">
	<path
   id="_x33_181_1_"
   d="M 21.514,99.231 H 5.379 C 2.691,99.231 0,97.521 0,94.833 v -15.4 h 21.513 v 4.646 H 7.089 c -0.732,0 -1.711,0.733 -1.711,1.712 0,0.979 0.979,1.712 1.711,1.712 h 13.446 v 3.911 H 7.089 c -0.732,0 -1.711,0.979 -1.711,1.712 0,0.979 0.979,1.955 1.711,1.955 h 14.424 z"
   inkscape:connector-curvature="0"
   style="fill:#000000;fill-opacity:1;stroke:none;stroke-opacity:1" />
	
</g>
<g
   id="g52"
   style="fill:#000000;fill-opacity:1;stroke:none;stroke-opacity:1"
   transform="matrix(0.85649224,0,0,0.73535221,28.324524,24.350661)">
	<path
   id="_x33_181_2_"
   d="M 100.979,99.478 H 84.843 c -2.688,0 -5.379,-1.711 -5.379,-4.397 V 79.677 h 21.515 v 4.645 H 86.553 c -0.731,0 -1.71,0.734 -1.71,1.715 0,0.981 0.979,1.711 1.71,1.711 h 13.446 v 3.91 H 86.553 c -0.731,0 -1.71,0.979 -1.71,1.714 0,0.979 0.979,1.954 1.71,1.954 h 14.426 z"
   inkscape:connector-curvature="0"
   style="fill:#000000;fill-opacity:1;stroke:none;stroke-opacity:1" />
	
</g>
<g
   id="g57"
   style="fill:#000000;fill-opacity:1;stroke:none;stroke-opacity:1"
   transform="matrix(0.85649224,0,0,0.73535221,28.324524,24.350661)">
	<path
   id="_x33_181_3_"
   d="M 284.907,99.231 H 268.77 c -2.688,0 -5.381,-1.711 -5.381,-4.398 v -15.4 h 21.516 v 4.646 h -14.424 c -0.732,0 -1.715,0.733 -1.715,1.712 0,0.979 0.979,1.712 1.715,1.712 h 13.442 v 3.911 h -13.442 c -0.732,0 -1.715,0.979 -1.715,1.712 0,0.979 0.979,1.955 1.715,1.955 h 14.424 v 4.153 h 0.002 z"
   inkscape:connector-curvature="0"
   style="fill:#000000;fill-opacity:1;stroke:none;stroke-opacity:1" />
	
</g>
<g
   id="g62"
   style="fill:#000000;fill-opacity:1;stroke:none;stroke-opacity:1"
   transform="matrix(0.85649224,0,0,0.73535221,28.324524,24.350661)">
	<path
   id="_x32_391_1_"
   d="m 54.517,79.675 v 4.4 h 6.355 c 1.712,0 1.712,0 1.712,1.957 v 13.199 h 6.111 V 86.032 c 0,-1.957 0,-1.957 1.956,-1.957 h 6.111 v -4.4 z"
   inkscape:connector-curvature="0"
   style="fill:#000000;fill-opacity:1;stroke:none;stroke-opacity:1" />
	
</g>
<g
   id="g67"
   style="fill:#000000;fill-opacity:1;stroke:none;stroke-opacity:1"
   transform="matrix(0.85649224,0,0,0.73535221,28.324524,24.350661)">
	<path
   id="_x32_391_2_"
   d="m 132.197,79.675 v 4.4 h 6.355 c 1.71,0 1.71,0 1.71,1.957 v 13.199 h 6.112 V 86.032 c 0,-1.957 0,-1.957 1.957,-1.957 h 6.112 v -4.4 z"
   inkscape:connector-curvature="0"
   style="fill:#000000;fill-opacity:1;stroke:none;stroke-opacity:1" />
	<path
   d="M 139.761,99.73 V 86.031 c 0,-0.55 -0.002,-0.938 -0.033,-1.163 v 0 c -0.035,-0.221 -0.056,-0.217 -0.056,-0.219 v 0 c 0,-0.002 -0.054,-0.031 -0.196,-0.048 v 0 c -0.186,-0.026 -0.498,-0.028 -0.925,-0.026 v 0 h -6.856 v -4.9 -0.502 h 23.246 v 5.402 l -6.61,-0.002 c -0.731,-0.005 -1.183,0.019 -1.311,0.074 v 0 c -0.081,0.058 -0.045,-0.063 -0.12,0.308 v 0 c -0.024,0.227 -0.026,0.589 -0.026,1.076 v 0 13.699 z m -7.064,-16.157 h 5.854 c 0.834,0.027 1.361,-0.082 1.873,0.417 v 0 c 0.409,0.546 0.312,1.065 0.336,2.041 v 0 12.697 h 5.113 V 86.031 c 0.027,-0.967 -0.079,-1.519 0.39,-2.065 v 0 c 0.549,-0.471 1.101,-0.365 2.067,-0.393 v 0 h 5.611 v -3.398 h -21.245 v 3.398 z m -0.5,-3.398 v -0.5 z"
   id="path65"
   inkscape:connector-curvature="0"
   style="fill:#000000;fill-opacity:1;stroke:none;stroke-opacity:1" />
</g>
<g
   id="g72"
   style="fill:#000000;fill-opacity:1;stroke:none;stroke-opacity:1"
   transform="matrix(0.85649224,0,0,0.73535221,28.324524,24.350661)">
	<path
   id="_x32_391_3_"
   d="m 317.909,79.675 v 4.4 h 6.354 c 1.713,0 1.713,0 1.713,1.957 v 13.199 h 6.11 V 86.032 c 0,-1.957 0,-1.957 1.955,-1.957 h 6.111 v -4.4 z"
   inkscape:connector-curvature="0"
   style="fill:#000000;fill-opacity:1;stroke:none;stroke-opacity:1" />
	
</g>
<g
   id="g78"
   style="fill:#000000;fill-opacity:1;stroke:none;stroke-opacity:1"
   transform="matrix(0.85649224,0,0,0.73535221,28.324524,24.350661)">
	<path
   d="m 105.366,79.675 v 19.559 h 6.356 v -3.42 c 0,-0.979 0.733,-1.959 1.711,-1.959 h 8.068 c 0.979,0 1.711,0.979 1.711,1.959 v 3.42 h 5.379 v -5.379 c 0,-0.73 -0.732,-1.709 -0.732,-2.688 0,-0.73 1.711,-2.441 1.711,-4.396 v -1.713 c 0,-1.714 -2.689,-5.381 -4.4,-5.381 z m 8.067,4.4 h 8.068 c 0.979,0 1.71,0.979 1.71,1.957 v 1.71 c 0,0.979 -0.732,1.713 -1.71,1.713 h -8.068 c -0.978,0 -1.711,-0.733 -1.711,-1.713 v -1.71 c 0.001,-0.976 0.733,-1.957 1.711,-1.957 z"
   id="path74"
   inkscape:connector-curvature="0"
   style="fill:#000000;fill-opacity:1;stroke:none;stroke-opacity:1" />
	
</g>
<g
   id="g84"
   style="fill:#000000;fill-opacity:1;stroke:none;stroke-opacity:1"
   transform="matrix(0.85649224,0,0,0.73535221,28.324524,24.350661)">
	<path
   d="m 161.594,79.675 c -1.712,0 -4.399,3.667 -4.399,5.381 v 14.178 h 6.354 v -5.379 h 11.489 v 5.379 h 6.355 V 85.056 c 0,-1.714 -2.688,-5.381 -4.646,-5.381 z m 3.667,4.4 h 8.066 c 0.73,0 1.711,0.979 1.711,1.957 v 3.422 h -11.489 v -3.422 c 0,-0.976 0.734,-1.957 1.712,-1.957 z"
   id="path80"
   inkscape:connector-curvature="0"
   style="fill:#000000;fill-opacity:1;stroke:none;stroke-opacity:1" />
	
</g>
<g
   id="g90"
   style="fill:#000000;fill-opacity:1;stroke:none;stroke-opacity:1"
   transform="matrix(0.85649224,0,0,0.73535221,28.324524,24.350661)">
	<path
   d="M 191.907,99.231 V 79.673 h -6.11 v 19.559 h 6.11 z"
   id="path86"
   inkscape:connector-curvature="0"
   style="fill:#000000;fill-opacity:1;stroke:none;stroke-opacity:1" />
	
</g>
<g
   id="g95"
   style="fill:#000000;fill-opacity:1;stroke:#000000;stroke-opacity:1"
   transform="matrix(0.99019608,0,0,0.98021376,1.9950784,1.5617678)">
	<path
   id="_x33_177_2_"
   d="m 243.5771,117.78932 v -10.63777 c 0,-2.01653 -2.32591,-4.03531 -4.65441,-4.03531 h -23.89314 v 14.67308 h 5.49604 v -9.90333 c 0,-0.73444 0.63316,-1.46813 1.4791,-1.46813 h 3.17185 c 0.6349,0 1.48257,0.73444 1.48257,1.46813 v 9.90183 h 5.49603 v -9.90183 c 0,-0.73444 0.63143,-1.46813 1.47824,-1.46813 h 3.17272 c 0.63315,0 1.48343,0.73444 1.48343,1.46813 v 9.90183 h 5.28584 z"
   inkscape:connector-curvature="0"
   style="fill:#000000;fill-opacity:1;stroke:none;stroke-width:0.80554247;stroke-opacity:1" />
	
</g>
<g
   id="g100"
   style="fill:#000000;fill-opacity:1;stroke:none;stroke-opacity:1"
   transform="matrix(0.85649224,0,0,0.73535221,28.324524,24.350661)">
	<path
   id="_x33_181_4_"
   d="m 213.479,126.021 h -16.137 c -2.688,0 -5.377,-1.713 -5.377,-4.397 V 106.22 h 21.512 v 4.646 h -14.422 c -0.732,0 -1.713,0.732 -1.713,1.711 0,0.979 0.979,1.712 1.713,1.712 h 13.443 v 3.911 h -13.443 c -0.732,0 -1.713,0.979 -1.713,1.713 0,0.979 0.979,1.954 1.713,1.954 h 14.422 z"
   inkscape:connector-curvature="0"
   style="fill:#000000;fill-opacity:1;stroke:none;stroke-opacity:1" />
	
</g>
<g
   id="g105"
   style="fill:#000000;fill-opacity:1;stroke:none;stroke-opacity:1"
   transform="matrix(0.85649224,0,0,0.73535221,28.324524,24.350661)">
	<path
   id="_x32_391_4_"
   d="m 167.017,106.462 v 4.398 h 6.355 c 1.711,0 1.711,0 1.711,1.957 v 13.199 h 6.111 v -13.199 c 0,-1.957 0,-1.957 1.959,-1.957 h 6.109 v -4.398 z"
   inkscape:connector-curvature="0"
   style="fill:#000000;fill-opacity:1;stroke:none;stroke-opacity:1" />
	
</g>
<g
   id="g110"
   style="fill:#000000;fill-opacity:1;stroke:none;stroke-opacity:1"
   transform="matrix(0.85649224,0,0,0.73535221,28.324524,24.350661)">
	<path
   id="_x33_187_1_"
   d="m 94.611,106.565 c -1.712,0 -5.379,2.689 -5.379,4.397 v 2.69 c 0,1.713 3.667,4.4 5.379,4.4 h 10.756 c 0.978,0 1.956,0.979 1.956,1.711 0,0.978 -0.979,1.954 -1.956,1.954 H 89.232 v 4.399 h 18.09 c 1.712,0 5.134,-2.688 5.134,-4.399 v -2.688 c 0,-1.957 -3.422,-4.646 -5.134,-4.646 H 96.566 c -0.979,0 -1.955,-0.733 -1.955,-1.713 0,-0.978 0.977,-1.713 1.955,-1.713 h 15.89 V 106.56 H 94.611 Z"
   inkscape:connector-curvature="0"
   style="fill:#000000;fill-opacity:1;stroke:none;stroke-opacity:1" />
	
</g>
<g
   id="g115"
   style="fill:#000000;fill-opacity:1;stroke:none;stroke-opacity:1"
   transform="matrix(0.85649224,0,0,0.73535221,28.324524,24.350661)">
	<path
   id="_x33_187_2_"
   d="m 146.397,106.565 c -1.713,0 -5.38,2.689 -5.38,4.397 v 2.69 c 0,1.713 3.667,4.4 5.38,4.4 h 10.756 c 0.978,0 1.956,0.979 1.956,1.711 0,0.978 -0.979,1.954 -1.956,1.954 h -16.136 v 4.399 h 18.091 c 1.712,0 5.134,-2.688 5.134,-4.399 v -2.688 c 0,-1.957 -3.422,-4.646 -5.134,-4.646 h -10.757 c -0.978,0 -1.955,-0.733 -1.955,-1.713 0,-0.978 0.978,-1.713 1.955,-1.713 h 15.891 v -4.397 h -17.845 z"
   inkscape:connector-curvature="0"
   style="fill:#000000;fill-opacity:1;stroke:none;stroke-opacity:1" />
	
</g>
<g
   id="g121"
   style="fill:#000000;fill-opacity:1;stroke:none;stroke-opacity:1"
   transform="matrix(0.85649224,0,0,0.73535221,28.324524,24.350661)">
	<path
   d="m 114.412,106.565 v 8.804 c 0,1.71 2.688,4.399 4.4,4.399 h 4.398 v 6.354 h 6.357 v -6.354 h 4.4 c 1.71,0 4.4,-2.689 4.4,-4.399 v -8.804 h -6.112 v 7.092 c 0,0.732 -0.978,1.712 -1.956,1.712 h -7.822 c -0.979,0 -1.956,-0.979 -1.956,-1.712 v -7.092 z"
   id="path117"
   inkscape:connector-curvature="0"
   style="fill:#000000;fill-opacity:1;stroke:none;stroke-opacity:1" />
	
</g>
</svg>