<?xml version="1.0" encoding="UTF-8" standalone="no"?>
<svg
   version="1.1"
   width="2280"
   height="716"
   id="svg20"
   sodipodi:docname="nes_aladdin.svg"
   xml:space="preserve"
   inkscape:version="1.3.2 (091e20e, 2023-11-25, custom)"
   xmlns:inkscape="http://www.inkscape.org/namespaces/inkscape"
   xmlns:sodipodi="http://sodipodi.sourceforge.net/DTD/sodipodi-0.dtd"
   xmlns="http://www.w3.org/2000/svg"
   xmlns:svg="http://www.w3.org/2000/svg"><defs
     id="defs20"><linearGradient
       id="swatch30"
       inkscape:swatch="solid"><stop
         style="stop-color:#000000;stop-opacity:1;"
         offset="0"
         id="stop30" /></linearGradient></defs><sodipodi:namedview
     id="namedview20"
     pagecolor="#ffffff"
     bordercolor="#000000"
     borderopacity="0.25"
     inkscape:showpageshadow="2"
     inkscape:pageopacity="0.0"
     inkscape:pagecheckerboard="true"
     inkscape:deskcolor="#d1d1d1"
     inkscape:zoom="0.35355339"
     inkscape:cx="849.94235"
     inkscape:cy="750.9474"
     inkscape:window-width="2560"
     inkscape:window-height="1351"
     inkscape:window-x="-9"
     inkscape:window-y="-9"
     inkscape:window-maximized="1"
     inkscape:current-layer="svg20" /><path
     style="display:inline;fill:#b70666;fill-opacity:1;stroke:none;stroke-width:30;stroke-linecap:square;stroke-linejoin:miter;stroke-miterlimit:5;stroke-dasharray:none;stroke-opacity:1;paint-order:stroke markers fill"
     d="M 322,244 286,159 C 563.5998,79.225751 771.36231,44.602984 1063.7053,10.93934 1112.6545,7.7501875 1249.3333,-1.643818 1305,15 c 22.2875,5.320181 56.5391,26.619697 54.2322,41.646447 -6.487,16.913093 -106.0547,72.283603 -198.5273,112.615963 C 1092.9879,204.09985 506.47293,477.59872 466,499.5 443.26792,513.94689 391.29733,543.17839 392,564 424.56621,583.1631 572.94838,525.20186 655,485.5 740.27015,451.0516 960.97098,349.67904 1278,235 1331.8047,218.98611 1613.4346,146.59379 1857.4124,120.12132 1940.008,113.47428 2122.3217,128.33333 2208,159 2084.8569,153.83259 2026.6767,150.61915 1868.0172,172.71751 1651.6888,204.17185 1400.2555,301.65283 1363.5,311 1283.5493,338.0494 875.23733,513.21698 679,586.5 524.86543,658.11136 480.82089,668.27367 383,696 309.52511,714.7649 200.60737,717.87562 180.75736,716.82843 130.09833,714.1559 106.23065,704.6464 70.682874,686.44544 47.96831,672.21555 26.574739,650.46893 26.59099,633.45711 27.763845,620.35419 53.79771,591.64473 81.143398,566.12132 218.11523,462.5447 251,463.33333 338,412 l 458,-211 223.5,-92 c 13.1803,-7.658 0.141,-16.494684 -14,-18.5 -13.99881,-3.242374 -276.36085,57.79375 -540,114.5 z"
     id="path33"
     sodipodi:nodetypes="ccccccccccccccccsccccccccc"
     inkscape:label="BackGround" /><path
     id="path19-1"
     style="display:inline;fill:#450f7b;fill-opacity:1;stroke:#004242;stroke-width:0;stroke-dasharray:none;stroke-opacity:1;paint-order:stroke markers fill"
     transform="matrix(1,0,0,1.0368717,1910.7191,147.52539)"
     d="M 0,0 C 6.9603159,7.4659799 10.376116,16.135068 10.226563,26.304687 9.2613935,36.121835 4.2599709,44.242475 -2.9257813,50.800781 -18.668053,63.299191 -36.618254,65.431255 -56.046875,64.085937 c -13.716236,-1.643014 -26.762294,-8.833264 -36,-19 -6.656972,-8.624162 -7.959965,-17.250723 -7,-28 2.681579,-10.7118204 8.918418,-18.02346675 18,-23.9999995 C -55.70525,-21.67651 -22.019138,-20.590415 0,0 Z m -112.2059,89.96289 c 1.21538,0.0014 1.21538,0.0014 2.45532,0.0028 0.92693,-0.0014 1.85386,-0.0027 2.80888,-0.0042 1.53748,0.0054 1.53748,0.0054 3.10602,0.01089 1.60956,-2.19e-4 1.60956,-2.19e-4 3.25164,-4.42e-4 3.565797,7e-4 7.131546,0.0085 10.697338,0.01631 2.464797,0.0019 4.929595,0.0033 7.394394,0.0043 6.501988,0.0038 13.003955,0.01366 19.505935,0.0247 6.628923,0.01075 13.257851,0.01479 19.88678,0.01984 13.017588,0.01074 26.03516,0.02763 39.052733,0.04883 -1.28317,8.150742 -2.83358,16.202972 -4.61938,24.257572 -0.25615,1.16691 -0.51229,2.33383 -0.7762,3.53611 -0.69936,3.18319 -1.4014,6.36578 -2.10468,9.54811 -0.75092,3.40109 -1.498303,6.80297 -2.246122,10.20475 -1.439309,6.54471 -2.881805,13.08871 -4.325482,19.63246 -1.656804,7.51033 -3.310437,15.02136 -4.963907,22.53243 -2.938301,13.34709 -5.879716,26.69348 -8.822822,40.03951 -2.728469,12.37297 -5.452355,24.74696 -8.174485,37.12133 -1.380403,6.27386 -2.762307,12.54738 -4.14438,18.82087 -0.712704,3.23514 -1.424844,6.4704 -2.136536,9.70575 -0.814136,3.70057 -1.629846,7.4008 -2.446909,11.10072 -0.425874,1.9302 -0.850178,3.86075 -1.27442,5.79131 -0.247767,1.12031 -0.495533,2.24061 -0.750808,3.39487 -0.212313,0.96309 -0.424626,1.92619 -0.643372,2.91847 -0.570496,2.39574 -0.570496,2.39574 -1.570496,5.39574 -37.29,0 -74.580001,0 -113.000001,0 4.62539,-21.97062 4.62539,-21.97062 7.03294,-32.37128 0.17673,-0.76446 0.35345,-1.52891 0.53553,-2.31653 0.18285,-0.79082 0.3657,-1.58164 0.55409,-2.39642 0.39494,-1.71425 0.78973,-3.42855 1.18437,-5.14287 1.05845,-4.59588 2.11908,-9.19126 3.18015,-13.78654 1.12089,-4.85615 2.23971,-9.71278 3.35878,-14.56935 2.11977,-9.19813 4.24138,-18.39584 6.36365,-27.59339 2.39393,-10.37525 4.7858,-20.75098 7.17749,-31.12675 2.9275,-12.70003 5.85545,-25.39997 8.78472,-38.0996 0.20647,-0.89521 0.41293,-1.79042 0.62565,-2.71276 0.99446,-4.31154 1.98943,-8.62296 2.98561,-12.9341 1.55865,-6.74704 3.11649,-13.49418 4.65009,-20.24698 0.4328,-1.9057 0.86707,-3.81107 1.30139,-5.71642 0.51111,-2.24423 1.01937,-4.48911 1.52417,-6.73477 0.21852,-0.957582 0.43704,-1.915164 0.66218,-2.901763 0.18621,-0.824285 0.37242,-1.648569 0.56428,-2.497832 0.67078,-2.413472 0.82997,-2.806866 3.35587,-2.975695 z M -1374.0469,7.08594 h 108 v 308 h -108 z m 1698.875,107.875 c 18.70541,17.83791 24.46131,41.6578 25.23261,66.60578 0.15402,8.70336 0.12973,17.40663 0.0952,26.11085 -0.0127,3.75551 -0.0137,7.51104 -0.0161,11.26657 -0.006,7.07544 -0.0225,14.15082 -0.0427,21.22623 -0.0268,9.58658 -0.0374,19.17318 -0.049,28.75978 -0.0187,15.05198 -0.0585,30.10382 -0.095,45.15579 -36.63,0 -73.26,0 -111,0 0.058,-9.38953 0.11602,-18.77906 0.17578,-28.45313 0.0256,-5.96094 0.0498,-11.92184 0.0684,-17.88281 0.0296,-9.45424 0.0643,-18.90825 0.13306,-28.3623 0.05,-6.88679 0.0821,-13.77339 0.0933,-20.66035 0.006,-3.64249 0.0216,-7.28446 0.0582,-10.92679 0.0407,-4.0786 0.0413,-8.15632 0.039,-12.23513 0.018,-1.19115 0.036,-2.38231 0.0545,-3.60956 -0.0652,-10.69487 -3.08548,-20.29873 -10.62212,-28.12774 -11.95564,-10.41448 -27.39844,-13.61444 -42.85254,-12.92139 -12.83262,1.07084 -27.32705,6.54126 -36.14746,16.1792 -6.71158,8.15171 -6.87432,16.29058 -6.83984,26.38281 -0.0163,1.65678 -0.0353,3.31353 -0.0569,4.97025 -0.0419,3.60964 -0.0659,7.21883 -0.0771,10.8287 -0.0213,6.06599 -0.0972,12.13074 -0.17901,18.19617 -0.17138,13.1655 -0.29199,26.33092 -0.40967,39.49707 -0.14437,15.55125 -0.28875,31.1025 -0.4375,47.125 -36.96,0 -73.92,0 -112,0 0,-72.27 0,-144.54 0,-219 35.31,0 70.62,0 107,0 0.33,10.23 0.66,20.46 1,31 2.57813,-1.75313 5.15625,-3.50625 7.8125,-5.3125 15.42125,-10.30537 30.44563,-19.04625 48.1875,-24.6875 1.0493,-0.336445 2.09859,-0.672891 3.17969,-1.019531 39.58205,-11.645149 95.51783,-8.036417 127.69533,19.894531 z m -1271.875,-7.61458 c 0,0 1.84713,1.34702 2.68359,2.12742 3.36028,3.13504 6.36188,6.57547 9.31641,10.20359 l 1.94531,2.31206 c 16.34228,20.01997 21.0442,40.95362 21.3711,66.54009 0.0208,1.41685 0.0418,2.83369 0.0631,4.25053 0.0557,3.80746 0.1052,7.61497 0.15291,11.42254 0.0301,2.37561 0.062,4.75119 0.0942,7.12677 -0.19332,17.12672 -1.61969,74.39898 3.73301,86.91008 0.0682,0.15937 13.51731,15.64989 -3.71324,15.8612 -10.19477,-0.0115 -65.45294,-0.34035 -103.64649,-0.2098 l -1,-31.85511 -5.0625,4.49568 c -35.2257,30.43139 -78.3556,35.34581 -122.9374,34.55246 l -2.3926,-0.0392 c -26.3533,-0.56852 -56.8444,-3.12529 -76.9824,-22.43926 -10.6083,-11.59054 -13.9726,-26.76738 -13.8398,-42.24736 0.6743,-17.85676 7.8769,-34.41098 20.5898,-46.57445 18.2244,-15.63779 41.7131,-20.17084 64.6914,-22.8196 l 3.3812,-0.39475 c 13.6696,-1.54568 27.3801,-2.47197 41.0988,-3.41754 12.2304,-0.8509 24.4151,-1.81845 36.5825,-3.37277 l 2.9308,-0.37393 c 15.2932,-2.04728 30.4135,-4.95082 40.6981,-17.76935 3.2039,-4.85557 2.9672,-10.65486 2.2422,-16.26873 -3.1189,-8.64645 -10.2123,-12.70293 -18,-16.44135 -15.4112,-5.00355 -33.7103,-5.21172 -49.0078,-2.89008 -7.6143,3.60821 -14.8694,8.03965 -18.2735,16.26002 -1.6982,3.78922 -3.3324,6.88231 -6.7187,9.23691 -7.5556,2.34432 -15.962,1.42838 -23.75,1.2042 -2.3427,-0.023 -4.6854,-0.0406 -7.0281,-0.0529 -6.15,-0.047 -12.2966,-0.16797 -18.4452,-0.30462 -6.2806,-0.12642 -12.5617,-0.18252 -18.8431,-0.24461 -12.3127,-0.13203 -24.6229,-0.34233 -36.9336,-0.6021 0.4624,-1.79586 0.9286,-3.59067 1.3965,-5.38503 l 0.7855,-3.02908 c 1.099,-3.88173 2.5527,-7.44057 4.318,-11.04577 l 1.0293,-2.10509 c 3.7463,-7.26781 8.7374,-12.84594 14.4707,-18.51081 l 1.9531,-2.03109 c 57.7805,-40.62301 193.9813,-36.51617 251.0469,-2.07917 z m -84.0703,100.87987 c -15.6914,3.16814 -31.3025,5.87598 -47.2056,7.65168 -14.7395,1.70446 -29.6836,4.9687 -40.0991,16.69725 -4.0852,5.50966 -6.4275,11.29792 -6.0703,18.29581 1.3202,7.09272 4.8704,13.10519 10.4297,17.48901 16.6517,11.1089 35.9799,11.2696 55.0156,7.51019 13.1131,-3.48089 26.0872,-8.70638 34,-20.55169 2.9791,-5.84429 3.127,-12.20082 3.1328,-18.6932 l 0,-2.07924 c 7e-4,-1.44128 -10e-4,-2.88256 -0,-4.32384 -0,-2.19615 0,-4.39208 0.01,-6.58823 -6e-4,-1.40691 -0,-2.81382 -0,-4.22073 l -0,-3.84364 c -0.1133,-2.98641 -0.4556,-5.64847 -1.1294,-8.54757 -2.783,0 -5.3401,0.64157 -8.0703,1.2042 z M -305.0469,7.08594 c 35.31,0 70.62,0 107,0 0,101.64 0,203.28 0,308 -31.35,0 -62.7,0 -95,0 -0.33,-13.2 -0.66,-26.4 -1,-40 -2.64,3.3 -5.28,6.6 -8,10 -23.31654,25.88502 -56.25403,40.99918 -91,43 -37.12226,1.80152 -72.00132,-10.94108 -99.5625,-35.6875 -20.58425,-19.091 -36.39164,-47.89808 -37.56201,-76.33813 -0.64247,-28.39409 -0.64247,-28.39409 3.12451,-40.97437 0.19868,-0.69561 0.39735,-1.39122 0.60205,-2.10791 5.84511,-20.22363 15.92605,-36.57184 30.39795,-51.89209 0.68578,-0.75023 1.37156,-1.50047 2.07813,-2.27344 6.2627,-6.61063 13.38957,-11.68394 20.92187,-16.72656 0.83273,-0.56719 1.66547,-1.13438 2.52344,-1.71875 10.26969,-6.589426 22.03967,-10.789242 33.72656,-14.09375 0.6832,-0.194729 1.36641,-0.389458 2.07031,-0.590088 11.00709,-2.947772 21.9992,-3.964581 33.36719,-3.909912 1.83256,0.0074 1.83256,0.0074 3.70215,0.01489 34.21041,0.44016 67.32746,14.014723 91.61035,38.29761 0.33,-37.29 0.66,-74.58 1,-113 z m -97,156 c -11.02708,13.61487 -16.15495,30.73331 -14.66943,48.15796 1.939,16.96734 9.91024,32.4576 22.98437,43.56958 11.79986,8.91059 25.08195,12.33638 39.68506,11.27246 15.08258,-2.12976 27.92816,-10.1743 37.125,-22.125 10.2317,-14.64261 14.8776,-31.3592 12.12305,-49.09692 -2.33108,-12.67293 -7.08602,-22.81282 -15.24805,-32.77808 -0.78117,-0.97066 -0.78117,-0.97066 -1.57813,-1.96094 -8.28933,-9.25224 -21.55052,-15.62536 -33.83984,-16.34765 -18.79927,-0.68764 -33.58146,5.49947 -46.58203,19.30859 z m -263,-156 c 35.31,0 70.62,0 107,0 0,101.64 0,203.28 0,308 -31.35,0 -62.7,0 -95,0 -0.33,-13.2 -0.66,-26.4 -1,-40 -2.64,3.3 -5.28,6.6 -8,10 -24.38143,27.06723 -58.00974,40.99672 -94.02344,43.18359 -36.89039,0.87835 -71.19561,-12.36614 -98.18139,-37.39428 -19.45051,-18.67822 -34.58074,-46.69398 -35.9563,-73.98633 -0.36953,-30.13181 -0.36953,-30.13181 3.16113,-41.80298 0.19868,-0.69416 0.39735,-1.38832 0.60205,-2.10352 5.84454,-20.22603 15.92437,-36.57445 30.39795,-51.89648 0.68578,-0.75023 1.37156,-1.50047 2.07813,-2.27344 6.2627,-6.61063 13.38957,-11.68394 20.92187,-16.72656 0.83273,-0.56719 1.66547,-1.13438 2.52344,-1.71875 10.26969,-6.589426 22.03967,-10.789242 33.72656,-14.09375 0.6832,-0.194729 1.36641,-0.389458 2.07031,-0.590088 11.00709,-2.947772 21.9992,-3.964581 33.36719,-3.909912 1.83256,0.0074 1.83256,0.0074 3.70215,0.01489 34.21041,0.44016 67.32746,14.014723 91.61035,38.29761 0.33,-37.29 0.66,-74.58 1,-113 z m -97,156 c -11.02708,13.61487 -16.15495,30.73331 -14.66943,48.15796 1.939,16.96734 9.91024,32.4576 22.98437,43.56958 11.79986,8.91059 25.08195,12.33638 39.68506,11.27246 15.08258,-2.12976 27.92816,-10.1743 37.125,-22.125 11.05702,-15.82373 14.98077,-33.23644 11.72266,-52.33203 -2.67526,-11.18184 -7.41245,-20.69991 -14.84766,-29.54297 -0.51949,-0.64324 -1.03898,-1.28648 -1.57422,-1.94922 -8.26723,-9.26679 -21.56341,-15.63761 -33.84375,-16.35937 -18.79927,-0.68764 -33.58146,5.49947 -46.58203,19.30859 z m -914,-156 h 130 c 9.144,19.901669 18.2381,39.735952 27.0874,59.754883 5.3926,12.189927 10.9995,24.276498 16.6303,36.357787 5.887,12.63734 11.6282,25.32943 17.2515,38.08606 5.3682,12.16795 10.9124,24.24702 16.5308,36.30127 5.9571,12.78082 11.8117,25.59726 17.5,38.5 5.7156,12.96168 11.5875,25.84332 17.5625,38.6875 1.5912,3.42184 3.1824,6.84369 4.7734,10.26562 l 1.1769,2.53112 c 3.7523,8.07578 7.4781,16.16347 11.1752,24.26469 0.6616,1.4487 1.3246,2.89677 1.989,4.34418 0.907,1.97641 1.8091,3.95496 2.7097,5.93423 l 1.5379,3.36695 c 1.0754,2.60571 1.0754,2.60571 1.0754,4.60571 h -123 c -17,-37.92308 -17,-37.92308 -17,-41 h -141 l -1,5 -13,36 h -123 c 1.546,-4.63813 3.2563,-8.79463 5.4381,-13.12346 l 1.048,-2.10331 c 1.1551,-2.31589 2.316,-4.62889 3.4768,-6.94193 0.8317,-1.66445 1.663,-3.32907 2.494,-4.99385 2.2572,-4.51915 4.5193,-9.03577 6.7825,-13.55192 2.3762,-4.7437 4.7482,-9.48953 7.1208,-14.23507 3.9921,-7.98327 7.9873,-15.96499 11.9845,-23.94572 4.5988,-9.182 9.1935,-18.36605 13.7858,-27.55132 4.9099,-9.82039 9.8228,-19.63925 14.7366,-29.45768 1.4037,-2.80531 2.8069,-5.6109 4.2099,-8.41656 2.2241,-4.44723 4.4503,-8.89341 6.678,-13.33885 0.8092,-1.61553 1.6178,-3.23138 2.4256,-4.8476 4.6601,-9.32242 9.4212,-18.58324 14.2924,-27.79722 3.2527,-6.15673 6.4231,-12.34996 9.5275,-18.58296 l 1.5956,-3.190855 c 1.6599,-3.320622 3.3172,-6.642597 4.9742,-9.964664 1.0421,-2.085581 2.0843,-4.171071 3.1267,-6.256469 3.8116,-7.628252 7.6196,-15.258258 11.428,-22.888062 z m 59,69 c -4.2358,8.797879 -7.6936,17.846656 -11.1282,26.9765 -1.7507,4.65174 -3.5148,9.29841 -5.2781,13.94538 l -1.1241,2.96444 c -4.3099,11.35087 -8.6997,22.67052 -13.0946,33.98868 -0.8014,2.06535 -1.6027,4.1307 -2.4041,6.19604 -3.4044,8.77036 -6.8151,17.53819 -10.2442,26.29896 -1.3301,3.39838 -2.6582,6.79756 -3.9864,10.19671 -0.9071,2.31783 -1.818,4.63414 -2.7291,6.95038 -0.539,1.37835 -1.078,2.75676 -1.6167,4.13525 l -1.4109,3.59351 c -1.0957,2.58064 -1.0957,2.58064 -0.9836,4.75415 h 108 c -4.482,-12.82412 -4.482,-12.82412 -9.2344,-25.53906 l -0.8342,-2.16114 c -0.5872,-1.52052 -1.1754,-3.04064 -1.7647,-4.56036 -1.2932,-3.33564 -2.5806,-6.67355 -3.8685,-10.01126 -0.6904,-1.78919 -1.3811,-3.57827 -2.0721,-5.36725 -4.1147,-10.65487 -8.2034,-21.31973 -12.2886,-31.98593 l -1.1392,-2.97372 c -7.3207,-19.11316 -14.5768,-38.250453 -21.7983,-57.40128 z"
     inkscape:label="AladdinShaddow" /><path
     id="path22"
     style="display:inline;fill:#004242;stroke-linecap:square;paint-order:stroke markers fill"
     d="m 1631.5156,-39.015625 c -15.3238,0.07978 -30.6728,4.252434 -44.0664,12.054687 l -0.3535,0.205079 -0.3418,0.226562 c -11.1401,7.331242 -20.683,18.4197362 -24.3047,32.8867189 l -0.2851,1.1386719 -0.1055,1.1699218 c -1.1302,12.6552934 1.0316,26.7952654 10.0664,38.5000004 l 0.3691,0.476562 0.4043,0.445313 c 8.0408,8.849476 18.2801,15.660872 29.6602,19.830078 -3.0007,-0.004 -5.9994,-0.01 -9.002,-0.01172 -2.4559,-9.96e-4 -4.9113,-0.0021 -7.3671,-0.0039 h -0.022 c -3.5587,-0.0078 -7.1266,-0.01492 -10.7051,-0.01563 h -3.2266 l -3.1152,-0.01172 -2.8262,0.0039 -2.9453,-0.002 -0.5078,0.0332 c -2.0156,0.134718 -7.0084,0.234764 -11.7539,4.783203 -4.7455,4.548439 -4.6936,7.843476 -5.0547,9.142579 l -0.1,0.353515 -0.6406,2.839844 -0.6641,2.910156 -0.01,0.02344 c -0.5015,2.230616 -1.0073,4.461504 -1.5156,6.693359 -0.434,1.904277 -0.8685,3.8128 -1.3027,5.724605 -1.5256,6.71773 -3.0803,13.44746 -4.6387,20.19336 -0.9968,4.31387 -1.9916,8.62673 -2.9863,12.93945 l -0.625,2.71289 c -2.9295,12.70064 -5.8576,25.40118 -8.7852,38.10156 -2.3916,10.37561 -4.7842,20.74974 -7.1777,31.12305 -2.1224,9.19826 -4.2431,18.3976 -6.3633,27.59766 -1.1191,4.85706 -2.2375,9.71246 -3.3574,14.56445 -1.0611,4.59558 -2.1242,9.19308 -3.1836,13.79297 v 0.002 c -0.3944,1.71352 -0.7888,3.4273 -1.1836,5.14063 l -0.5508,2.38476 c -0.182,0.78761 -0.3584,1.55192 -0.5351,2.31642 -2.4068,10.39715 -2.4728,10.69204 -7.0977,32.66016 L 1493,314.91211 V -15 h -136.8672 l -0.8633,97.373047 C 1332.3865,67.999136 1305.827,60.053666 1278.582,59.703125 h -0.066 -0.066 c -1.8637,-0.0075 -1.8742,-0.0083 -3.6894,-0.01563 h -0.012 c -12.305,-0.05844 -24.7275,1.050648 -37.3085,4.419922 l -0.1153,0.03125 -0.1152,0.0332 c -0.7039,0.200616 -1.3871,0.395104 -2.0703,0.589844 -12.3434,3.491423 -25.5085,8.06246 -37.7149,15.894531 l -0.1738,0.111328 -0.1699,0.115234 c -0.824,0.561247 -1.624,1.107533 -2.4239,1.652344 0,0.0033 -0.011,0.0065 -0.016,0.0098 -7.758,5.19407 -15.9209,10.916632 -23.4511,18.865242 l -0.092,0.0977 -0.092,0.0977 c -0.7067,0.77303 -1.3924,1.52326 -2.0782,2.27344 l 0.168,-0.17969 c -15.742,16.66478 -27.3805,35.45564 -33.9043,58.02734 l -0.01,0.0234 -0.01,0.0234 c -0.2047,0.7168 -0.4049,1.41194 -0.6035,2.10742 l 0.055,-0.18359 c -0.6311,2.10766 -1.1126,3.9742 -1.623,5.88867 V -15 H 996.13281 l -0.86328,97.373047 C 972.38652,67.999136 945.82702,60.053666 918.58203,59.703125 h -0.0664 -0.0664 c -1.86366,-0.0075 -1.87423,-0.0083 -3.68945,-0.01563 h -0.0117 c -12.30509,-0.05844 -24.7276,1.050648 -37.3086,4.419922 l -0.11523,0.03125 -0.11524,0.0332 c -0.70385,0.200616 -1.38707,0.395104 -2.07031,0.589844 -12.34332,3.491423 -25.50848,8.06246 -37.71484,15.894531 l -0.17383,0.111328 -0.16992,0.115234 c -0.82401,0.561247 -1.62395,1.107533 -2.42383,1.652344 -0.005,0.0033 -0.0107,0.0065 -0.0156,0.0098 -7.75804,5.19407 -15.92092,10.916632 -23.45117,18.865242 l -0.0918,0.0977 -0.0918,0.0977 c -0.70663,0.77303 -1.39239,1.52326 -2.07813,2.27344 l 0.16797,-0.17969 c -14.52548,15.37699 -25.35471,32.70768 -32.09765,53.0039 -3.01813,-18.1544 -9.47321,-35.40814 -22.4336,-51.28515 l -0.0703,-0.0859 -2.01562,-2.39844 0.15234,0.18555 c -3.16373,-3.885023 -6.60999,-7.869512 -10.71484,-11.699222 -2.59514,-2.42121 -4.07813,-3.279287 -4.07813,-3.279297 l -0.5274,-0.384922 -0.56055,-0.33789 C 703.9228,67.608429 654.16654,58.415954 603.82227,58.152344 553.478,57.888744 502.94731,66.430749 469.32617,90.068359 l -1.18359,0.832032 -2.95508,3.072265 0.26953,-0.271484 c -6.13928,6.06598 -12.45966,12.996378 -17.25976,22.308598 l -0.0742,0.14062 -1.09766,2.24805 c -2.04818,4.18368 -3.88732,8.64585 -5.27539,13.54883 l -0.0469,0.1582 -0.82617,3.19141 c -0.46842,1.79663 -0.93623,3.59984 -1.40234,5.41015 l -4.72266,18.33594 18.93164,0.40039 c 12.35088,0.26062 24.71357,0.4708 37.08985,0.60352 h 0.006 0.006 c 6.29095,0.0622 12.52081,0.11997 18.68945,0.24414 l -0.0312,-0.002 c 6.17407,0.13722 12.39374,0.26068 18.66406,0.3086 h 0.0176 0.0176 c 2.26412,0.0119 4.52933,0.0288 6.79297,0.0508 6.92068,0.21063 16.94469,1.71338 28.50976,-1.875 l 2.21485,-0.6875 1.90234,-1.32422 c 6.58435,-4.57834 9.92264,-11.13152 11.84375,-15.41797 l 0.0879,-0.19531 0.084,-0.19922 c 1.09858,-2.65295 3.95205,-4.80447 9.02735,-7.40625 12.65837,-1.62072 27.45905,-1.15019 38.88476,2.35742 5.12052,2.50177 7.55148,4.04462 8.74415,6.20899 0.16034,2.38873 0.1039,3.65971 0.043,3.88867 -6.48176,7.36167 -16.02946,9.55519 -30.20703,11.45312 l -2.84179,0.36328 c -11.69499,1.49397 -23.58948,2.44298 -35.72266,3.28711 -13.70205,0.94441 -27.62999,1.88061 -41.74414,3.47656 l -0.0273,0.004 -3.38477,0.39453 c -23.75711,2.73854 -50.77106,7.48517 -72.74219,26.33789 l -0.30859,0.26367 -0.29297,0.28126 C 435.66942,204.6194 427.64746,221.48785 425,239.56445 V -15 H 287 v 338 h 138 v -58.09766 c 1.94603,12.95729 6.6682,25.93583 16.56055,36.74414 l 0.33007,0.36133 0.35157,0.33789 c 25.11977,24.09184 59.96758,26.02532 87.04101,26.60938 l 0.0391,0.002 2.43164,0.0391 c 38.7478,0.68796 78.96967,-2.95674 114.16601,-24.51953 l 0.54492,17.37891 14.58594,-0.0508 c 38.05796,-0.13009 93.12193,0.19914 103.57813,0.21093 h 0.10156 l 0.0996,-0.002 c 6.57859,-0.0807 14.20431,-1.54495 19.49023,-8.30273 5.28593,-6.75779 4.34954,-14.731 2.99414,-19.09571 -1.3554,-4.3647 -3.2018,-7.20085 -4.66406,-9.35937 -0.25334,-0.37397 -0.41725,-0.56979 -0.64844,-0.89258 -0.10215,-0.83571 -1.07797,-5.08639 -1.5625,-10.9043 -0.56906,-6.83291 -0.88629,-15.45294 -1.02734,-24.26953 -0.01,-0.61223 0.016,-0.94115 0.008,-1.55468 7.32176,17.94704 18.6729,34.18979 31.98633,46.97461 l 0.0937,0.0898 0.0957,0.0879 c 29.69844,27.54401 68.03948,42.3616 108.73828,41.39258 l 0.2754,-0.008 0.27539,-0.0156 c 31.60063,-1.91889 62.07228,-12.46456 87.00977,-32.19336 L 1008.3711,323 H 1133 v -97.00195 c 5.4051,27.28261 20.7868,52.27931 40.2305,70.3125 l 0.088,0.082 0.09,0.082 c 30.3375,27.23924 69.3134,41.49738 110.3106,39.50781 l 0.068,-0.004 0.068,-0.004 c 30.6949,-1.76754 60.1143,-12.90738 84.0332,-31.94336 L 1368.3711,323 H 1493 v -1 h 140.8066 l 3.418,-10.25586 c 1,-3 1.3631,-4.27027 1.9336,-6.66602 l 0.029,-0.12109 0.025,-0.12305 c 0.2178,-0.98834 0.4312,-1.94895 0.6426,-2.9082 v -0.0117 l 0.75,-3.39453 v -0.01 c 0.4239,-1.929 0.8477,-3.85438 1.2715,-5.77539 v -0.004 c 0.8176,-3.70226 1.6345,-7.4059 2.4492,-11.10938 0.7114,-3.234 1.4243,-6.46773 2.1367,-9.70117 1.3821,-6.27375 2.7636,-12.54802 4.1445,-18.82422 2.7218,-12.37299 5.4461,-24.74588 8.1738,-37.11523 2.9435,-13.34727 5.8855,-26.69555 8.8243,-40.04492 1.6535,-7.51085 3.305,-15.01918 4.9609,-22.52539 1.444,-6.54551 2.8877,-13.09311 4.3281,-19.64258 0.748,-3.40241 1.4957,-6.79913 2.2442,-10.18946 v -0.002 c 0.704,-3.1855 1.4083,-6.37364 2.1093,-9.56445 v -0.002 c 0.2639,-1.20234 0.5212,-2.36832 0.7774,-3.53516 l -0.01,0.0293 c 1.8459,-8.32594 3.4572,-16.686745 4.793,-25.171879 L 1689.5332,68.029297 1672.0156,68 c -4.8103,-0.0078 -9.6211,-0.01102 -14.4316,-0.01758 8.5993,-2.612799 17.0428,-6.310594 24.8633,-12.519531 l 0.4043,-0.320313 0.3808,-0.347656 c 9.1799,-8.378263 16.5887,-20.072229 17.9688,-34.109375 l 0.061,-0.621094 0.01,-0.625 c 0.2008,-13.6526769 -5.0135,-26.8421768 -14.2539,-36.753906 l -0.3496,-0.376953 -0.375,-0.351563 c -15.4133,-14.413224 -35.0754,-21.075226 -54.7774,-20.972656 z m 5.2539,15.214844 c 14.3417,1.00002 28.2678,6.419636 39.2774,16.7148435 6.9603,7.4659799 10.376,16.1350685 10.2265,26.3046875 -0.9652,9.817148 -5.9665,17.937788 -13.1523,24.496094 C 1657.3788,56.213254 1639.4286,58.345318 1620,57 c -13.7162,-1.643014 -26.7623,-8.833264 -36,-19 -6.6569,-8.624162 -7.9599,-17.250723 -7,-28 2.6816,-10.7118204 8.9184,-18.0234668 18,-24 12.6708,-7.381224 27.4279,-10.800801 41.7695,-9.800781 z M -9.2753906,-15 -39.294922,45.111328 l -0.002,0.002 c -3.80866,7.630276 -7.614352,15.258678 -11.423828,22.882813 -1.042551,2.085663 -2.084769,4.170015 -3.126953,6.255859 l -0.002,0.0059 -0.002,0.0039 c -1.656829,3.321616 -3.312474,6.639844 -4.96875,9.953125 l -1.601563,3.199218 -0.0039,0.01172 c -3.055194,6.134258 -6.170825,12.219136 -9.363281,18.261717 -4.924292,9.31441 -9.736979,18.67495 -14.447266,28.09766 v 0.002 c -0.805749,1.61208 -1.612483,3.22393 -2.419922,4.83594 -2.228917,4.4479 -4.455685,8.89675 -6.681641,13.34765 h -0.002 c -1.40282,2.80524 -2.804205,5.60858 -4.207031,8.41211 -4.914183,9.81922 -9.827033,19.63972 -14.738283,29.46289 -4.59108,9.1829 -9.18443,18.36303 -13.78125,27.54102 -3.99832,7.98297 -7.99639,15.96835 -11.99023,23.95508 -2.37311,4.7466 -4.74298,9.4889 -7.11524,14.22461 -2.26385,4.51758 -4.52917,9.03982 -6.79101,13.56836 v 0.002 l -0.002,0.002 c -0.83016,1.66306 -1.65948,3.3257 -2.49024,4.98828 -1.15695,2.30532 -2.3202,4.62108 -3.48242,6.95117 v 0.002 l -1.01953,2.04492 c -2.50084,4.96174 -4.52814,9.89494 -6.27344,15.13086 L -171.81055,318 h 154.3418 L -0.51171875,271.04102 -1.703125,277 H 116.07617 c 2.4016,5.71246 6.19239,14.19255 14.23633,32.13672 L 134.28516,318 H 282 v -15 c 0,-2 -1.13354,-7.7224 -2.20898,-10.32812 l -0.10743,-0.25782 -1.64453,-3.59961 -0.008,-0.0195 c -0.90087,-1.9797 -1.80657,-3.96493 -2.7207,-5.95703 v -0.002 h -0.002 c -0.65972,-1.43715 -1.31753,-2.87574 -1.97461,-4.31446 l -0.002,-0.004 c -3.71128,-8.13242 -7.45141,-16.24954 -11.2168,-24.35352 v -0.002 l -1.17773,-2.5332 c -1.59124,-3.42243 -3.18217,-6.84371 -4.77344,-10.26563 v -0.002 h -0.002 c -5.9422,-12.77367 -11.77198,-25.56415 -17.4375,-38.41211 v -0.002 c -5.74156,-13.02359 -11.63978,-25.9336 -17.62891,-38.78321 -5.5931,-11.99995 -11.09258,-23.98452 -16.40039,-36.01562 l -0.002,-0.004 c -5.6615,-12.84313 -11.44542,-25.6282 -17.37891,-38.365233 v -0.002 -0.002 C 181.6922,77.712154 176.1265,65.714886 170.80664,53.689453 l -0.002,-0.0039 C 161.90082,33.543255 152.77755,13.645793 143.63086,-6.2617188 L 139.61523,-15 Z M 0,0 h 130 c 9.14401,19.901669 18.23855,39.736928 27.08789,59.755859 5.39257,12.189927 10.99807,24.276132 16.62891,36.357422 5.88704,12.637339 11.62861,25.329309 17.25195,38.085939 5.36813,12.16795 10.91284,24.24653 16.53125,36.30078 5.95706,12.78082 11.81173,25.59726 17.5,38.5 5.71565,12.96168 11.5875,25.84332 17.5625,38.6875 1.59123,3.42184 3.18243,6.8437 4.77344,10.26562 l 1.17773,2.53126 c 3.75228,8.07578 7.4768,16.16245 11.17383,24.26367 0.66163,1.4487 1.3258,2.89829 1.99023,4.3457 0.90693,1.97641 1.80833,3.95432 2.70899,5.93359 l 1.53711,3.36719 C 266.99927,301.00024 267,301 267,303 H 144 C 127,265.07692 127,265.07692 127,262 H -14 l -1,5 -13,36 h -123 c 1.54604,-4.63813 3.25566,-8.79422 5.4375,-13.12305 l 1.04883,-2.10351 c 1.15513,-2.31589 2.31573,-4.62837 3.47656,-6.94141 0.83169,-1.66445 1.66312,-3.32936 2.49414,-4.99414 2.25715,-4.51915 4.52006,-9.03658 6.7832,-13.55273 2.37626,-4.7437 4.74657,-9.48884 7.11915,-14.23438 3.9921,-7.98327 7.98912,-15.96458 11.98632,-23.94531 4.59882,-9.182 9.19289,-18.36747 13.785159,-27.55274 4.909856,-9.82039 9.822541,-19.6386 14.736329,-29.45703 1.403715,-2.80531 2.805955,-5.61035 4.208984,-8.41601 2.224121,-4.44723 4.452003,-8.89441 6.679687,-13.33985 0.809204,-1.61553 1.616011,-3.23143 2.423829,-4.84765 4.660154,-9.32242 9.42175,-18.5829 14.292968,-27.79688 3.252762,-6.15673 6.422971,-12.34903 9.527344,-18.582029 l 1.595703,-3.191406 c 1.659946,-3.320622 3.317556,-6.642777 4.974609,-9.964844 1.042053,-2.085581 2.084535,-4.170461 3.126954,-6.255859 C -33.491201,67.07292 -29.683424,59.442304 -25.875,51.8125 Z M 302,0 H 410 V 308 H 302 Z m 709,0 h 107 v 308 h -95 l -1,-40 -8,10 c -24.38143,27.06723 -58.00974,40.99672 -94.02344,43.18359 C 883.08617,322.06194 848.7807,308.8172 821.79492,283.78906 802.34441,265.11084 787.2154,237.09508 785.83984,209.80273 785.47031,179.67092 785.46934,179.67117 789,168 c 0.19868,-0.69416 0.39686,-1.38832 0.60156,-2.10352 C 795.4461,145.67045 805.52642,129.32203 820,114 c 0.68578,-0.75023 1.37156,-1.50047 2.07812,-2.27344 C 828.34082,105.11593 835.4677,100.04262 843,95 c 0.83273,-0.567188 1.66547,-1.134375 2.52344,-1.71875 10.26969,-6.589426 22.03967,-10.789242 33.72656,-14.09375 0.6832,-0.194729 1.36641,-0.389214 2.07031,-0.589844 11.00709,-2.947772 21.9992,-3.964825 33.36719,-3.910156 1.83256,0.0074 1.83353,0.0081 3.70312,0.01563 C 952.60103,75.143285 985.71711,88.717113 1010,113 Z m 360,0 h 107 v 308 h -95 l -1,-40 -8,10 c -23.3165,25.88502 -56.254,40.99918 -91,43 -37.1223,1.80152 -72.0013,-10.94108 -99.5625,-35.6875 -20.5842,-19.091 -36.3921,-47.89784 -37.5625,-76.33789 -0.6425,-28.39409 -0.642,-28.39433 3.125,-40.97461 0.1987,-0.69561 0.3969,-1.39073 0.6016,-2.10742 5.8451,-20.22363 15.9265,-36.57233 30.3984,-51.89258 0.6858,-0.75023 1.3716,-1.50047 2.0781,-2.27344 6.2627,-6.61063 13.3896,-11.68394 20.9219,-16.72656 0.8327,-0.567188 1.6655,-1.134375 2.5234,-1.71875 10.2697,-6.589426 22.0397,-10.789242 33.7266,-14.09375 l 2.0703,-0.589844 c 11.0071,-2.947772 21.9992,-3.964825 33.3672,-3.910156 1.8326,0.0074 1.8317,0.0081 3.7012,0.01563 C 1312.5992,75.143285 1345.7171,88.717113 1370,113 Z m 552.0918,66.416016 c -18.9288,-0.335816 -37.6248,2.313103 -54.1465,7.173828 l -0.1738,0.05078 -0.1719,0.05664 c -1.0691,0.342807 -2.1069,0.67511 -3.1445,1.007812 0,8.97e-4 2e-4,0.003 -0.01,0.0039 -13.7332,4.367522 -25.8242,10.431359 -37.3105,17.277344 L 1827.5234,73 H 1691 v 249 h 141.8613 L 1833,307.13867 c 0.1488,-16.0225 0.2931,-31.57374 0.4375,-47.125 v -0.002 -0.002 c 0.1176,-13.16132 0.2374,-26.30534 0.4082,-39.42969 v -0.008 c 0.082,-6.07261 0.1581,-12.1845 0.1797,-18.33789 v -0.004 -0.002 c 0.011,-3.56723 0.035,-7.12673 0.076,-10.67969 v -0.0215 c 0.022,-1.66526 0.042,-3.33018 0.059,-4.99609 v -0.0996 -0.0996 c -0.033,-9.60038 -0.1696,-12.20295 3.164,-16.41601 5.2533,-5.54364 16.4483,-10.25779 25.8242,-11.10352 12.5562,-0.50984 23.3438,2.05088 31.4981,8.89844 4.2692,4.67513 5.9179,9.60456 5.9726,17.19336 -0.017,1.13431 -0.032,2.24426 -0.049,3.34961 v 0.11718 0.11719 c 0,4.07161 5e-4,8.09568 -0.039,12.07617 -0.037,3.70142 -0.051,7.38471 -0.058,11.05078 v 0.002 c -0.011,6.85646 -0.044,13.7154 -0.094,20.57617 -0.069,9.49001 -0.1032,18.96419 -0.1328,28.42383 -0.019,5.9513 -0.043,11.90644 -0.068,17.86523 -0.06,9.66423 -0.1178,19.04528 -0.1757,28.42578 L 1899.9082,322 h 141.0566 l 0.037,-14.96289 c 0.036,-15.04971 0.077,-30.10776 0.096,-45.17383 0.012,-9.58766 0.022,-19.16662 0.049,-28.73633 0.02,-7.08095 0.037,-14.16616 0.043,-21.25586 v -0.002 -0.002 c 0,-3.75659 -4e-4,-7.49509 0.016,-11.2168 v -0.002 c 0.035,-8.71536 0.06,-17.52612 -0.098,-26.4336 v -0.0977 -0.0996 c -0.8334,-26.95693 -7.4534,-55.61813 -29.873,-76.998049 l -0.2539,-0.242187 -0.2657,-0.230469 C 1986.8441,75.826448 1954.6475,66.975709 1923.0996,66.416016 Z M 59,69 c -4.235834,8.797879 -7.694278,17.846718 -11.128906,26.976562 -1.750685,4.651738 -3.514056,9.298348 -5.277344,13.945318 l -1.125,2.96484 c -4.309825,11.35087 -8.698891,22.67012 -13.09375,33.98828 -0.801352,2.06535 -1.602947,4.12997 -2.404297,6.19531 -3.404431,8.77036 -6.815089,17.53806 -10.244141,26.29883 -1.33014,3.39838 -2.658136,6.79812 -3.986328,10.19727 -0.90707,2.31783 -1.8174017,4.63493 -2.7285152,6.95117 -0.5390706,1.37835 -1.0784691,2.75627 -1.6171876,4.13476 L 5.984375,204.24609 C 4.8886185,206.82673 4.8878861,206.82649 5,209 h 108 c -4.48202,-12.82412 -4.48203,-12.82412 -9.23438,-25.53906 l -0.83398,-2.16211 c -0.58719,-1.52052 -1.17634,-3.03888 -1.76562,-4.5586 -1.293267,-3.33564 -2.579298,-6.674 -3.867192,-10.01171 -0.690438,-1.78919 -1.381297,-3.57821 -2.072266,-5.36719 C 91.111839,150.70646 87.022744,140.0412 82.9375,129.375 l -1.138672,-2.97461 C 74.47819,107.28723 67.221469,88.150827 60,69 Z m 544.74414,4.152344 C 652.1501,73.405802 700.46718,83.041266 729,100.25977 c 0,0 1.84713,1.3485 2.68359,2.1289 3.36028,3.13504 6.36188,6.57501 9.31641,10.20313 l 1.94531,2.3125 c 16.34228,20.01997 21.0442,40.95259 21.3711,66.53906 0.0208,1.41685 0.0412,2.83316 0.0625,4.25 0.0557,3.80746 0.10658,7.61626 0.15429,11.42383 0.0301,2.37561 0.0616,4.75137 0.0937,7.12695 -0.19332,17.12672 -1.62028,74.39906 3.73243,86.91016 0.0682,0.15937 13.51765,15.65002 -3.7129,15.86132 C 754.45171,307.00412 699.19351,306.67414 661,306.80469 l -1,-31.85547 -5.0625,4.49609 C 619.71178,309.8767 576.58179,314.7914 532,313.99805 l -2.39258,-0.0391 c -26.35335,-0.56852 -56.84437,-3.12548 -76.98242,-22.43945 -10.60827,-11.59054 -13.97264,-26.76807 -13.83984,-42.24805 0.67432,-17.85676 7.8769,-34.41074 20.58984,-46.57421 18.22442,-15.63779 41.71315,-20.1696 64.69141,-22.81836 l 3.38086,-0.39649 c 13.66957,-1.54568 27.3809,-2.47044 41.09961,-3.41601 12.23045,-0.8509 24.4146,-1.81873 36.58203,-3.37305 l 2.93164,-0.375 c 15.29321,-2.04728 30.41262,-4.951 40.69726,-17.76953 3.2039,-4.85557 2.9672,-10.65371 2.24219,-16.26758 -3.11888,-8.64645 -10.21226,-12.70299 -18,-16.44141 -15.41115,-5.00355 -33.71031,-5.21226 -49.00781,-2.89062 -7.61429,3.60821 -14.86943,8.03939 -18.27344,16.25976 -1.69826,3.78922 -3.33247,6.88369 -6.71875,9.23829 -7.55555,2.34432 -15.96202,1.4273 -23.75,1.20312 -2.34265,-0.023 -4.68461,-0.0404 -7.02734,-0.0527 -6.15001,-0.047 -12.29666,-0.16804 -18.44532,-0.30469 -6.28055,-0.12642 -12.56233,-0.18205 -18.84375,-0.24414 -12.3127,-0.13203 -24.62286,-0.34179 -36.93359,-0.60156 0.46239,-1.79586 0.92864,-3.59236 1.39648,-5.38672 l 0.78516,-3.02735 c 1.09895,-3.88173 2.55305,-7.44167 4.31836,-11.04687 l 1.0293,-2.10547 c 3.74629,-7.26781 8.73738,-12.8449 14.4707,-18.50977 l 1.95312,-2.03125 C 506.84334,82.028339 555.33818,72.898885 603.74414,73.152344 Z m 1318.74996,8.640625 c 28.8792,0.66906 58.27,8.625189 78.3809,26.082031 18.7054,17.83791 24.4611,41.65749 25.2324,66.60547 0.154,8.70336 0.1304,17.40711 0.096,26.11133 -0.013,3.75551 -0.014,7.51009 -0.016,11.26562 -0.01,7.07544 -0.022,14.15115 -0.043,21.22656 -0.027,9.58658 -0.039,19.17317 -0.051,28.75977 -0.019,15.05198 -0.058,30.10428 -0.094,45.15625 h -111 c 0.058,-9.38953 0.116,-18.77905 0.1758,-28.45312 0.026,-5.96094 0.05,-11.92185 0.068,-17.88282 0.03,-9.45424 0.064,-18.90728 0.1329,-28.36133 0.05,-6.88679 0.081,-13.77514 0.092,-20.66211 0.01,-3.64249 0.022,-7.28345 0.058,-10.92578 0.041,-4.0786 0.041,-8.15751 0.039,-12.23632 0.018,-1.19115 0.037,-2.38213 0.055,-3.60938 -0.065,-10.69487 -3.0865,-20.29794 -10.6231,-28.12695 -11.9556,-10.41448 -27.3974,-13.61493 -42.8515,-12.92188 -12.8327,1.07084 -27.3281,6.54175 -36.1485,16.17969 -6.7116,8.15171 -6.8743,16.29058 -6.8398,26.38281 -0.016,1.65678 -0.035,3.31399 -0.057,4.97071 -0.042,3.60964 -0.065,7.21825 -0.076,10.82812 -0.021,6.06599 -0.098,12.13184 -0.1797,18.19727 -0.1714,13.1655 -0.2925,26.32994 -0.4102,39.49609 -0.1444,15.55125 -0.2888,31.1025 -0.4375,47.125 h -112 V 88 h 107 l 1,31 c 2.5781,-1.75312 5.1562,-3.50625 7.8125,-5.3125 C 1837.2334,103.38213 1852.2581,94.641248 1870,89 c 1.0493,-0.336445 2.0986,-0.672891 3.1797,-1.019531 14.8432,-4.366931 31.987,-6.588936 49.3144,-6.1875 z M 1569.1055,82.875 c 1.5375,0.0054 1.5369,0.0062 3.1054,0.01172 h 3.252 c 3.5658,7e-4 7.1315,0.0078 10.6973,0.01563 2.4648,0.0019 4.9297,0.0029 7.3945,0.0039 6.502,0.0038 13.0038,0.01435 19.5058,0.02539 6.6289,0.01075 13.2579,0.01448 19.8868,0.01953 13.0176,0.01074 26.0352,0.02763 39.0527,0.04883 -1.2831,8.150742 -2.8333,16.203211 -4.6191,24.25781 -0.2562,1.16691 -0.5115,2.33288 -0.7754,3.53516 -0.6994,3.18319 -1.4022,6.3665 -2.1055,9.54883 -0.7509,3.40109 -1.4983,6.80329 -2.2461,10.20508 -1.4394,6.54471 -2.8825,13.08906 -4.3262,19.63281 -1.6568,7.51033 -3.3095,15.02018 -4.9629,22.53125 -2.9383,13.34709 -5.881,26.69303 -8.8242,40.03906 -2.7284,12.37297 -5.4517,24.74868 -8.1738,37.12305 -1.3804,6.27386 -2.7624,12.54682 -4.1445,18.82031 -0.7127,3.23514 -1.4251,6.46973 -2.1368,9.70508 -0.8141,3.70057 -1.6301,7.40164 -2.4472,11.10156 -0.4258,1.9302 -0.8492,3.86046 -1.2735,5.79102 -0.2478,1.12031 -0.4947,2.24027 -0.75,3.39453 -0.2123,0.96309 -0.4257,1.92569 -0.6445,2.91797 C 1623.9998,303.99928 1624,304 1623,307 h -113 c 4.6254,-21.97062 4.6256,-21.97043 7.0332,-32.37109 0.1767,-0.76446 0.3531,-1.52879 0.5352,-2.31641 0.1829,-0.79082 0.3662,-1.5817 0.5546,-2.39648 0.3949,-1.71425 0.7889,-3.42826 1.1836,-5.14258 1.0584,-4.59588 2.1187,-9.19183 3.1797,-13.78711 1.1209,-4.85615 2.2403,-9.71179 3.3594,-14.56836 2.1198,-9.19813 4.241,-18.3962 6.3633,-27.59375 2.3939,-10.37525 4.786,-20.75118 7.1777,-31.12695 2.9275,-12.70003 5.8559,-25.39998 8.7852,-38.09961 0.2064,-0.89521 0.4123,-1.79055 0.625,-2.71289 0.9945,-4.31154 1.9901,-8.62246 2.9863,-12.9336 1.5587,-6.74704 3.1168,-13.49524 4.6504,-20.24805 0.4328,-1.90569 0.8665,-3.811436 1.3008,-5.716792 0.5111,-2.244229 1.0186,-4.488718 1.5234,-6.734375 0.2185,-0.957582 0.437,-1.915745 0.6621,-2.902344 0.1863,-0.824285 0.3727,-1.64683 0.5645,-2.496093 0.6708,-2.413472 0.8315,-2.807734 3.3574,-2.976563 1.2154,0.0014 1.2152,5.53e-4 2.4551,0.002 0.927,-0.0014 1.8536,-0.0024 2.8086,-0.0039 z M 59.0625,108.7832 c 2.912622,7.66043 5.796272,15.32676 8.728516,22.98242 v 0.002 l 1.138672,2.97265 c 4.086382,10.66918 8.179196,21.34771 12.302734,32.02539 h 0.002 c 0.690442,1.78763 1.380421,3.57551 2.070313,5.36329 1.287321,3.33622 2.577299,6.68108 3.876953,10.0332 0.586829,1.5134 1.173126,3.02698 1.757812,4.54101 l 0.794922,2.06641 c 0.980561,2.62349 1.243779,3.48771 1.892578,5.23047 H 26.111328 c 1.194409,-3.05675 2.38965,-6.1107 3.583984,-9.16211 3.436663,-8.78021 6.852728,-17.56081 10.259766,-26.33789 v -0.002 -0.002 c 0.80083,-2.064 1.601518,-4.12741 2.402344,-6.1914 l 0.002,-0.004 c 4.395879,-11.32079 8.798381,-22.67416 13.132813,-34.08984 l 0.002,-0.004 1.123047,-2.96289 0.002,-0.004 c 0.813876,-2.14489 1.628257,-4.30568 2.443359,-6.45703 z m 901.51953,27.90821 C 941.78276,136.00377 927.00057,142.19088 914,156 c -11.02708,13.61487 -16.15544,30.73355 -14.66992,48.1582 1.939,16.96734 9.91024,32.45834 22.98437,43.57032 11.79986,8.91059 25.08244,12.3354 39.68555,11.27148 15.08258,-2.12976 27.92816,-10.1743 37.125,-22.125 11.057,-15.82373 14.9808,-33.23644 11.7227,-52.33203 C 1008.1724,173.36113 1003.4352,163.84306 996,155 l -1.57422,-1.94922 c -8.26723,-9.26679 -21.56341,-15.63761 -33.84375,-16.35937 z m 359.99997,0 C 1301.7828,136.00377 1287.0006,142.19088 1274,156 c -11.0271,13.61487 -16.1554,30.73355 -14.6699,48.1582 1.939,16.96734 9.9103,32.45834 22.9844,43.57032 11.7999,8.91059 25.0824,12.3354 39.6855,11.27148 15.0826,-2.12976 27.9282,-10.1743 37.125,-22.125 10.2317,-14.64261 14.8776,-31.35994 12.123,-49.09766 C 1368.917,175.10441 1364.162,164.96526 1356,155 c -0.7812,-0.97066 -0.7812,-0.97066 -1.5781,-1.96094 -8.2894,-9.25224 -21.5505,-15.62536 -33.8399,-16.34765 z m -360.74802,14.99804 c 7.70961,0.5 18.10693,5.48856 23.32227,11.28125 0.39385,0.48768 0.78652,0.97356 1.17383,1.45313 l 0.0937,0.11523 0.0957,0.11328 c 5.93816,7.06255 9.40916,14.00211 11.60742,22.92969 2.491,15.24642 -0.31205,27.6525 -9.06054,40.33203 -6.94489,8.9318 -15.94091,14.48411 -26.72657,16.125 -11.16426,0.71199 -19.92551,-1.60938 -28.59961,-8.03711 -9.88141,-8.53616 -15.90946,-20.18537 -17.46289,-33.33984 -1.09055,-13.42874 2.77794,-26.31557 11.0918,-36.78906 10.40258,-10.88138 19.5836,-14.68854 34.46484,-14.1836 z m 360.00002,0 c 7.7129,0.50002 18.0646,5.46722 23.3281,11.28125 0.3524,0.43784 0.5815,0.72431 1.1524,1.4336 l 0.041,0.0508 0.041,0.0488 c 6.7647,8.25924 10.1145,15.40163 12.0527,25.78906 2.057,13.59502 -1.2539,25.84263 -9.4375,37.68164 -6.9378,8.89316 -15.9129,14.42761 -26.6719,16.06445 -11.1643,0.71199 -19.9255,-1.60938 -28.5996,-8.03711 -9.8814,-8.53616 -15.9095,-20.18537 -17.4629,-33.33984 -1.0906,-13.42874 2.7779,-26.31557 11.0918,-36.78906 10.4025,-10.88138 19.5837,-14.68854 34.4649,-14.1836 z M 653,199.93555 c -2.78302,0 -5.34013,0.64244 -8.07031,1.20507 -15.69135,3.16814 -31.30199,5.8747 -47.20508,7.6504 -14.73954,1.70446 -29.68406,4.96871 -40.09961,16.69726 -4.08515,5.50966 -6.42748,11.29899 -6.07031,18.29688 1.32024,7.09272 4.8704,13.10446 10.42969,17.48828 16.6517,11.1089 35.97997,11.27113 55.01562,7.51172 13.11313,-3.48089 26.08717,-8.70743 34,-20.55274 2.97912,-5.84429 3.12704,-12.20098 3.13281,-18.69336 l 0.004,-2.07812 c 6.8e-4,-1.44128 -0.002,-2.88294 -0.006,-4.32422 -0.005,-2.19615 -1.7e-4,-4.39174 0.006,-6.58789 -6.6e-4,-1.40691 -0.002,-2.8138 -0.004,-4.22071 l -0.004,-3.84374 c -0.11335,-2.98641 -0.45512,-5.64973 -1.12891,-8.54883 z m -13.86328,17.52734 c -0.005,1.89038 -0.0101,3.78683 -0.006,5.70703 v 0.004 0.004 c 0.004,1.42519 0.007,2.85049 0.006,4.27539 l -0.004,2.06836 v 0.004 c -0.005,5.7449 -0.42032,9.00368 -1.30273,11.15625 -4.85747,6.59596 -13.03506,10.4427 -24.16602,13.44727 -16.55502,3.21273 -30.66547,2.74322 -42.66211,-4.93164 -2.27561,-1.88518 -3.59701,-4.11442 -4.34961,-7.16602 0.0268,-2.40422 0.67289,-4.24951 2.71875,-7.09766 6.61724,-7.02152 16.70198,-9.69366 30.07618,-11.24023 l -0.0586,0.006 c 13.49359,-1.50666 26.65874,-3.7435 39.74805,-6.23633 z"
     transform="translate(180,129)"
     inkscape:label="AladdinOutline" /><path
     id="path23"
     style="display:inline;fill:#60d256;stroke-linecap:square;paint-order:stroke markers fill"
     d="m 0,0 h 130 c 9.14401,19.901669 18.23806,39.735952 27.0874,59.754883 5.39257,12.189927 10.99947,24.276498 16.63031,36.357788 5.88704,12.637339 11.62819,25.329429 17.25153,38.086059 5.36813,12.16795 10.91235,24.24702 16.53076,36.30127 5.95706,12.78082 11.81173,25.59726 17.5,38.5 5.71565,12.96168 11.5875,25.84332 17.5625,38.6875 1.59123,3.42184 3.18243,6.84369 4.77344,10.26562 l 1.17686,2.53112 c 3.75228,8.07578 7.47813,16.16347 11.17516,24.26469 0.66163,1.4487 1.32464,2.89677 1.98907,4.34418 0.90693,1.97641 1.80903,3.95496 2.70969,5.93423 l 1.53784,3.36695 C 267,301 267,301 267,303 H 144 C 127,265.07692 127,265.07692 127,262 H -14 l -1,5 -13,36 h -123 c 1.54604,-4.63813 3.25627,-8.79463 5.43811,-13.12346 l 1.048,-2.10331 c 1.15513,-2.31589 2.31595,-4.62889 3.47678,-6.94193 0.83169,-1.66445 1.66303,-3.32907 2.49405,-4.99385 2.25715,-4.51915 4.51929,-9.03577 6.78243,-13.55192 2.37626,-4.7437 4.74828,-9.48953 7.12086,-14.23507 3.99211,-7.98327 7.9873,-15.96499 11.9845,-23.94572 4.59882,-9.182 9.19352,-18.36605 13.785788,-27.55132 4.909856,-9.82039 9.822773,-19.63925 14.736561,-29.45768 1.403715,-2.80531 2.806873,-5.6109 4.209902,-8.41656 2.224121,-4.44723 4.450321,-8.89341 6.678005,-13.33885 0.809204,-1.61553 1.617772,-3.23138 2.42559,-4.8476 4.660154,-9.32242 9.42118,-18.58324 14.292398,-27.79722 3.252762,-6.15673 6.423141,-12.34996 9.527514,-18.582961 l 1.59561,-3.190854 c 1.659946,-3.320622 3.317162,-6.642597 4.974215,-9.964664 1.042053,-2.085581 2.084289,-4.171071 3.126708,-6.256469 C -33.491446,67.07231 -29.683424,59.442304 -25.875,51.8125 Z m 59,69 c -4.235834,8.797879 -7.693607,17.846656 -11.128235,26.976501 -1.750685,4.651739 -3.514727,9.298409 -5.278015,13.945379 l -1.124176,2.96444 C 37.159749,124.23719 32.769859,135.55684 28.375,146.875 c -0.801352,2.06535 -1.602703,4.1307 -2.404053,6.19604 -3.404431,8.77036 -6.81515,17.53819 -10.244201,26.29896 -1.33014,3.39838 -2.658259,6.79756 -3.986451,10.19671 -0.90707,2.31783 -1.8179509,4.63414 -2.7290645,6.95038 -0.5390705,1.37835 -1.0779808,2.75676 -1.6166993,4.13525 l -1.4108886,3.59351 C 4.8878861,206.82649 4.8878861,206.82649 5,209 h 108 c -4.48202,-12.82412 -4.48202,-12.82412 -9.23437,-25.53906 l -0.83419,-2.16114 c -0.58719,-1.52052 -1.17544,-3.04064 -1.76472,-4.56036 -1.293263,-3.33564 -2.580623,-6.67355 -3.868517,-10.01126 -0.690438,-1.78919 -1.381145,-3.57827 -2.072114,-5.36725 C 91.111366,150.70606 87.022744,140.0412 82.9375,129.375 l -1.139221,-2.97372 C 74.477641,107.28812 67.221469,88.150827 60,69 Z M 302,0 H 410 V 308 H 302 Z m 427,100.26042 c 0,0 1.84713,1.34702 2.68359,2.12742 3.36028,3.13504 6.36188,6.57547 9.31641,10.20359 l 1.94531,2.31206 c 16.34228,20.01997 21.0442,40.95362 21.3711,66.54009 0.0208,1.41685 0.0418,2.83369 0.0631,4.25053 0.0557,3.80746 0.1052,7.61497 0.15291,11.42254 0.0301,2.37561 0.062,4.75119 0.0942,7.12677 -0.19332,17.12672 -1.61969,74.39898 3.73301,86.91008 0.0682,0.15937 13.51731,15.64989 -3.71324,15.8612 -10.19477,-0.0115 -65.45294,-0.34035 -103.64645,-0.2098 l -1,-31.85511 -5.0625,4.49568 C 619.71172,309.87686 576.58179,314.79128 532,313.99793 l -2.39258,-0.0392 c -26.35335,-0.56852 -56.84437,-3.12529 -76.98242,-22.43926 -10.60827,-11.59054 -13.97264,-26.76738 -13.83984,-42.24736 0.67432,-17.85676 7.8769,-34.41098 20.58984,-46.57445 18.22442,-15.63779 41.71315,-20.17084 64.69141,-22.8196 l 3.38119,-0.39475 c 13.66957,-1.54568 27.38009,-2.47197 41.09879,-3.41754 12.23046,-0.8509 24.41509,-1.81845 36.58252,-3.37277 l 2.93081,-0.37393 c 15.29321,-2.04728 30.41345,-4.95082 40.69809,-17.76935 3.2039,-4.85557 2.9672,-10.65486 2.24219,-16.26873 -3.11888,-8.64645 -10.21226,-12.70293 -18,-16.44135 -15.41115,-5.00355 -33.71031,-5.21172 -49.00781,-2.89008 -7.61429,3.60821 -14.86943,8.03965 -18.27344,16.26002 -1.69826,3.78922 -3.33247,6.88231 -6.71875,9.23691 -7.55555,2.34432 -15.96202,1.42838 -23.75,1.2042 -2.34265,-0.023 -4.68535,-0.0406 -7.02808,-0.0529 -6.15001,-0.047 -12.29659,-0.16797 -18.44525,-0.30462 -6.28055,-0.12642 -12.56166,-0.18252 -18.84308,-0.24461 -12.3127,-0.13203 -24.62286,-0.34233 -36.93359,-0.6021 0.46239,-1.79586 0.92864,-3.59067 1.39648,-5.38503 l 0.78553,-3.02908 c 1.09895,-3.88173 2.55268,-7.44057 4.31799,-11.04577 l 1.0293,-2.10509 c 3.74629,-7.26781 8.73738,-12.84594 14.4707,-18.51081 l 1.95313,-2.03109 C 535.73357,61.71658 671.93437,65.82342 729,100.26042 Z m -84.07031,100.87987 c -15.69135,3.16814 -31.30248,5.87598 -47.20557,7.65168 -14.73954,1.70446 -29.68357,4.9687 -40.09912,16.69725 -4.08515,5.50966 -6.42748,11.29792 -6.07031,18.29581 1.32024,7.09272 4.87041,13.10519 10.42969,17.48901 16.6517,11.1089 35.97997,11.2696 55.01562,7.51019 13.11313,-3.48089 26.08717,-8.70638 34,-20.55169 2.97912,-5.84429 3.12704,-12.20082 3.13281,-18.6932 l 0.003,-2.07924 c 6.8e-4,-1.44128 -10e-4,-2.88256 -0.005,-4.32384 -0.005,-2.19615 -3e-5,-4.39208 0.006,-6.58823 -6.6e-4,-1.40691 -0.002,-2.81382 -0.004,-4.22073 l -0.003,-3.84364 c -0.11335,-2.98641 -0.45562,-5.64847 -1.12941,-8.54757 -2.78302,0 -5.34013,0.64157 -8.07031,1.2042 z M 1011,0 c 35.31,0 70.62,0 107,0 0,101.64 0,203.28 0,308 -31.35,0 -62.7,0 -95,0 -0.33,-13.2 -0.66,-26.4 -1,-40 -2.64,3.3 -5.28,6.6 -8,10 -24.38143,27.06723 -58.00974,40.99672 -94.02344,43.18359 -36.89039,0.87835 -71.19561,-12.36614 -98.18139,-37.39428 -19.45051,-18.67822 -34.58074,-46.69398 -35.9563,-73.98633 C 785.46934,179.67117 785.46934,179.67117 789,168 c 0.19868,-0.69416 0.39735,-1.38832 0.60205,-2.10352 C 795.44659,145.67045 805.52642,129.32203 820,114 c 0.68578,-0.75023 1.37156,-1.50047 2.07813,-2.27344 C 828.34083,105.11593 835.4677,100.04262 843,95 c 0.83273,-0.567188 1.66547,-1.134375 2.52344,-1.71875 10.26969,-6.589426 22.03967,-10.789242 33.72656,-14.09375 0.6832,-0.194729 1.36641,-0.389458 2.07031,-0.590088 11.00709,-2.947772 21.9992,-3.964581 33.36719,-3.909912 1.83256,0.0074 1.83256,0.0074 3.70215,0.01489 C 952.60006,75.14255 985.71711,88.717113 1010,113 c 0.33,-37.29 0.66,-74.58 1,-113 z m -97,156 c -11.02708,13.61487 -16.15495,30.73331 -14.66943,48.15796 1.939,16.96734 9.91024,32.4576 22.98437,43.56958 C 934.1148,256.63813 947.39689,260.06392 962,259 c 15.08258,-2.12976 27.92816,-10.1743 37.125,-22.125 11.057,-15.82373 14.9808,-33.23644 11.7227,-52.33203 C 1008.1724,173.36113 1003.4352,163.84306 996,155 c -0.51949,-0.64324 -1.03898,-1.28648 -1.57422,-1.94922 -8.26723,-9.26679 -21.56341,-15.63761 -33.84375,-16.35937 C 941.78276,136.00377 927.00057,142.19088 914,156 Z M 1371,0 c 35.31,0 70.62,0 107,0 0,101.64 0,203.28 0,308 -31.35,0 -62.7,0 -95,0 -0.33,-13.2 -0.66,-26.4 -1,-40 -2.64,3.3 -5.28,6.6 -8,10 -23.3165,25.88502 -56.254,40.99918 -91,43 -37.1223,1.80152 -72.0013,-10.94108 -99.5625,-35.6875 -20.5842,-19.091 -36.3916,-47.89808 -37.562,-76.33813 C 1145.233,180.58028 1145.233,180.58028 1149,168 c 0.1987,-0.69561 0.3974,-1.39122 0.6021,-2.10791 5.8451,-20.22363 15.926,-36.57184 30.3979,-51.89209 0.6858,-0.75023 1.3716,-1.50047 2.0781,-2.27344 6.2627,-6.61063 13.3896,-11.68394 20.9219,-16.72656 0.8327,-0.567188 1.6655,-1.134375 2.5234,-1.71875 10.2697,-6.589426 22.0397,-10.789242 33.7266,-14.09375 0.6832,-0.194729 1.3664,-0.389458 2.0703,-0.590088 11.0071,-2.947772 21.9992,-3.964581 33.3672,-3.909912 1.8326,0.0074 1.8326,0.0074 3.7021,0.01489 34.2105,0.44016 67.3275,14.014723 91.6104,38.29761 0.33,-37.29 0.66,-74.58 1,-113 z m -97,156 c -11.0271,13.61487 -16.1549,30.73331 -14.6694,48.15796 1.939,16.96734 9.9102,32.4576 22.9843,43.56958 11.7999,8.91059 25.082,12.33638 39.6851,11.27246 15.0826,-2.12976 27.9282,-10.1743 37.125,-22.125 10.2317,-14.64261 14.8776,-31.3592 12.123,-49.09692 C 1368.917,175.10515 1364.162,164.96526 1356,155 c -0.7812,-0.97066 -0.7812,-0.97066 -1.5781,-1.96094 -8.2894,-9.25224 -21.5505,-15.62536 -33.8399,-16.34765 C 1301.7828,136.00377 1287.0006,142.19088 1274,156 Z m 289.841,-73.12305 c 1.2154,0.0014 1.2154,0.0014 2.4553,0.0028 0.927,-0.0014 1.8539,-0.0027 2.8089,-0.0042 1.5375,0.0054 1.5375,0.0054 3.106,0.01089 1.6096,-2.19e-4 1.6096,-2.19e-4 3.2517,-4.42e-4 3.5658,7e-4 7.1315,0.0085 10.6973,0.01631 2.4648,0.0019 4.9296,0.0033 7.3944,0.0043 6.502,0.0038 13.0039,0.01366 19.5059,0.0247 6.6289,0.01075 13.2579,0.01479 19.8868,0.01984 13.0176,0.01074 26.0352,0.02763 39.0527,0.04883 -1.2831,8.150742 -2.8335,16.202971 -4.6193,24.257572 -0.2562,1.16691 -0.5123,2.33383 -0.7762,3.53611 -0.6994,3.18319 -1.4014,6.36578 -2.1047,9.54811 -0.7509,3.40109 -1.4983,6.80297 -2.2461,10.20475 -1.4394,6.54471 -2.8818,13.08871 -4.3255,19.63246 -1.6568,7.51033 -3.3105,15.02136 -4.9639,22.53243 -2.9383,13.34709 -5.8797,26.69348 -8.8229,40.03951 -2.7284,12.37297 -5.4523,24.74696 -8.1744,37.12133 -1.3804,6.27386 -2.7623,12.54738 -4.1444,18.82087 -0.7127,3.23514 -1.4249,6.4704 -2.1366,9.70575 -0.8141,3.70057 -1.6298,7.4008 -2.4469,11.10072 -0.4258,1.9302 -0.8501,3.86075 -1.2744,5.79131 -0.2478,1.12031 -0.4955,2.24061 -0.7508,3.39487 -0.2123,0.96309 -0.4246,1.92619 -0.6434,2.91847 C 1624,304 1624,304 1623,307 c -37.29,0 -74.58,0 -113,0 4.6254,-21.97062 4.6254,-21.97062 7.033,-32.37128 0.1767,-0.76446 0.3534,-1.52891 0.5355,-2.31653 0.1829,-0.79082 0.3657,-1.58164 0.5541,-2.39642 0.3949,-1.71425 0.7897,-3.42855 1.1844,-5.14287 1.0584,-4.59588 2.1191,-9.19126 3.1801,-13.78654 1.1209,-4.85615 2.2397,-9.71278 3.3588,-14.56935 2.1198,-9.19813 4.2414,-18.39584 6.3637,-27.59339 2.3939,-10.37525 4.7857,-20.75098 7.1774,-31.12675 2.9275,-12.70003 5.8555,-25.39997 8.7848,-38.0996 0.2064,-0.89521 0.4129,-1.79042 0.6256,-2.71276 0.9945,-4.31154 1.9894,-8.62296 2.9856,-12.9341 1.5587,-6.74704 3.1165,-13.49418 4.6501,-20.24698 0.4328,-1.9057 0.8671,-3.811068 1.3014,-5.716424 0.5111,-2.244229 1.0194,-4.489109 1.5242,-6.734766 0.2185,-0.957582 0.437,-1.915164 0.6621,-2.901763 0.1863,-0.824285 0.3725,-1.648569 0.5643,-2.497832 0.6708,-2.413472 0.83,-2.806866 3.3559,-2.975695 z m 112.2059,-89.96289 c 6.9603,7.4659799 10.3761,16.135068 10.2266,26.304687 -0.9652,9.817148 -5.9666,17.937788 -13.1524,24.496094 -15.7423,12.49841 -33.6925,14.630474 -53.1211,13.285156 -13.7162,-1.643014 -26.7623,-8.833264 -36,-19 -6.6569,-8.624162 -7.9599,-17.250723 -7,-28 2.6816,-10.7118204 8.9184,-18.0234668 18,-24 25.3417,-14.762447 59.0278,-13.676352 81.0469,6.914063 z M 2000.875,107.875 c 18.7054,17.83791 24.4613,41.6578 25.2326,66.60578 0.154,8.70336 0.1297,17.40663 0.095,26.11085 -0.013,3.75551 -0.014,7.51104 -0.016,11.26657 -0.01,7.07544 -0.022,14.15082 -0.043,21.22623 -0.027,9.58658 -0.037,19.17318 -0.049,28.75978 -0.019,15.05198 -0.059,30.10382 -0.095,45.15579 -36.63,0 -73.26,0 -111,0 0.058,-9.38953 0.116,-18.77906 0.1758,-28.45313 0.026,-5.96094 0.05,-11.92184 0.068,-17.88281 0.03,-9.45424 0.064,-18.90825 0.133,-28.3623 0.05,-6.88679 0.082,-13.77339 0.093,-20.66035 0.01,-3.64249 0.022,-7.28446 0.058,-10.92679 0.041,-4.0786 0.041,-8.15632 0.039,-12.23513 0.018,-1.19115 0.036,-2.38231 0.054,-3.60956 -0.065,-10.69487 -3.0855,-20.29873 -10.6221,-28.12774 -11.9556,-10.41448 -27.3984,-13.61444 -42.8525,-12.92139 -12.8327,1.07084 -27.3271,6.54126 -36.1475,16.1792 -6.7116,8.15171 -6.8743,16.29058 -6.8398,26.38281 -0.016,1.65678 -0.035,3.31353 -0.057,4.97025 -0.042,3.60964 -0.066,7.21883 -0.077,10.8287 -0.021,6.06599 -0.097,12.13074 -0.179,18.19617 -0.1714,13.1655 -0.292,26.33092 -0.4097,39.49707 -0.1444,15.55125 -0.2888,31.1025 -0.4375,47.125 -36.96,0 -73.92,0 -112,0 0,-72.27 0,-144.54 0,-219 35.31,0 70.62,0 107,0 0.33,10.23 0.66,20.46 1,31 2.5781,-1.75312 5.1562,-3.50625 7.8125,-5.3125 C 1837.2337,103.38213 1852.2581,94.641248 1870,89 c 1.0493,-0.336445 2.0986,-0.672891 3.1797,-1.019531 39.582,-11.645149 95.5178,-8.036417 127.6953,19.894531 z"
     transform="translate(180,129)"
     inkscape:label="Aladdin" /><path
     id="path18"
     style="fill:#e6ca04;fill-opacity:0.99607843"
     d="M 273.51367 -2.2695312 C 267.70743 -2.1941475 261.9616 -0.26717688 258.74805 3.2832031 L 190.58398 96.25 L 220.47266 96.25 L 240.49805 68.9375 L 306.88672 68.9375 L 326.91211 96.25 L 356.80273 96.25 L 288.63867 3.2851562 C 285.18617 -0.56875875 279.31991 -2.344915 273.51367 -2.2695312 z M -157.7168 -0.44921875 L -159.8125 -0.375 C -165.79733 -0.36414809 -170.70749 0.46389319 -176.16016 3.0078125 L -178.0625 4.125 C -179.97266 5.1953125 -179.97266 5.1953125 -182 7 C -187.78076 13.583131 -187.78136 13.584077 -187.5293 30.847656 C -187.5022 32.627226 -187.48361 34.405796 -187.47461 36.185547 C -187.46171 40.860781 -187.43145 45.535998 -187.37695 50.210938 C -187.32021 55.051177 -187.28577 59.889975 -187.25977 64.730469 C -187.20552 75.153846 -187.11316 85.577099 -187 96 L -158 96 L -158 26 C -156.03406 27.474452 -154.06908 28.9504 -152.08789 30.404297 C -144.05135 36.265539 -136.03786 42.146346 -128.20117 48.273438 C -121.43713 53.580054 -114.62582 58.797721 -107.6875 63.875 C -101.66139 68.282061 -95.680872 72.741368 -89.748047 77.273438 C -87.933348 78.661264 -86.11794 80.047037 -84.300781 81.431641 C -81.246312 83.758022 -78.186986 86.078848 -75.154297 88.433594 C -68.388736 93.696839 -62.672881 97.551754 -53.984375 98.238281 C -44.689802 98.455765 -36.926816 96.523802 -30 90 C -27.046122 85.428237 -25.545138 81.304527 -25.501953 75.865234 C -25.523963 74.750182 -25.525305 74.749221 -25.546875 73.65625 C -25.545025 71.154796 -25.546952 68.653653 -25.576172 66.152344 C -25.597832 64.372733 -25.613694 62.594181 -25.621094 60.814453 C -25.631434 56.139341 -25.653666 51.463987 -25.697266 46.789062 C -25.742696 41.948815 -25.772129 37.109941 -25.792969 32.269531 C -25.836373 21.846318 -25.90948 11.422909 -26 1 L -54 1 L -54 69 C -59.862587 64.7363 -65.660909 60.545892 -71.349609 56.082031 C -77.669784 51.103933 -84.036573 46.195835 -90.480469 41.378906 C -96.977846 36.532636 -103.45864 31.673976 -109.8418 26.677734 C -112.7891 24.369014 -115.74373 22.070522 -118.70312 19.777344 C -119.48374 19.172881 -120.24235 18.586685 -121 18 C -123.48518 16.067579 -125.97462 14.141885 -128.48047 12.236328 C -129.31595 11.603394 -130.1266 10.989319 -130.9375 10.375 C -138.95824 4.1248818 -147.29166 -0.50644735 -157.7168 -0.44921875 z M 400.2832 -0.44921875 L 398.1875 -0.375 C 392.20267 -0.36414809 387.29251 0.46389319 381.83984 3.0078125 L 379.9375 4.125 C 378.02734 5.1953125 378.02734 5.1953125 376 7 C 370.21924 13.583131 370.21864 13.584077 370.4707 30.847656 C 370.4978 32.627226 370.51639 34.405796 370.52539 36.185547 C 370.53829 40.860781 370.56855 45.535998 370.62305 50.210938 C 370.67979 55.051177 370.71423 59.889975 370.74023 64.730469 C 370.79448 75.153846 370.88684 85.577099 371 96 L 400 96 L 401 24 C 408.66062 29.745465 416.32104 35.410266 423.83984 41.320312 C 430.57607 46.628954 437.39194 51.809211 444.3125 56.875 C 450.25004 61.219299 456.14833 65.608262 461.99805 70.070312 C 462.91246 70.768989 463.79998 71.446873 464.6875 72.125 C 468.91721 75.348175 473.15233 78.565846 477.35352 81.826172 C 478.82207 82.967915 480.29314 84.106104 481.76758 85.240234 C 482.4631 85.77497 483.13743 86.293491 483.8125 86.8125 C 489.67874 91.442485 495.04142 94.600274 502.59766 95.363281 C 512.81257 95.21357 520.4252 94.309289 528 87 C 531.14496 83.06855 532.45703 80.250827 532.49805 75.175781 C 532.48325 74.427279 532.46948 73.701096 532.45508 72.974609 C 532.45688 70.499086 532.45293 68.026159 532.42383 65.550781 C 532.40223 63.786264 532.38591 62.020493 532.37891 60.255859 C 532.36851 55.626142 532.34428 50.996716 532.30078 46.367188 C 532.25538 41.571724 532.22793 36.776097 532.20703 31.980469 C 532.16357 21.653096 532.0904 11.327066 532 1 L 504 1 L 504 69 C 498.13741 64.7363 492.33909 60.545892 486.65039 56.082031 C 480.33022 51.103933 473.96343 46.195835 467.51953 41.378906 C 461.02216 36.532636 454.54136 31.673976 448.1582 26.677734 C 445.2109 24.369014 442.25627 22.070522 439.29688 19.777344 C 438.51626 19.172881 437.75765 18.586685 437 18 C 434.51482 16.067579 432.02538 14.141885 429.51953 12.236328 C 428.68405 11.603394 427.8734 10.989319 427.0625 10.375 C 419.04176 4.1248818 410.70834 -0.50644735 400.2832 -0.44921875 z M -906.98047 -0.328125 C -921.35747 -0.4531905 -934.70007 0.48006645 -945.81641 10.664062 C -951.6875 17.109025 -954.43732 23.457572 -954.58203 32.121094 C -954.57703 33.150526 -954.57141 34.149284 -954.56641 35.148438 C -954.57911 37.309881 -954.5887 39.471343 -954.5957 41.632812 C -954.5761 45.006128 -954.5613 48.376759 -954.5957 51.75 C -954.6208 53.963408 -954.63574 56.177076 -954.63672 58.390625 C -954.63472 59.477063 -954.63091 60.531454 -954.62891 61.585938 C -954.76136 71.527523 -952.64164 79.230298 -945.9375 86.8125 C -936.75308 95.1201 -925.77404 95.758551 -914.04297 95.800781 C -912.25944 95.805821 -910.47676 95.819817 -908.69336 95.841797 C -903.83802 95.910903 -898.98274 95.958616 -894.12695 95.978516 C -891.05803 95.988856 -887.98881 96.000015 -884.91992 96.015625 C -871.21826 96.090325 -857.51823 96.104082 -843.81641 96.076172 C -838.33591 96.064572 -832.8555 96.057834 -827.375 96.052734 C -815.5835 96.042074 -803.79147 96.02297 -792 96 L -792 72 L -922 72 L -922 57 L -792 57 L -792 39 L -922 39 L -922 24 L -792 24 L -792 1 C -821.13358 0.30009416 -850.2663 -0.13731329 -879.4082 -0.22460938 C -882.86213 -0.23465637 -886.31565 -0.2443586 -889.76953 -0.265625 C -893.94145 -0.2941518 -898.11314 -0.31924375 -902.28516 -0.32421875 C -903.85018 -0.32456575 -905.41545 -0.325389 -906.98047 -0.328125 z M -720.25391 -0.328125 C -734.83281 -0.44900389 -748.48053 0.27893413 -759.81641 10.664062 C -765.6875 17.109024 -768.43732 23.457572 -768.58203 32.121094 C -768.57703 33.150526 -768.57141 34.149284 -768.56641 35.148438 C -768.57911 37.30988 -768.5887 39.471343 -768.5957 41.632812 C -768.5761 45.006128 -768.56326 48.376759 -768.59766 51.75 C -768.62276 53.963408 -768.63574 56.177076 -768.63672 58.390625 C -768.63472 59.477063 -768.63091 60.531454 -768.62891 61.585938 C -768.76136 71.527523 -766.64164 79.230298 -759.9375 86.8125 C -752.3997 93.509732 -743.48119 95.566317 -733.62305 95.623047 C -731.66453 95.595237 -729.7048 95.568406 -727.74609 95.566406 C -724.09819 95.573866 -720.45244 95.563537 -716.80469 95.529297 C -712.9388 95.492707 -709.07308 95.477203 -705.20703 95.470703 C -697.89818 95.459593 -690.58994 95.426963 -683.28125 95.376953 C -674.901 95.319577 -666.52103 95.285486 -658.14062 95.259766 C -640.09391 95.20581 -622.04642 95.117072 -604 95 C -603.9795 92.291016 -603.96297 89.582085 -603.95117 86.873047 C -603.94647 85.747461 -603.9425 84.65498 -603.9375 83.5625 C -603.9289 82.440898 -603.92011 81.352285 -603.91211 80.263672 C -603.90811 79.197852 -603.90534 78.163379 -603.90234 77.128906 C -603.89304 75.418986 -603.9129 73.707724 -604 72 C -605 71 -604.99905 71.000009 -607.16797 70.892578 C -608.16234 70.901128 -609.12863 70.909669 -610.09375 70.917969 C -611.23082 70.925219 -612.33387 70.932453 -613.4375 70.939453 C -614.69586 70.952793 -615.91731 70.965566 -617.13867 70.978516 C -621.21453 71.009161 -625.29139 71.040888 -629.36719 71.080078 C -633.02417 71.115298 -636.68085 71.146551 -640.33789 71.175781 C -647.24035 71.230724 -654.14252 71.288852 -661.04492 71.351562 C -668.96699 71.423545 -676.88842 71.490961 -684.81055 71.556641 C -697.87041 71.66469 -710.93043 71.776226 -723.99023 71.892578 L -736 72 L -736 24 L -605 24 L -605 1 C -633.81336 0.26389223 -662.62484 -0.14169062 -691.44727 -0.22460938 C -695.05085 -0.23466628 -698.65427 -0.2443745 -702.25781 -0.265625 C -706.61831 -0.2941701 -710.97924 -0.31924575 -715.33984 -0.32421875 C -716.97779 -0.32456575 -718.61596 -0.32539 -720.25391 -0.328125 z M -327.98047 -0.328125 C -342.35747 -0.4531905 -355.70007 0.48006645 -366.81641 10.664062 C -372.6875 17.109025 -375.43732 23.457572 -375.58203 32.121094 C -375.57703 33.150526 -375.57141 34.149284 -375.56641 35.148438 C -375.57911 37.309881 -375.5887 39.471343 -375.5957 41.632812 C -375.5761 45.006128 -375.5613 48.376759 -375.5957 51.75 C -375.6207 53.963408 -375.63574 56.177076 -375.63672 58.390625 C -375.63472 59.477063 -375.63091 60.531454 -375.62891 61.585938 C -375.76136 71.527523 -373.64164 79.230298 -366.9375 86.8125 C -357.75308 95.1201 -346.77404 95.758551 -335.04297 95.800781 C -333.25944 95.805821 -331.47676 95.819817 -329.69336 95.841797 C -324.83802 95.910903 -319.98274 95.958616 -315.12695 95.978516 C -312.05803 95.988856 -308.98881 96.000015 -305.91992 96.015625 C -292.21826 96.090325 -278.51823 96.104082 -264.81641 96.076172 C -259.33591 96.064572 -253.8555 96.057834 -248.375 96.052734 C -236.5835 96.042074 -224.79147 96.02297 -213 96 L -213 72 L -343 72 L -343 57 L -213 57 L -213 39 L -343 39 L -343 24 L -213 24 L -213 1 C -242.13358 0.30009416 -271.2663 -0.13731329 -300.4082 -0.22460938 C -303.86213 -0.23465637 -307.31565 -0.2443586 -310.76953 -0.265625 C -314.94145 -0.2941518 -319.11314 -0.31924375 -323.28516 -0.32421875 C -324.85018 -0.32456575 -326.41545 -0.325389 -327.98047 -0.328125 z M 604.25391 -0.328125 C 589.50258 -0.44657427 575.66721 0.14358499 564.18359 10.664062 C 558.3125 17.109024 555.56268 23.457572 555.41797 32.121094 C 555.42297 33.150526 555.42859 34.149284 555.43359 35.148438 C 555.42089 37.30988 555.4113 39.471343 555.4043 41.632812 C 555.4239 45.006128 555.4387 48.376759 555.4043 51.75 C 555.3792 53.963408 555.36426 56.177076 555.36328 58.390625 C 555.36528 59.477063 555.36909 60.531454 555.37109 61.585938 C 555.23864 71.527523 557.35836 79.230298 564.0625 86.8125 C 571.6003 93.509732 580.51881 95.566317 590.37695 95.623047 C 592.33547 95.595237 594.2952 95.568406 596.25391 95.566406 C 599.90181 95.573866 603.54756 95.563537 607.19531 95.529297 C 611.0612 95.492707 614.92692 95.477203 618.79297 95.470703 C 626.10182 95.459593 633.41201 95.426963 640.7207 95.376953 C 649.10095 95.319577 657.48092 95.285486 665.86133 95.259766 C 683.90804 95.20581 701.95358 95.117072 720 95 C 720.02052 92.291016 720.03723 89.582085 720.04883 86.873047 C 720.05353 85.747461 720.0575 84.65498 720.0625 83.5625 C 720.0711 82.440898 720.07989 81.352285 720.08789 80.263672 C 720.09189 79.197852 720.09466 78.163379 720.09766 77.128906 C 720.10696 75.418986 720.0871 73.707724 720 72 C 719 71 719.00095 71.000009 716.83203 70.892578 C 715.83766 70.901128 714.87137 70.909669 713.90625 70.917969 C 712.76918 70.925219 711.66613 70.932453 710.5625 70.939453 C 709.30414 70.952793 708.08269 70.965566 706.86133 70.978516 C 702.78547 71.009161 698.70861 71.040888 694.63281 71.080078 C 690.97583 71.115298 687.31915 71.146551 683.66211 71.175781 C 676.75965 71.230724 669.85748 71.288852 662.95508 71.351562 C 655.03301 71.423545 647.11158 71.490961 639.18945 71.556641 C 626.12959 71.66469 613.06957 71.776226 600.00977 71.892578 L 588 72 L 588 24 L 719 24 L 719 1 C 690.63783 0.22973745 662.27639 -0.14510817 633.9043 -0.22460938 C 630.1989 -0.23467377 626.49442 -0.2443858 622.78906 -0.265625 C 618.29917 -0.2941856 613.80834 -0.31924875 609.31836 -0.32421875 C 607.62996 -0.32456575 605.9423 -0.325391 604.25391 -0.328125 z M 803.01953 -0.328125 C 788.64253 -0.4531905 775.29993 0.48006645 764.18359 10.664062 C 758.3125 17.109025 755.56268 23.457572 755.41797 32.121094 C 755.42297 33.150526 755.42859 34.149284 755.43359 35.148438 C 755.42089 37.309881 755.4113 39.471343 755.4043 41.632812 C 755.4239 45.006128 755.4387 48.376759 755.4043 51.75 C 755.3792 53.963408 755.36426 56.177076 755.36328 58.390625 C 755.36528 59.477063 755.36909 60.531454 755.37109 61.585938 C 755.23864 71.527523 757.35836 79.230298 764.0625 86.8125 C 773.24692 95.1201 784.22596 95.758551 795.95703 95.800781 C 797.74056 95.805821 799.52324 95.819817 801.30664 95.841797 C 806.16198 95.910903 811.01726 95.958616 815.87305 95.978516 C 818.94197 95.988856 822.01119 96.000015 825.08008 96.015625 C 838.78174 96.090325 852.48177 96.104082 866.18359 96.076172 C 871.66409 96.064572 877.1445 96.057834 882.625 96.052734 C 894.4165 96.042074 906.20853 96.02297 918 96 L 918 72 L 788 72 L 788 57 L 918 57 L 918 39 L 788 39 L 788 24 L 918 24 L 918 1 C 888.86642 0.30009416 859.7337 -0.13731329 830.5918 -0.22460938 C 827.13787 -0.23465637 823.68435 -0.2443586 820.23047 -0.265625 C 816.05855 -0.2941518 811.88686 -0.31924375 807.71484 -0.32421875 C 806.14982 -0.32456575 804.58455 -0.325389 803.01953 -0.328125 z M -1015.4004 -0.25976562 L -1018.3574 -0.2421875 C -1021.725 -0.24818895 -1025.0933 -0.2520565 -1028.4609 -0.2421875 C -1030.8681 -0.2344141 -1033.2745 -0.22968862 -1035.6816 -0.22851562 C -1040.7416 -0.22904372 -1045.8013 -0.22794507 -1050.8613 -0.21679688 C -1057.3906 -0.19963957 -1063.9199 -0.18544482 -1070.4492 -0.18554688 C -1075.5641 -0.18614288 -1080.68 -0.18367937 -1085.7949 -0.17773438 C -1088.2515 -0.17423427 -1090.7075 -0.17119075 -1093.1641 -0.16796875 C -1096.6447 -0.16688455 -1100.1249 -0.165585 -1103.6055 -0.15625 L -1106.8652 -0.14453125 L -1106.8672 -0.14453125 C -1116.3069 -0.14897023 -1116.3054 -0.14970265 -1137 1 L -1137 96 C -1122.5973 96.05465 -1108.1958 96.114468 -1093.793 96.142578 C -1084.6351 96.160058 -1075.4781 96.176817 -1066.3203 96.216797 C -1059.5527 96.247007 -1052.7833 96.269997 -1046.0156 96.279297 C -1042.4322 96.282847 -1038.849 96.285777 -1035.2656 96.304688 C -1031.8511 96.325767 -1028.438 96.342648 -1025.0234 96.341797 C -1023.0952 96.341154 -1023.095 96.340501 -1021.2051 96.339844 C -1007.1144 96.470512 -994.49322 94.682964 -983.70703 84.925781 C -977.1047 78.034827 -974.70065 71.026253 -974.55859 61.529297 C -974.56159 60.617866 -974.56341 59.73228 -974.56641 58.847656 C -974.55561 56.917329 -974.54702 54.986988 -974.54102 53.056641 C -974.55362 50.05673 -974.5622 47.058423 -974.5332 44.058594 C -974.5123 42.084749 -974.502 40.110673 -974.5 38.136719 C -974.501 37.167068 -974.50291 36.226288 -974.50391 35.285156 C -974.37235 24.949581 -976.7569 16.382728 -984.03125 8.7539062 C -992.92386 0.83171567 -1003.8758 -0.20794732 -1015.4004 -0.25976562 z M -583 0 L -583 97.443359 L -551 97.443359 L -551 60.972656 L -479.51758 97.443359 L -427.92383 97.228516 L -517.06641 48.646484 C -487.81288 30.791951 -454.94854 16.024553 -426 0 C -426.48456 -0.22013906 -482.81445 0 -482.81445 0 C -483.32137 -0.09126431 -551 38.375 -551 38.375 L -551 0 L -583 0 z M 0 0 L 0 96 L 29 96 L 29 57 L 138 57 L 138 96 L 167 96 L 167 0 L 138 0 L 138 33 L 29 33 L 29 0 L 0 0 z M 1069.9375 0.50195312 C 1068.0181 0.52418652 1066.0992 0.545268 1064.1797 0.546875 C 1060.6083 0.5409033 1057.0362 0.54880357 1053.4648 0.57617188 C 1049.6789 0.60542447 1045.8934 0.61785288 1042.1074 0.62304688 C 1034.9506 0.63193828 1027.7933 0.65922485 1020.6367 0.69921875 C 1010.8116 0.75415096 1000.9873 0.7809853 991.16211 0.8046875 C 976.91276 0.83878786 976.91276 0.83878786 943 1 L 943.04492 95.662109 C 952.14597 95.744133 961.74198 95.747058 970.24805 95.767578 L 970.38086 62.912109 L 1075.623 62.912109 L 1076.0039 96 L 1104.0039 96 C 1104.0229 91.292908 1104.0427 86.585992 1104.0527 81.878906 C 1104.0567 79.960936 1104.0664 78.042968 1104.0664 76.125 C 1104.0794 73.292379 1104.0877 70.459598 1104.0977 67.626953 L 1104.0977 64.945312 C 1104.1291 59.684272 1104.7981 55.852579 1100.9375 51.875 L 1099 50 C 1103.3978 44.915457 1103.3978 44.915457 1104.1562 31.167969 C 1104.2538 23.032054 1103.2545 15.384917 1097.3438 9.2929688 C 1089.2312 2.7264747 1080.2077 0.55030853 1069.9375 0.50195312 z M 273.69336 23.666016 L 289.42773 45.125 L 257.95898 45.125 L 273.69336 23.666016 z M -1105 24 L -1004 24 L -1004 72 L -1105 72 L -1105 24 z M 969 25 L 1076 25 L 1076 38 L 969 38 L 969 25 z "
     transform="translate(1169,516)"
     inkscape:label="DeckEnhancer" /></svg>
