<?xml version="1.0" encoding="UTF-8" standalone="no"?>
<svg
   version="1.1"
   viewBox="0.00 0.00 505.00 150.00"
   id="svg484"
   sodipodi:docname="nesh.svg"
   inkscape:version="1.4 (86a8ad7, 2024-10-11)"
   xmlns:inkscape="http://www.inkscape.org/namespaces/inkscape"
   xmlns:sodipodi="http://sodipodi.sourceforge.net/DTD/sodipodi-0.dtd"
   xmlns="http://www.w3.org/2000/svg"
   xmlns:svg="http://www.w3.org/2000/svg">
  <defs
     id="defs488">
    <inkscape:path-effect
       effect="fillet_chamfer"
       id="path-effect19-0"
       is_visible="true"
       lpeversion="1"
       nodesatellites_param="IF,0,0,1,0,0,0,1 @ F,0,0,1,0,0,0,1 @ F,0,0,1,0,0.25345215,0,1 @ F,0,0,1,0,0,0,1 @ F,0,0,1,0,0,0,1 @ F,0,0,1,0,0,0,1 @ F,0,0,1,0,0,0,1 @ F,0,0,1,0,0,0,1 @ F,0,0,1,0,0,0,1 @ F,0,0,1,0,0,0,1 @ F,0,0,1,0,0,0,1 @ F,0,0,1,0,0,0,1 @ F,0,0,1,0,0,0,1 @ F,0,0,1,0,0,0,1 @ F,0,0,1,0,0,0,1 @ F,0,0,1,0,0,0,1 @ F,0,0,1,0,0,0,1"
       radius="0"
       unit="px"
       method="auto"
       mode="F"
       chamfer_steps="1"
       flexible="false"
       use_knot_distance="true"
       apply_no_radius="true"
       apply_with_radius="true"
       only_selected="false"
       hide_knots="false" />
    <inkscape:path-effect
       effect="fillet_chamfer"
       id="path-effect19"
       is_visible="true"
       lpeversion="1"
       nodesatellites_param="IF,0,0,1,0,0,0,1 @ F,0,0,1,0,0,0,1 @ F,0,0,1,0,0.25345215,0,1 @ F,0,0,1,0,0,0,1 @ F,0,0,1,0,0,0,1 @ F,0,0,1,0,0,0,1 @ F,0,0,1,0,0,0,1 @ F,0,0,1,0,0,0,1 @ F,0,0,1,0,0,0,1 @ F,0,0,1,0,0,0,1 @ F,0,0,1,0,0,0,1 @ F,0,0,1,0,0,0,1 @ F,0,0,1,0,0,0,1 @ F,0,0,1,0,0,0,1 @ F,0,0,1,0,0,0,1 @ F,0,0,1,0,0,0,1 @ F,0,0,1,0,0,0,1"
       radius="0"
       unit="px"
       method="auto"
       mode="F"
       chamfer_steps="1"
       flexible="false"
       use_knot_distance="true"
       apply_no_radius="true"
       apply_with_radius="true"
       only_selected="false"
       hide_knots="false" />
    <inkscape:path-effect
       effect="fillet_chamfer"
       id="path-effect19-09"
       is_visible="true"
       lpeversion="1"
       nodesatellites_param="IF,0,0,1,0,0,0,1 @ F,0,0,1,0,0,0,1 @ F,0,0,1,0,0.25345215,0,1 @ F,0,0,1,0,0,0,1 @ F,0,0,1,0,0,0,1 @ F,0,0,1,0,0,0,1 @ F,0,0,1,0,0,0,1 @ F,0,0,1,0,0,0,1 @ F,0,0,1,0,0,0,1 @ F,0,0,1,0,0,0,1 @ F,0,0,1,0,0,0,1 @ F,0,0,1,0,0,0,1 @ F,0,0,1,0,0,0,1 @ F,0,0,1,0,0,0,1 @ F,0,0,1,0,0,0,1 @ F,0,0,1,0,0,0,1 @ F,0,0,1,0,0,0,1"
       radius="0"
       unit="px"
       method="auto"
       mode="F"
       chamfer_steps="1"
       flexible="false"
       use_knot_distance="true"
       apply_no_radius="true"
       apply_with_radius="true"
       only_selected="false"
       hide_knots="false" />
  </defs>
  <sodipodi:namedview
     id="namedview486"
     pagecolor="#ffffff"
     bordercolor="#666666"
     borderopacity="1.0"
     inkscape:pageshadow="2"
     inkscape:pageopacity="0.0"
     inkscape:pagecheckerboard="0"
     showgrid="false"
     inkscape:zoom="5.6568542"
     inkscape:cx="244.83573"
     inkscape:cy="106.15441"
     inkscape:window-width="3840"
     inkscape:window-height="2066"
     inkscape:window-x="-11"
     inkscape:window-y="-11"
     inkscape:window-maximized="1"
     inkscape:current-layer="g408"
     inkscape:showpageshadow="2"
     inkscape:deskcolor="#d1d1d1" />
  <g
     fill="#ffffff"
     id="g326"
     style="display:inline"
     inkscape:label="WhiteController">
    <path
       d="m 156.2161,64.1198 a 0.5,0.5 0 0 1 -0.2372,0.6661 l -13.532,6.4254 a 0.5,0.5 0 0 1 -0.6661,-0.2372 l -6.4169,-13.5139 a 0.5,0.5 0 0 1 0.2372,-0.6661 l 13.532,-6.4254 a 0.5,0.5 0 0 1 0.6661,0.2372 z M 151.47,60.77 a 5.7,5.7 0 0 0 -5.7,-5.7 5.7,5.7 0 0 0 -5.7,5.7 5.7,5.7 0 0 0 5.7,5.7 5.7,5.7 0 0 0 5.7,-5.7 z"
       id="path314"
       style="display:inline;fill:#ffffff"
       inkscape:label="A_ButtonBackground" />
    <path
       d="m 140.1137,71.6793 a 0.52,0.52 0 0 1 -0.2467,0.6928 l -13.4597,6.3911 a 0.52,0.52 0 0 1 -0.6927,-0.2467 l -6.4083,-13.4958 a 0.52,0.52 0 0 1 0.2467,-0.6928 l 13.4597,-6.3911 a 0.52,0.52 0 0 1 0.6927,0.2467 z M 135.4,68.38 a 5.7,5.7 0 0 0 -5.7,-5.7 5.7,5.7 0 0 0 -5.7,5.7 5.7,5.7 0 0 0 5.7,5.7 5.7,5.7 0 0 0 5.7,-5.7 z"
       id="path318"
       style="display:inline;fill:#ffffff"
       inkscape:label="B_ButtonBackground" />
    <path
       d="m 118.6754,77.3478 a 4.51,4.51 0 0 1 -2.1501,6.0048 L 83.4178,99.0024 a 4.51,4.51 0 0 1 -6.0048,-2.15 l -1.0684,-2.2602 a 4.51,4.51 0 0 1 2.1501,-6.0048 l 33.1075,-15.6498 a 4.51,4.51 0 0 1 6.0048,2.15 z m -6.438,0.7017 a 1.43,1.43 0 0 0 -1.9087,-0.6684 l -10.2542,4.935 a 1.43,1.43 0 0 0 -0.6684,1.9087 l 0.6765,1.4057 a 1.43,1.43 0 0 0 1.9087,0.6684 l 10.2542,-4.935 a 1.43,1.43 0 0 0 0.6684,-1.9087 z M 94.7667,86.064 a 1.38,1.38 0 0 0 -1.8408,-0.6482 l -10.353,4.9603 a 1.38,1.38 0 0 0 -0.6483,1.8408 l 0.7087,1.4791 a 1.38,1.38 0 0 0 1.8408,0.6482 l 10.353,-4.9603 a 1.38,1.38 0 0 0 0.6483,-1.8408 z"
       id="path320"
       style="display:inline;fill:#ffffff"
       inkscape:label="StartSelectBackground" />
    <path
       d="m 62.66,101.69 3.1,6.76 a 0.62,0.62 0 0 1 -0.3,0.82 l -13.39,6.38 a 0.62,0.62 0 0 1 -0.82,-0.29 l -3.38,-6.78 a 0.62,0.62 0 0 0 -0.82,-0.28 l -6.77,3.16 a 0.62,0.62 0 0 1 -0.82,-0.3 L 33.07,97.71 a 0.62,0.62 0 0 1 0.29,-0.83 l 6.79,-3.27 a 0.62,0.62 0 0 0 0.29,-0.83 l -3.16,-6.72 a 0.62,0.62 0 0 1 0.3,-0.82 l 13.44,-6.38 a 0.62,0.62 0 0 1 0.82,0.29 l 3.32,6.75 a 0.62,0.62 0 0 0 0.82,0.29 l 6.74,-3.2 a 0.62,0.62 0 0 1 0.83,0.29 l 6.43,13.43 a 0.62,0.62 0 0 1 -0.29,0.82 l -6.74,3.34 a 0.62,0.62 0 0 0 -0.29,0.82 z M 41.69,93.16 a 0.7,0.7 0 0 1 -0.32,0.93 L 35.36,97 a 0.7,0.7 0 0 0 -0.33,0.93 l 5.53,11.64 a 0.7,0.7 0 0 0 0.93,0.33 l 5.94,-2.86 a 0.7,0.7 0 0 1 0.93,0.33 l 2.92,6.03 a 0.7,0.7 0 0 0 0.93,0.33 l 11.68,-5.59 a 0.7,0.7 0 0 0 0.33,-0.93 l -2.85,-5.91 a 0.7,0.7 0 0 1 0.33,-0.93 l 6.03,-2.89 a 0.7,0.7 0 0 0 0.33,-0.93 L 62.51,84.94 a 0.7,0.7 0 0 0 -0.93,-0.33 l -5.97,2.83 A 0.7,0.7 0 0 1 54.68,87.1 L 51.84,81.06 A 0.7,0.7 0 0 0 50.91,80.73 L 39.2,86.24 a 0.7,0.7 0 0 0 -0.33,0.93 z"
       id="path322"
       style="display:inline;fill:#ffffff"
       inkscape:label="DpadWhite" />
  </g>
  <g
     fill="#ff151f"
     id="g358"
     style="display:inline"
     inkscape:label="Red">
    <path
       d="m 151.47,60.77 a 5.7,5.7 0 0 1 -5.7,5.7 5.7,5.7 0 0 1 -5.7,-5.7 5.7,5.7 0 0 1 5.7,-5.7 5.7,5.7 0 0 1 5.7,5.7 z m -1.4,0.04 a 4.26,4.26 0 0 0 -4.26,-4.26 4.26,4.26 0 0 0 -4.26,4.26 4.26,4.26 0 0 0 4.26,4.26 4.26,4.26 0 0 0 4.26,-4.26 z"
       id="path466"
       style="display:inline"
       inkscape:label="A_Button" />
    <circle
       cx="145.81"
       cy="60.810001"
       r="4.2600002"
       id="circle352"
       inkscape:label="A_ButtonInner" />
    <circle
       cx="129.7"
       cy="68.379997"
       r="5.6999998"
       id="circle354"
       inkscape:label="B_Button" />
  </g>
  <g
     fill="#010101"
     id="g408"
     inkscape:label="Black">
    <path
       d="   M 101.79 37.50   C 101.58 37.79 101.27 38.20 100.93 38.36   Q 46.55 64.18 21.20 75.97   Q 20.80 76.15 20.54 75.50   L 20.15 73.90   Q 20.02 73.35 20.49 73.03   Q 22.79 71.44 20.69 69.45   Q 20.17 68.95 20.87 68.76   Q 23.14 68.13 22.25 65.25   L 31.18 60.36   Q 31.66 60.10 31.55 59.57   Q 31.16 57.69 29.02 57.44   Q 28.38 57.37 28.51 56.73   L 28.66 55.96   A 0.95 0.95 0.0 0 1 30.30 55.52   L 33.23 58.81   Q 33.57 59.20 34.08 59.15   L 40.39 58.63   Q 41.07 58.57 41.38 57.97   Q 42.89 55.10 46.02 55.70   Q 46.45 55.79 46.79 55.50   Q 47.80 54.65 48.90 55.25   Q 49.37 55.51 49.68 55.07   Q 52.08 51.70 50.54 47.99   Q 50.34 47.50 50.64 47.05   C 52.11 44.87 55.37 41.24 52.84 38.76   Q 52.41 38.34 52.75 37.85   L 56.79 32.01   Q 57.06 31.62 56.89 31.17   Q 56.63 30.51 56.84 29.81   Q 57.08 29.00 57.73 29.54   Q 59.33 30.86 59.26 32.98   Q 59.23 33.66 59.90 33.81   L 63.08 34.53   Q 63.87 34.71 63.95 33.90   L 64.09 32.54   Q 64.14 31.97 64.70 31.86   C 66.97 31.43 69.64 32.75 69.49 29.01   Q 69.44 27.67 70.77 27.17   Q 71.25 26.99 71.25 27.50   L 71.25 28.21   Q 71.25 29.03 71.98 28.67   C 75.34 27.02 75.88 23.36 76.49 20.07   Q 76.58 19.54 76.96 19.16   L 78.28 17.84   A 0.41 0.41 0.0 0 1 78.94 18.30   L 75.76 25.23   Q 75.61 25.55 75.95 25.63   Q 80.13 26.53 88.78 29.49   Q 90.88 30.21 91.55 28.49   C 92.12 27.02 91.00 25.20 90.50 23.72   A 0.70 0.69 -16.4 0 1 91.00 22.81   C 95.02 21.85 93.50 27.91 93.29 29.88   Q 93.24 30.37 93.58 30.74   Q 97.26 34.71 101.79 37.50   Z"
       id="path360"
       inkscape:label="pathBlack13" />
    <path
       d="   M 63.06 66.25   C 63.79 69.51 66.94 70.06 69.83 68.66   Q 85.63 61.01 101.50 53.48   C 104.65 51.98 106.49 49.71 103.83 46.54   A 0.39 0.39 0.0 0 1 103.97 45.94   L 148.40 25.09   Q 148.95 24.83 149.20 25.38   L 168.56 66.12   Q 168.85 66.74 168.23 67.03   L 39.16 127.88   Q 38.49 128.19 38.18 127.53   L 18.84 86.73   Q 18.59 86.19 19.13 85.94   L 61.99 65.72   A 0.77 0.76 71.0 0 1 63.06 66.25   Z   M 149.7992 50.6059   A 0.50 0.50 0.0 0 0 149.1331 50.3687   L 135.6011 56.7941   A 0.50 0.50 0.0 0 0 135.3639 57.4602   L 141.7808 70.9741   A 0.50 0.50 0.0 0 0 142.4469 71.2113   L 155.9789 64.7859   A 0.50 0.50 0.0 0 0 156.2161 64.1198   L 149.7992 50.6059   Z   M 108.8132 56.6576   A 3.32 3.32 0.0 0 0 104.3928 55.0749   L 69.2782 71.6735   A 3.32 3.32 0.0 0 0 67.6955 76.0939   L 67.7468 76.2024   A 3.32 3.32 0.0 0 0 72.1672 77.7851   L 107.2818 61.1865   A 3.32 3.32 0.0 0 0 108.8645 56.7661   L 108.8132 56.6576   Z   M 133.7054 58.1835   A 0.52 0.52 0.0 0 0 133.0127 57.9368   L 119.5530 64.3279   A 0.52 0.52 0.0 0 0 119.3063 65.0207   L 125.7146 78.5165   A 0.52 0.52 0.0 0 0 126.4073 78.7632   L 139.8670 72.3721   A 0.52 0.52 0.0 0 0 140.1137 71.6793   L 133.7054 58.1835   Z   M 113.0942 65.7619   A 3.36 3.36 0.0 0 0 108.6205 64.1601   L 73.5964 80.7160   A 3.36 3.36 0.0 0 0 71.9946 85.1896   L 72.0458 85.2981   A 3.36 3.36 0.0 0 0 76.5195 86.8999   L 111.5436 70.3440   A 3.36 3.36 0.0 0 0 113.1454 65.8704   L 113.0942 65.7619   Z   M 117.6070 75.0876   A 4.51 4.51 0.0 0 0 111.6022 72.9376   L 78.4947 88.5874   A 4.51 4.51 0.0 0 0 76.3446 94.5922   L 77.4130 96.8524   A 4.51 4.51 0.0 0 0 83.4178 99.0024   L 116.5253 83.3526   A 4.51 4.51 0.0 0 0 118.6754 77.3478   L 117.6070 75.0876   Z   M 62.66 101.69   A 0.62 0.62 0.0 0 1 62.95 100.87   L 69.69 97.53   A 0.62 0.62 0.0 0 0 69.98 96.71   L 63.55 83.28   A 0.62 0.62 0.0 0 0 62.72 82.99   L 55.98 86.19   A 0.62 0.62 0.0 0 1 55.16 85.90   L 51.84 79.15   A 0.62 0.62 0.0 0 0 51.02 78.86   L 37.58 85.24   A 0.62 0.62 0.0 0 0 37.28 86.06   L 40.44 92.78   A 0.62 0.62 0.0 0 1 40.15 93.61   L 33.36 96.88   A 0.62 0.62 0.0 0 0 33.07 97.71   L 39.46 111.16   A 0.62 0.62 0.0 0 0 40.28 111.46   L 47.05 108.30   A 0.62 0.62 0.0 0 1 47.87 108.58   L 51.25 115.36   A 0.62 0.62 0.0 0 0 52.07 115.65   L 65.46 109.27   A 0.62 0.62 0.0 0 0 65.76 108.45   L 62.66 101.69   Z"
       id="path362"
       inkscape:label="pathBlack12" />
    <path
       d="   M 106.31 34.64   A 0.65 0.65 0.0 0 1 105.87 33.47   L 106.78 32.81   A 0.59 0.59 0.0 0 1 107.71 33.36   Q 107.56 34.51 106.31 34.64   Z"
       id="path364"
       inkscape:label="pathBlack11" />
    <path
       d="   M 160.23 39.85   C 173.74 42.80 177.50 50.39 171.71 63.25   Q 171.58 63.25 171.46 63.25   Q 171.37 63.25 171.33 63.17   Q 165.31 51.71 160.23 39.85   Z"
       id="path366"
       inkscape:label="pathBlack10" />
    <path
       d="   M 22.25 65.25   Q 19.89 63.53 19.78 60.75   Q 19.72 59.38 20.44 60.55   Q 21.77 62.69 22.25 65.25   Z"
       id="path370"
       inkscape:label="pathBlack9" />
    <path
       d="   M 168.67 70.11   C 166.98 75.64 164.94 81.33 159.51 82.70   Q 159.00 82.83 158.63 83.20   Q 156.37 85.48 156.26 88.74   Q 156.24 89.30 155.80 89.63   L 153.60 91.28   Q 153.07 91.68 152.69 91.13   L 151.93 90.03   Q 151.61 89.57 151.06 89.62   C 148.61 89.87 147.04 88.60 145.04 88.52   Q 140.68 88.34 136.77 90.37   Q 136.22 90.65 136.24 90.03   Q 136.25 89.87 136.26 89.67   Q 136.28 89.35 135.96 89.32   L 130.10 88.90   Q 129.54 88.86 129.54 89.43   Q 129.52 94.09 126.01 96.25   C 123.37 97.86 120.71 96.22 119.96 93.50   C 119.86 92.76 164.30 72.15 168.67 70.11   Z"
       id="path372"
       inkscape:label="pathBlack8" />
    <path
       d="   M 18.25 77.04   Q 17.89 78.16 16.54 77.75   Q 15.37 77.26 15.40 76.29   Q 15.42 75.64 16.05 75.81   Q 17.28 76.14 18.25 77.04   Z"
       id="path374"
       inkscape:label="pathBlack7" />
    <path
       d="   M 41.69 93.16   L 38.87 87.17   A 0.70 0.70 0.0 0 1 39.20 86.24   L 50.91 80.73   A 0.70 0.70 0.0 0 1 51.84 81.06   L 54.68 87.10   A 0.70 0.70 0.0 0 0 55.61 87.44   L 61.58 84.61   A 0.70 0.70 0.0 0 1 62.51 84.94   L 68.06 96.55   A 0.70 0.70 0.0 0 1 67.73 97.48   L 61.70 100.37   A 0.70 0.70 0.0 0 0 61.37 101.30   L 64.22 107.21   A 0.70 0.70 0.0 0 1 63.89 108.14   L 52.21 113.73   A 0.70 0.70 0.0 0 1 51.28 113.40   L 48.36 107.37   A 0.70 0.70 0.0 0 0 47.43 107.04   L 41.49 109.90   A 0.70 0.70 0.0 0 1 40.56 109.57   L 35.03 97.93   A 0.70 0.70 0.0 0 1 35.36 97.00   L 41.37 94.09   A 0.70 0.70 0.0 0 0 41.69 93.16   Z   M 56.85 97.24   A 5.43 5.43 0.0 0 0 51.42 91.81   A 5.43 5.43 0.0 0 0 45.99 97.24   A 5.43 5.43 0.0 0 0 51.42 102.67   A 5.43 5.43 0.0 0 0 56.85 97.24   Z"
       id="path378"
       inkscape:label="pathBlack6" />
    <path
       d="   M 160.04 92.56   A 0.93 0.92 24.9 0 1 160.47 93.73   L 159.33 96.55   Q 159.01 97.34 158.73 96.53   L 157.75 93.68   Q 157.53 93.04 158.08 92.65   Q 158.97 92.01 160.04 92.56   Z"
       id="path384"
       inkscape:label="pathBlack5" />
    <path
       d="   M 17.40 94.15   L 35.61 132.26   Q 35.83 132.71 36.28 132.50   L 73.38 115.07   Q 71.44 121.48 68.02 126.88   Q 67.75 127.30 67.29 127.47   C 64.05 128.67 61.16 130.08 61.26 133.85   Q 61.28 134.43 60.85 134.82   L 58.91 136.57   Q 58.33 137.10 57.87 136.47   L 57.24 135.64   Q 56.89 135.16 56.29 135.23   Q 54.19 135.51 52.48 134.37   Q 52.02 134.07 51.46 134.10   C 48.03 134.34 45.03 134.22 43.28 136.01   Q 42.73 136.58 42.76 135.79   Q 42.77 135.50 42.66 135.25   Q 42.46 134.78 41.95 134.74   L 37.36 134.43   Q 36.84 134.39 36.78 134.91   C 36.37 138.43 34.08 143.59 29.60 141.17   C 25.82 139.12 28.47 135.62 30.11 133.36   A 1.68 1.68 0.0 0 0 29.18 130.74   L 25.05 129.66   Q 24.39 129.49 24.60 128.85   L 24.70 128.51   Q 24.86 128.01 24.41 127.74   L 20.20 125.23   Q 19.78 124.98 19.77 124.49   Q 19.68 121.24 16.92 119.58   Q 16.43 119.29 16.50 118.72   C 16.91 115.29 17.37 112.63 15.33 110.42   Q 14.99 110.04 15.12 109.56   C 15.69 107.47 17.27 104.21 14.95 102.65   Q 14.52 102.37 14.50 101.85   C 14.40 99.13 16.48 96.62 15.32 94.34   Q 14.97 93.66 15.72 93.81   L 17.40 94.15   Z"
       id="path386"
       inkscape:label="pathBlack4" />
    <path
       d="   M 106.71 99.25   Q 106.80 103.11 103.80 105.20   Q 103.25 105.58 102.87 105.03   L 102.18 104.03   Q 101.80 103.47 101.15 103.67   Q 99.84 104.07 98.96 103.25   L 106.71 99.25   Z"
       id="path390"
       inkscape:label="pathBlack3" />
    <path
       d="   M 109.33 106.07   A 0.42 0.42 0.0 0 1 109.74 106.51   L 109.73 106.64   A 3.13 0.93 -88.0 0 1 108.70 109.73   L 108.42 109.72   A 3.13 0.93 -88.0 0 1 107.60 106.56   L 107.60 106.43   A 0.42 0.42 0.0 0 1 108.03 106.03   L 109.33 106.07   Z"
       id="path396"
       inkscape:label="pathBlack2" />
    <path
       d="   M 64.45 137.73   A 0.72 0.72 0.0 0 1 64.97 138.69   L 64.07 141.07   Q 63.86 141.65 63.46 141.18   C 62.49 140.02 61.45 137.08 64.45 137.73   Z"
       id="path406"
       inkscape:label="pathBlack1" />
    <ellipse
       cx="0.00"
       cy="0.00"
       transform="rotate(136.1,9.9235398,35.442714)"
       rx="0.69"
       ry="0.62"
       id="ellipse368"
       inkscape:label="ellipseBlack1" />
    <rect
       x="-7.12"
       y="-2.20"
       transform="rotate(-25.6,242.15415,-150.26725)"
       width="14.24"
       height="4.40"
       rx="1.38"
       id="rect380"
       inkscape:label="SelectButton" />
    <rect
       x="-7.12"
       y="-2.21"
       transform="rotate(-25.7,232.46532,-191.77239)"
       width="14.24"
       height="4.42"
       rx="1.43"
       id="rect376"
       inkscape:label="StartButton" />
  </g>
  <g
     fill="#b7b6b8"
     id="g430"
     inkscape:label="LightGrey">
    <path
       d="   M 121.58 18.95   C 121.36 20.26 120.20 20.09 119.90 19.00   A 0.57 0.57 0.0 0 1 120.40 18.28   L 120.93 18.24   Q 121.70 18.18 121.58 18.95   Z"
       id="path414"
       inkscape:label="pathLightGrey5" />
    <path
       d="   M 110.47 31.75   Q 108.96 29.76 108.80 27.22   Q 108.76 26.57 109.15 27.09   Q 110.62 29.07 111.07 31.49   A 0.34 0.33 21.4 0 1 110.47 31.75   Z"
       id="path416"
       inkscape:label="pathLightGrey4" />
    <path
       d="   M 17.31 54.46   L 16.98 54.90   Q 16.88 55.04 16.74 54.94   Q 15.14 53.75 17.01 53.83   Q 17.75 53.86 17.31 54.46   Z"
       id="path418"
       inkscape:label="pathLightGrey3" />
    <path
       d="   M 127.42 97.50   A 0.45 0.45 0.0 0 1 127.21 96.68   Q 128.29 95.95 129.63 96.00   Q 130.29 96.03 129.86 96.53   Q 128.92 97.62 127.42 97.50   Z"
       id="path426"
       inkscape:label="pathLightGrey2" />
    <path
       d="m 314.46,119.75 1.04,0.96 -1.46,0.54 -0.33,-1 z"
       id="path428"
       style="display:inline"
       inkscape:label="pathLightGrey1" />
    <ellipse
       cx="0.00"
       cy="0.00"
       transform="rotate(89.5,25.357992,41.004857)"
       rx="3.02"
       ry="0.74"
       id="ellipse410"
       inkscape:label="ellipseLightGrey2" />
    <ellipse
       cx="0.00"
       cy="0.00"
       transform="rotate(40.5,-81.517724,49.243601)"
       rx="2.36"
       ry="0.63"
       id="ellipse422"
       inkscape:label="ellipseLightGrey1" />
    <rect
       x="-22.73"
       y="-3.4200001"
       transform="rotate(-25.3,214.54604,-168.45669)"
       width="45.459999"
       height="6.8400002"
       rx="3.3599999"
       id="rect424"
       style="display:inline"
       inkscape:label="Controller3" />
    <rect
       x="-22.74"
       y="-3.3800001"
       transform="rotate(-25.3,192.12862,-163.44969)"
       width="45.48"
       height="6.7600002"
       rx="3.3199999"
       id="rect420"
       style="display:inline"
       inkscape:label="Controller2" />
    <path
       d="m 160.23,39.85 q 5.08,11.86 11.1,23.32 0.04,0.08 0.13,0.08 0.12,0 0.25,0 0.04,2.17 1.31,3.95 0.37,0.53 -0.2,0.82 l -4.15,2.09 c -4.37,2.04 -48.81,22.65 -48.71,23.39 q -0.55,-0.46 -0.96,-0.25 -6.06,3.18 -12.29,6 l -7.75,4 q -13.01,5.45 -25.58,11.82 l -37.1,17.43 q -0.45,0.21 -0.67,-0.24 L 17.4,94.15 11.73,82.26 q -0.21,-0.43 -0.62,-0.68 l -0.4,-0.24 q -0.82,-0.49 0.1,-0.71 3.26,-0.78 5.73,-2.88 1.35,0.41 1.71,-0.71 1.42,-0.4 2.29,-1.54 0.26,0.65 0.66,0.47 25.35,-11.79 79.73,-37.61 c 0.34,-0.16 0.65,-0.57 0.86,-0.86 q 2.34,-0.1 4.46,-1.27 6.59,-3.63 13.49,-6.69 0.51,-0.23 0.79,-0.7 l 0.5,-0.84 q 0.37,-0.61 0.79,-0.03 l 0.24,0.32 q 0.13,0.17 0.32,0.08 L 147.9,16.22 q 0.83,-0.39 1.23,0.44 z m -90.4,28.81 c -2.89,1.4 -6.04,0.85 -6.77,-2.41 A 0.77,0.76 71 0 0 61.99,65.72 L 19.13,85.94 q -0.54,0.25 -0.29,0.79 l 19.34,40.8 q 0.31,0.66 0.98,0.35 L 168.23,67.03 q 0.62,-0.29 0.33,-0.91 L 149.2,25.38 q -0.25,-0.55 -0.8,-0.29 l -44.43,20.85 a 0.39,0.39 0 0 0 -0.14,0.6 c 2.66,3.17 0.82,5.44 -2.33,6.94 Q 85.63,61.01 69.83,68.66 Z"
       id="path412"
       style="display:inline"
       inkscape:label="Controller1" />
  </g>
  <g
     fill="#2d2a2a"
     id="g464"
     inkscape:label="DarkGrey">
    <ellipse
       cx="81.00"
       cy="8.75"
       rx="0.74"
       ry="0.52"
       id="ellipse432" />
    <circle
       cx="51.42"
       cy="97.24"
       r="5.43"
       id="circle440" />
    <path
       d="m 34.99,141.79 q -0.35,-0.13 -0.05,-0.36 0.81,-0.6 1.85,-0.41 0.48,0.08 0.11,0.4 -0.88,0.75 -1.91,0.37 z"
       id="path462"
       style="display:inline" />
  </g>
  <path
     d="m 370.29,93.25 3,-9.25 c 26.96667,0.02 53.93333,-0.05333 80.9,-0.22 34.52,-0.21 42.17,-46.17 10.58,-56.86 -8.31,-2.82 -19.7,-1.7 -28.77,-1.72 -69.56667,-0.146667 -139.13667,-0.206667 -208.71,-0.18 -4.35,0 -9.81,-0.01 -13.79,0.77 -12.7,2.52 -20.68,10.096667 -23.94,22.73 -0.83,3.19 -0.59,10.63 0.37,13.63 4.64,14.566667 14.83333,21.846667 30.58,21.84 39.15333,-0.0067 113.60667,0.01 152.78,0.05 l -3,9.18 c -0.006,-0.0046 -113.10119,0.0088 -150.28,-0.14 -53.7,-0.22 -53.72,-77.1 0.8,-77.19 77.70667,-0.12 155.41333,-0.156667 233.12,-0.11 23.09,0.01 40.4,17.53 40.66,40.48 0.05,3.83 -2.22,11.54 -4.12,15.06 -5.78667,10.713333 -14.26,17.506667 -25.42,20.38 -3.83333,0.986667 -10.46,1.49 -19.88,1.51 -24.95333,0.05333 -49.91333,0.06667 -74.88,0.04 z"
     id="path328"
     sodipodi:nodetypes="cccccccccccccccccccc"
     style="display:inline;fill:#ff151f;fill-opacity:1"
     inkscape:label="NintendoLogoOutline" />
  <path
     style="fill:#ffffff;stroke:#000000;stroke-width:0;stroke-linecap:square;stroke-linejoin:round;stroke-miterlimit:5;paint-order:stroke markers fill;stroke-dasharray:none"
     d="M 215.375,83.599102 C 203.1837,82.19326 194.50928,75.07432 190.42735,63.125 c -0.8436,-2.469533 -1.17831,-5.060563 -1.17301,-9.08059 0.005,-3.553573 0.30865,-5.437969 1.38127,-8.562922 2.54091,-7.402658 7.16397,-12.961215 13.55705,-16.300369 4.34317,-2.268475 8.43681,-3.361665 14.3272,-3.826026 4.97352,-0.39208 237.28411,-0.139489 239.85514,0.260794 2.58585,0.40259 5.5548,1.142882 7.46087,1.860333 8.62948,3.248122 15.03008,9.883206 17.5074,18.14878 0.88673,2.958529 1.15265,4.893912 1.15483,8.404752 0.008,13.010215 -7.77713,23.874443 -20.0298,27.951413 -5.6455,1.878485 6.02212,1.715055 -127.4683,1.785467 -71.88654,0.03792 -120.42314,-0.02894 -121.625,-0.16753 z"
     id="path2"
     inkscape:label="NintendoLogoInner" />
  <path
     id="path346-0"
     style="display:inline;fill:#ff151f;fill-opacity:1"
     d="m 372.03,50.019195 c -0.0431,0.522874 0.55838,0.845302 0.97,0.52 6.14,-4.83 15.38,-4.02 19,3.16 2.17,4.29 1.32,12.77 1.28,18.19 -0.007,0.306666 -0.16333,0.456666 -0.47,0.45 l -9.59,-0.24 c -0.28,-0.0067 -0.42,-0.15 -0.42,-0.43 -0.01,-3.39 0.84,-14.94 -0.73,-17.35 -2.47,-3.78 -7.23,-2.76 -9.62,0.73 -0.22667,0.333333 -0.34,0.7 -0.34,1.1 l -0.04,15.79 c 0,0.115979 -0.094,0.21 -0.21,0.21 l -9.66,-0.03 c -0.26,0 -0.39,-0.126667 -0.39,-0.38 l -0.06,-22.76 c 0,-0.266667 0.13,-0.4 0.39,-0.4 l 9.26,-0.01 c 0.49333,0 0.72333,0.246667 0.69,0.74 z M 221.45,72.5 h -10.14 a 0.33,0.33 0 0 1 -0.33,-0.33 l 0.03,-35.34 a 0.33,0.33 0 0 1 0.33,-0.33 h 10.5 a 0.33,0.33 0 0 1 0.28,0.16 l 15.52,25.05 a 0.33,0.33 0 0 0 0.61,-0.17 l -0.01,-24.71 a 0.33,0.33 0 0 1 0.33,-0.33 h 9.84 a 0.33,0.33 0 0 1 0.33,0.33 l 0.02,35.15 a 0.33,0.33 0 0 1 -0.33,0.33 l -10.4,-0.01 a 0.33,0.33 0 0 1 -0.28,-0.16 L 222.33,47.35 a 0.33,0.33 0 0 0 -0.61,0.17 l 0.06,24.65 a 0.33,0.33 0 0 1 -0.33,0.33 z m 34.5194,-23.76129 9.95998,-0.01738 c 0.14404,-2.51e-4 0.26021,0.115506 0.26046,0.259546 l 0.0403,23.099965 c 2.6e-4,0.144039 -0.1155,0.260202 -0.25954,0.260453 l -9.95999,0.01738 c -0.14404,2.51e-4 -0.2602,-0.115506 -0.26045,-0.259546 l -0.0403,-23.099965 c -2.5e-4,-0.14404 0.11551,-0.260202 0.25955,-0.260453 z M 282.99,50.19 a 0.6,0.6 0 0 0 0.97,0.52 c 6.14,-4.83 15.38,-4.02 19,3.16 2.17,4.29 1.32,12.77 1.28,18.19 q -0.01,0.46 -0.47,0.45 l -9.59,-0.24 q -0.42,-0.01 -0.42,-0.43 c -0.01,-3.39 0.84,-14.94 -0.73,-17.35 -2.47,-3.78 -7.23,-2.76 -9.62,0.73 q -0.34,0.5 -0.34,1.1 l -0.04,15.79 a 0.21,0.21 0 0 1 -0.21,0.21 l -9.66,-0.03 q -0.39,0 -0.39,-0.38 l -0.06,-22.76 q 0,-0.4 0.39,-0.4 l 9.26,-0.01 q 0.74,0 0.69,0.74 z m 51.83,22.25 c -15.67,-6.83 -8.02,-25.04 6.94,-25.2 7.46,-0.08 15.72,4.66 16.19,12.77 q 0.03,0.49 -0.46,0.49 h -19.52 q -0.65,0 -0.62,0.65 c 0.12,2.78 -0.54,6.41 1.3,8.44 3.85,4.26 8.69,0.11 8.21,-4.61 q -0.04,-0.48 0.44,-0.48 h 9.43 q 0.7,0 0.39,0.63 c -4.08,8.16 -14.48,10.71 -22.3,7.31 z m 3.27,-15.2 8.32,-0.08 A 0.6,0.6 0 0 0 347,56.55 l -0.01,-1.65 a 5.19,4.64 89.4 0 0 -4.7,-5.14 h -0.24 A 5.19,4.64 89.4 0 0 337.47,55 l 0.01,1.65 a 0.6,0.6 0 0 0 0.61,0.59 z m 125.3799,3.1151 a 13.38,15.74 89.8 0 1 -15.6932,13.4348 13.38,15.74 89.8 0 1 -15.7866,-13.325 13.38,15.74 89.8 0 1 15.6932,-13.4348 13.38,15.74 89.8 0 1 15.7866,13.325 z M 452.16,54.02 a 4.33,4.33 0 0 0 -4.33,-4.33 h -0.38 a 4.33,4.33 0 0 0 -4.33,4.33 v 12.72 a 4.33,4.33 0 0 0 4.33,4.33 h 0.38 a 4.33,4.33 0 0 0 4.33,-4.33 z M 321.61,45 h 5.26 a 0.36,0.36 0 0 1 0.36,0.35 l 0.03,2.58 a 0.36,0.36 0 0 1 -0.36,0.37 l -5.29,-0.07 a 0.36,0.36 0 0 0 -0.36,0.36 v 23.55 a 0.36,0.36 0 0 1 -0.36,0.36 h -9.81 a 0.36,0.36 0 0 1 -0.36,-0.36 l 0.05,-23.53 a 0.36,0.36 0 0 0 -0.36,-0.36 h -5.55 a 0.36,0.36 0 0 1 -0.36,-0.41 l 0.34,-2.53 A 0.36,0.36 0 0 1 305.2,45 h 5.12 a 0.36,0.36 0 0 0 0.36,-0.35 l 0.06,-4.07 a 0.36,0.36 0 0 1 0.37,-0.35 l 9.78,0.03 a 0.36,0.36 0 0 1 0.36,0.36 v 4.02 a 0.36,0.36 0 0 0 0.36,0.36 z m 95.89,4.47 V 37.03 c 0,-0.36 0.17667,-0.54 0.53,-0.54 l 9.25,0.01 c 0.31333,0 0.47,0.156667 0.47,0.47 l 0.01,35.05 c 0,0.32 -0.15667,0.48 -0.47,0.48 h -8.75 c -0.38667,0 -0.68,-0.166667 -0.88,-0.5 l -0.3,-0.51 c -0.2,-0.34 -0.47,-0.41 -0.81,-0.21 -6.33,3.77 -13.94,1.61 -17.37,-4.47 -6.62,-11.7 6.48,-23.91 17.75,-17.02 0.24958,0.16047 0.57704,-0.02337 0.57,-0.32 z m 0.0429,6.0993 c 0.0205,-2.347091 -1.86561,-4.266389 -4.2127,-4.2869 l -0.46,-0.0041 c -2.34713,-0.02047 -4.26644,1.86567 -4.2869,4.2128 l -0.0862,9.8796 c -0.0205,2.347091 1.86561,4.266389 4.2127,4.2869 l 0.46,0.0041 c 2.34713,0.02047 4.26644,-1.86567 4.2869,-4.2128 z m -161.63512,-19.071722 10.05994,-0.03512 c 0.14403,-5.03e-4 0.2604,0.115051 0.2609,0.259091 l 0.0227,6.49996 c 5e-4,0.144039 -0.11505,0.260403 -0.25909,0.260906 l -10.05994,0.03512 c -0.14404,5.03e-4 -0.2604,-0.115052 -0.2609,-0.259091 l -0.0227,-6.49996 c -5.1e-4,-0.144039 0.11505,-0.260404 0.25909,-0.260906 z"
     inkscape:label="Nintendo" />
  <path
     d="m 466.07095,47.528764 a 7.1198817,6.7020576 0 0 1 -7.11001,-6.691427 c 0,-3.932457 3.1244,-7.017025 7.11001,-7.017025 3.85288,0 7.10999,3.21215 7.10999,7.017025 0,3.563002 -3.31781,6.691427 -7.10999,6.691427 z m 0,-12.669188 c -3.42653,0 -6.00453,2.570252 -6.00453,5.980421 a 6.0144153,5.6614644 0 0 0 6.00453,5.65349 c 3.14697,0 6.00594,-2.695177 6.00594,-5.65349 0,-3.188229 -2.80108,-5.980421 -6.00594,-5.980421 z m 1.24805,8.833745 -1.21841,-2.013409 h -1.54736 v 1.755587 h -1.09982 v -6.041553 h 2.97048 c 1.3822,0 2.10083,1.080461 2.10083,2.143646 0,0.817326 -0.4278,1.645281 -1.24948,1.982844 l 1.00381,1.658569 z m -2.76577,-3.048685 h 1.86503 c 0.3106,0 0.55909,-0.104985 0.73556,-0.312311 a 1.373715,1.2930998 0 0 0 0.26542,-0.793403 c 0,-0.413313 -0.21318,-1.105712 -1.00098,-1.105712 h -1.86503 z"
     style="display:inline;fill:#ff151f;fill-opacity:1;stroke-width:1.36977"
     id="path5"
     inkscape:label="R" />
  <path
     id="path400"
     d="m 318.5,119.46 0.75,0.25 q -1.62,1.1 -3.5,1 z m -22.25,1 0.5,0.08 1,5.46 q -1.9,-2.46 -1.5,-5.54 z m 10.34,-25.56 7.12,25.35 0.33,1 -0.09,0.67 q -0.07,0.59 -0.67,0.59 l -0.74,-0.01 c 1.14,-1.55 0.21,-2.17 -0.11,-3.49 q -3.26,-13.55 -5.32,-19.84 -0.83,-2.54 -0.52,-4.27 z m 14.2,8.85 0.26,11.05 c -1.67,0.27 -0.79,-1.06 -0.82,-1.8 q -0.18,-4.69 -0.83,-10.23 a 0.57,0.57 0 0 1 0.88,-0.54 q 0.64,0.43 0.51,1.52 z M 341.5,92.96 c -5.82,1.05 -2.61,13.82 -1,17.46 q 0.2,0.47 -0.22,0.75 -2.49,1.68 -5.88,1.81 l 4.88,-1.93 q 0.56,-0.23 0.32,-0.78 c -2.05,-4.82 -5.33,-18.4 3.13,-18.77 q 0.87,-0.04 0.08,0.33 -0.83,0.4 -1.31,1.13 z m -8.25,28 -8.35,2.2 q -0.48,0.12 -0.46,0.62 l 0.36,7.92 q 0.03,0.57 -0.52,0.72 l -8.58,2.27 q -0.39,0.11 -0.69,-0.17 l -0.26,-0.23 8.27,-2.12 a 1.3,1.29 81.5 0 0 0.97,-1.32 l -0.38,-7.1 q -0.03,-0.61 0.54,-0.83 4.49,-1.8 9.1,-1.96 z m 37.52,-18.58 c -2.83,6.09 -0.35,10.61 1.3,16.38 q 0.14,0.5 -0.28,0.8 -0.97,0.71 -2.25,0.69 l 1.39,-1.36 q 0.37,-0.36 0.21,-0.86 -2.29,-7.33 -2.86,-10.79 -0.5,-3.12 2.49,-4.86 z m -9.73,4.62 h 0.42 l 1,3.5 c -0.67,6.81 -0.39,12.51 -8.21,14.71 7.84,-4.55 7.32,-10.02 6.79,-18.21 z M 355.46,95.75 350,96.54 q 1.47,-0.96 3.31,-1.06 a 0.86,0.86 0 0 0 0.71,-1.27 l -2.79,-5.19 q -0.46,-0.86 0.2,-0.14 2.79,2.99 4.03,6.87 z m 2.58,-14.5 q 1.3,1.2 1.75,3 l 2.17,8.25 q 0.43,0.93 0.26,1.79 a 0.35,0.35 0 0 1 -0.67,0.05 q -2.29,-6.44 -3.51,-13.09 z m 16.71,-4.71 q 1.02,0.07 0.69,0.9 -1.62,4.07 -2.15,6.56 l -3,9.25 -0.29,1.46 q -0.54,-0.25 -0.81,-0.76 -0.24,-0.45 -0.07,-0.93 z m -2.46,20.71 q 0.72,0.29 0.89,0.9 0.14,0.51 -0.36,0.69 l -13.98,5.02 q 5.89,-3.04 12.16,-4.86 0.82,-0.24 1.29,-1.75 z m -51.54,-5.46 q 1.45,0.49 1.96,1.96 l 10.73,19.64 a 0.81,0.81 0 0 1 -0.42,1.15 l -13.77,5.17 -0.75,-0.25 13.88,-5.22 a 0.74,0.73 65.1 0 0 0.38,-1.05 z m 22.75,20.25 q 1.89,1.25 2.75,3.42 -2.12,-1.01 -2.75,-3.42 z m -52.84,-12.7 q 2.31,6.55 3.34,13.12 -0.13,0.03 -0.3,0.04 -0.3,0.03 -0.35,-0.26 c -0.67,-3.31 -3.28,-9.89 -2.69,-12.9 z m 46.63,16.16 0.71,0.21 0.79,1.54 2.46,4.96 q -2.46,-3.08 -3.96,-6.71 z m 51.25,-2.5 q 0.93,0.36 1.24,1.25 0.18,0.5 -0.31,0.71 -2.99,1.23 -6.66,1.57 c 1.35,-0.6 6.42,-1.1 5.73,-3.53 z m -90.79,13 q 0.85,0.88 0.33,1.93 -0.24,0.5 -0.77,0.68 l -1.81,0.6 -0.26,-0.25 q -0.33,-0.3 0.12,-0.31 2.6,-0.08 2.39,-2.65 z m 89.52059,-53.330758 c -1.33477,0.002 -2.75731,0.22852 -4.26864,0.68163 -3.16086,0.94767 -5.4097,2.63587 -6.74351,5.06342 -1.31655,2.42237 -2.26674,3.68971 -1.25702,6.70002 0.69522,2.07268 2.72291,5.29029 4.4871,6.75281 0.92329,0.75919 2.61466,2.14982 4.24532,1.95093 l 4.98726,-1.48555 4.78216,-1.67279 c 0.41051,-0.27719 -0.11805,-0.74879 -0.36183,-0.8503 -0.56495,-0.21081 -1.37233,-0.52126 -2.42211,-0.93068 -4.34209,-1.66725 -8.12337,-3.28399 -8.74134,-5.12636 -0.35313,-1.05279 0.43216,-2.73042 0.83875,-3.5584 0.42388,-0.83315 1.70941,-1.31921 2.72849,-1.62475 1.08816,-0.32624 2.07361,0.33118 3.00034,0.94044 0.94398,0.60407 2.31728,3.00314 3.29125,2.75058 l 4.9092,-3.63352 c -1.49623,-2.6472 -3.40847,-4.40871 -5.73666,-5.28574 -1.1582,-0.44932 -2.40403,-0.67364 -3.7388,-0.67174 z m 11.61083,18.336793 c -0.67421,0.09242 -3.95539,0.600229 -6.44983,1.791014 l -4.83307,1.606151 c -0.76427,0.444637 1.86385,1.110712 3.26624,1.662808 3.02916,1.193418 5.03542,2.171793 6.0173,2.934943 0.99917,0.758044 2.00922,1.363729 2.37339,2.434539 0.38623,1.13571 0.53335,2.34445 0.11428,3.23618 -0.40182,0.88663 -1.13195,1.72475 -2.16829,2.0312 -1.17453,0.34732 -2.76876,0.0745 -3.82117,-0.56065 -1.05794,-0.65138 -2.35257,-3.7215 -2.70917,-3.26928 -2.26891,0.22408 -4.23132,2.53724 -6.34698,3.80586 1.46433,2.85249 3.43743,4.83007 5.92298,5.93423 2.49731,1.08284 5.27467,1.17173 8.33189,0.26771 3.47175,-1.02662 5.88692,-2.81193 7.24568,-5.35645 1.37051,-2.56584 1.48805,-5.51897 0.35141,-8.861201 -0.69522,-2.044274 -1.8412,-3.767405 -3.43961,-5.169622 -1.16509,-1.036998 -1.33813,-1.105643 -3.30169,-2.183635 z M 301.79,129.5 l 2.35,7.62 q 0.18,0.56 -0.39,0.7 l -2.75,0.64 2.11,-1.24 q 0.51,-0.3 0.29,-0.84 -1.32,-3.32 -1.61,-6.88 z m 41.42,-4 0.74,1.18 q 0.28,0.46 -0.25,0.56 l -1.2,0.22 z m -37.84,-7.33 -8.62,2.37 -0.5,-0.08 q 4.2,-1.91 9.12,-2.29 z"
     inkscape:label="HacksShadow"
     style="display:inline" />
  <path
     id="path18-1"
     style="display:inline;fill:#ff151f;fill-opacity:1;font-size:55.7071px;line-height:0;font-family:'Geometr706 BlkCn BT';-inkscape-font-specification:'Geometr706 BlkCn BT';text-align:center;text-anchor:middle;stroke-width:1.13174"
     transform="translate(-93.937048,13.720554)"
     d="m 480.09638,58.988462 c -1.33477,0.0019 -2.75731,0.228519 -4.26864,0.681629 -3.16086,0.947673 -5.4097,2.635875 -6.74351,5.063419 -1.31655,2.422371 -2.26674,3.689709 -1.25702,6.700024 0.69522,2.072674 2.72291,5.290292 4.4871,6.752809 0.92329,0.759188 2.61466,2.149815 4.24532,1.950927 l 4.98726,-1.485549 4.78216,-1.672788 c 0.41051,-0.277188 -0.11805,-0.748794 -0.36183,-0.850306 -0.56495,-0.210803 -1.37233,-0.521254 -2.42211,-0.930679 -4.34209,-1.667244 -8.12337,-3.283984 -8.74134,-5.126361 -0.35313,-1.052788 0.43216,-2.730416 0.83875,-3.558395 0.42388,-0.833151 1.70941,-1.319211 2.72849,-1.624746 1.08816,-0.326247 2.07361,0.331172 3.00034,0.940435 0.94398,0.604072 2.31728,3.003145 3.29125,2.750577 l 4.9092,-3.633519 c -1.49623,-2.6472 -3.40847,-4.40871 -5.73666,-5.285737 -1.1582,-0.449326 -2.40403,-0.673642 -3.7388,-0.67174 z m 11.61084,18.336792 c -0.67421,0.09242 -3.95539,0.600229 -6.44984,1.791014 l -4.83307,1.606151 c -0.76427,0.444637 1.86385,1.110712 3.26625,1.662808 3.02915,1.193418 5.03541,2.171793 6.0173,2.934943 0.99917,0.758044 2.00922,1.363732 2.37338,2.434537 0.38623,1.135711 0.53335,2.344448 0.11428,3.236185 -0.40182,0.886629 -1.13194,1.724747 -2.16828,2.031194 -1.17453,0.347318 -2.76876,0.07452 -3.82118,-0.560645 -1.05793,-0.651385 -2.35257,-3.721498 -2.70917,-3.26928 -2.2689,0.224074 -4.23131,2.537236 -6.34697,3.805854 1.46432,2.852495 3.43743,4.83007 5.92297,5.934236 2.49731,1.082839 5.27467,1.171719 8.33189,0.267711 3.47175,-1.026621 5.88692,-2.811934 7.24568,-5.356448 1.37051,-2.565844 1.48806,-5.518978 0.35142,-8.861206 -0.69522,-2.044274 -1.8412,-3.767405 -3.43962,-5.169622 -1.16509,-1.036998 -1.33813,-1.105643 -3.30169,-2.183635 z m -95.97715,38.456116 q 0.29,3.56 1.61,6.88 0.22,0.54 -0.29,0.84 l -2.11,1.24 c -3.86,2.44 -4.94,-5.46 -5.47,-7.65 q -0.13,-0.55 0.4,-0.77 c 1.43,-0.58 4.79,-2.04 5.86,-0.54 z m 35.5,-14 q 1.5,3.63 3.96,6.71 l 1.96,3.29 -0.71,1.96 q -2.4,1.3 -4.9,0.53 -0.51,-0.16 -0.77,-0.62 l -3.58,-6.41 q -4.61,0.16 -9.1,1.96 -0.57,0.22 -0.54,0.83 l 0.38,7.1 a 1.3,1.29 81.5 0 1 -0.97,1.32 l -8.27,2.12 c -1.82,0.03 -3.19,-7.54 -3.56,-9.15 q -0.11,-0.49 0.3,-0.77 2.55,-1.72 5.62,-1.63 0.49,0.02 0.72,-0.42 l 0.36,-0.7 q 0.19,-0.35 0.56,-0.49 7.46,-2.93 15.03,-5.58 c 1.23,-0.43 2.06,-1.859997 3.51,-0.05 z m 23.75,-8.499997 c 0.53,8.189997 1.05,13.659997 -6.79,18.209997 -8.13,1.05 -10.29,-3.05 -15.46,-7.96 l -0.79,-1.54 -0.19,-1.25 q -0.08,-0.55 0.37,-0.879997 2.37,-1.77 5.32,-1.54 0.63,2.409997 2.75,3.419997 c 6.47,6.99 9.68,-1.769997 9.01,-7.149997 q -0.06,-0.48 0.36,-0.71 2.65,-1.48 5.42,-0.6 z m 27.5,6 c 0.69,2.429997 -4.38,2.929997 -5.73,3.529997 l -12.04,-14.149997 q -2.99,1.74 -2.49,4.86 0.57,3.46 2.86,10.789997 0.16,0.5 -0.21,0.86 l -1.39,1.36 c -2.73,1.57 -3.98,0.21 -4.59,-2.43 q -0.87,-3.79 -2.49,-7.319997 l -1,-3.5 -0.11,-2.28 q -0.03,-0.46 0.4,-0.62 l 13.47,-4.95 q 0.48,-0.18 0.96,0.01 c 2.59,1.02 9.11,9.86 12.36,13.84 z m -81.95,-18.1 q -0.31,1.73 0.52,4.27 2.06,6.29 5.32,19.839997 c 0.32,1.32 1.25,1.94 0.11,3.49 q -2.08,1.85 -4.67,0.94 -0.54,-0.19 -0.6,-0.76 -0.27,-2.56 -1.9,-4.51 -4.92,0.38 -9.12,2.29 -0.4,3.08 1.5,5.54 0.21,2.57 -2.39,2.65 -0.45,0.01 -0.12,0.31 l 0.26,0.25 q -1.48,0.95 -3.01,0.31 -0.49,-0.21 -0.62,-0.72 l -7.52,-28.129997 q -0.1,-0.39 0.25,-0.59 2.82,-1.63 6.06,-0.74 c -0.59,3.01 2.02,9.59 2.69,12.9 q 0.05,0.29 0.35,0.26 0.17,-0.01 0.3,-0.04 c 0.87,0.76 7.87,-1.55 9.19,-1.9 a 0.9,0.9 0 0 0 0.63,-1.1 l -3.51,-13.02 q -0.14,-0.52 0.34,-0.78 2.55,-1.36 5.94,-0.76 z m 14.16,-3.11 12.01,21.4 a 0.74,0.73 65.1 0 1 -0.38,1.049997 l -13.88,5.22 -2.75,1.25 q -0.12,0 -0.25,0 l -1.04,-0.96 -0.25,-26.499997 q 2.54,-3.34 6.54,-1.46 z m 0.3,23.009997 q 2.39,-0.08 4.52,-1.099997 0.48,-0.22 0.27,-0.71 -2.07,-4.86 -5.05,-9.24 0.13,-1.09 -0.51,-1.52 a 0.57,0.57 0 0 0 -0.88,0.54 q 0.65,5.54 0.83,10.23 c 0.03,0.739997 -0.85,2.069997 0.82,1.799997 z m 53.7,-38.259997 -5.63,16.48 q -0.17,0.48 0.07,0.93 0.27,0.51 0.81,0.76 l 2.29,2.54 q -0.47,1.51 -1.29,1.75 -6.27,1.82 -12.16,4.86 l -0.89,-0.47 q -0.45,-0.24 -0.58,-0.73 l -1.91,-6.91 q -1.24,-3.88 -4.03,-6.87 -0.66,-0.72 -0.2,0.14 l 2.79,5.19 a 0.86,0.86 0 0 1 -0.71,1.27 q -1.84,0.1 -3.31,1.06 c -2.1,0.01 -1.93,-1.82 -3.09,-2.94 q -0.37,-0.36 -0.88,-0.39 l -4.53,-0.25 q 0.48,-0.73 1.31,-1.13 0.79,-0.37 -0.08,-0.33 c -8.46,0.37 -5.18,13.95 -3.13,18.77 q 0.24,0.55 -0.32,0.78 l -4.88,1.93 q -4.29,-9.44 -3.14,-19.76 l 2.56,-4.68 q 0.24,-0.44 0.25,-0.94 c 0.03,-1.47 3.04,-1.5 3.93,-3.56 l 14,-0.04 q 0.64,0 0.51,-0.62 l -0.18,-0.96 q -0.07,-0.35 0.23,-0.52 2.65,-1.5 5.48,-0.65 1.22,6.65 3.51,13.09 a 0.35,0.35 0 0 0 0.67,-0.05 q 0.17,-0.86 -0.26,-1.79 3.13,-3.8 3.02,-8.33 1.67,-2.63 2.33,-5.74 0.13,-0.62 0.75,-0.79 l 5.45,-1.48 q 0.46,-0.12 0.85,0.14 z"
     inkscape:label="Hacks" />
</svg>
