<?xml version="1.0" encoding="UTF-8" standalone="no"?>
<svg
   viewBox="0 0 2661.3813 554.25587"
   width="2661.3813"
   height="554.25586"
   version="1.1"
   id="svg268"
   sodipodi:docname="nesicax.svg"
   inkscape:version="1.3.2 (091e20e, 2023-11-25, custom)"
   xmlns:inkscape="http://www.inkscape.org/namespaces/inkscape"
   xmlns:sodipodi="http://sodipodi.sourceforge.net/DTD/sodipodi-0.dtd"
   xmlns="http://www.w3.org/2000/svg"
   xmlns:svg="http://www.w3.org/2000/svg">
  <sodipodi:namedview
     id="namedview268"
     pagecolor="#e5e5e5"
     bordercolor="#000000"
     borderopacity="0.25"
     inkscape:showpageshadow="2"
     inkscape:pageopacity="0.0"
     inkscape:pagecheckerboard="true"
     inkscape:deskcolor="#d1d1d1"
     inkscape:zoom="0.29017505"
     inkscape:cx="1680.0204"
     inkscape:cy="718.53181"
     inkscape:window-width="2560"
     inkscape:window-height="1351"
     inkscape:window-x="-9"
     inkscape:window-y="-9"
     inkscape:window-maximized="1"
     inkscape:current-layer="g268" />
  <desc
     id="desc1">nesicaxlive2.DXF - scale = 1.000000, origin = (0.000000, 0.000000), method = file</desc>
  <defs
     id="defs4">
    <marker
       id="DistanceX"
       orient="auto"
       refX="0"
       refY="0"
       style="overflow:visible">
      <path
         d="M 3,-3 -3,3 M 0,-5 V 5"
         style="stroke:#000000;stroke-width:0.5"
         id="path1" />
    </marker>
    <pattern
       id="Hatch"
       patternUnits="userSpaceOnUse"
       width="8"
       height="8"
       x="0"
       y="0">
      <path
         d="M8 4 l-4,4"
         stroke="#000000"
         stroke-width="0.25"
         linecap="square"
         id="path2" />
      <path
         d="M6 2 l-4,4"
         stroke="#000000"
         stroke-width="0.25"
         linecap="square"
         id="path3" />
      <path
         d="M4 0 l-4,4"
         stroke="#000000"
         stroke-width="0.25"
         linecap="square"
         id="path4" />
    </pattern>
    <symbol
       id="*Model_Space" />
    <symbol
       id="*Paper_Space" />
    <symbol
       id="*Paper_Space0" />
  </defs>
  <g
     inkscape:groupmode="layer"
     inkscape:label="0"
     id="g268"
     transform="translate(1.4344083,-569.3094)"
     style="display:inline">
    <path
       id="path304"
       style="display:inline;stroke-linecap:square;stroke-miterlimit:0;paint-order:stroke markers fill"
       d="m 950.07227,197.52539 c -7.69253,0 -11.86082,0.0115 -14.57618,0.13477 -2.71535,0.12324 -4.20654,0.4328 -5.64453,0.87695 -6.71626,2.07445 -12.49569,7.47856 -15.14453,14.08594 -0.51124,1.27527 -0.93627,2.69531 -1.09765,5.09179 -0.16138,2.39649 -0.20119,6.06618 -0.27344,13.15039 -0.0772,7.57063 -0.0815,11.92543 0.16211,15.0625 0.24357,3.13708 0.84143,5.19639 1.7207,7.23243 2.82566,6.54312 9.30212,11.93528 16.27539,13.59179 0.57628,0.1369 0.73584,0.11865 1.10156,0.14649 0.36573,0.0278 0.80222,0.0527 1.32227,0.0762 1.04009,0.0469 2.40466,0.0881 4.02148,0.125 3.23364,0.0737 7.46264,0.12477 11.92774,0.13672 13.28436,0.0356 16.72784,0.002 19.47851,-0.71485 8.12277,-2.11571 14.7286,-8.77839 16.81836,-16.93554 0.70484,-2.75141 0.75334,-5.81714 0.63672,-18.39844 -0.0673,-7.26094 -0.1044,-11.007 -0.26367,-13.4375 -0.15928,-2.4305 -0.58628,-3.85229 -1.09766,-5.12695 -2.65091,-6.6077 -8.43086,-12.0117 -15.14648,-14.08594 -1.438,-0.44416 -2.92723,-0.75372 -5.64258,-0.87695 -2.71535,-0.12324 -6.8856,-0.13477 -14.57812,-0.13477 z m -699.13868,0.0176 c -8.74184,0.77688 -16.82797,6.46584 -20.30078,15.07422 l -1.01172,2.50976 -0.21875,1.11719 -0.21484,140.33984 c -0.0952,62.05749 -0.16705,97.15716 -0.28711,116.77149 -0.0551,9.00378 -0.12594,14.07746 -0.20703,17.64258 -1.02464,-1.87006 -2.26968,-4.14655 -3.98633,-7.29297 -3.8987,-7.1459 -9.48891,-17.41153 -16.35547,-30.03516 -13.7331,-25.24725 -32.57211,-59.9243 -53.20117,-97.93554 -20.63016,-38.01327 -39.57032,-72.84309 -53.4668,-98.3379 -6.94823,-12.7474 -12.634205,-23.15999 -16.642574,-30.47265 -2.004185,-3.65633 -3.5888,-6.5374 -4.703125,-8.55078 -0.557163,-1.0067 -0.997507,-1.7966 -1.316407,-2.36328 -0.318899,-0.56669 -0.325255,-0.64395 -0.689453,-1.17969 -2.751746,-4.0479 -8.19396,-9.11896 -12.464843,-11.65625 -7.012321,-4.16595 -14.273094,-5.90076 -22.96875,-5.55078 -4.579167,0.18429 -6.680957,0.54275 -10.25586,1.74609 -2.426527,0.81678 -5.243957,1.95918 -6.958984,2.91016 -9.607245,5.32721 -16.7463582,14.24026 -20.0234378,24.9375 l -0.9902343,3.23047 -0.1308594,0.87695 -0.1308594,152.70898 c -0.049226,57.29342 -0.051674,95.61952 0.00586,119.85157 0.028766,12.11602 0.072863,20.70596 0.1328125,26.39257 0.029975,2.84331 0.062605,4.95938 0.1015625,6.44141 0.019479,0.74102 0.040931,1.32208 0.064453,1.77539 0.023523,0.45331 -0.00851,0.59564 0.1269532,1.23828 1.8832355,8.9345 9.5565607,16.48408 18.5097647,18.19141 3.446346,0.6572 6.258961,0.60568 9.607422,-0.1836 8.351907,-1.96869 14.950582,-8.19615 17.765625,-16.5957 0.235475,-0.70261 0.193903,-0.86214 0.228516,-1.22851 0.03461,-0.36638 0.06172,-0.79628 0.08789,-1.34375 0.05233,-1.09496 0.09696,-2.64908 0.138672,-4.83008 0.08342,-4.36201 0.152458,-11.21484 0.210938,-21.63086 0.11696,-20.83205 0.19517,-55.9087 0.285156,-113.64063 l 0.208984,-133.73047 c 0.971553,1.77472 2.024573,3.70078 3.564454,6.52344 3.84237,7.04323 9.370006,17.19365 16.171875,29.69727 13.603737,25.00724 32.305079,59.42384 52.818359,97.21289 20.51392,37.79023 39.3572,72.47788 53.19336,97.92187 6.91808,12.722 12.58524,23.13345 16.58203,30.4668 1.99839,3.66667 3.57899,6.56439 4.69141,8.59766 1.11242,2.03326 1.63672,3.00021 1.91797,3.47851 2.46859,4.19829 7.22939,9.27976 11.38085,12.24219 3.74369,2.67143 8.83354,5.02341 13.51758,6.28516 5.2892,1.42476 13.66605,1.53264 18.95703,0.22851 14.86498,-3.66391 26.14817,-14.68875 30.5293,-29.73047 l 1,-3.43359 0.11914,-0.83789 0.12305,-151.41602 c 0.0443,-54.58872 0.0429,-92.64078 -0.0137,-117.30273 -0.0283,-12.33098 -0.0707,-21.31247 -0.12696,-27.34961 -0.0281,-3.01857 -0.0598,-5.29921 -0.0957,-6.90625 -0.018,-0.80352 -0.0375,-1.43728 -0.0586,-1.92578 -0.0211,-0.48851 -0.007,-0.68364 -0.10157,-1.23828 -1.48069,-8.70075 -7.94564,-16.17572 -16.30468,-18.77735 -2.91291,-0.9066 -5.90051,-1.19255 -8.81446,-0.93359 z m 1862.28321,0.0723 c -8.1516,-0.0599 -12.4831,-0.083 -15.2656,0.0215 -2.7825,0.10449 -4.2644,0.41661 -5.7285,0.86133 -6.8287,2.07415 -12.6015,7.43046 -15.2872,14.125 -0.5114,1.27467 -0.9383,2.69643 -1.0976,5.12695 -0.1593,2.43052 -0.1964,6.17656 -0.2637,13.4375 -0.1166,12.58129 -0.068,15.64695 0.6367,18.39844 2.0648,8.05955 8.6018,14.73155 16.5996,16.91406 2.7258,0.74383 6.2545,0.72679 20.1543,0.6543 8.1215,-0.0423 12.3918,-0.0727 15.084,-0.21289 2.6923,-0.14016 4.1531,-0.51653 5.42,-0.9961 6.5734,-2.4882 11.8282,-7.74303 14.3164,-14.3164 0.4764,-1.25904 0.8558,-2.70204 0.9843,-5.25782 0.1286,-2.55578 0.1328,-6.55449 0.1328,-14.18359 0,-7.78938 -6e-4,-11.76996 -0.1347,-14.28711 -0.1342,-2.51715 -0.5687,-3.95538 -1.0664,-5.16406 -2.5591,-6.2138 -7.5829,-11.30836 -13.6739,-13.76563 -1.2705,-0.51257 -2.714,-0.95485 -5.3886,-1.10937 -2.6747,-0.15453 -6.967,-0.18391 -15.4219,-0.2461 z m -1571.76953,0.004 c -5.97803,-0.0916 -16.84828,-0.0559 -38.13672,0.0215 -23.94659,0.087 -35.70043,0.11678 -43.48828,0.50977 -7.78786,0.39299 -11.61352,1.18055 -19.08399,2.67773 -76.02501,15.23642 -133.71088,76.8554 -143.90234,153.7129 -1.85663,14.00156 -1.93516,31.82998 -0.18946,45.29687 5.43358,41.9162 23.8734,78.74555 54.06446,107.96484 30.34282,29.36618 70.9023,47.37645 113.0332,50.19141 4.75887,0.31798 24.45783,0.42971 43.88867,0.43359 9.71542,0.002 19.26307,-0.0311 26.58399,-0.0996 3.66045,-0.0342 6.76238,-0.0765 9.0625,-0.1289 1.15005,-0.0262 2.09934,-0.0559 2.83203,-0.0879 0.73269,-0.032 1.05233,-0.0141 1.75586,-0.14258 11.11293,-2.02979 19.421,-11.9167 19.4414,-23.17383 0.0154,-8.48732 -4.57312,-16.40094 -11.94921,-20.62109 -2.29409,-1.31254 -4.38087,-2.39582 -10.03126,-2.73242 -5.65036,-0.33661 -15.53853,-0.312 -35.91992,-0.3125 -10.29387,-2.9e-4 -20.19736,-0.0489 -27.92382,-0.12696 -7.72646,-0.078 -13.49253,-0.2066 -14.73438,-0.29883 -27.4017,-2.03494 -51.9617,-11.47452 -73.32031,-28.16796 -24.47323,-19.12776 -41.98945,-47.43974 -48.06446,-77.66797 -0.26124,-1.29991 -0.34375,-1.93433 -0.45117,-2.65821 1.79337,-0.094 4.80188,-0.17382 10.41016,-0.23437 11.74479,-0.12681 33.87579,-0.19163 75.5039,-0.29297 l 88.47852,-0.21484 1.05274,-0.19336 2.51953,-0.95117 c 7.4027,-2.79595 13.08318,-8.63306 15.21289,-15.8711 1.09598,-3.72482 1.23979,-8.7522 0.24218,-12.45703 -1.65685,-6.15306 -6.21058,-12.10942 -11.67187,-14.875 -1.08288,-0.54837 -2.139,-1.30449 -4.15625,-1.75391 -2.01725,-0.44941 -4.75003,-0.65039 -10.28711,-0.79492 -11.07416,-0.28906 -33.36545,-0.24219 -81.43945,-0.24219 -36.4806,0 -58.44508,-0.0246 -71.35157,-0.10937 -6.45324,-0.0424 -10.64585,-0.10005 -13.22461,-0.17578 -0.67968,-0.02 -0.9599,-0.0425 -1.42187,-0.0645 0.15374,-1.32178 0.59149,-3.54692 1.46484,-7.14258 5.41409,-22.29008 15.95034,-42.11997 31.25782,-58.84766 22.13859,-24.1926 52.63315,-39.43912 85.38086,-42.68164 0.77322,-0.0766 6.03944,-0.22788 13.49804,-0.30664 7.4586,-0.0788 17.44578,-0.12641 28.85352,-0.12891 11.57343,-0.003 21.42583,-0.0462 28.62305,-0.12304 3.59861,-0.0384 6.53183,-0.085 8.69726,-0.13867 2.16543,-0.0537 3.27743,-0.0602 4.30469,-0.20704 11.69222,-1.67164 20.45312,-11.69242 20.45312,-23.44726 0,-5.86754 -2.33466,-11.81379 -6.32617,-16.16211 -2.53971,-2.76674 -6.68893,-5.16441 -10.46875,-6.3125 -1.485,-0.45105 -3.09424,-0.76974 -9.07226,-0.86133 z m 731.43553,0 c -5.9817,-0.0913 -16.8524,-0.0558 -38.1172,0.0215 -42.0447,0.15277 -44.0412,0.21035 -50.5586,1.13672 -18.4898,2.62814 -35.0555,7.3232 -50.7793,14.40821 -50.7719,22.87763 -88.0287,67.35845 -101.3418,121.01953 -2.3308,9.39516 -3.5174,16.02256 -4.4375,24.7832 -7.8651,74.89679 31.6874,146.80418 99.2149,180.38672 21.6975,10.79051 44.5021,16.99175 68.5469,18.63672 1.8514,0.12666 7.2966,0.18573 15.3496,0.24023 8.0529,0.0545 18.4408,0.0811 29.2285,0.0664 l 39.2012,-0.0527 1.0644,-0.19726 2.4766,-0.94336 v -0.002 c 3.4371,-1.3107 7.0606,-3.59875 9.4668,-6.10157 5.4944,-5.71505 7.7961,-14.30574 5.8164,-21.90625 -2.0635,-7.92251 -8.0987,-14.25971 -16.0977,-17.09961 -0.6447,-0.2289 -0.7378,-0.18303 -0.9765,-0.21093 -0.2388,-0.0279 -0.4884,-0.0482 -0.7833,-0.0684 -0.5898,-0.0404 -1.3539,-0.0761 -2.3281,-0.11133 -1.9484,-0.0705 -4.7213,-0.13536 -8.3398,-0.19727 -7.2371,-0.12381 -17.851,-0.23265 -31.8535,-0.32617 -22.0344,-0.14716 -33.1714,-0.22733 -40.0586,-0.51953 -6.8873,-0.2922 -9.4523,-0.76683 -14.9532,-1.78711 -20.9933,-3.89378 -42.1269,-13.57824 -58.8007,-26.94531 -16.287,-13.05701 -30.0611,-30.95527 -38.5254,-50.0625 -20.1913,-45.5789 -12.9981,-99.4023 18.414,-137.86719 21.4191,-26.22815 49.6853,-42.32614 84.1836,-47.89844 5.2295,-0.84468 7.2109,-0.88123 48.0157,-1.13086 23.7873,-0.14552 34.8365,-0.15725 40.9003,-0.55078 6.0639,-0.39352 7.8979,-1.6398 10.3614,-3.09375 7.0367,-4.15302 11.5976,-12.11066 11.5976,-20.25976 0,-10.22469 -6.9582,-19.50689 -16.8105,-22.50781 -0.7401,-0.22542 -1.6743,-0.468 -2.9942,-0.60352 -1.3198,-0.13552 -3.0911,-0.21021 -6.082,-0.25586 z m -446.5996,0.0156 c -10.7072,-0.076 -29.7028,-0.0583 -64.08008,0.006 -40.81084,0.076 -60.0089,0.0828 -70.67382,0.35743 -10.66492,0.2746 -13.01788,0.86711 -19.19727,1.99218 -16.92772,3.08203 -33.33148,9.45659 -46.21484,18.02344 -20.31332,13.50744 -33.92003,32.45334 -38.53711,53.97266 -1.43918,6.70769 -1.56592,18.74095 -0.23242,25.31445 5.02988,24.79478 23.50872,46.5812 55.5039,66.52539 17.84566,11.12409 33.94691,19.248 76.52149,38.63281 13.1716,5.99722 28.36087,13.05042 33.59961,15.59961 36.4236,17.72396 53.12795,31.65209 57.29882,45.46094 0.83185,2.75407 0.81674,11.468 -0.21289,15.08008 -2.42806,8.51803 -7.62722,15.29445 -15.91406,20.59961 -8.28684,5.30515 -19.70965,9.03686 -34.2168,10.93945 -4.99404,0.65497 -12.00742,0.75909 -79.96093,0.98047 -26.23068,0.0854 -44.9593,0.18082 -57.25586,0.29688 -6.14828,0.058 -10.68527,0.12148 -13.76367,0.1914 -1.53921,0.035 -2.71145,0.0712 -3.56055,0.11133 -0.42455,0.0201 -0.76573,0.0405 -1.0625,0.0664 -0.29677,0.0259 -0.22584,-0.12152 -1.19336,0.23242 -8.30037,3.03636 -13.95573,9.39578 -15.97656,16.68164 -2.02084,7.28586 -0.35958,15.51161 5.40625,21.92578 3.37392,3.75332 7.91022,6.25608 13.13672,7.35547 0.93133,0.19591 0.72059,0.0866 1.06445,0.0996 0.34386,0.013 0.79016,0.0238 1.35156,0.0352 1.12281,0.0227 2.69758,0.0431 4.6875,0.0625 3.97984,0.0387 9.61191,0.0713 16.48633,0.0957 13.74884,0.0488 32.46799,0.0666 52.84766,0.041 66.74619,-0.0839 74.76283,-0.15223 80.6875,-0.84961 18.63892,-2.1939 32.93892,-6.06547 46.41015,-12.63867 29.5955,-14.44094 47.53833,-40.34765 49.12891,-71.25 1.49946,-29.13214 -14.79384,-55.48656 -46.625,-76.71484 -16.64941,-11.1041 -31.1745,-18.52777 -75.59571,-38.67411 C 712.13618,347.30077 687.14836,335.04526 677.17578,329.30859 650.47191,313.94737 636.03914,299.40091 634,288.78516 c -0.93428,-4.86389 0.54594,-11.75182 4.18359,-17.625 2.42903,-3.92179 8.74101,-10.22457 13.82618,-13.59571 9.4195,-6.24451 21.91209,-10.44151 36.36914,-12.05664 4.30843,-0.48133 16.50367,-0.62211 75.8164,-0.63281 22.3917,-0.004 40.27518,-0.0452 52.80664,-0.12109 6.26573,-0.038 11.19188,-0.0844 14.6836,-0.13868 1.74586,-0.0271 3.13079,-0.0563 4.1582,-0.0879 1.02741,-0.0316 1.49148,-0.0244 2.20117,-0.12695 10.15863,-1.4682 18.3945,-9.63232 20.08594,-19.83984 1.89852,-11.4572 -5.58784,-22.98441 -16.9043,-26.2461 -1.91981,-0.55329 -4.23615,-0.60367 -14.94336,-0.67968 z m 627.8887,0.006 c -7.1479,-0.0331 -14.287,0.26768 -18.6289,0.91797 -25.5352,3.82435 -47.5901,13.33394 -67.2149,29.00586 -6.0182,4.80598 -15.7318,14.52093 -20.541,20.54297 -16.448,20.5964 -26.3537,44.40633 -29.3457,70.53906 -0.6504,5.67802 -0.685,19.41133 -0.6855,112.89454 V 538.2793 l 0.1543,0.95117 0.8964,2.67969 c 0.6,1.79555 1.5458,3.86793 2.5098,5.38086 3.3641,5.28008 9.4117,9.47552 15.4629,10.63086 v 0.002 c 3.3268,0.634 5.7955,0.5958 9.2617,-0.13867 9.6088,-2.03617 17.1813,-10.08198 18.582,-19.77344 0.1051,-0.72699 0.095,-1.19337 0.127,-2.25 0.031,-1.05664 0.059,-2.48618 0.086,-4.29102 0.054,-3.60966 0.099,-8.71436 0.1368,-15.21875 0.075,-13.00877 0.1161,-31.61396 0.1211,-54.98437 0,-36.02382 0.011,-54.36669 0.1171,-63.70508 0.047,-4.08555 0.1262,-5.92347 0.209,-7.19141 0.8986,-0.025 1.8809,-0.0499 3.3828,-0.0723 3.7391,-0.0557 9.3305,-0.10191 16.8164,-0.13867 14.9719,-0.0735 37.5311,-0.10938 68.1289,-0.10938 38.5118,0 61.0361,0.0221 74.002,0.10938 6.4829,0.0436 10.5825,0.1036 13.0547,0.18359 0.62,0.0201 0.8492,0.0423 1.2715,0.0645 0.092,1.30402 0.1794,3.40592 0.2402,7.82032 0.1333,9.68212 0.1912,28.63856 0.2969,65.83007 l 0.2148,75.77539 0.3125,1.32422 1.8262,3.68555 c 3.5139,7.09115 9.9589,11.93097 17.6621,13.20313 12.5024,2.06473 24.7919,-7.05174 26.8418,-19.74415 v -0.002 c 0.102,-0.62886 0.073,-0.76851 0.092,-1.28711 0.019,-0.51938 0.038,-1.20019 0.055,-2.04687 0.034,-1.69338 0.065,-4.04521 0.094,-6.97266 0.058,-5.8549 0.1075,-14.00833 0.1465,-23.71289 0.078,-19.40912 0.1182,-45.01753 0.1192,-70.79102 10e-4,-25.77348 -0.037,-51.70991 -0.1133,-71.77148 -0.038,-10.03078 -0.085,-18.59268 -0.1426,-24.93555 -0.058,-6.34286 -0.1068,-10.24558 -0.209,-11.74804 -1.3001,-19.11468 -5.6631,-35.2358 -14.1289,-52.1875 -12.7852,-25.60029 -33.028,-46.35602 -58.2246,-59.69141 -13.5089,-7.14962 -28.0284,-11.86788 -44.3027,-14.42578 -4.3784,-0.68818 -11.5337,-1.05654 -18.6817,-1.08985 z m 410.3945,13.01368 c -8.414,0.0744 -16.4391,4.83123 -20.5801,12.43945 -0.4966,0.91247 -1.3729,2.04052 -1.8125,4.28711 -0.4395,2.24659 -0.6383,5.54159 -0.7832,12.5293 -0.2897,13.97541 -0.2461,42.58885 -0.2461,104.04882 0,61.07835 -0.023,90.34844 0.2657,105.82618 0.2889,15.47773 0.9767,17.61116 2.2011,23.07031 4.6338,20.66067 14.7323,39.04485 29.5625,53.80273 18.5232,18.43276 42.6554,29.34914 69.5918,31.53125 0.6237,0.0505 1.24,0.0482 2.5293,0.0684 1.2893,0.0202 3.0303,0.04 5.1035,0.0586 4.1464,0.0371 9.6218,0.07 15.4317,0.0879 11.4845,0.0353 17.6537,0.0288 21.75,-0.29492 4.0963,-0.32377 6.3897,-1.15282 8.7129,-2.33008 5.4836,-2.77879 10.0378,-8.19349 11.873,-14.08985 3.6352,-11.67985 -2.6536,-24.51732 -14.1504,-29.10742 -1.2681,-0.50627 -2.7577,-0.95206 -6.2168,-1.11719 -3.459,-0.16513 -9.4207,-0.23067 -21.2812,-0.35937 -12.457,-0.13517 -19.1962,-0.2425 -23.5449,-0.55078 -4.3488,-0.30829 -6.2393,-0.76453 -9.6993,-1.7461 -23.2437,-6.59414 -40.6221,-26.2886 -44.1406,-49.98437 -0.2215,-1.49101 -0.4263,-5.98484 -0.5195,-22.12891 -0.093,-16.14406 -0.1142,-44.04904 -0.1192,-92.99219 0,-61.18065 0.044,-89.60291 -0.2675,-103.52539 -0.1557,-6.96123 -0.3706,-10.27308 -0.8418,-12.56445 -0.4713,-2.29137 -1.3459,-3.41564 -1.9082,-4.4707 -3.4138,-6.40496 -10.0907,-11.12079 -17.2891,-12.22852 -1.2077,-0.18584 -2.4191,-0.2704 -3.6211,-0.25976 z m -411.4805,34.28515 c 4.2403,-0.0341 8.4608,0.0821 10.7676,0.36133 40.3762,4.88712 71.888,35.52491 77.709,75.52539 0.4119,2.83025 0.7763,8.62249 0.9238,13.69336 0.074,2.53544 0.097,4.91682 0.061,6.69141 -0.013,0.62406 -0.04,1.04566 -0.064,1.48633 h -88.7773 c -25.0284,0 -47.8144,-0.0339 -64.3594,-0.0859 -8.2725,-0.026 -14.9862,-0.0555 -19.6348,-0.0899 -1.9723,-0.0145 -3.3568,-0.0313 -4.5429,-0.0469 0,-0.11998 -0.01,-0.17027 -0.012,-0.29688 -0.044,-1.7709 -0.056,-4.18137 -0.037,-6.69921 0.037,-5.0357 0.2346,-10.77217 0.418,-12.25586 2.5111,-20.31488 11.2215,-38.27621 25.4297,-52.48438 13.9765,-13.97643 31.4738,-22.60802 51.2344,-25.26172 2.3839,-0.32014 6.6445,-0.50297 10.8847,-0.53711 z m 1082.5743,47.06446 c -6.8216,-0.0114 -13.6127,0.3423 -18.252,1.06836 -8.2821,1.29614 -15.4128,2.95783 -22.5859,5.26757 -42.0056,13.52582 -74.7084,47.09543 -87.0762,89.39063 -13.426,45.91382 -1.2059,95.39794 32.0605,129.83984 22.6986,23.50054 52.5471,37.60442 85.5664,40.45508 6.5398,0.56459 19.4758,0.24975 26.2735,-0.62695 32.2842,-4.1637 60.5345,-18.84502 82.6933,-42.96289 11.785,-12.82694 21.046,-28.42145 27.0411,-45.49805 3.6476,-10.38986 1.9911,-19.54593 -5.0664,-26.60352 -8.8352,-8.83517 -22.9467,-9.21158 -32.2364,-0.85937 -3.2853,2.95377 -5.1924,6.18202 -7.5937,12.58594 -4.874,12.99767 -10.8994,22.47285 -20.1348,31.71093 -26.2026,26.21021 -65.7621,32.70703 -98.8926,16.2461 -9.3936,-4.66727 -15.6736,-9.18767 -22.9199,-16.4961 -12.3796,-12.48582 -20.1465,-27.45936 -23.6152,-45.61718 -1.103,-5.7741 -1.2,-23.1328 -0.1875,-28.61719 1.6334,-8.84812 3.7787,-15.62957 7.2402,-22.94531 22.4545,-47.45749 81.7002,-63.76476 125.5488,-34.53907 2.2027,1.46812 4.7513,3.40985 5.5606,4.10743 -0.4423,0.30073 -0.7405,0.52356 -1.416,0.94922 -2.352,1.48191 -6.1201,3.7115 -11.6758,6.91992 -8.2651,4.77309 -32.6704,18.85673 -54.2305,31.29492 -11.3042,6.52151 -21.3318,12.37279 -28.6953,16.73437 -3.6818,2.18079 -6.6959,3.98802 -8.8809,5.32618 -1.0924,0.66907 -1.9762,1.22104 -2.6464,1.65234 -0.6703,0.4313 -0.9619,0.56953 -1.5547,1.0918 -8.2004,7.22411 -10.314,19.03032 -5.1641,28.71484 5.3883,10.13271 17.5258,14.9434 28.3516,11.21875 0.8616,-0.29643 0.9756,-0.43198 1.6758,-0.80078 0.7001,-0.3688 1.6273,-0.87213 2.7695,-1.5 2.2843,-1.25573 5.4238,-3.01046 9.1992,-5.14258 7.5508,-4.26425 17.6446,-10.03377 28.4727,-16.28516 51.6239,-29.80414 74.415,-42.91886 84.8047,-49.06054 5.1948,-3.07084 7.2523,-4.35328 8.5234,-5.33399 0.6355,-0.49035 1.1325,-1.0067 1.418,-1.35351 0.2854,-0.34682 0.3312,-0.4319 0.6562,-0.75391 8.3198,-8.2431 10.1093,-21.49292 4.3789,-31.86719 -2.6393,-4.77826 -8.4865,-11.83737 -14.7871,-18.18164 -20.7238,-20.86761 -46.3825,-33.78932 -76.1934,-38.40429 -4.757,-0.73641 -11.6081,-1.11363 -18.4296,-1.125 z M 925.51953,299.2168 c -9.54133,0 -19.08138,0.036 -26.51367,0.10547 -3.71615,0.0347 -6.90473,0.0784 -9.3125,0.13085 -2.40777,0.0525 -3.76679,0.0666 -4.83398,0.20508 -6.8933,0.89442 -13.13085,4.78008 -16.85938,10.54883 -7.28794,11.27587 -3.78134,26.3156 7.74609,33.12891 2.50074,1.47806 4.49012,2.64246 9.10547,3.05273 4.61535,0.41028 12.2593,0.43061 28.36524,0.5625 l 26.10547,0.21289 0.10546,81.4375 c 0.0378,29.30189 0.0308,50.43648 -0.0254,64.27539 -0.0281,6.91946 -0.0685,12.01808 -0.12109,15.38672 -0.0171,1.09538 -0.0372,1.70957 -0.0566,2.4375 -1.19346,0.0542 -2.66169,0.10608 -4.79688,0.1543 -4.89113,0.11045 -12.21034,0.20126 -21.98242,0.27344 -14.25445,0.10527 -21.54501,0.1632 -25.68554,0.3125 -4.14054,0.14929 -5.68415,0.53818 -6.96094,1.02148 -16.18024,6.12468 -20.7893,26.7244 -8.63086,38.86719 3.35531,3.35099 7.64642,5.76205 12.00781,6.59375 0.60609,0.11558 0.6612,0.079 1.00977,0.0957 0.34856,0.0167 0.78853,0.0322 1.33593,0.0469 1.09481,0.0294 2.61346,0.0559 4.54297,0.082 3.85902,0.0522 9.3562,0.0993 16.2793,0.13867 13.8462,0.0787 33.39261,0.12988 56.86719,0.14258 42.58173,0.023 62.56943,0.0753 72.74213,-0.23633 5.0864,-0.15582 7.7368,-0.37841 9.7481,-0.85742 2.0112,-0.47902 3.1545,-1.25886 4.3105,-1.875 8.6287,-4.59906 13.7077,-14.49795 12.2188,-24.02539 -1.469,-9.39926 -8.402,-17.17703 -17.5078,-19.54883 -3.0831,-0.80308 -7.5252,-0.75781 -31.3848,-0.75781 -12.48,0 -19.52963,-0.019 -23.4531,-0.11133 -1.38832,-0.0327 -1.96744,-0.0834 -2.63868,-0.13086 -0.0164,-0.28652 -0.0318,-0.34802 -0.0469,-0.72852 -0.089,-2.24426 -0.15484,-6.17962 -0.20117,-12.80664 -0.0927,-13.25404 -0.10938,-37.31271 -0.10938,-80.73242 0,-42.50113 -0.0191,-66.61192 -0.11133,-80.40039 -0.0461,-6.89423 -0.11004,-11.20522 -0.20117,-13.97852 -0.0911,-2.77329 -0.14634,-3.9225 -0.44531,-5.07031 -2.42133,-9.29615 -10.38292,-16.26996 -19.95313,-17.51172 -1.06718,-0.13847 -2.42621,-0.15261 -4.83398,-0.20508 -2.40777,-0.0525 -5.5944,-0.0961 -9.31055,-0.13085 -7.43229,-0.0695 -16.97234,-0.10547 -26.51367,-0.10547 z m 1162.22847,0 c -9.5413,0 -19.0813,0.036 -26.5136,0.10547 -3.7162,0.0347 -6.9048,0.0784 -9.3125,0.13085 -2.4078,0.0525 -3.7649,0.0666 -4.8321,0.20508 -6.8933,0.89442 -13.1328,4.78008 -16.8613,10.54883 -5.1022,7.8941 -5.1022,17.85394 0,25.74805 3.8389,5.93954 10.1427,9.74477 17.3574,10.57422 1.6672,0.19165 5.1543,0.23985 10.6055,0.3164 5.4512,0.0766 12.4549,0.124 19.7109,0.125 11.8062,10e-4 18.4061,0.021 21.9922,0.11328 0.917,0.0236 1.1214,0.0593 1.666,0.0918 0.015,1.12658 0.029,2.49129 0.043,4.38867 0.031,4.33689 0.06,10.57474 0.084,18.24219 0.047,15.33491 0.076,36.39659 0.076,59.48047 0,41.27916 0,62.27639 -0.1094,72.96289 -0.048,4.89089 -0.1284,7.21216 -0.2188,8.63672 -1.2283,0.051 -2.9395,0.0964 -5.2343,0.13281 -4.79,0.076 -11.8323,0.11761 -21.0254,0.12109 -8.8566,0.003 -16.0251,0.0466 -21.1504,0.125 -2.5627,0.0392 -4.6112,0.0855 -6.125,0.14258 -1.5138,0.0571 -2.0631,-0.009 -3.2559,0.26563 -6.1547,1.41749 -12.0786,5.91518 -15.2695,11.49219 -5.3199,9.29814 -3.4086,21.38097 4.498,28.70117 3.237,2.99675 7.4732,5.28241 11.5332,6.05664 0.6061,0.11558 0.6613,0.079 1.0098,0.0957 0.3486,0.0167 0.7885,0.0322 1.336,0.0469 1.0948,0.0294 2.6134,0.0559 4.5429,0.082 3.859,0.0522 9.3562,0.0993 16.2793,0.13867 13.8462,0.0787 33.3907,0.12988 56.8653,0.14258 42.565,0.023 62.5562,0.0741 72.7304,-0.23633 5.0871,-0.15523 7.7362,-0.37673 9.7461,-0.85352 2.01,-0.47678 3.1542,-1.25594 4.3047,-1.86914 6.5191,-3.47457 11.305,-10.30803 12.2109,-17.54882 1.4854,-11.87277 -5.9856,-23.04162 -17.4785,-26.03516 -3.0831,-0.80308 -7.5271,-0.75781 -31.3867,-0.75781 -12.48,0 -19.5277,-0.019 -23.4512,-0.11133 -1.3883,-0.0327 -1.9674,-0.0834 -2.6386,-0.13086 -0.016,-0.28636 -0.032,-0.34836 -0.047,-0.72852 -0.089,-2.2443 -0.1548,-6.17961 -0.2012,-12.80664 -0.093,-13.25404 -0.1094,-37.31271 -0.1094,-80.73242 0,-42.50113 -0.019,-66.61192 -0.1113,-80.40039 -0.046,-6.89423 -0.11,-11.20522 -0.2012,-13.97852 -0.091,-2.77329 -0.1463,-3.92253 -0.4453,-5.07031 -2.4195,-9.28896 -10.3904,-16.27093 -19.9531,-17.51172 -1.0672,-0.13846 -2.4262,-0.15261 -4.834,-0.20508 -2.4078,-0.0525 -5.5963,-0.0961 -9.3125,-0.13085 -7.4323,-0.0695 -16.9723,-0.10547 -26.5137,-0.10547 z m 298.2208,0.30273 c -1.4602,-0.0937 -2.9414,-0.0436 -4.4258,0.16406 -3.4081,0.47683 -6.5132,1.50479 -9.2637,3.11719 -3.7044,2.17156 -7.3615,6.33747 -9.1699,10.29297 -0.3326,0.72749 -0.4837,1.22188 -1.0039,2.64063 -0.5203,1.41876 -1.2414,3.41065 -2.1446,5.91601 -1.8062,5.01073 -4.3357,12.07417 -7.4043,20.67578 -6.137,17.20322 -14.4309,40.55504 -23.4004,65.90821 -8.9682,25.34928 -17.1697,48.45483 -23.1582,65.25781 -2.9942,8.40149 -5.4347,15.22852 -7.1406,19.96875 -0.5923,1.64601 -0.97,2.68457 -1.3769,3.80468 -0.4454,-1.22113 -0.9235,-2.53472 -1.6153,-4.45507 -1.7378,-4.82417 -4.2123,-11.74324 -7.2422,-20.24219 -6.0597,-16.99791 -14.3371,-40.31303 -23.3652,-65.83984 -9.0298,-25.53189 -17.362,-48.959 -23.5137,-66.13672 -3.0758,-8.58886 -5.6046,-15.61505 -7.4062,-20.56641 -0.9008,-2.47568 -1.6205,-4.43115 -2.1367,-5.8125 -0.2581,-0.69067 -0.464,-1.23518 -0.6231,-1.64258 -0.1589,-0.40678 -0.029,-0.3021 -0.4746,-1.07812 v -0.002 c -7.7124,-13.4326 -26.3131,-15.96736 -37.1289,-5.0039 -6.1297,6.21333 -8.3891,14.91952 -6,23.24609 0.1821,0.63454 0.4069,1.23785 0.9395,2.77539 0.5326,1.53754 1.2895,3.70639 2.2461,6.4375 1.9131,5.46222 4.6252,13.17581 7.9394,22.57617 6.6285,18.80074 15.6621,44.34589 25.4981,72.10157 19.7745,55.80064 28.989,81.97383 34.1035,95.14648 2.5572,6.58633 4.0807,9.94987 5.5332,12.2793 1.4524,2.32943 2.7756,3.41233 4.2324,4.90234 6.2185,6.36005 13.3924,10.14855 22.4062,11.8711 4.7417,0.9061 11.3903,0.56921 16.4493,-0.72071 12.376,-3.15567 22.73,-12.09353 27.5722,-23.82617 0.2141,-0.51886 0.4724,-1.2513 1.0352,-2.80664 0.5628,-1.55534 1.3476,-3.73909 2.3301,-6.48242 1.9649,-5.48666 4.7205,-13.21199 8.0664,-22.61328 6.6917,-18.80259 15.7432,-44.30444 25.539,-71.9668 19.4514,-54.92831 28.6494,-80.76244 32.8711,-93.75977 2.1109,-6.49866 3.0022,-9.76313 3.293,-12.18164 0.2908,-2.41851 -0.2233,-3.93501 -0.4824,-5.18164 -2.1582,-10.38272 -11.3569,-18.10775 -21.5781,-18.76367 z m -756.3047,51.05469 c -5.174,0.32444 -9.9374,3.49598 -12.2149,8.5293 v 0.002 0.002 c -1.5812,3.48874 -1.5815,7.58726 -0.014,11.08008 0.365,0.81321 0.653,1.09216 1.0899,1.62891 0.437,0.53675 1.0017,1.17964 1.7461,1.99609 1.4889,1.63289 3.6915,3.94372 6.8476,7.18359 6.3122,6.47975 16.4274,16.66231 32.0606,32.30469 15.8459,15.85508 25.909,25.98068 31.9883,32.22461 3.0397,3.12197 5.0869,5.27875 6.332,6.6582 0.1466,0.16238 0.1724,0.20264 0.2969,0.34375 -0.1248,0.14151 -0.1498,0.1828 -0.2969,0.34571 -1.2451,1.37945 -3.2923,3.53623 -6.332,6.6582 -6.0793,6.24393 -16.1424,16.36953 -31.9883,32.22461 -15.6332,15.64238 -25.7484,25.82494 -32.0606,32.30469 -3.1561,3.23987 -5.3587,5.5507 -6.8476,7.18359 -0.7444,0.81645 -1.3091,1.4613 -1.7461,1.99805 -0.4369,0.53675 -0.7249,0.81569 -1.0899,1.6289 -3.4283,7.63658 1.0341,16.73243 9.1563,19.20313 2.7136,0.82544 5.7108,0.60935 8.5215,-0.31641 1.9846,-0.65364 3.4661,-2.0044 9.2851,-7.62109 5.819,-5.61669 15.9838,-15.73899 34.5176,-34.2461 15.9369,-15.91394 26.1171,-26.02129 32.3945,-32.1289 3.1387,-3.0538 5.3083,-5.11161 6.6954,-6.36328 0.1677,-0.15131 0.2103,-0.17872 0.3554,-0.30664 0.1416,0.12485 0.1826,0.14978 0.3457,0.29687 1.3798,1.24472 3.538,3.29192 6.6602,6.33008 6.2446,6.07632 16.3697,16.13455 32.2226,31.96875 11.0829,11.06992 21.3216,21.21349 28.8946,28.64648 3.7865,3.7165 6.9052,6.75458 9.1386,8.89844 1.1167,1.07193 2.0095,1.91849 2.668,2.52735 0.3292,0.30442 0.5981,0.54782 0.8262,0.74609 0.1141,0.0991 0.2163,0.18592 0.334,0.2793 0.1178,0.0934 0.116,0.15565 0.6484,0.42187 3.1793,1.58991 6.98,1.78124 10.3789,0.65235 3.4386,-1.14215 6.2389,-3.52929 7.9961,-6.75782 1.8587,-3.41497 2.2803,-7.08922 1.2207,-10.79297 l -0.7265,-2.54297 -0.7618,-1.29492 -40.4629,-40.49804 c -15.9891,-16.00364 -26.1014,-26.18237 -32.1953,-32.44336 -3.047,-3.1305 -5.093,-5.2875 -6.334,-6.66407 -0.1464,-0.16238 -0.1708,-0.20278 -0.2949,-0.34375 0.1164,-0.13203 0.1377,-0.16765 0.2735,-0.31836 1.2255,-1.35984 3.249,-3.4926 6.2617,-6.58593 6.0254,-6.18666 16.027,-16.2446 31.8437,-32.06055 14.4805,-14.47993 24.5575,-24.62416 31.1211,-31.34375 3.2817,-3.35979 5.683,-5.86051 7.334,-7.63867 0.8254,-0.88908 1.462,-1.59575 1.9453,-2.16211 0.4833,-0.56636 0.7456,-0.766 1.1778,-1.61719 2.8977,-5.70631 1.2713,-12.92862 -3.7012,-17.02734 -4.2295,-3.48637 -10.2407,-4.33608 -15.0762,-1.91797 -0.5324,0.26622 -0.5306,0.3285 -0.6484,0.42187 -0.1177,0.0934 -0.2199,0.18017 -0.334,0.2793 -0.2281,0.19827 -0.497,0.44168 -0.8262,0.7461 -0.6585,0.60885 -1.5513,1.45541 -2.668,2.52734 -2.2334,2.14386 -5.3521,5.18194 -9.1386,8.89844 -7.573,7.43299 -17.8117,17.57852 -28.8946,28.64843 -15.8529,15.83421 -25.978,25.89048 -32.2226,31.9668 -3.1222,3.03816 -5.2804,5.08536 -6.6602,6.33008 -0.163,0.14699 -0.2042,0.17209 -0.3457,0.29687 -0.1451,-0.12792 -0.1877,-0.15533 -0.3554,-0.30664 -1.387,-1.25171 -3.5568,-3.30923 -6.6954,-6.36328 -6.2773,-6.1081 -16.457,-16.21657 -32.3945,-32.13281 -19.3073,-19.28143 -29.4509,-29.39386 -35.0996,-34.82813 -2.8244,-2.71713 -4.5122,-4.26331 -5.7676,-5.26953 -1.2554,-1.00621 -2.3471,-1.56946 -3.1484,-1.82812 -1.7389,-0.56138 -3.5096,-0.7698 -5.2344,-0.66211 z"
       inkscape:label="NESiCAxLive2"
       transform="translate(-3.3113614,565.11739)"
       sodipodi:nodetypes="ssssssssssssscssssssssccccscssssssssssssccccssssssssssssccssssssssssscccsssscsssssssscsssssssssssssssssssssssscsssssssscsccccsssssssscsssscsscssssssssscssscccccssssssssssscsssssssssscssssssssssssssssssssssssssssscsssssssssscssssssscccccsccsscsccccssssscscccsssssssssscsssssssssssssssssssssssssssscsssssssssccssscccssssssssssssssssssssssscsssssssssssssssssssssssssssscccsscsssssssssssssssssscsssssssssssssssssscscccsccsssscsssssssssssssssccssssssssssssssssssscsssssssccssssssssssssssssssssscccsssssssccssssscsssssscsssssssssssccccsscssssssssssssssssscssssssss" />
    <path
       id="path306"
       style="display:inline;stroke-linecap:square;stroke-miterlimit:0;paint-order:stroke markers fill"
       d="m 1998.2554,569.50997 c -0.8409,0.28056 -1.5026,0.77485 -2.0957,1.33203 -0.5592,0.52536 -1.074,1.13931 -1.3809,1.94922 -0.3068,0.8099 -0.315,1.76881 -0.082,2.58789 0.466,1.63816 1.5491,2.92794 3.1934,4.74414 1.4724,1.62642 4.2076,4.99245 5.9179,7.29492 1.7735,2.38731 3.5738,4.75057 4.3067,5.60352 0.9138,1.06373 2.1941,1.81083 3.5918,1.85156 1.3976,0.0407 2.7134,-0.61966 3.707,-1.61328 0.5883,-0.58824 1.1977,-1.29617 1.4844,-2.30664 0.2867,-1.01048 0.1208,-2.10941 -0.2735,-3.10157 -0.7888,-1.9843 -2.4045,-4.1432 -5.3144,-7.99023 -1.5027,-1.98678 -3.9993,-4.92799 -5.7207,-6.74023 -1.7261,-1.81712 -2.9825,-3.03258 -4.6641,-3.5918 -0.8408,-0.27961 -1.829,-0.30009 -2.6699,-0.0195 z m -1286.94924,3.57226 c -0.60705,-0.0569 -1.24709,0.006 -1.92382,0.26368 -0.64649,0.24579 -1.42719,0.56029 -2.10352,1.27734 -0.67633,0.71704 -1.0419,1.66524 -1.24023,2.70508 -0.39667,2.07968 -0.38282,5.0148 -0.38282,10.66406 0,4.04543 -0.0326,6.66178 -0.11523,8.23633 -0.0223,0.42455 -0.0506,0.57268 -0.0781,0.84375 -0.10653,0.007 -0.14032,0.0143 -0.26172,0.0215 -1.04364,0.0617 -2.63571,0.11812 -4.7793,0.16601 -4.28716,0.0958 -10.79633,0.16025 -19.80273,0.20118 l -25.88867,0.11914 -1.35938,0.54101 -1.11133,1.04492 c -1.26825,1.1917 -1.94427,2.90849 -1.65625,4.53907 0.28803,1.63057 1.44147,2.98957 2.99024,3.81445 0.58176,0.30985 0.6926,0.24585 0.91015,0.2793 0.21756,0.0335 0.44072,0.0562 0.70899,0.0781 0.53654,0.0438 1.2424,0.0785 2.17578,0.11132 1.86675,0.0656 4.6279,0.1168 8.47852,0.15625 7.70123,0.0789 19.75635,0.11133 37.58203,0.11133 18.36698,0 30.38818,0.0298 37.85155,0.10938 3.73169,0.0398 6.32794,0.0928 7.98242,0.1582 0.54542,0.0216 0.82851,0.0451 1.16797,0.0684 -0.0209,0.089 -0.008,0.15248 0.0117,0.14063 -0.0161,0.0117 -0.0179,0.015 -0.0352,0.0273 -0.26339,0.18939 -0.66119,0.46221 -1.14453,0.78125 -0.96668,0.63807 -2.27998,1.46965 -3.68359,2.32617 -28.32091,17.28217 -60.36082,30.70166 -92.6093,38.78711 -4.35912,1.09293 -6.88318,1.76584 -8.66602,2.66016 -0.89142,0.44715 -1.66557,1.00684 -2.18945,1.8164 -0.52389,0.80956 -0.66406,1.7341 -0.66406,2.48242 0,1.49895 0.67135,2.54862 1.44726,3.47266 0.77592,0.92404 1.63516,1.87891 3.36719,1.87891 0.68664,0 0.76829,-0.0817 1.23437,-0.17579 0.46609,-0.0941 1.0583,-0.22403 1.75782,-0.38476 1.39904,-0.32145 3.22372,-0.76463 5.20312,-1.25977 3.9588,-0.99026 8.52586,-2.18922 11.51367,-3.05078 12.04282,-3.47262 24.79698,-7.87427 35.41407,-12.22656 2.12816,-0.8724 3.35967,-1.25621 4.01757,-1.38477 0.009,0.21184 0.0169,0.3437 0.0254,0.61133 0.0375,1.18856 0.0724,2.90184 0.10157,4.99805 0.0584,4.19242 0.0958,9.92321 0.0977,16.16992 l 0.006,22.74219 0.58593,1.41406 1.05664,1.05664 c 0.98867,0.98868 1.94055,1.64453 3.5879,1.64453 1.64734,0 2.59922,-0.65585 3.58789,-1.64453 l 1.05664,-1.05664 0.58593,-1.41406 V 664.2502 c 0,-6.80133 0.031,-13.06357 0.0801,-17.66797 0.0245,-2.30219 0.0539,-4.1924 0.0859,-5.51757 0.013,-0.53698 0.0257,-0.9085 0.0391,-1.24415 0.43882,-0.27909 1.0951,-0.66749 1.91016,-1.125 1.65846,-0.93091 3.94448,-2.13752 6.42188,-3.37695 10.43299,-5.21959 18.23781,-9.51612 26.8457,-14.77734 3.224,-1.97054 5.34681,-3.42132 6.87108,-4.99805 1.52429,-1.57673 2.34599,-3.36651 2.70705,-5.29101 0.62654,-3.33977 -0.7551,-6.98791 -3.26172,-9.43555 -1.48388,-1.44897 -3.2186,-2.64162 -6.52149,-3.04492 -3.30289,-0.40331 -8.46726,-0.40821 -18.49219,-0.40821 -8.57435,0 -13.04679,-0.0104 -15.29883,-0.11328 -0.7331,-0.0335 -0.86689,-0.071 -1.14062,-0.10937 -0.0452,-0.50399 -0.0895,-1.17967 -0.125,-2.05078 -0.0758,-1.86166 -0.12109,-4.45391 -0.12109,-7.50977 0,-2.79641 -0.029,-5.41507 -0.0781,-7.39844 -0.0245,-0.99168 -0.0541,-1.82275 -0.0879,-2.45312 -0.0169,-0.31519 -0.0346,-0.57776 -0.0566,-0.80664 -0.022,-0.22889 0.0777,-0.20539 -0.17774,-0.8711 -0.54057,-1.4085 -1.61021,-2.06566 -2.68949,-2.51172 -0.53965,-0.22302 -1.11366,-0.40015 -1.72071,-0.45703 z m 1275.69334,0.0625 c -1.813,-0.13852 -3.6821,0.75612 -4.7695,2.3086 -0.336,0.47966 -0.7768,1.02973 -0.9629,1.96093 -0.186,0.93121 0.093,1.93468 0.5352,2.74219 0.885,1.61503 2.4722,3.36447 5.6152,6.99024 1.522,1.75579 4.1283,5.19862 5.6035,7.41015 0.793,1.18871 1.5924,2.31109 2.2618,3.19141 0.3346,0.44016 0.6342,0.8179 0.9043,1.13086 0.2699,0.31295 0.2641,0.48241 1,0.91211 1.7046,0.99556 3.6443,0.71121 5.1035,-0.11524 1.4591,-0.82645 2.7031,-2.35149 2.7031,-4.33007 0,-1.10424 -0.3431,-1.62293 -0.7266,-2.4004 -0.3834,-0.77746 -0.8922,-1.65236 -1.5019,-2.61914 -1.2194,-1.93356 -2.8395,-4.22389 -4.5625,-6.49023 -1.723,-2.26634 -3.5431,-4.49988 -5.1641,-6.30469 -1.6209,-1.8048 -2.7783,-3.11644 -4.2754,-3.89062 -0.5611,-0.29019 -1.1594,-0.44992 -1.7637,-0.4961 z m -130.8632,3.54297 c -1.0401,0 -1.2043,0.27809 -1.5899,0.49219 -0.3855,0.2141 -0.7806,0.47507 -1.2148,0.78516 -0.8684,0.62017 -1.8791,1.43573 -2.9043,2.35546 -8.2742,7.42306 -13.0068,11.38526 -19.2363,16.10547 -25.2158,19.10638 -52.986,32.4306 -83.7481,40.18164 -4.6632,1.17498 -7.2353,1.83697 -9.0312,2.72657 -0.898,0.4448 -1.6906,1.02632 -2.1914,1.86718 -0.5008,0.84087 -0.5821,1.7326 -0.5821,2.44532 0,2.91989 2.425,5.10156 5.2969,5.10156 1.0506,0 1.9598,-0.23995 3.5469,-0.58594 1.587,-0.34599 3.5811,-0.82459 5.7461,-1.375 4.33,-1.10082 9.3257,-2.48212 12.998,-3.64453 13.4267,-4.24997 24.4227,-8.77042 37.8086,-15.54102 2.4268,-1.22749 4.6868,-2.34459 6.3613,-3.14843 0.6672,-0.32027 1.1529,-0.54416 1.6016,-0.75 0.077,0.7803 0.146,2.1341 0.1914,4.40234 0.093,4.64513 0.1113,12.95705 0.1113,27.74024 v 33.1582 l 0.586,1.41406 1.0566,1.05664 c 0.9009,0.90094 2.076,1.52449 3.3457,1.5957 1.2692,0.0712 2.5089,-0.42024 3.4981,-1.2207 l 1.0175,-0.82422 0.7422,-1.54101 0.2149,-36.74414 0.209,-35.6836 5.582,-3.73828 c 11.1293,-7.4552 22.772,-16.70245 31.8105,-25.27148 1.9455,-1.8444 3.196,-3.04334 3.7969,-4.73633 0.3004,-0.8465 0.3089,-1.88996 -0.012,-2.72656 -0.3203,-0.8366 -0.8387,-1.4442 -1.4024,-2.00782 -0.4903,-0.49033 -1.0232,-0.89827 -1.5761,-1.22656 -0.553,-0.32828 -0.9909,-0.66211 -2.0332,-0.66211 z m -863.35748,2.09961 c -1.41261,-0.0822 -2.85955,0.41033 -3.94922,1.5 -0.28779,0.2878 -0.74763,0.88705 -0.96485,1.53906 -0.21721,0.65202 -0.29436,1.31078 -0.35546,2.25196 -0.1222,1.88236 -0.12696,4.97635 -0.12696,10.89648 0,4.61788 -0.0353,7.75434 -0.11718,9.75195 -0.0349,0.85147 -0.082,1.39102 -0.12891,1.82813 -0.5061,0.0631 -1.22811,0.13135 -2.67188,0.17969 -3.33288,0.1116 -9.4613,0.15724 -20.60351,0.20898 l -24.4336,0.11328 -1.40625,0.58594 -0.93945,0.93945 c -2.07097,2.0714 -2.02333,5.38635 0.0391,7.44922 0.26167,0.26173 1.07254,0.85266 1.88672,1.04883 0.81419,0.19617 1.75138,0.26807 3.39844,0.33398 3.29412,0.13183 9.38668,0.16076 21.45508,0.2168 11.14221,0.0517 17.27063,0.0974 20.60351,0.20899 1.52082,0.0509 2.32871,0.12347 2.81446,0.18945 -0.0554,0.0572 0.12173,0.46692 0.16601,1.55469 0.0547,1.34466 -0.011,3.14248 -0.1875,5.08593 -0.35299,3.88692 -1.16103,8.40842 -2.14844,11.38868 -6.62806,20.00549 -25.5062,38.31067 -44.65624,43.45312 -1.1178,0.30018 -2.21396,0.65496 -3.12891,1.00195 -0.45748,0.1735 -0.86686,0.34426 -1.23242,0.51954 -0.36556,0.17527 -0.64505,0.2793 -1.0918,0.68359 -2.17507,1.9684 -1.86431,5.18045 0.043,7.22656 0.50386,0.54054 1.2533,1.19173 2.20508,1.41211 0.95177,0.22038 1.71132,0.10502 2.80273,-0.0215 5.72895,-0.66393 14.78579,-4.56763 21.76758,-9.0586 15.53124,-9.99031 27.763,-25.33745 33.29101,-41.86328 1.87566,-5.60717 2.73438,-11.09811 2.73438,-17.40234 0,-1.71877 0.0447,-3.03405 0.12109,-3.88477 0.005,-0.0551 0.0104,-0.0621 0.0156,-0.11328 0.0597,-0.004 0.0681,-0.007 0.13281,-0.0117 0.96033,-0.0627 2.48986,-0.11636 4.66216,-0.15625 4.3444,-0.0798 11.2797,-0.11133 21.7343,-0.11133 13.395,0 20.3235,0.008 23.9082,0.11328 1.6904,0.0497 2.5404,0.13565 2.9453,0.20313 0.049,0.28235 0.1137,0.79601 0.1465,1.81055 0.072,2.23037 0.039,6.38157 -0.051,14.02343 -0.172,14.64379 -0.2824,16.80586 -1.0996,21.10938 -1.2791,6.73637 -2.8371,12.23934 -4.5058,16.1875 -1.6688,3.94816 -3.5602,6.21872 -4.7051,6.77148 -0.6633,0.32026 -2.2387,0.61624 -6.2168,0.74805 -8.447,0.27989 -12.1828,-0.68117 -17.7031,-4.47851 -1.4031,-0.96512 -2.4543,-1.66646 -3.8887,-1.8086 -1.4344,-0.14214 -2.7619,0.67405 -3.6367,1.54883 -1.9476,1.9476 -2.1372,5.19135 -0.252,7.21484 2.5214,2.70638 6.9962,5.12228 11.8496,6.74805 1.4111,0.47267 2.6127,0.78678 4.3067,0.93555 1.6939,0.14877 3.8855,0.16601 7.7148,0.16601 4.1533,0 6.263,0.009 7.8672,-0.16797 1.6043,-0.17661 2.6786,-0.62666 3.9649,-1.22851 1.8295,-0.85605 3.7613,-2.25636 5.1425,-3.72656 4.2161,-4.48775 7.7188,-13.51955 9.7461,-23.6211 1.7568,-8.75387 2.0452,-13.18227 1.9043,-29.48828 -0.063,-7.26886 -0.1039,-11.10253 -0.2461,-13.44727 -0.1422,-2.34473 -0.5283,-3.54726 -1.0136,-4.47656 -1.4382,-2.75363 -4.2747,-4.85221 -7.3457,-5.56445 -0.585,-0.13568 -0.7372,-0.0998 -1.2383,-0.12695 -0.5011,-0.0271 -1.1531,-0.0522 -1.9532,-0.0762 -1.6001,-0.048 -3.7831,-0.0904 -6.4043,-0.12696 -5.2422,-0.0731 -12.23,-0.12019 -19.707,-0.12304 -10.2652,-0.004 -17.084,-0.0377 -21.3574,-0.11914 -2.1367,-0.0407 -3.64099,-0.0953 -4.58595,-0.15821 -0.0153,-10e-4 -0.0163,-0.003 -0.0312,-0.004 -0.0371,-0.41595 -0.077,-0.80582 -0.10547,-1.51562 -0.0796,-1.98118 -0.11523,-5.09106 -0.11523,-9.59571 0,-5.9221 -0.003,-9.00353 -0.12891,-10.90625 -0.063,-0.95135 -0.15183,-1.63363 -0.35742,-2.28125 -0.20559,-0.64761 -0.57321,-1.20168 -0.83398,-1.5332 -0.95331,-1.21194 -2.33153,-1.86894 -3.74414,-1.95117 z m 195.73238,1.87695 c -0.7365,0.068 -1.4563,0.29666 -2.0703,0.70313 -1.2279,0.81295 -2.0022,2.05961 -2.623,3.56836 -3.7347,9.0761 -9.4412,18.64554 -15.1563,25.45703 -7.5823,9.03691 -18.4752,17.58194 -28.3691,22.29102 -1.7153,0.81639 -2.9977,1.56154 -3.9863,2.54101 -0.9887,0.97948 -1.5996,2.35488 -1.5996,3.66992 0,1.59203 0.7837,2.54992 1.6152,3.41211 0.8315,0.8622 1.7456,1.70313 3.3887,1.70313 0.621,0 0.8971,-0.12006 1.2773,-0.24219 0.3802,-0.12213 0.7871,-0.27796 1.2441,-0.46875 0.9142,-0.38159 2.0182,-0.89874 3.2364,-1.50977 2.4363,-1.22205 5.3174,-2.81237 7.8183,-4.35937 8.2219,-5.08581 17.4762,-13.15675 23.6641,-20.63672 0.7734,-0.93488 1.5274,-1.82294 2.1074,-2.48633 0.2319,-0.26517 0.4078,-0.45828 0.5703,-0.63672 0.037,-0.002 0.046,-0.004 0.086,-0.006 0.5222,-0.0257 1.3071,-0.0519 2.2969,-0.0742 1.9797,-0.0447 4.7908,-0.0806 8.1485,-0.10742 6.7153,-0.0536 15.623,-0.071 24.5371,-0.0566 8.914,0.0144 17.8369,0.0615 24.5839,0.13672 3.3736,0.0376 6.2052,0.0817 8.209,0.13281 0.9316,0.0238 1.6384,0.0506 2.1719,0.0762 -5e-4,0.0963 0.013,0.0525 -0,0.19531 -0.1015,0.95385 -0.5933,2.81249 -1.5449,5.57227 -4.3169,12.51937 -10.233,22.17007 -19.3516,31.57227 -7.215,7.43942 -14.3286,12.70565 -23.0449,17.07617 -11.4779,5.75525 -18.0113,7.38449 -40.1602,10.00391 -2.7882,0.32976 -4.457,0.54799 -5.7031,0.83984 -1.246,0.29186 -2.2641,0.82859 -2.9082,1.47266 -0.8921,0.89208 -1.4939,2.09972 -1.5195,3.36914 -0.026,1.26942 0.4884,2.46769 1.2773,3.4707 0.9042,1.14945 2.5468,1.89704 4.0528,1.89453 0.9317,-0.002 2.4298,-0.16482 4.625,-0.4082 2.1951,-0.24337 4.9239,-0.57408 7.6992,-0.92969 5.5506,-0.71121 11.1551,-1.49108 13.3164,-1.9375 34.9642,-7.22206 63.1095,-33.14729 73.0547,-67.30273 0.628,-2.15677 0.9916,-3.76096 0.9531,-5.35157 -0.039,-1.5906 -0.5395,-3.0235 -1.2969,-4.5 -1.1829,-2.3062 -3.0394,-4.02797 -5.4219,-5.02343 -1.3445,-0.56178 -2.8196,-0.61036 -7.6425,-0.70508 -4.823,-0.0947 -12.9599,-0.11719 -27.0743,-0.11719 -10.7333,0 -18.8852,-0.0371 -24.4101,-0.11133 -2.7624,-0.0371 -4.8711,-0.0822 -6.2988,-0.13672 -0.4532,-0.0173 -0.7111,-0.0364 -1.0215,-0.0547 0.1192,-0.3026 0.2312,-0.58919 0.4082,-1 0.51,-1.18413 1.2277,-2.73497 2.0156,-4.33203 1.6294,-3.30257 3.2803,-6.93836 3.8594,-8.65625 0.3905,-1.15835 0.6578,-1.89065 0.707,-2.81836 0.049,-0.92771 -0.3205,-1.84301 -0.664,-2.45508 -0.6822,-1.21536 -1.5118,-1.98854 -2.8829,-2.4707 -0.6817,-0.23975 -1.4353,-0.33164 -2.1718,-0.26367 z m -374.81051,2.91407 c -1.48398,0 -2.65843,0.71849 -3.53906,1.62695 -0.88063,0.90846 -1.55078,2.09768 -1.55078,3.56055 0,1.28937 0.57021,2.69969 1.56836,3.65429 0.99815,0.95461 2.27011,1.60384 3.9707,2.3125 7.77257,3.23895 19.20437,9.66594 27.26172,15.34766 1.36522,0.9627 2.6937,1.83499 3.77148,2.48633 0.5389,0.32567 1.01208,0.59423 1.42774,0.80469 0.20783,0.10523 0.39848,0.19636 0.61133,0.27929 0.21285,0.0829 0.35451,0.20508 0.98632,0.20508 1.10272,0 1.47429,-0.35262 2.00391,-0.67969 0.52962,-0.32706 1.0437,-0.73118 1.52148,-1.20898 1.04552,-1.0455 1.82565,-2.49338 1.62696,-4.03125 -0.19869,-1.53787 -1.14709,-2.69674 -2.34961,-3.75586 -1.53987,-1.35624 -4.79747,-3.5689 -8.56055,-6.00391 -3.76308,-2.435 -7.8997,-4.96959 -10.82617,-6.56054 -3.28963,-1.78839 -7.25944,-3.74741 -10.58594,-5.27539 -1.66324,-0.764 -3.16179,-1.41834 -4.35351,-1.89454 -0.59586,-0.23809 -1.1133,-0.43209 -1.5625,-0.57812 -0.4492,-0.14603 -0.67313,-0.28906 -1.42188,-0.28906 z m 803.58981,0.86328 -1.3691,0.54101 -0.9961,0.9375 c -2.2155,2.08137 -2.1245,5.77742 0.2715,7.66211 0.2933,0.23069 1.2732,0.77192 2.3867,0.92383 1.1136,0.15191 2.7521,0.22687 5.8652,0.2832 6.2264,0.11267 18.2669,0.11329 42.3262,0.11329 h 48.209 l 1.4141,-0.58594 1.0566,-1.05664 c 1.932,-1.93198 2.0359,-5.20091 0.166,-7.19141 l -0.9375,-0.99805 -1.457,-0.6289 h -48.4668 z m 308.5235,5.60937 c -15.0082,-0.003 -28.7308,0.0235 -38.7519,0.0703 -5.0108,0.0234 -9.0949,0.0524 -11.9571,0.084 -1.4311,0.0158 -2.556,0.0332 -3.3457,0.0508 -0.3948,0.009 -0.7036,0.0173 -0.9394,0.0273 -0.1179,0.005 -0.2147,0.01 -0.3145,0.0176 -0.05,0.004 -0.099,0.008 -0.1719,0.0176 -0.073,0.009 -0.077,-0.0391 -0.5,0.12305 -0.847,0.32508 -1.1155,0.70393 -1.4746,1.11328 -0.3591,0.40935 -0.6786,0.86714 -0.9472,1.38672 -0.321,0.62064 -0.6119,1.28282 -0.6563,2.08984 -0.044,0.80703 0.1854,1.51523 0.4453,2.14258 0.2289,0.55263 0.5234,1.03296 0.8633,1.47266 0.3399,0.43969 0.6516,0.83676 1.3398,1.20508 0.656,0.35107 0.6338,0.22216 0.7579,0.24023 0.124,0.0181 0.2268,0.0274 0.3437,0.0371 0.2338,0.0194 0.5133,0.0337 0.8652,0.0488 0.7039,0.0303 1.6883,0.0583 2.959,0.084 2.5414,0.0513 6.2199,0.0952 10.9395,0.13086 9.4392,0.0713 23.0365,0.10938 39.9414,0.10938 26.7579,0 40.2936,0.003 47.1953,0.11132 3.4508,0.0541 5.2657,0.14259 6.0996,0.24219 0.2331,0.0278 0.2032,0.0282 0.2774,0.0449 0.1412,0.12064 0.179,0.0406 0.1992,0.73438 0.024,0.81 -0.1508,2.40282 -0.5723,5.00195 -3.0765,18.9687 -22.9517,43.49711 -49.0644,59.43359 -13.6622,8.33792 -25.3566,11.84268 -39.3653,11.85547 -3.8045,0.003 -6.0346,0.0362 -7.7793,0.44141 -0.8723,0.20261 -1.685,0.53979 -2.3379,1.12305 -0.6528,0.58326 -1.0305,1.32831 -1.2578,1.97461 -0.8827,2.50988 0.2146,5.45323 2.6289,6.5625 0.6421,0.29504 1.0938,0.33747 1.6934,0.41601 0.5996,0.0785 1.291,0.13231 2.0722,0.16992 1.5626,0.0752 3.4817,0.0836 5.5293,0.0371 4.0953,-0.0929 8.6531,-0.39873 11.7774,-0.91992 11.4529,-1.91055 22.8924,-6.59244 34.8926,-14.20898 27.2606,-17.30238 47.71,-42.67873 51.5957,-64.96094 0.7933,-4.54937 0.9185,-8.09584 0.01,-11.05274 -0.9091,-2.95689 -3.0201,-5.14943 -5.8613,-6.46484 -0.578,-0.26762 -1.4331,-0.50483 -2.8184,-0.625 -1.3853,-0.12017 -3.4957,-0.19321 -7.1835,-0.24609 -7.3756,-0.10578 -21.0302,-0.1166 -47.127,-0.1211 z m -462.4141,5.59375 c -21.4907,-0.002 -32.2617,-0.003 -37.8652,0.10938 -2.8018,0.0562 -4.2922,0.13135 -5.3418,0.28711 -1.0497,0.15576 -1.9918,0.68457 -2.291,0.91992 -2.3206,1.82537 -2.4317,5.37223 -0.42,7.51367 l 0.9356,0.9961 1.459,0.63085 h 42.6914 c 23.4867,0 34.6895,-0.0271 39.8008,0.26563 2.1702,0.12431 2.7079,0.36336 2.7832,0.32422 -10e-4,-0.3369 10e-4,-0.0647 -0.2442,0.40039 -0.2662,0.50426 -0.7083,1.2192 -1.2832,2.06055 -1.1498,1.68268 -2.8366,3.89058 -4.8515,6.35351 -4.0299,4.92587 -9.3813,10.89107 -14.543,16.05274 -19.9795,19.97947 -43.0526,35.14712 -69.5527,45.71875 -1.5113,0.60289 -2.9659,1.22713 -4.1192,1.75781 -0.5766,0.26534 -1.0758,0.50623 -1.4863,0.7207 -0.4105,0.21447 -0.6249,0.26456 -1.1289,0.7168 -1.1072,0.9935 -1.4401,2.36182 -1.3867,3.61328 0.053,1.25146 0.4965,2.51324 1.4492,3.52734 0.963,1.0251 1.9793,1.62891 3.5371,1.62891 0.63,0 1.0066,-0.1166 1.5371,-0.25977 0.5306,-0.14316 1.1398,-0.33788 1.8398,-0.58007 1.4001,-0.48438 3.1515,-1.15993 5.129,-1.97071 3.9548,-1.62155 8.8,-3.78127 13.3164,-5.98047 16.2368,-7.90637 30.577,-17.17774 44.248,-28.60937 1.6897,-1.41291 2.8015,-2.27444 3.459,-2.69141 0.4806,-0.30476 0.3965,-0.24069 0.3769,-0.23828 0.2341,0.15615 0.5446,0.37339 0.9844,0.70703 0.9884,0.74968 2.4473,1.92277 4.3926,3.53907 3.8906,3.2326 9.7429,8.24501 17.9316,15.34765 12.3914,10.74781 18.4946,16.06419 22.0137,18.60547 1.7596,1.27064 2.8697,1.99582 4.3535,2.08008 0.7419,0.0421 1.5177,-0.20601 2.0254,-0.52149 0.5077,-0.31547 0.8078,-0.63032 1.0703,-0.87695 1.057,-0.99298 1.7436,-2.43884 1.6328,-3.89453 -0.1107,-1.45569 -0.8706,-2.71654 -1.9316,-3.81641 -0.433,-0.44889 -1.0836,-1.01093 -2.3398,-2.125 -1.2563,-1.11406 -2.9757,-2.62538 -5.0372,-4.42773 -4.1229,-3.60469 -9.6138,-8.3728 -15.4804,-13.43945 -5.8617,-5.06237 -11.2505,-9.74132 -15.209,-13.19727 -1.9792,-1.72798 -3.6012,-3.15027 -4.7422,-4.16016 -0.5705,-0.50494 -1.022,-0.90686 -1.332,-1.1875 -0.047,-0.0424 -0.065,-0.0609 -0.1055,-0.0977 0.2262,-0.27943 0.4458,-0.55327 0.791,-0.95117 0.956,-1.10177 2.302,-2.5739 3.7793,-4.11914 5.0114,-5.24169 10.0385,-11.03692 13.9473,-15.95117 1.9544,-2.45713 3.628,-4.68996 4.8906,-6.54883 1.2626,-1.85887 2.1148,-3.15499 2.4981,-4.57812 1.3257,-4.92342 -1.2692,-10.2314 -5.9532,-12.41211 l -2.2578,-1.05078 -0.8437,-0.1875 z m -128.0469,1.81446 c -14.1468,-0.0392 -25.1665,-0.031 -32.8554,0.0234 -3.8445,0.0272 -6.8543,0.0667 -9.0157,0.11719 -2.1613,0.0504 -3.1716,0.0395 -4.1308,0.21679 -5.6312,1.04098 -10.2665,4.56196 -12.6563,9.66016 l -1.1504,2.45312 -0.1894,0.84961 v 33.59961 33.60156 l 0.1894,0.84961 1.1348,2.41992 c 2.3298,4.9687 6.7246,8.63893 11.7949,9.6543 0.3741,0.0749 0.4545,0.0605 0.6953,0.0742 0.2409,0.0137 0.5376,0.0253 0.9024,0.0371 0.7295,0.0237 1.7237,0.0459 2.9609,0.0664 2.4744,0.0409 5.9194,0.0761 10.0918,0.10352 8.3448,0.0549 19.5952,0.0787 31.7422,0.0606 l 44.1543,-0.0664 0.8457,-0.18945 2.4219,-1.13477 c 3.7493,-1.758 6.5128,-4.44944 8.3203,-8.12109 l 1.4023,-2.85352 0.2071,-0.88281 V 644.38887 610.7795 l -0.1895,-0.84766 -1.209,-2.58398 c -1.7747,-3.79311 -5.2014,-7.08432 -9.0332,-8.63281 l -2.4511,-0.99024 -0.7422,-0.14453 z m -423.94918,10.67382 c -1.25631,0 -2.87039,0.69823 -3.90625,1.97657 -1.03586,1.27834 -1.98974,3.07205 -3.54883,6.11523 -11.19224,21.84614 -29.12717,39.54334 -50.92774,50.26563 -17.30318,8.51032 -33.99277,12.28906 -54.36132,12.28906 -2.76959,0 -4.20629,-0.0139 -5.40235,0.17187 -1.19605,0.18581 -2.25899,0.9133 -2.81836,1.47266 -0.98864,0.98866 -1.64453,1.94054 -1.64453,3.58789 0,1.64734 0.65587,2.59728 1.64453,3.58594 0.54829,0.54827 1.69697,1.31845 3.03125,1.48828 1.33429,0.16983 3.11998,0.1548 6.67578,0.1543 15.35623,-0.003 28.89973,-2.2215 42.7793,-7.01563 25.71049,-8.88062 48.32752,-26.51214 63.53906,-49.51758 2.22205,-3.36056 4.64777,-7.53291 6.54297,-11.11328 0.9476,-1.79018 1.76018,-3.42755 2.35352,-4.76367 0.29667,-0.66806 0.53831,-1.25794 0.7207,-1.78516 0.18239,-0.52721 0.3457,-0.89323 0.3457,-1.63671 0,-1.53002 -0.72211,-2.60752 -1.56054,-3.51563 -0.83843,-0.90811 -1.84163,-1.75977 -3.46289,-1.75977 z m 422.44728,0.12305 c 21.8028,0 32.7712,0.003 38.459,0.11524 2.8438,0.0562 4.3742,0.14474 5.1738,0.25 0.7996,0.10525 0.7271,0.11972 1.1777,0.33789 0.9663,0.46778 1.5201,0.97904 2.1914,2.12109 l 0.9024,1.53516 v 31.76367 31.80859 l -0.7324,1.36914 c -0.396,0.74086 -1.2606,1.64244 -2.084,2.125 l -1.4004,0.82227 -43.7891,-0.004 -43.7793,-0.004 -1.2578,-0.75391 c -0.5074,-0.30421 -1.7301,-1.55186 -2.0918,-2.18359 l -0.8047,-1.40235 v -31.34551 c 0,-8.76063 0.038,-16.85852 0.098,-22.83984 0.03,-2.99067 0.064,-5.45277 0.1036,-7.19727 0.019,-0.87225 0.04,-1.56643 0.061,-2.04492 0.01,-0.21323 0.018,-0.36593 0.025,-0.48047 0.081,-0.24446 0.6043,-1.17876 1.3105,-1.95117 0.7231,-0.79093 1.6649,-1.47327 2,-1.61328 -0.4828,0.20174 0.3969,-0.0664 1.8379,-0.14063 1.4409,-0.0742 3.6843,-0.13097 7.0137,-0.17383 6.6587,-0.0857 17.6745,-0.11328 35.5859,-0.11328 z m -542.76174,2.67969 c -1.05146,-0.20609 -2.28921,0.14747 -2.92773,0.50586 -1.14712,0.64386 -2.07914,1.55328 -2.60547,2.70117 -0.52633,1.14789 -0.57949,2.53179 -0.10742,3.75 0.3126,0.80669 0.95547,1.59897 1.72851,2.15234 0.77305,0.55338 1.67578,0.98874 2.9336,1.53321 10.55945,4.57089 21.70578,10.9807 29.59375,16.99804 1.83342,1.39863 3.09513,2.31646 4.66992,2.66211 0.78739,0.17283 1.68642,0.1177 2.43555,-0.18359 0.74912,-0.30129 1.31675,-0.76988 1.81836,-1.27148 1.1117,-1.11171 1.89903,-2.71581 1.60546,-4.32422 -0.29356,-1.60842 -1.3223,-2.80359 -2.68164,-4.00586 -6.35145,-5.61758 -22.48042,-15.03112 -32.5,-19.10938 -1.8866,-0.7679 -2.91142,-1.20211 -3.96289,-1.4082 z m 818.99024,6.23047 -1.418,0.58594 -1.2656,1.26562 c -0.9745,0.97428 -1.7848,2.14268 -1.7871,3.60352 -0,1.46083 0.8064,2.63252 1.7793,3.60546 l 1.2598,1.25977 1.414,0.58594 h 52.1036 c 22.8418,0 35.8869,0.0194 43.2519,0.10937 3.6825,0.045 5.9525,0.10943 7.2637,0.19141 0.3134,0.0196 0.3912,0.038 0.5957,0.0586 0.032,0.44393 0.01,1.08515 -0.1055,1.82226 -0.2315,1.51528 -0.8039,3.38495 -1.5801,4.91407 -4.5684,9.00052 -15.8167,20.32981 -29.1503,28.98242 -9.5197,6.17757 -22.1032,12.26653 -28.2012,13.82618 -3.8533,0.98547 -10.2414,1.66405 -16.2676,1.67187 -1.5389,0.002 -2.8879,0.0555 -3.9883,0.1582 -1.1004,0.10266 -1.7971,0.10557 -2.7812,0.60352 -3.7434,1.89374 -3.7766,7.62287 0.121,9.26172 1.0109,0.42501 1.7407,0.40821 2.9063,0.47851 1.1656,0.0703 2.5912,0.0928 4.1777,0.0742 3.1731,-0.0372 6.9752,-0.23948 10.4004,-0.60156 7.8884,-0.83386 13.3489,-2.67222 24.17,-8.0918 21.1514,-10.59333 36.8898,-23.65231 46.2929,-38.64063 3.2134,-5.12203 4.4278,-9.01402 4.4278,-14.32226 0,-2.4264 -0.1503,-4.25369 -0.7891,-5.87695 -0.6388,-1.62327 -1.8269,-2.86622 -3.2656,-3.81836 l -1.7324,-1.14649 -1.0996,-0.33203 -53.3653,-0.11328 z m -873.84765,18.42383 c -1.06747,-0.24954 -2.25021,-0.0714 -2.98829,0.23437 -2.13994,0.8864 -3.46484,2.76277 -3.46484,5.10547 0,1.76138 1.21327,2.86011 2.60742,3.80469 1.39416,0.94457 3.30122,1.87981 5.9336,2.99804 6.73877,2.86264 20.37333,9.71581 28.0039,14.08399 1.68445,0.96427 3.30234,1.84021 4.57812,2.48828 0.63789,0.32403 1.18689,0.59002 1.64258,0.79102 0.22785,0.1005 0.42962,0.18419 0.63672,0.25781 0.20711,0.0736 0.2834,0.18061 0.92773,0.1875 3.76518,0.0406 6.28977,-4.05986 4.62696,-7.42969 -0.29535,-0.59855 -0.57743,-0.82171 -0.88867,-1.10742 -0.31125,-0.28572 -0.66239,-0.5642 -1.07422,-0.86719 -0.82366,-0.60598 -1.88393,-1.2996 -3.15625,-2.08398 -2.54464,-1.56877 -5.92671,-3.48355 -9.69922,-5.50782 -7.54502,-4.04853 -16.62017,-8.521 -23.48438,-11.39648 -1.98785,-0.83273 -3.1337,-1.30906 -4.20116,-1.55859 z"
       inkscape:label="Japan"
       sodipodi:nodetypes="sssssssssssssssssssssccsccccssscssssscccscssssssssscscsscccsssccssscsssscsssscssssscssssscssssssssssssscsssssssssssssscssccssccccccsscssccsssssscsccccssssscsscsssssscssssccssscssssssssssssscsssssssssssssccsssssscssssssssssssssccssssscssssssssscssssssssssscssssssccsssssssssssssssssssscccssssccssccccssssssscsscssssssssssscccscsssssssssscssssscssscccssccsssssssssssssssscssssssssssssssscssssscccccsssccccccssssssccccccccccsccccssssscsssscsssssssssssssccccccccsccsssscscssssssssssssssssssccccsccssscccsssscsssssssssccccssssssssscsssssss" />
  </g>
</svg>
