<?xml version="1.0" encoding="UTF-8" standalone="no"?>
<!-- Created by ERK -->

<svg
   width="807.8642mm"
   height="147.95244mm"
   viewBox="0 0 807.8642 147.95244"
   version="1.1"
   id="svg1"
   inkscape:version="1.4 (86a8ad7, 2024-10-11)"
   xml:space="preserve"
   sodipodi:docname="nesicax2.svg"
   xmlns:inkscape="http://www.inkscape.org/namespaces/inkscape"
   xmlns:sodipodi="http://sodipodi.sourceforge.net/DTD/sodipodi-0.dtd"
   xmlns="http://www.w3.org/2000/svg"
   xmlns:svg="http://www.w3.org/2000/svg"><sodipodi:namedview
     id="namedview1"
     pagecolor="#ffffff"
     bordercolor="#000000"
     borderopacity="0.25"
     inkscape:showpageshadow="2"
     inkscape:pageopacity="0.0"
     inkscape:pagecheckerboard="true"
     inkscape:deskcolor="#d1d1d1"
     inkscape:document-units="mm"
     inkscape:zoom="0.58236858"
     inkscape:cx="1639.8549"
     inkscape:cy="467.91672"
     inkscape:window-width="3840"
     inkscape:window-height="2066"
     inkscape:window-x="-11"
     inkscape:window-y="-11"
     inkscape:window-maximized="1"
     inkscape:current-layer="svg1" /><defs
     id="defs1"><marker
       id="DistanceX"
       orient="auto"
       refX="0"
       refY="0"
       style="overflow:visible"><path
         d="M 3,-3 -3,3 M 0,-5 V 5"
         style="stroke:#000000;stroke-width:0.5"
         id="path1" /></marker><pattern
       id="Hatch"
       patternUnits="userSpaceOnUse"
       width="8"
       height="8"
       x="0"
       y="0"><path
         d="M8 4 l-4,4"
         stroke="#000000"
         stroke-width="0.25"
         linecap="square"
         id="path2" /><path
         d="M6 2 l-4,4"
         stroke="#000000"
         stroke-width="0.25"
         linecap="square"
         id="path3" /><path
         d="M4 0 l-4,4"
         stroke="#000000"
         stroke-width="0.25"
         linecap="square"
         id="path4" /></pattern><symbol
       id="*Model_Space" /><symbol
       id="*Paper_Space" /><symbol
       id="*Paper_Space0" /></defs><g
     id="g2"
     inkscape:label="NESiCAxLive"><path
       id="path268"
       style="fill:#000000;stroke:none;stroke-width:0.944827;stroke-linecap:round;fill-opacity:1"
       d="m 1.37588,141.47905 c 0,3.31403 2.6862916,6.00032 6,6.00032 3.313708,0 6,-2.68629 6,-6.00032 V 68.811695 l 39.725105,73.164565 c 5.208236,9.59242 19.774907,5.89295 19.774895,-5.02198 V 58.47941 c 0,-3.313746 -2.686292,-6.000032 -6,-6.000032 -3.313708,0 -6,2.686286 -5.999955,6.000032 l 4.5e-5,72.66732 -39.72525,-73.1644 C 15.942542,48.390092 1.3758784,52.089553 1.37588,63.004575 Z"
       inkscape:label="N"
       sodipodi:nodetypes="cscccccsccccc" /><path
       id="path16"
       style="fill:#000000;stroke:none;stroke-width:0.944827;stroke-linecap:round;fill-opacity:1"
       d="m 78.391307,99.979377 c 0,-26.227509 21.257046,-47.491493 47.484573,-47.499942 l 17.99994,0 c 3.31377,-6e-5 6.00006,2.686232 6.00006,5.99994 0,3.313708 -2.68629,6 -6.00006,6.000015 h -17.99993 c -17.291,-1.8e-5 -32.06688,12.457752 -34.989295,29.49999 h 45.489285 c 3.31371,-5e-6 6,2.686288 6,5.999997 0,3.313713 -2.68629,6.000003 -6,5.999963 H 90.886595 c 2.922411,17.04228 17.698295,29.50005 34.989285,29.50055 l 17.99994,-1.2e-4 c 3.31377,-6.1e-4 6.00006,2.68568 6.00006,5.99939 0,3.31371 -2.68629,6 -6.00006,6.00004 l -17.99993,1.1e-4 C 99.648353,147.47087 78.391307,126.20689 78.391307,99.979377 Z"
       inkscape:label="E"
       sodipodi:nodetypes="sccsccccsccccsccs" /><path
       id="path24"
       style="fill:#000000;stroke:none;stroke-width:0.944827;stroke-linecap:round;fill-opacity:1"
       d="m 198.7811,147.43164 c 0.77496,-0.0317 1.52574,-0.0791 2.26175,-0.14175 1.472,-0.12531 2.88487,-0.31178 4.23418,-0.5568 1.34931,-0.24507 2.63507,-0.5487 3.86033,-0.90832 1.22527,-0.3596 2.39004,-0.77518 3.49381,-1.24413 2.20756,-0.93784 4.17114,-2.08915 5.87294,-3.41117 1.7018,-1.32201 3.14182,-2.81476 4.30938,-4.40137 1.16757,-1.58659 2.06267,-3.26709 2.70793,-4.96128 0.64526,-1.69421 1.04067,-3.40212 1.22834,-5.06898 0.18766,-1.66689 0.1676,-3.29275 -0.048,-4.86967 -0.21561,-1.57692 -0.62674,-3.10489 -1.20238,-4.5361 -0.57564,-1.43117 -1.31579,-2.7656 -2.16873,-3.99846 -0.85294,-1.23286 -1.81867,-2.36418 -2.86139,-3.41569 -2.08544,-2.103 -4.47885,-3.88679 -7.07013,-5.52281 -2.59127,-1.63602 -5.38041,-3.12427 -8.29937,-4.561005 -2.91896,-1.43674 -5.96775,-2.82196 -9.07233,-4.22413 -3.10458,-1.40216 -6.26494,-2.82126 -9.31092,-4.28166 -3.04597,-1.4604 -5.97755,-2.9621 -8.58106,-4.50103 -2.60352,-1.53893 -4.87896,-3.11509 -6.61322,-4.63809 -0.86712,-0.7615 -1.59895,-1.50972 -2.18144,-2.21693 -0.58249,-0.70721 -1.01564,-1.37342 -1.3192,-1.97468 -0.30355,-0.60126 -0.47755,-1.13757 -0.57095,-1.66358 -0.0935,-0.52602 -0.1064,-1.04175 -0.0162,-1.64335 0.0902,-0.6016 0.28345,-1.28907 0.61424,-2.00805 0.3308,-0.71897 0.79913,-1.46943 1.42476,-2.21563 0.62565,-0.74621 1.4086,-1.48815 2.36953,-2.18471 0.96093,-0.69656 2.09982,-1.34775 3.43783,-1.90954 0.669,-0.2809 1.38778,-0.53944 2.1583,-0.76943 0.77052,-0.22998 1.59278,-0.43139 2.47037,-0.59785 0.87759,-0.16646 1.81052,-0.29796 2.79446,-0.38786 0.49198,-0.04491 0.99671,-0.07951 1.52184,-0.10281 0.52514,-0.0233 1.07069,-0.0354 1.60626,-0.03539 h 35.04384 c 3.31372,-1.5e-5 6.00001,-2.686307 6.00001,-6.000015 0,-3.313708 -2.68629,-6 -6.00001,-5.99994 l -35.04384,0 c -0.71432,-6e-5 -1.43649,0.01584 -2.14237,0.04734 -0.70589,0.0314 -1.39549,0.0784 -2.07464,0.14034 -1.3583,0.12396 -2.67476,0.30813 -3.94361,0.5489 -1.26886,0.24078 -2.49011,0.53815 -3.66343,0.88829 -1.17331,0.35013 -2.29867,0.75302 -3.37389,1.20462 -2.15043,0.9032 -4.10024,2.00126 -5.83252,3.25643 -1.73228,1.25518 -3.24701,2.66746 -4.52667,4.19535 -1.27965,1.52789 -2.32422,3.17139 -3.11875,4.88677 -0.79452,1.71538 -1.33899,3.50265 -1.59806,5.325 -0.25908,1.82234 -0.23275,3.67975 0.0744,5.44269 0.30713,1.76295 0.89505,3.43141 1.66417,4.96535 0.76911,1.53394 1.71943,2.93335 2.7859,4.22623 1.06647,1.29289 2.2491,2.47925 3.51497,3.59352 2.53175,2.22855 5.39648,4.16877 8.43894,5.96156 3.04247,1.7928 6.26267,3.438175 9.49241,4.987245 3.22974,1.54906 6.46901,3.00181 9.55772,4.39656 3.08871,1.39475 6.02686,2.73149 8.71401,4.05505 2.68715,1.32357 5.1233,2.63397 7.18577,3.93725 1.03123,0.65165 1.96905,1.30152 2.8003,1.94353 0.83125,0.64204 1.55595,1.27622 2.16779,1.89214 0.61183,0.61595 1.1108,1.21367 1.50708,1.78649 0.39628,0.57285 0.68986,1.12083 0.90836,1.6592 0.21851,0.53838 0.36194,1.06712 0.44012,1.65722 0.0782,0.59008 0.0911,1.24151 0.0139,1.92966 -0.0773,0.68816 -0.24473,1.41306 -0.51681,2.13003 -0.27207,0.71697 -0.64874,1.426 -1.16029,2.12175 -0.51156,0.69577 -1.158,1.37826 -2.00278,2.03374 -0.4224,0.32772 -0.89438,0.64868 -1.42541,0.95795 -0.53103,0.30925 -1.12111,0.60677 -1.7786,0.88599 -0.65749,0.27924 -1.38239,0.54017 -2.18171,0.77475 -0.79932,0.23455 -1.67306,0.44278 -2.6267,0.61606 -0.47683,0.0866 -0.97363,0.16454 -1.49079,0.23267 -0.51717,0.0681 -1.0547,0.12642 -1.61369,0.17388 -0.55898,0.0474 -1.13942,0.0841 -1.73947,0.10881 -0.30002,0.0124 -0.60495,0.0217 -0.91772,0.0281 -0.31277,0.006 -0.6334,0.01 -0.95022,0.0104 l -35.04389,-2.7e-4 c -3.31368,-6.1e-4 -5.99997,2.68568 -5.99997,5.99939 0,3.31371 2.68629,6 5.99997,6.00004 l 35.04386,3e-5 c 0.78734,-1e-5 1.58645,-0.0161 2.36139,-0.0478 z"
       inkscape:label="S"
       sodipodi:nodetypes="scssssssssssssssssssscssssssscsccsccccssssssssssssssssssssscsssssssscscccsccs" /><path
       id="path43"
       style="display:inline;fill:#000000;fill-opacity:1;stroke:none;stroke-width:0.944827;stroke-linecap:round"
       d="m 241.87586,64.47939 c 2e-5,3.313694 2.68631,5.999985 5.99998,5.99998 h 7.00004 c 3.3137,0 5.99999,-2.68629 5.99997,-5.99998 v -5.99998 c 2e-5,-3.31374 -2.68627,-6.00003 -5.99997,-5.999975 h -7.00004 c -3.31367,-6e-5 -5.99996,2.686231 -5.99998,5.999975 z m 39.00003,76.99999 c 0,3.31371 -2.68629,6 -6.00008,6.00004 h -39.99999 c -3.31365,-4e-5 -5.99994,-2.68633 -5.99994,-6.00004 0,-3.31371 2.68629,-6 5.99994,-5.99939 l 14.0001,6.2e-4 V 91.479345 l -14.0001,1.5e-5 c -3.31365,1.5e-5 -5.99994,-2.686277 -5.99994,-5.999985 0,-3.313708 2.68629,-6 5.99994,-5.999975 h 20.00006 c 3.3137,-2e-5 5.99999,2.68627 5.99997,5.99998 l -2e-5,50.00122 13.99998,-6.1e-4 c 3.31379,-6.1e-4 6.00008,2.68568 6.00008,5.99939 z"
       inkscape:label="i"
       sodipodi:nodetypes="cccccccccsccsccccscccccs" /><path
       id="path51"
       style="display:inline;fill:#000000;fill-opacity:1;stroke:none;stroke-width:0.944827;stroke-linecap:round"
       d="m 337.37573,147.47931 c 3.31385,-1.5e-4 6.00014,-2.68644 6.00014,-6.00015 0,-3.31371 -2.68629,-6 -6.00014,-5.99938 l -17.99979,1.1e-4 c -19.60387,-0.004 -35.4941,-15.89672 -35.4941,-35.500507 0,-19.603786 15.89023,-35.496718 35.4941,-35.499993 h 17.99979 c 3.31385,-1.5e-5 6.00014,-2.686307 6.00014,-6.000015 0,-3.313708 -2.68629,-6 -6.00014,-5.99994 l -17.99979,0 c -26.2276,0.0084 -47.48464,21.272433 -47.48464,47.499942 0,26.227513 21.25704,47.491493 47.48464,47.500043 z"
       inkscape:label="C"
       sodipodi:nodetypes="csccsccsccscc" /><path
       d="m 384.62562,52.496537 c -19.73757,0 -35.74048,15.995072 -35.74924,35.732703 v 53.24998 c 0.004,3.31106 2.68889,5.9924 5.99963,5.9924 3.31075,0 5.99544,-2.68134 5.99964,-5.9924 v -38.49998 h 47.50097 l -5.1e-4,38.49998 c 0.004,3.31106 2.68889,5.9924 5.99963,5.9924 3.31075,0 5.99568,-2.68134 5.99963,-5.9924 V 88.22924 C 420.36637,68.491609 404.3632,52.496537 384.62562,52.496537 Z m 0,11.982731 c 13.11677,0 23.75016,10.633153 23.75049,23.749972 l 5.1e-4,2.75022 h -47.50097 v -2.75022 c -1e-5,-13.116819 10.63321,-23.749972 23.74997,-23.749972 z"
       style="stroke:none;stroke-width:0.944827;stroke-linecap:round"
       id="path5"
       inkscape:label="A" /><path
       id="path75"
       style="fill:#000000;fill-opacity:1;stroke:none;stroke-width:0.944827;stroke-linecap:round"
       d="m 475.4009,145.45483 -20.77519,-20.77452 -20.77502,20.77452 c -3.29927,3.29927 -8.24902,-1.65048 -4.95005,-4.95005 L 449.67535,119.72997 428.90064,98.9543 c -3.29946,-3.299382 1.65029,-8.249132 4.95005,-4.949785 l 20.77502,20.775095 20.77518,-20.775095 c 3.29945,-3.299842 8.2492,1.649908 4.95005,4.949785 l -20.77488,20.77567 20.77488,20.77481 c 3.29964,3.29908 -1.65011,8.24883 -4.95004,4.95005 z"
       inkscape:label="x"
       sodipodi:nodetypes="ccccccccccccc" /><path
       id="path83"
       style="fill:#000000;stroke:none;stroke-width:0.944827;stroke-linecap:round;fill-opacity:1"
       d="m 515.87612,147.4792 c -15.74055,-3e-5 -28.50043,-12.75993 -28.50035,-28.50035 l 9e-5,-56.999485 c 0.004,-3.310734 2.68928,-5.992398 6.00003,-5.992398 3.31074,0 5.9958,2.681664 5.9994,5.992398 l -1e-4,56.999595 c 4.9e-4,9.11312 7.38779,16.50043 16.50093,16.50093 l 9.49927,-1.2e-4 c 3.314,-6.1e-4 6.00029,2.68568 6.00029,5.99939 0,3.31371 -2.68629,6 -6.00029,6.00004 z"
       inkscape:label="L"
       sodipodi:nodetypes="cccsccccscc" /><path
       id="path102"
       style="fill:#000000;stroke:none;stroke-width:0.944827;stroke-linecap:round;fill-opacity:1"
       d="m 562.37524,52.479435 h -6.99912 c -3.31396,-4.9e-5 -6.00024,2.686239 -6.00036,5.999975 v 5.99998 c 1.2e-4,3.313686 2.6864,5.999974 6.00036,5.99998 h 6.99912 c 3.31434,1.1e-5 6.00064,-2.686283 6.00038,-5.99998 v -5.99998 c 2.6e-4,-3.313747 -2.68604,-6.000041 -6.00038,-5.999975 z M 542.37538,79.4794 c -3.31321,-2.5e-5 -5.9995,2.686267 -5.9995,5.999975 0,3.313708 2.68629,6 5.99944,5.999985 l 14.00125,-1.5e-5 6e-5,44.001265 -14.00125,-6.2e-4 c -3.31321,-6.1e-4 -5.9995,2.68568 -5.9995,5.99939 0,3.31371 2.68629,6 5.99944,6.00004 h 40.00118 c 3.31309,-4e-5 5.99938,-2.68633 5.99938,-6.00004 0,-3.31371 -2.68629,-6 -5.99932,-5.99939 l -14.00108,6.1e-4 2.6e-4,-50.00122 c 2.5e-4,-3.313717 -2.68605,-6.000011 -6.00038,-5.99998 z"
       inkscape:label="o"
       sodipodi:nodetypes="ccccccccccsccccsccsccccc" /><path
       id="path109"
       style="display:inline;fill:#000000;stroke:none;stroke-width:0.944827;stroke-linecap:round;fill-opacity:1"
       d="M 607.87502,132.45377 590.53164,83.47651 c -1.111,-3.116625 -4.5354,-4.745549 -7.65439,-3.641057 -3.11898,1.104492 -4.75513,4.525455 -3.65691,7.646797 l 18.77243,53.0123 c 3.29782,9.31307 16.46837,9.31307 19.76667,0 l 18.77244,-53.0123 c 1.10228,-3.122632 -0.53352,-6.547969 -3.65507,-7.653367 -3.12155,-1.105397 -6.54843,0.52715 -7.65625,3.647627 z"
       inkscape:label="v"
       sodipodi:nodetypes="ccsccccscc" /><path
       id="path116"
       style="fill:#000000;stroke:none;stroke-width:0.944827;stroke-linecap:round;fill-opacity:1"
       d="m 670.51051,135.47628 c -10.0973,-0.16089 -18.9075,-6.8905 -21.72119,-16.58969 -2.81369,-9.6992 1.02738,-20.098883 9.47101,-25.638406 8.44367,-5.539553 19.51397,-4.922595 27.29073,1.521021 l -28.26187,16.316515 c -2.86875,1.65703 -3.85169,5.32627 -2.19497,8.19581 1.65673,2.86953 5.32586,3.85289 8.19535,2.19691 l 33.69494,-19.45439 c 3.60558,-2.081401 4.60845,-6.830188 2.15276,-10.191535 -9.54119,-13.059965 -26.7888,-17.88141 -41.71773,-11.662497 -14.9288,6.218856 -23.64921,21.857682 -21.09809,37.828842 2.55111,15.97115 15.70935,28.11524 31.83258,29.37408 16.12337,1.25885 31.01079,-8.6956 36.00882,-24.07795 1.02153,-3.15076 -0.7033,-6.53328 -3.85341,-7.55681 -3.1501,-1.02354 -6.53372,0.69914 -7.55926,3.84859 -3.12082,9.6049 -12.14233,16.0504 -22.23967,15.88951 z"
       inkscape:label="e"
       sodipodi:nodetypes="sssccscccssscscs" /><path
       id="path127"
       style="fill:#000000;stroke:none;stroke-width:0.944827;stroke-linecap:round;fill-opacity:1"
       d="m 768.46714,0.8622726 c 26.80333,3.5287267 44.38123,29.8357884 37.38414,55.9492624 -0.0924,0.34465 -0.19921,0.69013 -0.3142,1.02326 -0.11501,0.33314 -0.23815,0.65392 -0.36883,0.96794 -0.26132,0.62805 -0.55274,1.22906 -0.86653,1.81181 -0.31383,0.58275 -0.65008,1.14723 -1.0059,1.70147 -0.35583,0.55423 -0.73125,1.09823 -1.12421,1.63643 -0.78592,1.07641 -1.64203,2.12967 -2.55527,3.17389 -0.91323,1.04421 -1.88362,2.07938 -2.89692,3.10593 -2.0266,2.05309 -4.22489,4.0717 -6.46451,6.00576 -2.23962,1.93405 -4.52057,3.78355 -6.69446,5.46805 -2.1739,1.68451 -4.24074,3.20402 -6.21162,4.60269 -1.97086,1.39867 -3.84578,2.6765 -5.64555,3.8864 -1.7998,1.2099 -3.52446,2.35187 -5.20063,3.4801 -1.67616,1.12823 -3.30377,2.24272 -4.91804,3.39938 -1.61428,1.15667 -3.21517,2.35551 -4.85656,3.667565 -1.64137,1.31204 -3.32322,2.73727 -5.01349,4.27851 -1.69026,1.54124 -3.38894,3.19848 -5.03499,4.9479 -1.64608,1.74943 -3.23953,3.59104 -4.72898,5.50478 -1.48944,1.91373 -2.87488,3.89959 -4.10723,5.93363 -1.23235,2.03403 -2.31161,4.11623 -3.19762,6.22218 -0.81309,1.93261 -1.46341,3.88526 -1.92921,5.85066 h 67.65926 c 3.8663,-5e-4 7.0003,3.13351 7.0003,6.9995 0,3.866 -3.134,7.00001 -7.0003,7.00005 l -75.49942,1e-5 c -3.86627,-4e-5 -7.00028,-3.13406 -7.00038,-7.00006 -1.1e-4,-1.60633 0.0935,-3.22553 0.27114,-4.81135 0.17764,-1.58587 0.43934,-3.1384 0.77478,-4.66359 0.67083,-3.05037 1.63656,-5.9915 2.81874,-8.80334 1.18219,-2.81183 2.58085,-5.49433 4.12885,-8.04883 1.54797,-2.55451 3.2453,-4.98103 5.0329,-7.27785 1.78761,-2.29682 3.66551,-4.46394 5.58044,-6.4991 1.91494,-2.035155 3.86688,-3.938345 5.79935,-5.700335 1.93243,-1.76199 3.8454,-3.38279 5.70505,-4.86905 1.85967,-1.48626 3.66601,-2.83798 5.44184,-4.11068 1.77581,-1.27269 3.52108,-2.46636 5.25606,-3.6342 1.735,-1.16783 3.45971,-2.30984 5.20731,-3.48459 1.7476,-1.17474 3.51809,-2.38223 5.35424,-3.68516 1.83616,-1.30293 3.73796,-2.70131 5.73805,-4.25143 2.00009,-1.55012 4.09845,-3.25199 6.11841,-4.99663 1.00999,-0.87231 2.00035,-1.75532 2.94997,-2.635 0.94959,-0.87968 1.85841,-1.75604 2.70351,-2.61198 0.84508,-0.85593 1.62642,-1.69145 2.31963,-2.48465 0.69318,-0.79321 1.29823,-1.54411 1.7893,-2.21614 0.24551,-0.33602 0.46254,-0.65232 0.64833,-0.94197 0.18582,-0.28965 0.34036,-0.55264 0.46141,-0.77709 0.12102,-0.22445 0.20852,-0.41034 0.26636,-0.55035 0.0289,-0.07 0.0505,-0.12854 0.0632,-0.16432 0.0127,-0.0358 0.0167,-0.0488 0.0233,-0.07369 4.80796,-17.94386 -7.2707,-36.020718 -25.68859,-38.44548 -18.41789,-2.424761 -34.76363,11.909953 -34.76419,30.486812 l 9e-5,7.499938 c -0.006,3.861454 -3.13798,6.988284 -6.99938,6.988284 -3.8614,0 -6.99399,-3.12683 -7.00016,-6.988284 l 0,-7.499935 c 1.7e-4,-27.034663 23.78789,-47.8958341 50.59121,-44.3671074 z"
       inkscape:label="2"
       sodipodi:nodetypes="scsssssssssssssssssssccscccsssssssssssssssssssssscsccsccs" /></g><g
     id="g1"
     inkscape:label="Japan"><path
       id="path131"
       style="fill:#000000;stroke:none;stroke-width:0.944827;stroke-linecap:round;fill-opacity:1"
       d="m 360.87373,1.497407 c 1.26806,1.2885824 2.4004,2.7040113 3.3792,4.224002 1.01076,1.5688168 -1.34337,3.0847578 -2.35413,1.515941 -0.87499,-1.3587786 -1.88723,-2.6240853 -3.0208,-3.775999 -1.3093,-1.3299767 0.68643,-3.29392069 1.99573,-1.963944 z"
       inkscape:label="j14"
       sodipodi:nodetypes="ccccc" /><path
       id="path135"
       style="display:inline;fill:#000000;stroke:none;stroke-width:0.944827;stroke-linecap:round;fill-opacity:1"
       d="m 358.67999,8.70729 c -0.93576,-1.5373501 -2.0443,-2.9626141 -3.30401,-4.247999 -1.30272,-1.3331394 0.69318,-3.2891716 1.99977,-1.959824 1.40917,1.4378884 2.64924,3.0322522 3.69602,4.752001 0.97087,1.5931931 -1.42091,3.049015 -2.39178,1.455822 z"
       inkscape:label="j13"
       sodipodi:nodetypes="ccccc" /><path
       id="path143"
       style="fill:#000000;stroke:none;stroke-width:0.944827;stroke-linecap:round;fill-opacity:1"
       d="m 354.27652,6.5793455 h -28.20095 c -1.86493,0.00144 -1.86493,2.8014435 0,2.800043 l 28.20095,-5e-7 c 0.0546,-2.1e-5 0.0994,0.044754 0.0994,0.09999 0,0.115981 -0.003,0.224087 -0.009,0.347816 -0.006,0.12373 -0.0161,0.263086 -0.0293,0.407406 -0.0265,0.288636 -0.0673,0.597127 -0.12309,0.907941 -0.0557,0.310814 -0.12649,0.623951 -0.21275,0.941586 -0.0862,0.317635 -0.18804,0.639768 -0.30461,0.964756 -0.23315,0.64998 -0.52547,1.311381 -0.8713,1.976972 -0.34581,0.665593 -0.74517,1.335373 -1.19097,2.001663 -0.89157,1.332581 -1.96892,2.651196 -3.1696,3.902633 -1.20066,1.251434 -2.52461,2.43569 -3.90642,3.504324 -1.38181,1.068634 -2.82146,2.02165 -4.24971,2.81415 -1.42825,0.7925 -2.84512,1.42449 -4.17571,1.85153 -0.66529,0.21352 -1.30902,0.3758 -1.92584,0.49438 -0.61685,0.11857 -1.2068,0.19344 -1.73832,0.23681 -0.26575,0.0217 -0.51689,0.0355 -0.76922,0.0442 -0.25231,0.009 -0.50578,0.0122 -0.77364,0.0129 -0.26789,7.9e-4 -0.55015,-0.002 -0.85381,-0.004 -0.15185,-0.001 -0.30901,-0.002 -0.47686,-0.003 -0.16788,-10e-4 -0.34642,-0.002 -0.51975,-0.002 -1.86537,0.0014 -1.86537,2.801375 -1.2e-4,2.799955 0.16781,-10e-6 0.33976,9.9e-4 0.50336,0.002 0.16361,10e-4 0.3189,0.002 0.47093,0.003 0.30406,0.002 0.59512,0.0048 0.88304,0.004 0.57582,-0.0016 1.13898,-0.0158 1.76369,-0.0663 0.62473,-0.0505 1.31101,-0.13729 2.03608,-0.2773 0.72506,-0.14 1.48888,-0.33321 2.2598,-0.57979 1.54181,-0.49316 3.112,-1.19981 4.6741,-2.06767 1.5621,-0.86786 3.11611,-1.89694 4.60489,-3.04805 1.48876,-1.151105 2.91227,-2.424251 4.21362,-3.780463 1.30136,-1.356215 2.48053,-2.795495 3.47652,-4.284371 0.49803,-0.744437 0.95023,-1.501273 1.34835,-2.267543 0.39809,-0.76627 0.7421,-1.541973 1.02227,-2.32264 0.14007,-0.390334 0.26418,-0.781909 0.3711,-1.176123 0.10692,-0.394213 0.19661,-0.791062 0.26691,-1.182481 0.0703,-0.391416 0.12116,-0.777404 0.15486,-1.142473 0.0169,-0.182536 0.0288,-0.359842 0.0378,-0.527079 0.009,-0.167238 0.0127,-0.324406 0.0127,-0.486694 0,-1.6016332 -1.29839,-2.90001 -2.89936,-2.9000325 z"
       inkscape:label="j12"
       sodipodi:nodetypes="cccccsccssssssssssccssccsssssssssssssscccc" /><path
       id="path151"
       style="display:inline;fill:#000000;stroke:none;stroke-width:0.944827;stroke-linecap:round;fill-opacity:1"
       d="m 309.47529,32.479375 2.9e-4,-17.061663 c -5.56901,3.110775 -11.56872,5.378732 -17.80317,6.729903 -1.82399,0.395589 -2.41706,-2.340883 -0.59307,-2.736472 11.23077,-2.434003 21.55942,-7.953908 29.82376,-15.9386 1.34078,-1.2970673 3.28634,0.7166047 1.94556,2.013672 -3.22708,3.1178809 -6.7705,5.890733 -10.57343,8.273597 v 18.719563 c 6.5e-4,1.866672 -2.79936,1.866672 -2.79936,0"
       inkscape:label="j11"
       sodipodi:nodetypes="ccccccccc" /><path
       id="path162"
       style="fill:#000000;stroke:none;stroke-width:0.944827;stroke-linecap:round;fill-opacity:1"
       d="m 264.89355,33.100595 c 0.64202,-0.01914 1.29694,-0.05356 1.95639,-0.11976 0.65942,-0.06622 1.32337,-0.16428 1.98599,-0.3207 0.66262,-0.15642 1.32389,-0.37119 1.94791,-0.61413 0.62402,-0.24295 1.21076,-0.51405 1.79309,-0.79392 0.58234,-0.27987 1.16027,-0.56851 1.73397,-0.87128 1.14734,-0.60556 2.27766,-1.26769 3.36817,-1.98479 1.09048,-0.7171 2.14114,-1.48918 3.13116,-2.32055 0.49504,-0.41568 0.97488,-0.84619 1.43679,-1.292081 0.46191,-0.445892 0.90588,-0.907169 1.32866,-1.38362 0.42278,-0.476449 0.82436,-0.968068 1.20288,-1.477981 0.18928,-0.254958 0.37277,-0.514491 0.54845,-0.775179 0.17568,-0.260689 0.34356,-0.522534 0.51052,-0.800738 0.16697,-0.278204 0.33305,-0.572765 0.4858,-0.899988 0.15271,-0.327226 0.29211,-0.687115 0.38531,-1.074841 0.0931,-0.387723 0.14004,-0.803285 0.15724,-1.174099 0.01,-0.185404 0.01,-0.359624 0.01,-0.519877 v -0.459809 c 0,-1.325487 -1.07452,-2.400004 -2.40054,-2.399998 l -27.49946,0 c -1.86433,0.0023 -1.86433,2.797661 0,2.800042 h 27.10166 c -2.4e-4,0.136124 -4e-4,0.278972 -0.005,0.408425 -0.004,0.12945 -0.0119,0.245504 -0.023,0.347337 -0.0111,0.101833 -0.0254,0.189447 -0.0456,0.278217 -0.0201,0.08877 -0.0459,0.178697 -0.0776,0.27073 -0.0633,0.184068 -0.14999,0.376566 -0.26043,0.584727 -0.11041,0.20816 -0.24458,0.431982 -0.38581,0.655796 -0.14124,0.223813 -0.28956,0.447617 -0.44355,0.668306 -0.15399,0.220688 -0.31364,0.438263 -0.479,0.653462 -0.3307,0.430395 -0.68421,0.851284 -1.0582,1.261867 -0.748,0.821169 -1.57792,1.601118 -2.47145,2.338075 -0.89352,0.736957 -1.85062,1.430925 -2.84956,2.079697 -0.99896,0.64877 -2.03978,1.25234 -3.10639,1.81125 -0.53332,0.27946 -1.0731,0.54775 -1.6105,0.80301 -0.53742,0.25526 -1.07246,0.49749 -1.58805,0.69638 -0.51557,0.19889 -1.01164,0.35445 -1.53067,0.47225 -0.51901,0.11781 -1.06098,0.19787 -1.62028,0.25303 -0.5593,0.0552 -1.13595,0.0854 -1.73371,0.10266 -0.59777,0.0173 -1.21665,0.0215 -1.82504,0.02691 -1.8666,0.01681 -1.8414,2.8167 0.0243,2.799885 0.63477,-0.0057 1.26391,-0.0096 1.90593,-0.02871 z M 258.97601,7.8794275 c -1.86666,-4.75e-5 -1.86666,-2.8000485 0,-2.8000435 h 24.99938 c 1.86717,-5e-6 1.86717,2.799996 0,2.8000435 z"
       inkscape:label="j10"
       sodipodi:nodetypes="sssssssssssssscccccccccsccsssssssssssssccsccccc" /><path
       id="path174"
       style="fill:#000000;stroke:none;stroke-width:0.944827;stroke-linecap:round;fill-opacity:1"
       d="M 222.79225,22.068817 234.8585,32.53683 c 1.40989,1.222656 3.24477,-0.892344 1.83488,-2.114905 L 224.86131,20.156967 c 2.36485,-2.295736 4.52652,-4.7919 6.46081,-7.460509 1.3943,-1.923621 0.02,-4.6170827 -2.35581,-4.617019 h -22.1904 c -1.8667,-6.1e-5 -1.8667,2.79994 0,2.799911 h 22.1904 c 0.0895,2e-5 0.14121,0.101424 0.0887,0.173847 -6.33444,8.739186 -15.12907,15.392864 -25.26155,19.111918 -1.74907,0.644713 -0.78604,3.268438 0.96479,2.62853 6.62206,-2.430579 12.73655,-6.066872 18.03398,-10.724828 z"
       inkscape:label="j9"
       sodipodi:nodetypes="ccccccccccccc" /><path
       d="m 172.57603,8.5793213 c -2.43006,4.09e-5 -4.40025,1.9702247 -4.40025,4.4002477 v 16.000057 c -1e-5,2.430008 1.97018,4.399677 4.40025,4.399732 h 22.19968 c 2.43011,-5.5e-5 4.4003,-1.969724 4.40025,-4.399732 V 12.979569 c 5e-5,-2.430023 -1.97014,-4.4002068 -4.40025,-4.4002477 z m 0,2.7998287 h 22.19968 c 0.88372,-3e-6 1.60038,0.716793 1.60042,1.600419 v 16.000057 c -4e-5,0.883611 -0.7167,1.599888 -1.60042,1.599903 h -22.19968 c -0.88367,-1.5e-5 -1.59995,-0.716292 -1.5999,-1.599903 V 12.979569 c -5e-5,-0.883626 0.71623,-1.600422 1.5999,-1.600419 z"
       style="stroke:none;stroke-width:0.944827;stroke-linecap:round"
       id="path6"
       inkscape:label="j8" /><path
       id="path204"
       style="fill:#000000;stroke:none;stroke-width:0.944827;stroke-linecap:round;fill-opacity:1"
       d="m 144.06381,4.991032 c -2.17969,5.856288 -6.59299,10.609075 -12.272,13.216001 -1.69354,0.779836 -0.52725,3.320522 1.16813,2.544693 3.92532,-1.801905 7.34859,-4.539375 9.96964,-7.97239 l 18.44629,0 c 0.0657,6.3e-5 0.11354,0.06231 0.0966,0.125777 -2.37826,8.929906 -9.95274,15.512838 -19.12704,16.623112 l -4.63774,0.561235 c -1.84835,0.228138 -1.51298,2.999201 0.33635,2.77971 l 4.63787,-0.56123 c 10.31065,-1.247802 18.8234,-8.64617 21.49625,-18.682234 0.49026,-1.840841 -0.89731,-3.646326 -2.80235,-3.6462795 h -16.57852 c 0.74162,-1.2818726 1.37405,-2.6238245 1.89061,-4.0117015 0.64796,-1.7479706 -1.97156,-2.7229478 -2.62413,-0.976693 z"
       inkscape:label="j7"
       sodipodi:nodetypes="ccccccccccccccc" /><path
       id="path224"
       style="display:inline;fill:#000000;stroke:none;stroke-width:0.944827;stroke-linecap:round;fill-opacity:1"
       d="m 78.889905,30.432585 c 0.410785,-0.07375 0.820915,-0.17409 1.216805,-0.29509 0.39589,-0.12099 0.77755,-0.26265 1.15935,-0.42359 0.7636,-0.32189 1.52773,-0.7209 2.26798,-1.17716 0.74024,-0.45626 1.45659,-0.96978 2.14097,-1.53768 0.68438,-0.56791 1.3368,-1.1902 1.94585,-1.858975 0.60905,-0.668777 1.17473,-1.384038 1.68923,-2.141927 0.51449,-0.757888 0.97779,-1.558401 1.37361,-2.385115 0.39582,-0.826712 0.72417,-1.679623 0.94857,-2.498265 0.1122,-0.409318 0.19841,-0.810072 0.25631,-1.19725 0.0289,-0.193588 0.0508,-0.383783 0.0654,-0.566693 0.0149,-0.182906 0.0219,-0.358529 0.02191,-0.538058 l 5e-6,-1.933351 -12.29998,-2.6e-5 c -1.864356,-0.0024 -1.864356,-2.797725 0,-2.800042 l 12.29998,-1.7e-5 -5e-6,-6.0999675 c -0.0014,-1.8652528 2.798595,-1.8652528 2.80004,0 l 4.5e-5,6.0999675 14.09991,1.7e-5 c 1.60163,1.7e-5 2.9,1.298391 2.90005,2.900049 l 0,6.800027 c -5e-5,0.170122 -0.003,0.335166 -0.0102,0.510378 -0.007,0.175215 -0.0168,0.360598 -0.0302,0.551858 -0.0267,0.382516 -0.0665,0.78853 -0.11964,1.214612 -0.0531,0.426082 -0.11956,0.872231 -0.19999,1.32988 -0.0804,0.45765 -0.17483,0.926801 -0.28343,1.400418 -0.21719,0.94723 -0.49112,1.91232 -0.83937,2.82562 -0.17411,0.45665 -0.36681,0.90036 -0.58231,1.31931 -0.2155,0.41896 -0.4538,0.81317 -0.7384,1.18167 -0.28459,0.3685 -0.61548,0.71129 -0.99795,0.97596 -0.38247,0.26468 -0.81651,0.45123 -1.23375,0.56575 -0.41724,0.11452 -0.81768,0.15701 -1.21849,0.18111 -0.2004,0.0121 -0.4009,0.0195 -0.60166,0.0248 -0.20076,0.005 -0.40178,0.008 -0.6204,0.0123 -0.21862,0.004 -0.45484,0.009 -0.7091,0.006 -0.25427,-0.003 -0.52659,-0.0142 -0.79971,-0.0371 -0.54622,-0.0459 -1.09561,-0.13895 -1.64766,-0.29177 -0.55205,-0.15283 -1.10676,-0.36538 -1.64505,-0.64729 -0.26914,-0.14095 -0.53418,-0.29925 -0.79602,-0.47799 -0.26184,-0.17875 -0.52049,-0.37794 -0.76301,-0.58856 -1.402356,-1.224475 0.427115,-3.33101 1.83606,-2.113865 0.16029,0.139295 0.33198,0.271535 0.50404,0.389045 0.17205,0.11752 0.34448,0.22034 0.51995,0.31224 0.35093,0.18388 0.71402,0.32437 1.088,0.42736 0.37399,0.10305 0.75887,0.16855 1.14355,0.20145 0.19234,0.0164 0.38463,0.0249 0.58837,0.0269 0.20374,0.002 0.41894,-0.002 0.62918,-0.006 0.21024,-0.0038 0.41551,-0.0068 0.60069,-0.0118 0.18518,-0.0046 0.35026,-0.0102 0.49765,-0.0202 0.29477,-0.0196 0.51877,-0.0553 0.67424,-0.0926 0.15547,-0.03733 0.24242,-0.07637 0.35021,-0.15547 0.1078,-0.07914 0.23645,-0.19845 0.38281,-0.38893 0.14635,-0.19048 0.3104,-0.45213 0.4685,-0.75726 0.1581,-0.30512 0.31024,-0.65373 0.45324,-1.0302 0.14299,-0.37648 0.27683,-0.78082 0.39869,-1.19531 0.12185,-0.41449 0.23166,-0.83912 0.32906,-1.262549 0.0973,-0.423429 0.18213,-0.845656 0.25443,-1.257327 0.0723,-0.41167 0.13197,-0.812784 0.17927,-1.191797 0.0473,-0.37901 0.0821,-0.73592 0.105,-1.064112 0.0114,-0.164097 0.0194,-0.321013 0.0254,-0.462997 0.005,-0.141986 0.008,-0.269036 0.008,-0.403534 l 0,-6.800027 c -1e-5,-0.05526 -0.0448,-0.100034 -0.10001,-0.100007 l -14.09991,2.6e-5 -4.5e-5,1.933351 c -4.5e-5,1.024328 -0.165845,2.034232 -0.442885,3.040824 -0.27703,1.006591 -0.66529,2.009867 -1.12466,2.970252 -0.91876,1.920766 -2.12197,3.669969 -3.51725,5.201447 -0.69764,0.76573 -1.44329,1.47704 -2.22793,2.12838 -0.78464,0.65134 -1.60827,1.24271 -2.46154,1.76762 -0.42664,0.26245 -0.86069,0.50828 -1.30074,0.73718 -0.44006,0.22889 -0.88612,0.44086 -1.34528,0.63472 -0.45915,0.19387 -0.93141,0.36963 -1.42924,0.52163 -0.49783,0.152 -1.02123,0.28024 -1.54168,0.37368 -1.835192,0.326866 -2.329087,-2.423965 -0.494815,-2.75593 z"
       inkscape:label="j6"
       sodipodi:nodetypes="csssssssscccccccccccccccccsssssscccscsssccscccscccccssssccscccccccscsssssscc" /><path
       id="path230"
       style="display:inline;fill:#000000;stroke:none;stroke-width:0.944827;stroke-linecap:round;fill-opacity:1"
       d="m 42.87586,32.850915 c 13.040287,7e-5 24.877291,-7.621167 30.27448,-19.492094 0.77204,-1.699074 -1.77688,-2.857957 -2.54892,-1.158883 -4.942779,10.87147 -15.783182,17.851046 -27.72556,17.851067 h -1.999995 c -1.865239,0.0014 -1.865239,2.80139 0,2.79991 z"
       inkscape:label="j5"
       sodipodi:nodetypes="ccccccc" /><path
       id="path234"
       style="display:inline;fill:#000000;stroke:none;stroke-width:0.944827;stroke-linecap:round;fill-opacity:1"
       d="M 54.3277,12.593199 C 51.634042,10.541966 48.681656,8.8548895 45.54689,7.575596 43.818602,6.870283 44.876572,4.27785 46.60486,4.983163 c 3.362673,1.372302 6.529705,3.182034 9.4192,5.382398 1.485091,1.130906 -0.211269,3.358544 -1.69636,2.227638 z"
       inkscape:label="j4"
       sodipodi:nodetypes="ccccc" /><path
       id="path238"
       style="display:inline;fill:#000000;stroke:none;stroke-width:0.944827;stroke-linecap:round;fill-opacity:1"
       d="m 48.20154,19.872778 c -2.669151,-2.134405 -5.647551,-3.85022 -8.83293,-5.08853 -1.739749,-0.67619 -0.725209,-3.285926 1.01454,-2.609736 3.450128,1.341235 6.676076,3.199663 9.56707,5.511469 1.452077,1.166427 -0.291463,3.346797 -1.74868,2.186797 z"
       inkscape:label="j3"
       sodipodi:nodetypes="ccccc" /><path
       id="path242"
       style="display:inline;fill:#000000;stroke:none;stroke-width:0.944827;stroke-linecap:round;fill-opacity:1"
       d="M 34.84991,26.376445 C 31.618365,24.416649 28.239484,22.710807 24.74375,21.274308 23.019728,20.563745 24.082494,17.977499 25.808,18.68445 c 3.629836,1.491605 7.138337,3.262886 10.49385,5.297863 1.595613,0.96603 0.143673,3.360162 -1.45194,2.394132 z"
       inkscape:label="J2"
       sodipodi:nodetypes="ccccc" /><path
       id="path258"
       style="fill:#000000;stroke:none;stroke-width:0.944827;stroke-linecap:round;fill-opacity:1"
       d="m 2.18655,25.844475 c 5.2311202,-1.190497 10.347305,-2.839113 15.289335,-4.926814 v 11.561714 c 7e-4,1.86596 2.8007,1.86596 2.79999,0 V 19.679313 c 3.639628,-1.683282 7.16457,-3.604139 10.551995,-5.750177 2.453426,-1.554322 1.352355,-5.3497487 -1.551935,-5.349797 l -9.000065,-4.1e-5 5e-6,-5.099881 c -7e-4,-1.8659972 -2.8007,-1.8659972 -2.79999,0 l 5e-6,5.099881 -13.20001,4.1e-5 c -1.864326,0.00238 -1.864326,2.797702 0,2.800042 l 25.000065,-1e-6 c 0.100097,1.4e-5 0.13805,0.130881 0.05345,0.184473 -8.529235,5.403529 -17.919092,9.309888 -27.76419,11.550431 -1.81960451,0.414555 -1.19826451,3.144746 0.62134,2.730191 z"
       inkscape:label="J1"
       sodipodi:nodetypes="ccccccccccccccccc" /></g></svg>
