<?xml version="1.0" encoding="UTF-8" standalone="no"?>
<!-- Created with Inkscape (http://www.inkscape.org/) -->

<svg
   width="1215.3367mm"
   height="403.91437mm"
   viewBox="0 0 1215.3367 403.91437"
   version="1.1"
   id="svg1"
   inkscape:version="1.3.2 (091e20e, 2023-11-25, custom)"
   sodipodi:docname="nintendont.svg"
   xmlns:inkscape="http://www.inkscape.org/namespaces/inkscape"
   xmlns:sodipodi="http://sodipodi.sourceforge.net/DTD/sodipodi-0.dtd"
   xmlns="http://www.w3.org/2000/svg"
   xmlns:svg="http://www.w3.org/2000/svg">
  <sodipodi:namedview
     id="namedview1"
     pagecolor="#ffffff"
     bordercolor="#000000"
     borderopacity="0.25"
     inkscape:showpageshadow="2"
     inkscape:pageopacity="0.0"
     inkscape:pagecheckerboard="true"
     inkscape:deskcolor="#d1d1d1"
     inkscape:document-units="mm"
     inkscape:zoom="0.20589839"
     inkscape:cx="3504.1556"
     inkscape:cy="886.35953"
     inkscape:window-width="2560"
     inkscape:window-height="1351"
     inkscape:window-x="-9"
     inkscape:window-y="-9"
     inkscape:window-maximized="1"
     inkscape:current-layer="svg1" />
  <defs
     id="defs1" />
  <g
     id="g59"
     transform="translate(-13.844796,273.17519)"
     style="display:inline"
     inkscape:label="Nintendont">
    <path
       d="m 140.13015,-244.22991 c -59.769382,0.3175 -96.572922,39.95178 -96.572922,89.64053 0,49.68875 36.48604,89.958542 96.572922,89.641042 h 962.76605 c 59.7958,0 96.5729,-39.952292 96.5729,-89.641042 0,-49.68875 -36.8035,-89.64053 -96.5729,-89.64053 z"
       style="display:inline;fill:#ffffff;stroke-width:0.264583"
       id="path59"
       sodipodi:nodetypes="cscsssc"
       inkscape:label="NintendontBackground" />
    <path
       id="path55"
       style="display:inline;fill:#e31e26;stroke-width:0.264583"
       d="m 139.65417,-273.1738 c -75.16813,-0.3175 -125.809374,54.1074 -125.809374,118.90386 0,64.796462 50.323534,118.268752 126.126664,118.268752 h 963.08334 c 75.4856,0 126.1267,-53.47229 126.1267,-118.268752 -0.2911,-65.11396 -50.9586,-119.22136 -126.1267,-118.90386 z m 0.31729,28.94552 h 962.76604 c 59.7694,0 96.5729,39.95178 96.5729,89.64053 0,49.68875 -36.7771,89.641042 -96.5729,89.641042 H 139.97146 c -60.086882,0.3175 -96.57291,-39.952292 -96.57291,-89.641042 0,-49.68875 36.803528,-89.32303 96.57291,-89.64053 z m 106.30979,33.36386 v 22.93917 h 33.6548 v -22.93917 z m -136.84281,0.29094 v 111.654162 h 34.58136 v -77.998852 l 48.4451,77.998852 h 34.58084 V -210.57348 h -34.52813 v 77.99937 l -48.12781,-77.99937 z m 632.24823,0.31781 c 0.0264,-0.3175 0.0269,23.60083 0.0269,40.87812 -5.34458,-3.14854 -11.03324,-5.95312 -18.89136,-6.61458 -24.20938,-2.19604 -42.78343,19.18188 -42.78343,38.99917 0,25.79688 19.81759,35.5604 22.93968,36.80395 11.32416,5.344582 25.79667,5.344282 38.68188,-2.83135 v 4.418852 h 33.07292 V -210.25567 Z m -327.42187,10.9802 v 15.08125 h -18.25625 v 11.03292 h 18.25625 v 74.241982 h 33.65531 V -173.1613 h 18.25625 v -11.03292 h -18.25625 v -15.08125 z m 632.6725,0 v 15.08125 h -18.2562 v 11.03344 h 18.2562 v 74.241982 h 33.6553 v -74.241982 h 18.2557 v -11.03344 h -18.2557 v -15.08125 z m -47.56714,0.78962 v 20.90208 h 11.56264 v -20.90208 z m -164.86745,20.29747 c -27.04042,0 -49.05385,18.57365 -49.05385,41.83052 0,22.93938 22.01343,41.830522 49.05385,41.830522 27.04041,0 49.05386,-18.573642 49.05386,-41.830522 0,-23.25687 -21.35199,-41.83052 -49.05386,-41.83052 z m -323.37354,0.34416 c -27.35791,0 -49.37166,18.57366 -49.37166,41.83053 0,22.93938 22.01375,41.830522 49.37166,41.830522 22.64834,0 41.83042,-12.885312 47.81,-30.533022 h -33.3375 v 4.41885 c 0,13.54667 -8.81082,16.66875 -13.83791,16.66875 -5.02708,0 -14.15521,-3.14854 -14.15521,-16.66875 v -15.39906 h 63.23542 c 0,-22.93937 -22.33042,-42.14782 -49.7148,-42.14782 z m -152.55916,1.24334 c -11.03312,0.3175 -20.42584,5.02728 -26.72292,11.32437 v -7.85843 h -33.3375 v 74.241982 h 33.3375 v -48.762402 c 0,-6.61459 6.93239,-13.54698 16.06052,-13.54698 9.12812,0 15.39854,7.22343 15.39854,13.54698 v 48.762402 h 33.3375 v -40.269382 c 0,-29.58042 -25.45301,-37.75604 -38.07364,-37.43854 z m 273.05,0 c -11.03312,0.3175 -20.42583,5.02728 -26.72292,11.32437 v -7.85843 h -33.3375 v 74.241982 h 33.31115 v -48.762402 c 0,-6.61459 6.93239,-13.54698 16.06051,-13.54698 9.12813,0 15.39855,7.22343 15.39855,13.54698 v 48.762912 l 33.3375,-5.1e-4 v -40.269382 c -0.29104,-29.58042 -25.79708,-37.75604 -38.04729,-37.43854 z m 322.05168,5.2e-4 c -11.0332,0.3175 -20.4261,5.02675 -26.7235,11.32385 v -7.85792 h -33.33746 v 74.241982 h 33.33746 v -48.762912 c 0,-6.6146 6.9327,-13.54646 16.0611,-13.54646 9.1281,0 15.3985,7.2229 15.3985,13.54646 v 48.762912 h 33.33747 v -40.269372 c 0,-29.58044 -25.45297,-37.75604 -38.07357,-37.43854 z m -707.39044,3.43906 v 74.241982 h 33.6548 V -173.1613 Z m 587.93053,4.10104 c 6.61458,0 13.83739,4.70959 13.83739,16.66875 v 15.74271 15.71636 c 0,11.95917 -6.93177,16.66875 -13.83739,16.66875 -6.61459,0 -13.83792,-5.02708 -13.83792,-16.66875 v -16.06052 -15.39855 c 0,-11.64166 6.93229,-16.66875 13.83792,-16.66875 z m -322.10386,0.3173 c 4.41854,0 9.12792,2.19635 11.95896,6.93239 2.19604,3.78354 2.19625,8.17541 2.19625,14.4725 h -28.01948 c -0.60854,-6.61459 -0.60823,-10.68896 1.90531,-14.4725 2.51355,-4.70959 7.54042,-6.61489 11.95896,-6.93239 z m 216.40281,4.73614 c 5.34458,0 13.20282,2.83136 13.20282,14.47302 v 13.2023 13.20281 c 0,11.32417 -7.85824,14.47302 -13.20282,14.47302 -5.34459,0 -13.20281,-3.14885 -13.20281,-14.47302 v -13.20281 -13.2023 c 0,-11.64166 7.85822,-14.47302 13.20281,-14.47302 z"
       sodipodi:nodetypes="csssccccssscsccccccccccccccccccccscccccccccccccccccccccccccccccccccccccssssssssccsssccsccccccsssccscccccccsssccccccccccsssccsccccccsscssscssccccccsscssscss"
       inkscape:label="Nintendont" />
    <path
       d="m 1135.492,73.63813 c 0,-3.78354 -2.8311,-5.34458 -8.1757,-5.34458 h -7.5406 v 19.182287 h 4.7096 V 79.61771 h 2.196 l 3.7836,7.858127 h 5.0271 l -4.1011,-8.493127 c 2.54,-0.9525 4.1011,-2.83104 4.1011,-5.34458 z m -8.8107,2.83104 h -2.196 v -5.66208 h 1.905 c 2.831,0 4.101,0.92604 4.101,2.83104 0.2646,2.2225 -1.2964,2.83104 -3.81,2.83104 z m 0,-15.74271 c -9.4456,0 -17.3037,7.54063 -17.3037,17.30375 0,9.445627 7.8581,17.303752 17.3037,17.303752 9.4457,0 17.3038,-7.858125 17.3038,-17.303752 0,-9.76312 -7.8846,-17.30375 -17.3038,-17.30375 z m 0,31.141461 c -7.5406,0 -13.8377,-6.297084 -13.8377,-13.837711 0,-7.54062 6.2971,-13.83771 13.8377,-13.83771 7.5407,0 13.8377,6.29709 13.8377,13.83771 -0.026,7.567086 -5.9795,13.837711 -13.8377,13.837711 z"
       style="fill:#e31e26;stroke-width:0.264583"
       id="path1-7"
       sodipodi:nodetypes="ssccccccccssccscssssssssscs"
       inkscape:label="R"
       transform="translate(21.513148,-273.71798)" />
  </g>
  <g
     id="g66"
     transform="translate(7.668352,-155.10815)"
     inkscape:label="Sue You">
    <path
       class="st0"
       d="m 389.1298,444.66959 h -26.43188 c -3.14854,0 -5.66208,-1.27 -5.66208,-4.1275 0,-2.51354 2.51354,-4.73604 4.70958,-4.73604 h 46.24917 v -14.55208 h -50.64125 c -10.05417,0 -18.25625,7.91104 -18.25625,16.74812 0,12.62063 8.81063,17.38313 19.81729,17.38313 h 26.43188 c 3.14854,0 5.66208,1.27 5.66208,4.1275 0,2.51354 -2.51354,4.73604 -4.70958,4.73604 h -46.88417 v 14.55208 h 51.88479 c 9.44563,0 17.91229,-6.95854 17.91229,-16.74812 0.0529,-11.69458 -9.0752,-17.38313 -20.08187,-17.38313 z"
       id="path17-5"
       style="fill:#000000;stroke-width:0.264583"
       inkscape:label="S" />
    <path
       class="st0"
       d="m 433.24521,478.81407 h 61.25104 V 421.24073 H 475.9225 v 38.57625 c 0,2.32835 -1.905,4.23334 -4.23333,4.23334 h -31.82938 c -2.32833,0 -4.23333,-1.90499 -4.23333,-4.23334 v -11.7475 -26.82875 h -18.25625 v 26.82875 4.63021 6.95854 3.3073 c 0.0265,8.7577 7.11729,15.84854 15.875,15.84854 z"
       id="path9-2"
       style="fill:#000000;stroke-width:0.264583"
       inkscape:label="U" />
    <path
       class="st0"
       d="m 567.91303,435.85897 v -14.63146 h -47.51917 v 0 h -16.95979 v 40.66646 c 0,9.36625 7.56708,16.93333 16.93333,16.93333 h 47.54563 v -14.63145 h -42.96834 c -2.51354,0 -4.55083,-2.0373 -4.55083,-4.55084 v 0 c 0,-2.51354 2.03729,-4.55083 4.55083,-4.55083 h 40.4548 v -10.16 h -40.4548 c -2.51354,0 -4.55083,-2.03729 -4.55083,-4.55083 v 0 c 0,-2.51355 2.03729,-4.55084 4.55083,-4.55084 z"
       id="path10-4"
       style="fill:#000000;stroke-width:0.264583"
       inkscape:label="E" />
    <path
       class="st0"
       d="m 684.88064,421.24074 h -17.30374 -0.10584 v 21.48417 c 0,2.4077 -1.95791,4.33916 -4.33916,4.33916 h -25.8498 c -2.4077,0 -4.33916,-1.95791 -4.33916,-4.33916 v -21.48417 h -0.39688 -17.83291 v 21.08729 3.01625 c 0,9.10167 7.38187,16.48354 16.48354,16.48354 h 8.67833 v 16.98625 h 20.13479 v -16.98625 h 8.83709 c 9.10166,0 16.48354,-7.38187 16.48354,-16.48354 v -24.10354 z"
       id="path19-4"
       style="fill:#000000;stroke-width:0.264583"
       inkscape:label="Y" />
    <path
       d="m 711.04223,421.24079 c -9.44563,0 -17.09198,7.64635 -17.09198,17.09198 v 23.38927 c 0,9.44563 7.64635,17.09198 17.09198,17.09198 H 755.069 c 9.44563,0 17.09198,-7.64635 17.09198,-17.09198 v -23.38927 c 0,-9.44563 -7.64635,-17.09198 -17.09198,-17.09198 z m 6.45594,14.44614 h 31.00896 c 2.61937,0 4.73615,2.11678 4.73615,4.73615 v 19.20864 c 0,2.61937 -2.11678,4.73615 -4.73615,4.73615 h -31.00896 c -2.61937,0 -4.73614,-2.11678 -4.73614,-4.73615 v -19.20864 c -2e-5,-2.61937 2.11677,-4.73615 4.73614,-4.73615 z"
       style="stroke-width:0.264583"
       id="path66"
       sodipodi:nodetypes="ssssssssssssssssss"
       inkscape:label="O" />
    <path
       class="st0"
       d="m 797.76833,478.81407 h 61.25105 v -57.57334 h -18.57375 v 38.57625 c 0,2.32835 -1.905,4.23334 -4.23334,4.23334 h -31.82937 c -2.32834,0 -4.23334,-1.90499 -4.23334,-4.23334 v -11.74751 -26.82873 h -18.25624 v 26.82875 4.63021 6.95854 3.3073 c 0.0264,8.7577 7.11729,15.84854 15.87499,15.84853 z"
       id="path6-6"
       style="fill:#000000;stroke-width:0.264583"
       inkscape:label="U" />
  </g>
  <g
     id="g24"
     transform="matrix(0.26458333,0,0,0.26458333,99.80065,0.00144956)"
     inkscape:label="System"
     style="fill:#000000">
    <path
       class="st0"
       d="m 1195,1397.5 h -99.9 c -11.9,0 -21.4,-4.8 -21.4,-15.6 0,-9.5 9.5,-17.9 17.8,-17.9 h 174.8 v -55 h -191.4 c -38,0 -69,29.9 -69,63.3 0,47.7 33.3,65.7 74.9,65.7 h 99.9 c 11.9,0 21.4,4.8 21.4,15.6 0,9.5 -9.5,17.9 -17.8,17.9 h -177.2 v 55 h 196.1 c 35.7,0 67.7,-26.3 67.7,-63.3 0.2,-44.2 -34.3,-65.7 -75.9,-65.7 z"
       id="path17"
       style="fill:#000000"
       inkscape:label="S" />
    <path
       class="st0"
       d="m 1560,1309 h -65.4 -0.4 v 81.2 c 0,9.1 -7.4,16.4 -16.4,16.4 h -97.7 c -9.1,0 -16.4,-7.4 -16.4,-16.4 V 1309 h -1.5 -67.4 v 79.7 11.4 c 0,34.4 27.9,62.3 62.3,62.3 h 32.8 v 64.2 h 76.1 v -64.2 h 33.4 c 34.4,0 62.3,-27.9 62.3,-62.3 V 1309 Z"
       id="path19"
       style="fill:#000000"
       inkscape:label="Y" />
    <path
       class="st0"
       d="m 1779.9,1397.4 h -102.2 c -11.9,0 -20.2,-4.8 -20.2,-15.6 0,-9.6 7.2,-17.9 16.7,-17.9 H 1849 v -55 h -191.4 c -35.7,0 -65.4,29.9 -65.4,63.3 0,47.8 30.9,65.8 72.5,65.8 h 102.2 c 10.7,0 21.4,4.8 21.4,15.6 0,9.6 -7.2,17.9 -16.7,17.9 H 1592 v 55 h 196.1 c 32.1,0 65.4,-26.3 65.4,-63.3 0.1,-44.3 -35.6,-65.8 -73.6,-65.8 z"
       id="path16"
       style="fill:#000000"
       inkscape:label="S" />
    <path
       class="st0"
       d="m 2137.2,1308.9 h -261.7 v 54.7 h 77 c 8.4,0 15.2,6.8 15.2,15.2 v 147.7 h 77.3 v -147.7 c 0,-8.4 6.8,-15.2 15.2,-15.2 h 77 z"
       id="path23"
       style="fill:#000000"
       inkscape:label="T" />
    <path
       class="st0"
       d="m 2408.5,1364.2 v -55.3 h -179.6 v 0 h -64.1 v 153.7 c 0,35.4 28.6,64 64,64 h 179.7 v -55.3 h -162.4 c -9.5,0 -17.2,-7.7 -17.2,-17.2 v 0 c 0,-9.5 7.7,-17.2 17.2,-17.2 H 2399 v -38.4 h -152.9 c -9.5,0 -17.2,-7.7 -17.2,-17.2 v 0 c 0,-9.5 7.7,-17.2 17.2,-17.2 z"
       id="path20"
       style="fill:#000000"
       inkscape:label="E" />
    <path
       class="st0"
       d="m 2768.3,1309 h -316.7 v 217.6 h 64.2 v -136.1 -10.3 c 0,-8.5 6.9,-15.4 15.4,-15.4 h 54.9 c 8.5,0 15.4,6.9 15.4,15.4 v 26.5 0 119.9 h 72.5 v -136.1 -10.3 c 0,-8.5 6.9,-15.4 15.4,-15.4 h 54.9 c 8.5,0 15.4,6.9 15.4,15.4 v 10.3 136.1 h 3.5 69 v -153.8 c -0.1,-35.3 -28.7,-63.8 -63.9,-63.8 z"
       id="path18"
       style="fill:#000000"
       inkscape:label="M" />
    <path
       class="st0"
       d="m 2920.1,1309 v 9.5 h -25 v 66.5 h -10.7 v -66.5 h -25 v -9.5 z"
       id="path21"
       style="fill:#000000"
       inkscape:label="T" />
    <path
       class="st0"
       d="m 2928.4,1309 h 14.3 l 21.4,64.2 21.4,-64.2 h 14.3 v 76.1 h -9.5 V 1340 c 0,-1.2 0,-3.5 0,-7.2 0,-3.6 0,-7.2 0,-11.9 l -21.4,64.2 h -10.7 l -21.4,-64.2 v 2.4 c 0,2.4 0,4.8 0,8.3 0,3.5 0,7.2 0,8.3 v 45.2 h -9.5 z"
       id="path22"
       style="fill:#000000"
       inkscape:label="M" />
  </g>
</svg>
