<svg height="156.875" viewBox="0 0 157.241 57.193" width="431.295" xmlns="http://www.w3.org/2000/svg">
    <text fill="#ef00eb" font-family="TrasksHand" font-size=".729" stroke="#0105ff" stroke-width=".911" x="85.712" y="67.096" transform="translate(-33.058 -45.007)"><tspan fill="#fafafa" fill-opacity=".4" stroke="none" x="85.712" y="67.096">John Loreth 2022</tspan></text>
    <g stroke-linejoin="round">
        <g transform="translate(-33.058 -45.007)">
            <path d="M145.442 45.007h16.48V102.2h-16.48zM190.3 45.007h-25.006V102.2h25.005l-21.886-28.596z" fill="#fff"/>
            <rect fill="navy" height="15.303" rx=".241" width="12.693" x="147.308" y="46.672"/>
            <rect fill="#00f" height="14.048" rx=".241" width="11.428" x="147.308" y="47.927"/>
            <g stroke-width=".794">
                <rect fill="navy" height="9.086" rx=".241" width="12.693" x="147.308" y="65.378"/>
                <rect fill="#00f" height="7.339" rx=".241" ry=".241" width="11.408" x="147.308" y="67.125"/>
                <rect fill="navy" height="9.086" rx=".241" width="12.693" x="147.308" y="81.469"/>
                <rect fill="#00f" height="6.977" rx=".241" width="11.408" x="147.308" y="83.578"/>
            </g>
            <path d="M178.91 90.476h-11.746V75.16z" fill="navy"/>
            <path d="M176.24 90.476h-9.076V78.498z" fill="#00f"/>
            <path d="M186.257 46.846h-19.093v15.112l6.757-.007z" fill="navy"/>
            <path d="m183.876 47.937-16.712.01v13.952l5.221-.018z" fill="#00f"/>
            <path d="M167.28 65.397v4.641l3.887-4.66z" fill="navy"/>
        </g>
        <g stroke-width=".794">
            <g fill="#fff">
                <path d="M46.895 57.193h16.816L56.25 22.149h-1.881zM85.611 57.193 72.481 0H59.944L57.92 8.154 69.1 57.193h16.542M107.307 57.193 94.177 0H81.64l-2.025 8.154 11.181 49.039h16.542"/>
            </g>
            <path d="M51.25 45.47h8.079l-1.852-9.01h-4.322z" fill="#007e00"/>
            <path d="M51.269 45.47h6.445l-1.545-6.93h-3.405z" fill="#0f0"/>
            <path d="M54.702 29.423h1.148l-.362-2.5h-.303zM66.572 36.49h12.144c.133 0 .24.24.24.24l1.94 8.498c.03.13-.108.241-.241.241H68.566c-.133 0-.21-.11-.24-.24L66.33 36.73c-.03-.13.107-.24.24-.24z" fill="#007e00"/>
            <path d="M67.101 38.606h10.557c.133 0 .24.241.24.241l1.248 6.381c.025.131-.108.241-.241.241H68.566c-.133 0-.211-.11-.24-.24l-1.466-6.382c-.03-.13.108-.24.241-.24z" fill="#0f0"/>
            <path d="M62.86 20.404h12.143c.134 0 .241.241.241.241l1.94 8.498c.029.13-.108.241-.242.241H64.853c-.133 0-.21-.111-.24-.24l-1.995-8.499c-.03-.13.108-.24.241-.24z" fill="#007e00"/>
            <path d="M63.389 22.521h10.556c.134 0 .241.24.241.24l1.247 6.382c.026.131-.107.241-.24.241h-10.34c-.133 0-.21-.11-.24-.24l-1.465-6.382c-.03-.13.107-.241.24-.241z" fill="#0f0"/>
            <path d="M61.75 1.732h9.045c.133 0 .212.11.24.24l3.225 14.742c.028.13-.108.24-.241.24H62.128a.24.24 0 0 1-.241-.24L59.85 7.987l1.658-6.014c.035-.13.107-.241.24-.241z" fill="#007e00"/>
            <path d="M61.36 2.79h7.8c.134 0 .21.111.241.24l3.213 13.684c.03.13-.107.24-.24.24H62.127a.24.24 0 0 1-.241-.24L59.85 7.987l1.267-4.956c.033-.13.108-.241.241-.241z" fill="#0f0"/>
            <path d="M88.412 36.49h12.144c.133 0 .24.24.24.24l1.94 8.498c.03.13-.108.241-.241.241h-12.09c-.133 0-.21-.11-.24-.24L88.17 36.73c-.03-.13.107-.24.24-.24z" fill="#007e00"/>
            <path d="M88.94 38.606h10.557c.134 0 .241.241.241.241l1.247 6.381c.026.131-.107.241-.24.241h-10.34c-.133 0-.21-.11-.24-.24L88.7 38.846c-.03-.13.107-.24.24-.24z" fill="#0f0"/>
            <path d="M84.699 20.404h12.144c.134 0 .241.241.241.241l1.939 8.498c.03.13-.108.241-.241.241H86.693c-.133 0-.21-.111-.24-.24l-1.995-8.499c-.03-.13.108-.24.241-.24z" fill="#007e00"/>
            <path d="M85.228 22.521h10.557c.133 0 .24.24.24.24l1.248 6.382c.025.131-.108.241-.241.241H86.693c-.133 0-.21-.11-.24-.24l-1.466-6.382c-.03-.13.108-.241.241-.241z" fill="#0f0"/>
            <path d="M83.59 1.732h9.044c.134 0 .213.11.241.24L96.1 16.715c.029.13-.107.24-.24.24H83.966a.24.24 0 0 1-.24-.24L81.69 7.987l1.657-6.014c.036-.13.108-.241.241-.241z" fill="#007e00"/>
            <path d="M83.199 2.79H91c.133 0 .21.111.24.24l3.214 13.684c.03.13-.107.24-.24.24H83.966a.24.24 0 0 1-.24-.24L81.69 7.987l1.267-4.956c.033-.13.107-.241.24-.241z" fill="#0f0"/>
        </g>
        <path d="M.016 57.193h18.807l-17-35.383L0 22.184v35.009M0 0v8.374l23.9 48.819h17.932v-8.208L17.949 0zM41.863 0v34.674l-1.729.634L23.036 0z" fill="#fff"/>
        <path d="M1.789 45.47h9.173l-4.209-8.973H1.875z" fill="#7f0404"/>
        <path d="M1.831 45.47h7.054l-3.414-6.93H1.84z" fill="red"/>
        <path d="M1.865 29.423H3.25L2.11 26.49h-.304zM16.09 36.49h17.443c.133 0 .18.121.24.24l4.234 8.498c.06.12-.108.241-.241.241H20.322c-.133 0-.18-.121-.24-.24l-4.234-8.499c-.06-.119.108-.24.241-.24z" fill="#7f0404"/>
        <path d="M17.182 38.606h15.035c.134 0 .182.122.241.241l3.17 6.381c.06.12-.107.241-.24.241H20.371c-.134 0-.182-.121-.241-.24l-3.19-6.382c-.06-.12.107-.24.24-.24z" fill="red"/>
        <path d="M8.181 20.354h17.444c.133 0 .181.121.24.24l4.234 8.499c.06.12-.107.24-.24.24H12.414c-.134 0-.182-.12-.241-.24L7.94 20.595c-.06-.12.107-.241.24-.241z" fill="#7f0404"/>
        <path d="M9.274 22.47H24.31c.133 0 .181.122.24.241l3.17 6.382c.06.12-.107.24-.24.24H12.464c-.134 0-.181-.121-.241-.24l-3.19-6.382c-.06-.119.107-.24.24-.24z" fill="red"/>
        <path d="M2.09 1.81H16.52c.134 0 .183.12.241.24l7.132 14.705c.058.12-.108.241-.241.241H6.39c-.133 0-.203-.112-.24-.24L1.846 7.987l.002-5.937a.24.24 0 0 1 .241-.241z" fill="#7f0404"/>
        <path d="M2.09 2.868h12.844c.133 0 .182.12.24.24l6.603 13.647c.058.12-.107.241-.24.241H6.39c-.133 0-.203-.112-.24-.24L1.846 7.987l.002-4.88a.24.24 0 0 1 .241-.24z" fill="red"/>
        <path d="M39.91 1.851v15.074h-6.75L25.968 1.858z" fill="#7f0404"/>
        <path d="M38.61 2.91v14.015h-5.45l-6.717-14.01z" fill="red"/>
        <path d="M39.894 20.404v8.9h-.69l-4.396-8.91z" fill="#7f0404"/>
        <path d="m38.626 22.175.024 5.956-2.946-5.966z" fill="red"/>
    </g>
</svg>
