<svg height="179.573" viewBox="0 0 282.656 71.829" width="706.641" xmlns="http://www.w3.org/2000/svg">
    <text fill="#ef00eb" font-family="TrasksHand" font-size=".8" stroke="#0105ff" x="182.932" y=".316" transform="translate(.305 15.722)"><tspan fill="#fafafa" fill-opacity=".4" stroke="none" x="182.932" y=".316">John Loreth 2022</tspan></text>
    <g stroke-width="2.5">
        <g fill="#3ea9e7">
            <path d="m40.609 16.333.033-.016.033-.084c.084-.083.15-.15.167-.266l.117-.034a.478.478 0 0 1 .183-.316c.067-.2.25-.417.383-.567l.034-.217c.166-.2.283-.416.45-.616h.016l.067-.034v-.116l.167-.084-.05-.15c.316-.066.016-.5.35-.616l.033-.234.083-.033a.41.41 0 0 1 .184-.283c.066-.184.433-1.084.55-1.15.116-.534.183-1.1.283-1.634-.05-.183-.1-.333-.1-.516 0-.05.033-.1.083-.084l-.066-.033c-.034-.05.016-.1-.017-.15.1-.4-.167-.633-.167-.95l-.116-.133-.017-.167c-.067-.1-.133-.2-.217-.283-.066-.484-1.066-1.1-1.15-1.234h-.116a.644.644 0 0 1-.317-.2 6.018 6.018 0 0 1-.767-.283V5.8c-.366-.033-1.05-.183-1.366-.267l-.167.034a.532.532 0 0 0-.233-.05c-.134 0-.284-.017-.4.05-.1-.017-.184-.017-.284-.017l-.016-.033-.084.033h-.4l-.016.033a.437.437 0 0 1-.25-.033l-.084.05c-.016 0-.05-.017-.066-.017-.034 0-.4.1-.417.117-.017.017-.05-.017-.033-.033-.25.033-.517.016-.75.133l-.15-.05c-.317.083-2.1.617-2.3.6l-.017-.167.017-.016c-.134.033-.284.066-.367.183l-.167.067-.016.016c.083 0 .183.034.233.1-.45.134-.867.334-1.317.434-.183.183-.416.15-.533.316-.167.117-.2.217-.433.217-.084 0-.2 0-.217.117-.167.083-.533.166-.65.3-.233.3-.483.333-.85.483l-.05.167c-.15.066-.267.216-.4.316l-.15.05v.15c-.417.067-.533.584-.933.684l.033.116c-.083.034-.167.05-.233.117l-.067.167v.05c-.05.133-.183.233-.183.366l-.117.2-.15.117c-.1.167-.25.3-.4.417-.033.1-.083.2-.183.25l.133-.017c.15-.083.533-.4.6-.55l.167-.067V10.8c.333-.333 2.45-1.767 2.816-1.833.167-.1.234-.134.434-.15l-.017-.017c.217-.117.717-.333.95-.333.033 0 .067.016.1.033-.233.067-.433.267-.617.3l-.1.15v.017c-.133.016-.716.4-.75.433.084 0 .184.017.267-.033l.033.15.1.05c.1-.05.2-.117.284-.184.216-.066.45-.15.616-.3l.4-.016c.334-.25 1.15-.667 1.55-.417l.2-.117.384-.083c-.2.167-.25.067-.4.367l.05.016.15-.083v-.017l.166-.116-.033.133c-.217.1-.433.167-.583.35-.117.033-.267.1-.317.217l-.167.066-.083-.116c.217-.067.3-.184.467-.317l-.167-.033-.05.083c-.1.033-.2.1-.283.167l-.1.166-.134.067c-.05.117-.15.217-.216.333a.767.767 0 0 0-.3.167c-.05.117-.134.183-.217.283a.861.861 0 0 0-.483.484l.083.116c-.067.25-.35.55-.5.767l-.017.167-.05.05-.133-.017a.725.725 0 0 1-.133-.25c-.017.05-.067.15-.05.2l-.15.083-.05.267-.134.117-.083.166c-.083-.016-.133.1-.133.167l.05.117c-.084.15-.25.316-.3.466l-.067.034-.4.966-.083.117c-.017.183-.134.317-.15.5l.083.017c-.067.2-.033.533-.233.65l-.134.333-.133.067c0 .3-.2.416-.25.683a.377.377 0 0 1-.017.3.25.25 0 0 1 .067.183c0 .15-.067.25 0 .417l-.067.217.134.066.033-.15.133-.1c0-.066.034-.166.1-.2l-.016.15c.016.034.066.15.05.184l-.05.133.1.083-.034.167.067.05c-.033.067-.067.183.033.217l.017.15.083.1c0 .066 0 .15-.033.216l.133.384c.167.183.384.233.517.466l.267.15c.016 0 .816.467.85.5.2.067.35.184.55.25l.133-.016c.1.05.2.066.3.083v.167h.133c.1 0 .2-.017.267-.1.05-.017.083-.034.133-.034.3 0 .434.15.817.067l.15.083h.017c.233-.083.633-.166.883-.2a.736.736 0 0 1 .267-.1l.133-.083c.25-.033.433-.183.683-.217-.016.034.017.1.034.134l.133.116.017-.033c.15-.067.283-.15.433-.183l-.683.45h-.167l-.017.05.2.066c.184-.116.45-.35.65-.383l.134-.117v-.016l.133-.034.05.017.25-.25h.1l.05-.183a1.44 1.44 0 0 0 .167-.267l.166-.05.067-.167c.1-.083.217-.133.333-.183l.067-.167-.017-.016.584-.417h.15l.35-.167-.084.134c-.1.066-.183.133-.3.166l-.116.2-.15.05v.134l.116-.05c.017-.034.867-.7.917-.717.083-.1.133-.25.267-.3.066-.083.133-.167.216-.233.017-.15.15-.267.3-.3a.59.59 0 0 1 .267-.267c.217-.4.5-.283.717-.717zm-8.017-1.416.067-.167-.05-.117.016-.15c.117-.316.45-1.016.634-1.25l-.067-.016c.067-.084.233-.234.25-.334l.083-.016c.3-.45 1.167-1.334 1.284-1.584l.15-.083c.016-.017.1-.15.133-.15.283-.117.5-.483.8-.633.067-.1.15-.167.267-.217.266-.317 1.4-1.05 1.75-1.1.033-.033.066-.083.066-.117 0-.033 0-.05-.033-.05l-.1.067-.183-.083h-.117c.1-.067.183-.15.25-.25V8.65l.3-.1c.083-.1.217-.15.3-.233.1-.034.2-.067.317-.084l-.1-.116.066-.05.217.116c.083 0 .183-.016.25.017l.083-.033.134.1.166-.034.034.117.1.05.166-.033.434.266.133-.033c.133.1.217.233.267.383-.017.1-.417 1.75-.584 1.9-.033.117-.033.334-.183.367-.067.1-.117.2-.15.317-.2.25-.383.666-.6.883l-.05.167h-.05v.15c-.2.2-.4.45-.533.7l-.084.066c-.033.084-.016.167-.1.217l-.2.3-.083.017-.067.066-.066.184-.1.116v.134l-.017.016c-.05-.016-.117-.016-.183-.016-.134.133-.284.216-.4.35-.017.016-.034.066-.067.05l-.067.066v.017l-.1.033c-.083.134-.25.267-.3.4-.116.134-.283.217-.416.317h-.017l-.267.25-.033.2-.183.05v.017l-.217.066a.517.517 0 0 1 .217-.1l.133-.183-.05-.083-.133.133-.15.033-.167.117-.033.133-.184.067-.016.017c.016.016.133.183.15.083l.066.05-.283.117-.017-.117-.166-.017-.084.067c.017.033-.05.1-.083.067l-.167-.084-.083.184a.47.47 0 0 1-.033.3l-.1-.034c-.267.1-.15.15-.484.15h-.116c-.084.117-.234.034-.334.117-.15-.033-.316-.017-.466-.05a.775.775 0 0 0-.35-.217h-.017l-.1.05h-.1l-.05-.066-.167-.084h-.016l-.084-.15-.033-.3.067.15c.067.067.116.15.216.184v-.167h-.016l-.117-.167.033-.233-.05-.017.05-.333-.083-.15v-.033c.183-.25.25-.6.3-.9zm7.4 1.7c-.183.116-.25.333-.433.45l.016.116-.166.034v.016l-.15.267v-.05l-.234.267c-.133.05-.15.266-.316.266h-.017l.017-.266c-.117.15-.3.316-.467.383l-.15.017c-.067.083-.117.166-.233.166l-.2.1.15-.116h.033l.283-.334c.084-.05.15-.1.25-.116.1-.067.267-.25.317-.35.15-.067.267-.2.417-.25l.466-.6.017-.034.167-.033c0-.1.016-.2.05-.3a.309.309 0 0 0 .116.033c.034 0 .084-.016.084-.066l.1-.084a5.09 5.09 0 0 1-.117.484zm-3.75 2.6h.217l-.017.1c-.317.133-.717.4-1.05.466.083-.05.15-.15.183-.25l.134.017.15-.117h.016l.084-.1h.066c.084 0 .167-.05.217-.116zm-1.3.983-.233.15-.167.017-.067.116c-.1.017-.2.034-.266.117l-.15.083.05.134c.083-.084.183-.167.283-.234.2 0 .4-.116.567-.2l.083-.1zm-5.983-4.583.05.1c0 .083-.05.166-.1.233.016.117-.084.333-.117.45l.083.167-.083.233-.033-.15-.117-.083.1-.1c.033-.234.1-.65.217-.85zm11.783-3.734.05.017c-.183.317-.45.583-.617.9l-.066-.1c.066-.1.15-.183.233-.267l-.017-.083c.067-.033.15-.1.217-.1.017-.133.05-.333.2-.367zm-7.25 8.9-.133.134-.117-.067c-.05 0-.117.017-.183.017l-.05.116c.133.017.266.017.4.05l.166-.083-.066-.167zm.4-12.616c.183-.067.383-.117.583-.117l.217.017-.067.066c-.15.017-.3.067-.483.067-.083 0-.167-.017-.25-.033zm6.65 1.6.117.133-.034.167-.083.133c-.017.1-.033.2-.083.3l-.017-.167c0-.183.067-.383.1-.566zm.017 5.933c0-.033.033-.183.083-.2l.083-.217.084-.05.066-.083.034-.117.133.017-.083.15c-.117.033-.234.4-.4.5zm1.1-1.6c-.034.2-.084.433-.234.567v-.184c0-.05.034-.116.05-.15zm-10.9-2.567.166-.033v-.033l.084-.2-.084-.134c-.033.15-.116.267-.166.4zm-.15 4.517.116.017-.05.1.067.166-.083.117v.067l-.083-.134.05-.15zm9.533-7.317-.083.15v.15a.636.636 0 0 0 .233-.183zm-11.6 9.1-.017.167.017.117.117.133h.016c-.016-.083-.033-.183 0-.267zm2.233-5.8.117.034c-.067.1-.117.2-.167.3v.016l-.116-.05c.066-.066.166-.216.166-.3zm8.367 4.5.133.017-.066.083-.05.167h-.05l-.084-.05.1-.133zm.467-4.25.033-.166.017.066c-.034.1-.05.2-.1.284l-.067.033-.033.067-.034-.1.084-.117zm-4.884 7.55.25.017-.033.067c-.05 0-.117.016-.183.016l-.134.084zM29.592 9.9l-.167.067c-.016.05-.05.133-.033.183.1-.067.183-.133.2-.25zm6.65 5.367.033.15h.167c-.033-.067-.067-.15-.167-.15zm1.667 3.2-.15.116v.134c.066-.05.15-.1.15-.2zm-2.534.866.084-.033-.1.083-.3.067a.577.577 0 0 1 .266-.133zm-4.683-3.8a.365.365 0 0 1-.15.167l.05.067-.133-.05c.05-.067.15-.167.233-.184zm6.55-.3a.53.53 0 0 0-.167.167l-.05-.133a.592.592 0 0 1 .167-.034zm1.6-.633.067.033c-.034.034-.05.1-.1.134l-.084-.067zm-6.85 1.167.067.116-.034.15-.066-.1zm-1.05.533.067.15-.017.117-.083-.167zm5.167 2.667.083.133-.117.067.017-.167zm1.383-4.017.017.15-.134.167zm-5.7-4.433h.033l-.116.133-.067-.067zm7.317 2.4a1.66 1.66 0 0 0 .25-.234l-.084.167zm1.083-1.934.05.05-.017.117-.066-.017zm-4.583 8.25.133-.05h.117l-.184.067zm-3.184-9.316.134.116h-.1zm-1.766 5.266a.55.55 0 0 1 0 .234l-.034-.1zm10.666-.383.067.183-.033.067zm-11.983 3.433-.033-.066.1.1z"/>
            <path d="m42.909 20-.017-.033h.017V20l.033-.033c.117-.05.267-.284.35-.4a.134.134 0 0 1 .05-.15c0-.067-.05-.134-.117-.117.034-.067.25-.4.25-.417l.017-.05c.05-.05.067-.116.05-.183l.2.033.05-.133c.017 0 .017-.05 0-.05.05 0 .133-.017.167-.067l.033-.016c0 .016.033.133.067.133.016 0 0-.033 0-.05.016 0 .066 0 .066-.017 0-.033-.1-.083-.133-.1.067-.183.083-.3.2-.45 0-.05 0-.133.05-.166 0-.134-.133-.05-.133-.134.083-.133.15-.283.25-.416.067 0 .133-.05.166-.117l-.016-.033c0-.034.033-.034.066-.034l.017.067-.116.183c0 .067-.05.117-.117.1 0 .084-.017.167-.117.167l.067.117c0-.017 0-.034.033-.034s.117.117.15.15l-.05.067c.033.217-.3-.017-.216.617l-.35.366-.184.084.05.083c0 .083-.133.033-.166.017l-.234.216.05.1c0-.016 0-.033.017-.033.067 0 .117.1.15.133l-.05.05c0 .017-.133.384-.15.417l-.167.05.1.067c0 .016-.033.066-.066.05 0 .016.016.05 0 .05s-.05-.134-.05-.167c-.134.133-.25.283-.35.433l-.1.067-.1.15.066.083c.017 0 .15.067.15.1l-.05.05c.017.1-.1.167-.1.267s-.083.15-.066.25c-.05.133-.134.3-.25.4v.033c0 .05-.034.084-.084.084 0 .05-.016.133-.05.166l.017.05c0 .017-.017.05-.033.05l.016.117-.066.133c0 .017 0 .05.016.05.117 0 .534-.833.584-.933l.15.033c.083-.15.216-.3.266-.466L43.11 21l.05-.133.117-.117v-.033c0-.05.066.033.083.05.1 0 .1-.067.183-.067l-.083-.083.033-.2.017-.017.067-.217.083.034.05-.1v.15l-.1.016.033.117c.034 0 .05.017.05.033 0 .134-.1.25-.133.367l-.2.167-.05.1v.2c.017 0 .05 0 .05.033s-.033.05-.05.083c.133 0-.1.15-.167.15l-.033.117.133.05.15-.067V21.6c0-.133.084-.2.2-.25l-.116-.083.133.066v.017l.083-.033c0-.084.034-.25.15-.25 0-.1.1-.2.184-.25 0-.167.183 0 .183-.4l.1-.1.05-.15.15-.05c.117-.167.2-.35.3-.517l-.017-.1.017-.033c0-.2.25.066.25-.384.033-.033.1-.083.117-.133l.066.067v.033c0 .033-.033.033-.05.017l-.066.133c-.084.05-.034.183-.067.267 0 .016 0 .083.033.083.1 0 .334-.633.334-.633v-.034c0-.05.05-.066.083-.066l-.017-.067a.18.18 0 0 1 .05-.117c0-.05.05-.116.05-.166l-.017-.017.1-.15.067.05c.033.083-.067.15-.067.233 0 .034.034.017.05.017l-.016.2.1.067-.034.15c-.083.016-.05.033-.05.1 0 .016-.016.033-.05.033l-.066.117v.033c0 .15-.134.267-.134.417l-.05.05.017.116.1-.05.167-.25v-.05c0-.083.033-.166.017-.25l.116-.1v-.033c0-.05.017-.1.05-.133l.134-.017.016-.233v-.05c0-.034.017-.067.05-.084l.05-.216c.117-.05.15 0 .15-.1 0-.034.017-.034.034-.034a.5.5 0 0 0 .1-.3c0-.1.1-.15.1-.25l.3-.7c.066-.05.083-.133.083-.216 0-.067.067-.284.15-.284V16.5c0-.067.05-.117.116-.117v-.033c0-.25.267-.533.367-.75h.133v-.05h.2l.034-.067h.516c.084-.083 0-.066.15-.066.034-.05.1-.067.15-.067v-.05c0-.05.017-.1.067-.1-.017.05.033.083.083.083.084 0 .334-.1.334-.2.033-.016.183-.1.183-.15 0-.033-.067-.033-.083-.033-.083 0-.467.067-.5.117 0 .1-.35.066-.383.066l-.217.1c-.15 0-.4-.066-.4.117 0 .083-.15.05-.2.05a.56.56 0 0 0 .167-.267c.15.017.283.067.433.05.05-.05.05-.133.05-.183l.217-.067v-.05c0-.016 0-.066.033-.066.083 0 .133.1.2.1v-.017l.216-.05-.066-.167.183.017c.033.017.083.067.083.1s-.116 0-.116.05c0 .033.066.083.1.1.3 0 .316-.15.383-.4.133 0 .15.133.1.233.15-.05.3-.166.467-.166.033 0 .116.016.116-.05v-.067l-.316.117c-.084 0-.05.066-.134.066 0-.05 0-.15.05-.183h-.116c-.067 0-.1-.033-.1-.1 0-.117.016-.117.133-.117.067-.066.167-.133.267-.133.016-.033.133-.217.133-.067.133 0 .283-.066.417-.116l.083.016c.05 0 .117-.016.117-.083.083 0 .116.067.216.067 0-.117.167-.067.234-.067v-.033c0-.084.4-.15.5-.15 0-.05.066-.067.1-.067.05 0 .133.017.166.067-.133.083-.433.133-.466.183l-.084-.017c-.05 0-.116.017-.116.067l-.2.017-.067.183-.35.117c0 .116-.267.1-.267.216 0 .05.034.1.084.1.066 0 .15-.1.2-.15h.3l-.034.167c.017.05.05.067.1.067a.336.336 0 0 0 .184-.05c-.017-.134-.034-.117-.167-.117 0-.067.35-.283.483-.283l.134-.134h.183c0-.083-.067-.066-.067-.166 0-.017.017-.034.034-.034.05 0 .1.05.133.084.083 0 .117-.067.2-.067v-.033c0-.05.067-.067.117-.05l.216-.167c.084 0 .034.067.034.117l.016.05.217-.034.1-.133.183-.033c0-.1-.083-.167-.083-.35l-.067-.017-.266.267c-.034 0-.184 0-.184-.067.034-.05.117-.067.184-.067-.034-.016-.067-.066-.067-.1 0-.066.167 0 .167-.1.1 0 .083-.066.166-.066l.084-.134c.183-.066.366-.15.533-.25 0-.05.067-.066.1-.066l.083-.067v.067l-.133.133c-.017 0-.067 0-.067.017 0 .033.034.066.067.083v.017s0 .016-.017.016c-.05 0-.066-.083-.116-.083-.017 0-.017.017-.017.033-.117.25-.083.167-.183.167-.034 0-.067.05-.084.067-.016.1-.033.216-.033.316 0 .05 0 .084.067.084h.05l.133-.134.217-.05-.017-.083c0-.267.15-.067.233-.067.084 0-.016-.116-.033-.133h.217c0 .1-.117.15-.117.233 0 .034.083.034.1.034l.15-.067c0-.067.017-.15.067-.183l.016-.267c.067 0 .15.033.134.117l.1-.117c.083 0 .05-.05.05-.1 0-.033.016-.033.033-.033.05-.1.15-.217.15-.334h.05c0-.016-.15-.066-.183-.066 0 .066-.017.166-.067.216-.117 0-.05-.1 0-.15-.117.017-.4.034-.4.217-.017 0-.067 0-.067-.033 0-.017.317-.317.334-.334l.066.034c.067 0 .15-.017.184-.067.1 0 .183-.067.283-.067.1-.133.433-.283.583-.35 0-.15.3-.133.3-.283l.167-.083.017-.134c.083-.066.233-.183.35-.183.033 0 .066.017.066.067l-.183.116c-.067 0-.067.034-.067.084s-.05.05-.083.05c-.067.3-.233.116-.317.333-.066 0-.883.517-.966.567.25 0 .083.166.183.166.083 0 .2-.116.267-.166l.133-.05c0-.117.15.016.15-.134 0-.15.417 0 .417-.2l.05-.066c.05 0 .05-.034.05-.084 0-.016.016-.033.05-.033l.066-.117c0-.066.05-.116.117-.083.083-.2.283-.083.233-.267.117 0 .217-.116.217-.233l.25-.217c.017-.1.133-.433.133-.533a.336.336 0 0 0 .05-.183l.134-.317-.034-.533c-.116 0-.1-.234-.083-.3-.117 0-.083-.1-.1-.184l-.05-.05v-.15l-.133-.15c.033-.016.066-.066.066-.1s-.05-.033-.083-.033v-.067c0-.066-.05-.066-.1-.066 0-.05-.067-.067-.1-.067v.017c0 .033-.05.05-.083.05a.637.637 0 0 0-.3-.2l.133-.117c-.067 0-.133-.05-.133-.117-.083 0-.117-.066-.2-.066-.05-.05-.134-.067-.2-.067v-.067c0-.083-.05-.083-.117-.083l-.133-.067-.033-.083c-.184-.05-.35-.233-.434-.233l.017.083c0 .033-.017.05-.05.05l-.183-.133c-.084 0-.05-.067-.134-.067 0-.067-.033-.05-.083-.05-.033 0-.033-.05-.033-.067l.183-.05c-.333-.066-.617-.2-.933-.233 0-.133-.017-.117-.134-.117-.15 0-.183-.133-.35-.133h-.066c-.067.017 0 .067 0 .1s-.134.033-.15.033c-.034-.05-.117-.116-.117 0l-.183-.033-.084-.167C52.476 6.15 52.16 6 51.86 6c-.05 0-.1 0-.117-.067h-.45V5.8c.017-.033.084-.217.117-.183 0-.034.2-.584.233-.65v-.034c0-.033.05-.05.084-.05l.016-.116c.067-.084.167-.284.167-.4l-.033-.067c.166-.283.283-.65.4-.95l-.017-.067c.033-.05.067-.1.067-.166 0-.034-.067-.017-.084 0l.434-.767c-.067-.017-.034-.183-.034-.233l-.15.283-.033-.017c-.167 0-.283.567-.483.634-.167.366-.617 1-.867 1.2l-.117.033c-.016.017-.016.05-.016.083 0 .05.05.067.083.1-.1.15-.233.267-.333.417l-.034-.067.084-.083c.016-.133.116-.3.116-.4 0-.017 0-.05-.033-.05h-.017c-.116.333-.3.5-.45.783.017-.066.017-.133.017-.216l-.05-.017c-.083 0-.117.133-.05.183l-.217.35c-.016-.016-.033-.033-.033-.05 0-.033.033-.066.067-.1.033-.083.183-.2.066-.283.034-.1.234-.383.15-.45.084-.033.3-.2.184-.283l.033-.234c.15-.233.35-.533.433-.816-.066-.034-.033-.117.017-.15 0-.017-.017-.034-.017-.034-.05 0-.1.117-.116.15-.084.167-.3.4-.4.6l-.05-.016c-.067 0-.05.1-.017.133-.117.25-.267.483-.4.717-.033.066-.25.3-.117.35-.05.1-.266.766-.383.766-.033 0-.033-.066-.033-.083.016-.033.133-.267.133-.3l-.083-.1c-.017.017-.034.05-.067.05h-.033c.033-.033.033-.1.033-.133.083-.017.017-.084.1-.1v-.034c0-.166.1-.483.183-.6h.084a.408.408 0 0 0 .066-.2l-.016-.016c-.034 0-.017.1-.117.1-.017 0-.117.133-.183.166l.016.034c0 .083-.066.133-.133.166l.033.05h-.033c-.05 0-.067.034-.017.084l-.15.15a.24.24 0 0 1 .034.116c0 .034-.034.034-.067.017l-.067.117c.017 0 .034.016.034.033 0 .033-.084.067-.117.067.017.016.033.033.033.05 0 .05-.083.033-.1.016a.237.237 0 0 1 .034.1c0 .017-.034.034-.05.017-.1.033-.15.15-.15.25 0-.017 0-.017-.017-.017-.067 0-.167.067-.217.1-.2 0-.383.067-.6.067 0 .117 0 .133-.116.133-.25 0-.517-.133-.767-.133l-.117.1-.866.033-.134.067c-.45 0-.883.05-1.35.05-.05 0-.116.033-.166.083h-.284c-.283.167-.767.117-1.067.217v.033c-.133 0-.333-.033-.433.084h-.233c-.067.05-.317.033-.317.116l-.483.067c0 .1-.3.067-.35.067 0 .1-.15.066-.217.066l-.2.117c1.083-.067 2.15-.067 3.233-.067l-.033.05-.217-.016c-.016.066-.1.1-.15.1-.016-.017-.033-.034-.066-.034a.126.126 0 0 0-.067.034l-.417.15c-.116-.034-.233-.084-.366-.084-.067 0-.167.067-.167.134l-.217.066-.083-.016c-.2.066-.367-.067-.367.233 0 .05.05.05.084.05l.05-.067 1.166.15c.017-.016.05-.1.084-.083.416.1.383.067.733.067.167 0 .45 0 .617.033.016.067.066.1.083 0l.583.1c.017.033.05.067.05.1 0 .05-.183.033-.216.033a.755.755 0 0 0-.267-.05l-.15.067c.233.05.483.083.717.083v.05c-.034 0-.167.034-.167.067 0 .017.1.067.117.083l-.034.034c-.183 0-.383.016-.566-.017v.033c0 .05.066.05.1.05.066 0 .066.117.15.15-.017.117-.317 0-.384 0-.116 0-.183.05-.3 0-.066.017-.333.067-.333.15 0 .1.133.1.2.1.183 0 .383-.066.583-.066.6 0 1.284 0 1.884.083 0 .117-.117.283-.184.367 0 .133-.15.166-.15.316 0 .134-.133.217-.116.334l-.1.166.016.067c0 .05-.05.067-.083.067l-.05.183c-.167.167-.233.5-.367.7 0 .05-.1.3-.133.317v.016c0 .167-.117.317-.183.467-.067 0-.067.017-.067.067 0 .033-.017.05-.05.05v.266h-.033c-.05 0-.1.017-.084.067-.133 0-.133.3-.133.383l-.117.134h-.083c-.067 0-.017.133-.017.183 0 .133-.05.25-.05.383l-.133.1v.184a.624.624 0 0 0-.217.2l.017.033c0 .033-.017.033-.05.033-.067 0-.083.05-.15.05-.05.15.017.184-.1.184L44.16 14a.494.494 0 0 0-.267.033c-.016.1-.1.05-.15 0l-.033.034c-.117.033-.267.1-.35.2-.067 0-.067-.05-.133-.067l-.467.267.017-.034-.117.017-.133.1c-.134.017-.367-.05-.367.117-.1.016-.2.066-.283.1l-.117-.017-.017.05-.116-.017-.034.05h-.116l-.034.05c-.033-.016-.066-.016-.1-.016s-.066 0-.083.016c0 .167-.833.3-1.017.334v.016c0 .05-.016.1-.083.084l-.083.083c0 .1-.134.05-.184.033l-.083.1-.15-.016-.15.066c-.083-.016-.217-.033-.267.05l-.083-.016c-.033 0-.067.016-.067.033a.523.523 0 0 1-.266.1c0 .05.033.067.066.067a.282.282 0 0 0 .167-.05l.217.016a.563.563 0 0 0 .2-.1l.016.067.217.033.133-.05c.067 0 0 .084 0 .084l.034.05.3.033c.016-.067.5-.083.583-.067 0-.116.35.017.4-.1h.133l.05-.016.084.016h.133c-.05.034-.167.05-.167.1l-.133-.05-.033.067c-.034.033-.3.083-.35.1l.05.033h-.05l-.1.017v-.033s0-.017-.017-.017c-.05 0-.1.083-.133.117l-.1-.017c-.184 0-.35.1-.534.083-.016.05-.083.034-.116.034l-.134.05-.083-.017c-.083 0-.25.067-.317.083l-.183-.05-.05.117h-.083c-.017.05-.067.067-.117.067-.033-.017-.067-.017-.083-.017-.25 0-.517.033-.767.033l-.083.034-.05.066.166.05c.017-.05.067-.066.117-.066l.133.066h-.166l-.117.05-.15-.033-.25.083a.38.38 0 0 0-.183-.05l-.15.05-.084-.033c-.166.017-.333.083-.516.083.133.017.283.05.4.05.1 0 .183-.05.283-.033v-.033l.35.033.083-.05c.05 0 .1.033.084.083.183-.05.4 0 .583 0 .1 0 .167-.066.267-.066.033 0 .05.016.05.05l.233.033.083-.117c.184.017.434.067.617.067.167 0 .383-.067.533-.05l.067-.05h.067l.7-.017.083-.05c.033.034.1.05.15.067l.017-.033.1.016.116-.116h.184c.016 0 .033 0 .033.016 0 .034-.05.05-.067.05-.066-.016-.15-.016-.15.067-.016.017-.05.033-.05.05s.184.033.234.033l.133-.05h.133c.067 0-.033-.033-.033-.083 0-.017.033-.017.033-.017l.05.017c.034 0 .05-.017.067-.05l-.033-.083.083-.05c.133 0 .017.116.017.183 0 .017.033.017.05.017 0 .05.033.05.05.016l.116.05c.034-.016.117-.066.117-.116s-.083-.05-.1-.05h-.033l.1-.017.083-.067-.033-.083.1-.017c.05 0 .016.05.016.084h.3c.017-.05.1-.05.134-.05l.05-.017c.016 0 0 .017 0 .033.066.017.15.017.216-.016-.016.1-.05.2-.083.283 0 .067-.067.067-.067.15l-.05.117c0 .1-.116.2-.183.266 0 .117-.05.25-.117.334 0 .25-.283.333-.266.583l-.117.1.017.183-.117.117c0 .1-.067.183-.067.317l-.066.1a.82.82 0 0 1-.1.283c0 .15-.2.383-.267.533l-.067.05.017.117-.05.083c.017.017-.033.067-.05.067 0 .067-.067.083-.067.15l-.066.1c0 .083-.05.2-.1.267 0 .2-.234.283-.217.483l-.1.083.017.15-.1.084c0 .066-.05.083-.05.15s.05.133.083.183l.033.017c-.033.1-.083.183-.133.266l.017.05c0 .034-.067.05-.1.05v.067l-.017.2-.083.15-.017.133c-.033.034-.05.1-.05.15-.05 0-.05.034-.05.067s-.033.033-.05.033l-.05.15c.017.017.067.034.067.05s-.067.017-.067.017l-.033.133.033.084c-.05.033-.15.083-.083.15l.033.033-.033.05c0 .033 0 .133-.067.1l.083.083c.017-.066.05-.216.134-.216.1-.184.25-.617.466-.684 0-.166.25-.35.317-.5 0-.1.133-.183.2-.233l.033-.117c.1 0 .017-.116.117-.116.083-.1.183-.25.2-.367.1-.05.183-.083.167-.217.183 0 .266-.25.366-.383a.392.392 0 0 0 .034-.133c0-.05-.034-.117-.1-.1.05-.117.133-.234.2-.35l.133-.084.05-.066.017.016-.034-.15c0-.016 0-.033.017-.033zm6.316-8.283c0-.1.034-.217.034-.35.1-.117.2-.267.2-.434.083 0 .05-.033.05-.083s.05-.05.083-.05l.067-.15c0-.15.133-.217.1-.383.133 0 .133-.217.133-.3l.117-.334c.083 0 .05-.033.05-.083 0-.033.033-.033.05-.033l.083-.117v-.033c0-.15.117-.384.25-.384v-.016c0-.05.033-.1.1-.1.033.033.1.083.15.083.017 0 .017-.033.017-.05l.166-.1h.55c.05 0 .067.017.067.067-.067 0-.633-.084-.633.1 0 .05.016.1.083.1.05 0 .117-.05.167-.084.266.034.516.1.766.2v.034c0 .1.117.083.184.083.083 0 .066-.067.066-.133h.45c.05 0 .15 0 .15.066.017 0 .084.034.084.05s-.084.017-.084.017c.034.35.517.1.717.35v.067c0 .2-.05.25-.25.25V10c0 .05-.05.083-.1.083l-.133.117h-.167l-.05.067-.233.116.016.067c0 .05-.116.033-.15.033v.017c0 .017-.266.117-.316.117l-.083.05c-.067 0-.35.1-.35.133-.05 0-.3.117-.3.133a.25.25 0 0 0-.184.067h-.033c-.05 0-.083.017-.083.067-.05 0-.334.083-.334.116l-.3.017c-.083.167-.25.083-.3.183h-.316l-.217.1v.017c0 .067-.067.083-.067.15zM45.66 16.7c0-.017 0-.117.033-.117s.033.084.033.1c-.1 0-.066.217-.066.267l-.117.017.033.133c.017 0 .067 0 .067.017 0 .05-.067.1-.067.15-.066.05-.216.183-.2.266l-.15.267c-.066 0-.016.05-.016.1 0 .033-.034.033-.067.033-.017-.1-.05-.066-.067 0-.1 0-.133.017-.15-.1a.6.6 0 0 1 .2-.3v-.016c0-.084.084.016.1.033.15 0 .017-.133.134-.133-.05-.034-.067-.117-.067-.167.15-.15.233-.383.367-.55zm4.716-2.2c-.216 0-.033.2-.25.2l-.05.167.284.033.05-.133c.05-.017.2-.084.2-.167s-.217.033-.234-.1zm-.966.583c.033.034.067.05.116.05.067 0-.083-.116.134-.116.083 0 .216-.017.216-.134 0-.05 0-.116-.066-.116-.084 0-.167.066-.25.066zm-4.534 3.184v-.034c0-.083.067-.116.067-.183l.067-.05c.05 0 .067.033.067.083 0 .084-.034.167-.05.25-.117.05-.217.167-.334.167-.016 0 .034-.017.017-.033-.017-.017-.033.033-.033.016v-.066c0-.034.166-.134.2-.15zm.5-2.917c0-.033 0-.133.05-.133.034 0 .034.1.034.116-.05.1-.1.267-.2.334-.034.133-.117.35-.217.45-.05 0-.067-.017-.067-.05l.067-.017.05-.25c.183 0 .1-.45.283-.45zm2.667-4.233.083-.117c0-.067.067-.083.05-.167l.084-.216.116.05c-.05.083-.083.183-.116.266 0 .05-.017.134-.067.167l-.067.15a.127.127 0 0 0-.083.033l.017-.033c0-.033-.017-.1-.017-.133zm-3.933 8.05.066.066c.05-.016.084.034.134 0l-.133.217.016.05c0 .05-.033.067-.083.067-.017-.1-.033-.05-.05 0l-.1-.017zm5.05-8.067c.05 0 .05.15.05.183-.05.084-.134.167-.2.234-.084 0-.084.066-.067.133-.033 0-.05-.033-.05-.05 0-.117.233-.5.267-.5zm-.5 3.4.116.067v.016c0 .1-.116.117-.183.117h-.2l-.033-.067.067-.066c.083-.034.15-.067.233-.067zm-4.284 4.4-.1.15-.033-.067c.083-.083.183-.216.183-.333l.134.033v.034l-.1.016.033.1c.033 0 .05.017.05.034 0 .066-.067.133-.1.183zm-1.716 2.967c-.05.05-.15.166-.15.233 0 .033.016.05.05.05.1 0 .15-.133.15-.217 0-.033-.017-.066-.05-.066zm7.15-12.284c.016 0 .15.034.15.034l-.1.016c-.017.05-.05.234-.134.234-.033-.017-.05-.084-.05-.117 0-.133.134-.083.134-.167zm.1-.35.083-.183.05.033c0 .05-.117.25-.133.3a.127.127 0 0 0-.084.034c0-.067 0-.184.084-.184zm-6.367 9.75.15-.066a.335.335 0 0 1-.067-.134l-.133.134zm5.483-4.6c.084.017.234.05.234.067 0 .067-.134.033-.2.05zm-.116-5-.017-.1c0-.066.083-.05.133-.05l-.05.084c0 .05-.016.1-.066.1-.017 0-.05 0-.05-.017s.05-.017.05-.017zm-.05 1.8s0-.066.016-.066c0 0 .017.05.017.066l-.083.2c0 .017 0 .067-.033.067s-.034-.083-.034-.1h.017c.05 0 .05-.067.05-.1zm-3.85 5.4c.033.017.15.067.15.1 0 .017-.084.017-.084.017s0 .067-.016.067c-.033 0-.05-.15-.05-.184zm.833-.033c0-.017 0-.033.017-.033.033 0 .067.083.083.1l-.083.05v.033c-.033 0-.05-.083-.067-.1zm3.083-5.617c.034.017.067.067.067.1s-.033.034-.067.034c-.033 0-.05 0-.05-.034s.034-.083.05-.1zm.134-.2.05-.016c-.05.016-.05.083-.05.116 0 0 0 .034-.017.034-.033 0-.067-.05-.067-.084 0-.05.05-.05.084-.05zm-2.784 4.75c.017.017.067.05.067.084s-.05.033-.067.033-.05 0-.05-.033.034-.067.05-.084zM44.56 18.5c0-.017 0-.1.033-.1.017 0 .017.067.017.083a.299.299 0 0 1-.117.084zm-.617 1.167c0-.034.017-.05.033-.05.034 0 .067.016.084.033l-.117.05zm-.083.266.083.067-.067.033-.05-.05zm.9-1.583.05.067c-.033.016-.05.05-.083.05h-.017zm-1.567 2.717h.033c0-.017.017-.05.05-.05 0 0 .017 0 .017.016l-.033-.066c-.05 0-.067.066-.067.1zM44.51 18.2h.016c.034 0 .067 0 .067.033 0 .017 0 .034-.033.034s-.05-.05-.05-.067zm.066-.133h.034c.016 0 .05 0 .05.033a.036.036 0 0 1-.034.033c-.033 0-.05-.033-.05-.066zm7.134-9.2.083.016V8.9c0 .017 0 .033-.033.033s-.05-.033-.05-.066zm-2.167.783c.017 0 .017-.017.033-.017.017 0 .034.017.034.034 0 .016 0 .05-.034.05-.016 0-.033-.05-.033-.067zM42.76 21.3l.083.017c0 .016 0 .05-.033.05-.017 0-.05-.05-.05-.067zm9.333-7.817.117.017a.127.127 0 0 1-.083.033c-.017 0-.034-.033-.034-.05zM46.86 14.7c.033 0 .067.033.067.067-.067 0-.067 0-.067-.067zm2.35-4.333c0-.017 0-.017.017-.017.033 0 .05.033.066.067h-.033c-.033 0-.033-.034-.05-.05zm-4.5 7.45.067.016v.017c0 .017 0 .033-.017.033-.033 0-.05-.033-.05-.066zm0-1.35c.017 0 .033-.017.033-.017.017 0 .033.017.033.033a.036.036 0 0 1-.033.034c-.017 0-.033-.034-.033-.05zm-.05.116.067.017c0 .017 0 .05-.034.05-.016 0-.033-.05-.033-.067zm4.967-6.55.066.017c0 .017 0 .05-.033.05-.017 0-.033-.05-.033-.067zm2.766-1.05L52.46 9c0 .017 0 .05-.033.05-.017 0-.034-.05-.034-.067zM45.51 14.95l.067.017c0 .016 0 .05-.034.05-.016 0-.033-.05-.033-.067zm6.4-6.017h.017c.033 0 .066.017.066.05-.05 0-.066 0-.083-.05zm2.433-2.15c.033 0 .067.017.067.05h-.05c-.017 0-.017-.033-.017-.05zM44.476 18.35l.05.017c0 .016 0 .05-.017.05-.033 0-.033-.05-.033-.067zm2.416-4.567c.033 0 .067.017.067.05h-.017c-.033 0-.05-.016-.05-.05zm-1.667 2.284c.034 0 .067.016.067.05h-.033c-.033 0-.033-.034-.033-.05zm1.75-2.517.05.117c-.033 0-.05-.034-.05-.067zm-5.416 8.5h.05c0 .017 0 .05-.017.05-.033 0-.033-.033-.033-.05zm1.367-2.183.066.016a.036.036 0 0 1-.033.034c-.017 0-.033-.034-.033-.05zm.7-.184.066.017a.036.036 0 0 1-.033.033c-.017 0-.033-.033-.033-.05zm-.8 1.5h.016c.034 0 .05 0 .05.034h-.016c-.034 0-.05 0-.05-.034zm.966-2.783c0-.017 0-.017.017-.017s.033.017.033.034c0 .016 0 .016-.017.016s-.033-.016-.033-.033zm-2.633 3.3v-.017s0-.016.017-.016.033.033.033.05h-.017V21.7zm3.816-3.1c.017 0 .034.017.05.033l-.033.017c-.017 0-.017-.05-.017-.05zm-1.416 1.183c.017 0 .05 0 .067.017-.017.017-.034.017-.05.017zm-.817 1.634h.017c.017 0 .017 0 .017.016 0 0 0 .034-.017.034s-.017-.034-.017-.05zm1-1.434c.017.017.017.05.017.067l-.033.017c.016-.034.016-.05.016-.084zm6.6-14.8-.033.05.05-.133v.033c0 .017 0 .034-.017.05zM49.16 5.5c0-.017.017-.033.033-.05-.017.017-.017.05-.017.067zm-5.417 13.967v-.017l.033.05zm-.45 1.566v.034h.017zm6.783-15.65V5.4h-.016zm-6.316 13.15-.017-.033s.017.017.017.033z"/>
            <path d="M57.109 20.133c0-.033.033-.083.05-.1l.033-.083-.033.05.066-.15.3.017c.117 0 .317-.117.634-.117.1 0 .166-.05.266-.05l.034-.133h.083c.017.033.067.083.1.083s.083-.433.467-.133l.066-.05c.05 0 .2-.1.2-.017.184-.067.567-.05.6-.267l.25-.016v.016c0 .034.017.034.05.034l.067-.017c-.017-.017-.067-.05-.067-.083 0-.017.05-.017.05-.017l.167-.05c.017 0 .117.05.067.05h-.034c0 .067.067.067.1.067.184 0 .417-.1.584-.167 0-.1.3-.067.35-.067.033-.116.233-.116.35-.116.05 0 .166.05.216.066 0-.05.067-.066.1-.066.084-.034.15-.117.25-.117l.084-.133c.183 0 .316.066.35-.134l.033.084h.233l.117-.067c.183-.017.317-.017.483-.017.134 0 .284-.083.45-.083l-.066-.133c0-.034 0-.134.05-.134.083.05.183.134.233.217h.25c.05 0 .117-.017.15-.067l.1-.05h.15l.033-.066.484.016.116-.066s.767-.167 1.134-.167c.2 0 1.25-.05 1.25-.267-.05 0-.134.017-.167.067-.1 0-.3-.033-.4.033h-.45c-.017.017-.033.067-.05.067s0-.017 0-.033c0-.1-.117-.034-.15 0h-.233l.116-.05c.317 0 .534-.167.95-.15.117-.167.384-.067.567-.067.2 0 .35-.067.567-.067.033 0 .1 0 .1-.05.15 0 .216-.033.316-.116h.084c.25 0 .5-.05.75-.05l.016-.067h-.033c0-.017.083-.05.1-.05a.365.365 0 0 0-.167-.15c-.116 0-.216.083-.3.15-.016-.05-.083-.15-.083-.017h-.15l-.083-.066h-.067a.352.352 0 0 0-.167.066l-.35-.016c-.016-.034-.033-.084-.066-.084-.05 0-.084.05-.1.084-.084 0-.084-.067-.184-.067-.083 0-.116.167-.3-.017h-.116l-.067.067a.214.214 0 0 0-.167-.067c0-.15-.683-.1-.75-.1-.15 0-.183.017-.183-.15l.183.017c.017.017.034.067.05.067s.017-.017.017-.034l.2-.033c0-.033.017-.067.05-.067s.05.05.05.067c.033 0 .117-.017.117-.067.1 0 .566.067.633-.05h.033v-.016c0-.184-.333-.034-.383-.034v-.016c0-.084-.117-.05-.167-.05-.05.033-.333.133-.3-.017-.083 0-.1.067-.183.067v.016c0 .05-.033.1-.1.1v-.016c0-.134-.217 0-.283 0-.034 0-.05-.017-.05-.05a1.878 1.878 0 0 0-.534-.084l-.033-.133c.267.017.45.1.733.1l.117-.05h.233l.034-.05.433.017c.017 0 .067 0 .067-.017 0-.067-.417-.067-.484-.067l-.2-.25a2.486 2.486 0 0 1-.35.034c-.116 0-.833.05-.866-.084-.117 0-.217.05-.317.05-.05 0-.167 0-.167-.05s.067-.066.1-.066l.084-.05c-.017-.017-.034-.067-.067-.067s-.033.033-.033.05l-.134.033a.036.036 0 0 1-.033.034.248.248 0 0 1-.15-.067c0 .05-.1.067-.133.067 0-.117-.367-.05-.367-.167v-.017c.05-.033.317-.15.317-.016.083 0 .316-.05.316-.134h.117c.267 0 .533-.05.817-.05.033 0 .233.017.233-.033 0-.117-.833-.183-.967-.183-.483 0-.983.1-1.483.1-.133 0-.333.05-.517.05l-.133.066-.2-.016-.183.1-.217-.017c-.183 0-.4.117-.567.1-.066.067-1.05.2-1.333.167l-.017.066c-.233 0-.45.117-.65.117-.05 0-.1.017-.1.067l-.133.066h-.3l-.017.067a.543.543 0 0 1-.233.067c-.033 0-.083-.017-.083-.05V16.3l.033-.05.117-.05.033-.033c0-.067.067-.1.067-.184l-.184-.083c-.066 0-.066.067-.133.067 0 .1 0 .266-.133.266l-.017.084a.333.333 0 0 0-.167.133l-.033-.017.033-.016-.016-.1h.016c.05 0 .067-.434.2-.534 0-.066.034-.05.084-.05.016 0 .033-.016.05-.033l.15-.1c.033-.15.266-.65.266-.733l.117-.134c0-.1.05-.266.183-.266.017.016.034.05.067.05.017 0 .083-.217.1-.25l.217-.134c.016 0 .05 0 .05.034s-.2.233-.217.25c-.217.25-.367.516-.417.833h.117c.05-.15.167-.45.283-.567 0-.05.017-.1.067-.116.05-.034.083-.1.083-.167a.713.713 0 0 0 .234-.267l.066-.016.017-.1c.167 0 .017-.15.017-.217s.466-.033.533-.033.133-.017.133-.084c.117 0 .034-.116.15-.116.017 0 .067 0 .067-.034s-.067-.033-.083-.033v-.133l.366-.017h.2c.034.05.117.1.167.133.067 0 .067-.066.15-.066l.067.066.433-.166c0-.034 0-.134.05-.117a.385.385 0 0 1 .117.117h.116c.034-.05.284-.084.4-.2.067.066.1.133.2.133.067 0 .067-.067.134-.067 0-.016 0-.133.033-.133.017.033.067.133.117.133.033 0-.017-.133.05-.133s.1.05.1.1h.116l.184-.1.15.067c0-.084.166-.084.216-.067.067-.133.484-.033.584-.017l.116-.083c.034 0 .117 0 .134-.05.166-.017.483-.083.633-.083 0-.1-.083-.067-.15-.067-.017 0-.033 0-.033-.033h.616l.067-.067.133.017c.05 0 .067-.034.067-.084 0-.083-.166-.083-.216-.066-.134-.1-.25-.017-.35-.05l-.017-.05c-.167 0-.234 0-.234-.017l.25-.033c0 .033.034.05.05.05.1 0 .184-.05.267-.084.317-.033.617-.066.933-.066.017-.1.117-.067.184-.067.116 0 .15 0 .15-.133 0-.034-.017-.05-.05-.05-.1 0-.184.05-.267.1-.467.05-.967.15-1.383.15-.1 0-.184.1-.284.1l.017-.117-.133-.05c0 .1-.067.05-.1 0h-.05c-.05 0-.1.017-.1.067-.1.1-.367.066-.484.066l1.5-.466.067-.067c.05 0 .15 0 .184-.067l.533-.066c0-.1.333-.067.367-.067l.016-.117h.45c.05 0 .134 0 .134-.066l.116-.067c.017.017.05.067.084.067s.033-.05.033-.067c.017-.017.067-.033.067-.067 0-.016-.05-.016-.05-.016l-.117-.05c-.017.066-.067.1-.133.066 0 .034-.017.067-.067.067s-.067-.033-.067-.083c-.05 0-.117.016-.117.083-.166 0-.3-.083-.466-.083 0 .216-.467-.05-.484.133l-.4-.067.034-.083c-.084 0-.017-.067-.117-.067 0 .134-.117.1-.017.134l-.116-.017-.05-.033v.033c-.067-.017-.434-.033-.384-.1.267-.1.517-.05.767-.217.233 0 1.2-.083 1.383.067h.284c.016-.05.083-.067.133-.067s.117.017.15.067h.117l.016-.067c-.1 0-.016-.083.017-.116 0-.1-.433-.034-.517-.034a.036.036 0 0 1-.033.034c-.05 0-.1-.034-.133-.067-.033.05-.083.117-.083 0-.017 0-.134 0-.134-.033 0-.05.384-.034.517-.034 0-.083-.067-.05-.067-.133a.618.618 0 0 1-.25.067c-.033 0-.067-.017-.067-.05-.183.033-.366.05-.55.05v-.034c0-.216-.833-.1-1-.1-.016-.016-.516-.05-.666-.1 0-.083-.15-.066-.2-.05-.017-.033-.1-.116-.117-.033l-.133.033c-.067-.116-.367 0-.35-.133l-.334.133c-.033-.05-.1-.066-.15-.066l-.033.066h-.3l-.083.067c-.033-.067-.083-.183-.167-.2a1.203 1.203 0 0 0-.333.15c-.517-.017-1.017.1-1.533.067.016-.134.183-.1.2-.234-.017-.033-.05-.116-.1-.116-.034 0-.034.066-.067.066s-.033-.05-.067-.05c0-.066.05-.383.133-.383.05 0 .134.033.184.05l.033.2.167-.25c.016 0 .066 0 .066-.017 0-.066-.133-.1-.133-.016l-.067-.017.067-.05.1-.167.15.084c.083-.15.183-.3.283-.434-.016-.016-.15-.066-.15-.083s.017-.017.034-.017c.116 0 .016-.05-.017-.066 0-.034.017-.067.05-.067.05 0 .067.083.15.083.033 0 .083-.033.1-.066l.117-.067c.233 0 .466-.15.7-.15.133 0 .25.067.383.067.05-.034.35-.2.35-.067l.35-.05.15.05c0-.017.3-.117.317-.117.016.017.066.05.1.05s0-.066.05-.066.1.05.133.083l.083-.067c.184 0 .367-.066.567-.066.033-.217.2-.134.4-.167 0-.033 0-.1.05-.1.033 0 .067.033.083.067v.033s0 .033.017.033c.033 0 .083-.033.1-.066h.35c.067-.034.15-.084.233-.084.067 0 .034.084.067.084s.05-.067.067-.084h.3c0-.1-.2-.083-.267-.066l-.1-.184-.117.067h-.566c-.017 0-.084 0-.084.017s.2.066.234.083l-.2.083c-.033-.05-.117-.066-.167-.066-.05-.034-.067-.1-.067-.15 0-.017 0-.1.034-.1.016 0 .033.083.083.083l.017-.017v-.016c0-.034.05-.05.083-.05l.05.066.183-.05v.034c0 .016 0 .033.034.033s.083-.033.1-.067v.034s0 .033.016.033c.05 0 .084-.05.117-.083.017.033.05.066.083.066s.034-.05.034-.066c.083 0 .133-.067.216-.067.134 0 .134.267.267.267.1-.084.033-.067.183-.067.017 0 .15 0 .15-.05l-.05-.05v-.017c0-.05.034-.083.084-.083l.116.067.034.066.133.05h-.033c-.05 0-.1.017-.1.067-.017 0-.05.017-.05.033 0 .034.066.034.083.034h.517c.516 0 1-.1 1.5-.167.05.017.133.05.183.05.133 0 .25-.133.517-.133l.15-.1c.283-.05.533-.1.816-.1V7.7c0-.083.234-.033.284-.033l.15-.084c-.067-.133-.667-.066-.784-.066-.6 0-1.216-.184-1.8-.184-.116 0-.233-.066-.366-.066a.812.812 0 0 1-.117-.05c0-.1.183-.067.217-.15h.133c.033 0 .2.066.233.083l.017-.083c0-.167-.4-.117-.483-.117-.017 0-.034 0-.034-.017 0-.033.05-.083.067-.1h.5v-.016c0-.084.417-.084.517-.117.033.05.1.067.15.067l.15-.067c.15 0 .45.017.45-.033 0-.167-.684-.017-.684-.134 0-.016.067-.016.067-.016.133 0 .817.083.817-.067l-.017-.083h-.633l-.234.016-.133.134c-.083 0-.067-.084-.167-.084 0 .05-.016.084-.066.084s-.067-.05-.067-.084h-.2c-.1 0-.15.084-.267.084l-.1.066-.033-.066c-.05 0-.133.016-.167.066l-.066-.066h-.15c-.017.05-.184.1-.184.033 0-.05.117-.15.167-.183h.333l.117-.117h.417v-.017c0-.05.066-.05.1-.05l.083-.066s-.033 0-.033-.017c0 0 .116-.05.133-.05 0 .083.183.067.233.067l.1-.067c-.05 0-.116-.017-.15-.067-.05 0-.133-.016-.166-.05h-.667c-.017-.116-.233-.05-.3-.15-.617 0-1.3-.266-1.883-.266h-2.7c-.084.116-.567.066-.684.066l-.083.067c0 .15-.55.05-.65.05l-.3.1c.033-.033.467-.75.467-.75 0-.017-.034-.033-.05-.033l-.434.5V5.6c-.033.083-.1.167-.15.233v.017h-.033l-.25.017c.033-.017.267-.267.133-.284.117-.166.217-.366.367-.516l-.2-.05a.577.577 0 0 0-.167.183l.017-.117.083-.1.017-.166c-.267.083-.25.383-.467.333-.166.167-.366.367-.5.567.017 0 .05.016.05.033l-.016.017c-.067 0-.134-.05-.2-.067l.016-.1.234-.283c-.05 0-.05-.034-.017-.067l-.1-.033-.133.066c.05-.1.116-.233.2-.316l-.017-.117c0-.033.033-.067.05-.1v-.067l.233-.35c0-.016.067-.083.034-.1V4.15c.133-.183.216-.367.366-.567v-.066c.017-.017.334-.384.334-.45h-.017a.871.871 0 0 0-.267.1c-.133.116-.25.266-.366.4l.016.083c-.266.317-.516.583-.766.933 0 .084-.05.217-.167.2l-.25.3-.017.167c-.15.05-.316.367-.35.5h-.016c-.084 0-.1.117-.117.183-.033.067-.1.217-.167.25l-.4.017c-.116.083-.633.117-.85.167 0 .1-.316.066-.366.066l-.117.084-.1-.017-.033.017c-.35 0-.667.116-1.017.116l-.133.067h-.034c-.116.067-.416.15-.55.133.017.034-.05.067-.083.034l-.117.016c0 .017-.516.15-.6.15l-.066-.016c-.1 0-.3.166-.384.083-.116.05-.283.05-.383.133-.45-.033-.983.284-1.433.334l.05.033h.1c.183-.117.566.033.666-.067l.1-.016.05.033.117-.033.167.033-.017.033-.067.034-.033.083.1-.067.117.1v.05h.166c.117 0 .467-.066.55-.1l.034-.016.066.033-.016.033h-.084c0 .034-.066.067-.1.05-.05.017-.15.034-.166.1-.05.017-.117.017-.167.017l-.083.033-.067-.033-.067.067-.066-.017c-.017 0 .016.017.016.033-.033.017-.083.017-.133.017l-.083-.033c-.067 0-.134.033-.184.05l.034.083h.083l.083.033c.05-.016.134-.033.167-.083l.033.017c.084-.017.167-.034.25-.067l.05.05-.1.017.034.083.083-.017c.05.017.117.017.167.017l.05.067a.309.309 0 0 0 .116.033l.067-.017c-.067.05-.15.084-.217.117l-.033.067.067.033.116-.033c.167.05.317.05.5.05-.05.05-.133.1-.216.116l.15.1c.05-.05.166-.066.233-.083l.167.033.1-.05c.066.017.166-.016.233-.05l.1.017.167-.083.066.016a.176.176 0 0 1-.033.084l-.167.05c0-.017-.033-.05-.05-.05V8.6l-.083.033-.033.084a.597.597 0 0 1 .183-.067l.017.067.083-.084.25-.05-.067-.166a2.486 2.486 0 0 1-.35.033l.017-.05c.2-.033.417 0 .617-.05l.016.067h-.083a.287.287 0 0 1-.1.1l.133.016c.117 0 .234-.016.35-.033l.05-.1-.1.033c-.016-.016-.033-.05-.066-.05-.034 0-.05.034-.067.067l-.067.033-.016-.05c.116-.116.133-.183.266-.183.134 0 .067-.05.184.083l-.067.017-.05.083.017.084.066-.05a.55.55 0 0 0 .234 0l.066-.067h.034l-.05-.083h.083c.05-.034.1-.067.15-.084l.033.067.084-.05v-.017h.066c.034.05.084.117.134.134.083 0 .166-.034.233-.034l.017.05c-.084 0-.084.134-.084.2-.05.084-.1.167-.133.267a.428.428 0 0 0-.2.35l-.133.083c-.017.05-.034.117-.084.15 0 .05-.016.117-.05.167a.25.25 0 0 1-.066.183c-.017.1-.084.084-.084.217-.05.033-.066.117-.066.167l-.134.15v.166c-.05.067-.083.15-.116.234l-.084.05-.066.116-.067-.016c-.133 0-.25.066-.383.066v.034l-.1-.017-.1.117-.067.033-.083-.067-.134.017-.05.05c-.233.083-.5.067-.75.117l-.033.05h-.183v-.017c0-.05-.017-.067-.05-.067-.05 0-.067.05-.067.084a.309.309 0 0 0-.117-.034c-.05 0-.083.034-.083.067-.067-.017-.183-.017-.183.083-.084 0-.117-.066-.2-.066 0 .133 0 .133-.134.133-.033.05-.1.033-.15.033-.033.1-.15.084-.233.084-.05 0-.05.05-.05.083-.217.1-.467.183-.7.217v.016c0 .067-.017.15-.083.15l-.084.084-.366.066-.25.2.033.067h.467c0-.05.466-.133.516-.133l.017-.067.3.017c0-.034.017-.084.05-.084.083 0 .15.1.233.1.034 0 .034-.033.034-.066.016-.034.066-.084.1-.084s.033.067.033.084l.15-.067c.033-.033.083-.083.133-.083.034 0 .034.05.034.083.033.017.25.117.25.183 0 .017-.017.017-.034.017l-.1.083h-.166l-.05.067-.184-.017-.1.117c-.016.033-.083.283-.116.283-.017 0-.017-.05-.017-.05l-.133-.066.066.133c-.05 0-.133.017-.133.083l.117.134a.437.437 0 0 1 .25.033l.15-.083c.083 0 .083.066.216.083.017 0 .1.05.1.05 0 .017-.033.017-.033.017-.167.1-.417.166-.617.2-.066.116-.15.183-.283.183-.033.05-.117.067-.167.067 0 .05-.083.05-.1.05-.016.05-.083.083-.133.083-.017.05-.167.017-.167.067 0 .016.05.033.067.033l.2.033c0-.1.117-.066.183-.066l.134-.067h.066c0 .117.017.15.134.15l-.034-.167c.234-.1.334-.066.617-.066 0-.05.083-.05.117-.05 0 .1.083.116.166.116.117 0 .217-.033.334-.016l.05-.067.033.067h.333v-.017c0-.067.117-.05.167-.033-.017.083-.117.133-.117.233-.05.05-.066.1-.083.167-.067 0-.05.033-.05.083 0 .067-.15 0-.15.083 0 .067.083.134.083.2 0 .034-.016.034-.05.034l-.1.133c0 .167-.233.483-.333.6h-.033c-.05 0-.1.017-.1.083.033.017.066.067.066.1s-.033.034-.05.034l-.033.166-.25.167c-.017.233-.167.45-.167.683-.166 0-.3.484-.316.617-.05.1-.1.2-.134.3-.05.033-.066.1-.066.15-.05 0-.05.033-.05.083 0 .017-.017.034-.05.034l-.034.15-.033.033-.1.017c0 .05-.083 0-.1 0l-.117.066c-.133-.033-.05.117-.283.117-.1 0-.2.05-.3.033-.067.034-.15.084-.233.067l-.034.033-.016-.033c-.117.05-.234.133-.367.15 0-.017-.033-.067-.05-.067s-.017.05-.017.067l-.116.017-.134.083-.3.033-.066-.05-.284.05c0 .05-.016.034-.066.034-.017 0-.034.033-.034.05-.033.016-.116.083-.1 0-.083.016-.166.05-.25.05l-.033.05-.183-.034c-.034.034-.1.017-.15.017l-.084.117h-.033c-.033 0-.067.016-.067.066-.066.017-.15.067-.216.05l-.067.05-.333.117c0 .05-.067.017-.084.017-.116.05-.25.083-.366.15v.016c0 .067-.15.017-.184 0l-.083.084.183.016c.167 0 .334-.05.5-.116.067.016.167.05.234.05.033 0 .083 0 .1-.034.1 0 .183-.083.283-.066.033-.034.1-.017.133 0l.134-.034c0 .05.067.05.1.05a.5.5 0 0 0 .3-.1l.133.034.25-.067v.017c0 .066.183-.017.2-.034h.333c0-.016.017-.033.034-.033.033 0 .083.033.083.067 0 .033-.083.016-.1.016l-.133.05c-.05-.016-.334.034-.384.067h-.05c0 .033.05.05.067.067h.217c.05-.017.233-.1.216.016l.134-.033c.033-.083.1.017.116-.083l.117.033c-.133.05-.333.15-.483.15-.067.05-.15.083-.234.117h-.033c-.017 0-.067 0-.083.016l-.25.134h-.033a.473.473 0 0 0-.217.066l-.05.084h.117l.066-.034c.15.05 1.15-.216 1.25-.283.217.033.467-.017.667-.1a.127.127 0 0 1 .083-.033l.084.033c0 .017-.15.033-.184.033-.017.117-.183.034-.2.15l-.283.084h-.033c-.084 0-.067.066-.234.066-.05 0-.05.05-.066.084l-.134.033h-.017c-.083 0-.133.083-.233.067l-.1.066-.183-.016c-.017.066-.083 0-.1.083l-.083.083h-.15c0 .1.016.084.116.1l.1-.033.234.033c0-.016.016-.05.033-.05s.033.034.05.05l.25.067.083-.083.117-.05.233.05c.017-.05.083-.05.133-.034.034.05.034.134.034.184.05 0 .1.033.083.1l.117.1.05-.067.316.067.084-.034-.117.167.017.033c0 .05-.084.034-.017.1 0 .05-.033.15-.1.084l-.05.1c0 .05-.033.1-.067.133l.034.05-.15.133c0 .05-.05.084-.084.117v.117c-.066.066-.033.083 0 .15-.05.1-.216.516-.216.583-.067.1-.167.367-.184.483.017 0 .034.017.034.034l-.117.116v.134l.15-.134c.067-.133.133-.35.233-.466.05-.067.217-.167.217-.267.033-.033.233-.45.25-.483.033-.017.1-.067.15-.034l.067-.116v-.034c0-.033.033-.066.05-.083l-.017-.083.1-.084c.117-.233.3-.433.45-.65.033-.016.083-.05.117-.05 0 0 .016 0 .016.017s-.05.05-.066.067l-.05.1c-.034.033-.084.083-.067.133-.083.067-.167.15-.167.267h.017c.083 0 .167-.084.233-.134 0-.033.05-.316.134-.216l.066-.117-.016-.033c0-.05.083-.034.033-.1l.117-.084c-.034.134-.134.4-.234.484l.017.066-.067.2c-.033.017-.083.084-.05.117a1.73 1.73 0 0 1-.183.517l.033.066.1-.05.017-.1c.067-.066.1-.15.117-.233.183-.2.4-.667.466-.917l.2-.25.034-.133.116-.017.017.1-.133.267a.152.152 0 0 0-.067.133c0 .167-.183.05-.017.25l-.2.334.017.133-.15.133.017.034c0 .033-.084.033-.034.083l.034.133-.117.117c.017.017.033.033.067.033.033 0 .066-.05.1-.066l.033-.084.183-.166-.016-.034c0-.033.066-.016.083-.016l.2-.167-.033-.133a.125.125 0 0 0 .083-.117c.317-.283.367-.533.767-.783l-.017-.05.2-.2h.067l-.017.066s.033-.016.05-.016c0 0 .017 0 .017.016zm4.616-1.833.117.083h.033c.05 0 .067.05.067.1h.233v-.016c0-.05.017-.117.084-.117.15 0 .3.083.466.083.017 0 .084.034.084.05s-.034.017-.034.017h-.233a2.177 2.177 0 0 1-.35.133s-.417.117-.45.117c-.067.05-.133.05-.2.05-.133 0-.4.083-.55.117-.017-.017-.067-.05-.067-.084 0-.05.084-.033.1-.033l.184-.133.166.016c.067 0 .117-.1.117-.15h-.233V18.5c0-.117.333-.133.466-.2zM66.81 8.05l.116-.017.117.067c-.05-.017-.1.017-.1.067h-.45c-.05.116-.35.033-.35.1 0 .083.183.016.183.083 0 .033-.05.033-.066.033h-.467c-.15 0-.267-.066-.417-.066-.016 0-.066 0-.066-.034 0-.116.433.017.433-.116.433 0 .4-.117.767-.117.183 0 .066-.217.266-.167 0-.016 0-.033.017-.033.033 0 .067.05.083.067zm-6.184 10.4c.067.017.3.067.3.083 0 .034-.216.117-.233.117-.133 0-.233.067-.35.067-.033.05-.1.066-.15.05l-.333.066-.05-.133c.2 0 .366-.117.583-.1l.067-.083.066.016c.05 0 .1-.016.1-.083zm9.7-1.033c0 .133-.566.05-.666.05l-.117.05h-.267l-.033-.067h-.017c-.05 0-.083.033-.083.1.033.017.217.183.217.067l.066.05c.15 0 .334-.05.517-.05.117-.15.367-.067.517-.067.017 0 .05 0 .05-.017 0-.066-.134-.116-.184-.116zm-2.2-10.4h.5c.034.033.084.083.15.083.034 0 .05-.05.05-.083.034 0 .167 0 .167.05-.233.216-.267.083-.467.083-.083 0-.15.05-.233.05-.033.033-.083.067-.133.067-.034 0-.05-.017-.05-.05l-.067-.1h.017c.05 0 .066-.067.066-.1zm-3.383 10.85h.2c.017.016.033.05.033.066 0 .034-.016.05-.05.05l-.033.05h-.133l-.067.067h-.1c-.05 0-.133-.017-.167-.067l-.183-.016c0-.15.367-.15.5-.15zm-9.15-4.134c-.033.034-.067.084-.067.134 0 .066.4.05.467.05l-.017-.167zm9.833 2.65c.15.067.367.117.534.084v.033c0 .05-.017.083-.067.083h-.233c-.084 0-.167-.066-.317-.066.017-.067.083-.067.083-.134zm3.117 1.2c0 .1-.367.067-.367.1v.017c.084.033.2.067.3.067.017 0 .067 0 .067-.034 0-.1.383-.016.383-.133zM63.41 12.95l.1-.033.416.016-.45.117-.05.067h-.116l-.034-.1.067-.034h.067zm-4.067 6 .3.083c-.017 0-.25.05-.25.1 0 .017.033.017.033.017l.167.033-.233.034c-.034-.034-.134-.084-.134-.134 0-.016.034-.016.034-.016zm4.3-12.183c.017 0 .017 0 .017.016 0 .034-.05.134-.067.184-.033.016-.067.083-.117.066L63.325 7c.067-.083.184-.233.317-.233zm.1 11.333c.033.017.25.067.25.1-.033.017-.1.017-.15.017-.083 0-.15.05-.217.05h-.05l.034-.084h.05c.05 0 .083-.033.083-.083zm.85-9.65-.05.133h-.117c-.083 0-.083-.066-.083-.133zm-2.967 10.1c0 .017 0 .117.017.117.067 0 .233-.05.233-.117zm-2.133-2.65c.067 0 .083-.05.067-.1.016-.017.066-.033.066-.067 0-.016-.05-.016-.066-.016-.05 0-.117 0-.117.066zm.9-2.067.233-.016c0 .066-.05.083-.05.15h-.05c0-.067-.033-.067-.083-.067-.033 0-.05-.033-.05-.067zm-2.383 5.534h.133c.017 0 .05 0 .05.016 0 .05-.183.1-.2.1-.017 0-.05 0-.05-.033s.05-.067.067-.083zm5.1-14.4h.083c.083 0 .117-.067.167-.117l-.05-.05c-.067.05-.15.1-.2.167zm4.883 11.25c0 .05-.05.1-.05.116 0 .017.1.017.1.017.017 0 .083 0 .083-.05s-.083-.083-.133-.083zm.533-8.1c0 .05.05.066.084.066l.166-.016c0-.067-.083-.067-.133-.067zm-3.516 8.466.133-.016v.133h-.067c-.083 0-.066-.05-.066-.117zm4.366-9.566.117.016c0 .084-.067.017-.067.117l-.133-.017c0-.083.067-.033.083-.116zm-8.35 11.333.134-.017-.017.134c-.05 0-.117.016-.117-.05zm-2.15-1.617-.116.117s0 .05-.017.05-.033-.033-.05-.05c0-.05.017-.117.083-.117zm1.384-2.766.133-.017-.017.133c-.05 0-.116.017-.116-.066zm-.267.116h.133v.117c-.116 0-.133 0-.133-.117zm7.533-6.8c0-.033.05-.033.067-.033.033 0 .2.033.2.067 0 .016-.067.016-.067.016-.066 0-.133-.033-.2-.05zm-1.583 9.567-.05.117-.183-.117zm7.417-9.333.033.133.117-.067-.034-.066zm-14.284.766c-.033.034-.066.067-.116.067a.127.127 0 0 1-.084-.033c.034-.017.117-.05.134-.084zm.034 7.234c.016 0 .15.05.15.066s-.084.017-.084.017 0 .067-.016.067c-.034 0-.05-.117-.05-.15zm-1.05 1.65.066.033-.016.15-.067-.017zm-.617-9.117.1.017.033-.017c0 .017-.016.033-.033.05-.067.033-.15.017-.233.017zM68.96 6.517h.183c-.033.033-.1.083-.15.083-.017 0-.033-.033-.033-.05zm-4.034 1.816h.2c0 .05-.066.067-.1.067zm-6.4 8.35c0 .017 0 .034-.016.034-.05 0-.084-.084-.1-.117l.066-.017zm10.234.517.183.017c0 .033-.05.05-.067.05-.05 0-.116-.017-.116-.067zm-11.5-9.1-.034.067-.066-.034a.126.126 0 0 1-.034-.066l.034.033c.05-.033.116-.033.15.017-.017 0-.034-.017-.05-.017zm9.333 8.65h.167c0 .05-.05.067-.084.067zm-9.767-8.1c-.066.05-.133.033-.2.067.017.016.05.033.067.033.05 0 .1-.067.133-.1zm8.7 8.183h.017c.05 0 .1.034.1.084h-.033c-.05 0-.084-.034-.084-.084zm-1.416 1.05a.19.19 0 0 1 .05.134c-.034 0-.067-.017-.067-.05zm-9.95 2a.126.126 0 0 1-.067.034c-.033 0-.033-.034-.033-.05s.016-.034.033-.034.05.034.067.05zm2.25.5c0 .017 0 .084-.034.084-.016 0-.05-.05-.05-.067s.017-.017.034-.017zm14.166-13.8.2.017c-.033.017-.2.05-.2-.017zm-4.666 5.834.133.033c-.017.017-.05.033-.083.033s-.05-.033-.05-.066zm-8.384-3.934c.034-.016.067-.05.117-.05.017 0 .017 0 .033.017-.05.033-.083.033-.133.05zm11.55-1.466.05.133c-.033 0-.066 0-.066-.033zm-2.9 5.566c.017-.066.134-.016.167-.016l-.017.016zm-1.633 3.25.05-.016c.017 0 .017.016.017.016 0 .017 0 .067-.017.067-.033 0-.05-.033-.05-.067zm6.35-9.25.167.017c-.034.017-.167.05-.167-.017zm-9.117-.533c.017-.033.05-.083.1-.083 0 .05-.033.083-.083.083zm1.65 12.233c.017 0 .017-.016.034-.016.016 0 .033.016.033.033s-.017.05-.033.05c-.034 0-.034-.05-.034-.067zm-3.5.684.117.016c0 .034-.033.05-.05.05zm-3.183-5.55c.05 0 .117-.017.133-.067h.067c-.083.033-.183.1-.283.1zm7.083 3.466h.017c.033 0 .05 0 .05.034 0 .016 0 .033-.017.033-.033 0-.05-.033-.05-.067zm4.55.384.117.016a.127.127 0 0 1-.083.034c-.017 0-.034-.034-.034-.05zm1-10.55.134.016c-.034.017-.134.05-.134-.016zm-9.2 12.25c.034 0 .067.033.067.066-.067 0-.067 0-.067-.066zm-6.633 1.016c-.017-.016-.117-.066-.033-.05l.016-.066c.017 0 .017.083.017.116zm3.983-11.5a.142.142 0 0 0-.116 0l.066-.066zM68.86 6.5c.016 0 .016.033.016.05v.033c-.016 0-.05 0-.05-.016s.017-.067.034-.067zm-5.95-.983c0-.034.016-.067.05-.067h.016c0 .033-.016.067-.05.067zm-3.134 13.666.067.017c0 .017-.017.05-.033.05-.034 0-.034-.033-.034-.05zm5.4-10.933.067.017c0 .016 0 .05-.033.05-.017-.017-.034-.034-.034-.067zm5.267-1.667.067.017c0 .017 0 .05-.034.05-.016 0-.033-.05-.033-.067zm-5.25 10.334.067.016c0 .017 0 .05-.034.05-.016 0-.033-.05-.033-.066zm-9.117 4.016-.066.017c-.034 0 .016-.033.016-.033-.016-.017-.033-.034-.033-.05.017 0 .067.05.083.066zm7.6-3.85c.034 0 .067.017.067.05h-.05c-.017 0-.017 0-.017-.016zM62.342 5.917l.117-.1c-.017.033-.05.1-.1.1zM58.792 16.3l.05.017c0 .016 0 .05-.017.05-.033 0-.033-.05-.033-.067zm-3.117-3.517c.034 0 .067.017.067.05h-.033c-.033 0-.033-.033-.033-.05zm.267 7.25c.017-.016.033-.05.017-.066h.05l-.017.016.017.034zm2.983-4.183.05.017c0 .016-.016.05-.033.05-.017-.017-.017-.05-.017-.067zm3.867 2.467c.017 0 .05 0 .05.033v.017h-.033c-.017 0-.017 0-.017-.017zm3.317-5.6c-.017.016-.034.033-.067.033-.017 0-.017-.017-.017-.033zm-10.25.3a.126.126 0 0 1 .066-.034l.034.017zm-1.25 6.25c-.017-.017-.05-.067 0-.067zm4.5-10.95c-.034.016-.067.05-.1.05l.066-.05zm-2.9 5.216h.15l-.15.017zm1.3-5.95-.017.017h-.083c.033-.017.066-.017.1-.017zm-.25 12.317-.017-.017-.05.067zm-1.7-6.833.016-.017.084.017zm1.75-4.617.016.033h-.033c0-.016.017-.033.017-.033zm-2.25 9.4h.083c-.033-.017-.05-.017-.083 0zm1.683-9.733v.05s-.017-.017-.017-.034zm-.317-.017v.05l-.016-.033c0-.017.016-.017.016-.017zm-.616-.583v.033h-.017c0-.017 0-.033.017-.033zm.066 0c0 .016.017.033 0 .05 0-.017-.016-.034 0-.05zm10.567 5c0-.017 0-.017.017-.017 0 .017 0 .017-.017.017zm-11.35 6.6c.017 0 .017 0 .017.016zm-.05-1.25.017-.017c-.017 0-.017 0-.017.017zm-.95 3.266c-.017.017-.033.034-.05.034zM57.16 20l-.033.067c0-.017.016-.034.033-.067z"/>
            <path d="M84.175 7.133c.1-.1.184-.366.267-.483.083 0 .117-.283.117-.35.033-.083.1-.217.2-.233l.1-.317c.016-.033.05-.067.05-.117 0-.016-.017-.033-.05-.033-.017-.05-.017-.117.05-.117 0-.016-.017-.05-.034-.05-.116 0-.283.234-.266.35a.46.46 0 0 0-.217.184l-.2-.084.067-.066-.017-.134c.05-.1.1-.183.167-.266 0-.034 0-.1.05-.117.166-.133.25-.35.333-.55.05-.033.183-.117.183-.167 0-.033-.066-.033-.083-.033h-.033a.916.916 0 0 0-.217.283c-.017.084-.067.267-.167.267l-.066.1c0 .05-.017.1-.067.117-.117.2-.283.35-.383.566l-.017.234-.183.216h-.017c-.083 0-.233.017-.233-.066 0-.034.05-.05.066-.067.1-.117.167-.333.2-.467l.117-.083V5.6c0-.067.033-.067.083-.067.067-.116.2-.233.2-.366 0-.034-.05-.034-.066-.034L84.025 5l.1-.1v-.083c.034-.017.084-.05.084-.1 0-.034-.034-.034-.067-.034-.067 0-.133.017-.2.034 0 .1-.017.2-.017.3 0 .083-.166.066-.166.2 0 0 0 .05-.017.05s-.067-.117-.067-.134c-.066-.066-.133-.116-.15-.216.067-.017.1-.067.084-.134.016-.05.066-.116.116-.116 0-.05.017-.134.05-.167l.034-.183h.05c.05 0 .166-.3.166-.384 0-.083.067-.1.05-.2l.117-.1.05-.133-.067-.133-.233.2c.067-.25.25-.434.267-.717l.266-.417-.116-.116-.1.116c.083-.116.133-.266.2-.4l.133-.116c0-.067.05-.084.05-.15l.15-.267.117-.1.033-.15c-.117 0-.117.25-.233.25-.067.2-.4.483-.534.7.017.017.05.017.05.05 0 .017-.016.017-.033.017l-.083-.05v.05c-.034 0-.067.016-.067.05s.033.083.067.1l-.1.083a.036.036 0 0 0-.034-.033c-.033 0-.05.083-.066.1l-.117.1-.05.133c-.033.033-.55.733-.6.733l-.183.25c0 .067-.067.117-.134.117l.017.083c0 .05-.067.034-.1.034-.067.283-.4.6-.4.833l-.1.133c-.067 0-.117.05-.1.117l-.083.167c-.184.083-.234.3-.284.466a.268.268 0 0 0-.083.184c-.133.133-.167.266-.283.4 0 .05-.017.116-.067.133l.017.05-.084.117c-.066 0-.066.05-.066.083s-.017.05-.05.05l-.084.183a.673.673 0 0 0-.216.217c0 .067-.017.15-.067.183 0 .134-.133.184-.117.334-.116.016-.2.233-.2.333h-.016c-.15 0-.067.183-.167.233a.309.309 0 0 1 .033.117c0 .033-.033.05-.066.05-.134.067-.217.25-.334.35v.017c0 .133-.116.233-.1.366-.116 0-.166.234-.183.317-.117 0-.117.017-.117.133-.066.017-.1.067-.083.134l-.133.333-.15.083c0 .05-.017.117-.067.15v.05c0 .1-.05.15-.033.267l-.267.233v.017c0 .15-.133.167-.117.317l-.1.183c0 .05-.016.1-.066.117l-.05.1-.067.05v.266c-.15.017-.133.15-.15.267-.067.083-.15.2-.15.317l-.067.066.034.134c-.034.016-.1.066-.15.066-.1 0-.084-.283-.084-.35 0-.216-.266-1.1-.066-1.2 0-.266-.034-.533-.084-.783-.05 0-.1 0-.1-.067 0-.516.034-1.116.034-1.666l.066-.117v-.217c-.083-.05-.083-.15-.083-.233 0-.117-.133-.05-.2-.033v-.084c0-.033 0-.133.067-.133l-.017-.267.083.017c.034 0 .034-.067.034-.083 0-.084.033-.567-.1-.6l-.15-.117c-.084-.133-.1-.217-.267-.217-.05-.05-.05-.133-.05-.183h-.017c-.066 0-.116-.017-.116-.083l-.367-.134c0-.033-.017-.1-.067-.116 0-.1-.05-.084-.133-.084 0-.033-.017-.083-.05-.083-.1 0-.217.117-.283.183l-.134.05c-.016.034-.05.067-.083.067-.067 0 .033-.117-.133-.117-.084 0-.067-.216-.067-.266h-.017c-.066 0 .017-.134.034-.15l-.1-.134-.1.317c-.184 0-.1.133-.217.2a.543.543 0 0 0-.217-.067c-.05 0-.083.017-.083.067a.45.45 0 0 1-.117.133l.017.167-.267.183v.034c0 .1-.1.016-.133-.017v.05c0 .067-.033.067-.1.067-.033-.034-.117-.05-.167-.05v.033c0 .05-.016.1-.05.133l-.083-.133c.05-.017.067-.083.067-.133l-.134-.067-.066.05v.217c0 .066-.067.05-.1.05v.15c-.084.016-.267.066-.267.166-.1.134-.233.317-.233.484l-.05.116c0 .117-.184.134-.184.267 0 .067-.066.067-.066.133a.507.507 0 0 1-.134.134l-.166.283a.755.755 0 0 1-.05.267l-.084.05-.05.133c-.05 0-.05.033-.05.067 0 .033-.033.05-.066.05 0 .166.016.1-.134.15l.034.233c-.117.017-.184.167-.184.267-.366.45-.55 1.016-.95 1.483v.167c-.066 0-.05.033-.05.083 0 .033-.033.05-.066.05-.034.15-.15.283-.234.417 0 .1-.066.1-.066.2 0 .033-.034.016-.067.016-.067 0-.05.067-.05.117s-.083.067-.117.067l-.033.166c-.183 0-.083.267-.217.267 0 .133-.133.217-.116.35l-.167.283c0 .134-.15.2-.133.35-.034.05-.034.117-.034.184h-.033c-.05 0-.1.016-.1.066-.05 0-.067.034-.067.084 0 .033-.016.05-.05.05l-.383.833c-.1 0 0 .317-.133.317l-.15.35c-.15.15-.034.3-.034.466l-.033.034h-.083c0 .05-.017.116-.017.166l-.117.067-.016.133c-.167 0-.084.25-.2.25 0 .117-.117.2-.1.317l-.15.25c0 .133-.134.183-.117.317-.033.033-.033.1-.033.15l-.117.066c-.117 0-.033.117-.117.117-.1.217-.216.433-.283.667v.016l-.05.067c-.1 0 0 .283-.117.283l-.133.317c-.15.117-.033.267-.033.417 0 .05-.084.033-.117.033v.15l-.067.15c-.05 0-.05.067-.05.1-.066.083-.15.2-.15.317-.15.266-.283.566-.433.833 0 .067-.05.133-.117.133v.034c0 .033 0 .083-.033.1l-.167.35c0 .1-.016.05-.083.05l-.033.016.016.217c0 .233-.133.433-.133.667 0 .05-.05.05-.083.05l-.034.133c-.066 0-.05.183-.05.217-.1.1-.166.383-.2.516-.083.05-.066.15-.066.234l-.017.283c-.1.017-.133.217-.133.3-.067.117-.184.317-.184.45.017.067-.05.083-.05.15.034-.05.184-.35.234-.35l.016.017-.066.1.016.066c.05-.083.067-.183.084-.266l.133-.084v-.033c0-.05.033-.067.083-.067v-.033c0-.067.317-.617.35-.683l.084.116c.166-.016.216-.166.216-.333.117-.1.2-.3.25-.45l-.066.317-.117.183c0 .017 0 .05.017.05.1 0 .333-.517.366-.6.084 0 .134-.217.15-.283.017.016.05.05.084.05.05 0 .05-.034.05-.067l.1-.083c0-.05.016-.117.066-.134l.084.017c.15 0 .066-.217.183-.217l.017-.1-.017-.016c.067-.184.067-.217.283-.25 0-.05.05-.084.05-.117s-.083-.017-.1-.017l.15-.216v-.034c0-.05.034-.116.1-.1.034-.066.067-.183.15-.183.034 0 .034.033.034.05.016 0 .066.017.066.033 0 .017-.033.017-.066.017v.017c0 .133-.217.4-.217.533-.1 0 0 .083-.117.1l.084.117c-.034.033-.05.116-.05.166-.05.017-.067.05-.117.067-.05.133-.1.233-.1.383-.117.017-.083.05-.083.134a.036.036 0 0 1-.034.033.5.5 0 0 0-.1.3l-.266.55c0 .033.016.083.05.083.166 0 .133-.4.316-.4v-.25h.034c.066 0 .1-.033.1-.083l.166-.233c0-.117.117-.15.117-.267a.438.438 0 0 0 .15-.233.19.19 0 0 0 .05-.134l.117-.083.066-.15c.084 0 .034-.033.034-.083 0-.017.033-.017.05-.017 0-.1.15-.383.216-.383.017-.1.05-.2.1-.284.05.017.067.084.067.134l.067.083c0 .033-.017.083-.05.05l-.084.133c-.083.05-.016.2-.083.267 0 .017 0 .083.033.083.117 0 .35-.6.367-.616v-.034c0-.05.033-.066.083-.066v-.034c0-.05.017-.116.05-.15 0-.133.1-.216.1-.35l.117.084c-.033.05-.083.133-.083.2 0 .033.016.05.05.05l-.034.183.1.083-.033.15c-.067 0-.067.034-.067.084 0 .033-.016.033-.05.033l-.066.117v.033c0 .15-.15.25-.15.417l-.05.05v.116l.1-.05a1.38 1.38 0 0 0 .183-.25c0-.1.05-.2.033-.3l.117-.083c0-.05.017-.133.067-.167l.133-.016.017-.267c0-.033.033-.083.066-.083l.05-.217c.084-.033.15 0 .15-.1 0-.033.034-.033.05-.033l.117-.267v-.017c0-.1.1-.15.1-.25l.333-.683c.067-.05.1-.133.1-.217 0-.066.084-.283.167-.283v-.033c0-.067.05-.1.117-.1v-.017c0-.067.05-.083.05-.15.05-.133.1-.25.183-.367-.033.15-.167.3-.167.45l-.05.067v.117l.117-.05.2-.284c0-.116.05-.216.033-.333l.134-.083c0-.067.016-.15.066-.184l.15-.033.017-.317c0-.066.033-.066.083-.066l.05-.234.117-.05c.067 0 .067-.033.067-.083 0-.033.016-.033.05-.033l.116-.284v-.016c0-.117.117-.167.117-.284l.367-.766c0-.1.116-.1.116-.25 0-.084.084-.317.184-.317v-.033c0-.067.066-.117.133-.1v-.034c0-.1.517-1.05.6-1.166.083 0 .067-.067.067-.117s0-.15.066-.183l.084-.15c.066 0 .15-.05.133-.134.133-.266.283-.416.383-.733.084-.017.15.017.15-.1a.77.77 0 0 1 .15-.25v-.167c.184-.283.35-.583.534-.85-.017.534.05 1.1.05 1.65 0 .034.016.134.083.117.033.133.033 1.25.033 1.483-.016-.35.034-.833-.183-1.116-.083 0-.083.2-.083.25 0 .266.166 1.783.25 1.816h-.017c-.033 0-.05.05-.05.084l.05.85c.017.166.183.2.183.3 0 .033-.05.033-.066.033-.034.017-.05.083-.05.117 0 .083.033.216.133.216.167 0 .083.2.067.3l.1.4c.116 0 .1.067.033.117.017.133.083.133.083.333h.05c.017.1 0 .45.1.534v.133l.084.033c.016.034.033.05.066.05.134 0-.05-.183.2-.216l.117-.067.15.067c0 .116.067.133.1.233l.15.067.1.1c.033.016.217.066.083.083l-.016.2.233-.033.033-.117h.117l.133.05c.034-.033.067-.067.117-.067.033 0 .033.034.033.05-.016.017-.066.034-.066.05 0 .034.05.034.066.034 0 .066.1.066.15.066.167 0 .35-.1.5-.183 0-.067.067-.133.067-.2 0-.05-.05-.05-.083-.05h-.034l-.116.15c-.05-.017-.15-.017-.15.067l-.2-.067.116-.067c.084 0 .15-.066.2-.116l.3-.034h.034c.1 0 .033.067 0 .1v.4l.133-.05.1-.15c.167 0 .1-.1.1-.25 0-.066.1-.2.1-.266l.067-.134c0-.066.066-.066.066-.15l.067-.116c.05 0 .033-.034.033-.067 0-.1.15-.033.15-.117 0-.033-.016-.066-.033-.1l-.067-.016c0-.034.017-.117.067-.084.067-.133.167-.35.183-.5v-.033c0-.05.084-.05.117-.033l.017-.234c.1-.133.283-.283.283-.45 0-.05.083-.083.133-.083l.05-.167.084-.083a.62.62 0 0 1 .116-.333l-.016-.05c0-.05.05-.067.1-.067 0-.117.033-.317.183-.333 0-.15.133-.234.133-.384.067-.033.084-.083-.016-.083.083-.183.216-.467.383-.583l.017-.134-.25.017.05-.2c.033-.133.15.017.15-.15.05-.05.066-.117.05-.167l.066-.15.05.017c0 .033.017.05.05.05.05 0 .15-.083.2-.133v-.2h.084c.033 0 .05 0 .05-.05 0-.167-.167-.217-.167-.284 0-.033.033-.033.05-.033.033.033.083.067.117.067.05 0 .05-.05.05-.084.083 0 .05-.05.05-.1 0-.016.016-.033.05-.033l.116-.35.134-.133c0-.05.016-.117.066-.15 0-.084-.05-.084-.116-.084-.067 0-.05-.083-.05-.133 0-.033 0-.117.066-.117 0-.133.15-.2.134-.333.066-.133.15-.3.266-.4v-.017c0-.083.067-.116.15-.116a.248.248 0 0 0-.066.15c0 .033.016.05.05.05.05 0 .133-.017.15-.067.05-.017.083-.067.066-.117.034-.033.084-.05.084-.1s-.05-.1-.084-.116c0-.017 0-.05-.033-.05-.05 0-.083.15-.083.183-.017 0-.084 0-.084-.033 0-.05.05-.1.084-.134V11.1c0-.05.016-.033.05-.033s.05-.017.066-.034c-.016-.033-.05-.083-.05-.133 0-.033.017-.05.05-.067.2-.2.284-.566.467-.716 0-.167.167-.234.167-.4 0-.067.066-.134.116-.167l.084.017-.067.05c0 .166-.183.233-.183.4-.034.033-.05.1-.05.15l-.084.15c-.116 0-.166.266-.166.35l.083.016c.033 0 .067-.016.067-.05.05 0 .066-.033.066-.083 0-.033.017-.05.05-.05 0-.083 0-.267.1-.283 0-.1.084-.25.2-.25v-.05c0-.084.05-.334.134-.334l.166-.266c-.016-.067.05-.134.05-.2 0-.05-.083-.05-.133-.05.05-.134.133-.267.183-.4.034-.017.05-.1.067-.134a.13.13 0 0 1 .067-.066c.05-.117.083-.25.116-.384l.134-.066v-.034c0-.066.017-.133.083-.166.017-.134.117-.284.2-.384-.017-.066.033-.116.033-.183 0-.05-.05-.05-.1-.05.017-.017.034-.067 0-.067zm-14.433 12.45h.05l.05.034a.361.361 0 0 0-.083.233c-.067 0-.067.033-.067.083a.036.036 0 0 1-.033.034l.033.15-.067.133v.033c0 .05-.016.084-.066.084v.116l-.117.017c0 .067-.083.083-.133.083l-.05.084h-.017c-.033 0-.067 0-.067-.034 0-.083.084-.15.134-.2 0-.083-.017-.266.1-.283.083-.133.166-.3.2-.45l.05-.067c.033 0 .083-.016.083-.05zm8.983-1.966v-.05c0-.1.034-.2.134-.217.033-.067.2-.533.333-.533 0-.1.067-.184.067-.284l.166-.233c.084 0 .134-.067.217-.083v.166c-.083.034-.05.167-.067.234h-.016c-.067 0-.05-.15-.034-.184-.133 0 0 .134-.15.134v.083c-.066.05-.15.233-.2.3v.033c0 .067-.05.1-.116.1l-.117.167-.017.417-.2-.034c0 .017 0 .05-.016.05-.034 0-.05-.016-.05-.05 0-.016.05-.016.066-.016zm-4.566-5.984.116.05-.1.134c0 .083-.033.266-.133.266 0 .067-.067.1-.067.167l-.133.117c0 .133-.117.166-.1.316l-.067.017c-.05 0-.083-.033-.1-.083l.084-.134c0-.1.116-.216.183-.283v-.017c0-.116.133-.133.1-.283zm4.316 6.25h.117c0 .017-.083.3-.1.334h-.017c-.05 0-.066.033-.066.083.016.017.033.05.033.083 0 .017-.067.017-.083.017v-.033c-.017-.067-.084.05-.1.05-.034 0-.034-.05-.034-.067 0-.1.117-.633.167-.617v-.05c0-.066.083-.066.133-.066.017.1-.05.166-.05.266zm-5.25-4.733c0-.017.017-.017.034-.017.033 0 .05.034.066.067.017 0 .05 0 .05.017 0 .05-.033.083-.066.1 0 .116-.117.133-.1.266l-.484.484V13.9c.117-.117.467-.517.467-.667.033 0 .067-.066.033-.083zm-1.4 2.733.067.017-.05.15c-.117.05-.1.117-.1.233h-.017l-.066.15-.117.1c0 .134-.1.15-.083.284l-.067.016c-.05 0-.083-.033-.083-.083 0-.033.233-.35.233-.367v-.016c0-.117.117-.117.083-.25zm8.034-.3c.05 0 .15.017.15.084 0 .05-.217-.017-.134.233-.066 0-.083.083-.066.133L79.692 16c-.017-.15-.133-.033-.15-.15l.2-.167v-.133l.167-.217c.016.1-.05.117-.05.2zm.4-1.116c.133 0 .083-.2.183-.2v-.017c0-.017 0-.05.017-.05.033 0 .066.05.066.083s-.05.05-.083.05v.05c0 .05-.017.084-.067.084-.066.083-.116.183-.166.283v.05c0 .1-.117.133-.2.133-.017 0-.05 0-.05-.033s.083-.1.116-.117v-.05c0-.166.184-.433.184-.266zm.7-1.517.033-.017c.017 0 .017.05.017.05 0 .067-.017.134-.034.2-.05 0-.05.067-.05.1v.1c-.033.084-.066.167-.133.217l-.067.2c-.033 0-.033-.033-.033-.05 0-.25.2-.567.267-.8zm-13.817 8.383c0-.016-.017-.083.017-.083.016 0 .033.05.033.067l-.117.183c0 .05-.033.067-.033.117-.033.05-.233.383-.117.433 0 .017 0 .05-.016.05-.034 0-.067-.067-.084-.083l-.083.033c.017-.017.017-.083.017-.1.066-.133.15-.267.2-.4h.033c.067 0 .05-.067.05-.117.05 0 .05-.033.05-.066 0-.034.017-.034.05-.034zm8.333-4.116.117.066c0 .134.033.25.033.384 0 .033 0 .116-.066.116-.034-.183-.084-.366-.084-.566zm6.017-4.084c.117-.016.067-.2.2-.216 0-.134.133-.15.133-.267l-.033-.017c-.133 0-.267.4-.3.5zm-4.233 5.85.1-.133.083.017.033.016h-.033c0 .05-.067.084-.117.1-.033.034-.166.167-.233.167a.125.125 0 0 1-.083-.117c0-.116.066-.016.083.017.05-.05.1-.067.167-.067zm-6.317-1.6.1.067c-.05.05-.083.117-.067.183-.066.084-.133.167-.216.25l.05-.1c0-.066.1-.35.133-.4zm-3.733 4.95.083.117-.05.033c.017.134-.067.184-.067.284 0 .016 0 .05.017.05.033 0 .117-.15.133-.184l.05-.016-.033-.167h-.05v-.017c0-.05-.05-.083-.083-.1zm14.15-9.516c0-.034.033-.25.083-.25.017 0 .033.05.033.066 0 .117-.1.217-.166.3-.017.034-.067.2-.1.2s-.034-.066-.034-.083zM82.492 8.3c0-.067.05-.117.117-.117l.066.084.017.05h-.017c-.066 0-.05.15-.116.15-.034 0-.067-.134-.067-.167zm1.45-4.733v.166l-.033.05c-.067 0-.1.05-.084.117-.033 0-.083 0-.083-.05s.167-.233.2-.283zm-1.783 8.25c.033-.034.116-.134.116-.167 0-.017 0-.017-.016-.017h-.017a.35.35 0 0 1-.183.067v.183l.1-.016a.125.125 0 0 1-.084-.117zm-15.517 10.35c.017-.017.017-.017.033-.017.017 0 .017.033.017.05 0 .1-.05.217-.133.283-.017 0-.05 0-.05-.033s.066-.083.1-.117zM83.46 6.383h.033c0 .05-.05.084-.05.1s.083.017.083.017v.017h-.016c-.1 0-.1.133-.117.133s-.05-.05-.05-.067c.017-.033.017-.1.017-.133zm-6.067 4.334.05.416c0 .017-.017.084-.05.084-.017 0-.017-.017-.017-.034-.016-.133.017-.333.017-.466zm6.967-7.584a.237.237 0 0 0-.034.1c0 .05.067.067.1.067 0-.05.05-.1.05-.15 0-.017-.1-.017-.116-.017zm-7.067 15.284.167-.017c-.05.033-.067.1-.067.15l-.15.017c.05-.034.067-.1.05-.15zm.55.083c.033.017.133.067.133.1 0 .017-.033.017-.05.017h-.216l.05-.05c.033 0 .1-.017.083-.067zm3.067-4.05.133-.2c-.017-.017-.033-.033-.067-.033-.05 0-.066.183-.066.233zm3.35-9.683c-.017.016-.05.033-.05.066 0 .034.066.034.083.034.033 0 .083-.017.083-.05 0-.05-.066-.05-.1-.05zm-2.234 7.116c-.033 0-.066.017-.066.05 0 .05.033.084.083.084.033 0 .05 0 .05-.034s-.05-.083-.067-.1zM83.91 2.7s0-.05.016-.05.017.067.017.083c0 .034-.017.067-.05.067l-.1.067c0-.084.05-.034.05-.134zm-.217 1.383.067-.1c0 .134-.1.217-.184.3l.05-.1c-.016-.05.034-.083.067-.1zM84.36 6.5c0-.017-.017-.133.016-.133.034 0 .05.083.05.1l-.066.1c-.017-.017-.05-.034-.05-.05s.033-.017.05-.017zm-1.167 2.717.083.033.017.133-.083-.033zM67.175 21.033l.134.017-.067.1c0 .017.017.033 0 .033s-.067-.133-.067-.15zm8.35-15.716v.1c0 .066.034.083.1.083zm1.667 13.416c.017 0 .15.017.15.034 0 0-.067.016-.083.016 0 0 0 .05-.017.05s-.05-.083-.05-.1zM83.61 8.3c0-.017-.017-.133.016-.133.017 0 .034.066.034.083l-.05.083-.05.017zm-14 12.3c.016.017.066.05.066.083s-.05.034-.083.034zm10.733-5.867c.017-.016.05-.016.067-.016s.05.016.05.033a.126.126 0 0 1-.067.033c-.033 0-.05-.033-.05-.05zm-2.467 3.45.084.117h-.034c-.033 0-.05-.017-.05-.05zm-.35-6.433c.017 0 .017-.017.034-.017.016 0 .033.017.033.034 0 .016 0 .05-.033.05-.017 0-.034-.05-.034-.067zm2.484 2.167.083.016c0 .017-.017.05-.033.05-.034 0-.05-.033-.05-.066zm-6.384-1.034.067.117h-.017c-.05 0-.05-.05-.05-.083zm9.417-7.65c.017 0 .033.017.033.034 0 .016-.033.016-.05.016 0 .017 0 .05-.033.05h-.017zm-5.6 3.834.083.116c-.083 0-.066-.05-.083-.116zm-4.05 4.533.067.017c0 .016 0 .05-.034.05-.016 0-.033-.05-.033-.067zm5.217 4.15.066.017c0 .016 0 .05-.033.05-.017 0-.033-.05-.033-.067zm.033-.633.067.016c0 .017 0 .05-.034.05-.016 0-.033-.05-.033-.066zm5.1-14.184c.017 0 .017-.016.033-.016.017 0 .017.05.017.066V3c-.033 0-.05-.05-.05-.067zM71.66 17.267c0 .016 0 .033-.017.033s-.05-.017-.05-.033l.05-.034zm12.366-9.884.034.034.016.066-.016.017a.309.309 0 0 1-.034-.117zM68.11 20.817h.016c.034 0 .05 0 .05.033-.016 0-.033.017-.05.017s-.016-.034-.016-.05zm-1.6 1.233.05-.033.016.016c0 .017-.016.05-.033.05a.036.036 0 0 1-.033-.033zM82.325 8.867h.017c.033 0 .05.016.05.05-.05 0-.05 0-.067-.05zM71.71 17.133v.017c0 .017 0 .017-.017.017l-.05-.034.033-.033zm-3.55 3.55.05.017c0 .017 0 .05-.017.05-.033 0-.033-.05-.033-.067zm1.683-.383v-.017c0-.016 0-.05.017-.05s.033.034.033.034a.036.036 0 0 1-.033.033zm13.85-17.25h.033c.017 0 .034 0 .034.017V3.1h-.017c-.017 0-.05-.033-.05-.05zm-3.4 11.8c.033 0 .067.017.067.05h-.034c-.033 0-.033-.033-.033-.05zm4.45-9.183.05.116c-.033 0-.05-.016-.05-.066zm-7.117 6.716c.034 0 .067.017.067.05h-.033c-.034 0-.034-.033-.034-.05zM69.842 20.3v.017c0 .033-.033.033-.05.033 0 0-.017 0-.017-.017s.05-.033.067-.033zM83.975 5.133h.034c.016 0 .05 0 .05.034h-.034c-.016 0-.05 0-.05-.034zM82.275 9h.067c0 .017-.017.05-.033.05zM66.26 22.617l.066.016a.036.036 0 0 1-.033.034c-.017 0-.033-.034-.033-.05zm3.266-1.717.067.017a.036.036 0 0 1-.033.033c-.017 0-.034-.033-.034-.05zM84.242 6.617c.033 0 .05.016.05.05h-.033c-.017 0-.017-.034-.017-.05zM67.91 19.983l.033.034c-.017 0-.033.016-.05.016h-.033zm1.666.8.05.017v.033c-.033 0-.05-.033-.05-.05zm5.384-9.366c0 .033 0 .066-.034.066h-.016zm8.516-2.984h.034l-.034.05zm-15.1 12.834h.034c0 .016 0 .033-.017.033zM82.942 5.533c-.017-.016-.017-.016-.017-.033.017 0 .017 0 .017.017zm-15.567 17.1.017-.016h-.017zm.384-2.4c0-.016.016-.016.016-.033 0 .017-.016.033-.016.033z"/>
        </g>
        <g fill="#ef00eb">
            <path d="M177.313 18.843a3.237 3.309 0 0 0-3.236 3.308v40.51a3.237 3.309 0 0 0 3.236 3.307h10.276a3.237 3.309 0 0 0 1.577-1.612 3.237 3.309 0 0 0 1.577 1.612h9.566a3.237 3.309 0 0 0 2.525-2.58c.356.382.682.788 1.14 1.096 1.95 1.35 4.233 2.108 6.56 2.108 1.749 0 3.484-.453 4.978-1.363a3.237 3.309 0 0 0 .723.739h9.638a3.237 3.309 0 0 0 .802-.82c.753 1.9 1.933 3.526 3.68 4.51a3.237 3.309 0 0 0 .029.018c2.598 1.426 5.682 2.018 9.165 2.018 2.78 0 5.236-.318 7.41-1.08 2.09-.733 3.946-1.9 5.334-3.535 1.22-1.437 2.145-3.03 2.418-4.9.017-.114.003-.41.018-.53.066.081.11.176.178.257 1.284 1.594 3.02 2.754 5 3.54a3.237 3.309 0 0 0 .065.023c2.059.763 4.289 1.123 6.633 1.123 2.457 0 4.7-.362 6.694-1.246a3.237 3.309 0 0 0 .006-.002c1.876-.835 3.507-2.165 4.76-3.834 1.153-1.486 2.02-3.03 2.41-4.758a3.237 3.309 0 0 0 .006-.028c.328-1.512.418-3.237.418-5.492v-2.45a3.237 3.309 0 0 0-1.052-1.075 3.237 3.309 0 0 0 1.052-1.076V42.28c0-3.52-.34-6.394-1.362-8.83-1.011-2.41-2.813-4.408-5.083-5.791a3.237 3.309 0 0 0-.015-.008c-2.437-1.468-5.33-2.107-8.493-2.107-2.66 0-5.202.549-7.483 1.683a3.237 3.309 0 0 0-.031.016c-1.362.696-2.498 1.703-3.488 2.846v-.612a3.237 3.309 0 0 0-3.236-3.308h-9.175a3.237 3.309 0 0 0-1.273.987c-.225-.143-.424-.325-.658-.452a3.237 3.309 0 0 0-.107-.053 10.744 10.744 0 0 0-4.763-1.107c-2.901 0-5.754 1.07-7.55 3.295a9.24 9.24 0 0 0-1.216 1.947 11.62 11.62 0 0 0-2.804-2.842 3.237 3.309 0 0 0-.04-.03c-2.523-1.751-5.685-2.37-9.379-2.37-3.163 0-6.053.637-8.48 2.113a3.237 3.309 0 0 0-.014.01 13.704 13.704 0 0 0-2.98 2.454c-.255-2.363-.73-4.534-1.89-6.293a3.237 3.309 0 0 0-.054-.077c-1.49-2.127-3.686-3.68-6.162-4.203-2.377-.572-5.615-.705-10.535-.705zm24.182 13.977c-.004.009-.004.02-.008.028-.003.007-.009.011-.011.018zm14.14 32.356c-.02.011-.043.022-.036.016.011-.007.024-.01.035-.016z" fill="#000"/>
            <path d="M179.694 16.443a3.218 3.309 0 0 0-3.217 3.308v40.51a3.218 3.309 0 0 0 3.217 3.307h10.213a3.218 3.309 0 0 0 1.568-1.612 3.218 3.309 0 0 0 1.568 1.612h9.509a3.218 3.309 0 0 0 2.51-2.58c.353.382.677.788 1.132 1.096 1.94 1.35 4.207 2.108 6.521 2.108 1.738 0 3.463-.453 4.948-1.363a3.218 3.309 0 0 0 .719.739h9.58a3.218 3.309 0 0 0 .797-.82c.748 1.9 1.92 3.526 3.657 4.51a3.218 3.309 0 0 0 .03.018c2.582 1.426 5.648 2.018 9.11 2.018 2.762 0 5.204-.318 7.364-1.08 2.078-.733 3.923-1.9 5.303-3.535 1.212-1.437 2.132-3.03 2.403-4.9.017-.114.003-.41.018-.53.065.081.11.176.177.257 1.276 1.594 3.001 2.754 4.97 3.54a3.218 3.309 0 0 0 .065.023c2.046.763 4.262 1.123 6.592 1.123 2.442 0 4.672-.362 6.655-1.246a3.218 3.309 0 0 0 .006-.002c1.864-.835 3.486-2.165 4.73-3.834 1.147-1.486 2.008-3.03 2.396-4.758a3.218 3.309 0 0 0 .006-.028c.327-1.512.416-3.237.416-5.492v-2.45a3.218 3.309 0 0 0-1.046-1.075 3.218 3.309 0 0 0 1.046-1.076V39.88c0-3.52-.34-6.394-1.354-8.83-1.005-2.41-2.797-4.408-5.052-5.791a3.218 3.309 0 0 0-.016-.008c-2.422-1.468-5.297-2.107-8.441-2.107-2.644 0-5.171.549-7.439 1.683a3.218 3.309 0 0 0-.03.016c-1.354.696-2.484 1.703-3.467 2.846v-.612a3.218 3.309 0 0 0-3.217-3.308h-9.12a3.218 3.309 0 0 0-1.265.987c-.224-.143-.421-.325-.654-.452a3.218 3.309 0 0 0-.106-.053 10.627 10.627 0 0 0-4.735-1.107c-2.884 0-5.72 1.07-7.505 3.295a9.25 9.25 0 0 0-1.208 1.947 11.586 11.586 0 0 0-2.787-2.842 3.218 3.309 0 0 0-.04-.03c-2.508-1.751-5.65-2.37-9.322-2.37-3.144 0-6.017.637-8.43 2.113a3.218 3.309 0 0 0-.014.01 13.64 13.64 0 0 0-2.962 2.454c-.253-2.363-.726-4.534-1.878-6.293a3.218 3.309 0 0 0-.054-.077c-1.48-2.127-3.664-3.68-6.125-4.203-2.363-.572-5.58-.705-10.472-.705zM203.73 30.42c-.004.009-.004.02-.008.028-.003.007-.008.011-.011.018zm14.054 32.356c-.018.011-.041.022-.034.016.01-.007.024-.01.034-.016z" fill="#fff"/>
            <path d="M179.694 19.75v37.764l2.634-2.094-2.051 3.514-.583-.504v1.83h10.212v-9.994l-9.58-15.918 9.58 13.512v-5.83c1.41 0 2.286.259 2.627.775.34.467.51 1.792.51 3.976V60.26h9.508V49.607c0-1.634-.016-2.934-.049-3.9-.032-.968-.097-1.685-.194-2.152-.13-.633-.559-1.417-1.288-2.35-.665-.817-2.027-1.517-4.086-2.1 2.205-.2 3.688-.843 4.45-1.926.778-1.1 1.167-3.226 1.167-6.377 0-.948-.047-1.82-.13-2.63l-14.223 12.893 13.958-14.645c-.267-1.27-.67-2.32-1.21-3.144-1.007-1.448-2.261-2.374-3.756-2.79l-13.53 7.566 11.506-7.954c-1.857-.232-4.59-.348-8.202-.348zm15.472.348zm6.99 6.322zm14.742.032c-2.724 0-4.985.55-6.785 1.65-1.75 1.083-2.893 2.292-3.428 3.626-.6 1.434-.9 3.434-.9 6v2.202h9.217v-3.476c0-1.767.08-2.917.243-3.45.162-.434.583-.65 1.264-.65.616 0 1.037.257 1.264.774.244.517.365 1.659.365 3.426 0 1.384-.113 2.284-.34 2.7-.276.534-2.003 1.426-5.18 2.676-3 1.167-4.896 2.21-5.69 3.126-.762.917-1.143 2.6-1.143 5.051v2.726c0 3.35.73 5.518 2.188 6.501 1.476 1.034 3.057 1.55 4.743 1.55 1.28 0 2.407-.308 3.38-.925.907-.55 1.67-1.442 2.285-2.675v2.975h4.339l-.298-.135 5.54-11.527v-4.992c0-1.762-.024-3.263-.06-4.644l-8.767.366 8.761-.582c-.076-2.787-.22-4.853-.444-6.042-.34-1.75-1.354-3.234-3.04-4.451-1.719-1.2-4.223-1.8-7.514-1.8zm20.864 0c-2.237 0-3.915.7-5.034 2.1-1.135 1.384-1.702 3.66-1.702 6.827v3.159l1.828-.122 4.298-8.944-3.808 8.912 7.506-.499V35.88c0-1.384.122-2.317.365-2.8.26-.484.664-.726 1.215-.726.568 0 .949.2 1.143.6.179.45.268 1.426.268 2.926v1.808l9.8-.65v-9.96h-9.12l-.68 2.5a8.738 8.738 0 0 0-2.748-2.35 7.37 7.37 0 0 0-3.331-.775zm30.031 0c-2.22 0-4.232.45-6.031 1.35-1.719.883-2.967 2.16-3.745 3.826-.6 1.403-.959 3.137-1.087 5.19l9.772-.648c.008-1.628.087-2.714.24-3.217.145-.4.575-.6 1.288-.6.535 0 .9.258 1.094.775.16.42.245 1.39.261 2.85l9.547-.633c-.182-1.165-.442-2.166-.786-2.992-.73-1.75-1.977-3.168-3.744-4.251-1.816-1.1-4.086-1.65-6.809-1.65zM256.93 36.818zm-.042.934c-.007.264-.014.529-.014.803v1.947h.001l9.823 9.6V44.23h12.743v-4.35c0-1.111-.046-2.127-.13-3.063l-9.719.406v1.632h-2.894v-1.511zm-66.982-11.025c1.167 0 1.978.183 2.432.55.47.4.706 1.25.706 2.55v2.226c0 1.734-.236 2.792-.706 3.176-.421.333-1.232.5-2.432.5zm89.226 8.62zm-25.491 2.541-9.8.409v7.884c0 1.9-.105 3.093-.316 3.576-.178.55-.608.825-1.29.825-.583 0-.948-.225-1.094-.675-.194-.45-.291-1.4-.291-2.85V38.42l-7.659.32-2.165 5.067v3.598c0 2.217.22 3.91.657 5.077.454 1.2 1.232 2.167 2.334 2.9 1.135.717 2.594 1.076 4.377 1.076.972 0 1.953-.184 2.942-.55.843-.35 1.727-.951 2.65-1.801l.05 2.526c0 1.383-.13 2.317-.39 2.8-.26.45-.762.675-1.508.675-1.005 0-1.532-.733-1.58-2.2h-9.532c.048 3.218 1.03 5.368 2.942 6.452 1.962 1.084 4.49 1.625 7.587 1.625 2.512 0 4.62-.3 6.322-.9 1.654-.584 2.959-1.442 3.915-2.576.957-1.133 1.508-2.209 1.654-3.226.027-.182.05-.458.072-.761l-.003.001-8.002-14.147 8.096 11.659c.019-.963.032-2.055.032-3.403zm-20.953.874-1.662.07v3.39zm24.186 3.729v5.741c0 2.484.17 4.359.511 5.626.324 1.233.957 2.409 1.897 3.526.86 1.083 2.083 1.942 3.672 2.575 1.653.617 3.485.925 5.495.925 2.124 0 3.915-.324 5.374-.975a8.529 8.529 0 0 0 1.785-1.079l-5.728-4.996c-.029.103-.06.197-.093.274-.243.583-.762.876-1.557.876-.616 0-1.013-.226-1.19-.676-.228-.367-.342-1.316-.342-2.85v-.399zm-38.736 1.99v6.827c0 1.65-.08 2.666-.243 3.05-.194.417-.608.626-1.24.626-.616 0-1.054-.26-1.314-.776-.227-.417-.34-1.526-.34-3.326 0-1.484.138-2.626.414-3.426.243-.783 1.15-1.775 2.723-2.976zm51.99 1.9v4.401c0 1.098-.054 1.922-.148 2.527l5.64 5.512a9.093 9.093 0 0 0 1.68-1.737c.957-1.234 1.557-2.393 1.8-3.476.227-1.05.34-2.642.34-4.776v-2.45zm-.148 6.928zm-42.018-2.332-3.967 9.282h3.967zm25.647 5.061z" fill="red"/>
        </g>
        <g fill="#ef00eb">
            <path d="M163.702 19.025c-2.386 0-4.193.115-5.77.56-1.402.394-2.698 1.029-3.735 2.038-.942.916-1.65 2.134-1.918 3.447-.147.717-.122 1.841-.156 2.76a2.877 2.88 0 0 0-1.88 1.882 12.646 12.646 0 0 0-4.075-2.703c-2.061-.87-4.39-1.254-6.948-1.254-3.082 0-5.857.6-8.161 1.998-2.2 1.334-3.91 3.286-4.808 5.625-.874 2.274-1.195 4.985-1.195 8.29v8.539c0 2.954.16 5.23.643 7.1a2.877 2.88 0 0 0 .002.008c.463 1.772 1.274 3.398 2.423 4.752a2.877 2.88 0 0 0 .034.04c1.27 1.443 2.98 2.447 4.911 3.07a2.877 2.88 0 0 0 .026.009c1.93.602 4.103.858 6.551.858 2.279 0 4.395-.321 6.315-1.032a2.877 2.88 0 0 0 .016-.005c1.978-.746 3.714-1.958 5.024-3.558a2.877 2.88 0 0 0 .012-.016c.387-.48.671-1.014.985-1.533v2.66a2.877 2.88 0 0 0 2.875 2.88h10.132a2.877 2.88 0 0 0 2.876-2.88V37.726a2.877 2.88 0 0 0 2.408-2.41V30.04a2.877 2.88 0 0 0-1.492-1.493 2.877 2.88 0 0 0 1.492-1.496v-5.148a2.877 2.88 0 0 0-2.876-2.879zm-10.28 15.841c.004.013.006.024.003.018l-.002-.018z" fill="#000"/>
            <path d="M165.572 16.625c-2.353 0-4.136.115-5.691.56-1.383.394-2.661 1.029-3.684 2.038-.928.916-1.627 2.134-1.892 3.447-.144.717-.12 1.841-.153 2.76a2.837 2.88 0 0 0-1.855 1.882c-1.127-1.118-2.45-2.051-4.019-2.703-2.033-.87-4.33-1.254-6.853-1.254-3.04 0-5.776.6-8.049 1.998-2.17 1.334-3.855 3.286-4.741 5.625-.862 2.274-1.179 4.985-1.179 8.29v8.539c0 2.954.157 5.23.634 7.1a2.837 2.88 0 0 0 .002.008c.457 1.772 1.256 3.398 2.39 4.752a2.837 2.88 0 0 0 .033.04c1.254 1.443 2.94 2.447 4.845 3.07a2.837 2.88 0 0 0 .025.009c1.904.602 4.047.858 6.461.858 2.247 0 4.335-.321 6.229-1.032a2.837 2.88 0 0 0 .015-.005c1.95-.746 3.663-1.958 4.955-3.558a2.837 2.88 0 0 0 .012-.016c.382-.48.662-1.014.971-1.533v2.66a2.837 2.88 0 0 0 2.836 2.88h9.994a2.837 2.88 0 0 0 2.836-2.88V35.326a2.837 2.88 0 0 0 2.374-2.41V27.64a2.837 2.88 0 0 0-1.47-1.493 2.837 2.88 0 0 0 1.47-1.496v-5.148a2.837 2.88 0 0 0-2.836-2.879zm-10.138 15.841c.002.013.004.024.001.018l-.001-.018z" fill="#fff"/>
            <path d="M165.572 19.505c-2.227 0-3.868.15-4.924.451-1.055.302-1.88.746-2.474 1.332-.577.569-.94 1.221-1.088 1.958-.148.737-.223 2.201-.223 4.395h-2.053v5.274h2.053v5.257l7.801 5.413-7.8-3.76v12.803l4.727 7.534h5.267V32.915h2.375V27.64h-4.206v-1.055c0-.904.182-1.448.545-1.632.38-.201 1.6-.302 3.66-.302v-5.147zm-24.146 6.73c-2.526 0-4.624.472-6.295 1.414l4.562 6.307-5.661-5.582c-1.282.974-2.2 2.186-2.75 3.636-.659 1.741-.989 4.16-.989 7.258v8.538c0 2.83.182 4.955.544 6.378.363 1.407.965 2.612 1.806 3.617l.05.053 5.787-7.504-4.67 8.5c.683.484 1.488.88 2.42 1.186 1.534.485 3.406.728 5.616.728 1.98 0 3.728-.285 5.245-.854 1.534-.586 2.787-1.481 3.76-2.687.974-1.222 1.608-2.528 1.905-3.918.297-1.406.446-3.607.446-6.603v-.108l-9.165 3.435 9.007-5.187.158.32V38.54c0-2.36-.165-4.118-.495-5.274-.313-1.155-.907-2.277-1.781-3.365-.76-.946-1.8-1.732-3.12-2.362l5.072 11.214-6.9-11.923c-1.332-.396-2.849-.596-4.552-.596zm6.38 1.304zm-15.113 30.315zm.494.494.053.048-.053-.048zm.053.048zm.792-30.022zm.36-.26.064-.044-.065.044zm.064-.044zm11.531-1.237zm-4.215 5.303c.594 0 .982.226 1.163.678.182.435.272 1.506.272 3.214v15.369c0 1.44-.099 2.378-.297 2.813-.181.435-.569.653-1.162.653-.578 0-.966-.235-1.164-.704-.198-.485-.297-1.514-.297-3.088V36.028c0-1.708.1-2.779.297-3.214.198-.452.594-.678 1.188-.678zm15.091 20.621v7.405h3.111z" fill="red"/>
        </g>
        <g fill="#ef00eb">
            <path d="M3.123 19.176a3.039 3.067 0 0 0-3.039 3.066V62.32a3.039 3.067 0 0 0 3.039 3.067h11.939c4.217 0 6.943-.101 9.196-.879 2.045-.678 3.761-2.284 4.69-4.242.084-.17.092-.378.164-.552.363.595.74 1.184 1.202 1.726 1.26 1.546 2.969 2.674 4.93 3.441a3.039 3.067 0 0 0 .063.024c2.04.747 4.249 1.099 6.576 1.099 2.441 0 4.66-.357 6.625-1.217a3.039 3.067 0 0 0 .006-.002c1.85-.813 3.457-2.105 4.693-3.733.147-.187.243-.385.38-.574.55 1.403 1.38 2.611 2.67 3.472 1.928 1.318 4.172 2.054 6.466 2.054 1.752 0 3.488-.442 4.97-1.356l.005-.004a3.039 3.067 0 0 0 .002.002c.008-.005.017-.007.025-.012l-.023.014a3.039 3.067 0 0 0 .732.739h9.66a3.039 3.067 0 0 0 3.025-3.053c.19.21.332.464.545.647 1.11 1.039 2.506 1.8 4.017 2.054 1.405.28 3.049.352 5.359.352h4.02a3.039 3.067 0 0 0 2.348-2.369c.77.576 1.577 1.117 2.493 1.494 2.246 1.032 4.801 1.492 7.613 1.492 2.613 0 4.996-.418 7.088-1.398a3.039 3.067 0 0 0 .016-.006c2.086-.99 3.844-2.504 4.878-4.491a3.039 3.067 0 0 0 .064-.13c.96-2.08 1.29-4.49 1.29-7.332 0-2.76-.51-5.24-1.94-7.241-.636-.918-1.478-1.654-2.41-2.36h.55a3.039 3.067 0 0 0 3.04-3.066v-1.93c0-1.672-.07-2.992-.304-4.18-.31-1.594-1.142-2.822-2.186-3.999a3.039 3.067 0 0 0-.037-.041c-1.234-1.344-2.83-2.308-4.653-3.008a3.039 3.067 0 0 0-.055-.02c-1.935-.7-4.097-.996-6.493-.996-2.402 0-4.7.396-6.823 1.217a3.039 3.067 0 0 0-.05.021c-1.17.477-2.205 1.17-3.121 1.988a3.039 3.067 0 0 0-1.384-1.396v-2.5a3.039 3.067 0 0 0-3.038-3.067h-9.904a3.039 3.067 0 0 0-3.039 3.067v2.993a3.039 3.067 0 0 0-1.373 1.386c-.46-.457-.831-.99-1.37-1.372a3.039 3.067 0 0 0-.038-.025c-2.479-1.7-5.605-2.312-9.282-2.312-3.143 0-6 .625-8.394 2.062a3.039 3.067 0 0 0-.014.008c-1.992 1.21-3.556 2.752-4.47 4.702-1.039-1.9-2.503-3.554-4.42-4.708a3.039 3.067 0 0 0-.014-.008c-2.404-1.43-5.264-2.056-8.407-2.056-2.637 0-5.15.535-7.408 1.643a3.039 3.067 0 0 0-.031.016c-1.925.97-3.433 2.51-4.531 4.32-.15-2.842-.563-5.329-1.833-7.304a3.039 3.067 0 0 0-.03-.045c-1.366-2.047-3.344-3.595-5.639-4.299-2.207-.726-4.87-.961-8.33-.961zM53.85 32.88l-.007.026c-.003.006-.008.01-.01.016zm-26.164 7.576c-.006.007-.014.014-.012.01.003-.004.008-.006.012-.01zm.687 1.174c.004.005.007.01.004.007l-.004-.007zm66.61 3.898c.532.79 1.079 1.564 1.83 2.22h-.454a3.039 3.067 0 0 0-1.376 1.388zm-67.19 11.259c0 .003.003.005.004.008v.008z" fill="#000"/>
            <path d="M5.511 16.776a3.028 3.067 0 0 0-3.027 3.066V59.92a3.028 3.067 0 0 0 3.027 3.067h11.895c4.201 0 6.917-.101 9.162-.879 2.037-.678 3.747-2.284 4.673-4.242.082-.17.09-.378.163-.552.36.595.737 1.184 1.197 1.726 1.256 1.546 2.958 2.674 4.912 3.441a3.028 3.067 0 0 0 .062.024c2.032.747 4.233 1.099 6.552 1.099 2.432 0 4.642-.357 6.6-1.217a3.028 3.067 0 0 0 .006-.002c1.843-.813 3.444-2.105 4.675-3.733.146-.187.242-.385.378-.574.548 1.403 1.376 2.611 2.661 3.472 1.92 1.318 4.156 2.054 6.441 2.054 1.746 0 3.476-.442 4.953-1.356l.004-.004a3.028 3.067 0 0 0 .001.002c.008-.005.018-.007.026-.012l-.024.014a3.028 3.067 0 0 0 .73.739h9.624a3.028 3.067 0 0 0 3.014-3.053c.19.21.33.464.543.647 1.105 1.039 2.497 1.8 4.002 2.054 1.4.28 3.037.352 5.339.352h4.005a3.028 3.067 0 0 0 2.339-2.369c.767.576 1.571 1.117 2.484 1.494 2.237 1.032 4.782 1.492 7.584 1.492 2.603 0 4.977-.418 7.062-1.398a3.028 3.067 0 0 0 .015-.006c2.079-.99 3.83-2.504 4.86-4.491a3.028 3.067 0 0 0 .064-.13c.957-2.08 1.284-4.49 1.284-7.332 0-2.76-.507-5.24-1.932-7.241-.634-.918-1.472-1.654-2.401-2.36h.55a3.028 3.067 0 0 0 3.027-3.066v-1.93c0-1.672-.07-2.992-.303-4.18-.309-1.594-1.138-2.822-2.178-3.999a3.028 3.067 0 0 0-.036-.041c-1.23-1.344-2.82-2.308-4.637-3.008a3.028 3.067 0 0 0-.054-.02c-1.928-.7-4.082-.996-6.468-.996-2.394 0-4.682.396-6.798 1.217a3.028 3.067 0 0 0-.05.021c-1.165.477-2.197 1.17-3.11 1.988a3.028 3.067 0 0 0-1.378-1.396v-2.5a3.028 3.067 0 0 0-3.027-3.067h-9.866a3.028 3.067 0 0 0-3.028 3.067v2.993a3.028 3.067 0 0 0-1.368 1.386c-.459-.457-.828-.99-1.364-1.372a3.028 3.067 0 0 0-.04-.025c-2.468-1.7-5.583-2.312-9.246-2.312-3.131 0-5.977.625-8.363 2.062a3.028 3.067 0 0 0-.013.008c-1.985 1.21-3.544 2.752-4.454 4.702-1.035-1.9-2.494-3.554-4.404-4.708a3.028 3.067 0 0 0-.013-.008c-2.395-1.43-5.245-2.056-8.376-2.056-2.627 0-5.132.535-7.38 1.643a3.028 3.067 0 0 0-.031.016c-1.917.97-3.42 2.51-4.514 4.32-.149-2.842-.561-5.329-1.827-7.304a3.028 3.067 0 0 0-.029-.045c-1.361-2.047-3.331-3.595-5.618-4.299-2.199-.726-4.853-.961-8.298-.961zm50.54 13.704c-.004.008-.005.018-.009.026-.002.006-.007.01-.01.016zm-26.068 7.576c-.006.007-.013.014-.011.01l.011-.01zm.685 1.174c.004.005.007.01.004.007l-.004-.007zm66.361 3.898c.53.79 1.074 1.564 1.823 2.22h-.453a3.028 3.067 0 0 0-1.37 1.388zM30.09 54.387c0 .003.003.005.004.008v.008z" fill="#fff"/>
            <path d="M5.51 19.841v.574l10.26 7.962v-1.633c1.123 0 1.84.066 2.149.198.342.149.643.47.904.965.228.462.341 1.335.341 2.622 0 .176-.006.31-.008.476l3.385 2.629-3.391-2.275c-.033 1.856-.17 3.044-.425 3.475-.26.51-.896.767-1.905.767-.408 0-.757.016-1.05.049v-6.559l-10.26-6.88v32.648l8.776-9.207L5.59 57.185l-.08-.067v2.802h.34l-.24-.61 23.81-8.714.002-.102v-3.686c0-2.672-.415-4.618-1.246-5.838-.83-1.237-2.45-2.128-4.86-2.672 2.1-.462 3.533-1.18 4.299-2.153.7-.874 1.05-2.49 1.05-4.849 0-3.48-.497-5.995-1.49-7.545-1.042-1.567-2.377-2.598-4.006-3.093-1.628-.544-4.095-.817-7.4-.817zm23.911 30.755zm54.713-27.86v3.707l9.093 12.5-9.745-11.036h-1.497v5.17h2.15v12.125l4.128-3.972-4.129 4.464v4.033c0 3.2.082 5.278.245 6.235.179.94.635 1.714 1.368 2.325.765.742 1.612 1.187 2.54 1.336.96.198 2.564.297 4.811.297h4.006v-5.27c-1.628 0-2.557-.124-2.784-.371-.212-.264-.318-1.476-.318-3.637V33.077h2.638v-5.17h-2.638v-5.171zm-40.667 3.736c-2.23 0-4.25.445-6.057 1.336-1.726.874-2.98 2.136-3.762 3.785-.765 1.765-1.147 4.05-1.147 6.853v9.574c0 .511.012.98.026 1.44l9.841-3.602v-1.796h3.28l4.94-15.774c-.095-.061-.184-.125-.282-.183-1.823-1.089-4.103-1.633-6.839-1.633zm25.622 0c-2.736 0-5.007.544-6.815 1.633-1.758 1.072-2.906 2.268-3.444 3.587-.602 1.419-.903 3.398-.903 5.938v2.176h.974l8.233-3.013-7.394 3.013h7.444v-3.438c0-1.748.081-2.886.244-3.414.163-.429.587-.644 1.27-.644.62 0 1.042.256 1.27.767.244.512.366 1.641.366 3.39 0 1.368-.113 2.259-.341 2.671-.277.528-2.012 1.411-5.203 2.648-3.013 1.154-4.917 2.185-5.715 3.092-.765.907-1.148 2.573-1.148 4.998v2.696c0 3.315.733 5.46 2.198 6.433 1.482 1.022 3.069 1.533 4.763 1.533 1.286 0 2.418-.305 3.395-.915.912-.545 1.677-1.427 2.296-2.647v1.265l9.623-9.257v-5.541c0-5.41-.171-9.005-.513-10.786-.342-1.732-1.36-3.2-3.053-4.404-1.726-1.187-4.241-1.781-7.547-1.781zm39.275 0c-2.068 0-3.973.338-5.716 1.014-1.612.66-2.775 1.625-3.492 2.894-.667 1.27-1.001 3.217-1.001 5.84 0 1.863.317 3.447.952 4.75.358.692.944 1.393 1.759 2.102.83.71 2.01 1.51 3.541 2.4.756.424 1.404.795 2.011 1.145l2.593-6.246-2.145 6.506c1.902 1.11 2.995 1.82 3.232 2.108.375.412.562 1.385.562 2.919 0 1.105-.13 1.856-.39 2.251-.326.363-.831.545-1.515.545-.635 0-1.05-.256-1.246-.767-.228-.511-.342-1.658-.342-3.44v-2.077h-.81l-2.207 6.694 3.855 5.112-.353.233c.596.055 1.215.083 1.86.083 2.28 0 4.21-.37 5.789-1.113 1.628-.775 2.784-1.823 3.468-3.142.667-1.452 1.001-3.463 1.001-6.036 0-2.375-.455-4.198-1.367-5.468-.847-1.237-2.727-2.573-5.642-4.008-2.003-.99-3.404-1.814-4.202-2.473-.684-.545-1.107-1.064-1.27-1.559-.146-.511-.22-1.246-.22-2.202 0-.759.147-1.32.44-1.682.26-.363.66-.545 1.197-.545.717 0 1.148.198 1.295.594.179.445.269 1.41.269 2.894v1.782h8.743v-1.93c0-1.567-.081-2.762-.244-3.587-.147-.758-.635-1.608-1.465-2.548-.83-.907-1.995-1.65-3.493-2.227-1.498-.544-3.314-.816-5.447-.816zm-1.498 20.405zM50.59 28.289zm.646.452zm.595.487-5.407 14.834h.851l7.891-2.889v-1.416c0-3.233-.365-5.715-1.098-7.447a8.529 8.529 0 0 0-2.237-3.082zm-7.924 3.082c.537 0 .904.256 1.1.767.178.462.268 1.56.268 3.291v2.375h-2.907v-2.375c0-1.781.082-2.936.244-3.464.147-.396.579-.594 1.295-.594zm11.26 9.36-5.869 2.392h5.868zm-39.397.214c1.546.05 2.5.248 2.857.594.359.396.537 1.427.537 3.093v3.76c0 1.617-.203 2.63-.61 3.043-.39.396-1.319.635-2.784.717zm54.564 2.425v6.754c0 1.633-.08 2.639-.243 3.018-.196.413-.611.619-1.246.619-.62 0-1.059-.256-1.32-.767-.227-.413-.341-1.51-.341-3.29 0-1.469.138-2.598.415-3.39.244-.775 1.156-1.756 2.735-2.944zm-24.522 1.88v4.355c0 1.682-.114 2.778-.342 3.29-.244.577-.765.866-1.563.866-.573 0-.956-.194-1.152-.576l-1.847 5.07 1.694-5.41c-.155-.466-.234-1.319-.234-2.572v-4.326l-9.764 3.979c.084 1.092.216 2.014.41 2.722.325 1.22.96 2.383 1.905 3.488.863 1.072 2.091 1.92 3.687 2.548 1.661.61 3.501.915 5.52.915 2.134 0 3.933-.321 5.398-.965 1.384-.61 2.549-1.541 3.493-2.795.96-1.22 1.564-2.367 1.808-3.439.228-1.039.341-2.614.341-4.725v-2.425zm-3.21 7.595zm55.796-5.368v1.583c0 2.64.334 4.676 1.002 6.111.436.927 1.14 1.706 2.102 2.345l1.578-3.801-2.315-4.031 2.573 3.41 2.333-5.617zm3.104 10.04zm.609.366.03.016-.03-.016zm.03.016zm-69.614-9.376zm47.675.483-9.225 9.975h9.225zM29.378 52.18l-18.991 7.74h7.018c4.104 0 6.84-.24 8.207-.718 1.303-.428 2.272-1.32 2.907-2.672.472-.97.757-2.425.86-4.35zm74.477 3.823-1.043 3.164c.1.045.196.092.3.135.955.447 2.023.768 3.197.973zm-33.276 3.89v.027h.026zm35.735.383z" fill="red"/>
        </g>
    </g>
</svg>
