<?xml version="1.0" encoding="UTF-8" standalone="no"?>
<!-- Created by ERK -->

<svg
   width="1443.759mm"
   height="284.05948mm"
   viewBox="0 0 1443.7591 284.05948"
   version="1.1"
   id="svg1"
   inkscape:version="1.4 (86a8ad7, 2024-10-11)"
   xml:space="preserve"
   sodipodi:docname="opengoal.svg"
   xmlns:inkscape="http://www.inkscape.org/namespaces/inkscape"
   xmlns:sodipodi="http://sodipodi.sourceforge.net/DTD/sodipodi-0.dtd"
   xmlns:xlink="http://www.w3.org/1999/xlink"
   xmlns="http://www.w3.org/2000/svg"
   xmlns:svg="http://www.w3.org/2000/svg"><sodipodi:namedview
     id="namedview1"
     pagecolor="#ffffff"
     bordercolor="#000000"
     borderopacity="0.25"
     inkscape:showpageshadow="2"
     inkscape:pageopacity="0.0"
     inkscape:pagecheckerboard="true"
     inkscape:deskcolor="#d1d1d1"
     inkscape:document-units="mm"
     inkscape:zoom="0.20944491"
     inkscape:cx="2747.7393"
     inkscape:cy="720.9533"
     inkscape:window-width="1916"
     inkscape:window-height="2053"
     inkscape:window-x="0"
     inkscape:window-y="0"
     inkscape:window-maximized="0"
     inkscape:current-layer="g8" /><defs
     id="defs1"><linearGradient
       id="linearGradient8"
       inkscape:collect="always"><stop
         style="stop-color:#ffe900;stop-opacity:1;"
         offset="0"
         id="stop8" /><stop
         style="stop-color:#ffae02;stop-opacity:1;"
         offset="1"
         id="stop9" /></linearGradient><marker
       id="DistanceX"
       orient="auto"
       refX="0"
       refY="0"
       style="overflow:visible"><path
         d="M 3,-3 -3,3 M 0,-5 V 5"
         style="stroke:#000000;stroke-width:0.5"
         id="path1" /></marker><pattern
       id="Hatch"
       patternUnits="userSpaceOnUse"
       width="8"
       height="8"
       x="0"
       y="0"><path
         d="M8 4 l-4,4"
         stroke="#000000"
         stroke-width="0.25"
         linecap="square"
         id="path2" /><path
         d="M6 2 l-4,4"
         stroke="#000000"
         stroke-width="0.25"
         linecap="square"
         id="path3" /><path
         d="M4 0 l-4,4"
         stroke="#000000"
         stroke-width="0.25"
         linecap="square"
         id="path4" /></pattern><symbol
       id="*Model_Space" /><symbol
       id="*Paper_Space" /><symbol
       id="*Paper_Space0" /><marker
       id="DistanceX-0"
       orient="auto"
       refX="0"
       refY="0"
       style="overflow:visible"><path
         d="M 3,-3 -3,3 M 0,-5 V 5"
         style="stroke:#000000;stroke-width:0.5"
         id="path1-9" /></marker><pattern
       id="Hatch-4"
       patternUnits="userSpaceOnUse"
       width="8"
       height="8"
       x="0"
       y="0"><path
         d="M8 4 l-4,4"
         stroke="#000000"
         stroke-width="0.25"
         linecap="square"
         id="path2-8" /><path
         d="M6 2 l-4,4"
         stroke="#000000"
         stroke-width="0.25"
         linecap="square"
         id="path3-8" /><path
         d="M4 0 l-4,4"
         stroke="#000000"
         stroke-width="0.25"
         linecap="square"
         id="path4-2" /></pattern><symbol
       id="*Model_Space-4" /><symbol
       id="*Paper_Space-5" /><symbol
       id="*Paper_Space0-5" /><linearGradient
       inkscape:collect="always"
       xlink:href="#linearGradient8"
       id="linearGradient9"
       x1="1022.3594"
       y1="28.949591"
       x2="1022.3593"
       y2="215.95268"
       gradientUnits="userSpaceOnUse" /><linearGradient
       inkscape:collect="always"
       xlink:href="#linearGradient8"
       id="linearGradient10"
       gradientUnits="userSpaceOnUse"
       x1="1022.3594"
       y1="28.949591"
       x2="1022.3593"
       y2="215.95268" /><linearGradient
       inkscape:collect="always"
       xlink:href="#linearGradient8"
       id="linearGradient11"
       gradientUnits="userSpaceOnUse"
       x1="1022.3594"
       y1="28.949591"
       x2="1022.3593"
       y2="215.95268" /><linearGradient
       inkscape:collect="always"
       xlink:href="#linearGradient8"
       id="linearGradient12"
       gradientUnits="userSpaceOnUse"
       x1="1022.3594"
       y1="28.949591"
       x2="1022.3593"
       y2="215.95268" /><linearGradient
       inkscape:collect="always"
       xlink:href="#linearGradient8"
       id="linearGradient13"
       gradientUnits="userSpaceOnUse"
       x1="1022.3594"
       y1="28.949591"
       x2="1022.3593"
       y2="215.95268" /><linearGradient
       inkscape:collect="always"
       xlink:href="#linearGradient8"
       id="linearGradient14"
       gradientUnits="userSpaceOnUse"
       x1="1022.3594"
       y1="28.949591"
       x2="1022.3593"
       y2="215.95268" /></defs><g
     id="g7"
     inkscape:label="Open"
     style="stroke-width:3;stroke-dasharray:none"
     transform="translate(1.0275741,1.0275828)"><path
       id="path23"
       style="display:inline;fill:#ffffff;fill-opacity:1;stroke:#000000;stroke-width:3.5;stroke-linecap:round;stroke-dasharray:none;stroke-linejoin:round"
       d="m 39.571722,202.21806 c 17.96611,6.64475 38.010135,4.46362 54.12654,-5.8899 11.387248,-7.31541 19.421158,-18.83552 22.350608,-32.04923 L 140.31377,54.827187 C 143.6028,39.991043 135.15078,25.068036 120.73532,20.259324 104.61301,14.881237 87.031732,15.978407 71.703152,23.319204 56.370072,30.662158 45.264117,44.646683 41.584532,61.244377 L 18.783617,164.09246 c -3.573257,16.11797 5.303904,32.39878 20.788105,38.1256 z m 64.604158,6.20747 C 88.253786,218.89395 69.25194,223.65276 50.275282,221.92435 38.477582,220.84981 27.086174,217.07106 16.985252,210.88141 6.2619145,204.31036 -0.04848057,192.43551 0.5061817,179.87123 0.94186678,170.00207 2.236122,160.18959 4.3742767,150.54498 L 23.116442,66.004255 C 25.47931,55.346317 29.48055,45.119229 34.977602,35.687528 43.047281,21.841784 55.824183,11.357284 70.978802,6.1455793 86.507081,0.80537214 103.07633,-0.7953995 119.33972,1.4733827 145.59066,5.1354475 163.14051,30.405968 157.40377,56.282881 l -24.4896,110.465469 c -3.79158,17.10256 -14.10084,32.05338 -28.73829,41.67718 z"
       sodipodi:nodetypes="ccccccccccccccccccccc"
       inkscape:label="O" /><path
       d="m 263.44852,62.352266 c -18.53721,-0.257485 -36.6536,6.682521 -50.35507,19.661849 l 5.18418,-15.056962 c 0.22358,-0.649284 -0.25839,-1.325489 -0.94516,-1.3255 h -16.00264 c -0.47088,1.5e-5 -0.87775,0.328357 -0.9772,0.788582 L 154.10326,280.33173 c -0.16757,0.77507 0.59115,1.42733 1.33273,1.14566 l 16.71939,-6.35051 c 0.31649,-0.12089 0.55109,-0.39343 0.6227,-0.72451 l 14.94379,-69.11929 c 5.56335,7.51133 13.5842,12.83404 22.66684,15.04249 22.84859,5.55565 46.97499,-0.20898 64.84359,-15.49415 11.23202,-9.6081 18.95681,-22.67333 21.96145,-37.14553 l 11.467,-55.23591 c 4.6561,-22.424679 -9.88766,-44.33676 -32.3603,-48.75516 -4.27351,-0.840226 -8.57411,-1.283134 -12.85193,-1.342554 z m -8.05481,16.590719 c 6.75567,-0.115233 13.55342,1.150851 19.95899,3.830774 11.81121,4.941503 18.46104,17.562551 15.85847,30.098421 l -10.9797,52.88411 c -1.42491,6.86457 -4.10792,13.40626 -7.91269,19.29495 -4.21617,6.52542 -10.21201,11.707 -17.27957,14.93294 -12.69366,5.79394 -26.92302,7.319 -40.55618,4.3465 -11.34462,-2.47351 -19.37072,-12.6044 -19.18332,-24.21403 0.11463,-7.10161 0.92791,-14.17444 2.42879,-21.11654 l 8.32714,-38.51444 c 3.09191,-14.30086 11.9163,-26.706625 24.41143,-34.318837 7.62407,-4.644691 16.24079,-7.075691 24.92664,-7.223848 z"
       style="display:inline;fill:#ffffff;stroke:#000000;stroke-width:3.5;stroke-linecap:round;stroke-dasharray:none;stroke-linejoin:round"
       id="path5"
       inkscape:label="p" /><path
       id="path70"
       style="display:inline;fill:#ffffff;fill-opacity:1;stroke:#000000;stroke-width:3.5;stroke-linecap:round;stroke-dasharray:none;stroke-linejoin:round"
       d="m 342.11444,141.65815 78.81673,-3.39513 6.08277,-27.44262 c 3.19914,-14.430431 -6.04451,-28.683326 -20.52494,-31.647705 -17.81268,-3.646546 -36.23404,2.302403 -48.54948,15.678452 -4.69981,5.104559 -7.96622,11.361143 -9.46757,18.135363 z m 43.61884,77.97767 c -15.17268,3.1776 -30.82409,3.32224 -46.0529,0.42559 -16.99476,-3.23255 -27.95352,-19.87435 -24.20936,-36.7637 L 331.87478,109.307 c 3.01221,-13.588555 11.29737,-25.424735 23.03385,-32.906609 18.04433,-11.503043 39.81629,-15.639387 60.82194,-11.555251 20.43057,3.972316 33.56607,24.008328 29.06101,44.32806 l -10.07826,45.45827 -96.40623,4.20926 -4.83431,21.80221 c -2.37678,10.7193 4.14204,21.40058 14.76179,24.18827 11.91844,3.12859 24.46291,2.96074 36.29337,-0.48563 8.71,-2.53734 17.1957,-5.78927 25.37069,-9.72268 0.53387,-0.25686 1.17275,0.004 1.37465,0.5613 l 4.18166,11.57811 c 0.16158,0.44543 -0.0121,0.94268 -0.4153,1.19113 -9.02054,5.55792 -18.93604,9.51053 -29.30636,11.68238 z"
       sodipodi:nodetypes="cccccccccccccccccccccccc"
       inkscape:label="e" /><path
       id="path88"
       style="display:inline;fill:#ffffff;fill-opacity:1;stroke:#000000;stroke-width:3.5;stroke-linecap:round;stroke-dasharray:none;stroke-linejoin:round"
       d="m 568.84094,218.33514 23.64559,-113.70253 c 3.33024,-16.016329 -5.83981,-31.993731 -21.34923,-37.196944 -23.77567,-7.97643 -49.89161,-4.667788 -70.92667,8.985769 l 3.60151,-8.915378 c 0.26581,-0.657292 -0.218,-1.374574 -0.92661,-1.374558 H 486.9633 c -0.47078,-2.6e-5 -0.87786,0.328436 -0.97687,0.788699 L 453.33796,217.92011 c -0.13407,0.62305 0.34064,1.21137 0.97819,1.21143 h 15.34622 c 0.47108,-7e-5 0.87813,-0.32853 0.97817,-0.78871 L 498.45737,89.679471 c 18.31068,-10.786482 40.24515,-13.585984 60.67748,-7.744164 11.0192,3.150505 17.73993,14.270399 15.40599,25.491063 l -22.97938,110.50157 c -0.12889,0.62082 0.3451,1.20353 0.97901,1.2036 h 15.32147 c 0.47352,-7e-5 0.88228,-0.33258 0.979,-0.7964 z"
       sodipodi:nodetypes="ccccccccccccccccccc"
       inkscape:label="n" /></g><g
     id="g8"
     inkscape:label="GOAL"
     style="fill:url(#linearGradient9);stroke-width:3;stroke-dasharray:none"
     transform="translate(1.0275741,1.0275828)"><path
       id="path118"
       style="display:inline;fill:url(#linearGradient10);fill-opacity:1;stroke:#000000;stroke-width:3.5;stroke-linecap:round;stroke-dasharray:none;stroke-linejoin:round"
       d="m 738.90441,219.13153 c 0.47188,-6e-5 0.87969,-0.33031 0.97722,-0.79212 l 19.13106,-90.00007 c 0.13189,-0.62202 -0.34251,-1.20785 -0.97855,-1.20786 l -62.76453,-1e-5 3.92906,32.00003 18.01537,-10e-6 c -0.74386,4.48182 -2.07554,8.84598 -3.96067,12.97953 -2.18553,4.79221 -5.97244,8.67323 -10.70957,10.97571 -11.95011,5.80838 -25.84764,6.0779 -38.01396,0.73722 -5.08949,-2.23415 -8.24574,-7.4051 -7.90625,-12.95299 0.2375,-3.88102 0.76262,-7.73907 1.57054,-11.54236 l 20.71063,-97.431163 c 1.04497,-4.918229 3.13439,-9.55465 6.12651,-13.595637 2.56085,-3.458555 6.14132,-6.027469 10.23794,-7.345511 15.45263,-4.971696 32.1859,-4.154597 47.08062,2.298983 0.46545,0.20168 1.00818,0.02291 1.26227,-0.415869 l 16.98578,-29.290138 c 0.29232,-0.504218 0.0933,-1.150652 -0.43214,-1.40304 C 739.48078,2.2097556 715.9029,0.07880731 693.77159,6.1455793 686.417,8.1616662 679.5037,11.533759 673.38733,16.088381 658.06033,27.501789 647.41507,44.106934 643.44252,62.799093 L 622.74446,160.174 c -1.60185,7.53481 -2.16134,15.25377 -1.66309,22.94073 0.61571,9.49911 5.11284,18.32639 12.43521,24.40875 8.95697,7.44014 19.87386,12.13223 31.43593,13.51118 13.37065,1.59465 26.92803,-0.15685 39.45441,-5.09719 0.5171,-0.20395 1.10128,0.053 1.30049,0.57187 l 0.75979,1.98057 c 0.14879,0.38646 0.52,0.64157 0.93378,0.64162 z"
       sodipodi:nodetypes="ccccccccccccccccccccccccccccccc" /><path
       id="path143"
       style="display:inline;fill:url(#linearGradient11);fill-opacity:1;stroke:#000000;stroke-width:3.5;stroke-linecap:round;stroke-dasharray:none;stroke-linejoin:round"
       d="m 875.31076,1.4733745 c 12.89238,-1.56483224 25.95861,-0.87779151 38.61578,2.0304718 18.91856,4.3469647 32.25002,21.2912887 32.02315,40.7015047 -0.0819,7.009537 -0.85729,13.993765 -2.31519,20.850615 l -19.89219,93.589194 c -1.59557,7.50481 -3.94196,14.83008 -7.00407,21.86506 -6.50421,14.94292 -18.59604,26.74849 -33.69048,32.89288 -11.62496,4.73209 -23.93731,7.55747 -36.46236,8.3672 -14.77767,0.95536 -29.47138,-2.86179 -41.91558,-10.88889 -12.32303,-7.94894 -18.74398,-22.46065 -16.33871,-36.92638 0.7172,-4.31335 1.53066,-8.61015 2.43985,-12.8871 L 812.2125,60.192915 C 814.47396,49.553583 818.96249,39.513642 825.3828,30.733596 837.25957,14.491611 855.33623,3.8978086 875.31076,1.4733745 Z M 827.71744,153.18388 c -1.15924,5.45371 -1.72493,11.0169 -1.6872,16.59238 0.0511,7.55239 5.29126,14.07727 12.65462,15.75715 6.71979,1.53305 13.66459,1.81448 20.4864,0.83018 9.03532,-1.30369 17.08175,-6.40926 22.10958,-14.02881 4.17276,-6.32371 7.12317,-13.37358 8.69838,-20.78438 l 16.94896,-79.737433 c 1.38455,-6.514842 1.79886,-13.19863 1.22928,-19.834671 -0.598,-6.967097 -5.85732,-12.635023 -12.7603,-13.751671 -7.4856,-1.210894 -15.11577,-1.228405 -22.60685,-0.05188 -7.59343,1.192595 -14.39736,5.365134 -18.90321,11.592468 -3.90989,5.403677 -6.64611,11.565527 -8.03265,18.089642 z"
       sodipodi:nodetypes="ccccccccccccccccccccccccccc" /><path
       d="m 1026.1947,5.6316976 c -0.7811,1.17e-5 -1.4908,0.4546864 -1.8174,1.16427 L 928.01829,216.29584 c -0.60945,1.32498 0.35865,2.83543 1.81746,2.83549 h 35.06763 c 0.79565,-5e-5 1.51618,-0.47236 1.83399,-1.20251 l 23.82594,-54.79718 h 50.17269 l 0.9441,54.03443 c 0.018,1.09086 0.9083,1.96521 1.9988,1.96526 h 37.946 c 1.1387,-6e-5 2.0478,-0.94952 1.9978,-2.08721 L 1074.476,7.5442424 c -0.047,-1.0696271 -0.9274,-1.9125413 -1.9978,-1.9125448 z m 10.8293,56.4999104 3.9765,64.999652 h -34.2873 z"
       style="display:inline;fill:url(#linearGradient12);stroke:#000000;stroke-width:3.5;stroke-linecap:round;stroke-dasharray:none;stroke-linejoin:round"
       id="path6" /><path
       id="path171"
       style="display:inline;fill:url(#linearGradient13);fill-opacity:1;stroke:#000000;stroke-width:3.5;stroke-linecap:round;stroke-dasharray:none;stroke-linejoin:round"
       d="M 1152.7263,187.13156 1191.7049,6.8428088 c 0.1348,-0.622998 -0.3399,-1.2113172 -0.9769,-1.211333 h -33.0464 c -0.4712,1.3e-5 -0.8783,0.3284711 -0.9782,0.7886855 L 1110.9755,217.92011 c -0.1343,0.62304 0.3404,1.21136 0.9782,1.21142 h 111.9726 c 0.4623,-2e-5 0.8641,-0.31625 0.9729,-0.76514 l 7.2494,-30.00003 c 0.1515,-0.6292 -0.3252,-1.23486 -0.9729,-1.23484 z"
       sodipodi:nodetypes="cccccccccccc" /><path
       d="m 1345.214,5.1314697 c -31.4976,0 -60.9913,15.4509993 -78.9233,41.3457963 -0.5553,0.801252 0.533,1.710695 1.2226,1.021644 15.207,-15.182797 37.4762,-16.40761 53.048,-2.918685 15.5716,13.488742 20.05,37.88275 10.6753,58.116345 -9.3746,20.2336 -29.957,30.59808 -49.0394,24.68687 -19.0827,-5.91129 -31.2782,-26.42968 -29.0499,-48.878154 0.073,-0.741365 -1.0022,-0.925015 -1.1798,-0.201538 -12.2004,49.835472 16.9421,100.455442 66.1655,114.928902 12.5033,3.67642 22.4319,13.21365 26.6077,25.55916 0.1533,0.4529 0.7934,0.4529 0.9467,0 4.1758,-12.34551 14.1043,-21.88274 26.6076,-25.55916 49.2234,-14.47346 78.3659,-65.09343 66.1655,-114.928902 -0.1776,-0.723477 -1.2529,-0.539827 -1.1798,0.201538 2.2283,22.448474 -9.9672,42.966864 -29.0499,48.878154 -19.0824,5.91121 -39.6647,-4.45327 -49.0393,-24.68687 -9.3747,-20.233595 -4.8968,-44.627603 10.6748,-58.116345 15.5718,-13.488925 37.8414,-12.264112 53.0484,2.918685 0.6896,0.689051 1.778,-0.220392 1.2227,-1.021644 -17.932,-25.894797 -47.4258,-41.3457963 -78.9234,-41.3457963 z m 0,115.0002203 c 9.665,0 17.5002,10.0735 17.5002,22.49991 0,12.42641 -7.8352,22.49992 -17.5002,22.49992 -9.665,0 -17.5002,-10.07351 -17.5002,-22.49992 0,-12.42641 7.8352,-22.49991 17.5002,-22.49991 z"
       style="display:inline;fill:url(#linearGradient14);stroke:#000000;stroke-width:3.5;stroke-linecap:round;stroke-dasharray:none;stroke-linejoin:round"
       id="path7" /></g></svg>
