<?xml version="1.0" encoding="UTF-8" standalone="no"?>
<!DOCTYPE svg PUBLIC "-//W3C//DTD SVG 1.1//EN" "http://www.w3.org/Graphics/SVG/1.1/DTD/svg11.dtd">
<svg xmlns="http://www.w3.org/2000/svg" version="1.1" viewBox="0 0 1077 206">
<g fill="#ffffff">
<path d="
  M 73.06 0.00
  L 101.06 0.00
  C 131.35 6.97 167.70 34.69 171.84 67.41
  Q 174.27 86.63 171.98 104.75
  C 171.49 108.68 169.92 112.82 167.55 116.36
  Q 154.46 135.83 136.52 151.03
  Q 135.77 151.66 133.05 152.32
  C 128.05 153.54 126.87 158.07 122.39 159.98
  Q 122.04 160.13 117.63 161.53
  Q 84.97 171.94 52.69 160.89
  C 47.25 159.03 40.52 153.08 36.73 152.27
  Q 31.65 151.19 27.57 146.91
  C 11.80 130.40 -0.14 112.92 0.89 89.76
  Q 1.50 76.12 2.01 62.48
  C 2.16 58.63 1.98 59.25 3.94 56.15
  C 12.73 42.26 22.08 26.53 36.15 17.38
  Q 49.98 8.37 65.23 2.09
  A 1.02 0.95 -50.7 0 1 65.76 2.02
  C 68.76 2.49 70.16 0.58 73.06 0.00
  Z
  M 117.06 67.45
  C 108.35 53.56 94.52 43.91 77.83 49.02
  C 68.30 51.93 54.81 62.96 53.88 73.73
  C 52.05 94.73 57.72 116.67 83.01 117.69
  C 98.87 118.33 113.43 113.55 118.39 96.96
  C 121.05 88.08 122.25 75.72 117.06 67.45
  Z
  M 45.5157 68.6973
  A 5.30 2.10 -2.3 0 0 40.1357 66.8117
  A 5.30 2.10 -2.3 0 0 34.9243 69.1227
  A 5.30 2.10 -2.3 0 0 40.3043 71.0083
  A 5.30 2.10 -2.3 0 0 45.5157 68.6973
  Z"
/>
<path d="
  M 641.04 118.36
  A 1.00 1.00 0.0 0 0 642.02 119.32
  Q 678.10 120.19 714.18 119.99
  Q 716.83 119.98 716.75 122.39
  Q 716.11 141.52 715.30 162.00
  Q 715.18 165.09 711.97 165.27
  Q 704.68 165.67 697.44 165.73
  C 662.09 165.99 626.55 166.72 591.22 165.43
  Q 588.18 165.32 588.17 162.28
  Q 588.07 135.25 587.55 106.96
  C 587.45 102.03 588.04 96.44 588.00 91.16
  C 587.95 83.69 592.51 81.38 599.32 81.14
  Q 613.14 80.64 626.95 79.87
  C 628.78 79.77 630.14 78.82 631.64 77.94
  Q 633.61 76.78 631.42 76.12
  C 625.33 74.28 617.27 74.06 612.93 74.07
  Q 601.63 74.09 589.00 73.43
  A 1.01 1.00 -88.8 0 1 588.05 72.43
  Q 587.97 60.75 587.82 49.09
  C 587.68 38.64 586.90 22.87 587.62 9.68
  A 1.00 0.99 85.9 0 1 588.42 8.75
  Q 596.03 7.26 603.75 7.12
  Q 618.87 6.85 634.00 6.99
  Q 636.59 7.02 638.86 8.20
  A 1.04 0.99 89.3 0 1 639.30 8.65
  C 642.61 15.42 641.04 33.67 640.78 43.88
  Q 639.84 81.25 641.04 118.36
  Z"
/>
<path d="
  M 231.00 54.47
  A 1.01 0.99 31.0 0 0 231.79 54.28
  C 249.16 40.98 266.53 35.22 287.39 45.88
  C 303.65 54.19 314.46 71.78 316.86 89.65
  C 317.63 95.34 317.21 102.64 317.25 109.00
  Q 317.48 145.47 287.72 165.51
  C 279.83 170.82 274.66 167.30 269.67 160.33
  Q 262.70 150.63 257.21 140.06
  C 255.37 136.52 253.50 132.73 256.84 129.08
  C 263.77 121.53 272.10 114.21 269.72 102.66
  C 268.26 95.55 263.94 88.54 257.25 85.63
  C 250.66 82.76 242.19 84.92 235.26 86.22
  Q 224.18 88.28 222.22 77.58
  C 221.07 71.27 213.23 54.12 203.99 58.01
  Q 201.46 59.08 202.02 61.76
  Q 203.91 70.86 207.65 79.41
  C 210.79 86.59 217.19 95.93 220.97 104.92
  C 225.20 114.99 233.60 122.53 237.59 132.49
  C 241.49 142.21 252.43 148.56 255.09 158.61
  C 256.07 162.28 258.49 163.78 261.85 164.82
  A 1.02 1.00 -4.0 0 1 262.46 165.34
  C 264.76 170.10 261.42 171.58 257.44 170.70
  C 247.79 168.58 240.47 163.35 232.99 157.56
  Q 230.50 155.64 229.99 158.74
  C 227.89 171.39 229.13 185.29 228.50 198.21
  C 228.35 201.32 226.94 203.96 223.76 204.25
  Q 201.09 206.32 178.34 203.15
  Q 176.06 202.83 176.05 200.52
  Q 175.82 140.37 176.22 80.00
  C 176.26 75.16 176.98 70.09 176.97 65.57
  Q 176.93 54.20 177.17 43.11
  A 1.00 1.00 0.0 0 1 178.05 42.14
  C 192.93 40.33 208.01 41.82 222.92 42.40
  C 233.08 42.79 226.08 53.55 231.00 54.47
  Z"
/>
<path d="
  M 475.90 153.44
  C 483.61 149.78 490.73 144.00 498.07 139.52
  C 499.89 138.41 501.81 139.03 501.88 141.28
  Q 502.24 153.40 500.82 165.46
  A 1.01 0.99 -89.6 0 1 499.95 166.33
  C 488.97 167.71 477.11 167.02 465.09 166.98
  A 1.00 1.00 0.0 0 1 464.10 165.99
  L 464.08 164.89
  A 1.00 0.99 77.3 0 1 464.66 163.97
  L 468.59 162.11
  Q 471.37 160.79 469.39 157.95
  C 467.30 154.96 465.24 155.29 462.56 157.45
  Q 458.83 160.47 454.78 162.78
  A 1.00 1.00 0.0 0 1 453.34 162.22
  Q 452.46 159.53 452.35 156.75
  Q 449.81 93.30 451.43 45.25
  C 451.54 42.07 454.68 41.83 457.59 41.62
  C 471.70 40.61 485.62 41.93 499.96 42.10
  A 1.01 1.00 -7.8 0 1 500.91 42.81
  C 502.33 47.59 500.59 53.51 505.97 56.18
  A 1.00 1.00 0.0 0 0 507.05 56.06
  C 510.01 53.60 512.85 50.47 515.72 48.43
  C 528.37 39.43 549.19 38.40 563.26 45.50
  C 578.48 53.17 579.96 65.50 582.13 80.67
  Q 582.95 86.36 582.96 94.50
  Q 583.04 129.99 582.99 165.51
  A 1.00 1.00 0.0 0 1 581.99 166.50
  L 535.32 166.49
  Q 533.09 166.49 533.06 164.27
  Q 532.68 137.30 534.02 109.17
  C 534.31 102.98 540.93 99.22 545.43 96.14
  A 1.01 0.98 -9.6 0 0 545.82 95.61
  C 547.60 89.85 536.10 95.73 534.44 96.34
  A 1.01 1.01 0.0 0 1 533.47 96.18
  Q 528.87 92.45 524.15 88.91
  C 511.55 79.46 502.30 95.41 502.09 106.01
  Q 501.93 114.25 502.03 122.66
  Q 502.06 125.13 500.08 126.63
  Q 487.01 136.53 475.44 147.92
  Q 472.63 150.68 474.71 153.18
  A 1.00 0.99 -32.4 0 0 475.90 153.44
  Z"
/>
<path d="
  M 1077.00 73.31
  L 1077.01 163.39
  Q 1068.26 165.37 1059.25 165.25
  C 1055.34 165.20 1051.51 165.02 1048.28 162.44
  C 1044.75 159.62 1038.81 153.33 1034.24 153.19
  A 1.04 1.02 -62.4 0 0 1033.59 153.40
  Q 1028.87 157.07 1022.93 157.13
  A 1.00 0.94 26.5 0 0 1022.39 157.29
  C 1017.39 160.60 1012.38 164.50 1006.79 166.22
  C 979.42 174.64 943.86 162.73 950.73 126.97
  C 955.07 104.38 965.70 94.59 989.03 94.87
  C 999.77 95.00 1011.22 95.31 1021.42 94.18
  C 1025.65 93.71 1026.57 90.36 1025.07 86.82
  Q 1022.45 80.58 1015.66 79.08
  C 1002.42 76.13 990.58 75.88 978.59 79.02
  C 973.31 80.40 968.53 81.50 966.68 75.46
  C 965.50 71.60 957.59 51.59 964.98 52.04
  C 968.17 52.23 971.84 56.21 973.89 57.36
  Q 976.60 58.87 979.87 57.64
  A 0.99 0.99 0.0 0 0 980.45 56.36
  L 976.92 46.79
  Q 975.90 44.02 978.92 42.93
  C 982.54 41.63 986.41 41.60 990.39 41.39
  Q 1007.34 40.53 1024.29 41.17
  Q 1037.32 41.66 1044.05 43.73
  C 1059.45 48.46 1068.36 59.51 1077.00 73.31
  Z
  M 998.56 107.17
  A 1.01 1.00 33.3 0 0 998.77 108.17
  C 1002.53 112.26 1001.68 116.52 999.59 121.65
  C 997.58 126.57 996.31 136.30 1003.20 138.46
  C 1008.42 140.09 1021.17 141.08 1024.46 135.17
  Q 1027.48 129.74 1027.71 121.73
  C 1027.81 118.21 1026.31 116.23 1023.55 114.44
  Q 1014.39 108.47 1004.58 103.57
  Q 1000.51 101.54 998.56 107.17
  Z
  M 1068.60 109.40
  Q 1069.43 107.84 1067.67 107.93
  L 1062.72 108.17
  Q 1060.71 108.27 1062.01 109.82
  Q 1065.91 114.45 1068.60 109.40
  Z
  M 1067.99 116.28
  A 1.00 0.99 -77.5 0 0 1067.25 115.10
  Q 1064.08 114.33 1060.84 114.86
  C 1056.39 115.57 1057.63 118.09 1061.13 119.74
  A 0.99 0.99 0.0 0 0 1062.08 119.68
  C 1062.68 119.32 1067.48 117.46 1067.83 116.74
  Q 1067.94 116.53 1067.99 116.28
  Z"
/>
<path d="
  M 323.28 83.80
  C 329.65 65.63 349.54 47.56 368.27 42.87
  C 385.61 38.52 417.42 41.92 429.01 57.91
  A 1.02 1.01 -47.9 0 1 429.06 59.01
  C 425.79 64.58 407.58 74.02 400.38 76.37
  C 393.74 78.55 384.82 70.80 379.11 76.12
  C 371.25 83.43 366.52 89.24 359.22 90.27
  C 351.46 91.36 319.07 95.79 323.28 83.80
  Z"
/>
<path d="
  M 752.90 57.70
  A 1.00 1.00 0.0 0 0 753.40 56.16
  Q 749.58 50.95 749.68 44.55
  A 1.03 1.03 0.0 0 1 749.98 43.85
  Q 751.72 42.15 754.31 41.96
  Q 781.71 39.92 807.01 41.72
  C 823.00 42.85 837.41 54.04 845.53 67.21
  C 847.91 71.08 848.99 72.13 849.00 76.00
  Q 849.01 119.76 848.99 163.07
  A 1.00 0.99 86.8 0 1 848.11 164.06
  C 841.42 164.86 834.21 165.75 827.67 165.03
  C 818.11 163.97 815.65 154.84 807.24 153.02
  A 1.03 1.00 33.7 0 0 806.47 153.16
  Q 803.53 155.12 800.36 156.38
  C 798.34 157.19 795.52 156.84 793.54 158.04
  C 789.78 160.31 785.13 164.75 779.11 166.48
  C 757.29 172.78 726.07 167.12 722.52 139.63
  C 721.60 132.47 723.55 124.63 725.63 117.42
  C 728.73 106.65 736.19 99.41 746.87 96.18
  Q 751.51 94.77 760.93 94.80
  C 772.02 94.83 782.83 95.38 793.92 94.10
  C 798.20 93.61 798.74 90.34 797.34 86.89
  Q 794.66 80.32 786.50 78.76
  Q 771.30 75.85 758.03 77.33
  C 754.41 77.74 750.29 79.92 747.18 80.23
  C 740.38 80.91 739.64 76.61 737.64 70.69
  Q 735.47 64.27 734.29 57.57
  C 733.43 52.65 736.74 50.30 740.75 53.52
  C 744.82 56.79 748.05 59.26 752.90 57.70
  Z
  M 774.43 114.05
  C 773.96 115.74 774.07 117.42 773.32 118.98
  C 770.33 125.24 767.58 136.82 777.58 139.08
  C 785.06 140.76 796.03 140.55 798.50 131.49
  C 800.08 125.67 802.09 118.25 796.09 114.40
  Q 787.48 108.87 776.83 103.57
  C 770.25 100.29 770.82 110.17 774.12 113.02
  A 1.01 1.01 0.0 0 1 774.43 114.05
  Z
  M 841.0470 109.9561
  A 3.12 1.96 2.5 0 0 838.0155 107.8619
  A 3.12 1.96 2.5 0 0 834.8130 109.6839
  A 3.12 1.96 2.5 0 0 837.8445 111.7781
  A 3.12 1.96 2.5 0 0 841.0470 109.9561
  Z
  M 839.64 115.03
  Q 835.63 114.10 831.56 115.21
  A 0.99 0.99 0.0 0 0 830.86 116.43
  Q 831.46 118.64 833.41 119.85
  A 1.03 1.02 46.4 0 0 834.42 119.88
  L 839.90 116.89
  Q 842.20 115.63 839.64 115.03
  Z"
/>
<path d="
  M 944.37 48.01
  C 945.56 58.60 945.02 69.77 945.02 84.83
  C 945.02 91.81 943.15 97.70 935.03 96.67
  C 929.65 95.98 921.68 100.42 917.58 103.35
  C 906.17 111.51 905.25 128.92 905.04 141.56
  C 905.02 143.13 905.25 168.67 901.93 165.73
  Q 900.50 164.45 900.44 162.54
  Q 900.02 147.94 899.19 133.59
  C 898.91 128.57 896.60 124.24 895.81 119.15
  C 895.06 114.38 891.77 111.98 891.13 107.70
  C 890.72 104.87 890.46 94.39 888.00 93.35
  A 1.00 0.98 38.9 0 0 887.06 93.44
  C 876.74 100.40 886.76 111.07 888.41 119.56
  C 889.02 122.74 887.88 125.26 886.47 127.98
  Q 885.30 130.25 886.71 132.49
  C 893.24 142.86 893.18 154.08 891.80 165.73
  Q 891.48 168.39 888.75 168.27
  L 855.37 166.80
  A 1.01 1.00 1.2 0 1 854.41 165.81
  Q 853.69 106.28 854.09 46.75
  Q 854.11 43.80 856.99 43.50
  C 871.96 41.95 887.49 42.90 902.63 43.08
  A 1.00 1.00 0.0 0 1 903.61 43.97
  Q 904.33 50.62 905.30 57.93
  Q 905.49 59.37 906.75 60.51
  A 1.02 1.01 43.5 0 0 908.13 60.48
  Q 910.41 58.23 912.29 55.78
  C 919.06 46.95 930.46 40.10 941.79 42.48
  C 945.36 43.23 944.09 45.59 944.37 48.01
  Z"
/>
<path d="
  M 402.34 85.49
  C 407.83 77.77 419.69 71.76 430.01 66.27
  C 434.51 63.87 436.18 65.18 438.57 69.25
  C 442.08 75.21 449.65 89.03 443.94 94.31
  A 0.99 0.99 0.0 0 1 443.45 94.55
  C 430.12 97.11 411.55 98.78 402.36 86.67
  A 1.00 1.00 0.0 0 1 402.34 85.49
  Z"
/>
<path d="
  M 333.93 102.36
  A 1.00 0.99 -71.9 0 1 335.02 101.80
  Q 340.85 102.90 345.96 100.21
  Q 348.93 98.65 349.06 101.99
  C 349.43 111.26 330.43 109.84 333.93 102.36
  Z"
/>
<path d="
  M 368.18 107.25
  A 1.01 0.99 -7.4 0 1 368.79 106.47
  C 374.46 104.11 379.87 102.92 385.78 101.94
  C 390.52 101.16 389.28 104.23 386.93 105.55
  C 384.61 106.85 367.14 114.45 368.18 107.25
  Z"
/>
<ellipse cx="0.00" cy="0.00" transform="translate(406.07,105.36) rotate(102.5)" rx="2.50" ry="2.06"/>
<ellipse cx="0.00" cy="0.00" transform="translate(395.79,107.51) rotate(67.9)" rx="2.89" ry="2.26"/>
<rect x="-2.14" y="-2.21" transform="translate(442.56,107.75) rotate(33.8)" width="4.28" height="4.42" rx="1.39"/>
<path d="
  M 327.45 133.69
  Q 333.84 127.23 338.68 123.92
  C 345.95 118.95 358.18 121.42 365.81 124.28
  C 370.31 125.96 374.32 130.49 378.05 133.47
  Q 378.22 133.61 378.44 133.66
  C 389.48 136.43 402.68 136.38 412.25 129.46
  C 415.95 126.78 418.49 125.75 422.17 128.59
  C 427.57 132.76 432.80 136.49 437.76 141.27
  Q 442.42 145.77 438.02 150.77
  C 423.73 166.98 405.60 172.45 384.50 172.12
  C 359.91 171.73 337.52 156.86 327.25 134.81
  A 1.00 0.99 55.2 0 1 327.45 133.69
  Z"
/>
</g>
</svg>
