<?xml version="1.0" encoding="UTF-8" standalone="no"?>
<!-- Created by ERK -->

<svg
   width="1280.0006mm"
   height="325.0192mm"
   viewBox="0 0 1280.0006 325.0192"
   version="1.1"
   id="svg1"
   inkscape:version="1.3.2 (091e20e, 2023-11-25, custom)"
   xml:space="preserve"
   sodipodi:docname="openjk.svg"
   xmlns:inkscape="http://www.inkscape.org/namespaces/inkscape"
   xmlns:sodipodi="http://sodipodi.sourceforge.net/DTD/sodipodi-0.dtd"
   xmlns="http://www.w3.org/2000/svg"
   xmlns:svg="http://www.w3.org/2000/svg"><sodipodi:namedview
     id="namedview1"
     pagecolor="#ffffff"
     bordercolor="#000000"
     borderopacity="0.25"
     inkscape:showpageshadow="2"
     inkscape:pageopacity="0.0"
     inkscape:pagecheckerboard="true"
     inkscape:deskcolor="#d1d1d1"
     inkscape:document-units="mm"
     inkscape:zoom="0.35355339"
     inkscape:cx="2463.56"
     inkscape:cy="832.97179"
     inkscape:window-width="2560"
     inkscape:window-height="1351"
     inkscape:window-x="-9"
     inkscape:window-y="-9"
     inkscape:window-maximized="1"
     inkscape:current-layer="g1"
     showgrid="false" /><defs
     id="defs1"><marker
       id="DistanceX"
       orient="auto"
       refX="0"
       refY="0"
       style="overflow:visible"><path
         d="M 3,-3 -3,3 M 0,-5 V 5"
         style="stroke:#000000;stroke-width:0.5"
         id="path1" /></marker><pattern
       id="Hatch"
       patternUnits="userSpaceOnUse"
       width="8"
       height="8"
       x="0"
       y="0"><path
         d="M8 4 l-4,4"
         stroke="#000000"
         stroke-width="0.25"
         linecap="square"
         id="path2" /><path
         d="M6 2 l-4,4"
         stroke="#000000"
         stroke-width="0.25"
         linecap="square"
         id="path3" /><path
         d="M4 0 l-4,4"
         stroke="#000000"
         stroke-width="0.25"
         linecap="square"
         id="path4" /></pattern><symbol
       id="*Model_Space" /><symbol
       id="*Paper_Space" /><symbol
       id="*Paper_Space0" /><marker
       id="DistanceX-9"
       orient="auto"
       refX="0"
       refY="0"
       style="overflow:visible"><path
         d="M 3,-3 -3,3 M 0,-5 V 5"
         style="stroke:#000000;stroke-width:0.5"
         id="path1-4" /></marker><pattern
       id="Hatch-8"
       patternUnits="userSpaceOnUse"
       width="8"
       height="8"
       x="0"
       y="0"><path
         d="M8 4 l-4,4"
         stroke="#000000"
         stroke-width="0.25"
         linecap="square"
         id="path2-8" /><path
         d="M6 2 l-4,4"
         stroke="#000000"
         stroke-width="0.25"
         linecap="square"
         id="path3-2" /><path
         d="M4 0 l-4,4"
         stroke="#000000"
         stroke-width="0.25"
         linecap="square"
         id="path4-4" /></pattern><symbol
       id="*Model_Space-5" /><symbol
       id="*Paper_Space-5" /><symbol
       id="*Paper_Space0-1" /><marker
       id="DistanceX-2"
       orient="auto"
       refX="0"
       refY="0"
       style="overflow:visible"><path
         d="M 3,-3 -3,3 M 0,-5 V 5"
         style="stroke:#000000;stroke-width:0.5"
         id="path1-7" /></marker><pattern
       id="Hatch-9"
       patternUnits="userSpaceOnUse"
       width="8"
       height="8"
       x="0"
       y="0"><path
         d="M8 4 l-4,4"
         stroke="#000000"
         stroke-width="0.25"
         linecap="square"
         id="path2-5" /><path
         d="M6 2 l-4,4"
         stroke="#000000"
         stroke-width="0.25"
         linecap="square"
         id="path3-4" /><path
         d="M4 0 l-4,4"
         stroke="#000000"
         stroke-width="0.25"
         linecap="square"
         id="path4-3" /></pattern><symbol
       id="*Model_Space-1" /><symbol
       id="*Paper_Space-2" /><symbol
       id="*Paper_Space0-3" /><marker
       id="DistanceX-8"
       orient="auto"
       refX="0"
       refY="0"
       style="overflow:visible"><path
         d="M 3,-3 -3,3 M 0,-5 V 5"
         style="stroke:#000000;stroke-width:0.5"
         id="path1-74" /></marker><pattern
       id="Hatch-2"
       patternUnits="userSpaceOnUse"
       width="8"
       height="8"
       x="0"
       y="0"><path
         d="M8 4 l-4,4"
         stroke="#000000"
         stroke-width="0.25"
         linecap="square"
         id="path2-7" /><path
         d="M6 2 l-4,4"
         stroke="#000000"
         stroke-width="0.25"
         linecap="square"
         id="path3-7" /><path
         d="M4 0 l-4,4"
         stroke="#000000"
         stroke-width="0.25"
         linecap="square"
         id="path4-9" /></pattern><symbol
       id="*Model_Space-3" /><symbol
       id="*Paper_Space-1" /><symbol
       id="*Paper_Space0-9" /></defs><g
     id="g1"
     inkscape:label="Logo"
     transform="translate(0,-2.9016218e-4)"><path
       id="path140"
       style="display:inline;fill:#000000;fill-opacity:1;stroke:none;stroke-width:0.944827;stroke-linecap:round"
       d="m 1232.4727,19.027592 c 18.7774,4e-6 33.9997,15.222322 33.9994,33.999995 V 248.52763 c 3e-4,18.77764 -15.222,33.99996 -33.9994,34.00001 H 48.47237 c -18.777639,-5e-5 -33.999957,-15.22237 -33.999955,-34.00001 V 53.027587 c -10e-7,-18.777673 15.222316,-33.99999 33.999955,-33.999995 l 51.002628,-3e-6 V 5.0275856 l -51.002628,5.3e-6 C 21.962745,5.0275965 0.47241366,26.517928 0.47241355,53.027587 V 248.52763 C 0.472413,275.03726 21.962744,296.52759 48.47237,296.52746 H 1232.4727 c 26.5094,1.3e-4 47.9997,-21.4902 48.0003,-47.99983 V 53.027587 c -6e-4,-26.50966 -21.4909,-47.9999914 -48.0003,-47.9999961 L 457.65241,5.027264 v 14.000325 z"
       sodipodi:nodetypes="ccccccccccccccccccccc"
       inkscape:label="Border"
       transform="translate(-0.47241354,28.491736)" /><g
       id="g2"
       inkscape:label="Jedi"><path
         id="path150"
         style="fill:#000000;fill-opacity:1;stroke:none;stroke-width:0.944827;stroke-linecap:round"
         d="M 122.49997,108.76425 107.74998,95.019415 h 53.00001 L 146,108.76425 v 135.79158 c 0,18.02584 -14.68532,32.6002 -32.71067,32.46354 l -33.289386,4e-5 19.610912,-25.61193 14.355104,15.63347 c 5.17806,-2.22454 8.53404,-7.31886 8.53402,-12.95455 z"
         inkscape:label="J"
         sodipodi:nodetypes="ccccccccccc" /><path
         id="path22-7"
         style="fill:#000000;fill-opacity:1;stroke:none;stroke-width:0.944827;stroke-linecap:round"
         d="m 260.50002,238.0193 h -91.75009 l 14.74999,-13.74484 V 108.76425 L 168.74993,95.019415 h 91.75009 v 30.999905 l -17.38657,-17.25507 h -36.1135 v 46.255 h 26.00007 L 245.5,141.37786 v 42.2828 l -12.49998,-13.64139 h -26.00007 v 54.25519 h 36.1135 l 17.38657,-17.25507 z"
         inkscape:label="E"
         sodipodi:nodetypes="ccccccccccccccccccc" /><path
         id="path9"
         style="display:inline;stroke-width:0.944827;stroke-linecap:round"
         d="m 269.49931,95.019523 14.75052,13.744897 v 115.51026 l -14.75052,13.74438 h 53.0009 c 9.39605,1e-5 17.88227,-0.73211 25.9178,-3.63233 10.28263,-3.71126 19.82738,-10.97238 26.6299,-20.36103 2.55556,-3.52709 4.72406,-7.35459 6.57686,-11.35228 11.74319,-25.33781 10.803,-57.51818 -4.40904,-80.45556 -7.09856,-10.70354 -17.3048,-19.39433 -28.79772,-23.566 -8.08318,-2.934007 -16.80292,-3.632379 -25.9178,-3.632337 z m 38.2509,13.744897 h 5.05085 c 4.34699,3e-5 8.99907,0.29559 13.59194,1.13275 6.16649,1.12399 12.22657,3.22414 16.99431,6.82077 9.83248,7.41727 14.16973,21.199 16.19694,34.1142 1.6842,10.7299 1.774,20.86165 0,31.37431 -1.92175,11.38834 -6.03094,23.22357 -13.54749,31.51074 -1.24015,1.36729 -2.57296,2.63833 -4.05712,3.72225 -4.36186,3.18565 -10.03028,4.75768 -15.58664,5.70198 -4.59827,0.78146 -9.11993,1.1327 -13.59194,1.13275 l -5.05085,5.1e-4 z"
         inkscape:label="D"
         sodipodi:nodetypes="ccccsssssscccssssssssccc" /><path
         id="path40"
         style="fill:#000000;fill-opacity:1;stroke:none;stroke-width:0.944827;stroke-linecap:round"
         d="M 405.24906,224.27446 V 108.76425 L 390.50119,95.019415 h 52.99868 l -14.75052,13.744835 v 115.51021 l 14.75052,13.74484 h -52.99868 z"
         inkscape:label="I"
         sodipodi:nodetypes="ccccccccc" /></g><g
       id="g3"
       inkscape:label="Knight"><path
         id="path21-0"
         style="fill:#000000;fill-opacity:1;stroke:none;stroke-width:0.944827;stroke-linecap:round"
         d="m 612.96547,238.0193 0.22489,-13.74484 -45.9396,-57.7551 v 57.7551 l 14.75052,13.74484 h -53.00133 l 14.75052,-13.74484 V 108.76426 L 528.99995,95.019416 h 53.00133 l -14.75052,13.744844 v 49.81257 L 618.04018,108.76426 603.2923,95.019416 h 44.62727 l -61.1161,59.939234 66.0691,83.06065 z"
         inkscape:label="K"
         sodipodi:nodetypes="cccccccccccccccccc" /><path
         id="path18"
         style="fill:#000000;fill-opacity:1;stroke:none;stroke-width:0.944827;stroke-linecap:round"
         d="M 759.10278,108.76426 V 254.08639 L 680.56916,128.0455 v 96.11413 l 14.34306,13.85967 h -44.18277 l 11.8401,-13.71045 V 108.76426 l -11.8401,-13.744844 h 38.49952 l 53.87181,89.658294 V 108.76426 L 728.3529,95.019416 h 45.49775 z"
         inkscape:label="N"
         sodipodi:nodetypes="ccccccccccccccc" /><path
         id="path79"
         style="fill:#000000;fill-opacity:1;stroke:none;stroke-width:0.944827;stroke-linecap:round"
         d="M 798.25056,224.27446 V 108.76425 L 783.50004,95.019415 h 52.99868 l -14.74787,13.744835 v 115.51021 l 14.74787,13.74484 h -52.99868 z"
         inkscape:label="I"
         sodipodi:nodetypes="ccccccccc" /><path
         id="path88"
         style="fill:#000000;fill-opacity:1;stroke:none;stroke-width:0.944827;stroke-linecap:round"
         d="m 869.2498,227.98219 c -11.07649,-6.58632 -20.29487,-16.44109 -26.11871,-28.03322 -8.5601,-17.03848 -9.78665,-37.83036 -3.98177,-56.17583 4.39057,-13.87577 12.80369,-26.352 24.26467,-35.00884 11.2903,-8.5279 25.5384,-13.349338 39.64623,-13.74497 12.66076,-0.355047 25.20857,2.854349 36.40969,8.50005 l -6.5e-4,32.99993 -24.64633,-24.64802 c -3.30594,-2.39043 -7.3387,-3.09234 -11.37515,-3.10699 -3.70033,-0.0134 -7.40376,0.5507 -10.7845,1.86455 -6.46951,2.51422 -11.75742,7.77388 -15.95588,13.56647 -5.04307,6.95788 -8.51432,14.68466 -10.58503,22.82166 -3.70073,14.54218 -2.9282,30.3946 1.91916,44.91866 2.78058,8.3315 6.90202,16.22589 13.20424,22.1538 4.71046,4.43068 10.63919,7.76279 17.01882,9.05213 8.19322,1.65587 17.1301,-0.0576 23.70554,-5.12218 l -4.1e-4,-43.99936 -14.74787,-13.74484 h 53.49875 l -14.75053,13.74484 2.4e-4,53.49929 c -22.81623,13.7242 -53.76037,14.11546 -76.72051,0.46287 z"
         inkscape:label="G"
         sodipodi:nodetypes="ssssscccsssssssccccccs" /><path
         id="path108"
         style="fill:#000000;fill-opacity:1;stroke:none;stroke-width:0.944827;stroke-linecap:round"
         d="m 1038.2197,238.0193 14.7505,-13.74484 v -54.25519 h -49.5009 v 54.25519 l 14.7506,13.74484 h -52.99874 l 14.75052,-13.74484 V 108.76425 L 965.22116,95.019415 h 52.99874 l -14.7506,13.744835 v 46.255 h 49.5009 v -46.255 l -14.7505,-13.744835 h 53.0013 l -14.7505,13.744835 v 115.51021 l 14.7505,13.74484 z"
         inkscape:label="H"
         sodipodi:nodetypes="ccccccccccccccccccccc" /><path
         id="path120"
         style="fill:#000000;fill-opacity:1;stroke:none;stroke-width:0.944827;stroke-linecap:round"
         d="M 1136.7505,224.27446 V 108.01945 h -21.2513 l -17.9996,17.99987 V 95.019415 h 101.4995 v 30.999905 l -17.9996,-17.99987 h -21.2487 v 116.25501 l 14.9992,13.74484 h -52.9987 z"
         inkscape:label="T"
         sodipodi:nodetypes="ccccccccccccc" /></g><g
       id="g4"
       inkscape:label="StarWars"
       transform="translate(3.2461495)"><path
         d="m 99.774333,7.8988391 c -2.361218,0 -5.669837,1.2144589 -7.570258,2.6230599 -1.901228,1.408206 -4.649133,4.617747 -4.649133,9.041748 0,4.424 2.685475,7.863947 2.685475,7.863947 1.377181,1.706679 4.842893,5.287609 4.842893,5.287609 0.0786,0.08378 0.12567,0.193746 0.12567,0.314183 0,0.267065 -0.21469,0.486995 -0.48135,0.486995 L 63.073205,33.51653 V 47.516531 L 101.1201,47.51625 c 5.17282,-4.1e-5 8.0573,-2.816815 8.84801,-3.607113 0.78546,-0.78547 3.40329,-3.733196 3.40329,-8.618 0,-4.87957 -2.2251,-7.403144 -3.17814,-8.549526 -0.84829,-1.026343 -4.23024,-4.586322 -4.93716,-5.324665 -0.0857,-0.07338 -0.13539,-0.180382 -0.13615,-0.29324 0,-0.172796 0.0995,-0.3299 0.25134,-0.38226 h 18.32438 V 47.51625 h 14.08889 V 20.809515 h 17.10467 V 7.8988391 Z m 122.882287,16.2201239 -8.64378,0.0058 c 0,0 -0.23041,-0.06802 -0.23041,-0.329891 l -0.006,-4.361166 c 0,-0.261823 0.23041,-0.329891 0.23041,-0.329891 h 7.92678 c 0.92122,0 2.785,0.460803 2.785,2.591634 0,2.13084 -2.06236,2.424081 -2.06236,2.424081 m 11.40298,9.371638 c -2.3564,-0.01048 -2.52356,-0.947385 -2.52356,-1.083539 0,-0.240881 0.29283,-0.392734 0.29283,-0.392734 0.88496,-0.424152 2.69114,-1.832754 2.69114,-1.832754 3.83268,-2.983981 4.29348,-7.078082 4.29348,-9.271748 0,-2.199321 -0.33029,-6.089192 -4.26166,-9.497325 -3.93218,-3.40853 -8.91124,-3.5132576 -8.91124,-3.5132576 H 197.95974 V 47.292027 c 0,0.125678 0.11561,0.225577 0.24129,0.225577 h 15.40806 V 36.47512 c 0,-0.19898 0.29848,0 0.29848,0 l 8.02627,8.057702 c 2.85307,2.884479 7.57031,2.983973 7.57031,2.983973 h 23.69093 v -14.02484 h -19.13562 z m -58.57337,-2.483687 h -5.79595 c -0.2147,0 -0.35045,-0.230406 -0.35045,-0.450336 0,-0.08379 3.08347,-10.020567 3.08347,-10.020567 0.10997,-0.371784 0.14099,-0.382656 0.16234,-0.382656 h 0.006 c 0.021,0 0.0524,0.0109 0.16232,0.382656 0,0 3.08346,9.937186 3.08346,10.020567 0,0.21993 -0.14097,0.450336 -0.35043,0.450336 m 7.8007,-22.7588427 c -0.0568,-0.2009363 -0.23644,-0.342513 -0.44509,-0.350842 h -21.28216 c -0.20947,0.010484 -0.3875,0.1518538 -0.44511,0.3456085 0,0 -11.75382,38.8476422 -11.75382,38.9209602 0,0.193747 0.15709,0.350842 0.35044,0.350842 h 14.06834 c 0.1152,-0.03624 0.19858,-0.14662 0.22476,-0.267065 l 1.63902,-5.240482 c 0.0539,-0.129806 0.17893,-0.215911 0.31942,-0.219931 h 12.97351 c 0.14142,0.0096 0.26613,0.09609 0.32466,0.225172 l 1.67568,5.235241 c 0.0257,0.120849 0.10955,0.230406 0.21952,0.272299 l 13.84278,-0.0058 c 0.19346,0.005 0.35224,-0.152093 0.35083,-0.345608 0,-0.06282 -12.06278,-38.9209523 -12.06278,-38.9209523"
         id="path1-51"
         style="fill:#000000;stroke:none;stroke-width:0.402804"
         sodipodi:nodetypes="scsccssccscsccccccccccscccccssccsccscccsscsccccccccsscsscscccccssccccccccccc"
         inkscape:label="Star" /><path
         d="m 344.99006,31.008647 h -5.79513 c -0.20421,0 -0.35082,-0.230381 -0.35082,-0.450303 0,-0.07817 3.08365,-10.01984 3.08365,-10.01984 0.10996,-0.37176 0.12043,-0.382639 0.16231,-0.382639 h 0.006 c 0.0467,0 0.0524,0.0109 0.16192,0.382639 0,0 3.08365,9.941701 3.08365,10.01984 0,0.219922 -0.15708,0.450303 -0.35042,0.450303 m 7.81585,-22.7467241 c -0.0589,-0.201184 -0.23607,-0.3449894 -0.44506,-0.3613007 h -21.28103 c -0.2072,0.016509 -0.38347,0.1575412 -0.44506,0.356059 0,0 -11.76346,38.8343768 -11.76346,38.9080908 0,0.193326 0.15184,0.350413 0.35082,0.350413 h 14.06691 c 0.11304,-0.04713 0.19541,-0.147082 0.21992,-0.26704 l 1.63849,-5.234878 c 0.0514,-0.132562 0.17727,-0.221416 0.3194,-0.225552 l 12.97823,-0.01007 c 0.14097,0.0104 0.26704,0.109961 0.3194,0.235622 l 1.67514,5.23487 c 0.0262,0.120832 0.10996,0.230389 0.21992,0.272282 l 13.84177,-0.0058 c 0.19333,0 0.35605,-0.146612 0.35605,-0.34035 0,-0.0681 -12.05144,-38.9129202 -12.05144,-38.9129202 m 40.10152,15.8556452 -8.64356,0.0058 c 0,0 -0.22998,-0.06802 -0.22998,-0.329875 l -0.006,-4.360843 c 0,-0.261799 0.23039,-0.329867 0.23039,-0.329867 h 7.92581 c 0.92155,0 2.78519,0.46077 2.78519,2.591453 0,2.130675 -2.06262,2.423899 -2.06262,2.423899 m 41.44155,-3.376469 h 19.58494 L 453.93385,7.8990125 H 428.7528 c -2.35542,0 -5.66946,1.2147642 -7.56975,2.6228705 -1.9003,1.408106 -4.64883,4.617417 -4.64883,9.041095 0,4.423678 2.6857,7.863386 2.6857,7.863386 1.37669,1.706564 4.84257,5.26145 4.84257,5.26145 0.0785,0.08378 0.12566,0.193334 0.12566,0.3194 0,0.266643 -0.21467,0.481316 -0.48171,0.481316 h -19.39645 c -2.36107,-0.01048 -2.52339,-0.94732 -2.52339,-1.083465 0,-0.240856 0.29322,-0.392702 0.29322,-0.392702 0.8849,-0.424119 2.69054,-1.83263 2.69054,-1.83263 3.83241,-2.983758 4.29358,-7.07757 4.29358,-9.271079 0,-2.199156 -0.33027,-6.088754 -4.26176,-9.49664 -3.93148,-3.4082822 -8.91019,-3.5025345 -8.91019,-3.5025345 H 368.21327 V 47.288816 c 0,0.125274 0.1152,0.224751 0.24086,0.224751 H 383.8615 V 36.467459 c 0,-0.193334 0.29805,0 0.29805,0 l 8.0257,8.06235 c 2.85325,2.884281 7.57016,2.983758 7.57016,2.983758 l 30.34307,-0.0058 c 5.17767,0 8.05712,-2.816196 8.84736,-3.601616 0.78542,-0.790645 3.40828,-3.737753 3.40828,-8.622201 0,-4.879223 -2.23016,-7.376432 -3.18313,-8.522724 -0.84785,-1.026276 -4.22995,-4.607354 -4.93681,-5.350873 -0.0863,-0.07049 -0.13632,-0.17613 -0.13614,-0.287577 0,-0.173201 0.0995,-0.335117 0.25133,-0.38264 M 311.84005,47.512205 c 0.10472,0 0.17802,-0.0733 0.20944,-0.188504 0,0 11.92054,-39.1537687 11.92054,-39.1908324 0,-0.1047111 -0.0628,-0.2195094 -0.16232,-0.2299764 h -14.69525 c -0.0733,0 -0.12044,0.057618 -0.13615,0.1361368 0,0.00578 -3.04175,10.182153 -3.04175,10.187395 -0.021,0.08378 -0.0628,0.136136 -0.13614,0.136136 -0.0733,0 -0.13613,-0.0733 -0.14661,-0.136136 L 302.46908,8.0337873 c -0.0105,-0.068514 -0.0628,-0.1308951 -0.13614,-0.1308951 l -16.22902,-0.00578 c -0.0479,0.013125 -0.0867,0.048043 -0.10473,0.094252 l -2.85325,10.2292788 c -0.0157,0.08901 -0.0628,0.141371 -0.14138,0.141371 -0.0688,-0.0017 -0.12645,-0.05233 -0.13613,-0.120429 L 279.84237,8.0227755 c -0.007,-0.064139 -0.0566,-0.1154588 -0.12042,-0.1256616 h -15.66353 c -0.12839,0.00165 -0.23127,0.1068243 -0.23038,0.2352182 0,0.020967 0.006,0.062818 0.006,0.062818 L 275.9326,47.323147 c 0.0315,0.115195 0.10472,0.188497 0.20945,0.188497 l 13.00963,0.0058 c 0.0782,-0.0104 0.15709,-0.09949 0.17763,-0.193738 0.006,0 4.5284,-14.55911 4.5284,-14.55911 0.0262,-0.08902 0.0628,-0.140974 0.13614,-0.140974 0.0785,0 0.12083,0.06241 0.14137,0.135733 l 4.41321,14.627186 c 0.0264,0.0757 0.0979,0.126165 0.17802,0.12567 h 13.11437"
         style="fill:#000000;stroke:none;stroke-width:0.402775"
         id="path1-2"
         inkscape:label="Wars"
         sodipodi:nodetypes="csscsscscccccsscccccccccsccccccssccccsssccsscsccscccsscscccccsccccccscsccsccccccccccccccccccscccc" /></g></g></svg>
