<svg xmlns="http://www.w3.org/2000/svg" width="682.046" height="305.486">
    <g style="fill:#fff">
        <path style="color:#000;display:inline;overflow:visible;visibility:visible;fill:#fff;fill-opacity:1;fill-rule:nonzero;stroke:none;stroke-width:5.31496048;marker:none;enable-background:accumulate" d="M366.969 745.938v185.531h37l-.002-82.25 47.377 82.255 45.25-.006-42.226-73.994c18.42-10.081 30.351-29.686 30.351-52.162 0-32.787-26.588-59.375-59.375-59.375-.407 0-.813.02-1.219.031v-.03H403.97zm37 36.406h18.875c30.398.003 30.398 47.113 0 47.125h-18.875z" transform="matrix(.9615 0 0 .9633 -79.657 -673.504)"/>
        <path style="color:#000;display:inline;overflow:visible;visibility:visible;fill:#fff;fill-opacity:1;fill-rule:nonzero;stroke:none;stroke-width:0;marker:none;enable-background:accumulate" d="M259.719 740.063c-54.272 0-98.281 44.009-98.281 98.28 0 54.273 44.009 98.25 98.28 98.25 54.273 0 98.25-43.977 98.25-98.25 0-54.271-43.977-98.28-98.25-98.28zm0 37.218c33.724 0 61.062 27.339 61.062 61.063 0 33.724-27.338 61.062-61.062 61.062s-61.063-27.338-61.063-61.062 27.339-61.063 61.063-61.063zM640.344 740.938c-53.789 0-97.407 43.617-97.407 97.406 0 53.788 43.618 97.375 97.407 97.375 32.583 0 61.45-15.996 79.125-40.563l-30.063-21.406c-10.994 15.197-28.872 25.094-49.062 25.094-33.424 0-60.5-27.076-60.5-60.5s27.076-60.532 60.5-60.532c19.86 0 37.496 9.567 48.531 24.344l29.688-21.875c-17.746-23.876-46.185-39.343-78.22-39.343Z" transform="matrix(.9615 0 0 .9633 -79.657 -673.504)"/>
        <path style="color:#000;display:inline;overflow:visible;visibility:visible;fill:#fff;fill-opacity:1;fill-rule:nonzero;stroke:none;stroke-width:0;marker:none;enable-background:accumulate" d="M496.608-306.423h37.205v185.536h-37.205z" transform="matrix(.9615 0 0 .9633 -79.657 340.238)"/>
    </g>
    <path style="color:#000;display:inline;overflow:visible;visibility:visible;fill:#e41c1c;fill-opacity:1;fill-rule:nonzero;stroke:none;stroke-width:0;marker:none;enable-background:accumulate" d="M805.394 956.617h607.636v-35.001H881.407l148.194-196.075H980.05z" transform="matrix(.9615 0 0 .9633 -731.177 -655.85)"/>
</svg>
