<?xml version="1.0" encoding="UTF-8" standalone="no"?>
<!-- Created by ERK -->

<svg
   version="1.1"
   viewBox="0 0 746 480"
   id="svg49"
   sodipodi:docname="p2000t.svg"
   width="746"
   height="480"
   inkscape:version="1.3.2 (091e20e, 2023-11-25, custom)"
   xmlns:inkscape="http://www.inkscape.org/namespaces/inkscape"
   xmlns:sodipodi="http://sodipodi.sourceforge.net/DTD/sodipodi-0.dtd"
   xmlns="http://www.w3.org/2000/svg"
   xmlns:svg="http://www.w3.org/2000/svg">
  <defs
     id="defs49" />
  <sodipodi:namedview
     id="namedview49"
     pagecolor="#ffffff"
     bordercolor="#000000"
     borderopacity="0.25"
     inkscape:showpageshadow="2"
     inkscape:pageopacity="0.0"
     inkscape:pagecheckerboard="true"
     inkscape:deskcolor="#d1d1d1"
     inkscape:zoom="2.5824022"
     inkscape:cx="404.66198"
     inkscape:cy="262.35263"
     inkscape:window-width="2560"
     inkscape:window-height="1351"
     inkscape:window-x="-9"
     inkscape:window-y="-9"
     inkscape:window-maximized="1"
     inkscape:current-layer="svg49" />
  <g
     fill="#ff0000"
     id="g49"
     transform="translate(60.51,58.120016)"
     inkscape:label="Logo">
    <g
       id="g1"
       inkscape:label="Philips">
      <path
         d="M 438,36.01 V 42 a 1,0.99 -89.7 0 1 -1,1 l -6.35,-0.01 Q 430,42.99 430,42.34 V 6.5 a 0.39,0.39 0 0 1 0.37,-0.39 q 5.9,-0.33 11.86,-0.35 c 11.29,-0.02 18.44,9.52 14.38,20.31 -3,8 -10.54,8.91 -17.95,9.25 Q 438,35.35 438,36.01 Z m 0.01,-20.43 -0.02,9.96 a 1.63,1.63 0 0 0 1.63,1.63 l 1.31,0.01 a 6.32,6.22 0.1 0 0 6.33,-6.21 v -0.78 a 6.32,6.22 0.1 0 0 -6.31,-6.23 l -1.31,-0.01 a 1.63,1.63 0 0 0 -1.63,1.63 z"
         id="path1"
         inkscape:label="P" />
      <path
         d="M 471.29,43 H 462.7 A 0.7,0.7 0 0 1 462,42.3 V 6.71 a 0.7,0.7 0 0 1 0.7,-0.7 L 471.3,6 a 0.7,0.7 0 0 1 0.7,0.7 v 13.6 a 0.7,0.7 0 0 0 0.7,0.7 h 8.6 A 0.7,0.7 0 0 0 482,20.3 V 6.7 A 0.7,0.7 0 0 1 482.7,6 h 7.6 a 0.7,0.7 0 0 1 0.7,0.7 v 35.6 a 0.7,0.7 0 0 1 -0.7,0.7 h -7.6 A 0.7,0.7 0 0 1 482,42.3 V 29.7 A 0.7,0.7 0 0 0 481.3,29 l -8.59,0.01 a 0.7,0.7 0 0 0 -0.7,0.7 l -0.02,12.59 a 0.7,0.7 0 0 1 -0.7,0.7 z"
         id="path2"
         inkscape:label="H" />
      <rect
         x="500"
         y="7"
         width="10"
         height="36"
         rx="0.68000001"
         id="rect3"
         inkscape:label="I" />
      <path
         d="m 528.71,35.99 8.6,0.01 a 0.71,0.71 0 0 1 0.71,0.72 l -0.05,5.58 A 0.71,0.71 0 0 1 537.26,43 H 519.71 A 0.71,0.71 0 0 1 519,42.29 V 7.72 a 0.71,0.71 0 0 1 0.71,-0.71 L 527.29,7 A 0.71,0.71 0 0 1 528,7.71 v 27.57 a 0.71,0.71 0 0 0 0.71,0.71 z"
         id="path4"
         inkscape:label="L" />
      <rect
         x="543"
         y="7"
         width="9"
         height="36"
         rx="0.51999998"
         id="rect4"
         inkscape:label="I" />
      <path
         d="m 570.02,37.96 -0.06,4.35 Q 569.95,43 569.26,43 h -7.64 Q 561,43 561,42.38 V 7.32 a 0.65,0.64 0.9 0 1 0.67,-0.64 c 5.93,0.22 12.38,-0.21 18.13,1.64 9.92,3.19 13.24,12.81 8.5,21.51 -3.51,6.44 -9.88,6.98 -17.58,7.4 q -0.69,0.04 -0.7,0.73 z M 571,16.83 v 11.1 a 0.93,0.93 0 0 0 0.93,0.93 h 1.97 a 6.1,5.67 0 0 0 6.1,-5.67 v -1.62 a 6.1,5.67 0 0 0 -6.1,-5.67 h -1.97 A 0.93,0.93 0 0 0 571,16.83 Z"
         id="path3"
         inkscape:label="P" />
      <path
         d="m 603.28,18.61 a 1.68,1.68 0 0 0 0.71,2.61 c 5.98,2.31 14.54,4.5 14.4,12.59 -0.21,12.84 -14.59,13.36 -23.86,10.9 Q 594,44.57 594,44.02 V 37.5 a 0.49,0.49 0 0 1 0.49,-0.49 q 5.65,-0.01 11.26,-0.04 2.52,-0.02 3.04,-2.61 0.34,-1.7 -1.3,-2.25 C 602.08,30.3 595.85,28.93 594.15,22.6 590.74,9.94 605.51,5.96 614.56,9.18 Q 615,9.34 615,9.81 l -0.01,6.59 q 0,0.65 -0.65,0.6 c -4.08,-0.32 -7.94,-2.31 -11.06,1.61 z"
         id="path5"
         inkscape:label="S" />
    </g>
    <g
       id="g2"
       inkscape:label="P2000">
      <path
         d="M 11.52,358 H 9.94 L 9.38,357.68 Q 8.97,357.45 8.97,356.97 9.13,344.13 8.75,331.32 c -0.16,-5.24 0.78,-4.63 -3.34,-8.39 Q 5.03,322.59 5.03,322.07 L 4.98,106.86 q 0,-0.5 0.38,-0.84 l 3.26,-2.95 q 0.49,-0.44 0.47,-1.1 Q 8.56,84.21 9.07,66.49 C 9.11,65 9.95,64.5 11.31,65.13 a 1.04,1.04 0 0 1 0.6,0.94 l 0.08,35.84 a 2.21,2.19 -77.1 0 0 1.23,1.98 c 3.52,1.75 2.79,4.39 2.79,7.61 Q 15.99,213.07 16,314.64 c 0,1.92 0.38,4.97 -0.13,7.66 q -0.09,0.48 -0.49,0.77 c -2.67,1.9 -3.43,3.58 -3.36,7.03 q 0.3,13.97 -0.5,27.9 z"
         id="path7"
         inkscape:label="P1" />
      <path
         d="m 25.65,358 h -1.46 l -0.73,-0.31 Q 23,357.49 23,356.99 v -29.62 a 2.5,2.48 -69.1 0 0 -0.82,-1.85 L 19.49,323.1 Q 19,322.66 19,321.99 V 106.37 q 0,-0.66 0.6,-0.94 3.42,-1.6 3.39,-4.41 -0.24,-17.72 0.09,-35.4 0.01,-0.61 0.62,-0.61 h 1.58 q 0.71,0 0.71,0.72 0.02,17.29 0,34.56 c 0,2.72 1.07,3.82 3.17,5.17 q 0.42,0.27 0.62,0.74 c 0.87,2.15 0.23,4 0.23,5.65 Q 29.99,214.93 30,318 q 0,3.2 -0.18,4.77 -0.06,0.59 -0.6,0.86 c -2.28,1.13 -3.23,2.58 -3.19,5.25 q 0.2,14.57 -0.38,29.12 z"
         id="path8"
         inkscape:label="P2" />
      <path
         d="M 39.51,358 H 37.3 Q 36.78,342.76 37,327.5 c 0.03,-1.88 -2.55,-3.37 -3.67,-4.77 Q 33,322.32 33,321.8 V 107.06 q 0,-0.61 0.44,-1.04 l 3.08,-2.91 Q 37,102.65 37,101.99 V 65.63 Q 37,65 37.62,65 h 1.58 q 0.7,0 0.71,0.7 L 40,101.88 a 2.08,2.07 14.5 0 0 1.06,1.79 c 1.82,1.01 2.97,2.57 2.97,4.83 q -0.06,105.38 -0.02,210.75 0,2.34 -0.41,3.73 -0.15,0.53 -0.63,0.79 c -1.95,1.09 -2.98,2.34 -2.93,4.74 q 0.28,14.77 -0.53,29.49 z"
         id="path9"
         inkscape:label="P3" />
      <path
         d="M 52.94,358 H 51.13 L 50.9,243.75 q 0,-0.49 -0.36,-0.83 l -2.69,-2.57 q -0.36,-0.34 -0.37,-0.85 -0.44,-17.83 -0.37,-35.64 c 0.02,-3.67 3.87,-3.18 3.89,-7.04 q 0.09,-24.04 -0.33,-48.07 -0.01,-0.53 -0.36,-0.92 l -1.64,-1.82 q -0.34,-0.38 -0.34,-0.89 l -0.37,-38.1 q -0.01,-0.64 0.47,-1.06 l 3.15,-2.85 Q 52,102.73 52,102.15 51.99,84.56 52,67.02 c 0,-1.75 0.87,-2.61 2.57,-1.9 q 0.42,0.18 0.42,0.63 L 55,101.82 q 0,0.57 0.39,0.98 l 3.26,3.47 q 0.36,0.38 0.36,0.91 -0.03,18.19 0,36.31 c 0,2.46 -4,3.17 -4,7.13 Q 55,173.35 55,196.07 c 0,2.47 0.9,3.47 2.61,4.96 q 0.39,0.35 0.39,0.87 0,16.22 0,32.41 c 0,2.7 1.09,4.2 -1.39,6.38 -1.76,1.53 -2.61,2.84 -2.61,5.34 q 0.01,55.46 0,110.92 0,0.51 -0.47,0.75 z"
         id="path10"
         inkscape:label="P4" />
      <path
         d="M 68.91,358 H 66.08 Q 65.94,301.13 66,244.25 c 0,-2.42 -3.96,-2.84 -3.98,-6.47 q -0.07,-11.8 0.01,-23.59 C 62.05,210.74 62.5,206 61.9,201.67 a 1.23,1.23 0 0 1 1.06,-1.38 c 1.22,-0.15 1.69,-1.49 1.71,-2.66 Q 65.21,165.08 65,148.25 c -0.03,-1.84 -2.99,-3.98 -3,-6.75 q 0,-17.17 0,-34.42 a 2.02,2.02 0 0 1 0.98,-1.73 c 1.77,-1.06 3.01,-2.36 3.01,-4.63 Q 66,83.23 66,65.73 q 0,-0.7 0.7,-0.71 l 1.67,-0.03 Q 69,64.98 69,65.62 v 35.97 q 0,0.64 0.43,1.1 l 3.15,3.45 Q 73,106.6 73,107.22 v 36.65 q 0,0.54 -0.38,0.92 l -3.18,3.14 Q 69,148.37 69,149 v 48.3 a 2.3,2.29 23 0 0 0.65,1.6 c 3.47,3.57 3.2,6.85 3.28,12.6 0.12,8.09 -0.27,16.33 0.2,24.4 q 0.1,1.78 -0.39,3.55 -0.13,0.47 -0.52,0.78 C 70.3,241.73 69,243.07 69,245.74 Q 69.07,301.87 68.91,358 Z"
         id="path11"
         inkscape:label="P5" />
      <path
         d="m 82.9,358 h -2.21 l -0.35,-0.37 Q 80,357.27 80,356.78 V 243.91 q 0,-0.53 -0.38,-0.91 l -3.27,-3.27 Q 76,239.38 76,238.88 V 107.07 a 1.3,1.28 -22.9 0 1 0.38,-0.91 l 3.22,-3.17 q 0.4,-0.4 0.4,-0.96 V 65.67 q 0,-0.64 0.64,-0.65 l 1.73,-0.03 Q 83,64.98 83,65.62 v 35.89 q 0,1.09 0.8,1.85 l 2.79,2.64 q 0.41,0.39 0.41,0.96 v 131.72 q 0,0.61 -0.42,1.05 l -3.19,3.39 q -0.41,0.43 -0.41,1.03 z"
         id="path12"
         inkscape:label="P6" />
      <path
         d="m 97.19,358 h -1.75 q -0.46,-0.68 -0.46,-1 0.09,-56.62 -0.06,-113.26 0,-0.49 -0.35,-0.82 l -3.2,-3.07 Q 91,239.49 91,238.98 V 107.13 a 1.79,1.79 0 0 1 0.57,-1.31 L 94.59,103 Q 95,102.61 95,102.05 V 65.64 q 0,-0.54 0.54,-0.57 l 1.84,-0.09 Q 98,64.94 98,65.56 q 0.01,17.98 0,35.94 c 0,2.11 2.65,3.22 3.76,4.8 q 0.28,0.42 0.28,0.92 -0.08,63.45 -0.03,126.9 c 0,1.68 0.47,3.48 -0.29,5.46 q -0.18,0.48 -0.59,0.77 c -2.17,1.54 -3.13,3.07 -3.13,5.9 q 0.01,55.32 0,110.63 0,0.49 -0.39,0.79 z"
         id="path13"
         inkscape:label="P7" />
      <path
         d="m 112.92,358 h -2.84 l -0.06,-113.68 a 2.22,2.21 -67.8 0 0 -0.66,-1.58 l -2.98,-2.99 Q 106,239.38 106,238.84 V 107.08 a 1.4,1.39 68 0 1 0.42,-1 L 109.59,103 Q 110,102.6 110,102.04 V 65.67 q 0,-0.64 0.64,-0.65 l 1.76,-0.03 q 0.59,-0.01 0.6,0.59 0.01,17.97 -0.01,35.92 c 0,2.19 4,3.33 4,7.05 q 0.02,65.02 0.01,130.11 a 2.09,2.08 72.7 0 1 -0.89,1.71 c -1.93,1.36 -3.11,2.76 -3.11,5.32 q 0.06,56.15 -0.08,112.31 z"
         id="path14"
         inkscape:label="P8" />
      <path
         d="m 124.96,358 h -2.92 L 122.02,65.7 q 0,-0.67 0.67,-0.68 l 1.66,-0.03 q 0.61,-0.01 0.61,0.6 z"
         id="path15"
         inkscape:label="Space" />
      <path
         d="m 137.53,358 h -1.59 l -0.45,-0.31 q -0.41,-0.27 -0.42,-0.77 -0.45,-13.41 -0.3,-26.81 c 0.01,-1.24 0.79,-3.54 -0.66,-4.72 -1.78,-1.45 -2.78,-1.71 -2.81,-4.31 q -0.19,-17.67 -0.35,-35.33 c -0.03,-3.94 0.78,-4.26 3.54,-6.58 q 0.45,-0.38 0.45,-0.97 l -0.26,-84.92 q -0.01,-0.48 -0.42,-0.73 c -2.25,-1.36 -3.02,-2.72 -3.05,-5.48 q -0.38,-38.41 -0.17,-76.8 c 0.02,-2.94 -0.3,-4.83 2.77,-6.33 a 1.76,1.76 0 0 0 0.98,-1.56 l 0.18,-36.72 q 0,-0.69 0.69,-0.66 l 1.66,0.06 q 0.67,0.02 0.67,0.69 l 0.03,36.78 q 0,0.6 0.54,0.87 c 4.07,2.09 3.48,4.1 3.47,7.9 q -0.07,38.73 -0.02,77.52 a 2.35,2.34 77.1 0 1 -1.32,2.11 c -1.88,0.9 -2.66,2.7 -2.66,4.85 q -0.12,39.99 0.07,79.97 0.01,1.87 0.38,3.19 0.15,0.51 0.6,0.79 c 1.86,1.13 2.9,2.43 2.86,4.78 q -0.28,18.75 0.18,37.56 a 1.57,1.57 0 0 1 -0.86,1.45 c -2.44,1.24 -3.29,2.85 -3.23,5.69 q 0.28,14.42 -0.5,28.79 z"
         id="path16"
         inkscape:label="2_1" />
      <path
         d="m 151.51,358 h -2.21 q -0.52,-15.24 -0.3,-30.5 c 0.04,-2.83 -4.01,-3.2 -4.01,-6.81 Q 145,293.8 145,266.92 q 0,-0.5 0.35,-0.87 c 1.95,-2.01 3.91,-2.5 3.68,-5.8 -0.55,-7.68 -0.11,-17.23 -0.06,-23.5 0.14,-17.06 -0.72,-27.82 0.02,-40.62 0.15,-2.74 -0.66,-4.27 -2.98,-5.46 A 1.87,1.86 -76.4 0 1 145,189.01 v -81.93 a 1.4,1.39 68 0 1 0.42,-1 L 148.59,103 Q 149,102.6 149,102.04 V 65.68 q 0,-0.64 0.63,-0.65 l 1.34,-0.04 q 1,-0.03 1,0.98 l 0.03,35.74 a 1.82,1.79 22.7 0 0 0.52,1.24 l 3.05,3.05 q 0.43,0.43 0.43,1.03 0,39.13 0,78.25 c 0,2.38 0.89,3.75 -1.38,5.53 -1.59,1.25 -2.61,2.44 -2.61,4.64 q -0.02,31.9 0.04,63.8 0,1.93 0.49,3.77 0.14,0.52 0.62,0.77 2.78,1.44 2.79,3.64 c 0.04,18.23 0.37,36.54 0.03,54.76 q -0.02,0.58 -0.5,0.9 c -2.27,1.5 -3.51,3.03 -3.45,5.97 q 0.29,14.49 -0.52,28.94 z"
         id="path17"
         inkscape:label="2_2" />
      <path
         d="m 165.53,358 h -2.23 l -0.22,-31.15 q -0.01,-0.57 -0.43,-0.94 l -3.17,-2.79 Q 159,322.7 159,322.07 v -69.08 q 0,-0.46 0.32,-0.79 l 3.04,-3.18 q 0.38,-0.4 0.38,-0.95 l 0.3,-54.24 q 0,-0.46 -0.33,-0.78 l -3.32,-3.14 q -0.38,-0.36 -0.38,-0.88 l -0.03,-82.35 q 0,-0.56 0.48,-0.86 c 5.3,-3.33 3.17,-6.94 3.3,-11.63 q 0.38,-14.24 0.2,-28.44 0,-0.72 0.71,-0.73 l 1.69,-0.03 q 0.63,-0.01 0.63,0.62 l 0.03,36.89 q 0,0.58 0.5,0.85 c 4.66,2.55 3.5,5.09 3.49,9.36 q -0.02,37.15 0,74.28 c 0,2.45 -0.6,3.96 -2.78,4.97 a 2.12,2.1 -12.6 0 0 -1.22,1.91 q -0.02,26.84 -0.01,53.63 c 0.01,2.74 3.99,2.99 3.99,7.07 q -0.03,31.44 0.04,62.87 c 0.01,2.78 0.99,4.34 -1.55,6.47 -1.53,1.27 -2.49,2.28 -2.45,4.48 q 0.29,14.83 -0.5,29.61 z"
         id="path18"
         inkscape:label="2_3" />
      <path
         d="m 180.76,358 h -2.56 l -0.15,-30.88 q 0,-0.6 -0.42,-1.04 l -3.35,-3.47 q -0.36,-0.37 -0.35,-0.87 l 0.27,-88.05 q 0.01,-0.65 0.5,-1.08 l 2.65,-2.31 q 0.4,-0.35 0.41,-0.88 0.5,-38.24 -0.04,-76.45 c -0.07,-5.27 0.4,-4.12 -3.06,-7.97 q -0.35,-0.38 -0.35,-0.9 -0.14,-18.06 -0.44,-36.1 c -0.05,-2.46 2.53,-3.39 3.85,-5.32 q 0.28,-0.41 0.28,-0.91 v -36.1 q 0,-0.64 0.64,-0.65 l 1.73,-0.03 Q 181,64.98 181,65.62 v 36.29 a 1.89,1.89 0 0 0 0.97,1.65 c 3.67,2.03 3.11,5 3.08,9.46 q -0.11,15.24 -0.03,30.48 c 0.01,1.42 -2.84,3.55 -3.73,4.82 q -0.29,0.41 -0.29,0.9 v 79.51 a 2,1.99 -73.4 0 0 0.9,1.67 c 2.04,1.34 3.1,2.99 3.1,5.59 q -0.01,42.87 0.01,85.73 0,0.6 -0.42,1.02 l -3.26,3.38 q -0.38,0.4 -0.38,0.94 z"
         id="path19"
         inkscape:label="2_4" />
      <path
         d="m 194.77,358 h -2.47 l -0.24,-30.92 q 0,-0.56 -0.39,-0.96 l -3.24,-3.36 Q 188,322.32 188,321.71 v -34.56 q 0,-0.49 0.34,-0.84 l 3.25,-3.32 q 0.42,-0.44 0.42,-1.04 -0.03,-4.27 0,-8.44 c 0.01,-2 -2.69,-3.34 -3.75,-4.91 Q 188,268.21 188,267.75 V 213.1 a 1.52,1.52 0 0 1 0.47,-1.1 l 3.12,-3 q 0.41,-0.39 0.41,-0.96 v -58.75 a 2.2,2.17 -68 0 0 -0.65,-1.56 l -2.97,-2.98 Q 188,144.38 188,143.84 v -36.77 a 1.26,1.26 0 0 1 0.38,-0.9 l 3.22,-3.18 q 0.4,-0.4 0.4,-0.96 V 65.67 q 0,-0.64 0.64,-0.65 l 1.73,-0.03 Q 195,64.98 195,65.62 v 36.26 q 0,0.64 0.46,1.09 l 3.15,3.12 q 0.4,0.4 0.4,0.96 -0.03,18.26 0,36.44 c 0,2.89 -4,2.86 -4.01,6.71 q 0,28.53 0,57.05 0,0.65 0.77,2 0.25,0.43 0.67,0.7 2.55,1.65 2.55,3.86 0.02,27.02 0.01,54.13 a 2.01,2 -15 0 1 -1.01,1.74 c -4.33,2.47 -3.43,8.37 -2.83,12.5 q 0.08,0.53 0.46,0.91 l 3,3.03 q 0.43,0.43 0.42,1.03 -0.2,17.05 0.19,34.03 c 0.04,1.52 -3,3.77 -3.97,5.19 q -0.3,0.42 -0.3,0.94 z"
         id="path20"
         inkscape:label="2_5" />
      <path
         d="m 208.44,358 h -2.25 Q 205.85,342.75 206,327.5 c 0.02,-1.77 -2.69,-3.63 -3.75,-5.04 Q 202,322.12 202,321.7 v -34.65 a 1.96,1.95 -15.4 0 1 0.96,-1.68 c 1.78,-1.06 3.03,-2.37 3.03,-4.66 q 0.01,-11.88 0.01,-23.76 0,-0.57 -0.41,-0.98 l -3.21,-3.22 Q 202,252.37 202,251.84 V 107.08 a 1.4,1.39 68 0 1 0.42,-1 l 3.16,-3.07 q 0.41,-0.4 0.41,-0.98 0.03,-17.51 0,-35.01 c 0,-1.81 0.86,-2.7 2.62,-1.86 q 0.39,0.19 0.39,0.62 v 36.01 q 0,0.52 0.36,0.9 l 3.23,3.38 q 0.41,0.44 0.41,1.03 c 0,48.43 -0.59,96.95 -0.26,145.33 q 0,0.56 -0.42,0.93 l -2.93,2.58 Q 209,256.28 209,256.8 v 24.82 q 0,0.63 0.43,1.1 l 3.14,3.35 q 0.43,0.47 0.43,1.1 v 34.89 q 0,0.57 -0.42,0.96 l -3.22,3 q -0.36,0.34 -0.36,0.84 v 30.06 q 0,0.38 -0.24,0.68 z"
         id="path21"
         inkscape:label="2_6" />
      <path
         d="m 223.5,358 h -2.08 Q 220.69,342.77 221,327.5 c 0.04,-1.91 -2.53,-3.39 -3.66,-4.75 Q 217,322.34 217,321.8 v -34.98 q 0,-0.55 0.41,-0.91 l 3.09,-2.72 q 0.49,-0.43 0.48,-1.08 l -0.1,-46.67 q 0,-0.56 -0.49,-0.85 c -2.32,-1.39 -3.39,-2.71 -3.39,-5.6 q 0,-60.92 0,-121.91 a 2.02,2.02 0 0 1 0.98,-1.73 c 1.77,-1.06 3.01,-2.36 3.01,-4.63 q 0.03,-17.5 0,-35 0,-0.68 0.68,-0.7 l 1.55,-0.03 q 0.74,-0.01 0.74,0.73 l 0.05,36.24 a 1.83,1.82 -74.7 0 0 0.89,1.57 c 1.92,1.16 3.15,2.61 3.14,5.06 q -0.08,60.52 -0.03,121.03 c 0,4.16 -3.96,3.48 -4.01,8.98 q -0.18,21.77 0.07,43.62 a 1.55,1.54 -76 0 0 0.78,1.31 c 2.38,1.32 3.44,3.17 3.36,6.04 q -0.57,20.27 -0.14,29.61 c 0.25,5.32 -4.13,4.89 -4.04,9.03 q 0.31,14.92 -0.53,29.79 z"
         id="path22"
         inkscape:label="2_7" />
      <path
         d="m 238.77,358 h -2.34 q -0.76,-15.36 -0.42,-30.75 c 0.05,-2.4 -4.03,-3.03 -4.02,-6.75 q 0.03,-16.77 0,-33.56 a 1.77,1.75 -15.2 0 1 0.88,-1.52 c 1.93,-1.13 3.08,-2.28 3.09,-4.72 q 0.21,-38.51 -0.2,-77.02 -0.01,-0.51 -0.38,-0.87 l -2.86,-2.74 q -0.46,-0.44 -0.46,-1.07 l -0.09,-91.91 a 1.36,1.32 68.4 0 1 0.4,-0.96 L 235.59,103 Q 236,102.6 236,102.04 V 65.87 q 0,-0.7 0.69,-0.82 l 1.64,-0.27 q 0.67,-0.11 0.67,0.56 0.01,17.96 0,35.91 c 0,2.8 4,3.37 4,7.37 q 0,45.04 0,90.16 a 2.01,2.01 0 0 1 -0.94,1.7 c -2.04,1.29 -3.06,2.92 -3.06,5.5 q 0,37.51 0,75.02 0,0.75 0.68,2.09 0.23,0.46 0.65,0.74 2.7,1.82 2.69,4.16 -0.04,16.81 -0.01,33.68 a 2.46,2.44 69.4 0 1 -0.83,1.84 l -2.77,2.41 q -0.45,0.4 -0.46,1 z"
         id="path6"
         inkscape:label="2_8" />
      <path
         d="m 250.96,358 h -2.02 l -0.51,-0.29 q -0.45,-0.25 -0.45,-0.76 l 0.03,-291.2 q 0,-0.75 0.74,-0.75 h 1.55 q 0.69,0 0.69,0.7 z"
         id="path23"
         inkscape:label="Space" />
      <path
         d="m 262.94,358 h -0.75 l -0.61,-0.27 q -0.47,-0.21 -0.48,-0.72 -0.5,-22.11 -0.39,-28.26 c 0.07,-3.96 -1.43,-3.57 -3.45,-6.28 Q 257,322.13 257,321.7 V 106.88 q 0,-0.54 0.4,-0.91 l 3.08,-2.8 q 0.39,-0.36 0.39,-0.89 l 0.11,-36.61 q 0,-0.66 0.66,-0.66 h 1.66 q 0.6,0 0.6,0.6 l 0.11,36.1 a 1.82,1.81 -68.1 0 0 0.53,1.26 l 3.03,3.03 q 0.43,0.43 0.43,1.03 0,105.06 0,210.12 c 0,1.8 0.43,3.6 -0.34,5.63 q -0.19,0.49 -0.64,0.78 c -2.11,1.35 -3.02,2.72 -3.02,5.38 q 0.01,13.91 0,27.81 0,0.51 -0.43,0.81 z"
         id="path24"
         inkscape:label="0_1" />
      <path
         d="m 277.54,358 h -1.35 l -0.73,-0.32 Q 275,357.49 275,356.99 v -29.9 a 1.89,1.88 -68.8 0 0 -0.61,-1.39 l -2.99,-2.72 q -0.4,-0.35 -0.4,-0.89 l -0.01,-215.38 q 0,-0.57 0.47,-0.88 c 2.48,-1.68 3.52,-2.7 3.48,-5.95 q -0.23,-17.18 0.18,-34.29 0.01,-0.58 0.59,-0.58 h 1.64 q 0.65,0 0.65,0.65 v 36.08 a 2.64,2.63 14.4 0 0 1.37,2.31 c 4.21,2.3 2.63,6.06 2.63,9.63 q 0,104.08 0,208.25 a 2.07,2.07 0 0 1 -1.08,1.82 c -1.91,1.04 -2.92,2.47 -2.88,4.79 q 0.26,14.76 -0.5,29.46 z"
         id="path25"
         inkscape:label="0_2" />
      <path
         d="m 291.52,358 h -1.58 l -0.53,-0.36 q -0.41,-0.27 -0.41,-0.75 0,-14.7 0,-29.39 c 0,-1.96 -2.51,-3.36 -3.66,-4.75 Q 285,322.34 285,321.8 V 106.79 a 1.48,1.47 75.6 0 1 0.76,-1.29 c 4.81,-2.7 2.92,-6.58 2.95,-10.64 q 0.11,-14.61 0.36,-29.21 0.01,-0.62 0.64,-0.63 l 1.66,-0.03 Q 292,64.98 292,65.62 v 36.11 a 2.36,2.34 15.9 0 0 1.12,2 c 4.35,2.66 2.88,6.4 2.88,10.5 q 0,101.54 0,203.09 c 0,2.61 1.03,4.28 -1.38,6.35 -1.73,1.49 -2.64,2.65 -2.59,5.13 q 0.29,14.63 -0.51,29.2 z"
         id="path26"
         inkscape:label="0_3" />
      <path
         d="m 306.77,358 h -2.4 l -0.31,-30.96 q -0.01,-0.56 -0.4,-0.95 l -3.36,-3.35 q -0.36,-0.37 -0.36,-0.88 l 0.23,-38.07 q 0,-0.54 0.4,-0.91 l 2.94,-2.8 q 0.44,-0.42 0.44,-1.03 0.2,-61.63 -0.14,-123.23 c -0.01,-1.6 0.75,-3.56 -1.09,-4.81 -2.13,-1.45 -2.72,-2.23 -2.72,-4.99 q 0,-19.53 0,-39.14 a 1.61,1.6 -15.7 0 1 0.77,-1.37 c 1.94,-1.17 3.23,-2.38 3.23,-4.87 q 0,-17.46 0,-34.91 0,-0.7 0.7,-0.71 l 1.7,-0.03 q 0.59,-0.01 0.6,0.59 0.01,17.97 -0.01,35.92 c 0,1.8 2.79,3.43 3.77,4.96 q 0.24,0.37 0.24,0.81 v 40.41 q 0,0.61 -0.42,1.05 l -3.19,3.38 q -0.39,0.42 -0.39,1 0.01,62.7 0,125.39 c 0,1.43 2.83,3.6 3.76,4.88 q 0.28,0.39 0.28,0.89 -0.19,18.46 0.16,36.92 c 0.05,2.5 -4.21,3.5 -4.18,6.46 q 0.13,15.18 -0.25,30.35 z"
         id="path27"
         inkscape:label="0_4" />
      <path
         d="m 320.44,358 h -2.25 Q 317.85,342.75 318,327.5 c 0.02,-1.77 -2.69,-3.63 -3.75,-5.04 Q 314,322.12 314,321.7 v -37.59 a 1.77,1.75 68.8 0 1 0.56,-1.29 l 3.03,-2.82 q 0.41,-0.38 0.41,-0.94 0,-62.78 0,-125.56 c 0,-1.8 -2.75,-3.66 -3.75,-5.17 Q 314,147.95 314,147.49 v -40.41 a 1.4,1.39 68 0 1 0.42,-1 L 317.59,103 Q 318,102.6 318,102.04 V 65.67 q 0,-0.64 0.64,-0.65 l 1.73,-0.03 Q 321,64.98 321,65.62 v 36.16 q 0,0.53 0.36,0.91 l 3.23,3.39 q 0.42,0.43 0.42,1.03 -0.03,18.35 0,36.63 0,1.82 -0.37,4.54 -0.07,0.53 -0.45,0.92 l -2.8,2.86 q -0.39,0.4 -0.39,0.95 v 125.54 a 2.56,2.54 15.2 0 0 1.27,2.2 c 2.19,1.28 2.74,3.39 2.73,5.99 q -0.03,17.66 0.01,35.3 0,0.58 -0.41,0.96 l -3.24,3.02 q -0.36,0.34 -0.36,0.84 v 30.06 q 0,0.38 -0.24,0.68 z"
         id="path28"
         inkscape:label="0_5" />
      <path
         d="m 335.53,358 h -2.33 q -0.35,-15.25 -0.2,-30.5 c 0.02,-1.94 -2.53,-3.39 -3.67,-4.77 q -0.33,-0.39 -0.33,-0.91 0,-107.29 0,-214.57 c 0,-2.62 3.98,-2.68 3.99,-6.49 q 0.03,-17.52 0,-35.03 0,-0.7 0.7,-0.71 l 1.68,-0.03 Q 336,64.98 336,65.62 v 35.19 q 0,1.48 1.02,2.55 l 2.6,2.72 q 0.38,0.4 0.38,0.96 v 215.15 q 0,0.44 -0.36,0.7 c -2.38,1.71 -3.68,3.14 -3.61,6.34 q 0.28,14.41 -0.5,28.77 z"
         id="path29"
         inkscape:label="0_6" />
      <path
         d="m 348.76,358 h -2.57 q -0.34,-15.37 -0.18,-30.75 c 0.02,-2.48 -4.01,-2.96 -4.01,-6.56 q 0,-106.9 0,-213.8 0,-0.49 0.36,-0.82 l 3.18,-3.01 q 0.41,-0.38 0.41,-0.94 l 0.2,-36.56 q 0,-0.53 0.54,-0.54 l 1.66,-0.03 q 0.61,-0.01 0.61,0.61 l 0.02,36.06 q 0,0.54 0.36,0.94 l 3.3,3.61 q 0.36,0.4 0.36,0.93 v 214.69 q 0,0.49 -0.34,0.85 l -3.28,3.39 q -0.43,0.45 -0.43,1.07 z"
         id="path30"
         inkscape:label="0_7" />
      <path
         d="m 361.63,358 h -2.34 q -0.5,-15.24 -0.29,-30.5 c 0.02,-1.85 -2.56,-3.49 -3.68,-4.84 Q 355,322.27 355,321.77 V 106.96 a 1.69,1.68 -15.3 0 1 0.83,-1.45 c 2.15,-1.28 3.25,-2.73 3.2,-5.42 q -0.28,-17.24 0.04,-34.47 0.01,-0.59 0.6,-0.6 l 1.7,-0.03 Q 362,64.98 362,65.62 v 36.29 a 2.33,2.32 -78.2 0 0 1.39,2.13 c 1.53,0.68 2.61,2.27 2.61,4.1 q 0,106.94 0,213.97 a 1.85,1.84 76 0 1 -0.98,1.63 c -1.94,1.03 -3.04,2.47 -3,4.85 q 0.23,14.72 -0.39,29.41 z"
         id="path31"
         inkscape:label="0_8" />
      <path
         d="m 377.19,358 h -1.5 l -0.35,-0.37 Q 375,357.27 375,356.77 V 65.67 q 0,-0.64 0.64,-0.65 l 1.73,-0.03 Q 378,64.98 378,65.62 v 291.22 q 0,0.52 -0.41,0.84 z"
         id="path32"
         inkscape:label="Space" />
      <path
         d="m 390.76,358 h -2.57 l -0.15,-30.66 a 2.31,2.29 -67.7 0 0 -0.66,-1.59 l -3,-3 Q 384,322.38 384,321.84 V 107.07 a 1.75,1.72 -21.2 0 1 0.58,-1.29 l 3.01,-2.68 Q 388,102.73 388,102.18 V 65.63 Q 388,65 388.63,65 h 1.67 q 0.7,0 0.7,0.69 0.01,17.79 0,35.56 c -0.01,2.2 2.61,3.44 3.72,5.15 q 0.28,0.43 0.28,0.94 0,103.52 0,207.04 c 0,2.03 0.57,5.16 -0.09,7.91 q -0.11,0.47 -0.46,0.8 l -3.08,2.87 q -0.41,0.38 -0.41,0.95 z"
         id="path33"
         inkscape:label="0_1" />
      <path
         d="m 404.87,358 h -2.68 l -0.15,-30.95 q 0,-0.54 -0.37,-0.93 l -3.24,-3.36 Q 398,322.32 398,321.71 V 106.96 a 1.72,1.7 74.1 0 1 0.8,-1.45 c 1.9,-1.21 3.19,-2.41 3.19,-4.89 Q 402.01,83.77 402,66.91 c 0,-1.94 0.78,-2.26 2.58,-1.84 a 0.53,0.53 0 0 1 0.42,0.52 v 36.32 a 1.92,1.89 15 0 0 0.97,1.65 c 3.47,1.96 3.04,4.54 3.04,8.03 q -0.03,105.07 0,210.14 0,0.6 -0.42,1.03 l -3.18,3.26 q -0.44,0.44 -0.44,1.06 z"
         id="path34"
         inkscape:label="0_2" />
      <path
         d="m 418.76,358 h -2.07 l -0.35,-0.38 Q 416,357.27 416,356.78 v -29.82 q 0,-0.53 -0.36,-0.9 l -3.21,-3.28 Q 412,322.34 412,321.72 V 107.07 a 1.3,1.28 -22.9 0 1 0.38,-0.91 l 3.22,-3.17 q 0.4,-0.4 0.4,-0.96 V 65.67 q 0,-0.64 0.64,-0.65 l 1.73,-0.03 Q 419,64.98 419,65.62 v 35.89 q 0,1.09 0.8,1.85 l 2.79,2.64 q 0.41,0.39 0.41,0.96 v 214.68 a 2.58,2.55 -20.8 0 1 -0.88,1.93 l -2.71,2.35 q -0.45,0.39 -0.46,1 z"
         id="path35"
         inkscape:label="0_3" />
      <path
         d="m 433.64,358 h -1.7 l -0.53,-0.35 q -0.41,-0.27 -0.41,-0.76 -0.01,-14.82 0,-29.64 c 0,-1.7 -2.77,-3.18 -3.73,-4.62 Q 427,322.24 427,321.76 v -37.6 q 0,-0.54 0.38,-0.91 l 3.29,-3.3 q 0.33,-0.33 0.33,-0.8 l -0.13,-126.48 q 0,-0.54 -0.4,-0.9 l -2.87,-2.58 q -0.38,-0.33 -0.38,-0.84 l -0.3,-41.44 q 0,-0.52 0.39,-0.88 l 3.29,-3.01 q 0.4,-0.36 0.4,-0.9 V 65.64 q 0,-0.54 0.54,-0.57 l 1.81,-0.09 Q 434,64.94 434,65.6 v 35.46 q 0,1.48 1.07,2.51 l 2.64,2.53 q 0.35,0.34 0.35,0.83 l -0.09,41.05 q 0,0.56 -0.46,0.89 -3.48,2.48 -3.48,7.44 -0.06,61.12 -0.04,122.31 a 2.67,2.66 15.7 0 0 1.29,2.28 q 1.59,0.95 2.48,2.58 0.24,0.44 0.24,0.94 0,16.53 0.01,33.05 c 0,1.92 0.39,3.63 -0.45,5.64 q -0.21,0.49 -0.67,0.75 c -2.08,1.14 -2.9,2.46 -2.86,4.96 q 0.2,14.6 -0.39,29.18 z"
         id="path36"
         inkscape:label="0_4" />
      <path
         d="m 447.51,358 h -1.32 l -0.7,-0.3 q -0.48,-0.21 -0.49,-0.74 -0.01,-14.73 0,-29.46 c 0.01,-1.91 -2.54,-3.36 -3.68,-4.78 q -0.32,-0.4 -0.32,-0.91 0,-18.16 0,-36.31 c 0,-3.42 2.16,-3.48 3.72,-5.88 q 0.28,-0.42 0.28,-0.92 0.01,-52.43 0,-104.86 c 0,-4.6 -0.51,-12.87 -0.06,-19.35 0.3,-4.18 -3.95,-3.9 -3.95,-7.79 q 0.02,-19.86 0.01,-39.71 a 1.78,1.76 75 0 1 0.87,-1.53 c 2.16,-1.25 3.14,-2.67 3.13,-5.32 q 0,-16.57 -0.03,-34.03 a 1.04,1.03 78.3 0 1 0.62,-0.95 C 447,64.55 448,64.84 448,66.53 q 0,17.55 0,35.14 a 2.4,2.38 15.7 0 0 1.15,2.04 c 1.67,1.02 2.96,2.61 2.94,4.78 q -0.22,24.48 -0.08,36.76 0.03,2.15 -0.36,3.64 -0.13,0.51 -0.59,0.77 -3.05,1.73 -3.05,5.09 -0.02,61.72 0,123.44 c 0,2.5 3.98,3.9 3.98,6.81 q 0.02,16.36 0.01,32.71 c -0.01,1.22 0.45,2.82 -0.1,4.39 -0.98,2.77 -3.95,2.5 -3.87,6.3 q 0.3,14.83 -0.52,29.6 z"
         id="path37"
         inkscape:label="0_5" />
      <path
         d="m 462.76,358 h -1.82 l -0.59,-0.39 Q 460,357.37 460,356.95 v -29.87 q 0,-0.65 -0.45,-1.11 l -3.16,-3.23 q -0.39,-0.4 -0.39,-0.95 0,-106.27 0,-212.52 c 0,-4.28 1.1,-3.52 3.57,-6.23 q 0.4,-0.43 0.4,-1.02 l 0.15,-36.41 q 0,-0.58 0.58,-0.59 l 1.71,-0.03 q 0.52,-0.01 0.52,0.52 0.06,17.04 0.07,34.09 c 0.01,3.23 1.19,4.68 3.57,6.48 q 0.43,0.33 0.43,0.87 v 214.76 q 0,0.61 -0.43,1.06 l -3.24,3.35 q -0.38,0.39 -0.38,0.94 z"
         id="path38"
         inkscape:label="0_6" />
      <path
         d="m 475.65,358 h -2.36 l -0.23,-30.84 q -0.01,-0.64 -0.45,-1.1 l -3.27,-3.39 Q 469,322.32 469,321.83 v -214.8 a 1.93,1.93 0 0 1 1,-1.69 c 4.4,-2.45 2.68,-6.15 2.71,-9.84 q 0.11,-14.93 0.36,-29.84 0.01,-0.63 0.64,-0.64 l 1.66,-0.03 Q 476,64.98 476,65.62 v 35.19 q 0,1.48 1.02,2.55 l 2.59,2.71 q 0.38,0.4 0.38,0.96 l 0.02,215.15 q 0,0.57 -0.48,0.88 c -2.32,1.54 -3.56,3.04 -3.51,6.04 q 0.21,14.46 -0.37,28.9 z"
         id="path39"
         inkscape:label="0_7" />
      <path
         d="m 488.44,358 h -2.26 l -0.15,-30.72 q 0,-0.52 -0.3,-0.94 c -1.02,-1.44 -3.59,-3.09 -3.59,-4.84 Q 482,214.23 481.98,106.97 q 0,-0.5 0.35,-0.84 l 3.26,-3.11 q 0.41,-0.4 0.41,-0.97 V 65.66 Q 486,65 486.66,65 h 1.71 q 0.63,0 0.63,0.62 0.01,17.83 0,35.63 c 0,1.8 2.74,3.65 3.74,5.17 q 0.26,0.38 0.26,0.84 v 214.8 q 0,0.57 -0.41,0.96 l -3.23,3 q -0.36,0.34 -0.36,0.84 v 30.06 q 0,0.38 -0.24,0.68 z"
         id="path40"
         inkscape:label="0_8" />
      <path
         d="m 504.44,358 h -1.75 l -0.35,-0.37 Q 502,357.27 502,356.77 V 65.62 Q 502,65 502.63,65 h 1.67 q 0.69,0 0.69,0.7 0.01,145.61 0.01,291.23 c 0,0.54 -0.22,0.71 -0.56,1.07 z"
         id="path41"
         inkscape:label="Space" />
      <path
         d="m 517.53,358 h -1.59 l -0.57,-0.39 q -0.4,-0.27 -0.41,-0.76 l -0.22,-30.52 q -0.01,-0.39 -0.3,-0.64 l -2.99,-2.57 q -0.39,-0.33 -0.39,-0.84 l -0.09,-214.9 a 2.45,2.45 0 0 1 0.81,-1.82 l 2.61,-2.35 q 0.36,-0.33 0.36,-0.81 l 0.2,-36.71 q 0,-0.68 0.67,-0.68 h 1.66 q 0.72,0 0.72,0.72 0.01,17.31 -0.01,34.59 c 0,2.67 1.07,3.84 3.18,5.1 q 0.43,0.26 0.62,0.73 c 0.9,2.3 0.21,4.48 0.21,6.28 q 0,104.81 0,209.69 a 1.72,1.71 77.6 0 1 -0.99,1.56 c -2.25,1.06 -3.04,2.93 -2.99,5.48 q 0.3,14.45 -0.49,28.84 z"
         id="path42"
         inkscape:label="0_1" />
      <path
         d="m 531.53,358 h -2.23 q -0.52,-15.24 -0.3,-30.5 c 0.02,-1.93 -2.52,-3.38 -3.66,-4.75 Q 525,322.34 525,321.8 V 107.08 a 1.57,1.54 -22.5 0 1 0.47,-1.11 l 2.97,-2.82 q 0.39,-0.37 0.39,-0.9 l 0.15,-36.57 q 0.01,-0.65 0.65,-0.66 l 1.74,-0.03 Q 532,64.98 532,65.62 v 36.1 a 2.33,2.31 15 0 0 1.17,2.01 c 1.66,0.96 2.83,2.39 2.83,4.5 q 0.01,103.08 0,206.15 c 0,1.97 0.48,5.2 -0.06,7.9 q -0.1,0.51 -0.53,0.81 c -2.25,1.58 -3.44,3.05 -3.38,6.02 q 0.28,14.47 -0.5,28.89 z"
         id="path43"
         inkscape:label="0_2" />
      <path
         d="m 545.65,358 h -2.35 l -0.24,-30.66 a 2.34,2.31 -69.6 0 0 -0.77,-1.71 l -2.8,-2.53 Q 539,322.65 539,321.99 V 107.2 a 2.44,2.44 0 0 1 1.18,-2.09 c 1.71,-1.04 2.81,-2.1 2.81,-4.3 q 0.02,-17.55 0,-35.09 0,-0.69 0.69,-0.7 l 1.72,-0.03 q 0.59,-0.01 0.59,0.59 0.03,17.35 0,34.7 c 0,2.73 1.07,3.83 3.17,5.18 q 0.43,0.27 0.61,0.75 c 0.85,2.26 0.23,4.16 0.23,5.92 q 0,101.3 -0.01,202.59 c 0,2.19 0.58,5.28 -0.2,8.05 q -0.14,0.51 -0.59,0.77 c -2.07,1.23 -3.21,2.48 -3.17,5.09 q 0.2,14.7 -0.38,29.37 z"
         id="path44"
         inkscape:label="0_3" />
      <path
         d="m 560.76,358 h -2.07 l -0.36,-0.38 Q 558,357.27 558,356.78 v -29.82 q 0,-0.53 -0.36,-0.9 l -3.21,-3.28 q -0.43,-0.44 -0.43,-1.04 -0.04,-18.19 0.13,-36.3 c 0.02,-2.25 0.63,-3.53 2.62,-4.46 a 2.28,2.28 0 0 0 1.31,-2.08 l -0.21,-126.05 q 0,-0.54 -0.37,-0.92 l -2.72,-2.84 q -0.42,-0.44 -0.43,-1.04 -0.31,-19.54 -0.36,-39.04 0,-1.26 0.11,-2.16 0.05,-0.49 0.41,-0.83 l 3.1,-3.02 Q 558,102.6 558,102.04 V 65.63 Q 558,65 558.63,65 h 1.75 q 0.62,0 0.62,0.63 v 36 q 0,0.54 0.36,0.95 l 3.28,3.69 q 0.37,0.41 0.36,0.96 -0.01,18.65 0.01,37.26 0,1.68 -0.41,4.06 -0.08,0.49 -0.48,0.8 c -1.93,1.44 -3.12,2.72 -3.12,5.35 q 0.01,61.97 -0.01,123.94 0,0.61 0.42,1.05 l 3.14,3.37 q 0.43,0.46 0.43,1.08 l 0.06,37.73 q 0,0.66 -0.48,1.11 l -3.16,3 q -0.45,0.43 -0.46,1.04 z"
         id="path45"
         inkscape:label="0_4" />
      <path
         d="m 574.75,358 h -2.06 l -0.36,-0.38 Q 572,357.27 572,356.78 v -29.82 q 0,-0.53 -0.37,-0.9 l -3.21,-3.29 q -0.43,-0.44 -0.43,-1.05 0.02,-16.18 0.01,-32.3 c 0,-5.82 -0.69,-5.47 3.62,-9.53 Q 572,279.54 572,279.02 V 153.33 a 2.33,2.29 22.8 0 0 -0.68,-1.63 l -2.92,-2.93 q -0.4,-0.4 -0.4,-0.96 0,-19.67 0,-39.31 c 0,-3.47 2.15,-3.44 3.77,-5.97 Q 572,102.16 572,101.72 V 65.67 q 0,-0.64 0.64,-0.65 l 1.76,-0.03 q 0.59,-0.01 0.59,0.59 0.02,17.97 0,35.92 c 0,2.63 3.98,3.15 3.99,6.48 q 0.05,18.63 0.03,37.27 0,2.24 -0.82,4.27 -0.2,0.48 -0.66,0.72 -2.53,1.28 -2.53,3.76 0.01,62.38 0,124.76 0,0.53 0.39,0.89 c 2.37,2.16 3.65,3.54 3.63,7.02 q -0.07,17.71 0,35.36 0,0.56 -0.41,0.94 l -3.25,3.04 q -0.42,0.39 -0.42,0.96 z"
         id="path46"
         inkscape:label="0_5" />
      <path
         d="m 589.54,358 h -2.24 l -0.24,-30.95 a 1.72,1.67 21.4 0 0 -0.57,-1.26 l -3.01,-2.66 Q 583,322.71 583,322.08 V 107.04 a 1.81,1.8 -20.9 0 1 0.61,-1.35 l 2.9,-2.54 q 0.39,-0.34 0.39,-0.86 l 0.13,-36.67 q 0,-0.53 0.53,-0.55 l 1.79,-0.09 Q 590,64.94 590,65.6 v 36.13 a 2.28,2.26 20.7 0 0 0.78,1.71 l 2.74,2.4 q 0.48,0.42 0.48,1.06 v 214.93 q 0,0.49 -0.34,0.85 l -3.31,3.43 q -0.47,0.48 -0.45,1.15 0.45,15.4 -0.36,30.74 z"
         id="path47"
         inkscape:label="0_6" />
      <path
         d="m 602.76,358 h -2.34 l -0.37,-30.92 q 0,-0.57 -0.4,-0.98 l -3.31,-3.43 Q 596,322.32 596,321.83 V 106.94 q 0,-0.49 0.35,-0.83 l 3.24,-3.1 Q 600,102.62 600,102.05 V 65.67 q 0,-0.64 0.64,-0.65 l 1.76,-0.03 q 0.59,-0.01 0.59,0.58 0.04,16.91 -0.01,33.8 c -0.02,3.4 1.1,4.77 3.63,6.64 q 0.39,0.28 0.39,0.77 v 215.15 q 0,0.51 -0.36,0.86 l -3.24,3.23 q -0.45,0.44 -0.45,1.07 z"
         id="path48"
         inkscape:label="0_7" />
      <path
         d="m 614.94,358 h -0.75 l -0.73,-0.32 Q 613,357.48 613,356.99 v -29.97 q 0,-0.56 -0.39,-0.96 l -3.27,-3.39 Q 609,322.32 609,321.83 v -214.7 q 0,-0.6 0.43,-1.02 l 3.17,-3.12 q 0.4,-0.4 0.4,-0.96 V 65.67 q 0,-0.64 0.64,-0.65 l 1.73,-0.03 Q 616,64.98 616,65.62 v 35.2 q 0,1.38 0.93,2.39 l 2.7,2.96 q 0.37,0.4 0.37,0.94 v 214.84 a 2.04,2.03 -14.3 0 1 -1.07,1.79 c -1.91,1.04 -2.92,2.48 -2.92,4.81 q -0.01,14.2 -0.01,28.39 0,0.52 -0.46,0.76 z"
         id="path49"
         inkscape:label="0_8" />
    </g>
  </g>
</svg>
