<?xml version="1.0" encoding="UTF-8" standalone="no"?>
<!-- Created by ERK -->

<svg
   width="4913.1724"
   height="1095.9801"
   id="svg2"
   version="1.1"
   inkscape:version="1.3.2 (091e20e, 2023-11-25, custom)"
   sodipodi:docname="palm.svg"
   xml:space="preserve"
   xmlns:inkscape="http://www.inkscape.org/namespaces/inkscape"
   xmlns:sodipodi="http://sodipodi.sourceforge.net/DTD/sodipodi-0.dtd"
   xmlns:xlink="http://www.w3.org/1999/xlink"
   xmlns="http://www.w3.org/2000/svg"
   xmlns:svg="http://www.w3.org/2000/svg"
   xmlns:rdf="http://www.w3.org/1999/02/22-rdf-syntax-ns#"
   xmlns:cc="http://creativecommons.org/ns#"
   xmlns:dc="http://purl.org/dc/elements/1.1/"><defs
     id="defs4"><linearGradient
       inkscape:collect="always"
       id="linearGradient4693"><stop
         style="stop-color:#9ea3aa;stop-opacity:1"
         offset="0"
         id="stop4695" /><stop
         style="stop-color:#ffffff;stop-opacity:1"
         offset="1"
         id="stop4697" /></linearGradient><linearGradient
       inkscape:collect="always"
       id="linearGradient4630"><stop
         style="stop-color:#ffffff;stop-opacity:1"
         offset="0"
         id="stop4632" /><stop
         id="stop4638"
         offset="0.4930732"
         style="stop-color:#a0a5ac;stop-opacity:1" /><stop
         style="stop-color:#a6abb1;stop-opacity:0"
         offset="1"
         id="stop4634" /></linearGradient><linearGradient
       inkscape:collect="always"
       id="linearGradient4588"><stop
         style="stop-color:#ffffff;stop-opacity:1"
         offset="0"
         id="stop4590" /><stop
         id="stop4640"
         offset="0.65663481"
         style="stop-color:#ffffff;stop-opacity:1" /><stop
         style="stop-color:#9da2a9;stop-opacity:1"
         offset="1"
         id="stop4592" /></linearGradient><linearGradient
       inkscape:collect="always"
       id="linearGradient3493"><stop
         style="stop-color:#ffffff;stop-opacity:1"
         offset="0"
         id="stop3495" /><stop
         id="stop3501"
         offset="0.68401092"
         style="stop-color:#000000;stop-opacity:1" /><stop
         style="stop-color:#000000;stop-opacity:0"
         offset="1"
         id="stop3497" /></linearGradient><linearGradient
       inkscape:collect="always"
       id="linearGradient3392"><stop
         style="stop-color:#ffffff;stop-opacity:1"
         offset="0"
         id="stop3394" /><stop
         id="stop3400"
         offset="0.63942766"
         style="stop-color:#000000;stop-opacity:1" /><stop
         style="stop-color:#000000;stop-opacity:0;"
         offset="1"
         id="stop3396" /></linearGradient><linearGradient
       inkscape:collect="always"
       id="linearGradient3287"><stop
         style="stop-color:#ffffff;stop-opacity:1"
         offset="0"
         id="stop3289" /><stop
         style="stop-color:#000000;stop-opacity:1"
         offset="1"
         id="stop3291" /></linearGradient><radialGradient
       inkscape:collect="always"
       xlink:href="#linearGradient3287"
       id="radialGradient3295"
       cx="207.15573"
       cy="-78.608353"
       fx="207.15573"
       fy="-78.608353"
       r="253.07738"
       gradientTransform="matrix(0.32814201,0.60400133,-0.6417414,0.34864658,105.83112,-190.86663)"
       gradientUnits="userSpaceOnUse" /><radialGradient
       inkscape:collect="always"
       xlink:href="#linearGradient3287-9"
       id="radialGradient3295-1"
       cx="207.15573"
       cy="-78.608353"
       fx="207.15573"
       fy="-78.608353"
       r="253.07738"
       gradientTransform="matrix(0.32814201,0.60400133,-0.6417414,0.34864658,105.83112,-190.86663)"
       gradientUnits="userSpaceOnUse" /><linearGradient
       inkscape:collect="always"
       id="linearGradient3287-9"><stop
         style="stop-color:#ffffff;stop-opacity:1"
         offset="0"
         id="stop3289-6" /><stop
         style="stop-color:#000000;stop-opacity:1"
         offset="1"
         id="stop3291-2" /></linearGradient><radialGradient
       inkscape:collect="always"
       xlink:href="#linearGradient3287-9"
       id="radialGradient3313"
       cx="207.15573"
       cy="-78.608353"
       fx="207.15573"
       fy="-78.608353"
       r="253.07738"
       gradientTransform="matrix(0.32814201,0.60400133,-0.6417414,0.34864658,105.83112,-190.86663)"
       gradientUnits="userSpaceOnUse" /><radialGradient
       inkscape:collect="always"
       xlink:href="#linearGradient3392"
       id="radialGradient3398"
       cx="1328.0352"
       cy="-46.189323"
       fx="1328.0352"
       fy="-46.189323"
       r="253.07738"
       gradientTransform="matrix(1.4129829,-0.14369322,0.11321415,1.1133452,-1676.3022,464.27111)"
       gradientUnits="userSpaceOnUse" /><radialGradient
       inkscape:collect="always"
       xlink:href="#linearGradient3287-2"
       id="radialGradient3295-2"
       cx="207.15573"
       cy="-78.608353"
       fx="207.15573"
       fy="-78.608353"
       r="253.07738"
       gradientTransform="matrix(0.32814201,0.60400133,-0.6417414,0.34864658,105.83112,-190.86663)"
       gradientUnits="userSpaceOnUse" /><linearGradient
       inkscape:collect="always"
       id="linearGradient3287-2"><stop
         style="stop-color:#ffffff;stop-opacity:1"
         offset="0"
         id="stop3289-4" /><stop
         style="stop-color:#000000;stop-opacity:1"
         offset="1"
         id="stop3291-7" /></linearGradient><radialGradient
       inkscape:collect="always"
       xlink:href="#linearGradient3287-2"
       id="radialGradient3404-0"
       gradientUnits="userSpaceOnUse"
       gradientTransform="matrix(0.32814201,0.60400133,-0.6417414,0.34864658,105.83112,-190.86663)"
       cx="207.15573"
       cy="-78.608353"
       fx="207.15573"
       fy="-78.608353"
       r="253.07738" /><linearGradient
       inkscape:collect="always"
       id="linearGradient3287-6"><stop
         style="stop-color:#ffffff;stop-opacity:1"
         offset="0"
         id="stop3289-42" /><stop
         style="stop-color:#000000;stop-opacity:1"
         offset="1"
         id="stop3291-5" /></linearGradient><radialGradient
       inkscape:collect="always"
       xlink:href="#linearGradient3287-6"
       id="radialGradient3404-1"
       gradientUnits="userSpaceOnUse"
       gradientTransform="matrix(0.32814201,0.60400133,-0.6417414,0.34864658,105.83112,-190.86663)"
       cx="207.15573"
       cy="-78.608353"
       fx="207.15573"
       fy="-78.608353"
       r="253.07738" /><radialGradient
       inkscape:collect="always"
       xlink:href="#linearGradient3493"
       id="radialGradient3499"
       cx="511.37225"
       cy="319.66162"
       fx="511.37225"
       fy="319.66162"
       r="253.07738"
       gradientTransform="matrix(0.14257544,-1.1333949,1.1105647,0.13970491,100.39575,827.65586)"
       gradientUnits="userSpaceOnUse" /><linearGradient
       inkscape:collect="always"
       id="linearGradient3493-9"><stop
         style="stop-color:#ffffff;stop-opacity:1"
         offset="0"
         id="stop3495-0" /><stop
         id="stop3501-0"
         offset="0.68401092"
         style="stop-color:#000000;stop-opacity:1" /><stop
         style="stop-color:#000000;stop-opacity:0"
         offset="1"
         id="stop3497-0" /></linearGradient><radialGradient
       inkscape:collect="always"
       xlink:href="#linearGradient3493-9"
       id="radialGradient4271-2"
       gradientUnits="userSpaceOnUse"
       gradientTransform="matrix(0.14257544,-1.1333949,1.1105647,0.13970491,100.39575,827.65586)"
       cx="511.37225"
       cy="319.66162"
       fx="511.37225"
       fy="319.66162"
       r="253.07738" /><linearGradient
       inkscape:collect="always"
       id="linearGradient3493-6"><stop
         style="stop-color:#ffffff;stop-opacity:1"
         offset="0"
         id="stop3495-06" /><stop
         id="stop3501-6"
         offset="0.68401092"
         style="stop-color:#000000;stop-opacity:1" /><stop
         style="stop-color:#000000;stop-opacity:0"
         offset="1"
         id="stop3497-2" /></linearGradient><radialGradient
       inkscape:collect="always"
       xlink:href="#linearGradient3493-6"
       id="radialGradient4271-1"
       gradientUnits="userSpaceOnUse"
       gradientTransform="matrix(0.14257544,-1.1333949,1.1105647,0.13970491,100.39575,827.65586)"
       cx="511.37225"
       cy="319.66162"
       fx="511.37225"
       fy="319.66162"
       r="253.07738" /><radialGradient
       inkscape:collect="always"
       xlink:href="#linearGradient3287"
       id="radialGradient4580"
       gradientUnits="userSpaceOnUse"
       gradientTransform="matrix(0.28732389,0.52886863,-0.56191415,0.30527787,85.17054,43.939119)"
       cx="207.15573"
       cy="-78.608353"
       fx="207.15573"
       fy="-78.608353"
       r="253.07738" /><radialGradient
       inkscape:collect="always"
       xlink:href="#linearGradient3493"
       id="radialGradient4584"
       gradientUnits="userSpaceOnUse"
       gradientTransform="matrix(0.12484025,-0.99241007,0.97241976,0.12232679,80.41129,935.76595)"
       cx="511.37225"
       cy="319.66162"
       fx="511.37225"
       fy="319.66162"
       r="253.07738" /><radialGradient
       inkscape:collect="always"
       xlink:href="#linearGradient4588"
       id="radialGradient4594"
       cx="604.22485"
       cy="514.84875"
       fx="604.22485"
       fy="514.84875"
       r="234.28572"
       gradientUnits="userSpaceOnUse"
       gradientTransform="matrix(-0.20922057,0.99348539,-1.0237907,-0.21560314,911.82222,-252.19486)" /><radialGradient
       inkscape:collect="always"
       xlink:href="#linearGradient4588-6"
       id="radialGradient4594-0"
       cx="529.53186"
       cy="596.23431"
       fx="529.53186"
       fy="596.23431"
       r="234.28572"
       gradientUnits="userSpaceOnUse"
       gradientTransform="matrix(-0.49034433,1.0936513,-1.2591172,-0.56453334,1557.4693,355.58654)" /><linearGradient
       inkscape:collect="always"
       id="linearGradient4588-6"><stop
         style="stop-color:#ffffff;stop-opacity:1"
         offset="0"
         id="stop4590-3" /><stop
         style="stop-color:#9da2a9;stop-opacity:1"
         offset="1"
         id="stop4592-8" /></linearGradient><radialGradient
       inkscape:collect="always"
       xlink:href="#linearGradient4630"
       id="radialGradient4636"
       cx="802.7265"
       cy="949.26428"
       fx="802.7265"
       fy="949.26428"
       r="234.28572"
       gradientUnits="userSpaceOnUse"
       gradientTransform="matrix(0.12183842,-1.5294823,1.4628334,0.11653072,-1016.9685,1601.0899)" /><radialGradient
       inkscape:collect="always"
       xlink:href="#linearGradient4630-3"
       id="radialGradient4636-6"
       cx="802.7265"
       cy="949.26428"
       fx="802.7265"
       fy="949.26428"
       r="234.28572"
       gradientUnits="userSpaceOnUse"
       gradientTransform="matrix(0.10317242,-1.2951612,1.2387231,0.09867788,-455.03596,1865.7191)" /><linearGradient
       inkscape:collect="always"
       id="linearGradient4630-3"><stop
         style="stop-color:#ffffff;stop-opacity:1"
         offset="0"
         id="stop4632-6" /><stop
         id="stop4638-1"
         offset="0.4930732"
         style="stop-color:#a0a5ac;stop-opacity:1" /><stop
         style="stop-color:#a6abb1;stop-opacity:0"
         offset="1"
         id="stop4634-8" /></linearGradient><radialGradient
       inkscape:collect="always"
       xlink:href="#linearGradient4693"
       id="radialGradient4699"
       cx="159.13251"
       cy="1165.8268"
       fx="159.13251"
       fy="1165.8268"
       r="173.74623"
       gradientUnits="userSpaceOnUse"
       gradientTransform="matrix(0.57483752,0.02374024,-0.04570821,1.1067653,106.8349,-841.98077)" /><marker
       id="DistanceX"
       orient="auto"
       refX="0"
       refY="0"
       style="overflow:visible"><path
         d="M 3,-3 -3,3 M 0,-5 V 5"
         style="stroke:#000000;stroke-width:0.5"
         id="path1" /></marker><pattern
       id="Hatch"
       patternUnits="userSpaceOnUse"
       width="8"
       height="8"
       x="0"
       y="0"><path
         d="M8 4 l-4,4"
         stroke="#000000"
         stroke-width="0.25"
         linecap="square"
         id="path2" /><path
         d="M6 2 l-4,4"
         stroke="#000000"
         stroke-width="0.25"
         linecap="square"
         id="path3" /><path
         d="M4 0 l-4,4"
         stroke="#000000"
         stroke-width="0.25"
         linecap="square"
         id="path4" /></pattern><symbol
       id="*Model_Space" /><symbol
       id="*Paper_Space" /><symbol
       id="*Paper_Space0" /></defs><sodipodi:namedview
     id="base"
     pagecolor="#ffffff"
     bordercolor="#666666"
     borderopacity="1.0"
     inkscape:pageopacity="0.0"
     inkscape:pageshadow="2"
     inkscape:zoom="0.38832364"
     inkscape:cx="2531.3937"
     inkscape:cy="539.49845"
     inkscape:document-units="px"
     inkscape:current-layer="svg2"
     showgrid="false"
     showguides="true"
     inkscape:guide-bbox="true"
     fit-margin-top="0"
     fit-margin-left="0"
     fit-margin-right="0"
     fit-margin-bottom="0"
     inkscape:window-width="2560"
     inkscape:window-height="1351"
     inkscape:window-x="-9"
     inkscape:window-y="-9"
     inkscape:window-maximized="1"
     inkscape:showpageshadow="2"
     inkscape:pagecheckerboard="true"
     inkscape:deskcolor="#d1d1d1" /><metadata
     id="metadata7"><rdf:RDF><cc:Work
         rdf:about=""><dc:format>image/svg+xml</dc:format><dc:type
           rdf:resource="http://purl.org/dc/dcmitype/StillImage" /></cc:Work></rdf:RDF></metadata><g
     id="g1"
     inkscape:label="Logo"
     transform="matrix(1.6070355,0,0,1.6070355,110.56681,-24.611852)"><circle
       style="color:#000000;display:inline;overflow:visible;visibility:visible;fill:url(#radialGradient4594);fill-opacity:1;stroke:none;stroke-width:3.54276;marker:none;enable-background:accumulate"
       id="path4565"
       cx="309.92233"
       cy="309.92245"
       r="276.67279"
       inkscape:label="Shpere1" /><circle
       style="color:#000000;display:inline;overflow:visible;visibility:visible;fill:url(#radialGradient4636);fill-opacity:1;stroke:none;stroke-width:1.7946;marker:none;enable-background:accumulate"
       id="path4565-2"
       cx="309.92233"
       cy="309.92245"
       r="276.67279"
       inkscape:label="Shere2" /><circle
       style="color:#000000;display:inline;overflow:visible;visibility:visible;fill:url(#radialGradient4699);fill-opacity:1;stroke:none;stroke-width:1.87806;marker:none;enable-background:accumulate"
       id="path4691"
       cx="309.9223"
       cy="309.92233"
       r="217.53754"
       inkscape:label="InnnerFill" /><path
       inkscape:connector-curvature="0"
       d="m 309.96275,88.32576 c -122.39808,0 -221.63709,99.23902 -221.63709,221.61912 0,50.7649 17.1447,97.59058 45.90039,134.98825 V 226.97021 h 11.7098 c 3.36874,0 6.96657,-0.17516 9.31123,4.37489 1.28912,2.46594 1.72031,4.59049 1.72031,4.59049 5.77179,-9.45496 14.47666,-10.07932 22.31014,-10.07932 20.24397,0 28.92638,14.10386 28.92638,40.58227 v 96.94828 c 0,21.8924 -10.56442,36.89909 -28.92638,36.89909 -6.6881,0 -13.41213,-0.94774 -19.74989,-8.61503 v 80.98935 c 39.54469,36.55773 92.37574,58.85888 150.4396,58.85888 122.38461,0 221.55175,-99.20309 221.55175,-221.57423 C 531.51499,187.56029 432.34736,88.32576 309.96275,88.32576 Z m -13.758,172.52065 v 138.39293 h -13.70858 c -1.66641,0 -3.87182,0.17967 -6.5848,-3.12171 -1.59453,-1.90896 -2.44795,-5.77179 -2.44795,-5.77179 -5.73137,6.98903 -11.46725,9.44598 -19.24682,9.44598 -19.93405,0 -26.72546,-11.53462 -26.72546,-34.88233 V 333.5666 c 0,-28.83654 19.71845,-38.64188 44.94368,-48.02048 v -24.2191 c 0,-12.12303 -4.12784,-16.188 -10.07931,-16.188 -7.18669,0 -11.84454,2.35814 -11.84454,14.66083 v 12.33862 c 0,4.82406 -1.85955,7.39779 -10.07931,7.25854 h -11.95684 v -17.05937 c 0,-23.28033 11.20673,-36.34661 33.37762,-36.34661 23.45552,0 34.34781,10.81146 34.34781,33.81331 v 1.04207 h 0.004 z m 48.86491,138.39293 h -25.35998 v -194.2334 c 0,-1.49124 -1.69335,-2.50635 -3.25196,-2.50635 h -7.09685 v -20.81441 h 35.71329 v 217.55416 h -0.004 z m 119.99954,0 V 260.32537 c 0,-12.23531 -5.30917,-14.80455 -11.07198,-14.80455 -7.78856,0 -12.6171,3.89428 -12.6171,21.40732 V 399.24383 H 416.59506 V 260.32987 c 0,-12.23532 -5.30915,-14.80456 -11.08096,-14.80456 -7.77958,0 -12.58117,3.89428 -12.58117,21.40732 V 399.24832 H 367.64032 V 226.97471 h 13.9646 c 3.06333,0 4.10539,0 6.18504,1.49573 2.9106,2.18744 3.30588,8.06255 3.30588,8.06255 5.30915,-7.29898 12.60812,-10.53298 20.52694,-10.53298 9.58972,0 17.96669,2.71298 22.96592,13.83435 5.38551,-9.76938 14.97524,-13.83435 22.96593,-13.83435 22.37751,0 32.31757,14.93931 32.31757,41.49407 v 131.75424 h -24.803 v -0.009 z M 251.29252,335.90227 v 24.35834 c 0,11.70979 0.92529,20.32482 9.57175,20.32482 7.47415,0 11.57055,-4.59049 11.57055,-25.1938 V 304.9771 c -14.27902,6.9486 -21.1423,11.70529 -21.1423,30.92517 z m -79.98771,44.26542 c 6.5848,0.0719 11.88497,-2.01675 11.88497,-20.32929 v -95.45255 c 0,-18.07 -4.41083,-20.25744 -10.89231,-20.25744 -8.10298,0 -12.76983,6.29283 -12.76983,21.26358 v 99.0324 c 0,9.83676 6.33776,15.64 11.77717,15.7433 z"
       style="display:inline;fill:url(#radialGradient4580);fill-opacity:1;fill-rule:evenodd;stroke-width:0.875608"
       id="path3015"
       inkscape:label="InnerCircle" /><path
       inkscape:connector-curvature="0"
       d="m 309.96275,88.32576 c -122.39808,0 -221.63709,99.23902 -221.63709,221.61912 0,50.7649 17.1447,97.59058 45.90039,134.98825 V 226.97021 h 11.7098 c 3.36874,0 6.96657,-0.17516 9.31123,4.37489 1.28912,2.46594 1.72031,4.59049 1.72031,4.59049 5.77179,-9.45496 14.47666,-10.07932 22.31014,-10.07932 20.24397,0 28.92638,14.10386 28.92638,40.58227 v 96.94828 c 0,21.8924 -10.56442,36.89909 -28.92638,36.89909 -6.6881,0 -13.41213,-0.94774 -19.74989,-8.61503 v 80.98935 c 39.54469,36.55773 92.37574,58.85888 150.4396,58.85888 122.38461,0 221.55175,-99.20309 221.55175,-221.57423 C 531.51499,187.56029 432.34736,88.32576 309.96275,88.32576 Z m -13.758,172.52065 v 138.39293 h -13.70858 c -1.66641,0 -3.87182,0.17967 -6.5848,-3.12171 -1.59453,-1.90896 -2.44795,-5.77179 -2.44795,-5.77179 -5.73137,6.98903 -11.46725,9.44598 -19.24682,9.44598 -19.93405,0 -26.72546,-11.53462 -26.72546,-34.88233 V 333.5666 c 0,-28.83654 19.71845,-38.64188 44.94368,-48.02048 v -24.2191 c 0,-12.12303 -4.12784,-16.188 -10.07931,-16.188 -7.18669,0 -11.84454,2.35814 -11.84454,14.66083 v 12.33862 c 0,4.82406 -1.85955,7.39779 -10.07931,7.25854 h -11.95684 v -17.05937 c 0,-23.28033 11.20673,-36.34661 33.37762,-36.34661 23.45552,0 34.34781,10.81146 34.34781,33.81331 v 1.04207 h 0.004 z m 48.86491,138.39293 h -25.35998 v -194.2334 c 0,-1.49124 -1.69335,-2.50635 -3.25196,-2.50635 h -7.09685 v -20.81441 h 35.71329 v 217.55416 h -0.004 z m 119.99954,0 V 260.32537 c 0,-12.23531 -5.30917,-14.80455 -11.07198,-14.80455 -7.78856,0 -12.6171,3.89428 -12.6171,21.40732 V 399.24383 H 416.59506 V 260.32987 c 0,-12.23532 -5.30915,-14.80456 -11.08096,-14.80456 -7.77958,0 -12.58117,3.89428 -12.58117,21.40732 V 399.24832 H 367.64032 V 226.97471 h 13.9646 c 3.06333,0 4.10539,0 6.18504,1.49573 2.9106,2.18744 3.30588,8.06255 3.30588,8.06255 5.30915,-7.29898 12.60812,-10.53298 20.52694,-10.53298 9.58972,0 17.96669,2.71298 22.96592,13.83435 5.38551,-9.76938 14.97524,-13.83435 22.96593,-13.83435 22.37751,0 32.31757,14.93931 32.31757,41.49407 v 131.75424 h -24.803 v -0.009 z M 251.29252,335.90227 v 24.35834 c 0,11.70979 0.92529,20.32482 9.57175,20.32482 7.47415,0 11.57055,-4.59049 11.57055,-25.1938 V 304.9771 c -14.27902,6.9486 -21.1423,11.70529 -21.1423,30.92517 z m -79.98771,44.26542 c 6.5848,0.0719 11.88497,-2.01675 11.88497,-20.32929 v -95.45255 c 0,-18.07 -4.41083,-20.25744 -10.89231,-20.25744 -8.10298,0 -12.76983,6.29283 -12.76983,21.26358 v 99.0324 c 0,9.83676 6.33776,15.64 11.77717,15.7433 z"
       style="display:inline;fill:url(#radialGradient4584);fill-opacity:1;fill-rule:evenodd;stroke-width:0.875608"
       id="path3015-3"
       inkscape:label="Shine" /></g><g
     id="g19"
     inkscape:label="PalmPilot"
     transform="translate(531.92166,-116.12373)"><g
       inkscape:label="PalmPilotShadow"
       id="g18"
       transform="matrix(1.3839977,0,0,1.3839977,548.25948,-254.20942)"
       style="fill:#000000;stroke:none;opacity:0.65"><path
         id="path9"
         style="fill:#000000;fill-opacity:1;stroke:none;stroke-width:3.571;stroke-linecap:round"
         d="m 128.50397,934.92689 h 60.47222 c 10.43706,-1.1e-4 18.89783,-8.46087 18.89782,-18.89782 l -1e-5,-242.52707 75.59078,2e-5 c 34.79878,3e-5 67.36725,-23.98035 85.69574,-52.18569 18.3285,-28.20533 27.68987,-73.58583 27.68987,-138.29391 0,-64.70809 -7.2611,-106.93463 -27.62618,-138.33152 -20.36508,-31.39688 -51.03747,-52.2838 -85.75943,-52.28385 H 128.50397 c -10.43691,5e-5 -18.89767,8.46081 -18.89782,18.89782 v 604.7242 c 1.5e-4,10.43695 8.46092,18.89771 18.89782,18.89782 z M 276.79281,429.82072 c 3.37463,15.3655 4.9877,32.82476 4.9877,55.87988 0,23.05512 -0.82982,35.90053 -4.99089,54.83898 -4.16107,18.93845 -10.36019,40.78752 -25.24548,40.78747 L 207.874,581.327 V 389.019 l 43.67014,-1.6e-4 c 14.95193,-1.7e-4 21.87404,25.43639 25.24867,40.80188 z"
         sodipodi:nodetypes="cccccscscccccscsccccs"
         inkscape:label="P" /><path
         d="m 541.87679,481.3834 c -42.61699,0 -86.62897,19.94426 -102.32226,47.375 -15.69329,27.43073 -21.15334,58.26866 -21.85742,87.70899 -0.25842,10.6143 4.27687,15.3592 14.89453,15.35937 h 63.7539 c 10.43705,-1.7e-4 18.89648,-8.46154 18.89649,-18.89843 v -28.90821 c 0.008,-14.2672 11.57662,-25.82812 25.84375,-25.82812 14.26713,0 25.83575,11.56092 25.84375,25.82812 v 56.04102 c -0.26786,5.34045 -2.54671,7.9778 -8,8 h -54.58399 c -29.90371,2e-5 -56.33358,24.56863 -70.0996,49.71289 -13.76602,25.14426 -20.60743,55.89913 -20.60743,93.68164 0,37.78251 4.79201,64.83621 20.57618,93.70117 15.78416,28.86495 40.12545,49.76942 70.13085,49.76953 h 15.64258 c 16.44376,-1.1e-4 32.17952,-6.69666 43.58008,-18.54687 l 2.11133,-2.19336 8.74805,12.61328 c 3.53096,5.0909 9.33213,8.12684 15.52734,8.12695 h 56.34375 c 10.43697,-1.1e-4 18.89837,-8.45953 18.89844,-18.89648 V 617.4459 c -7e-5,-30.37467 -4.792,-57.428 -20.57617,-86.29296 C 628.83677,502.28799 584.49377,481.3834 541.87679,481.3834 Z m 3.60157,240.32618 h 8.33203 c 8.34951,0 13.11921,4.76774 13.11914,13.11718 v 97.17383 c 7e-5,20.28255 -6.62139,39.35352 -25.76953,39.35352 -19.14813,0 -25.87531,-10.6405 -28.09571,-18.68946 -5.05479,-18.3236 -4.19457,-38.73108 -4,-44.52148 0.22515,-6.70065 0.94211,-26.51974 4.17774,-41.08008 4.39987,-19.79939 12.62148,-45.35351 32.23633,-45.35351 z"
         style="opacity:1;fill:#000000;stroke:none;stroke-width:3.571;stroke-linecap:square;stroke-miterlimit:0"
         id="path10"
         inkscape:label="a" /><path
         id="path11"
         style="fill:#000000;fill-opacity:1;stroke:none;stroke-width:3.571;stroke-linecap:round"
         d="m 791.81101,934.92689 -60.47243,-1.1e-4 c -10.43687,0 -18.89763,-8.46076 -18.8976,-18.89771 l -10e-6,-604.7242 c -2e-5,-10.437 8.46074,-18.89777 18.89782,-18.89782 h 60.47222 c 10.43689,5e-5 18.89765,8.46081 18.89782,18.89782 v 604.7242 c -1.7e-4,10.43695 -8.46094,18.89771 -18.89782,18.89782 z"
         sodipodi:nodetypes="ccccccccc"
         inkscape:label="l" /><path
         id="path12"
         style="fill:#000000;stroke:none;stroke-width:3.571;stroke-linecap:round"
         d="m 2560.6279,1021.6456 c 0,-9.3932 -7.6147,-17.0079 -17.0079,-17.0067 l -1184.8799,9e-4 c -2.0873,-3e-4 -3.7795,-1.6924 -3.7798,-3.7798 V 696.81677 c 3e-4,-12.52445 -10.1526,-22.67735 -22.6786,-22.67758 L 1251.02,674.139 V 565.07006 c 0,-34.58269 -20.3744,-65.91833 -51.9841,-79.94666 -31.6097,-14.02833 -68.5169,-8.11501 -94.1616,15.08666 -6.929,6.26896 -17.3994,6.53274 -24.6353,0.62064 -35.6374,-29.11753 -86.27086,-31.04651 -124.02033,-4.72481 -1.9505,-8.61006 -9.6024,-14.72241 -18.43055,-14.72265 H 876.8502 c -10.43668,2.4e-4 -18.89744,8.461 -18.89732,18.89782 v 415.74801 c -1.2e-4,10.43695 8.46064,18.89771 18.89732,18.89782 h 60.47057 c 10.43464,-1.1e-4 18.8954,-8.46087 18.89517,-18.89782 V 581.54098 c 0.0152,-13.55736 11.00981,-24.53979 24.56715,-24.53979 13.55733,0 24.55191,10.98243 24.56691,24.53979 v 334.48809 c 0,10.43698 8.4629,18.89774 18.8988,18.89782 h 60.4743 c 10.4421,-1.3e-4 18.9028,-8.46088 18.9018,-18.89782 l -10e-4,-334.48809 c 0,-13.56798 10.999,-24.56696 24.5669,-24.56696 13.568,0 24.567,10.99898 24.567,24.56696 v 334.48809 c 0,10.43694 8.4586,18.89769 18.8938,18.89782 h 60.4762 c 10.4349,-1.3e-4 18.8956,-8.46088 18.8938,-18.89782 V 708.155 l 66.1453,6e-5 c 2.0826,9e-5 3.7747,1.69223 3.7747,3.77977 v 304.04327 c 0,12.5224 10.1553,22.6754 22.6785,22.6737 l 1199.999,-1e-4 c 9.3932,0 17.0079,-7.6129 17.0079,-17.0061 z"
         sodipodi:nodetypes="scccccccscccccccccccsccccccscccccccccccs"
         inkscape:label="m" /><path
         id="path13"
         style="display:inline;fill:#000000;fill-opacity:1;stroke:none;stroke-width:3.571;stroke-linecap:round"
         d="m 1470.2366,934.92689 h 60.4723 c 10.437,-1.1e-4 18.8978,-8.46087 18.8978,-18.89782 V 673.502 l 75.5907,2e-5 c 34.7988,3e-5 67.3673,-23.98035 85.6958,-52.18569 18.3285,-28.20533 27.6899,-73.58583 27.6899,-138.29391 0,-64.70809 -7.2611,-106.93463 -27.6262,-138.33152 -20.3651,-31.39688 -51.0375,-52.2838 -85.7595,-52.28385 h -154.9608 c -10.4369,5e-5 -18.8976,8.46081 -18.8978,18.89782 v 604.7242 c 2e-4,10.43695 8.4609,18.89771 18.8978,18.89782 z m 148.2889,-505.10617 c 3.3746,15.3655 4.9877,32.82476 4.9877,55.87988 0,23.05512 -0.8298,35.90053 -4.9909,54.83898 -4.1611,18.93845 -10.3602,40.78752 -25.2455,40.78747 l -43.6701,-5e-5 V 389.019 l 43.6701,-1.6e-4 c 14.9519,-1.7e-4 21.874,25.43639 25.2487,40.80188 z"
         sodipodi:nodetypes="cccccscscccccscsccccs"
         inkscape:label="P" /><path
         id="path14"
         style="fill:#000000;stroke:none;stroke-width:3.571;stroke-linecap:round"
         d="m 1865.1984,934.92689 h -60.4762 c -10.4347,-1.3e-4 -18.8954,-8.46088 -18.8938,-18.89782 V 500.28106 c 0,-10.43681 8.4591,-18.89756 18.8938,-18.89782 h 60.4762 c 10.4354,2.6e-4 18.8961,8.46101 18.8938,18.89781 v 415.74802 c 0,10.43694 -8.4584,18.89769 -18.8938,18.89782 z"
         sodipodi:nodetypes="ccccccccc"
         inkscape:label="i" /><path
         id="path15"
         style="fill:#000000;stroke:none;stroke-width:3.571;stroke-linecap:round"
         d="m 1804.7222,395.35594 h 60.4743 c 10.4334,-8e-5 18.8941,-8.46084 18.8938,-18.89782 l -3e-4,-65.15325 c 0,-10.43699 -8.4585,-18.89775 -18.8939,-18.89782 h -60.4762 c -10.4347,7e-5 -18.8954,8.46083 -18.8938,18.89782 l 3e-4,65.15325 c 4e-4,10.43698 8.4611,18.89774 18.8958,18.89782 z"
         sodipodi:nodetypes="ccccccccc"
         inkscape:label="i" /><path
         id="path16"
         style="fill:#000000;fill-opacity:1;stroke:none;stroke-width:3.571;stroke-linecap:round"
         d="m 2010.7089,934.92689 -60.4725,-1.1e-4 c -10.4368,0 -18.8976,-8.46076 -18.8976,-18.89771 v -604.7242 c 0,-10.437 8.4608,-18.89777 18.8978,-18.89782 h 60.4723 c 10.4368,5e-5 18.8976,8.46081 18.8978,18.89782 v 604.7242 c -2e-4,10.43695 -8.461,18.89771 -18.8978,18.89782 z"
         sodipodi:nodetypes="ccccccccc"
         inkscape:label="l" /><path
         id="path17"
         style="fill:#000000;stroke:none;stroke-width:3.571;stroke-linecap:round"
         d="m 2362.2,542.377 v -42.096 m -20.7838,117.16523 -7e-4,181.41766 c -6e-4,66.52931 -47.7523,136.06289 -132.3885,136.06289 -84.6362,0 -132.1766,-69.63706 -132.1768,-136.06289 V 617.44623 c 2e-4,-66.52917 47.752,-136.06275 132.3881,-136.06275 84.6362,0 132.1779,69.63706 132.1779,136.06275 z m -111.4285,-36.02638 c -0.015,-10.83026 -8.7991,-19.6018 -19.6293,-19.6018 -10.8301,0 -19.6138,8.77154 -19.6286,19.6018 l 2e-4,240.49528 c 0.015,10.83023 8.7988,19.60177 19.6289,19.60177 10.8302,0 19.6139,-8.77154 19.629,-19.60177 z"
         sodipodi:nodetypes="ccccccccccsccscc"
         inkscape:label="o" /><path
         id="path18"
         style="fill:#000000;stroke:none;stroke-width:3.571;stroke-linecap:round"
         d="m 2362.2047,542.37734 c 0,10.4369 8.4608,18.89767 18.8965,18.89765 l 28.3488,10e-6 -6e-4,320.7382 c -6e-4,29.22346 23.6895,52.91359 52.9117,52.91369 h 98.9402 c 10.4381,-8e-5 18.8989,-8.46084 18.8988,-18.89782 v -60.47222 c 0,-10.43705 -8.4567,-18.89781 -18.8948,-18.89782 h -38.4713 c -8.3495,3e-5 -15.1181,-6.76857 -15.1181,-15.11805 V 561.275 l 39.6808,-10e-6 c 10.4377,-3e-5 18.8984,-8.46079 18.8988,-18.89782 v -42.09612 c -4e-4,-10.4368 -8.4611,-18.89755 -18.8988,-18.89781 l -39.6808,-2.4e-4 v -93.77279 c 0,-13.45177 -13.6584,-22.59647 -26.0974,-17.47321 l -60.4712,24.90821 c -7.0803,2.91641 -11.7008,9.81663 -11.7002,17.47371 l 6e-4,68.86408 -28.3488,2.4e-4 c -10.4357,2.1e-4 -18.8965,8.46097 -18.8965,18.89787"
         sodipodi:nodetypes="cccccccccccccccccccccccc"
         inkscape:label="t" /></g><g
       inkscape:label="PalmPilot"
       id="g170"
       transform="matrix(1.3839977,0,0,1.3839977,542.7235,-259.74541)"
       style="fill:#f2f2f2;stroke:none"><path
         id="path21"
         style="fill:#f2f2f2;fill-opacity:1;stroke:none;stroke-width:3.571;stroke-linecap:round"
         d="m 128.50397,934.92689 h 60.47222 c 10.43706,-1.1e-4 18.89783,-8.46087 18.89782,-18.89782 l -1e-5,-242.52707 75.59078,2e-5 c 34.79878,3e-5 67.36725,-23.98035 85.69574,-52.18569 18.3285,-28.20533 27.68987,-73.58583 27.68987,-138.29391 0,-64.70809 -7.2611,-106.93463 -27.62618,-138.33152 -20.36508,-31.39688 -51.03747,-52.2838 -85.75943,-52.28385 H 128.50397 c -10.43691,5e-5 -18.89767,8.46081 -18.89782,18.89782 v 604.7242 c 1.5e-4,10.43695 8.46092,18.89771 18.89782,18.89782 z M 276.79281,429.82072 c 3.37463,15.3655 4.9877,32.82476 4.9877,55.87988 0,23.05512 -0.82982,35.90053 -4.99089,54.83898 -4.16107,18.93845 -10.36019,40.78752 -25.24548,40.78747 L 207.874,581.327 V 389.019 l 43.67014,-1.6e-4 c 14.95193,-1.7e-4 21.87404,25.43639 25.24867,40.80188 z"
         sodipodi:nodetypes="cccccscscccccscsccccs"
         inkscape:label="P" /><path
         d="m 541.87679,481.3834 c -42.61699,0 -86.62897,19.94426 -102.32226,47.375 -15.69329,27.43073 -21.15334,58.26866 -21.85742,87.70899 -0.25842,10.6143 4.27687,15.3592 14.89453,15.35937 h 63.7539 c 10.43705,-1.7e-4 18.89648,-8.46154 18.89649,-18.89843 v -28.90821 c 0.008,-14.2672 11.57662,-25.82812 25.84375,-25.82812 14.26713,0 25.83575,11.56092 25.84375,25.82812 v 56.04102 c -0.26786,5.34045 -2.54671,7.9778 -8,8 h -54.58399 c -29.90371,2e-5 -56.33358,24.56863 -70.0996,49.71289 -13.76602,25.14426 -20.60743,55.89913 -20.60743,93.68164 0,37.78251 4.79201,64.83621 20.57618,93.70117 15.78416,28.86495 40.12545,49.76942 70.13085,49.76953 h 15.64258 c 16.44376,-1.1e-4 32.17952,-6.69666 43.58008,-18.54687 l 2.11133,-2.19336 8.74805,12.61328 c 3.53096,5.0909 9.33213,8.12684 15.52734,8.12695 h 56.34375 c 10.43697,-1.1e-4 18.89837,-8.45953 18.89844,-18.89648 V 617.4459 c -7e-5,-30.37467 -4.792,-57.428 -20.57617,-86.29296 C 628.83677,502.28799 584.49377,481.3834 541.87679,481.3834 Z m 3.60157,240.32618 h 8.33203 c 8.34951,0 13.11921,4.76774 13.11914,13.11718 v 97.17383 c 7e-5,20.28255 -6.62139,39.35352 -25.76953,39.35352 -19.14813,0 -25.87531,-10.6405 -28.09571,-18.68946 -5.05479,-18.3236 -4.19457,-38.73108 -4,-44.52148 0.22515,-6.70065 0.94211,-26.51974 4.17774,-41.08008 4.39987,-19.79939 12.62148,-45.35351 32.23633,-45.35351 z"
         style="opacity:1;fill:#f2f2f2;stroke:none;stroke-width:3.571;stroke-linecap:square;stroke-miterlimit:0"
         id="path7"
         inkscape:label="a" /><path
         id="path58"
         style="fill:#f2f2f2;fill-opacity:1;stroke:none;stroke-width:3.571;stroke-linecap:round"
         d="m 791.81101,934.92689 -60.47243,-1.1e-4 c -10.43687,0 -18.89763,-8.46076 -18.8976,-18.89771 l -10e-6,-604.7242 c -2e-5,-10.437 8.46074,-18.89777 18.89782,-18.89782 h 60.47222 c 10.43689,5e-5 18.89765,8.46081 18.89782,18.89782 v 604.7242 c -1.7e-4,10.43695 -8.46094,18.89771 -18.89782,18.89782 z"
         sodipodi:nodetypes="ccccccccc"
         inkscape:label="l" /><path
         id="path93"
         style="fill:#f2f2f2;stroke:none;stroke-width:3.571;stroke-linecap:round"
         d="m 2560.6279,1021.6456 c 0,-9.3932 -7.6147,-17.0079 -17.0079,-17.0067 l -1184.8799,9e-4 c -2.0873,-3e-4 -3.7795,-1.6924 -3.7798,-3.7798 V 696.81677 c 3e-4,-12.52445 -10.1526,-22.67735 -22.6786,-22.67758 L 1251.02,674.139 V 565.07006 c 0,-34.58269 -20.3744,-65.91833 -51.9841,-79.94666 -31.6097,-14.02833 -68.5169,-8.11501 -94.1616,15.08666 -6.929,6.26896 -17.3994,6.53274 -24.6353,0.62064 -35.6374,-29.11753 -86.27086,-31.04651 -124.02033,-4.72481 -1.9505,-8.61006 -9.6024,-14.72241 -18.43055,-14.72265 H 876.8502 c -10.43668,2.4e-4 -18.89744,8.461 -18.89732,18.89782 v 415.74801 c -1.2e-4,10.43695 8.46064,18.89771 18.89732,18.89782 h 60.47057 c 10.43464,-1.1e-4 18.8954,-8.46087 18.89517,-18.89782 V 581.54098 c 0.0152,-13.55736 11.00981,-24.53979 24.56715,-24.53979 13.55733,0 24.55191,10.98243 24.56691,24.53979 v 334.48809 c 0,10.43698 8.4629,18.89774 18.8988,18.89782 h 60.4743 c 10.4421,-1.3e-4 18.9028,-8.46088 18.9018,-18.89782 l -10e-4,-334.48809 c 0,-13.56798 10.999,-24.56696 24.5669,-24.56696 13.568,0 24.567,10.99898 24.567,24.56696 v 334.48809 c 0,10.43694 8.4586,18.89769 18.8938,18.89782 h 60.4762 c 10.4349,-1.3e-4 18.8956,-8.46088 18.8938,-18.89782 V 708.155 l 66.1453,6e-5 c 2.0826,9e-5 3.7747,1.69223 3.7747,3.77977 v 304.04327 c 0,12.5224 10.1553,22.6754 22.6785,22.6737 l 1199.999,-1e-4 c 9.3932,0 17.0079,-7.6129 17.0079,-17.0061 z"
         sodipodi:nodetypes="scccccccscccccccccccsccccccscccccccccccs"
         inkscape:label="m" /><path
         id="path6"
         style="display:inline;fill:#f2f2f2;fill-opacity:1;stroke:none;stroke-width:3.571;stroke-linecap:round"
         d="m 1470.2366,934.92689 h 60.4723 c 10.437,-1.1e-4 18.8978,-8.46087 18.8978,-18.89782 V 673.502 l 75.5907,2e-5 c 34.7988,3e-5 67.3673,-23.98035 85.6958,-52.18569 18.3285,-28.20533 27.6899,-73.58583 27.6899,-138.29391 0,-64.70809 -7.2611,-106.93463 -27.6262,-138.33152 -20.3651,-31.39688 -51.0375,-52.2838 -85.7595,-52.28385 h -154.9608 c -10.4369,5e-5 -18.8976,8.46081 -18.8978,18.89782 v 604.7242 c 2e-4,10.43695 8.4609,18.89771 18.8978,18.89782 z m 148.2889,-505.10617 c 3.3746,15.3655 4.9877,32.82476 4.9877,55.87988 0,23.05512 -0.8298,35.90053 -4.9909,54.83898 -4.1611,18.93845 -10.3602,40.78752 -25.2455,40.78747 l -43.6701,-5e-5 V 389.019 l 43.6701,-1.6e-4 c 14.9519,-1.7e-4 21.874,25.43639 25.2487,40.80188 z"
         sodipodi:nodetypes="cccccscscccccscsccccs"
         inkscape:label="P" /><path
         id="path118"
         style="fill:#f2f2f2;stroke:none;stroke-width:3.571;stroke-linecap:round"
         d="m 1865.1984,934.92689 h -60.4762 c -10.4347,-1.3e-4 -18.8954,-8.46088 -18.8938,-18.89782 V 500.28106 c 0,-10.43681 8.4591,-18.89756 18.8938,-18.89782 h 60.4762 c 10.4354,2.6e-4 18.8961,8.46101 18.8938,18.89781 v 415.74802 c 0,10.43694 -8.4584,18.89769 -18.8938,18.89782 z"
         sodipodi:nodetypes="ccccccccc"
         inkscape:label="i" /><path
         id="path126"
         style="fill:#f2f2f2;stroke:none;stroke-width:3.571;stroke-linecap:round"
         d="m 1804.7222,395.35594 h 60.4743 c 10.4334,-8e-5 18.8941,-8.46084 18.8938,-18.89782 l -3e-4,-65.15325 c 0,-10.43699 -8.4585,-18.89775 -18.8939,-18.89782 h -60.4762 c -10.4347,7e-5 -18.8954,8.46083 -18.8938,18.89782 l 3e-4,65.15325 c 4e-4,10.43698 8.4611,18.89774 18.8958,18.89782 z"
         sodipodi:nodetypes="ccccccccc"
         inkscape:label="i" /><path
         id="path8"
         style="fill:#f2f2f2;fill-opacity:1;stroke:none;stroke-width:3.571;stroke-linecap:round"
         d="m 2010.7089,934.92689 -60.4725,-1.1e-4 c -10.4368,0 -18.8976,-8.46076 -18.8976,-18.89771 v -604.7242 c 0,-10.437 8.4608,-18.89777 18.8978,-18.89782 h 60.4723 c 10.4368,5e-5 18.8976,8.46081 18.8978,18.89782 v 604.7242 c -2e-4,10.43695 -8.461,18.89771 -18.8978,18.89782 z"
         sodipodi:nodetypes="ccccccccc"
         inkscape:label="l" /><path
         id="path154"
         style="fill:#f2f2f2;stroke:none;stroke-width:3.571;stroke-linecap:round"
         d="m 2362.2,542.377 v -42.096 m -20.7838,117.16523 -7e-4,181.41766 c -6e-4,66.52931 -47.7523,136.06289 -132.3885,136.06289 -84.6362,0 -132.1766,-69.63706 -132.1768,-136.06289 V 617.44623 c 2e-4,-66.52917 47.752,-136.06275 132.3881,-136.06275 84.6362,0 132.1779,69.63706 132.1779,136.06275 z m -111.4285,-36.02638 c -0.015,-10.83026 -8.7991,-19.6018 -19.6293,-19.6018 -10.8301,0 -19.6138,8.77154 -19.6286,19.6018 l 2e-4,240.49528 c 0.015,10.83023 8.7988,19.60177 19.6289,19.60177 10.8302,0 19.6139,-8.77154 19.629,-19.60177 z"
         sodipodi:nodetypes="ccccccccccsccscc"
         inkscape:label="o" /><path
         id="path170"
         style="fill:#f2f2f2;stroke:none;stroke-width:3.571;stroke-linecap:round"
         d="m 2362.2047,542.37734 c 0,10.4369 8.4608,18.89767 18.8965,18.89765 l 28.3488,10e-6 -6e-4,320.7382 c -6e-4,29.22346 23.6895,52.91359 52.9117,52.91369 h 98.9402 c 10.4381,-8e-5 18.8989,-8.46084 18.8988,-18.89782 v -60.47222 c 0,-10.43705 -8.4567,-18.89781 -18.8948,-18.89782 h -38.4713 c -8.3495,3e-5 -15.1181,-6.76857 -15.1181,-15.11805 V 561.275 l 39.6808,-10e-6 c 10.4377,-3e-5 18.8984,-8.46079 18.8988,-18.89782 v -42.09612 c -4e-4,-10.4368 -8.4611,-18.89755 -18.8988,-18.89781 l -39.6808,-2.4e-4 v -93.77279 c 0,-13.45177 -13.6584,-22.59647 -26.0974,-17.47321 l -60.4712,24.90821 c -7.0803,2.91641 -11.7008,9.81663 -11.7002,17.47371 l 6e-4,68.86408 -28.3488,2.4e-4 c -10.4357,2.1e-4 -18.8965,8.46097 -18.8965,18.89787"
         sodipodi:nodetypes="cccccccccccccccccccccccc"
         inkscape:label="t" /></g></g></svg>
