<?xml version="1.0" encoding="UTF-8" standalone="no"?>
<svg
   xmlns:dc="http://purl.org/dc/elements/1.1/"
   xmlns:cc="http://creativecommons.org/ns#"
   xmlns:rdf="http://www.w3.org/1999/02/22-rdf-syntax-ns#"
   xmlns:svg="http://www.w3.org/2000/svg"
   xmlns="http://www.w3.org/2000/svg"
   xmlns:sodipodi="http://sodipodi.sourceforge.net/DTD/sodipodi-0.dtd"
   xmlns:inkscape="http://www.inkscape.org/namespaces/inkscape"
   id="svg"
   version="1.1"
   width="400"
   height="110.39999999999999"
   viewBox="0, 0, 400,110.39999999999999"
   sodipodi:docname="pc88-w.svg"
   inkscape:version="0.92.4 (5da689c313, 2019-01-14)">
  <metadata
     id="metadata10">
    <rdf:RDF>
      <cc:Work
         rdf:about="">
        <dc:format>image/svg+xml</dc:format>
        <dc:type
           rdf:resource="http://purl.org/dc/dcmitype/StillImage" />
      </cc:Work>
    </rdf:RDF>
  </metadata>
  <defs
     id="defs8" />
  <sodipodi:namedview
     pagecolor="#ffffff"
     bordercolor="#666666"
     borderopacity="1"
     objecttolerance="10"
     gridtolerance="10"
     guidetolerance="10"
     inkscape:pageopacity="0"
     inkscape:pageshadow="2"
     inkscape:window-width="640"
     inkscape:window-height="480"
     id="namedview6"
     showgrid="false"
     inkscape:zoom="1.785"
     inkscape:cx="256.84949"
     inkscape:cy="55.400246"
     inkscape:current-layer="svgg" />
  <g
     id="svgg"
     transform="translate(-6.5826331,-1.2605042)">
    <path
       id="path1-3"
       d="m 137.29944,14.699536 c -0.297,0.133 -0.306,21.735001 -0.009,22.032 0.284,0.284 3.898,0.276 4.082,-0.008 0.074,-0.115001 0.172,-4.146 0.218,-8.959 l 0.084,-8.750001 0.623,-0.051 c 1.068,-0.089 2.648,0.404 3.187,0.993 1.209,1.323 -0.038,3.642001 -1.96,3.642001 -0.861,0 -1.397,2.823 -0.761,4.011 0.327,0.61 3.421,0.162 4.991,-0.724 4.219,-2.38 4.182,-9.180001 -0.06,-11.187001 -1.753,-0.829 -9.182,-1.544 -10.395,-0.999 m 22.025,0.135 c -10.665,2.441 -10.85,19.707001 -0.234,21.852 1.561,0.315 3.581,0.264 4.75,-0.119999 l 0.667,-0.220001 v -1.985999 -1.987 l -2.083,-0.012 c -3.527,-0.022 -5.408,-1.463 -6.229,-4.774 -1.224,-4.936001 2.708,-9.564001 7.237,-8.519001 1.285,0.297 1.345,0.201 1.289,-2.035 -0.047,-1.834 -0.051,-1.85 -0.506,-2.068 -0.688,-0.329 -3.677,-0.409 -4.891,-0.131 m 23.516,0.245 c -4.158,1.211 -5.883,5.055 -3.958,8.822 0.853,1.670001 0.852,1.636001 0.134,2.474001 -3.518,4.11 -0.896,9.473999 5.083,10.401999 6.15,0.954 10.629,-5.873999 6.717,-10.238999 -0.838,-0.935 -0.868,-1.105001 -0.328,-1.826001 2.797,-3.733 0.632,-8.771 -4.198,-9.766 -1.217,-0.251 -2.271,-0.21 -3.45,0.133 m 15.667,0 c -4.426,1.289 -6.071,5.531 -3.641,9.39 0.532,0.846 0.501,1.048001 -0.324,2.118001 -2.507,3.249 -1.382,7.583999 2.437,9.392999 6.847,3.241 14.174,-3.755 9.694,-9.257999 -1.092,-1.341001 -1.073,-1.15 -0.249,-2.418001 3.189,-4.908 -1.996,-10.949 -7.917,-9.225 m 16.917,-0.004 c -4.195,1.09 -6.167,4.457 -6.167,10.528 0,7.699 3.514,12.105 9.029,11.324 4.635,-0.657 6.83,-4.121 6.86,-10.829 0.011,-2.584 -0.058,-3.099 -0.756,-5.584 -1.217,-4.34 -4.81,-6.519 -8.966,-5.439 m 16.833,-0.043 c -3.73,1.168 -5.44,4.041 -5.779,9.709 -0.544,9.082 5.326,14.616 11.827,11.151 5.587,-2.978 5.549,-17.439 -0.054,-20.297 -1.651,-0.842 -4.306,-1.092 -5.994,-0.563 m 87.575,1.296 c -2.067,0.916 -0.77,4.079 1.316,3.208 1.158,-0.484 1.429,-1.77 0.567,-2.685 -0.64,-0.679 -1.186,-0.831 -1.883,-0.523 m 4.758,-0.113 c -1.653,0.602 -1.523,3.095 0.182,3.469 1.176,0.259 2.386,-1.204 1.919,-2.32 -0.366,-0.876 -1.359,-1.419 -2.101,-1.149 m -79.251,0.219 c -0.253,0.409 -0.234,3.488 0.024,3.745 0.359,0.36 9.082,0.378 9.379,0.02 0.127,-0.153 0.177,-0.851 0.146,-2.042 l -0.048,-1.809 -4.697,-0.045 c -3.136,-0.029 -4.732,0.014 -4.804,0.131 m 20.852,0.094 c -0.203,0.53 -0.112,8.991 0.099,9.203 0.132,0.132 0.834,0.2 2.05,0.2 1.217,0 1.919,-0.068 2.05,-0.2 0.285,-0.285 0.285,-8.982 0,-9.267 -0.33,-0.33 -4.069,-0.273 -4.199,0.064 m 11.167,0 c -0.055,0.145 -0.103,3.051 -0.105,6.458 -0.006,9.549001 0.258,9.168001 -6.413,9.245 -5.123,0.06 -4.75,-0.113 -4.75,2.199 0,2.16 -0.388,2.001 4.883,2.001 6.959,0 8.852,-0.943 10.343,-5.151 0.399,-1.128 0.649,-13.983 0.284,-14.664 -0.252,-0.471 -4.065,-0.55 -4.242,-0.088 m 22.667,0 c -0.19,0.494 -0.111,3.327 0.099,3.536 0.148,0.148 1.732,0.2 6.096,0.2 h 5.896 l 0.487,0.488 c 0.895,0.894 0.978,0.771 -4.176,6.179 -1.791,1.879001 -3.623,3.809 -4.071,4.289 -1.031,1.103 -1.923,1.544 -3.118,1.544 -1.244,0 -1.314,0.108 -1.314,2.028 0,2.04 0.031,2.066 2.322,1.906 2.713,-0.19 2.597,-0.124 5.638,-3.196 1.49,-1.506 2.779,-2.738 2.864,-2.738 0.372,0 1.821,2.15 3.084,4.578 0.332,0.638 0.695,1.218 0.806,1.289 0.239,0.152 3.473,0.179 3.855,0.032 0.739,-0.283 -0.387,-2.667 -3.52,-7.449999 -1.274,-1.945001 -1.298,-1.728 0.388,-3.500001 1.569,-1.649 2.063,-2.539 2.061,-3.71 -0.005,-2.437 -1.572,-4.599 -3.916,-5.406 -1.335,-0.459 -13.308,-0.521 -13.481,-0.069 m -40.662,1.273 c -0.056,0.209 -0.102,2.99 -0.104,6.18 -0.003,8.428 0.327,8.117 -8.611,8.117 -3.787,0 -5.237,0.053 -5.325,0.194 -0.153,0.248 -0.149,3.703 0.005,3.952 0.201,0.325 11.475,0.254 12.607,-0.079 2.48,-0.73 4.741,-2.963 5.394,-5.328 0.235,-0.850999 0.267,-1.853999 0.226,-7.156 l -0.048,-6.167 -2.021,-0.046 c -1.981,-0.046 -2.023,-0.039 -2.123,0.333 m -73.683,1.394 c 1.493,0.708 1.534,2.966 0.066,3.574 -1.342,0.556001 -2.828,-0.349 -2.816,-1.716 0.013,-1.633 1.338,-2.528 2.75,-1.858 m 15.949,0.155 c 1.61,1.094 0.912,3.578 -1.005,3.58 -1.221,0.002 -2.037,-0.8 -2.028,-1.994 0.011,-1.664 1.655,-2.523 3.033,-1.586 m 33.706,-0.015 c 2.664,1.113 3.161,9.799001 0.707,12.385 -2.275,2.397 -4.612,-0.716 -4.617,-6.149 -0.004,-4.561 1.641,-7.184 3.91,-6.236 m -16.716,0.535 c 2.792,2.651 2.087,12.543 -0.909,12.754 -1.76,0.123 -2.824,-1.233 -3.356,-4.277999 -1.022,-5.841001 1.584,-11.020001 4.265,-8.476001 m 26.805,2.891 c -0.279,0.176 -0.383,2.928 -0.138,3.631 l 0.131,0.378 4.712,-0.045 4.711,-0.044 0.048,-1.831 c 0.041,-1.576999 0.008,-1.86 -0.24,-2.042 -0.351,-0.257 -8.825,-0.3 -9.224,-0.047 m -80.328,1.826 c -0.24,0.449 -0.22,2.563 0.028,2.811 0.285,0.285001 10.147,0.285001 10.433,0 0.267,-0.268 0.267,-2.666 0,-2.934 -0.39,-0.389 -10.248,-0.274 -10.461,0.123 m 118.623,0.073 c -0.263,0.262 -0.271,3.362001 -0.01,3.623001 0.088,0.088 3.726,0.133 8.641,0.108 l 8.49,-0.043 0.048,-1.726001 c 0.031,-1.129 -0.019,-1.806 -0.145,-1.958 -0.285,-0.343 -16.681,-0.347 -17.024,-0.004 m -97.531,3.682001 c 1.356,0.888 1.417,2.972999 0.113,3.884999 -1.042,0.729 -2.093,0.628 -3.063,-0.295 -1.998,-1.9 0.636,-5.106 2.95,-3.589999 m 15.762,0.108 c 1.839,1.308999 0.91,4.212999 -1.347,4.210999 -2.478,-10e-4 -3.332,-3.275999 -1.144,-4.383999 0.84,-0.425 1.739,-0.363 2.491,0.173 m -64.349,12.508999 c -0.494,0.184 -0.488,-0.244 -0.457,31.722001 l 0.03,30.833004 h 6.25 6.25 l 0.042,-24.983004 c 0.031,-18.129 0.093,-25.045 0.229,-25.209 0.425,-0.513 5.337,-0.08 7.895,0.695 3.128,0.948 4.417,2.656 4.417,5.851 0,3.866 -2.573,6.038 -7.685,6.486 -0.698,0.062 -1.351,0.163 -1.451,0.225 -0.294,0.181 -0.299,11.681 -0.005,11.885 0.459,0.317 5.721,-0.176 8.404,-0.788 10.202,-2.327 15.22,-9.346 14.412,-20.162 -0.788,-10.549 -6.978,-15.327 -21.258,-16.408001 -2.738,-0.208 -16.588,-0.326 -17.073,-0.147 m 70.989,-0.079 c -16.699,0.833001 -27.728,13.479001 -27.734,31.801001 -0.007,20.254 14.013,33.289004 32.901,30.590004 2.424,-0.346 4.502,-0.784 4.716,-0.993 0.074,-0.071 0.128,-2.744004 0.122,-5.939004 -0.013,-6.109 -0.023,-6.189 -0.755,-5.987 -13.566,3.744 -24.958,-5.901 -23.599,-19.98 1.227,-12.711 11.771,-20.012 23.78,-16.465 1.094,0.323 1.069,0.458 1.069,-5.786 0,-4.267 -0.05,-5.696 -0.21,-5.914 -0.484,-0.661 -6.94,-1.494001 -10.29,-1.327001 m 174.991,0.087 c -0.458,0.169 -0.517,62.354005 -0.06,62.530005 0.535,0.205 11.824,0.112 12.036,-0.099 0.324,-0.324 0.287,-62.277005 -0.037,-62.402005 -0.361,-0.138 -11.57,-0.165 -11.939,-0.029 m -29.574,0.067 c -13.113,1.297001 -19.907,9.603001 -21.184,25.897001 -0.538,6.867 0.185,14.106 1.99,19.917 0.808,2.6 1.83,4.878 3.326,7.416 4.37,7.411004 12.538,10.672004 21.89,8.740004 7.677,-1.585 12.232,-5.669004 15.235,-13.656004 5.11,-13.595 2.379,-35.306 -5.406,-42.976 -3.69,-3.636 -10.356,-5.881001 -15.851,-5.338001 m -301.46901,0.34 c -0.111,0.407001 -0.519,2.251001 -0.951,4.307001 -0.193,0.917 -0.418,1.967 -0.501,2.333 -0.083,0.367 -0.308,1.417 -0.501,2.334 -0.54,2.569 -0.806,3.816 -1.074,5.041 -0.835,3.822 -1.403,6.514 -1.45,6.875 -0.092,0.711 -0.666,0.521 -1.572,-0.521 -0.448,-0.516 -3.215,-3.619 -6.149,-6.897 -2.933,-3.277 -6.008,-6.724 -6.833,-7.659 -1.519,-1.723 -3.737,-4.201 -4.685,-5.234 -0.619,-0.674001 -0.767,-0.625001 -1.782,0.586 -0.385,0.46 -1.825,2.133 -3.2,3.718 -5.358999,6.178 -5.066999,5.646 -3.497999,6.393 2.807999,1.336 3.365999,3.052 2.420999,7.448 -0.286,1.329 -0.773,3.616 -1.083,5.083 -0.308999,1.467 -0.682999,3.229 -0.829999,3.917 -0.146,0.687 -0.487,2.3 -0.755,3.583 -0.269,1.283 -0.719,3.421 -1,4.75 -1.271,6.011 -1.298,5.692 0.404,4.862 0.596,-0.291 1.123,-0.529 1.17,-0.529 0.047,0 0.78,-0.324 1.628999,-0.719 0.848,-0.396 2.48,-1.123 3.626,-1.615 3.144,-1.35 3.13,-1.065 0.17,-3.5 -2.718,-2.235 -2.555,-1.757 -1.837,-5.386 1.629,-8.236 2.167,-10.976 2.167,-11.041 0,-0.297 0.629,0.051 1.151,0.636 0.348,0.39 2.792,3.146 5.431,6.125 2.638,2.98 5.033,5.679 5.321,6 0.288,0.321 1.121,1.261 1.852,2.09 5.085,5.767 7.317,8.244 7.429,8.244 0.256,0 0.402,-0.451 0.835,-2.584 0.242,-1.191 0.873,-4.266 1.402,-6.833 0.529,-2.567 1.019,-4.967 1.087,-5.333 0.069,-0.367 0.388,-1.942 0.711,-3.5 1.249,-6.035 2.141,-10.389 2.39,-11.667 0.381,-1.96 0.33,-1.908 3.972,-4.057 1.821,-1.075 3.339,-2.037 3.372,-2.138 0.062,-0.184 -0.654,-0.656 -5.522,-3.641 -2.954,-1.811001 -3.194,-1.918001 -3.317,-1.471001 m 207.63601,-0.102 c -9.561,0.907001 -16.161,7.274001 -16.836,16.242001 -0.294,3.901 0.666,6.911 3.937,12.357 0.974,1.62 0.963,1.482 0.187,2.31 -4.792,5.113 -5.806,7.44 -5.659,12.989 0.21,7.947 4.963,14.075 13.009,16.770004 16.139,5.408 31.042,-5.627004 28.372,-21.008004 -0.415,-2.394 -1.838,-4.687 -4.877,-7.862 -1.58,-1.65 -1.583,-1.662 -0.805,-2.681 2.234,-2.927 3.387,-5.024 3.914,-7.125 2.733,-10.88 -5.069,-21.014 -16.935,-21.997001 -2.164,-0.18 -2.361,-0.18 -4.307,0.005 m 45.666,-0.008 c -8.058,0.715001 -14.342,5.642001 -16.259,12.750001 -1.386,5.137 -0.653,8.966 2.875,15.015 0.593,1.017 1.127,1.976 1.187,2.132 0.096,0.249 -0.645,1.255 -1.487,2.019 -7.674,6.964 -6.034,20.148 3.268,26.27 13.153,8.657004 31.135,2.327004 33.421,-11.765 1.018,-6.277 -0.166,-9.707 -5.133,-14.873 -0.866,-0.9 -1.272,-1.442 -1.189,-1.583 0.07,-0.118 0.367,-0.515 0.66,-0.881 1.809,-2.266 3.407,-5.058 3.814,-6.667 2.492,-9.84 -2.933,-18.941 -12.955,-21.736 -2.567,-0.716001 -5.275,-0.941001 -8.202,-0.681001 m -185.25,0.443001 c -12.576,1.202 -21.93901,8.129 -24.49501,18.122 -3.745,14.642 7.52401,26.357 21.80201,22.665 2.297,-0.594 2.334,-0.624 3.185,-2.506 0.408,-0.902 0.996,-2.203 1.307,-2.89 0.672,-1.489 1.065,-2.352 1.78,-3.917 2.499,-5.467 2.772,-6.242 2.048,-5.814 -0.116,0.068 -0.51,0.311 -0.877,0.54 -4.717,2.941 -10.342,4.291 -13.649,3.276 -5.979,-1.835 -9.154,-9.703 -6.247,-15.476 2.484,-4.932 7.647,-9.332 11.396,-9.709 1.258,-0.127 0.861,-0.551 5.125,5.475 1.32,1.865 1.23,1.836 3.138,1.035 2.356,-0.99 2.821,-1.23 2.821,-1.46 0,-0.776 -2.73,-7.998 -3.431,-9.075 -0.245,-0.378 -1.699,-0.477 -3.903,-0.266 m -58.08001,1.22 c -0.211,0.34 0.299,0.858 1.559,1.585 1.881,1.085 1.934,1.164 1.721,2.539 -0.208,1.34 -2.115,11.91 -2.377,13.176 -0.22,1.066 -0.49,1.265 -2.061,1.53 -2.262,0.38 -2.484,1.341 -0.31,1.341 1.689,0 1.8,0.394 1.123,4 -0.232,1.237 -0.531,2.868 -0.665,3.625 -1.515,8.571 -1.411,8.15 -2.105,8.499 -0.213,0.108 -1.008,0.429 -1.766,0.715 -0.758,0.286 -1.602,0.709 -1.875,0.939 -1.114,0.937 -1.934,0.894 16.031,0.847 l 16.528,-0.042 0.12,-0.417 c 0.067,-0.229 0.285,-1.504 0.487,-2.833 0.315,-2.083 0.983,-6.22 1.286,-7.958 0.113,-0.646 -0.233,-0.749 -0.621,-0.186 -3.790265,6.371774 -9.098759,8.634535 -14.134,8.644 -3.966,0 -3.682,0.248 -3.129,-2.731 0.223,-1.202 0.566,-3.086 0.762,-4.186 0.196,-1.1 0.428,-2.375 0.516,-2.833 0.088,-0.458 0.311,-1.696 0.495,-2.75 0.465,-2.655 0.459,-2.635 0.839,-2.839 1.581,-0.846 5.469,1.842 6.884,4.761 0.354,0.73 0.7,1.44 0.768,1.578 0.234,0.472 0.583,0.266 0.705,-0.417 0.138,-0.769 1.106,-5.982 1.812,-9.75 0.266,-1.42 0.604,-3.129 0.751,-3.797 0.422,-1.914 0.299,-1.901 -1.797,0.191 -2.803,2.797 -4.973,4.103 -7.041,4.236 -1.533,0.098 -1.728,-0.082 -1.454,-1.344 0.209,-0.964 1.804,-10.263 2.045,-11.924 0.272,-1.877 -0.179,-1.73 5.121,-1.667 5.238,0.063 5.032,0.013 6.554,1.587 1.395,1.443 2.91,4.356 3.22,6.191 0.225,1.328 0.799,1.01 0.982,-0.544 0.058,-0.496 0.42,-2.652 0.804,-4.791 0.384,-2.138 0.703,-4.15 0.708,-4.471 l 0.011,-0.583 -16.198,-0.043 c -10.493,-0.027 -16.234,0.015 -16.299,0.122 m 202.27601,10.46 c 2.955,1.319 4.238,4.992 2.791,7.992 -1.656,3.434 -7.164,3.898 -9.502,0.801 -3.61,-4.782 1.296,-11.211 6.711,-8.793 m 45.85,0.123 c 4.134,1.992 4.334,8.149 0.328,10.121 -4.011,1.975 -8.37,-0.647 -8.37,-5.033 0,-4.393 4.1,-6.987 8.042,-5.088 m 46.965,0.474 c 8.845,4.213 8.991,32.517 0.19,36.799 -6.049,2.943 -11.196,-5.593 -11.2,-18.573 -0.004,-13.122 4.851,-21.159 11.01,-18.226 m -136.231,13.723 c -0.062,0.062 -0.113,2.124 -0.113,4.582 v 4.469 l 0.375,0.091 c 0.206,0.05 3.487,0.07 7.292,0.045 l 6.916,-0.046 v -4.584 -4.583 l -7.178,-0.043 c -3.949,-0.024 -7.23,0.007 -7.292,0.069 m 43.935,11.059 c 4.227,1.581 5.463,7.684 2.209,10.911 -3.498,3.469 -10.033,1.945 -11.317,-2.64 -1.636,-5.838 3.397,-10.408 9.108,-8.271 m 44.783,-0.242 c 6.842,1.613 6.462,11.78 -0.483,12.927 -4.401,0.727 -7.845,-2 -7.989,-6.324 -0.159,-4.812 3.609,-7.749 8.472,-6.603"
       inkscape:connector-curvature="0"
       style="fill:#000000;fill-rule:evenodd;stroke:none"
       sodipodi:nodetypes="cscccccsccccccccccccccccccccccccccccccccsccccccccccccccccccccccccccscsccccsscccccsccccssccsccccccccccscccccccccccccccccccccccccccccccccsccccscccccccccccccccccccccscccccccccccccccsccccccccccccccccccccccccccccccccccsccccsscscscscccccccccccccccccccccccccccccccccccccccccccccscccccccscccscccccccccssccccccccccccccccccccccccccsccccccsccccccccccczcccc" />
    <path
       id="path1"
       d="m 135.55697,12.81857 c -0.297,0.133 -0.306,21.735 -0.009,22.032 0.284,0.284 3.898,0.276 4.082,-0.008 0.074,-0.115 0.172,-4.146 0.218,-8.959 l 0.084,-8.75 0.623,-0.051 c 1.068,-0.089 2.648,0.404 3.187,0.993 1.209,1.323 -0.038,3.642 -1.96,3.642 -0.861,0 -1.397,2.823 -0.761,4.011 0.327,0.61 3.421,0.162 4.991,-0.724 4.219,-2.38 4.182,-9.18 -0.06,-11.187 -1.753,-0.829 -9.182,-1.544 -10.395,-0.999 m 22.025,0.135 c -10.665,2.441 -10.85,19.707 -0.234,21.852 1.561,0.315 3.581,0.264 4.75,-0.12 l 0.667,-0.22 v -1.986 -1.987 l -2.083,-0.012 c -3.527,-0.022 -5.408,-1.463 -6.229,-4.774 -1.224,-4.936 2.708,-9.564 7.237,-8.519 1.285,0.297 1.345,0.201 1.289,-2.035 -0.047,-1.834 -0.051,-1.85 -0.506,-2.068 -0.688,-0.329 -3.677,-0.409 -4.891,-0.131 m 23.516,0.245 c -4.158,1.211 -5.883,5.055 -3.958,8.822 0.853,1.67 0.852,1.636 0.134,2.474 -3.518,4.11 -0.896,9.474 5.083,10.402 6.15,0.954 10.629,-5.874 6.717,-10.239 -0.838,-0.935 -0.868,-1.105 -0.328,-1.826 2.797,-3.733 0.632,-8.771 -4.198,-9.766 -1.217,-0.251 -2.271,-0.21 -3.45,0.133 m 15.667,0 c -4.426,1.289 -6.071,5.531 -3.641,9.39 0.532,0.846 0.501,1.048 -0.324,2.118 -2.507,3.249 -1.382,7.584 2.437,9.393 6.847,3.241 14.174,-3.755 9.694,-9.258 -1.092,-1.341 -1.073,-1.15 -0.249,-2.418 3.189,-4.908 -1.996,-10.949 -7.917,-9.225 m 16.917,-0.004 c -4.195,1.09 -6.167,4.457 -6.167,10.528 0,7.699 3.514,12.105 9.029,11.324 4.635,-0.657 6.83,-4.121 6.86,-10.829 0.011,-2.584 -0.058,-3.099 -0.756,-5.584 -1.217,-4.34 -4.81,-6.519 -8.966,-5.439 m 16.833,-0.043 c -3.73,1.168 -5.44,4.041 -5.779,9.709 -0.544,9.082 5.326,14.616 11.827,11.151 5.587,-2.978 5.549,-17.439 -0.054,-20.297 -1.651,-0.842 -4.306,-1.092 -5.994,-0.563 m 87.575,1.296 c -2.067,0.916 -0.77,4.079 1.316,3.208 1.158,-0.484 1.429,-1.77 0.567,-2.685 -0.64,-0.679 -1.186,-0.831 -1.883,-0.523 m 4.758,-0.113 c -1.653,0.602 -1.523,3.095 0.182,3.469 1.176,0.259 2.386,-1.204 1.919,-2.32 -0.366,-0.876 -1.359,-1.419 -2.101,-1.149 m -79.251,0.219 c -0.253,0.409 -0.234,3.488 0.024,3.745 0.359,0.36 9.082,0.378 9.379,0.02 0.127,-0.153 0.177,-0.851 0.146,-2.042 l -0.048,-1.809 -4.697,-0.045 c -3.136,-0.029 -4.732,0.014 -4.804,0.131 m 20.852,0.094 c -0.203,0.53 -0.112,8.991 0.099,9.203 0.132,0.132 0.834,0.2 2.05,0.2 1.217,0 1.919,-0.068 2.05,-0.2 0.285,-0.285 0.285,-8.982 0,-9.267 -0.33,-0.33 -4.069,-0.273 -4.199,0.064 m 11.167,0 c -0.055,0.145 -0.103,3.051 -0.105,6.458 -0.006,9.549 0.258,9.168 -6.413,9.245 -5.123,0.06 -4.75,-0.113 -4.75,2.199 0,2.16 -0.388,2.001 4.883,2.001 6.959,0 8.852,-0.943 10.343,-5.151 0.399,-1.128 0.649,-13.983 0.284,-14.664 -0.252,-0.471 -4.065,-0.55 -4.242,-0.088 m 22.667,0 c -0.19,0.494 -0.111,3.327 0.099,3.536 0.148,0.148 1.732,0.2 6.096,0.2 h 5.896 l 0.487,0.488 c 0.895,0.894 0.978,0.771 -4.176,6.179 -1.791,1.879 -3.623,3.809 -4.071,4.289 -1.031,1.103 -1.923,1.544 -3.118,1.544 -1.244,0 -1.314,0.108 -1.314,2.028 0,2.04 0.031,2.066 2.322,1.906 2.713,-0.19 2.597,-0.124 5.638,-3.196 1.49,-1.506 2.779,-2.738 2.864,-2.738 0.372,0 1.821,2.15 3.084,4.578 0.332,0.638 0.695,1.218 0.806,1.289 0.239,0.152 3.473,0.179 3.855,0.032 0.739,-0.283 -0.387,-2.667 -3.52,-7.45 -1.274,-1.945 -1.298,-1.728 0.388,-3.5 1.569,-1.649 2.063,-2.539 2.061,-3.71 -0.005,-2.437 -1.572,-4.599 -3.916,-5.406 -1.335,-0.459 -13.308,-0.521 -13.481,-0.069 m -40.662,1.273 c -0.056,0.209 -0.102,2.99 -0.104,6.18 -0.003,8.428 0.327,8.117 -8.611,8.117 -3.787,0 -5.237,0.053 -5.325,0.194 -0.153,0.248 -0.149,3.703 0.005,3.952 0.201,0.325 11.475,0.254 12.607,-0.079 2.48,-0.73 4.741,-2.963 5.394,-5.328 0.235,-0.851 0.267,-1.854 0.226,-7.156 l -0.048,-6.167 -2.021,-0.046 c -1.981,-0.046 -2.023,-0.039 -2.123,0.333 m -73.683,1.394 c 1.493,0.708 1.534,2.966 0.066,3.574 -1.342,0.556 -2.828,-0.349 -2.816,-1.716 0.013,-1.633 1.338,-2.528 2.75,-1.858 m 15.949,0.155 c 1.61,1.094 0.912,3.578 -1.005,3.58 -1.221,0.002 -2.037,-0.8 -2.028,-1.994 0.011,-1.664 1.655,-2.523 3.033,-1.586 m 33.706,-0.015 c 2.664,1.113 3.161,9.799 0.707,12.385 -2.275,2.397 -4.612,-0.716 -4.617,-6.149 -0.004,-4.561 1.641,-7.184 3.91,-6.236 m -16.716,0.535 c 2.792,2.651 2.087,12.543 -0.909,12.754 -1.76,0.123 -2.824,-1.233 -3.356,-4.278 -1.022,-5.841 1.584,-11.02 4.265,-8.476 m 26.805,2.891 c -0.279,0.176 -0.383,2.928 -0.138,3.631 l 0.131,0.378 4.712,-0.045 4.711,-0.044 0.048,-1.831 c 0.041,-1.577 0.008,-1.86 -0.24,-2.042 -0.351,-0.257 -8.825,-0.3 -9.224,-0.047 m -80.328,1.826 c -0.24,0.449 -0.22,2.563 0.028,2.811 0.285,0.285 10.147,0.285 10.433,0 0.267,-0.268 0.267,-2.666 0,-2.934 -0.39,-0.389 -10.248,-0.274 -10.461,0.123 m 118.623,0.073 c -0.263,0.262 -0.271,3.362 -0.01,3.623 0.088,0.088 3.726,0.133 8.641,0.108 l 8.49,-0.043 0.048,-1.726 c 0.031,-1.129 -0.019,-1.806 -0.145,-1.958 -0.285,-0.343 -16.681,-0.347 -17.024,-0.004 m -97.531,3.682 c 1.356,0.888 1.417,2.973 0.113,3.885 -1.042,0.729 -2.093,0.628 -3.063,-0.295 -1.998,-1.9 0.636,-5.106 2.95,-3.59 m 15.762,0.108 c 1.839,1.309 0.91,4.213 -1.347,4.211 -2.478,-0.001 -3.332,-3.276 -1.144,-4.384 0.84,-0.425 1.739,-0.363 2.491,0.173 m -64.349,12.509 c -0.494,0.184 -0.488,-0.244 -0.457,31.722 l 0.03,30.833 h 6.25 6.25 l 0.042,-24.983 c 0.031,-18.129 0.093,-25.045 0.229,-25.209 0.425,-0.513 5.337,-0.08 7.895,0.695 3.128,0.948 4.417,2.656 4.417,5.851 0,3.866 -2.573,6.038 -7.685,6.486 -0.698,0.062 -1.351,0.163 -1.451,0.225 -0.294,0.181 -0.299,11.681 -0.005,11.885 0.459,0.317 5.721,-0.176 8.404,-0.788 10.202,-2.327 15.22,-9.346 14.412,-20.162 -0.788,-10.549 -6.978,-15.327 -21.258,-16.408 -2.738,-0.208 -16.588,-0.326 -17.073,-0.147 m 70.989,-0.079 c -16.699,0.833 -27.728,13.479 -27.734,31.801 -0.007,20.254 14.013,33.289 32.901,30.59 2.424,-0.346 4.502,-0.784 4.716,-0.993 0.074,-0.071 0.128,-2.744 0.122,-5.939 -0.013,-6.109 -0.023,-6.189 -0.755,-5.987 -13.566,3.744 -24.958,-5.901 -23.599,-19.98 1.227,-12.711 11.771,-20.012 23.78,-16.465 1.094,0.323 1.069,0.458 1.069,-5.786 0,-4.267 -0.05,-5.696 -0.21,-5.914 -0.484,-0.661 -6.94,-1.494 -10.29,-1.327 m 174.991,0.087 c -0.458,0.169 -0.517,62.354 -0.06,62.53 0.535,0.205 11.824,0.112 12.036,-0.099 0.324,-0.324 0.287,-62.277 -0.037,-62.402 -0.361,-0.138 -11.57,-0.165 -11.939,-0.029 m -29.574,0.067 c -13.113,1.297 -19.907,9.603 -21.184,25.897 -0.538,6.867 0.185,14.106 1.99,19.917 0.808,2.6 1.83,4.878 3.326,7.416 4.37,7.411 12.538,10.672 21.89,8.74 7.677,-1.585 12.232,-5.669 15.235,-13.656 5.11,-13.595 2.379,-35.306 -5.406,-42.976 -3.69,-3.636 -10.356,-5.881 -15.851,-5.338 m -301.469004,0.34 c -0.111,0.407 -0.519,2.251 -0.951,4.307 -0.193,0.917 -0.418,1.967 -0.501,2.333 -0.083,0.367 -0.308,1.417 -0.501,2.334 -0.54,2.569 -0.806,3.816 -1.074,5.041 -0.835,3.822 -1.403,6.514 -1.45,6.875 -0.092,0.711 -0.666,0.521 -1.572,-0.521 -0.448,-0.516 -3.215,-3.619 -6.149,-6.897 -2.933,-3.277 -6.008,-6.724 -6.833,-7.659 -1.519,-1.723 -3.737,-4.201 -4.685,-5.234 -0.619,-0.674 -0.767,-0.625 -1.782,0.586 -0.385,0.46 -1.825,2.133 -3.2,3.718 -5.359,6.178 -5.067,5.646 -3.498,6.393 2.808,1.336 3.366,3.052 2.421,7.448 -0.286,1.329 -0.773,3.616 -1.083,5.083 -0.309,1.467 -0.683,3.229 -0.83,3.917 -0.146,0.687 -0.487,2.3 -0.755,3.583 -0.269,1.283 -0.719,3.421 -1,4.75 -1.271,6.011 -1.298,5.692 0.404,4.862 0.596,-0.291 1.123,-0.529 1.17,-0.529 0.047,0 0.78,-0.324 1.629,-0.719 0.848,-0.396 2.48,-1.123 3.626,-1.615 3.144,-1.35 3.13,-1.065 0.17,-3.5 -2.718,-2.235 -2.555,-1.757 -1.837,-5.386 1.629,-8.236 2.167,-10.976 2.167,-11.041 0,-0.297 0.629,0.051 1.151,0.636 0.348,0.39 2.792,3.146 5.431,6.125 2.638,2.98 5.033,5.679 5.321,6 0.288,0.321 1.121,1.261 1.852,2.09 5.085,5.767 7.317,8.244 7.429,8.244 0.256,0 0.402,-0.451 0.835,-2.584 0.242,-1.191 0.873,-4.266 1.402,-6.833 0.529,-2.567 1.019,-4.967 1.087,-5.333 0.069,-0.367 0.388,-1.942 0.711,-3.5 1.249,-6.035 2.141,-10.389 2.39,-11.667 0.381,-1.96 0.33,-1.908 3.972,-4.057 1.821,-1.075 3.339,-2.037 3.372,-2.138 0.062,-0.184 -0.654,-0.656 -5.522,-3.641 -2.954,-1.811 -3.194,-1.918 -3.317,-1.471 m 207.636004,-0.102 c -9.561,0.907 -16.161,7.274 -16.836,16.242 -0.294,3.901 0.666,6.911 3.937,12.357 0.974,1.62 0.963,1.482 0.187,2.31 -4.792,5.113 -5.806,7.44 -5.659,12.989 0.21,7.947 4.963,14.075 13.009,16.77 16.139,5.408 31.042,-5.627 28.372,-21.008 -0.415,-2.394 -1.838,-4.687 -4.877,-7.862 -1.58,-1.65 -1.583,-1.662 -0.805,-2.681 2.234,-2.927 3.387,-5.024 3.914,-7.125 2.733,-10.88 -5.069,-21.014 -16.935,-21.997 -2.164,-0.18 -2.361,-0.18 -4.307,0.005 m 45.666,-0.008 c -8.058,0.715 -14.342,5.642 -16.259,12.75 -1.386,5.137 -0.653,8.966 2.875,15.015 0.593,1.017 1.127,1.976 1.187,2.132 0.096,0.249 -0.645,1.255 -1.487,2.019 -7.674,6.964 -6.034,20.148 3.268,26.27 13.153,8.657 31.135,2.327 33.421,-11.765 1.018,-6.277 -0.166,-9.707 -5.133,-14.873 -0.866,-0.9 -1.272,-1.442 -1.189,-1.583 0.07,-0.118 0.367,-0.515 0.66,-0.881 1.809,-2.266 3.407,-5.058 3.814,-6.667 2.492,-9.84 -2.933,-18.941 -12.955,-21.736 -2.567,-0.716 -5.275,-0.941 -8.202,-0.681 m -185.25,0.443 c -12.576,1.202 -21.939004,8.129 -24.495004,18.122 -3.745,14.642 7.524004,26.357 21.802004,22.665 2.297,-0.594 2.334,-0.624 3.185,-2.506 0.408,-0.902 0.996,-2.203 1.307,-2.89 0.672,-1.489 1.065,-2.352 1.78,-3.917 2.499,-5.467 2.772,-6.242 2.048,-5.814 -0.116,0.068 -0.51,0.311 -0.877,0.54 -4.717,2.941 -10.342,4.291 -13.649,3.276 -5.979,-1.835 -9.154,-9.703 -6.247,-15.476 2.484,-4.932 7.647,-9.332 11.396,-9.709 1.258,-0.127 0.861,-0.551 5.125,5.475 1.32,1.865 1.23,1.836 3.138,1.035 2.356,-0.99 2.821,-1.23 2.821,-1.46 0,-0.776 -2.73,-7.998 -3.431,-9.075 -0.245,-0.378 -1.699,-0.477 -3.903,-0.266 m -58.080004,1.22 c -0.211,0.34 0.299,0.858 1.559,1.585 1.881,1.085 1.934,1.164 1.721,2.539 -0.208,1.34 -2.115,11.91 -2.377,13.176 -0.22,1.066 -0.49,1.265 -2.061,1.53 -2.262,0.38 -2.484,1.341 -0.31,1.341 1.689,0 1.8,0.394 1.123,4 -0.232,1.237 -0.531,2.868 -0.665,3.625 -1.515,8.571 -1.411,8.15 -2.105,8.499 -0.213,0.108 -1.008,0.429 -1.766,0.715 -0.758,0.286 -1.602,0.709 -1.875,0.939 -1.114,0.937 -1.934,0.894 16.031,0.847 l 16.528,-0.042 0.12,-0.417 c 0.067,-0.229 0.285,-1.504 0.487,-2.833 0.315,-2.083 0.983,-6.22 1.286,-7.958 0.113,-0.646 -0.233,-0.749 -0.621,-0.186 -3.790265,6.371774 -9.098759,8.634535 -14.134,8.644 -3.966,0 -3.682,0.248 -3.129,-2.731 0.223,-1.202 0.566,-3.086 0.762,-4.186 0.196,-1.1 0.428,-2.375 0.516,-2.833 0.088,-0.458 0.311,-1.696 0.495,-2.75 0.465,-2.655 0.459,-2.635 0.839,-2.839 1.581,-0.846 5.469,1.842 6.884,4.761 0.354,0.73 0.7,1.44 0.768,1.578 0.234,0.472 0.583,0.266 0.705,-0.417 0.138,-0.769 1.106,-5.982 1.812,-9.75 0.266,-1.42 0.604,-3.129 0.751,-3.797 0.422,-1.914 0.299,-1.901 -1.797,0.191 -2.803,2.797 -4.973,4.103 -7.041,4.236 -1.533,0.098 -1.728,-0.082 -1.454,-1.344 0.209,-0.964 1.804,-10.263 2.045,-11.924 0.272,-1.877 -0.179,-1.73 5.121,-1.667 5.238,0.063 5.032,0.013 6.554,1.587 1.395,1.443 2.91,4.356 3.22,6.191 0.225,1.328 0.799,1.01 0.982,-0.544 0.058,-0.496 0.42,-2.652 0.804,-4.791 0.384,-2.138 0.703,-4.15 0.708,-4.471 l 0.011,-0.583 -16.198,-0.043 c -10.493,-0.027 -16.234,0.015 -16.299,0.122 m 202.276004,10.46 c 2.955,1.319 4.238,4.992 2.791,7.992 -1.656,3.434 -7.164,3.898 -9.502,0.801 -3.61,-4.782 1.296,-11.211 6.711,-8.793 m 45.85,0.123 c 4.134,1.992 4.334,8.149 0.328,10.121 -4.011,1.975 -8.37,-0.647 -8.37,-5.033 0,-4.393 4.1,-6.987 8.042,-5.088 m 46.965,0.474 c 8.845,4.213 8.991,32.517 0.19,36.799 -6.049,2.943 -11.196,-5.593 -11.2,-18.573 -0.004,-13.122 4.851,-21.159 11.01,-18.226 m -136.231,13.723 c -0.062,0.062 -0.113,2.124 -0.113,4.582 v 4.469 l 0.375,0.091 c 0.206,0.05 3.487,0.07 7.292,0.045 l 6.916,-0.046 v -4.584 -4.583 l -7.178,-0.043 c -3.949,-0.024 -7.23,0.007 -7.292,0.069 m 43.935,11.059 c 4.227,1.581 5.463,7.684 2.209,10.911 -3.498,3.469 -10.033,1.945 -11.317,-2.64 -1.636,-5.838 3.397,-10.408 9.108,-8.271 m 44.783,-0.242 c 6.842,1.613 6.462,11.78 -0.483,12.927 -4.401,0.727 -7.845,-2 -7.989,-6.324 -0.159,-4.812 3.609,-7.749 8.472,-6.603"
       inkscape:connector-curvature="0"
       style="fill:#f2f2f2;fill-rule:evenodd;stroke:none"
       sodipodi:nodetypes="cscccccsccccccccccccccccccccccccccccccccsccccccccccccccccccccccccccscsccccsscccccsccccssccsccccccccccscccccccccccccccccccccccccccccccccsccccscccccccccccccccccccccscccccccccccccccsccccccccccccccccccccccccccccccccccsccccsscscscscccccccccccccccccccccccccccccccccccccccccccccscccccccscccscccccccccssccccccccccccccccccccccccccsccccccsccccccccccczcccc" />
  </g>
</svg>
