<?xml version="1.0" encoding="UTF-8" standalone="no"?>
<!-- Created with Inkscape (http://www.inkscape.org/) -->

<svg
   width="74.840042mm"
   height="18.690903mm"
   viewBox="0 0 74.840042 18.690903"
   version="1.1"
   id="svg1"
   inkscape:version="1.4 (86a8ad7, 2024-10-11)"
   sodipodi:docname="pc98.svg"
   xmlns:inkscape="http://www.inkscape.org/namespaces/inkscape"
   xmlns:sodipodi="http://sodipodi.sourceforge.net/DTD/sodipodi-0.dtd"
   xmlns="http://www.w3.org/2000/svg"
   xmlns:svg="http://www.w3.org/2000/svg">
  <sodipodi:namedview
     id="namedview1"
     pagecolor="#ffffff"
     bordercolor="#000000"
     borderopacity="0.25"
     inkscape:showpageshadow="2"
     inkscape:pageopacity="0.0"
     inkscape:pagecheckerboard="true"
     inkscape:deskcolor="#d1d1d1"
     inkscape:document-units="mm"
     inkscape:zoom="6.5887484"
     inkscape:cx="144.1852"
     inkscape:cy="63.972696"
     inkscape:window-width="3840"
     inkscape:window-height="2066"
     inkscape:window-x="-11"
     inkscape:window-y="-11"
     inkscape:window-maximized="1"
     inkscape:current-layer="svg1" />
  <defs
     id="defs1" />
  <path
     d="m 55.53022,11.88935 c -0.05027,-0.0175 -0.07197,-0.1778 -0.07197,-0.53182 0,-0.40904 0.01746,-0.51355 0.09102,-0.54186 0.05001,-0.0193 0.652463,-0.0349 1.338792,-0.0349 1.887537,0 1.814777,0.0789 1.875896,-2.02618 0.02884,-0.99801 0.06324,-1.46843 0.109008,-1.49833 0.03678,-0.0241 0.286808,-0.037 0.55589,-0.0288 l 0.489214,0.0146 -0.0016,1.66873 c -0.0013,1.42451 -0.01535,1.69809 -0.09604,1.87007 -0.288131,0.61463 -0.759354,0.97764 -1.417373,1.0922 -0.34925,0.0609 -2.705365,0.0741 -2.872846,0.0164 z m 4.946121,-0.018 c -0.125148,-0.0503 -0.130969,-0.078 -0.115094,-0.55747 l 0.01667,-0.50456 1.007004,-0.0296 c 1.118394,-0.0328 1.300163,-0.086 1.461823,-0.42836 0.08811,-0.18626 0.234156,-2.93449 0.169333,-3.18293 -0.02064,-0.0794 -0.004,-0.13732 0.04524,-0.15505 0.133615,-0.0484 1.138767,-0.0704 1.110456,-0.0243 -0.01482,0.0238 0,0.0601 0.03254,0.0802 0.03254,0.0201 0.03969,0.0672 0.01535,0.10477 -0.02434,0.0373 -0.04419,0.80592 -0.04419,1.70789 0,1.5867 -0.0042,1.64835 -0.12991,1.9005 -0.289719,0.58155 -0.718608,0.9271 -1.329002,1.07077 -0.372533,0.0878 -2.033323,0.10133 -2.240227,0.0182 z m 7.768166,-0.47201 0.0167,-0.53234 0.34528,-0.0333 c 0.18997,-0.0183 0.39714,-0.0616 0.46038,-0.0966 0.15398,-0.0847 2.50322,-2.45084 2.50216,-2.52016 -0.003,-0.18891 -0.0926,-0.20082 -1.61449,-0.21616 l -1.52056,-0.0154 -0.0169,-0.4781 c -0.0101,-0.28787 0.008,-0.50827 0.0466,-0.5543 0.0508,-0.0611 0.37729,-0.0707 1.65682,-0.0479 0.8763,0.0156 1.67481,0.0534 1.77403,0.0841 0.6215,0.19262 0.94853,1.13798 0.61992,1.79282 -0.0513,0.10239 -0.25136,0.3474 -0.44424,0.54451 l -0.35084,0.35851 0.14949,0.15928 c 0.36354,0.38709 1.08215,1.71847 1.08215,2.00501 0,0.0648 -0.11139,0.0818 -0.53711,0.0818 h -0.5371 l -0.14737,-0.34184 c -0.18495,-0.42863 -0.62045,-1.0967 -0.71491,-1.0967 -0.0392,0 -0.31194,0.24712 -0.60642,0.54928 -0.70617,0.72469 -1.02023,0.88926 -1.6973,0.88926 h -0.48207 z M 64.487689,9.8465 c -0.01244,-0.35904 0.01693,-0.88265 0.05159,-0.91784 0.02169,-0.0217 0.965993,-0.0503 2.098678,-0.0635 1.84706,-0.0214 2.06454,-0.0143 2.10899,0.0685 0.0273,0.0508 0.0455,0.2995 0.0408,0.55245 l -0.009,0.46011 -2.14339,0.0151 -2.143394,0.0151 z M 55.659601,9.63721 55.429414,9.60121 55.448464,9.112 c 0.01058,-0.26909 0.03625,-0.50668 0.05741,-0.52838 0.02117,-0.0217 0.556419,-0.046 1.189303,-0.0542 l 1.150937,-0.0151 0.01667,0.53869 c 0.01164,0.37492 -0.0045,0.55166 -0.05292,0.58156 -0.08334,0.0516 -1.823773,0.0537 -2.150269,0.003 z m 4.791604,-0.2413 c -0.09049,-0.0529 -0.09631,-0.15689 -0.06456,-1.19221 0.02249,-0.73872 0.05715,-1.14961 0.09922,-1.17792 0.03545,-0.0238 0.284692,-0.0368 0.553773,-0.0288 l 0.489214,0.0145 0.01164,1.09326 c 0.0063,0.60139 -5.29e-4,1.15146 -0.01561,1.22264 -0.02567,0.1217 -0.0553,0.12938 -0.500857,0.12779 -0.26035,-5.3e-4 -0.518054,-0.0275 -0.572823,-0.0593 z m -4.77176,-1.3036 -0.210608,-0.0222 0.009,-0.51356 c 0.005,-0.28231 0.03493,-0.52255 0.06668,-0.53393 0.03175,-0.0114 0.575468,-0.0183 1.208352,-0.0156 l 1.150673,0.005 -0.0209,0.51779 c -0.01138,0.28496 -0.03228,0.53737 -0.04657,0.56092 -0.02514,0.0431 -1.754188,0.0445 -2.156619,0.002 z M 0.024077,4.34555 C 0.007677,4.31905 0.109807,3.73436 0.250825,3.04618 0.391848,2.358 0.507471,1.74416 0.507471,1.68199 c 0,-0.0624 -0.08996,-0.20585 -0.200025,-0.31936 L 0.107421,1.15679 0.219075,1.00598 c 0.211402,-0.28549 0.79031,-0.86995 0.861483,-0.86995 0.08176,0 0.101336,0.0204 1.180042,1.2274 C 2.702719,1.85793 3.082396,2.2437 3.104092,2.22068 3.125792,2.19768 3.240881,1.72961 3.359944,1.1806 3.501231,0.52867 3.604683,0.17148 3.658129,0.15111 3.818467,0.08941 4.607719,0.54745 4.5593,0.67392 4.5429,0.71682 4.400285,0.81257 4.242594,0.88638 4.084902,0.96018 3.929856,1.05228 3.897842,1.09064 3.865832,1.12924 3.698081,1.82989 3.524779,2.64798 3.149865,4.41857 3.173412,4.33655 3.038475,4.33655 2.920471,4.33655 2.721769,4.13467 1.659731,2.93638 1.271852,2.49823 0.934508,2.16168 0.910167,2.18813 0.865977,2.23633 0.622565,3.29409 0.622565,3.43829 c 0,0.0423 0.103452,0.14552 0.230187,0.22939 C 1.200944,3.89814 1.162579,4.0045 0.655373,4.2159 0.21299,4.39979 0.075142,4.4281 0.024077,4.34555 Z M 9.447212,4.33465 C 9.118335,4.23278 8.711671,3.91184 8.490744,3.57979 8.132762,3.04163 8.086725,2.4524 8.347604,1.75152 8.671189,0.88184 10.091737,0.03543 11.136577,0.08967 l 0.332581,0.0172 0.180711,0.37412 c 0.27252,0.56356 0.279929,0.61119 0.111918,0.72126 -0.07937,0.0521 -0.246062,0.10821 -0.370152,0.12488 -0.22225,0.0299 -0.229129,0.0251 -0.464608,-0.32173 -0.158485,-0.23363 -0.277548,-0.3519 -0.353748,-0.3519 -0.21246,0 -0.668073,0.27914 -0.928952,0.56912 -0.413808,0.46037 -0.47969,0.898 -0.208492,1.38827 0.304271,0.55033 0.897732,0.64055 1.706563,0.25982 0.384175,-0.18071 0.488421,-0.20982 0.527579,-0.14658 0.06985,0.11298 -0.588433,1.40785 -0.779463,1.533 -0.174889,0.11456 -1.154377,0.16721 -1.443302,0.0775 z M 51.72022,4.28255 C 51.65143,4.15396 51.63926,3.60812 51.70434,3.56791 c 0.02408,-0.0148 0.469371,-0.046 0.989277,-0.0693 0.881327,-0.0394 0.954352,-0.0513 1.078177,-0.17516 0.143934,-0.14393 0.188648,-0.55695 0.06826,-0.63129 -0.03545,-0.022 -0.3683,-0.0357 -0.739511,-0.0304 -0.792427,0.0111 -0.82206,-0.006 -0.795866,-0.46408 l 0.01746,-0.30665 0.726281,-0.0352 c 0.399521,-0.0193 0.755386,-0.0532 0.791105,-0.0754 0.08149,-0.0503 0.08519,-0.52096 0.0053,-0.66992 -0.05424,-0.10134 -0.127,-0.11139 -0.804333,-0.11139 -0.864129,0 -0.84455,-0.0124 -1.003565,0.63288 -0.152664,0.62018 -0.162454,0.63315 -0.47625,0.63209 -0.403489,-10e-4 -0.5334,-0.049 -0.5334,-0.19659 0,-0.19896 0.383911,-1.52003 0.487892,-1.67878 0.05159,-0.0786 0.153988,-0.16589 0.227806,-0.19394 0.07382,-0.028 0.674423,-0.0579 1.334823,-0.0661 1.313392,-0.0164 1.427163,0.005 1.655763,0.31353 0.112712,0.15213 0.121443,0.24791 0.137583,1.52294 0.01984,1.55813 -0.01058,1.71556 -0.398462,2.04735 -0.309563,0.26484 -0.548746,0.31432 -1.702859,0.35057 -0.937418,0.0294 -0.992981,0.0251 -1.049602,-0.0804 z M 4.031721,4.29765 C 3.781425,4.26275 3.795977,4.18229 4.072201,4.07169 4.329111,3.96877 4.357157,3.90792 4.506647,3.12792 4.558237,2.85884 4.613274,2.59347 4.629149,2.53817 4.649259,2.46857 4.612479,2.42016 4.510351,2.38127 4.316941,2.30777 4.325672,2.25453 4.548191,2.14976 4.721494,2.06796 4.738162,2.03096 4.861194,1.4592 5.030527,0.67047 5.028939,0.59824 4.837384,0.44505 4.750334,0.37545 4.700594,0.29688 4.727053,0.27016 c 0.02646,-0.0265 0.822589,-0.0572 1.769269,-0.0677 1.509447,-0.0172 1.725612,-0.008 1.755245,0.069 0.01879,0.0487 -0.01349,0.31618 -0.0717,0.59426 C 8.099437,1.24989 8.049957,1.37583 7.973228,1.39065 7.914488,1.40205 7.858398,1.36605 7.838819,1.30495 7.635355,0.66704 7.482161,0.53793 6.929976,0.53925 6.704815,0.53978 6.484417,0.56305 6.439967,0.59115 6.345777,0.65065 6.081192,1.92359 6.147603,1.99662 6.215073,2.07042 6.671742,1.8421 6.862242,1.63916 7.17789,1.30288 7.302773,1.41797 7.185298,1.93708 7.155138,2.06991 7.088728,2.37894 7.037396,2.62421 6.925213,3.16078 6.834461,3.19465 6.57808,2.7946 6.40319,2.52155 6.139401,2.36359 6.034361,2.46916 5.967691,2.53606 5.684846,3.82674 5.722946,3.88865 c 0.0381,0.0617 0.788459,0.0564 0.951971,-0.007 0.187061,-0.0722 0.643731,-0.51753 0.75909,-0.74031 0.09366,-0.18097 0.225425,-0.2413 0.2921,-0.13361 0.01799,0.0291 -0.02275,0.31326 -0.09049,0.63156 -0.08784,0.41195 -0.150018,0.58605 -0.216429,0.60457 -0.133085,0.0368 -3.163094,0.0847 -3.38746,0.0534 z m 8.022166,2.6e-4 c -0.05186,-0.0519 -0.04736,-0.72205 0.0056,-0.8038 0.02328,-0.036 0.135466,-0.10425 0.249502,-0.15161 0.114035,-0.0474 0.262731,-0.16431 0.330729,-0.25982 0.117475,-0.1651 0.12356,-0.23654 0.12356,-1.44886 0,-0.76888 0.02355,-1.31948 0.05953,-1.38641 0.04921,-0.0918 0.121972,-0.11113 0.417247,-0.11034 0.196586,5.3e-4 0.395288,0.0249 0.44159,0.054 0.06985,0.0442 0.0844,0.29342 0.08625,1.48087 l 0.0024,1.42769 -0.162189,0.3302 c -0.184415,0.37518 -0.528373,0.68871 -0.900113,0.81995 -0.256381,0.09 -0.587639,0.11456 -0.65405,0.0482 z m 3.554677,-0.0982 C 15.448491,4.12511 15.223331,3.95418 15.108237,3.8195 14.742054,3.39167 14.703954,3.20514 14.676437,1.70998 c -0.0172,-0.93636 -0.005,-1.36842 0.04154,-1.45521 0.06006,-0.11244 0.105833,-0.12197 0.508794,-0.10689 l 0.442648,0.0167 0.02884,1.3626 c 0.0344,1.62666 0.01693,1.57877 0.690563,1.88939 0.0926,0.0426 0.149225,0.54558 0.08863,0.78714 -0.02884,0.11509 -0.06906,0.13256 -0.305594,0.13203 -0.164306,-5.3e-4 -0.387879,-0.0545 -0.563298,-0.136 z m 13.060098,0.0587 c -0.0164,-0.0426 -0.02196,-0.254 -0.0127,-0.4699 0.01693,-0.38471 0.02064,-0.39344 0.202406,-0.45456 0.390261,-0.13176 0.38735,-0.11906 0.4191,-1.68989 l 0.02884,-1.42213 0.395023,-0.0532 c 0.614627,-0.0825 0.580496,-0.16615 0.598487,1.465 0.01244,1.13506 -0.0016,1.45812 -0.07488,1.71 C 30.10323,3.76204 29.746042,4.12214 29.329853,4.2457 28.95732,4.35682 28.708082,4.36132 28.668659,4.2584 Z m 4.505854,0.0429 c -0.0762,-0.0762 -0.04868,-0.88503 0.03016,-0.8935 0.03969,-0.004 0.602721,-0.0238 1.251479,-0.0431 l 1.179512,-0.0352 V 1.14273 l -1.237191,-0.0288 -1.237192,-0.0288 -0.0172,-0.39714 c -0.0095,-0.21828 0.0034,-0.41778 0.02884,-0.44318 0.0254,-0.0254 0.721254,-0.0503 1.546754,-0.0553 1.642533,-0.0103 1.66026,-0.007 1.871133,0.331 0.103452,0.16589 0.11774,0.32279 0.14949,1.64121 0.03995,1.65311 0.02064,1.7772 -0.309298,2.00183 -0.210079,0.14314 -0.21934,0.14394 -1.712913,0.16166 -0.826029,0.01 -1.52056,-7.9e-4 -1.543579,-0.0238 z m 3.798888,0.001 c -0.02355,-0.0236 -0.04286,-0.22913 -0.04286,-0.45667 V 3.43183 l 0.353748,-0.037 c 0.194469,-0.0204 0.724958,-0.037 1.178719,-0.037 h 0.824971 L 39.475836,3.19008 39.66369,3.02234 39.69253,1.77826 c 0.02355,-1.02129 0.04418,-1.25386 0.115093,-1.29857 0.111125,-0.0701 0.846138,-0.0728 0.889,-0.003 0.01799,0.0291 0.03704,0.63103 0.04233,1.33773 0.0087,1.17952 0,1.30652 -0.107421,1.54676 -0.168804,0.37809 -0.434446,0.65352 -0.780521,0.80883 -0.28284,0.127 -0.384969,0.13705 -1.56845,0.15584 -0.696648,0.0111 -1.28561,7.9e-4 -1.309158,-0.023 z m 4.800864,-0.0537 C 41.451741,4.10864 41.24907,3.93428 41.117043,3.68399 40.996129,3.45459 40.990837,3.37734 40.988985,1.87424 c -0.0016,-1.33403 0.01111,-1.57851 0.0844,-1.62587 0.04736,-0.0307 0.280458,-0.0492 0.51779,-0.041 l 0.431535,0.0148 0.01508,0.2876 C 42.06901,1.10879 41.9518,1.0564 43.263605,1.0564 h 1.15226 l -0.01693,0.41725 -0.01693,0.41725 -1.150938,0.0331 c -0.632883,0.0183 -1.159669,0.0376 -1.170517,0.0431 -0.01085,0.006 -0.01085,0.28098 0,0.61224 0.02752,0.84614 -0.04789,0.80063 1.388005,0.83635 l 1.163372,0.0288 0.0172,0.39767 c 0.01217,0.27913 -0.005,0.41169 -0.05741,0.44503 -0.04101,0.0262 -0.644525,0.0468 -1.340644,0.046 -0.973137,-0.001 -1.310217,-0.0209 -1.456796,-0.0847 z m 3.226065,0.0495 c -0.0799,-0.0323 -0.100542,-0.63315 -0.02593,-0.75063 0.02778,-0.0436 0.236537,-0.0757 0.560123,-0.0863 l 0.515937,-0.0169 0.01746,-0.30031 c 0.02566,-0.44608 -0.0426,-0.53393 -0.415132,-0.53393 -0.365389,0 -0.452173,-0.0775 -0.430741,-0.38549 0.02672,-0.38709 0.06694,-0.42043 0.499798,-0.41593 0.714639,0.008 0.991658,0.0728 1.172633,0.27543 0.153194,0.17172 0.163248,0.21352 0.163248,0.6948 0,0.6858 0.0045,0.69427 0.378089,0.69427 0.245798,0 0.320411,0.0225 0.367771,0.11138 0.08149,0.15214 0.07514,0.59796 -0.0095,0.68263 -0.05001,0.05 -0.435239,0.0677 -1.395412,0.0646 -0.729457,-0.003 -1.358636,-0.0177 -1.398323,-0.0336 z m -24.31071,-0.0524 c -0.07435,-0.0757 -0.04974,-0.81068 0.02937,-0.8763 0.04048,-0.0336 0.443707,-0.0685 0.916252,-0.0789 0.807509,-0.018 0.850371,-0.0251 0.999596,-0.16272 0.243152,-0.22463 0.298186,-0.42174 0.466725,-1.67587 0.08678,-0.64479 0.184679,-1.19142 0.218017,-1.2147 0.03334,-0.0233 0.261144,-0.0426 0.506412,-0.0431 l 0.445823,-7.9e-4 v 0.16193 c 0,0.0892 -0.03969,0.45799 -0.08811,0.81994 a 220.18016,220.18016 0 0 0 -0.173302,1.33271 c -0.04683,0.37094 -0.115623,0.74638 -0.153194,0.83423 -0.125941,0.29527 -0.445293,0.63685 -0.721254,0.77205 -0.25056,0.1225 -0.364596,0.13573 -1.338527,0.15478 -0.585523,0.0114 -1.083998,10e-4 -1.10781,-0.0233 z m 4.272491,-0.4191 V 3.35803 h 0.347134 c 0.191029,0 0.433387,-0.036 0.53922,-0.0802 C 26.18396,3.1376 26.228146,3.0151 26.228146,2.2232 V 1.51677 h -0.751682 c -0.413543,0 -0.801952,-0.0267 -0.863071,-0.0595 -0.0934,-0.05 -0.111389,-0.12303 -0.111389,-0.45349 0,-0.47863 -0.03254,-0.46302 0.980546,-0.46434 l 0.721783,-8e-4 0.05503,-0.18706 0.05503,-0.18706 h 0.910166 l 0.06773,0.20135 0.06773,0.20135 0.800629,0.0288 0.800629,0.0288 v 0.86307 h -0.786341 c -0.432594,0 -0.803011,0.0167 -0.823119,0.0368 -0.02037,0.0204 -0.04789,0.37783 -0.06112,0.79428 -0.02805,0.87524 -0.106098,1.11813 -0.479954,1.49199 -0.327819,0.32782 -0.570442,0.41486 -1.258623,0.45217 l -0.589756,0.0318 z m 6.094677,0.30348 -0.139435,-0.14844 -0.01667,-1.86213 c -0.01667,-1.86135 -0.01667,-1.86241 0.108479,-1.92934 0.117475,-0.063 0.816769,-0.0569 0.881327,0.008 0.01561,0.0156 0.03307,0.58393 0.03916,1.26338 0.0061,0.67945 0.02672,1.36472 0.04604,1.52295 0.03969,0.3257 0.0418,0.32649 0.7112,0.23389 l 0.330729,-0.0458 v 0.43101 c 0,0.29422 -0.02487,0.45191 -0.07858,0.49636 -0.09869,0.0817 -0.799835,0.17489 -1.335617,0.17727 -0.364331,0.002 -0.421745,-0.014 -0.546629,-0.14684 z M 47.252995,2.57804 c -0.04286,-0.17092 -0.0013,-0.69929 0.0598,-0.76068 0.05186,-0.0519 3.208867,-0.0947 3.402277,-0.046 0.132556,0.0333 0.139965,0.0579 0.139965,0.45852 v 0.42333 l -0.179917,0.036 c -0.09895,0.0199 -0.901171,0.036 -1.782762,0.036 h -1.602846 z m -29.701595,0.0463 -0.822325,-0.0177 0.01667,-0.44211 0.01667,-0.44212 0.179123,-0.0365 c 0.09842,-0.0201 0.894821,-0.0241 1.769269,-0.009 l 1.590146,0.0278 v 0.44636 c 0,0.35374 -0.01879,0.45349 -0.09102,0.48127 -0.08652,0.0333 -0.842169,0.031 -2.658533,-0.008 z M 20.567121,2.10655 C 20.508121,1.906 20.350162,0.49233 20.368683,0.3304 c 0.01879,-0.16536 0.02064,-0.16589 0.465667,-0.18256 0.325173,-0.0122 0.454289,0.003 0.474133,0.0574 0.04313,0.11721 0.258763,1.64438 0.258763,1.8325 V 2.20707 H 21.082 c -0.412486,0 -0.489744,-0.0151 -0.514879,-0.10054 z M 44.831529,1.37789 C 44.230924,1.10643 44.436241,0.17033 45.11331,0.09413 c 0.490537,-0.0553 0.8382,0.28125 0.775229,0.75036 -0.06244,0.46514 -0.603779,0.73845 -1.05701,0.5334 z m 0.54557,-0.58552 c 0.0095,-0.0662 -0.02249,-0.1532 -0.07117,-0.19341 -0.175419,-0.14552 -0.405078,0.0841 -0.259557,0.25955 0.102129,0.12303 0.309827,0.0815 0.330729,-0.0661 z m -29.21873,0.5117 C 15.905956,1.1739 15.730537,0.84131 15.784512,0.59499 c 0.167482,-0.7628 1.273969,-0.80434 1.438804,-0.054 0.128853,0.58579 -0.514614,1.04669 -1.064947,0.76306 z m 0.48895,-0.62177 c 0,-0.13097 -0.02619,-0.17251 -0.108744,-0.17251 -0.135996,0 -0.238125,0.15399 -0.188384,0.2839 0.02355,0.0617 0.08599,0.0913 0.167482,0.0796 0.1016,-0.0143 0.129646,-0.0556 0.129646,-0.19103 z m 20.330318,0.41301 c -0.05159,-0.0516 -0.07673,-0.20505 -0.07303,-0.44476 0.0058,-0.36089 0.0085,-0.36671 0.187854,-0.41328 0.100013,-0.0259 0.577056,-0.04 1.060186,-0.0312 l 0.878152,0.0159 v 0.92075 l -0.987161,0.0156 c -0.775229,0.0124 -1.004358,-0.001 -1.066006,-0.063 z m 37.8624,6.23279 a 0.45614166,0.45614166 0 1 1 -0.91228,0 0.45614166,0.45614166 0 0 1 0.91228,0 z m -1.09061,0 a 0.45614166,0.45614166 0 1 1 -0.91228,0 0.45614166,0.45614166 0 0 1 0.91228,0 z M 2.942696,14.42185 v -2.3577 H 3.34645 c 0.477044,0 0.843492,-0.10293 1.099344,-0.3093 0.255852,-0.20611 0.38391,-0.50536 0.38391,-0.89694 0,-0.38126 -0.128058,-0.67363 -0.38391,-0.87736 C 4.189942,9.77682 3.823494,9.67496 3.34645,9.67496 H 2.601119 v 8.87492 L 0,18.55788 V 7.31733 h 3.160183 c 0.69559,0 1.296723,0.0587 1.803665,0.17621 0.506942,0.11747 0.944033,0.31088 1.311804,0.5797 0.367771,0.26908 0.650875,0.63712 0.849577,1.10437 0.198702,0.46752 0.298185,1.03267 0.298185,1.69598 0,0.54319 -0.09948,1.03399 -0.298185,1.47267 a 3.208602,3.208602 0 0 1 -0.827352,1.11628 c -0.352954,0.30559 -0.772583,0.54187 -1.259681,0.70882 a 4.6714833,4.6714833 0 0 1 -1.527969,0.25056 z m 11.438995,-1.02182 v -1.59465 h 5.931165 v 1.59465 z m 11.361473,5.04031 -3.092979,-0.0236 c 0.988748,-1.01309 1.722967,-1.78197 2.202392,-2.3069 a 12.322969,12.322969 0 0 0 1.255977,-1.61766 l -0.0299,-0.0312 c -0.2286,0.0992 -0.504296,0.14896 -0.827352,0.14896 -0.636058,0 -1.1938,-0.15928 -1.673225,-0.47784 -0.47969,-0.31856 -0.849577,-0.75062 -1.110456,-1.29646 -0.26088,-0.54557 -0.391319,-1.14485 -0.391319,-1.79784 0,-0.78343 0.157692,-1.4777 0.473339,-2.0836 0.315384,-0.60563 0.762794,-1.07315 1.341438,-1.40202 0.578908,-0.32888 1.235869,-0.49345 1.97141,-0.49345 0.760148,0 1.442244,0.16854 2.045759,0.50535 0.603779,0.33682 1.072091,0.81465 1.404937,1.43352 0.332846,0.61886 0.499269,1.3409 0.499269,2.16587 0,1.28456 -0.362744,2.50138 -1.088231,3.6502 -0.725488,1.14882 -1.718998,2.3577 -2.981061,3.62664 z m 1.617398,-7.43373 A 1.4869583,1.4869583 0 0 0 27.166887,10.25863 1.5102416,1.5102416 0 0 0 26.645129,9.71412 1.3440833,1.3440833 0 0 0 25.922287,9.51039 c -0.387614,0 -0.715433,0.14631 -0.983721,0.43868 -0.268287,0.29263 -0.402431,0.64505 -0.402431,1.05754 0,0.26643 0.05953,0.51964 0.178858,0.75988 0.119328,0.24024 0.28575,0.42836 0.499269,0.56409 0.213519,0.13573 0.449527,0.20373 0.708025,0.20373 0.402431,0 0.742686,-0.14896 1.021027,-0.44662 0.278077,-0.29765 0.417248,-0.65801 0.417248,-1.08108 z M 42.050493,7.05876 c 0.755121,0 1.391179,0.17753 1.907911,0.5326 0.516731,0.35508 0.917839,0.81863 1.203589,1.39039 0.28575,0.57176 0.486834,1.1893 0.603779,1.85261 0.116682,0.66331 0.175155,1.34488 0.175155,2.04444 0,0.93477 -0.111919,1.84203 -0.335492,2.72203 -0.223573,0.88001 -0.624946,1.61502 -1.20359,2.20504 -0.578908,0.59028 -1.362604,0.88503 -2.351352,0.88503 -0.740304,0 -1.36525,-0.17621 -1.874308,-0.52864 -0.509323,-0.35242 -0.90805,-0.82259 -1.196181,-1.40996 a 6.9101228,6.9101228 0 0 1 -0.603779,-1.85658 11.629496,11.629496 0 0 1 -0.17145,-2.01719 c 0,-0.69453 0.05715,-1.36948 0.17145,-2.02485 A 6.8389499,6.8389499 0 0 1 38.980004,8.99339 C 39.268135,8.40866 39.666862,7.93982 40.176185,7.5874 40.685508,7.23497 41.310189,7.05876 42.050493,7.05876 Z m 0,2.49872 c -0.352954,0 -0.629708,0.1397 -0.831056,0.4191 -0.201348,0.2794 -0.344223,0.66331 -0.428625,1.15147 -0.08467,0.48842 -0.126735,1.07183 -0.126735,1.75075 0,0.67363 0.04101,1.25465 0.123031,1.74281 0.08202,0.48842 0.225954,0.87339 0.432329,1.15543 0.20611,0.28205 0.483129,0.42307 0.831056,0.42307 0.95885,0 1.43854,-1.10701 1.43854,-3.32131 0,-2.21404 -0.47969,-3.32132 -1.43854,-3.32132 z m 8.109215,-2.49872 c 0.755121,0 1.391179,0.17753 1.90791,0.5326 0.516731,0.35508 0.91784,0.81863 1.20359,1.39039 0.28575,0.57176 0.486833,1.1893 0.603779,1.85261 0.116681,0.66331 0.175154,1.34488 0.175154,2.04444 0,0.93477 -0.111919,1.84203 -0.335492,2.72203 -0.223573,0.88001 -0.624946,1.61502 -1.203589,2.20504 -0.578909,0.59028 -1.362604,0.88503 -2.351352,0.88503 -0.740304,0 -1.36525,-0.17621 -1.874309,-0.52864 -0.509323,-0.35242 -0.90805,-0.82259 -1.196181,-1.40996 a 6.9101228,6.9101228 0 0 1 -0.603779,-1.85658 11.629496,11.629496 0 0 1 -0.17145,-2.01719 c 0,-0.69453 0.05715,-1.36948 0.17145,-2.02485 a 6.8389499,6.8389499 0 0 1 0.603779,-1.86029 c 0.288131,-0.58473 0.686858,-1.05357 1.196181,-1.40599 0.509059,-0.35243 1.13374,-0.52864 1.874309,-0.52864 z m 0,2.49872 c -0.352954,0 -0.629709,0.1397 -0.831057,0.4191 -0.201347,0.2794 -0.344222,0.66331 -0.428625,1.15147 -0.08467,0.48842 -0.126735,1.07183 -0.126735,1.75075 0,0.67363 0.04101,1.25465 0.123031,1.74281 0.08202,0.48842 0.225954,0.87339 0.432329,1.15543 0.206111,0.28205 0.48313,0.42307 0.831057,0.42307 0.95885,0 1.438539,-1.10701 1.438539,-3.32131 -2.64e-4,-2.21404 -0.479689,-3.32132 -1.438539,-3.32132 z M 30.46095,10.34859 c 0,-0.5588 0.09181,-1.04564 0.275695,-1.46103 0.183886,-0.41513 0.447146,-0.75988 0.790046,-1.03399 a 3.3702625,3.3702625 0 0 1 1.170252,-0.60325 c 0.437092,-0.1278 0.904346,-0.19183 1.401234,-0.19183 0.963877,0 1.768739,0.28866 2.414852,0.86546 0.645848,0.57705 0.968904,1.38006 0.968904,2.40876 0,0.44397 -0.104246,0.87207 -0.313002,1.28455 -0.203729,0.4027 -0.471223,0.7157 -0.802481,0.93928 a 0.0206375,0.0206375 0 0 0 -2.65e-4,0.0339 c 0.499269,0.36063 0.867569,0.74904 1.104635,1.16523 0.241036,0.42307 0.361421,0.95065 0.361421,1.58221 0,0.52757 -0.109273,1.00277 -0.327819,1.42557 a 3.1773812,3.1773812 0 0 1 -0.883179,1.06521 3.9208604,3.9208604 0 0 1 -1.240896,0.64612 4.6235937,4.6235937 0 0 1 -1.393825,0.21537 c -0.650875,0 -1.26947,-0.13203 -1.855787,-0.39556 -0.586317,-0.26352 -1.057275,-0.6514 -1.412346,-1.1631 -0.355335,-0.51171 -0.532871,-1.10967 -0.532871,-1.79388 0,-0.53261 0.136525,-1.03664 0.40984,-1.51183 0.268287,-0.46646 0.613304,-0.84508 1.034785,-1.13533 a 0.02116667,0.02116667 0 0 0 7.94e-4,-0.0336 C 30.850945,12.05466 30.46095,11.28499 30.46095,10.34863 Z m 3.591983,-1.02606 c -0.625475,0 -1.132417,0.53287 -1.132417,1.19036 0,0.65749 0.506942,1.19036 1.132417,1.19036 0.625475,0 1.132417,-0.53287 1.132417,-1.19036 0,-0.65749 -0.506942,-1.19036 -1.132417,-1.19036 z m 0,4.4204 c -0.705379,0 -1.277144,0.60087 -1.277144,1.34223 0,0.74136 0.571765,1.34223 1.277144,1.34223 0.705379,0 1.277144,-0.60087 1.277144,-1.34223 0,-0.74136 -0.571765,-1.34223 -1.277144,-1.34223 z M 13.919729,9.77206 A 2.2997583,2.2997583 0 0 0 13.013002,9.5887 c -0.501915,0 -0.968904,0.15399 -1.401233,0.46223 -0.427302,0.30824 -0.767557,0.71543 -1.021027,1.22211 -0.248444,0.51197 -0.372534,1.04458 -0.372534,1.59809 0,0.5588 0.126736,1.0914 0.380206,1.59808 0.253471,0.51197 0.593725,0.91916 1.021028,1.22211 0.422275,0.30824 0.886883,0.46223 1.393825,0.46223 a 2.2801791,2.2801791 0 0 0 0.906727,-0.18442 v 2.62229 a 4.8170041,4.8170041 0 0 1 -0.906727,0.0844 c -0.939007,0 -1.808692,-0.2585 -2.608528,-0.77549 -0.8001,-0.517 -1.435893,-1.2192 -1.90791,-2.10715 -0.46699,-0.89297 -0.700617,-1.8669 -0.700617,-2.92179 0,-1.06019 0.233363,-2.03676 0.700617,-2.92973 0.472017,-0.88768 1.108075,-1.59279 1.90791,-2.11508 0.799836,-0.517 1.669521,-0.77549 2.608528,-0.77549 0.309827,0 0.611981,0.028 0.906727,0.0844 v 2.63657 z"
     id="path1"
     style="stroke-width:0.264583" />
</svg>
