<svg xmlns="http://www.w3.org/2000/svg" width="407" height="136" xml:space="preserve">
    <g transform="matrix(.93193 0 0 .88062 15.33 9.878)">
        <circle cx="58.075" cy="13.716" r="4.039" style="fill:#ccc"/>
        <path d="M58.075 107.3 30.25 91.462l7.535-4.062c.019.044.031.08.051.125 5.45 7.98 16.47 8.57 25.22 7.76 5.19-1.655-1.06 2.033-.73 3.49.94 2.7 4.047 1.088 5.482.668 3.77-2.16 7.5-4.563 9.838-8.747 1.287-3.878.724-1.814 3.75-5.09 2.77-2.86 3-7.33 6.24-9.84 3.47-3.12 5.02-7.55 6.87-11.67 6.24-5.78 11.96-13.38 11.74-22.31.34-6.76-3.84-12.78-8.83-16.93-8.22-6.71-18.67-10.14-29.04-11.73-2.41-.89-4.8 1.96-3.14 4.12 4.75 1.95 10.08 1.89 14.83 3.92 7.63 2.8 15.48 7.04 19.62 14.34 3.53 7.16-.16 15.82-5.54 21l-.18.18c-2.04-3.3-4.2-6.63-7.38-8.95-8.156-6.182-18.558-8.406-28.57-9.014V19.505l-50.09 27v56.99l.07-.038v1.038L58.075 133l50.08-28.505v-25.7zm-.059-43.565h.06c5.65.33 11.49 1.21 16.37 4.26.644.494 1.383.802-.533 1.385-1.422.513-6.265 1.407-9.925 1.917 0 0-3.304.208-4.452.158a85.486 85.486 0 0 1-1.52-.087zm-3.548 14.673c3.073-.293 6.175-.152 9.058.538 1.72.49 3.84.49 4.94 2.11-5.6.95-11.345 1.071-16.97.7-.789-.161-1.673-.244-2.56-.366zm3.088 11.837c-5.02-.24-10.81-.67-14.48-4.57 10.02 2.51 20.59 2.43 30.52-.5-4.33 3.85-10.43 4.94-16.04 5.07zm17.91-11.82c-1.345-1.67-3.157-2.545-5.06-3.07 3-.8 6.01-1.61 8.99-2.49 1.68 3.1-1.275 4.82-3.93 5.56zm9.53-25.2c2.38 2.03 3.62 4.94 4.41 7.89-1.8 1.3-3.65 2.53-5.52 3.72-1.27.35-2.77 1.98-3.99.58-6.223-4.809-14.171-6.574-21.88-7.073V44.185c9.55.15 19.76 2.41 26.98 9.04z" style="fill:#ccc"/>
    </g>
    <path d="M389.51 123.478c-87.918 0-175.837.008-263.755-.01.01-3.522.01-7.044 0-10.558 87.918.009 175.837-.009 263.755 0z"/>
    <path d="M69.24 11.49c-1.66-2.16.73-5.01 3.14-4.12 10.37 1.59 20.82 5.02 29.04 11.73 4.99 4.15 9.17 10.17 8.83 16.93.22 8.93-5.5 16.53-11.74 22.31-1.85 4.12-3.4 8.55-6.87 11.67-3.24 2.51-3.47 6.98-6.24 9.84-3.026 3.276-2.463 1.213-3.75 5.09-2.338 4.185-6.068 6.587-9.838 8.747-1.435.42-4.543 2.033-5.482-.668-.33-1.457 5.92-5.145.73-3.49-8.75.81-19.77.22-25.22-7.76-1.048-2.416-.903-3.166-.91-4.56-3.95-2.85-6.74-7.22-6.4-12.26-4.38-3.04-8.54-7.37-8.73-13.02-.75-5.54 3.55-10.02 7.92-12.68 8.43-5.05 18.55-6.31 28.21-6.29 10.04.6 20.48 2.82 28.66 9.02 3.18 2.32 5.34 5.65 7.38 8.95l.18-.18c5.38-5.18 9.07-13.84 5.54-21-4.14-7.3-11.99-11.54-19.62-14.34-4.75-2.029-10.08-1.969-14.83-3.919ZM33.48 46.04c-4.98 3.99-1.3 12.13 3.84 13.72 6.86-5.61 15.97-7.23 24.6-7.18 7.74.49 15.73 2.25 21.98 7.08 1.22 1.4 2.72-.23 3.99-.58 1.87-1.19 3.72-2.42 5.52-3.72-.79-2.95-2.03-5.86-4.41-7.89-7.22-6.63-17.43-8.89-26.98-9.04-9.87-.22-20.69 1.09-28.54 7.61Zm34.512 19.502c3.66-.51 8.503-1.403 9.925-1.917 1.917-.583 1.177-.891.533-1.385-4.88-3.05-10.72-3.93-16.37-4.26-6.18-.02-12.67.63-18.14 3.72-.56.342-2.357.675.01 1.35 5.316 1.856 18.443 2.6 19.59 2.65 1.148.05 4.452-.158 4.452-.158zM39.75 67.53c.5 1.298 1.516 3.22 3.547 4.4.859-.571 2.173-1.225 3.273-1.805.714-.289 1.477-.797 2.21-1.054-.358-.025-.895-.088-1.952-.134-2.535-.309-4.688-.827-7.078-1.407Zm34.66 2.07c1.902.525 3.715 1.4 5.06 3.07 2.655-.74 5.61-2.46 3.93-5.56-2.98.88-5.99 1.69-8.99 2.49zm-24.722 5.088c1.687.999 4.002.942 5.812 1.312 5.625.371 11.37.25 16.97-.7-1.1-1.62-3.22-1.62-4.94-2.11-5.73-1.37-12.322-.583-17.842 1.498ZM47.08 79.92c3.67 3.9 9.46 4.33 14.48 4.57 5.61-.13 11.71-1.22 16.04-5.07-9.93 2.93-20.5 3.01-30.52.5z" style="fill:#01015b" transform="matrix(.93193 0 0 .88062 15.33 9.878)"/>
    <path d="M144.46 71.696c4.716 0 9.409-.273 13.838-1.866 11.845-3.857 19.692-15.684 19.3-27.36-.344-5.725-2.395-11.387-6.057-15.975-5.452-7.283-14.948-11.413-24.314-11.193l-21.071-.008V32.12l-.056.231.056-.004v61.472h8.574V71.696m-.084-49.146c4.827-.009 9.655-.106 14.473.105 7.176.45 14.146 4.236 17.66 10.242 4.398 7.107 3.895 16.723-1.529 23.213-3.783 4.817-9.943 7.9-16.308 7.996-4.735.062-9.373.03-14.212.03z" style="stroke-width:.90591109"/>
    <ellipse cx="73.185" cy="17.769" rx="3.764" ry="3.557" style="fill:#01015b;stroke-width:.90591109"/>
    <path transform="matrix(.93193 0 0 .88062 15.33 9.878)" style="fill:#01015b" d="M62.08 127.245 12 98.74v-25.7l50.08 28.505z"/>
    <path transform="matrix(.93193 0 0 .88062 15.33 9.878)" style="fill:#f00020" d="m62.08 127.245 50.08-28.505v-25.7l-50.08 28.505z"/>
    <path d="M270.784 60.458V45.199H258.17a31.692 31.692 0 0 1 1.326 9.057c0 2.121-.219 4.191-.618 6.203h11.906z"/>
    <path d="M255.794 69.14C250 80.126 238.002 87.674 224.132 87.674c-19.532 0-35.365-14.961-35.365-33.417 0-18.456 15.833-33.418 35.365-33.418 12.632 0 23.71 6.263 29.965 15.678h8.892c-6.983-13.636-21.752-23.046-38.858-23.046-23.838 0-43.163 18.26-43.163 40.786 0 22.525 19.325 40.785 43.163 40.785 18.277 0 33.886-10.739 40.18-25.9z"/>
    <path transform="matrix(.93193 0 0 .88062 15.33 9.878)" style="fill:#fec101" d="m11.93 97.74 50.09-27V13.75l-50.09 27z"/>
    <path d="M69.24 11.49c-1.66-2.16.73-5.01 3.14-4.12 10.37 1.59 20.82 5.02 29.04 11.73 4.99 4.15 9.17 10.17 8.83 16.93.22 8.93-5.5 16.53-11.74 22.31-1.85 4.12-3.4 8.55-6.87 11.67-3.24 2.51-3.47 6.98-6.24 9.84-3.026 3.276-2.463 1.213-3.75 5.09-2.338 4.185-6.068 6.587-9.838 8.747-1.435.42-4.543 2.033-5.482-.668-.33-1.457 5.92-5.145.73-3.49-8.75.81-19.77.22-25.22-7.76-1.048-2.416-.903-3.166-.91-4.56-3.95-2.85-6.74-7.22-6.4-12.26-4.38-3.04-8.54-7.37-8.73-13.02-.75-5.54 3.55-10.02 7.92-12.68 8.43-5.05 18.55-6.31 28.21-6.29 10.04.6 20.48 2.82 28.66 9.02 3.18 2.32 5.34 5.65 7.38 8.95l.18-.18c5.38-5.18 9.07-13.84 5.54-21-4.14-7.3-11.99-11.54-19.62-14.34-4.75-2.029-10.08-1.969-14.83-3.919ZM33.48 46.04c-4.98 3.99-1.3 12.13 3.84 13.72 6.86-5.61 15.97-7.23 24.6-7.18 7.74.49 15.73 2.25 21.98 7.08 1.22 1.4 2.72-.23 3.99-.58 1.87-1.19 3.72-2.42 5.52-3.72-.79-2.95-2.03-5.86-4.41-7.89-7.22-6.63-17.43-8.89-26.98-9.04-9.87-.22-20.69 1.09-28.54 7.61Zm34.512 19.502c3.66-.51 8.503-1.403 9.925-1.917 1.917-.583 1.177-.891.533-1.385-4.88-3.05-10.72-3.93-16.37-4.26-6.18-.02-12.67.63-18.14 3.72-.56.342-2.357.675.01 1.35 5.316 1.856 18.443 2.6 19.59 2.65 1.148.05 4.452-.158 4.452-.158zM39.75 67.53c.5 1.298 1.516 3.22 3.547 4.4.859-.571 2.173-1.225 3.273-1.805.714-.289 1.477-.797 2.21-1.054-.358-.025-.895-.088-1.952-.134-2.535-.309-4.688-.827-7.078-1.407Zm34.66 2.07c1.902.525 3.715 1.4 5.06 3.07 2.655-.74 5.61-2.46 3.93-5.56-2.98.88-5.99 1.69-8.99 2.49zm-24.722 5.088c1.687.999 4.002.942 5.812 1.312 5.625.371 11.37.25 16.97-.7-1.1-1.62-3.22-1.62-4.94-2.11-5.73-1.37-12.322-.583-17.842 1.498ZM47.08 79.92c3.67 3.9 9.46 4.33 14.48 4.57 5.61-.13 11.71-1.22 16.04-5.07-9.93 2.93-20.5 3.01-30.52.5z" style="fill:#01015b" transform="matrix(.93193 0 0 .88062 15.33 9.878)"/>
    <ellipse cx="73.185" cy="17.769" rx="3.764" ry="3.557" style="fill:#01015b;stroke-width:.90591109"/>
    <path transform="matrix(.93193 0 0 .88062 15.33 9.878)" style="fill:#01015b" d="M62.08 127.245 12 98.74v-25.7l50.08 28.505z"/>
    <path transform="matrix(.93193 0 0 .88062 15.33 9.878)" style="fill:#f00020" d="m62.08 127.245 50.08-28.505v-25.7l-50.08 28.505z"/>
    <path d="M319.112 30.863V15.294H277.539v78.55h15.787V60.459h24.599V45.199h-24.6V30.863z"/>
    <path d="M385.307 93.845 360.611 53.03l22.832-37.736h-19.002L351.11 37.327l-13.331-22.033h-19.002l22.832 37.736-24.696 40.815h19.002l15.195-25.113 15.195 25.113zM134.871 109.388v-8.117l-3.629 8.117h-.835l-3.615-8.117v8.117h-.967v-9.117h1.501l3.512 7.76 3.498-7.76h1.502v9.117ZM141.013 109.548c-1.945 0-3.277-1.11-3.277-3.59v-5.687h.967v5.687c0 1.863.81 2.752 2.323 2.752 1.488 0 2.31-.888 2.31-2.752v-5.687h.966v5.687c0 2.48-1.331 3.59-3.29 3.59zM146.204 109.388v-9.117h.966v8.29h3.994v.827ZM153.838 101.098v8.29h-.966v-8.29h-2.206v-.826h5.378v.826zM157.046 109.388v-9.117h.966v9.117ZM168.963 109.388v-8.117l-3.63 8.117h-.835l-3.616-8.117v8.117h-.966v-9.117h1.501l3.512 7.76 3.498-7.76h1.502v9.117ZM171.828 109.388v-9.117h5.274v.826h-4.309v3.27h4.164v.825h-4.164v3.368h4.309v.828ZM181.341 109.388h-2.598v-9.117h2.272c1.75 0 2.768.198 3.681.716 1.436.802 2.193 2.159 2.193 3.873 0 2.628-1.775 4.528-5.548 4.528zm2.82-7.698c-.731-.419-1.645-.592-3.107-.592h-1.345v7.464h1.345c1.71 0 2.702-.235 3.472-.814.889-.679 1.384-1.727 1.384-2.924 0-1.358-.64-2.504-1.749-3.134zM188.372 109.388v-9.117h.966v9.117ZM198.709 109.388l-1.397-3.072h-4.491l-1.41 3.072h-1.017l4.138-9.117h1.083l4.151 9.117Zm-3.63-8.08-1.892 4.182h3.746zM204.354 109.388v-9.117h5.274v.826h-4.308v3.27h4.164v.825h-4.164v3.368h4.308v.828ZM217.979 109.388l-5.744-8.018v8.018h-.967v-9.117h1.306l5.404 7.561v-7.56h.966v9.116ZM223.117 101.098v8.29h-.967v-8.29h-2.206v-.826h5.379v.826zM226.324 109.388v-9.117h5.274v.826h-4.308v3.27h4.164v.825h-4.164v3.368h4.308v.828ZM236.934 105.983l2.702 3.405h-1.201l-3.25-4.132c2.7 0 3.615-.444 3.615-2.085 0-1.517-.991-2.073-3.237-2.073h-1.358v8.29h-.967v-9.117h2.389c3.029 0 4.152 1.037 4.152 2.936 0 1.616-.992 2.591-2.845 2.776zM243.353 101.098v8.29h-.967v-8.29h-2.206v-.826h5.379v.826zM253.376 109.388l-1.397-3.072h-4.491l-1.41 3.072h-1.018l4.138-9.117h1.084l4.15 9.117Zm-3.63-8.08-1.893 4.182h3.746zM255.485 109.388v-9.117h.966v9.117ZM265.065 109.388l-5.745-8.018v8.018h-.966v-9.117h1.306l5.404 7.561v-7.56h.966v9.116ZM276.978 109.388v-8.117l-3.63 8.117h-.834l-3.616-8.117v8.117h-.967v-9.117h1.502l3.511 7.76 3.499-7.76h1.501v9.117ZM279.843 109.388v-9.117h5.274v.826h-4.308v3.27h4.164v.825h-4.164v3.368h4.308v.828ZM293.468 109.388l-5.744-8.018v8.018h-.967v-9.117h1.306l5.404 7.561v-7.56h.966v9.116ZM298.606 101.098v8.29h-.967v-8.29h-2.205v-.826h5.378v.826zM308.17 105.7h-1.854v3.688h-.967v-9.117h2.663c2.65 0 3.72.851 3.72 2.764.001 1.727-.94 2.665-3.563 2.665zm-.484-4.602h-1.371v3.775h1.788c1.919 0 2.65-.518 2.65-1.838 0-1.85-1.226-1.937-3.067-1.937zM312.995 109.388v-9.117h.966v8.29h3.995v.827ZM326.868 109.388l-1.397-3.072h-4.491l-1.41 3.072h-1.017l4.138-9.117h1.083l4.151 9.117Zm-3.63-8.08-1.892 4.182h3.746zM331.34 106.34v3.048h-.966v-3.047l-3.342-6.07h1.071l2.741 5.107 2.807-5.107h1.058zM335.644 109.388v-9.117h5.274v.826h-4.308v3.27h4.164v.825h-4.164v3.368h4.308v.828ZM346.254 105.983l2.701 3.405h-1.201l-3.25-4.132c2.701 0 3.615-.444 3.615-2.085 0-1.517-.991-2.073-3.237-2.073h-1.358v8.29h-.966v-9.117h2.388c3.029 0 4.152 1.037 4.152 2.936.002 1.616-.99 2.591-2.844 2.776zM356.755 105.7h-1.853v3.688h-.967v-9.117h2.664c2.65 0 3.72.851 3.72 2.764 0 1.727-.94 2.665-3.564 2.665zm-.482-4.602h-1.371v3.775h1.788c1.92 0 2.65-.518 2.65-1.838 0-1.85-1.227-1.937-3.067-1.937zM366.229 109.548c-2.886 0-5.066-2.023-5.066-4.688 0-2.726 2.128-4.749 5-4.749 1.997 0 3.694.963 4.438 2.53h-1.084c-.822-1.222-1.958-1.69-3.315-1.69-2.298 0-4.06 1.677-4.06 3.872 0 2.134 1.84 3.886 4.073 3.886 1.41 0 2.336-.506 3.354-1.715h1.07c-.963 1.69-2.452 2.554-4.41 2.554zM376.612 101.098v3.294h3.787v.826h-3.787v4.17h-.966v-9.117h4.895v.826h-3.929zM387.613 109.388l-2.728-3.898-2.742 3.898h-1.135l3.277-4.663-3.094-4.454h1.136l2.559 3.652 2.545-3.652h1.123l-3.094 4.454 3.29 4.663zM372.823 105.651c-.392 0-.704-.296-.704-.666 0-.369.312-.664.704-.664.38 0 .704.295.704.664 0 .37-.324.666-.704.666z"/>
</svg>
