<?xml version="1.0" encoding="UTF-8" standalone="no"?>
<svg
   width="2500"
   height="2500"
   viewBox="0 0 192.756 192.756"
   version="1.1"
   id="svg4"
   sodipodi:docname="pcv-wr.svg"
   inkscape:version="1.3.2 (091e20e, 2023-11-25, custom)"
   xmlns:inkscape="http://www.inkscape.org/namespaces/inkscape"
   xmlns:sodipodi="http://sodipodi.sourceforge.net/DTD/sodipodi-0.dtd"
   xmlns="http://www.w3.org/2000/svg"
   xmlns:svg="http://www.w3.org/2000/svg">
  <defs
     id="defs4" />
  <sodipodi:namedview
     id="namedview4"
     pagecolor="#505050"
     bordercolor="#eeeeee"
     borderopacity="1"
     inkscape:showpageshadow="0"
     inkscape:pageopacity="0"
     inkscape:pagecheckerboard="0"
     inkscape:deskcolor="#505050"
     showgrid="false"
     inkscape:zoom="0.32"
     inkscape:cx="1250"
     inkscape:cy="1250"
     inkscape:window-width="1920"
     inkscape:window-height="1009"
     inkscape:window-x="-8"
     inkscape:window-y="-8"
     inkscape:window-maximized="1"
     inkscape:current-layer="svg4" />
  <g
     fill-rule="evenodd"
     clip-rule="evenodd"
     id="g4"
     style="fill:#ffffff">
    <path
       fill="#fff"
       fill-opacity="0"
       d="M0 0h192.756v192.756H0V0z"
       id="path1"
       style="fill:#ffffff" />
    <path
       d="M14.087 65.149h34.098c2.172.283 7.768.283 12.082 4.892.173.187 21.1 32.462 21.1 32.462.027-.407 20.739-31.678 20.739-31.678.941-1.528 4.029-4.623 9.445-5.133h45.975c1.367 0 5.461.51 8.406 1.974 13.252 6.584 12.734 20.923 12.734 20.923s.457 16.771-17.451 21.406l11.275 16.308h-10.738l-14.791-20.81c-2.016-2.311-2.928-2.564-2.928-2.564h12.059c3.852.254 14.012-3.599 13.709-14.431.033-9.198-6.59-14.592-13.688-14.652 0 0-39.996-.036-41.346 0-2.455.067-5.469 1.848-7.336 4.683l-22.83 34.669c-.422.641-1.869 1.953-3.399 1.962-1.547.01-3.032-1.309-3.449-1.962L54.699 76.989c-2.819-3.076-5.103-3.076-5.978-3.143H19.457c0-.027-5.37-8.697-5.37-8.697z"
       id="path2"
       style="fill:#ffffff" />
    <path
       d="M46.305 76.913c2.542.001 4.962.733 6.068 2.386 1.029 1.541 21.854 34.5 21.854 34.5 1.793 2.832 3.758 4.997 7.107 4.835 3.035-.147 4.645-2.024 6.316-4.563.406-.291 22.216-33.73 22.216-33.73.609-1.042 2.971-3.233 5.438-3.233h40.004c6.871-.119 11.082 5.231 11.008 11.416-.072 6.09-4.852 10.807-10.941 11.144h-40.34l5.371-8.154h33.561c1.141.112 3.199-.892 3.199-2.969 0-2.134-1.182-3.082-3.082-3.011h-37.438l-23.673 36.138c-2.102 3.21-6.58 5.937-11.683 5.937-5.059 0-8.863-1.314-12.132-5.892L46.036 85.533H26.758l-5.275-8.622 24.822.002z"
       id="path3"
       style="fill:#ffffff" />
    <path
       d="M135.441 102.929c2.668 0 4.447.254 6.604 1.793 2.146 1.532 15.658 21.571 15.658 21.571h-9.938l-9.131-13.096s-.762-1.542-3.193-1.844h-28.039l5.486-8.425h22.553v.001z"
       id="path4"
       style="fill:#ffffff" />
  </g>
</svg>
