<?xml version="1.0" encoding="UTF-8"?>
<svg id="svg8" width="2499.4pt" height="750pt" version="1.1" viewBox="0 0 2499.4 750" xmlns="http://www.w3.org/2000/svg" xmlns:cc="http://creativecommons.org/ns#" xmlns:dc="http://purl.org/dc/elements/1.1/" xmlns:rdf="http://www.w3.org/1999/02/22-rdf-syntax-ns#">
 <metadata id="metadata5">
  <rdf:RDF>
   <cc:Work rdf:about="">
    <dc:format>image/svg+xml</dc:format>
    <dc:type rdf:resource="http://purl.org/dc/dcmitype/StillImage"/>
    <dc:title/>
   </cc:Work>
  </rdf:RDF>
 </metadata>
 <g id="layer1" transform="translate(114.64 528.41)">
  <g id="g1752">
   <path id="path254" d="m-114.64-528.41h337.03v750h-337.03z" fill="#a80c30"/>
   <path id="path256" d="m610.61-528.41h337.03v750h-337.03z" fill="#a80c30"/>
   <path id="path258" d="m2072.1-528.41h312.7v750h-312.7z" fill="#a80c30"/>
   <path id="path260" d="m1697.3-528.41h337.03v750h-337.03z" fill="#a80c30"/>
   <path id="path262" d="m260.15-528.41h312.7v750h-312.7z" fill="#a80c30"/>
   <path id="path264" d="m985.55-528.41h312.7v750h-312.7z" fill="#a80c30"/>
   <path id="path266" d="m1335.3-528.41h323.94v750h-323.94z" fill="#a80c30"/>
   <path id="path268" d="m-1.5547-106.57c-0.060601-55.48 22.877-80.236 47.36-80.236 24.513 0 47.481 25.422 47.39 80.236-0.0909 60.783-22.877 78.691-47.39 78.691-23.907 0-47.33-25.846-47.36-78.691l-65.267-7.8176c-0.2424 103.08 54.238 143.17 106.93 142.96 21.665-0.0909 42.845-7.8478 53.481-22.392 0.45451-0.57571 1.8483-3.8482 1.8483-3.9088 0 0-1.0605 3.9694-1.0605 7.1812-0.0606 0.36361-0.0303 1.515 0.03 14.938l65.843-0.1212 0.0297-378-65.267 0.0606-0.0303 134.63c0.0909 0.75751 1.5453 5.1511 1.515 5.1511 0 0-1.6968-3.8482-2.3937-4.636-13.272-15.211-32.543-23.331-56.48-23.331-49.057 0-104.23 43.724-104.45 127.47l65.267 7.8176" fill="#fff"/>
   <path id="path270" d="m2196.2-353.76h65.934v378.06h-65.934z" fill="#fff"/>
   <path id="path272" d="m383.41-238.86h65.934v263.25h-65.934z" fill="#fff"/>
   <path id="path274" d="m416.38-294.49c20.726 0 37.542-16.817 37.542-37.542 0-20.756-16.817-37.542-37.542-37.542-20.726 0-37.542 16.787-37.542 37.542 0 20.726 16.817 37.542 37.542 37.542" fill="#fff"/>
   <path id="path276" d="m728.42-106.54c0.0295 53.45 22.877 78.721 47.36 78.721 24.513 0 47.299-17.908 47.39-78.721 0.0909-54.783-22.877-80.206-47.39-80.206-24.483 0-47.42 24.756-47.36 80.206l-65.267-7.8176c0.21211-83.721 55.389-127.44 104.45-127.44 23.937 0 43.209 8.1206 56.48 23.331 0.69691 0.78782 2.3937 4.636 2.3937 4.636 0.0295 0-1.4241-4.4239-1.515-5.1511v-19.907l61.51-0.0297-0.0295 275.04c-2.9392 70.479-40.997 109.48-110.72 108.57-52.844-0.66661-91.841-24.422-105.2-62.389l62.662-18.998c3.3331 18.423 20.786 29.361 42.542 29.058 24.695-0.33331 48.572-14.332 48.572-47.693 0-25.119 0-37.573 0.0606-38.088 0.1212-0.81812 1.0605-4.2421 1.0605-4.2421 0 0.060601-1.3938 3.3028-1.8483 3.9088-10.636 14.544-31.816 22.301-53.481 22.362-52.693 0.2121-107.17-39.845-106.93-142.96l65.267 7.8178" fill="#fff"/>
   <path id="path278" d="m1108.8-238.86h65.934v263.25h-65.934z" fill="#fff"/>
   <path id="path280" d="m1141.7-294.49c20.756 0 37.542-16.817 37.542-37.542 0-20.756-16.786-37.542-37.542-37.542-20.726 0-37.542 16.787-37.542 37.542 0 20.726 16.817 37.542 37.542 37.542" fill="#fff"/>
   <path id="path282" d="m1522.5 28.997c-47.087-0.57571-63.904-29.816-62.51-74.176v-151.93h-33.088v-44.754h33.088v-97.841l63.116-19.241v117.08h46.511v44.754h-46.511v145.93c-0.2727 20.332 6.1208 26.149 19.423 26.755 12.211 0.51511 23.968-4.8784 29.361-8.6963v50.36c-10.939 6.7267-31.058 11.999-49.39 11.757" fill="#fff"/>
   <path id="path284" d="m1816.7-56.36c0.1515-18.483 12.09-31.816 28.089-36.088 39.057-10.393 64.207-17.211 66.116-22.756v30.149c-0.303 36.391-20.756 63.207-55.117 63.783-28.119 0.45451-39.239-18.938-39.088-35.088l-58.995 0.69691c0.6666 41.057 23.786 86.357 81.66 87.084 24.604 0.30301 56.723-11.454 70.479-29.998l1.3636 0.029392v22.847h60.995v-1.4847c-6.5752-6.3934-5.2117-38.482-5.2723-44.087v-158.53c-0.061-58.753-58.844-72.782-94.841-72.57-40.178 0.27271-87.538 18.514-101.57 65.358l54.874 16.635c2.6664-17.12 17.12-33.119 45.784-33.179 27.877-0.0909 38.421 10.999 38.3 24.513-0.1212 13.696-8.3932 22.513-21.332 26.846-15.968 5.3632-29.301 8.8478-58.632 16.302-55.056 14.029-72.237 52.784-71.812 80.236l58.995-0.69691" fill="#fff"/>
  </g>
 </g>
</svg>
