<?xml version="1.0" encoding="UTF-8" standalone="no"?>
<!-- Created with Inkscape (http://www.inkscape.org/) -->

<svg
   version="1.1"
   id="svg824"
   width="695.17249"
   height="97.876945"
   viewBox="0 0 695.17249 97.876946"
   sodipodi:docname="pdp1-w.svg"
   inkscape:version="1.2 (dc2aedaf03, 2022-05-15)"
   xmlns:inkscape="http://www.inkscape.org/namespaces/inkscape"
   xmlns:sodipodi="http://sodipodi.sourceforge.net/DTD/sodipodi-0.dtd"
   xmlns="http://www.w3.org/2000/svg"
   xmlns:svg="http://www.w3.org/2000/svg">
  <defs
     id="defs828" />
  <sodipodi:namedview
     id="namedview826"
     pagecolor="#ffffff"
     bordercolor="#666666"
     borderopacity="1.0"
     inkscape:pageshadow="2"
     inkscape:pageopacity="0.0"
     inkscape:pagecheckerboard="0"
     showgrid="false"
     inkscape:zoom="0.6200467"
     inkscape:cx="124.99059"
     inkscape:cy="93.541341"
     inkscape:window-width="1920"
     inkscape:window-height="1017"
     inkscape:window-x="-8"
     inkscape:window-y="-8"
     inkscape:window-maximized="1"
     inkscape:current-layer="g830"
     inkscape:showpageshadow="0"
     inkscape:deskcolor="#d1d1d1" />
  <g
     inkscape:groupmode="layer"
     inkscape:label="Image"
     id="g830"
     transform="translate(208.1601,-229.84887)"
     style="display:inline">
    <path
       style="fill:#ffffff;stroke:none;stroke-width:0.764516"
       d="m -188.57271,230.73572 c -4.40313,0.0593 -12.53545,-1.27355 -16.48377,0.68694 -3.37051,1.67357 -3.18801,12.46001 -2.19275,15.56722 0.98447,3.07346 4.73382,2.41914 7.2728,2.42028 4.95248,0.002 22.27032,-2.71166 23.99828,3.12029 3.48847,11.77415 0.32964,29.1559 0.32964,41.4706 0,3.31526 1.39985,10.91462 -1.76217,13.04837 -4.52644,3.05433 -16.4469,0.79018 -21.8055,0.79018 -2.30893,0 -6.64937,-0.7964 -7.904,1.7821 -1.54041,3.16595 -1.71308,14.69808 1.87775,16.20571 5.82007,2.4425 14.97543,0.0992 21.2312,0.53278 10.70893,0.74114 21.23472,-0.38133 31.93041,-0.0362 9.14023,0.29523 19.74257,1.42153 28.84457,-0.14684 4.23762,-0.73037 4.88003,-15.13399 1.86717,-17.54728 -1.86185,-1.49149 -5.69198,-0.79034 -7.90431,-0.79034 -8.15442,0 -26.75501,3.72642 -25.65775,-8.45689 0.14551,-1.61573 0.11921,-3.7025 1.14623,-5.0483 3.72384,-4.87963 21.16932,-1.10217 26.79227,-1.10217 h 44.094373 c 10.250416,0 22.443275,-0.34981 31.169397,-6.54848 16.340004,-11.60647 14.096518,-46.57986 -6.081219,-53.08103 -15.039983,-4.84571 -32.252758,-2.64396 -47.895611,-2.64396 -27.60323,0 -55.27854,-0.59439 -82.86701,-0.22306 m 161.736636,0.24442 c -3.240182,2.6514 -1.623135,14.64489 1.829151,16.55906 7.560668,4.19185 20.0348102,-2.90448 26.9264603,1.89235 3.20672,2.23147 1.8504461,9.662 1.8504461,13.04836 0,12.99586 0.1748557,26.23943 -0.00348,39.20923 -0.1877797,13.54564 -23.7759904,1.38871 -30.7079294,6.94081 -2.140856,1.71444 -1.222474,6.78396 -1.218677,9.20417 0.0035,1.89973 -0.255443,4.20076 0.564107,5.97517 1.447513,3.13291 5.753551,2.48095 8.558871,2.48172 8.325471,0.003 16.7847507,-0.43361 25.0881703,0.18913 24.6943737,1.85283 50.4409307,-0.18913 75.2645407,-0.18913 13.335504,0 28.673494,-0.0969 39.464454,-9.51708 21.38195,-18.6659 22.2433,-66.01988 -5.25332,-79.56384 -12.19589,-6.00737 -25.560284,-5.93526 -38.772629,-6.26259 -19.39468,-0.48049 -39.0372,0.0112 -58.539076,0.0112 -10.8244082,0 -21.8928582,0.67895 -32.69066,-0.0688 -3.24397,-0.22466 -9.533506,-2.22231 -12.360103,0.0902 m 174.292858,1.51625 c 1.10768,4.086 -1.18447,14.29807 2.5225,16.77555 7.94002,5.30624 28.52678,-7.91534 30.03816,7.05751 1.19282,11.81128 0.12995,24.25997 0.12995,36.13399 0,3.62802 1.28406,10.46356 -0.78154,13.59415 -1.74324,2.64154 -6.42561,1.78201 -9.10168,1.78201 -10.5644,0 -22.29655,-3.71272 -22.02819,9.98299 0.0379,1.94816 -0.40293,4.93113 0.45844,6.71938 2.1705,4.50599 14.48044,2.36025 18.52875,2.49094 16.692,0.53817 33.48511,-0.74189 50.17637,-0.74189 4.0696,0 14.93202,1.97967 17.05691,-2.42021 0.84159,-1.74212 0.99136,-4.13004 1.12137,-6.03669 0.15823,-2.32948 0.82031,-6.80319 -0.71387,-8.76211 -1.51821,-1.93816 -5.45022,-1.23241 -7.5812,-1.23241 -7.26264,-7.1e-4 -14.81115,0.60429 -22.04338,-0.0454 -5.38332,-0.48281 -6.44614,-9.83582 -3.34661,-13.54879 2.03822,-2.44042 5.2305,-1.39561 7.90429,-1.14375 5.94362,0.56 12.259,0.14031 18.24595,0.13055 13.40698,-0.0219 26.85347,-0.76796 40.29313,-0.7688 7.37062,-4.6e-4 16.44036,1.42998 23.56769,-0.60629 11.85302,-3.3866 21.30975,-11.91046 22.67515,-24.76439 1.42475,-13.40788 -3.47124,-28.34897 -16.59313,-33.72792 -10.37357,-4.25232 -22.56262,-2.3708 -33.42125,-2.65583 -25.39379,-0.66656 -50.67736,0.24975 -76.05443,0.24975 -12.26051,0 -29.65575,-3.32581 -41.05338,1.53761 m 259.24831,-1.86567 c -5.46694,1.58894 -7.49756,13.04245 -2.83269,16.5822 7.09844,5.38704 19.83183,-2.65031 26.82688,2.21863 3.20672,2.23154 1.85043,9.66199 1.85043,13.04836 v 29.98353 c 0,3.75433 1.04839,9.46504 -0.45843,12.95589 -2.19712,5.08805 -20.55026,2.42028 -25.38999,2.42028 -2.20928,0 -7.38429,-0.96463 -8.34144,1.7821 -1.15633,3.31741 -0.34516,14.50741 3.13222,16.09884 4.55085,2.08117 12.43994,0.57046 17.37319,0.57046 13.762,0 28.11547,-1.18781 41.81362,0.1307 6.56018,0.63119 17.19073,2.67314 23.39435,-0.1553 3.77006,-1.71906 3.84989,-15.23701 0.60136,-17.52037 -4.73786,-3.33001 -17.57161,-0.90643 -23.23545,-0.90643 -3.01515,0 -7.28926,0.67578 -9.10169,-2.42028 -2.25567,-3.85234 -0.78155,-11.66752 -0.78155,-16.03111 v -39.20917 c 0,-4.5525 1.96525,-15.4718 -2.49284,-18.31377 -5.39473,-3.43964 -18.59111,-0.90643 -24.87606,-0.90643 -5.26321,0 -12.49164,-1.77848 -17.48191,-0.32806 M 27.382881,248.97469 c 5.746704,-1.74119 13.739953,-0.33335 19.721579,-0.33335 16.304279,0 43.103014,-4.87409 57.01859,5.21913 14.7526,10.69996 11.82185,45.86811 -6.081984,51.86489 -16.4031,5.49391 -37.641386,2.11423 -54.737839,2.11423 -3.893236,0 -14.947993,1.91125 -17.719094,-1.23271 -1.919624,-2.17765 -0.52685,-9.01736 -0.52685,-11.83703 0,-11.14104 0.914577,-22.73728 -0.129245,-33.82758 -0.345914,-3.67944 -2.378053,-10.5033 2.454843,-11.96758 m -174.141611,0.65495 c 14.51618,-1.73212 30.1902,0.54931 44.85463,0.54931 9.731171,0 21.686825,-1.91072 31.169397,0.30314 11.796763,2.75387 8.902503,19.5019 -0.75949,22.79556 -5.869113,2.00067 -13.625922,0.73436 -19.766442,0.73436 h -41.053385 c -5.37419,0 -16.17275,2.11499 -20.92794,-0.46389 -2.85254,-1.547 -3.28732,-19.49791 -1.61432,-22.13646 1.20857,-1.90611 6.09977,-1.54362 8.09755,-1.78202 m 357.31645,0 c 14.82255,-1.76857 30.68664,-0.21949 45.61486,-0.21949 9.3503,0 20.56624,-1.42407 29.64892,1.10216 9.78515,2.7215 8.75044,18.77069 0,21.87843 -6.25837,2.22263 -12.59275,0.855 -19.00544,0.85247 -13.64265,-0.005 -27.42442,-0.57323 -41.05339,0.0303 -5.79992,0.25677 -18.15699,2.83559 -23.32591,0.27461 -3.24551,-1.60788 -2.98322,-19.66873 -0.54358,-22.13645 1.83295,-1.85352 6.23479,-1.4921 8.66454,-1.78202 M 333.7213,275.8908 c -4.58733,0.82523 -7.58498,10.65399 -2.80302,13.03352 7.61083,3.78717 23.19211,0.11794 31.68863,0.49421 3.30329,0.14621 7.34629,1.62318 10.53097,0.16783 4.08329,-1.86621 3.40058,-11.64506 -0.69258,-13.09228 -9.7175,-3.43595 -28.63398,-2.41882 -38.724,-0.60328 z"
       id="path914" />
  </g>
</svg>
