<?xml version="1.0" encoding="UTF-8" standalone="no"?>
<!-- Created with Inkscape (http://www.inkscape.org/) -->

<svg
   width="631.82501mm"
   height="81.668053mm"
   viewBox="0 0 631.82501 81.668053"
   version="1.1"
   id="svg1"
   inkscape:version="1.4 (86a8ad7, 2024-10-11)"
   xml:space="preserve"
   sodipodi:docname="pdp1.svg"
   xmlns:inkscape="http://www.inkscape.org/namespaces/inkscape"
   xmlns:sodipodi="http://sodipodi.sourceforge.net/DTD/sodipodi-0.dtd"
   xmlns="http://www.w3.org/2000/svg"
   xmlns:svg="http://www.w3.org/2000/svg"><sodipodi:namedview
     id="namedview1"
     pagecolor="#ffffff"
     bordercolor="#000000"
     borderopacity="0.25"
     inkscape:showpageshadow="2"
     inkscape:pageopacity="0.0"
     inkscape:pagecheckerboard="true"
     inkscape:deskcolor="#d1d1d1"
     inkscape:document-units="mm"
     inkscape:zoom="0.41179678"
     inkscape:cx="616.8091"
     inkscape:cy="270.76462"
     inkscape:window-width="3840"
     inkscape:window-height="2066"
     inkscape:window-x="-11"
     inkscape:window-y="-11"
     inkscape:window-maximized="1"
     inkscape:current-layer="svg1" /><defs
     id="defs1" /><path
     id="path1-1"
     style="fill:#000000"
     d="m 0,73.554158 v -7.9375 H 14.02292 28.04584 V 40.657638 15.698611 H 14.02292 0 V 7.849306 0 h 60.37373 c 41.20566,0 60.84827,0.05896 61.8684,0.185712 7.15654,0.88919 12.94995,4.009355 16.75083,9.021505 2.33201,3.075194 3.84964,6.447683 4.69088,10.424148 0.37886,1.790843 0.47131,2.790073 0.55008,5.945023 0.14764,5.91387 -0.41989,8.90612 -2.49344,13.14652 -1.33994,2.74016 -2.67947,4.594 -4.74649,6.56886 -2.92135,2.79111 -6.49623,4.71875 -10.74125,5.79185 -3.85622,0.97483 -2.45298,0.94393 -43.04128,0.94766 l -37.52673,0.003 v 6.79097 6.79097 H 60.94236 76.2 v 7.9375 7.9375 H 38.1 0 Z m 114.50145,-37.20909 c 3.57075,-0.2766 6.26447,-1.35526 8.17703,-3.27436 1.59812,-1.6036 2.30872,-3.35774 2.50463,-6.18283 0.11411,-1.64536 -0.30417,-4.4876 -0.83804,-5.69461 -1.10126,-2.489804 -3.46872,-4.209923 -7.00891,-5.092447 -1.08322,-0.270034 -4.18513,-0.300088 -36.41775,-0.352873 l -35.23368,-0.0577 v 10.41113 10.41112 l 33.38159,-0.004 c 18.35988,-0.002 34.30569,-0.0758 35.43513,-0.16325 z m 47.95272,37.38548 v -7.9375 h 13.84653 13.84652 V 40.569438 15.345832 H 176.3007 162.45417 V 7.672916 0 l 49.60937,0.0016 c 49.54698,0.0016 52.62048,0.03481 57.81146,0.625222 11.77499,1.339256 21.39939,5.681491 26.69738,12.045042 4.53511,5.447242 7.05432,11.796664 8.16434,20.577464 0.46702,3.69432 0.42084,11.01724 -0.0934,14.81666 -1.15765,8.55267 -3.70201,15.08395 -7.98034,20.48529 -1.27416,1.6086 -4.4503,4.57667 -6.33972,5.92439 -2.14439,1.52959 -5.85799,3.42661 -8.54197,4.36349 -3.64774,1.27329 -8.42767,2.24952 -12.96458,2.64782 -1.308,0.11483 -20.55729,0.17861 -54.19549,0.17959 l -52.16701,0.001 z m 100.71806,-8.1961 c 5.0376,-0.44456 7.81151,-1.12303 11.26451,-2.75521 3.86838,-1.82851 6.2885,-4.2255 8.26591,-8.18688 1.49075,-2.98644 2.33666,-6.86395 2.69367,-12.34722 0.48691,-7.47842 -0.79518,-14.03988 -3.53695,-18.10136 -3.20602,-4.749191 -7.80165,-7.02173 -16.78423,-8.299792 -2.65764,-0.378135 -3.09171,-0.384656 -29.99285,-0.450563 l -27.29618,-0.06688 v 25.233251 25.23325 l 26.23785,-8.8e-4 c 21.51517,-7.3e-4 26.76171,-0.0471 29.14827,-0.25772 z m 59.44305,8.1961 v -7.9375 h 14.02292 14.02292 V 40.834028 15.874999 H 336.6382 322.61528 V 8.025694 0.176388 h 60.37373 c 41.20566,0 60.84827,0.05896 61.8684,0.185712 7.15654,0.88919 12.94995,4.009355 16.75083,9.021505 2.33201,3.075194 3.84964,6.447683 4.69088,10.424148 0.37886,1.790845 0.47131,2.790075 0.55008,5.945025 0.14764,5.91387 -0.41989,8.90612 -2.49344,13.14652 -1.33994,2.74016 -2.67947,4.594 -4.74649,6.56886 -2.92135,2.79111 -6.49623,4.71875 -10.74125,5.79185 -3.85622,0.97483 -2.45298,0.94393 -43.04128,0.94766 l -37.52673,0.003 v 6.79097 6.79097 h 15.25763 15.25764 v 7.9375 7.9375 h -38.1 -38.1 z m 114.50145,-37.20909 c 3.57075,-0.2766 6.26447,-1.35526 8.17703,-3.27436 1.59812,-1.6036 2.30872,-3.35774 2.50463,-6.18283 0.11411,-1.64536 -0.30417,-4.4876 -0.83804,-5.69461 -1.10126,-2.489806 -3.46872,-4.209925 -7.00891,-5.092449 -1.08322,-0.270034 -4.18513,-0.30009 -36.41775,-0.352873 l -35.23368,-0.0577 v 10.411132 10.41112 l 33.38159,-0.004 c 18.35988,-0.002 34.30569,-0.0758 35.43513,-0.16325 z m 117.80272,37.20909 v -7.9375 h 15.17005 15.17005 l -0.0447,-25.17951 -0.0447,-25.179511 -13.53785,-0.04519 -13.53785,-0.04519 V 7.671826 5e-6 h 22.04862 22.04861 v 32.896523 32.89652 h 14.81666 14.81667 v 7.9375 7.9375 h -38.45278 -38.45278 z m -70.73194,-22.48958 v -7.67291 h 23.8125 23.8125 v 7.67291 7.67292 h -23.8125 -23.8125 z" /></svg>
