<?xml version="1.0" encoding="UTF-8" standalone="no"?>
<!-- Created by ERK -->

<svg
   version="1.1"
   id="Layer_1"
   x="0px"
   y="0px"
   viewBox="0 0 3838.9006 591.99443"
   xml:space="preserve"
   sodipodi:docname="pet.svg"
   inkscape:version="1.3.2 (091e20e, 2023-11-25, custom)"
   width="3838.9006"
   height="591.99445"
   xmlns:inkscape="http://www.inkscape.org/namespaces/inkscape"
   xmlns:sodipodi="http://sodipodi.sourceforge.net/DTD/sodipodi-0.dtd"
   xmlns="http://www.w3.org/2000/svg"
   xmlns:svg="http://www.w3.org/2000/svg"><defs
   id="defs35">
							
							
						
							
							
						
						
						
					
					
					
				
				
				
			
			
		
		
		
	
			
			
		
			
			
		
			
			
		
			
			
		
			
			
		
			
			
		
			
			
		
			
			
		
			
			
		
			
			
		
			
			
		
			
			
		
		
		
		
		
		
		
		
		
		
		
		
		
	</defs><sodipodi:namedview
   id="namedview35"
   pagecolor="#ffffff"
   bordercolor="#000000"
   borderopacity="0.25"
   inkscape:showpageshadow="2"
   inkscape:pageopacity="0.0"
   inkscape:pagecheckerboard="true"
   inkscape:deskcolor="#d1d1d1"
   inkscape:zoom="0.2261064"
   inkscape:cx="1508.1395"
   inkscape:cy="409.09943"
   inkscape:window-width="1916"
   inkscape:window-height="1393"
   inkscape:window-x="0"
   inkscape:window-y="0"
   inkscape:window-maximized="0"
   inkscape:current-layer="Layer_1" />
<style
   type="text/css"
   id="style1">
	.st0{fill:#FFFFFF;}
</style>
<g
   id="g35"
   inkscape:label="C-commodorePET">
	
	<path
   d="m 239.8,295.5 c -12.1,6.9 -26.2,10.8 -41.2,10.8 -46.5,0 -84.4,-37.9 -84.4,-84.4 0,-46.5 37.9,-84.4 84.4,-84.4 15,0 29,3.9 41.2,10.8 V 68 c -13.1,-3.5 -26.9,-5.4 -41.1,-5.4 -88,0 -159.3,71.3 -159.3,159.2 0,87.9 71.3,159.2 159.2,159.2 14.2,0 28,-1.9 41.1,-5.4 z"
   id="path28"
   style="fill:#002684;fill-opacity:1"
   inkscape:label="C" /><path
   id="rect28"
   style="fill:#002684;fill-opacity:1"
   d="M 239.80078,152.30078 V 216 H 285.5 v 0.0996 h 29.30078 L 378.5,152.30078 H 306.59961 285.5 Z"
   inkscape:label="BlueDash" /><path
   id="rect29"
   style="fill:#f20029;fill-opacity:1"
   d="m 239.80078,227.59961 v 63.70117 H 285.5 v 0.0996 h 93 L 314.80078,227.59961 H 306.59961 285.5 Z"
   inkscape:label="RedDash" /><path
   id="path4595_00000015352148864051845840000009120747381251297167_"
   d="m 2066.3,157.3 h -42.7 v 122.5 h 44.6 v -64 c 0,-16.7 10.2,-25.1 28.8,-25.1 18.5,0 23.2,5.6 24.1,21.3 h 41.8 c 0,-41.8 -5.6,-57.6 -50.1,-57.6 -26.9,0 -36.2,5.6 -46.4,26 v -23.1 z m 205.1,98.4 c -42.7,0 -49.2,-3.7 -49.2,-25.1 h 117 c -1.9,-59.3 -1.9,-73.3 -80.8,-73.3 -66.9,0 -81.8,12 -81.8,65 0,49.3 19.5,61.3 73.3,62.2 60.3,0 89.1,-2.8 89.1,-42.7 h -43.7 c -1.6,9.2 -5.3,13.9 -23.9,13.9 z m -50.1,-51.1 c 1.9,-13 5.6,-17.6 35.3,-17.6 32.5,0 37.1,1.9 39,17.6 z m -1660.1,4.7 h 44.6 c -3.7,-41.8 -15.8,-52 -77.9,-52 -70.6,0 -86.4,11.2 -86.4,63.2 0,52 14.9,64 80.8,64 69.6,0 83.5,-9.3 83.5,-53 h -44.6 c 0,12 -4.6,17.6 -39,17.6 -29.7,0 -36.2,-7.4 -36.2,-31.5 0,-23.2 6.5,-23.2 41.8,-23.2 25.9,0 30.5,2.9 33.4,14.9 z m 1035.2,7.4 c 0,-50.1 -14.9,-60.3 -86.4,-60.3 -77.1,0 -86.4,13 -86.4,64.9 0,52 13,63.2 86.4,63.2 78.1,0 86.4,-13 86.4,-67.8 z m -127.2,2.8 c 0,-25.1 5.6,-27.8 38.1,-27.8 36.2,0 42.7,0.9 42.7,27.8 0,25.1 -4.6,29.7 -39,29.7 -37.2,0.1 -41.8,-3.6 -41.8,-29.7 z m 527.4,-2.8 c 0,-50.1 -13.9,-60.3 -85.4,-60.3 -76.2,0 -85.4,12 -85.4,64 0,52.9 13,64 85.4,64 77.9,0.1 85.4,-12.9 85.4,-67.7 z m -126.3,2.8 c 0,-25.1 5.6,-27.8 38.1,-27.8 36.2,0 42.7,0.9 42.7,27.8 0,25.1 -4.6,29.7 -39,29.7 -37.2,0.1 -41.8,-3.6 -41.8,-29.7 z M 803.5,216.7 c 0,-50.1 -13.9,-60.3 -85.4,-60.3 -77.1,0 -86.4,12 -86.4,64 0,52.9 13,64 86.4,64 78,0.1 85.4,-12.9 85.4,-67.7 z m -125.4,2.8 c 0,-25.1 5.6,-27.8 37.1,-27.8 36.2,0 42.7,0.9 42.7,27.8 0,25.1 -4.7,29.7 -39,29.7 -36.1,0.1 -40.8,-3.6 -40.8,-29.7 z M 1751.5,105.3 v 71.5 c -10.2,-13.9 -19.5,-21.3 -56.6,-21.3 -59.4,0 -70.6,15.8 -70.6,64 0,49.3 15.8,63.2 73.3,63.2 36.2,0 47.4,-9.3 55.7,-25.1 v 22.2 h 44.6 V 105.3 Z m -32.6,85.4 c 25.1,0 33.4,3.7 33.4,23.2 0,29.8 -1.9,32.5 -37.1,32.5 -35.3,0 -44.6,-1 -44.6,-26 0.1,-28.7 11.2,-29.7 48.3,-29.7 z M 874,157.3 h -41.8 v 122.5 h 44.6 v -63.2 c 0,-18.5 9.3,-25.1 34.4,-25.1 23.2,0 29.7,8.3 29.7,31.5 v 56.6 h 45.5 v -64.9 c 0,-17.6 13.9,-23.2 35.3,-23.2 20.5,0 29.7,5.6 29.7,23.2 v 64.9 h 44.6 v -72.4 c 0,-36.2 -22.3,-52.9 -63.2,-52.9 -35.3,0 -48.3,13 -53,26.9 -9.3,-15.8 -22.2,-26.9 -57.6,-26.9 -33.4,0 -42.7,11.2 -48.3,31.5 z m 300,0 h -41.8 v 122.5 h 44.6 v -63.2 c 0,-18.5 11.2,-25.1 33.4,-25.1 23.2,0 29.7,7.4 29.7,31.5 v 56.6 h 45.5 v -64.9 c 0,-17.6 13,-23.2 34.4,-23.2 20.5,0 30.7,6.5 30.7,23.2 v 64.9 h 44.6 v -72.4 c 0,-36.2 -22.2,-52.9 -63.2,-52.9 -35.3,0 -47.4,12 -52.9,26.9 -9.3,-15.8 -22.3,-26.9 -57.6,-26.9 -32.5,0 -40.8,11.2 -47.3,31.5 v -28.5 z"
   style="display:inline;fill:#002684;fill-opacity:1"
   inkscape:label="commodore" /><g
   id="g27"
   style="fill:#000000;fill-opacity:1"
   inkscape:label="PET">
			<path
   d="m 2846.3,287.9 c -34.5,31.7 -113.9,27.3 -157.7,27.3 h -140.1 v 89.2 H 2437.4 V 39.3 h 250.1 c 20.3,0 40,0 60.2,0.6 35.5,0.6 76.1,4.4 102.9,30.7 25.2,24.7 25.2,78.8 25.2,111.1 0,34.4 -2.2,80.9 -29.5,106.2 z M 2714.4,131.3 c -8.7,0 -18,-0.6 -26.8,-0.6 h -139.1 v 93 h 165.3 c 42.7,0 50.3,-7.6 50.3,-49.8 0,-39.9 -14.2,-42 -49.7,-42.6 z"
   id="path25"
   style="fill:#000000;fill-opacity:1"
   inkscape:label="P" />
			<path
   d="M 2906.4,404.4 V 39.3 h 403.9 v 86 h -294.5 v 53.1 h 279.7 v 79.9 h -279.7 v 58.6 h 296.6 v 87.5 z"
   id="path26"
   style="fill:#000000;fill-opacity:1"
   inkscape:label="E" />
			<path
   d="m 3637.1,132.4 v 272 h -116.6 v -272 h -162.6 v -93 h 441.7 v 93 z"
   id="path27"
   style="fill:#000000;fill-opacity:1"
   inkscape:label="T" />
		</g>
</g>
<path
   d="m 2471.7697,503.32997 v -4.1634 c 0.1885,-9.0809 0.9253,-12.3362 4.0093,-13.4157 3.8037,-1.6448 13.4156,-2.1759 36.803,-2.1759 19.2239,0 24.107,0.1713 27.3795,1.2679 4.5404,1.2678 5.8083,3.8036 5.8083,10.8798 0,9.7833 -1.6448,10.6914 -23.0276,12.3362 -33.3762,2.7071 -50.5955,3.975 -52.0519,4.1635 -18.8469,2.5357 -26.6599,7.059 -30.4635,18.3158 -1.9875,5.6198 -2.7243,14.8548 -2.7243,34.9868 0,5.8083 0,7.7958 0.5483,13.7926 h 144.1622 v -27.7565 h -110.4433 v -1.2679 c 0.1714,-5.9967 1.4393,-8.344 5.9797,-10.1602 2.3644,-1.0794 9.4235,-1.6277 60.2075,-4.8831 20.4746,-1.0965 31.7314,-5.0886 36.9914,-12.8844 3.8037,-5.7912 5.2429,-12.8674 5.2429,-27.1911 0,-19.2239 -2.5357,-27.2082 -10.6913,-32.4682 -7.9843,-5.2429 -13.9639,-5.7911 -64.371,-5.7911 -61.2869,0 -68.9114,4.5232 -68.9114,41.1549 v 5.26 z m 201.4742,-46.4149 c -22.1195,0 -39.7157,0.7196 -48.7794,2.1759 -14.3237,1.9875 -23.3874,10.3316 -25.7518,23.3874 -1.2679,6.8877 -1.4564,10.1602 -1.4564,34.627 0,28.8359 0,30.8405 1.4564,38.0881 2.3644,13.0558 11.4281,21.3998 25.7518,23.3873 8.8752,1.4564 26.6599,2.176 48.7794,2.176 21.931,0 39.6985,-0.7196 48.5909,-2.176 14.3237,-1.9875 23.3874,-10.3315 25.7518,-23.3873 1.2679,-7.0762 1.4564,-9.8005 1.4564,-36.4432 0,-26.4715 -0.1885,-29.1957 -1.4564,-36.2719 -2.3644,-13.0558 -11.4281,-21.3999 -25.7518,-23.3874 -9.0808,-1.4563 -26.6599,-2.1759 -48.5909,-2.1759 z m -2.3645,31.3545 c 40.6067,0 41.3434,0.5483 41.3434,30.4807 0,30.0866 -0.5482,30.6349 -41.5147,30.6349 -35.3638,0 -36.6317,-1.0795 -36.6317,-31.1832 0,-28.6474 1.6277,-29.9153 36.803,-29.9153 z m 166.83,-31.3545 c -22.1195,0 -39.7157,0.7196 -48.7794,2.1759 -14.3237,1.9875 -23.3874,10.3316 -25.7518,23.3874 -1.2679,6.8877 -1.4564,10.1602 -1.4564,34.627 0,28.8359 0,30.8405 1.4564,38.0881 2.3644,13.0558 11.4281,21.3998 25.7518,23.3873 8.8752,1.4564 26.6599,2.176 48.7794,2.176 21.931,0 39.7157,-0.7196 48.5909,-2.176 14.3237,-1.9875 23.3874,-10.3315 25.7518,-23.3873 1.2679,-7.0762 1.4564,-9.8005 1.4564,-36.4432 0,-26.4715 -0.1885,-29.1957 -1.4564,-36.2719 -2.3644,-13.0558 -11.4281,-21.3999 -25.7518,-23.3874 -9.0808,-1.4563 -26.6599,-2.1759 -48.5909,-2.1759 z m -2.3644,31.3545 c 40.6066,0 41.3434,0.5483 41.3434,30.4807 0,30.0866 -0.5483,30.6349 -41.5148,30.6349 -35.3638,0 -36.6316,-1.0795 -36.6316,-31.1832 0,-28.6474 1.6277,-29.9153 36.803,-29.9153 z m 140.8896,-29.9153 -44.239,37.8995 20.3034,23.7644 35.7236,-30.1038 h 9.6119 v 89.4032 h 36.8201 v -120.9633 z m 150.8786,80.8878 v 5.7911 c 0,16.6882 2.7071,23.7643 11.0512,29.0244 8.5325,5.4313 23.216,7.059 60.7558,7.059 36.0833,0 51.3151,-0.9081 58.5626,-3.6152 12.5076,-4.7289 17.5963,-15.0604 17.5963,-36.0834 0,-16.8766 -3.0841,-25.015 -11.4282,-30.4635 -7.7958,-4.9002 -15.5915,-5.8255 -55.4957,-7.0762 -25.5634,-0.7196 -35.5351,-1.2679 -38.7905,-2.176 -3.8208,-0.9081 -5.4485,-3.2554 -5.4485,-7.7958 0,-8.8923 2.5358,-9.6119 33.7361,-9.6119 26.1116,0 30.6349,0.3598 33.7189,2.1759 2.7243,1.6277 3.2554,3.2554 3.6323,9.9718 h 35.5351 c 0.1714,-2.3644 0.1714,-4.9002 0.1714,-5.6198 0,-14.3237 -2.8956,-21.931 -10.1431,-26.8312 -8.5154,-5.8255 -21.2114,-7.436 -56.3867,-7.436 -29.0244,0 -45.6954,0.7196 -52.7715,2.1759 -16.6882,3.6152 -23.2161,13.9639 -23.2161,36.9915 0,26.6428 8.3441,34.2672 38.2594,35.1753 l 9.8004,0.3598 19.5837,0.9081 29.0072,1.0794 c 11.7879,0.1885 14.5122,2.0046 14.5122,9.2522 0,10.7085 0,10.7085 -39.5273,10.7085 -25.9402,0 -29.9324,-0.377 -33.3762,-2.553 -2.9127,-1.799 -3.6152,-4.1634 -3.6152,-11.4109 z m 240.6244,12.6788 c -1.2679,7.6245 -5.0887,9.0809 -25.5805,9.0809 -11.5994,0 -18.2987,-1.0966 -21.7596,-3.6324 -3.0841,-2.3644 -3.975,-5.26 -3.975,-13.9639 h 83.7833 c 0.1713,-3.6323 0.1713,-7.6244 0.1713,-8.7038 0,-19.3953 -2.9127,-29.0072 -10.52,-35.3638 -7.7958,-6.3394 -17.956,-8.1556 -46.9632,-8.1556 -27.9278,0 -38.6192,1.8162 -46.9632,7.6244 -9.0809,6.3395 -11.6166,14.8549 -11.6166,37.8825 0,21.9481 2.5529,30.4635 10.8798,36.8201 7.7958,5.8083 19.5837,7.9842 44.4275,7.9842 45.8838,0 57.6717,-5.8254 60.019,-29.5726 z m -51.3151,-26.1116 c 0.3426,-11.9592 5.4313,-14.6835 27.0197,-14.6835 12.6788,0 19.2067,1.2679 22.1023,4.3519 2.0046,2.0047 2.3645,3.6324 2.5529,10.3316 z m 95.9139,-32.2626 v 85.7537 h 32.0913 v -35.5351 c 0,-13.2271 0.908,-17.956 3.9921,-22.1195 3.084,-3.9921 9.0808,-6.1681 16.3283,-6.1681 13.2272,0 16.8595,3.4439 16.8595,16.1399 h 30.2751 v -5.8083 c 0,-25.7347 -8.7039,-34.4385 -34.627,-34.4385 -17.9561,0 -27.0198,4.1634 -32.9994,15.0433 h -1.6277 v -12.8674 z m 108.6271,0 v 85.7537 h 32.0912 v -85.7537 z m 0,-35.1924 v 24.1241 h 32.0912 v -24.1241 z m 127.6454,93.5666 c -1.2679,7.6245 -5.0716,9.0809 -25.5634,9.0809 -11.5994,0 -18.3158,-1.0966 -21.7596,-3.6324 -3.0841,-2.3644 -3.9922,-5.26 -3.9922,-13.9639 h 83.7834 c 0.1713,-3.6323 0.1713,-7.6244 0.1713,-8.7038 0,-19.3953 -2.9127,-29.0072 -10.52,-35.3638 -7.7958,-6.3394 -17.9389,-8.1556 -46.9461,-8.1556 -27.9278,0 -38.6363,1.8162 -46.9804,7.6244 -9.0637,6.3395 -11.5994,14.8549 -11.5994,37.8825 0,21.9481 2.5357,30.4635 10.8798,36.8201 7.7958,5.8083 19.5837,7.9842 44.4275,7.9842 45.8666,0 57.6546,-5.8254 60.019,-29.5726 z m -51.3152,-26.1116 c 0.3598,-11.9592 5.4485,-14.6835 27.0197,-14.6835 12.6789,0 19.2239,1.2679 22.1195,4.3519 2.0046,2.0047 2.3645,3.6324 2.5358,10.3316 z m 93.1897,26.1116 c 0.2056,9.9889 2.3816,15.9686 7.6245,20.6803 7.6244,7.0762 18.3329,8.8752 49.5161,8.8752 49.6875,0 61.2869,-5.6198 61.2869,-30.0866 0,-19.2239 -9.4234,-26.4714 -34.2672,-26.6599 -33.0164,-0.1713 -38.6363,-0.3598 -43.8963,-0.7196 -5.0715,-0.377 -7.6073,-2.176 -7.6073,-5.6198 0,-5.4485 6.1681,-7.0762 26.2829,-7.0762 10.8799,0 17.4078,0.7196 20.132,2.5358 1.0966,0.7196 1.4564,1.2678 2.176,3.9921 h 32.6395 c -0.7196,-10.3316 -2.3473,-14.872 -6.8877,-18.5043 -7.2475,-6.1681 -17.956,-7.9671 -47.1517,-7.9671 -22.4793,0 -37.5226,1.2678 -44.4274,3.975 -10.1431,3.8208 -14.8549,11.7879 -14.8549,25.0322 0,18.3158 10.1431,25.9231 34.4386,26.3001 31.5601,0 39.5444,0.1713 43.8963,0.5311 4.7117,0.5483 7.436,2.9127 7.436,6.3394 0,6.1681 -5.9968,7.9843 -26.8484,7.9843 -20.132,0 -26.2829,-2.176 -26.8312,-9.5948 z"
   style="font-style:normal;font-variant:normal;font-weight:400;font-stretch:normal;font-size:10.5833px;line-height:1.25;font-family:'Microgramma D Extended';-inkscape-font-specification:'Microgramma D Extended, Normal';font-variant-ligatures:normal;font-variant-caps:normal;font-variant-numeric:normal;font-variant-east-asian:normal;white-space:pre;fill:#000000;fill-opacity:1;stroke:none;stroke-width:17.1336;stroke-miterlimit:4;stroke-dasharray:none"
   id="path1815"
   inkscape:label="2001 Series" /></svg>
