<?xml version="1.0" encoding="UTF-8" standalone="no"?>
<svg
   xmlns:dc="http://purl.org/dc/elements/1.1/"
   xmlns:cc="http://creativecommons.org/ns#"
   xmlns:rdf="http://www.w3.org/1999/02/22-rdf-syntax-ns#"
   xmlns:svg="http://www.w3.org/2000/svg"
   xmlns="http://www.w3.org/2000/svg"
   xmlns:sodipodi="http://sodipodi.sourceforge.net/DTD/sodipodi-0.dtd"
   xmlns:inkscape="http://www.inkscape.org/namespaces/inkscape"
   width="84.718475mm"
   height="31.500059mm"
   viewBox="0 0 84.718475 31.500059"
   version="1.1"
   id="svg8"
   inkscape:version="1.0.2 (e86c870879, 2021-01-15)"
   sodipodi:docname="pet.svg">
  <defs
     id="defs2">
    <rect
       x="32.715382"
       y="182.35857"
       width="150.10153"
       height="48.617233"
       id="rect12" />
  </defs>
  <sodipodi:namedview
     id="base"
     pagecolor="#ffffff"
     bordercolor="#666666"
     borderopacity="1.0"
     inkscape:pageopacity="0.0"
     inkscape:pageshadow="2"
     inkscape:zoom="1.4"
     inkscape:cx="157.414"
     inkscape:cy="96.869245"
     inkscape:document-units="mm"
     inkscape:current-layer="layer1"
     inkscape:document-rotation="0"
     showgrid="false"
     inkscape:window-width="1920"
     inkscape:window-height="1016"
     inkscape:window-x="0"
     inkscape:window-y="27"
     inkscape:window-maximized="1" />
  <metadata
     id="metadata5">
    <rdf:RDF>
      <cc:Work
         rdf:about="">
        <dc:format>image/svg+xml</dc:format>
        <dc:type
           rdf:resource="http://purl.org/dc/dcmitype/StillImage" />
        <dc:title></dc:title>
      </cc:Work>
    </rdf:RDF>
  </metadata>
  <g
     inkscape:label="Layer 1"
     inkscape:groupmode="layer"
     id="layer1"
     transform="translate(-33.286342,-160.47944)">
    <g
       aria-label="2001 Series"
       id="text10"
       style="font-style:normal;font-variant:normal;font-weight:normal;font-stretch:normal;font-size:10.5833px;line-height:1.25;font-family:'Microgramma D Extended';-inkscape-font-specification:'Microgramma D Extended, Normal';font-variant-ligatures:normal;font-variant-caps:normal;font-variant-numeric:normal;font-variant-east-asian:normal;white-space:pre;shape-inside:url(#rect12);fill:#656565;fill-opacity:1;stroke-width:1;stroke-miterlimit:4;stroke-dasharray:none"
       transform="matrix(0.71908477,0,0,0.71908477,24.26199,48.875898)">
      <path
         d="m 35.360669,187.41809 v -0.24341 c 0.01058,-0.52917 0.05292,-0.71967 0.232832,-0.78317 0.22225,-0.0953 0.783164,-0.127 2.14841,-0.127 1.12183,0 1.407579,0.0106 1.598078,0.0741 0.264583,0.0741 0.338666,0.22225 0.338666,0.635 0,0.57149 -0.09525,0.62441 -1.344079,0.71966 -1.947327,0.15875 -2.952741,0.23283 -3.037407,0.24342 -1.100663,0.14816 -1.555745,0.41274 -1.777994,1.06891 -0.116417,0.32808 -0.15875,0.86783 -0.15875,2.04258 0,0.33866 0,0.45508 0.03175,0.80433 h 8.413723 v -1.61925 h -6.445229 v -0.0741 c 0.01058,-0.34925 0.08467,-0.48683 0.349249,-0.59267 0.137582,-0.0635 0.550331,-0.0952 3.513655,-0.28575 1.195913,-0.0635 1.852077,-0.29633 2.158993,-0.75141 0.222249,-0.33866 0.306916,-0.75141 0.306916,-1.58749 0,-1.12183 -0.148166,-1.5875 -0.624415,-1.89441 -0.465665,-0.30692 -0.814914,-0.33867 -3.757071,-0.33867 -3.577155,0 -4.021654,0.26458 -4.021654,2.40241 v 0.30691 z"
         style="fill:#656565;fill-opacity:1;stroke-width:1;stroke-miterlimit:4;stroke-dasharray:none"
         id="path882" />
      <path
         d="m 47.11871,184.70877 c -1.291162,0 -2.317742,0.0423 -2.846907,0.127 -0.836081,0.11642 -1.365246,0.60325 -1.502829,1.36524 -0.07408,0.40217 -0.08467,0.59267 -0.08467,2.02142 0,1.68274 0,1.79916 0.08467,2.22249 0.137583,0.762 0.666748,1.24883 1.502829,1.36524 0.518581,0.0847 1.555745,0.127 2.846907,0.127 1.28058,0 2.317743,-0.0423 2.836325,-0.127 0.83608,-0.11641 1.365245,-0.60324 1.502828,-1.36524 0.07408,-0.41275 0.08467,-0.5715 0.08467,-2.12725 0,-1.54516 -0.01058,-1.70391 -0.08467,-2.11666 -0.137583,-0.76199 -0.666748,-1.24882 -1.502828,-1.36524 -0.529165,-0.0847 -1.555745,-0.127 -2.836325,-0.127 z m -0.137582,1.83091 c 2.370659,0 2.412992,0.0317 2.412992,1.77799 0,1.75683 -0.03175,1.78858 -2.423576,1.78858 -2.063743,0 -2.137826,-0.0635 -2.137826,-1.82033 0,-1.67216 0.09525,-1.74624 2.14841,-1.74624 z"
         style="fill:#656565;fill-opacity:1;stroke-width:1;stroke-miterlimit:4;stroke-dasharray:none"
         id="path884" />
      <path
         d="m 56.717759,184.70877 c -1.291163,0 -2.317743,0.0423 -2.846908,0.127 -0.83608,0.11642 -1.365245,0.60325 -1.502828,1.36524 -0.07408,0.40217 -0.08467,0.59267 -0.08467,2.02142 0,1.68274 0,1.79916 0.08467,2.22249 0.137583,0.762 0.666748,1.24883 1.502828,1.36524 0.518582,0.0847 1.555745,0.127 2.846908,0.127 1.280579,0 2.317743,-0.0423 2.836324,-0.127 0.836081,-0.11641 1.365246,-0.60324 1.502829,-1.36524 0.07408,-0.41275 0.08467,-0.5715 0.08467,-2.12725 0,-1.54516 -0.01058,-1.70391 -0.08467,-2.11666 -0.137583,-0.76199 -0.666748,-1.24882 -1.502829,-1.36524 -0.529165,-0.0847 -1.555745,-0.127 -2.836324,-0.127 z m -0.137583,1.83091 c 2.370659,0 2.412992,0.0317 2.412992,1.77799 0,1.75683 -0.03175,1.78858 -2.423575,1.78858 -2.063744,0 -2.137827,-0.0635 -2.137827,-1.82033 0,-1.67216 0.09525,-1.74624 2.14841,-1.74624 z"
         style="fill:#656565;fill-opacity:1;stroke-width:1;stroke-miterlimit:4;stroke-dasharray:none"
         id="path886" />
      <path
         d="m 64.803388,184.79344 -2.582325,2.21191 1.185329,1.38641 2.08491,-1.75683 h 0.560915 v 5.21757 h 2.14841 v -7.05906 z"
         style="fill:#656565;fill-opacity:1;stroke-width:1;stroke-miterlimit:4;stroke-dasharray:none"
         id="path888" />
      <path
         d="m 73.608669,189.51359 v 0.33866 c 0,0.97367 0.15875,1.38642 0.645582,1.69333 0.497415,0.3175 1.354662,0.41275 3.545405,0.41275 2.106077,0 2.995074,-0.0529 3.418406,-0.21167 0.730247,-0.27516 1.02658,-0.87841 1.02658,-2.10607 0,-0.98425 -0.179916,-1.4605 -0.666748,-1.778 -0.455082,-0.28575 -0.910164,-0.33866 -3.23849,-0.41275 -1.492245,-0.0423 -2.074326,-0.0741 -2.264826,-0.127 -0.222249,-0.0529 -0.317499,-0.19049 -0.317499,-0.45508 0,-0.51858 0.148166,-0.56091 1.968494,-0.56091 1.523995,0 1.788578,0.0212 1.968494,0.127 0.158749,0.0952 0.190499,0.1905 0.211666,0.58208 h 2.074326 c 0.01058,-0.13758 0.01058,-0.28575 0.01058,-0.32808 0,-0.83608 -0.169333,-1.28058 -0.592665,-1.56633 -0.497415,-0.33867 -1.238246,-0.43392 -3.291406,-0.43392 -1.693328,0 -2.666992,0.0423 -3.079741,0.127 -0.973663,0.21167 -1.354662,0.81492 -1.354662,2.159 0,1.55574 0.486832,2.00024 2.233076,2.05316 l 0.571499,0.0212 1.142996,0.0529 1.693328,0.0635 c 0.687914,0.0106 0.846664,0.11641 0.846664,0.53975 0,0.62441 0,0.62441 -2.30716,0.62441 -1.513411,0 -1.746244,-0.0212 -1.947327,-0.14816 -0.169332,-0.10584 -0.211666,-0.24342 -0.211666,-0.66675 z"
         style="fill:#656565;fill-opacity:1;stroke-width:1;stroke-miterlimit:4;stroke-dasharray:none"
         id="path890" />
      <path
         d="m 87.652697,190.25442 c -0.07408,0.4445 -0.296332,0.52916 -1.492245,0.52916 -0.677331,0 -1.068913,-0.0635 -1.269996,-0.21166 -0.179916,-0.13759 -0.232832,-0.30692 -0.232832,-0.81492 h 4.889484 c 0.01058,-0.21166 0.01058,-0.4445 0.01058,-0.50799 0,-1.13242 -0.169332,-1.69333 -0.613831,-2.06375 -0.455082,-0.37041 -1.047747,-0.47625 -2.741075,-0.47625 -1.629828,0 -2.254242,0.10584 -2.741074,0.4445 -0.529165,0.37042 -0.677331,0.86783 -0.677331,2.21191 0,1.28058 0.148166,1.778 0.634998,2.14841 0.455081,0.33867 1.142996,0.46567 2.592908,0.46567 2.677575,0 3.365489,-0.33867 3.503072,-1.72508 z m -2.995073,-1.524 c 0.02117,-0.69849 0.317499,-0.85724 1.576911,-0.85724 0.740831,0 1.12183,0.0741 1.291163,0.254 0.116416,0.11641 0.137583,0.21166 0.148166,0.60324 z"
         style="fill:#656565;fill-opacity:1;stroke-width:1;stroke-miterlimit:4;stroke-dasharray:none"
         id="path892" />
      <path
         d="m 90.256176,186.8466 v 5.0059 h 1.873244 v -2.07433 c 0,-0.77258 0.05292,-1.04775 0.232832,-1.29116 0.179916,-0.23284 0.529165,-0.35983 0.952497,-0.35983 0.772581,0 0.984247,0.20108 0.984247,0.94191 h 1.767411 v -0.33867 c 0,-1.50283 -0.507998,-2.01082 -2.02141,-2.01082 -1.047747,0 -1.576912,0.24341 -1.92616,0.87841 h -0.09525 v -0.75141 z"
         style="fill:#656565;fill-opacity:1;stroke-width:1;stroke-miterlimit:4;stroke-dasharray:none"
         id="path894" />
      <path
         d="m 96.595543,186.8466 v 5.0059 h 1.873244 v -5.0059 z m 0,-2.05316 v 1.40757 h 1.873244 v -1.40757 z"
         style="fill:#656565;fill-opacity:1;stroke-width:1;stroke-miterlimit:4;stroke-dasharray:none"
         id="path896" />
      <path
         d="m 104.04619,190.25442 c -0.0741,0.4445 -0.29634,0.52916 -1.49225,0.52916 -0.67733,0 -1.06891,-0.0635 -1.26999,-0.21166 -0.17992,-0.13759 -0.23284,-0.30692 -0.23284,-0.81492 h 4.88949 c 0.0106,-0.21166 0.0106,-0.4445 0.0106,-0.50799 0,-1.13242 -0.16933,-1.69333 -0.61383,-2.06375 -0.45508,-0.37041 -1.04775,-0.47625 -2.74107,-0.47625 -1.62983,0 -2.25425,0.10584 -2.741079,0.4445 -0.529165,0.37042 -0.677332,0.86783 -0.677332,2.21191 0,1.28058 0.148167,1.778 0.634998,2.14841 0.455083,0.33867 1.142993,0.46567 2.592913,0.46567 2.67757,0 3.36549,-0.33867 3.50307,-1.72508 z m -2.99508,-1.524 c 0.0212,-0.69849 0.3175,-0.85724 1.57692,-0.85724 0.74083,0 1.12182,0.0741 1.29116,0.254 0.11641,0.11641 0.13758,0.21166 0.14816,0.60324 z"
         style="fill:#656565;fill-opacity:1;stroke-width:1;stroke-miterlimit:4;stroke-dasharray:none"
         id="path898" />
      <path
         d="m 106.49092,190.25442 c 0.0106,0.58208 0.13758,0.93133 0.44449,1.20649 0.4445,0.41275 1.06892,0.51859 2.88925,0.51859 2.89982,0 3.57715,-0.32809 3.57715,-1.75683 0,-1.12183 -0.55033,-1.54516 -2.00024,-1.55575 -1.92616,-0.0106 -2.25425,-0.0212 -2.56116,-0.0423 -0.29633,-0.0212 -0.4445,-0.127 -0.4445,-0.32808 0,-0.3175 0.35983,-0.41275 1.53458,-0.41275 0.635,0 1.016,0.0423 1.17474,0.14817 0.0635,0.0423 0.0847,0.0741 0.127,0.23283 h 1.905 c -0.0423,-0.60325 -0.13758,-0.86783 -0.40217,-1.0795 -0.42333,-0.35983 -1.04774,-0.46566 -2.75166,-0.46566 -1.31232,0 -2.19074,0.0741 -2.5929,0.23283 -0.59267,0.22225 -0.86783,0.68791 -0.86783,1.46049 0,1.06892 0.59266,1.51342 2.01082,1.53458 1.8415,0 2.30716,0.0106 2.56116,0.0318 0.27517,0.0317 0.43392,0.16934 0.43392,0.37042 0,0.35983 -0.34925,0.46566 -1.56633,0.46566 -1.17475,0 -1.53458,-0.127 -1.56633,-0.56091 z"
         style="fill:#656565;fill-opacity:1;stroke-width:1;stroke-miterlimit:4;stroke-dasharray:none"
         id="path900" />
    </g>
    <g
       aria-label="PET"
       id="text20"
       style="font-style:normal;font-variant:normal;font-weight:normal;font-stretch:normal;font-size:31.0205px;line-height:1.25;font-family:'Microgramma D Extended';-inkscape-font-specification:'Microgramma D Extended, Normal';font-variant-ligatures:normal;font-variant-caps:normal;font-variant-numeric:normal;font-variant-east-asian:normal;fill:#656565;fill-opacity:1;stroke-width:0.36352"
       transform="matrix(0.75876221,0,0,0.71908477,22.938573,48.395345)">
      <path
         d="m 33.354391,182.3119 h 6.297161 v -5.05634 H 47.5928 c 4.466952,0 5.862875,-0.12408 7.258797,-0.58939 2.48164,-0.89959 3.319194,-2.69878 3.319194,-7.28981 0,-5.30451 -1.116738,-6.97962 -5.025321,-7.56901 -1.147759,-0.1551 -1.706128,-0.18612 -5.614711,-0.18612 H 33.354391 Z m 6.297161,-10.23676 v -5.27349 h 7.879207 c 2.760825,0.031 2.822866,0.031 3.257153,0.18613 0.806533,0.27918 1.085717,0.89959 1.085717,2.38858 0,1.42694 -0.186123,1.98531 -0.775512,2.35755 -0.527349,0.31021 -0.651431,0.31021 -3.567358,0.34123 z"
         style="font-style:normal;font-variant:normal;font-weight:normal;font-stretch:normal;font-size:31.0205px;font-family:'Microgramma D Extended';-inkscape-font-specification:'Microgramma D Extended, Normal';font-variant-ligatures:normal;font-variant-caps:normal;font-variant-numeric:normal;font-variant-east-asian:normal;fill:#656565;fill-opacity:1;stroke-width:0.36352"
         id="path903" />
      <path
         d="m 60.249124,161.62123 v 20.69067 h 23.017211 v -4.96328 H 66.453224 v -3.28817 H 82.3047 v -4.56001 H 66.453224 v -3.00899 h 16.689029 v -4.87022 z"
         style="font-style:normal;font-variant:normal;font-weight:normal;font-stretch:normal;font-size:31.0205px;font-family:'Microgramma D Extended';-inkscape-font-specification:'Microgramma D Extended, Normal';font-variant-ligatures:normal;font-variant-caps:normal;font-variant-numeric:normal;font-variant-east-asian:normal;fill:#656565;fill-opacity:1;stroke-width:0.36352"
         id="path905" />
      <path
         d="m 83.793674,161.62123 v 5.27349 h 9.213089 v 15.41718 h 6.607367 v -15.41718 h 9.21309 v -5.27349 z"
         style="font-style:normal;font-variant:normal;font-weight:normal;font-stretch:normal;font-size:31.0205px;font-family:'Microgramma D Extended';-inkscape-font-specification:'Microgramma D Extended, Normal';font-variant-ligatures:normal;font-variant-caps:normal;font-variant-numeric:normal;font-variant-east-asian:normal;fill:#656565;fill-opacity:1;stroke-width:0.36352"
         id="path907" />
    </g>
  </g>
</svg>
