<svg xmlns="http://www.w3.org/2000/svg" version="1.0" width="745.188" height="225.188" viewBox="0 0 7451.875 2251.875">
    <path d="M12 808c-17-17-17-379 0-396 7-7 25-12 40-12 24 0 28-4 28-29 0-16 6-34 13-40 19-15 775-15 794 0 7 6 13 24 13 40 0 26 4 29 30 29s30-4 30-28c0-48 12-52 170-52s170 4 170 52c0 24 4 28 30 28s30-4 30-28c0-15 5-33 12-40 17-17 379-17 396 0 7 7 12 40 12 79v68l118 3c64 2 132 1 150-1l32-3v-67c0-39 5-72 12-79 8-8 58-12 160-12h148v-68c0-75 9-92 52-92 24 0 28-4 28-28 0-36 16-52 52-52 24 0 28-4 28-28 0-42 17-52 90-52s90 10 90 52c0 24 4 28 28 28 36 0 52 16 52 52 0 24 4 28 28 28 42 0 52 17 52 90s-10 90-52 90c-24 0-28 4-28 28 0 36-16 52-52 52-24 0-28 4-28 28 0 42-17 52-90 52s-90-10-90-52c0-24-4-28-30-28h-30v188c0 133-4 192-12 200-17 17-459 17-476 0-7-7-12-40-12-80v-68h-220v28c0 36-16 52-52 52-24 0-28 4-28 29 0 16-6 33-13 40-19 15-1175 15-1194 0-17-15-18-140-1-157 7-7 25-12 40-12h28V500h-60v68c0 40-5 73-12 80-8 8-49 12-120 12H260v68c0 40-5 73-12 80-16 16-220 16-236 0zm868-238v-70h-60v140h60zm400 0v-70h-140v140h140z" transform="matrix(2.5 0 0 2.5 101.875 100)" style="fill:#000;stroke:none"/>
    <path d="M2610 410v-40h-80v-80h-80v-80h80v-80h80V50h80v80h80v80h80v80h-80v80h-80v80h-80z" transform="matrix(2.5 0 0 2.5 101.875 100)" style="fill:#00e756;stroke:none"/>
    <path d="M2610 370v-80h-160v-80h80v-80h80V50h80v80h80v80h80v80h-80v80h-80v80h-80z" transform="matrix(2.5 0 0 2.5 101.875 100)" style="fill:#ff004d;stroke:none"/>
    <path d="M2610 370v-80h-160v-80h80v-80h240v80h80v80h-80v80h-80v80h-80z" transform="matrix(2.5 0 0 2.5 101.875 100)" style="fill:#83769c;stroke:none"/>
    <path d="M2610 370v-80h-160v-80h80v-80h240v80h80v80h-160v160h-80z" transform="matrix(2.5 0 0 2.5 101.875 100)" style="fill:#ffa300;stroke:none"/>
    <path d="M2610 370v-80h-160v-80h160v-80h160v80h80v80h-160v160h-80z" transform="matrix(2.5 0 0 2.5 101.875 100)" style="fill:#29adff;stroke:none"/>
    <path d="M2610 330v-40h-160v-80h160v-80h160v80h80v80h-160v80h-80z" transform="matrix(2.5 0 0 2.5 101.875 100)" style="fill:#ff77a8;stroke:none"/>
    <path d="M2610 330v-40h-160v-80h160v-80h160v160h-80v80h-80z" transform="matrix(2.5 0 0 2.5 101.875 100)" style="fill:#ffff27;stroke:none"/>
    <path d="M2610 330v-40h-80v-80h80v-80h160v160h-80v80h-80z" transform="matrix(2.5 0 0 2.5 101.875 100)" style="fill:#fca;stroke:none"/>
    <g style="fill:#fff1e8;stroke:none">
        <path d="M226.875 1625v-400h200v-200h800v600h-600v400h-400Zm600-300v-100h-200v200h200zM1426.875 1925v-100h200v-600h-200v-200h800v200h-200v600h200v200h-800ZM2426.875 1625v-400h200v-200h600v200h-400v600h400v200h-800ZM3426.875 1625v-400h200v-200h800v800h-200v200h-800zm600-100v-300h-200v600h200zM5226.875 1725v-300h200v-400h800v1000h-1000zm800 0v-100h-400v200h400zm0-400v-100h-400v200h400zM4626.875 1525v-100h400v200h-400zM6626.875 925V825h-200V625h200V425h200v200h200v200h-200v200h-200z"/>
    </g>
</svg>
