<?xml version="1.0" encoding="UTF-8" standalone="no"?>
<!-- Created by ERK -->

<svg
   width="1015.7354mm"
   height="325.86084mm"
   viewBox="0 0 1015.7354 325.86084"
   version="1.1"
   id="svg1"
   inkscape:version="1.4 (86a8ad7, 2024-10-11)"
   sodipodi:docname="pico.svg"
   xmlns:inkscape="http://www.inkscape.org/namespaces/inkscape"
   xmlns:sodipodi="http://sodipodi.sourceforge.net/DTD/sodipodi-0.dtd"
   xmlns="http://www.w3.org/2000/svg"
   xmlns:svg="http://www.w3.org/2000/svg">
  <sodipodi:namedview
     id="namedview1"
     pagecolor="#ffffff"
     bordercolor="#000000"
     borderopacity="0.25"
     inkscape:showpageshadow="2"
     inkscape:pageopacity="0.0"
     inkscape:pagecheckerboard="true"
     inkscape:deskcolor="#d1d1d1"
     inkscape:document-units="mm"
     inkscape:zoom="0.58236861"
     inkscape:cx="1924.8977"
     inkscape:cy="656.80052"
     inkscape:window-width="3840"
     inkscape:window-height="2066"
     inkscape:window-x="-11"
     inkscape:window-y="-11"
     inkscape:window-maximized="1"
     inkscape:current-layer="g40" />
  <defs
     id="defs1" />
  <g
     id="g40"
     transform="scale(0.26458333)"
     inkscape:label="Logo">
    <g
       id="g16"
       inkscape:label="Background">
      <polygon
         class="st0"
         points="786.7,350.5 1354,437.3 2319,451.7 3033,285.2 3826.9,457 3553.1,1197.8 2421.1,1197.8 1610.4,1143.2 897,1222.5 195.3,1102.9 11.2,451.5 480,328.6 "
         id="polygon15"
         style="display:inline;fill:#473d7f"
         inkscape:label="LogoBackground" />
      <path
         class="st1"
         d="m 3033.1,294.4 781.7,169.2 -268,725.1 H 2421.4 l -809.6,-54.5 -1.6,-0.1 -1.6,0.2 -711.4,79 L 202.4,1095 22.4,457.9 480.8,337.7 l 304.8,21.7 566.4,86.7 1.2,0.2 h 1.2 l 963.2,14.4 h 2.2 l 2.2,-0.5 711.1,-165.8 M 3033,275.9 2318,442.6 1354.8,428.2 787.7,341.4 479.1,319.4 0,445.1 l 188.1,665.8 708.6,120.7 713.9,-79.3 810.2,54.5 H 3559.4 L 3839,450.4 Z"
         id="path16"
         style="display:inline;fill:#028693"
         inkscape:label="LogoOutline" />
    </g>
    <g
       id="g11"
       inkscape:label="Sega">
      <path
         class="st4"
         d="M 2342.8,62.1 C 2331.4,25.9 2297.2,0 2257.9,0 2218.6,0 2184.4,25.9 2173,62.1 l -30,89 V 5.2 h -157.3 c -28,0 -53.8,11.4 -73.5,30 v -30 h -161.4 c -30,0 -56.9,12.4 -76.6,33.1 V 5.2 H 1521 c -65.2,0 -119,53.8 -119,119 0,31.1 12.4,60 32.1,80.7 H 1402 v 138.7 h 153.2 c 43.5,0 80.7,-22.8 102.5,-58 17.6,34.2 52.8,58 94.2,58 h 162.5 v -30 c 18.6,18.6 44.5,30 73.5,30 H 2437 Z"
         id="path1"
         style="display:none;fill:#ffffff"
         inkscape:label="SegaOutline" />
      <path
         id="path9"
         style="fill:#174991"
         class="st7"
         d="m 1860.5,129.4 h -100.4 c 0,-5.2 4.2,-9.3 9.3,-9.3 h 119 V 78.7 h -137.6 c -17.6,0 -31.1,13.5 -31.1,31.1 v 60 h 140.7 c 0.1,-0.1 0.1,-40.4 0.1,-40.4 z m -100.4,91 h 100.4 V 180 h -140.7 v 60 c 0,17.6 13.5,31.1 31.1,31.1 h 138.7 v -40.4 h -120 c -5.3,-1 -9.5,-5.1 -9.5,-10.3 z m -9.3,59 c -22.8,0 -40.4,-18.6 -40.4,-40.4 V 109.7 c 0,-22.8 18.6,-40.4 40.4,-40.4 h 138.7 V 29 h -138.7 c -44.5,0 -80.7,36.2 -80.7,80.7 V 239 c 0,44.5 36.2,80.7 80.7,80.7 h 138.7 V 279.3 Z M 2320,71.4 c -8.3,-26.9 -33.1,-47.6 -63.1,-47.6 -30,0 -54.9,19.7 -62.1,46.6 l -75.5,221.4 V 129.4 h -113.8 v 40.4 h 74.5 v 109.7 h -93.2 c -22.8,0 -40.4,-18.6 -40.4,-40.4 V 109.7 c 0,-22.8 18.6,-40.4 40.4,-40.4 h 133.5 V 29 h -134.5 c -44.5,0 -80.7,36.2 -80.7,80.7 V 239 c 0,44.5 36.2,80.7 80.7,80.7 h 166.6 l 83.8,-243.2 c 3.1,-9.3 11.4,-15.5 21.7,-15.5 10.3,0 18.6,6.2 21.7,15.5 l 68.3,202.8 h -107.6 v 40.4 h 163.5 v 0 z m -79.7,198.7 h 94.2 L 2270.3,79.7 c -2.1,-5.2 -6.2,-9.3 -12.4,-9.3 -5.2,0 -10.4,4.2 -12.4,8.3 l -82.8,241.1 h 47.6 l 29,-85.9 v 36.2 z m 16.6,-86.9 13.5,41.4 h -28 z M 1985.7,78.7 c -17.6,0 -31.1,13.5 -31.1,31.1 v 129.4 c 0,17.6 13.5,31.1 31.1,31.1 h 83.8 V 179 h -64.2 v 40.4 h 23.8 v 9.3 h -23.8 c -5.2,0 -9.3,-4.2 -9.3,-9.3 v -91.1 c 0,-5.2 4.2,-9.3 9.3,-9.3 h 114.9 V 78.7 Z m -464.6,41.4 h 129.4 V 78.7 h -129.4 c -24.8,0 -45.5,20.7 -45.5,45.5 0,24.8 20.7,45.5 45.5,45.5 h 33.1 c 30,0 54.9,24.8 54.9,54.9 0,30.1 -24.8,54.9 -54.9,54.9 h -128.3 v 40.4 h 129.4 c 52.8,0 95.2,-42.4 95.2,-95.2 0,-52.8 -42.4,-95.2 -95.2,-95.2 h -33.1 c -3.1,0 -5.2,-2.1 -5.2,-5.2 -0.1,-2.2 2,-4.2 4.1,-4.2 z m 34.1,109.6 h -129.4 v 40.4 h 129.4 c 24.8,0 45.5,-20.7 45.5,-45.5 0,-24.8 -20.7,-45.5 -45.5,-45.5 h -33.1 c -30,0 -54.9,-24.8 -54.9,-54.9 0,-30.1 24.9,-54.8 54.9,-54.8 h 128.3 V 29 h -129.3 c -52.8,0 -95.2,42.4 -95.2,95.2 0,52.8 42.4,95.2 95.2,95.2 h 33.1 c 3.1,0 5.2,2.1 5.2,5.2 0,3.1 -2.1,5.1 -4.2,5.1 z"
         inkscape:label="Sega" />
    </g>
    <g
       id="g39"
       inkscape:label="Pic">
      <path
         class="st5"
         d="m 3102.7,575.8 c -225.9,0 -343.8,116.2 -343.8,210.5 v 19.3 c 0,58.8 74.3,174.3 359.9,174.3 216.1,0 312.5,-106.7 312.5,-185.1 V 719 c 0,-76.3 -94.5,-143.2 -328.6,-143.2 z m 258.4,205.9 c 0,65.1 -52.7,117.8 -117.8,117.8 h -283.4 c -65.1,0 -117.8,-52.7 -117.8,-117.8 V 729 c 0,-65.1 52.7,-117.8 117.8,-117.8 h 283.4 c 65.1,0 117.8,52.7 117.8,117.8 z"
         id="path18"
         style="display:inline;fill:#d42027"
         inkscape:label="SunShadow" />
      <g
         id="g32"
         style="display:inline"
         inkscape:label="Sun">
        <path
           class="st2"
           d="m 2873.3,398.2 c -33.2,23.1 43.3,133 87.9,112.1 22.6,-10.6 -55.9,-134.4 -87.9,-112.1 z"
           id="path19"
           style="fill:#e3c820"
           inkscape:label="Ray1" />
        <path
           class="st2"
           d="m 3248.2,397.2 c -37.9,-12.6 -121.8,96.5 -91.2,115.9 37.4,23.6 140.7,-99.4 91.2,-115.9 z"
           id="path20"
           style="fill:#e3c820"
           inkscape:label="Ray2" />
        <path
           class="st2"
           d="m 3511.1,500.1 c -10.3,-11.3 -161.4,49.7 -132.3,85.5 26.6,32.7 157,-58.6 132.3,-85.5 z"
           id="path21"
           style="fill:#e3c820"
           inkscape:label="Ray3" />
        <path
           class="st2"
           d="m 3601.6,771.8 c 11.2,-37.7 -156.9,-52.9 -164,-13.7 -5.7,32.1 153.2,50.2 164,13.7 z"
           id="path22"
           style="fill:#e3c820"
           inkscape:label="Ray4" />
        <path
           class="st2"
           d="m 3503.2,995.9 c 25.3,-28.4 -109,-114 -131.3,-82.5 -18.3,25.9 106.8,110 131.3,82.5 z"
           id="path23"
           style="fill:#e3c820"
           inkscape:label="Ray5" />
        <path
           class="st2"
           d="m 3199.1,984.4 c 47.4,-19.9 97,120.9 55.1,133.2 -38,11.1 -89.9,-118.5 -55.1,-133.2 z"
           id="path27"
           style="display:inline;fill:#e3c820"
           inkscape:label="Ray6" />
        <path
           class="st2"
           d="m 3021.1,990.5 c 33.4,15.8 -34.7,141.9 -64.8,127.5 -32.7,-15.7 33.3,-142.4 64.8,-127.5 z"
           id="path26"
           style="display:inline;fill:#e3c820"
           inkscape:label="Ray7" />
        <path
           class="st2"
           d="m 2833.1,933.5 c 22.6,37 -97.5,125.2 -125.6,87 -19.9,-27.2 109.5,-113.6 125.6,-87 z"
           id="path25"
           style="display:inline;fill:#e3c820"
           inkscape:label="Ray8" />
        <path
           class="st2"
           d="m 2566.6,817.5 c 5.5,-31.1 155.1,-45.8 159.5,-1.8 2.6,25.8 -164.4,29.6 -159.5,1.8 z"
           id="path28"
           style="fill:#e3c820"
           inkscape:label="Ray9" />
        <path
           class="st2"
           d="m 2609.6,557.8 c 25.2,-28.7 151.7,38 136.3,83.2 -12.6,37 -163.2,-52.4 -136.3,-83.2 z"
           id="path24"
           style="display:inline;fill:#e3c820"
           inkscape:label="Ray10" />
        <path
           class="st2"
           d="m 3096.9,642.4 c -0.7,0.9 -64,23.1 -54.6,39.2 5.5,9.4 14.4,4.2 21.6,-1.1 27.2,-19.8 41.1,7.7 23.6,17.8 -36.9,21.3 -80.9,2.2 -80.4,-22.2 0.5,-24.6 29.4,-43.1 29.4,-43.1"
           id="path29"
           style="fill:#e3c820"
           inkscape:label="Eye1" />
        <path
           class="st2"
           d="m 3228.8,664.6 c -0.7,0.9 -80.5,4.7 -69,27.2 4.9,9.7 12.4,0.5 20.9,-2 14.4,-4.1 27.5,21.1 7.6,24.1 -23.5,3.5 -68.4,-2.9 -68.4,-30.2 0,-24.6 29.4,-43.1 29.4,-43.1"
           id="path30"
           style="fill:#e3c820"
           inkscape:label="Eye2" />
        <path
           class="st6"
           d="m 2979.4,770.9 c 0,0 55,30.2 102,30.2 47,0 60.9,0 60.9,0 15,0 45.1,-0.7 61.4,-5.4"
           id="path31"
           style="fill:none;stroke:#e3c820;stroke-width:31.4162;stroke-linecap:round;stroke-miterlimit:10"
           inkscape:label="Mouth" />
        <path
           class="st2"
           d="m 3300.8,728.9 c -17.1,23.8 -24.9,67 -45.9,85 -48.5,41.6 -97,48.5 -163.4,48.5 -119.2,0 -166.1,-29.3 -200.2,-77.7 -16,-22.8 -2.5,-47.2 10.3,-65.2 18.3,-25.8 44.9,-74.5 178.7,-74.5 109.5,0 158.7,32.9 177.5,46.3 16.5,11.8 25.7,17.8 36.3,20.1 8,1.7 11.4,10.9 6.7,17.5 z M 3080.2,553.3 c -225.9,0 -343.8,116.2 -343.8,210.5 v 19.3 c 0,58.8 74.3,174.3 359.9,174.3 216.1,0 312.5,-106.7 312.5,-185.1 v -75.7 c 0,-76.5 -94.6,-143.3 -328.6,-143.3 z"
           id="path32"
           style="display:inline;fill:#e3c820"
           inkscape:label="Sun" />
      </g>
      <path
         class="st4"
         d="m 1397.6,447.8 c 17.4,-12.9 14,-26.9 14,-36.7 0,-6.1 -5.3,-50.3 -74.5,-52.6 -2.1,-0.1 -4.2,-0.1 -6.2,-0.1 -84.3,-1.5 -85.8,37.9 -85.8,52.5 0,7.9 4.5,22.4 30.9,36.3 19.4,10.2 46.6,32.4 53.7,52.8 0.9,2.6 3.4,4.4 6.2,4.7 4.4,0.5 10.8,1 15.8,0.5 2.9,-0.3 5.4,-2.2 6.5,-4.9 10.8,-26.7 24.7,-41.5 39.4,-52.5 z"
         id="path17"
         style="display:inline;fill:#ffffff"
         inkscape:label="LightBulbFill" />
      <g
         id="g1"
         inkscape:label="Pic_Shadow">
        <path
           class="st5"
           d="m 647.9,490 c -279.8,-17 -263.4,86.6 -262.8,116 0,0 -71.7,-9.8 -71.7,24.2 0,53 50.3,83.6 54.9,153.2 2.4,36.7 26.4,208.6 156.7,224.5 60.6,7.4 120.2,-10 118.2,-81.5 -0.9,-32.4 -32,-67 -36,-89 -0.7,-3.6 2.2,-6.9 5.9,-6.9 C 860.2,830.6 921.7,740 929.3,671.4 936.8,603.3 894.5,505 647.9,490 Z m 78.4,243.4 H 498.5 V 545.2 h 227.8 z"
           id="path33"
           style="fill:#d42027"
           inkscape:label="P_Shadow" />
        <path
           class="st5"
           d="m 1450.8,894.8 c 12.1,-78.8 29.2,-168.9 -87.3,-168.9 -78.8,0 -121.1,31.6 -134.1,87.5 -5.4,23.5 5.3,72.7 0.9,93.3 -6.5,30 -20.8,92.2 8.3,132.3 33.3,45.9 178.4,70.5 212.3,-44 10,-33.2 -6.5,-58.5 -0.1,-100.2 z"
           id="path34"
           style="fill:#d42027"
           inkscape:label="i_Shadow" />
        <path
           class="st5"
           d="m 1779.5,810.1 c -0.1,-8.1 3.2,-15.9 9.1,-21.5 80.7,-76.3 238.4,-165 425.8,-165 58.8,0 130.4,40.6 130.4,60.8 0,39.7 -58.7,34.9 -127.4,50.2 -100,22.4 -221.6,54.8 -221.6,117.8 0,32.4 4.2,78.7 95,78.7 111.6,0 156.1,-66 274.9,-70.2 36.9,-1.3 81,12.4 81,48.3 0,33.6 -120.4,120.1 -261.5,120.1 h -151.5 c -75.1,0 -253,-58.7 -253,-157.3 z"
           id="path35"
           style="fill:#d42027"
           inkscape:label="c_Shadow" />
      </g>
      <g
         id="g2"
         inkscape:label="Pic">
        <path
           class="st2"
           d="m 625.3,467.4 c -279.8,-17 -263.4,86.6 -262.8,116 0,0 -71.7,-9.8 -71.7,24.2 0,53 50.3,83.6 54.9,153.2 2.4,36.7 26.4,208.6 156.7,224.5 60.6,7.4 120.2,-10 118.2,-81.5 -0.9,-32.4 -32,-67 -36,-89 -0.7,-3.6 2.2,-6.9 5.9,-6.9 247.1,0.1 308.6,-90.5 316.2,-159.1 7.6,-68 -34.8,-166.4 -281.4,-181.4 z M 700,629.3 c -26.7,49.7 -107.5,60.3 -140.7,62.6 -8.6,0.6 -16.5,-4.5 -19.6,-12.5 l -23.6,-60.9 c -2.7,-7 0.6,-14.8 7.5,-17.7 40.3,-17.3 66,-29.5 101.4,-22.2 19.1,3.9 87.3,27.8 75,50.7 z"
           id="path36"
           style="fill:#e3c820"
           inkscape:label="P" />
        <path
           class="st2"
           d="m 1428.3,872.2 c 12.1,-78.8 29.2,-168.9 -87.3,-168.9 -78.8,0 -121.1,31.6 -134.1,87.5 -5.4,23.5 5.3,72.7 0.9,93.3 -6.5,30 -20.8,92.2 8.3,132.3 33.3,45.9 178.4,70.5 212.3,-44 9.9,-33.1 -6.6,-58.5 -0.1,-100.2 z"
           id="path37"
           style="fill:#e3c820"
           inkscape:label="i" />
        <path
           class="st2"
           d="m 1756.9,787.6 c -0.1,-8.1 3.2,-15.9 9.1,-21.5 80.7,-76.3 238.4,-165 425.8,-165 58.8,0 130.4,40.6 130.4,60.8 0,39.7 -58.7,34.9 -127.4,50.2 -100,22.4 -221.6,54.8 -221.6,117.8 0,32.4 4.2,78.7 95,78.7 111.6,0 156.1,-66 274.9,-70.2 36.9,-1.3 81,12.4 81,48.3 0,33.6 -120.4,120.1 -261.5,120.1 h -151.5 c -75.1,0 -253,-58.7 -253,-157.3 z"
           id="path38"
           style="fill:#e3c820"
           inkscape:label="c" />
        <ellipse
           class="st2"
           cx="1340.2"
           cy="648.79999"
           rx="17.200001"
           ry="15.7"
           id="ellipse38"
           style="fill:#e3c820"
           inkscape:label="Bulb1" />
        <path
           class="st2"
           d="m 1338.7,311.5 c -119.5,-4 -140.7,84.2 -140.7,109 0,62.7 81.5,67.3 84.9,92.4 1.9,13.8 3.5,44.3 43.4,51.4 3.6,0.6 4.1,5.7 0.6,6.9 -16.1,5.7 -37.4,15.6 -37.4,28.2 0,20.2 24.8,28.1 64.6,28.1 0,0 36.2,2.3 36.2,-9.8 0,-7 -15.2,-12.3 -28.1,-15.6 -3.7,-0.9 -3.6,-6.1 0.1,-7 15.3,-3.5 34.8,-10 34.8,-20.2 0,-9.8 -16.6,-16 -30.2,-19.4 -3.7,-0.9 -3.6,-6.2 0.2,-7 l 12.9,-2.6 c 5.6,-1.1 9.7,-5.9 10.5,-11.6 7.2,-55.7 76.8,-45.2 76.8,-122.3 0,-24.8 -28.1,-97.1 -128.6,-100.5 z m 58.9,136.3 c -14.7,11 -28.7,25.8 -39.4,52.6 -1.1,2.7 -3.6,4.6 -6.5,4.9 -5,0.4 -11.5,-0.1 -15.8,-0.5 -2.8,-0.3 -5.3,-2 -6.2,-4.7 -7.1,-20.4 -34.3,-42.6 -53.7,-52.8 -26.4,-13.9 -30.9,-28.5 -30.9,-36.3 0,-14.6 1.5,-53.9 85.8,-52.5 2,0 4.1,0 6.2,0.1 69.1,2.3 74.5,46.5 74.5,52.6 0,9.8 3.4,23.7 -14,36.6 z"
           id="path39"
           style="fill:#e3c820"
           inkscape:label="Bulb2" />
        <path
           class="st2"
           d="m 1130.9,354.1 c -9.6,17.4 35.5,51.2 47.3,29.9 12.8,-23.2 -41.8,-39.9 -47.3,-29.9 z"
           id="path13"
           style="fill:#e3c820"
           inkscape:label="BulbRay1" />
        <path
           class="st2"
           d="m 1297.7,238 c -21.3,-1.2 -20.7,56.1 1.3,53.4 23.9,-3.1 15.9,-52.4 -1.3,-53.4 z"
           id="path11"
           style="fill:#e3c820"
           inkscape:label="BulbRay2" />
        <path
           class="st2"
           d="m 1175.1,274.7 c -10.5,11.5 39.8,58 50.9,41.3 12.1,-18.3 -40.4,-52.7 -50.9,-41.3 z"
           id="path12"
           style="fill:#e3c820"
           inkscape:label="BulbRay3" />
        <path
           class="st2"
           d="m 1428.9,248.5 c -19.9,-15.2 -57.3,41.3 -34.1,53 25.3,12.9 50.1,-40.7 34.1,-53 z"
           id="path14"
           style="fill:#e3c820"
           inkscape:label="BulbRay4" />
        <path
           class="st2"
           d="m 1527.2,319.8 c -6.6,-21.2 -73,5.3 -61.4,25.4 12.6,21.9 66.7,-8.3 61.4,-25.4 z"
           id="path15"
           style="fill:#e3c820"
           inkscape:label="BulbRay5" />
      </g>
    </g>
  </g>
</svg>
