<!DOCTYPE svg PUBLIC "-//W3C//DTD SVG 20010904//EN" "http://www.w3.org/TR/2001/REC-SVG-20010904/DTD/svg10.dtd">
<svg version="1.0" xmlns="http://www.w3.org/2000/svg" width="290px" height="82px" viewBox="0 0 2900 820" preserveAspectRatio="xMidYMid meet">
<g id="layer101" fill="#000000" stroke="none">
<path d="M12 808 c-17 -17 -17 -379 0 -396 7 -7 25 -12 40 -12 24 0 28 -4 28 -29 0 -16 6 -34 13 -40 19 -15 775 -15 794 0 7 6 13 24 13 40 0 26 4 29 30 29 26 0 30 -4 30 -28 0 -48 12 -52 170 -52 158 0 170 4 170 52 0 24 4 28 30 28 26 0 30 -4 30 -28 0 -15 5 -33 12 -40 17 -17 379 -17 396 0 7 7 12 40 12 79 l0 68 118 3 c64 2 132 1 150 -1 l32 -3 0 -67 c0 -39 5 -72 12 -79 8 -8 58 -12 160 -12 l148 0 0 -68 c0 -75 9 -92 52 -92 24 0 28 -4 28 -28 0 -36 16 -52 52 -52 24 0 28 -4 28 -28 0 -42 17 -52 90 -52 73 0 90 10 90 52 0 24 4 28 28 28 36 0 52 16 52 52 0 24 4 28 28 28 42 0 52 17 52 90 0 73 -10 90 -52 90 -24 0 -28 4 -28 28 0 36 -16 52 -52 52 -24 0 -28 4 -28 28 0 42 -17 52 -90 52 -73 0 -90 -10 -90 -52 0 -24 -4 -28 -30 -28 l-30 0 0 188 c0 133 -4 192 -12 200 -17 17 -459 17 -476 0 -7 -7 -12 -40 -12 -80 l0 -68 -110 0 -110 0 0 28 c0 36 -16 52 -52 52 -24 0 -28 4 -28 29 0 16 -6 33 -13 40 -19 15 -1175 15 -1194 0 -17 -15 -18 -140 -1 -157 7 -7 25 -12 40 -12 l28 0 0 -70 0 -70 -30 0 -30 0 0 68 c0 40 -5 73 -12 80 -8 8 -49 12 -120 12 l-108 0 0 68 c0 40 -5 73 -12 80 -16 16 -220 16 -236 0z m868 -238 l0 -70 -30 0 -30 0 0 70 0 70 30 0 30 0 0 -70z m400 0 l0 -70 -70 0 -70 0 0 70 0 70 70 0 70 0 0 -70z"/>
</g>
<g id="layer102" fill="#00e756" stroke="none">
<path d="M2610 410 l0 -40 -40 0 -40 0 0 -40 0 -40 -40 0 -40 0 0 -40 0 -40 40 0 40 0 0 -40 0 -40 40 0 40 0 0 -40 0 -40 40 0 40 0 0 40 0 40 40 0 40 0 0 40 0 40 40 0 40 0 0 40 0 40 -40 0 -40 0 0 40 0 40 -40 0 -40 0 0 40 0 40 -40 0 -40 0 0 -40z"/>
</g>
<g id="layer103" fill="#ff004d" stroke="none">
<path d="M2610 370 l0 -80 -80 0 -80 0 0 -40 0 -40 40 0 40 0 0 -40 0 -40 40 0 40 0 0 -40 0 -40 40 0 40 0 0 40 0 40 40 0 40 0 0 40 0 40 40 0 40 0 0 40 0 40 -40 0 -40 0 0 40 0 40 -40 0 -40 0 0 40 0 40 -40 0 -40 0 0 -80z"/>
</g>
<g id="layer104" fill="#83769c" stroke="none">
<path d="M2610 370 l0 -80 -80 0 -80 0 0 -40 0 -40 40 0 40 0 0 -40 0 -40 120 0 120 0 0 40 0 40 40 0 40 0 0 40 0 40 -40 0 -40 0 0 40 0 40 -40 0 -40 0 0 40 0 40 -40 0 -40 0 0 -80z"/>
</g>
<g id="layer105" fill="#ffa300" stroke="none">
<path d="M2610 370 l0 -80 -80 0 -80 0 0 -40 0 -40 40 0 40 0 0 -40 0 -40 120 0 120 0 0 40 0 40 40 0 40 0 0 40 0 40 -80 0 -80 0 0 80 0 80 -40 0 -40 0 0 -80z"/>
</g>
<g id="layer106" fill="#29adff" stroke="none">
<path d="M2610 370 l0 -80 -80 0 -80 0 0 -40 0 -40 80 0 80 0 0 -40 0 -40 80 0 80 0 0 40 0 40 40 0 40 0 0 40 0 40 -80 0 -80 0 0 80 0 80 -40 0 -40 0 0 -80z"/>
</g>
<g id="layer107" fill="#ff77a8" stroke="none">
<path d="M2610 330 l0 -40 -80 0 -80 0 0 -40 0 -40 80 0 80 0 0 -40 0 -40 80 0 80 0 0 40 0 40 40 0 40 0 0 40 0 40 -80 0 -80 0 0 40 0 40 -40 0 -40 0 0 -40z"/>
</g>
<g id="layer108" fill="#ffff27" stroke="none">
<path d="M2610 330 l0 -40 -80 0 -80 0 0 -40 0 -40 80 0 80 0 0 -40 0 -40 80 0 80 0 0 80 0 80 -40 0 -40 0 0 40 0 40 -40 0 -40 0 0 -40z"/>
</g>
<g id="layer109" fill="#ffccaa" stroke="none">
<path d="M2610 330 l0 -40 -40 0 -40 0 0 -40 0 -40 40 0 40 0 0 -40 0 -40 80 0 80 0 0 80 0 80 -40 0 -40 0 0 40 0 40 -40 0 -40 0 0 -40z"/>
</g>
<g id="layer110" fill="#fff1e8" stroke="none">
<path d="M50 610 l0 -160 40 0 40 0 0 -40 0 -40 160 0 160 0 0 120 0 120 -120 0 -120 0 0 80 0 80 -80 0 -80 0 0 -160z m240 -120 l0 -40 -40 0 -40 0 0 40 0 40 40 0 40 0 0 -40z"/>
<path d="M530 730 l0 -40 40 0 40 0 0 -120 0 -120 -40 0 -40 0 0 -40 0 -40 160 0 160 0 0 40 0 40 -40 0 -40 0 0 120 0 120 40 0 40 0 0 40 0 40 -160 0 -160 0 0 -40z"/>
<path d="M930 610 l0 -160 40 0 40 0 0 -40 0 -40 120 0 120 0 0 40 0 40 -80 0 -80 0 0 120 0 120 80 0 80 0 0 40 0 40 -160 0 -160 0 0 -160z"/>
<path d="M1330 610 l0 -160 40 0 40 0 0 -40 0 -40 160 0 160 0 0 160 0 160 -40 0 -40 0 0 40 0 40 -160 0 -160 0 0 -160z m240 -40 l0 -120 -40 0 -40 0 0 120 0 120 40 0 40 0 0 -120z"/>
<path d="M2050 650 l0 -120 40 0 40 0 0 -80 0 -80 160 0 160 0 0 200 0 200 -200 0 -200 0 0 -120z m320 0 l0 -40 -80 0 -80 0 0 40 0 40 80 0 80 0 0 -40z m0 -160 l0 -40 -80 0 -80 0 0 40 0 40 80 0 80 0 0 -40z"/>
<path d="M1810 570 l0 -40 80 0 80 0 0 40 0 40 -80 0 -80 0 0 -40z"/>
<path d="M2610 330 l0 -40 -40 0 -40 0 0 -40 0 -40 40 0 40 0 0 -40 0 -40 40 0 40 0 0 40 0 40 40 0 40 0 0 40 0 40 -40 0 -40 0 0 40 0 40 -40 0 -40 0 0 -40z"/>
</g>


</svg>