<svg height="164.813" viewBox="0 0 600.257 115.369" width="857.509" xmlns="http://www.w3.org/2000/svg">
    <text fill="#ef00eb" font-family="TrasksHand" font-size="1.4" stroke="#0105ff" stroke-width="1.75" x="137.139" y="108.562" transform="translate(.172 -17.974)"><tspan fill="#fafafa" fill-opacity=".4" stroke="none" x="137.139" y="108.562">John Loreth 2022</tspan></text>
    <g style="stroke-width:.999479;fill:#3c3b3c;stroke:#c2020e;stroke-linecap:square;stroke-linejoin:round;stroke-opacity:.985214">
        <path d="m597.658 98.514-595.16.047" stroke-width="4.997"/>
        <path d="M1.705 92.627h596.88" stroke-width="2.998"/>
        <path d="M599.115 87.395H1.103" stroke-width="1.999"/>
        <path d="M599.507 80.222H.922" stroke-width="1.499"/>
        <path d="M597.658 2.548 2.498 2.502" stroke-width="4.997"/>
        <path d="M1.705 8.436h596.88" stroke-width="2.998"/>
        <path d="M599.115 13.667H1.103" stroke-width="1.999"/>
        <path d="M599.507 20.84H.922" stroke-width="1.499"/>
    </g>
    <path d="m401.742 74.235-.477.125.596.374c.119.5.238 1 .238 1.25s-.12.75-.476 1.374h.833v.5l.119.25-.238 1.249c0 .25.119.874.476 1.499h.953l.238.5h-.477l-.238.25.596.874v.25l.714.25.833-.25.476.374-.833.25c1.19 1 1.667 1.125 2.857 1.25l-.238.374 3.929.125.357-.75.357.126c.238 0 .476-.125.833-.375h1.31c.119-.875.238-1.124 1.071-1.124v.5c.476-.25.476-.25 1.548-1.125l1.428-1v-.624c.596 0 .834-.125 1.31-.625l2.381-2.124c1.905-1.624 3.214-2.748 3.571-3.248l5.715-6.246 3.69-3.123c1.429-1.25 1.667-1.874 1.667-3.123v-.75h-.476l-.715.875c-4.642 4.622-5.952 5.871-9.761 8.62-3.93 2.873-6.43 4.122-8.453 4.122-2.024 0-3.69-1.999-4.167-4.997l-.119-1 .238-4.372-.357-.624.12-.5h.476l-.12-.375.358-.5-.596-.125-.238-.5.238-.499.715.25-.238-.375.714-2.373h.595c.952 0 1.905-.375 3.333-1.375 2.024-1.374 2.739-1.749 4.643-2.123.238-.375.477-.5 1.19-.5l1.43-1 3.095-1.249 2.023-1.874 1.786-.624v-.875l.715.25c.595-.625.833-.75 1.666-1-.952-.5-.714-.749-.476-.999l1.548-.25.952-1.249.952-.5.238-.874c.596-.125.596-.125 1.072-1.124l.476-1-.119-.25c.12-.374.238-.374.595-.374l.477-1.125.595-1.374.476-1.374-.357-.5.476-.25-.238-1h.238l.119-.874c0-3.248-2.5-5.996-5.476-5.996-1.548 0-5.476 1.499-7.62 2.873l-2.856 1.999-3.453 2.499-2.024 1.873-.595.125c-3.214 2.999-3.333 2.999-4.524 3.748l-.833 1.124-3.453 3.623-1.547 2.124-1.905 2.499c-1.19 1.624-2.262 3.747-2.738 5.621h-.357c-.238.75-.357 1.25-.476 1.5l-.477.874.12 1-.477 1.124c-.833.75-1.547 2.998-1.547 4.247 0 .25 0 .625.238 1.25h-.238c-.12.624-.12.999-.477 1.499l.358.25c-.358 1.124-.477 1.623-.477 2.498v.874c.358.375.715.625.596 1.375zm12.976-17.74.357-.625.714-.124-.357-.875.12-.375h.475l.239-.125v-.5c-.715 0-1.072.126-1.548.375.357-.75.595-.874 1.667-.874.714-1.874 1.071-2.249 2.142-4.497.358-.25.596-.375.834-1h.714c.12-.375.238-.5.595-.625-.595 0-.714-.124-.952-.624l.357-.375.357.125.834-.874c.833-1.375 1.785-1.75 2.023-2.499.953-.5 1.072-.874 1.19-1.624l3.096-2.124-.238-.25-.238.25-.476-.25.833-.25c.476-.5.953-.75 1.31-.75 1.428 0 2.738 2 2.738 4.248 0 2.874-1.667 5.747-4.762 8.745-2.738 2.624-5.595 3.873-12.024 5.497zm-33.475 13.492.238-1.749-.476-1.25.833-2.872v-2.624l.952-1.624-.119-.874.715-1 .119-.624-.12-.75.596-.25.238-2.373.595-.125.714-.875-.119-.874.239-.125.357-1.25h.357c.119-.75.238-.999.833-1.374h.357V49l-.357-.124.714-1.5h.477l-.477-.874.953-.75 1.428-2.123 1.429-1.874.595-1 .238-.125.596.125c.833 2 1.071 3.373 1.071 6.122l-.12 2.373-.475 2.499c0 .375.357 1.124.833 1.874v.375h.476c.834-1 1.31-1.25 2.024-1.25l1.786-2.248 2.024-2.124 1.31-.75.594-1.249.715-.5.595-1.374h.952c.357-1.124.596-1.25 1.548-1.25v-.374h-.238l.119-.25.476-.375-1.19-.75 1.31-1.373-1.548-.125.952-.75.714-.125v-.624l-.952.374v-.874l.833-.125-.119-1.624h-.595l-.12-.625.477-.874-1.071-.25.238-.625v-.5c-.834-.749-1.072-.999-1.548-1.998l-.357-.25c-1.19-1.124-1.786-1.374-3.333-1.374-1.19 0-1.786.25-2.62 1.374l-.714.125-.476.874-1.548.75-1.666 1.749-4.405 3.623-1.31 1.499-2.976 2.623c-2.619 2.499-5.238 5.872-9.048 11.743-1.547 2.624-1.785 2.874-3.452 6.497l-.595 1.124-.834 3.123-1.071 4.248-.476 4.372-.12 1.75c0 1.748.239 2.997.358 3.497l.476.875.238 1.374.476 1.624 1.072 1 1.19.499.834 1 1.666.374c2.381 0 4.881-1.124 7.5-3.498l3.215-2.873 2.024-1.624 5.238-5.622 1.904-1.874 1.905-2.124 2.5-2.998.357-.874-.357-.125.834-.75-.358-.375-.952.875c-3.81 4.122-7.262 7.12-9.881 8.745-2.738 1.624-4.286 2.248-5.476 2.248-.476 0-.834-.124-1.31-.75-1.071-1.623-1.428-2.623-1.428-3.872zm-25.609-9.37.357-.749.834.25v-.625h-.476v-.374l-1.072-.125-.238-.5.714-.125.12-1 .952-.25.952.375-.238-.5c.952 0 1.071-.124.595-1.124l.357-.5-.714-.124-.357.5h-.238c.476-.875.952-1.5 1.428-1.5l.596.25.952-1.124.238-.875.12-.374-1.31.125c.119-1 .357-1.125 1.547-1.125l.596-1.249.476-1.25c-.357-.874-.12-.749 1.071-3.247l1.19-.625v-.5l-1.428.125v-.5h.595c1.072 0 1.31-.25 1.548-1.374h.357l.238-1.374.953-1.25.238-1.248h.238l.119-.375.238-.125.476-1 1.072-1.374.238-1.374 1.428-2.998c.238-.25.238-.625.238-.875 0-.374-.357-.75-.833-.75l-.833-.124-1.072.5-1.19.25-.834.374-1.19.75-1.071.624-1.43.875-1.666.874-1.666 1.624c-.834 1.624-1.905 1.874-2.5 2.874l-1.548 2.623-.833 1.874-1.429 2.374-.714 1.749-.953 1.124-6.19 12.618a26.87 26.87 0 0 0-2.381 6.246l-.357.375-.357 1.249c-.239 1-.358 1.25-1.19 1.999l.237 1.874-.476 1c-.357.374 0 .874.238 1.123-.833.125-.952.25-.952 1l-.12 1.624.12.125v1.374l.238.25c-.476.75 0 1.25.357 1.749.714 1.874 1.429 2.748 2.143 2.249v.374l1.428.5 1.19.625c.239-.25.477-.625.953-.25l-.238.624.833.25.477-1.374.476.25c.119-.625.238-.75 1.19-1.124.953-.25 2.143-1 3.453-2.124l3.452-2.873 5.238-4.248 2.381-2.623 4.762-4.373.834-1.624-.715-.125-2.857 2.499c-2.976 2.873-2.5 2.498-4.286 3.623l-5.357 3.622c-.476.375-1.428.625-1.905.625-.952 0-1.31-.5-1.547-2.374l.476-.124-.476-.875.714-.874-.357-.75.595-.25-.238-1.374.12-1.25.832.126.358-1-.596-.375.358-.5h.714l.595-1.748-.595.5-1.31.749-.357-.375.238-.25h.238l.12-.5h.833l.119-.624 1.31-.25-.239-.75.595-.874zm.357-1.998 1.905.375-.119-.625c-.595-.5-.833-.625-1.428-.625zm10.953-37.603.119-.375.714-.375c.715 0 1.072-.25 1.429-.75.595.376.833.376 1.428.376h.834l.357-.875h1.19c.357-.625.477-.75.834-1l2.024-.499.952.125v-.625l.952-.125c.476-1.124.596-1.499.715-2.623l.238-.125.833-.625-.238-.5.357-.5h-.595c-.357-.124-.357-.749.119-.749h.952c0-.624.12-.874.596-1.249v-.75l.357-.124c0-.75.119-1.125.952-3.124l.357-.999c-.476-.874-.714-1-1.786-1v-.25h-.714l-1.547.5-1.072.375-.714.25-.357.625-.596-.375c-.357.75-.952.874-1.428.874l-.476.25-.12 1.25-.833-.5c-.357 0-.952.624-1.428 1.624l-2.5 3.748-1.667 3.373-.476 1.624.476 1.374h-.714l-.12 1.374c0 .25.239.625.596.375zm-22.824 25.36.238-.25.477-1.124-.358-1.374.358-1.5-.596-1.998.596-2.499-.12-.5h-.238c0-.999-.119-1.374-.595-1.998l.238-1.5h-.476l-.119.25h-.238c-.476-1.249-.595-1.624-.714-2.998l-.596.125-.238-.25-.238.125v-.75l-1.071-.374-1.429-.625-.476.125.119.625h-.595c-.12-.625-.238-.875-.953-1.125l-.238.75-.595.125c-2.143.125-2.143.125-2.976.624l-.953.75-2.142 1.749-2.381 2.748-1.31 1.25-2.38 1.874-2.858 3.373-5.12 5.746c-5.356 5.997-8.928 15.741-8.928 24.486 0 3.873 1.072 8.37 2.381 10.119 1.429 1.874 2.976 2.873 4.405 2.873 1.19 0 2.024-.25 4.405-1.25v-.374l.833-.125.357-1 2.738-1.373.477-.75 4.404-4.497 1.667-1.874c.238-.5.357-.625.833-.625l1.667-2.249.357.125.357-.374c0-.5.12-.625.477-1.125l.238.25.357-.125c.952-1.999 1.19-2.373 3.214-3.997l-.238-.875h.595l.238-.25v-.375l1.786-2.623c-.238-.375-.357-.75-.357-1 0-.374.238-.5 1.667-1.249l.476-1.249 1.071-2.623.12-1.125 1.19-2.748.238-1.25.238.25.119-.624-.357-.125v-.625l.476-.375-.119-1.124h.238zm-14.405-7.12c.477-.25 1.31.124 1.548.374 1.786 2.249 3.333 7.995 3.333 11.993 0 4.372-2.262 12.368-5.238 17.99-1.785 3.622-5.357 6.87-7.5 6.87-1.19 0-1.905-1-2.262-2.998-1.19-.375-1.428-.625-1.31-1.999l.596.25c-.476-1-.595-1.374-.595-2.373-.953-.25-.715-.5-.238-.875v-1.624c-.596-.125-.715-.25-.715-.5 0-.375.238-.624.477-.624.119 0 .238 0 .357.25l.357-.5-.12-.375-.594-.375v-.375l.952-.624v-.875c0-.5.238-1.624.714-2.748.12-.25.238-.75.476-1.25h-.357l-.357-1.249c.833-.25 1.31-.624 1.31-.874l-.477-.75h-.476l-.238-.999h.476l.715.5.476-.125c0-1.374.119-1.624 1.071-2.499l-.595-.25v-.5h.238l.12-.749h.714l-.358-1.25h.477l.238-.249h-.715l-.238-.375V49l.476.125.239-.75.476.5.714-.124.12-.875.356-.25-.119-.624-.357.624-.238-.874c.238-.25.476-.5 1.071-.375.238-.5.715-2.249 2.143-3.373l.12-1.5.952 1.125c.238-.25.476-.5.238-1 .476-.374.595-.624.714-1.373l.476.624zm-31.464 23.86.833-1.624.357-.125.238-.5-.476-.25v-.5l.476-.124.834-1.374c-.476-.625.238-1.374.833-2.124l1.429-3.373-.12-1.374h.239l.119-.625.833-.125c-.119-.374-.119-.5-.595-.75l1.19-.624-.119-.874.834-1.624h.476l.119-1-.476-.75c.357-.749.476-.999 1.31-1.124-.12-.624 0-1 .356-1.249l-.357-.375.953-2.623-.834-.125.476-1.5-.357-1.873-.119-1.624-.714-.125.357-.875c-.119-.374-.714-.624-1.071-.5l-.12-.374-.714-.25.12-.5-1.667-.25c-1.786 0-6.548 2.499-8.81 4.748l-2.976 2.873c-3.095 2.873-4.167 3.748-4.643 3.998l-.833.125v-.625l.595-.125c-.357-.25-.833-.75-.595-1.124l.476.125.714-.375v-1.374l.953-.75v-.625l.952.25v-.624c-.476-.75-.238-1.125-.12-1.375l.358-.874-.357-.75h.476l.12-.5.832.126.12-1c1.428-.125.357-1 .357-1.25s.595-.749 1.428-1.248h-1.31v-.375c2.263-.5.953-1.75 1.191-3.373l1.31.25a.651.651 0 0 0 .595-.375l-1.071-.5.357-.125v-.374l-.357-1.125 1.666-.25c0-.874.238-1.124.953-1.624-4.762-1.249-1.19-1.499-.596-1.749v-.374l-.833-.25v-.75l1.31-.25.238-.25 1.071.125.12-.374-1.31-1.125.833-.375.833-.374.953-2.374.119-.75h-.476l-.358-.374.834-.625 1.547-3.373h.953l.357-1v-.999l.476-1 .833-.874c0-.5.12-.75.477-1.249l-.358-1.25.953-.499.476-2.498-.952-.625-.357.375-.834-.125-.357.125-1.19.25-1.072.624-.952 1-.596-.75-1.07.5-2.025 1.124h-.357l-1.19 1.374V5.9c-1.19.5-1.429.75-2.143 1.999l-.596 2.248-1.07 2-.477 1.373-.714.625v1.25l-1.19.999-.596 1.499c-1.19 2.248-1.31 2.498-1.667 2.748l.12.375-.953 1.749-.595 1.499c-.834.75-1.31 1.5-1.31 2.124l.238.624-.714.25-.476 1.25c-.596 1.499-.596 1.374-.715 2.248l-1.904 3.748-.477.625-.357 1.624v.5c-.595.374-.833.749-1.071 2.123l-.357 1.25-2.62 5.121-1.19 2.749-1.19 2.124-.477 1.374-1.31 2.498-1.904 4.747-.595 1 .119.5c-1.19 1.624-1.429 2.248-1.667 3.997-.714.625-.714.5-1.071 2l-.834 1.873-.119 1.25-.833.999-1.667 3.623c-1.071 3.497-1.19 3.747-2.142 4.622l.238.5-.834.374.596.125-.12.875-.595.874-.238 1.624.12 1-.239.125v.624l.238.25.12-.625.475.375.715.375 1.19-.75.715.125c1.19 0 1.428-1.124 1.666-1.374.953.625 2.262-1.25 3.69-1.25l1.43-1.748.595-1.5 1.071-.124v-.375h.714l.953-.75.476-1.499h-.714l.119-.75-.239-.374c.596-2.124.953-2.498 2.262-2.498l-.119-1.375h.358c.833-.624 1.07-.75 2.142-.75l-.119-.499-1.19-.5c.238-1.124.357-1.249 1.428-1.998.239-.25.596-.5.239-1l.238-1.25c1.666-.999.714-1.998 2.262-3.122l.476-1.125h.595l.119-.374.595-.125v-.375l-1.666-.5.714-1.374.833.25c.357 0 .953-.5 1.667-1.125-2.857-1.374-2.857-1.748-.952-1.748l.357-.875 1.547.125.12-.25c-.477-.375-.596-.5-1.31-.5l.833-2.373.12-.375.713-.25.477.125c-.357-.75-.12-1.624.357-1.874h.476l.952-1.25 1.905-1.873 2.976-2.998c1.19-1.25 2.024-1.75 3.81-2.374.595.875.714 1.624.714 2.249 0 2.623-.833 5.871-2.857 10.244l-7.024 16.365c-.714-.125-.357 1-.595 1.125l-.238.874.119.625-.833 1.624-.358 3.123-.357 1.999c0 3.248 1.667 6.62 3.334 6.62l.714-.124 2.5-.625c.714-.375 1.667-1.124 2.619-2.123l5.833-6.497 6.786-6.246c.953-.874 1.905-1.999 3.095-3.748 1.072-.5 1.19-.75 1.786-3.123l-.714.125c-1.072.75-1.31 1-1.667 1.874l-1.667 1.124-3.452 3.623-1.667 1.624-2.619 2.249c-.238.25-.595.375-.952.375-.714 0-.952-.375-.952-1.25s.238-1.124 1.071-1.124l.12-1.374-.596-.5v-.25l.714-.375.357-2.373.595-1.374c0-.625.477-1 1.31-1.25zm-55.496 12.368-1.19.125-1.548.125-1.905-.5-1.667.5-.952-1-1.786-.874c-2.62-1.374-4.524-5.747-4.524-10.619l.12-2.623.833-5.622-.239-1.874.715-.375.476-2.748.833-1.374.476-1.5 2.024-3.622 2.738-5.372 1.31-1.374 2.143-3.498 1.666-1.624 1.786-2.249 3.214-3.873 2.143-2.373c1.19-.875 1.31-.875 1.429-1.874l2.262-2 1.667-1.248 2.738-2 .595.25.952.75c1.19 1.125 1.786 3.248 1.786 6.247 0 5.746-2.143 12.867-5.476 17.864l-3.81 5.872-.357.75.595 1.373 1.072-.5 1.428-.999 1.072-.375 2.262-2.248 1.19-.25c1.548-1.374 1.905-1.5 2.857-1.5.953 0 1.19-.624 2.5-1.623l1.548-1.5 1.905-1.374.714-1.873.952-.75.12-.625 1.07-.5v-.499l-.713-.5.119-.5h.476c0-1.499.119-1.873 1.31-2.623l.595-1.874.238-1-.834.625.239-1.249 1.309.125-.238-.75h.952v-.5h-.595l-.119-.999.595-1.249-.952-.25v-.374c.952 0 .833 0 1.428-.5l.477-2.374-.596-.125-.238.125.357.625h-.714l-.714-.25.357-1 .952.25.596-1.749-.12-.25-.714.126.357-.875-.119-1.374-.357-.25v-.625c0-3.997-4.88-8.62-8.928-8.62-.715 0-1.31.125-1.905.375l-2.976 1.5-.953.25-1.666.874-.12.5c-2.261.624-6.07 2.498-8.214 4.122l-3.452 2.498-1.786 1.5-7.143 5.371-.833 1-2.738 2.623-5.238 6.372c-2.858 3.747-4.286 5.996-5.12 7.995l-1.547 3.373-.953 1.25-.952 2.997-1.548 4.498-.238 1.374-.357.874-.119 1.624-.595 2.25c-.476 1.373.595 2.123-.357 2.997l.119 2.749h.476c.833 1.374-.119 1.25-.714 1.749l.238 2.248v1l.952.375.12.374-.715.5v.75l.595.624-.119.875c0 1.374 2.381 5.622 4.286 7.745 2.5 2.624 4.643 3.873 7.976 4.623l2.262.374 2.738-.125 1.072.25 4.643-2.873 1.309-.25v-.375l1.667-1 .833-1.373 2.381-1.125 1.667-1.998.714.124.238-.124v-.625l1.429-1.624 2.38-1.5.834-1.373 3.571-3.748.477-1.125 1.904-1.624.358-.874.833-.625.476-1.124 1.072-1.25.476-1.249.714-1c-.952.25-1.19.376-2.5 2.125l-3.452 2.873-2.024 2.249-.715.5-1.071.874-1.905 1.874-2.024 1.25-1.071.249-1.429 1.124-1.666 1.374zm284.712-13.867.12-1.374.477-1.75v-.249c0-.5-.239-.75-.836-1l.597-.25.239-.874.477-.125.239-2.373c.239-1.125.358-1.5.477-2.624 0-.25.358-.874.836-1.499l-.358-.624.597-.75v-.75h.358c.835-1.499.954-1.998.954-3.498l1.79-2.373c-.477-.5-.715-.75-.715-.875 0-.25.477-.624 1.193-.874.716-.75.836-1 1.074-1.75l.359-.124.596-1 .716-1.748 1.194-1.624.358-1.125.597-.25v-.75c0-.624.12-.874.716-1.124l-.12-.999h.12c3.82-3.998 2.745-4.747 3.939-5.247.239-1.25.358-1.624 1.193-2.373l.717-1.25c1.312-1.874 1.432-1.874 3.222-1.874 3.7 0 6.923 5.497 6.923 11.993 0 5.872-.239 6.996-1.79 13.118-.836 2.998-1.433 4.997-1.671 5.621l-1.075 2.249-1.432 3.623-3.7 6.121-1.91 3.123-2.984 3.498-3.7 3.623c-2.626 2.124-4.177 2.874-5.729 2.874-1.313 0-2.864-1.375-3.342-2.999l-.239-1.499-.596-2.498.119-1.125c-.836-1.499-.597-1.998 0-4.622zm37.597-47.472.12-.5-.478-.5-2.148-2.873c-.836-1.25-1.91-1.749-3.939-2.124l-.239.25c-.477-.5-.954-.75-1.193-.75h-.597l-2.864.25-1.313.5-1.075.5-2.387 1.5-2.745 1.873-2.029 2.249-2.865 2.123-.954 1-2.865 2.623-2.745 3.124-1.671 1.873-3.7 5.122-1.433 1.624-1.313 2-3.342 5.121c-.954 1.374-1.432 2.249-1.91 3.998-1.55 2.249-1.67 2.498-1.79 4.372l-.716 1-1.79 4.622c-.597 1.25-.597 1.624-.597 2.873-1.193 3.248-1.193 4.248-2.029 8.37v2.874l-.239.75-.238 1.249.238 2.123.24 2.874c.715.25.835.374.835 1.249l-.597-.25c.12 1 .12 1.374.716 1.999l-.12.625c1.075 2.498 1.552 3.373 2.268 4.247 1.313 1.624 3.581 3.248 4.536 3.248l.597-.5.238.5.955.125.358-.375.716.125.478-.125.358-.375c1.074-.25 1.313-.5 3.461-1.998l.955-.25c.597-1.125.597-1.125 2.507-2.749.955-.75 1.67-1.499 3.342-3.498h.477l.239-1.124.358-.25.477.125c1.313-2.124 2.149-2.998 3.104-3.748l2.267-1.499c.12-.125.478-.5 2.149-2.373 1.551-.5 3.58-2.249 4.535-3.998.597-.874.717-1 1.433-1.124 0-1.125.238-1.5 1.551-2.124l1.313-1.999.478.25.238-.75h.24l.357-.75.358-1.123 1.194-1.874c2.029-1.375 2.148-2.749 3.103-3.498l.239-.75h.477l-.358-.375.12-.5.477-.124.477-.625.597-1.25.239-.874c0-.125-.12-.5-.239-.874l.836-.625c-.239-1-.12-1.374 1.551-4.372l.955-2.998-.597.374c1.194-1.749 1.313-2.123 1.671-5.746.12-1 .24-1.75.478-2.249.239-.25.239-.625.239-.75l-.12-.624.239-.25-.12-.75.359-1.624-.358-4.122.119-.625c-.239-1.124-.358-1.499-.836-2.623 0-1-.238-1.375-.358-2.499l-.596-1.25zM502.352 48.5l1.79-.375.239-.25v-.125c1.432-1.124 1.79-1.499 2.267-2.748l-1.193-.625-1.313.75.239-1c.596-.374.835-.5 1.313-1.374l.716.25.955-.5h.596l.597-.75.239-.624-.358-.375v-.874l-.955.5-.716-.375c.477-.875.835-1.125 1.551-1.125v.625h.717c.358-1 .238-1.124.835-1.999l-.12-1h-.357l-.12-1.248c1.194.124 1.313-.125 2.865-3.623 1.67-2.499 1.432-1.624 2.148-2.124v-.5l-1.67-.375-.836.125c.477-.874.955-1.374 1.193-1.374l.597.25 1.074-.625-.477-1.249 2.029-1.374.12-1.999.477-.75h.477c.478-1.499.597-1.873 1.433-3.123v-.624c1.074-1.374 1.193-1.75 1.551-3.498l.597-.25.477-1.124 1.075-2c.119-.374.238-.874.238-1.248 0-1.5-1.432-2.874-3.103-2.874-1.194 0-5.013 1.874-7.52 3.748l-1.312.625-6.207 3.747-2.148 1.125-2.507 2.124-1.79.75-.716.749-2.507 2.373-1.074 1.125-.955 1.124c-.477.625-.597.874-.597 1.374 0 1 .239 1.624.955 3.498l.239-.375.597-.25.835-.874 2.149-1.124 1.074-.375c.835-1.125 1.074-1.25 2.268-1.5v-.374l1.193-.125.239-.375c.239.25.477.375.597.375l.716-.375v-.624l.955-.125-.478 1 .955.499-.358 1-2.03 3.122L486 56.995l-2.387 3.623c.358 1.249-.359.874-1.91 3.872l-.478 1.624c-.954.875-1.193 1.25-1.551 2.624l-1.313 2.124-2.149 4.747-.358 1.25-1.551 3.747c-.478 1-.836 1.874-.836 2.623 0 1 1.194 2.124 2.268 2.249l2.387-.5c1.313-.125 1.79-.374 2.626-1.249 1.313 0 2.03-.874 2.148-1l.717-1.249 1.193-.75 1.552-.874.835.5.955.75-.12.874.956-1.749-.358-.375.238-.874.478-.5.358-1 .597-.25.596-1.748.716-2.499 1.194-2.248h.477c.359-.375.597-1 .359-1.624.716-.5 1.074-1.125 1.074-1.5 0-.874 1.91-3.497 2.148-4.872l.478-.25-.12-.999.955-1-.239-.999.358-.25.24.25h.477v-.374l-.597-.5v-.25c.835-.875 1.074-1.25 1.313-2.249.477-.25.597-.5 1.074-1.124.597-.5.955-.875.955-1.124 0-.125-.239-.375-.478-.75l2.388-2.623c-.24-1.25-.955-1.624-1.552-1.624zm-38.463 2.748-.955-.125-1.313.125h-2.268l-2.148.375-1.432.125-1.433.125-1.193.25-1.074.125-2.03.624-.358.5h.597l-.835 1-1.194 1.623-1.193 1.25-1.552 1.998-.358 1c0 .625 1.074 1.124 2.506 1.124h.478l.358-.624.955.874.597-.375.358.5.716-.625.238.125h1.552l.239.375 1.074.125.716-1.374.716 1v.624l.836-.875.477.125.478-1 .716.25.358-.374.239.874.596.125.24-.624.477-.125c.596.75 2.267 1 2.267.25 0-.375.12-.625.836-.625l.12 1.749.596-.375v-1l1.313-.749h.477l-.12.875 1.075-1.125c1.194 2.499 1.432 2.25 1.671 2.25l.358.124.836-.874v.624l.597-.624.358.374v.375l1.313-.25.716-1.749h.477l.12.75 1.67.25.478-.25.597.25v.374h.596l.478-.999.597-1.25-.24-.499.598-.5.238-1.124 1.194-1.25.12-.624.477-.375.835-1.749v-.5l-.477-.25v-.624l-1.91-.624h-.716l-.239-.25h-1.313l-3.7.5h-4.893l-1.91.374zM195.762 83.8l.597-1.119-.597-.248v-.373l.835-.497-.358-.622 1.074-2.237.12-.87.477-.124.358-1.491.955-.87.12-.498h-.24v-.372l1.194-1.989-.119-.373-.597-.124v-.497l.955-.125.477-1.118h-.477v-.497l.716-.125c.716-.994.836-1.367.955-2.237h.239v-.87h-.716c0 .373 0 .497-.358.995l-.478-.125c.597-1.118.836-1.367 2.387-1.74v-1.118l.597-.373c0-.746.597-1.865 2.507-2.859l3.938-1.988 1.552-.746 1.074-.746 2.268-.746c.239-.124.477-.372 1.194-1.864h-2.626l-2.984 1.119-2.268.745-1.194.746-1.074.497V57.7c.597-.124.716-.249 1.074-.994l-.238-.249c.477-.87.596-1.119 1.432-1.491v-.373l.716-1.616.836-1.367.238-1.243.597-.497c0-.994-.12-1.243.597-1.989l.835-1.118-.238-.373.358-.249v-.746c1.67-1.615 1.79-1.988 2.387-3.604l1.552-2.361-.359-.622 1.075-.994 1.313-3.107 1.432-2.362.955-2.61.358-.994-1.432-.621-.717.124-1.432.994-4.655 1.865-1.79 1.491-1.074.497c-.717.249-2.03 2.362-5.252 8.079-1.79 3.107-2.626 4.723-3.223 6.711h-.238l-5.252 10.813-1.552 4.226-1.551 3.231-2.388 2.113-2.387 2.362c-1.313 1.243-3.461 2.237-4.893 2.237-1.194 0-2.626-1.989-2.507-3.604l.239-1.368.12-1.615-.478.248.12.373h-.598l.12-1.119.716.25c.477-.747.597-1.12.597-1.74-.24-.374-.478-.871-.478-1.12l.12-.124h.358l.716-.248c-.478-.622-.478-.87-.716-1.74l1.79-1.119c-.358 0 .358-1.74-.12-2.237.836-.497 1.075-.622 1.672-1.616v-.373l-.717-.497v-.248h-.238l.238-.498c.955-.124 1.194-.372 1.79-.994l-.119-.248v-.746l1.075-.249v-.373h-.358l-.12-.372 1.313-.622-.239-.373.717-1.118c1.074-1.243 1.074-1.243 1.074-1.989-.358-1.367.12-1.119.597-1.119l1.313-1.491.954-1.864c.12-.125.478-.373 1.313-1.865.358-1.367.597-1.74 1.552-2.485v-.995c1.313-1.242 1.671-1.74 2.506-3.604 1.552-2.113 1.91-2.983 2.268-4.971-.358-.249-.477-.373-.716-.373s-.358 0-.597.124l-.835.497-1.91.87-.955.87-2.864 1.616-3.7 2.61c-.836.621-.597.373-1.91 2.113l-2.268 2.486-1.91 2.61-3.342 4.474-1.67 3.107-2.149 4.847-1.313 1.74-1.074 2.486-.597 2.237-.955 2.113-.477 4.102-1.074 1.864-.12 2.113-.12 1.615.359 1.616s-.12.249-.239 2.734c.597.249.716.373.836.995h-.239l-.12.248.717.995.12.87.715.372c.239.87.358.995 1.075.995v.373l-.836.87-4.177 3.728c-7.759 7.085-12.533 14.79-12.533 20.383 0 3.107 1.313 5.842 3.342 7.085.836.497 1.91.994 4.774.994 1.671 0 2.149-.497 3.104-1.243v.373l.477-.124.955-.87 2.148-1.119.597-.746.597-.248 1.91-1.865 1.193-.621v-.497c.955-.249 1.194-.373 3.7-2.486l.12-.87.716-.124.716-.87 2.029-1.492c2.148-1.615 1.67-1.988 2.626-2.361l.716-1.119 1.79-.994.358-.87-.477-.746c.716-.248.955-.373.955-1.367l1.432-.248v-.87l.836.372.477-.124-.12-.621 1.075-2.362.597-.621c.238-.746.477-.994 1.313-1.367l-.359-1.119h-.716c.716-1.491 1.075-1.74 2.507-1.74l.477-.497-.238-.622.716-.62v-.87zm-6.207-10.316.478.249c-.717 3.728-2.268 8.327-4.536 12.553l-3.82 7.457-1.074 2.113c-3.342 5.717-7.52 9.57-10.503 9.57-.597 0-1.194-.249-2.387-.621v-.746c-1.074-1.119-1.313-1.616-1.313-3.107 0-4.35 1.074-6.463 5.73-12.553l.835-1.119-.12-.248 1.313-.622.239-.746 1.074-.87 3.7-3.48 5.013-3.853c.597-.87.478-.745 2.149-1.242l1.432-1.616zm-64.05 8.452.24 1.243c.238.497.715.87.835.87.955.372.835 1.118 1.074 1.242.597.373 1.432.498 2.148.498l1.194-.622.239.249c1.432 0 1.79-.249 2.506-1.243l2.268-1.243.12-.87c1.074-.124 1.312-.373 1.909-1.367h.239c1.074-1.243 1.313-1.367 2.148-1.616l.955-1.864.716-.124c.12-.498.12-.746.597-1.119l.358.497c.358-1.118.597-1.491 1.432-1.864v-.622c.358-.621.836-1.118 1.075-1.118l.358-.124c.358 0 .596-.498.835-1.243l-.12 2.485-.119 2.238v.745c0 1.616.24 3.48.955 5.966.358 1.367.836 1.989 1.552 1.989 1.313 0 3.7-.746 4.774-1.368l1.552-1.242 1.074-.498.955-1.615 2.387-2.113 2.148-2.237 2.268-3.107.597-.995 1.194-1.118.954-2.237 2.984-2.983 1.194-1.989h-.597l.239-.746-1.194.746-1.91 2.237-3.222 3.107-2.984 4.599c-.597.621-1.552 1.119-2.268 1.119-.835 0-1.313-.746-1.313-1.865l.12-4.35V66.65h.238l.478-1.12-.597-1.242c.597-.497.716-.994.716-1.367.239-1.367.478-1.492 1.074-1.989v-1.243l.597-1.988.955-1.119v-1.864c.836-1.864.836-2.113.836-3.231l.596-.995.955-2.858 1.074-1.368.597-1.615.597-.497.597-1.119.716-1.367.12-.622.477-.745-2.03-.125.597-1.367-1.193.497.12-.745-.478-.497.597-2.238h-.24l-.954-3.107h-.239c-1.193-2.485-2.387-3.355-4.774-3.853-.716-.497-1.074-.621-1.79-.621-2.03 0-3.342.497-4.655 1.616l-.239-.125-2.865 2.735-6.445 4.971c-1.67 1.367-5.371 4.972-7.639 7.706-2.148 2.61-2.864 3.729-4.058 6.214h-.12l-1.193 2.237h-.239l-.596.995-.358 1.243-1.671 3.48c-3.581 10.191-2.865 10.067-2.984 11.434l.238.373-.477.621-.239 2.237.836.995-.239 1.367-.358.124-.12 1.119c0 .745.12.994.955 1.367v.373l.12.248v.622l-.358.497zm11.22-15.163-.597-1.492.716-1.118-.596-.249v-.621l.358-.373.238-1.864.359-.746c.835-.994.596-1.243.716-2.362l.596-1.491.359-.994.716-1.492.596-2.858.836-1.243c.716-3.232 1.194-4.226 2.387-5.593l.716-.994c1.313-2.238 1.433-2.362 2.507-3.356l.716-1.119c.835-1.243 1.552-1.864 2.268-1.864 2.387 0 4.535 4.599 4.535 9.57 0 1.74-.238 3.356-.597 4.847l-3.7 8.949-2.267 7.954-7.162 6.215c-.716.621-1.313.745-2.506.745-1.194-2.113-1.552-2.858-1.552-4.35l.12-1.243h-.24l-.238-.87.477-.372zm-37.374-2.486-.477 1.243c.239.87-.477.994-.955 1.243l.358.87-.358.248c.716 1.243 0 1.74-.716 2.238.597.994-.12 1.242-.597 1.615l.478.497-.24 1.119-.357 1.243.239.994h.358l.119.497-.955.497c0 .373 0 .87.358 1.243-.955.995.836.746 1.194.87l-1.433.746-.238.621h.477l.239 1.243-.597.373.716.249-.12.994 1.075.87 1.671.124.358.373-.597.124v-.248h-1.67c-.359.621-.12.746.954 1.243l1.194-.125 1.193-.62.955-.25.716-1.118.717.248.954-.745 2.03-.87v-.497l3.341-2.983 3.82-3.356 1.67-1.864 6.924-6.712 2.387-2.237 2.626-3.356 1.79-1.988-1.91.994-9.429 8.203-1.91 1.367-1.313.87c-2.864 2.237-3.461 2.486-5.132 2.734l-.239-.87.597-.372-.597-.373c.955-.497 1.075-.746 1.313-1.616l-.358.373-1.074-.124-.12-.373 1.314-.87-.12-.87c.955-.497 1.074-.746.955-1.989l.477-.497-1.193-.249c-.12.622-.358.87-.955.746l.597-1.367.477.248c.836 0 1.194-.124 1.671-.372v-.746h-1.432l.239-.746 1.91-.124-.12-.249-.716.125-.836-.746 1.194-1.74c.597-1.243.955-1.492 2.029-1.492l-.239-1.242-.835-.125v-.621l-.716.124.119-.497.955-.124-.955-.87.597-.125v-.248h.358c.477.248.955.497 1.432.248-.955-.248-1.074-1.118-1.074-1.864l2.029-.497v-.497h-.955l-.597-.249-.596.125v-.622l.835-.248c3.461-.746.955-2.86 2.03-3.48l.596-.746.477.248.358-.373c0-.62.12-.745.717-1.118v-.87l-2.984.497.119-.621c.836-.125 1.074-.373 1.313-.995l2.387-.497.12-.373h.477l-.12-.621-.477-.124c-1.552-.622-1.074-1.492-.716-1.616l1.552-.249 1.074-.497-.597-.124v-.497l.597-.125.12.373V38.56l-.359.124-.597.621h-.358l.239-.994c0-.621 1.432-1.118 1.432-1.491l-.477-1.367 1.193-.249.717-.87-1.075.124.358-1.367c1.552-1.243 2.746-1.243 2.268-2.237l.597-.497-.239-.249.239-.373-.955.125.836-1.368c.358-1.118-.358-2.485 1.91-2.982l1.074-1.243-.597-.373.12-.124v-.87c.835-.249.954-.498 1.073-1.492 1.313-1.616 1.313-1.74 1.79-2.61l.359-1.243.835-.497-.477-.621.358-.125.477-.994 1.671-2.61.478-1.367 1.074-1.616c.597-.746.955-2.113.955-3.231l-.12-1.74-.596-.497-1.194.124-1.074.746c-.836 0-1.074.124-1.671.497-.478.621-.597.745-1.671.87l-2.507 1.367-.954.124v.373l-.955.497-.955 2.113-1.074 1.989-1.075 2.734-.835 1.367-3.223 6.214-.597 1.368.12.497-.716.621-.478 1.119c-1.432 3.107-1.551 3.231-1.91 3.48l-.716 2.361-.954.995-.836 1.74-.716 1.242-1.671 3.48-.12.498h-.119l-.955 1.988-1.193 2.983-1.671 2.61-.478 1.119-.955 2.485-.835 1.119-.716 1.367v.994l-.597.498-1.074 2.858-.597 1.616v.994h-.358l-.477.622c-.24 1.118.119 1.864-.717 2.361zm2.182-54.313c-.597-1.492-1.79-1.616-2.745-1.865-1.194-.497-2.03-.745-2.03-.745l-2.745-.497-1.313-.498h-1.193l-.358.373-1.552-.124-.12-.497-1.193.248h-4.177l-2.865.373c-.597.373-.597.373-1.91.373l-1.074-.124-1.67.87-2.03.746-1.67 1.491-.956.622c-1.193.87-3.342 4.35-4.893 6.09l-.955.994-.12.621.478 1.243.358-.124.358.248v.498c.716 0 .955-.125 1.313-.498h.716l.358-.372 1.074.372-.955 1.119-1.312 2.734c-.597.746-.717.995-1.075 1.865l-.596.248c-.24.994-.359 1.367-1.313 2.237 0 .373-1.313 1.865-1.671 2.983l-.597.87-.239.622-.477.497-4.536 8.327-1.074 1.74-.716 1.864-1.433 2.735-4.058 8.327-.477 1.491-.716 1.616-.12.87-.477.621-.955 1.119-1.79 4.102-2.03 3.977-.238 1.367-.477 1.118-.478 1.119-.597 1.243-.596 2.486-.836 2.112-.477 2.238-.358.87-.12 1.242c0 1.865.716 3.232 1.671 3.232l1.074-.373 1.433-1.118 1.074-.125 1.552-.994c1.551-.373 3.58-1.616 4.654-2.734 1.91-1.865 1.671-1.616 2.626-1.989v.497l.716.124.359-.248v-.497l-.836-.125.239-1.242c.597-.498.835-.622 1.432-.622l.12-.497-1.194.249c.12-1.492.358-1.865 1.79-2.113l.358-2.735c.239-.745.478-.745.836-3.231l.358-.497c1.313-1.243-.716-.994.835-2.734-1.313.62.836-1.492.836-1.492l.477-1.119h.358l.12.622.955-.373v-.373h-.478l-.239-1.491.836-.87 1.074-.373-.477-.249-.12-.621.12-.373 1.074-.497.12-.497.357-.622-.477-1.118.12-.622c1.312-.373 1.67-.621 2.386-1.491l.955-.497 2.03.124 2.864-1.989.955.498.358-.249 2.626-.249 1.551-.372v-.373h-.358l.239-.87.955.248.12.373 1.193-.373.477-1.491.597-.249.239.249.835.124.597-1.243.955-.621.716.373.597-.125 2.029-1.615c1.074-.498 1.432-.622 2.626-.87l.596-1.119c4.297-1.864 1.79-1.74 5.013-1.864 1.433-1.243 1.552-1.367 2.268-1.492.358-.745.358-.87 1.552-.994l.955-.373-.358-.248v-.995l1.074-.248c1.551-1.243 1.67-1.243 1.91-1.243-1.552 0 4.177-3.853 4.296-4.723l1.194-.621.597-.25v-.372h-.836l.239-1.118 1.194-.498v-.248l-.478-1.492.478-1.615.716-.249.358-1.616-1.433.249-.238-.622.597-.497.716.249h.477l.239-.746-.358-1.367.358-1.491h-1.074l.238-1.119-.835-.249.358-.87-.239-.621h-.477l.477-1.243-2.029-.497c-.716-1.119-.716-1.243-.477-1.989l-.836-.994-.597-.124-1.313-1.367zM84.584 17.68h-.358l.12-.249c3.341.249 5.132.497 6.803 1.119 3.461 1.367 5.61 4.101 5.61 7.084l-.12 1.616.239.248v2.237l-1.432 1.119-.597 1.243-2.387 2.983c-.358.745-3.462 2.983-5.61 4.101l-1.313 1.243-2.865 1.367c-.596.622-.716.746-1.432.622l-.835.745-3.82 1.616-.955.746h-.597c-.835.621-1.074.745-2.029.87v.248l-1.313.373-1.91.622-1.073-.125c0-.497.119-.745.596-1.243l.12-.87c.358-.87.596-1.118 1.193-1.615l-.477-.249.12-.373 1.312-1.74c.478-1.243.12-1.243.358-2.237.478-.87 3.103-2.237 1.432-3.356 0-.497.12-.621.597-.87l.478.373.596-.248.597-3.853c.597.497 1.194.746 1.552.746.12 0 .239 0 .477-.125V31.6c-.835 0-1.074-.125-1.432-.497.358-.622.597-.622 1.194-.622l.477-.994-.239-.746c-.477-1.243.12-.621 1.075-2.113h.358v-.248l-.478-.373c1.313-1.367.358-1.865.955-1.865.239 0 .716-.372.836-1.242.238-.622.358-.87.954-.87.12 0-1.313-2.859.955-1.368.358.373.597.125.716-.248.478-2.237 2.149-1.119 1.552-2.734z" fill="#3a393a"/>
    <g fill="#fff">
        <path d="m460.553 49.582-.96-.121-1.322.12h-2.282l-2.162.363-1.441.121-1.441.12-1.202.242-1.08.121-2.042.604-.36.484h.6l-.84.966-1.202 1.571-1.201 1.208-1.561 1.933-.36.967c0 .604 1.08 1.087 2.522 1.087h.48l.36-.604.961.846.6-.363.361.484.72-.604.24.12h1.562l.24.363 1.081.12.721-1.328.72.966v.604l.841-.845.48.12.481-.966.721.242.36-.363.24.846.601.12.24-.603.48-.121c.601.725 2.283.966 2.283.241 0-.362.12-.604.84-.604l.12 1.692.601-.363v-.966l1.321-.725h.48l-.12.846 1.082-1.088c1.2 2.417 1.44 2.175 1.681 2.175l.36.12.841-.845v.604l.6-.604.361.362v.363l1.321-.242.72-1.691h.481l.12.725 1.682.241.48-.241.6.241v.363h.601l.48-.967.601-1.208-.24-.483.6-.484.24-1.087 1.202-1.208.12-.604.48-.363.841-1.691v-.484l-.48-.241v-.604l-1.922-.604h-.72l-.24-.242h-1.322l-3.723.483h-4.925l-1.921.363zM499.257 46.924l1.802-.363.24-.241v-.121c1.442-1.088 1.802-1.45 2.282-2.658l-1.2-.604-1.322.724.24-.966c.6-.363.841-.483 1.321-1.33l.721.242.96-.483h.601l.601-.725.24-.604-.36-.362v-.846l-.961.483-.72-.362c.48-.846.84-1.088 1.56-1.088v.604h.721c.36-.966.24-1.087.841-1.933l-.12-.966h-.36l-.12-1.209c1.2.121 1.32-.12 2.882-3.503 1.682-2.417 1.441-1.571 2.162-2.054v-.484l-1.681-.362-.841.12c.48-.845.96-1.328 1.2-1.328l.601.241 1.081-.604-.48-1.208 2.042-1.329.12-1.933.48-.725h.48c.481-1.45.601-1.812 1.442-3.02v-.605c1.081-1.329 1.201-1.691 1.561-3.383l.601-.241.48-1.088 1.081-1.933c.12-.362.24-.846.24-1.208 0-1.45-1.44-2.78-3.122-2.78-1.201 0-5.045 1.813-7.567 3.626l-1.321.604-6.246 3.624-2.162 1.088-2.522 2.054-1.801.725-.721.725-2.522 2.295-1.081 1.088-.961 1.087c-.48.604-.6.846-.6 1.329 0 .967.24 1.57.96 3.383l.24-.362.6-.242.842-.846 2.162-1.087 1.08-.363c.841-1.087 1.082-1.208 2.283-1.45v-.362l1.2-.12.24-.363c.241.241.481.362.601.362l.721-.362v-.604l.96-.121-.48.966.961.484-.36.966-2.042 3.02-16.214 27.307-2.402 3.503c.36 1.209-.36.846-1.922 3.746l-.48 1.57c-.961.846-1.202 1.209-1.562 2.538l-1.321 2.054-2.162 4.591-.36 1.208-1.562 3.625c-.48.966-.84 1.812-.84 2.537 0 .967 1.2 2.054 2.282 2.175l2.402-.483c1.32-.121 1.801-.363 2.642-1.209 1.321 0 2.042-.845 2.162-.966l.72-1.208 1.202-.725 1.561-.846.84.483.962.725-.12.846.96-1.692-.36-.362.24-.846.48-.483.361-.967.6-.241.601-1.692.72-2.416 1.202-2.175h.48c.36-.362.6-.967.36-1.57.721-.484 1.082-1.088 1.082-1.45 0-.846 1.921-3.384 2.161-4.713l.48-.241-.12-.967.962-.966-.24-.967.36-.242.24.242h.48v-.362l-.6-.484v-.241c.84-.846 1.08-1.209 1.321-2.175.48-.242.6-.484 1.081-1.088.6-.483.96-.845.96-1.087 0-.12-.24-.362-.48-.725l2.403-2.537c-.24-1.208-.961-1.57-1.562-1.57zM524.53 59.61l.12-1.33.481-1.69v-.242c0-.484-.24-.725-.84-.967l.6-.241.24-.846.48-.121.24-2.296c.241-1.087.361-1.45.481-2.537 0-.242.36-.846.84-1.45l-.36-.604.601-.725v-.725h.36c.841-1.45.961-1.933.961-3.383l1.802-2.295c-.48-.484-.72-.725-.72-.846 0-.242.48-.604 1.2-.846.721-.725.841-.966 1.081-1.691l.36-.121.601-.967.72-1.691 1.202-1.571.36-1.087.6-.242v-.725c0-.604.12-.846.721-1.087l-.12-.967h.12c3.844-3.866 2.763-4.591 3.964-5.075.24-1.208.36-1.57 1.201-2.295l.72-1.208c1.322-1.813 1.442-1.813 3.244-1.813 3.723 0 6.966 5.316 6.966 11.6 0 5.678-.24 6.765-1.802 12.686-.84 2.9-1.441 4.832-1.681 5.437l-1.081 2.174-1.442 3.504-3.723 5.92-1.922 3.021-3.002 3.383-3.724 3.504c-2.642 2.054-4.203 2.779-5.765 2.779-1.321 0-2.882-1.33-3.363-2.9l-.24-1.45-.6-2.416.12-1.088c-.841-1.45-.601-1.933 0-4.47zm37.834-45.912.12-.484-.48-.483-2.162-2.779c-.84-1.208-1.922-1.691-3.964-2.054l-.24.242c-.48-.484-.96-.725-1.2-.725h-.601l-2.883.241-1.321.484-1.081.483-2.402 1.45-2.763 1.812-2.041 2.175-2.883 2.054-.96.967-2.883 2.537-2.763 3.02-1.681 1.813-3.724 4.953-1.441 1.571-1.321 1.933-3.363 4.954c-.961 1.329-1.441 2.175-1.922 3.866-1.561 2.175-1.681 2.417-1.801 4.23l-.721.966-1.802 4.47c-.6 1.208-.6 1.57-.6 2.779-1.201 3.141-1.201 4.108-2.042 8.095v2.779l-.24.725-.24 1.208.24 2.054.24 2.779c.72.242.84.362.84 1.208l-.6-.241c.12.966.12 1.329.72 1.933l-.12.604c1.082 2.416 1.562 3.262 2.283 4.108 1.32 1.57 3.603 3.141 4.564 3.141l.6-.483.24.483.961.121.36-.362.721.12.48-.12.361-.363c1.081-.242 1.321-.483 3.483-1.933l.961-.242c.6-1.087.6-1.087 2.522-2.658.961-.725 1.682-1.45 3.363-3.383h.48l.24-1.087.361-.242.48.12c1.322-2.053 2.163-2.899 3.123-3.624l2.282-1.45c.12-.12.48-.483 2.162-2.295 1.562-.484 3.604-2.175 4.564-3.867.601-.845.721-.966 1.442-1.087 0-1.087.24-1.45 1.561-2.054l1.321-1.933.48.242.241-.725h.24l.36-.725.36-1.088 1.202-1.812c2.042-1.33 2.162-2.658 3.123-3.383l.24-.725h.48l-.36-.362.12-.484.48-.12.48-.605.601-1.208.24-.846c0-.12-.12-.483-.24-.845l.841-.604c-.24-.967-.12-1.33 1.562-4.23l.96-2.899-.6.362c1.201-1.691 1.321-2.054 1.681-5.557.12-.967.24-1.692.48-2.175.241-.242.241-.604.241-.725l-.12-.604.24-.242-.12-.725.36-1.57-.36-3.988.12-.604c-.24-1.087-.36-1.45-.84-2.537 0-.967-.24-1.329-.36-2.416l-.601-1.209zM238.1 73.021l-1.202.121-1.561.12-1.922-.482-1.681.483-.961-.967-1.802-.845c-2.642-1.33-4.564-5.558-4.564-10.27l.12-2.538.841-5.437-.24-1.812.72-.362.48-2.659.842-1.329.48-1.45 2.042-3.503 2.762-5.196 1.322-1.329 2.161-3.383 1.682-1.57 1.802-2.175 3.242-3.746 2.162-2.295c1.201-.846 1.322-.846 1.442-1.813l2.282-1.933 1.681-1.208 2.763-1.933.6.242.961.724c1.201 1.088 1.802 3.142 1.802 6.042 0 5.557-2.162 12.444-5.525 17.277l-3.844 5.679-.36.725.6 1.329 1.082-.484 1.44-.966 1.082-.363 2.282-2.174 1.2-.242c1.562-1.33 1.923-1.45 2.883-1.45s1.201-.604 2.523-1.57l1.561-1.45 1.922-1.33.72-1.812.961-.725.12-.604 1.081-.483v-.483l-.72-.484.12-.483h.48c0-1.45.12-1.812 1.321-2.537l.6-1.813.241-.966-.84.604.24-1.208 1.32.12-.24-.724h.961v-.484h-.6l-.12-.966.6-1.209-.96-.241v-.363c.96 0 .84 0 1.44-.483l.481-2.296-.6-.12-.24.12.36.605h-.72l-.722-.242.36-.967.962.242.6-1.692-.12-.241-.72.12.36-.845-.12-1.33-.36-.24v-.605c0-3.866-4.925-8.337-9.009-8.337-.72 0-1.32.121-1.921.363l-3.003 1.45-.96.241-1.682.846-.12.483c-2.283.605-6.126 2.417-8.288 3.988l-3.483 2.416-1.802 1.45-7.206 5.195-.84.967-2.763 2.537-5.285 6.162c-2.883 3.625-4.324 5.8-5.165 7.733l-1.56 3.262-.962 1.208-.96 2.9-1.562 4.35-.24 1.328-.36.846-.12 1.57-.601 2.176c-.48 1.329.6 2.054-.36 2.9l.12 2.657h.48c.84 1.33-.12 1.209-.72 1.692l.24 2.175v.966l.96.363.12.362-.72.484v.724l.6.605-.12.845c0 1.33 2.402 5.437 4.324 7.491 2.522 2.538 4.684 3.746 8.047 4.47l2.282.363 2.763-.12 1.08.241 4.685-2.779 1.321-.242v-.362l1.682-.967.84-1.329 2.403-1.087 1.681-1.933.72.12.24-.12v-.604l1.442-1.571 2.402-1.45.841-1.329 3.603-3.625.48-1.087 1.922-1.57.36-.846.841-.604.48-1.088 1.082-1.208.48-1.208.72-.967c-.96.242-1.2.363-2.521 2.054l-3.483 2.779-2.042 2.175-.72.483-1.082.846-1.922 1.812-2.041 1.208-1.081.242-1.442 1.087-1.681 1.33zM294.089 61.06l.84-1.57.361-.122.24-.483-.48-.242v-.483l.48-.12.841-1.33c-.48-.604.24-1.329.84-2.054l1.442-3.262-.12-1.329h.24l.12-.604.841-.12c-.12-.363-.12-.484-.6-.726l1.2-.604-.12-.846.841-1.57h.48l.12-.967-.48-.725c.36-.725.48-.966 1.322-1.087-.12-.604 0-.967.36-1.209l-.36-.362.96-2.537-.84-.121.48-1.45-.36-1.812-.12-1.571-.721-.12.36-.847c-.12-.362-.72-.604-1.08-.483l-.12-.362-.721-.242.12-.483-1.682-.242c-1.801 0-6.606 2.417-8.888 4.591l-3.002 2.78c-3.123 2.778-4.204 3.624-4.685 3.866l-.84.12v-.604l.6-.12c-.36-.242-.84-.725-.6-1.088l.48.12.72-.362V38.95l.962-.725v-.604l.96.242v-.604c-.48-.725-.24-1.088-.12-1.33l.36-.845-.36-.725h.48l.12-.483.842.12.12-.966c1.441-.12.36-.966.36-1.208s.6-.725 1.441-1.208h-1.32v-.363c2.281-.483.96-1.691 1.2-3.262l1.321.242c.24 0 .48-.121.601-.363l-1.081-.483.36-.121v-.362l-.36-1.088 1.682-.241c0-.846.24-1.088.96-1.571-4.804-1.208-1.2-1.45-.6-1.692v-.362l-.84-.242v-.725l1.32-.241.24-.242 1.081.12.12-.362-1.32-1.087.84-.363.84-.362.962-2.296.12-.725h-.48l-.36-.362.84-.604 1.561-3.262h.961l.36-.967v-.966l.48-.967.842-.846c0-.483.12-.725.48-1.208l-.36-1.208.96-.484.481-2.416-.96-.604-.361.362-.841-.12-.36.12-1.201.242-1.081.604-.961.967-.6-.725-1.082.483-2.041 1.087h-.36l-1.202 1.33v.845c-1.2.484-1.441.725-2.162 1.933l-.6 2.175-1.081 1.933-.48 1.33-.721.604v1.208l-1.201.966-.601 1.45c-1.201 2.175-1.321 2.417-1.681 2.658l.12.363-.961 1.691-.6 1.45c-.841.725-1.322 1.45-1.322 2.054l.24.604-.72.242-.48 1.208c-.601 1.45-.601 1.33-.721 2.175l-1.922 3.625-.48.604-.36 1.57v.484c-.601.362-.842.725-1.082 2.054l-.36 1.208-2.643 4.954-1.2 2.658-1.202 2.054-.48 1.329-1.321 2.416-1.922 4.591-.6.967.12.483c-1.201 1.57-1.442 2.175-1.682 3.867-.72.604-.72.483-1.08 1.933l-.842 1.812-.12 1.208-.84.967-1.682 3.504c-1.08 3.383-1.201 3.624-2.162 4.47l.24.483-.84.363.6.12-.12.846-.6.846-.24 1.57.12.967-.24.121v.604l.24.242.12-.604.48.362.72.363 1.202-.725.72.12c1.201 0 1.442-1.087 1.682-1.328.96.604 2.282-1.209 3.723-1.209l1.441-1.691.6-1.45 1.082-.12v-.363h.72l.961-.725.48-1.45h-.72l.12-.725-.24-.362c.6-2.054.96-2.417 2.282-2.417l-.12-1.329h.36c.841-.604 1.081-.725 2.162-.725l-.12-.483-1.201-.483c.24-1.088.36-1.209 1.441-1.934.24-.241.6-.483.24-.966l.24-1.208c1.682-.967.721-1.934 2.283-3.02l.48-1.088h.6l.12-.363.601-.12v-.363l-1.681-.483.72-1.33.841.242c.36 0 .961-.483 1.682-1.087-2.883-1.33-2.883-1.692-.961-1.692l.36-.845 1.562.12.12-.241c-.48-.363-.6-.484-1.321-.484l.84-2.295.12-.363.721-.241.48.12c-.36-.724-.12-1.57.36-1.812h.481l.961-1.208 1.922-1.812 3.002-2.9c1.202-1.208 2.042-1.692 3.844-2.296.6.846.72 1.571.72 2.175 0 2.537-.84 5.679-2.882 9.908l-7.086 15.827c-.721-.12-.36.967-.6 1.088l-.241.845.12.604-.84 1.571-.361 3.02-.36 1.934c0 3.141 1.681 6.403 3.363 6.403l.72-.12 2.522-.604c.721-.363 1.682-1.088 2.643-2.054l5.885-6.283 6.846-6.041c.961-.846 1.922-1.933 3.123-3.625 1.08-.483 1.201-.725 1.802-3.02l-.721.12c-1.081.725-1.321.967-1.682 1.813l-1.681 1.087-3.483 3.504-1.682 1.57-2.642 2.175c-.24.242-.6.363-.96.363-.722 0-.962-.363-.962-1.208s.24-1.088 1.081-1.088l.12-1.329-.6-.483v-.242l.72-.362.36-2.296.601-1.329c0-.604.48-.966 1.321-1.208z"/>
        <path d="m340.366 44.87.24-.242.481-1.087-.36-1.33.36-1.45-.6-1.932.6-2.417-.12-.483h-.24c0-.967-.12-1.33-.6-1.933l.24-1.45h-.481l-.12.241h-.24c-.48-1.208-.601-1.57-.721-2.9l-.6.122-.24-.242-.241.12v-.724l-1.081-.363-1.441-.604-.48.121.12.604h-.601c-.12-.604-.24-.846-.961-1.087l-.24.725-.6.12c-2.163.121-2.163.121-3.003.605l-.961.725-2.162 1.691-2.402 2.658-1.322 1.208-2.402 1.813-2.882 3.262-5.165 5.558c-5.405 5.8-9.008 15.223-9.008 23.68 0 3.746 1.081 8.096 2.402 9.787 1.442 1.813 3.003 2.78 4.444 2.78 1.201 0 2.042-.242 4.444-1.209v-.362l.841-.121.36-.967 2.763-1.329.48-.725 4.444-4.35 1.682-1.812c.24-.483.36-.604.84-.604l1.682-2.175.36.121.36-.362c0-.483.12-.604.48-1.088l.241.242.36-.12c.961-1.934 1.202-2.296 3.243-3.867l-.24-.846h.6l.24-.241v-.363l1.803-2.537c-.24-.363-.36-.725-.36-.967 0-.362.24-.483 1.68-1.208l.481-1.208 1.081-2.538.12-1.087 1.201-2.658.24-1.208.24.241.12-.604-.36-.12v-.605l.48-.362-.12-1.087h.241zm-14.533-6.887c.48-.242 1.322.12 1.562.362 1.801 2.175 3.363 7.733 3.363 11.6 0 4.228-2.282 11.96-5.285 17.398-1.802 3.503-5.405 6.645-7.567 6.645-1.2 0-1.921-.967-2.282-2.9-1.2-.362-1.441-.604-1.32-1.933l.6.242c-.48-.967-.6-1.33-.6-2.296-.962-.242-.722-.483-.241-.846v-1.57c-.6-.121-.72-.242-.72-.484 0-.362.24-.604.48-.604.12 0 .24 0 .36.242l.36-.484-.12-.362-.6-.362v-.363l.96-.604v-.846c0-.483.24-1.57.721-2.658.12-.242.24-.725.48-1.208h-.36l-.36-1.208c.84-.242 1.321-.604 1.321-.846l-.48-.725h-.48l-.24-.967h.48l.72.484.48-.121c0-1.33.12-1.57 1.082-2.417l-.601-.241v-.484h.24l.12-.724h.721l-.36-1.209h.48l.24-.241h-.72l-.24-.363v-.483l.48.12.24-.724.48.483.721-.12.12-.846.36-.242-.12-.604-.36.604-.24-.846c.24-.242.48-.483 1.08-.362.241-.484.722-2.175 2.163-3.263l.12-1.45.96 1.088c.241-.242.481-.483.241-.967.48-.362.6-.604.72-1.329l.481.604zM351.983 58.643l.36-.725.84.242v-.604h-.48v-.362l-1.08-.121-.24-.484.72-.12.12-.967.96-.242.962.363-.24-.483c.96 0 1.08-.121.6-1.088l.36-.483-.72-.121-.36.483h-.24c.48-.845.96-1.45 1.44-1.45l.6.242.962-1.087.24-.846.12-.363-1.321.121c.12-.966.36-1.087 1.561-1.087l.6-1.208.481-1.209c-.36-.845-.12-.724 1.081-3.14l1.201-.605v-.483l-1.441.12v-.483h.6c1.082 0 1.322-.241 1.562-1.329h.36l.24-1.329.961-1.208.24-1.208h.24l.12-.363.241-.12.48-.967 1.081-1.33.24-1.328 1.442-2.9c.24-.242.24-.604.24-.846 0-.362-.36-.725-.84-.725l-.841-.12-1.081.483-1.201.241-.841.363-1.201.725-1.081.604-1.441.846-1.682.845-1.681 1.571c-.841 1.57-1.922 1.812-2.523 2.779l-1.561 2.537-.84 1.813-1.442 2.295-.72 1.692-.962 1.087-6.245 12.203a25.335 25.335 0 0 0-2.402 6.041l-.36.363-.36 1.208c-.241.967-.361 1.208-1.202 1.933l.24 1.812-.48.967c-.36.363 0 .846.24 1.087-.84.121-.96.242-.96.967l-.12 1.57.12.122v1.329l.24.241c-.481.725 0 1.208.36 1.692.72 1.812 1.441 2.658 2.162 2.175v.362l1.44.483 1.202.604c.24-.241.48-.604.96-.241l-.24.604.841.242.48-1.33.481.242c.12-.604.24-.725 1.201-1.087.961-.242 2.162-.967 3.483-2.054l3.483-2.78 5.285-4.107 2.402-2.537 4.805-4.23.84-1.57-.72-.12-2.883 2.416c-3.003 2.779-2.522 2.416-4.324 3.504l-5.405 3.503c-.48.363-1.44.605-1.921.605-.961 0-1.321-.484-1.562-2.296l.48-.12-.48-.847.721-.845-.36-.725.6-.242-.24-1.329.12-1.208.84.12.361-.966-.6-.362.36-.484h.72l.601-1.691-.6.483-1.322.725-.36-.362.24-.242h.24l.12-.483h.841l.12-.605 1.322-.241-.24-.725.6-.846zm.36-1.933 1.922.363-.12-.604c-.6-.484-.841-.605-1.442-.605zm11.05-36.367.12-.363.72-.362c.721 0 1.082-.242 1.442-.725.6.362.84.362 1.441.362h.84l.361-.845h1.201c.36-.605.48-.725.841-.967l2.042-.483.96.12v-.604l.962-.12c.48-1.088.6-1.45.72-2.538l.24-.12.841-.605-.24-.483.36-.483h-.6c-.36-.121-.36-.725.12-.725h.96c0-.604.12-.846.601-1.208v-.725l.36-.121c0-.725.12-1.087.961-3.02l.36-.967c-.48-.846-.72-.967-1.8-.967v-.241h-.721l-1.562.483-1.08.362-.721.242-.36.604-.601-.362c-.36.725-.961.845-1.442.845l-.48.242-.12 1.208-.84-.483c-.361 0-.962.604-1.442 1.57l-2.522 3.625-1.682 3.263-.48 1.57.48 1.33h-.72l-.12 1.328c0 .242.24.604.6.363zM377.819 67.705l.24-1.691-.48-1.209.84-2.779V59.49l.961-1.57-.12-.846.72-.967.12-.604-.12-.725.601-.242.24-2.295.601-.121.72-.846-.12-.846.24-.12.361-1.209h.36c.12-.725.24-.966.841-1.329h.36v-.362l-.36-.12.72-1.45h.481l-.48-.847.96-.724 1.442-2.054 1.441-1.813.6-.966.241-.121.6.12c.841 1.934 1.081 3.263 1.081 5.92l-.12 2.297-.48 2.416c0 .362.36 1.087.84 1.812v.363h.481c.84-.967 1.321-1.208 2.042-1.208l1.802-2.175 2.041-2.054 1.322-.725.6-1.208.72-.484.601-1.329h.961c.36-1.087.6-1.208 1.561-1.208v-.362h-.24l.12-.242.48-.362-1.2-.725 1.32-1.33-1.56-.12.96-.725.721-.121v-.604l-.96.362v-.845l.84-.121-.12-1.57h-.6l-.12-.605.48-.846-1.081-.241.24-.605v-.483c-.84-.725-1.081-.966-1.562-1.933l-.36-.242c-1.2-1.087-1.801-1.329-3.363-1.329-1.2 0-1.801.242-2.642 1.33l-.72.12-.481.846-1.562.725-1.681 1.691-4.444 3.504-1.321 1.45-3.003 2.537c-2.642 2.417-5.285 5.679-9.128 11.358-1.561 2.537-1.802 2.779-3.483 6.282l-.6 1.088-.841 3.02-1.081 4.108-.48 4.23-.121 1.69c0 1.692.24 2.9.36 3.384l.48.845.241 1.33.48 1.57 1.081.967 1.201.483.841.967 1.682.362c2.402 0 4.924-1.087 7.566-3.383l3.243-2.779 2.042-1.57 5.285-5.438 1.922-1.812 1.921-2.054 2.522-2.9.36-.845-.36-.121.841-.725-.36-.363-.96.846c-3.844 3.987-7.327 6.887-9.97 8.458-2.762 1.57-4.324 2.174-5.525 2.174-.48 0-.84-.12-1.32-.724-1.082-1.571-1.442-2.538-1.442-3.746zM398.5 71.813l-.48.12.6.363c.12.484.24.967.24 1.208 0 .242-.12.725-.48 1.33h.84v.483l.12.241-.24 1.209c0 .241.12.845.481 1.45h.96l.241.483h-.48l-.24.241.6.846v.242l.72.242.841-.242.48.362-.84.242c1.201.967 1.682 1.087 2.883 1.208l-.24.363 3.963.12.36-.724.36.12c.24 0 .481-.12.841-.362h1.321c.12-.846.24-1.087 1.081-1.087v.483c.48-.242.48-.242 1.562-1.088l1.441-.966v-.604c.6 0 .84-.121 1.321-.604l2.402-2.054c1.922-1.571 3.243-2.658 3.604-3.142l5.765-6.04 3.723-3.021c1.441-1.209 1.682-1.813 1.682-3.02v-.726h-.48l-.721.846c-4.685 4.47-6.006 5.679-9.85 8.337-3.963 2.779-6.485 3.987-8.527 3.987-2.042 0-3.723-1.933-4.204-4.833l-.12-.967.24-4.228-.36-.605.12-.483h.48l-.12-.362.361-.484-.6-.12-.24-.484.24-.483.72.242-.24-.363.72-2.295h.601c.96 0 1.922-.363 3.363-1.33 2.042-1.329 2.762-1.691 4.684-2.054.24-.362.48-.483 1.201-.483l1.442-.966 3.122-1.209 2.042-1.812 1.802-.604v-.846l.72.242c.6-.604.841-.725 1.682-.967-.961-.483-.72-.725-.48-.966l1.56-.242.962-1.208.96-.483.24-.846c.601-.121.601-.121 1.082-1.088l.48-.966-.12-.242c.12-.362.24-.362.6-.362l.481-1.088.6-1.329.481-1.329-.36-.483.48-.242-.24-.966h.24l.12-.846c0-3.141-2.522-5.8-5.525-5.8-1.561 0-5.525 1.45-7.687 2.78l-2.882 1.933-3.483 2.416-2.042 1.812-.6.121c-3.243 2.9-3.364 2.9-4.565 3.625l-.84 1.087-3.484 3.504-1.56 2.054-1.923 2.416c-1.2 1.571-2.282 3.625-2.762 5.437h-.36c-.24.725-.36 1.209-.48 1.45l-.481.846.12.967-.48 1.087c-.841.725-1.562 2.9-1.562 4.108 0 .242 0 .604.24 1.208h-.24c-.12.604-.12.967-.48 1.45l.36.242c-.36 1.087-.48 1.57-.48 2.416v.846c.36.362.72.604.6 1.329zm13.092-17.157.36-.604.72-.12-.36-.846.12-.363h.48l.241-.12v-.484c-.72 0-1.08.12-1.561.362.36-.724.6-.845 1.681-.845.72-1.813 1.081-2.175 2.162-4.35.36-.242.6-.362.84-.966h.722c.12-.363.24-.484.6-.605-.6 0-.72-.12-.96-.604l.36-.362.36.12.84-.845c.841-1.33 1.802-1.692 2.042-2.417.961-.483 1.081-.845 1.201-1.57l3.123-2.054-.24-.242-.24.242-.48-.242.84-.241c.48-.484.961-.725 1.321-.725 1.442 0 2.763 1.933 2.763 4.108 0 2.778-1.682 5.557-4.804 8.457-2.763 2.537-5.646 3.746-12.131 5.316zM95.92 9.663c-.6-1.442-1.801-1.562-2.762-1.803-1.201-.48-2.042-.72-2.042-.72l-2.762-.482-1.321-.48H85.83l-.36.36-1.561-.12-.12-.48-1.201.24h-4.204l-2.883.36c-.6.36-.6.36-1.921.36l-1.081-.12-1.682.842-2.042.721-1.681 1.443-.961.6c-1.201.842-3.363 4.208-4.924 5.89l-.961.962-.12.601.48 1.202.36-.12.36.24v.481c.721 0 .962-.12 1.322-.48h.72l.36-.361 1.082.36-.961 1.082-1.321 2.645c-.6.721-.72.961-1.081 1.803l-.6.24c-.241.962-.361 1.322-1.322 2.164 0 .36-1.321 1.803-1.681 2.885l-.601.841-.24.601-.48.481-4.565 8.054-1.08 1.682-.721 1.804-1.442 2.644-4.083 8.054-.48 1.442-.721 1.563-.12.841-.48.601-.962 1.082-1.801 3.967-2.042 3.846-.24 1.322-.48 1.082-.481 1.082-.6 1.202-.601 2.404-.841 2.044-.48 2.163-.36.842-.12 1.202c0 1.803.72 3.125 1.68 3.125l1.082-.36 1.44-1.082 1.082-.12 1.561-.962c1.562-.36 3.603-1.563 4.684-2.645 1.922-1.803 1.682-1.562 2.643-1.923v.48l.72.121.36-.24v-.481l-.84-.12.24-1.202c.6-.481.841-.601 1.441-.601l.12-.481-1.2.24c.12-1.442.36-1.803 1.801-2.043l.36-2.645c.24-.721.48-.721.841-3.125l.36-.48c1.322-1.203-.72-.962.841-2.645-1.32.6.841-1.443.841-1.443l.48-1.082h.36l.12.601.962-.36v-.36h-.48l-.24-1.443.84-.842 1.08-.36-.48-.24-.12-.602.12-.36 1.081-.481.12-.48.36-.602-.48-1.082.12-.6c1.322-.361 1.682-.602 2.403-1.443l.96-.481 2.042.12 2.883-1.923.96.48.361-.24 2.642-.24 1.562-.36v-.361h-.36l.24-.842.96.24.12.361 1.202-.36.48-1.443.6-.24.24.24.842.12.6-1.202.961-.6.72.36.601-.12 2.042-1.563c1.08-.48 1.441-.6 2.642-.841l.6-1.082c4.325-1.803 1.802-1.683 5.045-1.803 1.442-1.202 1.562-1.322 2.282-1.443.36-.72.36-.841 1.562-.961l.96-.36-.36-.241v-.962l1.081-.24c1.562-1.202 1.682-1.202 1.922-1.202-1.561 0 4.204-3.727 4.324-4.568l1.2-.601.601-.24v-.361h-.84l.24-1.082 1.2-.48v-.241l-.48-1.443.48-1.562.722-.24.36-1.563-1.441.24-.24-.6.6-.482.72.24h.481l.24-.72-.36-1.323.36-1.442h-1.08l.24-1.082-.841-.24.36-.842-.24-.6h-.48l.48-1.203-2.042-.48c-.72-1.082-.72-1.203-.48-1.924l-.841-.962-.6-.12-1.322-1.322zm-17.055 7.453h-.36l.12-.24c3.363.24 5.165.48 6.846 1.081 3.483 1.323 5.645 3.967 5.645 6.852l-.12 1.563.24.24v2.164l-1.441 1.082-.6 1.202-2.403 2.884c-.36.722-3.483 2.885-5.645 3.967l-1.32 1.202-2.883 1.322c-.601.601-.721.722-1.442.601l-.84.722-3.844 1.562-.96.722h-.601c-.841.6-1.081.72-2.042.841v.24l-1.321.361-1.922.601-1.081-.12c0-.481.12-.721.6-1.202l.12-.842c.361-.841.601-1.081 1.202-1.562l-.48-.24.12-.361 1.32-1.683c.481-1.202.12-1.202.36-2.164.481-.841 3.124-2.163 1.442-3.245 0-.481.12-.601.6-.842l.481.36.6-.24.601-3.726c.6.481 1.201.721 1.562.721.12 0 .24 0 .48-.12v-.24c-.84 0-1.08-.12-1.441-.481.36-.601.6-.601 1.2-.601l.481-.962-.24-.72c-.48-1.203.12-.602 1.081-2.044h.36v-.24l-.48-.361c1.321-1.323.36-1.803.96-1.803.241 0 .721-.361.842-1.202.24-.601.36-.842.96-.842.12 0-1.32-2.765.961-1.322.36.36.6.12.72-.24.481-2.164 2.163-1.082 1.562-2.645zM93.725 62.192l-.48 1.202c.24.842-.48.962-.96 1.202l.36.842-.36.24c.72 1.202 0 1.683-.722 2.164.601.961-.12 1.202-.6 1.562l.48.481-.24 1.082-.36 1.202.24.962h.36l.12.48-.96.481c0 .36 0 .842.36 1.202-.96.962.84.722 1.201.842l-1.441.721-.24.601h.48l.24 1.202-.6.36.72.241-.12.962 1.081.841 1.682.12.36.36-.6.121v-.24h-1.682c-.36.6-.12.72.96 1.202l1.202-.12 1.2-.601.962-.24.72-1.083.721.24.96-.72 2.043-.842v-.48l3.363-2.886 3.843-3.245 1.682-1.803 6.966-6.491 2.402-2.164 2.642-3.245 1.802-1.924-1.922.962-9.488 7.934-1.922 1.322-1.321.841c-2.883 2.164-3.483 2.404-5.165 2.645l-.24-.842.6-.36-.6-.361c.96-.48 1.081-.721 1.321-1.563l-.36.361-1.081-.12-.12-.36 1.321-.842-.12-.842c.96-.48 1.08-.72.96-1.923l.481-.48-1.2-.241c-.121.6-.361.841-.962.721l.6-1.322.481.24c.841 0 1.201-.12 1.682-.36v-.722h-1.442l.24-.72 1.922-.121-.12-.24-.72.12-.841-.721 1.2-1.683c.601-1.202.962-1.443 2.043-1.443l-.24-1.202-.841-.12v-.601l-.72.12.12-.48.96-.12-.96-.842.6-.12v-.24h.36c.48.24.96.48 1.441.24-.96-.24-1.08-1.082-1.08-1.803l2.041-.481v-.481h-.96l-.601-.24-.6.12v-.601l.84-.24c3.483-.722.96-2.765 2.042-3.366l.6-.722.48.24.361-.36c0-.6.12-.721.72-1.082v-.841l-3.002.48.12-.6c.841-.12 1.081-.36 1.321-.962l2.403-.48.12-.361h.48l-.12-.601-.48-.12c-1.562-.602-1.081-1.443-.721-1.563l1.561-.24 1.081-.481-.6-.12v-.481l.6-.12.12.36V37.31l-.36.12-.6.601h-.36l.24-.961c0-.601 1.44-1.082 1.44-1.443l-.48-1.322 1.201-.24.721-.842-1.081.12.36-1.322c1.562-1.202 2.763-1.202 2.282-2.163l.6-.481-.24-.24.24-.361-.96.12.84-1.322c.361-1.082-.36-2.404 1.922-2.885l1.081-1.202-.6-.36.12-.121v-.841c.84-.24.96-.481 1.081-1.443 1.321-1.563 1.321-1.683 1.802-2.524l.36-1.202.84-.481-.48-.601.36-.12.481-.962 1.681-2.524.48-1.322 1.082-1.563c.6-.721.96-2.043.96-3.125l-.12-1.683-.6-.48-1.201.12-1.081.72c-.84 0-1.08.12-1.681.481-.48.601-.601.722-1.682.842l-2.522 1.322-.961.12v.36l-.96.482-.962 2.043-1.08 1.923-1.082 2.645-.84 1.322-3.243 6.01-.6 1.322.12.481-.721.601-.48 1.082c-1.442 3.005-1.562 3.125-1.923 3.366l-.72 2.284-.961.961-.84 1.683-.721 1.202-1.682 3.366-.12.48h-.12l-.961 1.924-1.201 2.885-1.682 2.524-.48 1.082-.96 2.404-.842 1.082-.72 1.322v.962l-.6.48-1.082 2.765-.6 1.563v.961h-.36l-.481.601c-.24 1.082.12 1.803-.72 2.284z"/>
        <path d="m120.044 79.261.24 1.202c.24.48.72.842.84.842.962.36.842 1.081 1.082 1.202.6.36 1.441.48 2.162.48l1.2-.6.241.24c1.441 0 1.802-.24 2.522-1.202l2.282-1.202.12-.842c1.081-.12 1.322-.36 1.922-1.322h.24c1.081-1.202 1.321-1.322 2.162-1.563l.961-1.803.72-.12c.12-.48.12-.721.601-1.082l.36.481c.36-1.082.601-1.442 1.442-1.803v-.6c.36-.602.84-1.083 1.08-1.083l.361-.12c.36 0 .6-.48.84-1.202l-.12 2.404-.12 2.164v.72c0 1.564.24 3.367.962 5.77.36 1.323.84 1.924 1.56 1.924 1.322 0 3.724-.721 4.805-1.322l1.562-1.202 1.08-.481.961-1.563 2.403-2.043 2.161-2.164 2.282-3.005.601-.962 1.201-1.081.96-2.164 3.004-2.885 1.2-1.923h-.6l.24-.721-1.2.72-1.922 2.164-3.243 3.006-3.003 4.447c-.6.601-1.561 1.082-2.282 1.082-.84 0-1.321-.721-1.321-1.803l.12-4.207v-1.563h.24l.48-1.082-.6-1.202c.6-.48.72-.961.72-1.322.24-1.322.481-1.442 1.082-1.923v-1.202l.6-1.924.961-1.081v-1.803c.84-1.803.84-2.044.84-3.126l.601-.961.961-2.765 1.081-1.322.6-1.563.601-.48.6-1.083.721-1.322.12-.6.48-.722-2.04-.12.6-1.322-1.201.48.12-.72-.48-.482.6-2.163h-.24l-.961-3.005h-.24c-1.202-2.404-2.403-3.246-4.805-3.727-.72-.48-1.08-.6-1.801-.6-2.042 0-3.363.48-4.685 1.562l-.24-.12-2.882 2.644-6.486 4.808c-1.682 1.323-5.405 4.808-7.687 7.453-2.162 2.524-2.883 3.606-4.084 6.01h-.12l-1.2 2.164h-.241l-.6.961-.36 1.202-1.682 3.366c-3.604 9.857-2.883 9.737-3.003 11.059l.24.36-.48.601-.24 2.164.84.962-.24 1.322-.36.12-.12 1.082c0 .721.12.962.96 1.322v.36l.12.241v.601l-.36.481zm11.29-14.665-.6-1.442.72-1.082-.6-.24v-.601l.36-.361.24-1.803.36-.721c.841-.962.6-1.202.721-2.284l.6-1.443.36-.961.721-1.443.601-2.764.84-1.202c.721-3.126 1.202-4.087 2.403-5.41l.72-.961c1.322-2.164 1.442-2.284 2.523-3.246l.72-1.081c.841-1.202 1.562-1.803 2.282-1.803 2.403 0 4.565 4.447 4.565 9.255 0 1.683-.24 3.246-.601 4.688l-3.723 8.655-2.282 7.693-7.207 6.01c-.72.6-1.321.721-2.522.721-1.201-2.043-1.561-2.765-1.561-4.207l.12-1.202h-.24l-.24-.841.48-.361z"/>
        <path d="m190.741 81.064.601-1.082-.6-.24v-.36l.84-.482-.36-.6 1.08-2.164.12-.842.481-.12.36-1.442.962-.842.12-.48h-.24v-.361l1.2-1.923-.12-.361-.6-.12v-.481l.96-.12.481-1.082h-.48v-.48l.72-.121c.721-.962.841-1.322.961-2.164h.24v-.841h-.72c0 .36 0 .48-.36.962l-.481-.12c.6-1.083.84-1.323 2.402-1.684v-1.081l.6-.361c0-.721.601-1.803 2.523-2.765l3.963-1.923 1.562-.721 1.08-.721 2.283-.722c.24-.12.48-.36 1.2-1.803h-2.641l-3.003 1.082-2.282.721-1.201.722-1.081.48v-.6c.6-.12.72-.241 1.08-.962l-.24-.24c.481-.842.601-1.082 1.442-1.443v-.36l.72-1.563.841-1.323.24-1.202.601-.48c0-.962-.12-1.202.6-1.924l.841-1.081-.24-.361.36-.24v-.722c1.682-1.562 1.802-1.923 2.403-3.486l1.56-2.283-.36-.601 1.082-.962 1.32-3.005 1.442-2.284.96-2.524.361-.962-1.441-.6-.72.12-1.442.96-4.684 1.804-1.802 1.442-1.08.481c-.721.24-2.043 2.284-5.285 7.813-1.802 3.006-2.643 4.568-3.243 6.491h-.24l-5.285 10.458-1.562 4.087-1.561 3.125-2.402 2.044-2.402 2.284c-1.321 1.202-3.483 2.163-4.925 2.163-1.2 0-2.642-1.923-2.522-3.486l.24-1.322.12-1.563-.48.24.12.361h-.6l.12-1.081.72.24c.48-.721.6-1.082.6-1.683-.24-.36-.48-.841-.48-1.082l.12-.12h.36l.721-.24c-.48-.601-.48-.842-.72-1.683l1.801-1.082c-.36 0 .36-1.683-.12-2.164.841-.48 1.081-.6 1.682-1.562v-.36l-.72-.482v-.24h-.241l.24-.48c.961-.121 1.201-.361 1.802-.962l-.12-.24v-.722l1.08-.24v-.361h-.36l-.12-.36 1.321-.602-.24-.36.72-1.082c1.082-1.202 1.082-1.202 1.082-1.923-.36-1.323.12-1.082.6-1.082l1.321-1.443.961-1.803c.12-.12.48-.36 1.322-1.803.36-1.322.6-1.683 1.56-2.404v-.961c1.322-1.202 1.682-1.683 2.523-3.486 1.562-2.044 1.922-2.885 2.282-4.808-.36-.24-.48-.361-.72-.361s-.36 0-.601.12l-.84.48-1.922.842-.961.842-2.883 1.562-3.723 2.525c-.84.6-.6.36-1.922 2.043l-2.282 2.404-1.922 2.524-3.363 4.328-1.681 3.005-2.162 4.688-1.321 1.683-1.081 2.404-.6 2.163-.962 2.044-.48 3.967-1.081 1.803-.12 2.043-.12 1.563.36 1.562s-.12.24-.24 2.645c.6.24.72.36.84.961h-.24l-.12.24.721.962.12.842.72.36c.241.842.361.962 1.082.962v.36l-.841.842-4.204 3.606c-7.807 6.852-12.611 14.304-12.611 19.714 0 3.005 1.321 5.65 3.363 6.851.84.48 1.922.962 4.804.962 1.682 0 2.162-.481 3.123-1.202v.36l.48-.12.961-.841 2.162-1.082.6-.721.601-.24 1.922-1.804 1.201-.6v-.482c.96-.24 1.201-.36 3.723-2.404l.12-.841.721-.12.72-.842 2.043-1.442c2.162-1.563 1.681-1.923 2.642-2.284l.72-1.082 1.802-.962.36-.84-.48-.722c.72-.24.961-.36.961-1.322l1.441-.24v-.842l.841.36.48-.12-.12-.6 1.081-2.285.6-.6c.241-.722.481-.962 1.322-1.323l-.36-1.082h-.721c.72-1.442 1.081-1.683 2.522-1.683l.48-.48-.24-.601.721-.601v-.842zm-6.245-9.977.48.24c-.72 3.607-2.282 8.054-4.564 12.141l-3.843 7.212-1.081 2.044c-3.363 5.53-7.567 9.255-10.57 9.255-.6 0-1.2-.24-2.402-.6v-.722c-1.08-1.082-1.32-1.562-1.32-3.005 0-4.207 1.08-6.25 5.764-12.14l.841-1.082-.12-.24 1.321-.602.24-.72 1.081-.842 3.724-3.366 5.044-3.726c.6-.842.48-.721 2.162-1.202l1.441-1.563z"/>
    </g>
</svg>
