<?xml version="1.0" encoding="UTF-8" standalone="no"?>
<!-- Created by ERK -->

<svg
   width="2401.4749mm"
   height="392.90253mm"
   viewBox="0 0 2401.4748 392.90253"
   version="1.1"
   id="svg1"
   inkscape:version="1.3.2 (091e20e, 2023-11-25, custom)"
   xml:space="preserve"
   sodipodi:docname="pocketchallengev2.svg"
   xmlns:inkscape="http://www.inkscape.org/namespaces/inkscape"
   xmlns:sodipodi="http://sodipodi.sourceforge.net/DTD/sodipodi-0.dtd"
   xmlns="http://www.w3.org/2000/svg"
   xmlns:svg="http://www.w3.org/2000/svg"><sodipodi:namedview
     id="namedview1"
     pagecolor="#ffffff"
     bordercolor="#000000"
     borderopacity="0.25"
     inkscape:showpageshadow="2"
     inkscape:pageopacity="0.0"
     inkscape:pagecheckerboard="true"
     inkscape:deskcolor="#d1d1d1"
     inkscape:document-units="mm"
     inkscape:zoom="0.19283302"
     inkscape:cx="4667.2505"
     inkscape:cy="878.99884"
     inkscape:window-width="2560"
     inkscape:window-height="1351"
     inkscape:window-x="-9"
     inkscape:window-y="-9"
     inkscape:window-maximized="1"
     inkscape:current-layer="svg1"
     showguides="true" /><defs
     id="defs1"><marker
       id="DistanceX"
       orient="auto"
       refX="0"
       refY="0"
       style="overflow:visible"><path
         d="M 3,-3 -3,3 M 0,-5 V 5"
         style="stroke:#000000;stroke-width:0.5"
         id="path1" /></marker><pattern
       id="Hatch"
       patternUnits="userSpaceOnUse"
       width="8"
       height="8"
       x="0"
       y="0"><path
         d="M8 4 l-4,4"
         stroke="#000000"
         stroke-width="0.25"
         linecap="square"
         id="path2" /><path
         d="M6 2 l-4,4"
         stroke="#000000"
         stroke-width="0.25"
         linecap="square"
         id="path3" /><path
         d="M4 0 l-4,4"
         stroke="#000000"
         stroke-width="0.25"
         linecap="square"
         id="path4" /></pattern><symbol
       id="*Model_Space" /><symbol
       id="*Paper_Space" /><symbol
       id="*Paper_Space0" /><marker
       id="DistanceX-0"
       orient="auto"
       refX="0"
       refY="0"
       style="overflow:visible"><path
         d="M 3,-3 -3,3 M 0,-5 V 5"
         style="stroke:#000000;stroke-width:0.5"
         id="path1-9" /></marker><pattern
       id="Hatch-4"
       patternUnits="userSpaceOnUse"
       width="8"
       height="8"
       x="0"
       y="0"><path
         d="M8 4 l-4,4"
         stroke="#000000"
         stroke-width="0.25"
         linecap="square"
         id="path2-8" /><path
         d="M6 2 l-4,4"
         stroke="#000000"
         stroke-width="0.25"
         linecap="square"
         id="path3-8" /><path
         d="M4 0 l-4,4"
         stroke="#000000"
         stroke-width="0.25"
         linecap="square"
         id="path4-2" /></pattern><symbol
       id="*Model_Space-4" /><symbol
       id="*Paper_Space-5" /><symbol
       id="*Paper_Space0-5" /><marker
       id="DistanceX-9"
       orient="auto"
       refX="0"
       refY="0"
       style="overflow:visible"><path
         d="M 3,-3 -3,3 M 0,-5 V 5"
         style="stroke:#000000;stroke-width:0.5"
         id="path1-5" /></marker><pattern
       id="Hatch-43"
       patternUnits="userSpaceOnUse"
       width="8"
       height="8"
       x="0"
       y="0"><path
         d="M8 4 l-4,4"
         stroke="#000000"
         stroke-width="0.25"
         linecap="square"
         id="path2-1" /><path
         d="M6 2 l-4,4"
         stroke="#000000"
         stroke-width="0.25"
         linecap="square"
         id="path3-2" /><path
         d="M4 0 l-4,4"
         stroke="#000000"
         stroke-width="0.25"
         linecap="square"
         id="path4-3" /></pattern><symbol
       id="*Model_Space-3" /><symbol
       id="*Paper_Space-4" /><symbol
       id="*Paper_Space0-1" /><marker
       id="DistanceX-5"
       orient="auto"
       refX="0"
       refY="0"
       style="overflow:visible"><path
         d="M 3,-3 -3,3 M 0,-5 V 5"
         style="stroke:#000000;stroke-width:0.5"
         id="path1-7" /></marker><pattern
       id="Hatch-5"
       patternUnits="userSpaceOnUse"
       width="8"
       height="8"
       x="0"
       y="0"><path
         d="M8 4 l-4,4"
         stroke="#000000"
         stroke-width="0.25"
         linecap="square"
         id="path2-4" /><path
         d="M6 2 l-4,4"
         stroke="#000000"
         stroke-width="0.25"
         linecap="square"
         id="path3-1" /><path
         d="M4 0 l-4,4"
         stroke="#000000"
         stroke-width="0.25"
         linecap="square"
         id="path4-20" /></pattern><symbol
       id="*Model_Space-0" /><symbol
       id="*Paper_Space-1" /><symbol
       id="*Paper_Space0-4" /></defs><path
     id="path28"
     style="display:inline;fill:#432671;fill-opacity:1;stroke:none;stroke-width:0.944827;stroke-linecap:round"
     inkscape:label="PocketChallengeVOuttline"
     d="m 479.83234,11.373371 33.18661,50.141642 -1.98438,11.858191 h -43.59529 l -64.20381,61.999836 h 94.81902 l -11.94089,64.42139 -11.05979,84.01038 c -1.30562,9.91503 -0.37952,18.88564 5.63221,29.06747 6.01178,10.18184 16.4637,17.50077 29.068,17.50075 h 162.94097 l 7.22849,-34 h 40.25387 l -8.47751,34 h 132.85028 l 19.23758,-34 h 24.29931 l 9.75029,34 h 386.392 l -12.7212,62.5295 86.9265,-42.39844 10.4536,-59.27648 29.9057,39.14542 h 69.7626 l 0.7064,-5.02502 c 5.4538,3.28779 11.7015,5.02504 18.0692,5.02502 h 98.3454 c 5.1401,2e-5 10.2291,-1.01572 14.9748,-2.98897 l -0.3147,2.98897 h 314.8278 29.3977 215.8287 l 38.5098,-84.49976 h -35.1922 c -9.3169,10.83522 -16.3255,17.50021 -25.8976,17.50023 h -37.4701 l 40.9815,-20.43286 c 13.1019,-6.53238 26.878,-14.07587 40.6993,-25.60154 6.9107,-5.76284 12.7776,-11.90401 17.7302,-20.59099 4.9527,-8.68699 8.0629,-19.09937 7.1174,-29.78837 -0.9455,-10.68899 -5.5967,-21.06218 -12.8447,-28.85095 -7.248,-7.78876 -17.4531,-12.4089 -25.7886,-14.71279 -12.1904,-3.36936 -23.843,-4.47084 -35.587,-4.8054 l 34.5338,-17.21755 h 103.3384 l 130.9528,-89.999679 h -284.8106 l -77.5389,31.32832 -102.8356,141.539169 -89.0881,67.13233 h -29.4028 l -3.5905,-6.751 102.3886,-233.248819 H 1790.126 l -37.6928,157.000239 -243.3422,-5.3e-4 c -6.2956,-3e-5 -12.5246,1.29246 -18.3012,3.79719 l 10.033,-71.3822 -77.8485,36.30114 -10.8826,82.66576 -37.3326,-51.38136 h -79.608 l 48.5091,-26.33844 12.1073,-68.661966 h 43.3436 l 54.8535,-61.999833 H 857.4408 C 845.29738,11.37336 833.64645,16.174899 825.02934,24.731212 818.3933,16.296777 808.2542,11.373355 797.52249,11.373371 Z" /><g
     inkscape:label="PocketChallengeV"
     id="g196"
     transform="matrix(0.26458333,0,0,0.26458333,2.8866029,95.873287)"
     style="display:inline;stroke:none"><path
       id="path23"
       style="display:inline;fill:#ffffff;fill-opacity:1;stroke:none;stroke-width:3.571;stroke-linecap:round"
       inkscape:label="P"
       d="m 1901.1003,-266.45765 82.5898,124.77539 -18.3398,109.55664 H 1777.1608 L 1644.0905,96.378287 h 291.0293 l -43.7793,236.218753 198.5801,-92.59766 21.459,-143.621093 h 314.5488 c 39.0392,-2.5e-5 72.2823,-28.394193 78.3906,-66.955078 l 34.4004,-217.207039 c 6.5419,-41.30228 -25.3758,-78.67365 -67.1914,-78.67382 z m 242.6094,128.5039 h 235.8691 c 10.9538,1.2e-4 19.6125,9.28764 18.8496,20.2168 l -3.7793,53.968751 c -1.2426,17.822017 -16.0638,31.642594 -33.9297,31.642579 h -236.6289 z"
       transform="translate(-7.9653544e-6)" /><path
       d="m 2553.1296,-266.45765 c 19.8637,17.62747 22.3349,47.2196 18.0312,71.62304 l -57.1191,323.93946 c -10.2003,57.85497 34.3058,110.89453 93.0508,110.89453 h 441.5176 c -14.8389,-23.9257 -24.1797,-52.82743 -19.6817,-81.21484 l 52.8125,-333.45508 c 7.6321,-48.18637 -29.607,-91.78696 -78.3926,-91.78711 z m 163.0801,128.5039 h 215.209 c 11.6824,1e-4 20.5668,10.49511 18.6386,22.01758 l -33.3105,199.031254 c -2.7431,16.391841 -16.9291,28.400396 -33.5488,28.400396 h -215.209 c -11.6827,4e-5 -20.5669,-10.49321 -18.6387,-22.01563 l 33.3105,-199.03125 c 2.743,-16.39198 16.9289,-28.40225 33.5489,-28.40235 z"
       style="display:inline;fill:#ffffff;stroke:none;stroke-width:3.571;stroke-linecap:round"
       id="path27"
       inkscape:label="O" /><path
       id="path50"
       style="display:inline;fill:#ffffff;fill-opacity:1;stroke:none;stroke-width:3.571;stroke-linecap:round"
       d="m 3229.8104,-266.45685 c -59.4915,1.3e-4 -110.1489,43.26562 -119.4579,102.02497 L 3065.0286,121.757 C 3056.5412,175.33462 3089.1943,240 3143.42,240 h 388.25 l -66.89,-128.504 -198.0518,3e-5 c -21.2716,6e-5 -37.3242,-19.301079 -33.4481,-40.214612 l 35.9175,-193.780388 c 1.6575,-8.95615 9.4701,-15.45379 18.5806,-15.45391 l 488.6418,-1.2e-4 102.22,-128.504 z"
       inkscape:label="C"
       sodipodi:nodetypes="ccccccccccccc" /><path
       id="path60"
       style="display:inline;fill:#ffffff;fill-opacity:1;stroke:none;stroke-width:3.571;stroke-linecap:round"
       d="m 3609.21,-92.5984 h 157.41 L 3722.83,240 H 3556.54 Z M 3992.4,-15.1181 4161.26,240 H 3945.83 L 3781.38,-13.2283 3997.66,-266.457 h 213.23 z"
       inkscape:label="K"
       sodipodi:nodetypes="cccccccccccc" /><path
       id="path72"
       style="display:inline;fill:#ffffff;fill-opacity:1;stroke:none;stroke-width:3.571;stroke-linecap:round"
       d="m 4240.95,-266.457 h 500.78 l -83.45,128.504 H 4385.3 l -9.03,64.2522 h 252.66 l -51.11,109.6063 h -216.96 l -10.62,75.5905 h 324.54 L 4748.98,240 h -561.26 z"
       inkscape:label="E"
       sodipodi:nodetypes="ccccccccccccc" /><path
       id="path80"
       style="display:inline;fill:#ffffff;fill-opacity:1;stroke:none;stroke-width:3.571;stroke-linecap:round"
       d="m 4902.55,-137.953 h -216.54 l 81.86,-128.504 h 599.06 l -113.69,128.504 h -184.39 l -49.04,278.1 -183.9,99.853 z"
       inkscape:label="T"
       sodipodi:nodetypes="ccccccccc" /><path
       id="path92"
       style="display:inline;fill:#ffffff;fill-opacity:1;stroke:none;stroke-width:3.571;stroke-linecap:round"
       d="m 2294.1588,833.386 -378.4446,-9e-5 c -53.2516,-8e-5 -85.6626,-63.19142 -78.6849,-116.18682 l 37.5328,-285.11132 c 7.9242,-60.1749 59.2184,-105.15865 119.9101,-105.1587 l 661.1778,-7e-5 -83.45,128.504 -518.31,4e-5 c -9.4834,6e-5 -17.4981,7.02876 -18.7359,16.43099 l -25.62,194.56207 c -2.6823,20.37406 13.1749,38.45577 33.7247,38.45584 l 190.98,6e-5 z"
       inkscape:label="C"
       sodipodi:nodetypes="ccccccccccccc" /><path
       id="path104"
       style="display:inline;fill:#ffffff;fill-opacity:1;stroke:none;stroke-width:3.571;stroke-linecap:round"
       d="m 2392.53,495.118 h 168.08 l -18.96,66.142 h 255.5 l 43.43,-234.331 h 172.97 l -93.86,506.457 h -172.98 l 32.04,-128.504 h -262.72 l -27.32,128.504 h -168.08 z"
       inkscape:label="H"
       sodipodi:nodetypes="ccccccccccccc" /><path
       id="path115"
       style="display:inline;fill:#ffffff;fill-opacity:1;stroke:none;stroke-width:3.571;stroke-linecap:round"
       d="m 3385.51,704.882 36.85,128.504 h 194.65 L 3481.3,326.929 H 3252.03 L 2953.7,833.386 h 196.54 l 72.7,-128.504 h 162.57 m -114.87,-98.268 69.33,-136.063 26.44,136.063 z"
       inkscape:label="A"
       sodipodi:nodetypes="ccccccccccccc" /><path
       id="path121"
       style="display:inline;fill:#ffffff;fill-opacity:1;stroke:none;stroke-width:3.571;stroke-linecap:round"
       d="m 3723.68,326.929 h 149.29 l -56.48,377.953 h 136.7 l 49.33,128.504 h -359.06 z"
       inkscape:label="L"
       sodipodi:nodetypes="ccccccc" /><path
       id="path127"
       style="display:inline;fill:#ffffff;fill-opacity:1;stroke:none;stroke-width:3.571;stroke-linecap:round"
       d="m 4397.48,833.386 h -368.5 l 80.21,-506.457 h 149.29 L 4202,704.882 h 146.15 z"
       inkscape:label="L"
       sodipodi:nodetypes="ccccccc" /><path
       id="path139"
       style="display:inline;fill:#ffffff;fill-opacity:1;stroke:none;stroke-width:3.571;stroke-linecap:round"
       d="m 4490.61,326.929 h 487.56 l -68.32,128.504 h -296.54 l -9.29,75.591 h 252.67 l -48.46,103.937 h -216.97 l -8.58,69.921 h 239.48 l 57.21,128.504 h -455.43 z"
       inkscape:label="E"
       sodipodi:nodetypes="ccccccccccccc" /><path
       id="path149"
       style="display:inline;fill:#ffffff;fill-opacity:1;stroke:none;stroke-width:3.571;stroke-linecap:round"
       d="m 5493.54,833.386 h -191.5 l -170.37,-222.992 -55.76,316.251 -207.88,101.385 142.64,-701.101 h 147.4 l 203.21,279.685 54.65,-415.15 179.6,-83.747 -101.99,725.669"
       inkscape:label="N"
       sodipodi:nodetypes="ccccccccccc" /><path
       id="path192"
       style="display:inline;fill:#ffffff;fill-opacity:1;stroke:none;stroke-width:3.571;stroke-linecap:round"
       d="M 7313.39,833.386 H 6714.33 L 6590.38,642.52 6630.15,455.433 h -348.81 l -7.55,71.811 h 213.77 l -33.37,86.929 h -189.54 l -9.53,90.709 h 301.87 m 0,0 74.19,128.504 h -534.8 l 39.72,-377.953 -381.7211,4e-5 c -9.6734,4e-5 -17.7843,7.30315 -18.7953,16.92215 l -22.24,211.65377 c -1.1726,11.15689 7.5758,20.87298 18.7942,20.87299 h 160.5597 c 17.8651,-1.1e-4 32.6862,-13.821 33.9324,-31.64297 l 4.4,-62.84498 h -120 l 78.31,-102.048 h 210 l -23.0711,239.60797 c -4.6666,48.45231 -45.3779,85.43187 -94.0616,85.43195 h -371.7051 c -47.9474,-1.2e-4 -84.9476,-42.1908 -78.6905,-89.72998 l 41.0193,-311.56817 c 7.9231,-60.1749 59.2173,-105.15865 119.9101,-105.1587 l 961.439,-7e-5 142.45,-593.386 h 355.28 l -364.72,830.863 40.53,76.224 h 160.63 l 357.16,-269.143 384.4,-529.073 269.46,-108.871 h 895.75 l -340.96,234.331 h -386.6 L 7910.46,96.0577 7313.39,833.386"
       inkscape:label="GEV"
       sodipodi:nodetypes="ccccccccccccccccccccccccccccccccccccccccccccc" /></g><g
     id="g27"
     inkscape:label="2"
     style="display:inline"
     transform="translate(1.5344029,1.526427)"><path
       id="path5"
       style="display:inline;fill:#432671;fill-opacity:1;stroke:none;stroke-width:3.571;stroke-linecap:round"
       d="m 7508.1283,559.28617 c -68.3612,29.01761 -123.2645,52.37509 -183.9228,97.73861 -30.3292,22.68176 -58.2249,45.40602 -82.3775,85.59355 -24.1527,40.18754 -34.1525,92.00642 -14.3166,143.68078 l 926.8386,-1.1e-4 145.55,-319.37 -133.0105,7e-5 c -35.2135,40.952 -61.7024,66.1418 -97.8805,66.14187 l -141.619,6e-5 154.89,-77.225 m 0,-4.4e-4 c 49.5191,-24.68931 101.5855,-53.19994 153.8236,-96.76154 26.1191,-21.7808 48.2945,-44.99173 67.0132,-77.82444 18.7187,-32.8327 30.4739,-72.1864 26.9003,-112.58575 -3.5737,-40.39934 -21.1543,-79.60646 -48.5484,-109.04431 -27.3941,-29.43784 -65.9643,-46.89872 -97.4686,-55.60634 -63.0087,-17.415231 -122.2091,-18.866873 -183.7016,-18.681055 -122.9849,0.371636 -241.428,25.132855 -350.4246,89.251835 -108.9966,64.11898 -192.9599,168.58484 -228.8249,288.3981 l 313.9287,-6e-5 -226.85,96.294"
       inkscape:label="2Outline"
       sodipodi:nodetypes="cssccccccccsssssssccc"
       transform="matrix(0.26458333,0,0,0.26458333,1.3522,94.346861)" /><path
       id="path25"
       style="display:inline;fill:#ffffff;fill-opacity:1;stroke:none;stroke-width:3.571;stroke-linecap:round"
       d="m 7528.8,607.993 252.08,-106.998 m 0,-5e-4 c 69.7725,-39.54413 160.5683,-60.76524 218.4938,-121.73189 5.1156,-5.38419 9.9748,-11.07837 13.2437,-17.75501 5.1191,-10.45581 6.338,-23.32103 2.7551,-34.57847 -3.9752,-12.49007 -13.8612,-23.001 -25.4341,-28.88422 -7.6644,-3.8963 -16.0687,-5.76285 -24.5098,-6.9948 -10.9458,-1.5975 -21.9535,-2.12788 -32.972,-2.29289 -24.8308,-0.37185 -49.7165,1.11187 -74.2487,5.91361 -16.4602,3.2218 -32.7614,7.93737 -46.3842,18.60392 -13.5469,10.60709 -24.4453,27.09902 -24.2804,43.36244 0.1915,18.88073 15.2938,37.45349 20.9604,53.44168 h -309.9224 c 25.0442,-50.67253 59.9524,-96.89965 102.245,-134.77468 45.7634,-40.98329 100.1728,-72.18739 157.5743,-94.42941 49.048,-19.00521 100.2805,-31.46698 152.4002,-37.59466 34.7596,-4.08667 69.9138,-5.35604 104.568,-4.96082 30.4074,0.34679 60.4298,1.97519 91.6918,5.49886 47.6188,5.36731 98.1138,15.13199 131.5547,47.64577 23.7243,23.06661 38.8651,57.58299 39.1521,91.2152 0.2476,29.02428 -10.5672,57.39007 -26.202,81.55726 -27.803,42.97612 -70.8482,72.67501 -114.8971,100.01988 -25.9283,16.09582 -52.2043,31.37603 -77.9972,44.23551 L 7702.68,685.984 l 366.33,1.3e-4 c 13.1435,1.2e-4 25.874,-1.75591 38.0527,-5.50426 33.156,-10.20473 62.2217,-35.17605 84.1171,-60.63711 l 26.4522,2.4e-4 -97.32,213.543 -850.3904,-8e-5 c -1.8775,-47.29578 27.5217,-84.15344 61.2551,-113.92539 31.2591,-27.58828 66.2399,-49.09215 102.7126,-67.90926 30.9334,-15.95926 62.9399,-29.9859 94.9139,-43.55807"
       inkscape:label="2"
       transform="matrix(0.26458333,0,0,0.26458333,1.3522,94.346861)"
       sodipodi:nodetypes="cccsssssssssccssssssssscccsccccssc" /></g><g
     inkscape:label="Logo"
     id="g8"
     transform="matrix(0.26458333,0,0,0.26458333,2.8866029,95.873287)"
     style="display:inline;stroke:none"><path
       d="M 678.85009,152.11967 A 266.45669,162.51969 70 0 0 496.58298,-348.6551 266.45669,162.51969 70 0 0 678.85009,152.11967 Z"
       style="fill:#432671;fill-opacity:1;stroke:none;stroke-width:3.571;stroke-linecap:round"
       id="path6"
       inkscape:label="Logo1" /><path
       id="path7"
       style="fill:#cf2027;fill-opacity:1;stroke:none;stroke-width:3.571;stroke-linecap:round"
       d="m 896.01778,3.72342 c 38.4594,27.025889 75.15639,56.303523 107.48072,92.260405 10.8136,12.028905 21.1379,24.805315 24.6502,40.470175 2.5172,11.22689 1.5355,23.93743 -3.8721,33.74 -5.5574,10.07419 -15.7893,17.07702 -26.31342,22.93008 -29.8053,16.5764 -61.95458,23.93076 -94.47922,29.05905 -71.23522,11.23195 -144.27102,11.78555 -215.99783,11.83463 109.76751,15.20319 219.35242,26.87437 330.45807,28.16655 46.8952,0.5454 94.0612,-0.7582 139.8597,-7.24997 21.2576,-3.0132 42.2205,-7.14413 62.9572,-16.18272 14.7692,-6.43753 29.4235,-15.36455 36.1197,-28.96237 6.6287,-13.46076 5.4589,-31.49865 -0.7956,-45.82393 -8.169,-18.71032 -25.012,-31.08725 -41.9062,-42.74439 C 1171.6907,91.903655 1128.8783,67.139106 1083.9144,45.755342 996.94145,4.393114 901.91883,-24.320088 810.27569,-53.39747 c 28.8434,18.985173 57.75925,37.457002 85.74209,57.12089 z"
       sodipodi:nodetypes="sssssscssssssscs"
       inkscape:label="Logo2" /><path
       id="path8"
       style="fill:#cf2027;fill-opacity:1;stroke:none;stroke-width:3.571;stroke-linecap:round"
       d="m 130.21827,-217.61707 c -28.73747,7.05077 -57.12941,18.28433 -79.312284,37.36565 -16.742566,14.40166 -29.948134,33.2738 -38.853513,53.56395 C -10.282222,-75.799781 -5.568434,-15.992758 9.0206,39.243459 35.198179,138.3556 93.170386,222.75144 162.42605,294.47405 c 125.41049,129.87771 287.82077,218.19842 453.76923,291.32837 250.21248,110.26331 508.46852,185.99231 773.60152,247.43685 -93.0742,-47.70006 -184.3345,-102.95678 -263.252,-172.23908 -29.5575,-25.94881 -57.3836,-53.86511 -80.3609,-86.45732 -21.3755,-30.32022 -38.5546,-64.68716 -35.119,-102.22964 C 925.74614,471.8584 842.41227,449.5147 763.70656,417.27138 690.81493,387.40991 621.89294,349.05741 554.98924,307.65777 467.51468,253.52899 383.49034,194.1912 309.52897,121.22093 257.0184,69.414015 209.58019,10.735491 189.03092,-61.455886 c -7.05047,-24.768908 -10.93562,-51.128524 -3.3342,-75.009804 5.42707,-17.05018 16.70922,-32.83707 30.92688,-43.78573 40.73693,-31.37048 105.57312,-23.02122 149.25024,-27.27412 -77.44991,-17.60063 -157.82012,-29.18853 -235.65557,-10.09153 z"
       sodipodi:nodetypes="sssssscsscsssssscs"
       inkscape:label="Logo3" /></g></svg>
