<?xml version="1.0" encoding="UTF-8" standalone="no"?>
<svg
   width="566.92603"
   height="179.31799"
   xml:space="preserve"
   version="1.1"
   id="svg7"
   sodipodi:docname="ps2-jp.svg"
   inkscape:version="1.4 (86a8ad7, 2024-10-11)"
   xmlns:inkscape="http://www.inkscape.org/namespaces/inkscape"
   xmlns:sodipodi="http://sodipodi.sourceforge.net/DTD/sodipodi-0.dtd"
   xmlns:xlink="http://www.w3.org/1999/xlink"
   xmlns="http://www.w3.org/2000/svg"
   xmlns:svg="http://www.w3.org/2000/svg"><defs
   id="defs7"><linearGradient
     id="linearGradient2"
     inkscape:collect="always"><stop
       style="stop-color:#32458c;stop-opacity:1;"
       offset="0"
       id="stop8" /><stop
       style="stop-color:#0197de;stop-opacity:1"
       offset="1"
       id="stop9" /></linearGradient><linearGradient
     id="swatch12"
     inkscape:swatch="solid"><stop
       style="stop-color:#808080;stop-opacity:1;"
       offset="0"
       id="stop12" /></linearGradient><linearGradient
     inkscape:collect="always"
     xlink:href="#swatch12"
     id="linearGradient12"
     x1="-4.069414e-05"
     y1="144.26747"
     x2="566.92255"
     y2="144.26747"
     gradientUnits="userSpaceOnUse" /><linearGradient
     id="swatch7"
     inkscape:swatch="solid"><stop
       style="stop-color:#000000;stop-opacity:1;"
       offset="0"
       id="stop7" /></linearGradient><linearGradient
     inkscape:collect="always"
     xlink:href="#linearGradient2"
     id="linearGradient9"
     x1="51.618797"
     y1="143.18912"
     x2="50.91169"
     y2="178.89801"
     gradientUnits="userSpaceOnUse"
     gradientTransform="translate(0,-4)" /></defs><sodipodi:namedview
   id="namedview7"
   pagecolor="#ffffff"
   bordercolor="#000000"
   borderopacity="0.25"
   inkscape:showpageshadow="2"
   inkscape:pageopacity="0.0"
   inkscape:pagecheckerboard="0"
   inkscape:deskcolor="#d1d1d1"
   inkscape:zoom="2.8284271"
   inkscape:cx="354.61405"
   inkscape:cy="173.06439"
   inkscape:window-width="3840"
   inkscape:window-height="2066"
   inkscape:window-x="-11"
   inkscape:window-y="-11"
   inkscape:window-maximized="1"
   inkscape:current-layer="svg7" />
    <linearGradient
   id="a"
   gradientUnits="userSpaceOnUse"
   x1="478.707"
   y1="416.16199"
   x2="478.707"
   y2="513.92499"
   gradientTransform="translate(-0.09,-416.162)">
        <stop
   offset="0"
   style="stop-color:#33438a"
   id="stop1" />
        <stop
   offset="1"
   style="stop-color:#0098df"
   id="stop2" />
    </linearGradient>
    <path
   fill="url(#a)"
   d="M 559.93,6.986 V 45.387 H 390.307 V 97.762 H 566.926 V 90.777 H 397.297 V 52.375 H 566.926 V 0 H 390.307 v 6.986 z"
   id="path2"
   style="fill:url(#a)" />
    <linearGradient
   id="b"
   gradientUnits="userSpaceOnUse"
   x1="270.465"
   y1="416.16199"
   x2="270.465"
   y2="513.92499"
   gradientTransform="translate(-0.09,-416.162)">
        <stop
   offset="0"
   style="stop-color:#33438a"
   id="stop3" />
        <stop
   offset="1"
   style="stop-color:#0098df"
   id="stop4" />
    </linearGradient>
    <path
   fill="url(#b)"
   d="M 364.131,0 V 6.986 H 274.038 V 97.762 H 176.62 v -6.985 h 90.093 V 0 Z"
   id="path4"
   style="fill:url(#b)" />
    <linearGradient
   id="c"
   gradientUnits="userSpaceOnUse"
   x1="88.399002"
   y1="416.16199"
   x2="88.399002"
   y2="513.92499"
   gradientTransform="translate(-0.09,-416.162)">
        <stop
   offset="0"
   style="stop-color:#33438a"
   id="stop5" />
        <stop
   offset="1"
   style="stop-color:#0098df"
   id="stop6" />
    </linearGradient>
    <path
   fill="url(#c)"
   d="M 6.986,97.762 V 52.375 H 176.62 V 0 H 0 V 6.873 L 169.639,6.986 V 45.387 H 0 v 52.375 z"
   id="path6"
   style="fill:url(#c)" />
    
<path
   d="m 40.358292,132.74245 q 1.773981,0 2.882719,-1.10874 1.108738,-1.10874 1.108738,-2.88272 0,-1.77398 -1.108738,-2.88272 -1.108738,-1.10874 -2.882719,-1.10874 -1.773982,0 -2.88272,1.10874 -1.108738,1.10874 -1.108738,2.88272 0,1.77398 1.108738,2.88272 1.108738,1.10874 2.88272,1.10874 z m 0,2.21747 q -2.660972,0 -4.434953,-1.77398 -1.773982,-1.77398 -1.773982,-4.43495 0,-2.66097 1.773982,-4.43496 1.773981,-1.77398 4.434953,-1.77398 2.660971,0 4.434953,1.77398 1.773981,1.77399 1.773981,4.43496 0,2.66097 -1.773981,4.43495 -1.773982,1.77398 -4.434953,1.77398 z m -39.69283003,2.88272 v -4.87845 H 33.484114 l 5.765439,4.21321 Q 38.140815,164.00886 8.8701251,172.21353 L 4.8786673,167.33508 Q 32.597124,160.9044 33.92761,137.84264 Z M 67.411505,165.78285 q 20.400784,-3.76971 29.714185,-20.62254 l 3.76971,3.76971 q -10.643887,18.62681 -35.479624,22.84001 l -3.547962,-2.66097 0.443495,-1.33049 v -36.81011 h 4.878448 q 1.995729,0.22175 0.221748,1.55224 z M 110.2088,154.69546 q 23.28351,-9.75689 35.25788,-27.49671 l 4.2132,3.54797 q 1.77399,1.33048 -1.55223,1.99573 -4.21321,5.54369 -10.86563,11.30913 v 30.15768 h -5.1002 v -25.94448 q -7.76117,5.98719 -18.18331,10.86564 z m 83.15538,-3.99145 q 9.53514,7.31767 18.84855,16.85282 l -4.43496,3.76971 q -9.3134,-9.7569 -17.96156,-16.40933 -8.64816,9.3134 -19.73554,16.63107 l -4.2132,-3.76971 q 23.50525,-15.30058 30.15768,-30.60117 l -24.1705,1.55223 -0.66524,-5.32194 25.72273,-1.10874 2.66097,-0.66524 3.54796,3.54796 q 1.55224,1.55223 -0.88699,1.99573 -4.2132,7.31767 -8.8699,13.52661 z m 52.55418,-1.99573 H 223.7436 v -4.87845 h 45.45827 v 4.87845 h -18.18331 v 2.88272 q 0,13.9701 -9.97864,23.06175 l -4.43496,-3.32621 q 9.3134,-7.31768 9.3134,-19.73554 z m -14.19184,-13.52661 v -4.87845 h 29.49243 v 4.87845 z m 46.78876,17.51806 v -4.87844 h 49.44973 v 4.87844 z m 65.85905,14.63535 q 24.17049,-5.32194 36.36661,-25.05749 l 3.99146,3.99146 q -11.30913,18.18331 -35.03613,25.72273 -0.66524,2.66097 -2.21747,0.22175 z m -1.55223,-26.83147 q 5.54369,2.88272 11.30913,7.09593 l -3.54797,4.6567 q -6.65243,-4.87845 -11.08738,-7.09593 z m 6.20893,-13.08311 q 5.98719,3.32622 11.30913,7.09593 l -3.10447,4.6567 q -5.98718,-4.21321 -11.08738,-7.09593 z m 54.32817,43.46254 v -4.2132 h 22.61826 v -9.31341 h -21.28777 v -4.2132 h 21.28777 v -8.86991 H 403.3592 v -4.2132 h 27.05321 v 33.26215 h -4.43495 v -2.43923 z m 94.68624,-25.72273 q -11.75262,24.39225 -39.47108,25.72273 -1.10874,2.88272 -2.21747,0.4435 l -1.77399,-5.76544 q 28.8272,-0.66525 38.80584,-23.727 z m -31.26641,0 q -5.98719,-5.54369 -11.30913,-9.09165 l 3.76971,-4.6567 q 4.6567,2.88272 11.75262,9.53515 z m 49.81006,21.09375 h 49.67147 v 4.62898 h -58.67997 v -12.30699 q 0,-4.60127 3.10447,-7.23452 3.13218,-2.66097 8.42641,-2.66097 h 30.90608 q 3.21534,0 5.21107,-1.88486 2.02344,-1.91257 2.02344,-4.57354 0,-2.68869 -1.94029,-4.57355 -1.91257,-1.88485 -5.29422,-1.88485 h -42.43696 v -4.62899 h 46.28982 q 5.79316,0 9.09166,3.18763 3.29849,3.18762 3.29849,7.89976 0,4.73985 -3.32621,7.92748 -3.2985,3.18762 -9.06394,3.18762 h -30.85064 q -2.88272,0 -4.6567,1.71854 -1.77398,1.69083 -1.77398,4.62898 z"
   id="text2"
   style="font-weight:bold;font-size:56.7674px;line-height:0;font-family:PS;-inkscape-font-specification:'PS Bold';text-align:center;text-anchor:middle;fill:url(#linearGradient9)"
   aria-label="プレイステーション2" /></svg>
