<?xml version="1.0" encoding="UTF-8" standalone="no"?>
<svg
   width="566.926"
   height="179.318"
   xml:space="preserve"
   version="1.1"
   id="svg7"
   sodipodi:docname="ps2h.svg"
   inkscape:version="1.4 (86a8ad7, 2024-10-11)"
   xmlns:inkscape="http://www.inkscape.org/namespaces/inkscape"
   xmlns:sodipodi="http://sodipodi.sourceforge.net/DTD/sodipodi-0.dtd"
   xmlns:xlink="http://www.w3.org/1999/xlink"
   xmlns="http://www.w3.org/2000/svg"
   xmlns:svg="http://www.w3.org/2000/svg"><defs
   id="defs7"><linearGradient
     id="linearGradient10"
     inkscape:collect="always"><stop
       style="stop-color:#32448b;stop-opacity:1;"
       offset="0.19811322"
       id="stop10" /><stop
       style="stop-color:#0197de;stop-opacity:1"
       offset="1"
       id="stop11" /></linearGradient><linearGradient
     inkscape:collect="always"
     xlink:href="#linearGradient10"
     id="linearGradient11"
     x1="268.4834"
     y1="129.3503"
     x2="268.4834"
     y2="166.09013"
     gradientUnits="userSpaceOnUse" /></defs><sodipodi:namedview
   id="namedview7"
   pagecolor="#ffffff"
   bordercolor="#000000"
   borderopacity="0.25"
   inkscape:showpageshadow="2"
   inkscape:pageopacity="0.0"
   inkscape:pagecheckerboard="0"
   inkscape:deskcolor="#d1d1d1"
   inkscape:zoom="4.599912"
   inkscape:cx="268.04861"
   inkscape:cy="130.98077"
   inkscape:window-width="3840"
   inkscape:window-height="2066"
   inkscape:window-x="-11"
   inkscape:window-y="-11"
   inkscape:window-maximized="1"
   inkscape:current-layer="svg7" />
    <linearGradient
   id="a"
   gradientUnits="userSpaceOnUse"
   x1="478.707"
   y1="416.162"
   x2="478.707"
   y2="513.925"
   gradientTransform="translate(-.09 -416.162)">
        <stop
   offset="0"
   style="stop-color:#33438a"
   id="stop1" />
        <stop
   offset="1"
   style="stop-color:#0098df"
   id="stop2" />
    </linearGradient>
    <path
   fill="url(#a)"
   d="M559.93 6.986v38.401H390.307v52.375h176.619v-6.985H397.297V52.375h169.629V0H390.307v6.986z"
   id="path2" />
    <linearGradient
   id="b"
   gradientUnits="userSpaceOnUse"
   x1="270.465"
   y1="416.162"
   x2="270.465"
   y2="513.925"
   gradientTransform="translate(-.09 -416.162)">
        <stop
   offset="0"
   style="stop-color:#33438a"
   id="stop3" />
        <stop
   offset="1"
   style="stop-color:#0098df"
   id="stop4" />
    </linearGradient>
    <path
   fill="url(#b)"
   d="M364.131 0v6.986h-90.093v90.776H176.62v-6.985h90.093V0z"
   id="path4" />
    <linearGradient
   id="c"
   gradientUnits="userSpaceOnUse"
   x1="88.399"
   y1="416.162"
   x2="88.399"
   y2="513.925"
   gradientTransform="translate(-.09 -416.162)">
        <stop
   offset="0"
   style="stop-color:#33438a"
   id="stop5" />
        <stop
   offset="1"
   style="stop-color:#0098df"
   id="stop6" />
    </linearGradient>
    <path
   fill="url(#c)"
   d="M6.986 97.762V52.375H176.62V0H0v6.873l169.639.113v38.401H0v52.375z"
   id="path6" />
    
<path
   style="font-size:51.3333px;line-height:0;font-family:'PS Old';-inkscape-font-specification:'PS Old';text-align:center;text-anchor:middle;fill:url(#linearGradient11)"
   d="m 163.55164,146.66829 v -16.66828 h 2.60677 v 35.94333 h -2.60677 v -16.66828 h -59.45439 v 16.66828 h -2.60677 v -35.94333 h 2.60677 v 16.66828 z m 23.16014,9.52473 -9.19889,9.75032 h -3.83496 l 34.06346,-35.94333 h 1.70442 l 34.03839,35.94333 h -3.83495 l -9.19889,-9.75032 z m 2.45638,-2.60676 h 38.82582 L 208.5936,133.00782 Z m 126.50349,9.75031 v 2.60677 h -64.66793 v -35.94333 h 64.66793 v 2.60677 h -62.06116 v 30.72979 z m 38.3496,-16.66828 0.32584,-0.17545 29.55174,-16.49283 h 5.33887 l -32.20864,17.97167 32.20864,17.97166 h -5.33887 l -29.55174,-16.49282 -0.32584,-0.17546 h -26.97004 v 16.66828 h -2.60677 v -35.94333 h 2.60677 v 16.66828 z m 111.41432,-16.66828 v 2.60677 h -33.18618 v 33.33656 h -35.81801 v -2.60677 h 33.21124 v -33.33656 z"
   id="text7"
   aria-label="HACKS" /></svg>
