<svg xmlns="http://www.w3.org/2000/svg" version="1.0" width="667" height="279.5" xml:space="preserve">
    <g style="stroke:red;stroke-width:0;stroke-miterlimit:4;stroke-dasharray:none;stroke-opacity:1">
        <g style="stroke:red;stroke-width:0;stroke-miterlimit:4;stroke-dasharray:none;stroke-opacity:1" stroke="none">
            <path d="M520.959 224.799c6.157-.256 12.684.695 12.684 8.244 0 5.463-4.03 8.521-9.277 8.521-6.147 0-9.268-4.398-9.031-10.229h-7.897c.185 10.074 5.811 16.836 16.929 16.836 9.277 0 17.041-5.627 17.041-14.729 0-6.24-3.283-11.006-8.726-12.092v-.102c4.563-1.709 6.772-5.625 6.772-10.424 0-8.51-7.672-12.846-15.119-12.846-9.736 0-15.588 6.965-15.956 16.406h7.774c-.104-5.002 2.576-9.902 7.998-9.902 4.337 0 7.487 2.793 7.487 6.875 0 5.912-5.38 7.723-10.679 7.59zM125.468 247.252h8.684v-18.863h13.103c14.074.063 16.78-9.072 16.78-15.158 0-6.146-2.706-15.25-16.78-15.25h-21.787zm8.684-42.275h12.765c4.567 0 8.475 1.719 8.475 8.193 0 6.207-4.741 8.182-8.648 8.182h-12.591v-16.375zM169.186 197.98h7.891v49.271h-7.891zM215.797 221.025c0-7.568-7.395-10.424-14.371-10.424-7.897 0-15.711 2.721-16.253 11.896h7.938c.241-3.877 3.396-5.625 7.814-5.625 3.248 0 7.416.766 7.416 4.838 0 4.602-5.068 3.938-10.745 5-6.547.758-13.722 2.23-13.722 11.141 0 6.936 5.83 10.412 12.233 10.412 4.199 0 9.226-1.34 12.382-4.367.604 3.324 2.93 4.367 6.04 4.367 1.33 0 3.866-.521 4.956-.85v-5.482c-.767.123-1.448.123-1.841.123-1.488 0-1.846-.756-1.846-2.721v-18.308zm-8.004 14.268c0 4.963-5.35 6.762-8.827 6.762-2.788 0-7.237-1.012-7.237-4.563 0-4.174 3.038-5.4 6.439-5.891 3.437-.613 7.237-.613 9.625-2.168zM232.618 247.221l-.899 2.762c-.941 2.955-1.887 4.971-5.575 4.971-1.232 0-2.501-.275-3.728-.572v6.709c1.774.195 3.657.359 5.467.359 8.254 0 10.091-5.779 12.663-12.152l13.901-37.713h-8.295l-9.007 26.656h-.148l-9.334-26.656h-8.546zM256.103 230.875c.179 12.273 9.298 17.594 20.591 17.594 9.814 0 19.587-4.43 19.587-15.426 0-5.145-3.079-10.637-9.594-12.682-2.537-.688-13.43-3.488-14.192-3.715-3.539-1.021-5.927-2.895-5.927-6.371 0-5.002 5.028-6.455 9.078-6.455 5.943 0 10.245 2.342 10.684 8.787h8.572c0-10.352-8.572-15.814-18.887-15.814-8.935 0-18.059 4.604-18.059 14.504 0 5.115 2.45 10.281 10.925 12.51 6.766 1.842 11.261 2.773 14.729 4.092 2.03.809 4.097 2.322 4.097 6.004 0 3.816-2.864 7.539-10.464 7.539-6.915 0-12.52-2.967-12.52-10.566h-8.62zM299.13 211.584h5.907v-10.74h7.928v10.74h7.093v5.861h-7.093V236.5c0 3.264.317 4.941 3.764 4.941 1.12 0 2.24 0 3.33-.234v6.014c-1.749.193-3.375.398-5.068.398-8.214 0-9.804-3.119-9.953-9.113v-21.061h-5.907v-5.861zM356.309 221.025c0-7.568-7.375-10.424-14.361-10.424-7.815 0-15.67 2.721-16.212 11.896h7.927c.328-3.877 3.406-5.625 7.886-5.625 3.156 0 7.355.766 7.355 4.838 0 4.602-5.038 3.938-10.746 5-6.597.758-13.722 2.23-13.722 11.141 0 6.936 5.825 10.412 12.193 10.412 4.229 0 9.267-1.34 12.412-4.367.619 3.324 2.9 4.367 6.158 4.367 1.227 0 3.718-.521 4.919-.85v-5.482c-.833.123-1.529.123-1.958.123-1.442 0-1.852-.756-1.852-2.721v-18.308zm-7.887 14.268c0 4.963-5.385 6.762-8.863 6.762-2.741 0-7.237-1.012-7.237-4.563 0-4.174 2.997-5.4 6.398-5.891 3.478-.613 7.283-.613 9.702-2.168zM360.876 211.584h5.927v-10.74h7.927v10.74h7.094v5.861h-7.094V236.5c0 3.264.266 4.941 3.774 4.941 1.078 0 2.199 0 3.319-.234v6.014c-1.698.193-3.396.398-5.1.398-8.244 0-9.773-3.119-9.921-9.113v-21.061h-5.927v-5.861zM388.59 211.584h7.887v35.668h-7.887zM420.432 248.264c11.467 0 18.023-7.855 18.023-18.83 0-10.945-6.557-18.832-18.023-18.832-11.497 0-18.043 7.887-18.043 18.832 0 10.974 6.546 18.83 18.043 18.83zm0-6.209c-7.098 0-10.167-6.383-10.167-12.621 0-6.18 3.069-12.561 10.167-12.561 7.018 0 10.137 6.381 10.137 12.561-.001 6.238-3.12 12.621-10.137 12.621zM444.397 247.252h7.855v-21.031c0-5.195 3.366-9.348 8.664-9.348 4.603 0 6.813 2.371 6.935 7.926v22.453h7.917v-24.488c0-7.979-4.909-12.162-12.683-12.162-4.654 0-8.776 2.434-11.109 6.414l-.174-.143v-5.289h-7.405zM388.59 197.98h7.887v7.455h-7.887z" style="stroke:red;stroke-width:0;stroke-miterlimit:4;stroke-dasharray:none;stroke-opacity:1" transform="translate(2.749 3.514)"/>
        </g>
        <g style="stroke:red;stroke-width:0;stroke-miterlimit:4;stroke-dasharray:none;stroke-opacity:1" stroke="none">
            <path d="M421.659 19.551h-82.591c-25.474 0-37.958 15.741-37.958 36.179v62.087c0 12.684-5.989 21.788-18.631 21.788h-72.24c-.506 0-.925.419-.925.9v12.53c0 .512.419.941.925.941h81.768c25.464 0 37.979-15.67 37.979-36.118V55.73c0-12.694 5.943-21.818 18.657-21.818h73.017c.573 0 1.023-.409 1.023-.921V20.482c0-.491-.451-.931-1.024-.931zM178.54 19.551H19.607c-.578 0-.998.44-.998.931v12.509c0 .512.419.941.998.941h149.374c12.627 0 18.621 9.104 18.621 21.797 0 12.643-5.994 21.726-18.621 21.726H50.81c-18.351 0-32.2 15.415-32.2 35.862v39.687c0 .543.419.973.998.973h26.927a.97.97 0 0 0 .967-.973v-39.687c0-12.612 7.247-21.511 17.762-21.511H178.54c25.423 0 37.887-15.62 37.887-36.067 0-20.415-12.464-36.188-37.887-36.188zM636.409 85.086c-.356-.399-.356-1.084 0-1.473 7.917-6.557 11.835-16.438 11.835-27.874 0-20.416-12.438-36.188-37.938-36.188H451.414c-.542 0-.94.44-.94.972v12.468a.93.93 0 0 0 .94.941h149.35c12.591 0 18.667 9.104 18.667 21.797 0 12.643-6.035 21.726-18.667 21.726h-.185l-149.165.031c-.542 0-.94.389-.94.961v12.459c0 .501.398.9.94.9h149.35c16.468.194 18.636 16.232 18.636 24.436l.031 1.544c0 12.714-6.076 21.859-18.667 21.859h-149.35c-.542 0-.94.388-.94.899v12.49a.93.93 0 0 0 .94.941h158.893c25.521 0 37.938-16.939 37.938-36.189v-1.544c-.001-12.274-3.919-23.996-11.836-31.156z" style="stroke:red;stroke-width:0;stroke-miterlimit:4;stroke-dasharray:none;stroke-opacity:1" transform="translate(2.749 3.514)"/>
        </g>
    </g>
</svg>
