<?xml version="1.0" encoding="UTF-8" standalone="no"?>
<svg
   version="1.2"
   width="566.929"
   height="185.059"
   xml:space="preserve"
   id="svg1"
   sodipodi:docname="psph.svg"
   inkscape:version="1.3.2 (091e20e, 2023-11-25, custom)"
   xmlns:inkscape="http://www.inkscape.org/namespaces/inkscape"
   xmlns:sodipodi="http://sodipodi.sourceforge.net/DTD/sodipodi-0.dtd"
   xmlns="http://www.w3.org/2000/svg"
   xmlns:svg="http://www.w3.org/2000/svg"><defs
   id="defs1" /><sodipodi:namedview
   id="namedview1"
   pagecolor="#505050"
   bordercolor="#eeeeee"
   borderopacity="1"
   inkscape:showpageshadow="0"
   inkscape:pageopacity="0"
   inkscape:pagecheckerboard="0"
   inkscape:deskcolor="#505050"
   inkscape:zoom="2.9609906"
   inkscape:cx="281.49363"
   inkscape:cy="73.455147"
   inkscape:window-width="2560"
   inkscape:window-height="1351"
   inkscape:window-x="-9"
   inkscape:window-y="-9"
   inkscape:window-maximized="1"
   inkscape:current-layer="svg1" />
    <g
   fill="#0895FF"
   id="g1">
        <path
   d="M 0,0 H 176.632 V 52.38 H 6.98 V 97.778 H 0 V 45.398 H 169.652 V 6.978 H 0 V 0 m 397.278,52.38 v 45.398 h -6.98 v -52.38 h 169.65 V 6.978 H 390.298 V 0 H 566.93 V 52.38 H 397.28 M 266.693,0 v 90.798 h -90.06 v 6.98 h 97.427 v -90.8 h 90.062 V 0 h -97.429"
   id="path1"
   sodipodi:nodetypes="ccccccccccccccccccccccccccccccc" />
    </g>
<path
   id="text7"
   style="font-size:51.3333px;line-height:0;font-family:'PS Old';-inkscape-font-specification:'PS Old';text-align:center;text-anchor:middle;fill:#0895ff;fill-opacity:1"
   inkscape:label="HACKS"
   d="m 100,140 c 0,12.31445 0,24.62891 0,36.94336 1.53581,0 3.07162,0 4.60743,0 0,-5.55599 0,-11.11198 0,-16.66797 19.15104,0 38.30208,0 57.45312,0 0,5.55599 0,11.11198 0,16.66797 1.53581,0 3.07162,0 4.60742,0 0,-12.64779 0,-25.29557 0,-37.94336 -1.5358,0 -3.07161,0 -4.60742,0 0,5.55599 0,11.11198 0,16.66797 -19.15104,0 -38.30208,0 -57.45312,0 0,-5.55599 0,-11.11198 0,-16.66797 -1.53581,0 -3.07162,0 -4.60743,0 0,0.33333 0,0.66667 0,1 z m 106.52539,-0.6875 c -11.88807,12.54357 -23.7757,25.08756 -35.66406,37.63086 2.19792,0 4.39584,0 6.59375,0 3.06331,-3.25169 6.13051,-6.49972 9.19531,-9.75 14.29362,0 28.58724,0 42.88086,0 3.06481,3.25028 6.132,6.49832 9.19532,9.75 2.19726,0 4.39453,0 6.59179,0 C 233.34079,164.29529 221.36354,151.64693 209.38477,139 c -0.85417,0 -1.70833,0 -2.5625,0 -0.099,0.10417 -0.19792,0.20833 -0.29688,0.3125 z M 249.51368,140 c 0,12.31445 0,24.62891 0,36.94336 22.22265,0 44.44531,0 66.66797,0 0,-1.53581 -10e-6,-3.07162 0,-4.60742 -20.68685,0 -41.3737,0 -62.06055,0 0,-9.57617 0,-19.15235 0,-28.72852 20.68685,0 41.3737,0 62.06055,0 0,-1.53581 -10e-6,-3.07161 0,-4.60742 -22.22266,0 -44.44532,0 -66.66797,0 0,0.33333 0,0.66667 0,1 z m 73.4414,0 c 0,12.31445 0,24.62891 0,36.94336 1.53516,0 3.07031,0 4.60547,0 0,-5.55599 0,-11.11198 0,-16.66797 8.57227,0 17.14453,0 25.7168,0 9.95896,5.55243 19.91326,11.11343 29.87109,16.66797 3.14779,0 6.29557,0 9.44336,0 -11.33412,-6.32331 -22.66795,-12.64717 -34.00195,-18.9707 11.33402,-6.32415 22.66765,-12.649 34.00195,-18.97266 -3.14779,0 -6.29557,0 -9.44336,0 -9.95783,5.55454 -19.91213,11.11554 -29.87109,16.66797 -8.57227,0 -17.14453,0 -25.7168,0 0,-5.55599 0,-11.11198 0,-16.66797 -1.53516,0 -3.07031,0 -4.60547,0 0,0.33333 0,0.66667 0,1 z m 105.19727,0 c 0,10.77865 0,21.55729 0,32.33594 -11.07031,0 -22.14063,0 -33.21094,0 0,1.5358 0,3.07161 0,4.60742 12.60612,0 25.21224,0 37.81836,0 0,-11.11198 0,-22.22396 0,-33.33594 11.06185,0 22.1237,0 33.18555,0 0,-1.53581 0,-3.07161 0,-4.60742 -12.59766,0 -25.19532,0 -37.79297,0 0,0.33333 0,0.66667 0,1 z m -202.9668,22.58594 c -11.39648,0 -22.79297,0 -34.18945,0 5.70182,-6.04037 11.40364,-12.08073 17.10547,-18.1211 5.69466,6.04037 11.38932,12.08073 17.08398,18.1211 z" /></svg>
