<?xml version="1.0" encoding="UTF-8" standalone="no"?>
<svg
   width="567.42902"
   height="160"
   xml:space="preserve"
   version="1.1"
   id="svg7"
   sodipodi:docname="psxh.svg"
   inkscape:version="1.4 (86a8ad7, 2024-10-11)"
   xmlns:inkscape="http://www.inkscape.org/namespaces/inkscape"
   xmlns:sodipodi="http://sodipodi.sourceforge.net/DTD/sodipodi-0.dtd"
   xmlns="http://www.w3.org/2000/svg"
   xmlns:svg="http://www.w3.org/2000/svg"><defs
   id="defs7" /><sodipodi:namedview
   id="namedview7"
   pagecolor="#ffffff"
   bordercolor="#000000"
   borderopacity="0.25"
   inkscape:showpageshadow="2"
   inkscape:pageopacity="0.0"
   inkscape:pagecheckerboard="0"
   inkscape:deskcolor="#d1d1d1"
   inkscape:zoom="2.2979172"
   inkscape:cx="259.36531"
   inkscape:cy="70.716212"
   inkscape:window-width="3840"
   inkscape:window-height="2066"
   inkscape:window-x="-11"
   inkscape:window-y="-11"
   inkscape:window-maximized="1"
   inkscape:current-layer="svg7" />
    
    <path
   style="fill:#000000;stroke:none"
   d="m 559.92,74.635 c -3.46,0.341 -6.22,4.127 -5.197,7.556 0.832,3.727 5.489,5.797 8.81,3.912 3.548,-1.687 4.426,-6.908 1.636,-9.661 -1.32,-1.443 -3.192,-2.094 -5.128,-1.817 -0.121,0.01 0.085,-0.025 -0.121,0.01 z m 0.15,1.357 c 1.66,0.078 3.495,0.613 4.416,2.154 1.809,2.52 0.163,6.463 -2.894,6.965 -2.954,0.723 -5.987,-2.148 -5.407,-5.137 0.248,-1.929 1.53,-3.645 3.456,-3.904 0.382,-0.078 0.187,-0.04 0.43,-0.078 z"
   id="path2" />
    <path
   fill="#de0029"
   d="M 80.521,23.506 80.422,113.031 56.436,105.23 V 0 l 30.618,8.096 c 19.6,5.267 31.592,15.507 31.398,33.45 -0.195,20.873 -9.849,29.257 -28.667,23.796 V 24.188 c -0.002,-4.976 -9.264,-5.267 -9.264,-0.682 z"
   id="path3" />
    <path
   fill="#f3c202"
   d="m 45.416,87.87 -11.31,3.805 c -7.315,2.537 -13.555,-3.412 -6.827,-5.854 l 5.46,-1.947 -20.575,-6.537 c -6.338,2.148 -12.288,6.73 -11.896,13.168 0.39,6.533 15.31,8.096 26.815,9.947 10.726,1.754 20.477,0.779 29.351,-2.342 v -6.73 z m 35.2,25.162 20.965,-7.313 -21.16,-6.729 v 13.558 z"
   id="path4" />
    <path
   fill="#326db3"
   d="m 136.394,93.431 0.39,-0.099 C 145.95,90.114 149.85,85.625 148.875,81.434 147.315,74.413 136.102,70.608 118.842,69.34 106.458,68.463 94.27,71.194 82.374,75.287 l -1.95,0.686 21.355,6.633 12.48,-4.197 c 13.067,-2.436 18.333,1.854 5.755,5.854 l -6.242,2.146 z m -79.958,-31.013 -9.459,3.217 9.46,2.926 v -6.143 z"
   id="path5" />
    <path
   fill="#00aa9e"
   d="M 101.582,105.717 136.394,93.431 113.77,86.409 80.422,97.819 v 1.17 z M 56.436,84.165 45.417,87.87 56.437,91.382 V 84.165 Z M 80.421,89.92 V 75.975 l 21.355,6.631 z M 32.74,83.874 56.436,75.389 V 68.563 L 46.977,65.636 12.653,77.241 c -0.097,0 -0.292,0.096 -0.487,0.096 z"
   id="path6" />
    <path
   d="m 563.163,83.502 c -0.076,0 -0.151,-0.174 -0.151,-0.26 0,-0.087 -0.076,-0.261 -0.076,-0.522 v -0.869 c 0,-0.434 -0.075,-0.695 -0.226,-0.869 -0.075,-0.173 -0.226,-0.26 -0.376,-0.347 0.15,-0.174 0.301,-0.26 0.452,-0.522 0.15,-0.26 0.226,-0.608 0.226,-1.042 0,-0.782 -0.302,-1.39 -0.83,-1.651 -0.3,-0.174 -0.677,-0.26 -1.13,-0.26 h -2.712 v 6.777 h 0.98 v -2.78 h 1.582 c 0.301,0 0.527,0 0.603,0.086 0.226,0.087 0.301,0.348 0.301,0.695 l 0.076,1.043 c 0,0.26 0,0.434 0.075,0.521 0,0.087 0.075,0.174 0.075,0.26 l 0.076,0.088 h 1.13 z m -1.206,-4.344 c 0,0.347 -0.075,0.608 -0.226,0.782 -0.15,0.173 -0.452,0.26 -0.754,0.26 h -1.657 v -1.91 h 1.733 c 0.226,0 0.452,0 0.527,0.087 0.302,0.087 0.377,0.347 0.377,0.782"
   style="fill:#000000;stroke-width:0.931239"
   id="path7" />
<path
   style="font-size:89.4166px;line-height:0;font-family:'Emotion Engine';-inkscape-font-specification:'Emotion Engine';text-align:center;text-anchor:middle;stroke-width:1.03182"
   d="m 195.98166,45.300746 q -0.0437,6.505407 -2.22669,10.915113 -2.18302,4.366045 -6.54906,4.366045 h -13.05448 v -4.366045 h 8.68843 q 2.22668,-0.218302 3.27453,-3.361855 1.09152,-3.187213 1.13518,-7.509597 0,-4.409706 -1.13518,-7.68424 -1.09151,-3.274534 -3.27453,-3.274534 h -13.05447 v 54.575564 h -8.77575 V 30.019588 h 26.23993 q 4.27872,0 6.5054,4.366045 2.22669,4.366046 2.22669,10.915113 z m 6.54906,43.660451 V 30.019588 h 8.81941 l -0.0437,58.941609 z m 52.47986,-32.745338 -0.0437,32.745338 h -28.33563 q -4.36604,0 -6.54907,-3.274534 -2.18302,-3.274534 -2.18302,-9.823601 0,-6.549068 2.18302,-9.779941 2.18303,-3.274534 6.50541,-3.274534 h 15.28116 l 0.0437,4.322385 h -10.91511 q -2.13937,0.04366 -3.23088,2.226683 -1.09151,2.139362 -1.13517,6.505407 0,4.366045 1.09151,6.549067 1.09151,2.183023 3.27454,2.183023 h 15.23749 l 0.0437,-28.379293 q 0,-4.366045 -1.09151,-6.549068 -1.09151,-2.183022 -3.27453,-2.183022 h -15.28116 v -4.366045 h 19.6472 q 4.36605,0 6.54907,3.274533 2.18302,3.274534 2.18302,9.823602 z m 23.92593,17.202217 8.81941,-30.300352 h 8.73209 l -13.18545,45.494189 0.0873,0.349284 h -0.2183 l -6.33077,21.830223 h -8.73209 l 6.46175,-22.179507 -13.01082,-45.494189 h 8.73209 z m 58.98528,-1.96472 q 0,6.636389 -2.18303,12.093945 -2.13936,5.413896 -6.5054,5.413896 h -24.01325 v -4.366045 h 19.6472 q 2.75061,-0.349284 3.5365,-4.540687 0.82955,-4.191403 0.82955,-8.557448 0,-4.322385 -1.09151,-7.596919 -1.09152,-3.274534 -3.3182,-3.274534 l -13.09813,-0.04366 q -4.32239,0 -6.50541,-4.366045 -2.18302,-4.366045 -2.18302,-10.915113 0,-6.549067 2.18302,-10.915113 2.18302,-4.366045 6.50541,-4.366045 l 24.0569,-0.04366 v 4.409705 h -19.69086 q -2.18302,0 -3.23087,3.274534 -1.04785,3.274534 -1.04785,7.596919 0,4.409705 1.04785,7.684239 1.04785,3.274534 3.27453,3.274534 h 13.05448 q 4.4097,0.04366 6.54906,4.409705 2.18303,4.366045 2.18303,10.827792 z m 24.01324,-28.335632 v 4.366045 H 353.2466 V 73.7237 q 0,4.322384 1.04785,7.596918 1.04785,3.274534 3.23087,3.274534 h 4.40971 v 4.409705 l -8.77575,-0.04366 q -4.32239,0 -6.50541,-4.366045 -2.18302,-4.366045 -2.18302,-10.915113 v -43.61679 l 8.73209,-0.04366 v 13.098136 z m 43.66045,13.098135 -0.0437,32.745338 h -28.33563 q -4.36604,0 -6.54907,-3.274534 -2.18302,-3.274534 -2.18302,-9.823601 0,-6.549068 2.18302,-9.779941 2.18303,-3.274534 6.50541,-3.274534 h 15.28116 l 0.0437,4.322385 h -10.91511 q -2.13936,0.04366 -3.23088,2.226683 -1.09151,2.139362 -1.13517,6.505407 0,4.366045 1.09151,6.549067 1.09151,2.183023 3.27454,2.183023 h 15.23749 l 0.0437,-28.379293 q 0,-4.366045 -1.09152,-6.549068 -1.09151,-2.183022 -3.27453,-2.183022 h -15.28116 v -4.366045 h 19.64721 q 4.36604,0 6.54906,3.274533 2.18303,3.274534 2.18303,9.823602 z m 24.01325,-13.098135 v 4.366045 H 420.9203 V 73.7237 q 0,4.322384 1.04786,7.596918 1.04785,3.274534 3.23087,3.274534 h 4.4097 v 4.409705 l -8.77575,-0.04366 q -4.32238,0 -6.5054,-4.366045 -2.18303,-4.366045 -2.18303,-10.915113 v -43.61679 l 8.73209,-0.04366 v 13.098136 z m 15.32482,-4.366045 h -8.73209 l -0.0437,-8.732091 h 8.77575 z m 0,50.209518 h -8.73209 V 43.117724 l 8.73209,0.04366 z m 43.66046,-13.054475 q 0,4.322385 -2.18302,8.68843 -2.18302,4.366045 -6.50541,4.366045 h -19.69086 q -4.32239,0 -6.54907,-4.366045 -2.18302,-4.366045 -2.18302,-8.68843 V 56.215859 q 0,-4.322385 2.18302,-8.68843 2.22668,-4.409705 6.54907,-4.409705 h 19.6472 q 4.36605,0 6.54907,4.409705 2.18302,4.366045 2.18302,8.73209 z m -8.73209,-2.226683 V 58.398881 q 0,-4.366045 -1.09151,-7.640578 -1.09151,-3.274534 -5.45756,-3.274534 h -6.54906 q -4.36605,0 -5.45756,3.318194 -1.04785,3.274534 -1.04785,7.640579 v 15.237497 q 0,4.409706 1.09151,7.684239 1.09151,3.230874 5.4139,3.230874 l 6.54906,-0.04366 q 4.36605,0 5.45756,-3.230873 1.09151,-3.274534 1.09151,-7.640579 z m 43.66043,-15.281158 q 0,-4.409705 -1.09151,-7.640578 -1.09151,-3.274534 -5.4139,-3.274534 h -13.14179 v 41.477428 h -8.73209 V 43.117724 h 28.42295 q 4.32239,0 6.50541,4.366045 2.22668,4.366045 2.22668,8.688429 l -0.0437,32.788999 h -8.73209 z"
   id="text1"
   transform="scale(1.0317319,0.96924404)"
   aria-label="PlayStation" /><path
   style="font-size:89.4166px;line-height:0;font-family:'Emotion Engine';-inkscape-font-specification:'Emotion Engine';text-align:center;text-anchor:middle;stroke-width:1.03182"
   d="m 357.15634,159.14836 h -8.73209 v -28.37929 l -19.60354,-0.0437 v 28.42295 h -8.77575 v -58.98527 l 8.73209,0.0437 v 26.19627 h 19.6472 v -26.23993 l 8.73209,0.0437 z m 43.66045,-32.74534 -0.0437,32.74534 H 372.4375 q -4.36605,0 -6.54907,-3.27453 -2.18302,-3.27454 -2.18302,-9.8236 0,-6.54907 2.18302,-9.77994 2.18302,-3.27454 6.50541,-3.27454 h 15.28115 l 0.0437,4.32239 h -10.91511 q -2.13936,0.0437 -3.23087,2.22668 -1.09151,2.13936 -1.13517,6.50541 0,4.36604 1.09151,6.54906 1.09151,2.18303 3.27453,2.18303 h 15.2375 l 0.0437,-28.3793 q 0,-4.36604 -1.09151,-6.54906 -1.09151,-2.18303 -3.27454,-2.18303 H 372.4375 v -4.36604 h 19.6472 q 4.36604,0 6.54907,3.27453 2.18302,3.27454 2.18302,9.8236 z m 37.06772,32.74534 h -21.87389 q -4.32238,0 -6.5054,-4.36604 -2.13936,-4.36605 -2.13936,-8.73209 v -19.64721 q 0,-4.36604 2.18302,-8.73209 2.18302,-4.36604 6.50541,-4.36604 h 21.87388 v 4.36604 h -15.32482 q -4.36604,0 -5.45755,3.3182 -1.04785,3.27453 -1.04785,7.64058 v 15.23749 q 0,4.36605 1.04785,7.64058 1.09151,3.27454 5.41389,3.27454 h 15.32482 z m 6.59273,-58.94161 h 8.73209 v 34.27346 l 19.6472,-21.17532 h 8.73209 l -21.83023,24.01325 19.64721,21.83022 h -8.73209 l -15.58678,-17.28954 -1.8774,2.00838 v 15.28116 h -8.73209 z m 78.63246,45.79982 q 0,6.59272 -2.18302,9.86726 -2.18302,3.27453 -6.54907,3.27453 h -24.01324 v -4.36604 h 19.6472 q 2.75061,-0.34929 3.5365,-2.35767 0.82954,-2.00838 0.8732,-6.37442 0,-4.32239 -1.09151,-6.54907 -1.09151,-2.22668 -3.31819,-2.22668 l -13.09814,0.0437 q -4.32238,-0.0873 -6.54906,-3.3182 -2.18303,-3.27453 -2.22669,-7.64058 0,-6.54906 2.18303,-9.77994 2.18302,-3.27453 6.5054,-3.27453 h 24.10057 v 4.36604 h -19.6472 q -2.27034,0 -3.3182,2.18303 -1.04785,2.13936 -1.04785,6.5054 0.0437,2.18303 1.09152,4.36605 1.09151,2.13936 3.31819,2.13936 h 13.05447 q 4.40971,0.0437 6.54907,3.36185 2.18302,3.3182 2.18302,9.77995 z"
   id="text1-1"
   transform="scale(1.0317319,0.96924404)"
   aria-label="Hacks" /></svg>
