<?xml version="1.0" encoding="UTF-8" standalone="no"?>
<!-- Created by ERK -->

<svg
   width="800mm"
   height="320mm"
   viewBox="0 0 799.99999 319.99999"
   version="1.1"
   id="svg1"
   inkscape:version="1.3.2 (091e20e, 2023-11-25, custom)"
   xml:space="preserve"
   sodipodi:docname="pv1000-w.svg"
   xmlns:inkscape="http://www.inkscape.org/namespaces/inkscape"
   xmlns:sodipodi="http://sodipodi.sourceforge.net/DTD/sodipodi-0.dtd"
   xmlns="http://www.w3.org/2000/svg"
   xmlns:svg="http://www.w3.org/2000/svg"><sodipodi:namedview
     id="namedview1"
     pagecolor="#ffffff"
     bordercolor="#000000"
     borderopacity="0.25"
     inkscape:showpageshadow="2"
     inkscape:pageopacity="0.0"
     inkscape:pagecheckerboard="true"
     inkscape:deskcolor="#d1d1d1"
     inkscape:document-units="mm"
     inkscape:zoom="0.58236858"
     inkscape:cx="1557.4329"
     inkscape:cy="270.44728"
     inkscape:window-width="2560"
     inkscape:window-height="1351"
     inkscape:window-x="-9"
     inkscape:window-y="-9"
     inkscape:window-maximized="1"
     inkscape:current-layer="svg1" /><defs
     id="defs1"><marker
       id="DistanceX"
       orient="auto"
       refX="0"
       refY="0"
       style="overflow:visible"><path
         d="M 3,-3 -3,3 M 0,-5 V 5"
         style="stroke:#000000;stroke-width:0.5"
         id="path1" /></marker><pattern
       id="Hatch"
       patternUnits="userSpaceOnUse"
       width="8"
       height="8"
       x="0"
       y="0"><path
         d="M8 4 l-4,4"
         stroke="#000000"
         stroke-width="0.25"
         linecap="square"
         id="path2" /><path
         d="M6 2 l-4,4"
         stroke="#000000"
         stroke-width="0.25"
         linecap="square"
         id="path3" /><path
         d="M4 0 l-4,4"
         stroke="#000000"
         stroke-width="0.25"
         linecap="square"
         id="path4" /></pattern><symbol
       id="*Model_Space" /><symbol
       id="*Paper_Space" /><symbol
       id="*Paper_Space0" /></defs><path
     style="font-weight:bold;font-size:89.6723px;line-height:0;font-family:'Eurostile Extended';-inkscape-font-specification:'Eurostile Extended Bold';letter-spacing:-10.5914px;word-spacing:0px;fill:#ffffff;stroke-width:1.60141;stroke-linecap:square;stroke-miterlimit:5;paint-order:fill markers stroke"
     d="m 454.57414,245.96866 q 0,12.36123 -4.57829,16.48164 -4.48854,4.03084 -17.86435,4.03084 l -13.91444,0.26872 -11.31109,-0.17915 q -18.04389,0 -23.25059,-4.65785 -5.11692,-4.74743 -5.11692,-14.69016 l -0.53862,-12.54038 q 0,-14.69016 4.30899,-21.49779 4.30899,-6.89721 17.59503,-6.89721 l 17.05641,-0.44787 q 7.45096,0 12.29856,0.17914 4.84762,0.0896 11.75996,0.80617 6.91233,0.71659 9.87476,6.09104 2.96242,5.28488 2.96242,14.51101 h -17.6848 q 0,-4.1204 -2.06472,-5.46402 -1.97495,-1.43318 -6.37372,-1.43318 l -5.11692,-0.0896 h -5.02715 l -9.24636,0.0896 q -8.25889,0 -10.14408,3.04551 -1.79541,3.04552 -1.79541,12.62996 0,9.85315 2.1545,12.8091 2.15448,2.95594 11.49062,2.95594 l 7.09188,0.17916 9.33614,-0.0896 q 5.476,0 7.81004,-1.52277 2.33403,-1.52276 2.33403,-7.16593 h 17.86435 z m 19.11111,20.15418 h -20.28816 l 33.39466,-59.74595 h 24.59713 l 32.67649,59.74595 h -20.10861 l -5.65554,-10.83847 H 479.6101 Z m 12.29856,-23.1997 H 511.6582 L 498.821,219.27556 Z m 75.48696,5.10572 q 0,3.67255 2.4238,4.65786 2.51357,0.89575 6.91234,0.89575 l 8.61797,0.0896 12.2088,-0.3583 q 5.02715,0 6.55325,-1.25403 1.5261,-1.25405 1.5261,-3.94127 0,-2.41851 -1.79541,-3.85168 -1.70564,-1.43319 -6.64303,-1.43319 h -2.96242 l -29.98337,-0.62703 q -8.43844,0 -11.93949,-4.20997 -3.41129,-4.29956 -3.41129,-13.07783 0,-7.43465 2.1545,-11.55507 2.24427,-4.1204 7.98958,-5.55359 5.83509,-1.52276 15.17123,-1.79149 9.4259,-0.26871 12.65765,-0.26871 l 12.74742,0.17914 q 7.6305,0 12.29857,1.25404 4.66807,1.16446 6.55325,4.38914 1.97496,3.22466 2.51358,5.82231 0.53863,2.59765 0.53863,7.16593 h -17.86435 q 0,-3.13509 -1.88518,-4.38913 -1.79542,-1.25403 -5.11693,-1.25403 l -8.79752,-0.0896 -13.91443,0.44787 q -2.7829,0 -4.75785,1.0749 -1.88517,0.98532 -1.88517,3.40382 0,3.31423 2.24426,4.38913 2.33403,0.98532 6.28393,0.98532 h 1.88519 l 12.2088,0.17914 12.02925,0.0896 q 11.58041,0 16.7871,3.67255 5.29647,3.58296 5.29647,14.511 0,10.56975 -4.75784,14.51101 -4.66807,3.94127 -15.53031,3.94127 l -23.34035,0.62701 -12.2088,-0.26871 q -9.69522,0 -14.27352,-3.13511 -4.5783,-3.13509 -4.5783,-12.62994 V 247.0436 H 561.381 Z m 60.40549,18.09398 v -59.74595 h 18.22343 v 59.74595 z m 61.84191,-60.37296 14.54283,0.0896 q 15.97916,0 21.81425,5.28487 5.92487,5.28487 5.92487,21.1395 v 2.86637 q 0,18.63142 -4.66807,24.99118 -4.66807,6.2702 -23.60967,6.2702 l -13.73489,0.26871 -5.74532,0.0896 -12.38834,-0.44787 q -10.41338,0 -16.06894,-4.65786 -5.65554,-4.74743 -5.65554,-15.2276 l -0.17954,-11.01762 q 0,-18.18355 4.66807,-23.73714 4.66807,-5.64318 22.17333,-5.64318 z m -9.87476,46.13067 9.78499,0.17916 9.33614,-0.0896 q 7.72027,0 11.04178,-1.61233 3.41129,-1.7019 3.41129,-8.24082 l 0.17953,-8.06167 q 0,-4.12041 -0.53862,-6.98679 -0.44885,-2.95594 -1.97495,-4.29956 -1.5261,-1.43317 -4.5783,-1.88104 -2.96242,-0.44788 -6.37371,-0.44788 l -18.13366,0.0896 q -6.19417,0 -9.42591,1.25403 -3.23174,1.25404 -3.77036,5.37445 -0.44886,4.03084 -0.44886,6.71806 v 1.61234 2.4185 q 0,8.24082 1.88519,11.10719 1.97495,2.86637 9.60545,2.86637 z"
     id="text8"
     inkscape:label="CASIO"
     aria-label="CASIO" /><path
     id="path16"
     style="display:inline;fill:#32ab9a;fill-opacity:1;stroke:none;stroke-width:0.944827;stroke-linecap:round"
     d="m 345.5012,217.25011 a 8.000005,8.000005 0 0 0 -16.00001,0 8.000005,8.000005 0 0 0 16.00001,0 z m 0,21.5 a 8.000005,8.000005 0 0 0 -16.00001,0 8.000005,8.000005 0 0 0 16.00001,0 z m 0,21.50001 a 8.000005,8.000005 0 0 0 -16.00001,0 8.000005,8.000005 0 0 0 16.00001,0 z m -21.25001,0 a 8,8 0 0 0 -16,0 8,8 0 0 0 16,0 z m 0,-21.50001 a 8,8 0 0 0 -16,0 8,8 0 0 0 16,0 z m 0,-21.5 a 8,8 0 0 0 -16,0 8,8 0 0 0 16,0 z m -21.24999,0 a 8,8 0 0 0 -16,0 8,8 0 0 0 16,0 z m 0,21.5 a 8,8 0 0 0 -16,0 8,8 0 0 0 16,0 z m 0,21.50001 a 8,8 0 0 0 -16,0 8,8 0 0 0 16,0 z m -21.25,0 a 8,8 0 0 0 -16,0 8,8 0 0 0 16,0 z m 0,-21.50001 a 8,8 0 0 0 -16,0 8,8 0 0 0 16,0 z m 0,-21.5 a 8,8 0 0 0 -16,0 8,8 0 0 0 16,0 z m -21.25,0 a 8,8 0 0 0 -16,0 8,8 0 0 0 16,0 z m 0,21.5 a 8,8 0 0 0 -16,0 8,8 0 0 0 16,0 z m 0,21.50001 a 8,8 0 0 0 -16,0 8,8 0 0 0 16,0 z m -21.25,0 a 8,8 0 0 0 -16,0 8,8 0 0 0 16,0 z m 0,-21.50001 a 8,8 0 0 0 -16,0 8,8 0 0 0 16,0 z m 0,-21.5 a 8,8 0 0 0 -16,0 8,8 0 0 0 16,0 z m -21.25,43.00001 a 8.000005,8.000005 0 0 0 -16.00001,0 8.000005,8.000005 0 0 0 16.00001,0 z m 0,-21.50001 a 8.000005,8.000005 0 0 0 -16.00001,0 8.000005,8.000005 0 0 0 16.00001,0 z m 0,-21.5 a 8.000005,8.000005 0 0 0 -16.00001,0 8.000005,8.000005 0 0 0 16.00001,0 z m -21.25,0 a 8,8 0 0 0 -16,0 8,8 0 0 0 16,0 z m 0,21.5 a 8,8 0 0 0 -16,0 8,8 0 0 0 16,0 z m 0,21.50001 a 8,8 0 0 0 -16,0 8,8 0 0 0 16,0 z m -21.25,0 a 8.000001,8.000001 0 0 0 -16,0 8.000001,8.000001 0 0 0 16,0 z m 0,-21.50001 a 8.000001,8.000001 0 0 0 -16,0 8.000001,8.000001 0 0 0 16,0 z m 0,-21.5 a 8.000001,8.000001 0 0 0 -16,0 8.000001,8.000001 0 0 0 16,0 z m -21.25,0 a 8,8 0 0 0 -15.99999,0 8,8 0 0 0 15.99999,0 z m 0,21.5 a 8,8 0 0 0 -15.99999,0 8,8 0 0 0 15.99999,0 z m 0,21.50001 a 8,8 0 0 0 -15.99999,0 8,8 0 0 0 15.99999,0 z m -21.24999,0 a 8,8 0 0 0 -16,0 8,8 0 0 0 16,0 z m 0,-21.50001 a 8,8 0 0 0 -16,0 8,8 0 0 0 16,0 z m 0,-21.5 a 8,8 0 0 0 -16,0 8,8 0 0 0 16,0 z m -21.25,0 a 8,8 0 0 0 -16.000004,0 8,8 0 0 0 16.000004,0 z m 0,21.5 a 8,8 0 0 0 -16.000004,0 8,8 0 0 0 16.000004,0 z m 0,21.50001 a 8,8 0 0 0 -16.000004,0 8,8 0 0 0 16.000004,0 z m -21.250004,0 a 8.0000005,8.0000005 0 0 0 -16.000001,0 8.0000005,8.0000005 0 0 0 16.000001,0 z m 0,-21.50001 a 8.0000005,8.0000005 0 0 0 -16.000001,0 8.0000005,8.0000005 0 0 0 16.000001,0 z m 0,-21.5 a 8.0000005,8.0000005 0 0 0 -16.000001,0 8.0000005,8.0000005 0 0 0 16.000001,0 z"
     inkscape:label="dots" /><g
     id="g23"
     inkscape:label="PV-1000"
     style="display:inline"
     transform="translate(68.733814,48.376587)"><path
       id="path17"
       style="fill:#32ab9a;fill-opacity:1;stroke:none;stroke-width:0.944827;stroke-linecap:round"
       d="m 21.767137,15.373474 2.45e-4,49.500105 17.827135,-3e-5 c 5.890545,-3e-5 11.680075,-0.2155 16.716935,-2.603389 4.6719,-2.214869 8.69624,-6.298742 11.0278,-11.164776 3.26324,-6.810521 3.21049,-15.153206 0,-21.963719 -2.29386,-4.866031 -6.19973,-8.949898 -11.0278,-11.164778 -5.20476,-2.387682 -11.48124,-2.603363 -16.71561,-2.603388 z M 8.2668464,131.37347 c -1.8607678,5e-5 -3.2727108,-1.6764 -2.956305,-3.51007 0.9691,-5.6162 1.4563105,-11.30496 1.456305,-17.00417 V 9.3735201 c 5.6e-6,-1.6568514 1.3431512,-2.9999965 3.000005,-3.000055 H 39.593942 c 5.73947,5.85e-5 11.76215,0.1947095 17.71468,1.2131995 6.86321,1.174308 13.63315,3.4438164 18.93404,7.7868594 7.06901,5.791671 11.52553,15.270837 11.52419,24.750001 -0.001,9.479163 -4.46053,18.958327 -11.52419,24.749994 -5.29687,4.34305 -12.05828,6.61255 -18.93404,7.78686 -5.96341,1.01849 -12.01285,1.21314 -17.71468,1.2132 l -17.8271,6e-5 5e-6,36.985591 c 4e-6,5.69921 0.487215,11.38797 1.456315,17.00417 0.316406,1.83367 -1.095537,3.51012 -2.956305,3.51007 z"
       inkscape:label="P"
       sodipodi:nodetypes="cccssssccccccccsscsscccccc" /><path
       id="path18"
       style="fill:#32ab9a;fill-opacity:1;stroke:none;stroke-width:0.944827;stroke-linecap:round"
       d="M 156.00622,129.44861 201.68616,10.448574 c 0.75413,-1.9646684 -0.6963,-4.0750509 -2.80081,-4.0751089 h -9.49412 c -3.24962,5.75e-5 -5.63581,3.0512124 -4.85269,6.2050109 0.88879,3.579363 0.65663,7.345355 -0.66509,10.78839 L 146.51212,120.69643 114.92853,26.302596 c -1.54365,-4.613498 -2.04818,-9.51121 -1.47745,-14.342493 0.35123,-2.9732489 -1.97155,-5.5865774 -4.96544,-5.5866379 H 94.851482 c -2.282844,5.58e-5 -3.729222,2.448552 -2.62742,4.4479609 2.89134,5.246827 5.302188,10.744418 7.20308,16.425537 L 133.58215,129.3255 c 0.40929,1.22331 1.55489,2.04802 2.84489,2.04797 h 16.77851 c 1.24202,5e-5 2.35563,-0.7653 2.80067,-1.92486 z"
       inkscape:label="V"
       sodipodi:nodetypes="ccccccccccccccccc" /><path
       id="path19"
       style="fill:#32ab9a;fill-opacity:1;stroke:none;stroke-width:0.944827;stroke-linecap:round"
       d="m 252.26739,74.873509 c -1e-5,-1.65684 -1.34316,-2.99998 -3.00005,-3.00005 h -41.99998 c -1.65682,7e-5 -2.99997,1.34321 -2.99993,3.00005 v 3.49996 c -4e-5,1.65691 1.34311,3.00005 2.99993,3.00005 h 41.99998 c 1.65689,0 3.00004,-1.34314 3.00005,-3.00005 z"
       inkscape:label="-"
       sodipodi:nodetypes="ccccccccc" /><path
       id="path20"
       style="fill:#32ab9a;fill-opacity:1;stroke:none;stroke-width:0.944827;stroke-linecap:round"
       d="M 293.7672,110.85923 V 9.3735201 c 1.7e-4,-1.6568428 -1.34296,-2.9999843 -3.00017,-3.000055 h -10.66352 c -0.85066,5.92e-5 -1.66096,0.360826 -2.22993,0.9926625 L 263.19209,23.671598 c -1.10861,1.231281 -1.0092,3.128171 0.22214,4.236799 l 2.66894,2.402704 c 1.23078,1.108698 3.12768,1.009286 4.23641,-0.222014 l 8.44822,-9.382407 -2.1e-4,90.15255 c -2.1e-4,5.69921 -0.48741,11.38797 -1.45651,17.00417 -0.3164,1.83367 1.09553,3.51011 2.9566,3.51007 h 11.99943 c 1.86104,6e-5 3.27299,-1.67639 2.95658,-3.51007 -0.9691,-5.6162 -1.45631,-11.30496 -1.45649,-17.00417 z"
       inkscape:label="1"
       sodipodi:nodetypes="cccccccccccccccc" /><path
       d="m 364.26738,3.3732886 a 54.50014,65.000167 0 0 0 0,130.0003314 54.50014,65.000167 0 0 0 0,-130.0003314 z m 0,6.500378 a 38.000031,58.500047 0 0 1 0,117.0000934 38.000031,58.500047 0 0 1 0,-117.0000934 z"
       style="fill:#32ab9a;fill-opacity:1;stroke:none;stroke-width:0.945;stroke-linecap:round;stroke-dasharray:none"
       id="path21"
       inkscape:label="0" /><path
       d="m 483.26735,3.3732886 a 54.50014,65.000167 0 0 0 0,130.0003314 54.50014,65.000167 0 0 0 0,-130.0003314 z m 0,6.500378 a 38.000031,58.500047 0 0 1 0,117.0000934 38.000031,58.500047 0 0 1 0,-117.0000934 z"
       style="fill:#32ab9a;fill-opacity:1;stroke:none;stroke-width:0.945;stroke-linecap:round;stroke-dasharray:none"
       id="path22"
       inkscape:label="0" /><path
       d="m 602.26732,3.3732886 a 54.50014,65.000167 0 0 0 0,130.0003314 54.50014,65.000167 0 0 0 0,-130.0003314 z m 0,6.500378 a 38.000031,58.500047 0 0 1 0,117.0000934 38.000031,58.500047 0 0 1 0,-117.0000934 z"
       style="fill:#32ab9a;fill-opacity:1;stroke:none;stroke-width:0.945;stroke-linecap:round;stroke-dasharray:none"
       id="path23"
       inkscape:label="0" /></g></svg>
