<?xml version="1.0" encoding="UTF-8"?>
<svg width="1920px" height="1164px" clip-rule="evenodd" fill-rule="evenodd" image-rendering="optimizeQuality" shape-rendering="geometricPrecision" text-rendering="geometricPrecision" version="1.1" xmlns="http://www.w3.org/2000/svg">
 <g fill="#fff">
  <path d="m137.5 189.5h137v98c-42.668-0.167-85.335 0-128 0.5-25.189 2.198-37.356 16.031-36.5 41.5-0.667 165-0.667 330 0 495-0.393 22.593 10.441 35.76 32.5 39.5 43.999 0.5 87.999 0.667 132 0.5v98c-48.668 0.167-97.334 0-146-0.5-47.924-4.516-82.757-28.016-104.5-70.5-6.0132-13.719-9.6799-28.052-11-43-0.6667-181-0.6667-362 0-543 6.5537-60.551 39.387-98.051 98.5-112.5 8.773-1.5 17.44-2.666 26-3.5z" opacity=".997"/>
  <path d="m1708.5 189.5c27.02-0.295 54.02 0.205 81 1.5 56.7 3.7 93.86 32.533 111.5 86.5 2.53 9.179 4.2 18.512 5 28 1.95 180.33 1.95 360.67 0 541-6.33 59.664-38.5 97.164-96.5 112.5-6.6 1.434-13.27 2.434-20 3-48.33 0.5-96.67 0.667-145 0.5-0.17-29.335 0-58.669 0.5-88 2.81-4.162 6.64-6.995 11.5-8.5 39.99-1.101 79.99-1.768 120-2 13.06-1.407 22.56-7.907 28.5-19.5 2.62-7.093 3.95-14.426 4-22 0.67-164 0.67-328 0-492 0.52-11.431-2.48-21.764-9-31-7.31-7.234-16.14-11.067-26.5-11.5-42.67-0.5-85.33-0.667-128-0.5v-96c21.17-0.402 42.17-1.069 63-2z" opacity=".997"/>
 </g>
 <path d="m366.5 383.5c81.21-2.988 142.71 30.012 184.5 99 26.846 51.933 30.846 105.6 12 161-26.097 64.428-72.931 104.93-140.5 121.5-80.604 13.366-146.1-11.801-196.5-75.5-36.029-52.522-45.362-109.52-28-171 29.027-78.859 85.194-123.86 168.5-135z" fill="#ed1c23" opacity=".995"/>
 <g fill="#fff">
  <path d="m1496.5 411.5c39.25-2.583 76.25 5.25 111 23.5 19.46 11.141 27.13 27.975 23 50.5 0.57 10.232-0.59 20.232-3.5 30-5.1 7.991-11.6 9.157-19.5 3.5-29-24-62.33-35-100-33-33.85 4-59.02 20.833-75.5 50.5-12.14 24.213-18.8 49.879-20 77-2.96 34.65 1.37 68.317 13 101 18.16 41.35 49.99 62.017 95.5 62 26.12-0.429 50.45-7.262 73-20.5 7.7-5.185 15.7-9.852 24-14 7.29-1.053 11.46 2.114 12.5 9.5 1.57 15.293 1.9 30.626 1 46-1 9.838-5.5 17.672-13.5 23.5-24.2 15.068-50.53 24.401-79 28-39.43 5.224-77.77 0.89-115-13-42.74-18.746-72.58-49.913-89.5-93.5-12.25-34.085-18.08-69.251-17.5-105.5-0.91-42.375 7.26-82.875 24.5-121.5 32.15-63.686 83.98-98.353 155.5-104z" opacity=".995"/>
  <path d="m660.5 418.5c48.334-0.167 96.668 0 145 0.5 34.712 0.571 66.045 10.904 94 31 20.695 18.556 32.529 41.722 35.5 69.5 5.99 62.898-20.51 105.06-79.5 126.5 20.659 11.659 36.159 28.159 46.5 49.5 17.584 39.086 34.584 78.42 51 118 3.581 7.651 4.915 15.651 4 24-0.465 1.431-1.299 2.597-2.5 3.5-4.726 2.353-9.726 3.686-15 4-19.002 1.942-38.002 1.942-57 0-7.481-0.364-13.314-3.531-17.5-9.5-14.057-35.78-28.39-71.446-43-107-6.136-14.281-13.803-27.614-23-40-10.252-10.541-22.752-16.375-37.5-17.5-10.661-0.5-21.328-0.667-32-0.5 0.488 55.392-0.012 110.73-1.5 166-3.917 4.209-8.75 6.709-14.5 7.5-20.398 3.454-40.732 3.121-61-1-4.688-0.92-8.188-3.42-10.5-7.5-0.667-132.33-0.667-264.67 0-397 0.66-4.984 2.66-9.317 6-13 4.019-2.755 8.185-5.089 12.5-7zm69 67c20.686-0.248 41.353 0.252 62 1.5 40.469 5.501 57.969 28.668 52.5 69.5-5.252 23.253-19.418 38.087-42.5 44.5-5.926 1.432-11.926 2.432-18 3-17.997 0.5-35.997 0.667-54 0.5v-119z" opacity=".996"/>
  <path d="m1038.5 418.5c74.33-0.167 148.67 0 223 0.5 3.23 1.944 5.4 4.778 6.5 8.5 2.45 13.556 3.12 27.223 2 41-0.52 4.9-1.86 9.566-4 14-1.54 1.878-3.38 3.378-5.5 4.5-51.33 0.5-102.67 0.667-154 0.5v102c43.67-0.167 87.33 0 131 0.5 6.14 4.116 9.31 9.949 9.5 17.5 0.67 10.667 0.67 21.333 0 32-0.29 6.007-2.45 11.173-6.5 15.5-1.89 0.973-3.89 1.64-6 2-42.57 0.83-85.07 0.663-127.5-0.5-0.5 39.332-0.67 78.665-0.5 118 51.33-0.167 102.67 0 154 0.5 6.53 2.547 10.03 7.38 10.5 14.5 2 13.333 2 26.667 0 40-0.47 7.12-3.97 11.953-10.5 14.5-72.67 0.667-145.33 0.667-218 0-12.18-1.186-19.68-7.686-22.5-19.5-0.67-128.67-0.67-257.33 0-386 1.9-10.73 8.07-17.397 18.5-20z" opacity=".993"/>
 </g>
</svg>
