<?xml version="1.0" encoding="UTF-8" standalone="no"?>
<!-- Created by ERK -->

<svg
   width="915.44073mm"
   height="248.93114mm"
   viewBox="0 0 915.44073 248.93114"
   version="1.1"
   id="svg1"
   inkscape:version="1.4 (86a8ad7, 2024-10-11)"
   xml:space="preserve"
   sodipodi:docname="redriver2-w.svg"
   xmlns:inkscape="http://www.inkscape.org/namespaces/inkscape"
   xmlns:sodipodi="http://sodipodi.sourceforge.net/DTD/sodipodi-0.dtd"
   xmlns="http://www.w3.org/2000/svg"
   xmlns:svg="http://www.w3.org/2000/svg"><sodipodi:namedview
     id="namedview1"
     pagecolor="#ffffff"
     bordercolor="#000000"
     borderopacity="0.25"
     inkscape:showpageshadow="2"
     inkscape:pageopacity="0.0"
     inkscape:pagecheckerboard="true"
     inkscape:deskcolor="#d1d1d1"
     inkscape:document-units="mm"
     inkscape:zoom="0.41179678"
     inkscape:cx="2429.5965"
     inkscape:cy="681.16123"
     inkscape:window-width="3840"
     inkscape:window-height="2066"
     inkscape:window-x="-11"
     inkscape:window-y="-11"
     inkscape:window-maximized="1"
     inkscape:current-layer="svg1" /><defs
     id="defs1"><marker
       id="DistanceX"
       orient="auto"
       refX="0"
       refY="0"
       style="overflow:visible"><path
         d="M 3,-3 -3,3 M 0,-5 V 5"
         style="stroke:#000000;stroke-width:0.5"
         id="path1" /></marker><pattern
       id="Hatch"
       patternUnits="userSpaceOnUse"
       width="8"
       height="8"
       x="0"
       y="0"><path
         d="M8 4 l-4,4"
         stroke="#000000"
         stroke-width="0.25"
         linecap="square"
         id="path2" /><path
         d="M6 2 l-4,4"
         stroke="#000000"
         stroke-width="0.25"
         linecap="square"
         id="path3" /><path
         d="M4 0 l-4,4"
         stroke="#000000"
         stroke-width="0.25"
         linecap="square"
         id="path4" /></pattern><symbol
       id="*Model_Space" /><symbol
       id="*Paper_Space" /><symbol
       id="*Paper_Space0" /><marker
       id="DistanceX-8"
       orient="auto"
       refX="0.0"
       refY="0.0"
       style="overflow:visible"><path
         d="M 3,-3 L -3,3 M 0,-5 L  0,5"
         style="stroke:#000000; stroke-width:0.5"
         id="path1-8" /></marker><pattern
       id="Hatch-2"
       patternUnits="userSpaceOnUse"
       width="8"
       height="8"
       x="0"
       y="0"><path
         d="M8 4 l-4,4"
         stroke="#000000"
         stroke-width="0.25"
         linecap="square"
         id="path2-4" /><path
         d="M6 2 l-4,4"
         stroke="#000000"
         stroke-width="0.25"
         linecap="square"
         id="path3-5" /><path
         d="M4 0 l-4,4"
         stroke="#000000"
         stroke-width="0.25"
         linecap="square"
         id="path4-5" /></pattern><symbol
       id="*Model_Space-1" /><symbol
       id="*Paper_Space-7" /><symbol
       id="*Paper_Space0-1" /></defs><g
     id="g12"
     inkscape:label="Redriver2Shadow"
     style="display:inline;fill:#808080"
     transform="translate(1.52759,1.5276085)"><path
       id="path27"
       style="fill:#808080;fill-opacity:1;stroke:none;stroke-width:0.944827;stroke-linecap:round"
       d="m 81.86533,127.00786 c 7.412048,-3.59768 12.73871,-10.42682 14.42341,-18.49178 1.053862,-5.04503 1.585001,-10.185241 1.585,-15.339195 V 39.883912 c 10e-7,-5.153978 -0.531138,-10.294189 -1.585,-15.339225 C 94.604042,16.479725 89.27738,9.6505839 81.86533,6.0529 75.696137,3.058478 68.927985,1.5026967 62.070525,1.5027015 L 0.47241,1.502707 V 248.4587 H 42.4086 V 146.22693 h 5.552545 c 4.418273,0 7.999995,3.58172 7.99997,8.00001 l -2.5e-5,94.23176 h 41.91265 v -87.61987 c 10e-7,-5.15393 -0.531138,-10.29414 -1.585,-15.33918 -1.684697,-8.06496 -7.011359,-14.89411 -14.42341,-18.49179 z M 55.961115,42.258011 v 58.648179 c 2.5e-5,4.41833 -3.581697,8.00005 -7.99997,8.0001 l -5.552545,5e-5 V 34.257858 l 5.552545,5e-5 c 4.418273,5.1e-5 7.999995,3.581773 7.99997,8.000103 z"
       inkscape:label="R"
       sodipodi:nodetypes="ccccccccccccccccccccccccc" /><path
       id="path39"
       style="fill:#808080;fill-opacity:1;stroke:none;stroke-width:0.944827;stroke-linecap:round"
       d="m 185.63689,248.4587 v -32.75516 h -25.17775 v -85.59985 h 25.17775 V 97.348285 H 160.45914 V 34.257858 h 25.17775 V 1.502707 H 118.47241 V 248.4587 Z"
       inkscape:label="E"
       sodipodi:nodetypes="ccccccccccccc" /><path
       d="M 207.94751,1.5027507 V 248.45874 h 59.56846 c 6.06122,1e-5 9.70643,-0.14067 15.5851,-1.48467 5.87864,-1.344 10.50528,-3.70442 13.86943,-7.07037 3.36412,-3.36594 6.07168,-9.53403 7.06107,-13.86168 0.98941,-4.32764 1.48433,-9.52223 1.48415,-15.58355 V 39.502498 c 1.8e-4,-6.061304 -0.14064,-9.706431 -1.48467,-15.585095 -1.344,-5.878666 -3.70441,-10.505308 -7.07036,-13.869438 C 293.59474,6.6838385 287.42663,3.9763048 283.099,2.9868978 278.77134,1.9974888 273.57719,1.5027452 267.51597,1.5027507 Z m 41.18767,32.7551063 h 5.55108 c 4.41861,5.1e-5 8.00038,3.581698 8.00055,8.000029 V 207.7036 c -1.7e-4,4.41834 -3.58194,7.99999 -8.00055,8.00003 h -5.55108 z"
       style="fill:#808080;stroke:none;stroke-width:0.944827;stroke-linecap:round"
       id="path12"
       inkscape:label="D" /><path
       id="path10"
       style="fill:#808080;fill-opacity:1;stroke:none;stroke-width:0.944827;stroke-linecap:round"
       d="m 406.86533,127.00786 c 7.41205,-3.59768 12.73871,-10.42682 14.42341,-18.49178 1.05387,-5.04503 1.585,-10.185241 1.585,-15.339195 V 39.883912 c 0,-5.153978 -0.53113,-10.294189 -1.585,-15.339225 C 419.60405,16.479725 414.27738,9.6505839 406.86533,6.0529 400.69614,3.058478 393.92799,1.5026967 387.07053,1.5027015 l -61.59812,5.5e-6 V 248.4587 H 367.4086 V 146.22693 h 5.55255 c 4.41827,0 7.99999,3.58172 7.99997,8.00001 l -3e-5,94.23176 h 41.91265 v -87.61987 c 0,-5.15393 -0.53113,-10.29414 -1.585,-15.33918 -1.68469,-8.06496 -7.01136,-14.89411 -14.42341,-18.49179 z M 380.96112,42.258011 v 58.648179 c 2e-5,4.41833 -3.5817,8.00005 -7.99997,8.0001 l -5.55255,5e-5 V 34.257858 l 5.55255,5e-5 c 4.41827,5.1e-5 7.99999,3.581773 7.99997,8.000103 z"
       inkscape:label="R"
       sodipodi:nodetypes="ccccccccccccccccccccccccc" /><path
       id="path78"
       style="fill:#808080;fill-opacity:1;stroke:none;stroke-width:0.944827;stroke-linecap:round"
       d="M 443.42935,248.4587 V 1.502707 h 42.05023 V 248.4587 Z"
       inkscape:label="I"
       sodipodi:nodetypes="ccccc" /><path
       id="path86"
       style="fill:#808080;fill-opacity:1;stroke:none;stroke-width:0.944827;stroke-linecap:round"
       d="m 559.6714,1.502707 h 41.21679 L 574.496,248.4587 H 525.39462 L 499.00244,1.502707 h 41.21679 l 9.41917,167.738103 h 0.61383 z"
       inkscape:label="V"
       sodipodi:nodetypes="ccccccccc" /><path
       id="path11"
       style="fill:#808080;fill-opacity:1;stroke:none;stroke-width:0.944827;stroke-linecap:round"
       d="m 680.63689,248.4587 v -32.75516 h -25.17775 v -85.59985 h 25.17775 V 97.348285 H 655.45914 V 34.257858 h 25.17775 V 1.502707 H 613.47241 V 248.4587 Z"
       inkscape:label="E"
       sodipodi:nodetypes="ccccccccccccc" /><path
       id="path9"
       style="fill:#808080;fill-opacity:1;stroke:none;stroke-width:0.944827;stroke-linecap:round"
       d="m 781.86533,127.00786 c 7.41205,-3.59768 12.73871,-10.42682 14.42341,-18.49178 1.05387,-5.04503 1.585,-10.185241 1.585,-15.339195 V 39.883912 c 0,-5.153978 -0.53113,-10.294189 -1.585,-15.339225 C 794.60405,16.479725 789.27738,9.6505839 781.86533,6.0529 775.69614,3.058478 768.92799,1.5026967 762.07053,1.5027015 l -61.59812,5.5e-6 V 248.4587 H 742.4086 V 146.22693 h 5.55255 c 4.41827,0 7.99999,3.58172 7.99997,8.00001 l -3e-5,94.23176 h 41.91265 v -87.61987 c 0,-5.15393 -0.53113,-10.29414 -1.585,-15.33918 -1.68469,-8.06496 -7.01136,-14.89411 -14.42341,-18.49179 z M 755.96112,42.258011 v 58.648179 c 2e-5,4.41833 -3.5817,8.00005 -7.99997,8.0001 l -5.55255,5e-5 V 34.257858 l 5.55255,5e-5 c 4.41827,5.1e-5 7.99999,3.581773 7.99997,8.000103 z"
       inkscape:label="R"
       sodipodi:nodetypes="ccccccccccccccccccccccccc" /><path
       id="path138"
       style="fill:#808080;fill-opacity:1;stroke:none;stroke-width:3.571;stroke-linecap:round"
       d="m 3721.3,-310.6 h 155.53 l 7e-4,-168.6441 c 7e-4,-14.01947 11.3656,-25.38439 25.385,-25.38439 14.0194,0 25.3843,11.36492 25.3843,25.38439 V -319.36 c 0,21.98811 -3.2027,37.31256 -12.0008,57.4661 L 3721.3,183.135 V 304.71 h 364.38 V 180.911 h -192.85 l 181.1997,-421.91202 c 8.5453,-19.89835 11.6549,-35.0113 11.6526,-56.67488 v -191.26308 c 0,-22.90886 -0.5288,-36.68642 -5.6086,-58.905 -5.0797,-22.21858 -14.0008,-39.70569 -26.7225,-52.4205 -12.7217,-12.71482 -36.0342,-22.9478 -52.3907,-26.6873 -16.3564,-3.73949 -35.9891,-5.60924 -58.8993,-5.60923 h -77.1393 c -22.907,-10e-6 -36.6846,0.53111 -58.9031,5.61083 -22.2186,5.07972 -39.7057,14.00086 -52.4205,26.72255 -12.7148,12.72169 -22.9478,36.0342 -26.6873,52.39065 -3.7395,16.35645 -5.6093,35.98912 -5.6101,58.898 z"
       transform="matrix(0.26458333,0,0,0.26458333,-166.0357,167.83749)"
       inkscape:label="2"
       sodipodi:nodetypes="cccscccccccccccsssccssscc" /></g><g
     id="g17"
     inkscape:label="Redriver2"><path
       id="path5"
       style="fill:#ffdd12;fill-opacity:1;stroke:none;stroke-width:0.944827;stroke-linecap:round"
       d="m 81.86533,127.00786 c 7.412048,-3.59768 12.73871,-10.42682 14.42341,-18.49178 1.053862,-5.04503 1.585001,-10.185241 1.585,-15.339195 V 39.883912 c 10e-7,-5.153978 -0.531138,-10.294189 -1.585,-15.339225 C 94.604042,16.479725 89.27738,9.6505839 81.86533,6.0529 75.696137,3.058478 68.927985,1.5026967 62.070525,1.5027015 l -61.598115,5.5e-6 0,246.955993 H 42.4086 V 146.22693 h 5.552545 c 4.418273,0 7.999995,3.58172 7.99997,8.00001 l -2.5e-5,94.23176 h 41.91265 v -87.61987 c 10e-7,-5.15393 -0.531138,-10.29414 -1.585,-15.33918 -1.684697,-8.06496 -7.011359,-14.89411 -14.42341,-18.49179 z M 55.961115,42.258011 v 58.648179 c 2.5e-5,4.41833 -3.581697,8.00005 -7.99997,8.0001 l -5.552545,5e-5 V 34.257858 l 5.552545,5e-5 c 4.418273,5.1e-5 7.999995,3.581773 7.99997,8.000103 z"
       inkscape:label="R"
       sodipodi:nodetypes="ccccccccccccccccccccccccc" /><path
       id="path6"
       style="fill:#ffdd12;fill-opacity:1;stroke:none;stroke-width:0.944827;stroke-linecap:round"
       d="m 185.63689,248.4587 v -32.75516 h -25.17775 v -85.59985 h 25.17775 V 97.348285 H 160.45914 V 34.257858 h 25.17775 V 1.502707 l -67.16448,0 V 248.4587 Z"
       inkscape:label="E"
       sodipodi:nodetypes="ccccccccccccc" /><path
       d="M 207.94751,1.5027507 V 248.45874 h 59.56846 c 6.06122,1e-5 9.70643,-0.14067 15.5851,-1.48467 5.87864,-1.344 10.50528,-3.70442 13.86943,-7.07037 3.36412,-3.36594 6.07168,-9.53403 7.06107,-13.86168 0.98941,-4.32764 1.48433,-9.52223 1.48415,-15.58355 V 39.502498 c 1.8e-4,-6.061304 -0.14064,-9.706431 -1.48467,-15.585095 -1.344,-5.878666 -3.70441,-10.505308 -7.07036,-13.869438 C 293.59474,6.6838385 287.42663,3.9763048 283.099,2.9868978 278.77134,1.9974888 273.57719,1.5027452 267.51597,1.5027507 Z m 41.18767,32.7551063 h 5.55108 c 4.41861,5.1e-5 8.00038,3.581698 8.00055,8.000029 V 207.7036 c -1.7e-4,4.41834 -3.58194,7.99999 -8.00055,8.00003 h -5.55108 z"
       style="stroke:none;stroke-width:0.944827;stroke-linecap:round;fill:#ffffff"
       id="path7"
       inkscape:label="D" /><path
       id="path8"
       style="fill:#ffffff;fill-opacity:1;stroke:none;stroke-width:0.944827;stroke-linecap:round"
       d="m 406.86533,127.00786 c 7.41205,-3.59768 12.73871,-10.42682 14.42341,-18.49178 1.05387,-5.04503 1.585,-10.185241 1.585,-15.339195 V 39.883912 c 0,-5.153978 -0.53113,-10.294189 -1.585,-15.339225 C 419.60405,16.479725 414.27738,9.6505839 406.86533,6.0529 400.69614,3.058478 393.92799,1.5026967 387.07053,1.5027015 l -61.59812,5.5e-6 V 248.4587 H 367.4086 V 146.22693 h 5.55255 c 4.41827,0 7.99999,3.58172 7.99997,8.00001 l -3e-5,94.23176 h 41.91265 v -87.61987 c 0,-5.15393 -0.53113,-10.29414 -1.585,-15.33918 -1.68469,-8.06496 -7.01136,-14.89411 -14.42341,-18.49179 z M 380.96112,42.258011 v 58.648179 c 2e-5,4.41833 -3.5817,8.00005 -7.99997,8.0001 l -5.55255,5e-5 V 34.257858 l 5.55255,5e-5 c 4.41827,5.1e-5 7.99999,3.581773 7.99997,8.000103 z"
       inkscape:label="R"
       sodipodi:nodetypes="ccccccccccccccccccccccccc" /><path
       id="path13"
       style="fill:#ffffff;stroke:none;stroke-width:0.944827;stroke-linecap:round;fill-opacity:1"
       d="M 443.42935,248.4587 V 1.502707 l 42.05023,0 V 248.4587 Z"
       inkscape:label="I"
       sodipodi:nodetypes="ccccc" /><path
       id="path14"
       style="fill:#ffffff;stroke:none;stroke-width:0.944827;stroke-linecap:round;fill-opacity:1"
       d="m 559.6714,1.502707 h 41.21679 L 574.496,248.4587 H 525.39462 L 499.00244,1.502707 h 41.21679 l 9.41917,167.738103 0.61383,0 z"
       inkscape:label="V"
       sodipodi:nodetypes="ccccccccc" /><path
       id="path15"
       style="fill:#ffffff;fill-opacity:1;stroke:none;stroke-width:0.944827;stroke-linecap:round"
       d="m 680.63689,248.4587 v -32.75516 h -25.17775 v -85.59985 h 25.17775 V 97.348285 H 655.45914 V 34.257858 h 25.17775 V 1.502707 H 613.47241 V 248.4587 Z"
       inkscape:label="E"
       sodipodi:nodetypes="ccccccccccccc" /><path
       id="path16"
       style="fill:#ffffff;fill-opacity:1;stroke:none;stroke-width:0.944827;stroke-linecap:round"
       d="m 781.86533,127.00786 c 7.41205,-3.59768 12.73871,-10.42682 14.42341,-18.49178 1.05387,-5.04503 1.585,-10.185241 1.585,-15.339195 V 39.883912 c 0,-5.153978 -0.53113,-10.294189 -1.585,-15.339225 C 794.60405,16.479725 789.27738,9.6505839 781.86533,6.0529 775.69614,3.058478 768.92799,1.5026967 762.07053,1.5027015 l -61.59812,5.5e-6 V 248.4587 H 742.4086 V 146.22693 h 5.55255 c 4.41827,0 7.99999,3.58172 7.99997,8.00001 l -3e-5,94.23176 h 41.91265 v -87.61987 c 0,-5.15393 -0.53113,-10.29414 -1.585,-15.33918 -1.68469,-8.06496 -7.01136,-14.89411 -14.42341,-18.49179 z M 755.96112,42.258011 v 58.648179 c 2e-5,4.41833 -3.5817,8.00005 -7.99997,8.0001 l -5.55255,5e-5 V 34.257858 l 5.55255,5e-5 c 4.41827,5.1e-5 7.99999,3.581773 7.99997,8.000103 z"
       inkscape:label="R"
       sodipodi:nodetypes="ccccccccccccccccccccccccc" /><path
       id="path17"
       style="fill:#ffffff;stroke:none;stroke-width:3.571;stroke-linecap:round;fill-opacity:1"
       d="m 3721.3,-310.6 h 155.53 l 7e-4,-168.6441 c 7e-4,-14.01947 11.3656,-25.38439 25.385,-25.38439 14.0194,0 25.3843,11.36492 25.3843,25.38439 V -319.36 c -0,21.98811 -3.2027,37.31256 -12.0008,57.4661 L 3721.3,183.135 V 304.71 h 364.38 V 180.911 h -192.85 l 181.1997,-421.91202 c 8.5453,-19.89835 11.6549,-35.0113 11.6526,-56.67488 v -191.26308 c 0,-22.90886 -0.5288,-36.68642 -5.6086,-58.905 -5.0797,-22.21858 -14.0008,-39.70569 -26.7225,-52.4205 -12.7217,-12.71482 -36.0342,-22.9478 -52.3907,-26.6873 -16.3564,-3.73949 -35.9891,-5.60924 -58.8993,-5.60923 h -77.1393 c -22.907,-10e-6 -36.6846,0.53111 -58.9031,5.61083 -22.2186,5.07972 -39.7057,14.00086 -52.4205,26.72255 -12.7148,12.72169 -22.9478,36.0342 -26.6873,52.39065 -3.7395,16.35645 -5.6093,35.98912 -5.6101,58.898 z"
       transform="matrix(0.26458333,0,0,0.26458333,-166.0357,167.83749)"
       inkscape:label="2"
       sodipodi:nodetypes="cccscccccccccccsssccssscc" /></g></svg>
