<?xml version="1.0" encoding="UTF-8" standalone="no"?>
<svg
   width="568.399"
   height="175.933"
   viewBox="0 0 744.094 230.315"
   version="1.1"
   id="svg42209"
   sodipodi:docname="sammy-w.svg"
   inkscape:version="1.1.2 (0a00cf5339, 2022-02-04)"
   xmlns:inkscape="http://www.inkscape.org/namespaces/inkscape"
   xmlns:sodipodi="http://sodipodi.sourceforge.net/DTD/sodipodi-0.dtd"
   xmlns="http://www.w3.org/2000/svg"
   xmlns:svg="http://www.w3.org/2000/svg">
  <defs
     id="defs42213" />
  <sodipodi:namedview
     id="namedview42211"
     pagecolor="#ffffff"
     bordercolor="#666666"
     borderopacity="1.0"
     inkscape:pageshadow="2"
     inkscape:pageopacity="0.0"
     inkscape:pagecheckerboard="0"
     showgrid="false"
     inkscape:zoom="2.2554579"
     inkscape:cx="283.97781"
     inkscape:cy="87.787051"
     inkscape:window-width="1920"
     inkscape:window-height="1011"
     inkscape:window-x="0"
     inkscape:window-y="32"
     inkscape:window-maximized="1"
     inkscape:current-layer="g42207" />
  <path
     style="fill:#217821;fill-rule:evenodd;stroke:#217821;stroke-width:1.91995001px;stroke-linecap:butt;stroke-linejoin:miter;stroke-opacity:1"
     d="m12.757 947.037 51.299-43.542c4.102 15.31 14.941 19.075 30.413 19.075 14.683.22 28.685-8.822 28.685-24.218-.29-14.36-13.205-21.497-25.927-23.742l16.8-15.085c32.625 5.5 62.612 35.014 62.612 71.055 0 47.878-44.8 75.77-82.627 75.77-39.837 0-75.26-25.345-81.255-59.313z"
     transform="translate(0 -822.048)"
     id="path42201" />
  <path
     style="fill:#55d400;fill-rule:evenodd;stroke:none;stroke-width:1px;stroke-linecap:butt;stroke-linejoin:miter;stroke-opacity:1"
     d="m95.298 875.167-30.77 26.614c-12.428-5.015-26.057-12.04-26.057-26.4 0-24.94 27.102-34.627 56.227-34.627 16.473 0 31.847 7.359 31.847 7.359l-12.99 10.469c-8.44-5.146-17.183-6.021-18.9-5.828-2.663-.3-20.485 3.252-20.485 12 0 11.412 19.116 10.413 21.128 10.413z"
     transform="translate(0 -822.048)"
     id="path42203" />
  <g
     style="font-style:normal;font-weight:400;font-size:99.77178192px;line-height:125%;font-family:sans-serif;letter-spacing:0;word-spacing:0;fill:#000;fill-opacity:1;stroke:none;stroke-width:1px;stroke-linecap:butt;stroke-linejoin:miter;stroke-opacity:1"
     id="g42207">
    <path
       d="M219.37 595.154v-.798q0-4.29-.5-7.882-.498-3.592-2.594-7.283-1.995-3.692-6.584-6.086-4.49-2.495-12.073-2.495-10.975 0-16.462 5.089-5.488 4.988-5.488 14.666 0 6.186 3.592 11.474 2.594 3.292 5.787 5.886 3.292 2.595 8.68 6.087 5.188 3.392 7.583 5.287 2.793 1.896 4.19 4.29 1.397 2.395 1.397 5.588 0 8.78-8.68 8.78-4.69 0-6.785-3.193-1.995-3.193-1.995-9.378v-4.39H175.47v5.487q0 5.188 1.197 9.379 1.297 4.09 3.991 7.083 2.694 2.994 7.084 4.59 4.39 1.696 10.476 1.696 10.476 0 16.761-5.587 6.286-5.587 6.286-15.964 0-4.988-1.397-8.58-1.397-3.692-4.889-7.084-1.396-1.397-3.691-3.093-2.195-1.696-4.39-3.192-2.195-1.597-4.29-2.994-2.095-1.396-4.59-2.993l-.2-.1q-4.09-2.693-5.986-4.689-1.795-2.095-1.795-5.886 0-3.692 1.995-5.288 1.995-1.696 5.687-1.696 4.989 0 6.585 3.392t1.596 9.877h13.47zM264.018 647.235q-1.098-4.09-1.098-7.882V606.13q0-3.691-.698-6.485-.599-2.893-2.495-5.188-1.895-2.295-5.687-3.592-3.691-1.397-9.677-1.397-5.787 0-9.678 1.297-3.891 1.198-6.086 3.592-2.195 2.395-3.093 5.687-.798 3.193-.798 7.583h12.371q0-4.29 1.397-6.186 1.397-1.996 5.388-1.996 2.893 0 4.29.6 1.397.498 1.796 2.294.3 1.197.3 2.195 0 2.394-1.597 4.09-1.597 1.597-5.089 3.093-.898.4-1.396.599-4.69 1.896-7.483 3.292-2.794 1.397-5.288 3.492-2.395 2.096-3.792 5.288-1.297 3.093-1.297 7.483 0 8.68 3.592 12.771 3.592 4.09 11.474 4.09 3.193 0 6.186-1.895 2.793-1.696 5.188-5.388h.2v.799q-.1.698-.1.798 0 2.394.898 4.19h12.272zM249.95 623.69q0 .698-.1 2.794 0 2.693-.2 4.689-.1 1.896-.698 3.691-.599 1.697-1.995 2.794-1.297 1.098-3.592 1.098-3.392 0-4.79-1.796-1.296-1.896-1.296-5.388 0-2.195.399-3.891.499-1.796 1.796-2.894 2.394-1.895 7.183-4.988l3.293-2.195v6.086zM282.195 590.964h-12.97v56.271h12.97V610.22q0-5.587 1.097-8.082 1.198-2.594 5.288-2.694 4.091 0 5.189 2.295 1.197 2.295 1.197 6.785v38.711h12.97V610.22q0-5.388 1.297-7.982 1.397-2.594 5.288-2.794 3.891 0 4.989 2.594 1.197 2.495 1.197 7.184v38.013h12.97V601.44q0-4.989-3.492-8.48-3.492-3.493-10.276-3.493-9.28 0-12.97 7.284h-.2q-.499-3.592-4.09-5.388-3.593-1.896-7.883-1.896-4.09.2-7.283 1.696-3.093 1.397-5.088 5.588h-.2v-5.787zM353.116 590.964h-12.97v56.271h12.97V610.22q0-5.587 1.098-8.082 1.197-2.594 5.288-2.694 4.09 0 5.188 2.295 1.197 2.295 1.197 6.785v38.711h12.97V610.22q0-5.388 1.297-7.982 1.397-2.594 5.288-2.794 3.891 0 4.989 2.594 1.197 2.495 1.197 7.184v38.013h12.97V601.44q0-4.989-3.492-8.48-3.492-3.493-10.276-3.493-9.279 0-12.97 7.284h-.2q-.499-3.592-4.09-5.388-3.592-1.896-7.883-1.896-4.09.2-7.283 1.696-3.093 1.397-5.088 5.588h-.2v-5.787zM411.617 590.964l13.569 55.473q.499 1.896.798 3.791.399 1.996.399 3.393 0 1.496-1.197 2.095-1.198.598-3.093.598-.699 0-2.095-.1-1.198-.1-1.297-.1v10.078q3.392.499 6.086.499 3.89 0 6.385-1.098 2.594-.998 3.99-2.993 1.497-1.996 2.296-4.39.898-2.395 1.995-7.084.2-.798.798-3.093l13.669-57.07h-13.17l-5.687 30.232q-1.397 7.582-1.995 14.566h-.2q-.998-9.977-1.896-14.965l-5.687-29.832h-13.668z"
       style="font-style:normal;font-variant:normal;font-weight:700;font-stretch:expanded;font-family:Helvetica-Condensed;-inkscape-font-specification:'Helvetica-Condensed Bold Expanded';fill:#4d4d4d"
       transform="translate(-138.782 -1057.573) scale(1.91995)"
       id="path42205" />
  </g>
</svg>
