<?xml version="1.0" encoding="UTF-8" standalone="no"?>
<!-- Created with Inkscape (http://www.inkscape.org/) -->

<svg
   width="988.58337mm"
   height="206.16333mm"
   viewBox="0 0 988.58338 206.16333"
   version="1.1"
   id="svg1"
   inkscape:version="1.3.2 (091e20e, 2023-11-25, custom)"
   sodipodi:docname="saturn-jp-w.svg"
   xmlns:inkscape="http://www.inkscape.org/namespaces/inkscape"
   xmlns:sodipodi="http://sodipodi.sourceforge.net/DTD/sodipodi-0.dtd"
   xmlns="http://www.w3.org/2000/svg"
   xmlns:svg="http://www.w3.org/2000/svg">
  <sodipodi:namedview
     id="namedview1"
     pagecolor="#e5e5e5"
     bordercolor="#000000"
     borderopacity="0.25"
     inkscape:showpageshadow="2"
     inkscape:pageopacity="0.0"
     inkscape:pagecheckerboard="true"
     inkscape:deskcolor="#d1d1d1"
     inkscape:document-units="mm"
     inkscape:zoom="0.29118431"
     inkscape:cx="1492.182"
     inkscape:cy="331.40522"
     inkscape:window-width="2560"
     inkscape:window-height="1351"
     inkscape:window-x="-9"
     inkscape:window-y="-9"
     inkscape:window-maximized="1"
     inkscape:current-layer="svg1" />
  <defs
     id="defs1">
    <linearGradient
       id="SVGID_00000039123242491655694010000002980229301798463114_"
       gradientUnits="userSpaceOnUse"
       x1="1929.895"
       y1="779.21429"
       x2="1929.895"
       y2="9.974">
      <stop
         offset="0.3079"
         style="stop-color:#000000"
         id="stop90" />
      <stop
         offset="0.3997"
         style="stop-color:#1B0007"
         id="stop91" />
      <stop
         offset="0.5976"
         style="stop-color:#610018"
         id="stop92" />
      <stop
         offset="0.8838"
         style="stop-color:#CE0033"
         id="stop93" />
      <stop
         offset="1"
         style="stop-color:#FD003E"
         id="stop94" />
    </linearGradient>
    <radialGradient
       id="SVGID_00000145037386364555785130000009153912050004087442_"
       cx="4564.6548"
       cy="-2329.9312"
       r="217.5972"
       fx="4566.3936"
       fy="-2332.9722"
       gradientTransform="matrix(0.26458333,0,0,-0.26458333,-1116.0562,-528.69586)"
       gradientUnits="userSpaceOnUse">
      <stop
         offset="0"
         style="stop-color:#FFFFFF"
         id="stop98" />
      <stop
         offset="0.1072"
         style="stop-color:#E1E7F2"
         id="stop99" />
      <stop
         offset="0.4368"
         style="stop-color:#88A1CC"
         id="stop100" />
      <stop
         offset="0.7055"
         style="stop-color:#476EB0"
         id="stop101" />
      <stop
         offset="0.8997"
         style="stop-color:#1E4E9F"
         id="stop102" />
      <stop
         offset="1"
         style="stop-color:#0F4298"
         id="stop103" />
    </radialGradient>
    <clipPath
       id="SVGID_00000166646414918324084460000015590567777349352093_">
      <path
         id="use103"
         d="m 212.7,475.2 c 24.5,-6 49.1,-11.7 73.6,-17.5 24.6,-5.8 48.8,-13.2 72.7,-21.3 23.6,-8.1 47,-17.2 70.7,-24.7 19.7,-6.3 39.7,-12.1 58.7,-20.4 -1.6,-32.6 -11.7,-62.9 -28.1,-88.9 -21.1,6.1 -42.7,11.3 -64,16.8 -24.4,6.4 -48.8,13.2 -73.1,20 -23.8,6.6 -47.8,13.2 -71.5,19.9 -25.4,7.2 -50.8,14.9 -75.7,23.5 -10.7,3.7 -21.3,7.2 -32.1,10.5 -5.7,1.7 -11.4,3.6 -17,5.6 -2.1,0.7 -4.2,1.4 -6.3,2.1 0,33.9 9.2,65.6 25.2,93 22,-7.1 44.4,-13.1 66.9,-18.6 z" />
    </clipPath>
  </defs>
  <g
     id="g4"
     inkscape:label="SegaSaturnBig"
     style="display:inline;fill:#ffffff"
     transform="matrix(0.26458333,0,0,0.26458333,-0.01240235,-1.3229166)">
    <path
       d="m 1851,784.2 c -5.9,0 -11.3,-3.1 -14.2,-8.2 -2.2,-3.8 -2.8,-8.2 -1.5,-12.5 1.2,-4.2 4.1,-7.9 8,-10 76.6,-41 81.1,-129.5 79.5,-165.6 -2.9,-64.9 -31,-125.1 -58.1,-183.4 -26.7,-57.3 -51.9,-111.3 -50.9,-165 0.8,-41.1 11.5,-77.2 32.8,-110.4 28.5,-44.4 76.7,-83.9 143.3,-117.4 3.1,-1.6 6.8,-3.3 10.3,-5 2.3,-1.1 4.8,-1.7 7.2,-1.7 7,0 13.4,4.9 15.5,12 2.2,7 -0.4,14 -6.6,18.2 l -3.1,2.1 c -2.8,1.9 -5.4,3.7 -7.6,5.2 -37.4,26.2 -68.4,56.2 -68.4,158.2 0,70.1 32.2,141.2 60.6,203.9 15.6,34.5 30.5,67.4 39.5,98.1 l 17,-32.2 135.4,-257 c 3.7,-7.1 10.7,-11.3 18.7,-11.3 8.4,0 15.8,4.8 19.3,12.4 l 130.2,288.7 c 4.4,9.7 11.7,17.9 21.8,24.5 3.2,2.1 7,3.2 10.9,3.2 h 14.8 c 5.5,0 10.6,-2.3 14,-6.4 5.8,-6.8 8.7,-14.7 8.7,-23.6 V 261.5 c 0,-3.7 -3,-6.7 -6.7,-6.7 h -0.2 c -59.9,2.3 -99.9,21.4 -123,37 -2.1,1.4 -4.4,2.1 -6.7,2.1 -4.1,0 -8,-2.2 -10.2,-5.7 -2.2,-3.5 -2.4,-7.7 -0.6,-11.6 l 18.3,-37.8 c 3.8,-7.9 12,-13 20.7,-13 h 463.9 c 5.9,0 10.7,4.8 10.7,10.7 0,4.7 -3,8.7 -7.4,10.2 -8.4,2.7 -27.8,11.2 -27.8,31.1 v 173.1 c 0,28.8 10.4,77 80.3,77 32.8,0 71,-19.8 71,-75.5 V 277.9 c 0,-19.9 -19.4,-28.3 -27.8,-31.1 -2.6,-0.8 -4.9,-2.8 -6.2,-5.3 -1.3,-2.6 -1.5,-5.6 -0.6,-8.4 1.5,-4.3 5.6,-7.2 10.3,-7.2 h 331.3 c 53.4,0 90.8,13.9 111.3,41.4 10.8,14.5 16.3,32.1 16.3,52.3 0,4.5 -0.7,27.9 -14.4,50.1 -11,17.8 -33,38.6 -76.5,42.6 5,4.1 11.2,9.8 17.7,17.5 9.8,11.5 16.7,23.3 23.4,34.8 6.8,11.6 13.2,22.5 21.8,31.5 19,20 54,44.3 67.6,44.3 4.2,0 7.7,-3.4 7.7,-7.7 V 337.4 c 0,-0.5 -2.2,-53.6 -51.8,-90.9 l -0.9,-0.7 c -1.2,-0.9 -2.3,-1.7 -3.5,-2.6 -4.7,-3.6 -6.6,-9.6 -4.7,-15.2 1.9,-5.7 7.1,-9.5 12.9,-9.5 1.5,0 2.9,0.2 4.4,0.7 45.4,14.7 109,40 154.2,77.6 l 145.8,121 c 0.3,0.2 0.5,0.3 0.8,0.3 0.3,0 1.3,-0.2 1.3,-1.3 V 278.2 c 0,-19.9 -19.4,-28.3 -27.8,-31.1 -5.7,-2 -8.7,-8.1 -6.8,-13.7 1.5,-4.3 5.6,-7.2 10.3,-7.2 h 99 c 4.7,0 8.8,2.9 10.3,7.1 1,2.9 0.8,5.9 -0.6,8.5 -1.3,2.5 -3.6,4.4 -6.3,5.2 -8.4,2.7 -27.7,11.2 -27.7,31.1 v 280.5 c 0,4.2 -1.7,8.2 -4.7,11 -2.8,2.7 -6.6,4.2 -10.5,4.2 -3.5,0 -6.8,-1.2 -9.6,-3.5 L 3445,378.3 c -0.3,-0.2 -0.5,-0.3 -0.8,-0.3 -0.4,0 -1.3,0.3 -1.3,1.3 v 156.6 c 0,17.8 16.5,25.5 26.4,28.4 3,0.9 5.6,3.1 7.1,5.9 1.5,2.9 1.7,6.2 0.7,9.3 -1.5,4.8 -6.1,8 -11.4,8 h -47.9 c -126,0 -187.5,-47.2 -216.9,-86.8 -22.4,-30.1 -38.9,-76.3 -48.9,-110 -0.1,-0.3 -0.3,-0.6 -0.3,-1 v 0 c -1.1,-3.7 -0.5,-7.5 1.7,-10.6 2.2,-3 5.8,-4.9 9.6,-4.9 1.8,0 3.5,0.4 5.2,1.2 l 0.3,0.2 c 6.6,2.3 12.8,2.5 21.6,2.5 h 3.4 c 7.2,0 19.2,-3.4 29.4,-13.1 12.8,-12.1 19.6,-31.1 19.6,-55 0,-38.4 -26.7,-59.1 -51.9,-59.1 H 3160 c -7.3,0 -21.2,4.1 -21.2,19.7 v 226.9 c 0,27.8 21.2,38.9 33.9,43 3.4,1.1 6.1,3.6 7.7,6.8 1.6,3.3 1.7,6.9 0.4,10.4 -1.9,5.1 -6.9,8.4 -12.5,8.4 h -167.2 c -3.9,0 -7.6,-1.7 -10.1,-4.8 -2.5,-3 -3.5,-7 -2.8,-11 0.9,-4.7 4.4,-8.5 9.1,-10 12.5,-4.1 33.5,-15.2 33.5,-42.9 V 283.5 c 0,-7.9 -2.1,-14.6 -6.4,-19.8 -5,-6.1 -12.7,-9.6 -21.3,-9.6 h -14.6 c -8.5,0 -16.3,3.5 -21.3,9.6 -4.2,5.1 -6.4,11.8 -6.4,19.8 v 176.7 c 0,34 -15.4,62.7 -44.5,83.1 -26,18.2 -61.1,28.2 -98.8,28.2 -59.2,0 -101.2,-12.2 -128.5,-37.4 -21.9,-20.2 -34,-49 -37,-87.9 h -0.7 V 287.1 c 0,-2.6 -1.5,-5 -3.8,-6.3 -30,-15.7 -65,-24.5 -104.2,-26 -0.1,0 -0.3,0 -0.4,0 -3.8,0 -6.7,2.9 -6.7,6.7 v 239.4 c 0,24.5 22.4,35.7 32,39.3 5.3,1.9 8.8,7.3 8.5,13.1 -0.3,7 -6.3,12.6 -13.6,12.6 H 2283 c -5.2,0 -9.9,-3.4 -11.6,-8.4 -1.5,-4.4 -0.7,-10.9 6,-16 2.9,-2.2 6.6,-3.4 10.3,-3.4 h 0.2 c 9.8,0 15.4,-13.3 16.5,-19.3 0,-0.2 0,-0.3 0,-0.5 0,-0.4 0.1,-0.7 0.1,-1.1 0.4,-4.9 -0.6,-10.1 -2.8,-15 l -70,-155.4 -82.2,155.9 c -2.4,4.6 -3.5,9.7 -3.2,15 l 0.1,1.1 c 0.2,5.5 0.4,10.7 9.8,19 l 0.1,0.1 c 1.3,1.2 2.9,2.6 4.6,4.1 v 0 c 0,0 1,0.9 1.3,1.1 l 1.7,1.5 v 0.3 c 2.8,3.5 3.6,8.3 1.9,12.7 -1.9,5.1 -6.7,8.4 -12.1,8.4 H 2046 c -0.8,30.9 -6.1,67.1 -33.5,104.3 -28.7,39 -79.2,75.7 -154.4,112.2 -2.2,1.2 -4.6,1.7 -7.1,1.7 z"
       id="path85"
       style="display:inline;fill:#ffffff"
       inkscape:label="SaturnBig" />
    <path
       d="m 1431.4,578.3 c -62.8,0 -113.1,-16.6 -149.4,-49.4 -0.4,-0.4 -1,-0.6 -1.5,-0.6 -0.8,0 -1.7,0.4 -2.2,1.4 l -10,24.4 c -3.1,7.3 -10.1,12.1 -18,12.1 H 937.9 c -4.4,0 -8.4,-2.6 -10.1,-6.7 -1.8,-4.4 -0.6,-9.3 3.2,-13.1 l 0.1,-0.1 c 2.9,-2.7 6.8,-4.3 10.8,-4.3 h 0.3 c 11.7,0 21.8,-17.1 21.8,-25.4 V 322.2 c 0,-15.9 -22.6,-33.1 -61.9,-47.2 -33.3,-11.9 -77.3,-20.7 -109.5,-21.9 -1.4,-0.1 -2.8,-0.1 -4.1,-0.1 -34.1,0 -36.5,18 -37.3,23.9 -0.7,5 2.1,14.2 12.1,25.2 7.8,8.6 22.5,21.1 48.5,31.5 20.5,8.2 59.5,26 90.5,52.8 33.7,29.1 49.6,61 47.2,94.7 -4.4,61.8 -52.6,88.1 -161.3,88.1 -8.2,0 -21.9,-1.4 -35.2,-2.7 -10.1,-1 -19.6,-1.9 -26.1,-2.2 -1.3,-0.1 -2.7,-0.1 -4.2,-0.1 -12.1,0 -28.5,2.1 -40.7,5.1 -1.7,0.4 -3.6,0.7 -5.4,0.7 -7.2,0 -14,-3.6 -18.1,-9.7 -17.6,-26.4 -44.5,-78.4 -52.3,-93.7 -2.2,-4.3 -2.1,-9.1 0.4,-13.2 2.5,-4.1 7,-6.7 11.7,-6.7 3.4,0 6.6,1.3 9.2,3.8 56.4,52.6 102.9,78.2 142,78.2 37.6,0 57.3,-11.4 64,-36.9 6.6,-25.2 -57.5,-62.1 -92.2,-78.2 -19.7,-9 -59.2,-33.9 -68.2,-42.1 -1.2,-1.1 -2.5,-2.3 -3.9,-3.5 -15.7,-14 -39.4,-35.2 -35.4,-72.9 2.8,-26 17.3,-45.9 43.1,-59.2 22.5,-11.6 53.8,-17.7 90.4,-17.7 60.2,0 180.1,6.5 193.6,7.3 6.4,0.3 11.7,0.5 16.7,0.5 h 94.4 v 0.1 h 166.8 c 12.1,0 17.1,8.9 19.9,15.5 l 14.9,36.4 c 0.3,0.9 1.1,0.9 1.3,0.9 0.4,0 0.7,-0.1 1,-0.4 38.5,-37.1 90.3,-57.6 145.9,-57.6 24.8,0 47,3.8 61.7,6.3 7.5,1.3 13.4,2.3 16.5,2.3 0.1,0 0.9,0 0.9,0 l 0.5,0.1 c 0,0 0,0 0,0 0,0 0.5,0.1 1.2,0.1 3.4,0 12.8,-0.9 26.8,-9.6 2.9,-1.8 6.2,-2.7 9.5,-2.7 8,0 15,5.1 17.4,12.7 l 27,84.7 c 1.2,3.9 0.6,7.9 -1.7,11.1 -2.4,3.3 -6.3,5.3 -10.4,5.3 -3.9,0 -7.4,-1.8 -9.8,-5 -26,-34.7 -62,-70.1 -132.1,-70.1 -78,0 -82,80.6 -82,96.7 V 428 c 0,26.9 6.1,114.8 84.3,114.8 h 8.4 c 29.5,0 53.7,-23.8 53.9,-53.1 0.3,-31.6 -16.7,-51.3 -46.5,-53.9 -3.7,-0.3 -7.2,-2.2 -9.5,-5.1 -2.3,-2.9 -3.2,-6.5 -2.6,-10.3 1,-6.1 6.9,-11.1 13.3,-11.1 h 119.5 c 8.9,0 17,-4.9 21.1,-12.8 l 96.4,-182.9 c 3.7,-7.1 10.7,-11.3 18.7,-11.3 8.4,0 15.8,4.8 19.3,12.5 l 130.2,288.6 c 10.9,24.2 28.1,33.7 37.3,37.2 4.4,1.6 7.7,5.3 8.5,9.6 0.7,3.9 -0.3,7.9 -2.8,10.9 -2.5,3.1 -6.2,4.8 -10.2,4.8 h -109.8 c -5.1,0 -9.7,-3.2 -11.5,-7.9 -2,-5.3 -0.3,-11.1 4.6,-15.4 3.3,-2.9 7.6,-4.5 12.1,-4.5 h 2.1 c 9.8,0 15.4,-13.3 16.5,-19.3 0,-0.2 0,-0.3 0,-0.5 0,-0.4 0.1,-0.7 0.1,-1.1 0.4,-4.9 -0.6,-10.1 -2.8,-15 l -70,-155.4 -82.1,155.9 c -2.4,4.5 -3.5,9.7 -3.2,14.8 0,0.4 0,0.8 0.1,1.3 0.2,5.5 0.4,10.7 9.8,19.1 0.9,0.8 3.1,2.9 6,5.4 4.1,3.6 5.5,9.3 3.5,14.3 -1.9,5.1 -6.7,8.4 -12.1,8.4 h -142.3 c -4.4,0 -8.8,0.8 -13,2.3 -14.9,5.6 -46.8,10 -63.2,10 z M 1080.1,411.9 c -4.8,0 -8,3.6 -8,4.8 V 511 c 0,11.9 9.7,21.5 21.5,21.5 h 16.1 c 59.2,0 105.6,-25.6 129.2,-49.6 2.8,-2.9 3.6,-7.3 1.9,-11 -11.4,-25.7 -17.2,-54.5 -17.2,-85.4 0,-23 8.5,-48.9 23.8,-73.1 0.7,-1.2 0.5,-2.9 -0.5,-3.8 -9.6,-8.3 -60.4,-49.5 -121.9,-49.5 h -32.5 c -11.2,0 -20.3,9.1 -20.3,20.3 v 91.8 c 1,1.5 2.2,2.3 4.9,2.3 1.2,0 2.7,-0.2 4.2,-0.6 11.1,-2.6 33.3,-12.6 52.8,-23.8 13.8,-8 24.7,-15.6 36.6,-25.5 2.5,-2.1 5.5,-3.2 8.8,-3.2 7.7,0 14,6.2 14,13.9 v 111.8 c 0,7.7 -6.3,13.9 -14,13.9 -3.2,0 -6.2,-1.1 -8.8,-3.2 -11.9,-9.8 -22.8,-17.4 -36.6,-25.5 -17.6,-10.2 -39.5,-18 -52,-20.5 -0.7,0.2 -1.4,0.1 -2,0.1 z"
       id="path83"
       style="display:inline;fill:#ffffff"
       inkscape:label="SegaBig" />
  </g>
  <g
     id="g2"
     inkscape:label="SegaSaturnSmall"
     style="display:inline"
     transform="matrix(0.26458333,0,0,0.26458333,-0.01240235,-1.3229166)">
    <path
       d="m 3731.2,235 c -0.8,-2.3 -3.1,-3.8 -5.6,-3.8 h -25.5 -48 -25.5 c -2.5,0 -4.8,1.5 -5.6,3.8 -1.1,3.2 0.7,6.4 3.6,7.4 9.2,3 31.2,12.7 31.2,35.8 v 138.7 c 0,5.3 -6.2,8.2 -10.3,4.8 l -145.8,-121 c -45.5,-37.8 -109.9,-62.9 -152.5,-76.7 -9.4,-3 -15.9,9.4 -8,15.4 1.4,1.1 2.8,2.1 4.3,3.2 48.6,36.5 53.8,88.9 53.8,94.9 v 186.3 9 c 0,7 -5.7,12.7 -12.7,12.7 -16.3,0 -52.7,-26.4 -71.2,-45.9 -17.5,-18.3 -25.8,-43.4 -45.4,-66.4 -15.6,-18.3 -28.8,-25 -28.8,-25 98,0 100.9,-79.5 100.9,-88.4 0,-13.3 0,-88.8 -122.7,-88.8 H 2934.2 2886 c -2.5,0 -4.8,1.5 -5.6,3.8 -1.1,3.2 0.7,6.5 3.6,7.4 9.2,3 31.2,12.7 31.2,35.8 v 174.5 c 0,60.3 -42.2,80.5 -76,80.5 -61.6,0 -85.3,-36.3 -85.3,-82 v -26.4 0 -146.7 c 0,-23.1 22,-32.8 31.2,-35.8 2.4,-0.8 4,-2.9 4,-5.4 v -0.1 c 0,-3.1 -2.5,-5.7 -5.7,-5.7 h -110.6 -17 -222.8 -113.5 c -6.9,0 -13.3,4 -16.3,10.2 l -18.3,37.8 c -3.1,6.5 4.3,12.9 10.3,8.9 24.4,-16.6 65.5,-35.6 125.7,-37.9 6.6,-0.2 12.1,5.1 12.1,11.7 V 501 c 0,11.4 -4.2,20.1 -9.9,26.8 -4.4,5.2 -11,8.2 -17.9,8.2 h -14.8 c -4.8,0 -9.6,-1.3 -13.7,-4 -9.4,-6.1 -18.3,-14.7 -23.6,-26.6 L 2222.9,216.7 c -5.6,-12.3 -22.7,-12.8 -29,-0.9 l -135.4,257 -39.1,74.1 2.7,14.2 h 39.3 7 85.3 v 0 c 7.3,0 10.8,-9.1 5.3,-14 0,0 -0.1,0 -0.1,-0.1 -2.4,-2.1 -4.5,-4 -6,-5.4 -11.6,-10.4 -11.2,-17.6 -11.5,-23.6 -0.3,-6 1,-12.2 3.8,-17.6 l 87,-165 74.2,164.7 c 2.5,5.5 3.7,11.6 3.2,17.6 -0.1,0.8 -0.1,1.5 -0.2,2 -1.4,7.8 -8.4,23.4 -21.4,23.4 h -0.2 c -2.6,0 -5.2,0.8 -7.3,2.4 -8.6,6.6 -4,15.5 2.6,15.5 h 109.4 6.4 86.5 25.5 52.3 c 4.5,0 8.4,-3.4 8.6,-7.9 0.2,-3.6 -2,-7 -5.3,-8.2 -11,-4.2 -35.2,-16.7 -35.2,-44 V 261.5 c 0,-6.8 5.5,-12 12.3,-11.7 46.5,1.8 81.6,13.6 106.3,26.5 4,2.1 6.5,6.2 6.5,10.7 v 154.2 h 0.4 c 4,70.8 37.6,125.3 160.8,125.3 71.4,0 138.3,-37.4 138.3,-106.3 0,-8.5 0,-176.7 0,-176.7 0,-10.5 3.3,-17.9 7.5,-22.9 6.1,-7.5 15.5,-11.5 25.1,-11.5 h 14.6 c 9.7,0 19.1,4 25.1,11.5 4.2,5.2 7.5,12.6 7.5,22.9 v 213.9 c 0,31.8 -25.2,43.8 -37,47.7 -2.8,0.9 -5.1,3.2 -5.7,6.2 -1,5.2 2.9,9.8 8,9.8 h 52.7 59.4 55.1 c 3.4,0 6.6,-2 7.8,-5.2 1.7,-4.6 -0.8,-9.3 -5,-10.7 -11.6,-3.8 -37.3,-15.8 -37.3,-47.8 V 294.6 270.5 c 0,-18.2 15.6,-24.7 26.2,-24.7 h 30.6 c 28.5,0 56.9,24 56.9,64.1 0,58.8 -38.3,73.1 -54,73.1 -10.5,0 -18.7,0.2 -27.3,-3 0,0 -0.1,0 -0.1,-0.1 -5.5,-2.6 -11.4,2.5 -9.6,8.3 0.1,0.3 0.1,0.5 0.2,0.5 9.2,31.1 25.7,78.7 48.3,109 35,47.2 101.4,84.8 212.8,84.8 h 47.9 c 3,0 5.8,-1.8 6.7,-4.6 1.3,-3.9 -0.9,-7.8 -4.5,-8.9 -9.6,-2.9 -29.9,-11.6 -29.9,-33.2 V 379.2 c 0,-5.3 6.2,-8.2 10.3,-4.8 l 231.4,192.1 c 6.7,5.5 16.7,0.8 16.7,-7.9 V 278.2 c 0,-23.1 22,-32.8 31.2,-35.8 3,-0.9 4.8,-4.1 3.7,-7.4 z"
       id="path96"
       inkscape:label="aturnSmall"
       style="display:inline" />
    <path
       style="display:inline;fill:url(#SVGID_00000039123242491655694010000002980229301798463114_)"
       d="m 1992,16.1 c 2.9,-1.5 6.3,-3.1 10.2,-4.9 12.8,-6 22.9,12 11.3,19.8 -4.1,2.8 -7.8,5.3 -10.8,7.4 -37.6,26.3 -70.5,57.4 -70.5,162.3 0,131.8 109,260.2 109,355.7 0,74.1 -20.9,142 -185.2,221.7 -5.4,2.6 -11.9,0.6 -14.9,-4.6 v 0 c -3.2,-5.5 -1.1,-12.6 4.5,-15.6 65.6,-35.1 84.9,-107.8 82.1,-170.3 -5.8,-129.9 -111,-241.6 -109,-348.1 1.1,-63.5 26.4,-149.4 173.3,-223.4 z"
       id="path94"
       inkscape:label="S" />
    <path
       d="m 1889.4,545.4 c -9.3,-3.5 -28.2,-13.5 -40.1,-39.8 L 1719.1,216.9 c -5.5,-12.3 -22.7,-12.8 -29,-0.9 l -96.4,183 c -5,9.5 -14.9,15.5 -25.5,15.5 h -115.6 -3.9 c -3.9,0 -7.8,3.1 -8.4,6.9 -0.8,5 2.8,9.2 7.6,9.6 32.1,2.9 51.4,24.3 51.1,58.9 -0.2,31.9 -26.8,58 -58.8,58 h -8.4 c -85.6,0 -89.3,-98.3 -89.3,-119.8 0,-25 0,-75.2 0,-75.2 0,-36.9 14.9,-101.7 87,-101.7 67.3,0 105.2,31 136,72.1 5.1,6.8 15.8,1.2 13.2,-6.9 l -27,-84.7 c -2.6,-8.2 -12.2,-11.8 -19.5,-7.3 -19.8,12.2 -31.5,10.2 -31.5,10.2 -9.8,0.3 -40.9,-8.6 -78.7,-8.6 -60.3,0 -109,23.9 -142.4,56.2 -3.3,3.2 -8.8,2.1 -10.5,-2.2 l -14.9,-36.4 c -3.1,-7.5 -7.1,-12.4 -15.2,-12.4 h -172 v -0.1 h -89.4 c -5.7,0 -11.3,-0.2 -17,-0.5 -30.6,-1.7 -138.2,-7.3 -193.3,-7.3 -69,0 -123.1,21.6 -128.6,72.5 -4.1,38.3 22.4,58.2 37.7,72.2 8.3,7.6 47,32.1 66.9,41.3 20.7,9.6 103.5,51.1 95,84 -8.6,32.6 -36.5,40.6 -68.8,40.6 -50.7,0 -105.1,-42 -145.4,-79.6 -7,-6.6 -17.9,1.6 -13.5,10.2 16.7,32.6 38,72.2 52,93.2 4,5.9 11.2,8.8 18.2,7 15.1,-3.8 34.5,-5.8 46.4,-5.2 15.3,0.7 47.1,4.9 61,4.9 116.1,0 152.5,-30.5 156.3,-83.5 5.2,-72.8 -81.7,-121.3 -134.7,-142.5 -47.3,-19.1 -65.6,-47.8 -63.6,-62 3.3,-24.7 26.8,-28.9 46.6,-28.1 61,2.3 176.2,32.1 176.2,74 0,0 0,186.2 0,194.4 0,10.9 -11.9,30.4 -26.8,30.4 h -0.3 c -2.7,0 -5.4,1 -7.4,2.9 -5.2,5.2 -1.6,11.4 3.4,11.4 h 64.8 v 0 h 64.2 183.3 c 5.9,0 11.1,-3.5 13.4,-9 l 10,-24.3 c 1.9,-4.7 7.9,-6.1 11.7,-2.7 32.7,29.5 80.6,48.1 146,48.1 15.3,0 46.9,-4.2 61.6,-9.6 4.7,-1.7 9.7,-2.6 14.7,-2.6 h 122.6 19.7 c 7.3,0 10.8,-9.1 5.3,-14 -2.4,-2.1 -4.6,-4.1 -6.1,-5.5 -11.7,-10.6 -11.2,-17.8 -11.5,-23.8 -0.3,-6 1,-12 3.8,-17.4 l 86.9,-165 74.2,164.7 c 2.5,5.5 3.7,11.6 3.2,17.6 -0.1,0.8 -0.1,1.5 -0.2,2 -1.4,7.8 -8.4,23.4 -21.4,23.4 h -2.1 c -3.2,0 -6.4,1.1 -8.8,3.2 -7.3,6.5 -2.8,14.7 3.6,14.7 h 109.8 c 5.1,0 9.1,-4.6 8.1,-9.8 -0.4,-2.7 -2.5,-5 -5.3,-6 z M 1251.6,316.1 c -15,23.5 -23,48.5 -23,70.4 0,29.2 5.4,57.7 16.8,83.4 2.5,5.6 1.4,12.2 -2.9,16.6 -21,21.3 -67,51.1 -132.8,51.1 h -16.1 c -14.7,0 -26.5,-11.9 -26.5,-26.5 v -89.5 -4.8 c 0,-5 7.5,-11.2 15.9,-9.5 12.9,2.5 35.5,10.6 53.6,21 12.7,7.4 24.1,15.1 37.3,25.9 5.8,4.8 14.6,0.6 14.6,-6.9 v -28.1 -55.6 -28.1 c 0,-7.5 -8.8,-11.7 -14.6,-6.9 -13.2,10.9 -24.6,18.6 -37.3,25.9 -18.1,10.4 -41.4,21.3 -54.2,24.3 -9.9,2.3 -13.4,-1.6 -15.3,-5.3 v -5.4 -87.8 c 0,-14 11.4,-25.3 25.3,-25.3 h 32.5 c 53.3,0 101.8,30.5 125.2,50.7 2.9,2.6 3.6,7.1 1.5,10.4 z"
       id="path95"
       style="display:inline"
       inkscape:label="SegaSmall" />
  </g>
  <path
     class="st19"
     d="m 450.94342,53.551666 c 1.5875,0 3.14854,0.846667 3.88937,2.513542 l 34.44875,76.385212 c 3.14854,6.95854 8.14917,9.60437 10.60979,10.53041 0.74083,0.26458 1.29646,0.87313 1.42875,1.56104 0.26458,1.37584 -0.79375,2.59292 -2.14312,2.59292 h -29.05125 c -1.69334,0 -2.88396,-2.16958 -0.9525,-3.88938 0.635,-0.55562 1.48166,-0.84666 2.32833,-0.84666 h 0.55563 c 3.46604,0 5.29166,-4.15396 5.66208,-6.19125 0.0265,-0.13229 0.0265,-0.3175 0.0529,-0.52917 0.13229,-1.5875 -0.18521,-3.20146 -0.84667,-4.65666 L 457.2934,87.444791 434.3011,131.10104 c -0.74083,1.42875 -1.08479,3.01625 -1.00541,4.60375 0.0794,1.61396 -0.0529,3.51896 3.04271,6.29708 0.39687,0.37042 0.97895,0.89959 1.61395,1.45521 1.45521,1.29646 0.52917,3.70417 -1.40229,3.70417 h -5.21229 -32.43792 c -1.32291,0 -2.64583,0.23812 -3.88937,0.68791 -3.91583,1.42875 -12.27667,2.54 -16.29833,2.54 -17.30375,0 -29.97729,-4.92125 -38.62917,-12.72645 -0.37042,-0.34396 -0.84667,-0.50271 -1.29646,-0.50271 -0.74083,0 -1.48166,0.42333 -1.79916,1.21708 l -2.64584,6.42938 c -0.60854,1.4552 -1.98437,2.38125 -3.54541,2.38125 H 282.298 265.31175 248.16676 c -1.32292,0 -2.27542,-1.64042 -0.89958,-3.01625 0.52916,-0.50271 1.24354,-0.7673 1.95791,-0.7673 h 0.0794 c 3.96875,0 7.09084,-5.15937 7.09084,-8.04333 0,-2.16958 0,-51.434998 0,-51.434998 0,-11.086041 -30.48,-18.970624 -46.61958,-19.579166 -0.37042,-0.02646 -0.7673,-0.02646 -1.13771,-0.02646 -4.94771,0 -10.37167,1.402291 -11.19188,7.461249 -0.52916,3.783542 4.33917,11.377084 16.8275,16.404167 14.02292,5.609167 36.98875,18.441458 35.63938,37.703128 -1.00542,14.02291 -10.63625,22.09271 -41.35438,22.09271 -3.70416,0 -12.11791,-1.11125 -16.13958,-1.29646 -0.37042,-0.0265 -0.76729,-0.0265 -1.19063,-0.0265 -3.14854,0 -7.56708,0.50271 -11.08604,1.40229 -0.37041,0.10583 -0.74083,0.13229 -1.11125,0.13229 -1.48166,0 -2.8575,-0.74083 -3.70416,-1.98437 -3.70417,-5.52979 -9.3398,-16.00729 -13.75834,-24.65917 -0.87312,-1.69333 0.50271,-3.33375 2.03729,-3.33375 0.52917,0 1.05834,0.18521 1.53459,0.635 10.66271,9.94834 25.0825,21.06083 38.47041,21.06083 8.54605,0 15.92792,-2.11666 18.20334,-10.74208 2.27541,-8.70479 -19.63209,-19.685 -25.13542,-22.225 -5.26521,-2.43416 -15.50458,-8.916458 -17.70062,-10.927291 -4.04813,-3.704167 -11.05959,-8.969375 -9.9748,-19.102917 1.45521,-13.467291 15.74271,-19.182291 34.02542,-19.182291 14.57854,0 43.04771,1.481666 51.14396,1.931458 1.50812,0.07937 2.98979,0.132292 4.49791,0.132292 h 23.65375 v 0.02646 h 45.45542 c 2.14312,0 3.22791,1.296458 4.02166,3.280833 l 3.94229,9.657292 c 0.26459,0.687916 0.92605,1.058333 1.5875,1.058333 0.42334,0 0.84667,-0.15875 1.19063,-0.47625 8.83708,-8.519583 21.72229,-14.869583 37.67666,-14.869583 9.8425,0 17.96521,2.275417 20.69042,2.275417 0.0529,0 0.0794,0 0.13229,0 0,0 0.18521,0.02646 0.55563,0.02646 1.11125,0 3.83646,-0.291042 7.77875,-2.725208 0.58208,-0.343959 1.21708,-0.529167 1.82562,-0.529167 1.45521,0 2.8575,0.926042 3.33375,2.434167 l 7.14375,22.410208 c 0.47625,1.455208 -0.71437,2.619375 -1.93146,2.619375 -0.55562,0 -1.1377,-0.238125 -1.53458,-0.79375 -8.14917,-10.874375 -18.17687,-19.076458 -35.98333,-19.076458 -19.07646,0 -23.01875,17.144999 -23.01875,26.908124 0,0 0,13.282086 0,19.896666 0,5.66208 0.97896,31.69708 23.62729,31.69708 h 2.2225 c 8.46667,0 15.50458,-6.90562 15.5575,-15.34583 0.0794,-9.15458 -5.02708,-14.84313 -13.52021,-15.58396 -1.27,-0.10583 -2.2225,-1.21708 -2.01083,-2.54 0.15875,-1.00542 1.19062,-1.82562 2.2225,-1.82562 h 1.03187 30.58584 c 2.83104,0 5.42395,-1.5875 6.74687,-4.10105 l 25.47938,-48.392285 c 0.8202,-1.508125 2.32833,-2.275417 3.81,-2.275417 M 284.94383,99.112915 c 0.39688,0 0.87313,-0.05292 1.42875,-0.185208 3.38667,-0.79375 9.55146,-3.704166 14.34042,-6.429375 3.36021,-1.957916 6.37646,-3.995208 9.86896,-6.852708 0.44979,-0.370417 0.97896,-0.529167 1.48167,-0.529167 1.21708,0 2.38125,0.9525 2.38125,2.354792 v 7.434792 14.710829 7.4348 c 0,1.40229 -1.16417,2.35479 -2.38125,2.35479 -0.50271,0 -1.03188,-0.15875 -1.48167,-0.52917 -3.4925,-2.88396 -6.50875,-4.92125 -9.86896,-6.85271 -4.78896,-2.77812 -10.76854,-4.92125 -14.18167,-5.55625 -0.26458,-0.0529 -0.5027,-0.0794 -0.76729,-0.0794 -1.905,0 -3.43958,1.40229 -3.43958,2.59291 v 1.27 23.6273 c 0,3.88937 3.14854,7.01145 7.01146,7.01145 h 4.25979 c 17.38312,0 29.55396,-7.85812 35.13667,-13.5202 1.1377,-1.16417 1.42875,-2.91042 0.76729,-4.39209 -3.01625,-6.77333 -4.445,-14.34041 -4.445,-22.06625 0,-5.794373 2.14312,-12.408956 6.08541,-18.626664 0.55563,-0.873125 0.37042,-2.06375 -0.39687,-2.725209 -6.16479,-5.318125 -19.02354,-13.414374 -33.12583,-13.414374 h -8.59896 c -3.70417,0 -6.69396,3.01625 -6.69396,6.693958 v 23.230416 1.42875 c 0.39687,0.820208 1.05833,1.613958 2.61937,1.613958 M 450.94342,50.932291 c -2.56646,0 -4.92125,1.402292 -6.11188,3.677708 l -25.50583,48.392291 c -0.87313,1.66688 -2.56646,2.67229 -4.41854,2.67229 h -30.58584 -1.03187 c -2.35479,0 -4.47146,1.77271 -4.81542,4.04813 -0.21167,1.34937 0.13229,2.67229 0.9525,3.73062 0.82021,1.05834 2.06375,1.71979 3.43958,1.85209 7.22313,0.66145 11.16542,5.23875 11.1125,12.93812 -0.0529,7.03792 -5.84729,12.75292 -12.93812,12.75292 h -2.2225 c -8.44021,0 -14.44625,-4.07459 -17.88583,-12.11792 -2.80459,-6.58812 -3.09563,-14.04937 -3.09563,-16.93333 V 92.048541 c 0,-5.688542 1.48167,-24.28875 20.37292,-24.28875 17.93875,0 27.19916,9.101666 33.89312,18.018125 0.87313,1.190625 2.2225,1.852083 3.65125,1.852083 1.50813,0 2.91042,-0.714375 3.81,-1.931458 0.87313,-1.190625 1.11125,-2.69875 0.635,-4.1275 l -7.14375,-22.410208 c -0.82021,-2.566459 -3.175,-4.28625 -5.84729,-4.28625 -1.11125,0 -2.2225,0.3175 -3.20146,0.899583 -3.54541,2.169583 -5.79437,2.328333 -6.42937,2.328333 -0.0529,0 -0.10584,0 -0.13229,0 l -0.29105,-0.07937 -0.1852,0.05292 c -0.0265,0 -0.0265,0 -0.0529,0 -0.71438,0 -2.30188,-0.264583 -4.15396,-0.582083 -3.94229,-0.661459 -9.86896,-1.693334 -16.53646,-1.693334 -14.57854,0 -28.20458,5.185834 -38.52333,14.657917 l -3.43958,-8.360833 c -0.50271,-1.217084 -2.01084,-4.92125 -6.48229,-4.92125 h -42.83605 v -0.02646 h -2.64583 -23.65374 c -1.29646,0 -2.6723,-0.05292 -4.33917,-0.132291 -3.57187,-0.185209 -35.32187,-1.931459 -51.27625,-1.931459 -21.80166,0 -35.16312,7.858125 -36.64479,21.537083 -0.50271,4.656667 0.50271,8.995834 2.96334,12.885209 2.03729,3.227916 4.70958,5.609166 6.8527,7.514166 0.34396,0.3175 0.68792,0.635 1.03188,0.926042 2.46062,2.275424 12.93812,8.863544 18.38854,11.377084 1.40229,0.66146 8.81062,4.1275 15.05479,8.54604 6.0325,4.2598 9.23396,8.20209 8.62542,10.6098 -1.61396,6.13833 -6.29709,8.7577 -15.66334,8.7577 -9.86895,0 -22.19854,-6.8527 -36.67124,-20.34645 -0.92605,-0.87313 -2.11667,-1.34938 -3.33376,-1.34938 -1.71979,0 -3.33375,0.92604 -4.23333,2.38125 -0.87312,1.45521 -0.9525,3.22792 -0.15875,4.7625 2.06375,4.07458 9.2075,17.88583 13.89062,24.89729 v 0 0 c 1.32292,1.95792 3.54542,3.14854 5.90021,3.14854 0.58209,0 1.19063,-0.0794 1.74625,-0.21166 3.14854,-0.79375 7.32896,-1.32292 10.42459,-1.32292 0.37041,0 0.74083,0 1.05833,0.0265 1.69333,0.0794 4.20687,0.3175 6.85271,0.58208 3.54541,0.34396 7.19666,0.71438 9.41916,0.71438 15.31938,0 26.1673,-2.01084 33.15229,-6.1648 6.6675,-3.94229 10.21292,-9.97479 10.82146,-18.38854 0.37042,-5.02708 -0.76729,-9.97479 -3.33375,-14.68437 -2.16958,-3.99521 -5.3975,-7.85813 -9.63083,-11.482921 -8.36083,-7.223125 -18.83833,-11.985625 -24.31521,-14.181666 -6.64104,-2.672292 -10.37166,-5.820834 -12.32958,-7.990417 -2.51354,-2.778125 -2.96333,-4.868333 -2.88396,-5.609167 v 0 0 c 0.18521,-1.402291 0.68792,-5.185833 8.5725,-5.185833 0.34396,0 0.68792,0 1.03188,0.02646 8.41375,0.3175 19.89666,2.619375 28.60145,5.714999 9.71021,3.466042 15.50459,7.646459 15.50459,11.244792 V 135.255 c 0,1.69333 -2.24896,5.3975 -4.47146,5.3975 h -0.0794 c -1.4023,0 -2.77813,0.55562 -3.78355,1.48166 l -0.0265,0.0265 -0.0265,0.0265 c -1.37584,1.37583 -1.79917,3.25438 -1.13771,4.92125 0.66146,1.5875 2.16958,2.59292 3.88937,2.59292 h 17.145 16.98625 48.49812 c 2.61938,0 4.94771,-1.56104 5.97958,-3.99521 v 0 0 l 2.27542,-5.52979 c 4.57729,3.94229 10.02771,7.03791 16.21896,9.15458 6.90562,2.38125 14.79021,3.57188 23.41562,3.57188 4.445,0 13.12334,-1.19063 17.22438,-2.69875 0.9525,-0.34396 1.95791,-0.52917 2.96333,-0.52917 h 32.43792 5.21229 c 1.98437,0 3.73062,-1.19063 4.445,-3.06917 0.71437,-1.85208 0.21167,-3.91583 -1.27,-5.23875 v 0 0 c -0.76729,-0.66146 -1.32292,-1.19062 -1.53458,-1.40229 l -0.0265,-0.0265 h -0.0265 c -2.06375,-1.87854 -2.11667,-2.88396 -2.14313,-4.1275 0,-0.10583 0,-0.23812 -0.0264,-0.34395 -0.0529,-1.11125 0.1852,-2.24896 0.71437,-3.25438 l 20.45229,-38.867291 17.40959,38.629171 c 0.5027,1.08479 0.71437,2.2225 0.635,3.30729 -0.0265,0.13229 -0.0265,0.23812 -0.0265,0.34396 0,0 0,0.0265 0,0.0265 -0.26459,1.42875 -1.53459,3.99521 -3.06917,3.99521 H 471.422 c -1.50813,0 -2.96334,0.52917 -4.04813,1.50813 v 0 0 c -1.69333,1.50812 -2.30187,3.62479 -1.5875,5.52979 0.66146,1.77271 2.38125,2.96333 4.28625,2.96333 h 29.05125 c 1.45521,0 2.80458,-0.635 3.73062,-1.74625 0.92605,-1.11125 1.27,-2.56646 1.00542,-3.96875 -0.3175,-1.5875 -1.50812,-2.96333 -3.09562,-3.54542 -2.24896,-0.84666 -6.42938,-3.175 -9.12813,-9.12812 L 457.18758,54.874583 c -1.05833,-2.38125 -3.4925,-3.942292 -6.24416,-3.942292 z M 284.97029,96.467082 V 96.096666 72.866249 c 0,-2.248958 1.82563,-4.074583 4.07459,-4.074583 h 8.59895 c 15.16063,0 27.86063,9.789583 31.03563,12.461875 -4.04813,6.482291 -6.27063,13.467291 -6.27063,19.658539 0,8.38729 1.56105,16.16604 4.65667,23.12459 0.21167,0.5027 0.13229,1.08479 -0.23812,1.4552 -6.05896,6.13834 -17.96521,12.72646 -33.23167,12.72646 h -4.25979 c -2.40771,0 -4.39209,-1.95792 -4.39209,-4.39208 v -23.68021 -0.87312 c 0.15875,-0.1323 0.4498,-0.29105 0.79375,-0.29105 0.0794,0 0.15875,0 0.23813,0.0265 v 0 0 c 3.12208,0.60854 8.86354,2.64584 13.36146,5.26521 3.57187,2.09021 6.42937,4.07458 9.525,6.61458 0.89958,0.74084 1.98437,1.13771 3.14854,1.13771 2.77812,0 5.02708,-2.24896 5.02708,-5.00062 v -7.43479 -14.710838 -7.434791 c 0,-2.751667 -2.24896,-5.000625 -5.02708,-5.000625 -1.16417,0 -2.24896,0.396875 -3.14854,1.137708 -3.06917,2.54 -5.92667,4.524375 -9.49854,6.614583 -5.05355,2.910417 -10.76855,5.503334 -13.62605,6.164792 -0.34395,0.07937 -0.60854,0.105833 -0.76729,0.105833 z"
     id="path84"
     style="display:inline;fill:#ffffff;stroke-width:0.264583"
     inkscape:label="SegaOutline" />
  <path
     class="st19"
     d="m 531.08571,1.3229167 c 2.67229,0 4.28625,3.7835416 1.64041,5.5562499 -1.08479,0.7408334 -2.06375,1.4022917 -2.8575,1.9579167 -9.94833,6.9585417 -18.65312,15.1870827 -18.65312,42.9418747 0,30.188958 21.61646,59.716462 27.41083,83.476042 l 6.05896,-11.50938 35.82458,-67.997912 c 0.82021,-1.534584 2.30188,-2.275417 3.78354,-2.275417 1.56105,0 3.14855,0.846667 3.91584,2.513542 L 622.658,132.37104 c 1.42875,3.175 3.78354,5.42396 6.24416,7.03792 1.08479,0.71437 2.35479,1.05833 3.62479,1.05833 h 3.91584 c 1.82562,0 3.57187,-0.79375 4.73604,-2.16958 1.50812,-1.77271 2.61937,-4.10104 2.61937,-7.09084 V 67.865624 c 0,-1.719791 -1.40229,-3.095625 -3.09562,-3.095625 -0.0265,0 -0.0529,0 -0.10583,0 -15.90146,0.608542 -26.77584,5.635625 -33.25813,10.027708 -0.34396,0.238125 -0.68791,0.3175 -1.03187,0.3175 -1.24354,0 -2.32834,-1.322916 -1.66688,-2.672291 l 4.84188,-10.00125 c 0.79375,-1.640417 2.48708,-2.69875 4.31271,-2.69875 h 30.0302 58.89625 4.49792 29.26292 c 0.84666,0 1.50812,0.687917 1.50812,1.508125 v 0.02646 c 0,0.661459 -0.42333,1.217084 -1.05833,1.42875 -2.43417,0.79375 -8.255,3.360209 -8.255,9.472083 v 38.787916 6.985 c 0,12.09146 6.24416,21.69583 22.56895,21.69583 8.94292,0 20.10834,-5.31812 20.10834,-21.29896 V 72.204791 c 0,-6.111875 -5.82084,-8.678333 -8.255,-9.472083 -0.76729,-0.238125 -1.24354,-1.11125 -0.9525,-1.957917 0.21166,-0.608542 0.82021,-1.005417 1.48166,-1.005417 h 12.75292 74.93 c 32.46437,0 32.46437,19.976042 32.46437,23.495 0,2.354792 -0.76729,23.389166 -26.69645,23.389166 0,0 3.51896,1.79917 7.62,6.61458 5.15937,6.08542 7.38187,12.75292 12.01208,17.56834 4.92125,5.13291 14.55208,12.14437 18.83833,12.14437 1.85209,0 3.36021,-1.50812 3.36021,-3.36021 v -2.38125 -49.291871 c 0,-1.5875 -1.37583,-15.425208 -14.23458,-25.108958 -0.39688,-0.291042 -0.76729,-0.555625 -1.13771,-0.846667 -1.87854,-1.42875 -0.68792,-4.180416 1.34937,-4.180416 0.23813,0 0.50271,0.02646 0.7673,0.132291 11.27125,3.65125 28.31041,10.292292 40.34895,20.293542 l 38.57625,32.014579 c 0.3175,0.26459 0.68792,0.39688 1.05834,0.39688 0.84666,0 1.66687,-0.66146 1.66687,-1.64042 V 72.284166 c 0,-6.111875 -5.82083,-8.678333 -8.255,-9.472083 -0.76729,-0.264584 -1.24354,-1.11125 -0.9525,-1.957917 0.21167,-0.608542 0.82021,-1.005417 1.48167,-1.005417 h 6.74687 12.7 6.74688 c 0.66146,0 1.27,0.396875 1.48167,1.005417 0.29104,0.873125 -0.18521,1.719792 -0.97896,1.957917 -2.43417,0.79375 -8.255,3.360208 -8.255,9.472083 v 74.215624 c 0,1.61396 -1.29646,2.69875 -2.69875,2.69875 -0.58209,0 -1.19063,-0.18521 -1.71979,-0.635 L 912.37674,97.737082 c -0.3175,-0.264583 -0.68791,-0.396875 -1.05833,-0.396875 -0.84667,0 -1.66688,0.661458 -1.66688,1.640417 v 41.433746 c 0,5.715 5.37105,8.01688 7.91105,8.78417 0.9525,0.29104 1.53458,1.32292 1.19062,2.35479 -0.23812,0.74083 -0.97896,1.21708 -1.77271,1.21708 h -12.67354 c -29.47458,0 -47.04291,-9.94833 -56.30333,-22.43666 -5.95313,-8.01688 -10.34521,-20.61104 -12.77938,-28.83958 -0.0265,0 -0.0265,-0.0529 -0.0529,-0.1323 -0.39688,-1.24354 0.58208,-2.381246 1.74625,-2.381246 0.26458,0 0.52916,0.05292 0.79375,0.185208 0,0.02646 0.0265,0.02646 0.0265,0.02646 2.03729,0.740834 3.96875,0.79375 6.32354,0.79375 0.29104,0 0.58208,0 0.89958,0 4.15396,0 14.2875,-3.783541 14.2875,-19.341041 0,-10.609791 -7.48771,-16.959791 -15.05479,-16.959791 h -8.12271 c -2.83104,0 -6.93208,1.74625 -6.93208,6.535208 v 6.376458 53.657494 c 0,8.46667 6.79979,11.64167 9.86896,12.64709 1.11125,0.37041 1.7727,1.61395 1.32291,2.83104 -0.3175,0.84666 -1.16416,1.37583 -2.06375,1.37583 h -14.57854 -15.71625 -13.94354 c -1.34938,0 -2.38125,-1.21708 -2.11667,-2.59292 0.15875,-0.79375 0.76729,-1.40229 1.50813,-1.64041 3.12208,-1.03188 9.78958,-4.20688 9.78958,-12.62063 V 73.686457 c 0,-2.751666 -0.87312,-4.709583 -1.98437,-6.058958 -1.61396,-1.984375 -4.10105,-3.042708 -6.64105,-3.042708 h -3.86291 c -2.56646,0 -5.05354,1.058333 -6.64104,3.042708 -1.11125,1.349375 -1.98438,3.307292 -1.98438,6.058958 0,0 0,44.529373 0,46.751873 0,18.22979 -17.70062,28.12521 -36.59187,28.12521 -32.59667,0 -41.48667,-14.41979 -42.545,-33.15229 h -0.10584 V 74.638957 c 0,-1.190625 -0.66145,-2.275416 -1.71979,-2.831041 -6.53521,-3.439583 -15.82208,-6.535208 -28.12521,-7.011458 -0.0529,0 -0.10583,0 -0.15875,0 -1.71979,0 -3.09562,1.349375 -3.09562,3.095625 v 63.341247 c 0,7.22313 6.40292,10.53042 9.31333,11.64167 0.87313,0.3175 1.45521,1.21708 1.40229,2.16958 -0.0529,1.19063 -1.08479,2.09021 -2.27541,2.09021 h -13.83771 -6.74688 -22.88645 -1.69334 -28.94541 c -1.74625,0 -2.96334,-2.35479 -0.68792,-4.10104 0.55563,-0.42334 1.24354,-0.635 1.93146,-0.635 h 0.0529 c 3.46604,0 5.29166,-4.15396 5.66208,-6.19125 0.0265,-0.13229 0.0265,-0.3175 0.0529,-0.52917 0.13229,-1.5875 -0.18521,-3.20146 -0.84667,-4.65666 L 590.61696,87.444791 567.59821,131.10104 c -0.74084,1.42875 -1.0848,3.04271 -1.00542,4.65667 0.0794,1.61395 -0.0265,3.51895 3.04271,6.24416 0.39687,0.37042 0.9525,0.87313 1.5875,1.42875 0,0.0265 0.0265,0.0265 0.0265,0.0265 1.4552,1.29646 0.52916,3.70417 -1.4023,3.70417 h -22.56895 -1.85209 -5.42396 c -0.23812,19.12937 -6.45583,36.77708 -49.00083,57.41458 -0.42333,0.21167 -0.87312,0.29104 -1.32292,0.29104 -1.05833,0 -2.06375,-0.55562 -2.61937,-1.50812 -0.84667,-1.45521 -0.29104,-3.33375 1.19062,-4.1275 17.35667,-9.28688 22.46313,-28.52209 21.7223,-45.05854 -1.53459,-34.36938 -29.36875,-63.923336 -28.83959,-92.101461 0.3175,-16.801041 6.985,-39.555208 45.85229,-59.134374 0.7673,-0.396875 1.66688,-0.8202083 2.69875,-1.2964583 0.50271,-0.238125 0.97896,-0.3175 1.4023,-0.3175 m 0,-2.6458333 c 0,0 0,0 0,0 0,0 0,0 0,0 -0.84667,0 -1.66688,0.1852083 -2.46063,0.55562494 C 527.54033,-0.26454333 526.64075,0.15879 525.847,0.55566499 516.45425,5.2916667 508.38446,10.4775 501.82279,16.03375 c -5.90021,5.000625 -10.74208,10.398125 -14.39333,16.060208 -5.76792,8.995833 -8.67834,18.785416 -8.89,29.897916 -0.26459,14.499167 6.45583,28.945417 13.59958,44.238336 7.14375,15.29291 14.49917,31.115 15.26646,48.02187 0.42333,9.31333 -0.74084,32.12042 -20.32,42.59792 -1.34938,0.71437 -2.35479,1.98437 -2.75167,3.43958 -0.42333,1.48167 -0.23812,3.01625 0.52917,4.33917 1.00541,1.74625 2.88396,2.83104 4.89479,2.83104 0.84667,0 1.69333,-0.18521 2.46062,-0.55563 10.53042,-5.10645 19.02355,-10.08062 25.98209,-15.24 6.53521,-4.84187 11.56229,-9.68375 15.34583,-14.84312 7.09083,-9.63083 8.73125,-18.97063 9.07521,-27.06688 h 2.8575 1.85208 22.56896 c 1.98438,0 3.73063,-1.19062 4.445,-3.06916 0.55563,-1.42875 0.37042,-2.98979 -0.42333,-4.23334 v -0.26458 l -0.89959,-0.79375 c -0.0794,-0.0529 -0.13229,-0.13229 -0.21166,-0.18521 l -0.50271,-0.44979 v 0 c -0.29104,-0.26458 -0.58208,-0.52917 -0.82021,-0.74083 l -0.0265,-0.0265 -0.0265,-0.0265 c -2.06375,-1.85208 -2.0902,-2.83104 -2.14312,-4.10104 0,-0.10583 0,-0.21167 -0.0265,-0.3175 -0.0529,-1.13771 0.18521,-2.27542 0.71438,-3.28083 l 20.47875,-38.867294 17.40958,38.655624 c 0.50271,1.08479 0.71437,2.2225 0.635,3.30729 -0.0265,0.13229 -0.0265,0.23813 -0.0265,0.34396 0,0 0,0.0265 0,0.0265 -0.26458,1.42875 -1.53458,3.99521 -3.06917,3.99521 h -0.0529 c -1.27,0 -2.54,0.42333 -3.51896,1.16416 -2.32833,1.79917 -2.56646,4.1275 -2.03729,5.715 0.635,1.85209 2.38125,3.09563 4.31271,3.09563 h 28.94541 1.69333 22.88646 6.74688 13.83771 c 2.61937,0 4.7625,-2.01084 4.89479,-4.57729 0.10583,-2.09021 -1.16417,-4.04813 -3.12209,-4.78896 -2.8575,-1.08479 -7.59354,-3.73063 -7.59354,-9.15458 V 67.865624 c 0,-0.264583 0.18521,-0.449791 0.44979,-0.449791 0,0 0.0265,0 0.0265,0 10.18646,0.396875 19.26167,2.645833 27.01396,6.720416 0.18521,0.105833 0.29104,0.291042 0.29104,0.47625 v 40.798751 2.64583 h 0.29104 c 0.97896,10.00125 4.28625,17.51542 10.10709,22.88646 7.46125,6.90562 18.86479,10.23937 34.89854,10.23937 10.23937,0 19.81729,-2.7252 26.90812,-7.69937 3.83646,-2.69875 6.85271,-5.95313 8.94292,-9.68375 2.24896,-4.02167 3.38667,-8.51958 3.38667,-13.38792 V 73.686457 c 0,-1.799166 0.47625,-3.280833 1.37583,-4.392083 v 0 0 c 1.05833,-1.322916 2.75167,-2.06375 4.60375,-2.06375 h 3.86292 c 1.85208,0 3.54541,0.740834 4.60375,2.06375 0.92604,1.137708 1.37583,2.619375 1.37583,4.392083 v 56.594373 c 0,6.50875 -5.00063,9.12813 -7.99042,10.10708 -1.66687,0.55563 -2.93687,1.93146 -3.25437,3.6248 v 0 0 c -0.26459,1.42875 0.10583,2.88395 1.00541,3.9952 0.89959,1.11125 2.24896,1.74625 3.70417,1.74625 h 13.94354 15.71625 14.57854 c 2.01084,0 3.83646,-1.24354 4.52438,-3.09562 0.47625,-1.27 0.39687,-2.59292 -0.15875,-3.78354 -0.55563,-1.16417 -1.5875,-2.06375 -2.80458,-2.46063 v 0 0 c -3.01625,-0.97896 -8.04334,-3.59833 -8.04334,-10.13354 V 76.623332 70.246874 c 0,-3.862916 4.1275,-3.915833 4.31271,-3.915833 h 8.09625 c 6.00604,0 12.40896,5.027083 12.40896,14.340416 0,6.0325 -1.61396,10.609792 -4.7625,13.599584 -2.59292,2.460624 -5.52979,3.122083 -6.87917,3.122083 h -0.47625 -0.44979 c -2.14312,0 -3.67771,-0.05292 -5.21229,-0.555625 h -0.0265 c -0.60854,-0.291042 -1.27,-0.449792 -1.93146,-0.449792 -1.40229,0 -2.75166,0.687917 -3.59833,1.825625 -0.84667,1.137708 -1.08479,2.566458 -0.66146,3.942288 0.0265,0.1323 0.0794,0.23813 0.13229,0.37042 2.67229,8.99583 7.09084,21.32542 13.12334,29.44813 5.29166,7.14374 12.5677,12.77937 21.64291,16.74812 10.23938,4.47146 22.62188,6.74687 36.80354,6.74687 h 12.67354 c 1.95792,0 3.67771,-1.21708 4.2598,-3.01625 0.39687,-1.16416 0.29104,-2.4077 -0.26459,-3.4925 -0.55562,-1.05833 -1.50812,-1.87854 -2.64583,-2.2225 -2.27542,-0.68791 -6.05896,-2.4077 -6.05896,-6.27062 v -39.37 l 59.61063,49.50354 v 0 0 c 0.97895,0.79375 2.14312,1.21708 3.38666,1.21708 2.93688,0 5.34459,-2.4077 5.34459,-5.34458 V 72.284166 c 0,-4.365625 4.47145,-6.323542 6.42937,-6.958542 1.05833,-0.3175 1.93146,-1.058333 2.43417,-2.037291 0.52916,-1.005417 0.60854,-2.169584 0.23812,-3.254375 v -0.02646 -0.02646 c -0.58208,-1.666875 -2.16958,-2.778125 -3.96875,-2.778125 h -6.74687 -12.7 -6.74688 c -1.79916,0 -3.38666,1.11125 -3.96875,2.778125 -0.74083,2.196042 0.39688,4.577292 2.59292,5.318125 h 0.0265 0.0265 c 1.93145,0.635 6.42937,2.566458 6.42937,6.958541 V 106.89167 L 927.61674,76.199999 C 915.49883,66.119374 898.51258,59.346041 886.39466,55.430208 c -0.52917,-0.15875 -1.05833,-0.238125 -1.56104,-0.238125 -2.09021,0 -3.96875,1.375833 -4.65667,3.413125 -0.68792,2.037291 -0.0265,4.180416 1.69333,5.503333 0.3175,0.264583 0.635,0.47625 0.9525,0.714375 l 0.23813,0.15875 c 5.00062,3.757083 8.73125,8.625416 11.05958,14.44625 1.98438,4.947708 2.09021,8.493125 2.09021,8.546041 v 49.291873 2.38125 c 0,0.39688 -0.3175,0.71438 -0.71437,0.71438 -1.03188,0 -3.67771,-0.97896 -7.72584,-3.70417 -3.30729,-2.2225 -6.85271,-5.15937 -9.2075,-7.62 -2.16958,-2.27542 -3.81,-5.08 -5.5827,-8.06979 -1.79917,-3.06917 -3.65125,-6.24417 -6.32355,-9.36625 -0.92604,-1.08479 -1.79916,-2.01083 -2.64583,-2.83104 3.4925,-0.58209 6.64104,-1.61396 9.36625,-3.09563 3.73063,-2.01083 6.74687,-4.84187 8.94292,-8.413748 3.83645,-6.19125 4.02166,-12.726458 4.02166,-13.97 0,-5.635625 -1.53458,-10.556875 -4.57729,-14.631458 -2.59292,-3.466041 -6.19125,-6.19125 -10.71562,-8.09625 -5.31813,-2.248958 -11.98563,-3.386666 -19.79084,-3.386666 h -74.93 -12.75291 c -1.79917,0 -3.38667,1.11125 -3.96875,2.778125 -0.37042,1.084791 -0.29104,2.248958 0.21166,3.254375 0.50271,0.978958 1.37584,1.719791 2.40771,2.06375 1.93146,0.635 6.42938,2.566458 6.42938,6.958541 v 46.169791 c 0,17.75354 -14.55209,18.65312 -17.4625,18.65312 -16.45708,0 -19.92313,-10.37166 -19.92313,-19.04999 v -6.985 -38.814379 c 0,-4.392083 4.49792,-6.323542 6.42938,-6.958542 v 0 0 c 1.71979,-0.582083 2.8575,-2.143125 2.8575,-3.915833 v -0.02646 c 0,-2.275417 -1.85208,-4.153959 -4.15396,-4.153959 h -29.26292 -4.49791 -58.94917 -30.03021 c -2.83104,0 -5.45041,1.640417 -6.6675,4.180417 l -4.84187,10.00125 c -0.68792,1.42875 -0.58208,3.042708 0.23812,4.339166 0.82021,1.296459 2.30188,2.116667 3.81,2.116667 0.87313,0 1.74625,-0.264583 2.51355,-0.767292 v 0 0 c 5.95312,-4.048125 16.32479,-8.969374 31.85583,-9.577916 v 0 c 0.23812,0 0.44979,0.211667 0.44979,0.449792 v 63.341249 c 0,2.06375 -0.66146,3.81 -1.98438,5.3975 -0.66145,0.76729 -1.66687,1.24354 -2.7252,1.24354 h -3.91584 c -0.79375,0 -1.53458,-0.21166 -2.16958,-0.60854 v 0 0 c -2.46063,-1.5875 -4.23333,-3.59833 -5.29167,-5.92666 L 590.48466,54.953958 c -1.1377,-2.513542 -3.57187,-4.074584 -6.29708,-4.074584 -2.56646,0 -4.89479,1.402292 -6.11187,3.677709 l -35.85105,67.997917 -3.01625,5.715 c -2.43416,-7.32896 -5.92666,-15.02833 -9.57791,-23.07167 -7.83167,-17.277289 -15.92792,-35.136664 -15.92792,-53.392914 0,-26.3525 7.9375,-34.051875 17.54188,-40.772291 0.55562,-0.396875 1.24354,-0.873125 1.98437,-1.3493751 l 0.82021,-0.555625 v 0 C 536.16571,7.699375 537.03883,5.23875 536.32446,2.8310417 535.71591,0.3175 533.54633,-1.3229166 531.08571,-1.3229166 Z"
     id="path86"
     style="display:inline;fill:#ffffff;stroke-width:0.264583"
     inkscape:label="SaturnOutline" />
  <g
     id="g5"
     style="display:inline"
     inkscape:label="Logo"
     transform="matrix(0.26458333,0,0,0.26458333,-0.01240235,-1.3229166)">
    <path
       class="st19"
       d="m 79.285627,154.70187 c -8.916459,0 -17.674167,-2.38125 -25.320625,-6.87916 -9.630833,1.34937 -18.758958,2.03729 -27.119791,2.03729 -2.354792,0 -4.709584,-0.0529 -6.958542,-0.15875 -4.1275,-0.18521 -7.355416,-3.67771 -7.196666,-7.75229 0.15875,-4.02167 3.439583,-7.19667 7.461249,-7.19667 0.132292,0 0.264584,0 0.396875,0 1.931459,0.10583 3.995209,0.15875 6.085417,0.15875 3.889375,0 8.069792,-0.15875 12.408958,-0.50271 -2.248958,-3.01625 -4.1275,-6.27062 -5.635625,-9.71021 -0.396875,0.10584 -0.79375,0.18521 -1.190625,0.29105 -6.82625,1.56104 -11.7475,2.27541 -15.954374,2.27541 -7.7787504,0 -12.8058337,-2.64583 -14.9489586,-7.85812 -1.66687501,-3.96875 -2.5664583,-10.21292 2.4870833,-17.51542 5.1064582,-7.328958 15.7691663,-14.552083 31.6706243,-21.431249 8.837083,-15.954375 25.55875,-25.823333 43.815,-25.823333 8.598958,0 17.065625,2.2225 24.500413,6.402916 10.82146,-1.772708 20.69042,-2.725208 28.52209,-2.725208 1.16416,0 2.30187,0.02646 3.38666,0.05292 2.01084,0.07937 3.83646,0.926041 5.21229,2.38125 1.34938,1.455208 2.06375,3.360208 1.98438,5.371041 -0.15875,4.021667 -3.43958,7.196667 -7.46125,7.196667 -0.10583,0 -0.18521,0 -0.29104,0 -0.92604,-0.02646 -1.93146,-0.05292 -2.93688,-0.05292 -3.91583,0 -8.38729,0.264583 -13.30854,0.767292 1.905,2.460625 3.59833,5.106458 5.00063,7.858125 5.76791,-1.164167 10.55687,-1.719792 14.57854,-1.719792 5.08,0 9.02229,0.899583 12.03854,2.725208 3.51896,2.116667 5.715,5.344584 6.35,9.392709 0.9525,5.926666 -1.16417,11.853334 -6.37646,17.647704 -5.42396,6.05896 -14.68437,12.25021 -26.82875,17.93875 -4.1275,7.88459 -10.31875,14.55209 -17.88583,19.28813 -7.937502,4.92125 -17.092085,7.54062 -26.484793,7.54062 z M 29.464586,99.933124 c -6.641042,3.677706 -11.244792,7.276046 -13.440833,10.424586 -0.238125,0.37041 -0.449792,0.71437 -0.608542,1.03187 v 0.0265 c -0.07937,0.13229 -0.07937,0.39688 0.02646,0.58208 0.02646,0.0794 0.15875,0.26459 0.635,0.3175 0.3175,0.0265 0.661459,0.0529 1.031875,0.0529 2.725208,0 6.932083,-0.71437 12.488333,-2.09021 -0.211666,-1.85208 -0.3175,-3.73062 -0.3175,-5.58271 -0.02646,-1.5875 0.02646,-3.175 0.185209,-4.762496 z m 99.139374,-3.704167 c 0.47625,2.778125 0.71437,5.609163 0.71437,8.440213 0,1.11125 -0.0265,2.24895 -0.10583,3.38666 4.445,-2.75166 7.85813,-5.45041 10.18646,-8.06979 1.27,-1.42875 2.14312,-2.751666 2.54,-3.862916 0.0794,-0.238125 0,-0.423333 -0.0529,-0.529167 -0.0529,-0.105833 -0.18521,-0.264583 -0.44979,-0.291041 -0.76729,-0.132292 -1.69333,-0.185209 -2.77812,-0.185209 -2.64584,0 -6.00605,0.370417 -10.05417,1.11125 z"
       id="path87"
       style="display:inline;fill:#ffffff;stroke-width:0.264583"
       inkscape:label="LogoOutlineSmall"
       transform="matrix(3.7795276,0,0,3.7795276,4.937785,4.9999998)" />
    <circle
       style="display:inline;fill:url(#SVGID_00000145037386364555785130000009153912050004087442_);stroke-width:0.264583"
       cx="79.285629"
       cy="104.66917"
       r="48.736248"
       id="circle103"
       inkscape:label="LogoCircle"
       transform="matrix(3.7795276,0,0,3.7795276,4.937785,4.9999998)" />
    <path
       d="m 470.24443,320.07032 c -49.46822,10.25143 -113.61916,30.80444 -193.14453,57.33008 -54,18.10001 -105.00078,34.60035 -147.30079,45.90039 -2.79302,0.75379 -4.8706,1.19112 -7.46679,1.85742 a 184.19999,184.19999 0 0 0 12.35742,45.09375 c 45.00139,-11.10645 99.59342,-29.24336 157.31055,-48.45117 59.5,-19.8 120.99958,-40.30157 170.59961,-52.10157 8.42941,-2.02595 15.76254,-3.56125 22.61523,-4.89258 a 184.19999,184.19999 0 0 0 -14.9707,-44.73632 z"
       style="display:inline;fill:#000000;stroke-width:0.264583"
       id="path5" />
    <path
       d="m 210.53154,558.32227 a 184.19999,184.19999 0 0 1 -47.77735,-41.05078 c -0.20565,0.0187 -0.41952,0.0459 -0.625,0.0645 -0.01,-0.0118 -0.0196,-0.0234 -0.0293,-0.0352 -28.7,2.60001 -55.60078,3.39958 -79.800786,2.09961 -12.999999,-0.70001 -23.898436,9.39884 -24.398438,22.29883 -0.2511,6.47845 2.199081,12.37577 6.306641,16.71875 0.0095,0.0101 0.01982,0.0192 0.0293,0.0293 0.909173,0.95792 1.905053,1.83163 2.964844,2.62696 0.311573,0.23701 0.635317,0.45016 0.958984,0.67187 0.773616,0.5229 1.578632,0.99912 2.414063,1.42969 0.647202,0.33842 1.310882,0.63126 1.992187,0.91015 0.594474,0.23966 1.199361,0.4546 1.816406,0.64649 0.960057,0.30402 1.93967,0.53553 2.949219,0.7168 0.415537,0.0726 0.833395,0.13486 1.25586,0.18554 0.608855,0.0761 1.189962,0.23641 1.8125,0.26563 2.631938,0.12533 5.458718,0.10144 8.146484,0.1875 3.102837,0.098 6.2196,0.17068 9.361328,0.21679 2.860778,0.0427 5.585248,0.19532 8.492188,0.19532 2.4547,0 5.06377,-0.1479 7.55273,-0.17969 4.47307,-0.0584 8.99502,-0.16251 13.57617,-0.32227 4.75854,-0.16524 9.54533,-0.3743 14.40821,-0.64843 5.34027,-0.3007 10.74082,-0.66616 16.19726,-1.09571 4.44274,-0.35096 8.90421,-0.73962 13.41602,-1.17578 5.62313,-0.54104 11.30537,-1.16124 17.02344,-1.83203 4.55251,-0.53688 9.11214,-1.10383 13.71875,-1.72266 2.53431,-0.33864 5.05888,-0.66037 7.60742,-1.02343 -0.0354,-0.0212 -0.0701,-0.0432 -0.10547,-0.0645 0.24399,-0.0349 0.49221,-0.0782 0.73633,-0.11328 z"
       style="display:inline;stroke-width:0.264583"
       id="path4" />
    <path
       d="m 470.24443,320.07032 a 184.19999,184.19999 0 0 1 14.9707,44.73632 c 2.30679,-0.44815 4.77382,-0.96379 6.92188,-1.3457 0.4602,-0.0816 0.94959,-0.17532 1.40234,-0.2539 8.43096,-1.46683 15.60565,-2.42077 21.66797,-2.98633 0.33691,-0.0311 0.62295,-0.0455 0.95313,-0.0742 2.47547,-0.21818 4.76092,-0.37096 6.875,-0.4707 0.7779,-0.0358 1.50082,-0.0564 2.23242,-0.0781 1.5281,-0.047 2.97014,-0.0682 4.30469,-0.0606 0.74974,0.005 1.49949,0.01 2.1914,0.0293 1.15593,0.0324 2.21117,0.0884 3.21289,0.15625 0.58141,0.0394 1.21161,0.0682 1.74414,0.11719 1.40221,0.12998 2.69363,0.28186 3.7793,0.46094 4.50002,0.8 7.19924,5.39922 5.69922,9.69921 -2.19999,6.3 -7.19962,12.50079 -10.59961,16.30079 -1.51317,1.69644 -3.20657,3.40593 -4.94726,5.11718 -0.93721,0.91639 -1.9247,1.83517 -2.92579,2.75586 -0.8183,0.75579 -1.66659,1.51358 -2.52734,2.27149 -1.28156,1.12456 -2.56605,2.2477 -3.93945,3.37695 -0.11962,0.0986 -0.25079,0.19827 -0.3711,0.29688 -3.4992,2.8614 -7.2897,5.73528 -11.35742,8.61328 -0.18217,0.12899 -0.35579,0.25768 -0.53906,0.38672 -2.04272,1.43667 -4.16114,2.87334 -6.33984,4.31054 -0.23864,0.15753 -0.4824,0.31509 -0.72266,0.47266 -4.53396,2.97067 -9.33953,5.9413 -14.42969,8.89844 -0.002,0.0151 -0.004,0.0299 -0.006,0.0449 -0.14866,0.0865 -0.31767,0.17134 -0.4668,0.25781 a 184.19999,184.19999 0 0 1 -18.2207,60.91797 c 0.0514,-0.0239 0.10882,-0.0464 0.16016,-0.0703 -0.0922,0.18115 -0.17479,0.36801 -0.26758,0.54883 45.70001,-21.20002 80.80038,-44.40078 101.40039,-67.30079 18.39999,-20.70002 26.09925,-41.6996 22.69922,-62.59961 -0.53662,-3.36601 -1.39268,-6.56174 -2.54687,-9.58007 -0.14703,-0.39231 -0.31524,-0.7718 -0.47266,-1.15821 -0.34454,-0.83079 -0.71222,-1.64735 -1.10352,-2.44922 -0.47879,-0.99556 -1.00175,-1.96271 -1.55273,-2.91406 -0.11766,-0.20084 -0.23663,-0.40084 -0.35742,-0.59961 -3.73712,-6.21692 -8.97285,-11.48214 -15.66602,-15.49805 -20.70691,-12.51143 -54.28022,-11.98198 -100.85547,-2.33007 z"
       style="display:inline;stroke-width:0.264583"
       id="path3" />
    <path
       d="m 134.68974,470.25196 a 184.19999,184.19999 0 0 1 -12.35742,-45.09375 c -30.123264,7.73089 -47.841766,9.97118 -57.232425,9.14258 -5.070796,-0.44742 -7.242285,-4.06479 -7.193359,-7.45118 0.03078,-1.11968 0.299139,-2.21212 0.792968,-3.15039 0.201922,-0.40388 0.458156,-0.83339 0.69336,-1.2539 0.339613,-0.6141 0.73135,-1.25441 1.142578,-1.9043 0.283982,-0.44481 0.547981,-0.88035 0.865234,-1.3418 0.358946,-0.51643 0.764635,-1.03991 1.154297,-1.56054 0.626899,-0.84499 1.31171,-1.69612 2.017578,-2.55078 1.075102,-1.29128 2.211186,-2.58892 3.464844,-3.90235 0.08929,-0.0942 0.187149,-0.1889 0.277344,-0.2832 11.400983,-11.83865 29.933748,-24.52122 54.085941,-37.20313 0.005,-0.0341 0.0125,-0.0675 0.0176,-0.10156 0.0357,-0.0188 0.0756,-0.0379 0.11132,-0.0566 a 184.19999,184.19999 0 0 1 20.52735,-60.77539 c -2.61464,1.12076 -5.23705,2.21359 -7.83985,3.36719 -1.6799,0.74448 -3.35105,1.49959 -5.02343,2.25781 -3.80382,1.72453 -7.5677,3.48122 -11.31641,5.27539 -1.95759,0.93706 -3.90788,1.87819 -5.8457,2.83398 -2.72173,1.34217 -5.41478,2.69571 -8.08985,4.07422 -2.87448,1.48158 -5.719401,2.98299 -8.529294,4.50586 -2.083053,1.12875 -4.137503,2.26494 -6.179688,3.41602 -3.245824,1.82968 -6.452137,3.67942 -9.580078,5.56445 -1.774337,1.06932 -3.488973,2.15923 -5.220703,3.24609 -2.402261,1.50744 -4.755512,3.03173 -7.06836,4.57227 -2.026688,1.35042 -4.013398,2.7104 -5.964844,4.08594 -2.519501,1.77492 -4.968464,3.56902 -7.351562,5.38476 -1.249905,0.95317 -2.515059,1.89897 -3.72461,2.86328 -2.956101,2.35418 -5.758109,4.7492 -8.455078,7.16797 -1.443927,1.29709 -2.886656,2.59278 -4.25,3.90821 -0.229302,0.2208 -0.460535,0.4408 -0.6875,0.66211 -1.091475,1.06645 -2.155576,2.13853 -3.191406,3.21679 -0.768963,0.79859 -1.528214,1.59937 -2.265625,2.4043 -0.591582,0.64742 -1.175459,1.29574 -1.746094,1.94727 -1.069052,1.21719 -2.105968,2.44261 -3.09961,3.67382 -0.32602,0.40528 -0.639402,0.81196 -0.957031,1.21875 -1.139185,1.4541 -2.240715,2.91561 -3.269531,4.38868 -11.125,15.99998 -14.0859381,30.59571 -13.326172,42.66015 0.0044,0.0701 0.01493,0.13516 0.01953,0.20508 0.15069,2.25812 0.429061,4.42588 0.810547,6.49805 0.0448,0.24484 0.09697,0.47851 0.144531,0.7207 0.357842,1.81176 0.791634,3.54511 1.28125,5.19922 0.159254,0.54157 0.325648,1.05559 0.496094,1.58008 0.380529,1.163 0.786291,2.27821 1.210937,3.35156 0.162032,0.41322 0.295952,0.88506 0.462891,1.28516 0.149989,0.36514 0.360077,0.65933 0.517578,1.01562 0.579713,1.29373 1.20837,2.52831 1.884766,3.70703 0.595587,1.0498 1.237229,2.04375 1.90625,3.00586 0.437409,0.62276 0.888193,1.22964 1.355469,1.81641 1.059735,1.34321 2.197202,2.5917 3.40625,3.75391 0.129026,0.12298 0.258025,0.24616 0.388672,0.36718 20.79896,19.42477 62.240124,13.62562 101.640631,4.53321 2.29541,-0.53201 4.74302,-1.17718 7.09375,-1.75 0.50723,-0.12205 0.99809,-0.22704 1.50586,-0.34961 -0.003,-0.007 -0.005,-0.0131 -0.008,-0.0195 0.16182,-0.0398 0.33599,-0.0889 0.49805,-0.12891 z"
       style="display:inline;stroke-width:0.264583"
       id="path2" />
    <path
       d="m 396.1917,240.85352 a 184.19999,184.19999 0 0 1 48.30078,40.01953 c 3.47261,-0.40416 7.04844,-0.87638 10.42773,-1.2207 22.91906,-2.35255 43.56659,-3.26133 60.87891,-2.65235 12.89998,0.5 23.60157,-9.50078 24.10156,-22.30078 0.001,-0.031 -0.003,-0.0609 -0.002,-0.0918 1.1e-4,-0.003 0.002,-0.005 0.002,-0.008 3e-4,-0.008 -0.002,-0.0154 -0.002,-0.0234 0.0508,-1.51455 -0.0454,-2.99743 -0.27149,-4.4375 -0.0311,-0.20292 -0.077,-0.39837 -0.11328,-0.5996 -0.21872,-1.18723 -0.52794,-2.34031 -0.91992,-3.45704 -0.15005,-0.43298 -0.31952,-0.85029 -0.49414,-1.27148 -0.35475,-0.84643 -0.7581,-1.66506 -1.20703,-2.45703 -0.35191,-0.6269 -0.73349,-1.22291 -1.14063,-1.8125 -0.3643,-0.52308 -0.74898,-1.02909 -1.15429,-1.51953 -0.62344,-0.76061 -1.29081,-1.46671 -2.00586,-2.14258 -0.28736,-0.2697 -0.5799,-0.53216 -0.88086,-0.78711 -0.88879,-0.75825 -1.83005,-1.43743 -2.83008,-2.05664 -0.21963,-0.1352 -0.43956,-0.26845 -0.66406,-0.39649 -1.10563,-0.63434 -2.2616,-1.16859 -3.47656,-1.61718 -0.1911,-0.0702 -0.38266,-0.13779 -0.57618,-0.20313 -1.22993,-0.41739 -2.49773,-0.72476 -3.8164,-0.93359 -0.25852,-0.0407 -0.51791,-0.0772 -0.7793,-0.10938 -0.66047,-0.082 -1.29063,-0.2491 -1.96875,-0.27539 -4.05626,-0.15625 -8.27625,-0.23281 -12.64648,-0.23242 -23.02878,0.002 -50.36793,2.24434 -80.0625,6.25586 -8.81027,1.1824 -17.82981,2.52381 -27.0254,4.02539 -0.54628,0.0897 -1.12635,0.21389 -1.67382,0.30469 z"
       style="display:inline;stroke-width:0.264583"
       id="path1" />
    <path
       class="st19"
       d="m 79.285627,55.932916 c 8.837083,0 17.118541,2.354792 24.262293,6.455833 10.82146,-1.799166 20.74333,-2.778125 28.76021,-2.778125 1.16416,0 2.27541,0.02646 3.33375,0.05292 3.41312,0.132292 6.0325,2.989792 5.9002,6.376458 -0.13229,3.33375 -2.8575,5.926667 -6.13833,5.926667 -0.0794,0 -0.15875,0 -0.23812,0 -0.9525,-0.02646 -1.95792,-0.05292 -2.9898,-0.05292 -4.6302,0 -10.00125,0.370417 -15.875,1.058333 2.69875,3.148542 5.00063,6.641042 6.82625,10.398125 5.90021,-1.217083 11.00667,-1.878541 15.31938,-1.878541 4.70958,0 8.49312,0.79375 11.35062,2.54 3.175,1.905 5.15938,4.841875 5.715,8.466666 0.89959,5.503333 -1.1377,11.086038 -6.0325,16.536458 -5.42395,6.08542 -14.73729,12.19729 -26.82875,17.80646 -8.06979,15.74271 -24.473954,26.53771 -43.391662,26.53771 -9.154583,0 -17.727083,-2.54 -25.056041,-6.93209 -9.657292,1.37584 -18.917708,2.09021 -27.410833,2.09021 -2.354792,0 -4.656667,-0.0529 -6.879167,-0.15875 -3.386666,-0.15875 -6.058958,-2.98979 -5.926666,-6.37646 0.132292,-3.30729 2.8575,-5.92666 6.138333,-5.92666 0.105833,0 0.211667,0 0.343958,0 1.984375,0.10583 4.048125,0.15875 6.164792,0.15875 4.709583,0 9.710208,-0.23813 14.948958,-0.71438 -3.042708,-3.70416 -5.55625,-7.88458 -7.381875,-12.3825 -0.767291,0.18521 -1.508125,0.37042 -2.248958,0.52917 -5.344583,1.24354 -10.847917,2.24896 -15.663333,2.24896 -6.3500001,0 -11.5622917,-1.74625 -13.731875,-7.03792 C 1.0218777,115.19958 0.20166938,109.40521 4.9112527,102.60542 10.732086,94.271041 23.379169,87.074374 36.449586,81.465207 44.651669,66.278124 60.764794,55.932916 79.285627,55.932916 m 48.365833,54.583544 c 5.55625,-3.22792 9.89542,-6.50875 12.72646,-9.65729 0.89958,-1.005421 2.2225,-2.645838 2.80458,-4.312713 0.39688,-1.137708 -0.3175,-2.354791 -1.50812,-2.566458 -0.71438,-0.132292 -1.69334,-0.211667 -3.01625,-0.211667 -2.48709,0 -6.1648,0.3175 -11.58875,1.375834 0.60854,3.069166 0.92604,6.244164 0.92604,9.498544 0,2.01083 -0.10584,3.96875 -0.34396,5.87375 M 17.055628,113.665 c 2.672291,0 7.011458,-0.635 13.943541,-2.40771 -0.291042,-2.14312 -0.449792,-4.33917 -0.449792,-6.58812 0,-2.40771 0.185209,-4.788963 0.502709,-7.090838 -7.911042,4.153958 -13.546667,8.281458 -16.139583,12.038538 -0.291042,0.42334 -0.529167,0.82021 -0.714375,1.19063 -0.529167,1.00542 -0.105834,2.67229 1.693333,2.83104 0.370417,0 0.740833,0.0265 1.164167,0.0265 M 79.285627,53.313541 c -18.57375,0 -35.612916,9.974792 -44.741041,26.114375 -15.927917,6.932083 -26.6170834,14.234583 -31.829375,21.695834 -2.38124995,3.43958 -3.7306249,7.01146 -3.9687499,10.60979 -0.1852084,2.77813 0.2645833,5.52979 1.34937495,8.14917 2.38124995,5.74146 7.83166655,8.67833 16.16604195,8.67833 4.312708,0 9.313333,-0.71437 16.245416,-2.30187 0.05292,0 0.07937,-0.0265 0.132292,-0.0265 1.137708,2.46062 2.460625,4.78896 3.96875,7.03791 -3.466042,0.23813 -6.82625,0.34396 -9.974792,0.34396 -2.090208,0 -4.101042,-0.0529 -6.0325,-0.15875 -0.15875,0 -0.3175,0 -0.47625,0 -4.736041,0 -8.5725,3.70417 -8.757708,8.46667 -0.185208,4.81541 3.598333,8.89 8.440208,9.12812 2.275417,0.10584 4.630208,0.15875 7.011458,0.15875 8.281459,0 17.330208,-0.66146 26.855208,-1.98437 7.752292,4.47146 16.589375,6.82625 25.585208,6.82625 9.630834,0 19.023542,-2.67229 27.146252,-7.75229 7.64646,-4.7625 13.91708,-11.45646 18.15041,-19.39396 12.11792,-5.715 21.37834,-11.93271 26.85521,-18.07104 5.47688,-6.08542 7.72584,-12.382503 6.69396,-18.732503 -0.71437,-4.418541 -3.12208,-7.990416 -6.985,-10.31875 -3.22792,-1.957916 -7.38187,-2.910416 -12.72646,-2.910416 -3.88937,0 -8.46666,0.502708 -13.89062,1.561041 -0.97896,-1.825625 -2.06375,-3.598333 -3.28084,-5.291666 3.96875,-0.370417 7.62,-0.529167 10.87438,-0.529167 1.00542,0 1.98437,0.02646 2.88396,0.05292 0.10583,0 0.23812,0 0.34396,0 4.73604,0 8.59895,-3.704167 8.78416,-8.466667 0.18521,-4.841875 -3.59833,-8.942916 -8.44021,-9.128125 -1.08479,-0.05292 -2.24895,-0.05292 -3.43958,-0.05292 -7.77875,0 -17.54187,0.926041 -28.28396,2.645833 -7.461247,-4.180417 -16.007288,-6.35 -24.659163,-6.35 z M 130.11208,97.28729 c 3.38667,-0.582083 6.27063,-0.873124 8.54605,-0.873124 0.60854,0 1.16416,0.02646 1.66687,0.05292 -0.42333,0.767292 -1.08479,1.666875 -1.905,2.619375 -1.85208,2.090209 -4.47146,4.233329 -7.77875,6.455829 0,-0.29104 0,-0.60854 0,-0.89958 0,-2.43417 -0.15875,-4.894791 -0.52917,-7.355416 z M 17.161461,111.01917 c 1.375833,-1.93146 4.339166,-4.8948 10.821458,-8.7048 -0.02646,0.79375 -0.05292,1.56105 -0.05292,2.3548 0,1.50812 0.07937,3.0427 0.211667,4.57729 -5.953125,1.42875 -9.233958,1.77271 -10.980208,1.77271 z"
       id="path88"
       style="display:inline;fill:#ffffff;stroke-width:0.264583"
       inkscape:label="LogoOutlineBig"
       transform="matrix(3.7795276,0,0,3.7795276,4.937785,4.9999998)" />
  </g>
</svg>
