<?xml version="1.0" encoding="UTF-8" standalone="no"?>
<!-- Created with Inkscape (http://www.inkscape.org/) -->

<svg
   version="1.1"
   id="svg2"
   xml:space="preserve"
   width="3839.1074"
   height="1022.8977"
   viewBox="0 0 3839.1074 1022.8977"
   sodipodi:docname="2eea16212c7fee0d43aa562c92a450e2.eps"
   xmlns:inkscape="http://www.inkscape.org/namespaces/inkscape"
   xmlns:sodipodi="http://sodipodi.sourceforge.net/DTD/sodipodi-0.dtd"
   xmlns="http://www.w3.org/2000/svg"
   xmlns:svg="http://www.w3.org/2000/svg"><defs
     id="defs6" /><sodipodi:namedview
     id="namedview4"
     pagecolor="#ffffff"
     bordercolor="#666666"
     borderopacity="1.0"
     inkscape:pageshadow="2"
     inkscape:pageopacity="0.0"
     inkscape:pagecheckerboard="0" /><g
     id="g8"
     inkscape:groupmode="layer"
     inkscape:label="ink_ext_XXXXXX"
     transform="matrix(1.3333333,0,0,-1.3333333,0.00102816,1023.9962)"><g
       id="g10"
       transform="scale(0.1)"><path
         d="m 8857.62,1254.76 h 1228.52 v 560.98 H 8857.62 Z"
         style="fill:#ff0000;fill-opacity:1;fill-rule:nonzero;stroke:none"
         id="path12" /><path
         d="m 13399.6,2053.52 1047.8,1047.73 h -4017.8 v -561.02 h 2664 L 12045.9,1492.5 h 1840.5 V 569.262 h -3498 V 8.23828 h 3580.5 c 264,0 478.5,213.74972 478.5,478.52372 -57.8,417.726 238.5,1577.218 -478.5,1565.968 0,0.79 -569.3,0.79 -569.3,0.79 z"
         style="fill:#ff0000;fill-opacity:1;fill-rule:nonzero;stroke:none"
         id="path14" /><path
         d="m 8515.62,2539.49 v 561.02 C 4047.85,2894.26 4432.62,4107.73 4456.6,486.762 4456.6,222.73 4670.35,8.23828 4935.12,8.23828 h 3580.5 V 569.262 H 5151.88 V 2539.49 Z"
         style="fill:#ff0000;fill-opacity:1;fill-rule:nonzero;stroke:none"
         id="path16" /><g
         id="g18"
         transform="scale(1.17659)"><path
           d="M 12543.6,2228.47 V 413.707 c 0,-224.405 181.7,-406.70515 406.7,-406.70515 h 2943 c 224.4,0 406.7,181.66915 406.7,406.70515 V 2228.47 c 0,224.4 -181.7,406.7 -406.7,406.7 h -2943 c -224.4,-0.63 -406.7,-182.3 -406.7,-406.7 z M 13134.5,483.825 V 2158.35 h 2574.6 V 483.825 Z"
           style="fill:#ff0000;fill-opacity:1;fill-rule:nonzero;stroke:none"
           id="path20" /></g><g
         id="g22"
         transform="scale(1.47153)"><path
           d="M 13296.5,1781.82 V 330.787 c 0,-179.427 145.3,-325.18854 325.2,-325.18854 h 2353.1 c 179.4,0 325.2,145.25754 325.2,325.18854 V 1781.82 c 0,179.42 -145.3,325.19 -325.2,325.19 h -2353.1 c -179.9,-0.51 -325.2,-145.77 -325.2,-325.19 z M 13769,386.852 V 1725.75 h 2058.5 V 386.852 Z"
           style="fill:#ff0000;fill-opacity:1;fill-rule:nonzero;stroke:none"
           id="path24" /></g><g
         id="g26"
         transform="scale(1.76646)"><path
           d="M 13798,1484.32 V 275.557 c 0,-149.469 121,-270.89329 270.8,-270.89329 h 1960.3 c 149.5,0 270.9,121.00429 270.9,270.89329 V 1484.32 c 0,149.46 -121,270.89 -270.9,270.89 H 14068.8 C 13919,1754.79 13798,1633.78 13798,1484.32 Z M 14191.1,322.261 V 1437.61 H 15906 V 322.261 Z"
           style="fill:#ff0000;fill-opacity:1;fill-rule:nonzero;stroke:none"
           id="path28" /></g><path
         d="M 3590.35,1815.74 H 704.379 v 724.49 H 4068.12 v 561.02 H 487.621 C 223.629,3101.25 9.10156,2886.76 9.10156,2622.73 46.6016,2214.77 -183.629,1249.49 487.621,1254.77 H 3372.85 V 569.262 H 9.87891 V 8.23828 H 3590.35 c 264.03,0 478.52,214.49172 478.52,478.52372 -33.01,405 182.26,1333.468 -478.52,1328.978 z"
         style="fill:#ff0000;fill-opacity:1;fill-rule:nonzero;stroke:none"
         id="path30" /><g
         id="g32"
         transform="scale(1.22218)"><path
           d="m 15478.3,5741.35 c -99.4,316.04 -397.6,542.48 -741.9,542.48 -344.2,0 -642.5,-226.44 -741.9,-542.48 l -262,-778.09 v 1275.16 h -1374.6 c -244.2,0 -470.7,-99.4 -642.5,-262.02 v 262.02 h -1410.8 c -262,0 -497.68,-108.61 -669.51,-289.63 v 289.63 H 8296.72 c -570.09,0 -1040.15,-470.66 -1040.15,-1040.15 0,-271.22 108.61,-524.68 280.43,-705.7 H 7256.57 V 3280.59 h 1338.38 c 379.86,0 705.7,198.84 895.33,506.88 154.02,-298.23 461.45,-506.88 822.92,-506.88 h 1419.4 v 262.06 c 162.6,-162.62 389,-262.06 642.5,-262.06 H 16300 Z"
           style="fill:#ffffff;fill-opacity:1;fill-rule:nonzero;stroke:none"
           id="path34" /></g><path
         d="M 10505.4,5226.02 H 9123.12 v -431.25 h 1382.28 c 265.5,0 486.7,221.25 486.7,486.71 0,265.51 -221.2,486.76 -486.7,486.76 h -354 c -320.27,0 -585.78,265.51 -585.78,585.74 0,320.28 265.51,585.79 585.78,585.79 h 1371 v 430.46 h -1382.3 c -563.97,0 -1016.98,-452.96 -1016.98,-1016.99 0,-563.98 453.01,-1016.99 1016.98,-1016.99 h 354 c 33,0 55.5,-21.76 55.5,-55.51 0,-32.22 -22.5,-54.72 -44.2,-54.72 z"
         style="fill:#034693;fill-opacity:1;fill-rule:nonzero;stroke:none"
         id="path36" /><path
         d="m 10140.9,6397.5 h 1382.2 V 6840 h -1382.2 c -265.55,0 -486.8,-221.25 -486.8,-486.76 0,-265.51 221.25,-486.76 486.8,-486.76 h 354 c 321,0 585.7,-265.46 585.7,-585.74 0,-320.23 -265.5,-585.74 -586.5,-585.74 H 9123.12 v -431.25 h 1382.28 c 564,0 1017,453.01 1017,1016.99 0,564.03 -453,1016.99 -1017,1016.99 h -354 c -33,0 -55.5,21.76 -55.5,55.51 0.7,22.5 22.5,44.26 45,44.26 z"
         style="fill:#034693;fill-opacity:1;fill-rule:nonzero;stroke:none"
         id="path38" /><g
         id="g40"
         transform="scale(1.01472)"><path
           d="m 14884.6,6740.8 c -185.6,0 -326.7,-141.89 -326.7,-326.68 V 5051.9 c 0,-185.51 141.9,-326.67 326.7,-326.67 h 881.7 v 959.35 h -675.5 v -424.99 h 250.5 v -98.28 h -250.5 c -54.7,0 -98.3,43.57 -98.3,98.28 v 957.89 c 0,54.71 43.6,98.32 98.3,98.32 H 16300 v 425 z"
           style="fill:#034693;fill-opacity:1;fill-rule:nonzero;stroke:none"
           id="path42" /></g><g
         id="g44"
         transform="scale(1.15515)"><path
           d="m 15429.3,4150.79 h 870.7 l -593.4,1760.16 c -18.9,48.06 -57.2,86.33 -115,86.33 -48,0 -95.4,-38.27 -114.9,-76.59 l -765.5,-2229.6 h 440.2 l 268.2,794.72 v -335.02 z m 153.3,804.41 124.6,-383.07 h -258.4 z"
           style="fill:#034693;fill-opacity:1;fill-rule:nonzero;stroke:none"
           id="path46" /></g><g
         id="g48"
         transform="scale(1.20061)"><path
           d="m 15554.1,5761.48 c -73.7,239.23 -294.9,423.51 -561.6,423.51 -266.7,0 -487.8,-174.91 -552.2,-414.14 l -672.2,-1970.26 v 1444.87 h -1013.2 v -359.2 h 662.8 v -975.74 h -829 c -202.3,0 -359.2,165.55 -359.2,359.2 v 1150.65 c 0,202.41 165.6,359.19 359.2,359.19 h 1188.2 v 359.2 H 12580 c -396.1,0 -718.4,-322.33 -718.4,-718.39 V 4269.1 c 0,-396.06 322.3,-718.38 718.4,-718.38 h 1482.4 l 745.8,2163.25 c 27.5,83.1 101.2,138.09 193.7,138.09 91.8,0 165.5,-54.99 193.6,-138.09 l 607.9,-1804.06 h -957.7 V 3550.72 H 16300 Z"
           style="fill:#034693;fill-opacity:1;fill-rule:nonzero;stroke:none"
           id="path50" /></g><path
         d="m 12594.9,4695.74 c -243,0 -431.3,198.75 -431.3,431.25 v 1381.53 c 0,242.96 198.8,431.25 431.3,431.25 h 1481.2 v 430.46 h -1481.2 c -475.5,0 -862.5,-386.99 -862.5,-862.5 V 5125.51 c 0,-475.51 387,-862.5 862.5,-862.5 h 1481.2 V 4695 Z"
         style="fill:#034693;fill-opacity:1;fill-rule:nonzero;stroke:none"
         id="path52" /><path
         d="m 12694.6,5325.74 h 1072.5 v 431.25 h -1503.7 v -641.25 c 0,-188.24 144,-331.48 331.5,-331.48 h 1481.2 v 431.25 h -1282.5 c -54.7,10.51 -99,54.72 -99,110.23 z"
         style="fill:#034693;fill-opacity:1;fill-rule:nonzero;stroke:none"
         id="path54" /><path
         d="m 13766.4,6297.73 h -1072.5 c 0,55.51 44.2,99.77 99.7,99.77 h 1271.3 V 6840 h -1470.8 c -188.2,0 -331.5,-143.98 -331.5,-331.48 v -641.25 h 1503.8 z"
         style="fill:#034693;fill-opacity:1;fill-rule:nonzero;stroke:none"
         id="path56" /></g></g></svg>
