<?xml version="1.0" encoding="UTF-8" standalone="no"?>
<svg
   xmlns:dc="http://purl.org/dc/elements/1.1/"
   xmlns:cc="http://creativecommons.org/ns#"
   xmlns:rdf="http://www.w3.org/1999/02/22-rdf-syntax-ns#"
   xmlns:svg="http://www.w3.org/2000/svg"
   xmlns="http://www.w3.org/2000/svg"
   xmlns:sodipodi="http://sodipodi.sourceforge.net/DTD/sodipodi-0.dtd"
   xmlns:inkscape="http://www.inkscape.org/namespaces/inkscape"
   version="1.0"
   width="522.69891"
   height="129.27071"
   viewBox="0 0 5226.9891 1292.7071"
   preserveAspectRatio="xMidYMid meet"
   id="svg11"
   sodipodi:docname="sdlpop.svg"
   inkscape:version="1.0.1 (3bc2e813f5, 2020-09-07)">
  <metadata
     id="metadata17">
    <rdf:RDF>
      <cc:Work
         rdf:about="">
        <dc:format>image/svg+xml</dc:format>
        <dc:type
           rdf:resource="http://purl.org/dc/dcmitype/StillImage" />
      </cc:Work>
    </rdf:RDF>
  </metadata>
  <defs
     id="defs15" />
  <sodipodi:namedview
     pagecolor="#ffffff"
     bordercolor="#666666"
     borderopacity="1"
     objecttolerance="10"
     gridtolerance="10"
     guidetolerance="10"
     inkscape:pageopacity="0"
     inkscape:pageshadow="2"
     inkscape:window-width="2192"
     inkscape:window-height="979"
     id="namedview13"
     showgrid="false"
     inkscape:zoom="2.3036053"
     inkscape:cx="260.9"
     inkscape:cy="64.870711"
     inkscape:window-x="0"
     inkscape:window-y="30"
     inkscape:window-maximized="0"
     inkscape:current-layer="svg11"
     inkscape:document-rotation="0" />
  <g
     id="layer101"
     fill="#ffcc00"
     fill-rule="evenodd"
     style="stroke:#000000;stroke-width:8;stroke-miterlimit:4;stroke-dasharray:none"
     transform="translate(-26,-51.29289)">
    <path
       d="m 30,1320 c 0,-14 6,-20 20,-20 30,0 76,-50 89,-96 12,-46 15,-962 2,-982 -4,-6 -25,-16 -47,-20 -22,-5 -39,-14 -39,-21 0,-7 30,-23 67,-35 42,-14 81,-36 102,-56 44,-42 66,-36 65,19 v 39 l 52,-34 c 28,-19 59,-35 69,-35 27,1 97,66 122,115 11,22 29,65 39,96 l 17,55 1,-83 c 0,-71 -2,-84 -21,-101 -26,-25 -19,-37 25,-46 19,-3 51,-17 72,-31 20,-14 43,-23 50,-21 8,3 15,25 16,51 l 4,45 45,-29 c 24,-17 50,-30 57,-30 28,-1 94,75 130,147 79,160 41,327 -89,393 -21,11 -38,22 -38,25 0,3 26,58 59,123 58,116 71,132 111,132 19,0 20,-12 20,-370 0,-363 -1,-370 -22,-389 -26,-25 -19,-37 25,-46 19,-3 51,-17 72,-31 20,-14 43,-23 51,-20 11,4 14,75 14,404 0,220 2,407 6,416 8,21 31,20 43,-4 7,-12 10,-144 11,-359 0,-334 -1,-341 -22,-360 -26,-25 -19,-37 25,-46 19,-3 51,-17 72,-31 20,-14 43,-23 50,-21 8,3 15,25 16,51 l 4,46 68,-41 69,-42 39,18 c 82,37 137,124 139,220 l 1,40 13,-47 c 7,-26 23,-63 35,-83 26,-41 117,-125 165,-151 l 33,-18 79,56 c 43,30 77,61 76,68 -2,6 18,-7 45,-30 26,-24 71,-54 100,-69 47,-23 53,-24 70,-10 9,9 40,28 68,41 27,14 60,34 73,44 l 22,19 -39,38 -40,39 -30,-24 c -44,-38 -89,-53 -120,-43 -30,11 -76,94 -87,157 l -7,37 h 71 c 78,1 167,-27 197,-60 20,-22 45,-26 45,-7 -1,7 -40,52 -88,100 -68,67 -91,85 -102,77 -9,-5 -39,-9 -67,-9 l -51,-1 9,43 c 5,23 21,67 36,97 22,44 35,58 65,69 48,18 88,9 88,-22 0,-12 -6,-28 -12,-34 -23,-23 6,-34 77,-30 l 70,3 v 44 c 0,40 -4,47 -35,68 -36,24 -165,68 -231,79 -33,5 -47,2 -72,-17 -24,-18 -34,-20 -47,-11 -98,73 -227,68 -309,-12 -45,-43 -68,-83 -86,-147 l -14,-54 -1,110 c -1,120 5,135 51,135 22,0 29,4 29,20 0,14 -7,20 -24,20 -14,0 -68,9 -121,20 -54,11 -111,20 -127,20 -22,0 -28,-5 -28,-20 0,-15 6,-20 24,-20 54,0 56,-10 55,-284 0,-288 -5,-320 -55,-344 -46,-22 -84,-9 -107,38 -15,30 -17,68 -17,310 -1,286 1,299 42,300 10,0 17,7 17,17 0,14 -29,25 -162,56 -89,22 -211,54 -271,73 -134,42 -146,42 -147,6 0,-15 -27,-79 -59,-142 l -59,-115 -1,130 c -1,141 4,155 51,155 22,0 29,4 29,20 0,13 -7,20 -21,20 -11,0 -76,18 -143,40 -139,45 -156,47 -156,22 0,-12 11,-22 32,-28 22,-6 38,-21 50,-44 15,-31 17,-68 17,-305 -1,-233 -3,-265 -13,-230 -34,105 -109,193 -193,224 -30,11 -63,21 -74,21 -19,0 -19,7 -19,179 0,206 -3,201 89,201 43,0 51,2 51,18 0,14 -10,20 -36,25 -20,3 -99,35 -175,71 -148,70 -189,80 -189,46 M 1909,713 c -79,-68 -122,-264 -86,-398 37,-141 90,-167 176,-89 22,19 44,33 48,30 5,-3 0,20 -11,51 -28,81 -27,217 1,294 l 21,57 -41,3 c -44,4 -63,26 -29,35 25,7 28,29 7,37 -30,12 -56,6 -86,-20 M 295,684 c -3,-9 -5,-105 -5,-213 0,-178 1,-200 19,-229 23,-37 59,-50 91,-32 84,45 94,334 13,429 -44,52 -108,77 -118,45 M 730,440 c 0,-166 7,-205 41,-216 56,-18 99,59 98,177 0,98 -23,150 -79,178 -22,11 -45,21 -50,21 -7,0 -10,-60 -10,-160"
       id="path2"
       style="stroke:#000000;stroke-width:8;stroke-miterlimit:4;stroke-dasharray:none" />
    <path
       d="m 5072,1275 c -75,-36 -139,-69 -141,-75 -2,-6 8,-15 22,-20 25,-9 42,-28 34,-36 -2,-3 -26,5 -51,16 -68,30 -95,24 -112,-24 -7,-22 -29,-55 -48,-75 -20,-20 -42,-52 -51,-71 l -15,-35 v 35 c 0,19 4,52 10,73 9,32 19,42 55,58 45,19 54,32 34,44 -6,4 -72,-12 -148,-36 -75,-23 -148,-45 -161,-49 -36,-10 -31,-33 8,-42 18,-3 39,-12 45,-18 8,-8 12,-126 14,-413 2,-222 1,-412 -2,-424 -3,-12 -14,-23 -25,-26 -25,-7 -27,-26 -3,-34 10,-3 48,-19 84,-36 37,-16 72,-27 78,-23 7,5 11,121 11,374 0,365 0,366 18,314 30,-86 94,-162 217,-259 l 40,-31 v -96 c 0,-95 -1,-95 -35,-131 -19,-19 -36,-33 -39,-30 -3,2 6,27 19,55 l 23,50 -65,67 c -36,37 -73,80 -83,96 -27,45 -41,20 -27,-50 16,-81 14,-117 -8,-146 l -20,-25 77,-65 c 43,-36 91,-80 107,-97 16,-17 36,-31 45,-31 9,0 45,30 81,66 l 65,65 5,514 c 4,500 5,515 25,542 12,16 37,37 58,47 39,20 49,47 17,47 -11,0 -82,-30 -158,-65 m -122,-235 c -16,-11 -40,-39 -53,-63 -19,-37 -22,-57 -22,-152 0,-98 2,-116 25,-160 15,-31 37,-57 57,-69 l 33,-18 v 241 c 0,132 -3,241 -5,241 -3,0 -19,-9 -35,-20"
       id="path4"
       style="stroke:#000000;stroke-width:8;stroke-miterlimit:4;stroke-dasharray:none" />
    <path
       d="m 4222,1004 c -21,-9 -98,-32 -172,-53 -129,-35 -166,-57 -122,-68 12,-3 22,-11 22,-17 0,-26 -64,-198 -81,-219 -19,-22 -19,-21 -19,98 0,120 0,121 25,133 27,12 32,29 11,37 -8,3 -41,1 -73,-5 -32,-5 -74,-13 -93,-16 -82,-13 -105,-21 -105,-35 0,-8 11,-16 25,-17 72,-8 70,-5 69,-100 -1,-83 -2,-86 -15,-56 -11,26 -20,32 -58,37 -57,8 -151,49 -199,88 -21,16 -42,27 -48,23 -14,-8 -67,-115 -96,-192 -19,-50 -24,-83 -24,-160 v -97 l -18,40 c -23,50 -129,149 -176,164 -30,10 -40,10 -61,-4 l -24,-16 v 79 c 0,93 5,112 31,112 11,0 19,7 19,18 0,14 -10,20 -35,24 -18,3 -65,20 -104,37 -39,17 -84,34 -101,37 -26,5 -30,3 -30,-15 0,-14 6,-21 18,-21 10,0 27,-10 37,-22 18,-19 20,-42 22,-316 3,-283 2,-298 -17,-323 -23,-32 -21,-34 39,-60 25,-11 55,-30 67,-41 26,-24 54,-18 54,11 0,26 0,26 60,-4 27,-14 51,-25 55,-25 3,0 28,21 56,47 50,46 98,128 98,167 1,31 15,7 26,-43 10,-46 10,-46 110,-99 117,-61 147,-64 221,-23 49,28 54,29 80,15 16,-8 33,-14 40,-14 6,0 28,-12 48,-26 39,-27 66,-26 66,0 0,14 6,13 40,-5 51,-26 69,-20 132,39 95,89 127,196 88,289 -21,49 -98,133 -131,144 -11,4 -9,11 11,35 26,30 39,59 88,185 31,79 79,174 64,129 -9,-31 -8,-103 2,-152 7,-34 6,-36 -25,-47 l -33,-12 26,-27 c 14,-15 37,-51 51,-79 14,-29 30,-55 35,-58 15,-9 70,43 92,85 25,49 25,96 -1,161 -35,89 -14,144 47,123 35,-12 52,-57 53,-134 0,-66 -26,-130 -73,-180 -143,-152 -213,-310 -173,-387 20,-40 77,-89 133,-116 36,-18 47,-20 61,-10 10,7 58,33 107,58 49,24 90,46 92,47 2,2 -21,28 -51,57 l -54,54 -12,-25 c -13,-30 -120,-85 -140,-73 -16,10 -5,84 20,132 11,21 58,80 106,133 101,112 137,179 143,264 8,136 -37,202 -178,259 -50,20 -95,39 -100,42 -6,2 -27,-3 -48,-11 M 3475,665 c -29,-18 -65,-110 -65,-166 0,-36 2,-39 27,-39 35,0 49,9 54,35 6,29 31,24 40,-9 4,-16 33,-55 64,-87 44,-47 55,-65 53,-86 -5,-38 -27,-41 -39,-5 -14,38 -50,51 -136,52 h -63 v -30 c 0,-40 38,-141 56,-147 18,-7 89,24 126,55 l 27,23 11,-28 c 13,-35 48,-74 66,-74 11,1 14,43 14,210 v 210 l -97,3 c -103,3 -133,18 -74,39 19,6 31,17 31,28 0,32 -54,41 -95,16 M 3000,488 c -6,-7 -10,-67 -10,-133 0,-130 14,-176 59,-190 27,-9 46,7 73,59 28,53 30,165 5,213 -27,50 -103,80 -127,51 m 855,-4 c -3,-9 -5,-72 -5,-140 0,-111 2,-127 20,-144 22,-23 33,-25 59,-11 64,34 49,265 -19,300 -29,15 -50,13 -55,-5"
       id="path6"
       style="stroke:#000000;stroke-width:8;stroke-miterlimit:4;stroke-dasharray:none" />
    <path
       d="m 2308,856 c -69,-22 -96,-42 -67,-50 85,-23 172,-53 210,-73 32,-15 50,-20 54,-13 4,6 2,16 -4,22 -35,35 11,49 73,23 42,-17 55,-57 55,-167 l 1,-76 -39,39 c -47,46 -90,51 -142,16 -66,-45 -76,-102 -25,-153 27,-27 81,-33 119,-13 l 22,11 -23,-24 c -28,-31 -21,-38 38,-38 l 47,-1 7,-44 c 16,-106 135,-172 181,-101 22,33 12,46 -25,33 -42,-16 -60,3 -60,64 0,45 1,49 24,49 18,-1 30,8 41,30 18,36 12,54 -15,40 -47,-25 -50,-18 -50,108 0,205 -40,279 -173,320 -88,28 -160,27 -249,-2 m 187,-352 c -22,-22 -19,-44 4,-44 19,0 41,26 41,49 0,16 -28,13 -45,-5 m 109,-40 c -17,-26 -12,-44 11,-44 10,0 15,11 15,35 0,41 -5,43 -26,9"
       id="path8"
       style="stroke:#000000;stroke-width:8;stroke-miterlimit:4;stroke-dasharray:none" />
  </g>
</svg>
