<?xml version="1.0" encoding="UTF-8" standalone="no"?>
<!-- Created by ERK -->

<svg
   version="1.2"
   width="9700.5205"
   height="925.5"
   viewBox="-2.153 -3.275 9700.5209 925.50004"
   xml:space="preserve"
   id="svg5"
   sodipodi:docname="segacd32x.svg"
   inkscape:version="1.3.2 (091e20e, 2023-11-25, custom)"
   xmlns:inkscape="http://www.inkscape.org/namespaces/inkscape"
   xmlns:sodipodi="http://sodipodi.sourceforge.net/DTD/sodipodi-0.dtd"
   xmlns="http://www.w3.org/2000/svg"
   xmlns:svg="http://www.w3.org/2000/svg"><defs
   id="defs5">
        
    
        
    
			
			
		
			
			
		
			
			
		
			
			
		
			
			
		
			
			
		
			
			
		
			
			
		
			
			
		
			
			
		
				
				
			
				
				
				
				
				
				
				
			
					
					
					
					
					
					
				
						
					
						
					
						
					
						
					
						
					
						
					
							
						
							
						
	
	
</defs><sodipodi:namedview
   id="namedview5"
   pagecolor="#ffffff"
   bordercolor="#000000"
   borderopacity="0.25"
   inkscape:showpageshadow="2"
   inkscape:pageopacity="0.0"
   inkscape:pagecheckerboard="true"
   inkscape:deskcolor="#d1d1d1"
   inkscape:zoom="0.19963988"
   inkscape:cx="4758.5683"
   inkscape:cy="648.66799"
   inkscape:window-width="2560"
   inkscape:window-height="1351"
   inkscape:window-x="-9"
   inkscape:window-y="-9"
   inkscape:window-maximized="1"
   inkscape:current-layer="svg5" />
    
    
    
    
    <g
   id="g1"
   inkscape:label="Logo"
   transform="matrix(11.083832,0,0,11.083832,21.71049,33.02455)"
   style="display:inline"><path
     d="m -2.153,-3.275 h 553 v 83.5 h -553 z"
     id="path1"
     style="display:inline"
     inkscape:label="Background" /><path
     d="M 77.651,26.489 76.098,25.77 c 0.097,-0.32 0.194,-0.719 0.194,-1.119 0,-1.039 -9.127,-6.633 -24.953,-6.633 -15.146,0 -21.651,3.836 -21.651,8.79 0,13.104 57.186,-6.072 57.186,22.854 0,10.548 -12.428,18.699 -37.283,18.699 -23.689,0 -30.486,-6.233 -32.719,-6.233 -0.583,0 -0.874,0.397 -1.359,0.64 l -1.262,-0.24 8.058,-13.586 1.554,0.64 c 0,0.321 -0.195,0.642 -0.195,1.28 0,4.716 12.525,8.068 24.953,8.068 17.671,0 23.69,-4.152 23.69,-8.55 0,-15.66 -56.41,3.755 -56.41,-22.771 0,-13.425 17.185,-19.019 36.021,-19.019 16.894,0 28.739,6.073 29.904,6.073 1.262,0 1.456,-0.319 1.748,-0.559 l 1.553,0.399 z m 16.695,39.952 c 2.136,0 2.524,-0.639 2.524,-2.397 V 12.905 c 0,-1.758 -0.389,-2.397 -2.524,-2.397 V 9.389 h 63.012 c 2.33,0 3.301,-0.64 3.301,-1.758 h 1.359 v 13.265 h -1.359 c 0,-1.438 -0.971,-2.077 -3.301,-2.077 h -46.701 v 14.224 h 30.487 c 2.33,0 3.301,-0.64 3.301,-2.078 h 1.359 v 13.422 h -1.359 c 0,-0.639 -0.194,-1.117 -0.777,-1.438 -0.485,-0.319 -1.359,-0.48 -2.524,-0.48 h -30.487 v 15.664 h 47.575 c 2.33,0 3.301,-0.641 3.301,-1.918 h 1.359 v 13.104 h -1.359 c 0,-1.118 -0.971,-1.758 -3.301,-1.758 H 94.346 Z M 249.005,36.877 v 1.119 c -0.971,0.16 -1.845,0.799 -1.845,2.557 v 15.741 c 0,1.279 0.486,1.757 1.748,1.997 v 1.119 c -6.117,2.876 -21.069,8.951 -37.866,8.951 -22.331,0 -41.943,-9.112 -41.943,-29.886 0,-20.776 22.913,-29.886 43.108,-29.886 7.962,0 15.535,1.518 21.069,2.957 5.146,1.838 8.932,3.277 9.612,3.277 0.874,0 1.748,-0.4 2.136,-0.879 l 1.359,0.479 -9.417,13.104 -1.36,-0.719 A 4.78,4.78 0 0 0 235.8,25.45 c 0,-2.478 -10.485,-7.432 -23.398,-7.432 -16.311,0 -29.515,6.633 -29.515,20.138 0,14.143 13.204,20.773 28.156,20.773 12.234,0 19.418,-3.437 22.331,-5.193 v -6.631 h -16.699 c -1.942,0 -3.107,0.799 -3.107,1.916 h -1.36 V 34.96 h 1.36 c 0,1.118 1.165,1.917 3.107,1.917 z m 4.848,30.686 v -1.119 c 1.748,-0.08 2.33,-0.479 3.689,-3.037 l 26.506,-49.063 c 0.484,-0.799 1.066,-1.678 1.066,-2.396 0,-0.879 -0.774,-1.279 -2.039,-1.438 V 9.39 h 21.167 v 1.119 c -1.457,0.16 -2.041,0.639 -2.041,1.199 0,0.639 0.39,1.278 0.875,2.078 l 28.156,49.621 c 1.357,2.478 1.748,3.037 3.785,3.037 v 1.119 h -19.32 v -1.119 c 1.264,0 1.748,-0.4 1.748,-0.799 0,-0.879 -0.873,-1.998 -7.379,-13.426 h -33.303 c -5.631,10.387 -7.087,11.986 -7.087,13.025 0,0.719 0.582,1.119 1.456,1.197 v 1.119 h -17.281 v 0.003 z M 304.438,43.109 292.787,22.173 281.33,43.109 Z"
     id="path2"
     style="display:inline;fill:#c6af75"
     inkscape:label="SEGA" /><path
     fill="#c6af75"
     d="M 547.578,77.074 H 1.117 V -0.125 h 546.46 V 77.074 Z M 6.034,72.157 H 542.661 V 4.792 H 6.034 Z"
     id="path3"
     style="display:inline"
     inkscape:label="Border" /><path
     fill="#c6af75"
     d="M 351.853,9.389 V 67.56 H 538.708 V 9.389 Z m 7.922,40.836 c -1.555,-10.357 32.85,-24.163 77.67,-31.438 -1.012,0.261 -2.969,0.762 -2.969,0.762 l -5.623,1.374 C 405.99,26.51 389.972,36.575 391.308,45.5 c 1.369,9.137 20.469,14.083 44.766,12.393 1.35,-0.096 6.139,-0.326 7.182,-0.373 -44.989,6.179 -81.93,3.064 -83.481,-7.295 z m 112.039,2.237 c -9.932,2.257 -22.346,4.173 -22.346,4.173 V 30.676 l 6.4,21.124 c 0,0 15.242,-2.474 26.844,-7.304 10.084,-4.199 16.34,-9.466 15.918,-15.077 -0.684,-9.115 -20.068,-13.978 -44,-12.439 -1.596,0.103 -6.895,0.375 -7.936,0.421 44.98,-6.181 81.916,-3.064 83.471,7.293 1.321,8.81 -23.371,20.109 -58.351,27.768 z"
     id="path4"
     style="display:inline"
     inkscape:label="CD" /><path
     d="m 553.886,-1.576 h 3.321 v 8.848 h 1.632 v -8.848 h 3.323 V -3 h -8.276 z M 570.556,-3 567.509,5.09 564.478,-3 h -2.074 V 7.272 h 1.56 V -0.4 l 2.881,7.672 h 1.346 l 2.879,-7.669 v 7.669 h 1.562 V -3 Z"
     id="path5"
     inkscape:label="TM"
     style="display:inline;fill:#c6af75" /></g><g
   id="g66"
   inkscape:label="32X"
   transform="translate(5517.4689,430.37293)"
   style="display:inline"><g
     id="g4"
     inkscape:label="32X_Shadow"
     style="display:inline"
     transform="translate(692.59848,-526.24794)"><path
       d="m 566.6,444 h 21 c 6,19.6 30.1,29 114.4,29 206.2,0 261.8,-52.1 261.8,-101.9 0,-53.3 -72.2,-106.5 -230.2,-106.5 -203.2,0 -343.1,85.7 -343.1,123.9 0,8.1 3.1,15.1 6,20.8 L 378.6,420.9 219.1,260 l 21,-9.3 c 6,3.4 13.6,7 22.6,7 43.7,0 135.4,-129.7 484.5,-129.7 245.3,0 430.4,101.9 430.4,235 0,78.7 -55.7,140 -151.9,162.1 v 2.3 c 126.4,34.7 213.7,100.6 213.7,210.7 0,149.4 -189.6,255.8 -481.5,255.8 -392.8,0 -478.6,-104.2 -529.7,-104.2 -12,0 -21,4.7 -30.1,10.4 l -24.2,-6.9 120.4,-199.2 22.6,10.4 c 0,3.4 -1.5,8.1 -1.5,14 0,45.2 167,138.9 416.9,138.9 189.6,0 293.4,-50.9 293.4,-123.9 0,-63.6 -78.3,-133.1 -296.4,-133.1 -112.9,0 -136.8,12.8 -141.4,33.5 h -21 V 444 Z"
       id="path27"
       style="display:inline"
       inkscape:label="3" /><path
       d="m 1286.5,299.3 21,-12.8 c 3.1,3.4 9.1,5.8 18.1,5.8 42.1,0 155,-164.4 475.5,-164.4 186.5,0 419.8,82.2 419.8,243.1 0,307.9 -574.8,275.5 -728.3,470 h 725.3 c 33.1,0 45.2,-9.3 45.2,-27.7 h 21 v 194.5 h -21 c 0,-16.2 -12,-25.4 -45.2,-25.4 h -966.2 c 0,-422.5 755.4,-404 755.4,-603.1 0,-75.2 -112.9,-114.6 -215.1,-114.6 -173,0 -320.5,111.1 -320.5,162.1 0,10.4 6,17.4 12,23.1 l -19.5,14 z"
       id="path28"
       style="display:inline"
       inkscape:label="2" /><path
       d="m 2298.7,982.3 v -16.2 c 37.7,-2.3 48.2,-19.6 76.7,-48.6 L 2751.5,546 2396.4,182.5 c -9.1,-9.3 -22.6,-26.6 -60.1,-26.6 v -16.3 h 355.1 v 16.2 c -19.5,0 -31.6,4.7 -31.6,16.2 0,4.7 7.6,14 22.6,29 l 204.7,210.7 213.7,-211.9 c 12,-12.8 21,-22 21,-29 0,-9.3 -12,-15.1 -25.5,-15.1 v -16.2 h 334 v 16.2 c -49.7,1.1 -69.2,20.8 -97.8,48.6 l -328,325.5 379.2,387.8 c 30.1,31.2 40.6,47.5 81.2,48.6 v 16.2 H 3112.8 V 966 c 22.6,0 28.6,-3.4 28.6,-15.1 0,-10.4 -25.5,-33.5 -54.2,-62.5 L 2867.5,665 2601.2,929 c -7.6,8.1 -13.6,11.6 -13.6,22 0,9.3 12,15.1 31.5,15.1 v 16.2 z"
       id="path26"
       style="display:inline"
       inkscape:label="X" /></g><g
     id="g87"
     inkscape:label="32X"
     style="display:inline;fill:#c6af75;fill-opacity:1"
     transform="translate(692.59848,-526.24794)"><path
       class="st0"
       d="m 590.2,418.6 h 21 c 6,19.6 30.1,29 114.4,29 206.2,0 261.8,-52.1 261.8,-101.9 0,-53.3 -72.2,-106.5 -230.2,-106.5 -203.2,0 -343.1,85.7 -343.1,123.9 0,8.1 3.1,15.1 6,20.8 l -18.1,11.6 -159.6,-161 21,-9.3 c 6,3.4 13.6,7 22.6,7 43.7,0 135.4,-129.7 484.5,-129.7 245.3,0 430.4,101.9 430.4,235 0,78.7 -55.7,140 -151.9,162.1 v 2.3 c 126.4,34.7 213.7,100.6 213.7,210.7 0,149.4 -189.6,255.8 -481.5,255.8 -392.8,0 -478.6,-104.2 -529.7,-104.2 -12,0 -21,4.7 -30.1,10.4 l -24.1,-7 120.4,-199.2 22.6,10.4 c 0,3.4 -1.5,8.1 -1.5,14 0,45.2 167,138.9 416.9,138.9 189.5,0.1 293.3,-50.8 293.3,-123.8 0,-63.6 -78.3,-133.1 -296.4,-133.1 -112.9,0 -136.8,12.8 -141.4,33.5 h -21 z"
       id="path85"
       style="display:inline;fill:#c6af75;fill-opacity:1"
       inkscape:label="3" /><path
       class="st0"
       d="m 1310,273.9 21,-12.8 c 3.1,3.4 9.1,5.8 18.1,5.8 42.2,0 155.1,-164.4 475.6,-164.4 186.5,0 419.8,82.2 419.8,243.1 0,307.9 -574.8,275.5 -728.3,470 h 725.3 c 33.1,0 45.2,-9.3 45.2,-27.7 h 21 v 194.5 h -21 c 0,-16.2 -12,-25.4 -45.2,-25.4 h -966.2 c 0,-422.5 755.4,-404 755.4,-603.1 0,-75.2 -112.9,-114.6 -215.1,-114.6 -173,0 -320.5,111.1 -320.5,162.1 0,10.4 6,17.4 12,23.1 l -19.5,14 z"
       id="path86"
       style="display:inline;fill:#c6af75;fill-opacity:1"
       inkscape:label="2" /><path
       class="st0"
       d="m 2322.2,956.9 v -16.2 c 37.7,-2.3 48.2,-19.6 76.7,-48.6 L 2775,520.5 2419.9,157 c -9.1,-9.3 -22.6,-26.6 -60.1,-26.6 v -16.2 h 355.1 v 16.2 c -19.5,0 -31.6,4.7 -31.6,16.2 0,4.7 7.6,14 22.6,29 l 204.7,210.7 213.7,-211.8 c 12,-12.8 21,-22 21,-29 0,-9.3 -12,-15.1 -25.5,-15.1 v -16.2 h 334 v 16.2 c -49.7,1.1 -69.2,20.8 -97.8,48.6 L 3028,504.3 3407.1,892 c 30.1,31.2 40.6,47.5 81.2,48.6 v 16.2 h -352.2 v -16.2 c 22.6,0 28.6,-3.4 28.6,-15.1 0,-10.4 -25.5,-33.5 -54.2,-62.5 L 2890.8,639.6 2624.5,903.5 c -7.6,8.1 -13.6,11.6 -13.6,22 0,9.3 12,15.1 31.5,15.1 v 16.2 H 2322 Z"
       id="path87"
       style="display:inline;fill:#c6af75;fill-opacity:1"
       inkscape:label="X" /></g></g>
</svg>
