<?xml version="1.0" encoding="UTF-8" standalone="no"?>
<svg
   viewBox="0 0 2538.0285 936.38134"
   width="2538.0286"
   height="936.38129"
   version="1.1"
   id="svg148"
   sodipodi:docname="segaer.svg"
   xml:space="preserve"
   inkscape:version="1.3.2 (091e20e, 2023-11-25, custom)"
   xmlns:inkscape="http://www.inkscape.org/namespaces/inkscape"
   xmlns:sodipodi="http://sodipodi.sourceforge.net/DTD/sodipodi-0.dtd"
   xmlns:xlink="http://www.w3.org/1999/xlink"
   xmlns="http://www.w3.org/2000/svg"
   xmlns:svg="http://www.w3.org/2000/svg"><sodipodi:namedview
     id="namedview148"
     pagecolor="#ffffff"
     bordercolor="#000000"
     borderopacity="0.25"
     inkscape:showpageshadow="2"
     inkscape:pageopacity="0.0"
     inkscape:pagecheckerboard="true"
     inkscape:deskcolor="#d1d1d1"
     inkscape:zoom="0.4117968"
     inkscape:cx="1329.5392"
     inkscape:cy="756.44104"
     inkscape:window-width="2560"
     inkscape:window-height="1351"
     inkscape:window-x="-9"
     inkscape:window-y="-9"
     inkscape:window-maximized="1"
     inkscape:current-layer="svg148" /><desc
     id="desc1">SegaEuropa-R.DXF - scale = 1.000000, origin = (0.000000, 0.000000), method = file</desc><defs
     id="defs4"><linearGradient
       id="linearGradient205"
       inkscape:collect="always"><stop
         style="stop-color:#710000;stop-opacity:1;"
         offset="0"
         id="stop205" /><stop
         style="stop-color:#c30000;stop-opacity:1;"
         offset="0.06358815"
         id="stop208" /><stop
         style="stop-color:#ff0707;stop-opacity:1;"
         offset="0.44663128"
         id="stop209" /><stop
         style="stop-color:#ffd5d5;stop-opacity:1;"
         offset="0.67070395"
         id="stop210" /><stop
         style="stop-color:#ffffff;stop-opacity:1;"
         offset="1"
         id="stop206" /></linearGradient><marker
       id="DistanceX"
       orient="auto"
       refX="0"
       refY="0"
       style="overflow:visible"><path
         d="M 3,-3 -3,3 M 0,-5 V 5"
         style="stroke:#000000;stroke-width:0.5"
         id="path1" /></marker><pattern
       id="Hatch"
       patternUnits="userSpaceOnUse"
       width="8"
       height="8"
       x="0"
       y="0"><path
         d="M8 4 l-4,4"
         stroke="#000000"
         stroke-width="0.25"
         linecap="square"
         id="path2" /><path
         d="M6 2 l-4,4"
         stroke="#000000"
         stroke-width="0.25"
         linecap="square"
         id="path3" /><path
         d="M4 0 l-4,4"
         stroke="#000000"
         stroke-width="0.25"
         linecap="square"
         id="path4" /></pattern><symbol
       id="*Model_Space" /><symbol
       id="*Paper_Space" /><symbol
       id="*Paper_Space0" /><marker
       id="DistanceX-2"
       orient="auto"
       refX="0"
       refY="0"
       style="overflow:visible"><path
         d="M 3,-3 -3,3 M 0,-5 V 5"
         style="stroke:#000000;stroke-width:0.5"
         id="path1-4" /></marker><pattern
       id="Hatch-5"
       patternUnits="userSpaceOnUse"
       width="8"
       height="8"
       x="0"
       y="0"><path
         d="M8 4 l-4,4"
         stroke="#000000"
         stroke-width="0.25"
         linecap="square"
         id="path2-5" /><path
         d="M6 2 l-4,4"
         stroke="#000000"
         stroke-width="0.25"
         linecap="square"
         id="path3-1" /><path
         d="M4 0 l-4,4"
         stroke="#000000"
         stroke-width="0.25"
         linecap="square"
         id="path4-7" /></pattern><symbol
       id="*Model_Space-1" /><symbol
       id="*Paper_Space-1" /><symbol
       id="*Paper_Space0-5" /><linearGradient
       inkscape:collect="always"
       xlink:href="#linearGradient205"
       id="linearGradient206"
       x1="1267.8826"
       y1="-483.79211"
       x2="1267.8826"
       y2="2044.246"
       gradientUnits="userSpaceOnUse"
       spreadMethod="repeat"
       gradientTransform="matrix(1.0000397,0,0,1.0000397,-1.2856532,186.19568)" /></defs><g
     id="g150"
     inkscape:label="Europa-R"
     transform="translate(2.9116453,-189.1207)"
     style="stroke:#ff1e1e;stroke-opacity:1"><g
       id="g187"
       inkscape:label="Outline"
       style="display:inline;stroke:none;stroke-opacity:1"><path
         id="path187"
         style="display:inline;fill:#000000;fill-opacity:1;stroke:none;stroke-width:2.57569;stroke-opacity:1;paint-order:stroke markers fill"
         inkscape:label="Europa-R"
         d="m 1361.334,814.21094 c 0.02,70.18397 -0.063,140.36817 0.1479,210.55196 0.061,8.6325 0.015,17.2708 0.3583,25.8972 1.0588,12.2823 4.8809,24.3072 10.9743,35.0157 7.467,13.0972 18.397,24.2143 31.4513,31.7739 5.325,3.1088 10.9693,5.7371 16.8986,7.4569 3.958,0.8604 8.029,0.3653 12.0387,0.5954 1.6618,-1.5601 2.3739,-3.9302 2.0764,-6.1629 0.06,-29.6484 -0.081,-59.2975 0.1632,-88.9452 0.013,-1.0917 0.035,-2.2128 0.085,-3.2533 47.0215,-0.015 94.0433,0.058 141.0644,-0.1248 5.8908,-0.086 11.8013,0 17.6685,-0.5924 8.9158,-1.1741 17.5966,-4.0116 25.5732,-8.1479 12.7596,-6.6323 23.7133,-16.7911 31.0119,-29.20546 6.2607,-10.46828 10.2549,-22.37296 10.9894,-34.57903 0.4869,-7.29096 0.406,-14.60455 0.4642,-21.90781 0.017,-17.08778 -0.026,-34.17651 -0.2458,-51.26286 -0.072,-3.78441 -0.1809,-7.63582 -1.396,-11.25927 -1.242,-3.9333 -3.0379,-7.69477 -5.2548,-11.17045 -2.8282,-4.33971 -6.6771,-7.84898 -10.2261,-11.57593 -7.5921,-7.74643 -15.3559,-15.32753 -23.2367,-22.7777 -2.3881,-2.23814 -4.8669,-4.43595 -7.7935,-5.95062 -4.474,-2.45432 -9.3731,-4.09348 -14.353,-5.1391 -79.4864,-0.0797 -158.9727,-0.15695 -238.459,-0.23829 0,0.33399 0,0.66797 0,1.00196 z m -695.44338,0.008 c 0.0726,98.07813 0.14903,196.15626 0.22266,294.23436 1.94551,4.4112 4.19139,8.9292 8.05217,11.9864 3.35746,2.8951 7.69358,4.876 12.19305,4.695 13.28037,0.3633 26.56725,0.2261 39.85087,0.3023 3.40612,0.01 6.81224,0.014 10.21836,0.02 0.0324,-32.4815 -0.0995,-64.9639 0.15318,-97.4447 0.009,-0.7732 0.0282,-1.5462 0.0539,-2.3189 18.47947,-0.3138 36.96229,-0.1405 55.44335,-0.1548 18.51367,0.031 37.02735,0.063 55.54102,0.094 15.94848,27.5622 31.74853,55.2118 47.92552,82.6397 2.11073,3.4447 4.09093,6.996 6.57559,10.1894 2.74915,3.0951 6.52065,5.0464 10.28323,6.6181 2.11151,0.3337 4.2559,0.07 6.38206,0.1728 18.48815,0.079 36.9763,0.1591 55.46446,0.2374 0,-4.4303 0,-8.8606 0,-13.291 -16.30638,-28.3348 -32.81983,-56.5519 -48.75195,-85.0996 -0.76033,-1.2663 -1.13389,-2.7402 -0.94643,-4.2147 0.1595,-2.2328 1.28141,-4.348 3.0407,-5.7317 5.02349,-4.6403 10.33835,-8.9493 15.55764,-13.3649 5.97526,-5.01359 12.0015,-9.98511 17.64692,-15.37229 3.03216,-3.08374 5.41244,-7.0931 5.56426,-11.51029 0.31914,-4.52703 0.24394,-9.07128 0.32825,-13.60674 0.16983,-20.19509 0.18022,-40.3912 0.20793,-60.58688 -0.0177,-8.7855 0.0127,-17.57597 -0.32215,-26.35594 -0.17605,-4.31106 -0.75171,-8.64353 -2.25399,-12.70919 -1.52072,-4.5262 -4.05914,-8.66734 -7.2331,-12.22226 -4.22965,-4.85334 -8.86713,-9.32905 -13.36422,-13.9305 -5.27891,-5.29503 -10.58154,-10.58476 -16.26081,-15.45324 -3.92379,-3.20871 -8.44383,-5.74787 -13.36432,-7.04435 -2.09811,-0.60802 -4.19636,-1.36478 -6.38115,-1.54965 -80.60899,-0.0758 -161.21797,-0.15405 -241.82696,-0.22823 0,0.33333 10e-6,0.66667 0,1 z m 1560.87498,0 c 0.062,97.8724 0.1451,195.76176 0.2149,293.64066 1.6228,4.5346 3.825,9.0735 7.6017,12.2083 3.9254,3.4938 9.2169,5.3932 14.4697,5.1756 11.9865,0.3074 23.978,0.1167 35.9668,0.1986 4.0921,0.01 8.1842,0.01 12.2762,0.015 0.033,-32.3566 -0.1001,-64.7142 0.1633,-97.0701 0.01,-0.8864 0.037,-1.7723 0.057,-2.6584 21.1179,-0.4144 42.241,-0.3138 63.3617,-0.3341 15.895,0.017 31.791,0.061 47.6832,0.3829 16.6822,28.5526 32.9683,57.3367 49.8716,85.7591 1.6714,2.6478 3.1996,5.4365 5.3452,7.739 2.6787,2.6345 6.084,4.4117 9.5411,5.7832 2.2672,0.3682 4.572,0.089 6.8562,0.1967 18.3142,0.08 36.6284,0.1615 54.9426,0.2408 0,-4.4759 0,-8.9518 0,-13.4277 -16.0794,-27.9416 -32.3571,-55.7698 -48.0809,-83.9139 -0.6999,-1.396 -1.7151,-2.7704 -1.6098,-4.4075 0.023,-1.8553 0.5143,-3.7849 1.6229,-5.29 1.3315,-1.4553 2.9984,-2.5467 4.4217,-3.9068 9.7261,-8.376 19.7369,-16.4208 29.232,-25.06193 3.1889,-3.04563 5.9159,-6.91857 6.4099,-11.40855 0.4106,-3.3392 0.2644,-6.71345 0.3774,-10.06951 0.1619,-17.85078 0.084,-35.70268 0.1133,-53.55397 0,-14.18464 0.01,-28.36927 0.01,-42.55391 -1.5989,-6.46631 -3.6627,-13.01259 -7.6906,-18.41396 -2.2845,-2.87496 -4.9881,-5.37769 -7.4735,-8.07337 -7.1815,-7.42553 -14.4643,-14.75992 -22.0016,-21.82494 -5.6867,-5.00897 -12.7899,-8.23034 -20.1409,-9.90257 -2.6624,-0.49789 -5.3912,-0.12705 -8.082,-0.25 -78.4857,-0.0726 -156.9714,-0.1477 -235.4571,-0.21875 0,0.33333 0,0.66667 0,1 z m -469.6855,-0.98633 c -3.3718,0 -6.7435,0 -10.1153,0 -13.2403,13.24271 -26.4803,26.48576 -39.7207,39.72852 0.1334,4.69209 0.2697,9.38411 0.4043,14.07617 8.2074,2.99332 16.4145,5.98723 24.6211,8.98242 51.0008,0.0204 102.0018,-0.0373 153.0023,0.11353 6.3709,0.0615 12.7639,0.0887 19.0898,0.5098 1.7701,0.10096 3.4846,0.6875 4.9275,1.72237 3.4925,2.29864 6.3431,5.84721 7.1962,9.99738 0.4289,3.14085 0.2208,6.32185 0.3146,9.48152 0.02,5.75378 0.071,11.50912 -0.097,17.26134 -16.7816,0.30165 -33.5668,0.23507 -50.3504,0.28192 -37.9695,0.0601 -75.94,-0.0585 -113.9088,0.23686 -5.8983,0.0602 -11.8559,0.12506 -17.628,1.48511 -12.1595,2.60039 -23.5515,8.57782 -32.6622,17.03212 -9.765,8.94425 -17.125,20.57256 -20.621,33.37301 -1.6802,5.94287 -2.4515,12.12477 -2.3902,18.29708 -0.2201,14.54804 -0.098,29.09834 -0.131,43.64744 0.024,10.0255 -0.019,20.0555 0.3088,30.0762 0.407,5.7307 2.3769,11.2807 5.2215,16.2425 2.4369,4.2371 5.7779,7.9253 9.6913,10.8455 5.7894,4.6033 11.9243,8.7485 17.9397,13.0432 9.8549,6.9337 19.7343,13.8348 29.8199,20.4311 3.7757,2.3292 8.0514,3.7222 12.3589,4.6818 3.3757,0.7072 6.8411,0.3795 10.262,0.4841 37.1113,0.2248 74.2236,0.1165 111.3352,0.01 10.0072,-0.06 20.0184,-0.039 30.0221,-0.2912 6.1471,-0.495 12.1867,-1.9403 18.0536,-3.8016 18.9187,-6.1929 35.6086,-19.0956 46.1349,-36.0176 6.9347,-11.0799 11.3604,-23.7424 12.7427,-36.7443 0.4028,-4.7504 0.2583,-9.5251 0.3681,-14.2871 0.2209,-28.5571 0.2321,-57.11538 0.2154,-85.67315 -0.034,-21.91121 -0.063,-43.82295 -0.2766,-65.73324 -0.068,-2.80701 -0.017,-5.63349 -0.3867,-8.41989 -0.8008,-4.656 -2.5467,-9.10865 -4.7206,-13.28486 -2.4673,-4.33119 -6.2348,-7.68165 -9.6055,-11.2844 -6.6184,-6.77129 -13.3599,-13.42117 -20.0769,-20.09431 -3.2194,-3.13234 -6.4309,-6.29424 -9.9336,-9.11031 -4.286,-3.10065 -9.3681,-4.86592 -14.4486,-6.16947 -4.7716,-1.08795 -9.6932,-0.75766 -14.5457,-0.90811 -20.3075,-0.19096 -40.6163,-0.16375 -60.9246,-0.20712 -30.4955,-0.0221 -60.9911,-0.0102 -91.4867,-0.0117 z m -1423.87502,1 c 0.032,62.30024 -0.0886,124.60098 0.21624,186.90069 0.0799,5.9663 0.022,11.9435 0.43564,17.8982 1.28689,15.8635 6.03285,31.4011 13.61283,45.3849 5.11747,9.5652 11.66825,18.349 19.32246,26.034 10.66472,10.9604 23.44226,19.9297 37.59204,25.7883 9.8862,4.1285 20.32429,6.9578 30.94935,8.3393 5.81331,0.6152 11.66972,0.5538 17.50753,0.6797 21.10633,0.247 42.21606,0.2786 63.32245,0.023 5.45647,-0.1155 10.91952,-0.116 16.36965,-0.4057 7.81027,-0.5902 15.50719,-2.2681 23.00735,-4.4865 16.3054,-4.9347 31.45948,-13.5769 44.04438,-25.056 15.93352,-14.4455 27.87522,-33.3284 33.72723,-54.0495 3.03024,-10.4581 4.60292,-21.3452 4.50541,-32.2378 0.2988,-25.82596 0.22822,-51.65418 0.28017,-77.48133 0.0383,-39.44374 0.0212,-78.88751 0.0252,-118.33126 -22.22201,0 -44.44401,0 -66.66602,0 -0.0106,60.73136 0.0501,121.46287 -0.0887,182.1941 -0.045,8.58819 -0.11713,17.19359 -0.66131,25.73949 -0.31255,3.4345 -1.54511,6.8603 -2.70703,9.9649 -1.30061,3.4331 -3.02856,6.8483 -5.19094,9.9134 -6.05369,8.7073 -14.88336,15.4448 -24.895,18.9498 -1.45779,0.5083 -3.06712,0.9986 -4.5968,1.3535 -4.714,1.2343 -9.62064,0.9103 -14.44137,1.1013 -20.7498,0.3706 -41.50532,0.3214 -62.25626,0.079 -4.93438,-0.08 -9.88346,-0.111 -14.77394,-0.4753 -5.3474,-0.7055 -10.48235,-2.5719 -15.22655,-5.0136 -11.40665,-5.9618 -20.44762,-16.4438 -24.30858,-28.7581 -0.76231,-2.3172 -1.36561,-4.7527 -1.67189,-7.0466 -0.33753,-2.95 -0.3655,-5.8682 -0.48985,-8.8117 -0.28503,-13.21868 -0.20854,-26.44193 -0.2607,-39.66293 -0.033,-35.52798 -0.007,-71.056 -0.017,-106.584 -17.64587,-17.64775 -35.29162,-35.29561 -52.9375,-52.94336 -4.57617,0 -9.15234,0 -13.72851,0 0,0.33334 0,0.66667 0,1 z m -221.0586,-0.89258 c -10.46799,0.031 -20.94115,-0.006 -31.403244,0.36771 -21.727044,1.41135 -42.726468,11.20615 -57.950764,26.74131 -13.2900276,13.48317 -22.13292608,31.28221 -24.7785802,50.03362 -0.8587032,5.87701 -0.6641599,11.83046 -0.785598,17.75092 -0.1951712,22.2269 -0.1239294,44.4551 -0.1393323,66.68262 0.00388,22.19391 0.0054,44.38919 0.3071116,66.58129 0.074772,5.6614 1.1897198,11.2486 2.59466157,16.7142 4.11182673,15.5878 12.39329833,30.098 23.96070733,41.3551 14.073171,13.8543 32.777423,23.0371 52.427693,25.2833 3.933768,0.3094 7.884971,0.1585 11.826679,0.2502 34.142876,0.2198 68.286706,0.2066 102.430116,0.2613 50.85636,0.056 101.71276,0.061 152.56915,0.082 0,-4.4356 0,-8.8711 0,-13.3067 -13.49487,-13.4123 -26.84513,-26.9723 -40.53225,-40.1895 -3.40742,-3.2488 -7.1984,-6.3239 -11.76698,-7.7355 -3.62539,-1.2444 -7.50792,-1.0022 -11.2789,-1.1726 -14.3606,-0.1767 -28.72285,-0.2024 -43.08437,-0.2687 -50.34096,-0.136 -100.68204,-0.2253 -151.023049,-0.3427 -4.993245,-1.5403 -9.83325,-4.1828 -13.043985,-8.4066 -3.420809,-4.2691 -5.222961,-9.7548 -5.115028,-15.2162 -0.276391,-9.1393 -0.145323,-18.2844 -0.169288,-27.4264 0.02072,-3.3732 0.05065,-6.7467 0.148614,-10.1187 16.390434,-0.3016 32.784606,-0.2082 49.176946,-0.2624 52.81078,-0.072 105.62162,-0.041 158.43243,-0.046 0,-16.31514 0,-32.63025 0,-48.94535 -1.81383,-3.85806 -3.8049,-7.93207 -7.44572,-10.39138 -2.94009,-2.24872 -6.69609,-3.27445 -10.37205,-3.13508 -11.00507,-0.37753 -22.01867,-0.21846 -33.02793,-0.29155 -48.97778,-0.0966 -97.95605,0.0516 -146.933531,-0.17279 -3.296552,-0.0303 -6.593576,-0.0518 -9.888739,-0.15959 -0.116406,-11.86149 0.02924,-23.7239 0.09145,-35.58543 0.0327,-2.36017 0.01292,-4.72895 0.09228,-7.08352 0.962243,-3.30205 2.227877,-6.57922 4.2903,-9.36324 3.347692,-4.60263 8.384462,-8.04634 13.992768,-9.10453 1.55423,-0.2966 3.342506,-0.37699 5.001852,-0.37528 13.92285,-0.28465 27.84972,-0.22862 41.7747,-0.27135 55.05948,-0.0685 110.11902,-0.0264 165.17852,-0.0409 -0.0664,-15.32465 0.16311,-30.65345 -0.22204,-45.97474 -0.17918,-3.38126 -1.32677,-6.73342 -3.48515,-9.36543 -2.46284,-3.16919 -5.94294,-5.44421 -9.64261,-6.91278 -2.19769,-0.65765 -4.51335,-0.209 -6.76465,-0.33985 -53.46598,-0.0568 -106.93202,-0.16966 -160.39802,-0.11399 -1.68139,0.005 -3.36278,0.0102 -5.04417,0.0154 z m 1030.93362,0.10938 c -14.2584,0.0594 -28.5215,0.0731 -42.7735,0.51475 -6.0395,0.53802 -11.9663,1.93915 -17.8062,3.52415 -13.7993,3.9175 -26.8899,10.56348 -37.8232,19.89578 -7.825,6.44618 -14.9061,13.86846 -20.4813,22.36041 -9.2296,13.79537 -15.3713,29.74411 -17.2125,46.26903 -0.3956,5.01407 -0.3726,10.05098 -0.4676,15.07747 -0.2657,23.55976 -0.3082,47.122 -0.2108,70.68297 0.07,11.87433 0.1409,23.74963 0.3838,35.62173 0.1084,4.4548 0.5759,8.8998 1.5034,13.2604 3.3425,16.9666 10.9123,33.1209 21.9809,46.4207 6.1979,7.32 13.1636,14.0493 21.0891,19.4843 13.0311,8.9956 28.0646,15.1136 43.6995,17.6646 4.094,0.6738 8.2356,1.0471 12.3866,1.0307 39.3382,0.2056 78.6779,0.1331 118.0161,-0.072 4.7004,-0.08 9.4121,0.026 14.1022,-0.331 7.1982,-0.7132 14.3031,-2.2956 21.1877,-4.5002 16.9043,-5.5033 32.3214,-15.4099 44.4465,-28.4018 7.9042,-8.4034 14.3415,-18.1653 19.0022,-28.7167 5.2132,-11.4666 8.3578,-23.892 8.9835,-36.4825 0.3652,-7.0119 0.2347,-14.0376 0.3509,-21.056 0.1497,-24.94604 0.1061,-49.89301 -0.014,-74.83909 -0.071,-6.70413 -0.073,-13.41421 -0.4079,-20.11105 -1.2631,-17.44533 -6.942,-34.56685 -16.4843,-49.23681 -3.9694,-6.18662 -8.6908,-11.87095 -13.9313,-17.02056 -4.9309,-5.0007 -10.2566,-9.64059 -16.1551,-13.47106 -13.6246,-9.03982 -29.3648,-14.88214 -45.5961,-16.87005 -4.4532,-0.50086 -8.9446,-0.3299 -13.4167,-0.466 -23.7717,-0.30591 -47.5462,-0.27053 -71.3195,-0.2759 -4.3443,0.0144 -8.6885,0.0288 -13.0328,0.0432 z m 341.8789,66.44922 c 29.0577,0.0331 58.1165,-0.0892 87.1733,0.19179 2.6022,0.0507 5.1309,0.0321 7.7017,0.33946 4.4387,0.97032 8.2067,4.19217 10.3358,8.14602 0.853,1.60483 1.367,3.38767 1.3544,5.21226 0.3915,7.81003 0.3141,15.72127 0.3798,23.57635 0.021,10.37827 -0.021,20.76436 -0.5362,31.13072 -0.6823,4.21377 -3.6179,7.82225 -7.2145,9.98402 -1.7262,0.99109 -3.5912,1.84196 -5.5506,2.20486 -47.6898,0.0774 -95.3797,0.15473 -143.0695,0.2321 -0.2731,-8.70533 -0.162,-17.41735 -0.2193,-26.12575 -0.02,-17.06705 -0.049,-34.13491 0.1102,-51.20129 0.018,-1.13918 0.037,-2.27844 0.076,-3.4171 8.2593,-0.27705 16.5251,-0.16106 24.7875,-0.22878 8.2238,-0.0238 16.4476,-0.0343 24.6715,-0.0447 z m -631.96095,0.0137 c 10.95084,0.0817 21.90853,-0.0742 32.85156,0.43359 2.05319,0.0868 4.35993,0.22273 6.16694,1.43894 3.62941,2.15396 6.44732,5.7023 7.64488,9.75414 0.60997,2.64248 0.31599,5.38001 0.48019,8.06584 0.18124,13.28868 0.18758,26.58022 0.0341,39.86909 -0.0764,2.42255 -0.008,4.87399 -0.41138,7.26821 -1.22149,5.29646 -5.48839,9.72242 -10.64902,11.33696 -2.31243,0.49019 -4.7002,0.3222 -7.04848,0.44057 -11.98389,0.19878 -23.97038,0.14562 -35.95552,0.19121 -34.58914,0.0671 -69.17863,0.041 -103.76751,-0.1072 -1.91152,-0.0126 -3.82298,-0.0322 -5.73446,-0.0488 -0.24967,-22.69828 -0.18096,-45.39857 -0.11295,-68.09764 0.0253,-3.42877 0.0623,-6.85769 0.16373,-10.28517 15.22341,-0.28626 30.4505,-0.19715 45.67577,-0.25114 23.55402,-0.0354 47.10808,-0.0124 70.66212,-0.009 z m 302.15815,-0.01 c 20.2096,0.038 40.4208,-0.10298 60.6289,0.19474 3.0859,0.0854 6.2735,0.1501 9.2586,0.4841 3.749,0.46489 7.6693,1.68402 11.1379,3.11999 12.1464,5.06058 22.0096,15.16042 27.0528,27.28516 0.9931,2.40001 1.8824,5.0374 2.4906,7.63357 0.7524,3.76355 0.6713,7.55493 0.8076,11.36631 0.1986,14.17637 0.1169,28.35481 0.1423,42.53215 -0.012,12.71624 0.027,25.43387 -0.1764,38.14875 -0.1216,3.6505 -0.1493,7.3612 -1.0767,10.9159 -1.0534,3.644 -2.4887,7.1786 -4.1728,10.5751 -5.1561,10.0617 -13.9415,18.158 -24.3171,22.62 -2.9189,1.2698 -5.9377,2.2931 -8.9713,3.044 -2.4515,0.6509 -4.9483,0.8467 -7.4252,0.9252 -13.1968,0.2874 -26.3986,0.2069 -39.5979,0.2671 -20.5497,0.017 -41.1015,0.076 -61.6495,-0.1942 -4.9367,-0.1955 -9.9518,-1.3452 -14.4735,-3.0702 -9.899,-3.742 -18.5122,-10.731 -24.2477,-19.62 -3.0549,-4.6617 -5.1807,-9.8804 -6.5443,-15.2733 -0.6092,-2.6081 -1.4495,-5.2255 -1.2661,-7.9387 0.056,-26.33004 -0.069,-52.6606 0.1098,-78.9902 0.109,-5.02655 -0.024,-10.1064 0.9208,-15.06629 0.7987,-3.47155 2.0847,-6.81681 3.5093,-10.07487 3.3226,-7.22428 8.451,-13.58281 14.7096,-18.4761 1.1962,-0.92181 2.6022,-1.93481 3.9538,-2.78626 2.4319,-1.54967 5.1896,-2.99567 7.951,-4.09514 3.8946,-1.52733 7.9704,-2.70918 12.1635,-2.97603 5.9839,-0.49 12.1138,-0.38885 18.1574,-0.47989 6.9748,-0.0489 13.9498,-0.0534 20.9246,-0.0709 z m 1196.5762,0 c 30.1795,0.031 60.3601,-0.0967 90.5386,0.20115 2.4002,0.0678 4.7462,0.039 7.1287,0.3958 2.4961,0.60191 4.8358,1.95164 6.6435,3.64247 2.1853,2.05956 3.9522,4.7018 4.5956,7.66253 0.3299,2.25937 0.2344,4.55458 0.3476,6.83048 0.2796,13.17355 0.2814,26.35371 0.019,39.52752 -0.1066,2.88054 -0.079,5.77524 -0.3552,8.64399 -0.5654,3.05396 -2.413,5.73935 -4.6052,7.87366 -2.3289,2.19577 -5.4028,3.77056 -8.6608,3.72708 -6.1359,0.26865 -12.3974,0.19528 -18.5879,0.25819 -32.1535,0.13957 -64.3074,0.09 -96.461,0.0582 -11.5829,-0.0143 -23.166,-0.0581 -34.7477,-0.23122 -0.3834,-14.57861 -0.2893,-29.17128 -0.3269,-43.75625 0.01,-11.5225 0.053,-23.04585 0.3035,-34.56602 15.566,-0.28713 31.1356,-0.19468 46.7035,-0.25596 2.4881,-0.004 4.9763,-0.008 7.4644,-0.0116 z m -321.1484,72.5586 c 0,19.31315 0,38.6263 0,57.93947 53.5592,0 107.1185,0 160.6777,0 0,-19.6465 0,-39.29299 0,-58.93947 -53.5592,0 -107.1185,0 -160.6777,0 0,0.33333 0,0.66666 0,1 z m -218.3477,25.74414 c 28.5426,0.0264 57.0854,-0.0397 85.6277,0.0873 6.2389,0.0346 12.4777,0.0946 18.7161,0.18225 0.3508,13.02319 0.2615,26.05278 0.2663,39.07928 -0.035,9.8422 -0.086,19.6918 -0.4909,29.5245 -0.5102,3.0244 -2.3792,5.6608 -4.5604,7.7381 -2.2182,1.9793 -4.9659,3.3827 -7.8219,4.1271 -1.6503,0.1625 -3.3136,-0.024 -4.9697,0.057 -45.0906,0.01 -90.1822,0.1825 -135.2721,-0.1364 -2.0898,-0.05 -4.0953,0.042 -6.1201,-0.3315 -1.2399,-0.2739 -2.5873,-0.8033 -3.6113,-1.3396 -4.9454,-2.5676 -8.6116,-7.8755 -8.4597,-13.55 -0.4167,-15.2557 -0.3141,-30.52 -0.1646,-45.77861 0.1135,-2.99381 0.096,-6.04479 0.8626,-8.96048 1.1625,-3.50395 3.8001,-6.34961 6.7697,-8.44839 1.4205,-1.05003 3.1413,-1.63948 4.9073,-1.67955 4.2052,-0.36699 8.4262,-0.30741 12.6712,-0.41871 13.8822,-0.21916 27.7667,-0.10669 41.6498,-0.15257 z" /></g><g
       id="g195"
       inkscape:label="Fill"
       style="display:inline;stroke:none;stroke-opacity:1"
       transform="translate(0.8003223,2)"><path
         id="path195"
         style="mix-blend-mode:normal;fill:url(#linearGradient206);fill-opacity:1;fill-rule:nonzero;stroke:none;stroke-width:2.57579;stroke-opacity:1;paint-order:stroke markers fill"
         inkscape:label="Europa-R"
         d="m 2244.1595,1116.6836 c -4.6686,-1.498 -8.6228,-5.2941 -10.5892,-10.1658 l -1.002,-2.4823 -0.111,-144.35828 -0.1111,-144.35831 118.5974,0.11407 118.5975,0.11406 3.4343,0.96342 c 4.7452,1.33111 9.9268,3.97251 13.6252,6.9455 4.0853,3.28435 28.5573,27.98995 30.3335,30.62313 2.1154,3.13635 4.2264,7.88174 5.2984,11.91051 l 0.9708,3.64904 v 52.15975 c 0,48.92904 -0.047,52.29549 -0.765,54.35132 -1.5814,4.52961 -2.5917,5.54603 -20.3389,20.46007 -9.4071,7.90512 -17.5287,14.83472 -18.0484,15.39912 -2.5811,2.8027 -3.7793,8.5732 -2.5562,12.3122 0.3806,1.1637 11.611,21.034 24.9566,44.1563 l 24.2646,42.0405 v 3.5351 3.5352 l -27.797,-0.1221 -27.7971,-0.1223 -2.7904,-1.3708 c -1.5488,-0.7609 -3.6783,-2.289 -4.786,-3.4344 -1.4795,-1.5301 -8.8461,-13.9403 -28.4918,-47.9985 -14.5732,-25.2642 -26.6905,-46.1765 -26.9275,-46.4716 -0.6168,-0.7681 -117.9584,-0.7893 -118.7263,-0.021 -0.3947,0.3947 -0.5151,12.0871 -0.5151,50.0133 v 49.4981 l -23.0748,-0.024 c -21.5598,-0.022 -23.2438,-0.078 -25.6505,-0.8507 z M 2451.504,960.20428 c 7.0052,-1.82464 12.6936,-7.60164 14.623,-14.8509 0.8761,-3.29111 0.9071,-54.44849 0.035,-57.68421 -1.9849,-7.36547 -7.7507,-13.09817 -15.0986,-15.01205 -2.2208,-0.57847 -11.799,-0.65734 -79.836,-0.65734 -59.5594,0 -77.4306,0.11829 -77.8275,0.51516 -0.7473,0.74734 -0.7473,87.0871 0,87.83445 0.397,0.39687 18.3158,0.51515 78.0421,0.51515 68.3793,0 77.8262,-0.0779 80.062,-0.66026 z m -415.3396,17.8322 v -24.47002 h 75.3418 75.3419 v 24.47002 24.46992 h -75.3419 -75.3418 z m -279.044,139.22452 c -3.0173,-0.5072 -7.7693,-2.0507 -10.4402,-3.3911 -1.6502,-0.8282 -13.494,-8.8555 -26.3198,-17.8385 -24.4587,-17.1307 -26.5891,-18.8569 -30.2388,-24.504 -2.1664,-3.3517 -4.0435,-7.9799 -4.8724,-12.0135 -0.5916,-2.8778 -0.6801,-8.4231 -0.6801,-42.5652 0,-37.29331 0.043,-39.50727 0.8584,-44.27745 2.2722,-13.29086 8.1968,-24.98637 17.5891,-34.72118 10.7566,-11.14925 23.8291,-17.79828 38.9492,-19.81075 3.9011,-0.51922 18.5033,-0.61848 92.0205,-0.62553 67.3833,-0.006 87.5016,-0.1263 87.8988,-0.52354 0.3818,-0.38171 0.5152,-4.54206 0.5152,-16.06045 0,-14.05114 -0.078,-15.79645 -0.8134,-18.15851 -1.5312,-4.91994 -5.7467,-9.94223 -10.2683,-12.23348 -4.9659,-2.51642 -0.01,-2.38777 -92.5938,-2.40319 l -85.0011,-0.0141 -10.3031,-3.75838 -10.3031,-3.75837 -0.124,-4.26468 -0.1239,-4.26469 18.3671,-18.37098 18.3672,-18.37098 h 83.7913 c 57.1138,0 84.8607,0.14619 87.1496,0.45916 4.5001,0.61531 10.0908,2.52666 13.9393,4.76572 2.6422,1.53716 5.991,4.66965 20.5608,19.23396 15.2821,15.27616 17.6219,17.79039 19.1872,20.6175 2.0656,3.73029 3.7325,8.47195 4.3771,12.44965 0.6294,3.88532 0.6336,165.85207 0,171.62897 -1.4164,13.0019 -5.8065,25.4633 -12.7191,36.1033 -13.2456,20.3875 -34.8826,33.7429 -59.1637,36.5189 -3.7144,0.4248 -147.1215,0.57 -149.6105,0.1515 z m 151.0644,-57.1455 c 6.9286,-2.5024 11.8194,-7.6922 13.631,-14.4646 0.796,-2.9751 0.8618,-74.03421 0.069,-74.82663 -0.397,-0.39704 -19.1265,-0.51516 -81.6911,-0.51516 -88.8399,0 -83.4724,-0.15028 -88.4077,2.47509 -2.9863,1.58868 -7.0748,5.81892 -8.5399,8.83644 -2.3432,4.82549 -2.4239,5.94799 -2.4285,33.76476 0,15.5251 0.1695,26.6139 0.4386,28.273 1.441,8.8803 8.5526,15.8415 17.5812,17.2092 1.2985,0.1967 34.816,0.3308 74.4831,0.2979 l 72.1223,-0.06 z m -488.0636,56.2003 c -29.4756,-10.9933 -49.829,-37.578 -52.787,-68.9477 -0.2945,-3.123 -0.4453,-43.2142 -0.4455,-118.3858 l -4e-4,-113.6636 116.6617,0.11418 116.6619,0.11416 3.4344,0.97575 c 4.048,1.15009 7.8556,2.87092 11.2711,5.09401 2.8892,1.88057 31.2096,29.78693 34.9349,34.42406 2.952,3.67489 5.5564,8.81662 6.8993,13.62095 0.9441,3.37745 0.955,3.76394 1.1001,39.04298 0.1532,37.20646 -0.06,44.09386 -1.6002,51.6508 -3.116,15.29044 -11.6964,30.23895 -23.0907,40.22741 -11.2284,9.8432 -24.2553,15.8876 -38.7994,18.0025 -3.9852,0.5796 -14.5403,0.6636 -83.3669,0.6636 h -78.8042 l -0.6684,0.9541 c -0.5952,0.8497 -0.6682,6.2243 -0.6682,49.1547 v 48.2005 l -3.7564,-0.021 c -3.0252,-0.017 -4.3831,-0.2546 -6.9761,-1.2217 z m 163.1102,-154.51825 c 6.8929,-2.48795 11.769,-7.70237 13.5321,-14.47091 0.917,-3.5211 0.9784,-56.28406 0.069,-59.65747 -1.9851,-7.36547 -7.7507,-13.09817 -15.0986,-15.01205 -2.2187,-0.57786 -11.4104,-0.65734 -76.0275,-0.65734 -66.2493,0 -73.5704,0.0666 -74.1786,0.67461 -0.6044,0.60449 -0.6745,5.23583 -0.6745,44.5515 0,39.17854 0.072,43.97995 0.674,44.83929 l 0.6742,0.96238 74.1311,-0.11559 74.1311,-0.11559 z m -480.1471,155.46735 c -19.4018,-1.6847 -39.0799,-9.7152 -54.5461,-22.2599 -5.057,-4.1017 -12.6186,-11.9286 -16.4241,-17.0002 -10.8273,-14.43 -17.4521,-30.7564 -19.6415,-48.4062 -0.9085,-7.3234 -0.908,-119.00327 6e-4,-126.27636 2.2552,-18.05403 9.3065,-34.93731 20.7914,-49.7823 6.0785,-7.85693 16.8855,-17.49028 25.9321,-23.11582 11.7497,-7.30641 26.1754,-12.35486 40.8826,-14.3072 6.291,-0.83509 134.1021,-0.83399 140.3807,10e-4 18.5075,2.46206 34.3009,8.86466 49.0165,19.87123 5.5481,4.14973 14.9869,13.62624 19.1913,19.26778 11.9459,16.03005 18.4839,33.57049 20.0023,53.6623 0.5501,7.2814 0.5758,106.00877 0.03,114.46637 -0.915,14.168 -3.9973,25.6773 -10.3319,38.5785 -4.746,9.6658 -10.2673,17.4658 -17.8855,25.267 -16.6973,17.0984 -38.3682,27.5633 -61.8927,29.8878 -4.0695,0.4023 -130.9813,0.5387 -135.5055,0.1458 z m 124.282,-56.9446 c 20.05,-4.1522 35.3996,-17.2885 41.9717,-35.9196 3.0296,-8.5885 2.8899,-5.7972 2.8899,-57.74062 0,-51.38174 0.1039,-49.10258 -2.6097,-57.22391 -5.6306,-16.85106 -19.9591,-30.60012 -36.7878,-35.30017 -7.6836,-2.1459 -7.3015,-2.13282 -62.3462,-2.13196 -54.8881,8.6e-4 -55.2628,0.0134 -62.6776,2.09947 -16.9243,4.76148 -31.0733,18.29637 -36.6627,35.07162 -2.9691,8.91129 -2.8326,6.14167 -2.8326,57.48495 v 46.36412 l 1.005,4.5077 c 2.5041,11.2301 7.7866,20.6945 15.8505,28.3988 8.9641,8.5642 20.6865,13.8846 32.943,14.9518 2.125,0.185 26.756,0.3042 54.7356,0.2649 46.724,-0.066 51.1693,-0.1331 54.5209,-0.8271 z m -542.94164,56.8218 c -4.72017,-1.1217 -9.08352,-4.8634 -11.41781,-9.7908 l -1.36733,-2.8865 -0.11104,-144.57292 -0.11107,-144.57297 118.59742,0.11407 118.5974,0.11406 3.25983,0.93117 c 9.20195,2.62851 11.70701,4.49622 28.34105,21.13025 16.04801,16.04802 17.81118,18.3018 20.31262,25.96473 1.93682,5.9333 2.01672,8.53216 1.8759,61.01564 -0.1209,45.04569 -0.19611,49.55367 -0.85893,51.47447 -1.50012,4.34734 -2.97633,5.84092 -19.23055,19.45671 -18.38719,15.40249 -19.47164,16.39889 -20.91985,19.22139 -1.36383,2.6581 -1.73785,6.857 -0.86162,9.6728 0.33295,1.0699 11.5519,20.9105 24.93098,44.09 l 24.32559,42.1448 v 3.4667 3.4668 l -27.80666,-0.1192 -27.80665,-0.1195 -2.78086,-1.373 c -1.52947,-0.755 -3.69103,-2.3005 -4.80346,-3.4343 -1.53904,-1.5687 -8.42126,-13.1464 -28.78597,-48.4258 l -26.76338,-46.3642 -58.9597,-0.1088 c -43.21708,-0.08 -59.11523,0.02 -59.54217,0.3745 -0.48424,0.4019 -0.58244,8.835 -0.58244,50.0148 v 49.5314 l -23.07479,-0.044 c -12.69114,-0.024 -23.69656,-0.1918 -24.45651,-0.3725 z M 890.1524,960.27589 c 7.36547,-1.98494 13.09818,-7.75069 15.01205,-15.09857 0.55501,-2.13078 0.65734,-6.5442 0.65734,-28.34745 0,-15.76975 -0.1706,-26.72335 -0.43819,-28.13432 -1.06523,-5.61697 -5.62773,-11.75238 -10.62111,-14.28271 -5.0371,-2.55249 -0.15666,-2.41306 -84.46392,-2.41306 -59.55939,0 -77.43059,0.11829 -77.82746,0.51516 -0.39392,0.39392 -0.51515,10.78333 -0.51515,44.14617 0,23.99707 0.12878,43.75982 0.28619,43.91724 0.15741,0.1574 35.26866,0.2839 78.02498,0.2811 63.82955,-0.004 78.12283,-0.1086 79.88527,-0.58356 z M 437.45727,1116.8767 c -14.24111,-1.7008 -29.41081,-6.5863 -41.24327,-13.2824 -9.54705,-5.4028 -16.66135,-10.8404 -24.67014,-18.856 -9.20463,-9.2124 -15.70923,-18.2904 -21.23987,-29.6428 -6.63662,-13.6226 -10.12785,-26.7269 -11.15146,-41.8566 -0.25516,-3.7714 -0.42365,-43.99812 -0.42751,-102.06564 l -0.006,-95.84087 h 3.32843 3.32844 l 25.00525,25.008 25.00526,25.00799 0.003,74.26727 c 0.003,80.43035 -0.0645,77.93785 2.32548,86.14835 5.74651,19.7414 22.74867,34.7788 43.34117,38.3327 5.69597,0.9831 84.55888,0.9831 90.25483,0 17.26947,-2.9804 32.24429,-14.107 40.08077,-29.7809 0.75598,-1.5121 2.02138,-4.7239 2.81199,-7.1374 2.92836,-8.9396 2.77644,-2.7765 2.77644,-112.62584 v -99.22017 h 28.33369 28.33369 l -0.004,96.05551 c -0.002,59.28147 -0.16711,98.3564 -0.43043,102.0656 -2.00221,28.2051 -14.03468,53.9152 -34.2858,73.2598 -17.81004,17.0129 -39.83221,27.3232 -64.44792,30.1731 -8.00332,0.9266 -89.25005,0.9185 -97.02144,-0.01 z m -359.612399,0.2114 c -28.996323,-3.3786 -54.550304,-21.6863 -67.054973,-48.0405 -4.0054242,-8.4415 -6.7826172,-18.1547 -7.7587792,-27.1361 -0.2994092,-2.7548 -0.4530864,-28.4109 -0.4530864,-75.64182 0,-61.75779 0.089539,-72.16177 0.6587423,-76.53935 3.712817,-28.55447 21.3086233,-53.01004 47.2080243,-65.61219 9.880235,-4.80753 19.702667,-7.44576 31.124132,-8.35971 3.986967,-0.31904 36.340139,-0.42439 103.675569,-0.33757 l 97.88002,0.12618 2.44811,1.2022 c 3.12096,1.53259 5.96695,4.662 6.91808,7.60698 0.63612,1.96965 0.72232,4.71522 0.72232,23.0082 v 20.77167 H 191.02192 c -91.536425,0 -102.534064,0.0708 -105.480424,0.67943 -10.160071,2.09862 -18.078407,9.20665 -21.47108,19.2739 l -1.160445,3.44344 -0.138241,23.6649 c -0.124956,21.39045 -0.07118,23.73198 0.559526,24.36269 0.640078,0.64008 8.786548,0.69777 98.531024,0.69777 96.91205,0 97.85495,0.008 100.13724,0.86204 3.16973,1.18593 5.57935,3.38287 7.14346,6.51294 l 1.31724,2.63601 v 21.39636 21.39635 H 167.08517 c -79.830423,0 -103.492383,0.11734 -103.890209,0.51516 -0.387429,0.38743 -0.515158,6.03321 -0.515158,22.77102 0,18.6442 0.110506,22.7926 0.681005,25.5646 2.134111,10.3695 9.097537,18.243 19.206581,21.7165 l 2.650579,0.9109 100.670462,0.2151 c 96.72236,0.2068 100.76308,0.2465 103.03162,1.0142 6.30265,2.1328 6.16404,2.0146 28.65565,24.4564 l 21.14296,21.096 v 3.1183 3.1183 l -128.89683,-0.056 c -70.89327,-0.031 -130.282896,-0.2172 -131.976959,-0.4147 z" /></g></g><g
     id="g149"
     transform="matrix(1.0402875,0,0,1.0402875,48.278425,267.35389)"
     inkscape:label="Sega"><path
       class="st0"
       d="m 1782.5,-161.5 c -17.5,-55.7 -70.1,-95.5 -130.6,-95.5 -60.5,0 -113.1,39.8 -130.6,95.5 l -46.2,136.9 V -249 h -242 c -43,0 -82.8,17.5 -113.1,46.2 V -249 H 871.6 c -46.2,0 -87.6,19.1 -117.8,51 v -51 H 518.1 c -100.3,0 -183.1,82.8 -183.1,183.1 0,47.8 19.1,92.4 49.4,124.2 H 335 v 213.4 h 235.7 c 66.9,0 124.2,-35 157.6,-89.2 27.1,52.5 81.2,89.2 144.9,89.2 h 250 v -46.2 c 28.7,28.7 68.5,46.2 113.1,46.2 h 691.1 z"
       id="path4-0"
       style="display:none;fill:#ffffff"
       inkscape:label="SegaOutline"
       sodipodi:nodetypes="cscccsccsccsscccscsccscc" /><path
       id="path5"
       class="st2"
       d="m 1650.3992,-220.40039 c -46.2,0 -84.4,30.30117 -95.5,71.70117 L 1438.7,192.09961 v -250 H 1263.5008 V 4.19922 H 1378.2 V 173 h -143.5 c -35,0 -62.0996,-28.69961 -62.0996,-62.09961 V -88.19922 c 0,-35 28.6996,-62.10156 62.0996,-62.10156 h 205.4004 v -62.09961 h -207 c -68.5,0 -124.2012,55.70117 -124.2012,124.20117 v 199.09961 c 0,68.5 55.7012,124.19922 124.2012,124.19922 h 256.4004 l 129,-374.19922 c 4.8,-14.3 17.4984,-23.90039 33.3984,-23.90039 15.9,0 28.7004,9.60039 33.4004,23.90039 L 1790.5008,173 h -165.6016 v 62.09961 h 251.6016 l -129,-382.19922 c -12.7,-41.4 -51.0016,-73.30078 -97.1016,-73.30078 z m -1132.2988,8 c -81.2,0 -146.5,65.3 -146.5,146.5 0,81.2 65.3,146.5 146.5,146.5 h 51 c 4.8,0 8,3.2 8,8 -0.1,4.7 -3.2004,7.90039 -6.4004,7.90039 H 371.6004 v 62.09961 H 570.7 C 608.9,158.59961 640.7996,126.8 640.7996,88.5 640.7996,50.2 609,18.40039 570.7,18.40039 h -51 C 473.5,18.40039 435.2996,-19.8 435.2996,-66 c 0,-46.2 38.2004,-84.40039 84.4004,-84.40039 h 197.5 v -62 z m 353.5,0 c -68.5,0 -124.2012,55.70117 -124.2012,124.20117 v 199.09961 c 0,68.5 55.7012,124.19922 124.2012,124.19922 h 213.4004 V 173 H 871.6004 c -35,0 -62.0996,-28.69961 -62.0996,-62.09961 V -88.19922 c 0,-35 28.6996,-62.10156 62.0996,-62.10156 h 213.4004 v -62.09961 z m 780.2988,63.70117 c -8,0 -15.8996,6.39922 -19.0996,12.69922 L 1505.3992,235 H 1578.7 l 44.5996,-132.19922 V 158.5 h 1.5 v 0.0996 H 1769.7 l -98.6992,-293 c -3.2,-8 -9.6016,-14.29883 -19.1016,-14.29883 z M 518.1004,-136 c -38.2,0 -70.0996,31.79961 -70.0996,70.09961 0,38.3 31.7996,70.09961 70.0996,70.09961 h 51 c 46.2,0 84.4004,38.20039 84.4004,84.40039 0,46.2 -38.2004,84.40039 -84.4004,84.40039 h -197.5 v 62.09961 H 570.7 c 81.2,0 146.5,-65.3 146.5,-146.5 0,-81.2 -65.3,-146.5 -146.5,-146.5 h -51 c -4.8,0 -8,-3.2 -8,-8 0.1,-3.2 3.2004,-6.40039 6.4004,-6.40039 H 717.2 V -136 Z m 353.4004,0 c -27.1,0 -47.8008,20.70078 -47.8008,47.80078 V 4.19922 h 216.5996 c 0.1,0 0.1,-62.09961 0.1,-62.09961 h -154.5 c 0,-8 6.4008,-14.29883 14.3008,-14.29883 H 1083.3 V -136 Z m 361.5996,0 c -27.1,0 -47.8008,20.70078 -47.8008,47.80078 v 199.09961 c 0,27.1 20.7008,47.79883 47.8008,47.79883 h 129 V 18.5 h -98.7012 v 62.09961 h 36.6016 v 14.30078 h -36.6016 c -8,0 -14.2988,-6.40078 -14.2988,-14.30078 V -59.5 c 0,-8 6.3988,-14.30078 14.2988,-14.30078 H 1440.2 V -136 Z M 823.8992,20.09961 V 112.5 c 0,27.1 20.7008,47.80078 47.8008,47.80078 h 213.4004 V 98.19922 H 900.3992 c -8.1,-1.7 -14.3984,-8.1 -14.3984,-16 h 154.5 V 20.09961 Z m 826.4004,4.80078 20.7012,63.69922 h -43 z"
       inkscape:label="Sega"
       style="fill:#034693" /></g><g
     id="g164"
     inkscape:label="Europa-R"
     transform="translate(2.9116453,-189.1207)"
     style="stroke:#ff1e1e;stroke-opacity:1" /></svg>
