<?xml version="1.0" encoding="UTF-8" standalone="no"?>
<!-- Created by ERK -->

<svg
   version="1.2"
   width="574.78497"
   height="163.849"
   viewBox="-2.153 -3.275 574.785 163.849"
   xml:space="preserve"
   id="svg5"
   sodipodi:docname="segacdh.svg"
   inkscape:version="1.4 (86a8ad7, 2024-10-11)"
   xmlns:inkscape="http://www.inkscape.org/namespaces/inkscape"
   xmlns:sodipodi="http://sodipodi.sourceforge.net/DTD/sodipodi-0.dtd"
   xmlns="http://www.w3.org/2000/svg"
   xmlns:svg="http://www.w3.org/2000/svg"><defs
   id="defs5">
        
    
        
    </defs><sodipodi:namedview
   id="namedview5"
   pagecolor="#ffffff"
   bordercolor="#000000"
   borderopacity="0.25"
   inkscape:showpageshadow="2"
   inkscape:pageopacity="0.0"
   inkscape:pagecheckerboard="true"
   inkscape:deskcolor="#d1d1d1"
   inkscape:zoom="2.8284271"
   inkscape:cx="297.86873"
   inkscape:cy="94.929086"
   inkscape:window-width="3840"
   inkscape:window-height="2066"
   inkscape:window-x="-11"
   inkscape:window-y="-11"
   inkscape:window-maximized="1"
   inkscape:current-layer="svg5" />
    
    
    
    
    <g
   id="g1"
   inkscape:label="SegaCD"><path
     d="m -2.153,-3.275 h 553 v 83.5 h -553 z"
     id="path1"
     style="display:inline"
     inkscape:label="Background" /><path
     d="m 51.921219,8.5902344 c -18.836,0 -36.019531,5.5945316 -36.019531,19.0195316 0,26.526 56.410156,7.109531 56.410156,22.769531 0,4.398 -6.020407,8.550781 -23.691406,8.550781 -12.428,0 -24.953125,-3.352359 -24.953125,-8.068359 -1e-6,-0.638 0.195312,-0.958297 0.195312,-1.279297 l -1.552734,-0.640625 -8.058594,13.585937 1.261719,0.240235 c 0.485,-0.243 0.776375,-0.640625 1.359375,-0.640625 2.233,0 9.02975,6.234375 32.71875,6.234375 24.855,0 37.283203,-8.151219 37.283203,-18.699219 0,-28.926 -57.185547,-9.751469 -57.185547,-22.855469 0,-4.954 6.50439,-8.789062 21.650391,-8.789062 15.826,0 24.953124,5.593812 24.953124,6.632812 0,0.4 -0.09636,0.799141 -0.193359,1.119141 l 1.552734,0.71875 7.47461,-11.986328 -1.552735,-0.398438 c -0.292,0.24 -0.486046,0.558594 -1.748046,0.558594 -1.165,0 -13.010297,-6.0722656 -29.904297,-6.0722656 z"
     style="display:inline;fill:#c6af75"
     id="path19"
     inkscape:label="S" /><path
     d="m 160.6595,7.63125 c 0,1.118 -0.97078,1.7578125 -3.30078,1.7578125 H 94.345047 v 1.1191405 c 2.135,0 2.52539,0.638484 2.52539,2.396485 v 51.138671 c 0,1.758 -0.38939,2.398438 -2.52539,2.398438 v 1.11914 h 63.886723 c 2.33,0 3.30078,0.639813 3.30078,1.757813 h 1.35937 V 56.215234 h -1.35937 c 0,1.277 -0.97078,1.917969 -3.30078,1.917969 H 110.65755 V 42.469141 h 30.48632 c 1.165,0 2.03844,0.161468 2.52344,0.480468 0.583,0.321 0.77735,0.7985 0.77735,1.4375 h 1.35937 V 30.965234 h -1.35937 c 0,1.438 -0.97078,2.078125 -3.30079,2.078125 H 110.65755 V 18.81875 h 46.70117 c 2.33,0 3.30078,0.640125 3.30078,2.078125 h 1.35937 V 7.63125 Z"
     style="display:inline;fill:#c6af75"
     id="path17"
     inkscape:label="E" /><path
     d="m 212.20637,8.5882813 c -20.19499,0 -43.10742,9.1107187 -43.10742,29.8867187 0,20.774 19.61236,29.886719 41.94336,29.886719 16.797,0 31.74824,-6.075172 37.86524,-8.951172 v -1.119141 c -1.262,-0.24 -1.74805,-0.719047 -1.74805,-1.998047 V 40.553125 c 0,-1.758 0.8747,-2.396641 1.8457,-2.556641 v -1.11914 h -32.33008 c -1.94199,0 -3.10742,-0.799969 -3.10742,-1.917969 h -1.35937 v 14.0625 h 1.35937 c 0,-1.117 1.16542,-1.916016 3.10742,-1.916016 h 16.69922 v 6.63086 c -2.913,1.756 -10.09803,5.191406 -22.33203,5.191406 -14.952,0 -28.15625,-6.628484 -28.15625,-20.771484 0,-13.505 13.20463,-20.138672 29.51563,-20.138672 12.913,0 23.39843,4.95364 23.39843,7.43164 9.6e-4,0.45964 -0.0637,0.916437 -0.19335,1.357422 l 1.35937,0.720703 9.41602,-13.105468 -1.35743,-0.478516 c -0.388,0.479 -1.26271,0.878906 -2.13671,0.878906 -0.68,0 -4.46533,-1.439343 -9.61133,-3.277343 -5.534,-1.439 -13.10832,-2.9570317 -21.07032,-2.9570317 z"
     style="display:inline;fill:#c6af75"
     id="path18"
     inkscape:label="G" /><path
     d="m 283.07552,9.3890625 v 1.1210935 c 1.265,0.159 2.03906,0.5585 2.03906,1.4375 0,0.718 -0.58241,1.597485 -1.06641,2.396485 l -26.50586,49.0625 c -1.359,2.558 -1.94145,2.957109 -3.68945,3.037109 v 1.117187 h 17.2793 v -1.11914 c -0.874,-0.078 -1.45704,-0.478266 -1.45704,-1.197266 0,-1.039 1.4569,-2.63839 7.0879,-13.02539 h 33.30273 c 6.506,11.428 7.37891,12.546781 7.37891,13.425781 0,0.399 -0.48405,0.798828 -1.74805,0.798828 v 1.119141 h 19.32031 V 66.44375 c -2.037,0 -2.42815,-0.559109 -3.78515,-3.037109 L 303.07552,13.785547 c -0.485,-0.8 -0.875,-1.439125 -0.875,-2.078125 0,-0.56 0.58401,-1.039219 2.04101,-1.199219 V 9.3890625 Z m 9.71093,12.7832035 11.65235,20.9375 h -23.10938 z"
     style="display:inline;fill:#c6af75"
     id="path20"
     inkscape:label="A" /><path
     fill="#c6af75"
     d="M 547.578,77.074 H 1.117 V -0.125 h 546.46 V 77.074 Z M 6.034,72.157 H 542.661 V 4.792 H 6.034 Z"
     id="path3"
     style="display:inline"
     inkscape:label="Border" /><path
     fill="#c6af75"
     d="M 351.853,9.389 V 67.56 H 538.708 V 9.389 Z m 7.922,40.836 c -1.555,-10.357 32.85,-24.163 77.67,-31.438 -1.012,0.261 -2.969,0.762 -2.969,0.762 l -5.623,1.374 C 405.99,26.51 389.972,36.575 391.308,45.5 c 1.369,9.137 20.469,14.083 44.766,12.393 1.35,-0.096 6.139,-0.326 7.182,-0.373 -44.989,6.179 -81.93,3.064 -83.481,-7.295 z m 112.039,2.237 c -9.932,2.257 -22.346,4.173 -22.346,4.173 V 30.676 l 6.4,21.124 c 0,0 15.242,-2.474 26.844,-7.304 10.084,-4.199 16.34,-9.466 15.918,-15.077 -0.684,-9.115 -20.068,-13.978 -44,-12.439 -1.596,0.103 -6.895,0.375 -7.936,0.421 44.98,-6.181 81.916,-3.064 83.471,7.293 1.321,8.81 -23.371,20.109 -58.351,27.768 z"
     id="path4"
     style="display:inline"
     inkscape:label="CD" /><path
     d="m 553.886,-1.576 h 3.321 v 8.848 h 1.632 v -8.848 h 3.323 V -3 h -8.276 z M 570.556,-3 567.509,5.09 564.478,-3 h -2.074 V 7.272 h 1.56 V -0.4 l 2.881,7.672 h 1.346 l 2.879,-7.669 v 7.669 h 1.562 V -3 Z"
     id="path5"
     inkscape:label="TM"
     style="fill:#c6af75" /></g><g
   id="g23"
   inkscape:label="Hacks"
   transform="translate(46.0005,-15.469116)"
   style="display:inline"><path
     d="m -2.153,92.543116 h 461 v 83.499994 h -461 z"
     id="path21"
     style="display:inline"
     inkscape:label="Background"
     sodipodi:nodetypes="ccccc" /><path
     fill="#c6af75"
     d="M 455.578,172.89211 H 1.117 V 95.693116 h 454.46 v 77.198994 z m -449.544,-4.917 h 444.627 v -67.365 H 6.034 Z"
     id="path22"
     style="display:inline"
     inkscape:label="Border"
     sodipodi:nodetypes="ccccccccccc" /><path
     id="path1-9"
     style="display:inline;fill:#c6af75;stroke-width:1.24043"
     d="m 14.251297,105.2062 v 1.11914 c 2.135,0 2.523437,0.63848 2.523437,2.39648 v 51.13867 c 0,1.758 -0.387437,2.39844 -2.523437,2.39844 v 1.1211 h 2.523437 13.787112 2.52344 v -1.1211 c -2.136,0 -2.52344,-0.64044 -2.52344,-2.39844 v -21.57421 h 35.921872 v 21.57421 c 0,1.758 -0.38743,2.39844 -2.52343,2.39844 v 1.1211 h 2.52343 13.78711 2.52344 v -1.1211 c -2.136,0 -2.52344,-0.64044 -2.52344,-2.39844 v -51.13867 c 0,-1.758 0.38844,-2.39648 2.52344,-2.39648 v -1.11914 h -2.52344 -13.78711 -2.52343 v 1.11914 c 2.135,0 2.52343,0.63848 2.52343,2.39648 v 20.13867 H 30.561846 v -20.13867 c 0,-1.758 0.38844,-2.39648 2.52344,-2.39648 v -1.11914 h -2.52344 -13.787112 z"
     inkscape:label="H" /><path
     d="m 122.01665,105.20718 v 1.11914 c 1.265,0.159 2.03906,0.5585 2.03906,1.4375 0,0.718 -0.58241,1.59748 -1.06641,2.39648 l -26.50584,49.0625 c -1.359,2.558 -1.94146,2.95711 -3.68946,3.03711 v 1.11719 h 17.27929 v -1.11914 c -0.874,-0.078 -1.45508,-0.47827 -1.45508,-1.19727 0,-1.039 1.45494,-2.63839 7.08594,-13.02539 h 33.30273 c 6.506,11.428 7.37891,12.54678 7.37891,13.42578 0,0.399 -0.48405,0.79883 -1.74805,0.79883 v 1.11914 h 19.32031 v -1.11914 c -2.03699,0 -2.42815,-0.55911 -3.78515,-3.03711 l -28.15625,-49.62109 c -0.485,-0.8 -0.875,-1.43913 -0.875,-2.07813 0,-0.56 0.58401,-1.03726 2.04101,-1.19726 v -1.11914 z m 9.71094,12.7832 11.65234,20.93555 h -23.10938 z"
     style="display:inline;fill:#c6af75"
     id="path9"
     inkscape:label="A" /><path
     fill="#c6af75"
     d="m 183.958,105.20761 v 58.171 h 97.615 v -58.171 z m 7.922,40.836 c -1.555,-10.357 32.85,-24.163 77.67,-31.438 -1.012,0.261 -2.969,0.762 -2.969,0.762 l -5.623,1.374 c -22.863,5.587 -38.881,15.652 -37.545,24.577 1.369,9.137 20.469,14.083 44.766,12.393 1.35,-0.096 6.139,-0.326 7.182,-0.373 -44.989,6.179 -81.93,3.064 -83.481,-7.295 z"
     id="path4-4"
     style="display:inline"
     inkscape:label="C"
     sodipodi:nodetypes="ccccccccccccc" /><path
     id="path16"
     style="display:inline;fill:#c6af75;stroke-width:1.24043"
     d="m 291.573,105.20613 v 1.11914 c 2.135,0 2.52344,0.63848 2.52344,2.39648 v 51.13867 c 0,1.75802 -0.38744,2.39844 -2.52344,2.39844 v 1.1211 h 2.52344 13.78711 2.52343 v -1.1211 c -2.136,0 -2.52343,-0.64042 -2.52343,-2.39844 v -17.65625 c 0.59385,-0.43737 6.2323,-4.58661 9.82031,-7.22851 l 23.94336,26.06055 c 0.1035,0.16407 0.17773,0.32263 0.17773,0.48046 0,0.3391 -0.56495,0.62736 -1.92187,0.73633 -0.0442,6e-4 -0.0753,0.006 -0.1211,0.006 v 1.1211 h 2.52344 1.57617 9.8125 2.52344 1.57617 2.32227 0.20117 v -1.1211 c -0.59166,0 -1.36672,-0.18702 -2.17383,-0.45312 -0.59813,-0.23863 -0.95839,-0.60168 -2.40625,-2.08008 l -28.42187,-31.82617 c 12.84934,-9.45622 26.02468,-19.14487 26.125,-19.17774 0,0 2.98804,-2.39648 5.12304,-2.39648 v -1.11914 h -2.52343 -0.0762 -2.52343 -13.71094 -0.0762 -2.52344 v 0.61133 0.5 c 0.10774,0.01 0.22341,0.019 0.32031,0.0312 0.0836,0.009 0.16877,0.0229 0.25391,0.0371 0.005,7.7e-4 0.009,10e-4 0.0137,0.002 0.0683,0.0116 0.13241,0.0239 0.19336,0.0371 0.006,0.001 0.0118,0.003 0.0176,0.004 0.0299,0.007 0.0598,0.0144 0.0898,0.0215 0.0204,0.005 0.0412,0.0102 0.0605,0.0156 0.32694,0.0911 0.50781,0.21607 0.50781,0.38672 0,0.1005 -0.0844,0.2102 -0.19531,0.32227 l -30.50781,22.41992 v -20.87305 c 0,-1.758 0.38843,-2.39648 2.52343,-2.39648 v -1.11914 h -2.52343 -13.78711 z m 64.57422,1.24609 c -0.16407,0.0423 -0.28381,0.0896 -0.36133,0.14063 0.0775,-0.051 0.19726,-0.0983 0.36133,-0.14063 z m -44.92774,21.52539 c 0.28969,0.0538 0.78444,0.0687 1.4336,0.0449 -0.64916,0.0238 -1.14391,0.009 -1.4336,-0.0449 z"
     sodipodi:nodetypes="ccssccccccscccsccccccccccccccccccccccccccccccccsccsccccccccccc"
     inkscape:label="K" /><path
     d="m 407.98888,104.40737 c -18.836,0 -36.02149,5.59454 -36.02149,19.01954 0,26.526 56.41016,7.10953 56.41016,22.76953 0,4.398 -6.02041,8.55078 -23.69141,8.55078 -12.428,0 -24.95117,-3.35236 -24.95117,-8.06836 0,-0.638 0.19336,-0.9583 0.19336,-1.2793 l -1.55274,-0.64062 -8.05859,13.58593 1.26172,0.24024 c 0.485,-0.243 0.77637,-0.64063 1.35937,-0.64063 2.233,0 9.02975,6.23438 32.71875,6.23438 24.855,0 37.28321,-8.15122 37.28321,-18.69922 0,-28.926 -57.18555,-9.74952 -57.18555,-22.85352 0,-4.954 6.50439,-8.79101 21.65039,-8.79101 15.826,0 24.95313,5.59381 24.95313,6.63281 0,0.4 -0.0964,0.79914 -0.19336,1.11914 l 1.55273,0.71875 7.47656,-11.98633 -1.55468,-0.39843 c -0.292,0.24 -0.48605,0.55859 -1.74805,0.55859 -1.165,0 -13.00834,-6.07227 -29.90234,-6.07227 z"
     style="display:inline;fill:#c6af75"
     id="path8"
     inkscape:label="S" /></g>
</svg>
