<?xml version="1.0" encoding="UTF-8" standalone="no"?>
<svg
   xmlns:dc="http://purl.org/dc/elements/1.1/"
   xmlns:cc="http://creativecommons.org/ns#"
   xmlns:rdf="http://www.w3.org/1999/02/22-rdf-syntax-ns#"
   xmlns:svg="http://www.w3.org/2000/svg"
   xmlns="http://www.w3.org/2000/svg"
   xmlns:sodipodi="http://sodipodi.sourceforge.net/DTD/sodipodi-0.dtd"
   xmlns:inkscape="http://www.inkscape.org/namespaces/inkscape"
   enable-background="new 0 0 288.411 75.415"
   viewBox="0 0 288.411 75.415"
   version="1.1"
   id="svg36"
   sodipodi:docname="sega32x-w.svg"
   inkscape:version="0.92.4 (5da689c313, 2019-01-14)">
  <metadata
     id="metadata42">
    <rdf:RDF>
      <cc:Work
         rdf:about="">
        <dc:format>image/svg+xml</dc:format>
        <dc:type
           rdf:resource="http://purl.org/dc/dcmitype/StillImage" />
      </cc:Work>
    </rdf:RDF>
  </metadata>
  <defs
     id="defs40" />
  <sodipodi:namedview
     pagecolor="#ffffff"
     bordercolor="#666666"
     borderopacity="1"
     objecttolerance="10"
     gridtolerance="10"
     guidetolerance="10"
     inkscape:pageopacity="0"
     inkscape:pageshadow="2"
     inkscape:window-width="640"
     inkscape:window-height="480"
     id="namedview38"
     showgrid="false"
     inkscape:zoom="1.2378168"
     inkscape:cx="-144.20551"
     inkscape:cy="37.7075"
     inkscape:current-layer="svg36"
     inkscape:object-nodes="false" />
  <g
     id="g26"
     style="fill:#f2f2f2"
     transform="matrix(0.81232492,0,0,0.75361858,29.891337,10.502362)">
    <path
       d="M 26.048,6.682 V 2.895 H 61.39 c 1.684,0 2.524,1.262 2.524,3.787 z m 0,11.36 V 7.944 h 6.311 v 10.098 z m 15.146,0 V 7.944 h 6.311 v 10.098 z m 16.409,0 V 7.944 h 6.311 v 10.098 z"
       id="path2"
       inkscape:connector-curvature="0"
       style="fill:#f2f2f2" />
    <path
       d="M 67.701,6.682 V 2.895 h 23.982 v 3.787 z m 0,7.573 V 7.944 h 6.311 c 0,0.843 0.421,1.262 1.262,1.262 h 15.147 v 3.787 H 74.012 c 0,0.843 0.421,1.262 1.262,1.262 h 16.409 v 3.787 H 70.226 c -1.684,0 -2.525,-1.262 -2.525,-3.787 z"
       id="path4"
       inkscape:connector-curvature="0"
       style="fill:#f2f2f2" />
    <path
       d="m 95.47,6.682 c 0,-2.524 0.841,-3.787 2.524,-3.787 h 23.982 v 3.787 z m 0,7.573 V 7.944 h 6.311 v 6.311 h 12.622 c 0.841,0 1.262,-0.212 1.262,-0.631 0,-0.419 -0.422,-0.631 -1.262,-0.631 h -6.311 V 9.206 h 11.36 c 2.524,0 3.787,1.262 3.787,3.787 v 1.262 c 0,2.524 -0.841,3.787 -2.524,3.787 h -22.72 c -1.684,0 -2.525,-1.262 -2.525,-3.787 z"
       id="path6"
       inkscape:connector-curvature="0"
       style="fill:#f2f2f2" />
    <path
       d="m 127.026,6.682 c 0,-2.524 0.841,-3.787 2.524,-3.787 h 21.458 c 1.684,0 2.524,1.262 2.524,3.787 z m 0,11.36 V 7.944 h 6.311 v 10.098 z m 20.196,0 V 15.518 H 134.6 v -3.787 h 12.622 V 7.944 h 6.311 v 10.098 z"
       id="path8"
       inkscape:connector-curvature="0"
       style="fill:#f2f2f2" />
    <path
       d="M 157.32,6.682 V 2.895 h 23.982 c 1.684,0 2.524,1.262 2.524,3.787 z m 0,11.36 V 7.944 h 6.311 v 10.098 z m 23.982,0 h -16.409 v -3.787 h 12.622 V 7.944 h 6.311 v 6.311 c 0,2.525 -0.84,3.787 -2.524,3.787 z"
       id="path10"
       inkscape:connector-curvature="0"
       style="fill:#f2f2f2" />
    <path
       d="m 187.613,6.682 c 0,-2.524 0.841,-3.787 2.524,-3.787 h 21.458 c 1.684,0 2.524,1.262 2.524,3.787 z m 0,11.36 V 7.944 h 6.311 v 10.098 z m 7.574,-2.525 V 11.73 h 11.36 c 0.841,0 1.262,-0.419 1.262,-1.262 V 7.944 h 6.311 v 3.787 c 0,2.524 -0.841,3.787 -2.524,3.787 l 3.787,2.524 h -6.311 l -3.787,-2.524 h -10.098 z"
       id="path12"
       inkscape:connector-curvature="0"
       style="fill:#f2f2f2" />
    <path
       d="M 219.169,18.042 V 2.895 h 6.311 v 15.147 z"
       id="path14"
       inkscape:connector-curvature="0"
       style="fill:#f2f2f2" />
    <path
       d="m 233.053,6.682 -2.524,-3.787 h 7.573 l 2.524,3.787 z m 7.574,11.36 -6.311,-10.098 h 7.573 l 3.787,6.059 3.787,-6.059 h 7.573 l -6.311,10.098 z m 9.917,-11.36 2.524,-3.787 h 7.573 l -2.524,3.787 z"
       id="path16"
       inkscape:connector-curvature="0"
       style="fill:#f2f2f2" />
    <path
       d="M 264.429,6.682 V 2.895 h 23.982 v 3.787 z m 0,7.573 V 7.944 h 6.311 c 0,0.843 0.421,1.262 1.262,1.262 h 15.147 v 3.787 H 270.74 c 0,0.843 0.421,1.262 1.262,1.262 h 16.409 v 3.787 h -21.458 c -1.683,0 -2.524,-1.262 -2.524,-3.787 z"
       id="path18"
       inkscape:connector-curvature="0"
       style="fill:#f2f2f2" />
    <path
       d="M 26.048,34.667 V 22.361 h 64.538 c 7.436,0 11.155,4.102 11.155,12.307 H 26.048 Z m 0,36.921 V 59.281 h 51.79 c 2.655,0 3.984,-0.685 3.984,-2.051 0,-1.366 -1.329,-2.051 -3.984,-2.051 H 41.983 V 42.872 h 35.058 c 3.187,0 4.781,-1.366 4.781,-4.102 h 19.919 v 20.511 c 0,8.205 -3.719,12.307 -11.155,12.307 z"
       id="path20"
       inkscape:connector-curvature="0"
       style="fill:#f2f2f2" />
    <path
       d="M 109.708,34.667 V 22.361 h 63.741 c 7.968,0 11.951,4.102 11.951,12.307 h -75.692 z m 0,20.512 c 0,-8.205 3.984,-12.307 11.951,-12.307 h 39.838 c 2.655,0 3.984,-1.366 3.984,-4.102 H 185.4 v 4.102 c 0,8.205 -3.984,12.307 -11.951,12.307 h -43.822 c -2.655,0 -3.984,1.366 -3.984,4.102 H 185.4 V 71.588 H 109.707 V 55.179 Z"
       id="path22"
       inkscape:connector-curvature="0"
       style="fill:#f2f2f2" />
    <path
       d="M 211.125,34.667 193.368,22.36 h 23.903 l 17.7,12.307 z M 264.281,71.588 240.89,55.354 217.499,71.587 h -23.903 l 35.342,-24.555 -11.895,-8.263 h 47.692 l -11.895,8.263 35.342,24.555 h -23.901 z m 0.227,-49.227 h 23.903 l -17.757,12.307 h -23.846 z"
       id="path24"
       inkscape:connector-curvature="0"
       style="fill:#f2f2f2" />
  </g>
  <path
     d="m 35.770133,67.336507 c -1.609216,0 -2.990981,-0.532808 -4.146107,-1.597672 -1.155126,-1.064863 -1.732689,-2.254826 -1.732689,-3.569137 v -7.463085 h 2.475154 v 6.888828 c 0,1.058834 0.336303,1.897611 1.010533,2.516332 0.674229,0.618721 1.47112,0.928458 2.393109,0.928458 0.934173,0 1.735938,-0.308984 2.403669,-0.928458 0.666107,-0.618721 0.999972,-1.457498 0.999972,-2.516332 v -1.148515 c 0,-0.90585 0.271317,-1.610483 0.815574,-2.114654 0.542633,-0.504171 1.199804,-0.755879 1.969076,-0.755879 0.757087,0 1.408571,0.251708 1.959327,0.755879 0.550757,0.504171 0.825323,1.208804 0.825323,2.114654 v 6.888827 H 42.26792 v -6.888827 c 0,-0.382838 -0.103166,-0.574258 -0.309496,-0.574258 -0.206331,0 -0.309496,0.19142 -0.309496,0.574258 v 1.722018 c 0,1.313557 -0.574314,2.503521 -1.722941,3.569138 -1.147815,1.065617 -2.532829,1.598425 -4.155854,1.598425 z m 0,-2.870533 c -0.757087,0 -1.408572,-0.251709 -1.959328,-0.75588 -0.550756,-0.504171 -0.825322,-1.20805 -0.825322,-2.1139 v -6.888827 h 2.475154 v 6.888827 c 0,0.382838 0.103165,0.574258 0.309496,0.574258 0.20633,0 0.309496,-0.19142 0.309496,-0.574258 v -1.722018 c 0,-1.313557 0.574313,-2.503521 1.722941,-3.569138 1.147003,-1.064863 2.532016,-1.597671 4.155854,-1.597671 1.609215,0 2.99098,0.532808 4.146106,1.597671 1.155126,1.064863 1.732689,2.254827 1.732689,3.569138 v 7.463084 h -2.475154 v -6.888827 c 0,-1.058834 -0.336302,-1.897612 -1.010532,-2.516332 -0.67423,-0.618721 -1.47112,-0.928458 -2.393109,-0.928458 -0.934174,0 -1.735939,0.308983 -2.403669,0.928458 -0.666107,0.61872 -0.999972,1.457498 -0.999972,2.516332 v 1.148515 c 0,0.905849 -0.271317,1.610483 -0.815575,2.114654 -0.542633,0.502663 -1.199803,0.754372 -1.969075,0.754372 z"
     id="path28"
     inkscape:connector-curvature="0"
     style="fill:#002e82;stroke-width:0.78242135" />
  <path
     d="m 35.460637,53.558852 c -3.713137,0 -5.5693,-1.722772 -5.5693,-5.166809 v -6.888827 h 2.475154 v 6.888827 c 0,1.913438 1.031653,2.870533 3.094146,2.870533 h 6.80647 c 2.062493,0 3.094146,-0.957095 3.094146,-2.870533 v -6.888827 h 2.475154 v 6.888827 c 0,3.444791 -1.856163,5.166809 -5.5693,5.166809 z m 3.094146,-2.870533 h -3.094146 c -1.649832,0 -2.475154,-0.765677 -2.475154,-2.296276 v -6.888827 h 2.475154 v 6.31457 c 0,0.382838 0.206331,0.574257 0.618992,0.574257 v -5.166809 h 2.475154 z m 0.618991,0 v -7.463085 h 2.475154 v 5.166809 c 0.412661,0 0.618992,-0.191419 0.618992,-0.574257 v -6.31457 h 2.475154 v 6.888827 c 0,1.530599 -0.825323,2.296276 -2.475154,2.296276 z"
     id="path30"
     inkscape:connector-curvature="0"
     style="fill:#002e82;stroke-width:0.78242135" />
  <path
     d="m 35.460637,40.354701 c -3.713137,0 -5.5693,-1.722018 -5.5693,-5.166809 v -6.888827 h 2.475154 v 6.888827 c 0,1.913438 1.031653,2.870533 3.094146,2.870533 h 6.80647 c 2.062493,0 3.094146,-0.957095 3.094146,-2.870533 V 30.59534 h -6.80647 v 4.018295 h -2.475154 v -6.31457 h 11.75759 v 6.888827 c 0,3.444791 -1.856162,5.166809 -5.569299,5.166809 z m 0,-2.870533 c -1.649832,0 -2.475154,-0.765677 -2.475154,-2.296276 v -6.888827 h 2.475154 v 6.31457 c 0,0.382838 0.206331,0.574257 0.618992,0.574257 h 5.569299 c 0.412661,0 0.618992,-0.191419 0.618992,-0.574257 V 33.46512 h -0.618992 v 1.148515 h -2.475154 v -3.444791 h 5.5693 v 4.018294 c 0,1.5306 -0.825323,2.296276 -2.475154,2.296276 h -6.807283 z"
     id="path32"
     inkscape:connector-curvature="0"
     style="fill:#002e82;stroke-width:0.78242135" />
  <path
     d="m 45.361253,20.357432 v -6.793118 l -12.582101,4.592552 c -0.274565,0.127361 -0.412661,0.382838 -0.412661,0.765676 0,0.318781 0.138096,0.574257 0.412661,0.765677 l 15.057255,5.166809 v 2.296276 L 31.95383,21.793075 c -1.375266,-0.638314 -2.062493,-1.59541 -2.062493,-2.870533 0,-1.466542 0.687227,-2.423637 2.062493,-2.870533 l 15.882577,-5.549647 v 9.85507 z m -0.618992,0 h -1.341148 l 4.434482,1.626309 v 2.296276 l -14.437451,-4.97539 c -0.274566,-0.06406 -0.412661,-0.191419 -0.412661,-0.382839 0,-0.191419 0.138095,-0.31878 0.412661,-0.382838 l 11.34493,-4.018294 v 5.836776 z m -5.362969,-1.43489 2.887815,1.052805 v -2.10561 z"
     id="path34"
     inkscape:connector-curvature="0"
     style="fill:#002e82;stroke-width:0.78242135" />
</svg>
