<?xml version="1.0" encoding="UTF-8" standalone="no"?>
<!DOCTYPE svg PUBLIC "-//W3C//DTD SVG 1.1//EN" "http://www.w3.org/Graphics/SVG/1.1/DTD/svg11.dtd">
<svg xmlns="http://www.w3.org/2000/svg" version="1.1" viewBox="0 0 600 300">
<g stroke-width="2.00" fill="none" stroke-linecap="butt">
<path stroke="#0a2c4f" vector-effect="non-scaling-stroke" d="
  M 573.20 203.64
  L 493.82 203.69
  A 0.62 0.61 -5.7 0 1 493.21 203.20
  L 492.96 202.00"
/>
<path stroke="#0a2c4f" vector-effect="non-scaling-stroke" d="
  M 441.25 201.96
  Q 441.00 203.74 439.00 203.74
  Q 388.53 203.77 338.06 203.73
  Q 335.13 203.73 327.25 201.79"
/>
<path stroke="#0a2c4f" vector-effect="non-scaling-stroke" d="
  M 97.50 201.54
  C 93.61 202.39 90.22 203.30 86.18 203.35
  Q 56.59 203.67 27.00 203.54"
/>
<path stroke="#0a2c4f" vector-effect="non-scaling-stroke" d="
  M 282.04 202.00
  Q 282.23 203.72 281.00 203.73
  Q 263.94 203.90 202.19 203.71
  Q 193.89 203.68 185.98 201.83"
/>
<path stroke="#0a2c4f" vector-effect="non-scaling-stroke" d="
  M 476.21 201.50
  L 475.75 203.12
  A 0.77 0.76 7.0 0 1 475.02 203.68
  L 447.80 203.78
  A 0.73 0.72 -9.9 0 1 447.10 203.29
  Q 446.88 202.67 447.21 202.00"
/>
<path stroke="#89abcf" vector-effect="non-scaling-stroke" d="
  M 494.96 146.50
  C 492.82 145.45 492.76 149.33 493.04 150.34
  Q 493.20 150.87 493.42 150.36
  L 495.04 146.75"
/>
<path stroke="#808080" vector-effect="non-scaling-stroke" d="
  M 90.64 240.59
  C 86.67 240.18 81.65 240.73 77.49 240.74
  A 0.49 0.49 0.0 0 0 77.00 241.24
  Q 77.12 246.03 76.70 248.24
  C 75.73 253.43 61.52 252.75 61.51 248.25
  Q 61.49 235.54 61.51 222.82
  C 61.52 216.54 71.80 218.02 75.37 219.31
  A 1.93 1.92 9.4 0 1 76.64 221.07
  L 76.79 226.40
  A 0.69 0.69 0.0 0 0 77.47 227.07
  L 90.58 227.14
  A 0.67 0.66 3.4 0 0 91.24 226.56
  Q 92.70 215.24 81.76 212.52
  C 73.26 210.41 52.80 208.94 47.50 218.10
  Q 46.23 220.28 46.24 224.62
  Q 46.27 235.22 46.23 245.85
  C 46.21 251.48 48.71 255.42 54.02 257.03
  C 62.82 259.68 78.73 260.65 86.99 254.99
  C 91.91 251.62 91.56 246.03 91.18 241.14
  A 0.60 0.60 0.0 0 0 90.64 240.59"
/>
<path stroke="#808080" vector-effect="non-scaling-stroke" d="
  M 136.10 251.00
  A 0.38 0.38 0.0 0 1 135.72 250.62
  L 135.74 211.38
  A 0.38 0.38 0.0 0 0 135.36 211.00
  L 120.63 211.00
  A 0.38 0.38 0.0 0 0 120.25 211.38
  L 120.25 257.61
  A 0.38 0.38 0.0 0 0 120.63 257.99
  L 160.12 258.01
  A 0.38 0.38 0.0 0 0 160.50 257.63
  L 160.50 251.38
  A 0.38 0.38 0.0 0 0 160.12 251.00
  L 136.10 251.00"
/>
<path stroke="#808080" vector-effect="non-scaling-stroke" d="
  M 197.98 249.22
  A 0.34 0.34 0.0 0 1 198.31 248.97
  L 216.08 249.07
  A 0.34 0.34 0.0 0 1 216.40 249.32
  L 218.82 257.77
  A 0.34 0.34 0.0 0 0 219.15 258.02
  L 233.95 258.02
  A 0.34 0.34 0.0 0 0 234.27 257.57
  L 219.07 211.23
  A 0.34 0.34 0.0 0 0 218.74 211.00
  L 197.00 211.00
  A 0.34 0.34 0.0 0 0 196.67 211.23
  L 181.50 257.57
  A 0.34 0.34 0.0 0 0 181.82 258.01
  L 195.21 258.06
  A 0.34 0.34 0.0 0 0 195.54 257.81
  L 197.98 249.22"
/>
<path stroke="#808080" vector-effect="non-scaling-stroke" d="
  M 256.15 244.57
  C 253.95 260.91 278.21 259.61 287.73 258.33
  Q 293.34 257.58 296.92 255.15
  C 303.04 251.01 302.09 242.70 296.20 238.77
  Q 290.22 234.78 280.91 230.74
  C 277.26 229.15 270.25 225.71 271.92 221.36
  C 273.61 216.95 281.63 217.98 284.95 219.37
  A 1.51 1.51 0.0 0 1 285.71 220.04
  Q 286.85 222.07 286.46 224.42
  A 0.48 0.48 0.0 0 0 286.93 224.98
  L 300.32 225.05
  A 0.60 0.59 2.0 0 0 300.92 224.50
  C 302.10 208.13 275.46 210.34 266.26 212.27
  C 262.20 213.12 257.93 216.11 256.82 220.27
  C 254.56 228.65 264.41 233.67 270.69 236.31
  Q 277.37 239.12 283.35 243.18
  C 286.15 245.09 287.18 249.56 283.26 250.90
  Q 277.52 252.84 271.89 250.53
  A 1.32 1.32 0.0 0 1 271.16 249.80
  Q 270.16 247.37 270.56 244.71
  A 0.62 0.62 0.0 0 0 269.95 244.00
  L 256.80 244.00
  A 0.66 0.66 0.0 0 0 256.15 244.57"
/>
<path stroke="#808080" vector-effect="non-scaling-stroke" d="
  M 325.22 244.50
  C 322.69 261.27 349.62 260.12 359.36 257.81
  C 363.39 256.85 367.67 254.89 369.35 251.33
  C 377.31 234.48 335.70 231.67 341.11 220.82
  C 342.79 217.45 349.81 217.96 352.66 218.88
  C 355.37 219.76 355.84 221.97 355.58 224.50
  A 0.44 0.43 3.6 0 0 356.01 224.98
  L 369.32 225.05
  A 0.59 0.59 0.0 0 0 369.91 224.53
  C 371.84 207.67 339.54 209.30 331.01 214.00
  C 325.13 217.26 323.31 224.46 328.46 229.28
  C 335.57 235.92 346.10 237.52 352.55 243.15
  C 356.24 246.37 355.43 250.81 350.41 251.51
  C 347.20 251.96 342.50 252.25 340.05 249.57
  A 1.43 1.41 22.7 0 1 339.69 248.71
  L 339.45 244.58
  A 0.62 0.62 0.0 0 0 338.83 244.00
  L 325.80 244.00
  A 0.59 0.59 0.0 0 0 325.22 244.50"
/>
<path stroke="#808080" vector-effect="non-scaling-stroke" d="
  M 411.70 211.44
  A 0.44 0.44 0.0 0 0 411.26 211.00
  L 396.78 211.00
  A 0.44 0.44 0.0 0 0 396.34 211.44
  L 396.34 257.74
  A 0.44 0.44 0.0 0 0 396.78 258.18
  L 411.26 258.18
  A 0.44 0.44 0.0 0 0 411.70 257.74
  L 411.70 211.44"
/>
<path stroke="#808080" vector-effect="non-scaling-stroke" d="
  M 439.26 245.89
  C 439.26 255.05 446.26 257.81 454.18 258.58
  C 462.75 259.42 484.30 260.19 484.28 246.87
  C 484.27 244.53 484.35 243.05 484.15 241.21
  A 0.54 0.54 0.0 0 0 483.60 240.72
  L 470.64 240.76
  A 0.60 0.59 1.0 0 0 470.05 241.32
  L 469.66 248.86
  A 2.06 2.04 -9.1 0 1 468.35 250.66
  C 464.75 252.02 454.53 253.53 454.51 247.08
  Q 454.47 234.45 454.53 221.81
  C 454.55 217.15 470.37 216.32 469.80 222.74
  Q 469.60 224.98 469.98 226.52
  A 0.67 0.66 -7.0 0 0 470.64 227.03
  L 483.71 226.99
  A 0.64 0.64 0.0 0 0 484.34 226.39
  Q 485.31 214.01 472.99 211.85
  C 464.86 210.43 445.89 209.37 440.57 217.92
  C 437.77 222.41 439.25 239.95 439.26 245.89"
/>
<path stroke="#808080" vector-effect="non-scaling-stroke" d="
  M 511.21 244.50
  C 509.73 254.22 517.49 257.36 525.48 258.43
  C 533.21 259.46 546.46 259.78 552.64 254.65
  C 558.62 249.71 556.29 241.78 550.20 238.05
  Q 544.64 234.64 534.59 230.07
  C 531.17 228.51 525.34 225.35 526.93 221.30
  C 528.48 217.36 535.58 217.89 538.67 218.89
  C 541.39 219.78 541.84 221.95 541.65 224.51
  A 0.43 0.43 0.0 0 0 542.08 224.98
  L 555.32 225.05
  A 0.59 0.58 2.7 0 0 555.91 224.52
  C 557.39 208.02 530.04 210.41 521.07 212.31
  C 512.90 214.05 507.66 222.99 514.80 229.68
  C 518.91 233.54 524.88 236.08 531.21 238.94
  C 533.76 240.09 538.65 242.67 539.71 244.27
  C 545.40 252.82 529.42 253.57 526.01 249.46
  A 1.52 1.50 24.0 0 1 525.65 248.54
  L 525.45 244.59
  A 0.62 0.61 -1.0 0 0 524.83 244.00
  L 511.79 244.00
  A 0.59 0.59 0.0 0 0 511.21 244.50"
/>
<path stroke="#808080" vector-effect="non-scaling-stroke" d="
  M 200.18 242.60
  A 0.31 0.31 0.0 0 0 200.47 243.00
  L 213.79 243.00
  A 0.31 0.31 0.0 0 0 214.08 242.60
  L 207.43 220.80
  A 0.31 0.31 0.0 0 0 206.83 220.80
  L 200.18 242.60"
/>
</g>
<g fill="#13579e">
<path d="
  M 573.20 203.64
  L 493.82 203.69
  A 0.62 0.61 -5.7 0 1 493.21 203.20
  L 492.96 202.00
  L 493.12 179.84
  A 0.60 0.60 0.0 0 1 493.72 179.25
  L 557.55 179.25
  A 0.33 0.33 0.0 0 0 557.86 178.81
  Q 537.22 118.25 516.79 57.53
  C 513.50 47.76 501.27 43.77 493.98 51.23
  Q 491.70 53.56 489.71 59.42
  Q 465.46 130.68 441.25 201.96
  Q 441.00 203.74 439.00 203.74
  Q 388.53 203.77 338.06 203.73
  Q 335.13 203.73 327.25 201.79
  C 304.86 194.61 291.43 177.10 291.47 153.62
  Q 291.53 116.86 291.50 80.10
  Q 291.49 70.77 292.80 65.53
  Q 296.40 51.19 307.32 41.32
  Q 321.71 28.30 342.19 28.34
  Q 381.11 28.42 419.70 28.53
  A 0.87 0.87 0.0 0 1 420.57 29.40
  L 420.47 52.50
  A 0.52 0.52 0.0 0 1 419.94 53.02
  Q 380.13 52.91 340.34 53.09
  C 329.41 53.14 320.45 59.71 317.16 69.84
  Q 315.72 74.25 315.74 83.81
  Q 315.80 115.19 315.71 146.57
  Q 315.68 157.61 317.16 162.30
  C 321.15 174.89 331.66 179.29 344.10 179.27
  Q 369.95 179.22 395.88 179.26
  A 0.37 0.37 0.0 0 0 396.25 178.89
  L 396.25 113.50
  A 0.50 0.50 0.0 0 0 395.75 113.00
  L 351.91 113.00
  A 0.40 0.40 0.0 0 1 351.51 112.60
  L 351.50 89.38
  A 0.63 0.62 -90.0 0 1 352.12 88.75
  L 419.51 88.75
  A 1.01 1.01 0.0 0 1 420.52 89.76
  L 420.48 185.74
  A 0.29 0.29 0.0 0 0 421.05 185.83
  Q 443.44 119.94 465.85 54.22
  Q 468.68 45.92 471.46 41.98
  C 487.06 19.88 521.15 20.76 536.12 42.70
  C 539.29 47.34 541.17 53.62 543.06 59.23
  Q 567.26 131.11 591.54 202.96
  A 0.37 0.36 -9.9 0 1 591.20 203.44
  L 573.20 203.64
  Z"
/>
<path d="
  M 81.49 149.27
  C 84.76 149.28 85.62 143.57 81.40 143.44
  C 71.13 143.14 59.15 143.98 50.26 142.29
  C 24.63 137.43 7.23 116.64 4.03 90.99
  C 2.90 81.97 4.98 71.96 8.47 63.78
  C 16.25 45.56 32.34 32.86 51.86 29.51
  Q 57.54 28.54 71.81 28.52
  Q 105.07 28.47 138.35 28.51
  A 0.60 0.60 0.0 0 1 138.95 29.11
  L 139.01 52.64
  A 0.56 0.55 -90.0 0 1 138.46 53.20
  Q 102.03 53.30 65.68 53.24
  Q 56.12 53.23 51.50 54.63
  C 19.31 64.37 21.68 110.73 54.43 118.06
  C 61.77 119.70 72.55 119.06 82.01 119.29
  C 112.61 120.03 118.76 162.54 90.37 172.01
  Q 86.03 173.46 76.81 173.48
  Q 40.38 173.53 3.87 173.49
  A 0.36 0.36 0.0 0 1 3.51 173.13
  L 3.50 149.85
  A 0.55 0.55 0.0 0 1 4.05 149.30
  Q 42.81 149.20 81.49 149.27
  Z"
/>
<path d="
  M 282.04 202.00
  Q 282.23 203.72 281.00 203.73
  Q 263.94 203.90 202.19 203.71
  Q 193.89 203.68 185.98 201.83
  C 163.24 194.53 150.54 176.13 150.52 152.51
  Q 150.48 115.13 150.52 77.75
  C 150.55 49.96 172.38 28.96 199.81 28.73
  Q 240.77 28.39 281.73 28.60
  A 0.53 0.53 0.0 0 1 282.25 29.13
  L 282.25 52.47
  A 0.52 0.51 -0.0 0 1 281.73 52.98
  Q 243.33 53.04 204.93 52.97
  Q 196.09 52.95 191.72 54.35
  Q 179.89 58.11 176.07 70.01
  Q 174.71 74.22 174.73 82.14
  Q 174.79 115.00 174.73 147.86
  Q 174.71 157.93 176.16 162.48
  C 180.18 175.10 190.57 179.27 202.95 179.26
  Q 242.20 179.24 281.14 179.25
  A 0.75 0.75 0.0 0 1 281.89 180.04
  Q 281.44 191.35 282.04 202.00
  Z"
/>
<path d="
  M 476.21 201.50
  L 475.75 203.12
  A 0.77 0.76 7.0 0 1 475.02 203.68
  L 447.80 203.78
  A 0.73 0.72 -9.9 0 1 447.10 203.29
  Q 446.88 202.67 447.21 202.00
  Q 471.71 130.73 495.75 59.30
  C 498.65 50.68 508.92 51.33 511.65 59.49
  Q 530.64 116.49 549.86 173.32
  A 0.33 0.33 0.0 0 1 549.54 173.75
  L 493.52 173.74
  A 0.59 0.59 0.0 0 1 492.93 173.15
  L 493.16 153.16
  A 0.29 0.29 0.0 0 0 492.60 153.06
  L 476.21 201.50
  Z
  M 494.96 146.50
  C 492.82 145.45 492.76 149.33 493.04 150.34
  Q 493.20 150.87 493.42 150.36
  L 495.04 146.75
  L 511.44 146.61
  A 0.61 0.61 0.0 0 0 512.01 145.80
  Q 508.27 135.15 504.83 123.98
  Q 504.47 122.82 504.22 122.49
  Q 503.36 121.40 502.92 122.71
  L 494.96 146.50
  Z"
/>
<path d="
  M 97.50 201.54
  C 93.61 202.39 90.22 203.30 86.18 203.35
  Q 56.59 203.67 27.00 203.54
  L 4.05 203.56
  A 0.55 0.55 0.0 0 1 3.50 203.01
  L 3.50 179.96
  A 0.73 0.73 0.0 0 1 4.23 179.23
  Q 42.55 179.28 80.00 179.17
  C 112.48 179.08 127.63 140.08 101.34 119.83
  C 87.03 108.81 71.90 116.11 55.51 112.37
  C 30.64 106.71 26.70 73.87 48.92 61.89
  Q 55.07 58.58 64.18 58.59
  Q 101.34 58.64 138.49 58.82
  A 0.56 0.55 0.5 0 1 139.05 59.38
  L 138.84 82.46
  A 0.52 0.52 0.0 0 1 138.32 82.98
  Q 99.80 83.01 61.31 83.01
  Q 59.13 83.01 58.50 84.99
  C 57.24 88.93 61.51 89.03 63.98 89.00
  C 72.04 88.91 81.22 88.35 88.31 89.22
  C 126.05 93.87 149.30 133.13 134.59 168.21
  Q 124.32 192.71 97.50 201.54
  Z"
/>
<path d="
  M 205.71 88.75
  L 263.99 88.75
  A 0.49 0.49 0.0 0 1 264.48 89.24
  L 264.54 112.48
  A 0.52 0.52 0.0 0 1 264.02 113.00
  L 181.25 113.01
  A 0.46 0.46 0.0 0 1 180.79 112.55
  Q 180.72 96.74 180.75 81.01
  C 180.78 66.01 187.88 58.74 202.94 58.75
  Q 242.34 58.76 281.74 58.75
  A 0.51 0.50 0.0 0 1 282.25 59.25
  L 282.25 82.47
  A 0.52 0.51 -0.0 0 1 281.73 82.98
  Q 246.35 83.01 211.00 83.13
  Q 206.39 83.15 204.97 87.74
  A 0.78 0.78 0.0 0 0 205.71 88.75
  Z"
/>
<path d="
  M 321.51 77.75
  C 321.51 65.33 331.37 58.80 342.92 58.78
  Q 381.55 58.72 420.14 58.76
  A 0.39 0.39 0.0 0 1 420.53 59.15
  L 420.49 82.48
  A 0.52 0.52 0.0 0 1 419.97 83.00
  Q 386.09 83.00 352.25 82.99
  C 347.71 82.99 346.01 85.70 346.01 90.07
  Q 345.99 116.31 346.00 142.56
  C 346.00 151.40 358.69 149.55 365.53 149.15
  A 0.59 0.58 88.5 0 0 366.08 148.56
  L 366.06 143.76
  A 0.55 0.54 89.5 0 0 365.51 143.21
  L 352.30 143.34
  A 0.79 0.79 0.0 0 1 351.50 142.55
  L 351.50 119.46
  A 0.48 0.48 0.0 0 1 351.98 118.98
  L 389.96 118.91
  A 0.55 0.54 90.0 0 1 390.50 119.46
  L 390.50 172.96
  A 0.50 0.49 -90.0 0 1 390.01 173.46
  Q 367.23 173.52 344.50 173.51
  C 334.52 173.50 326.59 171.05 322.96 161.42
  Q 321.50 157.55 321.50 148.87
  Q 321.50 113.31 321.51 77.75
  Z"
/>
<path d="
  M 205.28 143.81
  C 205.15 148.24 208.61 149.22 212.50 149.22
  Q 246.92 149.27 281.09 149.24
  A 0.68 0.68 0.0 0 1 281.77 149.92
  L 281.78 172.75
  A 0.46 0.45 -90.0 0 1 281.33 173.21
  Q 242.56 173.27 203.81 173.26
  Q 196.05 173.26 192.38 171.83
  C 183.44 168.35 180.81 160.90 180.77 151.53
  Q 180.70 135.65 180.79 119.74
  A 0.50 0.50 0.0 0 1 181.29 119.25
  L 263.78 119.25
  A 0.78 0.77 -90.0 0 1 264.55 120.03
  L 264.48 143.06
  A 0.47 0.46 -0.0 0 1 264.01 143.52
  L 205.75 143.35
  A 0.48 0.47 -88.7 0 0 205.28 143.81
  Z"
/>
</g>
<g fill="#000000">
<path d="
  M 596.41 29.82
  A 19.04 19.04 0.0 0 1 577.37 48.86
  A 19.04 19.04 0.0 0 1 558.33 29.82
  A 19.04 19.04 0.0 0 1 577.37 10.78
  A 19.04 19.04 0.0 0 1 596.41 29.82
  Z
  M 593.82 29.77
  A 16.41 16.41 0.0 0 0 577.41 13.36
  A 16.41 16.41 0.0 0 0 561.00 29.77
  A 16.41 16.41 0.0 0 0 577.41 46.18
  A 16.41 16.41 0.0 0 0 593.82 29.77
  Z"
/>
<path d="
  M 572.50 31.86
  L 572.50 39.87
  A 0.63 0.62 -90.0 0 1 571.88 40.50
  L 570.38 40.50
  A 0.63 0.63 0.0 0 1 569.75 39.87
  L 569.75 19.99
  A 0.64 0.63 -1.9 0 1 570.35 19.36
  C 574.09 19.14 581.40 18.41 584.25 20.98
  C 587.53 23.93 586.62 29.91 581.97 31.09
  A 0.70 0.70 0.0 0 0 581.56 32.15
  L 586.62 39.74
  Q 587.19 40.59 586.17 40.53
  L 584.14 40.41
  A 1.02 1.00 75.0 0 1 583.35 39.94
  L 578.20 31.78
  A 1.01 1.00 74.3 0 0 577.37 31.31
  L 573.14 31.23
  A 0.63 0.62 -89.1 0 0 572.50 31.86
  Z
  M 582.99 26.80
  C 584.59 20.21 576.54 21.37 573.00 21.60
  A 0.53 0.53 0.0 0 0 572.50 22.13
  L 572.50 28.47
  A 0.69 0.68 3.3 0 0 573.11 29.15
  C 575.28 29.42 582.27 29.74 582.99 26.80
  Z"
/>
<path d="
  M 97.50 201.54
  L 97.77 201.77
  A 1.07 1.02 63.2 0 0 98.42 202.00
  L 185.98 201.83
  Q 193.89 203.68 202.19 203.71
  Q 263.94 203.90 281.00 203.73
  Q 282.23 203.72 282.04 202.00
  L 327.25 201.79
  Q 335.13 203.73 338.06 203.73
  Q 388.53 203.77 439.00 203.74
  Q 441.00 203.74 441.25 201.96
  L 447.21 202.00
  Q 446.88 202.67 447.10 203.29
  A 0.73 0.72 -9.9 0 0 447.80 203.78
  L 475.02 203.68
  A 0.77 0.76 7.0 0 0 475.75 203.12
  L 476.21 201.50
  L 476.27 201.76
  A 0.24 0.23 -6.1 0 0 476.50 201.94
  L 492.96 202.00
  L 493.21 203.20
  A 0.62 0.61 -5.7 0 0 493.82 203.69
  L 573.20 203.64
  Q 587.54 209.53 592.61 222.62
  C 599.57 240.60 589.85 260.95 570.80 265.91
  Q 566.65 267.00 557.97 267.00
  Q 301.43 267.00 44.89 267.00
  Q 34.27 267.00 29.24 265.56
  C -0.58 257.03 -1.78 215.78 27.16 204.06
  A 0.20 0.19 -35.3 0 0 27.22 203.73
  L 27.00 203.54
  Q 56.59 203.67 86.18 203.35
  C 90.22 203.30 93.61 202.39 97.50 201.54
  Z
  M 90.64 240.59
  C 86.67 240.18 81.65 240.73 77.49 240.74
  A 0.49 0.49 0.0 0 0 77.00 241.24
  Q 77.12 246.03 76.70 248.24
  C 75.73 253.43 61.52 252.75 61.51 248.25
  Q 61.49 235.54 61.51 222.82
  C 61.52 216.54 71.80 218.02 75.37 219.31
  A 1.93 1.92 9.4 0 1 76.64 221.07
  L 76.79 226.40
  A 0.69 0.69 0.0 0 0 77.47 227.07
  L 90.58 227.14
  A 0.67 0.66 3.4 0 0 91.24 226.56
  Q 92.70 215.24 81.76 212.52
  C 73.26 210.41 52.80 208.94 47.50 218.10
  Q 46.23 220.28 46.24 224.62
  Q 46.27 235.22 46.23 245.85
  C 46.21 251.48 48.71 255.42 54.02 257.03
  C 62.82 259.68 78.73 260.65 86.99 254.99
  C 91.91 251.62 91.56 246.03 91.18 241.14
  A 0.60 0.60 0.0 0 0 90.64 240.59
  Z
  M 136.10 251.00
  A 0.38 0.38 0.0 0 1 135.72 250.62
  L 135.74 211.38
  A 0.38 0.38 0.0 0 0 135.36 211.00
  L 120.63 211.00
  A 0.38 0.38 0.0 0 0 120.25 211.38
  L 120.25 257.61
  A 0.38 0.38 0.0 0 0 120.63 257.99
  L 160.12 258.01
  A 0.38 0.38 0.0 0 0 160.50 257.63
  L 160.50 251.38
  A 0.38 0.38 0.0 0 0 160.12 251.00
  L 136.10 251.00
  Z
  M 197.98 249.22
  A 0.34 0.34 0.0 0 1 198.31 248.97
  L 216.08 249.07
  A 0.34 0.34 0.0 0 1 216.40 249.32
  L 218.82 257.77
  A 0.34 0.34 0.0 0 0 219.15 258.02
  L 233.95 258.02
  A 0.34 0.34 0.0 0 0 234.27 257.57
  L 219.07 211.23
  A 0.34 0.34 0.0 0 0 218.74 211.00
  L 197.00 211.00
  A 0.34 0.34 0.0 0 0 196.67 211.23
  L 181.50 257.57
  A 0.34 0.34 0.0 0 0 181.82 258.01
  L 195.21 258.06
  A 0.34 0.34 0.0 0 0 195.54 257.81
  L 197.98 249.22
  Z
  M 256.15 244.57
  C 253.95 260.91 278.21 259.61 287.73 258.33
  Q 293.34 257.58 296.92 255.15
  C 303.04 251.01 302.09 242.70 296.20 238.77
  Q 290.22 234.78 280.91 230.74
  C 277.26 229.15 270.25 225.71 271.92 221.36
  C 273.61 216.95 281.63 217.98 284.95 219.37
  A 1.51 1.51 0.0 0 1 285.71 220.04
  Q 286.85 222.07 286.46 224.42
  A 0.48 0.48 0.0 0 0 286.93 224.98
  L 300.32 225.05
  A 0.60 0.59 2.0 0 0 300.92 224.50
  C 302.10 208.13 275.46 210.34 266.26 212.27
  C 262.20 213.12 257.93 216.11 256.82 220.27
  C 254.56 228.65 264.41 233.67 270.69 236.31
  Q 277.37 239.12 283.35 243.18
  C 286.15 245.09 287.18 249.56 283.26 250.90
  Q 277.52 252.84 271.89 250.53
  A 1.32 1.32 0.0 0 1 271.16 249.80
  Q 270.16 247.37 270.56 244.71
  A 0.62 0.62 0.0 0 0 269.95 244.00
  L 256.80 244.00
  A 0.66 0.66 0.0 0 0 256.15 244.57
  Z
  M 325.22 244.50
  C 322.69 261.27 349.62 260.12 359.36 257.81
  C 363.39 256.85 367.67 254.89 369.35 251.33
  C 377.31 234.48 335.70 231.67 341.11 220.82
  C 342.79 217.45 349.81 217.96 352.66 218.88
  C 355.37 219.76 355.84 221.97 355.58 224.50
  A 0.44 0.43 3.6 0 0 356.01 224.98
  L 369.32 225.05
  A 0.59 0.59 0.0 0 0 369.91 224.53
  C 371.84 207.67 339.54 209.30 331.01 214.00
  C 325.13 217.26 323.31 224.46 328.46 229.28
  C 335.57 235.92 346.10 237.52 352.55 243.15
  C 356.24 246.37 355.43 250.81 350.41 251.51
  C 347.20 251.96 342.50 252.25 340.05 249.57
  A 1.43 1.41 22.7 0 1 339.69 248.71
  L 339.45 244.58
  A 0.62 0.62 0.0 0 0 338.83 244.00
  L 325.80 244.00
  A 0.59 0.59 0.0 0 0 325.22 244.50
  Z
  M 411.70 211.44
  A 0.44 0.44 0.0 0 0 411.26 211.00
  L 396.78 211.00
  A 0.44 0.44 0.0 0 0 396.34 211.44
  L 396.34 257.74
  A 0.44 0.44 0.0 0 0 396.78 258.18
  L 411.26 258.18
  A 0.44 0.44 0.0 0 0 411.70 257.74
  L 411.70 211.44
  Z
  M 439.26 245.89
  C 439.26 255.05 446.26 257.81 454.18 258.58
  C 462.75 259.42 484.30 260.19 484.28 246.87
  C 484.27 244.53 484.35 243.05 484.15 241.21
  A 0.54 0.54 0.0 0 0 483.60 240.72
  L 470.64 240.76
  A 0.60 0.59 1.0 0 0 470.05 241.32
  L 469.66 248.86
  A 2.06 2.04 -9.1 0 1 468.35 250.66
  C 464.75 252.02 454.53 253.53 454.51 247.08
  Q 454.47 234.45 454.53 221.81
  C 454.55 217.15 470.37 216.32 469.80 222.74
  Q 469.60 224.98 469.98 226.52
  A 0.67 0.66 -7.0 0 0 470.64 227.03
  L 483.71 226.99
  A 0.64 0.64 0.0 0 0 484.34 226.39
  Q 485.31 214.01 472.99 211.85
  C 464.86 210.43 445.89 209.37 440.57 217.92
  C 437.77 222.41 439.25 239.95 439.26 245.89
  Z
  M 511.21 244.50
  C 509.73 254.22 517.49 257.36 525.48 258.43
  C 533.21 259.46 546.46 259.78 552.64 254.65
  C 558.62 249.71 556.29 241.78 550.20 238.05
  Q 544.64 234.64 534.59 230.07
  C 531.17 228.51 525.34 225.35 526.93 221.30
  C 528.48 217.36 535.58 217.89 538.67 218.89
  C 541.39 219.78 541.84 221.95 541.65 224.51
  A 0.43 0.43 0.0 0 0 542.08 224.98
  L 555.32 225.05
  A 0.59 0.58 2.7 0 0 555.91 224.52
  C 557.39 208.02 530.04 210.41 521.07 212.31
  C 512.90 214.05 507.66 222.99 514.80 229.68
  C 518.91 233.54 524.88 236.08 531.21 238.94
  C 533.76 240.09 538.65 242.67 539.71 244.27
  C 545.40 252.82 529.42 253.57 526.01 249.46
  A 1.52 1.50 24.0 0 1 525.65 248.54
  L 525.45 244.59
  A 0.62 0.61 -1.0 0 0 524.83 244.00
  L 511.79 244.00
  A 0.59 0.59 0.0 0 0 511.21 244.50
  Z"
/>
<path d="
  M 200.18 242.60
  L 206.83 220.80
  A 0.31 0.31 0.0 0 1 207.43 220.80
  L 214.08 242.60
  A 0.31 0.31 0.0 0 1 213.79 243.00
  L 200.47 243.00
  A 0.31 0.31 0.0 0 1 200.18 242.60
  Z"
/>
</g>
<g fill="#ffffff">
<path d="
  M 494.96 146.50
  L 495.04 146.75
  L 493.42 150.36
  Q 493.20 150.87 493.04 150.34
  C 492.76 149.33 492.82 145.45 494.96 146.50
  Z"
/>
<path d="
  M 77.49 240.74
  C 81.65 240.73 86.67 240.18 90.64 240.59
  A 0.60 0.60 0.0 0 1 91.18 241.14
  C 91.56 246.03 91.91 251.62 86.99 254.99
  C 78.73 260.65 62.82 259.68 54.02 257.03
  C 48.71 255.42 46.21 251.48 46.23 245.85
  Q 46.27 235.22 46.24 224.62
  Q 46.23 220.28 47.50 218.10
  C 52.80 208.94 73.26 210.41 81.76 212.52
  Q 92.70 215.24 91.24 226.56
  A 0.67 0.66 3.4 0 1 90.58 227.14
  L 77.47 227.07
  A 0.69 0.69 0.0 0 1 76.79 226.40
  L 76.64 221.07
  A 1.93 1.92 9.4 0 0 75.37 219.31
  C 71.80 218.02 61.52 216.54 61.51 222.82
  Q 61.49 235.54 61.51 248.25
  C 61.52 252.75 75.73 253.43 76.70 248.24
  Q 77.12 246.03 77.00 241.24
  A 0.49 0.49 0.0 0 1 77.49 240.74
  Z"
/>
<path d="
  M 136.10 251.00
  L 160.12 251.00
  A 0.38 0.38 0.0 0 1 160.50 251.38
  L 160.50 257.63
  A 0.38 0.38 0.0 0 1 160.12 258.01
  L 120.63 257.99
  A 0.38 0.38 0.0 0 1 120.25 257.61
  L 120.25 211.38
  A 0.38 0.38 0.0 0 1 120.63 211.00
  L 135.36 211.00
  A 0.38 0.38 0.0 0 1 135.74 211.38
  L 135.72 250.62
  A 0.38 0.38 0.0 0 0 136.10 251.00
  Z"
/>
<path d="
  M 197.98 249.22
  L 195.54 257.81
  A 0.34 0.34 0.0 0 1 195.21 258.06
  L 181.82 258.01
  A 0.34 0.34 0.0 0 1 181.50 257.57
  L 196.67 211.23
  A 0.34 0.34 0.0 0 1 197.00 211.00
  L 218.74 211.00
  A 0.34 0.34 0.0 0 1 219.07 211.23
  L 234.27 257.57
  A 0.34 0.34 0.0 0 1 233.95 258.02
  L 219.15 258.02
  A 0.34 0.34 0.0 0 1 218.82 257.77
  L 216.40 249.32
  A 0.34 0.34 0.0 0 0 216.08 249.07
  L 198.31 248.97
  A 0.34 0.34 0.0 0 0 197.98 249.22
  Z
  M 200.18 242.60
  A 0.31 0.31 0.0 0 0 200.47 243.00
  L 213.79 243.00
  A 0.31 0.31 0.0 0 0 214.08 242.60
  L 207.43 220.80
  A 0.31 0.31 0.0 0 0 206.83 220.80
  L 200.18 242.60
  Z"
/>
<path d="
  M 287.73 258.33
  C 278.21 259.61 253.95 260.91 256.15 244.57
  A 0.66 0.66 0.0 0 1 256.80 244.00
  L 269.95 244.00
  A 0.62 0.62 0.0 0 1 270.56 244.71
  Q 270.16 247.37 271.16 249.80
  A 1.32 1.32 0.0 0 0 271.89 250.53
  Q 277.52 252.84 283.26 250.90
  C 287.18 249.56 286.15 245.09 283.35 243.18
  Q 277.37 239.12 270.69 236.31
  C 264.41 233.67 254.56 228.65 256.82 220.27
  C 257.93 216.11 262.20 213.12 266.26 212.27
  C 275.46 210.34 302.10 208.13 300.92 224.50
  A 0.60 0.59 2.0 0 1 300.32 225.05
  L 286.93 224.98
  A 0.48 0.48 0.0 0 1 286.46 224.42
  Q 286.85 222.07 285.71 220.04
  A 1.51 1.51 0.0 0 0 284.95 219.37
  C 281.63 217.98 273.61 216.95 271.92 221.36
  C 270.25 225.71 277.26 229.15 280.91 230.74
  Q 290.22 234.78 296.20 238.77
  C 302.09 242.70 303.04 251.01 296.92 255.15
  Q 293.34 257.58 287.73 258.33
  Z"
/>
<path d="
  M 359.36 257.81
  C 349.62 260.12 322.69 261.27 325.22 244.50
  A 0.59 0.59 0.0 0 1 325.80 244.00
  L 338.83 244.00
  A 0.62 0.62 0.0 0 1 339.45 244.58
  L 339.69 248.71
  A 1.43 1.41 22.7 0 0 340.05 249.57
  C 342.50 252.25 347.20 251.96 350.41 251.51
  C 355.43 250.81 356.24 246.37 352.55 243.15
  C 346.10 237.52 335.57 235.92 328.46 229.28
  C 323.31 224.46 325.13 217.26 331.01 214.00
  C 339.54 209.30 371.84 207.67 369.91 224.53
  A 0.59 0.59 0.0 0 1 369.32 225.05
  L 356.01 224.98
  A 0.44 0.43 3.6 0 1 355.58 224.50
  C 355.84 221.97 355.37 219.76 352.66 218.88
  C 349.81 217.96 342.79 217.45 341.11 220.82
  C 335.70 231.67 377.31 234.48 369.35 251.33
  C 367.67 254.89 363.39 256.85 359.36 257.81
  Z"
/>
<rect x="396.34" y="211.00" width="15.36" height="47.18" rx="0.44"/>
<path d="
  M 454.18 258.58
  C 446.26 257.81 439.26 255.05 439.26 245.89
  C 439.25 239.95 437.77 222.41 440.57 217.92
  C 445.89 209.37 464.86 210.43 472.99 211.85
  Q 485.31 214.01 484.34 226.39
  A 0.64 0.64 0.0 0 1 483.71 226.99
  L 470.64 227.03
  A 0.67 0.66 -7.0 0 1 469.98 226.52
  Q 469.60 224.98 469.80 222.74
  C 470.37 216.32 454.55 217.15 454.53 221.81
  Q 454.47 234.45 454.51 247.08
  C 454.53 253.53 464.75 252.02 468.35 250.66
  A 2.06 2.04 -9.1 0 0 469.66 248.86
  L 470.05 241.32
  A 0.60 0.59 1.0 0 1 470.64 240.76
  L 483.60 240.72
  A 0.54 0.54 0.0 0 1 484.15 241.21
  C 484.35 243.05 484.27 244.53 484.28 246.87
  C 484.30 260.19 462.75 259.42 454.18 258.58
  Z"
/>
<path d="
  M 525.48 258.43
  C 517.49 257.36 509.73 254.22 511.21 244.50
  A 0.59 0.59 0.0 0 1 511.79 244.00
  L 524.83 244.00
  A 0.62 0.61 -1.0 0 1 525.45 244.59
  L 525.65 248.54
  A 1.52 1.50 24.0 0 0 526.01 249.46
  C 529.42 253.57 545.40 252.82 539.71 244.27
  C 538.65 242.67 533.76 240.09 531.21 238.94
  C 524.88 236.08 518.91 233.54 514.80 229.68
  C 507.66 222.99 512.90 214.05 521.07 212.31
  C 530.04 210.41 557.39 208.02 555.91 224.52
  A 0.59 0.58 2.7 0 1 555.32 225.05
  L 542.08 224.98
  A 0.43 0.43 0.0 0 1 541.65 224.51
  C 541.84 221.95 541.39 219.78 538.67 218.89
  C 535.58 217.89 528.48 217.36 526.93 221.30
  C 525.34 225.35 531.17 228.51 534.59 230.07
  Q 544.64 234.64 550.20 238.05
  C 556.29 241.78 558.62 249.71 552.64 254.65
  C 546.46 259.78 533.21 259.46 525.48 258.43
  Z"
/>
</g>
</svg>
