<?xml version="1.0" encoding="UTF-8" standalone="no"?>
<!-- Created with Inkscape (http://www.inkscape.org/) -->

<svg
   width="1022.0125mm"
   height="371.582mm"
   viewBox="0 0 1022.0125 371.582"
   version="1.1"
   id="svg1"
   inkscape:version="1.4 (86a8ad7, 2024-10-11)"
   sodipodi:docname="segastv.svg"
   xmlns:inkscape="http://www.inkscape.org/namespaces/inkscape"
   xmlns:sodipodi="http://sodipodi.sourceforge.net/DTD/sodipodi-0.dtd"
   xmlns="http://www.w3.org/2000/svg"
   xmlns:svg="http://www.w3.org/2000/svg">
  <sodipodi:namedview
     id="namedview1"
     pagecolor="#ffffff"
     bordercolor="#000000"
     borderopacity="0.25"
     inkscape:showpageshadow="2"
     inkscape:pageopacity="0.0"
     inkscape:pagecheckerboard="true"
     inkscape:deskcolor="#d1d1d1"
     inkscape:document-units="mm"
     inkscape:zoom="0.41179679"
     inkscape:cx="1833.4286"
     inkscape:cy="771.01135"
     inkscape:window-width="3840"
     inkscape:window-height="2066"
     inkscape:window-x="-11"
     inkscape:window-y="-11"
     inkscape:window-maximized="1"
     inkscape:current-layer="svg1" />
  <defs
     id="defs1" />
  <g
     id="g3"
     transform="matrix(0.26458333,0,0,0.26458333,3.68401,0)"
     inkscape:label="ST-V">
    <path
       class="st0"
       d="M 1169.4,1074.2 V 961.1 H 1049.7 C 993.3,1014.7 897,1074.2 747.4,1074.2 H 0 V 582 H 71.3 C 70.9,581.2 70.4,580.5 70,579.7 1.7,461.3 1.7,308.5 70,190.1 104.5,130.4 154.7,81.6 215.4,48.8 275.5,16.5 343.4,0 417.3,0 H 980 1804.8 c 108.7,0 198.5,82.3 210.5,187.8 h 107.6 V 156 c 0,-86.2 69.9,-156 156,-156 h 401.6 l 223,290.6 L 3126.6,0 H 3839 l -823.8,1073.6 h -419.8 v -46.7 c 0,-36.4 -29.5,-65.8 -65.8,-65.8 h -802.1 c -36.4,0 -65.8,29.5 -65.8,65.8 v 47.3 z"
       id="path1"
       inkscape:label="OutlineWhite"
       style="fill:#ffffff" />
    <path
       d="m 3167.7,83.2 -264,344.1 -264,-344.1 h -360.6 c -40.2,0 -72.8,32.6 -72.8,72.8 V 271 H 1933.7 V 211.9 C 1933.7,140.8 1876.1,83.2 1805,83.2 H 980 417.3 c -120.4,0 -220.8,54.1 -275.3,148.5 -53.7,93 -53.7,213.3 0,306.3 34.4,59.5 87,103.1 151.4,127.1 H 83.2 V 991 h 664.3 c 129.1,0 208.4,-52.9 252.1,-97.3 5.1,-5.1 9.9,-10.4 14.6,-15.9 h 238.5 V 991 h 325.9 v -47.3 c 0,-36.4 29.5,-65.8 65.8,-65.8 h 968.5 c 36.4,0 65.8,29.5 65.8,65.8 v 46.7 h 295.5 L 3670.3,83.2 Z m -583.8,547.9 v -1.3 l 0.9,1.3 z"
       id="path2"
       style="display:inline"
       inkscape:label="OutlineBlack" />
    <rect
       x="1763.4"
       y="489.10001"
       class="st1"
       width="708"
       height="159.5"
       id="rect2"
       inkscape:label="-"
       style="fill:#ffe850" />
    <path
       class="st1"
       d="M 1804.9,166.4 H 980 v 45.5 c 0,-25.1 -20.4,-45.5 -45.5,-45.5 H 417.2 c -310.1,0 -310.1,437 0,437 v 0 h 330.2 c 96.6,0 96.6,145 0,145 h -581 v 159.5 h 581.1 c 342.9,0 342.9,-463.9 0,-463.9 H 417.3 v 0 c -83,4.1 -91.7,-126.9 0,-131 0,0 0,0 0,0 H 980 1335.8 v 594.9 h 159.5 v -595 h 355.1 v -101 c -0.1,-25.1 -20.4,-45.5 -45.5,-45.5 z"
       id="path3"
       inkscape:label="ST"
       style="fill:#ffe850" />
    <polygon
       class="st1"
       points="3501.6,166.4 3250,166.4 2903.6,617.8 2557.2,166.4 2305.7,166.4 2874.1,907.2 2933.2,907.2 "
       id="polygon3"
       style="display:inline;fill:#ffe850"
       inkscape:label="V" />
  </g>
  <g
     id="g1"
     inkscape:label="SegaVideoGameSystem">
    <path
       id="path70"
       style="display:inline;fill:#ffffff;stroke-width:0.264583"
       inkscape:label="SegaVideoGameSystemOutlineWhite"
       d="m 437.60998,314.61853 c -5.15082,0.0507 -10.30695,1.41761 -14.73062,4.0762 -4.74535,2.8285 -8.60925,7.10133 -10.96317,12.09801 -2.61072,5.49694 -3.3827,11.82648 -2.25684,17.80067 0.85735,4.59348 2.85043,8.97686 5.79948,12.60562 2.95669,3.65226 6.85742,6.53074 11.22127,8.2741 4.96162,1.99126 10.46014,2.54934 15.73929,1.77165 4.33314,-0.64267 8.52742,-2.26099 12.1261,-4.76617 4.25331,-2.94815 7.65937,-7.09782 9.72447,-11.84275 2.71272,-6.18257 3.14325,-13.31976 1.24613,-19.7951 -1.37033,-4.72921 -3.99838,-9.09296 -7.57671,-12.47994 -3.24604,-3.09343 -7.25752,-5.36747 -11.56973,-6.59125 -2.84215,-0.81306 -5.8049,-1.18922 -8.75967,-1.15104 z m 81.5852,0 c -4.87714,0.0596 -9.75183,1.33929 -13.97024,3.80307 -4.53982,2.63316 -8.29087,6.58786 -10.71866,11.23783 -2.38147,4.5343 -3.50341,9.70846 -3.27449,14.82177 0.19754,5.08072 1.65817,10.13865 4.39058,14.44173 2.5464,4.03238 6.19781,7.35742 10.454,9.50968 4.10358,2.09288 8.71583,3.10552 13.31098,3.14682 5.39628,0.0663 10.80532,-1.16163 15.63274,-3.57759 2.84753,-1.41269 5.49021,-3.22506 7.87546,-5.3231 0.15804,-0.14102 0.40079,-0.28739 0.35346,-0.53009 0,-8.20629 0,-16.41256 0,-24.61885 -8.85476,0 -17.70952,0 -26.56428,0 0,4.31274 0,8.62547 0,12.93823 4.25969,0 8.51938,0 12.77906,0 0,1.73649 0,3.473 0,5.20949 -2.58844,1.59822 -5.60218,2.47325 -8.63616,2.60501 -0.66746,0.0281 -1.37445,0.0212 -2.04348,-0.0268 -1.139,-0.0768 -2.29836,-0.27938 -3.36394,-0.59434 -0.89249,-0.26432 -1.80237,-0.63161 -2.63295,-1.09037 -1.40374,-0.75557 -2.68613,-1.83467 -3.69845,-3.06546 -0.68998,-0.83061 -1.30439,-1.80367 -1.76403,-2.78099 -0.77158,-1.60287 -1.24301,-3.3692 -1.46214,-5.11362 -0.16129,-1.30681 -0.20365,-2.63316 -0.10488,-3.93256 0.24649,-3.39066 1.53612,-6.73536 3.80286,-9.28936 0.50853,-0.57227 1.11606,-1.15229 1.74297,-1.64481 1.15099,-0.91387 2.48928,-1.64658 3.86342,-2.10534 0.65219,-0.21812 1.33572,-0.38875 1.99675,-0.49197 0.5062,-0.081 1.0695,-0.13795 1.6024,-0.15721 0.88508,-0.0344 1.79879,0.01 2.66401,0.0776 2.10666,0.18021 4.20267,0.71433 6.06113,1.74096 1.83668,0.99208 3.42484,2.3494 5.01269,3.70724 0.35449,0.30112 0.70903,0.60214 1.06344,0.90337 2.9851,-3.56733 5.96979,-7.13505 8.95448,-10.70272 -1.77629,-1.50482 -3.53182,-3.04945 -5.49487,-4.31151 -2.97101,-1.94871 -6.30862,-3.33624 -9.78982,-4.05144 -2.64134,-0.55247 -5.34639,-0.7584 -8.04204,-0.73469 z m -395.50609,0 c -4.98667,0.0495 -9.97229,1.38313 -14.25925,3.94562 -4.84844,2.87618 -8.76469,7.27152 -11.11376,12.39219 -1.9759,4.27431 -2.86636,9.0338 -2.62772,13.73391 0.23013,5.02637 1.69692,10.02107 4.40837,14.27422 2.47457,3.90062 5.98203,7.13729 10.07259,9.28452 4.14265,2.18919 8.82893,3.26361 13.50229,3.32795 5.25356,0.0876 10.5263,-1.04621 15.26646,-3.31684 3.04566,-1.44984 5.87058,-3.34915 8.39972,-5.57829 0.16078,-0.14089 0.40586,-0.28861 0.35913,-0.53369 0,-8.20629 0,-16.41256 0,-24.61885 -8.85475,0 -17.70951,0 -26.56427,0 0,4.31274 0,8.62547 0,12.93824 4.25969,0 8.51938,0 12.77907,0 0,1.73648 0,3.473 0,5.20948 -2.58841,1.5983 -5.60219,2.47319 -8.63617,2.60501 -1.43807,0.0612 -2.92198,-0.0419 -4.34359,-0.34975 -0.63941,-0.13962 -1.21386,-0.30316 -1.84001,-0.52565 -1.83326,-0.65871 -3.49688,-1.71188 -4.85248,-3.11645 -1.07836,-1.10659 -1.95808,-2.423 -2.58348,-3.81643 -0.79747,-1.74323 -1.24842,-3.65027 -1.4178,-5.53968 -0.18913,-2.0678 -0.0735,-4.1487 0.44145,-6.16892 0.59369,-2.34008 1.72995,-4.57602 3.32632,-6.373 1.29598,-1.46087 2.94416,-2.67758 4.76672,-3.43619 0.67796,-0.28205 1.34924,-0.49729 2.07006,-0.66183 0.51266,-0.11409 0.98206,-0.19008 1.51445,-0.2444 1.19042,-0.12448 2.40419,-0.0708 3.57925,0.0228 2.0958,0.1838 4.17874,0.72371 6.02613,1.74768 1.83433,0.99549 3.42153,2.35365 5.00903,3.71237 0.34773,0.29524 0.69565,0.59031 1.04323,0.88577 2.98543,-3.56735 5.9705,-7.13502 8.95552,-10.70272 -1.78387,-1.51042 -3.54615,-3.06154 -5.51849,-4.32646 -3.06924,-2.01081 -6.53068,-3.4185 -10.1344,-4.11057 -2.50929,-0.49612 -5.07292,-0.68122 -7.62837,-0.66008 z m 632.75103,0.17415 c -0.8591,0.0238 -1.72299,-0.009 -2.58276,0.0452 -3.74978,0.18963 -7.50763,1.1955 -10.69033,3.22527 -2.6067,1.65563 -4.76903,4.03225 -6.0716,6.84012 -1.22402,2.60472 -1.70604,5.52961 -1.50665,8.39396 0.1637,2.74362 0.94113,5.49132 2.49913,7.77682 1.23713,1.82895 2.94534,3.30237 4.84232,4.41518 2.82432,1.67552 5.98178,2.67425 9.13665,3.51925 2.90356,0.76692 5.87941,1.33844 8.65412,2.52148 0.87323,0.38859 1.7893,0.81079 2.40242,1.57236 0.37488,0.54862 0.29699,1.25013 0.30265,1.88037 -0.0233,0.72046 -0.34665,1.43105 -0.91551,1.88338 -1.06071,0.9211 -2.47742,1.27688 -3.84207,1.43682 -0.43455,0.0467 -0.85754,0.072 -1.31622,0.0737 -2.21737,0.0246 -4.46863,-0.32107 -6.5423,-1.07339 -2.67501,-0.97348 -5.06788,-2.61718 -7.21971,-4.43383 -0.79859,-0.67641 -1.61158,-1.3847 -2.41382,-2.07584 -2.89277,3.42807 -5.78541,6.8563 -8.67852,10.28411 1.65772,1.47641 3.29446,2.9889 5.12659,4.25067 4.54616,3.21085 9.90249,5.27349 15.43651,5.89224 3.09698,0.35655 6.25335,0.31851 9.32254,-0.25143 3.29896,-0.61878 6.51425,-1.91768 9.13527,-4.04313 2.44705,-1.97966 4.28141,-4.70093 5.19718,-7.71249 0.8921,-2.89685 1.02579,-6.01726 0.43913,-8.9879 -0.53078,-2.57167 -1.74297,-5.01721 -3.56997,-6.91465 -1.92103,-2.01488 -4.38263,-3.42799 -6.93303,-4.49323 -2.63639,-1.09953 -5.4042,-1.83766 -8.17597,-2.50547 -2.01472,-0.52279 -4.0639,-1.07135 -6.00115,-1.8754 -0.59931,-0.24778 -1.23195,-0.54819 -1.7436,-0.8981 -0.43088,-0.31234 -0.91726,-0.67095 -1.00963,-1.23301 -0.0896,-0.48786 -0.0835,-0.99126 -0.0507,-1.48444 0.0765,-0.68371 0.47813,-1.29403 1.02298,-1.70114 1.03992,-0.82738 2.39181,-1.13112 3.69213,-1.21822 2.8933,-0.17547 5.77919,0.59901 8.3583,1.87645 0.90389,0.44524 1.81977,0.9765 2.67914,1.53911 1.3172,0.85177 2.56641,1.8502 3.83895,2.78661 2.57437,-3.62931 5.14773,-7.25937 7.72199,-10.88874 -1.71225,-1.37565 -3.40968,-2.78535 -5.29823,-3.91755 -3.76422,-2.31476 -8.05098,-3.75722 -12.44078,-4.24328 -0.85421,-0.0981 -1.71223,-0.16267 -2.57136,-0.1963 -0.0661,-0.0505 -0.15303,-0.0637 -0.2341,-0.0656 z m -732.76353,0.003 c -0.95437,0.0151 -1.9125,-0.003 -2.86548,0.077 -3.74447,0.26709 -7.48054,1.36681 -10.5999,3.49289 -2.48163,1.68725 -4.51691,4.04731 -5.73283,6.79755 -1.14212,2.54711 -1.58282,5.3826 -1.38702,8.16094 0.17136,2.81119 0.98943,5.62895 2.63111,7.94133 1.2828,1.83222 3.04531,3.28573 4.98201,4.38338 2.75084,1.5807 5.80092,2.53958 8.85029,3.35746 1.901,0.50498 3.85845,0.92403 5.72172,1.48132 1.43207,0.4427 2.8727,0.91257 4.18255,1.65354 0.46801,0.2867 0.9419,0.61381 1.24399,1.08119 0.28428,0.55483 0.22455,1.20047 0.22279,1.80359 -0.0344,0.69657 -0.34605,1.38115 -0.89342,1.82285 -1.05294,0.9276 -2.46782,1.28807 -3.82974,1.45182 -1.0305,0.11369 -2.09527,0.0923 -3.14588,0.0153 -0.61514,-0.0485 -1.23821,-0.12686 -1.85533,-0.23688 -1.03298,-0.18198 -2.11363,-0.48064 -3.08312,-0.84767 -1.31462,-0.49191 -2.58998,-1.17001 -3.75177,-1.91564 -1.66797,-1.06243 -3.18136,-2.34143 -4.66741,-3.64032 C 9.3586,351.3817 9.01804,351.08811 8.6775,350.79448 5.78567,354.22292 2.89258,357.65028 0,361.07809 c 1.6535,1.47553 3.28877,2.98376 5.11631,4.24543 4.41133,3.11465 9.58237,5.1545 14.94227,5.83665 3.11717,0.40508 6.29932,0.40781 9.40267,-0.11369 3.38833,-0.57766 6.70598,-1.85502 9.41422,-4.0032 2.31677,-1.83367 4.1103,-4.32093 5.10024,-7.10639 1.09151,-3.04215 1.30642,-6.37934 0.71303,-9.55066 -0.5213,-2.67539 -1.78103,-5.22277 -3.69728,-7.17378 -2.09551,-2.15337 -4.79579,-3.60508 -7.57063,-4.68969 -2.5062,-0.977 -5.11625,-1.64711 -7.72572,-2.28251 -2.18314,-0.57322 -4.39248,-1.16977 -6.45181,-2.12587 -0.67508,-0.32766 -1.35854,-0.71215 -1.83209,-1.30813 -0.33066,-0.53279 -0.2443,-1.18858 -0.25566,-1.78583 0.0239,-0.73578 0.41696,-1.42602 0.99967,-1.86632 1.02811,-0.84142 2.3785,-1.15406 3.6771,-1.24806 0.7597,-0.0498 1.51628,-0.0337 2.25907,0.0407 1.45585,0.14034 2.96868,0.5148 4.32781,1.03553 1.48036,0.56081 2.9275,1.3239 4.25473,2.1721 0.88259,0.56456 1.78094,1.21465 2.63973,1.867 0.48349,0.36126 0.9671,0.72234 1.4505,1.08374 2.57439,-3.62951 5.14773,-7.25972 7.72201,-10.88927 -1.70985,-1.37158 -3.4028,-2.77966 -5.28716,-3.91026 -3.76097,-2.31663 -8.04451,-3.76144 -12.43198,-4.25039 -0.95031,-0.11396 -1.91084,-0.16984 -2.86358,-0.21403 -0.0731,-0.0288 -0.1478,-0.0476 -0.22686,-0.0455 z m 824.87213,0 c -1.01499,0.0167 -2.03401,-0.0111 -3.04795,0.0713 -3.74419,0.25874 -7.48186,1.34671 -10.6086,3.46044 -2.42125,1.63414 -4.42359,3.90361 -5.65991,6.55661 -1.23738,2.62525 -1.72059,5.57649 -1.51225,8.46434 0.17089,2.73404 0.95236,5.46994 2.50888,7.74499 1.24579,1.83539 2.96691,3.31009 4.87484,4.4232 2.83613,1.67216 6.00377,2.66752 9.16763,3.51144 2.60985,0.68569 5.25449,1.21724 7.77883,2.17903 1.02553,0.40635 2.0887,0.82121 2.91259,1.57864 0.3343,0.27439 0.53049,0.68241 0.56425,1.11087 0.0558,0.75362 0.0966,1.56486 -0.28488,2.24833 -0.35237,0.62111 -0.96105,1.05217 -1.58258,1.37731 -1.3535,0.67035 -2.88885,0.85717 -4.39401,0.85559 -2.05785,0.003 -4.14274,-0.31944 -6.07674,-0.98568 -2.75291,-0.95258 -5.21433,-2.62274 -7.4172,-4.47882 -0.82965,-0.69815 -1.64523,-1.41229 -2.46745,-2.11923 -2.89245,3.42792 -5.78482,6.85591 -8.67751,10.28361 1.66542,1.48556 3.31232,3.00456 5.15519,4.27215 4.51125,3.17773 9.81636,5.22737 15.3008,5.85975 3.26787,0.38336 6.60506,0.33571 9.83523,-0.32038 3.27744,-0.66953 6.45813,-2.02864 9.02134,-4.20558 2.30952,-1.9626 4.03603,-4.59679 4.91373,-7.49779 0.86183,-2.81733 1.00878,-5.84525 0.4722,-8.73947 -0.51715,-2.74111 -1.81903,-5.34835 -3.79798,-7.32663 -2.09222,-2.11114 -4.76547,-3.54 -7.5129,-4.61018 -2.48756,-0.96785 -5.07741,-1.63174 -7.66646,-2.26336 -2.15085,-0.56186 -4.32009,-1.15308 -6.35437,-2.07589 -0.50842,-0.24265 -1.05859,-0.53097 -1.50376,-0.91292 -0.31289,-0.25088 -0.5902,-0.57653 -0.6482,-0.98681 -0.0764,-0.48623 -0.0794,-0.98539 -0.0396,-1.47527 0.0841,-0.67381 0.48246,-1.27307 1.02047,-1.6751 1.04021,-0.82675 2.39183,-1.13078 3.69213,-1.21769 2.89517,-0.17563 5.78281,0.60007 8.36332,1.87878 0.95858,0.47339 1.92317,1.03703 2.82871,1.63877 1.23563,0.80862 2.41559,1.7521 3.61511,2.63374 0.12821,0.12208 0.18933,-0.18417 0.28702,-0.25614 2.50126,-3.52705 5.00226,-7.05429 7.50371,-10.58122 -1.70336,-1.36686 -3.38934,-2.77098 -5.26661,-3.89757 -3.73078,-2.30259 -7.97856,-3.74452 -12.33133,-4.24728 -0.91053,-0.1116 -1.82999,-0.17084 -2.74346,-0.21796 -0.0638,-0.0438 -0.14669,-0.0543 -0.2222,-0.0579 z m -676.19387,0.50798 c -8.0771,18.47678 -16.15394,36.95366 -24.2316,55.4302 4.93028,0 9.86056,0 14.79083,0 1.71003,-4.0219 3.42143,-8.04322 5.13199,-12.06489 6.70622,0 13.41245,0 20.11867,0 1.68406,4.02167 3.36871,8.04309 5.0524,12.06489 5.0307,0 10.0614,0 15.0921,0 -8.10057,-18.5294 -16.20031,-37.05918 -24.30032,-55.58885 -3.86161,0 -7.72322,0 -11.58482,0 -0.0231,0.0529 -0.0462,0.10576 -0.0692,0.15865 z m 395.55208,0 c -8.07709,18.47678 -16.15395,36.95366 -24.2316,55.4302 4.93027,0 9.86054,0 14.79084,0 1.71003,-4.0219 3.42141,-8.04322 5.13197,-12.06489 6.70623,0 13.41244,0 20.11868,0 1.68407,4.02167 3.3687,8.04309 5.0524,12.06489 5.03071,0 10.06139,0 15.0921,0 -8.10057,-18.5294 -16.20031,-37.05918 -24.30032,-55.58885 -3.86162,0 -7.72321,0 -11.58483,0 -0.023,0.0529 -0.0462,0.10576 -0.0692,0.15865 z m -240.78014,0.18655 c -6.46126,-0.003 -12.92254,0 -19.38383,0 0,18.4149 0,36.82979 0,55.24469 7.32108,-0.003 14.64225,0.008 21.96328,-0.007 5.44337,-0.0948 10.90175,-1.52829 15.55533,-4.38738 4.03426,-2.46777 7.42672,-5.99321 9.67136,-10.16103 2.28357,-4.21304 3.37873,-9.03787 3.25919,-13.82162 -0.10136,-4.67564 -1.37691,-9.33852 -3.78788,-13.35492 -2.40731,-4.03733 -5.91949,-7.39193 -10.02411,-9.67439 -4.53294,-2.53558 -9.73264,-3.78137 -14.9122,-3.83249 -0.78029,-0.0135 -1.56078,-0.005 -2.34114,-0.004 z m -277.06112,0.26356 c 0,18.3267 0,36.65339 0,54.98009 14.22567,0 28.45132,0 42.67699,0 0,-4.38319 0,-8.76638 0,-13.14958 -9.53379,0 -19.06758,0 -28.60136,0 0,-2.7075 0,-5.41499 0,-8.12249 8.35195,0 16.70389,0 25.05584,0 0,-4.38338 0,-8.76673 0,-13.15011 -8.35195,0 -16.70389,0 -25.05584,0 0,-2.56643 0,-5.13284 0,-7.69927 9.41924,0 18.83847,0 28.25771,0 0,-4.37441 0,-8.74882 0,-13.12323 -14.11111,0 -28.22223,0 -42.33334,0 0,0.0882 0,0.1764 0,0.26459 z m 176.11277,0.10075 c 7.601,18.40788 15.20296,36.81537 22.80326,55.22351 3.74671,0 7.49342,0 11.24014,0 7.65059,-18.52993 15.30286,-37.0592 22.95416,-55.58885 -5.08704,0 -10.17407,0 -15.26109,0 -4.39115,11.2576 -8.78261,22.51506 -13.17388,33.77261 -4.41479,-11.25749 -8.82894,-22.51528 -13.24415,-33.77261 -5.15645,0 -10.31289,0 -15.46934,0 0.0503,0.12179 0.1006,0.24358 0.1509,0.36534 z m 59.44546,-0.10075 c 0,18.3267 0,36.65339 0,54.98009 4.69204,0 9.38411,0 14.07615,0 0,-18.41489 0,-36.82978 0,-55.24468 -4.69204,0 -9.38411,0 -14.07615,0 0,0.0882 0,0.1764 0,0.26459 z m 77.94614,0 c 0,18.3267 0,36.65339 0,54.98009 14.22583,0 28.45168,0 42.67751,0 0,-4.38319 0,-8.76638 0,-13.14958 -9.54257,0 -19.08514,0 -28.62771,0 0,-2.7075 0,-5.41499 0,-8.12249 8.35195,0 16.70389,0 25.05583,0 0,-4.38338 0,-8.76673 0,-13.15011 -8.35194,0 -16.70388,0 -25.05583,0 0,-2.56643 0,-5.13284 0,-7.69927 9.42785,0 18.85569,0 28.28354,0 0,-4.37441 0,-8.74882 0,-13.12323 -14.11111,0 -28.22221,0 -42.33334,0 0,0.0882 0,0.1764 0,0.26459 z m 242.17334,0 c 0,18.3267 0,36.65339 0,54.98009 4.63899,0 9.27798,0 13.91697,0 0,-9.87054 0,-19.74109 0,-29.61163 3.85882,5.7785 7.7179,11.55681 11.57656,17.33539 1.04042,0 2.08084,0 3.12126,0 3.88475,-5.8211 7.76975,-11.64201 11.65458,-17.46303 0,9.91309 0,19.82618 0,29.73927 4.69204,0 9.38411,0 14.07615,0 0,-18.41489 0,-36.82978 0,-55.24468 -4.47691,0 -8.95382,0 -13.4307,0 -4.58073,7.12621 -9.16157,14.25236 -13.74233,21.37855 -4.5806,-7.12619 -9.16122,-14.25234 -13.74179,-21.37855 -4.47691,0 -8.95379,0 -13.4307,0 0,0.0882 0,0.1764 0,0.26459 z m 61.9652,0 c 0,18.3267 0,36.65339 0,54.98009 14.22583,0 28.45168,0 42.6775,0 0,-4.38319 0,-8.76638 0,-13.14958 -9.54256,0 -19.08513,0 -28.6277,0 0,-2.7075 0,-5.41499 0,-8.12249 8.35194,0 16.70389,0 25.05583,0 0,-4.38338 0,-8.76673 0,-13.15011 -8.35194,0 -16.70389,0 -25.05583,0 0,-2.56643 0,-5.13284 0,-7.69927 9.42784,0 18.85569,0 28.28353,0 0,-4.37441 0,-8.74882 0,-13.12323 -14.1111,0 -28.2222,0 -42.33333,0 0,0.0882 0,0.1764 0,0.26459 z m 105.59563,0.1452 c 7.27612,11.09816 14.55206,22.19642 21.82813,33.29461 0,7.1801 0,14.36018 0,21.54028 4.70945,0 9.41887,0 14.12832,0 0,-7.25813 0,-14.51626 0,-21.77438 7.37254,-11.15674 14.74478,-22.31369 22.11753,-33.4703 -5.4741,0 -10.94817,0 -16.42226,0 -4.22336,6.6112 -8.44632,13.22263 -12.66952,19.83394 -4.18341,-6.61128 -8.36645,-13.22282 -12.55014,-19.83394 -5.56692,0 -11.13386,0 -16.70077,0 0.0896,0.13661 0.17912,0.27318 0.26871,0.40979 z m 146.55229,-0.1452 c 0,18.3267 0,36.65339 0,54.98009 14.22582,0 28.45167,0 42.6775,0 0,-4.38319 0,-8.76638 0,-13.14958 -9.53379,0 -19.06757,0 -28.60135,0 0,-2.7075 0,-5.41499 0,-8.12249 8.35194,0 16.70388,0 25.05583,0 0,-4.38338 0,-8.76673 0,-13.15011 -8.35195,0 -16.70389,0 -25.05583,0 0,-2.56643 0,-5.13284 0,-7.69927 9.41906,0 18.83812,0 28.25718,0 0,-4.37441 0,-8.74882 0,-13.12323 -14.1111,0 -28.22221,0 -42.33333,0 0,0.0882 0,0.1764 0,0.26459 z m 47.81052,0 c 0,18.3267 0,36.65339 0,54.98009 4.63899,0 9.27799,0 13.91698,0 0,-9.87054 0,-19.74109 0,-29.61163 3.85865,5.7785 7.71755,11.55681 11.57605,17.33539 1.04058,0 2.08116,0 3.12176,0 3.88479,-5.8211 7.76969,-11.64201 11.65459,-17.46303 0,9.91309 0,19.82618 0,29.73927 4.692,0 9.3841,0 14.0761,0 0,-18.41489 0,-36.82978 0,-55.24468 -4.4769,0 -8.9538,0 -13.4307,0 -4.5807,7.12621 -9.16153,14.25236 -13.74228,21.37855 -4.5806,-7.12619 -9.16123,-14.25234 -13.7418,-21.37855 -4.47691,0 -8.95379,0 -13.4307,0 0,0.0882 0,0.1764 0,0.26459 z m -97.6049,0.0265 c 0,4.3832 0,8.76639 0,13.14958 5.28289,0 10.56577,0 15.84865,0 0,13.93473 0,27.86946 0,41.80417 4.70961,0 9.41925,0 14.12886,0 0,-13.93471 0,-27.86944 0,-41.80417 5.28269,0 10.56542,0 15.84812,0 0,-4.47138 0,-8.94278 0,-13.41416 -15.27522,0 -30.55041,0 -45.82563,0 0,0.0882 0,0.1764 0,0.26458 z m -745.99269,2.80482 c 1.76793,0 3.57055,0.10653 5.29993,0.36121 2.56119,0.37209 5.06744,1.11059 7.3827,2.28801 1.63874,0.82995 3.17601,1.8519 4.6145,2.99231 -1.29019,1.54202 -2.58038,3.08404 -3.87057,4.62605 -2.2936,-1.82848 -4.89646,-3.32673 -7.74587,-4.08328 -2.37904,-0.64723 -4.86835,-0.85519 -7.32611,-0.71269 -3.43177,0.249 -6.76259,1.61846 -9.39832,3.82696 -3.15171,2.61472 -5.33235,6.31653 -6.27286,10.2887 -0.84643,3.56393 -0.73272,7.3374 0.22762,10.86659 0.92498,3.33664 2.74008,6.45237 5.33047,8.76859 2.58723,2.33359 5.90842,3.80431 9.35429,4.26497 3.00361,0.41085 6.08628,0.15817 9.0058,-0.64275 2.5549,-0.71157 4.99092,-1.88399 7.08854,-3.51269 0.20988,-0.22026 0.088,-0.53787 0.12092,-0.80584 0,-3.53753 0,-7.07506 0,-10.61259 -4.25969,0 -8.51938,0 -12.77907,0 0,-1.66691 0,-3.33383 0,-5.00073 6.20876,0 12.4175,0 18.62626,0 0,6.34174 0,12.68346 0,19.0252 -2.50024,2.06264 -5.31476,3.74624 -8.32353,4.95369 -1.40614,0.55727 -2.89914,1.03114 -4.39298,1.37165 -1.07227,0.24591 -2.19337,0.43852 -3.27884,0.56269 -1.61859,0.18799 -3.24728,0.2407 -4.86436,0.17201 -3.14017,-0.13279 -6.2744,-0.75488 -9.18598,-1.97771 -1.59435,-0.6632 -3.13369,-1.5218 -4.52275,-2.52074 -1.51653,-1.08974 -2.88723,-2.37617 -4.0717,-3.80674 -2.28419,-2.74011 -3.86075,-6.04102 -4.69695,-9.51095 -0.36193,-1.48019 -0.59748,-3.06732 -0.70238,-4.61785 -0.21879,-3.19125 0.10472,-6.46235 1.05865,-9.53588 0.78331,-2.54137 1.96385,-4.93461 3.51294,-7.09856 0.29473,-0.41021 0.62885,-0.84778 0.9523,-1.23896 1.32522,-1.6137 2.88016,-3.06591 4.59693,-4.27742 1.24696,-0.88272 2.63007,-1.67132 4.0265,-2.29158 1.44541,-0.6459 2.90973,-1.12546 4.45023,-1.48032 1.89778,-0.43367 3.8506,-0.64047 5.78369,-0.64135 z m 313.92812,0 c 3.65566,-0.006 7.35652,0.70896 10.71411,2.22118 1.70987,0.76504 3.33219,1.74485 4.80007,2.88594 1.58436,1.23116 3.01139,2.66552 4.22672,4.26234 0.92507,1.21441 1.76562,2.56968 2.43703,3.94536 1.38416,2.81246 2.20567,5.92219 2.45163,9.05555 0.38406,4.76321 -0.56396,9.68279 -2.83488,13.91523 -1.62751,3.04686 -3.9179,5.74169 -6.68192,7.81611 -2.54458,1.9141 -5.51461,3.32488 -8.61719,4.10734 -3.58807,0.91127 -7.36277,1.04817 -11.01709,0.47828 -1.51681,-0.24058 -3.04173,-0.61976 -4.51401,-1.14265 -2.37471,-0.84178 -4.68733,-2.09328 -6.7012,-3.67051 -1.86965,-1.46167 -3.50666,-3.21652 -4.85426,-5.16904 -0.25368,-0.37769 -0.5347,-0.80507 -0.77901,-1.21481 -1.34578,-2.24488 -2.31728,-4.69685 -2.88227,-7.25797 -0.24413,-1.09558 -0.41201,-2.18749 -0.51377,-3.31155 -0.43142,-4.75104 0.46332,-9.66697 2.67544,-13.92007 1.30747,-2.52087 3.08153,-4.82452 5.17639,-6.71997 3.3369,-3.02434 7.54999,-5.03989 11.97592,-5.83808 1.63848,-0.30107 3.28049,-0.44008 4.93829,-0.44268 z m 81.62342,0 c 1.76814,0 3.57093,0.1065 5.30046,0.36121 2.56121,0.37209 5.06745,1.11059 7.38272,2.28801 1.63875,0.82995 3.176,1.8519 4.61449,2.99231 -1.29019,1.54202 -2.58038,3.08404 -3.87056,4.62605 -2.29362,-1.82848 -4.89646,-3.32673 -7.74587,-4.08328 -2.37905,-0.64723 -4.86836,-0.85519 -7.32612,-0.71269 -3.42387,0.24855 -6.74759,1.61203 -9.38012,3.81204 -3.16113,2.61591 -5.34916,6.32376 -6.29094,10.30375 -0.84725,3.56502 -0.73256,7.33986 0.2287,10.8699 0.92403,3.33531 2.73987,6.44856 5.32816,8.76433 2.60667,2.35087 5.95799,3.82674 9.43162,4.27595 2.98826,0.39765 6.05272,0.14013 8.95501,-0.66021 2.54572,-0.71181 4.97245,-1.88225 7.06311,-3.50539 0.20989,-0.22026 0.088,-0.53787 0.12091,-0.80584 0,-3.53753 0,-7.07506 0,-10.61259 -4.25968,0 -8.51937,0 -12.77906,0 0,-1.66691 0,-3.33383 0,-5.00073 6.20874,0 12.41751,0 18.62625,0 0,6.34174 0,12.68346 0,19.0252 -2.50024,2.06264 -5.31474,3.74624 -8.32353,4.95369 -1.40613,0.55727 -2.89912,1.03114 -4.39298,1.37165 -1.07225,0.24591 -2.19335,0.43852 -3.27882,0.56269 -1.61859,0.18799 -3.24729,0.2407 -4.86437,0.17201 -3.14018,-0.13279 -6.27441,-0.75488 -9.18599,-1.97771 -1.59435,-0.6632 -3.13367,-1.5218 -4.52273,-2.52074 -1.51654,-1.08974 -2.88724,-2.37617 -4.07173,-3.80674 -2.28417,-2.74011 -3.86072,-6.04102 -4.69693,-9.51095 -0.36193,-1.48019 -0.59749,-3.06732 -0.70237,-4.61785 -0.21751,-3.17207 0.10123,-6.42282 1.04106,-9.48034 0.42674,-1.39415 0.97578,-2.75368 1.63428,-4.03977 1.63822,-3.22 4.03608,-6.10314 6.94975,-8.27069 2.79834,-2.09338 6.06693,-3.54695 9.49032,-4.2446 0.62751,-0.12843 1.30476,-0.24188 1.944,-0.32144 1.09701,-0.13944 2.20776,-0.20471 3.32128,-0.20723 z m -496.86319,0.18553 c 3.16388,-0.003 6.3732,0.45278 9.37447,1.51916 1.23519,0.43593 2.43374,0.96983 3.57544,1.58633 1.1663,0.6277 2.28545,1.34263 3.34935,2.13141 -1.07211,1.51151 -2.14422,3.02305 -3.21634,4.53459 -2.93845,-2.03285 -6.2248,-3.65551 -9.75839,-4.31284 -2.38536,-0.4344 -4.88785,-0.4957 -7.23388,0.18547 -1.77863,0.52025 -3.46568,1.54522 -4.5188,3.09935 -0.84781,1.23119 -1.23526,2.75342 -1.138,4.24106 0.0609,1.56729 0.66925,3.13667 1.80854,4.23495 1.18695,1.17509 2.74234,1.87219 4.27984,2.46465 2.67014,1.01438 5.48012,1.617 8.22937,2.33786 2.77511,0.7499 5.53714,1.67417 8.01955,3.14893 1.85692,1.1099 3.52687,2.64862 4.46473,4.62569 0.32737,0.68305 0.56335,1.39925 0.72731,2.12394 0.12724,0.56523 0.21282,1.13654 0.26406,1.73424 0.19915,2.44089 -0.10343,5.01224 -1.16958,7.25797 -0.60948,1.2755 -1.42091,2.3998 -2.42915,3.38796 -1.44137,1.40666 -3.22923,2.4479 -5.1264,3.14225 -0.63663,0.23368 -1.28013,0.42984 -1.91125,0.58758 -0.76023,0.19426 -1.60346,0.35013 -2.37413,0.45538 -0.76115,0.099 -1.52193,0.16523 -2.27359,0.19751 -1.04952,0.0448 -2.10103,0.0269 -3.14934,-0.0378 -0.74136,-0.0498 -1.52493,-0.12451 -2.2777,-0.231 -0.59527,-0.085 -1.23241,-0.19323 -1.82408,-0.31663 -3.55349,-0.72239 -6.97046,-2.14273 -10.02035,-4.12237 -0.99232,-0.64677 -1.92461,-1.32953 -2.84634,-2.08409 -0.003,-0.11314 0.19395,-0.24411 0.2658,-0.36391 1.10013,-1.3036 2.20026,-2.60718 3.30039,-3.91078 2.80985,2.28282 5.99545,4.18536 9.50653,5.14815 2.5389,0.70163 5.2051,0.95544 7.82971,0.72592 2.11598,-0.20482 4.25682,-0.85453 5.91815,-2.22417 1.45274,-1.20536 2.39863,-3.01871 2.48296,-4.91159 0.12139,-1.74184 -0.34953,-3.5786 -1.53666,-4.8939 -1.0813,-1.22512 -2.57727,-1.9722 -4.06438,-2.58646 -2.55354,-1.02306 -5.26006,-1.60507 -7.91453,-2.26933 -1.32419,-0.3352 -2.66523,-0.72025 -3.9528,-1.14588 -1.41048,-0.47025 -2.80429,-1.01375 -4.10642,-1.68704 -1.86966,-0.96827 -3.63412,-2.28481 -4.74605,-4.10509 -0.51919,-0.83563 -0.90719,-1.78874 -1.13424,-2.72272 -0.36818,-1.49606 -0.46574,-3.05107 -0.38669,-4.5865 0.13134,-2.24832 0.84516,-4.47759 2.15771,-6.3178 1.50375,-2.14577 3.73031,-3.74015 6.13858,-4.69786 2.35301,-0.94353 4.88302,-1.34086 7.4166,-1.34255 z m 732.49947,0 c 3.1637,0 6.37286,0.45284 9.37395,1.51916 1.2352,0.43593 2.43374,0.96983 3.57544,1.58633 1.16631,0.6277 2.28545,1.34263 3.34936,2.13141 -1.07211,1.51151 -2.14423,3.02305 -3.21635,4.53459 -2.93844,-2.03285 -6.2248,-3.65551 -9.75839,-4.31284 -2.36717,-0.4313 -4.84862,-0.49427 -7.17965,0.16954 -1.78451,0.51147 -3.48033,1.52781 -4.54642,3.07673 -0.88971,1.27112 -1.28415,2.85965 -1.15445,4.40127 0.0907,1.53559 0.7095,3.05977 1.82869,4.13279 1.20859,1.18552 2.78844,1.88428 4.34819,2.48126 2.64438,0.99402 5.4116,1.58795 8.13792,2.30407 1.38203,0.37013 2.76379,0.79309 4.08974,1.2926 2.40165,0.92115 4.8341,2.10024 6.64692,3.99407 1.09858,1.12895 1.90995,2.53233 2.32598,4.0526 0.20997,0.74829 0.33602,1.50008 0.40381,2.28242 0.0855,1.03656 0.0796,2.14779 -0.0407,3.19435 -0.10057,0.91043 -0.3006,1.85877 -0.59193,2.72764 -0.50038,1.53945 -1.35173,2.98677 -2.42816,4.17145 -0.90329,1.00435 -1.97858,1.85213 -3.13526,2.52203 -2.6955,1.56485 -5.81586,2.25883 -8.90654,2.41369 -2.57352,0.11546 -5.13738,-0.0845 -7.66296,-0.62511 -1.61185,-0.34443 -3.20662,-0.83333 -4.71596,-1.4374 -2.87338,-1.15419 -5.55427,-2.77363 -7.94269,-4.74183 1.1965,-1.41799 2.39297,-2.83599 3.58944,-4.254 2.81665,2.28825 6.01102,4.19486 9.53212,5.15495 2.52291,0.69488 5.17115,0.94555 7.77883,0.72173 2.11206,-0.20129 4.24908,-0.84341 5.91315,-2.20244 1.46875,-1.20348 2.42612,-3.02644 2.51296,-4.93019 0.11996,-1.72339 -0.33571,-3.53886 -1.49477,-4.85318 -1.11643,-1.28531 -2.6824,-2.05562 -4.23428,-2.68356 -2.53114,-0.99944 -5.20012,-1.56948 -7.83204,-2.23075 -2.63533,-0.6839 -5.26643,-1.46458 -7.71634,-2.67015 -0.81197,-0.40399 -1.6212,-0.87519 -2.33351,-1.39981 -1.19349,-0.87328 -2.22631,-1.94206 -2.93963,-3.24379 -0.98682,-1.79345 -1.30516,-3.88204 -1.31744,-5.89513 -0.008,-1.04206 0.0945,-2.13595 0.32332,-3.14171 0.16902,-0.74049 0.41241,-1.48664 0.71832,-2.18025 0.71128,-1.63528 1.83356,-3.1029 3.17291,-4.25296 2.31695,-2.00708 5.28508,-3.13841 8.29357,-3.57767 1.06969,-0.16023 2.15157,-0.23032 3.23287,-0.23191 z m 92.12823,0 c 3.69163,-0.007 7.43056,0.62405 10.8422,2.09132 1.9353,0.82672 3.76624,1.89283 5.45603,3.14608 -1.07196,1.51135 -2.14389,3.02273 -3.21583,4.53409 -2.9315,-2.02793 -6.20879,-3.64742 -9.73285,-4.30821 -2.38379,-0.43667 -4.88448,-0.50232 -7.23104,0.17253 -1.78366,0.51504 -3.4758,1.53805 -4.53641,3.0907 -0.87874,1.26791 -1.26815,2.84671 -1.13914,4.37968 0.0907,1.53559 0.70951,3.05977 1.82869,4.13279 1.21529,1.19145 2.80443,1.89219 4.37304,2.49036 2.64221,0.9909 5.40641,1.58372 8.12988,2.29852 1.54429,0.41616 3.06292,0.88699 4.55818,1.47717 0.92351,0.36668 1.90358,0.80383 2.78744,1.29241 0.5442,0.29776 1.07792,0.6268 1.55742,0.96604 1.65267,1.14761 3.06745,2.70907 3.80442,4.60066 0.44981,1.12607 0.68344,2.34516 0.76078,3.52475 0.0696,1.01362 0.0513,2.0573 -0.0725,3.06279 -0.1203,1.01349 -0.35747,2.0601 -0.72538,3.03194 -0.16256,0.4381 -0.37753,0.92279 -0.60589,1.35827 -1.2133,2.34278 -3.26488,4.18261 -5.60988,5.35384 -1.04058,0.52276 -2.14133,0.93107 -3.24993,1.23285 -1.15888,0.3156 -2.33744,0.52425 -3.52108,0.64619 -2.66375,0.26189 -5.39697,0.13203 -8.04817,-0.33803 -1.53282,-0.27511 -3.11666,-0.69101 -4.61571,-1.22719 -2.52577,-0.8994 -4.93596,-2.16736 -7.11634,-3.70625 -0.63723,-0.449 -1.2681,-0.93168 -1.87897,-1.43196 1.19684,-1.41816 2.39366,-2.83636 3.5905,-4.25452 2.76254,2.24448 5.88659,4.11932 9.3281,5.09889 2.5931,0.73821 5.32257,1.01028 8.00915,0.77507 2.11164,-0.20497 4.24765,-0.8518 5.90727,-2.21649 1.45,-1.19828 2.39771,-3.00138 2.49092,-4.88702 0.12494,-1.72304 -0.32305,-3.53938 -1.47539,-4.85952 -1.11136,-1.29008 -2.67616,-2.06428 -4.22738,-2.69404 -2.53019,-1.002 -5.19901,-1.57327 -7.83109,-2.23377 -2.63572,-0.68271 -5.26664,-1.46304 -7.71842,-2.66462 -1.63124,-0.80743 -3.179,-1.85274 -4.3488,-3.26321 -0.36267,-0.43572 -0.72623,-0.97224 -1.00719,-1.50336 -0.99724,-1.87984 -1.28154,-4.04882 -1.25667,-6.15196 0.0296,-2.14014 0.55317,-4.29014 1.64529,-6.14072 0.56287,-0.96652 1.27016,-1.84957 2.06801,-2.61178 1.0885,-1.04563 2.3876,-1.90984 3.75076,-2.55072 1.4437,-0.67574 2.98453,-1.13284 4.55372,-1.40507 0.48109,-0.0797 1.01859,-0.15621 1.52543,-0.20346 0.72987,-0.0724 1.46346,-0.10414 2.19683,-0.10504 z m -665.9733,0.34364 c 6.94376,15.88379 13.88752,31.76757 20.83128,47.65135 -2.12872,0 -4.25745,0 -6.38617,0 -1.68406,-4.02166 -3.36871,-8.04307 -5.0524,-12.06489 -8.46116,0 -16.92231,0 -25.38347,0 -1.71003,4.0219 -3.42143,8.04323 -5.13198,12.06489 -2.0333,0 -4.06659,0 -6.09989,0 6.94359,-15.88378 13.88718,-31.76756 20.83077,-47.65135 2.13062,0 4.26124,0 6.39186,0 z m 395.55207,0 c 6.94378,15.88379 13.88753,31.76757 20.83128,47.65135 -2.1287,0 -4.25743,0 -6.38617,0 -1.68404,-4.02166 -3.3687,-8.04307 -5.0524,-12.06489 -8.46116,0 -16.9223,0 -25.38346,0 -1.71003,4.0219 -3.42144,8.04323 -5.13199,12.06489 -2.0333,0 -4.0666,0 -6.09989,0 6.94359,-15.88378 13.88718,-31.76756 20.83077,-47.65135 2.13061,0 4.26125,0 6.39186,0 z m -488.53451,0.34417 c 0,1.72858 0,3.45715 0,5.18573 -9.41906,0 -18.83813,0 -28.25719,0 0,5.21226 0,10.4245 0,15.63677 8.35195,0 16.70389,0 25.05584,0 0,1.73754 0,3.47506 0,5.21261 -8.35195,0 -16.70389,0 -25.05584,0 0,5.35334 0,10.70665 0,16.05999 9.53379,0 19.06757,0 28.60136,0 0,1.73736 0,3.47472 0,5.21208 -11.58,0 -23.16,0 -34.74,0 0,-15.76906 0,-31.53812 0,-47.30718 11.46527,0 22.93055,0 34.39583,0 z m 150.35981,0 c 5.32026,13.56678 10.64056,27.13355 15.96079,40.70035 5.29227,-13.56675 10.58435,-27.13357 15.87655,-40.70035 2.20573,0 4.41143,0 6.61715,0 -6.55894,15.88379 -13.11788,31.76757 -19.67682,47.65135 -1.97697,0 -3.95394,0 -5.93091,0 -6.55911,-15.88378 -13.11823,-31.76756 -19.67735,-47.65135 2.27687,0 4.55373,0 6.83059,0 z m 56.94122,0 c 0,15.76906 0,31.53812 0,47.30718 -2.04602,0 -4.09207,0 -6.13812,0 0,-15.76906 0,-31.53812 0,-47.30718 2.04605,0 4.0921,0 6.13812,0 z m 33.27808,0 c 2.0276,0.004 4.07733,0.18537 6.06112,0.58653 3.06406,0.61807 6.07264,1.75593 8.71998,3.45432 1.733,1.09387 3.32801,2.45277 4.6854,3.96433 1.25974,1.40655 2.35011,2.98524 3.20056,4.65418 0.83339,1.62706 1.46659,3.35965 1.88585,5.1263 0.37068,1.54308 0.5848,3.16468 0.64762,4.76748 0.0344,0.88979 0.0238,1.8147 -0.0349,2.70552 -0.0742,1.18541 -0.24064,2.40025 -0.48808,3.55923 -0.82328,3.93028 -2.7029,7.67419 -5.43422,10.63937 -2.10469,2.30725 -4.70218,4.14158 -7.52346,5.42885 -3.27617,1.49389 -6.8345,2.25089 -10.40553,2.39245 -1.63558,0.0563 -3.27266,0.0169 -4.90887,0.0286 -4.56755,0 -9.13508,0 -13.70264,0 0,-15.76906 0,-31.53812 0,-47.30718 5.76572,0 11.53144,0 17.29714,0 z m 72.92578,0 c 0,1.72858 0,3.45715 0,5.18573 -9.42801,0 -18.85604,0 -28.28407,0 0,5.21226 0,10.4245 0,15.63677 8.35213,0 16.70423,0 25.05636,0 0,1.73754 0,3.47506 0,5.21261 -8.35213,0 -16.70423,0 -25.05636,0 0,5.35334 0,10.70665 0,16.05999 9.54276,0 19.08548,0 28.62824,0 0,1.73736 0,3.47472 0,5.21208 -11.58,0 -23.16001,0 -34.74001,0 0,-15.76906 0,-31.53812 0,-47.30718 11.4653,0 22.93057,0 34.39584,0 z m 215.07164,0 c 5.30323,8.25029 10.60616,16.50079 15.9096,24.75095 5.30363,-8.25018 10.60673,-16.50066 15.91014,-24.75095 2.43139,0 4.86275,0 7.29414,0 0,15.76906 0,31.53812 0,47.30718 -2.04621,0 -4.09244,0 -6.13865,0 0,-12.95527 0,-25.91056 0,-38.86583 -5.72852,8.58263 -11.45662,17.16556 -17.18501,25.74829 -5.70158,-8.53834 -11.40341,-17.07655 -17.10489,-25.61497 0,12.91085 0,25.82167 0,38.73251 -1.99315,0 -3.98631,0 -5.97947,0 0,-15.76906 0,-31.53812 0,-47.30718 2.43139,0 4.86275,0 7.29414,0 z m 89.06689,0 c 0,1.72858 0,3.45715 0,5.18573 -9.428,0 -18.85603,0 -28.28406,0 0,5.21226 0,10.4245 0,15.63677 8.35213,0 16.70423,0 25.05636,0 0,1.73754 0,3.47506 0,5.21261 -8.35213,0 -16.70423,0 -25.05636,0 0,5.35334 0,10.70665 0,16.05999 9.54275,0 19.08548,0 28.62823,0 0,1.73736 0,3.47472 0,5.21208 -11.57999,0 -23.16001,0 -34.74,0 0,-15.76906 0,-31.53812 0,-47.30718 11.4653,0 22.93057,0 34.39583,0 z m 81.47773,0 c 4.90659,7.75383 9.81247,15.50808 14.71951,23.26164 4.95279,-7.75393 9.90568,-15.50776 14.85852,-23.26164 2.28994,0 4.57991,0 6.86985,0 -6.23567,9.43642 -12.47092,18.87313 -18.70686,28.30939 0,6.33259 0,12.6652 0,18.99779 -2.06377,0 -4.12755,0 -6.19135,0 0,-6.25231 0,-12.50465 0,-18.757 -6.23912,-9.51669 -12.47812,-19.03346 -18.71721,-28.55018 2.38919,0 4.77835,0 7.16754,0 z m 170.67019,0 c 0,1.72858 0,3.45715 0,5.18573 -9.41906,0 -18.83812,0 -28.25718,0 0,5.21226 0,10.4245 0,15.63677 8.35194,0 16.70388,0 25.05583,0 0,1.73754 0,3.47506 0,5.21261 -8.35195,0 -16.70389,0 -25.05583,0 0,5.35334 0,10.70665 0,16.05999 9.53378,0 19.06756,0 28.60135,0 0,1.73736 0,3.47472 0,5.21208 -11.57999,0 -23.16001,0 -34.74,0 0,-15.76906 0,-31.53812 0,-47.30718 11.46529,0 22.93056,0 34.39583,0 z m 20.70883,0 c 5.30323,8.25029 10.60617,16.50079 15.90961,24.75095 5.30358,-8.25018 10.60668,-16.50066 15.91008,-24.75095 2.4313,0 4.8625,0 7.2937,0 0,15.76906 0,31.53812 0,47.30718 -2.0461,0 -4.0921,0 -6.1382,0 0,-12.95527 0,-25.91056 0,-38.86583 -5.7285,8.58263 -11.4566,17.16556 -17.18496,25.74829 -5.70159,-8.53834 -11.40341,-17.07655 -17.10489,-25.61497 0,12.91085 0,25.82167 0,38.73251 -1.99316,0 -3.98632,0 -5.97948,0 0,-15.76906 0,-31.53812 0,-47.30718 2.43136,0 4.86275,0 7.29414,0 z m -67.01091,0.0269 c 0,1.82555 0,3.65109 0,5.47667 -5.28289,0 -10.56577,0 -15.84865,0 0,13.9347 0,27.86943 0,41.80416 -2.06362,0 -4.12721,0 -6.19083,0 0,-13.93473 0,-27.86946 0,-41.80416 -5.28288,0 -10.56576,0 -15.84865,0 0,-1.82558 0,-3.65112 0,-5.47667 12.62939,0 25.25874,0 37.88813,0 z m -474.57,4.52993 c -3.53968,0.0764 -7.06715,1.19372 -9.94516,3.26935 -3.26652,2.33487 -5.65811,5.8115 -6.81262,9.64589 -1.3739,4.49358 -1.18277,9.46158 0.58422,13.81988 1.44958,3.57804 3.99966,6.72801 7.29216,8.76432 2.6371,1.64367 5.71323,2.5577 8.81674,2.66017 3.5184,0.13923 7.09186,-0.71596 10.09972,-2.5654 3.29155,-2.00847 5.85285,-5.13773 7.28266,-8.70934 1.82327,-4.50927 1.96035,-9.66771 0.42849,-14.27993 -1.1625,-3.47911 -3.31935,-6.64041 -6.22644,-8.89198 -2.73634,-2.13236 -6.11534,-3.41451 -9.57373,-3.66255 -0.64728,-0.0489 -1.29702,-0.0641 -1.94604,-0.0504 z m -108.80989,0.78756 c -3.56291,0 -7.12584,0 -10.68875,0 0,12.20632 0,24.41263 0,36.61897 3.966,-0.004 7.93224,0.0116 11.8981,-0.0116 3.7192,-0.1043 7.46427,-1.13774 10.54241,-3.26795 2.60175,-1.78998 4.66082,-4.34514 5.87922,-7.25718 1.42349,-3.3769 1.79258,-7.15147 1.2767,-10.76594 -0.50292,-3.47007 -1.97028,-6.82445 -4.3292,-9.43555 -2.18119,-2.43308 -5.08264,-4.18618 -8.2202,-5.0778 -2.06219,-0.59312 -4.2155,-0.83463 -6.35828,-0.80291 z m -150.68744,0.68472 c -3.44578,8.02579 -6.88967,16.05383 -10.33425,24.08071 7.07244,0 14.14487,0 21.21731,0 -3.54715,-8.21489 -7.09379,-16.43002 -10.6407,-24.64502 -0.0808,0.1881 -0.16157,0.37622 -0.24236,0.56431 z m 395.52573,0 c -3.44577,8.02579 -6.88967,16.05383 -10.33425,24.08071 7.07244,0 14.14486,0 21.2173,0 -3.54716,-8.21489 -7.09379,-16.43002 -10.64069,-24.64502 -0.0808,0.1881 -0.16158,0.37622 -0.24236,0.56431 z m -135.538,2.49038 c 1.09662,-0.003 2.21131,0.11565 3.25777,0.34962 1.41943,0.31338 2.79542,0.84394 4.03389,1.58181 1.27949,0.75592 2.46795,1.75829 3.43913,2.90815 2.08354,2.44157 3.26231,5.57855 3.54007,8.76008 0.0499,0.61069 0.0782,1.2948 0.0651,1.94355 -0.0531,3.46986 -1.13842,7.03845 -3.37389,9.76122 -1.64203,2.01684 -3.88582,3.53828 -6.37812,4.28861 -1.57234,0.48532 -3.22292,0.6903 -4.85651,0.64177 -0.59012,-0.0167 -1.21025,-0.0705 -1.7867,-0.15346 -2.075,-0.28564 -4.10083,-1.07219 -5.81721,-2.24377 -2.48161,-1.6828 -4.32988,-4.21722 -5.3313,-7.0309 -0.32277,-0.89832 -0.557,-1.79716 -0.71948,-2.73442 -0.17214,-1.0106 -0.25988,-2.08037 -0.25353,-3.1228 0.0109,-1.55016 0.19852,-3.08104 0.61881,-4.58994 0.54835,-1.9967 1.5085,-3.91887 2.82107,-5.49936 1.38739,-1.68836 3.20791,-3.01088 5.23224,-3.83027 0.90157,-0.36954 1.94548,-0.6573 2.95503,-0.82214 0.84351,-0.14065 1.69883,-0.20428 2.55367,-0.20775 z m -108.82849,0.79375 c 0.9928,0 1.96784,0.0699 2.93161,0.21709 1.09924,0.16399 2.22335,0.45421 3.23546,0.83762 2.46819,0.93178 4.66804,2.60781 6.12933,4.81425 0.89543,1.3348 1.52691,2.84388 1.90842,4.38926 0.54321,2.23996 0.6169,4.55313 0.28318,6.84614 -0.32253,2.04071 -1.03666,4.01246 -2.20202,5.72011 -1.41539,2.08685 -3.50406,3.73877 -5.85568,4.68289 -0.83971,0.34485 -1.74982,0.61044 -2.61347,0.79375 -1.55493,0.33435 -3.15087,0.40317 -4.73676,0.37925 -2.09063,0 -4.18124,0 -6.27187,0 0,-9.56032 0,-19.12064 0,-28.68094 2.39726,0 4.79454,0 7.1918,0 z m -146.31302,16.8274 c -3.05287,0 -6.10574,0 -9.15862,0 1.52205,-3.54621 3.04409,-7.09242 4.56613,-10.63863 1.53083,3.54621 3.06166,7.09242 4.59249,10.63863 z m 395.52573,0 c -3.05287,0 -6.10574,0 -9.15864,0 1.52207,-3.54621 3.04411,-7.09242 4.56616,-10.63863 1.53082,3.54621 3.06165,7.09242 4.59248,10.63863 z" />
    <path
       id="path62"
       style="display:inline;fill:#000000;stroke:none;stroke-width:1.5875;stroke-dasharray:none;stroke-opacity:1"
       inkscape:label="SegaVideoGameSystemOutlineBlack"
       d="m 124.06952,315.93885 c -15.74918,0 -27.09343,12.50368 -27.09343,27.22573 0,15.25027 10.96059,27.09344 27.22572,27.09344 9.21896,0 16.59334,-3.7233 21.70876,-8.09614 l 0.46353,-0.39638 v -22.91384 h -23.91843 v 10.2924 h 12.77906 v 7.28329 c -2.78684,1.89714 -6.56914,3.1941 -10.74198,3.1941 -9.55945,0 -15.66312,-6.82138 -15.66312,-16.58916 0,-9.07579 6.42724,-16.37781 14.86937,-16.37781 6.06337,0 9.3936,1.84806 13.14029,5.03018 l 1.01595,0.86248 7.25589,-8.67232 -1.00511,-0.85008 c -5.29239,-4.474 -11.08508,-7.08589 -20.0365,-7.08589 z m 313.92813,0 c -16.0225,0 -27.51666,12.41983 -27.51666,27.22573 0,14.79598 11.34313,27.09344 27.35802,27.09344 16.0225,0 27.51666,-12.41983 27.51666,-27.22573 0,-14.79598 -11.34313,-27.09344 -27.35802,-27.09344 z m 81.62396,0 c -15.74919,0 -27.09344,12.50368 -27.09344,27.22573 0,15.25027 10.9606,27.09344 27.22573,27.09344 9.21896,0 16.59332,-3.7233 21.70875,-8.09614 l 0.46352,-0.39638 v -22.91384 h -23.91841 v 10.2924 h 12.77905 v 7.28329 c -2.78683,1.89714 -6.56912,3.1941 -10.74197,3.1941 -9.55945,0 -15.66313,-6.82138 -15.66313,-16.58916 0,-9.07579 6.42724,-16.37781 14.86938,-16.37781 6.06337,0 9.39355,1.84806 13.14026,5.03018 l 1.01598,0.86248 7.25588,-8.67232 -1.0051,-0.85008 c -5.29238,-4.474 -11.08509,-7.08589 -20.0365,-7.08589 z m -496.86115,0.18553 c -5.22081,0 -9.80147,1.53855 -13.10566,4.32273 -3.30419,2.78419 -5.28288,6.83797 -5.28288,11.55227 0,4.91495 1.70818,8.53805 4.81469,11.02981 3.10652,2.49177 7.4306,3.9323 12.81369,5.23121 l 0.006,0.003 0.006,0.003 c 4.56681,1.05687 7.26061,2.07605 8.63099,3.06699 1.37038,0.99092 1.61541,1.7607 1.61541,3.34346 0,1.54184 -0.60288,2.66147 -1.83555,3.55068 -1.23267,0.88924 -3.16894,1.47641 -5.67872,1.47641 -5.8837,0 -10.25666,-2.15461 -14.90555,-6.16138 l -1.01234,-0.87281 -6.98511,8.27701 0.96274,0.8568 c 6.23612,5.54935 13.77727,8.32507 21.7289,8.32507 5.4726,0 10.23994,-1.4478 13.68133,-4.25297 3.44139,-2.80517 5.47409,-6.99132 5.47409,-12.04526 0,-4.47069 -1.57149,-7.99309 -4.53254,-10.53269 -2.96105,-2.53961 -7.16557,-4.15775 -12.53773,-5.46376 h -0.002 -10e-4 c -4.72743,-1.13929 -7.59305,-2.15315 -9.06869,-3.15536 -1.47564,-1.00222 -1.74164,-1.74395 -1.71876,-3.42511 v -0.009 -0.009 c 0,-1.28775 0.52402,-2.36127 1.62625,-3.21945 1.10224,-0.85817 2.83418,-1.46399 5.17333,-1.46399 4.20729,0 8.41691,1.62933 12.75478,4.86998 l 1.08675,0.81184 6.21565,-8.76535 -0.97359,-0.77928 c -5.25424,-4.20891 -11.40586,-6.56137 -18.9513,-6.56137 z m 732.49896,0 c -5.22081,0 -9.80147,1.53855 -13.10566,4.32273 -3.3042,2.78419 -5.28288,6.83797 -5.28288,11.55227 0,4.91495 1.70815,8.53805 4.81467,11.02981 3.1065,2.49177 7.43059,3.9323 12.81369,5.23121 l 0.006,0.003 0.006,0.003 c 4.56681,1.05687 7.26059,2.07605 8.63097,3.06699 1.37038,0.99092 1.61542,1.7607 1.61542,3.34346 0,1.54184 -0.60288,2.66147 -1.83555,3.55068 -1.23267,0.88924 -3.16894,1.47641 -5.67873,1.47641 -5.8837,0 -10.25665,-2.15461 -14.90554,-6.16138 l -1.01235,-0.87281 -6.9851,8.27701 0.96274,0.8568 c 6.23612,5.54935 13.77728,8.32507 21.7289,8.32507 5.47259,0 10.23993,-1.4478 13.68134,-4.25297 3.44139,-2.80517 5.47407,-6.99132 5.47407,-12.04526 0,-4.47069 -1.57149,-7.99309 -4.53252,-10.53269 -2.96106,-2.53961 -7.16555,-4.15775 -12.53773,-5.46376 h -0.003 c -4.72718,-1.13921 -7.58534,-2.15286 -9.05785,-3.15483 -1.47251,-1.00198 -1.74106,-1.74951 -1.72961,-3.43493 v -0.004 -0.005 c 0,-1.28776 0.52401,-2.36128 1.62626,-3.21945 1.10223,-0.85818 2.83417,-1.46399 5.17332,-1.46399 4.2073,0 8.41693,1.62933 12.7548,4.86997 l 1.08675,0.81185 6.21564,-8.76536 -0.97358,-0.7798 c -5.25426,-4.20892 -11.40587,-6.56085 -18.95131,-6.56085 z m 92.1282,0 c -5.22081,0 -9.80196,1.53855 -13.10616,4.32273 -3.30417,2.78419 -5.28238,6.83797 -5.28238,11.55227 0,4.91495 1.70768,8.53805 4.8142,11.02981 3.1065,2.49177 7.43112,3.9323 12.8142,5.23121 l 0.006,0.003 0.006,0.003 c 4.56682,1.05687 7.26112,2.07605 8.6315,3.06699 1.37039,0.99092 1.61489,1.7607 1.61489,3.34346 0,1.54184 -0.60288,2.66147 -1.83555,3.55068 -1.23266,0.88924 -3.16841,1.47641 -5.67819,1.47641 -5.8837,0 -10.25663,-2.15461 -14.90554,-6.16138 l -1.01288,-0.87281 -6.98458,8.27701 0.96274,0.8568 c 6.23612,5.54935 13.77675,8.32507 21.72838,8.32507 5.47259,0 10.23995,-1.4478 13.68134,-4.25297 3.44138,-2.80517 5.4746,-6.99132 5.4746,-12.04526 0,-4.47069 -1.57203,-7.99309 -4.53306,-10.53269 -2.96105,-2.53961 -7.16557,-4.15775 -12.53773,-5.46376 h -0.003 c -4.72715,-1.13921 -7.58481,-2.15286 -9.05733,-3.15483 -1.47251,-1.00198 -1.74159,-1.74951 -1.73013,-3.43493 v -0.004 -0.005 c 0,-1.28776 0.52403,-2.36128 1.62626,-3.21945 1.10223,-0.85818 2.83469,-1.46399 5.17385,-1.46399 4.20727,0 8.41689,1.62933 12.75477,4.86997 l 1.08624,0.81185 6.21565,-8.76536 -0.97359,-0.7798 c -5.25426,-4.20892 -11.40534,-6.56085 -18.95078,-6.56085 z m -674.09785,0.34364 -23.1438,52.94302 h 11.89281 l 5.13302,-12.0649 h 21.87257 l 5.05344,12.0649 h 12.18891 l -23.14329,-52.94302 z m 395.55209,0 -23.14382,52.94302 h 11.89281 l 5.13302,-12.0649 h 21.87258 l 5.05343,12.0649 h 12.18894 l -23.14329,-52.94302 z m -517.45317,0.34417 v 52.59885 H 91.41984 V 358.90729 H 62.81848 V 348.13896 H 87.87432 V 337.63468 H 62.81848 v -10.3451 h 28.25771 v -10.47739 z m 176.61609,0 21.86223,52.94302 h 9.46919 l 21.86276,-52.94302 h -12.38012 l -14.07461,36.08202 -14.14952,-36.08202 z m 58.94214,0 v 52.59885 h 11.43029 v -52.59885 z m 22.11906,0 v 52.59885 h 19.94969 c 16.30402,0 27.86084,-11.57285 27.86084,-26.37875 0,-14.8059 -11.56573,-26.2201 -27.86084,-26.2201 z m 55.82709,0 v 52.59885 h 40.03167 v -10.50375 h -28.62773 v -10.76833 h 25.05585 v -10.50428 h -25.05585 v -10.3451 h 26.93429 1.34927 v -10.47739 z m 242.17333,0 v 52.59885 h 11.27114 v -32.65176 l 13.60692,20.37551 h 1.70584 l 13.68547,-20.5052 v 32.78145 h 11.43032 v -52.59885 h -11.38537 l -14.46474,22.50352 -14.46474,-22.50352 z m 61.9652,0 v 52.59885 h 40.03167 v -10.50375 h -28.62773 v -10.76833 h 25.05586 v -10.50428 h -25.05586 v -10.3451 h 26.93429 1.34927 v -10.47739 z m 106.45344,0 20.97029,31.98616 v 20.61269 h 11.48252 v -20.84835 l 20.98064,-31.7505 h -13.23848 l -13.39866,20.97598 -13.27361,-20.97598 z m 145.69448,0 v 52.59885 h 40.03167 v -10.50375 h -28.60136 v -10.76833 h 25.05583 v -10.50428 h -25.05583 v -10.3451 h 28.25719 v -10.47739 z m 47.81052,0 v 52.59885 h 11.27115 v -32.65176 l 13.60638,20.37551 h 1.70638 l 13.68545,-20.5052 v 32.78145 h 11.4303 v -52.59885 h -11.3853 l -14.46478,22.50352 -14.46474,-22.50352 z m -97.60489,0.0265 v 10.76833 h 15.84864 v 41.80416 h 11.483 v -41.80416 h 15.84814 v -10.76844 z m -747.31563,0.42322 c 8.70479,0 14.04938,2.43406 19.18229,6.77323 l -5.55625,6.64147 c -3.86291,-3.28084 -7.64656,-5.3449 -13.99656,-5.3449 -9.2075,0 -16.19229,7.99052 -16.19229,17.70073 0,10.3452 6.77313,17.91208 16.98604,17.91208 4.70959,0 8.99573,-1.50781 12.0649,-3.78323 v -9.34 h -12.77907 v -7.64657 h 21.27209 v 20.98157 c -4.92125,4.20687 -11.98531,7.77885 -20.84886,7.77885 -15.63687,0 -25.90281,-11.13906 -25.90281,-25.77052 0,-14.04937 10.71573,-25.90281 25.77052,-25.90281 z m 313.92813,0 c 15.34583,0 26.03511,11.64178 26.03511,25.77053 0,14.12875 -10.84792,25.90281 -26.19375,25.90281 -15.34584,0 -26.03511,-11.64177 -26.03511,-25.77052 0,-14.12875 10.84792,-25.90282 26.19375,-25.90282 z m 81.62396,0 c 8.70479,0 14.04937,2.43406 19.18229,6.77323 l -5.55625,6.64147 c -3.86292,-3.28084 -7.64656,-5.3449 -13.99656,-5.3449 -9.2075,0 -16.19229,7.99052 -16.19229,17.70073 0,10.3452 6.77312,17.91208 16.98604,17.91208 4.70958,0 8.99572,-1.50781 12.06489,-3.78323 v -9.34 h -12.77906 v -7.64657 h 21.27208 v 20.98157 c -4.92125,4.20687 -11.98531,7.77885 -20.84885,7.77885 -15.63687,0 -25.90281,-11.13906 -25.90281,-25.77052 0,-14.04937 10.71573,-25.90281 25.77052,-25.90281 z m -496.86115,0.18553 c 7.27604,0 13.07042,2.22229 18.12396,6.27041 l -4.70979,6.64094 c -4.49792,-3.36021 -8.99563,-5.13302 -13.54646,-5.13302 -5.13292,0 -8.1225,2.64615 -8.1225,6.00636 -0.0529,3.88937 2.24885,5.58239 11.80031,7.88426 10.55688,2.56646 16.06,6.35042 16.06,14.71126 0,9.41916 -7.35552,14.97531 -17.83302,14.97531 -7.64645,0 -14.84281,-2.64615 -20.84885,-7.99074 l 5.29166,-6.27051 c 4.78896,4.1275 9.55136,6.48229 15.76907,6.48229 5.42396,0 8.83718,-2.48709 8.83718,-6.35 0,-3.65125 -2.01073,-5.55615 -11.27114,-7.69927 -10.63625,-2.56646 -16.61604,-5.7149 -16.61604,-14.97531 0,-8.70479 7.14375,-14.55209 17.06562,-14.55209 z m 732.49896,0 c 7.27604,0 13.07041,2.22229 18.12396,6.27041 l -4.7098,6.64094 c -4.49792,-3.36021 -8.99562,-5.13302 -13.54645,-5.13302 -5.13292,0 -8.1225,2.64615 -8.1225,6.00636 -0.0265,3.88937 2.24885,5.58239 11.80031,7.88426 10.55687,2.56646 16.06,6.35042 16.06,14.71126 0,9.41916 -7.35553,14.97531 -17.83303,14.97531 -7.64645,0 -14.8428,-2.64615 -20.84885,-7.99074 l 5.29167,-6.27041 c 4.78896,4.1275 9.55135,6.48229 15.76906,6.48229 5.42396,0 8.83719,-2.48708 8.83719,-6.35 0,-3.65125 -2.01073,-5.55614 -11.27114,-7.69927 -10.63625,-2.56645 -16.61605,-5.71489 -16.61605,-14.97531 0,-8.70479 7.14375,-14.55208 17.06563,-14.55208 z m 92.1277,0 c 7.27604,0 13.07042,2.22229 18.12396,6.27041 l -4.70927,6.64094 c -4.49791,-3.36021 -8.99615,-5.13302 -13.54698,-5.13302 -5.13292,0 -8.1225,2.64615 -8.1225,6.00636 -0.0265,3.88937 2.24886,5.58239 11.80031,7.88426 10.55688,2.56646 16.06053,6.35042 16.06053,14.71126 0,9.41916 -7.35552,14.97531 -17.83302,14.97531 -7.64646,0 -14.84334,-2.64615 -20.84938,-7.99074 l 5.29167,-6.27041 c 4.78895,4.1275 9.55135,6.48229 15.76906,6.48229 5.42395,0 8.83719,-2.48708 8.83719,-6.35 0,-3.65125 -2.01073,-5.55614 -11.27115,-7.69927 -10.63625,-2.56645 -16.61604,-5.71489 -16.61604,-14.97531 0,-8.70479 7.14375,-14.55208 17.06562,-14.55208 z m -673.23228,0.34364 h 8.12302 l 21.98677,50.29719 h -9.28677 l -5.05344,-12.0649 h -23.6275 l -5.13302,12.0649 h -8.99583 z m 395.55208,0 h 8.12302 l 21.98677,50.29719 h -9.28677 l -5.05343,-12.0649 H 561.849 l -5.13302,12.0649 h -8.99583 z m -516.99583,0.34417 h 37.04167 v 7.83146 H 61.49557 v 12.99093 H 86.5514 v 7.85844 H 61.49557 v 13.41417 h 28.60135 v 7.85791 H 52.71109 Z m 177.27083,0 h 9.71052 l 15.05489,38.39094 14.97532,-38.39094 h 9.49865 l -20.7698,50.29708 h -7.69979 z m 58.28792,0 h 8.78395 v 49.95302 h -8.78395 z m 22.11906,0 h 18.62677 c 15.68979,0 26.53792,10.76844 26.53792,24.89719 0,14.12875 -10.84813,25.05583 -26.53792,25.05583 H 310.3889 Z m 55.82708,0 h 37.04167 v 7.83146 h -0.0265 -28.25771 v 12.99093 h 25.05636 v 7.85844 h -25.05636 v 13.41417 h 28.62823 v 7.85791 h -37.38583 z m 242.17334,0 h 9.33947 l 15.18719,23.62697 15.18719,-23.62697 h 9.34 v 49.95302 h -8.78448 v -35.82416 l -15.71636,23.54791 H 632.6514 L 617.01463,332.3964 v 35.69187 h -8.62531 z m 61.9652,0 h 37.04167 v 7.83146 h -0.0265 -28.25771 v 12.99093 h 25.05636 v 7.85844 h -25.05636 v 13.41417 h 28.62827 v 7.85791 h -37.38584 z m 107.57948,0 h 10.34563 l 13.99603,22.11906 14.12886,-22.11906 h 10.05417 l -19.84375,30.03021 v 19.92281 h -8.83719 v -19.68458 z m 144.56843,0 h 37.04167 v 7.83146 h -28.25718 v 12.99093 h 25.05583 v 7.85844 h -25.05583 v 13.41417 h 28.60135 v 7.85791 h -37.38584 z m 47.81053,0 h 9.33947 l 15.18719,23.62697 15.18718,-23.62697 h 9.3395 v 49.95302 h -8.784 v -35.82416 l -15.71632,23.54791 h -0.29094 L 978.93827,332.3964 v 35.69187 h -8.62531 z m -97.6049,0.0265 h 40.53396 v 8.1225 h -15.84865 v 41.80416 h -8.83666 v -41.80416 h -15.84865 z m -434.86905,7.1701 c -9.92188,0 -16.82792,7.91115 -16.82792,17.70073 0,9.78959 7.06469,17.83302 16.98656,17.83302 9.92188,0 16.8274,-7.91114 16.8274,-17.70073 0,-9.78958 -7.06417,-17.83302 -16.98604,-17.83302 z m -118.66563,0.79375 v 33.9724 h 9.84229 c 10.4775,0 17.33021,-7.06449 17.33021,-16.90699 0,-9.86895 -6.85271,-17.06562 -17.33021,-17.06562 z m 118.66563,0.52917 c 9.20692,0 15.66312,7.35695 15.66312,16.5101 0,9.16745 -6.28581,16.37782 -15.50448,16.37782 -9.20692,0 -15.66315,-7.35695 -15.66315,-16.51011 0,-9.16744 6.28584,-16.37781 15.50451,-16.37781 z m -117.34271,0.79375 h 8.51937 c 9.87171,0 16.00729,6.48615 16.00729,15.74271 0,4.61422 -1.58583,8.47055 -4.34443,11.20499 -2.7586,2.73423 -6.72142,4.37886 -11.66286,4.37886 h -8.51937 z m -142.39907,0.8201 -8.5726,19.97604 h 17.19792 z m 395.52573,0 -8.5726,19.97604 h 17.19791 z m -395.52159,3.34605 6.6089,15.30708 h -13.17801 z m 395.52572,0 6.60889,15.30708 h -13.17799 z" />
    <path
       style="display:inline;fill:#ffe850;stroke-width:0.264583"
       d="m 994.86608,355.81167 h -0.29104 l -15.63688,-23.41563 v 35.69229 h -8.62541 V 318.135 h 9.33979 l 15.18708,23.62729 15.18708,-23.62729 h 9.3398 v 49.95333 h -8.7842 v -35.82458 z m -35.32187,-29.845 h -28.2575 v 12.99104 h 25.05604 v 7.85812 h -25.05604 v 13.41438 h 28.60145 v 7.85812 H 922.50254 V 318.135 h 37.04167 z m -62.15063,42.12166 h -8.83708 v -41.80416 h -15.84854 v -8.12271 h 40.53416 v 8.12271 h -15.84854 z m -46.46083,-28.97187 c 10.55687,2.56646 16.06021,6.35 16.06021,14.71083 0,9.41917 -7.35542,14.97542 -17.83292,14.97542 -7.64646,0 -14.84312,-2.64584 -20.84917,-7.99042 l 5.29167,-6.27062 c 4.78896,4.1275 9.55146,6.48229 15.76917,6.48229 5.42396,0 8.83708,-2.48709 8.83708,-6.35 0,-3.65125 -2.01083,-5.55625 -11.27125,-7.69938 -10.63625,-2.56646 -16.61583,-5.715 -16.61583,-14.97541 0,-8.7048 7.14375,-14.55209 17.06562,-14.55209 7.27604,0 13.07042,2.2225 18.12396,6.27063 l -4.70958,6.64104 c -4.49792,-3.36021 -8.99584,-5.13292 -13.54667,-5.13292 -5.13292,0 -8.12271,2.64584 -8.12271,6.00604 -0.0265,3.88938 2.24896,5.58271 11.80042,7.88459 z m -44.31771,28.97187 h -8.83708 v -19.685 L 777.93421,318.135 h 10.34521 l 13.99645,22.11917 14.12875,-22.11917 h 10.05417 l -19.84375,30.03021 z m -47.81021,-28.97187 c 10.55688,2.56646 16.06021,6.35 16.06021,14.71083 0,9.41917 -7.35541,14.97542 -17.83291,14.97542 -7.64646,0 -14.84313,-2.64584 -20.84917,-7.99042 l 5.29167,-6.27062 c 4.78895,4.1275 9.55145,6.48229 15.76916,6.48229 5.42396,0 8.83709,-2.48709 8.83709,-6.35 0,-3.65125 -2.01084,-5.55625 -11.27125,-7.69938 -10.63625,-2.56646 -16.61584,-5.715 -16.61584,-14.97541 0,-8.7048 7.14375,-14.55209 17.06563,-14.55209 7.27604,0 13.07041,2.2225 18.12396,6.27063 l -4.70959,6.64104 c -4.49791,-3.36021 -8.99583,-5.13292 -13.54666,-5.13292 -5.13292,0 -8.12271,2.64584 -8.12271,6.00604 -0.0265,3.88938 2.24896,5.58271 11.80041,7.88459 z m -51.435,-13.14979 h -28.2575 v 12.99104 h 25.05605 v 7.85812 h -25.05605 v 13.41438 h 28.62792 v 7.85812 H 670.35463 V 318.135 h 37.04166 v 7.83167 z m -74.42729,29.845 h -0.29104 l -15.63687,-23.41563 v 35.69229 h -8.62542 V 318.135 h 9.33979 l 15.18709,23.62729 15.18708,-23.62729 h 9.33979 v 49.95333 h -8.78417 v -35.82458 z m -33.12583,12.27666 h -9.28687 l -5.05355,-12.065 H 561.849 l -5.13291,12.065 h -8.99584 l 21.98688,-50.29729 h 8.12271 z m -26.19375,-39.81979 -8.5725,19.97604 h 17.19792 z M 519.7538,368.935 c -15.63688,0 -25.90271,-11.13896 -25.90271,-25.77042 0,-14.04937 10.71562,-25.90271 25.77041,-25.90271 8.7048,0 14.04938,2.43417 19.18229,6.77334 l -5.55625,6.64104 c -3.86291,-3.28083 -7.64645,-5.34458 -13.99645,-5.34458 -9.2075,0 -16.1925,7.99041 -16.1925,17.70062 0,10.34521 6.77333,17.91229 16.98625,17.91229 4.70958,0 8.99583,-1.50812 12.065,-3.78354 v -9.33979 h -12.77938 v -7.64646 h 21.2725 v 20.98146 c -4.92125,4.20687 -11.98562,7.77875 -20.84916,7.77875 z m -81.915,0 c -15.34584,0 -26.035,-11.64167 -26.035,-25.77042 0,-14.12875 10.84791,-25.90271 26.19375,-25.90271 15.34583,0 26.035,11.64167 26.035,25.77042 0,14.12875 -10.84792,25.90271 -26.19375,25.90271 z m 0,-43.60333 c -9.92188,0 -16.8275,7.91104 -16.8275,17.70062 0,9.78958 7.06437,17.83292 16.98625,17.83292 9.92187,0 16.8275,-7.91104 16.8275,-17.70063 0,-9.78958 -7.06438,-17.83291 -16.98625,-17.83291 z m -34.6075,0.635 h -28.2575 v 12.99104 h 25.05604 v 7.85812 H 374.9738 v 13.41438 h 28.62791 v 7.85812 H 366.21609 V 318.135 h 37.04166 v 7.83167 z m -74.21563,42.12166 H 310.38901 V 318.135 h 18.62666 c 15.68979,0 26.53771,10.76854 26.53771,24.89729 0,14.12875 -10.84792,25.05604 -26.53771,25.05604 z m 0,-41.96291 h -9.8425 v 33.9725 h 9.8425 c 10.4775,0 17.33021,-7.06438 17.33021,-16.90688 0,-9.86896 -6.85271,-17.06562 -17.33021,-17.06562 z M 297.05401,318.135 v 49.95333 h -8.78417 V 318.135 Z m -27.33146,0 h 9.49854 l -20.76979,50.29729 h -7.69938 L 229.98213,318.135 h 9.71021 l 15.05479,38.39104 z m -65.45792,49.95333 h -9.28687 l -5.05354,-12.065 h -23.6273 l -5.13291,12.065 h -8.99584 l 21.98688,-50.29729 h 8.12271 z m -26.16729,-39.81979 -8.5725,19.97604 h 17.19792 z M 124.20172,368.935 c -15.63688,0 -25.90271,-11.13896 -25.90271,-25.77042 0,-14.04937 10.71562,-25.90271 25.77042,-25.90271 8.70479,0 14.04937,2.43417 19.18229,6.77334 l -5.55625,6.64104 c -3.86292,-3.28083 -7.64646,-5.34458 -13.99646,-5.34458 -9.2075,0 -16.1925,7.99041 -16.1925,17.70062 0,10.34521 6.77333,17.91229 16.98625,17.91229 4.70958,0 8.99583,-1.50812 12.065,-3.78354 v -9.33979 h -12.77938 v -7.64646 h 21.2725 v 20.98146 c -4.92125,4.20687 -11.98562,7.77875 -20.84916,7.77875 z M 89.75297,325.96667 h -28.2575 v 12.99104 h 25.05604 v 7.85812 H 61.49547 v 13.41438 h 28.60146 v 7.85812 H 52.7113 V 318.135 h 37.04167 z m -63.44709,13.14979 c 10.55688,2.56646 16.06021,6.35 16.06021,14.71083 0,9.41917 -7.35541,14.97542 -17.83291,14.97542 -7.64646,0 -14.84313,-2.64584 -20.84917,-7.99042 l 5.29167,-6.27062 c 4.78895,4.1275 9.55145,6.48229 15.76916,6.48229 5.42396,0 8.83709,-2.48709 8.83709,-6.35 0,-3.65125 -2.01084,-5.55625 -11.27125,-7.69938 -10.63625,-2.56646 -16.61584,-5.715 -16.61584,-14.97541 0,-8.7048 7.14375,-14.55209 17.06563,-14.55209 7.27604,0 13.07041,2.2225 18.12396,6.27063 l -4.70959,6.64104 c -4.49791,-3.36021 -8.99583,-5.13292 -13.54666,-5.13292 -5.13292,0 -8.12271,2.64584 -8.12271,6.00604 -0.0529,3.88938 2.24896,5.58271 11.80041,7.88459 z"
       id="path67"
       inkscape:label="SegaVideoGameSystemFill" />
  </g>
</svg>
