<svg xmlns="http://www.w3.org/2000/svg" viewBox="0 0 288.411 75.415">
    <g style="fill:#666">
        <path d="M26.048 6.682V2.895H61.39c1.684 0 2.524 1.262 2.524 3.787zm0 11.36V7.944h6.311v10.098zm15.146 0V7.944h6.311v10.098zm16.409 0V7.944h6.311v10.098zM67.701 6.682V2.895h23.982v3.787zm0 7.573V7.944h6.311c0 .843.421 1.262 1.262 1.262h15.147v3.787H74.012c0 .843.421 1.262 1.262 1.262h16.409v3.787H70.226c-1.684 0-2.525-1.262-2.525-3.787zM95.47 6.682c0-2.524.841-3.787 2.524-3.787h23.982v3.787zm0 7.573V7.944h6.311v6.311h12.622c.841 0 1.262-.212 1.262-.631 0-.419-.422-.631-1.262-.631h-6.311V9.206h11.36c2.524 0 3.787 1.262 3.787 3.787v1.262c0 2.524-.841 3.787-2.524 3.787h-22.72c-1.684 0-2.525-1.262-2.525-3.787zM127.026 6.682c0-2.524.841-3.787 2.524-3.787h21.458c1.684 0 2.524 1.262 2.524 3.787zm0 11.36V7.944h6.311v10.098zm20.196 0v-2.524H134.6v-3.787h12.622V7.944h6.311v10.098zM157.32 6.682V2.895h23.982c1.684 0 2.524 1.262 2.524 3.787zm0 11.36V7.944h6.311v10.098zm23.982 0h-16.409v-3.787h12.622V7.944h6.311v6.311c0 2.525-.84 3.787-2.524 3.787zM187.613 6.682c0-2.524.841-3.787 2.524-3.787h21.458c1.684 0 2.524 1.262 2.524 3.787zm0 11.36V7.944h6.311v10.098zm7.574-2.525V11.73h11.36c.841 0 1.262-.419 1.262-1.262V7.944h6.311v3.787c0 2.524-.841 3.787-2.524 3.787l3.787 2.524h-6.311l-3.787-2.524h-10.098zM219.169 18.042V2.895h6.311v15.147zM233.053 6.682l-2.524-3.787h7.573l2.524 3.787zm7.574 11.36-6.311-10.098h7.573l3.787 6.059 3.787-6.059h7.573l-6.311 10.098zm9.917-11.36 2.524-3.787h7.573l-2.524 3.787zM264.429 6.682V2.895h23.982v3.787zm0 7.573V7.944h6.311c0 .843.421 1.262 1.262 1.262h15.147v3.787H270.74c0 .843.421 1.262 1.262 1.262h16.409v3.787h-21.458c-1.683 0-2.524-1.262-2.524-3.787zM26.048 34.667V22.361h64.538c7.436 0 11.155 4.102 11.155 12.307H26.048Zm0 36.921V59.281h51.79c2.655 0 3.984-.685 3.984-2.051s-1.329-2.051-3.984-2.051H41.983V42.872h35.058c3.187 0 4.781-1.366 4.781-4.102h19.919v20.511c0 8.205-3.719 12.307-11.155 12.307zM109.708 34.667V22.361h63.741c7.968 0 11.951 4.102 11.951 12.307h-75.692zm0 20.512c0-8.205 3.984-12.307 11.951-12.307h39.838c2.655 0 3.984-1.366 3.984-4.102H185.4v4.102c0 8.205-3.984 12.307-11.951 12.307h-43.822c-2.655 0-3.984 1.366-3.984 4.102H185.4v12.307h-75.693V55.179ZM211.125 34.667 193.368 22.36h23.903l17.7 12.307zm53.156 36.921L240.89 55.354l-23.391 16.233h-23.903l35.342-24.555-11.895-8.263h47.692l-11.895 8.263 35.342 24.555h-23.901zm.227-49.227h23.903l-17.757 12.307h-23.846z" style="fill:#666" transform="matrix(.81232 0 0 .75362 29.891 10.502)"/>
    </g>
    <path d="M35.77 67.337c-1.61 0-2.99-.533-4.146-1.598-1.155-1.065-1.733-2.255-1.733-3.57v-7.462h2.475v6.888c0 1.06.337 1.898 1.011 2.517a3.42 3.42 0 0 0 2.393.928c.934 0 1.736-.309 2.404-.928.666-.619 1-1.458 1-2.517v-1.148c0-.906.271-1.61.815-2.115.543-.504 1.2-.756 1.97-.756.757 0 1.408.252 1.959.756.55.504.825 1.21.825 2.115v6.889h-2.475v-6.89c0-.382-.103-.573-.31-.573-.206 0-.31.191-.31.574v1.722c0 1.314-.573 2.503-1.722 3.57-1.148 1.065-2.533 1.598-4.156 1.598zm0-2.871a2.801 2.801 0 0 1-1.96-.756c-.55-.504-.825-1.208-.825-2.114v-6.889h2.476v6.89c0 .382.103.573.31.573.205 0 .309-.191.309-.574v-1.722c0-1.313.574-2.503 1.723-3.569 1.147-1.065 2.532-1.598 4.155-1.598 1.61 0 2.991.533 4.147 1.598 1.155 1.065 1.732 2.255 1.732 3.57v7.462h-2.475v-6.889c0-1.058-.336-1.897-1.01-2.516a3.42 3.42 0 0 0-2.394-.928c-.934 0-1.736.309-2.403.928-.666.619-1 1.458-1 2.516v1.149c0 .906-.272 1.61-.816 2.115-.542.502-1.2.754-1.969.754zM35.46 53.559c-3.713 0-5.569-1.723-5.569-5.167v-6.889h2.475v6.889c0 1.913 1.032 2.87 3.095 2.87h6.806c2.063 0 3.094-.957 3.094-2.87v-6.889h2.475v6.889c0 3.445-1.856 5.167-5.569 5.167zm3.095-2.87H35.46c-1.65 0-2.476-.766-2.476-2.297v-6.889h2.476v6.315c0 .383.206.574.619.574v-5.167h2.475zm.619 0v-7.464h2.475v5.167c.413 0 .619-.191.619-.574v-6.315h2.475v6.889c0 1.53-.825 2.296-2.475 2.296zM35.46 40.355c-3.713 0-5.569-1.722-5.569-5.167v-6.889h2.475v6.889c0 1.913 1.032 2.87 3.095 2.87h6.806c2.063 0 3.094-.957 3.094-2.87v-4.593h-6.806v4.019H36.08v-6.315h11.757v6.889c0 3.445-1.856 5.167-5.57 5.167zm0-2.87c-1.65 0-2.475-.767-2.475-2.297v-6.889h2.476v6.315c0 .382.206.574.619.574h5.569c.413 0 .619-.192.619-.574v-1.149h-.62v1.149h-2.474v-3.445h5.57v4.018c0 1.53-.826 2.296-2.476 2.296H35.46zM45.361 20.357v-6.793L32.78 18.157c-.274.127-.413.383-.413.766 0 .318.139.574.413.765l15.057 5.167v2.296l-15.882-5.358c-1.375-.638-2.063-1.595-2.063-2.87 0-1.467.688-2.424 2.063-2.871l15.882-5.55v9.855zm-.619 0h-1.34l4.434 1.627v2.296l-14.438-4.975c-.274-.064-.413-.192-.413-.383 0-.192.139-.319.413-.383l11.345-4.018v5.836zm-5.363-1.434 2.888 1.052V17.87z" style="fill:#002e82;stroke-width:.78242135"/>
</svg>
