<?xml version="1.0" encoding="UTF-8" standalone="no"?>
<!DOCTYPE svg PUBLIC "-//W3C//DTD SVG 1.1//EN" "http://www.w3.org/Graphics/SVG/1.1/DTD/svg11.dtd">
<svg xmlns="http://www.w3.org/2000/svg" version="1.1" viewBox="0.00 0.00 833.00 436.00">
<path stroke="#e90004" stroke-opacity="0.945" stroke-width="2.00" fill="none" stroke-linecap="butt" vector-effect="non-scaling-stroke" d="
  M 409.04 343.25
  Q 407.96 347.23 408.96 351.25"
/>
<g fill="#0060a8">
<path d="
  M 577.83 218.11
  C 598.00 162.93 617.87 107.18 638.46 51.50
  Q 641.17 44.17 644.08 40.02
  C 664.24 11.25 712.13 10.63 732.34 39.95
  Q 735.26 44.18 738.13 52.13
  Q 772.24 146.51 806.13 240.96
  Q 806.32 241.50 805.74 241.50
  L 675.64 241.50
  A 1.72 1.55 55.0 0 1 674.94 241.34
  C 673.17 240.52 674.31 239.12 674.29 237.74
  Q 674.11 224.57 674.31 211.40
  Q 674.32 210.74 674.98 210.74
  L 760.27 210.77
  A 0.51 0.51 0.0 0 0 760.75 210.09
  Q 734.26 136.84 707.90 63.66
  C 706.50 59.79 705.05 55.19 702.69 52.17
  C 695.74 43.27 681.74 43.11 674.41 51.24
  Q 672.12 53.77 670.23 58.97
  Q 637.23 149.88 604.28 240.77
  A 1.12 1.10 9.6 0 1 603.23 241.50
  Q 538.59 241.50 474.00 241.45
  C 449.91 241.43 429.40 233.57 415.06 214.19
  C 405.30 200.99 404.00 188.53 404.00 170.99
  Q 404.01 130.74 403.99 90.50
  Q 403.99 77.00 405.36 70.61
  C 410.66 45.99 431.48 27.74 455.89 23.03
  Q 462.28 21.80 475.81 21.78
  Q 526.15 21.70 576.50 21.77
  Q 577.00 21.77 577.00 22.27
  L 577.00 51.74
  Q 577.00 52.35 576.39 52.35
  Q 523.53 52.17 470.76 52.17
  Q 454.51 52.17 444.32 63.56
  C 438.37 70.21 437.02 77.47 437.02 87.05
  Q 436.99 130.07 437.00 173.08
  Q 437.00 184.30 438.39 188.80
  C 441.43 198.66 449.89 206.38 459.73 209.35
  Q 464.24 210.70 473.55 210.72
  Q 507.60 210.79 543.48 210.77
  A 1.02 1.02 0.0 0 0 544.50 209.75
  L 544.50 128.28
  Q 544.50 127.99 544.21 127.99
  L 485.24 127.98
  Q 484.75 127.98 484.75 127.49
  L 484.75 97.75
  A 0.50 0.50 0.0 0 1 485.25 97.25
  L 576.50 97.25
  Q 577.00 97.25 577.00 97.75
  L 577.01 217.97
  A 0.42 0.42 0.0 0 0 577.83 218.11
  Z"
/>
<path d="
  M 122.23 135.19
  C 141.27 135.13 159.56 149.08 159.55 168.96
  C 159.54 184.92 148.66 197.88 133.40 202.08
  Q 128.38 203.46 118.83 203.47
  Q 69.29 203.54 19.73 203.49
  Q 19.17 203.49 19.17 202.93
  L 19.00 173.95
  Q 18.99 173.00 19.94 173.00
  Q 70.21 173.00 121.03 173.00
  C 128.00 173.00 128.38 166.03 122.81 166.03
  C 109.69 166.02 94.18 166.51 82.81 164.72
  C 55.76 160.46 31.37 141.78 22.59 115.36
  C 8.08 71.75 39.30 30.31 82.15 22.96
  Q 88.89 21.80 102.08 21.78
  Q 150.79 21.71 199.51 21.77
  A 0.45 0.44 -0.0 0 1 199.96 22.21
  L 200.02 51.94
  Q 200.02 52.49 199.47 52.49
  Q 150.21 52.52 101.02 52.51
  Q 90.17 52.51 84.64 53.89
  C 52.40 61.97 39.71 101.59 66.55 124.17
  Q 79.24 134.85 96.01 135.07
  Q 109.11 135.24 122.23 135.19
  Z"
/>
<path d="
  M 272.02 240.64
  C 245.64 237.52 222.85 219.01 216.89 192.86
  Q 215.51 186.83 215.51 175.38
  Q 215.50 132.57 215.49 89.74
  Q 215.48 76.22 216.90 69.86
  C 222.25 45.72 243.54 27.66 267.16 23.09
  Q 273.79 21.80 287.07 21.78
  Q 339.24 21.71 391.38 21.77
  A 0.37 0.37 0.0 0 1 391.75 22.14
  L 391.79 51.78
  Q 391.79 52.23 391.34 52.23
  Q 336.53 52.27 281.75 52.30
  C 267.43 52.31 253.41 60.43 249.23 74.47
  Q 248.02 78.53 248.01 86.79
  Q 247.99 131.09 248.00 175.38
  Q 248.00 184.49 249.41 188.98
  C 253.77 202.90 267.38 210.96 281.82 211.00
  Q 336.35 211.15 390.89 210.75
  A 0.29 0.29 0.0 0 1 391.18 211.04
  L 391.49 240.37
  Q 391.50 241.50 390.36 241.50
  Q 338.61 241.50 286.00 241.47
  Q 278.98 241.47 272.02 240.64
  Z"
/>
<path d="
  M 674.27 178.47
  A 0.42 0.42 0.0 0 0 673.46 178.32
  L 650.91 240.93
  Q 650.70 241.49 650.10 241.49
  L 613.02 241.50
  A 0.60 0.60 0.0 0 1 612.46 240.70
  Q 645.21 150.14 677.98 59.74
  C 680.67 52.30 689.34 50.07 695.37 55.06
  C 697.56 56.87 698.55 59.83 699.51 62.50
  Q 724.87 132.93 750.30 203.35
  A 0.30 0.30 0.0 0 1 750.02 203.75
  L 675.72 204.03
  Q 673.91 204.03 673.94 202.22
  L 674.27 178.47
  Z
  M 676.77 169.31
  A 0.31 0.31 0.0 0 0 677.06 169.73
  L 699.21 169.77
  A 0.31 0.31 0.0 0 0 699.50 169.35
  L 688.48 138.44
  A 0.31 0.31 0.0 0 0 687.89 138.44
  L 676.77 169.31
  Z"
/>
<path d="
  M 20.29 241.67
  Q 18.93 241.63 18.94 240.26
  L 19.26 211.21
  Q 19.26 210.75 19.73 210.75
  Q 70.99 210.76 122.24 210.73
  Q 142.11 210.72 155.17 197.69
  C 178.61 174.29 165.87 138.24 135.66 129.90
  C 126.52 127.38 112.96 128.03 101.74 127.86
  Q 91.71 127.71 87.38 126.74
  C 51.49 118.60 50.54 70.27 85.95 60.99
  Q 91.56 59.53 105.82 59.52
  Q 152.63 59.48 199.53 59.51
  A 0.47 0.47 0.0 0 1 200.00 59.98
  L 200.00 89.52
  A 0.80 0.80 0.0 0 1 199.20 90.32
  Q 147.84 90.00 96.31 90.12
  C 90.70 90.13 90.71 97.66 97.55 97.51
  Q 109.88 97.26 122.23 97.29
  C 153.97 97.39 184.02 114.92 195.54 144.96
  C 212.61 189.45 180.39 233.55 136.12 240.44
  Q 129.68 241.45 116.18 241.47
  Q 82.83 241.53 49.46 241.50
  C 42.86 241.49 30.15 241.94 20.29 241.67
  Z"
/>
<path d="
  M 289.01 97.25
  L 367.75 97.25
  A 0.50 0.50 0.0 0 1 368.25 97.75
  L 368.25 127.47
  A 0.53 0.53 0.0 0 1 367.72 128.00
  L 257.03 128.00
  A 1.20 1.20 0.0 0 1 255.83 126.79
  Q 256.15 105.29 255.95 83.25
  C 255.87 73.44 262.76 63.89 272.24 60.86
  Q 276.42 59.53 286.53 59.52
  Q 338.99 59.47 391.26 59.51
  A 0.51 0.50 0.0 0 1 391.77 60.01
  L 391.74 89.76
  A 0.49 0.48 -90.0 0 1 391.26 90.25
  Q 344.67 90.26 298.15 90.24
  C 292.93 90.24 289.27 91.17 288.55 96.73
  Q 288.48 97.25 289.01 97.25
  Z"
/>
<path d="
  M 449.78 69.01
  C 456.49 60.77 463.47 59.54 474.61 59.53
  Q 525.55 59.46 576.54 59.52
  Q 577.10 59.52 577.11 60.08
  L 577.31 89.38
  A 0.62 0.62 0.0 0 1 576.69 90.00
  Q 530.74 90.00 484.75 90.00
  C 478.64 90.01 477.24 94.33 477.24 99.81
  Q 477.26 131.10 477.24 162.39
  C 477.24 167.75 478.40 172.51 484.33 172.93
  Q 488.43 173.23 503.59 172.91
  Q 504.06 172.90 504.06 172.43
  L 504.06 166.28
  Q 504.06 165.75 503.53 165.75
  L 485.25 165.75
  Q 484.75 165.75 484.75 165.25
  L 484.75 135.50
  A 0.44 0.43 -0.0 0 1 485.19 135.07
  L 535.95 134.97
  A 0.80 0.80 0.0 0 1 536.75 135.77
  L 536.75 203.00
  A 0.83 0.83 0.0 0 1 535.91 203.83
  Q 506.80 203.45 478.08 203.79
  C 463.88 203.96 451.16 201.99 445.95 187.05
  Q 444.71 183.50 444.72 177.80
  Q 444.79 129.39 444.74 81.00
  Q 444.74 75.21 449.78 69.01
  Z"
/>
<path d="
  M 288.61 166.31
  C 288.30 170.81 293.04 172.99 296.92 172.99
  Q 343.98 173.01 391.11 173.00
  A 0.29 0.29 0.0 0 1 391.40 173.29
  L 391.21 203.07
  Q 391.21 203.49 390.80 203.49
  Q 336.24 203.52 281.76 203.52
  C 271.45 203.52 260.97 197.97 257.33 187.90
  Q 256.02 184.27 256.03 177.32
  Q 256.06 157.66 255.76 137.03
  A 2.00 2.00 0.0 0 1 257.76 135.00
  L 367.72 135.00
  A 0.53 0.53 0.0 0 1 368.25 135.53
  L 368.25 165.12
  Q 368.25 165.75 367.63 165.75
  L 289.21 165.75
  Q 288.65 165.75 288.61 166.31
  Z"
/>
</g>
<g fill="#ff0000">
<path d="
  M 241.19 384.68
  C 246.43 375.84 240.94 367.39 232.19 364.05
  C 220.06 359.42 202.33 357.79 193.13 346.33
  Q 184.64 335.75 191.92 321.95
  Q 192.21 321.40 191.64 321.64
  C 189.42 322.56 184.29 333.76 182.77 337.01
  Q 167.85 368.92 152.63 400.69
  C 147.00 412.43 138.82 426.38 127.58 432.33
  Q 116.01 438.45 105.75 431.99
  C 98.70 427.54 99.69 417.23 107.37 414.98
  C 114.27 412.96 121.07 418.25 124.34 424.13
  A 1.97 1.96 -35.4 0 0 127.37 424.64
  C 131.52 420.92 148.64 399.77 146.30 394.59
  Q 138.40 377.07 117.26 331.71
  C 112.96 322.49 110.31 318.80 99.84 316.67
  Q 99.33 316.56 99.29 316.04
  C 97.88 294.53 81.22 273.24 57.18 278.88
  C 46.22 281.46 39.07 289.64 41.47 301.23
  C 43.74 312.16 53.30 316.90 63.45 320.48
  C 83.14 327.43 112.17 334.14 113.87 357.56
  C 114.67 368.63 112.28 376.80 104.56 384.93
  Q 97.62 392.24 88.70 395.22
  C 69.46 401.65 50.87 398.90 33.15 390.92
  A 1.39 1.38 28.8 0 0 31.42 391.42
  L 28.74 395.49
  Q 28.32 396.13 27.56 396.13
  L 20.80 396.16
  Q 20.26 396.17 20.23 395.62
  L 18.46 355.16
  Q 18.43 354.50 19.09 354.50
  L 26.01 354.50
  A 1.58 1.57 -6.8 0 1 27.54 355.70
  C 30.86 369.37 39.79 382.34 52.62 388.07
  C 66.51 394.28 91.86 393.70 94.65 373.50
  C 96.57 359.68 87.46 350.48 75.40 346.18
  C 62.03 341.42 43.53 337.25 32.63 327.48
  C 16.41 312.95 20.58 288.24 38.84 277.59
  C 57.26 266.85 77.46 268.89 95.44 279.14
  Q 96.01 279.47 96.33 278.90
  L 99.12 273.87
  Q 99.32 273.51 99.73 273.51
  L 106.82 273.50
  Q 107.40 273.50 107.41 274.07
  L 108.06 310.46
  A 0.39 0.39 0.0 0 0 108.45 310.84
  L 142.65 310.80
  Q 143.25 310.80 143.25 311.40
  L 143.25 316.49
  Q 143.25 317.11 142.63 317.16
  C 139.82 317.37 134.64 317.58 132.63 319.78
  Q 132.26 320.19 132.44 320.70
  C 138.98 338.95 148.04 355.45 156.38 374.50
  Q 156.60 375.01 156.89 374.53
  Q 158.64 371.65 160.11 368.59
  Q 169.38 349.30 178.02 329.72
  Q 179.54 326.30 179.77 322.56
  A 1.94 1.93 -70.5 0 0 178.97 320.88
  Q 173.89 317.25 167.63 316.82
  Q 167.01 316.78 167.01 316.15
  L 167.01 311.39
  A 0.73 0.72 -89.2 0 1 167.75 310.66
  Q 184.24 311.01 200.65 311.01
  C 201.97 311.01 203.37 311.72 204.55 311.40
  C 208.84 310.22 213.30 308.67 217.59 308.47
  Q 230.11 307.88 241.81 312.66
  Q 242.13 312.79 242.31 312.49
  L 244.40 308.86
  Q 244.75 308.25 245.45 308.25
  L 250.89 308.25
  Q 251.52 308.25 251.61 308.87
  L 251.82 310.39
  Q 251.90 310.95 252.46 310.95
  L 262.82 311.10
  Q 263.75 311.11 263.75 310.18
  L 263.75 285.25
  Q 263.75 284.50 264.50 284.50
  L 281.00 284.50
  Q 281.75 284.50 281.75 285.25
  L 281.75 310.23
  A 0.97 0.97 0.0 0 0 282.73 311.20
  L 308.80 311.12
  Q 309.43 311.11 309.40 311.74
  L 309.12 318.69
  A 1.08 1.07 -89.2 0 1 308.06 319.73
  Q 299.73 319.79 291.36 319.74
  C 288.87 319.72 285.60 319.26 282.52 319.89
  Q 282.01 319.99 282.01 320.51
  Q 281.96 344.40 282.03 368.24
  Q 282.05 375.04 283.82 381.04
  C 286.49 390.12 303.90 387.99 310.49 386.77
  Q 311.32 386.62 311.34 387.47
  L 311.46 392.05
  Q 311.47 392.75 310.82 393.02
  C 293.84 399.94 263.23 405.32 263.32 376.43
  Q 263.40 352.47 263.59 328.49
  Q 263.62 324.30 263.12 320.11
  Q 263.06 319.58 262.53 319.59
  L 253.24 319.66
  Q 252.65 319.67 252.67 320.26
  L 253.36 335.33
  Q 253.40 336.06 252.67 336.04
  L 247.10 335.90
  Q 246.41 335.89 246.22 335.22
  C 241.68 319.11 226.43 310.83 210.68 317.39
  C 202.74 320.70 200.85 331.53 208.08 336.91
  C 221.60 346.96 254.63 345.87 257.68 367.20
  C 260.39 386.24 245.15 396.82 228.32 398.32
  C 216.81 399.34 208.58 397.55 197.11 391.67
  Q 196.60 391.41 196.35 391.94
  L 194.54 395.96
  Q 194.29 396.51 193.69 396.51
  L 188.13 396.49
  A 0.69 0.69 0.0 0 1 187.44 395.83
  L 186.28 367.92
  Q 186.26 367.34 186.83 367.31
  L 192.53 367.01
  Q 193.09 366.98 193.27 367.52
  C 197.29 380.09 208.51 391.83 222.18 391.87
  C 229.31 391.89 237.15 391.50 241.19 384.68
  Z"
/>
<path d="
  M 315.04 388.48
  C 303.68 378.67 299.80 363.90 300.71 349.48
  C 301.94 329.80 315.05 314.09 334.48 309.50
  C 348.90 306.10 368.45 309.84 377.48 322.76
  C 383.23 330.98 384.02 339.97 383.35 350.44
  Q 383.31 351.00 382.75 351.00
  L 320.50 351.00
  A 0.51 0.51 0.0 0 0 319.99 351.50
  C 319.62 365.85 324.65 381.13 339.07 386.90
  C 353.82 392.80 371.08 388.04 378.41 373.24
  A 1.14 1.14 0.0 0 1 379.98 372.75
  L 385.22 375.64
  Q 385.89 376.00 385.60 376.71
  C 381.18 387.72 366.26 395.79 355.57 397.82
  C 342.63 400.28 325.63 397.63 315.04 388.48
  Z
  M 320.26 343.77
  L 364.02 343.74
  Q 364.59 343.74 364.56 343.18
  C 363.86 331.18 361.87 317.27 347.80 315.34
  C 330.27 312.93 320.15 327.78 319.90 343.41
  A 0.36 0.36 0.0 0 0 320.26 343.77
  Z"
/>
<path d="
  M 409.04 343.25
  Q 407.96 347.23 408.96 351.25
  Q 409.01 366.35 409.02 381.44
  C 409.03 387.91 417.66 390.28 422.68 390.90
  Q 423.25 390.97 423.25 391.54
  L 423.25 395.38
  Q 423.25 396.00 422.63 396.00
  L 377.47 396.00
  Q 376.84 396.00 376.69 395.39
  Q 376.23 393.44 377.07 391.59
  Q 377.27 391.15 377.76 391.09
  C 388.37 389.79 390.89 388.93 390.97 377.65
  Q 391.13 353.70 390.84 329.75
  C 390.72 320.49 383.37 317.99 375.67 317.29
  Q 375.00 317.23 375.00 316.55
  L 375.00 312.31
  Q 375.00 311.57 375.75 311.53
  L 407.26 310.09
  A 1.43 1.42 88.7 0 1 408.75 311.52
  L 408.75 322.76
  A 0.47 0.47 0.0 0 0 409.52 323.12
  C 418.49 315.51 425.83 309.53 438.82 308.71
  Q 458.01 307.49 467.83 323.38
  Q 468.11 323.83 468.47 323.45
  C 476.82 314.63 488.42 308.33 500.69 308.43
  C 512.04 308.52 522.17 313.69 525.78 324.81
  Q 527.21 329.19 527.21 340.49
  Q 527.22 361.30 527.35 382.14
  C 527.40 388.80 536.51 390.31 541.38 390.89
  Q 541.93 390.95 541.97 391.50
  L 542.29 395.30
  Q 542.34 396.00 541.64 396.00
  L 495.21 396.00
  Q 494.61 396.00 494.64 395.40
  L 494.81 391.32
  A 0.59 0.59 0.0 0 1 495.43 390.75
  Q 501.98 391.09 507.45 387.56
  Q 507.87 387.29 508.04 386.82
  Q 508.98 384.16 508.98 383.18
  Q 509.02 360.10 508.99 337.00
  Q 508.98 324.38 499.35 320.24
  C 489.55 316.03 478.32 321.06 470.98 328.19
  C 468.49 330.61 468.03 332.25 468.02 335.92
  Q 467.95 359.12 468.05 382.31
  Q 468.06 384.22 469.10 385.02
  Q 469.48 385.31 469.66 385.77
  C 470.90 388.93 478.97 390.70 481.64 390.87
  Q 482.25 390.91 482.25 391.52
  L 482.25 395.50
  Q 482.25 396.00 481.75 396.00
  L 436.98 396.00
  Q 436.41 396.00 436.43 395.43
  L 436.53 391.47
  Q 436.55 390.93 437.09 390.91
  Q 442.72 390.66 447.83 388.11
  Q 448.24 387.90 448.41 387.47
  Q 449.71 384.24 449.72 381.69
  Q 449.78 361.22 449.72 340.75
  C 449.69 331.40 448.69 323.03 438.75 319.61
  C 429.12 316.31 417.49 322.08 411.01 329.34
  C 408.09 332.60 408.95 339.20 409.04 343.25
  Z"
/>
<path d="
  M 786.44 341.35
  Q 782.08 340.54 780.91 344.67
  A 0.70 0.70 0.0 0 1 779.54 344.50
  L 779.48 340.41
  Q 779.47 339.78 780.09 339.79
  L 797.10 340.04
  A 0.81 0.81 0.0 0 1 797.90 340.90
  L 797.69 344.58
  Q 797.66 345.01 797.24 345.00
  Q 797.09 345.00 796.93 345.01
  Q 796.57 345.02 796.46 344.68
  Q 795.14 340.62 790.94 341.30
  Q 790.42 341.38 790.43 341.91
  L 790.53 354.01
  Q 790.54 354.53 791.03 354.69
  L 793.52 355.51
  A 0.50 0.50 0.0 0 1 793.36 356.48
  L 784.27 356.51
  Q 783.74 356.51 783.75 355.99
  Q 783.75 355.85 783.75 355.71
  Q 783.75 355.48 783.98 355.44
  L 786.40 355.03
  Q 787.00 354.92 787.00 354.31
  L 787.00 342.02
  Q 787.00 341.45 786.44 341.35
  Z"
/>
<path d="
  M 820.14 343.76
  L 813.98 355.65
  A 0.74 0.74 0.0 0 1 812.66 355.63
  L 806.70 343.31
  A 0.35 0.35 0.0 0 0 806.04 343.46
  C 805.93 346.91 804.55 354.85 809.19 355.30
  Q 809.77 355.36 809.55 355.90
  Q 809.47 356.08 809.42 356.22
  Q 809.32 356.50 809.03 356.50
  L 801.54 356.50
  Q 801.09 356.50 801.01 356.06
  C 800.86 355.30 803.21 354.88 803.77 354.58
  Q 804.25 354.32 804.26 353.77
  L 804.45 343.04
  Q 804.46 342.48 803.95 342.21
  L 801.33 340.86
  Q 801.14 340.76 801.22 340.56
  Q 801.28 340.40 801.33 340.27
  Q 801.43 340.00 801.72 340.00
  L 808.27 340.00
  Q 808.73 340.00 808.93 340.41
  L 813.87 350.43
  A 0.61 0.61 0.0 0 0 814.96 350.43
  L 819.89 340.39
  Q 820.09 340.00 820.52 340.00
  L 826.69 340.00
  Q 828.02 340.00 826.91 340.74
  Q 825.96 341.37 824.83 341.56
  Q 824.25 341.65 824.25 342.25
  L 824.25 354.02
  Q 824.26 354.43 824.64 354.58
  L 827.16 355.61
  A 0.46 0.46 0.0 0 1 826.99 356.49
  L 818.17 356.50
  Q 817.12 356.50 817.87 355.76
  L 818.10 355.52
  Q 818.39 355.24 818.80 355.25
  Q 819.66 355.27 820.28 354.76
  Q 820.67 354.44 820.68 353.94
  L 820.91 343.96
  A 0.41 0.41 0.0 0 0 820.14 343.76
  Z"
/>
</g>
<g fill="#d10108" fill-opacity="0.890">
<path d="
  M 658.45 323.01
  A 0.62 0.62 0.0 0 0 658.31 324.09
  Q 660.98 326.04 662.35 328.83
  C 667.23 338.80 654.05 369.36 648.79 377.95
  Q 637.73 396.01 615.22 399.85
  C 614.13 400.03 612.29 399.78 610.82 400.53
  Q 610.37 400.76 609.87 400.76
  Q 601.73 400.73 593.60 400.76
  C 591.26 400.76 588.86 400.11 586.25 399.76
  Q 579.92 398.89 574.45 394.77
  C 566.19 388.56 567.52 379.83 569.45 370.74
  Q 571.68 360.28 578.32 344.23
  Q 578.52 343.75 579.04 343.75
  L 614.95 343.75
  Q 615.56 343.75 615.61 344.36
  Q 615.76 346.09 615.15 347.84
  Q 610.98 359.79 606.68 371.68
  Q 605.75 374.27 605.41 376.83
  A 0.92 0.92 0.0 0 0 606.69 377.79
  C 609.67 376.49 611.29 374.60 612.64 371.42
  Q 617.86 359.20 622.17 346.62
  C 625.36 337.32 614.26 337.33 607.61 337.25
  Q 607.01 337.24 607.02 336.65
  C 607.08 330.99 611.40 321.59 613.52 316.39
  A 1.64 1.63 -76.2 0 1 615.18 315.38
  C 625.20 316.31 632.95 315.58 637.02 305.03
  Q 641.22 294.13 642.46 290.43
  C 644.14 285.39 639.02 287.12 637.50 289.48
  C 633.83 295.17 631.91 302.30 629.52 308.61
  Q 629.31 309.16 628.94 309.17
  L 593.52 309.29
  A 1.78 1.77 -81.0 0 1 591.83 306.95
  C 597.59 289.45 603.85 270.88 623.99 266.22
  C 627.11 265.50 629.86 264.68 633.18 264.56
  C 634.83 264.50 636.12 263.77 637.64 263.76
  Q 647.29 263.73 656.94 263.76
  Q 657.43 263.76 657.78 264.12
  Q 658.05 264.40 658.32 264.40
  Q 664.36 264.60 671.08 267.42
  C 686.96 274.08 678.96 299.15 673.28 309.77
  Q 668.26 319.16 658.45 323.01
  Z"
/>
<path d="
  M 733.46 286.85
  C 725.47 289.80 721.68 305.01 719.08 312.43
  Q 718.88 313.00 718.27 313.00
  L 685.30 313.00
  A 0.67 0.67 0.0 0 1 684.66 312.15
  C 691.44 287.98 702.63 269.12 729.05 264.48
  C 739.77 262.60 751.60 263.30 761.69 267.31
  C 774.43 272.38 774.77 289.84 770.48 300.84
  Q 764.86 315.23 755.06 325.83
  Q 732.62 350.11 708.19 372.59
  A 0.49 0.49 0.0 0 0 708.52 373.44
  Q 723.21 373.56 737.98 373.49
  C 740.60 373.48 740.43 374.52 739.77 376.55
  Q 736.24 387.39 732.12 398.01
  Q 731.94 398.46 731.50 398.46
  L 655.29 398.47
  A 1.57 1.57 0.0 0 1 653.80 396.40
  C 655.81 390.40 658.63 379.46 662.92 375.11
  Q 690.58 347.09 717.61 318.50
  C 724.92 310.76 731.55 302.63 735.86 292.84
  Q 737.62 288.85 734.36 286.93
  Q 733.93 286.68 733.46 286.85
  Z"
/>
<path d="
  M 409.04 343.25
  Q 410.01 347.23 408.96 351.25
  Q 407.96 347.23 409.04 343.25
  Z"
/>
</g>
</svg>
