<?xml version="1.0" encoding="UTF-8" standalone="no"?>
<!-- Created by ERK -->

<svg
   width="1050.9437mm"
   height="240.94493mm"
   viewBox="0 0 1050.9437 240.94493"
   version="1.1"
   id="svg1"
   inkscape:version="1.3.2 (091e20e, 2023-11-25, custom)"
   xml:space="preserve"
   sodipodi:docname="segarw.svg"
   xmlns:inkscape="http://www.inkscape.org/namespaces/inkscape"
   xmlns:sodipodi="http://sodipodi.sourceforge.net/DTD/sodipodi-0.dtd"
   xmlns:xlink="http://www.w3.org/1999/xlink"
   xmlns="http://www.w3.org/2000/svg"
   xmlns:svg="http://www.w3.org/2000/svg"><sodipodi:namedview
     id="namedview1"
     pagecolor="#ffffff"
     bordercolor="#000000"
     borderopacity="0.25"
     inkscape:showpageshadow="2"
     inkscape:pageopacity="0.0"
     inkscape:pagecheckerboard="true"
     inkscape:deskcolor="#d1d1d1"
     inkscape:document-units="mm"
     inkscape:zoom="0.41179678"
     inkscape:cx="2042.2695"
     inkscape:cy="486.89065"
     inkscape:window-width="2560"
     inkscape:window-height="1351"
     inkscape:window-x="-9"
     inkscape:window-y="-9"
     inkscape:window-maximized="1"
     inkscape:current-layer="svg1" /><defs
     id="defs1"><linearGradient
       id="linearGradient123"
       inkscape:collect="always"><stop
         style="stop-color:#220000;stop-opacity:1;"
         offset="0.40267459"
         id="stop122" /><stop
         style="stop-color:#0095be;stop-opacity:1;"
         offset="1"
         id="stop123" /></linearGradient><linearGradient
       id="linearGradient121"
       inkscape:collect="always"><stop
         style="stop-color:#220000;stop-opacity:1;"
         offset="0.40245169"
         id="stop120" /><stop
         style="stop-color:#0094bc;stop-opacity:1;"
         offset="1"
         id="stop121" /></linearGradient><marker
       id="DistanceX"
       orient="auto"
       refX="0"
       refY="0"
       style="overflow:visible"><path
         d="M 3,-3 -3,3 M 0,-5 V 5"
         style="stroke:#000000;stroke-width:0.5"
         id="path1" /></marker><pattern
       id="Hatch"
       patternUnits="userSpaceOnUse"
       width="8"
       height="8"
       x="0"
       y="0"><path
         d="M8 4 l-4,4"
         stroke="#000000"
         stroke-width="0.25"
         linecap="square"
         id="path2" /><path
         d="M6 2 l-4,4"
         stroke="#000000"
         stroke-width="0.25"
         linecap="square"
         id="path3" /><path
         d="M4 0 l-4,4"
         stroke="#000000"
         stroke-width="0.25"
         linecap="square"
         id="path4" /></pattern><symbol
       id="*Model_Space" /><symbol
       id="*Paper_Space" /><symbol
       id="*Paper_Space0" /><marker
       id="DistanceX-0"
       orient="auto"
       refX="0"
       refY="0"
       style="overflow:visible"><path
         d="M 3,-3 -3,3 M 0,-5 V 5"
         style="stroke:#000000;stroke-width:0.5"
         id="path1-9" /></marker><pattern
       id="Hatch-4"
       patternUnits="userSpaceOnUse"
       width="8"
       height="8"
       x="0"
       y="0"><path
         d="M8 4 l-4,4"
         stroke="#000000"
         stroke-width="0.25"
         linecap="square"
         id="path2-8" /><path
         d="M6 2 l-4,4"
         stroke="#000000"
         stroke-width="0.25"
         linecap="square"
         id="path3-8" /><path
         d="M4 0 l-4,4"
         stroke="#000000"
         stroke-width="0.25"
         linecap="square"
         id="path4-2" /></pattern><symbol
       id="*Model_Space-4" /><symbol
       id="*Paper_Space-5" /><symbol
       id="*Paper_Space0-5" /><marker
       id="DistanceX-2"
       orient="auto"
       refX="0"
       refY="0"
       style="overflow:visible"><path
         d="M 3,-3 -3,3 M 0,-5 V 5"
         style="stroke:#000000;stroke-width:0.5"
         id="path1-1" /></marker><pattern
       id="Hatch-6"
       patternUnits="userSpaceOnUse"
       width="8"
       height="8"
       x="0"
       y="0"><path
         d="M8 4 l-4,4"
         stroke="#000000"
         stroke-width="0.25"
         linecap="square"
         id="path2-85" /><path
         d="M6 2 l-4,4"
         stroke="#000000"
         stroke-width="0.25"
         linecap="square"
         id="path3-7" /><path
         d="M4 0 l-4,4"
         stroke="#000000"
         stroke-width="0.25"
         linecap="square"
         id="path4-6" /></pattern><symbol
       id="*Model_Space-1" /><symbol
       id="*Paper_Space-8" /><symbol
       id="*Paper_Space0-9" /><marker
       id="DistanceX-3"
       orient="auto"
       refX="0"
       refY="0"
       style="overflow:visible"><path
         d="M 3,-3 -3,3 M 0,-5 V 5"
         style="stroke:#000000;stroke-width:0.5"
         id="path1-3" /></marker><pattern
       id="Hatch-41"
       patternUnits="userSpaceOnUse"
       width="8"
       height="8"
       x="0"
       y="0"><path
         d="M8 4 l-4,4"
         stroke="#000000"
         stroke-width="0.25"
         linecap="square"
         id="path2-1" /><path
         d="M6 2 l-4,4"
         stroke="#000000"
         stroke-width="0.25"
         linecap="square"
         id="path3-3" /><path
         d="M4 0 l-4,4"
         stroke="#000000"
         stroke-width="0.25"
         linecap="square"
         id="path4-8" /></pattern><symbol
       id="*Model_Space-7" /><symbol
       id="*Paper_Space-4" /><symbol
       id="*Paper_Space0-2" /><marker
       id="DistanceX-02"
       orient="auto"
       refX="0"
       refY="0"
       style="overflow:visible"><path
         d="M 3,-3 -3,3 M 0,-5 V 5"
         style="stroke:#000000;stroke-width:0.5"
         id="path1-8" /></marker><pattern
       id="Hatch-60"
       patternUnits="userSpaceOnUse"
       width="8"
       height="8"
       x="0"
       y="0"><path
         d="M8 4 l-4,4"
         stroke="#000000"
         stroke-width="0.25"
         linecap="square"
         id="path2-2" /><path
         d="M6 2 l-4,4"
         stroke="#000000"
         stroke-width="0.25"
         linecap="square"
         id="path3-4" /><path
         d="M4 0 l-4,4"
         stroke="#000000"
         stroke-width="0.25"
         linecap="square"
         id="path4-86" /></pattern><symbol
       id="*Model_Space-5" /><symbol
       id="*Paper_Space-0" /><symbol
       id="*Paper_Space0-90" /><marker
       id="DistanceX-6"
       orient="auto"
       refX="0"
       refY="0"
       style="overflow:visible"><path
         d="M 3,-3 -3,3 M 0,-5 V 5"
         style="stroke:#000000;stroke-width:0.5"
         id="path1-0" /></marker><pattern
       id="Hatch-66"
       patternUnits="userSpaceOnUse"
       width="8"
       height="8"
       x="0"
       y="0"><path
         d="M8 4 l-4,4"
         stroke="#000000"
         stroke-width="0.25"
         linecap="square"
         id="path2-18" /><path
         d="M6 2 l-4,4"
         stroke="#000000"
         stroke-width="0.25"
         linecap="square"
         id="path3-49" /><path
         d="M4 0 l-4,4"
         stroke="#000000"
         stroke-width="0.25"
         linecap="square"
         id="path4-63" /></pattern><symbol
       id="*Model_Space-78" /><symbol
       id="*Paper_Space-82" /><symbol
       id="*Paper_Space0-91" /><marker
       id="DistanceX-00"
       orient="auto"
       refX="0"
       refY="0"
       style="overflow:visible"><path
         d="M 3,-3 -3,3 M 0,-5 V 5"
         style="stroke:#000000;stroke-width:0.5"
         id="path1-14" /></marker><pattern
       id="Hatch-607"
       patternUnits="userSpaceOnUse"
       width="8"
       height="8"
       x="0"
       y="0"><path
         d="M8 4 l-4,4"
         stroke="#000000"
         stroke-width="0.25"
         linecap="square"
         id="path2-17" /><path
         d="M6 2 l-4,4"
         stroke="#000000"
         stroke-width="0.25"
         linecap="square"
         id="path3-77" /><path
         d="M4 0 l-4,4"
         stroke="#000000"
         stroke-width="0.25"
         linecap="square"
         id="path4-7" /></pattern><symbol
       id="*Model_Space-3" /><symbol
       id="*Paper_Space-3" /><symbol
       id="*Paper_Space0-59" /><marker
       id="DistanceX-8"
       orient="auto"
       refX="0"
       refY="0"
       style="overflow:visible"><path
         d="M 3,-3 -3,3 M 0,-5 V 5"
         style="stroke:#000000;stroke-width:0.5"
         id="path1-34" /></marker><pattern
       id="Hatch-8"
       patternUnits="userSpaceOnUse"
       width="8"
       height="8"
       x="0"
       y="0"><path
         d="M8 4 l-4,4"
         stroke="#000000"
         stroke-width="0.25"
         linecap="square"
         id="path2-4" /><path
         d="M6 2 l-4,4"
         stroke="#000000"
         stroke-width="0.25"
         linecap="square"
         id="path3-9" /><path
         d="M4 0 l-4,4"
         stroke="#000000"
         stroke-width="0.25"
         linecap="square"
         id="path4-9" /></pattern><symbol
       id="*Model_Space-2" /><symbol
       id="*Paper_Space-55" /><symbol
       id="*Paper_Space0-3" /><linearGradient
       inkscape:collect="always"
       xlink:href="#linearGradient121"
       id="linearGradient103"
       x1="527.24408"
       y1="298.5827"
       x2="527.24408"
       y2="1046.9291"
       gradientUnits="userSpaceOnUse" /><linearGradient
       inkscape:collect="always"
       xlink:href="#linearGradient123"
       id="linearGradient104"
       gradientUnits="userSpaceOnUse"
       x1="527.24408"
       y1="298.5827"
       x2="527.24408"
       y2="1046.9291" /></defs><g
     inkscape:label="RingeWideLogo"
     id="g119"
     transform="matrix(0.26458333,0,0,0.26458333,0.47241354,-56.527568)"
     style="display:inline"><path
       d="m 926.92913,672.75591 a 399.68504,399.68504 0 0 0 -799.37007,0 399.68504,399.68504 0 0 0 799.37007,0 z"
       style="display:inline;fill:#231815;fill-opacity:1;stroke:none;stroke-width:3.571;stroke-linecap:round"
       id="path109"
       inkscape:label="Circle1" /><path
       d="m 901.41732,672.75591 a 374.17323,374.17323 0 0 0 -748.34645,0 374.17323,374.17323 0 0 0 748.34645,0 z"
       style="display:inline;fill:url(#linearGradient103);stroke:none;stroke-width:3.571;stroke-linecap:round"
       id="path110"
       inkscape:label="Circle2" /><path
       d="m 886.29921,672.75591 a 359.05512,359.05512 0 0 0 -718.11023,0 359.05512,359.05512 0 0 0 718.11023,0 z"
       style="display:inline;fill:#78ccf1;fill-opacity:1;stroke:none;stroke-width:3.571;stroke-linecap:round"
       id="path111"
       inkscape:label="Circle3" /><path
       d="m 869.29134,672.75591 a 342.04724,342.04724 0 0 0 -684.09449,0 342.04724,342.04724 0 0 0 684.09449,0 z"
       style="display:inline;fill:#000000;fill-opacity:1;stroke:none;stroke-width:3.571;stroke-linecap:round"
       id="path112"
       inkscape:label="Circle" /><path
       id="path113"
       style="display:inline;fill:url(#linearGradient104);fill-opacity:1;stroke:none;stroke-width:3.571;stroke-linecap:round"
       d="m 856.46577,579.96901 c 28.50531,101.1411 8.93942,209.77184 -53.06358,294.61096 -62.00301,84.83911 -159.56137,136.47023 -264.58244,140.02643 -105.02107,3.5562 -205.8486,-41.35724 -273.4486,-121.80776 -67.59999,-80.45054 -94.4695,-187.5089 -72.87126,-290.34659 63.28089,85.61906 156.66968,144.06205 261.33803,163.54614 104.66836,19.4841 212.83137,-1.43988 302.68203,-58.55339 46.90818,-29.81715 82.18261,-74.80788 99.94582,-127.47579 z"
       sodipodi:nodetypes="cssscscc"
       inkscape:label="LowerGradientFill" /><path
       id="path114"
       style="display:inline;fill:#0094bc;fill-opacity:1;stroke:none;stroke-width:0.944827;stroke-linecap:round"
       d="M 136.90968,31.024274 C 95.267104,32.434363 59.96873,62.094371 51.404675,102.8712 c 16.743069,22.65338 41.452186,38.11642 69.145685,43.27158 27.6935,5.15517 56.31163,-0.38096 80.08462,-15.49225 12.41112,-7.88912 21.74415,-19.79291 26.444,-33.727965 -11.30282,-40.104105 -48.52672,-67.30838 -90.1693,-65.898291 z"
       sodipodi:nodetypes="scsccs"
       transform="matrix(3.7795276,0,0,3.7795276,-1.7855001,213.6475)"
       inkscape:label="UpperFill" /><g
       id="g118"
       style="display:inline;fill:#78ccf1;fill-opacity:1;stroke:none"
       inkscape:label="Lines"><path
         id="path115"
         style="display:inline;fill:#78ccf1;fill-opacity:1;stroke:none;stroke-width:0.944827;stroke-linecap:round;stroke-opacity:1"
         d="M 153.42997,210.96626 C 101.66118,198.36318 61.78532,157.06338 51.005634,104.88442 c 1.481243,-7.944376 4.019892,-15.654562 7.548237,-22.92491 -0.83008,13.740064 1.04898,27.50929 5.530304,40.52452 16.459384,47.80341 60.663205,80.52999 111.189175,82.31963 -6.99368,2.96268 -14.3325,5.03316 -21.84338,6.1626 z"
         sodipodi:nodetypes="cccccc"
         transform="matrix(3.7795276,0,0,3.7795276,-1.7855001,213.6475)"
         inkscape:label="LeftLine" /><path
         id="path116"
         style="display:inline;fill:#78ccf1;fill-opacity:1;stroke:none;stroke-width:0.944827;stroke-linecap:round;stroke-opacity:1"
         d="m 229.89527,131.67683 c -0.38262,3.37174 -0.95458,6.7193 -1.71317,10.0268 0.21574,-11.11551 -2.16168,-22.12837 -6.94367,-32.16499 0.27961,-0.46452 0.55334,-0.93255 0.82112,-1.40399 3.61828,7.47581 6.25214,15.38915 7.83572,23.54218 z"
         sodipodi:nodetypes="ccccc"
         transform="matrix(3.7795276,0,0,3.7795276,-1.7855001,213.6475)"
         inkscape:label="RightLine" /><path
         id="path117"
         style="display:inline;fill:#78ccf1;fill-opacity:1;stroke:none;stroke-width:0.944827;stroke-linecap:round;stroke-opacity:1"
         d="m 127.5983,31.822384 c -2.91792,0.402752 -5.81445,0.947722 -8.67922,1.632964 14.80324,0.393229 29.31529,4.202621 42.40313,11.130764 -10.43838,-6.13157 -21.84154,-10.447406 -33.72391,-12.763728 z"
         sodipodi:nodetypes="cccc"
         transform="matrix(3.7795276,0,0,3.7795276,-1.7855001,213.6475)"
         inkscape:label="TopLine" /><path
         id="path118"
         style="display:inline;fill:#78ccf1;fill-opacity:1;stroke:none;stroke-width:0.944827;stroke-linecap:round"
         d="m 137.71746,51.160962 c 47.84817,-15.155466 81.58424,17.770611 67.21548,65.601658 -10.96178,-0.91878 -16.83369,12.59896 -8.6805,19.98343 -18.26715,31.89534 -52.92959,53.99245 -83.87767,53.47156 -30.948078,-0.5209 -50.137784,-23.52441 -46.436072,-55.66491 1.501971,-13.041 5.961565,-25.56695 13.038828,-36.622991 -1.300913,1.587821 -2.456647,3.289231 -3.453283,5.083741 -22.542576,40.58535 -12.26046,81.68937 22.967535,91.81587 35.227992,10.1265 82.066132,-14.55796 104.624362,-55.13881 10.9552,0.81798 16.71075,-12.72148 8.51991,-20.04238 15.67246,-52.570981 -23.31333,-87.986557 -75.83999,-68.894771 0.64337,0.121794 1.28399,0.257694 1.9214,0.407603 z"
         sodipodi:nodetypes="cccscccscccc"
         transform="matrix(3.7795276,0,0,3.7795276,-1.7855001,213.6475)"
         inkscape:label="CircleElipse" /></g><path
       id="path119"
       style="display:inline;fill:#ffffff;fill-opacity:1;stroke:none;stroke-width:0.944827;stroke-linecap:round"
       d="m 198.91943,195.97247 h -16.12614 c -34.0451,-4e-5 -61.72132,-27.45224 -61.99795,-61.49621 l -0.065,-8.00371 6.74211,-6e-5 c 17.53285,-0.003 31.74435,-14.21722 31.74435,-31.75006 0,-17.532839 -14.2115,-31.746887 -31.74435,-31.749939 H 65.12093 c 3.681604,-4.71077 7.79972,-9.063412 12.299482,-13.000018 h 50.051998 c 23.43527,-3.5e-5 42.90115,18.080453 44.62828,41.451979 1.72713,23.371528 -14.86957,44.116998 -38.05026,47.561868 2.57045,24.9888 23.62215,43.98611 48.74286,43.98613 h 29.58599 c -4.04788,4.76571 -8.55636,9.12016 -13.45985,13.00002 z"
       inkscape:label="R"
       sodipodi:nodetypes="cccccsccccscccc"
       transform="matrix(3.7795276,0,0,3.7795276,-1.7855001,213.6475)" /></g><g
     id="g90"
     inkscape:label="WIDE"
     style="display:inline;stroke:none"><path
       id="path20-3"
       style="fill:#000000;fill-opacity:1;stroke:none;stroke-width:0.944827;stroke-linecap:round"
       d="m 738.96418,160.4723 h 7.18608 l 29.3661,-74.121165 -6.50081,0.12118 -26.15142,66.000045 h -0.30427 L 716.26822,75.972325 h -7.50094 l -26.29165,76.500035 h -0.30691 l -26.14877,-66.000045 -6.50346,-0.12118 29.36875,74.121165 h 7.18344 l 25.43439,-73.999985 h 2.02936 z"
       sodipodi:nodetypes="ccccccccccccccccc"
       inkscape:label="W" /><path
       id="path24-0"
       style="fill:#000000;fill-opacity:1;stroke:none;stroke-width:0.944827;stroke-linecap:round"
       d="M 800.34751,160.4723 V 86.472315 h 5.9981 V 160.4723 Z"
       sodipodi:nodetypes="ccccc"
       inkscape:label="I" /><path
       id="path90"
       style="display:inline;fill:#000000;stroke:none;stroke-width:0.944827;stroke-linecap:round"
       d="m 843.44522,86.472239 -6.00065,6.000152 h 12.99869 v 61.999829 h -12.99869 l 6.00065,6.00015 h 54.7021 c 17.31939,6e-5 31.72383,-13.32593 33.06879,-30.59348 0.53938,-6.92486 -0.35264,-13.88629 -2.62052,-20.45146 C 923.85,95.689627 910.91421,86.4723 896.37998,86.472239 Z m 12.99869,6.000152 h 39.93607 c 11.9756,-5.3e-5 22.63397,7.594689 26.54464,18.914089 1.99946,5.78673 2.78588,11.92303 2.31045,18.02681 -1.10167,14.14402 -12.9004,25.05898 -27.08725,25.05893 h -41.70391 z"
       inkscape:label="D" /><path
       id="path56"
       style="fill:#000000;fill-opacity:1;stroke:none;stroke-width:0.944827;stroke-linecap:round"
       d="m 1036.4643,154.47235 -68.0237,4e-5 c -4.41761,5e-5 -7.99936,-3.58167 -7.99936,-7.99997 v -19.99987 h 71.00096 v -6.00022 h -71.00096 v -19.99988 c 0,-4.418303 3.58175,-8.000028 7.99936,-7.999965 l 67.9999,5e-5 6.0008,-6.00022 -74.0007,5.8e-5 c -7.73133,5.5e-5 -13.99934,6.268071 -13.99955,14.000077 v 45.99997 c 2.1e-4,7.732 6.26822,14.00001 13.99955,13.99995 l 74.0007,-7e-5 z"
       sodipodi:nodetypes="ccccccccccccccccc"
       inkscape:label="E" /></g><g
     inkscape:label="RING"
     id="g62"
     transform="matrix(0.26458333,0,0,0.26458333,0.47241354,-56.527568)"
     style="display:inline;stroke:none;fill:#000000"><path
       id="path79"
       style="display:inline;stroke:none;stroke-width:3.571;stroke-linecap:round;fill:#000000"
       d="m 957.36686,464.88188 82.00394,97.72852 v 261.32617 h 52.9101 v -75.58984 h 117.1699 l 111.709,128.5039 h 60.0899 L 1269.7809,748.61821 c 39.48,0.0865 75.2987,-23.11271 91.3653,-59.17578 13.5923,-30.50921 13.8478,-65.30424 0.705,-96.00977 -15.7128,-36.71053 -51.7985,-60.51826 -91.7304,-60.51953 h -194.5215 l -61.8086,-68.03125 z m 134.91404,98.26758 h 154.1406 c 18.308,-5e-5 35.8018,7.56745 48.3379,20.91015 29.8752,31.79706 29.8752,81.34357 0,113.14063 -12.5361,13.3427 -30.0299,20.91021 -48.3379,20.91016 h -154.1406 z"
       inkscape:label="R" /><path
       id="path28-2"
       style="fill:#000000;fill-opacity:1;stroke:none;stroke-width:3.571;stroke-linecap:round"
       d="M 1455.12,823.937 V 532.913 h 52.91 v 291.024 z"
       sodipodi:nodetypes="ccccc"
       inkscape:label="I" /><path
       id="path40-4"
       style="fill:#000000;fill-opacity:1;stroke:none;stroke-width:3.571;stroke-linecap:round"
       d="m 1872.82,823.937 h 66.08 V 532.913 h -52.92 v 234.331 h -2.35 l -203.7,-234.331 h -66.07 v 291.024 h 52.91 V 589.606 h 2.35 z"
       sodipodi:nodetypes="ccccccccccccc"
       inkscape:label="N" /><path
       id="path58-95"
       style="fill:#000000;fill-opacity:1;stroke:none;stroke-width:3.571;stroke-linecap:round"
       d="m 2159.2307,793.7009 133.0506,10e-5 v -77.50723 c 0,-15.6407 -12.6791,-28.31979 -28.3215,-28.31976 l -92.812,-10e-6 -30.24,-30.236 148.0224,-1e-4 c 31.075,-10e-5 56.2644,15.32892 56.2671,34.23817 V 823.937 h -197.7917 c -10.4809,10e-6 -20.9284,-1.15107 -31.1562,-3.43254 -66.5497,-14.84487 -113.8783,-73.89402 -113.8783,-142.07926 0,-68.18525 47.3286,-127.2344 113.8783,-142.07927 10.2278,-2.28146 20.6753,-3.43255 31.1562,-3.43273 l 199.6817,-2e-4 -30.24,30.237 -157.62,-1.9e-4 c -36.0178,-2e-4 -68.9517,20.32671 -85.0981,52.52262 -19.805,39.49122 -19.805,86.01432 0,125.50554 16.1464,32.19591 49.0803,52.52282 85.0988,52.52293 z"
       sodipodi:nodetypes="cccccccccccscccccccc"
       inkscape:label="G" /></g></svg>
