<svg height="164.585" viewBox="0 0 430.949 246.877" width="287.299" xmlns="http://www.w3.org/2000/svg">
    <text fill="#ef00eb" font-family="TrasksHand" font-size="3" stroke="#0105ff" stroke-width="3.75" x="437.7" y="47.426" transform="translate(-78.874 -1.611)"><tspan fill="#fafafa" fill-opacity=".4" stroke="none" x="437.7" y="47.426">John Loreth 2022</tspan></text>
    <g stroke-linecap="round" stroke-linejoin="round" transform="translate(-78.874 -1.611)">
        <path d="M287.268 4.611c-12.783 0-25.483 5.28-34.512 14.334-9.03 9.056-14.28 21.772-14.28 34.565 0 12.792 5.25 25.509 14.28 34.564.688.69 1.527 1.2 2.256 1.846-.814.552-1.624 1.114-2.305 1.824-.491.512-.832 1.079-1.232 1.625-3.325-2.678-7.262-4.95-11.817-6.322a11.917 11.917 0 0 0-3.62-.506l-23.77.363a11.917 11.917 0 0 0-1.55.125c-5.222.767-9.659 2.921-13.325 5.647V75.31a11.917 11.917 0 0 0-.233-2.338c-.978-4.887-2.997-10.08-6.976-14.371-3.98-4.292-9.728-7.124-15.782-8.133a11.917 11.917 0 0 0-2.47-.15c-23.013.988-44.237.98-64.534.423l.184.008c-5.013-.214-9.779 1.053-14.727 4.668-4.947 3.614-9.203 10.17-10.162 17.998a11.917 11.917 0 0 0-.082 1.813c.716 23.508 1.146 46.942.362 70.636a11.917 11.917 0 0 0 .002.838c.161 4.328 1.103 9.757 5.152 15.05 1.14 1.492 2.638 2.82 4.307 4.018-1.843.765-3.652 1.752-5.336 3.336-5.259 4.945-5.718 12.186-4.895 16.885l-.039-.232c1.647 10.647 1.964 21.435 2.19 32.726a11.917 11.917 0 0 0 .164 1.744c.534 3.17.924 8.404 5.172 13.934 4.247 5.53 12.23 8.573 20.068 8.475l-.276.002 63.776.67a11.917 11.917 0 0 0 3.031-.36c4.14-1.04 8.395-2.968 12.365-6.937.329-.328.606-.79.922-1.158 1.25 1.83 2.685 3.57 4.543 5.003 5.175 3.994 11.8 5.171 17.953 4.657l-.992.04h33.74a11.917 11.917 0 0 0 .194-.001c3.284-.054 6.843-.915 10.004-2.666 2.842 2.232 6.364 3.6 10.09 3.6h40.109c4.04 0 7.491-1.26 10.562-3.68 3.767 2.004 7.703 2.334 11.328 1.968h36.348a11.917 11.917 0 0 0 2.76-.324c6.512-1.55 9.163-4.44 12.152-8.521.451.524.839 1.119 1.328 1.595 4.679 4.554 10.31 6.865 15.817 8.27a11.917 11.917 0 0 0 3.015.37l52.774-.314c7.753.015 13.316-2.376 16.637-3.968 4.065 2.457 8.356 3.136 11.644 3.324 4.214.24 7.633-.092 10.149-.092a11.917 11.917 0 0 0 .746-.023c4.93-.31 11.143-4.03 13.486-8.338 2.343-4.309 2.25-7.528 2.324-9.785a11.917 11.917 0 0 0 .006-.334l.266-56.408c.367-3.092 1.2-7.363-2.944-13.11-2.18-3.025-6.232-5.372-9.67-5.957-2.523-.43-4.635-.195-6.636.197h-2.547V69.268a11.917 11.917 0 0 0-3.912-8.829l-6.856-6.214a11.917 11.917 0 0 0-8.004-3.088h-24.654l1.354.078c-1.574-.18-3.204-.233-4.93-.057-3.217.328-6.563 2.088-9.32 4.406-.457-.45-.837-.96-1.37-1.343-4.296-3.097-8.164-2.9-10.167-2.826-9.763.24-17.918 1.186-24.63.134a11.917 11.917 0 0 0-.69-.088c-3.467-.336-6.746-.312-10.26.739-3.515 1.05-7.25 3.636-9.34 6.797-4.18 6.32-3.014 11.092-3.012 13.132a11.917 11.917 0 0 0 .002.213l.933 49.858c-2.138-1.07-4.288-1.753-6.255-1.994a11.917 11.917 0 0 0-1.45-.088h-1.976c.295-4.894.571-9.733.941-14.844a11.917 11.917 0 0 0 .028-1.174c-.058-2.18.147-6.302-3.573-10.975-3.72-4.672-10.365-6.159-14.965-5.775l.993-.04h-20.74l1.808.138c-.717-.11-1.592-.013-2.38-.041 8.65-9.01 13.722-21.38 13.722-33.877 0-12.793-5.25-25.51-14.28-34.565C312.75 9.89 300.05 4.611 287.268 4.611zm177.306 233.791c.023.022.048.032.07.053l-.027-.014z" fill="#fffff8" stroke="#2546a0" stroke-width="6"/>
        <path d="M94.883 146.26c.797-24.098.356-47.792-.362-71.395 1.196-9.766 8.922-12.366 12.552-12.21 20.522.562 42.042.569 65.371-.433 7.998 1.333 11.666 6.257 13.033 13.09v38.837c.658 5.546-1.913 4.509-3.555 5.367h-33.31c-6.662-1.223-4.41-4.549-4.61-7.296.709-7.74 2.007-16.407 2.027-23.26-2.492-9.421-12.945-9.627-14.688-.513l.742 43.982c-.86 4.58 5.754 7.308 7.817 6.766l31.47-1.366c5.13-.324 12.527 4.918 12.488 13.306-1.437 23.17-1.796 43.938-.748 68.197.92 7.028-5.356 10.964-9.727 12.063l-63.776-.671c-11.191.14-12.274-6.162-13.339-12.475-.227-11.347-.532-22.706-2.328-34.312-.936-5.347 1.37-8.466 9.253-7.752h24.016c2.638-.072 5.801-1.153 5.364 4.694l-.398 12.294c-.59 4.613-1.448 8.797-1.221 13.738 2.106 12.292 13.393 10.15 14.278 0l-.8-37.826c-.104-6.49-1.597-11.146-10.332-10.874l-26.424.433c-10.025.413-12.603-7.297-12.793-12.385zM236.218 98.455l-23.771.363c-14.193 2.083-16.42 16.83-16.254 20.822-.493 28.764.42 56.911.665 85.675-.385 5.745-.66 11.46.132 16.89 1.336 7.307 5.725 11.135 14.089 10.436h33.741c11.84-.192 5.213-12.957 2.18-12.698l-31.134-.395c-3.935-.255-5.7-8.037.709-9.173 5.4-1.426 11.392-.068 17.092.352 3.918.288 8.114-.507 11.853.158 5.811.175 5.826-2.932 5.555-6.202l.222-81.393c-.888-9.794.077-20.267-15.079-24.835zm-12.518 24.09c3.789 0 7.02 3.057 6.838 6.842-.817 16.933-2.384 33.777 0 51.102.516 3.754-3.049 6.838-6.838 6.838-3.79 0-7.02-3.053-6.841-6.838.808-17.034 1.11-34.068 0-51.102-.247-3.781 3.052-6.841 6.84-6.841zM265.108 98.838c13.744 1.323 27.478 1.88 40.108 0 3.606-.536 4.817 1.555 4.849 4.383-.198 1.937-.048 4.032-.199 6.122-.772 10.712-1.102 23.099-.838 34.607.554 24.198-2.026 48.121.626 71.854.511 4.573-.01 9.066.335 13.502.198 2.42-2.345 4.266-4.773 4.266h-40.108c-2.428 0-4.509-1.958-4.383-4.383 2.15-41.353 2.292-83.156-.489-125.968-.157-2.423 1.382-4.719 4.872-4.383z" fill="#2546a0"/>
        <ellipse cx="287.268" cy="53.509" fill="#f3419f" rx="36.875" ry="36.982"/>
        <path d="M321.973 99.117c-4.369-.118-4.327 4.497-3.978 10.404 3.737 27.149 1.338 53.816 1.588 80.692 1.22 12.294.148 24.376-.493 36.419-.292 3.619 1.736 6.101 7.77 5.23h36.595c3.006-.716 10.033-7.026 9.653-16.984-2.95-24.566-1.964-48.403-1.582-72.352-1.026-7.676-6.151-10.126-9.325-10.514h-6.366c-4.796.277-7.949-.928-7.99-4.951.456-7.473.865-14.794 1.436-22.67-.078-2.977-.663-5.6-5.631-5.186h-20.742a7.511 7.511 0 0 0-.935-.088zm24.501 49.705c3.627 0 6.91 2.937 6.548 6.545-1.789 17.824-.96 35.649 0 53.473.195 3.621-2.921 6.548-6.548 6.548-3.626 0-6.927-2.942-6.545-6.548 1.828-17.24.42-35.514 0-53.473-.084-3.625 2.919-6.545 6.545-6.545zM417.312 63.301c-8.96.215-17.923 1.404-26.882 0-9.962-.968-9.547 4.034-9.542 8.799l.953 51.029c2.42 31.55 1.175 62.922 1.763 94.383.454 9.124 6.337 13.568 14.854 15.74l52.866-.314c13.346.025 15.53-8.701 21.417-3.211 3.819 3.594 10.572 2.475 16.989 2.475 3.954-.248 4.536-3.243 4.647-6.621l.27-57.04c.457-4.495-.193-7.956-6.367-6.266h-8.248c-5.844.951-7.86-1.813-7.187-7.187v-85.82l-6.856-6.216h-24.653c-7.046-.806-8.044 4.148-7.25 10.808.56 8.833 1.099 17.663 1.179 26.5.319 35.229-.112 70.603.276 105.905.088 12.932-14.251 13.704-14.823 0-.112-46.194-1.72-91.586.686-139.129-.136-3.477-1.97-3.911-4.092-3.835z" fill="#2546a0"/>
    </g>
</svg>
