<?xml version="1.0" encoding="UTF-8" standalone="no"?>
<svg
   height="300"
   width="600"
   version="1.1"
   id="svg13443"
   sodipodi:docname="semicom-w.svg"
   inkscape:version="1.1.2 (0a00cf5339, 2022-02-04)"
   xmlns:inkscape="http://www.inkscape.org/namespaces/inkscape"
   xmlns:sodipodi="http://sodipodi.sourceforge.net/DTD/sodipodi-0.dtd"
   xmlns="http://www.w3.org/2000/svg"
   xmlns:svg="http://www.w3.org/2000/svg">
  <defs
     id="defs13447" />
  <sodipodi:namedview
     id="namedview13445"
     pagecolor="#ffffff"
     bordercolor="#666666"
     borderopacity="1.0"
     inkscape:pageshadow="2"
     inkscape:pageopacity="0.0"
     inkscape:pagecheckerboard="0"
     showgrid="false"
     inkscape:zoom="2.8081341"
     inkscape:cx="230.22405"
     inkscape:cy="121.78906"
     inkscape:window-width="1920"
     inkscape:window-height="1011"
     inkscape:window-x="0"
     inkscape:window-y="32"
     inkscape:window-maximized="1"
     inkscape:current-layer="svg13443" />
  <text
     fill="#ef00eb"
     font-family="TrasksHand"
     font-size="2"
     stroke="#0105ff"
     stroke-width="2.5"
     x="209.505"
     y="146.872"
     id="text13421"><tspan
       fill="#fafafa"
       fill-opacity=".4"
       stroke="none"
       x="209.505"
       y="146.872"
       id="tspan13419">John Loreth 2022</tspan></text>
  <g
     fill-opacity=".948"
     id="g13429"
     style="fill:#4d4d4d">
    <path
       d="M242.137 142.059h-9.6c-4.044-3.532-7.44-4.657-16.901-4.483-8.587.505-10.758 1.413-16.434 6.64-1.538 1.399 1.48 2.898 2.966 2.883h41.648c3.856.103 6.26 3.18 4.665 7.992-4.262 12.404-13.498 20.038-27.544 21.55h-9.794c-7.416-.626-20.158-3.81-24.821-12.774-1.076-2.397.359-3.732 1.944-3.742l7.126.24c3.437.287 13.017 6.849 15.913 6.716l10.044-.092c1.679.086 9.55-3.993 12.946-7.608 2.124-2.066.74-3.75-.616-3.94l-46.036.41c-3.952-.139-3.76-2.094-3.816-5.37-.072-15.017 18.149-21.425 24.122-22.673 7.957-1.185 13.11-.778 17.459-.157 6.91 1.705 12.672 5.096 18.748 10.777 1.675 1.373-.35 3.832-2.019 3.63zM256.134 132.587v35.783c-.024 3.503.593 4.759 4.298 4.598h40.004c3.923.027 3.646-7.75 0-7.65h-28.299c-3.409.607-4.966-9.627 0-10.705h28.3c3.812.176 3.54-7.753 0-7.645h-28.773c-2.43.035-4.776-6.822 0-9.384h28.772c3.702.49 4.683-8.573 0-8.63h-40.748c-1.929.144-3.48.516-3.554 3.633zM308.945 168.853V132.73c-.031-2.893.805-3.848 4.17-3.755 1.06.029 5.577-.042 7.023-.054 4.704-.039 5.06 1.107 6.636 3.809l11.236 23.719c1.128 1.054 2.297.944 2.978-.181l11.442-24.697c.892-1.443 1.908-2.447 3.48-2.436h9.694c2.583.048 3.15 1.357 3.172 2.436v38.056c-.04 2.409-.789 3.443-3.456 3.443h-5.216s-3.854 0-4.174-3.443v-15.333c-.14-2.364-1.296-1.461-2.174.45L346.463 170c-2.047 4.006-2.124 3.07-3.443 3.07h-7.726c-1.163 0-2.467 0-3.85-2.616l-7.37-16.117c-.748-1.305-2.203-2.105-2.372 0V168.9c.047 2.339-.485 4.18-2.484 4.168-2.012-.003-3.946 0-6.037-.008-1.97-.008-4.243.928-4.237-4.207z"
       id="path13423"
       style="fill:#4d4d4d" />
    <rect
       height="44.188"
       ry="4.501"
       width="14.176"
       x="376.728"
       y="128.881"
       id="rect13425"
       style="fill:#4d4d4d" />
    <path
       d="M409.538 150.804c-1.263 5.81 16.352 27.317 39.507 4.678 5.224-5.108 12.628.366 11.926 2.124-3.993 10.014-16.118 18.462-31.123 18.462-18.053 0-32.688-11.31-32.688-25.264s14.635-25.264 32.688-25.264c15.127 0 29.241 7.556 31.583 18.722.455 2.173-7.752 7.73-12.543 2.065-17.037-20.15-37.286-5.024-39.35 4.477zM499.188 125.305a32.251 25.04 0 0 0-32.252 25.04 32.251 25.04 0 0 0 32.252 25.04 32.251 25.04 0 0 0 32.25-25.04 32.251 25.04 0 0 0-32.25-25.04zm.218 10.822a19.627 14.323 0 0 1 19.625 14.322 19.627 14.323 0 0 1-19.625 14.322 19.627 14.323 0 0 1-19.627-14.322 19.627 14.323 0 0 1 19.627-14.322zM538.36 168.853V132.73c-.031-2.893.805-3.848 4.17-3.755 1.06.029 5.577-.042 7.024-.054 4.703-.039 5.059 1.107 6.635 3.809l11.237 23.719c1.127 1.054 2.296.944 2.977-.181l11.442-24.697c.892-1.443 1.909-2.447 3.48-2.436h9.694c2.584.048 3.15 1.357 3.172 2.436v38.056c-.04 2.409-.788 3.443-3.456 3.443h-5.216s-3.853 0-4.173-3.443v-15.333c-.14-2.364-1.296-1.461-2.174.45L575.879 170c-2.048 4.006-2.124 3.07-3.443 3.07h-7.727c-1.163 0-2.466 0-3.849-2.616l-7.37-16.117c-.749-1.305-2.204-2.105-2.373 0l.001 14.564c.047 2.339-.485 4.18-2.485 4.168-2.012-.003-3.946 0-6.037-.008-1.97-.008-4.242.928-4.236-4.207z"
       id="path13427"
       style="fill:#4d4d4d" />
  </g>
  <path
     d="M88.66 76.645c-40.419 0-73.09 32.9-73.09 73.75s32.671 73.75 73.09 73.75c40.42 0 73.088-32.902 73.088-73.75 0-2.43-.124-4.831-.35-7.2h-23.101v-14.513h20.244c-9.162-30.19-36.946-52.037-69.88-52.037z"
     fill="#3939ff"
     id="path13431" />
  <path
     d="M88.66 62.145c-48.32 0-87.59 39.628-87.59 88.25 0 2.394.122 4.76.309 7.107h14.535a75.737 75.737 0 0 1-.344-7.107c0-40.85 32.671-73.75 73.09-73.75 32.935 0 60.72 21.847 69.881 52.037h15.016c-9.627-38.174-44.02-66.537-84.897-66.537zm87.272 81.05h-14.534c.226 2.369.35 4.77.35 7.2 0 40.848-32.669 73.75-73.088 73.75-32.967 0-60.773-21.892-69.908-52.127H3.742c9.597 38.218 44.01 66.627 84.918 66.627 48.32 0 87.588-39.63 87.588-88.25 0-2.426-.125-4.823-.316-7.2zm-160.01 14.307h-.008c.29 2.471.207 2.088.008 0z"
     id="path13433" />
  <path
     d="M138.654 143.353v14.444l30.344-.152c4.004-.02 7.25-3.246 7.25-7.25s-3.246-7.25-7.25-7.25m-128.748 0H8.021a7.25 7.25 0 0 0 0 14.5h32.137"
     fill-opacity=".992"
     id="path13435" />
  <g
     stroke-linejoin="round"
     id="g13441">
    <circle
       cx="89.525"
       cy="150.891"
       fill="#ffc600"
       r="49.75"
       stroke="#000"
       stroke-linecap="round"
       stroke-opacity=".992"
       stroke-width="12.5"
       id="circle13437" />
    <path
       d="M72.531 137.65c-9.522 0-17.412 7.747-17.412 17.25h10c0-4.027 3.223-7.25 7.412-7.25s7.414 3.223 7.414 7.25h10c0-9.503-7.891-17.25-17.414-17.25zm33.95.104c-9.523 0-17.415 7.746-17.415 17.25h10c0-4.027 3.226-7.25 7.414-7.25 4.19 0 7.413 3.223 7.413 7.25h10c0-9.504-7.89-17.25-17.413-17.25z"
       fill-opacity=".992"
       id="path13439" />
  </g>
</svg>
