<svg height="186" width="500" xmlns="http://www.w3.org/2000/svg">
    <path d="M380.012 153.594c.121 2.851-.121 5.582-.728 8.19-1.153 5.037-3.61 9.497-7.372 13.38-6.31 6.128-14.182 10.79-22.89 10.79s-15.639-4.662-21.524-10.79c-4.126-3.883-6.887-8.343-8.283-13.38-.788-2.608-1.161-5.339-1.183-8.19V63.309h-30.67c-8.495-.121-15.654-3.247-21.48-9.375-6.188-6.37-9.343-14.016-9.464-22.935.121-8.495 3.276-15.685 9.465-21.57 5.825-6.189 12.984-9.344 21.479-9.465h121.955c8.92.121 16.534 3.276 22.845 9.465 5.764 5.885 8.464 13.075 8.1 21.57.364 8.92-2.336 16.564-8.1 22.935-6.31 6.129-13.925 9.254-22.845 9.375h-29.305zm119.956 10.83c.303 5.825-1.517 10.77-5.461 14.835-4.551 4.43-9.92 6.634-16.11 6.695-5.642.121-10.588-1.659-14.835-5.42-4.126-4.066-6.37-9.511-6.735-15.336 0 0-7.447.522-10.83.5-3.384-.022-9.375-.5-9.375-.5-.424 5.825-2.67 11.27-6.735 15.336-4.672 3.761-10.072 5.541-16.2 5.42-5.825-.06-10.74-2.265-14.744-6.695-4.49-4.065-6.735-9.01-6.735-14.835v-35.04c.06-14.744 5.43-28.344 16.11-38.78 10.435-10.74 22.995-16.023 37.679-16.083 15.169.06 28.214 5.343 39.135 16.083 10.194 10.375 15.139 23.975 14.836 38.78zm-44.506-43.231c-2.67-2.67-5.825-4.005-9.465-4.005-3.702 0-6.826 1.335-9.375 4.005-2.67 2.609-4.004 5.794-4.004 9.556v3.914l1.365 2.821c2.124 1.7 6.128 2.579 12.014 2.64 9.344-.122 13.834-1.942 13.47-5.461v-3.914c0-3.762-1.335-6.947-4.005-9.556zM36.438 61.943c-.122-16.807 5.734-31.156 17.565-43.049C65.896 6.638 80.245.328 97.053-.036h90.284c8.859.122 16.504 3.276 22.936 9.465 6.128 5.885 9.253 13.075 9.374 21.57-.121 8.92-3.246 16.564-9.374 22.935-6.432 5.704-14.077 8.373-22.936 8.01h-49.784c17.264 6.344 26.295 13.948 34.03 25.487 7.231 10.91 11.386 22.234 11.75 35.218-.304 15.048-5.34 28.093-15.108 39.136l-3.732 3.913c-11.892 12.257-26.303 19.953-43.231 20.256H31.068c-8.98-.121-16.625-4.662-22.935-10.79-3.823-3.883-6.28-8.343-7.372-13.38-.607-2.608-.85-5.339-.729-8.19-.364-8.92 2.336-16.534 8.1-22.845 6.31-5.764 13.956-8.464 22.936-8.1h49.875c-16.503-6.542-25.32-13.068-33.675-24.3-7.341-10.861-10.952-22.996-10.83-36.406zm159 35.04c.121-5.764 2.366-10.709 6.735-14.835 4.55-4.429 9.95-7.567 16.2-7.627h69.978c4.732.06 8.767 2.773 12.104 6.353 3.52 3.337 5.31 7.342 5.37 12.014-.06 4.793-1.85 8.859-5.37 12.196-3.337 3.519-7.461 6.47-12.194 6.53-3.174-.02-11.886-.34-8.831.749 1.706 0 11.56 6.95 11.56 17.021s-9.919 17.475-11.56 17.475c-2.88.809 5.089 1.036 9.667 1.036 4.987 0 8.021 2.604 11.358 5.699 2.245 2.427 3.792 5.157 4.642 8.19l.728 5.28c-.06 4.793-1.85 8.858-5.37 12.195-3.337 3.459-7.372 6.634-12.104 6.695h-69.978c-6.25-.121-11.65-3.782-16.2-8.15-4.37-4.43-6.614-9.77-6.735-16.02zm0 64.802v-.091z" fill="#0b4199"/>
</svg>
