<?xml version="1.0" encoding="UTF-8" standalone="no"?>
<!-- Created with Inkscape (http://www.inkscape.org/) -->

<svg
   width="1015.7354mm"
   height="164.93282mm"
   viewBox="0 0 1015.7354 164.93282"
   version="1.1"
   id="svg1"
   inkscape:version="1.3.2 (091e20e, 2023-11-25, custom)"
   sodipodi:docname="sfc-w.svg"
   xmlns:inkscape="http://www.inkscape.org/namespaces/inkscape"
   xmlns:sodipodi="http://sodipodi.sourceforge.net/DTD/sodipodi-0.dtd"
   xmlns="http://www.w3.org/2000/svg"
   xmlns:svg="http://www.w3.org/2000/svg">
  <sodipodi:namedview
     id="namedview1"
     pagecolor="#ffffff"
     bordercolor="#000000"
     borderopacity="0.25"
     inkscape:showpageshadow="2"
     inkscape:pageopacity="0.0"
     inkscape:pagecheckerboard="true"
     inkscape:deskcolor="#d1d1d1"
     inkscape:document-units="mm"
     inkscape:zoom="0.2911843"
     inkscape:cx="1966.1087"
     inkscape:cy="733.2126"
     inkscape:window-width="2560"
     inkscape:window-height="1351"
     inkscape:window-x="-9"
     inkscape:window-y="-9"
     inkscape:window-maximized="1"
     inkscape:current-layer="svg1" />
  <defs
     id="defs1" />
  <path
     id="yellow_1_"
     class="st0"
     d="m 134.54062,118.41907 c 42.51854,0 48.18063,18.36208 48.18063,24.92375 0,7.69937 -12.01209,21.59 -48.18063,21.59 -37.41208,0 -46.513746,-15.66334 -46.513746,-21.59 0,-6.24417 3.175,-24.92375 46.513746,-24.92375 z"
     style="clip-rule:evenodd;fill:#fddb00;fill-rule:evenodd;stroke-width:0.264583"
     inkscape:label="yellow_1" />
  <path
     id="green_1_"
     class="st1"
     d="m 44.846874,75.239069 c 42.518542,0 46.51375,20.319999 46.51375,24.923751 0,4.60375 -8.678333,21.59 -44.846875,21.59 C 9.1016666,121.75282 0,104.74011 0,100.13636 0,95.53261 1.508125,75.239069 44.846874,75.239069 Z"
     style="clip-rule:evenodd;fill:#73b744;fill-rule:evenodd;stroke-width:0.264583"
     inkscape:label="green_1" />
  <path
     id="red_1_"
     class="st2"
     d="m 146.18229,86.854277 c 0,0 0.68792,-37.094583 34.87208,-41.539583 34.18417,-4.445 48.63042,24.103541 49.82104,29.897916 11.08605,53.84271 -38.20583,56.56792 -38.20583,56.48854 -3.09562,-47.307498 -46.48729,-44.846873 -46.48729,-44.846873 z"
     style="clip-rule:evenodd;fill:#e11f26;fill-rule:evenodd;stroke-width:0.264583"
     inkscape:label="red_1" />
  <path
     id="blue_1_"
     class="st3"
     d="m 59.795833,42.007402 c 0,0 0.687916,-37.0945824 34.872082,-41.53958234 C 128.85208,-3.9771803 143.29833,24.571361 144.48896,30.365736 155.575,84.234902 106.30958,86.96011 106.30958,86.854277 103.1875,39.546778 59.795833,42.007402 59.795833,42.007402 Z"
     style="clip-rule:evenodd;fill:#25a4dd;fill-rule:evenodd;stroke-width:0.264583"
     inkscape:label="blue_1" />
  <path
     d="m 541.91958,97.728652 v 8.625418 h 35.08375 v 16.11312 h -35.08375 v 8.62542 h 35.08375 6.72041 v -8.62542 -16.11312 -8.625418 h -6.72041 z m -85.91021,14.948958 h 29.5275 c 0,3.25437 -0.58208,4.41854 -3.43958,4.41854 h -6.90563 -4.60375 v 3.25438 c 0,1.53458 -0.37042,3.06916 -4.02167,3.06916 h -8.4402 v 7.67292 h 9.2075 c 4.41854,0 7.67291,-3.06917 7.67291,-7.09083 v -0.58209 h 7.09084 c 4.97416,0 8.62541,-3.65125 8.62541,-9.02229 v -1.905 -6.90562 h -34.71333 z m 39.29062,-8.06979 41.80417,4.60375 v -7.48771 l -41.80417,-4.60375 z m 0,10.95375 41.80417,4.60375 v -7.27604 l -41.80417,-4.60375 z m 0,10.92729 41.80417,4.60375 v -7.48771 l -41.80417,-4.60375 z M 287.44333,109.60844 v -3.25437 0 -8.625418 H 252.73 v 8.625418 h 28.38979 v 3.25437 c 0,7.85813 -7.09084,12.46188 -18.97063,13.04396 h -10.74208 v 8.62542 h 11.69458 c 7.48771,0 13.41438,-3.06917 17.4625,-7.09084 l 4.78896,7.09084 h 10.16 l -10.55687,-13.04396 c 1.53458,-2.88396 2.48708,-5.95313 2.48708,-8.62542 z m 300.8577,-3.25437 h 25.50584 v -8.625418 h -25.50584 z m 35.8775,1.905 c 0,11.32416 -5.55625,14.18166 -14.76375,14.18166 h -21.08729 v 8.62542 h 23.57438 c 12.64708,0 18.01812,-8.255 18.01812,-18.01812 V 97.516985 h -5.74146 z m -287.25812,2.11666 c 0,7.27605 -3.06916,12.27667 -13.81125,12.27667 v 8.62542 c 18.415,0 19.94959,-11.69459 19.94959,-19.55271 V 97.728652 h -6.32355 z m 18.01813,0 V 97.728652 h -6.50875 v 13.996458 c 0,7.67292 2.11666,19.55271 20.50521,19.55271 v -8.62542 c -10.9273,-0.21167 -13.99646,-5.00062 -13.99646,-12.27667 z m 56.96479,-4.02166 h 33.76083 v 5.37104 c 0,8.81062 -5.74146,10.74208 -18.01812,10.74208 h -13.22917 v 8.62542 h 18.415 c 9.02229,0 18.97062,-7.27604 18.97062,-18.415 v -6.50875 0 -8.625417 h -40.08437 v 8.810627 z m -119.67104,11.69458 h 30.29479 v -7.48771 h -30.29479 z m 78.05208,0 h 30.48 v -7.48771 h -30.48 z m -0.76729,-14.97541 c 0,3.43958 -2.88396,6.32354 -6.32354,6.32354 -3.43959,0 -6.32354,-2.88396 -6.32354,-6.32354 0,-3.439588 2.88395,-6.323547 6.32354,-6.323547 3.65125,0 6.32354,2.883959 6.32354,6.323547 z m -3.43958,0 c 0,-1.53459 -1.34938,-2.88396 -2.88396,-2.88396 -1.53459,0 -2.88396,1.34937 -2.88396,2.88396 0,1.53458 1.34937,2.88395 2.88396,2.88395 1.53458,-0.1852 2.88396,-1.34937 2.88396,-2.88395 z m 269.98083,-4.20688 h 1.905 v 5.37104 h 1.34937 v -5.37104 h 1.905 v -1.137708 h -5.37104 v 1.137708 z m 9.97479,4.02167 v 0 l -1.13771,-5.185837 h -2.11667 v 6.508747 h 1.34938 v -5.556247 0 l 1.13771,5.556247 h 1.34937 l 1.13771,-5.556247 v 0 5.556247 h 1.34937 v -6.508747 h -1.905 z M 264.82145,61.851152 h 21.48417 c 7.85813,0 8.04333,11.694583 0,11.694583 h -32.22625 v 8.625417 h 41.61896 c 16.69521,0 16.88042,-27.992916 -0.76729,-27.992916 h -21.66938 c -8.62541,0 -8.62541,-10.742084 0,-10.742084 h 30.87688 v -8.625416 h -39.50229 c -18.415,0 -17.83292,27.040416 0.1852,27.040416 z m 49.08021,-27.040416 v 29.924375 c 0,10.927291 7.85813,17.250833 16.11313,17.250833 H 366.0775 V 34.810736 h -13.41438 v 38.549791 h -15.71625 c -6.90562,0 -10.34521,-5.371042 -10.34521,-9.577916 V 34.810736 Z m 95.69979,29.739166 h -21.2725 V 81.800735 H 374.91458 V 33.858236 h 13.41437 21.2725 c 23.97125,0 24.92375,30.691666 0,30.691666 z m -4.41854,-22.06625 H 388.3025 v 14.578542 h 16.88041 c 10.74208,-0.185208 10.55688,-14.578542 0,-14.578542 z m 77.86688,29.924375 h -25.87625 c -6.72042,0 -9.57792,-8.043333 -8.81063,-10.742083 h 34.89854 v -8.625417 h -34.89854 c -0.76729,-2.883958 1.905,-10.742083 8.62542,-10.742083 h 26.08791 v -8.625416 h -28.575 c -27.41083,0 -27.22562,48.127707 0,48.127707 h 28.575 V 72.408027 Z M 606.53083,42.483652 h 23.20395 v -8.625416 h -28.38979 c -11.50937,0 -20.90208,7.487708 -20.90208,19.3675 v 0 28.945416 h 13.41437 V 62.618444 h 35.85105 v -9.577917 h -35.66584 c 0.0265,-7.487708 4.23334,-10.556875 12.48834,-10.556875 z M 821.8752,33.858236 c -28.17813,0 -31.64417,48.127708 3.25437,48.127708 v 0 h 23.97125 v -9.577917 h -24.15646 c -13.41437,0 -13.41437,-30.109583 0,-30.109583 h 24.15646 v -8.625416 z m -73.05146,0 h -37.01521 -13.41437 v 48.127708 h 13.41437 v -39.6875 h 14.57854 v 39.6875 h 12.46188 v -39.6875 h 3.83646 c 6.72041,0 12.64708,3.069167 12.64708,10.927292 v 28.760208 h 13.41438 V 50.923861 c 0.21166,-11.694583 -6.90563,-17.065625 -19.92313,-17.065625 z m 28.76021,48.127708 h 14.57854 V 33.858236 h -14.57854 z m 137.10708,-23.97125 c 0,13.229166 -7.85812,25.108958 -30.87687,25.108958 -23.01875,0 -30.87688,-11.879792 -30.87688,-25.108958 0,-13.626042 8.255,-24.156458 30.87688,-24.156458 22.62187,0 30.87687,10.556875 30.87687,24.156458 z M 900.2977,57.829486 c 0,-12.647084 -4.78896,-16.483542 -16.48354,-16.483542 -11.69459,0 -16.48355,3.65125 -16.48355,16.483542 0,12.091458 4.60375,16.483541 16.48355,16.483541 11.87979,0 16.48354,-4.392083 16.48354,-16.483541 z M 689.55707,56.109694 v 10.345208 15.531042 h -37.57083 c -21.66937,0 -22.25146,-29.712708 -0.18521,-29.712708 h 23.38917 c 0,-3.069167 -3.06917,-9.789584 -11.32417,-9.789584 H 638.3602 v -8.625416 h 30.10958 c 11.50938,0.185208 21.08729,6.323541 21.08729,22.251458 z m -14.36687,4.60375 h -19.3675 c -7.85812,0 -7.67292,11.694583 0,11.694583 h 19.3675 v -5.953125 z m -169.91541,21.2725 H 491.64874 V 33.858236 h 13.62605 v 0 h 21.48416 c 24.34167,0 26.64354,24.341666 7.09083,29.157083 L 549.19562,82.19761 H 533.2677 L 520.99104,63.967819 h -15.53105 z m 0,-27.040417 h 19.5527 c 8.62542,0 8.81063,-12.647083 0,-12.647083 h -19.5527 z M 972.97874,33.858236 h -37.01521 -13.41437 v 48.127708 h 13.41437 v -39.6875 h 14.57854 v 39.6875 h 12.46188 v -39.6875 h 3.83645 c 6.72042,0 12.64709,3.069167 12.64709,10.927292 v 28.760208 h 13.41437 V 50.923861 C 993.11353,39.229278 986.2079,33.858236 972.97874,33.858236 Z m 26.82875,1.349375 h 2.48711 v 6.50875 h 1.7198 v -6.50875 h 2.487 v -1.349375 h -6.72037 z m 13.44081,-1.534583 -1.3494,6.323541 v 0 l -1.5345,-6.323541 h -2.4871 v 8.043333 h 1.5346 v -6.720417 0 l 1.5345,6.720417 h 1.7198 l 1.5346,-6.720417 v 0 6.720417 h 1.5346 v -8.043333 z"
     id="path1"
     style="stroke-width:0.264583;fill:#ffffff" />
</svg>
