<svg xmlns="http://www.w3.org/2000/svg" width="1924.699" height="277.256">
    <path style="font-size:40px;font-style:normal;font-variant:normal;font-weight:400;font-stretch:normal;text-align:center;line-height:125%;letter-spacing:0;word-spacing:0;writing-mode:lr-tb;text-anchor:middle;fill:red;fill-opacity:1;stroke:#000;stroke-opacity:1;font-family:Zeroes One;-inkscape-font-specification:Zeroes One" d="M262.074 994.086c0 16.49-5.004 29.806-15.01 39.95-10.008 10.143-23.528 15.214-40.563 15.214H9.353v-55.164H206.5V938.91H59.651c-16.225 0-29.41-5.138-39.553-15.413C9.955 913.22 4.884 899.97 4.884 883.746v-55.587c0-7.84 1.487-15.14 4.462-21.9 2.976-6.759 6.964-12.573 11.966-17.443 5.001-4.869 10.815-8.724 17.443-11.562 6.627-2.84 13.593-4.259 20.897-4.26h183.766v55.165H59.652v55.586h146.85c7.84 0 15.142 1.419 21.905 4.258 6.764 2.84 12.646 6.692 17.648 11.557 5 4.866 8.921 10.68 11.76 17.443 2.84 6.764 4.259 14.066 4.26 21.906zM582.563 1049.25H361.484c-36.785 0-55.177-18.388-55.177-55.164V828.16c0-7.84 1.488-15.14 4.463-21.9 2.975-6.759 6.966-12.573 11.971-17.443 5.006-4.869 10.82-8.724 17.444-11.562 6.623-2.84 13.723-4.259 21.3-4.26H573.24v55.165H361.484v165.927H526.99V938.91H417.057v-55.164h165.506zM790.123 938.909H624.605v-55.164h165.518zM982.27 1049.25H816.752v-55.164h55.573V828.16h-55.573v-55.165h110.75v221.092h54.768z" transform="translate(-4.384 -772.494)"/>
    <path style="font-size:40px;font-style:normal;font-variant:normal;font-weight:400;font-stretch:normal;text-align:center;line-height:125%;letter-spacing:0;word-spacing:0;writing-mode:lr-tb;text-anchor:middle;fill:red;fill-opacity:1;stroke:#000;stroke-opacity:1;font-family:Zeroes One;-inkscape-font-specification:Zeroes One" d="M1069.656.5c-7.296.001-14.247 1.41-20.875 4.25-6.627 2.839-12.436 6.694-17.437 11.563-5.002 4.87-8.994 10.678-11.969 17.437-2.975 6.76-4.469 14.066-4.469 21.906v165.938c0 36.776 18.246 55.156 54.75 55.156h165.532c36.775 0 55.155-18.38 55.156-55.156V55.656c0-7.567-1.411-14.71-4.25-21.468-2.84-6.76-6.75-12.65-11.75-17.657-5.002-5.005-10.893-8.942-17.657-11.781-6.763-2.84-13.932-4.249-21.5-4.25h-165.53zm0 55.156h165.532v165.938h-165.532V55.656zM1386.594.5c-7.296.001-14.248 1.41-20.875 4.25-6.628 2.839-12.436 6.694-17.438 11.563-5.001 4.87-8.993 10.678-11.968 17.437-2.976 6.76-4.47 14.066-4.47 21.906v165.938c0 36.776 18.247 55.156 54.75 55.156h165.532c36.776 0 55.156-18.38 55.156-55.156V55.656c0-7.567-1.411-14.71-4.25-21.468-2.84-6.76-6.78-12.65-11.781-17.657-5.002-5.005-10.893-8.942-17.656-11.781-6.764-2.84-13.901-4.249-21.469-4.25h-165.531zm0 55.156h165.531v165.938h-165.531V55.656zM1703.531.5c-7.296.001-14.279 1.41-20.906 4.25-6.627 2.839-12.436 6.694-17.438 11.563-5 4.87-8.993 10.678-11.968 17.437-2.976 6.76-4.469 14.066-4.469 21.906v165.938c0 36.776 18.277 55.156 54.781 55.156h165.5c36.776 0 55.156-18.38 55.157-55.156V55.656c0-7.567-1.412-14.71-4.25-21.468-2.84-6.76-6.75-12.65-11.75-17.657-5.002-5.005-10.893-8.942-17.657-11.781-6.763-2.84-13.932-4.249-21.5-4.25h-165.5zm0 55.156h165.5v165.938h-165.5V55.656z"/>
</svg>
