<?xml version="1.0" encoding="UTF-8" standalone="no"?>
<!-- Created with Inkscape (http://www.inkscape.org/) -->

<svg
   width="1015.7354mm"
   height="259.42395mm"
   viewBox="0 0 1015.7354 259.42395"
   version="1.1"
   id="svg1"
   inkscape:version="1.4 (86a8ad7, 2024-10-11)"
   sodipodi:docname="sg-1000.svg"
   xmlns:inkscape="http://www.inkscape.org/namespaces/inkscape"
   xmlns:sodipodi="http://sodipodi.sourceforge.net/DTD/sodipodi-0.dtd"
   xmlns="http://www.w3.org/2000/svg"
   xmlns:svg="http://www.w3.org/2000/svg">
  <sodipodi:namedview
     id="namedview1"
     pagecolor="#ffffff"
     bordercolor="#000000"
     borderopacity="0.25"
     inkscape:showpageshadow="2"
     inkscape:pageopacity="0.0"
     inkscape:pagecheckerboard="0"
     inkscape:deskcolor="#d1d1d1"
     inkscape:document-units="mm"
     inkscape:zoom="0.41179679"
     inkscape:cx="1913.5652"
     inkscape:cy="797.72356"
     inkscape:window-width="3840"
     inkscape:window-height="2066"
     inkscape:window-x="-11"
     inkscape:window-y="-11"
     inkscape:window-maximized="1"
     inkscape:current-layer="svg1" />
  <defs
     id="defs1">
						
						
						
						
						
						
						
						
					
					
				
					
					
					
					
					
					
					
				
			
			
		
		
	
	
</defs>
  <g
     id="g10"
     transform="scale(0.26458333)">
				<path
   class="st1"
   d="m 1359.2,278.5 47.6,0.1 c 3.6,0 6.7,2.9 6.7,6.7 0,3.7 -3.1,6.6 -6.7,6.6 l -183.9,0.1 0.1,57.5 h 184.2 c 35.7,0 64.5,-28.8 64.5,-64.3 0,-35.5 -28.8,-64.3 -64.5,-64.3 l -48,-0.5 c -43.1,0 -78,-34.9 -78,-77.9 0,-42.9 35,-77.8 78,-77.8 h 183.9 L 1543,6.8 h -183.8 c -75.3,0 -136.4,60.8 -136.4,135.9 0,75 61.1,135.8 136.4,135.8 z"
   id="path1"
   style="fill:#034693" />
<path
   class="st1"
   d="m 1713.3,135.8 h 169.3 V 78 h -196.5 c -24.4,0 -44,19.8 -44,44.1 l -0.1,84.8 h 198.8 v -57.6 h -141.3 c 0,0 0.2,-13.5 13.8,-13.5 z"
   id="path2"
   style="fill:#034693" />
<path
   class="st1"
   d="M 1359.2,135.7 H 1543 l 0.1,-57.7 h -183.9 c -35.6,0 -64.5,28.9 -64.5,64.4 0,35.5 28.9,64.3 64.5,64.3 l 48,0.6 c 43.2,0 78.1,34.8 78.1,77.8 0,43 -34.9,77.9 -78.1,77.9 H 1223 l -0.1,58.3 184.1,-0.3 c 75.3,0 136.4,-60.9 136.4,-135.9 0,-75.1 -61.1,-136 -136.4,-136 l -47.8,0.3 c -3.8,0 -6.8,-3.1 -6.8,-6.9 0,-3.8 3,-6.8 6.8,-6.8 z"
   id="path3"
   style="fill:#034693" />
<path
   class="st1"
   d="M 1840.8,220.6 H 1642 v 84.8 c 0,24.3 19.8,43.9 44.1,43.9 l 195.7,-0.1 v -57.4 h -168.5 c 0,0 -13.6,-0.1 -13.8,-13.6 h 141.3 z"
   id="path4"
   style="fill:#034693" />
<path
   class="st1"
   d="M 2517.3,350 2424.9,77 c -1.9,-5.4 -6.1,-9.7 -11.6,-11.6 -9.8,-3.4 -20.6,1.7 -24,11.6 l -116.9,343.7 h 68.2 l 41.4,-122.1 -0.1,51.3 z M 2407,225.4 l 20.4,60.5 h -40.9 z"
   id="path5"
   style="fill:#034693" />
<path
   class="st1"
   d="m 2047.2,135.5 h 163.4 l -0.1,-57.6 h -190.4 c -24.4,0 -44.1,19.8 -44.1,44.1 v 183.3 0 c 0,24.4 19.8,44.3 44.1,44.3 H 2139 V 220.5 h -92 v 57.8 h 34.1 l 0.1,13.6 h -34 c -7.4,0 -13.5,-6.1 -13.5,-13.6 l -0.3,-129 c 0.1,-0.1 0.1,-13.5 13.8,-13.8 z"
   id="path6"
   style="fill:#034693" />
<path
   class="st1"
   d="m 2020.2,420.8 190.4,0.1 v 0 h 47.6 L 2377.3,71 c 5,-12 16.7,-19.8 29.7,-19.8 13,0 24.6,7.8 29.7,19.7 L 2536,363.3 H 2382.3 V 421 h 233.9 L 2494.4,61 C 2483.8,25.8 2448.6,0 2407,0 c -41.7,0 -76.7,25.7 -87.4,60.8 L 2210.4,380.9 V 149.3 h -163.6 v 57.6 h 105.8 v 156.4 h -132.4 c -31.8,0 -57.8,-25.9 -57.8,-57.8 V 122.1 c 0,-31.9 25.8,-57.6 57.7,-57.6 h 190.4 V 6.7 h -190.9 c -63.9,0 -115.7,51.6 -115.7,115.4 v 183.3 c 0.1,63.7 52.3,115.4 116.3,115.4 z"
   id="path7"
   style="fill:#034693" />
<path
   class="st1"
   d="m 1686,420.8 195.7,0.1 v -57.6 l -195.7,0.1 c -31.9,0 -58.1,-25.5 -58.1,-58 v -184 c 0,-31.3 26.2,-57 58.1,-57 h 196.5 V 6.7 H 1686 c -64,0 -115.8,51.6 -115.8,115.4 v 183.3 c 0.2,63.7 51.9,115.4 115.8,115.4 z"
   id="path8"
   style="fill:#034693" />

			</g>
  <g
     id="g15"
     transform="scale(0.26458333)">
				<rect
   x="1232"
   y="728.79999"
   class="st4"
   width="179.10001"
   height="78.099998"
   id="rect10"
   style="fill:#ff0000" />
<polygon
   class="st4"
   points="1487.4,902.4 1487.4,980.4 1830.6,980.4 1830.6,902.4 1713.1,902.4 1713.1,628 1713.1,549.9 1515.2,549.9 1515.2,628 1616.4,628 1616.4,902.4 "
   id="polygon10"
   style="fill:#ff0000" />
<path
   class="st4"
   d="M 716,902.4 V 628 h 468.4 V 549.9 H 685.8 c -36.8,0 -66.6,29.8 -66.6,66.6 v 297.4 c 0,36.8 29.8,66.6 66.6,66.6 h 498.6 V 728.8 H 881 v 78.1 h 206.7 v 95.5 z"
   id="path10"
   style="fill:#ff0000" />
<path
   class="st4"
   d="m 1884.7,616.5 v 297.4 c 0,36.8 29.8,66.6 66.6,66.6 h 482.2 c 36.8,0 66.6,-29.8 66.6,-66.6 V 616.5 c 0,-36.8 -29.8,-66.6 -66.6,-66.6 h -482.2 c -36.8,0 -66.6,29.8 -66.6,66.6 z m 96.8,285.9 V 628 h 421.8 v 274.4 z"
   id="path11"
   style="fill:#ff0000" />
<path
   class="st4"
   d="m 2554.1,616.5 v 297.4 c 0,36.8 29.8,66.6 66.6,66.6 h 482.2 c 36.8,0 66.6,-29.8 66.6,-66.6 V 616.5 c 0,-36.8 -29.8,-66.6 -66.6,-66.6 h -482.2 c -36.8,0 -66.6,29.8 -66.6,66.6 z m 96.8,285.9 V 628 h 421.8 v 274.4 z"
   id="path12"
   style="fill:#ff0000" />
<path
   class="st4"
   d="m 3223.6,616.5 v 297.4 c 0,36.8 29.8,66.6 66.6,66.6 h 482.2 c 36.8,0 66.6,-29.8 66.6,-66.6 V 616.5 c 0,-36.8 -29.8,-66.6 -66.6,-66.6 h -482.2 c -36.8,0 -66.6,29.8 -66.6,66.6 z m 96.8,285.9 V 628 h 421.8 v 274.4 z"
   id="path13"
   style="fill:#ff0000" />
<path
   class="st4"
   d="M 498.6,728.8 H 96.8 V 628 H 565.2 V 549.9 H 66.6 C 29.8,549.9 0,579.7 0,616.5 v 123.8 c 0,36.8 29.8,66.6 66.6,66.6 h 401.8 v 95.5 H 0 v 78.1 h 498.6 c 36.8,0 66.6,-29.8 66.6,-66.6 V 795.4 c 0,-36.7 -29.9,-66.6 -66.6,-66.6 z"
   id="path14"
   style="fill:#ff0000" />

			</g>
</svg>
