<!-- Created by ERK --><svg xmlns="http://www.w3.org/2000/svg" width="3839" height="1014.608" viewBox="0 0 1015.735 268.448"><g style="display:inline"><g style="display:inline"><path d="M2760 123.3C2737.4 51.4 2669.4 0 2591.4 0c-78.1 0-145.9 51.4-168.6 123.3l-59.6 176.8V10.2h-312.3c-55.5 0-106.8 22.6-145.9 59.6V10.2h-320.6c-59.6 0-113 24.7-152.1 65.8V10.2h-304.1c-129.5 0-236.3 106.8-236.3 236.3 0 61.7 24.7 119.2 63.7 160.4h-63.7v275.4H1196c86.2 0 160.3-45.3 203.4-115.1 35 67.7 104.8 115.1 187 115.1h322.7v-59.6c37 37 88.3 59.6 145.9 59.6h892z" class="st0" style="display:inline;fill:#fff" transform="translate(145.35)scale(.18977)"/></g><g style="display:inline"><path d="M1320.952-835.583c-59.5 0-108.9 39-123.3 92.5L1047.75-303.284v-322.7h-226.1v80.1h148v217.8h-185c-45.3 0-80.1-37-80.1-80.1v-256.9c0-45.3 37-80.1 80.1-80.1h265.1v-80h-267.2c-88.3 0-160.3 72-160.3 160.3v256.9c0 88.3 72 160.3 160.3 160.3h330.801l166.5-482.9c6.2-18.5 22.6-30.8 43.2-30.8s36.999 12.3 43.199 30.8l135.7 402.8h-213.7v79.9h324.7l-166.7-493.2c-16.4-53.4-65.8-94.5-125.3-94.5m-1461.2 10.3c-104.8 0-189 84.3-189 189s84.3 189 189 189h65.8c6.2 0 10.2 4.1 10.2 10.2.1 6.2-4.1 10.4-8.3 10.4h-256.7v80.1h256.8c49.2 0 90.4-41.2 90.4-90.4s-41.2-90.4-90.4-90.4h-65.8c-59.6 0-108.899-49.2-108.899-108.9s49.299-108.9 108.899-108.9h254.9v-80.1zm456.3 0c-88.3 0-160.3 72-160.3 160.3v256.9c0 88.3 72 160.3 160.3 160.3h275.301v-80.1h-275.3c-45.3 0-80.1-37-80.1-80.1v-257c0-45.3 37-80.1 80.1-80.1h275.3v-80.2zm1006.801 82.1c-10.2 0-20.6 8.3-24.7 16.4l-164.401 478.9h94.5l57.601-170.5v72l2.1-.1h187l-127.4-378.2c-4.1-10.2-12.3-18.5-24.7-18.5m-1463.101 16.5c-49.2 0-90.399 41.2-90.399 90.4s41.199 90.4 90.399 90.4h65.8c59.6 0 108.9 49.2 108.9 108.9s-49.2 108.9-108.9 108.9h-254.8v80.1h256.8c104.8 0 189-84.3 189-189s-84.3-189-189-189h-65.8c-6.2 0-10.2-4.1-10.2-10.2-.1-4.2 4.1-8.3 8.2-8.3h256.9v-82.2zm456.2 0c-35 0-61.7 26.8-61.7 61.7v119.2h279.5v-80.2h-199.2c0-10.2 8.3-18.5 18.5-18.5h236.301v-82.2zm466.5 0c-35 0-61.7 26.8-61.7 61.7v256.9c0 35 26.8 61.7 61.7 61.7h166.5v-181h-127.4v80.1h47.301v18.5h-47.3c-10.2 0-18.5-8.3-18.5-18.5v-180.7c0-10.2 8.3-18.5 18.5-18.5h228.1v-80.1zm-528.099 201.4v119.2c0 35 26.8 61.7 61.7 61.7h275.3v-80.2h-238.4c-10.3-2.1-18.4-10.3-18.4-20.6h199.3v-80.1zm1066.6 6.2 26.799 82.2h-55.5z" class="st1" style="display:inline;fill:#034693" transform="translate(386.064 167.545)scale(.18977)"/></g></g><path d="M498.6 728.8H96.8V628h468.4v-78.1H66.6C29.8 549.9 0 579.7 0 616.5v123.8c0 36.8 29.8 66.6 66.6 66.6h401.8v95.5H0v78.1h498.6c36.8 0 66.6-29.8 66.6-66.6V795.4c0-36.7-29.9-66.6-66.6-66.6M716 902.4V628h468.4v-78.1H685.8c-36.8 0-66.6 29.8-66.6 66.6v297.4c0 36.8 29.8 66.6 66.6 66.6h498.6V728.8H881v78.1h206.7v95.5zm516-173.6h179.1v78.1H1232zm283.2-178.9V628h101.2v274.4h-129v78h343.2v-78h-117.5V549.9Zm369.5 66.6v297.4c0 36.8 29.8 66.6 66.6 66.6h482.2c36.8 0 66.6-29.8 66.6-66.6V616.5c0-36.8-29.8-66.6-66.6-66.6h-482.2c-36.8 0-66.6 29.8-66.6 66.6m96.8 285.9V628h421.8v274.4zm572.6-285.9v297.4c0 36.8 29.8 66.6 66.6 66.6h482.2c36.8 0 66.6-29.8 66.6-66.6V616.5c0-36.8-29.8-66.6-66.6-66.6h-482.2c-36.8 0-66.6 29.8-66.6 66.6m96.8 285.9V628h421.8v274.4zm572.7-285.9v297.4c0 36.8 29.8 66.6 66.6 66.6h482.2c36.8 0 66.6-29.8 66.6-66.6V616.5c0-36.8-29.8-66.6-66.6-66.6h-482.2c-36.8 0-66.6 29.8-66.6 66.6m96.8 285.9V628h421.8v274.4z" class="st4" style="fill:red" transform="translate(0 9.024)scale(.26458)"/></svg>