<?xml version="1.0" encoding="UTF-8" standalone="no"?>
<svg
   viewBox="-236.252 381.062 703.18175 98.530552"
   version="1.1"
   id="svg4"
   sodipodi:docname="snes_new.svg"
   inkscape:version="1.3.2 (091e20e, 2023-11-25, custom)"
   width="703.18176"
   height="98.530548"
   xmlns:inkscape="http://www.inkscape.org/namespaces/inkscape"
   xmlns:sodipodi="http://sodipodi.sourceforge.net/DTD/sodipodi-0.dtd"
   xmlns="http://www.w3.org/2000/svg"
   xmlns:svg="http://www.w3.org/2000/svg">
  <defs
     id="defs4" />
  <sodipodi:namedview
     id="namedview4"
     pagecolor="#505050"
     bordercolor="#eeeeee"
     borderopacity="1"
     inkscape:showpageshadow="0"
     inkscape:pageopacity="0"
     inkscape:pagecheckerboard="0"
     inkscape:deskcolor="#505050"
     inkscape:zoom="2.4948425"
     inkscape:cx="506.04398"
     inkscape:cy="-28.258297"
     inkscape:window-width="2560"
     inkscape:window-height="1351"
     inkscape:window-x="-9"
     inkscape:window-y="-9"
     inkscape:window-maximized="1"
     inkscape:current-layer="svg4" />
  <ellipse
     cx="-211.17599"
     cy="440.33755"
     rx="25.076"
     ry="11.212"
     fill="#007544"
     id="ellipse1" />
  <path
     d="m -141.211,458.90655 c 0,6.192 -11.227,11.212 -25.076,11.212 -13.849,0 -25.076,-5.02 -25.076,-11.212 0,-6.192 11.227,-11.211 25.076,-11.211 13.85,0 25.076,5.019 25.076,11.211 z"
     fill="#fed01b"
     id="path1" />
  <path
     d="m -138.193,451.54955 c -3.018,-12.557 -13.963,-26.431 -28.094,-20.4 11.506,-26.541 33.221,-22.319 40.761,-13.27 5.873,7.046 5.732,31.146 -12.667,33.67 z"
     fill="#ba2318"
     id="path2" />
  <path
     d="m -182.386,431.24755 c -3.019,-12.557 -13.963,-26.431 -28.094,-20.4 11.506,-26.541 33.222,-22.319 40.761,-13.27 5.872,7.047 5.73,31.146 -12.667,33.67 z"
     fill="#0a2a8d"
     id="path3" />
  <path
     d="m -88.773998,381.16955 c -3.73,0 -7.355,3.089 -8.021,6.917 v 0.206 l -0.068,0.068 v 0.206 l -0.068,0.137 v 0.137 l -0.068,0.137 v 0.205 l -0.068,0.137 v 0.206 l -0.068,0.205 -0.068,0.206 -0.068,0.41 -0.136,0.48 -0.068,0.479 -0.136,0.48 -0.068,0.547 -0.136,0.548 -0.136,0.617 -0.136,0.548 -0.204,1.164 -0.136,0.616 -0.136,0.548 -0.068,0.548 -0.136,0.548 -0.135,0.548 -0.068,0.548 -0.068,0.479 -0.136,0.411 -0.068,0.479 v 0.206 l -0.068,0.137 v 0.342 l -0.068,0.206 v 0.273 l -0.068,0.137 v 0.137 c -0.071,1.674 0.161,3.96 0.679,4.384 0.659,3.688 12.858,20.757 12.507,23.356 -0.33,2.607 -1.768,10.274 -1.768,10.274 -0.442,2.586 -2.192,4.658 -4.758,4.658 -2.566,0 -4.316,-2.065 -3.875,-4.658 l 2.311,-12.74 H -103.458 l -3.059,17.671 c -0.624,3.589 1.788,6.438 5.37,6.438 h 12.982002 c 3.596,0 7.022,-2.849 7.681,-6.438 0,0 3.345,-16.506 3.33,-17.671 -0.014,-1.172 -0.34,-1.301 -0.34,-1.301 0,-1.342 -10.855,-19.397 -11.963,-20.068 -0.477,-0.283 -0.87,-2.07 -0.883,-3.15 -0.021,-1.074 1.427,-8.288 1.427,-8.288 0.442,-2.585 2.872,-4.658 5.437,-4.658 2.566,0 3.637,2.072 3.195,4.658 l -1.971,11.438 h 9.177 l 3.194,-17.192 c 0.722,-3.829 -1.708,-6.917 -5.437,-6.917 h -13.456 z m 25.013,0 -10.876,63.15 c -0.624,3.589 1.788,6.438 5.37,6.438 h 12.982 c 3.596,0 7.083,-2.849 7.749,-6.438 l 11.623,-63.15 h -8.157 l -11.08,61.369 c -0.161,0.89 -1.02,1.644 -1.903,1.644 h -6.457 c -0.905,0 -1.507,-0.747 -1.36,-1.644 l 10.808,-61.369 z m 31.268,0 -13.119,69.588 h 8.7 l 5.982,-31.506 h 11.08 c 3.603,0 7.022,-2.871 7.68,-6.439 l 4.7580002,-24.726 c 0.715,-3.836 -1.708,-6.917 -5.4370002,-6.917 z m 31.0630002,0 -13.5950002,69.588 H 4.5510022 l 1.36,-8.63 h -9.652 l 3.94199997,-23.493 H 9.8530022 l 1.3599998,-7.26 H 1.5610022 l 4.283,-21.575 h 9.6519998 l 1.36,-8.63 z m 23.3819998,0 -13.0499998,69.588 h 8.6999998 l 5.914,-31.506 h 6.185 c 0.813,0.762 0.907,2.17 1.019,2.876 0.161,1.024 0.33,2.332 0.204,3.356 -0.112,1.017 -4.758,25.273 -4.758,25.273 h 8.7 c 0,0 4.894,-26.425 4.894,-26.849 0.014,-0.431 10e-4,-1.786 -0.476,-2.534 -0.316,-0.48 -0.865,-1.584 -1.496,-1.986 -1.213,-0.784 -2.583,-1.301 -2.583,-1.301 h -0.612 c 2.489,-0.989 7.184,-2.618 7.681,-5.274 l 4.758,-24.726 c 0.722,-3.836 -1.708,-6.917 -5.438,-6.917 z m 46.562,0 -13.119,69.588 h 9.992 l 8.088,-40.342 3.195,40.342 h 8.701 l 13.119,-69.588 h -9.992 l -6.797,36.369 -4.486,-36.369 z m 34.529998,0 -13.118998,69.588 h 8.7 l 13.117998,-69.588 z m 13.254,0 -13.118,69.588 h 10.06 l 8.088,-40.342 3.195,40.342 h 8.7 l 13.118,-69.588 h -10.06 l -6.729,36.369 -4.486,-36.369 z m 33.715,0 -1.632,8.63 h 5.438 l -10.74,60.958 h 9.924 l 10.944,-60.958 h 5.234 l 1.36,-8.63 z m 23.926,0 -13.595,69.588 h 19.576 l 1.359,-8.63 h -9.652 l 4.01,-23.493 h 9.652 l 1.36,-7.26 h -9.652 l 4.214,-21.575 h 9.652 l 1.359,-8.63 z m 22.091,0 -13.119,69.588 h 10.06 l 8.088,-40.342 3.195,40.342 h 8.701 l 13.118,-69.588 h -10.06 l -6.729,36.369 -4.486,-36.369 z m 34.598,0 -13.119,69.588 h 19.848 c 3.603,0 7.083,-2.849 7.749,-6.438 l 10.536,-56.233 c 0.715,-3.836 -1.708,-6.917 -5.438,-6.917 z m 37.317,0 c -3.73,0 -7.287,3.089 -7.953,6.917 l -9.72,56.233 c -0.631,3.589 1.726,6.438 5.301,6.438 h 14.343 c 3.596,0 7.083,-2.849 7.749,-6.438 l 10.536,-56.233 c 0.722,-3.829 -1.715,-6.917 -5.438,-6.917 z m -29.908,8.013 h 4.01 c 2.566,0 4.316,2.072 3.875,4.658 l -8.565,45.548 c -0.449,2.586 -2.94,4.726 -5.506,4.726 h -3.942 z m 35.006,0 h 0.272 c 2.566,0 4.248,2.072 3.806,4.658 l -8.157,45.548 c -0.442,2.578 -2.804,4.726 -5.37,4.726 -2.566,0 -3.637,-2.141 -3.195,-4.726 l 8.088,-45.548 0.068,-0.205 0.068,-0.206 0.068,-0.274 0.068,-0.205 0.068,-0.274 0.068,-0.206 0.068,-0.205 0.136,-0.205 0.068,-0.206 0.136,-0.205 0.068,-0.206 0.136,-0.205 0.136,-0.137 0.136,-0.206 0.136,-0.205 0.204,-0.137 0.136,-0.137 0.136,-0.137 0.204,-0.137 0.204,-0.137 0.136,-0.137 0.204,-0.137 0.204,-0.068 0.204,-0.137 0.136,-0.069 0.272,-0.068 0.204,-0.069 h 0.204 l 0.204,-0.068 h 0.272 z m -297.175998,0.274 h 4.214 c 0.925,0 2.887,2.135 2.719,3.082 l -3.603,17.191 c -0.168,0.89 -1.36,2.945 -2.243,2.945 h -5.234 l -0.068,-0.068 h -0.272 v -0.069 h -0.136 l -0.068,-0.068 h -0.068 l -0.068,-0.069 -0.068,-0.068 h -0.068 v -0.069 l -0.068,-0.068 -0.068,-0.069 v -0.068 l -0.068,-0.069 -0.068,-0.068 v -0.137 l -0.068,-0.068 v -0.137 l -0.068,-0.069 v -0.068 c 0,-0.113 -0.014,-0.284 0,-0.411 l 4.078,-21.027 c 0.374,-0.311 0.831,-0.548 1.293,-0.548 z m 54.174,0 h 4.214 c 0.925,0 2.901,2.135 2.719,3.082 l -3.602,17.123 c -0.161,0.897 -2.373,3.013 -3.263,3.013 h -3.738 c -0.771,0 -1.303,-0.512 -1.36,-1.232 0,-0.113 -0.014,-0.277 0,-0.411 l 4.011,-21.027 0.068,-0.068 0.068,-0.069 0.136,-0.068 h 0.068 l 0.068,-0.069 0.068,-0.068 h 0.068 l 0.068,-0.069 h 0.068 l 0.136,-0.068 h 0.204 v -0.069 z m -138.120002,67.328 v 22.808 H 289.92 v -22.808 z m 290.635,2.398 h 3.396 c 0.822,0 1.412,0.651 1.247,1.507 l -0.762,3.836 h -1.871 l 0.416,-2.534 c 0.093,-0.573 -0.246,-1.027 -0.832,-1.027 -0.579,0 -1.147,0.451 -1.247,1.027 l -0.346,1.849 c -0.057,0.11 0.115,0.63 0.208,0.685 0.257,0.146 2.702,4.154 2.702,4.452 0.057,0.149 0.091,0.219 0.07,0.274 -0.072,0.502 -0.763,3.904 -0.763,3.904 -0.15,0.781 -0.918,1.438 -1.732,1.438 h -2.91 c -0.808,0 -1.328,-0.657 -1.178,-1.438 l 0.692,-3.904 h 2.009 l -0.485,2.808 c -0.093,0.573 0.246,1.096 0.832,1.096 0.557,0 1.154,-0.52 1.247,-1.096 l 0.415,-2.26 c -0.371,-0.946 -2.822,-4.386 -2.979,-5.206 -0.108,-0.091 -0.153,-0.586 -0.139,-0.959 0.021,-0.408 0.554,-2.945 0.554,-2.945 h 0.069 v -0.206 l 0.07,-0.137 v -0.068 l 0.069,-0.069 v -0.068 l 0.069,-0.069 v -0.068 l 0.07,-0.069 0.069,-0.068 v -0.069 h 0.07 l 0.069,-0.068 0.07,-0.069 0.069,-0.068 v -0.069 h 0.07 l 0.069,-0.068 0.07,-0.069 h 0.069 l 0.07,-0.068 h 0.069 l 0.07,-0.068 h 0.208 z m 15.936,0 h 2.494 l 0.347,5.822 3.187,-5.822 h 2.495 l -5.128,8.904 -1.247,6.507 h -2.217 l 1.108,-6.986 z m 22.658,0 h 3.397 c 0.822,0 1.397,0.651 1.247,1.507 l -0.762,3.836 h -1.871 l 0.416,-2.534 c 0.093,-0.573 -0.245,-1.027 -0.831,-1.027 -0.579,0 -1.154,0.451 -1.247,1.027 l -0.347,1.849 c -0.071,0.11 0.094,0.63 0.208,0.685 0.243,0.146 2.702,4.154 2.702,4.452 0.071,0.149 0.069,0.219 0.069,0.274 -0.093,0.502 -0.693,3.904 -0.693,3.904 -0.15,0.781 -0.925,1.438 -1.732,1.438 h -2.98 c -0.807,0 -1.327,-0.657 -1.178,-1.438 l 0.693,-3.904 h 2.009 l -0.485,2.808 c -0.093,0.573 0.267,1.096 0.831,1.096 0.579,0 1.133,-0.52 1.247,-1.096 l 0.416,-2.26 c -0.378,-0.946 -2.822,-4.386 -2.979,-5.206 -0.107,-0.091 -0.153,-0.586 -0.139,-0.959 0.022,-0.408 0.554,-2.945 0.554,-2.945 l 0.07,-0.069 v -0.137 l 0.069,-0.137 v -0.068 l 0.07,-0.069 v -0.068 l 0.069,-0.069 v -0.068 l 0.07,-0.069 0.069,-0.068 v -0.069 h 0.07 l 0.069,-0.068 0.07,-0.069 0.069,-0.068 0.07,-0.069 0.069,-0.068 0.069,-0.069 h 0.07 l 0.069,-0.068 h 0.07 l 0.069,-0.068 h 0.209 z m 16.145,0 h 4.643 l -0.347,1.849 h -1.178 l -2.425,13.562 h -2.287 l 2.425,-13.562 h -1.178 z m 18.153,0 h 4.157 l -0.346,1.849 h -2.148 l -0.97,4.863 h 2.217 l -0.346,1.576 h -2.148 l -0.901,5.205 h 2.148 l -0.277,1.918 h -4.435 z m 17.115,0 h 2.564 l 0.416,8.904 3.949,-8.835 2.494,-0.069 -2.633,15.411 h -1.94 l 1.247,-8.151 -3.464,8.151 h -1.386 l -0.416,-8.356 -1.524,8.356 h -2.287 z m -372.153998,0.548 h 4.088 l -0.277,1.917 h -2.218 l -0.901,4.795 h 2.148 l -0.277,1.644 h -2.217 l -0.832002,5.206 h 2.148002 l -0.347,1.917 H -102.711 Z m 19.124,0 h 1.94 l 1.04,8.082 1.524,-8.082 h 2.287 l -2.98,15.479 h -1.94 l -0.762,-8.972 -1.802,8.972 h -2.287 z m 20.787,0 h 4.573 l -0.277,1.917 h -1.178 l -2.495,13.562 h -2.217 l 2.425,-13.562 h -1.247 z m 20.163,0 h 4.157 l -0.346,1.917 h -2.148 l -0.97,4.795 h 2.148 l -0.277,1.644 h -2.148 l -0.901,5.206 h 2.148 l -0.277,1.917 h -4.435 z m 19.54,0 h 4.435 c 0.822,0 1.342,0.72 1.178,1.575 l -1.04,5.48 c -0.114,0.593 -1.167,1.078 -1.732,1.301 h 0.278 v 0.068 h 0.278 l 0.07,0.069 h 0.208 v 0.068 h 0.139 v 0.069 h 0.07 c 0.092,0.166 0.139,0.66 0.139,0.753 0,0.091 -1.109,6.096 -1.109,6.096 h -2.009 c 0,0 1.073,-5.392 1.109,-5.616 0.021,-0.24 -0.027,-0.53 -0.07,-0.754 -0.014,-0.165 -0.022,-0.448 -0.208,-0.616 h -1.386 l -1.316,6.986 h -2.009 z m 19.81700017,0 H 4.4820022 l -0.277,1.917 h -1.178 l -2.49400003,13.562 H -1.6849978 l 2.42499997,-13.562 h -1.247 z m 23.07299983,0 h 2.633 l -0.832,15.479 h -2.633 l 0.347,-3.561 h -1.594 l -1.317,3.561 h -2.356 z m 18.431,0 h 2.009 l -2.98,15.479 h -1.94 z m 17.877,0 h 1.94 l 1.04,8.082 1.524,-8.082 h 2.218 l -2.91,15.479 h -2.009 l -0.693,-8.972 -1.802,8.972 h -2.288 z m 22.934,0 h 2.564 l 0.416,8.972 3.95,-8.904 h 2.494 l -2.633,15.411 h -1.94 l 1.247,-8.15 -3.464,8.15 h -1.386 l -0.416,-8.356 -1.525,8.356 h -2.217 z m 25.152998,0 h 4.088 l -0.277,1.917 h -2.218 l -0.9,4.795 h 2.148 l -0.277,1.644 h -2.218 l -0.901,5.206 h 2.218 l -0.347,1.917 h -4.365 z m 20.093,0 h 1.94 l 1.039,8.082 1.525,-8.082 h 2.217 l -2.91,15.479 h -1.94 l -0.762,-8.972 -1.801,8.972 h -2.287 z m 20.579,0 h 4.643 l -0.347,1.917 h -1.178 l -2.425,13.562 h -2.218 l 2.425,-13.562 h -1.247 z m -166.085998,1.849 c -0.108,0 -0.199,0.063 -0.277,0.137 l -0.901,4.658 v 0.068 c 0,0.149 0.106,0.274 0.277,0.274 h 0.832 c 0.207,0 0.726,-0.412 0.762,-0.616 l 0.763,-3.836 c 0.036,-0.22 -0.347,-0.685 -0.554,-0.685 z m 41.019,4.657 -1.455,3.904 h 1.109 z M 287.252,446.66155 h -1.833 v 4.099 h -1.29 v -4.099 h -1.902 v -0.849 h 5.025 z m 6.79,4.099 h -1.291 v -4.02 l -1.118,4.02 h -1.291 l -1.119,-3.998 v 3.998 h -1.29 v -4.948 h 1.888 l 1.165,3.788 1.178,-3.788 h 1.878 z"
     fill="#e60012"
     id="path4" />
  <path
     d="M 300.80878,478.89258 318.54654,381.062 h 11.80244 q 5.32132,52.9404 5.32132,74.70327 0.68223,-19.23865 10.64266,-74.70327 h 11.80244 l -17.73777,97.83058 H 328.5752 q -5.25311,-52.73573 -5.25311,-72.92949 -0.68222,16.9191 -10.64266,72.92949 z M 366.30206,381.062 h 26.53842 l -1.91022,10.91555 h -14.73599 l -5.52599,31.04108 h 14.66776 l -2.04666,10.91555 h -14.59955 l -6.07177,34.04286 h 14.4631 l -1.97844,10.91554 h -26.53843 z m 32.40553,0 h 11.12021 l -2.86533,63.65128 20.19376,-63.65128 h 9.96043 l -2.86533,63.65128 20.19376,-63.65128 h 12.48466 l -31.72331,97.83058 h -12.41643 l 3.07,-58.94395 -19.9891,58.94395 h -12.41643 z"
     id="text4"
     style="font-size:139.719px;font-family:SNES;-inkscape-font-specification:SNES;fill:#e60012;fill-rule:evenodd;stroke-width:93.146"
     aria-label="NEW" />
</svg>
