<?xml version="1.0" encoding="UTF-8" standalone="no"?>
<!-- Created by ERK -->

<svg
   height="604.666"
   viewBox="0 0 993.65 159.985"
   width="3755.526"
   version="1.1"
   id="svg10"
   sodipodi:docname="snes-msu1-w.svg"
   inkscape:version="1.4 (86a8ad7, 2024-10-11)"
   xmlns:inkscape="http://www.inkscape.org/namespaces/inkscape"
   xmlns:sodipodi="http://sodipodi.sourceforge.net/DTD/sodipodi-0.dtd"
   xmlns="http://www.w3.org/2000/svg"
   xmlns:svg="http://www.w3.org/2000/svg">
  <defs
     id="defs14" />
  <sodipodi:namedview
     id="namedview12"
     pagecolor="#ffffff"
     bordercolor="#666666"
     borderopacity="1.0"
     inkscape:pageshadow="2"
     inkscape:pageopacity="0.0"
     inkscape:pagecheckerboard="true"
     showgrid="false"
     inkscape:zoom="0.54745358"
     inkscape:cx="1854.0385"
     inkscape:cy="278.56243"
     inkscape:window-width="3840"
     inkscape:window-height="2066"
     inkscape:window-x="-11"
     inkscape:window-y="-11"
     inkscape:window-maximized="1"
     inkscape:current-layer="svg10"
     inkscape:showpageshadow="0"
     inkscape:deskcolor="#d1d1d1" />
  <path
     d="M34.518 0c-7.216 0-14.231 5.932-15.52 13.284v.395l-.131.132v.395l-.132.263v.264l-.131.263v.395l-.132.263v.395l-.131.394-.132.395-.131.79-.263.92-.132.921-.263.921-.132 1.052-.262 1.052-.264 1.184-.263 1.052-.394 2.236-.263 1.184-.263 1.052-.132 1.052-.263 1.053-.263 1.052-.132 1.052-.131.92-.263.79-.132.92v.395l-.131.263v.658l-.132.395v.526l-.131.264v.263c-.136 3.215.311 7.604 1.315 8.418 1.275 7.08 24.879 39.858 24.2 44.85-.637 5.005-3.42 19.728-3.42 19.728-.854 4.965-4.241 8.944-9.206 8.944s-8.351-3.966-7.497-8.944l4.472-24.463H6.11L.19 121.27c-1.207 6.89 3.46 12.363 10.39 12.363h25.122c6.958 0 13.587-5.472 14.862-12.363 0 0 6.472-31.695 6.445-33.933-.028-2.252-.658-2.5-.658-2.5 0-2.577-21.005-37.247-23.148-38.536-.923-.542-1.683-3.975-1.71-6.05-.04-2.062 2.762-15.914 2.762-15.914.855-4.965 5.557-8.944 10.522-8.944s7.036 3.979 6.182 8.944l-3.815 21.964H64.9l6.182-33.012C72.479 5.937 67.776.006 60.56.006zm48.4 0L61.876 121.265c-1.207 6.891 3.459 12.364 10.39 12.364h25.122c6.958 0 13.705-5.473 14.993-12.364L134.871 0h-15.783L97.65 117.846c-.312 1.709-1.974 3.156-3.683 3.156H81.472c-1.75 0-2.915-1.434-2.63-3.156L99.754 0zm60.502 0-25.384 133.629h16.835l11.574-60.502h21.439c6.972 0 13.587-5.513 14.862-12.363l9.206-47.48C193.336 5.918 188.647 0 181.431 0h-21.176zm60.107 0-26.305 133.629H215.1l2.63-16.572h-18.676l7.628-45.113h18.677l2.63-13.942h-18.676l8.286-41.43h18.676L238.906 0zm45.244 0-25.253 133.629h16.835l11.443-60.502h11.969c1.573 1.465 1.755 4.168 1.973 5.524.312 1.967.638 4.478.394 6.445-.217 1.954-9.207 48.533-9.207 48.533h16.836s9.47-50.744 9.47-51.558c.027-.827.001-3.428-.921-4.866-.61-.923-1.673-3.041-2.894-3.815-2.347-1.505-4.998-2.498-4.998-2.498h-1.184c4.816-1.9 13.9-5.028 14.863-10.128l9.206-47.48C298.701 5.918 293.998 0 286.781 0zm90.094 0L313.48 133.629h19.334l15.651-77.468 6.182 77.468h16.835L396.867 0h-19.334l-13.152 69.84L355.7 0zm66.814 0-25.384 133.629h16.835L422.514 0zm25.647 0-25.384 133.629h19.466l15.651-77.468 6.182 77.468h16.835L489.46 0h-19.465l-13.021 69.84L448.294 0zm65.236 0-3.156 16.572h10.522L483.147 133.63h19.203l21.175-117.057h10.127L536.282 0zm46.297 0-26.305 133.629h37.88l2.63-16.572h-18.677l7.76-45.113h18.676l2.631-13.942h-18.676l8.154-41.43h18.677L578.239 0zm42.745 0L560.22 133.629h19.466l15.651-77.468 6.182 77.468h16.835L643.738 0h-19.466l-13.02 69.84L602.57 0zm66.946 0-25.384 133.629h38.405c6.972 0 13.705-5.473 14.994-12.364L700.95 13.284C702.335 5.918 697.646 0 690.43 0zm72.207 0c-7.216 0-14.1 5.932-15.388 13.284L690.56 121.265c-1.221 6.891 3.34 12.364 10.258 12.364h27.752c6.959 0 13.705-5.473 14.994-12.364L763.95 13.284C765.348 5.932 760.632 0 753.43 0zm-57.87 15.388h7.76c4.964 0 8.35 3.98 7.496 8.944l-16.572 87.464c-.868 4.964-5.689 9.075-10.653 9.075h-7.629zm67.734 0h.526c4.965 0 8.22 3.98 7.365 8.944l-15.782 87.464c-.855 4.95-5.426 9.075-10.391 9.075-4.964 0-7.036-4.11-6.182-9.075l15.652-87.464.132-.394.131-.395.132-.526.132-.395.131-.526.132-.394.132-.395.263-.394.132-.395.263-.395.132-.394.263-.395.264-.264.263-.395.263-.394.394-.263.264-.263.263-.264.395-.263.395-.264.264-.263.394-.263.395-.132.395-.263.263-.132.526-.132.394-.131h.395l.395-.132h.526zm-575.024.526h8.155c1.79 0 5.587 4.101 5.261 5.919l-6.97 33.012c-.326 1.71-2.632 5.656-4.341 5.656h-10.127l-.132-.132h-.526v-.131h-.263l-.131-.132h-.132l-.131-.132-.132-.132h-.131v-.131l-.132-.132-.131-.132v-.131l-.132-.132-.131-.132v-.263l-.132-.132v-.263l-.131-.132v-.131c0-.218-.028-.546 0-.79l7.891-40.377c.72-.597 1.604-1.053 2.5-1.053zm104.825 0h8.155c1.79 0 5.613 4.101 5.26 5.919l-6.97 32.88c-.312 1.723-4.59 5.788-6.313 5.788h-7.234c-1.492 0-2.522-.984-2.63-2.368 0-.217-.028-.531 0-.789l7.76-40.378.13-.131.132-.132.263-.132h.132l.131-.131.132-.132h.131l.132-.132h.131l.263-.131h.395z"
     fill="#e4000f"
     id="path2"
     style="stroke:none"
     inkscape:label="SNES" />
  <path
     d="m 759.0676,133.8849 v -3.29742 h 234.27586 v 6.59484 H 759.0676 Z"
     fill="#e4000f"
     stroke="#ff0000"
     stroke-width="0.617298"
     id="path6"
     style="display:inline;fill:#ff0000;fill-opacity:1"
     inkscape:label="bar" />
  <g
     id="g27"
     inkscape:label="MSU1MediaEnhancement"
     style="display:inline;fill:#ffffff">
    <path
       d="m 759.77474,141.65738 v 17.90025 h 5.18523 v -10.83451 l 3.0639,10.83451 h 2.12133 l 3.0639,-10.83451 v 10.83451 h 5.18523 v -17.90025 h -7.07091 l -2.24379,9.18552 -2.2345,-9.18552 z"
       style="fill:#ffffff;stroke-width:0.382631"
       id="path9"
       inkscape:label="M" />
    <path
       d="m 780.04385,141.65738 v 17.90025 h 10.6061 v -4.0039 h -4.94959 v -3.06183 h 4.24265 v -4.0039 h -4.24265 v -2.82671 h 4.94959 v -4.00391 z"
       style="fill:#ffffff;stroke-width:0.382631"
       id="path10"
       inkscape:label="E" />
    <path
       d="m 792.06433,141.65738 v 17.90025 h 8.24914 c 4.7138,0 4.71393,-4.23954 4.71393,-4.23954 v -9.42116 c 0,0 -3.8e-4,-4.23955 -6.12832,-4.23955 z m 5.42088,4.00391 c 1.88552,0 2.36597,0.4667 2.35697,2.82671 v 4.23954 c 0,2.3553 -0.47145,2.82619 -2.35697,2.82619 z"
       style="fill:#ffffff;stroke-width:0.382631"
       id="path11"
       inkscape:label="D" />
    <path
       d="m 806.67692,141.65738 v 17.90025 h 5.65652 v -17.90025 z"
       style="fill:#ffffff;stroke-width:0.382631"
       id="path12"
       inkscape:label="I" />
    <path
       d="m 817.04738,141.65738 -3.5352,17.90025 h 5.65652 l 0.47129,-3.29748 h 2.59261 l 0.47129,3.29748 h 5.65652 l -3.53519,-17.90025 z m 3.88194,3.76826 0.83199,6.83061 h -1.65003 z"
       style="display:inline;fill:#ffffff;stroke-width:0.382631"
       id="path13"
       sodipodi:nodetypes="ccccccccccccc"
       inkscape:label="A" />
    <path
       d="m 834.72387,141.65738 v 17.90025 h 10.6061 v -4.0039 h -4.94907 v -3.06183 h 4.24213 v -4.0039 h -4.24213 v -2.82671 h 4.94907 v -4.00391 z"
       style="fill:#ffffff;stroke-width:0.382631"
       id="path14"
       inkscape:label="E" />
    <path
       d="m 846.50871,141.65738 v 17.90025 h 5.18523 v -9.6568 l 3.53519,9.6568 h 5.18523 v -17.90025 h -5.18523 v 8.95039 l -3.0639,-8.95039 z"
       style="fill:#ffffff;stroke-width:0.382631"
       id="path15"
       inkscape:label="N" />
    <path
       d="m 862.06388,141.65738 v 17.90025 h 5.65703 v -7.06573 h 2.35645 v 7.06573 h 5.65704 v -17.90025 h -5.65704 v 6.83062 h -2.35645 v -6.83062 z"
       style="fill:#ffffff;stroke-width:0.382631"
       id="path16"
       inkscape:label="H" />
    <path
       d="m 880.44782,141.65738 -3.5352,17.90025 h 5.65652 l 0.47129,-3.29748 h 2.59262 l 0.47129,3.29748 h 5.65651 l -3.53519,-17.90025 z m 3.89124,3.76826 0.8227,6.83061 h -1.65004 z"
       style="display:inline;fill:#ffffff;stroke-width:0.382631"
       id="path17"
       inkscape:label="A" />
    <path
       d="m 892.70395,141.65738 v 17.90025 h 5.18523 v -9.6568 l 3.53519,9.6568 h 5.18523 v -17.90025 h -5.18523 v 8.95039 l -3.0639,-8.95039 z"
       style="fill:#ffffff;stroke-width:0.382631"
       id="path18"
       inkscape:label="N" />
    <path
       d="m 912.26612,141.65738 c -2.3569,0 -4.24265,2.1199 -4.24265,4.4752 v 9.18551 c 0,2.3553 1.88575,4.47519 4.24265,4.47519 h 4.47829 c 2.3569,0 4.24213,-2.11989 4.24213,-4.47519 v -2.59055 h -5.18522 c 0,2.3553 3.6e-4,3.06184 -1.05317,3.06184 -1.06768,0 -1.06816,-0.70654 -1.06816,-3.06184 V 148.488 c 0,-2.3553 3.1e-4,-3.06236 1.06092,-3.06236 1.0606,0 1.06041,0.70706 1.06041,3.06236 h 5.18522 c -0.0401,-0.49932 0,-2.35542 0,-2.35542 0,-2.3553 -1.88523,-4.4752 -4.24213,-4.4752 z"
       style="fill:#ffffff;stroke-width:0.382631"
       id="path19"
       inkscape:label="C" />
    <path
       d="m 922.40093,141.65738 v 17.90025 h 10.6061 v -4.0039 h -4.94958 v -3.06183 h 4.24213 v -4.0039 h -4.24213 v -2.82671 h 4.94958 v -4.00391 z"
       style="fill:#ffffff;stroke-width:0.382631"
       id="path20"
       inkscape:label="E" />
    <path
       d="m 934.18526,141.65738 v 17.90025 h 5.18523 v -10.59886 l 3.0639,10.59886 h 2.12132 l 3.06391,-10.83451 v 10.83451 h 5.18523 v -17.90025 h -6.83527 l -2.46755,9.18552 -2.48151,-9.18552 z"
       style="fill:#ffffff;stroke-width:0.382631"
       id="path21"
       inkscape:label="M" />
    <path
       d="m 954.45436,141.65738 v 17.90025 h 10.6061 v -4.0039 h -4.94906 v -3.06183 h 4.24213 v -4.0039 h -4.24213 v -2.82671 h 4.94906 v -4.00391 z"
       style="fill:#ffffff;stroke-width:0.382631"
       id="path22"
       inkscape:label="E" />
    <path
       d="m 966.23921,141.65738 v 17.90025 h 5.18522 v -9.6568 l 3.5352,9.6568 h 5.18523 v -17.90025 h -5.18523 v 8.95039 l -3.06391,-8.95039 z"
       style="fill:#ffffff;stroke-width:0.382631"
       id="path23"
       inkscape:label="N" />
    <path
       d="m 981.32308,141.65738 v 4.00391 h 3.06391 v 13.89634 h 5.65703 v -13.89634 h 3.06391 v -4.00391 z"
       style="fill:#ffffff;stroke-width:0.382631"
       id="path24"
       inkscape:label="T" />
    <path
       d="m 814.69041,72.176159 -53.73744,53.700751 h 12.25613 l 37.71047,-37.684629 v 37.684629 h 6.5991 l 37.71046,-37.684629 v 37.684629 h 9.42736 V 72.176159 h -6.5991 L 821.28951,108.91872 V 72.176159 Z"
       style="fill:#ffffff;stroke-width:0.382631"
       id="path1"
       inkscape:label="M" />
    <path
       d="m 880.68346,72.176159 c -5.89225,0 -10.36994,7.301163 -10.36994,13.189413 v 5.652901 c 0,5.88825 4.47769,13.189417 10.36994,13.189417 h 19.79833 c 4.7138,0 5.65652,3.2976 5.65652,5.6529 0,2.3553 -0.94272,5.6529 -5.65652,5.6529 h -30.16827 v 10.36322 h 34.88169 c 5.89225,0 10.37046,-7.30168 10.37046,-13.18993 v -5.65239 c 0,-5.88825 -4.47821,-13.189925 -10.37046,-13.189925 H 885.3974 c -4.7138,0 -5.65652,-3.297084 -5.65652,-5.652384 0,-2.3553 0.94272,-5.652901 5.65652,-5.652901 h 30.16827 V 72.176159 Z"
       style="fill:#ffffff;stroke-width:0.382631"
       id="path3"
       inkscape:label="S" />
    <path
       d="m 920.27961,72.176159 v 40.510821 c 0,7.0659 3.06388,13.18993 11.31303,13.18993 h 24.51176 c 8.24915,0 11.31303,-6.12403 11.31303,-13.18993 V 72.176159 h -10.37045 v 36.506921 c 0,5.88825 -3.53504,7.77267 -7.07039,7.77267 h -12.25614 c -3.53535,0 -7.07039,-1.88442 -7.07039,-7.77267 V 72.176159 Z"
       style="fill:#ffffff;stroke-width:0.382631"
       id="path5"
       inkscape:label="U" />
    <path
       d="m 987.21576,72.176159 -15.08439,15.074058 v 5.652384 h 11.31304 v 32.974309 h 9.42787 V 72.176159 Z"
       style="fill:#ffffff;stroke-width:0.382631"
       id="path7"
       inkscape:label="1" />
  </g>
</svg>
