<?xml version="1.0" encoding="UTF-8" standalone="no"?>
<!-- Created with Inkscape (http://www.inkscape.org/) -->

<svg
   width="1726.5679"
   height="313.52576"
   viewBox="0 0 456.82107 82.953692"
   version="1.1"
   id="svg8"
   inkscape:version="1.2.2 (732a01da63, 2022-12-09)"
   sodipodi:docname="snescd-w.svg"
   xmlns:inkscape="http://www.inkscape.org/namespaces/inkscape"
   xmlns:sodipodi="http://sodipodi.sourceforge.net/DTD/sodipodi-0.dtd"
   xmlns="http://www.w3.org/2000/svg"
   xmlns:svg="http://www.w3.org/2000/svg"
   xmlns:rdf="http://www.w3.org/1999/02/22-rdf-syntax-ns#"
   xmlns:cc="http://creativecommons.org/ns#"
   xmlns:dc="http://purl.org/dc/elements/1.1/">
  <defs
     id="defs2" />
  <sodipodi:namedview
     id="base"
     pagecolor="#ffffff"
     bordercolor="#666666"
     borderopacity="1.0"
     inkscape:pageopacity="0.0"
     inkscape:pageshadow="2"
     inkscape:zoom="0.83402458"
     inkscape:cx="863.28391"
     inkscape:cy="157.06971"
     inkscape:document-units="mm"
     inkscape:current-layer="layer1"
     showgrid="false"
     showguides="false"
     inkscape:guide-bbox="true"
     inkscape:snap-bbox="false"
     inkscape:bbox-nodes="true"
     inkscape:snap-global="true"
     inkscape:object-paths="false"
     units="px"
     fit-margin-top="0"
     fit-margin-left="0"
     fit-margin-right="0"
     fit-margin-bottom="0"
     inkscape:window-width="2560"
     inkscape:window-height="1369"
     inkscape:window-x="-8"
     inkscape:window-y="-8"
     inkscape:window-maximized="1"
     inkscape:showpageshadow="2"
     inkscape:pagecheckerboard="0"
     inkscape:deskcolor="#d1d1d1">
    <sodipodi:guide
       position="121.03516,78.710926"
       orientation="0,1"
       id="guide932"
       inkscape:locked="false" />
    <sodipodi:guide
       position="218.33031,58.954566"
       orientation="0,1"
       id="guide934"
       inkscape:locked="false" />
    <sodipodi:guide
       position="131.17596,20.446156"
       orientation="0,1"
       id="guide938"
       inkscape:locked="false" />
  </sodipodi:namedview>
  <metadata
     id="metadata5">
    <rdf:RDF>
      <cc:Work
         rdf:about="">
        <dc:format>image/svg+xml</dc:format>
        <dc:type
           rdf:resource="http://purl.org/dc/dcmitype/StillImage" />
      </cc:Work>
    </rdf:RDF>
  </metadata>
  <g
     inkscape:label="Layer 1"
     inkscape:groupmode="layer"
     id="layer1"
     transform="translate(299.10099,-61.034516)">
    <path
       id="path3324"
       style="font-style:normal;font-variant:normal;font-weight:normal;font-stretch:normal;letter-spacing:normal;word-spacing:normal;text-anchor:start;fill:#6eb92b;fill-opacity:1;fill-rule:nonzero;stroke:#2cd324;stroke-width:0;stroke-linecap:butt;stroke-linejoin:miter;stroke-miterlimit:10.43299961;stroke-dasharray:none;stroke-dashoffset:0;stroke-opacity:1"
       d="m -299.10097,98.762707 0.0215,-0.429813 0.0639,-0.424417 0.1047,-0.418703 0.14494,-0.407911 0.18408,-0.40791 0.22264,-0.396799 0.25903,-0.38569 0.29539,-0.380293 0.33013,-0.369182 0.36443,-0.358073 0.39744,-0.352675 0.42885,-0.336169 0.4603,-0.330772 0.4895,-0.314132 0.51868,-0.303108 0.54601,-0.292089 0.57266,-0.275553 0.59838,-0.264533 0.62344,-0.247996 0.64631,-0.231465 0.66949,-0.214931 0.69043,-0.203911 0.71139,-0.181865 0.73012,-0.170842 0.74947,-0.148801 0.76598,-0.132265 0.78312,-0.110222 0.79805,-0.0937 0.81233,-0.07164 0.82566,-0.05511 0.83773,-0.03306 0.84884,-0.01102 c 9.12581,0 16.50735,3.742013 16.50735,8.354795 0,4.629288 -7.38376,8.354798 -16.50735,8.354798 -9.11039,0 -16.49469,-3.72551 -16.49494,-8.354942 z"
       inkscape:connector-curvature="0" />
    <path
       id="path3326"
       style="font-style:normal;font-variant:normal;font-weight:normal;font-stretch:normal;letter-spacing:normal;word-spacing:normal;text-anchor:start;fill:#ffe100;fill-opacity:1;fill-rule:nonzero;stroke:#f8fa1a;stroke-width:0;stroke-linecap:butt;stroke-linejoin:miter;stroke-miterlimit:10.43299961;stroke-dasharray:none;stroke-dashoffset:0;stroke-opacity:1"
       d="m -269.40131,114.23118 0.0225,-0.45141 0.0672,-0.44599 0.11023,-0.43935 0.1521,-0.43202 0.19344,-0.42443 0.23367,-0.4168 0.27279,-0.40791 0.31028,-0.39839 0.34728,-0.39139 0.38315,-0.3749 0.41712,-0.36919 0.45076,-0.35807 0.48346,-0.34156 0.51489,-0.33077 0.54505,-0.31966 0.57361,-0.30312 0.60187,-0.29209 0.62949,-0.27557 0.65455,-0.259 0.67965,-0.24801 0.70376,-0.22595 0.72567,-0.21493 0.74726,-0.19289 0.76757,-0.17634 0.7882,-0.15431 0.80472,-0.13779 0.82122,-0.12124 0.84311,-0.0937 0.85424,-0.0772 0.86534,-0.0606 0.88185,-0.0331 0.89265,-0.011 c 9.57274,0 17.34889,3.92939 17.34889,8.77804 0,4.84368 -7.77615,8.77695 -17.34889,8.77695 -9.57773,0 -17.33842,-3.93104 -17.33842,-8.77695 z"
       inkscape:connector-curvature="0" />
    <path
       id="path3328"
       style="font-style:normal;font-variant:normal;font-weight:normal;font-stretch:normal;letter-spacing:normal;word-spacing:normal;text-anchor:start;fill:#00a7eb;fill-opacity:1;fill-rule:nonzero;stroke:#0a12ff;stroke-width:0;stroke-linecap:butt;stroke-linejoin:miter;stroke-miterlimit:10.43299961;stroke-dasharray:none;stroke-dashoffset:0;stroke-opacity:1"
       d="m -262.82135,94.993135 0.77805,-0.04959 0.76757,-0.08817 0.75551,-0.121247 0.74345,-0.159821 0.72916,-0.192886 0.71647,-0.225953 0.69995,-0.264532 0.68346,-0.292086 0.66693,-0.325059 0.65044,-0.352676 0.62821,-0.385689 0.61171,-0.407911 0.58981,-0.440923 0.56758,-0.468541 0.54568,-0.490445 0.51806,-0.512665 0.50156,-0.539965 0.46854,-0.567583 0.44631,-0.584089 0.41872,-0.60631 0.3914,-0.622817 0.35807,-0.64472 0.33078,-0.666941 0.2976,-0.677735 0.27004,-0.699955 0.23698,-0.711065 0.19839,-0.727572 0.17084,-0.744079 0.13228,-0.754872 0.0937,-0.765982 0.0551,-0.777093 0.022,-0.782489 c 0,-8.646871 -7.02111,-15.667973 -15.66857,-15.667973 -8.58957,0 -15.56663,6.899872 -15.66801,15.475097 0.20225,-0.01102 0.40441,-0.01102 0.62217,-0.01102 8.64525,0 15.66802,7.004563 15.66802,15.667974 v 0.187374"
       inkscape:connector-curvature="0" />
    <path
       id="path3330"
       style="font-style:normal;font-variant:normal;font-weight:normal;font-stretch:normal;letter-spacing:normal;word-spacing:normal;text-anchor:start;fill:#e60012;fill-opacity:1;fill-rule:nonzero;stroke:#fb0f19;stroke-width:0;stroke-linecap:butt;stroke-linejoin:miter;stroke-miterlimit:10.43299961;stroke-dasharray:none;stroke-dashoffset:0;stroke-opacity:1"
       d="m -232.34062,109.94457 0.76058,-0.0496 0.74409,-0.0827 0.73835,-0.12122 0.72187,-0.15431 0.71107,-0.19288 0.69424,-0.22046 0.68345,-0.25351 0.66694,-0.28658 0.65044,-0.3141 0.62821,-0.34729 0.61711,-0.37458 0.58981,-0.3968 0.57329,-0.4298 0.55107,-0.45204 0.53458,-0.47933 0.50695,-0.50156 0.47934,-0.52917 0.46282,-0.54569 0.42981,-0.5733 0.40792,-0.58979 0.38029,-0.60631 0.34728,-0.62822 0.32507,-0.65043 0.29208,-0.66123 0.25902,-0.677727 0.22596,-0.69424 0.19839,-0.711068 0.15982,-0.721859 0.13228,-0.732969 0.0882,-0.749476 0.0551,-0.754871 0.022,-0.765982 c 0,-8.426441 -6.81722,-15.260159 -15.24918,-15.260159 -8.35481,0 -15.14445,6.729027 -15.24365,15.072773 0.1984,-0.01102 0.40219,-0.01102 0.60631,-0.01102 8.40992,0 15.24918,6.833718 15.24918,15.260168 v 0.18738"
       inkscape:connector-curvature="0" />
    <path
       style="opacity:1;fill:#000000;fill-rule:evenodd;stroke:none;stroke-width:0.08193097"
       d="m -178.06583,65.277301 -0.15807,58.264759 h 10.29887 V 99.054806 c 0,0 2.30406,0.339736 5.45334,0.339736 12.78642,0 19.91659,-8.307171 19.91659,-18.914046 0,-5.152949 -1.7917,-9.14485 -5.37432,-11.975702 -2.7401,-2.151379 -6.61277,-3.227493 -11.61801,-3.227493 z m 15.54492,3.303887 c 6.30781,0 9.22063,6.904876 9.24124,12.737627 0.025,7.35114 -3.45731,14.006734 -10.45656,14.114411 -2.2318,0 -4.1888,-0.339736 -4.1888,-0.339736 V 68.920924 c 0,0 2.13505,-0.339736 5.40412,-0.339736 z"
       id="path0"
       inkscape:connector-curvature="0"
       sodipodi:nodetypes="ccccccccccccccc" />
    <path
       d="m -137.18515,65.277311 0.15726,58.264759 h 9.16356 l 0.0786,-58.264759 z"
       id="path0-5"
       inkscape:connector-curvature="0"
       style="opacity:1;fill:#000000;fill-rule:evenodd;stroke:none;stroke-width:0.0786299"
       sodipodi:nodetypes="ccccc" />
    <path
       style="opacity:1;fill:#000000;fill-rule:evenodd;stroke:none;stroke-width:0.07785579"
       d="m -37.134683,64.424175 c -9.777595,0 -16.673401,7.782885 -16.673401,16.941085 0,17.922977 21.988219,16.589663 21.988219,29.42719 0,5.65432 -3.625022,9.06518 -9.107353,9.06518 -9.517491,0 -11.51705,-9.07061 -11.51705,-9.07061 h -1.002007 l -2.023869,9.90275 c 0,0 7.34242,3.70542 14.185326,3.70542 11.802964,0 18.176151,-9.32153 18.176151,-18.95119 0,-16.566555 -22.918395,-15.613256 -22.918395,-27.720896 0,-5.154935 3.655161,-9.148278 8.177176,-9.148278 9.030914,0 10.791515,8.645247 10.791515,8.645247 h 1.002007 l 2.407457,-7.385598 c 0,0 -6.505967,-5.4103 -13.485776,-5.4103 z"
       id="path0-0"
       inkscape:connector-curvature="0"
       sodipodi:nodetypes="ccccccccccccccc" />
    <path
       style="opacity:1;fill:#000000;fill-opacity:1;stroke:none;stroke-width:0.26458332px;stroke-linecap:butt;stroke-linejoin:miter;stroke-opacity:1"
       d="m -91.562885,85.03367 12.916006,40.07507 -7.146851,18.87947 h 4.811078 l 21.782648,-58.95454 h -4.276741 l -9.870816,25.77042 -7.423118,-25.77042 z"
       id="path912"
       inkscape:connector-curvature="0"
       sodipodi:nodetypes="ccccccccc" />
    <path
       sodipodi:nodetypes="sccssccsscsccsssscssscc"
       inkscape:connector-curvature="0"
       id="path930"
       d="m 18.369378,83.612125 c -7.622392,0 -11.5538173,5.871477 -11.5538173,5.871477 l 1.6035178,1.26969 c 0,0 2.8796565,-3.466454 6.6094155,-3.466454 5.10104,0 7.422288,4.40626 7.422288,10.231416 v 2.116667 l -7.133931,2.351789 c -7.2587118,2.39298 -11.3450452,6.71122 -11.3450452,12.73876 0,6.3521 4.4621185,10.23813 8.9389902,10.23813 4.128791,0 8.101351,-3.0916 10.09654,-5.94279 1.16959,3.4208 4.061782,5.94279 7.461559,5.94279 3.658875,0 5.064069,-2.07119 5.064069,-2.07119 l -1.269687,-1.93735 c 0,0 -0.581031,0.53434 -1.597761,0.53434 -1.518007,0 -1.728949,-2.53312 -1.728949,-6.14743 V 97.167888 c 0,-6.689977 -4.325292,-13.555763 -12.567189,-13.555763 z m 4.081404,18.582845 v 11.06599 c 0,4.65784 -2.774622,6.98665 -5.230172,6.98665 -3.112871,0 -4.317566,-3.27918 -4.317566,-6.56187 0,-4.82062 1.287491,-8.69595 4.770252,-9.87433 z"
       style="opacity:1;fill:#000000;fill-opacity:1;stroke:none;stroke-width:0.26458332px;stroke-linecap:butt;stroke-linejoin:miter;stroke-opacity:1" />
    <path
       sodipodi:nodetypes="ccccc"
       style="opacity:1;fill:#000000;fill-rule:evenodd;stroke:none;stroke-width:0.0639238"
       inkscape:connector-curvature="0"
       id="path936"
       d="m 65.725964,85.033661 0.15726,38.508399 h 9.16356 l 0.0786,-38.508399 z" />
    <path
       style="opacity:1;vector-effect:none;fill:#000000;fill-opacity:1;fill-rule:evenodd;stroke:none;stroke-width:14.26229477;stroke-linecap:butt;stroke-linejoin:miter;stroke-miterlimit:4;stroke-dasharray:none;stroke-dashoffset:0;stroke-opacity:1"
       d="m 266.17578,230.68164 a 21.970816,21.970816 0 0 0 -21.9707,21.9707 21.970816,21.970816 0 0 0 21.9707,21.97071 21.970816,21.970816 0 0 0 21.9707,-21.97071 21.970816,21.970816 0 0 0 -21.9707,-21.9707 z"
       transform="scale(0.26458333)"
       id="path940"
       inkscape:connector-curvature="0" />
    <path
       style="opacity:1;fill:#000000;fill-rule:evenodd;stroke:none;stroke-width:0.24160177"
       d="m 553.56445,315.91211 c -31.50238,0 -45.33385,27.70055 -45.38476,27.80273 l 0.0449,-22.32812 H 472.6992 l 0.59375,145.54297 h 34.63476 l 0.20899,-102.31836 c 0,-16.07679 16.81764,-30.00977 29.01172,-30.00977 12.53506,0 23.48828,11.15668 23.48828,32.83008 l 0.53906,99.49805 h 34.63477 l 0.29687,-95.54102 c 0,-34.68034 -18.93933,-55.47656 -42.54297,-55.47656 z"
       transform="scale(0.26458333)"
       id="path943"
       inkscape:connector-curvature="0" />
    <path
       style="opacity:1;fill:#000000;fill-rule:evenodd;stroke:none;stroke-width:0.07928112"
       d="m 100.35305,83.34806 c -5.691799,0 -10.247583,1.888038 -13.667902,5.664772 -3.420324,3.776731 -5.129922,8.882181 -5.129922,15.316888 0,6.43471 1.709598,11.526 5.129922,15.27504 3.420319,3.74903 7.976103,5.62291 13.667902,5.62291 5.7914,0 10.37217,-1.86055 13.74231,-5.58105 3.37015,-3.7205 5.0555,-8.82679 5.0555,-15.3169 0,-6.770415 -1.67235,-11.959675 -5.01778,-15.568552 -3.34542,-3.608877 -7.93845,-5.413108 -13.78003,-5.413108 z m 0,2.79001 c 5.50649,0 8.25944,6.035726 8.25944,18.10639 0,12.12872 -2.75295,18.1932 -8.25944,18.1932 -5.506506,0 -8.259964,-6.06448 -8.259964,-18.1932 0,-12.070664 2.753458,-18.10639 8.259964,-18.10639 z"
       id="path966"
       inkscape:connector-curvature="0" />
    <path
       style="opacity:1;fill:#000000;fill-opacity:1;stroke:none;stroke-width:0.26458332px;stroke-linecap:butt;stroke-linejoin:miter;stroke-opacity:1"
       d="m -107.11872,83.612125 c -7.62239,0 -11.55381,5.871477 -11.55381,5.871477 l 1.60351,1.26969 c 0,0 2.87966,-3.466454 6.60942,-3.466454 5.10104,0 7.42229,4.40626 7.42229,10.231416 v 2.116667 l -7.13393,2.351789 c -7.25872,2.39298 -11.34505,6.71122 -11.34505,12.73876 0,6.3521 4.46212,10.23813 8.93899,10.23813 4.12879,0 8.10135,-3.0916 10.09654,-5.94279 1.16959,3.4208 4.061783,5.94279 7.46156,5.94279 3.658875,0 5.064069,-2.07119 5.064069,-2.07119 l -1.269687,-1.93735 c 0,0 -0.581031,0.53434 -1.597761,0.53434 -1.518007,0 -1.728949,-2.53312 -1.728949,-6.14743 V 97.167888 c 0,-6.689977 -4.325292,-13.555763 -12.567192,-13.555763 z m 4.08141,18.582845 v 11.06599 c 0,4.65784 -2.77463,6.98665 -5.23018,6.98665 -3.11287,0 -4.31756,-3.27918 -4.31756,-6.56187 0,-4.82062 1.28749,-8.69595 4.77025,-9.87433 z"
       id="path970"
       inkscape:connector-curvature="0"
       sodipodi:nodetypes="sccssccsscsccsssscssscc" />
    <path
       style="opacity:1;vector-effect:none;fill:#000000;fill-opacity:1;fill-rule:evenodd;stroke:none;stroke-width:15;stroke-linecap:butt;stroke-linejoin:miter;stroke-miterlimit:4;stroke-dasharray:none;stroke-dashoffset:0;stroke-opacity:1"
       d="m -24.388672,266.91406 -33.019531,18.93946 0.142578,35.5332 h -18.091797 v 14.16797 h 18.148438 l 0.382812,93.79827 c 0,27.55868 11.124073,43.40836 35.62235,43.40836 18.2341275,0 26.6423975,-12.8816 26.6423975,-12.8816 l -4.0775599,-4.52868 c 0,0 -3.9122263,4.97058 -10.467942,4.97058 -11.2723316,0 -15.5708076,-13.93737 -15.5708076,-30.61152 l 0.167968,-94.15541 H -0.17773438 V 321.38672 H -24.484375 Z"
       transform="scale(0.26458333)"
       id="rect972"
       inkscape:connector-curvature="0"
       sodipodi:nodetypes="ccccccccccccccccc" />
    <path
       sodipodi:nodetypes="ccccccccccccccccc"
       inkscape:connector-curvature="0"
       id="path978"
       d="m 50.621569,70.621011 -8.736418,5.011065 0.03772,9.401493 h -4.786788 v 3.748608 h 4.801774 l 0.101286,24.817463 c 0,7.29156 2.943244,11.48512 9.42508,11.48512 4.824446,0 7.049134,-3.40825 7.049134,-3.40825 l -1.078854,-1.19822 c 0,0 -1.03511,1.31514 -2.769643,1.31514 -2.982471,0 -4.119776,-3.6876 -4.119776,-8.0993 l 0.04444,-24.911953 h 6.43785 v -3.748608 h -6.431132 z"
       style="opacity:1;vector-effect:none;fill:#000000;fill-opacity:1;fill-rule:evenodd;stroke:none;stroke-width:3.96875;stroke-linecap:butt;stroke-linejoin:miter;stroke-miterlimit:4;stroke-dasharray:none;stroke-dashoffset:0;stroke-opacity:1" />
    <path
       style="fill:#ffffff;stroke-width:1.19901"
       d="M 456.82107,125.7939 V 15.383734 l 44.06345,0.520411 c 46.73073,0.551914 49.65313,0.876447 62.08481,6.894519 2.99531,1.450005 8.38908,5.326165 11.98615,8.61369 23.8923,21.836222 22.26211,67.800368 -3.31167,93.374146 -14.32699,14.32699 -34.31174,20.90609 -61.09544,20.11297 l -14.1602,-0.41932 4e-5,45.86196 4e-5,45.86196 h -19.78359 -19.78359 z m 66.32426,1.78984 c 8.01793,-2.73199 16.86369,-11.16132 21.06274,-20.07117 4.51765,-9.585878 6.13542,-17.650019 6.13542,-30.583329 0,-21.298348 -7.84319,-38.158717 -20.83381,-44.786032 -5.60803,-2.861006 -16.67848,-4.049933 -26.40019,-2.835285 l -6.72124,0.839764 v 48.973029 c 0,38.056543 0.33408,49.107833 1.49875,49.577793 3.49988,1.41223 19.97613,0.68505 25.25833,-1.11477 z"
       id="path360"
       transform="matrix(0.26458333,0,0,0.26458333,-299.10099,61.034516)" />
    <path
       style="fill:#ffffff;stroke-width:1.19901"
       d="m 612.28868,190.34211 c -0.43588,-25.22407 -0.79327,-74.8629 -0.79421,-110.308498 l -0.002,-64.446541 h 17.98508 17.98508 v 110.308499 110.3085 h -17.19087 -17.19087 z"
       id="path362"
       transform="matrix(0.26458333,0,0,0.26458333,-299.10099,61.034516)" />
    <path
       style="fill:#ffffff;stroke-width:1.19901"
       d="m 698.42066,241.13982 c -11.2509,-2.9569 -20.37533,-11.39449 -24.68375,-22.82569 -2.06405,-5.4764 -2.43649,-8.64678 -2.05355,-17.48072 0.41104,-9.48195 0.96063,-11.71223 4.53038,-18.38442 7.61003,-14.22384 19.75841,-22.04158 49.03805,-31.55704 l 16.04007,-5.21279 -0.69046,-10.19155 c -0.97348,-14.36919 -3.50222,-21.79491 -9.56609,-28.09111 -10.36141,-10.758399 -24.66261,-10.379244 -38.57725,1.02276 -4.79776,3.9314 -4.95765,3.97075 -7.56268,1.86133 -1.46371,-1.18524 -2.66129,-2.69294 -2.66129,-3.35044 0,-2.57968 13.05895,-12.797612 21.5821,-16.886835 8.56367,-4.108666 9.59295,-4.314381 21.5821,-4.313472 11.05314,8.38e-4 13.40102,0.381447 19.23879,3.118748 11.93736,5.597363 20.56302,15.213089 25.5231,28.452679 2.3994,6.40454 2.58201,9.62603 3.1719,55.95501 0.70759,55.573 0.61814,55.00627 8.57788,54.34905 4.10528,-0.33897 5.0442,0.0568 6.74284,2.84269 1.85486,3.04199 1.83822,3.38592 -0.27694,5.72312 -3.11527,3.44235 -14.14349,6.47418 -20.09051,5.52321 -9.3093,-1.48861 -18.24164,-8.0588 -22.68807,-16.68821 l -2.37196,-4.60342 -7.06992,6.74357 c -11.42925,10.90166 -27.21917,16.75718 -37.73474,13.99353 z m 31.89609,-20.86897 c 2.24074,-1.5093 5.42296,-5.15128 7.07159,-8.09329 2.89113,-5.15927 3.01178,-6.25159 3.39965,-30.77732 l 0.40213,-25.42819 -11.19318,3.72368 c -17.38545,5.78367 -22.64884,12.93095 -24.54472,33.32982 -1.04136,11.20467 1.17238,20.58951 6.0856,25.79904 3.37382,3.5773 4.73871,4.19042 9.32846,4.19042 3.61639,0 6.71006,-0.89832 9.45047,-2.74416 z"
       id="path364"
       transform="matrix(0.26458333,0,0,0.26458333,-299.10099,61.034516)" />
    <path
       style="fill:#ffffff;stroke-width:1.19901"
       d="m 806.93065,312.46831 c 0,-0.91912 5.84658,-17.12566 12.9924,-36.01455 l 12.9924,-34.34343 -24.2789,-75.1932 c -13.3534,-41.35627 -23.88027,-75.611695 -23.39304,-76.123172 0.48722,-0.511477 9.72569,-0.781253 20.52993,-0.599503 l 19.64407,0.330455 13.92563,48.33464 13.92563,48.33464 18.512,-48.33464 18.512,-48.33464 8.23276,-0.358069 c 8.04363,-0.349843 8.21639,-0.295462 7.52009,2.367169 -0.39196,1.498882 -18.90986,51.97328 -41.15088,112.16533 l -40.43822,109.44008 h -8.76293 c -6.69305,0 -8.76294,-0.39473 -8.76294,-1.67111 z"
       id="path366"
       transform="matrix(0.26458333,0,0,0.26458333,-299.10099,61.034516)" />
    <path
       style="fill:#ffffff;stroke-width:1.19901"
       d="m 960.20054,238.57432 c -13.48166,-2.27504 -39.36437,-11.47026 -39.36437,-13.98479 0,-0.81989 1.61866,-9.08216 3.59702,-18.3606 1.97836,-9.27843 3.59701,-17.1208 3.59701,-17.42748 0,-0.30668 0.97982,-0.5576 2.17738,-0.5576 1.51069,0 3.02096,2.03529 4.9325,6.64724 3.65972,8.82974 12.92767,18.79884 21.27207,22.88136 7.66202,3.74868 21.77319,5.17271 29.78825,3.00607 13.8304,-3.73866 22.1285,-14.32495 23.0897,-29.45662 1.2965,-20.4116 -5.688,-29.09626 -42.48399,-52.82551 -23.29537,-15.02286 -35.28424,-30.00517 -38.75769,-48.434884 -6.17391,-32.758028 12.45999,-65.027564 43.05949,-74.568915 9.69296,-3.022397 25.23421,-3.265124 35.31839,-0.551609 7.7534,2.086351 25.6519,10.950533 31.3117,15.507022 l 3.5957,2.894857 -4.5758,13.903208 c -5.0985,15.490836 -7.4429,17.636839 -10.2768,9.406938 -2.5327,-7.355315 -9.5957,-16.774517 -15.5216,-20.699724 -21.06387,-13.952097 -45.70466,-6.415004 -52.36648,16.017784 -6.26216,21.087 2.65427,34.299737 36.69848,54.381323 10.2859,6.0673 21.8087,13.56246 25.6062,16.65592 9.3101,7.58397 16.8768,18.15863 19.8262,27.70767 4.7864,15.49669 2.2106,37.52581 -6.2525,53.47209 -5.3171,10.01853 -17.1771,22.36318 -26.0063,27.06912 -13.73977,7.32322 -31.90702,10.07746 -48.26456,7.31713 z"
       id="path368"
       transform="matrix(0.26458333,0,0,0.26458333,-299.10099,61.034516)" />
    <path
       style="fill:#ffffff;stroke-width:1.19901"
       d="m 1095.891,240.35673 c -11.4484,-3.5548 -19.1,-13.97925 -21.5296,-29.33177 -0.6963,-4.39937 -1.2374,-29.07234 -1.2425,-56.65301 l -0.01,-48.85947 h -8.9926 -8.9925 v -7.793537 -7.793536 h 8.9925 8.9926 l 0.028,-17.68533 0.028,-17.68533 16.458,-9.254919 16.4581,-9.254918 0.3222,26.897101 0.3221,26.8971 11.6679,0.342899 11.6679,0.3429 0.357,7.493784 0.3569,7.493786 h -12.0472 -12.0473 v 52.53862 c 0,57.32525 0.4111,61.45098 6.755,67.79493 3.7649,3.76483 9.6979,4.20465 14.9409,1.10757 3.2244,-1.90472 3.6261,-1.91159 5.4447,-0.0929 1.0799,1.0799 1.6363,2.81614 1.2363,3.8583 -0.9556,2.49027 -10.975,8.79747 -16.3454,10.28946 -5.901,1.6393 -16.4106,1.33921 -22.8225,-0.65171 z"
       id="path370"
       transform="matrix(0.26458333,0,0,0.26458333,-299.10099,61.034516)" />
    <path
       style="fill:#ffffff;stroke-width:1.19901"
       d="m 1169.2888,239.99996 c -9.2797,-3.30457 -15.4143,-9.13449 -20.3959,-19.38296 -2.7435,-5.64418 -3.2082,-8.1533 -3.2244,-17.41079 -0.017,-9.81643 0.3441,-11.55338 3.9069,-18.79045 7.533,-15.3018 20.2352,-23.94894 49.1303,-33.44602 l 15.8868,-5.22159 v -9.20049 c 0,-22.73589 -10.422,-36.99331 -27.0638,-37.023522 -6.0947,-0.01103 -14.4525,3.492412 -20.0178,8.391182 l -5.2495,4.62076 -3.3072,-2.6371 -3.3073,-2.63711 7.0449,-6.71971 c 7.9752,-7.607083 13.988,-11.027975 23.9394,-13.619978 25.7155,-6.69803 49.8245,6.438897 58.1845,31.704538 2.4463,7.39297 2.6442,10.80931 3.276,56.5462 0.7457,53.97776 0.6624,53.43993 8.0855,52.23532 3.338,-0.54166 4.3024,-0.11067 6.4263,2.87207 2.9516,4.14516 2.4979,5.18646 -3.6191,8.30714 -14.1337,7.21045 -31.6532,1.19895 -39.0857,-13.41152 -1.1078,-2.17768 -2.1462,-4.1151 -2.3075,-4.30534 -0.1613,-0.19026 -3.3089,2.59815 -6.9945,6.19647 -12.7851,12.48231 -28.6367,17.44519 -41.3079,12.9329 z m 35.1858,-19.42849 c 2.3463,-1.45005 5.2069,-4.9582 7.0358,-8.62846 3.0128,-6.04574 3.0821,-6.7454 3.0821,-31.09489 v -24.90997 l -10.4913,3.66997 c -18.0062,6.29876 -22.8258,13.4393 -23.9607,35.49917 -0.5904,11.47491 -0.4292,12.67093 2.5207,18.70028 1.7333,3.54271 4.3663,7.02718 5.8511,7.74323 4.4028,2.12332 11.6628,1.6779 15.9623,-0.97933 z"
       id="path372"
       transform="matrix(0.26458333,0,0,0.26458333,-299.10099,61.034516)" />
    <path
       style="fill:#ffffff;stroke-width:1.19901"
       d="m 1311.9779,240.43689 c -6.9123,-2.15846 -12.7674,-6.82898 -16.4599,-13.12982 -5.8793,-10.03214 -6.5437,-17.29109 -6.5663,-71.73612 l -0.021,-50.05847 h -8.9925 -8.9925 v -7.793537 -7.793536 h 8.9925 8.9925 l 0.035,-17.68533 0.035,-17.68533 15.7682,-8.992541 c 8.6726,-4.945897 16.2104,-9.172391 16.7509,-9.392209 0.5404,-0.219818 0.9826,11.765686 0.9826,26.634453 v 27.03412 l 11.6903,0.34317 11.6903,0.34317 0.357,7.493784 0.3569,7.493786 h -11.8569 -11.857 l -0.7867,24.27986 c -1.7593,54.30069 -0.6633,82.83782 3.4995,91.11909 3.9827,7.92298 11.3613,10.3196 18.6024,6.04217 3.1323,-1.85027 3.6661,-1.87161 5.3249,-0.21287 1.0139,1.01396 1.5137,2.70322 1.1105,3.7539 -0.9708,2.5298 -8.8803,7.94012 -14.58,9.97317 -5.7795,2.0615 -17.4234,2.04655 -24.0763,-0.0309 z"
       id="path374"
       transform="matrix(0.26458333,0,0,0.26458333,-299.10099,61.034516)" />
    <path
       style="fill:#ffffff;stroke-width:1.19901"
       d="M 1378.8562,163.03269 V 89.861301 l 17.6854,0.331804 17.6853,0.331805 0.309,72.83958 0.3091,72.83958 h -17.9944 -17.9944 z"
       id="path376"
       transform="matrix(0.26458333,0,0,0.26458333,-299.10099,61.034516)" />
    <path
       style="fill:#ffffff;stroke-width:1.19901"
       d="m 1387.7992,42.176569 c -8.0051,-3.747047 -13.7087,-12.57655 -13.7323,-21.258308 -0.012,-4.503587 5.8181,-14.2362164 10.3763,-17.3212447 3.6373,-2.4617454 5.8713,-2.99751359 12.4987,-2.99751359 7.2085,0 8.5617,0.39304142 12.6774,3.68226859 5.9477,4.7532468 8.7999,10.4717707 8.8023,17.6478437 0.01,15.982528 -16.4663,26.873177 -30.6224,20.246954 z"
       id="path378"
       transform="matrix(0.26458333,0,0,0.26458333,-299.10099,61.034516)" />
    <path
       style="fill:#ffffff;stroke-width:1.19901"
       d="m 1499.3563,242.13326 c -27.9835,-3.13479 -49.7837,-22.42086 -57.6249,-50.97941 -2.594,-9.44749 -3.6219,-35.02642 -1.8326,-45.60294 5.1361,-30.35931 21.9899,-50.718396 48.6664,-58.787968 11.3656,-3.438049 34.3645,-2.949191 46.2788,0.983688 22.3981,7.393559 36.5639,23.26098 43.1566,48.34049 3.5888,13.65222 3.591,40.28712 0,53.95524 -3.674,14.00166 -9.1081,23.94058 -18.0991,33.10331 -14.985,15.27118 -35.7099,21.77022 -60.5498,18.98759 z m 20.9609,-13.11216 c 8.4981,-4.33538 13.944,-13.98517 17.5997,-31.1852 2.9479,-13.86975 2.9828,-54.84647 0.059,-68.75611 -4.7362,-22.52877 -13.906,-33.501928 -27.9963,-33.501928 -15.6358,0 -24.8729,12.121718 -29.3518,38.518298 -2.1178,12.48141 -1.791,47.9363 0.5655,61.34173 4.1568,23.64625 13.763,35.97016 28.0379,35.97016 4.0315,0 8.1426,-0.88513 11.0864,-2.38695 z"
       id="path380"
       transform="matrix(0.26458333,0,0,0.26458333,-299.10099,61.034516)" />
    <path
       style="fill:#ffffff;stroke-width:1.19901"
       d="M 1603.0703,163.03269 V 89.861301 l 17.6853,0.331804 17.6853,0.331805 0.3485,9.90749 0.3485,9.90749 6.5789,-7.10597 c 12.2764,-13.260029 25.016,-18.858405 40.5892,-17.836805 14.5146,0.952167 26.3389,9.250464 33.6008,23.581245 6.2257,12.2858 6.6241,16.73364 6.6433,74.16972 l 0.018,53.05599 h -17.1978 -17.1979 l -0.7832,-18.88434 c -0.4308,-10.38638 -0.7851,-34.56831 -0.7873,-53.73762 0,-38.92133 -0.7344,-43.93034 -7.5305,-51.6706 -7.0267,-8.00303 -15.2964,-9.54206 -25.4461,-4.73564 -7.2528,3.43459 -12.8176,9.07865 -16.0924,16.32169 -2.3352,5.16489 -2.4406,7.68902 -2.4658,59.05102 l -0.026,53.65549 h -17.9851 -17.985 z"
       id="path382"
       transform="matrix(0.26458333,0,0,0.26458333,-299.10099,61.034516)" />
  </g>
</svg>
