<svg xmlns="http://www.w3.org/2000/svg" width="1000.42" height="229.182">
    <path style="fill:#0090bf;fill-opacity:1;fill-rule:nonzero;stroke:none" d="M41.66.009h10.874l19.087 17.94V0h10.122v28.95H71.621S52.363 12.006 52.402 12.006V28.95H41.66zM83.286 0H93.74v12.753A23217.32 23217.32 0 0 1 109.82 0h12.587l-16.962 13.994 17.148 14.956h-12.476L93.741 14.907V28.95H83.286zM11.46 8.037h28.57V.019H7.802C6.675.019.053.961.053 9.165c0 8.076 5.919 9.199 7.75 9.199H28.95c1.29 0 1.45 2.373 0 2.373H0v8.213h32.28c1.294 0 7.696-.576 7.696-9.273 0-8.911-7.852-9.341-7.852-9.341H11.406c-1.562 0-1.504-2.299.054-2.299M124.175 2.441h.307v-.674h.235c.161 0 .274.03.336.05.113.07.162.2.162.4v.227h.277v-.01c0-.02-.01-.05-.01-.09V2.09a.49.49 0 0 0-.1-.273.448.448 0 0 0-.298-.161.653.653 0 0 0 .254-.09c.112-.07.165-.175.165-.332 0-.215-.09-.361-.263-.439-.102-.03-.26-.06-.47-.06h-.607zm.868-.918c-.06.03-.165.03-.287.03h-.274v-.62h.254a.8.8 0 0 1 .366.07c.08.03.113.123.113.254 0 .132-.05.215-.172.264m.87-1.03a1.503 1.503 0 0 0-1.108-.459c-.425 0-.797.156-1.099.459a1.508 1.508 0 0 0-.459 1.103c0 .435.156.801.459 1.099.302.312.669.468 1.099.468.44 0 .806-.156 1.108-.468.313-.298.459-.669.459-1.099 0-.434-.146-.801-.459-1.103m-.151.146c.259.264.39.586.39.957s-.131.693-.39.952a1.276 1.276 0 0 1-.957.401c-.372 0-.689-.127-.948-.401a1.323 1.323 0 0 1-.39-.952c0-.371.136-.693.39-.957.264-.264.576-.395.948-.395.371 0 .693.131.957.395" transform="scale(7.91647)"/>
</svg>
