<svg height="152.047" viewBox="0 0 797.554 136.842" width="886.171" xmlns="http://www.w3.org/2000/svg">
    <g fill="#636365">
        <path d="M92.98 20.374H39.262q-8.648 0-12.726 3.22-4.007 3.22-4.007 10.222 0 5.601 3.445 8.402 3.445 2.8 10.265 2.8h28.756q17.859 0 25.382 6.721 7.593 6.722 7.593 22.405 0 15.893-8.718 23.384-8.719 7.421-27.42 7.421H3.967V86.606h54.42q9.28 0 13.077-2.66 3.796-2.731 3.796-8.962 0-6.441-3.515-9.172-3.445-2.73-11.882-2.73H34.2q-17.858 0-26.155-7.072Q-.18 48.87-.18 33.536q0-16.383 8.648-23.944Q17.186 2.03 36.099 2.03h56.88zM107.603 52.44q0-26.535 12.726-39.488Q133.125 0 159.21 0q26.296 0 38.882 13.092 12.655 13.093 12.655 40.398 0 27.305-12.655 40.467-12.586 13.163-38.881 13.163-26.577 0-39.092-13.233-12.515-13.232-12.515-41.447zm51.607-34.797q-13.992 0-20.952 8.682-6.89 8.681-6.89 26.255 0 19.043 6.679 27.935 6.75 8.821 21.163 8.821 14.202 0 21.022-8.751 6.89-8.822 6.89-27.095 0-18.344-6.89-27.095-6.82-8.752-21.022-8.752zM268.188 19.604q-13.499 0-19.475 8.541-5.906 8.542-5.906 28.075 0 16.943 5.695 23.875 5.695 6.931 19.686 6.931h35.717v17.923h-36.771q-12.164 0-19.124-2.03-6.96-2.1-13.078-7.001-7.944-6.302-11.952-16.383-3.937-10.152-3.937-24.225 0-27.305 11.882-40.257Q242.807 2.03 267.767 2.03h36.138v17.574zM368.238 20.374H341.59v25.904h26.647q10.827 0 15.046-2.94 4.218-2.94 4.218-10.082 0-7.071-4.148-9.942-4.078-2.94-15.116-2.94zM319.865 2.03h53.505q18.702 0 27.42 7.492 8.72 7.491 8.72 23.454 0 11.832-5.415 19.324-5.343 7.491-15.468 9.661l25.804 42.988h-24.468l-22.78-40.467h-25.592v40.467h-21.726z"/>
        <path d="M468.147 22.474 453.03 62.101h30.795zM457.46 2.03h23.06l44.084 102.92h-24.186l-9.491-24.505h-44.928l-9.21 24.504h-23.061zM541.197 20.094h-33.396V2.17h89.432v17.924h-33.537v84.855h-22.499zM650.387 19.954q-11.812 0-17.859 5.88-5.976 5.882-6.609 17.994l60.185.07v17.923h-60.325q.07 13.443 5.695 19.324 5.695 5.881 18.913 5.881h35.717v17.923h-36.772q-12.163 0-19.124-2.03-6.96-2.1-13.077-7.001-7.945-6.302-11.953-16.383-3.937-10.152-3.937-24.225 0-27.305 11.882-40.257Q625.005 2.03 649.965 2.03h36.139v17.924zM792.48 20.374h-53.715q-8.648 0-12.726 3.22-4.008 3.22-4.008 10.222 0 5.601 3.446 8.402 3.445 2.8 10.265 2.8h28.756q17.858 0 25.381 6.721 7.594 6.722 7.594 22.405 0 15.893-8.719 23.384-8.718 7.421-27.42 7.421H703.47V86.606h54.419q9.28 0 13.077-2.66 3.797-2.731 3.797-8.962 0-6.441-3.515-9.172-3.446-2.73-11.883-2.73h-25.662q-17.859 0-26.155-7.072-8.226-7.141-8.226-22.474 0-16.383 8.648-23.944Q716.688 2.03 735.6 2.03h56.88zM3.776 136.842v-23.053h23.686v3.926h-18.3v5.147h10.682v3.926H9.161v5.714h18.52v4.34zM43.005 132.502h6.961q5.56 0 7.881-1.723 2.32-1.723 2.32-5.693 0-3.533-1.926-5.343-1.926-1.832-5.692-1.832h-9.544zm-5.385 4.34v-23.053h14.886q6.37 0 9.785 2.966 3.437 2.966 3.437 8.419 0 3.228-1.336 5.823-1.335 2.574-3.765 4.057-1.51.937-3.765 1.374-2.233.414-5.736.414zM80.986 113.789v18.713H96.33v-18.713h5.364v17.6q0 3.163-1.182 4.319-1.183 1.134-4.554 1.134H81.336q-3.35 0-4.553-1.134-1.182-1.156-1.182-4.318v-17.601zM132.955 117.911h-14.514v14.59h14.514v-4.95l5.385 1.112v2.727q0 3.162-1.204 4.318-1.182 1.134-4.531 1.134h-13.813q-3.372 0-4.554-1.134-1.182-1.156-1.182-4.318V119.24q0-3.14 1.182-4.296 1.182-1.156 4.554-1.156h13.813q3.35 0 4.531 1.156 1.204 1.156 1.204 4.296v2.181l-5.385.851zM154.583 127.638h10.136l-4.991-9.378zm-10.354 9.204 13.09-23.053h5.189l13.266 23.053h-6.042l-2.78-5.038h-14.667l-2.693 5.038zM190.944 117.911v18.931h-5.385v-18.931h-10.617v-4.122h26.663v4.122zM208.194 136.842v-23.053h5.386v23.053zM224.92 119.241q0-3.14 1.181-4.296 1.182-1.156 4.554-1.156h17.03q3.372 0 4.554 1.156 1.182 1.156 1.182 4.296v12.149q0 3.162-1.182 4.318-1.182 1.134-4.553 1.134h-17.031q-3.372 0-4.554-1.134-1.182-1.156-1.182-4.318zm5.384 13.26h17.754v-14.59h-17.754zM264.717 136.842v-23.053h3.678l16.287 13.588q.831.676 1.466 1.286.635.59 1.16 1.222-.13-1.941-.175-2.748-.043-.807-.043-1.244V113.79h4.838v23.053h-3.678L271.262 122.6q-.613-.545-1.072-.981-.46-.436-.854-.894.11 1.068.153 2.028.066.938.066 1.636v12.453zM309.66 127.638h10.135l-4.991-9.378zm-10.355 9.204 13.09-23.053h5.189l13.266 23.053h-6.042l-2.78-5.038H307.36l-2.693 5.038zM338.293 136.842v-23.053h5.385v18.713h17.36v4.34zM414.41 136.842l-13.445-23.053h6.183l9.418 16.663 8.978-16.663h5.391l-12.785 23.053zM437.25 136.842v-23.053h5.414v23.053zM459.96 132.502h6.997q5.59 0 7.922-1.723t2.332-5.693q0-3.533-1.936-5.343-1.936-1.832-5.721-1.832h-9.594zm-5.414 4.34v-23.053h14.964q6.403 0 9.836 2.966 3.455 2.966 3.455 8.419 0 3.228-1.343 5.823-1.342 2.574-3.784 4.057-1.519.937-3.785 1.374-2.245.414-5.766.414zM492.725 136.842v-23.053h23.81v3.926h-18.397v5.147h10.738v3.926h-10.738v5.714h18.616v4.34zM526.26 119.241q0-3.14 1.188-4.296 1.189-1.156 4.577-1.156h17.12q3.389 0 4.577 1.156 1.188 1.156 1.188 4.296v12.149q0 3.162-1.188 4.318-1.188 1.134-4.577 1.134h-17.12q-3.388 0-4.577-1.134-1.188-1.156-1.188-4.318zm5.413 13.26h17.846v-14.59h-17.846zM623.881 117.824H608.82v4.95h14.344q3.374 0 4.549 1.157 1.197 1.155 1.197 4.296v3.163q0 3.14-1.197 4.296-1.175 1.156-4.55 1.156H608.95q-3.373 0-4.57-1.156-1.176-1.156-1.176-4.296v-.633l4.723-.981v2.726h16.26v-5.256h-14.344q-3.352 0-4.527-1.156-1.176-1.156-1.176-4.297v-2.552q0-3.14 1.176-4.296 1.175-1.156 4.527-1.156h13.06q3.243 0 4.462 1.112 1.24 1.113 1.24 3.948v.48l-4.723 1.112zM646.43 136.842v-10.316l-11.949-12.737h7.14l7.9 8.855 7.924-8.855h6.29l-11.906 12.606v10.447zM689.898 117.824h-15.062v4.95h14.344q3.374 0 4.549 1.157 1.197 1.155 1.197 4.296v3.163q0 3.14-1.197 4.296-1.175 1.156-4.55 1.156h-14.213q-3.373 0-4.57-1.156-1.176-1.156-1.176-4.296v-.633l4.723-.981v2.726h16.26v-5.256h-14.344q-3.352 0-4.528-1.156-1.175-1.156-1.175-4.297v-2.552q0-3.14 1.175-4.296 1.176-1.156 4.528-1.156h13.06q3.243 0 4.462 1.112 1.24 1.113 1.24 3.948v.48l-4.723 1.112zM716.736 117.911v18.931h-5.355v-18.931h-10.556v-4.122h26.51v4.122zM733.888 136.842v-23.053h23.55v3.926h-18.196v5.147h10.622v3.926h-10.622v5.714h18.414v4.34zM767.495 136.842v-23.053h4.331l10.84 13.936 10.6-13.936h4.288v23.053h-4.963V122.6q0-.414.044-1.047.065-.632.152-1.417-.435.894-.762 1.483-.326.567-.588.938l-8.64 11.515h-1.067l-8.663-11.56q-.48-.653-.827-1.22-.327-.59-.544-1.135.065.72.087 1.309.043.589.043 1.134v14.242z"/>
    </g>
</svg>
