<svg height="159.327" viewBox="0 0 1675.757 223.058" width="1196.97" xmlns="http://www.w3.org/2000/svg">
    <text fill="#fff" fill-opacity=".4" font-family="TrasksHand" font-size="2.8" stroke-width="3.5" x="965.263" y="133.223" transform="translate(-39.237 -44.65)"><tspan x="965.263" y="133.223">John Loreth 2022</tspan></text>
    <g fill="#010180" stroke="#0268d0" stroke-width="7">
        <path d="M930.633 66.413h114.738q20.08 0 34.627 15.571 14.547 15.367 14.547 36.88 0 21.719-14.547 37.086-12.293 13.113-28.685 14.957l43.232 59.418h-59.008l-42.822-59.009h-3.073v59.009h-59.009zm59.009 39.339v26.226h32.782q5.327 0 9.22-3.688 3.893-3.893 3.893-9.425 0-5.328-3.893-9.22-3.893-3.893-9.22-3.893z" transform="matrix(.96314 0 0 1.03828 -39.237 -44.65)"/>
        <path d="M1053.221 239.845V69.16h143.377v44.378h-75.102v17.069h75.102v47.792h-75.102v17.069h75.102v44.378z" transform="matrix(1.00295 0 0 .99706 -39.237 -44.65)"/>
        <path d="M1176.197 119V70.37h159.783V119h-48.63v125.046h-62.523V119z" transform="matrix(1.02051 0 0 .9799 -39.237 -44.65)"/>
        <path d="M1416.543 66.413h114.739q20.079 0 34.626 15.571 14.547 15.367 14.547 36.88 0 21.719-14.547 37.086-12.293 13.113-28.684 14.957l43.231 59.418h-59.008l-42.822-59.009h-3.073v59.009h-59.008zm59.009 39.339v26.226h32.782q5.327 0 9.22-3.688 3.893-3.893 3.893-9.425 0-5.328-3.893-9.22-3.893-3.893-9.22-3.893z" transform="matrix(.96314 0 0 1.03828 -39.237 -44.65)"/>
        <path d="M1557.582 148.748q0-38.138 26.503-64.209 26.502-26.287 68.303-26.287 42.23 0 68.733 24.132 26.502 24.133 27.795 66.364 0 38.353-28.441 65.286-28.442 26.933-68.087 26.933-39.862 0-67.441-26.933-27.364-26.933-27.364-65.286zm74.983-25.425q-14.006 9.696-19.392 23.701-5.387 14.005 3.232 26.718 9.05 12.281 23.916 11.85 15.083-.43 28.873-10.557 14.005-9.265 19.392-23.27 5.386-14.221-3.017-26.934-9.05-12.497-24.132-11.85-14.867.646-28.872 10.342z" transform="matrix(.97865 0 0 1.02182 -39.237 -44.65)"/>
    </g>
    <path d="M119.685.018c-5.846-.053-11.64.011-17.381.19C75.36-.373 51.069 5.155 31.659 18.645a22.489 22.489 0 0 0-.088.061C12.518 32.083.07 53.402.007 76.099c-.316 22.804 10.321 44.669 28.324 58.337a22.489 22.489 0 0 0-3.496 5.723l-14.6 41.834a22.489 22.489 0 0 0 19.012 29.787c33.484 3.321 60.272 4.29 81.652 2.557 22.895.354 44.777-6.446 62.38-20.147 5.997-4.632 11.136-10.16 15.437-16.216 3.194 4.262 6.6 8.398 10.44 12.244a22.489 22.489 0 0 0 .062.062c21.433 21.303 49.796 32.762 80.375 32.762 29.018 0 56.07-10.46 77.506-29.68v3.838a22.489 22.489 0 0 0 22.486 22.486h53.639a22.489 22.489 0 0 0 22.048-20.851l5.29 9.396a22.489 22.489 0 0 0 19.595 11.455h73.754a22.489 22.489 0 0 0 6.078-1.628 22.489 22.489 0 0 0 6.08 1.628h75.957a22.489 22.489 0 0 0 22.487-22.486v-2.55c19.67 16.973 44.787 26.57 72.545 28.36a22.489 22.489 0 0 0 1.447.048c26.364 0 49.915-2.643 70.795-8.381a22.489 22.489 0 0 0 15.119-29.52l-27.154-73.047a22.489 22.489 0 0 0-5.457-7.777 22.489 22.489 0 0 0 6.16-9.613l18.525-62.944A22.489 22.489 0 0 0 798.817 3.28C785.701.973 771.044-.036 754.585.02c-5.357.019-10.918.16-16.66.407-27.735.628-53.321 10.373-73.412 28.08v-5.002a22.489 22.489 0 0 0-22.487-22.487H566.07a22.489 22.489 0 0 0-6.08 1.63 22.489 22.489 0 0 0-6.078-1.63h-53.639a22.489 22.489 0 0 0-19.906 12.862l-.07-.147a22.489 22.489 0 0 0-20.252-12.715h-80.459a22.489 22.489 0 0 0-22.486 22.487v3.191C336.245 9.035 309.22.157 279.593.157c-31.442 0-60.227 10.983-81.287 32.225-2.936 2.941-5.627 6.054-8.174 9.26l2.777-9.079A22.489 22.489 0 0 0 174.112 3.66C155.485 1.402 137.342.181 119.685.02zm58.683 82.674.268.221c-.055-.045-.114-.084-.168-.129-.035-.029-.065-.063-.1-.092zm113.084 15.53c.185.1.642.881 1.047 1.53 2.025 3.113 1.966 2.572.668 6.046-1.738 4.572-4.389 8.091-10.055 11.906a22.489 22.489 0 0 0-.904.64c-5.77 4.313-10.112 5.68-14.814 5.817a22.489 22.489 0 0 0-.008 0c-2.715.08-2.23.328-3.624-1.73-1.946-2.882-1.846-2.239-.652-5.399 1.764-4.668 4.594-8.505 10.469-12.644 6.062-4.272 10.832-5.775 15.666-5.989h-.014c1.561-.068 1.945-.328 2.22-.177zm464.045 1.187c1.975 1.41 2.832 2.4 2.188 1.434a22.489 22.489 0 0 0 3.474 2.922 22.489 22.489 0 0 0-1.59 1.03c-2.682 2.943-8.122 7.753-15.76 13.415-5.202 3.527-8.827 4.433-12.824 4.31l.346.014c-1.586-.073-1.723.008-1.863.076a22.489 22.489 0 0 0-2.356-3.091c-.143-.157-.17-.106-.279-.198.906-2.964 2.853-6.264 8.11-10.506a22.489 22.489 0 0 0 .275-.224c6.276-5.23 11.48-7.632 15.763-8.545a22.489 22.489 0 0 0 .342-.076c2.507-.576 3.695-.559 4.174-.56zm-127.893 11.906c0 .094.012.184.012.278.002.083-.008.164-.006.248zM95.946 123.778c.704.24-1.53.392-1.18.348.515-.231.957-.358 1.18-.348zm106.01 11.008.023 1.037c0-.213-.029-.424-.03-.637-.006-.134.013-.266.007-.4z" fill="#010080"/>
    <g fill="#fec000" stroke="#fd6000" stroke-width="7">
        <path d="M59.115 126.24q0-24.743 21.085-40.88 21.3-16.136 55.94-15.06 31.412-1.076 65.621 3.442l-12.264 43.676q-13.985-1.936-36.79-1.721-22.592.215-24.743 7.315-2.152 7.1 5.594 9.682 7.745 2.366 26.894 3.872 20.009 1.507 34.424 14.63 14.63 12.91 14.63 37.222 1.076 25.388-19.148 42.385-20.01 16.997-47.334 16.137-27.539 2.581-75.303-2.582l13.985-43.676q54.434 2.367 58.952-5.164 4.733-7.53-4.088-10.973-7.96-2.797-23.237-2.797-15.275-.215-33.994-12.048-20.654-15.491-20.224-43.46z" transform="matrix(1.05117 0 0 .95132 -39.237 -44.65)"/>
        <path d="M230.143 154.049q0-36.81 25.58-61.974 25.58-25.371 65.924-25.371 40.762 0 66.341 23.292 25.58 23.292 26.828 64.053 0 37.018-27.452 63.013-27.451 25.996-65.717 25.996-38.473 0-65.093-25.996-26.411-25.995-26.411-63.013zm72.372-24.54q-13.518 9.358-18.717 22.876-5.2 13.518 3.12 25.788 8.734 11.854 23.083 11.438 14.558-.416 27.868-10.19 13.517-8.943 18.717-22.46 5.199-13.726-2.912-25.996-8.734-12.062-23.292-11.438-14.35.624-27.867 9.982z" transform="matrix(.99802 0 0 1.00198 -39.237 -44.65)"/>
        <path d="M426.344 237.583V66.95h81.903l40.951 81.903V66.951H603.8v170.632h-75.078l-47.776-81.903v81.903z" transform="matrix(.98908 0 0 1.01104 -39.237 -44.65)"/>
        <path d="M578.916 252.874V71.26h72.646v181.614z" transform="matrix(1.05274 0 0 .9499 -39.237 -44.65)"/>
        <path d="M689.328 155.964q-.842-35.997 24.63-61.68 25.471-25.892 63.784-26.734 33.681-1.473 56.417 2.526l-18.525 62.943q-2.947-4.421-10.105-8.842-7.157-4.42-19.998-1.473-12.841 2.736-25.472 13.262-11.999 9.683-15.578 21.682-3.578 12 5.263 21.683 6.105 9.683 19.788 10.315 13.683.42 26.524-8.42 12.841-9.474 19.367-16.63l27.156 73.046q-27.577 7.578-64.837 7.578-39.155-2.526-63.785-26.945-24.63-24.419-24.63-62.31z" transform="matrix(1.00684 0 0 .9932 -39.237 -44.65)"/>
    </g>
</svg>
