<?xml version="1.0" encoding="UTF-8" standalone="no"?>
<!-- Created by ERK -->

<svg
   width="160mm"
   height="80mm"
   viewBox="0 0 160 79.999999"
   version="1.1"
   id="svg1"
   inkscape:version="1.4 (86a8ad7, 2024-10-11)"
   xml:space="preserve"
   sodipodi:docname="sonic3-air.svg"
   xmlns:inkscape="http://www.inkscape.org/namespaces/inkscape"
   xmlns:sodipodi="http://sodipodi.sourceforge.net/DTD/sodipodi-0.dtd"
   xmlns="http://www.w3.org/2000/svg"
   xmlns:svg="http://www.w3.org/2000/svg"><sodipodi:namedview
     id="namedview1"
     pagecolor="#ffffff"
     bordercolor="#000000"
     borderopacity="0.25"
     inkscape:showpageshadow="2"
     inkscape:pageopacity="0.0"
     inkscape:pagecheckerboard="true"
     inkscape:deskcolor="#d1d1d1"
     inkscape:document-units="mm"
     inkscape:zoom="2.8284271"
     inkscape:cx="303.87914"
     inkscape:cy="73.008776"
     inkscape:window-width="3840"
     inkscape:window-height="2066"
     inkscape:window-x="-11"
     inkscape:window-y="-11"
     inkscape:window-maximized="1"
     inkscape:current-layer="svg1" /><defs
     id="defs1"><marker
       id="DistanceX"
       orient="auto"
       refX="0"
       refY="0"
       style="overflow:visible"><path
         d="M 3,-3 -3,3 M 0,-5 V 5"
         style="stroke:#000000;stroke-width:0.5"
         id="path1" /></marker><pattern
       id="Hatch"
       patternUnits="userSpaceOnUse"
       width="8"
       height="8"
       x="0"
       y="0"><path
         d="M8 4 l-4,4"
         stroke="#000000"
         stroke-width="0.25"
         linecap="square"
         id="path2" /><path
         d="M6 2 l-4,4"
         stroke="#000000"
         stroke-width="0.25"
         linecap="square"
         id="path3" /><path
         d="M4 0 l-4,4"
         stroke="#000000"
         stroke-width="0.25"
         linecap="square"
         id="path4" /></pattern><symbol
       id="*Model_Space" /><symbol
       id="*Paper_Space" /><symbol
       id="*Paper_Space0" /></defs><g
     id="g211"
     inkscape:label="Logo"
     transform="translate(17.740052,12.921878)"><g
       id="g6"
       inkscape:label="text"
       style="display:none"><text
         xml:space="preserve"
         style="font-style:normal;font-variant:normal;font-weight:normal;font-stretch:normal;font-size:5.84311px;line-height:0;font-family:NiseSegaSonic;-inkscape-font-specification:NiseSegaSonic;text-align:start;letter-spacing:0px;word-spacing:0px;writing-mode:lr-tb;direction:ltr;text-anchor:start;opacity:0.8;fill:#000000;stroke-width:31.8013;stroke-linecap:square;stroke-miterlimit:0"
         x="20.450832"
         y="47.102505"
         id="text3"
         transform="scale(0.92941751,1.0759427)"
         inkscape:label="AngelIsland Revisited"><tspan
           sodipodi:role="line"
           id="tspan3"
           style="stroke-width:31.8013"
           x="20.450832"
           y="47.102505">ANGEL ISLAND REVISITED</tspan></text><text
         xml:space="preserve"
         style="font-style:normal;font-variant:normal;font-weight:normal;font-stretch:normal;font-size:23.7526px;line-height:0;font-family:NiseSegaSonic;-inkscape-font-specification:NiseSegaSonic;text-align:start;letter-spacing:0px;word-spacing:0px;writing-mode:lr-tb;direction:ltr;text-anchor:start;opacity:0.8;fill:#000000;stroke-width:129.275;stroke-linecap:square;stroke-miterlimit:0"
         x="2.3721611"
         y="24.176451"
         id="text4"
         transform="scale(1.0005521,0.9994482)"
         inkscape:label="Sonic"><tspan
           sodipodi:role="line"
           id="tspan4"
           style="stroke-width:129.274"
           x="2.3721611"
           y="24.176451">SONIC</tspan></text></g><rect
       style="opacity:1;fill:#000000;fill-opacity:1;stroke-width:0.960001;stroke-linecap:square;stroke-miterlimit:0;stroke-dasharray:none"
       id="rect12"
       width="95.521378"
       height="11.301281"
       x="14.795"
       y="42.778999"
       ry="4.1456966"
       rx="4.2592764"
       inkscape:label="rect1" /><rect
       style="opacity:1;fill:#002167;fill-opacity:1;stroke-width:0.960001;stroke-linecap:square;stroke-miterlimit:0;stroke-dasharray:none"
       id="rect11"
       width="95.521378"
       height="11.301281"
       x="14.595119"
       y="42.578999"
       ry="4.1456966"
       rx="4.2592764"
       inkscape:label="rect2" /><path
       d="m 100.99836,45.767749 v 4.911845 h 2.41846 c 0.66116,0 1.15799,-0.239421 1.49034,-0.718302 0.33589,-0.482975 0.50385,-1.062017 0.50385,-1.737362 0,-0.671253 -0.16796,-1.248703 -0.50385,-1.731677 -0.33235,-0.482975 -0.82918,-0.724504 -1.49034,-0.724504 z m 1.52755,1.375627 h 0.48783 c 0.31114,0 0.53056,0.106523 0.65784,0.31936 0.12726,0.212835 0.19069,0.466497 0.19069,0.761194 0,0.298789 -0.0634,0.554559 -0.19069,0.767395 -0.12728,0.208748 -0.3467,0.313159 -0.65784,0.313159 h -0.48783 z"
       style="font-size:5.84311px;line-height:0;font-family:NiseSegaSonic;-inkscape-font-specification:NiseSegaSonic;letter-spacing:0px;word-spacing:0px;display:inline;fill:#fbb313;fill-opacity:1;stroke:#000000;stroke-width:0.1;stroke-linecap:square;stroke-miterlimit:8.2;stroke-dasharray:none;stroke-opacity:1;paint-order:fill markers stroke"
       id="path57" /><path
       d="m 97.095239,45.767749 v 4.911845 h 3.563611 v -1.276925 h -1.866557 v -0.491443 h 1.866557 V 47.536117 H 98.792293 V 47.04519 h 1.866557 v -1.277441 z"
       style="font-size:5.84311px;line-height:0;font-family:NiseSegaSonic;-inkscape-font-specification:NiseSegaSonic;letter-spacing:0px;word-spacing:0px;display:inline;fill:#fbb313;fill-opacity:1;stroke:#000000;stroke-width:0.1;stroke-linecap:square;stroke-miterlimit:8.2;stroke-dasharray:none;stroke-opacity:1;paint-order:fill markers stroke"
       id="path56" /><path
       d="m 92.852604,45.767749 v 1.375627 h 1.187524 v 3.536218 h 1.527555 v -3.536218 h 1.188041 v -1.375627 z"
       style="font-size:5.84311px;line-height:0;font-family:NiseSegaSonic;-inkscape-font-specification:NiseSegaSonic;letter-spacing:0px;word-spacing:0px;display:inline;fill:#fbb313;fill-opacity:1;stroke:#000000;stroke-width:0.1;stroke-linecap:square;stroke-miterlimit:8.2;stroke-dasharray:none;stroke-opacity:1;paint-order:fill markers stroke"
       id="path55" /><path
       d="m 90.816035,45.767749 v 4.911845 h 1.697054 v -4.911845 z"
       style="font-size:5.84311px;line-height:0;font-family:NiseSegaSonic;-inkscape-font-specification:NiseSegaSonic;letter-spacing:0px;word-spacing:0px;display:inline;fill:#fbb313;fill-opacity:1;stroke:#000000;stroke-width:0.1;stroke-linecap:square;stroke-miterlimit:8.2;stroke-dasharray:none;stroke-opacity:1;paint-order:fill markers stroke"
       id="path54" /><path
       d="m 84.695995,45.767749 v 4.911845 h 1.697055 v -4.911845 z"
       style="font-size:5.84311px;line-height:0;font-family:NiseSegaSonic;-inkscape-font-specification:NiseSegaSonic;letter-spacing:0px;word-spacing:0px;display:inline;fill:#fbb313;fill-opacity:1;stroke:#000000;stroke-width:0.1;stroke-linecap:square;stroke-miterlimit:8.2;stroke-dasharray:none;stroke-opacity:1;paint-order:fill markers stroke"
       id="path53" /><path
       d="m 79.604317,45.767749 1.527555,4.911845 h 2.036568 l 1.527555,-4.911845 h -1.69757 l -0.848527,3.340365 -0.848527,-3.340365 z"
       style="font-size:5.84311px;line-height:0;font-family:NiseSegaSonic;-inkscape-font-specification:NiseSegaSonic;letter-spacing:0px;word-spacing:0px;display:inline;fill:#fbb313;fill-opacity:1;stroke:#000000;stroke-width:0.1;stroke-linecap:square;stroke-miterlimit:8.2;stroke-dasharray:none;stroke-opacity:1;paint-order:fill markers stroke"
       id="path52" /><path
       d="m 75.870694,45.767749 v 4.911845 h 3.564124 v -1.276925 h -1.86707 v -0.491443 h 1.86707 v -1.375109 h -1.86707 V 47.04519 h 1.86707 v -1.277441 z"
       style="font-size:5.84311px;line-height:0;font-family:NiseSegaSonic;-inkscape-font-specification:NiseSegaSonic;letter-spacing:0px;word-spacing:0px;display:inline;fill:#fbb313;fill-opacity:1;stroke:#000000;stroke-width:0.1;stroke-linecap:square;stroke-miterlimit:8.2;stroke-dasharray:none;stroke-opacity:1;paint-order:fill markers stroke"
       id="path51" /><path
       d="m 71.288545,45.767749 v 4.911845 H 72.8161 v -1.768368 h 0.07958 l 1.10846,1.768368 h 1.527555 l -1.119312,-1.780253 c 0.282849,-0.03684 0.530454,-0.186599 0.742591,-0.448552 0.251028,-0.306975 0.376721,-0.677184 0.376721,-1.111043 0,-0.429765 -0.125693,-0.798384 -0.376721,-1.105359 -0.251026,-0.311068 -0.550095,-0.466638 -0.896584,-0.466638 z m 1.527555,1.179256 h 0.848527 c 0.09193,0 0.171567,0.0385 0.238746,0.116272 0.06717,0.07777 0.100769,0.170048 0.100769,0.276469 0,0.110511 -0.03359,0.204384 -0.100769,0.282153 -0.06718,0.07367 -0.146817,0.110588 -0.238746,0.110588 H 72.8161 Z"
       style="font-size:5.84311px;line-height:0;font-family:NiseSegaSonic;-inkscape-font-specification:NiseSegaSonic;letter-spacing:0px;word-spacing:0px;display:inline;fill:#fbb313;fill-opacity:1;stroke:#000000;stroke-width:0.1;stroke-linecap:square;stroke-miterlimit:8.2;stroke-dasharray:none;stroke-opacity:1;paint-order:fill markers stroke"
       id="path50" /><path
       d="m 63.821301,45.767749 v 4.911845 h 2.418457 c 0.661158,0 1.158001,-0.239421 1.490348,-0.718302 0.335883,-0.482975 0.503845,-1.062017 0.503845,-1.737362 0,-0.671253 -0.167962,-1.248703 -0.503845,-1.731677 -0.332347,-0.482975 -0.82919,-0.724504 -1.490348,-0.724504 z m 1.527555,1.375627 h 0.487826 c 0.311132,0 0.530559,0.106523 0.65784,0.31936 0.127285,0.212835 0.190687,0.466497 0.190687,0.761194 0,0.298789 -0.06341,0.554559 -0.190687,0.767395 -0.127281,0.208748 -0.346708,0.313159 -0.65784,0.313159 h -0.487826 z"
       style="font-size:5.84311px;line-height:0;font-family:NiseSegaSonic;-inkscape-font-specification:NiseSegaSonic;letter-spacing:0px;word-spacing:0px;display:inline;fill:#fbb313;fill-opacity:1;stroke:#000000;stroke-width:0.1;stroke-linecap:square;stroke-miterlimit:8.2;stroke-dasharray:none;stroke-opacity:1;paint-order:fill markers stroke"
       id="path49" /><path
       d="m 59.069653,50.679594 h 1.35754 v -2.357479 l 1.188041,2.357479 h 1.867069 v -4.911845 h -1.358056 v 2.357996 l -1.018026,-2.357996 h -2.036568 z"
       style="font-size:5.84311px;line-height:0;font-family:NiseSegaSonic;-inkscape-font-specification:NiseSegaSonic;letter-spacing:0px;word-spacing:0px;display:inline;fill:#fbb313;fill-opacity:1;stroke:#000000;stroke-width:0.1;stroke-linecap:square;stroke-miterlimit:8.2;stroke-dasharray:none;stroke-opacity:1;paint-order:fill markers stroke"
       id="path48" /><path
       d="m 55.506046,45.767749 -1.527555,4.911845 h 1.697054 l 0.169498,-0.785999 H 57.2031 l 0.169499,0.785999 h 1.697054 l -1.527556,-4.911845 z m 1.018026,1.571997 0.339514,1.17874 h -0.679029 z"
       style="font-size:5.84311px;line-height:0;font-family:NiseSegaSonic;-inkscape-font-specification:NiseSegaSonic;letter-spacing:0px;word-spacing:0px;display:inline;fill:#fbb313;fill-opacity:1;stroke:#000000;stroke-width:0.1;stroke-linecap:square;stroke-miterlimit:8.2;stroke-dasharray:none;stroke-opacity:1;paint-order:fill markers stroke"
       id="path47" /><path
       d="m 50.074853,45.767749 v 4.911845 h 3.733622 v -1.37511 h -2.036051 v -3.536735 z"
       style="font-size:5.84311px;line-height:0;font-family:NiseSegaSonic;-inkscape-font-specification:NiseSegaSonic;letter-spacing:0px;word-spacing:0px;display:inline;fill:#fbb313;fill-opacity:1;stroke:#000000;stroke-width:0.1;stroke-linecap:square;stroke-miterlimit:8.2;stroke-dasharray:none;stroke-opacity:1;paint-order:fill markers stroke"
       id="path46" /><path
       d="m 43.954813,45.767749 v 4.911845 h 1.697054 v -4.911845 z"
       style="font-size:5.84311px;line-height:0;font-family:NiseSegaSonic;-inkscape-font-specification:NiseSegaSonic;letter-spacing:0px;word-spacing:0px;display:inline;fill:#fbb313;fill-opacity:1;stroke:#000000;stroke-width:0.1;stroke-linecap:square;stroke-miterlimit:8.2;stroke-dasharray:none;stroke-opacity:1;paint-order:fill markers stroke"
       id="path45" /><path
       d="m 37.166597,45.767749 v 4.911845 h 3.733622 v -1.37511 h -2.036568 v -3.536735 z"
       style="font-size:5.84311px;line-height:0;font-family:NiseSegaSonic;-inkscape-font-specification:NiseSegaSonic;letter-spacing:0px;word-spacing:0px;display:inline;fill:#fbb313;fill-opacity:1;stroke:#000000;stroke-width:0.1;stroke-linecap:square;stroke-miterlimit:8.2;stroke-dasharray:none;stroke-opacity:1;paint-order:fill markers stroke"
       id="path44" /><path
       d="m 33.263476,45.767749 v 4.911845 h 3.563607 l -5.17e-4,-1.276925 h -1.866553 l 5.17e-4,-0.491443 h 1.866553 V 47.536117 H 34.96053 V 47.04519 h 1.866553 v -1.277441 z"
       style="font-size:5.84311px;line-height:0;font-family:NiseSegaSonic;-inkscape-font-specification:NiseSegaSonic;letter-spacing:0px;word-spacing:0px;display:inline;fill:#fbb313;fill-opacity:1;stroke:#000000;stroke-width:0.1;stroke-linecap:square;stroke-miterlimit:8.2;stroke-dasharray:none;stroke-opacity:1;paint-order:fill markers stroke"
       id="path43" /><path
       d="m 23.929162,50.679594 h 1.358057 v -2.357479 l 1.187524,2.357479 h 1.86707 v -4.911845 h -1.35754 v 2.357996 L 25.96573,45.767749 h -2.036568 z"
       style="font-size:5.84311px;line-height:0;font-family:NiseSegaSonic;-inkscape-font-specification:NiseSegaSonic;letter-spacing:0px;word-spacing:0px;display:inline;fill:#fbb313;fill-opacity:1;stroke:#000000;stroke-width:0.1;stroke-linecap:square;stroke-miterlimit:8.2;stroke-dasharray:none;stroke-opacity:1;paint-order:fill markers stroke"
       id="path42" /><path
       d="M 20.365555,45.767749 18.838,50.679594 h 1.697054 l 0.170015,-0.785999 h 1.35754 l 0.169499,0.785999 h 1.697054 l -1.527039,-4.911845 z m 1.018026,1.571997 0.339514,1.17874 h -0.679028 z"
       style="font-size:5.84311px;line-height:0;font-family:NiseSegaSonic;-inkscape-font-specification:NiseSegaSonic;letter-spacing:0px;word-spacing:0px;display:inline;fill:#fbb313;fill-opacity:1;stroke:#000000;stroke-width:0.1;stroke-linecap:square;stroke-miterlimit:8.2;stroke-dasharray:none;stroke-opacity:1;paint-order:fill markers stroke"
       id="path41" /><path
       d="m 88.641491,45.688167 c -0.569232,-0.02047 -1.028702,0.122973 -1.378727,0.429948 -0.34649,0.306975 -0.519865,0.695641 -0.519865,1.166337 -0.0071,0.532091 0.159259,0.945538 0.498678,1.240235 0.307597,0.225119 0.586646,0.339559 0.837674,0.343648 0.251028,0 0.442275,0.02689 0.573092,0.0801 0.144959,0.06549 0.178552,0.169905 0.100769,0.31316 -0.07425,0.143259 -0.558633,0.192306 -1.453141,0.147277 l -0.345199,1.245919 c 0.784905,0.09822 1.40366,0.123014 1.856218,0.0739 0.449022,0.01637 0.838042,-0.13709 1.166854,-0.460437 0.332345,-0.323348 0.49,-0.726254 0.472322,-1.209229 0,-0.462509 -0.120281,-0.816887 -0.360701,-1.062467 -0.236886,-0.249676 -0.519716,-0.388894 -0.848527,-0.417546 -0.314669,-0.02865 -0.535727,-0.06556 -0.663009,-0.110588 -0.127284,-0.04912 -0.173331,-0.140883 -0.137976,-0.275952 0.03536,-0.135074 0.238544,-0.204684 0.609782,-0.208773 0.374774,-0.0041 0.677107,0.01226 0.906921,0.04909 l 0.302307,-1.246435 c -0.562161,-0.08596 -1.101274,-0.11865 -1.617472,-0.09819 z"
       style="font-size:5.84311px;line-height:0;font-family:NiseSegaSonic;-inkscape-font-specification:NiseSegaSonic;letter-spacing:0px;word-spacing:0px;display:inline;fill:#fbb313;fill-opacity:1;stroke:#000000;stroke-width:0.1;stroke-linecap:square;stroke-miterlimit:8.2;stroke-dasharray:none;stroke-opacity:1;paint-order:fill markers stroke"
       id="path40" /><path
       d="m 47.900825,45.688167 c -0.569232,-0.02047 -1.029218,0.122973 -1.379244,0.429948 -0.346489,0.306975 -0.519348,0.695641 -0.519348,1.166337 -0.0071,0.532091 0.158743,0.945538 0.498161,1.240235 0.307597,0.225119 0.587164,0.339559 0.838192,0.343648 0.251027,0 0.441757,0.02689 0.572575,0.0801 0.144958,0.06549 0.178552,0.169905 0.100769,0.31316 -0.07425,0.143259 -0.558634,0.192306 -1.453142,0.147277 l -0.344681,1.245919 c 0.784904,0.09822 1.40366,0.123014 1.856217,0.0739 0.449022,0.01637 0.838043,-0.13709 1.166854,-0.460437 0.332346,-0.323348 0.489483,-0.726254 0.471806,-1.209229 0,-0.462509 -0.119764,-0.816887 -0.360185,-1.062467 -0.236885,-0.249676 -0.520233,-0.388894 -0.849044,-0.417546 -0.314668,-0.02865 -0.53521,-0.06556 -0.662492,-0.110588 -0.127283,-0.04912 -0.173331,-0.140883 -0.137976,-0.275952 0.03536,-0.135074 0.238543,-0.204684 0.609782,-0.208773 0.374774,-0.0041 0.677107,0.01226 0.906922,0.04909 l 0.302307,-1.246435 c -0.562161,-0.08596 -1.101274,-0.11865 -1.617473,-0.09819 z"
       style="font-size:5.84311px;line-height:0;font-family:NiseSegaSonic;-inkscape-font-specification:NiseSegaSonic;letter-spacing:0px;word-spacing:0px;display:inline;fill:#fbb313;fill-opacity:1;stroke:#000000;stroke-width:0.1;stroke-linecap:square;stroke-miterlimit:8.2;stroke-dasharray:none;stroke-opacity:1;paint-order:fill markers stroke"
       id="path39" /><path
       d="m 31.714733,45.568278 c -0.240421,-0.01228 -0.502117,-0.01123 -0.784965,0.0031 -0.629337,0.01637 -1.161406,0.276358 -1.596285,0.779797 -0.434879,0.499346 -0.652156,1.098953 -0.652156,1.798857 0,0.703996 0.217277,1.301495 0.652156,1.792655 0.434879,0.49116 0.966948,0.736906 1.596285,0.736906 0.55509,0.0041 0.959834,-0.01225 1.214396,-0.04909 0.2581,-0.03684 0.518163,-0.09431 0.779798,-0.172082 v -2.529562 h -1.485181 v 0.884184 c -0.254564,0.212838 -0.494607,0.317248 -0.720886,0.313159 -0.226279,-0.0082 -0.405067,-0.106277 -0.535885,-0.294555 -0.134355,-0.188278 -0.171209,-0.399219 -0.111104,-0.63252 0.06011,-0.233301 0.197739,-0.452158 0.413411,-0.656807 0.212136,-0.20465 0.436459,-0.333851 0.673344,-0.387057 0.236886,-0.0573 0.429764,0.01653 0.57826,0.221175 0.03536,0.04911 0.07058,0.100274 0.105936,0.153479 l 0.530717,-1.884639 c -0.197994,-0.03888 -0.41742,-0.06472 -0.657841,-0.077 z"
       style="font-size:5.84311px;line-height:0;font-family:NiseSegaSonic;-inkscape-font-specification:NiseSegaSonic;letter-spacing:0px;word-spacing:0px;display:inline;fill:#fbb313;fill-opacity:1;stroke:#000000;stroke-width:0.1;stroke-linecap:square;stroke-miterlimit:8.2;stroke-dasharray:none;stroke-opacity:1;paint-order:fill markers stroke"
       id="path38" /><g
       id="g84"
       style="display:inline;fill:#fbb313;fill-opacity:1;stroke:#000000;stroke-width:0.1;stroke-linecap:square;stroke-miterlimit:8.2;stroke-dasharray:none;stroke-opacity:1;paint-order:fill markers stroke"
       inkscape:label="Angel Island Revisited" /><path
       id="path91"
       style="-inkscape-font-specification:NiseSegaSonic;fill:#00246b;fill-opacity:1;stroke:none;stroke-width:4;stroke-linecap:square;stroke-miterlimit:10"
       d="m 30.753678,3.1367594 c -3.277431,0 -6.295599,1.110771 -8.496122,3.289205 -0.482127,0.474113 -0.916443,0.9855105 -1.304313,1.5265218 L 22.101493,3.8669474 19.814294,3.5661906 C 17.924207,3.3168321 15.919955,3.1855492 14.14849,3.1677653 c -0.547861,-0.00551 -1.089868,0.00302 -1.626774,0.019637 -0.0014,-4.24e-5 -0.0027,4.21e-5 -0.0041,0 C 9.7711294,3.102889 7.3006955,3.7159891 5.3769328,5.1717773 l -0.00413,0.00413 -0.00362,0.00207 c -1.9544842,1.4941284 -2.991322,3.7704335 -2.996201,6.0642307 -0.029652,2.212459 0.9242136,4.216908 2.4980387,5.654435 l -2.6520345,8.279081 2.4391276,0.263839 c 3.3739478,0.364351 6.2789904,0.346617 8.5488324,0.367726 2.307308,-0.112132 4.505181,-0.783153 6.238379,-2.252364 0.687423,-0.578161 1.257905,-1.259936 1.696537,-2.010215 0.296019,0.387927 0.619634,0.762115 0.979268,1.115695 l 0.0021,0.0018 0.0036,0.0036 c 2.296236,2.239945 5.33299,3.173966 8.427909,3.173966 3.166437,0 6.128029,-1.160072 8.416024,-3.324344 0.336875,-0.31867 0.648367,-0.653954 0.939477,-1.00149 v 4.296379 h 9.941512 v -2.474268 l 1.228349,2.474268 h 10.052617 1.35754 10.070186 v -3.949113 c 0.200134,0.229803 0.408742,0.45398 0.630969,0.668176 2.009423,1.936804 4.447559,3.081431 7.60367,3.279387 l 0.06253,0.0036 h 0.06253 c 2.857074,0 5.529695,-0.383242 7.698755,-0.962732 L 90.693172,24.296708 87.195194,14.128853 90.296814,3.8829671 88.062325,3.5000448 C 86.686647,3.2647625 85.135166,3.1604212 83.383024,3.166215 c -0.570646,0.00189 -1.164122,0.01523 -1.777669,0.040824 -0.0021,4.54e-5 -0.0035,0.00203 -0.0057,0.00207 C 78.424238,3.27842 75.552894,4.4332593 73.376902,6.5820298 73.089987,6.8634668 72.81829,7.15866 72.560429,7.4646606 V 3.1641479 H 62.490243 61.132703 52.54873 V 6.1231405 L 50.959163,3.1641479 H 39.910225 V 6.9308431 C 39.666115,6.6479876 39.403332,6.3777575 39.121126,6.1210734 36.924961,4.1235201 34.010613,3.1367593 30.753678,3.1367594 Z"
       sodipodi:nodetypes="sccccccccccccccccccccsscccccccccsccscccccsccccccccccccss"
       inkscape:label="SonicOutline" /><path
       d="m 14.127591,5.1673615 c -0.562171,-0.00565 -1.118203,0.00131 -1.668132,0.020128 -2.425716,-0.07525 -4.3843616,0.4513253 -5.8759503,1.5800701 -1.4765223,1.1287448 -2.2145273,2.758668 -2.2145273,4.4894084 -0.030133,1.956491 0.6776482,3.476469 2.1240372,4.560064 1.3107902,0.827746 2.5009453,1.048934 3.5706704,1.063983 1.069726,0 1.883597,0.09772 2.441059,0.29337 0.617729,0.2408 0.7607,0.624591 0.429236,1.151338 -0.316398,0.526748 -2.780715,0.707503 -6.5925532,0.541954 l -1.4688616,4.582708 c 3.3447747,0.361199 6.3153338,0.344508 8.3099988,0.370615 1.963061,-0.05556 3.571,-0.603734 4.97219,-1.792679 1.416256,-1.188944 2.086651,-2.671452 2.011319,-4.447344 0,-1.700642 -0.51227,-3.002395 -1.536795,-3.905391 -1.009459,-0.918045 -2.214857,-1.429935 -3.616046,-1.535285 -1.340924,-0.105348 -2.282609,-0.240538 -2.825005,-0.406087 -0.542396,-0.180599 -0.738412,-0.519328 -0.587746,-1.015976 0.150665,-0.496644 1.017076,-0.752337 2.599065,-0.76739 1.597054,-0.01505 3.085019,0.0447 4.064345,0.180149 L 19.552106,5.5482892 C 17.755418,5.3112528 15.814104,5.1842926 14.127591,5.1673615 Z"
       style="font-size:23.7526px;line-height:0;font-family:NiseSegaSonic;-inkscape-font-specification:NiseSegaSonic;letter-spacing:0px;word-spacing:0px;display:inline;opacity:1;fill:#fbb313;fill-opacity:1;stroke:#000000;stroke-width:0.5;stroke-linecap:square;stroke-miterlimit:0;stroke-dasharray:none;stroke-opacity:1"
       id="path8"
       sodipodi:nodetypes="ccccccccccccccccscccc"
       inkscape:label="S" /><path
       d="m 30.753032,5.1370605 c -2.846949,0 -5.28653,0.9225001 -7.091556,2.7108745 -1.805024,1.7737158 -2.792662,3.986328 -2.792662,6.580937 0,2.609267 0.789998,4.972447 2.653724,6.804797 1.878399,1.832351 4.316852,2.606181 7.031727,2.606181 2.700199,0 5.104005,-0.944201 7.041105,-2.776552 1.9371,-1.83235 2.905489,-4.053554 2.905489,-6.662821 C 40.412809,11.527351 39.580143,9.2417483 37.775119,7.5999617 35.970094,5.9581753 33.629332,5.1370605 30.753032,5.1370605 Z m 0.75385,5.7682615 c 0.909919,-0.0506 1.975721,0.325581 2.522305,1.0548 0.552865,0.737599 0.561242,1.861743 0.308292,2.748156 -0.28046,0.982816 -1.038643,1.730802 -1.898421,2.407751 -0.70582,0.55573 -1.555715,0.955292 -2.552807,1.044722 -0.897389,0.08049 -1.956749,-0.197207 -2.571074,-1.039269 -0.580927,-0.796283 -0.5529,-2.060593 -0.13868,-2.953752 0.41918,-0.903855 1.08513,-1.720812 1.888315,-2.305223 0.706978,-0.514409 1.567806,-0.908571 2.44207,-0.957185 z"
       style="font-size:23.7526px;line-height:0;font-family:NiseSegaSonic;-inkscape-font-specification:NiseSegaSonic;letter-spacing:0px;word-spacing:0px;display:inline;opacity:1;fill:#fbb313;fill-opacity:1;stroke:#000000;stroke-width:0.5;stroke-linecap:square;stroke-miterlimit:0;stroke-dasharray:none;stroke-opacity:1"
       id="path7"
       sodipodi:nodetypes="scscsscsssaassssas"
       inkscape:label="O" /><path
       d="m 41.910381,5.165 v 18.646455 h 5.941239 v -9.0026 l 4.469101,9.0026 h 8.169527 V 5.165 h -5.941239 v 8.902298 L 49.764,5.165 Z"
       style="font-size:23.7526px;line-height:0;font-family:NiseSegaSonic;-inkscape-font-specification:NiseSegaSonic;letter-spacing:0px;word-spacing:0px;display:inline;opacity:1;fill:#fbb313;fill-opacity:1;stroke:#000000;stroke-width:0.5;stroke-linecap:square;stroke-miterlimit:0;stroke-dasharray:none;stroke-opacity:1"
       id="path9"
       sodipodi:nodetypes="ccccccccccc"
       inkscape:label="N" /><path
       d="m 63.133614,5.165 v 18.646455 h 7.426937 V 5.165 Z"
       style="font-size:23.7526px;line-height:0;font-family:NiseSegaSonic;-inkscape-font-specification:NiseSegaSonic;letter-spacing:0px;word-spacing:0px;display:inline;opacity:1;fill:#fbb313;fill-opacity:1;stroke:#000000;stroke-width:0.5;stroke-linecap:square;stroke-miterlimit:0;stroke-dasharray:none;stroke-opacity:1"
       id="path10"
       sodipodi:nodetypes="ccccc"
       inkscape:label="I" /><path
       d="m 83.389397,5.1656666 c -0.555514,0.00184 -1.135609,0.015556 -1.74025,0.041273 -2.751115,0.058782 -5.041085,0.9921916 -6.870124,2.7997181 -1.829035,1.7928312 -2.912811,4.0452003 -2.852349,6.5581023 0,2.645161 0.883956,4.819991 2.652529,6.524651 1.768574,1.704659 3.529379,2.545902 6.340957,2.722248 2.675535,0 5.203338,-0.364285 7.183536,-0.893318 l -2.63684,-7.66286 c -0.340819,0.655815 -0.975952,1.46451 -1.702744,1.911718 -0.738075,0.454151 -1.645793,0.66989 -2.512399,0.668522 -0.640591,-0.001 -1.438063,-0.226306 -1.855584,-0.50003 -1.22143,-0.80076 -1.0372,-2.236559 -0.708221,-3.159986 0.270371,-0.758917 0.729311,-1.328396 1.291682,-1.845122 0.690395,-0.634359 1.562106,-1.100296 2.471049,-1.301539 0.71419,-0.158123 1.511705,-0.161767 2.191819,0.107519 0.442726,0.175294 0.876346,0.617102 1.08797,0.925705 L 87.726136,5.4717782 C 86.50174,5.2623697 85.055938,5.1601558 83.389397,5.1656666 Z"
       style="font-size:23.7526px;line-height:0;font-family:NiseSegaSonic;-inkscape-font-specification:NiseSegaSonic;letter-spacing:0px;word-spacing:0px;display:inline;opacity:1;fill:#fbb313;fill-opacity:1;stroke:#000000;stroke-width:0.5;stroke-linecap:square;stroke-miterlimit:0;stroke-dasharray:none;stroke-opacity:1"
       id="path6"
       sodipodi:nodetypes="scccscccaasssaaccs"
       inkscape:label="C" /><g
       id="g86"
       style="display:inline;fill:#fbb313;fill-opacity:1;stroke:#000000;stroke-width:0.5;stroke-dasharray:none;stroke-opacity:1"
       inkscape:label="Sonic" /><path
       id="path12"
       style="display:inline;fill:#00246b;fill-opacity:1;stroke:none;stroke-width:0.250191;stroke-linecap:round"
       d="m 18.686259,28.051835 -2.042164,0.350099 0.425416,-1.838844 5.534116,-0.992216 -0.435855,1.883964 -1.624033,0.278495 -1.163308,5.02862 -1.882702,0.427238 z"
       sodipodi:nodetypes="ccccccccc"
       inkscape:label="T"
       transform="matrix(1.0003869,0,0,1.0003869,0.26346541,0.19061432)" /><path
       id="path24-6"
       style="display:inline;fill:#00246b;fill-opacity:1;stroke:none;stroke-width:0.250191;stroke-linecap:round"
       d="m 24.914127,25.156598 -0.579902,2.506814 1.08736,-0.186435 0.582004,-2.515711 1.79996,-0.322775 -1.51677,6.556389 -1.820907,0.413155 0.549285,-2.374257 -1.087361,0.186435 -0.563997,2.437872 -1.757082,0.398722 1.570577,-6.788784 z"
       sodipodi:nodetypes="ccccccccccccc"
       inkscape:label="H"
       transform="matrix(1.0003869,0,0,1.0003869,0.26346541,0.19061432)" /><path
       id="path36"
       style="display:inline;fill:#00246b;fill-opacity:1;stroke:none;stroke-width:0.250191;stroke-linecap:round"
       d="m 28.419953,24.528003 3.63565,-0.651855 -0.287814,1.244088 -1.721835,0.334335 -0.256427,1.108519 1.479765,-0.185517 -0.18468,1.046436 -1.538759,0.285931 -0.314509,1.26587 1.731994,-0.378334 -0.375111,1.621372 -3.677897,0.834507 z"
       sodipodi:nodetypes="ccccccccccccc"
       inkscape:label="E"
       transform="matrix(1.0003869,0,0,1.0003869,0.26346541,0.19061432)" /><path
       id="path48-5"
       style="display:inline;fill:#00246b;fill-opacity:1;stroke:none;stroke-width:0.250191;stroke-linecap:round"
       d="m 24.348098,33.20026 2.426872,-0.635601 -0.647651,3.970336 1.704464,-0.253694 0.784833,-4.199018 2.626269,-0.687797 -2.079646,11.089812 -2.601747,0.593844 0.854684,-4.573008 -1.650237,0.245637 -0.763884,4.683355 -2.606021,0.594755 z"
       sodipodi:nodetypes="ccccccccccccc"
       inkscape:label="H"
       transform="matrix(1.0003869,0,0,1.0003869,0.5634654,0.49095112)" /><path
       id="path60"
       style="display:inline;fill:#00246b;fill-opacity:1;stroke:none;stroke-width:0.250191;stroke-linecap:round"
       d="m 36.043244,40.914001 0.333144,-2.190134 -2.81971,0.601692 0.433753,-2.475286 2.37832,-0.582774 0.298674,-2.018343 -2.303354,0.468784 0.37343,-2.131281 2.664242,-0.604354 0.348628,-2.292214 -5.499085,1.440262 -1.974414,11.09976 z"
       sodipodi:nodetypes="ccccccccccccc"
       inkscape:label="E"
       transform="matrix(1.0003869,0,0,1.0003869,0.5634654,0.49095112)" /><path
       d="m 43.312602,28.377079 c -0.337913,-0.0064 -0.676294,0.03326 -1.005107,0.119373 l -3.749642,0.982369 -1.757515,11.262361 2.971911,-0.677994 c 1.043947,-0.238287 2.013107,-0.729481 2.823084,-1.429887 0.709252,-0.613308 1.256881,-1.391345 1.594735,-2.266012 0.431244,-1.116445 0.736811,-2.277642 0.910538,-3.461804 0.14886,-1.014651 0.179134,-2.043304 0.08992,-3.064929 -0.06112,-0.699893 -0.581621,-1.273203 -1.272273,-1.401982 -0.200486,-0.03738 -0.402901,-0.05763 -0.605648,-0.0615 z m -1.369942,2.178162 c 0.446117,0.01836 0.816382,0.393239 0.803568,0.862996 -0.01627,0.596413 -0.0668,1.191126 -0.150895,1.781804 -0.172441,1.211173 -0.500429,2.395386 -0.976685,3.522265 -0.285576,0.675709 -0.892311,1.162205 -1.613855,1.294495 l -0.433565,0.07906 1.238684,-7.345288 0.937927,-0.180351 c 0.06593,-0.01268 0.131089,-0.01761 0.194821,-0.01499 z"
       style="display:inline;fill:#00246b;fill-opacity:1;stroke:none;stroke-width:0.250191;stroke-linecap:round"
       id="path5"
       inkscape:label="D"
       transform="matrix(1.0003869,0,0,1.0003869,0.5634654,0.49095112)" /><path
       id="path104"
       style="display:inline;fill:#00246b;fill-opacity:1;stroke:none;stroke-width:0.250191;stroke-linecap:round"
       d="m 45.882444,31.130364 -0.578756,4.294207 c -0.0517,0.383658 -0.08576,0.769503 -0.102072,1.1563 -0.04598,1.090631 0.658028,2.071933 1.705904,2.377781 1.19646,0.349226 2.764284,-0.240859 3.102877,-1.114796 l 0.209454,-0.690846 -0.05787,1.100882 1.630129,-0.231904 0.762763,-6.158578 -3.272589,0.398652 -0.07539,1.788049 0.999435,-0.104392 -0.04434,0.669089 c -0.03692,0.557047 -0.216205,1.095293 -0.520695,1.563215 -0.208133,0.319848 -0.47473,0.597565 -0.78581,0.818589 -0.375123,0.266527 -0.896713,0.01404 -0.920363,-0.445522 -0.04865,-0.945472 -0.02204,-1.893316 0.07959,-2.834557 l 0.302411,-2.801421 c 0.05927,-0.548966 0.229196,-1.080213 0.499511,-1.561662 0.219815,-0.391506 0.549998,-0.709656 0.94939,-0.914793 0.407648,-0.209378 0.894049,0.07906 0.905859,0.537186 0.0075,0.289809 0.0046,0.579793 -0.0087,0.86938 l -0.01393,0.303213 2.332289,-0.165136 2.27e-4,-2.039306 c 1.03e-4,-0.632902 -0.413379,-1.191532 -1.018687,-1.376324 -1.792115,-0.547106 -3.734976,0.08646 -4.860052,1.584853 -0.654715,0.871964 -1.074961,1.897217 -1.220583,2.977841 z"
       sodipodi:nodetypes="ccccccccccccccccccccccccccccc"
       inkscape:label="G"
       transform="matrix(1.0003869,0,0,1.0003869,0.5634654,0.49095112)" /><path
       id="path116"
       style="display:inline;fill:#00246b;fill-opacity:1;stroke:none;stroke-width:0.250191;stroke-linecap:round"
       d="m 58.549215,37.702856 0.353882,-2.560551 -3.462527,0.368175 0.335526,-2.714827 3.213107,-0.452109 0.233026,-2.360244 -3.151733,0.43088 0.28319,-2.291022 3.608747,-0.646181 0.350519,-2.536519 -6.249588,1.003636 -1.508502,12.077894 z"
       sodipodi:nodetypes="ccccccccccccc"
       inkscape:label="E"
       transform="matrix(1.0003869,0,0,1.0003869,0.5634654,0.49095112)" /><path
       id="path128"
       style="display:inline;fill:#00246b;fill-opacity:1;stroke:none;stroke-width:0.250191;stroke-linecap:round"
       d="m 64.029594,37.035867 0.899384,-5.292683 -2.109423,0.180619 -0.879136,5.263468 -2.794207,0.2497 2.227834,-12.654281 2.690368,-0.312067 -0.81552,4.882821 2.112225,-0.153366 0.830584,-4.887795 2.641232,-0.08785 -1.904742,12.811438 z"
       sodipodi:nodetypes="ccccccccccccc"
       inkscape:label="H"
       transform="matrix(1.0003869,0,0,1.0003869,0.5634654,0.49095112)" /><path
       id="path130"
       style="display:inline;fill:#00246b;fill-opacity:1;stroke:none;stroke-width:0.250191;stroke-linecap:round"
       d="m 74.472482,25.662049 c -0.299577,-0.08166 -0.624559,0.02963 -0.903251,0.20927 -0.221655,0.142874 -0.414024,0.328987 -0.549587,0.533259 -0.105436,0.158876 -0.186438,0.325187 -0.244081,0.502145 -0.546101,1.676481 -1.385657,5.743585 -1.497124,7.762465 -0.009,0.163116 0.0081,0.329581 0.03561,0.492124 0.04422,0.260927 0.172502,0.787964 0.865727,0.828541 0.404495,0.02368 0.807813,-0.154197 1.080108,-0.440154 0.289566,-0.304083 0.433391,-0.729636 0.550568,-1.11138 0.769792,-2.507856 1.325328,-6.161264 1.406218,-6.922103 0.05961,-0.560746 0.08969,-1.080151 -0.20924,-1.47444 -0.131681,-0.17369 -0.327202,-0.3231 -0.53495,-0.379727 z m -6.114498,7.785939 c 0.133967,-1.176955 0.34619,-2.293211 0.566869,-3.425453 0.202606,-1.039506 0.412339,-2.092487 0.804589,-3.084454 0.279588,-0.707057 0.651911,-1.383114 1.152026,-1.958404 0.369521,-0.425065 0.808809,-0.795118 1.29831,-1.064305 0.338357,-0.186067 0.805939,-0.359022 1.185345,-0.459256 0.951027,-0.251247 1.904019,-0.230914 2.801028,0.153894 0.453012,0.194341 0.864906,0.490589 1.188599,0.863209 0.316666,0.364543 0.548921,0.802181 0.694866,1.257979 0.333586,1.041765 0.216359,2.178391 0.07314,3.283881 -0.155432,1.199842 -0.341488,2.363004 -0.621729,3.510408 -0.263776,1.08002 -0.611009,2.146077 -1.164407,3.147174 -0.389467,0.70454 -0.881042,1.376905 -1.524602,1.803564 -0.719626,0.477092 -1.379011,0.762051 -2.297092,0.765405 -0.927231,0.0034 -1.933285,-0.0813 -2.620928,-0.442017 -0.557659,-0.292534 -1.016744,-0.817668 -1.286115,-1.393204 -0.421792,-0.901198 -0.364459,-1.952001 -0.249904,-2.958421 z"
       inkscape:label="O"
       sodipodi:nodetypes="ssssscsssssssssssssssssssssssss"
       transform="matrix(1.0003869,0,0,1.0003869,0.5634654,0.49095112)" /><path
       id="path157"
       style="display:inline;fill:#00246b;fill-opacity:1;stroke:none;stroke-width:0.250191;stroke-linecap:round"
       d="m 86.253846,39.739554 -1.581909,-0.04639 c -1.519589,-0.0446 -3.022625,-0.329504 -4.453205,-0.844138 -1.304835,-0.469396 -2.153645,-1.731823 -2.095971,-3.11732 0.07323,-1.75918 0.316905,-3.507112 0.727624,-5.219237 l 0.45198,-1.884638 c 0.191013,-0.796062 0.398142,-1.588174 0.621315,-2.375828 0.347603,-1.226809 1.448207,-2.088338 2.72259,-2.131185 1.406041,-0.04727 2.812178,0.09107 4.182048,0.411446 0.62433,0.146016 1.177232,0.507384 1.56156,1.02061 0.255437,0.341109 0.375899,0.764538 0.338409,1.189019 l -0.251378,2.83505 -2.857123,-0.332093 0.127527,-0.80045 c 0.0664,-0.415597 0.09425,-0.836446 0.0832,-1.257174 -0.0085,-0.325368 -0.281015,-0.517471 -0.594636,-0.59801 -0.381006,-0.09419 -0.914318,-0.240354 -1.301171,-0.228014 -0.528234,0.01685 -0.839147,0.614021 -0.960383,1.128453 l -1.318029,5.596883 c -0.228537,0.969954 -0.289704,1.971805 -0.180952,2.96236 0.05295,0.482262 0.38051,0.890171 0.839965,1.045996 0.374457,0.126997 0.778925,0.13568 1.158487,0.02487 0.239614,-0.06995 0.419556,-0.268667 0.465333,-0.514016 l 0.536544,-2.866081 -1.501422,-0.105374 0.578713,-2.334673 4.389375,0.722478 z"
       sodipodi:nodetypes="cccccccccccccccccccccccccccc"
       inkscape:label="G"
       transform="matrix(1.0003869,0,0,1.0003869,0.5634654,0.49095112)" /><g
       id="g5"
       inkscape:label="TheHedgehogShadow"
       style="display:inline;fill:#00246b;fill-opacity:1"
       transform="matrix(1.0003869,0,0,1.0003869,0.5634654,0.49095112)" /><g
       id="g124"
       inkscape:label="TheHedgehog"
       style="display:inline;fill:#e20045;fill-opacity:1"
       transform="matrix(1.0003869,0,0,1.0003869,-0.03614031,0.09075257)"><path
         id="path113"
         style="display:inline;fill:#e20045;fill-opacity:1;stroke:none;stroke-width:0.250191;stroke-linecap:round"
         d="m 18.686259,28.051835 -2.042164,0.350099 0.425416,-1.838844 5.534116,-0.992216 -0.435855,1.883964 -1.624033,0.278495 -1.163308,5.02862 -1.882702,0.427238 z"
         sodipodi:nodetypes="ccccccccc"
         inkscape:label="T" /><path
         id="path114"
         style="display:inline;fill:#e20045;fill-opacity:1;stroke:none;stroke-width:0.250191;stroke-linecap:round"
         d="m 24.914127,25.156598 -0.579902,2.506814 1.08736,-0.186435 0.582004,-2.515711 1.79996,-0.322775 -1.51677,6.556389 -1.820907,0.413155 0.549285,-2.374257 -1.087361,0.186435 -0.563997,2.437872 -1.757082,0.398722 1.570577,-6.788784 z"
         sodipodi:nodetypes="ccccccccccccc"
         inkscape:label="H" /><path
         id="path115"
         style="display:inline;fill:#e20045;fill-opacity:1;stroke:none;stroke-width:0.250191;stroke-linecap:round"
         d="m 28.419953,24.528003 3.63565,-0.651855 -0.287814,1.244088 -1.721835,0.334335 -0.256427,1.108519 1.479765,-0.185517 -0.18468,1.046436 -1.538759,0.285931 -0.314509,1.26587 1.731994,-0.378334 -0.375111,1.621372 -3.677897,0.834507 z"
         sodipodi:nodetypes="ccccccccccccc"
         inkscape:label="E" /><path
         id="path117"
         style="display:inline;fill:#e20045;fill-opacity:1;stroke:none;stroke-width:0.250191;stroke-linecap:round"
         d="m 24.348098,33.20026 2.426872,-0.635601 -0.647651,3.970336 1.704464,-0.253694 0.784833,-4.199018 2.626269,-0.687797 -2.079646,11.089812 -2.601747,0.593844 0.854684,-4.573008 -1.650237,0.245637 -0.763884,4.683355 -2.606021,0.594755 z"
         sodipodi:nodetypes="ccccccccccccc"
         inkscape:label="H" /><path
         id="path118"
         style="display:inline;fill:#e20045;fill-opacity:1;stroke:none;stroke-width:0.250191;stroke-linecap:round"
         d="m 36.043244,40.914001 0.333144,-2.190134 -2.81971,0.601692 0.433753,-2.475286 2.37832,-0.582774 0.298674,-2.018343 -2.303354,0.468784 0.37343,-2.131281 2.664242,-0.604354 0.348628,-2.292214 -5.499085,1.440262 -1.974414,11.09976 z"
         sodipodi:nodetypes="ccccccccccccc"
         inkscape:label="E" /><path
         d="m 43.312602,28.377079 c -0.337913,-0.0064 -0.676294,0.03326 -1.005107,0.119373 l -3.749642,0.982369 -1.757515,11.262361 2.971911,-0.677994 c 1.043947,-0.238287 2.013107,-0.729481 2.823084,-1.429887 0.709252,-0.613308 1.256881,-1.391345 1.594735,-2.266012 0.431244,-1.116445 0.736811,-2.277642 0.910538,-3.461804 0.14886,-1.014651 0.179134,-2.043304 0.08992,-3.064929 -0.06112,-0.699893 -0.581621,-1.273203 -1.272273,-1.401982 -0.200486,-0.03738 -0.402901,-0.05763 -0.605648,-0.0615 z m -1.369942,2.178162 c 0.446117,0.01836 0.816382,0.393239 0.803568,0.862996 -0.01627,0.596413 -0.0668,1.191126 -0.150895,1.781804 -0.172441,1.211173 -0.500429,2.395386 -0.976685,3.522265 -0.285576,0.675709 -0.892311,1.162205 -1.613855,1.294495 l -0.433565,0.07906 1.238684,-7.345288 0.937927,-0.180351 c 0.06593,-0.01268 0.131089,-0.01761 0.194821,-0.01499 z"
         style="display:inline;fill:#e20045;fill-opacity:1;stroke:none;stroke-width:0.250191;stroke-linecap:round"
         id="path119"
         inkscape:label="D" /><path
         id="path120"
         style="display:inline;fill:#e20045;fill-opacity:1;stroke:none;stroke-width:0.250191;stroke-linecap:round"
         d="m 45.882444,31.130364 -0.578756,4.294207 c -0.0517,0.383658 -0.08576,0.769503 -0.102072,1.1563 -0.04598,1.090631 0.658028,2.071933 1.705904,2.377781 1.19646,0.349226 2.764284,-0.240859 3.102877,-1.114796 l 0.209454,-0.690846 -0.05787,1.100882 1.630129,-0.231904 0.762763,-6.158578 -3.272589,0.398652 -0.07539,1.788049 0.999435,-0.104392 -0.04434,0.669089 c -0.03692,0.557047 -0.216205,1.095293 -0.520695,1.563215 -0.208133,0.319848 -0.47473,0.597565 -0.78581,0.818589 -0.375123,0.266527 -0.896713,0.01404 -0.920363,-0.445522 -0.04865,-0.945472 -0.02204,-1.893316 0.07959,-2.834557 l 0.302411,-2.801421 c 0.05927,-0.548966 0.229196,-1.080213 0.499511,-1.561662 0.219815,-0.391506 0.549998,-0.709656 0.94939,-0.914793 0.407648,-0.209378 0.894049,0.07906 0.905859,0.537186 0.0075,0.289809 0.0046,0.579793 -0.0087,0.86938 l -0.01393,0.303213 2.332289,-0.165136 2.27e-4,-2.039306 c 1.03e-4,-0.632902 -0.413379,-1.191532 -1.018687,-1.376324 -1.792115,-0.547106 -3.734976,0.08646 -4.860052,1.584853 -0.654715,0.871964 -1.074961,1.897217 -1.220583,2.977841 z"
         sodipodi:nodetypes="ccccccccccccccccccccccccccccc"
         inkscape:label="G" /><path
         id="path121"
         style="display:inline;fill:#e20045;fill-opacity:1;stroke:none;stroke-width:0.250191;stroke-linecap:round"
         d="m 58.549215,37.702856 0.353882,-2.560551 -3.462527,0.368175 0.335526,-2.714827 3.213107,-0.452109 0.233026,-2.360244 -3.151733,0.43088 0.28319,-2.291022 3.608747,-0.646181 0.350519,-2.536519 -6.249588,1.003636 -1.508502,12.077894 z"
         sodipodi:nodetypes="ccccccccccccc"
         inkscape:label="E" /><path
         id="path122"
         style="display:inline;fill:#e20045;fill-opacity:1;stroke:none;stroke-width:0.250191;stroke-linecap:round"
         d="m 64.029594,37.035867 0.899384,-5.292683 -2.109423,0.180619 -0.879136,5.263468 -2.794207,0.2497 2.227834,-12.654281 2.690368,-0.312067 -0.81552,4.882821 2.112225,-0.153366 0.830584,-4.887795 2.641232,-0.08785 -1.904742,12.811438 z"
         sodipodi:nodetypes="ccccccccccccc"
         inkscape:label="H" /><path
         id="path123"
         style="display:inline;fill:#e20045;fill-opacity:1;stroke:none;stroke-width:0.250191;stroke-linecap:round"
         d="m 74.472482,25.662049 c -0.299577,-0.08166 -0.624559,0.02963 -0.903251,0.20927 -0.221655,0.142874 -0.414024,0.328987 -0.549587,0.533259 -0.105436,0.158876 -0.186438,0.325187 -0.244081,0.502145 -0.546101,1.676481 -1.385657,5.743585 -1.497124,7.762465 -0.009,0.163116 0.0081,0.329581 0.03561,0.492124 0.04422,0.260927 0.172502,0.787964 0.865727,0.828541 0.404495,0.02368 0.807813,-0.154197 1.080108,-0.440154 0.289566,-0.304083 0.433391,-0.729636 0.550568,-1.11138 0.769792,-2.507856 1.325328,-6.161264 1.406218,-6.922103 0.05961,-0.560746 0.08969,-1.080151 -0.20924,-1.47444 -0.131681,-0.17369 -0.327202,-0.3231 -0.53495,-0.379727 z m -6.114498,7.785939 c 0.133967,-1.176955 0.34619,-2.293211 0.566869,-3.425453 0.202606,-1.039506 0.412339,-2.092487 0.804589,-3.084454 0.279588,-0.707057 0.651911,-1.383114 1.152026,-1.958404 0.369521,-0.425065 0.808809,-0.795118 1.29831,-1.064305 0.338357,-0.186067 0.805939,-0.359022 1.185345,-0.459256 0.951027,-0.251247 1.904019,-0.230914 2.801028,0.153894 0.453012,0.194341 0.864906,0.490589 1.188599,0.863209 0.316666,0.364543 0.548921,0.802181 0.694866,1.257979 0.333586,1.041765 0.216359,2.178391 0.07314,3.283881 -0.155432,1.199842 -0.341488,2.363004 -0.621729,3.510408 -0.263776,1.08002 -0.611009,2.146077 -1.164407,3.147174 -0.389467,0.70454 -0.881042,1.376905 -1.524602,1.803564 -0.719626,0.477092 -1.379011,0.762051 -2.297092,0.765405 -0.927231,0.0034 -1.933285,-0.0813 -2.620928,-0.442017 -0.557659,-0.292534 -1.016744,-0.817668 -1.286115,-1.393204 -0.421792,-0.901198 -0.364459,-1.952001 -0.249904,-2.958421 z"
         inkscape:label="O"
         sodipodi:nodetypes="ssssscsssssssssssssssssssssssss" /><path
         id="path124"
         style="display:inline;fill:#e20045;fill-opacity:1;stroke:none;stroke-width:0.250191;stroke-linecap:round"
         d="m 86.253846,39.739554 -1.581909,-0.04639 c -1.519589,-0.0446 -3.022625,-0.329504 -4.453205,-0.844138 -1.304835,-0.469396 -2.153645,-1.731823 -2.095971,-3.11732 0.07323,-1.75918 0.316905,-3.507112 0.727624,-5.219237 l 0.45198,-1.884638 c 0.191013,-0.796062 0.398142,-1.588174 0.621315,-2.375828 0.347603,-1.226809 1.448207,-2.088338 2.72259,-2.131185 1.406041,-0.04727 2.812178,0.09107 4.182048,0.411446 0.62433,0.146016 1.177232,0.507384 1.56156,1.02061 0.255437,0.341109 0.375899,0.764538 0.338409,1.189019 l -0.251378,2.83505 -2.857123,-0.332093 0.127527,-0.80045 c 0.0664,-0.415597 0.09425,-0.836446 0.0832,-1.257174 -0.0085,-0.325368 -0.281015,-0.517471 -0.594636,-0.59801 -0.381006,-0.09419 -0.914318,-0.240354 -1.301171,-0.228014 -0.528234,0.01685 -0.839147,0.614021 -0.960383,1.128453 l -1.318029,5.596883 c -0.228537,0.969954 -0.289704,1.971805 -0.180952,2.96236 0.05295,0.482262 0.38051,0.890171 0.839965,1.045996 0.374457,0.126997 0.778925,0.13568 1.158487,0.02487 0.239614,-0.06995 0.419556,-0.268667 0.465333,-0.514016 l 0.536544,-2.866081 -1.501422,-0.105374 0.578713,-2.334673 4.389375,0.722478 z"
         sodipodi:nodetypes="cccccccccccccccccccccccccccc"
         inkscape:label="G" /></g><path
       id="path112"
       style="fill:#00246b;stroke:none;stroke-linecap:round"
       d="M 91.136556,0.07596435 V 13.03693 h 9.767884 l -3.679884,2.75022 v 8.947258 h 9.193234 c 0.65805,3e-6 1.13926,0.488493 1.12707,1.1467 -0.012,0.647376 -0.25911,1.267069 -0.69712,1.744079 -0.27034,0.294401 -0.56734,0.562344 -0.88677,0.802535 -0.54496,0.409774 -1.24073,0.551988 -1.90221,0.38654 -0.5527,-0.138245 -1.00387,-0.526436 -1.22266,-1.052649 l -0.81442,-1.960604 -13.681853,4.775419 1.306897,3.249931 c 1.788977,4.45448 5.480992,7.87791 10.058301,9.323979 4.355215,1.375902 9.071215,1.05577 13.201265,-0.894519 3.46228,-1.63495 6.24908,-4.423807 7.8791,-7.888408 2.74383,-5.832041 1.70154,-12.761282 -2.63705,-17.527612 -0.51701,-0.567983 -1.1643,-0.991219 -1.73632,-1.501717 l 4.37906,-3.461288 V 0.07596435 Z"
       inkscape:label="3" /><path
       id="path177"
       style="display:inline;fill:#fbb313;fill-opacity:1;stroke:#000000;stroke-width:0.5;stroke-linecap:round;stroke-dasharray:none;stroke-opacity:1"
       d="m 112.89615,15.251389 5.645,-4.463918 V 2.3253999 H 93.386844 v 8.4620711 h 14.282816 l -8.195841,6.12698 v 5.569708 l 6.945061,6e-6 c 1.88886,8e-6 3.41033,1.549904 3.37537,3.438608 -0.0221,1.196028 -0.48098,2.342656 -1.29006,3.223774 -0.36335,0.395696 -0.76221,0.757243 -1.19158,1.080098 -1.08606,0.816647 -2.48269,1.099493 -3.80092,0.769777 -1.2412,-0.310453 -2.26233,-1.189856 -2.75354,-2.371276 l -9.451442,3.298657 0.427454,1.064445 c 1.538691,3.831279 4.711901,6.772401 8.648798,8.01615 3.8152,1.205302 7.9448,0.92576 11.56276,-0.782709 2.99013,-1.411994 5.3955,-3.820798 6.80323,-6.812937 2.35913,-5.014355 1.46506,-10.956104 -2.26524,-15.054166 -1.06816,-1.17347 -2.27258,-2.21524 -3.58756,-3.103197 z"
       sodipodi:nodetypes="ccccccccccccccccccccc"
       inkscape:label="3" /></g></svg>
