<?xml version="1.0" encoding="UTF-8" standalone="no"?>
<!-- Created by ERK -->

<svg
   width="1242.8806mm"
   height="362.73404mm"
   viewBox="0 0 1242.8806 362.73404"
   version="1.1"
   id="svg1"
   inkscape:version="1.4 (86a8ad7, 2024-10-11)"
   sodipodi:docname="superbroswar.svg"
   xmlns:inkscape="http://www.inkscape.org/namespaces/inkscape"
   xmlns:sodipodi="http://sodipodi.sourceforge.net/DTD/sodipodi-0.dtd"
   xmlns="http://www.w3.org/2000/svg"
   xmlns:svg="http://www.w3.org/2000/svg">
  <sodipodi:namedview
     id="namedview1"
     pagecolor="#ffffff"
     bordercolor="#000000"
     borderopacity="0.25"
     inkscape:showpageshadow="2"
     inkscape:pageopacity="0.0"
     inkscape:pagecheckerboard="true"
     inkscape:deskcolor="#d1d1d1"
     inkscape:document-units="mm"
     inkscape:zoom="0.29118429"
     inkscape:cx="2759.4208"
     inkscape:cy="1080.072"
     inkscape:window-width="3840"
     inkscape:window-height="2066"
     inkscape:window-x="-11"
     inkscape:window-y="-11"
     inkscape:window-maximized="1"
     inkscape:current-layer="g63" />
  <defs
     id="defs1" />
  <g
     id="g63"
     inkscape:label="SuperMarioBros."
     style="display:inline"
     transform="matrix(0.26458333,0,0,0.26458333,-448.33406,2342.3854)">
    <path
       d="m 6159.3757,-8289.3342 -374.7464,65.3338 56.7812,714.9978 261.2047,-69.1374 -11.4251,-84.4477 82.3487,112.9755 217.3577,-94.0713 1.0962,-111.9151 -111.4671,-109.1711 56.2948,-8.7844 52.6291,-259.8771 z"
       style="font-size:633.333px;line-height:0;font-family:'New Super Mario Font U';-inkscape-font-specification:'New Super Mario Font U';text-align:center;letter-spacing:0px;word-spacing:0px;text-anchor:middle;display:inline;fill:#000000;fill-opacity:1;stroke-width:0;stroke-linecap:square;stroke-miterlimit:50;paint-order:stroke fill markers"
       id="path66"
       inkscape:label="R"
       sodipodi:nodetypes="cccccccccccc" />
    <path
       d="m 6146.286,-8235.4868 -316.8182,47.7345 41.6885,531.8602 174.5688,-12.0779 -7.5989,-179.3703 143.5558,206.0984 193.8603,-91.5916 -164.8382,-135.7894 98.1443,-51.8933 36.5503,-177.1077 z m -110.3248,145.6828 124.0166,38.0658 -22.5863,104.2763 -93.968,16.6977 z"
       style="font-size:633.333px;line-height:0;font-family:'New Super Mario Font U';-inkscape-font-specification:'New Super Mario Font U';text-align:center;letter-spacing:0px;word-spacing:0px;text-anchor:middle;display:inline;fill:#048f03;fill-opacity:1;stroke-width:0;stroke-linecap:square;stroke-miterlimit:50;paint-order:stroke fill markers"
       id="path45-3-7"
       inkscape:label="R"
       sodipodi:nodetypes="cccccccccccccccc" />
    <path
       d="m 5789.768,-8223.0924 -400.2836,-37.3604 -204.6027,716.1811 342.4618,40.1057 16.4487,-167.1433 90.0209,-24.003 40.5409,173.556 280.44,-46.5758 z"
       style="font-size:633.333px;line-height:0;font-family:'New Super Mario Font U';-inkscape-font-specification:'New Super Mario Font U';text-align:center;letter-spacing:0px;word-spacing:0px;text-anchor:middle;display:inline;fill:#000000;fill-opacity:1;stroke-width:0;stroke-linecap:square;stroke-miterlimit:50;paint-order:stroke fill markers"
       id="path71-1"
       inkscape:label="A"
       sodipodi:nodetypes="ccccccccc" />
    <path
       d="m 5720.7842,-8175.6078 -278.9708,-24.6083 -181.4147,581.3007 223.0971,18.9994 18.0694,-119.7159 172.8625,-29.3339 29.817,151.076 196.0326,-41.1579 z m -168.123,147.4917 59.444,-2.2467 31.6762,166.002 -116.6004,-1.1454 z"
       style="font-size:633.333px;line-height:0;font-family:'New Super Mario Font U';-inkscape-font-specification:'New Super Mario Font U';text-align:center;letter-spacing:0px;word-spacing:0px;text-anchor:middle;display:inline;fill:#e40000;fill-opacity:1;stroke-width:0;stroke-linecap:square;stroke-miterlimit:50;paint-order:stroke fill markers"
       id="path46-1"
       inkscape:label="A"
       sodipodi:nodetypes="cccccccccccccc" />
    <path
       id="path95-4"
       style="font-size:633.333px;line-height:0;font-family:'New Super Mario Font U';-inkscape-font-specification:'New Super Mario Font U';text-align:center;letter-spacing:0px;word-spacing:0px;text-anchor:middle;display:inline;fill:#000000;fill-opacity:1;stroke-width:0;stroke-linecap:square;stroke-miterlimit:50;paint-order:stroke fill markers"
       d="m 4618.7,-7581.709 217.6874,32.407 79.49,-97.648 39.0429,115.2939 216.3613,32.2095 225.0466,-588.7086 0.4755,-94.4905 -287.0414,-115.5591 -88.5985,239.851 -50.754,-104.9066 -76.7669,89.9733 -30.0756,-267.2584 -335.955,99.64 z"
       inkscape:label="W"
       sodipodi:nodetypes="cccccccccccccc" />
    <path
       id="path24-5"
       style="font-size:633.333px;line-height:0;font-family:'New Super Mario Font U';-inkscape-font-specification:'New Super Mario Font U';text-align:center;letter-spacing:0px;word-spacing:0px;text-anchor:middle;display:inline;fill:#006adb;fill-opacity:1;stroke-width:0;stroke-linecap:square;stroke-miterlimit:50;paint-order:stroke fill markers"
       d="m 4683.4915,-7655.5111 152.7314,27.6214 96.7925,-191.1345 61.3092,198.1387 146.8676,21.4561 228.5603,-541.2635 -217.5701,-96.112 -94.9794,316.3813 -99.2121,-162.4192 -129.1271,161.2391 -12.1257,-340.9407 -244.1293,61.3151 z"
       inkscape:label="W"
       sodipodi:nodetypes="ccccccccccccc" />
    <path
       d="m 3927.6825,-8262.6012 -122.113,139.1889 -62.4079,253.5226 50.3499,159.3733 337.1934,186.5899 254.5225,-102.2878 70.0337,-269.5621 10.9714,-71.5613 -172.714,-244.9745 z"
       style="font-size:633.333px;line-height:0;font-family:'New Super Mario Font U';-inkscape-font-specification:'New Super Mario Font U';text-align:center;letter-spacing:0px;word-spacing:0px;text-anchor:middle;display:inline;fill:#000000;fill-opacity:1;stroke-width:0;stroke-linecap:square;stroke-miterlimit:50;paint-order:stroke fill markers"
       id="path68"
       inkscape:label="O"
       sodipodi:nodetypes="cccccccccc"
       transform="matrix(1.0369066,0,0,1.0642219,-119.58801,524.98025)" />
    <path
       d="m 4004.8397,-8205.1981 -133.9599,161.8047 -30.5564,196.6701 60.4798,168.6698 244.2568,88.4961 242.2291,-115.2673 60.1322,-251.9391 -148.8817,-213.466 z m 85.7231,195.499 128.2165,35.4766 12.6106,120.0188 -111.5529,59.7871 -97.9331,-100.4345 z"
       style="font-size:633.333px;line-height:0;font-family:'New Super Mario Font U';-inkscape-font-specification:'New Super Mario Font U';text-align:center;letter-spacing:0px;word-spacing:0px;text-anchor:middle;fill:#048f03;fill-opacity:1;stroke-width:0;stroke-linecap:square;stroke-miterlimit:50;paint-order:stroke fill markers"
       id="path48"
       inkscape:label="O"
       sodipodi:nodetypes="ccccccccccccccc" />
    <path
       d="m 3570.5632,-8271.6291 -33.5242,660.7353 240.3518,-21.0222 95.4023,-577.2464 z"
       style="font-size:633.333px;line-height:0;font-family:'New Super Mario Font U';-inkscape-font-specification:'New Super Mario Font U';text-align:center;letter-spacing:0px;word-spacing:0px;text-anchor:middle;display:inline;fill:#000000;fill-opacity:1;stroke-width:0;stroke-linecap:square;stroke-miterlimit:50;paint-order:stroke fill markers"
       id="path69"
       inkscape:label="I"
       sodipodi:nodetypes="ccccc"
       transform="matrix(1.0369066,0,0,1.0642219,-119.58801,524.98025)" />
    <path
       d="m 3621.6638,-8233.8484 -26.1089,614.3536 158.2437,-8.041 93.9138,-552.1953 z"
       style="font-size:633.333px;line-height:0;font-family:'New Super Mario Font U';-inkscape-font-specification:'New Super Mario Font U';text-align:center;letter-spacing:0px;word-spacing:0px;text-anchor:middle;fill:#006adb;fill-opacity:1;stroke-width:0;stroke-linecap:square;stroke-miterlimit:50;paint-order:stroke fill markers"
       id="path32"
       inkscape:label="I"
       sodipodi:nodetypes="ccccc" />
    <path
       d="m 3342.934,-8287.8703 -369.4766,58.2411 79.8794,637.5132 230.7302,-21.4042 12.8333,-87.9322 73.4897,100.2712 196.495,-48.717 42.864,-90.2077 -133.4271,-113.7724 83.06,-47.9946 10.618,-255.7959 z"
       style="font-size:633.333px;line-height:0;font-family:'New Super Mario Font U';-inkscape-font-specification:'New Super Mario Font U';text-align:center;letter-spacing:0px;word-spacing:0px;text-anchor:middle;fill:#000000;fill-opacity:1;stroke-width:0;stroke-linecap:square;stroke-miterlimit:50;paint-order:stroke fill markers"
       id="path70"
       inkscape:label="R"
       sodipodi:nodetypes="cccccccccccc"
       transform="matrix(1.0369066,0,0,1.0642219,-119.58801,524.98025)" />
    <path
       d="m 3340.1862,-8251.5887 -316.2459,49.9697 56.8334,579.278 171.8257,-15.9932 -8.1915,-194.8431 142.855,210.274 192.6214,-83.8652 -164.31,-140.4301 111.7441,-72.2943 40.887,-204.2985 z m -105.546,157.0421 127.7394,27.6527 -13.9399,118.3542 -107.2422,26.9205 z"
       style="font-size:633.333px;line-height:0;font-family:'New Super Mario Font U';-inkscape-font-specification:'New Super Mario Font U';text-align:center;letter-spacing:0px;word-spacing:0px;text-anchor:middle;fill:#feab00;fill-opacity:1;stroke-width:0;stroke-linecap:square;stroke-miterlimit:50;paint-order:stroke fill markers"
       id="path45-3"
       inkscape:label="R"
       sodipodi:nodetypes="cccccccccccccccc" />
    <path
       d="m 2975.8481,-8239.0173 -386.0363,-35.1058 -159.8491,677.5259 267.04,28.5579 33.4279,-152.493 95.0135,-22.5545 39.098,163.0825 270.4583,-43.7651 z"
       style="font-size:633.333px;line-height:0;font-family:'New Super Mario Font U';-inkscape-font-specification:'New Super Mario Font U';text-align:center;letter-spacing:0px;word-spacing:0px;text-anchor:middle;display:inline;fill:#000000;fill-opacity:1;stroke-width:0;stroke-linecap:square;stroke-miterlimit:50;paint-order:stroke fill markers"
       id="path71"
       inkscape:label="A"
       sodipodi:nodetypes="ccccccccc"
       transform="matrix(1.0369066,0,0,1.0642219,-119.58801,524.98025)" />
    <path
       d="m 2897.1048,-8195.6778 -278.9708,-24.6083 -181.4147,581.3007 223.0971,18.9994 18.0694,-119.7159 172.8625,-29.3339 29.817,151.076 196.0326,-41.1579 z m -168.123,147.4917 59.444,-2.2467 31.6762,166.002 -116.6004,-1.1454 z"
       style="font-size:633.333px;line-height:0;font-family:'New Super Mario Font U';-inkscape-font-specification:'New Super Mario Font U';text-align:center;letter-spacing:0px;word-spacing:0px;text-anchor:middle;fill:#048f03;fill-opacity:1;stroke-width:0;stroke-linecap:square;stroke-miterlimit:50;paint-order:stroke fill markers"
       id="path46"
       inkscape:label="A"
       sodipodi:nodetypes="cccccccccccccc" />
    <path
       id="path95"
       style="font-size:633.333px;line-height:0;font-family:'New Super Mario Font U';-inkscape-font-specification:'New Super Mario Font U';text-align:center;letter-spacing:0px;word-spacing:0px;text-anchor:middle;display:inline;fill:#000000;fill-opacity:1;stroke-width:0;stroke-linecap:square;stroke-miterlimit:50;paint-order:stroke fill markers"
       d="m 2525.0779,-8225.3582 -532.9136,-77.2981 -240.456,561.702 -2.1978,97.8821 293.7867,91.5052 93.6418,-271.0136 48.9475,98.5759 74.0345,-84.5437 29.0051,251.1303 246.1252,-44.4965 77.8722,-49.1305 z"
       inkscape:label="M"
       sodipodi:nodetypes="cccccccccccc"
       transform="matrix(1.0369066,0,0,1.0642219,-119.58801,524.98025)" />
    <path
       id="path24"
       style="font-size:633.333px;line-height:0;font-family:'New Super Mario Font U';-inkscape-font-specification:'New Super Mario Font U';text-align:center;letter-spacing:0px;word-spacing:0px;text-anchor:middle;fill:#e40000;fill-opacity:1;stroke-width:0;stroke-linecap:square;stroke-miterlimit:50;paint-order:stroke fill markers"
       d="m 2433.8904,-8202.8239 -152.7314,-27.6214 -96.7925,191.1345 -61.3092,-198.1387 -146.8676,-21.4561 -228.5603,541.2635 217.5701,96.112 94.9794,-316.3813 99.2121,162.4192 129.1271,-161.2391 12.1257,340.9407 244.1293,-61.3151 z"
       inkscape:label="M"
       sodipodi:nodetypes="ccccccccccccc" />
    <g
       id="g1"
       transform="translate(88.773923,-42)">
      <path
         d="m 4808.4552,-8748.8585 -310.5375,47.1236 72.356,536.1705 191.9229,-21.6358 116.5241,43.1008 154.161,-47.6793 -0.8646,-100.0123 -56.9416,-61.5573 37.5936,-284.9689 z"
         style="font-size:633.333px;line-height:0;font-family:'New Super Mario Font U';-inkscape-font-specification:'New Super Mario Font U';text-align:center;letter-spacing:0px;word-spacing:0px;text-anchor:middle;display:inline;fill:#000000;fill-opacity:1;stroke-width:0;stroke-linecap:square;stroke-miterlimit:50;paint-order:stroke fill markers"
         id="path96"
         inkscape:label="R"
         sodipodi:nodetypes="cccccccccc" />
      <path
         d="m 4802.9151,-8715.975 -250.7817,39.6258 45.0686,459.365 136.2571,-12.6825 -6.4958,-154.5098 113.2834,166.7464 152.748,-66.5048 -130.2972,-111.3604 88.6126,-57.3291 32.4232,-162.0079 z m -83.6976,124.5337 101.2968,21.9285 -11.0542,93.8544 -85.0427,21.3478 z"
         style="font-size:633.333px;line-height:0;font-family:'New Super Mario Font U';-inkscape-font-specification:'New Super Mario Font U';text-align:center;letter-spacing:0px;word-spacing:0px;text-anchor:middle;fill:#feab00;fill-opacity:1;stroke-width:0;stroke-linecap:square;stroke-miterlimit:50;paint-order:stroke fill markers"
         id="path45-3-8"
         inkscape:label="R"
         sodipodi:nodetypes="cccccccccccccccc" />
      <path
         d="m 4233.8496,-8732.8485 -80.3054,282.5554 24.9566,250.3433 400.49,15.6752 -20.624,-200.1966 -42.0963,7.6779 18.4893,-117.7332 27.613,8.096 22.7987,-177.2602 z"
         style="font-size:633.333px;line-height:0;font-family:'New Super Mario Font U';-inkscape-font-specification:'New Super Mario Font U';text-align:center;letter-spacing:0px;word-spacing:0px;text-anchor:middle;display:inline;fill:#000000;fill-opacity:1;stroke-width:0;stroke-linecap:square;stroke-miterlimit:50;paint-order:stroke fill markers"
         id="path97"
         sodipodi:nodetypes="cccccccccc"
         inkscape:label="E" />
      <path
         d="m 4262.5656,-8686.142 -76.0752,257.2993 28.0091,190.7199 336.4078,8.3552 -15.5618,-125.5806 -171.644,25.0132 -8.6997,-77.9553 135.8948,17.3252 12.3089,-93.387 -139.3635,-3.6801 19.0732,-74.2245 157.7927,46.5281 17.9232,-118.5892 z"
         style="font-size:633.333px;line-height:0;font-family:'New Super Mario Font U';-inkscape-font-specification:'New Super Mario Font U';text-align:center;letter-spacing:0px;word-spacing:0px;text-anchor:middle;fill:#048f03;fill-opacity:1;stroke-width:0;stroke-linecap:square;stroke-miterlimit:50;paint-order:stroke fill markers"
         id="path23"
         sodipodi:nodetypes="cccccccccccccc"
         inkscape:label="E" />
      <path
         d="m 3784.5936,-8685.1558 44.0573,523.1073 227.3126,-25.6775 -8.7486,-121.5081 87.2549,-1.5967 97.109,-102.525 38.2026,-220.3412 -201.3669,-110.5934 z"
         style="font-size:633.333px;line-height:0;font-family:'New Super Mario Font U';-inkscape-font-specification:'New Super Mario Font U';text-align:center;letter-spacing:0px;word-spacing:0px;text-anchor:middle;display:inline;fill:#000000;fill-opacity:1;stroke-width:0;stroke-linecap:square;stroke-miterlimit:50;paint-order:stroke fill markers"
         id="path100"
         inkscape:label="P"
         sodipodi:nodetypes="ccccccccc" />
      <path
         d="m 3825.2364,-8651.9017 53.6317,432.7466 129.5118,-15.737 -5.9755,-113.5554 113.5714,-2.6384 91.4873,-86.4066 29.9851,-167.2325 -172.6869,-93.1713 z m 162.1613,69.9258 106.3131,33.3494 -13.5476,87.1833 -85.7874,19.9753 z"
         style="font-size:633.333px;line-height:0;font-family:'New Super Mario Font U';-inkscape-font-specification:'New Super Mario Font U';text-align:center;letter-spacing:0px;word-spacing:0px;text-anchor:middle;fill:#e40000;fill-opacity:1;stroke-width:0;stroke-linecap:square;stroke-miterlimit:50;paint-order:stroke fill markers"
         id="path44"
         inkscape:label="P"
         sodipodi:nodetypes="cccccccccccccc" />
      <path
         d="m 3333.8842,-8296.4711 109.8694,102.3167 277.4825,-2.1313 91.1533,-87.2421 42.0361,-330.9659 -257.0607,-31.3689 31.4988,241.7468 -46.221,5.736 40.1908,-296.4995 -265.6309,-22.1944 z"
         style="font-size:633.333px;line-height:0;font-family:'New Super Mario Font U';-inkscape-font-specification:'New Super Mario Font U';text-align:center;letter-spacing:0px;word-spacing:0px;text-anchor:middle;display:inline;fill:#000000;fill-opacity:1;stroke-width:0;stroke-linecap:square;stroke-miterlimit:50;paint-order:stroke fill markers"
         id="path101"
         sodipodi:nodetypes="ccccccccccc"
         inkscape:label="U" />
      <path
         d="m 3371.7212,-8334.2363 110.3227,101.3895 219.4269,-0.6896 81.7694,-90.098 43.4994,-256.6391 -184.1713,-24.9651 13.7961,227.9523 -129.5086,10.3165 49.5842,-290.7935 -186.7885,-17.4482 z"
         style="font-size:633.333px;line-height:0;font-family:'New Super Mario Font U';-inkscape-font-specification:'New Super Mario Font U';text-align:center;letter-spacing:0px;word-spacing:0px;text-anchor:middle;fill:#feab00;fill-opacity:1;stroke-width:0;stroke-linecap:square;stroke-miterlimit:50;paint-order:stroke fill markers"
         id="path20"
         sodipodi:nodetypes="ccccccccccc"
         inkscape:label="U" />
      <path
         d="m 3024.2221,-8762.8399 -124.9099,197.8187 2.5049,95.637 34.4592,31.9857 -54.4414,78.8733 -5.7809,88.557 85.2421,70.508 338.724,1.3139 141.0929,-234.0395 -118.4764,-68.6324 98.1124,-132.6337 -191.7278,-151.6638 z"
         style="font-size:633.333px;line-height:0;font-family:'New Super Mario Font U';-inkscape-font-specification:'New Super Mario Font U';text-align:center;letter-spacing:0px;word-spacing:0px;text-anchor:middle;display:inline;fill:#000000;fill-opacity:1;stroke-width:0;stroke-linecap:square;stroke-miterlimit:50;paint-order:stroke fill markers"
         id="path102"
         inkscape:label="S"
         sodipodi:nodetypes="ccccccccccccc" />
      <path
         d="m 3046.2159,-8710.6438 -106.6934,151.7001 239.1849,146.4675 -47.404,63.0123 -129.0239,-109.9268 -85.0313,104.0243 138.166,119.2857 225.6089,0.6897 113.8425,-182.7782 -257.042,-149.7396 38.8357,-57.1692 128.4413,93.9986 71.391,-89.286 -145.1215,-110.9672 z"
         style="font-size:633.333px;line-height:0;font-family:'New Super Mario Font U';-inkscape-font-specification:'New Super Mario Font U';text-align:center;letter-spacing:0px;word-spacing:0px;text-anchor:middle;fill:#006adb;fill-opacity:1;stroke-width:0;stroke-linecap:square;stroke-miterlimit:50;paint-order:stroke fill markers"
         id="path19"
         inkscape:label="S"
         sodipodi:nodetypes="ccccccccccccccc" />
    </g>
  </g>
</svg>
