<?xml version="1.0" encoding="UTF-8" standalone="no"?>
<!-- Created by ERK -->

<svg
   width="642.66852mm"
   height="153.83568mm"
   viewBox="0 0 642.66851 153.83568"
   version="1.1"
   id="svg1"
   inkscape:version="1.4 (86a8ad7, 2024-10-11)"
   xml:space="preserve"
   sodipodi:docname="supercharger.svg"
   xmlns:inkscape="http://www.inkscape.org/namespaces/inkscape"
   xmlns:sodipodi="http://sodipodi.sourceforge.net/DTD/sodipodi-0.dtd"
   xmlns="http://www.w3.org/2000/svg"
   xmlns:svg="http://www.w3.org/2000/svg"><sodipodi:namedview
     id="namedview1"
     pagecolor="#ffffff"
     bordercolor="#000000"
     borderopacity="0.25"
     inkscape:showpageshadow="2"
     inkscape:pageopacity="0.0"
     inkscape:pagecheckerboard="true"
     inkscape:deskcolor="#d1d1d1"
     inkscape:document-units="mm"
     inkscape:zoom="0.66024255"
     inkscape:cx="1220.7635"
     inkscape:cy="315.79304"
     inkscape:window-width="3840"
     inkscape:window-height="2066"
     inkscape:window-x="-11"
     inkscape:window-y="-11"
     inkscape:window-maximized="1"
     inkscape:current-layer="svg1"
     showguides="true" /><defs
     id="defs1"><marker
       id="DistanceX"
       orient="auto"
       refX="0"
       refY="0"
       style="overflow:visible"><path
         d="M 3,-3 -3,3 M 0,-5 V 5"
         style="stroke:#000000;stroke-width:0.5"
         id="path1" /></marker><pattern
       id="Hatch"
       patternUnits="userSpaceOnUse"
       width="8"
       height="8"
       x="0"
       y="0"><path
         d="M8 4 l-4,4"
         stroke="#000000"
         stroke-width="0.25"
         linecap="square"
         id="path2" /><path
         d="M6 2 l-4,4"
         stroke="#000000"
         stroke-width="0.25"
         linecap="square"
         id="path3" /><path
         d="M4 0 l-4,4"
         stroke="#000000"
         stroke-width="0.25"
         linecap="square"
         id="path4" /></pattern><symbol
       id="*Model_Space" /><symbol
       id="*Paper_Space" /><symbol
       id="*Paper_Space0" /></defs><path
     id="path287"
     style="display:inline;fill:#000000;fill-opacity:1;stroke:none;stroke-width:0.944827;stroke-linecap:round"
     d="m 12.156013,97.981751 c 0,0 -7.5246099,22.171739 -11.1539359,34.736959 -0.42485797,1.47091 -0.66699226,5.1191 0.00609,7.12925 1.3846562,4.13525 3.22242,7.46821 5.5010006,10.71191 1.2013314,1.71017 3.1208792,3.27536 5.3460393,3.2758 170.249133,0.0341 490.771593,0 490.771593,0 3.54673,1.2e-4 6.6698,-2.33455 7.67293,-5.73608 l 7.74919,-26.2638 60.12141,-1e-5 c 4.89184,0 9.29389,-2.96922 11.12597,-7.50467 l 9.49287,-23.495229 6.76775,-4.5e-5 c 5.43099,-3.7e-5 10.18513,-3.648012 11.59126,-8.894205 0,0 3.62301,-12.151331 4.59625,-17.15508 0.761,-3.912587 0.80474,-7.624515 0.4095,-11.95071 -0.35481,-3.349177 -3.0967,-5.949209 -6.00037,-6.000105 -5.64709,-0.09898 -251.59208,-5.5e-5 -251.59208,-5.5e-5 L 369.7106,24.535234 C 371.44699,17.015514 365.73598,9.8357884 358.01842,9.8358006 H 70.193968 C 61.695077,9.835786 54.354273,15.78025 52.587263,24.093376 l -8.44037,39.708655 c -2.115545,9.953066 5.474936,19.326528 15.65036,19.326535 l 3.99887,5e-6 -2.66938,10.70716 -43.2644,2.5e-5 c -2.599348,2.5e-5 -4.903085,1.673788 -5.70633,4.145925"
     sodipodi:nodetypes="cssssccccccccscsccccccccccc"
     inkscape:label="Outline" /><path
     style="font-weight:bold;font-size:34.0141px;line-height:0;font-family:'Artifakt Element';-inkscape-font-specification:'Artifakt Element Bold';text-align:center;letter-spacing:0px;word-spacing:0px;text-anchor:middle;stroke:#000000;stroke-width:1.62596;stroke-linecap:square;stroke-miterlimit:2;paint-order:stroke fill markers;stroke-opacity:1"
     d="m 613.39946,3.8609869 h -7.10079 V 23.117817 h -4.56479 V 3.8609869 h -7.13701 V 0.76328789 h 18.80259 z M 641.80263,0.76328789 V 23.117817 h -4.38366 V 6.8628808 l -5.32559,13.0294972 0.0362,0.03193 h -4.8184 L 621.87695,6.3519201 V 23.117817 H 617.7469 V 0.76328789 h 5.90525 l 6.19507,15.77591011 6.37622,-15.74397507 -0.0362,-0.0319349 z"
     id="text42"
     aria-label="TM"
     inkscape:label="TM" /><g
     id="g41"
     inkscape:label="Supercharger"
     style="fill:#feb600;fill-opacity:1;stroke:#000000;stroke-opacity:1"
     transform="translate(-0.47236674,9.3633736)"><path
       d="m 70.666488,15.472441 c -1.416518,-2.4e-5 -2.640219,0.990558 -2.934705,2.376082 l -6.270418,29.500008 c -0.396724,1.866216 1.026345,3.624072 2.934188,3.624068 h 17.175179 c 1.950904,4e-6 3.382847,1.832847 2.910933,3.725871 l -9.598897,38.499459 c -0.333145,1.336467 -1.533671,2.274286 -2.910934,2.27428 H 25.243937 c -1.165896,5e-6 -2.010616,0.924205 -2.719214,1.732194 -1.455049,1.659141 -2.140684,3.547627 -2.797762,6.000147 -0.436548,1.6294 0.524732,4.26797 2.719214,4.26796 h 60.446957 c 1.377333,5e-5 2.577728,-0.93791 2.910933,-2.27428 L 101.76123,41.198002 c 0.47195,-1.892974 -0.96,-3.725817 -2.910933,-3.725871 0,0 -11.42311,-0.09948 -18.219911,-0.100184 -1.537321,-1.59e-4 -1.872908,-2.608522 -1.647093,-4.307815 0.198398,-1.492979 1.070666,-3.266384 1.735638,-4.051058 0.665985,-0.785869 1.664913,-1.040631 2.774164,-1.040621 H 340.36424 c 1.92966,-1.6e-5 3.35736,1.794802 2.92333,3.674711 l -13.77125,59.650622 c -0.43388,1.879929 1.41429,3.259142 2.92334,3.674712 1.69457,0.466659 3.61747,0.520107 5.6441,0 1.20606,-0.309519 2.60924,-0.964349 2.92333,-2.32544 l 6.52725,-28.272693 c 0.31437,-1.361041 1.52635,-2.324893 2.92334,-2.324922 h 10.0552 c 1.97492,1.7e-5 3.4105,1.874306 2.89646,3.780647 l -6.83421,25.36176 c -0.51379,1.906391 1.36402,3.367552 2.89699,3.780648 2.00322,0.539817 3.64769,0.509716 5.69629,0 1.1801,-0.293623 2.54316,-0.909998 2.89543,-2.219503 l 9.79092,-36.246526 c 0.38398,-2.578049 -0.86757,-4.920771 -3.59827,-5.634054 -2.65018,-0.69225 -10.46594,-0.544689 -15.22879,0.100184 -2.51324,0.442454 -5.25721,1.64721 -7.67433,2.774263 -0.75483,0.352079 -1.38413,0.08136 -1.19697,-0.73046 l 7.8202,-33.86925 c 0.43338,-1.87991 -0.99434,-3.674723 -2.92334,-3.674711 z"
       style="display:inline;fill:#feb600;fill-opacity:1;stroke:#000000;stroke-width:0.944827;stroke-linecap:round;stroke-opacity:1"
       id="path11"
       inkscape:label="S-h"
       sodipodi:nodetypes="cccccccccascccccsssccccssccccccssccscccccc" /><path
       d="m 109.69666,50.443432 c 2.07377,-0.83442 4.72979,-1.044603 6.70605,0 1.52143,0.804193 3.38832,2.370151 2.90784,4.26589 l -6.72311,26.52603 c -0.48048,1.895748 0.95214,3.737242 2.90784,3.737239 h 9.16895 c 1.35622,-3e-6 2.54409,-0.910038 2.89698,-2.219503 l 7.96643,-29.561503 c 0.35291,-1.309465 1.66029,-2.25503 2.89647,-2.748153 2.08425,-0.831423 4.75143,-1.055062 6.73189,0 1.52772,0.813875 3.41079,2.403463 2.89698,4.309815 l -10.24072,37.999748 c -0.35289,1.309501 -1.54075,2.219531 -2.89698,2.219503 0,0 -3.63727,3.35e-4 -5.77846,0 -1.22409,-1.92e-4 -2.28911,-0.859411 -3.42344,-1.328786 -0.85587,-0.343829 -1.83538,-0.808041 -2.93793,0.07718 -0.76138,0.675551 -1.47398,1.268918 -2.61431,1.251604 h -19.03708 c -2.632817,0.09049 -4.337278,-2.398438 -3.616039,-5.18991 3.019649,-11.687179 9.280809,-36.547077 9.280809,-36.547077 0.33732,-1.3309 1.6612,-2.290473 2.90783,-2.792077 z"
       style="display:inline;fill:#feb600;fill-opacity:1;stroke:#000000;stroke-width:0.944827;stroke-linecap:round;stroke-opacity:1"
       id="path12"
       inkscape:label="u"
       sodipodi:nodetypes="aascssccaacccsscccsca" /><path
       d="m 160.57801,50.839511 c -0.996,0.168736 -2.89427,1.404248 -3.25066,2.62758 -3.92782,13.482615 -13.15631,48.542699 -13.15631,48.542699 -0.51376,1.90638 0.92209,3.78067 2.89647,3.78065 h 4.74751 c 1.14566,3e-5 2.19145,-0.6525 2.69493,-1.68155 l 3.64732,-7.454841 c 0.50348,-1.029088 1.5493,-1.681518 2.69493,-1.681551 1.12318,0.02304 15.06505,0.893334 22.16157,-0.150276 1.65284,-0.243065 3.53577,-1.415878 3.99901,-3.020976 3.36439,-11.657394 9.66538,-35.4895 9.66538,-35.4895 0.5333,-2.775285 -0.76633,-5.05718 -3.46318,-5.516249 0,0 -10.21248,-0.680287 -16.30381,0.177102 -1.93313,0.272099 -3.57114,1.716497 -5.17695,2.738334 -1.19395,0.759891 -2.75654,0.582051 -3.74912,-0.426847 -2.00523,-3.413977 -6.41109,-2.613311 -7.40709,-2.444575 z m 8.86643,11.209932 h 11.30525 c 1.97438,2.4e-5 3.41021,1.87431 2.89646,3.780647 l -4.56044,16.922998 c -0.3529,1.309469 -1.54025,2.219505 -2.89646,2.219503 h -11.30526 c -1.97432,4e-6 -3.41016,-1.874289 -2.89646,-3.780648 l 4.56044,-16.922998 c 0.35296,-1.309454 1.54033,-2.219484 2.89647,-2.219502 z"
       style="display:inline;fill:#feb600;fill-opacity:1;stroke:#000000;stroke-width:0.944827;stroke-linecap:round;stroke-opacity:1"
       id="path37"
       inkscape:label="p"
       sodipodi:nodetypes="zsccccccsscsscczcccsscccc" /><path
       d="m 208.95469,50.972599 c -2.38495,-0.07315 -3.42457,1.674002 -3.95532,3.277319 l -9.07398,35.312592 c -0.65107,2.49816 0.73039,5.280487 3.53404,5.409988 h 33.19304 c 1.35622,3.3e-5 2.35615,-1.129737 2.89646,-2.219503 0.66818,-1.34767 0.99522,-2.369662 1.07797,-3.999756 0.0805,-1.585505 -0.92204,-3.780644 -2.89646,-3.780648 h -21.223 c -2.24442,1e-5 -2.78642,-3.128356 -0.67282,-3.883484 0,0 17.35237,-6.725856 26.13626,-9.287317 1.94851,-0.568201 4.09363,-2.030953 4.5922,-3.998427 1.35444,-5.344931 1.72864,-7.439911 2.87593,-12.148459 0.5147,-2.112363 -1.37254,-5.063055 -4.14878,-5.032949 z m 7.00629,11.076844 h 7.82949 c 1.09415,3e-5 1.39383,1.50513 0.38293,1.923913 l -6.23115,2.581755 c -0.36402,0.150765 -0.75417,0.228404 -1.14825,0.22841 h -1.30018 c -0.98722,-3e-6 -1.7054,-0.937082 -1.44849,-1.890324 l 0.46716,-1.734261 c 0.17643,-0.654715 0.77037,-1.109475 1.44849,-1.109493 z"
       style="display:inline;fill:#feb600;fill-opacity:1;stroke:#000000;stroke-width:0.944827;stroke-linecap:round;stroke-opacity:1"
       id="path38"
       inkscape:label="e"
       sodipodi:nodetypes="cccccsssccsssscccccssccc" /><path
       d="m 257.47989,50.972599 c 1.37054,-0.288411 2.63613,-0.362051 3.8654,0 1.64093,0.483298 2.52334,1.178195 3.69125,2.115117 h 5.1e-4 c 1.02689,0.823904 2.47074,0.882406 3.56103,0.14366 1.35998,-0.87913 2.58682,-2.015644 4.14619,-2.50672 3.01703,-0.950122 8.00144,-0.436627 10.22605,0.247943 2.31478,0.712316 4.22379,1.899356 2.99207,5.241024 0,0 -1.22203,1.943182 -2.01651,2.759832 -1.16833,1.20094 -2.99285,3.076008 -3.97537,3.075988 h -13.93042 c -1.35596,1.8e-5 -2.54358,0.910048 -2.89646,2.219502 l -7.67602,28.48405 c -0.3529,1.309501 -1.54077,2.219531 -2.89698,2.219503 h -5.33197 c -1.97431,3.3e-5 -3.41029,-1.874257 -2.89647,-3.780648 l 10.24072,-38.000265 c 0.35288,-1.309465 1.70666,-1.968501 2.89698,-2.218986 z"
       style="display:inline;fill:#feb600;fill-opacity:1;stroke:#000000;stroke-width:0.944827;stroke-linecap:round;stroke-opacity:1"
       id="path18"
       inkscape:label="r"
       sodipodi:nodetypes="sscccsscaccscccccs" /><path
       d="m 299.98892,50.972599 h 26.46867 c 1.9742,0 2.94305,2.152342 2.89698,3.780648 -0.0496,1.75188 -0.39263,3.620516 -1.36787,5.076693 -0.67693,1.010754 -1.54112,2.219525 -2.89698,2.219503 h -19.08101 c -1.35571,1.8e-5 -2.54296,0.910048 -2.89543,2.219502 l -4.56148,16.922998 c -0.51379,1.906355 0.9223,3.780646 2.89698,3.780648 h 15.84606 c 1.97405,-3e-6 3.01414,1.86893 2.89699,3.780648 -0.0845,1.378329 -0.31041,2.852506 -1.07901,3.999756 -0.67708,1.010651 -1.54032,2.219536 -2.89698,2.219503 h -27.527 c -3.89069,-0.0054 -4.35352,-4.102223 -3.67041,-6.826806 l 8.59724,-31.713226 c 0.89319,-3.448352 3.80696,-5.459867 6.37325,-5.459867 z"
       style="display:inline;fill:#feb600;fill-opacity:1;stroke:#000000;stroke-width:0.944827;stroke-linecap:round;stroke-opacity:1"
       id="path20"
       inkscape:label="c"
       sodipodi:nodetypes="sssaccccsssaccccs" /><path
       d="m 393.27315,50.972599 c -3.31343,0 -6.00001,2.685952 -6.00066,5.999634 0,0 -0.0201,1.7904 0.002,2.993127 0.0164,0.884288 0.79854,2.045347 1.95848,2.048663 6.08592,0.0174 18.26345,0.03542 18.26345,0.03542 1.12039,4.4e-5 1.39265,1.561164 0.33848,1.940966 0,0 -14.34897,5.103382 -23.36966,8.271582 -1.44754,0.508398 -2.66003,1.995567 -2.99841,3.492011 -1.24863,5.521902 -1.79354,9.685633 -2.77024,14.620698 -0.35607,1.799125 1.18815,4.615727 3.02208,4.597798 11.23611,-0.109845 31.53813,0 31.53813,0 1.35623,3.3e-5 2.54384,-0.909998 2.89698,-2.219503 l 9.88904,-36.84763 c 1.06661,-3.915901 -1.71065,-4.932766 -3.79709,-4.932766 z m 13.52993,24.103955 c 0.18588,-0.01144 0.36774,0.0041 0.54208,0.04289 1.04606,0.232756 1.81576,1.306871 1.50069,2.477368 l -1.58905,5.896281 c -0.23498,0.872982 -1.02707,1.479499 -1.93167,1.479496 h -13.4276 c -0.93504,4e-6 -1.64215,-0.84736 -1.47485,-1.767851 l 0.24185,-1.34152 c 0.12773,-0.702197 0.61959,-1.283646 1.29087,-1.525488 l 14.28182,-5.142839 c 0.19006,-0.06847 0.37997,-0.106895 0.56586,-0.118339 z"
       style="display:inline;fill:#feb600;fill-opacity:1;stroke:#000000;stroke-width:0.944827;stroke-linecap:round;stroke-opacity:1"
       id="path39"
       inkscape:label="a"
       sodipodi:nodetypes="scssccsssscccssssccssccccss" /><path
       d="m 506.34532,51.871252 c -0.60604,5.1e-5 -1.19826,0.183854 -1.69809,0.5271 l -2.98483,2.049487 c -0.97146,0.667505 -2.24437,0.70378 -3.25251,0.0925 -1.64932,-0.916927 -3.17728,-2.128725 -5.0028,-2.523877 -3.08845,-0.668526 -9.21255,-0.479952 -15.13276,-0.350644 -2.19673,0.04798 -3.94726,1.696104 -4.52017,3.819865 -3.85508,14.290674 -5.89087,22.218521 -9.15008,34.003918 -0.69965,2.529971 2.51496,5.404101 4.5951,5.412055 l 18.52506,0.07084 c 1.97677,3.3e-5 3.41326,1.877383 2.89646,3.784781 l -3.25407,12.000303 c -0.35459,1.30735 -1.54099,2.21482 -2.89491,2.21485 H 21.243665 c -1.165894,-3e-5 -2.01025,0.92387 -2.718698,1.73168 -1.455166,1.65925 -2.341065,3.64818 -2.797762,6.00067 -0.321429,1.65571 0.524221,4.26746 2.718698,4.26744 H 492.58234 c 1.35507,1e-5 2.54118,-0.90721 2.89594,-2.21434 l 18.19373,-67.101331 c 0.51775,-1.907378 -0.91852,-3.785246 -2.89492,-3.785299 z m -20.25923,10.178191 h 10.56525 c 1.97678,2.5e-5 3.41276,1.877889 2.89595,3.785298 l -4.58939,16.922998 c -0.35397,1.307248 -1.54032,2.214848 -2.89491,2.214852 h -10.56577 c -1.97679,-3e-6 -3.41278,-1.877871 -2.89594,-3.785299 l 4.58938,-16.922998 c 0.35397,-1.307229 1.54088,-2.214829 2.89543,-2.214851 z"
       style="display:inline;fill:#feb600;fill-opacity:1;stroke:#000000;stroke-width:0.944827;stroke-linecap:round;stroke-opacity:1"
       id="path40"
       inkscape:label="g"
       sodipodi:nodetypes="ccccssssscccccasccccccccccssccc" /><path
       d="m 524.45502,50.972599 c -2.38495,-0.07315 -3.42457,1.674002 -3.95532,3.277319 l -9.07398,35.312592 c -0.65107,2.49816 0.73039,5.280487 3.53404,5.409988 h 33.19304 c 1.35622,3.3e-5 2.54357,-0.909998 2.89646,-2.219503 l 1.07797,-3.999756 c 0.51379,-1.906357 -0.92204,-3.780644 -2.89646,-3.780648 h -21.223 c -2.24442,1e-5 -2.78642,-3.128356 -0.67282,-3.883484 0,0 17.35237,-6.725856 26.13626,-9.287317 1.94851,-0.568201 4.09363,-2.030953 4.5922,-3.998427 1.35444,-5.344931 1.72864,-7.439911 2.87593,-12.148459 0.5147,-2.112363 -1.37254,-5.063055 -4.14878,-5.032949 z m 7.00629,11.076844 h 7.82949 c 1.09415,3e-5 1.39383,1.50513 0.38293,1.923913 l -6.23115,2.581755 c -0.36402,0.150765 -0.75417,0.228404 -1.14825,0.22841 h -1.30018 c -0.98722,-3e-6 -1.7054,-0.937082 -1.44849,-1.890324 l 0.46716,-1.734261 c 0.17643,-0.654715 0.77037,-1.109475 1.44849,-1.109493 z"
       style="display:inline;fill:#feb600;fill-opacity:1;stroke:#000000;stroke-width:0.944827;stroke-linecap:round;stroke-opacity:1"
       id="path6"
       inkscape:label="e"
       sodipodi:nodetypes="ccccccssccsssscccccssccc" /><path
       d="m 438.48023,50.972599 c 1.37054,-0.288411 2.63613,-0.362051 3.8654,0 1.64093,0.483298 2.52334,1.178195 3.69125,2.115117 h 5.1e-4 c 1.02689,0.823904 2.47074,0.882406 3.56103,0.14366 1.35998,-0.87913 2.58682,-2.015644 4.14619,-2.50672 3.01703,-0.950122 8.00144,-0.436627 10.22605,0.247943 2.31478,0.712316 4.22379,1.899356 2.99207,5.241024 0,0 -1.22203,1.943182 -2.01651,2.759832 -1.16833,1.20094 -2.99285,3.076008 -3.97537,3.075988 h -13.93042 c -1.35596,1.8e-5 -2.54358,0.910048 -2.89646,2.219502 l -7.67602,28.48405 c -0.3529,1.309501 -1.6998,2.003592 -2.89698,2.219503 -1.78948,0.322732 -3.41945,0.397066 -5.33197,0 -1.5544,-0.322716 -3.41029,-1.874257 -2.89647,-3.780648 l 10.24072,-38.000265 c 0.35288,-1.309465 1.70666,-1.968501 2.89698,-2.218986 z"
       style="display:inline;fill:#feb600;fill-opacity:1;stroke:#000000;stroke-width:0.944827;stroke-linecap:round;stroke-opacity:1"
       id="path7"
       inkscape:label="r"
       sodipodi:nodetypes="sscccsscaccscssccs" /><path
       d="m 572.98023,50.972599 c 1.37054,-0.288411 2.63613,-0.362051 3.8654,0 1.64093,0.483298 2.52334,1.178195 3.69125,2.115117 h 5.1e-4 c 1.02689,0.823904 2.47074,0.882406 3.56103,0.14366 1.35998,-0.87913 2.58682,-2.015644 4.14619,-2.50672 3.01703,-0.950122 8.00144,-0.436627 10.22605,0.247943 2.31478,0.712316 4.22379,1.899356 2.99207,5.241024 0,0 -1.22203,1.943182 -2.01651,2.759832 -1.16833,1.20094 -2.99285,3.076008 -3.97537,3.075988 h -13.93042 c -1.35596,1.8e-5 -2.54358,0.910048 -2.89646,2.219502 l -7.67602,28.48405 c -0.3529,1.309501 -1.54077,2.219531 -2.89698,2.219503 H 562.739 c -1.97431,3.3e-5 -3.41029,-1.874257 -2.89647,-3.780648 l 10.24072,-38.000265 c 0.35288,-1.309465 1.70666,-1.968501 2.89698,-2.218986 z"
       style="display:inline;fill:#feb600;fill-opacity:1;stroke:#000000;stroke-width:0.944827;stroke-linecap:round;stroke-opacity:1"
       id="path8"
       inkscape:label="r"
       sodipodi:nodetypes="sscccsscaccscccccs" /></g></svg>
