<?xml version="1.0" encoding="UTF-8" standalone="no"?>
<svg xmlns:dc="http://purl.org/dc/elements/1.1/" xmlns:cc="http://creativecommons.org/ns#" xmlns:rdf="http://www.w3.org/1999/02/22-rdf-syntax-ns#" xmlns:svg="http://www.w3.org/2000/svg" xmlns="http://www.w3.org/2000/svg" id="svg" version="1.1" width="400" height="175" viewBox="0, 0, 400,175">
  <metadata id="metadata14">
    <rdf:RDF>
      <cc:Work rdf:about="">
        <dc:format>image/svg+xml</dc:format>
        <dc:type rdf:resource="http://purl.org/dc/dcmitype/StillImage"/>
        <dc:title/>
      </cc:Work>
    </rdf:RDF>
  </metadata>
  <defs id="defs12"/>
  <g id="svgg">
    <path style="fill:#e29918;fill-rule:evenodd;stroke:none" d="m 152.41016,53.099609 c -25.31157,0.02735 -50.64097,-0.02371 -75.94141,0.03125 -1.866841,0.843174 -2.772686,2.817186 -4.072534,4.288812 -3.12483,4.155796 -5.737372,8.734305 -7.646216,13.56861 -2.089082,5.512919 -3.220828,11.402446 -3.088118,17.311304 0.110471,5.081029 0.934012,10.225476 2.886946,14.932835 0.32855,0.86321 1.073591,1.15109 1.971484,0.94883 89.163148,-0.0292 178.326298,-0.0584 267.489458,-0.0875 1.73798,-3.32576 2.32608,-7.118282 3.03711,-10.765625 0.24926,-3.98859 0.33657,-8.025378 -0.0693,-12.004002 -1.10857,-6.586227 -3.33726,-13.02866 -6.8702,-18.708889 -2.0324,-3.127437 -4.05128,-6.349885 -6.71875,-8.984375 -1.65968,-0.365301 -3.53421,-0.06046 -5.27335,-0.177945 -55.23433,-0.382581 -110.4698,-0.38478 -165.70516,-0.353305 z" id="path0"/>
    <path style="fill:#f5efab;fill-rule:evenodd;stroke:none" d="M 193.19141,8.6445312 C 172.54974,9.4219934 151.8688,12.205698 132.14258,18.464844 115.19399,23.86555 98.784129,31.639095 84.890625,42.853516 c -2.55773,2.141003 -5.068603,4.411423 -7.212891,6.951172 -0.420181,1.293189 1.362841,1.714523 2.314454,1.701171 5.791923,-0.157248 11.599984,0.01677 17.400384,-0.03776 73.714818,0.07595 147.429768,0.09502 221.144538,-0.03451 1.13838,0.703426 2.81809,-1.016095 1.63672,-1.980469 C 315.16366,43.587268 308.71776,39.193086 302.34375,34.951172 279.55077,20.676686 253.07197,13.293618 226.52136,10.219194 216.0292,9.1127466 205.48082,8.4696742 194.92696,8.6419473 c -0.57852,8.613e-4 -1.15704,0.00172 -1.73555,0.00258 z" id="path2"/>
    <path style="fill:#b194bf;fill-rule:evenodd;stroke:none" d="m 199.28906,105.67969 c -44.21994,0.0378 -88.44112,-0.004 -132.660154,0.18554 -1.325381,0.18847 -0.716671,1.83778 -0.1875,2.53711 6.717399,13.32737 18.230323,23.57898 30.714355,31.41297 19.310699,12.00664 41.361289,18.98213 63.690159,22.70656 11.80071,1.89748 23.73978,3.06256 35.70168,2.99922 10.7112,0.19802 21.43034,-0.30876 32.06347,-1.62838 22.76819,-2.81234 45.37148,-8.81742 65.66451,-19.69635 13.43207,-7.22224 26.08142,-16.71776 34.65506,-29.5207 1.41196,-2.2405 2.81709,-4.50928 3.94027,-6.90665 0.43436,-0.77189 0.39298,-2.03636 -0.74591,-2.03268 -16.54378,0.0349 -33.1224,-0.0665 -49.67969,-0.048 -27.71874,-0.0202 -55.4375,-0.005 -83.15625,-0.009 z" id="path3"/>
    <path style="fill:#fef80d;fill-rule:evenodd;stroke:none" d="m 161.21094,18.822266 c -3.17117,0.0064 -7.07603,-0.146911 -9.24219,2.628906 -1.54901,1.876073 -2.24058,4.318223 -2.70117,6.658203 -0.24888,2.308923 1.72054,4.09446 3.78195,4.667117 2.98794,0.834452 6.13406,0.287533 9.18944,0.577108 1.26696,0.09122 2.86742,0.01815 3.82744,0.917884 0.56687,2.541411 -2.10748,4.568313 -4.4375,4.605469 -2.60883,0.234521 -5.32736,0.185187 -7.86077,-0.461866 -1.17354,-0.449671 -1.24493,-1.951178 -2.44587,-2.389696 -1.08665,-0.69898 -2.77324,-0.90367 -3.48579,0.421659 -1.38987,2.211585 -0.57689,5.706872 2.09125,6.515841 1.94801,0.580421 4.0185,0.03966 6.02028,0.269406 3.56545,0.0094 7.28192,0.262559 10.71472,-0.81493 3.34777,-1.87919 4.57568,-6.156158 4.17713,-9.779554 -0.13875,-2.26807 -1.93251,-4.293409 -4.25197,-4.422969 -2.54381,-0.128729 -5.09473,0.0086 -7.64255,-0.112997 -1.22728,-0.09954 -2.64763,0.146342 -3.74222,-0.379191 -0.7619,-0.988785 0.32282,-2.006065 0.76172,-2.853515 0.93053,-1.241012 2.55898,-1.382037 3.97298,-1.186734 2.35089,-0.01918 4.73985,-0.176291 7.03874,0.327359 0.88923,1.751814 3.32402,2.019132 4.95508,1.28125 1.50738,-0.848966 1.06614,-2.98707 0.44141,-4.267578 -0.76139,-1.566825 -2.5551,-2.104182 -4.17557,-1.979264 -2.32302,-0.195456 -4.65607,-0.247835 -6.98654,-0.221908 z m 81.85742,6.09375 c -1.26256,-0.162147 -2.63174,0.507984 -2.78125,1.875 -0.36652,2.53687 -1.42265,4.910388 -1.86914,7.441406 -0.59008,2.408781 -0.91372,4.903538 -1.94141,7.169922 -0.26501,1.610814 1.84541,1.996353 3.03759,1.912828 1.58239,0.201759 2.41838,-1.378537 2.54718,-2.727231 0.62419,-2.277889 1.06334,-4.607182 1.70429,-6.886769 0.71318,-2.728294 3.2442,-4.875237 6.09571,-4.857422 1.50351,0.129 3.28811,-1.24074 2.73633,-2.849609 -0.97146,-1.610306 -3.19255,-0.993141 -4.72015,-0.851255 -1.01778,-0.03454 -2.08238,0.87924 -2.95563,0.155942 -0.58182,-0.261396 -1.2189,-0.373654 -1.85352,-0.382812 z m -51.49805,0.05273 c -1.71773,-0.21331 -2.50158,1.64108 -2.38493,3.065144 -0.58961,1.655603 -0.89172,3.434671 -1.32264,5.126219 -0.67214,1.767792 -0.43052,4.212704 -2.31977,5.218793 -2.00758,1.257134 -5.15977,0.937671 -6.49805,-1.146484 -0.15917,-1.186793 0.81312,-2.196899 0.75485,-3.407763 0.46432,-2.498646 1.21876,-4.956227 1.79398,-7.400831 -0.1,-1.613994 -2.18183,-1.67063 -3.36328,-1.316406 -1.5967,0.467541 -2.06455,2.258612 -1.98556,3.735821 -0.0786,1.033526 -0.44634,1.993097 -0.7227,2.972871 -0.19805,0.702129 -0.34915,1.414634 -0.31323,2.172167 -0.16966,1.52432 -1.1523,2.723368 -0.96127,4.31322 -0.0154,0.966312 0.0451,2.059602 -0.0797,3.020765 1.39142,0.0257 2.06591,1.664167 3.47596,1.692292 2.76999,1.12548 5.77983,0.203975 8.56546,-0.198004 1.34207,0.32705 3.33055,0.950153 4.2535,-0.531398 1.42637,-4.800339 2.45382,-9.719063 3.73633,-14.546875 0.63984,-0.772544 0.77524,-2.163971 -0.39844,-2.503906 -0.69736,-0.306713 -1.48276,-0.323987 -2.23047,-0.265625 z m 8.30469,-0.0098 c -2.03537,0.242225 -2.17255,2.679045 -2.5983,4.229429 -1.15059,4.664751 -2.21411,9.370355 -3.49936,13.987368 -0.1986,1.133037 0.95143,1.73438 1.93561,1.608808 1.52333,0.26582 3.84781,-0.09391 3.94347,-2.027871 -0.0198,-0.605371 0.33405,-1.427107 1.03219,-0.908933 3.76475,1.355865 8.48736,0.645374 11.29579,-2.31248 2.0432,-2.654344 2.5303,-6.099315 3.22228,-9.283014 0.40377,-2.254014 -1.22689,-4.533677 -3.5016,-4.859713 -3.62565,-0.869772 -7.3586,0.207646 -11.00578,-0.431913 -0.27447,-0.0093 -0.5499,-0.0034 -0.8243,-0.0017 z m 24.56836,0.16211 c -1.42397,0.206206 -2.85003,0.905393 -3.8967,1.84056 -2.04846,2.798225 -2.75217,6.330011 -3.2784,9.686307 -0.34166,2.109765 0.0313,4.845291 2.29333,5.722842 2.9987,1.372679 6.41152,0.718115 9.57112,0.47259 2.33377,-0.315381 4.90657,-1.613294 5.49424,-4.075815 -0.0305,-1.41853 -1.64673,-1.988171 -2.77539,-2.304687 -1.47679,0.114472 -2.23057,1.782122 -3.69975,2.036634 -1.9694,0.804425 -4.836,0.793364 -6.12251,-1.181166 -0.1885,-1.368177 1.62584,-0.967504 2.47615,-1.067823 3.27189,-0.0072 7.17079,0.562113 9.75041,-1.93413 1.89294,-1.94422 2.86939,-5.446655 0.89258,-7.658203 -3.14432,-2.177923 -7.15095,-1.209262 -10.70508,-1.537109 z m -18.07031,4.021484 c 1.88064,-0.144712 4.35617,1.423077 3.58023,3.554965 -0.60539,2.102616 -1.33462,4.753883 -3.78726,5.314176 -1.79042,0.483499 -4.62269,0.239151 -5.05469,-1.964844 0.48272,-1.476441 0.6855,-3.053032 1.14062,-4.523437 0.66172,-1.555316 2.49987,-2.402017 4.1211,-2.38086 z m 22.65234,0.136719 c 0.86107,0.05611 2.5163,0.491092 2.15039,1.595703 -1.52497,1.464506 -3.82549,0.601714 -5.71094,0.958984 -0.74515,0.03432 -1.60872,0.171509 -2.24023,-0.324218 0.9577,-2.030054 3.82459,-2.416391 5.80078,-2.230469 z" id="path4"/>
    <path style="fill:#ffffff;fill-rule:evenodd;stroke:none;stroke-width:0.97061545" d="m 176.04416,3.26719 c -32.95398,2.7116649 -66.26343,12.426432 -92.881666,32.575347 -17.448376,12.87334 -30.79578,33.770411 -28.405318,56.182661 0.66471,17.166472 11.456076,32.135722 23.729009,43.280702 15.843772,13.04662 34.684965,22.66456 54.523815,28.09528 10.6434,3.37164 22.1574,5.86961 33.42914,7.13746 18.9174,2.08348 38.06338,1.24845 57.07184,0.93953 24.23695,-1.6554 48.18867,-8.33932 69.97794,-18.70038 21.43583,-10.78577 42.3923,-27.08145 49.16918,-51.1037 2.03564,-9.512108 2.25331,-20.137312 -0.36855,-29.757132 C 334.95988,48.45636 314.51015,32.436015 293.24487,21.908429 278.55847,14.92143 263.06503,9.4448237 247.03952,6.7560667 227.266,1.5476634 206.4068,3.3098432 186.08483,3.0408483 c -3.34747,0.0454 -6.69464,0.1175453 -10.04067,0.2263417 z M 213.659,8.0608866 c 38.38359,2.5395484 78.6776,12.9148104 107.22007,40.0956984 15.18013,14.591952 23.4817,38.257823 13.94725,58.177875 -12.82929,28.0064 -42.52121,42.89193 -70.54982,51.69849 -46.74116,13.52561 -98.14667,12.37492 -143.77885,-4.85553 C 95.433956,143.08849 69.236277,126.47995 61.43253,98.986211 54.723776,74.444845 71.289761,50.358317 91.00911,37.23926 126.63832,13.089158 171.35458,5.87438 213.659,8.0608866 Z" id="path5"/>
    <path id="path1" d="m 188.534,5.969 c -5.194,0.167 -9.817,0.458 -10.766,0.676 -0.385,0.089 -2.315,0.284 -4.289,0.435 -1.974,0.15 -4.14,0.391 -4.814,0.536 -0.674,0.145 -2.131,0.348 -3.238,0.451 -2.053,0.191 -3.579,0.43 -3.86,0.604 -0.086,0.053 -1.351,0.254 -2.811,0.446 -1.46,0.192 -2.8,0.427 -2.978,0.522 -0.178,0.096 -1.212,0.297 -2.296,0.448 -1.085,0.15 -2.237,0.384 -2.56,0.519 -0.324,0.135 -1.348,0.36 -2.276,0.499 -0.928,0.139 -1.976,0.374 -2.329,0.522 -0.353,0.148 -1.219,0.358 -1.926,0.468 -0.706,0.109 -1.638,0.337 -2.072,0.505 -0.433,0.168 -1.339,0.406 -2.013,0.529 -0.674,0.122 -1.434,0.328 -1.689,0.457 -0.255,0.129 -1.121,0.386 -1.925,0.572 -0.804,0.186 -1.817,0.461 -2.25,0.611 -1.399,0.484 -3.032,0.991 -4.376,1.358 -0.722,0.197 -1.398,0.428 -1.501,0.514 -0.103,0.086 -0.694,0.283 -1.313,0.438 -0.619,0.156 -1.292,0.389 -1.497,0.519 -0.204,0.13 -0.834,0.357 -1.4,0.504 -0.566,0.148 -1.341,0.428 -1.722,0.624 -0.382,0.195 -0.815,0.355 -0.963,0.356 -0.148,0 -0.742,0.236 -1.32,0.524 -0.578,0.288 -1.176,0.524 -1.33,0.525 -0.155,0 -0.651,0.197 -1.104,0.438 -0.453,0.241 -0.919,0.438 -1.037,0.438 -0.118,0 -0.685,0.233 -1.26,0.519 -0.575,0.286 -1.124,0.523 -1.221,0.526 -0.096,0.003 -0.722,0.281 -1.39,0.618 -0.669,0.337 -1.348,0.612 -1.51,0.612 -0.163,0 -0.39,0.114 -0.506,0.254 -0.116,0.139 -0.499,0.348 -0.853,0.464 -0.614,0.201 -2.251,0.964 -3.181,1.483 -0.24,0.134 -0.713,0.365 -1.05,0.514 -0.337,0.148 -0.731,0.348 -0.875,0.445 -0.145,0.096 -0.657,0.376 -1.138,0.623 -0.481,0.246 -1.348,0.713 -1.926,1.039 -0.577,0.325 -1.404,0.763 -1.838,0.973 -0.433,0.21 -0.827,0.439 -0.875,0.509 -0.048,0.069 -0.403,0.298 -0.788,0.509 -0.385,0.21 -1.133,0.65 -1.663,0.977 -0.529,0.328 -1.322,0.791 -1.761,1.028 -0.44,0.238 -0.902,0.557 -1.028,0.709 -0.126,0.152 -0.318,0.277 -0.427,0.277 -0.108,0 -0.473,0.237 -0.81,0.526 -0.337,0.289 -0.77,0.574 -0.963,0.634 -0.192,0.06 -0.468,0.219 -0.612,0.354 -0.28,0.261 -1.15,0.886 -2.014,1.446 -0.288,0.187 -0.643,0.453 -0.787,0.591 -0.145,0.138 -0.438,0.343 -0.653,0.454 -0.214,0.112 -0.58,0.379 -0.813,0.594 -0.232,0.214 -0.795,0.665 -1.25,1.002 -4.017,2.976 -9.697,8.348 -14.051,13.289 -0.729,0.828 -3.111,3.983 -3.473,4.601 -0.108,0.184 -0.364,0.491 -0.569,0.682 -0.205,0.191 -0.373,0.46 -0.373,0.597 0,0.138 -0.236,0.519 -0.525,0.848 -0.289,0.329 -0.525,0.68 -0.525,0.781 0,0.1 -0.186,0.404 -0.414,0.677 -0.228,0.272 -0.469,0.672 -0.537,0.889 -0.068,0.217 -0.304,0.611 -0.524,0.876 -0.22,0.264 -0.494,0.769 -0.61,1.122 -0.115,0.354 -0.319,0.734 -0.454,0.846 -0.134,0.112 -0.336,0.492 -0.447,0.845 -0.112,0.354 -0.383,0.919 -0.603,1.256 -0.22,0.337 -0.449,0.897 -0.51,1.245 -0.06,0.348 -0.26,0.768 -0.443,0.934 -0.184,0.167 -0.387,0.63 -0.451,1.031 -0.065,0.401 -0.266,0.987 -0.448,1.303 -0.182,0.316 -0.45,1.087 -0.595,1.714 -0.146,0.626 -0.378,1.359 -0.518,1.628 -0.139,0.269 -0.376,1.192 -0.527,2.05 -0.151,0.858 -0.396,1.907 -0.544,2.33 -0.943,2.698 -0.943,15.895 0,18.593 0.148,0.423 0.389,1.451 0.536,2.284 0.147,0.833 0.415,1.858 0.597,2.276 0.181,0.418 0.385,1.115 0.451,1.548 0.067,0.433 0.272,1.048 0.456,1.367 0.183,0.318 0.423,0.948 0.532,1.4 0.11,0.452 0.341,0.979 0.515,1.172 0.173,0.192 0.387,0.665 0.474,1.05 0.087,0.385 0.368,1.007 0.623,1.381 0.256,0.375 0.466,0.808 0.468,0.963 0.002,0.155 0.238,0.629 0.525,1.052 0.287,0.424 0.522,0.903 0.522,1.064 0,0.161 0.19,0.472 0.423,0.69 0.232,0.219 0.474,0.602 0.536,0.851 0.063,0.249 0.306,0.681 0.54,0.959 0.235,0.279 0.427,0.589 0.427,0.689 0,0.1 0.236,0.452 0.525,0.781 0.289,0.329 0.525,0.688 0.525,0.799 0,0.111 0.169,0.381 0.374,0.6 0.206,0.219 0.462,0.551 0.569,0.736 2.354,4.082 11.474,13.388 17.525,17.882 0.454,0.337 0.994,0.778 1.2,0.98 0.207,0.202 0.573,0.468 0.813,0.593 0.241,0.124 0.556,0.335 0.701,0.469 0.325,0.301 1.32,1.007 1.995,1.415 0.279,0.168 0.631,0.444 0.783,0.613 0.151,0.168 0.37,0.306 0.486,0.306 0.115,0 0.433,0.188 0.706,0.417 0.473,0.398 0.816,0.626 2.138,1.421 0.32,0.193 0.83,0.524 1.132,0.736 0.302,0.213 0.786,0.51 1.075,0.66 0.289,0.151 0.958,0.545 1.488,0.877 0.529,0.331 1.356,0.805 1.838,1.054 0.481,0.248 1.348,0.718 1.925,1.044 0.578,0.326 1.405,0.762 1.838,0.968 0.434,0.207 0.906,0.477 1.051,0.601 0.144,0.124 0.533,0.316 0.864,0.427 0.33,0.111 0.728,0.317 0.884,0.458 0.155,0.14 0.629,0.378 1.053,0.527 0.423,0.15 0.892,0.378 1.041,0.508 0.149,0.13 0.587,0.336 0.972,0.457 0.385,0.122 0.902,0.363 1.148,0.536 0.247,0.173 0.68,0.37 0.963,0.438 0.283,0.068 0.83,0.301 1.215,0.517 0.385,0.217 1.015,0.491 1.4,0.611 0.385,0.119 0.819,0.317 0.963,0.44 0.144,0.122 0.657,0.343 1.138,0.489 0.481,0.146 1.187,0.43 1.569,0.63 0.381,0.2 0.815,0.363 0.964,0.363 0.149,0 0.624,0.187 1.057,0.416 0.432,0.228 1.235,0.544 1.784,0.702 0.549,0.158 1.041,0.357 1.093,0.443 0.053,0.085 0.51,0.252 1.016,0.371 0.506,0.119 1.204,0.36 1.552,0.535 0.349,0.174 1.018,0.412 1.488,0.527 0.471,0.115 1.131,0.342 1.468,0.504 0.337,0.163 1.085,0.395 1.663,0.516 0.578,0.121 1.226,0.332 1.441,0.468 0.214,0.137 0.946,0.365 1.626,0.508 0.679,0.143 1.467,0.38 1.749,0.526 0.283,0.146 1.116,0.38 1.852,0.521 0.736,0.141 1.434,0.336 1.552,0.434 0.118,0.098 0.988,0.337 1.933,0.532 0.946,0.194 1.81,0.429 1.921,0.521 0.111,0.092 0.946,0.296 1.854,0.452 0.909,0.157 1.923,0.398 2.255,0.536 0.331,0.138 1.328,0.368 2.216,0.511 0.887,0.143 1.937,0.374 2.334,0.514 0.396,0.14 1.565,0.375 2.598,0.522 1.032,0.147 2.192,0.378 2.577,0.513 0.385,0.135 1.548,0.336 2.584,0.446 1.036,0.111 2.458,0.348 3.161,0.528 0.703,0.18 2.021,0.381 2.931,0.448 0.909,0.067 2.44,0.27 3.403,0.452 0.963,0.182 2.814,0.414 4.114,0.514 2.655,0.205 4.792,0.431 6.477,0.684 6.259,0.939 37.854,0.818 42.672,-0.163 0.456,-0.093 2.365,-0.287 4.243,-0.431 1.877,-0.145 4.24,-0.415 5.251,-0.601 1.011,-0.185 2.744,-0.424 3.851,-0.53 1.108,-0.105 2.387,-0.305 2.843,-0.444 0.456,-0.139 1.638,-0.339 2.626,-0.444 0.988,-0.104 2.348,-0.341 3.022,-0.526 0.673,-0.185 1.879,-0.423 2.678,-0.53 0.799,-0.106 1.774,-0.306 2.166,-0.445 0.392,-0.138 1.51,-0.378 2.485,-0.533 0.976,-0.154 1.97,-0.382 2.211,-0.506 0.241,-0.124 1.068,-0.323 1.838,-0.442 0.77,-0.12 1.755,-0.361 2.188,-0.537 0.434,-0.176 1.291,-0.408 1.906,-0.514 0.615,-0.107 1.482,-0.337 1.926,-0.511 0.444,-0.174 1.162,-0.375 1.595,-0.446 0.433,-0.07 1.221,-0.307 1.75,-0.526 0.53,-0.219 1.318,-0.456 1.751,-0.525 0.433,-0.07 1.118,-0.276 1.521,-0.457 0.404,-0.182 1.152,-0.419 1.663,-0.527 0.512,-0.109 1.206,-0.336 1.543,-0.504 0.336,-0.169 1.016,-0.393 1.511,-0.498 0.494,-0.105 1.163,-0.341 1.488,-0.525 0.324,-0.184 0.983,-0.428 1.464,-0.543 0.482,-0.114 1.033,-0.31 1.226,-0.434 0.192,-0.125 0.814,-0.361 1.381,-0.526 0.567,-0.165 1.197,-0.403 1.4,-0.53 0.204,-0.128 0.685,-0.327 1.07,-0.444 0.385,-0.117 1.09,-0.401 1.566,-0.632 0.476,-0.231 0.961,-0.42 1.076,-0.42 0.116,0 0.66,-0.236 1.209,-0.525 0.549,-0.289 1.137,-0.525 1.307,-0.525 0.17,0 0.497,-0.146 0.726,-0.325 0.23,-0.178 0.825,-0.458 1.324,-0.622 0.498,-0.164 0.998,-0.41 1.111,-0.546 0.114,-0.137 0.475,-0.299 0.803,-0.36 0.328,-0.062 0.788,-0.263 1.021,-0.446 0.234,-0.184 0.75,-0.449 1.148,-0.59 0.398,-0.14 0.925,-0.414 1.173,-0.609 0.247,-0.194 0.586,-0.353 0.752,-0.353 0.166,0 0.594,-0.198 0.95,-0.44 0.357,-0.242 0.924,-0.555 1.26,-0.696 0.337,-0.141 0.815,-0.415 1.063,-0.61 0.248,-0.195 0.588,-0.355 0.756,-0.355 0.168,0 0.413,-0.131 0.545,-0.291 0.133,-0.16 0.635,-0.478 1.116,-0.707 0.481,-0.229 1.308,-0.688 1.838,-1.021 0.53,-0.333 1.258,-0.736 1.619,-0.895 0.361,-0.16 0.657,-0.356 0.657,-0.436 0,-0.08 0.374,-0.346 0.831,-0.592 0.458,-0.245 1.154,-0.66 1.548,-0.922 0.394,-0.261 0.985,-0.647 1.313,-0.857 0.602,-0.385 0.86,-0.564 2.61,-1.815 0.529,-0.378 1.222,-0.866 1.539,-1.083 0.317,-0.218 1.077,-0.79 1.689,-1.272 0.611,-0.481 1.494,-1.167 1.961,-1.524 1.074,-0.819 1.677,-1.314 2.409,-1.977 0.319,-0.289 1.623,-1.47 2.9,-2.626 1.276,-1.155 3.227,-3.085 4.335,-4.288 1.109,-1.204 2.4,-2.597 2.869,-3.096 0.469,-0.499 0.853,-0.989 0.853,-1.09 0,-0.1 0.197,-0.312 0.438,-0.469 0.241,-0.158 0.438,-0.386 0.438,-0.506 0,-0.12 0.186,-0.406 0.413,-0.636 0.227,-0.23 0.542,-0.67 0.7,-0.978 0.158,-0.308 0.395,-0.623 0.526,-0.7 0.131,-0.077 0.37,-0.396 0.53,-0.709 0.16,-0.313 0.366,-0.569 0.459,-0.569 0.092,0 0.286,-0.283 0.43,-0.629 0.145,-0.345 0.461,-0.863 0.703,-1.151 0.242,-0.287 0.44,-0.604 0.44,-0.703 0,-0.099 0.197,-0.414 0.438,-0.7 0.24,-0.286 0.437,-0.621 0.437,-0.745 0,-0.124 0.237,-0.523 0.525,-0.886 0.289,-0.364 0.526,-0.802 0.526,-0.974 0,-0.172 0.189,-0.537 0.42,-0.812 0.231,-0.275 0.507,-0.82 0.612,-1.211 0.105,-0.391 0.34,-0.846 0.521,-1.01 0.182,-0.164 0.378,-0.598 0.437,-0.964 0.058,-0.366 0.254,-0.855 0.435,-1.086 0.18,-0.231 0.458,-0.869 0.617,-1.418 0.158,-0.549 0.361,-1.042 0.45,-1.097 0.089,-0.055 0.297,-0.709 0.462,-1.453 0.165,-0.745 0.441,-1.629 0.613,-1.966 0.172,-0.337 0.395,-1.218 0.495,-1.958 0.1,-0.739 0.296,-1.645 0.434,-2.013 1.115,-2.955 1.115,-16.062 0,-19.018 -0.138,-0.367 -0.334,-1.273 -0.434,-2.013 -0.1,-0.739 -0.327,-1.626 -0.503,-1.97 -0.176,-0.344 -0.416,-1.093 -0.532,-1.663 -0.116,-0.57 -0.357,-1.276 -0.535,-1.568 -0.177,-0.292 -0.408,-0.913 -0.513,-1.381 -0.105,-0.467 -0.346,-1.047 -0.537,-1.289 -0.19,-0.242 -0.394,-0.74 -0.452,-1.106 -0.059,-0.367 -0.255,-0.8 -0.437,-0.965 -0.181,-0.164 -0.416,-0.618 -0.521,-1.009 -0.105,-0.392 -0.381,-0.937 -0.612,-1.211 -0.231,-0.275 -0.42,-0.646 -0.42,-0.823 0,-0.178 -0.199,-0.56 -0.443,-0.849 -0.243,-0.289 -0.532,-0.787 -0.642,-1.108 -0.11,-0.32 -0.345,-0.685 -0.521,-0.81 -0.176,-0.126 -0.32,-0.337 -0.32,-0.468 0,-0.132 -0.198,-0.475 -0.44,-0.762 -0.242,-0.288 -0.558,-0.806 -0.703,-1.152 -0.144,-0.345 -0.338,-0.628 -0.43,-0.628 -0.093,0 -0.299,-0.256 -0.459,-0.569 -0.16,-0.313 -0.399,-0.632 -0.531,-0.71 -0.132,-0.077 -0.389,-0.432 -0.571,-0.787 -0.181,-0.356 -0.496,-0.798 -0.699,-0.981 -0.202,-0.183 -0.368,-0.43 -0.368,-0.549 0,-0.118 -0.197,-0.344 -0.438,-0.502 -0.241,-0.158 -0.438,-0.371 -0.438,-0.475 0,-0.103 -0.216,-0.4 -0.481,-0.659 -0.265,-0.259 -1.387,-1.479 -2.494,-2.712 -1.797,-1.999 -4.547,-4.669 -7.615,-7.392 -0.578,-0.512 -1.217,-1.092 -1.419,-1.288 -0.203,-0.196 -0.418,-0.356 -0.478,-0.356 -0.113,0 -2.725,-2.034 -3.37,-2.624 -0.201,-0.183 -0.575,-0.429 -0.831,-0.546 -0.257,-0.117 -0.467,-0.271 -0.467,-0.343 0,-0.072 -0.335,-0.337 -0.744,-0.589 -0.409,-0.252 -1.098,-0.732 -1.532,-1.066 -0.433,-0.334 -0.945,-0.678 -1.137,-0.765 -0.193,-0.086 -0.641,-0.382 -0.995,-0.657 -0.355,-0.275 -1.05,-0.736 -1.546,-1.025 -0.495,-0.289 -1.15,-0.699 -1.455,-0.912 -0.306,-0.212 -0.792,-0.509 -1.081,-0.66 -0.289,-0.15 -0.958,-0.544 -1.488,-0.876 -0.53,-0.331 -1.357,-0.806 -1.838,-1.054 -0.481,-0.248 -1.269,-0.681 -1.751,-0.962 -0.481,-0.281 -1.302,-0.716 -1.824,-0.967 -0.523,-0.251 -1.144,-0.609 -1.381,-0.795 -0.237,-0.186 -0.567,-0.339 -0.733,-0.339 -0.167,0 -0.506,-0.159 -0.753,-0.354 -0.248,-0.194 -0.775,-0.468 -1.173,-0.609 -0.398,-0.14 -0.914,-0.405 -1.148,-0.589 -0.233,-0.184 -0.693,-0.384 -1.021,-0.446 -0.328,-0.061 -0.689,-0.224 -0.803,-0.36 -0.113,-0.137 -0.613,-0.381 -1.111,-0.543 -0.499,-0.162 -1.024,-0.393 -1.169,-0.513 -0.144,-0.12 -0.577,-0.315 -0.962,-0.434 -0.386,-0.119 -0.942,-0.354 -1.238,-0.523 -0.295,-0.168 -0.965,-0.446 -1.488,-0.616 -0.523,-0.171 -1.031,-0.374 -1.13,-0.451 -0.202,-0.159 -2.028,-0.873 -3.831,-1.498 -0.665,-0.231 -1.296,-0.492 -1.403,-0.58 -0.106,-0.088 -0.586,-0.257 -1.066,-0.374 -0.48,-0.118 -1.158,-0.356 -1.506,-0.53 -0.348,-0.174 -1.017,-0.41 -1.488,-0.525 -0.47,-0.115 -1.131,-0.346 -1.467,-0.513 -0.337,-0.168 -1.086,-0.399 -1.664,-0.516 -0.577,-0.116 -1.225,-0.323 -1.44,-0.459 -0.215,-0.137 -0.924,-0.361 -1.576,-0.499 -0.651,-0.137 -1.539,-0.404 -1.973,-0.591 -0.433,-0.188 -1.18,-0.398 -1.66,-0.466 -0.48,-0.068 -1.102,-0.242 -1.381,-0.386 -0.28,-0.145 -1.259,-0.414 -2.176,-0.598 -0.917,-0.185 -1.758,-0.411 -1.868,-0.503 -0.111,-0.092 -0.945,-0.295 -1.854,-0.452 -0.908,-0.156 -1.923,-0.397 -2.254,-0.535 -0.331,-0.139 -1.329,-0.368 -2.216,-0.511 -0.887,-0.143 -1.938,-0.374 -2.334,-0.514 -0.396,-0.14 -1.565,-0.375 -2.598,-0.522 C 244.433,9.926 243.274,9.695 242.888,9.56 242.503,9.425 241.322,9.222 240.263,9.11 239.204,8.997 237.746,8.757 237.024,8.576 236.302,8.395 234.75,8.164 233.576,8.062 232.401,7.96 230.937,7.76 230.321,7.617 229.705,7.474 227.594,7.236 225.629,7.088 223.664,6.941 221.676,6.742 221.21,6.647 217.863,5.964 200.107,5.596 188.534,5.969 m 23.551,4.01 c 2.603,0.095 5.557,0.285 6.565,0.423 1.007,0.138 3.171,0.343 4.807,0.455 1.637,0.113 3.646,0.318 4.464,0.457 0.819,0.138 2.891,0.405 4.605,0.591 1.715,0.187 3.186,0.383 3.269,0.434 0.238,0.147 1.853,0.428 3.585,0.624 0.871,0.098 1.967,0.293 2.437,0.432 0.47,0.14 1.73,0.382 2.801,0.538 1.07,0.156 2.089,0.36 2.263,0.452 0.174,0.092 1.159,0.314 2.188,0.494 1.03,0.179 2.187,0.439 2.572,0.577 0.385,0.139 1.291,0.351 2.013,0.472 0.722,0.121 1.668,0.358 2.101,0.526 0.433,0.168 1.332,0.399 1.997,0.513 0.666,0.115 1.414,0.313 1.663,0.441 0.25,0.128 1.067,0.358 1.817,0.512 0.75,0.155 1.538,0.375 1.751,0.49 0.213,0.114 0.938,0.347 1.612,0.515 1.329,0.333 2.992,0.874 4.377,1.423 0.481,0.191 1.271,0.445 1.754,0.565 0.484,0.12 1.114,0.338 1.401,0.484 0.286,0.146 0.993,0.401 1.571,0.567 0.578,0.166 1.139,0.374 1.247,0.462 0.108,0.089 0.62,0.285 1.138,0.436 0.517,0.151 1.105,0.379 1.305,0.507 0.2,0.128 0.784,0.357 1.299,0.51 0.514,0.152 1.099,0.384 1.299,0.514 0.2,0.13 0.679,0.338 1.064,0.462 0.385,0.124 1.054,0.412 1.487,0.639 0.432,0.228 0.865,0.414 0.96,0.414 0.096,0 0.609,0.208 1.139,0.461 1.63,0.778 3.037,1.434 3.679,1.715 0.337,0.147 0.731,0.342 0.875,0.432 0.145,0.091 0.578,0.317 0.963,0.503 0.385,0.186 0.976,0.472 1.313,0.635 0.337,0.163 0.81,0.408 1.05,0.545 0.241,0.136 0.832,0.449 1.313,0.696 0.482,0.246 1.319,0.702 1.862,1.013 0.542,0.311 1.734,0.979 2.649,1.484 0.914,0.506 1.76,1.038 1.879,1.182 0.12,0.144 0.315,0.262 0.435,0.262 0.119,0 0.499,0.217 0.845,0.481 0.345,0.265 0.958,0.679 1.361,0.919 0.708,0.423 1.921,1.208 2.706,1.751 0.209,0.144 0.804,0.554 1.324,0.911 0.519,0.356 1.259,0.886 1.644,1.176 0.385,0.291 0.896,0.669 1.135,0.84 0.239,0.171 0.567,0.43 0.73,0.574 0.162,0.144 0.667,0.538 1.121,0.875 1.885,1.397 3.41,2.721 7.231,6.279 1.924,1.791 2.079,1.999 1.804,2.431 -0.121,0.191 -241.889,0.366 -242.05,0.175 -0.395,-0.471 -0.188,-0.837 1.187,-2.1 0.795,-0.732 1.896,-1.75 2.447,-2.263 0.55,-0.513 1.282,-1.169 1.627,-1.458 0.344,-0.289 0.851,-0.722 1.126,-0.963 1.381,-1.21 2.994,-2.494 3.955,-3.151 0.353,-0.241 0.809,-0.595 1.014,-0.788 0.205,-0.192 0.662,-0.547 1.016,-0.788 0.354,-0.24 1.33,-0.91 2.169,-1.488 1.553,-1.069 2.177,-1.476 3.212,-2.1 0.319,-0.193 0.86,-0.567 1.201,-0.832 0.341,-0.264 0.721,-0.481 0.845,-0.481 0.124,0 0.448,-0.179 0.72,-0.398 0.272,-0.219 0.77,-0.539 1.107,-0.712 0.928,-0.476 1.673,-0.899 2.22,-1.26 0.501,-0.331 1.64,-0.955 2.594,-1.422 0.289,-0.141 0.644,-0.333 0.788,-0.426 0.144,-0.093 0.735,-0.404 1.313,-0.69 0.578,-0.287 1.168,-0.594 1.313,-0.682 0.622,-0.379 3.226,-1.587 3.42,-1.587 0.117,0 0.311,-0.118 0.43,-0.262 0.119,-0.143 0.542,-0.348 0.939,-0.455 0.397,-0.107 0.924,-0.339 1.172,-0.515 0.247,-0.176 0.681,-0.375 0.964,-0.44 0.283,-0.066 0.83,-0.297 1.215,-0.514 0.385,-0.216 1.015,-0.492 1.4,-0.613 0.385,-0.121 0.937,-0.359 1.226,-0.53 0.289,-0.17 0.801,-0.365 1.138,-0.433 0.337,-0.068 0.794,-0.239 1.017,-0.38 0.222,-0.141 0.931,-0.441 1.575,-0.666 0.644,-0.225 1.841,-0.659 2.659,-0.965 0.819,-0.305 2,-0.705 2.626,-0.888 0.626,-0.183 1.345,-0.451 1.598,-0.597 0.253,-0.145 0.883,-0.354 1.4,-0.464 0.518,-0.109 1.219,-0.34 1.559,-0.512 0.34,-0.171 1.05,-0.392 1.579,-0.49 0.528,-0.097 1.353,-0.332 1.832,-0.52 0.48,-0.189 1.345,-0.44 1.923,-0.559 0.577,-0.118 1.247,-0.316 1.488,-0.44 0.24,-0.123 1.14,-0.355 2,-0.516 0.859,-0.161 1.765,-0.396 2.013,-0.523 0.248,-0.126 1.041,-0.327 1.763,-0.446 0.723,-0.118 1.747,-0.356 2.276,-0.529 0.53,-0.172 1.585,-0.407 2.345,-0.522 0.761,-0.115 1.706,-0.324 2.101,-0.464 0.395,-0.14 1.348,-0.333 2.119,-0.429 0.77,-0.096 2.188,-0.358 3.151,-0.582 0.962,-0.224 2.504,-0.494 3.426,-0.6 0.921,-0.106 2.142,-0.308 2.713,-0.448 0.571,-0.141 2.259,-0.379 3.751,-0.528 1.493,-0.15 2.989,-0.352 3.326,-0.45 0.337,-0.097 2.228,-0.296 4.202,-0.443 1.973,-0.146 4.534,-0.387 5.689,-0.536 4.189,-0.541 21.916,-0.776 31.691,-0.421 m -54.871,8.351 c -1.19386,0.188901 -2.33124,0.803172 -3.359,1.186 -0.63912,0.35165 -1.23926,0.748245 -1.705,1.237 -0.35354,0.375107 -0.70765,0.656571 -1.007,0.998 -0.66586,1.016966 -1.00074,1.984572 -1.47,2.978 -0.858,1.091 -0.882,5.454 -0.034,6.403 0.259,0.29 0.707,0.858 0.996,1.261 0.288,0.404 0.728,0.942 0.977,1.195 0.249,0.253 0.547,0.637 0.663,0.854 0.115,0.217 0.298,0.394 0.406,0.394 0.108,0 0.461,0.202 0.785,0.449 1.286,0.981 3.244,1.337 7.143,1.298 1.927,-0.018 3.603,-0.026 3.724,-0.015 0.246,0.021 0.292,0.857 0.066,1.213 -0.266,0.42 -1.467,0.548 -5.187,0.551 -3.923,0.003 -5.39333,0.06687 -5.72033,-0.548126 -0.61492,-0.762 -0.61737,-0.926772 -1.45052,-1.557146 -0.29249,-0.221297 -0.48103,-0.291679 -0.91815,-0.497728 -0.90358,-0.640223 -1.68344,-0.631592 -2.3075,-0.611748 -0.49756,0.144418 -1.06906,0.469661 -1.3045,0.996748 -0.46101,0.770119 -0.68446,1.025765 -0.918,2.061 -0.0969,0.97601 -0.0629,0.94932 0.103,1.867 0.23907,0.677019 0.46778,1.354102 0.782,1.924 0.58987,0.937875 0.82525,1.208125 1.669,2.124 0.25476,0.276538 1.602,1.755 2.43,2.091 1.202,0.489 14.157,0.601 15.613,0.136 0.426,-0.137 0.984,-0.294 1.238,-0.349 0.382,-0.083 1.596,-0.922 2.114,-1.461 0.637,-0.662 1.238,-1.596 1.842,-2.864 0.952,-1.996 1.307,-2.123 1.787,-0.635 0.116,0.362 0.363,0.739 0.548,0.838 0.184,0.099 0.336,0.256 0.336,0.35 0,0.24 2.014,2.613 2.683,3.16 1.255,1.029 3.121,1.436 6.012,1.313 1.428,-0.061 3.817,-0.134 5.309,-0.163 1.492,-0.028 3.12,-0.115 3.616,-0.192 l 0.903,-0.141 0.457,0.69 c 0.896,1.354 1.165,1.452 3.989,1.451 2.98,0 3.546,-0.205 3.724,-1.347 0.203,-1.301 0.436,-1.547 1.411,-1.488 6.513,0.391 8.319,0 10.825,-2.345 0.421,-0.394 0.867,-0.996 0.991,-1.338 0.664,-1.838 1.808,-2.311 2.176,-0.899 0.099,0.379 0.337,0.858 0.53,1.063 0.192,0.206 0.625,0.753 0.962,1.216 0.639,0.878 1.761,2.034 2.366,2.439 2.489,1.665 11.906,1.007 14.002,-0.979 0.655,-0.621 1.444,-0.388 2.025,0.597 0.672,1.138 1.257,1.332 4.027,1.332 h 2.444 l 0.245,-0.569 c 0.457,-1.06 0.955,-2.839 1.215,-4.333 0.142,-0.818 0.374,-1.764 0.515,-2.101 0.141,-0.337 0.311,-1.046 0.379,-1.575 0.504,-3.937 2.438,-5.470125 7.413,-5.573 0.64513,-0.121125 1.02925,-1.063 1.601,-2.271 0.20538,-0.512 0.30963,-0.725 0.44,-1.308 0.0785,-1.283875 0.16475,-1.253375 -1.112,-3.049 -1.022,-1.268 -1.62804,-1.515476 -3.03153,-1.63633 -2.90314,-0.236039 -3.79634,0.288291 -5.26119,0.772592 -0.90039,-0.695136 -1.42006,-0.99001 -2.86706,-0.98901 -2.35403,0.510233 -2.46195,0.689926 -3.0325,2.040955 -0.21334,1.067865 -0.74534,2.120243 -1.03258,3.160862 -0.718,1.74131 -0.74214,1.473931 -3.11614,-2.182069 -1.092,-1.68 -4.98,-2.391 -10.725,-1.961 -2.519,0.188 -2.712,0.229 -3.473,0.733 -0.443,0.293 -0.861,0.533 -0.929,0.533 -0.259,0 -1.568,1.892 -1.674,2.417 -0.06,0.303 -0.218,0.641 -0.351,0.752 -0.133,0.11 -0.242,0.312 -0.242,0.449 0,0.354 -0.84,1.151 -1.066,1.011 -0.103,-0.064 -0.339,-0.442 -0.523,-0.841 -0.32177,-0.729089 -0.47571,-0.962869 -1.16369,-2.305018 -0.481,-0.778 -0.57816,-1.261536 -1.92024,-2.26883 -1.37286,-0.447633 -2.90301,-0.918996 -3.77131,-1.135038 -1.51493,-0.406014 -3.68724,-0.20087 -4.36624,0.165084 -0.567,0.305 -2.40119,-0.07915 -3.51619,-0.365154 -1.454,-0.373 -3.13071,0.213508 -3.42271,0.563508 -0.57041,0.492379 -0.72494,0.504788 -1.21484,1.015616 C 196.66257,26.720042 196.293,26.644 195.831,25.34 c -0.266,-0.75 -1.10824,-1.327862 -3.38324,-1.328862 -2.788,-10e-4 -2.99262,0.222452 -3.46304,2.445345 -0.68283,2.602592 -0.85492,3.297079 -1.389,5.436276 -0.4688,1.862862 -0.9309,3.271156 -1.49375,5.034965 -0.45632,0.898 -0.38352,1.000517 -1.17552,1.225517 -2.39,0.679 -3.11086,0.123 -2.76645,-1.423241 0.157,-0.416 0.405,-1.347 0.55,-2.069 0.145,-0.722 0.445,-1.943 0.666,-2.714 0.22,-0.77 0.492,-1.901 0.604,-2.512 0.111,-0.612 0.262,-1.273 0.334,-1.468 0.234,-0.634 -1.264,-2.847 -2.292,-3.386 -0.759,-0.398 -4.664,-0.351 -4.818,0.058 -0.57175,0.152 -1.043,1.704 -1.509,2.293 -0.245,0.31 -0.578,-0.626 -0.744,-2.092 -0.083,-0.737 -0.247,-1.214 -0.533,-1.555 -0.96795,-1.553484 -0.69757,-1.742497 -2.032,-3.42275 -0.105,0 -1.1275,-1.14575 -2.118,-1.17525 -0.544,-0.388 -9.426,-0.631 -13.054,-0.357 m 12.852,1.141 c 0.385,0.263 0.779,0.565 0.875,0.67 0.096,0.106 0.378,0.403 0.626,0.66 0.26,0.27 0.575,0.93 0.744,1.56 0.676,2.517 0.297,3.022 -2.267,3.022 h -1.637 l -0.429,-0.679 c -0.639,-1.012 -0.974,-1.072 -6.067,-1.072 -5.773,0 -6.258,0.186 -7.018,2.686 l -0.365,1.201 0.552,0.551 0.552,0.551 5.904,-0.055 c 6.592,-0.061 6.007,-0.158 7.556,1.248 0.702,0.637 0.981,1.197 1.603,3.227 0.113,0.369 0.116,0.86 0.007,1.4 -0.971,4.831 -2.047,6.639 -4.747,7.974 l -1.134,0.561 h -7.549 -7.549 l -0.769,-0.687 c -1.901,-1.697 -1.802,-5.852 0.151,-6.342 0.597,-0.15 1.48086,0.155243 1.79022,0.381097 0.10015,0.07312 0.37178,0.290903 0.60978,0.398903 0.238,0.109 0.542,0.46 0.676,0.781 0.134,0.32 0.496,0.794 0.803,1.053 l 0.559,0.47 5.023,-0.083 c 5.518,-0.091 5.903,-0.131 6.173,-0.634 0.101,-0.189 0.359,-0.41 0.573,-0.492 0.35,-0.133 1.03,-1.837 1.191,-2.986 0.059,-0.42 -0.599,-1.378 -1.076,-1.566 -0.247,-0.098 -2.92,-0.195 -6.127,-0.223 l -5.689,-0.049 -1.152,-0.613 c -1.529,-0.813 -2.387,-1.786 -2.609,-2.96 -0.27863,-1.761 -0.0789,-2.467 0.49975,-4.31075 0.41153,-0.778668 0.56458,-1.10867 1.027,-1.996875 0.71648,-1.189445 1.11401,-1.711116 1.66788,-2.084375 1.18543,-0.897185 2.05156,-1.203466 3.27637,-1.677 1.33938,-0.399375 0.734,-0.429 6.918,-0.396 2.26665,0.26182 4.39366,0.122393 6.827,0.511 m 10.878,6.208 c 0.294,0.702 0.0547,1.116654 -0.395,3.364 -0.136,0.329 -0.331,1.156 -0.431,1.838 -0.42497,1.877103 -1.055,5.108934 -1.242,5.689934 -0.17634,1.77017 -0.16124,1.82741 2.431,2.581066 0.64968,0.09939 0.65823,0.117099 1.4489,0.239489 0.70194,-0.01821 0.67313,-0.02582 1.1631,-0.09049 0.43694,-0.122116 0.757,-0.262 1.07,-0.263 0.649,-10e-4 1.969,-1.055 1.969,-1.573 0.92427,-2.985816 0.50002,-1.573283 1.25862,-4.217858 0.55086,-2.587312 0.89121,-3.654348 1.62738,-6.686142 0.36807,-1.241069 1.089,-1.561 2.65,-1.493 l 1.204,0.052 0.256,0.739 c 0.236,0.686 0.226,0.832 -0.144,2.013 -0.219,0.701 -0.546,2 -0.726,2.886 -0.18,0.886 -0.415,1.775 -0.523,1.975 -0.107,0.2 -0.307,1.006 -0.445,1.79 -0.138,0.785 -0.401,1.866 -0.585,2.402 -0.183,0.536 -0.387,1.38 -0.454,1.876 -0.135,1.013 -0.99,3.605 -1.32,4.003 -0.303,0.364 -1.94,0.331 -3.21,-0.065 -0.967,-0.302 -1.057,-0.304 -1.604,-0.024 -1.453,0.74 -6.831,0.568 -8.071,-0.259 -2.074,-1.383 -2.725,-2.623 -2.374,-4.525 0.22099,-1.200009 0.20177,-1.68047 0.26853,-2.113291 0.004,-0.02446 0.0912,-0.213536 0.0688,-0.231124 -0.0645,-0.05053 -0.15562,-0.06842 -0.2458,-0.124729 -0.0788,-0.04921 -0.34072,-0.15122 -0.38977,-0.1522 -0.0989,-0.002 -0.15553,0.288719 -0.29534,0.395344 -0.507,0.476 -0.69338,0.059 -0.87538,-1.031 -0.4111,-1.080535 -0.38548,-0.976185 -0.69203,-1.746493 -0.5589,-0.960712 -0.53975,-1.109628 -0.92543,-1.700014 -0.78515,-1.483652 -0.79979,-1.735911 -1.59993,-2.241908 -0.31749,-0.200779 1.13484,-0.127846 2.93539,-0.09959 3.11762,0.08278 2.798,-0.022 2.416,2.843 -0.5227,1.980558 -0.79951,2.940992 -0.94123,3.483991 -0.0177,0.06777 0.2785,0.19538 0.35933,0.236861 0.12195,0.06254 0.25191,0.141294 0.25848,0.106968 0.024,-0.125569 0.20745,-0.255302 1.01842,-3.74482 l 0.443,-1.831 c 0.50429,-2.436133 0.67845,-2.893118 1.02052,-3.963724 0.201,-0.03 0.4222,-0.419311 0.71748,-0.556276 0.46979,-0.243207 0.60116,-0.05884 1.54376,-0.229931 l 1.16552,0.272345 0.19572,0.175586 m 21.894,-0.185 c 0.514,0.555 2.29359,0.571028 3.47059,-0.04197 0.65292,-0.27493 1.57479,-0.358944 3.03264,-0.113014 1.08835,0.219028 1.55177,0.408521 2.52593,0.686591 0.86829,0.355135 1.00501,0.470685 1.6788,0.967409 0.26756,0.297619 0.44204,0.536112 0.60804,0.849112 0.166,0.313 0.45101,0.993591 0.59001,1.234591 0.20645,0.761577 0.17495,1.507734 -0.06,2.520283 -0.148,0.385 -0.412,1.382 -0.589,2.214 -0.176,0.832 -0.439,1.699 -0.582,1.925 -0.144,0.227 -0.318,0.689 -0.387,1.025 -0.28,1.379 -2.422,4.023 -3.562,4.396 -0.35,0.115 -0.808,0.321 -1.018,0.457 -0.923,0.6 -6.576,0.69 -7.671,0.122 -1.192,-0.619 -1.838,-0.034 -1.838,1.662 0,1.173 -1.027,1.658 -3.211,1.516 -1.904,-0.124 -2.254,-0.659 -1.518,-2.322 0.199,-0.451 0.476,-1.472 0.615,-2.269 0.139,-0.796 0.373,-1.736 0.52,-2.088 0.148,-0.353 0.35,-1.163 0.449,-1.801 0.099,-0.638 0.332,-1.633 0.518,-2.211 0.186,-0.577 0.43,-1.602 0.543,-2.276 0.112,-0.673 0.349,-1.595 0.526,-2.048 0.36707,-1.339804 0.40046,-1.984567 1.12007,-3.472972 1.20585,-1.116943 2.63793,-1.242747 4.23893,-0.932028 m 42.1,0.133 0.475,0.595 1.276,-0.369 c 1.14567,-0.508388 2.32674,-0.817269 3.304,-0.82 l 1.53375,0.109375 0.39625,0.640625 c 0.821,1.22125 -0.253,3.101 -2.358,3.101 -1.481,0 -2.831,0.314 -3.42,0.795 -1.141,0.931 -1.915,1.827 -2.12,2.452 -0.125,0.381 -0.335,0.858 -0.468,1.062 -0.132,0.204 -0.358,1.045 -0.502,1.869 -0.144,0.825 -0.371,1.761 -0.504,2.081 -0.133,0.32 -0.365,1.294 -0.515,2.165 -0.576,3.341 -0.995,3.807 -3.348,3.72 -1.812,-0.067 -2.081,-0.43 -1.593,-2.146 0.166,-0.581 0.486,-1.884 0.713,-2.895 0.53385,-1.890405 0.85302,-2.961257 1.123,-4.321 0.19244,-1.192083 0.45518,-2.104934 0.86052,-3.545759 0.45854,-1.232079 0.54226,-1.512497 0.98276,-2.875 0.44565,-1.853931 2.91372,-3.185241 4.16372,-1.618241 m -12.63192,0.76879 c 0.80647,0.246684 1.42473,0.251077 2.53195,1.067003 0.26384,0.194423 0.54225,0.612035 0.79625,0.978035 1.403,2.025 -0.67328,5.722172 -3.80328,7.077172 l -1.255,0.543 h -4.052 c -4.451,0 -4.73,0.054 -4.73,0.913 0,1.783 0.659,2.157 3.764,2.137 2.912,-0.02 3.398,-0.178 5.262,-1.714 0.735,-0.607 1.231,-0.558 2.405,0.234 1.079,0.728 1.188,1.594 0.316,2.511 -1.661,1.748 -1.654,1.743 -3.532,2.34 -2.196,0.699 -8.279,0.732 -9.803,0.053 -1.418,-0.631 -2.049,-1.241 -2.543,-2.458 l -0.433,-1.064 0.369,-2.307 c 0.36923,-2.130071 0.38139,-3.008323 0.97009,-4.530194 0.295,-0.64333 0.66787,-1.530049 1.42659,-3.190903 0.51452,-1.290685 1.33147,-1.751539 2.38438,-2.470819 0.90721,-0.240888 2.5558,-0.178997 6.35746,-0.280083 m -61.05752,1.696999 c -0.247,0.247 -0.336,0.243 -0.937,-0.043 l -0.664,-0.317 0.681,-0.198 c 0.853,-0.249 1.397,0.081 0.92,0.558 m 36.461,1.315 c -2.07,0.829 -3.998,6.069 -2.986,8.115 0.495,1.002 3.9382,1.733507 5.477,1.037042 1.40902,-0.96894 1.80721,-1.30825 2.383,-2.123042 0.32511,-0.584268 0.61562,-1.163954 0.785,-1.733 0.061,-0.464 0.191,-1.21 0.289,-1.658 0.375,-1.71 -0.188,-3.011 -1.549,-3.587 -0.648,-0.274 -3.753,-0.31 -4.399,-0.051 m 21.592,-0.06 c -1.455,0.359 -3.251,2.151 -2.618,2.614 0.673,0.492 7.475,0.324 8.098,-0.201 0.994,-0.836 0.424,-2.138 -1.067,-2.436 -0.604,-0.121 -3.899,-0.104 -4.413,0.023 m -16.815,3.588 c 0.438,0.626 0.28052,1.241594 -0.0729,2.099353 -0.34659,0.588717 -0.49807,0.878689 -0.6981,1.167647 -1.09382,1.137084 -2.427,2.102 -3.28,1.818 -0.866,-0.289 -0.94145,-1.152725 -0.509,-2.387 0.1372,-0.398697 0.17665,-0.545063 0.42099,-1.123754 0.44682,-1.058244 1.41401,-1.442246 2.40001,-1.680246 1.408,-0.341 1.427,-0.339 1.739,0.106 m 28.114,5.991 c -0.298,0.359 -0.65,0.345 -0.862,-0.034 -0.124,-0.222 -0.094,-0.392 0.111,-0.619 0.398,-0.439 1.129,0.197 0.751,0.653 m 86.081,14.917 c 0.601,0.367 0.985,0.799 2.545,2.856 1.358,1.792 1.524,2.022 2.284,3.162 0.277,0.415 0.572,0.839 0.657,0.943 0.322,0.395 1.379,2.067 1.379,2.181 0,0.066 0.259,0.522 0.576,1.014 2.779,4.313 5.32,11.546 6.292,17.913 0.26,1.702 0.26,9.848 0.001,11.553 -0.524,3.434 -1.836,8.469001 -2.569,9.854001 l -0.389,0.737 -134.284,0.044 -134.284,0.044 -0.352,-0.448 c -0.62,-0.788 -1.581,-3.875001 -2.285,-7.342001 -1.578,-7.778 -0.886,-16.76 1.84,-23.855 0.232,-0.604 0.421,-1.193 0.421,-1.311 0,-0.117 0.189,-0.607 0.42,-1.09 0.231,-0.483 0.709,-1.508 1.063,-2.278 0.353,-0.771 0.732,-1.558 0.842,-1.751 0.109,-0.192 0.417,-0.744 0.683,-1.225 0.92,-1.666 1.382,-2.454 1.856,-3.168 0.261,-0.394 0.647,-0.984 0.857,-1.312 0.517,-0.808 1.09,-1.62 1.719,-2.439 0.289,-0.375 0.801,-1.049 1.138,-1.497 0.337,-0.448 0.78,-0.983 0.984,-1.188 0.204,-0.206 0.447,-0.519 0.541,-0.696 0.093,-0.177 0.473,-0.492 0.844,-0.7 l 0.675,-0.379 123.035,0.044 c 114.308,0.04 123.069,0.064 123.511,0.334 M 120.17,56.811 c -2.855,0.494 -7.549,1.966 -8.66,2.716 -0.241,0.163 -0.635,0.355 -0.875,0.427 -0.241,0.072 -0.69,0.319 -0.999,0.55 -0.308,0.231 -0.717,0.478 -0.907,0.549 -1.313,0.487 -5.7,4.372 -6.81,6.03 -1.172,1.752 -1.459,2.224 -2.033,3.348 -2.546,4.98 -2.729,15.529 -0.336,19.341 0.141,0.223 0.358,0.697 0.484,1.054 0.607,1.721 3.116,4.741 5.355,6.446 3.758,2.861 12.677,5.302 13.431,3.675 0.415,-0.895 1.105,-2.896 1.276,-3.697 0.101,-0.477 0.257,-0.955 0.345,-1.062 0.19,-0.228 0.691,-2.275 0.694,-2.836 0.004,-0.546 -0.563,-0.852 -2.185,-1.181 -4.39,-0.889 -8.322,-3.432 -10.102,-6.532 -0.738,-1.286 -0.826,-1.542 -1.226,-3.567 l -0.375,-1.9 0.397,-2.318 c 0.773,-4.516 2.58,-7.417 6.499,-10.437 3.303,-2.545 8.394,-3.56 14.538,-2.898 l 0.979,0.105 0.556,-1.394 c 0.306,-0.767 0.671,-1.778 0.811,-2.247 0.14,-0.468 0.414,-1.164 0.609,-1.545 0.495,-0.967 0.477,-1.976 -0.039,-2.194 -2.115,-0.896 -7.556,-1.102 -11.427,-0.433 m 113.667,0.003 c -0.447,0.242 -0.836,1.102 -0.838,1.855 -0.001,0.158 -0.162,0.809 -0.359,1.447 -0.197,0.637 -0.509,1.808 -0.693,2.6 -0.546,2.355 -1.042,4.324 -1.487,5.905 -0.231,0.819 -0.472,1.843 -0.537,2.276 -0.065,0.433 -0.227,1.064 -0.359,1.401 -0.133,0.337 -0.389,1.282 -0.569,2.1 -0.554,2.514 -1.073,4.59 -1.423,5.69 -0.184,0.577 -0.447,1.601 -0.585,2.275 -0.139,0.674 -0.413,1.816 -0.61,2.539 -1.105,4.048 -1.295,4.871 -1.425,6.161 -0.162,1.602 0.035,3.615 0.422,4.311 0.142,0.258 0.375,0.705 0.516,0.994 0.496,1.014 2.895,3.097 4.132,3.588 0.337,0.134 0.959,0.425 1.383,0.647 1.368,0.717 2.124,0.578 2.812,-0.515 0.589,-0.936 1.284,-1.988 1.757,-2.66 0.144,-0.205 0.42,-0.635 0.612,-0.955 0.193,-0.321 0.602,-0.891 0.909,-1.267 0.741,-0.909 0.566,-1.568 -0.529,-1.99 -1.253,-0.484 -2.563,-2.018 -2.57,-3.012 -0.003,-0.341 0.49,-2.421 1.132,-4.777 0.382,-1.403 0.581,-2.201 1.25,-5.033 0.423,-1.789 1.145,-4.064 1.324,-4.175 0.087,-0.054 1.121,-0.293 2.298,-0.53 2.703,-0.547 3.303,-0.828 3.493,-1.641 0.156,-0.664 0.82,-2.885 1.284,-4.289 0.808,-2.447 0.716,-2.538 -2.561,-2.538 -2.371,0 -2.772,-0.252 -2.19,-1.378 0.138,-0.267 0.384,-1.149 0.546,-1.961 0.162,-0.811 0.401,-1.735 0.532,-2.054 0.13,-0.318 0.356,-1.209 0.503,-1.981 0.146,-0.772 0.385,-1.573 0.53,-1.78 0.351,-0.502 0.333,-0.755 -0.086,-1.174 -0.463,-0.463 -7.783,-0.53 -8.614,-0.079 m 17.123,-0.009 c -0.182,0.137 -0.406,0.275 -0.497,0.305 -0.09,0.031 -0.305,0.723 -0.477,1.538 -0.381,1.808 -0.996,4.271 -1.418,5.685 -0.173,0.577 -0.432,1.641 -0.577,2.363 -0.145,0.722 -0.354,1.549 -0.464,1.838 -0.11,0.289 -0.35,1.195 -0.532,2.013 -0.377,1.689 -0.85,3.571 -1.476,5.864 -0.236,0.867 -0.546,2.088 -0.689,2.714 -0.259,1.14 -0.618,2.574 -1.095,4.376 -0.14,0.53 -0.438,1.711 -0.662,2.626 -0.225,0.915 -0.583,2.323 -0.796,3.13 -1.343,5.078 0.49,8.719 5.572,11.067 1.959,0.905 2.647,0.913 3.206,0.039 0.226,-0.353 0.628,-0.964 0.893,-1.356 0.265,-0.393 0.62,-0.938 0.788,-1.212 0.168,-0.274 0.522,-0.777 0.787,-1.118 0.265,-0.341 0.481,-0.685 0.481,-0.765 0,-0.08 0.246,-0.424 0.546,-0.766 0.717,-0.817 0.506,-1.49 -0.605,-1.93 -2.568,-1.017 -2.91,-2.563 -1.567,-7.089 0.157,-0.53 0.464,-1.711 0.682,-2.626 0.218,-0.915 0.528,-2.214 0.689,-2.888 0.987,-4.128 1.219,-4.532 2.706,-4.729 2.792,-0.37 4.284,-0.997 4.464,-1.874 0.065,-0.316 0.348,-1.253 0.628,-2.083 0.281,-0.83 0.51,-1.658 0.51,-1.841 0,-0.183 0.162,-0.634 0.36,-1.004 0.821,-1.532 0.325,-1.861 -2.806,-1.861 -2.274,0 -2.709,-0.243 -2.214,-1.237 0.153,-0.306 0.4,-1.158 0.549,-1.892 0.149,-0.734 0.422,-1.808 0.606,-2.385 0.185,-0.578 0.416,-1.502 0.513,-2.053 0.098,-0.551 0.3,-1.24 0.451,-1.53 0.338,-0.654 0.19,-1.338 -0.319,-1.475 -0.875,-0.235 -7.896,-0.102 -8.237,0.156 m -44.883,9.993 c -1.279,0.231 -2.657,0.568 -3.063,0.749 -0.406,0.182 -1.053,0.429 -1.439,0.549 -0.385,0.121 -0.818,0.318 -0.962,0.438 -0.145,0.121 -0.617,0.387 -1.051,0.592 -0.715,0.338 -1.222,0.663 -2.424,1.554 -1.612,1.195 -4.72,4.869 -5.191,6.135 -0.096,0.259 -0.303,0.708 -0.458,0.997 -1.676,3.112 -1.741,9.465 -0.131,12.779 0.548,1.127 0.876,1.773 0.988,1.943 0.07,0.106 0.355,0.539 0.635,0.963 0.702,1.063 3.705,4.012 4.659,4.576 4.333,2.561 8.055,3.532 12.307,3.211 2.248,-0.17 2.467,-0.362 3.108,-2.728 0.625,-2.306 1.094,-3.789 1.513,-4.784 0.758,-1.796 0.387,-2.211 -1.222,-1.365 -2.355,1.239 -6.53,1.197 -9.101,-0.091 -1.544,-0.773 -1.426,-1.248 0.543,-2.187 0.448,-0.213 1.483,-0.756 2.302,-1.207 1.333,-0.734 3.144,-1.705 5.426,-2.909 0.434,-0.228 1.261,-0.68 1.838,-1.004 0.578,-0.324 1.799,-0.97 2.714,-1.437 0.914,-0.466 1.781,-0.941 1.925,-1.056 0.145,-0.114 1.077,-0.629 2.071,-1.143 4.464,-2.309 5.3,-2.799 5.697,-3.341 l 0.351,-0.48 -0.756,-1.446 c -0.779,-1.487 -1.137,-2.023 -1.994,-2.984 -0.272,-0.306 -0.548,-0.639 -0.612,-0.742 -0.117,-0.184 -2.192,-1.933 -3.13,-2.638 -0.668,-0.501 -3.205,-1.821 -3.501,-1.821 -0.132,0 -0.548,-0.157 -0.925,-0.349 -2.051,-1.046 -6.654,-1.398 -10.117,-0.774 m 69.267,-0.021 c -3.094,0.559 -6.237,1.832 -8.187,3.317 -0.516,0.394 -1.135,0.846 -1.375,1.004 -0.519,0.345 -2.385,2.309 -3.084,3.246 -0.438,0.589 -0.724,1.016 -1.325,1.98 -2.36,3.783 -2.733,10.644 -0.78,14.353 0.227,0.432 0.414,0.875 0.414,0.982 0,0.108 0.236,0.494 0.525,0.857 0.289,0.364 0.525,0.768 0.525,0.899 0,0.358 3.836,4.164 4.639,4.603 0.385,0.211 1.246,0.695 1.913,1.075 0.667,0.381 1.572,0.808 2.013,0.948 0.44,0.14 1.25,0.415 1.8,0.61 1.316,0.467 4.874,0.79 6.875,0.623 1.935,-0.161 2.387,-0.513 2.717,-2.117 0.117,-0.571 0.298,-1.196 0.401,-1.389 0.104,-0.193 0.364,-0.98 0.579,-1.75 0.214,-0.771 0.564,-1.901 0.776,-2.512 0.572,-1.648 0.257,-1.925 -1.282,-1.125 -2.385,1.238 -6.291,1.255 -8.813,0.039 -1.767,-0.853 -1.696,-1.297 0.373,-2.313 0.808,-0.397 3.617,-1.905 4.639,-2.491 0.241,-0.138 0.832,-0.451 1.313,-0.694 0.481,-0.244 1.309,-0.688 1.838,-0.987 1.055,-0.595 3.957,-2.162 5.339,-2.882 0.482,-0.251 1.348,-0.722 1.926,-1.047 0.578,-0.325 1.444,-0.793 1.925,-1.04 0.482,-0.247 1.348,-0.715 1.926,-1.04 0.578,-0.324 1.428,-0.767 1.89,-0.983 1.804,-0.846 1.736,-1.348 -0.692,-5.057 -0.718,-1.097 -2.231,-2.525 -4.388,-4.141 -3.525,-2.642 -9.46,-3.863 -14.42,-2.968 m -137.576,0.026 c -3.05,0.377 -4.775,0.842 -7.265,1.962 -1.313,0.59 -1.715,0.817 -3.225,1.821 -0.77,0.512 -3.132,2.874 -3.65,3.652 -1.112,1.667 -1.338,2.067 -1.622,2.874 -0.17,0.481 -0.439,1.178 -0.598,1.549 -1.125,2.621 -1.129,10.2 -0.006,12.371 0.144,0.277 0.261,0.671 0.261,0.875 0,0.491 0.315,1.057 0.802,1.44 0.218,0.171 0.447,0.54 0.508,0.819 0.136,0.618 2.69,3.356 3.68,3.944 3.134,1.862 5.026,2.601 7.701,3.006 4.364,0.66 7.971,-0.269 8.484,-2.187 0.094,-0.35 0.367,-1.345 0.607,-2.211 0.24,-0.867 0.547,-2.048 0.683,-2.626 0.135,-0.578 0.304,-1.186 0.374,-1.353 0.27,-0.641 -0.616,-0.758 -2.312,-0.305 -7.962,2.123 -14.006,-3.161 -12.392,-10.835 1.162,-5.524 7.644,-8.846 13.484,-6.912 4.441,1.472 6.765,6.15 5.348,10.765 -0.188,0.612 -0.499,1.782 -0.692,2.601 -0.192,0.818 -0.596,2.472 -0.897,3.676 -0.301,1.203 -0.725,2.976 -0.943,3.938 -0.217,0.963 -0.534,2.168 -0.703,2.678 -0.17,0.511 -0.26,1.121 -0.201,1.357 l 0.108,0.429 h 3.829 c 4.596,0 4.444,0.062 4.83,-1.974 0.142,-0.749 0.367,-1.576 0.5,-1.838 0.134,-0.262 0.337,-1.023 0.451,-1.692 0.115,-0.668 0.352,-1.535 0.528,-1.926 0.175,-0.39 0.372,-0.985 0.437,-1.322 0.065,-0.337 0.341,-1.401 0.614,-2.364 1.74,-6.141 1.667,-9.535 -0.288,-13.422 -1.693,-3.367 -5.361,-6.592 -8.719,-7.668 -0.386,-0.124 -0.79,-0.295 -0.9,-0.382 -0.649,-0.513 -6.605,-1.013 -8.816,-0.74 m 36.86,0.36 c -3.862,0.658 -8.337,4.993 -9.637,9.336 -0.072,0.241 -0.28,0.769 -0.461,1.173 -0.182,0.405 -0.443,1.274 -0.581,1.93 -0.138,0.657 -0.336,1.417 -0.44,1.69 -0.103,0.272 -0.31,1.255 -0.459,2.184 -0.37,2.304 -1.603,5.632 -2.475,6.683 -0.117,0.141 -0.457,0.549 -0.756,0.907 -0.299,0.357 -1.032,0.998 -1.628,1.423 -1.247,0.89 -1.646,1.795 -2.14,4.85 -0.143,0.882 -0.337,1.748 -0.431,1.924 -1.75,3.269 7.092,1.542 10.789,-2.108 1.244,-1.228 1.468,-1.486 1.468,-1.688 0,-0.104 0.188,-0.464 0.417,-0.802 0.229,-0.337 0.515,-0.913 0.636,-1.279 0.121,-0.366 0.36,-0.909 0.532,-1.205 0.172,-0.297 0.401,-0.894 0.509,-1.328 0.107,-0.433 0.308,-1.063 0.446,-1.4 0.264,-0.647 0.97,-3.343 1.489,-5.689 1.083,-4.893 3.139,-8.503 5.086,-8.931 0.737,-0.162 1.682,-2.302 2.007,-4.549 0.07,-0.481 0.237,-1.091 0.372,-1.356 0.283,-0.558 -0.021,-1.388 -0.59,-1.614 -0.394,-0.156 -3.466,-0.268 -4.153,-0.151 m 13.906,0.037 c -2.965,0.663 -6.294,2.999 -7.583,5.321 -0.21,0.379 -0.632,1.133 -0.937,1.677 -1.03,1.833 -1.542,3.121 -2.085,5.244 -0.229,0.897 -0.456,1.694 -0.503,1.771 -0.048,0.078 -0.212,0.919 -0.364,1.871 -0.729,4.549 -2.39,7.61 -5.247,9.666 -1.012,0.728 -1.363,1.509 -1.757,3.906 -0.164,0.997 -0.407,2.078 -0.539,2.403 -0.84,2.058 1.164,2.534 5.22,1.24 3.127,-0.997 7.143,-3.811 7.143,-5.004 0,-0.088 0.186,-0.433 0.413,-0.769 0.69,-1.017 1.272,-2.522 2.368,-6.123 0.198,-0.651 0.676,-2.528 1.338,-5.252 1.143,-4.706 2.954,-7.774 4.939,-8.369 l 0.734,-0.22 0.606,-1.964 c 1.202,-3.894 1.276,-4.763 0.447,-5.206 -0.461,-0.247 -3.355,-0.379 -4.193,-0.192 m 23.161,7.56 c 0.981,0.199 1.981,0.501 2.222,0.672 0.241,0.171 0.727,0.407 1.08,0.523 1.133,0.373 1.411,1.432 0.495,1.889 -1.16,0.579 -1.552,0.778 -2.363,1.199 -0.481,0.25 -1.348,0.715 -1.925,1.034 -0.578,0.318 -1.445,0.785 -1.926,1.037 -1.316,0.688 -4.435,2.379 -5.427,2.942 -0.481,0.273 -1.269,0.703 -1.75,0.954 -0.482,0.251 -1.151,0.605 -1.488,0.787 -1.265,0.68 -1.752,0.325 -1.75,-1.278 0.007,-6.511 6.078,-11.128 12.832,-9.759 m 69.074,-0.018 c 3.736,0.771 5.588,2.462 3.566,3.257 -0.362,0.142 -0.777,0.336 -0.921,0.429 -0.145,0.094 -0.618,0.359 -1.051,0.589 -0.433,0.23 -1.3,0.697 -1.925,1.037 -0.626,0.341 -1.532,0.822 -2.013,1.07 -0.482,0.248 -1.27,0.674 -1.751,0.947 -0.796,0.452 -3.552,1.93 -5.501,2.951 -0.426,0.223 -0.9,0.52 -1.055,0.659 -0.543,0.492 -1.696,0.541 -1.941,0.083 -0.285,-0.533 -0.118,-3.428 0.244,-4.218 0.146,-0.321 0.387,-0.883 0.535,-1.25 1.611,-3.994 7.028,-6.541 11.813,-5.554 m 51.616,31.451 c 0.675,0.181 0.491,0.944 -0.768,3.172 -0.64,1.132 -1.283,2.294 -1.431,2.582 -0.148,0.289 -0.432,0.762 -0.632,1.051 -0.437,0.63 -0.711,1.056 -1.113,1.732 -0.165,0.279 -0.501,0.752 -0.746,1.051 -0.245,0.298 -0.6,0.771 -0.788,1.049 -1.732,2.559 -4.09,5.308 -7.439,8.671 -2.83,2.841 -6.203,5.781 -9.411,8.2 -0.221,0.167 -0.655,0.503 -0.963,0.747 -0.554,0.438 -1.964,1.405 -4.387,3.009 -0.687,0.455 -1.486,0.99 -1.775,1.189 -0.289,0.198 -0.919,0.606 -1.4,0.906 -0.482,0.299 -1.151,0.718 -1.488,0.93 -1.007,0.635 -3.188,1.884 -4.464,2.558 -0.385,0.203 -1.149,0.616 -1.697,0.918 -1.08,0.596 -5.83,2.967 -7.669,3.828 -2.265,1.062 -2.328,1.089 -6.302,2.763 -1.808,0.762 -3.121,1.27 -4.051,1.566 -0.544,0.173 -1.095,0.383 -1.226,0.467 -0.241,0.156 -2.186,0.856 -4.088,1.472 -1.974,0.639 -3.851,1.264 -4.726,1.574 -1.053,0.372 -3.025,0.948 -4.814,1.405 -0.723,0.184 -1.512,0.418 -1.756,0.518 -0.445,0.184 -2.617,0.728 -5.859,1.468 -0.963,0.219 -2.027,0.486 -2.364,0.592 -0.337,0.107 -1.321,0.319 -2.188,0.473 -0.866,0.153 -1.805,0.355 -2.085,0.448 -0.28,0.093 -1.501,0.331 -2.713,0.529 -1.212,0.197 -2.44,0.432 -2.729,0.521 -0.289,0.089 -1.667,0.325 -3.064,0.524 -1.396,0.199 -2.814,0.433 -3.151,0.521 -0.337,0.088 -2.063,0.324 -3.836,0.524 -1.773,0.201 -3.286,0.404 -3.363,0.451 -0.076,0.047 -2.407,0.281 -5.179,0.519 -2.772,0.238 -5.788,0.506 -6.702,0.597 -5.816,0.576 -27.176,0.579 -33.013,0.006 -0.859,-0.085 -3.53,-0.318 -5.937,-0.519 -2.407,-0.201 -5.086,-0.48 -5.952,-0.621 -0.867,-0.14 -2.678,-0.375 -4.026,-0.521 -1.348,-0.147 -3.002,-0.382 -3.676,-0.524 -0.674,-0.143 -2.17,-0.385 -3.325,-0.539 -1.154,-0.154 -2.162,-0.32 -2.24,-0.368 -0.077,-0.048 -1.181,-0.273 -2.452,-0.501 -3.869,-0.692 -8.992,-1.822 -11.852,-2.613 -0.819,-0.226 -2.04,-0.548 -2.713,-0.715 -1.795,-0.443 -4.076,-1.07 -5.077,-1.395 -3.17,-1.029 -4.659,-1.485 -4.854,-1.486 -0.122,0 -0.457,-0.123 -0.744,-0.273 -0.287,-0.149 -1.036,-0.422 -1.663,-0.606 -0.628,-0.183 -1.811,-0.582 -2.63,-0.885 -0.818,-0.303 -2.078,-0.764 -2.801,-1.026 -0.722,-0.261 -1.565,-0.606 -1.873,-0.767 -0.308,-0.161 -0.662,-0.294 -0.787,-0.294 -0.126,-0.001 -0.622,-0.196 -1.103,-0.433 -0.482,-0.236 -0.951,-0.433 -1.043,-0.436 -0.187,-0.006 -1.751,-0.701 -6.31,-2.804 -1.501,-0.693 -5.227,-2.561 -6.652,-3.335 -0.577,-0.314 -1.404,-0.764 -1.838,-0.999 -0.433,-0.236 -1.181,-0.654 -1.663,-0.93 -0.481,-0.276 -1.229,-0.705 -1.663,-0.952 -1.797,-1.028 -6.062,-3.78 -7.938,-5.121 -0.304,-0.217 -0.85,-0.594 -1.214,-0.838 -0.365,-0.243 -0.812,-0.578 -0.995,-0.743 -0.183,-0.165 -0.633,-0.522 -1.001,-0.792 -1.327,-0.976 -2.652,-1.992 -2.916,-2.236 -0.147,-0.137 -0.552,-0.485 -0.899,-0.774 -1.264,-1.052 -3.913,-3.487 -6.11,-5.616 -0.164,-0.159 -1.856,-1.999 -3.609,-3.925 -0.241,-0.265 -0.674,-0.78 -0.963,-1.146 -0.289,-0.365 -0.726,-0.907 -0.971,-1.203 -0.245,-0.296 -0.582,-0.735 -0.749,-0.976 -0.167,-0.241 -0.538,-0.753 -0.824,-1.138 -1.355,-1.821 -3.233,-4.8 -4.137,-6.565 -0.222,-0.433 -0.681,-1.286 -1.019,-1.896 -0.688,-1.241 -0.758,-1.679 -0.309,-1.941 0.332,-0.193 265.187,-0.272 265.908,-0.079 m -200.04,2.508 c -0.333,0.623 -0.247,43.253 0.088,43.588 0.23,0.23 1.069,0.279 5.577,0.324 5.906,0.059 6.241,-0.002 6.773,-1.24 0.115,-0.268 0.415,-0.755 0.667,-1.082 0.252,-0.328 0.694,-1.003 0.983,-1.5 0.289,-0.497 0.692,-1.113 0.895,-1.368 0.203,-0.256 0.509,-0.74 0.681,-1.077 0.171,-0.337 0.368,-0.652 0.438,-0.7 0.07,-0.049 0.29,-0.408 0.488,-0.8 0.199,-0.392 0.485,-0.815 0.636,-0.94 0.152,-0.126 0.276,-0.331 0.276,-0.457 0,-0.125 0.186,-0.45 0.413,-0.722 0.227,-0.272 0.553,-0.771 0.724,-1.108 0.172,-0.337 0.369,-0.652 0.439,-0.7 0.07,-0.048 0.294,-0.417 0.498,-0.82 0.205,-0.402 0.46,-0.786 0.567,-0.852 0.107,-0.067 0.309,-0.368 0.448,-0.669 0.139,-0.301 0.426,-0.795 0.638,-1.097 0.213,-0.302 0.544,-0.81 0.737,-1.129 0.576,-0.954 0.693,-1.14 1.16,-1.847 1.157,-1.751 1.098,-1.657 2.332,-3.68 0.285,-0.466 0.569,-0.886 0.632,-0.934 0.064,-0.049 0.254,-0.364 0.424,-0.701 0.169,-0.337 0.434,-0.756 0.587,-0.931 0.298,-0.339 0.824,-1.177 1.436,-2.288 0.207,-0.375 0.526,-0.842 0.71,-1.04 0.183,-0.197 0.334,-0.429 0.334,-0.515 0,-0.087 0.25,-0.525 0.555,-0.974 1.07,-1.572 1.173,-1.736 1.447,-2.324 0.287,-0.617 0.937,-1.606 1.386,-2.111 0.144,-0.162 0.357,-0.477 0.474,-0.701 1.178,-2.249 2.067,-2.585 6.856,-2.59 l 3.979,-0.005 0.33,-0.656 c 0.421,-0.838 0.704,-1.718 1.084,-3.366 0.167,-0.724 0.403,-1.559 0.525,-1.855 0.124,-0.3 0.17,-0.745 0.105,-1.007 l -0.118,-0.468 h -5.292 c -8.312,0 -11.611,1.227 -14.285,5.313 -0.157,0.239 -0.645,0.973 -1.086,1.631 -0.818,1.221 -1.551,2.369 -2.175,3.406 -0.461,0.766 -0.972,1.575 -1.385,2.191 -0.183,0.275 -0.505,0.776 -0.714,1.113 -0.789,1.274 -1.838,2.896 -1.992,3.08 -0.088,0.105 -0.298,0.46 -0.467,0.788 -0.169,0.328 -0.459,0.793 -0.645,1.034 -0.187,0.24 -0.604,0.871 -0.928,1.4 -0.324,0.53 -0.756,1.199 -0.959,1.488 -0.203,0.289 -0.636,0.958 -0.962,1.488 -0.327,0.53 -0.759,1.199 -0.96,1.488 -0.201,0.289 -0.691,1.037 -1.09,1.663 -0.399,0.626 -1.14,1.771 -1.648,2.545 -0.508,0.774 -0.973,1.535 -1.033,1.692 -0.06,0.157 -0.411,0.484 -0.778,0.728 -1.329,0.879 -1.256,1.787 -1.237,-15.163 0.011,-9.643 -0.046,-15.124 -0.159,-15.422 l -0.176,-0.463 h -4.025 c -3.815,0 -4.034,0.018 -4.208,0.342 m 65.736,0.061 c -0.394,0.601 -0.892,2.154 -1.13,3.52 -0.115,0.666 -0.323,1.373 -0.462,1.571 -0.297,0.424 -0.326,1.044 -0.071,1.52 0.171,0.319 0.406,0.338 4.21,0.338 4.346,0 4.95,-0.108 5.154,-0.922 0.054,-0.215 0.203,-0.863 0.331,-1.441 0.129,-0.578 0.415,-1.72 0.636,-2.538 0.253,-0.94 0.357,-1.666 0.28,-1.97 l -0.121,-0.481 h -4.281 c -4.277,0 -4.282,0 -4.546,0.403 m 18.987,10.046 c -1.107,0.24 -2.328,0.574 -2.714,0.743 -0.385,0.168 -0.975,0.411 -1.312,0.538 -3.129,1.186 -8.928,6.252 -8.928,7.799 0,0.112 -0.209,0.51 -0.464,0.884 -0.256,0.375 -0.576,1.105 -0.712,1.622 -0.136,0.518 -0.419,1.174 -0.63,1.459 -1.157,1.565 -0.413,9.643 1.11,12.042 0.092,0.144 0.335,0.578 0.541,0.963 0.802,1.502 3.272,4.103 5.057,5.324 1.043,0.713 3.279,1.941 3.536,1.941 0.087,0 0.524,0.166 0.97,0.369 5.382,2.452 14.067,1.098 19.548,-3.047 1.72,-1.3 4.829,-4.937 4.829,-5.648 0,-0.112 0.2,-0.498 0.445,-0.858 0.244,-0.36 0.563,-1.167 0.708,-1.793 0.145,-0.627 0.398,-1.344 0.562,-1.595 0.256,-0.39 0.298,-0.953 0.298,-3.963 v -3.509 l -0.577,-1.663 c -0.318,-0.915 -0.709,-1.86 -0.868,-2.101 -0.16,-0.241 -0.451,-0.727 -0.648,-1.08 -1.473,-2.649 -4.247,-5.186 -7.272,-6.652 -2.302,-1.116 -3.018,-1.368 -5.138,-1.812 -2.806,-0.587 -5.515,-0.575 -8.341,0.037 m -50.188,0.572 c -0.409,0.249 -0.611,0.544 -0.749,1.093 -0.104,0.414 -0.341,1.225 -0.527,1.803 -0.186,0.577 -0.495,1.72 -0.686,2.538 -0.795,3.388 -1.23,5.127 -1.48,5.91 -0.145,0.456 -0.357,1.302 -0.469,1.88 -0.113,0.578 -0.348,1.523 -0.522,2.101 -0.174,0.577 -0.489,1.759 -0.699,2.625 -0.211,0.867 -0.569,2.324 -0.795,3.239 -0.227,0.915 -0.607,2.471 -0.844,3.459 -0.238,0.989 -0.551,2.17 -0.696,2.626 -0.145,0.456 -0.349,1.263 -0.453,1.792 -0.104,0.53 -0.361,1.456 -0.571,2.059 -0.291,0.839 -0.341,1.209 -0.212,1.576 l 0.168,0.479 4.111,0.047 4.111,0.047 0.547,-0.5 c 0.456,-0.416 0.583,-0.713 0.765,-1.79 0.119,-0.709 0.36,-1.704 0.534,-2.21 0.174,-0.506 0.371,-1.297 0.438,-1.758 0.068,-0.461 0.27,-1.237 0.45,-1.725 0.181,-0.488 0.479,-1.552 0.662,-2.363 0.515,-2.273 1.073,-4.487 1.519,-6.028 0.223,-0.77 0.482,-1.834 0.576,-2.363 0.093,-0.53 0.261,-1.199 0.372,-1.488 0.111,-0.289 0.387,-1.313 0.612,-2.276 0.577,-2.467 1.703,-6.93 2.185,-8.665 0.39,-1.404 0.334,-2.15 -0.172,-2.293 -1.124,-0.316 -7.593,-0.17 -8.175,0.185 m 21.304,-0.157 c -2.572,0.63 -5.844,3.097 -7.24,5.458 -0.709,1.199 -2.038,3.893 -2.038,4.132 0,0.121 -0.131,0.472 -0.292,0.78 -0.376,0.723 -1.005,3.136 -1.538,5.899 -0.906,4.7 -2.424,7.533 -4.924,9.193 -1.227,0.814 -1.588,1.535 -2.014,4.025 -0.186,1.087 -0.455,2.309 -0.599,2.716 -0.564,1.598 -0.262,1.826 2.262,1.707 3.129,-0.148 6.406,-1.544 8.515,-3.629 1.082,-1.069 2.615,-3.171 2.617,-3.587 0,-0.101 0.236,-0.657 0.524,-1.234 0.288,-0.578 0.524,-1.186 0.525,-1.35 0,-0.165 0.168,-0.748 0.373,-1.296 0.424,-1.133 1.036,-3.416 1.563,-5.83 0.198,-0.907 0.427,-1.775 0.51,-1.93 0.083,-0.154 0.281,-0.791 0.441,-1.415 0.16,-0.623 0.408,-1.316 0.552,-1.54 0.144,-0.223 0.373,-0.721 0.509,-1.105 0.443,-1.256 1.838,-2.775 3.114,-3.39 0.602,-0.29 0.779,-0.499 1.041,-1.225 0.173,-0.482 0.421,-1.112 0.552,-1.401 0.131,-0.289 0.292,-1.037 0.36,-1.663 0.067,-0.626 0.237,-1.319 0.378,-1.541 0.452,-0.712 0.244,-1.49 -0.465,-1.731 -0.701,-0.239 -3.811,-0.268 -4.726,-0.043 m 7.561,-0.066 c -0.455,0.093 -0.63,0.46 -0.814,1.714 -0.071,0.479 -0.273,1.155 -0.45,1.501 -0.176,0.346 -0.375,1.136 -0.441,1.755 -0.066,0.618 -0.273,1.479 -0.46,1.912 -0.37,0.855 -0.451,1.161 -2.325,8.753 -0.25,1.011 -0.602,2.35 -0.782,2.976 -0.181,0.626 -0.502,1.847 -0.714,2.713 -0.212,0.867 -0.571,2.324 -0.798,3.239 -0.226,0.915 -0.603,2.451 -0.838,3.413 -0.235,0.963 -0.606,2.353 -0.825,3.088 -0.347,1.165 -0.369,1.408 -0.173,1.882 l 0.226,0.545 h 4.062 c 5.013,0 4.781,0.139 5.61,-3.371 0.4,-1.695 0.772,-3.218 1.677,-6.87 0.215,-0.867 0.534,-2.088 0.708,-2.713 0.175,-0.626 0.431,-1.854 0.568,-2.728 0.137,-0.875 0.42,-1.924 0.628,-2.332 0.208,-0.408 0.442,-1.311 0.52,-2.006 0.078,-0.695 0.27,-1.512 0.427,-1.815 0.157,-0.304 0.357,-1.058 0.445,-1.677 0.088,-0.619 0.278,-1.355 0.423,-1.636 0.146,-0.281 0.387,-1.099 0.536,-1.817 0.149,-0.719 0.392,-1.661 0.54,-2.094 0.598,-1.759 0.949,-3.919 0.681,-4.202 -0.246,-0.259 -7.331,-0.452 -8.431,-0.23 m 50.586,0.001 c -0.354,0.141 -0.904,1.546 -1.254,3.205 -0.173,0.819 -0.475,2.079 -0.673,2.801 -0.197,0.722 -0.588,2.219 -0.868,3.326 -0.28,1.107 -0.64,2.525 -0.8,3.151 -0.159,0.626 -0.446,1.965 -0.638,2.976 -0.191,1.011 -0.499,2.193 -0.684,2.627 -0.185,0.434 -0.392,1.3 -0.46,1.925 -0.067,0.626 -0.267,1.46 -0.443,1.853 -0.175,0.394 -0.396,1.195 -0.491,1.78 -0.094,0.585 -0.286,1.287 -0.427,1.56 -0.141,0.273 -0.417,1.205 -0.613,2.071 -0.196,0.867 -0.573,2.414 -0.838,3.439 -0.463,1.784 -0.47,1.882 -0.184,2.319 l 0.3,0.457 h 3.65 c 4.407,0 4.696,-0.045 5.008,-0.769 0.281,-0.653 0.789,-2.421 1.313,-4.57 0.212,-0.867 0.57,-2.324 0.796,-3.239 0.227,-0.915 0.604,-2.451 0.839,-3.414 0.234,-0.962 0.588,-2.341 0.785,-3.063 0.481,-1.759 1.197,-4.554 1.525,-5.952 1.212,-5.165 0.765,-4.757 5.133,-4.689 l 3.216,0.05 0.679,0.788 c 0.813,0.944 0.835,1.242 0.253,3.405 -0.748,2.78 -1.327,5.052 -1.586,6.223 -0.67,3.022 -1.036,4.56 -1.334,5.602 -0.179,0.626 -0.447,1.785 -0.596,2.575 -0.148,0.791 -0.375,1.738 -0.504,2.103 -0.129,0.366 -0.289,1.019 -0.355,1.451 -0.067,0.432 -0.249,1.21 -0.405,1.73 l -0.284,0.944 0.48,0.412 c 1.101,0.948 8.698,0.517 8.954,-0.507 0.054,-0.216 0.207,-0.866 0.339,-1.444 0.133,-0.577 0.361,-1.483 0.508,-2.013 0.147,-0.529 0.395,-1.475 0.55,-2.1 0.547,-2.204 1.129,-4.477 1.457,-5.69 0.182,-0.674 0.422,-1.579 0.534,-2.013 0.65,-2.519 1.636,-6.026 2.583,-9.19 1.616,-5.399 -0.798,-9.482 -5.96,-10.081 -1.346,-0.157 -19.122,-0.192 -19.505,-0.039 m -22.945,7.585 c 10.276,2.094 10.459,15.763 0.246,18.416 -2.408,0.625 -6.283,0.342 -7.614,-0.557 -0.241,-0.163 -0.686,-0.394 -0.989,-0.515 -0.641,-0.256 -2.684,-2.231 -3.042,-2.942 -0.135,-0.269 -0.393,-0.707 -0.573,-0.973 -1.23,-1.824 -1.096,-5.885 0.274,-8.333 0.614,-1.096 3.027,-3.597 3.66,-3.794 0.224,-0.069 0.622,-0.277 0.885,-0.462 1.344,-0.947 4.697,-1.341 7.153,-0.84" style="fill:#000000;fill-rule:evenodd;stroke:none"/>
  </g>
</svg>
