<?xml version="1.0" encoding="UTF-8" standalone="no"?>
<!-- Created by ERK -->

<svg
   width="542.99908mm"
   height="160.65317mm"
   viewBox="0 0 542.99909 160.65317"
   version="1.1"
   id="svg1"
   inkscape:version="1.3.2 (091e20e, 2023-11-25, custom)"
   xml:space="preserve"
   sodipodi:docname="sys80.svg"
   xmlns:inkscape="http://www.inkscape.org/namespaces/inkscape"
   xmlns:sodipodi="http://sodipodi.sourceforge.net/DTD/sodipodi-0.dtd"
   xmlns="http://www.w3.org/2000/svg"
   xmlns:svg="http://www.w3.org/2000/svg"><sodipodi:namedview
     id="namedview1"
     pagecolor="#ffffff"
     bordercolor="#000000"
     borderopacity="0.25"
     inkscape:showpageshadow="2"
     inkscape:pageopacity="0.0"
     inkscape:pagecheckerboard="true"
     inkscape:deskcolor="#d1d1d1"
     inkscape:document-units="mm"
     inkscape:zoom="0.50000001"
     inkscape:cx="1200"
     inkscape:cy="510.99999"
     inkscape:window-width="2560"
     inkscape:window-height="1351"
     inkscape:window-x="-9"
     inkscape:window-y="-9"
     inkscape:window-maximized="1"
     inkscape:current-layer="svg1"
     showgrid="false" /><defs
     id="defs1"><marker
       id="DistanceX"
       orient="auto"
       refX="0"
       refY="0"
       style="overflow:visible"><path
         d="M 3,-3 -3,3 M 0,-5 V 5"
         style="stroke:#000000;stroke-width:0.5"
         id="path1" /></marker><pattern
       id="Hatch"
       patternUnits="userSpaceOnUse"
       width="8"
       height="8"
       x="0"
       y="0"><path
         d="M8 4 l-4,4"
         stroke="#000000"
         stroke-width="0.25"
         linecap="square"
         id="path2" /><path
         d="M6 2 l-4,4"
         stroke="#000000"
         stroke-width="0.25"
         linecap="square"
         id="path3" /><path
         d="M4 0 l-4,4"
         stroke="#000000"
         stroke-width="0.25"
         linecap="square"
         id="path4" /></pattern><symbol
       id="*Model_Space" /><symbol
       id="*Paper_Space" /><symbol
       id="*Paper_Space0" /><marker
       id="DistanceX-0"
       orient="auto"
       refX="0"
       refY="0"
       style="overflow:visible"><path
         d="M 3,-3 -3,3 M 0,-5 V 5"
         style="stroke:#000000;stroke-width:0.5"
         id="path1-9" /></marker><pattern
       id="Hatch-4"
       patternUnits="userSpaceOnUse"
       width="8"
       height="8"
       x="0"
       y="0"><path
         d="M8 4 l-4,4"
         stroke="#000000"
         stroke-width="0.25"
         linecap="square"
         id="path2-8" /><path
         d="M6 2 l-4,4"
         stroke="#000000"
         stroke-width="0.25"
         linecap="square"
         id="path3-8" /><path
         d="M4 0 l-4,4"
         stroke="#000000"
         stroke-width="0.25"
         linecap="square"
         id="path4-2" /></pattern><symbol
       id="*Model_Space-4" /><symbol
       id="*Paper_Space-5" /><symbol
       id="*Paper_Space0-5" /><marker
       id="DistanceX-1"
       orient="auto"
       refX="0"
       refY="0"
       style="overflow:visible"><path
         d="M 3,-3 -3,3 M 0,-5 V 5"
         style="stroke:#000000;stroke-width:0.5"
         id="path1-4" /></marker><pattern
       id="Hatch-2"
       patternUnits="userSpaceOnUse"
       width="8"
       height="8"
       x="0"
       y="0"><path
         d="M8 4 l-4,4"
         stroke="#000000"
         stroke-width="0.25"
         linecap="square"
         id="path2-3" /><path
         d="M6 2 l-4,4"
         stroke="#000000"
         stroke-width="0.25"
         linecap="square"
         id="path3-2" /><path
         d="M4 0 l-4,4"
         stroke="#000000"
         stroke-width="0.25"
         linecap="square"
         id="path4-21" /></pattern><symbol
       id="*Model_Space-6" /><symbol
       id="*Paper_Space-8" /><symbol
       id="*Paper_Space0-57" /><marker
       id="DistanceX-6"
       orient="auto"
       refX="0"
       refY="0"
       style="overflow:visible"><path
         d="M 3,-3 -3,3 M 0,-5 V 5"
         style="stroke:#000000;stroke-width:0.5"
         id="path1-8" /></marker><pattern
       id="Hatch-3"
       patternUnits="userSpaceOnUse"
       width="8"
       height="8"
       x="0"
       y="0"><path
         d="M8 4 l-4,4"
         stroke="#000000"
         stroke-width="0.25"
         linecap="square"
         id="path2-1" /><path
         d="M6 2 l-4,4"
         stroke="#000000"
         stroke-width="0.25"
         linecap="square"
         id="path3-4" /><path
         d="M4 0 l-4,4"
         stroke="#000000"
         stroke-width="0.25"
         linecap="square"
         id="path4-8" /></pattern><symbol
       id="*Model_Space-49" /><symbol
       id="*Paper_Space-2" /><symbol
       id="*Paper_Space0-0" /><marker
       id="DistanceX-9"
       orient="auto"
       refX="0"
       refY="0"
       style="overflow:visible"><path
         d="M 3,-3 -3,3 M 0,-5 V 5"
         style="stroke:#000000;stroke-width:0.5"
         id="path1-2" /></marker><pattern
       id="Hatch-6"
       patternUnits="userSpaceOnUse"
       width="8"
       height="8"
       x="0"
       y="0"><path
         d="M8 4 l-4,4"
         stroke="#000000"
         stroke-width="0.25"
         linecap="square"
         id="path2-5" /><path
         d="M6 2 l-4,4"
         stroke="#000000"
         stroke-width="0.25"
         linecap="square"
         id="path3-7" /><path
         d="M4 0 l-4,4"
         stroke="#000000"
         stroke-width="0.25"
         linecap="square"
         id="path4-7" /></pattern><symbol
       id="*Model_Space-45" /><symbol
       id="*Paper_Space-7" /><symbol
       id="*Paper_Space0-9" /></defs><path
     id="path8-7"
     style="display:inline;fill:#000000;fill-opacity:1;stroke:none;stroke-width:0.944827;stroke-linecap:round"
     d="M 542.99908,160.65317 V 33.653172 H 0 V 160.65317 Z"
     sodipodi:nodetypes="ccccc"
     inkscape:label="RectBack" /><path
     id="path8"
     style="display:inline;fill:#fbeb2c;fill-opacity:1;stroke:none;stroke-width:0.944827;stroke-linecap:round"
     d="M 542.99908,39.15333 H 0 v 75.99997 h 542.99908 z"
     sodipodi:nodetypes="ccccc"
     inkscape:label="RectFront" /><path
     style="font-weight:bold;font-size:82.7565px;line-height:0;font-family:'Nimbus Sans L';-inkscape-font-specification:'Nimbus Sans L Bold';letter-spacing:0px;word-spacing:0px;display:inline;fill:#000000;fill-opacity:1;stroke-width:12.9022;stroke-linecap:square;stroke-miterlimit:50;paint-order:stroke fill markers"
     d="m 11.566109,106.71651 h 24.512116 c 9.340727,0 15.231276,-2.11602 19.438811,-6.917755 4.79659,-5.534207 7.934428,-12.451644 7.934428,-21.729579 0,-9.196551 -3.667004,-17.17232 -8.463594,-22.787912 -4.207535,-4.801739 -10.5431,-7.894707 -19.967978,-7.894707 H 11.566109 Z M 24.188714,96.543339 V 57.559732 h 10.831178 c 9.509029,0 15.279801,8.016947 15.279801,21.119996 0,13.021664 -5.241606,17.863611 -14.750635,17.863611 z M 82.709085,47.386557 H 70.08648 V 106.71651 H 82.709085 Z M 145.56964,65.90125 c -0.42075,-5.12728 -1.5147,-7.853528 -4.12338,-11.19033 -4.71244,-6.02252 -12.28599,-9.359321 -21.45842,-9.359321 -17.33505,0 -30.223005,13.021987 -30.223005,32.228941 0,19.12557 12.803805,32.06617 29.886395,32.06617 15.31542,0 25.94268,-8.0163 26.70003,-21.60766 h -12.286 c -0.8415,7.568841 -6.25141,11.353101 -14.07742,11.353101 -9.76149,0 -17.6004,-8.708561 -17.6004,-21.64884 0,-13.103049 7.03303,-21.974381 16.96281,-21.974381 7.32112,0 11.4445,2.88902 13.12751,10.13232 z m 19.65407,20.428059 6.31131,-6.348061 19.05367,26.735262 h 16.12132 L 180.67181,71.883239 204.10134,47.386557 H 187.61916 L 165.22371,70.784052 V 47.386557 h -12.6226 v 59.329953 h 12.6226 z"
     id="text1"
     aria-label="DICK"
     sodipodi:nodetypes="cscscsccccsssccccccccsssccsssccccccccccccccc"
     inkscape:label="Dick" /><path
     style="font-weight:bold;font-size:82.7565px;line-height:0;font-family:'Nimbus Sans L';-inkscape-font-specification:'Nimbus Sans L Bold';letter-spacing:0px;word-spacing:0px;display:inline;fill:#000000;fill-opacity:1;stroke-width:12.9022;stroke-linecap:square;stroke-miterlimit:50;paint-order:stroke fill markers"
     d="m 338.8733,64.395783 c -0.0842,-12.289196 -9.11254,-19.044184 -24.59626,-19.044184 -14.72638,0 -23.2256,6.673603 -23.2256,18.23033 0,9.196549 4.79659,14.73108 17.25089,17.009871 l 8.58338,1.627708 c 8.41507,1.546323 11.52864,4.354281 11.52864,9.15602 0,4.964509 -4.71244,7.975769 -12.37015,7.975769 -8.58337,0 -13.90913,-3.499572 -14.32988,-9.847634 h -12.286 c 0.75736,12.696127 10.29064,19.613887 25.94267,19.613887 15.82033,0 25.16106,-7.08054 25.16106,-19.206959 0,-9.359322 -4.88074,-14.771613 -16.24108,-16.887633 l -9.59318,-1.790479 c -9.00413,-1.709093 -11.6128,-4.47652 -11.6128,-8.789946 0,-4.476197 4.03923,-7.324686 10.60299,-7.324686 7.99432,0 12.98347,3.255416 13.40422,9.277936 z m 19.52141,-1.78951 12.61124,44.110237 h 12.6226 L 397.12983,62.606273 V 106.71651 H 408.6941 V 47.386557 H 389.67604 L 377.84642,90.356756 365.68019,47.386557 h -18.84975 v 59.329953 h 11.56427 z m 67.72843,-15.219716 h -12.6226 v 59.329953 h 12.6226 z m 36.11194,10.173175 h 18.98243 V 47.386557 h -50.73152 v 10.173175 h 19.12648 v 49.156778 h 12.62261 z m 59.31334,23.805715 v 25.351063 h 12.6226 V 47.386557 H 521.46426 V 70.663104 H 497.75803 V 47.386557 h -12.62261 v 59.329953 h 12.62261 V 81.365447 Z"
     id="text2"
     aria-label="SMITH"
     sodipodi:nodetypes="cssccssccssccssccccccccccccccccccccccccccccccccccccccccccc"
     inkscape:label="Smith" /><path
     style="font-size:51.4067px;line-height:0;font-family:'Neue Aachen Pro';-inkscape-font-specification:'Neue Aachen Pro';letter-spacing:0px;word-spacing:0px;fill:#ffffff;stroke-width:8.01457;stroke-linecap:square;stroke-miterlimit:50;paint-order:stroke fill markers"
     d="m 83.895322,147.30339 q 0.456499,-0.23157 0.741809,-0.46312 0.285312,-0.27787 0.399436,-0.64836 0.171187,-0.41681 0.228249,-1.01886 0.05707,-0.64836 0.05707,-1.62091 v -12.22629 q 0,-1.15779 -0.342373,-1.66722 -0.285312,-0.50943 -1.084183,-0.92624 v -6.15945 H 115.5078 v 10.09595 h -12.66782 v -0.23156 q 0,-1.38935 -0.97005,-1.85247 -0.97006,-0.46312 -2.396618,-0.46312 h -0.51356 v 4.12175 h 8.616398 v 6.62257 h -8.616398 v 5.04798 h 0.114126 q 2.339552,0 3.024302,-0.64837 0.7418,-0.69468 0.7418,-2.63977 v -0.13893 h 12.66782 v 10.97587 H 83.895322 Z m 35.207428,0 q 0.85593,-0.46312 1.14125,-1.06518 0.28531,-0.60204 0.28531,-2.08402 v -12.17998 q 0,-0.78729 -0.057,-1.29673 -0.0571,-0.55574 -0.22825,-0.87991 -0.17118,-0.3705 -0.4565,-0.60206 -0.28531,-0.23156 -0.68475,-0.46312 v -6.15945 h 16.83337 v 6.15945 q -1.02712,0.37049 -1.42656,1.06518 -0.34238,0.64836 -0.34238,2.17664 v 13.93983 h 0.85594 q 1.65481,0 2.28249,-0.64837 0.68474,-0.69468 0.68474,-2.03771 v -5.83528 h 12.04013 v 16.07016 h -30.92773 z m 33.66674,0 q 0.45649,-0.23157 0.7418,-0.46312 0.28532,-0.27787 0.39944,-0.64836 0.17119,-0.41681 0.22825,-1.01886 0.0571,-0.64836 0.0571,-1.62091 v -12.22629 q 0,-1.15779 -0.34238,-1.66722 -0.2853,-0.50943 -1.08417,-0.92624 v -6.15945 h 31.61247 v 10.09595 h -12.66781 v -0.23156 q 0,-1.38935 -0.97006,-1.85247 -0.97006,-0.46312 -2.39661,-0.46312 h -0.51357 v 4.12175 h 8.61641 v 6.62257 h -8.61641 v 5.04798 h 0.11413 q 2.33955,0 3.02429,-0.64837 0.74182,-0.69468 0.74182,-2.63977 v -0.13893 h 12.66781 v 10.97587 h -31.61247 z m 67.39053,-12.92097 h -13.35257 v -2.73239 q 0,-0.92623 -0.45649,-1.48197 -0.39944,-0.60206 -1.826,-0.60206 -2.16836,0 -2.16836,1.99141 v 12.55047 q 0,2.3619 2.22543,2.3619 1.31242,0 1.71186,-0.64837 0.4565,-0.64836 0.4565,-2.40821 v -3.33444 h 13.40963 v 10.32751 q -1.826,0.97255 -3.59492,1.66722 -1.71187,0.69468 -3.59493,1.11148 -1.82599,0.41681 -3.99435,0.60206 -2.1113,0.23155 -4.6791,0.23155 -5.24973,0 -8.38816,-0.83361 -3.08135,-0.83361 -4.73615,-2.13034 -1.59775,-1.34303 -2.11131,-2.96395 -0.4565,-1.66722 -0.4565,-3.24182 v -13.15252 q 0,-1.89877 0.57062,-3.61231 0.57063,-1.75985 2.22543,-3.10288 1.65481,-1.34305 4.73617,-2.13034 3.08136,-0.83361 8.04577,-0.83361 2.73898,0 4.90735,0.23156 2.16836,0.18524 4.05143,0.64836 1.88305,0.46311 3.59492,1.15779 1.71186,0.69467 3.42373,1.71353 z m 13.06725,12.92097 q 1.14126,-0.64837 1.54068,-1.29673 0.45651,-0.69468 0.45651,-2.03771 v -14.17138 h -0.22825 q -0.62768,0 -1.3695,0.46311 -0.68474,0.46312 -0.68474,1.80615 v 5.60372 h -9.58646 v -15.09761 h 36.8622 v 15.09761 h -9.64351 v -5.74265 q 0,-1.25042 -0.74181,-1.66722 -0.68475,-0.46311 -1.25538,-0.46311 h -0.22824 v 14.17138 q 0,1.34303 0.39944,2.03771 0.45649,0.64836 1.59774,1.29673 v 6.15945 h -17.11868 z m 29.72947,0 q 0.85595,-0.46312 1.14125,-1.06518 0.28531,-0.60204 0.28531,-2.08402 v -12.17998 q 0,-0.78729 -0.0571,-1.29673 -0.0571,-0.55574 -0.22826,-0.87991 -0.17118,-0.3705 -0.45649,-0.60206 -0.28532,-0.23156 -0.68476,-0.46312 v -6.15945 h 19.74354 q 2.85311,0 5.36385,0.37049 2.5678,0.32418 4.45086,1.29673 1.94011,0.92624 3.02429,2.54714 1.14124,1.62091 1.14124,4.16805 0,3.01027 -1.42654,4.63117 -1.42656,1.62092 -4.33674,2.40821 1.3695,0.32419 2.2825,0.69468 0.91298,0.3705 1.48361,0.92624 0.57063,0.55574 0.79887,1.34303 0.28532,0.74099 0.28532,1.80616 v 1.06517 q 0,1.62091 0.2853,2.3619 0.28531,0.74098 1.14124,1.11148 v 6.15945 h -14.4938 q -0.4565,-1.48198 -0.62768,-2.91763 -0.17119,-1.43567 -0.17119,-3.01027 v -2.96395 q 0,-0.50942 -0.11412,-1.25041 -0.11413,-0.74099 -0.68475,-1.06517 -0.39944,-0.23156 -0.97006,-0.32418 -0.57063,-0.13894 -2.11131,-0.13894 v 2.3619 q 0,1.48198 0.28532,2.08402 0.34238,0.60206 1.31243,1.06518 v 6.15945 h -16.66218 z m 15.06443,-12.27261 h 0.85594 q 2.22543,-0.0463 2.96723,-0.55574 0.74182,-0.55574 0.74182,-2.03771 0,-1.52828 -0.97006,-1.9914 -0.913,-0.46312 -3.42374,-0.46312 h -0.17119 z m 38.34586,11.439 q 1.08418,0 1.59774,-0.46312 0.57063,-0.46312 0.57063,-1.75984 v -12.45786 q 0,-1.11148 -0.39944,-1.66722 -0.34238,-0.55574 -1.82599,-0.55574 -1.19831,0 -1.71187,0.55574 -0.4565,0.55574 -0.4565,1.66722 v 12.45786 q 0,1.29672 0.4565,1.75984 0.4565,0.46312 1.76893,0.46312 z m -0.0571,-24.45258 q 5.30678,0 8.44521,0.83361 3.13842,0.78729 4.79322,2.13034 1.71187,1.29673 2.22543,2.96395 0.51356,1.6209 0.51356,3.24182 v 13.66194 q 0,1.62092 -0.51356,3.28814 -0.51356,1.6209 -2.16836,2.96395 -1.65481,1.29672 -4.85029,2.13034 -3.13843,0.78729 -8.44521,0.78729 -5.30679,0 -8.44522,-0.83361 -3.13841,-0.83361 -4.79322,-2.13034 -1.6548,-1.34303 -2.16836,-2.96395 -0.51356,-1.6209 -0.51356,-3.1955 V 131.1406 q 0,-1.62091 0.51356,-3.24182 0.57061,-1.66722 2.22542,-2.96395 1.71187,-1.29673 4.85029,-2.08402 3.13843,-0.83361 8.33109,-0.83361 z m 19.85768,25.28619 q 0.85593,-0.46312 1.14125,-1.06518 0.28531,-0.60204 0.28531,-2.08402 v -12.17998 q 0,-0.78729 -0.0571,-1.29673 -0.0571,-0.55574 -0.22824,-0.87991 -0.17119,-0.3705 -0.4565,-0.60206 -0.28531,-0.23156 -0.68475,-0.46312 v -6.15945 h 14.26556 l 6.9616,13.75457 v -4.3533 q 0,-1.71353 -0.34237,-2.36189 -0.34238,-0.64837 -1.14126,-0.87993 v -6.15945 h 13.86613 v 6.15945 q -0.45649,0.23156 -0.74181,0.50943 -0.28531,0.23156 -0.4565,0.60205 -0.17118,0.32419 -0.22825,0.87993 -0.0571,0.50942 -0.0571,1.25041 v 21.48863 h -13.0102 l -4.73617,-8.47504 q -0.57061,-1.01885 -1.14124,-2.22296 -0.57062,-1.2041 -1.1983,-2.40821 v 3.33445 q 0,1.11148 0.0571,1.75984 0.0571,0.64836 0.22825,1.01886 0.17119,0.37049 0.39944,0.55574 0.28531,0.13893 0.68475,0.27787 v 6.15945 h -13.40964 z m 36.69098,0 q 0.85594,-0.46312 1.14124,-1.06518 0.28532,-0.60204 0.28532,-2.08402 v -12.17998 q 0,-0.78729 -0.0571,-1.29673 -0.0571,-0.55574 -0.22826,-0.87991 -0.17118,-0.3705 -0.45649,-0.60206 -0.28532,-0.23156 -0.68475,-0.46312 v -6.15945 h 16.43393 v 6.15945 q -0.85593,0.46312 -1.14125,1.11148 -0.22824,0.60206 -0.22824,2.13034 v 12.17998 q 0,1.52828 0.22824,2.13034 0.28532,0.55574 1.14125,1.01886 v 6.15945 h -16.43393 z m 51.81251,-12.92097 h -13.35257 v -2.73239 q 0,-0.92623 -0.4565,-1.48197 -0.39943,-0.60206 -1.82599,-0.60206 -2.16836,0 -2.16836,1.99141 v 12.55047 q 0,2.3619 2.22543,2.3619 1.31242,0 1.71186,-0.64837 0.4565,-0.64836 0.4565,-2.40821 v -3.33444 h 13.40963 v 10.32751 q -1.826,0.97255 -3.59493,1.66722 -1.71187,0.69468 -3.59492,1.11148 -1.82599,0.41681 -3.99436,0.60206 -2.1113,0.23155 -4.6791,0.23155 -5.24972,0 -8.38814,-0.83361 -3.08136,-0.83361 -4.73617,-2.13034 -1.59775,-1.34303 -2.11131,-2.96395 -0.45649,-1.66722 -0.45649,-3.24182 v -13.15252 q 0,-1.89877 0.57062,-3.61231 0.57062,-1.75985 2.22543,-3.10288 1.6548,-1.34305 4.73616,-2.13034 3.08137,-0.83361 8.04578,-0.83361 2.73898,0 4.90735,0.23156 2.16836,0.18524 4.05142,0.64836 1.88305,0.46311 3.59491,1.15779 1.71187,0.69467 3.42375,1.71353 z m 35.60688,-1.94509 h -12.72489 v -0.23156 q 0,-1.71353 -0.57063,-2.4082 -0.57061,-0.74099 -1.88305,-0.74099 -2.28248,0 -2.28248,1.71353 0,0.92623 0.85593,1.48197 0.91299,0.55574 2.91018,0.97255 l 4.33673,0.83361 q 3.02429,0.55574 5.02147,1.43566 2.05424,0.87993 3.25255,2.08403 1.19831,1.2041 1.6548,2.73239 0.51356,1.52829 0.51356,3.47338 0,5.41846 -3.99436,7.87299 -3.99434,2.40821 -12.09719,2.40821 -2.39661,0 -4.45085,-0.18525 -1.99718,-0.13894 -3.88023,-0.50943 -1.88306,-0.3705 -3.76611,-0.97255 -1.82599,-0.64836 -3.88023,-1.57459 v -8.19718 h 13.2955 v 0.27787 q 0,2.31559 0.57062,3.1492 0.57062,0.83361 2.22543,0.83361 0.91299,0 1.48361,-0.46312 0.6277,-0.50942 0.6277,-1.43566 0,-0.69468 -0.22826,-1.25042 -0.22825,-0.55574 -0.913,-0.97254 -0.62768,-0.46312 -1.82598,-0.83361 -1.19831,-0.37049 -3.08137,-0.69468 -3.08136,-0.55574 -5.42091,-1.2041 -2.33955,-0.69467 -3.88023,-1.75985 -1.54068,-1.11148 -2.33955,-2.63976 -0.79888,-1.5746 -0.79888,-3.84388 0,-2.36189 0.85593,-4.16805 0.85595,-1.85247 2.68194,-3.10288 1.88305,-1.29673 4.79322,-1.94509 2.96724,-0.64837 7.18985,-0.64837 2.16836,0 4.16554,0.18525 1.99717,0.13894 3.88023,0.55574 1.94012,0.37049 3.82317,1.01886 1.88305,0.60205 3.88024,1.52828 z"
     id="text3"
     aria-label="ELECTRONICS"
     inkscape:label="Electronics" /><g
     inkscape:label="0"
     id="g31"
     transform="matrix(0.26458333,0,0,0.26458333,4e-8,-135.34678)"
     style="display:inline"><path
       id="path6-3"
       style="fill:#ffffff;fill-opacity:1;stroke:none;stroke-width:3.571;stroke-linecap:round"
       d="m 1064.4792,560.8561 c 1.0794,2.07928 1.8684,6.24355 1.2292,8.04073 -0.1723,0.48475 -0.4486,0.79729 -0.8693,1.10668 -1.8059,1.32806 -6.2722,2.59818 -6.8728,-0.0333 -0.1328,-0.58213 -0.076,-1.3552 -0.032,-1.91683 0.155,-1.95424 0.166,-1.3485 0.069,-3.78477 -0.031,-0.78258 -0.074,-1.87905 0.1211,-2.69655 0.6646,-2.78746 4.0896,-2.3315 3.5871,-4.11115 1.0204,0.70591 1.8226,1.61043 2.4066,2.71357 0.087,0.19438 0.2261,0.42171 0.3611,0.68162 z"
       sodipodi:nodetypes="scscccsccs" /><path
       d="m 1134.5825,746.09842 c 0.6105,8.95853 -1.0599,17.46422 -2.2758,26.14205 -1.4452,10.31434 -2.2483,20.87187 -5.2018,30.75272 -3.3933,11.35208 -9.6251,21.81097 -17.2208,31.39664 -1.3966,1.76253 -2.8394,3.49553 -4.4582,5.0401 -9.928,9.47253 -26.4791,11.85728 -38.4301,5.83349 v -2.5e-4 c -0.2417,-0.009 -0.3338,0.84216 -0.5568,1.70955 -0.5251,2.04347 -1.7762,4.17692 -2.9603,6.13709 -10.1542,16.80945 -15.3798,20.87525 -21.4825,28.83435 -8.8279,11.51319 -19.4911,31.17308 -33.8028,43.61367 -10.55785,9.17757 -23.10125,14.42627 -35.72255,19.51716 -16.70618,6.73857 -33.54885,13.20064 -51.16771,16.88349 -9.3495,1.95431 -18.91757,3.12601 -28.45595,2.78834 -10.33419,-0.36585 -20.63353,-2.50346 -30.32132,-6.34359 -9.99821,-3.96318 -19.34507,-9.73975 -27.00084,-17.11904 -9.89805,-9.5406 -16.96934,-21.76026 -23.2774,-34.15666 -5.62546,-11.05497 -10.64392,-22.2505 -14.84779,-33.73879 -4.29031,-11.72453 -7.73219,-23.75398 -11.33503,-35.8711 -5.74423,-19.31906 -11.89762,-38.86097 -4.25473,-58.92387 -11.49098,-11.20758 -20.91726,-24.56841 -26.10147,-39.96619 -5.80724,-17.24826 -6.29153,-37.05247 1.41795,-53.81455 1.56536,-3.40345 3.46853,-6.68147 4.01332,-10.16709 0.63814,-4.0829 -0.58752,-8.45063 -2.40799,-12.57507 -1.13108,-2.56256 -2.49178,-5.0312 -2.67555,-7.49154 -0.31978,-4.2812 2.92403,-8.53724 5.50425,-12.70094 3.495,-5.63988 5.77248,-11.11032 9.10578,-16.3904 4.03641,-6.39382 9.62104,-12.50849 11.14261,-19.78274 1.00369,-4.79834 0.23946,-10.10124 1.12139,-14.93492 1.32146,-7.24261 6.3387,-13.4318 11.27655,-19.4019 7.15553,-8.65137 14.14435,-16.84265 22.35335,-23.61879 14.88781,-12.28919 33.78895,-19.92378 52.89535,-26.08461 13.74191,-4.43107 27.59,-8.09976 41.69169,-8.32146 4.36981,-0.0687 8.76398,0.1936 13.09918,0.44037 22.24607,1.26631 42.9394,2.12374 64.00585,6.27137 4.5949,0.90466 9.20755,1.96585 13.93736,3.31969 16.1537,4.62369 33.6744,12.66083 47.7764,23.21429 3.249,2.43149 6.3166,4.99655 8.3375,6.85472 7.3958,6.80027 0.7734,4.13305 -0.1792,8.12805 -0.1949,0.8175 -0.1524,1.91397 -0.1211,2.69655 0.097,2.43627 0.086,1.83053 -0.069,3.78477 -0.044,0.56163 -0.1008,1.3347 0.032,1.91683 0.6006,2.63148 5.0669,1.36136 6.8728,0.0333 0.4207,-0.30939 0.697,-0.62193 0.8693,-1.10668 0.6392,-1.79718 -0.1498,-5.96145 -1.2292,-8.04073 -0.169,-0.32547 -0.3451,-0.59986 -0.4156,-0.82239 -0.1277,-0.40344 0.092,-0.63645 0.3252,-0.67071 17.5052,15.55656 27.8572,36.22811 39.0362,56.40364 4.3222,7.80044 8.768,15.52672 12.1116,23.71801 10.574,25.90419 10.1259,56.45876 4.2286,83.19454 10.62,2.87894 14.1365,13.43057 14.8173,23.41923 z"
       style="display:inline;fill:#000000;fill-opacity:1;stroke:#000000;stroke-width:3.571;stroke-linecap:round"
       id="path9"
       sodipodi:nodetypes="sssssccsssssssssssscssssssssssssssssssscccscsscsscs" /><path
       d="m 827.67223,800.1882 c -1.58689,2.18813 -2.73322,4.60584 -3.49526,7.45639 -0.24169,0.90408 -0.44472,1.85171 -0.59988,2.7575 -0.90725,5.2962 -0.17788,9.16216 -2.89237,10.15772 -1.36858,0.50193 -3.61256,0.27423 -5.61997,-0.10129 -3.9531,-0.73951 -6.98875,-2.05226 -10.34,-3.95047 -6.46495,-3.66187 -14.10437,-9.50256 -13.78416,-16.30831 0.15633,-3.32277 2.20998,-6.87557 4.8703,-9.21775 5.44419,-4.79314 13.42908,-4.51628 20.74938,-4.9634 4.48873,-0.27417 8.72757,-0.82055 12.98149,-1.6207 4.85863,-0.9139 9.73694,-2.15884 14.35323,-4.15305 4.46505,-1.92889 8.68498,-4.55876 12.03348,-8.00437 3.16788,-3.25974 5.55581,-7.24958 7.69247,-11.30368 2.18703,-4.14969 4.1108,-8.3667 5.83468,-12.721 1.06689,-2.69483 2.05722,-5.44226 3.71145,-7.82607 1.04609,-1.50745 2.35766,-2.86949 3.97517,-3.76814 0.62031,-0.34463 1.28561,-0.6211 1.96856,-0.73279 1.58732,-0.25958 3.26998,0.37104 4.72684,1.22132 4.80309,2.80324 7.15203,7.99401 10.09177,12.53882 2.83566,4.38389 6.22103,8.16676 9.70294,12.12016 3.7249,4.22932 7.56029,8.65381 12.22107,11.24765 7.86092,4.3748 18.06977,3.54201 27.79724,3.47178 8.22608,-0.0594 16.10791,0.42656 23.63898,-1.54671 4.89107,-1.28154 9.73706,-5.69703 14.79463,-8.97094 3.23329,-2.093 7.81714,-2.1429 9.36462,-5.08566 11.03971,-20.99367 15.51111,-36.68805 16.74231,-56.09066 3.9253,-3.04889 7.0313,7.85509 9.9878,7.25135 1.34,-0.27365 2.6493,-2.91147 4.3317,-3.57916 1.7217,-0.68325 3.8341,0.69656 5.2969,2.23756 2.0019,2.10873 2.7875,4.51931 3.7432,6.92118 2.1549,5.41503 5.1747,10.78582 7.8697,15.89857 3.0545,5.79468 5.6916,11.25789 8.7872,18.08393 3.2286,7.11938 6.956,15.72124 13.973,15.63621 2.834,-0.0343 6.2046,-1.48567 8.781,-3.80122 4.8382,-4.34844 6.8753,-11.74464 10.5321,-13.79404 1.8567,-1.04051 4.1309,-0.70276 6.3305,-1.76931 1.4974,-0.72602 2.9602,-2.10277 4.3407,-3.37246 2.6334,-2.42194 4.9674,-4.45435 7.4313,-7.39705 2.3511,-2.80796 4.133,-5.63226 6.9892,-5.60408 2.0744,0.0205 3.6028,1.53658 5.3277,3.54534 2.5819,3.00683 5.3612,5.76221 6.9868,8.97965 1.6768,3.3185 3.6555,6.7296 4.3907,10.32351 1.0116,4.94521 -0.3313,10.23652 -1.8418,15.32627 -2.3235,7.82943 -5.0434,15.18192 -7.972,22.36742 -3.1763,7.79325 -6.5982,15.39008 -11.7713,22.90646 -4.8226,7.0072 -11.1671,13.94449 -18.9136,14.78932 -4.7162,0.51435 -9.9521,-1.22961 -13.5545,-5.47254 -3.3302,-3.92234 -5.2645,-9.98027 -9.0858,-10.00268 -1.5999,-0.009 -3.5307,1.03928 -5.1958,2.23927 -4.7637,3.43308 -7.3532,8.10484 -10.0919,12.65527 -1.2676,2.10624 -2.5672,4.18649 -5.7845,4.5589 -0.6429,0.0744 -1.3623,0.0806 -2.085,0.10373 -2.8875,0.0922 -5.8258,0.45363 -8.0704,1.83917 -2.7923,1.72358 -4.5111,5.03203 -6.7314,7.81965 -2.7427,3.44339 -6.2506,6.0921 -10.1539,7.70295 -5.2956,2.18541 -11.3189,2.46055 -16.56588,4.9549 -7.83742,3.72582 -13.94278,12.40301 -14.69556,21.23915 -0.38074,4.46907 0.60773,8.97879 3.6749,12.53524 1.00942,1.17044 2.24398,2.23764 2.9909,3.20655 0.16144,0.20942 0.30009,0.41424 0.36821,0.66322 0.29792,1.08884 -0.75298,3.02228 -1.46394,4.28783 -1.33116,2.36952 -1.47064,2.39769 -3.42439,5.40605 -0.63805,0.98246 -1.46959,2.28276 -2.72073,3.79171 -6.60368,7.96446 -24.89673,21.74167 -35.92157,27.74023 -3.13564,1.70608 -5.68333,2.78293 -8.37576,3.84861 -12.07291,4.77851 -27.05602,9.33232 -41.7936,11.08892 -2.50217,0.29824 -4.99726,0.51585 -7.52658,0.36813 -6.00418,-0.35066 -12.20126,-2.75994 -18.05146,-5.7102 -11.85517,-5.9786 -22.28589,-14.17878 -28.66707,-25.00219 -3.31934,-5.63007 -5.54294,-11.96994 -7.89877,-18.1416 -2.66035,-6.96942 -5.48932,-13.72435 -8.02991,-20.85146 -1.40637,-3.94529 -2.72438,-8.00463 -4.08725,-11.67402 -2.42451,-6.52773 -4.99102,-11.8214 -6.39791,-21.05305 -0.1169,-0.76704 -0.22579,-1.56127 0,-1.82825 0.3448,-0.4077 1.47007,0.41415 2.51851,1.20493 8.89431,6.70848 12.2593,11.1813 17.57277,15.87969 5.08341,4.49496 11.95022,9.19638 19.02194,12.3129 5.51699,2.43135 11.1587,3.89808 16.88997,5.21783 8.01845,1.84644 16.21221,3.4052 24.47379,3.56579 6.64767,0.12922 13.33926,-0.64682 19.76802,-2.29447 3.75927,-0.96347 7.42867,-2.22499 11.0856,-3.53998 9.79345,-3.52162 19.49746,-7.42678 28.53546,-12.52868 5.51737,-3.11452 10.78653,-6.67503 15.99704,-10.29769 2.94738,-2.04919 5.87599,-4.11827 7.73139,-7.07465 1.95799,-3.11984 2.72081,-7.22782 2.93964,-11.28411 0.26686,-4.94675 -0.27532,-9.81664 -2.32804,-13.89317 -0.55138,-1.095 -1.21175,-2.13276 -1.92561,-3.13845 -3.34855,-4.71748 -7.87399,-8.72928 -11.5403,-13.18829 -0.62385,-0.75874 -1.22283,-1.53042 -1.94312,-2.15457 -1.72042,-1.4908 -4.13294,-2.13993 -6.14426,-3.6319 -2.26503,-1.68015 -4.02127,-4.42917 -6.36485,-4.82506 -0.86162,-0.14554 -1.80262,0.027 -2.93531,0.0809 -1.24875,0.0594 -2.73048,-0.0253 -3.15441,0.72784 -0.26476,0.47038 -0.11695,1.26759 0,2.02178 0.35888,2.3145 0.42705,4.22386 0.80915,6.15157 0.62864,3.17158 2.10705,6.39282 3.63919,9.53739 1.94666,3.99532 3.98006,7.86687 6.18004,11.40281 1.21288,1.94942 2.47639,3.79682 4.03447,5.90358 0.7909,1.06941 1.65769,2.20563 1.64621,3.23484 -0.0162,1.45437 -1.78622,2.69503 -3.53101,3.72006 -9.1736,5.38932 -17.65035,4.81779 -26.45739,5.21742 -8.61884,0.39109 -17.554,1.71227 -26.33897,1.6506 -9.10415,-0.0639 -18.04698,-1.61297 -27.22106,-2.64708 -7.20516,-0.81217 -14.55295,-1.3067 -21.45749,-0.97876 -4.62772,0.21979 -9.05632,0.80906 -14.38631,-0.5466 -3.05796,-0.77778 -6.41263,-2.19576 -7.02378,-4.34629 -0.65183,-2.29365 1.81716,-5.4206 3.41249,-8.12165 2.11279,-3.57716 2.69324,-6.40731 2.01139,-11.49218 -0.55027,-4.10367 -0.95378,-11.85806 1.33523,-9.29668 1.81199,2.0276 1.93961,2.07419 2.77769,3.81937 2.33759,4.8677 1.94048,5.88387 3.72051,8.90073 5.0845,8.61739 6.57619,7.09154 13.8864,9.5428 4.41013,1.74496 11.74217,5.6751 16.45482,7.41614 3.44123,1.27133 5.55242,0.90885 8.58245,-0.76853 5.89249,-3.262 15.25987,-11.49677 20.06786,-14.56304 4.81023,-3.06768 5.05685,-0.96206 8.38399,-3.1282 2.20861,-1.43792 5.77465,-4.75819 7.89606,-7.84228 1.95737,-2.84562 2.68489,-5.49017 3.49962,-9.46715 0.13365,-0.65243 0.26965,-1.34071 0.36464,-1.83725 0.27586,-1.44211 0.20574,-1.26686 -0.10331,-1.54136 -0.24198,-0.21493 -0.63044,-0.70559 -1.09716,-0.95534 -0.30126,-0.16121 -0.63514,-0.22204 -0.99745,-0.28987 -2.69953,-0.50534 -6.97773,-1.39867 -11.01296,-1.83096 -7.76635,-0.83199 -14.63267,0.0438 -20.51549,3.62514 -1.75379,1.06766 -3.42016,2.37577 -5.2579,3.30586 -1.91217,0.96775 -4.00986,1.52625 -6.22348,1.74072 -4.34819,0.42128 -9.14367,-0.48483 -12.19577,-3.52124 -1.16814,-1.16213 -3.01841,-2.10508 -4.31462,-2.96148 -1.09055,-0.72052 -2.51501,-1.535 -4.02176,-1.54719 -4.98443,-0.0403 -10.55336,2.88531 -12.51714,-0.35269 -0.92098,-1.51857 -0.82908,-4.3928 -1.13916,-6.2383 -0.17842,-1.0619 -0.48992,-1.78321 -2.83246,-1.74864 -0.51013,0.008 -1.11658,0.0509 -1.7056,0.0819 -2.30791,0.12142 -4.34829,0.0527 -6.12818,1.15444 -0.6051,0.37456 -1.1801,0.88438 -1.73413,1.44404 -3.15295,3.18495 -5.62701,7.98376 -6.46806,9.14347"
       style="display:inline;fill:#ffffff;fill-opacity:1;stroke:none;stroke-width:3.571;stroke-linecap:round"
       id="path24-4"
       sodipodi:nodetypes="csssssssssssssssssssssssscssscssssssssssssssssscssscssssssssssssssssssssssssssssssssssssssssssssssssssssssssssssssssssssssssssssssscsssc" /><path
       d="m 1094.1042,610.67962 c -0.8478,0.27697 -1.7914,1.6283 -1.9392,2.79358 -0.2061,1.62507 1.1353,2.88831 2.7012,3.89802 0.7856,0.50655 1.6277,0.94929 2.2631,0.7344 0.845,-0.28581 1.3245,-1.73491 0.8632,-3.02497 -0.1305,-0.3649 -0.3362,-0.71707 -0.5391,-1.0664 -1.1084,-1.90894 -2.1298,-3.733 -3.3492,-3.33463 z"
       style="fill:#ffffff;fill-opacity:1;stroke:none;stroke-width:3.571;stroke-linecap:round"
       id="path5-7" /><path
       d="m 947.53606,732.46894 c 1.12367,-1.81621 6.5559,0.30848 10.77745,2.20743 6.07201,2.73134 9.63932,4.99567 15.32216,3.95121 2.56487,-0.47141 5.56068,-1.61683 7.14169,0 0.43893,0.44888 0.76882,1.11067 0.90894,1.76214 0.44131,2.05181 -0.99973,4.00116 -2.53136,5.7087 -5.05942,5.64052 -11.10723,8.64248 -17.80266,10.4208 -4.13605,1.09854 -8.51923,1.73012 -12.55229,2.19629 -6.3965,0.73935 -11.9123,1.06261 -19.62231,-1.93052 -1.40761,-0.54645 -2.88835,-1.20344 -4.31448,-2.07325 -5.02371,-3.064 -9.36978,-8.76883 -7.06252,-10.5564 1.23964,-0.96043 4.3999,-0.79007 6.98235,-0.12432 2.99257,0.77148 5.20923,2.20819 7.51404,3.0046 3.07566,1.06276 6.30828,0.98529 10.73434,1.18017 4.2439,0.18687 9.58503,0.62413 10.28708,-1.18017 0.5511,-1.41637 -1.75647,-4.21402 -3.57811,-7.29833 -1.7022,-2.88207 -2.98011,-6.01443 -2.20432,-7.26835 z"
       style="fill:#ffffff;fill-opacity:1;stroke:none;stroke-width:3.571;stroke-linecap:round"
       id="path6" /><path
       d="m 1039.4256,610.67962 c -0.2381,-4.07485 -0.332,-8.22479 1.6242,-8.51067 1.4073,-0.20566 3.8754,1.58826 5.1324,3.5363 1.5686,2.43093 1.2512,5.10185 -0.3898,7.76795 -1.2533,2.03631 -3.2787,4.06982 -4.4827,3.89802 -1.409,-0.20105 -1.693,-3.42215 -1.8841,-6.6916 z"
       style="fill:#ffffff;fill-opacity:1;stroke:none;stroke-width:3.571;stroke-linecap:round"
       id="path7" /><path
       d="m 1025.287,549.71331 c -0.8169,0.31935 -1.2233,2.28315 -1.2124,4.00627 0.012,1.85693 0.5084,3.43435 1.6839,4.18466 1.1057,0.70582 2.8122,0.6797 4.2432,0 0.6817,-0.32377 1.3008,-0.79585 1.5491,-1.29835 0.6154,-1.24545 -1.0475,-2.67782 -2.6267,-4.26581 -1.4143,-1.42213 -2.7615,-2.96908 -3.6371,-2.62677 z"
       style="fill:#ffffff;fill-opacity:1;stroke:none;stroke-width:3.571;stroke-linecap:round"
       id="path8-0" /><path
       d="m 883.83764,861.86714 c 4.30046,0.14492 16.92182,0.55898 29.91098,-0.0736 1.80581,-0.0879 3.61873,-0.19611 5.29099,-0.36267 2.68605,-0.26755 5.00921,-0.68576 5.69104,0.12854 0.12633,0.15087 0.19632,0.34405 0.24569,0.55774 0.14456,0.62569 0.11237,1.4272 -0.0567,2.25681 -0.35152,1.72519 -1.29482,3.57194 -2.46144,4.92001 -2.13298,2.46475 -5.01248,3.26249 -8.28169,3.72075 -4.12006,0.57753 -8.85908,0.61589 -13.64105,0.74088 -8.37982,0.21905 -16.89149,0.70413 -21.84619,-0.065 -0.93737,-0.14551 -1.74743,-0.3359 -2.56465,-0.56679 -2.69808,-0.76227 -5.47411,-1.96583 -8.78972,-4.01746 -0.64575,-0.39958 -1.31197,-0.83133 -1.93025,-1.34262 -1.99313,-1.64825 -3.48809,-4.1232 -2.88101,-5.2686 0.63114,-1.19079 3.53422,-0.94456 6.09247,-0.82538 1.05361,0.0491 2.04872,0.0766 2.9594,0.0966 5.31992,0.11668 7.75856,-0.0247 10.92323,0.0584 0.39558,0.0104 0.80251,0.0243 1.33887,0.0423 z"
       style="fill:#ffffff;fill-opacity:1;stroke:none;stroke-width:3.571;stroke-linecap:round"
       id="path13-6" /><path
       d="m 882.21403,549.27072 c 1.51226,-2.47218 3.0942,-3.99759 4.73856,-5.53706 2.19576,-2.0557 4.5028,-4.13644 8.12403,-5.35783 2.15356,-0.72637 4.77191,-1.14881 5.78749,0 0.94196,1.06551 0.50512,3.48269 -0.32862,5.35783 -1.7877,4.02071 -5.40018,5.54927 -8.325,7.94818 -2.21177,1.81406 -4.03031,4.12582 -7.17713,4.92405 -1.56055,0.39586 -3.44777,0.41949 -4.30425,-0.32339 -1.42216,-1.23354 -0.002,-4.58051 1.48492,-7.01178 z"
       style="fill:#ffffff;fill-opacity:1;stroke:#000000;stroke-width:3.571;stroke-linecap:round"
       id="path14-0" /><path
       d="m 1019.8112,676.30319 c -3.0106,-6.31582 -4.2605,-9.47699 -4.7094,-14.23232 -0.3622,-3.83784 0.3864,-8.37608 2.0412,-12.58745 1.3685,-3.4829 3.3569,-6.74223 3.3532,-9.99877 -0.01,-4.63193 -4.0405,-9.25822 -5.3944,-13.99666 -0.8774,-3.0709 -1.5138,-11.14311 -1.25,-14.72135 1.1364,-15.41174 4.4203,-15.71258 -9.1348,-16.10778 -10.76952,-0.31398 -17.44895,0.80023 -26.80236,-0.0453 -4.85712,-0.43908 -11.59161,-0.70296 -16.56236,-1.92806 -8.48198,-2.09048 -17.50605,-2.31603 -26.11812,-2.36863 -8.89177,-0.0543 -17.37936,0.14577 -25.84884,2.76432 -14.41281,4.45607 -27.23741,12.84423 -41.95149,17.12663 -1.95379,0.56863 -3.94089,1.06487 -5.85119,1.74223 -2.8061,0.995 -5.44649,2.38081 -7.8516,4.07802 -4.41824,3.11782 -8.04248,7.28651 -11.36485,11.61884 -6.48765,8.45982 -11.82427,17.54364 -18.4286,25.83885 -2.97576,3.73763 -6.20889,7.31516 -8.87284,11.21456 -2.30708,3.37702 -4.18726,6.99544 -6.19762,10.7221 -2.33256,4.32391 -4.84036,8.79352 -5.46515,13.42354 -0.0795,0.58889 -0.12847,1.18037 0.0276,1.80506 0.15783,0.63176 0.5254,1.29748 1.08956,1.5541 0.20291,0.0923 0.43125,0.13168 0.6581,0.1647 1.33213,0.19393 2.6131,0.1689 3.89646,0.0603 2.14762,-0.18168 4.30193,-0.59728 6.44682,-1.05441 4.32019,-0.92075 8.60221,-2.01 12.96482,-2.24371 5.16152,-0.27652 10.43585,0.64453 15.40966,2.20822 5.33617,1.67761 10.32643,4.09491 14.56549,8.17174 2.815,2.70728 5.29874,6.14639 8.59386,7.01063 2.04264,0.53574 4.39707,0.082 6.87509,0 3.59947,-0.11914 7.45971,0.54597 9.90821,-1.24768 1.61129,-1.18036 2.61121,-3.42549 3.94307,-5.25742 4.0361,-5.55157 11.12048,-7.30856 17.58374,-9.35053 3.00607,-0.94972 5.87777,-1.9611 8.81209,-2.85371 6.86686,-2.0889 14.07659,-3.52745 21.15664,-4.71833 18.96671,-3.19025 36.82602,-6.37096 56.94635,-10.3068 2.5585,-0.50048 4.97393,2.49378 7.48401,2.70085 2.85105,0.2352 5.60575,0.59755 8.17765,1.06173 3.5021,0.63207 3.4422,0.74301 7.8966,1.58493 3.5701,0.67478 4.8292,-0.0371 3.9734,-1.83244 z"
       style="fill:#ffffff;fill-opacity:1;stroke:none;stroke-width:3.571;stroke-linecap:round"
       id="path15-7"
       sodipodi:nodetypes="ssscsssssssssssssssssssssssssssssssssss" /><path
       d="m 819.85034,562.8919 c -1.37889,-0.68822 -4.13052,1.21107 -6.39791,2.76987 -2.97624,2.04612 -5.11816,3.50557 -7.15406,5.70666 -3.32453,3.5943 -6.36635,9.16624 -5.01214,14.07811 0.42519,1.5422 1.28374,3.01933 2.73879,3.80965 1.60665,0.87267 3.94057,0.90794 5.18082,0 1.92541,-1.40952 1.215,-5.09223 2.08996,-7.76661 0.6595,-2.01581 2.21972,-3.45875 3.76895,-4.74834 1.83871,-1.53054 3.66195,-2.84506 4.78559,-5.37281 1.32375,-2.97794 1.6765,-7.63975 0,-8.47653 z"
       style="fill:#ffffff;fill-opacity:1;stroke:#000000;stroke-width:3.571;stroke-linecap:round"
       id="path16-0" /><path
       d="m 832.06304,557.41589 c -1.88347,-1.5408 -1.1203,-5.86324 0.55785,-8.59524 1.58471,-2.5799 3.98536,-3.74154 6.3467,-5.08699 3.08123,-1.75563 6.09553,-3.82423 8.89593,-5.78864 1.82798,-1.28227 3.56481,-2.52014 5.86752,-3.68367 4.07811,-2.06062 9.93106,-3.88806 12.22433,-1.05248 0.98734,1.22083 1.31484,3.30602 1.09897,5.16696 -0.31039,2.67574 -1.74414,4.88787 -3.4334,6.77516 -3.1108,3.47547 -7.08807,5.84937 -11.05529,8.56859 -2.41921,1.65818 -4.83469,3.44477 -7.43227,4.18466 -2.49328,0.71019 -5.15434,0.45604 -8.17718,0.39854 -1.83613,-0.0349 -3.80575,0.003 -4.89316,-0.88689 z"
       style="fill:#ffffff;fill-opacity:1;stroke:#000000;stroke-width:3.571;stroke-linecap:round"
       id="path17-5" /><path
       d="m 868.53334,577.93242 c 6.10265,-3.48287 6.7021,-5.36883 8.6089,-8.11499 1.1231,-1.61749 2.69975,-3.5334 5.07179,-4.77852 1.21394,-0.63722 2.6362,-1.09875 3.51066,-0.62677 1.01189,0.54615 1.29029,2.34226 1.2279,3.93968 -0.0962,2.46298 -1.00254,4.45364 -2.57097,5.81999 -1.29231,1.12581 -3.0341,1.82778 -3.65251,3.76061 -0.26405,0.8253 -0.32328,1.87501 0,2.23846 0.49433,0.55574 1.88303,-0.49305 3.10853,-1.43262 4.16698,-3.19474 6.44717,-5.12681 9.00735,-7.36983 2.02945,-1.77803 4.23484,-3.75146 6.8016,-6.03154 0.44409,-0.39449 0.899,-0.79816 1.43999,-1.11392 1.54851,-0.90384 3.8023,-1.08744 4.81683,-0.40412 0.23419,0.15774 0.40235,0.36167 0.52458,0.78688 0.44833,1.55967 0.27866,6.09644 -1.89876,8.99672 -0.75627,1.00734 -1.75475,1.81726 -2.70014,2.5619 -4.8412,3.81318 -8.29038,5.91439 -12.44679,8.3868 -0.73596,0.43779 -1.49411,0.88721 -2.30225,1.20851 -2.13879,0.85033 -4.62779,0.80326 -7.2154,0.81621 -4.18672,0.021 -8.63156,0.19908 -11.33131,2.68032 -1.24368,1.14303 -2.11703,2.77482 -3.7606,3.82498 -2.09161,1.33643 -5.43059,1.73092 -6.80749,0.50516 -1.66415,-1.48148 -0.46219,-5.32975 1.34565,-8.13979 2.60671,-4.05179 6.47307,-5.94501 9.22244,-7.51412 z"
       style="fill:#ffffff;fill-opacity:1;stroke:#000000;stroke-width:3.571;stroke-linecap:round"
       id="path18-6" /><path
       d="m 1039.4256,660.9576 c 0.2434,3.14695 -0.5348,5.64709 -0.01,8.38296 0.543,2.8041 2.4599,5.85582 5.4435,6.64765 1.9469,0.51669 4.348,0.0711 5.4435,-1.34227 1.1643,-1.50214 0.8537,-4.09749 0,-5.9586 -1.0498,-2.2884 -2.9208,-3.4667 -4.5151,-5.77009 -1.3435,-1.94112 -2.4904,-4.68126 -4.4827,-4.24591 -0.8603,0.188 -1.8783,0.96816 -1.9001,1.95354 0,0.10949 0.01,0.22151 0.016,0.33272 z"
       style="fill:#ffffff;fill-opacity:1;stroke:none;stroke-width:3.571;stroke-linecap:round;stroke-opacity:1"
       id="path19-7" /><path
       style="fill:#ffffff;fill-opacity:1;stroke:none;stroke-width:3.571;stroke-linecap:round"
       d="m 790.20696,752.23604 c -4.18576,-5.85672 1.65518,-14.27045 7.09564,-19.77449 3.54606,-3.5875 7.3844,-5.38249 11.46574,-7.39677 2.69597,-1.33055 6.04456,-2.18749 9.03645,-3.09908 2.93768,-0.89506 5.95326,-1.66204 8.89461,-1.81347 0.4601,-0.0237 0.9184,-0.0323 1.36131,-0.10721 1.1548,-0.19527 2.20506,-0.84104 3.35473,-1.61292 1.69796,-1.14 3.61278,-2.55509 0.55206,-3.97857 -8.64145,-3.26168 -19.44258,-3.53618 -27.94248,0.47852 -6.56734,3.1019 -11.76093,8.76432 -15.84488,15.22975 -2.93337,4.6439 -5.29427,9.70208 -5.24977,14.88709 0.0492,5.73646 3.04272,11.62815 7.2514,15.8879 4.41865,4.47228 10.17679,7.1457 16.1166,8.74401 4.02809,1.08389 8.13972,1.67336 12.30542,1.78661 6.9673,0.18941 14.08582,-0.95335 20.3638,-4.22322 3.9088,-1.83564 6.26086,-5.4728 8.26751,-9.12559 1.98464,-5.27245 2.12699,-6.13252 -10.279,-5.88256 z"
       id="path21"
       sodipodi:nodetypes="csssssscsssssssscc" /><path
       d="m 967.65724,695.48997 c 1.5018,-1.74477 5.39889,0.53713 8.48963,2.72466 4.72134,3.34162 7.56106,6.46302 8.96667,10.25211 0.82533,2.22485 1.15622,4.67989 1.23389,7.90158 0.0553,2.29448 -0.0178,4.97783 -1.05368,5.59738 -1.2882,0.77047 -4.0653,-1.65081 -6.13881,-3.5336 -1.69668,-1.54063 -2.92225,-2.72071 -4.2147,-3.97857 -1.19806,-1.166 -2.45359,-2.39883 -3.84821,-3.74923 -1.19735,-1.1594 -2.49723,-2.40545 -3.80239,-2.61129 -2.35637,-0.37161 -4.72996,2.6474 -7.32992,3.95289 -2.97964,1.49613 -6.25658,0.74173 -9.52889,0.53669 -3.31768,-0.20789 -6.63061,0.14891 -9.48308,-1.92411 -0.72801,-0.52907 -1.42603,-1.21643 -1.60342,-1.87829 -0.42147,-1.57256 2.09611,-3.00124 4.30633,-3.98564 4.06548,-1.81072 7.09098,-2.11827 10.62838,-1.87829 2.79532,0.18964 5.91029,0.72118 8.52103,-0.3665 1.37263,-0.57186 2.60587,-1.59132 3.29846,-3.03779 0.66622,-1.3914 0.83216,-3.17791 1.55871,-4.022 z"
       style="fill:#ffffff;fill-opacity:1;stroke:none;stroke-width:3.571;stroke-linecap:round"
       id="path23-8" /><path
       d="m 1090.3859,748.21579 c -1.2576,0.53922 -1.4566,2.05747 -1.8664,3.39219 -0.5901,1.92171 -1.6172,3.46299 -2.6373,4.91124 -1.9473,2.76452 -3.8692,5.19003 -6.5931,8.3525 -1.3945,1.61907 -2.9992,3.4313 -2.5596,4.80908 0.3257,1.02101 1.7741,1.80343 3.1219,2.55967 3.6464,2.04587 6.5572,3.90015 8.8838,6.3533 1.8123,1.91103 3.2702,4.18548 5.369,6.60018 0.94,1.0815 2.0086,2.19113 3.0251,2.31732 1.7099,0.21228 3.2723,-2.35866 4.5763,-4.48916 1.2916,-2.1102 2.3297,-3.78831 2.7148,-5.73987 0.5446,-2.75929 -0.2159,-6.06522 -1.5513,-8.84249 -1.1307,-2.35169 -2.6736,-4.32433 -3.6456,-6.67066 -0.8652,-2.08849 -1.278,-4.47306 -2.8699,-6.12769 -1.3978,-1.45288 -3.7045,-2.34299 -3.8783,-4.50103 -0.086,-1.06822 0.3506,-2.44712 -0.3103,-2.92458 -0.3998,-0.28883 -1.2012,-0.24778 -1.7791,0 z"
       style="fill:#000000;fill-opacity:1;stroke:none;stroke-width:3.571;stroke-linecap:round"
       id="path26" /><path
       d="m 852.56565,883.73943 c 3.87952,1.93747 13.59941,6.63943 21.84245,8.28536 1.32465,0.2645 2.61115,0.45008 3.98401,0.63269 3.81263,0.50713 8.29125,0.99137 12.12094,1.14269 6.18605,0.24443 10.67896,-0.37975 13.70661,-0.79262 2.99453,-0.40837 4.55569,-0.61003 8.53565,-2.95346 0.77525,-0.45647 1.64227,-0.99421 2.62793,-1.37085 3.38735,-1.29437 8.17595,-0.6862 12.48653,-1.37286 0.71618,-0.11408 1.41916,-0.26391 1.836,-0.12806 0.92903,0.30279 0.43666,2.02468 -0.62686,3.68396 -3.59639,5.61099 -13.72402,10.50608 -19.43496,11.53293 -1.84557,0.33185 -3.22988,0.25971 -4.49054,0.19919 -7.44492,-0.35743 -10.5772,-0.3099 -14.28041,-0.22465 -3.80095,0.0875 -8.20336,0.21477 -15.98319,0.53285 -1.27474,0.0521 -2.64015,0.10935 -4.20257,-0.38395 -4.02327,-1.27026 -9.35283,-6.19105 -13.33009,-10.15982 -0.80199,-0.80027 -1.54899,-1.56184 -2.24349,-2.43967 -2.11179,-2.66926 -3.73807,-6.41352 -2.9339,-6.33614 0.10053,0.01 0.23902,0.0791 0.38589,0.15241 z"
       style="display:inline;fill:#000000;fill-opacity:1;stroke:none;stroke-width:3.571;stroke-linecap:round"
       id="path27" /></g></svg>
