<?xml version="1.0" encoding="UTF-8" standalone="no"?>
<!-- Created by ERK -->

<svg
   width="890.7301mm"
   height="308.9863mm"
   viewBox="0 0 890.7301 308.98631"
   version="1.1"
   id="svg1"
   inkscape:version="1.4 (86a8ad7, 2024-10-11)"
   xml:space="preserve"
   sodipodi:docname="systemsp-w.svg"
   xmlns:inkscape="http://www.inkscape.org/namespaces/inkscape"
   xmlns:sodipodi="http://sodipodi.sourceforge.net/DTD/sodipodi-0.dtd"
   xmlns:xlink="http://www.w3.org/1999/xlink"
   xmlns="http://www.w3.org/2000/svg"
   xmlns:svg="http://www.w3.org/2000/svg"><sodipodi:namedview
     id="namedview1"
     pagecolor="#ffffff"
     bordercolor="#000000"
     borderopacity="0.25"
     inkscape:showpageshadow="2"
     inkscape:pageopacity="0.0"
     inkscape:pagecheckerboard="true"
     inkscape:deskcolor="#d1d1d1"
     inkscape:document-units="mm"
     inkscape:zoom="0.58236858"
     inkscape:cx="1734.2968"
     inkscape:cy="679.12317"
     inkscape:window-width="3840"
     inkscape:window-height="2066"
     inkscape:window-x="-11"
     inkscape:window-y="-11"
     inkscape:window-maximized="1"
     inkscape:current-layer="g5" /><defs
     id="defs1"><linearGradient
       id="linearGradient66"
       inkscape:collect="always"><stop
         style="stop-color:#a6c8f3;stop-opacity:1;"
         offset="0"
         id="stop64" /><stop
         style="stop-color:#285bc3;stop-opacity:1;"
         offset="0.4926073"
         id="stop65" /><stop
         style="stop-color:#285bc3;stop-opacity:1;"
         offset="0.66196132"
         id="stop67" /><stop
         style="stop-color:#698cd5;stop-opacity:1;"
         offset="1"
         id="stop66" /></linearGradient><linearGradient
       id="linearGradient36"
       inkscape:collect="always"><stop
         style="stop-color:#a6c8f3;stop-opacity:1;"
         offset="0"
         id="stop36" /><stop
         style="stop-color:#285bc4;stop-opacity:1;"
         offset="0.54461324"
         id="stop38" /><stop
         style="stop-color:#698cd5;stop-opacity:1;"
         offset="1"
         id="stop37" /></linearGradient><marker
       id="DistanceX"
       orient="auto"
       refX="0"
       refY="0"
       style="overflow:visible"><path
         d="M 3,-3 -3,3 M 0,-5 V 5"
         style="stroke:#000000;stroke-width:0.5"
         id="path1" /></marker><pattern
       id="Hatch"
       patternUnits="userSpaceOnUse"
       width="8"
       height="8"
       x="0"
       y="0"><path
         d="M8 4 l-4,4"
         stroke="#000000"
         stroke-width="0.25"
         linecap="square"
         id="path2" /><path
         d="M6 2 l-4,4"
         stroke="#000000"
         stroke-width="0.25"
         linecap="square"
         id="path3" /><path
         d="M4 0 l-4,4"
         stroke="#000000"
         stroke-width="0.25"
         linecap="square"
         id="path4" /></pattern><symbol
       id="*Model_Space" /><symbol
       id="*Paper_Space" /><symbol
       id="*Paper_Space0" /><linearGradient
       inkscape:collect="always"
       xlink:href="#linearGradient66"
       id="linearGradient37"
       x1="434.38052"
       y1="34.757252"
       x2="434.38052"
       y2="111.64378"
       gradientUnits="userSpaceOnUse" /><linearGradient
       inkscape:collect="always"
       xlink:href="#linearGradient36"
       id="linearGradient58"
       gradientUnits="userSpaceOnUse"
       x1="434.38052"
       y1="34.757252"
       x2="434.38052"
       y2="111.64378" /><linearGradient
       inkscape:collect="always"
       xlink:href="#linearGradient36"
       id="linearGradient59"
       gradientUnits="userSpaceOnUse"
       x1="434.38052"
       y1="34.757252"
       x2="434.38052"
       y2="111.64378" /><linearGradient
       inkscape:collect="always"
       xlink:href="#linearGradient36"
       id="linearGradient60"
       gradientUnits="userSpaceOnUse"
       x1="434.38052"
       y1="34.757252"
       x2="434.38052"
       y2="111.64378" /><linearGradient
       inkscape:collect="always"
       xlink:href="#linearGradient36"
       id="linearGradient61"
       gradientUnits="userSpaceOnUse"
       x1="434.38052"
       y1="34.757252"
       x2="434.38052"
       y2="111.64378" /><linearGradient
       inkscape:collect="always"
       xlink:href="#linearGradient36"
       id="linearGradient62"
       gradientUnits="userSpaceOnUse"
       x1="434.38052"
       y1="34.757252"
       x2="434.38052"
       y2="111.64378" /><linearGradient
       inkscape:collect="always"
       xlink:href="#linearGradient36"
       id="linearGradient63"
       gradientUnits="userSpaceOnUse"
       x1="434.38052"
       y1="34.757252"
       x2="434.38052"
       y2="111.64378" /><linearGradient
       inkscape:collect="always"
       xlink:href="#linearGradient36"
       id="linearGradient64"
       gradientUnits="userSpaceOnUse"
       x1="434.38052"
       y1="34.757252"
       x2="434.38052"
       y2="111.64378" /></defs><g
     id="g44"
     inkscape:label="SystemSP_OutlineOuter"
     style="display:inline;fill:#ffffff;fill-opacity:1;stroke:#ffffff;stroke-width:24;stroke-linecap:round;stroke-linejoin:round;stroke-miterlimit:0;stroke-dasharray:none;stroke-opacity:1"
     transform="translate(13.499784,170.0682)"><path
       id="path57"
       style="-inkscape-font-specification:NiseSega;stroke:none;paint-order:fill markers stroke"
       d="m 38.923889,-13.499979 c -12.862288,0 -24.950141,5.5055702 -34.7322467,14.5763713 L 4.8515503,0.68933581 A 12.0012,12.0012 0 0 0 2.396403,2.5956794 12.0012,12.0012 0 0 0 0.53915205,5.0017341 L 1.1210287,4.0038622 C -8.2733922,14.161143 -13.499784,27.227648 -13.499784,41.085836 c 0,11.83806 3.7850644,23.086112 10.6851356,32.455384 A 12.0012,12.0012 0 0 0 -13.499784,84.996335 v 20.564115 0.79324 20.56412 A 12.0012,12.0012 0 0 0 -1.5,138.91811 h 57.722575 c 13.599755,0 26.418572,-6.02344 36.380725,-16.08998 10.30357,-10.31649 16.0414,-23.986068 16.0414,-38.494287 0,-11.843159 -3.83936,-23.086937 -10.816396,-32.40009 A 12.0012,12.0012 0 0 0 108.6447,40.423861 V 19.857675 19.064442 -1.5001946 A 12.0012,12.0012 0 0 0 96.644397,-13.499979 Z m 53.599313,59.255815 0.09973,0.09767 c -0.01417,-0.01433 -0.03078,-0.02495 -0.04496,-0.03927 -0.01911,-0.01893 -0.03564,-0.03948 -0.05478,-0.05839 z M 1.521521,78.755889 c 0.2894783,0.306455 0.5445456,0.636566 0.8418091,0.93741 L 1.808842,79.138811 Z"
       inkscape:label="S" /><path
       id="path55"
       style="-inkscape-font-specification:NiseSega;stroke:none;paint-order:fill markers stroke"
       d="M 97.593693,-13.499979 A 12.0012,12.0012 0 0 0 85.593909,-1.5001946 V 38.923695 c 0,12.811914 2.505227,24.466007 8.515242,34.14882 4.289437,6.91076 10.353749,12.384559 17.432009,16.312182 v 37.533113 a 12.0012,12.0012 0 0 0 11.99979,12.0003 h 21.62503 1.32034 18.97868 a 12.0012,12.0012 0 0 0 11.99979,-12.0003 V 89.384697 c 7.07833,-3.927533 13.14189,-9.401158 17.43149,-16.312182 6.00937,-9.681766 8.51783,-21.335802 8.51783,-34.14882 V -1.5001946 a 12.0012,12.0012 0 0 0 -12.0003,-11.9997844 h -19.50734 -0.79323 -21.62297 a 12.0012,12.0012 0 0 0 -4.98626,2.066541 12.0012,12.0012 0 0 0 -4.98833,-2.066541 h -21.62297 -0.79323 z"
       inkscape:label="Y" /><path
       id="path53"
       style="-inkscape-font-specification:NiseSega;stroke:none;paint-order:fill markers stroke"
       d="m 232.46505,-13.499979 c -12.79349,0 -24.8174,5.4565947 -34.57257,14.43942874 l 0.96893,-0.50952962 a 12.0012,12.0012 0 0 0 -2.92798,2.16782638 12.0012,12.0012 0 0 0 -1.97818,2.6230957 l 0.62891,-1.1311971 c -9.34469,10.1453399 -14.54485,23.1764319 -14.54485,36.9961909 0,11.837525 3.78772,23.084295 10.6872,32.453317 a 12.0012,12.0012 0 0 0 -10.6872,11.457182 v 20.564115 0.79324 20.56412 a 12.0012,12.0012 0 0 0 11.99978,12.0003 h 57.72258 c 13.60333,0 26.4252,-6.02641 36.38847,-16.09773 10.29922,-10.31568 16.0352,-23.981574 16.0352,-38.486537 0,-11.843157 -3.83935,-23.086935 -10.81639,-32.40009 A 12.0012,12.0012 0 0 0 302.18534,40.423861 V 19.857675 19.064442 -1.5001946 A 12.0012,12.0012 0 0 0 290.18556,-13.499979 Z m 53.59931,59.255815 0.0997,0.09767 c -0.0142,-0.01433 -0.0308,-0.02495 -0.045,-0.03927 -0.0191,-0.01893 -0.0357,-0.03948 -0.0548,-0.05839 z m -91.04871,32.94941 c 0.30469,0.323338 0.57344,0.670944 0.88677,0.988053 a 12.0012,12.0012 0 0 0 0.0801,0.07803 12.0012,12.0012 0 0 0 0.0253,0.02946 l -0.63459,-0.601514 z m 1.0139,1.117244 c 0.009,0.0089 0.0199,0.01433 0.0289,0.02325 a 12.0012,12.0012 0 0 0 0.11524,0.113172 z"
       inkscape:label="S" /><path
       id="path51"
       style="-inkscape-font-specification:NiseSega;stroke:none;paint-order:fill markers stroke"
       d="m 290.96897,-13.499979 a 12.0012,12.0012 0 0 0 -12.0003,11.9997844 v 21.6234866 0.792716 19.507853 a 12.0012,12.0012 0 0 0 12.0003,11.999785 h 18.2733 v 74.494164 a 12.0012,12.0012 0 0 0 11.99979,12.0003 h 21.62503 0.79324 19.50578 a 12.0012,12.0012 0 0 0 11.99979,-12.0003 V 52.423646 h 18.2733 A 12.0012,12.0012 0 0 0 405.4395,40.423861 V 20.916008 20.123292 -1.5001946 A 12.0012,12.0012 0 0 0 393.4392,-13.499979 Z"
       inkscape:label="T" /><path
       id="path49"
       style="-inkscape-font-specification:NiseSega;stroke:none;paint-order:fill markers stroke"
       d="m 434.86148,-13.499979 c -15.23829,0 -29.06323,4.0063708 -38.74027,13.68340254 C 386.44418,9.8604542 382.43729,23.68541 382.43729,38.923695 v 47.57229 c 0,15.238285 4.00775,29.060485 13.68392,38.736655 9.67704,9.67703 23.50198,13.68547 38.74027,13.68547 h 43.17152 8.72505 10.38852 0.52348 22.25549 a 12.0012,12.0012 0 0 0 11.38897,-8.21707 l 8.91005,-26.82007 9.84591,27.13064 a 12.0012,12.0012 0 0 0 11.2789,7.9065 h 4.16253 a 12.0012,12.0012 0 0 0 11.2789,-7.9065 l 9.84798,-27.13271 8.90798,26.82214 a 12.0012,12.0012 0 0 0 11.38897,8.21707 h 22.25394 4.23023 17.53692 a 12.0012,12.0012 0 0 0 11.30111,-16.0352 L 622.00199,10.117184 c -4.52465,-12.6743593 -15.89281,-21.73389 -29.25764,-23.316406 -10.94817,-1.296376 -21.71185,2.662445 -29.31294,10.3084146 -7.60058,-7.6462006 -18.36567,-11.6047926 -29.31397,-10.3084146 -13.36455,1.5825 -24.73317,10.6404919 -29.25817,23.316406 L 500.258,23.00787 V 20.916008 20.123292 -1.5001946 A 12.0012,12.0012 0 0 0 488.2577,-13.499979 Z m 55.15632,65.195504 -2.73265,7.652246 v -6.924125 h 0.97255 a 12.0012,12.0012 0 0 0 1.7601,-0.728121 z"
       inkscape:label="EM" /><path
       id="path47"
       style="-inkscape-font-specification:NiseSega;stroke:none;paint-order:fill markers stroke"
       d="m 704.09776,-13.499979 c -12.79172,0 -24.8119,5.454739 -34.56637,14.43529462 l 0.96273,-0.5053955 a 12.0012,12.0012 0 0 0 -2.92592,2.16782638 12.0012,12.0012 0 0 0 -1.98024,2.6230957 l 0.62477,-1.124996 c -9.3415,10.1445158 -14.53865,23.1729998 -14.53865,36.9899898 0,11.838059 3.78507,23.086111 10.68514,32.455384 a 12.0012,12.0012 0 0 0 -10.68514,11.455115 v 20.564115 0.79324 20.56412 a 12.0012,12.0012 0 0 0 11.99979,12.0003 h 57.72257 c 13.60334,0 26.4252,-6.02641 36.38848,-16.09773 10.29922,-10.31568 16.03365,-23.981574 16.03365,-38.486537 0,-11.843157 -3.83936,-23.086935 -10.8164,-32.40009 a 12.0012,12.0012 0 0 0 10.8164,-11.509892 V 19.857675 19.064442 -1.5001946 a 12.0012,12.0012 0 0 0 -12.0003,-11.9997844 z m 53.60138,59.255815 0.0977,0.09767 c -0.0116,-0.01168 -0.0256,-0.01934 -0.0372,-0.03101 -0.0214,-0.02124 -0.039,-0.04545 -0.0605,-0.06666 z m -91.05646,32.939591 c 0.30739,0.326358 0.57831,0.677858 0.89452,0.997872 a 12.0012,12.0012 0 0 0 0.0822,0.08217 12.0012,12.0012 0 0 0 0.031,0.03514 c 0.011,0.01089 0.024,0.01857 0.0351,0.02945 a 12.0012,12.0012 0 0 0 0.12092,0.118856 l -0.15606,-0.148311 -0.6444,-0.611333 z"
       inkscape:label="S" /><path
       id="path45"
       style="-inkscape-font-specification:NiseSega;stroke:none;paint-order:fill markers stroke"
       d="m 762.76188,-13.499979 a 12.0012,12.0012 0 0 0 -12.0003,11.9997844 v 19.5063026 0.792717 22.948987 0.793233 84.376765 a 12.0012,12.0012 0 0 0 12.0003,12.0003 h 21.62297 1.3224 18.9761 a 12.0012,12.0012 0 0 0 12.0003,-12.0003 V 95.670102 h 8.12509 c 13.56979,0 26.37994,-5.940873 36.35902,-15.919959 10.33823,-10.338231 16.06258,-24.076126 16.06258,-38.664307 0,-14.504969 -5.73317,-28.171975 -16.03313,-38.4880895 -9.96337,-10.0710827 -22.78513,-16.0977255 -36.38847,-16.0977255 z"
       inkscape:label="P" /></g><g
     id="g21"
     inkscape:label="SystemSP_OutlineInner"
     style="display:inline;fill:#000000;fill-opacity:1;stroke:#000000;stroke-width:5;stroke-dasharray:none"
     transform="translate(13.499784,170.0682)"><path
       id="path22"
       style="-inkscape-font-specification:NiseSega;display:inline;fill:#000000;fill-opacity:1;stroke:#000000;stroke-width:3;stroke-linecap:square;stroke-miterlimit:8;stroke-dasharray:none;stroke-opacity:1;paint-order:fill markers stroke"
       d="m 38.923722,-1.5001668 c -10.306694,0 -19.729803,4.2594298 -28.019478,12.5491048 l -0.0021,0.0036 -0.0036,0.0021 C 2.6770418,19.375188 -1.5001828,29.48676 -1.5001828,41.08588 c 0,11.692216 4.1750921,21.851162 12.3987268,30.173869 l 0.0057,0.0057 0.0062,0.0083 c 8.290954,8.192258 17.711437,12.396142 28.013277,12.396142 h 12.972852 c 1.316591,0 2.210979,0.201412 2.574003,0.382923 0.363025,0.181512 0.252181,0.06033 0.252181,0.281119 0,0.220798 0.110843,0.09806 -0.252181,0.27957 -0.363024,0.181513 -1.257413,0.382922 -2.574003,0.382922 H -1.5001668 v 20.564635 0.7922 20.56515 H 56.222408 c 10.303707,0 19.68008,-4.26027 27.873234,-12.5491 8.319138,-8.31939 12.549105,-18.431982 12.549105,-30.035377 0,-11.696452 -4.229073,-21.81601 -12.554789,-30.04261 C 75.898239,46.006598 66.523576,41.747839 56.222408,41.747839 H 43.248006 c -1.316593,0 -2.209427,-0.200892 -2.572453,-0.382405 -0.363026,-0.181513 -0.251664,-0.05877 -0.251664,-0.27957 0,-0.220796 -0.111362,-0.09961 0.251664,-0.28112 0.363026,-0.181512 1.25586,-0.380855 2.572453,-0.380855 H 96.644747 V 19.857186 19.064469 -1.5001668 Z"
       inkscape:label="S" /><path
       id="path24"
       style="-inkscape-font-specification:NiseSega;fill:#000000;fill-opacity:1;stroke:#000000;stroke-width:3;stroke-linecap:square;stroke-miterlimit:8;stroke-dasharray:none;stroke-opacity:1;paint-order:fill markers stroke"
       d="M 97.593526,-1.5001668 V 38.923722 c 0,11.247856 2.199037,20.550898 6.711214,27.820524 4.32846,6.973631 10.84104,11.954432 19.23604,14.978414 v 45.19517 h 21.62504 1.31981 18.97921 V 81.72266 c 8.395,-3.023982 14.90809,-8.004783 19.23655,-14.978414 4.51218,-7.269626 6.71277,-16.572668 6.71277,-27.820524 V -1.5001668 H 171.90579 171.11307 149.4901 V 38.923722 c 0,1.191593 -0.2751,1.814535 -0.64234,2.181779 -0.36725,0.367243 -0.99019,0.642338 -2.18178,0.642338 h -4.32635 c -1.19159,0 -1.81401,-0.275095 -2.18126,-0.642338 -0.36724,-0.367244 -0.64285,-0.990186 -0.64285,-2.181779 V -1.5001668 h -21.62297 -0.7922 z"
       inkscape:label="Y" /><path
       id="path36"
       style="-inkscape-font-specification:NiseSega;display:inline;fill:#000000;fill-opacity:1;stroke:#000000;stroke-width:3;stroke-linecap:square;stroke-miterlimit:8;stroke-dasharray:none;stroke-opacity:1;paint-order:fill markers stroke"
       d="m 232.46389,-1.5001668 c -10.3067,0 -19.7298,4.2594298 -28.01948,12.5491048 l -0.002,0.0036 -0.004,0.0021 C 196.21722,19.375172 192.04,29.486744 192.04,41.085864 c 0,11.692216 4.17509,21.851162 12.39873,30.173869 l 0.006,0.0057 0.006,0.0083 c 8.29096,8.192258 17.71144,12.396142 28.01328,12.396142 h 12.97285 c 1.31659,0 2.21098,0.201412 2.574,0.382923 0.36303,0.181512 0.25218,0.06033 0.25218,0.281119 0,0.220798 0.11085,0.09806 -0.25218,0.27957 -0.36302,0.181513 -1.25741,0.382922 -2.574,0.382922 H 192.04 v 20.564641 0.7922 20.56515 h 57.72257 c 10.30371,0 19.68008,-4.26027 27.87324,-12.5491 8.31914,-8.31939 12.5491,-18.431988 12.5491,-30.035383 0,-11.696452 -4.22907,-21.81601 -12.55479,-30.04261 -8.19171,-8.284662 -17.56638,-12.543421 -27.86755,-12.543421 h -12.9744 c -1.31659,0 -2.20942,-0.200892 -2.57245,-0.382405 -0.36303,-0.181513 -0.25166,-0.05877 -0.25166,-0.27957 0,-0.220796 -0.11137,-0.09961 0.25166,-0.28112 0.36303,-0.181512 1.25586,-0.380855 2.57245,-0.380855 h 53.39674 V 19.857186 19.064469 -1.5001668 Z"
       inkscape:label="S" /><path
       id="path28"
       style="-inkscape-font-specification:NiseSega;fill:#000000;fill-opacity:1;stroke:#000000;stroke-width:3;stroke-linecap:square;stroke-miterlimit:8;stroke-dasharray:none;stroke-opacity:1;paint-order:fill markers stroke"
       d="m 290.9688,-1.5001668 v 21.6229698 0.792716 19.50837 h 30.27361 v 86.493941 h 21.62503 0.7922 19.50631 V 40.423889 h 30.2736 V 20.915519 20.122803 -1.5001668 Z"
       inkscape:label="T" /><path
       id="path30"
       style="-inkscape-font-specification:NiseSega;fill:#000000;fill-opacity:1;stroke:#000000;stroke-width:3;stroke-linecap:square;stroke-miterlimit:8;stroke-dasharray:none;stroke-opacity:1;paint-order:fill markers stroke"
       d="m 434.86131,-1.5001668 c -13.22433,0 -23.4132,3.3291517 -30.25397,10.1699218 -6.84077,6.84077 -10.16992,17.029636 -10.16992,30.253967 v 47.57229 c 0,13.224331 3.32915,23.411128 10.16992,30.251898 6.84077,6.84077 17.02964,10.16992 30.25397,10.16992 h 43.17204 8.72454 10.38903 0.52296 22.25601 l 19.79879,-59.597391 21.62504,59.597391 h 4.16202 l 21.62865,-59.597391 19.79517,59.597391 h 22.25394 4.23127 17.5364 L 610.70122,14.152108 C 607.70134,5.7489098 600.19466,-0.23393632 591.33393,-1.2831258 582.47327,-2.3323198 573.77428,1.7308235 568.89447,9.2009888 L 563.43176,17.56637 557.96698,9.2009888 C 553.08741,1.7308261 544.38973,-2.3323085 535.52907,-1.2831258 526.66836,-0.23392701 519.16,5.7488222 516.16023,14.152108 L 488.25805,92.314262 V 84.995846 H 439.1856 c -1.19159,0 -1.81453,-0.275086 -2.18178,-0.642339 -0.16025,-0.16025 -0.29065,-0.399815 -0.4005,-0.683679 H 475.2852 V 62.046859 60.725492 41.747839 h -38.68188 c 0.10985,-0.283864 0.24025,-0.522912 0.4005,-0.683162 0.36725,-0.367252 0.99019,-0.640788 2.18178,-0.640788 h 49.07245 V 20.915519 20.122803 -1.5001668 Z"
       sodipodi:nodetypes="ssssssccccccccccccccscccscccssccccccssccccs"
       inkscape:label="EM" /><path
       id="path35"
       style="-inkscape-font-specification:NiseSega;display:inline;fill:#000000;fill-opacity:1;stroke:#000000;stroke-width:3;stroke-linecap:square;stroke-miterlimit:8;stroke-dasharray:none;stroke-opacity:1;paint-order:fill markers stroke"
       d="m 704.09789,-1.5001668 c -10.3067,0 -19.7298,4.2594298 -28.01948,12.5491048 l -0.002,0.0036 -0.004,0.0021 c -8.22151,8.32055 -12.39873,18.432122 -12.39873,30.031242 0,11.692216 4.17509,21.851162 12.39873,30.173869 l 0.006,0.0057 0.006,0.0083 c 8.29096,8.192258 17.71144,12.396142 28.01328,12.396142 h 12.97285 c 1.31659,0 2.21098,0.201412 2.574,0.382923 0.36303,0.181512 0.25218,0.06033 0.25218,0.281119 0,0.220798 0.11085,0.09806 -0.25218,0.27957 -0.36302,0.181513 -1.25741,0.382922 -2.574,0.382922 H 663.674 v 20.564635 0.7922 20.56515 h 57.72257 c 10.30371,0 19.68008,-4.26027 27.87324,-12.5491 8.31914,-8.31939 12.5491,-18.431982 12.5491,-30.035377 0,-11.696452 -4.22907,-21.81601 -12.55479,-30.04261 -8.19171,-8.284662 -17.56638,-12.543421 -27.86755,-12.543421 h -12.9744 c -1.31659,0 -2.20942,-0.200892 -2.57245,-0.382405 -0.36303,-0.181513 -0.25166,-0.05877 -0.25166,-0.27957 0,-0.220796 -0.11137,-0.09961 0.25166,-0.28112 0.36303,-0.181512 1.25586,-0.380855 2.57245,-0.380855 h 53.39674 V 19.857186 19.064469 -1.5001668 Z"
       inkscape:label="S" /><path
       id="path34"
       style="-inkscape-font-specification:NiseSega;fill:#000000;fill-opacity:1;stroke:#000000;stroke-width:3;stroke-linecap:square;stroke-miterlimit:8;stroke-dasharray:none;stroke-opacity:1;paint-order:fill markers stroke"
       d="m 762.76171,-1.5001668 v 19.5063028 0.792717 22.948986 0.792717 84.377274 h 21.62349 1.32136 18.97714 V 83.669828 h 20.12539 c 10.30185,0 19.67653,-4.208224 27.87271,-12.404411 8.32124,-8.321242 12.54911,-18.4831 12.54911,-30.179553 0,-11.603394 -4.22997,-21.717788 -12.54911,-30.036926 -8.19343,-8.2888298 -17.56952,-12.5491048 -27.87323,-12.5491048 z"
       sodipodi:nodetypes="ccccccccccssscsc"
       inkscape:label="P" /></g><g
     id="g15"
     inkscape:label="SystemSP"
     style="display:inline;fill:url(#linearGradient37);stroke:none;stroke-width:1;stroke-linecap:square;stroke-linejoin:miter;stroke-dasharray:none;stroke-opacity:1"
     transform="translate(13.499784,170.0682)"><path
       d="M 0,41.08537 Q 0,24.21874 11.96522,12.10937 24.07459,0 38.92298,0 h 56.22208 v 17.2991 h -51.8973 q -11.96521,0 -19.02901,7.0638 -6.91964,7.0638 -6.91964,16.72247 0,9.80282 6.91964,16.86662 7.0638,6.91964 19.02901,6.91964 h 8.64955 q 10.2353,0 15.85751,5.76637 5.76637,5.62221 5.76637,13.69512 0,7.92876 -5.76637,13.69513 -5.62221,5.76636 -15.85751,5.76636 H 0 v -17.2991 h 51.89731 q 4.32477,0 4.32477,-2.16239 0,-2.16238 -4.32477,-2.16238 H 38.92298 q -14.84839,0 -26.95776,-11.96522 Q 0,58.09615 0,41.08537 Z m 21.62388,0 q 0,-7.92876 5.62221,-13.69512 5.76637,-5.76637 16.00167,-5.76637 h 51.8973 v 17.2991 h -51.8973 q -4.32478,0 -4.32478,2.16239 0,2.16239 4.32478,2.16239 h 12.97432 q 14.8484,0 26.81361,12.10937 12.10937,11.96521 12.10937,28.97599 0,16.86663 -12.10937,28.976 -11.96521,12.10937 -26.81361,12.10937 H 0 v -17.2991 h 51.89731 q 11.96521,0 18.88485,-7.0638 7.0638,-7.0638 7.0638,-16.72247 0,-9.80282 -7.0638,-16.72246 -6.91964,-7.0638 -18.88485,-7.0638 h -8.64955 q -10.2353,0 -16.00167,-5.62221 -5.62221,-5.76637 -5.62221,-13.83928 z"
       id="text1"
       style="font-size:147.619px;line-height:0;font-family:NiseSega;-inkscape-font-specification:NiseSega;letter-spacing:0px;word-spacing:0px;fill:url(#linearGradient58);stroke:none;stroke-width:1;stroke-linecap:square;stroke-linejoin:miter;stroke-miterlimit:8;stroke-dasharray:none;stroke-opacity:1;paint-order:fill markers stroke"
       inkscape:label="S"
       aria-label="S" /><path
       d="M 172.61404,38.92298 V 0 h 17.2991 v 38.92298 q 0,33.15661 -25.94865,41.80616 v 44.68935 H 146.66538 V 64.87163 h 4.32478 q 21.62388,0 21.62388,-25.94865 z m -73.52119,0 V 0 h 17.29911 v 38.92298 q 0,25.94865 21.62387,25.94865 h 4.32478 v 60.54686 h -17.2991 V 80.72914 Q 99.09285,72.07959 99.09285,38.92298 Z m 69.19641,0 q 0,21.62388 -17.2991,21.62388 h -12.97433 q -17.2991,0 -17.2991,-21.62388 V 0 h 17.2991 v 38.92298 q 0,4.32478 4.32478,4.32478 h 4.32477 q 4.32478,0 4.32478,-4.32478 V 0 h 17.2991 z"
       id="text1-8"
       style="font-size:147.619px;line-height:0;font-family:NiseSega;-inkscape-font-specification:NiseSega;letter-spacing:0px;word-spacing:0px;fill:url(#linearGradient59);stroke:none;stroke-width:1;stroke-linecap:square;stroke-linejoin:miter;stroke-miterlimit:8;stroke-dasharray:none;stroke-opacity:1;paint-order:fill markers stroke"
       inkscape:label="Y"
       aria-label="Y" /><path
       d="m 193.54079,41.08537 q 0,-16.86663 11.96521,-28.976 Q 217.61537,0 232.46377,0 h 56.22208 v 17.2991 h -51.8973 q -11.96522,0 -19.02902,7.0638 -6.91964,7.0638 -6.91964,16.72247 0,9.80282 6.91964,16.86662 7.0638,6.91964 19.02902,6.91964 h 8.64955 q 10.2353,0 15.85751,5.76637 5.76636,5.62221 5.76636,13.69512 0,7.92876 -5.76636,13.69513 -5.62221,5.76636 -15.85751,5.76636 h -51.89731 v -17.2991 h 51.89731 q 4.32477,0 4.32477,-2.16239 0,-2.16238 -4.32477,-2.16238 h -12.97433 q -14.8484,0 -26.95777,-11.96522 -11.96521,-12.10937 -11.96521,-29.12015 z m 21.62388,0 q 0,-7.92876 5.62221,-13.69512 5.76636,-5.76637 16.00167,-5.76637 h 51.8973 v 17.2991 h -51.8973 q -4.32478,0 -4.32478,2.16239 0,2.16239 4.32478,2.16239 h 12.97432 q 14.8484,0 26.81361,12.10937 12.10937,11.96521 12.10937,28.97599 0,16.86663 -12.10937,28.976 -11.96521,12.10937 -26.81361,12.10937 h -56.22208 v -17.2991 h 51.89731 q 11.96521,0 18.88485,-7.0638 7.0638,-7.0638 7.0638,-16.72247 0,-9.80282 -7.0638,-16.72246 -6.91964,-7.0638 -18.88485,-7.0638 h -8.64955 q -10.23531,0 -16.00167,-5.62221 -5.62221,-5.76637 -5.62221,-13.83928 z"
       id="text1-5"
       style="font-size:147.619px;line-height:0;font-family:NiseSega;-inkscape-font-specification:NiseSega;letter-spacing:0px;word-spacing:0px;fill:url(#linearGradient60);stroke:none;stroke-width:1;stroke-linecap:square;stroke-linejoin:miter;stroke-miterlimit:8;stroke-dasharray:none;stroke-opacity:1;paint-order:fill markers stroke"
       inkscape:label="S"
       aria-label="S" /><path
       d="m 292.46965,0 v 17.2991 h 99.46983 V 0 Z m 0,21.62388 v 17.2991 h 30.27342 v 86.49551 h 17.29911 V 21.62388 Z m 51.8973,103.79461 h 17.2991 V 38.92298 h 30.27343 v -17.2991 h -47.57253 z"
       id="text1-2"
       style="font-size:147.619px;line-height:0;font-family:NiseSega;-inkscape-font-specification:NiseSega;letter-spacing:0px;word-spacing:0px;fill:url(#linearGradient61);stroke:none;stroke-width:1;stroke-linecap:square;stroke-linejoin:miter;stroke-miterlimit:8;stroke-dasharray:none;stroke-opacity:1;paint-order:fill markers stroke"
       inkscape:label="T"
       aria-label="T" /><path
       id="text1-6"
       style="font-size:147.619px;line-height:0;font-family:NiseSega;-inkscape-font-specification:NiseSega;letter-spacing:0px;word-spacing:0px;fill:url(#linearGradient62);stroke:none;stroke-width:1;stroke-linecap:square;stroke-linejoin:miter;stroke-miterlimit:8;stroke-dasharray:none;stroke-opacity:1;paint-order:fill markers stroke"
       inkscape:label="EM"
       d="m 434.86131,0 c -25.94865,0 -38.9232,12.974552 -38.9232,38.923206 v 47.57229 c 0,25.948654 12.97455,38.923204 38.9232,38.923204 h 43.17204 8.72505 9.85366 l 36.9254,-103.435546 c 0.92364,-2.58747 3.37423,-4.314982 6.12159,-4.314982 2.74733,0 5.19796,1.727512 6.12159,4.314982 l 17.6506,49.439877 17.6475,-49.439877 c 0.92361,-2.58747 3.37423,-4.314982 6.12159,-4.314982 2.74732,0 5.19796,1.727542 6.12159,4.314982 l 36.9254,103.435546 h 18.58181 L 609.28942,14.656986 C 606.48,6.7873165 599.45478,1.1882422 591.15668,0.2056722 c -8.2981,-0.98258 -16.43646,2.8205351 -21.00647,9.8164548 l -6.71845,10.288778 -6.72052,-10.288778 c -4.56978,-6.9959097 -12.70785,-10.7990248 -21.00595,-9.8164548 -8.2981,0.98258 -15.32397,6.5816443 -18.13326,14.4513138 L 486.7584,100.97678 V 86.495496 h -47.57229 c -2.88318,0 -4.3248,-1.441621 -4.3248,-4.324801 h 38.92321 V 64.871493 h -56.22241 v 21.624003 c 0,11.532733 5.76647,17.299204 17.2992,17.299204 h 50.89095 l -1.54357,4.3248 h -49.34738 c -14.41592,0 -21.624,-7.20808 -21.624,-21.624004 v -47.57229 c 0,-14.41592 7.20808,-21.624004 21.624,-21.624004 H 486.7584 V 0 Z m 0,21.624003 c -11.53273,0 -17.2992,5.766469 -17.2992,17.299203 v 21.623486 h 56.22241 V 43.248006 h -38.92321 c 0,-2.883186 1.44162,-4.3248 4.3248,-4.3248 H 486.7584 V 21.624003 Z m 104.79929,0.04444 c -0.97965,0 -1.95918,0.553 -2.35386,1.65933 L 500.86348,125.4187 H 518.8443 L 539.66215,62.750692 562.4003,125.4187 h 2.06085 L 587.2024,62.750692 608.01715,125.4187 h 17.9834 L 589.55626,23.327775 c -0.79044,-2.21266 -3.91967,-2.21266 -4.70927,0 L 563.43228,83.320496 542.01446,23.327775 c -0.39467,-1.10633 -1.37421,-1.65933 -2.35386,-1.65933 z" /><path
       d="m 665.17453,41.08537 q 0,-16.86663 11.96522,-28.976 Q 689.24912,0 704.09751,0 h 56.22208 v 17.2991 h -51.8973 q -11.96521,0 -19.02901,7.0638 -6.91964,7.0638 -6.91964,16.72247 0,9.80282 6.91964,16.86662 7.0638,6.91964 19.02901,6.91964 h 8.64955 q 10.2353,0 15.85751,5.76637 5.76637,5.62221 5.76637,13.69512 0,7.92876 -5.76637,13.69513 -5.62221,5.76636 -15.85751,5.76636 h -51.89731 v -17.2991 h 51.89731 q 4.32477,0 4.32477,-2.16239 0,-2.16238 -4.32477,-2.16238 h -12.97433 q -14.84839,0 -26.95776,-11.96522 -11.96522,-12.10937 -11.96522,-29.12015 z m 21.62388,0 q 0,-7.92876 5.62221,-13.69512 5.76637,-5.76637 16.00167,-5.76637 h 51.8973 v 17.2991 h -51.8973 q -4.32478,0 -4.32478,2.16239 0,2.16239 4.32478,2.16239 h 12.97432 q 14.8484,0 26.81361,12.10937 12.10937,11.96521 12.10937,28.97599 0,16.86663 -12.10937,28.976 -11.96521,12.10937 -26.81361,12.10937 h -56.22208 v -17.2991 h 51.89731 q 11.96521,0 18.88485,-7.0638 7.0638,-7.0638 7.0638,-16.72247 0,-9.80282 -7.0638,-16.72246 -6.91964,-7.0638 -18.88485,-7.0638 h -8.64955 q -10.2353,0 -16.00167,-5.62221 -5.62221,-5.76637 -5.62221,-13.83928 z"
       id="text1-52"
       style="font-size:147.619px;line-height:0;font-family:NiseSega;-inkscape-font-specification:NiseSega;letter-spacing:0px;word-spacing:0px;fill:url(#linearGradient63);stroke:none;stroke-width:1;stroke-linecap:square;stroke-linejoin:miter;stroke-miterlimit:8;stroke-dasharray:none;stroke-opacity:1;paint-order:fill markers stroke"
       inkscape:label="S"
       aria-label="S" /><path
       d="m 863.73122,41.08537 q 0,17.01078 -12.10937,29.12015 -11.96521,11.96522 -26.81361,11.96522 h -21.62387 v 43.24775 H 785.88526 V 64.87163 h 38.92298 q 7.64044,0 14.56008,-6.91964 7.0638,-7.0638 7.0638,-16.86662 0,-9.65867 -7.0638,-16.72247 -6.91964,-7.0638 -14.56008,-7.0638 H 764.26139 V 0 h 60.54685 q 14.8484,0 26.81361,12.10937 12.10937,12.10937 12.10937,28.976 z m -21.62387,0 q 0,8.07291 -5.76637,13.83928 -5.62221,5.62221 -11.53274,5.62221 h -43.24775 v 64.87163 h -17.2991 V 43.24776 h 56.22208 q 4.32477,0 4.32477,-2.16239 0,-2.16239 -4.32477,-2.16239 h -56.22208 v -17.2991 h 60.54685 q 5.91053,0 11.53274,5.76637 5.76637,5.76636 5.76637,13.69512 z"
       id="text1-89"
       style="font-size:147.619px;line-height:0;font-family:NiseSega;-inkscape-font-specification:NiseSega;letter-spacing:0px;word-spacing:0px;fill:url(#linearGradient64);stroke:none;stroke-width:1;stroke-linecap:square;stroke-linejoin:miter;stroke-miterlimit:8;stroke-dasharray:none;stroke-opacity:1;paint-order:fill markers stroke"
       inkscape:label="P"
       aria-label="P" /></g><g
     id="g5"
     transform="matrix(6.527569,0,0,6.527569,3506.0448,-1032.7974)"
     inkscape:label="Sega"
     style="display:inline"><g
       id="g30"
       style="display:inline"
       transform="matrix(0.03162901,0,0,0.03162901,-529.59534,158.22083)"
       inkscape:label="SEGA_Outline"><path
         class="st0"
         d="M 2760,123.3 C 2737.4,51.4 2669.4,0 2591.4,0 2513.3,0 2445.5,51.4 2422.8,123.3 l -59.6,176.8 V 10.2 h -312.3 c -55.5,0 -106.8,22.6 -145.9,59.6 V 10.2 h -320.6 c -59.6,0 -113,24.7 -152.1,65.8 V 10.2 h -304.1 c -129.5,0 -236.3,106.8 -236.3,236.3 0,61.7 24.7,119.2 63.7,160.4 H 891.9 V 682.3 H 1196 c 86.2,0 160.3,-45.3 203.4,-115.1 35,67.7 104.8,115.1 187,115.1 h 322.7 v -59.6 c 37,37 88.3,59.6 145.9,59.6 h 892 z"
         id="path20-4"
         style="display:inline;fill:#ffffff"
         inkscape:label="SEGA_Outline" /></g><g
       id="g2"
       transform="matrix(0.03162901,0,0,0.03162901,-489.47556,186.14558)"
       style="display:inline"
       inkscape:label="SEGA"><path
         id="path21-5"
         style="display:inline;fill:#034693"
         class="st1"
         d="m 1320.9519,-835.58323 c -59.5,0 -108.9008,39 -123.3008,92.5 l -149.9004,439.79884 V -625.98362 H 821.65106 v 80.09961 h 148 v 217.80079 h -185 c -45.3,0 -80.0996,-37.00157 -80.0996,-80.10157 v -256.89844 c 0,-45.3 36.9996,-80.10156 80.0996,-80.10156 h 265.09964 v -80 H 782.55146 c -88.3,0 -160.3008,72.00078 -160.3008,160.30078 v 256.9004 c 0,88.3 72.0008,160.29883 160.3008,160.29883 h 330.80084 l 166.5,-482.89845 c 6.2,-18.5 22.5992,-30.80078 43.1992,-30.80078 20.6,0 36.9993,12.30078 43.1993,30.80078 l 135.7011,402.79884 h -213.7011 v 79.90039 h 324.7011 l -166.7011,-493.19923 c -16.4,-53.4 -65.7989,-94.5 -125.2989,-94.5 z m -1461.20124,10.29883 c -104.8,0 -188.99997,84.3 -188.99997,189 0,104.7 84.29997,189 188.99997,189 h 65.800796 c 6.2,0 10.1992,4.10118 10.1992,10.20118 0.1,6.2 -4.0988,10.39843 -8.2988,10.39843 H -329.24931 v 80.10157 h 256.800766 c 49.2,0 90.4004,-41.20039 90.4004,-90.40039 0,-49.2 -41.2004,-90.4004 -90.4004,-90.4004 h -65.800796 c -59.6,0 -108.8984,-49.20039 -108.8984,-108.90039 0,-59.7 49.2984,-108.90039 108.8984,-108.90039 h 254.9004 v -80.09961 z m 456.3008,0 c -88.3,0 -160.3008,72.00078 -160.3008,160.30078 v 256.9004 c 0,88.3 72.0008,160.29883 160.3008,160.29883 h 275.3008 V -327.884 h -275.3008 c -45.3,0 -80.0996,-36.99961 -80.0996,-80.09961 v -257.00001 c 0,-45.3 36.9996,-80.09961 80.0996,-80.09961 h 275.3008 v -80.20117 z m 1006.80084,82.09961 c -10.2,0 -20.6012,8.30039 -24.7012,16.40039 l -164.4004,478.9004 h 94.5001 l 57.6015,-170.5 v 72 l 2.0996,-0.0996 h 187 l -127.4004,-378.20119 c -4.1,-10.2 -12.2992,-18.5 -24.6992,-18.5 z m -1463.10164,16.5 c -49.2,0 -90.3984,41.20039 -90.3984,90.40039 0,49.2 41.1984,90.40039 90.3984,90.40039 h 65.800796 c 59.6,0 108.9004,49.2004 108.9004,108.9004 0,59.7 -49.2004,108.90039 -108.9004,108.90039 H -329.24931 v 80.09961 h 256.800766 c 104.8,0 189.000004,-84.3 189.000004,-189 0,-104.7 -84.300004,-189.00001 -189.000004,-189.00001 h -65.800796 c -6.2,0 -10.1992,-4.10117 -10.1992,-10.20117 -0.1,-4.2 4.0992,-8.29883 8.1992,-8.29883 h 256.9004 v -82.20117 z m 456.2012,0 c -35,0 -61.7012,26.80117 -61.7012,61.70117 v 119.19922 h 279.5 v -80.19922 h -199.1992 c 0,-10.2 8.3,-18.5 18.5,-18.5 h 236.3008 v -82.20117 z m 466.5,0 c -35,0 -61.7012,26.80117 -61.7012,61.70117 v 256.9004 c 0,35 26.8012,61.69922 61.7012,61.69922 h 166.5 v -181.00001 h -127.4004 v 80.09961 h 47.3008 v 18.50001 h -47.3008 c -10.2,0 -18.5,-8.30001 -18.5,-18.50001 v -180.69922 c 0,-10.2 8.3,-18.5 18.5,-18.5 h 228.09964 v -80.09961 z m -528.0996,201.40039 v 119.20118 c 0,35 26.7992,61.69922 61.6992,61.69922 h 275.3008 v -80.19922 h -238.4004 c -10.3,-2.1 -18.4004,-10.30157 -18.4004,-20.60157 h 199.3008 v -80.09961 z m 1066.59964,6.20118 26.7989,82.19922 h -55.5 z"
         inkscape:label="SEGA" /></g></g></svg>
