<svg height="154.343" viewBox="0 0 399.607 30.869" width="1998.034" xmlns="http://www.w3.org/2000/svg">
    <g fill="#646464" stroke-width="2.5">
        <path d="M268.024 16.136q0 7.498-3.508 11.137-3.465 3.596-10.963 3.596-8.245 0-12.016-3.552-3.903-3.683-3.903-11.927 0-7.585 3.508-11.4Q244.826 0 252.325 0q8.42 0 12.06 3.815 3.64 3.814 3.64 12.32zm-14.998 8.068q3.86 0 5.877-2.631 1.842-2.412 1.842-6.402 0-4.121-1.93-6.358-2.061-2.411-6.14-2.411-3.815 0-5.744 2.543-1.71 2.236-1.71 6.182 0 4.21 1.71 6.49 1.973 2.587 6.095 2.587zM233.975 16.253q0 7.43-3.502 11.036-3.459 3.562-10.946 3.562-8.23 0-11.996-3.519-3.897-3.65-3.897-11.817 0-7.517 3.503-11.297Q210.815.265 218.3.265q8.407 0 12.04 3.78 3.634 3.78 3.634 12.208zm-14.973 7.994q3.853 0 5.867-2.606 1.839-2.39 1.839-6.344 0-4.084-1.927-6.3-2.058-2.39-6.13-2.39-3.808 0-5.735 2.52-1.707 2.217-1.707 6.127 0 4.17 1.707 6.43 1.97 2.563 6.086 2.563zM200.107 16.272q0 7.4-3.517 10.993-3.474 3.55-10.994 3.55-8.266 0-12.048-3.507-3.914-3.635-3.914-11.772 0-7.487 3.518-11.253Q176.846.345 184.365.345q8.443 0 12.093 3.765 3.65 3.766 3.65 12.162zm-15.038 7.964q3.87 0 5.892-2.597 1.847-2.38 1.847-6.32 0-4.068-1.935-6.275-2.067-2.38-6.156-2.38-3.826 0-5.76 2.51-1.715 2.207-1.715 6.103 0 4.154 1.715 6.405 1.978 2.554 6.112 2.554zM165.523 30.856h-7.676V6.703h-6.473L155.258.28h10.265zM125.754.198l6.749 9.636 6.212-9.636h8.76l-11.218 17.037v13.621h-7.464V17.323L117.217.198zM116.079 15.659q0 2.759-.488 5.168-.488 2.365-1.685 4.423-2.04 3.417-5.189 4.643-2.483.963-7.05.963H86.81V.198L97.498.111q1.109 0 3.68.087 2.573.088 2.75.088 6.386 0 9.49 4.599 2.66 3.941 2.66 10.774zM98.562 6.943h-4.345v17.388l4.168.043q5.233 0 7.361-1.62 2.484-1.883 2.484-7.008 0-5.124-2.306-7.051-2.085-1.752-7.362-1.752zM76.459 25.688V.198h6.754v30.658H71.59L62.818 6.067v24.79h-6.754V.197H67.16zM27.24.198l-3.426 6.044h-7.19v24.614H9.56V6.242H0V.198zM53.92 30.856h-7.719l-2.105-5.562h-7.062l-3.552-6.044-4.474 11.606H21.07L32.43.198h10.307zM41.904 18.725 37.78 7.162l-4.167 11.563zM341.238 24.349l-1.318-.023q-1.308 0-1.86.404-.665.481-.665 1.747 0 1.008.36 1.612.44.75 1.353.75.18.023.519.034h.54l1.736-.022v1.635l-2.186.023q-.338 0-.676-.012l-.677-.022q-1.544 0-2.265-1.21-.597-.996-.597-2.676 0-1.927.811-2.89.88-1.053 2.773-1.053h3.088zM350.592 26.678q0 1.915-.834 2.867-.89 1.02-2.772 1.02-1.273 0-2.062-.224-.654-.18-1.071-.55-.575-.503-.868-1.5-.248-.851-.248-1.77 0-1.948.947-2.945.947-.997 2.874-.997 2.107 0 3.065.997.97.986.97 3.102zm-3.91 2.162q.969 0 1.499-.639.496-.593.496-1.568 0-1.108-.474-1.69-.518-.639-1.623-.639-1.003 0-1.487.65-.429.57-.429 1.601 0 1.03.474 1.624.53.66 1.544.66zM354.672 22.646l1.465 6.295 1.477-6.295h3.065v7.84h-1.735v-6.35l-1.533 6.35h-2.604l-1.442-6.54v6.54h-1.736v-7.84zM363.576 30.486h-1.883v-7.84h4.452q2.536 0 2.536 2.576 0 1.4-.778 2.016-.698.56-2.141.56l-1.003-.01-1.183-1.423zm3.133-5.342q0-.504-.451-.694-.304-.124-.947-.124h-.417l-1.318.012v1.78l1.78.012q.676 0 .958-.157.395-.213.395-.83zM371.521 22.646l-.023 3.136q0 .157-.01.504-.012.336-.012.504 0 1.03.26 1.49.371.66 1.374.66.936 0 1.296-.649.27-.493.27-1.5v-4.145h1.894v4.491q0 1.87-.823 2.644-.811.761-2.716.761-1.656 0-2.434-.56-.676-.493-.868-1.59-.113-.65-.113-2.464l.023-3.282zM384.707 22.646l-.913 1.546h-1.916v6.294h-1.882v-6.294h-2.547v-1.546zM391.232 22.646l-.845 1.546h-3.2v1.747h3.865v1.534h-3.866v1.468h3.866v1.545h-5.759v-7.84zM399.054 25.256q0 1.075-.53 1.702-.518.616-1.566.616l1.96 2.912h-2.186l-2.806-4.244v4.244h-1.893v-7.84h4.462q1.297 0 1.928.661.63.65.63 1.949zm-3.776-1.086-1.352.022v1.826h1.882q.766 0 1.026-.224.259-.236.259-.661 0-.47-.293-.717-.282-.246-1.15-.246zM273.757 30.486h-1.884v-7.84h4.457q2.538 0 2.538 2.576 0 1.4-.779 2.016-.699.56-2.143.56l-1.004-.01-1.185-1.423zm3.137-5.342q0-.504-.452-.694-.304-.124-.947-.124h-.418l-1.32.012v1.78l1.783.012q.677 0 .959-.157.395-.213.395-.83zM285.704 22.646l-.846 1.546h-3.204v1.747h3.87v1.534h-3.87v1.468h3.87v1.545h-5.765v-7.84zM293.534 25.256q0 1.075-.53 1.702-.52.616-1.569.616l1.963 2.912h-2.188l-2.81-4.245v4.245h-1.895v-7.84h4.468q1.297 0 1.929.661.632.65.632 1.949zm-3.78-1.086-1.353.022v1.826h1.884q.767 0 1.026-.224.26-.236.26-.661 0-.47-.294-.717-.282-.246-1.15-.246zM300.55 24.192l-3.18-.011q-.655 0-.87.19-.202.18-.202.549 0 .403.451.571.338.123.97.123.27 0 .485-.01l.429-.023q1.309 0 2.008.549.779.615.779 1.892 0 1.344-.722 1.927-.666.537-2.031.537h-4.287v-1.545h3.565q.71 0 .97-.079.53-.157.53-.694 0-.403-.417-.571-.316-.124-.925-.124-.294 0-.53.012-.237.01-.452.022-1.32 0-2.03-.605-.756-.65-.756-1.948 0-1.356.914-1.893.71-.415 2.177-.415h4.084zM310.118 26.678q0 1.915-.835 2.867-.892 1.02-2.776 1.02-1.274 0-2.064-.224-.654-.18-1.072-.55-.575-.503-.868-1.5-.249-.851-.249-1.77 0-1.948.948-2.945.948-.997 2.877-.997 2.11 0 3.068.997.97.986.97 3.102zm-3.915 2.162q.97 0 1.5-.639.497-.593.497-1.568 0-1.108-.474-1.69-.52-.639-1.625-.639-1.004 0-1.489.65-.429.57-.429 1.601 0 1.03.474 1.624.53.66 1.546.66zM316.334 29.165v-6.519h1.737v7.84h-2.99l-2.256-6.339v6.34h-1.737v-7.84h2.854zM327.119 30.486h-1.986l-.541-1.422h-1.817l-.913-1.546-1.151 2.968h-2.042l2.922-7.84h2.65zm-3.091-3.102-1.06-2.957-1.073 2.957zM329.668 28.94h3.452l-.88 1.546h-4.456v-7.84h1.884z"/>
    </g>
    <path d="M359.607 9.563h40v8h-40z" fill="#4c8cc4"/>
    <path d="M315.607 9.563h40v8h-40z" fill="#1c7424"/>
    <path d="M271.607 9.563h40v8h-40z" fill="#ac1c1c"/>
    <text fill="#ef00eb" font-family="TrasksHand" font-size=".4" stroke="#0105ff" stroke-width=".5" x="301.849" y="9.436"><tspan fill="#fafafa" fill-opacity=".4" stroke="none" x="301.849" y="9.436">John Loreth 2022</tspan></text>
</svg>
