<?xml version="1.0" encoding="UTF-8" standalone="no"?>
<svg
   height="191.372"
   viewBox="0.25 0 248.13 95.686"
   width="496.26"
   version="1.1"
   id="svg75"
   sodipodi:docname="technos-w.svg"
   inkscape:version="1.3.2 (091e20e, 2023-11-25, custom)"
   xmlns:inkscape="http://www.inkscape.org/namespaces/inkscape"
   xmlns:sodipodi="http://sodipodi.sourceforge.net/DTD/sodipodi-0.dtd"
   xmlns="http://www.w3.org/2000/svg"
   xmlns:svg="http://www.w3.org/2000/svg">
  <defs
     id="defs75" />
  <sodipodi:namedview
     id="namedview75"
     pagecolor="#505050"
     bordercolor="#eeeeee"
     borderopacity="1"
     inkscape:showpageshadow="0"
     inkscape:pageopacity="0"
     inkscape:pagecheckerboard="0"
     inkscape:deskcolor="#505050"
     inkscape:zoom="3.7641558"
     inkscape:cx="248.13"
     inkscape:cy="95.771806"
     inkscape:window-width="2560"
     inkscape:window-height="1351"
     inkscape:window-x="-9"
     inkscape:window-y="-9"
     inkscape:window-maximized="1"
     inkscape:current-layer="svg75" />
  <linearGradient
     id="a"
     gradientUnits="userSpaceOnUse"
     x1="251.227"
     x2="182.209"
     y1="180.828"
     y2="6.902">
    <stop
       offset="0"
       stop-color="#572b13"
       id="stop1" />
    <stop
       offset=".54"
       stop-color="#69371e"
       id="stop2" />
    <stop
       offset=".686"
       stop-color="#794425"
       id="stop3" />
    <stop
       offset="1"
       stop-color="#814228"
       id="stop4" />
  </linearGradient>
  <path
     d="M41.077.012c1.916 2.574 4.43 4.636 7.06 6.442 6.223 3.675 13.66 3.92 20.598 5.219 4.815.995 9.77 2.42 13.59 5.661 4.746 4.197 7.833 10.275 8.135 16.63.535 8.336-4.012 16.304-10.345 21.462-.67.337-.144 1.039-.079 1.548.439 1.552-.074 3.144-.75 4.538 4.71 3.241 7.977 8.464 8.885 14.1 1.097 5.819-.482 12.248-4.63 16.563-2.33 2.18-5.487 3.412-8.67 3.49-5.811-.048-11.902-2.346-15.48-7.082-2.106.237-4.018-.877-5.9-1.636H15.538c1.07-1.315 2.087-2.828 3-4.253-4.61-1.044-9.359-2.939-14.126-1.671-1.267-2.324-1.978-4.92-1.938-7.574-3.956-5.473-2.32-13.73 2.82-17.857 2.714-2.087 6.297-2.14 9.55-1.776 2.097.386 4.277 1.474 5.197 3.504.628 1.21.492 2.605.518 3.925.776.623 1.294 1.469 1.548 2.434 1.973-2.881 5.021-5.342 8.608-5.631-1.969-3.022-4.253-6.306-4.043-10.078.882-2.977 3.254-5.262 5.64-7.126.105-4.482.767-9.082 2.868-13.099-.535-2.14.122-4.306.815-6.328 1.382-3.78 3.29-7.477 3.522-11.568.118-2.075.1-4.232-.61-6.214 1.118.863 2.35 1.552 3.6 2.201-.591-1.908-1.091-3.85-1.429-5.824m3.696 6.714c.285 1.426.04 2.216.602 3.566-1.496-.53-2.487-2.088-3.675-3.053-.21 2.026-.382 4.087-1.127 6-1.171 3.911-4.201 7.323-3.759 11.625 1.509-1.276 3.04-2.522 4.504-3.846.934-.662.702-1.903.912-2.885.807.5.794 1.526 1.018 2.346.245 1.754 1.346 3.28 1.307 5.091-.89-1.403-1.491-2.951-2.189-4.451-1.863 1.877-3.89 3.649-5.253 5.942 1.065-.824 2.065-2.25 3.609-1.881 1.267.074 1.539 1.622 1.86 2.605.679 2.43-.466 5.613 1.784 7.42-.737 1.684-1.64 3.306-2.245 5.043-.136 1.272-.233 3.403-.974 4.512.004-.114-.281-.432-.364-.355-.499.471.486-.842.486-.877 0-.922-.084-1.813-.012-2.742-.17-.27-.068-.489-.162-.692-.4-1.083-.926-2.118-1.715-2.973l.574-.28c-.254-.549-.193-1.47-1.004-1.478-1.552.372-2.355 1.92-2.96 3.254-.566 1.618-1.29 3.337-.877 5.082l-.662-.452c.066-2.596.557-5.27 1.89-7.525.605-1.03 1.807-1.399 2.942-1.342a11.27 11.27 0 0 0-1.258-2.11c-1.939.685-3.153 2.514-4.079 4.246-.416 1.74-.46 3.56-.745 5.333-2.066 1.732-4.078 3.7-4.912 6.34 1.15-.504 2.303-1.271 3.618-1.039 1.364.685 2.18 2.43 1.763 3.917-1 1.5-2.517 2.565-3.912 3.679 2.013 3.223 4.399 6.302 7.5 8.547 1.056.868 2.464.951 3.753 1.158 3.934.469 7.846 1.052 11.731 1.815 2.114-4.613 6.832-7.424 11.718-8.187-.548-.715-1.07-1.447-1.496-2.237 1.509.29 2.123 2.048 3.658 2.285-.592-1.167-1.57-2.052-2.504-2.938 3.521-2.592 4.999-7.18 4.617-11.424 1.5-.35 2.974-.855 4.263-1.72-.763-1.823-1.96-3.411-3.307-4.836l2.206.105a63.273 63.273 0 0 0-3.697-2.881c.698.022 1.4.053 2.097.083l-1.132-1.079c-3.5.215-7.012.268-10.512.084-2.534-.18-4.964-.948-7.376-1.658-2.868.965-2.912 4.613-3.205 7.113-1.347-1.557-2.377-3.46-2.167-5.587-.438.548-.868 1.1-1.302 1.653-.171-1.412-.325-3.1.75-4.214.583-.745 1.486-1.087 2.355-1.39-1.105-1.044-2.407-2.52-3.144-3.863l-.033-.692c.71.732 2.04 2.625 3.01 3.06.096.346.294 1.043.39 1.39l.066-.496c.325.369.645.733.97 1.097-.996.442-2.395.521-2.921 1.609-.268.645.776.886.666 1.526.044 1.377-.131 2.85.768 4.013.258-1.4.258-2.89.925-4.18.636-.978 1.745-1.456 2.719-2.012.96.526 1.982.912 3.026 1.219 1.556.051 1.519.466 3.07.368 2.205.54 4.486.645 6.744.662 1.97-.1 3.916-.495 5.894-.373a94.13 94.13 0 0 0 1.504 1.983c-.241.061-.719.175-.96.236.908.715 1.754 1.509 2.434 2.447-.606.093-1.215.18-1.82.272 1.061 1.316 3.43 2.746 3.72 4.518-.632 1.539-2.566 1.675-3.785 2.604.153 4.083-1.965 7.495-4.745 10.358.526.619 1.237.42 1.798 1.008 2.381-2.79 6.67-4.56 10.011-2.39 1.005.842 1.456-.008 2.184-.675 1.872-1.938 3.367-3.425 4.59-5.858 4.548-7.464 3.613-16.975-1.478-24-1.19 1.32-5.036-5.571-7.555-7.024-4.407-2.127-8.713-3.405-13.533-4.177-6.267-.899-10.89-.96-16.24-4.534m-7.349 19.19c-2.074 1.464-1.567 2.1-1.87 4.59 1.075-.767 1.162-1.087 2.526.036 1.767 2.122.59 4.308 2.532 6.342.5-1.219.706-1.003.978-2.301-.315-1.408-1.079-2.36-1.136-3.816-.21-1.556.466-2.988-.459-4.352-.623-.912-1.23-.765-2.006-.217m-11.138 22.92c.78.005 1.575-.105 2.346.053.285.403.51.868.562 1.373-.627.977-2 1.622-1.728 2.982 1.49-.847 2.942-1.882 3.934-3.303.539-1.35-.338-2.63-1.259-3.539-1.561.123-3.635.557-3.855 2.434m.33.307c-.023.983.179 1.947.618 2.829.486-.728 1.771-1.259 1.53-2.276-.452-.768-1.425-.439-2.149-.553M8.63 54.891c-2.342.456-3.728 2.543-4.85 4.455-1.562 2.82-2.513 6.104-2.048 9.34.649 2.926 3.078 5.443 6.078 5.917 2.267.333 4.495-.948 5.832-2.72 1.675-2.236 2.745-5.038 2.478-7.862 1.066-.566 2.188-1.237 2.688-2.39.934-1.864.114-4.245-1.57-5.381-2.416-1.89-5.731-1.978-8.608-1.36m59.163 2.952c1.298.162 2.6.29 3.894.517 1.298.294 2.574-.473 3.88-.144-.7.298-1.464.368-2.205.469 1.241.465 2.473.965 3.697 1.478 1.096-1.72.618-4.258-1.32-5.144-2.899-1.255-6.13.543-7.946 2.824m-44.845 7.376c.25 1.526.434 3.061.614 4.596-.439-1.197-.794-2.416-1.153-3.636-.952 1.373-1.413 3.18-2.947 4.066-.89.618-1.991.644-3.026.758-1.386 2.618-3.956 4.53-6.833 5.197-.903 1.035-1.85 2.035-2.898 2.925 4.306-.855 8.187 2.29 12.49 1.723.692-.096.92-.828 1.249-1.337 1.46-2.67 2.754-5.43 4-8.205 1.218-2.693 2.188-5.526 3.876-7.977.96-1.618 2.447-2.824 3.495-4.377-3.828.25-6.95 3.132-8.867 6.267m34.758-2.807c-3.473 2.895-4.806 7.627-4.727 11.999.052 2.841 2.21 5.095 4.71 6.152.57-1.526 1.32-3.012 2.565-4.096-.702 2.325-1.258 4.741-1.061 7.192.307 1.715.802 3.47 2 4.794 2.71 3.14 6.784 4.674 10.748 5.481 3.43.71 7.065-.548 9.573-2.934 3.403-3.06 4.736-7.784 4.807-12.235-.035-1.263.131-2.605-.382-3.793-.636-4.872-3.346-9.393-7.24-12.367-3.118-2.298-6.982-3.35-10.814-3.495-3.561.33-7.372.886-10.179 3.302m-32.54 9.565c-1.911 5.06-4.064 9.994-6.87 14.625h6.8c1.22-1.894 2.334-3.96 2.956-6.135.878-2.794 1.693-5.841 4.048-7.797-1.49-.71-3.175-1.154-4.346-2.39 1.895.618 3.693 1.521 5.684 1.842.776-1.421 2.065-2.43 3.429-3.254-2.158-1.509-3.789-3.842-4.355-6.416-.245-.868.658-1.974-.333-2.605-3.363 3.337-5.284 7.797-7.012 12.13m8.455-10.231c-.03 2.732 1.622 5.346 4.012 6.626.119-1.004.163-2.013.101-3.021-1.644-.864-2.806-2.338-4.113-3.605m-13.573.68c-.622 1.056-1.482 1.942-2.556 2.539.026 1.736-.189 3.46-.588 5.148 3.232-.645 5.468-5.026 3.144-7.687m18.3 2.995c.022 1.28-.228 2.596.136 3.854.741-1.026.167-2.425.864-3.455.062 1.18.035 2.364.013 3.548 3.908 1.372 8.104 1.043 12.13.517.255-.658.522-1.311.785-1.965a42.847 42.847 0 0 0-11.586-2.32c-.794.022-1.623.312-2.342-.18m-4.179 6.732 1.136.018c.855-1.07 2.1-1.868 2.574-3.197-1.697.381-2.89 1.728-3.71 3.18m1.72.416c3.477-.035 6.946.579 10.419.158-.943.394-1.921.767-2.956.74-2.79.032-5.587.11-8.35-.31-4.591 2.946-5.806 8.55-7.21 13.445h25.212c-3.574-2.473-5.17-8.345-1.552-11.468-.325-1.574-.285-3.197-.044-4.78-4.293.702-8.753.755-12.946-.526-1.135.623-1.92 1.653-2.574 2.74m-2.877.062c-1.767 1.478-3.113 3.42-3.806 5.622-.9 2.881-1.934 5.697-3.39 8.35h1.21c.956-2.066 1.619-4.302 2.316-6.468a15.298 15.298 0 0 1 4.626-7.039c-.32-.158-.64-.311-.956-.465M3.775 74.717c.29 1.364.627 2.723 1.1 4.039a33.315 33.315 0 0 0 2.57-2.53c-1.359-.115-2.543-.808-3.67-1.51m47.265 6.188c.457 3.386 3.706 6.337 7.223 5.79-.447-1.523-.561-3.11-.688-4.68-2.259-.78-4.263-2.324-5.337-4.49-.869.894-1.294 2.144-1.198 3.38z"
     fill="#322010"
     stroke="#322010"
     stroke-miterlimit="10"
     stroke-width=".04122182"
     id="path4" />
  <path
     d="M138.762 29.926c.812 4.062 1.439 8.212 3.039 12.062-4.263-1.512-6.8-5.55-10.188-8.3-.6 5.774-1.088 11.65-3.213 17.1-3.337 11.15-11.975 20.875-10.712 33.138 4.3-3.638 8.662-7.188 12.837-10.963 2.663-1.888 2-5.425 2.6-8.225 2.3 1.425 2.263 4.35 2.9 6.688.7 5 5.26 7.438 5.148 12.6.15.275 2.223 2.79 2.386 3.065l-1.721-.267c2.025 2.088 3.661 4.638 6.424 5.875-.188-.662-.55-1.961-.737-2.611-2.262-2.775-4.3-7.425-.513-9.912.587-1.7 1.163-3.401 1.775-5.076 2.138 6.475 1.25 13.475.776 20.15.925 1.05 1.836 2.087 2.761 3.125-2.837 1.262-6.824 1.488-8.324 4.588-.762 1.837 2.213 2.525 1.9 4.35.125 3.924-.375 8.124 2.188 11.437.737-3.987.737-8.237 2.637-11.912 1.812-2.788 4.975-4.15 7.75-5.738 2.737 1.5 5.65 2.6 8.625 3.474 6.9-4.9 14.138-9.287 20.888-14.412-.55.988-19.314 13.122-19.914 14.084.235.884 4.737 1.221 9.072 1.664 5.883 1.279 11.932 1.555 17.928 1.602 5.613-.288 11.163-1.413 16.801-1.063 1.4 1.9 2.837 3.788 4.287 5.65-.687.176-2.049.501-2.736.676 2.587 2.038 5 4.3 6.937 6.975-1.725.263-3.462.513-5.187.775 3.025 3.75 7.661 6.85 8.486 11.9-1.8 4.388-7.312 5.1-10.787 7.75.438 11.638-5.112 22.338-13.037 30.5 1.5 1.763 3.037 3.474 4.637 5.15 6.787-7.95 19.5-13.163 29.025-6.975 2.862 2.4 5.775-.675 7.85-2.575 5.337-5.525 10.9-11.062 14.388-18 12.963-21.275 11.025-50.012-3.488-70.037-5.737-8.553-13.732-15.336-22.3-19.713-12.563-6.062-26.1-9.85-39.837-12.05-17.862-2.563-36.101-6.362-51.351-16.55zM212.52 68.69zm-52.82 5.471c.712 1.363 1.35 2.825.937 4.4-.875 6.463-2.563 12.838-5.188 18.813-1.637-.338-1.574-2.375-1.861-3.65-.925-7.013 1.386-14.313 6.111-19.563zm5.013 10.488c-.813 4.575-1.675 9.3-4.662 13.037-1.313-4.974 1.45-9.487 4.662-13.037zm22.537 12.887c-.116.098-.235.192-.352.29.217-.22.344-.33.352-.29zm4.313 3.3c-2.138 2.688-4.95 4.987-8.35 5.8 2.5-2.313 5.324-4.25 8.35-5.8z"
     fill="url(#a)"
     transform="matrix(.35083 0 0 .35083 -4.474 -4.58)"
     id="path5" />
  <path
     d="M42.366 21.119c.698 1.5 1.298 3.048 2.189 4.451.052.097.166.294.223.39.737 1.342 1.825 2.434 2.93 3.478-.869.303-1.772.645-2.355 1.39-1.075 1.114-.921 2.802-.75 4.214.434-.552.864-1.105 1.302-1.653-.21 2.127.82 4.03 2.167 5.587.293-2.5.337-6.148 3.205-7.113 2.412.71 4.842 1.478 7.376 1.658 3.5.184 7.013.131 10.512-.084l1.132 1.08c-.698-.031-1.4-.062-2.097-.084a63.273 63.273 0 0 1 3.697 2.881l-2.206-.105c1.347 1.425 2.544 3.013 3.307 4.837-1.29.864-2.763 1.368-4.263 1.719.382 4.245-1.096 8.832-4.617 11.424.934.886 1.912 1.771 2.504 2.938-1.535-.237-2.15-1.995-3.658-2.285.426.79.947 1.522 1.496 2.237-4.886.763-9.604 3.574-11.718 8.187-3.885-.763-7.797-1.346-11.73-1.815-1.29-.207-2.698-.29-3.755-1.158-3.1-2.245-5.486-5.324-7.499-8.547 1.395-1.114 2.912-2.18 3.912-3.68.417-1.486-.399-3.231-1.763-3.916-1.315-.232-2.469.535-3.618 1.04.834-2.64 2.846-4.61 4.912-6.341.285-1.772.329-3.592.745-5.333.926-1.732 2.14-3.561 4.079-4.245.5.653.912 1.364 1.258 2.11-1.135-.058-2.337.31-2.942 1.341-1.333 2.254-1.824 4.93-1.89 7.525l.662.452c.066.07.202.21.267.276.968.918 1.974 1.844 2.803 2.632l.105.105c1.366-1.099 2.6-1.917 3.295-3.332.418-.978.425-2.08.538-3.132.605-1.737 1.508-3.36 2.245-5.043-2.25-1.807-1.105-4.99-1.785-7.42-.32-.983-.592-2.53-1.86-2.605-1.543-.369-2.543 1.057-3.608 1.881 1.363-2.293 3.39-4.065 5.253-5.942m1.917 16.796c.04-.28.127-.838.17-1.118-.793-.478-1.074 1.425-.17 1.118m6.924.855c-1.013.132-1.386-.978-1.951-1.588-1.54 2.241-1.829 5.517-.369 7.85-.408.698-.894 1.364-1.14 2.145-.298 1.039.513 2.07.079 3.087 2.434-.895 4.973-.044 7.385.465l.267.18c.794.469 1.557.986 2.307 1.517.509-.202.882-.57 1.395-.768l.017.027c.439-.33.895-.636 1.303-1.004 1.162-1.237 2.113-2.684 2.394-4.39a10.511 10.511 0 0 1 1.702 5.262l.736-.903-.057-.21c.25-.514.496-1.036.733-1.557l-.013-.167c.977-3.219 1.46-6.775.24-9.999-.556-1.434-2.192-1.947-3.59-2.065-3.956-.298-7.57 1.763-11.438 2.118m-7.828-.697c-.197 1.36-.763 2.758-.324 4.135.228-1.087.386-2.201.794-3.24-.15-.303-.307-.601-.47-.895m3.86 5.942a19.467 19.467 0 0 1 .043-5.863c-1.311 1.61-1.166 4.183-.044 5.863m-7.24 3.372c-.978.07-1.517 1.092-1.166 1.978.425 1.618 2.201 2.206 3.657 2.522 1.074.153 2.583.346 3.215-.772.407-1.61-1.395-2.061-2.518-2.478-1.092-.32-2.06-1.123-3.188-1.25m-6.152 5.228c-.036.122-.101.36-.136.482 1.824.197 3.767.842 4.902 2.368.715.903.584 2.307 1.632 2.956-.145-3.28-3.22-5.723-6.398-5.806z"
     fill="#ecba89"
     stroke="#ecba89"
     stroke-miterlimit="10"
     stroke-width=".04122182"
     id="path6" />
  <path
     d="M51.554 21.44c.25.477.473.99.328 1.543-.306 2.267-.899 4.503-1.82 6.6-.574-.119-.552-.834-.653-1.28-.324-2.461.487-5.022 2.145-6.864z"
     fill="#e7e9ed"
     stroke="#e7e9ed"
     stroke-miterlimit="10"
     stroke-width=".04122182"
     id="path7" />
  <path
     d="M47.102 23.548c.207-.596.408-1.192.623-1.78.75 2.272.439 4.727.272 7.07l-.066.495c-.096-.347-.294-1.044-.39-1.39-.066-.233-.193-.689-.259-.917-.793-.974-1.508-2.605-.18-3.478z"
     fill="#cebfba"
     stroke="#cebfba"
     stroke-miterlimit="10"
     stroke-width=".04122182"
     id="path8" />
  <path
     d="M51.676 29.692c-.46-1.745.51-3.328 1.636-4.574-.285 1.605-.588 3.263-1.636 4.574z"
     fill="#fdfefa"
     stroke="#fdfefa"
     stroke-miterlimit="10"
     stroke-width=".04122182"
     id="path9" />
  <path
     d="M38.634 26.723c.777-.548 2.11-.815 2.732.097.926 1.364.693 3.118.904 4.675.057 1.456.618 2.81.934 4.218-.272 1.298-.882 2.496-1.382 3.715-1.942-2.035-1.25-5.35-3.017-7.473-1.363-1.122-2.701.408-3.775 1.175.302-2.49 1.53-4.942 3.604-6.407z"
     fill="#5b3018"
     stroke="#5b3018"
     stroke-miterlimit="10"
     stroke-width=".04122182"
     id="path10" />
  <path
     d="M54.15 32.109c2.42-1.72 4.96-3.259 7.328-5.057-.193.347-.4.689-.61 1.027-2.07 1.574-4.223 3.214-6.718 4.03zM61.131 29.18l.088.46c-1.25 1.06-2.631 1.947-4 2.837l-.556.35c1.065-1.692 3.078-2.301 4.468-3.648zM59.802 32.832a13.118 13.118 0 0 1 2.93-2.035c-.75.943-1.737 1.75-2.93 2.035z"
     fill="#fdfefa"
     stroke="#fdfefa"
     stroke-miterlimit="10"
     stroke-width=".04122182"
     id="path11" />
  <path
     d="M112.927 33.135a82.268 82.268 0 0 1 1.88 3.39c-1.898.872-3.674 1.986-5.354 3.223 1.075-2.25 2.368-4.381 3.474-6.613z"
     fill="#62afff"
     stroke="#62afff"
     stroke-miterlimit="10"
     stroke-width=".04122182"
     id="path12" />
  <path
     d="M35.99 38.617c.605-1.334 1.408-2.882 2.96-3.254.811.008.75.93 1.004 1.477l-.574.281c-2.46 1.057-3.653 3.789-3.745 6.337-.066.131-.193.39-.255.517a16.16 16.16 0 0 1-.267-.276c-.412-1.745.311-3.464.877-5.082z"
     fill="#fffcff"
     stroke="#fffcff"
     stroke-miterlimit="10"
     stroke-width=".04122182"
     id="path13" />
  <path
     d="M44.283 37.915c-.904.307-.623-1.596.17-1.118-.043.28-.13.837-.17 1.118zM51.207 38.77c3.868-.355 7.482-2.416 11.437-2.118 1.4.118 3.035.631 3.592 2.065 1.219 3.224.68 8.863-.926 11.91-.303-2.284.825-6.527.329-8.798-.241-1.636-.631-3.304-2.482-3.734-3.986-.917-7.657.923-11.55 1.445-.922.088-1.562-.41-2.395-.726-.307 1.706-.899 3.22-.118 4.878.587.96 1.699.377 2.633.351 3.28-.373 6.72-1.175 10.014-.496 2.68.983 2.742 3.89 3.492 6.236l.1.867c-.246.302-.492.6-.737.903a10.511 10.511 0 0 0-1.702-5.262c-.28 1.706-1.232 3.153-2.394 4.39.5-1.101.657-2.307.54-3.5.017-.035.047-.105.065-.136.263-.188.592-.608.851-.793-.465-.56-.759-1.062-1.294-1.553-2.009-.22-4.096-.46-6.074.07-.508.68-.868 1.456-1.263 2.202l.614.307-.758.214.35.128-.013.39c-.013.513-.026 1.026-.035 1.54-.07-.621 5.766 2.302 4.663 2.717l-.388.145c-2.594-2.264-7.498-3.043-9.932-2.148.434-1.017-.377-2.048-.079-3.087.246-.78.732-1.447 1.14-2.145-1.46-2.333-1.17-5.609.369-7.85.565.61.938 1.72 1.951 1.588m-1.833 6.21c-.785 1.399-1.71 3.091-.636 4.604a12.74 12.74 0 0 1 4.219.163c-.14-1.755-.123-3.57.772-5.149a17.735 17.735 0 0 1-4.355.382z"
     fill="#331e0d"
     stroke="#331e0d"
     stroke-miterlimit="10"
     stroke-width=".04122182"
     id="path14" />
  <path
     d="M35.635 43.458c.092-2.548 1.285-5.28 3.745-6.337.79.855 1.315 1.89 1.715 2.973l-.325.066-.465.097c-.723.17-1.662.197-2.004.99-.29.781-.171 1.834.658 2.228.636-.258.99-.885 1.43-1.368.074-.096.219-.285.289-.381.017-.241-.255-1.404-.237-1.65.162-.004.482-.017.645-.022.398 1.23.22 2.39.196 3.249-.001.048.104.227.103.276-.005.175-.117.22-.124.396-.57 1.18-1.719 1.89-2.763 2.597.443-.65.869-1.316 1.294-1.974-1.193-.829-2.447-1.557-3.71-2.267.452 1.54 1.395 2.85 2.1 4.276-.903-.86-1.815-1.71-2.731-2.557l-.07-.075c.06-.127.188-.385.254-.517z"
     fill="#5b3119"
     stroke="#5b3119"
     stroke-miterlimit="10"
     stroke-width=".04122182"
     id="path15" />
  <path
     d="M65.233 50.468c-.75-2.346-.984-5.567-3.663-6.55-3.294-.68-6.648.123-9.928.496-.934.027-2.189.324-2.776-.636-.78-1.658-.189-3.543.118-5.249.833.316 1.644.899 2.565.811 3.894-.522 7.736-2.504 11.722-1.588 1.851.43 2.412 2.47 2.653 4.106.496 2.271.339 4.259-.044 6.644a8.695 8.695 0 0 1-.647 1.966z"
     fill="#5a3018"
     id="path16" />
  <g
     stroke-miterlimit="10"
     stroke-width="0.094"
     id="g45"
     style="display:inline">
    <path
       d="m 218.464,38.761 c 0,-0.482 0.005,-0.96 0.01,-1.438 3.88,0 7.757,-0.018 11.638,0.013 0,0.355 0,1.066 -0.005,1.42 -3.88,0.027 -7.762,0 -11.643,0.005 z"
       fill="#151221"
       stroke="#151221"
       stroke-width="0.0412218"
       id="path17"
       style="fill:#ffffff" />
    <path
       d="m 108.173,44.594 c 1.017,-3.259 3.986,-5.508 7.09,-6.596 1.045,0.465 1.255,1.96 1.878,2.881 l 2.42,0.145 c 0.14,0.535 0.29,1.066 0.44,1.6 -2.51,-0.473 -5.07,-0.337 -7.6,-0.175 0.052,0.272 0.162,0.82 0.214,1.092 2.302,0.412 4.701,-0.254 6.973,0.434 2.328,0.65 4.236,2.21 6.082,3.702 a 84.306,84.306 0 0 0 -2.868,2.587 c 0.193,0.605 0.386,1.215 0.588,1.824 -0.482,0.347 -0.96,0.693 -1.434,1.044 -0.21,-2.254 -1.061,-4.359 -2.048,-6.368 -0.513,0.075 -1.026,0.15 -1.535,0.233 0.9,2.017 1.956,4.07 2.03,6.324 -0.131,2.197 -1.135,4.21 -2.166,6.113 -1.136,-0.535 -2.219,-1.21 -3.425,-1.588 -0.61,0.29 -1.162,0.693 -1.771,0.983 -0.663,-0.198 -1.272,-0.535 -1.895,-0.825 2.25,-0.965 4.565,-2.03 6.227,-3.89 0.154,-0.68 -0.118,-0.986 -0.82,-0.925 -1.552,0.952 -2.85,2.329 -4.596,2.96 -2.613,1.18 -5.534,0.85 -8.305,0.658 0.206,-1.145 0.425,-2.285 0.622,-3.43 -0.557,-0.43 -1.635,-0.517 -1.675,-1.385 0.07,-0.505 -0.136,-1.482 0.689,-1.25 1.793,1.403 3.56,2.982 5.81,3.596 1.583,-0.71 -0.346,-1.675 -1.14,-2.035 -3.434,-1.54 -5.793,-5.06 -5.841,-8.832 1.122,-0.1 2.245,-0.202 3.368,-0.307 l 0.684,-2.144 c 0.78,-0.088 1.565,-0.171 2.35,-0.26 -1.329,2.07 -2.407,4.378 -2.495,6.877 1.886,0.307 1.653,-1.846 2.149,-3.043 z"
       fill="#66aeff"
       stroke="#66aeff"
       stroke-width="0.0412218"
       id="path18" />
    <path
       d="m 43.763,37.104 c 0.162,0.294 1.087,0.027 0.086,1.863 -0.408,1.04 -0.566,2.154 -0.794,3.241 -0.439,-1.377 0.298,-4.118 0.708,-5.104 z"
       fill="#331e0d"
       stroke="#331e0d"
       stroke-width="0.0412218"
       id="path19" />
    <path
       d="m 47.238,44.015 c -1.122,-1.68 -1.267,-4.254 0.044,-5.863 a 19.467,19.467 0 0 0 -0.044,5.863 z"
       fill="#331e0d"
       stroke="#5b3117"
       stroke-width="0.0412218"
       id="path20" />
    <path
       d="m 38.301,41.248 c 0.342,-0.794 1.28,-0.82 2.004,-0.991 -0.544,0.416 -0.877,1.008 -1.153,1.618 0.311,0.057 0.93,0.17 1.236,0.232 -0.438,0.483 -0.793,1.11 -1.43,1.368 -0.828,-0.394 -0.946,-1.447 -0.657,-2.227 z"
       fill="#382940"
       stroke="#382940"
       stroke-width="0.0412218"
       id="path21" />
    <path
       d="m 40.825,40.39 c 0.194,0.501 0.038,0.948 -0.176,1.407 -0.059,0.144 -0.156,0.293 -0.317,0.33 -0.284,0.087 -0.6,0.11 -0.883,0.012 a 0.479,0.479 0 0 1 -0.325,-0.35 c -0.064,-0.262 0.067,-0.524 0.225,-0.724 0.488,-0.527 1.061,-1.054 1.476,-0.675 z"
       fill="#fbfafd"
       stroke="#fbfafd"
       stroke-width="0.0412218"
       id="path22" />
    <path
       d="m 130.481,40.169 14.432,0.004 v 14.432 l -2.942,-0.004 V 43.138 h -11.464 z"
       fill="#151323"
       stroke="#151323"
       stroke-width="0.0412218"
       id="path23"
       style="fill:#ffffff" />
    <path
       d="m 147.711,40.15 h 14.452 v 2.988 h -11.582 v 2.778 h 11.582 v 2.989 l -11.582,0.048 v 2.653 h 11.582 v 3.002 h -11.582 c -1.425,0.083 -2.905,-1.178 -2.87,-2.572 z"
       fill="#161423"
       stroke="#161423"
       stroke-width="0.0412218"
       id="path24"
       style="fill:#ffffff" />
    <path
       d="m 165.253,43.668 c 0.346,-2.258 2.67,-3.598 4.823,-3.519 h 9.521 v 2.998 c -3.184,0.057 -6.38,-0.114 -9.56,0.11 -1.693,0.135 -2.009,2.109 -2.118,3.46 -0.092,1.736 0.04,4.02 1.872,4.832 3.263,0.184 6.539,0.083 9.806,0.11 v 2.96 c -3.337,-0.014 -6.679,0.043 -10.012,-0.018 -1.99,-0.07 -4.078,-1.329 -4.332,-3.438 a 70.04,70.04 0 0 1 0,-7.495 z"
       fill="#161422"
       stroke="#161422"
       stroke-width="0.0412218"
       id="path25"
       style="fill:#ffffff" />
    <path
       d="m 182.513,40.154 h 2.908 v 5.764 l 8.709,-0.009 v -5.755 h 2.776 V 54.608 H 194.13 V 48.93 l -8.71,0.009 v 5.668 h -2.902 z"
       fill="#161323"
       stroke="#161323"
       stroke-width="0.0412218"
       id="path26"
       style="fill:#ffffff" />
    <path
       d="m 199.77,40.156 h 10.634 c 1.816,-0.136 3.675,1.425 3.719,3.276 v 11.182 h -2.844 v -9.222 c 0.035,-0.982 -0.62,-2.272 -1.739,-2.215 h -6.994 c 0.017,3.829 0.017,7.609 0,11.437 h -2.79 c 0.053,-4.806 0.027,-9.652 0.014,-14.458 z"
       fill="#161322"
       stroke="#161322"
       stroke-width="0.0412218"
       id="path27"
       style="fill:#ffffff" />
    <path
       d="m 216.877,43.08 c 1.925,-2.556 4.804,-2.929 7.522,-2.929 2.718,0 5.54,0.986 6.98,2.645 1.44,1.659 1.605,3.705 1.439,5.674 -0.066,2.417 -1.864,4.504 -4.052,5.355 -2.724,1.03 -5.728,0.991 -8.508,0.224 -2.144,-0.75 -4.026,-2.452 -4.49,-4.741 -0.255,-2.105 -0.299,-4.482 1.109,-6.227 m 7.522,-0.07 c -2.66,0 -5.92,0.602 -5.92,4.352 0,3.75 3.786,4.448 5.92,4.448 2.134,0 5.687,-0.944 5.687,-4.448 0,-3.503 -3.028,-4.352 -5.687,-4.352 z"
       fill="#151422"
       stroke="#151422"
       stroke-width="0.0412218"
       id="path28"
       style="fill:#ffffff" />
    <path
       d="m 235.554,40.81 c 0.56,-0.656 1.52,-0.659 2.022,-0.659 H 248.1 V 43.2 h -9.723 c 2.767,2.267 5.833,4.193 8.657,6.376 1.754,1.338 1.35,4.776 -1.075,5.004 L 235,54.602 l 0.014,-3.006 h 9.718 l -8.679,-6.418 c -1.805,-1.311 -1.06,-3.713 -0.5,-4.368 z"
       fill="#161423"
       stroke="#161423"
       stroke-width="0.0412218"
       id="path29"
       style="fill:#ffffff" />
    <path
       d="m 35.776,42.165 c 1.404,0.69 3.542,2.056 4.735,2.885 -0.75,0.694 -1.494,1.172 -2.213,1.652 -0.934,-1.008 -1.937,-1.836 -2.904,-2.744 0.224,-0.612 0.304,-1.308 0.382,-1.793 z"
       fill="#7e472d"
       stroke="#7e472d"
       stroke-width="0.0412218"
       id="path30" />
    <path
       d="m 121.772,43.313 c 2.675,0.224 5.324,0.689 8.003,0.864 -1.009,0.89 -2.022,1.776 -3.083,2.6 a 21.211,21.211 0 0 0 -4.92,-3.464 z"
       fill="#67b0ff"
       stroke="#67b0ff"
       stroke-width="0.0412218"
       id="path31" />
    <path
       d="m 96.289,44.138 c 1.403,-0.11 2.806,-0.215 4.205,-0.342 0.224,1.969 0.996,3.797 1.728,5.617 -2.013,-1.719 -4.14,-3.32 -5.933,-5.275 z"
       fill="#63adfe"
       stroke="#63adfe"
       stroke-width="0.0412218"
       id="path32" />
    <path
       d="m 54.588,44.77 c 1.978,-0.531 4.065,-0.29 6.074,-0.071 4.2,3.664 -3.161,0.803 -3.75,2.061 -0.589,1.258 0.018,2.393 1.233,2.478 1.215,0.085 1.864,-0.526 2.372,-1.382 0.132,-0.166 0.39,-0.508 0.522,-0.675 0.118,1.193 -0.04,2.399 -0.54,3.5 -0.407,0.368 -0.863,0.675 -1.302,1.004 -1.272,-2.004 -3.473,-3.035 -5.679,-3.675 l 0.013,-0.39 -0.35,-0.128 0.758,-0.214 -0.614,-0.307 c 0.395,-0.746 0.755,-1.522 1.263,-2.202 z"
       fill="#5b3117"
       stroke="#5b3117"
       stroke-width="0.0412218"
       id="path33" />
    <path
       d="m 49.374,44.98 c 1.46,0.061 2.92,-0.084 4.355,-0.382 -0.895,1.579 -0.912,3.394 -0.772,5.149 a 12.74,12.74 0 0 0 -4.219,-0.163 c -1.074,-1.513 -0.149,-3.205 0.636,-4.604 z"
       fill="#fcfdfd"
       stroke="#fcfdfd"
       stroke-width="0.0412218"
       id="path34" />
    <path
       d="m 56.912,46.76 c 0.589,-1.258 2.177,-1.538 3.236,-1.533 1.06,0.005 1.552,0.75 1.665,1.267 l -0.061,0.076 c -0.369,0.008 -0.512,0.253 -0.442,0.065 -0.43,-0.33 -0.775,-1.024 -1.27,-1.243 -0.737,0.232 -1.474,0.636 -1.812,1.368 0.127,0.474 0.28,0.939 0.46,1.395 0.61,-0.088 2.471,-1.53 3.081,-1.64 -0.509,0.855 -2.416,3.25 -3.853,2.794 -1.436,-0.455 -1.592,-1.291 -1.004,-2.549 z"
       fill="#40323f"
       stroke="#40323f"
       stroke-width="0.0412218"
       id="path35" />
    <path
       d="m 58.228,46.76 c 0.128,-0.424 0.45,-0.833 0.785,-1.019 0.335,-0.185 0.66,-0.334 1.025,-0.33 0.388,0 0.748,0.193 1.05,0.42 0.295,0.243 0.336,0.697 0.17,1.03 -0.166,0.333 -0.332,0.58 -0.56,0.828 -0.159,0.19 -0.463,0.368 -0.691,0.452 -0.39,0.162 -0.751,0.229 -1.165,0.084 -0.409,-0.16 -0.639,-0.603 -0.653,-1.026 a 1.557,1.557 0 0 1 0.04,-0.439 z"
       fill="#fbfafd"
       stroke="#fbfafd"
       stroke-width="0.0412218"
       id="path36" />
    <path
       d="m 39.998,47.387 c 1.127,0.127 2.096,0.93 3.188,1.25 1.123,0.417 2.925,0.868 2.518,2.478 -0.632,1.118 -2.14,0.925 -3.215,0.772 -1.456,-0.316 -3.232,-0.904 -3.657,-2.522 -0.351,-0.886 0.188,-1.908 1.166,-1.978 z"
       fill="#d0886a"
       stroke="#d0886a"
       stroke-width="0.0412218"
       id="path37" />
    <path
       d="m 28.061,49.926 c 0.22,-1.877 2.294,-2.31 3.855,-2.434 0.92,0.908 1.798,2.189 1.259,3.54 -0.992,1.42 -2.443,2.455 -3.934,3.302 -0.272,-1.36 1.1,-2.005 1.728,-2.982 -0.053,-0.505 -0.277,-0.97 -0.562,-1.373 -0.771,-0.158 -1.565,-0.048 -2.346,-0.053 z"
       fill="#ce8965"
       stroke="#ce8965"
       stroke-width="0.0412218"
       id="path38" />
    <path
       d="m 53.518,47.909 c 2.206,0.64 4.458,1.721 5.73,3.725 l -0.1,0.079 c -0.434,0.261 -0.483,0.34 -0.992,0.542 -1.426,-1.235 -2.918,-1.93 -4.673,-2.383 0.009,-0.513 0.022,-1.45 0.035,-1.963 z"
       fill="#7e472d"
       stroke="#774927"
       stroke-width="0.0412218"
       id="path39" />
    <path
       d="m 28.39,50.233 c 0.724,0.114 1.697,-0.215 2.149,0.553 0.241,1.017 -1.044,1.548 -1.53,2.276 A 6.016,6.016 0 0 1 28.39,50.233 Z"
       fill="#d1866c"
       stroke="#d1866c"
       stroke-width="0.0412218"
       id="path40" />
    <path
       d="m 33.846,52.615 c 3.179,0.083 6.253,2.525 6.398,5.806 -1.048,-0.65 -0.917,-2.053 -1.632,-2.956 -1.135,-1.526 -3.078,-2.17 -4.902,-2.368 0.035,-0.123 0.1,-0.36 0.136,-0.482 z"
       fill="#331e0d"
       stroke="#331e0d"
       stroke-width="0.0412218"
       id="path41" />
    <path
       d="m 8.63,54.89 c 2.877,-0.618 6.192,-0.53 8.608,1.36 1.684,1.136 2.504,3.517 1.57,5.38 -0.5,1.154 -1.622,1.825 -2.688,2.39 0.267,2.825 -0.803,5.627 -2.478,7.864 -1.337,1.771 -3.565,3.052 -5.832,2.719 -3,-0.474 -5.43,-2.991 -6.078,-5.916 -0.465,-3.237 0.486,-6.521 2.048,-9.341 1.122,-1.912 2.508,-4 4.85,-4.455 z"
       fill="#ecba89"
       stroke="#ecba89"
       stroke-width="0.0412218"
       id="path42" />
    <path
       d="m 67.793,57.842 c 1.815,-2.28 5.047,-4.079 7.946,-2.824 1.938,0.886 2.416,3.425 1.32,5.144 a 102.996,102.996 0 0 0 -3.697,-1.478 c 0.741,-0.101 1.504,-0.171 2.206,-0.47 -1.307,-0.328 -2.583,0.44 -3.881,0.145 -1.294,-0.228 -2.596,-0.355 -3.894,-0.517 z"
       fill="#eeb987"
       stroke="#eeb987"
       stroke-width="0.0412218"
       id="path43" />
    <path
       d="m 119.627,60.105 c 0.97,-1.693 1.509,-3.579 2.355,-5.328 0.456,2.333 0.991,4.648 1.338,7.003 a 58.32,58.32 0 0 1 -3.693,-1.675 z"
       fill="#64b1ff"
       stroke="#64b1ff"
       stroke-width="0.0412218"
       id="path44" />
    <path
       d="m 142.017,56.39 h 1.131 v 1.241 c 1.28,0 2.94,-0.069 3.813,0.785 0.75,0.671 0.71,1.842 0.246,2.667 -1.377,1.394 -3.431,0.98 -5.19,0.98 0.004,-1.925 -0.07,-3.752 0,-5.673 m 1.131,2.29 c 0.005,0.75 -0.009,1.5 0,2.25 0.952,0 3.256,0.37 3.256,-1.07 0,-1.44 -2.188,-1.18 -3.256,-1.18 z"
       fill="#161324"
       stroke="#161324"
       stroke-width="0.0412218"
       id="path45"
       style="fill:#ffffff" />
  </g>
  <path
     d="M156.486 58.72c-.006-1.443.928-2.332 2.716-2.312 1.41 0 2.692.882 2.664 2.313v3.342h-1.06v-2.178h-3.352v2.178h-.985m.985-3.342h3.352c0-.524-.245-1.387-1.604-1.39-1.359-.003-1.748.813-1.748 1.39z"
     fill="#14121e"
     id="path46"
     style="fill:#ffffff" />
  <g
     stroke-miterlimit="10"
     stroke-width="0.094"
     id="g68"
     style="display:inline">
    <path
       d="m 163.038,56.408 c 1.226,0 3.92,-0.24 4.851,0.92 0.378,0.472 0.368,1.18 0.009,1.715 -0.359,0.535 -1.082,0.658 -1.852,0.87 l 2.443,2.15 h -1.29 l -2.506,-2.15 v -0.925 c 0.799,0 2.476,0.203 2.476,-0.687 0,-0.89 -1.937,-0.695 -3.118,-0.695 0.004,1.473 0,2.983 0,4.457 h -1.009 c -0.004,-1.89 -0.004,-3.765 -0.004,-5.655 z"
       fill="#191724"
       stroke="#191724"
       stroke-width="0.0412218"
       id="path47"
       style="fill:#ffffff" />
    <path
       d="m 169.384,57.083 c 0.998,-0.942 3.269,-0.662 5.073,-0.662 -0.004,0.311 -0.004,0.93 -0.004,1.241 -1.259,0.009 -3.121,-0.07 -3.837,0.114 -0.863,0.223 -0.868,2.087 -0.386,2.579 0.69,0.704 1.853,0.54 4.192,0.54 l 0.053,1.168 h -4.187 c -0.318,-0.054 -0.546,-0.32 -0.871,-0.707 -0.96,-1.382 -0.74,-3.474 -0.034,-4.273 z m 7.13,-0.443 c 0.29,-0.153 0.332,-0.2 1.381,-0.2 l 3.752,-0.006 c 0.018,0.294 -0.013,0.954 0,1.252 h -3.72 l 3.319,2.498 c 1.018,0.702 0.633,1.83 0.228,1.879 h -4.824 c 0.009,-0.294 -0.009,-0.886 0,-1.184 h 3.723 c -1.245,-0.948 -2.556,-1.827 -3.74,-2.853 -0.48,-0.408 -0.41,-1.234 -0.119,-1.387 z"
       fill="#161421"
       stroke="#161421"
       stroke-width="0.0412218"
       id="path48"
       style="fill:#ffffff" />
    <path
       d="m 182.807,56.423 h 0.972 v 1.826 c 0,0.18 0.284,0.517 0.495,0.517 h 2.49 c 0.157,0 0.391,-0.36 0.391,-0.517 v -1.826 h 0.978 v 2.445 c 0,0.315 -0.668,1.024 -1.025,1.024 h -1.123 v 2.17 h -1.068 v -2.17 h -1.264 c -0.48,0 -0.846,-0.767 -0.846,-1.024 z"
       fill="#16141d"
       stroke="#16141d"
       stroke-width="0.0412218"
       id="path49"
       style="fill:#ffffff" />
    <path
       d="m 195.086,56.43 c 1.881,-0.013 3.763,-0.018 5.648,0 0.022,1.885 0.014,3.751 0.014,5.633 h -1.233 c 0.005,-1.478 0,-2.936 0.013,-4.41 -1.477,0.005 -2.955,0.01 -4.433,-0.004 0,-0.307 -0.009,-0.917 -0.009,-1.22 z"
       fill="#171520"
       stroke="#171520"
       stroke-width="0.0412218"
       id="path50"
       style="fill:#ffffff" />
    <path
       d="m 208.514,56.435 h 0.997 l 1.63,2.27 1.791,-2.27 c 0.263,-0.018 0.75,0.013 1.013,0 v 5.628 h -1.013 v -3.638 l -1.765,2.162 -1.656,-2.184 v 3.66 h -1.001 z"
       fill="#171523"
       stroke="#171523"
       stroke-width="0.0412218"
       id="path51"
       style="fill:#ffffff" />
    <path
       d="m 216.131,56.397 h 1.208 v 3.567 l 1.63,-2.065 1.613,1.982 c 0.027,-1.175 -0.026,-2.309 0,-3.484 h 1.167 c 0.057,1.886 0.035,3.78 0.035,5.666 h -1.202 l -1.591,-2.31 -1.652,2.31 h -1.216 c 0.004,-1.89 -0.01,-3.776 0.008,-5.666 z"
       fill="#151321"
       stroke="#151321"
       stroke-width="0.0412218"
       id="path52"
       style="fill:#ffffff" />
    <path
       d="m 236.74,56.403 h 1.053 v 5.66 h -1.053 z"
       fill="#17151f"
       stroke="#17151f"
       stroke-width="0.0412218"
       id="path53"
       style="fill:#ffffff" />
    <path
       d="m 240.457,56.403 h 1.54 l -2.735,2.93 2.734,2.73 h -1.54 l -2.135,-2.238 v -0.97 z"
       fill="#14121e"
       stroke="#14121e"
       stroke-width="0.0412218"
       id="path54"
       style="fill:#ffffff" />
    <path
       d="m 152.967,57.077 h 1.153 v 4.27 c 0,0.378 -0.306,0.716 -0.538,0.716 h -5.055 c 0.017,-0.294 0.057,-0.888 0.074,-1.178 h 4.366 V 59.9 h -3.888 c -0.287,0 -0.484,-0.343 -0.486,-0.61 l -0.018,-2.212 h 1.285 v 1.644 h 3.107 z"
       fill="#161421"
       stroke="#161421"
       stroke-width="0.0412218"
       id="path55"
       style="fill:#ffffff" />
    <path
       d="m 103.428,58.25 c 2.245,-0.084 4.495,0.298 6.74,-0.035 -2.464,1.31 -5.021,2.425 -7.503,3.688 0.175,-1.228 0.22,-2.513 0.763,-3.653 z"
       fill="#63afff"
       stroke="#63afff"
       stroke-width="0.0412218"
       id="path56" />
    <path
       d="m 22.948,65.218 c 1.916,-3.135 5.039,-6.017 8.867,-6.267 -1.048,1.553 -2.535,2.759 -3.495,4.377 -1.688,2.451 -2.658,5.284 -3.877,7.977 -1.245,2.776 -2.539,5.534 -4,8.205 -0.328,0.509 -0.556,1.24 -1.249,1.337 -4.302,0.566 -8.183,-2.578 -12.49,-1.723 1.049,-0.89 1.996,-1.89 2.9,-2.925 2.876,-0.667 5.446,-2.579 6.832,-5.197 1.035,-0.114 2.135,-0.14 3.026,-0.758 1.534,-0.886 1.995,-2.693 2.947,-4.066 0.36,1.22 0.714,2.439 1.153,3.636 -0.18,-1.535 -0.364,-3.07 -0.614,-4.596 z"
       fill="#e9e7ea"
       stroke="#e9e7ea"
       stroke-width="0.0412218"
       id="path57" />
    <path
       d="m 57.706,62.411 c 2.807,-2.416 6.618,-2.973 10.179,-3.302 3.832,0.145 7.696,1.197 10.814,3.495 3.894,2.974 6.604,7.495 7.24,12.367 -0.57,1.89 -2.026,1.998 -2.311,7.574 -1.022,0.767 -0.836,2.087 -1.49,3.197 -1.561,2.701 -5.9,4.592 -8.969,4.368 -3.18,-0.044 -9.842,-2.98 -11.183,-4.14 -0.42,-1.097 -0.932,-0.371 -1.77,-1.248 -0.407,0.272 -0.815,0.287 -0.98,-0.464 -0.255,-2.566 0.316,-5.467 1.018,-7.792 -1.245,1.084 -1.995,2.57 -2.565,4.096 -2.5,-1.057 -4.658,-3.31 -4.71,-6.152 -0.08,-4.372 1.254,-9.104 4.727,-11.999 z"
       fill="#ecba89"
       stroke="#ecba89"
       stroke-width="0.0412218"
       id="path58" />
    <path
       d="m 25.167,71.976 c 1.728,-4.333 3.649,-8.793 7.012,-12.13 0.991,0.631 0.088,1.737 0.333,2.605 0.566,2.574 2.197,4.907 4.355,6.416 -1.364,0.824 -2.653,1.833 -3.43,3.254 -1.99,-0.32 -3.788,-1.224 -5.683,-1.842 1.171,1.236 2.855,1.68 4.346,2.39 -2.355,1.956 -3.17,5.003 -4.048,7.797 -0.622,2.175 -1.736,4.272 -2.955,6.167 h -6.802 c 2.807,-4.631 4.96,-9.596 6.872,-14.657 z"
       fill="#e9e7ea"
       stroke="#e9e7ea"
       stroke-width="0.0412218"
       id="path59" />
    <path
       d="m 33.622,61.745 c 1.307,1.267 2.469,2.74 4.113,3.605 a 16.974,16.974 0 0 1 -0.1,3.021 c -2.39,-1.28 -4.044,-3.894 -4.013,-6.626 z"
       fill="#e9e8ed"
       stroke="#e9e8ed"
       stroke-width="0.0412218"
       id="path60" />
    <path
       d="m 20.05,62.425 c 2.323,2.661 0.087,7.042 -3.145,7.687 0.399,-1.688 0.614,-3.412 0.588,-5.148 1.074,-0.597 1.934,-1.483 2.556,-2.54 z"
       fill="#edb985"
       stroke="#edb985"
       stroke-width="0.0412218"
       id="path61" />
    <path
       d="m 38.35,65.42 c 0.718,0.49 1.547,0.201 2.341,0.18 a 42.847,42.847 0 0 1 11.586,2.32 c -0.263,0.653 -0.53,1.306 -0.785,1.964 -4.026,0.526 -8.222,0.855 -12.13,-0.517 0.022,-1.184 0.049,-2.369 -0.013,-3.548 -0.697,1.03 -0.123,2.43 -0.864,3.455 C 38.121,68.016 38.371,66.7 38.349,65.42 Z"
       fill="#e9e7eb"
       stroke="#e9e7eb"
       stroke-width="0.0412218"
       id="path62" />
    <path
       d="m 34.17,72.151 c 0.82,-1.451 2.013,-2.798 3.71,-3.18 -0.474,1.33 -1.719,2.128 -2.574,3.198 z"
       fill="#e9e7ea"
       stroke="#e9e0db"
       stroke-width="0.0412218"
       id="path63" />
    <path
       d="m 35.89,72.568 c 0.653,-1.088 1.438,-2.118 2.573,-2.741 4.193,1.28 8.653,1.228 12.946,0.526 -0.241,1.583 -0.28,3.206 0.044,4.78 -3.618,3.123 -2.022,9.026 1.552,11.5 -8.402,0.022 -16.809,0.087 -25.211,0 1.403,-4.894 2.618,-10.53 7.21,-13.477 2.762,0.42 5.56,0.342 8.349,0.31 1.035,0.027 2.013,-0.346 2.956,-0.74 -3.473,0.42 -6.942,-0.193 -10.42,-0.158 z"
       fill="#e9e7ea"
       stroke="#e9e7ea"
       stroke-width="0.0412218"
       id="path64" />
    <path
       d="m 33.012,72.63 c 0.316,0.153 0.636,0.306 0.956,0.464 a 15.298,15.298 0 0 0 -4.626,7.039 c -0.697,2.166 -1.36,4.434 -2.316,6.5 h -1.21 c 1.456,-2.653 2.49,-5.5 3.39,-8.382 0.693,-2.201 2.039,-4.144 3.806,-5.622 z"
       fill="#e9e7ea"
       stroke="#fdfefa"
       stroke-width="0.0412218"
       id="path65" />
    <path
       d="m 86.273,76.627 c 0.3,4.594 -0.567,9.519 -3.578,13.146 -2.564,3.2 -6.903,5.022 -10.969,4.136 -4.13,-0.91 -8.422,-2.572 -11.022,-6.087 -0.716,-1.24 -1.862,-3.482 -1.371,-4.765 0.517,0.07 1.856,1.11 2.447,1.95 1.717,2.409 4.74,3.179 7.455,3.857 2.756,0.462 5.752,0.882 8.372,-0.38 2.67,-1.024 4.4,-3.597 5.119,-6.28 0.784,-2.414 0.89,-5.058 2.117,-7.316 0.382,-0.254 0.79,-2.465 1.43,1.74 z"
       fill="#deac8b"
       stroke="#e1ae8a"
       stroke-width="0.0412218"
       id="path66" />
    <path
       d="m 3.775,74.717 c 1.127,0.701 2.311,1.394 3.67,1.508 a 33.315,33.315 0 0 1 -2.57,2.53 C 4.402,77.44 4.065,76.081 3.775,74.717 Z"
       fill="#e5e8ec"
       stroke="#e5e8ec"
       stroke-width="0.0412218"
       id="path67" />
    <path
       d="m 51.04,80.904 c -0.096,-1.236 0.33,-2.486 1.198,-3.38 1.074,2.166 3.078,3.71 5.337,4.49 0.127,1.57 0.24,3.157 0.688,4.68 -3.517,0.547 -6.766,-2.404 -7.223,-5.79 z"
       fill="#dfae8a"
       stroke="#dfae8a"
       stroke-width="0.0412218"
       id="path68" />
  </g>
  <path
     d="M38.299 46.759s.596-.362.882-.56c.236-.163.461-.339.686-.515.185-.144.373-.285.545-.444.14-.129.275-.265.394-.413.101-.127.19-.264.272-.404.215-.375.454-.91.53-1.145-.056-.08-.213-.041-.293.015-.083.319-.33.72-.493 1.081-.54.675-1.138 1.162-1.772 1.607-.233.147-.51.333-.727.466l-3.764-3.417-.049.283z"
     fill="#322010"
     fill-rule="evenodd"
     id="path69" />
  <path
     d="M41.7 7.24c1.188.964 1.993 2.36 3.488 2.891 1.167 1.85 2.62 3.581 4.002 5.274 3.46 3.719 7.692 6.933 12.599 8.446 3.771.855 7.71.452 11.494 1.25 7.518 2.503 3.844 13.535.71 16.778-.289-1.771-1.916-2.859-2.977-4.175.605-.092 1.214-.18 1.82-.272-.68-.938-1.526-1.732-2.434-2.447.241-.061.719-.175.96-.236a94.13 94.13 0 0 1-1.504-1.983c-8.941 1.032-15.94.125-18.734-1.876-.974.556-2.083 1.034-2.72 2.012-.666 1.29-.666 2.78-.924 4.18-.9-1.162-.724-2.636-.768-4.013.11-.64-.934-.881-.666-1.526.526-1.088 1.925-1.167 2.92-1.61-.324-.363-.644-.727-.969-1.096.167-2.342.478-4.797-.272-7.069-.215.588-.416 1.184-.623 1.78-1.328.873-.613 2.504.18 3.478.066.228.193.684.259.917-.97-.435-1.544-1.33-2.254-2.062l-.238-.277c-.953-1.107-1.606-3.844-1.801-5.125-.224-.82-.21-1.847-1.018-2.346-.21.982.022 2.223-.912 2.885-1.465 1.324-2.995 2.57-4.504 3.846-.442-4.302 2.588-7.714 3.759-11.626.745-1.912.916-3.973 1.127-5.999m9.854 14.2c-1.658 1.842-2.47 4.403-2.145 6.863.101.447.08 1.162.654 1.28.92-2.096 1.513-4.332 1.82-6.6.144-.552-.08-1.065-.33-1.543m.123 8.253c1.048-1.31 1.351-2.969 1.636-4.574-1.127 1.246-2.096 2.829-1.636 4.574"
     fill="#593016"
     stroke="#331e0d"
     stroke-miterlimit="10"
     stroke-width=".10524719999999999"
     id="path70" />
  <path
     d="M201.765 56.4h5.668v1.172h-4.542v1.09h4.542v1.171l-4.542.02v1.04h4.542v1.17h-4.542c-.56.032-1.14-.455-1.126-1.002z"
     fill="#171520"
     stroke="#161423"
     stroke-miterlimit="10"
     stroke-width=".016225609999999998"
     id="path71"
     style="fill:#ffffff" />
  <path
     d="M223.484 57.609c.752-.998 1.876-1.144 2.936-1.144 1.061 0 2.163.385 2.725 1.032.562.648.627 1.447.562 2.215-.026.944-.728 1.758-1.582 2.09-1.063.403-2.236.387-3.32.088-.838-.293-1.572-.957-1.754-1.85-.099-.822-.116-1.75.433-2.431m2.936-.028c-1.038 0-2.31.235-2.31 1.7 0 1.463 1.478 1.735 2.31 1.735.833 0 2.22-.368 2.22-1.736s-1.181-1.699-2.22-1.699z"
     fill="#161422"
     stroke="#151422"
     stroke-miterlimit="10"
     stroke-width=".016225609999999998"
     id="path72"
     style="fill:#ffffff" />
  <path
     d="M189.088 56.64c.29-.153.332-.2 1.38-.2l3.753-.006c.018.294-.013.954 0 1.252H190.5l3.32 2.498c1.018.702.632 1.83.228 1.879h-4.824c.009-.294-.009-.886 0-1.184h3.723c-1.245-.948-2.557-1.827-3.74-2.853-.48-.408-.41-1.234-.12-1.387zM242.979 56.64c.29-.153.331-.237 1.38-.237h3.753c.017.294-.013.985 0 1.283h-3.721l3.32 2.498c1.017.702.632 1.83.228 1.879h-4.824c.008-.294-.01-.886 0-1.184h3.723c-1.246-.948-2.557-1.827-3.74-2.853-.48-.408-.41-1.234-.12-1.387z"
     fill="#161421"
     stroke="#161421"
     stroke-miterlimit="10"
     stroke-width=".04122182"
     id="path73"
     style="fill:#ffffff" />
  <path
     d="M56.494 32.83c.03.004.074.1.098.095.025-.004.289-.082.289-.082l-.092-.058-.178.02z"
     fill="#322010"
     fill-rule="evenodd"
     id="path74" />
  <path
     d="M230.5 56.403c1.226 0 3.92-.236 4.851.926.378.47.368 1.18.009 1.714-.359.535-1.082.658-1.852.87l2.443 2.15h-1.29l-2.506-2.15v-.925c.799 0 2.476.203 2.476-.687s-1.936-.695-3.118-.695c.004 1.473 0 2.983 0 4.457h-1.009c-.004-1.89-.004-3.77-.004-5.66z"
     fill="#191724"
     stroke="#191724"
     stroke-miterlimit="10"
     stroke-width=".04122182"
     id="path75"
     style="fill:#ffffff" />
</svg>
