<?xml version="1.0" encoding="UTF-8" standalone="no"?>
<svg
   xmlns:dc="http://purl.org/dc/elements/1.1/"
   xmlns:cc="http://creativecommons.org/ns#"
   xmlns:rdf="http://www.w3.org/1999/02/22-rdf-syntax-ns#"
   xmlns:svg="http://www.w3.org/2000/svg"
   xmlns="http://www.w3.org/2000/svg"
   viewBox="0 0 3840 1629.3333"
   height="1629.3333"
   width="3840"
   xml:space="preserve"
   id="svg2"
   version="1.1"><metadata
     id="metadata8"><rdf:RDF><cc:Work
         rdf:about=""><dc:format>image/svg+xml</dc:format><dc:type
           rdf:resource="http://purl.org/dc/dcmitype/StillImage" /></cc:Work></rdf:RDF></metadata><defs
     id="defs6" /><g
     transform="matrix(1.3333333,0,0,-1.3333333,0,1629.3333)"
     id="g10"><g
       transform="scale(0.1)"
       id="g12"><g
         transform="scale(1.75744)"
         id="g14"><path
           id="path16"
           style="fill:#000000;fill-opacity:1;fill-rule:nonzero;stroke:none"
           d="M 2784.17,110.668 V 2235.5 l -160.45,-22.18 c -361.06,-49.08 -681.55,-102.42 -948.7,-160.49 L 868.871,1879.16 1060.49,4859.21 125.051,4837.01 262.876,6832.97 15030.4,6828.7 c 534.7,0 984.5,-418.67 1024.6,-953.38 l 222.8,-2940.36 c 22.2,-267.15 -71.3,-534.74 -253.9,-730.63 -182.7,-195.86 -440.9,-311.95 -712.7,-311.95 -98.1,0 -191.6,13.22 -285.1,44.39 -262.8,80.24 -628.1,155.76 -1078,227.02 l -129.3,17.94 v -530.05 h -285 V 101.29 Z" /></g><g
         transform="scale(1.76687)"
         id="g18"><path
           id="path20"
           style="fill:#ec1c27;fill-opacity:1;fill-rule:nonzero;stroke:none"
           d="m 363.348,6690.37 14582.552,-4.25 c 474.1,0 872.7,-372.28 908.4,-841.75 l 221.6,-2924.66 c 17.8,-234.75 -62,-469.47 -225.8,-646.91 -159.6,-172.75 -390.1,-274.63 -624.9,-274.63 -84,0 -168.5,13.15 -252.5,39.91 -265.8,84.03 -633.8,159.6 -1085.4,230.47 l -256.9,39.91 V 1763 h -283.5 V 220.86 H 2880.93 v 2131.33 l -252.57,-35.66 -35.63,-4.24 c -363.38,-48.82 -682.57,-101.88 -952.54,-159.6 L 980.129,2010.91 1166.03,4948.72 235.586,4930.9 363.348,6690.37 M 154.935,6911.94 0,4705.06 935.139,4727.15 744.543,1736.25 1692.83,1940 c 265.72,57.75 576.01,110.81 935.12,159.63 l 35.66,4.24 V 3.53733 H 13568.5 V 1545.68 h 283.5 v 509.38 c 531.9,-84.06 859.6,-163.87 1054.4,-221.6 101.9,-30.97 208.5,-48.81 314.6,-48.81 296.7,0 584.9,123.96 788.7,345.53 203.7,216.9 305.6,514.04 283.5,810.75 l -221.6,2924.66 c -44.6,589.61 -540.7,1050.59 -1130.4,1050.59 z" /></g><path
         id="path22"
         style="fill:#e59e24;fill-opacity:1;fill-rule:nonzero;stroke:none"
         d="m 6365.23,10951.8 -5018.24,7.5 -86.25,-1276.57 1636.53,39.03 L 2576.25,4735 c 501.02,109.49 1088.24,203.24 1746.02,297.73 l 297.73,4728.75 1746.02,39.03 z" /><path
         id="path24"
         style="fill:#e59e24;fill-opacity:1;fill-rule:nonzero;stroke:none"
         d="m 8275.51,7773.24 2544.69,93.75 v 915.74 H 8322.73 l 39.03,845.28 h 2497.54 l 446.2,931.49 H 7030.51 l -289.49,-4767 c 1197.73,132.73 2567.96,234.77 4047.78,289.49 l 38.9,86.25 375.8,900 c -1025.3,-31.48 -2058.73,-78.01 -2959.52,-140.97 z" /><g
         transform="scale(1.00721)"
         id="g26"><path
           id="path28"
           style="fill:#e59e24;fill-opacity:1;fill-rule:nonzero;stroke:none"
           d="m 13797.3,8246.3 2090.9,2238.4 h -1725.3 l -248.7,-264.4 -909.2,-971.74 v 1243.54 h -1414.8 l -54.4,-4414.89 c 481.8,15.63 971.8,23.08 1469.2,31.26 V 7282 l 1335.9,-1166.09 c 668.6,-7.44 1321.7,-15.62 1959.1,-38.7 z" /></g><g
         transform="scale(1.29828)"
         id="g30"><path
           id="path32"
           style="fill:#e59e24;fill-opacity:1;fill-rule:nonzero;stroke:none"
           d="m 15136,4570.29 c 410.1,-30.07 796,-66.44 1164,-108.62 v 17.9 L 16119.2,8134 h -3322.9 l 60.1,-3437.23 c 392.3,-12.13 778.1,-30.03 1145.6,-48.5 l -90.7,2774.04 h 1139.8 z" /></g><g
         transform="scale(1.6806)"
         id="g34"><path
           id="path36"
           style="fill:#e59e24;fill-opacity:1;fill-rule:nonzero;stroke:none"
           d="m 16281.3,3050.86 -233,3074.8 c -18.7,219.11 -200.4,386.46 -419.1,386.46 h -2217.4 c -242.4,0 -433.4,-204.84 -419.1,-442.72 l 139.7,-2445.55 c 18.7,-293.63 242.3,-531.06 535.5,-563.62 926.9,-102.65 1667.7,-232.97 2147.5,-382.01 247.2,-74.98 484.6,120.94 465.9,372.64 z m -2082.3,652 -116.5,2087.19 h 936.3 l 153.5,-2198.76 z" /></g><path
         id="path38"
         style="fill:#ec1c27;fill-opacity:1;fill-rule:nonzero;stroke:none"
         d="M 6498.01,10904.5 1479.77,10912 1393.52,9635.51 3030,9674.49 2708.98,4687.73 C 3210,4797.27 3797.27,4891.02 4455,4985.51 l 296.99,4729.49 1746.02,38.98 z" /><path
         id="path40"
         style="fill:#ec1c27;fill-opacity:1;fill-rule:nonzero;stroke:none"
         d="m 8416.48,7726.02 2544.82,93.75 v 916.48 H 8463.75 l 38.98,845.23 h 2497.47 l 446.3,931.52 H 7171.48 L 6881.99,5745.23 C 8079.77,5878.01 9450,5980 10929.8,6034.77 l 39,86.25 375.7,900 C 10319.3,6989.49 9285.74,6943.01 8385,6880 Z" /><g
         transform="scale(1.0154)"
         id="g42"><path
           id="path44"
           style="fill:#ec1c27;fill-opacity:1;fill-rule:nonzero;stroke:none"
           d="M 13816.7,8140.65 15890.8,10361 h -1711.4 l -246.7,-262.3 -901.9,-963.86 v 1233.46 h -1403.4 l -53.9,-4379.28 c 477.9,15.5 963.9,22.89 1457.3,31 v 1141.96 l 1325.8,-1156.73 c 663.3,-7.39 1311.1,-15.5 1943.4,-38.39 z" /></g><g
         transform="scale(1.30647)"
         id="g46"><path
           id="path48"
           style="fill:#ec1c27;fill-opacity:1;fill-rule:nonzero;stroke:none"
           d="m 15143.3,4511.76 c 407.5,-29.84 791,-66.02 1156.7,-107.9 v 17.79 l -180.3,3631.52 h -3308.3 l 59.7,-3415.68 c 389.8,-12.05 773.3,-29.84 1138.4,-48.24 l -90.2,2756.69 H 15052 Z" /></g><g
         transform="scale(1.68925)"
         id="g50"><path
           id="path52"
           style="fill:#ec1c27;fill-opacity:1;fill-rule:nonzero;stroke:none"
           d="m 16281.3,3007.25 -231.7,3059.05 c -18.7,217.99 -199.4,384.49 -416.9,384.49 h -2201.3 c -241.1,0 -431.1,-203.8 -416.9,-440.42 l 139,-2433.04 c 18.6,-292.15 241.1,-528.34 532.7,-560.76 922.2,-102.12 1659.2,-231.75 2136.5,-380.04 236.2,-69.7 477.3,120.31 458.6,370.72 z m -2076,648.66 -115.9,2076.53 h 931.5 l 152.7,-2187.53 z" /></g><g
         transform="scale(1.26262)"
         id="g54"><path
           id="path56"
           style="fill:#23a8e0;fill-opacity:1;fill-rule:nonzero;stroke:none"
           d="M 14198.4,3378.3 V 1350.95 c 0,-179.96 149.1,-328.46 328.5,-328.46 h 1444.6 c 180,0 328.5,149.09 328.5,328.46 V 3378.3 c 0,179.95 -149.1,328.45 -328.5,328.45 h -1444.6 c -179.4,0.63 -328.5,-142.56 -328.5,-328.45 z m 706.9,-1823.01 v 1624.6 h 688.4 v -1624.6 z" /></g><g
         transform="scale(1.25692)"
         id="g58"><path
           id="path60"
           style="fill:#1c75ba;fill-opacity:1;fill-rule:nonzero;stroke:none"
           d="m 15758.2,2241.41 v -679.05 c 0,-50.13 -37.6,-87.11 -87.1,-87.11 h -691.6 c -50.1,0 -87.1,37.56 -87.1,87.11 v 679.05 h -529.9 v -878.36 c 0,-130.68 105.6,-242.84 242.9,-242.84 h 1451.8 c 130.6,0 242.8,105.6 242.8,242.84 v 878.36 z" /></g><path
         id="path62"
         style="fill:#23a8e0;fill-opacity:1;fill-rule:nonzero;stroke:none"
         d="M 9794.26,1291.02 H 11751 l -1314.7,3390 h -846.07 l -1314.72,-3390 h 868.47 l 869.22,2238.75 610.6,-1566.02 h -829.54 z" /><path
         id="path64"
         style="fill:#1c75ba;fill-opacity:1;fill-rule:nonzero;stroke:none"
         d="m 11039.3,2817.27 548.2,-1409.26 H 9911.99 v 446.25 h 712.51 c 39,0 70.5,15.74 93.7,47.22 23.3,31.53 23.3,70.51 15.8,102.04 l -313.5,806.25" /><path
         id="path66"
         style="fill:#1c75ba;fill-opacity:1;fill-rule:nonzero;stroke:none"
         d="M 9614.26,2817.27 9066.02,1400.51 h -626.25 l 548.24,1416.76" /><path
         id="path68"
         style="fill:#23a8e0;fill-opacity:1;fill-rule:nonzero;stroke:none"
         d="M 8110.51,4681.02 H 5996.99 v -3390 h 892.5 v 1479.72 h 1346.25 c 227.27,0 414.77,188.24 414.77,414.77 v 1080.74 c 0,227.27 -188.24,414.77 -414.77,414.77 z M 6889.49,4007.5 h 869.262 V 3295 H 6889.49 Z" /><path
         id="path70"
         style="fill:#1c75ba;fill-opacity:1;fill-rule:nonzero;stroke:none"
         d="m 6106.48,1408.01 h 665.281 V 2817.27 H 6106.48 Z" /><g
         transform="scale(1.42219)"
         id="g72"><path
           id="path74"
           style="fill:#23a8e0;fill-opacity:1;fill-rule:nonzero;stroke:none"
           d="M 16300,3291.41 H 14697.9 V 2823.1 h 616.5 V 907.766 h 627.5 V 2823.1 h 358.1 z" /></g><g
         transform="scale(1.38423)"
         id="g76"><path
           id="path78"
           style="fill:#1c75ba;fill-opacity:1;fill-rule:nonzero;stroke:none"
           d="m 16300,2035.26 v -1023.5 h -480.6 v 1023.5" /></g><g
         transform="scale(1.08584)"
         id="g80"><path
           id="path82"
           style="fill:#23a8e0;fill-opacity:1;fill-rule:nonzero;stroke:none"
           d="m 15557.5,2551.69 h 274.2 c 209.3,0 382,173.36 382,381.98 v 995.3 c 0,209.3 -173.4,381.98 -382,381.98 h -2054.9 v -3122 h 822 v 1362.74 h 136.7 l 742.6,-1362.74 h 821.9 z m -966.3,482.82 v 656.17 h 800.5 v -656.17 z" /></g><path
         id="path84"
         style="fill:#1c75ba;fill-opacity:1;fill-rule:nonzero;stroke:none"
         d="m 15069,1408.01 h 665.281 V 2817.27 H 15069 Z" /><g
         transform="scale(1.07384)"
         id="g86"><path
           id="path88"
           style="fill:#1c75ba;fill-opacity:1;fill-rule:nonzero;stroke:none"
           d="M 15585.5,2623.56 16300,1304.21 h -590.2 l -714.5,1319.35" /></g><path
         id="path90"
         style="fill:#23a8e0;fill-opacity:1;fill-rule:nonzero;stroke:none"
         d="m 13838.2,1291.02 h 892.5 l -806.2,1479.72 h 297.8 c 227.2,0 414.7,188.24 414.7,414.77 v 1080.74 c 0,227.27 -188.2,414.77 -414.7,414.77 h -2232.1 v -3390 h 892.5 v 1479.72 h 148.6 z M 12883.5,4015 h 869.211 V 3302.5 H 12883.5 Z" /><path
         id="path92"
         style="fill:#1c75ba;fill-opacity:1;fill-rule:nonzero;stroke:none"
         d="m 12108,1408.01 h 665.23 V 2817.27 H 12108 Z" /><path
         id="path94"
         style="fill:#1c75ba;fill-opacity:1;fill-rule:nonzero;stroke:none"
         d="m 13776,2817.27 766.5,-1416.76 h -633.7 l -767.3,1416.76" /><path
         id="path96"
         style="fill:#a31e22;fill-opacity:1;fill-rule:nonzero;stroke:none"
         d="m 4415.23,7930 c -438.75,-31.48 -860.97,-70.51 -1276.48,-109.49 v -47.27 l -180,-2810.23 c 383.24,78.01 814.49,148.47 1291.48,211.48 l 164.26,2693.24 z" /><path
         id="path98"
         style="fill:#a31e22;fill-opacity:1;fill-rule:nonzero;stroke:none"
         d="M 10733.2,8251.02 C 9527.27,8219.49 8361.02,8173.01 7249.49,8110 v -38.98 L 7124.26,5996.48 c 1111.48,117.78 2340.74,203.29 3656.24,258.01 l 219,524.26 C 10044,6747.27 9151.48,6700.74 8400,6646.02 l -250.51,-15.79 63.01,1307.27 2536.5,93.75 v 218.98 h -15.8 z" /><path
         id="path100"
         style="fill:#a31e22;fill-opacity:1;fill-rule:nonzero;stroke:none"
         d="m 13708.5,8242.73 2223.8,-1941.71 c -423,7.5 -845.3,15.74 -1268.3,15.74 L 13004.3,7765 V 6316.76 c -344.3,-7.5 -689.3,-7.5 -1025.3,-23.24 l 23.3,1980.74 c 579,7.5 1166.2,15.74 1761.7,23.24 z" /><g
         transform="scale(1.10857)"
         id="g102"><path
           id="path104"
           style="fill:#a31e22;fill-opacity:1;fill-rule:nonzero;stroke:none"
           d="m 15339.3,7456.44 28.4,-1800.99 c 310.5,-14.2 628.5,-28.4 932.3,-42.6 l -56.8,1779.99 v 70.36 c -296.4,6.77 -600.2,14.2 -903.9,14.2 z" /></g><g
         transform="scale(1.29202)"
         id="g106"><path
           id="path108"
           style="fill:#a31e22;fill-opacity:1;fill-rule:nonzero;stroke:none"
           d="m 16215.3,6337.35 84.7,-1690.39 c -260.6,30.2 -533.5,54.57 -817.9,78.97 l -48.8,1647.97 c 267,-18.56 527.1,-24.37 782,-36.55 z" /></g><g
         transform="scale(1.67338)"
         id="g110"><path
           id="path112"
           style="fill:#a31e22;fill-opacity:1;fill-rule:nonzero;stroke:none"
           d="m 15462.8,3428.84 -1249.2,144.78 -70.3,1239.7 c -262.2,18.84 -528.9,32.73 -804.5,46.62 v -23.3 l 70.3,-1211.92 c 13.9,-229.03 187.4,-416.38 416.4,-439.68 940.3,-107.57 1698.2,-238.46 2180,-388.16 23.3,-4.48 46.6,-9.41 65.4,-9.41 61,0 121.5,28.25 163.6,74.87 42.2,46.59 65.5,107.57 61,173 L 16174,4644.8 v 9.41 c -257.2,28.25 -528.8,51.54 -804.5,74.87 z" /></g><path
         id="path114"
         style="fill:#000000;fill-opacity:1;fill-rule:nonzero;stroke:none"
         d="m 15540.7,10192 c 0,0 -963,-665.24 -1088.2,-806.26 -125.2,-140.97 -195.7,47.27 -383.2,-172.5 -188.3,-211.48 -649.5,-438.75 -790.5,-594.72 -141.1,-156.76 -626.3,-509.26 -618.8,-555.79 7.5,-46.48 -250.5,-218.98 -250.5,-218.98 0,0 -148.5,31.48 -297.7,-188.24 -148.6,-219.03 -485.3,-313.52 -571.6,-414.77 -86.2,-101.99 -500.9,-266.25 -500.9,-266.25 0,0 626.2,164.26 735.7,273.75 109.5,109.49 1573.5,1080.74 1746,1307.27 172.5,227.22 477.8,368.24 493.5,368.24 15.7,7.5 219,250.51 399,305.23 164.2,63.01 993.8,798.72 1127.2,963.02 z" /><g
         transform="scale(1.05571)"
         id="g116"><path
           id="path118"
           style="fill:#000000;fill-opacity:1;fill-rule:nonzero;stroke:none"
           d="m 16300,9780.67 c 0,0 -1231.2,-756.61 -1312.9,-890.18 -81.7,-125.73 -586.1,-289.13 -890.1,-563.34 -304.1,-274.27 -912.2,-526.47 -1001,-667.1 -88.8,-133.58 -467.5,-422.7 -534.3,-563.39 -66.7,-140.63 -230.1,-81.7 -274.2,-118.62 -44.7,-36.97 -125.7,-185.41 -200.3,-230.19 -73.9,-44.77 -215.3,-59.68 -348.8,-163.4 C 11604.8,6480.74 10196,5442.07 10196,5442.07 c 0,0 1661,919.3 1772.5,1045.78 111.6,126.42 682,459.62 897.3,623.02 392.9,296.98 838.3,808.48 1164.4,912.2 0,0 274.2,355.91 637.9,467.47 363.8,110.82 853.3,792.83 1631.9,1290.13 z" /></g><g
         transform="scale(1.06003)"
         id="g120"><path
           id="path122"
           style="fill:#000000;fill-opacity:1;fill-rule:nonzero;stroke:none"
           d="m 16285.1,8957.5 c 14.9,7.07 -280.9,-125.22 -679.2,-450.68 -399,-324.76 -384.2,-413.9 -494.5,-428.05 -103.4,-21.93 -605.7,-251.18 -701.9,-428.06 -96.3,-176.88 -738.7,-391.28 -820.1,-494.56 -81.3,-96.22 -575.9,-517.2 -650.1,-635.34 -66.6,-118.18 -384.3,-280.91 -465.6,-280.91 -81.4,0 -309.9,-103.29 -428.1,-280.87 C 11927.5,5781.45 10982.2,5139 10982.2,5139 c 0,0 1026.7,575.93 1211.3,723.81 184.7,147.84 768.4,539.12 938.2,627.56 147.9,81.37 716.7,679.23 1159.6,930.4 421,236.32 243.4,273.09 790.3,524.27 561.1,259.68 442.9,576.63 1203.5,1012.46 z" /></g><path
         id="path124"
         style="fill:#a31e22;fill-opacity:1;fill-rule:nonzero;stroke:none"
         d="m 15540.7,10192 c 0,0 -1065,-634.5 -1190.2,-783.02 -125.3,-140.97 -195.7,47.27 -383.2,-172.5 C 13779,9025 13317.7,8797.73 13176.8,8641.76 13035.7,8485 12550.5,8132.5 12558,8086.02 c 7.5,-47.27 -250.5,-219.03 -250.5,-219.03 0,0 -148.5,31.53 -297.7,-188.24 -148.5,-218.98 -469.6,-328.52 -555.8,-438.75 -86.3,-101.99 -414.7,-273.75 -414.7,-273.75 0,0 524.2,188.24 634.5,297.73 109.4,109.54 1573.5,1080.79 1746,1307.27 172.5,227.27 477.7,368.24 493.4,368.24 15.8,7.5 219.1,250.51 399.1,305.28 155.9,78.75 1095,782.93 1228.4,947.23 z" /><g
         transform="scale(1.05571)"
         id="g126"><path
           id="path128"
           style="fill:#a31e22;fill-opacity:1;fill-rule:nonzero;stroke:none"
           d="m 16300,9780.67 c 0,0 -1334.9,-733.89 -1408.8,-860.32 -81.7,-125.77 -586.1,-289.17 -890.1,-563.39 -304.1,-274.21 -912.2,-526.41 -1001,-667.09 -88.8,-133.54 -467.5,-422.7 -534.3,-563.34 -66.7,-140.69 -230.1,-81.7 -274.2,-118.67 -44.7,-36.92 -125.7,-185.41 -200.3,-230.19 -73.9,-44.73 -215.3,-59.64 -348.8,-163.4 C 11508.9,6510.56 10196,5449.92 10196,5449.92 c 0,0 1557.3,942.02 1668.8,1075.55 111.6,125.78 682,459.68 897.3,623.07 392.8,296.93 838.3,808.44 1164.4,912.2 0,0 274.2,355.91 637.9,467.43 370.9,103.01 957,755.2 1735.6,1252.5 z" /></g><g
         transform="scale(1.06003)"
         id="g130"><path
           id="path132"
           style="fill:#a31e22;fill-opacity:1;fill-rule:nonzero;stroke:none"
           d="m 16285.1,8957.5 c 14.9,7.07 -399,-147.84 -805.1,-472.6 -399.1,-324.77 -369.4,-361.54 -472.7,-384.21 -103.3,-21.92 -605.6,-251.17 -701.8,-428.05 -96.2,-177.58 -738.7,-391.24 -820.1,-494.57 -81.3,-103.29 -575.9,-517.2 -650.2,-635.33 -73.6,-118.19 -302.8,-280.92 -384.1,-280.92 -81.4,0 -354.5,-154.91 -472.7,-324.72 -118.1,-177.62 -996.9,-797.41 -996.9,-797.41 0,0 923.3,605.64 1115.1,753.52 184.7,147.88 768.4,539.16 938.2,627.6 147.8,81.37 716.7,679.23 1159.6,930.4 420.9,236.28 243.4,273.1 790.3,524.27 554.7,258.25 539.8,546.19 1300.4,982.02 z" /></g></g></g></svg>