<?xml version="1.0" encoding="UTF-8" standalone="no"?>
<svg
   xmlns:dc="http://purl.org/dc/elements/1.1/"
   xmlns:cc="http://creativecommons.org/ns#"
   xmlns:rdf="http://www.w3.org/1999/02/22-rdf-syntax-ns#"
   xmlns:svg="http://www.w3.org/2000/svg"
   xmlns="http://www.w3.org/2000/svg"
   xmlns:sodipodi="http://sodipodi.sourceforge.net/DTD/sodipodi-0.dtd"
   xmlns:inkscape="http://www.inkscape.org/namespaces/inkscape"
   version="1.1"
   viewBox="0, 0, 400,193.66666666666666"
   height="193.66666666666666"
   width="400"
   id="svg"
   sodipodi:docname="thomson-w.svg"
   inkscape:version="0.92.4 (5da689c313, 2019-01-14)">
  <sodipodi:namedview
     pagecolor="#ffffff"
     bordercolor="#666666"
     borderopacity="1"
     objecttolerance="10"
     gridtolerance="10"
     guidetolerance="10"
     inkscape:pageopacity="0"
     inkscape:pageshadow="2"
     inkscape:window-width="640"
     inkscape:window-height="480"
     id="namedview9"
     showgrid="false"
     inkscape:zoom="2.5243712"
     inkscape:cx="110.94297"
     inkscape:cy="33.291053"
     inkscape:current-layer="svg" />
  <metadata
     id="metadata9">
    <rdf:RDF>
      <cc:Work
         rdf:about="">
        <dc:format>image/svg+xml</dc:format>
        <dc:type
           rdf:resource="http://purl.org/dc/dcmitype/StillImage" />
        <dc:title />
      </cc:Work>
    </rdf:RDF>
  </metadata>
  <defs
     id="defs7" />
  <g
     transform="matrix(0.92565301,0,0,0.88089503,15.102844,12.797881)"
     id="svgg"
     style="fill:#f2f2f2">
    <path
       style="fill:#f2f2f2;fill-rule:evenodd;stroke:none"
       d="m 189.667,10.252 c -11.455,6.507 -30.013,17.348 -30.616,17.885 -2.275,2.025 -2.208,1.38 -2.312,22.13 l -0.094,18.767 1.261,-0.203 c 17.429,-2.815 21.618,-7.765 27.101,-32.03 1.489,-6.587 5.857,-24.499 6.515,-26.718 0.275,-0.927 0.036,-0.905 -1.855,0.169 m 7.058,2.165 c -5.204,15.275 -2.455,21.569 17.275,39.544 3.942,3.592 9.754,8.984 12.917,11.984 l 5.75,5.454 v -18.801 -18.8 l -0.875,-1.755 c -0.547,-1.099 -1.326,-2.042 -2.083,-2.524 -1.698,-1.081 -31.587,-18.186 -31.777,-18.186 -0.086,0 -0.629,1.388 -1.207,3.084 m 7.442,49.808 c -4.61,0.579 -10.103,2.05 -22.85,6.121 -4.666,1.491 -11.188,3.485 -14.493,4.432 -3.306,0.947 -6.072,1.872 -6.147,2.055 -0.153,0.374 5.88,4.07 20.118,12.324 11.709,6.787 11.344,6.626 14.556,6.44 l 2.522,-0.146 14.98,-8.593 c 8.239,-4.725 15.323,-8.809 15.742,-9.074 0.899,-0.568 0.79,-0.772 -2.277,-4.284 -6.405,-7.332 -13.605,-10.347 -22.151,-9.275 m -76,59.795 c -14.203,1.916 -20.5,11.433 -20.5,30.98 0,21.698 7.742,31.212 25.333,31.129 17.461,-0.082 25,-9.452 25,-31.071 0,-23.176 -10.114,-33.699 -29.833,-31.038 m 178.5,0.012 c -14.112,1.577 -20.455,11.181 -20.452,30.968 0.004,21.014 6.848,30.268 23.075,31.196 19.008,1.087 27.37,-9.497 26.612,-33.684 -0.682,-21.767 -9.802,-30.65 -29.235,-28.48 m -56.167,0.774 c -12.009,2.344 -18.363,10.722 -16.125,21.261 1.444,6.798 5.486,10.006 17.125,13.589 10.194,3.138 13.149,4.808 13.827,7.817 0.846,3.751 -2.075,6.509 -7.191,6.79 -6.101,0.335 -8.627,-1.537 -10.137,-7.513 l -0.358,-1.417 H 240.32 233 v 2.635 c 0,11.984 11.569,19.611 27.451,18.097 12.883,-1.227 19.315,-6.777 20.359,-17.565 0.972,-10.047 -3.834,-15.403 -17.643,-19.664 -11.608,-3.581 -13.825,-4.896 -13.831,-8.203 -0.013,-7.065 13.591,-6.372 14.534,0.74 l 0.216,1.627 h 7.624 7.623 v -1.317 c 0,-11.814 -13.696,-19.831 -28.833,-16.877 M 9.333,130.167 v 6.5 H 17.167 25 v 22.833 22.833 h 7.282 7.281 l 0.219,-4.552 c 0.12,-2.504 0.218,-9.605 0.218,-15.78 0,-6.175 0.099,-14.401 0.22,-18.281 l 0.219,-7.053 H 47.22 54 v 22.833 22.833 h 7.5 7.5 v -12 -12 h 8.5 8.5 v 12 12 h 7.5 7.5 V 153 123.667 H 93.5 86 V 134.5 145.333 H 77.5 69 V 134.5 123.667 H 39.167 9.333 v 6.5 m 156,22.833 v 29.333 h 6.831 6.831 l 0.086,-19.034 0.086,-19.035 5.833,19.031 5.833,19.03 4.904,0.004 4.904,0.004 1.12,-3.583 c 0.617,-1.971 3.21,-10.387 5.763,-18.702 l 4.643,-15.12 0.086,18.703 0.086,18.702 h 6.997 6.997 v -29.338 -29.338 l -10.736,0.088 -10.737,0.088 -4.493,16.763 c -2.471,9.219 -4.595,16.569 -4.719,16.333 -0.123,-0.236 -2.083,-7.815 -4.353,-16.843 l -4.128,-16.415 -10.917,-0.002 -10.917,-0.002 V 153 m 178,0.494 v 29.173 h 7.167 7.167 l 0.018,-17.084 0.019,-17.083 8.563,17.083 8.563,17.084 h 7.918 7.919 V 153.5 124.333 h -6.997 -6.998 l -0.086,17.861 -0.086,17.86 -7.897,-17.777 -7.896,-17.777 -8.687,-0.089 -8.687,-0.089 v 29.172 M 136.857,134.988 c 2.722,1.18 4.76,3.987 5.635,7.758 1.214,5.237 0.929,18.545 -0.478,22.306 -3.765,10.064 -16.398,8.826 -18.862,-1.849 -0.682,-2.951 -0.791,-16.154 -0.162,-19.536 1.418,-7.629 7.506,-11.439 13.867,-8.679 m 178.543,0.073 c 4.653,2.001 6.239,6.513 6.248,17.772 0.006,6.989 -0.296,9.867 -1.321,12.607 -3.246,8.675 -15.327,8.481 -18.65,-0.3 -1.578,-4.169 -1.697,-18.819 -0.194,-23.709 1.812,-5.89 8.217,-8.823 13.917,-6.37"
       id="path0"
       inkscape:connector-curvature="0" />
  </g>
</svg>
