<?xml version="1.0" encoding="UTF-8" standalone="no"?>
<!-- Created by ERK -->

<svg
   version="1.1"
   id="Layer_1"
   x="0px"
   y="0px"
   viewBox="0 0 4800 1400"
   xml:space="preserve"
   sodipodi:docname="tiger-w.svg"
   inkscape:version="1.4 (86a8ad7, 2024-10-11)"
   width="4800"
   height="1400"
   xmlns:inkscape="http://www.inkscape.org/namespaces/inkscape"
   xmlns:sodipodi="http://sodipodi.sourceforge.net/DTD/sodipodi-0.dtd"
   xmlns="http://www.w3.org/2000/svg"
   xmlns:svg="http://www.w3.org/2000/svg"><defs
   id="defs18">

		
	
		
		
		
		
		
		
		
		
		
		
		
		
	
			
			
			
			
			
			
			
		</defs><sodipodi:namedview
   id="namedview18"
   pagecolor="#ffffff"
   bordercolor="#000000"
   borderopacity="0.25"
   inkscape:showpageshadow="2"
   inkscape:pageopacity="0.0"
   inkscape:pagecheckerboard="true"
   inkscape:deskcolor="#d1d1d1"
   inkscape:zoom="0.47502285"
   inkscape:cx="2401.9897"
   inkscape:cy="655.75793"
   inkscape:window-width="3840"
   inkscape:window-height="2066"
   inkscape:window-x="-11"
   inkscape:window-y="-11"
   inkscape:window-maximized="1"
   inkscape:current-layer="g18" />
<style
   type="text/css"
   id="style1">
	.st0{display:none;}
	.st1{display:inline;}
	.st2{fill:#FF0000;}
	.st3{fill:#FFFFFF;}
	.st4{fill-rule:evenodd;clip-rule:evenodd;fill:#FF0000;}
	.st5{fill-rule:evenodd;clip-rule:evenodd;fill:#FFFFFF;}
	.st6{fill-rule:evenodd;clip-rule:evenodd;}
</style>

<g
   id="g18"
   inkscape:label="Logo"
   transform="translate(480.5,46.25)"
   style="display:inline">
	<g
   id="g2"
   inkscape:label="Tiger"><path
     class="st2"
     d="M 66.7,186.7 C 30,186.7 0,216.7 0,253.4 c 0,36.7 30,66.7 66.7,66.7 36.7,0 66.7,-30 66.7,-66.7 0,-36.9 -29.8,-66.7 -66.7,-66.7 z"
     id="path4"
     style="fill:#ff0000"
     inkscape:label="dot" /><path
     class="st2"
     d="m 433.1,186.7 c -36.7,0 -66.7,30 -66.7,66.7 0,36.7 30,66.7 66.7,66.7 36.7,0 66.7,-30 66.7,-66.7 0,-36.9 -29.9,-66.7 -66.7,-66.7 z"
     id="path3"
     style="fill:#ff0000"
     inkscape:label="dot" /><polygon
     class="st2"
     points="0,0 0,173.1 148.4,173.1 148.4,175.3 148.4,701.7 148.4,706.1 351.5,706.1 351.5,701.7 351.5,175.3 351.5,173.1 499.8,173.1 499.8,0 "
     id="polygon1"
     style="fill:#ff0000"
     inkscape:label="T" /><rect
     x="557.79999"
     y="0"
     class="st2"
     width="203.10001"
     height="706.09998"
     id="rect1"
     style="fill:#ff0000"
     inkscape:label="I" /><path
     class="st2"
     d="M 1117.9,0 C 915.6,0 808,176.5 808,353.1 c 0,176.6 107.8,353.1 309.9,353.1 0,-29 0,0 0,0 h 365 V 701.8 533 439.5 266.4 v 0 h -358.3 v 173.1 h 155.2 V 533 h -103.4 v 0 c -239.8,0 -239.8,-359.9 0,-359.9 v 0 H 1483 V 0 h -365.1 c 0,0 0,29 0,0 z"
     id="path1"
     style="fill:#ff0000"
     inkscape:label="G" /><path
     class="st2"
     d="m 1760.7,486.3 c 0,-25.8 21,-46.7 46.7,-46.7 H 2066 V 266.4 h -258.6 c -25.8,0 -46.7,-21 -46.7,-46.7 0,-25.7 21,-46.7 46.7,-46.7 H 2066 V 0 h -323.9 v 0 h -33.3 c -100.6,0 -182.1,81.7 -182.1,182.1 v 26 c 0,80.1 62.7,144.8 82.5,144.8 -19.8,0 -82.5,64.9 -82.5,144.8 v 26 c 0,100.6 81.5,182.1 182.1,182.1 h 33.3 v 0 h 564.5 V 532.6 h -499 c -26.1,0.4 -46.9,-20.6 -46.9,-46.3 z"
     id="path5"
     style="fill:#ff0000"
     inkscape:label="E" /><path
     class="st2"
     d="m 3718,296.6 c -56.3,-30 -124,12.8 -124,76.5 0,4.4 0,8.8 0,13.2 0,25.2 12.6,47.7 31.4,64.3 28,24.8 17.4,82.3 -31.4,82.3 v 0 h -921.8 v -67.5 c 0,-28 -16,-52.1 -39.1,-63.9 C 2684.4,360 2716.6,289.9 2716.6,220 2716.5,110 2638,0 2529.2,0 v 0 h -324.3 v 0 h -101.4 v 478.3 h 203.1 V 173.1 h 152.2 c 25.4,0 47.9,19 49.3,44.1 1.4,27 -20,49.1 -46.5,49.1 h -98.9 v 173.1 h 57.1 c 27.4,0 49.5,22.2 49.5,49.5 V 706 h 203.1 v 0 h 921.8 v 0 c 146.6,0 244.8,-109.8 244.8,-219.9 -0.4,-74.5 -45.9,-149.4 -121,-189.5 z"
     id="path2"
     style="fill:#ff0000"
     inkscape:label="R" /></g>
	<g
   id="g1"
   inkscape:label="LCD_Handhelds"
   style="fill:#ffffff"><path
     class="st2"
     d="M 26.6,1093.4 0,1067.5 V 919.6 l 26.6,-25.2 29.3,27.3 v 145.2 z M 0,1291.8 v -146.6 l 26.6,-25.2 29.3,26.6 v 90 z m 196.3,14.3 H 10.2 l 52.5,-55.9 h 133.6 l 26.6,27.3 z"
     id="path6"
     style="fill:#ffffff"
     inkscape:label="L" /><path
     class="st2"
     d="M 297.9,1263.2 271.3,1238 V 961.9 l 26.6,-25.2 29.3,27.3 v 272.7 z M 467.6,951 H 334 l -25.9,-26.6 27.3,-29.3 h 132.2 l 26.6,29.3 z m 0,355.1 H 335.4 l -27.3,-28.6 25.9,-27.3 h 133.6 l 26.6,27.3 z"
     id="path7"
     style="fill:#ffffff"
     inkscape:label="C" /><path
     class="st2"
     d="m 586.9,1093.4 -26.6,-25.9 V 912.8 l 55.9,52.5 v 101.6 z m -26.6,198.4 v -146.6 l 26.6,-25.2 29.3,26.6 v 90 z M 756.6,951 H 623 l -55.2,-55.9 h 188.8 l 26.6,29.3 z m 0,355.1 H 570.5 l 52.5,-55.9 h 133.6 l 26.6,27.3 z m 38.2,-212.7 -26.6,-25.9 V 963.9 l 26.6,-25.9 29.3,27.3 v 101.6 z m 0,169.8 -26.6,-25.2 v -92.7 l 26.6,-25.2 29.3,26.6 v 90 z"
     id="path8"
     style="fill:#ffffff"
     inkscape:label="D" /><path
     class="st2"
     d="m 1055.2,1093.4 -26.6,-25.9 V 919.6 l 26.6,-25.2 29.3,27.3 v 145.2 z m 0,214.1 -26.6,-25.9 v -136.3 l 26.6,-25.2 29.3,26.6 V 1281 Z m 169.7,-173.2 h -133.6 l -25.9,-27.3 27.3,-28.6 h 132.2 l 26.6,28.6 z m 38.2,-40.9 -26.6,-25.9 V 919.6 l 26.6,-25.2 29.3,27.3 v 145.2 z m 0,214.1 -26.6,-25.9 v -136.3 l 26.6,-25.2 29.3,26.6 V 1281 Z"
     id="path9"
     style="fill:#ffffff"
     inkscape:label="H" /><path
     class="st2"
     d="m 1386.5,1093.4 -26.6,-25.9 V 963.9 l 26.6,-25.9 29.3,27.3 v 101.6 z m 0,212.7 -26.6,-25.2 v -135.6 l 26.6,-25.2 29.3,26.6 v 132.2 z M 1556.2,951 h -133.6 l -25.9,-26.6 27.3,-29.3 h 132.2 l 26.6,29.3 z m 0,183.3 h -133.6 l -25.9,-27.3 27.3,-28.6 132.2,0.7 26.6,27.9 z m 38.2,-40.9 -26.6,-25.9 V 963.9 l 26.6,-25.9 29.3,27.3 v 101.6 z m 0,212.7 -26.6,-25.2 v -135.6 l 26.6,-25.2 29.3,26.6 v 132.2 z"
     id="path10"
     style="fill:#ffffff"
     inkscape:label="A" /><path
     class="st2"
     d="m 1717.7,1093.4 -26.6,-25.9 V 919.6 l 26.6,-25.2 29.3,27.3 v 145.2 z m 0,214.1 -26.6,-25.9 v -136.3 l 26.6,-25.2 29.3,26.6 V 1281 Z m 133,-240 -91.3,-107.7 v -38.2 h 40.2 l 89.3,105.7 v 40.2 z m 74.9,25.9 -26.6,-25.9 V 919.6 l 26.6,-25.2 29.3,27.3 v 145.2 z m 0,214.1 -26.6,-25.9 v -136.3 l 26.6,-25.2 29.3,26.6 V 1281 Z"
     id="path11"
     style="fill:#ffffff"
     inkscape:label="N" /><path
     class="st2"
     d="m 2049,1093.4 -26.6,-25.9 V 912.8 l 55.9,52.5 v 101.6 z m -26.6,198.4 v -146.6 l 26.6,-25.2 29.3,26.6 v 90 z M 2218.7,951 h -133.6 l -55.2,-55.9 h 188.8 l 26.6,29.3 z m 0,355.1 h -186.1 l 52.5,-55.9 h 133.6 l 26.6,27.3 z m 38.2,-212.7 -26.6,-25.9 V 963.9 l 26.6,-25.9 29.3,27.3 v 101.6 z m 0,169.8 -26.6,-25.2 v -92.7 l 26.6,-25.2 29.3,26.6 v 90 z"
     id="path12"
     style="fill:#ffffff"
     inkscape:label="D" /><path
     class="st2"
     d="m 2380.3,1093.4 -26.6,-25.9 V 919.6 l 26.6,-25.2 29.3,27.3 v 145.2 z m 0,214.1 -26.6,-25.9 v -136.3 l 26.6,-25.2 29.3,26.6 V 1281 Z M 2550,1134.3 h -133.6 l -25.9,-27.3 27.3,-28.6 H 2550 l 26.6,28.6 z m 38.2,-40.9 -26.6,-25.9 V 919.6 l 26.6,-25.2 29.3,27.3 v 145.2 z m 0,214.1 -26.6,-25.9 v -136.3 l 26.6,-25.2 29.3,26.6 V 1281 Z"
     id="path13"
     style="fill:#ffffff"
     inkscape:label="H" /><path
     class="st2"
     d="M 2711.6,1093.4 2685,1067.5 V 963.9 l 26.6,-25.9 29.3,27.3 v 101.6 z m 0,169.8 -26.6,-25.2 v -92.7 l 26.6,-25.2 29.3,26.6 v 90 z M 2881.3,951 h -133.6 l -25.9,-26.6 27.3,-29.3 h 132.2 l 26.6,29.3 z m 0,183.3 h -133.6 l -25.9,-27.3 27.3,-28.6 h 132.2 l 26.6,28.6 z m 0,171.8 h -132.2 l -27.3,-28.6 25.9,-27.3 h 133.6 l 26.6,27.3 z"
     id="path14"
     style="fill:#ffffff"
     inkscape:label="E" /><path
     class="st2"
     d="m 2999.2,1093.4 -26.6,-25.9 V 919.6 l 26.6,-25.2 29.3,27.3 v 145.2 z m -26.6,198.4 v -146.6 l 26.6,-25.2 29.3,26.6 v 90 z m 196.3,14.3 h -186.1 l 52.5,-55.9 h 133.6 l 26.6,27.3 z"
     id="path15"
     style="fill:#ffffff"
     inkscape:label="L" /><path
     class="st2"
     d="m 3270.5,1093.4 -26.6,-25.9 V 912.8 l 55.9,52.5 v 101.6 z m -26.6,198.4 v -146.6 l 26.6,-25.2 29.3,26.6 v 90 z M 3440.2,951 h -133.6 l -55.2,-55.9 h 188.8 l 26.6,29.3 z m 0,355.1 h -186.1 l 52.5,-55.9 h 133.6 l 26.6,27.3 z m 38.2,-212.7 -26.6,-25.9 V 963.9 l 26.6,-25.9 29.3,27.3 v 101.6 z m 0,169.8 -26.6,-25.2 v -92.7 l 26.6,-25.2 29.3,26.6 v 90 z"
     id="path16"
     style="fill:#ffffff"
     inkscape:label="D" /><path
     class="st2"
     d="m 3601.8,1093.4 -26.6,-25.9 V 963.9 l 26.6,-25.9 29.3,27.3 v 101.6 z m 169.7,212.7 H 3612 l -26.6,-28.6 25.9,-27.3 h 160.2 l 26.6,27.3 z M 3795.4,951 h -157.5 l -25.9,-26.6 27.3,-29.3 h 156.1 l 26.6,29.3 z m -23.9,183.3 h -133.6 l -25.9,-27.3 27.3,-28.6 h 132.2 l 26.6,28.6 z m 38.2,128.9 -26.6,-25.2 v -92.7 l 26.6,-25.2 29.3,26.6 v 90 z"
     id="path17"
     style="fill:#ffffff"
     inkscape:label="S" /></g>
</g>
</svg>
