<?xml version="1.0" encoding="UTF-8" standalone="no"?>
<!DOCTYPE svg PUBLIC "-//W3C//DTD SVG 1.1//EN" "http://www.w3.org/Graphics/SVG/1.1/DTD/svg11.dtd">
<svg xmlns="http://www.w3.org/2000/svg" version="1.1" viewBox="0 0 986 132">
<g stroke-width="2.00" fill="none" stroke-linecap="butt">
<path stroke="#808080" vector-effect="non-scaling-stroke" d="
  M 957.00 75.62
  L 957.00 57.67
  A 0.46 0.46 0.0 0 1 957.61 57.24
  L 967.28 60.62
  A 0.38 0.38 0.0 0 0 967.79 60.26
  L 967.73 39.55
  A 0.83 0.83 0.0 0 0 967.19 38.77
  Q 941.00 28.86 914.71 19.24
  C 913.24 18.70 911.21 18.30 909.69 18.87
  Q 883.74 28.55 857.80 38.50
  A 0.86 0.85 79.6 0 0 857.25 39.30
  L 857.25 60.19
  A 0.36 0.36 0.0 0 0 857.73 60.53
  L 867.09 57.33
  A 0.47 0.46 79.8 0 1 867.71 57.77
  L 867.76 75.37
  A 0.74 0.74 0.0 0 1 866.79 76.08
  L 857.80 73.12
  A 0.60 0.60 0.0 0 0 857.01 73.69
  L 856.99 94.21
  A 0.75 0.74 11.2 0 0 857.46 94.90
  Q 880.52 103.96 903.42 113.44
  C 907.41 115.09 913.24 116.14 916.72 114.77
  Q 941.98 104.84 967.27 94.93
  A 0.77 0.76 79.3 0 0 967.75 94.22
  L 967.74 73.59
  A 0.52 0.51 -8.7 0 0 967.07 73.10
  L 957.66 76.11
  A 0.51 0.51 0.0 0 1 957.00 75.62"
/>
<path stroke="#808080" vector-effect="non-scaling-stroke" d="
  M 83.75 46.80
  A 0.30 0.30 0.0 0 1 84.05 46.50
  L 115.70 46.50
  A 0.30 0.30 0.0 0 0 116.00 46.20
  L 116.00 20.55
  A 0.30 0.30 0.0 0 0 115.70 20.25
  L 19.52 20.25
  A 0.30 0.30 0.0 0 0 19.22 20.55
  L 19.26 46.70
  A 0.30 0.30 0.0 0 0 19.56 47.00
  L 53.21 47.00
  A 0.30 0.30 0.0 0 1 53.51 47.30
  L 53.49 112.45
  A 0.30 0.30 0.0 0 0 53.79 112.75
  L 83.45 112.76
  A 0.30 0.30 0.0 0 0 83.75 112.46
  L 83.75 46.80"
/>
<path stroke="#808080" vector-effect="non-scaling-stroke" d="
  M 151.25 80.50
  L 199.75 80.50
  A 0.50 0.50 0.0 0 1 200.25 81.00
  L 200.25 112.50
  A 0.50 0.50 0.0 0 0 200.75 113.00
  L 229.37 113.00
  A 0.63 0.62 0.0 0 0 230.00 112.38
  L 230.01 20.85
  A 0.59 0.59 0.0 0 0 229.42 20.26
  L 200.75 20.22
  A 0.53 0.53 0.0 0 0 200.22 20.75
  L 200.26 49.00
  A 0.52 0.51 -90.0 0 1 199.75 49.52
  L 150.96 49.49
  A 0.60 0.60 0.0 0 1 150.36 48.89
  L 150.26 20.76
  A 0.51 0.50 90.0 0 0 149.76 20.25
  L 120.80 20.25
  A 1.17 1.15 -3.1 0 0 119.64 21.53
  C 120.17 26.73 119.76 32.33 119.75 36.38
  Q 119.71 60.29 120.07 84.18
  Q 120.28 98.33 119.73 112.24
  A 0.73 0.73 0.0 0 0 120.46 113.00
  L 150.25 113.00
  A 0.50 0.50 0.0 0 0 150.75 112.50
  L 150.75 81.00
  A 0.50 0.50 0.0 0 1 151.25 80.50"
/>
<path stroke="#808080" vector-effect="non-scaling-stroke" d="
  M 602.62 25.72
  C 592.77 31.06 591.24 43.38 590.22 53.99
  Q 588.17 75.38 592.32 94.58
  C 595.14 107.64 604.49 111.15 616.51 112.19
  Q 644.92 114.65 670.77 112.35
  C 684.11 111.17 694.16 108.48 697.53 95.00
  Q 703.63 70.56 698.66 44.41
  C 695.98 30.34 689.74 24.40 675.31 22.62
  Q 645.63 18.98 615.93 22.44
  Q 606.70 23.51 602.62 25.72"
/>
<path stroke="#808080" vector-effect="non-scaling-stroke" d="
  M 236.36 95.53
  C 238.55 105.11 246.01 110.57 255.51 111.76
  Q 263.94 112.82 283.32 113.68
  C 293.18 114.11 303.07 113.27 313.06 112.78
  C 332.04 111.85 339.18 105.90 341.95 86.88
  Q 345.29 63.94 340.80 41.01
  Q 337.66 24.98 321.52 22.95
  Q 291.65 19.18 261.78 22.27
  C 249.23 23.57 239.64 26.37 236.47 38.99
  Q 229.64 66.10 236.36 95.53"
/>
<path stroke="#808080" vector-effect="non-scaling-stroke" d="
  M 456.26 56.30
  L 456.23 111.21
  A 0.55 0.55 0.0 0 0 456.78 111.76
  L 480.50 111.75
  A 0.50 0.50 0.0 0 0 481.00 111.25
  L 481.00 21.41
  A 0.41 0.41 0.0 0 0 480.59 21.00
  L 441.99 21.00
  A 0.85 0.84 12.9 0 0 441.23 21.47
  L 415.05 73.68
  A 0.67 0.67 0.0 0 1 413.86 73.69
  L 386.70 21.73
  A 0.92 0.90 75.6 0 0 385.90 21.24
  L 347.00 21.25
  A 0.50 0.50 0.0 0 0 346.50 21.75
  L 346.50 111.25
  A 0.50 0.49 0.0 0 0 347.00 111.74
  L 371.22 111.76
  A 0.54 0.53 -0.5 0 0 371.76 111.22
  L 371.74 56.28
  A 0.51 0.51 0.0 0 1 372.22 55.77
  L 373.25 55.69
  A 0.75 0.74 73.7 0 1 373.97 56.09
  L 402.29 111.53
  A 0.85 0.84 -12.9 0 0 403.05 112.00
  L 425.85 112.00
  A 0.82 0.80 12.8 0 0 426.58 111.55
  L 453.81 56.38
  A 0.50 0.47 50.1 0 0 453.83 56.00
  L 453.73 55.70
  Q 453.50 55.02 454.20 55.20
  L 455.73 55.61
  A 0.71 0.71 0.0 0 1 456.26 56.30"
/>
<path stroke="#808080" vector-effect="non-scaling-stroke" d="
  M 504.03 23.56
  C 495.87 24.82 490.01 29.01 488.55 37.50
  C 486.50 49.43 484.09 70.27 499.93 73.58
  Q 507.73 75.21 517.50 75.52
  Q 533.34 76.03 549.18 76.45
  C 554.25 76.58 560.15 76.74 561.93 81.31
  C 564.37 87.60 558.05 90.97 552.75 91.25
  Q 539.86 91.94 521.51 91.17
  Q 512.96 90.82 510.70 83.01
  A 0.71 0.71 0.0 0 0 510.02 82.50
  L 487.80 82.50
  A 0.51 0.51 0.0 0 0 487.29 82.97
  C 486.43 93.44 487.54 106.49 500.17 109.90
  C 510.63 112.73 523.12 112.31 533.64 112.25
  C 547.43 112.18 559.02 112.16 571.31 110.59
  C 581.54 109.29 584.57 101.80 585.72 92.74
  C 587.34 79.92 589.05 58.80 570.92 57.11
  Q 550.28 55.18 524.78 55.31
  Q 518.48 55.34 516.35 54.28
  C 511.91 52.07 510.35 42.31 517.48 41.58
  Q 536.97 39.61 550.68 40.33
  Q 558.07 40.73 559.37 48.36
  A 0.73 0.73 0.0 0 0 560.05 48.96
  L 582.68 50.21
  A 0.49 0.48 -87.7 0 0 583.19 49.73
  C 583.37 36.63 582.20 24.52 566.34 22.59
  Q 535.10 18.78 504.03 23.56"
/>
<path stroke="#808080" vector-effect="non-scaling-stroke" d="
  M 731.08 51.82
  Q 731.20 51.96 731.32 52.14
  Q 752.21 81.70 772.83 111.51
  A 1.14 1.13 72.4 0 0 773.76 112.00
  L 814.75 112.00
  A 0.50 0.50 0.0 0 0 815.25 111.50
  L 815.25 21.76
  A 0.50 0.50 0.0 0 0 814.76 21.26
  L 791.70 21.22
  A 0.33 0.32 90.0 0 0 791.38 21.55
  L 791.56 80.63
  A 1.25 1.25 0.0 0 1 789.29 81.36
  L 746.85 21.93
  A 1.04 1.04 0.0 0 0 746.01 21.50
  L 704.75 21.50
  A 0.50 0.50 0.0 0 0 704.25 22.00
  L 704.25 111.12
  A 0.63 0.63 0.0 0 0 704.88 111.75
  L 728.97 111.75
  A 0.53 0.53 0.0 0 0 729.50 111.22
  L 729.50 52.39
  A 0.89 0.89 0.0 0 1 731.08 51.82"
/>
<path stroke="#808080" vector-effect="non-scaling-stroke" d="
  M 964.29 41.37
  C 949.19 35.35 933.94 29.73 918.77 23.96
  A 0.25 0.24 -79.4 0 0 918.44 24.19
  L 918.52 38.11
  A 0.90 0.88 -80.4 0 0 919.09 38.93
  L 964.29 56.25
  A 0.34 0.34 0.0 0 0 964.75 55.93
  L 964.75 42.05
  A 0.74 0.73 11.4 0 0 964.29 41.37"
/>
<path stroke="#808080" vector-effect="non-scaling-stroke" d="
  M 931.61 86.66
  A 0.60 0.60 0.0 0 0 932.00 86.10
  L 931.70 48.33
  A 0.60 0.60 0.0 0 0 931.33 47.78
  L 911.89 40.04
  A 0.60 0.60 0.0 0 0 911.43 40.05
  L 892.94 47.88
  A 0.60 0.60 0.0 0 0 892.57 48.44
  L 892.58 86.11
  A 0.60 0.60 0.0 0 0 892.95 86.66
  L 911.45 94.29
  A 0.60 0.60 0.0 0 0 911.89 94.29
  L 931.61 86.66"
/>
<path stroke="#808080" vector-effect="non-scaling-stroke" d="
  M 906.99 95.94
  A 0.34 0.34 0.0 0 0 906.77 95.63
  L 861.21 78.42
  A 0.34 0.34 0.0 0 0 860.75 78.74
  L 860.75 92.78
  A 0.34 0.34 0.0 0 0 860.97 93.09
  L 906.55 110.50
  A 0.34 0.34 0.0 0 0 907.01 110.19
  L 906.99 95.94"
/>
<path stroke="#808080" vector-effect="non-scaling-stroke" d="
  M 627.34 44.03
  C 622.07 44.19 616.63 46.36 616.28 52.50
  C 615.80 60.93 616.18 69.99 616.12 79.58
  C 616.07 87.32 621.05 88.69 628.02 88.83
  Q 647.73 89.23 659.01 89.28
  C 662.90 89.30 668.19 88.92 670.97 86.02
  C 674.07 82.79 673.51 79.40 673.71 75.26
  Q 674.20 64.96 673.72 54.71
  Q 673.22 44.03 662.74 43.80
  Q 646.69 43.44 627.34 44.03"
/>
<path stroke="#808080" vector-effect="non-scaling-stroke" d="
  M 268.82 45.22
  C 265.04 45.32 260.52 47.58 260.15 51.85
  Q 258.95 65.94 259.93 80.04
  C 260.36 86.19 263.73 88.42 269.81 88.66
  Q 288.40 89.40 307.00 88.69
  C 311.96 88.50 316.44 86.61 316.94 81.43
  Q 317.92 71.28 317.00 54.30
  C 316.50 45.18 310.86 45.11 303.50 45.06
  Q 280.60 44.93 268.82 45.22"
/>
</g>
<g fill="#000000">
<path d="
  M 957.66 76.11
  L 967.07 73.10
  A 0.52 0.51 -8.7 0 1 967.74 73.59
  L 967.75 94.22
  A 0.77 0.76 79.3 0 1 967.27 94.93
  Q 941.98 104.84 916.72 114.77
  C 913.24 116.14 907.41 115.09 903.42 113.44
  Q 880.52 103.96 857.46 94.90
  A 0.75 0.74 11.2 0 1 856.99 94.21
  L 857.01 73.69
  A 0.60 0.60 0.0 0 1 857.80 73.12
  L 866.79 76.08
  A 0.74 0.74 0.0 0 0 867.76 75.37
  L 867.71 57.77
  A 0.47 0.46 79.8 0 0 867.09 57.33
  L 857.73 60.53
  A 0.36 0.36 0.0 0 1 857.25 60.19
  L 857.25 39.30
  A 0.86 0.85 79.6 0 1 857.80 38.50
  Q 883.74 28.55 909.69 18.87
  C 911.21 18.30 913.24 18.70 914.71 19.24
  Q 941.00 28.86 967.19 38.77
  A 0.83 0.83 0.0 0 1 967.73 39.55
  L 967.79 60.26
  A 0.38 0.38 0.0 0 1 967.28 60.62
  L 957.61 57.24
  A 0.46 0.46 0.0 0 0 957.00 57.67
  L 957.00 75.62
  A 0.51 0.51 0.0 0 0 957.66 76.11
  Z
  M 964.29 41.37
  C 949.19 35.35 933.94 29.73 918.77 23.96
  A 0.25 0.24 -79.4 0 0 918.44 24.19
  L 918.52 38.11
  A 0.90 0.88 -80.4 0 0 919.09 38.93
  L 964.29 56.25
  A 0.34 0.34 0.0 0 0 964.75 55.93
  L 964.75 42.05
  A 0.74 0.73 11.4 0 0 964.29 41.37
  Z
  M 931.61 86.66
  A 0.60 0.60 0.0 0 0 932.00 86.10
  L 931.70 48.33
  A 0.60 0.60 0.0 0 0 931.33 47.78
  L 911.89 40.04
  A 0.60 0.60 0.0 0 0 911.43 40.05
  L 892.94 47.88
  A 0.60 0.60 0.0 0 0 892.57 48.44
  L 892.58 86.11
  A 0.60 0.60 0.0 0 0 892.95 86.66
  L 911.45 94.29
  A 0.60 0.60 0.0 0 0 911.89 94.29
  L 931.61 86.66
  Z
  M 906.99 95.94
  A 0.34 0.34 0.0 0 0 906.77 95.63
  L 861.21 78.42
  A 0.34 0.34 0.0 0 0 860.75 78.74
  L 860.75 92.78
  A 0.34 0.34 0.0 0 0 860.97 93.09
  L 906.55 110.50
  A 0.34 0.34 0.0 0 0 907.01 110.19
  L 906.99 95.94
  Z"
/>
<path d="
  M 83.75 46.80
  L 83.75 112.46
  A 0.30 0.30 0.0 0 1 83.45 112.76
  L 53.79 112.75
  A 0.30 0.30 0.0 0 1 53.49 112.45
  L 53.51 47.30
  A 0.30 0.30 0.0 0 0 53.21 47.00
  L 19.56 47.00
  A 0.30 0.30 0.0 0 1 19.26 46.70
  L 19.22 20.55
  A 0.30 0.30 0.0 0 1 19.52 20.25
  L 115.70 20.25
  A 0.30 0.30 0.0 0 1 116.00 20.55
  L 116.00 46.20
  A 0.30 0.30 0.0 0 1 115.70 46.50
  L 84.05 46.50
  A 0.30 0.30 0.0 0 0 83.75 46.80
  Z"
/>
<path d="
  M 150.75 81.00
  L 150.75 112.50
  A 0.50 0.50 0.0 0 1 150.25 113.00
  L 120.46 113.00
  A 0.73 0.73 0.0 0 1 119.73 112.24
  Q 120.28 98.33 120.07 84.18
  Q 119.71 60.29 119.75 36.38
  C 119.76 32.33 120.17 26.73 119.64 21.53
  A 1.17 1.15 -3.1 0 1 120.80 20.25
  L 149.76 20.25
  A 0.51 0.50 90.0 0 1 150.26 20.76
  L 150.36 48.89
  A 0.60 0.60 0.0 0 0 150.96 49.49
  L 199.75 49.52
  A 0.52 0.51 90.0 0 0 200.26 49.00
  L 200.22 20.75
  A 0.53 0.53 0.0 0 1 200.75 20.22
  L 229.42 20.26
  A 0.59 0.59 0.0 0 1 230.01 20.85
  L 230.00 112.38
  A 0.63 0.62 -0.0 0 1 229.37 113.00
  L 200.75 113.00
  A 0.50 0.50 0.0 0 1 200.25 112.50
  L 200.25 81.00
  A 0.50 0.50 0.0 0 0 199.75 80.50
  L 151.25 80.50
  A 0.50 0.50 0.0 0 0 150.75 81.00
  Z"
/>
<path d="
  M 590.22 53.99
  C 591.24 43.38 592.77 31.06 602.62 25.72
  Q 606.70 23.51 615.93 22.44
  Q 645.63 18.98 675.31 22.62
  C 689.74 24.40 695.98 30.34 698.66 44.41
  Q 703.63 70.56 697.53 95.00
  C 694.16 108.48 684.11 111.17 670.77 112.35
  Q 644.92 114.65 616.51 112.19
  C 604.49 111.15 595.14 107.64 592.32 94.58
  Q 588.17 75.38 590.22 53.99
  Z
  M 627.34 44.03
  C 622.07 44.19 616.63 46.36 616.28 52.50
  C 615.80 60.93 616.18 69.99 616.12 79.58
  C 616.07 87.32 621.05 88.69 628.02 88.83
  Q 647.73 89.23 659.01 89.28
  C 662.90 89.30 668.19 88.92 670.97 86.02
  C 674.07 82.79 673.51 79.40 673.71 75.26
  Q 674.20 64.96 673.72 54.71
  Q 673.22 44.03 662.74 43.80
  Q 646.69 43.44 627.34 44.03
  Z"
/>
<path d="
  M 255.51 111.76
  C 246.01 110.57 238.55 105.11 236.36 95.53
  Q 229.64 66.10 236.47 38.99
  C 239.64 26.37 249.23 23.57 261.78 22.27
  Q 291.65 19.18 321.52 22.95
  Q 337.66 24.98 340.80 41.01
  Q 345.29 63.94 341.95 86.88
  C 339.18 105.90 332.04 111.85 313.06 112.78
  C 303.07 113.27 293.18 114.11 283.32 113.68
  Q 263.94 112.82 255.51 111.76
  Z
  M 268.82 45.22
  C 265.04 45.32 260.52 47.58 260.15 51.85
  Q 258.95 65.94 259.93 80.04
  C 260.36 86.19 263.73 88.42 269.81 88.66
  Q 288.40 89.40 307.00 88.69
  C 311.96 88.50 316.44 86.61 316.94 81.43
  Q 317.92 71.28 317.00 54.30
  C 316.50 45.18 310.86 45.11 303.50 45.06
  Q 280.60 44.93 268.82 45.22
  Z"
/>
<path d="
  M 455.73 55.61
  L 454.20 55.20
  Q 453.50 55.02 453.73 55.70
  L 453.83 56.00
  A 0.50 0.47 50.1 0 1 453.81 56.38
  L 426.58 111.55
  A 0.82 0.80 12.8 0 1 425.85 112.00
  L 403.05 112.00
  A 0.85 0.84 -12.9 0 1 402.29 111.53
  L 373.97 56.09
  A 0.75 0.74 73.7 0 0 373.25 55.69
  L 372.22 55.77
  A 0.51 0.51 0.0 0 0 371.74 56.28
  L 371.76 111.22
  A 0.54 0.53 -0.5 0 1 371.22 111.76
  L 347.00 111.74
  A 0.50 0.49 0.0 0 1 346.50 111.25
  L 346.50 21.75
  A 0.50 0.50 0.0 0 1 347.00 21.25
  L 385.90 21.24
  A 0.92 0.90 75.6 0 1 386.70 21.73
  L 413.86 73.69
  A 0.67 0.67 0.0 0 0 415.05 73.68
  L 441.23 21.47
  A 0.85 0.84 12.9 0 1 441.99 21.00
  L 480.59 21.00
  A 0.41 0.41 0.0 0 1 481.00 21.41
  L 481.00 111.25
  A 0.50 0.50 0.0 0 1 480.50 111.75
  L 456.78 111.76
  A 0.55 0.55 0.0 0 1 456.23 111.21
  L 456.26 56.30
  A 0.71 0.71 0.0 0 0 455.73 55.61
  Z"
/>
<path d="
  M 488.55 37.50
  C 490.01 29.01 495.87 24.82 504.03 23.56
  Q 535.10 18.78 566.34 22.59
  C 582.20 24.52 583.37 36.63 583.19 49.73
  A 0.49 0.48 -87.7 0 1 582.68 50.21
  L 560.05 48.96
  A 0.73 0.73 0.0 0 1 559.37 48.36
  Q 558.07 40.73 550.68 40.33
  Q 536.97 39.61 517.48 41.58
  C 510.35 42.31 511.91 52.07 516.35 54.28
  Q 518.48 55.34 524.78 55.31
  Q 550.28 55.18 570.92 57.11
  C 589.05 58.80 587.34 79.92 585.72 92.74
  C 584.57 101.80 581.54 109.29 571.31 110.59
  C 559.02 112.16 547.43 112.18 533.64 112.25
  C 523.12 112.31 510.63 112.73 500.17 109.90
  C 487.54 106.49 486.43 93.44 487.29 82.97
  A 0.51 0.51 0.0 0 1 487.80 82.50
  L 510.02 82.50
  A 0.71 0.71 0.0 0 1 510.70 83.01
  Q 512.96 90.82 521.51 91.17
  Q 539.86 91.94 552.75 91.25
  C 558.05 90.97 564.37 87.60 561.93 81.31
  C 560.15 76.74 554.25 76.58 549.18 76.45
  Q 533.34 76.03 517.50 75.52
  Q 507.73 75.21 499.93 73.58
  C 484.09 70.27 486.50 49.43 488.55 37.50
  Z"
/>
<path d="
  M 731.08 51.82
  A 0.89 0.89 0.0 0 0 729.50 52.39
  L 729.50 111.22
  A 0.53 0.53 0.0 0 1 728.97 111.75
  L 704.88 111.75
  A 0.63 0.63 0.0 0 1 704.25 111.12
  L 704.25 22.00
  A 0.50 0.50 0.0 0 1 704.75 21.50
  L 746.01 21.50
  A 1.04 1.04 0.0 0 1 746.85 21.93
  L 789.29 81.36
  A 1.25 1.25 0.0 0 0 791.56 80.63
  L 791.38 21.55
  A 0.33 0.32 90.0 0 1 791.70 21.22
  L 814.76 21.26
  A 0.50 0.50 0.0 0 1 815.25 21.76
  L 815.25 111.50
  A 0.50 0.50 0.0 0 1 814.75 112.00
  L 773.76 112.00
  A 1.14 1.13 72.4 0 1 772.83 111.51
  Q 752.21 81.70 731.32 52.14
  Q 731.20 51.96 731.08 51.82
  Z"
/>
</g>
<g fill="#ffffff">
<path d="
  M 842.29 59.10
  C 842.15 47.31 838.95 29.80 853.08 24.31
  Q 878.08 14.60 903.27 5.24
  Q 911.77 2.08 920.38 5.25
  Q 944.73 14.19 968.96 23.42
  Q 975.69 25.99 978.18 28.50
  C 984.50 34.87 982.85 47.51 982.78 58.58
  C 982.76 63.09 980.74 65.96 981.96 70.88
  Q 982.75 74.07 982.76 75.80
  C 982.85 86.97 984.51 98.90 977.78 105.51
  Q 975.25 108.01 967.39 111.05
  Q 946.66 119.07 926.02 127.29
  C 916.22 131.20 907.27 131.24 897.69 127.28
  Q 877.38 118.87 856.91 110.83
  Q 849.50 107.91 847.07 105.71
  C 840.05 99.34 841.86 86.10 842.02 74.66
  C 842.05 72.40 842.70 70.34 843.25 68.18
  C 844.12 64.70 842.33 62.45 842.29 59.10
  Z
  M 957.00 75.62
  L 957.00 57.67
  A 0.46 0.46 0.0 0 1 957.61 57.24
  L 967.28 60.62
  A 0.38 0.38 0.0 0 0 967.79 60.26
  L 967.73 39.55
  A 0.83 0.83 0.0 0 0 967.19 38.77
  Q 941.00 28.86 914.71 19.24
  C 913.24 18.70 911.21 18.30 909.69 18.87
  Q 883.74 28.55 857.80 38.50
  A 0.86 0.85 79.6 0 0 857.25 39.30
  L 857.25 60.19
  A 0.36 0.36 0.0 0 0 857.73 60.53
  L 867.09 57.33
  A 0.47 0.46 79.8 0 1 867.71 57.77
  L 867.76 75.37
  A 0.74 0.74 0.0 0 1 866.79 76.08
  L 857.80 73.12
  A 0.60 0.60 0.0 0 0 857.01 73.69
  L 856.99 94.21
  A 0.75 0.74 11.2 0 0 857.46 94.90
  Q 880.52 103.96 903.42 113.44
  C 907.41 115.09 913.24 116.14 916.72 114.77
  Q 941.98 104.84 967.27 94.93
  A 0.77 0.76 79.3 0 0 967.75 94.22
  L 967.74 73.59
  A 0.52 0.51 -8.7 0 0 967.07 73.10
  L 957.66 76.11
  A 0.51 0.51 0.0 0 1 957.00 75.62
  Z"
/>
<path d="
  M 776.31 37.19
  C 776.14 25.61 773.78 7.36 790.95 6.41
  C 798.96 5.97 814.95 5.09 821.76 8.11
  Q 830.41 11.95 830.44 23.57
  Q 830.56 66.25 830.48 108.95
  C 830.46 118.84 825.15 126.97 814.38 126.99
  Q 794.44 127.02 774.49 126.99
  C 767.59 126.98 763.26 123.95 759.16 118.12
  Q 751.78 107.63 744.61 96.99
  Q 744.33 96.57 744.35 97.07
  C 744.92 109.84 746.16 125.56 729.16 126.61
  Q 724.15 126.92 706.69 126.76
  C 703.65 126.73 701.07 125.94 698.10 125.35
  Q 697.58 125.25 697.17 124.92
  L 694.40 122.75
  A 1.01 1.01 0.0 0 0 693.40 122.61
  Q 684.57 126.10 676.49 126.97
  Q 645.66 130.30 612.94 127.05
  C 605.85 126.35 596.41 123.63 589.94 118.74
  A 0.64 0.63 43.7 0 0 589.16 118.75
  C 582.05 124.46 571.97 126.03 563.16 126.54
  Q 537.29 128.01 511.40 126.80
  C 504.47 126.47 497.92 124.61 491.21 122.93
  A 1.05 1.04 -56.2 0 0 490.33 123.11
  C 483.28 128.54 470.43 126.85 458.72 126.76
  C 450.63 126.69 444.07 123.55 441.88 115.21
  Q 441.76 114.74 441.59 115.19
  C 436.86 127.24 428.72 126.93 416.34 127.06
  C 402.76 127.21 392.17 128.50 386.64 113.94
  Q 386.47 113.48 386.37 113.96
  Q 383.98 125.83 372.32 126.60
  Q 367.26 126.94 349.71 126.75
  C 345.64 126.71 340.36 125.68 337.13 123.07
  A 0.88 0.86 -35.8 0 0 336.29 122.94
  Q 324.74 127.46 312.31 128.00
  C 302.68 128.42 293.07 129.14 283.56 128.75
  C 267.46 128.07 254.84 128.06 241.25 123.21
  A 0.86 0.85 -55.4 0 0 240.40 123.37
  C 232.77 130.17 219.17 128.14 205.70 128.00
  Q 197.65 127.91 194.15 126.36
  C 183.31 121.56 185.12 107.58 185.23 96.01
  A 0.50 0.50 0.0 0 0 184.73 95.50
  L 166.29 95.50
  A 0.51 0.50 90.0 0 0 165.79 96.01
  C 165.75 106.50 168.31 121.61 156.37 126.54
  Q 152.84 128.00 144.46 128.00
  C 135.69 128.00 121.33 129.41 114.28 126.42
  C 105.92 122.89 104.76 115.83 104.76 106.87
  Q 104.75 84.51 104.74 62.14
  A 0.64 0.63 -90.0 0 0 104.11 61.50
  L 99.25 61.50
  A 0.56 0.56 0.0 0 0 98.69 62.06
  Q 98.92 100.60 98.69 111.49
  C 98.42 124.88 89.34 127.63 77.65 127.72
  Q 67.23 127.80 56.80 127.76
  C 42.91 127.70 38.35 120.56 38.29 107.10
  Q 38.18 84.87 38.30 62.63
  A 0.50 0.50 0.0 0 0 37.81 62.13
  C 30.51 61.93 20.31 62.91 14.51 60.92
  C 5.54 57.83 4.39 50.37 4.26 41.18
  C 4.07 27.96 1.51 11.80 13.36 6.75
  Q 16.83 5.27 24.85 5.27
  Q 86.32 5.24 147.79 5.27
  C 165.83 5.28 166.76 20.43 165.32 33.99
  A 0.46 0.46 0.0 0 0 165.78 34.50
  L 184.71 34.50
  A 0.50 0.50 0.0 0 0 185.21 34.00
  C 185.23 15.47 184.52 5.45 206.31 5.28
  C 215.38 5.21 225.84 4.24 234.63 6.41
  C 237.57 7.14 239.35 8.98 241.59 10.86
  A 0.92 0.91 -33.4 0 0 242.45 11.03
  Q 249.77 8.67 254.75 8.00
  Q 286.13 3.79 319.75 7.76
  Q 328.70 8.82 335.23 11.25
  A 0.73 0.73 0.0 0 0 336.03 11.04
  C 338.96 7.64 344.84 6.31 349.01 6.28
  Q 371.93 6.13 385.74 6.32
  C 394.17 6.44 397.92 10.59 401.86 18.10
  Q 407.94 29.70 414.01 41.28
  Q 414.24 41.72 414.47 41.28
  Q 421.11 28.05 427.67 14.94
  C 431.46 7.36 437.69 6.12 446.26 6.05
  Q 466.70 5.87 479.76 6.04
  Q 486.60 6.12 491.63 10.93
  A 0.86 0.86 0.0 0 0 492.47 11.14
  C 512.91 5.24 537.60 4.81 558.52 6.67
  C 571.65 7.84 579.97 8.61 588.77 16.65
  A 0.59 0.57 45.8 0 0 589.53 16.67
  C 598.39 9.43 609.64 7.43 621.67 6.51
  Q 643.43 4.83 668.75 6.75
  Q 681.97 7.75 692.55 11.56
  A 0.80 0.78 -56.6 0 0 693.37 11.38
  Q 698.31 6.67 703.69 6.61
  Q 724.71 6.35 745.74 6.64
  Q 753.93 6.75 758.87 13.09
  Q 763.56 19.09 776.03 37.27
  Q 776.31 37.69 776.31 37.19
  Z
  M 83.75 46.80
  A 0.30 0.30 0.0 0 1 84.05 46.50
  L 115.70 46.50
  A 0.30 0.30 0.0 0 0 116.00 46.20
  L 116.00 20.55
  A 0.30 0.30 0.0 0 0 115.70 20.25
  L 19.52 20.25
  A 0.30 0.30 0.0 0 0 19.22 20.55
  L 19.26 46.70
  A 0.30 0.30 0.0 0 0 19.56 47.00
  L 53.21 47.00
  A 0.30 0.30 0.0 0 1 53.51 47.30
  L 53.49 112.45
  A 0.30 0.30 0.0 0 0 53.79 112.75
  L 83.45 112.76
  A 0.30 0.30 0.0 0 0 83.75 112.46
  L 83.75 46.80
  Z
  M 151.25 80.50
  L 199.75 80.50
  A 0.50 0.50 0.0 0 1 200.25 81.00
  L 200.25 112.50
  A 0.50 0.50 0.0 0 0 200.75 113.00
  L 229.37 113.00
  A 0.63 0.62 0.0 0 0 230.00 112.38
  L 230.01 20.85
  A 0.59 0.59 0.0 0 0 229.42 20.26
  L 200.75 20.22
  A 0.53 0.53 0.0 0 0 200.22 20.75
  L 200.26 49.00
  A 0.52 0.51 -90.0 0 1 199.75 49.52
  L 150.96 49.49
  A 0.60 0.60 0.0 0 1 150.36 48.89
  L 150.26 20.76
  A 0.51 0.50 90.0 0 0 149.76 20.25
  L 120.80 20.25
  A 1.17 1.15 -3.1 0 0 119.64 21.53
  C 120.17 26.73 119.76 32.33 119.75 36.38
  Q 119.71 60.29 120.07 84.18
  Q 120.28 98.33 119.73 112.24
  A 0.73 0.73 0.0 0 0 120.46 113.00
  L 150.25 113.00
  A 0.50 0.50 0.0 0 0 150.75 112.50
  L 150.75 81.00
  A 0.50 0.50 0.0 0 1 151.25 80.50
  Z
  M 602.62 25.72
  C 592.77 31.06 591.24 43.38 590.22 53.99
  Q 588.17 75.38 592.32 94.58
  C 595.14 107.64 604.49 111.15 616.51 112.19
  Q 644.92 114.65 670.77 112.35
  C 684.11 111.17 694.16 108.48 697.53 95.00
  Q 703.63 70.56 698.66 44.41
  C 695.98 30.34 689.74 24.40 675.31 22.62
  Q 645.63 18.98 615.93 22.44
  Q 606.70 23.51 602.62 25.72
  Z
  M 236.36 95.53
  C 238.55 105.11 246.01 110.57 255.51 111.76
  Q 263.94 112.82 283.32 113.68
  C 293.18 114.11 303.07 113.27 313.06 112.78
  C 332.04 111.85 339.18 105.90 341.95 86.88
  Q 345.29 63.94 340.80 41.01
  Q 337.66 24.98 321.52 22.95
  Q 291.65 19.18 261.78 22.27
  C 249.23 23.57 239.64 26.37 236.47 38.99
  Q 229.64 66.10 236.36 95.53
  Z
  M 456.26 56.30
  L 456.23 111.21
  A 0.55 0.55 0.0 0 0 456.78 111.76
  L 480.50 111.75
  A 0.50 0.50 0.0 0 0 481.00 111.25
  L 481.00 21.41
  A 0.41 0.41 0.0 0 0 480.59 21.00
  L 441.99 21.00
  A 0.85 0.84 12.9 0 0 441.23 21.47
  L 415.05 73.68
  A 0.67 0.67 0.0 0 1 413.86 73.69
  L 386.70 21.73
  A 0.92 0.90 75.6 0 0 385.90 21.24
  L 347.00 21.25
  A 0.50 0.50 0.0 0 0 346.50 21.75
  L 346.50 111.25
  A 0.50 0.49 0.0 0 0 347.00 111.74
  L 371.22 111.76
  A 0.54 0.53 -0.5 0 0 371.76 111.22
  L 371.74 56.28
  A 0.51 0.51 0.0 0 1 372.22 55.77
  L 373.25 55.69
  A 0.75 0.74 73.7 0 1 373.97 56.09
  L 402.29 111.53
  A 0.85 0.84 -12.9 0 0 403.05 112.00
  L 425.85 112.00
  A 0.82 0.80 12.8 0 0 426.58 111.55
  L 453.81 56.38
  A 0.50 0.47 50.1 0 0 453.83 56.00
  L 453.73 55.70
  Q 453.50 55.02 454.20 55.20
  L 455.73 55.61
  A 0.71 0.71 0.0 0 1 456.26 56.30
  Z
  M 504.03 23.56
  C 495.87 24.82 490.01 29.01 488.55 37.50
  C 486.50 49.43 484.09 70.27 499.93 73.58
  Q 507.73 75.21 517.50 75.52
  Q 533.34 76.03 549.18 76.45
  C 554.25 76.58 560.15 76.74 561.93 81.31
  C 564.37 87.60 558.05 90.97 552.75 91.25
  Q 539.86 91.94 521.51 91.17
  Q 512.96 90.82 510.70 83.01
  A 0.71 0.71 0.0 0 0 510.02 82.50
  L 487.80 82.50
  A 0.51 0.51 0.0 0 0 487.29 82.97
  C 486.43 93.44 487.54 106.49 500.17 109.90
  C 510.63 112.73 523.12 112.31 533.64 112.25
  C 547.43 112.18 559.02 112.16 571.31 110.59
  C 581.54 109.29 584.57 101.80 585.72 92.74
  C 587.34 79.92 589.05 58.80 570.92 57.11
  Q 550.28 55.18 524.78 55.31
  Q 518.48 55.34 516.35 54.28
  C 511.91 52.07 510.35 42.31 517.48 41.58
  Q 536.97 39.61 550.68 40.33
  Q 558.07 40.73 559.37 48.36
  A 0.73 0.73 0.0 0 0 560.05 48.96
  L 582.68 50.21
  A 0.49 0.48 -87.7 0 0 583.19 49.73
  C 583.37 36.63 582.20 24.52 566.34 22.59
  Q 535.10 18.78 504.03 23.56
  Z
  M 731.08 51.82
  Q 731.20 51.96 731.32 52.14
  Q 752.21 81.70 772.83 111.51
  A 1.14 1.13 72.4 0 0 773.76 112.00
  L 814.75 112.00
  A 0.50 0.50 0.0 0 0 815.25 111.50
  L 815.25 21.76
  A 0.50 0.50 0.0 0 0 814.76 21.26
  L 791.70 21.22
  A 0.33 0.32 90.0 0 0 791.38 21.55
  L 791.56 80.63
  A 1.25 1.25 0.0 0 1 789.29 81.36
  L 746.85 21.93
  A 1.04 1.04 0.0 0 0 746.01 21.50
  L 704.75 21.50
  A 0.50 0.50 0.0 0 0 704.25 22.00
  L 704.25 111.12
  A 0.63 0.63 0.0 0 0 704.88 111.75
  L 728.97 111.75
  A 0.53 0.53 0.0 0 0 729.50 111.22
  L 729.50 52.39
  A 0.89 0.89 0.0 0 1 731.08 51.82
  Z"
/>
<path d="
  M 918.77 23.96
  C 933.94 29.73 949.19 35.35 964.29 41.37
  A 0.74 0.73 11.4 0 1 964.75 42.05
  L 964.75 55.93
  A 0.34 0.34 0.0 0 1 964.29 56.25
  L 919.09 38.93
  A 0.90 0.88 -80.4 0 1 918.52 38.11
  L 918.44 24.19
  A 0.25 0.24 -79.4 0 1 918.77 23.96
  Z"
/>
<path d="
  M 931.61 86.66
  L 911.89 94.29
  A 0.60 0.60 0.0 0 1 911.45 94.29
  L 892.95 86.66
  A 0.60 0.60 0.0 0 1 892.58 86.11
  L 892.57 48.44
  A 0.60 0.60 0.0 0 1 892.94 47.88
  L 911.43 40.05
  A 0.60 0.60 0.0 0 1 911.89 40.04
  L 931.33 47.78
  A 0.60 0.60 0.0 0 1 931.70 48.33
  L 932.00 86.10
  A 0.60 0.60 0.0 0 1 931.61 86.66
  Z
  M 908.08 76.36
  Q 909.82 78.12 911.79 78.03
  Q 913.26 77.97 916.28 76.56
  A 0.82 0.82 0.0 0 0 916.75 75.82
  L 916.75 59.04
  A 1.04 1.03 -71.3 0 0 916.35 58.22
  Q 912.31 55.05 908.21 57.82
  A 1.05 1.04 73.2 0 0 907.75 58.69
  L 907.76 75.57
  A 1.14 1.13 -67.1 0 0 908.08 76.36
  Z"
/>
<path d="
  M 616.28 52.50
  C 616.63 46.36 622.07 44.19 627.34 44.03
  Q 646.69 43.44 662.74 43.80
  Q 673.22 44.03 673.72 54.71
  Q 674.20 64.96 673.71 75.26
  C 673.51 79.40 674.07 82.79 670.97 86.02
  C 668.19 88.92 662.90 89.30 659.01 89.28
  Q 647.73 89.23 628.02 88.83
  C 621.05 88.69 616.07 87.32 616.12 79.58
  C 616.18 69.99 615.80 60.93 616.28 52.50
  Z
  M 658.8196 59.6520
  A 0.78 0.78 0.0 0 0 658.0464 58.8652
  L 631.7074 58.6354
  A 0.78 0.78 0.0 0 0 630.9207 59.4085
  L 630.8004 73.1880
  A 0.78 0.78 0.0 0 0 631.5736 73.9748
  L 657.9126 74.2046
  A 0.78 0.78 0.0 0 0 658.6993 73.4315
  L 658.8196 59.6520
  Z"
/>
<path d="
  M 260.15 51.85
  C 260.52 47.58 265.04 45.32 268.82 45.22
  Q 280.60 44.93 303.50 45.06
  C 310.86 45.11 316.50 45.18 317.00 54.30
  Q 317.92 71.28 316.94 81.43
  C 316.44 86.61 311.96 88.50 307.00 88.69
  Q 288.40 89.40 269.81 88.66
  C 263.73 88.42 260.36 86.19 259.93 80.04
  Q 258.95 65.94 260.15 51.85
  Z
  M 302.2164 60.5380
  A 0.44 0.44 0.0 0 0 301.7741 60.1004
  L 275.1345 60.2398
  A 0.44 0.44 0.0 0 0 274.6968 60.6821
  L 274.7636 73.4420
  A 0.44 0.44 0.0 0 0 275.2059 73.8796
  L 301.8455 73.7402
  A 0.44 0.44 0.0 0 0 302.2832 73.2979
  L 302.2164 60.5380
  Z"
/>
<path d="
  M 906.99 95.94
  L 907.01 110.19
  A 0.34 0.34 0.0 0 1 906.55 110.50
  L 860.97 93.09
  A 0.34 0.34 0.0 0 1 860.75 92.78
  L 860.75 78.74
  A 0.34 0.34 0.0 0 1 861.21 78.42
  L 906.77 95.63
  A 0.34 0.34 0.0 0 1 906.99 95.94
  Z"
/>
</g>
</svg>
