<?xml version="1.0" encoding="UTF-8" standalone="no"?>
<svg
   version="1.1"
   viewBox="0 0 936 371"
   id="svg13"
   sodipodi:docname="tools.svg"
   inkscape:version="1.3.2 (091e20e, 2023-11-25, custom)"
   xmlns:inkscape="http://www.inkscape.org/namespaces/inkscape"
   xmlns:sodipodi="http://sodipodi.sourceforge.net/DTD/sodipodi-0.dtd"
   xmlns="http://www.w3.org/2000/svg"
   xmlns:svg="http://www.w3.org/2000/svg">
  <defs
     id="defs13" />
  <sodipodi:namedview
     id="namedview13"
     pagecolor="#505050"
     bordercolor="#eeeeee"
     borderopacity="1"
     inkscape:showpageshadow="0"
     inkscape:pageopacity="0"
     inkscape:pagecheckerboard="true"
     inkscape:deskcolor="#505050"
     inkscape:zoom="1.9957265"
     inkscape:cx="468"
     inkscape:cy="185.64668"
     inkscape:window-width="2560"
     inkscape:window-height="1351"
     inkscape:window-x="-9"
     inkscape:window-y="-9"
     inkscape:window-maximized="1"
     inkscape:current-layer="svg13" />
  <g
     fill="#454648"
     id="g11"
     style="display:inline">
    <path
       d="m 23.56,296.49 32.53,-38.9 a 0.61,0.6 -51.5 0 1 0.82,-0.1 q 31,22.72 69.77,21.46 c 6.22,-0.2 13.78,-2.69 11.84,-10.94 -1.05,-4.46 -12.56,-7.65 -16.2,-8.38 q -23.48,-4.76 -35.81,-8.4 c -26.45,-7.8 -51.27,-20.25 -53,-51.63 -2.17,-39.52 29.44,-61.93 65.25,-65.44 35.12,-3.44 70.29,2.99 98.44,24.34 a 0.61,0.6 36.7 0 1 0.13,0.83 l -29.63,41.19 a 0.51,0.5 34.5 0 1 -0.69,0.12 q -25.19,-17.42 -56.02,-18.1 c -4.7,-0.11 -12.01,0.71 -13.79,5.99 -2.93,8.68 9.9,11.76 15.84,12.99 37.59,7.77 92.42,15.67 89.05,67.48 -2.28,35.14 -30.75,53.97 -63.16,57.97 -40.16,4.95 -83.42,-3.69 -115.3,-29.72 a 0.54,0.53 40.1 0 1 -0.07,-0.76 z"
       id="path9" />
    <path
       d="m 268.48,273.47 99.47,0.36 a 0.3,0.3 0 0 1 0.3,0.3 v 50.32 a 0.3,0.3 0 0 1 -0.3,0.3 h -160.9 a 0.3,0.3 0 0 1 -0.3,-0.3 v -187.4 a 0.3,0.3 0 0 1 0.3,-0.3 h 159.42 a 0.3,0.3 0 0 1 0.3,0.3 l -0.03,50.65 a 0.3,0.3 0 0 1 -0.3,0.3 h -97.98 a 0.3,0.3 0 0 0 -0.3,0.3 v 19.15 a 0.3,0.3 0 0 0 0.3,0.3 h 91.44 a 0.3,0.3 0 0 1 0.3,0.3 v 44.15 a 0.3,0.3 0 0 1 -0.3,0.3 h -91.36 a 0.3,0.3 0 0 0 -0.3,0.3 l -0.06,20.37 a 0.3,0.3 0 0 0 0.3,0.3 z"
       id="path10" />
    <path
       d="m 489.5,190.38 v 133.87 a 0.5,0.5 0 0 1 -0.5,0.5 h -61.5 a 0.5,0.5 0 0 1 -0.5,-0.5 v -133.7 a 1.18,1.17 -3.3 0 0 -1.31,-1.16 q -4.17,0.49 -8.14,0.35 c -15.06,-0.52 -30.22,-0.25 -45.29,-0.27 a 0.51,0.5 0 0 1 -0.51,-0.5 v -51.72 a 0.5,0.5 0 0 1 0.5,-0.5 h 172.16 a 0.6,0.6 0 0 1 0.6,0.6 L 544.99,189 a 0.5,0.49 -90 0 1 -0.49,0.5 h -54.13 a 0.88,0.87 90 0 0 -0.87,0.88 z"
       id="path11" />
  </g>
  <g
     fill="#b7d126"
     id="g13"
     style="display:inline">
    <path
       d="m 614.12,118.75 a 0.32,0.32 0 0 0 -0.32,0.32 q -0.06,57.87 -0.08,115.68 c -0.01,19.08 4.18,36.09 26.24,38.25 20.7,2.03 32.44,-11.08 32.46,-30.75 q 0.05,-52.49 0.11,-104.99 a 0.51,0.5 -90 0 1 0.5,-0.51 h 62.75 a 0.42,0.41 -90 0 1 0.41,0.42 q 0.24,53.37 -0.14,106.83 c -0.26,36.95 -18.21,69.19 -55.56,79.48 q -32.56,8.98 -66.67,1.98 c -24.48,-5.02 -44.28,-17.21 -55.06,-40.46 -6.92,-14.92 -8.46,-32.75 -8.48,-50.02 q -0.06,-57.85 -0.02,-115.75 a 0.48,0.48 0 0 0 -0.48,-0.48 H 499.5 q -0.65,0 -0.24,-0.5 L 582.62,18.2 a 0.38,0.37 44.6 0 1 0.57,0 l 83.46,100.17 a 0.23,0.23 0 0 1 -0.18,0.38 z"
       id="path12" />
    <path
       d="m 804.02,274.3 -0.05,49.97 a 0.49,0.49 0 0 1 -0.49,0.48 h -61.82 a 0.41,0.41 0 0 1 -0.41,-0.41 V 137.28 a 0.49,0.48 0 0 1 0.49,-0.48 q 43.3,-0.11 86.5,0.16 c 36.24,0.23 75.03,14.36 80.65,55.57 7.18,52.64 -31.53,80.29 -79.66,81 q -12.34,0.18 -24.73,0.28 a 0.49,0.48 -90 0 0 -0.48,0.49 z m 0.45,-45.11 c 15.12,0.54 42.57,2.52 43.52,-20.18 1.08,-25.73 -27.36,-22.31 -43.55,-22.24 a 0.44,0.44 0 0 0 -0.44,0.44 v 41.49 a 0.49,0.49 0 0 0 0.47,0.49 z"
       id="path13" />
  </g>
</svg>
