<svg xmlns="http://www.w3.org/2000/svg" width="481" height="214" fill="none" viewBox="0 0 481 214">
  <path fill="#fff" d="M262.458 89.866h-35.415c-6.74 0-14.424 7.514-14.424 14.096v29.492c0 6.585 7.684 14.093 14.424 14.093h35.415c6.736 0 14.416-7.508 14.416-14.093v-29.492c0-6.582-7.68-14.096-14.416-14.096Zm-1.89 13.526c0 .69.046 29.522.046 30.203h-31.635c0-.681-.045-29.513-.045-30.203h31.634M392.517 89.688H360.78c-6.584 0-14.09 7.408-14.09 13.907v29.842c0 6.496 7.506 13.904 14.09 13.904h31.737c6.582 0 14.093-7.408 14.093-13.904v-9.361l-15-.022v9.677h-29.273v-30.433h29.273v8.567l15-.03v-8.24c0-6.499-7.511-13.907-14.093-13.907M108.903 126.662h2.293c6.619 0 12.87-6.173 12.87-12.708v-11.569c0-6.535-6.251-12.71-12.87-12.71l-44.898-.01v57.687h15.418V102.33h25.175c2.027 0 2.751 1.707 2.751 3.17v5.745c0 1.78-.983 2.764-2.751 2.764h-18.2l.296 12.264 23.218 21.051h20.217l-23.519-20.662M324.941 126.857h2.301c6.611 0 12.866-6.173 12.866-12.708v-11.568c0-6.535-6.255-12.712-12.866-12.712l-44.903-.008v57.686h15.42v-45.022h25.163c2.038 0 2.758 1.707 2.758 3.17v5.745c0 1.78-.979 2.764-2.758 2.764h-18.19l.297 12.264 23.212 21.051h20.218l-23.518-20.662M62.196 89.688H0v13.293h22.959v44.265h16.284v-44.265h22.953V89.688M149.934 89.708h-16.315v57.616h16.315V89.708M208.466 102.98V89.687l-49.585-.005v57.664h16.335v-22.503h28.456v-13.287h-28.456v-8.576h33.25ZM464.296 134.048h-36.042v-9.204h25.14v-13.287h-25.14v-8.576h35.468V89.688h-52.14v57.669l52.714-.016v-13.293"/>
  <path fill="#5052BA" d="M234.9 23.086c1.666 3.148 31.818 60.167 31.818 60.167h12.214L234.9 0l-44.027 83.253h12.208s29.995-56.707 31.819-60.167ZM327.717 175.488h-12.214s12.882 24.349 14.16 26.774H140.136c1.62-3.07 14.159-26.774 14.159-26.774h-12.203l-20.268 38.309h226.152l-20.259-38.309Z"/>
  <path fill="#fff" d="M469.495 91.24v6.498h-1.412V91.24h-2.371v-1.53h6.156v1.53h-2.373ZM474.863 89.71l1.646 6.082 1.657-6.082h2.053v8.028h-1.351V93.6s.01-.203.01-.303c.016-.603.031-1.307.042-1.907l-1.732 6.348h-1.357l-1.732-6.349c.021.543.052 1.744.052 2.242v4.107H472.8V89.71h2.063M292.97 169.137l-7.038-10.668-.9.44-.016 10.228h-3.347v-14.519h5.246l5.52 8.479.911-.334.026-8.145h3.367v14.519h-3.769M332.191 169.137l-7.035-10.668-.903.44-.011 10.228h-3.346v-14.519h5.248l5.512 8.479.916-.334.021-8.145h3.368v14.519h-3.77M400.375 169.137l-7.038-10.668-.9.44-.016 10.228h-3.347v-14.519h5.246l5.52 8.479.916-.334.021-8.145h3.368v14.519h-3.77M307.169 169.137v-14.519h3.725v14.519h-3.725M353.81 157.596v11.541h-3.897v-11.541h-5.33v-2.978h14.343v2.978h-5.116ZM371.246 157.596v2.959h9.12v2.581h-9.12v3.025h9.099v2.976h-12.79v-14.519h12.85v2.978h-9.159M424.907 166.161h-7.948v-8.565h7.948v8.565Zm3.796-.67v-7.372c0-2.336-1.299-3.501-3.368-3.501h-11.958v14.519h11.851c2.325 0 3.475-1.146 3.475-3.646ZM448.481 166.161h-7.398v-8.565h7.398v8.565Zm3.598-.542v-7.481c0-2.561-.978-3.52-3.298-3.52h-8.019c-2.277 0-3.321 1.001-3.321 3.52v7.481c0 2.453 1.086 3.518 3.321 3.518h8.019c2.257 0 3.298-1.043 3.298-3.518M171.858 169.487h-11.805v-3.145h11.229v-3.112h-7.8c-2.11 0-3.322-.567-3.322-2.475v-4.093c0-1.685.978-2.43 4.239-2.43h9.293v3.131h-10.017v3.15h8.122c2.232 0 2.96 1.007 2.96 2.648v4.163c0 1.246-.83 2.163-2.899 2.163M221.194 169.515h-8.483c-2.242 0-3.327-1.14-3.327-3.721v-7.867c0-2.712.958-3.696 3.454-3.696h11.49v3.131h-11.322v8.996h7.954v-2.845h-5.462v-2.719h8.998v5c0 2.581-1.085 3.721-3.302 3.721M245.743 160.711h-7.709v-3.348h7.709v3.348Zm3.602 8.776v-12.653c0-1.576-.932-2.602-2.96-2.602h-8.968c-2.027 0-2.985 1.026-2.985 2.602v12.653h3.602v-5.995h7.709v5.995h3.602ZM199.627 157.368v-3.126h-11.485c-2.496 0-3.459.985-3.459 3.699v7.864c0 2.581 1.09 3.72 3.332 3.72h11.561l.035-3.153H188.31v-3.142h8.168v-2.717h-8.168v-3.145h11.317M144.039 161.881c0 1.402-1.045 2.542-2.334 2.542-1.284 0-2.328-1.14-2.328-2.542 0-1.407 1.044-2.547 2.328-2.547 1.289 0 2.334 1.14 2.334 2.547ZM267.391 161.881c0 1.402-1.043 2.542-2.329 2.542-1.289 0-2.333-1.14-2.333-2.542 0-1.407 1.044-2.547 2.333-2.547 1.286 0 2.329 1.14 2.329 2.547ZM24.11 169.231l-7.036-10.828-.902.445-.015 10.383H12.81v-14.738h5.248l5.518 8.607.912-.34.025-8.267h3.368v14.738h-3.77ZM120.214 166.256h-7.398v-8.565h7.398v8.565Zm3.597-.542v-7.481c0-2.561-.978-3.52-3.297-3.52h-8.019c-2.278 0-3.322 1.001-3.322 3.52v7.481c0 2.452 1.085 3.517 3.322 3.517h8.019c2.258 0 3.297-1.042 3.297-3.517ZM90.744 169.231c-2.379 0-3.78-1.226-3.78-3.715v-7.213c0-2.347 1.549-3.81 3.923-3.81h10.149v3.026H90.602v8.692h10.434v3.02H90.744M75.917 169.231v-7.491l-.01-3.804h-1.325l-3.088 11.295h-3.429l-3.108-11.295h-1.304l.01 11.295h-3.495v-14.738h6.425l2.542 10.411h1.294l2.563-10.411h6.4v14.738h-3.475M48.26 160.75h-7.708v-3.231h7.709v3.231Zm3.308 8.481v-12.224c0-1.524-.933-2.514-2.96-2.514H39.64c-2.028 0-2.986.99-2.986 2.514v12.224h3.602v-5.795h7.71v5.795h3.602"/>
</svg>
