<svg id="Layer_1" data-name="Layer 1" xmlns="http://www.w3.org/2000/svg" viewBox="0 0 3839 818"><path id="path1230" d="M402.3,698.1H503v-22.4H427.9V477.5H402.3Z" transform="translate(0 0)" style="fill:#fff"/><path id="path1247" d="M701.8,477.5V698.1h25.6V599.5l23.6-.1c22.8-.1,37.7,6,37.7,34.3v37.4c-.1,10.8.4,16.7,3.2,26.9h26.3c-2.7-9.6-3.8-15.3-3.8-22.9v-40.8c0-27.9-9.3-42.1-31-47.8,19.5-7.2,31.2-15.6,31.2-58,0-35.9-22.3-51.2-56.2-51.2Zm25.6,22.3h29.2c19,0,32.3,4.6,32.3,38.3,0,29.8-13.3,38.3-32.3,38.3H727.4Z" transform="translate(0 0)" style="fill:#fff"/><path d="M156.5,479.9a65.28561,65.28561,0,0,0-56.9,0c-17.6,8.7-28.4,24.9-28.4,42.4V652.5c0,17.5,10.8,33.7,28.4,42.4a65.28554,65.28554,0,0,0,56.9,0c17.6-8.7,28.2-24.9,28.2-42.4V637.2H159.9v11.5a30.29845,30.29845,0,0,1-15.7,26.4,32.13053,32.13053,0,0,1-31.5,0A30.29851,30.29851,0,0,1,97,648.7V526.2a30.29834,30.29834,0,0,1,15.7-26.4,32.38764,32.38764,0,0,1,31.5,0,30.41809,30.41809,0,0,1,15.7,26.4v11.5h24.8V522.4C184.7,504.8,174.1,488.7,156.5,479.9Z" transform="translate(0 0)" style="fill:#fff"/><rect x="1822.80005" y="530.90002" width="153.59998" height="114.40002" style="fill:#ff6a29"/><path d="M3839,494.8V357H3654a120.50033,120.50033,0,0,0-120.5,120.5V697.4A120.50041,120.50041,0,0,0,3654,817.9h185V680.2H3693.8999A22.74733,22.74733,0,0,1,3671.2,657.5h0a22.74733,22.74733,0,0,1,22.69995-22.7H3839V540.1H3693.8999A22.74734,22.74734,0,0,1,3671.2,517.4h0a22.74733,22.74733,0,0,1,22.69995-22.7H3839Z" transform="translate(0 0)" style="fill:#ff6a29"/><polygon points="1356 357 1259.1 357 1121.3 357 1024.4 357 1024.4 494.8 1121.3 494.8 1121.3 817.9 1259.1 817.9 1259.1 494.8 1356 494.8 1356 357" style="fill:#ff6a29"/><path d="M2256.1001,546.2V678.9c-120.5-10-117.1001-195.9,10.3-195.9,58.60009,0,127.5,12,127.5,12V356.3c-38.19995-7.1-80.69995-11.1-127.5-11.1h0c-314.6,0-314.6,471.9,0,471.9,46.80005,0,89.2-4,127.5-11.1V780.6h0V546.2Z" transform="translate(0 0)" style="fill:#ff6a29"/><path d="M1642.5,357v31.3a746.53616,746.53616,0,0,1-48.1,266.4,743.56646,743.56646,0,0,1-48.1-266.4V357H1408.5v30.7h0a881.92146,881.92146,0,0,0,109.80005,430.2h152.1a881.92146,881.92146,0,0,0,109.80005-430.2h0V357Z" transform="translate(0 0)" style="fill:#ff6a29"/><rect y="731" width="908.29999" height="49.29999" style="fill:#ff6a29"/><rect y="806.70001" width="908.29999" height="11.20001" style="fill:#ff6a29"/><rect y="394.60001" width="908.29999" height="49.29999" style="fill:#ff6a29"/><rect y="357" width="908.29999" height="11.20001" style="fill:#ff6a29"/><path d="M1418.1,129.2,1338.7.5h-57.6V184.7h57.1V56l79.9,128.7h57.1V.5h-57.1Zm451.3-66.9V44.1h-30.1V19.2h-55.5V44.1h-30.1V62.3h30.1V184.7h55.5V62.3Zm-362.6,122.4h55.5V62.3h-55.5Zm0-146.8h55.5V0h-55.5ZM2477,54c-44.6001,0-80.8999,30.6-80.8999,69,0,37.9,36.3,69,80.8999,69s80.8999-30.6,80.8999-69S2522.6001,54,2477,54Zm22.3,94.4c0,19.7-11.3999,27.5-22.8,27.5-10.8999,0-22.8-8.3-22.8-27.5V96.5c0-19.2,11.3999-27.5,22.8-27.5,10.8999,0,22.8,7.8,22.8,27.5v51.9ZM2323.8999,68.5c-8.8-5.2-18.19995-9.9-31.1001-10.9-39.8999-3.6-70.60009,31.6-70.60009,64.3,0,42.5,32.7,58.6,37.8999,60.7,18.69995,8.8,42.5,8.8,63.8-4.7v7.3h54.5V1h-54.5C2323.8999.5,2323.8999,39.9,2323.8999,68.5Zm0,54.5v21.8c0,18.7-13,23.9-21.8,23.9s-21.80005-5.2-21.80005-23.9V101.2c0-19.2,13-23.9,21.80005-23.9s21.8,4.7,21.8,23.9ZM1692,56.6a65.02255,65.02255,0,0,0-44.1,18.7v-13h-55V184.7h55V104.3c0-10.9,11.4-22.3,26.5-22.3s25.4,11.9,25.4,22.3v80.4h55V118.3C1754.80005,69.5,1712.7,56,1692,56.6Zm450.3,0A65.0231,65.0231,0,0,0,2098.2,75.3v-13h-55V184.7h55V104.3c0-10.9,11.3999-22.3,26.5-22.3s25.3999,11.9,25.3999,22.3v80.4h55V118.3C2204.6001,69.5,2162.6001,56,2142.30005,56.6ZM2025.6,124c0-37.9-36.80005-69.5-82-69.5-45.1,0-81.5,30.6-81.5,69,0,37.9,36.3,69,81.5,69,37.4,0,69-21.3,78.9-50.3h-55v7.3c0,22.3-14.5,27.5-22.80005,27.5s-23.30005-5.2-23.30005-27.5V124.1L2025.6,124ZM1925.5,80.9C1929.7,73.1,1938,70,1945.2,69.5a22.89678,22.89678,0,0,1,19.69995,11.4c3.6,6.2,3.6,13.5,3.6,23.9h-46.2C1921.30005,93.9,1921.30005,87.2,1925.5,80.9Z" transform="translate(0 0)" style="fill:#fff"/><path d="M2460.30005,530.6V817.9H2598.1001V725.1h95.3v92.8H2831.2002V530.6C2831.2,283.3,2460.30005,283.3,2460.30005,530.6Zm137.80005,56.7V530.6c0-63.5,95.3-63.5,95.3,0v56.7Z" transform="translate(0 0)" style="fill:#ff6a29"/><path d="M3182.8999,379.4C3079,304.4,2894.2,352.5,2894.2,523.9V818H3032V523.9c-.1001-54.6,81.8999-54.6,81.8999,0V818H3251.7V523.9c-.1001-54.6,82-54.6,82,0V818h137.8V523.9C3471.5,352.5,3286.7,304.3,3182.8999,379.4Z" transform="translate(0 0)" style="fill:#ff6a29"/><path d="M621.9,480c-17.6-8.7-41.3-8.7-58.9,0-17.6,8.7-28.4,24.9-28.4,42.4V652.6c0,17.5,10.8,33.7,28.4,42.4,17.6,8.7,41.3,8.7,58.9,0s28.2-24.9,28.2-42.4V522.4C650.1,504.9,639.5,488.7,621.9,480Zm3.4,168.8a30.29842,30.29842,0,0,1-15.7,26.4c-9.7,5.5-23.8,5.5-33.5,0a30.418,30.418,0,0,1-15.7-26.4V526.2a30.29832,30.29832,0,0,1,15.7-26.4c9.7-5.5,23.8-5.5,33.5,0a30.41807,30.41807,0,0,1,15.7,26.4Z" transform="translate(0 0)" style="fill:#fff"/><path d="M321.8,480c-17.6-8.7-41.3-8.7-58.9,0s-28.4,24.9-28.4,42.4V652.6c0,17.5,10.8,33.7,28.4,42.4s41.3,8.7,58.9,0S350,670.1,350,652.6V522.4C350,504.9,339.4,488.7,321.8,480Zm3.4,168.8a30.29842,30.29842,0,0,1-15.7,26.4c-9.7,5.5-23.8,5.5-33.5,0a30.418,30.418,0,0,1-15.7-26.4V526.2A30.29833,30.29833,0,0,1,276,499.8c9.7-5.5,23.8-5.5,33.5,0a30.41807,30.41807,0,0,1,15.7,26.4Z" transform="translate(0 0)" style="fill:#fff"/></svg>