<?xml version="1.0" encoding="UTF-8" standalone="no"?>
<!-- Created by ERK -->

<svg
   width="302.36487mm"
   height="119.59129mm"
   viewBox="0 0 302.36487 119.59129"
   version="1.1"
   id="svg5"
   inkscape:version="1.4 (86a8ad7, 2024-10-11)"
   sodipodi:docname="tyrquake-w.svg"
   xmlns:inkscape="http://www.inkscape.org/namespaces/inkscape"
   xmlns:sodipodi="http://sodipodi.sourceforge.net/DTD/sodipodi-0.dtd"
   xmlns="http://www.w3.org/2000/svg"
   xmlns:svg="http://www.w3.org/2000/svg">
  <sodipodi:namedview
     id="namedview7"
     pagecolor="#ffffff"
     bordercolor="#666666"
     borderopacity="1.0"
     inkscape:pageshadow="2"
     inkscape:pageopacity="0.0"
     inkscape:pagecheckerboard="true"
     inkscape:document-units="mm"
     showgrid="false"
     inkscape:zoom="1.0469406"
     inkscape:cx="584.56038"
     inkscape:cy="304.21974"
     inkscape:window-width="3840"
     inkscape:window-height="2066"
     inkscape:window-x="-11"
     inkscape:window-y="-11"
     inkscape:window-maximized="1"
     inkscape:current-layer="svg5"
     inkscape:showpageshadow="0"
     inkscape:deskcolor="#d1d1d1" />
  <defs
     id="defs2" />
  <g
     id="g1"
     inkscape:label="Quake"
     style="display:inline;fill:#ffffff;stroke:none">
    <path
       d="m 60.43064,0 q 9.20747,5.29165 14.49912,14.075789 5.29165,8.678306 5.29165,19.155773 0,15.345789 -9.9483,26.140749 -7.09081,7.61998 -15.66328,9.84247 -2.01083,0.52917 -7.40831,1.69333 v -10.9008 q 0,-2.22249 0.3175,-3.91582 0.63499,-3.38666 4.55082,-4.02166 0.10583,-0.21166 -0.635,-0.21166 H 32.279065 q 0.317499,0 0.529165,0.21166 3.280823,0.52917 4.021654,4.02166 0.105833,2.11666 0.105833,3.80999 v 11.00663 q -2.434159,-0.10583 -6.984978,-1.69333 -8.784139,-2.11666 -15.980783,-10.2658 -6.984978,-7.83164 -8.784139,-16.93328 -0.846664,-4.339153 -0.846664,-8.784139 0,-12.170795 6.879145,-21.695765 Q 16.298282,4.550819 24.024091,0 16.721614,2.645825 10.900799,9.52497 5.503316,15.769117 2.857491,23.600759 0,31.855733 0,40.534039 q 0,20.743272 16.086616,34.078222 9.313304,7.72581 20.849101,8.88998 v 11.11246 q 0.529165,1.48166 5.820813,24.976589 1.5875,-11.2183 3.49249,-20.002439 0.9525,-4.44498 0.9525,-5.07998 v -10.9008 q 11.85329,-1.27 21.37826,-9.10164 9.20747,-7.61998 13.44079,-19.04994 2.54,-6.77331 2.54,-14.922452 0,-9.313304 -3.28083,-18.203276 Q 74.92976,5.503316 60.43064,0 Z"
       style="font-size:105.833px;line-height:1.25;font-family:DpQuake;-inkscape-font-specification:'DpQuake, Normal';fill:#ffffff;stroke:none;stroke-width:0.264583"
       id="path7790"
       inkscape:label="Q" />
    <path
       d="m 94.72047,66.780621 q 0,6.34998 4.97415,11.5358 4.55082,4.76248 12.69996,4.97415 -6.45581,-0.3175 -9.84247,-6.98498 -0.84666,-2.32832 -0.84666,-5.60915 V 39.793208 q -0.42333,-3.598322 3.91582,-5.079984 H 91.22798 q 2.96333,0.846664 3.49249,4.974151 z m 39.68738,0 q 0,7.09081 -4.97415,11.42997 -2.32833,2.11666 -4.12749,3.06915 -3.49249,1.79916 -8.46664,1.905 6.34998,-0.21167 9.6308,-6.98498 0.9525,-1.79916 0.9525,-4.97415 V 39.687375 q 0.42333,-3.598322 -3.80999,-4.868318 h 14.60496 q -3.28083,0.740831 -3.80999,4.868318 z"
       style="font-size:105.833px;line-height:1.25;font-family:DpQuake;-inkscape-font-specification:'DpQuake, Normal';fill:#ffffff;stroke:none;stroke-width:0.264583"
       id="path7792"
       inkscape:label="u" />
    <path
       d="M 181.82105,83.290571 H 195.791 q -3.28082,-1.58749 -5.71498,-6.87914 -4.86832,-10.47747 -8.04331,-17.14495 -0.31749,-0.74083 -1.79916,-3.80999 h 0.10584 l -8.36081,-19.79077 -3.59832,9.20747 q -0.9525,2.22249 -3.91582,9.10164 -0.74083,1.90499 -5.07999,11.42996 -2.96332,6.34998 -4.86832,9.94831 -3.80998,6.77331 -6.45581,7.93747 h 9.52497 q -2.32832,-0.42333 -2.64582,-2.64582 l 0.3175,-2.11666 q 1.37582,-4.65666 3.38665,-8.14915 1.905,-2.53999 6.87915,-2.53999 -3.80999,-0.21166 -3.80999,-2.96332 0,-0.74083 0.42333,-1.79916 l 2.11666,-5.18582 q 0.52917,-1.48166 2.53999,-5.71498 2.11666,-4.23332 3.06916,-3.70416 1.16416,0.635 3.28082,5.71498 1.16417,2.8575 3.59832,8.57248 0.42334,1.16416 0.42334,1.79916 0,2.01083 -3.06916,2.96332 l -1.05833,0.3175 q 0.21167,0 0.74083,0 2.01083,0.10583 3.17499,0.3175 3.38666,1.05833 5.39748,6.03248 l 2.43416,5.82082 q 0.3175,3.06915 -2.96332,3.28082 z"
       style="font-size:105.833px;line-height:1.25;font-family:DpQuake;-inkscape-font-specification:'DpQuake, Normal';fill:#ffffff;stroke:none;stroke-width:0.264583"
       id="path7794"
       inkscape:label="a" />
    <path
       d="m 215.37017,78.633921 q 0,3.91582 3.38665,4.65665 h -13.33496 q 2.8575,-0.74083 3.28083,-4.65665 l 0.10583,-37.67655 q 0,-4.021654 -3.28082,-4.762485 h 13.33496 q -2.54,0.529165 -3.38666,4.550815 v 13.33496 q 0,3.80999 4.97415,5.39748 -5.07998,1.05833 -5.07998,6.34998 z m 19.15577,-21.37827 q 8.57247,-11.11246 17.67411,-23.177425 l -27.30491,25.505755 h 0.10583 l -0.10583,0.10583 h 0.21166 q 22.54243,8.36081 23.81243,25.39992 0.21166,-1.69333 0.21166,-3.38665 0,-11.2183 -6.34998,-18.41495 -3.59832,-4.12748 -8.25497,-6.03248 z"
       style="font-size:105.833px;line-height:1.25;font-family:DpQuake;-inkscape-font-specification:'DpQuake, Normal';fill:#ffffff;stroke:none;stroke-width:0.264583"
       id="path7796"
       inkscape:label="k" />
    <path
       d="m 272.73162,61.277311 q -1.5875,1.37582 -1.5875,3.70415 v 4.12749 q 0,1.69333 0.9525,7.30248 2.85749,6.56164 8.88997,6.87914 -5.92664,-0.21167 -11.11246,-4.12749 -5.60915,-4.33915 -5.60915,-10.05413 v -28.15158 q -1.05833,-4.23332 -3.59832,-5.079984 h 13.96995 q -3.49249,0.846664 -3.49249,5.291654 v 13.44079 q 0,2.75165 1.48167,3.91582 0,0.635 8.14914,0.95249 -5.39749,0.21167 -8.04331,1.79917 z m 13.75829,22.22493 q 8.25497,-0.635 15.87495,-15.55746 v 15.45162 q -1.16416,-1.58749 -3.59832,-1.58749 -1.48166,0 -5.50332,0.84666 -4.02165,0.84667 -6.77331,0.84667 z m -2.75166,-47.624854 h 16.08662 l 0.10583,15.980784 Q 298.55487,38.946544 283.73825,35.877387 Z"
       style="font-size:105.833px;line-height:1.25;font-family:DpQuake;-inkscape-font-specification:'DpQuake, Normal';fill:#ffffff;stroke:none;stroke-width:0.264583"
       id="path7798"
       inkscape:label="e" />
  </g>
</svg>
