<svg height="147.866" width="595.854" xmlns="http://www.w3.org/2000/svg">
    <g fill="red" stroke-width="2.5">
        <path d="M61.88 39.059V2.361H35.513v36.698h4.04v47.643c0 7.726 0 11.804-.425 14.38-.425 4.077-2.764 6.437-6.166 6.437s-5.53-2.575-6.167-6.867c-.213-2.575-.426-7.297-.426-13.306V39.06h5.53V2.361H0v36.698h6.805V116.533c0 12.018 1.701 18.671 6.167 23.607 4.465 4.936 11.27 7.726 18.5 7.726 15.098 0 23.179-10.516 23.179-29.616V39.059zM142.48 39.059V2.361h-28.495v36.698h7.655v63.095L101.226 2.361H69.328v36.698h7.23v67.817h-7.23v38.63h29.346v-38.63H90.38V32.62l23.604 112.884h21.477V39.06zM184.157 145.505v-38.63h-6.805V39.06h6.805V2.361h-34.024v36.698h7.017v67.817h-7.017v38.63zM254.438 39.059V2.361h-27.645v36.698h8.294l-8.294 74.255-10.207-74.255h6.167V2.361h-31.685v36.698h6.167l14.673 106.446h23.179L249.12 39.06zM318.712 145.505V86.488h-18.287v20.388h-13.61v-27.47h17.863V64.598h-17.863V39.059h13.61v20.602h16.799v-57.3h-56.99v36.698h7.017v67.817h-7.017v38.63zM399.2 112.455c0-6.009-.212-11.588-1.063-20.387h-4.891v2.36c0 10.302-1.063 13.735-4.04 13.735-2.34 0-3.403-1.717-3.615-5.794l-.426-7.726-.425-9.658c-.213-6.223-3.19-10.086-8.506-11.589-1.488-.429-1.914-.643-6.38-1.287 1.064-.215 1.702-.43 2.34-.644 13.184-3.005 16.586-9.443 16.586-31.118 0-30.26-5.954-37.986-29.345-37.986h-31.897v36.698h7.017v67.817h-7.017v38.63h34.023v-38.63h-6.804V79.62c.85 0 1.488-.214 1.913-.214 9.57 0 11.483 2.36 11.483 14.378 0 1.288-.212 3.863-.212 7.941v9.228c0 16.31.425 21.247 2.339 26.612 2.126 5.794 6.592 9.013 12.972 9.013 11.695 0 15.948-9.442 15.948-34.123zm-30.409-59.232c0 9.872-2.339 12.233-12.12 12.233h-1.914V39.059h2.339c9.569 0 11.695 2.575 11.695 14.164zM459.029 109.236c0-16.954-1.701-26.397-6.167-32.406-3.828-5.365-8.08-8.799-18.075-15.237-7.443-4.721-9.995-8.799-9.995-14.808 0-4.722 2.127-7.511 5.742-7.511 4.04 0 5.316 2.146 5.741 9.872l.213 3.648h18.5V2.361h-17.437v10.086C433.724 3.22 429.896 0 423.091 0c-13.397 0-19.776 12.662-19.776 38.415 0 18.886 3.827 27.9 15.948 36.27l10.208 7.081c5.316 3.649 7.655 8.37 7.655 15.667 0 6.653-2.127 10.086-6.38 10.086-5.316 0-7.23-3.863-7.23-14.164V91.21h-18.5v54.296h18.5V135.42c4.253 8.584 9.357 12.447 16.374 12.447 12.972 0 19.139-12.662 19.139-38.63zM531.04 145.505v-38.63h-6.379L509.988 2.362h-26.156l-14.247 104.515h-6.805v38.63h29.133v-38.63h-8.08l2.339-18.886h15.098l2.126 18.886h-7.443v38.63zm-31.684-72.323h-11.27l5.74-43.995zM595.854 145.505v-66.1H577.78v27.47h-13.397V39.06h7.23V2.361h-34.449v36.698h7.018v67.817h-7.018v38.63z"/>
    </g>
</svg>
