<svg xmlns="http://www.w3.org/2000/svg" xmlns:xlink="http://www.w3.org/1999/xlink" viewBox="0 0 347.869 102.59">
    <defs>
        <linearGradient y2="25.554" x2="299.872" y1="70.387" x1="299.872" gradientUnits="userSpaceOnUse" id="d">
            <stop style="stop-color:#a6a6a6;stop-opacity:1" stop-color="#d9d9d9" offset="0"/>
            <stop stop-color="#d9d9d9" offset="1" style="stop-color:#efefef;stop-opacity:1"/>
        </linearGradient>
        <linearGradient y2="25.554" x2="299.872" y1="70.387" x1="299.872" gradientUnits="userSpaceOnUse" id="e">
            <stop style="stop-color:#a6a6a6;stop-opacity:1" stop-color="#d9d9d9" offset="0"/>
            <stop stop-color="#d9d9d9" offset="1" style="stop-color:#f2f2f2;stop-opacity:1"/>
        </linearGradient>
        <linearGradient y2="25.554" x2="299.872" y1="70.387" x1="299.872" gradientUnits="userSpaceOnUse" id="a">
            <stop style="stop-color:#a6a6a6;stop-opacity:1" stop-color="#d9d9d9" offset="0"/>
            <stop stop-color="#d9d9d9" offset="1" style="stop-color:#efefef;stop-opacity:1"/>
        </linearGradient>
        <linearGradient id="c" gradientUnits="userSpaceOnUse" x1="299.872" y1="70.387" x2="299.872" y2="25.554">
            <stop offset="0" stop-color="#d9d9d9"/>
            <stop offset="1" stop-color="#d9d9d9" style="stop-color:#e5e5e5;stop-opacity:1"/>
        </linearGradient>
        <linearGradient id="b" gradientUnits="userSpaceOnUse" x1="299.872" y1="70.387" x2="299.872" y2="25.554">
            <stop offset="0" stop-color="#d9d9d9" style="stop-color:#a6a6a6;stop-opacity:1"/>
            <stop offset="1" stop-color="#d9d9d9"/>
        </linearGradient>
        <linearGradient y2="25.554" x2="299.872" y1="70.387" x1="299.872" gradientUnits="userSpaceOnUse" id="j">
            <stop stop-color="#d9d9d9" offset="0"/>
            <stop stop-color="#bfbfbf" offset=".1"/>
            <stop stop-color="#d9d9d9" offset=".8"/>
            <stop stop-color="#bfbfbf" offset=".9"/>
            <stop stop-color="#d9d9d9" offset="1"/>
        </linearGradient>
        <linearGradient xlink:href="#a" id="i" x1="62.452" y1="99.212" x2="129.927" y2="6.194" gradientUnits="userSpaceOnUse" gradientTransform="matrix(.87831 0 0 .77314 22.356 10.63)"/>
        <linearGradient xlink:href="#c" id="g" x1="227.409" y1="69.675" x2="262.644" y2="27.277" gradientUnits="userSpaceOnUse" gradientTransform="matrix(.87831 0 0 .77314 22.356 10.63)"/>
        <linearGradient xlink:href="#d" id="k" x1="277.514" y1="72.777" x2="321.887" y2="26.268" gradientUnits="userSpaceOnUse" gradientTransform="matrix(.87831 0 0 .77314 22.356 10.63)"/>
        <linearGradient xlink:href="#e" id="h" gradientUnits="userSpaceOnUse" x1="166.361" y1="92.068" x2="212.349" y2="23.511" gradientTransform="matrix(.87831 0 0 .77314 22.356 10.63)"/>
    </defs>
    <path d="M276.662 27.554h-44.959a.284.284 0 0 0-.277.225l-9.38 44.267a.283.283 0 0 0 .277.342h44.959a.284.284 0 0 0 .277-.225l9.38-44.267a.283.283 0 0 0-.277-.342zM256.5 61.666a.28.28 0 0 1-.273.222h-18.4a.279.279 0 0 1-.273-.337l4.932-23.274a.28.28 0 0 1 .273-.222h18.4c.178 0 .31.164.273.337zm-33.227-29.101-5.087-4.93a.29.29 0 0 0-.201-.081h-38.714a.288.288 0 0 0-.282.229l-9.378 44.257a.288.288 0 0 0 .282.348h38.616c.06 0 .118-.019.167-.054l7.338-5.231a.287.287 0 0 0 .115-.175l2.584-12.193a.288.288 0 0 0-.081-.267l-5.29-5.127a.29.29 0 0 1 .033-.442l7.653-5.455a.287.287 0 0 0 .115-.175l2.212-10.438a.287.287 0 0 0-.082-.266zm-19.419 29.093a.289.289 0 0 1-.282.229h-18.734a.288.288 0 0 1-.282-.349l1.306-6.14a.288.288 0 0 1 .282-.228h18.726c.183 0 .32.169.282.348zm3.627-17.116a.289.289 0 0 1-.282.229h-18.734a.289.289 0 0 1-.282-.349l1.306-6.14a.288.288 0 0 1 .282-.228h18.726c.183 0 .32.169.282.348zM51.284 52.35l-4.199 19.815a.28.28 0 0 1-.274.222H1.552a.28.28 0 0 1-.274-.339l9.381-44.272a.28.28 0 0 1 .274-.222h12.843a.28.28 0 0 1 .274.339l-7.13 33.651a.28.28 0 0 0 .274.339H35.62a.28.28 0 0 0 .274-.222l7.18-33.883a.28.28 0 0 1 .274-.222h12.843a.28.28 0 0 1 .274.339l-2.69 12.694a.28.28 0 0 0 .392.313l84.59-38.873c.266-.122.518.194.34.426l-48.702 63.45c-.178.232.074.548.34.426l30.373-13.957a.278.278 0 0 0 .157-.197l5.17-24.4a.28.28 0 0 1 .274-.222h44.611a.28.28 0 0 1 .274.339l-2.106 9.939a.28.28 0 0 1-.274.222h-31.456a.28.28 0 0 0-.274.222l-1.304 6.156a.28.28 0 0 0 .274.339h20.307a.28.28 0 0 1 .274.339l-2.085 9.839a.28.28 0 0 1-.274.222h-20.545a.28.28 0 0 0-.274.222l-1.304 6.156a.28.28 0 0 0 .274.339h31.218a.28.28 0 0 1 .274.339l-2.106 9.939a.28.28 0 0 1-.274.222h-44.611a.28.28 0 0 1-.274-.339l1.717-8.103a.28.28 0 0 0-.392-.313L33.65 102.565c-.263.121-.513-.192-.336-.421l48.71-63.461c.178-.232-.074-.548-.34-.426L51.442 52.153a.282.282 0 0 0-.158.197zm222.245 19.689 1.215-5.733a.288.288 0 0 1 .083-.149l16.838-16.023a.29.29 0 0 0 .046-.362l-9.983-16.037a.287.287 0 0 1-.037-.212l1.216-5.738a.29.29 0 0 1 .283-.229h13.044a.29.29 0 0 1 .245.135l6.828 10.889a.289.289 0 0 0 .444.056l11.56-11a.29.29 0 0 1 .199-.08h12.966a.29.29 0 0 1 .283.349l-1.196 5.645a.288.288 0 0 1-.083.149l-16.86 16.109a.288.288 0 0 0-.045.362l10.001 15.948a.29.29 0 0 1 .038.213l-1.235 5.826a.29.29 0 0 1-.283.229h-13.044a.29.29 0 0 1-.245-.135l-6.828-10.889a.289.289 0 0 0-.444-.056l-11.56 11a.29.29 0 0 1-.199.08H273.81a.287.287 0 0 1-.281-.347z" transform="matrix(.87831 0 0 .77314 24.113 12.177)" style="fill:#040006"/>
    <path d="M264.236 30.387h-39.488a.25.22 0 0 0-.243.174l-8.239 34.224a.249.219 0 0 0 .243.265h39.488a.25.22 0 0 0 .244-.174l8.238-34.225a.249.219 0 0 0-.243-.264zM246.527 56.76a.246.216 0 0 1-.24.172h-16.16a.245.216 0 0 1-.24-.26l4.332-17.995a.246.216 0 0 1 .24-.171h16.16c.157 0 .273.126.24.26z" style="fill:url(#g);fill-opacity:1;stroke:#000;stroke-width:.41202405;stroke-miterlimit:4;stroke-dasharray:none;stroke-opacity:1"/>
    <linearGradient id="f" gradientUnits="userSpaceOnUse" x1="195.213" y1="70.387" x2="195.213" y2="25.554">
        <stop offset="0" stop-color="#d9d9d9"/>
        <stop offset=".1" stop-color="#bfbfbf"/>
        <stop offset=".2" stop-color="#d9d9d9"/>
        <stop offset=".3" stop-color="#bfbfbf"/>
        <stop offset=".4" stop-color="#d9d9d9"/>
        <stop offset=".5" stop-color="#bfbfbf"/>
        <stop offset=".6" stop-color="#d9d9d9"/>
        <stop offset=".7" stop-color="#bfbfbf"/>
        <stop offset=".8" stop-color="#d9d9d9"/>
        <stop offset=".9" stop-color="#bfbfbf"/>
        <stop offset="1" stop-color="#d9d9d9"/>
    </linearGradient>
    <path d="m217.344 34.261-4.468-3.811a.255.224 0 0 0-.177-.063h-34.003a.253.223 0 0 0-.247.177l-8.237 34.217a.253.223 0 0 0 .247.269h33.917a.276.276 0 0 0 .147-.042l6.445-4.044a.252.222 0 0 0 .101-.136l2.27-9.426a.253.223 0 0 0-.071-.207l-4.647-3.964a.255.224 0 0 1 .03-.341l6.721-4.218a.252.222 0 0 0 .101-.135l1.943-8.07a.252.222 0 0 0-.072-.206zm-17.056 22.493a.254.223 0 0 1-.248.177h-16.454a.253.223 0 0 1-.248-.27l1.147-4.747a.253.223 0 0 1 .248-.176h16.447c.16 0 .281.13.248.269zm3.185-13.233a.254.223 0 0 1-.247.177H186.77a.254.223 0 0 1-.247-.27l1.147-4.747a.253.223 0 0 1 .247-.176h16.448c.16 0 .28.13.247.269z" style="fill:url(#h);fill-opacity:1;stroke:#000;stroke-width:.41202405;stroke-miterlimit:4;stroke-dasharray:none;stroke-opacity:1"/>
    <path d="m66.284 49.558-3.688 15.32a.246.216 0 0 1-.24.17H22.603a.246.216 0 0 1-.24-.261l8.239-34.228a.246.216 0 0 1 .24-.172h11.28a.246.216 0 0 1 .242.262L36.1 56.666a.246.216 0 0 0 .24.262h16.185a.246.216 0 0 0 .241-.172l6.306-26.196a.246.216 0 0 1 .241-.172h11.28a.246.216 0 0 1 .24.263l-2.362 9.814a.246.216 0 0 0 .345.242l74.296-30.054c.234-.095.455.15.299.329l-42.777 49.055c-.156.18.065.424.299.33l26.677-10.79a.244.215 0 0 0 .138-.153l4.54-18.865a.246.216 0 0 1 .241-.171h39.183a.246.216 0 0 1 .24.262l-1.85 7.684a.246.216 0 0 1-.24.172h-27.628a.246.216 0 0 0-.24.171l-1.146 4.76a.246.216 0 0 0 .24.262h17.836a.246.216 0 0 1 .241.262l-1.831 7.607a.246.216 0 0 1-.24.171h-18.046a.246.216 0 0 0-.24.172l-1.146 4.76a.246.216 0 0 0 .24.262h27.42a.246.216 0 0 1 .24.262l-1.85 7.684a.246.216 0 0 1-.24.171h-39.182a.246.216 0 0 1-.24-.262l1.507-6.264a.246.216 0 0 0-.344-.242l-74.398 30.09c-.237.096-.46-.151-.302-.333L93.283 38.99c.156-.18-.065-.424-.299-.33L66.422 49.406a.244.215 0 0 0-.138.153z" style="fill:url(#i);fill-opacity:1;stroke:#000;stroke-width:.41202405;stroke-miterlimit:4;stroke-dasharray:none;stroke-opacity:1"/>
    <path d="m261.484 64.78 1.067-4.433a.217.217 0 0 1 .073-.115l14.79-12.388c-2.37-4.182-5.817-8.562-8.728-12.678a.2.2 0 0 1-.033-.164l1.068-4.436c.025-.104.129-.177.249-.178h11.456c.088 0 .169.04.216.105l5.997 8.419c.085.12.273.14.39.043l10.153-8.505a.274.274 0 0 1 .175-.062h11.388c.161.001.281.131.249.27l-1.05 4.365a.217.217 0 0 1-.074.115l-14.806 12.456c2.373 4.16 5.83 8.517 8.745 12.61a.202.202 0 0 1 .033.164l-1.084 4.505c-.026.103-.13.177-.249.177h-11.457a.264.264 0 0 1-.215-.105l-5.997-8.418c-.085-.12-.274-.141-.39-.044l-10.153 8.505a.274.274 0 0 1-.175.062h-11.388c-.162 0-.283-.13-.25-.27z" style="fill:url(#k);fill-opacity:1;stroke:#000;stroke-width:.41202405;stroke-miterlimit:4;stroke-dasharray:none;stroke-opacity:1"/>
    <path d="M334.54 26.882h-2.738l.375-1.575h7.101l-.375 1.575h-2.738l-1.147 5.551h-1.625zm11.175.78-2.246 1.871h-.265l-1.545-1.871-.849 4.778h-1.739l1.256-7.125h1.55l1.854 1.843 2.602-1.843h1.536l-1.256 7.125h-1.772z" transform="matrix(.87831 0 0 .77314 22.356 10.63)" style="fill:#696969"/>
</svg>
