<?xml version="1.0" encoding="UTF-8" standalone="no"?>
<!-- Created with Inkscape (http://www.inkscape.org/) -->

<svg
   width="157.69392mm"
   height="44.582062mm"
   viewBox="0 0 157.69393 44.582062"
   version="1.1"
   id="svg296"
   inkscape:version="1.3 (0e150ed6c4, 2023-07-21)"
   sodipodi:docname="vg5k.svg"
   inkscape:export-filename="vg5k.svg"
   inkscape:export-xdpi="96"
   inkscape:export-ydpi="96"
   xmlns:inkscape="http://www.inkscape.org/namespaces/inkscape"
   xmlns:sodipodi="http://sodipodi.sourceforge.net/DTD/sodipodi-0.dtd"
   xmlns="http://www.w3.org/2000/svg"
   xmlns:svg="http://www.w3.org/2000/svg">
  <sodipodi:namedview
     id="namedview298"
     pagecolor="#ffffff"
     bordercolor="#000000"
     borderopacity="0.25"
     inkscape:showpageshadow="2"
     inkscape:pageopacity="0.0"
     inkscape:pagecheckerboard="0"
     inkscape:deskcolor="#d1d1d1"
     inkscape:document-units="mm"
     showgrid="false"
     inkscape:zoom="2"
     inkscape:cx="426.25"
     inkscape:cy="43.5"
     inkscape:window-width="1920"
     inkscape:window-height="1017"
     inkscape:window-x="-8"
     inkscape:window-y="-8"
     inkscape:window-maximized="1"
     inkscape:current-layer="layer1" />
  <defs
     id="defs293">
    <rect
       x="39.432777"
       y="219.50912"
       width="629.60999"
       height="227.39568"
       id="rect522" />
    <rect
       x="42.061626"
       y="226.08125"
       width="527.08478"
       height="169.56094"
       id="rect516" />
    <clipPath
       id="clipPath2855">
      <path
         id="path2857"
         d="M 0,595.28 H 841.89 V 0 H 0 Z" />
    </clipPath>
    <pattern
       id="EMFhbasepattern"
       patternUnits="userSpaceOnUse"
       width="6"
       height="6"
       x="0"
       y="0" />
  </defs>
  <g
     inkscape:label="Warstwa 1"
     inkscape:groupmode="layer"
     id="layer1"
     transform="translate(-10.557896,-41.08672)"
     style="fill:#000000">
    <g
       id="layer1-8"
       transform="matrix(0.26458333,0,0,0.26458333,-22.92499,-60.429274)"
       style="fill:#000000"
       sodipodi:insensitive="true">
      <g
         id="g2851"
         transform="matrix(1.25,0,0,-1.25,-154.36,849.47)"
         style="fill:#000000">
        <g
           id="g2853"
           clip-path="url(#clipPath2855)"
           style="fill:#000000">
          <path
             id="path2859"
             d="m 306.44758,371.75039 h -12.85309 v -16.73655 h -13.37966 v 16.73655 h -12.85309 v -42.10764 h 12.85309 v 16.56302 h 13.37966 v -16.56302 h 12.85309 z m 44.71057,-33.64662 v 33.64662 h -12.85309 v -42.10764 h 23.24088 l 1.93275,8.46102 z m -22.35528,33.64662 h -12.8531 v -42.10764 h 12.8531 z m 52.10648,0 h -12.84711 v -42.10764 h 12.84711 z m 63.36789,-10.74681 c 0,2.29177 2.29178,3.3509 5.98375,3.3509 4.051,0 8.45504,-0.8856 11.44691,-2.12423 l -1.05314,9.1671 c -3.3509,0.70608 -6.34277,1.23265 -11.79396,1.23265 -10.38779,0 -17.43066,-4.09887 -17.43066,-12.68555 0,-14.79781 20.07547,-11.80593 20.07547,-18.67528 0,-2.63883 -1.94472,-4.04501 -6.69581,-4.04501 -4.21854,0 -10.74083,1.40618 -14.61232,3.34492 l 1.41217,-9.69368 c 3.87148,-1.41216 9.14915,-2.11226 13.37966,-2.11226 10.73485,0 19.53694,3.52443 19.53694,14.09771 0,14.08575 -20.24901,11.44691 -20.24901,18.14273 m -36.25553,-21.3201 c 11.96152,0 19.53694,6.16925 19.53694,16.91606 0,11.79995 -8.09601,16.03046 -21.30214,16.03046 -5.10414,0 -11.2674,-0.35304 -15.66546,-0.87961 v -42.10764 h 12.85309 v 10.04073 z m 6.86336,16.73655 c 0,-5.45718 -2.63883,-9.16112 -9.33465,-9.16112 h -2.10628 v 17.40074 c 0.74797,0.0419 1.44807,0.0419 2.10628,0.0419 6.33679,0 9.33465,-2.99187 9.33465,-8.2815 M 242.72066,339.68348 c 11.9675,0 19.53694,6.16925 19.53694,16.91606 0,11.79995 -8.09601,16.03046 -21.29616,16.03046 -5.11012,0 -11.2674,-0.35304 -15.67144,-0.87961 v -42.10764 h 12.85309 v 10.04073 z m 6.86934,16.73655 c 0,-5.45718 -2.64481,-9.16112 -9.33464,-9.16112 h -2.11227 v 17.40074 c 0.74797,0.0419 1.45405,0.0419 2.11227,0.0419 6.33678,0 9.33464,-2.99187 9.33464,-8.2815"
             fill="#0b5ed7"
             inkscape:label="path2859"
             style="fill:#000000;stroke-width:0.598375" />
        </g>
      </g>
    </g>
    <path
       d="m 31.129302,59.12193 -9.24704,25.891711 H 18.618601 L 9.3715611,59.12193 h 3.4087129 l 5.838327,16.608409 q 0.580206,1.595567 0.942835,3.00982 0.398892,1.377991 0.688995,2.647192 0.253841,-1.269201 0.652733,-2.683454 0.398892,-1.414254 0.979098,-3.046084 L 27.684326,59.12193 Z m 14.396377,12.220598 h 8.956936 v 12.692015 q -2.103248,0.688995 -4.242759,1.015361 -2.139511,0.326366 -4.859229,0.326366 -4.025182,0 -6.781162,-1.595567 -2.755981,-1.631831 -4.206497,-4.605389 -1.414253,-3.009821 -1.414253,-7.107528 0,-4.025182 1.559305,-6.99874 1.595567,-3.009821 4.605388,-4.641652 3.009821,-1.668093 7.25258,-1.668093 2.175774,0 4.097708,0.398892 1.958197,0.398892 3.62629,1.12415 l -1.232938,2.828506 q -1.377991,-0.580206 -3.11861,-1.015361 -1.704356,-0.471418 -3.553764,-0.471418 -4.641652,0 -7.25258,2.828506 -2.574666,2.792244 -2.574666,7.61521 0,3.082346 0.979098,5.475698 1.015361,2.357088 3.154872,3.698816 2.139511,1.305464 5.62075,1.305464 1.704356,0 2.901032,-0.181314 1.196676,-0.181315 2.175774,-0.435155 V 74.24356 h -5.693275 z m 31.041076,-2.212037 q 3.952657,0 6.309745,1.994459 2.393352,1.99446 2.393352,5.62075 0,4.025182 -2.574666,6.346008 -2.538403,2.284562 -7.107529,2.284562 -2.030722,0 -3.771342,-0.362629 -1.740619,-0.362629 -2.937295,-1.051624 v -3.009821 q 1.305465,0.797784 3.154873,1.269202 1.885671,0.435155 3.590027,0.435155 2.864769,0 4.605389,-1.341728 1.776882,-1.37799 1.776882,-4.242759 0,-2.538403 -1.559305,-3.88013 -1.559305,-1.377991 -4.931755,-1.377991 -1.015361,0 -2.320825,0.181315 -1.305465,0.181314 -2.103249,0.362629 L 69.49549,71.342528 70.474588,59.12193 h 12.982119 v 2.901032 H 73.194306 l -0.61647,7.50642 q 0.61647,-0.108788 1.668094,-0.25384 1.051624,-0.145051 2.320825,-0.145051 z m 29.735595,2.901032 q 0,4.206496 -0.87031,7.180054 -0.87031,2.973558 -2.79224,4.569126 -1.88567,1.595567 -4.968018,1.595567 -4.387811,0 -6.49106,-3.517501 -2.066985,-3.553764 -2.066985,-9.827246 0,-4.206497 0.834047,-7.180055 0.870309,-2.973558 2.75598,-4.532862 1.885671,-1.595568 4.968018,-1.595568 4.351548,0 6.491058,3.517501 2.13951,3.481239 2.13951,9.790984 z m -13.997478,0 q 0,5.330646 1.196676,7.977838 1.232939,2.647192 4.170234,2.647192 2.901028,0 4.133968,-2.610929 1.2692,-2.647192 1.2692,-8.014101 0,-5.294384 -1.2692,-7.941576 -1.23294,-2.647191 -4.133968,-2.647191 -2.937295,0 -4.170234,2.647191 -1.196676,2.647192 -1.196676,7.941576 z m 34.739878,0 q 0,4.206496 -0.87031,7.180054 -0.87031,2.973558 -2.79225,4.569126 -1.88567,1.595567 -4.96801,1.595567 -4.38782,0 -6.49106,-3.517501 -2.06699,-3.553764 -2.06699,-9.827246 0,-4.206497 0.83405,-7.180055 0.87031,-2.973558 2.75598,-4.532862 1.88567,-1.595568 4.96802,-1.595568 4.35154,0 6.49105,3.517501 2.13952,3.481239 2.13952,9.790984 z m -13.99748,0 q 0,5.330646 1.19667,7.977838 1.23294,2.647192 4.17024,2.647192 2.90103,0 4.13397,-2.610929 1.2692,-2.647192 1.2692,-8.014101 0,-5.294384 -1.2692,-7.941576 -1.23294,-2.647191 -4.13397,-2.647191 -2.9373,0 -4.17024,2.647191 -1.19667,2.647192 -1.19667,7.941576 z m 34.73988,0 q 0,4.206496 -0.87031,7.180054 -0.87031,2.973558 -2.79225,4.569126 -1.88567,1.595567 -4.96801,1.595567 -4.38781,0 -6.49106,-3.517501 -2.06699,-3.553764 -2.06699,-9.827246 0,-4.206497 0.83405,-7.180055 0.87031,-2.973558 2.75598,-4.532862 1.88567,-1.595568 4.96802,-1.595568 4.35154,0 6.49106,3.517501 2.13951,3.481239 2.13951,9.790984 z m -13.99748,0 q 0,5.330646 1.19667,7.977838 1.23294,2.647192 4.17024,2.647192 2.90103,0 4.13397,-2.610929 1.2692,-2.647192 1.2692,-8.014101 0,-5.294384 -1.2692,-7.941576 -1.23294,-2.647191 -4.13397,-2.647191 -2.9373,0 -4.17024,2.647191 -1.19667,2.647192 -1.19667,7.941576 z"
       id="path28"
       style="font-size:36.2629px;font-family:'Century Gothic';-inkscape-font-specification:'Century Gothic';stroke-width:1.45699;stroke-opacity:0"
       inkscape:label="text2222"
       aria-label="VG 5000" />
    <path
       d="m 163.68399,58.768579 v 6.292586 h -0.83354 l -0.16436,-0.845273 h -0.0587 q -0.30523,0.469596 -0.77483,0.716134 -0.45785,0.246538 -1.11529,0.246538 -0.45785,0 -0.78657,-0.140879 -0.32872,-0.152619 -0.56352,-0.387417 h -0.047 q 0.0235,0.211319 0.0352,0.563516 0.0235,0.363936 0.0235,0.833532 v 1.831425 h -1.03311 v -9.110162 h 1.03311 v 4.062005 q 0,1.490967 1.40879,1.490967 1.04485,0 1.44401,-0.586995 0.39915,-0.586995 0.39915,-1.690545 v -3.275432 z"
       id="path30"
       style="font-size:11.7399px;line-height:125%;font-family:'Century Gothic';letter-spacing:0px;word-spacing:0px;display:inline;stroke-width:0.12229"
       inkscape:label="text4533"
       aria-label="µ" />
    <path
       d="m 163.68399,58.768579 v 6.292586 h -0.83354 l -0.16436,-0.845273 h -0.0587 c -0.20349,0.313064 -0.46176,0.551775 -0.77483,0.716134 -0.30523,0.164359 -0.677,0.246538 -1.11529,0.246538 -0.30523,0 -0.56742,-0.04696 -0.78657,-0.140879 -0.21915,-0.101746 -0.40699,-0.230885 -0.56352,-0.387417 h -0.047 c 0.0157,0.140879 0.0274,0.328718 0.0352,0.563516 0.0157,0.242624 0.0235,0.520468 0.0235,0.833532 v 1.831425 h -1.03311 v -9.110162 h 1.03311 v 4.062005 c 0,0.993978 0.4696,1.490967 1.40879,1.490967 0.69657,0 1.1779,-0.195665 1.44401,-0.586995 0.2661,-0.39133 0.39915,-0.954845 0.39915,-1.690545 v -3.275432 z"
       id="path29"
       style="font-size:11.7399px;line-height:125%;font-family:'Century Gothic';letter-spacing:0px;word-spacing:0px;display:inline;stroke-width:0.12229"
       aria-label="µ"
       sodipodi:nodetypes="ccccccsccccsccccsssscc" />
  </g>
</svg>
