<?xml version="1.0" encoding="UTF-8" standalone="no"?>
<!-- Created with Inkscape (http://www.inkscape.org/) -->

<svg
   width="152.95659mm"
   height="42.602898mm"
   viewBox="0 0 152.95659 42.602898"
   version="1.1"
   id="svg296"
   inkscape:version="1.2.1 (9c6d41e410, 2022-07-14)"
   sodipodi:docname="vg5k-w.svg"
   inkscape:export-filename="vg5k.svg"
   inkscape:export-xdpi="96"
   inkscape:export-ydpi="96"
   xmlns:inkscape="http://www.inkscape.org/namespaces/inkscape"
   xmlns:sodipodi="http://sodipodi.sourceforge.net/DTD/sodipodi-0.dtd"
   xmlns="http://www.w3.org/2000/svg"
   xmlns:svg="http://www.w3.org/2000/svg">
  <sodipodi:namedview
     id="namedview298"
     pagecolor="#ffffff"
     bordercolor="#000000"
     borderopacity="0.25"
     inkscape:showpageshadow="2"
     inkscape:pageopacity="0.0"
     inkscape:pagecheckerboard="0"
     inkscape:deskcolor="#d1d1d1"
     inkscape:document-units="mm"
     showgrid="false"
     inkscape:zoom="2"
     inkscape:cx="266.75"
     inkscape:cy="106.5"
     inkscape:window-width="1920"
     inkscape:window-height="1009"
     inkscape:window-x="-8"
     inkscape:window-y="-8"
     inkscape:window-maximized="1"
     inkscape:current-layer="layer1" />
  <defs
     id="defs293">
    <rect
       x="39.432777"
       y="219.50912"
       width="629.60999"
       height="227.39568"
       id="rect522" />
    <rect
       x="42.061626"
       y="226.08125"
       width="527.08478"
       height="169.56094"
       id="rect516" />
    <clipPath
       id="clipPath2855">
      <path
         id="path2857"
         d="M 0,595.28 H 841.89 V 0 H 0 Z" />
    </clipPath>
    <pattern
       id="EMFhbasepattern"
       patternUnits="userSpaceOnUse"
       width="6"
       height="6"
       x="0"
       y="0" />
  </defs>
  <g
     inkscape:label="Warstwa 1"
     inkscape:groupmode="layer"
     id="layer1"
     transform="translate(-10.727397,-41.08672)"
     style="fill:#000000">
    <g
       id="layer1-8"
       transform="matrix(0.26458333,0,0,0.26458333,-22.92499,-60.429274)"
       style="fill:#ffffff">
      <g
         id="g2851"
         transform="matrix(1.25,0,0,-1.25,-154.36,849.47)"
         style="fill:#ffffff">
        <g
           id="g2853"
           clip-path="url(#clipPath2855)"
           style="fill:#ffffff">
          <path
             id="path2859"
             d="m 306.44758,371.75039 h -12.85309 v -16.73655 h -13.37966 v 16.73655 h -12.85309 v -42.10764 h 12.85309 v 16.56302 h 13.37966 v -16.56302 h 12.85309 z m 44.71057,-33.64662 v 33.64662 h -12.85309 v -42.10764 h 23.24088 l 1.93275,8.46102 z m -22.35528,33.64662 h -12.8531 v -42.10764 h 12.8531 z m 52.10648,0 h -12.84711 v -42.10764 h 12.84711 z m 63.36789,-10.74681 c 0,2.29177 2.29178,3.3509 5.98375,3.3509 4.051,0 8.45504,-0.8856 11.44691,-2.12423 l -1.05314,9.1671 c -3.3509,0.70608 -6.34277,1.23265 -11.79396,1.23265 -10.38779,0 -17.43066,-4.09887 -17.43066,-12.68555 0,-14.79781 20.07547,-11.80593 20.07547,-18.67528 0,-2.63883 -1.94472,-4.04501 -6.69581,-4.04501 -4.21854,0 -10.74083,1.40618 -14.61232,3.34492 l 1.41217,-9.69368 c 3.87148,-1.41216 9.14915,-2.11226 13.37966,-2.11226 10.73485,0 19.53694,3.52443 19.53694,14.09771 0,14.08575 -20.24901,11.44691 -20.24901,18.14273 m -36.25553,-21.3201 c 11.96152,0 19.53694,6.16925 19.53694,16.91606 0,11.79995 -8.09601,16.03046 -21.30214,16.03046 -5.10414,0 -11.2674,-0.35304 -15.66546,-0.87961 v -42.10764 h 12.85309 v 10.04073 z m 6.86336,16.73655 c 0,-5.45718 -2.63883,-9.16112 -9.33465,-9.16112 h -2.10628 v 17.40074 c 0.74797,0.0419 1.44807,0.0419 2.10628,0.0419 6.33679,0 9.33465,-2.99187 9.33465,-8.2815 M 242.72066,339.68348 c 11.9675,0 19.53694,6.16925 19.53694,16.91606 0,11.79995 -8.09601,16.03046 -21.29616,16.03046 -5.11012,0 -11.2674,-0.35304 -15.67144,-0.87961 v -42.10764 h 12.85309 v 10.04073 z m 6.86934,16.73655 c 0,-5.45718 -2.64481,-9.16112 -9.33464,-9.16112 h -2.11227 v 17.40074 c 0.74797,0.0419 1.45405,0.0419 2.11227,0.0419 6.33678,0 9.33464,-2.99187 9.33464,-8.2815"
             fill="#0b5ed7"
             inkscape:label="path2859"
             style="fill:#ffffff;stroke-width:0.598375" />
        </g>
      </g>
    </g>
    <path
       d="m 163.68399,58.768579 v 6.292586 h -0.83354 l -0.16436,-0.845273 h -0.0587 c -0.20349,0.313064 -0.46176,0.551775 -0.77483,0.716134 -0.30523,0.164359 -0.677,0.246538 -1.11529,0.246538 -0.30523,0 -0.56742,-0.04696 -0.78657,-0.140879 -0.21915,-0.101746 -0.40699,-0.230885 -0.56352,-0.387417 h -0.047 c 0.0157,0.140879 0.0274,0.328718 0.0352,0.563516 0.0157,0.242624 0.0235,0.520468 0.0235,0.833532 v 1.831425 h -1.03311 v -9.110162 h 1.03311 v 4.062005 c 0,0.993978 0.4696,1.490967 1.40879,1.490967 0.69657,0 1.1779,-0.195665 1.44401,-0.586995 0.2661,-0.39133 0.39915,-0.954845 0.39915,-1.690545 v -3.275432 z"
       id="path29"
       style="font-size:11.7399px;line-height:125%;font-family:'Century Gothic';letter-spacing:0px;word-spacing:0px;display:inline;stroke-width:0.12229;fill:#ffffff"
       aria-label="µ"
       sodipodi:nodetypes="ccccccsccccsccccsssscc" />
    <g
       aria-label="VG 5000"
       id="text1156"
       style="font-size:36.3722px;font-family:'Century Gothic';-inkscape-font-specification:'Century Gothic';stroke-width:1.13663;stroke-opacity:0;fill:#ffffff">
      <path
         d="m 10.727397,56.907742 h 2.841578 l 8.649053,20.192965 8.808893,-20.192965 h 2.841578 L 22.502186,83.032501 h -0.568315 z"
         id="path1405"
         style="fill:#ffffff" />
      <path
         d="m 63.456431,61.294429 -2.024625,1.918065 q -2.184463,-2.148944 -4.795163,-3.250055 -2.59294,-1.118872 -5.061561,-1.118872 -3.072456,0 -5.860755,1.509589 -2.770539,1.509588 -4.297887,4.102528 -1.527348,2.57518 -1.527348,5.452278 0,2.948138 1.580628,5.612117 1.580628,2.64622 4.368926,4.173568 2.788299,1.509588 6.109393,1.509588 4.031489,0 6.819788,-2.273262 2.788298,-2.273263 3.303334,-5.896275 h -8.329376 v -2.5219 h 11.259754 q -0.03552,6.056113 -3.605253,9.625846 -3.551972,3.551972 -9.519286,3.551972 -7.246025,0 -11.472872,-4.937242 -3.250055,-3.800611 -3.250055,-8.791132 0,-3.711812 1.864786,-6.908587 1.864785,-3.196775 5.11484,-4.990522 3.250055,-1.811506 7.352584,-1.811506 3.321094,0 6.251472,1.207671 2.930377,1.189911 5.718676,3.836131 z"
         id="path1407"
         style="fill:#ffffff" />
      <path
         d="m 94.749313,56.907742 v 2.486381 h -9.306169 l -1.29647,7.121705 q 1.704947,-0.497276 3.072457,-0.497276 3.569732,0 5.878514,2.397582 2.326543,2.379821 2.326543,6.109393 0,2.57518 -1.189911,4.724123 -1.189911,2.148944 -3.232295,3.303335 -2.024625,1.136631 -4.688604,1.136631 -3.179016,0 -5.363479,-1.935825 -2.184463,-1.953585 -2.6107,-5.043801 h 2.681739 q 0.301918,1.509588 1.012313,2.450861 0.728154,0.941273 1.918065,1.527348 1.207671,0.568316 2.5219,0.568316 2.575181,0 4.422206,-1.953585 1.847026,-1.953585 1.847026,-4.883962 0,-2.64622 -1.669427,-4.297887 -1.669427,-1.651668 -4.457726,-1.651668 -2.308782,0 -5.594357,1.40303 L 83.43628,56.907742 Z"
         id="path1409"
         style="fill:#ffffff" />
      <path
         d="m 98.176962,69.979002 q 0,-5.168121 1.101111,-7.991939 1.118867,-2.823818 3.143497,-4.280127 2.02462,-1.456309 4.52876,-1.456309 2.53966,0 4.59981,1.474069 2.06014,1.456309 3.25005,4.386686 1.20767,2.930378 1.20767,7.86762 0,4.919482 -1.18991,7.832099 -1.17215,2.912618 -3.25005,4.404447 -2.07791,1.474068 -4.61757,1.474068 -2.50414,0 -4.511,-1.438549 -2.00687,-1.438549 -3.143497,-4.280127 -1.118871,-2.859338 -1.118871,-7.991938 z m 2.468618,0.05328 q 0,4.422206 0.78144,6.695469 0.79919,2.255502 2.3443,3.427653 1.54511,1.172151 3.26781,1.172151 1.74047,0 3.25006,-1.136631 1.50959,-1.154391 2.29102,-3.445413 0.97679,-2.788299 0.97679,-6.713229 0,-3.942689 -0.87023,-6.44683 -0.87023,-2.521901 -2.41534,-3.676292 -1.52735,-1.172151 -3.2323,-1.172151 -1.74046,0 -3.26781,1.172151 -1.52735,1.154391 -2.32654,3.427654 -0.7992,2.255502 -0.7992,6.695468 z"
         id="path1411"
         style="fill:#ffffff" />
      <path
         d="m 118.33441,69.979002 q 0,-5.168121 1.10111,-7.991939 1.11887,-2.823818 3.1435,-4.280127 2.02462,-1.456309 4.52876,-1.456309 2.53966,0 4.59981,1.474069 2.06014,1.456309 3.25005,4.386686 1.20767,2.930378 1.20767,7.86762 0,4.919482 -1.18991,7.832099 -1.17215,2.912618 -3.25005,4.404447 -2.07791,1.474068 -4.61757,1.474068 -2.50414,0 -4.511,-1.438549 -2.00687,-1.438549 -3.1435,-4.280127 -1.11887,-2.859338 -1.11887,-7.991938 z m 2.46862,0.05328 q 0,4.422206 0.78143,6.695469 0.7992,2.255502 2.34431,3.427653 1.5451,1.172151 3.26781,1.172151 1.74047,0 3.25006,-1.136631 1.50958,-1.154391 2.29102,-3.445413 0.97679,-2.788299 0.97679,-6.713229 0,-3.942689 -0.87023,-6.44683 -0.87024,-2.521901 -2.41534,-3.676292 -1.52735,-1.172151 -3.2323,-1.172151 -1.74047,0 -3.26781,1.172151 -1.52735,1.154391 -2.32655,3.427654 -0.79919,2.255502 -0.79919,6.695468 z"
         id="path1413"
         style="fill:#ffffff" />
      <path
         d="m 138.49185,69.979002 q 0,-5.168121 1.10111,-7.991939 1.11887,-2.823818 3.1435,-4.280127 2.02462,-1.456309 4.52876,-1.456309 2.53966,0 4.59981,1.474069 2.06014,1.456309 3.25005,4.386686 1.20767,2.930378 1.20767,7.86762 0,4.919482 -1.18991,7.832099 -1.17215,2.912618 -3.25005,4.404447 -2.07791,1.474068 -4.61757,1.474068 -2.50414,0 -4.511,-1.438549 -2.00687,-1.438549 -3.1435,-4.280127 -1.11887,-2.859338 -1.11887,-7.991938 z m 2.46862,0.05328 q 0,4.422206 0.78143,6.695469 0.7992,2.255502 2.34431,3.427653 1.5451,1.172151 3.26781,1.172151 1.74047,0 3.25006,-1.136631 1.50958,-1.154391 2.29102,-3.445413 0.97679,-2.788299 0.97679,-6.713229 0,-3.942689 -0.87023,-6.44683 -0.87024,-2.521901 -2.41534,-3.676292 -1.52735,-1.172151 -3.2323,-1.172151 -1.74047,0 -3.26781,1.172151 -1.52735,1.154391 -2.32655,3.427654 -0.79919,2.255502 -0.79919,6.695468 z"
         id="path1415"
         style="fill:#ffffff" />
    </g>
  </g>
</svg>
