<?xml version="1.0" encoding="UTF-8" standalone="no"?>
<!-- Created with Inkscape (http://www.inkscape.org/) -->

<svg
   width="139.69739mm"
   height="64.003952mm"
   viewBox="0 0 139.69739 64.003952"
   version="1.1"
   id="svg5"
   xml:space="preserve"
   inkscape:version="1.2.1 (9c6d41e410, 2022-07-14)"
   sodipodi:docname="vgm.svg"
   xmlns:inkscape="http://www.inkscape.org/namespaces/inkscape"
   xmlns:sodipodi="http://sodipodi.sourceforge.net/DTD/sodipodi-0.dtd"
   xmlns="http://www.w3.org/2000/svg"
   xmlns:svg="http://www.w3.org/2000/svg"><sodipodi:namedview
     id="namedview7"
     pagecolor="#505050"
     bordercolor="#eeeeee"
     borderopacity="1"
     inkscape:showpageshadow="0"
     inkscape:pageopacity="0"
     inkscape:pagecheckerboard="0"
     inkscape:deskcolor="#505050"
     inkscape:document-units="mm"
     showgrid="false"
     inkscape:zoom="0.52221046"
     inkscape:cx="14.362026"
     inkscape:cy="227.87747"
     inkscape:window-width="1920"
     inkscape:window-height="1009"
     inkscape:window-x="-8"
     inkscape:window-y="-8"
     inkscape:window-maximized="1"
     inkscape:current-layer="layer1" /><defs
     id="defs2" /><g
     inkscape:label="Warstwa 1"
     inkscape:groupmode="layer"
     id="layer1"
     transform="translate(-21.118366,-26.18232)"><path
       style="fill:#d40000;stroke-width:0.264583"
       d="m 24.875742,89.486341 c -1.520304,-0.7576 -2.542516,-1.82696 -3.268258,-3.41901 -0.455932,-1.00017 -0.482764,-2.4409 -0.488257,-26.21763 -0.0058,-25.15931 -0.0058,-25.15931 0.822434,-26.81677 0.883417,-1.76788 2.290154,-2.92825 4.189706,-3.45597 2.178926,-0.60533 3.367603,-0.32487 6.81596,1.60819 2.288614,1.28294 2.288614,1.28294 3.216233,0.19923 1.029412,-1.20264 2.640028,-2.05549 3.898551,-2.06436 0.66174,-0.005 0.95896,-0.20864 1.5039,-1.03209 2.14608,-3.24295 7.21976,-2.62567 8.76225,1.06604 0.34146,0.81722 0.54817,0.97661 1.40169,1.08083 0.82586,0.10084 1.1569,-0.0128 1.89046,-0.64919 0.48911,-0.42429 1.18147,-0.88252 1.53858,-1.01829 1.1434,-0.43472 3.4646,-0.28857 4.59768,0.28949 1.12932,0.57614 2.631747,2.40726 2.631747,3.20751 0,0.34737 0.1945,0.48947 0.66995,0.48947 0.78552,0 2.43644,0.64965 3.04077,1.19656 0.3269,0.29584 0.62877,0.32356 1.33085,0.1222 3.60427,-1.03369 6.87777,1.43122 6.85739,5.16353 -0.006,1.11455 -0.84949,2.84576 -1.71997,3.53047 -0.69648,0.54786 -0.71924,0.63238 -0.43011,1.5974 0.42373,1.41427 0.37389,2.36881 -0.18813,3.60338 -0.654,1.43666 -1.5981,2.28291 -3.11179,2.78928 -1.26937,0.42463 -1.26937,0.42463 1.43666,1.9568 4.04644,2.29111 5.36004,4.06269 5.33193,7.19087 -0.0268,2.98185 -1.10675,4.45207 -4.91332,6.6889 -1.58415,0.93088 -3.85676,2.27033 -5.05023,2.97656 -1.19347,0.70623 -2.27202,1.28405 -2.39677,1.28405 -0.12474,0 0.34081,-4.01836 1.03457,-8.92969 0.69376,-4.91132 1.26629,-9.20279 1.27229,-9.53659 0.0105,-0.58499 -0.0583,-0.60409 -1.90732,-0.52916 -2.153307,0.0873 -1.790027,-1.44295 -3.347557,14.10065 -0.78004,7.78444 0.372678,6.544602 -2.181723,8.078441 -4.633646,2.782364 -2.966117,1.724219 -2.765657,-0.842701 0.0949,-1.21476 0.34555,-5.30428 0.55707,-9.08782 0.21153,-3.78355 0.46287,-8.09956 0.55854,-9.59115 0.17394,-2.71198 0.17394,-2.71198 -1.81217,-2.71198 -1.9861,0 -1.9861,0 -2.15676,8.92969 -0.0939,4.91133 -0.24332,10.6791 -0.33212,12.81727 -0.16145,3.88758 0.739428,3.448313 -2.060714,5.149803 -2.982828,1.812499 -1.799746,0.747037 -1.863696,0.541107 -0.0543,-0.17494 -0.16899,-4.00902 -0.2548,-8.52016 -0.0858,-4.51115 -0.23164,-10.6131 -0.32408,-13.5599 -0.16807,-5.35781 -0.16807,-5.35781 -2.11329,-5.35781 -1.06988,0 -1.94511,0.0298 -1.94495,0.0662 1.5e-4,0.0364 0.35101,5.95974 0.77969,13.16302 0.42867,7.20328 0.8087,13.80875 0.8445,14.67882 0.0651,1.58196 1.766849,0.753477 -1.63327,2.56395 -0.95241,0.507133 -1.736,0.94437 -1.78199,0.89839 -0.0661,-0.0661 -1.41535,-12.87773 -3.129596,-29.71668 -0.168343,-1.65365 -0.168343,-1.65365 -2.121897,-1.65365 -1.074452,0 -1.953551,0.0978 -1.953551,0.21723 0,0.11948 1.017902,7.45972 2.262005,16.31165 1.244102,8.85192 2.211678,16.22534 2.150171,16.38537 -0.112247,0.29204 -7.287686,4.49991 -8.730171,5.1196 -1.35165,0.58068 -3.871319,0.41717 -5.41343,-0.3513 z m 41.529676,-39.40234 c 0.46135,-0.38821 1.11847,-0.66146 1.59067,-0.66146 0.58183,0 1.08896,-0.28438 1.83179,-1.0272 0.92376,-0.92377 1.0272,-1.16264 1.0272,-2.37205 0,-1.1214 -0.13386,-1.49729 -0.80566,-2.26243 -0.80566,-0.9176 -0.80566,-0.9176 0.38982,-1.44642 1.42039,-0.62831 2.26553,-1.85482 2.26694,-3.28993 0.003,-2.95177 -3.03229,-4.62731 -5.61831,-3.10152 -0.96179,0.56747 -0.96179,0.56747 -1.41471,-0.12376 -0.70599,-1.07749 -1.83969,-1.54231 -3.291827,-1.34968 -1.246,0.16529 -1.246,0.16529 -1.38028,-1.026 -0.0738,-0.65521 -0.33697,-1.50064 -0.5847,-1.87874 -0.4897,-0.74737 -2.29602,-1.68633 -3.26195,-1.69563 -1.08906,-0.0105 -2.3926,0.72861 -3.16455,1.79426 -0.74639,1.03036 -0.77051,1.0407 -1.51583,0.65019 -0.51992,-0.27241 -1.15827,-0.34934 -2.03607,-0.24538 -1.2787,0.15144 -1.2787,0.15144 -1.2787,-0.77527 0,-2.02969 -1.4589,-3.54686 -3.40912,-3.54528 -1.66623,0.001 -2.76818,0.71974 -3.31987,2.16431 -0.43986,1.15177 -0.43986,1.15177 -2.12905,1.14688 -1.50228,-0.004 -1.776893,0.0791 -2.48177,0.7538 -1.188336,1.13752 -1.502333,2.10026 -1.187026,3.63948 0.14538,0.70971 0.199638,1.29037 0.120573,1.29037 -0.07906,0 -0.648615,-0.19281 -1.265666,-0.42846 -1.57992,-0.60338 -2.84951,-0.31027 -4.108228,0.94845 -0.877766,0.87776 -1.00526,1.16241 -1.00526,2.2444 0,1.37375 0.273462,2.05122 1.251701,3.10093 0.657879,0.70594 0.657879,0.70594 -0.160142,1.12896 -1.385339,0.71638 -1.98824,2.49297 -1.333598,3.92975 0.327444,0.71866 1.530681,1.51139 2.294046,1.51139 0.283335,0 0.979337,0.34903 1.546678,0.77563 1.031523,0.77563 1.031523,0.77563 16.339162,0.79375 15.307637,0.0181 15.307637,0.0181 16.093737,-0.64334 z m -2.34114,-4.16719 c -0.1141,-0.1819 -0.17258,-0.54259 -0.12996,-0.80153 0.27066,-1.64435 -1.50048,-3.63024 -3.237657,-3.63024 -1.8249,0 -2.94719,0.93743 -3.32597,2.77813 -0.12809,0.62246 -0.30374,0.79375 -0.81396,0.79375 -0.5918,0 -0.64482,-0.0942 -0.58659,-1.0421 0.0889,-1.44709 1.11344,-2.87728 2.56436,-3.57966 0.66445,-0.32165 1.20808,-0.69868 1.20808,-0.83783 0,-0.13916 -0.29224,-0.54525 -0.64943,-0.90244 -1.16469,-1.16469 -2.58598,-0.73084 -3.08729,0.94239 -0.25137,0.83899 -0.44218,1.05401 -0.93537,1.05401 -0.51427,0 -0.61957,-0.13714 -0.61957,-0.80689 0,-1.82894 1.43097,-3.22885 3.34264,-3.27008 1.40664,-0.0303 2.4313,0.67853 3.13009,2.16542 0.37128,0.79001 0.78669,1.21364 1.45521,1.48399 1.102237,0.44576 2.243667,1.58244 2.638557,2.6276 0.43818,1.15974 0.359,3.00524 -0.1371,3.19561 -0.55924,0.2146 -0.57705,0.21089 -0.81604,-0.17013 z m -19.242857,-1.66365 c -0.46173,-0.46173 -0.35059,-1.44831 0.26441,-2.34705 0.29364,-0.42911 0.26835,-0.61337 -0.16835,-1.22667 -0.53294,-0.74844 -2.22378,-1.57565 -3.22067,-1.57565 -0.99413,0 -2.815404,1.06198 -3.3755,1.96823 -0.296529,0.4798 -0.539144,1.29021 -0.539144,1.80092 0,1.04644 -0.500748,1.61834 -1.186566,1.35517 -0.749454,-0.28759 -0.422426,-2.74528 0.547645,-4.11568 0.753581,-1.06457 2.490771,-2.18197 3.813925,-2.45318 0.41706,-0.0855 0.80809,-0.45374 1.05833,-0.99666 0.4978,-1.08005 1.93611,-2.05672 3.02887,-2.05672 2.03478,0 4.357,2.78169 3.24802,3.89067 -0.3544,0.3544 -0.50122,0.36998 -0.83965,0.0891 -0.22559,-0.18721 -0.41016,-0.54319 -0.41016,-0.79104 0,-0.62908 -1.1052,-1.60123 -1.82038,-1.60123 -0.79287,0 -1.54391,0.42327 -1.88633,1.0631 -0.24592,0.4595 -0.15109,0.57308 0.79428,0.95134 0.59044,0.23625 1.39799,0.8156 1.79454,1.28744 0.55349,0.65856 0.99762,0.89338 1.91148,1.01064 0.91811,0.1178 1.38724,0.36746 2.05052,1.09123 0.94669,1.03301 1.16748,2.35917 0.43931,2.6386 -0.59006,0.22642 -0.81862,0.0239 -1.16801,-1.03469 -0.53395,-1.61791 -2.74864,-1.5264 -3.07936,0.12724 -0.21984,1.09915 -0.71712,1.46499 -1.25721,0.92489 z"
       id="path302"
       sodipodi:nodetypes="cssssssccsscsssssccssssssssssscsscssscsscssssssssssssssccsssssscsssccssssscsccsssssssssscssssssssssssscsssssssssssssssssssssssssscss" /><path
       style="fill:#f9f9f9;fill-rule:evenodd;stroke:#f9f9f9;stroke-width:2.14078;stroke-linecap:round;stroke-linejoin:round;stroke-miterlimit:1;paint-order:markers fill stroke"
       d="m 129.31318,188.215 c -2.92151,-1.48947 -6.01482,-2.70813 -6.87402,-2.70813 -0.8592,0 -3.16768,-1.26288 -5.12995,-2.80641 -4.97542,-3.91366 -4.90356,-11.04296 0.25505,-15.3638 5.22897,-4.37977 5.0725,-4.53076 1.53982,-8.29113 -1.51897,-1.61686 -3.11939,-5.14361 -3.5565,-7.83721 -0.7031,-4.33266 1.30525,-7.95205 3.91425,-10.20489 2.1744,-1.87756 5.77882,-4.50525 10.22768,-3.87249 2.77196,0.39425 6.1092,1.14785 7.41607,1.67465 2.09984,0.84645 2.34135,0.15818 2.07694,-5.9188 -0.25826,-5.93553 0.34977,-7.78815 3.68799,-11.2725 2.99984,-3.13116 5.14101,-3.76862 9.95768,-4.08273 5.06359,-0.33021 6.62784,-0.97845 7.88211,-3.79012 3.57878,-8.02246 11.5809,-10.21977 18.10125,-6.73018 3.0231,1.61791 6.69532,8.13991 6.69532,11.89113 0,2.18575 1.95551,2.40573 9.01655,3.046 7.90349,0.71667 8.09987,1.02553 11.32211,-2.82033 4.41192,-5.26577 9.62786,-6.20269 14.79542,-4.06222 5.21157,2.15871 7.94704,4.69492 9.17502,10.86218 0.89191,4.47943 1.59438,5.23307 7.2242,5.16411 5.19857,-0.0637 7.10427,1.46429 9.58997,3.83506 3.49102,3.3296 3.67891,3.35673 7.95036,1.14787 13.13416,-6.79193 25.38259,8.59838 15.78082,20.08634 -1.72619,2.06529 -4.91722,3.61824 -5.89499,3.61824 -2.42527,0 -2.24966,4.69303 0.25333,6.77033 2.6232,2.17706 3.57819,10.26346 -0.004,14.48979 -1.11942,1.59819 -4.02016,4.24391 -6.80963,5.15458 -2.78376,0.9088 -4.96543,2.32696 -7.68461,3.01004 -2.14479,1.47621 -14.11951,1.71875 -59.31321,1.71875 -53.6098,0 -56.53543,-0.12863 -61.59497,-2.70813 z m 117.78486,-16.18959 c 1.75668,-5.53483 -0.36796,-12.80755 -6.38388,-16.7059 -7.26904,-4.71038 -8.52262,-6.60945 -12.72406,-12.80419 -2.70468,-3.98787 -4.29408,-4.40071 -9.49056,-4.40071 -7.80392,0 -12.6817,4.40325 -12.6817,11.448 0,6.41006 4.11369,6.64981 6.86448,0.40006 2.25818,-5.13054 5.85361,-7.00109 10.08127,-2.83327 2.29829,2.26576 2.75469,2.45134 -0.13721,3.79574 -1.44202,0.67037 -4.52075,3.32653 -6.95904,5.67245 -3.39743,3.26874 -4.43324,5.40424 -4.43324,9.13994 0,3.90637 0.51707,4.87463 2.60312,4.87463 1.78314,0 3.10469,-1.51976 4.1954,-4.82465 2.17915,-6.60289 8.77776,-9.88398 14.83329,-7.3757 4.64043,1.92213 8.15762,7.44527 8.15762,12.81014 0,4.2399 4.78303,4.87255 6.07451,0.80346 z M 177.54351,160.7449 c 1.85579,-1.23703 5.38338,-1.35729 7.71781,3.51332 2.10686,4.39582 6.12208,4.45237 6.74707,0.095 0.59475,-4.14654 -5.66359,-10.88535 -11.04721,-11.89532 -2.50853,-0.4706 -5.70951,-2.12477 -7.11328,-3.67592 -1.40377,-1.55115 -4.23037,-3.79555 -6.37501,-4.79706 -3.82595,-1.78667 -3.52056,-2.34084 -2.20701,-3.92357 1.71806,-2.07014 5.62371,-3.10158 8.76272,-0.91049 0.76919,0.53691 3.32794,2.40055 3.85739,4.87493 0.53053,2.47944 2.65268,3.69949 4.63831,1.71386 3.05527,-3.05527 0.80206,-8.73649 -5.02142,-12.66093 -6.55217,-4.41551 -10.84649,-4.36932 -16.16606,1.96841 -4.39386,5.23483 -5.22188,6.18541 -11.68071,8.49552 -9.01462,3.22424 -12.89557,10.60707 -12.89557,18.4683 0,4.87932 0.44094,5.89305 2.56326,5.89305 2.71032,0 3.72415,-2.46745 4.62595,-6.8968 0.59842,-2.93923 1.35362,-6.00134 4.48414,-8.23423 6.07119,-4.33038 11.23567,-5.34212 16.79924,-1.53475 4.6104,3.15508 6.17357,4.44669 3.93048,7.36387 -2.33017,3.03042 -2.96198,9.86793 1.21094,10.29527 5.14055,0.52643 2.394,-4.96955 6.80991,-7.91312 z"
       id="path489"
       transform="scale(0.26458333)"
       sodipodi:nodetypes="ssssssssssssssssssssssssscscssssssssssssssssssssssssssssssssssssssss" /><path
       style="fill:#f9f9f9;fill-rule:evenodd;stroke:#fdfdfd;stroke-width:0.282669;stroke-linecap:round;stroke-linejoin:round;stroke-miterlimit:1;paint-order:markers fill stroke"
       d="M 38.804653,81.972767 C 38.62966,80.523612 37.646347,73.275544 36.619512,65.865947 35.592679,58.45635 34.75225,52.293581 34.75189,52.170905 c -5.29e-4,-0.162773 0.457548,-0.223046 1.694928,-0.223046 1.475093,0 1.718976,0.04355 1.875507,0.334868 0.09896,0.18418 0.788875,6.186355 1.533144,13.338167 0.744268,7.151814 1.469827,13.99857 1.612354,15.215015 0.142523,1.216445 0.213138,2.285851 0.156918,2.376457 -0.745438,0.459923 -3.006414,1.616095 -2.395308,1.184277 -0.179026,0.399396 -0.218614,-0.716573 -0.42478,-2.423868 z"
       id="path495"
       sodipodi:nodetypes="sscssssccss" /><path
       style="fill:#f9f9f9;fill-rule:evenodd;stroke:#fdfdfd;stroke-width:1.07039;stroke-linecap:round;stroke-linejoin:round;stroke-miterlimit:1;paint-order:markers fill stroke"
       d="m 170.69509,291.6317 c -0.45811,-8.28519 -1.88283,-32.86496 -3.16606,-54.62172 -1.28322,-21.75676 -2.33313,-39.80814 -2.33313,-40.11417 0,-0.30603 2.54243,-0.55642 5.64984,-0.55642 7.91501,0 7.88192,-0.05 8.60156,12.9937 0.3145,5.70015 0.90208,26.20647 1.30575,45.5696 0.40367,19.36313 0.85849,37.67333 1.01071,40.68934 l 0.27677,5.48367 c -3.58672,2.044 -6.89984,3.7771 -9.95489,5.61997 -0.30669,0 -0.93244,-6.77879 -1.39055,-15.06397 z"
       id="path497"
       transform="scale(0.26458333)"
       sodipodi:nodetypes="sssssssccs" /><path
       style="fill:#f9f9f9;fill-rule:evenodd;stroke:#fdfdfd;stroke-width:1.07039;stroke-linecap:round;stroke-linejoin:round;stroke-miterlimit:1;paint-order:markers fill stroke"
       d="m 195.9604,292.03327 c 1.05056,-2.66828 1.6603,-14.72651 2.39111,-47.28606 0.83339,-37.1301 1.37069,-45.18088 3.1463,-47.1429 1.51673,-1.67597 9.77047,-1.83974 11.11428,-0.22054 0.95518,1.15091 0.78956,5.08391 -2.44544,58.07368 -1.16639,19.10567 -2.18421,29.5953 -1.72497,30.14864 -1.07441,0.92393 -7.08054,4.55099 -10.25133,6.28677 -2.55548,1.3037 -2.69133,1.31226 -2.22995,0.14041 z"
       id="path499"
       transform="scale(0.26458333)"
       sodipodi:nodetypes="sssssccs" /><path
       style="fill:#f9f9f9;fill-rule:evenodd;stroke:#fdfdfd;stroke-width:1.07039;stroke-linecap:round;stroke-linejoin:round;stroke-miterlimit:1;paint-order:markers fill stroke"
       d="m 225.17861,275.6579 c -0.1942,-0.31422 -0.0692,-1.60904 0.27781,-2.87739 0.347,-1.26834 1.86123,-14.64499 3.36497,-29.72589 3.21961,-32.28939 4.31479,-42.83643 6.04923,-45.91531 l 0.49829,-0.88455 6.05793,0.0846 h 5.88867 l -0.41726,4.90848 c -0.22949,2.69967 -1.63391,13.74376 -3.12092,24.54243 -3.49853,25.40623 -4.87845,37.04922 -5.06759,41.1785 -0.32281,1.02409 -7.45728,5.35909 -13.53113,8.6891 z"
       id="path501"
       transform="scale(0.26458333)"
       sodipodi:nodetypes="cssscccsscc" /><g
       id="g682"
       transform="matrix(1.4134069,0,0,1.2787977,-32.804148,-12.102978)"><g
         aria-label="ViDEO"
         id="text616"
         style="font-size:16.9333px;font-family:Corbel;-inkscape-font-specification:Corbel;fill:#f9f9f9;fill-rule:evenodd;stroke:#f9f9f9;stroke-width:0.418306;stroke-linecap:round;stroke-linejoin:round;stroke-miterlimit:1;paint-order:markers fill stroke"><path
           d="m 84.451716,44.132972 q 0.595311,-1.810739 1.281573,-3.65455 l 2.108394,-5.688531 h 1.397328 L 85.022222,45.85276 H 83.839868 L 79.623079,34.789891 h 1.397328 l 2.108395,5.688531 q 0.694529,1.843811 1.289841,3.65455 z"
           id="path684" /><path
           d="m 90.892653,45.85276 v -7.854802 h 1.281573 v 7.854802 z m -0.03307,-9.682077 v -1.430401 h 1.347718 v 1.430401 z"
           id="path686" /><path
           d="m 103.86548,40.271717 q 0,0.967381 -0.23978,1.819006 -0.23978,0.851626 -0.7276,1.537888 -0.47956,0.677994 -1.20716,1.174086 -0.71933,0.496093 -1.68672,0.768944 -0.553966,0.157096 -1.198886,0.223242 -0.644921,0.05788 -1.397328,0.05788 H 94.902737 V 34.789891 h 2.530073 q 0.752408,0 1.397328,0.06615 0.644921,0.05788 1.198892,0.214974 0.96738,0.272851 1.68671,0.760675 0.72761,0.487825 1.1989,1.15755 0.47955,0.661457 0.71106,1.496547 0.23978,0.826821 0.23978,1.785934 z m -1.42213,0 q 0,-1.595765 -0.69453,-2.587951 -0.69453,-0.992186 -1.992642,-1.405596 -0.496093,-0.157096 -1.10794,-0.214974 -0.611848,-0.05788 -1.380792,-0.05788 h -1.01699 v 8.632014 h 1.01699 q 0.768944,0 1.380792,-0.05788 0.611847,-0.05788 1.10794,-0.214974 1.298112,-0.413411 1.992642,-1.446937 0.69453,-1.033527 0.69453,-2.645828 z"
           id="path688" /><path
           d="m 107.61098,44.637333 h 5.67199 v 1.215427 h -7.01971 V 34.789891 h 6.71379 v 1.215428 h -5.36607 v 3.571868 h 4.77076 v 1.215427 h -4.77076 z"
           id="path690" /><path
           d="m 124.14741,40.329594 q 0,-1.116209 -0.28939,-1.967835 -0.28939,-0.851626 -0.80202,-1.422132 -0.50436,-0.570507 -1.19889,-0.859894 -0.68626,-0.297656 -1.48001,-0.297656 -0.79375,0 -1.48828,0.297656 -0.68626,0.289387 -1.19889,0.859894 -0.50436,0.570506 -0.79375,1.422132 -0.28938,0.851626 -0.28938,1.967835 0,1.116209 0.28938,1.967835 0.29766,0.843357 0.80202,1.413864 0.51263,0.570507 1.19889,0.859894 0.69453,0.289388 1.49655,0.289388 0.79375,0 1.47174,-0.289388 0.68626,-0.289387 1.19062,-0.859894 0.51263,-0.570507 0.80202,-1.413864 0.28939,-0.851626 0.28939,-1.967835 z m 1.42213,0 q 0,1.256768 -0.3638,2.306831 -0.3638,1.050064 -1.0418,1.810739 -0.67799,0.760676 -1.6371,1.190623 -0.95085,0.421679 -2.1332,0.421679 -1.2237,0 -2.19108,-0.421679 -0.96738,-0.429947 -1.6371,-1.190623 -0.66973,-0.760675 -1.02526,-1.810739 -0.35554,-1.050063 -0.35554,-2.306831 0,-1.265036 0.36381,-2.3151 0.37206,-1.058331 1.04179,-1.819006 0.67799,-0.760676 1.63711,-1.182355 0.95911,-0.429947 2.14973,-0.429947 1.21543,0 2.17454,0.429947 0.96738,0.421679 1.63711,1.182355 0.66972,0.760675 1.02526,1.819006 0.35553,1.050064 0.35553,2.3151 z"
           id="path692" /></g><g
         aria-label="GAME"
         id="text620"
         style="font-size:16.9333px;font-family:Corbel;-inkscape-font-specification:Corbel;fill:#f9f9f9;fill-rule:evenodd;stroke:#f9f9f9;stroke-width:0.418306;stroke-linecap:round;stroke-linejoin:round;stroke-miterlimit:1;paint-order:markers fill stroke"><path
           d="m 87.172631,58.352779 h -2.521805 v -1.215428 h 3.869524 v 5.349534 q -0.173633,0.09095 -0.512629,0.190169 -0.330729,0.09095 -0.760676,0.173633 -0.429947,0.08268 -0.92604,0.132291 -0.487824,0.04961 -0.967381,0.04961 -1.422132,0 -2.513536,-0.388606 -1.083136,-0.388606 -1.819007,-1.099672 -0.735871,-0.711066 -1.116209,-1.728057 -0.380338,-1.01699 -0.380338,-2.26549 0,-1.355987 0.438215,-2.463927 0.446484,-1.107941 1.248501,-1.893421 0.810284,-0.78548 1.926493,-1.207159 1.124477,-0.429947 2.472196,-0.429947 0.363801,0 0.727603,0.03307 0.363801,0.0248 0.694529,0.08268 0.330729,0.04961 0.611848,0.124023 0.281119,0.07441 0.471288,0.157096 v 1.190623 q -0.496092,-0.165365 -1.141013,-0.272851 -0.644921,-0.115755 -1.289841,-0.115755 -0.942576,0 -1.802471,0.289387 -0.851626,0.281119 -1.504814,0.859894 -0.653189,0.578775 -1.041795,1.455206 -0.388606,0.868162 -0.388606,2.042248 0,1.149282 0.314192,1.984371 0.32246,0.83509 0.901235,1.380792 0.587043,0.545702 1.413865,0.810285 0.835089,0.256314 1.852079,0.256314 0.471288,0 0.92604,-0.04961 0.46302,-0.04961 0.818553,-0.140559 z"
           id="path695" /><path
           d="m 90.132651,62.825882 4.506176,-11.062869 h 1.165818 l 4.506175,11.062869 h -1.463473 l -1.322914,-3.33209 h -4.621931 l -1.322914,3.33209 z m 5.076683,-9.343081 q -0.735871,2.067054 -1.413865,3.753769 l -0.41341,1.041795 h 3.662818 L 96.631466,57.23657 q -0.677993,-1.719788 -1.389059,-3.753769 z"
           id="path697" /><path
           d="m 107.86797,62.825882 h -0.62012 l -2.78639,-6.606302 q -0.57877,-1.364255 -1.15755,-2.968289 h -0.0661 q 0.11575,2.306832 0.11575,4.225057 v 5.349534 H 102.0058 V 51.763013 h 1.94303 l 2.60449,6.259037 q 0.44649,1.074868 0.98392,2.587951 h 0.0413 q 0.59531,-1.678447 0.98392,-2.587951 l 2.60448,-6.259037 h 1.94303 v 11.062869 h -1.34771 v -5.349534 q 0,-1.876884 0.11575,-4.225057 h -0.0662 q -0.61184,1.694984 -1.15754,2.968289 z"
           id="path699" /><path
           d="m 117.26892,61.610455 h 5.672 v 1.215427 h -7.01971 V 51.763013 h 6.71378 v 1.215427 h -5.36607 v 3.571868 h 4.77076 v 1.215428 h -4.77076 z"
           id="path701" /></g><g
         aria-label="MOViES"
         id="text674"
         style="font-size:16.9333px;font-family:Corbel;-inkscape-font-specification:Corbel;fill:#f9f9f9;fill-rule:evenodd;stroke:#f9f9f9;stroke-width:0.418306;stroke-linecap:round;stroke-linejoin:round;stroke-miterlimit:1;paint-order:markers fill stroke"><path
           d="m 86.053442,79.292343 h -0.620116 l -2.786388,-6.606302 q -0.578775,-1.364255 -1.15755,-2.968288 h -0.06615 q 0.115755,2.306831 0.115755,4.225056 v 5.349534 H 80.191279 V 68.229474 h 1.94303 l 2.604487,6.259037 q 0.446483,1.074868 0.983917,2.587951 h 0.04134 q 0.595312,-1.678447 0.983918,-2.587951 l 2.604487,-6.259037 h 1.94303 V 79.292343 H 89.94777 v -5.349534 q 0,-1.876884 0.115755,-4.225056 h -0.06615 q -0.611847,1.694983 -1.157549,2.968288 z"
           id="path704" /><path
           d="m 102.65601,73.769177 q 0,-1.116209 -0.28938,-1.967835 -0.28939,-0.851626 -0.80202,-1.422132 -0.50436,-0.570507 -1.19889,-0.859895 -0.686263,-0.297655 -1.480012,-0.297655 -0.793748,0 -1.488278,0.297655 -0.686262,0.289388 -1.198891,0.859895 -0.504361,0.570506 -0.793748,1.422132 -0.289388,0.851626 -0.289388,1.967835 0,1.116209 0.289388,1.967835 0.297655,0.843357 0.802016,1.413864 0.51263,0.570507 1.198891,0.859894 0.69453,0.289388 1.496547,0.289388 0.793748,0 1.471745,-0.289388 0.68626,-0.289387 1.19062,-0.859894 0.51263,-0.570507 0.80202,-1.413864 0.28938,-0.851626 0.28938,-1.967835 z m 1.42214,0 q 0,1.256768 -0.36381,2.306831 -0.3638,1.050063 -1.04179,1.810739 -0.67799,0.760676 -1.63711,1.190623 -0.95084,0.421678 -2.133195,0.421678 -1.223696,0 -2.191077,-0.421678 -0.967381,-0.429947 -1.637106,-1.190623 -0.669725,-0.760676 -1.025258,-1.810739 -0.355533,-1.050063 -0.355533,-2.306831 0,-1.265037 0.363801,-2.3151 0.37207,-1.058331 1.041795,-1.819007 0.677993,-0.760675 1.637106,-1.182354 0.959113,-0.429947 2.149735,-0.429947 1.215432,0 2.174542,0.429947 0.96738,0.421679 1.6371,1.182354 0.66973,0.760676 1.02526,1.819007 0.35554,1.050063 0.35554,2.3151 z"
           id="path706" /><path
           d="m 110.06433,77.572555 q 0.59531,-1.810739 1.28158,-3.65455 l 2.10839,-5.688531 h 1.39733 l -4.21679,11.062869 h -1.18235 L 105.2357,68.229474 h 1.39732 l 2.1084,5.688531 q 0.69453,1.843811 1.28984,3.65455 z"
           id="path708" /><path
           d="m 116.50527,79.292343 v -7.854802 h 1.28157 v 7.854802 z m -0.0331,-9.682077 v -1.430401 h 1.34772 v 1.430401 z"
           id="path710" /><path
           d="m 121.86307,78.076916 h 5.672 v 1.215427 h -7.01972 V 68.229474 h 6.71379 v 1.215428 h -5.36607 v 3.571868 h 4.77076 v 1.215427 h -4.77076 z"
           id="path712" /><path
           d="m 130.87542,71.156422 q 0,0.487824 0.19844,0.810285 0.19844,0.314192 0.52917,0.520897 0.33899,0.206705 0.77721,0.338997 0.44648,0.132291 0.92604,0.248046 0.64492,0.157096 1.26503,0.347265 0.62839,0.190169 1.11621,0.529166 0.48783,0.330728 0.78548,0.868162 0.30593,0.537434 0.30593,1.380792 0,0.859894 -0.32246,1.488278 -0.3142,0.620116 -0.8847,1.025258 -0.56224,0.396874 -1.34772,0.587043 -0.78548,0.198437 -1.71979,0.198437 -0.42995,0 -0.8847,-0.05788 -0.44648,-0.04961 -0.85989,-0.14056 -0.40514,-0.09095 -0.73587,-0.206705 -0.33073,-0.115755 -0.5209,-0.23151 v -1.231964 q 0.29766,0.148828 0.66973,0.272851 0.37206,0.124024 0.76894,0.214974 0.39687,0.08268 0.80202,0.132291 0.40514,0.04961 0.76067,0.04961 0.57878,0 1.09967,-0.09922 0.52917,-0.09922 0.92604,-0.330728 0.39688,-0.23151 0.62839,-0.628385 0.23151,-0.405142 0.23151,-1.008722 0,-0.496092 -0.20671,-0.818553 -0.19843,-0.32246 -0.53743,-0.529165 -0.339,-0.214974 -0.78548,-0.347265 -0.43822,-0.132292 -0.92604,-0.248047 -0.64492,-0.148827 -1.26504,-0.330728 -0.61185,-0.190169 -1.09967,-0.520898 -0.47956,-0.330728 -0.77721,-0.851626 -0.28939,-0.520897 -0.28939,-1.331182 0,-0.843358 0.29766,-1.446937 0.29765,-0.611848 0.81028,-1.008722 0.51263,-0.396874 1.19889,-0.587043 0.68626,-0.190169 1.46347,-0.190169 0.8847,0 1.64538,0.173632 0.76894,0.165365 1.4056,0.438216 v 1.2485 q -0.68627,-0.289388 -1.42214,-0.471288 -0.7276,-0.181901 -1.56269,-0.190169 -0.62838,0 -1.0914,0.140559 -0.46302,0.132292 -0.76895,0.388606 -0.30592,0.248047 -0.45475,0.611848 -0.14883,0.355533 -0.14883,0.793749 z"
           id="path714" /></g></g></g></svg>
