<svg height="150.631" viewBox="0 0 1894.669 557.333" width="512.073" xmlns="http://www.w3.org/2000/svg">
    <g fill="#fff" fill-opacity=".5" stroke-width="3.7">
        <path d="M1275.967 342.717q0 .888-.215 1.495-.318.903-1.021.903-.466 0-.977-.215-.614-.259-.673-.636.207 0 .488.074.651.17.814.17.629 0 .947-.629.252-.503.252-1.206 0-.496-.326-1.413-.318-.925-.318-1.288 0-.111.059-.178.067-.074.178-.074.288 0 .562 1.332.23 1.125.23 1.665zM1278.816 343.472q0 .755-.437 1.184-.437.43-1.206.43-.422 0-.651-.2-.23-.2-.23-.615 0-.584.762-1.176.726-.563 1.34-.563.281 0 .37.348.052.2.052.592zm-.452.207q0-.088-.022-.17-.015-.089-.059-.2-.118.082-.392.4-.14.163-.244.237 0-.14.03-.23.059-.125.096-.214-.326 0-.681.274-.348.273-.348.592 0 .214.237.214.451 0 .873-.222.51-.266.51-.68zM1281.864 343.776q0 .362-.273.814-.311.51-.644.51-.096 0-.163-.103-.059-.111-.059-.215 0-.133.281-.414.289-.289.289-.393 0-.066-.022-.133l-.03-.089q-.555.126-1.132.637-.57.51-.866.577-.06-.163-.06-.333 0-.207.097-.437.067-.162.222-.392.259-.392.547-.888l.511-.895q.37-.637.54-.903.09-.133.156-.2.096-.089.229-.118.089.03.126.11.044.082.044.193 0 .252-.326.681-.592.77-.607.8-.333.502-.333.91l.015.073q.407-.2.481-.229.304-.126.518-.126.237 0 .348.163.111.155.111.4zM1285.298 343.339q0 .503-.244 1.073-.267.629-.659.866-.08-.096-.14-.215-.052-.118-.052-.237 0-.125.37-.747.162-.274.148-.481l-.01-.096q-.274.081-.948.496-.666.407-1.346.828-.104 0-.193-.074-.08-.081-.08-.177 0-.156.495-1.044.148-.266.533-.925.118.156.155.348.037.185.037.444v.17q.681-.407 1.066-.614.422-.23.577-.23.104 0 .192.238.096.236.096.377zM1291.729 344.775q0 .133-.119.207-.11.066-.251.066-.126 0-.319-.03-.436-.066-.562-.066-.222 0-.873.052-.37.03-.533.03-.451 0-.451-.452 0-.429.28-1.228.156-.452.585-1.48.385-.925.489-1.303.037-.118.059-.155.059-.089.148-.089.14 0 .237.207.096.2.096.363 0 .259-.304.873-.303.607-.592 1.192-.318.695-.318 1.058 0 .185.155.259.111.052.326.052.163 0 .562-.037.4-.045.533-.045.333 0 .548.096.303.134.303.43zM1294.481 343.472q0 .755-.436 1.184-.437.43-1.206.43-.422 0-.652-.2-.229-.2-.229-.615 0-.584.762-1.176.725-.563 1.34-.563.28 0 .37.348.052.2.052.592zm-.451.207q0-.088-.022-.17-.015-.089-.059-.2-.118.082-.392.4-.14.163-.244.237 0-.14.03-.23.059-.125.096-.214-.326 0-.681.274-.348.273-.348.592 0 .214.237.214.451 0 .873-.222.51-.266.51-.68zM1297.597 343.317q0 .237-.126.503-.118.266-.303.444l-.01-.104q0-.088.022-.273.022-.185.022-.274 0-.126-.037-.185-.037-.067-.156-.067-.348 0-.866.54l-1.117 1.177q-.044 0-.089-.007-.111-.03-.148-.037.022-.266.185-.592.437-.88.451-.94.06-.237.09-.348.03-.11.08-.229.06-.126.134-.222.08-.104.207-.155l.074.888.488-.4q.326-.259.563-.259.236 0 .384.155.148.156.148.385zM1301.23 342.458q0 .311-.829.822-.799.488-1.161.488-.17 0-.23-.118-.052-.119-.052-.333v-.2q.496 0 .903-.148.407-.148.71-.488-.222-.082-.451-.082-.54 0-1.147.415-.666.451-.666.962 0 .488.666.68.104.03 1.25.208.674.103.674.362 0 .111-.244.178-.244.074-.622.074-.947 0-1.495-.289-.725-.385-.725-1.236 0-.888.888-1.413.755-.444 1.717-.444.289 0 .525.133.289.163.289.43zM1304.175 341.134q0 .163-.392.68-.392.519-.392.792 0 .141.163.282.37.325.37.4 0 .095-.067.184-.06.089-.156.089-.08 0-.229-.089-.104-.059-.4-.288-.11.214-.17.325-.207.392-.281.57l-.222.68q-.192.46-.481.46l-.01-.17q0-.526.34-1.244.067-.133.37-.688-.584-.318-1.287-.318 0-.274.11-.4.12-.133.393-.133.252 0 .629.089l.37.089q.14-.045.385-.481.6-1.051.814-1.207.059.097.096.193.044.096.044.185zM1306.906 343.776q0 .362-.274.814-.31.51-.644.51-.096 0-.162-.103-.06-.111-.06-.215 0-.133.282-.414.288-.289.288-.393 0-.066-.022-.133l-.03-.089q-.555.126-1.132.637-.57.51-.866.577-.059-.163-.059-.333 0-.207.096-.437.067-.162.222-.392.26-.392.548-.888l.51-.895q.37-.637.54-.903.09-.133.156-.2.096-.089.23-.118.089.03.125.11.044.082.044.193 0 .252-.325.681-.592.77-.607.8-.333.502-.333.91l.015.073q.407-.2.481-.229.303-.126.518-.126.237 0 .348.163.11.155.11.4zM1312.982 341.363q0 .348-.37.933-.237.37-.777 1.065-.54.688-.674.903l.555.178q.54.162.54.592-.222.037-.436.066l-.081-.007v-.059q-.119-.03-.193-.03-.14 0-.444.045-.303.044-.458.044-.2 0-.326-.074t-.126-.266q0-.156.57-.88 1.066-1.355 1.073-1.37.577-.784.577-1.05 0-.104-.074-.156-.067-.052-.274-.052-.14 0-.584.274-.215.133-.348.133l-.126-.022q-.044-.03-.096-.111-.052-.089-.052-.14 0-.311.6-.57.51-.222.888-.222.318 0 .488.236.148.208.148.54zM1317.429 342.695q0 .896-.97 1.584-.888.629-1.827.629-.467 0-.74-.237-.274-.237-.274-.688 0-1.007.88-1.747.837-.703 1.873-.703.525 0 .791.311.267.311.267.851zm-.452.17q0-.34-.384-.51-.289-.126-.689-.126-.584 0-1.22.57-.637.57-.637 1.147 0 .237.118.34.126.096.378.096.725 0 1.51-.4.924-.473.924-1.117zM1320.818 341.363q0 .348-.37.933-.237.37-.777 1.065-.54.688-.673.903l.555.178q.54.162.54.592-.222.037-.437.066l-.08-.007v-.059q-.12-.03-.193-.03-.14 0-.444.045-.303.044-.459.044-.2 0-.325-.074-.126-.074-.126-.266 0-.156.57-.88 1.065-1.355 1.073-1.37.577-.784.577-1.05 0-.104-.074-.156-.067-.052-.274-.052-.14 0-.585.274-.214.133-.347.133l-.126-.022q-.044-.03-.096-.111-.052-.089-.052-.14 0-.311.6-.57.51-.222.887-.222.318 0 .489.236.148.208.148.54zM1324.222 341.363q0 .348-.37.933-.237.37-.777 1.065-.54.688-.673.903l.555.178q.54.162.54.592-.222.037-.437.066l-.08-.007v-.059q-.12-.03-.193-.03-.14 0-.444.045-.304.044-.459.044-.2 0-.326-.074-.125-.074-.125-.266 0-.156.57-.88 1.065-1.355 1.072-1.37.578-.784.578-1.05 0-.104-.074-.156-.067-.052-.274-.052-.14 0-.585.274-.214.133-.348.133l-.125-.022q-.044-.03-.096-.111-.052-.089-.052-.14 0-.311.599-.57.51-.222.888-.222.318 0 .488.236.148.208.148.54z"/>
    </g>
    <g fill="#d4d1c5" stroke-width="74">
        <rect height="31.877" opacity=".98" rx="8.893" width="33.656" x="574.573" y="100.594"/>
        <rect height="31.877" opacity=".98" rx="8.893" width="33.656" x="634.459" y="100.594"/>
        <rect height="31.877" opacity=".98" rx="8.893" width="33.656" x="694.061" y="100.594"/>
        <rect height="31.877" opacity=".98" rx="8.893" width="33.656" x="395.19" y="100.594"/>
        <rect height="31.877" opacity=".98" rx="8.893" width="33.656" x="455.076" y="100.594"/>
        <rect height="31.877" opacity=".98" rx="8.893" width="33.656" x="514.677" y="100.594"/>
        <rect height="31.877" opacity=".98" rx="8.893" width="33.656" x="216.239" y="100.594"/>
        <rect height="31.877" opacity=".98" rx="8.893" width="33.656" x="276.125" y="100.594"/>
        <rect height="31.877" opacity=".98" rx="8.893" width="33.656" x="335.726" y="100.594"/>
        <rect height="31.877" opacity=".98" rx="8.893" width="33.656" x="36.856" y="100.594"/>
        <rect height="31.877" opacity=".98" rx="8.893" width="33.656" x="96.742" y="100.594"/>
        <rect height="31.877" opacity=".98" rx="8.893" width="33.656" x="156.343" y="100.594"/>
    </g>
    <g fill="#d4d1c5" stroke-width="74">
        <rect height="31.877" opacity=".98" rx="8.893" width="33.656" x="574.573" y="424.376"/>
        <rect height="31.877" opacity=".98" rx="8.893" width="33.656" x="634.459" y="424.376"/>
        <rect height="31.877" opacity=".98" rx="8.893" width="33.656" x="694.061" y="424.376"/>
        <rect height="31.877" opacity=".98" rx="8.893" width="33.656" x="395.19" y="424.376"/>
        <rect height="31.877" opacity=".98" rx="8.893" width="33.656" x="455.076" y="424.376"/>
        <rect height="31.877" opacity=".98" rx="8.893" width="33.656" x="514.677" y="424.376"/>
        <rect height="31.877" opacity=".98" rx="8.893" width="33.656" x="216.239" y="424.376"/>
        <rect height="31.877" opacity=".98" rx="8.893" width="33.656" x="276.125" y="424.376"/>
        <rect height="31.877" opacity=".98" rx="8.893" width="33.656" x="335.726" y="424.376"/>
        <rect height="31.877" opacity=".98" rx="8.893" width="33.656" x="36.856" y="424.376"/>
        <rect height="31.877" opacity=".98" rx="8.893" width="33.656" x="96.742" y="424.376"/>
        <rect height="31.877" opacity=".98" rx="8.893" width="33.656" x="156.343" y="424.376"/>
    </g>
    <rect fill="#444445" height="305.182" opacity=".98" rx="26.503" width="767.86" x=".714" y="125.205"/>
    <rect fill="#3a3a3a" height="272.955" opacity=".98" rx="26.503" ry="20.513" width="756.102" x="6.078" y="141.234"/>
    <circle cx="645.179" cy="280.994" fill="#444445" opacity=".98" r="44.4"/>
    <circle cx="74.639" cy="359.528" fill="#444445" opacity=".98" r="25.9"/>
    <g fill="#fff" stroke-width="3.7">
        <path d="M249.587 247.345v-15.124l-6.946-24.782h9.438l1.65 9.09q.312 1.678.5 3.274.186 1.57.28 3.165h.373q.28-2.11.499-3.706.249-1.596.467-2.679l1.838-9.144h8.16l-7.133 24.782v15.124zM263.635 247.345l7.35-39.906h11.744l5.42 39.906h-9.5l-.904-10.633h-4.548l-1.183 10.633zm10.279-16.504h3.395l-1.028-12.174q-.093-1.029-.156-3.707-.03-1.163-.03-1.813h-.343q-.125 2.3-.218 3.68-.094 1.353-.156 1.785zM289.986 247.345V207.44h13.145l2.99 20.832q.374 2.435.717 6.683.03.352.062.54l.312-.026q.155-1.894.373-3.707.25-1.84.654-4.03l3.583-20.292h12.552v39.906h-8.347v-21.103q0-1.65.03-3.788.063-2.164.156-4.843l-.249-.027q-.187 3.518-.872 6.818-.031.136-.031.163l-4.454 22.78h-7.787l-4.268-21.644q-.218-1.082-.467-3.165-.218-2.11-.436-4.925l-.311-.027v.92q.062 12.527.062 28.841zM326.212 247.345l7.351-39.906h11.743l5.42 39.906h-9.5l-.904-10.633h-4.547l-1.184 10.633zm10.279-16.504h3.395l-1.028-12.174q-.093-1.029-.155-3.707-.032-1.163-.032-1.813h-.342q-.125 2.3-.218 3.68-.094 1.353-.156 1.785zM352.564 247.345V207.44h9.126v14.799h2.866v-14.8h9.189v39.907h-9.19v-19.29h-2.865v19.29zM375.582 247.345l7.351-39.906h11.743l5.42 39.906h-9.5l-.904-10.633h-4.547l-1.184 10.633zm10.28-16.504h3.394l-1.027-12.174q-.094-1.029-.156-3.707-.031-1.163-.031-1.813h-.343q-.125 2.3-.218 3.68-.093 1.353-.156 1.785zM418.254 248.084h2.66c5.421 0 9.086-3.662 9.086-8.377v-23.803h-4.417v23.025c0 2.884-1.908 5.539-5.572 5.539h-1.757zM451.535 248.084h4.517l-9.738-32.18h-5.22l-9.89 32.18h4.267l2.61-8.56h10.894zm-7.982-27.42 4.418 15.29h-8.885zM458.562 248.084h4.418v-12.176h6.475c5.422 0 9.789-3.983 9.789-8.927v-2.151c0-4.944-4.367-8.926-9.789-8.926h-10.893zm4.418-15.792V219.52h6.274c3.113 0 5.623 2.335 5.623 5.173v2.426c0 2.838-2.51 5.173-5.623 5.173zM496.712 248.084h4.518l-9.738-32.18h-5.22l-9.89 32.18h4.267l2.61-8.56h10.893zm-7.981-27.42 4.417 15.29h-8.885zM503.74 248.084h4.217v-24.17l14.507 24.17h3.363v-32.18h-4.217v23.117l-13.754-23.117h-4.116zM253.397 295.82h4.26v-13.049l9.005-19.366H262.5l-6.972 15.032-6.923-15.032h-4.212l9.005 19.366zM269.034 295.82h4.067v-24.438l7.795 16.37h.968l7.698-16.37v24.439h4.066v-32.416h-4.26l-7.891 16.969-7.989-16.969h-4.454zM297.502 295.82h20.236v-3.919h-14.475l8.569-9.775c2.905-3.228 5.616-5.718 5.616-9.822v-.968c0-4.657-3.97-8.392-8.86-8.392h-1.985c-5.083 0-8.86 3.873-8.86 8.761v3.228h3.97v-3.182a5.17 5.17 0 0 1 5.18-5.164h1.114c2.808 0 5.084 2.167 5.084 4.887v.83c0 2.536-2.034 4.658-4.164 7.101l-11.425 13.28zM324.807 272.443c0-3.136 2.372-5.764 5.664-5.764h1.259c3.098 0 5.422 2.49 5.422 5.441v1.383h4.115v-1.614c0-4.933-3.921-8.945-9.101-8.945h-2.179c-5.374 0-9.392 4.15-9.392 9.314v15.078c0 4.934 4.018 8.946 9.198 8.946h2.615c5.228 0 9.247-4.012 9.247-8.946v-2.028c0-4.842-3.922-8.577-9.005-8.577h-1.985c-1.598 0-4.503.553-5.858 1.199zm5.519 7.839h1.646c3.098 0 5.47 2.443 5.47 5.394v1.568a5.441 5.441 0 0 1-5.47 5.441h-1.743c-3.098 0-5.422-2.49-5.422-5.44v-5.95c1.258-.46 3.97-1.013 5.519-1.013zM262.747 340.313c0 3.136-2.987 5.764-7.133 5.764h-1.586c-3.902 0-6.828-2.49-6.828-5.44v-1.43h-5.183v1.66c0 4.934 4.939 8.945 11.463 8.945h2.743c6.768 0 11.829-4.15 11.829-9.314V325.42c0-4.98-5-8.946-11.585-8.946h-3.292c-6.585 0-11.585 4.012-11.585 8.946v1.798c0 4.842 4.939 8.577 11.28 8.577h2.5c1.95 0 5.61-.554 7.377-1.2zm-6.95-8.069h-2.074c-3.902 0-6.828-2.444-6.828-5.395v-1.383c0-2.951 2.926-5.395 6.828-5.395h2.195c3.903 0 6.83 2.444 6.83 5.395v5.81c-1.586.415-5 .968-6.951.968zM272.076 349.351h25.486v-3.92h-18.23l10.791-9.775c3.659-3.227 7.073-5.717 7.073-9.821v-.969c0-4.657-5-8.392-11.158-8.392h-2.5c-6.402 0-11.157 3.874-11.157 8.761v3.228h5v-3.182c0-2.812 2.865-5.164 6.523-5.164h1.403c3.536 0 6.402 2.167 6.402 4.888v.83c0 2.536-2.561 4.657-5.244 7.1l-14.39 13.28zM308.963 349.351h5.366v-32.416h-3.353l-11.95 2.306v3.55l9.937-1.66zM327.682 349.351h5.365v-32.416h-3.353l-11.95 2.306v3.55l9.938-1.66zM361.21 349.351h5.365v-32.416h-5.365zM396.686 349.543h4.034l-8.695-31.466h-4.661l-8.83 31.466h3.81l2.33-8.37h9.727zm-7.126-26.811 3.944 14.95h-7.933zM409.55 355.899h3.944V349.9c4.393-.492 7.889-4.252 7.889-8.818v-14.546c0-4.924-4.034-8.908-8.92-8.908h-1.927c-4.93 0-8.92 3.984-8.92 8.908v14.546a8.89 8.89 0 0 0 7.934 8.863zm-3.989-29.273c0-2.954 2.33-5.371 5.289-5.371h1.3c2.913 0 5.289 2.417 5.289 5.371v14.368c0 2.954-2.376 5.371-5.29 5.371h-1.3c-2.957 0-5.288-2.417-5.288-5.371zM435.21 349.351h12.249c4.763 0 8.603-3.643 8.603-8.208v-1.29c0-2.952-1.847-5.81-4.666-6.917 2.09-1.2 3.694-3.966 3.694-6.502v-1.245c0-4.565-3.888-8.254-8.7-8.254h-11.18zm4.18-17.89v-10.883h6.416c2.77 0 5.007 2.167 5.007 4.703v1.476c0 2.582-2.236 4.703-4.958 4.703zm0 14.247v-10.882h6.95c3.16 0 5.25 2.167 5.25 4.75v1.43c0 2.581-2.138 4.702-4.86 4.702zM363.198 295.764h4.295V263.22h-2.684l-9.568 2.315v3.564l7.957-1.666zM371.399 295.764h20.405v-3.935h-14.596l8.64-9.814c2.93-3.24 5.663-5.74 5.663-9.861v-.972c0-4.676-4.003-8.426-8.933-8.426h-2.002c-5.126 0-8.933 3.889-8.933 8.796v3.24h4.003v-3.194c0-2.824 2.294-5.185 5.223-5.185h1.123c2.831 0 5.126 2.176 5.126 4.908v.833c0 2.546-2.05 4.676-4.199 7.13l-11.52 13.332z"/>
    </g>
    <g fill="#17569b" stroke-width="3.7">
        <path d="M814.467 85.807V-.303h64.426v66.54l24.16 19.57 24.16-19.57V-.304h64.426v86.11l-32.213 23.484H846.68zM999.692 109.291V-.303h64.426V109.29zM1072.171 109.291V31.01l48.32-31.312h128.852v86.11l-32.213 23.484zm64.426-86.11v62.626h48.32V23.18zM1257.396 109.291V31.01l48.32-31.312h128.852l-32.213 23.484h-80.533v23.485h80.533l-32.213 23.484h-48.32v15.657h112.746l-32.213 23.484z"/>
        <path d="M1426.515 85.807V23.18l32.213-23.484h112.745l32.213 23.484v62.626l-32.213 23.484h-112.745zm64.426-62.626v62.626h48.32V23.18zM814.19 257.908v-77.44l48.139-30.977h128.37l-32.093 23.232h-80.231v61.953h48.138v-15.488h-40.115l32.092-23.232h72.208v38.72l-32.092 23.232zM998.721 257.908v-77.44l48.139-30.977h128.37v108.417h-64.185v-38.72h-48.139v38.72zm64.185-85.185v23.233h48.139v-23.233zM1183.252 257.908V149.49h64.185l24.07 11.616 24.069-11.616h64.184v108.417h-64.184v-77.44l-24.07 11.616-24.069-11.617v77.44zM1367.784 257.908v-77.44l48.138-30.977h128.37l-32.093 23.232h-80.23v23.233h80.23l-32.092 23.232h-48.139v15.488h112.324l-32.093 23.232zM813.952 408.086V298.39h64.464l24.175 11.753 24.174-11.753h64.465v109.695h-64.465v-78.354l-24.174 11.753-24.175-11.753v78.354zM1176.567 298.39v86.19l-32.233 23.506h-112.813l-32.233-23.506v-86.19h64.465v86.19h48.349v-86.19zM1184.625 368.91v-39.178l48.349-31.341h128.93l-32.233 23.506h-80.581v23.506h112.814v39.177l-32.233 23.506h-145.046l32.232-23.506h80.582v-15.67zM1369.962 408.086V298.39h64.465v109.695zM1442.485 408.086v-78.354l48.348-31.341h128.93l-32.232 23.506h-80.581v62.683h112.813l-32.232 23.506zM813.951 479.28l48.202-31.271h128.538v46.905l-32.134 23.453H878.22v39.088h-64.269zm112.471 15.634v-23.452H878.22v23.452zM998.725 557.455V448.01h64.269v85.993h112.47l-32.134 23.453zM1183.498 557.455V479.28l48.202-31.27h128.538v109.446h-64.269v-39.088h-48.202v39.088zm64.27-85.993v23.452h48.201v-23.452zM1368.272 479.28v-31.271h64.269v23.453l24.1 14.332 24.101-14.332v-23.453h64.27v31.27l-56.236 23.453v54.723h-64.27v-54.723zM1553.045 557.455V479.28l48.202-31.27h128.538l-32.135 23.453h-80.336v23.452h80.336l-32.134 23.453h-48.202v15.635h112.47l-32.134 23.453z"/>
        <path d="m1721.75 479.28 48.203-31.271h128.538v54.723l-24.101 15.635 24.1 39.088h-64.268l-40.168-62.54h40.168v-23.453h-48.202v85.993h-64.27z"/>
    </g>
</svg>
