<?xml version="1.0" encoding="UTF-8" standalone="no"?>
<svg
   xmlns:dc="http://purl.org/dc/elements/1.1/"
   xmlns:cc="http://creativecommons.org/ns#"
   xmlns:rdf="http://www.w3.org/1999/02/22-rdf-syntax-ns#"
   xmlns:svg="http://www.w3.org/2000/svg"
   xmlns="http://www.w3.org/2000/svg"
   xmlns:sodipodi="http://sodipodi.sourceforge.net/DTD/sodipodi-0.dtd"
   xmlns:inkscape="http://www.inkscape.org/namespaces/inkscape"
   width="84.080513mm"
   height="25.79077mm"
   id="svg2"
   version="1.1"
   inkscape:version="0.92.4 (5da689c313, 2019-01-14)"
   sodipodi:docname="Logo Vircon32.svg"
   inkscape:export-filename="J:\Codigo\C++\Vircon32\PhysicalElements\Logos\Logo Vircon32.png"
   inkscape:export-xdpi="299.97678"
   inkscape:export-ydpi="299.97678">
  <defs
     id="defs4" />
  <sodipodi:namedview
     id="base"
     pagecolor="#ffffff"
     bordercolor="#666666"
     borderopacity="1.0"
     inkscape:pageopacity="0.0"
     inkscape:pageshadow="2"
     inkscape:zoom="2"
     inkscape:cx="6.149765"
     inkscape:cy="47.546618"
     inkscape:document-units="px"
     inkscape:current-layer="layer1"
     showgrid="false"
     inkscape:window-width="1920"
     inkscape:window-height="1033"
     inkscape:window-x="-4"
     inkscape:window-y="-4"
     inkscape:window-maximized="1"
     inkscape:document-rotation="0"
     fit-margin-top="0"
     fit-margin-left="0"
     fit-margin-right="0"
     fit-margin-bottom="0" />
  <metadata
     id="metadata7">
    <rdf:RDF>
      <cc:Work
         rdf:about="">
        <dc:format>image/svg+xml</dc:format>
        <dc:type
           rdf:resource="http://purl.org/dc/dcmitype/StillImage" />
        <dc:title />
      </cc:Work>
    </rdf:RDF>
  </metadata>
  <g
     inkscape:label="Capa 1"
     inkscape:groupmode="layer"
     id="layer1"
     transform="translate(-190.75055,-192.90439)">
    <path
       d="m 235.57997,262.64787 h -12.57813 l -10.27343,-57.26562 h 11.75781 l 7.26562,43.32031 23.71094,-43.32031 h 11.67969 z"
       style="font-style:oblique;font-weight:bold;font-size:80px;line-height:0.01%;font-family:sans-serif;-inkscape-font-specification:'Arial Bold Oblique';letter-spacing:0px;word-spacing:0px;fill:#ffffff;fill-opacity:1;stroke:none"
       id="path839" />
    <path
       d="m 268.39247,219.69865 h 8.4082 l -1.58203,7.61719 h -8.4082 z m -2.46094,11.83594 h 8.4082 l -6.5039,31.11328 h -8.4082 z"
       style="font-style:normal;font-weight:bold;line-height:0.01%;font-family:sans-serif;-inkscape-font-specification:'Arial Bold Oblique';letter-spacing:0px;word-spacing:0px;fill:#ffffff;fill-opacity:1;stroke:none"
       id="path841" />
    <path
       d="m 282.1327,231.53459 h 7.85157 l -1.25977,6.03516 q 4.39453,-6.76758 9.52148,-6.76758 1.81641,0 3.89649,0.9082 l -3.22266,6.88477 q -1.14258,-0.41016 -2.43164,-0.41016 -2.16797,0 -4.42383,1.64063 -2.22656,1.64062 -3.48632,4.39453 -1.25977,2.72461 -2.49024,8.67187 l -2.05078,9.75586 h -8.4082 z"
       style="font-style:normal;font-weight:bold;line-height:0.01%;font-family:sans-serif;-inkscape-font-specification:'Arial Bold Oblique';letter-spacing:0px;word-spacing:0px;fill:#ffffff;fill-opacity:1;stroke:none"
       id="path843" />
    <path
       d="m 320.54091,250.92912 8.17382,1.31836 q -2.02148,5.44922 -5.97656,8.29102 -3.95508,2.84179 -9.16992,2.84179 -5.94727,0 -9.43359,-3.54492 -3.48633,-3.54492 -3.48633,-9.75586 0,-5.06836 2.10937,-9.58008 2.10938,-4.51171 6.35742,-7.08984 4.24805,-2.60742 9.31641,-2.60742 5.50781,0 8.78906,2.87109 3.28125,2.8711 3.69141,7.5586 l -7.99805,0.84961 q -0.29297,-2.60743 -1.61133,-3.8379 -1.28906,-1.23046 -3.39843,-1.23046 -2.43164,0 -4.54102,1.8164 -2.10937,1.81641 -3.25195,5.44922 -1.11328,3.60352 -1.11328,6.76758 0,2.75391 1.34765,4.24805 1.34766,1.49414 3.36914,1.49414 2.02149,0 3.89649,-1.46485 1.875,-1.46484 2.92969,-4.39453 z"
       style="font-style:normal;font-weight:bold;line-height:0.01%;font-family:sans-serif;-inkscape-font-specification:'Arial Bold Oblique';letter-spacing:0px;word-spacing:0px;fill:#ffffff;fill-opacity:1;stroke:none"
       id="path845" />
    <path
       d="m 334.04677,249.72795 q 0,-8.64258 4.86328,-13.76953 4.89257,-5.15625 12.83203,-5.15625 6.88476,0 10.75195,3.80859 3.86719,3.7793 3.86719,10.19531 0,7.5586 -4.83399,13.06641 -4.83398,5.50781 -12.94921,5.50781 -4.39454,0 -7.79297,-1.75781 -3.39844,-1.75781 -5.06836,-4.98047 -1.66992,-3.22265 -1.66992,-6.91406 z m 23.96484,-6.00586 q 0,-2.98828 -1.75781,-4.77539 -1.72852,-1.81641 -4.48243,-1.81641 -2.7246,0 -4.83398,1.69922 -2.10937,1.66992 -3.28125,4.89258 -1.17187,3.19336 -1.17187,5.88867 0,3.33985 1.8164,5.30274 1.81641,1.96289 4.57031,1.96289 3.45704,0 5.80079,-2.95899 3.33984,-4.18945 3.33984,-10.19531 z"
       style="font-style:normal;font-weight:bold;line-height:0.01%;font-family:sans-serif;-inkscape-font-specification:'Arial Bold Oblique';letter-spacing:0px;word-spacing:0px;fill:#ffffff;fill-opacity:1;stroke:none"
       id="path847" />
    <path
       d="m 376.08778,231.53459 h 7.96875 l -0.82031,4.04297 q 2.98828,-2.57813 5.5664,-3.66211 2.60743,-1.11328 5.47852,-1.11328 3.83789,0 6.03516,2.19726 2.22656,2.19727 2.22656,5.83008 0,1.64063 -0.9668,6.21094 l -3.66211,17.60742 h -8.4082 l 3.69141,-17.66601 q 0.82031,-3.95508 0.82031,-4.7168 0,-1.61133 -0.9668,-2.51953 -0.9375,-0.9375 -2.63672,-0.9375 -1.8457,0 -4.10156,1.55273 -2.25586,1.55274 -3.54492,4.10156 -0.9375,1.81641 -2.10938,7.41211 l -2.66601,12.77344 h -8.40821 z"
       style="font-style:normal;font-weight:bold;line-height:0.01%;font-family:sans-serif;-inkscape-font-specification:'Arial Bold Oblique';letter-spacing:0px;word-spacing:0px;fill:#ffffff;fill-opacity:1;stroke:none"
       id="path849" />
    <path
       d="m 407.77723,247.68693 10.74219,-1.28906 q 0.66406,4.57031 2.38281,6.32813 1.75782,1.75781 4.64844,1.75781 3.82813,0 6.32813,-2.57813 2.53906,-2.57812 2.53906,-6.60156 0,-3.51562 -2.03125,-5.54687 -2.03125,-2.07032 -5.46875,-2.07032 -0.85938,0 -1.79688,0.15625 l 1.95313,-9.33593 q 0.58594,0.0781 1.13281,0.0781 4.49219,0 6.83594,-2.26562 2.34375,-2.30469 2.34375,-6.21094 0,-2.77344 -1.60156,-4.375 -1.5625,-1.60156 -4.14063,-1.60156 -2.42187,0 -4.33594,1.79687 -1.91406,1.75781 -3.04687,6.05469 l -10.23438,-2.03125 q 1.95313,-6.32813 5.42969,-9.72656 5.27344,-5.07813 12.96875,-5.07813 7.89063,0 11.99219,4.41406 4.10156,4.375 4.10156,10.50782 0,4.45312 -2.61719,8.04687 -2.61718,3.59375 -7.1875,5.27344 3.63282,1.91406 5.35157,4.96094 1.71875,3.04687 1.71875,6.36718 0,6.32813 -4.49219,11.64063 -6.13281,7.26562 -15.82031,7.26562 -7.26563,0 -11.99219,-4.14062 -4.6875,-4.17969 -5.70313,-11.79688 z"
       style="font-style:oblique;font-weight:bold;font-size:80px;line-height:0.01%;font-family:sans-serif;-inkscape-font-specification:'Arial Bold Oblique';letter-spacing:0px;word-spacing:0px;fill:#ffffff;fill-opacity:1;stroke:none"
       id="path851" />
    <path
       d="m 465.33973,223.23381 -10.97656,-1.64063 q 1.32813,-7.96875 6.17188,-12.1875 4.88281,-4.25781 12.1875,-4.25781 8.00781,0 12.57812,4.33594 4.57031,4.33594 4.57031,11.01562 0,3.39844 -1.40625,6.83594 -1.40625,3.39844 -4.60937,7.14844 -2.30469,2.65625 -7.53906,7.53906 -5.23438,4.84375 -6.95313,6.64063 -1.67969,1.75781 -3.24219,3.75 h 19.84375 l -2.10937,10.23437 h -34.80469 q 0.54688,-4.21875 2.46094,-8.00781 1.95312,-3.82813 4.84375,-7.10938 2.89062,-3.28125 10.58594,-10.58593 5.78125,-5.54688 7.30468,-7.22657 2.73438,-3.04687 3.75,-5.27343 1.01563,-2.22657 1.01563,-4.02344 0,-2.89063 -1.71875,-4.6875 -1.67969,-1.79688 -4.29688,-1.79688 -2.65625,0 -4.64843,2.03125 -1.99219,1.99219 -3.00782,7.26563 z"
       style="font-style:oblique;font-weight:bold;font-size:80px;line-height:0.01%;font-family:sans-serif;-inkscape-font-specification:'Arial Bold Oblique';letter-spacing:0px;word-spacing:0px;fill:#ffffff;fill-opacity:1;stroke:none"
       id="path853" />
    <rect
       style="fill:#ffffff;fill-opacity:1;fill-rule:nonzero;stroke:none"
       id="rect2999"
       width="294.34448"
       height="9.6749363"
       x="243.17337"
       y="273.88867"
       ry="0"
       rx="0"
       transform="matrix(1,0,-0.14613824,0.98926418,0,0)" />
  </g>
</svg>
