<svg height="161.504" viewBox="0 0 598.394 145.353" width="664.883" xmlns="http://www.w3.org/2000/svg">
    <text fill="#ef00eb" font-family="TrasksHand" font-size="1.8" stroke="#0105ff" stroke-width="2.25" x="284.461" y="9.25" transform="translate(-1.218 .27)"><tspan fill="#fff" fill-opacity=".5" stroke="none" x="284.461" y="9.25">John Loreth 2022</tspan></text>
    <g fill="#00499b" stroke="#fff" stroke-linecap="round" stroke-linejoin="round">
        <path d="M104.052 141.583c11.567.608 11.016-11.635 8.322-17.531-5.76-8.026-9.43-16.56-6.977-28.667 4.844-19.102 11.025-37.49 17.505-55.718 2.624-5.18 8.064-10.968 12.94-15.351 4.44-4.502 1.444-17.796-11.637-15.246-7.24 2.346-13.624 7.496-22.934 3.073-9.7-4.86-21.388 3.065-12.646 13.843 8.46 6.457 8.696 9.665 8.118 20.119l-11.76 52.249-18.28-55.32c-1.92-16.68 12.701-16.667 8.28-29.348-3.606-5.259-6.172-5.629-11.573-4.535-7.188 1.456-26.192 6.063-37.748 3.605-4.256-.905-8.992-1.18-13.254-1.616C.38 15.7 2.882 26.038 7.984 31.515c4.54 2.63 7.467 6.25 9.566 10.38l27.177 77.322c-10.159 4.608-13.29 25.437 6.541 21.832 13.113-2.96 22.218-5.988 52.784.534z" opacity=".98" stroke-width="7.5"/>
        <path d="M195.253 55.087c-.034-12.57 7.706-19.59 14.603-29.53 6.86-6.695.04-21.248-10.433-17.224-17.304 8.382-38.492 4.15-49.138.209-11.254-1.143-18.514 11.067-12.484 18.664 7.91 7.337 11.783 12.936 12.863 23.194l-.18 56.948c.492 5.118-3.665 10.767-10.352 16.248-4.436 4.083-6.94 17.506 8.177 16.305 15.108-5.747 30.718-8.907 52.65-1.593 7.578.181 11.699-6.205 8.581-13.103-6.564-10.504-12.457-15.667-13.722-24.546z" opacity=".98" stroke-width="7.5"/>
        <path d="M233.821 80.257c-12.106-.37-21.896 5.921-27.543 13.39-14.164 30.099 26.12 47.196 47.425 47.531 84.718 4.287 92.338-70.565 47.236-86.594-22.99-4.98-57.66-15.973-56.49-17.679-3.38-5.772-6.624-13.705 8.743-11.643 4.17.616 9.51 7.244 15.69 17.614 13.224 12.535 29.297 5.55 29.297 5.55 19.351-10.742 23.313-38.718 9.197-41.397-6.039 5.043-14.784 11.45-30.194 4.966-45.868-24.459-103.085 24.906-57.3 63.163 21.694 8.48 47.799 17.003 57.711 20.868 18.62 18.618-24.797 42.121-33.371 13.374-1.96-5.33 14.153-12.8 9.895-20.331" opacity=".98" stroke-width="7.5"/>
        <path d="M400.535 5.963c-99.364-11.005-101.22 133.917-.156 135.277 74.03-5.261 67.06-78.347 26.368-77.82-21.806 1.923-40.626 24.045-30.484 32.287 7.643 4.516 5.002 1.44 11.896-.263 10.95 3.8 5.008 24.711-9.127 24.088-28.937.03-27.748-85-12.046-94.4 12.093-4.47 20.493 28.091 39.832 26.838 12.449-.74 15.995-5.798 20.58-10.643 4.021-8.788 9.309-17.483 7.955-27.533.579-9.44-8.01-11.613-13.794-7.333-13.085 12.59-14.701 4.348-41.024-.498z" opacity=".98" stroke-width="7.5"/>
        <path d="M523.394 3.75a71.25 68.75 0 0 0-71.25 68.75 71.25 68.75 0 0 0 71.25 68.75 71.25 68.75 0 0 0 71.251-68.75 71.25 68.75 0 0 0-71.251-68.75zm.132 21.088a16.02 16.02 0 0 1 16.056 16.056v61.838c0 8.895-7.16 16.056-16.056 16.056s-16.058-7.16-16.058-16.056V40.894a16.022 16.022 0 0 1 16.058-16.056z" opacity=".98" stroke-width="7.499700000000001"/>
    </g>
</svg>
