<?xml version="1.0" encoding="UTF-8" standalone="no"?>
<!-- Created by ERK -->

<svg
   version="1.1"
   id="Layer_1"
   x="0px"
   y="0px"
   viewBox="0 0 500 500"
   style="enable-background:new 0 0 500 500;"
   xml:space="preserve"
   sodipodi:docname="vitaquake3-w.svg"
   inkscape:version="1.4 (86a8ad7, 2024-10-11)"
   xmlns:inkscape="http://www.inkscape.org/namespaces/inkscape"
   xmlns:sodipodi="http://sodipodi.sourceforge.net/DTD/sodipodi-0.dtd"
   xmlns="http://www.w3.org/2000/svg"
   xmlns:svg="http://www.w3.org/2000/svg"><defs
   id="defs108" /><sodipodi:namedview
   id="namedview108"
   pagecolor="#ffffff"
   bordercolor="#000000"
   borderopacity="0.25"
   inkscape:showpageshadow="2"
   inkscape:pageopacity="0.0"
   inkscape:pagecheckerboard="true"
   inkscape:deskcolor="#d1d1d1"
   inkscape:zoom="3.698"
   inkscape:cx="250.40562"
   inkscape:cy="250"
   inkscape:window-width="3840"
   inkscape:window-height="2066"
   inkscape:window-x="-11"
   inkscape:window-y="-11"
   inkscape:window-maximized="1"
   inkscape:current-layer="Layer_1" />


<g
   id="g108"
   inkscape:label="QuakeIIIArena"
   style="fill:#ffffff">
	<path
   style="fill-rule:evenodd;clip-rule:evenodd;fill:#ffffff"
   d="M238.586,177.244c0,0,0-0.233-0.233-0.233   c0-0.233,0-0.233-0.233-0.465c-0.467-0.234-1.166-0.234-1.865,0c0,0,0,0.233,0,0.465c-0.7,0.233-1.399,0.466-2.099,0   c-0.233,0-0.7-0.233-0.932-0.233c-0.233-0.7-1.398-0.467-2.098-0.233c0,0-0.234,0-0.234,0.233c-0.233,0-0.7,0-0.932,0   c-0.467-0.233-0.933-0.467-1.399-0.467c-0.699-0.234-1.632,1.632-2.565,2.098c-0.233,0-0.7-2.098-0.933-2.098   c-0.233-0.234-0.466-0.234-0.7-0.234c-0.233,0-0.699,0-0.931,0c-1.4-0.233-2.799-0.233-4.198-0.233   c-0.932-0.233-1.864-0.233-2.565,0c-0.233,0-0.466-0.233-0.466,0l0,0c-0.233,0-0.466,0-0.7,0c-0.233,0-0.466-0.233-0.699-0.233   c-0.233,0-0.233,0-0.233,0c-0.233,0-0.233,0-0.233,0c-0.7-0.233-1.166-0.233-1.866-0.233c-1.166-0.233-2.565-0.233-3.73-0.233   c0,0-0.233,0-0.233,0.233c-0.467,0-0.933,0-1.633-0.233c-0.466,0-0.699,0-1.165-0.233c0,0-0.233-0.234-0.467-0.234   c0,0-0.233,0-0.465,0c-2.332-0.466-4.431-0.699-6.762-0.932c-0.234,0-0.467,0-0.931,0c-1.166-0.233-2.333-0.233-3.499-0.233   c-0.231,0-0.231,0-0.465,0.233c-0.467-0.233-0.7,0.932-0.933,0.932c-0.233-0.233-0.466-1.631-0.7-1.398c0,0,0,0-0.233,0   c-0.234,0-0.699-0.233-1.166-0.233c0,0-0.233,0-0.233-0.233c-0.233-0.234-0.699,0-0.932,0c-0.233,0-0.467,0-0.699,0   c-0.233,0-0.467-0.234-0.7-0.467c-0.233,0-0.233,0.233-0.466,0.233c0,0,0,0,0,0.234c-0.232,0-0.232,0-0.232,0   c-0.701,0-1.166-0.933-1.867-0.933c-1.631-0.466-3.263-0.7-4.895-0.933c-0.932-0.233-1.865-0.465-3.031-0.465   c-0.233,0-0.233,0.233-0.466,0.465c0,0,0,0-0.233,0c-0.7,0-1.633-0.233-2.332-0.699c-0.233,0-0.233,0-0.233,0s0,0-0.233,0l0,0   c-0.7-0.7-1.399-1.166-1.865-1.399c-0.466-0.233-0.931-0.467-1.632-0.467c-0.233,0-0.7-0.233-1.166-0.233c0,0,0,0-0.233,0   c-0.233-0.233-0.7-0.465-0.932-0.7c-0.466,0-0.699-0.233-1.166-0.233c-0.233,0-0.467-0.233-0.7-0.233c-0.233,0-0.466,0-0.699,0l0,0   c-0.467-0.466-0.933-0.933-1.399-1.399c-0.7-0.233-0.934-0.466-1.399-0.699c-0.466,0-0.7,4.197-0.933,4.197   c-0.232,0-0.466-4.43-0.466-4.43c-0.467-0.234-0.467,0-0.7,0c-0.233,0-0.233,0-0.233,0c-0.933-0.699-1.632-1.398-1.399-2.565   c-1.399-1.166-0.933-2.098-0.466-3.03c0.233-0.468,1.398-1.166,1.865-1.632c0.7-0.932,1.632-1.399,2.565-1.865   c0.466-0.466,1.398-0.7,2.098-0.933c1.399-0.466,2.332-1.166,3.73-1.632c1.399-0.466,2.798-0.466,3.964-1.166   c0.466-0.233,1.166-0.466,1.632-0.699c1.632-0.7,3.263-0.466,4.896-0.7c1.399-0.466,2.798-0.699,4.197-0.933   c0.233,0,0.699-0.466,0.699-0.699c0.233-0.233,0.7-0.7,0.233-0.7c0.233-0.233-0.468-0.467-0.468-0.467   c0-0.233-0.465-0.466-0.698-0.233c-0.933,0.233-1.866,0-2.565,0.233c-0.233,0.233-0.467,0.7-0.7,0.467   c-0.933-0.233-1.632,0-2.565,0.466c-0.466,0-1.166-0.233-1.865,0.466c0,0-0.233-0.233-0.467-0.233   c-1.865-0.233-3.73,0.466-5.595,0.932c-0.233,0-0.466,0.933-0.7,0.699c-0.932-0.699-1.632-0.466-2.098,0.467   c-0.233,0-0.233,0-0.233,0h-0.233c-0.233,0-0.466-0.233-0.466-0.233c-1.632-0.233-3.264,0.233-4.43,0.932   c-0.467,0.233,0,0.933-0.233,1.166c-0.467,0-0.7,0-1.166,0c-0.233-0.233-0.466-0.233-0.7-0.233   c-0.932-0.467-1.865,0.466-2.797,1.399c0,0,0,0-0.233,0c-0.233-0.467-0.932-0.467-1.399-0.233   c-2.331,1.165-4.663,2.564-6.294,4.662c-0.468,0.7-0.701,1.166-0.934,2.099c-0.466,0.466,0.466,1.4,0,1.865   c0,0.234-0.233,0.467-0.466,0.467c0,0.932,0.466,1.631,0.699,2.331c0.233,0.699,0.701,1.166,1.166,1.865   c0.232,0.7,0.931,1.166,1.632,1.398c0.466,0.233,0.7,0.467,1.399,0.7c0,0.233,0,0.466,0.234,0.699   c0.466,0.933,1.632,1.399,2.564,2.099c0.699,0.466,1.166,0.699,1.632,1.166c0.466,0.233,0.933,0.233,1.166,0.465   c0.233,0.233,0.466,0.467,0.7,0.467c0.233,0.233,0.466,0.233,0.466,0c0.466,0.233,0.933,0.466,1.399,0.699l0,0   c0.466,0.468,1.166,0.934,1.865,1.166c0,0.233,0.233,0.233,0.233,0.466c0.7,0.234,1.166,0,1.865,0.234h0.233   c0.233,0.233,0.7,0.465,0.933,0.465c0.233,0.233,0.7,0.466,1.166,0.7c0.233,0.233,0.7,0.466,1.166,0.698c0,0,0.233,0,0.466,0.233   c0.699,0.233,1.864,0,2.565,0.467l0,0c0.232,0.233,0.467,0.699,0.698,0.699c0.467,0.233,0.932,0.467,1.166,0.467   c1.866,1.399,4.198,1.633,6.295,2.331c1.166,0.467,2.565,0.233,3.73,0.467c0,0.234,0,0.234,0,0.234   c0.467,0,0.934,0.232,1.398,0.465c0.701,0.233,1.399,0.7,2.1,0.933c2.797,0.7,5.361,1.166,7.926,1.864   c1.866,0.468,3.499,0.468,5.363,0.933c1.166,0.233,2.099,0.7,3.498,0.7c0.466-0.233,1.166-0.7,1.632-0.467   c0.233,0.233,0.467,0.233,0.7,0.467c0.233,0,0.233,0,0.233,0.233c0.233,0,0.233,0,0.466,0c2.565,0.933,5.596,1.399,8.393,1.399   c0.467-0.233,0.933-0.233,1.399-0.466c0.7-0.466,0.932-1.866,1.865-2.099l0.233,0.7c0.232,0.233,0.232,0.233,0.232,0.466   c0,0.233,0,0.467,0.234,0.467c0.233,0.233,0.466,0.7,0.7,0.932h0.233l0.233,0.233c0.933,0.233,1.865,0.467,2.798,0.467   c0.932-0.233,1.632-0.467,2.331-0.233c0.466,0,0.932,0,1.399,0c0,0.233,0.233,0.233,0.233,0.233c0.467,0,0.933,0,1.399,0.466   c0.233,0.466,0.466,0.699,0.7,1.166c0,0.465,0,0.932,0,1.166c0,0.233,0.233,0.465,0.233,0.699c0,0.233,0,0.233,0,0.467   c0,0.466-0.233,0.7-0.233,0.932c0.233,0.233,0.233,0.233,0.466,0.233c0,0.467,0,0.933,0.233,1.632   c-0.233,0.699-0.233,1.399-0.466,2.098l0,0c0,0.466-0.233,0.932-0.233,1.398c0,1.4,0,2.565,0,3.964l0.233,0.233v0.233   c0,0.233,0.233,0.465,0.233,0.465c0.233,0.234,0.233,0.467,0.466,0.7c0,0,0,0.233,0.233,0.233c0,0.233,0.233,0.467,0.233,0.7   c0.233,0.233,0,0.467,0,0.467c-0.233,0.233-0.467,0.466-0.467,0.7c0,0,0,0-0.233,0c-0.233,0-0.233,0.233-0.466,0.699   c0,0.233,0,0.467,0,0.467c-0.233,0.932,0,1.63,0,2.565c0.233,1.632,0.233,3.264,0.466,4.896c0,0.466,0,0.933,0,1.166   c0.233,0.233,0.233,0.233,0.233,0.233c0,1.166,0.233,2.565,0.233,3.73c0,0.699-0.233,1.166,0,1.865l0.233,0.233   c0,0.466,0.233,0.932,0.233,1.399c-0.233,0.233-0.233,0.233-0.233,0.466c0,0.233,0,0.466,0,0.699c0.233,0,0.233,0.233,0.466,0.233   c0,0.467,1.632,0.7,1.865,0.933c0,0.466-1.632,1.166-1.632,1.632h-0.233c0.466,0.699-0.233,1.166,0,1.632c0,0,0,0,0,0.234   c0,0,0,0.233,0,0.466c0,0.699,0,1.399,0.233,2.098c0,0.467,0,0.932,0,1.399c0,1.398,0.233,2.798,0.233,4.197   c0.233,0.465,0.233,0.699,0.233,1.166c0.233,2.798,0.466,5.828,0.932,8.86c0,1.399,0.233,2.565,0.233,3.73l0,0   c0.234,2.098,0.466,4.428,0.933,6.528c0,0.932,0,2.098,0.233,3.03c-0.233,0.234-0.233,0.467-0.233,0.701   c0.233,0.231,0.233,0.698,0.233,0.931c0.233,1.166,0.233,2.331,0.467,3.497c0,1.398,0,2.565,0.466,3.731c0,0.233,0,0.466,0,0.466   c0,0.466,0,0.699,0,0.932c0.233,0,0.233,0,0.233,0.233l-0.233,0.233c0,0.699,0,2.565,0.466,3.264c0,0.233,0.233-1.166,0.466-1.399   c0-0.466,0.233-1.166,0.233-1.632c0.233-0.233,0.233-0.466,0.233-0.7c0.233-1.398,0.467-3.031,0.7-4.428   c0.233-1.633-0.233-3.032,0.233-4.664c0.233-3.264,0.466-6.062,0.7-9.093c-0.7-1.165-0.932-2.564-0.466-3.731l0,0   c0.233-0.232,0.233-0.465,0.233-0.699c0.233-0.233,0.467-0.699,0.467-0.932c0.233-7.694,0.932-15.155,1.166-22.849   c0.233-2.798,0.233-5.363,0-8.161c0,0-0.233,0-0.233-0.233c0-0.233-0.233-0.233-0.233-0.466c-0.233-0.933-0.233-1.866,0-2.565   c0.233-0.466,0.7-1.166,0.7-1.632c0.233-0.933,0.233-1.632,0.233-2.566c-0.233-0.931-1.166-2.097-0.933-3.263   c0.233-0.699,0.7-1.399,0.7-2.098c0.233-1.399,0.466-2.798,0.233-4.196c0-0.7-0.233-1.4-0.233-2.099   c0.233-0.933,0.466-1.633,0.466-2.564c-0.233-1.166,0.467-2.332,0-3.266c-0.466-1.165-0.7-2.33,0-3.496   C238.819,186.103,239.985,181.674,238.586,177.244L238.586,177.244z"
   id="path92"
   inkscape:label="logo1" />
	<path
   style="fill-rule:evenodd;clip-rule:evenodd;fill:#ffffff"
   d="M257.005,177.011c0.233-2.332,0.467-4.663,0.467-6.995   c0-1.399-0.467-2.798-0.467-4.197c0.233-1.631,0.233-3.263,0-4.896v-0.233v-0.233c0-0.233-0.233-0.699-0.233-1.166   c-0.233-0.466-0.233-1.166,0-1.865c0-0.466,0.233-1.399,0.233-2.099c0-0.466,0-0.932-0.233-1.398c0-0.233,0-0.467,0-0.7   c0-0.233-0.233-0.233-0.233-0.466c0,0,0,0,0-0.233c0-1.632,0.467-3.032,0.233-4.663c-0.233-5.596-0.465-10.958-0.699-16.32   c-0.234-1.633-0.934-3.032-0.7-4.662c0.233-0.934,0-1.633,0-2.333c0-1.398-0.233-2.565-0.465-3.73   c-0.233-3.964,0.232-7.461-0.467-11.424c-0.233-0.465-0.233-0.932-0.467-1.399c0-0.932-0.232-1.631-0.465-2.332   c0-0.931,0.465-1.864,0.233-2.797c0-0.233-1.166-0.465-1.166-0.699c0-0.467,0.933-0.7,0.933-0.932   c-0.233-1.866,0-3.964-0.467-6.062c0-0.233,0-0.233,0-0.466c-0.234-0.7-0.234-1.399-0.466-2.098   c-0.231-0.234-0.465-2.799-0.933-2.799c-0.465-0.233-0.7,2.565-0.7,2.799c0,0.699-0.233,1.398-0.233,2.098   c-0.699,3.031-0.467,6.062-0.699,9.093c0,0.465,0,0.699-0.232,1.166c0,0.465,0,1.166-0.234,1.632   c-0.234,0.933-0.234,2.099-0.467,3.031c-0.233,2.565,0.233,4.896-0.233,7.461c0,0.233,0,0.233,0,0.233   c0,0.467-0.233,0.7-0.233,0.932c0,0.7,0,1.166,0.233,1.866c0,0.699,0,1.166,0,1.632c-0.233,0.232-0.233,0.232-0.466,0.465   c0,0.233,0,0.467,0,0.933c0,0,0,0.233,0,0.467c-0.467,2.33,0.233,4.43,0,6.528c0,0.466-0.233,0.933-0.233,1.399   c-0.233,0-0.233,0.233-0.233,0.233c0,0.233,0.933,2.098,1.166,2.331h-1.166c0,0.233-0.466,0-0.466,0   c0,0.699,0.466,0.466,0.233,0.932c-0.233,1.165-0.699,2.331-0.233,3.73c0.233,0.933,0,1.865,0,2.798l0,0c0,0.233,0,0.466,0,0.699   c-0.466,3.265-1.166,6.529-0.7,9.792c0.234,0.933,0.234,1.866,0,2.565c0,0.233,0,0.467,0,0.699c-0.233,0.233-0.233,0.466,0,0.7   c0,1.166,0,2.099-0.233,3.031c-0.233,0.932-0.465,1.864-0.233,2.798c0.233,2.098,0.466,4.196,0.233,6.527   c0,0.7-0.233,1.632-0.465,2.332c-0.233,7.461-0.233,14.922,0,22.382c0.465,4.662,0,9.559,0.465,14.222   c0.467,5.363,0,10.725,0.233,16.088c0.467,6.994,0.7,13.989,1.166,20.75c0,1.4,0.7,2.565,0.467,3.73   c-0.233,1.166-0.467,2.565,0,3.73c0,0.233,0.699,0.233,0.699,0.467c0,0,0.701,0,0.933,0.233l-1.398,0.933   c0.233,1.165,0.233,2.33,0.233,3.264c0,0.233,0.233,0.7,0.233,0.933c0,0.465,0,0.933,0.233,1.166   c0.234,2.331-0.233,4.429,0.234,6.761c0,0.233,0,0.466,0,0.466c0.234,1.166,0.234,2.331,0.234,3.498   c-0.234,0.932-0.234,2.098,0,3.264c0,1.166,0.232,2.331,0.698,3.263c0,0.467,0,0.699,0,1.166c0.233,0,0.233,0,0.233,0   c0.233,1.398-0.467,2.565-0.233,3.963c0,0.233,0,0.7,0.233,0.933c0,0.7,0.233,3.73,0.932,3.964   c0.468,0.233,1.166-2.565,0.933-3.264c0,0,0-0.233,0-0.466c0.466-1.166,0.7-2.099,0.233-3.264c0-0.233,0-0.699-0.233-0.933   c0.233,0,0.233,0,0.233-0.233c-0.233,0-0.233,0-0.233,0c0-0.233,0-0.699,0.233-0.932v-0.233c0-0.233,0-0.233,0.234-0.233   c0.233-0.467,0.233-1.166,0.467-1.632c0-0.233,0-0.233,0-0.233c0.465-1.399-0.233-2.798,0.233-4.197   c0.465-2.565,0.465-4.663,0.699-7.228c0-0.465-0.233-0.932-0.233-1.398l0,0c0.233-0.466,0.233-0.699,0.233-0.933   c0.699-2.33,0.932-4.429,0.467-6.528c0-0.931-0.467-1.631-0.233-2.332c0-0.931,0.465-1.632,0.465-2.797   c0.467-2.098,0-4.195,0.233-6.528c0-0.699,0.466-1.631,0.466-2.331c0.234-4.662,0.933-8.86,0.7-13.522c0-0.7-0.232-1.632,0-2.331   c0-0.7,0-1.632,0.233-2.332c0.233-0.7,0.233-1.398,0.233-2.099c-0.233-0.698-0.467-1.398-0.467-2.098   c0.467-1.633-1.864-2.798-2.098-4.43c0-0.233,2.565-0.467,2.565-0.7c0,0,0,0-0.233,0c0-0.233,0-0.466,0-0.699   c0-0.466-0.233-1.166,0-1.632c0.7-3.498,0.467-6.528,0.233-9.793c0-0.233,0-0.233,0-0.233c0-0.233,0-0.233,0-0.466   c0-1.865-0.233-3.963,0-6.063c0.233-0.931,0.233-2.097,0.233-3.029c0-2.099,0-4.431-0.233-6.528c0.233-0.233,0.233-0.467,0-0.467   c0-0.465-0.932-0.932-0.932-1.399c0-0.233,1.399-0.699,1.166-0.932c-0.233,0-0.233-0.233-0.233-0.233   C257.005,179.809,257.005,178.41,257.005,177.011L257.005,177.011z"
   id="path93"
   inkscape:label="logo2" />
	<path
   style="fill-rule:evenodd;clip-rule:evenodd;fill:#ffffff"
   d="M356.327,160.691c0-0.467-0.933-0.467-0.933-0.699   c0.233-1.865-0.932-3.031-2.33-3.964c-0.468,0-0.933,0-1.4-0.233c-0.233-0.233-0.233-0.699-0.699-1.166   c-0.7-0.466-1.166-0.233-1.632,0.233c-0.233,0-0.467,0-0.467,0c-0.699-0.233-1.399,0-1.399-0.699c-0.233,0,0.467-0.7,0-0.933   c-0.699-0.233-1.631-0.699-2.33-0.932c-0.467,0-0.933-0.466-1.166,0l-0.233,0.233c-0.233,0-0.699,0.233-1.166,0.233   c0-0.233,0-0.233-0.233-0.233c0-0.7-0.233-1.399-0.699-1.166c-0.467,0-0.7,0.466-1.166,0.466h-0.233   c-0.699-0.466-0.699-1.166-1.4-1.399c-2.097-0.699-4.197-0.466-6.294-1.166c-0.932-0.233-1.864-0.233-2.798-0.466   c-0.465,0-0.699-0.233-0.933-0.233c-0.931-0.466-1.864-0.233-2.564,0.233v0.233c-0.233,0-0.699,0.233-0.932,0.233l0,0   c0.465-0.233,0-0.699-0.234-1.166c-0.466-0.233-0.931-0.233-1.398-0.233c-0.233,0.233-0.467,0.466-0.467,0.7c0,0-0.232,0-0.465,0   c-0.233,0.233-0.467,0.233-0.467,0.466c0.233,0.466,0.467,0.7,0.7,0.7c0.699,0.467,1.398-0.233,2.097,0   c0.468,0.233,0.933,0.699,1.401,0.933c1.632,0.233,3.029,1.166,4.428,0.932c0.7,0,1.166-0.466,1.866,0   c0.699,0.233,0.932,0.933,1.399,1.166c3.031,1.166,5.827,2.332,8.626,4.197c1.399,0.932,2.564,2.564,1.865,4.43   c-0.933,2.331-3.264,3.73-5.596,4.896c-0.466,0.233-0.931,0.932-1.398,1.4c-0.466,0.465-1.166,0.698-1.865,0.931h-0.233   c0-0.233-0.233-0.466-0.467-0.466c-0.468,0-0.932,0-1.399,0.233c-0.233,0-0.699,0-0.932,0.233c-1.866,0.467-3.73,0.933-5.597,1.866   c-0.232,0-0.465,0-0.697,0c-0.234,0-0.701,0-0.933,0c-0.468,0-0.7,0.233-1.166,0.233c-0.466,0.466-0.933,0.7-1.632,0.933l0,0   c0-0.233-0.233-0.233-0.233-0.233c-0.467-0.233-0.932,0-1.399,0.233c-0.233,0-0.466,0-0.699,0c-0.467,0.233-0.7,0.699-0.934,0.699   c-0.465,0-0.698,0-0.932,0l0,0c-0.466,0-0.932,0.233-1.399,0.233v-0.233c-2.33,0-4.663,0.7-6.994,0.933c0,0,0,0,0,0.233   c-0.7,0-0.933,1.166-1.633,1.4c-0.233,0.233-0.699-0.933-0.932-0.7c0-0.233-0.233-0.233-0.233-0.233   c-0.233-0.467-0.7,0-0.933,0.233l0,0c-0.233,0-0.466,0-0.7,0c-0.233-0.233-0.466-0.233-0.699-0.233c-0.233,0-0.467,0-0.7,0   c-0.233,0-0.699,0-0.932,0c-1.399,0.233-2.797,0.466-4.196,0.699c-0.233,0-0.233,0-0.467,0c-0.233,0-0.233,0.234-0.233,0.234   c-0.467,0.233-0.7,0.233-1.166,0.233c-0.233,0.233-0.467,0.233-0.7,0.233c-0.233-0.233-0.699-0.466-1.166-0.233   c-0.233,0-0.233,0.233-0.233,0.233c-0.466,0-0.699,0-1.166,0h-0.233l-0.233-0.233c-0.699,0-1.165,0-1.632,0c-0.233,0-0.7,0-1.166,0   c-0.933,0-2.098,0-3.031,0.233c-1.399,0.233-2.332,1.166-3.73,1.166c-0.233,0-0.233,0-0.467-0.234c0-0.234,0-0.234-0.233-0.466   c-0.699-0.233-1.166,0.233-1.864,0.466c-0.467,0.234-0.933,0.234-1.166,0.467c-0.467,0-0.7,0-1.166,0c0-0.233,0-0.467-0.233-0.467   c-0.467-0.234-0.933-0.234-1.633,0c-0.233-0.234-0.465-0.234-0.699,0c-3.498,0.234-6.761,0-10.258,0l0,0   c-0.466,0-0.7,0-1.166,0.234c-0.233,0.233,0.7,0.931,0.7,0.931c-0.234,0.234-1.166,0-1.166,0.234   c-0.467,2.564-0.467,4.895-0.467,7.226c0.233,1.867,0.7,3.965,0.467,5.83c0,3.263,0.699,6.528,0.233,10.024   c0,0.468-0.233,0.934-0.233,1.4c0.233,0.699,0.467,1.166,0.467,1.632c0.465,2.565-0.467,5.129,0,7.459   c0,0.934,0.465,1.867,0.465,2.8c-0.465,3.263-0.233,6.528-0.233,9.791c0,0.467,0.233,0.933,0.233,1.632   c0.468,0.932-0.233,1.865,0,2.798c0,0.233,0.234,0.465,0.234,0.699c0.466,1.166,0.466,2.331,0.466,3.497   c-0.466,0.934-0.7,1.633-0.7,2.565c0.468,1.166,0.468,2.332,0.933,3.265c0.466,1.166,0.466,2.565,0.233,3.73   c0,0.465-0.233,0.932-0.233,1.399c-0.699,5.362,0.699,10.258,0.932,15.388c0,0.465-0.233,1.398-0.233,2.098   c0.467,1.632,0,3.03,0.699,4.663c0,0.233,0.233,0.7,0.467,0.933c0,0.233,0.233,0.466,0.233,0.466c0,0.233,0,0.467,0,0.467   c-0.233,0.233-0.233,0.699-0.467,0.932c-0.233,0.233-0.233,0.699,0,1.165c0,0.234,0,0.468,0.233,0.934c0,0,0,0,0,0.233   c0,0.467-0.467,0.933-0.233,1.399c0,0.233,0,0.233,0.233,0.467c0,0.466,0,1.865,0.233,2.098c0.233,0.467,0.233,1.865,0.466,1.865   c0.933,0,0.933-3.264,0.699-4.196c0.234-0.466,0-0.933,0-1.632c0.234,0,0.234-0.233,0.234-0.466c0-0.466,0-0.7-0.234-0.932   c0-0.233,0.234-0.465,0.234-0.7c-0.234-0.233-0.467-0.699-0.467-0.933c0.233,0,0.233,0,0.467,0c0-0.233,0.465-0.233,0.465-0.466   c0-0.699,0.234-1.399,0.234-2.098c0-0.933-0.234-1.865,0-2.798c0,0,0.233-0.233,0.233-0.467c0-0.233,0-0.467-0.233-0.467   c0.233-0.465,0.233-0.699,0-1.165c0-0.466,0-0.933,0-1.398l0,0c0.233,0,0.467,0,0.467-0.233c0.233-0.467,0.466-0.933,0.466-1.632   c0.233-0.233,0.233-0.699,0.233-1.399c0-0.699-0.699-1.399-0.465-2.33c0.233-0.233,0.465-0.467,0.699-0.933c0-0.468,0-0.7,0-1.166   c0-0.233,0-0.7,0-0.934c0-0.465,0-0.699,0-1.166c0.233-0.465,0.233-0.932,0-1.631c0-0.233,0.233-0.7,0.233-0.934l0.233-0.232   c0-0.467,0-0.699,0-1.167c0-0.465,0.233-1.166,0.233-1.631c0,0,0,0,0-0.233c0.233-0.7,0.233-1.399,0.466-2.098   c0-0.467,0.234-0.934,0.234-1.399c0.233-1.399-0.234-2.332-0.467-3.73c-0.233-0.467,0-0.934,0.233-1.632l0,0   c0.467-0.699,0.7-1.399,0.7-1.866v-0.233c0.233-0.466,0.233-0.933,0-1.398c0-0.467,0-0.934,0-1.166c0-0.233,0-0.233-0.233-0.233   c-0.233-0.933-0.467-1.632-0.467-2.332c0-0.466,0.234-0.932,0.467-1.398c0.233,0,0.699-0.233,0.699-0.467   c0-0.466,0-0.7,0.233-0.932v-0.233c0-0.233,0-0.467,0-0.699c0-0.7,0-1.166-0.233-1.632l0,0c-0.233-0.234-0.233-0.467-0.233-0.7   c-0.233-0.233-0.233-0.466,0-0.933l0.233,0.233c0-0.467,0.233-0.933,0.233-1.399c0.233-0.932,0.467-1.865,0.467-2.798   c0-1.398,0-2.565,0-3.963c-0.233-0.466-0.233-1.166,0-1.632c0.233-0.7,0.233-1.166,0.233-1.865c0.233-0.466,0.233-0.7,0.233-1.166   c0.233-1.866-0.233-3.498-0.233-5.129c0.233-0.233,0.233-0.466,0.233-0.699c0-0.934,0-1.632,0-2.332l0,0   c0.233-0.467,0.233-0.932,0-1.166c0-0.466-0.233-0.932-0.233-1.398c-0.233-0.467,0-0.932,0.233-1.399c0-0.466,0-0.699,0-0.932   c0.233-0.467,0.233-0.701,0-1.166l0,0c0-0.233,0-0.467,0-0.933c0,0,0.233-0.233,0-0.466V191.7c0-0.233,0-0.699,0.233-0.932   c0-0.467,0.467-0.467,0.7-0.467c2.332,0,4.43,0.233,6.994,0c0.234-0.233,0.467-0.233,0.933-0.466c1.632-0.7,3.031,0.466,4.663,0   c0.699,0,1.632-0.233,2.331-0.233c3.496-0.7,6.528-0.7,10.024-1.632c0.234,0,0.234,0,0.467-0.233l0,0c0,0,0,0,0.233,0l0.233-0.233   c0.468-0.233,0.933-0.465,1.166-0.699c0-0.234-0.233-0.467,0-0.467c0-0.233,0-0.233,0.233-0.466c0-0.233,0-0.233,0.233-0.466   c0-0.233-0.699-0.7-0.699-1.166c0.233,0,0.466-1.166,0.466-1.632c0,0.233,0.933,0.932,0.933,1.399   c-0.233,0.467-0.233,1.166,0,1.632c0.233,0.931,1.166,1.399,1.399,1.399c2.098,0.465,3.731-0.7,5.595-1.166   c0.466,0,0.699-0.233,1.165-0.233c0.7-0.467,1.4-0.467,2.099-0.701c0.233,0,0.466-0.232,0.466-0.232c0.233,0,0.233,0,0.233,0   c0.233,0,0.233,0,0.467-0.233c0.699-0.233,1.399-0.233,2.331-0.467c0,0,0,0,0.234,0l0,0c1.165-0.233,2.33-0.233,3.496-0.467   c0.467-0.232,0.932-0.465,1.166-0.699c0.233,0,0.467,0,0.7,0c0.233,0,0.465-0.467,0.465-0.699c0,0,0,0,0-0.233   c0.233,0,0.233,0,0.466,0c0.7-0.467,1.401,0.233,2.332,0c0.467,0,1.166-0.467,1.632-0.7c0.699-0.233,1.166-0.698,1.633-1.166   c0.465-0.233,0.699-0.233,0.932-0.466c1.166-0.233,2.098-0.233,3.029-0.466c0.468,0,0.701-0.233,0.934-0.467   c0.465,0,0.699-0.233,1.166-0.465c0.233,0,0.466-0.233,0.466-0.466c0.233-0.234,0.699,0.233,0.934,0   c0.232,0,0.465-0.234,0.697-0.468c0.701,0,1.166-0.465,1.867-1.166c0.233,0,0.465-0.233,0.699-0.233c0.233,0,0.233,0,0.467,0   c0-0.233,0-0.233,0-0.233c0.932-0.233,1.632-0.466,2.565-0.7c0-0.234,0.233-0.234,0.233-0.234c0.699-0.233,1.399-0.699,1.866-1.398   c0-0.233,0.233-0.466,0.233-0.7c0,0,0,0,0.233,0c0.465,0,1.166-0.233,1.632-0.467c0.233,0,0.233,0,0.233,0   c1.632-0.699,3.032-1.864,4.198-3.263c0.233-0.233,0.233-0.467,0.233-0.7c0-0.233,0-0.233,0-0.233c0.233-0.233,0-1.632,0.233-1.866   c0-0.466,1.166,0.467,1.865,0.233c0.933,0,0-1.166,0.233-1.632c0-0.465,0.467-0.465,0.932-0.465   c0.233-0.233,0.233-0.467,0.233-0.467C357.026,162.557,356.793,161.624,356.327,160.691L356.327,160.691z M333.478,150.2h0.233   H333.478L333.478,150.2z"
   id="path94"
   inkscape:label="logo3" />
	<path
   style="fill-rule:evenodd;clip-rule:evenodd;fill:#ffffff"
   d="M312.028,147.168c3.498,0.466,6.763,1.399,10.259,1.632   c0.467,0,0.7-0.933,0.233-0.933c-1.166-0.7-2.565-0.466-3.964-0.7c-2.798-0.466-5.129-0.932-7.695-0.466   C311.096,147.168,311.562,146.935,312.028,147.168L312.028,147.168z"
   id="path95"
   inkscape:label="logo4" />
	<path
   style="fill-rule:evenodd;clip-rule:evenodd;fill:#ffffff"
   d="M59.527,363.531v6.295c0,0.233-0.233,0.934-0.233,1.632   c-0.233,0.699-0.467,1.166-0.467,1.632c-0.465,1.864-0.932,5.129-2.331,13.989c-3.264-15.155-3.731-16.32-3.964-17.021v-6.528   c-9.558-1.399-17.486-8.393-20.983-17.486c-3.498-9.326-0.933-21.45,5.129-28.211c2.331-2.799,6.062-4.664,8.86-5.83   c-5.83,3.73-14.223,12.823-11.658,25.647c1.399,7.694,8.161,14.688,14.921,16.321c0.233,0.233,2.099,0.932,3.73,1.166v-6.529   c0-0.932,0-1.864,0-2.098c-0.232-1.399-0.465-2.099-2.098-2.331c0.7-0.466,4.197-0.699,5.363-0.699   c1.166,0,4.896,0.233,6.062,0.699c-1.632,0.466-1.864,1.399-2.098,2.331c0,0.233-0.233,1.165-0.233,2.332v6.295   c2.098-0.233,3.964-1.166,3.964-1.166c6.762-1.633,13.522-8.627,14.921-16.321c2.565-12.823-6.295-21.916-12.123-25.88   c3.029,1.166,6.76,3.264,9.325,6.063c6.062,6.76,8.627,18.885,5.129,28.211C77.479,355.138,69.318,362.132,59.527,363.531   L59.527,363.531z"
   id="path96"
   inkscape:label="Q" />
	<path
   style="fill-rule:evenodd;clip-rule:evenodd;fill:#ffffff"
   d="M148.125,314.336c-0.234,0.699,0,1.632,0,2.333v0.233l0,0   l-0.234,29.144c0,4.196-1.166,7.227-2.565,9.326c-0.699,1.166-1.865,2.332-2.798,3.264c-1.399,1.166-3.031,2.331-4.663,3.264   c-2.099,1.166-5.13,1.398-9.092,1.632l0,0c7.226-0.699,10.025-7.461,10.025-7.461c0.933-1.632,0.933-5.129,0.933-5.129v-34.039   c0-3.498-1.399-5.13-2.798-5.595h13.522C148.357,312.705,148.823,312.705,148.125,314.336L148.125,314.336z M109.888,358.635   c-0.233-0.233-5.596-5.363-5.596-12.59v-29.144v-0.233c0-0.7,0-1.866-0.233-2.565c-0.233-1.166,0-1.399-1.865-2.797h12.823   c-1.632,1.398-3.031,2.331-2.565,5.595v33.34c0,0.233,0.233,3.731,0.932,5.829c0,0,3.031,6.762,10.025,7.227h0.233   C115.25,363.065,111.752,360.733,109.888,358.635L109.888,358.635z"
   id="path97"
   inkscape:label="U" />
	<path
   style="fill-rule:evenodd;clip-rule:evenodd;fill:#ffffff"
   d="M201.514,362.832h-0.233c2.798-0.233,2.798-3.265,2.798-3.73   c-0.699-1.632-1.632-4.431-3.03-6.995c-1.166-2.565-3.031-5.129-5.129-5.595c-0.233,0-1.166,0-1.866-0.233   c-0.698,0-1.632,0-1.632,0c-0.465,0-0.699,0-0.699,0c-0.7-0.233-0.7-0.233-0.932-0.233c0,0,0.932-0.466,1.166-0.699   c2.098-0.466,5.13-1.398,3.497-4.896c-1.166-2.332-2.565-5.829-3.964-9.093c-1.166-3.264-2.565-5.595-3.496-6.062   c-0.234-0.233-0.934,0.233-1.4,1.166c-0.233,0.466-0.7,1.632-1.166,2.565c-1.165,2.331-2.564,4.896-3.031,6.295   c-0.233,0.466-0.699,1.399-1.167,2.331c-0.465,1.166-0.931,2.331-1.164,3.263c-0.466,2.332,0,4.664,3.264,4.664   c0.699,0,0.699,0.233,1.399,0.466c-0.7,0.233-0.7,0.233-1.399,0.233c-2.565,0-4.43,0.466-5.362,1.165   c-0.7,0.233-1.166,0.7-1.632,1.399c0,0-2.099,3.263-3.731,8.626l-0.233,2.098c0.233,1.866,1.865,3.032,2.565,3.265h-11.89   c3.264-2.099,6.528-6.528,9.092-10.726c2.565-4.663,4.43-8.86,4.43-8.86c3.73-7.927,5.595-12.357,5.595-12.357   c2.332-5.129,4.198-10.026,4.198-10.026l4.196-10.491l9.792,22.848c0.7,1.865,1.399,3.031,1.399,3.263   c0.233,0.234,1.865,3.965,3.73,7.928c1.866,3.964,3.964,8.627,5.129,10.958c1.865,4.196,5.596,6.528,7.694,7.461H201.514   L201.514,362.832z"
   id="path98"
   inkscape:label="A" />
	<path
   style="fill-rule:evenodd;clip-rule:evenodd;fill:#ffffff"
   d="M283.584,312.004c-5.595,7.228-11.191,14.456-17.02,22.15   c4.663,2.098,17.253,9.559,15.621,29.843h-0.699c-1.632-17.719-23.081-26.113-26.579-27.278l0.699-0.467l31.01-28.677   C285.216,310.14,284.517,310.84,283.584,312.004L283.584,312.004z M246.746,340.449c-0.466,0.932-0.932,1.865-0.932,2.797   c-0.233,0.233-0.233,0.233-0.233,0.233v13.756c0,3.73,2.798,5.363,3.497,5.596v-0.233h-15.155c2.565-0.932,2.798-1.865,3.264-3.032   c0.466-0.465,0.466-1.166,0.466-1.632c0.233-0.466,0.233-0.466,0.233-0.699v-40.567c0-3.731-2.331-5.362-3.031-5.596h14.222   c-2.098,0.932-2.565,2.331-3.03,4.43c-0.233,0.466-0.233,0.699-0.233,0.933v14.222c0,3.73,3.73,5.129,6.53,6.062   C249.311,337.651,247.678,339.05,246.746,340.449L246.746,340.449z"
   id="path99"
   inkscape:label="K" />
	<path
   style="fill-rule:evenodd;clip-rule:evenodd;fill:#ffffff"
   d="M328.814,310.84h17.487v16.319   C343.736,316.669,333.012,312.004,328.814,310.84L328.814,310.84z M340.473,361.899c-0.233,0.233-2.798,0.699-9.093,0.699l0,0   c8.161-0.932,15.388-13.523,17.486-18.186v19.118C345.602,360.034,340.706,361.899,340.473,361.899L340.473,361.899z    M312.495,357.236c0,0-0.467-0.467-0.933-0.932c-2.331-2.565-4.43-6.062-4.43-9.326v-30.309c-0.233-0.467-0.932-3.731-5.362-5.829   h17.486c-1.632,0.699-4.196,2.797-4.196,6.062v14.455c0,2.798,1.399,3.964,1.632,4.197c0.699,0.466,4.43,0.931,6.994,1.166   c-4.43,0.466-6.994,1.865-6.994,2.098c-0.933,0.7-1.398,2.098-1.632,3.264c0,0.466,0.233,0.466,0.233,0.466h-0.233v4.43   c0,0,0,3.73,1.166,7.694c0.233,0.699,3.497,7.228,9.792,7.927l0,0C318.323,362.365,314.36,359.102,312.495,357.236L312.495,357.236   z"
   id="path100"
   inkscape:label="E" />
	<path
   style="fill-rule:evenodd;clip-rule:evenodd;fill:#ffffff"
   d="M404.355,362.832l-14.455,0.233   c3.963-1.632,3.731-5.129,3.731-5.595v-41.034c0.232-3.265-1.399-4.664-3.731-5.595h15.155c-2.333,0.931-2.798,2.33-3.498,4.43   c-0.233,0.465-0.233,0.699-0.233,0.932v41.268c0,3.031,2.099,4.896,3.732,5.595L404.355,362.832L404.355,362.832z"
   id="path101"
   inkscape:label="I" />
	<path
   style="fill-rule:evenodd;clip-rule:evenodd;fill:#ffffff"
   d="M439.328,362.832l-14.455,0.233   c3.964-1.632,3.73-5.129,3.964-5.595v-41.034c0-3.265-1.634-4.664-3.964-5.595h15.155c-2.099,0.931-2.798,2.33-3.497,4.43   c0,0.465,0,0.699-0.233,0.932l0.233,41.268c0,3.031,1.865,4.896,3.497,5.595L439.328,362.832L439.328,362.832z"
   id="path102"
   inkscape:label="I" />
	<path
   style="fill-rule:evenodd;clip-rule:evenodd;fill:#ffffff"
   d="M474.533,362.832l-14.454,0.233   c3.964-1.632,3.73-5.129,3.73-5.595v-41.034c0-3.265-1.398-4.664-3.73-5.595H475c-2.098,0.931-2.565,2.33-3.263,4.43   c-0.233,0.465-0.233,0.699-0.233,0.932v41.268c0,3.031,1.864,4.896,3.497,5.595L474.533,362.832L474.533,362.832z"
   id="path103"
   inkscape:label="I" />
	<path
   style="fill-rule:evenodd;clip-rule:evenodd;fill:#ffffff"
   d="M176.102,405.031L176.102,405.031   c0.933-0.233,0.933-1.398,0.933-1.631c-0.233-0.467-0.466-1.632-1.166-2.798c-0.465-0.932-1.166-1.865-2.098-2.099   c0,0-0.466,0-0.699,0c-0.234-0.233-0.7-0.233-0.7-0.233c-0.233,0-0.233,0-0.233,0c-0.233,0-0.233,0-0.466,0l0.466-0.233   c0.933-0.233,2.099-0.466,1.399-2.098c-0.233-0.933-0.932-2.332-1.399-3.498c-0.699-1.399-1.166-2.332-1.397-2.565   c-0.235,0-0.467,0.233-0.701,0.466c0,0.233-0.233,0.7-0.467,1.166c-0.466,0.933-0.932,1.866-1.166,2.565   c0,0-0.233,0.467-0.467,0.933c-0.232,0.233-0.232,0.7-0.465,1.166c-0.233,0.933,0,1.865,1.399,1.865   c0.233,0,0.233,0.233,0.466,0.233c-0.233,0-0.233,0-0.466,0c-1.166,0-1.865,0.233-2.331,0.466   c-0.233,0.233-0.467,0.466-0.467,0.699c0,0-0.932,1.166-1.632,3.497v0.699c0,0.7,0.7,1.166,0.932,1.398h-4.662   c1.398-0.932,2.564-2.797,3.497-4.429c1.166-1.865,1.865-3.497,1.865-3.497c1.632-3.265,2.331-4.897,2.331-4.897   c0.933-2.099,1.632-3.964,1.632-3.964l1.632-4.196l3.964,9.092c0.233,0.699,0.466,1.166,0.466,1.4c0.234,0,0.933,1.399,1.633,3.031   c0.698,1.632,1.631,3.497,1.864,4.43c0.933,1.632,2.331,2.565,3.264,3.03H176.102L176.102,405.031z"
   id="path104"
   inkscape:label="A" />
	<path
   style="fill-rule:evenodd;clip-rule:evenodd;fill:#ffffff"
   d="M210.375,394.54c-0.233-0.233-0.233-0.233-0.699-0.233h-0.933   c3.498-1.166,5.596-3.032,5.596-5.129c0-2.098-1.4-4.197-4.897-4.663c1.166-0.233,1.399-0.233,1.632-0.233c0.233,0,0.233,0,0.465,0   c5.129,0,8.394,6.295,3.031,9.326c2.565,1.166,6.062,4.43,5.829,12.59C218.302,397.105,210.841,394.54,210.375,394.54   L210.375,394.54z M205.945,386.379v5.595c0,1.4,1.632,1.865,2.565,2.099c-1.166,0.467-1.866,0.933-2.099,1.632   c-0.233,0.233-0.465,0.699-0.465,0.932c0,0.233,0,0.233,0,0.233v5.363c0,1.166,0.931,1.632,1.165,1.632v0.466h-6.528   c2.331-0.932,2.331-2.098,2.331-2.098v-15.855c0-1.399-0.699-1.632-1.166-1.864v-0.233h6.995   C206.411,384.98,206.178,386.146,205.945,386.379L205.945,386.379z"
   id="path105"
   inkscape:label="R" />
	<path
   style="fill-rule:evenodd;clip-rule:evenodd;fill:#ffffff"
   d="M251.177,384.281h6.994v6.295   C257.005,386.613,252.808,384.747,251.177,384.281L251.177,384.281z M255.838,404.565c-0.233,0-1.165,0.465-3.729,0.465v-0.233   c3.263-0.233,6.061-5.362,6.993-7.227v7.693C257.937,403.866,255.838,404.565,255.838,404.565L255.838,404.565z M244.648,402.7   c-0.233,0-0.233,0-0.468-0.234c-0.931-1.165-1.864-2.564-1.864-3.73v-12.124c0-0.233-0.233-1.633-2.099-2.331h6.995   c-0.467,0.233-1.632,0.932-1.632,2.331v5.829c0,1.166,0.699,1.632,0.699,1.632c0.233,0.233,1.865,0.467,2.797,0.467   c-1.864,0.233-2.797,0.699-2.797,0.933c-0.466,0.233-0.699,0.699-0.699,1.165c0,0.233,0,0.233,0,0.233l0,0v1.865   c0,0,0,1.399,0.467,3.031c0,0.233,1.398,2.798,3.963,3.031l0,0C246.98,404.798,245.347,403.632,244.648,402.7L244.648,402.7z"
   id="path106"
   inkscape:label="E" />
	<path
   style="fill-rule:evenodd;clip-rule:evenodd;fill:#ffffff"
   d="M296.641,385.68c0,0.233-0.233,0.699-0.233,0.932v20.051   l-14.222-17.486V402.7c0,1.398,0.933,1.865,1.399,1.865v0.465h-3.964v-0.465c0.7,0,1.165-0.933,1.165-1.632   c0-0.233,0-0.233,0-0.233v-16.088c0,0,0-1.865-1.165-2.098v-0.233h6.528c-1.632,0.699-1.632,1.399-1.399,1.632l10.258,12.823   v-12.124c0-1.166-1.864-1.865-3.03-2.331h5.595v0.233C297.107,384.747,296.873,385.214,296.641,385.68L296.641,385.68z"
   id="path107"
   inkscape:label="N" />
	<path
   style="fill-rule:evenodd;clip-rule:evenodd;fill:#ffffff"
   d="M333.012,405.031h-0.233c1.166-0.233,1.166-1.398,1.166-1.631   c-0.233-0.467-0.699-1.632-1.166-2.798c-0.467-0.932-1.166-1.865-2.098-2.099c0,0-0.467,0-0.7,0   c-0.233-0.233-0.699-0.233-0.699-0.233c-0.234,0-0.234,0-0.234,0c-0.234,0-0.234,0-0.467,0l0.467-0.233   c0.932-0.233,2.098-0.466,1.399-2.098c-0.467-0.933-0.934-2.332-1.399-3.498c-0.7-1.399-1.165-2.332-1.399-2.565   c-0.233,0-0.468,0.233-0.699,0.466c0,0.233-0.233,0.7-0.465,1.166c-0.468,0.933-0.933,1.866-1.166,2.565   c-0.234,0-0.234,0.467-0.467,0.933c-0.233,0.233-0.466,0.7-0.466,1.166c-0.233,0.933,0,1.865,1.398,1.865   c0.233,0,0.233,0.233,0.467,0.233c-0.233,0-0.233,0-0.467,0c-1.166,0-1.864,0.233-2.331,0.466   c-0.233,0.233-0.465,0.466-0.465,0.699c0,0-0.934,1.166-1.632,3.497v0.699c0,0.7,0.699,1.166,0.932,1.398h-4.896   c1.4-0.932,2.798-2.797,3.73-4.429c1.166-1.865,1.866-3.497,1.866-3.497c1.398-3.265,2.097-4.897,2.097-4.897   c0.933-2.099,1.866-3.964,1.866-3.964l1.632-4.196l3.964,9.092c0.234,0.699,0.467,1.166,0.467,1.4c0.233,0,0.699,1.399,1.63,3.031   c0.701,1.632,1.4,3.497,1.867,4.43c0.932,1.632,2.33,2.565,3.032,3.03H333.012L333.012,405.031z"
   id="path108"
   inkscape:label="A" />
</g>
</svg>
