<?xml version="1.0" encoding="UTF-8" standalone="no"?>
<!-- Created by ERK -->

<svg
   height="180"
   viewBox="0 0 1217.999 521.99872"
   width="420"
   version="1.1"
   id="svg7"
   sodipodi:docname="vpinball.svg"
   inkscape:version="1.4 (86a8ad7, 2024-10-11)"
   xmlns:inkscape="http://www.inkscape.org/namespaces/inkscape"
   xmlns:sodipodi="http://sodipodi.sourceforge.net/DTD/sodipodi-0.dtd"
   xmlns="http://www.w3.org/2000/svg"
   xmlns:svg="http://www.w3.org/2000/svg">
  <defs
     id="defs7" />
  <sodipodi:namedview
     id="namedview7"
     pagecolor="#ffffff"
     bordercolor="#000000"
     borderopacity="0.25"
     inkscape:showpageshadow="2"
     inkscape:pageopacity="0.0"
     inkscape:pagecheckerboard="true"
     inkscape:deskcolor="#d1d1d1"
     inkscape:zoom="4.833347"
     inkscape:cx="184.34431"
     inkscape:cy="93.620425"
     inkscape:window-width="3840"
     inkscape:window-height="2066"
     inkscape:window-x="-11"
     inkscape:window-y="-11"
     inkscape:window-maximized="1"
     inkscape:current-layer="svg7" />
  <linearGradient
     id="a"
     gradientUnits="userSpaceOnUse"
     x1="521.15002"
     x2="547.15302"
     y1="328.12201"
     y2="114.908">
    <stop
       offset="0"
       stop-color="#edea22"
       id="stop1" />
    <stop
       offset=".748"
       stop-color="#fff"
       id="stop2" />
    <stop
       offset="1"
       stop-color="#fff"
       id="stop3" />
  </linearGradient>
  <g
     id="g1"
     inkscape:label="logo"
     transform="translate(58.200664,38.194161)">
    <g
       stroke-linecap="round"
       id="g6">
      <path
         d="m 330.245,0 c -27.563,0 -51.396,13.187 -68.647,30.465 -2.154,2.158 -4.119,4.492 -6.088,6.818 -4.507,-1.162 -9.363,-1.485 -14.54,-0.562 -13.908,2.478 -23.684,12.143 -28.64,23.011 -0.917,0.164 -1.825,0.31 -2.747,0.553 -7.201,-0.89 -14.335,0.136 -20.893,2.526 -3.727,-2.019 -7.562,-3.347 -11.068,-3.957 -5.162,-0.9 -10.961,-0.59 -16.598,1.025 a 34.478,34.478 0 0 0 -18.738,-0.076 c -4.475,-2.996 -9.156,-4.773 -13.942,-5.547 -6.22,-11.597 -18.24,-19.405 -32.595,-19.404 -4.676,0 -9.017,0.98 -12.973,2.564 -2.305,-0.696 -4.738,-1.257 -7.42,-1.412 a 16.957,16.957 0 0 0 -0.03,-0.002 31.213,31.213 0 0 0 -2.062,-0.047 H 73.26 c -3.545,0.034 -6.92,0.863 -9.992,1.867 A 35.843,35.843 0 0 0 53.809,35.934 C 40.705,35.113 26.31,41.432 17.887,52.617 a 16.957,16.957 0 0 0 -0.004,0.004 31.21,31.21 0 0 0 -1.416,2.047 v 0.002 c 0,0.002 -0.003,0.002 -0.004,0.004 C 6.181,70.878 2.784,88.242 0.706,100.922 a 16.957,16.957 0 0 0 -0.002,0.012 31.198,31.198 0 0 0 -0.256,1.963 c -0.792,7.974 -2.15,27.407 12.119,42.851 l 0.004,0.004 0.006,0.008 0.158,0.17 a 16.957,16.957 0 0 0 0.015,0.016 c 9.946,10.584 23.325,14.276 34.76,13.752 a 47.674,47.674 0 0 0 11.112,-1.842 c 1.134,-0.33 2.25,-0.724 3.34,-1.18 2.39,-1 4.559,-2.147 6.617,-3.347 1.494,0.815 3.016,1.574 4.582,2.181 0.267,0.104 0.533,0.14 0.8,0.238 -15.51,17.136 -27.084,37.995 -32.377,61.559 0,0.004 0,0.008 -0.002,0.012 a 36.25,36.25 0 0 0 -0.508,2.738 16.957,16.957 0 0 0 -10e-4,0.018 L 19.192,371.348 a 16.957,16.957 0 0 0 -0.002,0.015 36.218,36.218 0 0 0 -0.211,1.785 v 0.002 c -1.722,18.322 4.092,36.255 16.479,48.975 11.871,12.191 27.651,17.902 42.78,18.248 31.477,0.72 62.237,-23.193 67.382,-59.644 l 1.918,-13.213 c 22.097,3.449 45.191,-2.645 68.068,-11.856 a 16.957,16.957 0 0 0 0.13,-0.053 l 0.128,-0.052 -0.108,0.043 c 8.47,-3.455 16.925,-7.99 24.786,-13.885 1.095,1.599 2.153,3.222 3.427,4.709 11.296,13.184 26.927,19.718 41.875,21.09 13.591,1.247 27.223,-2.058 39.143,-9.055 9.774,6.395 20.8,9.583 31.215,10.156 15.678,0.864 32.246,-4.02 45.365,-13.896 2.86,23.985 13.082,45.152 28.691,60.46 21.146,20.739 49.364,30.24 76.875,30.425 38.172,0.582 65.789,-29.175 68.776,-61.035 a 64.93,64.93 0 0 0 -0.994,-18.749 c 7.56,1.434 15.411,1.929 23.447,1.499 v 0.064 l 1.685,-0.049 -0.732,0.004 c 38.835,0.556 77.97,-15.942 106.057,-45.717 0.51,0.694 0.977,1.413 1.505,2.096 l 0.002,0.002 0.004,0.006 c 0.38,0.49 0.772,0.971 1.176,1.441 a 16.957,16.957 0 0 0 0.006,0.008 c 28.367,32.983 67.788,47.206 104.502,41.715 a 16.957,16.957 0 0 0 0.15,-0.023 l 0.169,-0.028 c 7.901,-1.253 15.138,-3.949 21.709,-7.5 10.679,6.67 22.667,9.205 33.252,9.137 12.903,-0.082 25.45,-3.781 36.535,-10.404 9.036,5.372 19.002,8.186 28.617,8.81 13.32,0.866 26.663,-2.498 38.303,-9.45 9.327,5.796 19.722,8.802 29.697,9.45 30.682,1.995 64.077,-18.669 69.953,-55.181 0.037,-0.233 0.069,-0.444 0.096,-0.627 a 16.957,16.957 0 0 0 0.01,-0.07 l 29.824,-211.473 -0.289,1.043 a 16.957,16.957 0 0 0 0.46,-2.215 c 2.637,-18.954 -4.498,-36.672 -17.157,-48.434 -11.64,-10.814 -26.453,-15.889 -40.75,-16.42 -12.595,-0.467 -24.971,3.12 -35.875,9.807 -9.907,-6.29 -21.161,-9.4 -32.125,-9.806 -30.63,-1.138 -62.13,21.077 -69.084,57.648 a 36.377,36.377 0 0 0 -0.262,1.55 16.957,16.957 0 0 0 0,0.005 l -5.205,35.771 c -17.34,-12.998 -39.537,-21.936 -65.56,-22.655 a 16.957,16.957 0 0 0 -0.044,0 c -42.284,-1.116 -83.529,16.374 -112.406,47.33 -0.697,-0.96 -1.348,-1.937 -2.08,-2.884 -15.553,-20.123 -39.867,-36.58 -70.32,-40.856 -7.092,-2.321 -14.27,-3.538 -21.329,-3.725 0.06,-0.572 0.163,-1.241 0.219,-1.802 v -0.01 c 0,-0.01 0.003,-0.019 0.004,-0.028 a 16.957,16.957 0 0 0 0.008,-0.154 C 630.946,84.915 626.773,65.657 613.974,51.387 601.169,37.11 583.405,31.728 567.645,32.273 c -30.278,1.047 -60.572,22.93 -65.261,57.94 a 16.957,16.957 0 0 0 -0.03,0.06 l -4.58,33.057 c -16.815,-10.683 -37.533,-17.246 -60.99,-17.299 a 16.957,16.957 0 0 0 -0.012,0 c -0.19,0 -0.385,10e-4 -0.582,0.004 -6.586,0.092 -12.904,0.831 -19.076,1.871 1.6,-7.065 2.518,-14.405 2.473,-22 C 419.44,61.606 410.053,38.659 392.823,22.863 375.789,7.247 353.197,0 330.249,0 Z m -147.875,89.617 31.058,13.166 a 13.405,13.405 0 0 1 -0.738,1.856 c -0.2,0.42 -0.429,0.892 -0.963,1.732 -0.534,0.84 1.5,1.703 -6.346,5.852 -0.99,0.522 -4.02,1.513 -4.02,1.513 l -6.816,0.205 -7.722,-3.492 -4.406,-5.375 c 0,0 -1.264,-3.03 -1.512,-4.142 a 16.368,16.368 0 0 1 -0.377,-2.705 15.395,15.395 0 0 1 0.096,-3.038 c 0.345,-2.818 0.715,-3.253 0.957,-3.89 0.37,-0.976 0.572,-1.295 0.789,-1.682 z m 428.597,144.067 c 1.302,0.193 2.589,0.45 3.905,0.582 -0.135,0.8 -0.16,1.493 -0.403,2.367 0.562,-2.015 0.188,-0.408 -1.25,0.785 -0.641,0.532 -1.438,1.007 -2.228,1.422 -0.089,-1.456 -0.055,-3.23 -0.024,-5.156 z m 207.59,0.753 -0.814,5.319 c -1.78,-0.383 -3.56,-0.765 -5.375,-1.035 0.904,-1.098 2.156,-2.33 3.695,-3.262 0.703,-0.425 1.62,-0.71 2.494,-1.022 z m -646.24,0.278 c -0.892,1.857 -2.424,3.526 -5.113,4.369 1.315,-1.449 3.293,-3.205 5.113,-4.37 z"
         fill="#f0352b"
         id="path3" />
      <path
         d="m 395.49,69.508 c -22.107,0 -41.85,10.67 -56.648,25.49 a 96.106,96.106 0 0 0 -13.133,16.453 c -4.492,-4.12 -10.848,-6.495 -16.52,-5.484 -8.682,1.547 -14.805,8.45 -17.3,16.228 l -0.065,0.21 c -0.803,2.641 -1.363,4.728 -2.04,7.081 -4.127,-1.282 -9.167,-1.33 -13.743,0.791 -8.38,-2.208 -16.898,-0.086 -24.135,5.102 -3.307,-4.482 -7.764,-6.54 -11.947,-7.268 -4.202,-0.731 -8.59,-0.24 -12.855,2.084 -0.315,0.172 -0.602,0.44 -0.91,0.637 -1.062,-0.624 -2.057,-1.32 -3.29,-1.773 h -0.002 c -6.577,-2.42 -13.807,-0.595 -18.716,3.935 -0.666,-1.28 -1.41,-2.444 -2.23,-3.351 -0.356,-0.393 -0.732,-0.766 -1.128,-1.118 -5.209,-4.607 -13.303,-5.905 -18.805,-4.408 -0.29,0.08 -0.521,0.204 -0.802,0.291 -0.123,-10.522 -9.692,-20.049 -20.227,-20.049 -4.454,0 -8.69,1.767 -12.162,4.528 -2.642,-1.793 -5.67,-3.199 -9.207,-3.403 a 14.283,14.283 0 0 0 -0.955,-0.021 c -5.551,0.052 -7.928,1.698 -10.62,3.512 -0.024,0.016 -0.045,0.042 -0.07,0.058 -3.346,-2.451 -7.102,-3.444 -9.986,-3.625 -8.612,-0.54 -15.669,2.461 -21.316,9.961 -0.229,0.304 -0.445,0.617 -0.649,0.938 -8.156,12.852 -11.378,27.91 -13.345,39.91 -0.049,0.297 -0.088,0.596 -0.118,0.896 -0.74,7.455 -1.604,19.618 7.707,29.69 l 0.079,0.084 c 6.072,6.462 14.321,8.76 21.627,8.426 a 30.608,30.608 0 0 0 7.156,-1.186 c 0.518,-0.15 1.027,-0.33 1.525,-0.54 5.78,-2.418 10.047,-5.755 13.705,-9.232 2.422,3.574 5.741,6.18 10.174,7.9 5.9,2.29 10.569,2.265 16.121,1.618 2.377,-0.277 4.9,-0.77 7.457,-1.586 2.65,1.109 5.372,1.92 8.004,2.264 0.348,0.045 0.697,0.078 1.047,0.097 2.056,0.116 3.843,-0.009 5.494,-0.22 -29.093,17.185 -51.678,45.242 -59.29,79.162 -0.11,0.484 -0.2,0.973 -0.272,1.465 l -21.881,151.273 c -0.046,0.319 -0.084,0.639 -0.114,0.96 -1.274,13.559 3.265,26.85 11.747,35.56 8.48,8.71 19.828,12.871 31.02,13.127 22.38,0.511 46.24,-16.969 50.204,-45.067 l 4.76,-32.79 c 0.207,0.103 0.403,0.244 0.611,0.343 21.667,10.332 46.606,5.484 75.073,-5.977 l 0.08,-0.033 c 11.61,-4.735 22.328,-11.006 30.757,-20.412 a 106.892,106.892 0 0 0 7.319,-6.285 c 1.038,8.405 4.316,16.24 9.414,22.19 8.085,9.436 19.314,14.205 30.549,15.236 13.22,1.213 27.567,-3.75 38.336,-13.662 8.466,9.634 20.287,14.106 31.404,14.718 22.657,1.248 48.097,-13.177 51.846,-40.242 l 0.013,-0.098 c 0,0 2.95,-22.113 5.832,-44.173 a 6222.207,6222.207 0 0 0 3.903,-30.32 c 0.518,-4.139 0.938,-7.578 1.224,-10.083 0.069,-0.601 0.107,-1.015 0.16,-1.515 1.985,-5.517 7.405,-8.02 10.846,-8.069 0.585,-0.008 0.752,0.057 1.02,0.108 -0.005,0.355 0.024,0.54 -0.145,1.84 l -0.015,0.129 -13.397,108.826 v 0.008 c -3.86,30.91 6.07,57.677 23.711,74.978 17.608,17.27 41.482,25.438 65.197,25.578 29.13,0.48 49.538,-22.608 51.7,-45.666 1.082,-11.547 -1.854,-24.142 -10.668,-33.845 -8.539,-9.399 -22.228,-14.32 -36.471,-13.573 -0.005,-0.002 -0.022,-0.012 -0.027,-0.013 -0.157,-1.27 0.574,-9.614 2.464,-23.313 l 0.803,-5.666 c 3.265,4.627 6.796,9.058 10.692,13.104 18.701,19.426 44.835,32.739 73.062,30.714 41.272,0.836 84.204,-20.904 108.762,-58.992 3.27,7.858 7.468,15.255 12.646,21.944 0.203,0.262 0.413,0.52 0.63,0.771 24.952,29.013 58.307,40.613 89.138,36.002 l 0.17,-0.027 c 9.915,-1.573 18.491,-5.83 25.369,-11.7 0.01,0.012 0.018,0.026 0.03,0.038 8.905,9.683 21.19,13.16 32.109,13.09 10.918,-0.07 21.357,-3.278 30.494,-9.407 a 50.183,50.183 0 0 0 6.373,-5.101 c 8.24,8.26 18.982,12.266 29.494,12.949 13.09,0.85 27.197,-4.152 37.57,-13.875 8.348,8.91 19.522,13.166 30.43,13.875 22.242,1.445 47.713,-13.612 52.113,-40.955 0.02,-0.124 0.04,-0.247 0.057,-0.371 l 29.98,-212.58 0.01,-0.036 c 1.794,-12.886 -3.517,-25.881 -11.904,-33.673 -8.387,-7.793 -18.978,-11.495 -29.838,-11.899 -12.357,-0.459 -25.56,4.769 -35.738,14.455 -0.782,-0.89 -1.575,-1.767 -2.424,-2.556 -8.387,-7.793 -18.978,-11.495 -29.838,-11.899 -21.718,-0.806 -46.392,15.437 -51.798,43.875 -0.053,0.275 -0.099,0.55 -0.14,0.826 l -10.17,69.9 c -15.047,-22.271 -41.832,-41.28 -77.84,-42.275 h -0.024 c -45.107,-1.19 -89.391,21.807 -114.127,60.668 -3.349,-7.873 -7.743,-15.576 -13.328,-22.802 -13.398,-17.335 -34.377,-31.523 -60.938,-34.745 -12.722,-4.47 -25.762,-4.24 -36.775,-0.402 1.002,-7.984 2.152,-16.43 2.83,-23.307 v -0.006 c 1.54,-15.222 -1.954,-29.545 -10.856,-39.47 -8.903,-9.927 -21.709,-13.883 -33.119,-13.488 -22.82,0.789 -45.735,16.95 -49.111,43.605 l 0.03,-0.225 -8.919,64.364 c -15.686,-19.759 -40.877,-33.903 -73.486,-33.977 -0.103,0 -0.206,0 -0.309,0.002 -19.251,0.266 -36.478,5.524 -51.117,13.486 10.768,-13.87 17.428,-31.227 17.313,-50.466 -0.12,-20.01 -7.827,-38.324 -21.268,-50.647 C 433.169,75.592 414.899,69.508 395.495,69.508 Z m 268.64,333.437 c -0.337,-0.007 -0.676,0.05 -1.012,0.04 l 2.252,-0.065 c -0.417,0.037 -0.823,-0.004 -1.24,0.025 z M 262.693,149.791 c 0.022,-0.011 -0.006,0.09 -0.12,0.291 l -0.052,0.094 c 0.08,-0.25 0.15,-0.374 0.172,-0.385 z m 61.44,39.148 c 3.45,5.505 7.575,10.523 12.347,14.829 -1.244,2.677 -2.289,5.703 -2.574,9.496 l 0.16,-1.42 -1.271,8.47 c -6.682,-10.252 -15.552,-19.295 -26.545,-26.566 0.528,-0.004 1.055,0.021 1.588,0 4.857,-0.194 9.222,0.487 16.295,-4.809 z m 337.808,75.422 c 8.023,4.131 17.673,6.1 28.022,5.957 5.732,1.902 6.62,3.416 7.402,5.366 0.889,2.214 1.406,8.287 -1.318,18.056 -1.702,6.103 -9.89,13.515 -19.25,15.362 -11.091,0.68 -13.051,-1.005 -14.483,-2.909 -1.466,-1.95 -4.127,-10.283 -2.863,-26.394 0.06,-0.35 1.782,-11.17 2.49,-15.438 z m 225.309,4.577 c 1.28,-0.051 2.38,0.044 3.336,0.218 4.056,1.08 11.867,7.015 10.494,17.014 v 0.008 l -4.478,29.242 c -8.81,-5.37 -19.544,-8.045 -31.592,-8.289 -1.848,-1.941 -3.208,-3.463 -3.93,-4.752 -1.27,-2.268 -2.423,-4.992 -1.285,-13.543 1.745,-5.785 6.404,-11.496 12.732,-15.328 4.936,-2.988 10.537,-4.404 14.723,-4.57 z m -647.39,0.087 c 3.335,-0.242 6.215,0.281 8.384,1.276 2.638,1.209 4.765,2.961 6.735,7.351 2.853,13.445 -6.012,30.112 -24.223,31.446 -0.828,0.06 -1.65,0.173 -2.463,0.34 -3.907,0.799 -8.483,1.052 -15.182,3.173 -0.653,0.207 -1.32,0.53 -1.976,0.776 l 3.5,-24.11 c 2.532,-9.592 12.263,-17.678 21.748,-19.744 a 24.797,24.797 0 0 1 3.476,-0.508 z m 530.494,1.188 c -0.034,0.106 -0.047,0.212 -0.08,0.318 -0.047,0.169 -0.113,0.326 -0.159,0.494 z"
         fill="url(#a)"
         transform="translate(-65.246,-52.553)"
         id="path4"
         style="fill:url(#a)" />
      <path
         d="m 180.104,142.896 c -46.632,1.285 -92.86,36.587 -103.136,82.371 l -21.88,151.274 c -3.313,35.246 49.052,38.577 54.617,-0.887 l 20.76,-143.013 c 8.671,-36.12 62.885,-51.503 77.827,-13.375 6.517,25.21 -11.01,54.318 -41.371,56.541 -5.102,1.044 -9.103,1.36 -13.223,2.665 -4.978,1.576 -7.53,3.163 -15.563,9.731 -21.976,41.541 12.345,54.58 63.927,33.812 10.472,-4.27 19.568,-10.042 25.03,-16.755 46.402,-35.066 54.058,-117.765 0.585,-149.82 -14.188,-8.72 -30.973,-12.87 -47.573,-12.544 z m 138.248,-4.326 c -4.953,3.798 -12.026,-0.137 -16.293,1.99 -2.2,1.095 -3.812,8.08 -3.812,8.08 -3.624,4.203 -9.928,8.208 -10.327,13.519 l -20.992,139.788 c -7.186,35.359 47.977,41.993 55.467,3.518 l 19.456,-139.883 c 0.699,-5.282 -2.862,-12.387 -5.558,-16.086 -4.23,-5.804 -10.721,-9.973 -17.94,-10.926 z m 118.346,3.729 c -50.202,0.693 -83.041,41.778 -88.05,68.324 l -13.944,89.232 c -6.507,43.276 50.768,40.53 55.144,8.936 0,0 11.787,-88.386 11.24,-87.83 8.155,-29.88 54.127,-31.91 49.897,0.658 l -13.4,108.861 c -6.477,51.837 31.34,78.685 69.97,78.863 39.187,0.75 45.309,-57.686 4.465,-54.485 -2.43,0.21 -4.863,0.018 -6.933,-1.15 -16.008,-9.038 -13.624,-17.085 -9.882,-44.177 l 12.928,-91.246 c 6.716,-32.174 -17.917,-75.865 -71.435,-75.986 z"
         id="path5" />
      <path
         d="m 538.275,95.25 -20.96,151.292 c -5.705,42.787 38.45,88.328 81.121,84.585 52.493,1.534 111.02,-40.468 110.47,-111.996 -0.578,-29.256 -22.586,-70.425 -67.33,-74.42 -47.052,-19.127 -72.658,57.763 -13.96,53.685 24.072,6.76 28.472,24.017 21.79,47.979 -4.19,15.027 -18.887,26.691 -35.46,29.41 -31.135,2.258 -42.04,-13.498 -38.974,-50.568 0,0 13.607,-80.265 18.014,-124.98 4.645,-45.855 -50.648,-37.065 -54.71,-4.987 z m 295.755,46.828 c -48.545,-1.281 -96.873,30.801 -110.512,81.42 -9.18,28.948 -3.68,57.715 12.044,78.024 21.384,24.863 46.934,33.188 71.641,29.493 35.777,-5.676 40.188,-61.76 -15.602,-56.998 -8.39,-9.068 -19.912,-16.303 -16.013,-41.91 6.16,-23.68 33.677,-38.653 54.019,-34.386 13.904,3.306 28.15,18.304 25.361,38.541 l -10.155,66.31 c -6.517,42.306 49.33,34.271 53.959,7.333 l 11.76,-80.299 c 4.71,-27.927 -16.622,-85.874 -76.502,-87.528 z m 107.656,-44.15 -29.588,203.367 c -5.749,37.154 49.407,39.675 55.045,4.641 l 29.983,-212.58 c 3.893,-27.969 -47.63,-36.514 -55.44,4.572 z M 383.315,86.123 c 0.211,35.15 -31.297,64.012 -62.225,64.012 -30.928,0 -53.613,-20.098 -53.613,-51.026 0,-30.928 31.84,-62.841 62.768,-62.841 30.928,0 52.884,18.928 53.07,49.855 z m 626.371,11.805 -29.588,203.367 c -5.749,37.154 49.407,39.675 55.045,4.641 l 29.983,-212.58 c 3.893,-27.969 -47.63,-36.514 -55.44,4.572 z"
         id="path6" />
    </g>
    <g
       fill="#110000"
       transform="translate(-65.246,-52.553)"
       id="g7">
      <path
         d="m 108.061,123.942 c -6.12,9.643 -9.497,23.492 -11.315,34.58 -0.628,6.32 -0.592,13.651 3.99,18.607 3.642,3.876 9.465,4.755 14.422,3.314 6.115,-2.56 11.484,-8.458 16.848,-14.234 5.527,-6.603 8.579,-17.557 10.123,-25.773 6.05,3.744 11.011,-3.108 3.964,-5.35 -2.47,-1.008 -2.225,-2.94 -2.01,-4.732 1.16,-4.12 -0.624,-10.374 -5.278,-10.642 -2.921,0.027 -10.682,6.031 -3.61,14.09 0.738,1.7 1.215,2.955 0.533,5.541 -2.46,6.758 -4.632,15.05 -8.813,21.027 -1.67,1.944 -3.355,3.91 -5.18,5.681 -7.26,7.373 -16.223,5.85 -15.917,-3.11 0.265,-5.942 1.63,-10.517 3.57,-16.524 1.839,-7.206 6.344,-15.357 10.512,-21.013 3.822,-7.467 -7.334,-7.445 -11.839,-1.462 z m 187.322,51.728 c 1.661,-0.851 2.925,1.852 4.058,2.574 2.382,1.941 13.038,1.72 16.382,-0.855 7.377,-5.484 5.216,-9.737 1.27,-6.352 -4.752,5.408 -14.85,5.244 -13.94,-0.506 2.095,-12.423 5.444,-27.56 10.663,-34.017 1.609,-1.99 2.866,-3.61 3.478,-6.223 0.38,-2.27 0.711,-4.543 0.041,-6.693 -1.78,-5.549 -9.314,-5.04 -11.878,2.95 -6.235,20.515 -8.146,30.536 -8.87,39.23 -0.705,9.843 -19.456,12.233 -16.89,3.038 l 8.266,-22.007 c 1.366,-3.131 -4.423,-6.011 -7.073,-2.794 -0.63,0.765 -1.558,1.473 -2.274,2.668 0,0 -0.949,-0.348 -3.475,-1.646 -6.479,-3.33 -18.075,0.412 -24.192,13.395 -1.255,3.723 -1.791,7.128 -1.616,11.042 -0.272,1.195 -0.87,2.113 -1.918,3.091 -4.748,4.574 -14.635,2.751 -12.777,-6.062 2.435,-7.043 3.504,-12.805 6.235,-19.017 1.963,-5.999 -7.812,-7.685 -9.326,-1.638 -2.654,9.788 -3.432,14.683 -7.02,20.853 l -3.053,4.249 c -4.969,6.945 -8.551,0.567 -6.693,-5.63 l 6.372,-17.832 c 0.763,-2.073 -1.095,-4.293 -3.169,-5.056 a 4,4 0 0 0 -5.134,2.373 l -5.277,19.54 c -1.753,7.274 -3.095,7.598 -9.024,10.513 -5.46,2.619 -7.107,-0.23 -4.394,-4.935 2.278,-4.241 2.202,-10.954 -0.842,-15.778 -0.665,-1.147 -1.333,-1.993 -2.27,-3.116 -1.653,-1.714 -0.521,-4.928 0.618,-6.43 0.547,-1.564 1.82,-3.085 -0.274,-5.4 -3.594,-3.18 -8.024,-0.954 -10.108,1.733 v 0 c -1.462,1.834 -2.05,4.564 0.803,8.197 l -13.995,20.946 c -1.458,1.45 -4.409,4.068 -12.042,3.855 -3.845,-0.48 -3.52,-3.821 -2.829,-5.495 l 6.91,-21.453 c 1.722,-6.209 -8.204,-5.983 -9.61,-1.29 l -5.674,22.165 c -0.51,1.437 -0.7,3.583 0.117,6.073 0.596,2.11 2.488,4.17 4.734,5.041 4.283,1.662 14.258,1.35 18.928,-3.054 2.473,2.611 5.561,4.011 9.346,4.506 4.469,0.25 7.013,-1.14 10.404,-2.243 4.765,2.444 7.695,2.372 12.724,0.172 0.903,-0.403 1.672,-0.867 2.432,-1.35 2.282,-1.612 2.942,-2.985 4.4,-0.008 2.197,3.9 10.862,1.675 13.097,-0.22 1.402,-0.944 2.323,-1.695 3.156,-2.963 1.959,-4.378 3.165,-1.506 3.435,-0.033 1.515,8.372 14.148,7.429 17.909,4.693 4.563,-2.574 3.512,-2.988 7.579,0.503 2.818,2.308 9.436,3.176 16.08,-5.075 1.098,-2.038 1.766,-0.592 3.368,1.928 3.012,6.276 15.665,5.48 22.832,-0.158 z m -30.59,-3.55 c -5.6,5.474 -9.58,-1.363 -7.223,-7.86 1.224,-3.375 3.438,-6.366 4.53,-7.725 2.528,-3.056 5.44,-5.367 8.561,-6.26 1.832,-0.259 8.925,-1.24 4.28,6.88 -2.667,5.05 -5.973,10.045 -10.147,14.965 z m -81.278,-14.225 c 0.453,-0.741 1.017,-0.824 2.095,1.059 2.684,4.695 0.04,10.503 -2.88,14.095 -2.706,2.625 -8.708,-2.247 -5.324,-6.706 z"
         stroke="#000000"
         stroke-linecap="round"
         id="path7" />
      <circle
         cx="160.993"
         cy="-124.609"
         transform="scale(1,-1)"
         r="6"
         id="circle7" />
    </g>
  </g>
</svg>
