<svg height="181.839" width="755.463" xmlns="http://www.w3.org/2000/svg">
    <g fill="#fff">
        <path d="M636.5 37.1c.8-1.5 2.6-1.6 4.1-1.4.6 4.2-.8 10.9-6 11.3-1.4-3.4-.3-7.1 1.9-9.9zM651.5 38.9c.8-.1 2.3-.2 3.1-.3.7 3.9 0 8-2.5 11.1-.6 0-1.9.1-2.5.2-1.7-3.6-.8-8.1 1.9-11z"/>
        <path d="M612.6 25.5c18.6-3.1 37.8.7 55 8.1 7.1 3.8 15.6 7 19.5 14.6 3.4 6.7 3.8 14.6 3 21.9-.6 7.9-3.1 15.5-6 22.8-1.9 5-5.5 9.1-9 13-3.9 4.3-9.3 7.1-15.1 7.5-18.5 1.2-37.6-.3-55.1-7-5.8-2.3-11.8-6.1-13.5-12.5-1.5-6.2-.8-12.6-1-18.8-.4-13.5 2.8-26.9 8.8-39 2.6-5.3 7.7-9.1 13.4-10.6z"/>
    </g>
    <path d="M590.7 16.3c2-6.4 6.2-12.3 12-15.7 3.5-.9 7.1-.6 10.7-.3 9.7 2.5 16.6 11.9 27 12.4 7 1 14.3 1 20.9 3.6 7.6 2.6 13.6 9.5 22.1 9.6 7.8.8 16-.2 23.4 3 5.7 2.8 10.7 8.6 10.3 15.3-.1 6.5-4.2 11.8-7.8 16.8-3.9 5.3-1.9 12.2-2.1 18.3 0 1.7 0 3.4-.2 5-2.1 5.3-6.2 9.9-6.3 15.8-.4 4.1.5 8.3 1.4 12.3 1.9 7.4-1.9 16.6-9.5 18.9-5.9 1.6-12.2.7-17.8-1.4-5.7-2.1-11.7-3.6-17.8-3.8-1.6-.1-3.2-.1-4.8-.1-10.1 1.1-20.5.8-30.3-2.3-1.6-.5-3.2-1-4.9-1.4-2.8-.7-5.7-1.4-8.6-1.2-4.4.3-8.5 2.2-13 2.4-6-.2-12.6-1.8-16.4-6.7-3.5-3.9-3.4-9.5-2.9-14.5.5-6 4-11.1 5.6-16.7 2-6.6 2.1-13.5 2-20.3.1-1.6-.5-3.1-1.4-4.5.8-1.3 1.5-2.7 1.6-4.2.6-6.6 3.9-12.5 5.8-18.7 1.1-7.3-.8-14.6 1-21.6zm22.1 9.2c-5.7 1.4-10.8 5.3-13.3 10.6-6 12-9.2 25.5-8.8 39 .2 6.3-.5 12.7 1 18.8 1.6 6.4 7.7 10.3 13.5 12.5 17.5 6.7 36.5 8.2 55.1 7 5.8-.3 11.2-3.2 15.1-7.5 3.5-3.9 7.1-8 9-13 2.9-7.3 5.4-14.9 6-22.8.8-7.3.4-15.2-3-21.9-3.9-7.6-12.3-10.8-19.5-14.6-17.3-7.3-36.5-11.2-55.1-8.1z" fill="#e18837"/>
    <g fill="#8a6aa2">
        <path d="M531.7 17.4c5.2-4.8 13.7-3.7 18.8.7 8 6.9 8.6 18.3 12.4 27.5l-3.3 3c-7.9 1.4-15.5-2.6-22.1-6.6-4.5-2.6-7.9-7-9-12.1-.9-4.3-.5-9.6 3.2-12.5zM726.7 41.3c2.2-6.8 9.5-11.7 16.7-10.7 4.9-.1 8.4 4.1 10.4 8.1 2.1 3.7 1.8 8.2 1.3 12.3-1.6 5.6-5.8 10.1-10.5 13.4-3.6 2.6-8 3.6-12 5.3l-2.1-3.6c-1.7-3-1.4-6.5-2.2-9.7-.9-5-3-10.1-1.6-15.1zM592.4 150c4.3-1.8 9.1-4.3 13.7-2.1 1.6.7 3.2 1.4 4.9 1.9 1.2 3.7 1.9 7.6.7 11.4-1.5 4.8-2.2 10.3-6.1 13.8-6.8 7.3-20.6 4.7-24.9-4.2-2.4-4.9-2.6-11.4.8-15.9 2.5-3.3 7.2-3.3 10.9-4.9zM664 152.8c5.5-2.8 11.6 0 17.4.2 3.4.1 6.1 2.8 7.3 5.8 2 7.2-.5 15.6-6.7 20-5.5 4.3-14.3 4.1-19.2-1-2.6-2.5-4-6-4.3-9.5-.4-4.2-.8-8.9 1.8-12.6 1.2-1.2 2.4-2.1 3.7-2.9z"/>
    </g>
    <g fill="#0d0e0f">
        <path d="M637.9 34.4c1.5-1.8 4.6-.5 4.7 1.7.8 5.5-1.3 11.2-5.2 15-1.3 1.5-4.3 2.3-5.1-.2-1.6-5.8.9-12.6 5.6-16.5zm-1.4 2.7c-2.2 2.8-3.3 6.5-1.8 9.9 5.2-.4 6.5-7.1 6-11.3-1.6-.1-3.4 0-4.2 1.4zM648.2 41.8c1.2-2.3 3-5.3 5.9-5.3 3.2 2.3 2.9 7 2.1 10.4-1.1 3.9-2.9 8.9-7.6 9.4-3-4.2-2.3-9.9-.4-14.5zm3.3-2.9c-2.7 2.9-3.6 7.3-1.9 11 .6 0 1.9-.1 2.5-.2 2.5-3.2 3.2-7.2 2.5-11.1-.7.1-2.3.3-3.1.3zM559.5 48.6l3.3-3c6.4 4.6 13.7 8 21.1 10.8-.1 1.6-.8 2.9-1.6 4.2-8-3.2-16.1-6.5-22.8-12zM707.2 79.2c9.1-1.6 16.3-7.8 23.4-13.2l2.1 3.6c-7.3 6.6-15.9 12.5-25.7 14.6.1-1.7.2-3.3.2-5zM617 122.2c1.6.4 3.2 1 4.9 1.4-2.6 9.1-6.2 18-10.9 26.3-1.7-.6-3.3-1.2-4.9-1.9 4.5-8.3 8.3-16.8 10.9-25.8zM652.2 125.9c1.6 0 3.2 0 4.8.1.5 9.3 2.1 18.8 7 26.8-1.3.8-2.5 1.8-3.7 2.8-6.4-8.4-8.3-19.5-8.1-29.7z"/>
    </g>
    <path d="M659.7 61.5c-1 3.2-1.6 6.6-3.1 9.7-2.8 2.6-5 6.2-8.7 7.6-5 2-11 2.8-15.9-.1-6.3-3.6-9.8-10.6-11-17.6.3-3 2-5.6 2.3-8.6-2-.9-4.1-1-6.3-.8-1.2 4.3 3.3 7.2 3 11.4.4 8.8 5.1 18.5 14 21.2 5.4 1.1 11.3.4 16.1-2.5 3.4-2.7 6.1-6.2 8.5-9.8 2.5-2.1 5.2-4 7.3-6.5 2.7-3.5-4-7.6-6.2-4z" fill="#e18837"/>
    <path d="M117.4 30.8c-5.4 7.9-49.1 78.5-59.9 95h-1.4C41.2 102.9 4.7 39.5 0 31.9l30.7-16.7c3 6.4 23.5 49.6 27.9 59.2 4.3-9.7 26.6-54.6 28.6-59.2z" fill="#007cb3"/>
    <g fill="#f0973a">
        <path d="M156.9 99.3c11.4.4 23.8-2.8 23.8-8.3 0-2.3-2-3.7-11.5-9.1-7.4-4.2-15.9-10.1-15.9-19.9 0-13.1 17.4-27.4 47.1-30l3.2 19.6c-14.6 0-22 2.5-22 7.3 0 2.8 3.7 4.6 11.4 8.3 6.2 3 16.3 8.3 16.3 18.9 0 12.9-13.5 29.3-49.1 33.4zM212.3 112.3c2-4.7 25.6-65.9 32.4-80.8h1.2c7.1 11.6 24.5 40.3 28.1 46.3 4.6-6.9 21.1-34.3 27.3-44.4h1.2c8.1 17.3 31.6 70.5 34.8 76.9l-23.7 10.5c-3.7-9.4-14.9-39.1-16.2-42.3-1.4 2.1-16.4 25.2-25.2 37.5H271c-9-13.6-21.3-33.5-23.2-37-2 6.1-10.4 36.3-12.5 41.8zM376.1 81.9c0 11.7.4 32.7.5 35.4h-27.2c.2-5.2.4-32.6.4-35.6V69c0-2-.4-32.1-.4-34.9h27.2c-.1 2.1-.5 21.1-.5 35.1zM426.8 34.1c-.1 2.7-.6 26.8-.6 41.6v21.4c2.8 0 16.6 0 26-.5l.1 21.8c-2.8 0-43.4-1.2-52.8-1.2.4-6.2.4-31.3.4-34.1V67.6c0-1.9-.2-31.3-.5-33.5zM519 118.4c-4.2 0-46.5-1.2-52.6-1.2.4-6.2.4-31.3.4-34V67.6c0-1.9-.2-30.1-.4-33.5 6.6 0 45.9-1.8 50.2-2.1l.5 19.3c-4.3 0-22.7.6-24.8.6v15.5c2.3 0 15.8-.6 21-1.1l.4 18.7c-3.2 0-18.7-.5-21.3-.5v13.9c3 0 20.7.2 26.2-.2z"/>
    </g>
    <circle cx="113.1" cy="111.1" fill="#007cb3" r="13.9"/>
    <g fill="#007cb4">
        <path d="M16.5 155.8v16.3h-4.4v-16.3H6.6v-4h15.5v4zM57.3 151.8 55 158c-.9 2.4-1.7 4.7-2.6 7s-1.7 4.7-2.6 7h-4.6l-7-20.3h5l4.9 16.1h.1c0-.4.1-1 .3-1.8.1-.8.3-1.7.6-2.7.2-1 .5-2.2.8-3.5s.7-2.6 1.1-4l1.2-4.1h5.1zM98.1 172.1v-20.3h4.4v16.3h7.9v4zM128.4 172.1v-17.5h9.9v3.3h-6v3.8h5.7v3.2h-5.7v4.1h6.2v3.3h-10.1zM165.7 172.1l-1-3.4h-5.8l-1 3.4h-4.3l6.4-17.5h4l6.1 17.5zm-4.2-14c-.1.3-.2.8-.2 1.3-.1.5-.2 1-.3 1.6s-.2 1.1-.4 1.7c-.1.6-.2 1-.4 1.5l-.3 1.3h3.9zM189.6 172.1h-3.8v-17.5c2.1-.1 4.3-.1 6.5-.1.9 0 1.8.1 2.5.4s1.3.6 1.8 1.1.9 1 1.2 1.7.4 1.4.4 2.1c0 .6-.1 1.1-.3 1.6s-.4 1-.8 1.4c-.3.4-.7.8-1.2 1.2-.5.3-1 .6-1.5.8l4.9 7.2h-4.8l-3.8-6.4h-1.1zm0-9.6c.3 0 .6.1.9.1h.9c.8 0 1.5-.3 2-.7s.7-1 .7-1.7c0-.3-.1-.6-.2-.9s-.3-.5-.5-.8c-.2-.2-.5-.4-.8-.5s-.7-.2-1.2-.2h-1.8v4.6zM226.3 172.1c-.1 0-.2-.1-.3-.3-.2-.2-.3-.4-.5-.7s-.4-.6-.7-1c-.2-.4-.5-.7-.7-1s-.4-.6-.5-.8c-.2-.2-.3-.4-.3-.5l-5.1-7.9h-.1c.1.5.2 1 .3 1.7s.1 1.3.2 2 .1 1.5.1 2.2v6.2H215v-17.5h4.2l7.8 12.1h.1c-.2-1-.3-2.2-.5-3.7-.1-1.4-.2-2.9-.2-4.5v-3.9h3.6V172h-3.7zM247 172.1v-17.5h3.8v17.5zM279.1 172.1c-.1 0-.2-.1-.3-.3-.2-.2-.3-.4-.5-.7s-.4-.6-.7-1c-.2-.4-.5-.7-.7-1s-.4-.6-.5-.8c-.2-.2-.3-.4-.3-.5l-5.1-7.9h-.1c.1.5.2 1 .3 1.7s.1 1.3.2 2 .1 1.5.1 2.2v6.2h-3.7v-17.5h4.2l7.8 12.1h.1c-.2-1-.3-2.2-.5-3.7-.1-1.4-.2-2.9-.2-4.5v-3.9h3.6V172h-3.7zM366.5 153.7v1.3c0 .4 0 .8-.1 1.1 0 .3 0 .6-.1.8-.7-.5-1.5-.8-2.3-1s-1.6-.3-2.4-.3-1.5.1-1.9.4c-.5.3-.8.6-.8 1.1s.2 1 .6 1.3c.4.4 1 .7 1.6 1s1.3.7 2.1 1 1.4.8 2.1 1.3c.6.5 1.2 1.1 1.6 1.8s.6 1.6.6 2.6-.2 1.8-.6 2.5-1 1.3-1.8 1.8-1.6.8-2.6 1.1-2.1.4-3.2.4c-.7 0-1.4 0-2.2-.1s-1.5-.2-2.1-.4c0-.8 0-1.6.1-2.4 0-.9.1-1.6.1-2.1.8.4 1.6.8 2.4.9.8.2 1.7.3 2.6.3 1 0 1.7-.1 2.2-.3s.8-.6.8-1.2c0-.5-.2-1-.6-1.3-.4-.4-1-.7-1.6-1.1-.6-.3-1.3-.7-2.1-1.1s-1.4-.8-2.1-1.3c-.6-.5-1.2-1.1-1.6-1.8s-.6-1.5-.6-2.5c0-.9.2-1.8.6-2.5s1-1.3 1.8-1.8c.7-.5 1.6-.9 2.6-1.1s2-.4 3.1-.4c.6 0 1.3 0 2 .1s1.4.2 1.9.4c-.1.6-.1 1-.1 1.5zM395.6 172.1v-7.3l-5.9-10.3h4.4l3.7 7.3c0-.1.1-.4.3-.7.2-.4.4-.8.6-1.3s.5-1 .7-1.5c.3-.5.5-1 .7-1.4l1.2-2.3h4.4l-1.8 2.8c-.7 1.1-1.5 2.3-2.3 3.5s-1.5 2.2-2.2 3.2v8.1h-3.8zM430.1 156.1v1.1c0 .3 0 .7-.1 1 0 .3 0 .5-.1.7-.6-.4-1.3-.7-2-.9-.7-.1-1.4-.2-2.1-.2s-1.3.1-1.7.3-.7.6-.7 1c0 .5.2.8.6 1.2.4.3.8.6 1.4.9l1.8.9c.7.3 1.3.7 1.8 1.1s1 1 1.4 1.6.6 1.4.6 2.3c0 .8-.2 1.6-.6 2.2s-.9 1.2-1.5 1.6-1.4.7-2.3.9-1.8.3-2.8.3c-.6 0-1.2 0-1.9-.1s-1.3-.2-1.8-.4c0-.7 0-1.4.1-2.1 0-.8.1-1.4.1-1.8.7.4 1.4.7 2.1.8.7.2 1.5.2 2.2.2.8 0 1.5-.1 1.9-.3s.6-.5.6-1-.2-.8-.6-1.2c-.4-.3-.8-.6-1.4-.9l-1.8-.9c-.6-.3-1.3-.7-1.8-1.1-.6-.4-1-.9-1.4-1.5s-.6-1.3-.6-2.2c0-.8.2-1.5.6-2.2.4-.6.9-1.2 1.5-1.6s1.4-.8 2.2-1 1.7-.3 2.7-.3c.5 0 1.1 0 1.7.1s1.2.2 1.6.4c.3.4.3.7.3 1.1zM454.1 158v14.1h-3.9V158h-4.8v-3.4h13.4v3.4zM472.9 172.1v-17.5h9.9v3.3h-6v3.8h5.7v3.2h-5.7v4.1h6.2v3.3h-10.1zM499.5 154.5h4.4l4.2 12.8h.1c0-.1.1-.4.1-.7.1-.4.2-.8.3-1.4.1-.5.3-1.1.5-1.8l.6-2.1.5-1.6c.2-.6.4-1.1.5-1.6.2-.5.3-.9.5-1.3.1-.4.3-.8.4-1.2s.3-.8.4-1.2h4.3l2 17.5h-4l-1.1-12.4c0 .1 0 .3-.1.7s-.2.9-.4 1.4-.3 1.2-.5 1.8-.4 1.3-.6 2l-.5 1.6c-.3.8-.5 1.6-.8 2.4l-.9 2.4h-3.6l-3.9-12.3h-.1v1.1c0 .6 0 1.3-.1 2.1 0 .8-.1 1.7-.1 2.7s-.1 1.9-.1 2.7l-.2 3.9h-4.1z"/>
    </g>
    <path d="m311.3 160-.3-.6c-.4-.5-.8-.9-1.4-1.2s-1.2-.5-1.9-.5c-.8 0-1.4.1-2 .4s-1 .7-1.4 1.1c-.4.5-.6 1.1-.8 1.7s-.2 1.4-.2 2.2c0 .7.1 1.4.3 2.1s.5 1.3.8 1.8c.4.5.8.9 1.4 1.2.5.3 1.2.5 1.9.5.8 0 1.4-.1 2-.4s1-.7 1.4-1.1c.4-.5.6-1.1.8-1.7s.3-1.4.3-2.2v-.6" fill="none"/>
    <path d="M316.2 162.7h-8.5v2.7h4.2v.2c-.2.7-.4 1.3-.8 1.7-.4.5-.8.9-1.4 1.1s-1.2.4-2 .4c-.7 0-1.3-.2-1.9-.5-.5-.3-1-.7-1.4-1.2s-.7-1.1-.8-1.8-.3-1.4-.3-2.1c0-.8.1-1.5.2-2.2s.4-1.3.8-1.7c.4-.5.8-.9 1.4-1.1s1.2-.4 2-.4c.7 0 1.3.2 1.9.5s1 .7 1.4 1.2l.3.6h4.4c0-.1 0-.1-.1-.2-.3-1-.8-2-1.5-2.8s-1.5-1.4-2.4-1.9-2.1-.7-3.4-.7c-1.4 0-2.6.2-3.7.7s-2.1 1.1-2.9 1.9-1.4 1.8-1.9 2.8c-.4 1.1-.7 2.3-.7 3.5s.2 2.3.5 3.3.8 2 1.4 2.7c.6.8 1.5 1.4 2.4 1.9s2.1.7 3.5.7c1.3 0 2.6-.2 3.7-.7s2.1-1.1 2.9-1.9 1.4-1.7 1.9-2.8.7-2.3.7-3.5c.1-.1.1-.2.1-.4z" fill="#007cb4"/>
</svg>
