<?xml version="1.0" encoding="UTF-8" standalone="no"?>
<!-- Created by ERK -->

<svg
   width="407.64355mm"
   height="54.504162mm"
   viewBox="0 0 407.64355 54.504162"
   version="1.1"
   id="svg1"
   inkscape:version="1.4 (86a8ad7, 2024-10-11)"
   sodipodi:docname="wahlap.svg"
   xmlns:inkscape="http://www.inkscape.org/namespaces/inkscape"
   xmlns:sodipodi="http://sodipodi.sourceforge.net/DTD/sodipodi-0.dtd"
   xmlns="http://www.w3.org/2000/svg"
   xmlns:svg="http://www.w3.org/2000/svg">
  <sodipodi:namedview
     id="namedview1"
     pagecolor="#ffffff"
     bordercolor="#000000"
     borderopacity="0.25"
     inkscape:showpageshadow="2"
     inkscape:pageopacity="0.0"
     inkscape:pagecheckerboard="true"
     inkscape:deskcolor="#d1d1d1"
     inkscape:document-units="mm"
     inkscape:zoom="1.1647372"
     inkscape:cx="821.6446"
     inkscape:cy="109.46676"
     inkscape:window-width="3840"
     inkscape:window-height="2066"
     inkscape:window-x="-11"
     inkscape:window-y="-11"
     inkscape:window-maximized="1"
     inkscape:current-layer="svg1" />
  <defs
     id="defs1" />
  <path
     id="Path 3"
     fill-rule="evenodd"
     class="s0"
     d="m 50.641249,34.63395 c 0.396875,0 0.820209,-0.29104 0.9525,-0.71437 L 62.600416,0 H 79.083957 L 61.436249,54.50416 H 44.793958 C 40.798749,54.45126 39.343541,52.67854 38.25875,49.58291 L 22.198541,0 h 12.22375 c 2.38125,0 4.868334,1.7727 5.715,4.47145 l 9.551458,29.44813 c 0.105834,0.42333 0.502709,0.71437 0.926042,0.71437 z M 0,0.02645 H 17.62125 L 35.216041,54.50416 H 17.647708 Z m 50.614791,22.33084 -0.05292,-0.0794 C 48.154163,14.86956 45.746455,7.43477 43.338746,0.02643 H 57.89083 l -7.196667,22.27792 -0.05292,0.0529 z"
     style="fill:#ff0000;stroke-width:0.264583"
     inkscape:label="W" />
  <path
     id="Path 2"
     fill-rule="evenodd"
     class="s1"
     d="m 369.86104,15.4252 -1.27,-1.03187 C 366.50083,12.7 364.30479,11.43 362.02937,10.55687 c -2.46062,-0.9525 -5.10646,-1.42875 -7.83167,-1.42875 -5.34458,0 -9.55145,1.66688 -12.85875,5.05354 -3.33375,3.41313 -4.9477,7.72584 -4.9477,13.17625 0,5.26521 1.56104,9.47209 4.81541,12.88521 3.22792,3.41313 7.19667,5.05354 12.11792,5.05354 2.8575,0 5.63562,-0.50271 8.22854,-1.53458 2.43417,-0.9525 4.78896,-2.38125 7.01146,-4.20688 l 1.29646,-1.08479 v 11.27125 l -0.34396,0.21167 c -2.09021,1.45521 -4.41854,2.54 -6.90563,3.30729 -2.61937,0.79375 -5.52979,1.19063 -8.62541,1.19063 -3.91584,0 -7.62,-0.635 -10.95375,-1.93146 -3.36021,-1.32292 -6.35,-3.25438 -8.89,-5.74146 -2.48709,-2.46063 -4.445,-5.3975 -5.82084,-8.78417 -1.34937,-3.33375 -2.03729,-6.93208 -2.03729,-10.71562 0,-3.78354 0.68792,-7.38188 2.03729,-10.68917 1.34938,-3.33375 3.33375,-6.29708 5.90021,-8.81062 2.56646,-2.54 5.55625,-4.49792 8.86354,-5.79438 3.28084,-1.29646 6.90563,-1.95792 10.74209,-1.95792 3.01625,0 5.95312,0.4498 8.70479,1.32292 2.35479,0.76729 4.70958,1.87854 6.95854,3.30729 l 0.37042,0.23813 z M 397.61583,0 h 10.02771 V 54.45125 H 397.61583 V 32.96708 H 386.02708 V 54.45125 H 376.02583 V 0 h 10.00125 v 22.14562 h 11.58875 z M 258.63021,9.10166 C 257.09562,3.75708 254.07937,0 254.07937,0 h 80.61854 c 0,0 -5.13291,3.33375 -8.86354,9.10166 h -17.78 v 13.07042 h 12.88521 c -0.82021,5.82083 0.10583,10.795 0.10583,10.795 h -12.99104 v 12.40896 h 17.67417 c 3.70416,5.90021 8.89,9.12812 8.89,9.12812 H 298.05312 V 9.10166 h -14.12875 v 45.4025 H 273.92312 V 9.10166 Z m -13.89063,45.16438 c -2.46062,0 -4.445,-1.98438 -4.445,-4.445 0,-2.46063 1.98438,-4.47146 4.445,-4.47146 2.46063,0 4.47146,2.01083 4.47146,4.47146 0,2.46062 -2.01083,4.445 -4.47146,4.445 z m 3.70417,-4.445 c 0,-2.06375 -1.64042,-3.70417 -3.70417,-3.70417 -2.03729,0 -3.67771,1.64042 -3.67771,3.70417 0,2.03729 1.64042,3.67771 3.67771,3.67771 2.06375,0 3.70417,-1.64042 3.70417,-3.67771 z m -3.70417,0.29104 -0.34396,-0.0265 h -0.74083 v 2.16958 h -0.66146 v -4.86833 h 2.16958 q 0.635,0 0.97896,0.13229 l 0.55563,0.44979 0.18521,0.74084 q 0,0.50271 -0.3175,0.87312 -0.34396,0.34396 -1.03188,0.44979 l 0.37042,0.23813 0.52916,0.66146 0.84667,1.32291 h -0.79375 l -0.66146,-1.03187 -0.44979,-0.66146 -0.34396,-0.3175 -0.26458,-0.13229 z m 0.26458,-0.58208 0.71438,-0.10584 0.37042,-0.29104 0.13229,-0.42333 -0.26459,-0.58209 c -0.15875,-0.13229 -0.42333,-0.21166 -0.79375,-0.21166 h -1.53458 V 49.53 Z M 111.23083,0 h 10.82146 v 22.25145 h 12.09146 V 0 H 144.145 V 54.4777 H 134.14375 V 32.96708 H 122.05229 V 54.4777 H 102.79062 L 90.804999,17.38312 78.792916,54.4777 H 67.124791 L 84.719582,0 h 7.963958 c 2.328334,0 4.736042,1.74625 5.582709,4.36562 l 12.938121,40.05792 z m 38.65563,0 h 9.92187 v 40.8252 h 13.44083 l -4.445,13.6525 h -18.9177 z m 77.1525,37.22687 V 54.4777 H 208.70333 L 196.69125,17.38312 184.65271,54.4777 H 172.98458 L 190.63229,0 h 7.9375 c 2.30187,0 4.73604,1.71979 5.58271,4.36562 l 12.96458,40.03146 V 0 h 15.66333 c 9.86896,0 16.66875,8.20208 16.69521,18.6002 -0.0529,10.45105 -7.14375,18.44146 -16.51,18.60021 h -0.18521 z m 0,-8.83708 h 5.55625 c 3.57187,-0.0794 6.8527,-3.88938 6.8527,-9.78959 0,-5.9002 -3.3602,-9.73666 -6.8527,-9.76312 h -5.55625 z"
     inkscape:label="ahlap tech"
     style="fill:#000000;stroke-width:0.264583" />
</svg>
