<?xml version="1.0" encoding="UTF-8" standalone="no"?>
<svg
   width="2363"
   height="800"
   style="enable-background:new 0 0 2363 800"
   xml:space="preserve"
   version="1.1"
   id="svg5"
   sodipodi:docname="wiiu-jp.svg"
   inkscape:version="1.3.2 (091e20e, 2023-11-25, custom)"
   xmlns:inkscape="http://www.inkscape.org/namespaces/inkscape"
   xmlns:sodipodi="http://sodipodi.sourceforge.net/DTD/sodipodi-0.dtd"
   xmlns="http://www.w3.org/2000/svg"
   xmlns:svg="http://www.w3.org/2000/svg"><defs
   id="defs5" /><sodipodi:namedview
   id="namedview5"
   pagecolor="#ffffff"
   bordercolor="#000000"
   borderopacity="0.25"
   inkscape:showpageshadow="2"
   inkscape:pageopacity="0.0"
   inkscape:pagecheckerboard="true"
   inkscape:deskcolor="#d1d1d1"
   inkscape:zoom="0.46508675"
   inkscape:cx="1179.3499"
   inkscape:cy="401.00046"
   inkscape:window-width="2560"
   inkscape:window-height="1351"
   inkscape:window-x="-9"
   inkscape:window-y="-9"
   inkscape:window-maximized="1"
   inkscape:current-layer="svg5" />
    
    
    
    <g
   id="g1"
   inkscape:label="Logo"><path
     style="fill:#0196c7"
     d="M1887.1 576.8h-215.2c-15.5 0-30.9-1.9-45.9-6.4-42.3-12.5-65.7-41.7-73.8-84.2-2.2-11.7-3.2-23.5-3.2-35.3V166.2c0-19.1 3.3-37.5 13.9-53.8 15-23 37.4-33.2 63.9-34.9 27.3-1.8 54.7-.3 82-.7 4.2-.1 3.8 2.3 3.8 5 0 32.6-.1 65.1 0 97.7.2 49.3-1.3 98.6.7 147.8 1.5 38.8 12.4 74.8 38.4 104.9 20 23.2 45.5 37.4 75 44.8 37 9.2 74.2 9.5 111.1 0 59.4-15.4 94.7-54.2 108.6-113.4 4.2-17.9 5.6-36.1 5.6-54.4-.1-75.4 0-150.8-.1-226.2 0-5.1 1.4-6.3 6.3-6.2 25.9.5 51.9-.9 77.8.7 48.7 2.9 79.2 35 79.5 83.9.3 59.7.1 119.5.1 179.2 0 38.7.1 77.3-.1 116-.1 17.3-2.7 34.4-8.7 50.7-13.3 36.7-40.2 57.4-77.5 65.6-12.4 2.8-25.1 4-37.8 4-68.2-.1-136.3-.1-204.4-.1z"
     transform="matrix(.83753 0 0 .82141 185.335 53.382)"
     id="path2"
     inkscape:label="LogoOuter" /><path
     style="fill:#0196c7"
     d="M1969.9 200.3c0 39.3.8 78.7-.3 118-.7 27-10.4 51.1-30.9 69.7-38.8 35.2-112.9 28.3-136.9-35.4-4.9-13-7.4-26.5-7.5-40.3-.1-77-.1-153.9-.2-230.9 0-3.6 1-4.7 4.6-4.7 55.5.1 111.1.1 166.6 0 4 0 4.9 1.2 4.9 5-.1 39.5-.1 79-.1 118.6h-.2z"
     transform="matrix(.83753 0 0 .82141 185.335 53.382)"
     id="path4"
     inkscape:label="LogoInner" /></g>
    <g
   id="g2"
   inkscape:label="Wii TM"><g
     id="g3"
     inkscape:label="Wii"><path
       style="display:inline;fill:#8c8c8c"
       d="m 258.8,574.3 c 6.3,-24.2 12.2,-47 18.2,-69.9 27.7,-105.5 54.9,-211.1 83.8,-316.3 3,-11.1 6.6,-22 11.8,-32.3 13.2,-26.3 33.8,-42.5 63.4,-46.1 27.1,-3.3 52.6,0.5 73.7,19.7 14.8,13.4 23.2,30.8 28.6,49.6 20.9,74.2 40.1,148.8 59.7,223.3 14.8,56.4 29.4,112.8 44.1,169.1 0.1,0.3 0.3,0.6 0.5,1 2.1,-0.2 1.4,-2.1 1.7,-3.2 24,-93.9 47.9,-187.7 71.9,-281.6 14.4,-56.3 28.8,-112.6 43,-168.9 1.1,-4.3 2.7,-5.7 7.3,-5.7 43,0.2 86,0.1 129.1,0.1 7.1,0 7,0 5.1,7 -25.1,90.3 -50.1,180.7 -75.4,271 -25.2,89.9 -49.7,180.1 -76.8,269.5 -9.1,29.9 -25.4,55 -53.2,70.9 -37.7,21.5 -96.9,17 -127.7,-33.7 -11,-18.1 -17.1,-38 -22.8,-58.1 -31.6,-111.6 -61.9,-223.6 -92.3,-335.6 -0.3,-1.2 -0.7,-2.3 -1.2,-3.8 -2.1,3.2 -2.4,6.5 -3.3,9.6 -28.1,103.4 -56.1,206.8 -85.2,310 -6.1,21.6 -11,43.5 -20.8,63.9 -10.3,21.4 -24.4,39.2 -46.1,50.2 -37.5,18.9 -86.4,9 -114.2,-22.4 -17,-19.2 -26,-42.1 -33,-66.2 C 108.4,506.4 69.9,366.9 31.1,227.4 20.9,191 10.8,154.4 0.5,117.9 -0.7,113.7 0.2,113 4.3,113 c 43.9,0.1 87.8,0.1 131.7,0 4.2,0 5.5,1.5 6.5,5.3 31.2,122.7 62.5,245.4 93.8,368.1 7,27.5 14,54.9 21,82.4 0.3,1.4 0.7,2.7 1.5,5.5 z"
       transform="matrix(0.83753,0,0,0.82141,185.335,53.382)"
       id="path1"
       sodipodi:nodetypes="ccccccccccccccscccccccccccccccccccccc"
       inkscape:label="W" /><path
       style="fill:#8c8c8c"
       d="M974.1 521.1c0-70.2.1-140.3-.1-210.5 0-5 1.3-6.3 6.3-6.3 40.7.2 81.5.2 122.2 0 4.7 0 5.7 1.4 5.7 5.9-.1 141-.1 282.1 0 423.1 0 4.6-1.2 5.8-5.8 5.8-40.9-.2-81.8-.2-122.7 0-4.7 0-5.7-1.4-5.7-5.9.1-70.7.1-141.4.1-212.1zM1246.8 521.1c0-70.2.1-140.3-.1-210.5 0-5.1 1.3-6.3 6.3-6.3 40.6.2 81.1.2 121.7 0 4.5 0 6.2.7 6.2 5.8-.2 141-.1 282.1 0 423.1 0 4.6-1.2 5.8-5.8 5.8-40.9-.2-81.8-.2-122.7 0-4.8 0-5.7-1.4-5.7-5.9.2-70.6.1-141.3.1-212z"
       transform="matrix(.83753 0 0 .82141 185.335 53.382)"
       id="path3"
       inkscape:label="ii" /><path
       style="display:inline;fill:#8c8c8c"
       d="m 960.8,154.3 c 0.1,-40.6 32.7,-74.7 71.4,-77.1 28.6,-1.7 53.1,6.7 71.3,29.2 29.2,36 18.5,88.8 -22,111.2 -39.7,22 -88,9.8 -110.5,-27.9 -6.9,-11.4 -9.9,-23.9 -10.2,-35.4 z m 432.2,-2.2 c -0.1,36.2 -24.8,65.6 -61.8,74.4 -37.9,9 -77.5,-10.7 -91.8,-45.9 -18.3,-44.8 10.2,-92.9 56.3,-101.8 33.4,-6.5 62,3.3 83.2,30.8 9.7,12.7 13.6,27.6 14.1,42.5 z"
       transform="matrix(0.83753,0,0,0.82141,185.335,53.382)"
       id="path5"
       sodipodi:nodetypes="cccccccccccc"
       inkscape:label="dotdot" /></g><g
     id="g4"
     inkscape:label="TM"><path
       style="fill:#8c8c8c"
       d="m 2281.2,110.9 c 0,7 -0.3,13.9 0.1,20.9 0.2,4.7 -2.6,3.8 -5.4,4 -2.9,0.1 -4.9,0 -4.8,-4 0.2,-13.6 -0.1,-27.2 0.2,-40.7 0.1,-4.5 -1.4,-5.9 -5.6,-5.4 -2.4,0.3 -4.9,-0.1 -7.3,0.1 -3.4,0.2 -5.4,-0.1 -5.4,-4.5 0,-4.5 2.2,-4.5 5.5,-4.5 12.2,0.1 24.4,0.2 36.6,0 3.6,-0.1 4.3,1.3 4.3,4.6 0,3.3 -0.7,5 -4.3,4.5 -0.3,-0.1 -0.7,0 -1,0 -12.8,0.1 -12.8,0.1 -12.8,12.7 -0.1,4 -0.1,8.1 -0.1,12.3 z"
       transform="matrix(0.83753,0,0,0.82141,185.335,53.382)"
       id="path7"
       sodipodi:nodetypes="scccsccsccscccs"
       inkscape:label="T" /><path
       style="display:inline;fill:#8c8c8c"
       d="m 2363,136.1 c -9.3,-0.9 -9.3,-0.9 -9.3,-10.7 V 91 c -0.3,-0.1 -0.6,-0.1 -0.9,-0.2 -2.5,8.3 -5.1,16.7 -7.6,25 -1.7,5.5 -3.6,10.9 -4.9,16.5 -1,4.4 -4.1,3.3 -6.9,3.5 -2.9,0.3 -4.2,-0.9 -5,-3.8 -3.3,-11.7 -6.8,-23.4 -10.3,-35 -0.5,-1.6 -0.5,-3.4 -2,-4.6 -1.7,0.9 -1,2.5 -1,3.7 0,12 -0.1,24 0.2,36 0.1,3.3 -1.2,3.9 -4,3.7 -2.4,-0.2 -5.4,0.9 -5.4,-3.5 0.1,-17.4 0.1,-34.8 0,-52.2 0,-2.5 1.1,-3.2 3.5,-3.3 10.8,-0.7 10.7,-0.8 13.8,9.6 3.5,11.8 7.2,23.6 10.8,35.5 1.9,-0.4 1.6,-2 2,-3.2 3.8,-12.5 7.8,-24.9 11.4,-37.4 1,-3.5 2.6,-4.8 6.2,-4.5 3.1,0.3 6.2,-0.1 9.4,-0.2 z"
       transform="matrix(0.83753,0,0,0.82141,185.335,53.382)"
       id="path6"
       sodipodi:nodetypes="csccccccccscccccccccccc"
       inkscape:label="M" /></g></g>
<g
   id="g5"
   inkscape:label="Console &amp; Gamepad"
   transform="translate(0,-6)"
   style="display:inline"><path
     id="text4"
     style="font-weight:900;font-stretch:semi-condensed;font-size:131.282px;line-height:0;font-family:'FONTSPRING DEMO - PODIUM Sharp 4.13';-inkscape-font-specification:'FONTSPRING DEMO - PODIUM Sharp 4.13 Heavy Semi-Condensed';text-align:center;letter-spacing:0px;word-spacing:0px;text-anchor:middle;display:inline;fill:#8c8c8c;stroke-width:1.7902;stroke-linecap:round;stroke-miterlimit:4.5;paint-order:fill markers stroke"
     inkscape:label="Console &amp; Gamepad"
     d="m 741.40039,677.89453 c -2.7901,2.55895 -5.5819,5.11603 -8.37305,7.67383 6.52863,6.41508 12.34465,13.50701 17.87305,20.78906 3.66764,-2.68837 7.33494,-5.37719 11.00195,-8.0664 -6.17277,-7.40128 -12.76546,-14.45453 -19.81445,-21.0293 -0.22917,0.21094 -0.45833,0.42187 -0.6875,0.63281 z m 651.31841,1.08985 c -3.09,2.37619 -6.1796,4.7528 -9.2696,7.1289 6.872,5.40994 13.3933,11.36203 18.6956,18.35086 0.3997,0.40282 0.7532,1.176 1.1825,1.34601 3.2488,-2.49734 6.4957,-4.99707 9.745,-7.49374 -5.5571,-7.45664 -11.9382,-14.42548 -19.6502,-19.70061 -0.1976,-0.21396 -0.4973,0.30063 -0.7033,0.36858 z m -996.49419,1.02343 c -2.2299,11.8706 -5.45763,23.48452 -10.22892,34.61256 -3.85169,9.01302 -8.74349,17.58615 -14.64217,25.41869 3.16957,4.07282 6.339,8.14577 9.50586,12.22071 2.73813,-2.66285 5.29469,-5.53026 7.4082,-8.71875 0,19.48632 0,38.97265 0,58.45898 4.7526,0 9.50521,0 14.25781,0 0,-10.47266 0,-20.94531 0,-31.41797 2.83321,3.58929 5.66753,7.17771 8.5,10.76758 6.16334,-5.20119 11.76844,-11.0557 16.73047,-17.41211 0,3.9694 0,7.9388 0,11.9082 4.44401,0 8.88802,0 13.33203,0 0,8.37631 0,16.75261 0,25.12891 4.7526,0 9.50521,0 14.25781,0 0,-8.3763 0,-16.7526 0,-25.12891 4.95703,0 9.91407,0 14.8711,0 0,-3.84505 0,-7.6901 0,-11.53515 5.04701,6.23874 10.52127,12.12016 16.21484,17.77148 3.18311,-4.545 6.36397,-9.09157 9.54688,-13.63672 -7.16538,-6.62652 -14.08592,-13.65699 -20.16797,-21.24219 -6.18235,-7.70487 -11.67211,-16.04973 -15.51758,-25.17773 -0.30977,-0.79118 -0.72323,-1.75604 -1.0332,-2.58984 11.0026,0 22.0052,0 33.00781,0 0,-4.58138 0,-9.16276 0,-13.74414 -12.30729,0 -24.61459,0 -36.92188,0 0.0145,-6.53333 -0.0384,-13.09171 0.0352,-19.60938 1.18157,-0.9314 2.12414,-2.60673 1.36133,-4.08398 -0.97038,-1.69344 -3.12916,-2.00092 -4.91055,-1.94727 -3.58125,0 -7.1625,0 -10.74375,0 0,8.54688 0,17.09375 0,25.64063 -11.6237,0 -23.2474,0 -34.87109,0 0,4.58138 0,9.16276 0,13.74414 10.42122,0 20.84244,0 31.26367,0 -5.64812,12.71063 -13.4329,24.44756 -22.54537,34.85509 -3.89551,4.45861 -8.06124,8.677 -12.40971,12.69374 0,-16.29688 0,-32.59376 0,-48.89063 1.34628,-0.79848 2.50189,-2.43237 1.88086,-4.03906 -0.25099,-0.69712 -0.76628,-1.27488 -1.375,-1.68555 2.74142,-7.28718 4.83526,-14.81075 6.36719,-22.44141 1.486,-0.29497 3.01357,-1.53731 2.82422,-3.1875 -0.25608,-1.79178 -1.87176,-3.04682 -3.55365,-3.43358 -4.07316,-1.48206 -8.14726,-2.96153 -12.21979,-4.44532 -0.0749,0.38216 -0.14974,0.76432 -0.22461,1.14648 z m 736.32229,0.0586 c -4.9501,0.10642 -9.7613,2.65822 -12.6106,6.70991 -3.0909,4.33037 -3.7243,10.17164 -2.0802,15.17901 1.7718,5.34441 6.5782,9.56404 12.1459,10.50823 4.8937,0.91545 10.2948,-0.17452 14.0811,-3.51991 3.3972,-2.87308 5.5004,-7.20382 5.601,-11.65782 0.2582,-4.57532 -1.3284,-9.30784 -4.6485,-12.53 -3.2301,-3.31158 -7.9,-4.94322 -12.4887,-4.68942 z m -837.61135,2.00976 c 0,7.35938 0,14.71875 0,22.07813 -16.23959,0 -32.47917,0 -48.71875,0 0,4.58138 0,9.16276 0,13.74414 14.5319,0 29.0638,0 43.5957,0 -2.95548,6.77363 -6.58441,13.26093 -10.8125,19.25195 -6.76611,9.6538 -15.33439,18.15401 -24.99714,24.97722 -3.16772,2.25142 -6.60105,4.4221 -10.00161,6.36125 -1.18627,0.68243 -2.39334,1.32738 -3.59305,1.98575 2.50803,4.79127 5.01802,9.58152 7.5293,14.37109 9.76537,-5.5984 18.97065,-12.2445 26.99805,-20.15625 0,3.03516 0,6.07032 0,9.10547 6.66666,0 13.33333,0 20,0 0,9.23047 0,18.46094 0,27.69141 4.75195,0 9.5039,0 14.25586,0 0,-9.23047 0,-18.46094 0,-27.69141 7.00846,0 14.01692,0 21.02539,0 0,-3.86263 0,-7.72526 0,-11.58789 7.94233,7.60159 16.81199,14.18749 26.16583,19.94643 0.57296,0.58868 0.62668,-0.62811 0.93217,-0.96866 2.27073,-4.74844 4.54135,-9.49694 6.81215,-14.24535 -13.37227,-8.08742 -25.69071,-17.92966 -35.95883,-29.75489 -5.2051,-5.99447 -9.88549,-12.44881 -13.92203,-19.28612 14.72526,0 29.45052,0 44.17579,0 0,-4.58138 -10e-6,-9.16276 0,-13.74414 -16.41016,0 -32.82032,0 -49.23047,0 0.0158,-5.67735 -0.0411,-11.38388 0.0371,-17.04297 1.17097,-0.93478 2.11437,-2.59103 1.37109,-4.07031 -0.96441,-1.70411 -3.13473,-2.02216 -4.92188,-1.96485 -3.58072,0 -7.16145,0 -10.74218,0 0,0.33334 0,0.66667 0,1 z m 432.18554,1.43945 c -2.99455,2.52511 -5.98251,5.06068 -8.97461,7.58985 6.56141,6.99168 12.84182,14.18527 19.08204,21.44336 3.22478,-2.72623 6.44745,-5.45498 9.67187,-8.18164 -5.95513,-7.49384 -12.27143,-14.70718 -19.07227,-21.44727 -0.23567,0.19857 -0.47135,0.39714 -0.70703,0.5957 z m -183.01562,1.18555 c 0.77238,12.46962 1.46447,24.94529 2.31168,37.40961 0.42157,4.57036 1.36868,9.10123 2.91879,13.42438 -6.97345,4.10687 -13.9524,8.40881 -19.7543,14.11168 -4.3509,4.43109 -7.42266,10.19819 -8.20967,16.39294 -0.7871,5.41837 0.004,11.18782 2.93532,15.88411 2.33261,3.91485 5.72817,7.2782 9.93874,9.1168 6.08105,2.73077 12.86497,3.21533 19.44614,3.27067 17.13172,-0.0103 34.26383,0.002 51.39572,-0.003 0,-5.0944 0,-10.1888 0,-15.2832 -17.68584,-0.0129 -35.37261,0.0356 -53.05786,-0.0342 -3.62934,-0.16335 -7.46787,-0.36711 -10.6811,-2.24232 -2.90939,-1.97973 -4.45633,-5.73121 -3.81866,-9.19102 0.58823,-4.02002 3.30624,-7.28711 6.21254,-9.94262 1.16006,-1.07202 2.42199,-2.0442 3.5775,-2.90624 4.73885,-3.46422 10.14004,-6.25364 15.61135,-8.55975 12.96057,-5.37071 26.62239,-8.64695 40.37327,-11.27731 1.86313,-0.35349 3.73054,-0.68421 5.59546,-1.02817 -2.21743,-5.76213 -4.43122,-11.52565 -6.65039,-17.28711 -13.03992,3.63924 -26.05921,7.47375 -38.5957,12.625 -2.35704,-6.3186 -2.65467,-13.15146 -2.86719,-19.79297 -0.25047,-6.20825 -0.55269,-12.46664 -0.75977,-18.67383 1.31398,-0.97267 2.46312,-2.66012 1.82618,-4.3457 -0.76623,-1.82322 -2.843,-2.37738 -4.60743,-2.70703 -4.39726,-0.0503 -8.80413,-0.007 -13.20507,-0.0215 0.0215,0.35352 0.043,0.70704 0.0644,1.06055 z m 406.52344,1.45117 c -6.4249,27.698 -15.75708,54.74356 -27.58044,80.5987 -0.0998,0.79435 -0.9702,0.42437 -1.52573,0.53012 -7.21145,0.19729 -14.42399,0.35149 -21.63602,0.52548 1.80122,5.72054 3.45263,11.48278 5.35532,17.17423 0.60678,1.58593 2.24297,3.05037 4.04048,2.57477 1.38321,-0.31709 2.38328,-1.4362 3.14912,-2.56345 27.98438,-2.16537 55.96875,-4.33073 83.95313,-6.4961 2.8873,4.6934 5.77513,9.38645 8.66213,14.08008 4.8687,-3.3187 9.7361,-6.63933 14.6054,-9.95703 -10.37,-16.83048 -21.99141,-32.94941 -35.43083,-47.47594 -0.38513,-0.74611 -0.96532,0.24734 -1.45529,0.43652 -4.14152,2.89912 -8.2825,5.79903 -12.42438,8.69762 5.74131,6.21227 10.94714,12.82933 16.04101,19.55078 -15.42317,0.74154 -30.84635,1.48308 -46.26953,2.22461 10.01789,-21.97658 18.30744,-44.7484 24.61719,-68.06445 1.6559,-0.52799 3.42995,-1.77567 3.45508,-3.68555 -0.0191,-2.02724 -1.75511,-3.47418 -3.37696,-4.38476 -4.64129,-1.61452 -9.2824,-3.22958 -13.92382,-4.84375 -0.0853,0.35937 -0.17058,0.71875 -0.25586,1.07812 z m -281.62696,0.14063 c -2.19649,13.00293 -6.18453,25.79003 -12.63843,37.33053 -4.25713,7.71217 -9.6369,14.92724 -15.81772,21.2253 -0.57615,0.60084 -1.15266,1.20132 -1.72939,1.80159 4.62117,2.54453 9.24428,5.08555 13.86718,7.62695 7.15915,-7.00894 13.21403,-15.15038 17.7793,-24.07226 11.86458,-10e-4 23.72917,7.2e-4 35.59375,0.006 -0.26677,3.02707 -0.76822,6.08814 -1.43832,8.96977 -0.80494,3.48071 -1.90816,6.95861 -3.21034,10.20033 -3.43184,8.5613 -8.55201,16.36934 -14.5486,23.34748 -0.69814,0.79582 -1.46738,1.68352 -2.21731,2.4872 -4.82282,5.28815 -10.17961,10.0704 -15.7422,14.50553 -0.55242,0.44856 -1.1051,0.8968 -1.65768,1.34516 5.19489,2.93694 10.38971,5.87401 15.58593,8.80859 11.18791,-9.53213 21.07683,-20.7541 28.18673,-33.66709 6.15123,-11.11448 10.15316,-23.40756 11.78398,-36.00283 9.99414,0 19.98828,0 29.98242,0 0,-5.09375 0,-10.1875 0,-15.28125 -24.9681,0 -49.9362,0 -74.9043,0 2.51137,-6.12569 4.64172,-12.40572 6.41797,-18.78321 1.48572,-0.93403 3.1591,-2.27362 3.12891,-4.20117 -0.0928,-1.80571 -1.90581,-2.86561 -3.51235,-3.14649 -4.90546,-1.18499 -9.81241,-2.36314 -14.72007,-3.53905 -0.0632,0.34635 -0.12631,0.6927 -0.18946,1.03906 z m 710.91405,1.9043 c -3.11,2.39502 -6.2227,4.78912 -9.334,7.18359 7.4205,5.43812 13.8705,12.09064 19.6121,19.25358 0.395,0.38889 0.7251,1.34836 1.254,0.59141 3.1213,-2.40165 6.2433,-4.8024 9.3644,-7.20437 -5.9689,-7.49435 -12.5797,-14.55559 -20.2852,-20.29492 -0.2037,0.1569 -0.4075,0.3138 -0.6113,0.47071 z m -45.0019,0.0469 c -0.8635,0.0906 -1.1713,1.07205 -0.9883,1.81445 -0.041,16.19687 -0.01,32.39855 -0.018,48.59727 0,18.72148 0,37.44297 0,56.16445 5.265,0 10.53,0 15.7949,0 0,-17.5651 0,-35.13021 0,-52.69531 9.6269,2.83297 18.989,6.77016 28.1244,10.9869 5.1718,2.39022 10.272,4.93093 15.3502,7.5131 2.6773,-5.12846 5.352,-10.25826 8.0293,-15.38672 -16.6028,-8.02961 -33.7835,-14.92364 -51.5039,-20.06836 0,-9.95898 0,-19.91797 0,-29.87695 1.2797,-1.05345 2.4155,-2.75244 1.8028,-4.4668 -0.7634,-1.80647 -2.8529,-2.33726 -4.6234,-2.5013 -3.9841,-0.15133 -7.9875,-0.0216 -11.9684,-0.0807 z m -201.5528,0.93555 c 2.8717,-0.12778 5.8529,1.59474 6.7564,4.40342 0.843,2.50618 0.5932,5.54491 -1.1158,7.63812 -1.9696,2.39059 -5.4579,2.92455 -8.3007,2.02877 -2.5064,-0.747 -4.2841,-3.13232 -4.5273,-5.70176 -0.3232,-2.60907 0.467,-5.56878 2.7591,-7.08673 1.2833,-0.92952 2.8586,-1.31403 4.4283,-1.28182 z m -20.959,16.83789 c -4.4057,3.35776 -8.812,6.71735 -13.2207,10.07226 6.3234,7.29796 11.854,15.26592 16.5824,23.68225 7.6992,13.6407 13.4937,28.35179 18.1913,43.30171 0.01,0.87227 0.8199,0.16916 1.3048,0.10516 5.4868,-1.82856 10.9738,-3.65693 16.4606,-5.4856 -5.7767,-19.93914 -14.9254,-38.84194 -26.5439,-56.02561 -3.762,-5.58466 -7.7936,-10.98337 -11.9913,-16.24783 -0.261,0.19922 -0.5221,0.39844 -0.7832,0.59766 z m -52.5234,6.69531 c -1.6391,7.45605 -3.7929,14.80724 -6.5371,21.89656 -2.4418,6.33477 -5.3073,12.42596 -8.6469,18.3535 -4.4675,7.95346 -9.774,15.5103 -15.6558,22.52924 -0.3968,0.46947 -1.0555,0.97921 -0.1209,1.24394 4.8767,3.1813 9.7539,6.36193 14.6306,9.54317 13.1127,-16.70869 23.2793,-35.74475 29.6628,-56.01227 0.4435,-1.39337 0.8695,-2.79229 1.2767,-4.19672 1.6258,-0.71987 3.307,-2.14674 3.1855,-4.09179 -0.2135,-2.17233 -2.216,-3.53945 -4.0745,-4.29559 -4.4809,-2.05479 -8.9631,-4.10668 -13.4431,-6.1634 -0.092,0.39779 -0.1848,0.79557 -0.2773,1.19336 z m 157.3809,1.02539 c -4.1477,2.18244 -8.2954,4.36492 -12.4434,6.54688 5.5894,8.14354 10.004,17.01603 14.0015,26.02761 0.1123,0.87295 0.8368,0.0719 1.3138,-0.053 4.4151,-2.10224 8.8303,-4.20417 13.2453,-6.30661 -3.8875,-9.45831 -8.8377,-18.53933 -15.2967,-26.49848 -0.1474,-0.25268 -0.6009,0.25592 -0.8205,0.28364 z m 33.6621,2.78711 c -0.4798,8.04766 -1.3399,15.99412 -3.2893,23.82246 -0.9787,3.91364 -2.1928,7.78314 -3.8293,11.52812 -0.7669,1.75902 -1.5642,3.34654 -2.4729,4.95452 -2.2673,4.04796 -5.2548,7.66677 -8.749,10.71483 -8.9587,8.04037 -19.9396,13.47265 -31.2344,17.411 -1.6602,0.57609 -3.3317,1.11865 -4.9993,1.67259 3.0169,4.40646 6.0302,8.81539 9.0488,13.2207 12.7097,-4.49465 24.9735,-10.65181 35.3717,-19.31506 4.0714,-3.39412 7.9369,-7.09929 10.9731,-11.47053 5.1421,-7.28244 8.3595,-15.74642 10.5628,-24.33503 1.488,-5.87693 2.475,-11.87248 3.1764,-17.88915 1.4284,-0.86259 2.7923,-2.44478 2.3418,-4.23046 -0.553,-1.9025 -2.5693,-2.67406 -4.2832,-3.20133 -4.1768,-1.39051 -8.3536,-2.78439 -12.5313,-4.17367 -0.029,0.43033 -0.057,0.86067 -0.086,1.29101 z m -59.7637,3.87109 c -4.3522,2.17448 -8.7038,4.35029 -13.0547,6.52735 2.2059,3.19661 4.3381,6.51434 6.1982,9.85098 3.2401,5.75478 6.0103,11.75856 8.5928,17.83261 4.5844,-2.5182 9.1666,-5.04061 13.75,-7.56054 -3.8053,-9.55056 -8.5017,-18.81425 -14.7304,-27.02735 -0.252,0.12565 -0.5039,0.2513 -0.7559,0.37695 z m -422.89062,13.47461 c 0,4.76107 0,9.52214 0,14.28321 39.45312,0 78.90625,0 118.35937,0 0,-5.0944 0,-10.18881 0,-15.28321 -39.45312,0 -78.90625,0 -118.35937,0 0,0.33334 0,0.66667 0,1 z m -458.14649,4.40625 c 5.1985,7.84164 11.21208,15.14116 17.88477,21.77344 -6.27149,0 -12.54297,0 -18.81445,0 0,-7.73177 0,-15.46354 0,-23.19531 0.30989,0.47396 0.61979,0.94792 0.92968,1.42187 z m -15.18554,21.77344 c -5.17709,0 -10.35417,0 -15.53125,0 6.0259,-6.61515 11.23872,-13.96269 15.53125,-21.8125 0,7.27083 0,14.54167 0,21.8125 z M 455.85156,743.4512 c 3.71851,6.52639 7.97357,12.74217 12.60742,18.65235 -4.37109,0 -8.74218,0 -13.11328,0 0,-6.51758 0,-13.03516 0,-19.55274 0.16862,0.30013 0.33724,0.60026 0.50586,0.90039 z m -14.76367,18.65235 c -3.97591,0 -7.95182,0 -11.92773,0 4.51034,-6.00098 8.46963,-12.40769 11.92773,-19.06836 0,6.35612 0,12.71224 0,19.06836 z" /></g></svg>
