<?xml version="1.0" encoding="UTF-8" standalone="no"?>
<svg
   width="2363"
   height="800"
   style="enable-background:new 0 0 2363 800"
   xml:space="preserve"
   version="1.1"
   id="svg5"
   sodipodi:docname="wiiuh.svg"
   inkscape:version="1.3.2 (091e20e, 2023-11-25, custom)"
   xmlns:inkscape="http://www.inkscape.org/namespaces/inkscape"
   xmlns:sodipodi="http://sodipodi.sourceforge.net/DTD/sodipodi-0.dtd"
   xmlns="http://www.w3.org/2000/svg"
   xmlns:svg="http://www.w3.org/2000/svg"><defs
   id="defs5" /><sodipodi:namedview
   id="namedview5"
   pagecolor="#ffffff"
   bordercolor="#000000"
   borderopacity="0.25"
   inkscape:showpageshadow="2"
   inkscape:pageopacity="0.0"
   inkscape:pagecheckerboard="true"
   inkscape:deskcolor="#d1d1d1"
   inkscape:zoom="0.46508675"
   inkscape:cx="1179.3499"
   inkscape:cy="401.00046"
   inkscape:window-width="2560"
   inkscape:window-height="1351"
   inkscape:window-x="-9"
   inkscape:window-y="-9"
   inkscape:window-maximized="1"
   inkscape:current-layer="svg5" />
    
    
    
    <g
   id="g1"
   inkscape:label="Logo"><path
     style="fill:#0196c7"
     d="M1887.1 576.8h-215.2c-15.5 0-30.9-1.9-45.9-6.4-42.3-12.5-65.7-41.7-73.8-84.2-2.2-11.7-3.2-23.5-3.2-35.3V166.2c0-19.1 3.3-37.5 13.9-53.8 15-23 37.4-33.2 63.9-34.9 27.3-1.8 54.7-.3 82-.7 4.2-.1 3.8 2.3 3.8 5 0 32.6-.1 65.1 0 97.7.2 49.3-1.3 98.6.7 147.8 1.5 38.8 12.4 74.8 38.4 104.9 20 23.2 45.5 37.4 75 44.8 37 9.2 74.2 9.5 111.1 0 59.4-15.4 94.7-54.2 108.6-113.4 4.2-17.9 5.6-36.1 5.6-54.4-.1-75.4 0-150.8-.1-226.2 0-5.1 1.4-6.3 6.3-6.2 25.9.5 51.9-.9 77.8.7 48.7 2.9 79.2 35 79.5 83.9.3 59.7.1 119.5.1 179.2 0 38.7.1 77.3-.1 116-.1 17.3-2.7 34.4-8.7 50.7-13.3 36.7-40.2 57.4-77.5 65.6-12.4 2.8-25.1 4-37.8 4-68.2-.1-136.3-.1-204.4-.1z"
     transform="matrix(.83753 0 0 .82141 185.335 53.382)"
     id="path2"
     inkscape:label="LogoOuter" /><path
     style="fill:#0196c7"
     d="M1969.9 200.3c0 39.3.8 78.7-.3 118-.7 27-10.4 51.1-30.9 69.7-38.8 35.2-112.9 28.3-136.9-35.4-4.9-13-7.4-26.5-7.5-40.3-.1-77-.1-153.9-.2-230.9 0-3.6 1-4.7 4.6-4.7 55.5.1 111.1.1 166.6 0 4 0 4.9 1.2 4.9 5-.1 39.5-.1 79-.1 118.6h-.2z"
     transform="matrix(.83753 0 0 .82141 185.335 53.382)"
     id="path4"
     inkscape:label="LogoInner" /></g>
    <g
   id="g2"
   inkscape:label="Wii TM"><g
     id="g3"
     inkscape:label="Wii"><path
       style="display:inline;fill:#8c8c8c"
       d="m 258.8,574.3 c 6.3,-24.2 12.2,-47 18.2,-69.9 27.7,-105.5 54.9,-211.1 83.8,-316.3 3,-11.1 6.6,-22 11.8,-32.3 13.2,-26.3 33.8,-42.5 63.4,-46.1 27.1,-3.3 52.6,0.5 73.7,19.7 14.8,13.4 23.2,30.8 28.6,49.6 20.9,74.2 40.1,148.8 59.7,223.3 14.8,56.4 29.4,112.8 44.1,169.1 0.1,0.3 0.3,0.6 0.5,1 2.1,-0.2 1.4,-2.1 1.7,-3.2 24,-93.9 47.9,-187.7 71.9,-281.6 14.4,-56.3 28.8,-112.6 43,-168.9 1.1,-4.3 2.7,-5.7 7.3,-5.7 43,0.2 86,0.1 129.1,0.1 7.1,0 7,0 5.1,7 -25.1,90.3 -50.1,180.7 -75.4,271 -25.2,89.9 -49.7,180.1 -76.8,269.5 -9.1,29.9 -25.4,55 -53.2,70.9 -37.7,21.5 -96.9,17 -127.7,-33.7 -11,-18.1 -17.1,-38 -22.8,-58.1 -31.6,-111.6 -61.9,-223.6 -92.3,-335.6 -0.3,-1.2 -0.7,-2.3 -1.2,-3.8 -2.1,3.2 -2.4,6.5 -3.3,9.6 -28.1,103.4 -56.1,206.8 -85.2,310 -6.1,21.6 -11,43.5 -20.8,63.9 -10.3,21.4 -24.4,39.2 -46.1,50.2 -37.5,18.9 -86.4,9 -114.2,-22.4 -17,-19.2 -26,-42.1 -33,-66.2 C 108.4,506.4 69.9,366.9 31.1,227.4 20.9,191 10.8,154.4 0.5,117.9 -0.7,113.7 0.2,113 4.3,113 c 43.9,0.1 87.8,0.1 131.7,0 4.2,0 5.5,1.5 6.5,5.3 31.2,122.7 62.5,245.4 93.8,368.1 7,27.5 14,54.9 21,82.4 0.3,1.4 0.7,2.7 1.5,5.5 z"
       transform="matrix(0.83753,0,0,0.82141,185.335,53.382)"
       id="path1"
       sodipodi:nodetypes="ccccccccccccccscccccccccccccccccccccc"
       inkscape:label="W" /><path
       style="fill:#8c8c8c"
       d="M974.1 521.1c0-70.2.1-140.3-.1-210.5 0-5 1.3-6.3 6.3-6.3 40.7.2 81.5.2 122.2 0 4.7 0 5.7 1.4 5.7 5.9-.1 141-.1 282.1 0 423.1 0 4.6-1.2 5.8-5.8 5.8-40.9-.2-81.8-.2-122.7 0-4.7 0-5.7-1.4-5.7-5.9.1-70.7.1-141.4.1-212.1zM1246.8 521.1c0-70.2.1-140.3-.1-210.5 0-5.1 1.3-6.3 6.3-6.3 40.6.2 81.1.2 121.7 0 4.5 0 6.2.7 6.2 5.8-.2 141-.1 282.1 0 423.1 0 4.6-1.2 5.8-5.8 5.8-40.9-.2-81.8-.2-122.7 0-4.8 0-5.7-1.4-5.7-5.9.2-70.6.1-141.3.1-212z"
       transform="matrix(.83753 0 0 .82141 185.335 53.382)"
       id="path3"
       inkscape:label="ii" /><path
       style="display:inline;fill:#8c8c8c"
       d="m 960.8,154.3 c 0.1,-40.6 32.7,-74.7 71.4,-77.1 28.6,-1.7 53.1,6.7 71.3,29.2 29.2,36 18.5,88.8 -22,111.2 -39.7,22 -88,9.8 -110.5,-27.9 -6.9,-11.4 -9.9,-23.9 -10.2,-35.4 z m 432.2,-2.2 c -0.1,36.2 -24.8,65.6 -61.8,74.4 -37.9,9 -77.5,-10.7 -91.8,-45.9 -18.3,-44.8 10.2,-92.9 56.3,-101.8 33.4,-6.5 62,3.3 83.2,30.8 9.7,12.7 13.6,27.6 14.1,42.5 z"
       transform="matrix(0.83753,0,0,0.82141,185.335,53.382)"
       id="path5"
       sodipodi:nodetypes="cccccccccccc"
       inkscape:label="dotdot" /></g><g
     id="g4"
     inkscape:label="TM"><path
       style="fill:#8c8c8c"
       d="m 2281.2,110.9 c 0,7 -0.3,13.9 0.1,20.9 0.2,4.7 -2.6,3.8 -5.4,4 -2.9,0.1 -4.9,0 -4.8,-4 0.2,-13.6 -0.1,-27.2 0.2,-40.7 0.1,-4.5 -1.4,-5.9 -5.6,-5.4 -2.4,0.3 -4.9,-0.1 -7.3,0.1 -3.4,0.2 -5.4,-0.1 -5.4,-4.5 0,-4.5 2.2,-4.5 5.5,-4.5 12.2,0.1 24.4,0.2 36.6,0 3.6,-0.1 4.3,1.3 4.3,4.6 0,3.3 -0.7,5 -4.3,4.5 -0.3,-0.1 -0.7,0 -1,0 -12.8,0.1 -12.8,0.1 -12.8,12.7 -0.1,4 -0.1,8.1 -0.1,12.3 z"
       transform="matrix(0.83753,0,0,0.82141,185.335,53.382)"
       id="path7"
       sodipodi:nodetypes="scccsccsccscccs"
       inkscape:label="T" /><path
       style="display:inline;fill:#8c8c8c"
       d="m 2363,136.1 c -9.3,-0.9 -9.3,-0.9 -9.3,-10.7 V 91 c -0.3,-0.1 -0.6,-0.1 -0.9,-0.2 -2.5,8.3 -5.1,16.7 -7.6,25 -1.7,5.5 -3.6,10.9 -4.9,16.5 -1,4.4 -4.1,3.3 -6.9,3.5 -2.9,0.3 -4.2,-0.9 -5,-3.8 -3.3,-11.7 -6.8,-23.4 -10.3,-35 -0.5,-1.6 -0.5,-3.4 -2,-4.6 -1.7,0.9 -1,2.5 -1,3.7 0,12 -0.1,24 0.2,36 0.1,3.3 -1.2,3.9 -4,3.7 -2.4,-0.2 -5.4,0.9 -5.4,-3.5 0.1,-17.4 0.1,-34.8 0,-52.2 0,-2.5 1.1,-3.2 3.5,-3.3 10.8,-0.7 10.7,-0.8 13.8,9.6 3.5,11.8 7.2,23.6 10.8,35.5 1.9,-0.4 1.6,-2 2,-3.2 3.8,-12.5 7.8,-24.9 11.4,-37.4 1,-3.5 2.6,-4.8 6.2,-4.5 3.1,0.3 6.2,-0.1 9.4,-0.2 z"
       transform="matrix(0.83753,0,0,0.82141,185.335,53.382)"
       id="path6"
       sodipodi:nodetypes="csccccccccscccccccccccc"
       inkscape:label="M" /></g></g>
<g
   id="g8"
   inkscape:label="Hacks"
   transform="matrix(0.86457887,0,0,0.86457887,1055.1915,525.39877)"
   style="display:inline;fill:#0196c7;fill-opacity:1"><path
     style="font-style:italic;font-weight:bold;font-size:226.308px;line-height:0;font-family:'Continuum Bold';-inkscape-font-specification:'Continuum Bold,  Bold Italic';letter-spacing:0px;word-spacing:0px;display:inline;fill:#0196c7;stroke-width:5.9524;stroke-linecap:round;stroke-linejoin:round;paint-order:fill markers stroke;fill-opacity:1"
     d="M 494.43438,185.92154 523.39915,25.921544 h 34.28572 l -11.29626,62.400002 h 48.45715 L 606.142,25.921544 h 34.514 L 611.69152,185.92154 h -34.51428 l 11.4204,-63.08571 H 540.1405 l -11.4204,63.08571 z"
     id="text2"
     inkscape:label="H"
     aria-label="H"
     sodipodi:nodetypes="ccccccccccccc" /><path
     style="fill:#0196c7;stroke-width:0.182979;fill-opacity:1"
     id="path20"
     d="m 699.31767,180.13149 c -6.82525,4.29462 -13.9383,5.79005 -22.91093,5.79005 -21.37704,0 -45.38096,-20.26518 -38.28731,-59.16589 6.13535,-33.99258 34.31874,-59.645196 66.7965,-59.645196 31.61535,0 54.37298,19.095666 47.87343,54.967146 l -11.11992,61.02561 H 708.1753 l 9.45202,-52.18717 c 3.64278,-20.0351 0.8435,-32.13286 -17.23586,-32.13286 -15.72138,0 -26.13201,13.63155 -28.56679,27.03302 -3.16347,17.61939 4.88896,26.09358 17.50427,26.09358 6.09676,0 11.61841,-1.36123 15.64459,-2.8375 z"
     class="B"
     sodipodi:nodetypes="cscsccccscscc"
     inkscape:label="a" /><path
     d="m 838.41323,67.110545 c -34.95666,0 -63.06881,23.259605 -69.45413,59.385965 -6.38542,36.12638 17.45089,59.42503 52.40754,59.42503 18.17828,0 38.00372,-8.16969 51.71416,-22.37862 l -21.30243,-17.92751 c -7.21001,7.91943 -15.91681,13.72835 -27.34536,13.72835 -13.49943,0 -25.90578,-8.51357 -21.47633,-33.78668 4.46794,-25.23478 16.33889,-33.308179 31.6793,-33.308179 12.50805,0 19.82056,9.633149 17.70487,21.120829 h 33.56008 c -1.01668,-28.533423 -23.1166,-46.259185 -47.4877,-46.259185 z"
     style="fill:#0196c7;stroke-width:0.183008;fill-opacity:1"
     id="path6-9"
     inkscape:label="c" /><g
     id="g7"
     transform="translate(-5.5676903,-1.2445099)"
     inkscape:label="k"
     style="fill:#0196c7;fill-opacity:1"><rect
       style="display:inline;fill:#0196c7;stroke-width:4.59587;stroke-linecap:round;stroke-linejoin:round;paint-order:fill markers stroke;fill-opacity:1"
       id="rect1"
       width="34.514"
       height="162.54269"
       x="927.2041"
       y="27.597759"
       transform="matrix(1,0,-0.17618649,0.9843568,-3.13538e-7,3.5049843e-7)"
       inkscape:label="k1" /><path
       d="m 950.46289,114.61722 -3.79492,21.20117 23.43555,51.34766 h 39.14058 L 981.02148,125.32816 1028.0156,66.683624 H 988.875 Z"
       style="fill:#0196c7;stroke-width:3.68485;stroke-linecap:round;stroke-linejoin:round;paint-order:fill markers stroke;fill-opacity:1"
       id="path3-4"
       inkscape:label="k2" /></g><path
     style="font-size:178.26px;line-height:0;font-family:'SF Automaton Condensed';-inkscape-font-specification:'SF Automaton Condensed, ';text-align:end;letter-spacing:17.826px;word-spacing:0px;text-anchor:end;stroke-width:0.445651;stroke-linecap:round;stroke-miterlimit:2.7;paint-order:fill markers stroke"
     d="m 1152.374,150.23416 q 0,14.10064 -9.0522,24.98077 -9.0523,10.70604 -21.6733,10.70604 h -69.5457 v -29.68098 h 65.4548 q 3.3076,0 5.6577,-2.69827 2.4371,-2.69827 2.4371,-6.26696 0,-1.82786 -0.6963,-3.39459 -0.6093,-1.65378 -1.7408,-2.87236 -1.0445,-1.21857 -2.5242,-1.9149 -1.4797,-0.69633 -3.1335,-0.69633 h -41.4315 q -12.708,0 -21.6732,-10.79308 -9.0523,-10.88013 -9.0523,-24.89373 0,-13.926566 9.0523,-24.806692 8.9652,-10.793086 21.6732,-10.793086 h 69.5458 V 96.790977 H 1080.13 q -3.2205,0 -5.6577,2.698272 -2.3501,2.611231 -2.3501,6.179911 0,3.56868 2.3501,6.26695 2.4372,2.69828 5.6577,2.69828 h 41.5185 q 12.708,0 21.6733,10.79308 9.0522,10.88013 9.0522,24.80669 z"
     id="text4-52"
     inkscape:label="s3"
     transform="skewX(-10.246793)"
     aria-label="s" /></g></svg>
