<?xml version="1.0" encoding="UTF-8" standalone="no"?>
<svg
   xmlns:dc="http://purl.org/dc/elements/1.1/"
   xmlns:cc="http://creativecommons.org/ns#"
   xmlns:rdf="http://www.w3.org/1999/02/22-rdf-syntax-ns#"
   xmlns:svg="http://www.w3.org/2000/svg"
   xmlns="http://www.w3.org/2000/svg"
   xmlns:sodipodi="http://sodipodi.sourceforge.net/DTD/sodipodi-0.dtd"
   xmlns:inkscape="http://www.inkscape.org/namespaces/inkscape"
   version="1.1"
   width="386.75177"
   height="364.98715"
   viewBox="0 60 386.75178 364.98714"
   id="svg4217"
   inkscape:version="0.92.1 r15371"
   sodipodi:docname="Windows NT.svg">
  <metadata
     id="metadata4622">
    <rdf:RDF>
      <cc:Work
         rdf:about="">
        <dc:format>image/svg+xml</dc:format>
        <dc:type
           rdf:resource="http://purl.org/dc/dcmitype/StillImage" />
        <dc:title>Microsoft Windows Millenium Edition Logo</dc:title>
      </cc:Work>
    </rdf:RDF>
  </metadata>
  <defs
     id="defs4620" />
  <sodipodi:namedview
     pagecolor="#ffffff"
     bordercolor="#666666"
     borderopacity="1"
     objecttolerance="10"
     gridtolerance="10"
     guidetolerance="10"
     inkscape:pageopacity="0"
     inkscape:pageshadow="2"
     inkscape:window-width="1600"
     inkscape:window-height="837"
     id="namedview4618"
     showgrid="false"
     inkscape:zoom="0.5"
     inkscape:cx="219.567"
     inkscape:cy="282.24353"
     inkscape:window-x="-8"
     inkscape:window-y="-8"
     inkscape:window-maximized="1"
     inkscape:current-layer="svg4217"
     fit-margin-top="0"
     fit-margin-left="0"
     fit-margin-right="0"
     fit-margin-bottom="0"
     showguides="true"
     inkscape:guide-bbox="true" />
  <title
     id="title4219">Microsoft Windows Millenium Edition Logo</title>
  <filter
     id="shadow">
    <feGaussianBlur
       stdDeviation=".5"
       id="feGaussianBlur4222" />
  </filter>
  <g
     id="g4260"
     transform="translate(-504.29101,150.35844)">
    <g
       id="g4262" />
    <g
       id="g4268" />
  </g>
  <g
     aria-label="INDOWS"
     transform="matrix(1.5428356,0,0,4.1870299,-1331.3752,-5059.9378)"
     style="font-style:normal;font-variant:normal;font-weight:normal;font-stretch:normal;font-size:45.97811127px;line-height:1.25;font-family:'Baskerville Old Face';-inkscape-font-specification:'Baskerville Old Face';letter-spacing:0px;word-spacing:0px;fill:#000000;fill-opacity:1;stroke:none;stroke-width:1.14945281"
     id="text1200">
    <path
       d="m 949.66092,1278.5495 v 0.5164 q -1.27966,0.067 -2.08787,0.3592 -0.78576,0.2918 -1.41437,0.9429 -0.87556,0.898 -1.07761,2.4919 -0.1347,1.1899 -0.1347,2.739 v 16.5458 q 0,1.8634 0.1796,2.941 0.1796,1.0776 0.58371,1.7287 0.5837,0.898 1.50416,1.347 0.92046,0.4265 2.44708,0.5163 v 0.5164 h -14.34571 v -0.5164 q 1.30212,-0.067 2.08787,-0.3592 0.80821,-0.3143 1.41437,-0.9429 0.71841,-0.7184 0.96536,-1.8184 0.24695,-1.1001 0.24695,-3.4125 v -16.5458 q 0,-2.3124 -0.24695,-3.4125 -0.24695,-1.1 -0.96536,-1.8184 -0.60616,-0.6511 -1.41437,-0.9429 -0.8082,-0.2919 -2.08787,-0.3592 v -0.5164 z"
       style="letter-spacing:-2.95861149px;fill:#000000;stroke-width:1.14945281"
       id="path1282"
       inkscape:connector-curvature="0" />
    <path
       d="m 954.515,1282.613 v 19.5317 q 0,2.3124 0.24695,3.4125 0.2694,1.1 0.96536,1.8184 0.62861,0.6511 1.41437,0.9429 0.8082,0.2919 2.08787,0.3592 v 0.5164 h -10.34957 v -0.5164 q 1.27967,-0.067 2.06543,-0.3592 0.80821,-0.2918 1.43681,-0.9429 0.69596,-0.7184 0.94291,-1.8184 0.26941,-1.1226 0.26941,-3.4125 v -16.5683 q 0,-2.2674 -0.26941,-3.3675 -0.24695,-1.1225 -0.94291,-1.8409 -0.60615,-0.6511 -1.41436,-0.9429 -0.78576,-0.2919 -2.08788,-0.3592 v -0.5164 h 8.64335 l 18.2296,23.2585 v -16.2091 q 0,-2.3124 -0.2694,-3.4125 -0.24695,-1.1 -0.94291,-1.8184 -0.62861,-0.6511 -1.43682,-0.9429 -0.78576,-0.2919 -2.06542,-0.3592 v -0.5164 h 10.34957 v 0.5164 q -2.24503,0 -3.50224,1.3021 -0.69596,0.7184 -0.96536,1.8409 -0.24696,1.1001 -0.24696,3.3675 v 23.6177 h -1.01026 z"
       style="letter-spacing:-2.95861149px;fill:#000000;stroke-width:1.14945281"
       id="path1284"
       inkscape:connector-curvature="0" />
    <path
       d="m 980.67436,1308.6777 q 1.30211,-0.067 2.08787,-0.3592 0.78576,-0.2918 1.41437,-0.9429 0.69595,-0.7184 0.94291,-1.8184 0.2694,-1.1226 0.2694,-3.4125 v -16.5458 q 0,-2.4695 -0.3143,-3.6145 -0.29186,-1.145 -1.16742,-1.8858 -1.10006,-0.9205 -3.23283,-1.0327 v -0.5164 h 12.34763 q 4.1084,0 5.23091,0.09 4.737,0.3592 8.0372,2.694 3.143,2.2226 4.8941,5.8371 1.7512,3.592 1.7512,7.8351 0,3.0982 -1.0103,5.8595 -0.9878,2.739 -2.7614,4.5574 -2.492,2.5594 -6.2187,3.2553 -2.7838,0.5164 -5.67991,0.5164 h -16.59073 z m 9.63115,-29.4322 v 22.3155 q 0,2.2001 0.24696,3.3451 0.24695,1.145 0.92046,1.9532 1.43681,1.7511 4.66965,1.7511 2.76138,0 4.71452,-0.898 1.9757,-0.9205 3.5247,-2.9635 1.5266,-1.9756 2.3124,-4.5125 0.8082,-2.5593 0.8082,-5.4329 0,-3.188 -0.9654,-6.0616 -0.9653,-2.8736 -2.7613,-5.0288 -2.492,-2.9859 -5.94935,-3.9513 -1.88582,-0.5163 -4.80436,-0.5163 z"
       style="letter-spacing:-2.95861149px;fill:#000000;stroke-width:1.14945281"
       id="path1286"
       inkscape:connector-curvature="0" />
    <path
       d="m 1014.2423,1294.0851 q 0,-3.7717 1.6164,-6.9821 1.6164,-3.2328 4.7146,-5.635 2.3124,-1.7735 4.9839,-2.7164 2.6716,-0.9654 5.3881,-0.9654 3.4573,0 6.6902,1.5266 3.2328,1.5042 5.6574,4.2656 3.9513,4.49 3.9513,10.2148 0,2.8737 -1.0327,5.5452 -1.0328,2.6716 -3.0084,4.8717 -2.4246,2.739 -5.7472,4.2431 -3.3002,1.5042 -6.9147,1.5042 -3.5696,0 -6.8249,-1.4593 -3.2553,-1.4592 -5.6126,-4.1308 -1.8633,-2.0879 -2.8736,-4.737 -0.9878,-2.6716 -0.9878,-5.5452 z m 5.433,0.3367 q 0,6.5106 3.5471,10.9782 1.594,1.9981 3.3675,2.9185 1.7961,0.898 4.1309,0.898 2.3573,0 4.1308,-0.898 1.7961,-0.898 3.4125,-2.9185 3.5471,-4.4901 3.5471,-11.068 0,-3.6145 -0.9878,-6.8248 -0.9654,-3.2329 -2.7389,-5.4779 -1.4368,-1.8409 -3.2104,-2.6716 -1.7511,-0.8531 -4.1533,-0.8531 -2.3797,0 -4.1309,0.8307 -1.7286,0.8306 -3.2103,2.694 -1.7736,2.2226 -2.739,5.4554 -0.9653,3.2328 -0.9653,6.9371 z"
       style="letter-spacing:-2.95861149px;fill:#000000;stroke-width:1.14945281"
       id="path1288"
       inkscape:connector-curvature="0" />
    <path
       d="m 1045.6326,1278.5495 h 14.1212 v 0.5164 q -1.9756,0 -2.694,0.2918 -0.6062,0.2694 -0.9879,0.8756 -0.3816,0.6061 -0.3816,1.3694 0,0.9429 0.7184,2.6043 l 0.5837,1.3919 6.982,17.0622 4.8717,-14.7049 q 0.9429,-2.8288 0.9429,-4.2207 0,-1.0327 -0.3816,-1.9981 -0.3592,-0.9878 -0.9654,-1.5939 -0.5837,-0.5837 -1.347,-0.8307 -0.7408,-0.2469 -1.9083,-0.2469 v -0.5164 h 14.4356 v 0.5164 q -1.3246,0 -1.9308,0.09 -0.5837,0.09 -1.1,0.3816 -0.6735,0.4041 -1.1001,1.1674 -0.4041,0.7409 -0.4041,1.6164 0,0.8083 0.6286,2.8063 l 5.5228,17.8031 6.1738,-15.1539 q 1.4368,-3.4798 1.4368,-5.3881 0,-1.9981 -1.3246,-2.8287 -0.8082,-0.4939 -2.447,-0.4939 v -0.5164 h 10.3944 v 0.5164 q -1.5041,0.1571 -2.2899,0.5837 -0.7633,0.4041 -1.5266,1.5041 -1.1225,1.5715 -2.8063,5.6799 l -9.227,22.3605 h -0.9205 l -7.9923,-23.9095 -8.1045,23.9095 h -1.0103 l -10.0353,-24.1565 -0.6735,-1.6388 q -0.6959,-1.6614 -1.1674,-2.4022 -0.4714,-0.7409 -1.1449,-1.1674 -0.5389,-0.3592 -1.1675,-0.5164 -0.6286,-0.1571 -1.7735,-0.2469 z"
       style="letter-spacing:-2.95861149px;fill:#000000;stroke-width:1.14945281"
       id="path1290"
       inkscape:connector-curvature="0" />
    <path
       d="m 1093.9503,1309.1267 0.067,-9.2719 h 0.5163 q 0.943,3.5471 2.2451,5.5901 2.447,3.7716 6.1513,3.7716 2.5818,0 4.2656,-1.7286 1.6838,-1.7287 1.6838,-4.3778 0,-1.145 -0.3817,-2.3349 -0.3592,-1.1898 -0.9878,-2.0429 -0.6511,-0.8756 -1.8409,-1.6838 -1.1674,-0.8082 -3.5921,-2.043 -2.1327,-1.0776 -3.2777,-1.8184 -1.1225,-0.7409 -1.8185,-1.5042 -1.9307,-2.1103 -1.9307,-5.1411 0,-1.8634 0.7409,-3.5921 0.7633,-1.7286 2.1103,-2.9634 2.3797,-2.2001 5.635,-2.2001 1.0552,0 1.9532,0.2245 0.898,0.202 2.4021,0.8307 1.1226,0.449 1.5267,0.5837 0.4041,0.1122 0.7184,0.1122 0.7857,0 1.0551,-1.145 h 0.5164 l 0.1571,8.9128 h -0.5163 q -0.6062,-2.1328 -1.0552,-3.2553 -0.4265,-1.145 -1.0327,-2.1103 -1.1001,-1.7511 -2.4246,-2.5818 -1.3246,-0.8531 -3.0533,-0.8531 -2.5144,0 -3.9736,1.7062 -0.6062,0.696 -0.9654,1.6389 -0.3368,0.9429 -0.3368,1.8858 0,3.7492 4.8268,6.0391 l 3.1655,1.5266 q 3.6594,1.7287 5.2758,3.8166 1.841,2.3348 1.841,5.4329 0,2.0655 -0.8307,3.9513 -1.1674,2.6267 -3.5022,4.0635 -2.3349,1.4144 -5.5004,1.4144 -2.896,0 -5.5676,-1.145 -1.3919,-0.6062 -1.6613,-0.696 -0.2694,-0.09 -0.6062,-0.09 -1.0776,0 -1.4817,1.0776 z"
       style="letter-spacing:-2.95861149px;fill:#000000;stroke-width:1.14945281"
       id="path1292"
       inkscape:connector-curvature="0" />
  </g>
  <g
     aria-label="W"
     transform="matrix(1.5430682,0,0,4.1863987,-1331.3752,-5059.9378)"
     style="font-style:normal;font-variant:normal;font-weight:normal;font-stretch:normal;font-size:57.00125122px;line-height:1.25;font-family:'Baskerville Old Face';-inkscape-font-specification:'Baskerville Old Face';letter-spacing:0px;word-spacing:0px;fill:#000000;fill-opacity:1;stroke:none;stroke-width:1.4250313"
     id="text1254">
    <path
       d="m 880.33293,1271.4773 h 17.50673 v 0.6402 q -2.44927,0 -3.33992,0.3618 -0.75148,0.334 -1.22464,1.0855 -0.47315,0.7514 -0.47315,1.6978 0,1.1689 0.89064,3.2285 l 0.72365,1.7257 8.65595,21.1528 6.03969,-18.2304 q 1.16897,-3.5069 1.16897,-5.2325 0,-1.2803 -0.47316,-2.4771 -0.44532,-1.2247 -1.1968,-1.9762 -0.72365,-0.7236 -1.66996,-1.0298 -0.91848,-0.3061 -2.36577,-0.3061 v -0.6402 h 17.89639 v 0.6402 q -1.64213,0 -2.39361,0.1113 -0.72365,0.1113 -1.3638,0.4732 -0.83498,0.5009 -1.3638,1.4472 -0.50099,0.9185 -0.50099,2.004 0,1.002 0.77932,3.4791 l 6.84683,22.0713 7.65397,-18.7871 q 1.78129,-4.314 1.78129,-6.6798 0,-2.4771 -1.64212,-3.5069 -1.00198,-0.6123 -3.03376,-0.6123 v -0.6402 h 12.88651 v 0.6402 q -1.86479,0.1948 -2.83893,0.7236 -0.94631,0.501 -1.89262,1.8648 -1.39163,1.9483 -3.47908,7.0417 l -11.43921,27.7213 h -1.14114 l -9.90842,-29.6418 -10.04759,29.6418 h -1.25247 l -12.44119,-29.948 -0.83498,-2.0317 q -0.86281,-2.0596 -1.44729,-2.9781 -0.58449,-0.9185 -1.41947,-1.4473 -0.66798,-0.4453 -1.4473,-0.6402 -0.77931,-0.1948 -2.19877,-0.3061 z"
       style="fill:#000000;stroke-width:1.4250313"
       id="path1277"
       inkscape:connector-curvature="0" />
  </g>
  <g
     id="g1493"
     transform="matrix(2.4046434,-0.11991666,-0.08176383,2.6190524,820.41667,-398.86247)">
    <path
       inkscape:connector-curvature="0"
       id="path4518-2"
       d="m -224.37106,257.04181 24.92372,-60.00746 c -10.93434,-12.11224 -24.53421,-18.04869 -40.86532,-17.73896 l -25.08328,60.56121 c 15.31277,-2.03201 28.90326,3.7402 41.02488,17.18521 z"
       style="fill:#000000;fill-opacity:1;stroke-width:4.69284821" />
    <path
       inkscape:connector-curvature="0"
       id="path4520-4"
       d="m -241.72521,179.29539 -9.22145,0.54437 -3.12543,7.65873 9.22144,-0.86349 z"
       style="fill:#000000;fill-opacity:1;stroke-width:4.69284821" />
    <path
       inkscape:connector-curvature="0"
       id="path4522-2"
       d="m -245.39502,187.97246 -9.14636,0.62415 -3.19583,7.65873 9.29184,-0.85879 z"
       style="fill:#000000;fill-opacity:1;stroke-width:4.69284821" />
    <path
       inkscape:connector-curvature="0"
       id="path4524-0"
       d="m -248.98974,196.72463 -9.13697,0.53967 -3.20991,7.58834 9.29653,-0.70862 z"
       style="fill:#000000;fill-opacity:1;stroke-width:4.69284821" />
    <path
       inkscape:connector-curvature="0"
       id="path4526-9"
       d="m -252.57977,205.4721 -9.22614,0.54906 -3.12074,7.57895 9.22145,-0.78371 z"
       style="fill:#000000;fill-opacity:1;stroke-width:4.69284821" />
    <path
       inkscape:connector-curvature="0"
       id="path4528-6"
       d="m -256.17449,214.0647 -9.22145,0.54907 -3.13013,7.58364 9.29654,-0.78371 z"
       style="fill:#000000;fill-opacity:1;stroke-width:4.69284821" />
    <path
       inkscape:connector-curvature="0"
       id="path4530-0"
       d="m -259.84899,222.97173 -9.22614,0.55375 -3.12074,7.65873 9.22144,-0.7837 z"
       style="fill:#000000;fill-opacity:1;stroke-width:4.69284821" />
    <path
       inkscape:connector-curvature="0"
       id="path4532-1"
       d="m -263.52818,231.72858 -9.14167,0.55376 -3.20052,7.64934 9.29183,-0.86348 z"
       style="fill:#000000;fill-opacity:1;stroke-width:4.69284821" />
    <path
       inkscape:connector-curvature="0"
       id="path4534-2"
       d="m -260.63269,178.90119 -2.89549,6.95949 8.51752,-0.70392 2.89549,-6.87033 z"
       style="fill:#000000;fill-opacity:1;stroke-width:4.69284821" />
    <path
       style="fill:#e5360c;fill-opacity:1;stroke-width:4.69284821"
       inkscape:connector-curvature="0"
       id="path4536-6"
       d="m -258.60069,193.984 2.81571,-6.87502 -8.51752,0.61946 -2.89549,6.9548 z" />
    <path
       style="fill:#e5360c;fill-opacity:1;stroke-width:4.69284821"
       inkscape:connector-curvature="0"
       id="path4538-8"
       d="m -262.12502,202.42175 2.89549,-6.95481 -8.59261,0.69924 -2.81571,6.87502 z" />
    <path
       inkscape:connector-curvature="0"
       id="path4540-2"
       d="m -271.42155,204.92773 -2.97058,6.9548 8.67708,-0.70393 2.81101,-6.9548 z"
       style="fill:#000000;fill-opacity:1;stroke-width:4.69284821" />
    <path
       style="fill:#0c47a4;fill-opacity:1;stroke-width:4.69284821"
       inkscape:connector-curvature="0"
       id="path4542-0"
       d="m -275.17114,213.75028 -2.81102,6.95011 8.59261,-0.68516 2.8204,-6.96418 z" />
    <path
       style="fill:#0c47a4;fill-opacity:1;stroke-width:4.69284821"
       inkscape:connector-curvature="0"
       id="path4544-0"
       d="m -278.68608,222.19741 -2.81102,6.95011 8.60199,-0.70393 2.8861,-6.9548 z" />
    <path
       inkscape:connector-curvature="0"
       id="path4546-0"
       d="m -276.5743,237.19106 2.8861,-6.87502 -8.50813,0.61945 -2.89549,6.87972 z"
       style="fill:#000000;fill-opacity:1;stroke-width:4.69284821" />
    <path
       inkscape:connector-curvature="0"
       id="path4548-1"
       d="m -261.0222,175.07652 -7.18945,0.31442 -2.57637,6.17579 7.26453,-0.3989 z"
       style="fill:#000000;fill-opacity:1;stroke-width:4.69284821" />
    <path
       style="fill:#e5360c;fill-opacity:1;stroke-width:4.69284821"
       inkscape:connector-curvature="0"
       id="path4550-3"
       d="m -271.88615,184.29327 -2.57637,6.09601 7.26453,-0.38951 2.51067,-6.02092 z" />
    <path
       style="fill:#fe0000;fill-opacity:1;stroke-width:4.69284821"
       inkscape:connector-curvature="0"
       id="path4552-5"
       d="m -275.40109,192.66062 -2.50129,6.17109 7.26453,-0.3895 2.50129,-6.02093 z" />
    <path
       inkscape:connector-curvature="0"
       id="path4554-3"
       d="m -271.80637,201.17345 -7.26453,0.22995 -2.50128,6.17579 7.27391,-0.38482 z"
       style="fill:#000000;fill-opacity:1;stroke-width:4.69284821" />
    <path
       style="fill:#0c47a4;fill-opacity:1;stroke-width:4.69284821"
       inkscape:connector-curvature="0"
       id="path4556-1"
       d="m -282.7454,210.31981 -2.57637,6.17109 7.34431,-0.38481 2.49659,-6.09132 z" />
    <path
       style="fill:#0c47a4;fill-opacity:1;stroke-width:4.69284821"
       inkscape:connector-curvature="0"
       id="path4558-2"
       d="m -286.18995,218.75755 -2.50129,6.01623 7.18945,-0.30503 2.57637,-6.09601 z" />
    <path
       inkscape:connector-curvature="0"
       id="path4560-8"
       d="m -285.09182,233.21622 2.50129,-6.09601 -7.18945,0.30972 -2.57637,6.08194 z"
       style="fill:#000000;fill-opacity:1;stroke-width:4.69284821" />
    <path
       inkscape:connector-curvature="0"
       id="path4562-4"
       d="m -275.40109,172.80518 -1.79267,4.37843 5.7769,-0.23934 1.87714,-4.44882 z"
       style="fill:#000000;fill-opacity:1;stroke-width:4.69284821" />
    <path
       style="fill:#e5360c;fill-opacity:1;stroke-width:4.69284821"
       inkscape:connector-curvature="0"
       id="path4564-1"
       d="m -279.0709,181.63712 -1.79736,4.37373 5.78159,-0.22525 1.87714,-4.45821 z" />
    <path
       style="fill:#e5360c;fill-opacity:1;stroke-width:4.69284821"
       inkscape:connector-curvature="0"
       id="path4566-4"
       d="m -282.59053,190.00447 -1.79736,4.37842 5.86606,-0.15955 1.86775,-4.60838 z" />
    <path
       inkscape:connector-curvature="0"
       id="path4568-2"
       d="m -280.32389,198.44221 -5.86606,0.31442 -1.87244,4.37843 5.86606,-0.14548 z"
       style="fill:#000000;fill-opacity:1;stroke-width:4.69284821" />
    <path
       style="fill:#0c47a4;fill-opacity:1;stroke-width:4.69284821"
       inkscape:connector-curvature="0"
       id="path4570-3"
       d="m -289.85506,207.57919 -1.87245,4.4582 5.94115,-0.23464 1.79736,-4.53798 z" />
    <path
       style="fill:#0c47a4;fill-opacity:1;stroke-width:4.69284821"
       inkscape:connector-curvature="0"
       id="path4572-3"
       d="m -293.37001,216.02631 -1.80205,4.45352 5.86606,-0.23465 1.79267,-4.53329 z" />
    <path
       inkscape:connector-curvature="0"
       id="path4574-8"
       d="m -297.03981,224.76909 -1.80675,4.45821 5.86137,-0.23465 1.87714,-4.5286 z"
       style="fill:#000000;fill-opacity:1;stroke-width:4.69284821" />
    <path
       inkscape:connector-curvature="0"
       id="path4576-1"
       d="m -277.97746,170.2335 1.56272,-3.75428 -4.45352,0.62884 -1.48763,3.66981 z"
       style="fill:#000000;fill-opacity:1;stroke-width:4.69284821" />
    <path
       style="fill:#e5360c;fill-opacity:1;stroke-width:4.69284821"
       inkscape:connector-curvature="0"
       id="path4578-4"
       d="m -284.54745,175.93531 -1.56272,3.67919 4.44882,-0.54906 1.56272,-3.82467 z" />
    <path
       style="fill:#e5360c;fill-opacity:1;stroke-width:4.69284821"
       inkscape:connector-curvature="0"
       id="path4580-1"
       d="m -288.06239,184.38244 -1.56272,3.6698 4.45351,-0.54437 1.6425,-3.82467 z" />
    <path
       inkscape:connector-curvature="0"
       id="path4582-2"
       d="m -291.65712,193.12521 -1.56271,3.67919 4.37373,-0.54906 1.6425,-3.83406 z"
       style="fill:#000000;fill-opacity:1;stroke-width:4.69284821" />
    <path
       style="fill:#0c47a4;fill-opacity:1;stroke-width:4.69284821"
       inkscape:connector-curvature="0"
       id="path4584-2"
       d="m -295.32692,201.96184 -1.47825,3.66512 4.36904,-0.53967 1.56741,-3.74959 z" />
    <path
       style="fill:#0c47a4;fill-opacity:1;stroke-width:4.69284821"
       inkscape:connector-curvature="0"
       id="path4586-9"
       d="m -298.84656,210.3949 -1.47825,3.6698 4.36905,-0.54437 1.56271,-3.82936 z" />
    <path
       inkscape:connector-curvature="0"
       id="path4588-2"
       d="m -302.51637,219.14706 -1.40785,3.59941 4.37843,-0.47867 1.56272,-3.82467 z"
       style="fill:#000000;fill-opacity:1;stroke-width:4.69284821" />
    <path
       inkscape:connector-curvature="0"
       id="path4590-5"
       d="m -286.18995,162.57008 -1.08874,2.50129 3.3507,-0.0798 1.1779,-2.73593 z"
       style="fill:#000000;fill-opacity:1;stroke-width:4.69284821" />
    <path
       style="fill:#e5360c;fill-opacity:1;stroke-width:4.69284821"
       inkscape:connector-curvature="0"
       id="path4592-2"
       d="m -289.77998,171.32224 -1.09343,2.58107 3.28499,-0.0798 1.08874,-2.73124 z" />
    <path
       style="fill:#e5360c;fill-opacity:1;stroke-width:4.69284821"
       inkscape:connector-curvature="0"
       id="path4594-9"
       d="m -293.29492,179.6802 -1.01835,2.58107 h 3.20052 l 1.09344,-2.73593 z" />
    <path
       inkscape:connector-curvature="0"
       id="path4596-1"
       d="m -296.89433,188.44175 -1.08874,2.57168 h 3.2803 l 1.16852,-2.73593 z"
       style="fill:#000000;fill-opacity:1;stroke-width:4.69284821" />
    <path
       style="fill:#0c47a4;fill-opacity:1;stroke-width:4.69284821"
       inkscape:connector-curvature="0"
       id="path4598-2"
       d="m -300.56414,197.34408 -1.09344,2.50129 3.28031,-0.0751 1.08874,-2.57637 z" />
    <path
       style="fill:#0c47a4;fill-opacity:1;stroke-width:4.69284821"
       inkscape:connector-curvature="0"
       id="path4600-1"
       d="m -304.07908,205.78652 -1.09344,2.57637 3.285,-0.0751 1.16382,-2.66554 z" />
    <path
       inkscape:connector-curvature="0"
       id="path4602-1"
       d="m -307.75358,214.53868 -1.01835,2.58576 3.28499,-0.0892 1.09343,-2.73593 z"
       style="fill:#000000;fill-opacity:1;stroke-width:4.69284821" />
    <path
       style="fill:#e5360c;fill-opacity:1;stroke-width:4.69284821"
       inkscape:connector-curvature="0"
       id="path4604-0"
       d="m -236.40821,208.59284 7.96845,-19.14213 c -3.90445,-1.33277 -9.06658,-1.87245 -15.46762,-1.72227 l -7.89807,19.07173 c 5.86137,-0.23933 11.0235,0.3989 15.39724,1.79267 z" />
    <path
       style="fill:#0c6d3b;fill-opacity:1;stroke-width:4.69284821"
       inkscape:connector-curvature="0"
       id="path4606-4"
       d="m -210.07664,198.59707 c -3.59472,-3.6745 -7.81829,-6.25087 -12.65661,-7.81828 l -8.12802,19.61611 5.46717,2.26664 c 2.1024,0.8541 4.5286,2.58107 7.33962,5.23722 z" />
    <path
       style="fill:#fcd844;fill-opacity:1;stroke-width:4.69284821"
       inkscape:connector-curvature="0"
       id="path4608-8"
       d="m -220.39152,223.37531 c -3.59942,-3.6041 -7.89337,-6.02561 -12.81617,-7.349 l -7.81359,18.82771 c 4.5286,1.56741 8.75685,4.14378 12.82086,7.57895 z" />
    <path
       style="fill:#0c47a4;fill-opacity:1;stroke-width:4.69284821"
       inkscape:connector-curvature="0"
       id="path4610-7"
       d="m -246.41336,232.82202 7.57425,-18.28334 c -4.76793,-1.56272 -9.91599,-2.18687 -15.38785,-1.79736 l -7.73381,18.52736 c 4.60838,-0.24872 9.76582,0.30973 15.54741,1.55334 z" />
  </g>
  <g
     aria-label="Microsoft"
     transform="matrix(0,-0.96794891,1.0331124,0,417.56886,110.98095)"
     style="font-style:normal;font-variant:normal;font-weight:normal;font-stretch:normal;font-size:41.32449341px;line-height:1.25;font-family:'Baskerville Old Face';-inkscape-font-specification:'Baskerville Old Face';letter-spacing:0px;word-spacing:0px;fill:#000000;fill-opacity:1;stroke:none;stroke-width:1.03311241"
     id="text1352">
    <path
       d="m -266.31171,-402.85356 q -1.15015,0.0605 -1.85638,0.32285 -0.68605,0.24213 -1.27121,0.82729 -0.44391,0.42374 -0.66587,0.94837 -0.22196,0.50445 -0.30267,1.29139 -0.14125,1.04925 -0.14125,2.48189 v 14.87117 q 0,2.07833 0.24214,3.08723 0.24213,1.0089 0.86765,1.61423 1.10979,1.06944 3.12759,1.17033 v 0.46409 h -12.89373 v -0.46409 q 1.17032,-0.0605 1.87655,-0.32285 0.72641,-0.28249 1.29139,-0.84748 0.62552,-0.64569 0.84748,-1.63441 0.24213,-1.0089 0.24213,-3.06705 v -18.03911 l -10.39165,24.37499 h -0.42374 l -10.33112,-24.01179 v 17.67591 q 0,2.07833 0.22195,3.06705 0.24214,0.98872 0.86766,1.63441 0.56498,0.58517 1.27121,0.84748 0.72641,0.26231 1.87655,0.32285 v 0.46409 h -9.30205 v -0.46409 q 1.15015,-0.0605 1.85638,-0.32285 0.7264,-0.26231 1.29139,-0.84748 0.62552,-0.64569 0.84747,-1.63441 0.24214,-1.0089 0.24214,-3.06705 v -14.87117 q 0,-0.92819 -0.0605,-1.75549 -0.10089,-1.49317 -0.4641,-2.17922 -0.50445,-0.94836 -1.39228,-1.39228 -0.86765,-0.46409 -2.32047,-0.5448 v -0.4641 h 8.75725 l 8.73706,21.57026 9.05991,-21.57026 h 8.29315 z"
       style="letter-spacing:-3.25999999px;stroke-width:1.03311241"
       id="path1354"
       inkscape:connector-curvature="0" />
    <path
       d="m -267.75569,-392.54262 5.79107,-0.7264 v 11.66287 l 0.0202,1.53352 q 0,1.3721 0.16143,2.0178 0.16142,0.62552 0.62551,1.04925 0.56499,0.54481 2.07834,0.8273 v 0.40356 h -8.89849 v -0.40356 q 1.21068,-0.16142 1.7353,-0.44391 0.52463,-0.30267 0.84748,-1.0089 0.22196,-0.4641 0.30267,-1.39228 0.10089,-0.94837 0.10089,-2.72403 v -4.98396 q 0,-2.07833 -0.10089,-2.90563 -0.10089,-0.84747 -0.44392,-1.3721 -0.34302,-0.56498 -0.82729,-0.80712 -0.48428,-0.26231 -1.39228,-0.32285 z m 4.19701,-7.92994 q -0.78694,0 -1.31156,-0.50445 -0.50445,-0.50445 -0.50445,-1.27121 0,-0.74659 0.52462,-1.25104 0.52463,-0.52462 1.29139,-0.52462 0.76677,0 1.2914,0.52462 0.52462,0.50445 0.52462,1.25104 0,0.76676 -0.52462,1.27121 -0.50445,0.50445 -1.2914,0.50445 z"
       style="letter-spacing:-3.25999999px;stroke-width:1.03311241"
       id="path1356"
       inkscape:connector-curvature="0" />
    <path
       d="m -246.13625,-379.58836 0.40356,0.14125 q -0.70623,2.13886 -2.15904,3.08723 -1.45282,0.94836 -3.99524,0.94836 -4.07595,0 -6.39642,-2.42135 -2.25993,-2.381 -2.25993,-6.01304 0,-1.77566 0.62551,-3.51097 0.62552,-1.7353 1.71513,-2.96616 1.23086,-1.41246 3.00652,-2.15904 1.79584,-0.74659 3.91453,-0.74659 2.9258,0 4.5804,1.31157 1.00889,0.80712 1.00889,1.77566 0,0.6457 -0.42373,1.08961 -0.42374,0.42374 -1.02908,0.42374 -1.31157,0 -1.93708,-1.91691 -0.2825,-0.88783 -0.4641,-1.21068 -0.16142,-0.32284 -0.48427,-0.56498 -0.62552,-0.46409 -1.53353,-0.46409 -1.1905,0 -2.1994,0.66587 -0.88783,0.58516 -1.51334,1.47299 -0.60534,0.86766 -1.06944,2.1994 -0.70623,2.03798 -0.70623,3.99524 0,1.79584 0.6457,3.51097 0.6457,1.71513 1.75548,2.86527 1.73531,1.81602 4.07595,1.81602 1.93709,0 3.2083,-1.23086 0.6457,-0.64569 1.23086,-2.09851 z"
       style="letter-spacing:-3.25999999px;stroke-width:1.03311241"
       id="path1358"
       inkscape:connector-curvature="0" />
    <path
       d="m -241.54702,-390.12126 q 0.72641,-1.27121 1.63442,-1.91691 1.67477,-1.1905 3.81363,-1.1905 1.31157,0 1.99762,0.58516 0.62552,0.52463 0.62552,1.29139 0,0.56499 -0.38338,0.92819 -0.36321,0.3632 -0.94837,0.3632 -0.68605,0 -1.1905,-0.56498 l -0.62551,-0.68605 q -0.74659,-0.78694 -1.75549,-0.78694 -1.3721,0 -2.13886,1.77566 -0.76677,1.77566 -0.76677,4.9436 v 3.77329 l 0.0202,1.53352 q 0,1.3721 0.16143,2.0178 0.16142,0.62552 0.62551,1.04925 0.56499,0.54481 2.07833,0.8273 v 0.40356 h -8.89848 v -0.40356 q 1.21068,-0.16142 1.7353,-0.44391 0.52463,-0.30267 0.84748,-1.0089 0.22196,-0.4641 0.30267,-1.39228 0.10089,-0.94837 0.10089,-2.72403 v -4.98396 q 0,-2.07833 -0.10089,-2.90563 -0.10089,-0.84747 -0.44392,-1.3721 -0.34302,-0.56498 -0.8273,-0.80712 -0.48427,-0.26231 -1.39228,-0.32285 v -0.40356 l 5.18574,-0.7264 q 0.34303,1.83619 0.34303,3.14776 z"
       style="letter-spacing:-3.25999999px;stroke-width:1.03311241"
       id="path1360"
       inkscape:connector-curvature="0" />
    <path
       d="m -235.50498,-384.28982 q 0,-3.26884 2.42136,-5.83144 2.94599,-3.10741 7.04211,-3.10741 4.09613,0 7.02194,3.10741 2.42136,2.58278 2.42136,5.85161 0,3.22848 -2.30029,5.75073 -2.82492,3.1074 -7.14301,3.1074 -4.31808,0 -7.16318,-3.1074 -1.10979,-1.21068 -1.71512,-2.70385 -0.58517,-1.49317 -0.58517,-3.06705 z m 3.6724,-0.22196 q 0,3.51097 1.57388,5.9525 1.77566,2.72403 4.33826,2.72403 1.08961,0 2.11869,-0.60534 1.02908,-0.60534 1.77566,-1.69495 0.78694,-1.12997 1.27121,-2.82492 0.48428,-1.71513 0.48428,-3.30919 0,-1.65459 -0.52463,-3.32936 -0.50445,-1.69495 -1.3721,-2.90563 -1.6546,-2.28011 -4.05578,-2.28011 -2.28011,0 -3.9347,2.40118 -1.67477,2.40118 -1.67477,5.87179 z"
       style="letter-spacing:-3.25999999px;stroke-width:1.03311241"
       id="path1362"
       inkscape:connector-curvature="0" />
    <path
       d="m -216.67009,-375.77472 v -5.71037 h 0.32285 q 0.56498,2.09851 1.41245,3.34955 1.55371,2.28011 3.63204,2.28011 1.27121,0 2.1994,-0.76676 1.0089,-0.84748 1.0089,-2.40118 0,-1.27122 -0.72641,-2.21958 -0.40356,-0.50445 -1.02908,-0.92819 -0.60534,-0.42373 -2.05815,-1.1905 -2.54242,-1.35192 -3.3899,-2.25993 -1.21068,-1.29139 -1.21068,-2.98634 0,-1.81602 1.21068,-3.12759 1.39228,-1.49317 3.69257,-1.49317 1.02908,0 1.91691,0.36321 l 0.68605,0.30267 q 0.32285,0.12106 0.56498,0.12106 0.38338,0 0.72641,-0.60534 h 0.40356 l 0.22196,4.5804 h -0.42374 q -0.22196,-0.96854 -0.48427,-1.5537 -0.24214,-0.58516 -0.70623,-1.12997 -0.62552,-0.76676 -1.45282,-1.1905 -0.82729,-0.44391 -1.63441,-0.44391 -1.12997,0 -1.93709,0.82729 -0.78694,0.80712 -0.78694,1.99762 0,0.98872 0.70623,1.79584 0.72641,0.78694 2.21958,1.45282 l 2.13886,0.96854 q 1.91691,0.86765 2.86528,2.15904 0.94836,1.29139 0.94836,3.04688 0,2.11869 -1.3721,3.51097 -1.57388,1.61423 -4.0356,1.61423 -1.33174,0 -2.70385,-0.52462 -0.88783,-0.34303 -1.06943,-0.38338 -0.1816,-0.0605 -0.46409,-0.0605 -0.70623,0 -1.06943,0.60534 z"
       style="letter-spacing:-3.25999999px;stroke-width:1.03311241"
       id="path1364"
       inkscape:connector-curvature="0" />
    <path
       d="m -206.02747,-384.28982 q 0,-3.26884 2.42136,-5.83144 2.94598,-3.10741 7.04211,-3.10741 4.09613,0 7.02194,3.10741 2.42136,2.58278 2.42136,5.85161 0,3.22848 -2.30029,5.75073 -2.82492,3.1074 -7.14301,3.1074 -4.31808,0 -7.16318,-3.1074 -1.10979,-1.21068 -1.71513,-2.70385 -0.58516,-1.49317 -0.58516,-3.06705 z m 3.67239,-0.22196 q 0,3.51097 1.57389,5.9525 1.77566,2.72403 4.33826,2.72403 1.08961,0 2.11869,-0.60534 1.02908,-0.60534 1.77566,-1.69495 0.78694,-1.12997 1.27121,-2.82492 0.48427,-1.71513 0.48427,-3.30919 0,-1.65459 -0.52462,-3.32936 -0.50445,-1.69495 -1.37211,-2.90563 -1.65459,-2.28011 -4.05577,-2.28011 -2.28011,0 -3.9347,2.40118 -1.67478,2.40118 -1.67478,5.87179 z"
       style="letter-spacing:-3.25999999px;stroke-width:1.03311241"
       id="path1366"
       inkscape:connector-curvature="0" />
    <path
       d="m -182.57183,-392.15924 v 10.55309 l 0.0202,1.53352 q 0,1.3721 0.16142,2.0178 0.16143,0.62552 0.62552,1.04925 0.56499,0.54481 2.07833,0.8273 v 0.40356 h -8.89848 v -0.40356 q 1.21067,-0.16142 1.7353,-0.44391 0.52463,-0.30267 0.84748,-1.0089 0.22195,-0.4641 0.30267,-1.39228 0.10089,-0.94837 0.10089,-2.72403 v -10.41184 h -2.92581 v -0.76676 h 2.92581 v -4.92342 q 0,-1.77567 0.44391,-2.80474 0.4641,-1.02908 1.63442,-1.89673 1.04925,-0.76677 2.5626,-1.1905 1.53353,-0.44392 3.22848,-0.44392 1.57388,0 2.52224,0.54481 0.94837,0.5448 0.94837,1.45281 0,0.60534 -0.40356,1.0089 -0.38338,0.40356 -0.94837,0.40356 -0.5448,0 -0.94836,-0.28249 -0.40356,-0.30267 -0.80712,-0.96855 -0.56498,-0.92818 -0.92819,-1.21067 -0.3632,-0.30267 -0.98872,-0.30267 -0.76676,0 -1.45281,0.32284 -0.68605,0.30267 -1.06943,0.80712 -0.42374,0.56499 -0.58517,1.49317 -0.16142,0.90801 -0.16142,2.64332 v 5.34716 h 3.97506 v 0.76676 z"
       style="letter-spacing:-3.25999999px;stroke-width:1.03311241"
       id="path1368"
       inkscape:connector-curvature="0" />
    <path
       d="m -175.09714,-392.926 h 5.14538 v 0.76676 h -5.14538 v 11.74359 q 0,2.11868 0.72641,3.02669 0.38338,0.50445 1.0089,0.78694 0.62551,0.2825 1.35192,0.2825 0.90801,0 1.51335,-0.36321 0.60534,-0.38338 1.33175,-1.3721 l 0.30267,0.26231 q -0.66588,1.21068 -1.87656,1.79584 -1.1905,0.58516 -2.98634,0.58516 -2.381,0 -3.47061,-0.92818 -0.58516,-0.48427 -0.76676,-1.15015 -0.1816,-0.68605 -0.1816,-2.44153 v -12.22786 h -2.15905 v -0.32284 q 1.31157,-0.42374 2.42136,-1.63442 0.66587,-0.74658 1.06943,-1.47299 0.40356,-0.74659 0.76677,-1.91691 l 0.20178,-0.66587 h 0.74658 z"
       style="letter-spacing:-3.25999999px;stroke-width:1.03311241"
       id="path1370"
       inkscape:connector-curvature="0" />
  </g>
</svg>
