<?xml version="1.0" encoding="UTF-8" standalone="no"?>
<!-- Created with Inkscape (http://www.inkscape.org/) -->

<svg
   width="500.96021mm"
   height="97.564758mm"
   viewBox="0 0 500.96021 97.564758"
   version="1.1"
   id="svg5"
   xml:space="preserve"
   sodipodi:docname="win98-w.svg"
   inkscape:version="1.2.2 (732a01da63, 2022-12-09)"
   xmlns:inkscape="http://www.inkscape.org/namespaces/inkscape"
   xmlns:sodipodi="http://sodipodi.sourceforge.net/DTD/sodipodi-0.dtd"
   xmlns="http://www.w3.org/2000/svg"
   xmlns:svg="http://www.w3.org/2000/svg"><sodipodi:namedview
     id="namedview23"
     pagecolor="#ffffff"
     bordercolor="#000000"
     borderopacity="0.25"
     inkscape:showpageshadow="2"
     inkscape:pageopacity="0.0"
     inkscape:pagecheckerboard="0"
     inkscape:deskcolor="#d1d1d1"
     inkscape:document-units="mm"
     showgrid="false"
     inkscape:zoom="0.65913419"
     inkscape:cx="947.45502"
     inkscape:cy="185.09129"
     inkscape:window-width="3440"
     inkscape:window-height="1369"
     inkscape:window-x="-8"
     inkscape:window-y="-8"
     inkscape:window-maximized="1"
     inkscape:current-layer="layer1" /><defs
     id="defs2" /><g
     id="layer1"
     transform="translate(273.60152,-148.02484)"><path
       d="m 188.36097,208.52201 c -11.60303,4.21693 -17.30824,10.08724 -17.30824,17.80434 0,11.23103 11.72712,19.15477 28.37391,19.15477 16.64679,0 27.93206,-7.82716 27.93206,-19.36141 0,-5.3467 -2.7424,-10.50078 -7.23476,-13.58741 -2.63202,-1.75009 -4.16163,-2.57691 -10.07348,-5.25039 9.30169,-3.0869 14.12504,-8.4336 14.12504,-15.64085 0,-10.61085 -9.63242,-17.51488 -24.41892,-17.51488 -15.0069,0 -25.19045,7.221 -25.19045,17.8181 0,7.41388 4.4786,12.77434 13.79405,16.57773 z m 11.06567,-4.327 c -9.64618,-2.16352 -15.66836,-7.09692 -15.66836,-12.96723 0,-6.38042 6.46298,-10.61085 16.31606,-10.61085 9.86684,0 16.10916,4.12036 16.10916,10.61085 0,6.28386 -4.82309,10.08724 -16.75686,12.96723 z m -0.99218,7.92374 c 13.80807,3.61051 19.94032,8.24072 19.94032,14.93785 0,7.30356 -7.45517,11.93377 -19.16854,11.93377 -11.60303,0 -19.16853,-4.83685 -19.16853,-12.25074 0,-7.00035 6.13225,-11.83746 18.39675,-14.62088"
       id="path1049"
       style="stroke-width:0.264583;fill:#ffffff" /><path
       d="m 148.69993,181.05561 c 10.473,0 17.52865,6.82123 17.52865,16.3023 0,8.50239 -7.99253,16.10916 -18.05226,16.10916 -9.43954,0 -16.28854,-6.61458 -16.28854,-15.40642 0,-9.97691 7.26228,-17.00504 16.81215,-17.00504 z m 19.29263,26.08633 v 1.1851 c 0,19.85751 -7.57926,30.33183 -21.05634,30.33183 -6.6421,0 -11.72713,-3.15569 -15.36515,-9.48081 l -7.24852,2.46668 c 3.8309,9.09505 11.71337,13.83559 23.33016,13.83559 17.22544,0 29.04861,-14.33168 29.04861,-37.9386 0,-21.24922 -10.67991,-33.40365 -28.22311,-33.40365 -7.86871,0 -15.24106,3.16945 -19.91254,8.59896 -3.8309,4.45109 -5.91185,9.99067 -5.91185,15.32387 0,12.93972 10.26636,22.5171 23.75747,22.5171 9.53611,0 17.43233,-4.83685 21.57994,-13.4358"
       id="path1051"
       style="stroke-width:0.264583;fill:#ffffff" /><path
       d="m -227.65662,244.17197 h 18.65868 l 8.62647,-35.07052 8.92969,35.07052 h 18.27265 l 17.65274,-61.36482 h -15.6546 l -9.39827,35.36157 -9.20538,-35.5944 h -16.99128 l -8.97096,35.93835 -9.10881,-35.93835 h -20.36736 l 17.55616,61.59765"
       id="path1053"
       style="stroke-width:0.264583;fill:#ffffff" /><path
       d="m -135.08156,244.19842 18.10755,-0.0275 v -28.42948 c 0,-4.31324 1.98438,-6.57331 5.19509,-6.57331 3.11441,0 4.74054,2.79744 4.74054,7.11068 v 27.91883 l 18.300439,-0.0275 v -30.41385 c 0,-11.69961 -4.437327,-17.08758 -15.682119,-17.08758 -6.4217,0 -11.23103,2.70086 -13.87687,7.82716 v -6.5733 l -16.77061,0.0413 -0.0138,46.23329"
       id="path1055"
       style="stroke-width:0.264583;fill:#ffffff" /><path
       d="m 23.181601,244.19842 h 13.504863 l 6.931554,-25.83815 6.297612,25.83815 H 63.613374 L 79.130128,197.93868 H 66.011292 l -6.904037,23.30264 -6.049433,-23.30264 H 38.891501 l -5.856552,22.6687 -6.697133,-22.6687 H 7.8169827 L 23.18213,244.19842"
       id="path1057"
       style="stroke-width:0.264583;fill:#ffffff" /><path
       d="m 72.129517,230.90047 c 2.742407,9.20538 11.699611,14.3039 25.920965,14.3039 15.695878,0 25.259508,-7.05564 25.259508,-16.43988 0,-3.83091 -1.57099,-7.1382 -4.58894,-9.64618 -3.70681,-3.0316 -8.0891,-3.65178 -13.44956,-4.54766 -9.260417,-1.51585 -13.876867,-1.15755 -13.835592,-4.02379 0.01323,-1.5296 1.84658,-3.19696 5.553604,-3.19696 4.575178,0 7.496438,1.50207 9.260418,4.36828 l 15.0069,-2.42533 c -3.30729,-7.9375 -11.3964,-12.30578 -23.288888,-12.30578 -14.827779,0 -23.399221,6.77995 -23.399221,15.88876 0,3.92748 2.039514,7.67557 5.553604,10.18382 4.382029,3.11441 9.260417,3.8309 14.814021,4.72678 6.917794,1.15755 10.624604,0.82682 10.914064,3.38984 0.2204,1.77765 -2.42536,3.12817 -7.014106,3.12817 -6.43546,0 -10.032206,-1.79144 -10.914062,-5.18134 l -15.79245,1.77766"
       id="path1059"
       style="stroke-width:0.264583;fill:#ffffff" /><path
       d="m -57.415773,224.64307 c 0,2.27375 0.192882,3.91372 -1.157578,5.92561 -1.061085,1.54342 -2.315104,2.37024 -4.244446,2.37024 -5.9944,0 -6.821223,-7.2898 -6.807465,-11.3964 0.02752,-8.57144 2.508039,-13.57365 6.904038,-13.58741 1.543394,0 3.279775,0.64768 4.147873,1.8328 1.254019,1.46071 1.157578,3.63802 1.157578,5.47079 z m 18.837804,19.51302 v -62.53427 h -18.603383 v 19.77496 c -2.990321,-2.82496 -7.041885,-4.74054 -11.78216,-4.74054 -14.869054,0 -19.940323,12.48489 -19.940323,24.43268 0,11.47895 5.167577,23.97787 19.361415,23.97787 6.187281,0 10.335154,-2.01195 13.132593,-7.11068 h 0.192881 v 6.2013 h 17.638977"
       id="path1061"
       style="stroke-width:0.264583;fill:#ffffff" /><path
       d="m -12.201127,233.95905 c -4.5339,0 -7.482682,-4.16163 -7.482682,-12.81589 0,-8.66775 2.92153,-12.81588 7.468923,-12.81588 4.5476585,0 7.468923,4.14787 7.468923,12.81588 0,8.65399 -2.9077708,12.81589 -7.455164,12.81589 z m -0.02752,11.63055 c 15.8199663,0 26.334243,-9.82556 26.334243,-24.44644 0,-14.71745 -10.5145412,-24.4602 -26.334243,-24.4602 -15.723394,0 -26.320485,9.74275 -26.320485,24.4602 0,14.62088 10.597091,24.44644 26.320485,24.44644"
       id="path1063"
       style="stroke-width:0.264583;fill:#ffffff" /><path
       d="m -273.60152,182.60078 h 3.91372 v -30.52233 l 12.26449,30.52233 h 3.21072 l 12.4161,-30.33183 v 30.33183 h 4.42357 v -34.09156 h -6.60082 l -11.43768,28.62262 -11.548,-28.62262 h -6.6421 v 34.09156"
       id="path1067"
       style="stroke-width:0.264583;fill:#ffffff" /><path
       d="m -230.89512,152.21418 h 4.14787 v -3.70681 h -4.14787 z m 0,30.38475 h 4.14787 v -25.31454 h -4.14787 z"
       id="path1069"
       style="stroke-width:0.264583;fill:#ffffff" /><path
       d="m -193.89579,182.60078 h 4.18915 v -12.82965 c 0,-5.80151 3.43138,-9.35699 8.77808,-9.35699 h 0.70281 v -3.76211 c -0.53745,-0.0413 -1.03354,-0.0964 -1.51585,-0.0964 -3.87218,0 -6.49049,2.10842 -8.18542,6.33889 v -5.60864 h -3.96875 v 25.31454"
       id="path1071"
       style="stroke-width:0.264583;fill:#ffffff" /><path
       d="m -166.9956,183.03999 c 7.45516,0 12.6365,-5.16758 12.6365,-13.21541 0,-8.08911 -5.18134,-13.21541 -12.6365,-13.21541 -7.41389,0 -12.5402,5.1263 -12.5402,13.21541 0,8.04783 5.12631,13.21541 12.5402,13.21541 z m 0,-3.11441 c -4.79558,0 -8.0063,-3.72057 -8.0063,-10.101 0,-6.43546 3.15569,-10.101 8.0063,-10.101 4.8506,0 8.06158,3.70681 8.06158,10.101 0,6.33889 -3.26601,10.101 -8.06158,10.101"
       id="path1073"
       style="stroke-width:0.264583;fill:#ffffff" /><path
       d="m -113.48627,183.03999 c 7.46892,0 12.65052,-5.16758 12.65052,-13.21541 0,-8.08911 -5.18133,-13.21541 -12.65052,-13.21541 -7.40013,0 -12.52644,5.1263 -12.52644,13.21541 0,8.04783 5.12631,13.21541 12.52644,13.21541 z m 0,-3.11441 c -4.78182,0 -8.00629,-3.72057 -8.00629,-10.101 0,-6.43546 3.16944,-10.101 8.00629,-10.101 4.8506,0 8.07535,3.70681 8.07535,10.101 0,6.33889 -3.27978,10.101 -8.07535,10.101"
       id="path1075"
       style="stroke-width:0.264583;fill:#ffffff" /><path
       d="m -89.784897,157.28545 c 0,-0.28938 -0.05514,-0.63389 -0.05514,-0.92329 0,-3.55547 1.570963,-5.20912 5.002212,-5.20912 0.77171,0 1.915477,0.0827 3.390106,0.33073 v -3.11441 c -1.364244,-0.24805 -2.728383,-0.34452 -4.147873,-0.34452 -5.66367,0 -8.33702,2.97657 -8.33702,9.06754 v 0.19293 h -4.960938 v 2.74241 h 4.960938 v 22.5724 h 4.147872 v -22.5724 h 10.569575 v 13.25668 c 0,3.21072 0,5.55361 1.143768,7.01411 1.584748,2.09462 3.872177,2.97656 7.193227,2.97656 1.143767,0 2.342673,-0.15158 3.486414,-0.38584 v -3.11441 c -1.033515,0.23429 -2.011944,0.27559 -2.894012,0.27559 -4.244446,0 -4.74054,-1.98438 -4.74054,-6.66962 v -13.35325 h 6.655858 v -2.74241 h -6.655858 v -6.33889 l -4.189148,0.39963 v 5.93936 H -89.78503"
       id="path1077"
       style="stroke-width:0.264583;fill:#ffffff" /><path
       d="m -202.78315,166.07729 3.91372,-0.53743 c -0.92329,-5.70494 -4.72678,-8.92968 -10.05972,-8.92968 -7.41389,0 -12.52644,5.16757 -12.52644,13.22916 0,8.17166 4.85061,13.24293 11.86498,13.24293 5.66367,0 9.63242,-3.12817 10.72118,-8.73681 l -3.74835,-0.64767 c -0.86815,3.96875 -3.43138,6.15976 -6.80747,6.15976 -4.40981,0 -7.51019,-3.70681 -7.51019,-10.01844 0,-6.39419 3.26601,-10.101 7.62053,-10.101 3.26601,0 5.9944,2.34267 6.53176,6.33888"
       id="path1079"
       style="stroke-width:0.264583;fill:#ffffff" /><path
       d="m -151.42488,175.76395 c 1.29535,4.51987 5.51207,7.19322 11.63056,7.19322 6.38043,0 10.59709,-3.30729 10.59709,-7.77213 0,-3.84466 -2.75616,-5.82904 -8.54393,-7.15195 -5.36045,-1.21267 -8.48862,-1.26778 -8.48862,-4.36827 0,-2.38401 2.10838,-3.94124 5.62239,-3.94124 3.34857,0 5.51207,1.35049 6.38043,3.94124 l 3.8309,-0.73036 c -1.35048,-4.09284 -4.91966,-6.32513 -10.04596,-6.32513 -6.06346,0 -9.96315,3.25226 -9.96315,7.48268 0,4.18915 2.82495,5.78776 8.87465,7.11068 5.08503,1.11622 8.00629,1.4056 8.00629,4.46484 0,2.43914 -2.384,4.23069 -6.27009,4.23069 -3.84466,0 -6.76619,-1.75011 -7.89623,-4.80933 l -3.73459,0.67524"
       id="path1081"
       style="stroke-width:0.264583;fill:#ffffff" /><path
       d="m -157.07373,194.23186 h 18.32795 v -11.42391 h -18.32795 z"
       id="path1085"
       style="stroke-width:0.264583;fill:#ffffff" /><path
       d="m -157.07373,244.17197 h 18.32795 v -46.24652 h -18.32795 z"
       id="path1087"
       style="stroke-width:0.264583;fill:#ffffff" /></g></svg>
