<?xml version="1.0" encoding="UTF-8"?>
<!-- Created with Inkscape (http://www.inkscape.org/) -->
<svg width="5782.1" height="943.56" version="1.1" viewBox="0 0 5782.1 943.56" xmlns="http://www.w3.org/2000/svg">
 <g transform="translate(1116.2 23.4)">
  <path d="m0 326.04h36.979v-287.86l115.62 287.86h30.312l117.14-286.04v286.04h41.615v-321.46h-62.135l-107.92 269.95-108.96-269.95h-62.656v321.46"/>
  <path d="m402.81 39.531h39.062v-34.948h-39.062zm0 286.51h39.062v-238.7h-39.062v238.7"/>
  <path d="m751.72 326.04h39.531v-120.94c0-54.739 32.396-88.281 82.76-88.281h6.6667v-35.417c-5.1563-0.469-9.7917-0.937-14.375-0.937-36.51 0-61.146 19.792-77.083 59.792v-52.917h-37.5v238.7"/>
  <path d="m1005.4 330.21c70.417 0 119.22-48.75 119.22-124.64 0-76.354-48.802-124.64-119.22-124.64-69.844 0-118.18 48.281-118.18 124.64 0 75.885 48.333 124.64 118.18 124.64zm0-29.427c-45.208 0-75.521-34.948-75.521-95.208 0-60.729 29.792-95.208 75.521-95.208 45.729 0 76.042 34.948 76.042 95.208 0 59.792-30.781 95.208-76.042 95.208"/>
  <path d="m1510.1 330.21c70.364 0 119.22-48.75 119.22-124.64 0-76.354-48.854-124.64-119.22-124.64-69.896 0-118.18 48.281-118.18 124.64 0 75.885 48.281 124.64 118.18 124.64zm0-29.427c-45.208 0-75.521-34.948-75.521-95.208 0-60.729 29.792-95.208 75.521-95.208s76.042 34.948 76.042 95.208c0 59.792-30.833 95.208-76.042 95.208"/>
  <path d="m1733.5 87.344c0-2.7083-0.521-5.9375-0.521-8.6979 0-33.594 14.896-49.219 47.24-49.219 7.1875 0 18.021 0.885 31.875 3.2292v-29.479c-12.864-2.2916-25.677-3.177-39.062-3.177-53.438 0-78.594 28.021-78.594 85.521v1.8229h-46.771v25.781h46.771v212.92h39.062v-212.92h99.688v125.05c0 30.365 0 52.448 10.781 66.25 14.896 19.74 36.51 28.021 67.812 28.021 10.833 0 22.135-1.3542 32.917-3.6458v-29.427c-9.7394 2.2916-19.01 2.7083-27.239 2.7083-40.052 0-44.688-18.854-44.688-62.969v-125.99h62.656v-25.781h-62.656v-59.792l-39.583 3.6979v56.094h-99.688"/>
  <path d="m667.92 170.31 36.927-5.1041c-8.698-53.854-44.635-84.271-94.948-84.271-69.792 0-118.07 48.802-118.07 124.84 0 76.927 45.677 124.84 111.93 124.84 53.385 0 90.833-29.479 101.09-82.5l-35.365-5.9376c-8.2291 37.292-32.396 58.021-64.219 58.021-41.562 0-70.781-35-70.781-94.427 0-60.365 30.781-95.365 71.823-95.365 30.781 0 56.458 22.083 61.615 59.896"/>
  <path d="m1152.2 261.61c12.24 42.656 52.031 67.864 109.69 67.864 60.156 0 99.948-31.146 99.948-73.385 0-36.198-26.042-55-80.573-67.396-50.521-11.458-80.104-11.927-80.104-41.25 0-22.5 19.896-37.188 53.073-37.188 31.615 0 52.031 12.865 60.156 37.188l36.25-6.8751c-12.76-38.542-46.458-59.635-94.896-59.635-57.135 0-93.854 30.729-93.854 70.625 0 39.427 26.51 54.583 83.646 66.927 47.969 10.573 75.521 13.333 75.521 42.187 0 22.969-22.448 39.948-59.167 39.948-36.25 0-63.802-16.51-74.479-45.417l-35.208 6.4063"/>
  <path d="m4003.6 365.36c90 0 150.57 58.542 150.57 140 0 72.969-68.594 138.28-155 138.28-81.094 0-139.9-56.823-139.9-132.34 0-85.677 62.396-145.94 144.32-145.94zm165.73 224.01v10.156c0 170.52-65.052 260.47-180.83 260.47-57.031 0-100.68-27.135-131.87-81.458l-62.344 21.198c32.969 78.073 100.68 118.8 200.42 118.8 147.86 0 249.43-123.02 249.43-325.78 0-182.4-91.719-286.77-242.29-286.77-67.708 0-130.94 27.136-171.04 73.802-32.969 38.177-50.781 85.729-50.781 131.51 0 111.15 88.229 193.44 204.01 193.44 81.979 0 149.64-41.562 185.31-115.36"/>
  <path d="m4210.6 782.86c37.396 87.396 117.55 135.73 224.48 135.73 69.479 0 131.82-24.583 175.52-68.698 36.51-37.344 55.208-84.01 55.208-138.28 0-116.25-88.177-199.38-212.92-199.38-65 0-114.9 22.917-148.75 64.479l10.677-195.99h311.82l2.6561-62.76h-368.8l-17.813 320.68 58.75 10.156c28.542-51.719 78.385-79.74 136.3-79.74 86.406 0 152.34 61.927 152.34 144.22 0 84.01-67.708 145.94-162.14 145.94-72.135 0-123.8-33.958-150.52-98.437l-66.823 22.083"/>
  <path d="m1306.5 906.93 170.68-0.26v-268.07c0-40.729 18.698-61.927 49.01-61.927 29.375 0 44.688 26.302 44.688 67.031v263.23l172.66-0.26v-286.77c0-110.26-41.875-161.2-147.86-161.2-60.573 0-106.04 25.469-130.99 73.802v-61.927l-158.07 0.416-0.107 435.94"/>
  <path d="m2798.8 906.93h127.4l65.364-243.59 59.375 243.59h129.17l146.41-436.2h-123.8l-65.052 219.74-56.979-219.74h-133.65l-55.208 213.8-63.229-213.8h-174.64l144.84 436.2"/>
  <path d="m433.39 906.67h175.89l81.458-330.62 84.115 330.62h172.34l166.46-578.65h-147.66l-88.594 333.39-86.823-335.62h-160.26l-84.583 338.96-85.885-338.96h-192.03l165.57 580.89"/>
  <path d="m1271.8 328.02h-172.76v107.76h172.76z"/>
  <path d="m1271.8 470.57h-172.76v436.09h172.76z"/>
  <path d="m2038.9 722.55c0 21.51 1.823 36.979-10.937 55.885-10 14.636-21.875 22.344-40.052 22.344-56.458 0-64.219-68.75-64.167-107.45 0.208-80.885 23.646-128.07 65.052-128.12 14.583 0 30.99 6.0416 39.167 17.24 11.823 13.75 10.937 34.375 10.937 51.562zm177.6 183.96v-589.74h-175.36v186.56c-28.229-26.667-66.458-44.687-111.09-44.687-140.26 0-188.02 117.76-188.02 230.36 0 108.33 48.698 226.09 182.55 226.09 58.281 0 97.448-18.906 123.85-67.031h1.823v58.437h166.25"/>
  <path d="m2465.3 810.36c-42.864 0-70.625-39.115-70.625-120.83 0-81.719 27.552-120.83 70.417-120.83s70.521 39.115 70.521 120.83c0 81.719-27.448 120.83-70.312 120.83zm-0.312 109.79c149.11 0 248.28-92.76 248.28-230.62 0-138.75-99.167-230.63-248.28-230.63-148.28 0-248.33 91.875-248.33 230.63 0 137.86 100.05 230.62 248.33 230.62"/>
  <path d="m3260.6 781.67c25.729 86.719 110.31 134.69 244.48 134.69 148.02 0 238.07-66.51 238.07-154.9 0-36.25-14.688-67.396-43.177-90.938-34.948-28.646-76.302-34.531-126.88-42.969-87.292-14.323-130.83-10.937-130.52-37.865 0.208-14.479 17.5-30.26 52.396-30.26 43.229 0 70.781 14.219 87.344 41.198l141.56-22.76c-31.25-74.948-107.55-116.2-219.69-116.2-139.74 0-220.62 64.01-220.62 149.9 0 37.031 19.323 72.396 52.396 95.99 41.354 29.479 87.344 36.198 139.74 44.635 65.26 10.938 100.1 7.8125 102.92 31.979 1.9792 16.719-22.969 29.479-66.146 29.479-60.677 0-94.688-16.823-102.97-48.854l-148.91 16.875"/>
  <g transform="matrix(31.718 0 0 31.718 -5337.2 -5635)">
   <path d="m147.45 199.64 3.2812-8.125c1.5625-0.0859 4.0977 0.26563 5.668 0.64453l-3.375 8.3594c-1.5312-0.37891-4.043-0.83985-5.5742-0.87891" fill="#3d87cf"/>
   <path d="m162.2 195.43-3.4102 8.3984c-1.1406-0.9375-4.2656-2.7188-5.7656-3.3086l3.375-8.3594c1.5273 0.54297 4.7891 2.1797 5.8008 3.2695" fill="#fac705"/>
   <path d="m165.54 187.65-3.3477 7.7812c-1.0938-1-4.2578-2.707-5.8008-3.2695l3.3828-8.375c1.543 0.51563 4.7617 2.7188 5.7656 3.8633" fill="#66c557"/>
   <path d="m150.73 191.52 3.3281-8.2227c1.5586-0.0547 4.1562 0.19141 5.7226 0.49219l-3.3828 8.375c-1.5508-0.42578-4.1172-0.67578-5.668-0.64453" fill="#f3632e"/>
   <path d="m139.46 194.54-1.6055-0.0273c0.10937-0.32422 0.25-0.6875 0.38672-0.99219l1.6211-4e-3c-0.11719 0.33204-0.25781 0.69141-0.40234 1.0234" fill="#3d87cf"/>
   <path d="m141.94 195.88-2.0234-0.0117 0.56641-1.375c0.66797-4e-3 1.3438 0 2.0156 0.0234l-0.55859 1.3633" fill="#3d87cf"/>
   <path d="m145.3 195.54c-0.23437 0.53906-0.43359 1.1172-0.67578 1.6602l-2.2773-0.0273 0.67187-1.6484 2.2812 0.0156" fill="#3d87cf"/>
   <path d="m137.3 192.89-1.168-8e-3c0.0937-0.26953 0.21094-0.57031 0.33203-0.83985 0.39844-4e-3 0.79688-0.0273 1.1953-0.0117l-0.35938 0.85937" fill="#3d87cf"/>
   <path d="m135.19 191.18c-0.30078 8e-3 -0.60547 0.0391-0.90625 0.0312l0.29297-0.71093c0.30078-0.0156 0.60156-0.0312 0.90234-0.0312l-0.28906 0.71093" fill="#3d87cf"/>
   <path d="m140.52 191.9-1.6094-0.0195 0.38671-0.98828c0.54688 0.0156 1.0938-0.0156 1.6367 4e-3l-0.41406 1.0039" fill="#3d87cf"/>
   <path d="m142.99 193.26-2.0078-8e-3 0.54297-1.3672c0.67578-4e-3 1.3516-8e-3 2.0274 8e-3l-0.5625 1.3672" fill="#3d87cf"/>
   <path d="m145.7 194.55-2.2852-0.0508 0.66406-1.6211 2.2774 0.0234-0.65625 1.6484" fill="#3d87cf"/>
   <path d="m138.41 190.16c-0.39063-0.0117-0.79297 0.0195-1.1875-4e-3l0.35937-0.88672 1.1641 0.0312c-0.0859 0.27734-0.20703 0.58203-0.33594 0.85938" fill="#3d87cf"/>
   <path d="m136.29 188.46-0.90235 0.0195 0.27735-0.70703c0.29297-0.0273 0.60937-0.0273 0.91406-0.0273l-0.28906 0.71484" fill="#3d87cf"/>
   <path d="m142.71 186.48-1.6133-0.0117 0.39453-1.0078c0.54297 8e-3 1.0859 0 1.6328 0.0117l-0.41406 1.0078" fill="#f3632e"/>
   <path d="m143.18 187.84 0.54297-1.3828h2.0117l-0.54297 1.3828h-2.0117" fill="#f3632e"/>
   <path d="m147.92 189.04-2.2852-0.0156 0.66015-1.6445 2.2812 8e-3 -0.65625 1.6523" fill="#f3632e"/>
   <path d="m140.61 184.72c-0.38281 0.0195-0.78515 0-1.1758 8e-3l0.32813-0.875c0.38281-0.0312 0.78906 0.0156 1.1758 4e-3l-0.32813 0.86328" fill="#f3632e"/>
   <path d="m138.48 183.01c-0.30078 8e-3 -0.60156 0.0391-0.90625 0.0273l0.29688-0.71094 0.89453-0.043-0.28516 0.72656" fill="#f3632e"/>
   <path d="m143.8 183.78c-0.53906 0-1.0781-8e-3 -1.6172-0.0312l0.39844-0.98828c0.54297 8e-3 1.0859-0.0117 1.6289 4e-3l-0.41016 1.0156" fill="#f3632e"/>
   <path d="m146.27 185.14c-0.67187 0-1.3477 0.0117-2.0234-8e-3l0.5625-1.375c0.67578-8e-3 1.3477 4e-3 2.0234 8e-3l-0.5625 1.375" fill="#f3632e"/>
   <path d="m148.96 186.45-2.2695-0.0234 0.66016-1.6524 2.2852 0.0156-0.67578 1.6602" fill="#f3632e"/>
   <path d="m141.69 182.02h-1.1797l0.34765-0.88672c0.39844 0.0195 0.78907 0 1.1836 0.0234l-0.35156 0.86328" fill="#f3632e"/>
   <path d="m139.58 180.3-0.90625 0.0391 0.28125-0.71484c0.30078-0.0352 0.60547-0.0195 0.90625-0.0391l-0.28125 0.71485" fill="#f3632e"/>
   <path d="m138.44 197.3c-0.63672 8e-3 -1.2773 4e-3 -1.918-0.0156l0.45703-1.1328c0.64063 0 1.2852 0.0195 1.9336 0.0117l-0.47266 1.1367"/>
   <path d="m153.11 184.74-2.8711 0.0195 1.0078-2.5039c0.97656-0.10938 1.9609-0.21485 2.9414-0.1836l-1.0781 2.668"/>
   <path d="m140.71 177.73-1.0898 0.0234 0.31641-0.8086c0.36718-8e-3 0.73437-0.0234 1.1016-0.0234l-0.32813 0.8086"/>
   <path d="m142.88 179.33c-0.48438-0.0156-0.96875-0.0117-1.457-0.0312l0.38281-0.9375c0.48828 0.0156 0.97656-8e-3 1.4648 0.0234l-0.39062 0.94531"/>
   <path d="m150.19 183.86-2.7148-0.0117 0.78906-1.9727 2.7188 0.0234-0.79297 1.9609"/>
   <path d="m145.1 182.48 0.58985-1.4922 2.3945 4e-3 -0.60157 1.5039-2.3828-0.0156"/>
   <path d="m144.98 181.11-1.9219-0.0156 0.44532-1.125c0.64062 0 1.2852-0.0234 1.9336 0l-0.45703 1.1406"/>
   <path d="m152.06 187.35c-0.95703 0.0234-1.918 0.0391-2.8789 0.043l0.9375-2.3164 2.8633-0.0117-0.92187 2.2852"/>
   <path d="m150.98 190.01-2.8711 0.0391-0.0156-8e-3 0.92968-2.3164 2.8945-0.043-0.9375 2.3281"/>
   <path d="m136.37 185.81 0.31641-0.80078 1.1055-0.0391-0.32422 0.82421-1.0977 0.0156"/>
   <path d="m147.04 192.68 0.92578-2.3086 2.875-0.0352-0.91797 2.3125-2.8828 0.0312"/>
   <path d="m139.59 187.47-1.457-0.0195 0.38281-0.9375c0.48828 0.0156 0.97265-8e-3 1.4609 0.0234l-0.38672 0.93359"/>
   <path d="m146.91 191.97-2.7148-0.0195 0.78125-1.9609 2.7226 0.0234-0.78906 1.957"/>
   <path d="m144.2 190.63-2.3711-8e-3 -0.0195-8e-3 0.60547-1.4883 2.3906 4e-3 -0.60547 1.5"/>
   <path d="m141.69 189.26-1.918-0.0195 0.44141-1.125c0.64843-8e-3 1.3008-4e-3 1.9492 8e-3l-0.47266 1.1367"/>
   <path d="m148.84 195.33-0.0117 0.0273-2.875 0.0352 0.94141-2.3711 2.8906-0.0312-0.94532 2.3398"/>
   <path d="m147.76 198-2.8828 0.0703-0.0195-8e-3 0.95703-2.3477 2.8711-0.0273-0.92578 2.3125"/>
   <path d="m134.17 193.94c-0.36328-0.0117-0.72656 0.0234-1.0898 0l0.31641-0.77344c0.37109-0.0312 0.74219-0.0234 1.1172-0.0391l-0.34375 0.8125"/>
   <path d="m146.61 200.84c-0.96094-0.0234-1.918-0.0312-2.8828 0.0469l1.0039-2.4922 2.8945-0.0508-1.0156 2.4961"/>
   <path d="m136.31 195.62-1.4688 8e-3 0.36328-0.93359c0.4961 0 0.98438-0.0156 1.4805-4e-3l-0.375 0.92969"/>
   <path d="m143.65 200.04-2.7031-0.03906 0.79297-1.957 2.7031 0.0273-0.79297 1.9688"/>
   <path d="m138.57 198.67 0.60546-1.5078 2.3789 0.0156-0.60547 1.5117-2.3789-0.0195"/>
   <path d="m164.05 188.08c-1.0039-1.1445-2.3984-1.957-3.9414-2.4688l-2.4141 5.9727c1.5391 0.56641 2.8984 1.3438 3.9922 2.3398zm-3.1328 7.793c-1.0117-1.0898-2.4609-1.8633-3.9844-2.4062l-2.4531 6.1016c1.4961 0.58984 2.8984 1.2891 4.0391 2.2266zm6.2031-8.4883-7.668 18.977c-1.9883-2.7109-5.4453-4.4219-8.918-5.0703-1.1953-0.21875-2.3945-0.38281-3.5898-0.42969l1.0039-2.4688c1.5312 0.043 3.0664 0.22266 4.5977 0.60547l2.4766-6.1367c-1.5703-0.3789-3.1367-0.42578-4.6992-0.33984l0.80469-2.0156c1.5469-0.0312 3.0977 0.0664 4.6484 0.49218l2.3906-5.9102c-1.5664-0.30469-3.1328-0.41407-4.6914-0.35938l1.0703-2.6719c3.5547-0.0156 7.668 0.97656 10.582 3.3359 0.73828 0.58594 1.418 1.2344 1.9922 1.9922"/>
  </g>
 </g>
</svg>
