<?xml version="1.0" encoding="UTF-8" standalone="no"?>
<!-- Created by ERK -->

<svg
   width="226.71088mm"
   height="49.420238mm"
   viewBox="0 0 226.71088 49.420239"
   version="1.1"
   id="svg5328"
   inkscape:version="1.4 (86a8ad7, 2024-10-11)"
   sodipodi:docname="winbigfish-w.svg"
   xmlns:inkscape="http://www.inkscape.org/namespaces/inkscape"
   xmlns:sodipodi="http://sodipodi.sourceforge.net/DTD/sodipodi-0.dtd"
   xmlns="http://www.w3.org/2000/svg"
   xmlns:svg="http://www.w3.org/2000/svg"
   xmlns:rdf="http://www.w3.org/1999/02/22-rdf-syntax-ns#"
   xmlns:cc="http://creativecommons.org/ns#"
   xmlns:dc="http://purl.org/dc/elements/1.1/">
  <defs
     id="defs5322">
    <clipPath
       id="clipPath5294"
       clipPathUnits="userSpaceOnUse">
      <path
         inkscape:connector-curvature="0"
         id="path5292"
         d="M 0,521.389 H 588.814 V 0 H 0 Z" />
    </clipPath>
  </defs>
  <sodipodi:namedview
     id="base"
     pagecolor="#ffffff"
     bordercolor="#666666"
     borderopacity="1.0"
     inkscape:pageopacity="0.0"
     inkscape:pageshadow="2"
     inkscape:zoom="1.5902444"
     inkscape:cx="364.09498"
     inkscape:cy="111.61807"
     inkscape:document-units="mm"
     inkscape:current-layer="svg5328"
     showgrid="false"
     fit-margin-top="0"
     fit-margin-left="0"
     fit-margin-right="0"
     fit-margin-bottom="0"
     inkscape:window-width="3840"
     inkscape:window-height="2066"
     inkscape:window-x="-11"
     inkscape:window-y="-11"
     inkscape:window-maximized="1"
     inkscape:showpageshadow="2"
     inkscape:pagecheckerboard="true"
     inkscape:deskcolor="#d1d1d1" />
  <metadata
     id="metadata5325">
    <rdf:RDF>
      <cc:Work
         rdf:about="">
        <dc:format>image/svg+xml</dc:format>
        <dc:type
           rdf:resource="http://purl.org/dc/dcmitype/StillImage" />
      </cc:Work>
    </rdf:RDF>
  </metadata>
  <g
     id="g9"
     inkscape:label="Big"
     transform="translate(-0.50022786,-0.50022786)"
     style="fill:#ffffff">
    <path
       d="m 2.2778971,1.2547038 c -0.980723,0 -1.77766924,0.797466 -1.77766924,1.778186 V 47.384188 c 0,0.98425 0.79694624,1.778186 1.77766924,1.778186 H 24.919409 c 11.62085,0 19.205546,-4.713414 19.205546,-14.076144 0,-4.64961 -2.801572,-8.815934 -6.696232,-10.869104 3.96522,-2.18369 5.60586,-5.672496 5.60586,-9.701216 0,-9.0240504 -7.793179,-13.2612062 -19.272209,-13.2612062 z M 18.622636,14.021883 h 2.800863 c 2.59644,0 3.827673,1.231544 3.827673,3.351734 0,2.11667 -1.298253,3.347599 -3.827673,3.347599 h -2.800863 z m 0,15.183569 h 3.347599 c 2.66664,0 4.032312,1.435936 4.032312,3.485576 0,2.04964 -1.365672,3.485575 -4.032312,3.485575 h -3.347599 z"
       style="fill:#ffffff;stroke-width:0.352778"
       id="path9"
       inkscape:label="B" />
    <path
       d="m 91.283834,0.50022786 c -12.58676,0 -22.482092,7.20001534 -25.498702,17.45526514 L 62.811153,9.0619792 C 61.251873,4.3982492 56.888191,1.2547038 51.970471,1.2547038 h -8.69921 c 1.60161,3.92642 1.583412,5.9835667 2.515092,12.7180872 0.83609,6.01839 3.887101,11.236006 3.887101,11.236006 0,0 -3.051011,5.2171 -3.887101,11.23549 -0.93168,6.731 -0.913482,8.791667 -2.515092,12.718087 h 8.69921 c 4.91772,0 9.281402,-3.143546 10.840682,-7.807276 l 3.030306,-9.066113 c 3.19299,11.34533 13.589363,17.631482 25.766903,17.631482 7.60236,0 13.705878,-2.289291 18.178738,-5.404321 1.07986,-0.75141 1.70739,-1.996949 1.70739,-3.312459 V 27.007654 c 0,-0.98072 -0.79369,-1.774569 -1.77406,-1.774569 H 94.674325 c -0.98108,0 -1.774569,0.793849 -1.774569,1.774569 v 7.41195 c -4.85775,0 -9.303137,-3.803096 -8.766907,-10.121346 0.40216,-4.71664 4.201906,-8.015014 8.886796,-8.015014 2.8328,0 5.185806,1.016267 7.299295,2.737817 0.73025,0.59267 1.81283,0.433768 2.36316,-0.331762 l 6.69934,-9.3312139 c 0.53975,-0.74789 0.41987,-1.7921973 -0.28216,-2.3848673 -3.83822,-3.23144 -10.241306,-6.47298994 -17.815446,-6.47298994 z"
       style="fill:#ffffff;stroke-width:0.352778"
       id="path1"
       inkscape:label="IG" />
  </g>
  <g
     id="g10"
     inkscape:label="Fish"
     transform="translate(115.21639,-44.47403)"
     style="fill:#ffffff">
    <path
       d="m 2.2778971,51.793738 c -0.980723,0 -1.77766924,0.797466 -1.77766924,1.778186 v 31.224451 c 0,0.98072 0.79694624,1.777669 1.77766924,1.777669 H 12.325346 c 0.9839,0 1.777669,-0.796949 1.777669,-1.777669 v -9.352401 h 9.465055 c 0.98072,0 1.778187,-0.796949 1.778187,-1.777669 v -6.265768 c 0,-0.98073 -0.797467,-1.777669 -1.778187,-1.777669 h -9.465055 v -2.83652 h 12.513448 c 0.98037,0 1.777669,-0.793419 1.777669,-1.777669 v -7.436755 c 0,-0.98072 -0.797299,-1.778186 -1.777669,-1.778186 z"
       style="fill:#ffffff;stroke-width:0.352778"
       id="path6"
       inkscape:label="F" />
    <path
       d="m 41.735954,51.793738 -10.032463,0.0041 c -0.98108,0.004 -1.778186,0.797816 -1.778186,1.778186 v 31.220833 c 0,0.98072 0.797106,1.77767 1.778186,1.77767 h 10.03608 c 0.98072,0 1.778703,-0.79695 1.778703,-1.77767 V 53.571924 c 0,-0.98072 -0.79807,-1.778186 -1.78232,-1.778186 z"
       style="fill:#ffffff;stroke-width:0.352778"
       id="path7"
       inkscape:label="I" />
    <path
       d="m 60.267639,51.250618 c -7.96572,0 -15.017171,4.067667 -15.017171,11.606527 0,2.40242 1.146476,5.11148 3.824056,7.21403 3.2699,2.57175 7.023514,3.174998 9.757544,3.887618 1.74589,0.45508 2.080948,1.111487 2.017448,1.643827 -0.0561,0.51506 -0.666456,1.079521 -1.901176,1.079521 -2.34562,0 -5.492583,-1.382737 -7.863603,-2.843237 -0.7373,-0.45508 -1.704083,-0.250281 -2.205033,0.455269 l -3.851961,5.425509 c -0.56409,0.79375 -0.37786,1.887449 0.40566,2.465999 4.62456,3.42548 9.44037,4.931999 15.46934,4.931999 8.72455,0 15.285888,-4.95675 15.285888,-11.95586 0,-3.52072 -1.277445,-6.335947 -4.717025,-8.346777 -3.54189,-2.07081 -8.455892,-2.846929 -10.032462,-3.277319 -1.13594,-0.31397 -1.940123,-0.811056 -1.799373,-1.513086 0.12383,-0.60995 0.804432,-0.962732 2.039152,-0.962732 2.35691,0 4.663541,1.047307 6.078181,1.833997 0.73378,0.4057 1.654554,0.19045 2.137854,-0.49041 l 3.517098,-4.938716 c 0.59655,-0.83608 0.366824,-2.010824 -0.511596,-2.543514 -3.3087,-2.00731 -7.408181,-3.672645 -12.632821,-3.672645 z"
       style="fill:#ffffff;stroke-width:0.352778"
       id="path5"
       inkscape:label="S" />
    <path
       d="m 79.126953,51.793738 c -0.98037,0 -1.777669,0.797466 -1.777669,1.778186 v 31.224451 c 0,0.98072 0.797299,1.777669 1.777669,1.777669 h 10.594186 c 0.98425,0 1.778186,-0.796949 1.778186,-1.777669 v -9.454721 h 5.845638 v 9.454721 c 0,0.98072 0.797299,1.777669 1.777669,1.777669 H 109.7163 c 0.98425,0 1.77819,-0.796949 1.77819,-1.777669 V 53.571924 c 0,-0.98072 -0.79394,-1.778186 -1.77819,-1.778186 H 99.122632 c -0.98037,0 -1.777669,0.797466 -1.777669,1.778186 v 9.454203 h -5.845638 v -9.454203 c 0,-0.98072 -0.793936,-1.778186 -1.778186,-1.778186 z"
       style="fill:#ffffff;stroke-width:0.352778"
       id="path8"
       inkscape:label="H" />
  </g>
</svg>
