<?xml version="1.0" encoding="UTF-8" standalone="no"?>
<!-- Created by ERK -->

<svg
   fill="#0078d6"
   height="146"
   viewBox="0 0 403.198 87.6"
   width="671.996"
   version="1.1"
   id="svg1"
   sodipodi:docname="windows.svg"
   inkscape:version="1.4 (86a8ad7, 2024-10-11)"
   xmlns:inkscape="http://www.inkscape.org/namespaces/inkscape"
   xmlns:sodipodi="http://sodipodi.sourceforge.net/DTD/sodipodi-0.dtd"
   xmlns="http://www.w3.org/2000/svg"
   xmlns:svg="http://www.w3.org/2000/svg">
  <defs
     id="defs1" />
  <sodipodi:namedview
     id="namedview1"
     pagecolor="#ffffff"
     bordercolor="#000000"
     borderopacity="0.25"
     inkscape:showpageshadow="2"
     inkscape:pageopacity="0.0"
     inkscape:pagecheckerboard="true"
     inkscape:deskcolor="#d1d1d1"
     inkscape:zoom="2.7321592"
     inkscape:cx="333.43591"
     inkscape:cy="81.437421"
     inkscape:window-width="3840"
     inkscape:window-height="2066"
     inkscape:window-x="-11"
     inkscape:window-y="-11"
     inkscape:window-maximized="1"
     inkscape:current-layer="svg1" />
  <path
     d="m 390,31 c 3.75,-0.26 7.57,0.1 11.1,1.48 0.98,1.86 0.22,4.3 0.45,6.4 -4.2,-2.63 -10,-4.3 -14.6,-1.63 -3.13,1.7 -3.28,6.73 -0.23,8.6 4.37,2.83 9.92,3.57 13.8,7.2 4.28,4.12 3.24,12 -1.77,15.1 -6.1,3.88 -14.1,3.5 -20.5,0.54 l -0.05,-6.72 c 4.54,3.46 10.9,5.38 16.4,2.92 3.17,-1.6 3.33,-6.46 0.54,-8.5 -4.37,-3.22 -10.4,-3.73 -14.2,-7.75 -3.83,-3.86 -3.14,-11 1.13,-14.2 2.2,-2.03 5.2,-2.64 8,-3.43"
     id="path14"
     inkscape:label="s" />
  <path
     d="m 323,32 h 6.26 l 7.4,27.2 c 0.5,1.7 0.7,3.46 0.88,5.22 2.83,-10.9 6.4,-21.6 9.62,-32.4 l 5.47,0.03 c 2.75,10.8 6.17,21.4 8.45,32.4 2.35,-10.8 5.7,-21.5 8.3,-32.2 2,-0.1 4.02,-0.13 6.04,-0.15 l -11.3,38 h -6.22 c -2.7,-10.3 -6.2,-20.4 -8.4,-30.8 -2.6,10.4 -6.23,20.5 -9.2,30.8 h -6 L 323,32.1"
     id="path13"
     inkscape:label="w" />
  <path
     id="path11"
     d="M 302.05578 30.994909 C 301.02728 30.979586 300.00265 31.021628 298.99953 31.109753 L 298.97023 31.089831 C 295.62023 31.829831 292.23944 32.87046 289.56944 35.13046 C 282.10944 41.63046 281.28944 53.459706 285.36944 62.029706 C 290.56944 72.249706 305.79025 73.890023 313.97025 66.450023 C 317.89025 62.750023 319.86978 57.300399 319.93978 51.950399 C 320.19978 46.050399 318.83954 39.549601 314.29954 35.349601 C 311.04954 32.205226 306.51263 31.061305 302.05578 30.994909 z M 301.99836 35.960148 C 305.07175 36.000082 308.1179 37.06648 310.1804 39.39023 C 313.7304 43.29023 314.12962 48.989464 313.67962 53.989464 C 313.27962 58.289464 311.39016 62.990256 307.24016 64.890256 C 301.04016 68.030256 292.54053 65.050093 290.34053 58.330093 C 287.59053 50.730093 289.08976 39.22968 297.88976 36.52968 L 297.88039 36.520305 C 299.19914 36.13593 300.60136 35.941996 301.99836 35.960148 z "
     inkscape:label="o" />
  <path
     id="path9"
     d="M 270.09051 13.960516 L 270.00028 14.00036 L 270.09051 14.00036 L 270.09051 13.960516 z M 270.09051 14.00036 L 270.13036 37.160149 C 265.73036 29.550149 254.62994 29.249678 248.32994 34.429678 C 243.47994 38.429678 241.47994 44.849695 241.42994 50.929695 C 241.17994 56.929695 242.62026 63.560103 247.35026 67.630103 C 253.95026 73.400103 265.52028 71.680021 269.85028 63.900021 L 270.0202 69.999636 L 276.00029 69.999636 L 276.00029 14.00036 L 270.09051 14.00036 z M 259.45574 35.885148 C 262.6938 35.906413 265.92871 37.404137 267.82996 40.109762 C 270.47996 43.409762 270.14044 47.910555 270.11044 51.910555 C 270.09044 55.650555 269.31004 59.690176 266.61004 62.510176 C 262.61004 67.180176 254.43002 67.070488 250.71002 62.130488 C 247.27002 57.530488 247.05971 51.19008 248.23971 45.73008 C 249.13971 41.20008 252.3905 36.819758 257.1905 36.059758 L 257.23034 36.110148 C 257.96159 35.954523 258.70849 35.880241 259.45574 35.885148 z "
     inkscape:label="d" />
  <path
     d="m 209.06,38.12 c 3.43,-6.1 11.43,-8.92 17.88,-6.1 5.13,2 7.04,7.94 7.2,13 0.28,8.32 0.05,16.65 0.12,24.97 -2,0 -4,0 -6,-0.01 -0.1,-8 0.2,-16 -0.14,-24 -0.16,-3.96 -1.84,-8.72 -6.15,-9.73 -6.3,-1.9 -12.57,3.77 -12.77,10 -0.18,7.9 -0.01,15.83 -0.07,23.74 h -6 V 32 h 6 l -0.08,6.12"
     id="path8"
     inkscape:label="n" />
  <path
     d="m 186.9,32 h 6 v 38 h -6"
     id="path7"
     inkscape:label="i" />
  <path
     d="m 186,17.4 c 0.63,-4.994 7.965,-4.485 7.965,0.5 0,4.985 -7.336,5.494 -7.965,0.5"
     id="path6"
     inkscape:label="i" />
  <path
     d="m 114,17 6.76,0.04 10.5,38.1 c 0.75,2.66 1.3,5.38 1.64,8.14 3.66,-15.6 8.66,-30.8 12.9,-46.2 l 5.85,0.02 9.04,33 c 1.13,4.38 2.6,8.7 3.05,13.2 3.3,-15.6 8.03,-30.8 11.8,-46.2 l 6.66,-0.03 -14.8,53 h -7.2 l -10.7,-38.1 c -0.6,-2.05 -0.85,-4.17 -1.04,-6.3 -0.28,1.83 -0.54,3.68 -1,5.47 l -10.8,38.8 c -2.4,0.13 -4.8,0.14 -7.2,0.12 l -15.4,-53"
     id="path5"
     inkscape:label="W" />
  <path
     id="path1"
     d="M 0,12.5 35.7,7.6 V 42.1 H 0 M 40,6.9 87.3,0 V 41.8 H 40 M 0,45.74 h 35.7 v 34.6 L 0,75.34 M 40,46.2 H 87.3 V 87.6 L 40,80.9"
     inkscape:label="Logo" />
</svg>
