<svg fill="#0078d6" height="146" viewBox="0 0 403.198 87.6" width="671.996" xmlns="http://www.w3.org/2000/svg">
    <path d="m0 12.5 35.7-4.9v34.5H0M40 6.9 87.3 0v41.8H40M0 45.74h35.7v34.6l-35.7-5M40 46.2h47.3v41.4L40 80.9M114 17l6.76.04 10.5 38.1c.75 2.66 1.3 5.38 1.64 8.14 3.66-15.6 8.66-30.8 12.9-46.2l5.85.02 9.04 33c1.13 4.38 2.6 8.7 3.05 13.2 3.3-15.6 8.03-30.8 11.8-46.2l6.66-.03-14.8 53h-7.2l-10.7-38.1c-.6-2.05-.85-4.17-1.04-6.3-.28 1.83-.54 3.68-1 5.47l-10.8 38.8c-2.4.13-4.8.14-7.2.12l-15.4-53m71.94.34c.63-4.994 7.965-4.485 7.965.5s-7.336 5.494-7.965.5m.9 13.6h6v38h-6m22.16-31.88c3.43-6.1 11.43-8.92 17.88-6.1 5.13 2 7.04 7.94 7.2 13 .28 8.32.05 16.65.12 24.97-2 0-4 0-6-.01-.1-8 .2-16-.14-24-.16-3.96-1.84-8.72-6.15-9.73-6.3-1.9-12.57 3.77-12.77 10-.18 7.9-.01 15.83-.07 23.74h-6V32h6l-.08 6.12M270 14h6v56h-5.98l-.17-6.1c-4.33 7.78-15.9 9.5-22.5 3.73-4.73-4.07-6.17-10.7-5.92-16.7.05-6.08 2.05-12.5 6.9-16.5 6.3-5.18 17.4-4.88 21.8 2.73l-.04-23.2m-12.9 22.1c-4.8.76-8.05 5.14-8.95 9.67-1.18 5.46-.97 11.8 2.47 16.4 3.72 4.94 11.9 5.05 15.9.38 2.7-2.82 3.48-6.86 3.5-10.6.03-4 .37-8.5-2.28-11.8-2.34-3.33-6.7-4.83-10.6-4m41.77-5c5.35-.47 11.3.37 15.3 4.24 4.54 4.2 5.9 10.7 5.64 16.6-.07 5.35-2.05 10.8-5.97 14.5-8.18 7.44-23.4 5.8-28.6-4.42-4.08-8.57-3.26-20.4 4.2-26.9 2.67-2.26 6.05-3.3 9.4-4.04m-1.08 5.44c-8.8 2.7-10.3 14.2-7.55 21.8 2.2 6.72 10.7 9.7 16.9 6.56 4.15-1.9 6.04-6.6 6.44-10.9.45-5 .05-10.7-3.5-14.6-3-3.38-8.08-4.1-12.3-2.87M323 32h6.26l7.4 27.2c.5 1.7.7 3.46.88 5.22 2.83-10.9 6.4-21.6 9.62-32.4l5.47.03c2.75 10.8 6.17 21.4 8.45 32.4 2.35-10.8 5.7-21.5 8.3-32.2 2-.1 4.02-.13 6.04-.15l-11.3 38h-6.22c-2.7-10.3-6.2-20.4-8.4-30.8-2.6 10.4-6.23 20.5-9.2 30.8h-6l-11.3-38m67-1.1c3.75-.26 7.57.1 11.1 1.48.98 1.86.22 4.3.45 6.4-4.2-2.63-10-4.3-14.6-1.63-3.13 1.7-3.28 6.73-.23 8.6 4.37 2.83 9.92 3.57 13.8 7.2 4.28 4.12 3.24 12-1.77 15.1-6.1 3.88-14.1 3.5-20.5.54l-.05-6.72c4.54 3.46 10.9 5.38 16.4 2.92 3.17-1.6 3.33-6.46.54-8.5-4.37-3.22-10.4-3.73-14.2-7.75-3.83-3.86-3.14-11 1.13-14.2 2.2-2.03 5.2-2.64 8-3.43"/>
</svg>
