<?xml version="1.0" encoding="UTF-8" standalone="no"?>
<!DOCTYPE svg PUBLIC "-//W3C//DTD SVG 1.1//EN" "http://www.w3.org/Graphics/SVG/1.1/DTD/svg11.dtd">
<svg xmlns="http://www.w3.org/2000/svg" version="1.1" viewBox="0 0 1703 360">
<g fill="#f9f9f9">
<path d="
  M 0.00 0.00
  L 170.31 0.00
  L 170.24 169.97
  A 0.50 0.50 0.0 0 1 169.74 170.47
  L 0.00 170.33
  L 0.00 0.00
  Z"
/>
<path d="
  M 189.42 0.00
  L 359.81 0.00
  L 359.77 170.12
  A 0.38 0.37 -90.0 0 1 359.40 170.50
  L 189.70 170.50
  A 0.45 0.45 0.0 0 1 189.25 170.05
  L 189.42 0.00
  Z"
/>
<path d="
  M 1131.50 268.10
  Q 1131.49 266.26 1130.46 267.79
  C 1117.14 287.56 1092.88 292.32 1070.23 289.50
  C 1038.52 285.55 1021.36 261.20 1017.60 231.24
  C 1011.09 179.42 1032.42 126.16 1094.00 130.03
  C 1108.11 130.92 1122.45 136.28 1130.82 148.46
  A 0.37 0.37 0.0 0 0 1131.50 148.25
  L 1131.50 59.84
  A 0.60 0.59 -89.5 0 1 1132.10 59.24
  L 1167.50 59.26
  A 0.50 0.49 0.0 0 1 1168.00 59.75
  L 1168.00 286.50
  A 0.50 0.50 0.0 0 1 1167.50 287.00
  L 1132.00 287.00
  A 0.50 0.50 0.0 0 1 1131.50 286.50
  L 1131.50 268.10
  Z
  M 1079.60 259.95
  Q 1087.81 263.00 1097.08 261.93
  C 1119.96 259.30 1131.46 236.11 1131.67 215.50
  C 1131.85 198.78 1133.03 184.95 1122.61 172.33
  C 1108.48 155.22 1079.77 154.08 1065.56 172.81
  Q 1059.41 180.92 1056.79 192.00
  C 1051.30 215.18 1053.03 250.09 1079.60 259.95
  Z"
/>
<ellipse cx="0.00" cy="0.00" transform="translate(798.67,88.23) rotate(-0.2)" rx="21.60" ry="20.54"/>
<path d="
  M 617.43 122.79
  L 573.99 286.39
  A 0.82 0.82 0.0 0 1 573.20 287.00
  L 529.05 287.00
  A 0.67 0.66 -9.1 0 1 528.42 286.55
  Q 527.26 283.18 526.34 279.84
  Q 497.71 176.60 469.04 73.38
  A 0.50 0.49 -7.9 0 1 469.52 72.75
  L 508.67 72.75
  A 0.56 0.56 0.0 0 1 509.21 73.17
  L 551.73 242.06
  Q 551.89 242.68 552.16 242.10
  Q 552.62 241.09 553.27 238.75
  Q 576.06 155.99 598.78 73.20
  A 0.61 0.60 -82.4 0 1 599.36 72.75
  L 639.25 72.75
  A 0.46 0.45 82.5 0 1 639.69 73.09
  Q 659.60 150.63 679.48 228.00
  Q 682.36 239.22 683.65 243.25
  Q 683.80 243.71 683.91 243.24
  L 724.26 73.41
  A 0.86 0.85 -83.1 0 1 725.09 72.75
  L 762.78 72.75
  A 0.40 0.40 0.0 0 1 763.17 73.26
  L 705.41 286.49
  A 0.70 0.69 7.7 0 1 704.74 287.00
  L 661.31 287.00
  A 0.62 0.62 0.0 0 1 660.71 286.54
  L 617.69 122.79
  Q 617.56 122.31 617.43 122.79
  Z"
/>
<path d="
  M 1244.83 288.19
  C 1201.25 276.93 1189.21 234.34 1194.64 194.68
  C 1201.29 146.15 1240.10 126.27 1285.44 130.01
  C 1341.18 134.61 1360.68 186.29 1349.51 234.47
  C 1338.00 284.09 1289.70 299.80 1244.83 288.19
  Z
  M 1244.09 249.91
  C 1257.35 263.29 1282.27 265.62 1297.69 254.46
  C 1314.19 242.53 1316.11 217.04 1313.99 198.63
  C 1311.64 178.07 1300.07 161.81 1278.52 160.21
  C 1250.14 158.09 1235.03 175.15 1231.84 200.97
  C 1229.85 217.08 1232.04 237.76 1244.09 249.91
  Z"
/>
<path d="
  M 1703.00 241.56
  L 1703.00 246.31
  C 1701.09 269.42 1687.24 282.28 1666.33 288.34
  C 1644.44 294.68 1622.41 291.69 1600.94 284.45
  A 1.75 1.75 0.0 0 1 1599.75 282.79
  L 1599.75 247.99
  A 0.28 0.28 0.0 0 1 1600.20 247.77
  C 1610.93 256.02 1623.91 261.64 1637.38 262.69
  C 1646.65 263.42 1662.60 263.26 1665.79 251.75
  C 1670.01 236.53 1655.36 230.52 1643.70 225.49
  C 1623.55 216.78 1604.61 209.23 1600.12 184.67
  C 1594.25 152.58 1620.56 132.23 1649.69 129.91
  C 1664.42 128.74 1679.20 129.52 1693.25 134.66
  A 1.89 1.87 -80.0 0 1 1694.48 136.43
  L 1694.54 169.45
  A 0.41 0.41 0.0 0 1 1693.91 169.79
  Q 1679.40 160.25 1662.25 158.02
  C 1651.02 156.57 1633.89 161.31 1636.32 176.24
  C 1638.60 190.19 1660.31 196.56 1671.57 201.58
  Q 1683.91 207.09 1691.54 214.44
  C 1699.97 222.55 1701.52 230.41 1703.00 241.56
  Z"
/>
<path d="
  M 888.23 153.97
  A 0.37 0.37 0.0 0 0 888.92 154.17
  C 897.68 140.51 909.91 133.51 926.03 130.86
  Q 939.74 128.61 952.52 130.99
  C 980.31 136.14 989.89 159.36 990.47 184.82
  C 991.36 224.00 990.72 253.39 990.83 286.43
  A 0.57 0.57 0.0 0 1 990.26 287.00
  L 955.02 287.00
  A 0.52 0.52 0.0 0 1 954.50 286.48
  Q 954.50 241.86 954.44 197.25
  C 954.42 179.96 948.31 161.52 928.27 159.34
  C 904.56 156.76 888.18 177.89 888.09 200.31
  Q 887.92 243.35 888.05 286.39
  A 0.62 0.61 -90.0 0 1 887.44 287.01
  L 853.34 286.99
  A 0.59 0.59 0.0 0 1 852.75 286.40
  L 852.75 133.14
  A 0.61 0.60 -0.0 0 1 853.36 132.54
  L 886.96 132.51
  A 1.19 1.19 0.0 0 1 888.15 133.70
  L 888.23 153.97
  Z"
/>
<rect x="780.25" y="132.54" width="36.00" height="154.46" rx="0.67"/>
<path d="
  M 1425.79 250.89
  Q 1426.25 253.08 1426.86 250.93
  L 1460.50 133.64
  A 0.88 0.88 0.0 0 1 1461.35 133.00
  L 1495.35 133.00
  A 0.83 0.83 0.0 0 1 1496.15 133.62
  L 1525.87 249.77
  Q 1526.55 252.45 1527.20 249.76
  L 1555.11 133.51
  A 0.68 0.67 -82.8 0 1 1555.76 133.00
  L 1589.21 133.00
  A 0.56 0.56 0.0 0 1 1589.74 133.76
  Q 1588.85 136.14 1588.19 138.44
  Q 1566.94 212.44 1545.65 286.51
  A 0.68 0.68 0.0 0 1 1545.00 287.00
  L 1506.67 287.00
  A 1.19 1.19 0.0 0 1 1505.52 286.12
  L 1476.05 177.69
  Q 1475.36 175.18 1474.64 177.68
  L 1442.97 286.48
  A 0.74 0.74 0.0 0 1 1442.26 287.00
  L 1404.62 287.00
  A 0.44 0.44 0.0 0 1 1404.20 286.68
  Q 1383.05 214.40 1362.01 142.14
  C 1361.35 139.88 1360.11 136.46 1359.60 133.50
  A 0.43 0.42 -5.1 0 1 1360.02 133.00
  L 1396.69 133.00
  A 0.45 0.43 -6.6 0 1 1397.12 133.33
  Q 1410.78 189.45 1424.57 245.59
  Q 1425.37 248.86 1425.79 250.89
  Z"
/>
<path d="
  M 170.19 360.00
  L 0.00 360.00
  L 0.00 189.44
  L 169.78 189.48
  A 0.66 0.66 0.0 0 1 170.42 190.30
  Q 170.13 191.46 170.13 193.00
  Q 170.31 276.50 170.19 360.00
  Z"
/>
<path d="
  M 359.69 360.00
  L 189.44 360.00
  L 189.31 190.04
  A 0.51 0.51 0.0 0 1 189.82 189.53
  Q 269.70 189.47 349.60 189.51
  C 351.84 189.51 355.97 189.20 359.23 189.51
  A 0.55 0.54 -87.8 0 1 359.73 190.06
  L 359.69 360.00
  Z"
/>
<path d="
  M 1112.00 336.70
  C 1105.76 336.52 1100.95 331.52 1100.65 325.56
  C 1100.11 314.84 1100.96 305.81 1114.53 305.78
  Q 1139.30 305.71 1164.74 305.76
  A 1.78 1.78 0.0 0 1 1166.51 307.55
  L 1166.48 315.20
  A 1.05 1.04 -0.0 0 1 1165.43 316.24
  Q 1141.96 316.25 1118.50 316.26
  C 1112.43 316.26 1112.66 327.62 1118.14 327.55
  Q 1140.06 327.26 1155.99 327.76
  C 1162.06 327.95 1167.07 331.32 1168.27 337.52
  C 1170.22 347.66 1168.90 358.75 1155.72 359.09
  Q 1133.50 359.66 1102.80 359.41
  C 1099.29 359.38 1100.47 352.59 1100.57 350.24
  A 1.56 1.56 0.0 0 1 1102.13 348.75
  Q 1127.00 348.75 1151.25 348.75
  C 1156.01 348.75 1157.15 336.95 1150.25 337.03
  Q 1131.12 337.25 1112.00 336.70
  Z"
/>
<rect x="986.77" y="305.75" width="13.74" height="53.70" rx="1.68"/>
<path d="
  M 1026.55 317.07
  A 0.57 0.57 0.0 0 0 1026.25 317.57
  L 1026.25 358.56
  A 0.55 0.54 -3.6 0 1 1025.77 359.10
  Q 1019.87 359.87 1013.99 359.23
  A 1.37 1.36 -87.0 0 1 1012.77 357.87
  Q 1012.71 336.31 1012.78 314.26
  C 1012.80 309.61 1013.61 306.42 1018.68 306.00
  C 1022.73 305.66 1033.72 304.16 1037.94 308.80
  Q 1055.50 328.12 1073.53 348.11
  A 1.27 1.27 0.0 0 0 1075.75 347.26
  L 1075.76 307.52
  A 1.78 1.78 0.0 0 1 1077.54 305.74
  L 1088.29 305.76
  A 0.95 0.95 0.0 0 1 1089.24 306.71
  Q 1089.26 329.80 1089.24 353.25
  C 1089.24 361.17 1078.12 359.44 1073.00 359.42
  C 1067.69 359.41 1065.70 358.10 1062.06 354.04
  Q 1045.66 335.75 1029.27 317.50
  Q 1028.13 316.23 1026.55 317.07
  Z"
/>
<path d="
  M 1205.15 316.55
  L 1176.25 316.48
  A 0.62 0.62 0.0 0 1 1175.64 315.97
  Q 1174.76 311.12 1175.61 306.26
  A 0.62 0.61 -84.9 0 1 1176.21 305.75
  L 1248.76 305.75
  A 1.50 1.50 0.0 0 1 1250.26 307.25
  L 1250.24 315.47
  A 1.02 1.02 0.0 0 1 1249.22 316.49
  L 1220.24 316.50
  A 0.52 0.52 0.0 0 0 1219.73 317.01
  L 1219.65 358.50
  A 0.90 0.90 0.0 0 1 1218.75 359.40
  L 1206.77 359.42
  A 1.02 1.02 0.0 0 1 1205.75 358.40
  L 1205.75 317.15
  A 0.60 0.60 0.0 0 0 1205.15 316.55
  Z"
/>
<path d="
  M 1242.00 359.11
  A 0.40 0.40 0.0 0 1 1241.71 358.50
  Q 1257.12 334.44 1272.76 310.27
  C 1275.97 305.30 1281.27 305.52 1287.24 305.81
  C 1292.38 306.05 1294.50 307.40 1297.40 311.84
  Q 1311.77 333.77 1326.00 355.76
  Q 1326.92 357.18 1327.37 358.79
  A 0.50 0.49 -7.6 0 1 1326.89 359.41
  L 1313.65 359.36
  A 1.02 1.02 0.0 0 1 1312.79 358.89
  L 1306.57 349.22
  A 0.98 0.96 -16.1 0 0 1305.78 348.79
  L 1264.05 348.55
  A 0.98 0.97 -73.4 0 0 1263.23 349.00
  L 1257.10 358.62
  A 1.20 1.18 -76.6 0 1 1256.22 359.17
  Q 1249.11 359.92 1242.00 359.11
  Z
  M 1269.96 339.74
  L 1299.63 339.75
  A 0.46 0.46 0.0 0 0 1300.02 339.04
  L 1285.73 316.76
  A 0.96 0.95 52.6 0 0 1284.29 316.56
  Q 1283.29 317.45 1282.40 318.87
  Q 1275.98 328.97 1269.55 339.00
  A 0.48 0.48 0.0 0 0 1269.96 339.74
  Z"
/>
<path d="
  M 1346.58 358.63
  C 1333.08 357.08 1331.47 347.95 1331.32 336.54
  Q 1331.13 321.66 1331.30 306.72
  A 0.99 0.98 0.3 0 1 1332.29 305.75
  L 1343.48 305.75
  A 1.57 1.56 0.4 0 1 1345.05 307.33
  Q 1344.87 323.38 1345.12 339.09
  C 1345.23 346.04 1348.61 348.54 1355.11 348.50
  Q 1375.06 348.40 1395.02 348.64
  A 0.69 0.68 -89.6 0 1 1395.69 349.33
  L 1395.71 358.52
  A 0.76 0.75 -0.8 0 1 1394.97 359.27
  C 1379.14 359.66 1362.27 360.43 1346.58 358.63
  Z"
/>
<path d="
  M 1430.75 359.49
  C 1417.43 359.43 1402.78 358.56 1402.59 340.98
  Q 1402.40 323.94 1402.53 307.01
  A 1.25 1.25 0.0 0 1 1403.78 305.77
  L 1414.77 305.74
  A 1.52 1.52 0.0 0 1 1416.30 307.28
  Q 1416.11 323.45 1416.41 338.40
  C 1416.55 345.64 1419.37 348.51 1426.41 348.49
  Q 1446.32 348.41 1466.25 348.64
  A 0.61 0.60 84.8 0 1 1466.84 349.14
  Q 1467.51 352.71 1467.15 357.26
  C 1466.95 359.79 1465.42 359.42 1463.12 359.44
  Q 1446.93 359.56 1430.75 359.49
  Z"
/>
<path d="
  M 1504.25 359.50
  C 1493.21 359.46 1476.75 359.73 1475.10 344.67
  Q 1473.51 330.25 1475.02 320.72
  C 1477.01 308.25 1487.44 305.81 1498.35 305.78
  Q 1519.58 305.72 1540.89 305.76
  A 1.11 1.10 90.0 0 1 1541.99 306.87
  L 1541.98 314.95
  A 1.30 1.29 0.0 0 1 1540.68 316.24
  C 1526.10 316.26 1511.12 315.71 1496.37 316.58
  C 1490.44 316.93 1487.33 321.12 1488.44 327.13
  A 0.46 0.46 0.0 0 0 1488.89 327.51
  L 1540.88 327.65
  A 0.60 0.60 0.0 0 1 1541.48 328.25
  L 1541.51 335.71
  A 1.27 1.27 0.0 0 1 1540.24 336.99
  L 1489.03 337.00
  A 0.57 0.57 0.0 0 0 1488.47 337.48
  C 1486.71 347.48 1493.19 348.75 1501.37 348.75
  Q 1521.06 348.75 1540.51 348.75
  A 1.46 1.45 89.8 0 1 1541.96 350.20
  L 1541.98 357.92
  A 1.51 1.51 0.0 0 1 1540.48 359.44
  Q 1521.91 359.56 1504.25 359.50
  Z"
/>
<path d="
  M 1566.25 343.00
  L 1566.25 358.05
  A 1.21 1.20 87.4 0 1 1565.16 359.25
  Q 1560.13 359.73 1554.81 359.39
  Q 1552.45 359.24 1552.44 357.25
  Q 1552.25 332.75 1552.25 308.25
  C 1552.25 306.19 1554.12 305.75 1555.93 305.75
  Q 1580.25 305.75 1604.58 305.75
  C 1620.53 305.75 1624.86 313.86 1622.99 328.84
  C 1622.09 336.03 1617.71 340.29 1610.56 340.90
  A 0.47 0.47 0.0 0 0 1610.26 341.69
  L 1625.74 358.04
  A 0.69 0.69 0.0 0 1 1625.29 359.20
  C 1622.19 359.44 1611.89 360.49 1609.78 358.21
  Q 1602.78 350.64 1596.01 342.89
  A 1.14 1.10 -20.1 0 0 1595.17 342.52
  L 1566.76 342.49
  A 0.51 0.51 0.0 0 0 1566.25 343.00
  Z
  M 1608.50 329.92
  C 1610.54 326.32 1610.05 316.30 1603.69 316.28
  Q 1585.23 316.22 1566.76 316.27
  A 0.51 0.51 0.0 0 0 1566.25 316.78
  L 1566.25 332.72
  A 0.51 0.50 0.6 0 0 1566.75 333.22
  Q 1584.51 333.32 1602.23 333.15
  Q 1606.69 333.11 1608.50 329.92
  Z"
/>
<path d="
  M 1636.44 333.56
  C 1631.75 329.81 1632.50 323.66 1632.47 318.42
  C 1632.43 310.75 1638.12 305.92 1645.70 305.86
  Q 1671.50 305.64 1697.40 305.79
  A 1.09 1.09 0.0 0 1 1698.49 306.88
  L 1698.48 314.95
  A 1.30 1.30 0.0 0 1 1697.18 316.25
  Q 1674.33 316.25 1651.00 316.26
  C 1644.50 316.26 1644.53 327.49 1650.75 327.55
  Q 1667.71 327.71 1684.66 327.78
  C 1691.43 327.81 1696.61 328.74 1699.61 334.75
  C 1701.25 338.04 1701.50 348.61 1699.80 352.07
  Q 1696.41 358.96 1687.74 359.16
  Q 1661.30 359.75 1634.10 359.40
  A 1.62 1.62 0.0 0 1 1632.50 357.78
  L 1632.50 350.21
  A 1.46 1.46 0.0 0 1 1633.96 348.75
  Q 1659.11 348.76 1684.19 348.74
  C 1687.63 348.73 1688.95 337.01 1682.94 337.01
  Q 1667.47 337.03 1652.00 336.96
  C 1645.30 336.93 1640.87 337.11 1636.44 333.56
  Z"
/>
</g>
</svg>
