<?xml version="1.0" encoding="UTF-8" standalone="no"?>
<!-- Created by ERK -->

<svg
   version="1.1"
   id="svg2"
   xml:space="preserve"
   width="345.86301"
   height="333.961"
   viewBox="0 0 345.86301 333.96098"
   sodipodi:docname="wingog.svg"
   inkscape:version="1.4 (86a8ad7, 2024-10-11)"
   xmlns:inkscape="http://www.inkscape.org/namespaces/inkscape"
   xmlns:sodipodi="http://sodipodi.sourceforge.net/DTD/sodipodi-0.dtd"
   xmlns="http://www.w3.org/2000/svg"
   xmlns:svg="http://www.w3.org/2000/svg"
   xmlns:rdf="http://www.w3.org/1999/02/22-rdf-syntax-ns#"
   xmlns:cc="http://creativecommons.org/ns#"
   xmlns:dc="http://purl.org/dc/elements/1.1/"><sodipodi:namedview
     id="namedview1"
     pagecolor="#ffffff"
     bordercolor="#000000"
     borderopacity="0.25"
     inkscape:showpageshadow="2"
     inkscape:pageopacity="0.0"
     inkscape:pagecheckerboard="true"
     inkscape:deskcolor="#d1d1d1"
     inkscape:zoom="3.9515064"
     inkscape:cx="169.55559"
     inkscape:cy="191.19291"
     inkscape:window-width="3840"
     inkscape:window-height="2066"
     inkscape:window-x="-11"
     inkscape:window-y="-11"
     inkscape:window-maximized="1"
     inkscape:current-layer="svg2" /><metadata
     id="metadata8"><rdf:RDF><cc:Work
         rdf:about=""><dc:format>image/svg+xml</dc:format><dc:type
           rdf:resource="http://purl.org/dc/dcmitype/StillImage" /></cc:Work></rdf:RDF></metadata><defs
     id="defs6"><clipPath
       clipPathUnits="userSpaceOnUse"
       id="clipPath20"><path
         d="M 0,226.772 H 340.157 V 0 H 0 Z"
         id="path18" /></clipPath></defs><g
     id="g1"
     transform="translate(49.999786,49.999794)"
     inkscape:label="Logo"><path
       id="path76"
       style="fill:#000000;fill-opacity:1;fill-rule:nonzero;stroke:none;stroke-width:4.34856"
       d="m 240.63646,216.07577 c 0,3.50494 -1.41328,6.6533 -3.70932,8.95369 -2.29605,2.2917 -5.44875,3.70063 -8.945,3.70063 H 17.881295 c -3.500594,0 -6.648954,-1.40893 -8.9449954,-3.70063 -2.2960415,-2.30039 -3.7006275,-5.44875 -3.7093247,-8.95369 V 17.876943 C 5.2356721,14.376349 6.6402581,11.232338 8.9362996,8.9319477 11.232341,6.6402547 14.380701,5.2313201 17.881295,5.2269716 H 227.98214 c 3.49625,0.00435 6.64895,1.4132831 8.945,3.7049761 2.29604,2.3003903 3.70932,5.4444013 3.70932,8.9449953 z M 240.61907,5.2356687 C 237.39243,2.0003375 232.91341,-1.7515e-6 227.98214,-1.7515e-6 H 17.881295 C 12.950024,-1.7515e-6 8.4710033,2.0003375 5.2443692,5.2356687 2.0090379,8.4623028 1.6005e-6,12.95002 1.6005e-6,17.876943 V 216.07577 c 0,4.93127 2.0090362995,9.41899 5.2443675995,12.64562 3.2266341,3.23099 7.7056548,5.24002 12.6369258,5.24002 H 227.98214 c 4.93127,0 9.41029,-2.00903 12.63693,-5.24002 3.23533,-3.22663 5.24436,-7.71435 5.24436,-12.64562 V 17.876943 c 0,-4.926923 -2.00903,-9.4146402 -5.24436,-12.6412743"
       inkscape:label="Border" /><path
       id="path56"
       style="fill:#000000;fill-opacity:1;fill-rule:evenodd;stroke:none;stroke-width:4.34856"
       d="m 83.583737,112.30382 c 0,5.93579 -4.796466,10.71051 -10.706163,10.71051 H 26.974137 v -13.79799 h 38.65873 0.04349 c 2.278647,0 4.105043,-1.86119 4.105043,-4.12679 v -0.0261 -45.551201 -0.03044 c 0,-2.274299 -1.826396,-4.118089 -4.105043,-4.118089 h -0.04349 -20.712208 -0.04349 c -2.274298,0 -4.105044,1.84379 -4.105044,4.118089 v 0.03044 20.699162 0.02609 c 0,2.278647 1.830746,4.126787 4.105044,4.126787 h 0.04349 16.572375 V 98.162291 H 37.675952 c -5.922743,0 -10.701815,-4.783419 -10.701815,-10.701814 V 52.263204 c 0,-5.914047 4.779072,-10.706164 10.701815,-10.706164 h 35.201622 c 5.909697,0 10.706163,4.792117 10.706163,10.706164 z"
       inkscape:label="g" /><path
       id="path68"
       style="fill:#000000;fill-opacity:1;fill-rule:evenodd;stroke:none;stroke-width:4.34856"
       d="m 137.402,59.514002 v 20.694814 0.02609 c 0,2.278647 -1.78726,4.131135 -4.07026,4.131135 h -0.0478 -20.71221 -0.0304 c -2.28299,0 -4.10939,-1.852488 -4.10939,-4.131135 v -0.02609 -20.694814 -0.03479 c 0,-2.274298 1.8264,-4.113741 4.10939,-4.113741 h 0.0304 20.71221 0.0478 c 2.283,0 4.07026,1.839443 4.07026,4.113741 z m 3.13531,-17.955219 h -35.21466 c -5.914049,0 -10.693121,4.792117 -10.693121,10.706164 V 87.46222 c 0,5.914046 4.779072,10.701814 10.693121,10.701814 h 35.21466 c 5.89666,0 10.69747,-4.787768 10.69747,-10.701814 V 52.264947 c 0,-5.914047 -4.80081,-10.706164 -10.69747,-10.706164"
       inkscape:label="o" /><path
       id="path64"
       style="fill:#000000;fill-opacity:1;fill-rule:evenodd;stroke:none;stroke-width:4.34856"
       d="m 218.88538,112.30382 c 0,5.93579 -4.80081,10.71051 -10.70181,10.71051 h -45.90779 v -13.79799 h 38.67612 0.0261 c 2.28734,0 4.12243,-1.86119 4.12243,-4.12679 v -0.0261 -45.551201 -0.03044 c 0,-2.274299 -1.83509,-4.118089 -4.12243,-4.118089 h -0.0261 -20.7296 -0.0391 c -2.25255,0 -4.09199,1.84379 -4.09199,4.118089 v 0.03044 20.699162 0.02609 c 0,2.278647 1.83944,4.126787 4.09199,4.126787 h 0.0391 16.56803 v 13.797991 h -23.80404 c -5.92274,0 -10.71051,-4.783419 -10.71051,-10.701814 V 52.263204 c 0,-5.914047 4.78777,-10.706164 10.71051,-10.706164 h 35.19728 c 5.901,0 10.70181,4.792117 10.70181,10.706164 z"
       inkscape:label="g" /><path
       id="path52"
       style="fill:#000000;fill-opacity:1;fill-rule:evenodd;stroke:none;stroke-width:4.34856"
       d="m 73.258073,150.19981 h -28.552668 -0.04783 c -2.243859,0 -4.044164,1.82205 -4.044164,4.06591 0,0 0.0087,0 0.0087,0.0261 h -0.0087 v 20.40781 h 0.0087 l -0.0087,0.0174 c 0,2.23516 1.800305,4.07461 4.044164,4.07461 h 0.04783 2.957023 25.595645 v 13.61535 H 37.569412 v -0.0348 c -5.84012,0 -10.56266,-4.72254 -10.56266,-10.54527 v -34.70153 c 0,-5.79229 4.72254,-10.51483 10.56266,-10.51483 h 35.688661 z"
       inkscape:label="c" /><path
       id="path72"
       style="fill:#000000;fill-opacity:1;fill-rule:evenodd;stroke:none;stroke-width:4.34856"
       d="m 126.32794,154.29007 v 20.40781 c 0,2.24386 -1.80031,4.0746 -4.03547,4.0746 -0.0217,0 -0.0261,-0.0217 -0.0478,-0.0217 v 0.0217 h -20.40346 v -0.0217 c 0,0 -0.0217,0.0217 -0.0435,0.0217 -2.243855,0 -4.044161,-1.83074 -4.044161,-4.0746 v -20.40781 -0.0261 c 0,-2.24386 1.800306,-4.06591 4.044161,-4.06591 h 0.0435 20.40346 0.0478 c 2.23516,0 4.03547,1.82205 4.03547,4.06591 z m 3.05704,-17.68126 H 94.700838 c -5.840121,0 -10.553964,4.72254 -10.553964,10.51483 v 34.70153 c 0,5.82273 4.713843,10.54527 10.553964,10.54527 h 34.684142 c 5.81838,0 10.54092,-4.72254 10.54092,-10.54527 v -34.70153 c 0,-5.79229 -4.72254,-10.51483 -10.54092,-10.51483"
       inkscape:label="o" /><path
       id="path60"
       style="fill:#000000;fill-opacity:1;fill-rule:evenodd;stroke:none;stroke-width:4.34856"
       d="M 218.84711,192.37218 H 205.2448 v -42.17237 h -9.51465 -0.0435 c -2.24821,0 -4.04851,1.82205 -4.04851,4.06591 v 0.0261 38.08037 h -13.60231 v -42.17237 h -9.5364 -0.0261 c -2.25256,0 -4.05286,1.82205 -4.05286,4.06591 v 0.0261 38.11516 H 150.82251 V 147.1254 c 0,-5.79229 4.7095,-10.51483 10.54962,-10.51483 h 57.47496 z"
       inkscape:label="m" /></g></svg>
