<?xml version="1.0" encoding="UTF-8" standalone="no"?>
<!-- Generator: Adobe Illustrator 16.0.0, SVG Export Plug-In . SVG Version: 6.00 Build 0)  -->

<svg
   version="1.1"
   id="Layer_1"
   x="0px"
   y="0px"
   width="956.34302"
   height="325.02863"
   viewBox="0 0 956.34302 325.02862"
   enable-background="new 0 0 1000 325.027"
   xml:space="preserve"
   sodipodi:docname="PopCap_Games.svg"
   inkscape:version="1.1.2 (b8e25be833, 2022-02-05)"
   xmlns:inkscape="http://www.inkscape.org/namespaces/inkscape"
   xmlns:sodipodi="http://sodipodi.sourceforge.net/DTD/sodipodi-0.dtd"
   xmlns="http://www.w3.org/2000/svg"
   xmlns:svg="http://www.w3.org/2000/svg"><defs
   id="defs25" /><sodipodi:namedview
   id="namedview23"
   pagecolor="#ffffff"
   bordercolor="#666666"
   borderopacity="1.0"
   inkscape:pageshadow="2"
   inkscape:pageopacity="0.0"
   inkscape:pagecheckerboard="0"
   showgrid="false"
   inkscape:zoom="0.977"
   inkscape:cx="500"
   inkscape:cy="162.23132"
   inkscape:window-width="1128"
   inkscape:window-height="682"
   inkscape:window-x="-6"
   inkscape:window-y="-6"
   inkscape:window-maximized="1"
   inkscape:current-layer="Layer_1" />
<path
   fill="#ed1c24"
   d="m 459.243,112.12361 c -17.945,0.035 -37.936,6.011 -49.223,14.913 l -5.968,4.749 2.568,-10.144 c 0.062,-0.314 0.062,-0.402 0.062,-0.563 0.009,-0.581 -0.192,-1.586 -0.987,-2.507 -1.397,-1.572 -4.481,-3.263 -12.065,-3.263 -5.198,0.009 -9.436,0.878 -12.283,2.542 l -0.148,0.087 -0.123,0.109 c 0,0 -0.218,0.196 -0.472,0.411 -0.044,0.035 -1.485,1.297 -1.808,1.62 -13.403,11.673 -22.428,15.582 -31.296,15.582 h -0.087 c -0.062,0 -0.166,0 -0.307,0.018 -5.529,-0.096 -8.963,-2.476 -11.619,-6.054 -9.576,-13.088 -27.424,-17.185 -43.657,-17.203 h -0.769 c -33.672,0.053 -62.555,11.646 -72.252,30.111 -11.131,21.527 -28.727,67.225 -29.504,69.269 -1.643,4.037 -2.49,8.047 -2.49,11.891 0,4.866 1.372,9.444 4.088,13.463 7.227,10.669 22.472,16.407 41.666,16.407 h 0.725 c 33.689,-0.052 65.508,-11.357 75.311,-33.653 8.012,-18.504 20.391,-52.704 24.166,-62.55 1.336,0.114 2.664,0.17 4.001,0.17 11.943,-0.039 23.79,-4.464 31.565,-9.968 -5.023,13.555 -17.552,47.422 -30.105,81.382 -8.108,21.902 -16.207,43.806 -22.305,60.266 -3.041,8.221 -5.584,15.097 -7.365,19.901 -0.883,2.412 -1.59,4.309 -2.08,5.609 -0.244,0.647 -0.437,1.137 -0.551,1.485 -0.061,0.175 -0.113,0.297 -0.148,0.385 h 0.01 c -0.088,0.175 -0.358,0.715 -0.358,1.502 -0.009,0.507 0.13,1.154 0.489,1.739 1.258,1.93 5.049,5.006 21.475,5.041 22.794,-0.035 26.952,-7.4 27.416,-8.632 l 25.178,-68.487 c 5.584,2.28 16.059,5.216 26.691,5.233 26.262,0.158 56.814,-8.938 78.42,-70.382 3.774,-10.594 6.711,-19.405 8.737,-27.906 1.049,-4.399 1.573,-8.514 1.573,-12.345 0.008,-7.203 -1.906,-13.419 -5.784,-18.338 -6.188,-7.793 -17.047,-11.89 -30.387,-11.89 m -167.998,34.19 -28.105,73.699 -0.045,0.104 c -3.005,9.828 -10.091,14.747 -21.745,14.854 -4.036,0 -7.085,-1.486 -8.57,-3.758 -0.83,-1.259 -1.259,-2.727 -1.276,-4.525 0,-1.939 0.524,-4.247 1.625,-6.858 l 28.124,-73.873 c 3.066,-9.938 10.126,-14.856 21.824,-14.958 4.054,0 7.077,1.486 8.562,3.749 0.787,1.192 1.154,2.49 1.154,4.189 0.007,1.948 -0.552,4.42 -1.548,7.377 m 154.901,3.714 v 0.009 c -1.494,4.063 -24.35,66.542 -24.428,66.761 -4.447,10.895 -11.943,17.002 -19.745,16.984 -7.164,0.018 -12.869,-1.729 -15.604,-3.18 l 29.539,-78.059 c 4.359,-11.891 12.808,-18.316 23.536,-18.359 3.354,0.026 5.399,0.987 6.665,2.686 0.927,1.25 1.451,2.922 1.451,5.269 0.002,2.118 -0.444,4.757 -1.414,7.889 M 235.138,53.185614 c 1.888,-5.862 2.84,-11.445 2.84,-16.661 0,-7.657 -2.08,-14.564 -6.221,-20.243 C 223.876,5.4916135 209.374,0.0316135 190.214,0.0456135 l -161.751,-0.023 c -0.131,-0.009 -0.288,-0.017 -0.507,-0.017 -2.009,-0.097 -9.086,0.978 -11.68,9.951 -0.402,1.3850005 -0.629,2.6380005 -0.629,3.8180005 0,1.415 0.332,2.748 1.127,3.822 1.913,2.298 4.578,2.424 5.408,2.46 0.088,0.017 0.175,0.026 0.254,0.017 l 63.524,0.026 L 0.471,253.81461 c -0.035,0.096 -0.061,0.183 -0.087,0.236 -0.184,0.314 -0.35,0.733 -0.384,1.45 0,0.402 0.114,0.908 0.349,1.362 1.416,2.202 5.408,5.33 25.992,5.426 h 0.332 c 25.642,0 31.426,-6.893 32.326,-8.256 0.088,-0.105 0.149,-0.21 0.157,-0.279 l -0.017,-0.009 c 0.009,-0.026 0.026,-0.061 0.026,-0.078 h 0.009 l 20.261,-53.016 2.167,-0.14 c 0.726,-0.097 61.445,-3.616 89.236,-21.736 25.765,-16.967 36.432,-48.493 36.983,-50.022 0.277,-0.742 26.285,-72.390996 27.317,-75.566996 m -55.766,-6.212 -31.977,88.489996 c -0.49,1.35 -13.096,36.251 -54.63,41.625 l -6.326,0.935 9.183,-25.419 c 9.619,-26.389 34.387,-94.723996 47.335,-131.923996 h 21.065 c 7.993,0.018 13.366,2.389 16.04,6.426 1.415,2.119 2.149,4.652 2.149,7.728 10e-4,3.42 -0.926,7.487 -2.839,12.139 M 950.55,123.88661 c -6.186,-7.828 -17.036,-11.899 -30.369,-11.899 -17.945,0.026 -37.935,6.011 -49.249,14.914 -0.052,0.043 -2.917,2.499 -6.046,5.512 l 2.674,-10.916 c 0.061,-0.375 0.044,-0.393 0.044,-0.546 0.017,-0.59 -0.193,-1.573 -0.997,-2.512 -1.37,-1.585 -4.454,-3.259 -12.055,-3.268 -12.276,-0.079 -15.36,5.325 -15.543,5.924 -0.061,0.144 -8.413,22.742 -16.802,45.413 -4.193,11.341 -8.387,22.697 -11.558,31.226 -1.573,4.263 -2.892,7.811 -3.827,10.326 -0.464,1.24 -0.821,2.236 -1.075,2.909 -0.121,0.342 -0.227,0.611 -0.297,0.786 -0.026,0.078 -0.044,0.114 -0.061,0.167 -5.854,10.292 -19.037,16.556 -26.926,16.485 -1.678,0 -3.066,-0.279 -4.055,-0.726 -1.18,-0.629 -3.294,-1.877 -3.338,-5.748 0,-1.311 0.263,-2.953 0.988,-4.971 l 0.069,0.008 c 0.087,-0.454 2.568,-7.216 29.836,-81.124 h -0.009 c 0.323,-0.813 0.97,-2.853 1.021,-6.011 0,-2.119 -0.401,-4.591 -1.606,-7.015 -2.464,-4.885 -7.54,-8.204 -14.608,-10.091 -3.94,-1.066 -7.373,-1.512 -10.361,-1.512 -13.561,0.026 -17.526,9.161 -17.77,10.174 -0.018,0.062 -0.054,0.148 -0.089,0.249 -0.113,-0.162 -0.235,-0.324 -0.366,-0.485 -3.905,-4.704 -15.063,-9.042 -24.813,-9.16 -23.379,-0.153 -57.575,7.837 -78.367,70.632 l -2.298,6.753 -4.518,13.777 c -0.009,0.043 -0.087,0.184 -0.096,0.184 -12.983,14.887 -39.744,24.13 -57.409,24.069 -7.329,0.009 -17.438,-3.136 -23.467,-11.785 -2.586,-3.67 -4.979,-9.191 -4.988,-17.229 0,-5.225 1.022,-11.515 3.757,-19.046 L 615.547,42.342614 c 5.242,-13.376 17.125,-20.152 36.712,-20.23 h 0.401 c 6.178,0.044 17.212,3.246 21.048,8.195 1.118,1.385 1.599,2.765 1.607,4.123 0,0.385 -0.045,0.795 -0.132,1.237 -2.393,10.842 -10.117,28.315 -14.494,37.681 -0.479,1.036 -0.743,2.154 -0.743,3.264 -0.007,1.9 0.734,3.74 2.098,5.215 1.651,1.8 4.386,3.185 7.846,3.185 1.59,0 3.311,-0.284 5.155,-0.948 l 26.139,-9.436 c 2.857,-1.175 5.836,-3.696 6.902,-5.207 6.116,-10.693 10.346,-21.606 12.546,-32.487 0.306,-1.494 0.463,-2.979 0.455,-4.443 0.018,-4.687 -1.625,-9.108 -4.753,-12.965 C 707.103,8.2006135 686.063,1.4996135 660.989,1.1326135 c -0.655,-0.009 -1.318,-0.018 -1.975,-0.018 -56.245,-0.053 -99.178,30.6430005 -117.298,84.0510005 0,0.04 -27.188,75.462996 -27.267,75.742996 -4.989,12.693 -7.522,24.732 -7.522,35.706 0,12.005 3.058,22.75 9.182,31.715 10.773,15.77 30.387,24.646 53.608,24.646 27.521,-0.026 57.714,-8.746 75.59,-22.164 0.078,-0.079 0.157,-0.132 0.236,-0.192 0.034,0.113 0.061,0.228 0.086,0.349 3.704,13.918 16.688,21.965 35.174,21.896 20.296,-0.018 40.871,-7.935 55.278,-21.249 0.122,-0.113 0.245,-0.228 0.358,-0.349 0,0.192 -0.01,0.366 -0.01,0.55 -0.008,5.373 1.45,10.038 4.806,13.472 3.801,3.854 9.574,5.854 16.162,5.854 10.624,-0.026 25.774,-3.372 37.385,-10.457 l -26.044,70.399 c 0,0.018 -2.088,5.626 -2.105,5.626 -0.131,0.21 -0.358,0.683 -0.376,1.529 -0.008,0.49 0.113,1.145 0.473,1.738 1.283,1.94 5.059,5.016 21.501,5.051 22.784,-0.035 26.935,-7.417 27.406,-8.642 l 25.259,-68.783 c 5.581,2.271 16.065,5.225 26.716,5.243 26.262,0.165 56.806,-8.931 78.42,-70.384 3.766,-10.589 6.684,-19.417 8.729,-27.905 1.049,-4.404 1.582,-8.527 1.582,-12.367 0.009,-7.19 -1.914,-13.402 -5.793,-18.304 m -226.953,89.697 v 0 0.017 l -0.018,0.053 c -4.202,11.638 -12.931,18.276 -23.554,18.313 -3.347,-0.018 -5.382,-0.979 -6.665,-2.691 -0.919,-1.231 -1.435,-2.901 -1.443,-5.233 0,-2.142 0.464,-4.814 1.443,-7.993 -0.019,0.052 6.211,-16.88 12.457,-33.847 3.128,-8.492 6.257,-16.972 8.597,-23.34 1.18,-3.185 2.159,-5.845 2.84,-7.715 0.341,-0.921 0.611,-1.655 0.795,-2.153 0.096,-0.253 0.167,-0.441 0.21,-0.572 l 0.018,-0.057 c 4.508,-11.065 11.986,-17.177 19.771,-17.15 8.125,0.109 12.065,2.639 13.934,7.671 z m 183.479,-63.67 -0.018,0.044 c 0.009,-0.009 0.009,-0.009 0.009,-0.009 0,0.018 -0.009,0.035 -0.018,0.061 0,0 0,0 0,-0.009 l -0.009,0.027 c -1.118,3.044 -24.323,66.429 -24.411,66.718 -4.42,10.816 -11.917,16.932 -19.728,16.905 -7.163,0.035 -12.859,-1.722 -15.604,-3.172 l 29.521,-78.063 c 4.377,-11.881 12.834,-18.329 23.572,-18.364 3.354,0.018 5.39,0.992 6.684,2.691 0.899,1.227 1.415,2.892 1.424,5.207 0.002,2.128 -0.471,4.797 -1.422,7.964"
   id="path18" />

</svg>
