<?xml version="1.0" encoding="UTF-8" standalone="no"?>
<svg
   xmlns:dc="http://purl.org/dc/elements/1.1/"
   xmlns:cc="http://creativecommons.org/ns#"
   xmlns:rdf="http://www.w3.org/1999/02/22-rdf-syntax-ns#"
   xmlns:svg="http://www.w3.org/2000/svg"
   xmlns="http://www.w3.org/2000/svg"
   xmlns:sodipodi="http://sodipodi.sourceforge.net/DTD/sodipodi-0.dtd"
   xmlns:inkscape="http://www.inkscape.org/namespaces/inkscape"
   id="svg"
   width="400"
   height="181.8181818181818"
   viewBox="0, 0, 400,181.8181818181818"
   version="1.1"
   sodipodi:docname="x1-w.svg"
   inkscape:version="0.92.4 (5da689c313, 2019-01-14)">
  <metadata
     id="metadata9">
    <rdf:RDF>
      <cc:Work
         rdf:about="">
        <dc:format>image/svg+xml</dc:format>
        <dc:type
           rdf:resource="http://purl.org/dc/dcmitype/StillImage" />
      </cc:Work>
    </rdf:RDF>
  </metadata>
  <defs
     id="defs7" />
  <sodipodi:namedview
     pagecolor="#ffffff"
     bordercolor="#666666"
     borderopacity="1"
     objecttolerance="10"
     gridtolerance="10"
     guidetolerance="10"
     inkscape:pageopacity="0"
     inkscape:pageshadow="2"
     inkscape:window-width="640"
     inkscape:window-height="480"
     id="namedview5"
     showgrid="false"
     inkscape:zoom="1.3222897"
     inkscape:cx="-71.994117"
     inkscape:cy="112.36"
     inkscape:current-layer="svg" />
  <g
     id="svgg"
     style="fill:#f2f2f2">
    <path
       id="path0"
       d="M56.727 37.524 C 56.727 38.184,64.305 51.501,82.555 82.909 C 85.672 88.274,105.711 122.972,112.902 135.457 L 118.664 145.460 211.476 145.275 L 304.288 145.091 312.878 130.182 C 317.603 121.982,321.696 114.783,321.972 114.183 C 322.249 113.584,332.233 96.075,344.159 75.274 L 365.842 37.455 314.013 37.268 L 262.184 37.081 258.242 41.268 C 256.073 43.571,250.729 49.218,246.366 53.818 L 238.432 62.182 252.874 62.545 L 267.317 62.909 256.874 81.455 C 251.131 91.655,245.523 101.636,244.412 103.636 C 243.302 105.636,241.479 108.909,240.362 110.909 C 239.245 112.909,235.958 118.800,233.057 124.000 C 230.157 129.200,227.178 134.522,226.437 135.826 L 225.091 138.197 211.365 138.007 L 197.639 137.818 168.820 87.466 L 140.000 37.115 98.364 37.103 C 75.464 37.096,56.727 37.286,56.727 37.524 M154.286 39.818 C 158.197 46.771,173.629 74.448,176.589 79.818 C 178.408 83.118,180.106 85.818,180.361 85.818 C 180.616 85.818,185.850 80.664,191.993 74.364 C 198.135 68.064,208.909 57.100,215.936 50.000 L 228.712 37.091 190.732 37.091 L 152.752 37.091 154.286 39.818 M137.096 47.091 C 137.880 48.591,139.473 51.455,140.636 53.455 C 146.486 63.519,160.041 87.115,164.032 94.182 C 166.516 98.582,173.138 110.200,178.747 120.000 L 188.946 137.818 156.195 138.007 C 125.643 138.184,123.381 138.111,122.507 136.917 C 121.991 136.212,116.679 127.127,110.701 116.727 C 104.724 106.327,93.683 87.182,86.167 74.182 C 78.650 61.182,71.705 49.155,70.733 47.455 L 68.967 44.364 102.318 44.364 L 135.669 44.364 137.096 47.091 M196.673 58.909 C 180.152 75.597,181.959 74.421,179.638 70.000 C 178.641 68.100,175.274 62.039,172.156 56.530 C 169.039 51.022,166.302 46.031,166.075 45.439 C 165.716 44.504,168.628 44.364,188.368 44.364 L 211.072 44.364 196.673 58.909 M352.727 44.787 C 352.727 45.019,351.582 47.164,350.182 49.553 C 348.782 51.942,347.636 54.074,347.636 54.290 C 347.636 54.507,347.029 55.553,346.287 56.615 C 345.544 57.677,342.468 62.964,339.450 68.364 C 336.432 73.764,330.286 84.564,325.791 92.364 C 321.297 100.164,316.691 108.218,315.555 110.262 C 314.419 112.306,310.414 119.343,306.654 125.898 L 299.817 137.818 267.000 138.007 C 248.950 138.111,234.182 138.030,234.182 137.826 C 234.182 137.469,239.734 127.387,249.605 109.818 C 252.190 105.218,255.300 99.655,256.517 97.455 C 257.734 95.255,260.469 90.345,262.594 86.545 C 264.719 82.745,269.474 74.236,273.160 67.636 L 279.863 55.636 267.759 55.273 L 255.656 54.909 260.654 49.636 L 265.652 44.364 309.190 44.364 C 333.135 44.364,352.727 44.554,352.727 44.787 M74.079 95.818 C 73.444 96.518,61.978 107.973,48.598 121.273 L 24.272 145.455 65.227 145.455 C 87.752 145.455,106.182 145.200,106.182 144.889 C 106.182 144.578,105.732 143.678,105.183 142.889 C 104.313 141.641,92.779 122.298,88.440 114.812 C 87.598 113.359,84.618 108.214,81.818 103.380 C 76.523 94.237,75.987 93.713,74.079 95.818 M77.626 111.091 C 79.212 113.791,83.340 120.792,86.800 126.649 C 90.260 132.506,93.091 137.497,93.091 137.740 C 93.091 137.983,81.587 138.182,67.526 138.182 L 41.961 138.182 58.253 122.213 C 67.214 113.430,74.590 106.230,74.644 106.213 C 74.699 106.196,76.041 108.391,77.626 111.091 "
       stroke="none"
       fill="#000000"
       fill-rule="evenodd"
       style="fill:#f2f2f2" />
  </g>
</svg>
