<?xml version="1.0" encoding="UTF-8" standalone="no"?>
<!-- Created by ERK -->

<svg
   height="179.47627"
   viewBox="0 0 1231.8273 280.80517"
   width="787.32141"
   version="1.1"
   id="svg5"
   sodipodi:docname="xash3d_fwgs-w.svg"
   inkscape:version="1.3.2 (091e20e, 2023-11-25, custom)"
   xmlns:inkscape="http://www.inkscape.org/namespaces/inkscape"
   xmlns:sodipodi="http://sodipodi.sourceforge.net/DTD/sodipodi-0.dtd"
   xmlns="http://www.w3.org/2000/svg"
   xmlns:svg="http://www.w3.org/2000/svg">
  <defs
     id="defs5" />
  <sodipodi:namedview
     id="namedview5"
     pagecolor="#ffffff"
     bordercolor="#000000"
     borderopacity="0.25"
     inkscape:showpageshadow="2"
     inkscape:pageopacity="0.0"
     inkscape:pagecheckerboard="true"
     inkscape:deskcolor="#d1d1d1"
     inkscape:zoom="2.294868"
     inkscape:cx="402.20178"
     inkscape:cy="102.62028"
     inkscape:window-width="2560"
     inkscape:window-height="1351"
     inkscape:window-x="-9"
     inkscape:window-y="-9"
     inkscape:window-maximized="1"
     inkscape:current-layer="svg5" />
  <g
     id="g10"
     inkscape:label="Logo"
     transform="translate(2.3468707,2.3468707)">
    <g
       id="g9"
       inkscape:label="Half-Life">
      <path
         d="m 371.948,106.612 v 57.268 h -9.973 V 138.622 H 344.28 v 25.258 h -10.215 v -57.268 h 10.215 v 22.602 h 17.696 v -22.602 z m 109.362,60.486 -11.903,-30.886 -17.454,28.15 h -10.937 l 24.37,-40.298 -2.733,-7.96 h -9.492 v -9.492 h 16.246 l 18.663,48.581 8.201,-2.736 2.737,9.415 z M 590.436,154.55 h 28.314 v 9.249 h -38.367 v -57.108 h 10.053 z m 142.253,-47.859 h 0.805 v 9.413 h -20.593 v 13.349 h 16.648 v 9.253 h -16.648 v 25.174 h -10.214 v -57.19 z m 80.385,22.683 v 9.733 h -26.865 v -9.733 z m 60.083,25.176 h 28.316 v 9.249 h -38.369 v -57.108 h 10.053 z m 117.589,-47.859 h 0.885 v 57.271 h -9.978 v -57.27 z m 122.371,0 h 0.806 v 9.413 h -20.591 v 13.349 h 16.646 v 9.253 h -16.646 v 25.174 h -10.217 v -57.19 z m 114.017,47.939 v 9.25 h -36.035 v -57.19 h 34.99 v 9.33 h -24.935 v 13.27 h 21.636 v 9.415 h -21.636 v 15.925 z"
         id="path8"
         style="fill:#fb7e14;stroke-width:0.183"
         inkscape:label="Half-Life" />
      <circle
         cx="138.056"
         cy="138.056"
         r="130.233"
         style="opacity:0.98;fill:none;stroke:#fb7e14;stroke-width:15.6458;stroke-linecap:round;stroke-linejoin:round"
         id="circle8"
         inkscape:label="Circle" />
      <path
         d="m 168.797,173.865 5.847,19.65 -33.974,11.6 -20.33,-61.86 -31.197,57.352 H 66.025 l 44.84,-87.305 -5.563,-15.782 H 91.092 V 78.826 h 28.41 l 33.973,100.519 z"
         fill="#fb7e14"
         id="path9"
         inkscape:label="A" />
    </g>
    <path
       d="m 52.418,132.385 1.004,1.642 -14.336,23.144 h 7.187 l 10.41,-19.203 c 3.485,6.4 6.97,12.802 10.453,19.203 H 74.3 c -4.768,-7.715 -9.537,-15.43 -14.304,-23.146 4.445,-7.278 8.892,-14.555 13.338,-21.832 h -7.135 l -9.51,18.02 -9.508,-18.02 h -7.1 l 12.337,20.191 z m 126.137,-20.606 c -4.488,0.07 -9.25,1.41 -12.32,4.864 -2.409,2.642 -3.24,6.378 -2.86,9.868 0.194,2.87 1.388,5.832 3.868,7.459 3.332,2.342 7.525,2.549 11.418,3.126 2.57,0.35 5.427,0.554 7.393,2.46 2.228,2.15 2.636,5.772 1.397,8.535 -1.21,2.64 -4.1,3.983 -6.85,4.342 -3.93,0.486 -7.996,0.107 -11.75,-1.166 a 14.842,14.842 0 0 1 -2.685,-1.256 l -3.871,3.805 c 3.946,2.872 8.972,3.58 13.729,3.755 4.775,0.181 9.842,-0.62 13.769,-3.519 2.683,-1.985 4.526,-5.129 4.646,-8.496 0.097,-3.059 -0.148,-6.384 -2.002,-8.94 -2.148,-2.794 -5.76,-3.802 -9.088,-4.338 -2.688,-0.422 -5.414,-0.625 -8.08,-1.175 -2.758,-0.645 -5.342,-2.78 -5.763,-5.69 -0.614,-3.614 1.99,-7.2 5.384,-8.288 2.699,-0.915 5.617,-0.632 8.399,-0.336 1.832,0.23 3.66,0.727 5.228,1.728 l 3.621,-3.557 c -3.974,-2.621 -8.924,-3.238 -13.584,-3.181 z m 25.824,45.392 h 6.59 v -20.31 h 19.89 v 20.31 h 6.553 v -44.978 h -6.553 v 19.715 h -19.89 v -19.716 h -6.59 z"
       id="path10"
       style="fill:#ffffff;stroke-width:0.661"
       inkscape:label="X_SH" />
  </g>
</svg>
