<svg height="176.476" viewBox="0 0 1251.736 276.111" width="800.046" xmlns="http://www.w3.org/2000/svg">
    <g fill="#fff" fill-opacity=".4" stroke-width="3.911">
        <path d="M224.463 110.537q0 .376-.09.632-.135.382-.432.382-.198 0-.413-.09-.26-.11-.285-.27.088 0 .206.032.276.072.344.072.266 0 .401-.266.106-.213.106-.51 0-.21-.137-.598-.135-.391-.135-.545 0-.046.025-.075.028-.03.075-.03.122 0 .238.562.097.476.097.704zM225.668 110.857q0 .319-.185.5-.184.182-.51.182-.178 0-.275-.085-.097-.084-.097-.26 0-.247.322-.497.307-.238.567-.238.119 0 .156.147.022.085.022.25zm-.19.087q0-.037-.01-.072-.01-.037-.026-.084-.05.034-.166.169-.06.069-.103.1 0-.06.012-.097l.041-.09q-.138 0-.288.115-.147.116-.147.25 0 .09.1.09.191 0 .37-.093.215-.113.215-.288zM226.957 110.985q0 .153-.116.344-.13.216-.272.216-.04 0-.069-.044-.025-.047-.025-.09 0-.057.12-.176.121-.122.121-.166 0-.028-.01-.056t-.012-.038q-.234.054-.479.27-.24.215-.366.244-.025-.07-.025-.141 0-.088.041-.185.028-.069.094-.166.11-.165.232-.375l.216-.379q.156-.269.228-.382.038-.056.066-.084.041-.038.097-.05.038.012.053.047.02.034.02.081 0 .107-.138.288-.25.326-.257.338-.14.213-.14.385l.01.031q.171-.084.203-.097.128-.053.219-.053.1 0 .147.069.047.066.047.169zM228.41 110.8q0 .213-.104.454-.113.266-.279.366-.034-.04-.06-.09-.022-.05-.022-.1 0-.054.157-.317.069-.116.063-.203v-.04q-.116.034-.4.209l-.57.35q-.044 0-.081-.031-.034-.035-.034-.075 0-.066.21-.441.063-.113.225-.392.05.066.066.148.016.078.016.187v.072q.288-.172.45-.26.179-.096.245-.096.044 0 .08.1.042.1.042.16zM231.128 111.407q0 .057-.05.088-.047.028-.106.028-.053 0-.134-.012-.185-.029-.238-.029-.094 0-.37.022-.156.013-.225.013-.19 0-.19-.191 0-.182.118-.52.066-.19.247-.625.163-.391.207-.551.016-.05.025-.066.025-.037.063-.037.059 0 .1.087.041.085.041.154 0 .11-.128.369-.129.256-.25.504-.135.294-.135.447 0 .078.066.11.047.022.138.022.069 0 .237-.016.17-.019.226-.019.14 0 .231.04.129.057.129.182zM232.292 110.857q0 .319-.184.5-.185.182-.51.182-.179 0-.276-.085-.097-.084-.097-.26 0-.247.323-.497.306-.238.566-.238.12 0 .157.147.022.085.022.25zm-.19.087q0-.037-.01-.072l-.025-.084q-.05.034-.166.169-.06.069-.103.1 0-.06.013-.097.025-.053.04-.09-.137 0-.287.115-.147.116-.147.25 0 .09.1.09.19 0 .369-.093.216-.113.216-.288zM233.61 110.79q0 .101-.053.214-.05.112-.128.187v-.043q0-.038.01-.116.01-.078.01-.116 0-.053-.016-.078-.016-.028-.066-.028-.148 0-.367.228l-.472.498q-.019 0-.038-.004l-.062-.015q.01-.113.078-.25.185-.373.19-.398l.039-.147q.013-.047.034-.097.025-.053.056-.094.034-.044.088-.066l.03.376.207-.169q.138-.11.238-.11.1 0 .163.066t.063.163zM235.146 110.428q0 .131-.35.347-.338.207-.491.207-.072 0-.097-.05-.022-.05-.022-.141v-.085q.21 0 .381-.062.172-.063.3-.207-.093-.034-.19-.034-.229 0-.485.175-.282.19-.282.407 0 .206.282.288.044.012.529.087.284.044.284.154 0 .047-.103.075-.103.031-.263.031-.4 0-.632-.122-.306-.163-.306-.523 0-.375.375-.597.32-.188.726-.188.122 0 .222.056.122.07.122.182zM236.392 109.868q0 .069-.166.288-.166.219-.166.334 0 .06.069.12.156.137.156.168 0 .041-.028.079-.025.037-.066.037-.034 0-.097-.037-.044-.025-.169-.122l-.072.137q-.088.166-.119.241l-.094.288q-.08.194-.203.194v-.072q0-.222.144-.526.028-.056.156-.29-.247-.135-.544-.135 0-.116.047-.17.05-.055.166-.055.106 0 .266.037l.156.038q.06-.02.163-.204.253-.444.344-.51.025.04.041.082.02.04.02.078zM237.546 110.985q0 .153-.115.344-.132.216-.273.216-.04 0-.069-.044-.025-.047-.025-.09 0-.057.12-.176.121-.122.121-.166 0-.028-.01-.056l-.013-.038q-.234.054-.478.27-.241.215-.366.244-.025-.07-.025-.141 0-.088.04-.185.029-.069.095-.166.11-.165.231-.375l.216-.379q.156-.269.228-.382.038-.056.066-.084.041-.038.097-.05.038.012.053.047.02.034.02.081 0 .107-.138.288-.25.326-.257.338-.14.213-.14.385l.01.031q.171-.084.203-.097.128-.053.219-.053.1 0 .147.069.047.066.047.169zM240.115 109.965q0 .147-.156.394-.1.156-.329.45-.228.292-.284.382l.234.075q.229.07.229.25-.094.016-.185.029l-.034-.003v-.025q-.05-.013-.08-.013-.06 0-.189.02-.128.018-.194.018-.085 0-.137-.031-.053-.032-.053-.113 0-.066.24-.372.451-.573.454-.58.244-.331.244-.444 0-.043-.03-.065-.029-.022-.116-.022-.06 0-.248.116-.09.056-.147.056l-.053-.01q-.019-.012-.04-.047-.023-.037-.023-.059 0-.131.254-.24.216-.095.375-.095.135 0 .207.1.062.088.062.229zM241.996 110.528q0 .379-.41.67-.375.266-.773.266-.197 0-.313-.1-.116-.1-.116-.292 0-.425.373-.738.353-.297.792-.297.222 0 .334.131.113.132.113.36zm-.19.072q0-.144-.164-.216-.122-.053-.29-.053-.248 0-.517.24-.269.242-.269.486 0 .1.05.144.053.04.16.04.306 0 .638-.169.391-.2.391-.472zM243.43 109.965q0 .147-.157.394-.1.156-.329.45-.228.292-.285.382l.235.075q.229.07.229.25-.094.016-.185.029l-.034-.003v-.025q-.05-.013-.081-.013-.06 0-.188.02-.128.018-.194.018-.084 0-.138-.031-.053-.032-.053-.113 0-.066.241-.372.451-.573.454-.58.244-.331.244-.444 0-.043-.03-.065-.029-.022-.117-.022-.059 0-.247.116-.09.056-.147.056l-.053-.01q-.019-.012-.04-.047-.023-.037-.023-.059 0-.131.253-.24.216-.095.376-.095.135 0 .206.1.063.088.063.229zM244.869 109.965q0 .147-.157.394-.1.156-.328.45-.229.292-.285.382l.234.075q.229.07.229.25-.094.016-.185.029l-.034-.003v-.025q-.05-.013-.08-.013-.06 0-.188.02-.129.018-.194.018-.084 0-.138-.031-.053-.032-.053-.113 0-.066.24-.372.451-.573.455-.58.244-.331.244-.444 0-.043-.031-.065-.028-.022-.116-.022-.06 0-.247.116-.091.056-.147.056l-.053-.01q-.02-.012-.041-.047-.022-.037-.022-.059 0-.131.253-.24.216-.095.375-.095.135 0 .207.1.063.088.063.229z"/>
    </g>
    <g fill="#fb7e14" stroke-width=".183">
        <path d="M371.948 106.612v57.268h-9.973v-25.258H344.28v25.258h-10.215v-57.268h10.215v22.602h17.696v-22.602zM481.31 167.098l-11.903-30.886-17.454 28.15h-10.937l24.37-40.298-2.733-7.96h-9.492v-9.492h16.246l18.663 48.581 8.201-2.736 2.737 9.415zM590.436 154.55h28.314v9.249h-38.367v-57.108h10.053zM732.689 106.691h.805v9.413h-20.593v13.349h16.648v9.253h-16.648v25.174h-10.214V106.69zM813.074 129.374v9.733h-26.865v-9.733zM873.157 154.55h28.316v9.249h-38.369v-57.108h10.053zM990.746 106.691h.885v57.271h-9.978v-57.27zM1113.117 106.691h.806v9.413h-20.591v13.349h16.646v9.253h-16.646v25.174h-10.217V106.69zM1227.134 154.63v9.25h-36.035V106.69h34.99v9.33h-24.935v13.27h21.636v9.415h-21.636v15.925z"/>
    </g>
    <g transform="translate(40.695 37.595)">
        <circle cx="97.361" cy="100.461" r="130.233" style="opacity:.98;fill:none;stroke:#fb7e14;stroke-width:15.6458;stroke-linecap:round;stroke-linejoin:round"/>
        <path d="m128.102 136.27 5.847 19.65-33.974 11.6-20.33-61.86-31.197 57.352H25.33l44.84-87.305-5.563-15.782h-14.21V41.231h28.41L112.78 141.75z" fill="#fb7e14"/>
        <g fill="#666" stroke-width=".661">
            <path d="m11.723 94.79 1.004 1.642-14.336 23.144h7.187l10.41-19.203c3.485 6.4 6.97 12.802 10.453 19.203h7.164c-4.768-7.715-9.537-15.43-14.304-23.146 4.445-7.278 8.892-14.555 13.338-21.832h-7.135l-9.51 18.02-9.508-18.02h-7.1l12.337 20.191zM137.86 74.184c-4.488.07-9.25 1.41-12.32 4.864-2.409 2.642-3.24 6.378-2.86 9.868.194 2.87 1.388 5.832 3.868 7.459 3.332 2.342 7.525 2.549 11.418 3.126 2.57.35 5.427.554 7.393 2.46 2.228 2.15 2.636 5.772 1.397 8.535-1.21 2.64-4.1 3.983-6.85 4.342-3.93.486-7.996.107-11.75-1.166a14.842 14.842 0 0 1-2.685-1.256l-3.871 3.805c3.946 2.872 8.972 3.58 13.729 3.755 4.775.181 9.842-.62 13.769-3.519 2.683-1.985 4.526-5.129 4.646-8.496.097-3.059-.148-6.384-2.002-8.94-2.148-2.794-5.76-3.802-9.088-4.338-2.688-.422-5.414-.625-8.08-1.175-2.758-.645-5.342-2.78-5.763-5.69-.614-3.614 1.99-7.2 5.384-8.288 2.699-.915 5.617-.632 8.399-.336 1.832.23 3.66.727 5.228 1.728l3.621-3.557c-3.974-2.621-8.924-3.238-13.584-3.181zM163.684 119.576h6.59v-20.31h19.89v20.31h6.553V74.598h-6.553v19.715h-19.89V74.597h-6.59z"/>
        </g>
    </g>
</svg>
