<svg height="46.692707mm" viewBox="0 0 1251.7364 276.1114" width="211.67892mm" xmlns="http://www.w3.org/2000/svg"><g transform="translate(40.695008 37.594613)"><g fill="#fff" fill-opacity=".399826" stroke-width="3.91145" transform="translate(-823.78115 5.220007)"><path d="m1007.5495 67.722774q0 .375499-.091.63209-.1345.381757-.4318.381757-.1971 0-.413-.09074-.2598-.109521-.2848-.269108.088 0 .2065.03129.2754.07197.3442.07197.266 0 .4006-.265978.1064-.212783.1064-.510053 0-.209654-.1377-.59767-.1346-.391145-.1346-.544474 0-.04694.025-.0751.028-.03129.075-.03129.1221 0 .2379.563249.097.475632.097.704061z"/><path d="m1008.7542 68.041948q0 .319174-.1846.500665-.1846.181492-.5101.181492-.1783 0-.2753-.08449-.097-.08449-.097-.25972 0-.247203.3223-.497536.3066-.237816.5663-.237816.1189 0 .1565.14707.022.08449.022.250333zm-.1909.08762q0-.03755-.01-.07197-.01-.03755-.025-.08449-.05.03442-.1658.168975-.06.06884-.1033.100133 0-.05945.012-.097.025-.0532.041-.09075-.1377 0-.2879.115778-.1471.115779-.1471.250333 0 .09075.1002.09075.1908 0 .3692-.09388.2159-.11265.2159-.287883z"/><path d="m1010.0434 68.170243q0 .153329-.1158.344208-.1314.215912-.2722.215912-.041 0-.069-.04381-.025-.04694-.025-.09075 0-.05633.1189-.175233.1221-.122037.1221-.165845 0-.02816-.01-.05633-.01-.02816-.012-.03755-.2347.0532-.4788.269108-.2409.215912-.3661.244074-.025-.06884-.025-.140812 0-.08762.041-.18462.028-.06884.094-.165846.1095-.165845.2316-.375499.063-.109521.2159-.378628.1564-.269108.2284-.381758.038-.05633.066-.08449.041-.03755.097-.05007.038.01252.053.04694.019.03442.019.08136 0 .106391-.1377.287882-.2503.325433-.2566.33795-.1408.212783-.1408.384886l.01.03129q.1721-.08449.2034-.097.1283-.0532.219-.0532.1001 0 .1471.06884.047.06571.047.168974z"/><path d="m1011.4953 67.985623q0 .212783-.1032.453728-.1127.265979-.2785.366112-.034-.04068-.06-.09075-.022-.05007-.022-.100133 0-.0532.1565-.316045.069-.115779.063-.203395v-.04068q-.1157.03442-.4005.209653-.2816.172104-.5695.350466-.044 0-.081-.03129-.034-.03442-.034-.0751 0-.06571.2097-.441212.063-.11265.2253-.391145.05.06571.066.147071.016.07823.016.187749 0 .04694 0 .07197.2879-.172104.4506-.25972.1784-.097.2441-.097.044 0 .081.100133.041.100133.041.159587z"/><path d="m1014.2146 68.59268q0 .05633-.05.08762-.047.02816-.1064.02816-.053 0-.1345-.01252-.1846-.02816-.2378-.02816-.094 0-.3693.0219-.1564.01252-.2253.01252-.1909 0-.1909-.190879 0-.181491.1189-.519441.066-.190878.2472-.625832.1628-.391145.2066-.550732.016-.05007.025-.06571.025-.03755.063-.03755.059 0 .1001.08762.041.08449.041.153329 0 .109521-.1283.369241-.1283.256591-.2503.503795-.1346.294141-.1346.44747 0 .07823.066.10952.047.0219.1377.0219.069 0 .2378-.01564.169-.01878.2253-.01878.1408 0 .2316.04068.1283.05633.1283.181491z"/><path d="m1015.3786 68.041948q0 .319174-.1846.500665-.1846.181492-.51.181492-.1784 0-.2754-.08449-.097-.08449-.097-.25972 0-.247203.3223-.497536.3066-.237816.5664-.237816.1189 0 .1564.14707.022.08449.022.250333zm-.1908.08762q0-.03755-.01-.07197-.01-.03755-.025-.08449-.05.03442-.1658.168975-.059.06884-.1033.100133 0-.05945.013-.097.025-.0532.041-.09075-.1377 0-.2879.115778-.147.115779-.147.250333 0 .09075.1001.09075.1909 0 .3692-.09388.216-.11265.216-.287883z"/><path d="m1016.696 67.976236q0 .100133-.053.212782-.05.11265-.1283.18775v-.04381q0-.03755.01-.115779.01-.07823.01-.115779 0-.0532-.016-.07823-.016-.02816-.066-.02816-.1471 0-.3661.228429-.2378.250333-.4725.497537-.019 0-.038-.0031-.047-.01252-.062-.01564.01-.11265.078-.250333.1846-.37237.1909-.397403.025-.100134.038-.147071.013-.04694.034-.097.025-.0532.056-.09387.034-.04381.088-.06571l.031.375499q.1345-.109521.2065-.168975.1377-.10952.2378-.10952.1001 0 .1627.06571.063.06571.063.162717z"/><path d="m1018.2324 67.613253q0 .131425-.3504.347337-.338.206524-.4913.206524-.072 0-.097-.05007-.022-.05007-.022-.140812 0-.05945 0-.08449.2096 0 .3817-.06258.1721-.06258.3004-.206525-.094-.03442-.1908-.03442-.2285 0-.4851.175233-.2816.190878-.2816.40679 0 .206525.2816.287883.044.01252.5289.08762.2847.04381.2847.153328 0 .04694-.1032.0751-.1033.03129-.2629.03129-.4005 0-.6321-.122037-.3066-.162717-.3066-.52257 0-.375499.3755-.59767.3191-.187749.7259-.187749.1221 0 .2222.05633.122.06884.122.181491z"/><path d="m1019.4778 67.053133q0 .06884-.1658.287883-.1659.219041-.1659.33482 0 .05945.069.118908.1564.137683.1564.168975 0 .04068-.028.07823-.025.03755-.066.03755-.034 0-.097-.03755-.044-.02503-.169-.122037-.047.09074-.072.137683-.088.165845-.1189.240945-.047.143941-.094.287883-.081.194008-.2034.194008v-.07197q0-.22217.144-.525699.028-.05633.1564-.291012-.2472-.134554-.5445-.134554 0-.115779.047-.168974.05-.05633.1658-.05633.1064 0 .266.03755.078.01878.1565.03755.059-.01877.1627-.203396.2534-.44434.3442-.510053.025.04068.041.08136.019.04068.019.07823z"/><path d="m1020.6325 68.170243q0 .153329-.1158.344208-.1314.215912-.2722.215912-.041 0-.069-.04381-.025-.04694-.025-.09075 0-.05633.1189-.175233.1221-.122037.1221-.165845 0-.02816-.01-.05633-.01-.02816-.013-.03755-.2346.0532-.4787.269108-.241.215912-.3661.244074-.025-.06884-.025-.140812 0-.08762.041-.18462.028-.06884.094-.165846.1095-.165845.2316-.375499.062-.109521.2159-.378628.1564-.269108.2284-.381758.038-.05633.066-.08449.041-.03755.097-.05007.038.01252.053.04694.019.03442.019.08136 0 .106391-.1377.287882-.2503.325433-.2566.33795-.1408.212783-.1408.384886l.01.03129q.1721-.08449.2033-.097.1283-.0532.2191-.0532.1001 0 .1471.06884.047.06571.047.168974z"/><path d="m1023.2015 67.150137q0 .147071-.1564.394274-.1001.156458-.3286.450599-.2284.291012-.2847.381758.01.0031.2347.0751.2284.06884.2284.250333-.094.01564-.1846.02816l-.034-.0031v-.02503q-.05-.01252-.081-.01252-.06 0-.1878.01878-.1283.01877-.194.01877-.085 0-.1377-.03129-.053-.03129-.053-.112649 0-.06571.241-.372371.4506-.572636.4537-.578894.2441-.331691.2441-.444341 0-.04381-.031-.06571-.028-.0219-.1158-.0219-.059 0-.2472.115779-.091.05633-.147.05633l-.053-.0094q-.019-.01252-.041-.04694-.022-.03755-.022-.05945 0-.131425.2534-.240946.2159-.09388.3755-.09388.1346 0 .2066.100134.062.08762.062.228428z"/><path d="m1025.0822 67.713386q0 .378628-.41.66964-.3755.265979-.7729.265979-.1971 0-.3129-.100133-.1158-.100133-.1158-.291012 0-.425566.3724-.738482.3536-.29727.7917-.29727.2222 0 .3348.131425.1127.131424.1127.359853zm-.1909.07197q0-.143942-.1627-.215912-.1221-.0532-.291-.0532-.2472 0-.5164.240945-.2691.240946-.2691.48502 0 .100133.05.143941.053.04068.1596.04068.3066 0 .6383-.168975.3912-.200266.3912-.472503z"/><path d="m1026.5153 67.150137q0 .147071-.1564.394274-.1002.156458-.3286.450599-.2284.291012-.2848.381758.01.0031.2347.0751.2285.06884.2285.250333-.094.01564-.1847.02816l-.034-.0031v-.02503q-.05-.01252-.081-.01252-.06 0-.1878.01878-.1283.01877-.194.01877-.084 0-.1377-.03129-.053-.03129-.053-.112649 0-.06571.241-.372371.4506-.572636.4537-.578894.2441-.331691.2441-.444341 0-.04381-.031-.06571-.028-.0219-.1158-.0219-.059 0-.2472.115779-.091.05633-.1471.05633l-.053-.0094q-.019-.01252-.041-.04694-.022-.03755-.022-.05945 0-.131425.2534-.240946.2159-.09388.3755-.09388.1346 0 .2065.100134.063.08762.063.228428z"/><path d="m1027.9547 67.150137q0 .147071-.1564.394274-.1002.156458-.3286.450599-.2284.291012-.2847.381758.01.0031.2346.0751.2285.06884.2285.250333-.094.01564-.1846.02816l-.034-.0031v-.02503q-.05-.01252-.081-.01252-.06 0-.1878.01878-.1283.01877-.194.01877-.084 0-.1377-.03129-.053-.03129-.053-.112649 0-.06571.241-.372371.4506-.572636.4537-.578894.2441-.331691.2441-.444341 0-.04381-.031-.06571-.028-.0219-.1158-.0219-.059 0-.2472.115779-.091.05633-.1471.05633l-.053-.0094q-.019-.01252-.041-.04694-.022-.03755-.022-.05945 0-.131425.2534-.240946.2159-.09388.3755-.09388.1346 0 .2065.100134.063.08762.063.228428z"/></g><g fill="#fb7e14" stroke-width=".183044" transform="matrix(.19272853 0 0 -.19272854 -936.84051 440.19853)"><path d="m6579.686 1925.9266v-297.1406h-51.743v131.0506h-91.82v-131.0506h-53v297.1406h53v-117.273h91.82v117.273z"/><path d="m7147.131 1612.0868-61.762 160.2578-90.562-146.0586h-56.75l126.445 209.0896-14.18 41.301h-49.25v49.25h84.297l96.832-252.0703 42.555 14.1992 14.199-48.8515z"/><path d="m7713.343 1677.1962h146.91v-47.9922h-199.07v296.3126h47.99 4.17z"/><path d="m8451.443 1925.5166h4.18v-48.84h-106.85v-69.262h86.38v-48.011h-86.38v-130.6176h-53v296.7306z"/><path d="m8868.533 1807.8246v-50.5h-139.39v50.5z"/><path d="m9180.283 1677.1962h146.92v-47.9922h-199.08v296.3126h47.98 4.18z"/><path d="m9790.413 1925.5166h4.59v-297.1603h-51.77v297.1603z"/><path d="m10425.353 1925.5166h4.18v-48.84h-106.84v-69.262h86.37v-48.011h-86.37v-130.6176h-53.01v296.7306z"/><path d="m11016.943 1676.7743v-47.9883h-186.97v296.7306h177.37 4.18v-48.41h-129.38v-68.852h112.26v-48.851h-112.26v-82.6293z"/></g><g><circle cx="97.360695" cy="100.46109" r="130.2328" style="opacity:.98;fill:none;stroke:#fb7e14;stroke-width:15.6458;stroke-linecap:round;stroke-linejoin:round"/><path d="m128.10162 136.26914 5.84719 19.65016-33.973627 11.60136-20.329772-61.85996-31.19752 57.35111h-23.116841l44.840151-87.305164-5.56314-15.78166h-14.21071v-18.69389h28.41049l33.972399 100.518574z" fill="#fb7e14"/><g fill="#666" stroke-width=".661458"><path d="m11.722656 94.789062c.334636.547527.669271 1.095053 1.003906 1.642579-4.7784532 7.714959-9.5573202 15.429669-14.335937 23.144529h7.1875c3.4700783-6.40103 6.940506-12.80186 10.410156-19.20312 3.484788 6.40081 6.968777 12.80207 10.453125 19.20312h7.164063c-4.76811-7.71557-9.537261-15.43049-14.304688-23.146482 4.445418-7.277678 8.892009-14.554638 13.337891-21.832032-2.378255 0-4.756511 0-7.134766 0-3.169922 6.00651-6.33985 12.013017-9.509765 18.019532-3.170064-6.006092-6.3386362-12.012972-9.5078129-18.019532-2.3665364 0-4.7330729 0-7.09960935 0 4.11197915 6.730469 8.22395835 13.460938 12.33593725 20.191406z"/><path d="m137.85938 74.183594c-4.48746.07127-9.25028 1.410901-12.31873 4.864053-2.40951 2.642834-3.24014 6.378505-2.86071 9.868442.19359 2.869287 1.38824 5.831589 3.86831 7.45888 3.33129 2.341695 7.52478 2.54899 11.41736 3.126442 2.56962.348973 5.42717.553359 7.39377 2.459529 2.22713 2.14946 2.6359 5.77243 1.39648 8.53515-1.21067 2.64-4.09965 3.98249-6.84961 4.3418-3.93113.48643-7.99596.10674-11.75045-1.16569-.9309-.3339-1.83851-.74329-2.6851-1.25618-1.29036 1.26822-2.58073 2.53645-3.87109 3.80468 3.94666 2.87187 8.97199 3.58114 13.7289 3.75533 4.77575.18109 9.84271-.61955 13.76915-3.519 2.68365-1.98455 4.5264-5.1289 4.64623-8.49633.0974-3.05822-.14751-6.38324-2.00216-8.939838-2.14767-2.793375-5.75979-3.802293-9.08821-4.337795-2.68793-.422552-5.4138-.625368-8.0793-1.175255-2.75782-.644582-5.34229-2.779262-5.76285-5.690694-.61392-3.612661 1.98889-7.198224 5.38321-8.28696 2.69937-.915434 5.61709-.632366 8.39939-.336133 1.832.229083 3.65988.727125 5.2283 1.72785 1.20703-1.185547 2.41406-2.371094 3.62109-3.556641-3.97483-2.621555-8.92418-3.238177-13.58398-3.18164z"/><path d="m163.68359 119.57617h6.58985c0-6.77018 0-13.54036 0-20.310545h19.89062v20.310545h6.55274c0-14.99284 0-29.985675 0-44.978514-2.18425 0-4.36849 0-6.55274 0v19.714844c-6.63021 0-13.26041 0-19.89062 0 0-6.571615 0-13.143229 0-19.714844-2.19662 0-4.39323 0-6.58985 0z"/></g></g></g></svg>