<svg height="159.737" viewBox="0 0 337.175 70.073" width="768.614" xmlns="http://www.w3.org/2000/svg" xmlns:xlink="http://www.w3.org/1999/xlink">
    <linearGradient id="a">
        <stop offset=".011" stop-color="#fff"/>
        <stop offset=".32" stop-color="#fffffe"/>
        <stop offset=".431" stop-color="#fdfdf9"/>
        <stop offset=".51" stop-color="#fafbf1"/>
        <stop offset=".574" stop-color="#f5f8e5"/>
        <stop offset=".629" stop-color="#eff3d4"/>
        <stop offset=".678" stop-color="#e8eebe"/>
        <stop offset=".722" stop-color="#dfe7a2"/>
        <stop offset=".762" stop-color="#d5e080"/>
        <stop offset=".798" stop-color="#c9d756"/>
        <stop offset=".832" stop-color="#bacf20"/>
        <stop offset=".891" stop-color="#97c129"/>
        <stop offset=".962" stop-color="#6bb42f"/>
        <stop offset="1" stop-color="#58ae31"/>
    </linearGradient>
    <radialGradient id="c" cx="268.898" cy="327.506" gradientTransform="matrix(1.1328 0 0 -1.083 18.92 500.022)" gradientUnits="userSpaceOnUse" r="96.352" xlink:href="#a"/>
    <radialGradient id="d" cx="-909.589" cy="327.506" gradientTransform="matrix(-1.1328 0 0 -1.083 -564.612 500.022)" gradientUnits="userSpaceOnUse" r="96.352" xlink:href="#a"/>
    <linearGradient id="b">
        <stop offset=".011" stop-color="#fff"/>
        <stop offset=".326" stop-color="#fffffe"/>
        <stop offset=".44" stop-color="#fdfdf9"/>
        <stop offset=".52" stop-color="#fafbf1"/>
        <stop offset=".586" stop-color="#f5f8e5"/>
        <stop offset=".642" stop-color="#eff3d4"/>
        <stop offset=".692" stop-color="#e8eebe"/>
        <stop offset=".737" stop-color="#dfe7a2"/>
        <stop offset=".778" stop-color="#d5e080"/>
        <stop offset=".815" stop-color="#c9d756"/>
        <stop offset=".848" stop-color="#bacf20"/>
        <stop offset=".855" stop-color="#b4cc22"/>
        <stop offset=".896" stop-color="#91bf2a"/>
        <stop offset=".935" stop-color="#74b62e"/>
        <stop offset=".971" stop-color="#5fb031"/>
        <stop offset="1" stop-color="#58ae31"/>
    </linearGradient>
    <radialGradient id="e" cx="-485.358" cy="262.327" gradientTransform="matrix(-.9659 -.7017 -.8867 1.1157 151.95 -433.33)" gradientUnits="userSpaceOnUse" r="86.042" xlink:href="#b"/>
    <radialGradient id="f" cx="203.369" cy="695.372" gradientTransform="matrix(.9659 -.7017 .8867 1.1157 -411.803 -433.33)" gradientUnits="userSpaceOnUse" r="86.041" xlink:href="#b"/>
    <radialGradient id="g" cx="343.529" cy="359.513" gradientTransform="matrix(1.0751 0 0 -1.0785 11.64 499.367)" gradientUnits="userSpaceOnUse" r="250.826">
        <stop offset=".028" stop-color="#fff"/>
        <stop offset=".105" stop-color="#e3e2e3"/>
        <stop offset=".259" stop-color="#b3b1b2"/>
        <stop offset=".377" stop-color="#969696"/>
        <stop offset=".444" stop-color="#8c8c8d"/>
        <stop offset=".518" stop-color="#919191"/>
        <stop offset=".606" stop-color="#9f9f9f"/>
        <stop offset=".7" stop-color="#b8b7b7"/>
        <stop offset=".798" stop-color="#dcdcdc"/>
        <stop offset=".809" stop-color="#e1e1e1"/>
    </radialGradient>
    <g stroke-width="4.357">
        <path d="M300.3 32.9c25.4-7.6 62.1 2.1 95.2 24.2l.4 153.5c-12.1-2.4-24.8-7.5-36.6-14.2-12.1-6.9-24.1-15.9-36.6-26.5l31.8-81.7C338 77.5 273.6 59.3 281.9 50c8.4-9.2 18.4-17.1 18.4-17.1z" fill="url(#c)" transform="matrix(.22952 0 0 .22952 -55.613 0)"/>
        <path d="M489 32.9c-25.4-7.6-62.1 2.1-95.2 24.2l-.4 153.5c12.1-2.4 24.8-7.5 36.6-14.2 12.1-6.9 24.1-15.9 36.6-26.5l-31.8-81.7c16.5-10.7 80.9-28.9 72.6-38.2C499 40.8 489 32.9 489 32.9z" fill="url(#d)" transform="matrix(.22952 0 0 .22952 -55.613 0)"/>
        <path d="m300.2 272.4 86.4-98.1-32.1-86c-13.5 11.2-26.8 24.8-39.2 40.4-30.4 38.3-56.9 92.2-47.7 108.1s32.6 35.6 32.6 35.6z" fill="url(#e)" transform="matrix(.22952 0 0 .22952 -55.613 0)"/>
        <path d="m489.2 272.3-86.4-98.1 32.1-86c13.5 11.2 26.8 24.8 39.2 40.4 30.4 38.3 56.9 92.2 47.7 108.1s-32.6 35.6-32.6 35.6z" fill="url(#f)" transform="matrix(.22952 0 0 .22952 -55.613 0)"/>
        <path d="M275.6 248c-20.8-26.1-33.3-59.2-33.3-95.2 0-40.3 15.5-76.9 41-104.1 0 0 26.6 11.8 71.4 39.5-100 103.6-79.1 159.8-79.1 159.8zM394.7 58.7c0-.1-.1-.1 0 0 60.9-44.1 98.8-22 98.8-22C466.9 13.8 432.4 0 394.6 0s-72.3 13.8-98.9 36.7c0 0 37.9-22.7 98.9 21.9M284.6 258c27.7 29.1 66.7 47.3 110 47.3 43.4 0 82.5-18.2 110.2-47.5 0 0-16.1-66.6-110.7-136.6C309.3 183.9 284.6 258 284.6 258zm229.2-10c20.8-26.1 33.3-59.2 33.3-95.2 0-40.3-15.6-76.9-41-104.1 0 0-26.6 11.8-71.4 39.5 100 103.6 79.1 159.8 79.1 159.8z" fill="url(#g)" transform="matrix(.22952 0 0 .22952 -55.613 0)"/>
    </g>
    <g stroke-width="3.094">
        <path d="M321.576 53.303c-2.82 0-5.192-.922-6.983-2.74-4.006-3.98-4.56-11.384-4.56-15.442 0-5.455 1.108-18.156 11.543-18.156s11.594 12.701 11.594 18.156c-.026 5.481-1.16 18.182-11.594 18.182zm0-40.08c-9.935 0-15.627 7.985-15.627 21.924 0 13.914 5.692 21.898 15.627 21.898 5.639 0 9.855-2.45 12.516-7.326 2.556-4.637 3.083-10.487 3.083-14.598 0-6.561-1.528-21.898-15.6-21.898M288.03 53.303c-5.902 0-10.54-4.743-10.54-10.804 0-6.298 4.533-11.04 10.54-11.04 2.741 0 5.297 1.053 7.194 2.977 2.082 2.082 3.268 5.033 3.268 8.063 0 6.061-4.611 10.804-10.461 10.804zm0-25.587c-4.505 0-8.669 2.214-11.199 5.85.501-7.931 3.057-16.575 11.674-16.575 4.822 0 8.485 3.136 9.276 8.011l.131.764h4.006l-.08-1.001c-.79-7.088-5.902-11.515-13.36-11.515-13.07 0-15.836 12.99-15.836 23.9 0 13.017 5.322 19.921 15.362 19.921 8.275 0 14.493-6.271 14.493-14.572.027-8.564-6.06-14.783-14.466-14.783M262.786 33.619c3.531-1.634 5.771-5.138 5.771-9.302 0-2.925-.975-5.402-2.872-7.326-2.424-2.424-6.456-3.82-10.936-3.82-7.404 0-12.517 4.4-13.307 11.515l-.106 1.001h4.006l.132-.764c.79-4.875 4.453-8.01 9.275-8.01 4.849 0 9.803 2.53 9.803 7.404 0 2.082-.659 3.768-1.95 4.98-2.056 2.003-5.903 2.504-7.88 2.504-.71 0-1.765.026-2.819.026a98.817 98.817 0 0 0 0 3.953h2.82c3.742.026 6.667.817 8.485 2.53 1.502 1.396 2.266 3.372 2.266 5.85 0 5.981-5.402 9.09-10.725 9.09-3.478 0-6.324-1.054-8.248-3.056-1.897-1.977-2.846-4.796-2.688-8.195l.027-.949h-4.032l-.026.87c-.211 4.48 1.001 8.247 3.504 10.856 2.636 2.74 6.615 4.19 11.49 4.19 8.959 0 14.756-5.033 14.756-12.86-.053-4.927-2.609-8.827-6.746-10.487" fill="#9da0a3"/>
        <g fill="#95c343">
            <path d="m229.847 56.017-16.1-21.897 14.677-19.895h-5.507L210.98 30.457l-11.937-16.259h-5.481l14.651 19.895-16.048 21.898h5.508l13.307-18.13 13.36 18.13h5.507M120.306 56.017 104.258 34.12l14.651-19.895h-5.48L101.49 30.457 89.554 14.225h-5.507L98.724 34.12l-16.1 21.897h5.507l13.36-18.13 13.308 18.13z"/>
            <path d="M139.542 51.643h-12.28V36.44h12.28c4.69 0 10.224 1.264 10.224 7.272 0 6.904-6.403 7.932-10.224 7.932zm-12.253-33.07h12.28c3.32 0 8.88.843 8.88 6.64 0 4.4-3.241 7.01-8.88 7.01h-12.28zM150.847 35.7a10.645 10.645 0 0 0-2.74-1.74c3.03-1.66 5.006-4.743 5.006-8.38 0-2.66-.975-11.383-13.57-11.383h-16.945v18.024h-5.639c-.764.949-2.424 3.242-3.056 4.19h8.722v19.579h16.944c9.222 0 14.94-4.664 14.94-12.2-.026-3.268-1.29-6.061-3.662-8.09M176.54 52.513c-8.96 0-15.232-7.168-15.232-17.418s6.272-17.418 15.231-17.418c8.933 0 15.152 7.167 15.152 17.418.026 10.25-6.219 17.418-15.152 17.418zm0-39.263c-11.78 0-19.975 8.985-19.975 21.845s8.195 21.845 19.974 21.845c11.7 0 19.895-8.986 19.895-21.845.027-12.86-8.195-21.845-19.895-21.845"/>
        </g>
    </g>
</svg>
