<?xml version="1.0" encoding="UTF-8" standalone="no"?>
<!-- Created by ERK -->

<svg
   version="1.1"
   id="Layer_1"
   x="0px"
   y="0px"
   viewBox="0 1 151 106"
   style="enable-background:new 0 1 151 106;"
   xml:space="preserve"
   sodipodi:docname="xboxpass-w.svg"
   inkscape:version="1.3.2 (091e20e, 2023-11-25, custom)"
   xmlns:inkscape="http://www.inkscape.org/namespaces/inkscape"
   xmlns:sodipodi="http://sodipodi.sourceforge.net/DTD/sodipodi-0.dtd"
   xmlns="http://www.w3.org/2000/svg"
   xmlns:svg="http://www.w3.org/2000/svg"><defs
   id="defs1">
	
</defs><sodipodi:namedview
   id="namedview1"
   pagecolor="#ffffff"
   bordercolor="#000000"
   borderopacity="0.25"
   inkscape:showpageshadow="2"
   inkscape:pageopacity="0.0"
   inkscape:pagecheckerboard="true"
   inkscape:deskcolor="#d1d1d1"
   inkscape:zoom="11.066038"
   inkscape:cx="75.54646"
   inkscape:cy="53.090365"
   inkscape:window-width="2560"
   inkscape:window-height="1351"
   inkscape:window-x="-9"
   inkscape:window-y="-9"
   inkscape:window-maximized="1"
   inkscape:current-layer="Layer_1" />
<style
   type="text/css"
   id="style1">
	.st0{fill:#107C10;}
</style>
<g
   id="g31"
   inkscape:label="XboxGamepass"
   style="display:inline"><path
     d="M 10.800781,86.900391 C 9.4007812,86.900391 8.1,87.099609 7,87.599609 5.8,87.999609 4.9,88.7 4,89.5 3.2,90.4 2.4996094,91.499219 2.0996094,92.699219 1.6996094,93.899219 1.5,95.300781 1.5,96.800781 c 0,1.4 0.1996094,2.8 0.5996094,3.999999 C 2.4996094,102.00078 3.2,103.1 4,104 c 0.8,0.9 1.8003906,1.59961 2.9003906,2.09961 1.1,0.5 2.2992188,0.70117 3.6992184,0.70117 1.4,0 2.59961,-0.20117 3.59961,-0.70117 1,-0.5 1.901562,-1.19922 2.601562,-2.19922 v 2.5 H 19.5 v -6.599609 -3.40039 h -8.199219 v 2.5 h 5.59961 c -0.1,1.599999 -0.700782,2.900389 -1.800782,3.900389 -1.1,1 -2.599218,1.5 -4.199218,1.5 -1.9000004,0 -3.4996098,-0.7 -4.5996098,-2 -1.1,-1.3 -1.7011718,-3.100389 -1.7011718,-5.400389 0,-2.3 0.6011719,-4.100391 1.7011718,-5.400391 1.1,-1.3 2.6000001,-2 4.4999998,-2 1.4,0 2.59961,0.399609 3.59961,1.099609 1,0.7 1.60039,1.7 1.90039,3 h 3 c -0.3,-2 -1.201172,-3.70039 -2.701172,-4.90039 -1.5,-1.2 -3.498828,-1.798828 -5.798828,-1.798828 z"
     style="fill:#ffffff"
     id="path15"
     inkscape:label="G" /><path
     d="M 28.5,87.300781 21,106.40039 h 3 l 1.800781,-5 h 8.5 l 1.798828,5 h 3 L 31.800781,87.300781 Z M 30.199219,90.099609 33.5,98.900391 h -6.599609 z"
     style="fill:#ffffff"
     id="path28"
     inkscape:label="A" /><path
     d="m 41,87.300781 v 18.999999 h 2.800781 V 91.199219 c 0.4,1.2 0.898438,2.50039 1.398438,3.90039 l 4.40039,11.201171 H 52 l 4.300781,-11.201171 c 0.6,-1.5 0.998438,-2.80039 1.398438,-3.90039 V 106.40039 H 60.5 V 87.300781 h -3.900391 l -3.798828,9.898438 c -0.8,2 -1.4,3.901561 -2,5.601561 -0.5,-1.5 -1.10039,-3.20078 -1.90039,-5.30078 L 45,87.300781 Z"
     style="fill:#ffffff"
     id="path19"
     inkscape:label="M" /><path
     d="M 63.400391,87.300781 V 106.30078 H 77 v -2.60156 H 66.300781 v -5.898439 h 9.5 v -2.40039 h -9.5 v -5.5 h 10.798828 v -2.59961 z"
     style="fill:#ffffff"
     id="path20"
     inkscape:label="E" /><path
     d="m 84.400391,87.300781 v 19.099609 h 2.90039 V 99.400391 H 92.5 c 2.1,0 3.700781,-0.49961 4.800781,-1.59961 1.1,-1.1 1.699219,-2.60039 1.699219,-4.40039 0.1,-1.9 -0.499219,-3.4 -1.699219,-4.5 -1.1,-1.1 -2.800781,-1.59961 -4.800781,-1.59961 z m 2.90039,2.59961 H 92.5 c 1.2,0 2.099219,0.30039 2.699219,0.90039 0.6,0.6 0.90039,1.49961 0.90039,2.59961 0,1.1 -0.30039,1.999609 -0.90039,2.599609 -0.6,0.6 -1.499219,0.900391 -2.699219,0.900391 h -5.199219 z"
     style="fill:#ffffff"
     id="path29"
     inkscape:label="P" /><path
     d="M 104.5,87.300781 97,106.40039 h 3 l 1.80078,-5 h 8.5 l 1.79883,5 h 3 l -7.29883,-19.099609 z m 1.59961,2.798828 3.30078,8.800782 h -6.59961 z"
     style="fill:#ffffff"
     id="path30"
     inkscape:label="A" /><path
     d="m 123,87.099609 c -2,0 -3.70039,0.500391 -4.90039,1.400391 -1.2,1 -1.79883,2.200781 -1.79883,3.800781 0,1.6 0.5,2.799219 1.5,3.699219 1,0.9 2.5,1.500391 4.5,1.900391 l 1.59961,0.298828 c 1.6,0.3 2.80039,0.701172 3.40039,1.201172 0.6,0.4 0.89844,1.100389 0.89844,1.900389 0,1 -0.39961,1.79883 -1.09961,2.29883 -0.7,0.5 -1.79922,0.80078 -3.19922,0.80078 -1.7,0 -2.90078,-0.39961 -3.80078,-1.09961 -0.8,-0.7 -1.29883,-1.80117 -1.29883,-3.20117 h -2.90039 c 0,2.2 0.69961,3.9 2.09961,5 1.4,1.1 3.40039,1.70117 5.90039,1.70117 2.3,0 4.2,-0.5 5.5,-1.5 1.3,-1 2,-2.40117 2,-4.20117 0,-1.500001 -0.50039,-2.700391 -1.40039,-3.400391 -0.9,-0.9 -2.49922,-1.5 -4.69922,-2 l -1.70117,-0.298828 c -1.6,-0.3 -2.69883,-0.701172 -3.29883,-1.201172 -0.6,-0.5 -0.90039,-1.1 -0.90039,-2 0,-0.9 0.4,-1.5 1,-2 0.7,-0.5 1.70039,-0.699219 2.90039,-0.699219 1.6,0 2.8,0.300391 3.5,0.900391 0.7,0.6 1.09922,1.499218 1.19922,2.699218 h 2.69922 c -0.1,-1.8 -0.7,-3.30039 -2,-4.40039 -1.3,-1.1 -3.19922,-1.59961 -5.69922,-1.59961 z"
     style="fill:#ffffff"
     id="path16"
     inkscape:label="S" /><path
     d="m 140,87.099609 c -2,0 -3.70039,0.500391 -4.90039,1.400391 -1.2,1 -1.79883,2.200781 -1.79883,3.800781 0,1.6 0.5,2.799219 1.5,3.699219 1,0.9 2.5,1.500391 4.5,1.900391 l 1.59961,0.298828 c 1.6,0.3 2.80039,0.701172 3.40039,1.201172 0.6,0.4 0.89844,1.100389 0.89844,1.900389 0,1 -0.39961,1.79883 -1.09961,2.29883 -0.7,0.5 -1.79922,0.80078 -3.19922,0.80078 -1.7,0 -2.90078,-0.39961 -3.80078,-1.09961 -0.8,-0.7 -1.29883,-1.80117 -1.29883,-3.20117 h -2.90039 c 0,2.2 0.69961,3.9 2.09961,5 1.4,1.1 3.40039,1.70117 5.90039,1.70117 2.3,0 4.2,-0.5 5.5,-1.5 1.3,-1 2,-2.40117 2,-4.20117 0,-1.500001 -0.50039,-2.700391 -1.40039,-3.400391 -0.9,-0.9 -2.49922,-1.5 -4.69922,-2 l -1.70117,-0.298828 c -1.6,-0.3 -2.69883,-0.701172 -3.29883,-1.201172 -0.6,-0.5 -0.90039,-1.1 -0.90039,-2 0,-0.9 0.4,-1.5 1,-2 0.7,-0.5 1.70039,-0.699219 2.90039,-0.699219 1.6,0 2.8,0.300391 3.5,0.900391 0.7,0.6 1.09922,1.499218 1.19922,2.699218 h 2.69922 c -0.1,-1.8 -0.7,-3.30039 -2,-4.40039 -1.3,-1.1 -3.19922,-1.59961 -5.69922,-1.59961 z"
     style="fill:#ffffff"
     id="path17"
     inkscape:label="S" /><path
     d="m 25.800781,53.199219 9.398438,13 L 25,80.300781 h 4.599609 L 37.5,69.400391 45.400391,80.300781 H 50 l -10.199219,-14.101562 9.398438,-13 h -4.59961 L 37.5,63 30.400391,53.199219 Z"
     style="fill:#ffffff"
     id="path9"
     inkscape:label="X" /><path
     d="m 52.199219,53.199219 v 11.5 h -3.5 l -2.5,3.5 h 6 v 12.101562 h 12.701172 c 2.9,0 5.099218,-0.701562 6.699218,-2.101562 1.5,-1.3 2.300782,-3.19961 2.300782,-5.59961 0,-1.5 -0.39961,-2.8 -1.09961,-4 -0.7,-1.1 -1.90039,-1.9 -3.40039,-2.5 2.3,-1.3 3.5,-3.30039 3.5,-5.90039 0,-2.1 -0.701172,-3.79961 -2.201172,-5.09961 -1.5,-1.2 -3.598828,-1.90039 -6.298828,-1.90039 z m 4.101562,3.701172 h 7.798828 c 1.5,0 2.7,0.3 3.5,1 0.8,0.7 1.201172,1.598828 1.201172,2.798828 0,1.4 -0.401172,2.401562 -1.201172,3.101562 -0.8,0.6 -1.9,1 -3.5,1 h -7.798828 z m 0,11.298828 h 8.298828 c 1.7,0 3.000782,0.401562 3.800782,1.101562 0.9,0.7 1.298828,1.799219 1.298828,3.199219 0,1.4 -0.398828,2.399609 -1.298828,3.099609 -0.9,0.7 -2.100782,1.09961 -3.800782,1.09961 h -8.298828 z"
     style="fill:#ffffff"
     id="path26"
     inkscape:label="B" /><path
     d="m 88.5,52.599609 c -2,0 -3.800391,0.4 -5.400391,1 -1.6,0.6 -2.999218,1.600391 -4.199218,2.900391 -1.2,1.3 -2.101172,2.8 -2.701172,4.5 -0.6,1.7 -0.898438,3.599219 -0.898438,5.699219 0,2.1 0.298438,4.001172 0.898438,5.701172 0.6,1.7 1.501172,3.2 2.701172,4.5 1.2,1.3 2.599218,2.30039 4.199218,2.90039 1.6,0.7 3.400391,1 5.400391,1 2,0 3.800391,-0.4 5.400391,-1 1.6,-0.6 2.999218,-1.60039 4.199218,-2.90039 1.2,-1.3 2.101171,-2.8 2.701171,-4.5 0.6,-1.7 0.89844,-3.601172 0.89844,-5.701172 0,-2 -0.29844,-3.999219 -0.89844,-5.699219 -0.6,-1.7 -1.501171,-3.2 -2.701171,-4.5 -1.2,-1.3 -2.599218,-2.300391 -4.199218,-2.900391 -1.6,-0.7 -3.400391,-1 -5.400391,-1 z m 0.09961,3.701172 c 1.011804,0 1.956156,0.126932 2.822266,0.384766 0.577169,0.17196 1.122304,0.402883 1.630859,0.693359 0.508569,0.290641 0.98311,0.642299 1.419922,1.054688 0.218555,0.206413 0.426953,0.428515 0.626953,0.666015 1.6,1.8 2.400391,4.39961 2.400391,7.59961 0,3.2 -0.800391,5.801562 -2.400391,7.601562 -0.2,0.225 -0.410351,0.437142 -0.628906,0.636719 -0.436805,0.398735 -0.911362,0.746476 -1.419922,1.039062 -0.508558,0.292442 -1.053685,0.532735 -1.630859,0.712891 -0.866112,0.270134 -1.808505,0.410156 -2.820313,0.410156 -1.0125,0 -1.955664,-0.126573 -2.822265,-0.384765 -0.57707,-0.172072 -1.1224,-0.402781 -1.63086,-0.69336 -0.508438,-0.290717 -0.983224,-0.64225 -1.419922,-1.054687 -0.218195,-0.206147 -0.427256,-0.428876 -0.626953,-0.666016 -0.53125,-0.59375 -0.975463,-1.246738 -1.333984,-1.960937 -0.143408,-0.28568 -0.272217,-0.581105 -0.388672,-0.886719 -0.116455,-0.305614 -0.220654,-0.621339 -0.310547,-0.947266 -0.08989,-0.325926 -0.164795,-0.661195 -0.228515,-1.007812 -0.159302,-0.866543 -0.238282,-1.798828 -0.238282,-2.798828 0,-0.96875 0.07898,-1.888969 0.238282,-2.753907 0.06372,-0.345975 0.138623,-0.683715 0.228515,-1.011718 0.08989,-0.328004 0.194092,-0.645825 0.310547,-0.955078 0.116455,-0.309254 0.245264,-0.608713 0.388672,-0.898438 0.358521,-0.724313 0.802734,-1.386719 1.333984,-1.980469 0.199697,-0.23714 0.410711,-0.459868 0.628907,-0.666015 0.436697,-0.412438 0.911483,-0.76397 1.419921,-1.054688 0.508461,-0.290578 1.05379,-0.521288 1.63086,-0.693359 0.866601,-0.258193 1.807812,-0.384766 2.820312,-0.384766 z"
     style="fill:#ffffff"
     id="path27"
     inkscape:label="O" /><path
     d="m 100.80078,53.199219 9.39844,13 -10.298829,14.101562 H 104.5 l 7.90039,-10.90039 7.90039,10.90039 h 4.59961 l -10.09961,-14.101562 9.39844,-13 h -4.59961 L 112.5,63 105.40039,53.199219 Z"
     style="fill:#ffffff"
     id="path11"
     inkscape:label="X" /></g>
<ellipse
   style="display:inline;fill:#ffffff;stroke:#ffffff;stroke-width:9.3395;stroke-linecap:square;stroke-miterlimit:5;paint-order:fill markers stroke"
   id="path31"
   cx="74.900391"
   cy="23.649414"
   rx="17.830252"
   ry="17.880251"
   inkscape:label="LogoBackground" /><g
   id="g30"
   inkscape:label="Logo"
   style="enable-background:new 0 1 151 106"><path
     d="m 75,19.199219 c -6.8,5.2 -18.400781,17.80039 -14.800781,21.40039 3.9,3.5 9.100781,5.59961 14.800781,5.59961 5.7,0 10.800781,-2.09961 14.800781,-5.59961 3.5,-3.6 -8.000781,-16.20039 -14.800781,-21.40039 z"
     style="display:inline;fill:#107c10"
     id="path7"
     inkscape:label="Logo1" /><path
     d="M 90.001953,7.4804687 C 88.919141,7.5179687 86.274609,8.4 81.099609,13.5 v 0.09961 c 4.5,5.4 13.29961,18.29961 11.59961,23.59961 v 0.101562 h 0.101562 c 2.9,-3.8 4.59961,-8.501562 4.59961,-13.601562 0,-6.2 -2.501172,-11.9 -6.701172,-16.0000003 l -0.09961,-0.099609 c -0.05,-0.05 -0.236718,-0.1316406 -0.597656,-0.1191407 z"
     style="display:inline;fill:#107c10"
     id="path5"
     inkscape:label="Logo2" /><path
     d="m 59.896484,7.4804687 c -0.378125,-0.010938 -0.597265,0.069141 -0.697265,0.1191407 -4.2,4.1999996 -6.798828,9.7996096 -6.798828,16.0996096 0,5.1 1.699609,9.901562 4.599609,13.601562 0,0 0.09961,0.1 0.09961,0 v -0.101562 c -1.7,-5.3 7.09961,-18.19961 11.59961,-23.59961 V 13.5 13.400391 c -5.1,-5.0250004 -7.66836,-5.8871097 -8.802736,-5.9199223 z"
     style="display:inline;fill:#107c10"
     id="path3"
     inkscape:label="Logo3" /><path
     d="m 75,1.0996094 c -4.5,0 -8.299219,1.2007812 -11.699219,3.3007812 0,0 -0.1,0.099609 0,0.099609 h 0.09961 C 67.800391,3.6 74.4,7.2992188 75,7.6992187 75.6,7.2992187 82.299609,3.6 86.599609,4.5 h 0.09961 c 0.1,0 0,3.906e-4 0,-0.099609 C 83.299219,2.4003906 79.5,1.0996094 75,1.0996094 Z"
     style="display:inline;fill:#107c10"
     id="path2"
     inkscape:label="Logo4" /></g></svg>
