<?xml version="1.0" encoding="UTF-8" standalone="no"?>
<!-- Created by ERK -->

<svg
   width="568.41699"
   height="147.073"
   xml:space="preserve"
   version="1.1"
   id="svg21"
   sodipodi:docname="xbox-w.svg"
   inkscape:version="1.4 (86a8ad7, 2024-10-11)"
   xmlns:inkscape="http://www.inkscape.org/namespaces/inkscape"
   xmlns:sodipodi="http://sodipodi.sourceforge.net/DTD/sodipodi-0.dtd"
   xmlns="http://www.w3.org/2000/svg"
   xmlns:svg="http://www.w3.org/2000/svg"><defs
   id="defs21" /><sodipodi:namedview
   id="namedview21"
   pagecolor="#ffffff"
   bordercolor="#000000"
   borderopacity="0.25"
   inkscape:showpageshadow="2"
   inkscape:pageopacity="0.0"
   inkscape:pagecheckerboard="true"
   inkscape:deskcolor="#d1d1d1"
   inkscape:zoom="3.2385007"
   inkscape:cx="266.48134"
   inkscape:cy="76.733039"
   inkscape:window-width="3840"
   inkscape:window-height="2066"
   inkscape:window-x="-11"
   inkscape:window-y="-11"
   inkscape:window-maximized="1"
   inkscape:current-layer="svg21" />
    <g
   id="g5"
   inkscape:label="XboxShadow"
   transform="translate(-0.512,-0.5)"
   style="fill:#000000;opacity:0.65"><path
     fill="#93C83E"
     d="M 288.207,43.362 H 272.174 L 242.588,67.478 213,43.362 h -16.034 l 37.603,30.65 -37.603,30.649 H 213 l 29.587,-24.115 29.586,24.115 h 16.033 L 250.603,74.012 Z"
     style="display:inline;fill:#000000;fill-opacity:1"
     id="path3"
     inkscape:label="X" /><path
     fill="#93C83E"
     d="m 405.119,93.974 c -3.527,-5.67 -5.602,-12.546 -5.602,-19.962 0,-7.417 2.074,-14.294 5.602,-19.962 h 51.986 c 3.529,5.668 5.604,12.545 5.604,19.962 0,7.417 -2.074,14.292 -5.604,19.962 z M 462.66,43.379 V 43.36 h -63.094 v 0.018 c -6.441,8.19 -10.352,18.9 -10.352,30.634 0,11.731 3.91,22.444 10.352,30.632 v 0.018 h 63.094 v -0.018 c 6.441,-8.189 10.35,-18.9 10.35,-30.632 -10e-4,-11.734 -3.909,-22.444 -10.35,-30.633 M 309.553,93.974 c -2.665,-4.281 -4.497,-9.248 -5.239,-14.617 h 62.459 c -0.738,5.369 -2.57,10.336 -5.237,14.617 z m 0,-39.925 h 51.983 c 2.666,4.281 4.499,9.249 5.238,14.616 h -62.459 c 0.741,-5.367 2.573,-10.334 5.238,-14.616 m 63.214,17.481 4.455,-2.27 c -0.904,-9.863 -4.57,-18.813 -10.129,-25.881 V 43.36 h -63.096 v 0.018 c -5.448,6.926 -9.076,15.663 -10.068,25.286 h -9.916 v 10.691 h 9.916 c 0.992,9.626 4.619,18.36 10.068,25.288 v 0.018 h 63.096 v -0.02 c 5.559,-7.068 9.225,-16.02 10.129,-25.88 L 372.767,76.49 Z M 568.929,43.362 H 552.896 L 523.308,67.478 493.722,43.362 h -16.035 l 37.604,30.65 -37.604,30.649 h 16.035 l 29.586,-24.115 29.588,24.115 h 16.033 L 531.324,74.012 Z"
     style="display:inline;fill:#000000;fill-opacity:1"
     id="path5"
     inkscape:label="BOX" /></g><g
   id="g6"
   inkscape:label="Xbox"
   transform="translate(-0.012)"
   style="fill:#ffffff"><path
     fill="#93C83E"
     d="M 286.207,41.362 H 270.174 L 240.588,65.478 211,41.362 h -16.034 l 37.603,30.65 -37.603,30.649 H 211 l 29.587,-24.115 29.586,24.115 h 16.033 L 248.603,72.012 Z"
     style="display:inline;fill:#ffffff;fill-opacity:1"
     id="path2"
     inkscape:label="X" /><path
     fill="#93C83E"
     d="m 403.119,91.974 c -3.527,-5.67 -5.602,-12.546 -5.602,-19.962 0,-7.417 2.074,-14.294 5.602,-19.962 h 51.986 c 3.529,5.668 5.604,12.545 5.604,19.962 0,7.417 -2.074,14.292 -5.604,19.962 z M 460.66,41.379 V 41.36 h -63.094 v 0.018 c -6.441,8.19 -10.352,18.9 -10.352,30.634 0,11.731 3.91,22.444 10.352,30.632 v 0.018 h 63.094 v -0.018 c 6.441,-8.189 10.35,-18.9 10.35,-30.632 -10e-4,-11.734 -3.909,-22.444 -10.35,-30.633 M 307.553,91.974 c -2.665,-4.281 -4.497,-9.248 -5.239,-14.617 h 62.459 c -0.738,5.369 -2.57,10.336 -5.237,14.617 z m 0,-39.925 h 51.983 c 2.666,4.281 4.499,9.249 5.238,14.616 h -62.459 c 0.741,-5.367 2.573,-10.334 5.238,-14.616 m 63.214,17.481 4.455,-2.27 c -0.904,-9.863 -4.57,-18.813 -10.129,-25.881 V 41.36 h -63.096 v 0.018 c -5.448,6.926 -9.076,15.663 -10.068,25.286 h -9.916 v 10.691 h 9.916 c 0.992,9.626 4.619,18.36 10.068,25.288 v 0.018 h 63.096 v -0.02 c 5.559,-7.068 9.225,-16.02 10.129,-25.88 L 370.767,74.49 Z M 566.929,41.362 H 550.896 L 521.308,65.478 491.722,41.362 h -16.035 l 37.604,30.65 -37.604,30.649 h 16.035 l 29.586,-24.115 29.588,24.115 h 16.033 L 529.324,72.012 Z"
     style="display:inline;fill:#ffffff;fill-opacity:1"
     id="path1"
     inkscape:label="BOX" /></g>
    
    <linearGradient
   id="a"
   gradientUnits="userSpaceOnUse"
   x1="-72.165001"
   y1="11.666"
   x2="-71.912003"
   y2="11.666"
   gradientTransform="matrix(176.49039,-217.94748,-217.94748,-176.49039,15317.153,-13599.057)">
        <stop
   offset="0"
   style="stop-color:#d3dc19"
   id="stop2" />
        <stop
   offset=".5"
   style="stop-color:#8db635"
   id="stop3" />
        <stop
   offset="1"
   style="stop-color:#66bb46"
   id="stop4" />
    </linearGradient>
    
    <linearGradient
   id="b"
   gradientUnits="userSpaceOnUse"
   x1="-70.236"
   y1="11.671"
   x2="-69.982002"
   y2="11.671"
   gradientTransform="matrix(216.16245,320.47401,320.47401,-216.16245,11475.447,25019.358)">
        <stop
   offset="0"
   style="stop-color:#a0a2a4"
   id="stop5" />
        <stop
   offset="1"
   style="stop-color:#fafafa"
   id="stop6" />
    </linearGradient>
    
    <linearGradient
   id="c"
   gradientUnits="userSpaceOnUse"
   x1="-71.278"
   y1="11.932"
   x2="-71.278"
   y2="12.021"
   gradientTransform="matrix(345.5039,-233.04532,-233.04532,-345.5039,27459.61,-12375.664)">
        <stop
   offset="0"
   style="stop-color:#aed037"
   id="stop7" />
        <stop
   offset=".421"
   style="stop-color:#8db635"
   id="stop8" />
        <stop
   offset="1"
   style="stop-color:#3e7223"
   id="stop9" />
    </linearGradient>
    
    <linearGradient
   id="d"
   gradientUnits="userSpaceOnUse"
   x1="-71.393997"
   y1="12.16"
   x2="-71.139999"
   y2="12.16"
   gradientTransform="matrix(279.743,-484.52909,-484.52909,-279.743,25872.254,-31038.577)">
        <stop
   offset="0"
   style="stop-color:#9b9da0"
   id="stop10" />
        <stop
   offset="1"
   style="stop-color:#cfd1d3"
   id="stop11" />
    </linearGradient>
    
    <linearGradient
   id="e"
   gradientUnits="userSpaceOnUse"
   x1="-71.398003"
   y1="13.965"
   x2="-71.144997"
   y2="13.965"
   gradientTransform="matrix(-193.05699,-186.43297,-186.43297,193.05699,-11032.2,-15943.376)">
        <stop
   offset=".303"
   style="stop-color:#c9da2c"
   id="stop12" />
        <stop
   offset=".608"
   style="stop-color:#8db635"
   id="stop13" />
        <stop
   offset="1"
   style="stop-color:#347428"
   id="stop14" />
    </linearGradient>
    
    <linearGradient
   id="f"
   gradientUnits="userSpaceOnUse"
   x1="-72.940002"
   y1="13.161"
   x2="-72.686996"
   y2="13.161"
   gradientTransform="matrix(30.788766,-250.75438,-250.75438,-30.788766,5675.1414,-17838.62)">
        <stop
   offset="0"
   style="stop-color:#ced0d1"
   id="stop15" />
        <stop
   offset="1"
   style="stop-color:#a0a2a5"
   id="stop16" />
    </linearGradient>
    
    <linearGradient
   id="g"
   gradientUnits="userSpaceOnUse"
   x1="-71.390999"
   y1="13.042"
   x2="-71.138"
   y2="13.042"
   gradientTransform="matrix(-86.869133,-492.65934,-492.65934,86.869133,383.13302,-36152.109)">
        <stop
   offset="0"
   style="stop-color:#9b9d9f"
   id="stop17" />
        <stop
   offset="1"
   style="stop-color:#fafafa"
   id="stop18" />
    </linearGradient>
    
    <linearGradient
   id="h"
   gradientUnits="userSpaceOnUse"
   x1="-72.532997"
   y1="13.199"
   x2="-72.282997"
   y2="13.199"
   gradientTransform="matrix(89.695739,-192.35313,-192.35313,-89.695739,9179.4152,-12649.028)">
        <stop
   offset="0"
   style="stop-color:#c7d926"
   id="stop19" />
        <stop
   offset=".416"
   style="stop-color:#8db635"
   id="stop20" />
        <stop
   offset="1"
   style="stop-color:#3a7d2c"
   id="stop21" />
    </linearGradient>
    <g
   id="g21"
   inkscape:label="Logo"
   transform="translate(-0.012)"><path
     fill="url(#a)"
     d="m 70.465,56.721 v 39.61 C 78.275,89.901 86.1,83.112 93.568,76.102 V 41.9 c 0,0 -41.962,-13.809 -68.457,-30.276 10.913,12.263 28.957,31.638 45.354,45.097"
     id="path4"
     style="display:inline;fill:url(#a)"
     inkscape:label="path1" /><path
     fill="url(#b)"
     d="M 25.111,11.624 C 51.605,28.092 93.568,41.9 93.568,41.9 v -4.56 c 0,0 -54.576,-17.961 -78.542,-37.34 -10e-4,0 3.894,4.668 10.085,11.624"
     id="path6"
     inkscape:label="path2"
     style="fill:url(#b)" /><path
     fill="url(#c)"
     d="m 16.797,136.14 c 13.526,-9.11 33.549,-23.244 53.67,-39.809 V 64.129 c 0,0 -27.402,41.054 -53.67,72.011"
     id="path9"
     inkscape:label="path3"
     style="fill:url(#c)" /><path
     fill="url(#d)"
     d="m 0.012,147.073 c 0,0 6.526,-4.021 16.786,-10.934 26.268,-30.957 53.67,-72.009 53.67,-72.009 v -7.409 c -0.001,0 -40.715,60.996 -70.456,90.352"
     id="path11"
     inkscape:label="path4"
     style="fill:url(#d)" /><path
     fill="url(#e)"
     d="m 93.52,41.9 v 34.201 c 7.465,7.011 15.289,13.8 23.1,20.229 V 56.72 C 133.017,43.261 151.06,23.886 161.974,11.623 135.481,28.092 93.52,41.9 93.52,41.9"
     id="path14"
     inkscape:label="path5"
     style="fill:url(#e)" /><path
     fill="url(#f)"
     d="m 93.52,37.34 v 4.56 c 0,0 41.961,-13.809 68.454,-30.276 C 168.165,4.668 172.061,0 172.061,0 148.095,19.379 93.52,37.34 93.52,37.34"
     id="path16"
     inkscape:label="path6"
     style="fill:url(#f)" /><path
     fill="url(#g)"
     d="m 116.622,64.129 c 0,0 27.404,41.054 53.671,72.009 10.256,6.912 16.787,10.934 16.787,10.934 C 157.337,117.718 116.623,56.72 116.623,56.72 Z"
     id="path18"
     inkscape:label="path7"
     style="fill:url(#g)" /><path
     fill="url(#h)"
     d="m 116.622,96.331 c 20.124,16.564 40.142,30.698 53.671,39.809 -26.267,-30.957 -53.671,-72.009 -53.671,-72.009 z"
     id="path21"
     inkscape:label="path8"
     style="fill:url(#h)" /></g>
</svg>
