<?xml version="1.0" encoding="utf-8"?>
<!-- Generator: Adobe Illustrator 24.2.3, SVG Export Plug-In . SVG Version: 6.00 Build 0)  -->
<svg version="1.1" id="Layer_1" xmlns="http://www.w3.org/2000/svg" xmlns:xlink="http://www.w3.org/1999/xlink" x="0px" y="0px"
	 viewBox="0 0 110 54" style="enable-background:new 0 0 110 54;" xml:space="preserve">
<path d="M79.7,28.2l4.2-5.8c-1.4-0.3-2.7-0.9-3.9-1.7c-1.2-0.9-1.8-2.3-1.7-3.8c-0.1-1.5,0.7-2.9,1.9-3.7c1.6-1,3.5-1.4,5.4-1.3l0,0
	c7.4,0,9.3,3.9,10.6,5.5l4-5.5c-0.7-1.1-1.5-2.1-2.5-2.9C95,6.9,90.9,5.8,85.5,5.8c-4.7,0-8.4,1-11.1,3.1c-2.6,2-4.1,5.1-4,8.4
	C70.4,22.8,73.5,26.3,79.7,28.2z M100.1,27.9c-1.9-1.7-4.7-2.9-8.6-3.9l-4.3,5.9c2.2,0.4,4.3,1.3,6.2,2.6c1.2,0.8,1.9,2.2,1.8,3.7
	c0.1,1.7-0.7,3.4-2.1,4.4c-1.8,1.1-4,1.7-6.1,1.5l0,0c-6.2,0-9.1-2-12-7.4l0,0l-4.3,5.8c0.8,1.6,1.9,2.9,3.2,4
	c3,2.5,7.3,3.7,12.8,3.7c5.2,0,9.2-1.1,12.1-3.3c2.9-2.2,4.5-5.6,4.3-9.2C103.5,32.8,102.3,29.9,100.1,27.9L100.1,27.9z M63.5,47.3
	h-1.8V6.7h1.8L63.5,47.3z M11.4,6.5c0.6,0,1.1,0.2,1.5,0.7c0.7,1.3,0.7,2.8-0.1,4c-0.4,0.5-1.1,0.8-1.7,0.7h0v-1.2h0
	c0.4,0,0.8-0.1,1-0.4c0.2-0.4,0.3-0.8,0.3-1.2c0-0.3-0.1-0.7-0.2-1c-0.2-0.2-0.4-0.4-0.7-0.3c-0.2,0-0.5,0.1-0.6,0.3
	c-0.2,0.3-0.3,0.7-0.4,1.1l-0.1,0.6c-0.1,0.6-0.3,1.1-0.7,1.6c-0.3,0.4-0.8,0.5-1.3,0.5c-0.5,0-1-0.2-1.4-0.6
	C6.7,10.6,6.5,10,6.5,9.3c0-0.7,0.1-1.4,0.6-2c0.4-0.5,1-0.7,1.6-0.7h0v1.2h0C8.3,7.9,8,8,7.8,8.3C7.6,8.6,7.5,9,7.6,9.3
	c0,0.3,0.1,0.6,0.2,0.9c0.1,0.2,0.4,0.3,0.6,0.3c0.2,0,0.5-0.1,0.6-0.3c0.2-0.3,0.3-0.6,0.4-1l0.1-0.6C9.5,8,9.8,7.5,10.1,7
	C10.5,6.6,10.9,6.4,11.4,6.5L11.4,6.5z M10.1,42.4c-0.4,0.5-0.6,1.1-0.7,1.7l-0.1,0.6c-0.1,0.4-0.2,0.7-0.4,1
	c-0.1,0.2-0.4,0.3-0.6,0.3c-0.2,0-0.5-0.1-0.6-0.3c-0.2-0.3-0.2-0.6-0.2-0.9c0-0.4,0.1-0.8,0.3-1.1c0.2-0.2,0.5-0.4,0.8-0.4h0v-1.2
	h0c-0.6,0-1.2,0.3-1.6,0.7c-0.4,0.6-0.6,1.3-0.6,2c0,0.6,0.1,1.3,0.5,1.8c0.3,0.4,0.8,0.7,1.4,0.6c0.5,0,1-0.2,1.3-0.5
	c0.4-0.5,0.6-1,0.7-1.6l0.1-0.6c0.1-0.4,0.2-0.7,0.4-1.1c0.1-0.2,0.4-0.3,0.6-0.3c0.3,0,0.5,0.1,0.7,0.3c0.2,0.3,0.3,0.6,0.2,1
	c0,0.4-0.1,0.8-0.3,1.2c-0.2,0.3-0.6,0.4-1,0.4h0v1.2h0c0.7,0,1.3-0.2,1.7-0.7c0.8-1.2,0.8-2.8,0.1-4c-0.4-0.5-0.9-0.7-1.5-0.7
	C10.9,41.8,10.4,42,10.1,42.4L10.1,42.4z M13.3,26.3v1.3l0,0c-0.2,0.1-0.5,0.2-0.8,0.2l-0.7,0c-0.3,0-0.6,0.1-0.8,0.3
	c-0.2,0.2-0.3,0.5-0.2,0.8v1.6h2.6v1.3H6.7v-3c0-0.1,0-0.3,0-0.4c0,0,0,0.1,0,0.1c0-0.4,0.1-0.9,0.4-1.3L7,27.3
	c0-0.1,0.1-0.2,0.2-0.2c0.3-0.4,0.8-0.6,1.4-0.6c0.7,0,1.4,0.4,1.6,1.1c0.1-0.3,0.3-0.5,0.5-0.7c0.3-0.2,0.6-0.2,0.9-0.2l1-0.1
	C12.8,26.5,13,26.5,13.3,26.3L13.3,26.3z M8.7,27.8c-0.3,0-0.5,0.1-0.7,0.3c-0.2,0.2-0.3,0.5-0.2,0.8v1.6h2v-1.7
	c0-0.3-0.1-0.6-0.3-0.8C9.2,27.8,9,27.7,8.7,27.8L8.7,27.8z M6.7,23.7h6.6v-1.3H6.7V23.7z M7.8,14.5H6.7v4.9h6.6v-4.9h-1.1v3.6h-1.7
	v-3.3H9.4v3.3H7.8L7.8,14.5z M7.8,34.5H6.7v4.9h6.6v-4.9h-1.1v3.6h-1.7v-3.3H9.4v3.3H7.8L7.8,34.5z M16.1,47.3h8.8l6.6-9.1l-4.4-6
	L16.1,47.3z M54.5,6.7h-8.8l-5.4,7.5l4.4,6L54.5,6.7z M26.1,6.7h-8.8L47,47.3h8.8L26.1,6.7z"/>
</svg>
