<svg height="178" viewBox="0 0 312.5 89" width="625" xmlns="http://www.w3.org/2000/svg">
    <g fill="#fff" fill-opacity=".5" stroke-width="1.25">
        <path d="M192.066 65.471q0 .12-.029.202-.043.122-.138.122-.063 0-.132-.029-.083-.035-.09-.086.027 0 .065.01.088.023.11.023.085 0 .128-.085.034-.068.034-.163 0-.067-.044-.19-.043-.126-.043-.175 0-.015.008-.024.01-.01.024-.01.04 0 .076.18.031.152.031.225zM192.451 65.573q0 .102-.059.16-.059.058-.163.058-.057 0-.088-.027-.03-.027-.03-.083 0-.079.102-.159.098-.076.181-.076.038 0 .05.047.007.027.007.08zm-.06.028q0-.012-.004-.023-.002-.012-.008-.027-.016.011-.053.054-.019.022-.033.032 0-.019.004-.03l.013-.03q-.044 0-.092.037-.047.037-.047.08 0 .03.032.03.061 0 .118-.03.07-.037.07-.093zM192.863 65.614q0 .05-.037.11-.042.07-.087.07-.013 0-.022-.015-.008-.015-.008-.029 0-.018.038-.056.04-.039.04-.053 0-.009-.004-.018l-.004-.012q-.075.017-.153.086-.077.07-.117.078-.008-.022-.008-.045 0-.028.013-.059.01-.022.03-.053.035-.053.074-.12l.07-.12.072-.123q.012-.018.021-.027.013-.012.031-.016.012.004.017.015.006.011.006.026 0 .034-.044.092l-.082.108q-.045.068-.045.123l.002.01q.055-.027.065-.03.041-.018.07-.018.032 0 .047.022.015.021.015.054zM193.327 65.555q0 .068-.033.145-.036.085-.089.117-.01-.013-.019-.029-.007-.016-.007-.032 0-.017.05-.1.022-.038.02-.066v-.013q-.038.011-.129.067l-.182.112q-.014 0-.026-.01-.01-.01-.01-.024 0-.02.066-.14l.072-.126q.016.021.021.047.005.025.005.06v.023q.092-.055.144-.083.057-.03.078-.03.014 0 .026.031.013.032.013.051zM194.196 65.75q0 .017-.016.027-.015.01-.034.01-.017 0-.043-.005-.059-.009-.076-.009-.03 0-.118.007-.05.004-.072.004-.06 0-.06-.06 0-.059.037-.167.021-.06.08-.2.051-.125.065-.176.005-.016.008-.02.008-.013.02-.013.02 0 .032.028.013.027.013.05 0 .034-.04.117-.042.082-.08.161-.044.094-.044.143 0 .025.021.035.015.007.044.007.022 0 .076-.005.054-.006.072-.006.045 0 .074.013.041.018.041.058zM194.568 65.573q0 .102-.059.16-.059.058-.163.058-.057 0-.088-.027-.03-.027-.03-.083 0-.079.102-.159.098-.076.181-.076.038 0 .05.047.007.027.007.08zm-.06.028q0-.012-.004-.023-.002-.012-.008-.027-.016.011-.053.054-.019.022-.033.032 0-.019.004-.03l.013-.03q-.044 0-.092.037-.047.037-.047.08 0 .03.032.03.061 0 .118-.03.07-.037.07-.093zM194.99 65.552q0 .032-.018.068-.016.036-.04.06l-.002-.014.003-.037.003-.037q0-.017-.005-.025-.005-.009-.02-.009-.048 0-.118.073l-.15.16q-.007 0-.013-.002l-.02-.005q.003-.036.025-.08.06-.119.061-.127l.012-.047q.004-.015.011-.03.008-.018.018-.03.011-.015.028-.022l.01.12.066-.054q.044-.035.076-.035t.052.021q.02.021.02.052zM195.48 65.436q0 .042-.112.111-.108.066-.157.066-.023 0-.03-.016-.008-.016-.008-.045v-.027q.067 0 .122-.02.055-.02.096-.066-.03-.01-.06-.01-.074 0-.156.055-.09.061-.09.13 0 .066.09.092.014.004.17.028.09.014.09.05 0 .014-.033.023-.033.01-.084.01-.128 0-.202-.039-.098-.052-.098-.167 0-.12.12-.19.102-.06.232-.06.04 0 .071.017.04.022.04.058zM195.878 65.257q0 .022-.053.092t-.053.107q0 .02.022.038.05.044.05.054 0 .013-.009.025-.008.012-.02.012t-.032-.012q-.014-.008-.054-.039l-.023.044q-.028.053-.038.077l-.03.092q-.026.062-.065.062v-.023q0-.07.045-.168l.05-.093q-.079-.043-.174-.043 0-.037.015-.054.016-.018.053-.018.034 0 .085.012l.05.012q.02-.006.052-.065.081-.142.11-.163.008.013.013.026.006.013.006.025zM196.247 65.614q0 .05-.037.11-.042.07-.087.07-.013 0-.022-.015-.008-.015-.008-.029 0-.018.038-.056.04-.039.04-.053 0-.009-.004-.018l-.004-.012q-.075.017-.153.086-.077.07-.117.078-.008-.022-.008-.045 0-.028.013-.059.01-.022.03-.053.035-.053.074-.12l.07-.12.072-.123q.012-.018.021-.027.013-.012.031-.016.012.004.017.015.006.011.006.026 0 .034-.044.092l-.082.108q-.045.068-.045.123l.002.01q.055-.027.065-.03.041-.018.07-.018.032 0 .047.022.015.021.015.054zM197.068 65.288q0 .047-.05.126-.032.05-.105.144-.073.093-.09.122l.074.024q.073.022.073.08l-.059.01-.01-.002v-.008q-.017-.004-.027-.004-.019 0-.06.006-.04.006-.062.006-.027 0-.044-.01-.017-.01-.017-.036 0-.02.077-.119l.145-.185q.078-.106.078-.142 0-.014-.01-.02-.009-.008-.037-.008-.019 0-.079.037-.029.018-.047.018l-.017-.003q-.006-.004-.013-.015-.007-.012-.007-.019 0-.042.081-.077.07-.03.12-.03.043 0 .066.032.02.028.02.073zM197.67 65.468q0 .121-.132.214-.12.085-.247.085-.063 0-.1-.032-.037-.032-.037-.093 0-.136.12-.236.112-.095.252-.095.071 0 .107.042.036.042.036.115zm-.062.023q0-.046-.052-.069-.039-.017-.093-.017-.079 0-.165.077-.086.077-.086.155 0 .032.016.046.017.013.051.013.098 0 .204-.054.125-.064.125-.15zM198.127 65.288q0 .047-.05.126-.032.05-.105.144-.073.093-.09.122l.074.024q.073.022.073.08l-.059.01-.01-.002v-.008q-.017-.004-.027-.004-.019 0-.06.006-.04.006-.062.006-.027 0-.044-.01-.017-.01-.017-.036 0-.02.077-.119l.145-.185q.078-.106.078-.142 0-.014-.01-.02-.009-.008-.037-.008-.019 0-.079.037-.029.018-.047.018l-.017-.003q-.006-.004-.013-.015-.007-.012-.007-.019 0-.042.081-.077.07-.03.12-.03.043 0 .066.032.02.028.02.073zM198.587 65.288q0 .047-.05.126-.032.05-.105.144-.073.093-.09.122l.074.024q.073.022.073.08l-.059.01-.01-.002v-.008q-.017-.004-.027-.004-.019 0-.06.006-.04.006-.062.006-.027 0-.044-.01-.017-.01-.017-.036 0-.02.077-.119l.145-.185q.078-.106.078-.142 0-.014-.01-.02-.009-.008-.037-.008-.019 0-.079.037-.029.018-.047.018l-.017-.003q-.006-.004-.013-.015-.007-.012-.007-.019 0-.042.081-.077.07-.03.12-.03.043 0 .066.032.02.028.02.073z"/>
    </g>
    <path d="M93.673 81.69H75.397l28.845-38.983-26.27-35.503 17.184-.084 17.71 23.933 17.647-23.85h18.277l-26.786 36.2 24.436 33.024V50.8h-10.883l32.26-43.596h34.666l-11.07 14.303H166.44V37.2h35.617l-10.496 14.08H166.44v15.84h35.435l-10.78 14.57h-58.007l-19.707-26.634z" style="opacity:.98;fill:#d03c3b;stroke:#efd828;stroke-width:2;stroke-linecap:round;stroke-linejoin:round" transform="translate(1.982 -.212)"/>
    <g fill="#324cab" stroke="#fff" stroke-width="1.5">
        <path d="M21.61 58.527h-5.307l-1.833-6.5H6.904l-1.854 6.5H-.215l7.46-26.621q.895-3.154 3.453-3.154 2.536 0 3.453 3.154zm-8.546-11.595-2.366-8.397-2.366 8.397zM33.312 33.846h-5.819v24.681H22.4V33.846H16.58v-5.094h16.732zM50.15 58.527h-5.307l-1.833-6.5h-7.567l-1.854 6.5h-5.265l7.46-26.621q.895-3.154 3.453-3.154 2.537 0 3.453 3.154zm-8.547-11.595-2.366-8.397-2.366 8.397zM68.693 58.527h-5.925l-6.117-9.549q-1.343-2.067-1.343-3.24 0-2.195 1.897-3.58.895-.49 1.748-.98.852-.49 1.747-.98 1.897-1.258 1.897-3.091 0-1.258-1.002-2.26-1.001-1.001-2.28-1.001h-4.007v24.681h-5.094V32.013q0-1.3.98-2.281.98-.98 2.302-.98h5.819q3.282 0 5.819 2.365 2.536 2.345 2.536 5.627 0 3.048-1.982 5.563-1.961 2.494-4.966 3.56zM75.492 58.527h-5.094V28.752h5.094z" transform="matrix(1.07951 0 0 .92634 1.982 -.212)"/>
        <path d="m224.326 3.382-5.67 19.344q-.617 2.152-1.1 2.785-.935 1.234-2.569 1.234-1.4 0-2.284-.917-.868-.934-1.468-3.052l-5.57-19.394h5.07l4.236 16.276 4.385-16.276zM231.23 3.382v22.763h-4.636V3.382zM235.45 8.151q0-1.184.116-1.784.133-.617.5-1.251.6-1 1.534-1.367.934-.384 2.852-.384 3.202 0 5.237.85 3.335 1.385 5.27 4.436 1.767 2.769 1.767 6.104 0 4.736-3.302 8.038-2.902 2.902-6.704 3.252-1.184.117-2.585.117-1.434 0-2.268-.284-.817-.283-1.467-.984-.567-.617-.767-1.467-.184-.85-.184-2.735zm4.635 13.508h.6q1.652 0 2.836-.367 1.184-.383 2.168-1.234 1-.85 1.65-2.068.818-1.567.818-3.218 0-1.451-.65-2.869-.651-1.417-1.768-2.368-1.952-1.667-5.087-1.667-.15 0-.567.016zM267.051 3.382v4.452h-6.72v4.27h6.27v4.335h-6.27v5.237h6.72v4.469h-6.67q-1.518 0-2.335-.267-.8-.283-1.401-.984-.517-.6-.734-1.434-.217-.834-.217-2.134V8.2q0-2.635 1.068-3.719 1.067-1.1 3.619-1.1zM281.426 2.998q4.87 0 8.338 3.552 3.352 3.402 3.352 8.405 0 3.102-1.7 5.904-1.618 2.685-4.37 4.202-2.635 1.45-5.686 1.45-3.069 0-5.737-1.483-2.869-1.585-4.486-4.403-1.568-2.751-1.568-5.87 0-5.27 4.003-8.839 3.235-2.868 7.854-2.918zm-.033 4.503q-3.252 0-5.42 2.501-1.75 2.018-1.75 4.753 0 3.335 2.45 5.487 2.035 1.784 4.703 1.784 3.252 0 5.387-2.535 1.717-2.068 1.717-4.62 0-3.201-2.318-5.42-1.95-1.884-4.77-1.95z" transform="matrix(1.01213 0 0 .98802 1.982 -.212)"/>
        <path d="M218.207 44.264h8.445q1.502 0 2.253.734.801.801.801 2.086 0 1.152-.65 2.704-.652 1.535-1.687 2.82-1.635 2.053-3.938 3.205-2.47 1.235-5.258 1.235-3.037 0-5.674-1.452-2.871-1.569-4.54-4.423-1.602-2.754-1.602-5.908 0-3.271 1.685-6.075 1.636-2.72 4.407-4.256 2.653-1.469 5.708-1.469 3.004 0 5.54 1.385 2.554 1.386 4.323 3.99l-3.888 2.52q-.701-1.102-1.603-1.803-2.002-1.569-4.406-1.569-1.886 0-3.571 1.002-1.686 1-2.637 2.72-.902 1.636-.902 3.555 0 3.371 2.47 5.524 2.02 1.753 4.657 1.753 2.053 0 3.655-1.002 1.619-1.018 2.687-2.987h-6.275zM248.432 56.647h-5.04l-1.135-4.422h-6.142l-1.152 4.422h-4.89l5.541-19.844q.384-1.402 1.052-2.17 1.034-1.184 2.537-1.184 2.603 0 3.571 3.388zm-7.277-8.795-1.986-7.677-1.936 7.677zM272.098 56.647h-4.64V43.312l-3.004 10.715q-.367 1.335-.6 1.786-.618 1.168-2.103 1.168-1.486 0-2.137-1.201-.267-.484-.684-1.786l-3.455-10.849v13.502h-4.64V38.656q0-1.519.067-2.12.067-.6.3-1.085.368-.8 1.219-1.302.851-.517 1.786-.517.8 0 1.535.367.735.367 1.169.968.317.468.45.818.15.334.634 1.903L261.6 49.07l3.171-11.332q.401-1.469.551-1.853.15-.384.5-.884.952-1.352 2.705-1.352 1.018 0 1.852.517.851.5 1.269 1.385.45.935.45 3.055zM287.553 33.866v4.456h-6.726v4.273h6.276v4.339h-6.276v5.24h6.726v4.473h-6.676q-1.519 0-2.336-.267-.802-.283-1.402-.984-.518-.601-.735-1.436-.217-.834-.217-2.136V38.69q0-2.637 1.068-3.722 1.069-1.101 3.622-1.101z" transform="matrix(1.01272 0 0 .98744 1.982 -.212)"/>
        <path d="M219.414 64.273v4.724q-2.42-1.128-4.376-1.128-1.558 0-2.42.813-.812.762-.812 1.79 0 1.011.63 1.541t2.37.978q2.238.58 3.116.995.895.398 1.625 1.193 1.757 1.89 1.757 4.675 0 3.43-2.487 5.453-2.105 1.707-5.503 1.707-2.387 0-5.768-1.094v-4.807q3.547 1.492 5.868 1.492 1.508 0 2.337-.73.862-.762.862-1.889 0-1.326-1.194-1.94-.497-.248-2.42-.728-3.497-.879-4.79-2.918-1.044-1.657-1.044-3.646 0-2.503 1.541-4.476 1.094-1.409 2.57-2.039 1.491-.646 3.68-.646 2.12 0 4.458.68zM232.194 86.616h-4.592V76.82l-6.017-12.83h5.04l3.364 7.824 3.53-7.823h4.89l-6.215 12.83zM250.908 64.273v4.724q-2.42-1.128-4.376-1.128-1.558 0-2.42.813-.813.762-.813 1.79 0 1.011.63 1.541t2.37.978q2.238.58 3.117.995.895.398 1.624 1.193 1.757 1.89 1.757 4.675 0 3.43-2.486 5.453-2.105 1.707-5.503 1.707-2.387 0-5.769-1.094v-4.807q3.548 1.492 5.868 1.492 1.509 0 2.337-.73.862-.762.862-1.889 0-1.326-1.193-1.94-.497-.248-2.42-.728-3.498-.879-4.79-2.918-1.045-1.657-1.045-3.646 0-2.503 1.542-4.476 1.094-1.409 2.569-2.039 1.492-.646 3.68-.646 2.121 0 4.459.68zM266.588 63.99v4.426h-4.31v18.2h-4.608v-18.2h-4.243v-4.425zM280.246 63.99v4.426h-6.68v4.244h6.233v4.31h-6.233v5.204h6.68v4.442h-6.63q-1.508 0-2.32-.265-.796-.282-1.393-.978-.514-.596-.73-1.425-.215-.829-.215-2.122V68.781q0-2.619 1.061-3.696 1.061-1.094 3.597-1.094zM304.994 86.616h-4.608V73.373l-2.984 10.641q-.365 1.326-.597 1.774-.613 1.16-2.088 1.16-1.476 0-2.122-1.194-.265-.48-.68-1.773l-3.43-10.774v13.41h-4.609V68.747q0-1.508.067-2.105.066-.597.298-1.078.365-.795 1.21-1.292.845-.514 1.774-.514.795 0 1.524.364.73.365 1.16.962.316.464.448.812.15.332.63 1.89l3.58 11.304 3.15-11.255q.398-1.458.547-1.84.149-.38.497-.878.945-1.343 2.685-1.343 1.011 0 1.84.514.846.497 1.26 1.376.448.928.448 3.033z" transform="matrix(1.01017 0 0 .98994 1.982 -.212)"/>
    </g>
</svg>
