<?xml version="1.0" encoding="UTF-8" standalone="no"?>
<svg
   version="1.1"
   viewBox="0 0 640 360"
   id="svg140"
   sodipodi:docname="zaccariapinball.svg"
   inkscape:version="1.1.2 (0a00cf5339, 2022-02-04)"
   xmlns:inkscape="http://www.inkscape.org/namespaces/inkscape"
   xmlns:sodipodi="http://sodipodi.sourceforge.net/DTD/sodipodi-0.dtd"
   xmlns:xlink="http://www.w3.org/1999/xlink"
   xmlns="http://www.w3.org/2000/svg"
   xmlns:svg="http://www.w3.org/2000/svg">
  <defs
     id="defs144">
    <linearGradient
       inkscape:collect="always"
       id="linearGradient977">
      <stop
         style="stop-color:#ff7113;stop-opacity:1;"
         offset="0"
         id="stop973" />
      <stop
         style="stop-color:#ffff00;stop-opacity:1"
         offset="1"
         id="stop975" />
    </linearGradient>
    <linearGradient
       inkscape:collect="always"
       xlink:href="#linearGradient977"
       id="linearGradient1045"
       gradientUnits="userSpaceOnUse"
       x1="312.70639"
       y1="170.39503"
       x2="312.70639"
       y2="354.71167" />
  </defs>
  <sodipodi:namedview
     id="namedview142"
     pagecolor="#ffffff"
     bordercolor="#666666"
     borderopacity="1.0"
     inkscape:pageshadow="2"
     inkscape:pageopacity="0.0"
     inkscape:pagecheckerboard="0"
     showgrid="false"
     inkscape:zoom="1.8195686"
     inkscape:cx="154.43221"
     inkscape:cy="185.75831"
     inkscape:window-width="1920"
     inkscape:window-height="1011"
     inkscape:window-x="1920"
     inkscape:window-y="32"
     inkscape:window-maximized="1"
     inkscape:current-layer="svg140" />
  <g
     stroke-width="2.00"
     fill="none"
     stroke-linecap="butt"
     id="g66">
    <path
       stroke="#7d7800"
       vector-effect="non-scaling-stroke"
       d="   M 190.31 68.30   L 175.96 94.09   A 0.28 0.28 0.0 0 0 176.21 94.50   L 227.94 94.50   A 0.83 0.82 -74.6 0 0 228.65 94.09   Q 236.44 80.42 244.14 66.69   Q 244.50 66.03 244.49 64.25   Q 244.39 41.04 244.43 17.90   A 0.40 0.40 0.0 0 0 244.03 17.50   L 113.70 17.50   A 0.49 0.49 0.0 0 0 113.21 17.99   L 113.31 67.31   A 0.44 0.44 0.0 0 0 113.75 67.75   L 189.99 67.75   A 0.37 0.37 0.0 0 1 190.31 68.30"
       id="path2" />
    <path
       stroke="#7d7800"
       vector-effect="non-scaling-stroke"
       d="   M 330.33 68.32   L 316.15 93.88   A 0.42 0.42 0.0 0 0 316.52 94.50   L 367.93 94.50   A 0.97 0.96 -75.0 0 0 368.77 94.01   Q 376.08 81.15 383.44 68.28   Q 384.49 66.45 384.49 64.35   Q 384.51 41.10 384.49 17.95   A 0.45 0.45 0.0 0 0 384.04 17.50   L 253.71 17.50   A 0.53 0.53 0.0 0 0 253.18 18.04   L 253.44 67.22   A 0.54 0.53 89.4 0 0 253.97 67.75   L 330.00 67.75   A 0.38 0.38 0.0 0 1 330.33 68.32"
       id="path4" />
    <path
       stroke="#7d7800"
       vector-effect="non-scaling-stroke"
       d="   M 470.47 68.19   L 456.13 93.99   A 0.34 0.34 0.0 0 0 456.43 94.50   L 507.96 94.50   A 0.85 0.84 14.3 0 0 508.70 94.07   Q 516.16 81.20 523.48 68.22   Q 524.48 66.44 524.49 64.42   Q 524.55 41.24 524.45 17.99   A 0.49 0.49 0.0 0 0 523.96 17.50   L 393.71 17.50   A 0.53 0.53 0.0 0 0 393.18 18.04   L 393.54 67.27   A 0.48 0.48 0.0 0 0 394.02 67.75   L 470.21 67.75   A 0.30 0.29 14.7 0 1 470.47 68.19"
       id="path6" />
    <path
       stroke="#7d7800"
       vector-effect="non-scaling-stroke"
       d="   M 565.92 103.07   A 0.32 0.32 0.0 0 0 565.60 102.75   L 74.82 102.75   A 0.32 0.32 0.0 0 0 74.50 103.07   L 74.50 167.69   A 0.32 0.32 0.0 0 0 74.82 168.01   L 565.60 168.01   A 0.32 0.32 0.0 0 0 565.92 167.69   L 565.92 103.07"
       id="path8" />
    <path
       stroke="#80390a"
       vector-effect="non-scaling-stroke"
       d="   M 279.51 279.35   C 272.87 290.05 256.05 311.09 271.42 321.78   C 284.86 331.12 308.52 307.33 316.61 298.29   A 0.53 0.53 0.0 0 1 317.52 298.51   C 326.81 335.33 361.84 308.43 374.99 293.52   A 1.26 1.23 16.2 0 1 375.78 293.10   Q 383.98 292.14 391.88 289.73   A 0.66 0.65 -22.4 0 1 392.64 290.04   C 397.34 298.57 410.56 312.09 421.31 305.09   C 433.73 297.01 445.01 286.65 456.49 277.25   Q 456.87 276.94 456.73 277.42   Q 455.14 282.66 453.31 287.81   C 447.54 304.04 459.41 312.76 473.93 304.17   Q 488.54 295.52 501.23 284.10   A 0.59 0.59 0.0 0 1 502.18 284.32   C 508.02 299.26 521.20 301.07 534.51 295.65   C 544.23 291.69 553.03 285.00 560.52 277.37   A 0.58 0.57 57.4 0 1 561.47 277.58   Q 566.55 291.51 579.04 292.59   C 599.71 294.36 621.31 271.39 633.46 257.85   A 0.74 0.73 -42.6 0 0 633.50 256.92   L 629.98 252.24   A 0.65 0.65 0.0 0 0 629.02 252.16   C 620.74 259.99 600.33 277.72 587.68 273.88   C 580.34 271.66 575.48 259.42 581.50 253.38   C 595.47 239.35 609.24 224.17 619.18 206.93   Q 628.12 191.43 625.99 173.76   Q 625.50 169.74 622.01 169.07   C 612.20 167.19 583.89 202.18 577.62 210.13   Q 558.19 234.80 558.93 266.45   A 1.05 1.04 69.5 0 1 558.56 267.27   C 550.22 274.29 525.29 290.68 519.95 270.55   C 518.75 266.03 519.21 262.05 522.62 258.53   C 534.85 245.91 545.20 234.44 555.99 218.78   Q 567.54 202.01 566.95 182.81   C 566.04 153.15 517.24 217.12 514.82 220.59   C 504.46 235.47 498.32 254.02 499.73 272.28   A 1.01 1.00 67.1 0 1 499.40 273.11   C 494.61 277.32 480.34 287.19 473.82 283.44   C 460.97 276.06 502.67 249.79 480.54 243.97   A 0.40 0.40 0.0 0 1 480.52 243.21   Q 484.17 242.04 486.68 239.18   A 1.32 1.31 -41.9 0 0 486.77 237.55   C 480.80 229.11 471.24 229.53 462.49 231.96   C 439.66 238.32 401.83 255.67 392.27 279.27   A 0.98 0.96 -81.8 0 1 391.47 279.88   L 384.90 280.61   Q 384.03 280.70 384.40 279.91   C 387.82 272.56 396.40 257.06 388.56 250.15   C 386.23 248.09 381.55 248.07 379.03 249.26   Q 362.06 257.27 356.11 274.64   C 354.34 279.82 355.49 283.88 359.09 287.64   A 0.61 0.61 0.0 0 1 359.16 288.41   C 355.48 294.00 348.93 300.38 341.65 298.76   C 334.02 297.05 329.69 283.70 334.85 278.07   C 346.59 265.28 418.98 199.95 402.48 181.55   C 394.09 172.19 359.38 205.17 353.48 210.97   C 332.45 231.68 315.05 254.97 315.04 286.07   A 1.19 1.16 -22.2 0 1 314.67 286.92   C 311.26 290.18 295.51 304.23 290.76 298.82   C 285.05 292.31 306.43 271.09 310.76 266.27   C 314.84 261.71 312.21 256.87 309.28 252.43   C 307.15 249.20 305.53 246.22 301.82 247.52   Q 298.82 248.57 293.25 252.20   C 273.99 264.79 256.87 278.90 241.83 296.37   C 240.50 297.91 236.70 301.13 236.05 297.10   A 1.44 1.44 0.0 0 1 236.22 296.16   Q 237.89 293.21 239.46 291.47   Q 247.36 282.73 255.04 273.80   C 257.48 270.98 264.55 261.84 256.58 260.97   C 249.37 260.18 242.03 260.08 237.17 264.66   C 227.12 274.14 218.49 287.58 216.54 301.48   A 1.41 1.38 -17.8 0 1 216.10 302.31   C 210.72 307.15 203.30 311.64 196.04 312.61   C 189.12 313.54 181.18 312.32 182.03 303.09   A 1.16 1.15 73.2 0 1 182.46 302.28   C 191.85 294.69 204.57 283.49 209.01 272.01   C 212.56 262.82 200.85 262.16 195.50 263.95   C 178.36 269.71 160.05 293.03 162.28 311.46   C 163.47 321.24 170.46 332.02 181.01 333.25   C 194.41 334.81 209.28 323.76 218.13 314.54   A 0.37 0.37 0.0 0 1 218.72 314.61   C 232.36 338.27 245.73 314.70 254.37 303.85   Q 265.33 290.08 279.11 278.99   A 0.27 0.27 0.0 0 1 279.51 279.35"
       id="path10" />
    <path
       stroke="#7d7800"
       vector-effect="non-scaling-stroke"
       d="   M 167.49 201.26   L 181.53 176.75   A 0.33 0.33 0.0 0 0 181.24 176.25   L 131.02 176.25   A 0.88 0.87 -75.3 0 0 130.26 176.70   L 117.46 199.65   Q 116.76 200.91 118.21 200.85   C 139.35 199.92 168.55 203.78 177.82 226.41   Q 182.81 238.61 180.38 251.84   A 0.22 0.22 0.0 0 0 180.60 252.10   L 193.74 251.96   A 0.46 0.46 0.0 0 0 194.19 251.49   C 193.84 238.53 208.13 230.76 219.15 230.59   C 232.34 230.39 234.45 241.98 229.01 251.70   A 0.25 0.25 0.0 0 0 229.23 252.07   L 247.06 252.02   A 0.59 0.58 -89.5 0 0 247.64 251.44   L 247.80 202.40   A 0.65 0.65 0.0 0 0 247.15 201.75   L 167.77 201.75   A 0.33 0.32 -75.0 0 1 167.49 201.26"
       id="path12" />
    <path
       stroke="#7d7800"
       vector-effect="non-scaling-stroke"
       d="   M 307.59 201.19   L 321.48 176.88   A 0.42 0.42 0.0 0 0 321.12 176.25   L 271.03 176.25   A 0.84 0.82 -75.0 0 0 270.31 176.68   Q 264.15 187.71 258.05 198.78   Q 257.07 200.56 257.08 202.60   Q 257.22 227.03 257.51 251.50   A 0.54 0.53 -0.0 0 0 258.05 252.03   L 283.90 252.17   A 1.71 1.69 28.6 0 0 284.87 251.89   Q 292.97 246.48 298.31 244.07   C 307.05 240.13 310.99 245.50 315.22 251.94   A 0.81 0.81 0.0 0 0 316.62 251.85   C 326.17 232.31 339.42 216.90 355.37 202.12   Q 355.78 201.75 355.23 201.75   L 307.91 201.75   A 0.37 0.37 0.0 0 1 307.59 201.19"
       id="path14" />
    <path
       stroke="#7d7800"
       vector-effect="non-scaling-stroke"
       d="   M 447.64 201.16   L 461.57 176.82   A 0.38 0.37 -74.7 0 0 461.25 176.25   L 411.04 176.25   A 0.91 0.89 -75.0 0 0 410.26 176.71   L 408.61 179.72   A 0.97 0.95 -44.4 0 0 408.59 180.62   C 414.40 191.98 404.32 208.26 397.46 217.53   A 1.48 1.46 63.6 0 0 397.17 218.41   L 397.51 251.48   A 0.72 0.71 0.0 0 0 398.23 252.19   L 408.96 252.09   A 1.61 1.57 26.7 0 0 409.88 251.80   Q 427.96 239.26 448.58 231.61   C 461.73 226.74 476.40 222.32 487.72 231.06   C 491.72 234.14 494.29 239.16 490.06 243.16   A 0.62 0.62 0.0 0 0 490.00 244.00   Q 492.51 247.18 492.87 251.27   A 1.01 0.99 12.8 0 0 493.36 252.03   Q 495.28 253.13 495.74 251.26   Q 501.34 228.55 514.83 212.06   Q 518.79 207.22 522.68 202.14   Q 522.98 201.74 522.48 201.74   L 447.99 201.76   A 0.40 0.40 0.0 0 1 447.64 201.16"
       id="path16" />
    <path
       stroke="#80390a"
       vector-effect="non-scaling-stroke"
       d="   M 55.80 277.17   C 47.75 280.15 20.88 288.18 22.04 299.26   C 22.62 304.71 28.74 308.60 33.58 310.34   A 0.43 0.42 24.2 0 1 33.81 310.94   C 30.68 316.69 5.71 356.65 25.77 355.29   C 35.32 354.64 44.56 338.13 48.96 329.56   A 1.89 1.89 0.0 0 0 48.19 327.04   L 44.78 325.15   A 0.49 0.48 29.5 0 1 44.59 324.49   L 51.21 312.46   A 0.91 0.88 13.8 0 1 52.00 312.00   Q 85.35 312.01 116.95 301.65   C 144.71 292.55 182.16 269.47 174.84 234.49   C 171.89 220.43 161.22 211.48 148.26 208.24   Q 131.08 203.94 112.18 205.03   C 84.30 206.64 55.99 211.50 29.68 221.06   Q 22.82 223.55 18.83 229.06   C 17.04 231.53 2.58 251.75 6.51 254.54   C 9.58 256.73 29.47 248.73 33.71 247.25   Q 59.08 238.41 85.45 234.92   A 0.42 0.42 0.0 0 1 85.85 235.58   L 56.58 276.58   A 1.72 1.69 7.4 0 1 55.80 277.17"
       id="path18" />
    <path
       stroke="#7d7800"
       vector-effect="non-scaling-stroke"
       d="   M 387.23 230.77   L 372.05 247.28   A 0.20 0.20 0.0 0 0 372.30 247.58   Q 379.13 243.24 387.18 244.32   A 0.51 0.50 3.5 0 0 387.75 243.82   L 387.75 230.97   A 0.30 0.30 0.0 0 0 387.23 230.77"
       id="path20" />
    <path
       stroke="#80390a"
       vector-effect="non-scaling-stroke"
       d="   M 223.58 236.16   C 216.30 231.80 204.24 239.05 200.76 245.76   C 198.29 250.52 199.98 255.86 204.87 257.99   C 211.42 260.85 219.33 256.37 223.26 251.02   C 225.97 247.32 228.83 239.30 223.58 236.16"
       id="path22" />
    <path
       stroke="#7d7800"
       vector-effect="non-scaling-stroke"
       d="   M 172.96 35.53   Q 176.27 46.15 178.39 57.14   A 0.76 0.75 84.4 0 0 179.13 57.75   L 183.59 57.75   A 0.79 0.78 6.8 0 0 184.37 57.14   L 189.38 36.20   A 0.30 0.30 0.0 0 1 189.98 36.27   L 190.21 57.26   A 0.49 0.49 0.0 0 0 190.70 57.75   L 195.00 57.75   A 0.50 0.50 0.0 0 0 195.50 57.25   L 195.50 29.13   A 0.63 0.62 -90.0 0 0 194.88 28.50   L 187.27 28.50   A 0.57 0.56 7.2 0 0 186.72 28.92   L 181.80 47.49   A 0.37 0.37 0.0 0 1 181.09 47.49   L 176.24 29.04   A 0.72 0.72 0.0 0 0 175.54 28.50   L 167.88 28.50   A 0.63 0.63 0.0 0 0 167.25 29.13   L 167.25 57.13   A 0.62 0.62 0.0 0 0 167.87 57.75   L 172.11 57.75   A 0.64 0.64 0.0 0 0 172.75 57.11   L 172.81 35.56   Q 172.81 35.05 172.96 35.53"
       id="path24" />
    <path
       stroke="#7d7800"
       vector-effect="non-scaling-stroke"
       d="   M 313.68 40.79   A 0.43 0.43 0.0 0 1 313.25 40.36   L 313.25 33.68   A 0.43 0.43 0.0 0 1 313.68 33.25   L 327.07 33.25   A 0.43 0.43 0.0 0 0 327.50 32.82   L 327.50 28.93   A 0.43 0.43 0.0 0 0 327.07 28.50   L 307.93 28.50   A 0.43 0.43 0.0 0 0 307.50 28.93   L 307.50 57.32   A 0.43 0.43 0.0 0 0 307.93 57.75   L 312.89 57.75   A 0.43 0.43 0.0 0 0 313.32 57.32   L 313.22 45.93   A 0.43 0.43 0.0 0 1 313.65 45.50   L 325.21 45.50   A 0.43 0.43 0.0 0 0 325.64 45.07   L 325.60 41.16   A 0.43 0.43 0.0 0 0 325.17 40.73   L 313.68 40.79"
       id="path26" />
    <path
       stroke="#7d7800"
       vector-effect="non-scaling-stroke"
       d="   M 450.42 39.45   A 0.35 0.35 0.0 0 1 451.07 39.26   L 462.38 57.53   A 0.35 0.35 0.0 0 0 462.67 57.69   L 468.14 57.77   A 0.35 0.35 0.0 0 0 468.50 57.42   L 468.50 28.85   A 0.35 0.35 0.0 0 0 468.15 28.50   L 463.30 28.50   A 0.35 0.35 0.0 0 0 462.95 28.85   L 463.09 47.10   A 0.35 0.35 0.0 0 1 462.44 47.28   L 450.98 28.67   A 0.35 0.35 0.0 0 0 450.68 28.50   L 445.82 28.50   A 0.35 0.35 0.0 0 0 445.47 28.85   L 445.49 57.40   A 0.35 0.35 0.0 0 0 445.84 57.75   L 450.37 57.75   A 0.35 0.35 0.0 0 0 450.72 57.39   L 450.42 39.45"
       id="path28" />
    <path
       stroke="#7d7800"
       vector-effect="non-scaling-stroke"
       d="   M 243.81 151.44   C 236.59 150.39 233.52 144.61 232.78 137.96   C 231.48 126.23 237.19 117.89 249.80 119.26   Q 257.22 120.06 259.86 126.75   A 0.60 0.59 74.2 0 0 260.51 127.12   L 271.17 125.48   A 0.49 0.49 0.0 0 0 271.56 124.83   C 267.11 112.48 254.77 109.11 242.77 110.74   C 226.08 113.02 217.43 126.32 221.06 142.17   C 226.26 164.89 264.44 167.47 271.66 144.69   A 0.58 0.57 16.1 0 0 271.25 143.96   L 261.04 141.41   A 0.66 0.65 -73.2 0 0 260.27 141.83   Q 256.20 153.24 243.81 151.44"
       id="path30" />
    <path
       stroke="#7d7800"
       vector-effect="non-scaling-stroke"
       d="   M 283.05 122.82   Q 277.68 131.88 280.57 142.49   C 286.60 164.57 324.00 167.73 331.16 144.68   A 0.56 0.55 15.3 0 0 330.76 143.98   L 320.45 141.34   A 0.54 0.54 0.0 0 0 319.81 141.69   Q 315.88 153.50 302.96 151.09   Q 295.33 149.67 293.20 142.77   C 291.39 136.89 291.58 127.54 296.20 123.05   C 303.01 116.43 315.22 117.96 319.46 126.62   A 0.82 0.81 -17.0 0 0 320.32 127.07   L 330.78 125.49   A 0.48 0.47 75.1 0 0 331.15 124.85   C 323.45 105.22 293.14 105.84 283.05 122.82"
       id="path32" />
    <path
       stroke="#7d7800"
       vector-effect="non-scaling-stroke"
       d="   M 121.31 151.87   L 153.34 119.49   A 1.40 1.40 0.0 0 0 153.75 118.50   L 153.75 111.37   A 0.63 0.62 0.0 0 0 153.12 110.75   L 111.25 110.75   A 0.50 0.50 0.0 0 0 110.75 111.25   L 110.75 118.41   A 0.61 0.61 0.0 0 0 111.36 119.02   L 138.24 118.99   A 0.24 0.23 22.3 0 1 138.41 119.39   L 107.35 150.80   A 1.27 1.27 0.0 0 0 106.99 151.71   L 107.06 159.91   A 0.60 0.60 0.0 0 0 107.66 160.50   L 154.54 160.50   A 0.56 0.56 0.0 0 0 155.10 159.96   L 155.29 152.90   A 0.64 0.64 0.0 0 0 154.65 152.24   L 121.48 152.27   Q 120.92 152.27 121.31 151.87"
       id="path34" />
    <path
       stroke="#7d7800"
       vector-effect="non-scaling-stroke"
       d="   M 173.73 149.59   A 0.34 0.34 0.0 0 1 174.04 149.39   L 197.47 149.50   A 0.34 0.34 0.0 0 1 197.78 149.70   L 202.73 160.30   A 0.34 0.34 0.0 0 0 203.04 160.50   L 215.30 160.50   A 0.34 0.34 0.0 0 0 215.60 160.01   L 191.61 110.94   A 0.34 0.34 0.0 0 0 191.31 110.75   L 180.06 110.75   A 0.34 0.34 0.0 0 0 179.75 110.94   L 156.53 160.01   A 0.34 0.34 0.0 0 0 156.84 160.50   L 168.67 160.50   A 0.34 0.34 0.0 0 0 168.98 160.30   L 173.73 149.59"
       id="path36" />
    <path
       stroke="#7d7800"
       vector-effect="non-scaling-stroke"
       d="   M 376.60 149.44   A 0.33 0.33 0.0 0 1 376.90 149.63   L 381.91 160.31   A 0.33 0.33 0.0 0 0 382.21 160.50   L 394.47 160.50   A 0.33 0.33 0.0 0 0 394.77 160.03   L 370.76 110.94   A 0.33 0.33 0.0 0 0 370.46 110.75   L 359.22 110.75   A 0.33 0.33 0.0 0 0 358.92 110.94   L 335.60 160.03   A 0.33 0.33 0.0 0 0 335.90 160.50   L 347.80 160.50   A 0.33 0.33 0.0 0 0 348.10 160.30   L 352.84 149.62   A 0.33 0.33 0.0 0 1 353.14 149.42   L 376.60 149.44"
       id="path38" />
    <path
       stroke="#7d7800"
       vector-effect="non-scaling-stroke"
       d="   M 434.44 139.25   A 0.44 0.44 0.0 0 1 434.61 138.41   C 442.96 138.02 450.37 132.40 449.28 123.51   C 448.10 113.79 440.55 111.63 431.47 111.14   Q 416.63 110.34 401.59 110.91   A 0.60 0.60 0.0 0 0 401.01 111.51   L 400.98 159.86   A 0.64 0.64 0.0 0 0 401.62 160.50   L 412.50 160.50   A 0.50 0.50 0.0 0 0 413.00 160.00   L 413.00 140.76   A 0.58 0.57 86.0 0 1 413.49 140.19   C 421.34 139.12 424.68 141.62 429.42 147.33   Q 434.62 153.61 439.72 160.06   A 1.17 1.16 70.7 0 0 440.63 160.50   L 453.47 160.50   Q 454.19 160.50 453.77 159.92   C 448.66 152.71 442.60 143.17 434.44 139.25"
       id="path40" />
    <path
       stroke="#7d7800"
       vector-effect="non-scaling-stroke"
       d="   M 472.51 111.06   A 0.30 0.30 0.0 0 0 472.21 110.76   L 461.05 110.76   A 0.30 0.30 0.0 0 0 460.75 111.06   L 460.75 160.20   A 0.30 0.30 0.0 0 0 461.05 160.50   L 472.21 160.50   A 0.30 0.30 0.0 0 0 472.51 160.20   L 472.51 111.06"
       id="path42" />
    <path
       stroke="#7d7800"
       vector-effect="non-scaling-stroke"
       d="   M 501.63 110.75   A 0.31 0.31 0.0 0 0 501.35 110.93   L 478.01 160.06   A 0.31 0.31 0.0 0 0 478.29 160.50   L 490.20 160.50   A 0.31 0.31 0.0 0 0 490.48 160.32   L 495.32 149.42   A 0.31 0.31 0.0 0 1 495.60 149.23   L 518.97 149.42   A 0.31 0.31 0.0 0 1 519.25 149.60   L 524.29 160.32   A 0.31 0.31 0.0 0 0 524.57 160.50   L 536.85 160.50   A 0.31 0.31 0.0 0 0 537.13 160.05   L 513.12 110.92   A 0.31 0.31 0.0 0 0 512.85 110.75   L 501.63 110.75"
       id="path44" />
    <path
       stroke="#7d7800"
       vector-effect="non-scaling-stroke"
       d="   M 177.67 140.82   A 0.32 0.32 0.0 0 0 177.97 141.27   L 193.34 141.22   A 0.32 0.32 0.0 0 0 193.63 140.77   L 185.88 123.75   A 0.32 0.32 0.0 0 0 185.30 123.75   L 177.67 140.82"
       id="path46" />
    <path
       stroke="#7d7800"
       vector-effect="non-scaling-stroke"
       d="   M 356.83 140.81   A 0.32 0.32 0.0 0 0 357.12 141.26   L 372.44 141.23   A 0.32 0.32 0.0 0 0 372.73 140.78   L 365.04 123.70   A 0.32 0.32 0.0 0 0 364.46 123.70   L 356.83 140.81"
       id="path48" />
    <path
       stroke="#7d7800"
       vector-effect="non-scaling-stroke"
       d="   M 431.48 131.41   C 439.33 130.83 438.43 119.29 431.66 119.29   Q 422.65 119.29 413.52 119.12   A 0.51 0.51 0.0 0 0 413.00 119.63   L 413.00 130.98   A 0.65 0.65 0.0 0 0 413.62 131.63   Q 422.63 132.08 431.48 131.41"
       id="path50" />
    <path
       stroke="#7d7800"
       vector-effect="non-scaling-stroke"
       d="   M 499.19 140.82   A 0.32 0.32 0.0 0 0 499.49 141.27   L 514.88 141.22   A 0.32 0.32 0.0 0 0 515.17 140.77   L 507.41 123.75   A 0.32 0.32 0.0 0 0 506.83 123.75   L 499.19 140.82"
       id="path52" />
    <path
       stroke="#80390a"
       vector-effect="non-scaling-stroke"
       d="   M 609.74 193.73   C 596.88 201.18 587.16 223.78 582.18 236.33   A 0.19 0.19 0.0 0 0 582.49 236.53   C 593.48 225.48 605.94 209.20 610.05 193.97   Q 610.18 193.48 609.74 193.73"
       id="path54" />
    <path
       stroke="#80390a"
       vector-effect="non-scaling-stroke"
       d="   M 386.23 197.77   C 366.94 214.63 350.39 234.80 338.88 257.62   A 0.37 0.37 0.0 0 0 339.47 258.05   Q 358.59 238.71 374.89 217.90   Q 382.03 208.78 386.72 198.13   A 0.31 0.31 0.0 0 0 386.23 197.77"
       id="path56" />
    <path
       stroke="#80390a"
       vector-effect="non-scaling-stroke"
       d="   M 550.28 199.34   C 537.80 207.39 528.45 227.20 523.32 240.80   Q 522.57 242.77 524.05 241.27   C 535.10 230.02 545.60 215.01 550.76 199.71   A 0.32 0.32 0.0 0 0 550.28 199.34"
       id="path58" />
    <path
       stroke="#80390a"
       vector-effect="non-scaling-stroke"
       d="   M 411.96 292.62   C 424.06 295.41 457.06 259.63 465.54 250.66   A 0.22 0.22 0.0 0 0 465.31 250.30   Q 445.82 256.95 427.86 266.86   C 419.34 271.56 407.91 279.40 410.19 290.80   A 2.34 2.32 1.0 0 0 411.96 292.62"
       id="path60" />
    <path
       stroke="#80390a"
       vector-effect="non-scaling-stroke"
       d="   M 94.49 273.41   C 88.46 277.25 79.97 278.59 73.19 281.02   A 1.37 1.36 -83.7 0 0 72.50 281.58   L 69.22 286.91   A 0.57 0.57 0.0 0 0 69.67 287.78   Q 104.59 289.94 134.45 271.69   C 147.44 263.75 178.23 235.34 139.76 231.82   Q 120.27 230.04 100.84 231.68   A 0.69 0.69 0.0 0 0 100.21 232.44   C 100.56 235.97 100.00 238.71 97.92 241.81   Q 87.90 256.82 77.70 271.85   Q 77.42 272.26 77.92 272.22   C 81.68 271.89 91.90 269.04 94.60 271.19   A 1.37 1.36 47.9 0 1 94.49 273.41"
       id="path62" />
    <path
       stroke="#7d7800"
       vector-effect="non-scaling-stroke"
       d="   M 152.83 241.04   C 148.86 235.13 124.43 235.29 117.78 235.38   A 0.61 0.60 89.1 0 0 117.19 236.00   L 117.54 251.41   A 0.63 0.62 89.5 0 0 118.16 252.03   L 148.41 251.99   A 0.93 0.93 0.0 0 0 149.13 251.65   Q 152.62 247.41 153.07 241.93   A 1.41 1.34 31.3 0 0 152.83 241.04"
       id="path64" />
  </g>
  <g
     fill="#f9ef00"
     id="g94">
    <path
       d="   M 189.99 67.75   L 113.75 67.75   A 0.44 0.44 0.0 0 1 113.31 67.31   L 113.21 17.99   A 0.49 0.49 0.0 0 1 113.70 17.50   L 244.03 17.50   A 0.40 0.40 0.0 0 1 244.43 17.90   Q 244.39 41.04 244.49 64.25   Q 244.50 66.03 244.14 66.69   Q 236.44 80.42 228.65 94.09   A 0.83 0.82 -74.6 0 1 227.94 94.50   L 176.21 94.50   A 0.28 0.28 0.0 0 1 175.96 94.09   L 190.31 68.30   A 0.37 0.37 0.0 0 0 189.99 67.75   Z   M 172.96 35.53   Q 176.27 46.15 178.39 57.14   A 0.76 0.75 84.4 0 0 179.13 57.75   L 183.59 57.75   A 0.79 0.78 6.8 0 0 184.37 57.14   L 189.38 36.20   A 0.30 0.30 0.0 0 1 189.98 36.27   L 190.21 57.26   A 0.49 0.49 0.0 0 0 190.70 57.75   L 195.00 57.75   A 0.50 0.50 0.0 0 0 195.50 57.25   L 195.50 29.13   A 0.63 0.62 -90.0 0 0 194.88 28.50   L 187.27 28.50   A 0.57 0.56 7.2 0 0 186.72 28.92   L 181.80 47.49   A 0.37 0.37 0.0 0 1 181.09 47.49   L 176.24 29.04   A 0.72 0.72 0.0 0 0 175.54 28.50   L 167.88 28.50   A 0.63 0.63 0.0 0 0 167.25 29.13   L 167.25 57.13   A 0.62 0.62 0.0 0 0 167.87 57.75   L 172.11 57.75   A 0.64 0.64 0.0 0 0 172.75 57.11   L 172.81 35.56   Q 172.81 35.05 172.96 35.53   Z"
       id="path68" />
    <path
       d="   M 330.00 67.75   L 253.97 67.75   A 0.54 0.53 89.4 0 1 253.44 67.22   L 253.18 18.04   A 0.53 0.53 0.0 0 1 253.71 17.50   L 384.04 17.50   A 0.45 0.45 0.0 0 1 384.49 17.95   Q 384.51 41.10 384.49 64.35   Q 384.49 66.45 383.44 68.28   Q 376.08 81.15 368.77 94.01   A 0.97 0.96 -75.0 0 1 367.93 94.50   L 316.52 94.50   A 0.42 0.42 0.0 0 1 316.15 93.88   L 330.33 68.32   A 0.38 0.38 0.0 0 0 330.00 67.75   Z   M 313.68 40.79   A 0.43 0.43 0.0 0 1 313.25 40.36   L 313.25 33.68   A 0.43 0.43 0.0 0 1 313.68 33.25   L 327.07 33.25   A 0.43 0.43 0.0 0 0 327.50 32.82   L 327.50 28.93   A 0.43 0.43 0.0 0 0 327.07 28.50   L 307.93 28.50   A 0.43 0.43 0.0 0 0 307.50 28.93   L 307.50 57.32   A 0.43 0.43 0.0 0 0 307.93 57.75   L 312.89 57.75   A 0.43 0.43 0.0 0 0 313.32 57.32   L 313.22 45.93   A 0.43 0.43 0.0 0 1 313.65 45.50   L 325.21 45.50   A 0.43 0.43 0.0 0 0 325.64 45.07   L 325.60 41.16   A 0.43 0.43 0.0 0 0 325.17 40.73   L 313.68 40.79   Z"
       id="path70" />
    <path
       d="   M 470.21 67.75   L 394.02 67.75   A 0.48 0.48 0.0 0 1 393.54 67.27   L 393.18 18.04   A 0.53 0.53 0.0 0 1 393.71 17.50   L 523.96 17.50   A 0.49 0.49 0.0 0 1 524.45 17.99   Q 524.55 41.24 524.49 64.42   Q 524.48 66.44 523.48 68.22   Q 516.16 81.20 508.70 94.07   A 0.85 0.84 14.3 0 1 507.96 94.50   L 456.43 94.50   A 0.34 0.34 0.0 0 1 456.13 93.99   L 470.47 68.19   A 0.30 0.29 14.7 0 0 470.21 67.75   Z   M 450.42 39.45   A 0.35 0.35 0.0 0 1 451.07 39.26   L 462.38 57.53   A 0.35 0.35 0.0 0 0 462.67 57.69   L 468.14 57.77   A 0.35 0.35 0.0 0 0 468.50 57.42   L 468.50 28.85   A 0.35 0.35 0.0 0 0 468.15 28.50   L 463.30 28.50   A 0.35 0.35 0.0 0 0 462.95 28.85   L 463.09 47.10   A 0.35 0.35 0.0 0 1 462.44 47.28   L 450.98 28.67   A 0.35 0.35 0.0 0 0 450.68 28.50   L 445.82 28.50   A 0.35 0.35 0.0 0 0 445.47 28.85   L 445.49 57.40   A 0.35 0.35 0.0 0 0 445.84 57.75   L 450.37 57.75   A 0.35 0.35 0.0 0 0 450.72 57.39   L 450.42 39.45   Z"
       id="path72" />
    <path
       d="   M 565.92 167.69   A 0.32 0.32 0.0 0 1 565.60 168.01   L 74.82 168.01   A 0.32 0.32 0.0 0 1 74.50 167.69   L 74.50 103.07   A 0.32 0.32 0.0 0 1 74.82 102.75   L 565.60 102.75   A 0.32 0.32 0.0 0 1 565.92 103.07   L 565.92 167.69   Z   M 243.81 151.44   C 236.59 150.39 233.52 144.61 232.78 137.96   C 231.48 126.23 237.19 117.89 249.80 119.26   Q 257.22 120.06 259.86 126.75   A 0.60 0.59 74.2 0 0 260.51 127.12   L 271.17 125.48   A 0.49 0.49 0.0 0 0 271.56 124.83   C 267.11 112.48 254.77 109.11 242.77 110.74   C 226.08 113.02 217.43 126.32 221.06 142.17   C 226.26 164.89 264.44 167.47 271.66 144.69   A 0.58 0.57 16.1 0 0 271.25 143.96   L 261.04 141.41   A 0.66 0.65 -73.2 0 0 260.27 141.83   Q 256.20 153.24 243.81 151.44   Z   M 283.05 122.82   Q 277.68 131.88 280.57 142.49   C 286.60 164.57 324.00 167.73 331.16 144.68   A 0.56 0.55 15.3 0 0 330.76 143.98   L 320.45 141.34   A 0.54 0.54 0.0 0 0 319.81 141.69   Q 315.88 153.50 302.96 151.09   Q 295.33 149.67 293.20 142.77   C 291.39 136.89 291.58 127.54 296.20 123.05   C 303.01 116.43 315.22 117.96 319.46 126.62   A 0.82 0.81 -17.0 0 0 320.32 127.07   L 330.78 125.49   A 0.48 0.47 75.1 0 0 331.15 124.85   C 323.45 105.22 293.14 105.84 283.05 122.82   Z   M 121.31 151.87   L 153.34 119.49   A 1.40 1.40 0.0 0 0 153.75 118.50   L 153.75 111.37   A 0.63 0.62 0.0 0 0 153.12 110.75   L 111.25 110.75   A 0.50 0.50 0.0 0 0 110.75 111.25   L 110.75 118.41   A 0.61 0.61 0.0 0 0 111.36 119.02   L 138.24 118.99   A 0.24 0.23 22.3 0 1 138.41 119.39   L 107.35 150.80   A 1.27 1.27 0.0 0 0 106.99 151.71   L 107.06 159.91   A 0.60 0.60 0.0 0 0 107.66 160.50   L 154.54 160.50   A 0.56 0.56 0.0 0 0 155.10 159.96   L 155.29 152.90   A 0.64 0.64 0.0 0 0 154.65 152.24   L 121.48 152.27   Q 120.92 152.27 121.31 151.87   Z   M 173.73 149.59   A 0.34 0.34 0.0 0 1 174.04 149.39   L 197.47 149.50   A 0.34 0.34 0.0 0 1 197.78 149.70   L 202.73 160.30   A 0.34 0.34 0.0 0 0 203.04 160.50   L 215.30 160.50   A 0.34 0.34 0.0 0 0 215.60 160.01   L 191.61 110.94   A 0.34 0.34 0.0 0 0 191.31 110.75   L 180.06 110.75   A 0.34 0.34 0.0 0 0 179.75 110.94   L 156.53 160.01   A 0.34 0.34 0.0 0 0 156.84 160.50   L 168.67 160.50   A 0.34 0.34 0.0 0 0 168.98 160.30   L 173.73 149.59   Z   M 376.60 149.44   A 0.33 0.33 0.0 0 1 376.90 149.63   L 381.91 160.31   A 0.33 0.33 0.0 0 0 382.21 160.50   L 394.47 160.50   A 0.33 0.33 0.0 0 0 394.77 160.03   L 370.76 110.94   A 0.33 0.33 0.0 0 0 370.46 110.75   L 359.22 110.75   A 0.33 0.33 0.0 0 0 358.92 110.94   L 335.60 160.03   A 0.33 0.33 0.0 0 0 335.90 160.50   L 347.80 160.50   A 0.33 0.33 0.0 0 0 348.10 160.30   L 352.84 149.62   A 0.33 0.33 0.0 0 1 353.14 149.42   L 376.60 149.44   Z   M 434.44 139.25   A 0.44 0.44 0.0 0 1 434.61 138.41   C 442.96 138.02 450.37 132.40 449.28 123.51   C 448.10 113.79 440.55 111.63 431.47 111.14   Q 416.63 110.34 401.59 110.91   A 0.60 0.60 0.0 0 0 401.01 111.51   L 400.98 159.86   A 0.64 0.64 0.0 0 0 401.62 160.50   L 412.50 160.50   A 0.50 0.50 0.0 0 0 413.00 160.00   L 413.00 140.76   A 0.58 0.57 86.0 0 1 413.49 140.19   C 421.34 139.12 424.68 141.62 429.42 147.33   Q 434.62 153.61 439.72 160.06   A 1.17 1.16 70.7 0 0 440.63 160.50   L 453.47 160.50   Q 454.19 160.50 453.77 159.92   C 448.66 152.71 442.60 143.17 434.44 139.25   Z   M 472.51 111.06   A 0.30 0.30 0.0 0 0 472.21 110.76   L 461.05 110.76   A 0.30 0.30 0.0 0 0 460.75 111.06   L 460.75 160.20   A 0.30 0.30 0.0 0 0 461.05 160.50   L 472.21 160.50   A 0.30 0.30 0.0 0 0 472.51 160.20   L 472.51 111.06   Z   M 501.63 110.75   A 0.31 0.31 0.0 0 0 501.35 110.93   L 478.01 160.06   A 0.31 0.31 0.0 0 0 478.29 160.50   L 490.20 160.50   A 0.31 0.31 0.0 0 0 490.48 160.32   L 495.32 149.42   A 0.31 0.31 0.0 0 1 495.60 149.23   L 518.97 149.42   A 0.31 0.31 0.0 0 1 519.25 149.60   L 524.29 160.32   A 0.31 0.31 0.0 0 0 524.57 160.50   L 536.85 160.50   A 0.31 0.31 0.0 0 0 537.13 160.05   L 513.12 110.92   A 0.31 0.31 0.0 0 0 512.85 110.75   L 501.63 110.75   Z"
       id="path74" />
    <path
       d="   M 431.66 119.29   C 438.43 119.29 439.33 130.83 431.48 131.41   Q 422.63 132.08 413.62 131.63   A 0.65 0.65 0.0 0 1 413.00 130.98   L 413.00 119.63   A 0.51 0.51 0.0 0 1 413.52 119.12   Q 422.65 119.29 431.66 119.29   Z"
       id="path76" />
    <path
       d="   M 177.67 140.82   L 185.30 123.75   A 0.32 0.32 0.0 0 1 185.88 123.75   L 193.63 140.77   A 0.32 0.32 0.0 0 1 193.34 141.22   L 177.97 141.27   A 0.32 0.32 0.0 0 1 177.67 140.82   Z"
       id="path78" />
    <path
       d="   M 356.83 140.81   L 364.46 123.70   A 0.32 0.32 0.0 0 1 365.04 123.70   L 372.73 140.78   A 0.32 0.32 0.0 0 1 372.44 141.23   L 357.12 141.26   A 0.32 0.32 0.0 0 1 356.83 140.81   Z"
       id="path80" />
    <path
       d="   M 499.19 140.82   L 506.83 123.75   A 0.32 0.32 0.0 0 1 507.41 123.75   L 515.17 140.77   A 0.32 0.32 0.0 0 1 514.88 141.22   L 499.49 141.27   A 0.32 0.32 0.0 0 1 499.19 140.82   Z"
       id="path82" />
    <path
       d="   M 167.77 201.75   L 247.15 201.75   A 0.65 0.65 0.0 0 1 247.80 202.40   L 247.64 251.44   A 0.59 0.58 -89.5 0 1 247.06 252.02   L 229.23 252.07   A 0.25 0.25 0.0 0 1 229.01 251.70   C 234.45 241.98 232.34 230.39 219.15 230.59   C 208.13 230.76 193.84 238.53 194.19 251.49   A 0.46 0.46 0.0 0 1 193.74 251.96   L 180.60 252.10   A 0.22 0.22 0.0 0 1 180.38 251.84   Q 182.81 238.61 177.82 226.41   C 168.55 203.78 139.35 199.92 118.21 200.85   Q 116.76 200.91 117.46 199.65   L 130.26 176.70   A 0.88 0.87 -75.3 0 1 131.02 176.25   L 181.24 176.25   A 0.33 0.33 0.0 0 1 181.53 176.75   L 167.49 201.26   A 0.33 0.32 -75.0 0 0 167.77 201.75   Z"
       id="path84" />
    <path
       d="   M 307.91 201.75   L 355.23 201.75   Q 355.78 201.75 355.37 202.12   C 339.42 216.90 326.17 232.31 316.62 251.85   A 0.81 0.81 0.0 0 1 315.22 251.94   C 310.99 245.50 307.05 240.13 298.31 244.07   Q 292.97 246.48 284.87 251.89   A 1.71 1.69 28.6 0 1 283.90 252.17   L 258.05 252.03   A 0.54 0.53 0.0 0 1 257.51 251.50   Q 257.22 227.03 257.08 202.60   Q 257.07 200.56 258.05 198.78   Q 264.15 187.71 270.31 176.68   A 0.84 0.82 -75.0 0 1 271.03 176.25   L 321.12 176.25   A 0.42 0.42 0.0 0 1 321.48 176.88   L 307.59 201.19   A 0.37 0.37 0.0 0 0 307.91 201.75   Z"
       id="path86" />
    <path
       d="   M 447.99 201.76   L 522.48 201.74   Q 522.98 201.74 522.68 202.14   Q 518.79 207.22 514.83 212.06   Q 501.34 228.55 495.74 251.26   Q 495.28 253.13 493.36 252.03   A 1.01 0.99 12.8 0 1 492.87 251.27   Q 492.51 247.18 490.00 244.00   A 0.62 0.62 0.0 0 1 490.06 243.16   C 494.29 239.16 491.72 234.14 487.72 231.06   C 476.40 222.32 461.73 226.74 448.58 231.61   Q 427.96 239.26 409.88 251.80   A 1.61 1.57 26.7 0 1 408.96 252.09   L 398.23 252.19   A 0.72 0.71 -0.0 0 1 397.51 251.48   L 397.17 218.41   A 1.48 1.46 63.6 0 1 397.46 217.53   C 404.32 208.26 414.40 191.98 408.59 180.62   A 0.97 0.95 -44.4 0 1 408.61 179.72   L 410.26 176.71   A 0.91 0.89 -75.0 0 1 411.04 176.25   L 461.25 176.25   A 0.38 0.37 -74.7 0 1 461.57 176.82   L 447.64 201.16   A 0.40 0.40 0.0 0 0 447.99 201.76   Z"
       id="path88" />
    <path
       d="   M 387.23 230.77   A 0.30 0.30 0.0 0 1 387.75 230.97   L 387.75 243.82   A 0.51 0.50 3.5 0 1 387.18 244.32   Q 379.13 243.24 372.30 247.58   A 0.20 0.20 0.0 0 1 372.05 247.28   L 387.23 230.77   Z"
       id="path90" />
    <path
       d="   M 117.78 235.38   C 124.43 235.29 148.86 235.13 152.83 241.04   A 1.41 1.34 31.3 0 1 153.07 241.93   Q 152.62 247.41 149.13 251.65   A 0.93 0.93 0.0 0 1 148.41 251.99   L 118.16 252.03   A 0.63 0.62 89.5 0 1 117.54 251.41   L 117.19 236.00   A 0.61 0.60 89.1 0 1 117.78 235.38   Z"
       id="path92" />
  </g>
  <g
     fill="#000000"
     id="g130">
    <path
       d="   M 98.23 0.00   L 537.81 0.00   L 537.96 93.87   A 0.65 0.65 0.0 0 0 538.61 94.52   L 573.50 94.49   A 0.51 0.50 90.0 0 1 574.00 95.00   L 574.00 175.65   A 0.61 0.61 0.0 0 1 573.35 176.26   L 571.76 176.16   A 0.42 0.42 0.0 0 0 571.32 176.69   C 578.22 203.82 555.14 231.01 538.31 249.32   A 1.19 1.15 -24.5 0 0 538.00 250.11   L 538.00 267.50   A 1.00 1.00 0.0 0 1 537.00 268.50   L 525.46 268.50   A 0.55 0.55 0.0 0 0 524.94 269.23   Q 528.06 278.53 537.41 274.61   Q 545.74 271.12 552.92 265.62   A 1.03 1.02 -19.2 0 0 553.32 264.81   Q 553.49 236.55 568.70 213.92   C 576.75 201.95 607.31 163.11 622.32 164.61   Q 630.68 165.44 631.85 174.95   C 633.93 191.75 625.46 209.22 615.42 222.42   Q 602.09 239.93 585.30 256.64   A 1.56 1.51 -16.5 0 0 584.89 257.37   Q 582.63 266.13 590.09 270.08   A 1.81 1.76 54.4 0 0 591.14 270.27   C 602.35 268.75 614.75 258.70 622.96 250.99   C 627.89 246.35 632.62 246.46 636.19 251.99   C 639.26 256.75 640.81 257.20 636.41 262.06   C 622.22 277.73 602.95 297.20 580.26 297.00   Q 568.45 296.89 560.81 287.75   Q 560.49 287.37 560.38 286.89   C 559.94 285.11 559.15 285.37 558.03 286.37   C 542.99 299.80 515.85 312.71 500.21 292.17   A 0.49 0.48 -38.5 0 0 499.52 292.10   Q 489.00 300.81 477.10 307.51   C 468.20 312.52 454.61 315.19 448.51 304.16   Q 445.58 298.87 446.67 292.16   Q 446.75 291.67 446.38 292.00   Q 433.68 303.23 422.52 309.81   C 411.18 316.49 396.14 304.51 389.91 295.57   A 0.87 0.84 -22.1 0 0 389.05 295.22   L 378.97 297.16   A 1.37 1.34 15.7 0 0 378.20 297.58   C 369.56 306.85 358.28 315.86 345.87 319.68   C 332.73 323.73 321.43 320.73 315.42 307.84   A 0.62 0.62 0.0 0 0 314.42 307.67   C 304.59 317.52 288.04 331.67 272.78 327.48   C 263.09 324.81 257.43 314.34 260.58 304.73   A 0.33 0.33 0.0 0 0 260.01 304.42   Q 254.28 312.02 248.42 319.42   C 240.14 329.86 227.71 333.69 217.47 322.52   A 0.59 0.59 0.0 0 0 216.63 322.48   C 201.12 337.04 172.38 347.95 159.91 322.19   C 150.84 303.47 163.03 281.34 177.91 269.06   A 0.32 0.31 -64.9 0 0 177.71 268.50   L 174.25 268.51   A 1.09 1.07 17.4 0 0 173.37 268.96   C 147.80 304.13 96.05 315.52 55.45 316.44   A 0.91 0.90 13.5 0 0 54.67 316.91   L 51.56 322.65   A 0.72 0.71 36.1 0 0 51.70 323.51   Q 55.99 327.65 53.02 333.05   C 48.98 340.39 41.76 352.97 34.53 357.17   C 25.26 362.56 9.93 358.59 12.47 345.23   C 14.40 335.05 21.32 322.86 26.82 312.95   A 0.76 0.76 0.0 0 0 26.46 311.88   C 14.86 306.88 13.13 293.45 24.08 286.32   Q 35.78 278.70 50.96 274.10   C 51.93 273.81 52.31 273.74 52.94 272.85   Q 64.25 256.86 75.72 241.03   A 0.19 0.19 0.0 0 0 75.54 240.73   C 54.57 244.70 35.26 251.51 15.16 258.33   C 9.36 260.30 1.58 260.56 0.00 252.94   L 0.00 252.44   C 2.32 243.23 9.32 233.40 14.62 226.10   Q 18.07 221.35 23.81 218.90   C 46.70 209.14 72.28 204.24 96.92 201.92   A 1.01 1.00 -2.8 0 0 97.83 200.92   L 97.82 176.57   A 0.32 0.32 0.0 0 0 97.50 176.25   L 67.00 176.25   A 0.50 0.50 0.0 0 1 66.50 175.75   L 66.50 95.00   A 0.51 0.51 0.0 0 1 67.01 94.49   L 97.31 94.52   A 0.51 0.51 0.0 0 0 97.82 94.00   Q 97.33 47.09 98.23 0.00   Z   M 190.31 68.30   L 175.96 94.09   A 0.28 0.28 0.0 0 0 176.21 94.50   L 227.94 94.50   A 0.83 0.82 -74.6 0 0 228.65 94.09   Q 236.44 80.42 244.14 66.69   Q 244.50 66.03 244.49 64.25   Q 244.39 41.04 244.43 17.90   A 0.40 0.40 0.0 0 0 244.03 17.50   L 113.70 17.50   A 0.49 0.49 0.0 0 0 113.21 17.99   L 113.31 67.31   A 0.44 0.44 0.0 0 0 113.75 67.75   L 189.99 67.75   A 0.37 0.37 0.0 0 1 190.31 68.30   Z   M 330.33 68.32   L 316.15 93.88   A 0.42 0.42 0.0 0 0 316.52 94.50   L 367.93 94.50   A 0.97 0.96 -75.0 0 0 368.77 94.01   Q 376.08 81.15 383.44 68.28   Q 384.49 66.45 384.49 64.35   Q 384.51 41.10 384.49 17.95   A 0.45 0.45 0.0 0 0 384.04 17.50   L 253.71 17.50   A 0.53 0.53 0.0 0 0 253.18 18.04   L 253.44 67.22   A 0.54 0.53 89.4 0 0 253.97 67.75   L 330.00 67.75   A 0.38 0.38 0.0 0 1 330.33 68.32   Z   M 470.47 68.19   L 456.13 93.99   A 0.34 0.34 0.0 0 0 456.43 94.50   L 507.96 94.50   A 0.85 0.84 14.3 0 0 508.70 94.07   Q 516.16 81.20 523.48 68.22   Q 524.48 66.44 524.49 64.42   Q 524.55 41.24 524.45 17.99   A 0.49 0.49 0.0 0 0 523.96 17.50   L 393.71 17.50   A 0.53 0.53 0.0 0 0 393.18 18.04   L 393.54 67.27   A 0.48 0.48 0.0 0 0 394.02 67.75   L 470.21 67.75   A 0.30 0.29 14.7 0 1 470.47 68.19   Z   M 565.92 103.07   A 0.32 0.32 0.0 0 0 565.60 102.75   L 74.82 102.75   A 0.32 0.32 0.0 0 0 74.50 103.07   L 74.50 167.69   A 0.32 0.32 0.0 0 0 74.82 168.01   L 565.60 168.01   A 0.32 0.32 0.0 0 0 565.92 167.69   L 565.92 103.07   Z   M 279.51 279.35   C 272.87 290.05 256.05 311.09 271.42 321.78   C 284.86 331.12 308.52 307.33 316.61 298.29   A 0.53 0.53 0.0 0 1 317.52 298.51   C 326.81 335.33 361.84 308.43 374.99 293.52   A 1.26 1.23 16.2 0 1 375.78 293.10   Q 383.98 292.14 391.88 289.73   A 0.66 0.65 -22.4 0 1 392.64 290.04   C 397.34 298.57 410.56 312.09 421.31 305.09   C 433.73 297.01 445.01 286.65 456.49 277.25   Q 456.87 276.94 456.73 277.42   Q 455.14 282.66 453.31 287.81   C 447.54 304.04 459.41 312.76 473.93 304.17   Q 488.54 295.52 501.23 284.10   A 0.59 0.59 0.0 0 1 502.18 284.32   C 508.02 299.26 521.20 301.07 534.51 295.65   C 544.23 291.69 553.03 285.00 560.52 277.37   A 0.58 0.57 57.4 0 1 561.47 277.58   Q 566.55 291.51 579.04 292.59   C 599.71 294.36 621.31 271.39 633.46 257.85   A 0.74 0.73 -42.6 0 0 633.50 256.92   L 629.98 252.24   A 0.65 0.65 0.0 0 0 629.02 252.16   C 620.74 259.99 600.33 277.72 587.68 273.88   C 580.34 271.66 575.48 259.42 581.50 253.38   C 595.47 239.35 609.24 224.17 619.18 206.93   Q 628.12 191.43 625.99 173.76   Q 625.50 169.74 622.01 169.07   C 612.20 167.19 583.89 202.18 577.62 210.13   Q 558.19 234.80 558.93 266.45   A 1.05 1.04 69.5 0 1 558.56 267.27   C 550.22 274.29 525.29 290.68 519.95 270.55   C 518.75 266.03 519.21 262.05 522.62 258.53   C 534.85 245.91 545.20 234.44 555.99 218.78   Q 567.54 202.01 566.95 182.81   C 566.04 153.15 517.24 217.12 514.82 220.59   C 504.46 235.47 498.32 254.02 499.73 272.28   A 1.01 1.00 67.1 0 1 499.40 273.11   C 494.61 277.32 480.34 287.19 473.82 283.44   C 460.97 276.06 502.67 249.79 480.54 243.97   A 0.40 0.40 0.0 0 1 480.52 243.21   Q 484.17 242.04 486.68 239.18   A 1.32 1.31 -41.9 0 0 486.77 237.55   C 480.80 229.11 471.24 229.53 462.49 231.96   C 439.66 238.32 401.83 255.67 392.27 279.27   A 0.98 0.96 -81.8 0 1 391.47 279.88   L 384.90 280.61   Q 384.03 280.70 384.40 279.91   C 387.82 272.56 396.40 257.06 388.56 250.15   C 386.23 248.09 381.55 248.07 379.03 249.26   Q 362.06 257.27 356.11 274.64   C 354.34 279.82 355.49 283.88 359.09 287.64   A 0.61 0.61 0.0 0 1 359.16 288.41   C 355.48 294.00 348.93 300.38 341.65 298.76   C 334.02 297.05 329.69 283.70 334.85 278.07   C 346.59 265.28 418.98 199.95 402.48 181.55   C 394.09 172.19 359.38 205.17 353.48 210.97   C 332.45 231.68 315.05 254.97 315.04 286.07   A 1.19 1.16 -22.2 0 1 314.67 286.92   C 311.26 290.18 295.51 304.23 290.76 298.82   C 285.05 292.31 306.43 271.09 310.76 266.27   C 314.84 261.71 312.21 256.87 309.28 252.43   C 307.15 249.20 305.53 246.22 301.82 247.52   Q 298.82 248.57 293.25 252.20   C 273.99 264.79 256.87 278.90 241.83 296.37   C 240.50 297.91 236.70 301.13 236.05 297.10   A 1.44 1.44 0.0 0 1 236.22 296.16   Q 237.89 293.21 239.46 291.47   Q 247.36 282.73 255.04 273.80   C 257.48 270.98 264.55 261.84 256.58 260.97   C 249.37 260.18 242.03 260.08 237.17 264.66   C 227.12 274.14 218.49 287.58 216.54 301.48   A 1.41 1.38 -17.8 0 1 216.10 302.31   C 210.72 307.15 203.30 311.64 196.04 312.61   C 189.12 313.54 181.18 312.32 182.03 303.09   A 1.16 1.15 73.2 0 1 182.46 302.28   C 191.85 294.69 204.57 283.49 209.01 272.01   C 212.56 262.82 200.85 262.16 195.50 263.95   C 178.36 269.71 160.05 293.03 162.28 311.46   C 163.47 321.24 170.46 332.02 181.01 333.25   C 194.41 334.81 209.28 323.76 218.13 314.54   A 0.37 0.37 0.0 0 1 218.72 314.61   C 232.36 338.27 245.73 314.70 254.37 303.85   Q 265.33 290.08 279.11 278.99   A 0.27 0.27 0.0 0 1 279.51 279.35   Z   M 537.94 183.94   Q 537.65 184.37 537.75 184.97   A 0.36 0.35 -26.2 0 0 538.34 185.17   L 547.64 176.66   A 0.28 0.28 0.0 0 0 547.45 176.18   L 538.51 176.28   A 0.49 0.48 -0.6 0 0 538.03 176.76   Q 538.02 180.40 537.94 183.94   Z   M 167.49 201.26   L 181.53 176.75   A 0.33 0.33 0.0 0 0 181.24 176.25   L 131.02 176.25   A 0.88 0.87 -75.3 0 0 130.26 176.70   L 117.46 199.65   Q 116.76 200.91 118.21 200.85   C 139.35 199.92 168.55 203.78 177.82 226.41   Q 182.81 238.61 180.38 251.84   A 0.22 0.22 0.0 0 0 180.60 252.10   L 193.74 251.96   A 0.46 0.46 0.0 0 0 194.19 251.49   C 193.84 238.53 208.13 230.76 219.15 230.59   C 232.34 230.39 234.45 241.98 229.01 251.70   A 0.25 0.25 0.0 0 0 229.23 252.07   L 247.06 252.02   A 0.59 0.58 -89.5 0 0 247.64 251.44   L 247.80 202.40   A 0.65 0.65 0.0 0 0 247.15 201.75   L 167.77 201.75   A 0.33 0.32 -75.0 0 1 167.49 201.26   Z   M 307.59 201.19   L 321.48 176.88   A 0.42 0.42 0.0 0 0 321.12 176.25   L 271.03 176.25   A 0.84 0.82 -75.0 0 0 270.31 176.68   Q 264.15 187.71 258.05 198.78   Q 257.07 200.56 257.08 202.60   Q 257.22 227.03 257.51 251.50   A 0.54 0.53 -0.0 0 0 258.05 252.03   L 283.90 252.17   A 1.71 1.69 28.6 0 0 284.87 251.89   Q 292.97 246.48 298.31 244.07   C 307.05 240.13 310.99 245.50 315.22 251.94   A 0.81 0.81 0.0 0 0 316.62 251.85   C 326.17 232.31 339.42 216.90 355.37 202.12   Q 355.78 201.75 355.23 201.75   L 307.91 201.75   A 0.37 0.37 0.0 0 1 307.59 201.19   Z   M 447.64 201.16   L 461.57 176.82   A 0.38 0.37 -74.7 0 0 461.25 176.25   L 411.04 176.25   A 0.91 0.89 -75.0 0 0 410.26 176.71   L 408.61 179.72   A 0.97 0.95 -44.4 0 0 408.59 180.62   C 414.40 191.98 404.32 208.26 397.46 217.53   A 1.48 1.46 63.6 0 0 397.17 218.41   L 397.51 251.48   A 0.72 0.71 0.0 0 0 398.23 252.19   L 408.96 252.09   A 1.61 1.57 26.7 0 0 409.88 251.80   Q 427.96 239.26 448.58 231.61   C 461.73 226.74 476.40 222.32 487.72 231.06   C 491.72 234.14 494.29 239.16 490.06 243.16   A 0.62 0.62 0.0 0 0 490.00 244.00   Q 492.51 247.18 492.87 251.27   A 1.01 0.99 12.8 0 0 493.36 252.03   Q 495.28 253.13 495.74 251.26   Q 501.34 228.55 514.83 212.06   Q 518.79 207.22 522.68 202.14   Q 522.98 201.74 522.48 201.74   L 447.99 201.76   A 0.40 0.40 0.0 0 1 447.64 201.16   Z   M 55.80 277.17   C 47.75 280.15 20.88 288.18 22.04 299.26   C 22.62 304.71 28.74 308.60 33.58 310.34   A 0.43 0.42 24.2 0 1 33.81 310.94   C 30.68 316.69 5.71 356.65 25.77 355.29   C 35.32 354.64 44.56 338.13 48.96 329.56   A 1.89 1.89 0.0 0 0 48.19 327.04   L 44.78 325.15   A 0.49 0.48 29.5 0 1 44.59 324.49   L 51.21 312.46   A 0.91 0.88 13.8 0 1 52.00 312.00   Q 85.35 312.01 116.95 301.65   C 144.71 292.55 182.16 269.47 174.84 234.49   C 171.89 220.43 161.22 211.48 148.26 208.24   Q 131.08 203.94 112.18 205.03   C 84.30 206.64 55.99 211.50 29.68 221.06   Q 22.82 223.55 18.83 229.06   C 17.04 231.53 2.58 251.75 6.51 254.54   C 9.58 256.73 29.47 248.73 33.71 247.25   Q 59.08 238.41 85.45 234.92   A 0.42 0.42 0.0 0 1 85.85 235.58   L 56.58 276.58   A 1.72 1.69 7.4 0 1 55.80 277.17   Z   M 387.23 230.77   L 372.05 247.28   A 0.20 0.20 0.0 0 0 372.30 247.58   Q 379.13 243.24 387.18 244.32   A 0.51 0.50 3.5 0 0 387.75 243.82   L 387.75 230.97   A 0.30 0.30 0.0 0 0 387.23 230.77   Z   M 223.58 236.16   C 216.30 231.80 204.24 239.05 200.76 245.76   C 198.29 250.52 199.98 255.86 204.87 257.99   C 211.42 260.85 219.33 256.37 223.26 251.02   C 225.97 247.32 228.83 239.30 223.58 236.16   Z   M 187.40 304.80   C 186.34 310.26 196.47 308.39 199.33 307.31   Q 204.95 305.21 210.80 300.47   A 1.24 1.24 0.0 0 0 211.24 299.75   Q 214.82 282.57 226.20 269.24   A 0.47 0.47 0.0 0 0 225.84 268.46   L 216.06 268.52   A 0.73 0.73 0.0 0 0 215.35 269.09   C 212.16 282.99 198.25 295.94 187.89 304.00   A 1.33 1.30 -14.2 0 0 187.40 304.80   Z   M 342.22 294.03   C 345.21 296.69 350.79 290.96 352.59 288.63   A 0.68 0.68 0.0 0 0 352.61 287.83   C 348.39 281.62 349.72 275.47 352.30 269.41   A 0.71 0.71 0.0 0 0 351.15 268.63   L 338.88 281.02   A 1.77 1.66 75.2 0 0 338.42 281.87   Q 336.85 289.26 342.22 294.03   Z   M 482.55 268.89   Q 479.16 273.26 477.00 278.41   A 1.15 1.15 0.0 0 0 478.44 279.94   C 481.55 278.86 495.90 272.88 493.93 268.94   A 0.80 0.79 76.7 0 0 493.22 268.50   L 483.34 268.50   A 1.00 0.99 -71.1 0 0 482.55 268.89   Z   M 307.79 277.31   Q 300.36 284.51 295.31 293.87   A 0.89 0.89 0.0 0 0 296.62 295.00   L 309.13 285.62   A 1.18 1.18 0.0 0 0 309.59 284.75   L 310.09 275.19   Q 310.11 274.87 309.83 275.04   C 309.09 275.48 308.21 276.90 307.79 277.31   Z"
       id="path96" />
    <path
       d="   M 172.81 35.56   L 172.75 57.11   A 0.64 0.64 0.0 0 1 172.11 57.75   L 167.87 57.75   A 0.62 0.62 0.0 0 1 167.25 57.13   L 167.25 29.13   A 0.63 0.63 0.0 0 1 167.88 28.50   L 175.54 28.50   A 0.72 0.72 0.0 0 1 176.24 29.04   L 181.09 47.49   A 0.37 0.37 0.0 0 0 181.80 47.49   L 186.72 28.92   A 0.57 0.56 7.2 0 1 187.27 28.50   L 194.88 28.50   A 0.63 0.62 90.0 0 1 195.50 29.13   L 195.50 57.25   A 0.50 0.50 0.0 0 1 195.00 57.75   L 190.70 57.75   A 0.49 0.49 0.0 0 1 190.21 57.26   L 189.98 36.27   A 0.30 0.30 0.0 0 0 189.38 36.20   L 184.37 57.14   A 0.79 0.78 6.8 0 1 183.59 57.75   L 179.13 57.75   A 0.76 0.75 84.4 0 1 178.39 57.14   Q 176.27 46.15 172.96 35.53   Q 172.81 35.05 172.81 35.56   Z"
       id="path98" />
    <path
       d="   M 313.68 40.79   L 325.17 40.73   A 0.43 0.43 0.0 0 1 325.60 41.16   L 325.64 45.07   A 0.43 0.43 0.0 0 1 325.21 45.50   L 313.65 45.50   A 0.43 0.43 0.0 0 0 313.22 45.93   L 313.32 57.32   A 0.43 0.43 0.0 0 1 312.89 57.75   L 307.93 57.75   A 0.43 0.43 0.0 0 1 307.50 57.32   L 307.50 28.93   A 0.43 0.43 0.0 0 1 307.93 28.50   L 327.07 28.50   A 0.43 0.43 0.0 0 1 327.50 28.93   L 327.50 32.82   A 0.43 0.43 0.0 0 1 327.07 33.25   L 313.68 33.25   A 0.43 0.43 0.0 0 0 313.25 33.68   L 313.25 40.36   A 0.43 0.43 0.0 0 0 313.68 40.79   Z"
       id="path100" />
    <path
       d="   M 450.42 39.45   L 450.72 57.39   A 0.35 0.35 0.0 0 1 450.37 57.75   L 445.84 57.75   A 0.35 0.35 0.0 0 1 445.49 57.40   L 445.47 28.85   A 0.35 0.35 0.0 0 1 445.82 28.50   L 450.68 28.50   A 0.35 0.35 0.0 0 1 450.98 28.67   L 462.44 47.28   A 0.35 0.35 0.0 0 0 463.09 47.10   L 462.95 28.85   A 0.35 0.35 0.0 0 1 463.30 28.50   L 468.15 28.50   A 0.35 0.35 0.0 0 1 468.50 28.85   L 468.50 57.42   A 0.35 0.35 0.0 0 1 468.14 57.77   L 462.67 57.69   A 0.35 0.35 0.0 0 1 462.38 57.53   L 451.07 39.26   A 0.35 0.35 0.0 0 0 450.42 39.45   Z"
       id="path102" />
    <path
       d="   M 243.81 151.44   Q 256.20 153.24 260.27 141.83   A 0.66 0.65 -73.2 0 1 261.04 141.41   L 271.25 143.96   A 0.58 0.57 16.1 0 1 271.66 144.69   C 264.44 167.47 226.26 164.89 221.06 142.17   C 217.43 126.32 226.08 113.02 242.77 110.74   C 254.77 109.11 267.11 112.48 271.56 124.83   A 0.49 0.49 0.0 0 1 271.17 125.48   L 260.51 127.12   A 0.60 0.59 74.2 0 1 259.86 126.75   Q 257.22 120.06 249.80 119.26   C 237.19 117.89 231.48 126.23 232.78 137.96   C 233.52 144.61 236.59 150.39 243.81 151.44   Z"
       id="path104" />
    <path
       d="   M 283.05 122.82   C 293.14 105.84 323.45 105.22 331.15 124.85   A 0.48 0.47 75.1 0 1 330.78 125.49   L 320.32 127.07   A 0.82 0.81 -17.0 0 1 319.46 126.62   C 315.22 117.96 303.01 116.43 296.20 123.05   C 291.58 127.54 291.39 136.89 293.20 142.77   Q 295.33 149.67 302.96 151.09   Q 315.88 153.50 319.81 141.69   A 0.54 0.54 0.0 0 1 320.45 141.34   L 330.76 143.98   A 0.56 0.55 15.3 0 1 331.16 144.68   C 324.00 167.73 286.60 164.57 280.57 142.49   Q 277.68 131.88 283.05 122.82   Z"
       id="path106" />
    <path
       d="   M 121.48 152.27   L 154.65 152.24   A 0.64 0.64 0.0 0 1 155.29 152.90   L 155.10 159.96   A 0.56 0.56 0.0 0 1 154.54 160.50   L 107.66 160.50   A 0.60 0.60 0.0 0 1 107.06 159.91   L 106.99 151.71   A 1.27 1.27 0.0 0 1 107.35 150.80   L 138.41 119.39   A 0.24 0.23 22.3 0 0 138.24 118.99   L 111.36 119.02   A 0.61 0.61 0.0 0 1 110.75 118.41   L 110.75 111.25   A 0.50 0.50 0.0 0 1 111.25 110.75   L 153.12 110.75   A 0.63 0.62 -0.0 0 1 153.75 111.37   L 153.75 118.50   A 1.40 1.40 0.0 0 1 153.34 119.49   L 121.31 151.87   Q 120.92 152.27 121.48 152.27   Z"
       id="path108" />
    <path
       d="   M 173.73 149.59   L 168.98 160.30   A 0.34 0.34 0.0 0 1 168.67 160.50   L 156.84 160.50   A 0.34 0.34 0.0 0 1 156.53 160.01   L 179.75 110.94   A 0.34 0.34 0.0 0 1 180.06 110.75   L 191.31 110.75   A 0.34 0.34 0.0 0 1 191.61 110.94   L 215.60 160.01   A 0.34 0.34 0.0 0 1 215.30 160.50   L 203.04 160.50   A 0.34 0.34 0.0 0 1 202.73 160.30   L 197.78 149.70   A 0.34 0.34 0.0 0 0 197.47 149.50   L 174.04 149.39   A 0.34 0.34 0.0 0 0 173.73 149.59   Z   M 177.67 140.82   A 0.32 0.32 0.0 0 0 177.97 141.27   L 193.34 141.22   A 0.32 0.32 0.0 0 0 193.63 140.77   L 185.88 123.75   A 0.32 0.32 0.0 0 0 185.30 123.75   L 177.67 140.82   Z"
       id="path110" />
    <path
       d="   M 376.60 149.44   L 353.14 149.42   A 0.33 0.33 0.0 0 0 352.84 149.62   L 348.10 160.30   A 0.33 0.33 0.0 0 1 347.80 160.50   L 335.90 160.50   A 0.33 0.33 0.0 0 1 335.60 160.03   L 358.92 110.94   A 0.33 0.33 0.0 0 1 359.22 110.75   L 370.46 110.75   A 0.33 0.33 0.0 0 1 370.76 110.94   L 394.77 160.03   A 0.33 0.33 0.0 0 1 394.47 160.50   L 382.21 160.50   A 0.33 0.33 0.0 0 1 381.91 160.31   L 376.90 149.63   A 0.33 0.33 0.0 0 0 376.60 149.44   Z   M 356.83 140.81   A 0.32 0.32 0.0 0 0 357.12 141.26   L 372.44 141.23   A 0.32 0.32 0.0 0 0 372.73 140.78   L 365.04 123.70   A 0.32 0.32 0.0 0 0 364.46 123.70   L 356.83 140.81   Z"
       id="path112" />
    <path
       d="   M 434.44 139.25   C 442.60 143.17 448.66 152.71 453.77 159.92   Q 454.19 160.50 453.47 160.50   L 440.63 160.50   A 1.17 1.16 70.7 0 1 439.72 160.06   Q 434.62 153.61 429.42 147.33   C 424.68 141.62 421.34 139.12 413.49 140.19   A 0.58 0.57 86.0 0 0 413.00 140.76   L 413.00 160.00   A 0.50 0.50 0.0 0 1 412.50 160.50   L 401.62 160.50   A 0.64 0.64 0.0 0 1 400.98 159.86   L 401.01 111.51   A 0.60 0.60 0.0 0 1 401.59 110.91   Q 416.63 110.34 431.47 111.14   C 440.55 111.63 448.10 113.79 449.28 123.51   C 450.37 132.40 442.96 138.02 434.61 138.41   A 0.44 0.44 0.0 0 0 434.44 139.25   Z   M 431.48 131.41   C 439.33 130.83 438.43 119.29 431.66 119.29   Q 422.65 119.29 413.52 119.12   A 0.51 0.51 0.0 0 0 413.00 119.63   L 413.00 130.98   A 0.65 0.65 0.0 0 0 413.62 131.63   Q 422.63 132.08 431.48 131.41   Z"
       id="path114" />
    <rect
       x="460.75"
       y="110.76"
       width="11.76"
       height="49.74"
       rx="0.30"
       id="rect116" />
    <path
       d="   M 501.63 110.75   L 512.85 110.75   A 0.31 0.31 0.0 0 1 513.12 110.92   L 537.13 160.05   A 0.31 0.31 0.0 0 1 536.85 160.50   L 524.57 160.50   A 0.31 0.31 0.0 0 1 524.29 160.32   L 519.25 149.60   A 0.31 0.31 0.0 0 0 518.97 149.42   L 495.60 149.23   A 0.31 0.31 0.0 0 0 495.32 149.42   L 490.48 160.32   A 0.31 0.31 0.0 0 1 490.20 160.50   L 478.29 160.50   A 0.31 0.31 0.0 0 1 478.01 160.06   L 501.35 110.93   A 0.31 0.31 0.0 0 1 501.63 110.75   Z   M 499.19 140.82   A 0.32 0.32 0.0 0 0 499.49 141.27   L 514.88 141.22   A 0.32 0.32 0.0 0 0 515.17 140.77   L 507.41 123.75   A 0.32 0.32 0.0 0 0 506.83 123.75   L 499.19 140.82   Z"
       id="path118" />
    <path
       d="   M 582.18 236.33   C 587.16 223.78 596.88 201.18 609.74 193.73   Q 610.18 193.48 610.05 193.97   C 605.94 209.20 593.48 225.48 582.49 236.53   A 0.19 0.19 0.0 0 1 582.18 236.33   Z"
       id="path120" />
    <path
       d="   M 338.88 257.62   C 350.39 234.80 366.94 214.63 386.23 197.77   A 0.31 0.31 0.0 0 1 386.72 198.13   Q 382.03 208.78 374.89 217.90   Q 358.59 238.71 339.47 258.05   A 0.37 0.37 0.0 0 1 338.88 257.62   Z"
       id="path122" />
    <path
       d="   M 523.32 240.80   C 528.45 227.20 537.80 207.39 550.28 199.34   A 0.32 0.32 0.0 0 1 550.76 199.71   C 545.60 215.01 535.10 230.02 524.05 241.27   Q 522.57 242.77 523.32 240.80   Z"
       id="path124" />
    <path
       d="   M 94.49 273.41   A 1.37 1.36 47.9 0 0 94.60 271.19   C 91.90 269.04 81.68 271.89 77.92 272.22   Q 77.42 272.26 77.70 271.85   Q 87.90 256.82 97.92 241.81   C 100.00 238.71 100.56 235.97 100.21 232.44   A 0.69 0.69 0.0 0 1 100.84 231.68   Q 120.27 230.04 139.76 231.82   C 178.23 235.34 147.44 263.75 134.45 271.69   Q 104.59 289.94 69.67 287.78   A 0.57 0.57 0.0 0 1 69.22 286.91   L 72.50 281.58   A 1.37 1.36 -83.7 0 1 73.19 281.02   C 79.97 278.59 88.46 277.25 94.49 273.41   Z   M 152.83 241.04   C 148.86 235.13 124.43 235.29 117.78 235.38   A 0.61 0.60 89.1 0 0 117.19 236.00   L 117.54 251.41   A 0.63 0.62 89.5 0 0 118.16 252.03   L 148.41 251.99   A 0.93 0.93 0.0 0 0 149.13 251.65   Q 152.62 247.41 153.07 241.93   A 1.41 1.34 31.3 0 0 152.83 241.04   Z   M 97.84 255.12   C 97.81 254.26 98.23 253.00 97.88 251.92   Q 97.72 251.42 97.42 251.86   L 87.97 265.78   A 0.32 0.32 0.0 0 0 88.31 266.27   Q 93.03 265.11 97.42 267.19   A 0.37 0.37 0.0 0 0 97.95 266.87   Q 98.06 260.91 97.84 255.12   Z   M 99.78 268.46   A 0.45 0.44 -14.8 0 0 99.39 269.12   C 104.58 278.21 86.02 281.98 80.57 282.78   A 0.30 0.29 -86.8 0 0 80.33 283.00   L 80.23 283.33   A 0.35 0.35 0.0 0 0 80.58 283.78   Q 107.14 282.35 130.04 269.03   A 0.27 0.27 0.0 0 0 129.91 268.52   L 99.78 268.46   Z"
       id="path126" />
    <path
       d="   M 411.96 292.62   A 2.34 2.32 1.0 0 1 410.19 290.80   C 407.91 279.40 419.34 271.56 427.86 266.86   Q 445.82 256.95 465.31 250.30   A 0.22 0.22 0.0 0 1 465.54 250.66   C 457.06 259.63 424.06 295.41 411.96 292.62   Z   M 434.26 268.73   C 427.75 271.73 415.22 279.36 415.19 287.81   A 0.33 0.33 0.0 0 0 415.66 288.11   C 424.35 284.20 433.11 275.73 439.93 269.05   Q 440.29 268.70 439.80 268.62   Q 435.99 267.93 434.26 268.73   Z"
       id="path128" />
  </g>
  <g
     fill="#ff7113"
     id="g138"
     style="fill-opacity:1;fill:url(#linearGradient1045)">
    <path
       d="   M 279.51 279.35   A 0.27 0.27 0.0 0 0 279.11 278.99   Q 265.33 290.08 254.37 303.85   C 245.73 314.70 232.36 338.27 218.72 314.61   A 0.37 0.37 0.0 0 0 218.13 314.54   C 209.28 323.76 194.41 334.81 181.01 333.25   C 170.46 332.02 163.47 321.24 162.28 311.46   C 160.05 293.03 178.36 269.71 195.50 263.95   C 200.85 262.16 212.56 262.82 209.01 272.01   C 204.57 283.49 191.85 294.69 182.46 302.28   A 1.16 1.15 73.2 0 0 182.03 303.09   C 181.18 312.32 189.12 313.54 196.04 312.61   C 203.30 311.64 210.72 307.15 216.10 302.31   A 1.41 1.38 -17.8 0 0 216.54 301.48   C 218.49 287.58 227.12 274.14 237.17 264.66   C 242.03 260.08 249.37 260.18 256.58 260.97   C 264.55 261.84 257.48 270.98 255.04 273.80   Q 247.36 282.73 239.46 291.47   Q 237.89 293.21 236.22 296.16   A 1.44 1.44 0.0 0 0 236.05 297.10   C 236.70 301.13 240.50 297.91 241.83 296.37   C 256.87 278.90 273.99 264.79 293.25 252.20   Q 298.82 248.57 301.82 247.52   C 305.53 246.22 307.15 249.20 309.28 252.43   C 312.21 256.87 314.84 261.71 310.76 266.27   C 306.43 271.09 285.05 292.31 290.76 298.82   C 295.51 304.23 311.26 290.18 314.67 286.92   A 1.19 1.16 -22.2 0 0 315.04 286.07   C 315.05 254.97 332.45 231.68 353.48 210.97   C 359.38 205.17 394.09 172.19 402.48 181.55   C 418.98 199.95 346.59 265.28 334.85 278.07   C 329.69 283.70 334.02 297.05 341.65 298.76   C 348.93 300.38 355.48 294.00 359.16 288.41   A 0.61 0.61 0.0 0 0 359.09 287.64   C 355.49 283.88 354.34 279.82 356.11 274.64   Q 362.06 257.27 379.03 249.26   C 381.55 248.07 386.23 248.09 388.56 250.15   C 396.40 257.06 387.82 272.56 384.40 279.91   Q 384.03 280.70 384.90 280.61   L 391.47 279.88   A 0.98 0.96 -81.8 0 0 392.27 279.27   C 401.83 255.67 439.66 238.32 462.49 231.96   C 471.24 229.53 480.80 229.11 486.77 237.55   A 1.32 1.31 -41.9 0 1 486.68 239.18   Q 484.17 242.04 480.52 243.21   A 0.40 0.40 0.0 0 0 480.54 243.97   C 502.67 249.79 460.97 276.06 473.82 283.44   C 480.34 287.19 494.61 277.32 499.40 273.11   A 1.01 1.00 67.1 0 0 499.73 272.28   C 498.32 254.02 504.46 235.47 514.82 220.59   C 517.24 217.12 566.04 153.15 566.95 182.81   Q 567.54 202.01 555.99 218.78   C 545.20 234.44 534.85 245.91 522.62 258.53   C 519.21 262.05 518.75 266.03 519.95 270.55   C 525.29 290.68 550.22 274.29 558.56 267.27   A 1.05 1.04 69.5 0 0 558.93 266.45   Q 558.19 234.80 577.62 210.13   C 583.89 202.18 612.20 167.19 622.01 169.07   Q 625.50 169.74 625.99 173.76   Q 628.12 191.43 619.18 206.93   C 609.24 224.17 595.47 239.35 581.50 253.38   C 575.48 259.42 580.34 271.66 587.68 273.88   C 600.33 277.72 620.74 259.99 629.02 252.16   A 0.65 0.65 0.0 0 1 629.98 252.24   L 633.50 256.92   A 0.74 0.73 -42.6 0 1 633.46 257.85   C 621.31 271.39 599.71 294.36 579.04 292.59   Q 566.55 291.51 561.47 277.58   A 0.58 0.57 57.4 0 0 560.52 277.37   C 553.03 285.00 544.23 291.69 534.51 295.65   C 521.20 301.07 508.02 299.26 502.18 284.32   A 0.59 0.59 0.0 0 0 501.23 284.10   Q 488.54 295.52 473.93 304.17   C 459.41 312.76 447.54 304.04 453.31 287.81   Q 455.14 282.66 456.73 277.42   Q 456.87 276.94 456.49 277.25   C 445.01 286.65 433.73 297.01 421.31 305.09   C 410.56 312.09 397.34 298.57 392.64 290.04   A 0.66 0.65 -22.4 0 0 391.88 289.73   Q 383.98 292.14 375.78 293.10   A 1.26 1.23 16.2 0 0 374.99 293.52   C 361.84 308.43 326.81 335.33 317.52 298.51   A 0.53 0.53 0.0 0 0 316.61 298.29   C 308.52 307.33 284.86 331.12 271.42 321.78   C 256.05 311.09 272.87 290.05 279.51 279.35   Z   M 609.74 193.73   C 596.88 201.18 587.16 223.78 582.18 236.33   A 0.19 0.19 0.0 0 0 582.49 236.53   C 593.48 225.48 605.94 209.20 610.05 193.97   Q 610.18 193.48 609.74 193.73   Z   M 386.23 197.77   C 366.94 214.63 350.39 234.80 338.88 257.62   A 0.37 0.37 0.0 0 0 339.47 258.05   Q 358.59 238.71 374.89 217.90   Q 382.03 208.78 386.72 198.13   A 0.31 0.31 0.0 0 0 386.23 197.77   Z   M 550.28 199.34   C 537.80 207.39 528.45 227.20 523.32 240.80   Q 522.57 242.77 524.05 241.27   C 535.10 230.02 545.60 215.01 550.76 199.71   A 0.32 0.32 0.0 0 0 550.28 199.34   Z   M 411.96 292.62   C 424.06 295.41 457.06 259.63 465.54 250.66   A 0.22 0.22 0.0 0 0 465.31 250.30   Q 445.82 256.95 427.86 266.86   C 419.34 271.56 407.91 279.40 410.19 290.80   A 2.34 2.32 1.0 0 0 411.96 292.62   Z"
       id="path132"
       style="fill-opacity:1;fill:url(#linearGradient1045)" />
    <path
       d="   M 56.58 276.58   L 85.85 235.58   A 0.42 0.42 0.0 0 0 85.45 234.92   Q 59.08 238.41 33.71 247.25   C 29.47 248.73 9.58 256.73 6.51 254.54   C 2.58 251.75 17.04 231.53 18.83 229.06   Q 22.82 223.55 29.68 221.06   C 55.99 211.50 84.30 206.64 112.18 205.03   Q 131.08 203.94 148.26 208.24   C 161.22 211.48 171.89 220.43 174.84 234.49   C 182.16 269.47 144.71 292.55 116.95 301.65   Q 85.35 312.01 52.00 312.00   A 0.91 0.88 13.8 0 0 51.21 312.46   L 44.59 324.49   A 0.49 0.48 29.5 0 0 44.78 325.15   L 48.19 327.04   A 1.89 1.89 0.0 0 1 48.96 329.56   C 44.56 338.13 35.32 354.64 25.77 355.29   C 5.71 356.65 30.68 316.69 33.81 310.94   A 0.43 0.42 24.2 0 0 33.58 310.34   C 28.74 308.60 22.62 304.71 22.04 299.26   C 20.88 288.18 47.75 280.15 55.80 277.17   A 1.72 1.69 7.4 0 0 56.58 276.58   Z   M 94.49 273.41   C 88.46 277.25 79.97 278.59 73.19 281.02   A 1.37 1.36 -83.7 0 0 72.50 281.58   L 69.22 286.91   A 0.57 0.57 0.0 0 0 69.67 287.78   Q 104.59 289.94 134.45 271.69   C 147.44 263.75 178.23 235.34 139.76 231.82   Q 120.27 230.04 100.84 231.68   A 0.69 0.69 0.0 0 0 100.21 232.44   C 100.56 235.97 100.00 238.71 97.92 241.81   Q 87.90 256.82 77.70 271.85   Q 77.42 272.26 77.92 272.22   C 81.68 271.89 91.90 269.04 94.60 271.19   A 1.37 1.36 47.9 0 1 94.49 273.41   Z"
       id="path134"
       style="fill-opacity:1;fill:url(#linearGradient1045)" />
    <path
       d="   M 223.58 236.16   C 228.83 239.30 225.97 247.32 223.26 251.02   C 219.33 256.37 211.42 260.85 204.87 257.99   C 199.98 255.86 198.29 250.52 200.76 245.76   C 204.24 239.05 216.30 231.80 223.58 236.16   Z"
       id="path136"
       style="fill-opacity:1;fill:url(#linearGradient1045)" />
  </g>
</svg>
