<?xml version="1.0" encoding="UTF-8" standalone="no"?>
<!-- Created by ERK -->

<svg
   version="1.1"
   viewBox="0 0 800 480"
   id="svg140"
   sodipodi:docname="zaccariapinball.svg"
   inkscape:version="1.3.2 (091e20e, 2023-11-25, custom)"
   width="800"
   height="480"
   xmlns:inkscape="http://www.inkscape.org/namespaces/inkscape"
   xmlns:sodipodi="http://sodipodi.sourceforge.net/DTD/sodipodi-0.dtd"
   xmlns:xlink="http://www.w3.org/1999/xlink"
   xmlns="http://www.w3.org/2000/svg"
   xmlns:svg="http://www.w3.org/2000/svg">
  <defs
     id="defs144">
    <linearGradient
       inkscape:collect="always"
       id="linearGradient977">
      <stop
         style="stop-color:#ff7113;stop-opacity:1;"
         offset="0"
         id="stop973" />
      <stop
         style="stop-color:#ffff00;stop-opacity:1"
         offset="1"
         id="stop975" />
    </linearGradient>
    <linearGradient
       inkscape:collect="always"
       xlink:href="#linearGradient977"
       id="linearGradient1045"
       gradientUnits="userSpaceOnUse"
       x1="312.70639"
       y1="170.39503"
       x2="312.70639"
       y2="354.71167" />
    <linearGradient
       inkscape:collect="always"
       xlink:href="#linearGradient977"
       id="linearGradient1"
       gradientUnits="userSpaceOnUse"
       x1="312.70639"
       y1="170.39503"
       x2="312.70639"
       y2="354.71167" />
    <linearGradient
       inkscape:collect="always"
       xlink:href="#linearGradient977"
       id="linearGradient2"
       gradientUnits="userSpaceOnUse"
       x1="312.70639"
       y1="170.39503"
       x2="312.70639"
       y2="354.71167" />
    <linearGradient
       inkscape:collect="always"
       xlink:href="#linearGradient977"
       id="linearGradient3"
       gradientUnits="userSpaceOnUse"
       x1="312.70639"
       y1="170.39503"
       x2="312.70639"
       y2="354.71167" />
  </defs>
  <sodipodi:namedview
     id="namedview142"
     pagecolor="#ffffff"
     bordercolor="#666666"
     borderopacity="1.0"
     inkscape:pageshadow="2"
     inkscape:pageopacity="0.0"
     inkscape:pagecheckerboard="true"
     showgrid="false"
     inkscape:zoom="2.5732586"
     inkscape:cx="320.21655"
     inkscape:cy="301.75747"
     inkscape:window-width="2560"
     inkscape:window-height="1351"
     inkscape:window-x="-9"
     inkscape:window-y="-9"
     inkscape:window-maximized="1"
     inkscape:current-layer="svg140"
     inkscape:showpageshadow="2"
     inkscape:deskcolor="#d1d1d1" />
  <g
     id="g2"
     inkscape:label="logo"
     transform="translate(40.000002,54.999589)">
    <g
       fill="#f9ef00"
       id="g94"
       style="display:inline"
       inkscape:label="ZZZ-Fill"
       transform="translate(40.430153,30.251411)">
      <path
         d="m 189.99,67.75 h -76.24 a 0.44,0.44 0 0 1 -0.44,-0.44 l -0.1,-49.32 a 0.49,0.49 0 0 1 0.49,-0.49 h 130.33 a 0.4,0.4 0 0 1 0.4,0.4 q -0.04,23.14 0.06,46.35 0.01,1.78 -0.35,2.44 -7.7,13.73 -15.49,27.4 a 0.83,0.82 -74.6 0 1 -0.71,0.41 h -51.73 a 0.28,0.28 0 0 1 -0.25,-0.41 L 190.31,68.3 a 0.37,0.37 0 0 0 -0.32,-0.55 z M 172.96,35.53 q 3.31,10.62 5.43,21.61 a 0.76,0.75 84.4 0 0 0.74,0.61 h 4.46 a 0.79,0.78 6.8 0 0 0.78,-0.61 l 5.01,-20.94 a 0.30203477,0.30203477 0 0 1 0.6,0.07 l 0.23,20.99 a 0.49,0.49 0 0 0 0.49,0.49 h 4.3 a 0.5,0.5 0 0 0 0.5,-0.5 V 29.13 a 0.63,0.62 -90 0 0 -0.62,-0.63 h -7.61 a 0.57,0.56 7.2 0 0 -0.55,0.42 l -4.92,18.57 a 0.37,0.37 0 0 1 -0.71,0 l -4.85,-18.45 a 0.72,0.72 0 0 0 -0.7,-0.54 h -7.66 a 0.63,0.63 0 0 0 -0.63,0.63 v 28 a 0.62,0.62 0 0 0 0.62,0.62 h 4.24 a 0.64,0.64 0 0 0 0.64,-0.64 l 0.06,-21.55 q 0,-0.51 0.15,-0.03 z"
         id="path68"
         style="display:inline"
         inkscape:label="Z1" />
      <path
         d="m 117.78,235.38 c 6.65,-0.09 31.08,-0.25 35.05,5.66 a 1.41,1.34 31.3 0 1 0.24,0.89 q -0.45,5.48 -3.94,9.72 a 0.93,0.93 0 0 1 -0.72,0.34 l -30.25,0.04 a 0.63,0.62 89.5 0 1 -0.62,-0.62 L 117.19,236 a 0.61,0.6 89.1 0 1 0.59,-0.62 z"
         id="path92"
         inkscape:label="Z1"
         style="display:inline" />
      <path
         d="m 167.77,201.75 h 79.38 a 0.65,0.65 0 0 1 0.65,0.65 l -0.16,49.04 a 0.59,0.58 -89.5 0 1 -0.58,0.58 l -17.83,0.05 a 0.25,0.25 0 0 1 -0.22,-0.37 c 5.44,-9.72 3.33,-21.31 -9.86,-21.11 -11.02,0.17 -25.31,7.94 -24.96,20.9 a 0.46,0.46 0 0 1 -0.45,0.47 l -13.14,0.14 a 0.22,0.22 0 0 1 -0.22,-0.26 q 2.43,-13.23 -2.56,-25.43 c -9.27,-22.63 -38.47,-26.49 -59.61,-25.56 q -1.45,0.06 -0.75,-1.2 l 12.8,-22.95 a 0.88,0.87 -75.3 0 1 0.76,-0.45 h 50.22 a 0.33,0.33 0 0 1 0.29,0.5 l -14.04,24.51 a 0.33,0.32 -75 0 0 0.28,0.49 z"
         id="path84"
         inkscape:label="Z1"
         style="display:inline" />
      <path
         d="m 330,67.75 h -76.03 a 0.54,0.53 89.4 0 1 -0.53,-0.53 l -0.26,-49.18 a 0.53,0.53 0 0 1 0.53,-0.54 h 130.33 a 0.45,0.45 0 0 1 0.45,0.45 q 0.02,23.15 0,46.4 0,2.1 -1.05,3.93 -7.36,12.87 -14.67,25.73 a 0.97,0.96 -75 0 1 -0.84,0.49 h -51.41 a 0.42,0.42 0 0 1 -0.37,-0.62 L 330.33,68.32 A 0.38,0.38 0 0 0 330,67.75 Z M 313.68,40.79 a 0.43,0.43 0 0 1 -0.43,-0.43 v -6.68 a 0.43,0.43 0 0 1 0.43,-0.43 h 13.39 a 0.43,0.43 0 0 0 0.43,-0.43 v -3.89 a 0.43,0.43 0 0 0 -0.43,-0.43 h -19.14 a 0.43,0.43 0 0 0 -0.43,0.43 v 28.39 a 0.43,0.43 0 0 0 0.43,0.43 h 4.96 a 0.43,0.43 0 0 0 0.43,-0.43 l -0.1,-11.39 a 0.43,0.43 0 0 1 0.43,-0.43 h 11.56 a 0.43,0.43 0 0 0 0.43,-0.43 l -0.04,-3.91 a 0.43,0.43 0 0 0 -0.43,-0.43 z"
         id="path70"
         inkscape:label="Z2" />
      <path
         d="m 307.91,201.75 h 47.32 q 0.55,0 0.14,0.37 c -15.95,14.78 -29.2,30.19 -38.75,49.73 a 0.81,0.81 0 0 1 -1.4,0.09 c -4.23,-6.44 -8.17,-11.81 -16.91,-7.87 q -5.34,2.41 -13.44,7.82 a 1.71,1.69 28.6 0 1 -0.97,0.28 l -25.85,-0.14 a 0.54,0.53 0 0 1 -0.54,-0.53 q -0.29,-24.47 -0.43,-48.9 -0.01,-2.04 0.97,-3.82 6.1,-11.07 12.26,-22.1 a 0.84,0.82 -75 0 1 0.72,-0.43 h 50.09 a 0.42,0.42 0 0 1 0.36,0.63 l -13.89,24.31 a 0.37,0.37 0 0 0 0.32,0.56 z"
         id="path86"
         inkscape:label="Z2"
         style="display:inline" />
      <path
         d="m 387.23,230.77 a 0.3,0.3 0 0 1 0.52,0.2 v 12.85 a 0.51,0.5 3.5 0 1 -0.57,0.5 q -8.05,-1.08 -14.88,3.26 a 0.2,0.2 0 0 1 -0.25,-0.3 z"
         id="path90"
         inkscape:label="Z2"
         style="display:inline" />
      <path
         d="m 470.21,67.75 h -76.19 a 0.48,0.48 0 0 1 -0.48,-0.48 l -0.36,-49.23 a 0.53,0.53 0 0 1 0.53,-0.54 h 130.25 a 0.49,0.49 0 0 1 0.49,0.49 q 0.1,23.25 0.04,46.43 -0.01,2.02 -1.01,3.8 -7.32,12.98 -14.78,25.85 a 0.85,0.84 14.3 0 1 -0.74,0.43 h -51.53 a 0.34,0.34 0 0 1 -0.3,-0.51 l 14.34,-25.8 a 0.3,0.29 14.7 0 0 -0.26,-0.44 z m -19.79,-28.3 a 0.35,0.35 0 0 1 0.65,-0.19 l 11.31,18.27 a 0.35,0.35 0 0 0 0.29,0.16 l 5.47,0.08 a 0.35,0.35 0 0 0 0.36,-0.35 V 28.85 a 0.35,0.35 0 0 0 -0.35,-0.35 h -4.85 a 0.35,0.35 0 0 0 -0.35,0.35 l 0.14,18.25 a 0.35,0.35 0 0 1 -0.65,0.18 L 450.98,28.67 a 0.35,0.35 0 0 0 -0.3,-0.17 h -4.86 a 0.35,0.35 0 0 0 -0.35,0.35 l 0.02,28.55 a 0.35,0.35 0 0 0 0.35,0.35 h 4.53 a 0.35,0.35 0 0 0 0.35,-0.36 z"
         id="path72"
         inkscape:label="Z3" />
      <path
         d="m 447.99,201.76 74.49,-0.02 q 0.5,0 0.2,0.4 -3.89,5.08 -7.85,9.92 -13.49,16.49 -19.09,39.2 -0.46,1.87 -2.38,0.77 a 1.01,0.99 12.8 0 1 -0.49,-0.76 Q 492.51,247.18 490,244 a 0.62,0.62 0 0 1 0.06,-0.84 c 4.23,-4 1.66,-9.02 -2.34,-12.1 -11.32,-8.74 -25.99,-4.32 -39.14,0.55 q -20.62,7.65 -38.7,20.19 a 1.61,1.57 26.7 0 1 -0.92,0.29 l -10.73,0.1 a 0.72,0.71 0 0 1 -0.72,-0.71 l -0.34,-33.07 a 1.48,1.46 63.6 0 1 0.29,-0.88 c 6.86,-9.27 16.94,-25.55 11.13,-36.91 a 0.97,0.95 -44.4 0 1 0.02,-0.9 l 1.65,-3.01 a 0.91,0.89 -75 0 1 0.78,-0.46 h 50.21 a 0.38,0.37 -74.7 0 1 0.32,0.57 l -13.93,24.34 a 0.4,0.4 0 0 0 0.35,0.6 z"
         id="path88"
         inkscape:label="Z3"
         style="display:inline" />
      <path
         d="m 565.92,167.69 a 0.32,0.32 0 0 1 -0.32,0.32 H 74.82 a 0.32,0.32 0 0 1 -0.32,-0.32 v -64.62 a 0.32,0.32 0 0 1 0.32,-0.32 H 565.6 a 0.32,0.32 0 0 1 0.32,0.32 z M 243.81,151.44 c -7.22,-1.05 -10.29,-6.83 -11.03,-13.48 -1.3,-11.73 4.41,-20.07 17.02,-18.7 q 7.42,0.8 10.06,7.49 a 0.6,0.59 74.2 0 0 0.65,0.37 l 10.66,-1.64 a 0.49,0.49 0 0 0 0.39,-0.65 c -4.45,-12.35 -16.79,-15.72 -28.79,-14.09 -16.69,2.28 -25.34,15.58 -21.71,31.43 5.2,22.72 43.38,25.3 50.6,2.52 a 0.58,0.57 16.1 0 0 -0.41,-0.73 l -10.21,-2.55 a 0.66,0.65 -73.2 0 0 -0.77,0.42 q -4.07,11.41 -16.46,9.61 z m 39.24,-28.62 q -5.37,9.06 -2.48,19.67 c 6.03,22.08 43.43,25.24 50.59,2.19 a 0.56,0.55 15.3 0 0 -0.4,-0.7 l -10.31,-2.64 a 0.54,0.54 0 0 0 -0.64,0.35 q -3.93,11.81 -16.85,9.4 -7.63,-1.42 -9.76,-8.32 c -1.81,-5.88 -1.62,-15.23 3,-19.72 6.81,-6.62 19.02,-5.09 23.26,3.57 a 0.82,0.81 -17 0 0 0.86,0.45 l 10.46,-1.58 a 0.48,0.47 75.1 0 0 0.37,-0.64 c -7.7,-19.63 -38.01,-19.01 -48.1,-2.03 z m -161.74,29.05 32.03,-32.38 a 1.4,1.4 0 0 0 0.41,-0.99 v -7.13 a 0.63,0.62 0 0 0 -0.63,-0.62 h -41.87 a 0.5,0.5 0 0 0 -0.5,0.5 v 7.16 a 0.61,0.61 0 0 0 0.61,0.61 l 26.88,-0.03 a 0.24,0.23 22.3 0 1 0.17,0.4 l -31.06,31.41 a 1.27,1.27 0 0 0 -0.36,0.91 l 0.07,8.2 a 0.6,0.6 0 0 0 0.6,0.59 h 46.88 a 0.56,0.56 0 0 0 0.56,-0.54 l 0.19,-7.06 a 0.64,0.64 0 0 0 -0.64,-0.66 l -33.17,0.03 q -0.56,0 -0.17,-0.4 z m 52.42,-2.28 a 0.34,0.34 0 0 1 0.31,-0.2 l 23.43,0.11 a 0.34,0.34 0 0 1 0.31,0.2 l 4.95,10.6 a 0.34,0.34 0 0 0 0.31,0.2 h 12.26 a 0.34,0.34 0 0 0 0.3,-0.49 l -23.99,-49.07 a 0.34,0.34 0 0 0 -0.3,-0.19 h -11.25 a 0.34,0.34 0 0 0 -0.31,0.19 l -23.22,49.07 a 0.34,0.34 0 0 0 0.31,0.49 h 11.83 a 0.34,0.34 0 0 0 0.31,-0.2 z m 202.87,-0.15 a 0.33,0.33 0 0 1 0.3,0.19 l 5.01,10.68 a 0.33,0.33 0 0 0 0.3,0.19 h 12.26 a 0.33,0.33 0 0 0 0.3,-0.47 l -24.01,-49.09 a 0.33,0.33 0 0 0 -0.3,-0.19 h -11.24 a 0.33,0.33 0 0 0 -0.3,0.19 l -23.32,49.09 a 0.33,0.33 0 0 0 0.3,0.47 h 11.9 a 0.33,0.33 0 0 0 0.3,-0.2 l 4.74,-10.68 a 0.33,0.33 0 0 1 0.3,-0.2 z m 57.84,-10.19 a 0.44,0.44 0 0 1 0.17,-0.84 c 8.35,-0.39 15.76,-6.01 14.67,-14.9 -1.18,-9.72 -8.73,-11.88 -17.81,-12.37 q -14.84,-0.8 -29.88,-0.23 a 0.6,0.6 0 0 0 -0.58,0.6 l -0.03,48.35 a 0.64,0.64 0 0 0 0.64,0.64 H 412.5 A 0.5,0.5 0 0 0 413,160 v -19.24 a 0.58,0.57 86 0 1 0.49,-0.57 c 7.85,-1.07 11.19,1.43 15.93,7.14 q 5.2,6.28 10.3,12.73 a 1.17,1.16 70.7 0 0 0.91,0.44 h 12.84 q 0.72,0 0.3,-0.58 c -5.11,-7.21 -11.17,-16.75 -19.33,-20.67 z m 38.07,-28.19 a 0.3,0.3 0 0 0 -0.3,-0.3 h -11.16 a 0.3,0.3 0 0 0 -0.3,0.3 v 49.14 a 0.3,0.3 0 0 0 0.3,0.3 h 11.16 a 0.3,0.3 0 0 0 0.3,-0.3 z m 29.12,-0.31 a 0.31,0.31 0 0 0 -0.28,0.18 l -23.34,49.13 a 0.31,0.31 0 0 0 0.28,0.44 h 11.91 a 0.31,0.31 0 0 0 0.28,-0.18 l 4.84,-10.9 a 0.31,0.31 0 0 1 0.28,-0.19 l 23.37,0.19 a 0.31,0.31 0 0 1 0.28,0.18 l 5.04,10.72 a 0.31,0.31 0 0 0 0.28,0.18 h 12.28 a 0.31,0.31 0 0 0 0.28,-0.45 l -24.01,-49.13 a 0.31,0.31 0 0 0 -0.27,-0.17 z"
         id="path74"
         inkscape:label="Bar" />
      <path
         d="m 177.67,140.82 7.63,-17.07 a 0.32,0.32 0 0 1 0.58,0 l 7.75,17.02 a 0.32,0.32 0 0 1 -0.29,0.45 l -15.37,0.05 a 0.32,0.32 0 0 1 -0.3,-0.45 z"
         id="path78"
         inkscape:label="A"
         style="display:inline" />
      <path
         d="m 356.83,140.81 7.63,-17.11 a 0.32,0.32 0 0 1 0.58,0 l 7.69,17.08 a 0.32,0.32 0 0 1 -0.29,0.45 l -15.32,0.03 a 0.32,0.32 0 0 1 -0.29,-0.45 z"
         id="path80"
         inkscape:label="A"
         style="display:inline" />
      <path
         d="m 431.66,119.29 c 6.77,0 7.67,11.54 -0.18,12.12 q -8.85,0.67 -17.86,0.22 A 0.65,0.65 0 0 1 413,130.98 v -11.35 a 0.51,0.51 0 0 1 0.52,-0.51 q 9.13,0.17 18.14,0.17 z"
         id="path76"
         inkscape:label="R" />
      <path
         d="m 499.19,140.82 7.64,-17.07 a 0.32,0.32 0 0 1 0.58,0 l 7.76,17.02 a 0.32,0.32 0 0 1 -0.29,0.45 l -15.39,0.05 a 0.32,0.32 0 0 1 -0.3,-0.45 z"
         id="path82"
         inkscape:label="A" />
    </g>
    <path
       d="m 138.66015,30.251411 h 439.58 l 0.15,93.869999 a 0.65,0.65 0 0 0 0.65,0.65 l 34.89,-0.03 a 0.5,0.51 0 0 1 0.5,0.51 v 80.65 a 0.61,0.61 0 0 1 -0.65,0.61 l -1.59,-0.1 a 0.42,0.42 0 0 0 -0.44,0.53 c 6.9,27.13 -16.18,54.32 -33.01,72.63 a 1.15,1.19 65.5 0 0 -0.31,0.79 v 17.39 a 1,1 0 0 1 -1,1 h -11.54 a 0.55,0.55 0 0 0 -0.52,0.73 q 3.12,9.3 12.47,5.38 8.33,-3.49 15.51,-8.99 a 1.02,1.03 70.8 0 0 0.4,-0.81 q 0.17,-28.26 15.38,-50.89 c 8.05,-11.97 38.61,-50.81 53.62,-49.31 q 8.36,0.83 9.53,10.34 c 2.08,16.8 -6.39,34.27 -16.43,47.47 q -13.33,17.51 -30.12,34.22 a 1.51,1.56 73.5 0 0 -0.41,0.73 q -2.26,8.76 5.2,12.71 a 1.81,1.76 54.4 0 0 1.05,0.19 c 11.21,-1.52 23.61,-11.57 31.82,-19.28 4.93,-4.64 9.66,-4.53 13.23,1 3.07,4.76 4.62,5.21 0.22,10.07 -14.19,15.67 -33.46,35.14 -56.15,34.94 q -11.81,-0.11 -19.45,-9.25 -0.32,-0.38 -0.43,-0.86 c -0.44,-1.78 -1.23,-1.52 -2.35,-0.52 -15.04,13.43 -42.18,26.34 -57.82,5.8 a 0.48,0.49 51.5 0 0 -0.69,-0.07 q -10.52,8.71 -22.42,15.41 c -8.9,5.01 -22.49,7.68 -28.59,-3.35 q -2.93,-5.29 -1.84,-12 0.08,-0.49 -0.29,-0.16 -12.7,11.23 -23.86,17.81 c -11.34,6.68 -26.38,-5.3 -32.61,-14.24 a 0.84,0.87 67.9 0 0 -0.86,-0.35 l -10.08,1.94 a 1.37,1.34 15.7 0 0 -0.77,0.42 c -8.64,9.27 -19.92,18.28 -32.33,22.1 -13.14,4.05 -24.44,1.05 -30.45,-11.84 a 0.62,0.62 0 0 0 -1,-0.17 c -9.83,9.85 -26.38,24 -41.64,19.81 -9.69,-2.67 -15.35,-13.14 -12.2,-22.75 a 0.33,0.33 0 0 0 -0.57,-0.31 q -5.73,7.6 -11.59,15 c -8.28,10.44 -20.71,14.27 -30.95,3.1 a 0.59,0.59 0 0 0 -0.84,-0.04 c -15.51,14.56 -44.25,25.47 -56.72,-0.29 -9.07,-18.72 3.12,-40.85 18,-53.13 a 0.31,0.32 25.1 0 0 -0.2,-0.56 l -3.46,0.01 a 1.09,1.07 17.4 0 0 -0.88,0.45 c -25.57,35.17 -77.32,46.56 -117.919997,47.48 a 0.91,0.9 13.5 0 0 -0.78,0.47 l -3.11,5.74 a 0.72,0.71 36.1 0 0 0.14,0.86 q 4.29,4.14 1.32,9.54 c -4.04,7.34 -11.26,19.92 -18.49,24.12 -9.27,5.39 -24.6,1.42 -22.06,-11.94 1.93,-10.18 8.85,-22.37 14.35,-32.28 a 0.76,0.76 0 0 0 -0.36,-1.07 c -11.6,-5 -13.33,-18.43 -2.38,-25.56 q 11.7,-7.62 26.88,-12.22 c 0.97,-0.29 1.35,-0.36 1.98,-1.25 q 11.309997,-15.99 22.779997,-31.82 a 0.19,0.19 0 0 0 -0.18,-0.3 c -20.969997,3.97 -40.279997,10.78 -60.379997,17.6 -5.8,1.97 -13.58,2.23 -15.16,-5.39 v -0.5 c 2.32,-9.21 9.32,-19.04 14.62,-26.34 q 3.45,-4.75 9.19,-7.2 c 22.89,-9.76 48.469997,-14.66 73.109997,-16.98 a 1,1.01 87.2 0 0 0.91,-1 l -0.01,-24.35 a 0.32,0.32 0 0 0 -0.32,-0.32 h -30.5 a 0.5,0.5 0 0 1 -0.5,-0.5 v -80.75 a 0.51,0.51 0 0 1 0.51,-0.51 l 30.3,0.03 a 0.51,0.51 0 0 0 0.51,-0.52 q -0.49,-46.909999 0.41,-93.999999 z m 92.08,68.3 -14.35,25.789999 a 0.28,0.28 0 0 0 0.25,0.41 h 51.73 a 0.82,0.83 15.4 0 0 0.71,-0.41 q 7.79,-13.67 15.49,-27.399999 0.36,-0.66 0.35,-2.44 -0.1,-23.21 -0.06,-46.35 a 0.4,0.4 0 0 0 -0.4,-0.4 h -130.33 a 0.49,0.49 0 0 0 -0.49,0.49 l 0.1,49.32 a 0.44,0.44 0 0 0 0.44,0.44 h 76.24 a 0.37,0.37 0 0 1 0.32,0.55 z m 140.02,0.02 -14.18,25.559999 a 0.42,0.42 0 0 0 0.37,0.62 h 51.41 a 0.96,0.97 15 0 0 0.84,-0.49 q 7.31,-12.86 14.67,-25.729999 1.05,-1.83 1.05,-3.93 0.02,-23.25 0,-46.4 a 0.45,0.45 0 0 0 -0.45,-0.45 h -130.33 a 0.53,0.53 0 0 0 -0.53,0.54 l 0.26,49.18 a 0.54,0.53 89.4 0 0 0.53,0.53 h 76.03 a 0.38,0.38 0 0 1 0.33,0.57 z m 140.14,-0.13 -14.34,25.799999 a 0.34,0.34 0 0 0 0.3,0.51 h 51.53 a 0.85,0.84 14.3 0 0 0.74,-0.43 q 7.46,-12.87 14.78,-25.849999 1,-1.78 1.01,-3.8 0.06,-23.18 -0.04,-46.43 a 0.49,0.49 0 0 0 -0.49,-0.49 h -130.25 a 0.53,0.53 0 0 0 -0.53,0.54 l 0.36,49.23 a 0.48,0.48 0 0 0 0.48,0.48 h 76.19 a 0.3,0.29 14.7 0 1 0.26,0.44 z m 95.45,34.879999 a 0.32,0.32 0 0 0 -0.32,-0.32 h -490.78 a 0.32,0.32 0 0 0 -0.32,0.32 v 64.62 a 0.32,0.32 0 0 0 0.32,0.32 h 490.78 a 0.32,0.32 0 0 0 0.32,-0.32 z m -286.41,176.28 c -6.64,10.7 -23.46,31.74 -8.09,42.43 13.44,9.34 37.1,-14.45 45.19,-23.49 a 0.53,0.53 0 0 1 0.91,0.22 c 9.29,36.82 44.32,9.92 57.47,-4.99 a 1.26,1.23 16.2 0 1 0.79,-0.42 q 8.2,-0.96 16.1,-3.37 a 0.65,0.66 67.6 0 1 0.76,0.31 c 4.7,8.53 17.92,22.05 28.67,15.05 12.42,-8.08 23.7,-18.44 35.18,-27.84 q 0.38,-0.31 0.24,0.17 -1.59,5.24 -3.42,10.39 c -5.77,16.23 6.1,24.95 20.62,16.36 q 14.61,-8.65 27.3,-20.07 a 0.59,0.59 0 0 1 0.95,0.22 c 5.84,14.94 19.02,16.75 32.33,11.33 9.72,-3.96 18.52,-10.65 26.01,-18.28 a 0.58,0.57 57.4 0 1 0.95,0.21 q 5.08,13.93 17.57,15.01 c 20.67,1.77 42.27,-21.2 54.42,-34.74 a 0.73,0.74 47.4 0 0 0.04,-0.93 l -3.52,-4.68 a 0.65,0.65 0 0 0 -0.96,-0.08 c -8.28,7.83 -28.69,25.56 -41.34,21.72 -7.34,-2.22 -12.2,-14.46 -6.18,-20.5 13.97,-14.03 27.74,-29.21 37.68,-46.45 q 8.94,-15.5 6.81,-33.17 -0.49,-4.02 -3.98,-4.69 c -9.81,-1.88 -38.12,33.11 -44.39,41.06 q -19.43,24.67 -18.69,56.32 a 1.05,1.04 69.5 0 1 -0.37,0.82 c -8.34,7.02 -33.27,23.41 -38.61,3.28 -1.2,-4.52 -0.74,-8.5 2.67,-12.02 12.23,-12.62 22.58,-24.09 33.37,-39.75 q 11.55,-16.77 10.96,-35.97 c -0.91,-29.66 -49.71,34.31 -52.13,37.78 -10.36,14.88 -16.5,33.43 -15.09,51.69 a 1.01,1 67.1 0 1 -0.33,0.83 c -4.79,4.21 -19.06,14.08 -25.58,10.33 -12.85,-7.38 28.85,-33.65 6.72,-39.47 a 0.4,0.4 0 0 1 -0.02,-0.76 q 3.65,-1.17 6.16,-4.03 a 1.31,1.32 48.1 0 0 0.09,-1.63 c -5.97,-8.44 -15.53,-8.02 -24.28,-5.59 -22.83,6.36 -60.66,23.71 -70.22,47.31 a 0.96,0.98 8.2 0 1 -0.8,0.61 l -6.57,0.73 q -0.87,0.09 -0.5,-0.7 c 3.42,-7.35 12,-22.85 4.16,-29.76 -2.33,-2.06 -7.01,-2.08 -9.53,-0.89 q -16.97,8.01 -22.92,25.38 c -1.77,5.18 -0.62,9.24 2.98,13 a 0.61,0.61 0 0 1 0.07,0.77 c -3.68,5.59 -10.23,11.97 -17.51,10.35 -7.63,-1.71 -11.96,-15.06 -6.8,-20.69 11.74,-12.79 84.13,-78.12 67.63,-96.52 -8.39,-9.36 -43.1,23.62 -49,29.42 -21.03,20.71 -38.43,44 -38.44,75.1 a 1.16,1.19 67.8 0 1 -0.37,0.85 c -3.41,3.26 -19.16,17.31 -23.91,11.9 -5.71,-6.51 15.67,-27.73 20,-32.55 4.08,-4.56 1.45,-9.4 -1.48,-13.84 -2.13,-3.23 -3.75,-6.21 -7.46,-4.91 q -3,1.05 -8.57,4.68 c -19.26,12.59 -36.38,26.7 -51.42,44.17 -1.33,1.54 -5.13,4.76 -5.78,0.73 a 1.44,1.44 0 0 1 0.17,-0.94 q 1.67,-2.95 3.24,-4.69 7.9,-8.74 15.58,-17.67 c 2.44,-2.82 9.51,-11.96 1.54,-12.83 -7.21,-0.79 -14.55,-0.89 -19.41,3.69 -10.05,9.48 -18.68,22.92 -20.63,36.82 a 1.38,1.41 72.2 0 1 -0.44,0.83 c -5.38,4.84 -12.8,9.33 -20.06,10.3 -6.92,0.93 -14.86,-0.29 -14.01,-9.52 a 1.16,1.15 73.2 0 1 0.43,-0.81 c 9.39,-7.59 22.11,-18.79 26.55,-30.27 3.55,-9.19 -8.16,-9.85 -13.51,-8.06 -17.14,5.76 -35.45,29.08 -33.22,47.51 1.19,9.78 8.18,20.56 18.73,21.79 13.4,1.56 28.27,-9.49 37.12,-18.71 a 0.37,0.37 0 0 1 0.59,0.07 c 13.64,23.66 27.01,0.09 35.65,-10.76 q 10.96,-13.77 24.74,-24.86 a 0.27,0.27 0 0 1 0.4,0.36 z m 258.43,-95.41 q -0.29,0.43 -0.19,1.03 a 0.35,0.36 63.8 0 0 0.59,0.2 l 9.3,-8.51 a 0.28,0.28 0 0 0 -0.19,-0.48 l -8.94,0.1 a 0.48,0.49 89.4 0 0 -0.48,0.48 q -0.01,3.64 -0.09,7.18 z m -370.45,17.32 14.04,-24.51 a 0.33,0.33 0 0 0 -0.29,-0.5 h -50.22 a 0.87,0.88 14.7 0 0 -0.76,0.45 l -12.8,22.95 q -0.7,1.26 0.75,1.2 c 21.14,-0.93 50.34,2.93 59.61,25.56 q 4.99,12.2 2.56,25.43 a 0.22,0.22 0 0 0 0.22,0.26 l 13.14,-0.14 a 0.46,0.46 0 0 0 0.45,-0.47 c -0.35,-12.96 13.94,-20.73 24.96,-20.9 13.19,-0.2 15.3,11.39 9.86,21.11 a 0.25,0.25 0 0 0 0.22,0.37 l 17.83,-0.05 a 0.58,0.59 0.5 0 0 0.58,-0.58 l 0.16,-49.04 a 0.65,0.65 0 0 0 -0.65,-0.65 h -79.38 a 0.32,0.33 15 0 1 -0.28,-0.49 z m 140.1,-0.07 13.89,-24.31 a 0.42,0.42 0 0 0 -0.36,-0.63 h -50.09 a 0.82,0.84 15 0 0 -0.72,0.43 q -6.16,11.03 -12.26,22.1 -0.98,1.78 -0.97,3.82 0.14,24.43 0.43,48.9 a 0.54,0.53 0 0 0 0.54,0.53 l 25.85,0.14 a 1.71,1.69 28.6 0 0 0.97,-0.28 q 8.1,-5.41 13.44,-7.82 c 8.74,-3.94 12.68,1.43 16.91,7.87 a 0.81,0.81 0 0 0 1.4,-0.09 c 9.55,-19.54 22.8,-34.95 38.75,-49.73 q 0.41,-0.37 -0.14,-0.37 h -47.32 a 0.37,0.37 0 0 1 -0.32,-0.56 z m 140.05,-0.03 13.93,-24.34 a 0.37,0.38 15.3 0 0 -0.32,-0.57 h -50.21 a 0.89,0.91 15 0 0 -0.78,0.46 l -1.65,3.01 a 0.95,0.97 45.6 0 0 -0.02,0.9 c 5.81,11.36 -4.27,27.64 -11.13,36.91 a 1.48,1.46 63.6 0 0 -0.29,0.88 l 0.34,33.07 a 0.72,0.71 0 0 0 0.72,0.71 l 10.73,-0.1 a 1.61,1.57 26.7 0 0 0.92,-0.29 q 18.08,-12.54 38.7,-20.19 c 13.15,-4.87 27.82,-9.29 39.14,-0.55 4,3.08 6.57,8.1 2.34,12.1 a 0.62,0.62 0 0 0 -0.06,0.84 q 2.51,3.18 2.87,7.27 a 1.01,0.99 12.8 0 0 0.49,0.76 q 1.92,1.1 2.38,-0.77 5.6,-22.71 19.09,-39.2 3.96,-4.84 7.85,-9.92 0.3,-0.4 -0.2,-0.4 l -74.49,0.02 a 0.4,0.4 0 0 1 -0.35,-0.6 z m -391.839997,76.01 c -8.05,2.98 -34.92,11.01 -33.76,22.09 0.58,5.45 6.7,9.34 11.54,11.08 a 0.43,0.42 24.2 0 1 0.23,0.6 c -3.13,5.75 -28.1,45.71 -8.04,44.35 9.55,-0.65 18.79,-17.16 23.19,-25.73 a 1.89,1.89 0 0 0 -0.77,-2.52 l -3.41,-1.89 a 0.49,0.48 29.5 0 1 -0.19,-0.66 l 6.62,-12.03 a 0.91,0.88 13.8 0 1 0.79,-0.46 q 33.349997,0.01 64.949997,-10.35 c 27.76,-9.1 65.21,-32.18 57.89,-67.16 -2.95,-14.06 -13.62,-23.01 -26.58,-26.25 q -17.18,-4.3 -36.08,-3.21 c -27.88,1.61 -56.189997,6.47 -82.499997,16.03 q -6.86,2.49 -10.85,8 c -1.79,2.47 -16.25,22.69 -12.32,25.48 3.07,2.19 22.96,-5.81 27.2,-7.29 q 25.37,-8.84 51.739997,-12.33 a 0.42,0.42 0 0 1 0.4,0.66 l -29.269997,41 a 1.72,1.69 7.4 0 1 -0.78,0.59 z m 331.429997,-46.4 -15.18,16.51 a 0.2,0.2 0 0 0 0.25,0.3 q 6.83,-4.34 14.88,-3.26 a 0.51,0.5 3.5 0 0 0.57,-0.5 v -12.85 a 0.3,0.3 0 0 0 -0.52,-0.2 z m -163.65,5.39 c -7.28,-4.36 -19.34,2.89 -22.82,9.6 -2.47,4.76 -0.78,10.1 4.11,12.23 6.55,2.86 14.46,-1.62 18.39,-6.97 2.71,-3.7 5.57,-11.72 0.32,-14.86 z m -36.18,68.64 c -1.06,5.46 9.07,3.59 11.93,2.51 q 5.62,-2.1 11.47,-6.84 a 1.24,1.24 0 0 0 0.44,-0.72 q 3.58,-17.18 14.96,-30.51 a 0.47,0.47 0 0 0 -0.36,-0.78 l -9.78,0.06 a 0.73,0.73 0 0 0 -0.71,0.57 c -3.19,13.9 -17.1,26.85 -27.46,34.91 a 1.3,1.33 75.8 0 0 -0.49,0.8 z m 154.82,-10.77 c 2.99,2.66 8.57,-3.07 10.37,-5.4 a 0.68,0.68 0 0 0 0.02,-0.8 c -4.22,-6.21 -2.89,-12.36 -0.31,-18.42 a 0.71,0.71 0 0 0 -1.15,-0.78 l -12.27,12.39 a 1.77,1.66 75.2 0 0 -0.46,0.85 q -1.57,7.39 3.8,12.16 z m 140.33,-25.14 q -3.39,4.37 -5.55,9.52 a 1.15,1.15 0 0 0 1.44,1.53 c 3.11,-1.08 17.46,-7.06 15.49,-11 a 0.8,0.79 76.7 0 0 -0.71,-0.44 h -9.88 a 0.99,1 18.9 0 0 -0.79,0.39 z m -174.76,8.42 q -7.43,7.2 -12.48,16.56 a 0.89,0.89 0 0 0 1.31,1.13 l 12.51,-9.38 a 1.18,1.18 0 0 0 0.46,-0.87 l 0.5,-9.56 q 0.02,-0.32 -0.26,-0.15 c -0.74,0.44 -1.62,1.86 -2.04,2.27 z"
       id="path96"
       style="display:inline;fill:#000000"
       inkscape:label="Outline" />
    <g
       fill="#000000"
       id="g130"
       style="display:inline;fill:#000000"
       inkscape:label="InnerOutline"
       transform="translate(40.430153,30.251411)">
      <path
         d="m 94.49,273.41 a 1.37,1.36 47.9 0 0 0.11,-2.22 c -2.7,-2.15 -12.92,0.7 -16.68,1.03 q -0.5,0.04 -0.22,-0.37 10.2,-15.03 20.22,-30.04 c 2.08,-3.1 2.64,-5.84 2.29,-9.37 a 0.69,0.69 0 0 1 0.63,-0.76 q 19.43,-1.64 38.92,0.14 c 38.47,3.52 7.68,31.93 -5.31,39.87 q -29.86,18.25 -64.78,16.09 a 0.57,0.57 0 0 1 -0.45,-0.87 l 3.28,-5.33 a 1.37,1.36 -83.7 0 1 0.69,-0.56 c 6.78,-2.43 15.27,-3.77 21.3,-7.61 z m 58.34,-32.37 c -3.97,-5.91 -28.4,-5.75 -35.05,-5.66 a 0.61,0.6 89.1 0 0 -0.59,0.62 l 0.35,15.41 a 0.63,0.62 89.5 0 0 0.62,0.62 l 30.25,-0.04 a 0.93,0.93 0 0 0 0.72,-0.34 q 3.49,-4.24 3.94,-9.72 a 1.41,1.34 31.3 0 0 -0.24,-0.89 z m -54.99,14.08 c -0.03,-0.86 0.39,-2.12 0.04,-3.2 q -0.16,-0.5 -0.46,-0.06 l -9.45,13.92 a 0.32,0.32 0 0 0 0.34,0.49 q 4.72,-1.16 9.11,0.92 a 0.37,0.37 0 0 0 0.53,-0.32 q 0.11,-5.96 -0.11,-11.75 z m 1.94,13.34 a 0.45,0.44 -14.8 0 0 -0.39,0.66 c 5.19,9.09 -13.37,12.86 -18.82,13.66 A 0.3,0.29 -86.8 0 0 80.33,283 l -0.1,0.33 a 0.35,0.35 0 0 0 0.35,0.45 q 26.56,-1.43 49.46,-14.75 a 0.27,0.27 0 0 0 -0.13,-0.51 z"
         id="path126"
         style="display:inline;fill:#000000"
         inkscape:label="p" />
      <path
         d="m 338.88,257.62 c 11.51,-22.82 28.06,-42.99 47.35,-59.85 a 0.31,0.31 0 0 1 0.49,0.36 q -4.69,10.65 -11.83,19.77 -16.3,20.81 -35.42,40.15 a 0.37,0.37 0 0 1 -0.59,-0.43 z"
         id="path122"
         style="display:inline;fill:#000000"
         inkscape:label="b" />
      <path
         d="m 411.96,292.62 a 2.34,2.32 1 0 1 -1.77,-1.82 c -2.28,-11.4 9.15,-19.24 17.67,-23.94 q 17.96,-9.91 37.45,-16.56 a 0.22,0.22 0 0 1 0.23,0.36 c -8.48,8.97 -41.48,44.75 -53.58,41.96 z m 22.3,-23.89 c -6.51,3 -19.04,10.63 -19.07,19.08 a 0.33,0.33 0 0 0 0.47,0.3 c 8.69,-3.91 17.45,-12.38 24.27,-19.06 q 0.36,-0.35 -0.13,-0.43 -3.81,-0.69 -5.54,0.11 z"
         id="path128"
         style="display:inline;fill:#000000"
         inkscape:label="a" />
      <path
         d="m 523.32,240.8 c 5.13,-13.6 14.48,-33.41 26.96,-41.46 a 0.32,0.32 0 0 1 0.48,0.37 c -5.16,15.3 -15.66,30.31 -26.71,41.56 q -1.48,1.5 -0.73,-0.47 z"
         id="path124"
         style="display:inline;fill:#000000"
         inkscape:label="l" />
      <path
         d="m 582.18,236.33 c 4.98,-12.55 14.7,-35.15 27.56,-42.6 q 0.44,-0.25 0.31,0.24 c -4.11,15.23 -16.57,31.51 -27.56,42.56 a 0.19,0.19 0 0 1 -0.31,-0.2 z"
         id="path120"
         style="display:inline;fill:#000000"
         inkscape:label="l" />
    </g>
    <g
       id="g1"
       style="display:inline;fill:#000000"
       inkscape:label="MFN_Zaccaria"
       transform="translate(40.430153,30.251411)">
      <path
         d="m 172.81,35.56 -0.06,21.55 a 0.64,0.64 0 0 1 -0.64,0.64 h -4.24 a 0.62,0.62 0 0 1 -0.62,-0.62 v -28 a 0.63,0.63 0 0 1 0.63,-0.63 h 7.66 a 0.72,0.72 0 0 1 0.7,0.54 l 4.85,18.45 a 0.37,0.37 0 0 0 0.71,0 l 4.92,-18.57 a 0.57,0.56 7.2 0 1 0.55,-0.42 h 7.61 a 0.63,0.62 90 0 1 0.62,0.63 v 28.12 a 0.5,0.5 0 0 1 -0.5,0.5 h -4.3 a 0.49,0.49 0 0 1 -0.49,-0.49 l -0.23,-20.99 a 0.30203477,0.30203477 0 0 0 -0.6,-0.07 l -5.01,20.94 a 0.79,0.78 6.8 0 1 -0.78,0.61 h -4.46 a 0.76,0.75 84.4 0 1 -0.74,-0.61 q -2.12,-10.99 -5.43,-21.61 -0.15,-0.48 -0.15,0.03 z"
         id="path98"
         style="display:inline;fill:#000000"
         inkscape:label="M" />
      <path
         d="m 313.68,40.79 11.49,-0.06 a 0.43,0.43 0 0 1 0.43,0.43 l 0.04,3.91 a 0.43,0.43 0 0 1 -0.43,0.43 h -11.56 a 0.43,0.43 0 0 0 -0.43,0.43 l 0.1,11.39 a 0.43,0.43 0 0 1 -0.43,0.43 h -4.96 A 0.43,0.43 0 0 1 307.5,57.32 V 28.93 a 0.43,0.43 0 0 1 0.43,-0.43 h 19.14 a 0.43,0.43 0 0 1 0.43,0.43 v 3.89 a 0.43,0.43 0 0 1 -0.43,0.43 h -13.39 a 0.43,0.43 0 0 0 -0.43,0.43 v 6.68 a 0.43,0.43 0 0 0 0.43,0.43 z"
         id="path100"
         style="display:inline;fill:#000000"
         inkscape:label="F" />
      <path
         d="m 450.42,39.45 0.3,17.94 a 0.35,0.35 0 0 1 -0.35,0.36 h -4.53 a 0.35,0.35 0 0 1 -0.35,-0.35 l -0.02,-28.55 a 0.35,0.35 0 0 1 0.35,-0.35 h 4.86 a 0.35,0.35 0 0 1 0.3,0.17 l 11.46,18.61 a 0.35,0.35 0 0 0 0.65,-0.18 l -0.14,-18.25 a 0.35,0.35 0 0 1 0.35,-0.35 h 4.85 a 0.35,0.35 0 0 1 0.35,0.35 v 28.57 a 0.35,0.35 0 0 1 -0.36,0.35 l -5.47,-0.08 a 0.35,0.35 0 0 1 -0.29,-0.16 L 451.07,39.26 a 0.35,0.35 0 0 0 -0.65,0.19 z"
         id="path102"
         style="display:inline;fill:#000000"
         inkscape:label="N" />
      <path
         d="m 121.48,152.27 33.17,-0.03 a 0.64,0.64 0 0 1 0.64,0.66 l -0.19,7.06 a 0.56,0.56 0 0 1 -0.56,0.54 h -46.88 a 0.6,0.6 0 0 1 -0.6,-0.59 l -0.07,-8.2 a 1.27,1.27 0 0 1 0.36,-0.91 l 31.06,-31.41 a 0.24,0.23 22.3 0 0 -0.17,-0.4 l -26.88,0.03 a 0.61,0.61 0 0 1 -0.61,-0.61 v -7.16 a 0.5,0.5 0 0 1 0.5,-0.5 h 41.87 a 0.63,0.62 0 0 1 0.63,0.62 v 7.13 a 1.4,1.4 0 0 1 -0.41,0.99 l -32.03,32.38 q -0.39,0.4 0.17,0.4 z"
         id="path108"
         style="display:inline;fill:#000000"
         inkscape:label="Z" />
      <path
         d="m 173.73,149.59 -4.75,10.71 a 0.34,0.34 0 0 1 -0.31,0.2 h -11.83 a 0.34,0.34 0 0 1 -0.31,-0.49 l 23.22,-49.07 a 0.34,0.34 0 0 1 0.31,-0.19 h 11.25 a 0.34,0.34 0 0 1 0.3,0.19 l 23.99,49.07 a 0.34,0.34 0 0 1 -0.3,0.49 h -12.26 a 0.34,0.34 0 0 1 -0.31,-0.2 l -4.95,-10.6 a 0.34,0.34 0 0 0 -0.31,-0.2 l -23.43,-0.11 a 0.34,0.34 0 0 0 -0.31,0.2 z m 3.94,-8.77 a 0.32,0.32 0 0 0 0.3,0.45 l 15.37,-0.05 a 0.32,0.32 0 0 0 0.29,-0.45 l -7.75,-17.02 a 0.32,0.32 0 0 0 -0.58,0 z"
         id="path110"
         style="display:inline;fill:#000000"
         inkscape:label="A" />
      <path
         d="m 243.81,151.44 q 12.39,1.8 16.46,-9.61 a 0.66,0.65 -73.2 0 1 0.77,-0.42 l 10.21,2.55 a 0.58,0.57 16.1 0 1 0.41,0.73 c -7.22,22.78 -45.4,20.2 -50.6,-2.52 -3.63,-15.85 5.02,-29.15 21.71,-31.43 12,-1.63 24.34,1.74 28.79,14.09 a 0.49,0.49 0 0 1 -0.39,0.65 l -10.66,1.64 a 0.6,0.59 74.2 0 1 -0.65,-0.37 q -2.64,-6.69 -10.06,-7.49 c -12.61,-1.37 -18.32,6.97 -17.02,18.7 0.74,6.65 3.81,12.43 11.03,13.48 z"
         id="path104"
         style="display:inline;fill:#000000"
         inkscape:label="C" />
      <path
         d="m 283.05,122.82 c 10.09,-16.98 40.4,-17.6 48.1,2.03 a 0.48,0.47 75.1 0 1 -0.37,0.64 l -10.46,1.58 a 0.82,0.81 -17 0 1 -0.86,-0.45 c -4.24,-8.66 -16.45,-10.19 -23.26,-3.57 -4.62,4.49 -4.81,13.84 -3,19.72 q 2.13,6.9 9.76,8.32 12.92,2.41 16.85,-9.4 a 0.54,0.54 0 0 1 0.64,-0.35 l 10.31,2.64 a 0.56,0.55 15.3 0 1 0.4,0.7 c -7.16,23.05 -44.56,19.89 -50.59,-2.19 q -2.89,-10.61 2.48,-19.67 z"
         id="path106"
         style="display:inline;fill:#000000"
         inkscape:label="C" />
      <path
         d="m 376.6,149.44 -23.46,-0.02 a 0.33,0.33 0 0 0 -0.3,0.2 l -4.74,10.68 a 0.33,0.33 0 0 1 -0.3,0.2 h -11.9 a 0.33,0.33 0 0 1 -0.3,-0.47 l 23.32,-49.09 a 0.33,0.33 0 0 1 0.3,-0.19 h 11.24 a 0.33,0.33 0 0 1 0.3,0.19 l 24.01,49.09 a 0.33,0.33 0 0 1 -0.3,0.47 h -12.26 a 0.33,0.33 0 0 1 -0.3,-0.19 l -5.01,-10.68 a 0.33,0.33 0 0 0 -0.3,-0.19 z m -19.77,-8.63 a 0.32,0.32 0 0 0 0.29,0.45 l 15.32,-0.03 a 0.32,0.32 0 0 0 0.29,-0.45 l -7.69,-17.08 a 0.32,0.32 0 0 0 -0.58,0 z"
         id="path112"
         style="display:inline;fill:#000000"
         inkscape:label="A" />
      <path
         d="m 434.44,139.25 c 8.16,3.92 14.22,13.46 19.33,20.67 q 0.42,0.58 -0.3,0.58 h -12.84 a 1.17,1.16 70.7 0 1 -0.91,-0.44 q -5.1,-6.45 -10.3,-12.73 c -4.74,-5.71 -8.08,-8.21 -15.93,-7.14 A 0.58,0.57 86 0 0 413,140.76 V 160 a 0.5,0.5 0 0 1 -0.5,0.5 h -10.88 a 0.64,0.64 0 0 1 -0.64,-0.64 l 0.03,-48.35 a 0.6,0.6 0 0 1 0.58,-0.6 q 15.04,-0.57 29.88,0.23 c 9.08,0.49 16.63,2.65 17.81,12.37 1.09,8.89 -6.32,14.51 -14.67,14.9 a 0.44,0.44 0 0 0 -0.17,0.84 z m -2.96,-7.84 c 7.85,-0.58 6.95,-12.12 0.18,-12.12 q -9.01,0 -18.14,-0.17 a 0.51,0.51 0 0 0 -0.52,0.51 v 11.35 a 0.65,0.65 0 0 0 0.62,0.65 q 9.01,0.45 17.86,-0.22 z"
         id="path114"
         style="display:inline;fill:#000000"
         inkscape:label="R" />
      <rect
         x="460.75"
         y="110.76"
         width="11.76"
         height="49.740002"
         rx="0.30000001"
         id="rect116"
         style="display:inline;fill:#000000"
         inkscape:label="I" />
      <path
         d="m 501.63,110.75 h 11.22 a 0.31,0.31 0 0 1 0.27,0.17 l 24.01,49.13 a 0.31,0.31 0 0 1 -0.28,0.45 h -12.28 a 0.31,0.31 0 0 1 -0.28,-0.18 l -5.04,-10.72 a 0.31,0.31 0 0 0 -0.28,-0.18 l -23.37,-0.19 a 0.31,0.31 0 0 0 -0.28,0.19 l -4.84,10.9 a 0.31,0.31 0 0 1 -0.28,0.18 h -11.91 a 0.31,0.31 0 0 1 -0.28,-0.44 l 23.34,-49.13 a 0.31,0.31 0 0 1 0.28,-0.18 z m -2.44,30.07 a 0.32,0.32 0 0 0 0.3,0.45 l 15.39,-0.05 a 0.32,0.32 0 0 0 0.29,-0.45 l -7.76,-17.02 a 0.32,0.32 0 0 0 -0.58,0 z"
         id="path118"
         style="display:inline;fill:#000000"
         inkscape:label="A" />
    </g>
    <g
       fill="#ff7113"
       id="g138"
       style="display:inline;fill:url(#linearGradient1045);fill-opacity:1"
       inkscape:label="PinballFill"
       transform="translate(40.430153,30.251411)">
      <path
         d="m 56.58,276.58 29.27,-41 a 0.42,0.42 0 0 0 -0.4,-0.66 q -26.37,3.49 -51.74,12.33 c -4.24,1.48 -24.13,9.48 -27.2,7.29 -3.93,-2.79 10.53,-23.01 12.32,-25.48 q 3.99,-5.51 10.85,-8 c 26.31,-9.56 54.62,-14.42 82.5,-16.03 q 18.9,-1.09 36.08,3.21 c 12.96,3.24 23.63,12.19 26.58,26.25 7.32,34.98 -30.13,58.06 -57.89,67.16 Q 85.35,312.01 52,312 a 0.91,0.88 13.8 0 0 -0.79,0.46 l -6.62,12.03 a 0.49,0.48 29.5 0 0 0.19,0.66 l 3.41,1.89 a 1.89,1.89 0 0 1 0.77,2.52 c -4.4,8.57 -13.64,25.08 -23.19,25.73 -20.06,1.36 4.91,-38.6 8.04,-44.35 a 0.43,0.42 24.2 0 0 -0.23,-0.6 C 28.74,308.6 22.62,304.71 22.04,299.26 20.88,288.18 47.75,280.15 55.8,277.17 a 1.72,1.69 7.4 0 0 0.78,-0.59 z m 37.91,-3.17 c -6.03,3.84 -14.52,5.18 -21.3,7.61 a 1.37,1.36 -83.7 0 0 -0.69,0.56 l -3.28,5.33 a 0.57,0.57 0 0 0 0.45,0.87 q 34.92,2.16 64.78,-16.09 c 12.99,-7.94 43.78,-36.35 5.31,-39.87 q -19.49,-1.78 -38.92,-0.14 a 0.69,0.69 0 0 0 -0.63,0.76 c 0.35,3.53 -0.21,6.27 -2.29,9.37 q -10.02,15.01 -20.22,30.04 -0.28,0.41 0.22,0.37 c 3.76,-0.33 13.98,-3.18 16.68,-1.03 a 1.37,1.36 47.9 0 1 -0.11,2.22 z"
         id="path134"
         style="fill:url(#linearGradient1);fill-opacity:1"
         inkscape:label="P" />
      <path
         d="m 223.58,236.16 c 5.25,3.14 2.39,11.16 -0.32,14.86 -3.93,5.35 -11.84,9.83 -18.39,6.97 -4.89,-2.13 -6.58,-7.47 -4.11,-12.23 3.48,-6.71 15.54,-13.96 22.82,-9.6 z"
         id="path136"
         style="fill:url(#linearGradient2);fill-opacity:1"
         inkscape:label="i" />
      <path
         d="m 279.51,279.35 a 0.27,0.27 0 0 0 -0.4,-0.36 q -13.78,11.09 -24.74,24.86 c -8.64,10.85 -22.01,34.42 -35.65,10.76 a 0.37,0.37 0 0 0 -0.59,-0.07 c -8.85,9.22 -23.72,20.27 -37.12,18.71 -10.55,-1.23 -17.54,-12.01 -18.73,-21.79 -2.23,-18.43 16.08,-41.75 33.22,-47.51 5.35,-1.79 17.06,-1.13 13.51,8.06 -4.44,11.48 -17.16,22.68 -26.55,30.27 a 1.16,1.15 73.2 0 0 -0.43,0.81 c -0.85,9.23 7.09,10.45 14.01,9.52 7.26,-0.97 14.68,-5.46 20.06,-10.3 a 1.41,1.38 -17.8 0 0 0.44,-0.83 c 1.95,-13.9 10.58,-27.34 20.63,-36.82 4.86,-4.58 12.2,-4.48 19.41,-3.69 7.97,0.87 0.9,10.01 -1.54,12.83 q -7.68,8.93 -15.58,17.67 -1.57,1.74 -3.24,4.69 a 1.44,1.44 0 0 0 -0.17,0.94 c 0.65,4.03 4.45,0.81 5.78,-0.73 15.04,-17.47 32.16,-31.58 51.42,-44.17 q 5.57,-3.63 8.57,-4.68 c 3.71,-1.3 5.33,1.68 7.46,4.91 2.93,4.44 5.56,9.28 1.48,13.84 -4.33,4.82 -25.71,26.04 -20,32.55 4.75,5.41 20.5,-8.64 23.91,-11.9 a 1.19,1.16 -22.2 0 0 0.37,-0.85 c 0.01,-31.1 17.41,-54.39 38.44,-75.1 5.9,-5.8 40.61,-38.78 49,-29.42 16.5,18.4 -55.89,83.73 -67.63,96.52 -5.16,5.63 -0.83,18.98 6.8,20.69 7.28,1.62 13.83,-4.76 17.51,-10.35 a 0.61,0.61 0 0 0 -0.07,-0.77 c -3.6,-3.76 -4.75,-7.82 -2.98,-13 q 5.95,-17.37 22.92,-25.38 c 2.52,-1.19 7.2,-1.17 9.53,0.89 7.84,6.91 -0.74,22.41 -4.16,29.76 q -0.37,0.79 0.5,0.7 l 6.57,-0.73 a 0.98,0.96 -81.8 0 0 0.8,-0.61 c 9.56,-23.6 47.39,-40.95 70.22,-47.31 8.75,-2.43 18.31,-2.85 24.28,5.59 a 1.32,1.31 -41.9 0 1 -0.09,1.63 q -2.51,2.86 -6.16,4.03 a 0.4,0.4 0 0 0 0.02,0.76 c 22.13,5.82 -19.57,32.09 -6.72,39.47 6.52,3.75 20.79,-6.12 25.58,-10.33 a 1.01,1 67.1 0 0 0.33,-0.83 c -1.41,-18.26 4.73,-36.81 15.09,-51.69 2.42,-3.47 51.22,-67.44 52.13,-37.78 q 0.59,19.2 -10.96,35.97 c -10.79,15.66 -21.14,27.13 -33.37,39.75 -3.41,3.52 -3.87,7.5 -2.67,12.02 5.34,20.13 30.27,3.74 38.61,-3.28 a 1.05,1.04 69.5 0 0 0.37,-0.82 q -0.74,-31.65 18.69,-56.32 c 6.27,-7.95 34.58,-42.94 44.39,-41.06 q 3.49,0.67 3.98,4.69 2.13,17.67 -6.81,33.17 c -9.94,17.24 -23.71,32.42 -37.68,46.45 -6.02,6.04 -1.16,18.28 6.18,20.5 12.65,3.84 33.06,-13.89 41.34,-21.72 a 0.65,0.65 0 0 1 0.96,0.08 l 3.52,4.68 a 0.74,0.73 -42.6 0 1 -0.04,0.93 c -12.15,13.54 -33.75,36.51 -54.42,34.74 q -12.49,-1.08 -17.57,-15.01 a 0.58,0.57 57.4 0 0 -0.95,-0.21 c -7.49,7.63 -16.29,14.32 -26.01,18.28 -13.31,5.42 -26.49,3.61 -32.33,-11.33 a 0.59,0.59 0 0 0 -0.95,-0.22 q -12.69,11.42 -27.3,20.07 c -14.52,8.59 -26.39,-0.13 -20.62,-16.36 q 1.83,-5.15 3.42,-10.39 0.14,-0.48 -0.24,-0.17 c -11.48,9.4 -22.76,19.76 -35.18,27.84 -10.75,7 -23.97,-6.52 -28.67,-15.05 a 0.66,0.65 -22.4 0 0 -0.76,-0.31 q -7.9,2.41 -16.1,3.37 a 1.26,1.23 16.2 0 0 -0.79,0.42 c -13.15,14.91 -48.18,41.81 -57.47,4.99 a 0.53,0.53 0 0 0 -0.91,-0.22 c -8.09,9.04 -31.75,32.83 -45.19,23.49 -15.37,-10.69 1.45,-31.73 8.09,-42.43 z m 330.23,-85.62 c -12.86,7.45 -22.58,30.05 -27.56,42.6 a 0.19,0.19 0 0 0 0.31,0.2 c 10.99,-11.05 23.45,-27.33 27.56,-42.56 q 0.13,-0.49 -0.31,-0.24 z m -223.51,4.04 c -19.29,16.86 -35.84,37.03 -47.35,59.85 a 0.37,0.37 0 0 0 0.59,0.43 q 19.12,-19.34 35.42,-40.15 7.14,-9.12 11.83,-19.77 a 0.31,0.31 0 0 0 -0.49,-0.36 z m 164.05,1.57 c -12.48,8.05 -21.83,27.86 -26.96,41.46 q -0.75,1.97 0.73,0.47 c 11.05,-11.25 21.55,-26.26 26.71,-41.56 a 0.32,0.32 0 0 0 -0.48,-0.37 z m -138.32,93.28 c 12.1,2.79 45.1,-32.99 53.58,-41.96 a 0.22,0.22 0 0 0 -0.23,-0.36 q -19.49,6.65 -37.45,16.56 c -8.52,4.7 -19.95,12.54 -17.67,23.94 a 2.34,2.32 1 0 0 1.77,1.82 z"
         id="path132"
         style="display:inline;fill:url(#linearGradient3);fill-opacity:1"
         inkscape:label="inball" />
    </g>
  </g>
</svg>
