<?xml version="1.0" encoding="UTF-8" standalone="no"?>
<!-- Created by ERK -->

<svg
   width="240mm"
   height="80mm"
   viewBox="0 0 240 80"
   version="1.1"
   id="svg1"
   inkscape:version="1.4 (86a8ad7, 2024-10-11)"
   sodipodi:docname="zinc_v2.svg"
   xmlns:inkscape="http://www.inkscape.org/namespaces/inkscape"
   xmlns:sodipodi="http://sodipodi.sourceforge.net/DTD/sodipodi-0.dtd"
   xmlns="http://www.w3.org/2000/svg"
   xmlns:svg="http://www.w3.org/2000/svg">
  <sodipodi:namedview
     id="namedview1"
     pagecolor="#ffffff"
     bordercolor="#000000"
     borderopacity="0.25"
     inkscape:showpageshadow="2"
     inkscape:pageopacity="0.0"
     inkscape:pagecheckerboard="true"
     inkscape:deskcolor="#d1d1d1"
     inkscape:document-units="mm"
     inkscape:zoom="1.6471871"
     inkscape:cx="376.39926"
     inkscape:cy="163.00516"
     inkscape:window-width="3840"
     inkscape:window-height="2066"
     inkscape:window-x="-11"
     inkscape:window-y="-11"
     inkscape:window-maximized="1"
     inkscape:current-layer="svg1" />
  <defs
     id="defs1" />
  <g
     id="g1"
     inkscape:label="Logo"
     transform="translate(19.07962,5.39667)">
    <path
       style="display:inline;fill:#000000;fill-opacity:1;stroke:#000000;stroke-width:3.86221;stroke-linecap:round;stroke-linejoin:round;stroke-dasharray:none;stroke-opacity:1"
       d="m 140.23109,66.893933 c -0.44837,-0.21202 -9.28574,-7.13229 -19.63856,-15.37835 -10.35281,-8.24607 -18.8512,-14.91496 -18.88532,-14.81975 -0.0341,0.09526 0.58942,4.608754 1.38563,10.0301 0.83868,5.71067 1.38981,10.09466 1.31015,10.42197 -0.23538,0.96727 -1.63541,1.86857 -5.784875,3.72406 -3.530794,1.57884 -4.143773,1.79093 -5.234766,1.8112 -1.425881,0.0264 -2.406119,-0.43203 -3.068222,-1.4352 -0.338769,-0.51329 -0.444069,-1.20661 -0.601389,-3.95977 -0.906273,-15.859923 -2.654914,-23.638826 -7.678007,-34.155934 -1.834746,-3.8415 -1.875213,-3.958766 -1.628634,-4.719372 0.139077,-0.428991 0.527968,-1.004967 0.864207,-1.279937 0.684515,-0.559805 9.265739,-4.190522 10.29253,-4.354782 0.405036,-0.06475 0.914907,0.02684 1.32284,0.237829 0.365077,0.188795 10.626766,8.124743 22.803756,17.635437 12.177,9.510706 22.19194,17.292169 22.25542,17.292169 0.38819,0 0.0488,-4.368695 -0.80656,-10.385063 -0.90912,-6.393757 -4.287,-26.370939 -4.9491,-29.2696 -0.33538,-1.468235 -0.13807,-2.335925 0.70605,-3.105105 0.59478,-0.541982 10.22091,-3.239791 11.60588,-3.252667 0.9526,-0.0086 1.60949,0.381238 2.01988,1.199528 0.21317,0.425113 2.48121,14.350833 2.46457,15.132551 -0.002,0.07187 0.49038,-0.189816 1.09316,-0.581626 2.82541,-1.836519 6.32619,-3.072341 10.36819,-3.660125 3.36523,-0.489369 9.01059,-0.30404 12.42091,0.407756 3.02144,0.63063 6.07148,1.680938 8.48418,2.92159 0.15695,0.08072 1.02826,-1.934692 2.17991,-5.042297 1.63422,-4.409675 3.20562,-6.527938 5.87195,-7.915422 1.7097,-0.889668 2.99137,-1.215308 5.41902,-1.376805 2.68486,-0.178604 3.73365,5.28e-4 4.49258,0.767381 0.99834,1.008729 0.85172,1.831985 -0.93011,5.222556 -3.49529,6.6511 -4.981,11.334418 -5.07355,15.992928 -0.0353,1.749187 0.0195,2.012227 0.84897,4.108744 1.29892,3.283593 1.30743,3.324034 0.87389,4.161328 -0.51945,1.003295 -1.1125,1.336036 -5.79845,3.253228 -5.4441,2.227376 -5.67345,2.195592 -7.58439,-1.051107 -3.10625,-5.277605 -7.4799,-9.537139 -12.079,-11.763871 -3.00528,-1.45505 -4.93347,-1.904191 -8.2076,-1.911829 -3.07751,-0.0068 -3.96517,0.266118 -5.32522,1.639545 -2.03017,2.050147 -3.16702,6.649694 -3.03783,12.290649 0.1004,4.38456 1.13058,7.798783 3.27903,10.867448 3.86272,5.517125 11.55005,9.109195 19.5951,9.156165 3.83501,0.0226 5.45818,-0.34026 7.79344,-1.74132 7.70892,-4.62502 8.52356,-5.00118 10.01352,-4.62354 2.52218,0.63928 3.51698,3.42194 2.07866,5.81457 -0.76028,1.26472 -1.739,2.10294 -3.96323,3.39422 -6.20215,3.6007 -14.49504,5.73494 -22.17752,5.70757 -5.59244,-0.0199 -9.8273,-0.93645 -14.52841,-3.14432 -1.1656,-0.54741 -2.14834,-0.99532 -2.18381,-0.99532 -0.0355,0 -0.0545,0.45141 -0.0424,1.0031 0.0379,1.72589 -0.18944,1.88711 -5.82475,4.1301 -2.73179,1.0873 -5.19854,1.97871 -5.48165,1.98089 -0.28311,0.002 -0.88162,-0.16948 -1.33001,-0.3815 z m 6.04652,-3.23569 c 5.261,-2.07385 4.97064,-1.76531 4.43047,-4.70805 -0.28998,-1.57985 -0.35667,-2.65778 -0.16441,-2.65778 0.0563,0 0.67263,0.42205 1.36962,0.93789 1.62138,1.19993 5.20122,2.94572 7.69215,3.75119 6.97168,2.25446 16.24176,1.92867 24.26813,-0.85284 8.2073,-2.8442 12.11844,-6.03229 10.29335,-8.39043 -0.84973,-1.09792 -2.28822,-0.64795 -6.72046,2.10223 -1.14743,0.71199 -2.69585,1.64476 -3.44093,2.07285 -5.32892,3.06177 -15.58771,1.98603 -22.81717,-2.39262 -4.85705,-2.94175 -8.16058,-7.392184 -9.53944,-12.851239 -0.46916,-1.857438 -0.49674,-2.277721 -0.41123,-6.267159 0.11001,-5.137141 0.53268,-7.320729 1.93837,-10.016086 1.55525,-2.982094 3.66857,-4.295046 7.23079,-4.49227 8.41735,-0.466016 17.02038,5.02134 22.78541,14.533451 0.52547,0.867016 1.09692,1.66587 1.26985,1.775234 0.22963,0.145207 0.95233,-0.06178 2.6791,-0.767187 5.03708,-2.057808 6.20806,-2.605813 6.21449,-2.908283 0.004,-0.166964 -0.41082,-1.371127 -0.92087,-2.675911 -0.92734,-2.372335 -0.92734,-2.372335 -0.86042,-5.426767 0.0488,-2.247678 0.17692,-3.484704 0.48338,-4.68347 0.86534,-3.384884 2.41916,-7.185163 4.72361,-11.552809 0.69341,-1.314232 1.26469,-2.574187 1.2695,-2.799899 0.008,-0.38939 -0.12201,-0.410394 -2.54624,-0.410394 -5.62933,0 -7.99746,1.794606 -10.14044,7.684589 -0.79255,2.178362 -2.81838,7.011755 -3.02637,7.220603 -0.0778,0.07812 -0.64432,-0.171352 -1.25891,-0.554445 -3.62799,-2.26143 -9.97424,-3.762042 -15.91008,-3.762042 -6.85075,0 -12.54617,1.884765 -16.4895,5.45678 -0.95828,0.868036 -0.99098,0.880602 -1.08623,0.417184 -0.054,-0.26278 -0.66048,-4.254634 -1.34766,-8.870771 -0.68721,-4.616144 -1.30658,-8.487638 -1.3764,-8.603323 -0.0699,-0.115697 -0.29592,-0.210349 -0.50248,-0.210349 -0.71257,0 -10.2445,2.662885 -10.41385,2.909257 -0.0933,0.135845 -0.12297,0.430261 -0.0658,0.654254 0.27185,1.064134 2.61062,14.359357 3.66742,20.848085 1.98977,12.217252 2.28504,14.67372 2.31342,19.246657 0.0243,3.92023 0.0123,4.04904 -0.36698,3.95037 -0.21568,-0.056 -10.80511,-8.232469 -23.53212,-18.169751 C 103.2417,23.257713 92.582193,14.985936 92.280886,14.813267 c -0.528369,-0.302786 -0.689177,-0.255388 -4.527705,1.3344 -4.947563,2.049119 -5.427919,2.273467 -5.560307,2.596962 -0.05859,0.143185 0.624094,1.754616 1.517089,3.580973 3.212258,6.569715 5.528674,13.843653 6.47215,20.323662 0.505756,3.473671 1.000215,8.497639 1.29265,13.134079 0.310365,4.92069 0.261149,4.70467 1.137393,4.99271 0.591902,0.19456 0.91326,0.17934 1.726232,-0.0818 1.321271,-0.42454 7.731922,-3.32989 8.073742,-3.65904 0.21667,-0.20864 -0.0751,-2.60012 -1.53168,-12.550652 -0.989645,-6.761091 -1.776865,-12.31231 -1.749355,-12.336037 0.0274,-0.02377 1.100435,0.794398 2.384325,1.818063 17.57126,14.009886 39.05923,31.060736 39.37373,31.243346 0.22119,0.12841 0.4981,0.23629 0.61538,0.23968 0.11729,0.003 2.26515,-0.80265 4.77306,-1.79127 z m -92.380973,2.00274 C 48.118688,64.416213 26.07418,58.630803 18.479768,56.366083 8.33234,53.340073 2.5606554,50.462643 1.9775994,48.139093 1.2728618,45.330706 5.1540862,43.121179 27.716237,33.486456 c 15.59705,-6.660414 22.067472,-9.792604 27.457305,-13.29148 3.594261,-2.333248 6.223717,-4.661493 6.532491,-5.784171 0.384152,-1.396742 -3.223142,-3.055608 -8.320204,-3.826172 -4.533074,-0.685303 -15.697621,-0.585678 -22.512436,0.200899 -6.710833,0.774567 -12.007957,2.461474 -12.783655,4.071054 -0.223408,0.463573 -0.178261,0.591365 0.439981,1.245348 1.026974,1.086341 3.869724,3.483262 6.079809,5.126299 2.063831,1.534298 2.491092,2.162398 2.238841,3.291118 -0.20516,0.917945 -1.043966,1.521403 -3.837834,2.760995 -4.025805,1.786186 -5.966135,2.024083 -8.361806,1.025196 -1.131181,-0.471656 -4.41454,-2.688294 -6.69492,-4.519836 C 4.6705364,21.148668 3.625991,19.712025 3.4929497,17.650357 3.29117,14.523354 5.643353,11.808706 10.838279,9.173179 16.608725,6.24566 26.646698,3.920467 39.07825,2.631646 43.397189,2.183893 52.66276,2.008357 55.986233,2.311328 c 7.622649,0.694887 14.471701,2.637808 17.076814,4.844303 0.663627,0.562084 0.717638,0.571255 3.362503,0.571255 2.40094,0 2.791252,0.0508 3.654342,0.475648 1.677,0.825466 2.322842,2.367253 1.880891,4.490143 -0.81896,3.933834 -4.28359,6.841443 -8.40766,7.055941 -1.366917,0.07111 -1.436517,0.101617 -2.712447,1.189537 -3.488965,2.97485 -9.520269,5.918486 -30.305576,14.790937 -7.039901,3.005064 -13.041017,5.639445 -19.490225,8.555879 -1.062048,0.480266 -1.8593,0.941316 -1.771679,1.024548 0.198492,0.188593 5.481891,1.888814 9.681661,3.115634 7.6119,2.22355 27.147208,7.31975 27.42235,7.15371 0.121739,-0.0734 0.230978,-1.31655 0.26492,-3.0147 0.08375,-4.19059 -0.416216,-7.846653 -1.709273,-12.498967 -0.689914,-2.482255 -0.689914,-2.482255 -0.290319,-3.256274 0.246083,-0.476669 0.719652,-0.948593 1.232735,-1.228461 1.163269,-0.63451 5.65378,-2.041508 7.847154,-2.458711 1.832118,-0.348492 1.832118,-0.348492 1.744033,-1.575029 -0.101407,-1.412109 0.379594,-2.705056 1.199673,-3.224735 0.777846,-0.492931 8.236841,-2.599058 9.59624,-2.709607 1.072253,-0.08717 1.384909,-0.02377 2.343422,0.475686 1.599207,0.833255 1.893883,1.493233 1.712023,3.834381 -0.121988,1.570351 0.05943,3.42066 1.267463,12.92716 0.791259,6.226767 1.351771,11.369687 1.277513,11.721677 -0.257229,1.21937 -1.257515,1.85003 -5.04263,3.17936 -3.891248,1.36664 -5.938362,1.85932 -7.323353,1.76262 -0.925024,-0.0645 -0.925024,-0.0645 -1.062221,1.4626 -0.232642,2.58964 -0.401995,2.72536 -5.054074,4.05022 -3.54785,1.01038 -3.727252,1.04007 -6.197807,1.02533 -1.647691,-0.01 -3.157984,-0.14738 -4.286069,-0.39043 z m 9.932215,-2.37895 c 1.879442,-0.5264 3.4873,-1.05444 3.57302,-1.17344 0.08572,-0.11902 0.165569,-0.6059 0.177438,-1.08201 0.01183,-0.47608 0.255617,-2.7211 0.541658,-4.98891 0.85425,-6.77275 0.667544,-10.470927 -0.92266,-18.275511 -0.6016,-2.952624 -0.6016,-2.952624 -1.319874,-3.020159 -0.395047,-0.03714 -1.268034,0.03897 -1.939973,0.169211 -1.828281,0.354316 -6.8528,1.9875 -7.364708,2.393842 -0.4476,0.355294 -0.4476,0.355294 0.03551,1.84813 0.615813,1.902901 1.361213,5.526299 1.690911,8.219547 0.466587,3.81148 0.136177,9.58693 -0.588636,10.28906 -0.212995,0.20633 -0.824956,0.11425 -3.125691,-0.47036 -5.860721,-1.48914 -23.633225,-6.23888 -26.298311,-7.02828 -3.191612,-0.94535 -13.560262,-4.260828 -13.677751,-4.373605 -0.241394,-0.231703 0.779137,-0.890574 2.899854,-1.872191 4.708318,-2.17936 16.012323,-7.171153 22.23673,-9.819631 14.960195,-6.365555 22.410771,-9.775253 26.3415,-12.054986 1.27762,-0.740993 2.892303,-1.901658 3.819717,-2.7457 1.606533,-1.462101 1.606533,-1.462101 3.146708,-1.446314 2.087589,0.02136 3.422545,-0.441903 4.804125,-1.667282 1.540348,-1.366203 2.154359,-2.585667 2.194995,-4.359418 0.02878,-1.258338 -0.01945,-1.43957 -0.474468,-1.781414 C 78.861486,9.503621 76.386738,9.337602 74.599202,9.708553 73.208856,9.99707 73.208856,9.99707 72.620386,9.253264 71.280742,7.55999 66.44049,5.73471 60.751402,4.777418 52.319677,3.358633 39.921214,3.857106 27.402857,6.118179 23.845265,6.760751 18.576612,8.075896 15.903295,8.988657 c -5.043938,1.722168 -9.2870164,4.486228 -10.2628634,6.685518 -0.3875662,0.873482 -0.4215846,2.153787 -0.079798,3.004311 0.5765356,1.434749 6.0843464,5.968655 9.3168404,7.669405 0.980511,0.515898 1.419781,0.621935 2.576326,0.621935 0.76685,0 1.783138,-0.1347 2.258416,-0.299346 1.777074,-0.615601 5.193338,-2.211721 5.301959,-2.477127 0.06872,-0.168001 -0.338915,-0.608047 -1.045902,-1.128997 -4.254748,-3.135066 -7.606198,-6.253986 -7.809742,-7.267856 -0.191069,-0.951738 0.256495,-1.930833 1.315643,-2.878127 1.301122,-1.163704 3.09276,-1.936271 6.34685,-2.73679 5.528495,-1.360043 10.450277,-1.808336 20.076189,-1.828628 7.644788,-0.01606 9.649301,0.151585 13.356553,1.117384 3.898962,1.015745 6.424605,2.869555 6.385902,4.687223 -0.03752,1.762419 -2.817231,4.541546 -7.572373,7.570787 -6.38529,4.067716 -11.135841,6.357416 -29.09521,14.023452 -9.47098,4.042737 -20.4206049,9.217886 -22.1204595,10.454854 -1.3740001,0.999828 -1.3875347,1.635468 -0.055606,2.611418 4.1194015,3.01848 14.4548085,6.27654 41.5331495,13.09266 8.847274,2.22703 9.05413,2.26698 11.921496,2.30194 1.99797,0.0245 2.418868,-0.0459 5.578191,-0.93064 z m 9.287917,-5.9591 c 2.028635,-0.48049 7.35579,-2.37325 7.754459,-2.75517 0.247129,-0.23677 0.08246,-1.87088 -1.101881,-10.934631 -1.213473,-9.286674 -1.379863,-10.959763 -1.294647,-13.017819 0.111689,-2.6973 -0.02165,-2.981845 -1.488606,-3.177017 -1.165266,-0.155034 -9.079542,2.085555 -9.465276,2.679689 -0.221252,0.340777 -0.201698,1.164802 0.108908,4.589743 0.208216,2.295914 0.58513,5.640522 0.837589,7.432461 0.252458,1.791929 0.774253,5.943484 1.159546,9.225684 0.385292,3.2822 0.752721,6.05408 0.816505,6.15978 0.171529,0.28421 0.827398,0.23446 2.673403,-0.20272 z"
       id="path1369-8"
       inkscape:label="OutlineOuter" />
    <path
       style="display:inline;fill:#ffffff;stroke-width:0.20291"
       d="m 140.75399,66.351863 c -0.4464,-0.21127 -9.30211,-7.1071 -19.67936,-15.32407 -10.37724,-8.216959 -18.89359,-14.862309 -18.92521,-14.76744 -0.0316,0.09487 0.67768,4.592487 1.57623,9.994708 0.9465,5.690502 1.58172,10.059022 1.51009,10.385162 -0.21169,0.96387 -1.57274,1.86198 -5.623685,3.71092 -3.446958,1.57327 -4.046688,1.78461 -5.121587,1.8048 -1.404855,0.0264 -2.380642,-0.4305 -3.054294,-1.43013 -0.344677,-0.51147 -0.463016,-1.20235 -0.675859,-3.94578 -1.226117,-15.803947 -3.112911,-23.555392 -8.284613,-34.035376 -1.889027,-3.82794 -1.931375,-3.944792 -1.704298,-4.702709 0.128075,-0.427476 0.499297,-1.001418 0.824938,-1.275427 0.662938,-0.557825 9.044763,-4.17573 10.053365,-4.339404 0.397862,-0.06456 0.902334,0.02678 1.308838,0.236993 0.363798,0.188127 10.644725,8.096061 22.846495,17.573186 12.20178,9.477126 22.23624,17.231137 22.29881,17.231137 0.38261,0 -0.0435,-4.353284 -1.01293,-10.348421 -1.03025,-6.371186 -4.7789,-26.277849 -5.49235,-29.166279 -0.36137,-1.463049 -0.18511,-2.327679 0.63076,-3.094146 0.57487,-0.540066 10.00616,-3.228357 11.37099,-3.241183 0.93875,-0.0088 1.59438,0.379895 2.01604,1.195293 0.21905,0.42361 2.74678,14.300173 2.74678,15.079134 0,0.07166 0.47937,-0.189145 1.06528,-0.579568 2.7463,-1.830036 6.17088,-3.0615 10.14251,-3.64721 3.30665,-0.487642 8.87485,-0.302968 12.25115,0.406318 2.99128,0.628402 6.01958,1.675002 8.42368,2.911278 0.15639,0.08042 0.97289,-1.927862 2.0428,-5.024504 1.5182,-4.394105 3.02258,-6.504887 5.62152,-7.887474 1.66647,-0.886532 2.92292,-1.211023 5.31231,-1.371948 2.64257,-0.177977 3.68006,5.27e-4 4.44419,0.764674 1.00517,1.005168 0.87794,1.825518 -0.80714,5.204124 -3.30553,6.627616 -4.67163,11.294406 -4.66507,15.936468 0.002,1.743015 0.0616,2.00513 0.923,4.094249 1.34919,3.271994 1.35842,3.312296 0.9487,4.146639 -0.49093,0.999747 -1.06851,1.331312 -5.64694,3.241736 -5.31918,2.219519 -5.54591,2.187845 -7.49754,-1.047398 -3.17243,-5.258968 -7.57269,-9.503466 -12.1525,-11.722342 -2.99265,-1.44991 -4.90261,-1.897467 -8.12989,-1.905078 -3.03345,-0.0072 -3.90265,0.265179 -5.21434,1.633752 -1.95801,2.042918 -2.98201,6.626222 -2.73628,12.247273 0.19099,4.369083 1.27803,7.771253 3.46003,10.829065 3.92305,5.497668 11.57541,9.077048 19.50595,9.123878 3.78042,0.0223 5.37267,-0.33906 7.645,-1.73518 7.50118,-4.6087 8.29625,-4.98353 9.77273,-4.60722 2.49939,0.63701 3.53828,3.40986 2.17084,5.79405 -0.72282,1.26024 -1.66991,2.0955 -3.83511,3.38222 -6.03754,3.58799 -14.16657,5.7147 -21.73931,5.68743 -5.51258,-0.0198 -9.70586,-0.93314 -14.38583,-3.13321 -1.16036,-0.54549 -2.13838,-0.99181 -2.17334,-0.99181 -0.035,0 -0.0443,0.4498 -0.0208,0.99955 0.0736,1.71981 -0.14712,1.88047 -5.65444,4.11551 -2.66976,1.08347 -5.08238,1.97174 -5.36138,1.97392 -0.279,0.002 -0.87251,-0.16889 -1.31893,-0.38016 z m 5.89179,-3.22426 c 5.14195,-2.06654 4.86224,-1.75908 4.26807,-4.69145 -0.31898,-1.57424 -0.40733,-2.6484 -0.21783,-2.6484 0.0555,0 0.67183,0.42056 1.36965,0.93458 1.62326,1.19571 5.18836,2.93533 7.66043,3.73798 6.9189,2.24647 16.04906,1.92185 23.9018,-0.84983 8.02977,-2.83416 11.81786,-6.01101 9.96948,-8.36085 -0.86058,-1.09404 -2.26898,-0.64565 -6.57986,2.09483 -1.116,0.70946 -2.62261,1.63895 -3.348,2.06553 -5.18817,3.05097 -15.32224,1.97902 -22.5398,-2.38418 -4.84906,-2.93139 -8.19857,-7.366093 -9.6722,-12.80587 -0.5014,-1.85088 -0.5374,-2.269679 -0.53686,-6.245039 6.1e-4,-5.119013 0.37139,-7.29489 1.70034,-9.98073 1.47033,-2.971567 3.52577,-4.27989 7.0327,-4.476414 8.28672,-0.464376 16.8814,5.003614 22.76328,14.482144 0.53613,0.86396 1.11613,1.659999 1.2889,1.768978 0.22938,0.144691 0.93735,-0.06153 2.62452,-0.764481 4.92157,-2.050545 6.06425,-2.596617 6.06425,-2.898018 0,-0.16638 -0.43372,-1.366292 -0.96382,-2.666468 -0.96382,-2.363959 -0.96382,-2.363959 -0.96196,-5.407612 10e-4,-2.239741 0.10124,-3.472406 0.37815,-4.666935 0.78187,-3.372937 2.23363,-7.159801 4.41334,-11.512035 0.65587,-1.309591 1.1925,-2.565098 1.1925,-2.790015 0,-0.388014 -0.12887,-0.408941 -2.5183,-0.408941 -5.54851,0 -7.84497,1.78827 -9.83357,7.657459 -0.73546,2.170678 -2.63075,6.98701 -2.83137,7.195117 -0.0751,0.07787 -0.63869,-0.170745 -1.25249,-0.552482 -3.62337,-2.253448 -9.91,-3.748762 -15.76062,-3.748762 -6.75238,0 -12.32649,1.878102 -16.13824,5.437511 -0.9263,0.864979 -0.95826,0.877493 -1.06187,0.415716 -0.0588,-0.261858 -0.74028,-4.239617 -1.51449,-8.839462 -0.77422,-4.599845 -1.46596,-8.457676 -1.53721,-8.572956 -0.0713,-0.115282 -0.29609,-0.209602 -0.49966,-0.209602 -0.70235,0 -10.04155,2.653478 -10.2033,2.898987 -0.0892,0.135367 -0.11216,0.428741 -0.0511,0.651942 0.29027,1.060379 2.8745,14.308674 4.0523,20.774498 2.21762,12.174126 2.5602,14.621919 2.68414,19.1787 0.10626,3.9064 0.0972,4.03478 -0.2788,3.93646 -0.21375,-0.0559 -10.82277,-8.20343 -23.5756,-18.105631 C 103.37984,22.86967 92.69975,14.627094 92.399146,14.455037 c -0.527138,-0.301721 -0.684643,-0.254495 -4.434696,1.329685 -4.833526,2.041884 -5.302277,2.265444 -5.425975,2.587796 -0.05475,0.142675 0.651958,1.748423 1.570462,3.568329 3.304021,6.546525 5.739841,13.794788 6.805767,20.251921 0.571399,3.461401 1.164199,8.467645 1.549741,13.087705 0.409181,4.90334 0.356138,4.68807 1.225847,4.9751 0.587488,0.19389 0.903913,0.1787 1.699733,-0.0816 1.293382,-0.42305 7.551045,-3.31813 7.881045,-3.64613 0.20917,-0.20791 -0.12868,-2.59094 -1.7731,-12.506351 -1.11733,-6.737226 -2.009755,-12.268847 -1.983155,-12.292492 0.0266,-0.02364 1.101315,0.791596 2.388255,1.811644 17.61304,13.960439 39.15035,30.951099 39.46415,31.133049 0.22071,0.12797 0.49593,0.23546 0.61159,0.23885 0.11567,0.003 2.21579,-0.79983 4.66694,-1.78494 z m -91.012619,1.99567 c -5.72112,-1.24039 -27.570558,-7.00539 -35.103468,-9.2621 C 10.46445,52.845833 4.7152375,49.978573 4.0917808,47.663233 3.3382287,44.864752 7.1173593,42.663024 29.153378,33.062307 44.386716,26.425402 50.698506,23.304269 55.937527,19.817746 59.431216,17.492726 61.974059,15.172699 62.254838,14.05399 62.60416,12.662181 59.013842,11.009168 53.973784,10.24132 49.49141,9.558435 38.489242,9.657715 31.78878,10.441511 c -6.598239,0.771837 -11.783903,2.45279 -12.514686,4.056684 -0.210472,0.461935 -0.163289,0.589276 0.459803,1.240953 1.035025,1.082509 3.887273,3.470967 6.100111,5.108205 2.066395,1.528886 2.50071,2.154761 2.275764,3.279498 -0.182942,0.914707 -0.997046,1.516032 -3.724785,2.751252 -3.930526,1.779886 -5.838006,2.016939 -8.220239,1.021578 C 15.039906,27.429694 11.75717,25.220878 9.471086,23.3958 6.1796067,20.76807 5.1199042,19.336498 4.9455073,17.28211 4.6809927,14.166138 6.9424395,11.461076 12.007464,8.834849 17.633628,5.917669 27.478682,3.600676 39.704709,2.316414 43.952243,1.87024 53.081105,1.695322 56.363222,1.997222 c 7.527795,0.692431 14.319291,2.628491 16.933312,4.8272 0.665895,0.5601 0.719323,0.569243 3.326216,0.569243 2.366471,0 2.752244,0.05062 3.611859,0.473964 1.670247,0.822558 2.339175,2.358897 1.948123,4.474294 -0.724641,3.919947 -4.078508,6.817301 -8.138867,7.03104 -1.3458,0.07084 -1.413759,0.101256 -2.64854,1.185337 -3.376439,2.964347 -9.259374,5.897595 -29.560059,14.738726 -6.875761,2.994454 -12.73543,5.619542 -19.030844,8.525673 -1.036713,0.478574 -1.812843,0.937999 -1.724737,1.020945 0.199605,0.187915 5.44283,1.882149 9.608055,3.104629 7.549277,2.21569 26.911073,7.29391 27.178781,7.12846 0.118451,-0.0732 0.200031,-1.31191 0.197846,-3.00407 -0.0054,-4.1758 -0.57492,-7.818946 -1.947052,-12.454842 -0.732104,-2.473492 -0.732104,-2.473492 -0.35449,-3.244776 0.232547,-0.474988 0.689412,-0.945249 1.189253,-1.224125 1.133253,-0.632274 5.529764,-2.034301 7.682893,-2.450035 1.798499,-0.347263 1.798499,-0.347263 1.685938,-1.569466 -0.129588,-1.407124 0.317372,-2.695504 1.114771,-3.213357 0.756333,-0.491185 8.064037,-2.589877 9.401599,-2.700037 1.05503,-0.08689 1.364529,-0.02365 2.319763,0.47401 1.593734,0.830309 1.898031,1.487961 1.767916,3.820844 -0.08728,1.564803 0.13037,3.408583 1.520571,12.881524 0.910582,6.20479 1.570982,11.32954 1.505178,11.68031 -0.227945,1.21505 -1.200634,1.8435 -4.903508,3.16814 -3.806699,1.36179 -5.814084,1.85275 -7.18122,1.75638 -0.913096,-0.0644 -0.913096,-0.0644 -1.016274,1.45745 -0.174951,2.58049 -0.339024,2.71573 -4.89651,4.03592 -3.475708,1.00683 -3.651911,1.0364 -6.087306,1.02173 -1.624244,-0.01 -3.115739,-0.14688 -4.232728,-0.38906 z m 9.739691,-2.37057 c 1.84141,-0.52452 3.415103,-1.0507 3.497095,-1.1693 0.08199,-0.11859 0.150474,-0.60377 0.152182,-1.07818 0.0016,-0.4744 0.194839,-2.71149 0.429178,-4.9713 0.699845,-6.74884 0.438205,-10.433963 -1.292965,-18.211 -0.654933,-2.942199 -0.654933,-2.942199 -1.364309,-3.009506 -0.390156,-0.03702 -1.249014,0.03886 -1.908572,0.168622 -1.794596,0.353064 -6.712702,1.980477 -7.208732,2.385389 -0.433717,0.354039 -0.433717,0.354039 0.07379,1.841603 0.64691,1.896185 1.457652,5.506796 1.83914,8.190532 0.539881,3.79804 0.335425,9.55308 -0.364246,10.25275 -0.205605,0.2056 -0.810714,0.11384 -3.090686,-0.46869 -5.807832,-1.4839 -23.424859,-6.21688 -26.068253,-7.00348 -3.165627,-0.94201 -13.454996,-4.245793 -13.573173,-4.358177 -0.242782,-0.230881 0.749264,-0.887422 2.818931,-1.865581 4.594983,-2.171663 15.631933,-7.145836 21.711393,-9.784968 14.611817,-6.343081 21.883866,-9.740743 25.710316,-12.012431 1.243726,-0.738376 2.810867,-1.89495 3.707253,-2.736009 1.552781,-1.45694 1.552781,-1.45694 3.071176,-1.44121 2.058066,0.02132 3.364134,-0.440342 4.70016,-1.661395 1.489562,-1.361376 2.069164,-2.576543 2.071991,-4.344036 0.002,-1.25389 -0.04938,-1.434485 -0.505044,-1.775117 -0.71847,-0.537091 -3.161174,-0.702523 -4.91526,-0.332886 -1.36433,0.287504 -1.36433,0.287504 -1.959963,-0.45368 C 71.548307,7.227359 66.739239,5.408523 61.111737,4.454609 52.771291,3.040827 40.561294,3.537541 28.270117,5.790635 24.777089,6.430942 19.611678,7.741442 16.995891,8.650983 12.060516,10.367073 7.936367,13.121377 7.02069,15.3129 c -0.363678,0.870404 -0.370332,2.146181 -0.015614,2.993707 0.598373,1.429687 6.122255,5.947583 9.344036,7.642337 0.977261,0.514069 1.412451,0.619737 2.552393,0.619737 0.75584,0 1.754709,-0.134231 2.219708,-0.298292 1.73864,-0.613428 5.072364,-2.203908 5.173853,-2.468383 0.06424,-0.167407 -0.346808,-0.605904 -1.054585,-1.125009 -4.259453,-3.124006 -7.62825,-6.231911 -7.850147,-7.242201 -0.2083,-0.948383 0.212287,-1.924019 1.236353,-2.86797 1.258017,-1.159599 3.007717,-1.929435 6.198291,-2.727133 5.420578,-1.355238 10.26229,-1.801951 19.749576,-1.822166 7.534696,-0.01605 9.513949,0.151048 13.188245,1.113437 3.864304,1.012157 6.392591,2.859421 6.392591,4.670672 0,1.756205 -2.681468,4.525518 -7.304767,7.544067 -6.208246,4.053359 -10.842541,6.334973 -28.383181,13.973954 -9.250161,4.028464 -19.933971,9.185342 -21.5834612,10.41794 -1.3332878,0.996316 -1.3332878,1.629696 0,2.602206 4.1236142,3.00782 14.3790122,6.25439 41.2116442,13.04645 8.766994,2.21917 8.971718,2.25897 11.798651,2.29383 1.9698,0.0243 2.383176,-0.0457 5.478576,-0.92738 z m 9.029505,-5.93808 c 1.989425,-0.47878 7.200376,-2.36483 7.585305,-2.74543 0.238612,-0.23593 0.04201,-1.86428 -1.315548,-10.896022 -1.390954,-9.253901 -1.590069,-10.921084 -1.549268,-12.971876 0.05347,-2.687775 -0.08391,-2.971315 -1.533912,-3.165801 -1.15179,-0.154488 -8.905417,2.078194 -9.273145,2.670232 -0.210922,0.339578 -0.174355,1.160687 0.203673,4.573543 0.25341,2.287813 0.695107,5.620613 0.98155,7.406223 0.28644,1.78561 0.887874,5.922511 1.33652,9.193121 0.448645,3.27061 0.868972,6.03272 0.934059,6.13803 0.175032,0.28321 0.820439,0.23365 2.630766,-0.20202 z"
       id="path1369"
       inkscape:label="Outline" />
    <path
       style="display:inline;fill:#007ea6;stroke-width:0.0692073;stroke-linecap:square;stroke-miterlimit:1;stroke-opacity:0;paint-order:markers fill stroke;fill-opacity:1"
       d="M 54.396606,62.785444 C 49.178187,61.564857 31.110942,56.793229 24.661829,54.932375 17.132947,52.759963 12.399426,51.091654 9.5167637,49.594565 5.8503621,47.690452 5.4596058,47.011166 7.2835589,45.712398 8.9005964,44.560965 20.117739,39.229701 32.107305,33.914206 48.517858,26.638696 55.161993,23.143998 60.225321,19.124617 c 2.324095,-1.844916 4.082878,-4.113464 4.082878,-5.266256 0,-1.180798 -1.832171,-3.068658 -3.79948,-3.9149733 C 56.400346,8.1760161 54.765554,7.9907046 43.615576,8.0284818 34.652596,8.058848 32.618715,8.1660651 29.182905,8.7893017 20.706399,10.326896 17.271606,12.111474 17.271606,14.97793 c 0,1.091999 2.249863,3.484604 6.086065,6.472197 1.482392,1.15447 2.695258,2.167914 2.695258,2.252099 0,0.08419 -1.163484,0.690626 -2.585521,1.347648 -3.915646,1.809138 -5.585649,1.704908 -9.06388,-0.565703 -1.48307,-0.968158 -3.79453,-2.834651 -5.1365794,-4.14776 C 6.8513575,17.97291 6.8288463,17.933844 7.0247215,16.445351 7.1873413,15.209575 7.5287874,14.658871 8.9417262,13.353494 10.690391,11.737948 14.389487,9.727329 17.532437,8.6840716 22.798052,6.9362262 32.147884,5.1245395 39.913841,4.3472995 44.601654,3.8781298 55.870915,3.884493 59.276975,4.3582268 c 5.571395,0.774909 10.981896,2.5507129 12.898427,4.2334497 1.127292,0.9897745 1.328322,1.0426224 3.215717,0.8453517 1.107291,-0.1157367 2.587839,-0.051779 3.290109,0.1421288 1.24052,0.3425243 1.276853,0.3992722 1.276853,1.994352 0,3.067839 -2.719941,5.626611 -5.985267,5.630619 -1.591392,0.0019 -2.271657,0.357839 -5.104201,2.670292 -2.505279,2.045274 -9.191651,5.344393 -25.13294,12.40083 -25.319937,11.207909 -27.885398,12.447426 -27.167835,13.126267 0.538225,0.509183 12.682774,4.236141 22.52666,6.913052 17.735613,4.822963 19.731442,5.296789 20.224541,4.801479 1.27564,-1.281375 0.853791,-9.867173 -0.797809,-16.237665 -0.467201,-1.802071 -0.779489,-3.458829 -0.693973,-3.681682 0.211997,-0.552455 5.545648,-2.281941 7.737488,-2.508954 l 1.778206,-0.184174 0.568434,2.517114 c 1.484222,6.572335 1.721768,9.01773 1.470025,15.133016 -0.133863,3.251697 -0.351975,6.688362 -0.484701,7.637031 l -0.241321,1.724853 -2.608315,0.844814 c -3.524102,1.141439 -7.904406,1.30124 -11.650467,0.425038 z"
       id="path1578"
       inkscape:label="Z" />
    <path
       style="display:inline;fill:#007ea6;stroke-width:0.0692073;stroke-linecap:square;stroke-miterlimit:1;stroke-opacity:0;paint-order:markers fill stroke;fill-opacity:1"
       d="m 71.794016,56.066178 c -0.635122,-2.784374 -3.03878,-21.132501 -3.08378,-23.539791 l -0.05485,-2.93411 3.129976,-1.017484 c 1.721487,-0.559615 3.990721,-1.039003 5.042741,-1.065303 l 1.912763,-0.04782 0.251701,3.651639 c 0.138435,2.008401 0.870474,7.874724 1.626753,13.036274 0.894527,6.105075 1.258684,9.524849 1.042059,9.785866 -0.437777,0.527489 -7.637751,2.913224 -8.7919,2.913224 -0.645465,0 -0.947026,-0.219414 -1.075465,-0.782495 z"
       id="path1580"
       inkscape:label="i" />
    <path
       style="display:inline;fill:#007ea6;stroke-width:0.0692073;stroke-linecap:square;stroke-miterlimit:1;stroke-opacity:0;paint-order:markers fill stroke;fill-opacity:1"
       d="m 132.20344,57.219373 c -5.30359,-4.169995 -14.80736,-11.667686 -21.11948,-16.661538 -6.31212,-4.993849 -11.525543,-8.936672 -11.585384,-8.76183 -0.08387,0.245041 1.893374,13.182753 3.594654,23.520971 0.17577,1.068083 0.1472,1.090679 -3.60287,2.849676 -4.248351,1.992718 -5.238297,2.303013 -5.92306,1.856563 -0.331335,-0.216022 -0.67642,-2.30129 -1.137229,-6.87202 C 90.989658,38.863841 89.412456,32.787417 84.326,21.928925 c -0.887841,-1.89535 -1.490462,-3.556897 -1.339157,-3.692326 0.151307,-0.135427 2.207371,-1.067763 4.569037,-2.07186 l 4.293933,-1.825627 1.096582,0.801621 c 0.60312,0.440891 9.625765,7.39326 20.050325,15.449709 26.81957,20.727058 26.31779,20.346053 26.79546,20.346053 0.33505,0 0.38666,-1.122577 0.22784,-4.955797 -0.22094,-5.332513 -0.92253,-9.769617 -4.4589,-28.199939 -1.16987,-6.096942 -1.98957,-11.1939204 -1.82424,-11.3433226 0.34369,-0.3105732 8.99057,-2.7983656 9.72636,-2.7983656 0.26701,0 0.48547,0.091173 0.48547,0.2026047 0,0.9224221 2.9297,17.0802505 3.13831,17.3083215 0.14893,0.16283 1.06791,-0.334041 2.04219,-1.104162 4.22884,-3.342706 8.01055,-4.413779 15.51213,-4.393419 6.38292,0.01733 9.58434,0.665393 14.00901,2.835862 1.39283,0.683242 2.5845,1.182026 2.64815,1.108409 0.33694,-0.389729 0.99724,-1.933713 2.22627,-5.205738 2.9457,-7.8422844 4.14082,-9.0310864 9.59273,-9.541973 3.31711,-0.3108378 3.46944,-0.048432 1.85026,3.1872237 -1.87329,3.7434703 -3.61051,8.4166313 -4.21282,11.3326223 -0.82969,4.016767 -0.71205,6.563358 0.45855,9.926392 0.90444,2.598377 0.94608,2.905947 0.43007,3.177278 -1.13867,0.598738 -7.32543,3.161895 -7.63195,3.161895 -0.17296,0 -1.06495,-1.134616 -1.98219,-2.521371 -2.30488,-3.484689 -4.696,-6.185516 -7.33608,-8.286297 -7.6961,-6.123969 -17.57584,-7.338957 -21.18627,-2.605434 -1.95002,2.55661 -2.37531,4.378335 -2.52846,10.830623 -0.13395,5.643369 -0.0974,6.063303 0.73715,8.46297 1.96853,5.660517 5.89544,10.018848 11.43295,12.689017 4.22703,2.038258 6.58661,2.644013 11.23033,2.883048 5.44128,0.280096 6.89717,-0.107442 12.16709,-3.238693 5.01813,-2.981645 6.44301,-3.420964 7.01606,-2.163199 0.20458,0.449038 0.25301,1.137984 0.10762,1.530996 -0.6946,1.877557 -5.0594,4.48737 -10.59639,6.335818 -7.81215,2.607982 -16.46225,2.875098 -23.12705,0.714164 -2.35909,-0.76489 -6.03698,-2.524853 -7.82494,-3.744439 -0.57383,-0.391414 -1.17405,-0.712693 -1.33383,-0.713952 -0.15978,-0.0013 -0.18172,1.158547 -0.0488,2.577351 l 0.24173,2.579645 -1.08641,0.561806 c -0.59753,0.308991 -2.65272,1.172215 -4.5671,1.918271 l -3.4807,1.356466 z"
       id="path1582"
       inkscape:label="NC" />
  </g>
</svg>
