<?xml version="1.0" encoding="UTF-8" standalone="no"?>
<!-- Created with Inkscape (http://www.inkscape.org/) -->

<svg
   xmlns:dc="http://purl.org/dc/elements/1.1/"
   xmlns:cc="http://creativecommons.org/ns#"
   xmlns:rdf="http://www.w3.org/1999/02/22-rdf-syntax-ns#"
   xmlns:svg="http://www.w3.org/2000/svg"
   xmlns="http://www.w3.org/2000/svg"
   xmlns:sodipodi="http://sodipodi.sourceforge.net/DTD/sodipodi-0.dtd"
   xmlns:inkscape="http://www.inkscape.org/namespaces/inkscape"
   width="567.75757"
   height="84"
   id="svg2"
   version="1.1"
   inkscape:version="0.92.4 (5da689c313, 2019-01-14)"
   sodipodi:docname="zx81-w.svg">
  <defs
     id="defs4" />
  <sodipodi:namedview
     id="base"
     pagecolor="#ffffff"
     bordercolor="#666666"
     borderopacity="1.0"
     inkscape:pageopacity="0.0"
     inkscape:pageshadow="2"
     inkscape:zoom="1.4142136"
     inkscape:cx="199.63574"
     inkscape:cy="17.919779"
     inkscape:document-units="px"
     inkscape:current-layer="layer1"
     showgrid="false"
     inkscape:window-width="1629"
     inkscape:window-height="998"
     inkscape:window-x="51"
     inkscape:window-y="24"
     inkscape:window-maximized="0"
     fit-margin-top="0"
     fit-margin-left="0"
     fit-margin-right="0"
     fit-margin-bottom="0" />
  <metadata
     id="metadata7">
    <rdf:RDF>
      <cc:Work
         rdf:about="">
        <dc:format>image/svg+xml</dc:format>
        <dc:type
           rdf:resource="http://purl.org/dc/dcmitype/StillImage" />
        <dc:title />
      </cc:Work>
    </rdf:RDF>
  </metadata>
  <g
     inkscape:label="Calque 1"
     inkscape:groupmode="layer"
     id="layer1"
     transform="translate(-80.036789,-570.6495)">
    <g
       id="g3047"
       transform="translate(-4.7729708,73.715882)">
      <path
         style="fill:#f2f2f2"
         d="m 87.899876,579.41582 c 0,-0.60697 2.31471,-3.86947 5.143796,-7.25 l 5.1438,-6.14642 -4.6438,-0.30479 -4.643796,-0.30479 v -0.94521 -0.94521 h 6.999996 6.999998 v 0.91255 c 0,0.50191 -2.28894,3.65191 -5.086538,7 l -5.086552,6.08745 h 5.086552 5.086538 v 1.5 1.5 h -7.499998 -7.499996 z m 16.999994,0.55053 c 0,-0.30418 1.125,-2.20864 2.5,-4.23214 3.08915,-4.54609 3.08795,-4.75519 -0.0509,-8.87042 l -2.55089,-3.34439 h 1.93588 1.93588 l 1.72349,2.63037 1.72348,2.63038 2.21165,-2.77367 2.21164,-2.77367 1.18978,0.3966 1.18978,0.39659 -2.55191,3.75547 -2.55191,3.75546 3.09005,4.49124 3.09005,4.49123 h -2.02236 -2.02236 l -1.55136,-3 c -0.85325,-1.65 -1.89278,-3 -2.31007,-3 -0.41729,0 -1.55618,1.35 -2.53086,3 l -1.77214,3 h -1.44347 c -0.7939,0 -1.44346,-0.24887 -1.44346,-0.55305 z m 28.24781,-0.13251 -2.2522,-0.45412 -1.06888,-1.99722 -1.06887,-1.99722 1.43663,-2.19258 1.43664,-2.19259 -1.36298,-2.05276 -1.36298,-2.05276 1.35587,-1.85426 1.35587,-1.85426 h 4.78309 4.78309 l 1.35587,1.85426 1.35587,1.85426 -1.36298,2.05276 -1.36299,2.05276 1.43664,2.19259 1.43664,2.19258 -1.10625,2.06706 -1.10626,2.06706 -1.21481,0.0136 c -0.66815,0.008 -2.11482,0.18044 -3.21482,0.38428 -1.1,0.20384 -3.01349,0.16627 -4.25219,-0.0835 z m 6.25219,-4.81444 v -2 l -2.36534,-0.33466 -2.36533,-0.33467 -1.01745,1.01745 -1.01745,1.01745 0.6271,1.63418 0.6271,1.63419 2.75568,-0.31697 2.75569,-0.31697 z m 0.5,-7.5 v -2 h -3.5 -3.5 v 2 2 h 3.5 3.5 z m 8,11.5 v -1.5 h 2 2 v -6 -6 h -2 -2 v -0.875 -0.875 l 3.125,-0.625 c 1.71875,-0.34375 3.51875,-0.625 4,-0.625 h 0.875 v 7.5 7.5 h 2 2 v 1.5 1.5 h -6 -6 z M 88.899876,546.03406 v -3.48533 l 30.249994,-0.26467 30.25,-0.26466 v -4.5 -4.5 l -30.25,-0.26466 -30.249994,-0.26467 V 521.00474 509.5194 h 33.999994 34 v 3.5 3.5 h -30.5 -30.499998 v 4.5 4.5 h 30.499998 30.5 v 12 12 h -34 -33.999994 z M 162.89987,530.0194 v -19.5 h 3.5 3.5 v 19.5 19.5 h -3.5 -3.5 z m 12,-0.5 v -20 h 34 34 v 20 20 h -3.5 -3.5 v -16.5 -16.5 h -26.5 -26.5 v 16.5 16.5 h -4 -4 z m 74,0.5 v -19.5 h 34 34 v 2.98534 2.98533 l -30.25,0.26467 -30.25,0.26466 -0.27988,12.75 -0.27987,12.75 h 30.52987 30.52988 v 3.5 3.5 h -34 -34 z m 74,-6.5 v -26 h 3.5 3.5 v 26 26 h -3.5 -3.5 z m 13,14.5 v -11.5 h 30 30 v -5 -5 h -30 -30 v -3 -3 h 34 34 v 19.5 19.5 h -34 -34 z m 60,-0.5 v -5 h -26.5 -26.5 v 5 5 h 26.5 26.5 z m 13,-7.5 v -19.5 h 4 4 v 19.5 19.5 h -4 -4 z m 14,0 v -19.5 h 34 34 v 2.98534 2.98533 l -30.25,0.26467 -30.25,0.26466 -0.27477,16.25 -0.27477,16.25 h -3.47523 -3.47523 z m -260,-29 v -3.5 h 3.5 3.5 v 3.5 3.5 h -3.5 -3.5 z m 246,0 v -3.5 h 4 4 v 3.5 3.5 h -4 -4 z"
         id="path3049"
         inkscape:connector-curvature="0" />
    </g>
    <polygon
       transform="translate(78.335252,572.92302)"
       style="fill:#ca2825"
       points="369.855,62.285 404.062,62.285 464.167,2.173 429.958,2.173 "
       id="polygon42" />
    <polygon
       transform="translate(78.335252,572.92302)"
       style="fill:#fdc601"
       points="404.138,62.285 438.347,62.285 498.451,2.173 464.244,2.173 "
       id="polygon44" />
    <polygon
       transform="translate(78.335252,572.92302)"
       style="fill:#009c37"
       points="438.398,62.285 472.605,62.285 532.71,2.173 498.501,2.173 "
       id="polygon46" />
    <polygon
       transform="translate(78.335252,572.92302)"
       style="fill:#02559c"
       points="472.617,62.285 506.826,62.285 566.929,2.173 532.722,2.173 "
       id="polygon48" />
  </g>
</svg>
