<svg xmlns="http://www.w3.org/2000/svg" width="567.758" height="84">
    <path style="fill:#000" d="M87.9 579.416c0-.607 2.315-3.87 5.144-7.25l5.143-6.147-4.643-.304-4.644-.305v-1.891h14v.913c0 .502-2.29 3.652-5.087 7l-5.086 6.087H102.9v3h-15zm17 .55c0-.304 1.125-2.208 2.5-4.232 3.089-4.546 3.088-4.755-.051-8.87l-2.55-3.345h3.871l1.723 2.63 1.724 2.631 2.211-2.774 2.212-2.773 1.19.396 1.19.397-2.552 3.755-2.552 3.756 3.09 4.491 3.09 4.491h-4.045l-1.551-3c-.853-1.65-1.893-3-2.31-3-.418 0-1.556 1.35-2.531 3l-1.772 3h-1.444c-.794 0-1.443-.248-1.443-.553zm28.248-.132-2.253-.454-1.068-1.997-1.07-1.998 1.437-2.192 1.437-2.193-1.363-2.053-1.363-2.052 1.356-1.855 1.356-1.854h9.566l1.356 1.854 1.356 1.855-1.363 2.052-1.363 2.053 1.436 2.193 1.437 2.192-1.106 2.067-1.106 2.067-1.215.014c-.668.008-2.115.18-3.215.384-1.1.204-3.014.167-4.252-.083zm6.252-4.815v-2l-2.365-.334-2.366-.335-1.017 1.018-1.018 1.017.627 1.634.628 1.634 2.755-.317 2.756-.317zm.5-7.5v-2h-7v4h7zm8 11.5v-1.5h4v-12h-4v-1.75l3.125-.625c1.719-.343 3.519-.625 4-.625h.875v15h4v3h-12zm-59-32.985v-3.485l30.25-.265 30.25-.265v-9l-30.25-.264-30.25-.265V509.52h68v7h-61v9h61v24h-68zm74-16.015v-19.5h7v39h-7zm12-.5v-20h68v40h-7v-33h-53v33h-8zm74 .5v-19.5h68v5.971l-30.25.265-30.25.264-.28 12.75-.28 12.75h61.06v7h-68zm74-6.5v-26h7v52h-7zm13 14.5v-11.5h60v-10h-60v-6h68v39h-68zm60-.5v-5h-53v10h53zm13-7.5v-19.5h8v39h-8zm14 0v-19.5h68v5.971l-30.25.265-30.25.264-.275 16.25-.275 16.25h-6.95zm-260-29v-3.5h7v7h-7zm246 0v-3.5h8v7h-8z" transform="translate(-84.81 -496.934)"/>
    <path transform="translate(-.287 2.274)" style="fill:#ca2825" d="M369.855 62.285h34.207l60.105-60.112h-34.209z"/>
    <path transform="translate(-.287 2.274)" style="fill:#fdc601" d="M404.138 62.285h34.209l60.104-60.112h-34.207z"/>
    <path transform="translate(-.287 2.274)" style="fill:#009c37" d="M438.398 62.285h34.207L532.71 2.173h-34.209z"/>
    <path transform="translate(-.287 2.274)" style="fill:#02559c" d="M472.617 62.285h34.209l60.103-60.112h-34.207z"/>
</svg>
