<?xml version="1.0" encoding="utf-8"?>
<!-- Generator: Adobe Illustrator 23.0.3, SVG Export Plug-In . SVG Version: 6.00 Build 0)  -->
<svg version="1.1" baseProfile="tiny" id="Layer_2" xmlns="http://www.w3.org/2000/svg" xmlns:xlink="http://www.w3.org/1999/xlink"
	 x="0px" y="0px" viewBox="0 0 56 56" xml:space="preserve">
<title>game_info_developer</title>
<path fill="#666666" d="M55.8,50.5V28.6c0-4.5-3.7-8.3-8.3-8.3l-9.2,10.8v2.4h-0.5H17.1c-2,0-3.6,1.6-3.6,3.6s1.6,3.6,3.6,3.6h20.7
	c0,0,0.8-0.1,0.9-0.1c0.9,0,1.6-0.4,2.2-1l7.1-7.7c0.2-0.2,0.6-0.3,0.9-0.1s0.3,0.6,0.1,0.9l-7.2,7.8c-0.8,0.9-1.9,1.4-3.1,1.4h-0.3
	v8.5"/>
<circle fill="#666666" cx="36.9" cy="14.6" r="9.1"/>
<path fill="#666666" d="M-0.1,25.2l6.5,19c0.2,0.6,0.8,1,1.4,1H31c0.8,0,1.5-0.6,1.5-1.5c0-0.8-0.6-1.5-1.5-1.5l0,0H8.9L2.7,24.2
	c-0.3-0.8-1.1-1.2-1.9-0.9C0.1,23.6-0.3,24.4-0.1,25.2z"/>
</svg>
