<?xml version="1.0" encoding="utf-8"?>
<!-- Generator: Adobe Illustrator 23.0.3, SVG Export Plug-In . SVG Version: 6.00 Build 0)  -->
<svg version="1.1" baseProfile="tiny" id="Layer_1" xmlns="http://www.w3.org/2000/svg" xmlns:xlink="http://www.w3.org/1999/xlink"
	 x="0px" y="0px" viewBox="0 0 45 45" xml:space="preserve">
<g>
	<g>
		<path fill="#666666" d="M34.7,39.5v-7.1c0-2.4-1.1-4.7-2.9-6.4l-4.1-3.6l4.1-3.6c1.8-1.6,2.9-3.9,2.9-6.4V5.5
			c1.1-0.4,1.9-1.4,1.9-2.6c0-1.6-1.3-2.8-2.8-2.8H11.3C9.7,0,8.4,1.3,8.4,2.8c0,1.2,0.8,2.3,1.9,2.6v7.1c0,2.4,1.1,4.7,2.9,6.4
			l4.1,3.6l-4.1,3.6c-1.8,1.6-2.9,3.9-2.9,6.4v7.1c-1.1,0.4-1.9,1.4-1.9,2.6c0,1.6,1.3,2.8,2.8,2.8h22.5c1.6,0,2.8-1.3,2.8-2.8
			C36.6,41,35.8,39.9,34.7,39.5z M32.8,39.4H12.2v-6.9c0-1.9,0.8-3.7,2.2-4.9l4.9-4.3c0.2-0.2,0.3-0.4,0.3-0.7
			c0-0.3-0.1-0.5-0.3-0.7l-4.9-4.3c-1.4-1.2-2.2-3-2.2-4.9V5.6h20.6v6.9c0,1.9-0.8,3.7-2.2,4.9l-4.9,4.3c-0.2,0.2-0.3,0.4-0.3,0.7
			c0,0.3,0.1,0.5,0.3,0.7l4.9,4.3c1.4,1.2,2.2,3,2.2,4.9L32.8,39.4L32.8,39.4z"/>
	</g>
</g>
<g>
	<g>
		<path fill="#666666" d="M30.7,36l-7.5-9.4c-0.4-0.4-1.1-0.4-1.5,0L14.3,36c-0.2,0.3-0.3,0.7-0.1,1c0.2,0.3,0.5,0.5,0.8,0.5h15
			c0.4,0,0.7-0.2,0.8-0.5C31,36.6,31,36.3,30.7,36z"/>
	</g>
</g>
<g>
	<g>
		<path fill="#666666" d="M27.1,15.6C27,15.2,26.6,15,26.3,15h-7.5c-0.4,0-0.7,0.2-0.9,0.6c-0.1,0.4-0.1,0.8,0.2,1l3.8,3.8
			c0.2,0.2,0.4,0.3,0.7,0.3s0.5-0.1,0.7-0.3l3.8-3.8C27.2,16.3,27.3,15.9,27.1,15.6z"/>
	</g>
</g>
</svg>
