<?xml version="1.0" encoding="utf-8"?>
<!-- Generator: Adobe Illustrator 23.0.3, SVG Export Plug-In . SVG Version: 6.00 Build 0)  -->
<svg version="1.1" baseProfile="tiny" id="Capa_1" xmlns="http://www.w3.org/2000/svg" xmlns:xlink="http://www.w3.org/1999/xlink"
	 x="0px" y="0px" viewBox="0 0 47 47" xml:space="preserve">
<g>
	<g id="Layer_1_65_">
		<g>
			<path fill="#666666" d="M46.9,20.1c-0.2-0.3-0.5-0.6-0.9-0.6h-2.9C41.2,9.5,32.4,1.8,21.7,1.8C9.7,1.8,0,11.5,0,23.5
				s9.7,21.7,21.7,21.7c7.7,0,14.9-4.2,18.8-10.9c0.5-0.9,0.2-2.2-0.7-2.7s-2.2-0.2-2.7,0.7c-3.2,5.5-9.1,8.9-15.4,8.9
				c-9.8,0-17.8-8-17.8-17.8s8-17.8,17.8-17.8c8.4,0,15.5,5.9,17.3,13.8h-2.9c-0.4,0-0.7,0.2-0.9,0.6c-0.2,0.3-0.1,0.8,0.1,1.1
				l4.9,5.9c0.2,0.2,0.5,0.4,0.8,0.4s0.6-0.1,0.8-0.4l4.9-5.9C47,20.9,47.1,20.5,46.9,20.1z"/>
			<path fill="#666666" d="M21.7,6.7c-1.1,0-2,0.9-2,2v12c-0.9,0.6-1.5,1.7-1.5,2.8c0,1.9,1.6,3.5,3.5,3.5c0.5,0,1-0.1,1.5-0.3
				l6.9,4c0.3,0.2,0.6,0.3,1,0.3c0.7,0,1.3-0.4,1.7-1c0.5-0.9,0.2-2.2-0.7-2.7l-6.9-4c-0.1-1-0.6-2-1.4-2.5v-12
				C23.7,7.6,22.8,6.7,21.7,6.7z M21.7,25c-0.8,0-1.5-0.7-1.5-1.5s0.7-1.5,1.5-1.5s1.5,0.7,1.5,1.5S22.5,25,21.7,25z"/>
		</g>
	</g>
</g>
</svg>
