<?xml version="1.0" encoding="utf-8"?>
<!-- Generator: Adobe Illustrator 23.0.3, SVG Export Plug-In . SVG Version: 6.00 Build 0)  -->
<svg version="1.1" baseProfile="tiny" id="Capa_1" xmlns="http://www.w3.org/2000/svg" xmlns:xlink="http://www.w3.org/1999/xlink"
	 x="0px" y="0px" viewBox="0 0 480.1 480.1" xml:space="preserve">
<g>
	<g>
		<path fill="#666666" d="M232,0c0,17.7,14.3,32,32,32h40c8.8,0,16,7.2,16,16s-7.2,16-16,16H176c-17.7,0-32,14.3-32,32
			s14.3,32,32,32h40c8.8,0,16,7.2,16,16v16h-16v32h-88c-4.7,0-9.4,0.3-14.1,0.8C58.7,198.8,7,250.3,0.8,305.5
			c-8,70.2,42.4,133.7,112.6,141.7c28.6,3.3,57.5-3.2,81.9-18.3c10.5-6.9,22.6-11.2,35.1-12.4c6.2-0.5,12.4-0.5,18.6-0.1
			c12.7,1.2,25,5.5,35.7,12.5c60.1,37.2,139,18.5,176.2-41.6c15.2-24.5,21.6-53.3,18.3-81.9c-6.1-55.1-57.9-106.7-113.1-112.6
			c-4.7-0.5-9.4-0.8-14.1-0.8h-88v-32h-16v-16c0-17.7-14.3-32-32-32h-40c-8.8,0-16-7.2-16-16s7.2-16,16-16h128c17.7,0,32-14.3,32-32
			s-14.3-32-32-32h-40c-8.8,0-16-7.2-16-16 M232,173h16v16h-16V173z"/>
	</g>
</g>
<g>
	<g>
		<path d="M184,293h-32v-32c0-4.4-3.6-8-8-8h-32c-4.4,0-8,3.6-8,8v32H72c-4.4,0-8,3.6-8,8v32c0,4.4,3.6,8,8,8h32v32c0,4.4,3.6,8,8,8
			h32c4.4,0,8-3.6,8-8v-32h32c4.4,0,8-3.6,8-8v-32C192,296.6,188.5,293,184,293z"/>
	</g>
</g>
<g>
	<g>
		<path d="M352,237c-17.7,0-32,14.3-32,32s14.3,32,32,32s32-14.3,32-32S369.7,237,352,237z"/>
	</g>
</g>
<g>
	<g>
		<path d="M352,333c-17.7,0-32,14.3-32,32s14.3,32,32,32s32-14.3,32-32S369.7,333,352,333z"/>
	</g>
</g>
<g>
	<g>
		<path d="M296,285c-17.7,0-32,14.3-32,32s14.3,32,32,32s32-14.3,32-32S313.7,285,296,285z"/>
	</g>
</g>
<g>
	<g>
		<path d="M408,285c-17.7,0-32,14.3-32,32s14.3,32,32,32s32-14.3,32-32S425.7,285,408,285z"/>
	</g>
</g>
</svg>
