<?xml version="1.0" encoding="utf-8"?>
<!-- Generator: Adobe Illustrator 23.0.3, SVG Export Plug-In . SVG Version: 6.00 Build 0)  -->
<svg version="1.1" baseProfile="tiny" id="Layer_1" xmlns="http://www.w3.org/2000/svg" xmlns:xlink="http://www.w3.org/1999/xlink"
	 x="0px" y="0px" viewBox="0 0 100 100" xml:space="preserve">
<title>game_info_genre</title>
<path fill="#666666" d="M9.1,48.9c-0.4-0.4-0.8-0.8-1.1-1.3C6.1,44,4.3,40.4,2.5,36.8c-1.1-2.4-0.3-4.5,1.4-6.4
	c1.5-1.6,1.5-1.6,0.6-4c-1.6,0.5-3.2,1.2-4.5-1c0.6-0.4,1.3-0.8,2-1.1c1.6-0.6,2.3-1.4,1.9-3.2c-0.1-1.2-0.1-2.4,0.1-3.7
	c0.3-3.4,2.3-6.4,5.4-7.9c5.8-3,11.6-5.8,17.6-8.4c4.5-2,8.6-0.5,11.9,2.7c1.6,1.6,2.9,1.8,4.6,0.6c0.5-0.3,1.1-0.5,1.6-0.7
	c0.9,2.3-0.7,3.2-2.1,4.2c0.7,1.6,1.6,2.3,3.5,2.1c3.1-0.3,5,0.9,6.3,3.8c1.8,4,3.6,8,5.3,12.1c1.2,2.9,1,3.5-1.8,4.8
	c-2,0.9-3.9,1.9-5.9,2.8c-0.3,0.1-0.5,0.1-0.8,0.2c-0.7-0.9-1.4-1.7-2.1-2.7L19.6,44.5c0.3,1.1,0.5,2.2,0.9,3.6
	c-2.1,0.9-4.3,1.8-6.5,2.7C12.4,50.2,10.7,49.5,9.1,48.9z M39.4,9.7c-1.3-1.4-2.5-2.8-3.8-4c-1.9-2-4.9-2.5-7.4-1.3
	c-5.7,2.6-11.4,5.3-17,8.1c-2.1,0.9-3.5,3-3.6,5.3c0,2.3,0.3,4.5,0.5,6.8C13,23.6,35.2,13,39.4,9.7z M42,24.2L17.6,35.7
	c1.4,2.4,3.2,3,5.9,1.8c2.8-1.2,5.6-2.6,8.4-4c2.7-1.3,5.4-2.5,8-3.8C42.4,28.5,43,26.7,42,24.2z M46.1,18.4
	c1.2-0.2,1.9-1.4,1.7-2.5c-0.1-1.2-1-2.1-2.2-2.3c-1.2-0.4-2.4,0.2-2.8,1.4c0,0,0,0,0,0c-0.6,1.6-1.7,3-3.2,4
	c-0.4,0.3-0.6,1.4-0.4,1.6c0.5,0.4,1.2,0.6,1.8,0.5C42.8,20.2,44.4,19.3,46.1,18.4z M10.6,35.3c1.8-0.8,3.7-1.5,5.4-2.3
	c0.5-0.4,0.7-1,0.7-1.6c-0.3-0.5-0.9-0.8-1.5-0.7c-1.7,0.5-3.5,0.5-5.1-0.1c-1.1-0.4-2.3,0-2.8,1.1c-0.7,1-0.6,2.3,0.2,3.2
	C8.3,35.8,9.6,36,10.6,35.3z M49.8,21.8c-1.3,0.6-1.9,2.1-1.3,3.4c0.7,1.2,2.1,1.7,3.3,1.2c1.3-0.6,1.9-2.1,1.3-3.4c0,0,0,0,0-0.1
	C52.5,21.8,51.1,21.3,49.8,21.8z M11.1,40.2c-1.3,0.6-1.8,2.1-1.2,3.3c0,0.1,0,0.1,0.1,0.2c0.6,1.2,2.1,1.8,3.4,1.1
	c1.2-0.6,1.8-2.1,1.1-3.4c0,0,0-0.1,0-0.1C13.8,40.1,12.4,39.6,11.1,40.2C11.2,40.2,11.1,40.2,11.1,40.2z"/>
<path fill="#666666" d="M76.6,33.1c-12.9,0-23.4,10.5-23.4,23.4S63.6,80,76.6,80C89.5,80,100,69.5,100,56.5
	C100,43.6,89.5,33.1,76.6,33.1z M61.5,72.3c-4.3-4.1-6.7-9.8-6.7-15.7c0-0.1,0-0.3,0-0.4l6.1,2.1l4.2,11L61.5,72.3z M66.5,40.1l11-4
	l7.9,7.4l-6.5,9.3l-12.1-2.3L66.5,40.1z M91.1,72.7c-0.5,0.4-0.9,0.8-1.4,1.2l-9.1,3.9l-5.9-6.2l7.7-8.7l10.3,1.3L91.1,72.7z
	 M94,43.5c2.8,3.8,4.3,8.3,4.3,13c0,0.1,0,0.3,0,0.4l-1.2-0.3l-3.7-10.5L94,43.5z"/>
<path fill="#666666" d="M31,97.4l2.4-3.6c1.5-2.3,3.3-3.8,4-3.4c0.6,0.4,1,1.9,1.6,3c0.3,0.7,0.8,1.3,1.5,1.7
	c1.9,1.3,4.6,0.8,5.9-1.1c1.3-1.9,0.8-4.6-1.1-5.9c0,0,0,0,0,0c-0.6-0.4-1.4-0.7-2.1-0.7c-1.2-0.1-2.7,0.1-3.4-0.3
	c-0.6-0.4,0.1-2.7,1.6-5l3-4.5c1.5-2.3,0.9-5.4-1.4-7L38.8,68c-2.3-1.5-3.9-3.2-3.5-3.8s1.7-0.9,2.9-1.4c0.7-0.3,1.3-0.8,1.7-1.5
	c1.3-1.9,0.8-4.6-1.2-5.9s-4.6-0.8-5.9,1.2c-0.4,0.6-0.7,1.4-0.7,2.1c-0.1,1.2,0.2,2.6-0.2,3.2s-2.5-0.2-4.8-1.8l-4.1-2.7
	c-2.3-1.5-5.4-0.9-7,1.4l-2.7,4.1c-1.5,2.3-2.3,4.5-1.6,5c0.7,0.4,2.1,0.3,3.4,0.3c0.8,0,1.5,0.3,2.1,0.7c1.9,1.3,2.4,3.9,1.1,5.9
	c-1.3,1.9-3.9,2.4-5.8,1.2c-0.6-0.4-1.1-1-1.5-1.7c-0.5-1.1-0.9-2.6-1.6-3c-0.7-0.4-2.5,1.1-4,3.4l-2.7,4.1c-1.5,2.3-0.9,5.4,1.4,7
	c0,0,0,0,0,0l4.1,2.7c2.3,1.5,4.5,2.3,4.9,1.8c0.4-0.6,0.2-2,0.2-3.2c0-0.8,0.3-1.5,0.7-2.1c1.3-1.9,3.9-2.5,5.9-1.2
	s2.5,3.9,1.2,5.9l0,0c-0.4,0.6-1,1.1-1.7,1.5c-1.1,0.5-2.5,0.8-2.9,1.4c-0.4,0.6,1.2,2.3,3.5,3.8l4.1,2.7
	C26.3,100.3,29.4,99.7,31,97.4C31,97.4,31,97.4,31,97.4z"/>
</svg>
