<?xml version="1.0" encoding="UTF-8" standalone="no"?>
<!-- Generator: Adobe Illustrator 23.0.3, SVG Export Plug-In . SVG Version: 6.00 Build 0)  -->

<svg
   version="1.1"
   id="Layer_1"
   x="0px"
   y="0px"
   viewBox="0 0 45 45"
   xml:space="preserve"
   sodipodi:docname="game_info_genre.svg"
   inkscape:version="1.2 (dc2aedaf03, 2022-05-15)"
   xmlns:inkscape="http://www.inkscape.org/namespaces/inkscape"
   xmlns:sodipodi="http://sodipodi.sourceforge.net/DTD/sodipodi-0.dtd"
   xmlns="http://www.w3.org/2000/svg"
   xmlns:svg="http://www.w3.org/2000/svg"><defs
   id="defs13" /><sodipodi:namedview
   id="namedview11"
   pagecolor="#505050"
   bordercolor="#ffffff"
   borderopacity="1"
   inkscape:showpageshadow="0"
   inkscape:pageopacity="0"
   inkscape:pagecheckerboard="1"
   inkscape:deskcolor="#505050"
   showgrid="false"
   inkscape:zoom="5.2444444"
   inkscape:cx="22.5"
   inkscape:cy="22.595339"
   inkscape:window-width="1920"
   inkscape:window-height="1017"
   inkscape:window-x="-8"
   inkscape:window-y="-8"
   inkscape:window-maximized="1"
   inkscape:current-layer="Layer_1" />
<title
   id="title2">game_info_genre</title>
<path
   fill="#666666"
   d="M4,22c-0.2-0.2-0.4-0.4-0.5-0.6c-0.9-1.6-1.7-3.3-2.5-4.9c-0.5-1.1-0.1-2,0.6-2.9c0.7-0.7,0.7-0.7,0.3-1.8  c-0.7,0.2-1.4,0.5-2-0.5c0.3-0.2,0.6-0.4,0.9-0.5c0.7-0.3,1-0.6,0.9-1.4c0-0.5,0-1.1,0-1.7c0.1-1.5,1-2.9,2.4-3.6  c2.6-1.4,5.2-2.6,8-3.8c2-0.9,3.9-0.2,5.4,1.2c0.7,0.7,1.3,0.8,2.1,0.3c0.2-0.1,0.5-0.2,0.7-0.3c0.4,1-0.3,1.4-0.9,1.9  c0.3,0.7,0.7,1,1.6,0.9c1.4-0.1,2.3,0.4,2.8,1.7c0.8,1.8,1.6,3.6,2.4,5.5c0.5,1.3,0.5,1.6-0.8,2.2c-0.9,0.4-1.8,0.9-2.7,1.3  c-0.1,0-0.2,0-0.4,0.1c-0.3-0.4-0.6-0.8-0.9-1.2L8.8,20c0.1,0.5,0.2,1,0.4,1.6c-0.9,0.4-1.9,0.8-2.9,1.2C5.5,22.6,4.7,22.2,4,22z   M17.7,4.2C17.1,3.6,16.6,3,16,2.4c-0.9-0.9-2.2-1.1-3.3-0.6C10.1,3,7.5,4.2,5,5.5C4,5.9,3.4,6.9,3.3,7.9c0,1,0.1,2,0.2,3.1  C5.8,10.5,15.8,5.7,17.7,4.2z M18.9,10.8L7.8,16c0.6,1.1,1.4,1.4,2.7,0.8c1.3-0.5,2.5-1.2,3.8-1.8c1.2-0.6,2.4-1.1,3.6-1.7  C19.1,12.7,19.3,11.9,18.9,10.8z M20.7,8.2c0.5-0.1,0.9-0.6,0.8-1.1c0-0.5-0.5-0.9-1-1c-0.5-0.2-1.1,0.1-1.3,0.6l0,0  C19,7.4,18.5,8,17.8,8.5c-0.2,0.1-0.3,0.6-0.2,0.7c0.2,0.2,0.5,0.3,0.8,0.2C19.2,9,20,8.6,20.7,8.2z M4.7,15.8  c0.8-0.4,1.7-0.7,2.4-1c0.2-0.2,0.3-0.5,0.3-0.7c-0.1-0.2-0.4-0.4-0.7-0.3C6,14,5.2,14,4.5,13.7c-0.5-0.2-1,0-1.3,0.5  c-0.3,0.5-0.3,1,0.1,1.4C3.6,16.1,4.2,16.1,4.7,15.8z M22.4,9.7c-0.6,0.3-0.9,0.9-0.6,1.5c0.3,0.5,0.9,0.8,1.5,0.5  c0.6-0.3,0.9-0.9,0.6-1.5c0,0,0,0,0,0C23.6,9.7,23,9.5,22.4,9.7z M4.9,18c-0.6,0.3-0.8,0.9-0.5,1.5c0,0,0,0,0,0.1  c0.3,0.5,0.9,0.8,1.5,0.5c0.5-0.3,0.8-0.9,0.5-1.5v0C6.1,18,5.5,17.8,4.9,18C5,18,4.9,18,4.9,18z"
   id="path4"
   style="fill:#ffffff" />
<path
   fill="#666666"
   d="M34.5,14.8c-5.8,0-10.6,4.7-10.6,10.6S28.7,36,34.5,36c5.8,0,10.6-4.7,10.6-10.6  C45.1,19.6,40.4,14.8,34.5,14.8z M27.7,32.6c-1.9-1.9-3-4.4-3-7.1c0,0,0-0.1,0-0.2l2.8,0.9l1.9,5L27.7,32.6z M30,18l5-1.8l3.6,3.3  l-2.9,4.2l-5.5-1L30,18z M41.1,32.7c-0.2,0.2-0.4,0.4-0.6,0.5L36.3,35l-2.7-2.8l3.5-3.9l4.7,0.6L41.1,32.7z M42.4,19.5  c1.3,1.7,1.9,3.8,1.9,5.9c0,0,0,0.1,0,0.2l-0.5-0.1l-1.7-4.7L42.4,19.5z"
   id="path6"
   style="fill:#ffffff" />
<path
   fill="#666666"
   d="M13.9,43.9l1.1-1.6c0.7-1,1.5-1.7,1.8-1.5c0.3,0.2,0.5,0.9,0.7,1.4c0.1,0.3,0.4,0.6,0.7,0.8  c0.9,0.6,2.1,0.4,2.7-0.5c0.6-0.9,0.4-2.1-0.5-2.7l0,0c-0.3-0.2-0.6-0.3-0.9-0.3c-0.5,0-1.2,0-1.5-0.1c-0.3-0.2,0-1.2,0.7-2.3l1.4-2  c0.7-1,0.4-2.4-0.6-3.2l-1.9-1.2c-1-0.7-1.8-1.4-1.6-1.7c0.2-0.3,0.8-0.4,1.3-0.6c0.3-0.1,0.6-0.4,0.8-0.7c0.6-0.9,0.4-2.1-0.5-2.7  c-0.9-0.6-2.1-0.4-2.7,0.5c-0.2,0.3-0.3,0.6-0.3,0.9c0,0.5,0.1,1.2-0.1,1.4c-0.2,0.3-1.1-0.1-2.2-0.8l-1.9-1.2  c-1-0.7-2.4-0.4-3.2,0.6l-1.2,1.9c-0.7,1-1,2-0.7,2.3c0.3,0.2,0.9,0.1,1.5,0.1c0.4,0,0.7,0.1,0.9,0.3c0.9,0.6,1.1,1.8,0.5,2.7  c-0.6,0.9-1.8,1.1-2.6,0.5C5.3,34,5,33.8,4.9,33.5c-0.2-0.5-0.4-1.2-0.7-1.4c-0.3-0.2-1.1,0.5-1.8,1.5l-1.2,1.9  c-0.7,1-0.4,2.4,0.6,3.2l0,0l1.9,1.2c1,0.7,2,1,2.2,0.8c0.2-0.3,0.1-0.9,0.1-1.4c0-0.4,0.1-0.7,0.3-0.9c0.6-0.9,1.8-1.1,2.7-0.5  c0.9,0.6,1.1,1.8,0.5,2.7l0,0c-0.2,0.3-0.5,0.5-0.8,0.7c-0.5,0.2-1.1,0.4-1.3,0.6c-0.2,0.3,0.5,1,1.6,1.7l1.9,1.2  C11.8,45.2,13.2,44.9,13.9,43.9L13.9,43.9z"
   id="path8"
   style="fill:#ffffff" />
</svg>
