<?xml version="1.0" encoding="utf-8"?>
<!-- Generator: Adobe Illustrator 23.0.3, SVG Export Plug-In . SVG Version: 6.00 Build 0)  -->
<svg version="1.1" baseProfile="tiny" id="Layer_2" xmlns="http://www.w3.org/2000/svg" xmlns:xlink="http://www.w3.org/1999/xlink"
	 x="0px" y="0px" viewBox="0 0 100 100" xml:space="preserve">
<title>game_info_developer</title>
<path fill="#666666" d="M100,88.7V51.1c0-7.8-6.3-14.2-14.2-14.2L69.9,55.4v4.2l-0.8,0l-35.8,0c-3.4,0-6.2,2.8-6.2,6.2
	c0,3.4,2.8,6.2,6.2,6.2h35.6c0,0,1.4-0.1,1.5-0.1c1.5,0,2.8-0.7,3.8-1.7l12.2-13.3c0.4-0.4,1.1-0.5,1.5-0.1c0.4,0.4,0.5,1,0.1,1.5
	L75.7,71.7c-1.4,1.5-3.3,2.4-5.4,2.4c0,0-0.5,0-0.5,0v14.6"/>
<circle fill="#666666" cx="67.5" cy="26.9" r="15.6"/>
<path fill="#666666" d="M3.8,45.2L15,77.9c0.4,1,1.3,1.7,2.4,1.8h39.9c1.4,0,2.5-1.1,2.5-2.5c0-1.4-1.1-2.5-2.5-2.5c0,0,0,0,0,0
	H19.2L8.6,43.5c-0.5-1.3-1.9-2-3.2-1.6C4.1,42.4,3.4,43.8,3.8,45.2z"/>
</svg>
