<?xml version="1.0" encoding="utf-8"?>
<!-- Generator: Adobe Illustrator 23.0.3, SVG Export Plug-In . SVG Version: 6.00 Build 0)  -->
<svg version="1.1" baseProfile="tiny" id="Capa_1" xmlns="http://www.w3.org/2000/svg" xmlns:xlink="http://www.w3.org/1999/xlink"
	 x="0px" y="0px" viewBox="0 0 48 48" xml:space="preserve">
<path fill="#666666" d="M48,32.1c-0.6-5.5-5.8-10.7-11.4-11.3c-0.5-0.1-0.9-0.1-1.4-0.1h-8.8v-3.2h-1.6v-1.6c0-1.8-1.4-3.2-3.2-3.2
	h-4c-0.9,0-1.6-0.7-1.6-1.6c0-0.9,0.7-1.6,1.6-1.6h12.9c1.8,0,3.2-1.4,3.2-3.2c0-1.8-1.4-3.2-3.2-3.2h-4c-0.9,0-1.6-0.7-1.6-1.6
	l-1.6,0c0,1.8,1.4,3.2,3.2,3.2h4c0.9,0,1.6,0.7,1.6,1.6c0,0.9-0.7,1.6-1.6,1.6H17.5c-1.8,0-3.2,1.4-3.2,3.2c0,1.8,1.4,3.2,3.2,3.2h4
	c0.9,0,1.6,0.7,1.6,1.6v1.6h-1.6v3.2h-8.8c-0.5,0-0.9,0-1.4,0.1C5.7,21.4,0.6,26.6-0.1,32.2c-0.8,7.1,4.3,13.4,11.3,14.2
	c2.9,0.3,5.8-0.3,8.2-1.8c1.1-0.7,2.3-1.1,3.5-1.2c0.6-0.1,1.2-0.1,1.9,0c1.3,0.1,2.5,0.6,3.6,1.3c6,3.7,14,1.9,17.7-4.2
	C47.7,37.9,48.3,35,48,32.1z M19.1,34.9c0,0.4-0.4,0.8-0.8,0.8h-3.2v3.2c0,0.4-0.4,0.8-0.8,0.8h-3.2c-0.4,0-0.8-0.4-0.8-0.8v-3.2
	H7.1c-0.4,0-0.8-0.4-0.8-0.8v-3.2c0-0.4,0.4-0.8,0.8-0.8h3.2v-3.2c0-0.4,0.4-0.8,0.8-0.8h3.2c0.4,0,0.8,0.4,0.8,0.8v3.2h3.2
	c0.5,0,0.8,0.4,0.8,0.8V34.9z M24.8,20.5h-1.6v-1.6h1.6V20.5z M35.2,25.3c1.8,0,3.2,1.4,3.2,3.2c0,1.8-1.4,3.2-3.2,3.2
	S32,30.3,32,28.5C32,26.7,33.4,25.3,35.2,25.3z M29.6,36.5c-1.8,0-3.2-1.4-3.2-3.2c0-1.8,1.4-3.2,3.2-3.2c1.8,0,3.2,1.4,3.2,3.2
	C32.8,35.1,31.4,36.5,29.6,36.5z M35.2,41.3c-1.8,0-3.2-1.4-3.2-3.2c0-1.8,1.4-3.2,3.2-3.2s3.2,1.4,3.2,3.2
	C38.4,39.9,37,41.3,35.2,41.3z M40.8,36.5c-1.8,0-3.2-1.4-3.2-3.2c0-1.8,1.4-3.2,3.2-3.2s3.2,1.4,3.2,3.2
	C44,35.1,42.6,36.5,40.8,36.5z"/>
</svg>
