<?xml version="1.0" encoding="UTF-8" standalone="no"?>
<!-- Generator: Adobe Illustrator 23.0.3, SVG Export Plug-In . SVG Version: 6.00 Build 0)  -->

<svg
   version="1.1"
   id="Layer_1"
   x="0px"
   y="0px"
   viewBox="0 0 45 45"
   xml:space="preserve"
   sodipodi:docname="game_info_publisher.svg"
   inkscape:version="1.2 (dc2aedaf03, 2022-05-15)"
   xmlns:inkscape="http://www.inkscape.org/namespaces/inkscape"
   xmlns:sodipodi="http://sodipodi.sourceforge.net/DTD/sodipodi-0.dtd"
   xmlns="http://www.w3.org/2000/svg"
   xmlns:svg="http://www.w3.org/2000/svg"><defs
   id="defs141" /><sodipodi:namedview
   id="namedview139"
   pagecolor="#505050"
   bordercolor="#ffffff"
   borderopacity="1"
   inkscape:showpageshadow="0"
   inkscape:pageopacity="0"
   inkscape:pagecheckerboard="1"
   inkscape:deskcolor="#505050"
   showgrid="false"
   inkscape:zoom="5.2444444"
   inkscape:cx="22.5"
   inkscape:cy="22.595339"
   inkscape:window-width="1920"
   inkscape:window-height="1017"
   inkscape:window-x="-8"
   inkscape:window-y="-8"
   inkscape:window-maximized="1"
   inkscape:current-layer="Layer_1" />
<title
   id="title132">game_info_publisher</title>
<path
   fill="#666666"
   d="M7,16.9h2.8v-2.8H7V16.9z M18.3,14.1h2.8v-2.8h-2.8V14.1z M23.9,14.1h2.8v-2.8h-2.8V14.1z M29.5,14.1h2.8  v-2.8h-2.8V14.1z M18.3,8.4h2.8V5.6h-2.8V8.4z M23.9,8.4h2.8V5.6h-2.8V8.4z M29.5,8.4h2.8V5.6h-2.8V8.4z M18.3,25.3h2.8v-2.8h-2.8  V25.3z M23.9,25.3h2.8v-2.8h-2.8V25.3z M29.5,25.3h2.8v-2.8h-2.8V25.3z M18.3,30.9h2.8v-2.8h-2.8V30.9z M29.5,30.9h2.8v-2.8h-2.8  V30.9z M18.3,36.6h2.8v-2.8h-2.8V36.6z M29.5,36.6h2.8v-2.8h-2.8V36.6z M38,33.8h2.8v-2.8H38V33.8z M38,25.3v2.8h2.8v-2.8H38z   M38,39.4h2.8v-2.8H38V39.4z M18.3,19.7h2.8v-2.8h-2.8V19.7z M23.9,19.7h2.8v-2.8h-2.8V19.7z M29.5,19.7h2.8v-2.8h-2.8V19.7z   M7,22.5h2.8v-2.8H7V22.5z M7,28.1h2.8v-2.8H7V28.1z M7,33.8h2.8v-2.8H7V33.8z M7,39.4h2.8v-2.8H7V39.4z M23.9,30.9h2.8v-2.8h-2.8  V30.9z"
   id="path134"
   style="fill:#ffffff" />
<path
   fill-rule="evenodd"
   fill="#666666"
   d="M43.6,42.2c0,1.5-1.3,2.8-2.8,2.8l0,0H4.2c-1.5,0-2.8-1.3-2.8-2.8l0,0V11.3  c0-1.5,1.3-2.8,2.8-2.8l0,0h8.4V2.8c0-1.5,1.3-2.8,2.8-2.8l0,0h19.7C36.7,0,38,1.3,38,2.8l0,0v16.9h2.8c1.5,0,2.8,1.3,2.8,2.8l0,0  V42.2z M12.7,11.3H4.2v30.9h8.4V11.3z M35.2,2.8H15.5v39.4h8.4v-8.4h2.8v8.4h8.4V2.8z M40.8,22.5H38v19.7h2.8V22.5z"
   id="path136"
   style="fill:#ffffff" />
</svg>
