<?xml version="1.0" encoding="UTF-8" standalone="no"?>
<!-- Generator: Adobe Illustrator 23.0.3, SVG Export Plug-In . SVG Version: 6.00 Build 0)  -->

<svg
   version="1.1"
   id="Layer_1"
   x="0px"
   y="0px"
   viewBox="0 0 100 100"
   xml:space="preserve"
   sodipodi:docname="game_info_rating.svg"
   inkscape:version="1.2 (dc2aedaf03, 2022-05-15)"
   xmlns:inkscape="http://www.inkscape.org/namespaces/inkscape"
   xmlns:sodipodi="http://sodipodi.sourceforge.net/DTD/sodipodi-0.dtd"
   xmlns="http://www.w3.org/2000/svg"
   xmlns:svg="http://www.w3.org/2000/svg"><defs
   id="defs9" /><sodipodi:namedview
   id="namedview7"
   pagecolor="#505050"
   bordercolor="#ffffff"
   borderopacity="1"
   inkscape:showpageshadow="0"
   inkscape:pageopacity="0"
   inkscape:pagecheckerboard="1"
   inkscape:deskcolor="#505050"
   showgrid="false"
   inkscape:zoom="2.36"
   inkscape:cx="50"
   inkscape:cy="50.211864"
   inkscape:window-width="1920"
   inkscape:window-height="1017"
   inkscape:window-x="-8"
   inkscape:window-y="-8"
   inkscape:window-maximized="1"
   inkscape:current-layer="Layer_1" />
<title
   id="title2">rating</title>
<path
   fill="#666666"
   d="M50,0C22.4,0,0,22.4,0,50s22.4,50,50,50s50-22.4,50-50S77.6,0,50,0L50,0z M48.9,58v0.1  c-0.2,1.2-0.8,2.2-1.7,3c-0.8,0.8-1.7,1.7-2.5,2.5s-1.7,1.7-2.5,2.5c-0.3,0.2-0.5,0.7-0.4,1.1c0.4,1.9,0.7,3.9,1,5.8l0.3,1.7  c0.1,0.7,0.1,1.4,0.1,2c-0.1,1.5-1.2,2.7-2.6,3c-0.1,0-0.2,0-0.4,0.1h0c-0.2,0.1-0.3,0.1-0.5,0.1l-1.3,0c-0.1,0-0.2,0-0.3,0  c-1.7-0.4-3.2-1.1-4.7-2c-0.6-0.4-1.2-0.7-1.8-1c-0.7-0.4-1.4-0.7-2-1c0,0-0.1,0-0.1,0c-0.1,0-0.1,0-0.2,0.1c-1.9,1-3.5,1.9-5.1,2.8  c-1.1,0.6-2.3,1.1-3.5,1.3c-0.1,0-0.1,0-0.2,0h-1.3c-0.2,0-0.4,0-0.6-0.1c-0.1,0-0.2-0.1-0.3-0.1c-0.5-0.1-1-0.3-1.4-0.7  c-1.1-1.1-1.5-2.7-1.1-4.2c0.4-2.6,0.8-5.2,1.3-7.7c0.1-0.3,0-0.7-0.3-0.9c-0.8-0.8-1.6-1.6-2.4-2.4c-0.9-0.9-1.8-1.8-2.7-2.7  c-0.9-0.7-1.5-1.8-1.7-3v-1.6c0-0.2,0-0.4,0.1-0.5c0.8-1.6,2.5-2.6,4.2-2.7c1.4-0.2,3-0.4,4.5-0.6c1.1-0.2,2.1-0.3,3.2-0.5  c0,0,0.1,0,0.1,0c0,0,0,0,0.1-0.1c1.5-3.1,2.6-5.5,3.7-7.7c0.6-1.4,2-2.3,3.6-2.3c0.8,0,1.7,0.3,2.3,0.8c0.6,0.5,1,1.1,1.3,1.8  l1.1,2.3c0.8,1.7,1.7,3.4,2.5,5.2c0,0,0,0.1,0.1,0.1c0,0,0.1,0,0.1,0c1.1,0.2,2.2,0.3,3.3,0.5c1.5,0.2,3.1,0.5,4.6,0.7  c1.8,0.1,3.3,1.2,4,2.8c0.1,0.1,0.1,0.3,0.1,0.5V58z M50,42.6c-0.1,0-0.1,0-0.2,0.1c-1.9,1-3.5,1.9-5.1,2.8  c-1.1,0.6-2.3,1.1-3.5,1.3c-0.1,0-0.1,0-0.2,0h-1.3c-0.2,0-0.4,0-0.6-0.1c-0.1,0-0.2-0.1-0.3-0.1c-0.5-0.1-1-0.3-1.4-0.7  c-1.1-1.1-1.5-2.7-1.1-4.2c0.4-2.6,0.8-5.2,1.3-7.7c0.1-0.3,0-0.7-0.3-0.9c-0.8-0.8-1.6-1.6-2.4-2.4c-0.9-0.9-1.8-1.8-2.7-2.7  c-0.9-0.7-1.5-1.8-1.7-3v-1.6c0-0.2,0-0.4,0.1-0.5c0.8-1.6,2.5-2.6,4.2-2.7c1.4-0.2,3-0.4,4.5-0.6c1.1-0.2,2.1-0.3,3.2-0.5  c0,0,0.1,0,0.1,0c0,0,0,0,0.1-0.1c1.5-3.1,2.6-5.5,3.7-7.7c0.6-1.4,2-2.3,3.6-2.3c0.8,0,1.7,0.3,2.3,0.8c0.6,0.5,1,1.1,1.3,1.8  l1.1,2.3c0.8,1.7,1.7,3.4,2.5,5.2c0,0,0,0.1,0.1,0.1c0,0,0.1,0,0.1,0c1.1,0.2,2.2,0.3,3.3,0.5c1.5,0.2,3.1,0.5,4.6,0.7  c1.8,0.1,3.3,1.2,4,2.8c0.1,0.1,0.1,0.3,0.1,0.5V25c-0.2,1.2-0.8,2.2-1.7,3c-0.8,0.8-1.7,1.7-2.5,2.5s-1.7,1.7-2.5,2.5  c-0.3,0.2-0.5,0.7-0.4,1.1c0.4,1.9,0.7,3.9,1,5.8l0.3,1.7c0.1,0.7,0.1,1.4,0.1,2c-0.1,1.5-1.2,2.7-2.6,3c-0.1,0-0.2,0-0.4,0.1h0  c-0.2,0.1-0.3,0.1-0.5,0.1l-1.3,0c-0.1,0-0.2,0-0.3,0c-1.7-0.4-3.2-1.1-4.7-2c-0.6-0.4-1.2-0.7-1.8-1c-0.7-0.4-1.4-0.7-2-1  C50.1,42.6,50,42.6,50,42.6z M90,58.1c-0.2,1.2-0.8,2.2-1.7,3c-0.8,0.8-1.7,1.7-2.5,2.5s-1.7,1.7-2.5,2.5c-0.3,0.2-0.5,0.7-0.4,1.1  c0.4,1.9,0.7,3.9,1,5.8l0.3,1.7c0.1,0.7,0.1,1.4,0.1,2c-0.1,1.6-1.4,2.9-3,3.1h0c-0.2,0.1-0.3,0.1-0.5,0.1l-1.3,0  c-0.1,0-0.2,0-0.3,0c-1.7-0.4-3.2-1.1-4.7-2c-0.6-0.4-1.2-0.7-1.8-1c-0.7-0.4-1.4-0.7-2-1c0,0-0.1,0-0.1,0c-0.1,0-0.1,0-0.2,0.1  c-1.9,1-3.5,1.9-5.1,2.8c-1.1,0.6-2.3,1.1-3.5,1.3c-0.1,0-0.1,0-0.2,0h-1.3c-0.2,0-0.4,0-0.6-0.1c-0.1,0-0.2-0.1-0.3-0.1  c-0.5-0.1-1-0.3-1.4-0.7c-1.1-1.1-1.5-2.7-1.1-4.2c0.4-2.6,0.8-5.2,1.3-7.7c0.1-0.3,0-0.7-0.3-0.9c-0.8-0.8-1.6-1.6-2.4-2.4  c-0.9-0.9-1.8-1.8-2.7-2.7c-0.9-0.7-1.5-1.8-1.7-3v-1.6c0-0.2,0-0.4,0.1-0.5c0.8-1.6,2.5-2.6,4.2-2.7c1.4-0.2,3-0.4,4.5-0.6  c1.1-0.2,2.1-0.3,3.2-0.5c0,0,0.1,0,0.1,0c0,0,0,0,0.1-0.1c1.5-3.1,2.6-5.5,3.7-7.7c0.6-1.4,2-2.3,3.6-2.3c0.8,0,1.7,0.3,2.3,0.8  c0.6,0.5,1,1.1,1.3,1.8l1.1,2.3c0.8,1.7,1.7,3.4,2.5,5.2c0,0,0,0.1,0.1,0.1c0,0,0.1,0,0.1,0c1.1,0.2,2.2,0.3,3.3,0.5  c1.5,0.2,3.1,0.5,4.6,0.7c1.8,0.1,3.3,1.2,4,2.8c0.1,0.1,0.1,0.3,0.1,0.5V58.1L90,58.1z"
   id="path4"
   style="fill:#ffffff" />
</svg>
