<?xml version="1.0" encoding="utf-8"?>
<!-- Generator: Adobe Illustrator 23.0.3, SVG Export Plug-In . SVG Version: 6.00 Build 0)  -->
<svg version="1.1" baseProfile="tiny" id="Layer_1" xmlns="http://www.w3.org/2000/svg" xmlns:xlink="http://www.w3.org/1999/xlink"
	 x="0px" y="0px" viewBox="0 0 100 100" xml:space="preserve">
<title>game_info_publisher</title>
<path fill="#666666" d="M17,38h6v-6h-6V38z M41,32h6v-6h-6V32z M53,32h6v-6h-6V32z M65,32h6v-6h-6V32z M41,20h6v-6h-6V20z M53,20h6
	v-6h-6V20z M65,20h6v-6h-6V20z M41,56h6v-6h-6V56z M53,56h6v-6h-6V56z M65,56h6v-6h-6V56z M41,68h6v-6h-6V68z M65,68h6v-6h-6V68z
	 M41,80h6v-6h-6V80z M65,80h6v-6h-6V80z M83,74h6v-6h-6V74z M83,56v6h6v-6H83z M83,86h6v-6h-6V86z M41,44h6v-6h-6V44z M53,44h6v-6
	h-6V44z M65,44h6v-6h-6V44z M17,50h6v-6h-6V50z M17,62h6v-6h-6V62z M17,74h6v-6h-6V74z M17,86h6v-6h-6V86z M53,68h6v-6h-6V68z"/>
<path fill-rule="evenodd" fill="#666666" d="M95,92c0,3.3-2.7,6-6,6c0,0,0,0,0,0H11c-3.3,0-6-2.7-6-6c0,0,0,0,0,0V26
	c0-3.3,2.7-6,6-6c0,0,0,0,0,0h18V8c0-3.3,2.7-6,6-6c0,0,0,0,0,0h42c3.3,0,6,2.7,6,6c0,0,0,0,0,0v36h6c3.3,0,6,2.7,6,6c0,0,0,0,0,0
	V92z M29,26H11v66h18V26z M77,8H35v84h18V74h6v18h18V8z M89,50h-6v42h6V50z"/>
</svg>
