<?xml version="1.0" encoding="UTF-8" standalone="no"?>
<!-- Generator: Adobe Illustrator 23.0.3, SVG Export Plug-In . SVG Version: 6.00 Build 0)  -->

<svg
   version="1.1"
   id="Capa_1"
   x="0px"
   y="0px"
   viewBox="0 0 47 47"
   xml:space="preserve"
   sodipodi:docname="game_info_gametime.svg"
   inkscape:version="1.3.2 (091e20e, 2023-11-25, custom)"
   xmlns:inkscape="http://www.inkscape.org/namespaces/inkscape"
   xmlns:sodipodi="http://sodipodi.sourceforge.net/DTD/sodipodi-0.dtd"
   xmlns="http://www.w3.org/2000/svg"
   xmlns:svg="http://www.w3.org/2000/svg"><defs
   id="defs144" /><sodipodi:namedview
   id="namedview142"
   pagecolor="#505050"
   bordercolor="#ffffff"
   borderopacity="1"
   inkscape:showpageshadow="0"
   inkscape:pageopacity="0"
   inkscape:pagecheckerboard="1"
   inkscape:deskcolor="#505050"
   showgrid="false"
   inkscape:zoom="8"
   inkscape:cx="2"
   inkscape:cy="22.3125"
   inkscape:window-width="2560"
   inkscape:window-height="1351"
   inkscape:window-x="-9"
   inkscape:window-y="-9"
   inkscape:window-maximized="1"
   inkscape:current-layer="Capa_1" />
<g
   id="g139"
   transform="translate(1.4000004)">
	<g
   id="Layer_1_65_"
   style="fill:#ffffff;fill-opacity:1">
		<g
   id="g136"
   style="fill:#ffffff;fill-opacity:1"><path
   id="path3"
   style="fill:none;fill-rule:evenodd;stroke:#ffffff;stroke-width:3.96946;paint-order:markers fill stroke"
   d="M 41.725153,23.292557 A 19.816212,19.816212 0 0 1 21.908941,43.108768 19.816212,19.816212 0 0 1 2.0927296,23.292557 19.816212,19.816212 0 0 1 21.908941,3.4763451 19.816212,19.816212 0 0 1 41.725153,23.292557 Z" />
			
			<path
   fill="#666666"
   d="m 21.7,6.7 c -1.1,0 -2,0.9 -2,2 v 12 c -0.9,0.6 -1.5,1.7 -1.5,2.8 0,1.9 1.6,3.5 3.5,3.5 0.5,0 1,-0.1 1.5,-0.3 l 6.9,4 c 0.3,0.2 0.6,0.3 1,0.3 0.7,0 1.3,-0.4 1.7,-1 0.5,-0.9 0.2,-2.2 -0.7,-2.7 l -6.9,-4 c -0.1,-1 -0.6,-2 -1.4,-2.5 V 8.8 C 23.7,7.6 22.8,6.7 21.7,6.7 Z m 0,18.3 c -0.8,0 -1.5,-0.7 -1.5,-1.5 0,-0.8 0.7,-1.5 1.5,-1.5 0.8,0 1.5,0.7 1.5,1.5 0,0.8 -0.7,1.5 -1.5,1.5 z"
   id="path134"
   style="fill:#ffffff;fill-opacity:1" />
		</g>
	</g>
</g>
</svg>
