<?xml version="1.0" encoding="utf-8"?>
<!-- Generator: Adobe Illustrator 23.0.3, SVG Export Plug-In . SVG Version: 6.00 Build 0)  -->
<svg version="1.1" baseProfile="tiny" id="Capa_1" xmlns="http://www.w3.org/2000/svg" xmlns:xlink="http://www.w3.org/1999/xlink"
	 x="0px" y="0px" viewBox="0 0 568.2 568.2" xml:space="preserve">
<g>
	<g>
		<path fill="#666666" d="M425.5,293.9c0.5-1.5,0.8-3.1,0.8-4.8c0-9-7.3-16.4-16.4-16.4H205.7c-9,0-16.4,7.3-16.4,16.4
			c0,1.7,0.3,3.3,0.8,4.8H425.5z"/>
		<path fill="#666666" d="M509.8,328h-52.1h-3.2h-3.2c0.9-2.3,1.4-4.7,1.4-7.3c0-11.4-9.2-20.6-20.6-20.6h-2.6H426h-4H193.6h-4h-3.5
			h-2.6c-11.4,0-20.6,9.2-20.6,20.6c0,2.6,0.5,5,1.4,7.3h-3.2h-3.2h-11.7c1.4-6.9-2.4-15-11.5-15s-12.9,8.1-11.5,15h-17.4
			c-9.8,0-17.7,7.9-17.7,17.7v62.5c-47.8,10.1-66.6,62.5-22.7,96.5c22.9,17.8,55.9,16.1,83.1,15.1c43.5-1.6,79.3,9.9,107.4,44.2
			c10,12.2,27.2-5.2,17.3-17.3c-22.9-27.9-53.1-45.1-88.7-50.5c-19.1-2.9-38.8-0.7-57.9-0.3c-11.2,0.2-22.1-1.4-32.9-4.2
			c-34.6-8.8-35.4-48.7-5.6-58.5V446c0,9.8,7.9,17.7,17.7,17.7h404c9.8,0,17.7-7.9,17.7-17.7V345.7C527.5,335.9,519.6,328,509.8,328
			z"/>
		<path fill="#666666" d="M259.7,147.9l20.4,97.6h-41c-7.2,0-13.1,5.9-13.1,13.1c0,3.1,1.1,5.8,2.9,8.1h158c1.8-2.2,2.9-5,2.9-8.1
			c0-7.2-5.9-13.1-13.1-13.1h-46.5l-22.7-108.7c20.7-13.2,34.5-36.2,34.5-62.6c0-41-33.2-74.2-74.2-74.2s-74.2,33.2-74.2,74.2
			C193.5,112.4,222.5,143.9,259.7,147.9z M291.9,31.7c20.3,10.4,27.2,35,18.4,55.2c-5.3,12.2-23.2,1.7-17.9-10.5
			c4.5-10.3-1.6-22-10.9-26.8C269.5,43.5,280,25.6,291.9,31.7z"/>
	</g>
</g>
</svg>
