<?xml version="1.0" encoding="UTF-8" standalone="no"?>
<svg
   width="23.799864"
   height="17.595659"
   viewBox="0 0 23.799864 17.595659"
   version="1.1"
   id="svg4"
   sodipodi:docname="gun.svg"
   inkscape:version="1.3.2 (091e20e, 2023-11-25, custom)"
   xmlns:inkscape="http://www.inkscape.org/namespaces/inkscape"
   xmlns:sodipodi="http://sodipodi.sourceforge.net/DTD/sodipodi-0.dtd"
   xmlns="http://www.w3.org/2000/svg"
   xmlns:svg="http://www.w3.org/2000/svg"
   xmlns:rdf="http://www.w3.org/1999/02/22-rdf-syntax-ns#"
   xmlns:cc="http://creativecommons.org/ns#"
   xmlns:dc="http://purl.org/dc/elements/1.1/">
  <metadata
     id="metadata10">
    <rdf:RDF>
      <cc:Work
         rdf:about="">
        <dc:format>image/svg+xml</dc:format>
        <dc:type
           rdf:resource="http://purl.org/dc/dcmitype/StillImage" />
      </cc:Work>
    </rdf:RDF>
  </metadata>
  <defs
     id="defs8" />
  <sodipodi:namedview
     pagecolor="#ffffff"
     bordercolor="#666666"
     borderopacity="1"
     objecttolerance="10"
     gridtolerance="10"
     guidetolerance="10"
     inkscape:pageopacity="0"
     inkscape:pageshadow="2"
     inkscape:window-width="2560"
     inkscape:window-height="1351"
     id="namedview6"
     showgrid="false"
     inkscape:zoom="19.666667"
     inkscape:cx="15.838983"
     inkscape:cy="5.1610169"
     inkscape:window-x="-9"
     inkscape:window-y="-9"
     inkscape:window-maximized="1"
     inkscape:current-layer="svg4"
     inkscape:showpageshadow="0"
     inkscape:pagecheckerboard="true"
     inkscape:deskcolor="#505050"
     showguides="true">
    <inkscape:grid
       id="grid1"
       units="px"
       originx="-0.043100996"
       originy="-3.0915075"
       spacingx="1"
       spacingy="1"
       empcolor="#0099e5"
       empopacity="0.30196078"
       color="#0099e5"
       opacity="0.14901961"
       empspacing="5"
       dotted="false"
       gridanglex="30"
       gridanglez="30"
       visible="false" />
  </sodipodi:namedview>
  <path
     inkscape:connector-curvature="0"
     d="M 0.41724916,13.299243 2.2926771,8.0227925 C 3.0804519,5.9003489 0.39012172,5.5260588 0.39012172,5.5260588 c -0.59785564,-0.3439447 0,-0.7182368 0,-0.7182368 C 1.0151015,4.9631148 1.4772917,4.0589646 1.4772917,4.0589646 L 1.830007,3.2155105 C 2.0204093,2.716269 2.0746696,2.6536629 1.8573825,1.6863513 1.6400921,0.7176796 2.3329019,0.7647027 2.4552337,0.9052353 2.5777974,1.0465826 2.9581254,1.2642173 3.2434809,0.9364129 3.5286044,0.6086025 4.2487886,0.6247321 4.2487886,0.6247321 L 4.5205798,0 H 4.8197421 L 5.1184354,0.6244591 H 10.390805 V 0.8117412 H 21.42416 V 0.4995094 h 0.218007 c 0.02667,-0.250162 0.189688,-0.4371714 0.189688,-0.4371714 0.897253,0 1.086936,0.7802969 1.086936,0.7802969 h 0.707093 c 0.407214,0.843454 -0.02808,1.7795941 -0.02808,1.7795941 H 22.81003 v 2.5287242 h -1.657658 l -0.135416,0.406283 h -4.131412 c -3.858661,0 -3.17918,3.7144843 -3.17918,3.7144843 C 10.798265,10.801696 8.9775813,9.8341145 8.9775813,9.8341145 7.5369778,9.4909915 7.2654228,10.895473 7.2654228,10.895473 l -0.9779366,4.464709 c -0.081639,0.780025 0.033778,1.247549 0.033778,1.247549 l -0.00173,0.06396 h 0.00173 v 0.630198 c 0,0 0.02262,0.341208 -0.3881712,0.28817 L 1.3730439,17.14933 c -0.1104326,0.21435 -0.3117754,0.358981 -0.5435855,0.358981 -0.35057026,0 -0.63402661,-0.326173 -0.63402661,-0.728078 0,-0.08039 0.014094,-0.141904 0.0347421,-0.194677 l -0.13875392,-0.0011 c -0.32631148,-2.09208 0.32580446,-3.285221 0.32580446,-3.285221 z M 2.1979537,0.9957318 c -0.1142351,0 -0.2072978,0.1063513 -0.2072978,0.238411 0,0.1315067 0.093057,0.23786 0.2072978,0.23786 0.1144745,0 0.2082468,-0.1063513 0.2082468,-0.23786 0,-0.1320594 -0.093534,-0.238411 -0.2082468,-0.238411 z m 5.7469398,7.3704587 c 0.081866,0.562668 0.5980896,0.874623 0.5980896,0.874623 1.7633299,0.680506 2.8957259,0.489122 3.7905969,0.180721 1.092173,-0.377299 1.019111,-1.586569 1.019111,-1.586569 0,-1.6541028 -1.49487,-1.6229351 -1.49487,-1.6229351 h -1.222594 c -0.6797218,1.8728261 0.978171,2.7168281 0.978171,2.7168281 0.218005,0.06179 0,0.249619 0,0.249619 -1.005303,-0.03116 -1.8202089,-1.904542 -1.8202089,-1.904542 L 9.819828,6.4933642 9.4399859,6.2120304 c -1.4951086,0 -1.5767401,1.5925861 -1.4951086,2.1541601 z M 0.41748858,16.779966 c 0,0.260555 0.18491964,0.472716 0.41173564,0.472716 0.22728828,0 0.41150048,-0.211888 0.41150048,-0.472716 0,-0.06644 -0.012436,-0.129597 -0.033561,-0.186743 l -0.75326884,-0.0063 c -0.0225872,0.05905 -0.0364321,0.124132 -0.0364321,0.193022"
     id="path2"
     style="fill:#ffffff;stroke-width:0.0725622" />
</svg>
