<?xml version="1.0" encoding="utf-8"?>
<svg viewBox="0 0 91 19" xmlns="http://www.w3.org/2000/svg" xmlns:bx="https://boxy-svg.com">
  <ellipse style="paint-order: stroke; stroke: rgb(102, 102, 102); fill: none;" transform="matrix(1, 0, -0.000001, 1, 2.179012, -2.888)" cx="7.321" cy="6.388" rx="3" ry="3" bx:origin="0.5 2.208"/>
  <ellipse style="stroke: rgb(102, 102, 102); fill: none;" transform="matrix(1, 0, -0.000001, 1, 2.116377, 9.112)" cx="7.321" cy="6.388" rx="3" ry="3" bx:origin="0.5 2.208"/>
  <ellipse style="stroke: rgb(102, 102, 102); fill-rule: evenodd; fill: none;" transform="matrix(1, 0, -0.000001, 1, -3.820991, 3.112001)" cx="7.321" cy="6.388" rx="3" ry="3" bx:origin="0.5 2.208"/>
  <ellipse style="stroke: rgb(102, 102, 102); fill: rgb(102, 102, 102);" transform="matrix(1, 0, -0.000001, 1, 8.179002, 3.112001)" cx="7.321" cy="6.388" rx="3" ry="3" bx:origin="0.5 2.208"/>
  <path d="M 24 15.85 L 24 3.25 L 26.3 3.25 L 26.3 13.8 L 31.48 13.8 L 31.48 15.85 L 24 15.85 Z M 40.57 15.85 L 39.53 12.86 L 34.94 12.86 L 33.9 15.85 L 31.66 15.85 L 36.15 3.25 L 38.32 3.25 L 42.81 15.85 L 40.57 15.85 Z M 35.66 10.85 L 38.81 10.85 L 37.24 6.35 L 35.66 10.85 Z M 49.014 16.1 L 49.014 16.1 C 47.287 16.1 45.987 15.6 45.114 14.6 L 45.114 14.6 L 45.114 14.6 C 44.234 13.6 43.794 12.217 43.794 10.45 L 43.794 10.45 L 43.794 3.25 L 46.104 3.25 L 46.104 9.86 L 46.104 9.86 C 46.104 10.733 46.18 11.46 46.334 12.04 L 46.334 12.04 L 46.334 12.04 C 46.487 12.627 46.777 13.08 47.204 13.4 L 47.204 13.4 L 47.204 13.4 C 47.63 13.727 48.234 13.89 49.014 13.89 L 49.014 13.89 L 49.014 13.89 C 49.794 13.89 50.397 13.727 50.824 13.4 L 50.824 13.4 L 50.824 13.4 C 51.25 13.08 51.54 12.627 51.694 12.04 L 51.694 12.04 L 51.694 12.04 C 51.854 11.46 51.934 10.733 51.934 9.86 L 51.934 9.86 L 51.934 3.25 L 54.234 3.25 L 54.234 10.45 L 54.234 10.45 C 54.234 12.217 53.797 13.6 52.924 14.6 L 52.924 14.6 L 52.924 14.6 C 52.044 15.6 50.74 16.1 49.014 16.1 L 49.014 16.1 Z M 56.868 15.85 L 56.868 3.25 L 59.128 3.25 L 64.518 11.39 L 64.518 3.25 L 66.818 3.25 L 66.818 15.85 L 64.928 15.85 L 59.168 7.21 L 59.168 15.85 L 56.868 15.85 Z M 75.293 16.1 L 75.293 16.1 C 74.02 16.1 72.897 15.83 71.923 15.29 L 71.923 15.29 L 71.923 15.29 C 70.943 14.75 70.183 13.987 69.643 13 L 69.643 13 L 69.643 13 C 69.103 12.007 68.833 10.857 68.833 9.55 L 68.833 9.55 L 68.833 9.55 C 68.833 8.257 69.113 7.113 69.673 6.12 L 69.673 6.12 L 69.673 6.12 C 70.227 5.133 71 4.367 71.993 3.82 L 71.993 3.82 L 71.993 3.82 C 72.98 3.273 74.103 3 75.363 3 L 75.363 3 L 75.363 3 C 76.577 3 77.663 3.247 78.623 3.74 L 78.623 3.74 L 78.373 5.93 L 78.373 5.93 C 77.86 5.703 77.367 5.527 76.893 5.4 L 76.893 5.4 L 76.893 5.4 C 76.413 5.273 75.9 5.21 75.353 5.21 L 75.353 5.21 L 75.353 5.21 C 74.067 5.21 73.08 5.607 72.393 6.4 L 72.393 6.4 L 72.393 6.4 C 71.7 7.193 71.353 8.243 71.353 9.55 L 71.353 9.55 L 71.353 9.55 C 71.353 10.857 71.693 11.907 72.373 12.7 L 72.373 12.7 L 72.373 12.7 C 73.047 13.493 74.02 13.89 75.293 13.89 L 75.293 13.89 L 75.293 13.89 C 75.86 13.89 76.38 13.83 76.853 13.71 L 76.853 13.71 L 76.853 13.71 C 77.327 13.59 77.833 13.41 78.373 13.17 L 78.373 13.17 L 78.623 15.36 L 78.623 15.36 C 77.583 15.853 76.473 16.1 75.293 16.1 L 75.293 16.1 Z M 80.555 15.85 L 80.555 3.25 L 82.855 3.25 L 82.855 8.24 L 88.615 8.24 L 88.615 3.25 L 90.915 3.25 L 90.915 15.85 L 88.615 15.85 L 88.615 10.4 L 82.855 10.4 L 82.855 15.85 L 80.555 15.85 Z" style="fill: rgb(102, 102, 102); white-space: pre;"/>
</svg>