<?xml version="1.0" encoding="UTF-8" standalone="no"?>
<!-- Generator: Adobe Illustrator 19.1.0, SVG Export Plug-In . SVG Version: 6.00 Build 0)  -->

<svg
   version="1.1"
   id="Capa_1"
   x="0px"
   y="0px"
   viewBox="0 0 202.978 202.978"
   style="enable-background:new 0 0 202.978 202.978;"
   xml:space="preserve"
   sodipodi:docname="manual.svg"
   inkscape:version="1.2 (dc2aedaf03, 2022-05-15)"
   xmlns:inkscape="http://www.inkscape.org/namespaces/inkscape"
   xmlns:sodipodi="http://sodipodi.sourceforge.net/DTD/sodipodi-0.dtd"
   xmlns="http://www.w3.org/2000/svg"
   xmlns:svg="http://www.w3.org/2000/svg"><defs
   id="defs45" /><sodipodi:namedview
   id="namedview43"
   pagecolor="#505050"
   bordercolor="#ffffff"
   borderopacity="1"
   inkscape:showpageshadow="0"
   inkscape:pageopacity="0"
   inkscape:pagecheckerboard="1"
   inkscape:deskcolor="#505050"
   showgrid="false"
   inkscape:zoom="1.1626876"
   inkscape:cx="101.489"
   inkscape:cy="101.91904"
   inkscape:window-width="1920"
   inkscape:window-height="1017"
   inkscape:window-x="-8"
   inkscape:window-y="-8"
   inkscape:window-maximized="1"
   inkscape:current-layer="Capa_1" />
<g
   id="g10">
	<g
   id="g8">
		<g
   id="g6">
			<g
   id="g4">
				<path
   style="fill:#fff;"
   d="M100.942,0.001C44.9,0.304-0.297,45.98,0.006,102.031      c0.293,56.051,45.998,101.238,102.02,100.945c56.081-0.303,101.248-45.978,100.945-102.02      C202.659,44.886,157.013-0.292,100.942,0.001z M101.948,186.436c-46.916,0.234-85.108-37.576-85.372-84.492      c-0.244-46.907,37.537-85.157,84.453-85.411c46.926-0.254,85.167,37.596,85.421,84.483      C186.695,147.951,148.855,186.182,101.948,186.436z M116.984,145.899l-0.42-75.865l-39.149,0.254l0.078,16.6l10.63-0.059      l0.313,59.237l-11.275,0.039l0.088,15.857l49.134-0.264l-0.098-15.847L116.984,145.899z M102.065,58.837      c9.575-0.039,15.349-6.448,15.3-14.323c-0.254-8.07-5.882-14.225-15.095-14.186c-9.184,0.059-15.173,6.292-15.134,14.362      C87.185,52.555,93.028,58.906,102.065,58.837z"
   id="path2" />
			</g>
		</g>
	</g>
</g>















</svg>
