<?xml version="1.0" encoding="UTF-8" standalone="no"?>
<!-- Generator: Adobe Illustrator 23.0.3, SVG Export Plug-In . SVG Version: 6.00 Build 0)  -->

<svg
   version="1.1"
   id="Capa_1"
   x="0px"
   y="0px"
   viewBox="0 0 45.2 45.2"
   xml:space="preserve"
   sodipodi:docname="starfav2.svg"
   inkscape:version="1.3.2 (091e20e, 2023-11-25, custom)"
   xmlns:inkscape="http://www.inkscape.org/namespaces/inkscape"
   xmlns:sodipodi="http://sodipodi.sourceforge.net/DTD/sodipodi-0.dtd"
   xmlns="http://www.w3.org/2000/svg"
   xmlns:svg="http://www.w3.org/2000/svg"><defs
   id="defs1" /><sodipodi:namedview
   id="namedview1"
   pagecolor="#505050"
   bordercolor="#eeeeee"
   borderopacity="1"
   inkscape:showpageshadow="0"
   inkscape:pageopacity="0"
   inkscape:pagecheckerboard="0"
   inkscape:deskcolor="#505050"
   inkscape:zoom="16"
   inkscape:cx="36.34375"
   inkscape:cy="24.90625"
   inkscape:window-width="2560"
   inkscape:window-height="1351"
   inkscape:window-x="-9"
   inkscape:window-y="-9"
   inkscape:window-maximized="1"
   inkscape:current-layer="Capa_1" />
<g
   id="g1">
	<path
   fill="#ffffff"
   d="M 43.2,15.80062 H 28.9 c -1.4,-4.2 -2.7,-8.3999996 -4.1,-12.5999996 l -0.3,-0.9 v 0 c -0.315107,-1.0593655 -2.470272,-2.26141568 -3.8,0.1 v 0 c -1.5,4.5 -2.9,8.9999996 -4.4,13.4999996 H 2 c -1.59388561,0 -3.0060865,2.080497 -1,3.8 3.8,2.8 7.6,5.5 11.4,8.3 l -4.5,13.5 c -0.5,1.6 1.5,3.3 2.9,2.3 3.9,-2.8 7.8,-5.7 11.7,-8.5 3.863023,2.881619 7.865898,5.580633 11.7,8.5 1.4,1 3.5,-0.7 2.9,-2.3 -1.5,-4.6 -3,-9.1 -4.4,-13.7 3.76051,-2.819713 7.66064,-5.452772 11.4,-8.3 2.049289,-1.280806 0.880734,-3.7 -0.9,-3.7 z"
   id="path1"
   sodipodi:nodetypes="scscssscscccccccccs" />
</g>
</svg>
