<?xml version="1.0" encoding="UTF-8" standalone="no"?>
<!-- Uploaded to: SVG Repo, www.svgrepo.com, Generator: SVG Repo Mixer Tools -->

<svg
   fill="#000000"
   height="800px"
   width="800px"
   version="1.1"
   id="Layer_1"
   viewBox="0 0 512 512"
   xml:space="preserve"
   sodipodi:docname="wheel2.svg"
   inkscape:version="1.1.2 (0a00cf5339, 2022-02-04)"
   xmlns:inkscape="http://www.inkscape.org/namespaces/inkscape"
   xmlns:sodipodi="http://sodipodi.sourceforge.net/DTD/sodipodi-0.dtd"
   xmlns="http://www.w3.org/2000/svg"
   xmlns:svg="http://www.w3.org/2000/svg"><defs
   id="defs11" /><sodipodi:namedview
   id="namedview9"
   pagecolor="#ffffff"
   bordercolor="#666666"
   borderopacity="1.0"
   inkscape:pageshadow="2"
   inkscape:pageopacity="0.0"
   inkscape:pagecheckerboard="0"
   showgrid="false"
   inkscape:zoom="0.5275"
   inkscape:cx="482.46445"
   inkscape:cy="40.758294"
   inkscape:window-width="1850"
   inkscape:window-height="1016"
   inkscape:window-x="70"
   inkscape:window-y="27"
   inkscape:window-maximized="1"
   inkscape:current-layer="Layer_1" />
<g
   id="g6"
   style="fill:#ffffff">
	<g
   id="g4"
   style="fill:#ffffff">
		<path
   d="M437.02,74.981C388.668,26.628,324.38,0,256,0S123.333,26.628,74.98,74.981C26.628,123.333,0,187.62,0,256    s26.628,132.667,74.98,181.019C123.333,485.372,187.62,512,256,512s132.667-26.628,181.02-74.981    C485.372,388.668,512,324.38,512,256S485.372,123.333,437.02,74.981z M256,57.263c100.782,0,184.276,75.409,197.04,172.765    L329.849,218.03c-13.813-26.755-41.72-45.102-73.849-45.102s-60.036,18.347-73.849,45.102L58.96,230.028    C71.724,132.672,155.218,57.263,256,57.263z M58.889,281.375l121.731,9.484c7.69,16.55,20.669,30.166,36.76,38.655l7.978,122.859    C138.513,438.875,70.099,368.943,58.889,281.375z M256,281.809c-14.232,0-25.809-11.578-25.809-25.809S241.77,230.191,256,230.191    S281.809,241.77,281.809,256S270.232,281.809,256,281.809z M286.644,452.373l7.978-122.859    c16.091-8.488,29.069-22.105,36.76-38.655l121.731-9.484C441.901,368.943,373.487,438.875,286.644,452.373z"
   id="path2"
   style="fill:#ffffff" />
	</g>
</g>
</svg>
