<?xml version="1.0" encoding="UTF-8" standalone="no"?>
<!-- Svg Vector Icons : http://www.onlinewebfonts.com/icon -->

<svg
   version="1.1"
   x="0px"
   y="0px"
   viewBox="0 0 24 24"
   enable-background="new 0 0 1000 1000"
   xml:space="preserve"
   id="svg42"
   sodipodi:docname="stick.svg"
   width="24"
   height="24"
   inkscape:version="1.2.1 (9c6d41e410, 2022-07-14)"
   xmlns:inkscape="http://www.inkscape.org/namespaces/inkscape"
   xmlns:sodipodi="http://sodipodi.sourceforge.net/DTD/sodipodi-0.dtd"
   xmlns="http://www.w3.org/2000/svg"
   xmlns:svg="http://www.w3.org/2000/svg"><defs
   id="defs46" /><sodipodi:namedview
   id="namedview44"
   pagecolor="#ffffff"
   bordercolor="#000000"
   borderopacity="0.25"
   inkscape:showpageshadow="2"
   inkscape:pageopacity="0.0"
   inkscape:pagecheckerboard="0"
   inkscape:deskcolor="#d1d1d1"
   showgrid="false"
   inkscape:zoom="19.844245"
   inkscape:cx="11.388692"
   inkscape:cy="13.454782"
   inkscape:window-width="929"
   inkscape:window-height="1041"
   inkscape:window-x="62"
   inkscape:window-y="0"
   inkscape:window-maximized="0"
   inkscape:current-layer="svg42" />
<metadata
   id="metadata2"> Svg Vector Icons : http://www.onlinewebfonts.com/icon </metadata>
<g
   id="g40"
   transform="matrix(0.0184821,0,0,0.0184821,2.4846997,2.7697932)"
   style="fill:#ffffff"><g
     id="g8"
     style="fill:#ffffff"><g
       id="g6"
       style="fill:#ffffff"><path
         d="m 837.9,750.7 v -1.3 c 0,-74 -101.6,-132.8 -247.4,-150.1 V 434.6 C 668.4,400.2 722.8,322.4 722.8,231.7 722.8,109.2 623.5,10 501,10 378.6,10 279.3,109.2 279.3,231.7 c 0,90.6 54.4,168.5 132.3,202.9 V 599 c -144,16.6 -245.3,73.6 -249.5,145.8 H 162 v 4.4 c 0,0.1 0,0.1 0,0.2 v 0 l 0.1,48.4 0.4,41.1 0.1,1.4 c 6,85.3 151.1,149.7 337.3,149.7 192.7,0 338,-66.8 338,-155.4 v -5.2 c 0.2,-58.4 0.1,-73.7 0,-78.7 M 346.8,174.6 c -16.6,-16.6 -9.3,-50.8 16.3,-76.4 25.6,-25.6 59.8,-32.9 76.4,-16.3 16.6,16.6 9.3,50.8 -16.3,76.4 -25.6,25.6 -59.8,32.9 -76.4,16.3 M 501,453.4 c 15.7,0 30.9,-1.6 45.7,-4.7 v 292 l -0.1,5.9 c -4.7,4.1 -21.2,10.8 -45.6,10.8 -24.4,0 -40.9,-6.6 -45.6,-10.8 l -0.1,-297.9 c 14.9,3 30.1,4.7 45.7,4.7 M 205.7,749.3 c 0.2,-43.2 81.3,-90.5 205.9,-106.1 v 31.3 C 327.4,686.4 268,714.8 268,747.9 c 0,43.9 103.8,79.4 231.9,79.4 128.1,0 231.9,-35.5 231.9,-79.4 0,-32.8 -58.3,-61 -141.4,-73.1 v -31.3 c 123.4,16 203.7,62.9 203.7,105.9 v 1.6 0.2 C 791.6,814.1 658,867 499.9,867 341,867 206.7,813.6 205.7,750.1 Z m 588.4,80 v 5.3 c 0,52.8 -120.8,111.7 -294.2,111.7 C 420,946.3 344.8,933.5 288.1,910.2 239,890 208.4,863 206.2,837.8 l -0.3,-36.3 c 45.9,51.7 158.7,87.4 294.1,87.4 135.5,0 248.5,-35.8 294.3,-87.6 -0.1,8 -0.1,17.2 -0.2,28"
         id="path4"
         style="fill:#ffffff" /></g></g><g
     id="g10"
     style="fill:#ffffff" /><g
     id="g12"
     style="fill:#ffffff" /><g
     id="g14"
     style="fill:#ffffff" /><g
     id="g16"
     style="fill:#ffffff" /><g
     id="g18"
     style="fill:#ffffff" /><g
     id="g20"
     style="fill:#ffffff" /><g
     id="g22"
     style="fill:#ffffff" /><g
     id="g24"
     style="fill:#ffffff" /><g
     id="g26"
     style="fill:#ffffff" /><g
     id="g28"
     style="fill:#ffffff" /><g
     id="g30"
     style="fill:#ffffff" /><g
     id="g32"
     style="fill:#ffffff" /><g
     id="g34"
     style="fill:#ffffff" /><g
     id="g36"
     style="fill:#ffffff" /><g
     id="g38"
     style="fill:#ffffff" /></g>
</svg>
