<?xml version="1.0" encoding="UTF-8" standalone="no"?>
<!-- Generator: Adobe Illustrator 26.0.3, SVG Export Plug-In . SVG Version: 6.00 Build 0)  -->

<svg
   version="1.1"
   id="Layer_1"
   x="0px"
   y="0px"
   viewBox="0 0 3839 317.3"
   style="enable-background:new 0 0 3839 317.3;"
   xml:space="preserve"
   sodipodi:docname="segacd32x.svg"
   inkscape:version="1.3 (0e150ed6c4, 2023-07-21)"
   xmlns:inkscape="http://www.inkscape.org/namespaces/inkscape"
   xmlns:sodipodi="http://sodipodi.sourceforge.net/DTD/sodipodi-0.dtd"
   xmlns="http://www.w3.org/2000/svg"
   xmlns:svg="http://www.w3.org/2000/svg"><defs
   id="defs19" /><sodipodi:namedview
   id="namedview19"
   pagecolor="#ffffff"
   bordercolor="#000000"
   borderopacity="0.25"
   inkscape:showpageshadow="2"
   inkscape:pageopacity="0.0"
   inkscape:pagecheckerboard="0"
   inkscape:deskcolor="#d1d1d1"
   inkscape:zoom="0.73222193"
   inkscape:cx="1919.5"
   inkscape:cy="159.10477"
   inkscape:window-width="3440"
   inkscape:window-height="1369"
   inkscape:window-x="-8"
   inkscape:window-y="-8"
   inkscape:window-maximized="1"
   inkscape:current-layer="g18" />&#10;<style
   type="text/css"
   id="style1">&#10;	.st0{clip-path:url(#SVGID_00000043420333706999676090000016975206867304516023_);fill:#F02622;}&#10;	.st1{clip-path:url(#SVGID_00000043420333706999676090000016975206867304516023_);fill:#DA221F;}&#10;	.st2{fill:#FFFFFF;}&#10;	.st3{fill:#034693;}&#10;	.st4{clip-path:url(#SVGID_00000054235689705514028420000017193205396183495315_);fill:#FF0025;}&#10;	.st5{clip-path:url(#SVGID_00000054235689705514028420000017193205396183495315_);fill:#E8001C;}&#10;	.st6{clip-path:url(#SVGID_00000054235689705514028420000017193205396183495315_);fill:#DA221F;}&#10;	.st7{clip-path:url(#SVGID_00000054235689705514028420000017193205396183495315_);fill:#F02622;}&#10;	.st8{clip-path:url(#SVGID_00000136408182762516209150000009119234271549064603_);fill:#F02622;}&#10;	.st9{clip-path:url(#SVGID_00000136408182762516209150000009119234271549064603_);fill:#DA221F;}&#10;	.st10{fill:#B2B2B2;}&#10;	.st11{clip-path:url(#SVGID_00000041269960747513269150000015411886979684288939_);fill:#FF0025;}&#10;	.st12{clip-path:url(#SVGID_00000041269960747513269150000015411886979684288939_);fill:#E8001C;}&#10;	.st13{clip-path:url(#SVGID_00000041269960747513269150000015411886979684288939_);fill:#DA221F;}&#10;	.st14{clip-path:url(#SVGID_00000041269960747513269150000015411886979684288939_);fill:#F02622;}&#10;	.st15{clip-path:url(#SVGID_00000021088538459931456300000012144009626948943011_);fill:#FAD512;}&#10;	.st16{clip-path:url(#SVGID_00000021088538459931456300000012144009626948943011_);fill:#FEBB09;}&#10;	.st17{fill:#DA221F;}&#10;	.st18{clip-path:url(#SVGID_00000036961199468322239770000008828692231661933247_);fill:#FAD512;}&#10;	.st19{clip-path:url(#SVGID_00000036961199468322239770000008828692231661933247_);fill:#E8001C;}&#10;	.st20{clip-path:url(#SVGID_00000036961199468322239770000008828692231661933247_);fill:#FEBB09;}&#10;	.st21{clip-path:url(#SVGID_00000134931773552329325300000009773421182796220858_);fill:#FAD512;}&#10;	.st22{clip-path:url(#SVGID_00000134931773552329325300000009773421182796220858_);fill:#FEBB09;}&#10;	.st23{clip-path:url(#SVGID_00000068644978208431179600000007806927499787751063_);fill:#FF0025;}&#10;	.st24{clip-path:url(#SVGID_00000068644978208431179600000007806927499787751063_);fill:#E8001C;}&#10;	.st25{clip-path:url(#SVGID_00000068644978208431179600000007806927499787751063_);fill:#008ED6;}&#10;	.st26{clip-path:url(#SVGID_00000068644978208431179600000007806927499787751063_);fill:#00A1F2;}&#10;	.st27{clip-path:url(#SVGID_00000023988245994668430760000003067904395046090119_);fill:#FF0025;}&#10;	.st28{clip-path:url(#SVGID_00000023988245994668430760000003067904395046090119_);fill:#E8001C;}&#10;	.st29{clip-path:url(#SVGID_00000023988245994668430760000003067904395046090119_);fill:#008ED6;}&#10;	.st30{clip-path:url(#SVGID_00000023988245994668430760000003067904395046090119_);fill:#00A1F2;}&#10;	.st31{display:none;}&#10;	.st32{display:inline;}&#10;	.st33{clip-path:url(#SVGID_00000074443847069678430970000006405982227587194539_);fill:#F02622;}&#10;	.st34{clip-path:url(#SVGID_00000074443847069678430970000006405982227587194539_);fill:#DA221F;}&#10;	.st35{clip-path:url(#SVGID_00000070819409020440560740000009411390728821277614_);fill:#FF0025;}&#10;	.st36{clip-path:url(#SVGID_00000070819409020440560740000009411390728821277614_);fill:#E8001C;}&#10;	.st37{clip-path:url(#SVGID_00000070819409020440560740000009411390728821277614_);fill:#DA221F;}&#10;	.st38{clip-path:url(#SVGID_00000070819409020440560740000009411390728821277614_);fill:#F02622;}&#10;	.st39{clip-path:url(#SVGID_00000105391449082398827380000006724673730274015906_);fill:#F02622;}&#10;	.st40{clip-path:url(#SVGID_00000105391449082398827380000006724673730274015906_);fill:#DA221F;}&#10;	.st41{clip-path:url(#SVGID_00000160868724921075473410000012265957592446576526_);fill:#FF0025;}&#10;	.st42{clip-path:url(#SVGID_00000160868724921075473410000012265957592446576526_);fill:#E8001C;}&#10;	.st43{clip-path:url(#SVGID_00000160868724921075473410000012265957592446576526_);fill:#DA221F;}&#10;	.st44{clip-path:url(#SVGID_00000160868724921075473410000012265957592446576526_);fill:#F02622;}&#10;	.st45{clip-path:url(#SVGID_00000003079724930169972980000006121359024809222841_);fill:#FAD512;}&#10;	.st46{clip-path:url(#SVGID_00000003079724930169972980000006121359024809222841_);fill:#FEBB09;}&#10;	.st47{clip-path:url(#SVGID_00000030481378417672272880000002211432234591393188_);fill:#FAD512;}&#10;	.st48{clip-path:url(#SVGID_00000030481378417672272880000002211432234591393188_);fill:#E8001C;}&#10;	.st49{clip-path:url(#SVGID_00000030481378417672272880000002211432234591393188_);fill:#FEBB09;}&#10;	.st50{clip-path:url(#SVGID_00000118389137357764451190000010209155012257943680_);fill:#FF0025;}&#10;	.st51{clip-path:url(#SVGID_00000118389137357764451190000010209155012257943680_);fill:#E8001C;}&#10;	.st52{clip-path:url(#SVGID_00000118389137357764451190000010209155012257943680_);fill:#FF981D;}&#10;	.st53{clip-path:url(#SVGID_00000118389137357764451190000010209155012257943680_);fill:#FFAF22;}&#10;	.st54{clip-path:url(#SVGID_00000118389137357764451190000010209155012257943680_);fill:#FAD512;}&#10;	.st55{clip-path:url(#SVGID_00000118389137357764451190000010209155012257943680_);fill:#FEBB09;}&#10;	.st56{clip-path:url(#SVGID_00000105426587405005365460000010876055250315407294_);fill:#FF0025;}&#10;	.st57{clip-path:url(#SVGID_00000105426587405005365460000010876055250315407294_);fill:#E8001C;}&#10;	.st58{clip-path:url(#SVGID_00000105426587405005365460000010876055250315407294_);fill:#008ED6;}&#10;	.st59{clip-path:url(#SVGID_00000105426587405005365460000010876055250315407294_);fill:#00A1F2;}&#10;	.st60{clip-path:url(#SVGID_00000165950120299917387990000009729432011458319004_);fill:#FF0025;}&#10;	.st61{clip-path:url(#SVGID_00000165950120299917387990000009729432011458319004_);fill:#E8001C;}&#10;	.st62{clip-path:url(#SVGID_00000165950120299917387990000009729432011458319004_);fill:#008ED6;}&#10;	.st63{clip-path:url(#SVGID_00000165950120299917387990000009729432011458319004_);fill:#00A1F2;}&#10;</style>&#10;<g
   id="g19">&#10;	<g
   id="g9">&#10;		<path
   d="M347.4,107.2l-8.2-3.5c0.5-1.6,1-3.5,1-5.5c0-5.1-47.9-32.5-131-32.5c-79.4,0-113.5,18.9-113.5,43.1    c0,64.3,300.1-29.7,300.1,112.1c0,51.7-65.2,91.7-195.7,91.7c-124.3,0-159.9-30.5-171.7-30.5c-3.1,0-4.6,2-7.1,3.1l-6.6-1.2    l42.3-66.6l8.2,3.1c0,1.6-1,3.1-1,6.3c0,23.2,65.7,39.5,131,39.5c92.7,0,124.3-20.4,124.3-41.9c0-76.8-296,18.5-296-111.7    c-0.1-65.8,90-93.2,188.9-93.2c88.6,0,150.8,29.7,156.9,29.7c6.6,0,7.7-1.6,9.2-2.7l8.2,2L347.4,107.2z"
   id="path1" />&#10;		<path
   d="M410.6,303.2c11.2,0,13.3-3.1,13.3-11.8V40.6c0-8.6-2-11.8-13.3-11.8v-5.5h330.6c12.2,0,17.4-3.1,17.4-8.6h7.1v65.1h-7.1    c0-7.1-5.1-10.2-17.4-10.2h-245v69.8h159.9c12.2,0,17.4-3.1,17.4-10.2h7.1v65.9h-7.1c0-3.1-1-5.5-4.1-7.1    c-2.6-1.6-7.1-2.4-13.3-2.4H496.2v76.8h249.7c12.2,0,17.4-3.1,17.4-9.4h7.1v64.3h-7.1c0-5.5-5.1-8.6-17.4-8.6H410.6V303.2z"
   id="path2" />&#10;		<path
   d="M1197.7,158.2v5.5c-5.1,0.8-9.7,3.9-9.7,12.6v77.2c0,6.3,2.6,8.6,9.2,9.8v5.5c-32.1,14.1-110.5,43.9-198.6,43.9    c-117.2,0-220.1-44.7-220.1-146.5S898.6,19.5,1004.6,19.5c41.7,0,81.6,7.5,110.5,14.5c27,9,46.9,16.1,50.4,16.1    c4.6,0,9.2-2,11.2-4.3l7.1,2.4l-49.4,64.3l-7.1-3.5c0.5-1.6,1-3.9,1-6.7c0-12.2-55-36.4-122.8-36.4c-85.5,0-154.8,32.5-154.8,98.7    c0,69.4,69.3,101.9,147.7,101.9c64.2,0,101.9-16.9,117.2-25.5v-32.5H1028c-10.2,0-16.3,3.9-16.3,9.4h-7.1v-69h7.1    c0,5.5,6.1,9.4,16.3,9.4L1197.7,158.2L1197.7,158.2z"
   id="path3" />&#10;		<path
   d="M1198.7,308.6v-5.5c9.2-0.4,12.2-2.4,19.4-14.9l139.1-240.6c2.6-3.9,5.6-8.2,5.6-11.8c0-4.3-4.1-6.3-10.7-7.1v-5.5h111.1    v5.5c-7.7,0.8-10.7,3.1-10.7,5.9c0,3.1,2,6.3,4.6,10.2l147.7,243.4c7.1,12.2,9.2,14.9,19.9,14.9v5.5h-101.4v-5.5    c6.6,0,9.2-2,9.2-3.9c0-4.3-4.6-9.8-38.7-65.8H1319c-29.5,50.9-37.2,58.8-37.2,63.9c0,3.5,3.1,5.5,7.7,5.9v5.5L1198.7,308.6    L1198.7,308.6z M1464.1,188.8L1403,86l-60.1,102.7H1464.1z"
   id="path4" />&#10;		<path
   d="M2083.6,109.6l-7.7-3.1c0.5-2.4,0.5-4.3,0.5-6.3c0-9.4-61.6-34.4-125.3-34.4c-81,0-153.8,28.3-153.8,100.3    s72.9,100.3,159.9,100.3c70.8,0,131.5-30.5,131.5-48.2c0-2-1-5.5-2-7.1l5.1-2.7l52.5,57.6l-4.1,1.6c-1.5-0.8-4.6-1.2-6.1-1.2    c-15.3,0-54.5,46.2-182.9,46.2c-113.6,0-226.2-43.5-226.2-146.5c0-91.7,104.9-146.5,229.8-146.5c89.6,0,149.7,30.5,160.5,30.5    c5.1,0,8.2-0.4,11.7-4.7l7.1,2L2083.6,109.6z"
   id="path5" />&#10;		<path
   d="M2181.8,40.6c0-8.6-2-11.8-14.3-11.8v-5.5h225.2c129.4,0,184.4,56.8,184.4,142.6c0,94.8-68.3,142.6-173.2,142.6h-236.4    v-5.5c12.2,0,14.3-3.1,14.3-11.8V40.6z M2254.2,262.4h149.7c63.2,0,100.8-25.1,100.8-96.4c0-76.1-50.9-96.4-118.2-96.4h-132.5    L2254.2,262.4L2254.2,262.4z"
   id="path6" />&#10;		<path
   d="M2846.7,126.5h7.1c2,6.7,10.2,9.8,38.7,9.8c69.8,0,88.6-17.7,88.6-34.4c0-18.1-24.5-36-78-36    c-68.8,0-116.2,28.9-116.2,41.9c0,2.7,1,5.1,2,7.1l-6.1,3.9L2729,64.2l7.1-3.1c2,1.2,4.6,2.4,7.7,2.4c14.8,0,45.8-43.9,164-43.9    c83.1,0,145.7,34.4,145.7,79.6c0,26.7-18.9,47.4-51.4,54.9v0.8c42.8,11.8,72.4,34.1,72.4,71.3c0,50.5-64.2,86.6-163,86.6    c-133,0-162-35.2-179.3-35.2c-4.1,0-7.1,1.6-10.2,3.5l-8.2-2.4l40.7-67.4l7.7,3.5c0,1.2-0.5,2.7-0.5,4.7c0,15.3,56.5,47,141.2,47    c64.2,0,99.3-17.3,99.3-41.9c0-21.6-26.5-45-100.3-45c-38.2,0-46.3,4.3-47.9,11.4h-7.1v-64.4H2846.7z"
   id="path7" />&#10;		<path
   d="M3087.5,77.5l7.1-4.3c1,1.2,3.1,2,6.1,2c14.3,0,52.5-55.6,161-55.6c63.2,0,142.1,27.9,142.1,82.3    c0,104.2-194.6,93.2-246.6,159.1h245.6c11.2,0,15.3-3.1,15.3-9.4h7.1v65.8h-7.1c0-5.5-4.1-8.6-15.3-8.6h-327    c0-143,255.7-136.8,255.7-204.1c0-25.5-38.2-38.8-72.9-38.8c-58.6-0.1-108.5,37.5-108.5,54.8c0,3.5,2,5.9,4.1,7.9l-6.6,4.7    L3087.5,77.5z"
   id="path8" />&#10;		<path
   d="M3444.2,308.6v-5.5c12.8-0.8,16.3-6.7,26-16.5l127.4-125.8l-120.2-123c-3.1-3.1-7.7-9-20.4-9v-5.6h120.2v5.5    c-6.6,0-10.7,1.6-10.7,5.5c0,1.6,2.6,4.7,7.7,9.8l69.3,71.3l72.4-71.7c4.1-4.3,7.1-7.5,7.1-9.8c0-3.1-4.1-5.1-8.7-5.1v-5.5h113.1    v5.5c-16.8,0.4-23.5,7.1-33.1,16.5l-111.1,110.1l128.4,131.3c10.2,10.6,13.8,16.1,27.6,16.5v5.5h-119.2v-5.5    c7.7,0,9.7-1.2,9.7-5.1c0-3.5-8.7-11.4-18.4-21.2l-74.4-75.7l-90.1,89.3c-2.6,2.7-4.6,3.9-4.6,7.5c0,3.1,4.1,5.1,10.7,5.1v5.5    H3444.2z"
   id="path9" />&#10;	</g>&#10;	<g
   id="g18">&#10;		<path
   class="st17"
   d="M332.6,92.4l-8.2-3.5c0.5-1.6,1-3.5,1-5.5c0-5.1-47.9-32.5-131-32.5C115.1,50.9,81,69.8,81,94    C81,158.3,381,64.3,381,206.1c0,51.7-65.2,91.7-195.7,91.7c-124.3,0-159.9-30.5-171.7-30.5c-3.1,0-4.6,2-7.1,3.1L0,269.2    l42.3-66.6l8.2,3.1c0,1.6-1,3.1-1,6.3c0,23.2,65.7,39.5,131,39.5c92.7,0,124.3-20.4,124.3-41.9c0-76.8-296,18.5-296-111.7    C8.7,32.1,98.8,4.7,197.7,4.7c88.6,0,150.8,29.7,156.9,29.7c6.6,0,7.7-1.6,9.2-2.7l8.2,2L332.6,92.4z"
   id="path10"
   style="fill:#da221f;fill-opacity:1" />&#10;		<path
   class="st17"
   d="M395.8,288.4c11.2,0,13.3-3.1,13.3-11.8V25.9c0-8.6-2-11.8-13.3-11.8V8.6h330.6c12.2,0,17.4-3.1,17.4-8.6    h7.1v65.1h-7.1c0-7.1-5.1-10.2-17.4-10.2h-245v69.8h159.9c12.2,0,17.4-3.1,17.4-10.2h7.1v65.9h-7.1c0-3.1-1-5.5-4.1-7.1    c-2.6-1.6-7.1-2.4-13.3-2.4H481.4v76.8h249.7c12.2,0,17.4-3.1,17.4-9.4h7.1v64.3h-7.1c0-5.5-5.1-8.6-17.4-8.6H395.8V288.4z"
   id="path11"
   style="fill:#da221f;fill-opacity:1" />&#10;		<path
   class="st17"
   d="M1182.9,143.4v5.5c-5.1,0.8-9.7,3.9-9.7,12.6v77.2c0,6.3,2.6,8.6,9.2,9.8v5.5    c-32.1,14.1-110.5,43.9-198.6,43.9c-117.2,0-220.1-44.7-220.1-146.5S883.8,4.7,989.8,4.7c41.7,0,81.6,7.5,110.5,14.5    c27,9,46.9,16.1,50.4,16.1c4.6,0,9.2-2,11.2-4.3l7.1,2.4l-49.4,64.3l-7.1-3.5c0.5-1.6,1-3.9,1-6.7c0-12.2-55-36.4-122.8-36.4    c-85.5,0-154.8,32.5-154.8,98.7c0,69.4,69.3,101.9,147.7,101.9c64.2,0,101.9-16.9,117.2-25.5v-32.5h-87.6    c-10.2,0-16.3,3.9-16.3,9.4h-7.1v-69h7.1c0,5.5,6.1,9.4,16.3,9.4L1182.9,143.4L1182.9,143.4z"
   id="path12"
   style="fill:#da221f;fill-opacity:1" />&#10;		<path
   class="st17"
   d="M1183.9,293.9v-5.5c9.2-0.4,12.2-2.4,19.4-14.9l139.1-240.6c2.6-3.9,5.6-8.2,5.6-11.8    c0-4.3-4.1-6.3-10.7-7.1V8.6h111.1v5.5c-7.7,0.8-10.7,3.1-10.7,5.9c0,3.1,2,6.3,4.6,10.2L1590,273.5c7.1,12.2,9.2,14.9,19.9,14.9    v5.5h-101.4v-5.5c6.6,0,9.2-2,9.2-3.9c0-4.3-4.6-9.8-38.7-65.8h-174.7c-29.5,50.9-37.2,58.8-37.2,63.9c0,3.5,3.1,5.5,7.7,5.9v5.5    L1183.9,293.9L1183.9,293.9z M1449.3,174l-61.1-102.7L1328.2,174H1449.3z"
   id="path13"
   style="fill:#da221f;fill-opacity:1" />&#10;		<path
   class="st17"
   d="M2068.8,94.8l-7.7-3.1c0.5-2.4,0.5-4.3,0.5-6.3c0-9.4-61.6-34.4-125.3-34.4c-81,0-153.8,28.3-153.8,100.3    s72.9,100.3,159.9,100.3c70.8,0,131.5-30.5,131.5-48.2c0-2-1-5.5-2-7.1l5.1-2.7l52.5,57.6l-4.1,1.6c-1.5-0.8-4.6-1.2-6.1-1.2    c-15.3,0-54.5,46.2-182.9,46.2c-113.6,0-226.2-43.5-226.2-146.5c0-91.7,104.9-146.5,229.8-146.5c89.6,0,149.7,30.5,160.5,30.5    c5.1,0,8.2-0.4,11.7-4.7l7.1,2L2068.8,94.8z"
   id="path14"
   style="fill:#da221f;fill-opacity:1" />&#10;		<path
   class="st17"
   d="M2167.1,25.9c0-8.6-2-11.8-14.3-11.8V8.6H2378c129.4,0,184.4,56.8,184.4,142.6    c0,94.8-68.3,142.6-173.2,142.6h-236.4v-5.5c12.2,0,14.3-3.1,14.3-11.8V25.9z M2239.4,247.7h149.7c63.2,0,100.8-25.1,100.8-96.4    c0-76.1-50.9-96.4-118.2-96.4h-132.5L2239.4,247.7L2239.4,247.7z"
   id="path15"
   style="fill:#da221f;fill-opacity:1" />&#10;		<path
   class="st17"
   d="M2831.9,111.7h7.1c2,6.7,10.2,9.8,38.7,9.8c69.8,0,88.6-17.7,88.6-34.4c0-18.1-24.5-36-78-36    c-68.8,0-116.2,28.9-116.2,41.9c0,2.7,1,5.1,2,7.1l-6.1,3.9l-53.9-54.5l7.1-3.1c2,1.2,4.6,2.4,7.7,2.4c14.8,0,45.8-43.9,164-43.9    c83.1,0,145.7,34.4,145.7,79.6c0,26.7-18.9,47.4-51.4,54.9v0.8c42.8,11.8,72.4,34.1,72.4,71.3c0,50.5-64.2,86.6-163,86.6    c-133,0-162-35.2-179.3-35.2c-4.1,0-7.1,1.6-10.2,3.5l-8.2-2.4l40.7-67.4l7.7,3.5c0,1.2-0.5,2.7-0.5,4.7c0,15.3,56.5,47,141.2,47    c64.2,0,99.3-17.3,99.3-41.9c0-21.6-26.5-45-100.3-45c-38.2,0-46.3,4.3-47.9,11.4h-7.1v-64.4H2831.9z"
   id="path16"
   style="fill:#da221f;fill-opacity:1" />&#10;		<path
   class="st17"
   d="M3072.8,62.7l7.1-4.3c1,1.2,3.1,2,6.1,2c14.3,0,52.5-55.6,161-55.6c63.2,0,142.1,27.9,142.1,82.3    c0,104.2-194.6,93.2-246.6,159.1h245.6c11.2,0,15.3-3.1,15.3-9.4h7.1v65.8h-7.1c0-5.5-4.1-8.6-15.3-8.6h-327    c0-143,255.7-136.8,255.7-204.1c0-25.5-38.2-38.8-72.9-38.8c-58.6-0.1-108.5,37.5-108.5,54.8c0,3.5,2,5.9,4.1,7.9l-6.6,4.7    L3072.8,62.7z"
   id="path17"
   style="fill:#da221f;fill-opacity:1" />&#10;		<path
   class="st17"
   d="M3429.4,293.9v-5.5c12.8-0.8,16.3-6.7,26-16.5l127.4-125.8l-120.2-123c-3.1-3.1-7.7-9-20.4-9V8.6h120.2v5.5    c-6.6,0-10.7,1.6-10.7,5.5c0,1.6,2.6,4.7,7.7,9.8l69.3,71.3l72.4-71.7c4.1-4.3,7.1-7.5,7.1-9.8c0-3.1-4.1-5.1-8.7-5.1V8.6h113.1    v5.5c-16.8,0.4-23.5,7.1-33.1,16.5l-111.1,110.1l128.4,131.3c10.2,10.6,13.8,16.1,27.6,16.5v5.5H3705v-5.5c7.7,0,9.7-1.2,9.7-5.1    c0-3.5-8.7-11.4-18.4-21.2l-74.4-75.7l-90.1,89.3c-2.6,2.7-4.6,3.9-4.6,7.5c0,3.1,4.1,5.1,10.7,5.1v5.5H3429.4z"
   id="path18"
   style="fill:#da221f;fill-opacity:1" />&#10;	</g>&#10;</g>&#10;</svg>
