<svg enable-background="new 0 0 20 12.473" height="12.473" viewBox="0 0 20 12.473" width="20" xmlns="http://www.w3.org/2000/svg" xmlns:xlink="http://www.w3.org/1999/xlink"><linearGradient id="a" gradientUnits="userSpaceOnUse" x1="10" x2="10" y1="0" y2="11.1632"><stop offset="0" stop-color="#5b5b5f"/><stop offset=".0626" stop-color="#535356"/><stop offset=".3018" stop-color="#373739"/><stop offset=".5397" stop-color="#242425"/><stop offset=".7739" stop-color="#181818"/><stop offset="1" stop-color="#141414"/></linearGradient><linearGradient id="b" gradientUnits="userSpaceOnUse" x1="10" x2="10" y1="0" y2="12.4727"><stop offset="0" stop-color="#5b5b5f"/><stop offset=".0155" stop-color="#58585b"/><stop offset=".1488" stop-color="#3f3f41"/><stop offset=".296" stop-color="#2c2c2d"/><stop offset=".4624" stop-color="#1e1e1f"/><stop offset=".6643" stop-color="#161617"/><stop offset="1" stop-color="#141414"/></linearGradient><path d="m20 9.91c0 1.415-1.147 2.563-2.563 2.563h-14.875c-1.416 0-2.562-1.148-2.562-2.563v-7.347c0-1.416 1.146-2.563 2.562-2.563h14.876c1.415 0 2.562 1.147 2.562 2.563z" fill="url(#a)"/><path d="m17.438 1.512c.58 0 1.051.472 1.051 1.051v7.347c0 .58-.471 1.051-1.051 1.051h-14.876c-.579 0-1.05-.471-1.05-1.051v-7.347c0-.579.471-1.051 1.05-1.051zm0-1.512h-14.876c-1.416 0-2.562 1.147-2.562 2.563v7.347c0 1.415 1.146 2.563 2.562 2.563h14.876c1.415 0 2.563-1.147 2.563-2.563v-7.347c-.001-1.416-1.148-2.563-2.563-2.563z" fill="url(#b)"/><g fill="#fff"><path d="m10.988 5.856c.201-.326.303-.705.303-1.126 0-.317-.058-.618-.17-.895-.114-.277-.279-.521-.492-.722-.211-.199-.465-.356-.756-.469-.289-.111-.614-.167-.966-.167h-3.813v7.52h1.83v-2.797h1.402c.473 0 .67.092.754.169.117.11.176.311.176.599v2.028h1.842v-2.211c0-.457-.076-.796-.229-1.037-.093-.146-.222-.27-.388-.369.207-.134.376-.309.507-.523zm-4.064-1.765h1.736c.314 0 .537.069.66.207.131.145.194.328.194.562 0 .226-.064.405-.197.55-.128.138-.366.207-.711.207h-1.682z"/><path d="m13.406 2.477-.018.17c-.02.187-.06.351-.119.485-.057.127-.137.23-.245.315-.11.087-.259.152-.438.196-.192.046-.438.07-.73.07h-.188v1.347h1.463v4.937h1.776v-7.52z"/></g></svg>