<?xml version="1.0" encoding="UTF-8" standalone="no"?>
<svg
   enable-background="new 0 0 20.007 15.854"
   height="15.854"
   viewBox="0 0 20.007 15.854"
   width="20.007"
   version="1.1"
   id="svg44"
   sodipodi:docname="select.svg"
   inkscape:version="1.1 (c68e22c387, 2021-05-23)"
   xmlns:inkscape="http://www.inkscape.org/namespaces/inkscape"
   xmlns:sodipodi="http://sodipodi.sourceforge.net/DTD/sodipodi-0.dtd"
   xmlns="http://www.w3.org/2000/svg"
   xmlns:svg="http://www.w3.org/2000/svg">
  <defs
     id="defs48" />
  <sodipodi:namedview
     id="namedview46"
     pagecolor="#ffffff"
     bordercolor="#666666"
     borderopacity="1.0"
     inkscape:pageshadow="2"
     inkscape:pageopacity="0.0"
     inkscape:pagecheckerboard="0"
     showgrid="false"
     inkscape:zoom="52.478869"
     inkscape:cx="9.9944989"
     inkscape:cy="9.9944989"
     inkscape:window-width="1920"
     inkscape:window-height="1017"
     inkscape:window-x="-8"
     inkscape:window-y="-8"
     inkscape:window-maximized="1"
     inkscape:current-layer="svg44" />
  <linearGradient
     id="a"
     gradientUnits="userSpaceOnUse"
     x1="10.0034"
     x2="10.0034"
     y1="10.2437"
     y2=".2607">
    <stop
       offset="0"
       stop-color="#141414"
       id="stop2" />
    <stop
       offset=".2088"
       stop-color="#1c1c1d"
       id="stop4" />
    <stop
       offset=".5493"
       stop-color="#333335"
       id="stop6" />
    <stop
       offset=".9769"
       stop-color="#59595d"
       id="stop8" />
    <stop
       offset="1"
       stop-color="#5b5b5f"
       id="stop10" />
  </linearGradient>
  <linearGradient
     id="b"
     gradientUnits="userSpaceOnUse"
     x1="10.0034"
     x2="10.0034"
     y1="10.5044"
     y2="0">
    <stop
       offset="0"
       stop-color="#141414"
       id="stop13" />
    <stop
       offset=".2261"
       stop-color="#181818"
       id="stop15" />
    <stop
       offset=".4603"
       stop-color="#242425"
       id="stop17" />
    <stop
       offset=".6982"
       stop-color="#373739"
       id="stop19" />
    <stop
       offset=".9374"
       stop-color="#535356"
       id="stop21" />
    <stop
       offset="1"
       stop-color="#5b5b5f"
       id="stop23" />
  </linearGradient>
  <path
     d="m19.523 8.66c0 .645-.939 1.583-1.583 1.583h-15.873c-.645 0-1.583-.939-1.583-1.583v-6.815c0-.645.939-1.584 1.583-1.584h15.872c.645 0 1.583.939 1.583 1.584v6.815z"
     fill="url(#a)"
     id="path26" />
  <path
     d="m17.939 10.504h-15.872c-.793 0-1.844-1.051-1.844-1.844v-6.815c0-.794 1.051-1.845 1.844-1.845h15.872c.793 0 1.844 1.051 1.844 1.845v6.815c.001.793-1.051 1.844-1.844 1.844zm-15.872-9.983c-.495 0-1.323.828-1.323 1.323v6.816c0 .495.829 1.323 1.323 1.323h15.872c.495 0 1.323-.829 1.323-1.323v-6.815c0-.495-.829-1.323-1.323-1.323h-15.872z"
     fill="url(#b)"
     id="path28" />
  <g
     fill="#fff"
     id="g42"
     style="fill:#666666;fill-opacity:1">
    <path
       d="m2.048 13.295c-.018-.177-.082-.309-.193-.396s-.278-.13-.5-.13c-.41 0-.615.141-.615.422 0 .101.042.185.127.252.085.068.221.125.409.169.222.052.415.101.578.146.164.045.313.097.449.156.076.031.148.07.216.117s.125.105.172.175c.047.069.084.153.112.25.028.098.042.215.042.354 0 .167-.034.314-.104.443-.069.129-.164.237-.281.326-.118.089-.257.156-.417.203s-.329.071-.505.071c-.504 0-.883-.098-1.136-.292-.255-.194-.388-.482-.402-.864h.698c.003.177.076.317.216.419.141.103.317.154.529.154.229 0 .403-.042.521-.125s.177-.196.177-.339c0-.055-.007-.107-.021-.153-.014-.047-.041-.09-.081-.128-.039-.038-.094-.072-.163-.102-.07-.03-.16-.057-.271-.081-.265-.055-.493-.112-.686-.169s-.352-.128-.477-.213-.217-.188-.276-.31-.089-.276-.089-.464c0-.143.026-.276.078-.401s.132-.233.24-.326.241-.165.399-.219.344-.081.56-.081c.208 0 .396.026.563.081.167.054.31.13.43.229s.213.219.279.36.103.296.109.466z"
       id="path30"
       style="fill:#666666;fill-opacity:1" />
    <path
       d="m3.622 15.734v-3.46h2.543v.604h-1.84v.74h1.693v.61h-1.692v.891h1.923v.615z"
       id="path32"
       style="fill:#666666;fill-opacity:1" />
    <path
       d="m6.994 15.734v-3.46h.724v2.83h1.715v.63z"
       id="path34"
       style="fill:#666666;fill-opacity:1" />
    <path
       d="m10.204 15.734v-3.46h2.543v.604h-1.84v.74h1.693v.61h-1.693v.891h1.923v.615z"
       id="path36"
       style="fill:#666666;fill-opacity:1" />
    <path
       d="m16.625 14.546c-.038.198-.099.377-.182.537s-.188.297-.315.412-.273.203-.44.266-.351.094-.553.094c-.226 0-.437-.039-.633-.115-.196-.077-.366-.191-.508-.344-.143-.153-.254-.342-.336-.566s-.123-.485-.123-.784c0-.292.037-.555.112-.79.074-.234.181-.433.32-.594s.308-.286.508-.373.423-.13.67-.13c.215 0 .411.032.586.096s.327.153.453.266c.127.113.228.246.302.399.075.153.121.316.138.49h-.724c-.049-.198-.143-.352-.282-.461s-.295-.164-.469-.164c-.302 0-.525.109-.667.326s-.213.515-.213.894c0 .386.07.686.211.899.141.214.352.321.633.321.215 0 .388-.058.519-.174s.22-.284.269-.503h.724z"
       id="path38"
       style="fill:#666666;fill-opacity:1" />
    <path
       d="m18.235 15.734v-2.856h-1.042v-.604h2.814v.604h-1.047v2.856z"
       id="path40"
       style="fill:#666666;fill-opacity:1" />
  </g>
</svg>
