<?xml version="1.0" encoding="UTF-8" standalone="no"?>
<!-- Generator: Adobe Illustrator 16.0.0, SVG Export Plug-In . SVG Version: 6.00 Build 0)  -->

<svg
   version="1.1"
   id="Capa_1"
   x="0px"
   y="0px"
   width="20.025px"
   height="19.866px"
   viewBox="0 0 20.025 19.866"
   enable-background="new 0 0 20.025 19.866"
   xml:space="preserve"
   sodipodi:docname="leftright.svg"
   inkscape:version="1.1 (c68e22c387, 2021-05-23)"
   xmlns:inkscape="http://www.inkscape.org/namespaces/inkscape"
   xmlns:sodipodi="http://sodipodi.sourceforge.net/DTD/sodipodi-0.dtd"
   xmlns="http://www.w3.org/2000/svg"
   xmlns:svg="http://www.w3.org/2000/svg"><defs
   id="defs103" /><sodipodi:namedview
   id="namedview101"
   pagecolor="#ffffff"
   bordercolor="#666666"
   borderopacity="1.0"
   inkscape:pageshadow="2"
   inkscape:pageopacity="0.0"
   inkscape:pagecheckerboard="0"
   showgrid="false"
   inkscape:zoom="41.880602"
   inkscape:cx="10.016571"
   inkscape:cy="9.9449383"
   inkscape:window-width="1920"
   inkscape:window-height="1017"
   inkscape:window-x="-8"
   inkscape:window-y="-8"
   inkscape:window-maximized="1"
   inkscape:current-layer="Capa_1" />
<g
   id="g98">
	<g
   id="g24">
		<linearGradient
   id="SVGID_1_"
   gradientUnits="userSpaceOnUse"
   x1="10.0137"
   y1="8.5313"
   x2="10.0137"
   y2="0">
			<stop
   offset="0.3"
   style="stop-color:#1E1E1E"
   id="stop2" />
			<stop
   offset="1"
   style="stop-color:#5B5B5F"
   id="stop4" />
		</linearGradient>
		<path
   fill="url(#SVGID_1_)"
   d="M13.35,5.557l-3.336,2.975L6.677,5.557V1.115C6.677,0.499,7.176,0,7.792,0h4.442    c0.616,0,1.115,0.499,1.115,1.115V5.557z"
   id="path7" />
		<linearGradient
   id="SVGID_2_"
   gradientUnits="userSpaceOnUse"
   x1="10.0137"
   y1="8.5313"
   x2="10.0137"
   y2="0">
			<stop
   offset="0"
   style="stop-color:#141414"
   id="stop9" />
			<stop
   offset="0.2261"
   style="stop-color:#181818"
   id="stop11" />
			<stop
   offset="0.4603"
   style="stop-color:#242425"
   id="stop13" />
			<stop
   offset="0.6982"
   style="stop-color:#373739"
   id="stop15" />
			<stop
   offset="0.9374"
   style="stop-color:#535356"
   id="stop17" />
			<stop
   offset="1"
   style="stop-color:#5B5B5F"
   id="stop19" />
		</linearGradient>
		<path
   fill="url(#SVGID_2_)"
   d="M12.234,0.65c0.256,0,0.465,0.209,0.465,0.465v4.15L10.014,7.66L7.327,5.266v-4.15    c0-0.256,0.209-0.465,0.465-0.465H12.234 M12.234,0H7.792C7.176,0,6.677,0.499,6.677,1.115v4.441l3.337,2.975l3.336-2.975V1.115    C13.35,0.499,12.851,0,12.234,0L12.234,0z"
   id="path22" />
	</g>
	<g
   id="g48">
		
			<linearGradient
   id="SVGID_3_"
   gradientUnits="userSpaceOnUse"
   x1="-97.4224"
   y1="-261.7139"
   x2="-97.4224"
   y2="-253.1826"
   gradientTransform="matrix(-1 0 0 -1 -87.4082 -241.8477)">
			<stop
   offset="0.3"
   style="stop-color:#1E1E1E"
   id="stop26" />
			<stop
   offset="1"
   style="stop-color:#5B5B5F"
   id="stop28" />
		</linearGradient>
		<path
   fill="url(#SVGID_3_)"
   d="M6.677,14.309l3.337-2.974l3.336,2.974v4.441c0,0.617-0.499,1.116-1.115,1.116H7.792    c-0.616,0-1.115-0.499-1.115-1.116V14.309z"
   id="path31" />
		<linearGradient
   id="SVGID_4_"
   gradientUnits="userSpaceOnUse"
   x1="10.0137"
   y1="19.8662"
   x2="10.0137"
   y2="11.335">
			<stop
   offset="0"
   style="stop-color:#141414"
   id="stop33" />
			<stop
   offset="0.2261"
   style="stop-color:#181818"
   id="stop35" />
			<stop
   offset="0.4603"
   style="stop-color:#242425"
   id="stop37" />
			<stop
   offset="0.6982"
   style="stop-color:#373739"
   id="stop39" />
			<stop
   offset="0.9374"
   style="stop-color:#535356"
   id="stop41" />
			<stop
   offset="1"
   style="stop-color:#5B5B5F"
   id="stop43" />
		</linearGradient>
		<path
   fill="url(#SVGID_4_)"
   d="M10.014,12.206l2.686,2.394v4.15c0,0.257-0.209,0.467-0.465,0.467H7.792    c-0.256,0-0.465-0.21-0.465-0.467V14.6L10.014,12.206 M10.014,11.335l-3.337,2.974v4.441c0,0.617,0.499,1.116,1.115,1.116h4.442    c0.616,0,1.115-0.499,1.115-1.116v-4.441L10.014,11.335L10.014,11.335z"
   id="path46" />
	</g>
	<g
   id="g72">
		
			<linearGradient
   id="SVGID_5_"
   gradientUnits="userSpaceOnUse"
   x1="-104.1772"
   y1="-171.0537"
   x2="-110.8491"
   y2="-171.0537"
   gradientTransform="matrix(0 1 -1 0 -155.2939 117.4473)">
			<stop
   offset="0.3"
   style="stop-color:#1E1E1E"
   id="stop50" />
			<stop
   offset="1"
   style="stop-color:#5B5B5F"
   id="stop52" />
		</linearGradient>
		<path
   fill="url(#SVGID_5_)"
   d="M14.469,13.27l-2.975-3.337l2.975-3.335h4.441c0.617,0,1.115,0.499,1.115,1.115v4.441    c0,0.615-0.5,1.115-1.115,1.115H14.469z"
   style="fill:#666666;fill-opacity:1"
   id="path55" />
		<linearGradient
   id="SVGID_6_"
   gradientUnits="userSpaceOnUse"
   x1="15.7598"
   y1="13.2695"
   x2="15.7598"
   y2="6.5977">
			<stop
   offset="0"
   style="stop-color:#141414"
   id="stop57" />
			<stop
   offset="0.2325"
   style="stop-color:#181818"
   id="stop59" />
			<stop
   offset="0.4734"
   style="stop-color:#242425"
   id="stop61" />
			<stop
   offset="0.7181"
   style="stop-color:#373739"
   id="stop63" />
			<stop
   offset="0.9641"
   style="stop-color:#525256"
   id="stop65" />
			<stop
   offset="1"
   style="stop-color:#57575B"
   id="stop67" />
		</linearGradient>
		<path
   fill="url(#SVGID_6_)"
   d="M18.91,7.248c0.256,0,0.465,0.208,0.465,0.465v4.441c0,0.256-0.209,0.464-0.465,0.464h-4.15    l-2.394-2.686l2.394-2.685H18.91 M18.91,6.598h-4.441l-2.975,3.335l2.975,3.337h4.441c0.615,0,1.115-0.5,1.115-1.115V7.713    C20.025,7.097,19.527,6.598,18.91,6.598L18.91,6.598z"
   id="path70" />
	</g>
	<g
   id="g96">
		
			<linearGradient
   id="SVGID_7_"
   gradientUnits="userSpaceOnUse"
   x1="17.4355"
   y1="-58.9541"
   x2="24.1074"
   y2="-58.9541"
   gradientTransform="matrix(0 -1 1 0 63.2197 30.7051)">
			<stop
   offset="0.3"
   style="stop-color:#1E1E1E"
   id="stop74" />
			<stop
   offset="1"
   style="stop-color:#5B5B5F"
   id="stop76" />
		</linearGradient>
		<path
   fill="url(#SVGID_7_)"
   d="M5.558,6.598l2.974,3.335L5.558,13.27H1.115C0.5,13.27,0,12.77,0,12.154V7.712    c0-0.615,0.5-1.114,1.115-1.114H5.558z"
   style="fill:#666666;fill-opacity:1"
   id="path79" />
		<linearGradient
   id="SVGID_8_"
   gradientUnits="userSpaceOnUse"
   x1="4.2656"
   y1="13.2695"
   x2="4.2656"
   y2="6.5977">
			<stop
   offset="0"
   style="stop-color:#141414"
   id="stop81" />
			<stop
   offset="0.2261"
   style="stop-color:#181818"
   id="stop83" />
			<stop
   offset="0.4603"
   style="stop-color:#242425"
   id="stop85" />
			<stop
   offset="0.6982"
   style="stop-color:#373739"
   id="stop87" />
			<stop
   offset="0.9374"
   style="stop-color:#535356"
   id="stop89" />
			<stop
   offset="1"
   style="stop-color:#5B5B5F"
   id="stop91" />
		</linearGradient>
		<path
   fill="url(#SVGID_8_)"
   d="M5.267,7.248L7.66,9.933l-2.394,2.686H1.115c-0.256,0-0.465-0.208-0.465-0.464V7.712    c0-0.256,0.209-0.464,0.465-0.464H5.267 M5.558,6.598H1.115C0.5,6.598,0,7.097,0,7.712v4.442c0,0.615,0.5,1.115,1.115,1.115h4.442    l2.974-3.337L5.558,6.598L5.558,6.598z"
   id="path94" />
	</g>
</g>
</svg>
